<?xml version="1.0" encoding="UTF-8" standalone="no"?>
<!DOCTYPE svg PUBLIC "-//W3C//DTD SVG 1.1//EN"
 "http://www.w3.org/Graphics/SVG/1.1/DTD/svg11.dtd">
<!-- Generated by graphviz version 2.43.0 (0)
 -->
<!-- Title: %3 Pages: 1 -->
<svg width="1811pt" height="131pt"
 viewBox="0.00 0.00 1811.44 131.00" xmlns="http://www.w3.org/2000/svg" xmlns:xlink="http://www.w3.org/1999/xlink">
<g id="graph0" class="graph" transform="scale(1 1) rotate(0) translate(4 127)">
<title>%3</title>
<polygon fill="white" stroke="transparent" points="-4,4 -4,-127 1807.44,-127 1807.44,4 -4,4"/>
<!-- anatomical entity -->
<g id="node1" class="node">
<title>anatomical entity</title>
<ellipse fill="none" stroke="black" cx="901.94" cy="-105" rx="91.78" ry="18"/>
<text text-anchor="middle" x="901.94" y="-101.3" font-family="Times,serif" font-size="14.00">anatomical entity</text>
</g>
<!-- organismal entity -->
<g id="node2" class="node">
<title>organismal entity</title>
<ellipse fill="none" stroke="black" cx="92.94" cy="-18" rx="92.88" ry="18"/>
<text text-anchor="middle" x="92.94" y="-14.3" font-family="Times,serif" font-size="14.00">organismal entity</text>
</g>
<!-- anatomical entity&#45;&gt;organismal entity -->
<g id="edge1" class="edge">
<title>anatomical entity&#45;&gt;organismal entity</title>
<path fill="none" stroke="black" d="M814.14,-99.66C716.85,-94.39 555.4,-84.26 416.94,-69 317.79,-58.07 293.48,-51.53 194.94,-36 187,-34.75 178.71,-33.41 170.45,-32.06"/>
<polygon fill="black" stroke="black" points="170.84,-28.58 160.4,-30.41 169.7,-35.49 170.84,-28.58"/>
<text text-anchor="middle" x="430.94" y="-57.8" font-family="Times,serif" font-size="14.00">is_a</text>
</g>
<!-- physical essence -->
<g id="node3" class="node">
<title>physical essence</title>
<ellipse fill="none" stroke="black" cx="291.94" cy="-18" rx="88.28" ry="18"/>
<text text-anchor="middle" x="291.94" y="-14.3" font-family="Times,serif" font-size="14.00">physical essence</text>
</g>
<!-- anatomical entity&#45;&gt;physical essence -->
<g id="edge2" class="edge">
<title>anatomical entity&#45;&gt;physical essence</title>
<path fill="none" stroke="black" d="M815.58,-98.81C739.35,-93.55 625.36,-84.01 526.94,-69 468.43,-60.08 402.57,-45.68 355.5,-34.62"/>
<polygon fill="black" stroke="black" points="356.29,-31.21 345.75,-32.32 354.68,-38.03 356.29,-31.21"/>
<text text-anchor="middle" x="543.44" y="-57.8" font-family="Times,serif" font-size="14.00">uses</text>
</g>
<!-- id -->
<g id="node4" class="node">
<title>id</title>
<ellipse fill="none" stroke="blue" cx="436.94" cy="-18" rx="38.19" ry="18"/>
<text text-anchor="middle" x="436.94" y="-14.3" font-family="Times,serif" font-size="14.00">string</text>
</g>
<!-- anatomical entity&#45;&gt;id -->
<g id="edge3" class="edge">
<title>anatomical entity&#45;&gt;id</title>
<path fill="none" stroke="blue" d="M821.2,-96.36C736.32,-87.05 599.46,-68.4 484.94,-36 481.84,-35.12 478.64,-34.15 475.44,-33.12"/>
<polygon fill="blue" stroke="blue" points="476.53,-29.8 465.94,-29.95 474.31,-36.44 476.53,-29.8"/>
<text text-anchor="middle" x="627.94" y="-57.8" font-family="Times,serif" font-size="14.00">id</text>
</g>
<!-- iri -->
<g id="node5" class="node">
<title>iri</title>
<ellipse fill="none" stroke="blue" cx="537.94" cy="-18" rx="44.39" ry="18"/>
<text text-anchor="middle" x="537.94" y="-14.3" font-family="Times,serif" font-size="14.00">iri type</text>
</g>
<!-- anatomical entity&#45;&gt;iri -->
<g id="edge4" class="edge">
<title>anatomical entity&#45;&gt;iri</title>
<path fill="none" stroke="blue" d="M835.72,-92.53C800.6,-86.16 756.8,-77.77 717.94,-69 661.47,-56.25 647.57,-52.03 591.94,-36 588.43,-34.99 584.8,-33.91 581.16,-32.81"/>
<polygon fill="blue" stroke="blue" points="582.15,-29.45 571.57,-29.86 580.1,-36.15 582.15,-29.45"/>
<text text-anchor="middle" x="725.94" y="-57.8" font-family="Times,serif" font-size="14.00">iri</text>
</g>
<!-- type -->
<g id="node6" class="node">
<title>type</title>
<ellipse fill="none" stroke="blue" cx="638.94" cy="-18" rx="38.19" ry="18"/>
<text text-anchor="middle" x="638.94" y="-14.3" font-family="Times,serif" font-size="14.00">string</text>
</g>
<!-- anatomical entity&#45;&gt;type -->
<g id="edge5" class="edge">
<title>anatomical entity&#45;&gt;type</title>
<path fill="none" stroke="blue" d="M852.01,-89.82C830.67,-83.63 805.52,-76.16 782.94,-69 739.53,-55.24 728.91,-51.08 685.94,-36 683.26,-35.06 680.49,-34.08 677.7,-33.08"/>
<polygon fill="blue" stroke="blue" points="678.84,-29.78 668.24,-29.7 676.48,-36.37 678.84,-29.78"/>
<text text-anchor="middle" x="798.94" y="-57.8" font-family="Times,serif" font-size="14.00">type</text>
</g>
<!-- name -->
<g id="node7" class="node">
<title>name</title>
<ellipse fill="none" stroke="blue" cx="751.94" cy="-18" rx="56.59" ry="18"/>
<text text-anchor="middle" x="751.94" y="-14.3" font-family="Times,serif" font-size="14.00">label type</text>
</g>
<!-- anatomical entity&#45;&gt;name -->
<g id="edge6" class="edge">
<title>anatomical entity&#45;&gt;name</title>
<path fill="none" stroke="blue" d="M873.37,-87.81C848.89,-73.94 813.52,-53.9 787.27,-39.02"/>
<polygon fill="blue" stroke="blue" points="788.82,-35.87 778.39,-33.99 785.37,-41.96 788.82,-35.87"/>
<text text-anchor="middle" x="855.94" y="-57.8" font-family="Times,serif" font-size="14.00">name</text>
</g>
<!-- description -->
<g id="node8" class="node">
<title>description</title>
<ellipse fill="none" stroke="blue" cx="901.94" cy="-18" rx="75.29" ry="18"/>
<text text-anchor="middle" x="901.94" y="-14.3" font-family="Times,serif" font-size="14.00">narrative text</text>
</g>
<!-- anatomical entity&#45;&gt;description -->
<g id="edge7" class="edge">
<title>anatomical entity&#45;&gt;description</title>
<path fill="none" stroke="blue" d="M901.94,-86.8C901.94,-75.16 901.94,-59.55 901.94,-46.24"/>
<polygon fill="blue" stroke="blue" points="905.44,-46.18 901.94,-36.18 898.44,-46.18 905.44,-46.18"/>
<text text-anchor="middle" x="942.44" y="-57.8" font-family="Times,serif" font-size="14.00">description</text>
</g>
<!-- provided by -->
<g id="node9" class="node">
<title>provided by</title>
<ellipse fill="none" stroke="blue" cx="1033.94" cy="-18" rx="38.19" ry="18"/>
<text text-anchor="middle" x="1033.94" y="-14.3" font-family="Times,serif" font-size="14.00">string</text>
</g>
<!-- anatomical entity&#45;&gt;provided by -->
<g id="edge8" class="edge">
<title>anatomical entity&#45;&gt;provided by</title>
<path fill="none" stroke="blue" d="M947.89,-89.22C961.1,-83.9 975.12,-77.15 986.94,-69 997.41,-61.78 1007.32,-51.89 1015.32,-42.81"/>
<polygon fill="blue" stroke="blue" points="1018.03,-45.02 1021.82,-35.13 1012.69,-40.5 1018.03,-45.02"/>
<text text-anchor="middle" x="1047.44" y="-57.8" font-family="Times,serif" font-size="14.00">provided by</text>
</g>
<!-- xref -->
<g id="node10" class="node">
<title>xref</title>
<ellipse fill="none" stroke="blue" cx="1147.94" cy="-18" rx="57.39" ry="18"/>
<text text-anchor="middle" x="1147.94" y="-14.3" font-family="Times,serif" font-size="14.00">uriorcurie</text>
</g>
<!-- anatomical entity&#45;&gt;xref -->
<g id="edge9" class="edge">
<title>anatomical entity&#45;&gt;xref</title>
<path fill="none" stroke="blue" d="M968.93,-92.7C1022.01,-83.6 1088.2,-71.87 1093.94,-69 1106.57,-62.69 1118.35,-52.51 1127.67,-42.98"/>
<polygon fill="blue" stroke="blue" points="1130.32,-45.27 1134.58,-35.57 1125.2,-40.5 1130.32,-45.27"/>
<text text-anchor="middle" x="1130.44" y="-57.8" font-family="Times,serif" font-size="14.00">xref</text>
</g>
<!-- category -->
<g id="node11" class="node">
<title>category</title>
<ellipse fill="none" stroke="black" cx="1274.94" cy="-18" rx="51.19" ry="18"/>
<text text-anchor="middle" x="1274.94" y="-14.3" font-family="Times,serif" font-size="14.00">category</text>
</g>
<!-- anatomical entity&#45;&gt;category -->
<g id="edge10" class="edge">
<title>anatomical entity&#45;&gt;category</title>
<path fill="none" stroke="blue" d="M967.5,-92.41C978.96,-90.51 990.79,-88.63 1001.94,-87 1067.07,-77.48 1085.16,-85.27 1148.94,-69 1179.34,-61.24 1212.25,-48.01 1236.8,-37.1"/>
<polygon fill="blue" stroke="blue" points="1238.44,-40.2 1246.12,-32.9 1235.56,-33.82 1238.44,-40.2"/>
<text text-anchor="middle" x="1227.44" y="-57.8" font-family="Times,serif" font-size="14.00">category</text>
</g>
<!-- in taxon -->
<g id="node13" class="node">
<title>in taxon</title>
<ellipse fill="none" stroke="blue" cx="1427.94" cy="-18" rx="83.39" ry="18"/>
<text text-anchor="middle" x="1427.94" y="-14.3" font-family="Times,serif" font-size="14.00">organism taxon</text>
</g>
<!-- anatomical entity&#45;&gt;in taxon -->
<g id="edge11" class="edge">
<title>anatomical entity&#45;&gt;in taxon</title>
<path fill="none" stroke="blue" d="M966.09,-92.12C977.98,-90.2 990.31,-88.39 1001.94,-87 1117.4,-73.24 1148.58,-89.99 1262.94,-69 1302.43,-61.75 1345.83,-48.37 1378.21,-37.28"/>
<polygon fill="blue" stroke="blue" points="1379.59,-40.5 1387.88,-33.92 1377.29,-33.89 1379.59,-40.5"/>
<text text-anchor="middle" x="1351.94" y="-57.8" font-family="Times,serif" font-size="14.00">in taxon</text>
</g>
<!-- in taxon label -->
<g id="node14" class="node">
<title>in taxon label</title>
<ellipse fill="none" stroke="blue" cx="1585.94" cy="-18" rx="56.59" ry="18"/>
<text text-anchor="middle" x="1585.94" y="-14.3" font-family="Times,serif" font-size="14.00">label type</text>
</g>
<!-- anatomical entity&#45;&gt;in taxon label -->
<g id="edge12" class="edge">
<title>anatomical entity&#45;&gt;in taxon label</title>
<path fill="none" stroke="blue" d="M965.53,-92C977.59,-90.06 990.12,-88.28 1001.94,-87 1171.36,-68.69 1216.28,-93.35 1384.94,-69 1437.77,-61.38 1496.9,-45.78 1537.27,-34.03"/>
<polygon fill="blue" stroke="blue" points="1538.51,-37.31 1547.12,-31.13 1536.54,-30.6 1538.51,-37.31"/>
<text text-anchor="middle" x="1506.44" y="-57.8" font-family="Times,serif" font-size="14.00">in taxon label</text>
</g>
<!-- has attribute -->
<g id="node15" class="node">
<title>has attribute</title>
<ellipse fill="none" stroke="black" cx="1731.94" cy="-18" rx="71.49" ry="18"/>
<text text-anchor="middle" x="1731.94" y="-14.3" font-family="Times,serif" font-size="14.00">has attribute</text>
</g>
<!-- anatomical entity&#45;&gt;has attribute -->
<g id="edge13" class="edge">
<title>anatomical entity&#45;&gt;has attribute</title>
<path fill="none" stroke="blue" d="M965.25,-91.9C977.39,-89.96 990.03,-88.2 1001.94,-87 1248.38,-62.19 1314.3,-107.68 1558.94,-69 1601.8,-62.22 1649.04,-48.1 1683.31,-36.58"/>
<polygon fill="blue" stroke="blue" points="1684.73,-39.8 1693.07,-33.26 1682.47,-33.17 1684.73,-39.8"/>
<text text-anchor="middle" x="1667.94" y="-57.8" font-family="Times,serif" font-size="14.00">has attribute</text>
</g>
<!-- named thing_category -->
<g id="node12" class="node">
<title>named thing_category</title>
<ellipse fill="none" stroke="blue" cx="1085.94" cy="-105" rx="74.99" ry="18"/>
<text text-anchor="middle" x="1085.94" y="-101.3" font-family="Times,serif" font-size="14.00">category type</text>
</g>
<!-- organismal entity_has attribute -->
<g id="node16" class="node">
<title>organismal entity_has attribute</title>
<ellipse fill="none" stroke="blue" cx="1230.94" cy="-105" rx="51.99" ry="18"/>
<text text-anchor="middle" x="1230.94" y="-101.3" font-family="Times,serif" font-size="14.00">attribute</text>
</g>
</g>
</svg>
