<?xml version="1.0" encoding="UTF-8" standalone="no"?>
<!DOCTYPE svg PUBLIC "-//W3C//DTD SVG 1.1//EN"
 "http://www.w3.org/Graphics/SVG/1.1/DTD/svg11.dtd">
<!-- Generated by graphviz version 2.40.1 (20161225.0304)
 -->
<!-- Title: %3 Pages: 1 -->
<svg width="1237pt" height="131pt"
 viewBox="0.00 0.00 1237.44 131.00" xmlns="http://www.w3.org/2000/svg" xmlns:xlink="http://www.w3.org/1999/xlink">
<g id="graph0" class="graph" transform="scale(1 1) rotate(0) translate(4 127)">
<title>%3</title>
<polygon fill="#ffffff" stroke="transparent" points="-4,4 -4,-127 1233.4377,-127 1233.4377,4 -4,4"/>
<!-- anatomical entity -->
<g id="node1" class="node">
<title>anatomical entity</title>
<ellipse fill="none" stroke="#000000" cx="669.7935" cy="-105" rx="72.2875" ry="18"/>
<text text-anchor="middle" x="669.7935" y="-101.3" font-family="Times,serif" font-size="14.00" fill="#000000">anatomical entity</text>
</g>
<!-- organismal entity -->
<g id="node2" class="node">
<title>organismal entity</title>
<ellipse fill="none" stroke="#000000" cx="72.7935" cy="-18" rx="72.5877" ry="18"/>
<text text-anchor="middle" x="72.7935" y="-14.3" font-family="Times,serif" font-size="14.00" fill="#000000">organismal entity</text>
</g>
<!-- anatomical entity&#45;&gt;organismal entity -->
<g id="edge1" class="edge">
<title>anatomical entity&#45;&gt;organismal entity</title>
<path fill="none" stroke="#000000" d="M602.7899,-98.1866C504.1995,-87.6725 314.453,-65.5747 154.7935,-36 148.9177,-34.9116 142.8207,-33.7101 136.724,-32.4597"/>
<polygon fill="#000000" stroke="#000000" points="137.0082,-28.9434 126.5033,-30.3205 135.5741,-35.7949 137.0082,-28.9434"/>
<text text-anchor="middle" x="363.7935" y="-57.8" font-family="Times,serif" font-size="14.00" fill="#000000">is_a</text>
</g>
<!-- thing with taxon -->
<g id="node3" class="node">
<title>thing with taxon</title>
<ellipse fill="none" stroke="#000000" cx="232.7935" cy="-18" rx="68.7879" ry="18"/>
<text text-anchor="middle" x="232.7935" y="-14.3" font-family="Times,serif" font-size="14.00" fill="#000000">thing with taxon</text>
</g>
<!-- anatomical entity&#45;&gt;thing with taxon -->
<g id="edge2" class="edge">
<title>anatomical entity&#45;&gt;thing with taxon</title>
<path fill="none" stroke="#000000" d="M611.0206,-94.5508C539.6164,-81.6679 415.5728,-58.6833 309.7935,-36 304.5081,-34.8666 299.027,-33.656 293.5354,-32.4188"/>
<polygon fill="#000000" stroke="#000000" points="294.2068,-28.9822 283.6792,-30.174 292.6523,-35.8074 294.2068,-28.9822"/>
<text text-anchor="middle" x="479.7935" y="-57.8" font-family="Times,serif" font-size="14.00" fill="#000000">uses</text>
</g>
<!-- physical essence -->
<g id="node4" class="node">
<title>physical essence</title>
<ellipse fill="none" stroke="#000000" cx="388.7935" cy="-18" rx="69.5877" ry="18"/>
<text text-anchor="middle" x="388.7935" y="-14.3" font-family="Times,serif" font-size="14.00" fill="#000000">physical essence</text>
</g>
<!-- anatomical entity&#45;&gt;physical essence -->
<g id="edge3" class="edge">
<title>anatomical entity&#45;&gt;physical essence</title>
<path fill="none" stroke="#000000" d="M623.4161,-91.1016C601.394,-84.4683 574.7178,-76.3844 550.7935,-69 514.6931,-57.8573 474.1465,-45.0924 442.6483,-35.1206"/>
<polygon fill="#000000" stroke="#000000" points="443.3468,-31.6705 432.7567,-31.9868 441.2326,-38.3436 443.3468,-31.6705"/>
<text text-anchor="middle" x="562.7935" y="-57.8" font-family="Times,serif" font-size="14.00" fill="#000000">uses</text>
</g>
<!-- id -->
<g id="node5" class="node">
<title>id</title>
<ellipse fill="none" stroke="#0000ff" cx="506.7935" cy="-18" rx="30.5947" ry="18"/>
<text text-anchor="middle" x="506.7935" y="-14.3" font-family="Times,serif" font-size="14.00" fill="#000000">string</text>
</g>
<!-- anatomical entity&#45;&gt;id -->
<g id="edge4" class="edge">
<title>anatomical entity&#45;&gt;id</title>
<path fill="none" stroke="#0000ff" d="M639.1345,-88.636C610.3421,-73.2683 567.4545,-50.3773 538.368,-34.8526"/>
<polygon fill="#0000ff" stroke="#0000ff" points="539.9147,-31.7109 529.4446,-30.0898 536.6186,-37.8863 539.9147,-31.7109"/>
<text text-anchor="middle" x="604.2935" y="-57.8" font-family="Times,serif" font-size="14.00" fill="#000000">id</text>
</g>
<!-- category -->
<g id="node6" class="node">
<title>category</title>
<ellipse fill="none" stroke="#0000ff" cx="613.7935" cy="-18" rx="58.4896" ry="18"/>
<text text-anchor="middle" x="613.7935" y="-14.3" font-family="Times,serif" font-size="14.00" fill="#000000">category type</text>
</g>
<!-- anatomical entity&#45;&gt;category -->
<g id="edge5" class="edge">
<title>anatomical entity&#45;&gt;category</title>
<path fill="none" stroke="#0000ff" d="M658.1903,-86.9735C650.2537,-74.6435 639.6035,-58.0975 630.7236,-44.3021"/>
<polygon fill="#0000ff" stroke="#0000ff" points="633.5458,-42.22 625.1903,-35.7057 627.6598,-46.0087 633.5458,-42.22"/>
<text text-anchor="middle" x="669.2935" y="-57.8" font-family="Times,serif" font-size="14.00" fill="#000000">category</text>
</g>
<!-- iri -->
<g id="node7" class="node">
<title>iri</title>
<ellipse fill="none" stroke="#0000ff" cx="726.7935" cy="-18" rx="36.2938" ry="18"/>
<text text-anchor="middle" x="726.7935" y="-14.3" font-family="Times,serif" font-size="14.00" fill="#000000">iri type</text>
</g>
<!-- anatomical entity&#45;&gt;iri -->
<g id="edge6" class="edge">
<title>anatomical entity&#45;&gt;iri</title>
<path fill="none" stroke="#0000ff" d="M683.9329,-86.9714C688.2012,-81.3137 692.809,-74.9819 696.7935,-69 701.9509,-61.2574 707.2137,-52.6105 711.8619,-44.6679"/>
<polygon fill="#0000ff" stroke="#0000ff" points="715.0325,-46.1758 716.9931,-35.764 708.9675,-42.6807 715.0325,-46.1758"/>
<text text-anchor="middle" x="712.2935" y="-57.8" font-family="Times,serif" font-size="14.00" fill="#000000">iri</text>
</g>
<!-- name -->
<g id="node8" class="node">
<title>name</title>
<ellipse fill="none" stroke="#0000ff" cx="826.7935" cy="-18" rx="45.4919" ry="18"/>
<text text-anchor="middle" x="826.7935" y="-14.3" font-family="Times,serif" font-size="14.00" fill="#000000">label type</text>
</g>
<!-- anatomical entity&#45;&gt;name -->
<g id="edge7" class="edge">
<title>anatomical entity&#45;&gt;name</title>
<path fill="none" stroke="#0000ff" d="M699.6936,-88.4312C725.7518,-73.9913 763.5893,-53.024 791.202,-37.7227"/>
<polygon fill="#0000ff" stroke="#0000ff" points="793.0922,-40.6768 800.1426,-32.7684 789.6993,-34.554 793.0922,-40.6768"/>
<text text-anchor="middle" x="773.2935" y="-57.8" font-family="Times,serif" font-size="14.00" fill="#000000">name</text>
</g>
<!-- source -->
<g id="node9" class="node">
<title>source</title>
<ellipse fill="none" stroke="#0000ff" cx="935.7935" cy="-18" rx="45.4919" ry="18"/>
<text text-anchor="middle" x="935.7935" y="-14.3" font-family="Times,serif" font-size="14.00" fill="#000000">label type</text>
</g>
<!-- anatomical entity&#45;&gt;source -->
<g id="edge8" class="edge">
<title>anatomical entity&#45;&gt;source</title>
<path fill="none" stroke="#0000ff" d="M718.1843,-91.5366C740.924,-85.0314 768.3486,-76.929 792.7935,-69 826.7716,-57.9788 864.8499,-44.334 893.1651,-33.9319"/>
<polygon fill="#0000ff" stroke="#0000ff" points="894.579,-37.141 902.7506,-30.3975 892.1573,-30.5733 894.579,-37.141"/>
<text text-anchor="middle" x="854.7935" y="-57.8" font-family="Times,serif" font-size="14.00" fill="#000000">source</text>
</g>
<!-- has attribute -->
<g id="node10" class="node">
<title>has attribute</title>
<ellipse fill="none" stroke="#0000ff" cx="1039.7935" cy="-18" rx="40.0939" ry="18"/>
<text text-anchor="middle" x="1039.7935" y="-14.3" font-family="Times,serif" font-size="14.00" fill="#000000">attribute</text>
</g>
<!-- anatomical entity&#45;&gt;has attribute -->
<g id="edge9" class="edge">
<title>anatomical entity&#45;&gt;has attribute</title>
<path fill="none" stroke="#0000ff" d="M732.6633,-95.9402C773.8842,-89.5405 828.8259,-80.1384 876.7935,-69 927.7576,-57.1658 940.0454,-52.2019 989.7935,-36 992.8639,-35.0001 996.0293,-33.9371 999.2064,-32.847"/>
<polygon fill="#0000ff" stroke="#0000ff" points="1000.4048,-36.1358 1008.6892,-29.5313 998.0944,-29.5281 1000.4048,-36.1358"/>
<text text-anchor="middle" x="967.2935" y="-57.8" font-family="Times,serif" font-size="14.00" fill="#000000">has attribute</text>
</g>
<!-- in taxon -->
<g id="node11" class="node">
<title>in taxon</title>
<ellipse fill="none" stroke="#0000ff" cx="1163.7935" cy="-18" rx="65.7887" ry="18"/>
<text text-anchor="middle" x="1163.7935" y="-14.3" font-family="Times,serif" font-size="14.00" fill="#000000">organism taxon</text>
</g>
<!-- anatomical entity&#45;&gt;in taxon -->
<g id="edge10" class="edge">
<title>anatomical entity&#45;&gt;in taxon</title>
<path fill="none" stroke="#0000ff" d="M740.7092,-101.5705C808.9707,-97.2874 914.8071,-88.0595 1004.7935,-69 1042.7957,-60.951 1084.5776,-47.3552 1115.7705,-36.2247"/>
<polygon fill="#0000ff" stroke="#0000ff" points="1117.2916,-39.3967 1125.5078,-32.7076 1114.9135,-32.813 1117.2916,-39.3967"/>
<text text-anchor="middle" x="1081.2935" y="-57.8" font-family="Times,serif" font-size="14.00" fill="#000000">in taxon</text>
</g>
</g>
</svg>
