<?xml version="1.0" encoding="UTF-8" standalone="no"?>
<!DOCTYPE svg PUBLIC "-//W3C//DTD SVG 1.1//EN"
 "http://www.w3.org/Graphics/SVG/1.1/DTD/svg11.dtd">
<!-- Generated by graphviz version 2.43.0 (0)
 -->
<!-- Title: %3 Pages: 1 -->
<svg width="2184pt" height="131pt"
 viewBox="0.00 0.00 2184.44 131.00" xmlns="http://www.w3.org/2000/svg" xmlns:xlink="http://www.w3.org/1999/xlink">
<g id="graph0" class="graph" transform="scale(1 1) rotate(0) translate(4 127)">
<title>%3</title>
<polygon fill="white" stroke="transparent" points="-4,4 -4,-127 2180.44,-127 2180.44,4 -4,4"/>
<!-- anatomical entity -->
<g id="node1" class="node">
<title>anatomical entity</title>
<ellipse fill="none" stroke="black" cx="1092.94" cy="-105" rx="91.78" ry="18"/>
<text text-anchor="middle" x="1092.94" y="-101.3" font-family="Times,serif" font-size="14.00">anatomical entity</text>
</g>
<!-- organismal entity -->
<g id="node2" class="node">
<title>organismal entity</title>
<ellipse fill="none" stroke="black" cx="92.94" cy="-18" rx="92.88" ry="18"/>
<text text-anchor="middle" x="92.94" y="-14.3" font-family="Times,serif" font-size="14.00">organismal entity</text>
</g>
<!-- anatomical entity&#45;&gt;organismal entity -->
<g id="edge1" class="edge">
<title>anatomical entity&#45;&gt;organismal entity</title>
<path fill="none" stroke="black" d="M1002,-102.41C870.11,-99.42 618.18,-91.12 404.94,-69 322.72,-60.47 229.19,-44.66 166.16,-33.09"/>
<polygon fill="black" stroke="black" points="166.78,-29.65 156.31,-31.27 165.51,-36.53 166.78,-29.65"/>
<text text-anchor="middle" x="418.94" y="-57.8" font-family="Times,serif" font-size="14.00">is_a</text>
</g>
<!-- physical essence -->
<g id="node3" class="node">
<title>physical essence</title>
<ellipse fill="none" stroke="black" cx="291.94" cy="-18" rx="88.28" ry="18"/>
<text text-anchor="middle" x="291.94" y="-14.3" font-family="Times,serif" font-size="14.00">physical essence</text>
</g>
<!-- anatomical entity&#45;&gt;physical essence -->
<g id="edge2" class="edge">
<title>anatomical entity&#45;&gt;physical essence</title>
<path fill="none" stroke="black" d="M1001.88,-102.86C888.13,-100.43 687.8,-92.81 517.94,-69 461.52,-61.09 398.28,-46.61 353.07,-35.26"/>
<polygon fill="black" stroke="black" points="353.69,-31.8 343.13,-32.74 351.97,-38.59 353.69,-31.8"/>
<text text-anchor="middle" x="534.44" y="-57.8" font-family="Times,serif" font-size="14.00">uses</text>
</g>
<!-- id -->
<g id="node4" class="node">
<title>id</title>
<ellipse fill="none" stroke="blue" cx="436.94" cy="-18" rx="38.19" ry="18"/>
<text text-anchor="middle" x="436.94" y="-14.3" font-family="Times,serif" font-size="14.00">string</text>
</g>
<!-- anatomical entity&#45;&gt;id -->
<g id="edge3" class="edge">
<title>anatomical entity&#45;&gt;id</title>
<path fill="none" stroke="blue" d="M1004.02,-100.62C912.4,-96.32 765.63,-87.15 639.94,-69 570.23,-58.93 552.73,-55.13 484.94,-36 481.84,-35.12 478.64,-34.15 475.44,-33.13"/>
<polygon fill="blue" stroke="blue" points="476.53,-29.8 465.94,-29.95 474.31,-36.44 476.53,-29.8"/>
<text text-anchor="middle" x="646.94" y="-57.8" font-family="Times,serif" font-size="14.00">id</text>
</g>
<!-- iri -->
<g id="node5" class="node">
<title>iri</title>
<ellipse fill="none" stroke="blue" cx="537.94" cy="-18" rx="44.39" ry="18"/>
<text text-anchor="middle" x="537.94" y="-14.3" font-family="Times,serif" font-size="14.00">iri type</text>
</g>
<!-- anatomical entity&#45;&gt;iri -->
<g id="edge4" class="edge">
<title>anatomical entity&#45;&gt;iri</title>
<path fill="none" stroke="blue" d="M1005.84,-99.37C930.97,-94.52 820.31,-85.27 724.94,-69 674.77,-60.44 618.5,-44.5 580.92,-32.92"/>
<polygon fill="blue" stroke="blue" points="581.9,-29.56 571.31,-29.93 579.82,-36.24 581.9,-29.56"/>
<text text-anchor="middle" x="732.94" y="-57.8" font-family="Times,serif" font-size="14.00">iri</text>
</g>
<!-- type -->
<g id="node6" class="node">
<title>type</title>
<ellipse fill="none" stroke="blue" cx="638.94" cy="-18" rx="38.19" ry="18"/>
<text text-anchor="middle" x="638.94" y="-14.3" font-family="Times,serif" font-size="14.00">string</text>
</g>
<!-- anatomical entity&#45;&gt;type -->
<g id="edge5" class="edge">
<title>anatomical entity&#45;&gt;type</title>
<path fill="none" stroke="blue" d="M1010.75,-96.93C953.78,-91.29 876.36,-82.13 808.94,-69 753.39,-58.18 739.94,-52.97 685.94,-36 683.19,-35.13 680.35,-34.21 677.51,-33.25"/>
<polygon fill="blue" stroke="blue" points="678.49,-29.88 667.89,-29.91 676.19,-36.49 678.49,-29.88"/>
<text text-anchor="middle" x="824.94" y="-57.8" font-family="Times,serif" font-size="14.00">type</text>
</g>
<!-- name -->
<g id="node7" class="node">
<title>name</title>
<ellipse fill="none" stroke="blue" cx="751.94" cy="-18" rx="56.59" ry="18"/>
<text text-anchor="middle" x="751.94" y="-14.3" font-family="Times,serif" font-size="14.00">label type</text>
</g>
<!-- anatomical entity&#45;&gt;name -->
<g id="edge6" class="edge">
<title>anatomical entity&#45;&gt;name</title>
<path fill="none" stroke="blue" d="M1018.88,-94.32C980.37,-88.5 932.75,-80.05 890.94,-69 857.93,-60.27 821.66,-47.1 794.44,-36.46"/>
<polygon fill="blue" stroke="blue" points="795.44,-33.09 784.85,-32.67 792.86,-39.6 795.44,-33.09"/>
<text text-anchor="middle" x="910.94" y="-57.8" font-family="Times,serif" font-size="14.00">name</text>
</g>
<!-- description -->
<g id="node8" class="node">
<title>description</title>
<ellipse fill="none" stroke="blue" cx="901.94" cy="-18" rx="75.29" ry="18"/>
<text text-anchor="middle" x="901.94" y="-14.3" font-family="Times,serif" font-size="14.00">narrative text</text>
</g>
<!-- anatomical entity&#45;&gt;description -->
<g id="edge7" class="edge">
<title>anatomical entity&#45;&gt;description</title>
<path fill="none" stroke="blue" d="M1021.12,-93.68C998.35,-88.44 973.71,-80.62 952.94,-69 941.28,-62.47 930.39,-52.57 921.7,-43.3"/>
<polygon fill="blue" stroke="blue" points="924.22,-40.87 914.94,-35.75 919,-45.54 924.22,-40.87"/>
<text text-anchor="middle" x="993.44" y="-57.8" font-family="Times,serif" font-size="14.00">description</text>
</g>
<!-- deprecated -->
<g id="node9" class="node">
<title>deprecated</title>
<ellipse fill="none" stroke="blue" cx="1041.94" cy="-18" rx="46.59" ry="18"/>
<text text-anchor="middle" x="1041.94" y="-14.3" font-family="Times,serif" font-size="14.00">boolean</text>
</g>
<!-- anatomical entity&#45;&gt;deprecated -->
<g id="edge8" class="edge">
<title>anatomical entity&#45;&gt;deprecated</title>
<path fill="none" stroke="blue" d="M1059.71,-88.08C1052.59,-83.03 1045.99,-76.7 1041.94,-69 1038.33,-62.14 1037.24,-53.97 1037.35,-46.25"/>
<polygon fill="blue" stroke="blue" points="1040.85,-46.4 1038.12,-36.16 1033.87,-45.86 1040.85,-46.4"/>
<text text-anchor="middle" x="1082.44" y="-57.8" font-family="Times,serif" font-size="14.00">deprecated</text>
</g>
<!-- provided by -->
<g id="node10" class="node">
<title>provided by</title>
<ellipse fill="none" stroke="blue" cx="1144.94" cy="-18" rx="38.19" ry="18"/>
<text text-anchor="middle" x="1144.94" y="-14.3" font-family="Times,serif" font-size="14.00">string</text>
</g>
<!-- anatomical entity&#45;&gt;provided by -->
<g id="edge9" class="edge">
<title>anatomical entity&#45;&gt;provided by</title>
<path fill="none" stroke="blue" d="M1109.28,-86.98C1114.04,-81.51 1119.02,-75.23 1122.94,-69 1127.56,-61.66 1131.68,-53.19 1135.08,-45.33"/>
<polygon fill="blue" stroke="blue" points="1138.42,-46.41 1138.97,-35.83 1131.94,-43.76 1138.42,-46.41"/>
<text text-anchor="middle" x="1173.44" y="-57.8" font-family="Times,serif" font-size="14.00">provided by</text>
</g>
<!-- xref -->
<g id="node11" class="node">
<title>xref</title>
<ellipse fill="none" stroke="blue" cx="1258.94" cy="-18" rx="57.39" ry="18"/>
<text text-anchor="middle" x="1258.94" y="-14.3" font-family="Times,serif" font-size="14.00">uriorcurie</text>
</g>
<!-- anatomical entity&#45;&gt;xref -->
<g id="edge10" class="edge">
<title>anatomical entity&#45;&gt;xref</title>
<path fill="none" stroke="blue" d="M1162.62,-93.27C1182.27,-88.06 1202.92,-80.37 1219.94,-69 1229.28,-62.77 1237.37,-53.56 1243.72,-44.74"/>
<polygon fill="blue" stroke="blue" points="1246.8,-46.43 1249.48,-36.18 1240.99,-42.53 1246.8,-46.43"/>
<text text-anchor="middle" x="1250.44" y="-57.8" font-family="Times,serif" font-size="14.00">xref</text>
</g>
<!-- full name -->
<g id="node12" class="node">
<title>full name</title>
<ellipse fill="none" stroke="blue" cx="1390.94" cy="-18" rx="56.59" ry="18"/>
<text text-anchor="middle" x="1390.94" y="-14.3" font-family="Times,serif" font-size="14.00">label type</text>
</g>
<!-- anatomical entity&#45;&gt;full name -->
<g id="edge11" class="edge">
<title>anatomical entity&#45;&gt;full name</title>
<path fill="none" stroke="blue" d="M1158.43,-92.33C1199.54,-84.75 1248.51,-75.16 1268.94,-69 1297.07,-60.53 1327.65,-47.99 1351.16,-37.58"/>
<polygon fill="blue" stroke="blue" points="1352.75,-40.7 1360.45,-33.42 1349.89,-34.32 1352.75,-40.7"/>
<text text-anchor="middle" x="1344.44" y="-57.8" font-family="Times,serif" font-size="14.00">full name</text>
</g>
<!-- synonym -->
<g id="node13" class="node">
<title>synonym</title>
<ellipse fill="none" stroke="blue" cx="1521.94" cy="-18" rx="56.59" ry="18"/>
<text text-anchor="middle" x="1521.94" y="-14.3" font-family="Times,serif" font-size="14.00">label type</text>
</g>
<!-- anatomical entity&#45;&gt;synonym -->
<g id="edge12" class="edge">
<title>anatomical entity&#45;&gt;synonym</title>
<path fill="none" stroke="blue" d="M1157.92,-92.24C1169.56,-90.34 1181.59,-88.5 1192.94,-87 1276.59,-75.92 1299.58,-87.33 1381.94,-69 1416.08,-61.4 1453.31,-47.84 1480.79,-36.75"/>
<polygon fill="blue" stroke="blue" points="1482.15,-39.97 1490.08,-32.95 1479.5,-33.5 1482.15,-39.97"/>
<text text-anchor="middle" x="1465.94" y="-57.8" font-family="Times,serif" font-size="14.00">synonym</text>
</g>
<!-- category -->
<g id="node14" class="node">
<title>category</title>
<ellipse fill="none" stroke="black" cx="1647.94" cy="-18" rx="51.19" ry="18"/>
<text text-anchor="middle" x="1647.94" y="-14.3" font-family="Times,serif" font-size="14.00">category</text>
</g>
<!-- anatomical entity&#45;&gt;category -->
<g id="edge13" class="edge">
<title>anatomical entity&#45;&gt;category</title>
<path fill="none" stroke="blue" d="M1156.81,-92.06C1168.78,-90.13 1181.22,-88.33 1192.94,-87 1329.63,-71.45 1366.96,-95.53 1501.94,-69 1538.55,-61.8 1578.53,-47.64 1607.39,-36.22"/>
<polygon fill="blue" stroke="blue" points="1608.75,-39.45 1616.73,-32.47 1606.14,-32.95 1608.75,-39.45"/>
<text text-anchor="middle" x="1587.44" y="-57.8" font-family="Times,serif" font-size="14.00">category</text>
</g>
<!-- in taxon -->
<g id="node16" class="node">
<title>in taxon</title>
<ellipse fill="none" stroke="blue" cx="1800.94" cy="-18" rx="83.39" ry="18"/>
<text text-anchor="middle" x="1800.94" y="-14.3" font-family="Times,serif" font-size="14.00">organism taxon</text>
</g>
<!-- anatomical entity&#45;&gt;in taxon -->
<g id="edge14" class="edge">
<title>anatomical entity&#45;&gt;in taxon</title>
<path fill="none" stroke="blue" d="M1156.52,-91.95C1168.58,-90.02 1181.12,-88.25 1192.94,-87 1383.16,-66.93 1434.04,-99.07 1622.94,-69 1666.55,-62.06 1714.69,-48.14 1749.9,-36.75"/>
<polygon fill="blue" stroke="blue" points="1751.06,-40.05 1759.47,-33.61 1748.88,-33.4 1751.06,-40.05"/>
<text text-anchor="middle" x="1716.94" y="-57.8" font-family="Times,serif" font-size="14.00">in taxon</text>
</g>
<!-- in taxon label -->
<g id="node17" class="node">
<title>in taxon label</title>
<ellipse fill="none" stroke="blue" cx="1958.94" cy="-18" rx="56.59" ry="18"/>
<text text-anchor="middle" x="1958.94" y="-14.3" font-family="Times,serif" font-size="14.00">label type</text>
</g>
<!-- anatomical entity&#45;&gt;in taxon label -->
<g id="edge15" class="edge">
<title>anatomical entity&#45;&gt;in taxon label</title>
<path fill="none" stroke="blue" d="M1156.25,-91.9C1168.39,-89.96 1181.03,-88.2 1192.94,-87 1439.38,-62.19 1504.33,-101 1749.94,-69 1805.6,-61.75 1868.02,-45.75 1910.03,-33.79"/>
<polygon fill="blue" stroke="blue" points="1911.09,-37.13 1919.73,-31 1909.15,-30.41 1911.09,-37.13"/>
<text text-anchor="middle" x="1880.44" y="-57.8" font-family="Times,serif" font-size="14.00">in taxon label</text>
</g>
<!-- has attribute -->
<g id="node18" class="node">
<title>has attribute</title>
<ellipse fill="none" stroke="black" cx="2104.94" cy="-18" rx="71.49" ry="18"/>
<text text-anchor="middle" x="2104.94" y="-14.3" font-family="Times,serif" font-size="14.00">has attribute</text>
</g>
<!-- anatomical entity&#45;&gt;has attribute -->
<g id="edge16" class="edge">
<title>anatomical entity&#45;&gt;has attribute</title>
<path fill="none" stroke="blue" d="M1155.97,-91.87C1168.19,-89.92 1180.93,-88.16 1192.94,-87 1356.67,-71.17 1770.39,-94.17 1932.94,-69 1975.74,-62.37 2022.87,-48.16 2056.95,-36.58"/>
<polygon fill="blue" stroke="blue" points="2058.34,-39.8 2066.65,-33.23 2056.06,-33.19 2058.34,-39.8"/>
<text text-anchor="middle" x="2046.94" y="-57.8" font-family="Times,serif" font-size="14.00">has attribute</text>
</g>
<!-- named thing_category -->
<g id="node15" class="node">
<title>named thing_category</title>
<ellipse fill="none" stroke="blue" cx="1276.94" cy="-105" rx="74.99" ry="18"/>
<text text-anchor="middle" x="1276.94" y="-101.3" font-family="Times,serif" font-size="14.00">category type</text>
</g>
<!-- organismal entity_has attribute -->
<g id="node19" class="node">
<title>organismal entity_has attribute</title>
<ellipse fill="none" stroke="blue" cx="1421.94" cy="-105" rx="51.99" ry="18"/>
<text text-anchor="middle" x="1421.94" y="-101.3" font-family="Times,serif" font-size="14.00">attribute</text>
</g>
</g>
</svg>
