<?xml version="1.0" encoding="UTF-8" standalone="no"?>
<!DOCTYPE svg PUBLIC "-//W3C//DTD SVG 1.1//EN"
 "http://www.w3.org/Graphics/SVG/1.1/DTD/svg11.dtd">
<!-- Generated by graphviz version 2.43.0 (0)
 -->
<!-- Title: %3 Pages: 1 -->
<svg width="3067pt" height="291pt"
 viewBox="0.00 0.00 3067.39 291.00" xmlns="http://www.w3.org/2000/svg" xmlns:xlink="http://www.w3.org/1999/xlink">
<g id="graph0" class="graph" transform="scale(1 1) rotate(0) translate(4 287)">
<title>%3</title>
<polygon fill="white" stroke="transparent" points="-4,4 -4,-287 3063.39,-287 3063.39,4 -4,4"/>
<!-- anatomical entity to anatomical entity association -->
<g id="node1" class="node">
<title>anatomical entity to anatomical entity association</title>
<ellipse fill="none" stroke="black" cx="1380.39" cy="-265" rx="242.36" ry="18"/>
<text text-anchor="middle" x="1380.39" y="-261.3" font-family="Times,serif" font-size="14.00">anatomical entity to anatomical entity association</text>
</g>
<!-- association -->
<g id="node2" class="node">
<title>association</title>
<ellipse fill="none" stroke="black" cx="62.39" cy="-178" rx="62.29" ry="18"/>
<text text-anchor="middle" x="62.39" y="-174.3" font-family="Times,serif" font-size="14.00">association</text>
</g>
<!-- anatomical entity to anatomical entity association&#45;&gt;association -->
<g id="edge1" class="edge">
<title>anatomical entity to anatomical entity association&#45;&gt;association</title>
<path fill="none" stroke="black" d="M1140.57,-262.24C865.18,-259.2 430.55,-250.99 268.39,-229 214.66,-221.71 154.53,-206.25 113.18,-194.44"/>
<polygon fill="black" stroke="black" points="113.92,-191.01 103.34,-191.6 111.98,-197.73 113.92,-191.01"/>
<text text-anchor="middle" x="282.39" y="-217.8" font-family="Times,serif" font-size="14.00">is_a</text>
</g>
<!-- id -->
<g id="node3" class="node">
<title>id</title>
<ellipse fill="none" stroke="blue" cx="181.39" cy="-178" rx="38.19" ry="18"/>
<text text-anchor="middle" x="181.39" y="-174.3" font-family="Times,serif" font-size="14.00">string</text>
</g>
<!-- anatomical entity to anatomical entity association&#45;&gt;id -->
<g id="edge2" class="edge">
<title>anatomical entity to anatomical entity association&#45;&gt;id</title>
<path fill="none" stroke="blue" d="M1147.05,-260.11C902.17,-255.25 533.67,-245.49 393.39,-229 319.55,-220.32 301.06,-215.79 229.39,-196 226.28,-195.14 223.08,-194.18 219.89,-193.17"/>
<polygon fill="blue" stroke="blue" points="220.97,-189.84 210.37,-190.01 218.76,-196.48 220.97,-189.84"/>
<text text-anchor="middle" x="400.39" y="-217.8" font-family="Times,serif" font-size="14.00">id</text>
</g>
<!-- iri -->
<g id="node4" class="node">
<title>iri</title>
<ellipse fill="none" stroke="blue" cx="282.39" cy="-178" rx="44.39" ry="18"/>
<text text-anchor="middle" x="282.39" y="-174.3" font-family="Times,serif" font-size="14.00">iri type</text>
</g>
<!-- anatomical entity to anatomical entity association&#45;&gt;iri -->
<g id="edge3" class="edge">
<title>anatomical entity to anatomical entity association&#45;&gt;iri</title>
<path fill="none" stroke="blue" d="M1138.24,-263.72C963.29,-261.22 721.61,-253.03 510.39,-229 431.75,-220.05 412.11,-215.46 335.39,-196 331.97,-195.13 328.43,-194.16 324.9,-193.14"/>
<polygon fill="blue" stroke="blue" points="325.59,-189.69 315.01,-190.16 323.57,-196.4 325.59,-189.69"/>
<text text-anchor="middle" x="518.39" y="-217.8" font-family="Times,serif" font-size="14.00">iri</text>
</g>
<!-- name -->
<g id="node5" class="node">
<title>name</title>
<ellipse fill="none" stroke="blue" cx="401.39" cy="-178" rx="56.59" ry="18"/>
<text text-anchor="middle" x="401.39" y="-174.3" font-family="Times,serif" font-size="14.00">label type</text>
</g>
<!-- anatomical entity to anatomical entity association&#45;&gt;name -->
<g id="edge4" class="edge">
<title>anatomical entity to anatomical entity association&#45;&gt;name</title>
<path fill="none" stroke="blue" d="M1153.17,-258.67C962.26,-253.29 704.7,-243.66 602.39,-229 549.56,-221.43 490.43,-205.83 450.06,-194.06"/>
<polygon fill="blue" stroke="blue" points="450.8,-190.63 440.21,-191.15 448.82,-197.34 450.8,-190.63"/>
<text text-anchor="middle" x="622.39" y="-217.8" font-family="Times,serif" font-size="14.00">name</text>
</g>
<!-- description -->
<g id="node6" class="node">
<title>description</title>
<ellipse fill="none" stroke="blue" cx="551.39" cy="-178" rx="75.29" ry="18"/>
<text text-anchor="middle" x="551.39" y="-174.3" font-family="Times,serif" font-size="14.00">narrative text</text>
</g>
<!-- anatomical entity to anatomical entity association&#45;&gt;description -->
<g id="edge5" class="edge">
<title>anatomical entity to anatomical entity association&#45;&gt;description</title>
<path fill="none" stroke="blue" d="M1151.91,-258.95C988.48,-254.07 783.19,-244.99 699.39,-229 663.73,-222.19 624.9,-208.83 595.96,-197.64"/>
<polygon fill="blue" stroke="blue" points="597.13,-194.34 586.54,-193.93 594.57,-200.85 597.13,-194.34"/>
<text text-anchor="middle" x="739.89" y="-217.8" font-family="Times,serif" font-size="14.00">description</text>
</g>
<!-- source -->
<g id="node7" class="node">
<title>source</title>
<ellipse fill="none" stroke="blue" cx="683.39" cy="-178" rx="38.19" ry="18"/>
<text text-anchor="middle" x="683.39" y="-174.3" font-family="Times,serif" font-size="14.00">string</text>
</g>
<!-- anatomical entity to anatomical entity association&#45;&gt;source -->
<g id="edge6" class="edge">
<title>anatomical entity to anatomical entity association&#45;&gt;source</title>
<path fill="none" stroke="blue" d="M1146.55,-260.22C1051.31,-255.73 940.51,-246.72 841.39,-229 799.35,-221.48 752.95,-205.87 721.37,-194.08"/>
<polygon fill="blue" stroke="blue" points="722.26,-190.68 711.66,-190.4 719.77,-197.22 722.26,-190.68"/>
<text text-anchor="middle" x="865.39" y="-217.8" font-family="Times,serif" font-size="14.00">source</text>
</g>
<!-- has attribute -->
<g id="node8" class="node">
<title>has attribute</title>
<ellipse fill="none" stroke="blue" cx="791.39" cy="-178" rx="51.99" ry="18"/>
<text text-anchor="middle" x="791.39" y="-174.3" font-family="Times,serif" font-size="14.00">attribute</text>
</g>
<!-- anatomical entity to anatomical entity association&#45;&gt;has attribute -->
<g id="edge7" class="edge">
<title>anatomical entity to anatomical entity association&#45;&gt;has attribute</title>
<path fill="none" stroke="blue" d="M1169.38,-256.11C1099.54,-251.02 1021.72,-242.68 951.39,-229 910.88,-221.12 866.15,-206.62 834.3,-195.26"/>
<polygon fill="blue" stroke="blue" points="835.45,-191.95 824.86,-191.85 833.07,-198.54 835.45,-191.95"/>
<text text-anchor="middle" x="998.39" y="-217.8" font-family="Times,serif" font-size="14.00">has attribute</text>
</g>
<!-- predicate -->
<g id="node9" class="node">
<title>predicate</title>
<ellipse fill="none" stroke="blue" cx="939.39" cy="-178" rx="77.99" ry="18"/>
<text text-anchor="middle" x="939.39" y="-174.3" font-family="Times,serif" font-size="14.00">predicate type</text>
</g>
<!-- anatomical entity to anatomical entity association&#45;&gt;predicate -->
<g id="edge8" class="edge">
<title>anatomical entity to anatomical entity association&#45;&gt;predicate</title>
<path fill="none" stroke="blue" d="M1236.2,-250.49C1193.22,-245.2 1146.17,-238.15 1103.39,-229 1064.62,-220.7 1021.79,-207.5 989.62,-196.75"/>
<polygon fill="blue" stroke="blue" points="990.59,-193.38 980,-193.49 988.35,-200.01 990.59,-193.38"/>
<text text-anchor="middle" x="1137.39" y="-217.8" font-family="Times,serif" font-size="14.00">predicate</text>
</g>
<!-- negated -->
<g id="node10" class="node">
<title>negated</title>
<ellipse fill="none" stroke="blue" cx="1082.39" cy="-178" rx="46.59" ry="18"/>
<text text-anchor="middle" x="1082.39" y="-174.3" font-family="Times,serif" font-size="14.00">boolean</text>
</g>
<!-- anatomical entity to anatomical entity association&#45;&gt;negated -->
<g id="edge9" class="edge">
<title>anatomical entity to anatomical entity association&#45;&gt;negated</title>
<path fill="none" stroke="blue" d="M1298.18,-248.01C1273.34,-242.62 1246.11,-236.13 1221.39,-229 1187.82,-219.31 1150.6,-205.77 1123.14,-195.22"/>
<polygon fill="blue" stroke="blue" points="1124.07,-191.83 1113.48,-191.48 1121.55,-198.36 1124.07,-191.83"/>
<text text-anchor="middle" x="1250.39" y="-217.8" font-family="Times,serif" font-size="14.00">negated</text>
</g>
<!-- qualifiers -->
<g id="node11" class="node">
<title>qualifiers</title>
<ellipse fill="none" stroke="blue" cx="1223.39" cy="-178" rx="76.89" ry="18"/>
<text text-anchor="middle" x="1223.39" y="-174.3" font-family="Times,serif" font-size="14.00">ontology class</text>
</g>
<!-- anatomical entity to anatomical entity association&#45;&gt;qualifiers -->
<g id="edge10" class="edge">
<title>anatomical entity to anatomical entity association&#45;&gt;qualifiers</title>
<path fill="none" stroke="blue" d="M1344.76,-247.03C1333.38,-241.45 1320.78,-235.11 1309.39,-229 1292.47,-219.92 1274.03,-209.3 1258.58,-200.19"/>
<polygon fill="blue" stroke="blue" points="1260.24,-197.11 1249.86,-195.02 1256.67,-203.13 1260.24,-197.11"/>
<text text-anchor="middle" x="1342.89" y="-217.8" font-family="Times,serif" font-size="14.00">qualifiers</text>
</g>
<!-- publications -->
<g id="node12" class="node">
<title>publications</title>
<ellipse fill="none" stroke="blue" cx="1380.39" cy="-178" rx="62.29" ry="18"/>
<text text-anchor="middle" x="1380.39" y="-174.3" font-family="Times,serif" font-size="14.00">publication</text>
</g>
<!-- anatomical entity to anatomical entity association&#45;&gt;publications -->
<g id="edge11" class="edge">
<title>anatomical entity to anatomical entity association&#45;&gt;publications</title>
<path fill="none" stroke="blue" d="M1380.39,-246.8C1380.39,-235.16 1380.39,-219.55 1380.39,-206.24"/>
<polygon fill="blue" stroke="blue" points="1383.89,-206.18 1380.39,-196.18 1376.89,-206.18 1383.89,-206.18"/>
<text text-anchor="middle" x="1424.39" y="-217.8" font-family="Times,serif" font-size="14.00">publications</text>
</g>
<!-- has evidence -->
<g id="node13" class="node">
<title>has evidence</title>
<ellipse fill="none" stroke="blue" cx="1536.39" cy="-178" rx="75.29" ry="18"/>
<text text-anchor="middle" x="1536.39" y="-174.3" font-family="Times,serif" font-size="14.00">evidence type</text>
</g>
<!-- anatomical entity to anatomical entity association&#45;&gt;has evidence -->
<g id="edge12" class="edge">
<title>anatomical entity to anatomical entity association&#45;&gt;has evidence</title>
<path fill="none" stroke="blue" d="M1432.24,-247.38C1445.69,-242.24 1459.89,-236.05 1472.39,-229 1485.74,-221.48 1499.28,-211.34 1510.45,-202.15"/>
<polygon fill="blue" stroke="blue" points="1512.74,-204.8 1518.13,-195.69 1508.23,-199.45 1512.74,-204.8"/>
<text text-anchor="middle" x="1541.89" y="-217.8" font-family="Times,serif" font-size="14.00">has evidence</text>
</g>
<!-- knowledge source -->
<g id="node14" class="node">
<title>knowledge source</title>
<ellipse fill="none" stroke="blue" cx="1738.39" cy="-178" rx="108.58" ry="18"/>
<text text-anchor="middle" x="1738.39" y="-174.3" font-family="Times,serif" font-size="14.00">information resource</text>
</g>
<!-- anatomical entity to anatomical entity association&#45;&gt;knowledge source -->
<g id="edge13" class="edge">
<title>anatomical entity to anatomical entity association&#45;&gt;knowledge source</title>
<path fill="none" stroke="blue" d="M1492.79,-249.01C1525.17,-243.74 1560.38,-237.06 1592.39,-229 1625.05,-220.77 1660.83,-208.57 1688.8,-198.28"/>
<polygon fill="blue" stroke="blue" points="1690.19,-201.5 1698.34,-194.73 1687.75,-194.94 1690.19,-201.5"/>
<text text-anchor="middle" x="1705.89" y="-217.8" font-family="Times,serif" font-size="14.00">knowledge source</text>
</g>
<!-- original knowledge source -->
<g id="node15" class="node">
<title>original knowledge source</title>
<ellipse fill="none" stroke="blue" cx="1973.39" cy="-178" rx="108.58" ry="18"/>
<text text-anchor="middle" x="1973.39" y="-174.3" font-family="Times,serif" font-size="14.00">information resource</text>
</g>
<!-- anatomical entity to anatomical entity association&#45;&gt;original knowledge source -->
<g id="edge14" class="edge">
<title>anatomical entity to anatomical entity association&#45;&gt;original knowledge source</title>
<path fill="none" stroke="blue" d="M1546.43,-251.87C1633.71,-244.97 1731.31,-236.28 1774.39,-229 1821.67,-221.01 1874.24,-207.6 1913.47,-196.68"/>
<polygon fill="blue" stroke="blue" points="1914.47,-200.04 1923.15,-193.96 1912.58,-193.3 1914.47,-200.04"/>
<text text-anchor="middle" x="1940.39" y="-217.8" font-family="Times,serif" font-size="14.00">original knowledge source</text>
</g>
<!-- primary knowledge source -->
<g id="node16" class="node">
<title>primary knowledge source</title>
<ellipse fill="none" stroke="blue" cx="2208.39" cy="-178" rx="108.58" ry="18"/>
<text text-anchor="middle" x="2208.39" y="-174.3" font-family="Times,serif" font-size="14.00">information resource</text>
</g>
<!-- anatomical entity to anatomical entity association&#45;&gt;primary knowledge source -->
<g id="edge15" class="edge">
<title>anatomical entity to anatomical entity association&#45;&gt;primary knowledge source</title>
<path fill="none" stroke="blue" d="M1549.46,-252.06C1577.17,-250.25 1605.58,-248.5 1632.39,-247 1812.73,-236.92 1860.23,-258.7 2038.39,-229 2078.72,-222.28 2122.98,-209.06 2156.24,-197.91"/>
<polygon fill="blue" stroke="blue" points="2157.41,-201.2 2165.75,-194.67 2155.15,-194.58 2157.41,-201.2"/>
<text text-anchor="middle" x="2195.39" y="-217.8" font-family="Times,serif" font-size="14.00">primary knowledge source</text>
</g>
<!-- aggregator knowledge source -->
<g id="node17" class="node">
<title>aggregator knowledge source</title>
<ellipse fill="none" stroke="blue" cx="2443.39" cy="-178" rx="108.58" ry="18"/>
<text text-anchor="middle" x="2443.39" y="-174.3" font-family="Times,serif" font-size="14.00">information resource</text>
</g>
<!-- anatomical entity to anatomical entity association&#45;&gt;aggregator knowledge source -->
<g id="edge16" class="edge">
<title>anatomical entity to anatomical entity association&#45;&gt;aggregator knowledge source</title>
<path fill="none" stroke="blue" d="M1546.39,-251.85C1575.06,-250.02 1604.58,-248.32 1632.39,-247 1779.4,-240.05 2149.49,-254.69 2294.39,-229 2329.52,-222.77 2367.62,-209.87 2396.5,-198.73"/>
<polygon fill="blue" stroke="blue" points="2397.9,-201.94 2405.93,-195.03 2395.34,-195.43 2397.9,-201.94"/>
<text text-anchor="middle" x="2459.89" y="-217.8" font-family="Times,serif" font-size="14.00">aggregator knowledge source</text>
</g>
<!-- timepoint -->
<g id="node18" class="node">
<title>timepoint</title>
<ellipse fill="none" stroke="blue" cx="2625.39" cy="-178" rx="55.49" ry="18"/>
<text text-anchor="middle" x="2625.39" y="-174.3" font-family="Times,serif" font-size="14.00">time type</text>
</g>
<!-- anatomical entity to anatomical entity association&#45;&gt;timepoint -->
<g id="edge17" class="edge">
<title>anatomical entity to anatomical entity association&#45;&gt;timepoint</title>
<path fill="none" stroke="blue" d="M1545.03,-251.75C1574.12,-249.91 1604.14,-248.22 1632.39,-247 1684.47,-244.75 2521.96,-248.26 2570.39,-229 2583.83,-223.66 2596.04,-213.41 2605.53,-203.58"/>
<polygon fill="blue" stroke="blue" points="2608.38,-205.64 2612.52,-195.89 2603.2,-200.93 2608.38,-205.64"/>
<text text-anchor="middle" x="2629.39" y="-217.8" font-family="Times,serif" font-size="14.00">timepoint</text>
</g>
<!-- type -->
<g id="node19" class="node">
<title>type</title>
<ellipse fill="none" stroke="black" cx="2729.39" cy="-178" rx="31.4" ry="18"/>
<text text-anchor="middle" x="2729.39" y="-174.3" font-family="Times,serif" font-size="14.00">type</text>
</g>
<!-- anatomical entity to anatomical entity association&#45;&gt;type -->
<g id="edge18" class="edge">
<title>anatomical entity to anatomical entity association&#45;&gt;type</title>
<path fill="none" stroke="blue" d="M1544.69,-251.73C1573.89,-249.88 1604.03,-248.2 1632.39,-247 1689.91,-244.56 2614.36,-248.85 2668.39,-229 2683.7,-223.38 2697.97,-212.17 2708.85,-201.78"/>
<polygon fill="blue" stroke="blue" points="2711.57,-204.01 2716.14,-194.46 2706.61,-199.07 2711.57,-204.01"/>
<text text-anchor="middle" x="2710.39" y="-217.8" font-family="Times,serif" font-size="14.00">type</text>
</g>
<!-- category -->
<g id="node21" class="node">
<title>category</title>
<ellipse fill="none" stroke="black" cx="2830.39" cy="-178" rx="51.19" ry="18"/>
<text text-anchor="middle" x="2830.39" y="-174.3" font-family="Times,serif" font-size="14.00">category</text>
</g>
<!-- anatomical entity to anatomical entity association&#45;&gt;category -->
<g id="edge19" class="edge">
<title>anatomical entity to anatomical entity association&#45;&gt;category</title>
<path fill="none" stroke="blue" d="M1544.35,-251.72C1573.66,-249.88 1603.92,-248.19 1632.39,-247 1754.3,-241.89 2611.88,-258.01 2730.39,-229 2754.54,-223.09 2779.55,-210.58 2798.52,-199.56"/>
<polygon fill="blue" stroke="blue" points="2800.52,-202.43 2807.31,-194.3 2796.93,-196.43 2800.52,-202.43"/>
<text text-anchor="middle" x="2802.89" y="-217.8" font-family="Times,serif" font-size="14.00">category</text>
</g>
<!-- subject -->
<g id="node23" class="node">
<title>subject</title>
<ellipse fill="none" stroke="black" cx="2944.39" cy="-178" rx="44.39" ry="18"/>
<text text-anchor="middle" x="2944.39" y="-174.3" font-family="Times,serif" font-size="14.00">subject</text>
</g>
<!-- anatomical entity to anatomical entity association&#45;&gt;subject -->
<g id="edge20" class="edge">
<title>anatomical entity to anatomical entity association&#45;&gt;subject</title>
<path fill="none" stroke="blue" d="M1544.01,-251.71C1573.42,-249.86 1603.81,-248.18 1632.39,-247 1699.35,-244.24 2773.12,-244.14 2838.39,-229 2864.52,-222.94 2891.85,-209.87 2912.21,-198.61"/>
<polygon fill="blue" stroke="blue" points="2914.07,-201.57 2921.04,-193.59 2910.62,-195.48 2914.07,-201.57"/>
<text text-anchor="middle" x="2907.39" y="-217.8" font-family="Times,serif" font-size="14.00">subject</text>
</g>
<!-- object -->
<g id="node25" class="node">
<title>object</title>
<ellipse fill="none" stroke="black" cx="2987.39" cy="-91" rx="38.99" ry="18"/>
<text text-anchor="middle" x="2987.39" y="-87.3" font-family="Times,serif" font-size="14.00">object</text>
</g>
<!-- anatomical entity to anatomical entity association&#45;&gt;object -->
<g id="edge21" class="edge">
<title>anatomical entity to anatomical entity association&#45;&gt;object</title>
<path fill="none" stroke="blue" d="M1544.01,-251.68C1573.42,-249.83 1603.81,-248.16 1632.39,-247 1704.84,-244.06 2867.29,-247.52 2937.39,-229 2966.82,-221.23 2978.93,-220.19 2997.39,-196 3016.33,-171.2 3019.34,-156.9 3010.39,-127 3009.36,-123.55 3007.87,-120.13 3006.13,-116.85"/>
<polygon fill="blue" stroke="blue" points="3008.98,-114.79 3000.77,-108.09 3003.01,-118.45 3008.98,-114.79"/>
<text text-anchor="middle" x="3037.39" y="-174.3" font-family="Times,serif" font-size="14.00">object</text>
</g>
<!-- association_type -->
<g id="node20" class="node">
<title>association_type</title>
<ellipse fill="none" stroke="blue" cx="1679.39" cy="-265" rx="38.19" ry="18"/>
<text text-anchor="middle" x="1679.39" y="-261.3" font-family="Times,serif" font-size="14.00">string</text>
</g>
<!-- association_category -->
<g id="node22" class="node">
<title>association_category</title>
<ellipse fill="none" stroke="blue" cx="1810.39" cy="-265" rx="74.99" ry="18"/>
<text text-anchor="middle" x="1810.39" y="-261.3" font-family="Times,serif" font-size="14.00">category type</text>
</g>
<!-- subject&#45;&gt;object -->
<g id="edge22" class="edge">
<title>subject&#45;&gt;object</title>
<path fill="none" stroke="black" d="M2945.5,-159.55C2946.7,-149.57 2949.2,-137.07 2954.39,-127 2956.62,-122.68 2959.55,-118.52 2962.73,-114.66"/>
<polygon fill="black" stroke="black" points="2965.35,-116.98 2969.49,-107.23 2960.17,-112.27 2965.35,-116.98"/>
<text text-anchor="middle" x="2982.39" y="-130.8" font-family="Times,serif" font-size="14.00">relation</text>
</g>
<!-- relation -->
<g id="node27" class="node">
<title>relation</title>
<ellipse fill="none" stroke="black" cx="2932.39" cy="-18" rx="46.59" ry="18"/>
<text text-anchor="middle" x="2932.39" y="-14.3" font-family="Times,serif" font-size="14.00">relation</text>
</g>
<!-- subject&#45;&gt;relation -->
<g id="edge23" class="edge">
<title>subject&#45;&gt;relation</title>
<path fill="none" stroke="black" stroke-dasharray="1,5" d="M2943.09,-159.79C2941.01,-132.48 2936.95,-78.99 2934.47,-46.38"/>
<polygon fill="black" stroke="black" points="2937.95,-45.89 2933.7,-36.19 2930.97,-46.42 2937.95,-45.89"/>
</g>
<!-- anatomical entity to anatomical entity association_subject -->
<g id="node24" class="node">
<title>anatomical entity to anatomical entity association_subject</title>
<ellipse fill="none" stroke="blue" cx="1994.39" cy="-265" rx="91.78" ry="18"/>
<text text-anchor="middle" x="1994.39" y="-261.3" font-family="Times,serif" font-size="14.00">anatomical entity</text>
</g>
<!-- object&#45;&gt;relation -->
<g id="edge24" class="edge">
<title>object&#45;&gt;relation</title>
<path fill="none" stroke="black" stroke-dasharray="1,5" d="M2974.91,-73.89C2967.98,-64.94 2959.21,-53.62 2951.44,-43.58"/>
<polygon fill="black" stroke="black" points="2954.1,-41.3 2945.21,-35.54 2948.56,-45.59 2954.1,-41.3"/>
</g>
<!-- anatomical entity to anatomical entity association_object -->
<g id="node26" class="node">
<title>anatomical entity to anatomical entity association_object</title>
<ellipse fill="none" stroke="blue" cx="2195.39" cy="-265" rx="91.78" ry="18"/>
<text text-anchor="middle" x="2195.39" y="-261.3" font-family="Times,serif" font-size="14.00">anatomical entity</text>
</g>
</g>
</svg>
