<?xml version="1.0" encoding="UTF-8" standalone="no"?>
<!DOCTYPE svg PUBLIC "-//W3C//DTD SVG 1.1//EN"
 "http://www.w3.org/Graphics/SVG/1.1/DTD/svg11.dtd">
<!-- Generated by graphviz version 2.43.0 (0)
 -->
<!-- Title: %3 Pages: 1 -->
<svg width="1562pt" height="289pt"
 viewBox="0.00 0.00 1562.43 289.00" xmlns="http://www.w3.org/2000/svg" xmlns:xlink="http://www.w3.org/1999/xlink">
<g id="graph0" class="graph" transform="scale(1 1) rotate(0) translate(4 285)">
<title>%3</title>
<polygon fill="white" stroke="transparent" points="-4,4 -4,-285 1558.43,-285 1558.43,4 -4,4"/>
<!-- anatomical entity to anatomical entity ontogenic association -->
<g id="node1" class="node">
<title>anatomical entity to anatomical entity ontogenic association</title>
<ellipse fill="none" stroke="black" cx="767.2" cy="-263" rx="222.07" ry="18"/>
<text text-anchor="middle" x="767.2" y="-258.8" font-family="Times,serif" font-size="14.00">anatomical entity to anatomical entity ontogenic association</text>
</g>
<!-- anatomical entity to anatomical entity association -->
<g id="node2" class="node">
<title>anatomical entity to anatomical entity association</title>
<ellipse fill="none" stroke="black" cx="185.2" cy="-177" rx="185.4" ry="18"/>
<text text-anchor="middle" x="185.2" y="-172.8" font-family="Times,serif" font-size="14.00">anatomical entity to anatomical entity association</text>
</g>
<!-- anatomical entity to anatomical entity ontogenic association&#45;&gt;anatomical entity to anatomical entity association -->
<g id="edge1" class="edge">
<title>anatomical entity to anatomical entity ontogenic association&#45;&gt;anatomical entity to anatomical entity association</title>
<path fill="none" stroke="black" d="M580.76,-253.15C511.57,-247.97 432.67,-239.81 361.65,-227 322.07,-219.86 278.51,-207.81 244.58,-197.45"/>
<polygon fill="black" stroke="black" points="245.42,-194.04 234.83,-194.43 243.35,-200.73 245.42,-194.04"/>
<text text-anchor="middle" x="373.48" y="-215.8" font-family="Times,serif" font-size="14.00">is_a</text>
</g>
<!-- subject -->
<g id="node3" class="node">
<title>subject</title>
<ellipse fill="none" stroke="black" cx="476.2" cy="-177" rx="35.31" ry="18"/>
<text text-anchor="middle" x="476.2" y="-172.8" font-family="Times,serif" font-size="14.00">subject</text>
</g>
<!-- anatomical entity to anatomical entity ontogenic association&#45;&gt;subject -->
<g id="edge2" class="edge">
<title>anatomical entity to anatomical entity ontogenic association&#45;&gt;subject</title>
<path fill="none" stroke="blue" d="M583.09,-252.85C543.63,-247.65 509.11,-239.56 493.55,-227 486.76,-221.52 482.62,-213.19 480.1,-204.95"/>
<polygon fill="blue" stroke="blue" points="483.49,-204.04 477.77,-195.13 476.68,-205.66 483.49,-204.04"/>
<text text-anchor="middle" x="514.03" y="-215.8" font-family="Times,serif" font-size="14.00">subject</text>
</g>
<!-- relation -->
<g id="node5" class="node">
<title>relation</title>
<ellipse fill="none" stroke="black" cx="456.2" cy="-18" rx="37.23" ry="18"/>
<text text-anchor="middle" x="456.2" y="-13.8" font-family="Times,serif" font-size="14.00">relation</text>
</g>
<!-- anatomical entity to anatomical entity ontogenic association&#45;&gt;relation -->
<g id="edge3" class="edge">
<title>anatomical entity to anatomical entity ontogenic association&#45;&gt;relation</title>
<path fill="none" stroke="blue" d="M584.64,-252.69C549.28,-247.29 513.03,-239.16 480.2,-227 456.16,-218.1 446.08,-216.56 432.2,-195 402.46,-148.78 425.77,-81.6 442.67,-45.06"/>
<polygon fill="blue" stroke="blue" points="446.04,-46.13 447.22,-35.6 439.73,-43.1 446.04,-46.13"/>
<text text-anchor="middle" x="440.58" y="-129.8" font-family="Times,serif" font-size="14.00">relation</text>
</g>
<!-- object -->
<g id="node7" class="node">
<title>object</title>
<ellipse fill="none" stroke="black" cx="516.2" cy="-91" rx="31.93" ry="18"/>
<text text-anchor="middle" x="516.2" y="-86.8" font-family="Times,serif" font-size="14.00">object</text>
</g>
<!-- anatomical entity to anatomical entity ontogenic association&#45;&gt;object -->
<g id="edge4" class="edge">
<title>anatomical entity to anatomical entity ontogenic association&#45;&gt;object</title>
<path fill="none" stroke="blue" d="M656.68,-247.37C620.69,-237.7 583.07,-221.64 555.99,-195 533.27,-172.64 545.25,-156.51 533.2,-127 531.95,-123.94 530.55,-120.76 529.12,-117.63"/>
<polygon fill="blue" stroke="blue" points="532.24,-116.05 524.77,-108.54 525.92,-119.07 532.24,-116.05"/>
<text text-anchor="middle" x="573.3" y="-172.8" font-family="Times,serif" font-size="14.00">object</text>
</g>
<!-- id -->
<g id="node9" class="node">
<title>id</title>
<ellipse fill="none" stroke="black" cx="626.2" cy="-177" rx="27" ry="18"/>
<text text-anchor="middle" x="626.2" y="-172.8" font-family="Times,serif" font-size="14.00">id</text>
</g>
<!-- anatomical entity to anatomical entity ontogenic association&#45;&gt;id -->
<g id="edge5" class="edge">
<title>anatomical entity to anatomical entity ontogenic association&#45;&gt;id</title>
<path fill="none" stroke="blue" d="M738.67,-245C714.12,-230.38 678.91,-209.4 654.44,-194.83"/>
<polygon fill="blue" stroke="blue" points="656.02,-191.69 645.64,-189.58 652.44,-197.71 656.02,-191.69"/>
<text text-anchor="middle" x="710.65" y="-215.8" font-family="Times,serif" font-size="14.00">id</text>
</g>
<!-- negated -->
<g id="node11" class="node">
<title>negated</title>
<ellipse fill="none" stroke="blue" cx="709.2" cy="-177" rx="38.2" ry="18"/>
<text text-anchor="middle" x="709.2" y="-172.8" font-family="Times,serif" font-size="14.00">boolean</text>
</g>
<!-- anatomical entity to anatomical entity ontogenic association&#45;&gt;negated -->
<g id="edge6" class="edge">
<title>anatomical entity to anatomical entity ontogenic association&#45;&gt;negated</title>
<path fill="none" stroke="blue" d="M755.46,-245C747.1,-232.89 735.73,-216.42 726.35,-202.83"/>
<polygon fill="blue" stroke="blue" points="729.09,-200.64 720.53,-194.4 723.33,-204.62 729.09,-200.64"/>
<text text-anchor="middle" x="763.97" y="-215.8" font-family="Times,serif" font-size="14.00">negated</text>
</g>
<!-- association type -->
<g id="node12" class="node">
<title>association type</title>
<ellipse fill="none" stroke="blue" cx="826.2" cy="-177" rx="60.9" ry="18"/>
<text text-anchor="middle" x="826.2" y="-172.8" font-family="Times,serif" font-size="14.00">ontology class</text>
</g>
<!-- anatomical entity to anatomical entity ontogenic association&#45;&gt;association type -->
<g id="edge7" class="edge">
<title>anatomical entity to anatomical entity ontogenic association&#45;&gt;association type</title>
<path fill="none" stroke="blue" d="M779.14,-245C787.59,-232.97 799.07,-216.63 808.57,-203.1"/>
<polygon fill="blue" stroke="blue" points="811.6,-204.88 814.48,-194.69 805.87,-200.86 811.6,-204.88"/>
<text text-anchor="middle" x="846.11" y="-215.8" font-family="Times,serif" font-size="14.00">association type</text>
</g>
<!-- qualifiers -->
<g id="node13" class="node">
<title>qualifiers</title>
<ellipse fill="none" stroke="blue" cx="966.2" cy="-177" rx="60.9" ry="18"/>
<text text-anchor="middle" x="966.2" y="-172.8" font-family="Times,serif" font-size="14.00">ontology class</text>
</g>
<!-- anatomical entity to anatomical entity ontogenic association&#45;&gt;qualifiers -->
<g id="edge8" class="edge">
<title>anatomical entity to anatomical entity ontogenic association&#45;&gt;qualifiers</title>
<path fill="none" stroke="blue" d="M842.16,-246.05C859.96,-241.03 878.6,-234.73 895.2,-227 910.43,-219.92 925.94,-209.64 938.56,-200.32"/>
<polygon fill="blue" stroke="blue" points="940.94,-202.91 946.8,-194.08 936.71,-197.33 940.94,-202.91"/>
<text text-anchor="middle" x="946.25" y="-215.8" font-family="Times,serif" font-size="14.00">qualifiers</text>
</g>
<!-- publications -->
<g id="node14" class="node">
<title>publications</title>
<ellipse fill="none" stroke="blue" cx="1095.2" cy="-177" rx="49.79" ry="18"/>
<text text-anchor="middle" x="1095.2" y="-172.8" font-family="Times,serif" font-size="14.00">publication</text>
</g>
<!-- anatomical entity to anatomical entity ontogenic association&#45;&gt;publications -->
<g id="edge9" class="edge">
<title>anatomical entity to anatomical entity ontogenic association&#45;&gt;publications</title>
<path fill="none" stroke="blue" d="M881.86,-247.56C912.8,-242.37 946.04,-235.62 976.2,-227 1004.02,-219.05 1034.15,-206.61 1057.13,-196.25"/>
<polygon fill="blue" stroke="blue" points="1058.87,-199.3 1066.51,-191.95 1055.96,-192.93 1058.87,-199.3"/>
<text text-anchor="middle" x="1051.42" y="-215.8" font-family="Times,serif" font-size="14.00">publications</text>
</g>
<!-- provided by -->
<g id="node15" class="node">
<title>provided by</title>
<ellipse fill="none" stroke="blue" cx="1203.2" cy="-177" rx="40.13" ry="18"/>
<text text-anchor="middle" x="1203.2" y="-172.8" font-family="Times,serif" font-size="14.00">provider</text>
</g>
<!-- anatomical entity to anatomical entity ontogenic association&#45;&gt;provided by -->
<g id="edge10" class="edge">
<title>anatomical entity to anatomical entity ontogenic association&#45;&gt;provided by</title>
<path fill="none" stroke="blue" d="M919.06,-249.81C986.2,-243.53 1057.12,-235.44 1089.2,-227 1117.09,-219.67 1146.99,-206.6 1169.17,-195.81"/>
<polygon fill="blue" stroke="blue" points="1170.76,-198.92 1178.17,-191.34 1167.65,-192.65 1170.76,-198.92"/>
<text text-anchor="middle" x="1161.83" y="-215.8" font-family="Times,serif" font-size="14.00">provided by</text>
</g>
<!-- association slot -->
<g id="node16" class="node">
<title>association slot</title>
<ellipse fill="none" stroke="blue" cx="1291.2" cy="-177" rx="30" ry="18"/>
<text text-anchor="middle" x="1291.2" y="-172.8" font-family="Times,serif" font-size="14.00">string</text>
</g>
<!-- anatomical entity to anatomical entity ontogenic association&#45;&gt;association slot -->
<g id="edge11" class="edge">
<title>anatomical entity to anatomical entity ontogenic association&#45;&gt;association slot</title>
<path fill="none" stroke="blue" d="M922.77,-250.13C1043.8,-240.78 1192.4,-228.99 1199.2,-227 1222.12,-220.28 1245.87,-207.47 1263.49,-196.62"/>
<polygon fill="blue" stroke="blue" points="1265.52,-199.48 1272.11,-191.18 1261.79,-193.56 1265.52,-199.48"/>
<text text-anchor="middle" x="1277.17" y="-215.8" font-family="Times,serif" font-size="14.00">association slot</text>
</g>
<!-- edge label -->
<g id="node17" class="node">
<title>edge label</title>
<ellipse fill="none" stroke="blue" cx="1400.2" cy="-177" rx="44.96" ry="18"/>
<text text-anchor="middle" x="1400.2" y="-172.8" font-family="Times,serif" font-size="14.00">label type</text>
</g>
<!-- anatomical entity to anatomical entity ontogenic association&#45;&gt;edge label -->
<g id="edge12" class="edge">
<title>anatomical entity to anatomical entity ontogenic association&#45;&gt;edge label</title>
<path fill="none" stroke="blue" d="M923.48,-250.17C948.79,-248.36 974.72,-246.57 999.2,-245 1071.39,-240.36 1255.41,-249.34 1324.2,-227 1342.13,-221.18 1359.96,-210.04 1373.84,-199.85"/>
<polygon fill="blue" stroke="blue" points="1376.1,-202.52 1381.94,-193.68 1371.86,-196.96 1376.1,-202.52"/>
<text text-anchor="middle" x="1381.77" y="-215.8" font-family="Times,serif" font-size="14.00">edge label</text>
</g>
<!-- subject&#45;&gt;relation -->
<g id="edge14" class="edge">
<title>subject&#45;&gt;relation</title>
<path fill="none" stroke="black" stroke-dasharray="1,5" d="M474.02,-158.9C470.57,-131.77 463.8,-78.61 459.67,-46.21"/>
<polygon fill="black" stroke="black" points="463.11,-45.56 458.38,-36.08 456.17,-46.44 463.11,-45.56"/>
</g>
<!-- subject&#45;&gt;object -->
<g id="edge13" class="edge">
<title>subject&#45;&gt;object</title>
<path fill="none" stroke="black" d="M479.67,-158.67C481.97,-149.04 485.5,-137.01 490.44,-127 492.27,-123.3 494.49,-119.58 496.86,-116.03"/>
<polygon fill="black" stroke="black" points="499.9,-117.78 502.88,-107.61 494.21,-113.7 499.9,-117.78"/>
<text text-anchor="middle" x="512.58" y="-129.8" font-family="Times,serif" font-size="14.00">relation</text>
</g>
<!-- anatomical entity to anatomical entity ontogenic association_subject -->
<g id="node4" class="node">
<title>anatomical entity to anatomical entity ontogenic association_subject</title>
<ellipse fill="none" stroke="blue" cx="1079.2" cy="-263" rx="71" ry="18"/>
<text text-anchor="middle" x="1079.2" y="-258.8" font-family="Times,serif" font-size="14.00">anatomical entity</text>
</g>
<!-- anatomical entity to anatomical entity ontogenic association_relation -->
<g id="node6" class="node">
<title>anatomical entity to anatomical entity ontogenic association_relation</title>
<ellipse fill="none" stroke="blue" cx="1213.2" cy="-263" rx="44.94" ry="18"/>
<text text-anchor="middle" x="1213.2" y="-258.8" font-family="Times,serif" font-size="14.00">uriorcurie</text>
</g>
<!-- object&#45;&gt;relation -->
<g id="edge15" class="edge">
<title>object&#45;&gt;relation</title>
<path fill="none" stroke="black" stroke-dasharray="1,5" d="M502.89,-74.24C495.15,-65.09 485.24,-53.36 476.55,-43.07"/>
<polygon fill="black" stroke="black" points="479.02,-40.58 469.9,-35.21 473.68,-45.1 479.02,-40.58"/>
</g>
<!-- anatomical entity to anatomical entity ontogenic association_object -->
<g id="node8" class="node">
<title>anatomical entity to anatomical entity ontogenic association_object</title>
<ellipse fill="none" stroke="blue" cx="1347.2" cy="-263" rx="71" ry="18"/>
<text text-anchor="middle" x="1347.2" y="-258.8" font-family="Times,serif" font-size="14.00">anatomical entity</text>
</g>
<!-- association_id -->
<g id="node10" class="node">
<title>association_id</title>
<ellipse fill="none" stroke="blue" cx="1495.2" cy="-263" rx="59.45" ry="18"/>
<text text-anchor="middle" x="1495.2" y="-258.8" font-family="Times,serif" font-size="14.00">nodeidentifier</text>
</g>
</g>
</svg>
