<?xml version="1.0" encoding="UTF-8" standalone="no"?>
<!DOCTYPE svg PUBLIC "-//W3C//DTD SVG 1.1//EN"
 "http://www.w3.org/Graphics/SVG/1.1/DTD/svg11.dtd">
<!-- Generated by graphviz version 2.44.1 (20200629.0846)
 -->
<!-- Pages: 1 -->
<svg width="1519pt" height="131pt"
 viewBox="0.00 0.00 1519.44 131.00" xmlns="http://www.w3.org/2000/svg" xmlns:xlink="http://www.w3.org/1999/xlink">
<g id="graph0" class="graph" transform="scale(1 1) rotate(0) translate(4 127)">
<polygon fill="white" stroke="transparent" points="-4,4 -4,-127 1515.44,-127 1515.44,4 -4,4"/>
<!-- anatomical entity -->
<g id="node1" class="node">
<title>anatomical entity</title>
<ellipse fill="none" stroke="black" cx="770.79" cy="-105" rx="72.29" ry="18"/>
<text text-anchor="middle" x="770.79" y="-101.3" font-family="Times,serif" font-size="14.00">anatomical entity</text>
</g>
<!-- organismal entity -->
<g id="node2" class="node">
<title>organismal entity</title>
<ellipse fill="none" stroke="black" cx="72.79" cy="-18" rx="72.59" ry="18"/>
<text text-anchor="middle" x="72.79" y="-14.3" font-family="Times,serif" font-size="14.00">organismal entity</text>
</g>
<!-- anatomical entity&#45;&gt;organismal entity -->
<g id="edge1" class="edge">
<title>anatomical entity&#45;&gt;organismal entity</title>
<path fill="none" stroke="black" d="M702.34,-99.22C623.29,-93.4 489.42,-82.65 374.79,-69 276.62,-57.31 252.13,-53.38 154.79,-36 148.59,-34.89 142.15,-33.67 135.71,-32.41"/>
<polygon fill="black" stroke="black" points="136.13,-28.93 125.64,-30.41 134.77,-35.79 136.13,-28.93"/>
<text text-anchor="middle" x="385.79" y="-57.8" font-family="Times,serif" font-size="14.00">is_a</text>
</g>
<!-- thing with taxon -->
<g id="node3" class="node">
<title>thing with taxon</title>
<ellipse fill="none" stroke="black" cx="232.79" cy="-18" rx="68.79" ry="18"/>
<text text-anchor="middle" x="232.79" y="-14.3" font-family="Times,serif" font-size="14.00">thing with taxon</text>
</g>
<!-- anatomical entity&#45;&gt;thing with taxon -->
<g id="edge2" class="edge">
<title>anatomical entity&#45;&gt;thing with taxon</title>
<path fill="none" stroke="black" d="M705.6,-97.24C647.52,-90.92 560.3,-80.73 484.79,-69 406.58,-56.85 387.34,-51.87 309.79,-36 304.43,-34.9 298.86,-33.73 293.28,-32.54"/>
<polygon fill="black" stroke="black" points="293.79,-29.07 283.28,-30.38 292.31,-35.91 293.79,-29.07"/>
<text text-anchor="middle" x="496.79" y="-57.8" font-family="Times,serif" font-size="14.00">uses</text>
</g>
<!-- physical essence -->
<g id="node4" class="node">
<title>physical essence</title>
<ellipse fill="none" stroke="black" cx="388.79" cy="-18" rx="69.59" ry="18"/>
<text text-anchor="middle" x="388.79" y="-14.3" font-family="Times,serif" font-size="14.00">physical essence</text>
</g>
<!-- anatomical entity&#45;&gt;physical essence -->
<g id="edge3" class="edge">
<title>anatomical entity&#45;&gt;physical essence</title>
<path fill="none" stroke="black" d="M711.04,-94.79C671.84,-88.4 619.56,-79.23 573.79,-69 529.28,-59.05 479.38,-45.42 442.63,-34.9"/>
<polygon fill="black" stroke="black" points="443.21,-31.42 432.63,-32.02 441.27,-38.15 443.21,-31.42"/>
<text text-anchor="middle" x="585.79" y="-57.8" font-family="Times,serif" font-size="14.00">uses</text>
</g>
<!-- id -->
<g id="node5" class="node">
<title>id</title>
<ellipse fill="none" stroke="blue" cx="506.79" cy="-18" rx="30.59" ry="18"/>
<text text-anchor="middle" x="506.79" y="-14.3" font-family="Times,serif" font-size="14.00">string</text>
</g>
<!-- anatomical entity&#45;&gt;id -->
<g id="edge4" class="edge">
<title>anatomical entity&#45;&gt;id</title>
<path fill="none" stroke="blue" d="M723.55,-91.25C677.88,-78.55 606.96,-57.85 546.79,-36 544.44,-35.14 542.01,-34.22 539.59,-33.27"/>
<polygon fill="blue" stroke="blue" points="540.9,-30.02 530.32,-29.49 538.26,-36.51 540.9,-30.02"/>
<text text-anchor="middle" x="650.29" y="-57.8" font-family="Times,serif" font-size="14.00">id</text>
</g>
<!-- iri -->
<g id="node6" class="node">
<title>iri</title>
<ellipse fill="none" stroke="blue" cx="591.79" cy="-18" rx="36.29" ry="18"/>
<text text-anchor="middle" x="591.79" y="-14.3" font-family="Times,serif" font-size="14.00">iri type</text>
</g>
<!-- anatomical entity&#45;&gt;iri -->
<g id="edge5" class="edge">
<title>anatomical entity&#45;&gt;iri</title>
<path fill="none" stroke="blue" d="M738.79,-88.8C707.12,-73.77 658.8,-50.82 626.29,-35.38"/>
<polygon fill="blue" stroke="blue" points="627.69,-32.17 617.16,-31.04 624.69,-38.5 627.69,-32.17"/>
<text text-anchor="middle" x="699.29" y="-57.8" font-family="Times,serif" font-size="14.00">iri</text>
</g>
<!-- type -->
<g id="node7" class="node">
<title>type</title>
<ellipse fill="none" stroke="blue" cx="676.79" cy="-18" rx="30.59" ry="18"/>
<text text-anchor="middle" x="676.79" y="-14.3" font-family="Times,serif" font-size="14.00">string</text>
</g>
<!-- anatomical entity&#45;&gt;type -->
<g id="edge6" class="edge">
<title>anatomical entity&#45;&gt;type</title>
<path fill="none" stroke="blue" d="M752.22,-87.21C737.32,-73.74 716.32,-54.74 700.26,-40.22"/>
<polygon fill="blue" stroke="blue" points="702.59,-37.61 692.82,-33.49 697.89,-42.8 702.59,-37.61"/>
<text text-anchor="middle" x="741.79" y="-57.8" font-family="Times,serif" font-size="14.00">type</text>
</g>
<!-- name -->
<g id="node8" class="node">
<title>name</title>
<ellipse fill="none" stroke="blue" cx="770.79" cy="-18" rx="45.49" ry="18"/>
<text text-anchor="middle" x="770.79" y="-14.3" font-family="Times,serif" font-size="14.00">label type</text>
</g>
<!-- anatomical entity&#45;&gt;name -->
<g id="edge7" class="edge">
<title>anatomical entity&#45;&gt;name</title>
<path fill="none" stroke="blue" d="M770.79,-86.8C770.79,-75.16 770.79,-59.55 770.79,-46.24"/>
<polygon fill="blue" stroke="blue" points="774.29,-46.18 770.79,-36.18 767.29,-46.18 774.29,-46.18"/>
<text text-anchor="middle" x="786.29" y="-57.8" font-family="Times,serif" font-size="14.00">name</text>
</g>
<!-- description -->
<g id="node9" class="node">
<title>description</title>
<ellipse fill="none" stroke="blue" cx="891.79" cy="-18" rx="57.69" ry="18"/>
<text text-anchor="middle" x="891.79" y="-14.3" font-family="Times,serif" font-size="14.00">narrative text</text>
</g>
<!-- anatomical entity&#45;&gt;description -->
<g id="edge8" class="edge">
<title>anatomical entity&#45;&gt;description</title>
<path fill="none" stroke="blue" d="M793.84,-87.81C812.88,-74.43 840.09,-55.32 861,-40.63"/>
<polygon fill="blue" stroke="blue" points="863.07,-43.45 869.24,-34.84 859.05,-37.72 863.07,-43.45"/>
<text text-anchor="middle" x="869.29" y="-57.8" font-family="Times,serif" font-size="14.00">description</text>
</g>
<!-- source -->
<g id="node10" class="node">
<title>source</title>
<ellipse fill="none" stroke="blue" cx="1012.79" cy="-18" rx="45.49" ry="18"/>
<text text-anchor="middle" x="1012.79" y="-14.3" font-family="Times,serif" font-size="14.00">label type</text>
</g>
<!-- anatomical entity&#45;&gt;source -->
<g id="edge9" class="edge">
<title>anatomical entity&#45;&gt;source</title>
<path fill="none" stroke="blue" d="M822.9,-92.5C847.71,-86.46 877.6,-78.37 903.79,-69 928.78,-60.06 955.91,-47.62 976.85,-37.39"/>
<polygon fill="blue" stroke="blue" points="978.6,-40.43 986.01,-32.87 975.5,-34.16 978.6,-40.43"/>
<text text-anchor="middle" x="958.79" y="-57.8" font-family="Times,serif" font-size="14.00">source</text>
</g>
<!-- provided by -->
<g id="node11" class="node">
<title>provided by</title>
<ellipse fill="none" stroke="blue" cx="1105.79" cy="-18" rx="29.8" ry="18"/>
<text text-anchor="middle" x="1105.79" y="-14.3" font-family="Times,serif" font-size="14.00">agent</text>
</g>
<!-- anatomical entity&#45;&gt;provided by -->
<g id="edge10" class="edge">
<title>anatomical entity&#45;&gt;provided by</title>
<path fill="none" stroke="blue" d="M822.98,-92.5C832.54,-90.55 842.45,-88.63 851.79,-87 908.82,-77.05 924.74,-83.46 980.79,-69 1020.43,-58.77 1028.91,-51.52 1066.79,-36 1068.85,-35.16 1070.96,-34.28 1073.08,-33.39"/>
<polygon fill="blue" stroke="blue" points="1074.54,-36.57 1082.36,-29.42 1071.78,-30.13 1074.54,-36.57"/>
<text text-anchor="middle" x="1057.79" y="-57.8" font-family="Times,serif" font-size="14.00">provided by</text>
</g>
<!-- category -->
<g id="node12" class="node">
<title>category</title>
<ellipse fill="none" stroke="black" cx="1194.79" cy="-18" rx="40.89" ry="18"/>
<text text-anchor="middle" x="1194.79" y="-14.3" font-family="Times,serif" font-size="14.00">category</text>
</g>
<!-- anatomical entity&#45;&gt;category -->
<g id="edge11" class="edge">
<title>anatomical entity&#45;&gt;category</title>
<path fill="none" stroke="blue" d="M822.03,-92.17C831.87,-90.21 842.12,-88.37 851.79,-87 959.02,-71.84 990.39,-97.76 1094.79,-69 1119.08,-62.31 1144.44,-49.56 1163.54,-38.6"/>
<polygon fill="blue" stroke="blue" points="1165.54,-41.49 1172.39,-33.41 1161.99,-35.45 1165.54,-41.49"/>
<text text-anchor="middle" x="1156.29" y="-57.8" font-family="Times,serif" font-size="14.00">category</text>
</g>
<!-- has attribute -->
<g id="node14" class="node">
<title>has attribute</title>
<ellipse fill="none" stroke="black" cx="1307.79" cy="-18" rx="53.89" ry="18"/>
<text text-anchor="middle" x="1307.79" y="-14.3" font-family="Times,serif" font-size="14.00">has attribute</text>
</g>
<!-- anatomical entity&#45;&gt;has attribute -->
<g id="edge12" class="edge">
<title>anatomical entity&#45;&gt;has attribute</title>
<path fill="none" stroke="blue" d="M821.58,-92.1C831.55,-90.12 841.96,-88.29 851.79,-87 998.31,-67.77 1039.54,-101.06 1183.79,-69 1214,-62.29 1246.37,-49.01 1270.46,-37.82"/>
<polygon fill="blue" stroke="blue" points="1272.05,-40.94 1279.59,-33.5 1269.06,-34.61 1272.05,-40.94"/>
<text text-anchor="middle" x="1263.29" y="-57.8" font-family="Times,serif" font-size="14.00">has attribute</text>
</g>
<!-- in taxon -->
<g id="node16" class="node">
<title>in taxon</title>
<ellipse fill="none" stroke="blue" cx="1445.79" cy="-18" rx="65.79" ry="18"/>
<text text-anchor="middle" x="1445.79" y="-14.3" font-family="Times,serif" font-size="14.00">organism taxon</text>
</g>
<!-- anatomical entity&#45;&gt;in taxon -->
<g id="edge13" class="edge">
<title>anatomical entity&#45;&gt;in taxon</title>
<path fill="none" stroke="blue" d="M821.13,-92.08C831.23,-90.07 841.81,-88.24 851.79,-87 1049.99,-62.4 1104.52,-105.95 1300.79,-69 1336.14,-62.35 1374.55,-48.79 1402.96,-37.48"/>
<polygon fill="blue" stroke="blue" points="1404.61,-40.58 1412.57,-33.58 1401.98,-34.09 1404.61,-40.58"/>
<text text-anchor="middle" x="1376.29" y="-57.8" font-family="Times,serif" font-size="14.00">in taxon</text>
</g>
<!-- named thing_category -->
<g id="node13" class="node">
<title>named thing_category</title>
<ellipse fill="none" stroke="blue" cx="915.79" cy="-105" rx="55.49" ry="18"/>
<text text-anchor="middle" x="915.79" y="-101.3" font-family="Times,serif" font-size="14.00">named thing</text>
</g>
<!-- organismal entity_has attribute -->
<g id="node15" class="node">
<title>organismal entity_has attribute</title>
<ellipse fill="none" stroke="blue" cx="1029.79" cy="-105" rx="40.09" ry="18"/>
<text text-anchor="middle" x="1029.79" y="-101.3" font-family="Times,serif" font-size="14.00">attribute</text>
</g>
</g>
</svg>
