<?xml version="1.0" encoding="UTF-8" standalone="no"?>
<!DOCTYPE svg PUBLIC "-//W3C//DTD SVG 1.1//EN"
 "http://www.w3.org/Graphics/SVG/1.1/DTD/svg11.dtd">
<!-- Generated by graphviz version 2.43.0 (0)
 -->
<!-- Title: %3 Pages: 1 -->
<svg width="1680pt" height="131pt"
 viewBox="0.00 0.00 1680.44 131.00" xmlns="http://www.w3.org/2000/svg" xmlns:xlink="http://www.w3.org/1999/xlink">
<g id="graph0" class="graph" transform="scale(1 1) rotate(0) translate(4 127)">
<title>%3</title>
<polygon fill="white" stroke="transparent" points="-4,4 -4,-127 1676.44,-127 1676.44,4 -4,4"/>
<!-- anatomical entity -->
<g id="node1" class="node">
<title>anatomical entity</title>
<ellipse fill="none" stroke="black" cx="826.94" cy="-105" rx="91.78" ry="18"/>
<text text-anchor="middle" x="826.94" y="-101.3" font-family="Times,serif" font-size="14.00">anatomical entity</text>
</g>
<!-- organismal entity -->
<g id="node2" class="node">
<title>organismal entity</title>
<ellipse fill="none" stroke="black" cx="92.94" cy="-18" rx="92.88" ry="18"/>
<text text-anchor="middle" x="92.94" y="-14.3" font-family="Times,serif" font-size="14.00">organismal entity</text>
</g>
<!-- anatomical entity&#45;&gt;organismal entity -->
<g id="edge1" class="edge">
<title>anatomical entity&#45;&gt;organismal entity</title>
<path fill="none" stroke="black" d="M741.35,-98.38C657.71,-92.5 526.86,-82.28 413.94,-69 316.18,-57.5 292.16,-51.42 194.94,-36 187,-34.74 178.72,-33.4 170.45,-32.05"/>
<polygon fill="black" stroke="black" points="170.84,-28.56 160.4,-30.4 169.7,-35.47 170.84,-28.56"/>
<text text-anchor="middle" x="427.94" y="-57.8" font-family="Times,serif" font-size="14.00">is_a</text>
</g>
<!-- physical essence -->
<g id="node3" class="node">
<title>physical essence</title>
<ellipse fill="none" stroke="black" cx="291.94" cy="-18" rx="88.28" ry="18"/>
<text text-anchor="middle" x="291.94" y="-14.3" font-family="Times,serif" font-size="14.00">physical essence</text>
</g>
<!-- anatomical entity&#45;&gt;physical essence -->
<g id="edge2" class="edge">
<title>anatomical entity&#45;&gt;physical essence</title>
<path fill="none" stroke="black" d="M745.08,-96.84C683.49,-90.92 597.13,-81.46 521.94,-69 465.42,-59.64 401.81,-45.53 355.84,-34.69"/>
<polygon fill="black" stroke="black" points="356.56,-31.26 346.02,-32.36 354.94,-38.07 356.56,-31.26"/>
<text text-anchor="middle" x="538.44" y="-57.8" font-family="Times,serif" font-size="14.00">uses</text>
</g>
<!-- id -->
<g id="node4" class="node">
<title>id</title>
<ellipse fill="none" stroke="blue" cx="436.94" cy="-18" rx="38.19" ry="18"/>
<text text-anchor="middle" x="436.94" y="-14.3" font-family="Times,serif" font-size="14.00">string</text>
</g>
<!-- anatomical entity&#45;&gt;id -->
<g id="edge3" class="edge">
<title>anatomical entity&#45;&gt;id</title>
<path fill="none" stroke="blue" d="M756.38,-93.45C686.66,-82.22 577.34,-62.42 484.94,-36 481.84,-35.11 478.65,-34.13 475.45,-33.11"/>
<polygon fill="blue" stroke="blue" points="476.54,-29.78 465.95,-29.92 474.32,-36.42 476.54,-29.78"/>
<text text-anchor="middle" x="622.94" y="-57.8" font-family="Times,serif" font-size="14.00">id</text>
</g>
<!-- iri -->
<g id="node5" class="node">
<title>iri</title>
<ellipse fill="none" stroke="blue" cx="537.94" cy="-18" rx="44.39" ry="18"/>
<text text-anchor="middle" x="537.94" y="-14.3" font-family="Times,serif" font-size="14.00">iri type</text>
</g>
<!-- anatomical entity&#45;&gt;iri -->
<g id="edge4" class="edge">
<title>anatomical entity&#45;&gt;iri</title>
<path fill="none" stroke="blue" d="M776.1,-89.99C753.38,-83.68 726.29,-76.06 701.94,-69 652.92,-54.78 640.73,-51 591.94,-36 588.45,-34.93 584.83,-33.81 581.2,-32.67"/>
<polygon fill="blue" stroke="blue" points="582.21,-29.32 571.62,-29.68 580.12,-36.01 582.21,-29.32"/>
<text text-anchor="middle" x="709.94" y="-57.8" font-family="Times,serif" font-size="14.00">iri</text>
</g>
<!-- type -->
<g id="node6" class="node">
<title>type</title>
<ellipse fill="none" stroke="blue" cx="638.94" cy="-18" rx="38.19" ry="18"/>
<text text-anchor="middle" x="638.94" y="-14.3" font-family="Times,serif" font-size="14.00">string</text>
</g>
<!-- anatomical entity&#45;&gt;type -->
<g id="edge5" class="edge">
<title>anatomical entity&#45;&gt;type</title>
<path fill="none" stroke="blue" d="M792.02,-88.21C758.68,-73.14 708.66,-50.52 674.95,-35.28"/>
<polygon fill="blue" stroke="blue" points="676.04,-31.93 665.48,-31 673.15,-38.31 676.04,-31.93"/>
<text text-anchor="middle" x="760.94" y="-57.8" font-family="Times,serif" font-size="14.00">type</text>
</g>
<!-- name -->
<g id="node7" class="node">
<title>name</title>
<ellipse fill="none" stroke="blue" cx="751.94" cy="-18" rx="56.59" ry="18"/>
<text text-anchor="middle" x="751.94" y="-14.3" font-family="Times,serif" font-size="14.00">label type</text>
</g>
<!-- anatomical entity&#45;&gt;name -->
<g id="edge6" class="edge">
<title>anatomical entity&#45;&gt;name</title>
<path fill="none" stroke="blue" d="M812.12,-87.21C801.06,-74.67 785.78,-57.35 773.38,-43.3"/>
<polygon fill="blue" stroke="blue" points="775.71,-40.65 766.47,-35.47 770.47,-45.28 775.71,-40.65"/>
<text text-anchor="middle" x="813.94" y="-57.8" font-family="Times,serif" font-size="14.00">name</text>
</g>
<!-- description -->
<g id="node8" class="node">
<title>description</title>
<ellipse fill="none" stroke="blue" cx="901.94" cy="-18" rx="75.29" ry="18"/>
<text text-anchor="middle" x="901.94" y="-14.3" font-family="Times,serif" font-size="14.00">narrative text</text>
</g>
<!-- anatomical entity&#45;&gt;description -->
<g id="edge7" class="edge">
<title>anatomical entity&#45;&gt;description</title>
<path fill="none" stroke="blue" d="M841.76,-87.21C852.75,-74.75 867.91,-57.57 880.26,-43.57"/>
<polygon fill="blue" stroke="blue" points="883.16,-45.57 887.15,-35.76 877.91,-40.94 883.16,-45.57"/>
<text text-anchor="middle" x="909.44" y="-57.8" font-family="Times,serif" font-size="14.00">description</text>
</g>
<!-- provided by -->
<g id="node9" class="node">
<title>provided by</title>
<ellipse fill="none" stroke="blue" cx="1033.94" cy="-18" rx="38.19" ry="18"/>
<text text-anchor="middle" x="1033.94" y="-14.3" font-family="Times,serif" font-size="14.00">string</text>
</g>
<!-- anatomical entity&#45;&gt;provided by -->
<g id="edge8" class="edge">
<title>anatomical entity&#45;&gt;provided by</title>
<path fill="none" stroke="blue" d="M886.65,-91.34C908.32,-85.77 932.69,-78.33 953.94,-69 972.12,-61.02 991.02,-49.39 1005.88,-39.35"/>
<polygon fill="blue" stroke="blue" points="1007.88,-42.22 1014.13,-33.66 1003.91,-36.46 1007.88,-42.22"/>
<text text-anchor="middle" x="1024.44" y="-57.8" font-family="Times,serif" font-size="14.00">provided by</text>
</g>
<!-- xref -->
<g id="node10" class="node">
<title>xref</title>
<ellipse fill="none" stroke="blue" cx="1147.94" cy="-18" rx="57.39" ry="18"/>
<text text-anchor="middle" x="1147.94" y="-14.3" font-family="Times,serif" font-size="14.00">uriorcurie</text>
</g>
<!-- anatomical entity&#45;&gt;xref -->
<g id="edge9" class="edge">
<title>anatomical entity&#45;&gt;xref</title>
<path fill="none" stroke="blue" d="M892.77,-92.39C904.15,-90.5 915.88,-88.63 926.94,-87 990.75,-77.59 1010.36,-91.12 1070.94,-69 1088.67,-62.53 1106.48,-51.34 1120.49,-41.19"/>
<polygon fill="blue" stroke="blue" points="1122.78,-43.85 1128.69,-35.06 1118.59,-38.24 1122.78,-43.85"/>
<text text-anchor="middle" x="1115.44" y="-57.8" font-family="Times,serif" font-size="14.00">xref</text>
</g>
<!-- category -->
<g id="node11" class="node">
<title>category</title>
<ellipse fill="none" stroke="black" cx="1274.94" cy="-18" rx="51.19" ry="18"/>
<text text-anchor="middle" x="1274.94" y="-14.3" font-family="Times,serif" font-size="14.00">category</text>
</g>
<!-- anatomical entity&#45;&gt;category -->
<g id="edge10" class="edge">
<title>anatomical entity&#45;&gt;category</title>
<path fill="none" stroke="blue" d="M891.65,-92.21C903.37,-90.3 915.5,-88.47 926.94,-87 1018.54,-75.25 1043.7,-88.59 1133.94,-69 1168.91,-61.41 1207.07,-47.51 1234.87,-36.29"/>
<polygon fill="blue" stroke="blue" points="1236.32,-39.48 1244.24,-32.45 1233.66,-33 1236.32,-39.48"/>
<text text-anchor="middle" x="1217.44" y="-57.8" font-family="Times,serif" font-size="14.00">category</text>
</g>
<!-- in taxon -->
<g id="node13" class="node">
<title>in taxon</title>
<ellipse fill="none" stroke="blue" cx="1427.94" cy="-18" rx="83.39" ry="18"/>
<text text-anchor="middle" x="1427.94" y="-14.3" font-family="Times,serif" font-size="14.00">organism taxon</text>
</g>
<!-- anatomical entity&#45;&gt;in taxon -->
<g id="edge11" class="edge">
<title>anatomical entity&#45;&gt;in taxon</title>
<path fill="none" stroke="blue" d="M890.81,-92.04C902.78,-90.11 915.22,-88.32 926.94,-87 1071.15,-70.81 1109.84,-93.08 1252.94,-69 1295.34,-61.86 1342.11,-48.19 1376.62,-36.94"/>
<polygon fill="blue" stroke="blue" points="1378.07,-40.15 1386.47,-33.69 1375.87,-33.5 1378.07,-40.15"/>
<text text-anchor="middle" x="1345.94" y="-57.8" font-family="Times,serif" font-size="14.00">in taxon</text>
</g>
<!-- has attribute -->
<g id="node14" class="node">
<title>has attribute</title>
<ellipse fill="none" stroke="black" cx="1600.94" cy="-18" rx="71.49" ry="18"/>
<text text-anchor="middle" x="1600.94" y="-14.3" font-family="Times,serif" font-size="14.00">has attribute</text>
</g>
<!-- anatomical entity&#45;&gt;has attribute -->
<g id="edge12" class="edge">
<title>anatomical entity&#45;&gt;has attribute</title>
<path fill="none" stroke="blue" d="M890.25,-91.97C902.39,-90.03 915.03,-88.24 926.94,-87 1126.9,-66.11 1179.61,-95.2 1378.94,-69 1436.3,-61.46 1500.67,-46.19 1545.27,-34.5"/>
<polygon fill="blue" stroke="blue" points="1546.26,-37.85 1555.04,-31.91 1544.47,-31.09 1546.26,-37.85"/>
<text text-anchor="middle" x="1506.94" y="-57.8" font-family="Times,serif" font-size="14.00">has attribute</text>
</g>
<!-- named thing_category -->
<g id="node12" class="node">
<title>named thing_category</title>
<ellipse fill="none" stroke="blue" cx="1010.94" cy="-105" rx="74.99" ry="18"/>
<text text-anchor="middle" x="1010.94" y="-101.3" font-family="Times,serif" font-size="14.00">category type</text>
</g>
<!-- organismal entity_has attribute -->
<g id="node15" class="node">
<title>organismal entity_has attribute</title>
<ellipse fill="none" stroke="blue" cx="1155.94" cy="-105" rx="51.99" ry="18"/>
<text text-anchor="middle" x="1155.94" y="-101.3" font-family="Times,serif" font-size="14.00">attribute</text>
</g>
</g>
</svg>
