<?xml version="1.0" encoding="UTF-8" standalone="no"?>
<!DOCTYPE svg PUBLIC "-//W3C//DTD SVG 1.1//EN"
 "http://www.w3.org/Graphics/SVG/1.1/DTD/svg11.dtd">
<!-- Generated by graphviz version 2.40.1 (20161225.0304)
 -->
<!-- Title: %3 Pages: 1 -->
<svg width="2006pt" height="291pt"
 viewBox="0.00 0.00 2006.04 291.00" xmlns="http://www.w3.org/2000/svg" xmlns:xlink="http://www.w3.org/1999/xlink">
<g id="graph0" class="graph" transform="scale(1 1) rotate(0) translate(4 287)">
<title>%3</title>
<polygon fill="#ffffff" stroke="transparent" points="-4,4 -4,-287 2002.0444,-287 2002.0444,4 -4,4"/>
<!-- anatomical entity to anatomical entity association -->
<g id="node1" class="node">
<title>anatomical entity to anatomical entity association</title>
<ellipse fill="none" stroke="#000000" cx="1070.0444" cy="-265" rx="243.957" ry="18"/>
<text text-anchor="middle" x="1070.0444" y="-261.3" font-family="Times,serif" font-size="14.00" fill="#000000">anatomical entity to anatomical entity association</text>
</g>
<!-- association -->
<g id="node2" class="node">
<title>association</title>
<ellipse fill="none" stroke="#000000" cx="63.0444" cy="-178" rx="63.0888" ry="18"/>
<text text-anchor="middle" x="63.0444" y="-174.3" font-family="Times,serif" font-size="14.00" fill="#000000">association</text>
</g>
<!-- anatomical entity to anatomical entity association&#45;&gt;association -->
<g id="edge1" class="edge">
<title>anatomical entity to anatomical entity association&#45;&gt;association</title>
<path fill="none" stroke="#000000" d="M836.943,-259.7185C639.7455,-254.2944 372.854,-244.439 267.0444,-229 214.8165,-221.3793 156.5142,-206.0996 115.6571,-194.2426"/>
<polygon fill="#000000" stroke="#000000" points="116.5007,-190.8426 105.9198,-191.3857 114.5299,-197.5595 116.5007,-190.8426"/>
<text text-anchor="middle" x="281.0444" y="-217.8" font-family="Times,serif" font-size="14.00" fill="#000000">is_a</text>
</g>
<!-- id -->
<g id="node3" class="node">
<title>id</title>
<ellipse fill="none" stroke="#0000ff" cx="182.0444" cy="-178" rx="38.1938" ry="18"/>
<text text-anchor="middle" x="182.0444" y="-174.3" font-family="Times,serif" font-size="14.00" fill="#000000">string</text>
</g>
<!-- anatomical entity to anatomical entity association&#45;&gt;id -->
<g id="edge2" class="edge">
<title>anatomical entity to anatomical entity association&#45;&gt;id</title>
<path fill="none" stroke="#0000ff" d="M851.5483,-256.9476C687.4968,-250.2354 476.9579,-240.0198 391.0444,-229 318.5948,-219.7072 300.2335,-216.2189 230.0444,-196 227.0618,-195.1408 224.001,-194.1817 220.9387,-193.1658"/>
<polygon fill="#0000ff" stroke="#0000ff" points="221.8413,-189.7737 211.2464,-189.7804 219.533,-196.3822 221.8413,-189.7737"/>
<text text-anchor="middle" x="398.0444" y="-217.8" font-family="Times,serif" font-size="14.00" fill="#000000">id</text>
</g>
<!-- iri -->
<g id="node4" class="node">
<title>iri</title>
<ellipse fill="none" stroke="#0000ff" cx="283.0444" cy="-178" rx="44.393" ry="18"/>
<text text-anchor="middle" x="283.0444" y="-174.3" font-family="Times,serif" font-size="14.00" fill="#000000">iri type</text>
</g>
<!-- anatomical entity to anatomical entity association&#45;&gt;iri -->
<g id="edge3" class="edge">
<title>anatomical entity to anatomical entity association&#45;&gt;iri</title>
<path fill="none" stroke="#0000ff" d="M845.6324,-257.9505C740.1183,-252.8223 612.7808,-244.0268 499.0444,-229 425.767,-219.3186 407.4059,-215.2573 336.0444,-196 332.7065,-195.0992 329.2727,-194.1012 325.8341,-193.0503"/>
<polygon fill="#0000ff" stroke="#0000ff" points="326.797,-189.6838 316.2065,-189.9856 324.6737,-196.354 326.797,-189.6838"/>
<text text-anchor="middle" x="507.0444" y="-217.8" font-family="Times,serif" font-size="14.00" fill="#000000">iri</text>
</g>
<!-- name -->
<g id="node5" class="node">
<title>name</title>
<ellipse fill="none" stroke="#0000ff" cx="402.0444" cy="-178" rx="56.59" ry="18"/>
<text text-anchor="middle" x="402.0444" y="-174.3" font-family="Times,serif" font-size="14.00" fill="#000000">label type</text>
</g>
<!-- anatomical entity to anatomical entity association&#45;&gt;name -->
<g id="edge4" class="edge">
<title>anatomical entity to anatomical entity association&#45;&gt;name</title>
<path fill="none" stroke="#0000ff" d="M873.4619,-254.3432C764.0484,-247.6326 639.2631,-238.4713 585.0444,-229 538.7163,-220.9071 487.2214,-206.0067 450.6892,-194.3934"/>
<polygon fill="#0000ff" stroke="#0000ff" points="451.3901,-190.9423 440.7987,-191.2133 449.2474,-197.6063 451.3901,-190.9423"/>
<text text-anchor="middle" x="605.0444" y="-217.8" font-family="Times,serif" font-size="14.00" fill="#000000">name</text>
</g>
<!-- description -->
<g id="node6" class="node">
<title>description</title>
<ellipse fill="none" stroke="#0000ff" cx="552.0444" cy="-178" rx="75.2868" ry="18"/>
<text text-anchor="middle" x="552.0444" y="-174.3" font-family="Times,serif" font-size="14.00" fill="#000000">narrative text</text>
</g>
<!-- anatomical entity to anatomical entity association&#45;&gt;description -->
<g id="edge5" class="edge">
<title>anatomical entity to anatomical entity association&#45;&gt;description</title>
<path fill="none" stroke="#0000ff" d="M882.3396,-253.4778C799.7328,-247.2763 712.5763,-238.8697 673.0444,-229 645.246,-222.0597 615.5779,-209.6414 592.5763,-198.7968"/>
<polygon fill="#0000ff" stroke="#0000ff" points="594.0004,-195.5981 583.4709,-194.4225 590.9691,-201.9077 594.0004,-195.5981"/>
<text text-anchor="middle" x="714.0444" y="-217.8" font-family="Times,serif" font-size="14.00" fill="#000000">description</text>
</g>
<!-- source -->
<g id="node7" class="node">
<title>source</title>
<ellipse fill="none" stroke="#0000ff" cx="702.0444" cy="-178" rx="56.59" ry="18"/>
<text text-anchor="middle" x="702.0444" y="-174.3" font-family="Times,serif" font-size="14.00" fill="#000000">label type</text>
</g>
<!-- anatomical entity to anatomical entity association&#45;&gt;source -->
<g id="edge6" class="edge">
<title>anatomical entity to anatomical entity association&#45;&gt;source</title>
<path fill="none" stroke="#0000ff" d="M920.3904,-250.7735C868.134,-244.7068 816.4531,-237.1475 792.0444,-229 771.6339,-222.1871 750.6147,-210.5803 734.0273,-200.1591"/>
<polygon fill="#0000ff" stroke="#0000ff" points="735.6007,-197.009 725.3001,-194.5295 731.8062,-202.8914 735.6007,-197.009"/>
<text text-anchor="middle" x="816.5444" y="-217.8" font-family="Times,serif" font-size="14.00" fill="#000000">source</text>
</g>
<!-- provided by -->
<g id="node8" class="node">
<title>provided by</title>
<ellipse fill="none" stroke="#0000ff" cx="814.0444" cy="-178" rx="37.0935" ry="18"/>
<text text-anchor="middle" x="814.0444" y="-174.3" font-family="Times,serif" font-size="14.00" fill="#000000">agent</text>
</g>
<!-- anatomical entity to anatomical entity association&#45;&gt;provided by -->
<g id="edge7" class="edge">
<title>anatomical entity to anatomical entity association&#45;&gt;provided by</title>
<path fill="none" stroke="#0000ff" d="M946.0375,-249.4566C911.9217,-243.8091 880.1517,-236.8577 865.0444,-229 853.0676,-222.7706 842.1333,-212.7427 833.4876,-203.2206"/>
<polygon fill="#0000ff" stroke="#0000ff" points="835.9655,-200.7341 826.7909,-195.4355 830.6588,-205.2991 835.9655,-200.7341"/>
<text text-anchor="middle" x="907.5444" y="-217.8" font-family="Times,serif" font-size="14.00" fill="#000000">provided by</text>
</g>
<!-- has attribute -->
<g id="node9" class="node">
<title>has attribute</title>
<ellipse fill="none" stroke="#0000ff" cx="921.0444" cy="-178" rx="51.9908" ry="18"/>
<text text-anchor="middle" x="921.0444" y="-174.3" font-family="Times,serif" font-size="14.00" fill="#000000">attribute</text>
</g>
<!-- anatomical entity to anatomical entity association&#45;&gt;has attribute -->
<g id="edge8" class="edge">
<title>anatomical entity to anatomical entity association&#45;&gt;has attribute</title>
<path fill="none" stroke="#0000ff" d="M1009.7853,-247.5384C996.8284,-242.5241 983.5751,-236.37 972.0444,-229 960.9992,-221.9403 950.4589,-212.1259 941.8576,-202.9903"/>
<polygon fill="#0000ff" stroke="#0000ff" points="944.4273,-200.6137 935.1201,-195.5515 939.2391,-205.3129 944.4273,-200.6137"/>
<text text-anchor="middle" x="1019.0444" y="-217.8" font-family="Times,serif" font-size="14.00" fill="#000000">has attribute</text>
</g>
<!-- predicate -->
<g id="node10" class="node">
<title>predicate</title>
<ellipse fill="none" stroke="#0000ff" cx="1070.0444" cy="-178" rx="78.7863" ry="18"/>
<text text-anchor="middle" x="1070.0444" y="-174.3" font-family="Times,serif" font-size="14.00" fill="#000000">predicate type</text>
</g>
<!-- anatomical entity to anatomical entity association&#45;&gt;predicate -->
<g id="edge9" class="edge">
<title>anatomical entity to anatomical entity association&#45;&gt;predicate</title>
<path fill="none" stroke="#0000ff" d="M1070.0444,-246.9735C1070.0444,-235.1918 1070.0444,-219.5607 1070.0444,-206.1581"/>
<polygon fill="#0000ff" stroke="#0000ff" points="1073.5445,-206.0033 1070.0444,-196.0034 1066.5445,-206.0034 1073.5445,-206.0033"/>
<text text-anchor="middle" x="1104.5444" y="-217.8" font-family="Times,serif" font-size="14.00" fill="#000000">predicate</text>
</g>
<!-- relation -->
<g id="node11" class="node">
<title>relation</title>
<ellipse fill="none" stroke="#0000ff" cx="1834.0444" cy="-18" rx="57.6901" ry="18"/>
<text text-anchor="middle" x="1834.0444" y="-14.3" font-family="Times,serif" font-size="14.00" fill="#000000">uriorcurie</text>
</g>
<!-- anatomical entity to anatomical entity association&#45;&gt;relation -->
<g id="edge10" class="edge">
<title>anatomical entity to anatomical entity association&#45;&gt;relation</title>
<path fill="none" stroke="#0000ff" d="M1114.4833,-247.1281C1124.4167,-242.0629 1134.5225,-235.9903 1143.0444,-229 1172.9422,-204.4759 1163.4346,-180.7825 1196.0444,-160 1291.9683,-98.8669 1628.9363,-46.3959 1770.5772,-26.5129"/>
<polygon fill="#0000ff" stroke="#0000ff" points="1771.4165,-29.9298 1780.8371,-25.0818 1770.4494,-22.997 1771.4165,-29.9298"/>
<text text-anchor="middle" x="1298.0444" y="-130.8" font-family="Times,serif" font-size="14.00" fill="#000000">relation</text>
</g>
<!-- negated -->
<g id="node12" class="node">
<title>negated</title>
<ellipse fill="none" stroke="#0000ff" cx="1252.0444" cy="-178" rx="46.5926" ry="18"/>
<text text-anchor="middle" x="1252.0444" y="-174.3" font-family="Times,serif" font-size="14.00" fill="#000000">boolean</text>
</g>
<!-- anatomical entity to anatomical entity association&#45;&gt;negated -->
<g id="edge11" class="edge">
<title>anatomical entity to anatomical entity association&#45;&gt;negated</title>
<path fill="none" stroke="#0000ff" d="M1145.2107,-247.8172C1160.8348,-242.8328 1176.8519,-236.6206 1191.0444,-229 1204.2247,-221.9229 1217.1777,-211.6978 1227.7337,-202.2584"/>
<polygon fill="#0000ff" stroke="#0000ff" points="1230.3376,-204.6176 1235.3028,-195.2583 1225.5848,-199.4785 1230.3376,-204.6176"/>
<text text-anchor="middle" x="1242.0444" y="-217.8" font-family="Times,serif" font-size="14.00" fill="#000000">negated</text>
</g>
<!-- qualifiers -->
<g id="node13" class="node">
<title>qualifiers</title>
<ellipse fill="none" stroke="#0000ff" cx="1394.0444" cy="-178" rx="77.1866" ry="18"/>
<text text-anchor="middle" x="1394.0444" y="-174.3" font-family="Times,serif" font-size="14.00" fill="#000000">ontology class</text>
</g>
<!-- anatomical entity to anatomical entity association&#45;&gt;qualifiers -->
<g id="edge12" class="edge">
<title>anatomical entity to anatomical entity association&#45;&gt;qualifiers</title>
<path fill="none" stroke="#0000ff" d="M1187.4044,-249.1915C1216.3586,-243.9813 1247.0786,-237.326 1275.0444,-229 1301.4341,-221.1432 1329.8164,-209.1278 1352.2415,-198.7327"/>
<polygon fill="#0000ff" stroke="#0000ff" points="1353.9058,-201.8178 1361.4644,-194.3937 1350.9258,-195.4837 1353.9058,-201.8178"/>
<text text-anchor="middle" x="1350.0444" y="-217.8" font-family="Times,serif" font-size="14.00" fill="#000000">qualifiers</text>
</g>
<!-- publications -->
<g id="node14" class="node">
<title>publications</title>
<ellipse fill="none" stroke="#0000ff" cx="1552.0444" cy="-178" rx="63.0888" ry="18"/>
<text text-anchor="middle" x="1552.0444" y="-174.3" font-family="Times,serif" font-size="14.00" fill="#000000">publication</text>
</g>
<!-- anatomical entity to anatomical entity association&#45;&gt;publications -->
<g id="edge13" class="edge">
<title>anatomical entity to anatomical entity association&#45;&gt;publications</title>
<path fill="none" stroke="#0000ff" d="M1238.5058,-251.9186C1287.0697,-246.534 1339.9238,-239.1113 1388.0444,-229 1427.7109,-220.6651 1471.4937,-206.8016 1503.8367,-195.6312"/>
<polygon fill="#0000ff" stroke="#0000ff" points="1505.2028,-198.8614 1513.4896,-192.26 1502.8948,-192.2529 1505.2028,-198.8614"/>
<text text-anchor="middle" x="1487.0444" y="-217.8" font-family="Times,serif" font-size="14.00" fill="#000000">publications</text>
</g>
<!-- type -->
<g id="node15" class="node">
<title>type</title>
<ellipse fill="none" stroke="#000000" cx="1664.0444" cy="-178" rx="31.3957" ry="18"/>
<text text-anchor="middle" x="1664.0444" y="-174.3" font-family="Times,serif" font-size="14.00" fill="#000000">type</text>
</g>
<!-- anatomical entity to anatomical entity association&#45;&gt;type -->
<g id="edge14" class="edge">
<title>anatomical entity to anatomical entity association&#45;&gt;type</title>
<path fill="none" stroke="#0000ff" d="M1245.8302,-252.5274C1371.3966,-243.433 1520.6112,-232.1695 1535.0444,-229 1569.0421,-221.5341 1605.7706,-206.2417 1631.3091,-194.3401"/>
<polygon fill="#0000ff" stroke="#0000ff" points="1632.9869,-197.4181 1640.5201,-189.9682 1629.9853,-191.0943 1632.9869,-197.4181"/>
<text text-anchor="middle" x="1599.0444" y="-217.8" font-family="Times,serif" font-size="14.00" fill="#000000">type</text>
</g>
<!-- category -->
<g id="node17" class="node">
<title>category</title>
<ellipse fill="none" stroke="#000000" cx="1765.0444" cy="-178" rx="51.9908" ry="18"/>
<text text-anchor="middle" x="1765.0444" y="-174.3" font-family="Times,serif" font-size="14.00" fill="#000000">category</text>
</g>
<!-- anatomical entity to anatomical entity association&#45;&gt;category -->
<g id="edge15" class="edge">
<title>anatomical entity to anatomical entity association&#45;&gt;category</title>
<path fill="none" stroke="#0000ff" d="M1244.2338,-252.3706C1270.6362,-250.5249 1297.5597,-248.6814 1323.0444,-247 1454.5571,-238.3232 1489.8313,-254.9777 1619.0444,-229 1655.2275,-221.7256 1694.6482,-207.5588 1723.3972,-195.9988"/>
<polygon fill="#0000ff" stroke="#0000ff" points="1724.7833,-199.2134 1732.7176,-192.1922 1722.1366,-192.7331 1724.7833,-199.2134"/>
<text text-anchor="middle" x="1705.0444" y="-217.8" font-family="Times,serif" font-size="14.00" fill="#000000">category</text>
</g>
<!-- subject -->
<g id="node19" class="node">
<title>subject</title>
<ellipse fill="none" stroke="#000000" cx="1880.0444" cy="-178" rx="44.6926" ry="18"/>
<text text-anchor="middle" x="1880.0444" y="-174.3" font-family="Times,serif" font-size="14.00" fill="#000000">subject</text>
</g>
<!-- anatomical entity to anatomical entity association&#45;&gt;subject -->
<g id="edge16" class="edge">
<title>anatomical entity to anatomical entity association&#45;&gt;subject</title>
<path fill="none" stroke="#0000ff" d="M1241.1383,-252.1744C1268.523,-250.3097 1296.5567,-248.5123 1323.0444,-247 1415.8682,-241.7004 1649.874,-247.2294 1741.0444,-229 1776.106,-221.9895 1814.1036,-207.5403 1841.4952,-195.8059"/>
<polygon fill="#0000ff" stroke="#0000ff" points="1842.9509,-198.9895 1850.7194,-191.7852 1840.1538,-192.5726 1842.9509,-198.9895"/>
<text text-anchor="middle" x="1817.5444" y="-217.8" font-family="Times,serif" font-size="14.00" fill="#000000">subject</text>
</g>
<!-- object -->
<g id="node21" class="node">
<title>object</title>
<ellipse fill="none" stroke="#000000" cx="1902.0444" cy="-91" rx="39.7935" ry="18"/>
<text text-anchor="middle" x="1902.0444" y="-87.3" font-family="Times,serif" font-size="14.00" fill="#000000">object</text>
</g>
<!-- anatomical entity to anatomical entity association&#45;&gt;object -->
<g id="edge17" class="edge">
<title>anatomical entity to anatomical entity association&#45;&gt;object</title>
<path fill="none" stroke="#0000ff" d="M1239.7641,-252.0624C1267.5822,-250.1899 1296.1106,-248.4194 1323.0444,-247 1439.6179,-240.8568 1733.6439,-252.2298 1848.0444,-229 1888.1652,-220.8532 1907.0395,-226.7699 1934.0444,-196 1954.6289,-172.5457 1960.5626,-155.1263 1947.0444,-127 1944.2571,-121.2007 1940.0302,-116.0431 1935.263,-111.5709"/>
<polygon fill="#0000ff" stroke="#0000ff" points="1937.3925,-108.7902 1927.456,-105.1136 1932.931,-114.1842 1937.3925,-108.7902"/>
<text text-anchor="middle" x="1975.5444" y="-174.3" font-family="Times,serif" font-size="14.00" fill="#000000">object</text>
</g>
<!-- association_type -->
<g id="node16" class="node">
<title>association_type</title>
<ellipse fill="none" stroke="#0000ff" cx="1370.0444" cy="-265" rx="38.1938" ry="18"/>
<text text-anchor="middle" x="1370.0444" y="-261.3" font-family="Times,serif" font-size="14.00" fill="#000000">string</text>
</g>
<!-- association_category -->
<g id="node18" class="node">
<title>association_category</title>
<ellipse fill="none" stroke="#0000ff" cx="1489.0444" cy="-265" rx="63.0888" ry="18"/>
<text text-anchor="middle" x="1489.0444" y="-261.3" font-family="Times,serif" font-size="14.00" fill="#000000">association</text>
</g>
<!-- subject&#45;&gt;relation -->
<g id="edge19" class="edge">
<title>subject&#45;&gt;relation</title>
<path fill="none" stroke="#000000" stroke-dasharray="1,5" d="M1872.098,-160.1293C1866.213,-146.3661 1858.3308,-126.7533 1853.0444,-109 1846.8454,-88.1821 1841.913,-64.1019 1838.6287,-45.9434"/>
<polygon fill="#000000" stroke="#000000" points="1842.061,-45.252 1836.8884,-36.0057 1835.1659,-46.4595 1842.061,-45.252"/>
</g>
<!-- subject&#45;&gt;object -->
<g id="edge18" class="edge">
<title>subject&#45;&gt;object</title>
<path fill="none" stroke="#000000" d="M1883.5468,-159.975C1885.5477,-150.1752 1888.2168,-137.8699 1891.0444,-127 1891.7452,-124.306 1892.5173,-121.512 1893.3176,-118.7256"/>
<polygon fill="#000000" stroke="#000000" points="1896.7556,-119.4442 1896.2625,-108.8608 1890.0481,-117.4417 1896.7556,-119.4442"/>
<text text-anchor="middle" x="1919.0444" y="-130.8" font-family="Times,serif" font-size="14.00" fill="#000000">relation</text>
</g>
<!-- anatomical entity to anatomical entity association_subject -->
<g id="node20" class="node">
<title>anatomical entity to anatomical entity association_subject</title>
<ellipse fill="none" stroke="#0000ff" cx="1662.0444" cy="-265" rx="92.0841" ry="18"/>
<text text-anchor="middle" x="1662.0444" y="-261.3" font-family="Times,serif" font-size="14.00" fill="#000000">anatomical entity</text>
</g>
<!-- object&#45;&gt;relation -->
<g id="edge20" class="edge">
<title>object&#45;&gt;relation</title>
<path fill="none" stroke="#000000" stroke-dasharray="1,5" d="M1886.2729,-74.0688C1877.6439,-64.8053 1866.7907,-53.1542 1857.2166,-42.8761"/>
<polygon fill="#000000" stroke="#000000" points="1859.5797,-40.2779 1850.2026,-35.3463 1854.4576,-45.0491 1859.5797,-40.2779"/>
</g>
<!-- anatomical entity to anatomical entity association_object -->
<g id="node22" class="node">
<title>anatomical entity to anatomical entity association_object</title>
<ellipse fill="none" stroke="#0000ff" cx="1865.0444" cy="-265" rx="92.0841" ry="18"/>
<text text-anchor="middle" x="1865.0444" y="-261.3" font-family="Times,serif" font-size="14.00" fill="#000000">anatomical entity</text>
</g>
</g>
</svg>
