<?xml version="1.0" encoding="UTF-8" standalone="no"?>
<!DOCTYPE svg PUBLIC "-//W3C//DTD SVG 1.1//EN"
 "http://www.w3.org/Graphics/SVG/1.1/DTD/svg11.dtd">
<!-- Generated by graphviz version 2.43.0 (0)
 -->
<!-- Title: %3 Pages: 1 -->
<svg width="3300pt" height="291pt"
 viewBox="0.00 0.00 3300.02 291.00" xmlns="http://www.w3.org/2000/svg" xmlns:xlink="http://www.w3.org/1999/xlink">
<g id="graph0" class="graph" transform="scale(1 1) rotate(0) translate(4 287)">
<title>%3</title>
<polygon fill="white" stroke="transparent" points="-4,4 -4,-287 3296.02,-287 3296.02,4 -4,4"/>
<!-- anatomical entity to anatomical entity part of association -->
<g id="node1" class="node">
<title>anatomical entity to anatomical entity part of association</title>
<ellipse fill="none" stroke="black" cx="1604.43" cy="-265" rx="276.45" ry="18"/>
<text text-anchor="middle" x="1604.43" y="-261.3" font-family="Times,serif" font-size="14.00">anatomical entity to anatomical entity part of association</text>
</g>
<!-- anatomical entity to anatomical entity association -->
<g id="node2" class="node">
<title>anatomical entity to anatomical entity association</title>
<ellipse fill="none" stroke="black" cx="242.43" cy="-178" rx="242.36" ry="18"/>
<text text-anchor="middle" x="242.43" y="-174.3" font-family="Times,serif" font-size="14.00">anatomical entity to anatomical entity association</text>
</g>
<!-- anatomical entity to anatomical entity part of association&#45;&gt;anatomical entity to anatomical entity association -->
<g id="edge1" class="edge">
<title>anatomical entity to anatomical entity part of association&#45;&gt;anatomical entity to anatomical entity association</title>
<path fill="none" stroke="black" d="M1334.46,-261.13C1137.85,-257.39 865.28,-248.78 626.43,-229 533.29,-221.29 428.08,-207.21 351.37,-195.95"/>
<polygon fill="black" stroke="black" points="351.61,-192.45 341.21,-194.45 350.59,-199.37 351.61,-192.45"/>
<text text-anchor="middle" x="640.43" y="-217.8" font-family="Times,serif" font-size="14.00">is_a</text>
</g>
<!-- id -->
<g id="node3" class="node">
<title>id</title>
<ellipse fill="none" stroke="blue" cx="541.43" cy="-178" rx="38.19" ry="18"/>
<text text-anchor="middle" x="541.43" y="-174.3" font-family="Times,serif" font-size="14.00">string</text>
</g>
<!-- anatomical entity to anatomical entity part of association&#45;&gt;id -->
<g id="edge2" class="edge">
<title>anatomical entity to anatomical entity part of association&#45;&gt;id</title>
<path fill="none" stroke="blue" d="M1347.35,-258.38C1136.76,-252.87 855.86,-243.23 743.43,-229 673.98,-220.21 656.78,-215.06 589.43,-196 586.32,-195.12 583.13,-194.15 579.93,-193.12"/>
<polygon fill="blue" stroke="blue" points="581.02,-189.8 570.43,-189.95 578.8,-196.44 581.02,-189.8"/>
<text text-anchor="middle" x="750.43" y="-217.8" font-family="Times,serif" font-size="14.00">id</text>
</g>
<!-- iri -->
<g id="node4" class="node">
<title>iri</title>
<ellipse fill="none" stroke="blue" cx="642.43" cy="-178" rx="44.39" ry="18"/>
<text text-anchor="middle" x="642.43" y="-174.3" font-family="Times,serif" font-size="14.00">iri type</text>
</g>
<!-- anatomical entity to anatomical entity part of association&#45;&gt;iri -->
<g id="edge3" class="edge">
<title>anatomical entity to anatomical entity part of association&#45;&gt;iri</title>
<path fill="none" stroke="blue" d="M1352.92,-257.53C1167.95,-251.83 932.69,-242.34 836.43,-229 783.61,-221.68 724.48,-205.2 685.54,-193.15"/>
<polygon fill="blue" stroke="blue" points="686.2,-189.69 675.61,-190.04 684.1,-196.37 686.2,-189.69"/>
<text text-anchor="middle" x="844.43" y="-217.8" font-family="Times,serif" font-size="14.00">iri</text>
</g>
<!-- name -->
<g id="node5" class="node">
<title>name</title>
<ellipse fill="none" stroke="blue" cx="761.43" cy="-178" rx="56.59" ry="18"/>
<text text-anchor="middle" x="761.43" y="-174.3" font-family="Times,serif" font-size="14.00">label type</text>
</g>
<!-- anatomical entity to anatomical entity part of association&#45;&gt;name -->
<g id="edge4" class="edge">
<title>anatomical entity to anatomical entity part of association&#45;&gt;name</title>
<path fill="none" stroke="blue" d="M1347.49,-258.33C1185.38,-253.35 991.77,-244.4 910.43,-229 873.33,-221.98 832.81,-207.94 803.4,-196.52"/>
<polygon fill="blue" stroke="blue" points="804.47,-193.18 793.88,-192.77 801.9,-199.69 804.47,-193.18"/>
<text text-anchor="middle" x="930.43" y="-217.8" font-family="Times,serif" font-size="14.00">name</text>
</g>
<!-- description -->
<g id="node6" class="node">
<title>description</title>
<ellipse fill="none" stroke="blue" cx="911.43" cy="-178" rx="75.29" ry="18"/>
<text text-anchor="middle" x="911.43" y="-174.3" font-family="Times,serif" font-size="14.00">narrative text</text>
</g>
<!-- anatomical entity to anatomical entity part of association&#45;&gt;description -->
<g id="edge5" class="edge">
<title>anatomical entity to anatomical entity part of association&#45;&gt;description</title>
<path fill="none" stroke="blue" d="M1358.22,-256.79C1199.48,-251 1016.21,-241.72 980.43,-229 964.35,-223.28 948.74,-212.56 936.46,-202.51"/>
<polygon fill="blue" stroke="blue" points="938.39,-199.56 928.52,-195.73 933.85,-204.88 938.39,-199.56"/>
<text text-anchor="middle" x="1020.93" y="-217.8" font-family="Times,serif" font-size="14.00">description</text>
</g>
<!-- source -->
<g id="node7" class="node">
<title>source</title>
<ellipse fill="none" stroke="blue" cx="1043.43" cy="-178" rx="38.19" ry="18"/>
<text text-anchor="middle" x="1043.43" y="-174.3" font-family="Times,serif" font-size="14.00">string</text>
</g>
<!-- anatomical entity to anatomical entity part of association&#45;&gt;source -->
<g id="edge6" class="edge">
<title>anatomical entity to anatomical entity part of association&#45;&gt;source</title>
<path fill="none" stroke="blue" d="M1358.88,-256.71C1235.53,-251.4 1106.84,-242.68 1081.43,-229 1071.24,-223.52 1062.97,-213.99 1056.78,-204.71"/>
<polygon fill="blue" stroke="blue" points="1059.68,-202.75 1051.49,-196.04 1053.71,-206.4 1059.68,-202.75"/>
<text text-anchor="middle" x="1105.43" y="-217.8" font-family="Times,serif" font-size="14.00">source</text>
</g>
<!-- has attribute -->
<g id="node8" class="node">
<title>has attribute</title>
<ellipse fill="none" stroke="blue" cx="1151.43" cy="-178" rx="51.99" ry="18"/>
<text text-anchor="middle" x="1151.43" y="-174.3" font-family="Times,serif" font-size="14.00">attribute</text>
</g>
<!-- anatomical entity to anatomical entity part of association&#45;&gt;has attribute -->
<g id="edge7" class="edge">
<title>anatomical entity to anatomical entity part of association&#45;&gt;has attribute</title>
<path fill="none" stroke="blue" d="M1343.06,-259.12C1244.85,-254.53 1152.96,-245.74 1137.43,-229 1131.37,-222.47 1132.07,-213.53 1135.22,-205.02"/>
<polygon fill="blue" stroke="blue" points="1138.5,-206.27 1139.59,-195.74 1132.17,-203.3 1138.5,-206.27"/>
<text text-anchor="middle" x="1184.43" y="-217.8" font-family="Times,serif" font-size="14.00">has attribute</text>
</g>
<!-- relation -->
<g id="node9" class="node">
<title>relation</title>
<ellipse fill="none" stroke="blue" cx="2994.43" cy="-18" rx="38.19" ry="18"/>
<text text-anchor="middle" x="2994.43" y="-14.3" font-family="Times,serif" font-size="14.00">string</text>
</g>
<!-- anatomical entity to anatomical entity part of association&#45;&gt;relation -->
<g id="edge8" class="edge">
<title>anatomical entity to anatomical entity part of association&#45;&gt;relation</title>
<path fill="none" stroke="blue" d="M1370.26,-255.42C1274.72,-243.54 1197.66,-217.21 1250.43,-160 1368.56,-31.93 2675.78,-20.16 2945.8,-19.1"/>
<polygon fill="blue" stroke="blue" points="2946.08,-22.6 2956.06,-19.07 2946.05,-15.6 2946.08,-22.6"/>
<text text-anchor="middle" x="1334.43" y="-130.8" font-family="Times,serif" font-size="14.00">relation</text>
</g>
<!-- negated -->
<g id="node10" class="node">
<title>negated</title>
<ellipse fill="none" stroke="blue" cx="1306.43" cy="-178" rx="46.59" ry="18"/>
<text text-anchor="middle" x="1306.43" y="-174.3" font-family="Times,serif" font-size="14.00">boolean</text>
</g>
<!-- anatomical entity to anatomical entity part of association&#45;&gt;negated -->
<g id="edge9" class="edge">
<title>anatomical entity to anatomical entity part of association&#45;&gt;negated</title>
<path fill="none" stroke="blue" d="M1520.99,-247.74C1496.48,-242.4 1469.73,-236.01 1445.43,-229 1411.85,-219.31 1374.64,-205.77 1347.17,-195.22"/>
<polygon fill="blue" stroke="blue" points="1348.11,-191.83 1337.52,-191.48 1345.58,-198.36 1348.11,-191.83"/>
<text text-anchor="middle" x="1474.43" y="-217.8" font-family="Times,serif" font-size="14.00">negated</text>
</g>
<!-- qualifiers -->
<g id="node11" class="node">
<title>qualifiers</title>
<ellipse fill="none" stroke="blue" cx="1447.43" cy="-178" rx="76.89" ry="18"/>
<text text-anchor="middle" x="1447.43" y="-174.3" font-family="Times,serif" font-size="14.00">ontology class</text>
</g>
<!-- anatomical entity to anatomical entity part of association&#45;&gt;qualifiers -->
<g id="edge10" class="edge">
<title>anatomical entity to anatomical entity part of association&#45;&gt;qualifiers</title>
<path fill="none" stroke="blue" d="M1568.79,-247.03C1557.41,-241.45 1544.81,-235.11 1533.43,-229 1516.51,-219.92 1498.06,-209.3 1482.61,-200.19"/>
<polygon fill="blue" stroke="blue" points="1484.28,-197.11 1473.89,-195.02 1480.71,-203.13 1484.28,-197.11"/>
<text text-anchor="middle" x="1566.93" y="-217.8" font-family="Times,serif" font-size="14.00">qualifiers</text>
</g>
<!-- publications -->
<g id="node12" class="node">
<title>publications</title>
<ellipse fill="none" stroke="blue" cx="1604.43" cy="-178" rx="62.29" ry="18"/>
<text text-anchor="middle" x="1604.43" y="-174.3" font-family="Times,serif" font-size="14.00">publication</text>
</g>
<!-- anatomical entity to anatomical entity part of association&#45;&gt;publications -->
<g id="edge11" class="edge">
<title>anatomical entity to anatomical entity part of association&#45;&gt;publications</title>
<path fill="none" stroke="blue" d="M1604.43,-246.8C1604.43,-235.16 1604.43,-219.55 1604.43,-206.24"/>
<polygon fill="blue" stroke="blue" points="1607.93,-206.18 1604.43,-196.18 1600.93,-206.18 1607.93,-206.18"/>
<text text-anchor="middle" x="1648.43" y="-217.8" font-family="Times,serif" font-size="14.00">publications</text>
</g>
<!-- has evidence -->
<g id="node13" class="node">
<title>has evidence</title>
<ellipse fill="none" stroke="blue" cx="1760.43" cy="-178" rx="75.29" ry="18"/>
<text text-anchor="middle" x="1760.43" y="-174.3" font-family="Times,serif" font-size="14.00">evidence type</text>
</g>
<!-- anatomical entity to anatomical entity part of association&#45;&gt;has evidence -->
<g id="edge12" class="edge">
<title>anatomical entity to anatomical entity part of association&#45;&gt;has evidence</title>
<path fill="none" stroke="blue" d="M1656.76,-247.2C1670.06,-242.09 1684.07,-235.97 1696.43,-229 1709.77,-221.48 1723.31,-211.34 1734.49,-202.15"/>
<polygon fill="blue" stroke="blue" points="1736.77,-204.8 1742.16,-195.69 1732.26,-199.45 1736.77,-204.8"/>
<text text-anchor="middle" x="1765.93" y="-217.8" font-family="Times,serif" font-size="14.00">has evidence</text>
</g>
<!-- knowledge source -->
<g id="node14" class="node">
<title>knowledge source</title>
<ellipse fill="none" stroke="blue" cx="1962.43" cy="-178" rx="108.58" ry="18"/>
<text text-anchor="middle" x="1962.43" y="-174.3" font-family="Times,serif" font-size="14.00">information resource</text>
</g>
<!-- anatomical entity to anatomical entity part of association&#45;&gt;knowledge source -->
<g id="edge13" class="edge">
<title>anatomical entity to anatomical entity part of association&#45;&gt;knowledge source</title>
<path fill="none" stroke="blue" d="M1719.3,-248.61C1750.99,-243.4 1785.23,-236.86 1816.43,-229 1849.08,-220.77 1884.86,-208.57 1912.83,-198.28"/>
<polygon fill="blue" stroke="blue" points="1914.23,-201.5 1922.38,-194.73 1911.79,-194.94 1914.23,-201.5"/>
<text text-anchor="middle" x="1929.93" y="-217.8" font-family="Times,serif" font-size="14.00">knowledge source</text>
</g>
<!-- original knowledge source -->
<g id="node15" class="node">
<title>original knowledge source</title>
<ellipse fill="none" stroke="blue" cx="2197.43" cy="-178" rx="108.58" ry="18"/>
<text text-anchor="middle" x="2197.43" y="-174.3" font-family="Times,serif" font-size="14.00">information resource</text>
</g>
<!-- anatomical entity to anatomical entity part of association&#45;&gt;original knowledge source -->
<g id="edge14" class="edge">
<title>anatomical entity to anatomical entity part of association&#45;&gt;original knowledge source</title>
<path fill="none" stroke="blue" d="M1803.12,-252.48C1865.87,-247.21 1935.29,-239.67 1998.43,-229 2045.7,-221.01 2098.28,-207.6 2137.51,-196.68"/>
<polygon fill="blue" stroke="blue" points="2138.5,-200.04 2147.18,-193.96 2136.61,-193.3 2138.5,-200.04"/>
<text text-anchor="middle" x="2164.43" y="-217.8" font-family="Times,serif" font-size="14.00">original knowledge source</text>
</g>
<!-- primary knowledge source -->
<g id="node16" class="node">
<title>primary knowledge source</title>
<ellipse fill="none" stroke="blue" cx="2432.43" cy="-178" rx="108.58" ry="18"/>
<text text-anchor="middle" x="2432.43" y="-174.3" font-family="Times,serif" font-size="14.00">information resource</text>
</g>
<!-- anatomical entity to anatomical entity part of association&#45;&gt;primary knowledge source -->
<g id="edge15" class="edge">
<title>anatomical entity to anatomical entity part of association&#45;&gt;primary knowledge source</title>
<path fill="none" stroke="blue" d="M1798.64,-252.17C1829.35,-250.38 1860.75,-248.6 1890.43,-247 2055.72,-238.09 2099.21,-256.55 2262.43,-229 2302.74,-222.2 2347.01,-208.98 2380.26,-197.85"/>
<polygon fill="blue" stroke="blue" points="2381.43,-201.15 2389.77,-194.62 2379.18,-194.52 2381.43,-201.15"/>
<text text-anchor="middle" x="2419.43" y="-217.8" font-family="Times,serif" font-size="14.00">primary knowledge source</text>
</g>
<!-- aggregator knowledge source -->
<g id="node17" class="node">
<title>aggregator knowledge source</title>
<ellipse fill="none" stroke="blue" cx="2667.43" cy="-178" rx="108.58" ry="18"/>
<text text-anchor="middle" x="2667.43" y="-174.3" font-family="Times,serif" font-size="14.00">information resource</text>
</g>
<!-- anatomical entity to anatomical entity part of association&#45;&gt;aggregator knowledge source -->
<g id="edge16" class="edge">
<title>anatomical entity to anatomical entity part of association&#45;&gt;aggregator knowledge source</title>
<path fill="none" stroke="blue" d="M1794.38,-251.89C1826.43,-250.08 1859.37,-248.37 1890.43,-247 2029.91,-240.86 2380.98,-253.47 2518.43,-229 2553.54,-222.75 2591.65,-209.84 2620.53,-198.71"/>
<polygon fill="blue" stroke="blue" points="2621.93,-201.92 2629.96,-195.02 2619.37,-195.41 2621.93,-201.92"/>
<text text-anchor="middle" x="2683.93" y="-217.8" font-family="Times,serif" font-size="14.00">aggregator knowledge source</text>
</g>
<!-- type -->
<g id="node18" class="node">
<title>type</title>
<ellipse fill="none" stroke="black" cx="2825.43" cy="-178" rx="31.4" ry="18"/>
<text text-anchor="middle" x="2825.43" y="-174.3" font-family="Times,serif" font-size="14.00">type</text>
</g>
<!-- anatomical entity to anatomical entity part of association&#45;&gt;type -->
<g id="edge17" class="edge">
<title>anatomical entity to anatomical entity part of association&#45;&gt;type</title>
<path fill="none" stroke="blue" d="M1792.06,-251.79C1824.84,-249.95 1858.62,-248.26 1890.43,-247 1940.62,-245.01 2750.78,-253.87 2794.43,-229 2803.65,-223.75 2810.49,-214.52 2815.37,-205.41"/>
<polygon fill="blue" stroke="blue" points="2818.64,-206.67 2819.75,-196.13 2812.32,-203.68 2818.64,-206.67"/>
<text text-anchor="middle" x="2825.43" y="-217.8" font-family="Times,serif" font-size="14.00">type</text>
</g>
<!-- category -->
<g id="node20" class="node">
<title>category</title>
<ellipse fill="none" stroke="black" cx="2926.43" cy="-178" rx="51.19" ry="18"/>
<text text-anchor="middle" x="2926.43" y="-174.3" font-family="Times,serif" font-size="14.00">category</text>
</g>
<!-- anatomical entity to anatomical entity part of association&#45;&gt;category -->
<g id="edge18" class="edge">
<title>anatomical entity to anatomical entity part of association&#45;&gt;category</title>
<path fill="none" stroke="blue" d="M1792.06,-251.76C1824.84,-249.93 1858.62,-248.24 1890.43,-247 1943.45,-244.93 2794.52,-243.97 2845.43,-229 2864.91,-223.27 2884.35,-211.52 2899.31,-200.85"/>
<polygon fill="blue" stroke="blue" points="2901.6,-203.51 2907.56,-194.75 2897.43,-197.88 2901.6,-203.51"/>
<text text-anchor="middle" x="2910.93" y="-217.8" font-family="Times,serif" font-size="14.00">category</text>
</g>
<!-- subject -->
<g id="node22" class="node">
<title>subject</title>
<ellipse fill="none" stroke="black" cx="3040.43" cy="-178" rx="44.39" ry="18"/>
<text text-anchor="middle" x="3040.43" y="-174.3" font-family="Times,serif" font-size="14.00">subject</text>
</g>
<!-- anatomical entity to anatomical entity part of association&#45;&gt;subject -->
<g id="edge19" class="edge">
<title>anatomical entity to anatomical entity part of association&#45;&gt;subject</title>
<path fill="none" stroke="blue" d="M1791.68,-251.73C1824.57,-249.9 1858.49,-248.22 1890.43,-247 1949.06,-244.76 2889.62,-243.68 2946.43,-229 2969.29,-223.09 2992.74,-210.63 3010.5,-199.63"/>
<polygon fill="blue" stroke="blue" points="3012.69,-202.38 3019.23,-194.05 3008.92,-196.48 3012.69,-202.38"/>
<text text-anchor="middle" x="3010.43" y="-217.8" font-family="Times,serif" font-size="14.00">subject</text>
</g>
<!-- object -->
<g id="node24" class="node">
<title>object</title>
<ellipse fill="none" stroke="black" cx="3061.43" cy="-91" rx="38.99" ry="18"/>
<text text-anchor="middle" x="3061.43" y="-87.3" font-family="Times,serif" font-size="14.00">object</text>
</g>
<!-- anatomical entity to anatomical entity part of association&#45;&gt;object -->
<g id="edge20" class="edge">
<title>anatomical entity to anatomical entity part of association&#45;&gt;object</title>
<path fill="none" stroke="blue" d="M1791.29,-251.71C1824.31,-249.88 1858.37,-248.2 1890.43,-247 1954.28,-244.6 2979.13,-247.04 3040.43,-229 3067.05,-221.16 3077.19,-218.5 3093.43,-196 3107.87,-175.98 3103.52,-166.51 3106.43,-142 3107.21,-135.38 3109.36,-132.99 3106.43,-127 3103.57,-121.17 3099.23,-116.02 3094.34,-111.6"/>
<polygon fill="blue" stroke="blue" points="3096.35,-108.73 3086.35,-105.25 3092,-114.21 3096.35,-108.73"/>
<text text-anchor="middle" x="3126.43" y="-174.3" font-family="Times,serif" font-size="14.00">object</text>
</g>
<!-- predicate -->
<g id="node26" class="node">
<title>predicate</title>
<ellipse fill="none" stroke="black" cx="3237.43" cy="-178" rx="54.69" ry="18"/>
<text text-anchor="middle" x="3237.43" y="-174.3" font-family="Times,serif" font-size="14.00">predicate</text>
</g>
<!-- anatomical entity to anatomical entity part of association&#45;&gt;predicate -->
<g id="edge21" class="edge">
<title>anatomical entity to anatomical entity part of association&#45;&gt;predicate</title>
<path fill="none" stroke="blue" d="M1790.91,-251.7C1824.04,-249.86 1858.24,-248.19 1890.43,-247 1959.5,-244.45 3067.18,-244.97 3134.43,-229 3159.3,-223.09 3185.19,-210.5 3204.78,-199.43"/>
<polygon fill="blue" stroke="blue" points="3206.7,-202.36 3213.59,-194.32 3203.18,-196.31 3206.7,-202.36"/>
<text text-anchor="middle" x="3209.43" y="-217.8" font-family="Times,serif" font-size="14.00">predicate</text>
</g>
<!-- association_type -->
<g id="node19" class="node">
<title>association_type</title>
<ellipse fill="none" stroke="blue" cx="1937.43" cy="-265" rx="38.19" ry="18"/>
<text text-anchor="middle" x="1937.43" y="-261.3" font-family="Times,serif" font-size="14.00">string</text>
</g>
<!-- association_category -->
<g id="node21" class="node">
<title>association_category</title>
<ellipse fill="none" stroke="blue" cx="2068.43" cy="-265" rx="74.99" ry="18"/>
<text text-anchor="middle" x="2068.43" y="-261.3" font-family="Times,serif" font-size="14.00">category type</text>
</g>
<!-- subject&#45;&gt;relation -->
<g id="edge23" class="edge">
<title>subject&#45;&gt;relation</title>
<path fill="none" stroke="black" stroke-dasharray="1,5" d="M3032.85,-160.24C3026.92,-146.64 3018.82,-126.88 3013.43,-109 3007.17,-88.27 3002.21,-64.24 2998.93,-46.23"/>
<polygon fill="black" stroke="black" points="3002.33,-45.38 2997.15,-36.14 2995.44,-46.59 3002.33,-45.38"/>
</g>
<!-- subject&#45;&gt;object -->
<g id="edge22" class="edge">
<title>subject&#45;&gt;object</title>
<path fill="none" stroke="black" d="M3043.4,-159.77C3045.19,-150.09 3047.66,-137.8 3050.43,-127 3051.12,-124.32 3051.89,-121.53 3052.7,-118.76"/>
<polygon fill="black" stroke="black" points="3056.11,-119.57 3055.69,-108.98 3049.42,-117.52 3056.11,-119.57"/>
<text text-anchor="middle" x="3078.43" y="-130.8" font-family="Times,serif" font-size="14.00">relation</text>
</g>
<!-- anatomical entity to anatomical entity part of association_subject -->
<g id="node23" class="node">
<title>anatomical entity to anatomical entity part of association_subject</title>
<ellipse fill="none" stroke="blue" cx="2252.43" cy="-265" rx="91.78" ry="18"/>
<text text-anchor="middle" x="2252.43" y="-261.3" font-family="Times,serif" font-size="14.00">anatomical entity</text>
</g>
<!-- object&#45;&gt;relation -->
<g id="edge24" class="edge">
<title>object&#45;&gt;relation</title>
<path fill="none" stroke="black" stroke-dasharray="1,5" d="M3046.56,-74.24C3037.62,-64.77 3026.1,-52.56 3016.16,-42.02"/>
<polygon fill="black" stroke="black" points="3018.67,-39.58 3009.26,-34.71 3013.57,-44.39 3018.67,-39.58"/>
</g>
<!-- anatomical entity to anatomical entity part of association_object -->
<g id="node25" class="node">
<title>anatomical entity to anatomical entity part of association_object</title>
<ellipse fill="none" stroke="blue" cx="2453.43" cy="-265" rx="91.78" ry="18"/>
<text text-anchor="middle" x="2453.43" y="-261.3" font-family="Times,serif" font-size="14.00">anatomical entity</text>
</g>
<!-- anatomical entity to anatomical entity part of association_predicate -->
<g id="node27" class="node">
<title>anatomical entity to anatomical entity part of association_predicate</title>
<ellipse fill="none" stroke="blue" cx="2641.43" cy="-265" rx="77.99" ry="18"/>
<text text-anchor="middle" x="2641.43" y="-261.3" font-family="Times,serif" font-size="14.00">predicate type</text>
</g>
</g>
</svg>
