<?xml version="1.0" encoding="UTF-8" standalone="no"?>
<!DOCTYPE svg PUBLIC "-//W3C//DTD SVG 1.1//EN"
 "http://www.w3.org/Graphics/SVG/1.1/DTD/svg11.dtd">
<!-- Generated by graphviz version 2.40.1 (20161225.0304)
 -->
<!-- Title: %3 Pages: 1 -->
<svg width="938pt" height="131pt"
 viewBox="0.00 0.00 938.44 131.00" xmlns="http://www.w3.org/2000/svg" xmlns:xlink="http://www.w3.org/1999/xlink">
<g id="graph0" class="graph" transform="scale(1 1) rotate(0) translate(4 127)">
<title>%3</title>
<polygon fill="#ffffff" stroke="transparent" points="-4,4 -4,-127 934.4377,-127 934.4377,4 -4,4"/>
<!-- anatomical entity -->
<g id="node1" class="node">
<title>anatomical entity</title>
<ellipse fill="none" stroke="#000000" cx="506.7935" cy="-105" rx="72.2875" ry="18"/>
<text text-anchor="middle" x="506.7935" y="-101.3" font-family="Times,serif" font-size="14.00" fill="#000000">anatomical entity</text>
</g>
<!-- organismal entity -->
<g id="node2" class="node">
<title>organismal entity</title>
<ellipse fill="none" stroke="#000000" cx="72.7935" cy="-18" rx="72.5877" ry="18"/>
<text text-anchor="middle" x="72.7935" y="-14.3" font-family="Times,serif" font-size="14.00" fill="#000000">organismal entity</text>
</g>
<!-- anatomical entity&#45;&gt;organismal entity -->
<g id="edge1" class="edge">
<title>anatomical entity&#45;&gt;organismal entity</title>
<path fill="none" stroke="#000000" d="M449.0946,-94.1027C379.3036,-80.8262 258.2941,-57.5012 154.7935,-36 149.0341,-34.8035 143.0526,-33.5369 137.0621,-32.2521"/>
<polygon fill="#000000" stroke="#000000" points="137.5233,-28.7711 127.0099,-30.0816 136.0459,-35.6134 137.5233,-28.7711"/>
<text text-anchor="middle" x="329.7935" y="-57.8" font-family="Times,serif" font-size="14.00" fill="#000000">is_a</text>
</g>
<!-- thing with taxon -->
<g id="node3" class="node">
<title>thing with taxon</title>
<ellipse fill="none" stroke="#000000" cx="232.7935" cy="-18" rx="68.7879" ry="18"/>
<text text-anchor="middle" x="232.7935" y="-14.3" font-family="Times,serif" font-size="14.00" fill="#000000">thing with taxon</text>
</g>
<!-- anatomical entity&#45;&gt;thing with taxon -->
<g id="edge2" class="edge">
<title>anatomical entity&#45;&gt;thing with taxon</title>
<path fill="none" stroke="#000000" d="M462.1609,-90.8283C414.1514,-75.5844 337.8149,-51.3462 286.5403,-35.0656"/>
<polygon fill="#000000" stroke="#000000" points="287.5434,-31.7119 276.9531,-32.0215 285.4249,-38.3837 287.5434,-31.7119"/>
<text text-anchor="middle" x="398.7935" y="-57.8" font-family="Times,serif" font-size="14.00" fill="#000000">uses</text>
</g>
<!-- physical essence -->
<g id="node4" class="node">
<title>physical essence</title>
<ellipse fill="none" stroke="#000000" cx="388.7935" cy="-18" rx="69.5877" ry="18"/>
<text text-anchor="middle" x="388.7935" y="-14.3" font-family="Times,serif" font-size="14.00" fill="#000000">physical essence</text>
</g>
<!-- anatomical entity&#45;&gt;physical essence -->
<g id="edge3" class="edge">
<title>anatomical entity&#45;&gt;physical essence</title>
<path fill="none" stroke="#000000" d="M483.4805,-87.8116C465.3794,-74.4658 440.0997,-55.8275 420.2138,-41.1658"/>
<polygon fill="#000000" stroke="#000000" points="422.184,-38.2699 412.0581,-35.1527 418.03,-43.9042 422.184,-38.2699"/>
<text text-anchor="middle" x="467.7935" y="-57.8" font-family="Times,serif" font-size="14.00" fill="#000000">uses</text>
</g>
<!-- id -->
<g id="node5" class="node">
<title>id</title>
<ellipse fill="none" stroke="#0000ff" cx="506.7935" cy="-18" rx="30.5947" ry="18"/>
<text text-anchor="middle" x="506.7935" y="-14.3" font-family="Times,serif" font-size="14.00" fill="#000000">string</text>
</g>
<!-- anatomical entity&#45;&gt;id -->
<g id="edge4" class="edge">
<title>anatomical entity&#45;&gt;id</title>
<path fill="none" stroke="#0000ff" d="M506.7935,-86.9735C506.7935,-75.1918 506.7935,-59.5607 506.7935,-46.1581"/>
<polygon fill="#0000ff" stroke="#0000ff" points="510.2936,-46.0033 506.7935,-36.0034 503.2936,-46.0034 510.2936,-46.0033"/>
<text text-anchor="middle" x="512.2935" y="-57.8" font-family="Times,serif" font-size="14.00" fill="#000000">id</text>
</g>
<!-- name -->
<g id="node6" class="node">
<title>name</title>
<ellipse fill="none" stroke="#0000ff" cx="600.7935" cy="-18" rx="45.4919" ry="18"/>
<text text-anchor="middle" x="600.7935" y="-14.3" font-family="Times,serif" font-size="14.00" fill="#000000">label type</text>
</g>
<!-- anatomical entity&#45;&gt;name -->
<g id="edge5" class="edge">
<title>anatomical entity&#45;&gt;name</title>
<path fill="none" stroke="#0000ff" d="M525.8158,-87.3943C539.9777,-74.287 559.4679,-56.2482 575.0272,-41.8476"/>
<polygon fill="#0000ff" stroke="#0000ff" points="577.7946,-44.0553 582.7563,-34.694 573.0398,-38.9179 577.7946,-44.0553"/>
<text text-anchor="middle" x="575.2935" y="-57.8" font-family="Times,serif" font-size="14.00" fill="#000000">name</text>
</g>
<!-- category -->
<g id="node7" class="node">
<title>category</title>
<ellipse fill="none" stroke="#0000ff" cx="722.7935" cy="-18" rx="58.4896" ry="18"/>
<text text-anchor="middle" x="722.7935" y="-14.3" font-family="Times,serif" font-size="14.00" fill="#000000">category type</text>
</g>
<!-- anatomical entity&#45;&gt;category -->
<g id="edge6" class="edge">
<title>anatomical entity&#45;&gt;category</title>
<path fill="none" stroke="#0000ff" d="M544.9128,-89.6464C581.9806,-74.7163 638.2955,-52.0339 677.6007,-36.2027"/>
<polygon fill="#0000ff" stroke="#0000ff" points="679.2368,-39.317 687.205,-32.3343 676.6214,-32.8239 679.2368,-39.317"/>
<text text-anchor="middle" x="651.2935" y="-57.8" font-family="Times,serif" font-size="14.00" fill="#000000">category</text>
</g>
<!-- in taxon -->
<g id="node8" class="node">
<title>in taxon</title>
<ellipse fill="none" stroke="#0000ff" cx="864.7935" cy="-18" rx="65.7887" ry="18"/>
<text text-anchor="middle" x="864.7935" y="-14.3" font-family="Times,serif" font-size="14.00" fill="#000000">organism taxon</text>
</g>
<!-- anatomical entity&#45;&gt;in taxon -->
<g id="edge7" class="edge">
<title>anatomical entity&#45;&gt;in taxon</title>
<path fill="none" stroke="#0000ff" d="M563.9319,-93.9541C597.4984,-87.2377 640.6861,-78.2032 678.7935,-69 723.1221,-58.2943 772.929,-44.5448 809.8384,-34.0203"/>
<polygon fill="#0000ff" stroke="#0000ff" points="811.2408,-37.2595 819.8915,-31.1426 809.3144,-30.5298 811.2408,-37.2595"/>
<text text-anchor="middle" x="758.2935" y="-57.8" font-family="Times,serif" font-size="14.00" fill="#000000">in taxon</text>
</g>
</g>
</svg>
