<?xml version="1.0" encoding="UTF-8" standalone="no"?>
<!DOCTYPE svg PUBLIC "-//W3C//DTD SVG 1.1//EN"
 "http://www.w3.org/Graphics/SVG/1.1/DTD/svg11.dtd">
<!-- Generated by graphviz version 2.43.0 (0)
 -->
<!-- Title: %3 Pages: 1 -->
<svg width="2730pt" height="131pt"
 viewBox="0.00 0.00 2729.74 131.00" xmlns="http://www.w3.org/2000/svg" xmlns:xlink="http://www.w3.org/1999/xlink">
<g id="graph0" class="graph" transform="scale(1 1) rotate(0) translate(4 127)">
<title>%3</title>
<polygon fill="white" stroke="transparent" points="-4,4 -4,-127 2725.74,-127 2725.74,4 -4,4"/>
<!-- article -->
<g id="node1" class="node">
<title>article</title>
<ellipse fill="none" stroke="black" cx="1308.39" cy="-105" rx="40.09" ry="18"/>
<text text-anchor="middle" x="1308.39" y="-101.3" font-family="Times,serif" font-size="14.00">article</text>
</g>
<!-- publication -->
<g id="node2" class="node">
<title>publication</title>
<ellipse fill="none" stroke="black" cx="62.39" cy="-18" rx="62.29" ry="18"/>
<text text-anchor="middle" x="62.39" y="-14.3" font-family="Times,serif" font-size="14.00">publication</text>
</g>
<!-- article&#45;&gt;publication -->
<g id="edge1" class="edge">
<title>article&#45;&gt;publication</title>
<path fill="none" stroke="black" d="M1267.95,-103.79C1100.62,-102.74 461.9,-96.96 262.39,-69 210.6,-61.74 152.78,-46.48 112.68,-34.72"/>
<polygon fill="black" stroke="black" points="113.46,-31.3 102.88,-31.81 111.47,-38.01 113.46,-31.3"/>
<text text-anchor="middle" x="276.39" y="-57.8" font-family="Times,serif" font-size="14.00">is_a</text>
</g>
<!-- iri -->
<g id="node3" class="node">
<title>iri</title>
<ellipse fill="none" stroke="blue" cx="187.39" cy="-18" rx="44.39" ry="18"/>
<text text-anchor="middle" x="187.39" y="-14.3" font-family="Times,serif" font-size="14.00">iri type</text>
</g>
<!-- article&#45;&gt;iri -->
<g id="edge2" class="edge">
<title>article&#45;&gt;iri</title>
<path fill="none" stroke="blue" d="M1268.14,-103.74C1111.3,-102.53 541.1,-96.3 362.39,-69 315.77,-61.88 264.02,-46.06 228.98,-34.11"/>
<polygon fill="blue" stroke="blue" points="229.7,-30.66 219.11,-30.7 227.41,-37.28 229.7,-30.66"/>
<text text-anchor="middle" x="370.39" y="-57.8" font-family="Times,serif" font-size="14.00">iri</text>
</g>
<!-- type -->
<g id="node4" class="node">
<title>type</title>
<ellipse fill="none" stroke="blue" cx="288.39" cy="-18" rx="38.19" ry="18"/>
<text text-anchor="middle" x="288.39" y="-14.3" font-family="Times,serif" font-size="14.00">string</text>
</g>
<!-- article&#45;&gt;type -->
<g id="edge3" class="edge">
<title>article&#45;&gt;type</title>
<path fill="none" stroke="blue" d="M1267.96,-103.78C1119.31,-102.76 603.35,-97.21 441.39,-69 400.65,-61.9 355.89,-46.3 325.37,-34.4"/>
<polygon fill="blue" stroke="blue" points="326.56,-31.11 315.98,-30.68 323.99,-37.62 326.56,-31.11"/>
<text text-anchor="middle" x="457.39" y="-57.8" font-family="Times,serif" font-size="14.00">type</text>
</g>
<!-- description -->
<g id="node5" class="node">
<title>description</title>
<ellipse fill="none" stroke="blue" cx="420.39" cy="-18" rx="75.29" ry="18"/>
<text text-anchor="middle" x="420.39" y="-14.3" font-family="Times,serif" font-size="14.00">narrative text</text>
</g>
<!-- article&#45;&gt;description -->
<g id="edge4" class="edge">
<title>article&#45;&gt;description</title>
<path fill="none" stroke="blue" d="M1268.05,-103.25C1116.79,-100.31 588.22,-88.71 515.39,-69 493.33,-63.03 470.61,-51.31 452.92,-40.71"/>
<polygon fill="blue" stroke="blue" points="454.51,-37.58 444.16,-35.31 450.83,-43.54 454.51,-37.58"/>
<text text-anchor="middle" x="555.89" y="-57.8" font-family="Times,serif" font-size="14.00">description</text>
</g>
<!-- has attribute -->
<g id="node6" class="node">
<title>has attribute</title>
<ellipse fill="none" stroke="blue" cx="565.39" cy="-18" rx="51.99" ry="18"/>
<text text-anchor="middle" x="565.39" y="-14.3" font-family="Times,serif" font-size="14.00">attribute</text>
</g>
<!-- article&#45;&gt;has attribute -->
<g id="edge5" class="edge">
<title>article&#45;&gt;has attribute</title>
<path fill="none" stroke="blue" d="M1268.23,-103.48C1130.45,-101.5 682.13,-93.24 622.39,-69 608.59,-63.4 595.86,-52.98 585.94,-43.1"/>
<polygon fill="blue" stroke="blue" points="588.36,-40.57 578.93,-35.73 583.29,-45.39 588.36,-40.57"/>
<text text-anchor="middle" x="669.39" y="-57.8" font-family="Times,serif" font-size="14.00">has attribute</text>
</g>
<!-- provided by -->
<g id="node7" class="node">
<title>provided by</title>
<ellipse fill="none" stroke="blue" cx="673.39" cy="-18" rx="38.19" ry="18"/>
<text text-anchor="middle" x="673.39" y="-14.3" font-family="Times,serif" font-size="14.00">string</text>
</g>
<!-- article&#45;&gt;provided by -->
<g id="edge6" class="edge">
<title>article&#45;&gt;provided by</title>
<path fill="none" stroke="blue" d="M1268.13,-104.15C1156.62,-104.14 845.66,-101.14 749.39,-69 731.03,-62.87 712.83,-51.15 698.85,-40.6"/>
<polygon fill="blue" stroke="blue" points="700.75,-37.64 690.72,-34.24 696.44,-43.16 700.75,-37.64"/>
<text text-anchor="middle" x="791.89" y="-57.8" font-family="Times,serif" font-size="14.00">provided by</text>
</g>
<!-- category -->
<g id="node8" class="node">
<title>category</title>
<ellipse fill="none" stroke="black" cx="781.39" cy="-18" rx="51.19" ry="18"/>
<text text-anchor="middle" x="781.39" y="-14.3" font-family="Times,serif" font-size="14.00">category</text>
</g>
<!-- article&#45;&gt;category -->
<g id="edge7" class="edge">
<title>article&#45;&gt;category</title>
<path fill="none" stroke="blue" d="M1268.09,-102.95C1174.52,-100.17 944.98,-91.24 871.39,-69 850.32,-62.63 828.68,-50.81 811.91,-40.27"/>
<polygon fill="blue" stroke="blue" points="813.42,-37.08 803.13,-34.58 809.62,-42.95 813.42,-37.08"/>
<text text-anchor="middle" x="902.89" y="-57.8" font-family="Times,serif" font-size="14.00">category</text>
</g>
<!-- license -->
<g id="node10" class="node">
<title>license</title>
<ellipse fill="none" stroke="blue" cx="889.39" cy="-18" rx="38.19" ry="18"/>
<text text-anchor="middle" x="889.39" y="-14.3" font-family="Times,serif" font-size="14.00">string</text>
</g>
<!-- article&#45;&gt;license -->
<g id="edge8" class="edge">
<title>article&#45;&gt;license</title>
<path fill="none" stroke="blue" d="M1268.4,-102.18C1190.86,-98.28 1022.92,-87.89 968.39,-69 949.42,-62.43 930.33,-50.53 915.68,-39.99"/>
<polygon fill="blue" stroke="blue" points="917.71,-37.14 907.59,-33.99 913.54,-42.76 917.71,-37.14"/>
<text text-anchor="middle" x="993.39" y="-57.8" font-family="Times,serif" font-size="14.00">license</text>
</g>
<!-- rights -->
<g id="node11" class="node">
<title>rights</title>
<ellipse fill="none" stroke="blue" cx="984.39" cy="-18" rx="38.19" ry="18"/>
<text text-anchor="middle" x="984.39" y="-14.3" font-family="Times,serif" font-size="14.00">string</text>
</g>
<!-- article&#45;&gt;rights -->
<g id="edge9" class="edge">
<title>article&#45;&gt;rights</title>
<path fill="none" stroke="blue" d="M1268.72,-101.39C1205.4,-96.77 1084.64,-86.03 1045.39,-69 1030.84,-62.68 1016.96,-51.84 1006.13,-41.86"/>
<polygon fill="blue" stroke="blue" points="1008.45,-39.24 998.82,-34.83 1003.6,-44.28 1008.45,-39.24"/>
<text text-anchor="middle" x="1066.89" y="-57.8" font-family="Times,serif" font-size="14.00">rights</text>
</g>
<!-- format -->
<g id="node12" class="node">
<title>format</title>
<ellipse fill="none" stroke="blue" cx="1079.39" cy="-18" rx="38.19" ry="18"/>
<text text-anchor="middle" x="1079.39" y="-14.3" font-family="Times,serif" font-size="14.00">string</text>
</g>
<!-- article&#45;&gt;format -->
<g id="edge10" class="edge">
<title>article&#45;&gt;format</title>
<path fill="none" stroke="blue" d="M1268.52,-101.4C1216.69,-97.32 1129.79,-87.85 1104.39,-69 1096.58,-63.2 1091.05,-54.27 1087.22,-45.56"/>
<polygon fill="blue" stroke="blue" points="1090.4,-44.09 1083.58,-35.99 1083.86,-46.58 1090.4,-44.09"/>
<text text-anchor="middle" x="1128.89" y="-57.8" font-family="Times,serif" font-size="14.00">format</text>
</g>
<!-- creation date -->
<g id="node13" class="node">
<title>creation date</title>
<ellipse fill="none" stroke="blue" cx="1167.39" cy="-18" rx="31.4" ry="18"/>
<text text-anchor="middle" x="1167.39" y="-14.3" font-family="Times,serif" font-size="14.00">date</text>
</g>
<!-- article&#45;&gt;creation date -->
<g id="edge11" class="edge">
<title>article&#45;&gt;creation date</title>
<path fill="none" stroke="blue" d="M1269.54,-100.14C1230.62,-95.38 1174.65,-85.78 1161.39,-69 1156.15,-62.37 1155.73,-53.61 1157.23,-45.28"/>
<polygon fill="blue" stroke="blue" points="1160.64,-46.07 1159.82,-35.51 1153.87,-44.28 1160.64,-46.07"/>
<text text-anchor="middle" x="1208.89" y="-57.8" font-family="Times,serif" font-size="14.00">creation date</text>
</g>
<!-- authors -->
<g id="node14" class="node">
<title>authors</title>
<ellipse fill="none" stroke="blue" cx="1253.39" cy="-18" rx="37.09" ry="18"/>
<text text-anchor="middle" x="1253.39" y="-14.3" font-family="Times,serif" font-size="14.00">agent</text>
</g>
<!-- article&#45;&gt;authors -->
<g id="edge12" class="edge">
<title>article&#45;&gt;authors</title>
<path fill="none" stroke="blue" d="M1286.28,-89.78C1279,-84.11 1271.48,-77.02 1266.39,-69 1262.05,-62.15 1259.16,-53.91 1257.23,-46.11"/>
<polygon fill="blue" stroke="blue" points="1260.64,-45.35 1255.2,-36.26 1253.79,-46.76 1260.64,-45.35"/>
<text text-anchor="middle" x="1293.89" y="-57.8" font-family="Times,serif" font-size="14.00">authors</text>
</g>
<!-- pages -->
<g id="node15" class="node">
<title>pages</title>
<ellipse fill="none" stroke="black" cx="1346.39" cy="-18" rx="38.19" ry="18"/>
<text text-anchor="middle" x="1346.39" y="-14.3" font-family="Times,serif" font-size="14.00">pages</text>
</g>
<!-- article&#45;&gt;pages -->
<g id="edge13" class="edge">
<title>article&#45;&gt;pages</title>
<path fill="none" stroke="blue" d="M1316.71,-87.35C1319.53,-81.57 1322.67,-75.03 1325.39,-69 1328.89,-61.28 1332.52,-52.81 1335.76,-45.07"/>
<polygon fill="blue" stroke="blue" points="1339.02,-46.34 1339.62,-35.77 1332.56,-43.66 1339.02,-46.34"/>
<text text-anchor="middle" x="1352.89" y="-57.8" font-family="Times,serif" font-size="14.00">pages</text>
</g>
<!-- summary -->
<g id="node17" class="node">
<title>summary</title>
<ellipse fill="none" stroke="blue" cx="1441.39" cy="-18" rx="38.19" ry="18"/>
<text text-anchor="middle" x="1441.39" y="-14.3" font-family="Times,serif" font-size="14.00">string</text>
</g>
<!-- article&#45;&gt;summary -->
<g id="edge14" class="edge">
<title>article&#45;&gt;summary</title>
<path fill="none" stroke="blue" d="M1336.04,-91.8C1349.21,-85.59 1364.99,-77.54 1378.39,-69 1391.57,-60.61 1405.26,-50 1416.49,-40.72"/>
<polygon fill="blue" stroke="blue" points="1418.8,-43.36 1424.2,-34.25 1414.29,-38 1418.8,-43.36"/>
<text text-anchor="middle" x="1431.89" y="-57.8" font-family="Times,serif" font-size="14.00">summary</text>
</g>
<!-- keywords -->
<g id="node18" class="node">
<title>keywords</title>
<ellipse fill="none" stroke="blue" cx="1536.39" cy="-18" rx="38.19" ry="18"/>
<text text-anchor="middle" x="1536.39" y="-14.3" font-family="Times,serif" font-size="14.00">string</text>
</g>
<!-- article&#45;&gt;keywords -->
<g id="edge15" class="edge">
<title>article&#45;&gt;keywords</title>
<path fill="none" stroke="blue" d="M1338.2,-92.73C1344.48,-90.62 1351.11,-88.58 1357.39,-87 1406.29,-74.69 1422.96,-88.64 1469.39,-69 1485.14,-62.34 1500.59,-51.22 1512.67,-41.15"/>
<polygon fill="blue" stroke="blue" points="1515.18,-43.61 1520.46,-34.42 1510.61,-38.31 1515.18,-43.61"/>
<text text-anchor="middle" x="1529.89" y="-57.8" font-family="Times,serif" font-size="14.00">keywords</text>
</g>
<!-- mesh terms -->
<g id="node19" class="node">
<title>mesh terms</title>
<ellipse fill="none" stroke="blue" cx="1650.39" cy="-18" rx="57.39" ry="18"/>
<text text-anchor="middle" x="1650.39" y="-14.3" font-family="Times,serif" font-size="14.00">uriorcurie</text>
</g>
<!-- article&#45;&gt;mesh terms -->
<g id="edge16" class="edge">
<title>article&#45;&gt;mesh terms</title>
<path fill="none" stroke="blue" d="M1337.6,-92.54C1344.03,-90.39 1350.88,-88.39 1357.39,-87 1449.45,-67.42 1478.95,-98.28 1568.39,-69 1587.47,-62.76 1606.74,-51.33 1621.8,-40.97"/>
<polygon fill="blue" stroke="blue" points="1624.02,-43.69 1630.15,-35.05 1619.96,-37.98 1624.02,-43.69"/>
<text text-anchor="middle" x="1642.89" y="-57.8" font-family="Times,serif" font-size="14.00">mesh terms</text>
</g>
<!-- xref -->
<g id="node20" class="node">
<title>xref</title>
<ellipse fill="none" stroke="blue" cx="1782.39" cy="-18" rx="57.39" ry="18"/>
<text text-anchor="middle" x="1782.39" y="-14.3" font-family="Times,serif" font-size="14.00">uriorcurie</text>
</g>
<!-- article&#45;&gt;xref -->
<g id="edge17" class="edge">
<title>article&#45;&gt;xref</title>
<path fill="none" stroke="blue" d="M1337.56,-92.39C1344,-90.25 1350.86,-88.28 1357.39,-87 1502.39,-58.5 1547.12,-108.95 1689.39,-69 1711.34,-62.84 1733.9,-50.87 1751.31,-40.19"/>
<polygon fill="blue" stroke="blue" points="1753.32,-43.05 1759.91,-34.75 1749.59,-37.13 1753.32,-43.05"/>
<text text-anchor="middle" x="1738.89" y="-57.8" font-family="Times,serif" font-size="14.00">xref</text>
</g>
<!-- id -->
<g id="node21" class="node">
<title>id</title>
<ellipse fill="none" stroke="black" cx="1884.39" cy="-18" rx="27" ry="18"/>
<text text-anchor="middle" x="1884.39" y="-14.3" font-family="Times,serif" font-size="14.00">id</text>
</g>
<!-- article&#45;&gt;id -->
<g id="edge18" class="edge">
<title>article&#45;&gt;id</title>
<path fill="none" stroke="blue" d="M1337.3,-92.43C1343.81,-90.26 1350.76,-88.27 1357.39,-87 1532.17,-53.49 1582.86,-103.73 1757.39,-69 1792.02,-62.11 1829.35,-46.31 1854.51,-34.3"/>
<polygon fill="blue" stroke="blue" points="1856.07,-37.43 1863.53,-29.91 1853.01,-31.14 1856.07,-37.43"/>
<text text-anchor="middle" x="1815.39" y="-57.8" font-family="Times,serif" font-size="14.00">id</text>
</g>
<!-- name -->
<g id="node23" class="node">
<title>name</title>
<ellipse fill="none" stroke="black" cx="1965.39" cy="-18" rx="36.29" ry="18"/>
<text text-anchor="middle" x="1965.39" y="-14.3" font-family="Times,serif" font-size="14.00">name</text>
</g>
<!-- article&#45;&gt;name -->
<g id="edge19" class="edge">
<title>article&#45;&gt;name</title>
<path fill="none" stroke="blue" d="M1337.29,-92.4C1343.8,-90.23 1350.76,-88.25 1357.39,-87 1562.39,-48.39 1621.47,-107.98 1826.39,-69 1863.13,-62.01 1903.11,-46.76 1930.72,-34.93"/>
<polygon fill="blue" stroke="blue" points="1932.18,-38.11 1939.95,-30.91 1929.38,-31.7 1932.18,-38.11"/>
<text text-anchor="middle" x="1901.39" y="-57.8" font-family="Times,serif" font-size="14.00">name</text>
</g>
<!-- publication type -->
<g id="node25" class="node">
<title>publication type</title>
<ellipse fill="none" stroke="black" cx="2105.39" cy="-18" rx="85.59" ry="18"/>
<text text-anchor="middle" x="2105.39" y="-14.3" font-family="Times,serif" font-size="14.00">publication type</text>
</g>
<!-- article&#45;&gt;publication type -->
<g id="edge20" class="edge">
<title>article&#45;&gt;publication type</title>
<path fill="none" stroke="blue" d="M1337.28,-92.36C1343.8,-90.2 1350.75,-88.23 1357.39,-87 1605.76,-41.08 1675.71,-107.07 1925.39,-69 1969.5,-62.27 2018.18,-48.34 2053.79,-36.88"/>
<polygon fill="blue" stroke="blue" points="2055.04,-40.16 2063.47,-33.73 2052.87,-33.5 2055.04,-40.16"/>
<text text-anchor="middle" x="2049.39" y="-57.8" font-family="Times,serif" font-size="14.00">publication type</text>
</g>
<!-- published in -->
<g id="node27" class="node">
<title>published in</title>
<ellipse fill="none" stroke="black" cx="2276.39" cy="-18" rx="67.69" ry="18"/>
<text text-anchor="middle" x="2276.39" y="-14.3" font-family="Times,serif" font-size="14.00">published in</text>
</g>
<!-- article&#45;&gt;published in -->
<g id="edge21" class="edge">
<title>article&#45;&gt;published in</title>
<path fill="none" stroke="blue" d="M1337.28,-92.32C1343.79,-90.16 1350.75,-88.2 1357.39,-87 1522.32,-57.17 1945.91,-95.55 2111.39,-69 2152.37,-62.43 2197.37,-48.31 2230,-36.74"/>
<polygon fill="blue" stroke="blue" points="2231.49,-39.93 2239.72,-33.25 2229.12,-33.34 2231.49,-39.93"/>
<text text-anchor="middle" x="2220.39" y="-57.8" font-family="Times,serif" font-size="14.00">published in</text>
</g>
<!-- iso abbreviation -->
<g id="node29" class="node">
<title>iso abbreviation</title>
<ellipse fill="none" stroke="black" cx="2447.39" cy="-18" rx="85.29" ry="18"/>
<text text-anchor="middle" x="2447.39" y="-14.3" font-family="Times,serif" font-size="14.00">iso abbreviation</text>
</g>
<!-- article&#45;&gt;iso abbreviation -->
<g id="edge22" class="edge">
<title>article&#45;&gt;iso abbreviation</title>
<path fill="none" stroke="blue" d="M1337.27,-92.3C1343.79,-90.14 1350.75,-88.19 1357.39,-87 1556.72,-51.38 2068.07,-98.47 2268.39,-69 2312.45,-62.52 2361.04,-48.49 2396.46,-36.94"/>
<polygon fill="blue" stroke="blue" points="2397.69,-40.22 2406.09,-33.76 2395.49,-33.57 2397.69,-40.22"/>
<text text-anchor="middle" x="2395.89" y="-57.8" font-family="Times,serif" font-size="14.00">iso abbreviation</text>
</g>
<!-- volume -->
<g id="node31" class="node">
<title>volume</title>
<ellipse fill="none" stroke="blue" cx="2588.39" cy="-18" rx="38.19" ry="18"/>
<text text-anchor="middle" x="2588.39" y="-14.3" font-family="Times,serif" font-size="14.00">string</text>
</g>
<!-- article&#45;&gt;volume -->
<g id="edge23" class="edge">
<title>article&#45;&gt;volume</title>
<path fill="none" stroke="blue" d="M1337.27,-92.29C1343.79,-90.12 1350.74,-88.18 1357.39,-87 1598.13,-44.4 2217.34,-115.29 2457.39,-69 2491.31,-62.46 2527.87,-47.81 2553.72,-36.05"/>
<polygon fill="blue" stroke="blue" points="2555.48,-39.09 2563.08,-31.71 2552.54,-32.74 2555.48,-39.09"/>
<text text-anchor="middle" x="2535.39" y="-57.8" font-family="Times,serif" font-size="14.00">volume</text>
</g>
<!-- issue -->
<g id="node32" class="node">
<title>issue</title>
<ellipse fill="none" stroke="blue" cx="2683.39" cy="-18" rx="38.19" ry="18"/>
<text text-anchor="middle" x="2683.39" y="-14.3" font-family="Times,serif" font-size="14.00">string</text>
</g>
<!-- article&#45;&gt;issue -->
<g id="edge24" class="edge">
<title>article&#45;&gt;issue</title>
<path fill="none" stroke="blue" d="M1337.27,-92.28C1343.78,-90.12 1350.74,-88.17 1357.39,-87 1489.59,-63.7 2434.05,-96.7 2565.39,-69 2595.44,-62.66 2627.37,-48.63 2650.44,-37.04"/>
<polygon fill="blue" stroke="blue" points="2652.14,-40.1 2659.44,-32.42 2648.94,-33.87 2652.14,-40.1"/>
<text text-anchor="middle" x="2629.89" y="-57.8" font-family="Times,serif" font-size="14.00">issue</text>
</g>
<!-- named thing_category -->
<g id="node9" class="node">
<title>named thing_category</title>
<ellipse fill="none" stroke="blue" cx="1441.39" cy="-105" rx="74.99" ry="18"/>
<text text-anchor="middle" x="1441.39" y="-101.3" font-family="Times,serif" font-size="14.00">category type</text>
</g>
<!-- publication_pages -->
<g id="node16" class="node">
<title>publication_pages</title>
<ellipse fill="none" stroke="blue" cx="1572.39" cy="-105" rx="38.19" ry="18"/>
<text text-anchor="middle" x="1572.39" y="-101.3" font-family="Times,serif" font-size="14.00">string</text>
</g>
<!-- publication_id -->
<g id="node22" class="node">
<title>publication_id</title>
<ellipse fill="none" stroke="blue" cx="1667.39" cy="-105" rx="38.19" ry="18"/>
<text text-anchor="middle" x="1667.39" y="-101.3" font-family="Times,serif" font-size="14.00">string</text>
</g>
<!-- publication_name -->
<g id="node24" class="node">
<title>publication_name</title>
<ellipse fill="none" stroke="blue" cx="1780.39" cy="-105" rx="56.59" ry="18"/>
<text text-anchor="middle" x="1780.39" y="-101.3" font-family="Times,serif" font-size="14.00">label type</text>
</g>
<!-- publication_publication type -->
<g id="node26" class="node">
<title>publication_publication type</title>
<ellipse fill="none" stroke="blue" cx="1893.39" cy="-105" rx="38.19" ry="18"/>
<text text-anchor="middle" x="1893.39" y="-101.3" font-family="Times,serif" font-size="14.00">string</text>
</g>
<!-- article_published in -->
<g id="node28" class="node">
<title>article_published in</title>
<ellipse fill="none" stroke="blue" cx="2007.39" cy="-105" rx="57.39" ry="18"/>
<text text-anchor="middle" x="2007.39" y="-101.3" font-family="Times,serif" font-size="14.00">uriorcurie</text>
</g>
<!-- article_iso abbreviation -->
<g id="node30" class="node">
<title>article_iso abbreviation</title>
<ellipse fill="none" stroke="blue" cx="2121.39" cy="-105" rx="38.19" ry="18"/>
<text text-anchor="middle" x="2121.39" y="-101.3" font-family="Times,serif" font-size="14.00">string</text>
</g>
</g>
</svg>
