<?xml version="1.0" encoding="UTF-8" standalone="no"?>
<!DOCTYPE svg PUBLIC "-//W3C//DTD SVG 1.1//EN"
 "http://www.w3.org/Graphics/SVG/1.1/DTD/svg11.dtd">
<!-- Generated by graphviz version 2.43.0 (0)
 -->
<!-- Title: %3 Pages: 1 -->
<svg width="2660pt" height="131pt"
 viewBox="0.00 0.00 2659.74 131.00" xmlns="http://www.w3.org/2000/svg" xmlns:xlink="http://www.w3.org/1999/xlink">
<g id="graph0" class="graph" transform="scale(1 1) rotate(0) translate(4 127)">
<title>%3</title>
<polygon fill="white" stroke="transparent" points="-4,4 -4,-127 2655.74,-127 2655.74,4 -4,4"/>
<!-- article -->
<g id="node1" class="node">
<title>article</title>
<ellipse fill="none" stroke="black" cx="1345.39" cy="-105" rx="40.09" ry="18"/>
<text text-anchor="middle" x="1345.39" y="-101.3" font-family="Times,serif" font-size="14.00">article</text>
</g>
<!-- publication -->
<g id="node2" class="node">
<title>publication</title>
<ellipse fill="none" stroke="black" cx="62.39" cy="-18" rx="62.29" ry="18"/>
<text text-anchor="middle" x="62.39" y="-14.3" font-family="Times,serif" font-size="14.00">publication</text>
</g>
<!-- article&#45;&gt;publication -->
<g id="edge1" class="edge">
<title>article&#45;&gt;publication</title>
<path fill="none" stroke="black" d="M1305.01,-103.72C1135.72,-102.36 482.53,-95.49 278.39,-69 221.56,-61.63 157.76,-45.91 114.33,-34.06"/>
<polygon fill="black" stroke="black" points="115.14,-30.65 104.57,-31.36 113.28,-37.4 115.14,-30.65"/>
<text text-anchor="middle" x="292.39" y="-57.8" font-family="Times,serif" font-size="14.00">is_a</text>
</g>
<!-- iri -->
<g id="node3" class="node">
<title>iri</title>
<ellipse fill="none" stroke="blue" cx="187.39" cy="-18" rx="44.39" ry="18"/>
<text text-anchor="middle" x="187.39" y="-14.3" font-family="Times,serif" font-size="14.00">iri type</text>
</g>
<!-- article&#45;&gt;iri -->
<g id="edge2" class="edge">
<title>article&#45;&gt;iri</title>
<path fill="none" stroke="blue" d="M1304.97,-103.51C1146.83,-101.46 569.87,-92.48 388.39,-69 333.16,-61.85 271.19,-45.05 230.85,-32.9"/>
<polygon fill="blue" stroke="blue" points="231.67,-29.49 221.08,-29.91 229.62,-36.18 231.67,-29.49"/>
<text text-anchor="middle" x="396.39" y="-57.8" font-family="Times,serif" font-size="14.00">iri</text>
</g>
<!-- description -->
<g id="node4" class="node">
<title>description</title>
<ellipse fill="none" stroke="blue" cx="325.39" cy="-18" rx="75.29" ry="18"/>
<text text-anchor="middle" x="325.39" y="-14.3" font-family="Times,serif" font-size="14.00">narrative text</text>
</g>
<!-- article&#45;&gt;description -->
<g id="edge3" class="edge">
<title>article&#45;&gt;description</title>
<path fill="none" stroke="blue" d="M1305.13,-104.16C1154.05,-104.49 621.14,-103.16 455.39,-69 424.42,-62.62 391.16,-49.7 366.04,-38.6"/>
<polygon fill="blue" stroke="blue" points="367.39,-35.37 356.83,-34.45 364.51,-41.75 367.39,-35.37"/>
<text text-anchor="middle" x="495.89" y="-57.8" font-family="Times,serif" font-size="14.00">description</text>
</g>
<!-- source -->
<g id="node5" class="node">
<title>source</title>
<ellipse fill="none" stroke="blue" cx="475.39" cy="-18" rx="56.59" ry="18"/>
<text text-anchor="middle" x="475.39" y="-14.3" font-family="Times,serif" font-size="14.00">label type</text>
</g>
<!-- article&#45;&gt;source -->
<g id="edge4" class="edge">
<title>article&#45;&gt;source</title>
<path fill="none" stroke="blue" d="M1304.75,-104.32C1166.74,-105.09 716.88,-104.71 577.39,-69 552.98,-62.75 527.53,-50.28 508.16,-39.36"/>
<polygon fill="blue" stroke="blue" points="509.85,-36.3 499.44,-34.32 506.35,-42.36 509.85,-36.3"/>
<text text-anchor="middle" x="601.39" y="-57.8" font-family="Times,serif" font-size="14.00">source</text>
</g>
<!-- provided by -->
<g id="node6" class="node">
<title>provided by</title>
<ellipse fill="none" stroke="blue" cx="587.39" cy="-18" rx="37.09" ry="18"/>
<text text-anchor="middle" x="587.39" y="-14.3" font-family="Times,serif" font-size="14.00">agent</text>
</g>
<!-- article&#45;&gt;provided by -->
<g id="edge5" class="edge">
<title>article&#45;&gt;provided by</title>
<path fill="none" stroke="blue" d="M1305.07,-103.31C1166.72,-100.73 716.48,-90.77 655.39,-69 638.75,-63.07 622.7,-51.63 610.37,-41.19"/>
<polygon fill="blue" stroke="blue" points="612.66,-38.54 602.84,-34.54 608.02,-43.78 612.66,-38.54"/>
<text text-anchor="middle" x="697.89" y="-57.8" font-family="Times,serif" font-size="14.00">provided by</text>
</g>
<!-- has attribute -->
<g id="node7" class="node">
<title>has attribute</title>
<ellipse fill="none" stroke="blue" cx="694.39" cy="-18" rx="51.99" ry="18"/>
<text text-anchor="middle" x="694.39" y="-14.3" font-family="Times,serif" font-size="14.00">attribute</text>
</g>
<!-- article&#45;&gt;has attribute -->
<g id="edge6" class="edge">
<title>article&#45;&gt;has attribute</title>
<path fill="none" stroke="blue" d="M1305.12,-104.1C1192.03,-103.96 873.36,-100.69 774.39,-69 755.49,-62.95 736.55,-51.42 721.85,-40.95"/>
<polygon fill="blue" stroke="blue" points="723.84,-38.07 713.72,-34.96 719.69,-43.71 723.84,-38.07"/>
<text text-anchor="middle" x="821.39" y="-57.8" font-family="Times,serif" font-size="14.00">has attribute</text>
</g>
<!-- category -->
<g id="node8" class="node">
<title>category</title>
<ellipse fill="none" stroke="black" cx="815.39" cy="-18" rx="51.19" ry="18"/>
<text text-anchor="middle" x="815.39" y="-14.3" font-family="Times,serif" font-size="14.00">category</text>
</g>
<!-- article&#45;&gt;category -->
<g id="edge7" class="edge">
<title>article&#45;&gt;category</title>
<path fill="none" stroke="blue" d="M1305.16,-102.98C1211.18,-100.25 979.58,-91.4 905.39,-69 884.32,-62.64 862.68,-50.82 845.91,-40.27"/>
<polygon fill="blue" stroke="blue" points="847.42,-37.08 837.13,-34.58 843.62,-42.96 847.42,-37.08"/>
<text text-anchor="middle" x="936.89" y="-57.8" font-family="Times,serif" font-size="14.00">category</text>
</g>
<!-- license -->
<g id="node10" class="node">
<title>license</title>
<ellipse fill="none" stroke="blue" cx="923.39" cy="-18" rx="38.19" ry="18"/>
<text text-anchor="middle" x="923.39" y="-14.3" font-family="Times,serif" font-size="14.00">string</text>
</g>
<!-- article&#45;&gt;license -->
<g id="edge8" class="edge">
<title>article&#45;&gt;license</title>
<path fill="none" stroke="blue" d="M1305.35,-102.22C1227.26,-98.37 1057.48,-88.05 1002.39,-69 983.42,-62.44 964.33,-50.54 949.67,-40"/>
<polygon fill="blue" stroke="blue" points="951.71,-37.15 941.59,-34 947.53,-42.77 951.71,-37.15"/>
<text text-anchor="middle" x="1027.39" y="-57.8" font-family="Times,serif" font-size="14.00">license</text>
</g>
<!-- rights -->
<g id="node11" class="node">
<title>rights</title>
<ellipse fill="none" stroke="blue" cx="1018.39" cy="-18" rx="38.19" ry="18"/>
<text text-anchor="middle" x="1018.39" y="-14.3" font-family="Times,serif" font-size="14.00">string</text>
</g>
<!-- article&#45;&gt;rights -->
<g id="edge9" class="edge">
<title>article&#45;&gt;rights</title>
<path fill="none" stroke="blue" d="M1305.69,-101.39C1241.98,-96.78 1120.06,-86 1080.39,-69 1065.67,-62.69 1051.57,-51.84 1040.55,-41.87"/>
<polygon fill="blue" stroke="blue" points="1042.78,-39.16 1033.1,-34.83 1037.97,-44.24 1042.78,-39.16"/>
<text text-anchor="middle" x="1101.89" y="-57.8" font-family="Times,serif" font-size="14.00">rights</text>
</g>
<!-- format -->
<g id="node12" class="node">
<title>format</title>
<ellipse fill="none" stroke="blue" cx="1113.39" cy="-18" rx="38.19" ry="18"/>
<text text-anchor="middle" x="1113.39" y="-14.3" font-family="Times,serif" font-size="14.00">string</text>
</g>
<!-- article&#45;&gt;format -->
<g id="edge10" class="edge">
<title>article&#45;&gt;format</title>
<path fill="none" stroke="blue" d="M1305.85,-101.34C1253.92,-97.17 1166.28,-87.58 1140.39,-69 1132.27,-63.17 1126.35,-54.12 1122.16,-45.31"/>
<polygon fill="blue" stroke="blue" points="1125.35,-43.89 1118.27,-36.02 1118.9,-46.59 1125.35,-43.89"/>
<text text-anchor="middle" x="1164.89" y="-57.8" font-family="Times,serif" font-size="14.00">format</text>
</g>
<!-- creation date -->
<g id="node13" class="node">
<title>creation date</title>
<ellipse fill="none" stroke="blue" cx="1201.39" cy="-18" rx="31.4" ry="18"/>
<text text-anchor="middle" x="1201.39" y="-14.3" font-family="Times,serif" font-size="14.00">date</text>
</g>
<!-- article&#45;&gt;creation date -->
<g id="edge11" class="edge">
<title>article&#45;&gt;creation date</title>
<path fill="none" stroke="blue" d="M1306.54,-100.14C1267.62,-95.38 1211.65,-85.78 1198.39,-69 1193.32,-62.57 1192.38,-54.1 1193.23,-45.96"/>
<polygon fill="blue" stroke="blue" points="1196.69,-46.48 1195.08,-36.01 1189.81,-45.21 1196.69,-46.48"/>
<text text-anchor="middle" x="1245.89" y="-57.8" font-family="Times,serif" font-size="14.00">creation date</text>
</g>
<!-- authors -->
<g id="node14" class="node">
<title>authors</title>
<ellipse fill="none" stroke="blue" cx="1289.39" cy="-18" rx="38.19" ry="18"/>
<text text-anchor="middle" x="1289.39" y="-14.3" font-family="Times,serif" font-size="14.00">string</text>
</g>
<!-- article&#45;&gt;authors -->
<g id="edge12" class="edge">
<title>article&#45;&gt;authors</title>
<path fill="none" stroke="blue" d="M1323.36,-89.73C1316.09,-84.05 1308.55,-76.97 1303.39,-69 1298.97,-62.16 1295.92,-53.92 1293.83,-46.11"/>
<polygon fill="blue" stroke="blue" points="1297.22,-45.25 1291.6,-36.26 1290.4,-46.79 1297.22,-45.25"/>
<text text-anchor="middle" x="1330.89" y="-57.8" font-family="Times,serif" font-size="14.00">authors</text>
</g>
<!-- pages -->
<g id="node15" class="node">
<title>pages</title>
<ellipse fill="none" stroke="black" cx="1384.39" cy="-18" rx="38.19" ry="18"/>
<text text-anchor="middle" x="1384.39" y="-14.3" font-family="Times,serif" font-size="14.00">pages</text>
</g>
<!-- article&#45;&gt;pages -->
<g id="edge13" class="edge">
<title>article&#45;&gt;pages</title>
<path fill="none" stroke="blue" d="M1353.65,-87.33C1356.47,-81.55 1359.61,-75.01 1362.39,-69 1365.98,-61.25 1369.76,-52.77 1373.16,-45.03"/>
<polygon fill="blue" stroke="blue" points="1376.43,-46.3 1377.22,-35.74 1370.01,-43.5 1376.43,-46.3"/>
<text text-anchor="middle" x="1390.89" y="-57.8" font-family="Times,serif" font-size="14.00">pages</text>
</g>
<!-- summary -->
<g id="node17" class="node">
<title>summary</title>
<ellipse fill="none" stroke="blue" cx="1479.39" cy="-18" rx="38.19" ry="18"/>
<text text-anchor="middle" x="1479.39" y="-14.3" font-family="Times,serif" font-size="14.00">string</text>
</g>
<!-- article&#45;&gt;summary -->
<g id="edge14" class="edge">
<title>article&#45;&gt;summary</title>
<path fill="none" stroke="blue" d="M1373.44,-91.86C1386.81,-85.65 1402.81,-77.6 1416.39,-69 1429.59,-60.65 1443.28,-50.05 1454.52,-40.76"/>
<polygon fill="blue" stroke="blue" points="1456.82,-43.39 1462.22,-34.28 1452.32,-38.04 1456.82,-43.39"/>
<text text-anchor="middle" x="1469.89" y="-57.8" font-family="Times,serif" font-size="14.00">summary</text>
</g>
<!-- keywords -->
<g id="node18" class="node">
<title>keywords</title>
<ellipse fill="none" stroke="blue" cx="1574.39" cy="-18" rx="38.19" ry="18"/>
<text text-anchor="middle" x="1574.39" y="-14.3" font-family="Times,serif" font-size="14.00">string</text>
</g>
<!-- article&#45;&gt;keywords -->
<g id="edge15" class="edge">
<title>article&#45;&gt;keywords</title>
<path fill="none" stroke="blue" d="M1375.2,-92.72C1381.48,-90.61 1388.11,-88.58 1394.39,-87 1443.72,-74.62 1460.54,-88.78 1507.39,-69 1523.15,-62.35 1538.59,-51.23 1550.67,-41.16"/>
<polygon fill="blue" stroke="blue" points="1553.19,-43.62 1558.46,-34.43 1548.61,-38.32 1553.19,-43.62"/>
<text text-anchor="middle" x="1567.89" y="-57.8" font-family="Times,serif" font-size="14.00">keywords</text>
</g>
<!-- mesh terms -->
<g id="node19" class="node">
<title>mesh terms</title>
<ellipse fill="none" stroke="blue" cx="1688.39" cy="-18" rx="57.39" ry="18"/>
<text text-anchor="middle" x="1688.39" y="-14.3" font-family="Times,serif" font-size="14.00">uriorcurie</text>
</g>
<!-- article&#45;&gt;mesh terms -->
<g id="edge16" class="edge">
<title>article&#45;&gt;mesh terms</title>
<path fill="none" stroke="blue" d="M1374.6,-92.54C1381.03,-90.39 1387.88,-88.38 1394.39,-87 1486.89,-67.35 1516.52,-98.4 1606.39,-69 1625.47,-62.76 1644.74,-51.33 1659.8,-40.98"/>
<polygon fill="blue" stroke="blue" points="1662.02,-43.69 1668.15,-35.05 1657.97,-37.99 1662.02,-43.69"/>
<text text-anchor="middle" x="1680.89" y="-57.8" font-family="Times,serif" font-size="14.00">mesh terms</text>
</g>
<!-- xref -->
<g id="node20" class="node">
<title>xref</title>
<ellipse fill="none" stroke="blue" cx="1820.39" cy="-18" rx="57.39" ry="18"/>
<text text-anchor="middle" x="1820.39" y="-14.3" font-family="Times,serif" font-size="14.00">uriorcurie</text>
</g>
<!-- article&#45;&gt;xref -->
<g id="edge17" class="edge">
<title>article&#45;&gt;xref</title>
<path fill="none" stroke="blue" d="M1374.56,-92.39C1381,-90.25 1387.86,-88.28 1394.39,-87 1539.83,-58.43 1584.69,-109.06 1727.39,-69 1749.34,-62.84 1771.9,-50.87 1789.31,-40.19"/>
<polygon fill="blue" stroke="blue" points="1791.32,-43.05 1797.91,-34.76 1787.59,-37.14 1791.32,-43.05"/>
<text text-anchor="middle" x="1776.89" y="-57.8" font-family="Times,serif" font-size="14.00">xref</text>
</g>
<!-- id -->
<g id="node21" class="node">
<title>id</title>
<ellipse fill="none" stroke="black" cx="1922.39" cy="-18" rx="27" ry="18"/>
<text text-anchor="middle" x="1922.39" y="-14.3" font-family="Times,serif" font-size="14.00">id</text>
</g>
<!-- article&#45;&gt;id -->
<g id="edge18" class="edge">
<title>article&#45;&gt;id</title>
<path fill="none" stroke="blue" d="M1374.29,-92.43C1380.81,-90.26 1387.76,-88.27 1394.39,-87 1569.61,-53.41 1620.42,-103.81 1795.39,-69 1830.02,-62.11 1867.35,-46.31 1892.51,-34.3"/>
<polygon fill="blue" stroke="blue" points="1894.07,-37.43 1901.53,-29.91 1891.01,-31.14 1894.07,-37.43"/>
<text text-anchor="middle" x="1853.39" y="-57.8" font-family="Times,serif" font-size="14.00">id</text>
</g>
<!-- name -->
<g id="node23" class="node">
<title>name</title>
<ellipse fill="none" stroke="black" cx="2003.39" cy="-18" rx="36.29" ry="18"/>
<text text-anchor="middle" x="2003.39" y="-14.3" font-family="Times,serif" font-size="14.00">name</text>
</g>
<!-- article&#45;&gt;name -->
<g id="edge19" class="edge">
<title>article&#45;&gt;name</title>
<path fill="none" stroke="blue" d="M1374.29,-92.4C1380.8,-90.23 1387.76,-88.25 1394.39,-87 1599.83,-48.32 1659.03,-108.06 1864.39,-69 1901.13,-62.01 1941.11,-46.77 1968.72,-34.93"/>
<polygon fill="blue" stroke="blue" points="1970.18,-38.12 1977.95,-30.91 1967.38,-31.7 1970.18,-38.12"/>
<text text-anchor="middle" x="1939.39" y="-57.8" font-family="Times,serif" font-size="14.00">name</text>
</g>
<!-- type -->
<g id="node25" class="node">
<title>type</title>
<ellipse fill="none" stroke="black" cx="2089.39" cy="-18" rx="31.4" ry="18"/>
<text text-anchor="middle" x="2089.39" y="-14.3" font-family="Times,serif" font-size="14.00">type</text>
</g>
<!-- article&#45;&gt;type -->
<g id="edge20" class="edge">
<title>article&#45;&gt;type</title>
<path fill="none" stroke="blue" d="M1374.28,-92.36C1380.8,-90.19 1387.75,-88.23 1394.39,-87 1643.19,-41.01 1715.47,-119.51 1963.39,-69 1996.78,-62.2 2032.71,-47.1 2057.62,-35.26"/>
<polygon fill="blue" stroke="blue" points="2059.46,-38.26 2066.93,-30.75 2056.4,-31.96 2059.46,-38.26"/>
<text text-anchor="middle" x="2029.39" y="-57.8" font-family="Times,serif" font-size="14.00">type</text>
</g>
<!-- published in -->
<g id="node27" class="node">
<title>published in</title>
<ellipse fill="none" stroke="black" cx="2206.39" cy="-18" rx="67.69" ry="18"/>
<text text-anchor="middle" x="2206.39" y="-14.3" font-family="Times,serif" font-size="14.00">published in</text>
</g>
<!-- article&#45;&gt;published in -->
<g id="edge21" class="edge">
<title>article&#45;&gt;published in</title>
<path fill="none" stroke="blue" d="M1374.28,-92.34C1380.79,-90.18 1387.75,-88.21 1394.39,-87 1537.63,-60.83 1905.83,-93.33 2049.39,-69 2088.08,-62.44 2130.38,-48.56 2161.31,-37.08"/>
<polygon fill="blue" stroke="blue" points="2162.82,-40.26 2170.94,-33.45 2160.35,-33.71 2162.82,-40.26"/>
<text text-anchor="middle" x="2155.39" y="-57.8" font-family="Times,serif" font-size="14.00">published in</text>
</g>
<!-- iso abbreviation -->
<g id="node29" class="node">
<title>iso abbreviation</title>
<ellipse fill="none" stroke="black" cx="2377.39" cy="-18" rx="85.29" ry="18"/>
<text text-anchor="middle" x="2377.39" y="-14.3" font-family="Times,serif" font-size="14.00">iso abbreviation</text>
</g>
<!-- article&#45;&gt;iso abbreviation -->
<g id="edge22" class="edge">
<title>article&#45;&gt;iso abbreviation</title>
<path fill="none" stroke="blue" d="M1374.27,-92.32C1380.79,-90.15 1387.75,-88.2 1394.39,-87 1571.37,-55.14 2025.62,-96.06 2203.39,-69 2245.96,-62.52 2292.79,-48.66 2327.13,-37.17"/>
<polygon fill="blue" stroke="blue" points="2328.58,-40.38 2336.92,-33.85 2326.33,-33.75 2328.58,-40.38"/>
<text text-anchor="middle" x="2328.89" y="-57.8" font-family="Times,serif" font-size="14.00">iso abbreviation</text>
</g>
<!-- volume -->
<g id="node31" class="node">
<title>volume</title>
<ellipse fill="none" stroke="blue" cx="2518.39" cy="-18" rx="38.19" ry="18"/>
<text text-anchor="middle" x="2518.39" y="-14.3" font-family="Times,serif" font-size="14.00">string</text>
</g>
<!-- article&#45;&gt;volume -->
<g id="edge23" class="edge">
<title>article&#45;&gt;volume</title>
<path fill="none" stroke="blue" d="M1374.27,-92.3C1380.79,-90.13 1387.75,-88.18 1394.39,-87 1612.34,-48.24 2173.23,-111.94 2390.39,-69 2423.39,-62.47 2458.87,-47.97 2484.08,-36.26"/>
<polygon fill="blue" stroke="blue" points="2485.68,-39.37 2493.22,-31.93 2482.68,-33.05 2485.68,-39.37"/>
<text text-anchor="middle" x="2467.39" y="-57.8" font-family="Times,serif" font-size="14.00">volume</text>
</g>
<!-- issue -->
<g id="node32" class="node">
<title>issue</title>
<ellipse fill="none" stroke="blue" cx="2613.39" cy="-18" rx="38.19" ry="18"/>
<text text-anchor="middle" x="2613.39" y="-14.3" font-family="Times,serif" font-size="14.00">string</text>
</g>
<!-- article&#45;&gt;issue -->
<g id="edge24" class="edge">
<title>article&#45;&gt;issue</title>
<path fill="none" stroke="blue" d="M1374.27,-92.29C1380.79,-90.12 1387.74,-88.18 1394.39,-87 1515.09,-65.64 2377.56,-94.75 2497.39,-69 2526.85,-62.67 2558.09,-48.74 2580.73,-37.18"/>
<polygon fill="blue" stroke="blue" points="2582.63,-40.14 2589.87,-32.4 2579.39,-33.93 2582.63,-40.14"/>
<text text-anchor="middle" x="2561.89" y="-57.8" font-family="Times,serif" font-size="14.00">issue</text>
</g>
<!-- named thing_category -->
<g id="node9" class="node">
<title>named thing_category</title>
<ellipse fill="none" stroke="blue" cx="1473.39" cy="-105" rx="69.59" ry="18"/>
<text text-anchor="middle" x="1473.39" y="-101.3" font-family="Times,serif" font-size="14.00">named thing</text>
</g>
<!-- publication_pages -->
<g id="node16" class="node">
<title>publication_pages</title>
<ellipse fill="none" stroke="blue" cx="1599.39" cy="-105" rx="38.19" ry="18"/>
<text text-anchor="middle" x="1599.39" y="-101.3" font-family="Times,serif" font-size="14.00">string</text>
</g>
<!-- publication_id -->
<g id="node22" class="node">
<title>publication_id</title>
<ellipse fill="none" stroke="blue" cx="1694.39" cy="-105" rx="38.19" ry="18"/>
<text text-anchor="middle" x="1694.39" y="-101.3" font-family="Times,serif" font-size="14.00">string</text>
</g>
<!-- publication_name -->
<g id="node24" class="node">
<title>publication_name</title>
<ellipse fill="none" stroke="blue" cx="1807.39" cy="-105" rx="56.59" ry="18"/>
<text text-anchor="middle" x="1807.39" y="-101.3" font-family="Times,serif" font-size="14.00">label type</text>
</g>
<!-- publication_type -->
<g id="node26" class="node">
<title>publication_type</title>
<ellipse fill="none" stroke="blue" cx="1920.39" cy="-105" rx="38.19" ry="18"/>
<text text-anchor="middle" x="1920.39" y="-101.3" font-family="Times,serif" font-size="14.00">string</text>
</g>
<!-- article_published in -->
<g id="node28" class="node">
<title>article_published in</title>
<ellipse fill="none" stroke="blue" cx="2034.39" cy="-105" rx="57.39" ry="18"/>
<text text-anchor="middle" x="2034.39" y="-101.3" font-family="Times,serif" font-size="14.00">uriorcurie</text>
</g>
<!-- article_iso abbreviation -->
<g id="node30" class="node">
<title>article_iso abbreviation</title>
<ellipse fill="none" stroke="blue" cx="2148.39" cy="-105" rx="38.19" ry="18"/>
<text text-anchor="middle" x="2148.39" y="-101.3" font-family="Times,serif" font-size="14.00">string</text>
</g>
</g>
</svg>
