<?xml version="1.0" encoding="UTF-8" standalone="no"?>
<!DOCTYPE svg PUBLIC "-//W3C//DTD SVG 1.1//EN"
 "http://www.w3.org/Graphics/SVG/1.1/DTD/svg11.dtd">
<!-- Generated by graphviz version 2.43.0 (0)
 -->
<!-- Title: %3 Pages: 1 -->
<svg width="2179pt" height="291pt"
 viewBox="0.00 0.00 2178.69 291.00" xmlns="http://www.w3.org/2000/svg" xmlns:xlink="http://www.w3.org/1999/xlink">
<g id="graph0" class="graph" transform="scale(1 1) rotate(0) translate(4 287)">
<title>%3</title>
<polygon fill="white" stroke="transparent" points="-4,4 -4,-287 2174.69,-287 2174.69,4 -4,4"/>
<!-- association -->
<g id="node1" class="node">
<title>association</title>
<ellipse fill="none" stroke="black" cx="1136.35" cy="-265" rx="62.29" ry="18"/>
<text text-anchor="middle" x="1136.35" y="-261.3" font-family="Times,serif" font-size="14.00">association</text>
</g>
<!-- entity -->
<g id="node2" class="node">
<title>entity</title>
<ellipse fill="none" stroke="black" cx="38.35" cy="-178" rx="38.19" ry="18"/>
<text text-anchor="middle" x="38.35" y="-174.3" font-family="Times,serif" font-size="14.00">entity</text>
</g>
<!-- association&#45;&gt;entity -->
<g id="edge1" class="edge">
<title>association&#45;&gt;entity</title>
<path fill="none" stroke="black" d="M1073.96,-263.27C895.59,-260.91 385.72,-252.28 220.35,-229 159.61,-220.45 145.1,-213.59 86.35,-196 83.26,-195.07 80.07,-194.07 76.88,-193.02"/>
<polygon fill="black" stroke="black" points="77.98,-189.7 67.39,-189.8 75.73,-196.33 77.98,-189.7"/>
<text text-anchor="middle" x="234.35" y="-217.8" font-family="Times,serif" font-size="14.00">is_a</text>
</g>
<!-- id -->
<g id="node3" class="node">
<title>id</title>
<ellipse fill="none" stroke="blue" cx="133.35" cy="-178" rx="38.19" ry="18"/>
<text text-anchor="middle" x="133.35" y="-174.3" font-family="Times,serif" font-size="14.00">string</text>
</g>
<!-- association&#45;&gt;id -->
<g id="edge2" class="edge">
<title>association&#45;&gt;id</title>
<path fill="none" stroke="blue" d="M1073.78,-264.5C939.72,-264.86 615,-261.9 345.35,-229 271.54,-220 253.01,-215.79 181.35,-196 178.24,-195.14 175.04,-194.18 171.84,-193.17"/>
<polygon fill="blue" stroke="blue" points="172.92,-189.84 162.33,-190.01 170.71,-196.48 172.92,-189.84"/>
<text text-anchor="middle" x="352.35" y="-217.8" font-family="Times,serif" font-size="14.00">id</text>
</g>
<!-- iri -->
<g id="node4" class="node">
<title>iri</title>
<ellipse fill="none" stroke="blue" cx="234.35" cy="-178" rx="44.39" ry="18"/>
<text text-anchor="middle" x="234.35" y="-174.3" font-family="Times,serif" font-size="14.00">iri type</text>
</g>
<!-- association&#45;&gt;iri -->
<g id="edge3" class="edge">
<title>association&#45;&gt;iri</title>
<path fill="none" stroke="blue" d="M1073.84,-263.7C953.87,-262.48 683.19,-256.6 457.35,-229 380.95,-219.66 361.9,-215.12 287.35,-196 283.97,-195.13 280.49,-194.17 277,-193.16"/>
<polygon fill="blue" stroke="blue" points="277.83,-189.76 267.25,-190.22 275.81,-196.46 277.83,-189.76"/>
<text text-anchor="middle" x="465.35" y="-217.8" font-family="Times,serif" font-size="14.00">iri</text>
</g>
<!-- name -->
<g id="node5" class="node">
<title>name</title>
<ellipse fill="none" stroke="blue" cx="353.35" cy="-178" rx="56.59" ry="18"/>
<text text-anchor="middle" x="353.35" y="-174.3" font-family="Times,serif" font-size="14.00">label type</text>
</g>
<!-- association&#45;&gt;name -->
<g id="edge4" class="edge">
<title>association&#45;&gt;name</title>
<path fill="none" stroke="blue" d="M1073.91,-264.26C965.77,-263.84 736.9,-259.04 546.35,-229 496.29,-221.11 440.36,-205.89 401.65,-194.3"/>
<polygon fill="blue" stroke="blue" points="402.28,-190.84 391.7,-191.29 400.25,-197.54 402.28,-190.84"/>
<text text-anchor="middle" x="566.35" y="-217.8" font-family="Times,serif" font-size="14.00">name</text>
</g>
<!-- description -->
<g id="node6" class="node">
<title>description</title>
<ellipse fill="none" stroke="blue" cx="503.35" cy="-178" rx="75.29" ry="18"/>
<text text-anchor="middle" x="503.35" y="-174.3" font-family="Times,serif" font-size="14.00">narrative text</text>
</g>
<!-- association&#45;&gt;description -->
<g id="edge5" class="edge">
<title>association&#45;&gt;description</title>
<path fill="none" stroke="blue" d="M1074.81,-261.83C960.75,-257.45 720.75,-246.46 639.35,-229 607.14,-222.09 572.31,-209.17 545.96,-198.2"/>
<polygon fill="blue" stroke="blue" points="547.23,-194.93 536.65,-194.26 544.5,-201.38 547.23,-194.93"/>
<text text-anchor="middle" x="679.85" y="-217.8" font-family="Times,serif" font-size="14.00">description</text>
</g>
<!-- source -->
<g id="node7" class="node">
<title>source</title>
<ellipse fill="none" stroke="blue" cx="653.35" cy="-178" rx="56.59" ry="18"/>
<text text-anchor="middle" x="653.35" y="-174.3" font-family="Times,serif" font-size="14.00">label type</text>
</g>
<!-- association&#45;&gt;source -->
<g id="edge6" class="edge">
<title>association&#45;&gt;source</title>
<path fill="none" stroke="blue" d="M1073.9,-264.25C999.28,-263.16 871.25,-256.83 765.35,-229 738.8,-222.02 710.58,-209.39 689.11,-198.57"/>
<polygon fill="blue" stroke="blue" points="690.55,-195.37 680.05,-193.91 687.35,-201.6 690.55,-195.37"/>
<text text-anchor="middle" x="789.35" y="-217.8" font-family="Times,serif" font-size="14.00">source</text>
</g>
<!-- provided by -->
<g id="node8" class="node">
<title>provided by</title>
<ellipse fill="none" stroke="blue" cx="765.35" cy="-178" rx="37.09" ry="18"/>
<text text-anchor="middle" x="765.35" y="-174.3" font-family="Times,serif" font-size="14.00">agent</text>
</g>
<!-- association&#45;&gt;provided by -->
<g id="edge7" class="edge">
<title>association&#45;&gt;provided by</title>
<path fill="none" stroke="blue" d="M1074.03,-264.03C1014.31,-262.31 922.43,-255.06 847.35,-229 827.73,-222.19 807.79,-210.17 792.48,-199.62"/>
<polygon fill="blue" stroke="blue" points="794.23,-196.57 784.05,-193.63 790.17,-202.28 794.23,-196.57"/>
<text text-anchor="middle" x="889.85" y="-217.8" font-family="Times,serif" font-size="14.00">provided by</text>
</g>
<!-- has attribute -->
<g id="node9" class="node">
<title>has attribute</title>
<ellipse fill="none" stroke="blue" cx="872.35" cy="-178" rx="51.99" ry="18"/>
<text text-anchor="middle" x="872.35" y="-174.3" font-family="Times,serif" font-size="14.00">attribute</text>
</g>
<!-- association&#45;&gt;has attribute -->
<g id="edge8" class="edge">
<title>association&#45;&gt;has attribute</title>
<path fill="none" stroke="blue" d="M1081.56,-256.34C1048.46,-250.78 1005.78,-241.94 969.35,-229 947.45,-221.22 924.28,-209.43 906.07,-199.24"/>
<polygon fill="blue" stroke="blue" points="907.46,-196 897.04,-194.09 903.99,-202.09 907.46,-196"/>
<text text-anchor="middle" x="1016.35" y="-217.8" font-family="Times,serif" font-size="14.00">has attribute</text>
</g>
<!-- subject -->
<g id="node10" class="node">
<title>subject</title>
<ellipse fill="none" stroke="blue" cx="1012.35" cy="-178" rx="69.59" ry="18"/>
<text text-anchor="middle" x="1012.35" y="-174.3" font-family="Times,serif" font-size="14.00">named thing</text>
</g>
<!-- association&#45;&gt;subject -->
<g id="edge9" class="edge">
<title>association&#45;&gt;subject</title>
<path fill="none" stroke="blue" d="M1113.31,-248.21C1093.86,-234.88 1065.8,-215.64 1044.2,-200.83"/>
<polygon fill="blue" stroke="blue" points="1045.9,-197.76 1035.68,-194.99 1041.95,-203.53 1045.9,-197.76"/>
<text text-anchor="middle" x="1108.35" y="-217.8" font-family="Times,serif" font-size="14.00">subject</text>
</g>
<!-- predicate -->
<g id="node11" class="node">
<title>predicate</title>
<ellipse fill="none" stroke="blue" cx="1178.35" cy="-178" rx="77.99" ry="18"/>
<text text-anchor="middle" x="1178.35" y="-174.3" font-family="Times,serif" font-size="14.00">predicate type</text>
</g>
<!-- association&#45;&gt;predicate -->
<g id="edge10" class="edge">
<title>association&#45;&gt;predicate</title>
<path fill="none" stroke="blue" d="M1144.85,-246.8C1150.71,-234.93 1158.62,-218.93 1165.28,-205.45"/>
<polygon fill="blue" stroke="blue" points="1168.57,-206.69 1169.86,-196.18 1162.29,-203.59 1168.57,-206.69"/>
<text text-anchor="middle" x="1194.35" y="-217.8" font-family="Times,serif" font-size="14.00">predicate</text>
</g>
<!-- object -->
<g id="node12" class="node">
<title>object</title>
<ellipse fill="none" stroke="blue" cx="1227.35" cy="-91" rx="69.59" ry="18"/>
<text text-anchor="middle" x="1227.35" y="-87.3" font-family="Times,serif" font-size="14.00">named thing</text>
</g>
<!-- association&#45;&gt;object -->
<g id="edge11" class="edge">
<title>association&#45;&gt;object</title>
<path fill="none" stroke="blue" d="M1186.46,-254.05C1216.85,-244.89 1252.22,-227.69 1265.35,-196 1276.4,-169.31 1261.38,-138.11 1247.09,-116.9"/>
<polygon fill="blue" stroke="blue" points="1249.94,-114.87 1241.29,-108.74 1244.23,-118.92 1249.94,-114.87"/>
<text text-anchor="middle" x="1291.35" y="-174.3" font-family="Times,serif" font-size="14.00">object</text>
</g>
<!-- relation -->
<g id="node13" class="node">
<title>relation</title>
<ellipse fill="none" stroke="blue" cx="1227.35" cy="-18" rx="38.19" ry="18"/>
<text text-anchor="middle" x="1227.35" y="-14.3" font-family="Times,serif" font-size="14.00">string</text>
</g>
<!-- association&#45;&gt;relation -->
<g id="edge12" class="edge">
<title>association&#45;&gt;relation</title>
<path fill="none" stroke="blue" d="M1183.94,-253.34C1232.82,-241.21 1303.65,-219.97 1317.35,-196 1330.35,-173.24 1321.35,-97.55 1306.35,-73 1296.43,-56.76 1279.57,-44.25 1263.97,-35.37"/>
<polygon fill="blue" stroke="blue" points="1265.46,-32.2 1254.99,-30.57 1262.16,-38.37 1265.46,-32.2"/>
<text text-anchor="middle" x="1351.35" y="-130.8" font-family="Times,serif" font-size="14.00">relation</text>
</g>
<!-- negated -->
<g id="node14" class="node">
<title>negated</title>
<ellipse fill="none" stroke="blue" cx="1439.35" cy="-178" rx="46.59" ry="18"/>
<text text-anchor="middle" x="1439.35" y="-174.3" font-family="Times,serif" font-size="14.00">boolean</text>
</g>
<!-- association&#45;&gt;negated -->
<g id="edge13" class="edge">
<title>association&#45;&gt;negated</title>
<path fill="none" stroke="blue" d="M1181.49,-252.42C1190.35,-250.41 1199.61,-248.49 1208.35,-247 1283.25,-234.24 1308.25,-258.31 1378.35,-229 1392.78,-222.96 1406.48,-212.35 1417.23,-202.46"/>
<polygon fill="blue" stroke="blue" points="1419.73,-204.91 1424.5,-195.45 1414.87,-199.87 1419.73,-204.91"/>
<text text-anchor="middle" x="1432.35" y="-217.8" font-family="Times,serif" font-size="14.00">negated</text>
</g>
<!-- qualifiers -->
<g id="node15" class="node">
<title>qualifiers</title>
<ellipse fill="none" stroke="blue" cx="1580.35" cy="-178" rx="76.89" ry="18"/>
<text text-anchor="middle" x="1580.35" y="-174.3" font-family="Times,serif" font-size="14.00">ontology class</text>
</g>
<!-- association&#45;&gt;qualifiers -->
<g id="edge14" class="edge">
<title>association&#45;&gt;qualifiers</title>
<path fill="none" stroke="blue" d="M1181.06,-252.26C1190.05,-250.23 1199.46,-248.35 1208.35,-247 1321.55,-229.79 1354.13,-256.22 1465.35,-229 1492.18,-222.43 1520.66,-210.09 1542.57,-199.32"/>
<polygon fill="blue" stroke="blue" points="1544.16,-202.43 1551.53,-194.82 1541.02,-196.18 1544.16,-202.43"/>
<text text-anchor="middle" x="1541.85" y="-217.8" font-family="Times,serif" font-size="14.00">qualifiers</text>
</g>
<!-- publications -->
<g id="node16" class="node">
<title>publications</title>
<ellipse fill="none" stroke="blue" cx="1737.35" cy="-178" rx="62.29" ry="18"/>
<text text-anchor="middle" x="1737.35" y="-174.3" font-family="Times,serif" font-size="14.00">publication</text>
</g>
<!-- association&#45;&gt;publications -->
<g id="edge15" class="edge">
<title>association&#45;&gt;publications</title>
<path fill="none" stroke="blue" d="M1180.66,-252.19C1189.76,-250.15 1199.32,-248.27 1208.35,-247 1371.81,-223.94 1416.86,-258.15 1579.35,-229 1618.44,-221.99 1661.32,-208 1692.53,-196.59"/>
<polygon fill="blue" stroke="blue" points="1694.08,-199.75 1702.24,-192.99 1691.65,-193.19 1694.08,-199.75"/>
<text text-anchor="middle" x="1681.35" y="-217.8" font-family="Times,serif" font-size="14.00">publications</text>
</g>
<!-- has evidence -->
<g id="node17" class="node">
<title>has evidence</title>
<ellipse fill="none" stroke="blue" cx="1893.35" cy="-178" rx="75.29" ry="18"/>
<text text-anchor="middle" x="1893.35" y="-174.3" font-family="Times,serif" font-size="14.00">evidence type</text>
</g>
<!-- association&#45;&gt;has evidence -->
<g id="edge16" class="edge">
<title>association&#45;&gt;has evidence</title>
<path fill="none" stroke="blue" d="M1180.26,-252.18C1189.48,-250.11 1199.18,-248.23 1208.35,-247 1437.99,-216.23 1500.81,-267.11 1729.35,-229 1769.52,-222.3 1813.61,-208.48 1845.94,-197.06"/>
<polygon fill="blue" stroke="blue" points="1847.35,-200.27 1855.59,-193.6 1844.99,-193.68 1847.35,-200.27"/>
<text text-anchor="middle" x="1835.85" y="-217.8" font-family="Times,serif" font-size="14.00">has evidence</text>
</g>
<!-- type -->
<g id="node18" class="node">
<title>type</title>
<ellipse fill="none" stroke="black" cx="2018.35" cy="-178" rx="31.4" ry="18"/>
<text text-anchor="middle" x="2018.35" y="-174.3" font-family="Times,serif" font-size="14.00">type</text>
</g>
<!-- association&#45;&gt;type -->
<g id="edge17" class="edge">
<title>association&#45;&gt;type</title>
<path fill="none" stroke="blue" d="M1180.25,-252.12C1189.47,-250.06 1199.18,-248.19 1208.35,-247 1357.81,-227.58 1738.26,-257.05 1886.35,-229 1921.94,-222.26 1960.45,-206.63 1986.63,-194.62"/>
<polygon fill="blue" stroke="blue" points="1988.12,-197.79 1995.69,-190.39 1985.15,-191.45 1988.12,-197.79"/>
<text text-anchor="middle" x="1955.35" y="-217.8" font-family="Times,serif" font-size="14.00">type</text>
</g>
<!-- category -->
<g id="node20" class="node">
<title>category</title>
<ellipse fill="none" stroke="black" cx="2119.35" cy="-178" rx="51.19" ry="18"/>
<text text-anchor="middle" x="2119.35" y="-174.3" font-family="Times,serif" font-size="14.00">category</text>
</g>
<!-- association&#45;&gt;category -->
<g id="edge18" class="edge">
<title>association&#45;&gt;category</title>
<path fill="none" stroke="blue" d="M1180.25,-252.1C1189.47,-250.04 1199.17,-248.18 1208.35,-247 1377.45,-225.29 1807.57,-259.33 1975.35,-229 2011.57,-222.45 2050.94,-208.26 2079.35,-196.66"/>
<polygon fill="blue" stroke="blue" points="2081.03,-199.75 2088.92,-192.68 2078.34,-193.29 2081.03,-199.75"/>
<text text-anchor="middle" x="2063.85" y="-217.8" font-family="Times,serif" font-size="14.00">category</text>
</g>
<!-- subject&#45;&gt;object -->
<g id="edge19" class="edge">
<title>subject&#45;&gt;object</title>
<path fill="none" stroke="black" d="M1048.82,-162.58C1085.34,-148.14 1141.67,-125.87 1181.26,-110.22"/>
<polygon fill="black" stroke="black" points="1182.68,-113.42 1190.7,-106.49 1180.11,-106.91 1182.68,-113.42"/>
<text text-anchor="middle" x="1161.35" y="-130.8" font-family="Times,serif" font-size="14.00">relation</text>
</g>
<!-- subject&#45;&gt;relation -->
<g id="edge20" class="edge">
<title>subject&#45;&gt;relation</title>
<path fill="none" stroke="black" stroke-dasharray="1,5" d="M1032.83,-160.8C1059.22,-140.04 1106.68,-103.14 1148.35,-73 1164.44,-61.36 1182.73,-48.82 1197.65,-38.75"/>
<polygon fill="black" stroke="black" points="1199.66,-41.62 1206.01,-33.14 1195.76,-35.81 1199.66,-41.62"/>
</g>
<!-- object&#45;&gt;relation -->
<g id="edge21" class="edge">
<title>object&#45;&gt;relation</title>
<path fill="none" stroke="black" stroke-dasharray="1,5" d="M1227.35,-72.81C1227.35,-64.79 1227.35,-55.05 1227.35,-46.07"/>
<polygon fill="black" stroke="black" points="1230.85,-46.03 1227.35,-36.03 1223.85,-46.03 1230.85,-46.03"/>
</g>
<!-- association_type -->
<g id="node19" class="node">
<title>association_type</title>
<ellipse fill="none" stroke="blue" cx="1255.35" cy="-265" rx="38.19" ry="18"/>
<text text-anchor="middle" x="1255.35" y="-261.3" font-family="Times,serif" font-size="14.00">string</text>
</g>
<!-- association_category -->
<g id="node21" class="node">
<title>association_category</title>
<ellipse fill="none" stroke="blue" cx="1386.35" cy="-265" rx="74.99" ry="18"/>
<text text-anchor="middle" x="1386.35" y="-261.3" font-family="Times,serif" font-size="14.00">category type</text>
</g>
</g>
</svg>
