<?xml version="1.0" encoding="UTF-8" standalone="no"?>
<!DOCTYPE svg PUBLIC "-//W3C//DTD SVG 1.1//EN"
 "http://www.w3.org/Graphics/SVG/1.1/DTD/svg11.dtd">
<!-- Generated by graphviz version 2.40.1 (20161225.0304)
 -->
<!-- Title: %3 Pages: 1 -->
<svg width="2250pt" height="131pt"
 viewBox="0.00 0.00 2249.84 131.00" xmlns="http://www.w3.org/2000/svg" xmlns:xlink="http://www.w3.org/1999/xlink">
<g id="graph0" class="graph" transform="scale(1 1) rotate(0) translate(4 127)">
<title>%3</title>
<polygon fill="#ffffff" stroke="transparent" points="-4,4 -4,-127 2245.8414,-127 2245.8414,4 -4,4"/>
<!-- attribute -->
<g id="node1" class="node">
<title>attribute</title>
<ellipse fill="none" stroke="#000000" cx="1196.4446" cy="-105" rx="40.0939" ry="18"/>
<text text-anchor="middle" x="1196.4446" y="-101.3" font-family="Times,serif" font-size="14.00" fill="#000000">attribute</text>
</g>
<!-- abstract entity -->
<g id="node2" class="node">
<title>abstract entity</title>
<ellipse fill="none" stroke="#000000" cx="60.4446" cy="-18" rx="60.3893" ry="18"/>
<text text-anchor="middle" x="60.4446" y="-14.3" font-family="Times,serif" font-size="14.00" fill="#000000">abstract entity</text>
</g>
<!-- attribute&#45;&gt;abstract entity -->
<g id="edge1" class="edge">
<title>attribute&#45;&gt;abstract entity</title>
<path fill="none" stroke="#000000" d="M1155.978,-104.3473C1002.2327,-101.7215 454.3295,-90.9971 281.4446,-69 223.159,-61.584 157.7373,-45.4865 113.3001,-33.3474"/>
<polygon fill="#000000" stroke="#000000" points="114.1608,-29.9541 103.5899,-30.6665 112.2978,-36.7017 114.1608,-29.9541"/>
<text text-anchor="middle" x="292.4446" y="-57.8" font-family="Times,serif" font-size="14.00" fill="#000000">is_a</text>
</g>
<!-- ontology class -->
<g id="node3" class="node">
<title>ontology class</title>
<ellipse fill="none" stroke="#000000" cx="200.4446" cy="-18" rx="61.99" ry="18"/>
<text text-anchor="middle" x="200.4446" y="-14.3" font-family="Times,serif" font-size="14.00" fill="#000000">ontology class</text>
</g>
<!-- attribute&#45;&gt;ontology class -->
<g id="edge2" class="edge">
<title>attribute&#45;&gt;ontology class</title>
<path fill="none" stroke="#000000" d="M1155.8643,-104.5831C1011.3931,-102.889 522.5115,-95.3024 368.4446,-69 326.7408,-61.8803 280.8735,-47.4889 247.6168,-35.8039"/>
<polygon fill="#000000" stroke="#000000" points="248.7477,-32.4913 238.153,-32.4322 246.3984,-39.0854 248.7477,-32.4913"/>
<text text-anchor="middle" x="380.4446" y="-57.8" font-family="Times,serif" font-size="14.00" fill="#000000">uses</text>
</g>
<!-- has attribute type -->
<g id="node4" class="node">
<title>has attribute type</title>
<ellipse fill="none" stroke="#0000ff" cx="341.4446" cy="-18" rx="61.99" ry="18"/>
<text text-anchor="middle" x="341.4446" y="-14.3" font-family="Times,serif" font-size="14.00" fill="#000000">ontology class</text>
</g>
<!-- attribute&#45;&gt;has attribute type -->
<g id="edge3" class="edge">
<title>attribute&#45;&gt;has attribute type</title>
<path fill="none" stroke="#0000ff" d="M1156.1354,-104.2265C1008.0796,-101.2323 499.2639,-89.5367 429.4446,-69 409.005,-62.9879 388.2843,-51.314 372.0879,-40.6508"/>
<polygon fill="#0000ff" stroke="#0000ff" points="373.824,-37.5989 363.5858,-34.8731 369.8896,-43.3886 373.824,-37.5989"/>
<text text-anchor="middle" x="476.4446" y="-57.8" font-family="Times,serif" font-size="14.00" fill="#000000">has attribute type</text>
</g>
<!-- has quantitative value -->
<g id="node5" class="node">
<title>has quantitative value</title>
<ellipse fill="none" stroke="#0000ff" cx="482.4446" cy="-18" rx="61.1893" ry="18"/>
<text text-anchor="middle" x="482.4446" y="-14.3" font-family="Times,serif" font-size="14.00" fill="#000000">quantity value</text>
</g>
<!-- attribute&#45;&gt;has quantitative value -->
<g id="edge4" class="edge">
<title>attribute&#45;&gt;has quantitative value</title>
<path fill="none" stroke="#0000ff" d="M1155.8242,-104.0087C1023.78,-100.6079 611.9326,-88.5352 555.4446,-69 538.5448,-63.1556 522.0143,-52.1814 508.9692,-41.906"/>
<polygon fill="#0000ff" stroke="#0000ff" points="510.8833,-38.9493 500.9311,-35.3154 506.4449,-44.3624 510.8833,-38.9493"/>
<text text-anchor="middle" x="614.9446" y="-57.8" font-family="Times,serif" font-size="14.00" fill="#000000">has quantitative value</text>
</g>
<!-- has qualitative value -->
<g id="node6" class="node">
<title>has qualitative value</title>
<ellipse fill="none" stroke="#0000ff" cx="616.4446" cy="-18" rx="55.4913" ry="18"/>
<text text-anchor="middle" x="616.4446" y="-14.3" font-family="Times,serif" font-size="14.00" fill="#000000">named thing</text>
</g>
<!-- attribute&#45;&gt;has qualitative value -->
<g id="edge5" class="edge">
<title>attribute&#45;&gt;has qualitative value</title>
<path fill="none" stroke="#0000ff" d="M1156.1609,-104.0759C1055.8572,-101.4416 797.0719,-92.5091 714.4446,-69 691.7193,-62.5342 668.1726,-50.4818 649.8571,-39.7166"/>
<polygon fill="#0000ff" stroke="#0000ff" points="651.4214,-36.5727 641.051,-34.4036 647.8052,-42.5664 651.4214,-36.5727"/>
<text text-anchor="middle" x="770.4446" y="-57.8" font-family="Times,serif" font-size="14.00" fill="#000000">has qualitative value</text>
</g>
<!-- id -->
<g id="node7" class="node">
<title>id</title>
<ellipse fill="none" stroke="#0000ff" cx="720.4446" cy="-18" rx="30.5947" ry="18"/>
<text text-anchor="middle" x="720.4446" y="-14.3" font-family="Times,serif" font-size="14.00" fill="#000000">string</text>
</g>
<!-- attribute&#45;&gt;id -->
<g id="edge6" class="edge">
<title>attribute&#45;&gt;id</title>
<path fill="none" stroke="#0000ff" d="M1156.3932,-102.8537C1078.4149,-97.7683 901.4972,-81.7666 760.4446,-36 758.1833,-35.2663 755.8787,-34.4438 753.5749,-33.5652"/>
<polygon fill="#0000ff" stroke="#0000ff" points="754.8022,-30.2856 744.2225,-29.7203 752.1406,-36.7598 754.8022,-30.2856"/>
<text text-anchor="middle" x="894.9446" y="-57.8" font-family="Times,serif" font-size="14.00" fill="#000000">id</text>
</g>
<!-- name -->
<g id="node8" class="node">
<title>name</title>
<ellipse fill="none" stroke="#0000ff" cx="814.4446" cy="-18" rx="45.4919" ry="18"/>
<text text-anchor="middle" x="814.4446" y="-14.3" font-family="Times,serif" font-size="14.00" fill="#000000">label type</text>
</g>
<!-- attribute&#45;&gt;name -->
<g id="edge7" class="edge">
<title>attribute&#45;&gt;name</title>
<path fill="none" stroke="#0000ff" d="M1158.1075,-99.0577C1117.5299,-92.5526 1051.7055,-81.3855 995.4446,-69 938.9096,-56.5541 924.9784,-52.3436 869.4446,-36 866.0652,-35.0054 862.5798,-33.9457 859.0808,-32.8572"/>
<polygon fill="#0000ff" stroke="#0000ff" points="859.8507,-29.4296 849.2605,-29.7439 857.7352,-36.1024 859.8507,-29.4296"/>
<text text-anchor="middle" x="1010.9446" y="-57.8" font-family="Times,serif" font-size="14.00" fill="#000000">name</text>
</g>
<!-- category -->
<g id="node9" class="node">
<title>category</title>
<ellipse fill="none" stroke="#0000ff" cx="936.4446" cy="-18" rx="58.4896" ry="18"/>
<text text-anchor="middle" x="936.4446" y="-14.3" font-family="Times,serif" font-size="14.00" fill="#000000">category type</text>
</g>
<!-- attribute&#45;&gt;category -->
<g id="edge8" class="edge">
<title>attribute&#45;&gt;category</title>
<path fill="none" stroke="#0000ff" d="M1161.4372,-95.8597C1136.0161,-89.0137 1100.8843,-79.1206 1070.4446,-69 1040.4936,-59.0418 1007.3378,-46.4363 981.5,-36.2491"/>
<polygon fill="#0000ff" stroke="#0000ff" points="982.5638,-32.9059 971.9777,-32.4737 979.9838,-39.4131 982.5638,-32.9059"/>
<text text-anchor="middle" x="1093.9446" y="-57.8" font-family="Times,serif" font-size="14.00" fill="#000000">category</text>
</g>
<!-- related to -->
<g id="node10" class="node">
<title>related to</title>
<ellipse fill="none" stroke="#0000ff" cx="1068.4446" cy="-18" rx="55.4913" ry="18"/>
<text text-anchor="middle" x="1068.4446" y="-14.3" font-family="Times,serif" font-size="14.00" fill="#000000">named thing</text>
</g>
<!-- attribute&#45;&gt;related to -->
<g id="edge9" class="edge">
<title>attribute&#45;&gt;related to</title>
<path fill="none" stroke="#0000ff" d="M1172.8592,-90.1694C1162.803,-83.7607 1150.9818,-76.1137 1140.4446,-69 1126.9315,-59.8773 1112.2087,-49.5243 1099.6182,-40.5412"/>
<polygon fill="#0000ff" stroke="#0000ff" points="1101.4516,-37.5492 1091.2834,-34.5728 1097.3762,-43.2405 1101.4516,-37.5492"/>
<text text-anchor="middle" x="1166.4446" y="-57.8" font-family="Times,serif" font-size="14.00" fill="#000000">related to</text>
</g>
<!-- interacts with -->
<g id="node11" class="node">
<title>interacts with</title>
<ellipse fill="none" stroke="#0000ff" cx="1196.4446" cy="-18" rx="55.4913" ry="18"/>
<text text-anchor="middle" x="1196.4446" y="-14.3" font-family="Times,serif" font-size="14.00" fill="#000000">named thing</text>
</g>
<!-- attribute&#45;&gt;interacts with -->
<g id="edge10" class="edge">
<title>attribute&#45;&gt;interacts with</title>
<path fill="none" stroke="#0000ff" d="M1196.4446,-86.9735C1196.4446,-75.1918 1196.4446,-59.5607 1196.4446,-46.1581"/>
<polygon fill="#0000ff" stroke="#0000ff" points="1199.9447,-46.0033 1196.4446,-36.0034 1192.9447,-46.0034 1199.9447,-46.0033"/>
<text text-anchor="middle" x="1233.4446" y="-57.8" font-family="Times,serif" font-size="14.00" fill="#000000">interacts with</text>
</g>
<!-- correlated with -->
<g id="node12" class="node">
<title>correlated with</title>
<ellipse fill="none" stroke="#0000ff" cx="1324.4446" cy="-18" rx="55.4913" ry="18"/>
<text text-anchor="middle" x="1324.4446" y="-14.3" font-family="Times,serif" font-size="14.00" fill="#000000">named thing</text>
</g>
<!-- attribute&#45;&gt;correlated with -->
<g id="edge11" class="edge">
<title>attribute&#45;&gt;correlated with</title>
<path fill="none" stroke="#0000ff" d="M1227.8438,-93.5754C1242.6623,-87.4349 1260.1805,-79.0515 1274.4446,-69 1284.7927,-61.7081 1294.8392,-52.121 1303.179,-43.2291"/>
<polygon fill="#0000ff" stroke="#0000ff" points="1305.9093,-45.4285 1310.0332,-35.6691 1300.7234,-40.7267 1305.9093,-45.4285"/>
<text text-anchor="middle" x="1332.4446" y="-57.8" font-family="Times,serif" font-size="14.00" fill="#000000">correlated with</text>
</g>
<!-- node property -->
<g id="node13" class="node">
<title>node property</title>
<ellipse fill="none" stroke="#0000ff" cx="1428.4446" cy="-18" rx="30.5947" ry="18"/>
<text text-anchor="middle" x="1428.4446" y="-14.3" font-family="Times,serif" font-size="14.00" fill="#000000">string</text>
</g>
<!-- attribute&#45;&gt;node property -->
<g id="edge12" class="edge">
<title>attribute&#45;&gt;node property</title>
<path fill="none" stroke="#0000ff" d="M1235.4669,-99.9439C1281.067,-93.569 1353.3563,-81.8752 1377.4446,-69 1389.5231,-62.544 1400.5901,-52.2952 1409.3052,-42.6728"/>
<polygon fill="#0000ff" stroke="#0000ff" points="1412.1786,-44.6993 1416.0432,-34.8345 1406.8703,-40.1362 1412.1786,-44.6993"/>
<text text-anchor="middle" x="1435.4446" y="-57.8" font-family="Times,serif" font-size="14.00" fill="#000000">node property</text>
</g>
<!-- iri -->
<g id="node14" class="node">
<title>iri</title>
<ellipse fill="none" stroke="#0000ff" cx="1513.4446" cy="-18" rx="36.2938" ry="18"/>
<text text-anchor="middle" x="1513.4446" y="-14.3" font-family="Times,serif" font-size="14.00" fill="#000000">iri type</text>
</g>
<!-- attribute&#45;&gt;iri -->
<g id="edge13" class="edge">
<title>attribute&#45;&gt;iri</title>
<path fill="none" stroke="#0000ff" d="M1236.7362,-103.7862C1304.5019,-101.102 1437.7803,-92.8719 1477.4446,-69 1487.1555,-63.1555 1494.9401,-53.5752 1500.7517,-44.2867"/>
<polygon fill="#0000ff" stroke="#0000ff" points="1503.7921,-46.0205 1505.7175,-35.602 1497.7153,-42.5458 1503.7921,-46.0205"/>
<text text-anchor="middle" x="1500.9446" y="-57.8" font-family="Times,serif" font-size="14.00" fill="#000000">iri</text>
</g>
<!-- synonym -->
<g id="node15" class="node">
<title>synonym</title>
<ellipse fill="none" stroke="#0000ff" cx="1613.4446" cy="-18" rx="45.4919" ry="18"/>
<text text-anchor="middle" x="1613.4446" y="-14.3" font-family="Times,serif" font-size="14.00" fill="#000000">label type</text>
</g>
<!-- attribute&#45;&gt;synonym -->
<g id="edge14" class="edge">
<title>attribute&#45;&gt;synonym</title>
<path fill="none" stroke="#0000ff" d="M1236.4503,-102.1748C1309.3251,-96.7395 1460.856,-84.0258 1511.4446,-69 1535.5295,-61.8463 1560.8006,-49.2527 1580.1634,-38.3703"/>
<polygon fill="#0000ff" stroke="#0000ff" points="1581.9625,-41.3733 1588.8902,-33.3571 1578.4757,-35.3035 1581.9625,-41.3733"/>
<text text-anchor="middle" x="1574.9446" y="-57.8" font-family="Times,serif" font-size="14.00" fill="#000000">synonym</text>
</g>
<!-- full name -->
<g id="node16" class="node">
<title>full name</title>
<ellipse fill="none" stroke="#0000ff" cx="1722.4446" cy="-18" rx="45.4919" ry="18"/>
<text text-anchor="middle" x="1722.4446" y="-14.3" font-family="Times,serif" font-size="14.00" fill="#000000">label type</text>
</g>
<!-- attribute&#45;&gt;full name -->
<g id="edge15" class="edge">
<title>attribute&#45;&gt;full name</title>
<path fill="none" stroke="#0000ff" d="M1236.5777,-103.0912C1325.2629,-98.6085 1535.5113,-86.4534 1604.4446,-69 1632.9673,-61.7783 1663.4071,-48.469 1686.2251,-37.2575"/>
<polygon fill="#0000ff" stroke="#0000ff" points="1687.8232,-40.3716 1695.1975,-32.7643 1684.6888,-34.1126 1687.8232,-40.3716"/>
<text text-anchor="middle" x="1674.9446" y="-57.8" font-family="Times,serif" font-size="14.00" fill="#000000">full name</text>
</g>
<!-- description -->
<g id="node17" class="node">
<title>description</title>
<ellipse fill="none" stroke="#0000ff" cx="1843.4446" cy="-18" rx="57.6901" ry="18"/>
<text text-anchor="middle" x="1843.4446" y="-14.3" font-family="Times,serif" font-size="14.00" fill="#000000">narrative text</text>
</g>
<!-- attribute&#45;&gt;description -->
<g id="edge16" class="edge">
<title>attribute&#45;&gt;description</title>
<path fill="none" stroke="#0000ff" d="M1236.9025,-103.6169C1341.0131,-99.8212 1616.2468,-88.2267 1705.4446,-69 1738.69,-61.8339 1774.6839,-48.3259 1801.5739,-37.0114"/>
<polygon fill="#0000ff" stroke="#0000ff" points="1803.2301,-40.1098 1811.0469,-32.958 1800.4763,-33.6742 1803.2301,-40.1098"/>
<text text-anchor="middle" x="1786.9446" y="-57.8" font-family="Times,serif" font-size="14.00" fill="#000000">description</text>
</g>
<!-- systematic synonym -->
<g id="node18" class="node">
<title>systematic synonym</title>
<ellipse fill="none" stroke="#0000ff" cx="1964.4446" cy="-18" rx="45.4919" ry="18"/>
<text text-anchor="middle" x="1964.4446" y="-14.3" font-family="Times,serif" font-size="14.00" fill="#000000">label type</text>
</g>
<!-- attribute&#45;&gt;systematic synonym -->
<g id="edge17" class="edge">
<title>attribute&#45;&gt;systematic synonym</title>
<path fill="none" stroke="#0000ff" d="M1236.7477,-104.1758C1356.5178,-101.4901 1708.9339,-91.8139 1821.4446,-69 1857.3773,-61.7139 1896.4804,-47.2886 1924.6998,-35.6335"/>
<polygon fill="#0000ff" stroke="#0000ff" points="1926.3392,-38.7412 1934.2045,-31.6427 1923.6292,-32.2871 1926.3392,-38.7412"/>
<text text-anchor="middle" x="1930.4446" y="-57.8" font-family="Times,serif" font-size="14.00" fill="#000000">systematic synonym</text>
</g>
<!-- subclass of -->
<g id="node19" class="node">
<title>subclass of</title>
<ellipse fill="none" stroke="#0000ff" cx="2089.4446" cy="-18" rx="61.99" ry="18"/>
<text text-anchor="middle" x="2089.4446" y="-14.3" font-family="Times,serif" font-size="14.00" fill="#000000">ontology class</text>
</g>
<!-- attribute&#45;&gt;subclass of -->
<g id="edge18" class="edge">
<title>attribute&#45;&gt;subclass of</title>
<path fill="none" stroke="#0000ff" d="M1236.8337,-104.1808C1388.2726,-100.9706 1917.4447,-88.4588 1990.4446,-69 2013.5633,-62.8375 2037.4647,-50.7155 2055.9898,-39.8357"/>
<polygon fill="#0000ff" stroke="#0000ff" points="2057.8706,-42.7886 2064.625,-34.626 2054.2546,-36.7949 2057.8706,-42.7886"/>
<text text-anchor="middle" x="2058.9446" y="-57.8" font-family="Times,serif" font-size="14.00" fill="#000000">subclass of</text>
</g>
<!-- superclass of -->
<g id="node20" class="node">
<title>superclass of</title>
<ellipse fill="none" stroke="#0000ff" cx="2205.4446" cy="-18" rx="36.2938" ry="18"/>
<text text-anchor="middle" x="2205.4446" y="-14.3" font-family="Times,serif" font-size="14.00" fill="#000000">iri type</text>
</g>
<!-- attribute&#45;&gt;superclass of -->
<g id="edge19" class="edge">
<title>attribute&#45;&gt;superclass of</title>
<path fill="none" stroke="#0000ff" d="M1236.9059,-104.2937C1400.6704,-101.3099 2009.5812,-88.9642 2093.4446,-69 2121.6338,-62.2894 2151.3899,-48.3749 2173.1407,-36.7729"/>
<polygon fill="#0000ff" stroke="#0000ff" points="2174.842,-39.8318 2181.9444,-31.97 2171.4896,-33.6868 2174.842,-39.8318"/>
<text text-anchor="middle" x="2169.9446" y="-57.8" font-family="Times,serif" font-size="14.00" fill="#000000">superclass of</text>
</g>
</g>
</svg>
