<?xml version="1.0" encoding="UTF-8" standalone="no"?>
<!DOCTYPE svg PUBLIC "-//W3C//DTD SVG 1.1//EN"
 "http://www.w3.org/Graphics/SVG/1.1/DTD/svg11.dtd">
<!-- Generated by graphviz version 2.43.0 (0)
 -->
<!-- Title: %3 Pages: 1 -->
<svg width="1886pt" height="131pt"
 viewBox="0.00 0.00 1885.74 131.00" xmlns="http://www.w3.org/2000/svg" xmlns:xlink="http://www.w3.org/1999/xlink">
<g id="graph0" class="graph" transform="scale(1 1) rotate(0) translate(4 127)">
<title>%3</title>
<polygon fill="white" stroke="transparent" points="-4,4 -4,-127 1881.74,-127 1881.74,4 -4,4"/>
<!-- attribute -->
<g id="node1" class="node">
<title>attribute</title>
<ellipse fill="none" stroke="black" cx="906.54" cy="-105" rx="51.99" ry="18"/>
<text text-anchor="middle" x="906.54" y="-101.3" font-family="Times,serif" font-size="14.00">attribute</text>
</g>
<!-- named thing -->
<g id="node2" class="node">
<title>named thing</title>
<ellipse fill="none" stroke="black" cx="69.54" cy="-18" rx="69.59" ry="18"/>
<text text-anchor="middle" x="69.54" y="-14.3" font-family="Times,serif" font-size="14.00">named thing</text>
</g>
<!-- attribute&#45;&gt;named thing -->
<g id="edge1" class="edge">
<title>attribute&#45;&gt;named thing</title>
<path fill="none" stroke="black" d="M854.64,-102.92C753.34,-100.35 522.34,-92.24 329.54,-69 260.09,-60.63 181.33,-44.54 128.87,-32.87"/>
<polygon fill="black" stroke="black" points="129.59,-29.44 119.06,-30.67 128.05,-36.27 129.59,-29.44"/>
<text text-anchor="middle" x="343.54" y="-57.8" font-family="Times,serif" font-size="14.00">is_a</text>
</g>
<!-- ontology class -->
<g id="node3" class="node">
<title>ontology class</title>
<ellipse fill="none" stroke="black" cx="233.54" cy="-18" rx="76.89" ry="18"/>
<text text-anchor="middle" x="233.54" y="-14.3" font-family="Times,serif" font-size="14.00">ontology class</text>
</g>
<!-- attribute&#45;&gt;ontology class -->
<g id="edge2" class="edge">
<title>attribute&#45;&gt;ontology class</title>
<path fill="none" stroke="black" d="M854.76,-103.06C767.39,-100.83 585.37,-93.41 433.54,-69 383.86,-61.01 328.43,-46.72 288.55,-35.45"/>
<polygon fill="black" stroke="black" points="289.33,-32.04 278.76,-32.66 287.41,-38.77 289.33,-32.04"/>
<text text-anchor="middle" x="450.04" y="-57.8" font-family="Times,serif" font-size="14.00">uses</text>
</g>
<!-- id -->
<g id="node4" class="node">
<title>id</title>
<ellipse fill="none" stroke="blue" cx="366.54" cy="-18" rx="38.19" ry="18"/>
<text text-anchor="middle" x="366.54" y="-14.3" font-family="Times,serif" font-size="14.00">string</text>
</g>
<!-- attribute&#45;&gt;id -->
<g id="edge3" class="edge">
<title>attribute&#45;&gt;id</title>
<path fill="none" stroke="blue" d="M854.9,-102.26C781.88,-99.11 644.53,-90.64 529.54,-69 486.05,-60.81 437.75,-45.13 405.1,-33.5"/>
<polygon fill="blue" stroke="blue" points="406.09,-30.14 395.5,-30.04 403.71,-36.72 406.09,-30.14"/>
<text text-anchor="middle" x="536.54" y="-57.8" font-family="Times,serif" font-size="14.00">id</text>
</g>
<!-- type -->
<g id="node5" class="node">
<title>type</title>
<ellipse fill="none" stroke="blue" cx="461.54" cy="-18" rx="38.19" ry="18"/>
<text text-anchor="middle" x="461.54" y="-14.3" font-family="Times,serif" font-size="14.00">string</text>
</g>
<!-- attribute&#45;&gt;type -->
<g id="edge4" class="edge">
<title>attribute&#45;&gt;type</title>
<path fill="none" stroke="blue" d="M854.97,-102.06C792.73,-98.84 685.25,-90.44 595.54,-69 561.34,-60.83 523.98,-46.4 497.41,-35.13"/>
<polygon fill="blue" stroke="blue" points="498.71,-31.88 488.14,-31.14 495.94,-38.31 498.71,-31.88"/>
<text text-anchor="middle" x="611.54" y="-57.8" font-family="Times,serif" font-size="14.00">type</text>
</g>
<!-- description -->
<g id="node6" class="node">
<title>description</title>
<ellipse fill="none" stroke="blue" cx="593.54" cy="-18" rx="75.29" ry="18"/>
<text text-anchor="middle" x="593.54" y="-14.3" font-family="Times,serif" font-size="14.00">narrative text</text>
</g>
<!-- attribute&#45;&gt;description -->
<g id="edge5" class="edge">
<title>attribute&#45;&gt;description</title>
<path fill="none" stroke="blue" d="M854.38,-104.73C802.04,-103.65 720.15,-96.97 655.54,-69 641.25,-62.81 627.53,-52.39 616.64,-42.65"/>
<polygon fill="blue" stroke="blue" points="618.95,-40.02 609.25,-35.76 614.18,-45.14 618.95,-40.02"/>
<text text-anchor="middle" x="696.04" y="-57.8" font-family="Times,serif" font-size="14.00">description</text>
</g>
<!-- has attribute -->
<g id="node7" class="node">
<title>has attribute</title>
<ellipse fill="none" stroke="blue" cx="738.54" cy="-18" rx="51.99" ry="18"/>
<text text-anchor="middle" x="738.54" y="-14.3" font-family="Times,serif" font-size="14.00">attribute</text>
</g>
<!-- attribute&#45;&gt;has attribute -->
<g id="edge6" class="edge">
<title>attribute&#45;&gt;has attribute</title>
<path fill="none" stroke="blue" d="M857.32,-99.13C816.4,-94.04 762.54,-84.58 747.54,-69 741.78,-63.01 739.04,-54.66 737.88,-46.49"/>
<polygon fill="blue" stroke="blue" points="741.37,-46.16 737.14,-36.44 734.38,-46.67 741.37,-46.16"/>
<text text-anchor="middle" x="794.54" y="-57.8" font-family="Times,serif" font-size="14.00">has attribute</text>
</g>
<!-- provided by -->
<g id="node8" class="node">
<title>provided by</title>
<ellipse fill="none" stroke="blue" cx="846.54" cy="-18" rx="38.19" ry="18"/>
<text text-anchor="middle" x="846.54" y="-14.3" font-family="Times,serif" font-size="14.00">string</text>
</g>
<!-- attribute&#45;&gt;provided by -->
<g id="edge7" class="edge">
<title>attribute&#45;&gt;provided by</title>
<path fill="none" stroke="blue" d="M873.7,-90.94C864.33,-85.57 855.16,-78.36 849.54,-69 845.55,-62.33 843.98,-54.23 843.62,-46.5"/>
<polygon fill="blue" stroke="blue" points="847.12,-46.42 843.78,-36.37 840.13,-46.31 847.12,-46.42"/>
<text text-anchor="middle" x="892.04" y="-57.8" font-family="Times,serif" font-size="14.00">provided by</text>
</g>
<!-- xref -->
<g id="node9" class="node">
<title>xref</title>
<ellipse fill="none" stroke="blue" cx="960.54" cy="-18" rx="57.39" ry="18"/>
<text text-anchor="middle" x="960.54" y="-14.3" font-family="Times,serif" font-size="14.00">uriorcurie</text>
</g>
<!-- attribute&#45;&gt;xref -->
<g id="edge8" class="edge">
<title>attribute&#45;&gt;xref</title>
<path fill="none" stroke="blue" d="M923.36,-87.83C928.65,-82.2 934.23,-75.62 938.54,-69 943.28,-61.74 947.43,-53.29 950.82,-45.42"/>
<polygon fill="blue" stroke="blue" points="954.17,-46.49 954.69,-35.91 947.68,-43.85 954.17,-46.49"/>
<text text-anchor="middle" x="962.04" y="-57.8" font-family="Times,serif" font-size="14.00">xref</text>
</g>
<!-- category -->
<g id="node10" class="node">
<title>category</title>
<ellipse fill="none" stroke="black" cx="1087.54" cy="-18" rx="51.19" ry="18"/>
<text text-anchor="middle" x="1087.54" y="-14.3" font-family="Times,serif" font-size="14.00">category</text>
</g>
<!-- attribute&#45;&gt;category -->
<g id="edge9" class="edge">
<title>attribute&#45;&gt;category</title>
<path fill="none" stroke="blue" d="M936.03,-90.15C966.79,-75.71 1015.17,-52.99 1048.96,-37.12"/>
<polygon fill="blue" stroke="blue" points="1050.51,-40.26 1058.07,-32.84 1047.53,-33.92 1050.51,-40.26"/>
<text text-anchor="middle" x="1040.04" y="-57.8" font-family="Times,serif" font-size="14.00">category</text>
</g>
<!-- name -->
<g id="node12" class="node">
<title>name</title>
<ellipse fill="none" stroke="black" cx="1193.54" cy="-18" rx="36.29" ry="18"/>
<text text-anchor="middle" x="1193.54" y="-14.3" font-family="Times,serif" font-size="14.00">name</text>
</g>
<!-- attribute&#45;&gt;name -->
<g id="edge10" class="edge">
<title>attribute&#45;&gt;name</title>
<path fill="none" stroke="blue" d="M944.78,-92.67C952.29,-90.64 960.14,-88.64 967.54,-87 1015.05,-76.45 1028.82,-82.59 1075.54,-69 1104.84,-60.48 1136.6,-46.75 1159.79,-35.82"/>
<polygon fill="blue" stroke="blue" points="1161.34,-38.96 1168.85,-31.49 1158.32,-32.65 1161.34,-38.96"/>
<text text-anchor="middle" x="1135.54" y="-57.8" font-family="Times,serif" font-size="14.00">name</text>
</g>
<!-- has attribute type -->
<g id="node14" class="node">
<title>has attribute type</title>
<ellipse fill="none" stroke="blue" cx="1324.54" cy="-18" rx="76.89" ry="18"/>
<text text-anchor="middle" x="1324.54" y="-14.3" font-family="Times,serif" font-size="14.00">ontology class</text>
</g>
<!-- attribute&#45;&gt;has attribute type -->
<g id="edge11" class="edge">
<title>attribute&#45;&gt;has attribute type</title>
<path fill="none" stroke="blue" d="M944.04,-92.42C951.76,-90.36 959.87,-88.42 967.54,-87 1051.83,-71.43 1075.44,-85.51 1159.54,-69 1199.07,-61.24 1242.64,-47.82 1275.07,-36.84"/>
<polygon fill="blue" stroke="blue" points="1276.44,-40.07 1284.77,-33.52 1274.17,-33.45 1276.44,-40.07"/>
<text text-anchor="middle" x="1284.54" y="-57.8" font-family="Times,serif" font-size="14.00">has attribute type</text>
</g>
<!-- has quantitative value -->
<g id="node15" class="node">
<title>has quantitative value</title>
<ellipse fill="none" stroke="blue" cx="1496.54" cy="-18" rx="77.19" ry="18"/>
<text text-anchor="middle" x="1496.54" y="-14.3" font-family="Times,serif" font-size="14.00">quantity value</text>
</g>
<!-- attribute&#45;&gt;has quantitative value -->
<g id="edge12" class="edge">
<title>attribute&#45;&gt;has quantitative value</title>
<path fill="none" stroke="blue" d="M943.67,-92.22C951.48,-90.15 959.73,-88.25 967.54,-87 1137.11,-59.77 1184.94,-101.68 1353.54,-69 1387.73,-62.37 1424.8,-49.23 1452.63,-38.08"/>
<polygon fill="blue" stroke="blue" points="1454.13,-41.25 1462.07,-34.23 1451.49,-34.77 1454.13,-41.25"/>
<text text-anchor="middle" x="1486.54" y="-57.8" font-family="Times,serif" font-size="14.00">has quantitative value</text>
</g>
<!-- has qualitative value -->
<g id="node16" class="node">
<title>has qualitative value</title>
<ellipse fill="none" stroke="blue" cx="1661.54" cy="-18" rx="69.59" ry="18"/>
<text text-anchor="middle" x="1661.54" y="-14.3" font-family="Times,serif" font-size="14.00">named thing</text>
</g>
<!-- attribute&#45;&gt;has qualitative value -->
<g id="edge13" class="edge">
<title>attribute&#45;&gt;has qualitative value</title>
<path fill="none" stroke="blue" d="M943.33,-92.21C951.24,-90.11 959.61,-88.21 967.54,-87 1100.08,-66.86 1441.2,-104.26 1570.54,-69 1591.82,-63.2 1613.55,-51.52 1630.43,-40.91"/>
<polygon fill="blue" stroke="blue" points="1632.79,-43.55 1639.28,-35.17 1628.98,-37.68 1632.79,-43.55"/>
<text text-anchor="middle" x="1682.04" y="-57.8" font-family="Times,serif" font-size="14.00">has qualitative value</text>
</g>
<!-- iri -->
<g id="node17" class="node">
<title>iri</title>
<ellipse fill="none" stroke="blue" cx="1833.54" cy="-18" rx="44.39" ry="18"/>
<text text-anchor="middle" x="1833.54" y="-14.3" font-family="Times,serif" font-size="14.00">iri type</text>
</g>
<!-- attribute&#45;&gt;iri -->
<g id="edge14" class="edge">
<title>attribute&#45;&gt;iri</title>
<path fill="none" stroke="blue" d="M943.32,-92.16C951.23,-90.07 959.61,-88.18 967.54,-87 1054.72,-74.07 1676.65,-96.02 1760.54,-69 1778.34,-63.27 1795.72,-51.68 1809.05,-41.1"/>
<polygon fill="blue" stroke="blue" points="1811.32,-43.77 1816.8,-34.71 1806.86,-38.38 1811.32,-43.77"/>
<text text-anchor="middle" x="1798.54" y="-57.8" font-family="Times,serif" font-size="14.00">iri</text>
</g>
<!-- named thing_category -->
<g id="node11" class="node">
<title>named thing_category</title>
<ellipse fill="none" stroke="blue" cx="1051.54" cy="-105" rx="74.99" ry="18"/>
<text text-anchor="middle" x="1051.54" y="-101.3" font-family="Times,serif" font-size="14.00">category type</text>
</g>
<!-- attribute_name -->
<g id="node13" class="node">
<title>attribute_name</title>
<ellipse fill="none" stroke="blue" cx="1200.54" cy="-105" rx="56.59" ry="18"/>
<text text-anchor="middle" x="1200.54" y="-101.3" font-family="Times,serif" font-size="14.00">label type</text>
</g>
</g>
</svg>
