<?xml version="1.0" encoding="UTF-8" standalone="no"?>
<!DOCTYPE svg PUBLIC "-//W3C//DTD SVG 1.1//EN"
 "http://www.w3.org/Graphics/SVG/1.1/DTD/svg11.dtd">
<!-- Generated by graphviz version 2.43.0 (0)
 -->
<!-- Title: %3 Pages: 1 -->
<svg width="1988pt" height="131pt"
 viewBox="0.00 0.00 1988.24 131.00" xmlns="http://www.w3.org/2000/svg" xmlns:xlink="http://www.w3.org/1999/xlink">
<g id="graph0" class="graph" transform="scale(1 1) rotate(0) translate(4 127)">
<title>%3</title>
<polygon fill="white" stroke="transparent" points="-4,4 -4,-127 1984.24,-127 1984.24,4 -4,4"/>
<!-- behavioral exposure -->
<g id="node1" class="node">
<title>behavioral exposure</title>
<ellipse fill="none" stroke="black" cx="937" cy="-105" rx="104.78" ry="18"/>
<text text-anchor="middle" x="937" y="-101.3" font-family="Times,serif" font-size="14.00">behavioral exposure</text>
</g>
<!-- attribute -->
<g id="node2" class="node">
<title>attribute</title>
<ellipse fill="none" stroke="black" cx="52" cy="-18" rx="51.99" ry="18"/>
<text text-anchor="middle" x="52" y="-14.3" font-family="Times,serif" font-size="14.00">attribute</text>
</g>
<!-- behavioral exposure&#45;&gt;attribute -->
<g id="edge1" class="edge">
<title>behavioral exposure&#45;&gt;attribute</title>
<path fill="none" stroke="black" d="M833.68,-101.88C708.46,-98.48 491.2,-89.9 306,-69 219.52,-59.24 197.91,-55.04 113,-36 108.83,-35.07 104.53,-34.03 100.22,-32.93"/>
<polygon fill="black" stroke="black" points="100.8,-29.46 90.24,-30.3 99.02,-36.23 100.8,-29.46"/>
<text text-anchor="middle" x="320" y="-57.8" font-family="Times,serif" font-size="14.00">is_a</text>
</g>
<!-- exposure event -->
<g id="node3" class="node">
<title>exposure event</title>
<ellipse fill="none" stroke="black" cx="204" cy="-18" rx="81.79" ry="18"/>
<text text-anchor="middle" x="204" y="-14.3" font-family="Times,serif" font-size="14.00">exposure event</text>
</g>
<!-- behavioral exposure&#45;&gt;exposure event -->
<g id="edge2" class="edge">
<title>behavioral exposure&#45;&gt;exposure event</title>
<path fill="none" stroke="black" d="M833.53,-102.21C727.43,-99.18 557.9,-91.01 413,-69 360.92,-61.09 302.72,-46.7 260.98,-35.38"/>
<polygon fill="black" stroke="black" points="261.84,-31.98 251.28,-32.72 260,-38.74 261.84,-31.98"/>
<text text-anchor="middle" x="429.5" y="-57.8" font-family="Times,serif" font-size="14.00">uses</text>
</g>
<!-- id -->
<g id="node4" class="node">
<title>id</title>
<ellipse fill="none" stroke="blue" cx="342" cy="-18" rx="38.19" ry="18"/>
<text text-anchor="middle" x="342" y="-14.3" font-family="Times,serif" font-size="14.00">string</text>
</g>
<!-- behavioral exposure&#45;&gt;id -->
<g id="edge3" class="edge">
<title>behavioral exposure&#45;&gt;id</title>
<path fill="none" stroke="blue" d="M834.94,-100.98C748,-97.14 620.04,-88.47 510,-69 464.58,-60.97 414.07,-44.92 380.4,-33.17"/>
<polygon fill="blue" stroke="blue" points="381.54,-29.86 370.95,-29.82 379.21,-36.46 381.54,-29.86"/>
<text text-anchor="middle" x="517" y="-57.8" font-family="Times,serif" font-size="14.00">id</text>
</g>
<!-- type -->
<g id="node5" class="node">
<title>type</title>
<ellipse fill="none" stroke="blue" cx="437" cy="-18" rx="38.19" ry="18"/>
<text text-anchor="middle" x="437" y="-14.3" font-family="Times,serif" font-size="14.00">string</text>
</g>
<!-- behavioral exposure&#45;&gt;type -->
<g id="edge4" class="edge">
<title>behavioral exposure&#45;&gt;type</title>
<path fill="none" stroke="blue" d="M835.29,-100.56C763.07,-96.54 664.21,-87.84 579,-69 542.24,-60.88 501.9,-46.07 473.64,-34.67"/>
<polygon fill="blue" stroke="blue" points="474.75,-31.34 464.17,-30.79 472.1,-37.82 474.75,-31.34"/>
<text text-anchor="middle" x="595" y="-57.8" font-family="Times,serif" font-size="14.00">type</text>
</g>
<!-- description -->
<g id="node6" class="node">
<title>description</title>
<ellipse fill="none" stroke="blue" cx="569" cy="-18" rx="75.29" ry="18"/>
<text text-anchor="middle" x="569" y="-14.3" font-family="Times,serif" font-size="14.00">narrative text</text>
</g>
<!-- behavioral exposure&#45;&gt;description -->
<g id="edge5" class="edge">
<title>behavioral exposure&#45;&gt;description</title>
<path fill="none" stroke="blue" d="M841.4,-97.62C769.48,-91.89 677.48,-82.33 642,-69 625.36,-62.75 608.86,-51.94 595.76,-41.97"/>
<polygon fill="blue" stroke="blue" points="597.7,-39.04 587.68,-35.59 593.36,-44.54 597.7,-39.04"/>
<text text-anchor="middle" x="682.5" y="-57.8" font-family="Times,serif" font-size="14.00">description</text>
</g>
<!-- has attribute -->
<g id="node7" class="node">
<title>has attribute</title>
<ellipse fill="none" stroke="blue" cx="714" cy="-18" rx="51.99" ry="18"/>
<text text-anchor="middle" x="714" y="-14.3" font-family="Times,serif" font-size="14.00">attribute</text>
</g>
<!-- behavioral exposure&#45;&gt;has attribute -->
<g id="edge6" class="edge">
<title>behavioral exposure&#45;&gt;has attribute</title>
<path fill="none" stroke="blue" d="M846.4,-95.9C802.77,-90.46 756.24,-81.87 739,-69 731.2,-63.18 725.67,-54.25 721.84,-45.54"/>
<polygon fill="blue" stroke="blue" points="725.02,-44.07 718.19,-35.97 718.48,-46.56 725.02,-44.07"/>
<text text-anchor="middle" x="786" y="-57.8" font-family="Times,serif" font-size="14.00">has attribute</text>
</g>
<!-- provided by -->
<g id="node8" class="node">
<title>provided by</title>
<ellipse fill="none" stroke="blue" cx="822" cy="-18" rx="38.19" ry="18"/>
<text text-anchor="middle" x="822" y="-14.3" font-family="Times,serif" font-size="14.00">string</text>
</g>
<!-- behavioral exposure&#45;&gt;provided by -->
<g id="edge7" class="edge">
<title>behavioral exposure&#45;&gt;provided by</title>
<path fill="none" stroke="blue" d="M882.17,-89.53C869.95,-84.47 857.74,-77.78 848,-69 840.92,-62.63 835.46,-53.87 831.42,-45.46"/>
<polygon fill="blue" stroke="blue" points="834.62,-44.06 827.44,-36.27 828.2,-46.83 834.62,-44.06"/>
<text text-anchor="middle" x="890.5" y="-57.8" font-family="Times,serif" font-size="14.00">provided by</text>
</g>
<!-- xref -->
<g id="node9" class="node">
<title>xref</title>
<ellipse fill="none" stroke="blue" cx="936" cy="-18" rx="57.39" ry="18"/>
<text text-anchor="middle" x="936" y="-14.3" font-family="Times,serif" font-size="14.00">uriorcurie</text>
</g>
<!-- behavioral exposure&#45;&gt;xref -->
<g id="edge8" class="edge">
<title>behavioral exposure&#45;&gt;xref</title>
<path fill="none" stroke="blue" d="M936.79,-86.8C936.66,-75.16 936.47,-59.55 936.32,-46.24"/>
<polygon fill="blue" stroke="blue" points="939.81,-46.13 936.2,-36.18 932.82,-46.22 939.81,-46.13"/>
<text text-anchor="middle" x="951.5" y="-57.8" font-family="Times,serif" font-size="14.00">xref</text>
</g>
<!-- category -->
<g id="node10" class="node">
<title>category</title>
<ellipse fill="none" stroke="black" cx="1063" cy="-18" rx="51.19" ry="18"/>
<text text-anchor="middle" x="1063" y="-14.3" font-family="Times,serif" font-size="14.00">category</text>
</g>
<!-- behavioral exposure&#45;&gt;category -->
<g id="edge9" class="edge">
<title>behavioral exposure&#45;&gt;category</title>
<path fill="none" stroke="blue" d="M961.59,-87.41C981.61,-73.91 1009.99,-54.76 1031.64,-40.16"/>
<polygon fill="blue" stroke="blue" points="1033.83,-42.9 1040.16,-34.4 1029.91,-37.1 1033.83,-42.9"/>
<text text-anchor="middle" x="1039.5" y="-57.8" font-family="Times,serif" font-size="14.00">category</text>
</g>
<!-- name -->
<g id="node12" class="node">
<title>name</title>
<ellipse fill="none" stroke="black" cx="1169" cy="-18" rx="36.29" ry="18"/>
<text text-anchor="middle" x="1169" y="-14.3" font-family="Times,serif" font-size="14.00">name</text>
</g>
<!-- behavioral exposure&#45;&gt;name -->
<g id="edge10" class="edge">
<title>behavioral exposure&#45;&gt;name</title>
<path fill="none" stroke="blue" d="M1002.24,-90.85C1025.58,-85.27 1051.82,-77.95 1075,-69 1097.02,-60.49 1120.47,-48.03 1138.44,-37.67"/>
<polygon fill="blue" stroke="blue" points="1140.44,-40.55 1147.3,-32.48 1136.9,-34.51 1140.44,-40.55"/>
<text text-anchor="middle" x="1128" y="-57.8" font-family="Times,serif" font-size="14.00">name</text>
</g>
<!-- has attribute type -->
<g id="node14" class="node">
<title>has attribute type</title>
<ellipse fill="none" stroke="blue" cx="1300" cy="-18" rx="76.89" ry="18"/>
<text text-anchor="middle" x="1300" y="-14.3" font-family="Times,serif" font-size="14.00">ontology class</text>
</g>
<!-- behavioral exposure&#45;&gt;has attribute type -->
<g id="edge11" class="edge">
<title>behavioral exposure&#45;&gt;has attribute type</title>
<path fill="none" stroke="blue" d="M1011.97,-92.41C1068.44,-83.58 1138.39,-72.38 1152,-69 1186.28,-60.48 1224,-47.68 1252.78,-37.17"/>
<polygon fill="blue" stroke="blue" points="1254.01,-40.45 1262.18,-33.7 1251.58,-33.88 1254.01,-40.45"/>
<text text-anchor="middle" x="1267" y="-57.8" font-family="Times,serif" font-size="14.00">has attribute type</text>
</g>
<!-- has quantitative value -->
<g id="node15" class="node">
<title>has quantitative value</title>
<ellipse fill="none" stroke="blue" cx="1472" cy="-18" rx="77.19" ry="18"/>
<text text-anchor="middle" x="1472" y="-14.3" font-family="Times,serif" font-size="14.00">quantity value</text>
</g>
<!-- behavioral exposure&#45;&gt;has quantitative value -->
<g id="edge12" class="edge">
<title>behavioral exposure&#45;&gt;has quantitative value</title>
<path fill="none" stroke="blue" d="M1010.12,-92.05C1023.37,-90.16 1037.07,-88.38 1050,-87 1176.64,-73.51 1211.37,-95.25 1336,-69 1368.22,-62.21 1403.06,-49.29 1429.4,-38.28"/>
<polygon fill="blue" stroke="blue" points="1430.87,-41.46 1438.71,-34.33 1428.13,-35.02 1430.87,-41.46"/>
<text text-anchor="middle" x="1466" y="-57.8" font-family="Times,serif" font-size="14.00">has quantitative value</text>
</g>
<!-- has qualitative value -->
<g id="node16" class="node">
<title>has qualitative value</title>
<ellipse fill="none" stroke="blue" cx="1637" cy="-18" rx="69.59" ry="18"/>
<text text-anchor="middle" x="1637" y="-14.3" font-family="Times,serif" font-size="14.00">named thing</text>
</g>
<!-- behavioral exposure&#45;&gt;has qualitative value -->
<g id="edge13" class="edge">
<title>behavioral exposure&#45;&gt;has qualitative value</title>
<path fill="none" stroke="blue" d="M1009.18,-91.89C1022.71,-89.98 1036.76,-88.23 1050,-87 1160.7,-76.71 1443.11,-99.6 1550,-69 1570.34,-63.17 1590.97,-51.62 1607.04,-41.08"/>
<polygon fill="blue" stroke="blue" points="1609.14,-43.88 1615.46,-35.37 1605.22,-38.08 1609.14,-43.88"/>
<text text-anchor="middle" x="1660.5" y="-57.8" font-family="Times,serif" font-size="14.00">has qualitative value</text>
</g>
<!-- iri -->
<g id="node17" class="node">
<title>iri</title>
<ellipse fill="none" stroke="blue" cx="1808" cy="-18" rx="44.39" ry="18"/>
<text text-anchor="middle" x="1808" y="-14.3" font-family="Times,serif" font-size="14.00">iri type</text>
</g>
<!-- behavioral exposure&#45;&gt;iri -->
<g id="edge14" class="edge">
<title>behavioral exposure&#45;&gt;iri</title>
<path fill="none" stroke="blue" d="M1008.87,-91.83C1022.49,-89.91 1036.66,-88.17 1050,-87 1126.28,-80.29 1666.46,-93.57 1739,-69 1755.78,-63.32 1771.96,-52.01 1784.43,-41.58"/>
<polygon fill="blue" stroke="blue" points="1786.82,-44.14 1792.06,-34.92 1782.22,-38.86 1786.82,-44.14"/>
<text text-anchor="middle" x="1776" y="-57.8" font-family="Times,serif" font-size="14.00">iri</text>
</g>
<!-- timepoint -->
<g id="node18" class="node">
<title>timepoint</title>
<ellipse fill="none" stroke="blue" cx="1925" cy="-18" rx="55.49" ry="18"/>
<text text-anchor="middle" x="1925" y="-14.3" font-family="Times,serif" font-size="14.00">time type</text>
</g>
<!-- behavioral exposure&#45;&gt;timepoint -->
<g id="edge15" class="edge">
<title>behavioral exposure&#45;&gt;timepoint</title>
<path fill="none" stroke="blue" d="M1008.57,-91.85C1022.28,-89.92 1036.56,-88.17 1050,-87 1213.43,-72.77 1626.81,-99.53 1788,-69 1822.01,-62.56 1858.76,-48.74 1885.63,-37.26"/>
<polygon fill="blue" stroke="blue" points="1887.29,-40.35 1895.06,-33.15 1884.49,-33.93 1887.29,-40.35"/>
<text text-anchor="middle" x="1877" y="-57.8" font-family="Times,serif" font-size="14.00">timepoint</text>
</g>
<!-- named thing_category -->
<g id="node11" class="node">
<title>named thing_category</title>
<ellipse fill="none" stroke="blue" cx="1134" cy="-105" rx="74.99" ry="18"/>
<text text-anchor="middle" x="1134" y="-101.3" font-family="Times,serif" font-size="14.00">category type</text>
</g>
<!-- attribute_name -->
<g id="node13" class="node">
<title>attribute_name</title>
<ellipse fill="none" stroke="blue" cx="1283" cy="-105" rx="56.59" ry="18"/>
<text text-anchor="middle" x="1283" y="-101.3" font-family="Times,serif" font-size="14.00">label type</text>
</g>
</g>
</svg>
