<?xml version="1.0" encoding="UTF-8" standalone="no"?>
<!DOCTYPE svg PUBLIC "-//W3C//DTD SVG 1.1//EN"
 "http://www.w3.org/Graphics/SVG/1.1/DTD/svg11.dtd">
<!-- Generated by graphviz version 2.43.0 (0)
 -->
<!-- Title: %3 Pages: 1 -->
<svg width="4017pt" height="291pt"
 viewBox="0.00 0.00 4016.84 291.00" xmlns="http://www.w3.org/2000/svg" xmlns:xlink="http://www.w3.org/1999/xlink">
<g id="graph0" class="graph" transform="scale(1 1) rotate(0) translate(4 287)">
<title>%3</title>
<polygon fill="white" stroke="transparent" points="-4,4 -4,-287 4012.84,-287 4012.84,4 -4,4"/>
<!-- behavior to behavioral feature association -->
<g id="node1" class="node">
<title>behavior to behavioral feature association</title>
<ellipse fill="none" stroke="black" cx="2077.39" cy="-265" rx="206.06" ry="18"/>
<text text-anchor="middle" x="2077.39" y="-261.3" font-family="Times,serif" font-size="14.00">behavior to behavioral feature association</text>
</g>
<!-- association -->
<g id="node2" class="node">
<title>association</title>
<ellipse fill="none" stroke="black" cx="62.39" cy="-178" rx="62.29" ry="18"/>
<text text-anchor="middle" x="62.39" y="-174.3" font-family="Times,serif" font-size="14.00">association</text>
</g>
<!-- behavior to behavioral feature association&#45;&gt;association -->
<g id="edge1" class="edge">
<title>behavior to behavioral feature association&#45;&gt;association</title>
<path fill="none" stroke="black" d="M1872.86,-262.67C1582.6,-260.01 1034.6,-252.11 568.39,-229 375.19,-219.42 325.55,-225.65 134.39,-196 128.7,-195.12 122.8,-194.02 116.92,-192.82"/>
<polygon fill="black" stroke="black" points="117.63,-189.39 107.12,-190.7 116.16,-196.23 117.63,-189.39"/>
<text text-anchor="middle" x="582.39" y="-217.8" font-family="Times,serif" font-size="14.00">is_a</text>
</g>
<!-- entity to phenotypic feature association mixin -->
<g id="node3" class="node">
<title>entity to phenotypic feature association mixin</title>
<ellipse fill="none" stroke="black" cx="367.39" cy="-178" rx="224.46" ry="18"/>
<text text-anchor="middle" x="367.39" y="-174.3" font-family="Times,serif" font-size="14.00">entity to phenotypic feature association mixin</text>
</g>
<!-- behavior to behavioral feature association&#45;&gt;entity to phenotypic feature association mixin -->
<g id="edge2" class="edge">
<title>behavior to behavioral feature association&#45;&gt;entity to phenotypic feature association mixin</title>
<path fill="none" stroke="black" d="M1874.95,-261.51C1554.72,-257.1 945.51,-246.68 729.39,-229 640.92,-221.76 541.02,-207.5 468.61,-196.05"/>
<polygon fill="black" stroke="black" points="469.01,-192.57 458.58,-194.46 467.91,-199.49 469.01,-192.57"/>
<text text-anchor="middle" x="745.89" y="-217.8" font-family="Times,serif" font-size="14.00">uses</text>
</g>
<!-- id -->
<g id="node4" class="node">
<title>id</title>
<ellipse fill="none" stroke="blue" cx="648.39" cy="-178" rx="38.19" ry="18"/>
<text text-anchor="middle" x="648.39" y="-174.3" font-family="Times,serif" font-size="14.00">string</text>
</g>
<!-- behavior to behavioral feature association&#45;&gt;id -->
<g id="edge3" class="edge">
<title>behavior to behavioral feature association&#45;&gt;id</title>
<path fill="none" stroke="blue" d="M1873.39,-262.36C1578.98,-259.27 1049.46,-250.81 859.39,-229 785.96,-220.57 767.63,-215.72 696.39,-196 693.28,-195.14 690.09,-194.18 686.89,-193.16"/>
<polygon fill="blue" stroke="blue" points="687.97,-189.83 677.38,-190 685.76,-196.48 687.97,-189.83"/>
<text text-anchor="middle" x="866.39" y="-217.8" font-family="Times,serif" font-size="14.00">id</text>
</g>
<!-- iri -->
<g id="node5" class="node">
<title>iri</title>
<ellipse fill="none" stroke="blue" cx="749.39" cy="-178" rx="44.39" ry="18"/>
<text text-anchor="middle" x="749.39" y="-174.3" font-family="Times,serif" font-size="14.00">iri type</text>
</g>
<!-- behavior to behavioral feature association&#45;&gt;iri -->
<g id="edge4" class="edge">
<title>behavior to behavioral feature association&#45;&gt;iri</title>
<path fill="none" stroke="blue" d="M1875.62,-261.35C1606.55,-257.16 1144.63,-247.51 976.39,-229 898.15,-220.39 878.68,-215.39 802.39,-196 798.97,-195.13 795.43,-194.16 791.9,-193.14"/>
<polygon fill="blue" stroke="blue" points="792.59,-189.69 782.01,-190.15 790.57,-196.39 792.59,-189.69"/>
<text text-anchor="middle" x="984.39" y="-217.8" font-family="Times,serif" font-size="14.00">iri</text>
</g>
<!-- name -->
<g id="node6" class="node">
<title>name</title>
<ellipse fill="none" stroke="blue" cx="868.39" cy="-178" rx="56.59" ry="18"/>
<text text-anchor="middle" x="868.39" y="-174.3" font-family="Times,serif" font-size="14.00">label type</text>
</g>
<!-- behavior to behavioral feature association&#45;&gt;name -->
<g id="edge5" class="edge">
<title>behavior to behavioral feature association&#45;&gt;name</title>
<path fill="none" stroke="blue" d="M1874.26,-261.91C1625.38,-258.49 1218.35,-249.84 1068.39,-229 1015.78,-221.69 956.95,-206.05 916.79,-194.19"/>
<polygon fill="blue" stroke="blue" points="917.58,-190.78 907,-191.27 915.58,-197.49 917.58,-190.78"/>
<text text-anchor="middle" x="1088.39" y="-217.8" font-family="Times,serif" font-size="14.00">name</text>
</g>
<!-- description -->
<g id="node7" class="node">
<title>description</title>
<ellipse fill="none" stroke="blue" cx="1018.39" cy="-178" rx="75.29" ry="18"/>
<text text-anchor="middle" x="1018.39" y="-174.3" font-family="Times,serif" font-size="14.00">narrative text</text>
</g>
<!-- behavior to behavioral feature association&#45;&gt;description -->
<g id="edge6" class="edge">
<title>behavior to behavioral feature association&#45;&gt;description</title>
<path fill="none" stroke="blue" d="M1872.55,-263.01C1646.04,-260.69 1295.88,-253.16 1165.39,-229 1129.91,-222.43 1091.34,-209.06 1062.62,-197.8"/>
<polygon fill="blue" stroke="blue" points="1063.86,-194.52 1053.27,-194.07 1061.26,-201.02 1063.86,-194.52"/>
<text text-anchor="middle" x="1205.89" y="-217.8" font-family="Times,serif" font-size="14.00">description</text>
</g>
<!-- source -->
<g id="node8" class="node">
<title>source</title>
<ellipse fill="none" stroke="blue" cx="1150.39" cy="-178" rx="38.19" ry="18"/>
<text text-anchor="middle" x="1150.39" y="-174.3" font-family="Times,serif" font-size="14.00">string</text>
</g>
<!-- behavior to behavioral feature association&#45;&gt;source -->
<g id="edge7" class="edge">
<title>behavior to behavioral feature association&#45;&gt;source</title>
<path fill="none" stroke="blue" d="M1879,-260.11C1689.61,-255.45 1418.07,-246.05 1313.39,-229 1269.44,-221.84 1220.86,-205.83 1188.27,-193.84"/>
<polygon fill="blue" stroke="blue" points="1189.28,-190.48 1178.69,-190.27 1186.83,-197.04 1189.28,-190.48"/>
<text text-anchor="middle" x="1337.39" y="-217.8" font-family="Times,serif" font-size="14.00">source</text>
</g>
<!-- has attribute -->
<g id="node9" class="node">
<title>has attribute</title>
<ellipse fill="none" stroke="blue" cx="1258.39" cy="-178" rx="51.99" ry="18"/>
<text text-anchor="middle" x="1258.39" y="-174.3" font-family="Times,serif" font-size="14.00">attribute</text>
</g>
<!-- behavior to behavioral feature association&#45;&gt;has attribute -->
<g id="edge8" class="edge">
<title>behavior to behavioral feature association&#45;&gt;has attribute</title>
<path fill="none" stroke="blue" d="M1884.43,-258.69C1724.56,-253.35 1510.34,-243.78 1425.39,-229 1382.52,-221.54 1335.11,-206.68 1301.8,-195.09"/>
<polygon fill="blue" stroke="blue" points="1302.96,-191.79 1292.37,-191.77 1300.63,-198.39 1302.96,-191.79"/>
<text text-anchor="middle" x="1472.39" y="-217.8" font-family="Times,serif" font-size="14.00">has attribute</text>
</g>
<!-- predicate -->
<g id="node10" class="node">
<title>predicate</title>
<ellipse fill="none" stroke="blue" cx="1406.39" cy="-178" rx="77.99" ry="18"/>
<text text-anchor="middle" x="1406.39" y="-174.3" font-family="Times,serif" font-size="14.00">predicate type</text>
</g>
<!-- behavior to behavioral feature association&#45;&gt;predicate -->
<g id="edge9" class="edge">
<title>behavior to behavioral feature association&#45;&gt;predicate</title>
<path fill="none" stroke="blue" d="M1883.69,-258.79C1793.7,-254.16 1685.58,-245.43 1589.39,-229 1544.73,-221.37 1495.23,-207.5 1458.98,-196.3"/>
<polygon fill="blue" stroke="blue" points="1459.71,-192.87 1449.12,-193.22 1457.62,-199.55 1459.71,-192.87"/>
<text text-anchor="middle" x="1623.39" y="-217.8" font-family="Times,serif" font-size="14.00">predicate</text>
</g>
<!-- negated -->
<g id="node11" class="node">
<title>negated</title>
<ellipse fill="none" stroke="blue" cx="1549.39" cy="-178" rx="46.59" ry="18"/>
<text text-anchor="middle" x="1549.39" y="-174.3" font-family="Times,serif" font-size="14.00">boolean</text>
</g>
<!-- behavior to behavioral feature association&#45;&gt;negated -->
<g id="edge10" class="edge">
<title>behavior to behavioral feature association&#45;&gt;negated</title>
<path fill="none" stroke="blue" d="M1915.79,-253.77C1855.41,-248.43 1786.46,-240.52 1724.39,-229 1678.73,-220.52 1627.81,-205.29 1592.72,-193.86"/>
<polygon fill="blue" stroke="blue" points="1593.41,-190.41 1582.82,-190.6 1591.22,-197.05 1593.41,-190.41"/>
<text text-anchor="middle" x="1753.39" y="-217.8" font-family="Times,serif" font-size="14.00">negated</text>
</g>
<!-- qualifiers -->
<g id="node12" class="node">
<title>qualifiers</title>
<ellipse fill="none" stroke="blue" cx="1690.39" cy="-178" rx="76.89" ry="18"/>
<text text-anchor="middle" x="1690.39" y="-174.3" font-family="Times,serif" font-size="14.00">ontology class</text>
</g>
<!-- behavior to behavioral feature association&#45;&gt;qualifiers -->
<g id="edge11" class="edge">
<title>behavior to behavioral feature association&#45;&gt;qualifiers</title>
<path fill="none" stroke="blue" d="M1951.75,-250.72C1913.45,-245.4 1871.43,-238.29 1833.39,-229 1800.25,-220.91 1763.99,-208.18 1736.27,-197.59"/>
<polygon fill="blue" stroke="blue" points="1737.43,-194.29 1726.84,-193.95 1734.9,-200.82 1737.43,-194.29"/>
<text text-anchor="middle" x="1866.89" y="-217.8" font-family="Times,serif" font-size="14.00">qualifiers</text>
</g>
<!-- publications -->
<g id="node13" class="node">
<title>publications</title>
<ellipse fill="none" stroke="blue" cx="1847.39" cy="-178" rx="62.29" ry="18"/>
<text text-anchor="middle" x="1847.39" y="-174.3" font-family="Times,serif" font-size="14.00">publication</text>
</g>
<!-- behavior to behavioral feature association&#45;&gt;publications -->
<g id="edge12" class="edge">
<title>behavior to behavioral feature association&#45;&gt;publications</title>
<path fill="none" stroke="blue" d="M1995.38,-248.39C1974.77,-243.3 1952.97,-236.87 1933.39,-229 1914.64,-221.46 1895.06,-210.36 1879.33,-200.54"/>
<polygon fill="blue" stroke="blue" points="1880.86,-197.36 1870.55,-194.94 1877.1,-203.26 1880.86,-197.36"/>
<text text-anchor="middle" x="1977.39" y="-217.8" font-family="Times,serif" font-size="14.00">publications</text>
</g>
<!-- has evidence -->
<g id="node14" class="node">
<title>has evidence</title>
<ellipse fill="none" stroke="blue" cx="2003.39" cy="-178" rx="75.29" ry="18"/>
<text text-anchor="middle" x="2003.39" y="-174.3" font-family="Times,serif" font-size="14.00">evidence type</text>
</g>
<!-- behavior to behavioral feature association&#45;&gt;has evidence -->
<g id="edge13" class="edge">
<title>behavior to behavioral feature association&#45;&gt;has evidence</title>
<path fill="none" stroke="blue" d="M2055.07,-246.9C2048.7,-241.51 2041.97,-235.31 2036.39,-229 2029.82,-221.56 2023.56,-212.72 2018.29,-204.55"/>
<polygon fill="blue" stroke="blue" points="2021.26,-202.69 2013,-196.05 2015.32,-206.39 2021.26,-202.69"/>
<text text-anchor="middle" x="2082.89" y="-217.8" font-family="Times,serif" font-size="14.00">has evidence</text>
</g>
<!-- knowledge source -->
<g id="node15" class="node">
<title>knowledge source</title>
<ellipse fill="none" stroke="blue" cx="2205.39" cy="-178" rx="108.58" ry="18"/>
<text text-anchor="middle" x="2205.39" y="-174.3" font-family="Times,serif" font-size="14.00">information resource</text>
</g>
<!-- behavior to behavioral feature association&#45;&gt;knowledge source -->
<g id="edge14" class="edge">
<title>behavior to behavioral feature association&#45;&gt;knowledge source</title>
<path fill="none" stroke="blue" d="M2102.72,-247.08C2117.25,-237.38 2135.83,-224.99 2152.39,-214 2158.65,-209.85 2165.32,-205.43 2171.75,-201.18"/>
<polygon fill="blue" stroke="blue" points="2173.89,-203.97 2180.31,-195.54 2170.03,-198.13 2173.89,-203.97"/>
<text text-anchor="middle" x="2216.89" y="-217.8" font-family="Times,serif" font-size="14.00">knowledge source</text>
</g>
<!-- original knowledge source -->
<g id="node16" class="node">
<title>original knowledge source</title>
<ellipse fill="none" stroke="blue" cx="2370.39" cy="-178" rx="38.19" ry="18"/>
<text text-anchor="middle" x="2370.39" y="-174.3" font-family="Times,serif" font-size="14.00">string</text>
</g>
<!-- behavior to behavioral feature association&#45;&gt;original knowledge source -->
<g id="edge15" class="edge">
<title>behavior to behavioral feature association&#45;&gt;original knowledge source</title>
<path fill="none" stroke="blue" d="M2203.12,-250.71C2229.52,-245.64 2256.81,-238.65 2281.39,-229 2292.76,-224.54 2293.88,-220.2 2304.39,-214 2314.49,-208.05 2325.68,-201.94 2335.93,-196.52"/>
<polygon fill="blue" stroke="blue" points="2337.79,-199.5 2345.03,-191.77 2334.54,-193.3 2337.79,-199.5"/>
<text text-anchor="middle" x="2398.39" y="-217.8" font-family="Times,serif" font-size="14.00">original knowledge source</text>
</g>
<!-- primary knowledge source -->
<g id="node17" class="node">
<title>primary knowledge source</title>
<ellipse fill="none" stroke="blue" cx="2535.39" cy="-178" rx="108.58" ry="18"/>
<text text-anchor="middle" x="2535.39" y="-174.3" font-family="Times,serif" font-size="14.00">information resource</text>
</g>
<!-- behavior to behavioral feature association&#45;&gt;primary knowledge source -->
<g id="edge16" class="edge">
<title>behavior to behavioral feature association&#45;&gt;primary knowledge source</title>
<path fill="none" stroke="blue" d="M2223.67,-252.3C2341.92,-242.75 2489.32,-230.57 2492.39,-229 2503.32,-223.42 2512.64,-213.74 2519.78,-204.38"/>
<polygon fill="blue" stroke="blue" points="2522.79,-206.19 2525.7,-196 2517.07,-202.15 2522.79,-206.19"/>
<text text-anchor="middle" x="2606.39" y="-217.8" font-family="Times,serif" font-size="14.00">primary knowledge source</text>
</g>
<!-- aggregator knowledge source -->
<g id="node18" class="node">
<title>aggregator knowledge source</title>
<ellipse fill="none" stroke="blue" cx="2770.39" cy="-178" rx="108.58" ry="18"/>
<text text-anchor="middle" x="2770.39" y="-174.3" font-family="Times,serif" font-size="14.00">information resource</text>
</g>
<!-- behavior to behavioral feature association&#45;&gt;aggregator knowledge source -->
<g id="edge17" class="edge">
<title>behavior to behavioral feature association&#45;&gt;aggregator knowledge source</title>
<path fill="none" stroke="blue" d="M2220.17,-252C2244.27,-250.18 2269.04,-248.43 2292.39,-247 2338.24,-244.19 2662.24,-244.73 2705.39,-229 2709.75,-227.41 2726.51,-214.49 2741.92,-202.18"/>
<polygon fill="blue" stroke="blue" points="2744.18,-204.86 2749.78,-195.86 2739.79,-199.4 2744.18,-204.86"/>
<text text-anchor="middle" x="2833.89" y="-217.8" font-family="Times,serif" font-size="14.00">aggregator knowledge source</text>
</g>
<!-- timepoint -->
<g id="node19" class="node">
<title>timepoint</title>
<ellipse fill="none" stroke="blue" cx="2952.39" cy="-178" rx="55.49" ry="18"/>
<text text-anchor="middle" x="2952.39" y="-174.3" font-family="Times,serif" font-size="14.00">time type</text>
</g>
<!-- behavior to behavioral feature association&#45;&gt;timepoint -->
<g id="edge18" class="edge">
<title>behavior to behavioral feature association&#45;&gt;timepoint</title>
<path fill="none" stroke="blue" d="M2218.13,-251.83C2242.86,-249.99 2268.37,-248.28 2292.39,-247 2328.41,-245.08 2913.6,-251.99 2941.39,-229 2948.11,-223.44 2951.3,-214.8 2952.67,-206.26"/>
<polygon fill="blue" stroke="blue" points="2956.18,-206.36 2953.56,-196.09 2949.2,-205.75 2956.18,-206.36"/>
<text text-anchor="middle" x="2986.39" y="-217.8" font-family="Times,serif" font-size="14.00">timepoint</text>
</g>
<!-- type -->
<g id="node20" class="node">
<title>type</title>
<ellipse fill="none" stroke="black" cx="3056.39" cy="-178" rx="31.4" ry="18"/>
<text text-anchor="middle" x="3056.39" y="-174.3" font-family="Times,serif" font-size="14.00">type</text>
</g>
<!-- behavior to behavioral feature association&#45;&gt;type -->
<g id="edge19" class="edge">
<title>behavior to behavioral feature association&#45;&gt;type</title>
<path fill="none" stroke="blue" d="M2217.84,-251.79C2242.66,-249.95 2268.28,-248.25 2292.39,-247 2333.07,-244.89 2990.05,-249.25 3025.39,-229 3034.6,-223.73 3041.44,-214.5 3046.32,-205.39"/>
<polygon fill="blue" stroke="blue" points="3049.6,-206.65 3050.71,-196.12 3043.27,-203.66 3049.6,-206.65"/>
<text text-anchor="middle" x="3056.39" y="-217.8" font-family="Times,serif" font-size="14.00">type</text>
</g>
<!-- category -->
<g id="node22" class="node">
<title>category</title>
<ellipse fill="none" stroke="black" cx="3157.39" cy="-178" rx="51.19" ry="18"/>
<text text-anchor="middle" x="3157.39" y="-174.3" font-family="Times,serif" font-size="14.00">category</text>
</g>
<!-- behavior to behavioral feature association&#45;&gt;category -->
<g id="edge20" class="edge">
<title>behavior to behavioral feature association&#45;&gt;category</title>
<path fill="none" stroke="blue" d="M2217.55,-251.78C2242.46,-249.93 2268.18,-248.23 2292.39,-247 2379.42,-242.56 2992.85,-253.75 3076.39,-229 3095.73,-223.27 3115.04,-211.64 3129.96,-201.04"/>
<polygon fill="blue" stroke="blue" points="3132.22,-203.72 3138.19,-194.97 3128.07,-198.08 3132.22,-203.72"/>
<text text-anchor="middle" x="3141.89" y="-217.8" font-family="Times,serif" font-size="14.00">category</text>
</g>
<!-- subject -->
<g id="node24" class="node">
<title>subject</title>
<ellipse fill="none" stroke="black" cx="3271.39" cy="-178" rx="44.39" ry="18"/>
<text text-anchor="middle" x="3271.39" y="-174.3" font-family="Times,serif" font-size="14.00">subject</text>
</g>
<!-- behavior to behavioral feature association&#45;&gt;subject -->
<g id="edge21" class="edge">
<title>behavior to behavioral feature association&#45;&gt;subject</title>
<path fill="none" stroke="blue" d="M2217.26,-251.75C2242.26,-249.9 2268.09,-248.21 2292.39,-247 2390.63,-242.12 3082.21,-253.77 3177.39,-229 3200.24,-223.05 3223.69,-210.59 3241.46,-199.6"/>
<polygon fill="blue" stroke="blue" points="3243.65,-202.36 3250.19,-194.03 3239.88,-196.45 3243.65,-202.36"/>
<text text-anchor="middle" x="3241.39" y="-217.8" font-family="Times,serif" font-size="14.00">subject</text>
</g>
<!-- object -->
<g id="node26" class="node">
<title>object</title>
<ellipse fill="none" stroke="black" cx="3314.39" cy="-91" rx="38.99" ry="18"/>
<text text-anchor="middle" x="3314.39" y="-87.3" font-family="Times,serif" font-size="14.00">object</text>
</g>
<!-- behavior to behavioral feature association&#45;&gt;object -->
<g id="edge22" class="edge">
<title>behavior to behavioral feature association&#45;&gt;object</title>
<path fill="none" stroke="blue" d="M2216.97,-251.73C2242.06,-249.87 2267.99,-248.19 2292.39,-247 2346.73,-244.35 3219.23,-244.43 3271.39,-229 3298,-221.13 3308.16,-218.5 3324.39,-196 3342.65,-170.69 3346.34,-156.9 3337.39,-127 3336.36,-123.55 3334.87,-120.13 3333.13,-116.85"/>
<polygon fill="blue" stroke="blue" points="3335.98,-114.79 3327.77,-108.09 3330.01,-118.45 3335.98,-114.79"/>
<text text-anchor="middle" x="3364.39" y="-174.3" font-family="Times,serif" font-size="14.00">object</text>
</g>
<!-- frequency qualifier -->
<g id="node28" class="node">
<title>frequency qualifier</title>
<ellipse fill="none" stroke="blue" cx="3498.39" cy="-178" rx="85.29" ry="18"/>
<text text-anchor="middle" x="3498.39" y="-174.3" font-family="Times,serif" font-size="14.00">frequency value</text>
</g>
<!-- behavior to behavioral feature association&#45;&gt;frequency qualifier -->
<g id="edge23" class="edge">
<title>behavior to behavioral feature association&#45;&gt;frequency qualifier</title>
<path fill="none" stroke="blue" d="M2216.68,-251.72C2241.86,-249.86 2267.9,-248.17 2292.39,-247 2411.5,-241.3 3248.26,-251.31 3365.39,-229 3396.98,-222.98 3430.88,-210.13 3456.55,-198.96"/>
<polygon fill="blue" stroke="blue" points="3458.25,-202.04 3465.97,-194.79 3455.41,-195.64 3458.25,-202.04"/>
<text text-anchor="middle" x="3486.39" y="-217.8" font-family="Times,serif" font-size="14.00">frequency qualifier</text>
</g>
<!-- severity qualifier -->
<g id="node29" class="node">
<title>severity qualifier</title>
<ellipse fill="none" stroke="blue" cx="3677.39" cy="-178" rx="76.09" ry="18"/>
<text text-anchor="middle" x="3677.39" y="-174.3" font-family="Times,serif" font-size="14.00">severity value</text>
</g>
<!-- behavior to behavioral feature association&#45;&gt;severity qualifier -->
<g id="edge24" class="edge">
<title>behavior to behavioral feature association&#45;&gt;severity qualifier</title>
<path fill="none" stroke="blue" d="M2216.39,-251.69C2241.66,-249.82 2267.8,-248.15 2292.39,-247 2432.92,-240.45 3420.69,-257.77 3558.39,-229 3586.73,-223.08 3616.78,-210.4 3639.59,-199.29"/>
<polygon fill="blue" stroke="blue" points="3641.19,-202.4 3648.58,-194.81 3638.07,-196.14 3641.19,-202.4"/>
<text text-anchor="middle" x="3667.39" y="-217.8" font-family="Times,serif" font-size="14.00">severity qualifier</text>
</g>
<!-- onset qualifier -->
<g id="node30" class="node">
<title>onset qualifier</title>
<ellipse fill="none" stroke="blue" cx="3807.39" cy="-178" rx="36.29" ry="18"/>
<text text-anchor="middle" x="3807.39" y="-174.3" font-family="Times,serif" font-size="14.00">onset</text>
</g>
<!-- behavior to behavioral feature association&#45;&gt;onset qualifier -->
<g id="edge25" class="edge">
<title>behavior to behavioral feature association&#45;&gt;onset qualifier</title>
<path fill="none" stroke="blue" d="M2216.1,-251.67C2241.46,-249.81 2267.71,-248.13 2292.39,-247 2372.32,-243.34 3655.97,-252.66 3732.39,-229 3750.84,-223.29 3768.93,-211.47 3782.72,-200.75"/>
<polygon fill="blue" stroke="blue" points="3785.14,-203.3 3790.71,-194.29 3780.74,-197.85 3785.14,-203.3"/>
<text text-anchor="middle" x="3815.89" y="-217.8" font-family="Times,serif" font-size="14.00">onset qualifier</text>
</g>
<!-- sex qualifier -->
<g id="node31" class="node">
<title>sex qualifier</title>
<ellipse fill="none" stroke="blue" cx="3935.39" cy="-178" rx="73.39" ry="18"/>
<text text-anchor="middle" x="3935.39" y="-174.3" font-family="Times,serif" font-size="14.00">biological sex</text>
</g>
<!-- behavior to behavioral feature association&#45;&gt;sex qualifier -->
<g id="edge26" class="edge">
<title>behavior to behavioral feature association&#45;&gt;sex qualifier</title>
<path fill="none" stroke="blue" d="M2216.1,-251.65C2241.46,-249.79 2267.71,-248.12 2292.39,-247 2336.21,-245.02 3830,-243.52 3871.39,-229 3886.85,-223.58 3901.46,-212.78 3912.81,-202.6"/>
<polygon fill="blue" stroke="blue" points="3915.23,-205.13 3920.12,-195.73 3910.43,-200.03 3915.23,-205.13"/>
<text text-anchor="middle" x="3942.39" y="-217.8" font-family="Times,serif" font-size="14.00">sex qualifier</text>
</g>
<!-- association_type -->
<g id="node21" class="node">
<title>association_type</title>
<ellipse fill="none" stroke="blue" cx="2339.39" cy="-265" rx="38.19" ry="18"/>
<text text-anchor="middle" x="2339.39" y="-261.3" font-family="Times,serif" font-size="14.00">string</text>
</g>
<!-- association_category -->
<g id="node23" class="node">
<title>association_category</title>
<ellipse fill="none" stroke="blue" cx="2470.39" cy="-265" rx="74.99" ry="18"/>
<text text-anchor="middle" x="2470.39" y="-261.3" font-family="Times,serif" font-size="14.00">category type</text>
</g>
<!-- subject&#45;&gt;object -->
<g id="edge27" class="edge">
<title>subject&#45;&gt;object</title>
<path fill="none" stroke="black" d="M3272.5,-159.55C3273.7,-149.57 3276.2,-137.07 3281.39,-127 3283.62,-122.68 3286.55,-118.52 3289.73,-114.66"/>
<polygon fill="black" stroke="black" points="3292.35,-116.98 3296.49,-107.23 3287.17,-112.27 3292.35,-116.98"/>
<text text-anchor="middle" x="3309.39" y="-130.8" font-family="Times,serif" font-size="14.00">relation</text>
</g>
<!-- relation -->
<g id="node32" class="node">
<title>relation</title>
<ellipse fill="none" stroke="black" cx="3259.39" cy="-18" rx="46.59" ry="18"/>
<text text-anchor="middle" x="3259.39" y="-14.3" font-family="Times,serif" font-size="14.00">relation</text>
</g>
<!-- subject&#45;&gt;relation -->
<g id="edge28" class="edge">
<title>subject&#45;&gt;relation</title>
<path fill="none" stroke="black" stroke-dasharray="1,5" d="M3270.09,-159.79C3268.01,-132.48 3263.95,-78.99 3261.47,-46.38"/>
<polygon fill="black" stroke="black" points="3264.95,-45.89 3260.7,-36.19 3257.97,-46.42 3264.95,-45.89"/>
</g>
<!-- behavior to behavioral feature association_subject -->
<g id="node25" class="node">
<title>behavior to behavioral feature association_subject</title>
<ellipse fill="none" stroke="blue" cx="2614.39" cy="-265" rx="51.19" ry="18"/>
<text text-anchor="middle" x="2614.39" y="-261.3" font-family="Times,serif" font-size="14.00">behavior</text>
</g>
<!-- object&#45;&gt;relation -->
<g id="edge29" class="edge">
<title>object&#45;&gt;relation</title>
<path fill="none" stroke="black" stroke-dasharray="1,5" d="M3301.91,-73.89C3294.98,-64.94 3286.21,-53.62 3278.44,-43.58"/>
<polygon fill="black" stroke="black" points="3281.1,-41.3 3272.21,-35.54 3275.56,-45.59 3281.1,-41.3"/>
</g>
<!-- behavior to behavioral feature association_object -->
<g id="node27" class="node">
<title>behavior to behavioral feature association_object</title>
<ellipse fill="none" stroke="blue" cx="2780.39" cy="-265" rx="96.38" ry="18"/>
<text text-anchor="middle" x="2780.39" y="-261.3" font-family="Times,serif" font-size="14.00">behavioral feature</text>
</g>
</g>
</svg>
