<?xml version="1.0" encoding="UTF-8" standalone="no"?>
<!DOCTYPE svg PUBLIC "-//W3C//DTD SVG 1.1//EN"
 "http://www.w3.org/Graphics/SVG/1.1/DTD/svg11.dtd">
<!-- Generated by graphviz version 2.40.1 (20161225.0304)
 -->
<!-- Title: %3 Pages: 1 -->
<svg width="1753pt" height="131pt"
 viewBox="0.00 0.00 1753.18 131.00" xmlns="http://www.w3.org/2000/svg" xmlns:xlink="http://www.w3.org/1999/xlink">
<g id="graph0" class="graph" transform="scale(1 1) rotate(0) translate(4 127)">
<title>%3</title>
<polygon fill="#ffffff" stroke="transparent" points="-4,4 -4,-127 1749.1845,-127 1749.1845,4 -4,4"/>
<!-- behavior -->
<g id="node1" class="node">
<title>behavior</title>
<ellipse fill="none" stroke="#000000" cx="860.8916" cy="-105" rx="51.1914" ry="18"/>
<text text-anchor="middle" x="860.8916" y="-101.3" font-family="Times,serif" font-size="14.00" fill="#000000">behavior</text>
</g>
<!-- biological process -->
<g id="node2" class="node">
<title>biological process</title>
<ellipse fill="none" stroke="#000000" cx="94.8916" cy="-18" rx="94.7833" ry="18"/>
<text text-anchor="middle" x="94.8916" y="-14.3" font-family="Times,serif" font-size="14.00" fill="#000000">biological process</text>
</g>
<!-- behavior&#45;&gt;biological process -->
<g id="edge1" class="edge">
<title>behavior&#45;&gt;biological process</title>
<path fill="none" stroke="#000000" d="M809.2977,-103.9284C714.5096,-101.4175 506.4471,-93.3843 332.8916,-69 274.4855,-60.794 209.021,-46.3763 161.5557,-34.9594"/>
<polygon fill="#000000" stroke="#000000" points="162.2525,-31.527 151.7093,-32.572 160.603,-38.3299 162.2525,-31.527"/>
<text text-anchor="middle" x="346.8916" y="-57.8" font-family="Times,serif" font-size="14.00" fill="#000000">is_a</text>
</g>
<!-- id -->
<g id="node3" class="node">
<title>id</title>
<ellipse fill="none" stroke="#0000ff" cx="245.8916" cy="-18" rx="38.1938" ry="18"/>
<text text-anchor="middle" x="245.8916" y="-14.3" font-family="Times,serif" font-size="14.00" fill="#000000">string</text>
</g>
<!-- behavior&#45;&gt;id -->
<g id="edge2" class="edge">
<title>behavior&#45;&gt;id</title>
<path fill="none" stroke="#0000ff" d="M809.9748,-102.4554C732.3885,-98.1418 580.0513,-87.9563 451.8916,-69 380.9261,-58.5034 362.7888,-55.986 293.8916,-36 290.9106,-35.1353 287.851,-34.1721 284.7895,-33.1533"/>
<polygon fill="#0000ff" stroke="#0000ff" points="285.6936,-29.7616 275.0987,-29.7626 283.3817,-36.3689 285.6936,-29.7616"/>
<text text-anchor="middle" x="458.8916" y="-57.8" font-family="Times,serif" font-size="14.00" fill="#000000">id</text>
</g>
<!-- iri -->
<g id="node4" class="node">
<title>iri</title>
<ellipse fill="none" stroke="#0000ff" cx="346.8916" cy="-18" rx="44.393" ry="18"/>
<text text-anchor="middle" x="346.8916" y="-14.3" font-family="Times,serif" font-size="14.00" fill="#000000">iri type</text>
</g>
<!-- behavior&#45;&gt;iri -->
<g id="edge3" class="edge">
<title>behavior&#45;&gt;iri</title>
<path fill="none" stroke="#0000ff" d="M810.68,-101.0735C747.9654,-95.7622 637.5145,-85.0652 543.8916,-69 479.6052,-57.9688 463.6795,-53.6664 400.8916,-36 397.354,-35.0047 393.7048,-33.9187 390.0509,-32.7893"/>
<polygon fill="#0000ff" stroke="#0000ff" points="391.0321,-29.4287 380.4416,-29.7314 388.9093,-36.0991 391.0321,-29.4287"/>
<text text-anchor="middle" x="551.8916" y="-57.8" font-family="Times,serif" font-size="14.00" fill="#000000">iri</text>
</g>
<!-- type -->
<g id="node5" class="node">
<title>type</title>
<ellipse fill="none" stroke="#0000ff" cx="447.8916" cy="-18" rx="38.1938" ry="18"/>
<text text-anchor="middle" x="447.8916" y="-14.3" font-family="Times,serif" font-size="14.00" fill="#000000">string</text>
</g>
<!-- behavior&#45;&gt;type -->
<g id="edge4" class="edge">
<title>behavior&#45;&gt;type</title>
<path fill="none" stroke="#0000ff" d="M811.7578,-99.431C740.6687,-90.549 605.5252,-70.5561 494.8916,-36 492.1549,-35.1452 489.3477,-34.2138 486.5329,-33.2395"/>
<polygon fill="#0000ff" stroke="#0000ff" points="487.6196,-29.9109 477.0252,-29.8106 485.2447,-36.4957 487.6196,-29.9109"/>
<text text-anchor="middle" x="639.8916" y="-57.8" font-family="Times,serif" font-size="14.00" fill="#000000">type</text>
</g>
<!-- name -->
<g id="node6" class="node">
<title>name</title>
<ellipse fill="none" stroke="#0000ff" cx="560.8916" cy="-18" rx="56.59" ry="18"/>
<text text-anchor="middle" x="560.8916" y="-14.3" font-family="Times,serif" font-size="14.00" fill="#000000">label type</text>
</g>
<!-- behavior&#45;&gt;name -->
<g id="edge5" class="edge">
<title>behavior&#45;&gt;name</title>
<path fill="none" stroke="#0000ff" d="M816.9639,-95.5791C786.9124,-88.8605 746.2648,-79.2346 710.8916,-69 675.8773,-58.8692 636.9187,-45.5606 607.482,-35.079"/>
<polygon fill="#0000ff" stroke="#0000ff" points="608.4782,-31.7181 597.8836,-31.6414 606.1179,-38.3082 608.4782,-31.7181"/>
<text text-anchor="middle" x="730.8916" y="-57.8" font-family="Times,serif" font-size="14.00" fill="#000000">name</text>
</g>
<!-- description -->
<g id="node7" class="node">
<title>description</title>
<ellipse fill="none" stroke="#0000ff" cx="710.8916" cy="-18" rx="75.2868" ry="18"/>
<text text-anchor="middle" x="710.8916" y="-14.3" font-family="Times,serif" font-size="14.00" fill="#000000">narrative text</text>
</g>
<!-- behavior&#45;&gt;description -->
<g id="edge6" class="edge">
<title>behavior&#45;&gt;description</title>
<path fill="none" stroke="#0000ff" d="M824.2542,-92.2458C808.5723,-86.1383 790.3508,-78.1544 774.8916,-69 762.0325,-61.3853 748.9357,-51.4179 737.9674,-42.3168"/>
<polygon fill="#0000ff" stroke="#0000ff" points="739.9218,-39.3848 730.034,-35.5793 735.3906,-44.7203 739.9218,-39.3848"/>
<text text-anchor="middle" x="815.8916" y="-57.8" font-family="Times,serif" font-size="14.00" fill="#000000">description</text>
</g>
<!-- source -->
<g id="node8" class="node">
<title>source</title>
<ellipse fill="none" stroke="#0000ff" cx="860.8916" cy="-18" rx="56.59" ry="18"/>
<text text-anchor="middle" x="860.8916" y="-14.3" font-family="Times,serif" font-size="14.00" fill="#000000">label type</text>
</g>
<!-- behavior&#45;&gt;source -->
<g id="edge7" class="edge">
<title>behavior&#45;&gt;source</title>
<path fill="none" stroke="#0000ff" d="M860.8916,-86.9735C860.8916,-75.1918 860.8916,-59.5607 860.8916,-46.1581"/>
<polygon fill="#0000ff" stroke="#0000ff" points="864.3917,-46.0033 860.8916,-36.0034 857.3917,-46.0034 864.3917,-46.0033"/>
<text text-anchor="middle" x="885.3916" y="-57.8" font-family="Times,serif" font-size="14.00" fill="#000000">source</text>
</g>
<!-- provided by -->
<g id="node9" class="node">
<title>provided by</title>
<ellipse fill="none" stroke="#0000ff" cx="972.8916" cy="-18" rx="37.0935" ry="18"/>
<text text-anchor="middle" x="972.8916" y="-14.3" font-family="Times,serif" font-size="14.00" fill="#000000">agent</text>
</g>
<!-- behavior&#45;&gt;provided by -->
<g id="edge8" class="edge">
<title>behavior&#45;&gt;provided by</title>
<path fill="none" stroke="#0000ff" d="M885.5845,-89.0916C894.65,-83.0274 904.892,-75.909 913.8916,-69 925.4451,-60.1304 937.7073,-49.7092 948.0423,-40.6067"/>
<polygon fill="#0000ff" stroke="#0000ff" points="950.38,-43.2116 955.5262,-33.9505 945.7279,-37.981 950.38,-43.2116"/>
<text text-anchor="middle" x="975.3916" y="-57.8" font-family="Times,serif" font-size="14.00" fill="#000000">provided by</text>
</g>
<!-- has attribute -->
<g id="node10" class="node">
<title>has attribute</title>
<ellipse fill="none" stroke="#0000ff" cx="1079.8916" cy="-18" rx="51.9908" ry="18"/>
<text text-anchor="middle" x="1079.8916" y="-14.3" font-family="Times,serif" font-size="14.00" fill="#000000">attribute</text>
</g>
<!-- behavior&#45;&gt;has attribute -->
<g id="edge9" class="edge">
<title>behavior&#45;&gt;has attribute</title>
<path fill="none" stroke="#0000ff" d="M899.1232,-92.8151C906.3159,-90.7267 913.8035,-88.6889 920.8916,-87 965.2461,-76.4315 980.8112,-88.7841 1021.8916,-69 1035.1765,-62.602 1047.7504,-52.2899 1057.7728,-42.607"/>
<polygon fill="#0000ff" stroke="#0000ff" points="1060.3599,-44.9687 1064.9092,-35.4003 1055.3859,-40.0433 1060.3599,-44.9687"/>
<text text-anchor="middle" x="1091.8916" y="-57.8" font-family="Times,serif" font-size="14.00" fill="#000000">has attribute</text>
</g>
<!-- category -->
<g id="node11" class="node">
<title>category</title>
<ellipse fill="none" stroke="#000000" cx="1201.8916" cy="-18" rx="51.9908" ry="18"/>
<text text-anchor="middle" x="1201.8916" y="-14.3" font-family="Times,serif" font-size="14.00" fill="#000000">category</text>
</g>
<!-- behavior&#45;&gt;category -->
<g id="edge10" class="edge">
<title>behavior&#45;&gt;category</title>
<path fill="none" stroke="#0000ff" d="M898.0389,-92.5331C905.5344,-90.3935 913.4104,-88.4092 920.8916,-87 1018.1713,-68.6762 1051.5944,-107.2614 1142.8916,-69 1156.8226,-63.1617 1169.8165,-52.7263 1180.0444,-42.8094"/>
<polygon fill="#0000ff" stroke="#0000ff" points="1182.7953,-45.003 1187.2962,-35.4117 1177.7965,-40.1027 1182.7953,-45.003"/>
<text text-anchor="middle" x="1198.8916" y="-57.8" font-family="Times,serif" font-size="14.00" fill="#000000">category</text>
</g>
<!-- has input -->
<g id="node13" class="node">
<title>has input</title>
<ellipse fill="none" stroke="#0000ff" cx="1341.8916" cy="-18" rx="69.5877" ry="18"/>
<text text-anchor="middle" x="1341.8916" y="-14.3" font-family="Times,serif" font-size="14.00" fill="#000000">named thing</text>
</g>
<!-- behavior&#45;&gt;has input -->
<g id="edge11" class="edge">
<title>behavior&#45;&gt;has input</title>
<path fill="none" stroke="#0000ff" d="M898.0133,-92.3929C905.511,-90.2649 913.3943,-88.3206 920.8916,-87 1058.5568,-62.7505 1099.4879,-103.7217 1234.8916,-69 1259.6109,-62.6612 1285.4892,-50.4964 1305.6034,-39.6373"/>
<polygon fill="#0000ff" stroke="#0000ff" points="1307.3568,-42.6673 1314.4146,-34.7655 1303.9696,-36.5413 1307.3568,-42.6673"/>
<text text-anchor="middle" x="1308.3916" y="-57.8" font-family="Times,serif" font-size="14.00" fill="#000000">has input</text>
</g>
<!-- has output -->
<g id="node14" class="node">
<title>has output</title>
<ellipse fill="none" stroke="#0000ff" cx="1498.8916" cy="-18" rx="69.5877" ry="18"/>
<text text-anchor="middle" x="1498.8916" y="-14.3" font-family="Times,serif" font-size="14.00" fill="#000000">named thing</text>
</g>
<!-- behavior&#45;&gt;has output -->
<g id="edge12" class="edge">
<title>behavior&#45;&gt;has output</title>
<path fill="none" stroke="#0000ff" d="M897.6769,-92.3952C905.2715,-90.2384 913.2774,-88.2827 920.8916,-87 1107.323,-55.5939 1159.9572,-103.2262 1345.8916,-69 1382.7902,-62.2078 1422.9799,-48.5532 1452.9059,-37.081"/>
<polygon fill="#0000ff" stroke="#0000ff" points="1454.1961,-40.3347 1462.2444,-33.4445 1451.6559,-33.8118 1454.1961,-40.3347"/>
<text text-anchor="middle" x="1440.3916" y="-57.8" font-family="Times,serif" font-size="14.00" fill="#000000">has output</text>
</g>
<!-- enabled by -->
<g id="node15" class="node">
<title>enabled by</title>
<ellipse fill="none" stroke="#0000ff" cx="1665.8916" cy="-18" rx="79.0865" ry="18"/>
<text text-anchor="middle" x="1665.8916" y="-14.3" font-family="Times,serif" font-size="14.00" fill="#000000">physical entity</text>
</g>
<!-- behavior&#45;&gt;enabled by -->
<g id="edge13" class="edge">
<title>behavior&#45;&gt;enabled by</title>
<path fill="none" stroke="#0000ff" d="M897.6667,-92.3337C905.2621,-90.1817 913.2709,-88.2434 920.8916,-87 1167.5359,-46.7569 1235.8635,-106.8161 1482.8916,-69 1527.5916,-62.1571 1576.904,-48.0148 1613.0658,-36.3548"/>
<polygon fill="#0000ff" stroke="#0000ff" points="1614.484,-39.5736 1622.9019,-33.14 1612.3093,-32.9199 1614.484,-39.5736"/>
<text text-anchor="middle" x="1589.3916" y="-57.8" font-family="Times,serif" font-size="14.00" fill="#000000">enabled by</text>
</g>
<!-- named thing_category -->
<g id="node12" class="node">
<title>named thing_category</title>
<ellipse fill="none" stroke="#0000ff" cx="999.8916" cy="-105" rx="69.5877" ry="18"/>
<text text-anchor="middle" x="999.8916" y="-101.3" font-family="Times,serif" font-size="14.00" fill="#000000">named thing</text>
</g>
</g>
</svg>
