<?xml version="1.0" encoding="UTF-8" standalone="no"?>
<!DOCTYPE svg PUBLIC "-//W3C//DTD SVG 1.1//EN"
 "http://www.w3.org/Graphics/SVG/1.1/DTD/svg11.dtd">
<!-- Generated by graphviz version 2.43.0 (0)
 -->
<!-- Title: %3 Pages: 1 -->
<svg width="2849pt" height="131pt"
 viewBox="0.00 0.00 2848.88 131.00" xmlns="http://www.w3.org/2000/svg" xmlns:xlink="http://www.w3.org/1999/xlink">
<g id="graph0" class="graph" transform="scale(1 1) rotate(0) translate(4 127)">
<title>%3</title>
<polygon fill="white" stroke="transparent" points="-4,4 -4,-127 2844.88,-127 2844.88,4 -4,4"/>
<!-- behavior -->
<g id="node1" class="node">
<title>behavior</title>
<ellipse fill="none" stroke="black" cx="1428.59" cy="-105" rx="51.19" ry="18"/>
<text text-anchor="middle" x="1428.59" y="-101.3" font-family="Times,serif" font-size="14.00">behavior</text>
</g>
<!-- biological process -->
<g id="node2" class="node">
<title>biological process</title>
<ellipse fill="none" stroke="black" cx="93.59" cy="-18" rx="93.68" ry="18"/>
<text text-anchor="middle" x="93.59" y="-14.3" font-family="Times,serif" font-size="14.00">biological process</text>
</g>
<!-- behavior&#45;&gt;biological process -->
<g id="edge1" class="edge">
<title>behavior&#45;&gt;biological process</title>
<path fill="none" stroke="black" d="M1377.32,-103.9C1231.38,-103.25 801.26,-98.74 445.59,-69 350.18,-61.02 241.15,-44.35 170.04,-32.46"/>
<polygon fill="black" stroke="black" points="170.28,-28.95 159.83,-30.74 169.11,-35.85 170.28,-28.95"/>
<text text-anchor="middle" x="459.59" y="-57.8" font-family="Times,serif" font-size="14.00">is_a</text>
</g>
<!-- ontology class -->
<g id="node3" class="node">
<title>ontology class</title>
<ellipse fill="none" stroke="black" cx="281.59" cy="-18" rx="76.89" ry="18"/>
<text text-anchor="middle" x="281.59" y="-14.3" font-family="Times,serif" font-size="14.00">ontology class</text>
</g>
<!-- behavior&#45;&gt;ontology class -->
<g id="edge2" class="edge">
<title>behavior&#45;&gt;ontology class</title>
<path fill="none" stroke="black" d="M1377.37,-103.52C1247.74,-101.94 896.22,-95.35 604.59,-69 498.24,-59.39 471.89,-53.81 366.59,-36 360.26,-34.93 353.68,-33.74 347.11,-32.51"/>
<polygon fill="black" stroke="black" points="347.31,-28.98 336.83,-30.54 345.99,-35.86 347.31,-28.98"/>
<text text-anchor="middle" x="621.09" y="-57.8" font-family="Times,serif" font-size="14.00">uses</text>
</g>
<!-- activity and behavior -->
<g id="node4" class="node">
<title>activity and behavior</title>
<ellipse fill="none" stroke="black" cx="484.59" cy="-18" rx="108.58" ry="18"/>
<text text-anchor="middle" x="484.59" y="-14.3" font-family="Times,serif" font-size="14.00">activity and behavior</text>
</g>
<!-- behavior&#45;&gt;activity and behavior -->
<g id="edge3" class="edge">
<title>behavior&#45;&gt;activity and behavior</title>
<path fill="none" stroke="black" d="M1377.06,-104.08C1260.98,-103.68 970.39,-99.42 729.59,-69 668.95,-61.34 600.9,-46.98 551.94,-35.61"/>
<polygon fill="black" stroke="black" points="552.63,-32.18 542.1,-33.3 551.04,-38.99 552.63,-32.18"/>
<text text-anchor="middle" x="746.09" y="-57.8" font-family="Times,serif" font-size="14.00">uses</text>
</g>
<!-- id -->
<g id="node5" class="node">
<title>id</title>
<ellipse fill="none" stroke="blue" cx="649.59" cy="-18" rx="38.19" ry="18"/>
<text text-anchor="middle" x="649.59" y="-14.3" font-family="Times,serif" font-size="14.00">string</text>
</g>
<!-- behavior&#45;&gt;id -->
<g id="edge4" class="edge">
<title>behavior&#45;&gt;id</title>
<path fill="none" stroke="blue" d="M1377.1,-103.44C1276.06,-101.77 1044.93,-95.17 852.59,-69 782.8,-59.5 765.38,-55.13 697.59,-36 694.49,-35.12 691.29,-34.15 688.09,-33.13"/>
<polygon fill="blue" stroke="blue" points="689.18,-29.8 678.59,-29.95 686.96,-36.44 689.18,-29.8"/>
<text text-anchor="middle" x="859.59" y="-57.8" font-family="Times,serif" font-size="14.00">id</text>
</g>
<!-- iri -->
<g id="node6" class="node">
<title>iri</title>
<ellipse fill="none" stroke="blue" cx="750.59" cy="-18" rx="44.39" ry="18"/>
<text text-anchor="middle" x="750.59" y="-14.3" font-family="Times,serif" font-size="14.00">iri type</text>
</g>
<!-- behavior&#45;&gt;iri -->
<g id="edge5" class="edge">
<title>behavior&#45;&gt;iri</title>
<path fill="none" stroke="blue" d="M1377.37,-103.24C1287.7,-101.27 1096.7,-94.22 937.59,-69 887.17,-61.01 830.73,-44.89 793.18,-33.11"/>
<polygon fill="blue" stroke="blue" points="794.17,-29.75 783.58,-30.06 792.06,-36.43 794.17,-29.75"/>
<text text-anchor="middle" x="945.59" y="-57.8" font-family="Times,serif" font-size="14.00">iri</text>
</g>
<!-- type -->
<g id="node7" class="node">
<title>type</title>
<ellipse fill="none" stroke="blue" cx="851.59" cy="-18" rx="38.19" ry="18"/>
<text text-anchor="middle" x="851.59" y="-14.3" font-family="Times,serif" font-size="14.00">string</text>
</g>
<!-- behavior&#45;&gt;type -->
<g id="edge6" class="edge">
<title>behavior&#45;&gt;type</title>
<path fill="none" stroke="blue" d="M1377.46,-102.49C1299.96,-99.56 1148.37,-91.28 1021.59,-69 965.85,-59.2 952.59,-52.97 898.59,-36 895.84,-35.13 893,-34.21 890.16,-33.25"/>
<polygon fill="blue" stroke="blue" points="891.14,-29.88 880.54,-29.91 888.84,-36.49 891.14,-29.88"/>
<text text-anchor="middle" x="1037.59" y="-57.8" font-family="Times,serif" font-size="14.00">type</text>
</g>
<!-- name -->
<g id="node8" class="node">
<title>name</title>
<ellipse fill="none" stroke="blue" cx="964.59" cy="-18" rx="56.59" ry="18"/>
<text text-anchor="middle" x="964.59" y="-14.3" font-family="Times,serif" font-size="14.00">label type</text>
</g>
<!-- behavior&#45;&gt;name -->
<g id="edge7" class="edge">
<title>behavior&#45;&gt;name</title>
<path fill="none" stroke="blue" d="M1377.91,-101.87C1314.68,-98.42 1203.55,-89.77 1110.59,-69 1074.88,-61.02 1035.73,-47.33 1006.96,-36.29"/>
<polygon fill="blue" stroke="blue" points="1008.21,-33.02 997.62,-32.66 1005.67,-39.54 1008.21,-33.02"/>
<text text-anchor="middle" x="1130.59" y="-57.8" font-family="Times,serif" font-size="14.00">name</text>
</g>
<!-- description -->
<g id="node9" class="node">
<title>description</title>
<ellipse fill="none" stroke="blue" cx="1114.59" cy="-18" rx="75.29" ry="18"/>
<text text-anchor="middle" x="1114.59" y="-14.3" font-family="Times,serif" font-size="14.00">narrative text</text>
</g>
<!-- behavior&#45;&gt;description -->
<g id="edge8" class="edge">
<title>behavior&#45;&gt;description</title>
<path fill="none" stroke="blue" d="M1376.97,-104.34C1325.15,-102.96 1243.99,-96.05 1179.59,-69 1164.8,-62.79 1150.44,-52.36 1139,-42.63"/>
<polygon fill="blue" stroke="blue" points="1141.02,-39.75 1131.22,-35.74 1136.38,-44.99 1141.02,-39.75"/>
<text text-anchor="middle" x="1220.09" y="-57.8" font-family="Times,serif" font-size="14.00">description</text>
</g>
<!-- has attribute -->
<g id="node10" class="node">
<title>has attribute</title>
<ellipse fill="none" stroke="blue" cx="1259.59" cy="-18" rx="51.99" ry="18"/>
<text text-anchor="middle" x="1259.59" y="-14.3" font-family="Times,serif" font-size="14.00">attribute</text>
</g>
<!-- behavior&#45;&gt;has attribute -->
<g id="edge9" class="edge">
<title>behavior&#45;&gt;has attribute</title>
<path fill="none" stroke="blue" d="M1380.17,-98.68C1340.25,-93.32 1287.81,-83.71 1272.59,-69 1266.36,-62.97 1262.98,-54.37 1261.19,-45.99"/>
<polygon fill="blue" stroke="blue" points="1264.64,-45.44 1259.7,-36.07 1257.72,-46.48 1264.64,-45.44"/>
<text text-anchor="middle" x="1319.59" y="-57.8" font-family="Times,serif" font-size="14.00">has attribute</text>
</g>
<!-- deprecated -->
<g id="node11" class="node">
<title>deprecated</title>
<ellipse fill="none" stroke="blue" cx="1376.59" cy="-18" rx="46.59" ry="18"/>
<text text-anchor="middle" x="1376.59" y="-14.3" font-family="Times,serif" font-size="14.00">boolean</text>
</g>
<!-- behavior&#45;&gt;deprecated -->
<g id="edge10" class="edge">
<title>behavior&#45;&gt;deprecated</title>
<path fill="none" stroke="blue" d="M1396.54,-90.9C1387.49,-85.52 1378.71,-78.33 1373.59,-69 1369.85,-62.19 1369.09,-54.04 1369.68,-46.31"/>
<polygon fill="blue" stroke="blue" points="1373.17,-46.62 1371.17,-36.21 1366.25,-45.59 1373.17,-46.62"/>
<text text-anchor="middle" x="1414.09" y="-57.8" font-family="Times,serif" font-size="14.00">deprecated</text>
</g>
<!-- provided by -->
<g id="node12" class="node">
<title>provided by</title>
<ellipse fill="none" stroke="blue" cx="1479.59" cy="-18" rx="38.19" ry="18"/>
<text text-anchor="middle" x="1479.59" y="-14.3" font-family="Times,serif" font-size="14.00">string</text>
</g>
<!-- behavior&#45;&gt;provided by -->
<g id="edge11" class="edge">
<title>behavior&#45;&gt;provided by</title>
<path fill="none" stroke="blue" d="M1444.37,-87.74C1449.33,-82.09 1454.56,-75.54 1458.59,-69 1463.11,-61.68 1467.08,-53.21 1470.32,-45.35"/>
<polygon fill="blue" stroke="blue" points="1473.65,-46.43 1474.01,-35.85 1467.13,-43.9 1473.65,-46.43"/>
<text text-anchor="middle" x="1509.09" y="-57.8" font-family="Times,serif" font-size="14.00">provided by</text>
</g>
<!-- xref -->
<g id="node13" class="node">
<title>xref</title>
<ellipse fill="none" stroke="blue" cx="1593.59" cy="-18" rx="57.39" ry="18"/>
<text text-anchor="middle" x="1593.59" y="-14.3" font-family="Times,serif" font-size="14.00">uriorcurie</text>
</g>
<!-- behavior&#45;&gt;xref -->
<g id="edge12" class="edge">
<title>behavior&#45;&gt;xref</title>
<path fill="none" stroke="blue" d="M1466.98,-93.04C1474.16,-91.01 1481.6,-88.93 1488.59,-87 1518.31,-78.8 1530,-86.2 1555.59,-69 1564.82,-62.8 1572.73,-53.6 1578.9,-44.78"/>
<polygon fill="blue" stroke="blue" points="1581.96,-46.5 1584.48,-36.21 1576.09,-42.68 1581.96,-46.5"/>
<text text-anchor="middle" x="1586.09" y="-57.8" font-family="Times,serif" font-size="14.00">xref</text>
</g>
<!-- full name -->
<g id="node14" class="node">
<title>full name</title>
<ellipse fill="none" stroke="blue" cx="1725.59" cy="-18" rx="56.59" ry="18"/>
<text text-anchor="middle" x="1725.59" y="-14.3" font-family="Times,serif" font-size="14.00">label type</text>
</g>
<!-- behavior&#45;&gt;full name -->
<g id="edge13" class="edge">
<title>behavior&#45;&gt;full name</title>
<path fill="none" stroke="blue" d="M1466.18,-92.59C1473.57,-90.56 1481.29,-88.59 1488.59,-87 1539.56,-75.87 1554.35,-83.06 1604.59,-69 1632.87,-61.08 1663.43,-48.42 1686.76,-37.82"/>
<polygon fill="blue" stroke="blue" points="1688.35,-40.94 1695.96,-33.58 1685.42,-34.59 1688.35,-40.94"/>
<text text-anchor="middle" x="1679.09" y="-57.8" font-family="Times,serif" font-size="14.00">full name</text>
</g>
<!-- synonym -->
<g id="node15" class="node">
<title>synonym</title>
<ellipse fill="none" stroke="blue" cx="1856.59" cy="-18" rx="56.59" ry="18"/>
<text text-anchor="middle" x="1856.59" y="-14.3" font-family="Times,serif" font-size="14.00">label type</text>
</g>
<!-- behavior&#45;&gt;synonym -->
<g id="edge14" class="edge">
<title>behavior&#45;&gt;synonym</title>
<path fill="none" stroke="blue" d="M1465.45,-92.32C1473.04,-90.27 1481.03,-88.36 1488.59,-87 1588.64,-69.06 1617.2,-90.28 1716.59,-69 1750.91,-61.65 1788.26,-48.01 1815.75,-36.82"/>
<polygon fill="blue" stroke="blue" points="1817.14,-40.04 1825.04,-32.98 1814.46,-33.57 1817.14,-40.04"/>
<text text-anchor="middle" x="1800.59" y="-57.8" font-family="Times,serif" font-size="14.00">synonym</text>
</g>
<!-- category -->
<g id="node16" class="node">
<title>category</title>
<ellipse fill="none" stroke="black" cx="1982.59" cy="-18" rx="51.19" ry="18"/>
<text text-anchor="middle" x="1982.59" y="-14.3" font-family="Times,serif" font-size="14.00">category</text>
</g>
<!-- behavior&#45;&gt;category -->
<g id="edge15" class="edge">
<title>behavior&#45;&gt;category</title>
<path fill="none" stroke="blue" d="M1465.1,-92.25C1472.79,-90.17 1480.9,-88.27 1488.59,-87 1641.39,-61.73 1684.53,-98.37 1836.59,-69 1873.34,-61.9 1913.46,-47.66 1942.33,-36.18"/>
<polygon fill="blue" stroke="blue" points="1943.71,-39.4 1951.67,-32.41 1941.09,-32.91 1943.71,-39.4"/>
<text text-anchor="middle" x="1922.09" y="-57.8" font-family="Times,serif" font-size="14.00">category</text>
</g>
<!-- in taxon -->
<g id="node18" class="node">
<title>in taxon</title>
<ellipse fill="none" stroke="blue" cx="2135.59" cy="-18" rx="83.39" ry="18"/>
<text text-anchor="middle" x="2135.59" y="-14.3" font-family="Times,serif" font-size="14.00">organism taxon</text>
</g>
<!-- behavior&#45;&gt;in taxon -->
<g id="edge16" class="edge">
<title>behavior&#45;&gt;in taxon</title>
<path fill="none" stroke="blue" d="M1465.09,-92.17C1472.78,-90.1 1480.89,-88.22 1488.59,-87 1694.62,-54.34 1751.53,-101.43 1957.59,-69 2001.21,-62.13 2049.35,-48.21 2084.56,-36.79"/>
<polygon fill="blue" stroke="blue" points="2085.72,-40.1 2094.13,-33.65 2083.54,-33.45 2085.72,-40.1"/>
<text text-anchor="middle" x="2051.59" y="-57.8" font-family="Times,serif" font-size="14.00">in taxon</text>
</g>
<!-- in taxon label -->
<g id="node19" class="node">
<title>in taxon label</title>
<ellipse fill="none" stroke="blue" cx="2293.59" cy="-18" rx="56.59" ry="18"/>
<text text-anchor="middle" x="2293.59" y="-14.3" font-family="Times,serif" font-size="14.00">label type</text>
</g>
<!-- behavior&#45;&gt;in taxon label -->
<g id="edge17" class="edge">
<title>behavior&#45;&gt;in taxon label</title>
<path fill="none" stroke="blue" d="M1464.76,-92.21C1472.55,-90.11 1480.78,-88.21 1488.59,-87 1750.5,-46.57 1821.77,-102.96 2084.59,-69 2140.26,-61.81 2202.67,-45.8 2244.68,-33.82"/>
<polygon fill="blue" stroke="blue" points="2245.74,-37.16 2254.38,-31.03 2243.8,-30.44 2245.74,-37.16"/>
<text text-anchor="middle" x="2215.09" y="-57.8" font-family="Times,serif" font-size="14.00">in taxon label</text>
</g>
<!-- has input -->
<g id="node20" class="node">
<title>has input</title>
<ellipse fill="none" stroke="blue" cx="2437.59" cy="-18" rx="69.59" ry="18"/>
<text text-anchor="middle" x="2437.59" y="-14.3" font-family="Times,serif" font-size="14.00">named thing</text>
</g>
<!-- behavior&#45;&gt;has input -->
<g id="edge18" class="edge">
<title>behavior&#45;&gt;has input</title>
<path fill="none" stroke="blue" d="M1464.76,-92.16C1472.54,-90.07 1480.78,-88.18 1488.59,-87 1659.81,-61.19 2096.5,-95.66 2267.59,-69 2309.92,-62.4 2356.5,-48.19 2390.18,-36.6"/>
<polygon fill="blue" stroke="blue" points="2391.48,-39.85 2399.76,-33.25 2389.17,-33.24 2391.48,-39.85"/>
<text text-anchor="middle" x="2368.09" y="-57.8" font-family="Times,serif" font-size="14.00">has input</text>
</g>
<!-- has output -->
<g id="node21" class="node">
<title>has output</title>
<ellipse fill="none" stroke="blue" cx="2594.59" cy="-18" rx="69.59" ry="18"/>
<text text-anchor="middle" x="2594.59" y="-14.3" font-family="Times,serif" font-size="14.00">named thing</text>
</g>
<!-- behavior&#45;&gt;has output -->
<g id="edge19" class="edge">
<title>behavior&#45;&gt;has output</title>
<path fill="none" stroke="blue" d="M1464.75,-92.14C1472.54,-90.05 1480.77,-88.16 1488.59,-87 1690.18,-56.97 2203.74,-97.26 2405.59,-69 2453.57,-62.28 2506.81,-47.51 2544.52,-35.75"/>
<polygon fill="blue" stroke="blue" points="2545.76,-39.03 2554.24,-32.68 2543.65,-32.36 2545.76,-39.03"/>
<text text-anchor="middle" x="2518.09" y="-57.8" font-family="Times,serif" font-size="14.00">has output</text>
</g>
<!-- enabled by -->
<g id="node22" class="node">
<title>enabled by</title>
<ellipse fill="none" stroke="blue" cx="2761.59" cy="-18" rx="79.09" ry="18"/>
<text text-anchor="middle" x="2761.59" y="-14.3" font-family="Times,serif" font-size="14.00">physical entity</text>
</g>
<!-- behavior&#45;&gt;enabled by -->
<g id="edge20" class="edge">
<title>behavior&#45;&gt;enabled by</title>
<path fill="none" stroke="blue" d="M1464.75,-92.13C1472.53,-90.03 1480.77,-88.15 1488.59,-87 1724.3,-52.23 2324.36,-99.96 2560.59,-69 2611.21,-62.37 2667.5,-47.71 2707.61,-35.98"/>
<polygon fill="blue" stroke="blue" points="2708.85,-39.26 2717.44,-33.06 2706.86,-32.55 2708.85,-39.26"/>
<text text-anchor="middle" x="2679.09" y="-57.8" font-family="Times,serif" font-size="14.00">enabled by</text>
</g>
<!-- named thing_category -->
<g id="node17" class="node">
<title>named thing_category</title>
<ellipse fill="none" stroke="blue" cx="1572.59" cy="-105" rx="74.99" ry="18"/>
<text text-anchor="middle" x="1572.59" y="-101.3" font-family="Times,serif" font-size="14.00">category type</text>
</g>
</g>
</svg>
