<?xml version="1.0" encoding="UTF-8" standalone="no"?>
<!DOCTYPE svg PUBLIC "-//W3C//DTD SVG 1.1//EN"
 "http://www.w3.org/Graphics/SVG/1.1/DTD/svg11.dtd">
<!-- Generated by graphviz version 2.43.0 (0)
 -->
<!-- Title: %3 Pages: 1 -->
<svg width="2727pt" height="131pt"
 viewBox="0.00 0.00 2727.44 131.00" xmlns="http://www.w3.org/2000/svg" xmlns:xlink="http://www.w3.org/1999/xlink">
<g id="graph0" class="graph" transform="scale(1 1) rotate(0) translate(4 127)">
<title>%3</title>
<polygon fill="white" stroke="transparent" points="-4,4 -4,-127 2723.44,-127 2723.44,4 -4,4"/>
<!-- biological process or activity -->
<g id="node1" class="node">
<title>biological process or activity</title>
<ellipse fill="none" stroke="black" cx="1307.14" cy="-105" rx="143.77" ry="18"/>
<text text-anchor="middle" x="1307.14" y="-101.3" font-family="Times,serif" font-size="14.00">biological process or activity</text>
</g>
<!-- biological entity -->
<g id="node2" class="node">
<title>biological entity</title>
<ellipse fill="none" stroke="black" cx="85.14" cy="-18" rx="85.29" ry="18"/>
<text text-anchor="middle" x="85.14" y="-14.3" font-family="Times,serif" font-size="14.00">biological entity</text>
</g>
<!-- biological process or activity&#45;&gt;biological entity -->
<g id="edge1" class="edge">
<title>biological process or activity&#45;&gt;biological entity</title>
<path fill="none" stroke="black" d="M1166.36,-101.25C941.89,-96.45 512.79,-85.46 361.14,-69 288.9,-61.16 207.11,-45.47 151.44,-33.75"/>
<polygon fill="black" stroke="black" points="151.87,-30.26 141.36,-31.61 150.42,-37.11 151.87,-30.26"/>
<text text-anchor="middle" x="375.14" y="-57.8" font-family="Times,serif" font-size="14.00">is_a</text>
</g>
<!-- occurrent -->
<g id="node3" class="node">
<title>occurrent</title>
<ellipse fill="none" stroke="black" cx="244.14" cy="-18" rx="55.79" ry="18"/>
<text text-anchor="middle" x="244.14" y="-14.3" font-family="Times,serif" font-size="14.00">occurrent</text>
</g>
<!-- biological process or activity&#45;&gt;occurrent -->
<g id="edge2" class="edge">
<title>biological process or activity&#45;&gt;occurrent</title>
<path fill="none" stroke="black" d="M1163.69,-103.55C1001.1,-101.71 728.33,-94.6 495.14,-69 411.69,-59.84 391.15,-53.97 309.14,-36 304.54,-34.99 299.78,-33.88 295.01,-32.72"/>
<polygon fill="black" stroke="black" points="295.83,-29.32 285.28,-30.29 294.14,-36.11 295.83,-29.32"/>
<text text-anchor="middle" x="511.64" y="-57.8" font-family="Times,serif" font-size="14.00">uses</text>
</g>
<!-- ontology class -->
<g id="node4" class="node">
<title>ontology class</title>
<ellipse fill="none" stroke="black" cx="395.14" cy="-18" rx="76.89" ry="18"/>
<text text-anchor="middle" x="395.14" y="-14.3" font-family="Times,serif" font-size="14.00">ontology class</text>
</g>
<!-- biological process or activity&#45;&gt;ontology class -->
<g id="edge3" class="edge">
<title>biological process or activity&#45;&gt;ontology class</title>
<path fill="none" stroke="black" d="M1163.52,-104.36C1021.7,-102.94 798.99,-95.95 608.14,-69 554.35,-61.4 494.17,-46.69 451.54,-35.18"/>
<polygon fill="black" stroke="black" points="452.21,-31.73 441.64,-32.48 450.36,-38.48 452.21,-31.73"/>
<text text-anchor="middle" x="624.64" y="-57.8" font-family="Times,serif" font-size="14.00">uses</text>
</g>
<!-- id -->
<g id="node5" class="node">
<title>id</title>
<ellipse fill="none" stroke="blue" cx="528.14" cy="-18" rx="38.19" ry="18"/>
<text text-anchor="middle" x="528.14" y="-14.3" font-family="Times,serif" font-size="14.00">string</text>
</g>
<!-- biological process or activity&#45;&gt;id -->
<g id="edge4" class="edge">
<title>biological process or activity&#45;&gt;id</title>
<path fill="none" stroke="blue" d="M1166.31,-101.3C1049.34,-97.65 878.81,-89.09 731.14,-69 661.35,-59.5 643.93,-55.13 576.14,-36 573.04,-35.12 569.84,-34.15 566.64,-33.13"/>
<polygon fill="blue" stroke="blue" points="567.73,-29.8 557.14,-29.95 565.51,-36.44 567.73,-29.8"/>
<text text-anchor="middle" x="738.14" y="-57.8" font-family="Times,serif" font-size="14.00">id</text>
</g>
<!-- iri -->
<g id="node6" class="node">
<title>iri</title>
<ellipse fill="none" stroke="blue" cx="629.14" cy="-18" rx="44.39" ry="18"/>
<text text-anchor="middle" x="629.14" y="-14.3" font-family="Times,serif" font-size="14.00">iri type</text>
</g>
<!-- biological process or activity&#45;&gt;iri -->
<g id="edge5" class="edge">
<title>biological process or activity&#45;&gt;iri</title>
<path fill="none" stroke="blue" d="M1168.06,-100.46C1069.35,-96.39 933.99,-87.68 816.14,-69 765.72,-61.01 709.28,-44.89 671.73,-33.11"/>
<polygon fill="blue" stroke="blue" points="672.72,-29.75 662.13,-30.06 670.61,-36.43 672.72,-29.75"/>
<text text-anchor="middle" x="824.14" y="-57.8" font-family="Times,serif" font-size="14.00">iri</text>
</g>
<!-- type -->
<g id="node7" class="node">
<title>type</title>
<ellipse fill="none" stroke="blue" cx="730.14" cy="-18" rx="38.19" ry="18"/>
<text text-anchor="middle" x="730.14" y="-14.3" font-family="Times,serif" font-size="14.00">string</text>
</g>
<!-- biological process or activity&#45;&gt;type -->
<g id="edge6" class="edge">
<title>biological process or activity&#45;&gt;type</title>
<path fill="none" stroke="blue" d="M1173.02,-98.42C1093.29,-93.63 990.42,-84.86 900.14,-69 844.4,-59.2 831.14,-52.97 777.14,-36 774.39,-35.13 771.55,-34.21 768.71,-33.25"/>
<polygon fill="blue" stroke="blue" points="769.69,-29.88 759.09,-29.91 767.39,-36.49 769.69,-29.88"/>
<text text-anchor="middle" x="916.14" y="-57.8" font-family="Times,serif" font-size="14.00">type</text>
</g>
<!-- name -->
<g id="node8" class="node">
<title>name</title>
<ellipse fill="none" stroke="blue" cx="843.14" cy="-18" rx="56.59" ry="18"/>
<text text-anchor="middle" x="843.14" y="-14.3" font-family="Times,serif" font-size="14.00">label type</text>
</g>
<!-- biological process or activity&#45;&gt;name -->
<g id="edge7" class="edge">
<title>biological process or activity&#45;&gt;name</title>
<path fill="none" stroke="blue" d="M1180.35,-96.48C1121.68,-91.37 1051.34,-82.9 989.14,-69 953.43,-61.02 914.28,-47.33 885.51,-36.29"/>
<polygon fill="blue" stroke="blue" points="886.76,-33.02 876.17,-32.66 884.22,-39.54 886.76,-33.02"/>
<text text-anchor="middle" x="1009.14" y="-57.8" font-family="Times,serif" font-size="14.00">name</text>
</g>
<!-- description -->
<g id="node9" class="node">
<title>description</title>
<ellipse fill="none" stroke="blue" cx="993.14" cy="-18" rx="75.29" ry="18"/>
<text text-anchor="middle" x="993.14" y="-14.3" font-family="Times,serif" font-size="14.00">narrative text</text>
</g>
<!-- biological process or activity&#45;&gt;description -->
<g id="edge8" class="edge">
<title>biological process or activity&#45;&gt;description</title>
<path fill="none" stroke="blue" d="M1174.2,-98.09C1135.66,-93.01 1094.26,-84.17 1058.14,-69 1043.35,-62.79 1028.99,-52.36 1017.55,-42.63"/>
<polygon fill="blue" stroke="blue" points="1019.57,-39.75 1009.77,-35.74 1014.93,-44.99 1019.57,-39.75"/>
<text text-anchor="middle" x="1098.64" y="-57.8" font-family="Times,serif" font-size="14.00">description</text>
</g>
<!-- has attribute -->
<g id="node10" class="node">
<title>has attribute</title>
<ellipse fill="none" stroke="blue" cx="1138.14" cy="-18" rx="51.99" ry="18"/>
<text text-anchor="middle" x="1138.14" y="-14.3" font-family="Times,serif" font-size="14.00">attribute</text>
</g>
<!-- biological process or activity&#45;&gt;has attribute -->
<g id="edge9" class="edge">
<title>biological process or activity&#45;&gt;has attribute</title>
<path fill="none" stroke="blue" d="M1213.4,-91.26C1186.07,-85.8 1160.92,-78.45 1151.14,-69 1144.91,-62.97 1141.53,-54.37 1139.74,-45.99"/>
<polygon fill="blue" stroke="blue" points="1143.19,-45.44 1138.25,-36.07 1136.27,-46.48 1143.19,-45.44"/>
<text text-anchor="middle" x="1198.14" y="-57.8" font-family="Times,serif" font-size="14.00">has attribute</text>
</g>
<!-- deprecated -->
<g id="node11" class="node">
<title>deprecated</title>
<ellipse fill="none" stroke="blue" cx="1255.14" cy="-18" rx="46.59" ry="18"/>
<text text-anchor="middle" x="1255.14" y="-14.3" font-family="Times,serif" font-size="14.00">boolean</text>
</g>
<!-- biological process or activity&#45;&gt;deprecated -->
<g id="edge10" class="edge">
<title>biological process or activity&#45;&gt;deprecated</title>
<path fill="none" stroke="blue" d="M1269.95,-87.61C1262.81,-82.69 1256.28,-76.54 1252.14,-69 1248.4,-62.19 1247.64,-54.04 1248.23,-46.31"/>
<polygon fill="blue" stroke="blue" points="1251.72,-46.62 1249.72,-36.21 1244.8,-45.59 1251.72,-46.62"/>
<text text-anchor="middle" x="1292.64" y="-57.8" font-family="Times,serif" font-size="14.00">deprecated</text>
</g>
<!-- provided by -->
<g id="node12" class="node">
<title>provided by</title>
<ellipse fill="none" stroke="blue" cx="1358.14" cy="-18" rx="38.19" ry="18"/>
<text text-anchor="middle" x="1358.14" y="-14.3" font-family="Times,serif" font-size="14.00">string</text>
</g>
<!-- biological process or activity&#45;&gt;provided by -->
<g id="edge11" class="edge">
<title>biological process or activity&#45;&gt;provided by</title>
<path fill="none" stroke="blue" d="M1323.54,-87.03C1328.31,-81.55 1333.27,-75.26 1337.14,-69 1341.66,-61.68 1345.63,-53.21 1348.87,-45.35"/>
<polygon fill="blue" stroke="blue" points="1352.2,-46.43 1352.56,-35.85 1345.68,-43.9 1352.2,-46.43"/>
<text text-anchor="middle" x="1387.64" y="-57.8" font-family="Times,serif" font-size="14.00">provided by</text>
</g>
<!-- xref -->
<g id="node13" class="node">
<title>xref</title>
<ellipse fill="none" stroke="blue" cx="1472.14" cy="-18" rx="57.39" ry="18"/>
<text text-anchor="middle" x="1472.14" y="-14.3" font-family="Times,serif" font-size="14.00">uriorcurie</text>
</g>
<!-- biological process or activity&#45;&gt;xref -->
<g id="edge12" class="edge">
<title>biological process or activity&#45;&gt;xref</title>
<path fill="none" stroke="blue" d="M1388.52,-90.05C1404.49,-85.03 1420.5,-78.23 1434.14,-69 1443.35,-62.77 1451.26,-53.56 1457.43,-44.75"/>
<polygon fill="blue" stroke="blue" points="1460.49,-46.47 1463.02,-36.18 1454.62,-42.65 1460.49,-46.47"/>
<text text-anchor="middle" x="1464.64" y="-57.8" font-family="Times,serif" font-size="14.00">xref</text>
</g>
<!-- full name -->
<g id="node14" class="node">
<title>full name</title>
<ellipse fill="none" stroke="blue" cx="1604.14" cy="-18" rx="56.59" ry="18"/>
<text text-anchor="middle" x="1604.14" y="-14.3" font-family="Times,serif" font-size="14.00">label type</text>
</g>
<!-- biological process or activity&#45;&gt;full name -->
<g id="edge13" class="edge">
<title>biological process or activity&#45;&gt;full name</title>
<path fill="none" stroke="blue" d="M1392.57,-90.49C1421.61,-84.98 1454.07,-77.8 1483.14,-69 1511.06,-60.55 1541.39,-48 1564.7,-37.6"/>
<polygon fill="blue" stroke="blue" points="1566.24,-40.74 1573.91,-33.43 1563.36,-34.36 1566.24,-40.74"/>
<text text-anchor="middle" x="1557.64" y="-57.8" font-family="Times,serif" font-size="14.00">full name</text>
</g>
<!-- synonym -->
<g id="node15" class="node">
<title>synonym</title>
<ellipse fill="none" stroke="blue" cx="1735.14" cy="-18" rx="56.59" ry="18"/>
<text text-anchor="middle" x="1735.14" y="-14.3" font-family="Times,serif" font-size="14.00">label type</text>
</g>
<!-- biological process or activity&#45;&gt;synonym -->
<g id="edge14" class="edge">
<title>biological process or activity&#45;&gt;synonym</title>
<path fill="none" stroke="blue" d="M1411.06,-92.51C1486.09,-84.02 1577.25,-73.23 1595.14,-69 1629.07,-60.99 1666.17,-47.51 1693.65,-36.56"/>
<polygon fill="blue" stroke="blue" points="1694.98,-39.8 1702.95,-32.81 1692.36,-33.31 1694.98,-39.8"/>
<text text-anchor="middle" x="1678.14" y="-57.8" font-family="Times,serif" font-size="14.00">synonym</text>
</g>
<!-- category -->
<g id="node16" class="node">
<title>category</title>
<ellipse fill="none" stroke="black" cx="1861.14" cy="-18" rx="51.19" ry="18"/>
<text text-anchor="middle" x="1861.14" y="-14.3" font-family="Times,serif" font-size="14.00">category</text>
</g>
<!-- biological process or activity&#45;&gt;category -->
<g id="edge15" class="edge">
<title>biological process or activity&#45;&gt;category</title>
<path fill="none" stroke="blue" d="M1408.06,-92.13C1425.1,-90.29 1442.62,-88.51 1459.14,-87 1572.29,-76.68 1602.77,-91.48 1714.14,-69 1750.94,-61.57 1791.2,-47.43 1820.27,-36.08"/>
<polygon fill="blue" stroke="blue" points="1821.67,-39.29 1829.68,-32.35 1819.09,-32.78 1821.67,-39.29"/>
<text text-anchor="middle" x="1799.64" y="-57.8" font-family="Times,serif" font-size="14.00">category</text>
</g>
<!-- in taxon -->
<g id="node18" class="node">
<title>in taxon</title>
<ellipse fill="none" stroke="blue" cx="2014.14" cy="-18" rx="83.39" ry="18"/>
<text text-anchor="middle" x="2014.14" y="-14.3" font-family="Times,serif" font-size="14.00">organism taxon</text>
</g>
<!-- biological process or activity&#45;&gt;in taxon -->
<g id="edge16" class="edge">
<title>biological process or activity&#45;&gt;in taxon</title>
<path fill="none" stroke="blue" d="M1406.4,-91.98C1423.95,-90.12 1442.07,-88.36 1459.14,-87 1625.92,-73.7 1669.98,-95.67 1835.14,-69 1878.82,-61.95 1927.05,-48.11 1962.44,-36.77"/>
<polygon fill="blue" stroke="blue" points="1963.63,-40.06 1972.06,-33.65 1961.47,-33.41 1963.63,-40.06"/>
<text text-anchor="middle" x="1929.14" y="-57.8" font-family="Times,serif" font-size="14.00">in taxon</text>
</g>
<!-- in taxon label -->
<g id="node19" class="node">
<title>in taxon label</title>
<ellipse fill="none" stroke="blue" cx="2172.14" cy="-18" rx="56.59" ry="18"/>
<text text-anchor="middle" x="2172.14" y="-14.3" font-family="Times,serif" font-size="14.00">label type</text>
</g>
<!-- biological process or activity&#45;&gt;in taxon label -->
<g id="edge17" class="edge">
<title>biological process or activity&#45;&gt;in taxon label</title>
<path fill="none" stroke="blue" d="M1405.98,-91.85C1423.66,-89.99 1441.93,-88.27 1459.14,-87 1682.24,-70.56 1740.35,-98.12 1962.14,-69 2018.04,-61.66 2080.76,-45.68 2122.99,-33.75"/>
<polygon fill="blue" stroke="blue" points="2124.08,-37.08 2132.73,-30.97 2122.15,-30.35 2124.08,-37.08"/>
<text text-anchor="middle" x="2086.64" y="-57.8" font-family="Times,serif" font-size="14.00">in taxon label</text>
</g>
<!-- has input -->
<g id="node20" class="node">
<title>has input</title>
<ellipse fill="none" stroke="blue" cx="2316.14" cy="-18" rx="69.59" ry="18"/>
<text text-anchor="middle" x="2316.14" y="-14.3" font-family="Times,serif" font-size="14.00">named thing</text>
</g>
<!-- biological process or activity&#45;&gt;has input -->
<g id="edge18" class="edge">
<title>biological process or activity&#45;&gt;has input</title>
<path fill="none" stroke="blue" d="M1405.15,-91.8C1423.09,-89.92 1441.66,-88.21 1459.14,-87 1609.95,-76.59 1989.7,-91.72 2139.14,-69 2183.58,-62.24 2232.67,-47.8 2267.85,-36.17"/>
<polygon fill="blue" stroke="blue" points="2269.02,-39.46 2277.39,-32.97 2266.8,-32.83 2269.02,-39.46"/>
<text text-anchor="middle" x="2242.64" y="-57.8" font-family="Times,serif" font-size="14.00">has input</text>
</g>
<!-- has output -->
<g id="node21" class="node">
<title>has output</title>
<ellipse fill="none" stroke="blue" cx="2473.14" cy="-18" rx="69.59" ry="18"/>
<text text-anchor="middle" x="2473.14" y="-14.3" font-family="Times,serif" font-size="14.00">named thing</text>
</g>
<!-- biological process or activity&#45;&gt;has output -->
<g id="edge19" class="edge">
<title>biological process or activity&#45;&gt;has output</title>
<path fill="none" stroke="blue" d="M1404.74,-91.78C1422.8,-89.89 1441.52,-88.18 1459.14,-87 1641.23,-74.85 2099.38,-94.05 2280.14,-69 2329.08,-62.22 2383.45,-47.45 2421.98,-35.72"/>
<polygon fill="blue" stroke="blue" points="2423.39,-38.94 2431.91,-32.65 2421.32,-32.26 2423.39,-38.94"/>
<text text-anchor="middle" x="2394.64" y="-57.8" font-family="Times,serif" font-size="14.00">has output</text>
</g>
<!-- enabled by -->
<g id="node22" class="node">
<title>enabled by</title>
<ellipse fill="none" stroke="blue" cx="2640.14" cy="-18" rx="79.09" ry="18"/>
<text text-anchor="middle" x="2640.14" y="-14.3" font-family="Times,serif" font-size="14.00">physical entity</text>
</g>
<!-- biological process or activity&#45;&gt;enabled by -->
<g id="edge20" class="edge">
<title>biological process or activity&#45;&gt;enabled by</title>
<path fill="none" stroke="blue" d="M1404.74,-91.73C1422.8,-89.84 1441.52,-88.15 1459.14,-87 1676.06,-72.9 2221.61,-97.17 2437.14,-69 2488.35,-62.31 2545.33,-47.61 2585.86,-35.87"/>
<polygon fill="blue" stroke="blue" points="2586.93,-39.21 2595.54,-33.04 2584.96,-32.49 2586.93,-39.21"/>
<text text-anchor="middle" x="2555.64" y="-57.8" font-family="Times,serif" font-size="14.00">enabled by</text>
</g>
<!-- named thing_category -->
<g id="node17" class="node">
<title>named thing_category</title>
<ellipse fill="none" stroke="blue" cx="1543.14" cy="-105" rx="74.99" ry="18"/>
<text text-anchor="middle" x="1543.14" y="-101.3" font-family="Times,serif" font-size="14.00">category type</text>
</g>
</g>
</svg>
