<?xml version="1.0" encoding="UTF-8" standalone="no"?>
<!DOCTYPE svg PUBLIC "-//W3C//DTD SVG 1.1//EN"
 "http://www.w3.org/Graphics/SVG/1.1/DTD/svg11.dtd">
<!-- Generated by graphviz version 2.43.0 (0)
 -->
<!-- Title: %3 Pages: 1 -->
<svg width="1686pt" height="131pt"
 viewBox="0.00 0.00 1685.74 131.00" xmlns="http://www.w3.org/2000/svg" xmlns:xlink="http://www.w3.org/1999/xlink">
<g id="graph0" class="graph" transform="scale(1 1) rotate(0) translate(4 127)">
<title>%3</title>
<polygon fill="white" stroke="transparent" points="-4,4 -4,-127 1681.74,-127 1681.74,4 -4,4"/>
<!-- biological entity -->
<g id="node1" class="node">
<title>biological entity</title>
<ellipse fill="none" stroke="black" cx="852.54" cy="-105" rx="85.29" ry="18"/>
<text text-anchor="middle" x="852.54" y="-101.3" font-family="Times,serif" font-size="14.00">biological entity</text>
</g>
<!-- named thing -->
<g id="node2" class="node">
<title>named thing</title>
<ellipse fill="none" stroke="black" cx="69.54" cy="-18" rx="69.59" ry="18"/>
<text text-anchor="middle" x="69.54" y="-14.3" font-family="Times,serif" font-size="14.00">named thing</text>
</g>
<!-- biological entity&#45;&gt;named thing -->
<g id="edge1" class="edge">
<title>biological entity&#45;&gt;named thing</title>
<path fill="none" stroke="black" d="M770.59,-99.99C674.19,-94.84 509.42,-84.64 368.54,-69 270.28,-58.09 245.81,-53.74 148.54,-36 142.71,-34.94 136.65,-33.76 130.59,-32.54"/>
<polygon fill="black" stroke="black" points="130.95,-29.04 120.45,-30.45 129.53,-35.89 130.95,-29.04"/>
<text text-anchor="middle" x="382.54" y="-57.8" font-family="Times,serif" font-size="14.00">is_a</text>
</g>
<!-- thing with taxon -->
<g id="node3" class="node">
<title>thing with taxon</title>
<ellipse fill="none" stroke="black" cx="244.54" cy="-18" rx="87.18" ry="18"/>
<text text-anchor="middle" x="244.54" y="-14.3" font-family="Times,serif" font-size="14.00">thing with taxon</text>
</g>
<!-- biological entity&#45;&gt;thing with taxon -->
<g id="edge2" class="edge">
<title>biological entity&#45;&gt;thing with taxon</title>
<path fill="none" stroke="black" d="M771.74,-99.23C695.56,-94.08 578.37,-84.47 477.54,-69 419.63,-60.12 354.5,-45.76 307.85,-34.71"/>
<polygon fill="black" stroke="black" points="308.43,-31.25 297.89,-32.33 306.8,-38.06 308.43,-31.25"/>
<text text-anchor="middle" x="494.04" y="-57.8" font-family="Times,serif" font-size="14.00">uses</text>
</g>
<!-- id -->
<g id="node4" class="node">
<title>id</title>
<ellipse fill="none" stroke="blue" cx="387.54" cy="-18" rx="38.19" ry="18"/>
<text text-anchor="middle" x="387.54" y="-14.3" font-family="Times,serif" font-size="14.00">string</text>
</g>
<!-- biological entity&#45;&gt;id -->
<g id="edge3" class="edge">
<title>biological entity&#45;&gt;id</title>
<path fill="none" stroke="blue" d="M776.46,-96.86C691.99,-87.73 552.18,-69 435.54,-36 432.44,-35.12 429.24,-34.15 426.05,-33.12"/>
<polygon fill="blue" stroke="blue" points="427.13,-29.8 416.54,-29.95 424.92,-36.44 427.13,-29.8"/>
<text text-anchor="middle" x="578.54" y="-57.8" font-family="Times,serif" font-size="14.00">id</text>
</g>
<!-- iri -->
<g id="node5" class="node">
<title>iri</title>
<ellipse fill="none" stroke="blue" cx="488.54" cy="-18" rx="44.39" ry="18"/>
<text text-anchor="middle" x="488.54" y="-14.3" font-family="Times,serif" font-size="14.00">iri type</text>
</g>
<!-- biological entity&#45;&gt;iri -->
<g id="edge4" class="edge">
<title>biological entity&#45;&gt;iri</title>
<path fill="none" stroke="blue" d="M788.88,-92.99C753.35,-86.57 708.35,-77.99 668.54,-69 612.08,-56.25 598.17,-52.03 542.54,-36 539.03,-34.99 535.4,-33.91 531.76,-32.81"/>
<polygon fill="blue" stroke="blue" points="532.76,-29.45 522.17,-29.86 530.7,-36.15 532.76,-29.45"/>
<text text-anchor="middle" x="676.54" y="-57.8" font-family="Times,serif" font-size="14.00">iri</text>
</g>
<!-- type -->
<g id="node6" class="node">
<title>type</title>
<ellipse fill="none" stroke="blue" cx="589.54" cy="-18" rx="38.19" ry="18"/>
<text text-anchor="middle" x="589.54" y="-14.3" font-family="Times,serif" font-size="14.00">string</text>
</g>
<!-- biological entity&#45;&gt;type -->
<g id="edge5" class="edge">
<title>biological entity&#45;&gt;type</title>
<path fill="none" stroke="blue" d="M803.77,-90.15C782.19,-83.9 756.54,-76.29 733.54,-69 690.14,-55.24 679.51,-51.08 636.54,-36 633.86,-35.06 631.09,-34.08 628.3,-33.08"/>
<polygon fill="blue" stroke="blue" points="629.44,-29.78 618.85,-29.7 627.08,-36.37 629.44,-29.78"/>
<text text-anchor="middle" x="749.54" y="-57.8" font-family="Times,serif" font-size="14.00">type</text>
</g>
<!-- name -->
<g id="node7" class="node">
<title>name</title>
<ellipse fill="none" stroke="blue" cx="702.54" cy="-18" rx="56.59" ry="18"/>
<text text-anchor="middle" x="702.54" y="-14.3" font-family="Times,serif" font-size="14.00">label type</text>
</g>
<!-- biological entity&#45;&gt;name -->
<g id="edge6" class="edge">
<title>biological entity&#45;&gt;name</title>
<path fill="none" stroke="blue" d="M824.33,-88.01C799.89,-74.16 764.4,-54.05 738.03,-39.11"/>
<polygon fill="blue" stroke="blue" points="739.55,-35.95 729.12,-34.06 736.1,-42.04 739.55,-35.95"/>
<text text-anchor="middle" x="806.54" y="-57.8" font-family="Times,serif" font-size="14.00">name</text>
</g>
<!-- description -->
<g id="node8" class="node">
<title>description</title>
<ellipse fill="none" stroke="blue" cx="852.54" cy="-18" rx="75.29" ry="18"/>
<text text-anchor="middle" x="852.54" y="-14.3" font-family="Times,serif" font-size="14.00">narrative text</text>
</g>
<!-- biological entity&#45;&gt;description -->
<g id="edge7" class="edge">
<title>biological entity&#45;&gt;description</title>
<path fill="none" stroke="blue" d="M852.54,-86.8C852.54,-75.16 852.54,-59.55 852.54,-46.24"/>
<polygon fill="blue" stroke="blue" points="856.04,-46.18 852.54,-36.18 849.04,-46.18 856.04,-46.18"/>
<text text-anchor="middle" x="893.04" y="-57.8" font-family="Times,serif" font-size="14.00">description</text>
</g>
<!-- source -->
<g id="node9" class="node">
<title>source</title>
<ellipse fill="none" stroke="blue" cx="984.54" cy="-18" rx="38.19" ry="18"/>
<text text-anchor="middle" x="984.54" y="-14.3" font-family="Times,serif" font-size="14.00">string</text>
</g>
<!-- biological entity&#45;&gt;source -->
<g id="edge8" class="edge">
<title>biological entity&#45;&gt;source</title>
<path fill="none" stroke="blue" d="M897.62,-89.57C911.08,-84.2 925.45,-77.33 937.54,-69 948.01,-61.78 957.92,-51.89 965.92,-42.81"/>
<polygon fill="blue" stroke="blue" points="968.63,-45.02 972.42,-35.13 963.29,-40.5 968.63,-45.02"/>
<text text-anchor="middle" x="979.54" y="-57.8" font-family="Times,serif" font-size="14.00">source</text>
</g>
<!-- has attribute -->
<g id="node10" class="node">
<title>has attribute</title>
<ellipse fill="none" stroke="blue" cx="1092.54" cy="-18" rx="51.99" ry="18"/>
<text text-anchor="middle" x="1092.54" y="-14.3" font-family="Times,serif" font-size="14.00">attribute</text>
</g>
<!-- biological entity&#45;&gt;has attribute -->
<g id="edge9" class="edge">
<title>biological entity&#45;&gt;has attribute</title>
<path fill="none" stroke="blue" d="M913.29,-92.28C949.01,-85 990.42,-75.78 1007.54,-69 1026.57,-61.47 1046.36,-50.07 1062.06,-40.05"/>
<polygon fill="blue" stroke="blue" points="1064.32,-42.75 1070.79,-34.36 1060.5,-36.89 1064.32,-42.75"/>
<text text-anchor="middle" x="1084.54" y="-57.8" font-family="Times,serif" font-size="14.00">has attribute</text>
</g>
<!-- provided by -->
<g id="node11" class="node">
<title>provided by</title>
<ellipse fill="none" stroke="blue" cx="1200.54" cy="-18" rx="38.19" ry="18"/>
<text text-anchor="middle" x="1200.54" y="-14.3" font-family="Times,serif" font-size="14.00">string</text>
</g>
<!-- biological entity&#45;&gt;provided by -->
<g id="edge10" class="edge">
<title>biological entity&#45;&gt;provided by</title>
<path fill="none" stroke="blue" d="M913.1,-92.28C924.2,-90.35 935.7,-88.49 946.54,-87 1030.13,-75.48 1057.04,-99.93 1135.54,-69 1151.15,-62.85 1166.16,-51.77 1177.81,-41.6"/>
<polygon fill="blue" stroke="blue" points="1180.27,-44.1 1185.31,-34.78 1175.56,-38.92 1180.27,-44.1"/>
<text text-anchor="middle" x="1204.04" y="-57.8" font-family="Times,serif" font-size="14.00">provided by</text>
</g>
<!-- xref -->
<g id="node12" class="node">
<title>xref</title>
<ellipse fill="none" stroke="blue" cx="1314.54" cy="-18" rx="57.39" ry="18"/>
<text text-anchor="middle" x="1314.54" y="-14.3" font-family="Times,serif" font-size="14.00">uriorcurie</text>
</g>
<!-- biological entity&#45;&gt;xref -->
<g id="edge11" class="edge">
<title>biological entity&#45;&gt;xref</title>
<path fill="none" stroke="blue" d="M912.31,-92.08C923.64,-90.14 935.43,-88.33 946.54,-87 1013.74,-78.96 1187.24,-92.91 1250.54,-69 1265.87,-63.21 1280.47,-52.38 1291.84,-42.27"/>
<polygon fill="blue" stroke="blue" points="1294.23,-44.83 1299.17,-35.46 1289.46,-39.7 1294.23,-44.83"/>
<text text-anchor="middle" x="1291.04" y="-57.8" font-family="Times,serif" font-size="14.00">xref</text>
</g>
<!-- category -->
<g id="node13" class="node">
<title>category</title>
<ellipse fill="none" stroke="black" cx="1441.54" cy="-18" rx="51.19" ry="18"/>
<text text-anchor="middle" x="1441.54" y="-14.3" font-family="Times,serif" font-size="14.00">category</text>
</g>
<!-- biological entity&#45;&gt;category -->
<g id="edge12" class="edge">
<title>biological entity&#45;&gt;category</title>
<path fill="none" stroke="blue" d="M912.04,-92.04C923.46,-90.09 935.34,-88.29 946.54,-87 1107.02,-68.59 1151.42,-102.01 1309.54,-69 1342.19,-62.18 1377.44,-48.48 1403.29,-37.14"/>
<polygon fill="blue" stroke="blue" points="1405.01,-40.21 1412.71,-32.93 1402.16,-33.82 1405.01,-40.21"/>
<text text-anchor="middle" x="1390.04" y="-57.8" font-family="Times,serif" font-size="14.00">category</text>
</g>
<!-- in taxon -->
<g id="node15" class="node">
<title>in taxon</title>
<ellipse fill="none" stroke="blue" cx="1594.54" cy="-18" rx="83.39" ry="18"/>
<text text-anchor="middle" x="1594.54" y="-14.3" font-family="Times,serif" font-size="14.00">organism taxon</text>
</g>
<!-- biological entity&#45;&gt;in taxon -->
<g id="edge13" class="edge">
<title>biological entity&#45;&gt;in taxon</title>
<path fill="none" stroke="blue" d="M911.53,-92.02C923.1,-90.04 935.17,-88.24 946.54,-87 1158.34,-63.99 1215.31,-103.49 1425.54,-69 1466.63,-62.26 1511.78,-48.56 1545.07,-37.2"/>
<polygon fill="blue" stroke="blue" points="1546.26,-40.49 1554.57,-33.92 1543.98,-33.88 1546.26,-40.49"/>
<text text-anchor="middle" x="1516.54" y="-57.8" font-family="Times,serif" font-size="14.00">in taxon</text>
</g>
<!-- named thing_category -->
<g id="node14" class="node">
<title>named thing_category</title>
<ellipse fill="none" stroke="blue" cx="1030.54" cy="-105" rx="74.99" ry="18"/>
<text text-anchor="middle" x="1030.54" y="-101.3" font-family="Times,serif" font-size="14.00">category type</text>
</g>
</g>
</svg>
