<?xml version="1.0" encoding="UTF-8" standalone="no"?>
<!DOCTYPE svg PUBLIC "-//W3C//DTD SVG 1.1//EN"
 "http://www.w3.org/Graphics/SVG/1.1/DTD/svg11.dtd">
<!-- Generated by graphviz version 2.43.0 (0)
 -->
<!-- Title: %3 Pages: 1 -->
<svg width="2167pt" height="131pt"
 viewBox="0.00 0.00 2167.44 131.00" xmlns="http://www.w3.org/2000/svg" xmlns:xlink="http://www.w3.org/1999/xlink">
<g id="graph0" class="graph" transform="scale(1 1) rotate(0) translate(4 127)">
<title>%3</title>
<polygon fill="white" stroke="transparent" points="-4,4 -4,-127 2163.44,-127 2163.44,4 -4,4"/>
<!-- biological process or activity -->
<g id="node1" class="node">
<title>biological process or activity</title>
<ellipse fill="none" stroke="black" cx="1061.14" cy="-105" rx="143.77" ry="18"/>
<text text-anchor="middle" x="1061.14" y="-101.3" font-family="Times,serif" font-size="14.00">biological process or activity</text>
</g>
<!-- biological entity -->
<g id="node2" class="node">
<title>biological entity</title>
<ellipse fill="none" stroke="black" cx="85.14" cy="-18" rx="85.29" ry="18"/>
<text text-anchor="middle" x="85.14" y="-14.3" font-family="Times,serif" font-size="14.00">biological entity</text>
</g>
<!-- biological process or activity&#45;&gt;biological entity -->
<g id="edge1" class="edge">
<title>biological process or activity&#45;&gt;biological entity</title>
<path fill="none" stroke="black" d="M919.5,-101.97C778.96,-98.75 557.61,-90.44 367.14,-69 293.15,-60.67 209.22,-44.98 152.3,-33.38"/>
<polygon fill="black" stroke="black" points="152.85,-29.92 142.35,-31.34 151.44,-36.78 152.85,-29.92"/>
<text text-anchor="middle" x="381.14" y="-57.8" font-family="Times,serif" font-size="14.00">is_a</text>
</g>
<!-- occurrent -->
<g id="node3" class="node">
<title>occurrent</title>
<ellipse fill="none" stroke="black" cx="244.14" cy="-18" rx="55.79" ry="18"/>
<text text-anchor="middle" x="244.14" y="-14.3" font-family="Times,serif" font-size="14.00">occurrent</text>
</g>
<!-- biological process or activity&#45;&gt;occurrent -->
<g id="edge2" class="edge">
<title>biological process or activity&#45;&gt;occurrent</title>
<path fill="none" stroke="black" d="M924.13,-99.56C810.52,-94.89 644.94,-85.8 501.14,-69 415.14,-58.95 393.77,-54.3 309.14,-36 304.54,-35 299.77,-33.9 295.01,-32.75"/>
<polygon fill="black" stroke="black" points="295.83,-29.34 285.28,-30.33 294.14,-36.14 295.83,-29.34"/>
<text text-anchor="middle" x="517.64" y="-57.8" font-family="Times,serif" font-size="14.00">uses</text>
</g>
<!-- ontology class -->
<g id="node4" class="node">
<title>ontology class</title>
<ellipse fill="none" stroke="black" cx="395.14" cy="-18" rx="76.89" ry="18"/>
<text text-anchor="middle" x="395.14" y="-14.3" font-family="Times,serif" font-size="14.00">ontology class</text>
</g>
<!-- biological process or activity&#45;&gt;ontology class -->
<g id="edge3" class="edge">
<title>biological process or activity&#45;&gt;ontology class</title>
<path fill="none" stroke="black" d="M927,-98.42C838.62,-93.52 720.55,-84.64 617.14,-69 561.03,-60.51 498,-45.81 453.48,-34.54"/>
<polygon fill="black" stroke="black" points="454.26,-31.12 443.7,-32.04 452.53,-37.91 454.26,-31.12"/>
<text text-anchor="middle" x="633.64" y="-57.8" font-family="Times,serif" font-size="14.00">uses</text>
</g>
<!-- id -->
<g id="node5" class="node">
<title>id</title>
<ellipse fill="none" stroke="blue" cx="528.14" cy="-18" rx="38.19" ry="18"/>
<text text-anchor="middle" x="528.14" y="-14.3" font-family="Times,serif" font-size="14.00">string</text>
</g>
<!-- biological process or activity&#45;&gt;id -->
<g id="edge4" class="edge">
<title>biological process or activity&#45;&gt;id</title>
<path fill="none" stroke="blue" d="M937.73,-95.73C838.6,-86.94 696.56,-69.49 576.14,-36 573.03,-35.14 569.84,-34.17 566.64,-33.15"/>
<polygon fill="blue" stroke="blue" points="567.72,-29.83 557.13,-29.99 565.51,-36.47 567.72,-29.83"/>
<text text-anchor="middle" x="728.14" y="-57.8" font-family="Times,serif" font-size="14.00">id</text>
</g>
<!-- iri -->
<g id="node6" class="node">
<title>iri</title>
<ellipse fill="none" stroke="blue" cx="629.14" cy="-18" rx="44.39" ry="18"/>
<text text-anchor="middle" x="629.14" y="-14.3" font-family="Times,serif" font-size="14.00">iri type</text>
</g>
<!-- biological process or activity&#45;&gt;iri -->
<g id="edge5" class="edge">
<title>biological process or activity&#45;&gt;iri</title>
<path fill="none" stroke="blue" d="M966.08,-91.47C923.46,-85.42 872.65,-77.6 827.14,-69 762.63,-56.8 746.51,-53.21 683.14,-36 679.56,-35.03 675.87,-33.97 672.17,-32.88"/>
<polygon fill="blue" stroke="blue" points="673.02,-29.48 662.43,-29.94 670.99,-36.18 673.02,-29.48"/>
<text text-anchor="middle" x="835.14" y="-57.8" font-family="Times,serif" font-size="14.00">iri</text>
</g>
<!-- type -->
<g id="node7" class="node">
<title>type</title>
<ellipse fill="none" stroke="blue" cx="730.14" cy="-18" rx="38.19" ry="18"/>
<text text-anchor="middle" x="730.14" y="-14.3" font-family="Times,serif" font-size="14.00">string</text>
</g>
<!-- biological process or activity&#45;&gt;type -->
<g id="edge6" class="edge">
<title>biological process or activity&#45;&gt;type</title>
<path fill="none" stroke="blue" d="M988.64,-89.43C930.82,-77.14 848.06,-58.06 777.14,-36 774.38,-35.14 771.55,-34.22 768.7,-33.26"/>
<polygon fill="blue" stroke="blue" points="769.68,-29.9 759.09,-29.94 767.39,-36.51 769.68,-29.9"/>
<text text-anchor="middle" x="909.14" y="-57.8" font-family="Times,serif" font-size="14.00">type</text>
</g>
<!-- name -->
<g id="node8" class="node">
<title>name</title>
<ellipse fill="none" stroke="blue" cx="843.14" cy="-18" rx="56.59" ry="18"/>
<text text-anchor="middle" x="843.14" y="-14.3" font-family="Times,serif" font-size="14.00">label type</text>
</g>
<!-- biological process or activity&#45;&gt;name -->
<g id="edge7" class="edge">
<title>biological process or activity&#45;&gt;name</title>
<path fill="none" stroke="blue" d="M1019.37,-87.71C981.41,-72.91 925.62,-51.16 887.02,-36.11"/>
<polygon fill="blue" stroke="blue" points="888.19,-32.81 877.6,-32.44 885.65,-39.33 888.19,-32.81"/>
<text text-anchor="middle" x="986.14" y="-57.8" font-family="Times,serif" font-size="14.00">name</text>
</g>
<!-- description -->
<g id="node9" class="node">
<title>description</title>
<ellipse fill="none" stroke="blue" cx="993.14" cy="-18" rx="75.29" ry="18"/>
<text text-anchor="middle" x="993.14" y="-14.3" font-family="Times,serif" font-size="14.00">narrative text</text>
</g>
<!-- biological process or activity&#45;&gt;description -->
<g id="edge8" class="edge">
<title>biological process or activity&#45;&gt;description</title>
<path fill="none" stroke="blue" d="M1042.61,-86.85C1037.07,-81.37 1031.14,-75.13 1026.14,-69 1020.03,-61.51 1014,-52.86 1008.8,-44.88"/>
<polygon fill="blue" stroke="blue" points="1011.65,-42.83 1003.33,-36.26 1005.74,-46.58 1011.65,-42.83"/>
<text text-anchor="middle" x="1066.64" y="-57.8" font-family="Times,serif" font-size="14.00">description</text>
</g>
<!-- has attribute -->
<g id="node10" class="node">
<title>has attribute</title>
<ellipse fill="none" stroke="blue" cx="1138.14" cy="-18" rx="51.99" ry="18"/>
<text text-anchor="middle" x="1138.14" y="-14.3" font-family="Times,serif" font-size="14.00">attribute</text>
</g>
<!-- biological process or activity&#45;&gt;has attribute -->
<g id="edge9" class="edge">
<title>biological process or activity&#45;&gt;has attribute</title>
<path fill="none" stroke="blue" d="M1086.9,-87.01C1093.91,-81.71 1101.2,-75.54 1107.14,-69 1113.73,-61.75 1119.73,-52.92 1124.66,-44.7"/>
<polygon fill="blue" stroke="blue" points="1127.83,-46.22 1129.75,-35.81 1121.75,-42.75 1127.83,-46.22"/>
<text text-anchor="middle" x="1165.14" y="-57.8" font-family="Times,serif" font-size="14.00">has attribute</text>
</g>
<!-- provided by -->
<g id="node11" class="node">
<title>provided by</title>
<ellipse fill="none" stroke="blue" cx="1246.14" cy="-18" rx="38.19" ry="18"/>
<text text-anchor="middle" x="1246.14" y="-14.3" font-family="Times,serif" font-size="14.00">string</text>
</g>
<!-- biological process or activity&#45;&gt;provided by -->
<g id="edge10" class="edge">
<title>biological process or activity&#45;&gt;provided by</title>
<path fill="none" stroke="blue" d="M1165.76,-92.53C1183.68,-87.28 1201.28,-79.75 1216.14,-69 1224.45,-62.99 1230.89,-53.9 1235.63,-45.11"/>
<polygon fill="blue" stroke="blue" points="1238.9,-46.38 1240.11,-35.86 1232.6,-43.33 1238.9,-46.38"/>
<text text-anchor="middle" x="1272.64" y="-57.8" font-family="Times,serif" font-size="14.00">provided by</text>
</g>
<!-- xref -->
<g id="node12" class="node">
<title>xref</title>
<ellipse fill="none" stroke="blue" cx="1360.14" cy="-18" rx="57.39" ry="18"/>
<text text-anchor="middle" x="1360.14" y="-14.3" font-family="Times,serif" font-size="14.00">uriorcurie</text>
</g>
<!-- biological process or activity&#45;&gt;xref -->
<g id="edge11" class="edge">
<title>biological process or activity&#45;&gt;xref</title>
<path fill="none" stroke="blue" d="M1161.64,-92.09C1231.01,-83.58 1312.03,-72.97 1319.14,-69 1329.65,-63.13 1338.54,-53.41 1345.34,-44.1"/>
<polygon fill="blue" stroke="blue" points="1348.26,-46.02 1350.97,-35.77 1342.46,-42.09 1348.26,-46.02"/>
<text text-anchor="middle" x="1351.64" y="-57.8" font-family="Times,serif" font-size="14.00">xref</text>
</g>
<!-- category -->
<g id="node13" class="node">
<title>category</title>
<ellipse fill="none" stroke="black" cx="1487.14" cy="-18" rx="51.19" ry="18"/>
<text text-anchor="middle" x="1487.14" y="-14.3" font-family="Times,serif" font-size="14.00">category</text>
</g>
<!-- biological process or activity&#45;&gt;category -->
<g id="edge12" class="edge">
<title>biological process or activity&#45;&gt;category</title>
<path fill="none" stroke="blue" d="M1164.32,-92.4C1253.67,-82.34 1368.87,-69.34 1370.14,-69 1397.99,-61.64 1427.82,-48.81 1450.39,-37.99"/>
<polygon fill="blue" stroke="blue" points="1452.14,-41.03 1459.59,-33.5 1449.07,-34.74 1452.14,-41.03"/>
<text text-anchor="middle" x="1444.64" y="-57.8" font-family="Times,serif" font-size="14.00">category</text>
</g>
<!-- in taxon -->
<g id="node15" class="node">
<title>in taxon</title>
<ellipse fill="none" stroke="blue" cx="1640.14" cy="-18" rx="83.39" ry="18"/>
<text text-anchor="middle" x="1640.14" y="-14.3" font-family="Times,serif" font-size="14.00">organism taxon</text>
</g>
<!-- biological process or activity&#45;&gt;in taxon -->
<g id="edge13" class="edge">
<title>biological process or activity&#45;&gt;in taxon</title>
<path fill="none" stroke="blue" d="M1161.65,-92.13C1178.81,-90.28 1196.48,-88.49 1213.14,-87 1331.6,-76.39 1363.24,-90.89 1480.14,-69 1518.34,-61.85 1560.23,-48.55 1591.56,-37.47"/>
<polygon fill="blue" stroke="blue" points="1593.11,-40.63 1601.34,-33.96 1590.75,-34.04 1593.11,-40.63"/>
<text text-anchor="middle" x="1568.14" y="-57.8" font-family="Times,serif" font-size="14.00">in taxon</text>
</g>
<!-- has input -->
<g id="node16" class="node">
<title>has input</title>
<ellipse fill="none" stroke="blue" cx="1797.14" cy="-18" rx="55.79" ry="18"/>
<text text-anchor="middle" x="1797.14" y="-14.3" font-family="Times,serif" font-size="14.00">occurrent</text>
</g>
<!-- biological process or activity&#45;&gt;has input -->
<g id="edge14" class="edge">
<title>biological process or activity&#45;&gt;has input</title>
<path fill="none" stroke="blue" d="M1160.4,-91.96C1177.95,-90.1 1196.07,-88.35 1213.14,-87 1385.24,-73.4 1430.36,-94.21 1601.14,-69 1652.55,-61.41 1710,-45.89 1749.35,-34.14"/>
<polygon fill="blue" stroke="blue" points="1750.38,-37.49 1758.94,-31.25 1748.36,-30.79 1750.38,-37.49"/>
<text text-anchor="middle" x="1705.64" y="-57.8" font-family="Times,serif" font-size="14.00">has input</text>
</g>
<!-- has output -->
<g id="node17" class="node">
<title>has output</title>
<ellipse fill="none" stroke="blue" cx="1927.14" cy="-18" rx="55.79" ry="18"/>
<text text-anchor="middle" x="1927.14" y="-14.3" font-family="Times,serif" font-size="14.00">occurrent</text>
</g>
<!-- biological process or activity&#45;&gt;has output -->
<g id="edge15" class="edge">
<title>biological process or activity&#45;&gt;has output</title>
<path fill="none" stroke="blue" d="M1159.57,-91.87C1177.38,-89.99 1195.8,-88.26 1213.14,-87 1448.21,-69.89 1510.08,-104.14 1743.14,-69 1790.72,-61.83 1843.58,-46.68 1880.39,-34.93"/>
<polygon fill="blue" stroke="blue" points="1881.89,-38.12 1890.33,-31.72 1879.74,-31.46 1881.89,-38.12"/>
<text text-anchor="middle" x="1848.64" y="-57.8" font-family="Times,serif" font-size="14.00">has output</text>
</g>
<!-- enabled by -->
<g id="node18" class="node">
<title>enabled by</title>
<ellipse fill="none" stroke="blue" cx="2080.14" cy="-18" rx="79.09" ry="18"/>
<text text-anchor="middle" x="2080.14" y="-14.3" font-family="Times,serif" font-size="14.00">physical entity</text>
</g>
<!-- biological process or activity&#45;&gt;enabled by -->
<g id="edge16" class="edge">
<title>biological process or activity&#45;&gt;enabled by</title>
<path fill="none" stroke="blue" d="M1159.15,-91.8C1177.09,-89.92 1195.66,-88.21 1213.14,-87 1363.5,-76.61 1741.95,-90.42 1891.14,-69 1938.17,-62.25 1990.29,-47.93 2027.86,-36.34"/>
<polygon fill="blue" stroke="blue" points="2029.07,-39.63 2037.57,-33.3 2026.98,-32.95 2029.07,-39.63"/>
<text text-anchor="middle" x="2004.64" y="-57.8" font-family="Times,serif" font-size="14.00">enabled by</text>
</g>
<!-- named thing_category -->
<g id="node14" class="node">
<title>named thing_category</title>
<ellipse fill="none" stroke="blue" cx="1297.14" cy="-105" rx="74.99" ry="18"/>
<text text-anchor="middle" x="1297.14" y="-101.3" font-family="Times,serif" font-size="14.00">category type</text>
</g>
</g>
</svg>
