<?xml version="1.0" encoding="UTF-8" standalone="no"?>
<!DOCTYPE svg PUBLIC "-//W3C//DTD SVG 1.1//EN"
 "http://www.w3.org/Graphics/SVG/1.1/DTD/svg11.dtd">
<!-- Generated by graphviz version 2.40.1 (20161225.0304)
 -->
<!-- Title: %3 Pages: 1 -->
<svg width="1684pt" height="289pt"
 viewBox="0.00 0.00 1683.65 289.00" xmlns="http://www.w3.org/2000/svg" xmlns:xlink="http://www.w3.org/1999/xlink">
<g id="graph0" class="graph" transform="scale(1 1) rotate(0) translate(4 285)">
<title>%3</title>
<polygon fill="#ffffff" stroke="transparent" points="-4,4 -4,-285 1679.6523,-285 1679.6523,4 -4,4"/>
<!-- biosample to disease or phenotypic feature association -->
<g id="node1" class="node">
<title>biosample to disease or phenotypic feature association</title>
<ellipse fill="none" stroke="#000000" cx="972.4015" cy="-263" rx="202.7759" ry="18"/>
<text text-anchor="middle" x="972.4015" y="-258.8" font-family="Times,serif" font-size="14.00" fill="#000000">biosample to disease or phenotypic feature association</text>
</g>
<!-- association -->
<g id="node2" class="node">
<title>association</title>
<ellipse fill="none" stroke="#000000" cx="49.4015" cy="-177" rx="49.3032" ry="18"/>
<text text-anchor="middle" x="49.4015" y="-172.8" font-family="Times,serif" font-size="14.00" fill="#000000">association</text>
</g>
<!-- biosample to disease or phenotypic feature association&#45;&gt;association -->
<g id="edge1" class="edge">
<title>biosample to disease or phenotypic feature association&#45;&gt;association</title>
<path fill="none" stroke="#000000" d="M797.2781,-253.8527C583.8248,-241.8922 235.8327,-219.5533 108.4015,-195 104.2018,-194.1908 99.8765,-193.196 95.567,-192.0932"/>
<polygon fill="#000000" stroke="#000000" points="96.1766,-188.6312 85.6069,-189.3605 94.3244,-195.3817 96.1766,-188.6312"/>
<text text-anchor="middle" x="390.6774" y="-215.8" font-family="Times,serif" font-size="14.00" fill="#000000">is_a</text>
</g>
<!-- biosample to thing association -->
<g id="node3" class="node">
<title>biosample to thing association</title>
<ellipse fill="none" stroke="#000000" cx="234.4015" cy="-177" rx="117.3836" ry="18"/>
<text text-anchor="middle" x="234.4015" y="-172.8" font-family="Times,serif" font-size="14.00" fill="#000000">biosample to thing association</text>
</g>
<!-- biosample to disease or phenotypic feature association&#45;&gt;biosample to thing association -->
<g id="edge2" class="edge">
<title>biosample to disease or phenotypic feature association&#45;&gt;biosample to thing association</title>
<path fill="none" stroke="#000000" d="M839.6689,-249.3862C715.8115,-236.4081 525.9245,-215.8095 361.4015,-195 351.1887,-193.7082 340.5232,-192.2961 329.9015,-190.8491"/>
<polygon fill="#000000" stroke="#000000" points="330.1307,-187.3478 319.7474,-189.454 329.1778,-194.2827 330.1307,-187.3478"/>
<text text-anchor="middle" x="641.4567" y="-215.8" font-family="Times,serif" font-size="14.00" fill="#000000">uses</text>
</g>
<!-- thing to disease or phenotypic feature association -->
<g id="node4" class="node">
<title>thing to disease or phenotypic feature association</title>
<ellipse fill="none" stroke="#000000" cx="554.4015" cy="-177" rx="184.4347" ry="18"/>
<text text-anchor="middle" x="554.4015" y="-172.8" font-family="Times,serif" font-size="14.00" fill="#000000">thing to disease or phenotypic feature association</text>
</g>
<!-- biosample to disease or phenotypic feature association&#45;&gt;thing to disease or phenotypic feature association -->
<g id="edge3" class="edge">
<title>biosample to disease or phenotypic feature association&#45;&gt;thing to disease or phenotypic feature association</title>
<path fill="none" stroke="#000000" d="M878.3132,-247.0244C844.783,-241.08 806.7876,-234.0568 772.2912,-227 726.0009,-217.5305 674.4623,-205.7602 633.1353,-196.0187"/>
<polygon fill="#000000" stroke="#000000" points="633.9379,-192.612 623.4008,-193.7172 632.3272,-199.4242 633.9379,-192.612"/>
<text text-anchor="middle" x="784.4567" y="-215.8" font-family="Times,serif" font-size="14.00" fill="#000000">uses</text>
</g>
<!-- id -->
<g id="node5" class="node">
<title>id</title>
<ellipse fill="none" stroke="#000000" cx="783.4015" cy="-177" rx="27" ry="18"/>
<text text-anchor="middle" x="783.4015" y="-172.8" font-family="Times,serif" font-size="14.00" fill="#000000">id</text>
</g>
<!-- biosample to disease or phenotypic feature association&#45;&gt;id -->
<g id="edge4" class="edge">
<title>biosample to disease or phenotypic feature association&#45;&gt;id</title>
<path fill="none" stroke="#0000ff" d="M874.1489,-247.1706C848.0557,-241.5611 824.1717,-234.7036 813.5119,-227 805.4299,-221.1593 799.1121,-212.4208 794.3965,-203.8754"/>
<polygon fill="#0000ff" stroke="#0000ff" points="797.484,-202.2235 789.9006,-194.8247 791.2149,-205.3377 797.484,-202.2235"/>
<text text-anchor="middle" x="819.8463" y="-215.8" font-family="Times,serif" font-size="14.00" fill="#000000">id</text>
</g>
<!-- subject -->
<g id="node7" class="node">
<title>subject</title>
<ellipse fill="none" stroke="#0000ff" cx="901.4015" cy="-177" rx="35.3048" ry="18"/>
<text text-anchor="middle" x="901.4015" y="-172.8" font-family="Times,serif" font-size="14.00" fill="#000000">iri type</text>
</g>
<!-- biosample to disease or phenotypic feature association&#45;&gt;subject -->
<g id="edge5" class="edge">
<title>biosample to disease or phenotypic feature association&#45;&gt;subject</title>
<path fill="none" stroke="#0000ff" d="M938.6822,-245.2334C931.3389,-240.1326 924.1577,-234.0178 918.7462,-227 913.7528,-220.5243 910.135,-212.508 907.5399,-204.805"/>
<polygon fill="#0000ff" stroke="#0000ff" points="910.8452,-203.6368 904.6877,-195.015 904.1246,-205.5948 910.8452,-203.6368"/>
<text text-anchor="middle" x="939.2292" y="-215.8" font-family="Times,serif" font-size="14.00" fill="#000000">subject</text>
</g>
<!-- relation -->
<g id="node8" class="node">
<title>relation</title>
<ellipse fill="none" stroke="#0000ff" cx="888.4015" cy="-18" rx="35.3048" ry="18"/>
<text text-anchor="middle" x="888.4015" y="-13.8" font-family="Times,serif" font-size="14.00" fill="#000000">iri type</text>
</g>
<!-- biosample to disease or phenotypic feature association&#45;&gt;relation -->
<g id="edge6" class="edge">
<title>biosample to disease or phenotypic feature association&#45;&gt;relation</title>
<path fill="none" stroke="#0000ff" d="M921.0236,-245.4531C897.572,-234.6815 871.8582,-218.3763 857.4015,-195 828.255,-147.8703 854.4799,-80.929 873.2689,-44.3587"/>
<polygon fill="#0000ff" stroke="#0000ff" points="876.4721,-45.7898 878.083,-35.3182 870.2935,-42.4997 876.4721,-45.7898"/>
<text text-anchor="middle" x="867.7809" y="-129.8" font-family="Times,serif" font-size="14.00" fill="#000000">relation</text>
</g>
<!-- object -->
<g id="node9" class="node">
<title>object</title>
<ellipse fill="none" stroke="#0000ff" cx="951.4015" cy="-91" rx="35.3048" ry="18"/>
<text text-anchor="middle" x="951.4015" y="-86.8" font-family="Times,serif" font-size="14.00" fill="#000000">iri type</text>
</g>
<!-- biosample to disease or phenotypic feature association&#45;&gt;object -->
<g id="edge7" class="edge">
<title>biosample to disease or phenotypic feature association&#45;&gt;object</title>
<path fill="none" stroke="#0000ff" d="M973.29,-244.7209C974.1597,-218.3839 974.2714,-168.3799 965.4015,-127 964.7822,-124.1108 963.9613,-121.1497 963.0266,-118.227"/>
<polygon fill="#0000ff" stroke="#0000ff" points="966.2352,-116.808 959.5378,-108.5985 959.6539,-119.1927 966.2352,-116.808"/>
<text text-anchor="middle" x="990.505" y="-172.8" font-family="Times,serif" font-size="14.00" fill="#000000">object</text>
</g>
<!-- negated -->
<g id="node10" class="node">
<title>negated</title>
<ellipse fill="none" stroke="#0000ff" cx="1062.4015" cy="-177" rx="38.2024" ry="18"/>
<text text-anchor="middle" x="1062.4015" y="-172.8" font-family="Times,serif" font-size="14.00" fill="#000000">boolean</text>
</g>
<!-- biosample to disease or phenotypic feature association&#45;&gt;negated -->
<g id="edge8" class="edge">
<title>biosample to disease or phenotypic feature association&#45;&gt;negated</title>
<path fill="none" stroke="#0000ff" d="M991.4882,-244.7616C1005.1095,-231.7457 1023.5361,-214.138 1038.1918,-200.1337"/>
<polygon fill="#0000ff" stroke="#0000ff" points="1040.6547,-202.6213 1045.4666,-193.1823 1035.8187,-197.5604 1040.6547,-202.6213"/>
<text text-anchor="middle" x="1045.1671" y="-215.8" font-family="Times,serif" font-size="14.00" fill="#000000">negated</text>
</g>
<!-- association type -->
<g id="node11" class="node">
<title>association type</title>
<ellipse fill="none" stroke="#0000ff" cx="1179.4015" cy="-177" rx="60.9049" ry="18"/>
<text text-anchor="middle" x="1179.4015" y="-172.8" font-family="Times,serif" font-size="14.00" fill="#000000">ontology class</text>
</g>
<!-- biosample to disease or phenotypic feature association&#45;&gt;association type -->
<g id="edge9" class="edge">
<title>biosample to disease or phenotypic feature association&#45;&gt;association type</title>
<path fill="none" stroke="#0000ff" d="M1023.083,-245.5048C1038.6864,-239.8688 1055.847,-233.4152 1071.4015,-227 1093.8274,-217.7509 1118.3992,-206.4688 1138.4317,-196.9639"/>
<polygon fill="#0000ff" stroke="#0000ff" points="1140.0642,-200.0631 1147.5813,-192.5969 1137.0489,-193.7457 1140.0642,-200.0631"/>
<text text-anchor="middle" x="1147.3068" y="-215.8" font-family="Times,serif" font-size="14.00" fill="#000000">association type</text>
</g>
<!-- qualifiers -->
<g id="node12" class="node">
<title>qualifiers</title>
<ellipse fill="none" stroke="#0000ff" cx="1319.4015" cy="-177" rx="60.9049" ry="18"/>
<text text-anchor="middle" x="1319.4015" y="-172.8" font-family="Times,serif" font-size="14.00" fill="#000000">ontology class</text>
</g>
<!-- biosample to disease or phenotypic feature association&#45;&gt;qualifiers -->
<g id="edge10" class="edge">
<title>biosample to disease or phenotypic feature association&#45;&gt;qualifiers</title>
<path fill="none" stroke="#0000ff" d="M1094.1005,-248.5758C1127.5874,-243.2217 1163.685,-236.1506 1196.4015,-227 1224.3022,-219.1963 1254.4542,-207.0034 1277.922,-196.612"/>
<polygon fill="#0000ff" stroke="#0000ff" points="1279.5305,-199.7264 1287.218,-192.4357 1276.6619,-193.3412 1279.5305,-199.7264"/>
<text text-anchor="middle" x="1264.4533" y="-215.8" font-family="Times,serif" font-size="14.00" fill="#000000">qualifiers</text>
</g>
<!-- publications -->
<g id="node13" class="node">
<title>publications</title>
<ellipse fill="none" stroke="#0000ff" cx="1448.4015" cy="-177" rx="49.7878" ry="18"/>
<text text-anchor="middle" x="1448.4015" y="-172.8" font-family="Times,serif" font-size="14.00" fill="#000000">publication</text>
</g>
<!-- biosample to disease or phenotypic feature association&#45;&gt;publications -->
<g id="edge11" class="edge">
<title>biosample to disease or phenotypic feature association&#45;&gt;publications</title>
<path fill="none" stroke="#0000ff" d="M1113.7554,-250.027C1183.6987,-243.0364 1260.3113,-234.3602 1294.4015,-227 1332.4597,-218.7831 1374.4167,-204.8209 1404.9124,-193.7357"/>
<polygon fill="#0000ff" stroke="#0000ff" points="1406.2147,-196.986 1414.3914,-190.2487 1403.7979,-190.4164 1406.2147,-196.986"/>
<text text-anchor="middle" x="1380.6188" y="-215.8" font-family="Times,serif" font-size="14.00" fill="#000000">publications</text>
</g>
<!-- provided by -->
<g id="node14" class="node">
<title>provided by</title>
<ellipse fill="none" stroke="#0000ff" cx="1556.4015" cy="-177" rx="40.1317" ry="18"/>
<text text-anchor="middle" x="1556.4015" y="-172.8" font-family="Times,serif" font-size="14.00" fill="#000000">provider</text>
</g>
<!-- biosample to disease or phenotypic feature association&#45;&gt;provided by -->
<g id="edge12" class="edge">
<title>biosample to disease or phenotypic feature association&#45;&gt;provided by</title>
<path fill="none" stroke="#0000ff" d="M1118.0775,-250.478C1140.2926,-248.6128 1162.9552,-246.7353 1184.4015,-245 1288.369,-236.5877 1316.4068,-248.8423 1418.4015,-227 1453.2431,-219.5386 1491.1942,-205.3112 1518.4634,-193.935"/>
<polygon fill="#0000ff" stroke="#0000ff" points="1520.161,-197.0169 1528.0011,-189.8906 1517.4282,-190.5723 1520.161,-197.0169"/>
<text text-anchor="middle" x="1499.0343" y="-215.8" font-family="Times,serif" font-size="14.00" fill="#000000">provided by</text>
</g>
<!-- association slot -->
<g id="node15" class="node">
<title>association slot</title>
<ellipse fill="none" stroke="#0000ff" cx="1645.4015" cy="-177" rx="30.0035" ry="18"/>
<text text-anchor="middle" x="1645.4015" y="-172.8" font-family="Times,serif" font-size="14.00" fill="#000000">string</text>
</g>
<!-- biosample to disease or phenotypic feature association&#45;&gt;association slot -->
<g id="edge13" class="edge">
<title>biosample to disease or phenotypic feature association&#45;&gt;association slot</title>
<path fill="none" stroke="#0000ff" d="M1115.1824,-250.2167C1138.3124,-248.3359 1162.0134,-246.5224 1184.4015,-245 1262.5455,-239.6861 1460.3329,-245.6624 1536.4015,-227 1564.2308,-220.1724 1593.6423,-206.2341 1614.8908,-194.8043"/>
<polygon fill="#0000ff" stroke="#0000ff" points="1616.6823,-197.8134 1623.7561,-189.926 1613.3076,-191.6806 1616.6823,-197.8134"/>
<text text-anchor="middle" x="1619.3688" y="-215.8" font-family="Times,serif" font-size="14.00" fill="#000000">association slot</text>
</g>
<!-- association_id -->
<g id="node6" class="node">
<title>association_id</title>
<ellipse fill="none" stroke="#0000ff" cx="1252.4015" cy="-263" rx="59.4427" ry="18"/>
<text text-anchor="middle" x="1252.4015" y="-258.8" font-family="Times,serif" font-size="14.00" fill="#000000">identifier type</text>
</g>
<!-- subject&#45;&gt;relation -->
<g id="edge15" class="edge">
<title>subject&#45;&gt;relation</title>
<path fill="none" stroke="#000000" stroke-dasharray="1,5" d="M899.9103,-158.7607C897.6573,-131.2051 893.3673,-78.735 890.709,-46.2226"/>
<polygon fill="#000000" stroke="#000000" points="894.1787,-45.7081 889.8754,-36.0266 887.202,-46.2786 894.1787,-45.7081"/>
</g>
<!-- subject&#45;&gt;object -->
<g id="edge14" class="edge">
<title>subject&#45;&gt;object</title>
<path fill="none" stroke="#000000" d="M907.7409,-158.8393C911.4804,-149.0884 916.6512,-137.0436 922.6427,-127 924.9646,-123.1078 927.6674,-119.1751 930.4687,-115.4105"/>
<polygon fill="#000000" stroke="#000000" points="933.239,-117.5497 936.6491,-107.5186 927.7279,-113.2337 933.239,-117.5497"/>
<text text-anchor="middle" x="944.7809" y="-129.8" font-family="Times,serif" font-size="14.00" fill="#000000">relation</text>
</g>
<!-- object&#45;&gt;relation -->
<g id="edge16" class="edge">
<title>object&#45;&gt;relation</title>
<path fill="none" stroke="#000000" stroke-dasharray="1,5" d="M937.1058,-74.4352C928.8898,-64.915 918.4212,-52.7847 909.2967,-42.2118"/>
<polygon fill="#000000" stroke="#000000" points="911.8239,-39.7831 902.6406,-34.4993 906.5244,-44.3566 911.8239,-39.7831"/>
</g>
</g>
</svg>
