<?xml version="1.0" encoding="UTF-8" standalone="no"?>
<!DOCTYPE svg PUBLIC "-//W3C//DTD SVG 1.1//EN"
 "http://www.w3.org/Graphics/SVG/1.1/DTD/svg11.dtd">
<!-- Generated by graphviz version 2.40.1 (20161225.0304)
 -->
<!-- Title: %3 Pages: 1 -->
<svg width="1830pt" height="130pt"
 viewBox="0.00 0.00 1830.32 130.00" xmlns="http://www.w3.org/2000/svg" xmlns:xlink="http://www.w3.org/1999/xlink">
<g id="graph0" class="graph" transform="scale(1 1) rotate(0) translate(4 126)">
<title>%3</title>
<polygon fill="#ffffff" stroke="transparent" points="-4,4 -4,-126 1826.3187,-126 1826.3187,4 -4,4"/>
<!-- biosample -->
<g id="node1" class="node">
<title>biosample</title>
<ellipse fill="none" stroke="#000000" cx="927.5965" cy="-104" rx="46.4132" ry="18"/>
<text text-anchor="middle" x="927.5965" y="-99.8" font-family="Times,serif" font-size="14.00" fill="#000000">biosample</text>
</g>
<!-- organismal entity -->
<g id="node2" class="node">
<title>organismal entity</title>
<ellipse fill="none" stroke="#000000" cx="71.5965" cy="-18" rx="71.6932" ry="18"/>
<text text-anchor="middle" x="71.5965" y="-13.8" font-family="Times,serif" font-size="14.00" fill="#000000">organismal entity</text>
</g>
<!-- biosample&#45;&gt;organismal entity -->
<g id="edge1" class="edge">
<title>biosample&#45;&gt;organismal entity</title>
<path fill="none" stroke="#000000" d="M881.1439,-102.3017C785.2373,-98.5101 558.4415,-88.0694 369.0448,-68 272.3413,-57.7528 248.2225,-53.6702 152.5965,-36 146.554,-34.8834 140.2762,-33.6392 134.0094,-32.3409"/>
<polygon fill="#000000" stroke="#000000" points="134.7138,-28.9125 124.2059,-30.2666 133.2648,-35.7609 134.7138,-28.9125"/>
<text text-anchor="middle" x="380.8724" y="-56.8" font-family="Times,serif" font-size="14.00" fill="#000000">is_a</text>
</g>
<!-- thing with taxon -->
<g id="node3" class="node">
<title>thing with taxon</title>
<ellipse fill="none" stroke="#000000" cx="229.5965" cy="-18" rx="68.1547" ry="18"/>
<text text-anchor="middle" x="229.5965" y="-13.8" font-family="Times,serif" font-size="14.00" fill="#000000">thing with taxon</text>
</g>
<!-- biosample&#45;&gt;thing with taxon -->
<g id="edge2" class="edge">
<title>biosample&#45;&gt;thing with taxon</title>
<path fill="none" stroke="#000000" d="M881.4054,-101.7667C800.5151,-97.5189 628.0627,-86.9639 483.4862,-68 404.7046,-57.6663 385.4153,-52.0488 307.5965,-36 301.9288,-34.8311 296.0411,-33.5663 290.1551,-32.2676"/>
<polygon fill="#000000" stroke="#000000" points="290.8128,-28.8283 280.2899,-30.061 289.2848,-35.6595 290.8128,-28.8283"/>
<text text-anchor="middle" x="495.6517" y="-56.8" font-family="Times,serif" font-size="14.00" fill="#000000">uses</text>
</g>
<!-- id -->
<g id="node4" class="node">
<title>id</title>
<ellipse fill="none" stroke="#0000ff" cx="375.5965" cy="-18" rx="59.4427" ry="18"/>
<text text-anchor="middle" x="375.5965" y="-13.8" font-family="Times,serif" font-size="14.00" fill="#000000">identifier type</text>
</g>
<!-- biosample&#45;&gt;id -->
<g id="edge3" class="edge">
<title>biosample&#45;&gt;id</title>
<path fill="none" stroke="#0000ff" d="M881.6419,-101.3391C814.0329,-96.9671 683.9494,-86.8114 574.7069,-68 515.5951,-57.821 501.7273,-50.7862 443.5965,-36 439.2175,-34.8861 434.6838,-33.7182 430.1316,-32.5352"/>
<polygon fill="#0000ff" stroke="#0000ff" points="430.7496,-29.0792 420.1894,-29.9362 428.9791,-35.8516 430.7496,-29.0792"/>
<text text-anchor="middle" x="581.0414" y="-56.8" font-family="Times,serif" font-size="14.00" fill="#000000">id</text>
</g>
<!-- name -->
<g id="node5" class="node">
<title>name</title>
<ellipse fill="none" stroke="#0000ff" cx="497.5965" cy="-18" rx="44.9599" ry="18"/>
<text text-anchor="middle" x="497.5965" y="-13.8" font-family="Times,serif" font-size="14.00" fill="#000000">label type</text>
</g>
<!-- biosample&#45;&gt;name -->
<g id="edge4" class="edge">
<title>biosample&#45;&gt;name</title>
<path fill="none" stroke="#0000ff" d="M881.4561,-101.5423C823.3599,-97.7146 720.8015,-88.5159 635.2792,-68 601.4719,-59.89 564.5076,-46.1826 537.3995,-35.1691"/>
<polygon fill="#0000ff" stroke="#0000ff" points="538.4617,-31.8214 527.8823,-31.2487 535.7955,-38.2938 538.4617,-31.8214"/>
<text text-anchor="middle" x="650.7552" y="-56.8" font-family="Times,serif" font-size="14.00" fill="#000000">name</text>
</g>
<!-- category -->
<g id="node6" class="node">
<title>category</title>
<ellipse fill="none" stroke="#0000ff" cx="595.5965" cy="-18" rx="35.3048" ry="18"/>
<text text-anchor="middle" x="595.5965" y="-13.8" font-family="Times,serif" font-size="14.00" fill="#000000">iri type</text>
</g>
<!-- biosample&#45;&gt;category -->
<g id="edge5" class="edge">
<title>biosample&#45;&gt;category</title>
<path fill="none" stroke="#0000ff" d="M881.904,-100.0969C836.6173,-95.4099 765.6357,-85.8442 706.4032,-68 679.4705,-59.8863 650.5479,-46.6689 629.0072,-35.861"/>
<polygon fill="#0000ff" stroke="#0000ff" points="630.458,-32.672 619.9596,-31.2455 627.277,-38.9075 630.458,-32.672"/>
<text text-anchor="middle" x="730.6932" y="-56.8" font-family="Times,serif" font-size="14.00" fill="#000000">category</text>
</g>
<!-- related to -->
<g id="node7" class="node">
<title>related to</title>
<ellipse fill="none" stroke="#0000ff" cx="702.5965" cy="-18" rx="54.1389" ry="18"/>
<text text-anchor="middle" x="702.5965" y="-13.8" font-family="Times,serif" font-size="14.00" fill="#000000">named thing</text>
</g>
<!-- biosample&#45;&gt;related to -->
<g id="edge6" class="edge">
<title>biosample&#45;&gt;related to</title>
<path fill="none" stroke="#0000ff" d="M884.7557,-96.7972C855.6489,-91.0551 816.6749,-81.6853 784.1239,-68 766.6318,-60.6459 748.51,-49.8935 733.8067,-40.2425"/>
<polygon fill="#0000ff" stroke="#0000ff" points="735.3828,-37.0851 725.1297,-34.416 731.4805,-42.8964 735.3828,-37.0851"/>
<text text-anchor="middle" x="810.8329" y="-56.8" font-family="Times,serif" font-size="14.00" fill="#000000">related to</text>
</g>
<!-- interacts with -->
<g id="node8" class="node">
<title>interacts with</title>
<ellipse fill="none" stroke="#0000ff" cx="828.5965" cy="-18" rx="54.1389" ry="18"/>
<text text-anchor="middle" x="828.5965" y="-13.8" font-family="Times,serif" font-size="14.00" fill="#000000">named thing</text>
</g>
<!-- biosample&#45;&gt;interacts with -->
<g id="edge7" class="edge">
<title>biosample&#45;&gt;interacts with</title>
<path fill="none" stroke="#0000ff" d="M889.8857,-93.4321C875.5028,-87.8303 859.9098,-79.6327 848.786,-68 842.8721,-61.8155 838.6074,-53.673 835.5682,-45.7592"/>
<polygon fill="#0000ff" stroke="#0000ff" points="838.8096,-44.4136 832.3421,-36.0219 832.1648,-46.6152 838.8096,-44.4136"/>
<text text-anchor="middle" x="887.5018" y="-56.8" font-family="Times,serif" font-size="14.00" fill="#000000">interacts with</text>
</g>
<!-- node property -->
<g id="node9" class="node">
<title>node property</title>
<ellipse fill="none" stroke="#0000ff" cx="930.5965" cy="-18" rx="30.0035" ry="18"/>
<text text-anchor="middle" x="930.5965" y="-13.8" font-family="Times,serif" font-size="14.00" fill="#000000">string</text>
</g>
<!-- biosample&#45;&gt;node property -->
<g id="edge8" class="edge">
<title>biosample&#45;&gt;node property</title>
<path fill="none" stroke="#0000ff" d="M927.7226,-85.9432C927.8355,-76.4358 928.0495,-64.5841 928.4549,-54 928.548,-51.5717 928.662,-49.0522 928.7886,-46.525"/>
<polygon fill="#0000ff" stroke="#0000ff" points="932.2961,-46.4859 929.3574,-36.3068 925.3069,-46.0968 932.2961,-46.4859"/>
<text text-anchor="middle" x="967.6673" y="-56.8" font-family="Times,serif" font-size="14.00" fill="#000000">node property</text>
</g>
<!-- iri -->
<g id="node10" class="node">
<title>iri</title>
<ellipse fill="none" stroke="#0000ff" cx="1014.5965" cy="-18" rx="35.3048" ry="18"/>
<text text-anchor="middle" x="1014.5965" y="-13.8" font-family="Times,serif" font-size="14.00" fill="#000000">iri type</text>
</g>
<!-- biosample&#45;&gt;iri -->
<g id="edge9" class="edge">
<title>biosample&#45;&gt;iri</title>
<path fill="none" stroke="#0000ff" d="M967.2091,-94.4956C981.7076,-89.0662 996.9159,-80.7096 1006.5965,-68 1011.2841,-61.8458 1013.6942,-54.0145 1014.8388,-46.3862"/>
<polygon fill="#0000ff" stroke="#0000ff" points="1018.3376,-46.5502 1015.7102,-36.2864 1011.3635,-45.9485 1018.3376,-46.5502"/>
<text text-anchor="middle" x="1019.8172" y="-56.8" font-family="Times,serif" font-size="14.00" fill="#000000">iri</text>
</g>
<!-- synonym -->
<g id="node11" class="node">
<title>synonym</title>
<ellipse fill="none" stroke="#0000ff" cx="1112.5965" cy="-18" rx="44.9599" ry="18"/>
<text text-anchor="middle" x="1112.5965" y="-13.8" font-family="Times,serif" font-size="14.00" fill="#000000">label type</text>
</g>
<!-- biosample&#45;&gt;synonym -->
<g id="edge10" class="edge">
<title>biosample&#45;&gt;synonym</title>
<path fill="none" stroke="#0000ff" d="M964.6673,-92.9249C984.3431,-86.5494 1008.7058,-77.8539 1029.5965,-68 1047.2754,-59.6611 1066.005,-48.5914 1081.1894,-38.9877"/>
<polygon fill="#0000ff" stroke="#0000ff" points="1083.1604,-41.8816 1089.6853,-33.5343 1079.3792,-35.9907 1083.1604,-41.8816"/>
<text text-anchor="middle" x="1081.2655" y="-56.8" font-family="Times,serif" font-size="14.00" fill="#000000">synonym</text>
</g>
<!-- full name -->
<g id="node12" class="node">
<title>full name</title>
<ellipse fill="none" stroke="#0000ff" cx="1219.5965" cy="-18" rx="44.9599" ry="18"/>
<text text-anchor="middle" x="1219.5965" y="-13.8" font-family="Times,serif" font-size="14.00" fill="#000000">label type</text>
</g>
<!-- biosample&#45;&gt;full name -->
<g id="edge11" class="edge">
<title>biosample&#45;&gt;full name</title>
<path fill="none" stroke="#0000ff" d="M971.9648,-98.2671C1009.4906,-92.7123 1064.3742,-82.9164 1110.5965,-68 1135.6822,-59.9046 1162.6159,-47.5868 1183.4337,-37.2032"/>
<polygon fill="#0000ff" stroke="#0000ff" points="1185.2005,-40.2317 1192.5397,-32.5906 1182.0373,-33.9872 1185.2005,-40.2317"/>
<text text-anchor="middle" x="1171.2259" y="-56.8" font-family="Times,serif" font-size="14.00" fill="#000000">full name</text>
</g>
<!-- description -->
<g id="node13" class="node">
<title>description</title>
<ellipse fill="none" stroke="#0000ff" cx="1339.5965" cy="-18" rx="57.0027" ry="18"/>
<text text-anchor="middle" x="1339.5965" y="-13.8" font-family="Times,serif" font-size="14.00" fill="#000000">narrative text</text>
</g>
<!-- biosample&#45;&gt;description -->
<g id="edge12" class="edge">
<title>biosample&#45;&gt;description</title>
<path fill="none" stroke="#0000ff" d="M973.7291,-101.0067C1028.6425,-96.7422 1122.8204,-87.2046 1201.5965,-68 1234.1196,-60.0713 1269.603,-47.1136 1296.4444,-36.376"/>
<polygon fill="#0000ff" stroke="#0000ff" points="1297.9686,-39.5348 1305.9209,-32.5339 1295.3385,-33.0477 1297.9686,-39.5348"/>
<text text-anchor="middle" x="1279.7001" y="-56.8" font-family="Times,serif" font-size="14.00" fill="#000000">description</text>
</g>
<!-- systematic synonym -->
<g id="node14" class="node">
<title>systematic synonym</title>
<ellipse fill="none" stroke="#0000ff" cx="1459.5965" cy="-18" rx="44.9599" ry="18"/>
<text text-anchor="middle" x="1459.5965" y="-13.8" font-family="Times,serif" font-size="14.00" fill="#000000">label type</text>
</g>
<!-- biosample&#45;&gt;systematic synonym -->
<g id="edge13" class="edge">
<title>biosample&#45;&gt;systematic synonym</title>
<path fill="none" stroke="#0000ff" d="M973.7815,-101.0938C1061.8464,-95.3228 1250.6967,-81.7807 1314.5965,-68 1350.6875,-60.2166 1390.2185,-46.1972 1418.8763,-34.98"/>
<polygon fill="#0000ff" stroke="#0000ff" points="1420.5338,-38.0878 1428.536,-31.1441 1417.9502,-31.582 1420.5338,-38.0878"/>
<text text-anchor="middle" x="1420.5638" y="-56.8" font-family="Times,serif" font-size="14.00" fill="#000000">systematic synonym</text>
</g>
<!-- has phenotype -->
<g id="node15" class="node">
<title>has phenotype</title>
<ellipse fill="none" stroke="#0000ff" cx="1598.5965" cy="-18" rx="76.3132" ry="18"/>
<text text-anchor="middle" x="1598.5965" y="-13.8" font-family="Times,serif" font-size="14.00" fill="#000000">phenotypic feature</text>
</g>
<!-- biosample&#45;&gt;has phenotype -->
<g id="edge14" class="edge">
<title>biosample&#45;&gt;has phenotype</title>
<path fill="none" stroke="#0000ff" d="M974.1991,-102.9942C1089.5068,-100.1811 1385.739,-90.8873 1481.5965,-68 1508.2925,-61.626 1536.6358,-49.661 1558.7388,-39.0336"/>
<polygon fill="#0000ff" stroke="#0000ff" points="1560.3728,-42.1305 1567.8064,-34.5811 1557.2875,-35.8471 1560.3728,-42.1305"/>
<text text-anchor="middle" x="1565.8363" y="-56.8" font-family="Times,serif" font-size="14.00" fill="#000000">has phenotype</text>
</g>
<!-- in taxon -->
<g id="node16" class="node">
<title>in taxon</title>
<ellipse fill="none" stroke="#0000ff" cx="1757.5965" cy="-18" rx="64.945" ry="18"/>
<text text-anchor="middle" x="1757.5965" y="-13.8" font-family="Times,serif" font-size="14.00" fill="#000000">organism taxon</text>
</g>
<!-- biosample&#45;&gt;in taxon -->
<g id="edge15" class="edge">
<title>biosample&#45;&gt;in taxon</title>
<path fill="none" stroke="#0000ff" d="M974.3752,-103.1903C1107.6342,-100.6204 1487.4693,-91.3948 1609.5965,-68 1645.0152,-61.2152 1683.5686,-47.9893 1712.4449,-36.8438"/>
<polygon fill="#0000ff" stroke="#0000ff" points="1713.8164,-40.0656 1721.8482,-33.1561 1711.2607,-33.5488 1713.8164,-40.0656"/>
<text text-anchor="middle" x="1685.3431" y="-56.8" font-family="Times,serif" font-size="14.00" fill="#000000">in taxon</text>
</g>
</g>
</svg>
