<?xml version="1.0" encoding="UTF-8" standalone="no"?>
<!DOCTYPE svg PUBLIC "-//W3C//DTD SVG 1.1//EN"
 "http://www.w3.org/Graphics/SVG/1.1/DTD/svg11.dtd">
<!-- Generated by graphviz version 2.44.1 (20200629.0846)
 -->
<!-- Pages: 1 -->
<svg width="1564pt" height="131pt"
 viewBox="0.00 0.00 1563.84 131.00" xmlns="http://www.w3.org/2000/svg" xmlns:xlink="http://www.w3.org/1999/xlink">
<g id="graph0" class="graph" transform="scale(1 1) rotate(0) translate(4 127)">
<polygon fill="white" stroke="transparent" points="-4,4 -4,-127 1559.84,-127 1559.84,4 -4,4"/>
<!-- biotic exposure -->
<g id="node1" class="node">
<title>biotic exposure</title>
<ellipse fill="none" stroke="black" cx="769.64" cy="-105" rx="64.99" ry="18"/>
<text text-anchor="middle" x="769.64" y="-101.3" font-family="Times,serif" font-size="14.00">biotic exposure</text>
</g>
<!-- organism taxon -->
<g id="node2" class="node">
<title>organism taxon</title>
<ellipse fill="none" stroke="black" cx="65.64" cy="-18" rx="65.79" ry="18"/>
<text text-anchor="middle" x="65.64" y="-14.3" font-family="Times,serif" font-size="14.00">organism taxon</text>
</g>
<!-- biotic exposure&#45;&gt;organism taxon -->
<g id="edge1" class="edge">
<title>biotic exposure&#45;&gt;organism taxon</title>
<path fill="none" stroke="black" d="M705.49,-101.54C616.05,-97.57 448.93,-88.16 307.64,-69 232.24,-58.77 214.07,-51.85 139.64,-36 134.41,-34.88 128.97,-33.69 123.52,-32.48"/>
<polygon fill="black" stroke="black" points="124.28,-29.07 113.76,-30.29 122.75,-35.9 124.28,-29.07"/>
<text text-anchor="middle" x="318.64" y="-57.8" font-family="Times,serif" font-size="14.00">is_a</text>
</g>
<!-- exposure event -->
<g id="node3" class="node">
<title>exposure event</title>
<ellipse fill="none" stroke="black" cx="212.64" cy="-18" rx="63.89" ry="18"/>
<text text-anchor="middle" x="212.64" y="-14.3" font-family="Times,serif" font-size="14.00">exposure event</text>
</g>
<!-- biotic exposure&#45;&gt;exposure event -->
<g id="edge2" class="edge">
<title>biotic exposure&#45;&gt;exposure event</title>
<path fill="none" stroke="black" d="M706.05,-101.12C632.35,-97.05 507.47,-87.9 401.64,-69 354.1,-60.51 301.02,-46.01 263.25,-34.81"/>
<polygon fill="black" stroke="black" points="264.09,-31.4 253.5,-31.89 262.08,-38.11 264.09,-31.4"/>
<text text-anchor="middle" x="413.64" y="-57.8" font-family="Times,serif" font-size="14.00">uses</text>
</g>
<!-- id -->
<g id="node4" class="node">
<title>id</title>
<ellipse fill="none" stroke="blue" cx="324.64" cy="-18" rx="30.59" ry="18"/>
<text text-anchor="middle" x="324.64" y="-14.3" font-family="Times,serif" font-size="14.00">string</text>
</g>
<!-- biotic exposure&#45;&gt;id -->
<g id="edge3" class="edge">
<title>biotic exposure&#45;&gt;id</title>
<path fill="none" stroke="blue" d="M707.49,-99.55C626.75,-92.42 482.2,-75.06 364.64,-36 362.26,-35.21 359.83,-34.34 357.39,-33.42"/>
<polygon fill="blue" stroke="blue" points="358.68,-30.16 348.09,-29.71 356.08,-36.67 358.68,-30.16"/>
<text text-anchor="middle" x="490.14" y="-57.8" font-family="Times,serif" font-size="14.00">id</text>
</g>
<!-- iri -->
<g id="node5" class="node">
<title>iri</title>
<ellipse fill="none" stroke="blue" cx="409.64" cy="-18" rx="36.29" ry="18"/>
<text text-anchor="middle" x="409.64" y="-14.3" font-family="Times,serif" font-size="14.00">iri type</text>
</g>
<!-- biotic exposure&#45;&gt;iri -->
<g id="edge4" class="edge">
<title>biotic exposure&#45;&gt;iri</title>
<path fill="none" stroke="blue" d="M714.61,-95.39C675.63,-88.98 622.21,-79.53 575.64,-69 521.27,-56.71 507.67,-53.2 454.64,-36 452.05,-35.16 449.39,-34.26 446.72,-33.32"/>
<polygon fill="blue" stroke="blue" points="447.7,-29.95 437.1,-29.85 445.32,-36.54 447.7,-29.95"/>
<text text-anchor="middle" x="582.14" y="-57.8" font-family="Times,serif" font-size="14.00">iri</text>
</g>
<!-- type -->
<g id="node6" class="node">
<title>type</title>
<ellipse fill="none" stroke="blue" cx="494.64" cy="-18" rx="30.59" ry="18"/>
<text text-anchor="middle" x="494.64" y="-14.3" font-family="Times,serif" font-size="14.00">string</text>
</g>
<!-- biotic exposure&#45;&gt;type -->
<g id="edge5" class="edge">
<title>biotic exposure&#45;&gt;type</title>
<path fill="none" stroke="blue" d="M722.65,-92.48C674.76,-80.26 598.64,-59.49 534.64,-36 532.43,-35.19 530.17,-34.32 527.89,-33.43"/>
<polygon fill="blue" stroke="blue" points="529.18,-30.17 518.6,-29.64 526.54,-36.66 529.18,-30.17"/>
<text text-anchor="middle" x="642.64" y="-57.8" font-family="Times,serif" font-size="14.00">type</text>
</g>
<!-- name -->
<g id="node7" class="node">
<title>name</title>
<ellipse fill="none" stroke="blue" cx="588.64" cy="-18" rx="45.49" ry="18"/>
<text text-anchor="middle" x="588.64" y="-14.3" font-family="Times,serif" font-size="14.00">label type</text>
</g>
<!-- biotic exposure&#45;&gt;name -->
<g id="edge6" class="edge">
<title>biotic exposure&#45;&gt;name</title>
<path fill="none" stroke="blue" d="M738.12,-89.19C706.96,-74.56 659.28,-52.17 626.18,-36.63"/>
<polygon fill="blue" stroke="blue" points="627.38,-33.32 616.84,-32.24 624.4,-39.66 627.38,-33.32"/>
<text text-anchor="middle" x="706.14" y="-57.8" font-family="Times,serif" font-size="14.00">name</text>
</g>
<!-- description -->
<g id="node8" class="node">
<title>description</title>
<ellipse fill="none" stroke="blue" cx="709.64" cy="-18" rx="57.69" ry="18"/>
<text text-anchor="middle" x="709.64" y="-14.3" font-family="Times,serif" font-size="14.00">narrative text</text>
</g>
<!-- biotic exposure&#45;&gt;description -->
<g id="edge7" class="edge">
<title>biotic exposure&#45;&gt;description</title>
<path fill="none" stroke="blue" d="M757.79,-87.21C749.08,-74.87 737.1,-57.89 727.27,-43.97"/>
<polygon fill="blue" stroke="blue" points="730.1,-41.91 721.47,-35.76 724.38,-45.95 730.1,-41.91"/>
<text text-anchor="middle" x="774.14" y="-57.8" font-family="Times,serif" font-size="14.00">description</text>
</g>
<!-- source -->
<g id="node9" class="node">
<title>source</title>
<ellipse fill="none" stroke="blue" cx="830.64" cy="-18" rx="45.49" ry="18"/>
<text text-anchor="middle" x="830.64" y="-14.3" font-family="Times,serif" font-size="14.00">label type</text>
</g>
<!-- biotic exposure&#45;&gt;source -->
<g id="edge8" class="edge">
<title>biotic exposure&#45;&gt;source</title>
<path fill="none" stroke="blue" d="M791.11,-87.66C797.32,-82.2 803.73,-75.78 808.64,-69 813.79,-61.9 818.08,-53.41 821.47,-45.46"/>
<polygon fill="blue" stroke="blue" points="824.73,-46.74 825.16,-36.16 818.22,-44.17 824.73,-46.74"/>
<text text-anchor="middle" x="835.64" y="-57.8" font-family="Times,serif" font-size="14.00">source</text>
</g>
<!-- provided by -->
<g id="node10" class="node">
<title>provided by</title>
<ellipse fill="none" stroke="blue" cx="923.64" cy="-18" rx="29.8" ry="18"/>
<text text-anchor="middle" x="923.64" y="-14.3" font-family="Times,serif" font-size="14.00">agent</text>
</g>
<!-- biotic exposure&#45;&gt;provided by -->
<g id="edge9" class="edge">
<title>biotic exposure&#45;&gt;provided by</title>
<path fill="none" stroke="blue" d="M809.68,-90.68C825.1,-84.89 842.61,-77.48 857.64,-69 872.4,-60.68 887.55,-49.43 899.61,-39.71"/>
<polygon fill="blue" stroke="blue" points="901.93,-42.33 907.42,-33.27 897.48,-36.93 901.93,-42.33"/>
<text text-anchor="middle" x="913.64" y="-57.8" font-family="Times,serif" font-size="14.00">provided by</text>
</g>
<!-- has attribute -->
<g id="node11" class="node">
<title>has attribute</title>
<ellipse fill="none" stroke="blue" cx="1011.64" cy="-18" rx="40.09" ry="18"/>
<text text-anchor="middle" x="1011.64" y="-14.3" font-family="Times,serif" font-size="14.00">attribute</text>
</g>
<!-- biotic exposure&#45;&gt;has attribute -->
<g id="edge10" class="edge">
<title>biotic exposure&#45;&gt;has attribute</title>
<path fill="none" stroke="blue" d="M817.32,-92.61C826.06,-90.65 835.11,-88.7 843.64,-87 890.94,-77.6 906.74,-88.96 950.64,-69 964.89,-62.53 978.57,-51.87 989.35,-42.05"/>
<polygon fill="blue" stroke="blue" points="991.81,-44.55 996.66,-35.13 986.99,-39.47 991.81,-44.55"/>
<text text-anchor="middle" x="1008.14" y="-57.8" font-family="Times,serif" font-size="14.00">has attribute</text>
</g>
<!-- category -->
<g id="node12" class="node">
<title>category</title>
<ellipse fill="none" stroke="black" cx="1110.64" cy="-18" rx="40.89" ry="18"/>
<text text-anchor="middle" x="1110.64" y="-14.3" font-family="Times,serif" font-size="14.00">category</text>
</g>
<!-- biotic exposure&#45;&gt;category -->
<g id="edge11" class="edge">
<title>biotic exposure&#45;&gt;category</title>
<path fill="none" stroke="blue" d="M816.03,-92.32C825.14,-90.32 834.66,-88.43 843.64,-87 932.66,-72.88 961.68,-101.79 1045.64,-69 1061.27,-62.9 1076.28,-51.82 1087.93,-41.65"/>
<polygon fill="blue" stroke="blue" points="1090.39,-44.14 1095.43,-34.81 1085.68,-38.96 1090.39,-44.14"/>
<text text-anchor="middle" x="1095.14" y="-57.8" font-family="Times,serif" font-size="14.00">category</text>
</g>
<!-- has taxonomic rank -->
<g id="node14" class="node">
<title>has taxonomic rank</title>
<ellipse fill="none" stroke="black" cx="1250.64" cy="-18" rx="80.69" ry="18"/>
<text text-anchor="middle" x="1250.64" y="-14.3" font-family="Times,serif" font-size="14.00">has taxonomic rank</text>
</g>
<!-- biotic exposure&#45;&gt;has taxonomic rank -->
<g id="edge12" class="edge">
<title>biotic exposure&#45;&gt;has taxonomic rank</title>
<path fill="none" stroke="blue" d="M815.61,-92.23C824.84,-90.21 834.51,-88.33 843.64,-87 966.6,-69.03 1001.34,-95.92 1122.64,-69 1152.66,-62.34 1184.9,-49.71 1209.51,-38.81"/>
<polygon fill="blue" stroke="blue" points="1211.21,-41.88 1218.89,-34.58 1208.34,-35.5 1211.21,-41.88"/>
<text text-anchor="middle" x="1223.64" y="-57.8" font-family="Times,serif" font-size="14.00">has taxonomic rank</text>
</g>
<!-- subclass of -->
<g id="node16" class="node">
<title>subclass of</title>
<ellipse fill="none" stroke="black" cx="1399.64" cy="-18" rx="50.09" ry="18"/>
<text text-anchor="middle" x="1399.64" y="-14.3" font-family="Times,serif" font-size="14.00">subclass of</text>
</g>
<!-- biotic exposure&#45;&gt;subclass of -->
<g id="edge13" class="edge">
<title>biotic exposure&#45;&gt;subclass of</title>
<path fill="none" stroke="blue" d="M815.19,-92.15C824.55,-90.11 834.37,-88.25 843.64,-87 1036.74,-61.08 1091.55,-111.7 1281.64,-69 1310.65,-62.49 1341.51,-49.15 1364.4,-37.89"/>
<polygon fill="blue" stroke="blue" points="1366.02,-41 1373.38,-33.38 1362.87,-34.74 1366.02,-41"/>
<text text-anchor="middle" x="1359.14" y="-57.8" font-family="Times,serif" font-size="14.00">subclass of</text>
</g>
<!-- timepoint -->
<g id="node18" class="node">
<title>timepoint</title>
<ellipse fill="none" stroke="blue" cx="1511.64" cy="-18" rx="44.39" ry="18"/>
<text text-anchor="middle" x="1511.64" y="-14.3" font-family="Times,serif" font-size="14.00">time type</text>
</g>
<!-- biotic exposure&#45;&gt;timepoint -->
<g id="edge14" class="edge">
<title>biotic exposure&#45;&gt;timepoint</title>
<path fill="none" stroke="blue" d="M815.18,-92.09C824.54,-90.05 834.36,-88.21 843.64,-87 964.91,-71.24 1274.22,-95.3 1393.64,-69 1423.05,-62.52 1454.35,-48.92 1477.32,-37.53"/>
<polygon fill="blue" stroke="blue" points="1478.97,-40.62 1486.31,-32.98 1475.81,-34.37 1478.97,-40.62"/>
<text text-anchor="middle" x="1466.14" y="-57.8" font-family="Times,serif" font-size="14.00">timepoint</text>
</g>
<!-- named thing_category -->
<g id="node13" class="node">
<title>named thing_category</title>
<ellipse fill="none" stroke="blue" cx="907.64" cy="-105" rx="55.49" ry="18"/>
<text text-anchor="middle" x="907.64" y="-101.3" font-family="Times,serif" font-size="14.00">named thing</text>
</g>
<!-- organism taxon_has taxonomic rank -->
<g id="node15" class="node">
<title>organism taxon_has taxonomic rank</title>
<ellipse fill="none" stroke="blue" cx="1047.64" cy="-105" rx="66.09" ry="18"/>
<text text-anchor="middle" x="1047.64" y="-101.3" font-family="Times,serif" font-size="14.00">taxonomic rank</text>
</g>
<!-- organism taxon_subclass of -->
<g id="node17" class="node">
<title>organism taxon_subclass of</title>
<ellipse fill="none" stroke="blue" cx="1197.64" cy="-105" rx="65.79" ry="18"/>
<text text-anchor="middle" x="1197.64" y="-101.3" font-family="Times,serif" font-size="14.00">organism taxon</text>
</g>
</g>
</svg>
