<?xml version="1.0" encoding="UTF-8" standalone="no"?>
<!DOCTYPE svg PUBLIC "-//W3C//DTD SVG 1.1//EN"
 "http://www.w3.org/Graphics/SVG/1.1/DTD/svg11.dtd">
<!-- Generated by graphviz version 2.43.0 (0)
 -->
<!-- Title: %3 Pages: 1 -->
<svg width="2542pt" height="131pt"
 viewBox="0.00 0.00 2541.74 131.00" xmlns="http://www.w3.org/2000/svg" xmlns:xlink="http://www.w3.org/1999/xlink">
<g id="graph0" class="graph" transform="scale(1 1) rotate(0) translate(4 127)">
<title>%3</title>
<polygon fill="white" stroke="transparent" points="-4,4 -4,-127 2537.74,-127 2537.74,4 -4,4"/>
<!-- book chapter -->
<g id="node1" class="node">
<title>book chapter</title>
<ellipse fill="none" stroke="black" cx="1269.39" cy="-105" rx="71.49" ry="18"/>
<text text-anchor="middle" x="1269.39" y="-101.3" font-family="Times,serif" font-size="14.00">book chapter</text>
</g>
<!-- publication -->
<g id="node2" class="node">
<title>publication</title>
<ellipse fill="none" stroke="black" cx="62.39" cy="-18" rx="62.29" ry="18"/>
<text text-anchor="middle" x="62.39" y="-14.3" font-family="Times,serif" font-size="14.00">publication</text>
</g>
<!-- book chapter&#45;&gt;publication -->
<g id="edge1" class="edge">
<title>book chapter&#45;&gt;publication</title>
<path fill="none" stroke="black" d="M1198.05,-103.45C999.65,-101.63 444.14,-94.34 263.39,-69 211.25,-61.69 153,-46.38 112.68,-34.62"/>
<polygon fill="black" stroke="black" points="113.67,-31.26 103.09,-31.79 111.69,-37.98 113.67,-31.26"/>
<text text-anchor="middle" x="277.39" y="-57.8" font-family="Times,serif" font-size="14.00">is_a</text>
</g>
<!-- iri -->
<g id="node3" class="node">
<title>iri</title>
<ellipse fill="none" stroke="blue" cx="187.39" cy="-18" rx="44.39" ry="18"/>
<text text-anchor="middle" x="187.39" y="-14.3" font-family="Times,serif" font-size="14.00">iri type</text>
</g>
<!-- book chapter&#45;&gt;iri -->
<g id="edge2" class="edge">
<title>book chapter&#45;&gt;iri</title>
<path fill="none" stroke="blue" d="M1197.89,-103.32C1013.25,-101.22 523.77,-93.47 363.39,-69 316.32,-61.82 264.03,-45.9 228.77,-33.94"/>
<polygon fill="blue" stroke="blue" points="229.89,-30.63 219.3,-30.69 227.61,-37.25 229.89,-30.63"/>
<text text-anchor="middle" x="371.39" y="-57.8" font-family="Times,serif" font-size="14.00">iri</text>
</g>
<!-- type -->
<g id="node4" class="node">
<title>type</title>
<ellipse fill="none" stroke="blue" cx="288.39" cy="-18" rx="38.19" ry="18"/>
<text text-anchor="middle" x="288.39" y="-14.3" font-family="Times,serif" font-size="14.00">string</text>
</g>
<!-- book chapter&#45;&gt;type -->
<g id="edge3" class="edge">
<title>book chapter&#45;&gt;type</title>
<path fill="none" stroke="blue" d="M1197.99,-103.3C1025.22,-101.22 588.26,-93.62 444.39,-69 402.78,-61.88 356.98,-46.21 325.84,-34.29"/>
<polygon fill="blue" stroke="blue" points="326.85,-30.93 316.26,-30.57 324.32,-37.46 326.85,-30.93"/>
<text text-anchor="middle" x="460.39" y="-57.8" font-family="Times,serif" font-size="14.00">type</text>
</g>
<!-- description -->
<g id="node5" class="node">
<title>description</title>
<ellipse fill="none" stroke="blue" cx="420.39" cy="-18" rx="75.29" ry="18"/>
<text text-anchor="middle" x="420.39" y="-14.3" font-family="Times,serif" font-size="14.00">narrative text</text>
</g>
<!-- book chapter&#45;&gt;description -->
<g id="edge4" class="edge">
<title>book chapter&#45;&gt;description</title>
<path fill="none" stroke="blue" d="M1197.84,-104.63C1035.31,-105.42 642.56,-103.57 515.39,-69 493.34,-63 470.62,-51.28 452.93,-40.69"/>
<polygon fill="blue" stroke="blue" points="454.51,-37.56 444.16,-35.29 450.84,-43.52 454.51,-37.56"/>
<text text-anchor="middle" x="555.89" y="-57.8" font-family="Times,serif" font-size="14.00">description</text>
</g>
<!-- has attribute -->
<g id="node6" class="node">
<title>has attribute</title>
<ellipse fill="none" stroke="blue" cx="565.39" cy="-18" rx="51.99" ry="18"/>
<text text-anchor="middle" x="565.39" y="-14.3" font-family="Times,serif" font-size="14.00">attribute</text>
</g>
<!-- book chapter&#45;&gt;has attribute -->
<g id="edge5" class="edge">
<title>book chapter&#45;&gt;has attribute</title>
<path fill="none" stroke="blue" d="M1198.42,-102.77C1041.45,-99.69 674.58,-90.27 622.39,-69 608.6,-63.38 595.86,-52.96 585.95,-43.08"/>
<polygon fill="blue" stroke="blue" points="588.37,-40.55 578.94,-35.72 583.3,-45.37 588.37,-40.55"/>
<text text-anchor="middle" x="669.39" y="-57.8" font-family="Times,serif" font-size="14.00">has attribute</text>
</g>
<!-- provided by -->
<g id="node7" class="node">
<title>provided by</title>
<ellipse fill="none" stroke="blue" cx="673.39" cy="-18" rx="38.19" ry="18"/>
<text text-anchor="middle" x="673.39" y="-14.3" font-family="Times,serif" font-size="14.00">string</text>
</g>
<!-- book chapter&#45;&gt;provided by -->
<g id="edge6" class="edge">
<title>book chapter&#45;&gt;provided by</title>
<path fill="none" stroke="blue" d="M1197.84,-103.67C1075.25,-102.35 830.44,-96.27 749.39,-69 731.05,-62.83 712.85,-51.1 698.86,-40.56"/>
<polygon fill="blue" stroke="blue" points="700.77,-37.61 690.73,-34.21 696.46,-43.12 700.77,-37.61"/>
<text text-anchor="middle" x="791.89" y="-57.8" font-family="Times,serif" font-size="14.00">provided by</text>
</g>
<!-- category -->
<g id="node8" class="node">
<title>category</title>
<ellipse fill="none" stroke="black" cx="781.39" cy="-18" rx="51.19" ry="18"/>
<text text-anchor="middle" x="781.39" y="-14.3" font-family="Times,serif" font-size="14.00">category</text>
</g>
<!-- book chapter&#45;&gt;category -->
<g id="edge7" class="edge">
<title>book chapter&#45;&gt;category</title>
<path fill="none" stroke="blue" d="M1199.33,-101.29C1102.13,-96.95 931.64,-87.01 872.39,-69 851.15,-62.54 829.28,-50.72 812.3,-40.19"/>
<polygon fill="blue" stroke="blue" points="813.73,-36.95 803.41,-34.52 809.96,-42.85 813.73,-36.95"/>
<text text-anchor="middle" x="903.89" y="-57.8" font-family="Times,serif" font-size="14.00">category</text>
</g>
<!-- license -->
<g id="node10" class="node">
<title>license</title>
<ellipse fill="none" stroke="blue" cx="889.39" cy="-18" rx="38.19" ry="18"/>
<text text-anchor="middle" x="889.39" y="-14.3" font-family="Times,serif" font-size="14.00">string</text>
</g>
<!-- book chapter&#45;&gt;license -->
<g id="edge8" class="edge">
<title>book chapter&#45;&gt;license</title>
<path fill="none" stroke="blue" d="M1197.74,-104.56C1135.46,-102.98 1043.66,-95.62 968.39,-69 949.46,-62.3 930.38,-50.4 915.71,-39.89"/>
<polygon fill="blue" stroke="blue" points="917.74,-37.04 907.62,-33.91 913.58,-42.67 917.74,-37.04"/>
<text text-anchor="middle" x="993.39" y="-57.8" font-family="Times,serif" font-size="14.00">license</text>
</g>
<!-- rights -->
<g id="node11" class="node">
<title>rights</title>
<ellipse fill="none" stroke="blue" cx="984.39" cy="-18" rx="38.19" ry="18"/>
<text text-anchor="middle" x="984.39" y="-14.3" font-family="Times,serif" font-size="14.00">string</text>
</g>
<!-- book chapter&#45;&gt;rights -->
<g id="edge9" class="edge">
<title>book chapter&#45;&gt;rights</title>
<path fill="none" stroke="blue" d="M1198.69,-102.25C1153.47,-98.9 1094.49,-90.32 1046.39,-69 1031.75,-62.51 1017.66,-51.65 1006.62,-41.71"/>
<polygon fill="blue" stroke="blue" points="1008.85,-39 999.16,-34.7 1004.06,-44.1 1008.85,-39"/>
<text text-anchor="middle" x="1067.89" y="-57.8" font-family="Times,serif" font-size="14.00">rights</text>
</g>
<!-- format -->
<g id="node12" class="node">
<title>format</title>
<ellipse fill="none" stroke="blue" cx="1079.39" cy="-18" rx="38.19" ry="18"/>
<text text-anchor="middle" x="1079.39" y="-14.3" font-family="Times,serif" font-size="14.00">string</text>
</g>
<!-- book chapter&#45;&gt;format -->
<g id="edge10" class="edge">
<title>book chapter&#45;&gt;format</title>
<path fill="none" stroke="blue" d="M1198.37,-102.2C1167.21,-98.25 1131.8,-89.11 1105.39,-69 1097.7,-63.14 1092.07,-54.36 1088.06,-45.78"/>
<polygon fill="blue" stroke="blue" points="1091.23,-44.27 1084.2,-36.35 1084.75,-46.93 1091.23,-44.27"/>
<text text-anchor="middle" x="1129.89" y="-57.8" font-family="Times,serif" font-size="14.00">format</text>
</g>
<!-- creation date -->
<g id="node13" class="node">
<title>creation date</title>
<ellipse fill="none" stroke="blue" cx="1167.39" cy="-18" rx="31.4" ry="18"/>
<text text-anchor="middle" x="1167.39" y="-14.3" font-family="Times,serif" font-size="14.00">date</text>
</g>
<!-- book chapter&#45;&gt;creation date -->
<g id="edge11" class="edge">
<title>book chapter&#45;&gt;creation date</title>
<path fill="none" stroke="blue" d="M1205.52,-96.81C1188.83,-91.7 1172.66,-83.16 1162.39,-69 1157.57,-62.35 1156.97,-53.82 1158.15,-45.69"/>
<polygon fill="blue" stroke="blue" points="1161.59,-46.32 1160.39,-35.8 1154.77,-44.77 1161.59,-46.32"/>
<text text-anchor="middle" x="1209.89" y="-57.8" font-family="Times,serif" font-size="14.00">creation date</text>
</g>
<!-- authors -->
<g id="node14" class="node">
<title>authors</title>
<ellipse fill="none" stroke="blue" cx="1253.39" cy="-18" rx="37.09" ry="18"/>
<text text-anchor="middle" x="1253.39" y="-14.3" font-family="Times,serif" font-size="14.00">agent</text>
</g>
<!-- book chapter&#45;&gt;authors -->
<g id="edge12" class="edge">
<title>book chapter&#45;&gt;authors</title>
<path fill="none" stroke="blue" d="M1266.16,-86.8C1263.97,-75.16 1261.03,-59.55 1258.52,-46.24"/>
<polygon fill="blue" stroke="blue" points="1261.92,-45.36 1256.63,-36.18 1255.04,-46.65 1261.92,-45.36"/>
<text text-anchor="middle" x="1289.89" y="-57.8" font-family="Times,serif" font-size="14.00">authors</text>
</g>
<!-- pages -->
<g id="node15" class="node">
<title>pages</title>
<ellipse fill="none" stroke="black" cx="1346.39" cy="-18" rx="38.19" ry="18"/>
<text text-anchor="middle" x="1346.39" y="-14.3" font-family="Times,serif" font-size="14.00">pages</text>
</g>
<!-- book chapter&#45;&gt;pages -->
<g id="edge13" class="edge">
<title>book chapter&#45;&gt;pages</title>
<path fill="none" stroke="blue" d="M1298.21,-88.39C1306.4,-83.01 1314.86,-76.44 1321.39,-69 1327.47,-62.08 1332.48,-53.43 1336.37,-45.27"/>
<polygon fill="blue" stroke="blue" points="1339.6,-46.62 1340.43,-36.06 1333.2,-43.8 1339.6,-46.62"/>
<text text-anchor="middle" x="1352.89" y="-57.8" font-family="Times,serif" font-size="14.00">pages</text>
</g>
<!-- summary -->
<g id="node17" class="node">
<title>summary</title>
<ellipse fill="none" stroke="blue" cx="1441.39" cy="-18" rx="38.19" ry="18"/>
<text text-anchor="middle" x="1441.39" y="-14.3" font-family="Times,serif" font-size="14.00">string</text>
</g>
<!-- book chapter&#45;&gt;summary -->
<g id="edge14" class="edge">
<title>book chapter&#45;&gt;summary</title>
<path fill="none" stroke="blue" d="M1319.49,-92.02C1338.55,-86.42 1360.08,-78.79 1378.39,-69 1392.37,-61.53 1406.33,-50.86 1417.55,-41.3"/>
<polygon fill="blue" stroke="blue" points="1419.98,-43.81 1425.19,-34.59 1415.37,-38.55 1419.98,-43.81"/>
<text text-anchor="middle" x="1434.89" y="-57.8" font-family="Times,serif" font-size="14.00">summary</text>
</g>
<!-- keywords -->
<g id="node18" class="node">
<title>keywords</title>
<ellipse fill="none" stroke="blue" cx="1536.39" cy="-18" rx="38.19" ry="18"/>
<text text-anchor="middle" x="1536.39" y="-14.3" font-family="Times,serif" font-size="14.00">string</text>
</g>
<!-- book chapter&#45;&gt;keywords -->
<g id="edge15" class="edge">
<title>book chapter&#45;&gt;keywords</title>
<path fill="none" stroke="blue" d="M1321.37,-92.45C1330.68,-90.53 1340.31,-88.63 1349.39,-87 1403.78,-77.25 1421.6,-90.73 1472.39,-69 1487.42,-62.57 1501.95,-51.72 1513.36,-41.77"/>
<polygon fill="blue" stroke="blue" points="1516.03,-44.07 1521.08,-34.75 1511.33,-38.89 1516.03,-44.07"/>
<text text-anchor="middle" x="1531.89" y="-57.8" font-family="Times,serif" font-size="14.00">keywords</text>
</g>
<!-- mesh terms -->
<g id="node19" class="node">
<title>mesh terms</title>
<ellipse fill="none" stroke="blue" cx="1650.39" cy="-18" rx="57.39" ry="18"/>
<text text-anchor="middle" x="1650.39" y="-14.3" font-family="Times,serif" font-size="14.00">uriorcurie</text>
</g>
<!-- book chapter&#45;&gt;mesh terms -->
<g id="edge16" class="edge">
<title>book chapter&#45;&gt;mesh terms</title>
<path fill="none" stroke="blue" d="M1320,-92.22C1329.72,-90.25 1339.84,-88.4 1349.39,-87 1446.9,-72.73 1476.85,-99.99 1570.39,-69 1589.11,-62.8 1607.91,-51.37 1622.58,-41.01"/>
<polygon fill="blue" stroke="blue" points="1624.7,-43.8 1630.71,-35.08 1620.57,-38.15 1624.7,-43.8"/>
<text text-anchor="middle" x="1643.89" y="-57.8" font-family="Times,serif" font-size="14.00">mesh terms</text>
</g>
<!-- xref -->
<g id="node20" class="node">
<title>xref</title>
<ellipse fill="none" stroke="blue" cx="1782.39" cy="-18" rx="57.39" ry="18"/>
<text text-anchor="middle" x="1782.39" y="-14.3" font-family="Times,serif" font-size="14.00">uriorcurie</text>
</g>
<!-- book chapter&#45;&gt;xref -->
<g id="edge17" class="edge">
<title>book chapter&#45;&gt;xref</title>
<path fill="none" stroke="blue" d="M1319.54,-92.09C1329.39,-90.11 1339.68,-88.28 1349.39,-87 1424.63,-77.08 1617.37,-89.63 1690.39,-69 1712.14,-62.86 1734.47,-50.89 1751.68,-40.2"/>
<polygon fill="blue" stroke="blue" points="1753.64,-43.1 1760.18,-34.77 1749.87,-37.2 1753.64,-43.1"/>
<text text-anchor="middle" x="1739.89" y="-57.8" font-family="Times,serif" font-size="14.00">xref</text>
</g>
<!-- id -->
<g id="node21" class="node">
<title>id</title>
<ellipse fill="none" stroke="black" cx="1884.39" cy="-18" rx="27" ry="18"/>
<text text-anchor="middle" x="1884.39" y="-14.3" font-family="Times,serif" font-size="14.00">id</text>
</g>
<!-- book chapter&#45;&gt;id -->
<g id="edge18" class="edge">
<title>book chapter&#45;&gt;id</title>
<path fill="none" stroke="blue" d="M1319.53,-92.02C1329.38,-90.04 1339.68,-88.24 1349.39,-87 1529.89,-64.01 1579.99,-104.74 1758.39,-69 1792.62,-62.14 1829.48,-46.45 1854.43,-34.46"/>
<polygon fill="blue" stroke="blue" points="1856.27,-37.46 1863.71,-29.91 1853.19,-31.17 1856.27,-37.46"/>
<text text-anchor="middle" x="1815.39" y="-57.8" font-family="Times,serif" font-size="14.00">id</text>
</g>
<!-- name -->
<g id="node23" class="node">
<title>name</title>
<ellipse fill="none" stroke="black" cx="1965.39" cy="-18" rx="36.29" ry="18"/>
<text text-anchor="middle" x="1965.39" y="-14.3" font-family="Times,serif" font-size="14.00">name</text>
</g>
<!-- book chapter&#45;&gt;name -->
<g id="edge19" class="edge">
<title>book chapter&#45;&gt;name</title>
<path fill="none" stroke="blue" d="M1319.1,-92.06C1329.08,-90.05 1339.53,-88.22 1349.39,-87 1559.93,-60.86 1617.97,-108.58 1826.39,-69 1863.13,-62.02 1903.11,-46.77 1930.72,-34.94"/>
<polygon fill="blue" stroke="blue" points="1932.18,-38.12 1939.95,-30.91 1929.38,-31.7 1932.18,-38.12"/>
<text text-anchor="middle" x="1901.39" y="-57.8" font-family="Times,serif" font-size="14.00">name</text>
</g>
<!-- publication type -->
<g id="node25" class="node">
<title>publication type</title>
<ellipse fill="none" stroke="black" cx="2105.39" cy="-18" rx="85.59" ry="18"/>
<text text-anchor="middle" x="2105.39" y="-14.3" font-family="Times,serif" font-size="14.00">publication type</text>
</g>
<!-- book chapter&#45;&gt;publication type -->
<g id="edge20" class="edge">
<title>book chapter&#45;&gt;publication type</title>
<path fill="none" stroke="blue" d="M1319.09,-92.01C1329.07,-90 1339.53,-88.19 1349.39,-87 1603.67,-56.26 1672.19,-107.55 1925.39,-69 1969.5,-62.28 2018.18,-48.35 2053.79,-36.89"/>
<polygon fill="blue" stroke="blue" points="2055.05,-40.16 2063.47,-33.73 2052.87,-33.51 2055.05,-40.16"/>
<text text-anchor="middle" x="2049.39" y="-57.8" font-family="Times,serif" font-size="14.00">publication type</text>
</g>
<!-- published in -->
<g id="node27" class="node">
<title>published in</title>
<ellipse fill="none" stroke="black" cx="2276.39" cy="-18" rx="67.69" ry="18"/>
<text text-anchor="middle" x="2276.39" y="-14.3" font-family="Times,serif" font-size="14.00">published in</text>
</g>
<!-- book chapter&#45;&gt;published in -->
<g id="edge21" class="edge">
<title>book chapter&#45;&gt;published in</title>
<path fill="none" stroke="blue" d="M1319.09,-91.95C1329.07,-89.95 1339.52,-88.16 1349.39,-87 1517.63,-67.31 1944.15,-95.81 2111.39,-69 2152.37,-62.43 2197.37,-48.31 2230,-36.75"/>
<polygon fill="blue" stroke="blue" points="2231.49,-39.93 2239.72,-33.25 2229.12,-33.34 2231.49,-39.93"/>
<text text-anchor="middle" x="2220.39" y="-57.8" font-family="Times,serif" font-size="14.00">published in</text>
</g>
<!-- volume -->
<g id="node29" class="node">
<title>volume</title>
<ellipse fill="none" stroke="blue" cx="2400.39" cy="-18" rx="38.19" ry="18"/>
<text text-anchor="middle" x="2400.39" y="-14.3" font-family="Times,serif" font-size="14.00">string</text>
</g>
<!-- book chapter&#45;&gt;volume -->
<g id="edge22" class="edge">
<title>book chapter&#45;&gt;volume</title>
<path fill="none" stroke="blue" d="M1319.08,-91.92C1329.06,-89.92 1339.52,-88.14 1349.39,-87 1552.32,-63.67 2067.84,-107.74 2268.39,-69 2302.68,-62.38 2339.7,-47.63 2365.78,-35.86"/>
<polygon fill="blue" stroke="blue" points="2367.25,-39.04 2374.87,-31.68 2364.32,-32.68 2367.25,-39.04"/>
<text text-anchor="middle" x="2347.39" y="-57.8" font-family="Times,serif" font-size="14.00">volume</text>
</g>
<!-- chapter -->
<g id="node30" class="node">
<title>chapter</title>
<ellipse fill="none" stroke="blue" cx="2495.39" cy="-18" rx="38.19" ry="18"/>
<text text-anchor="middle" x="2495.39" y="-14.3" font-family="Times,serif" font-size="14.00">string</text>
</g>
<!-- book chapter&#45;&gt;chapter -->
<g id="edge23" class="edge">
<title>book chapter&#45;&gt;chapter</title>
<path fill="none" stroke="blue" d="M1319.08,-91.9C1329.06,-89.91 1339.52,-88.13 1349.39,-87 1462.9,-74.07 2265.64,-92.72 2377.39,-69 2407.43,-62.63 2439.37,-48.6 2462.43,-37.02"/>
<polygon fill="blue" stroke="blue" points="2464.14,-40.08 2471.43,-32.4 2460.94,-33.85 2464.14,-40.08"/>
<text text-anchor="middle" x="2450.89" y="-57.8" font-family="Times,serif" font-size="14.00">chapter</text>
</g>
<!-- named thing_category -->
<g id="node9" class="node">
<title>named thing_category</title>
<ellipse fill="none" stroke="blue" cx="1433.39" cy="-105" rx="74.99" ry="18"/>
<text text-anchor="middle" x="1433.39" y="-101.3" font-family="Times,serif" font-size="14.00">category type</text>
</g>
<!-- publication_pages -->
<g id="node16" class="node">
<title>publication_pages</title>
<ellipse fill="none" stroke="blue" cx="1564.39" cy="-105" rx="38.19" ry="18"/>
<text text-anchor="middle" x="1564.39" y="-101.3" font-family="Times,serif" font-size="14.00">string</text>
</g>
<!-- publication_id -->
<g id="node22" class="node">
<title>publication_id</title>
<ellipse fill="none" stroke="blue" cx="1659.39" cy="-105" rx="38.19" ry="18"/>
<text text-anchor="middle" x="1659.39" y="-101.3" font-family="Times,serif" font-size="14.00">string</text>
</g>
<!-- publication_name -->
<g id="node24" class="node">
<title>publication_name</title>
<ellipse fill="none" stroke="blue" cx="1772.39" cy="-105" rx="56.59" ry="18"/>
<text text-anchor="middle" x="1772.39" y="-101.3" font-family="Times,serif" font-size="14.00">label type</text>
</g>
<!-- publication_publication type -->
<g id="node26" class="node">
<title>publication_publication type</title>
<ellipse fill="none" stroke="blue" cx="1885.39" cy="-105" rx="38.19" ry="18"/>
<text text-anchor="middle" x="1885.39" y="-101.3" font-family="Times,serif" font-size="14.00">string</text>
</g>
<!-- book chapter_published in -->
<g id="node28" class="node">
<title>book chapter_published in</title>
<ellipse fill="none" stroke="blue" cx="1999.39" cy="-105" rx="57.39" ry="18"/>
<text text-anchor="middle" x="1999.39" y="-101.3" font-family="Times,serif" font-size="14.00">uriorcurie</text>
</g>
</g>
</svg>
