<?xml version="1.0" encoding="UTF-8" standalone="no"?>
<!DOCTYPE svg PUBLIC "-//W3C//DTD SVG 1.1//EN"
 "http://www.w3.org/Graphics/SVG/1.1/DTD/svg11.dtd">
<!-- Generated by graphviz version 2.43.0 (0)
 -->
<!-- Title: %3 Pages: 1 -->
<svg width="2190pt" height="131pt"
 viewBox="0.00 0.00 2189.59 131.00" xmlns="http://www.w3.org/2000/svg" xmlns:xlink="http://www.w3.org/1999/xlink">
<g id="graph0" class="graph" transform="scale(1 1) rotate(0) translate(4 127)">
<title>%3</title>
<polygon fill="white" stroke="transparent" points="-4,4 -4,-127 2185.59,-127 2185.59,4 -4,4"/>
<!-- book -->
<g id="node1" class="node">
<title>book</title>
<ellipse fill="none" stroke="black" cx="1116.39" cy="-105" rx="32.49" ry="18"/>
<text text-anchor="middle" x="1116.39" y="-101.3" font-family="Times,serif" font-size="14.00">book</text>
</g>
<!-- publication -->
<g id="node2" class="node">
<title>publication</title>
<ellipse fill="none" stroke="black" cx="62.39" cy="-18" rx="62.29" ry="18"/>
<text text-anchor="middle" x="62.39" y="-14.3" font-family="Times,serif" font-size="14.00">publication</text>
</g>
<!-- book&#45;&gt;publication -->
<g id="edge1" class="edge">
<title>book&#45;&gt;publication</title>
<path fill="none" stroke="black" d="M1083.65,-103.5C948.16,-101.32 431,-91.63 269.39,-69 215.5,-61.45 155.14,-46.05 113.58,-34.33"/>
<polygon fill="black" stroke="black" points="114.53,-30.96 103.96,-31.58 112.61,-37.69 114.53,-30.96"/>
<text text-anchor="middle" x="283.39" y="-57.8" font-family="Times,serif" font-size="14.00">is_a</text>
</g>
<!-- iri -->
<g id="node3" class="node">
<title>iri</title>
<ellipse fill="none" stroke="blue" cx="187.39" cy="-18" rx="44.39" ry="18"/>
<text text-anchor="middle" x="187.39" y="-14.3" font-family="Times,serif" font-size="14.00">iri type</text>
</g>
<!-- book&#45;&gt;iri -->
<g id="edge2" class="edge">
<title>book&#45;&gt;iri</title>
<path fill="none" stroke="blue" d="M1084.01,-103.41C958.91,-100.99 507.12,-90.9 365.39,-69 317.7,-61.63 264.62,-45.67 228.94,-33.75"/>
<polygon fill="blue" stroke="blue" points="229.95,-30.4 219.36,-30.51 227.71,-37.03 229.95,-30.4"/>
<text text-anchor="middle" x="373.39" y="-57.8" font-family="Times,serif" font-size="14.00">iri</text>
</g>
<!-- description -->
<g id="node4" class="node">
<title>description</title>
<ellipse fill="none" stroke="blue" cx="325.39" cy="-18" rx="75.29" ry="18"/>
<text text-anchor="middle" x="325.39" y="-14.3" font-family="Times,serif" font-size="14.00">narrative text</text>
</g>
<!-- book&#45;&gt;description -->
<g id="edge3" class="edge">
<title>book&#45;&gt;description</title>
<path fill="none" stroke="blue" d="M1083.76,-104.22C963.82,-104.73 547.73,-103.88 420.39,-69 398.35,-62.96 375.63,-51.24 357.93,-40.66"/>
<polygon fill="blue" stroke="blue" points="359.52,-37.52 349.17,-35.27 355.85,-43.49 359.52,-37.52"/>
<text text-anchor="middle" x="460.89" y="-57.8" font-family="Times,serif" font-size="14.00">description</text>
</g>
<!-- has attribute -->
<g id="node5" class="node">
<title>has attribute</title>
<ellipse fill="none" stroke="blue" cx="470.39" cy="-18" rx="51.99" ry="18"/>
<text text-anchor="middle" x="470.39" y="-14.3" font-family="Times,serif" font-size="14.00">attribute</text>
</g>
<!-- book&#45;&gt;has attribute -->
<g id="edge4" class="edge">
<title>book&#45;&gt;has attribute</title>
<path fill="none" stroke="blue" d="M1083.93,-103.3C968.05,-100.63 578.92,-90.16 527.39,-69 513.62,-63.34 500.88,-52.92 490.96,-43.04"/>
<polygon fill="blue" stroke="blue" points="493.38,-40.51 483.95,-35.69 488.32,-45.34 493.38,-40.51"/>
<text text-anchor="middle" x="574.39" y="-57.8" font-family="Times,serif" font-size="14.00">has attribute</text>
</g>
<!-- provided by -->
<g id="node6" class="node">
<title>provided by</title>
<ellipse fill="none" stroke="blue" cx="578.39" cy="-18" rx="38.19" ry="18"/>
<text text-anchor="middle" x="578.39" y="-14.3" font-family="Times,serif" font-size="14.00">string</text>
</g>
<!-- book&#45;&gt;provided by -->
<g id="edge5" class="edge">
<title>book&#45;&gt;provided by</title>
<path fill="none" stroke="blue" d="M1083.69,-103.67C991.86,-102.42 733.14,-96.47 653.39,-69 635.26,-62.75 617.3,-51.03 603.5,-40.5"/>
<polygon fill="blue" stroke="blue" points="605.5,-37.62 595.48,-34.16 601.16,-43.11 605.5,-37.62"/>
<text text-anchor="middle" x="695.89" y="-57.8" font-family="Times,serif" font-size="14.00">provided by</text>
</g>
<!-- category -->
<g id="node7" class="node">
<title>category</title>
<ellipse fill="none" stroke="black" cx="686.39" cy="-18" rx="51.19" ry="18"/>
<text text-anchor="middle" x="686.39" y="-14.3" font-family="Times,serif" font-size="14.00">category</text>
</g>
<!-- book&#45;&gt;category -->
<g id="edge6" class="edge">
<title>book&#45;&gt;category</title>
<path fill="none" stroke="blue" d="M1084.11,-102.37C1010.55,-98.37 832.48,-87.1 775.39,-69 754.58,-62.4 733.19,-50.58 716.6,-40.08"/>
<polygon fill="blue" stroke="blue" points="718.2,-36.95 707.91,-34.43 714.38,-42.81 718.2,-36.95"/>
<text text-anchor="middle" x="806.89" y="-57.8" font-family="Times,serif" font-size="14.00">category</text>
</g>
<!-- license -->
<g id="node9" class="node">
<title>license</title>
<ellipse fill="none" stroke="blue" cx="794.39" cy="-18" rx="38.19" ry="18"/>
<text text-anchor="middle" x="794.39" y="-14.3" font-family="Times,serif" font-size="14.00">string</text>
</g>
<!-- book&#45;&gt;license -->
<g id="edge7" class="edge">
<title>book&#45;&gt;license</title>
<path fill="none" stroke="blue" d="M1083.58,-103.76C1035.51,-102.43 943.81,-96.17 871.39,-69 853.23,-62.18 834.93,-50.54 820.73,-40.21"/>
<polygon fill="blue" stroke="blue" points="822.55,-37.2 812.45,-34 818.35,-42.8 822.55,-37.2"/>
<text text-anchor="middle" x="896.39" y="-57.8" font-family="Times,serif" font-size="14.00">license</text>
</g>
<!-- rights -->
<g id="node10" class="node">
<title>rights</title>
<ellipse fill="none" stroke="blue" cx="889.39" cy="-18" rx="38.19" ry="18"/>
<text text-anchor="middle" x="889.39" y="-14.3" font-family="Times,serif" font-size="14.00">string</text>
</g>
<!-- book&#45;&gt;rights -->
<g id="edge8" class="edge">
<title>book&#45;&gt;rights</title>
<path fill="none" stroke="blue" d="M1084,-102.13C1048.78,-99.03 991.61,-90.79 947.39,-69 933.9,-62.35 921,-51.81 910.81,-42.12"/>
<polygon fill="blue" stroke="blue" points="913.15,-39.51 903.58,-34.95 908.22,-44.48 913.15,-39.51"/>
<text text-anchor="middle" x="968.89" y="-57.8" font-family="Times,serif" font-size="14.00">rights</text>
</g>
<!-- format -->
<g id="node11" class="node">
<title>format</title>
<ellipse fill="none" stroke="blue" cx="984.39" cy="-18" rx="38.19" ry="18"/>
<text text-anchor="middle" x="984.39" y="-14.3" font-family="Times,serif" font-size="14.00">string</text>
</g>
<!-- book&#45;&gt;format -->
<g id="edge9" class="edge">
<title>book&#45;&gt;format</title>
<path fill="none" stroke="blue" d="M1084.35,-101.61C1059.39,-98.14 1025.4,-89.67 1003.39,-69 996.95,-62.94 992.67,-54.47 989.83,-46.22"/>
<polygon fill="blue" stroke="blue" points="993.15,-45.1 987.05,-36.44 986.42,-47.02 993.15,-45.1"/>
<text text-anchor="middle" x="1027.89" y="-57.8" font-family="Times,serif" font-size="14.00">format</text>
</g>
<!-- creation date -->
<g id="node12" class="node">
<title>creation date</title>
<ellipse fill="none" stroke="blue" cx="1072.39" cy="-18" rx="31.4" ry="18"/>
<text text-anchor="middle" x="1072.39" y="-14.3" font-family="Times,serif" font-size="14.00">date</text>
</g>
<!-- book&#45;&gt;creation date -->
<g id="edge10" class="edge">
<title>book&#45;&gt;creation date</title>
<path fill="none" stroke="blue" d="M1089.35,-94.71C1077.64,-89.18 1065.1,-80.88 1058.39,-69 1054.13,-61.44 1055.05,-52.49 1057.87,-44.27"/>
<polygon fill="blue" stroke="blue" points="1061.08,-45.64 1061.84,-35.08 1054.66,-42.87 1061.08,-45.64"/>
<text text-anchor="middle" x="1105.89" y="-57.8" font-family="Times,serif" font-size="14.00">creation date</text>
</g>
<!-- authors -->
<g id="node13" class="node">
<title>authors</title>
<ellipse fill="none" stroke="blue" cx="1160.39" cy="-18" rx="38.19" ry="18"/>
<text text-anchor="middle" x="1160.39" y="-14.3" font-family="Times,serif" font-size="14.00">string</text>
</g>
<!-- book&#45;&gt;authors -->
<g id="edge11" class="edge">
<title>book&#45;&gt;authors</title>
<path fill="none" stroke="blue" d="M1135.58,-90.28C1142.28,-84.48 1149.18,-77.17 1153.39,-69 1156.99,-62.04 1158.92,-53.84 1159.92,-46.12"/>
<polygon fill="blue" stroke="blue" points="1163.42,-46.31 1160.77,-36.05 1156.44,-45.72 1163.42,-46.31"/>
<text text-anchor="middle" x="1185.89" y="-57.8" font-family="Times,serif" font-size="14.00">authors</text>
</g>
<!-- pages -->
<g id="node14" class="node">
<title>pages</title>
<ellipse fill="none" stroke="black" cx="1255.39" cy="-18" rx="38.19" ry="18"/>
<text text-anchor="middle" x="1255.39" y="-14.3" font-family="Times,serif" font-size="14.00">pages</text>
</g>
<!-- book&#45;&gt;pages -->
<g id="edge12" class="edge">
<title>book&#45;&gt;pages</title>
<path fill="none" stroke="blue" d="M1141.39,-93.16C1146.64,-91.02 1152.17,-88.86 1157.39,-87 1183.62,-77.66 1194.51,-84.86 1217.39,-69 1226.67,-62.57 1234.65,-53.17 1240.88,-44.25"/>
<polygon fill="blue" stroke="blue" points="1243.98,-45.9 1246.5,-35.61 1238.11,-42.08 1243.98,-45.9"/>
<text text-anchor="middle" x="1254.89" y="-57.8" font-family="Times,serif" font-size="14.00">pages</text>
</g>
<!-- summary -->
<g id="node16" class="node">
<title>summary</title>
<ellipse fill="none" stroke="blue" cx="1350.39" cy="-18" rx="38.19" ry="18"/>
<text text-anchor="middle" x="1350.39" y="-14.3" font-family="Times,serif" font-size="14.00">string</text>
</g>
<!-- book&#45;&gt;summary -->
<g id="edge13" class="edge">
<title>book&#45;&gt;summary</title>
<path fill="none" stroke="blue" d="M1140.76,-92.74C1146.15,-90.58 1151.9,-88.52 1157.39,-87 1210.65,-72.31 1229.14,-89.64 1280.39,-69 1296.87,-62.37 1313.15,-51.1 1325.86,-40.94"/>
<polygon fill="blue" stroke="blue" points="1328.18,-43.56 1333.66,-34.49 1323.72,-38.17 1328.18,-43.56"/>
<text text-anchor="middle" x="1340.89" y="-57.8" font-family="Times,serif" font-size="14.00">summary</text>
</g>
<!-- keywords -->
<g id="node17" class="node">
<title>keywords</title>
<ellipse fill="none" stroke="blue" cx="1445.39" cy="-18" rx="38.19" ry="18"/>
<text text-anchor="middle" x="1445.39" y="-14.3" font-family="Times,serif" font-size="14.00">string</text>
</g>
<!-- book&#45;&gt;keywords -->
<g id="edge14" class="edge">
<title>book&#45;&gt;keywords</title>
<path fill="none" stroke="blue" d="M1140.26,-92.65C1145.78,-90.43 1151.7,-88.38 1157.39,-87 1253.18,-63.85 1286.21,-103.83 1378.39,-69 1394.5,-62.92 1410.07,-51.73 1422.13,-41.49"/>
<polygon fill="blue" stroke="blue" points="1424.73,-43.86 1429.89,-34.61 1420.09,-38.62 1424.73,-43.86"/>
<text text-anchor="middle" x="1439.89" y="-57.8" font-family="Times,serif" font-size="14.00">keywords</text>
</g>
<!-- mesh terms -->
<g id="node18" class="node">
<title>mesh terms</title>
<ellipse fill="none" stroke="blue" cx="1559.39" cy="-18" rx="57.39" ry="18"/>
<text text-anchor="middle" x="1559.39" y="-14.3" font-family="Times,serif" font-size="14.00">uriorcurie</text>
</g>
<!-- book&#45;&gt;mesh terms -->
<g id="edge15" class="edge">
<title>book&#45;&gt;mesh terms</title>
<path fill="none" stroke="blue" d="M1140.23,-92.54C1145.75,-90.33 1151.69,-88.3 1157.39,-87 1296.7,-55.18 1342.08,-111.84 1478.39,-69 1497.5,-62.99 1516.68,-51.47 1531.57,-40.99"/>
<polygon fill="blue" stroke="blue" points="1533.78,-43.71 1539.81,-35 1529.66,-38.05 1533.78,-43.71"/>
<text text-anchor="middle" x="1551.89" y="-57.8" font-family="Times,serif" font-size="14.00">mesh terms</text>
</g>
<!-- xref -->
<g id="node19" class="node">
<title>xref</title>
<ellipse fill="none" stroke="blue" cx="1691.39" cy="-18" rx="57.39" ry="18"/>
<text text-anchor="middle" x="1691.39" y="-14.3" font-family="Times,serif" font-size="14.00">uriorcurie</text>
</g>
<!-- book&#45;&gt;xref -->
<g id="edge16" class="edge">
<title>book&#45;&gt;xref</title>
<path fill="none" stroke="blue" d="M1140.22,-92.47C1145.74,-90.27 1151.68,-88.26 1157.39,-87 1253.18,-65.89 1503.79,-94.88 1598.39,-69 1620.53,-62.94 1643.25,-50.86 1660.7,-40.08"/>
<polygon fill="blue" stroke="blue" points="1662.75,-42.93 1669.31,-34.61 1658.99,-37.02 1662.75,-42.93"/>
<text text-anchor="middle" x="1650.89" y="-57.8" font-family="Times,serif" font-size="14.00">xref</text>
</g>
<!-- name -->
<g id="node20" class="node">
<title>name</title>
<ellipse fill="none" stroke="black" cx="1803.39" cy="-18" rx="36.29" ry="18"/>
<text text-anchor="middle" x="1803.39" y="-14.3" font-family="Times,serif" font-size="14.00">name</text>
</g>
<!-- book&#45;&gt;name -->
<g id="edge17" class="edge">
<title>book&#45;&gt;name</title>
<path fill="none" stroke="blue" d="M1140.21,-92.45C1145.73,-90.25 1151.67,-88.24 1157.39,-87 1379.89,-38.62 1446.06,-113.37 1669.39,-69 1704.53,-62.02 1742.63,-47.02 1769.19,-35.27"/>
<polygon fill="blue" stroke="blue" points="1770.74,-38.4 1778.42,-31.1 1767.87,-32.02 1770.74,-38.4"/>
<text text-anchor="middle" x="1742.39" y="-57.8" font-family="Times,serif" font-size="14.00">name</text>
</g>
<!-- publication type -->
<g id="node22" class="node">
<title>publication type</title>
<ellipse fill="none" stroke="black" cx="1943.39" cy="-18" rx="85.59" ry="18"/>
<text text-anchor="middle" x="1943.39" y="-14.3" font-family="Times,serif" font-size="14.00">publication type</text>
</g>
<!-- book&#45;&gt;publication type -->
<g id="edge18" class="edge">
<title>book&#45;&gt;publication type</title>
<path fill="none" stroke="blue" d="M1140.21,-92.43C1145.73,-90.23 1151.67,-88.23 1157.39,-87 1289.78,-58.6 1632.57,-89.56 1766.39,-69 1809.67,-62.35 1857.36,-48.48 1892.33,-37.03"/>
<polygon fill="blue" stroke="blue" points="1893.45,-40.35 1901.84,-33.88 1891.24,-33.71 1893.45,-40.35"/>
<text text-anchor="middle" x="1894.39" y="-57.8" font-family="Times,serif" font-size="14.00">publication type</text>
</g>
<!-- id -->
<g id="node24" class="node">
<title>id</title>
<ellipse fill="none" stroke="black" cx="2074.39" cy="-18" rx="27" ry="18"/>
<text text-anchor="middle" x="2074.39" y="-14.3" font-family="Times,serif" font-size="14.00">id</text>
</g>
<!-- book&#45;&gt;id -->
<g id="edge19" class="edge">
<title>book&#45;&gt;id</title>
<path fill="none" stroke="blue" d="M1140.2,-92.4C1145.72,-90.2 1151.66,-88.21 1157.39,-87 1331.17,-50.36 1782.43,-104.73 1956.39,-69 1988.19,-62.47 2022.07,-47.14 2045.33,-35.17"/>
<polygon fill="blue" stroke="blue" points="2047.09,-38.2 2054.31,-30.44 2043.83,-32 2047.09,-38.2"/>
<text text-anchor="middle" x="2010.39" y="-57.8" font-family="Times,serif" font-size="14.00">id</text>
</g>
<!-- type -->
<g id="node26" class="node">
<title>type</title>
<ellipse fill="none" stroke="black" cx="2150.39" cy="-18" rx="31.4" ry="18"/>
<text text-anchor="middle" x="2150.39" y="-14.3" font-family="Times,serif" font-size="14.00">type</text>
</g>
<!-- book&#45;&gt;type -->
<g id="edge20" class="edge">
<title>book&#45;&gt;type</title>
<path fill="none" stroke="blue" d="M1140.2,-92.39C1145.72,-90.19 1151.66,-88.2 1157.39,-87 1345.34,-47.54 1832.73,-104.88 2021.39,-69 2055.92,-62.43 2093.12,-47.04 2118.65,-35.06"/>
<polygon fill="blue" stroke="blue" points="2120.33,-38.13 2127.84,-30.66 2117.31,-31.82 2120.33,-38.13"/>
<text text-anchor="middle" x="2088.39" y="-57.8" font-family="Times,serif" font-size="14.00">type</text>
</g>
<!-- named thing_category -->
<g id="node8" class="node">
<title>named thing_category</title>
<ellipse fill="none" stroke="blue" cx="1241.39" cy="-105" rx="74.99" ry="18"/>
<text text-anchor="middle" x="1241.39" y="-101.3" font-family="Times,serif" font-size="14.00">category type</text>
</g>
<!-- publication_pages -->
<g id="node15" class="node">
<title>publication_pages</title>
<ellipse fill="none" stroke="blue" cx="1372.39" cy="-105" rx="38.19" ry="18"/>
<text text-anchor="middle" x="1372.39" y="-101.3" font-family="Times,serif" font-size="14.00">string</text>
</g>
<!-- publication_name -->
<g id="node21" class="node">
<title>publication_name</title>
<ellipse fill="none" stroke="blue" cx="1485.39" cy="-105" rx="56.59" ry="18"/>
<text text-anchor="middle" x="1485.39" y="-101.3" font-family="Times,serif" font-size="14.00">label type</text>
</g>
<!-- publication_publication type -->
<g id="node23" class="node">
<title>publication_publication type</title>
<ellipse fill="none" stroke="blue" cx="1598.39" cy="-105" rx="38.19" ry="18"/>
<text text-anchor="middle" x="1598.39" y="-101.3" font-family="Times,serif" font-size="14.00">string</text>
</g>
<!-- book_id -->
<g id="node25" class="node">
<title>book_id</title>
<ellipse fill="none" stroke="blue" cx="1693.39" cy="-105" rx="38.19" ry="18"/>
<text text-anchor="middle" x="1693.39" y="-101.3" font-family="Times,serif" font-size="14.00">string</text>
</g>
<!-- book_type -->
<g id="node27" class="node">
<title>book_type</title>
<ellipse fill="none" stroke="blue" cx="1788.39" cy="-105" rx="38.19" ry="18"/>
<text text-anchor="middle" x="1788.39" y="-101.3" font-family="Times,serif" font-size="14.00">string</text>
</g>
</g>
</svg>
