<?xml version="1.0" encoding="UTF-8" standalone="no"?>
<!DOCTYPE svg PUBLIC "-//W3C//DTD SVG 1.1//EN"
 "http://www.w3.org/Graphics/SVG/1.1/DTD/svg11.dtd">
<!-- Generated by graphviz version 2.40.1 (20161225.0304)
 -->
<!-- Title: %3 Pages: 1 -->
<svg width="1765pt" height="131pt"
 viewBox="0.00 0.00 1765.05 131.00" xmlns="http://www.w3.org/2000/svg" xmlns:xlink="http://www.w3.org/1999/xlink">
<g id="graph0" class="graph" transform="scale(1 1) rotate(0) translate(4 127)">
<title>%3</title>
<polygon fill="#ffffff" stroke="transparent" points="-4,4 -4,-127 1761.0456,-127 1761.0456,4 -4,4"/>
<!-- book -->
<g id="node1" class="node">
<title>book</title>
<ellipse fill="none" stroke="#000000" cx="944.0456" cy="-105" rx="28.6953" ry="18"/>
<text text-anchor="middle" x="944.0456" y="-101.3" font-family="Times,serif" font-size="14.00" fill="#000000">book</text>
</g>
<!-- publication -->
<g id="node2" class="node">
<title>publication</title>
<ellipse fill="none" stroke="#000000" cx="50.0456" cy="-18" rx="50.0912" ry="18"/>
<text text-anchor="middle" x="50.0456" y="-14.3" font-family="Times,serif" font-size="14.00" fill="#000000">publication</text>
</g>
<!-- book&#45;&gt;publication -->
<g id="edge1" class="edge">
<title>book&#45;&gt;publication</title>
<path fill="none" stroke="#000000" d="M915.1679,-104.3968C798.7714,-101.8344 363.8118,-90.9622 228.0456,-69 181.7801,-61.5159 130.4798,-46.0152 94.8849,-34.0562"/>
<polygon fill="#000000" stroke="#000000" points="95.8734,-30.6955 85.279,-30.7867 93.6179,-37.3222 95.8734,-30.6955"/>
<text text-anchor="middle" x="239.0456" y="-57.8" font-family="Times,serif" font-size="14.00" fill="#000000">is_a</text>
</g>
<!-- iri -->
<g id="node3" class="node">
<title>iri</title>
<ellipse fill="none" stroke="#0000ff" cx="154.0456" cy="-18" rx="36.2938" ry="18"/>
<text text-anchor="middle" x="154.0456" y="-14.3" font-family="Times,serif" font-size="14.00" fill="#000000">iri type</text>
</g>
<!-- book&#45;&gt;iri -->
<g id="edge2" class="edge">
<title>book&#45;&gt;iri</title>
<path fill="none" stroke="#0000ff" d="M915.4729,-104.1114C809.5665,-100.6985 439.5402,-87.6807 323.0456,-69 266.7356,-59.9703 253.1744,-53.9559 199.0456,-36 196.5124,-35.1597 193.9161,-34.2513 191.3113,-33.3045"/>
<polygon fill="#0000ff" stroke="#0000ff" points="192.53,-30.0235 181.9384,-29.7616 190.0549,-36.5714 192.53,-30.0235"/>
<text text-anchor="middle" x="329.5456" y="-57.8" font-family="Times,serif" font-size="14.00" fill="#000000">iri</text>
</g>
<!-- description -->
<g id="node4" class="node">
<title>description</title>
<ellipse fill="none" stroke="#0000ff" cx="266.0456" cy="-18" rx="57.6901" ry="18"/>
<text text-anchor="middle" x="266.0456" y="-14.3" font-family="Times,serif" font-size="14.00" fill="#000000">narrative text</text>
</g>
<!-- book&#45;&gt;description -->
<g id="edge3" class="edge">
<title>book&#45;&gt;description</title>
<path fill="none" stroke="#0000ff" d="M915.4328,-104.4691C815.967,-102.4205 485.7259,-93.8637 383.0456,-69 355.3449,-62.2924 325.9438,-49.4503 303.544,-38.3315"/>
<polygon fill="#0000ff" stroke="#0000ff" points="304.9,-35.0949 294.3981,-33.6947 301.7347,-41.3384 304.9,-35.0949"/>
<text text-anchor="middle" x="413.5456" y="-57.8" font-family="Times,serif" font-size="14.00" fill="#000000">description</text>
</g>
<!-- source -->
<g id="node5" class="node">
<title>source</title>
<ellipse fill="none" stroke="#0000ff" cx="387.0456" cy="-18" rx="45.4919" ry="18"/>
<text text-anchor="middle" x="387.0456" y="-14.3" font-family="Times,serif" font-size="14.00" fill="#000000">label type</text>
</g>
<!-- book&#45;&gt;source -->
<g id="edge4" class="edge">
<title>book&#45;&gt;source</title>
<path fill="none" stroke="#0000ff" d="M915.4228,-104.2905C827.9014,-101.8817 564.8489,-92.8007 483.0456,-69 460.3616,-62.4001 436.9077,-50.0603 418.8607,-39.1722"/>
<polygon fill="#0000ff" stroke="#0000ff" points="420.2926,-35.9419 409.9489,-33.6488 416.6049,-41.8919 420.2926,-35.9419"/>
<text text-anchor="middle" x="501.0456" y="-57.8" font-family="Times,serif" font-size="14.00" fill="#000000">source</text>
</g>
<!-- provided by -->
<g id="node6" class="node">
<title>provided by</title>
<ellipse fill="none" stroke="#0000ff" cx="480.0456" cy="-18" rx="29.795" ry="18"/>
<text text-anchor="middle" x="480.0456" y="-14.3" font-family="Times,serif" font-size="14.00" fill="#000000">agent</text>
</g>
<!-- book&#45;&gt;provided by -->
<g id="edge5" class="edge">
<title>book&#45;&gt;provided by</title>
<path fill="none" stroke="#0000ff" d="M915.2247,-104.3793C835.9597,-102.3567 616.137,-94.5371 549.0456,-69 532.2578,-62.6101 515.9759,-50.9242 503.4481,-40.3493"/>
<polygon fill="#0000ff" stroke="#0000ff" points="505.6144,-37.5938 495.79,-33.6274 500.9966,-42.8547 505.6144,-37.5938"/>
<text text-anchor="middle" x="582.0456" y="-57.8" font-family="Times,serif" font-size="14.00" fill="#000000">provided by</text>
</g>
<!-- has attribute -->
<g id="node7" class="node">
<title>has attribute</title>
<ellipse fill="none" stroke="#0000ff" cx="568.0456" cy="-18" rx="40.0939" ry="18"/>
<text text-anchor="middle" x="568.0456" y="-14.3" font-family="Times,serif" font-size="14.00" fill="#000000">attribute</text>
</g>
<!-- book&#45;&gt;has attribute -->
<g id="edge6" class="edge">
<title>book&#45;&gt;has attribute</title>
<path fill="none" stroke="#0000ff" d="M915.3333,-103.1013C851.1315,-98.5973 697.7798,-86.3311 649.0456,-69 630.0674,-62.2509 610.9019,-50.4595 595.9811,-39.9138"/>
<polygon fill="#0000ff" stroke="#0000ff" points="597.8637,-36.955 587.72,-33.8961 593.7421,-42.613 597.8637,-36.955"/>
<text text-anchor="middle" x="682.5456" y="-57.8" font-family="Times,serif" font-size="14.00" fill="#000000">has attribute</text>
</g>
<!-- category -->
<g id="node8" class="node">
<title>category</title>
<ellipse fill="none" stroke="#000000" cx="667.0456" cy="-18" rx="40.8928" ry="18"/>
<text text-anchor="middle" x="667.0456" y="-14.3" font-family="Times,serif" font-size="14.00" fill="#000000">category</text>
</g>
<!-- book&#45;&gt;category -->
<g id="edge7" class="edge">
<title>book&#45;&gt;category</title>
<path fill="none" stroke="#0000ff" d="M915.3756,-103.2295C876.1655,-100.0419 804.1655,-91.4274 747.0456,-69 728.5901,-61.7537 709.8025,-50.0458 695.0757,-39.6744"/>
<polygon fill="#0000ff" stroke="#0000ff" points="697.0611,-36.7909 686.9073,-33.7661 692.9586,-42.4627 697.0611,-36.7909"/>
<text text-anchor="middle" x="770.5456" y="-57.8" font-family="Times,serif" font-size="14.00" fill="#000000">category</text>
</g>
<!-- license -->
<g id="node10" class="node">
<title>license</title>
<ellipse fill="none" stroke="#0000ff" cx="756.0456" cy="-18" rx="30.5947" ry="18"/>
<text text-anchor="middle" x="756.0456" y="-14.3" font-family="Times,serif" font-size="14.00" fill="#000000">string</text>
</g>
<!-- book&#45;&gt;license -->
<g id="edge8" class="edge">
<title>book&#45;&gt;license</title>
<path fill="none" stroke="#0000ff" d="M916.5333,-100.0788C890.8351,-94.7701 851.9128,-84.8745 821.0456,-69 806.2251,-61.378 791.4682,-50.1693 779.7701,-40.1996"/>
<polygon fill="#0000ff" stroke="#0000ff" points="782.022,-37.5193 772.1969,-33.5548 777.4053,-42.781 782.022,-37.5193"/>
<text text-anchor="middle" x="840.0456" y="-57.8" font-family="Times,serif" font-size="14.00" fill="#000000">license</text>
</g>
<!-- rights -->
<g id="node11" class="node">
<title>rights</title>
<ellipse fill="none" stroke="#0000ff" cx="835.0456" cy="-18" rx="30.5947" ry="18"/>
<text text-anchor="middle" x="835.0456" y="-14.3" font-family="Times,serif" font-size="14.00" fill="#000000">string</text>
</g>
<!-- book&#45;&gt;rights -->
<g id="edge9" class="edge">
<title>book&#45;&gt;rights</title>
<path fill="none" stroke="#0000ff" d="M920.0261,-94.8957C906.597,-88.5849 890.0064,-79.6419 877.0456,-69 868.0436,-61.6087 859.5747,-52.0566 852.6324,-43.2209"/>
<polygon fill="#0000ff" stroke="#0000ff" points="855.2939,-40.9372 846.4766,-35.063 849.7062,-45.1536 855.2939,-40.9372"/>
<text text-anchor="middle" x="892.5456" y="-57.8" font-family="Times,serif" font-size="14.00" fill="#000000">rights</text>
</g>
<!-- format -->
<g id="node12" class="node">
<title>format</title>
<ellipse fill="none" stroke="#0000ff" cx="914.0456" cy="-18" rx="30.5947" ry="18"/>
<text text-anchor="middle" x="914.0456" y="-14.3" font-family="Times,serif" font-size="14.00" fill="#000000">string</text>
</g>
<!-- book&#45;&gt;format -->
<g id="edge10" class="edge">
<title>book&#45;&gt;format</title>
<path fill="none" stroke="#0000ff" d="M928.2262,-89.9429C923.016,-83.9708 917.8438,-76.693 915.0456,-69 912.4531,-61.8726 911.4832,-53.8064 911.3405,-46.2271"/>
<polygon fill="#0000ff" stroke="#0000ff" points="914.8456,-46.0728 911.6065,-35.9852 907.8479,-45.891 914.8456,-46.0728"/>
<text text-anchor="middle" x="933.5456" y="-57.8" font-family="Times,serif" font-size="14.00" fill="#000000">format</text>
</g>
<!-- creation date -->
<g id="node13" class="node">
<title>creation date</title>
<ellipse fill="none" stroke="#0000ff" cx="990.0456" cy="-18" rx="27" ry="18"/>
<text text-anchor="middle" x="990.0456" y="-14.3" font-family="Times,serif" font-size="14.00" fill="#000000">date</text>
</g>
<!-- book&#45;&gt;creation date -->
<g id="edge11" class="edge">
<title>book&#45;&gt;creation date</title>
<path fill="none" stroke="#0000ff" d="M953.1337,-87.8116C959.686,-75.4191 968.6513,-58.4631 976.1054,-44.3651"/>
<polygon fill="#0000ff" stroke="#0000ff" points="979.3962,-45.629 980.9763,-35.1527 973.2079,-42.3571 979.3962,-45.629"/>
<text text-anchor="middle" x="1005.0456" y="-57.8" font-family="Times,serif" font-size="14.00" fill="#000000">creation date</text>
</g>
<!-- authors -->
<g id="node14" class="node">
<title>authors</title>
<ellipse fill="none" stroke="#0000ff" cx="1066.0456" cy="-18" rx="30.5947" ry="18"/>
<text text-anchor="middle" x="1066.0456" y="-14.3" font-family="Times,serif" font-size="14.00" fill="#000000">string</text>
</g>
<!-- book&#45;&gt;authors -->
<g id="edge12" class="edge">
<title>book&#45;&gt;authors</title>
<path fill="none" stroke="#0000ff" d="M966.6969,-93.5469C971.6886,-91.2275 976.9946,-88.9154 982.0456,-87 1008.8746,-76.8259 1022.5315,-87.9856 1044.0456,-69 1051.0091,-62.8549 1055.8469,-54.1149 1059.1728,-45.6025"/>
<polygon fill="#0000ff" stroke="#0000ff" points="1062.5708,-46.4769 1062.4195,-35.8831 1055.9314,-44.259 1062.5708,-46.4769"/>
<text text-anchor="middle" x="1075.0456" y="-57.8" font-family="Times,serif" font-size="14.00" fill="#000000">authors</text>
</g>
<!-- pages -->
<g id="node15" class="node">
<title>pages</title>
<ellipse fill="none" stroke="#000000" cx="1145.0456" cy="-18" rx="30.5947" ry="18"/>
<text text-anchor="middle" x="1145.0456" y="-14.3" font-family="Times,serif" font-size="14.00" fill="#000000">pages</text>
</g>
<!-- book&#45;&gt;pages -->
<g id="edge13" class="edge">
<title>book&#45;&gt;pages</title>
<path fill="none" stroke="#0000ff" d="M966.1198,-93.2294C971.2374,-90.8735 976.7413,-88.6263 982.0456,-87 1032.346,-71.5773 1052.7432,-93.9818 1099.0456,-69 1110.4083,-62.8694 1120.3885,-52.8007 1128.1228,-43.2222"/>
<polygon fill="#0000ff" stroke="#0000ff" points="1131.071,-45.1266 1134.3198,-35.0421 1125.4913,-40.8996 1131.071,-45.1266"/>
<text text-anchor="middle" x="1134.5456" y="-57.8" font-family="Times,serif" font-size="14.00" fill="#000000">pages</text>
</g>
<!-- summary -->
<g id="node17" class="node">
<title>summary</title>
<ellipse fill="none" stroke="#0000ff" cx="1224.0456" cy="-18" rx="30.5947" ry="18"/>
<text text-anchor="middle" x="1224.0456" y="-14.3" font-family="Times,serif" font-size="14.00" fill="#000000">string</text>
</g>
<!-- book&#45;&gt;summary -->
<g id="edge14" class="edge">
<title>book&#45;&gt;summary</title>
<path fill="none" stroke="#0000ff" d="M966.0637,-93.0385C971.1842,-90.6924 976.7036,-88.4976 982.0456,-87 1056.0543,-66.2525 1082.3009,-96.5764 1154.0456,-69 1170.9699,-62.4948 1187.4816,-50.8023 1200.2143,-40.2526"/>
<polygon fill="#0000ff" stroke="#0000ff" points="1202.7052,-42.7267 1208.0022,-33.551 1198.1393,-37.4207 1202.7052,-42.7267"/>
<text text-anchor="middle" x="1208.0456" y="-57.8" font-family="Times,serif" font-size="14.00" fill="#000000">summary</text>
</g>
<!-- keywords -->
<g id="node18" class="node">
<title>keywords</title>
<ellipse fill="none" stroke="#0000ff" cx="1303.0456" cy="-18" rx="30.5947" ry="18"/>
<text text-anchor="middle" x="1303.0456" y="-14.3" font-family="Times,serif" font-size="14.00" fill="#000000">string</text>
</g>
<!-- book&#45;&gt;keywords -->
<g id="edge15" class="edge">
<title>book&#45;&gt;keywords</title>
<path fill="none" stroke="#0000ff" d="M965.6235,-93.0882C970.8583,-90.6782 976.5376,-88.4434 982.0456,-87 1092.3789,-58.0874 1131.6127,-110.0053 1238.0456,-69 1253.9231,-62.8829 1269.0428,-51.4841 1280.6978,-41.012"/>
<polygon fill="#0000ff" stroke="#0000ff" points="1283.2857,-43.3831 1288.1798,-33.9864 1278.494,-38.2802 1283.2857,-43.3831"/>
<text text-anchor="middle" x="1290.5456" y="-57.8" font-family="Times,serif" font-size="14.00" fill="#000000">keywords</text>
</g>
<!-- mesh terms -->
<g id="node19" class="node">
<title>mesh terms</title>
<ellipse fill="none" stroke="#0000ff" cx="1397.0456" cy="-18" rx="45.4919" ry="18"/>
<text text-anchor="middle" x="1397.0456" y="-14.3" font-family="Times,serif" font-size="14.00" fill="#000000">uriorcurie</text>
</g>
<!-- book&#45;&gt;mesh terms -->
<g id="edge16" class="edge">
<title>book&#45;&gt;mesh terms</title>
<path fill="none" stroke="#0000ff" d="M965.6058,-93.0196C970.8414,-90.6124 976.5254,-88.3961 982.0456,-87 1128.3191,-50.0067 1177.9231,-116.7536 1321.0456,-69 1339.0202,-63.0027 1356.74,-51.5263 1370.5422,-40.9767"/>
<polygon fill="#0000ff" stroke="#0000ff" points="1372.9391,-43.5428 1378.597,-34.5851 1368.588,-38.0594 1372.9391,-43.5428"/>
<text text-anchor="middle" x="1383.0456" y="-57.8" font-family="Times,serif" font-size="14.00" fill="#000000">mesh terms</text>
</g>
<!-- xref -->
<g id="node20" class="node">
<title>xref</title>
<ellipse fill="none" stroke="#0000ff" cx="1497.0456" cy="-18" rx="36.2938" ry="18"/>
<text text-anchor="middle" x="1497.0456" y="-14.3" font-family="Times,serif" font-size="14.00" fill="#000000">iri type</text>
</g>
<!-- book&#45;&gt;xref -->
<g id="edge17" class="edge">
<title>book&#45;&gt;xref</title>
<path fill="none" stroke="#0000ff" d="M965.5939,-92.972C970.83,-90.5668 976.5172,-88.3633 982.0456,-87 1076.4122,-63.7298 1326.4885,-98.6609 1419.0456,-69 1437.9788,-62.9326 1456.7078,-50.9391 1471.0661,-40.1067"/>
<polygon fill="#0000ff" stroke="#0000ff" points="1473.2614,-42.8332 1478.9836,-33.9165 1468.9498,-37.3186 1473.2614,-42.8332"/>
<text text-anchor="middle" x="1460.0456" y="-57.8" font-family="Times,serif" font-size="14.00" fill="#000000">xref</text>
</g>
<!-- name -->
<g id="node21" class="node">
<title>name</title>
<ellipse fill="none" stroke="#000000" cx="1582.0456" cy="-18" rx="30.5947" ry="18"/>
<text text-anchor="middle" x="1582.0456" y="-14.3" font-family="Times,serif" font-size="14.00" fill="#000000">name</text>
</g>
<!-- book&#45;&gt;name -->
<g id="edge18" class="edge">
<title>book&#45;&gt;name</title>
<path fill="none" stroke="#0000ff" d="M965.5893,-92.9533C970.8256,-90.5488 976.5141,-88.3503 982.0456,-87 1195.0477,-35.0024 1262.1061,-121.2539 1475.0456,-69 1502.5524,-62.25 1531.41,-48.0167 1552.2153,-36.2977"/>
<polygon fill="#0000ff" stroke="#0000ff" points="1553.9789,-39.321 1560.8923,-31.2926 1550.4812,-33.2575 1553.9789,-39.321"/>
<text text-anchor="middle" x="1530.5456" y="-57.8" font-family="Times,serif" font-size="14.00" fill="#000000">name</text>
</g>
<!-- id -->
<g id="node23" class="node">
<title>id</title>
<ellipse fill="none" stroke="#000000" cx="1658.0456" cy="-18" rx="27" ry="18"/>
<text text-anchor="middle" x="1658.0456" y="-14.3" font-family="Times,serif" font-size="14.00" fill="#000000">id</text>
</g>
<!-- book&#45;&gt;id -->
<g id="edge19" class="edge">
<title>book&#45;&gt;id</title>
<path fill="none" stroke="#0000ff" d="M965.5847,-92.934C970.8211,-90.5303 976.5108,-88.337 982.0456,-87 1104.8003,-57.3464 1427.1063,-97.8789 1550.0456,-69 1578.5315,-62.3085 1608.4296,-47.4972 1629.5272,-35.5512"/>
<polygon fill="#0000ff" stroke="#0000ff" points="1631.389,-38.5175 1638.2822,-30.4717 1627.8761,-32.4628 1631.389,-38.5175"/>
<text text-anchor="middle" x="1596.5456" y="-57.8" font-family="Times,serif" font-size="14.00" fill="#000000">id</text>
</g>
<!-- type -->
<g id="node25" class="node">
<title>type</title>
<ellipse fill="none" stroke="#000000" cx="1730.0456" cy="-18" rx="27" ry="18"/>
<text text-anchor="middle" x="1730.0456" y="-14.3" font-family="Times,serif" font-size="14.00" fill="#000000">type</text>
</g>
<!-- book&#45;&gt;type -->
<g id="edge20" class="edge">
<title>book&#45;&gt;type</title>
<path fill="none" stroke="#0000ff" d="M965.5819,-92.9226C970.8185,-90.5194 976.5089,-88.3292 982.0456,-87 1116.9374,-54.6172 1469.9183,-95.7174 1606.0456,-69 1639.5194,-62.4302 1675.3036,-46.6695 1699.7838,-34.3936"/>
<polygon fill="#0000ff" stroke="#0000ff" points="1701.6009,-37.3952 1708.9031,-29.7188 1698.4076,-31.166 1701.6009,-37.3952"/>
<text text-anchor="middle" x="1668.0456" y="-57.8" font-family="Times,serif" font-size="14.00" fill="#000000">type</text>
</g>
<!-- named thing_category -->
<g id="node9" class="node">
<title>named thing_category</title>
<ellipse fill="none" stroke="#0000ff" cx="1046.0456" cy="-105" rx="55.4913" ry="18"/>
<text text-anchor="middle" x="1046.0456" y="-101.3" font-family="Times,serif" font-size="14.00" fill="#000000">named thing</text>
</g>
<!-- publication_pages -->
<g id="node16" class="node">
<title>publication_pages</title>
<ellipse fill="none" stroke="#0000ff" cx="1150.0456" cy="-105" rx="30.5947" ry="18"/>
<text text-anchor="middle" x="1150.0456" y="-101.3" font-family="Times,serif" font-size="14.00" fill="#000000">string</text>
</g>
<!-- publication_name -->
<g id="node22" class="node">
<title>publication_name</title>
<ellipse fill="none" stroke="#0000ff" cx="1244.0456" cy="-105" rx="45.4919" ry="18"/>
<text text-anchor="middle" x="1244.0456" y="-101.3" font-family="Times,serif" font-size="14.00" fill="#000000">label type</text>
</g>
<!-- book_id -->
<g id="node24" class="node">
<title>book_id</title>
<ellipse fill="none" stroke="#0000ff" cx="1338.0456" cy="-105" rx="30.5947" ry="18"/>
<text text-anchor="middle" x="1338.0456" y="-101.3" font-family="Times,serif" font-size="14.00" fill="#000000">string</text>
</g>
<!-- book_type -->
<g id="node26" class="node">
<title>book_type</title>
<ellipse fill="none" stroke="#0000ff" cx="1417.0456" cy="-105" rx="30.5947" ry="18"/>
<text text-anchor="middle" x="1417.0456" y="-101.3" font-family="Times,serif" font-size="14.00" fill="#000000">string</text>
</g>
</g>
</svg>
