<?xml version="1.0" encoding="UTF-8" standalone="no"?>
<!DOCTYPE svg PUBLIC "-//W3C//DTD SVG 1.1//EN"
 "http://www.w3.org/Graphics/SVG/1.1/DTD/svg11.dtd">
<!-- Generated by graphviz version 2.43.0 (0)
 -->
<!-- Title: %3 Pages: 1 -->
<svg width="2438pt" height="131pt"
 viewBox="0.00 0.00 2437.74 131.00" xmlns="http://www.w3.org/2000/svg" xmlns:xlink="http://www.w3.org/1999/xlink">
<g id="graph0" class="graph" transform="scale(1 1) rotate(0) translate(4 127)">
<title>%3</title>
<polygon fill="white" stroke="transparent" points="-4,4 -4,-127 2433.74,-127 2433.74,4 -4,4"/>
<!-- book chapter -->
<g id="node1" class="node">
<title>book chapter</title>
<ellipse fill="none" stroke="black" cx="1272.39" cy="-105" rx="71.49" ry="18"/>
<text text-anchor="middle" x="1272.39" y="-101.3" font-family="Times,serif" font-size="14.00">book chapter</text>
</g>
<!-- publication -->
<g id="node2" class="node">
<title>publication</title>
<ellipse fill="none" stroke="black" cx="62.39" cy="-18" rx="62.29" ry="18"/>
<text text-anchor="middle" x="62.39" y="-14.3" font-family="Times,serif" font-size="14.00">publication</text>
</g>
<!-- book chapter&#45;&gt;publication -->
<g id="edge1" class="edge">
<title>book chapter&#45;&gt;publication</title>
<path fill="none" stroke="black" d="M1201.06,-103.42C1002.67,-101.52 447.18,-94.03 266.39,-69 213.34,-61.65 154,-46.28 113.07,-34.5"/>
<polygon fill="black" stroke="black" points="113.91,-31.1 103.33,-31.67 111.95,-37.82 113.91,-31.1"/>
<text text-anchor="middle" x="280.39" y="-57.8" font-family="Times,serif" font-size="14.00">is_a</text>
</g>
<!-- iri -->
<g id="node3" class="node">
<title>iri</title>
<ellipse fill="none" stroke="blue" cx="187.39" cy="-18" rx="44.39" ry="18"/>
<text text-anchor="middle" x="187.39" y="-14.3" font-family="Times,serif" font-size="14.00">iri type</text>
</g>
<!-- book chapter&#45;&gt;iri -->
<g id="edge2" class="edge">
<title>book chapter&#45;&gt;iri</title>
<path fill="none" stroke="blue" d="M1201.06,-103.22C1016.86,-100.9 528.53,-92.62 368.39,-69 319.75,-61.82 265.6,-45.75 229.32,-33.75"/>
<polygon fill="blue" stroke="blue" points="230.17,-30.35 219.57,-30.49 227.94,-36.98 230.17,-30.35"/>
<text text-anchor="middle" x="376.39" y="-57.8" font-family="Times,serif" font-size="14.00">iri</text>
</g>
<!-- description -->
<g id="node4" class="node">
<title>description</title>
<ellipse fill="none" stroke="blue" cx="325.39" cy="-18" rx="75.29" ry="18"/>
<text text-anchor="middle" x="325.39" y="-14.3" font-family="Times,serif" font-size="14.00">narrative text</text>
</g>
<!-- book chapter&#45;&gt;description -->
<g id="edge3" class="edge">
<title>book chapter&#45;&gt;description</title>
<path fill="none" stroke="blue" d="M1201.37,-102.7C1011.78,-98.99 503.16,-87.43 429.39,-69 405.06,-62.92 379.66,-50.83 360.05,-40.07"/>
<polygon fill="blue" stroke="blue" points="361.63,-36.94 351.2,-35.08 358.2,-43.04 361.63,-36.94"/>
<text text-anchor="middle" x="469.89" y="-57.8" font-family="Times,serif" font-size="14.00">description</text>
</g>
<!-- source -->
<g id="node5" class="node">
<title>source</title>
<ellipse fill="none" stroke="blue" cx="457.39" cy="-18" rx="38.19" ry="18"/>
<text text-anchor="middle" x="457.39" y="-14.3" font-family="Times,serif" font-size="14.00">string</text>
</g>
<!-- book chapter&#45;&gt;source -->
<g id="edge4" class="edge">
<title>book chapter&#45;&gt;source</title>
<path fill="none" stroke="blue" d="M1200.71,-104.62C1042.8,-105.33 669.42,-103.19 548.39,-69 526.09,-62.7 503.23,-50.11 486.01,-39.14"/>
<polygon fill="blue" stroke="blue" points="487.83,-36.15 477.54,-33.6 483.99,-42.01 487.83,-36.15"/>
<text text-anchor="middle" x="572.39" y="-57.8" font-family="Times,serif" font-size="14.00">source</text>
</g>
<!-- has attribute -->
<g id="node6" class="node">
<title>has attribute</title>
<ellipse fill="none" stroke="blue" cx="565.39" cy="-18" rx="51.99" ry="18"/>
<text text-anchor="middle" x="565.39" y="-14.3" font-family="Times,serif" font-size="14.00">attribute</text>
</g>
<!-- book chapter&#45;&gt;has attribute -->
<g id="edge5" class="edge">
<title>book chapter&#45;&gt;has attribute</title>
<path fill="none" stroke="blue" d="M1201.39,-102.79C1043.85,-99.74 674.85,-90.38 622.39,-69 608.6,-63.38 595.86,-52.96 585.95,-43.08"/>
<polygon fill="blue" stroke="blue" points="588.37,-40.55 578.94,-35.72 583.3,-45.37 588.37,-40.55"/>
<text text-anchor="middle" x="669.39" y="-57.8" font-family="Times,serif" font-size="14.00">has attribute</text>
</g>
<!-- provided by -->
<g id="node7" class="node">
<title>provided by</title>
<ellipse fill="none" stroke="blue" cx="673.39" cy="-18" rx="38.19" ry="18"/>
<text text-anchor="middle" x="673.39" y="-14.3" font-family="Times,serif" font-size="14.00">string</text>
</g>
<!-- book chapter&#45;&gt;provided by -->
<g id="edge6" class="edge">
<title>book chapter&#45;&gt;provided by</title>
<path fill="none" stroke="blue" d="M1200.91,-103.7C1077.78,-102.44 831.01,-96.44 749.39,-69 731.05,-62.83 712.85,-51.11 698.86,-40.56"/>
<polygon fill="blue" stroke="blue" points="700.77,-37.61 690.73,-34.21 696.45,-43.13 700.77,-37.61"/>
<text text-anchor="middle" x="791.89" y="-57.8" font-family="Times,serif" font-size="14.00">provided by</text>
</g>
<!-- category -->
<g id="node8" class="node">
<title>category</title>
<ellipse fill="none" stroke="black" cx="781.39" cy="-18" rx="51.19" ry="18"/>
<text text-anchor="middle" x="781.39" y="-14.3" font-family="Times,serif" font-size="14.00">category</text>
</g>
<!-- book chapter&#45;&gt;category -->
<g id="edge7" class="edge">
<title>book chapter&#45;&gt;category</title>
<path fill="none" stroke="blue" d="M1202.21,-101.34C1104.35,-97.05 932.18,-87.16 872.39,-69 851.15,-62.55 829.28,-50.73 812.3,-40.2"/>
<polygon fill="blue" stroke="blue" points="813.72,-36.95 803.41,-34.53 809.96,-42.85 813.72,-36.95"/>
<text text-anchor="middle" x="903.89" y="-57.8" font-family="Times,serif" font-size="14.00">category</text>
</g>
<!-- license -->
<g id="node10" class="node">
<title>license</title>
<ellipse fill="none" stroke="blue" cx="889.39" cy="-18" rx="38.19" ry="18"/>
<text text-anchor="middle" x="889.39" y="-14.3" font-family="Times,serif" font-size="14.00">string</text>
</g>
<!-- book chapter&#45;&gt;license -->
<g id="edge8" class="edge">
<title>book chapter&#45;&gt;license</title>
<path fill="none" stroke="blue" d="M1203.9,-99.68C1127.9,-94.26 1010.41,-83.84 968.39,-69 949.46,-62.31 930.37,-50.41 915.71,-39.9"/>
<polygon fill="blue" stroke="blue" points="917.74,-37.05 907.62,-33.92 913.58,-42.68 917.74,-37.05"/>
<text text-anchor="middle" x="993.39" y="-57.8" font-family="Times,serif" font-size="14.00">license</text>
</g>
<!-- rights -->
<g id="node11" class="node">
<title>rights</title>
<ellipse fill="none" stroke="blue" cx="984.39" cy="-18" rx="38.19" ry="18"/>
<text text-anchor="middle" x="984.39" y="-14.3" font-family="Times,serif" font-size="14.00">string</text>
</g>
<!-- book chapter&#45;&gt;rights -->
<g id="edge9" class="edge">
<title>book chapter&#45;&gt;rights</title>
<path fill="none" stroke="blue" d="M1201.51,-102.46C1155.59,-99.22 1095.42,-90.67 1046.39,-69 1031.74,-62.52 1017.65,-51.67 1006.61,-41.72"/>
<polygon fill="blue" stroke="blue" points="1008.84,-39.01 999.15,-34.71 1004.05,-44.11 1008.84,-39.01"/>
<text text-anchor="middle" x="1067.89" y="-57.8" font-family="Times,serif" font-size="14.00">rights</text>
</g>
<!-- format -->
<g id="node12" class="node">
<title>format</title>
<ellipse fill="none" stroke="blue" cx="1079.39" cy="-18" rx="38.19" ry="18"/>
<text text-anchor="middle" x="1079.39" y="-14.3" font-family="Times,serif" font-size="14.00">string</text>
</g>
<!-- book chapter&#45;&gt;format -->
<g id="edge10" class="edge">
<title>book chapter&#45;&gt;format</title>
<path fill="none" stroke="blue" d="M1201.49,-102.29C1169.78,-98.4 1133.53,-89.27 1106.39,-69 1098.39,-63.02 1092.49,-53.93 1088.28,-45.14"/>
<polygon fill="blue" stroke="blue" points="1091.48,-43.73 1084.36,-35.88 1085.04,-46.46 1091.48,-43.73"/>
<text text-anchor="middle" x="1130.89" y="-57.8" font-family="Times,serif" font-size="14.00">format</text>
</g>
<!-- creation date -->
<g id="node13" class="node">
<title>creation date</title>
<ellipse fill="none" stroke="blue" cx="1167.39" cy="-18" rx="31.4" ry="18"/>
<text text-anchor="middle" x="1167.39" y="-14.3" font-family="Times,serif" font-size="14.00">date</text>
</g>
<!-- book chapter&#45;&gt;creation date -->
<g id="edge11" class="edge">
<title>book chapter&#45;&gt;creation date</title>
<path fill="none" stroke="blue" d="M1208.21,-97.03C1191.27,-91.93 1174.83,-83.35 1164.39,-69 1159.58,-62.37 1158.71,-53.85 1159.54,-45.73"/>
<polygon fill="blue" stroke="blue" points="1163,-46.29 1161.33,-35.82 1156.11,-45.04 1163,-46.29"/>
<text text-anchor="middle" x="1211.89" y="-57.8" font-family="Times,serif" font-size="14.00">creation date</text>
</g>
<!-- authors -->
<g id="node14" class="node">
<title>authors</title>
<ellipse fill="none" stroke="blue" cx="1255.39" cy="-18" rx="38.19" ry="18"/>
<text text-anchor="middle" x="1255.39" y="-14.3" font-family="Times,serif" font-size="14.00">string</text>
</g>
<!-- book chapter&#45;&gt;authors -->
<g id="edge12" class="edge">
<title>book chapter&#45;&gt;authors</title>
<path fill="none" stroke="blue" d="M1268.95,-86.8C1266.63,-75.16 1263.5,-59.55 1260.84,-46.24"/>
<polygon fill="blue" stroke="blue" points="1264.22,-45.29 1258.83,-36.18 1257.36,-46.67 1264.22,-45.29"/>
<text text-anchor="middle" x="1292.89" y="-57.8" font-family="Times,serif" font-size="14.00">authors</text>
</g>
<!-- pages -->
<g id="node15" class="node">
<title>pages</title>
<ellipse fill="none" stroke="black" cx="1350.39" cy="-18" rx="38.19" ry="18"/>
<text text-anchor="middle" x="1350.39" y="-14.3" font-family="Times,serif" font-size="14.00">pages</text>
</g>
<!-- book chapter&#45;&gt;pages -->
<g id="edge13" class="edge">
<title>book chapter&#45;&gt;pages</title>
<path fill="none" stroke="blue" d="M1301.13,-88.33C1309.32,-82.94 1317.8,-76.39 1324.39,-69 1330.58,-62.08 1335.75,-53.42 1339.81,-45.26"/>
<polygon fill="blue" stroke="blue" points="1343.05,-46.59 1344.06,-36.05 1336.69,-43.66 1343.05,-46.59"/>
<text text-anchor="middle" x="1355.89" y="-57.8" font-family="Times,serif" font-size="14.00">pages</text>
</g>
<!-- summary -->
<g id="node17" class="node">
<title>summary</title>
<ellipse fill="none" stroke="blue" cx="1445.39" cy="-18" rx="38.19" ry="18"/>
<text text-anchor="middle" x="1445.39" y="-14.3" font-family="Times,serif" font-size="14.00">string</text>
</g>
<!-- book chapter&#45;&gt;summary -->
<g id="edge14" class="edge">
<title>book chapter&#45;&gt;summary</title>
<path fill="none" stroke="blue" d="M1322.18,-92.03C1341.3,-86.41 1362.95,-78.77 1381.39,-69 1395.63,-61.46 1409.91,-50.69 1421.36,-41.08"/>
<polygon fill="blue" stroke="blue" points="1423.87,-43.53 1429.15,-34.34 1419.3,-38.23 1423.87,-43.53"/>
<text text-anchor="middle" x="1437.89" y="-57.8" font-family="Times,serif" font-size="14.00">summary</text>
</g>
<!-- keywords -->
<g id="node18" class="node">
<title>keywords</title>
<ellipse fill="none" stroke="blue" cx="1540.39" cy="-18" rx="38.19" ry="18"/>
<text text-anchor="middle" x="1540.39" y="-14.3" font-family="Times,serif" font-size="14.00">string</text>
</g>
<!-- book chapter&#45;&gt;keywords -->
<g id="edge15" class="edge">
<title>book chapter&#45;&gt;keywords</title>
<path fill="none" stroke="blue" d="M1324.37,-92.45C1333.68,-90.53 1343.31,-88.63 1352.39,-87 1406.78,-77.25 1424.52,-90.54 1475.39,-69 1490.84,-62.46 1505.84,-51.35 1517.52,-41.26"/>
<polygon fill="blue" stroke="blue" points="1519.95,-43.79 1525.05,-34.51 1515.27,-38.58 1519.95,-43.79"/>
<text text-anchor="middle" x="1535.89" y="-57.8" font-family="Times,serif" font-size="14.00">keywords</text>
</g>
<!-- mesh terms -->
<g id="node19" class="node">
<title>mesh terms</title>
<ellipse fill="none" stroke="blue" cx="1654.39" cy="-18" rx="57.39" ry="18"/>
<text text-anchor="middle" x="1654.39" y="-14.3" font-family="Times,serif" font-size="14.00">uriorcurie</text>
</g>
<!-- book chapter&#45;&gt;mesh terms -->
<g id="edge16" class="edge">
<title>book chapter&#45;&gt;mesh terms</title>
<path fill="none" stroke="blue" d="M1323,-92.22C1332.72,-90.25 1342.84,-88.4 1352.39,-87 1450.34,-72.68 1480.42,-100.12 1574.39,-69 1593.11,-62.8 1611.91,-51.38 1626.58,-41.01"/>
<polygon fill="blue" stroke="blue" points="1628.7,-43.8 1634.71,-35.08 1624.57,-38.15 1628.7,-43.8"/>
<text text-anchor="middle" x="1647.89" y="-57.8" font-family="Times,serif" font-size="14.00">mesh terms</text>
</g>
<!-- xref -->
<g id="node20" class="node">
<title>xref</title>
<ellipse fill="none" stroke="blue" cx="1786.39" cy="-18" rx="57.39" ry="18"/>
<text text-anchor="middle" x="1786.39" y="-14.3" font-family="Times,serif" font-size="14.00">uriorcurie</text>
</g>
<!-- book chapter&#45;&gt;xref -->
<g id="edge17" class="edge">
<title>book chapter&#45;&gt;xref</title>
<path fill="none" stroke="blue" d="M1322.54,-92.09C1332.39,-90.1 1342.68,-88.28 1352.39,-87 1427.85,-77.06 1621.15,-89.68 1694.39,-69 1716.15,-62.86 1738.47,-50.89 1755.68,-40.2"/>
<polygon fill="blue" stroke="blue" points="1757.64,-43.1 1764.18,-34.77 1753.87,-37.2 1757.64,-43.1"/>
<text text-anchor="middle" x="1743.89" y="-57.8" font-family="Times,serif" font-size="14.00">xref</text>
</g>
<!-- id -->
<g id="node21" class="node">
<title>id</title>
<ellipse fill="none" stroke="black" cx="1888.39" cy="-18" rx="27" ry="18"/>
<text text-anchor="middle" x="1888.39" y="-14.3" font-family="Times,serif" font-size="14.00">id</text>
</g>
<!-- book chapter&#45;&gt;id -->
<g id="edge18" class="edge">
<title>book chapter&#45;&gt;id</title>
<path fill="none" stroke="blue" d="M1322.53,-92.02C1332.38,-90.04 1342.68,-88.24 1352.39,-87 1533.33,-63.96 1583.55,-104.82 1762.39,-69 1796.62,-62.15 1833.48,-46.45 1858.43,-34.46"/>
<polygon fill="blue" stroke="blue" points="1860.27,-37.46 1867.71,-29.91 1857.19,-31.17 1860.27,-37.46"/>
<text text-anchor="middle" x="1819.39" y="-57.8" font-family="Times,serif" font-size="14.00">id</text>
</g>
<!-- name -->
<g id="node23" class="node">
<title>name</title>
<ellipse fill="none" stroke="black" cx="1969.39" cy="-18" rx="36.29" ry="18"/>
<text text-anchor="middle" x="1969.39" y="-14.3" font-family="Times,serif" font-size="14.00">name</text>
</g>
<!-- book chapter&#45;&gt;name -->
<g id="edge19" class="edge">
<title>book chapter&#45;&gt;name</title>
<path fill="none" stroke="blue" d="M1322.1,-92.06C1332.08,-90.05 1342.53,-88.22 1352.39,-87 1563.37,-60.81 1621.53,-108.66 1830.39,-69 1867.13,-62.02 1907.11,-46.78 1934.72,-34.94"/>
<polygon fill="blue" stroke="blue" points="1936.18,-38.12 1943.95,-30.91 1933.38,-31.71 1936.18,-38.12"/>
<text text-anchor="middle" x="1905.39" y="-57.8" font-family="Times,serif" font-size="14.00">name</text>
</g>
<!-- type -->
<g id="node25" class="node">
<title>type</title>
<ellipse fill="none" stroke="black" cx="2055.39" cy="-18" rx="31.4" ry="18"/>
<text text-anchor="middle" x="2055.39" y="-14.3" font-family="Times,serif" font-size="14.00">type</text>
</g>
<!-- book chapter&#45;&gt;type -->
<g id="edge20" class="edge">
<title>book chapter&#45;&gt;type</title>
<path fill="none" stroke="blue" d="M1322.09,-92.01C1332.07,-90 1342.53,-88.19 1352.39,-87 1479.75,-71.61 1803.69,-94.58 1929.39,-69 1962.78,-62.21 1998.71,-47.1 2023.62,-35.26"/>
<polygon fill="blue" stroke="blue" points="2025.46,-38.26 2032.93,-30.75 2022.4,-31.97 2025.46,-38.26"/>
<text text-anchor="middle" x="1995.39" y="-57.8" font-family="Times,serif" font-size="14.00">type</text>
</g>
<!-- published in -->
<g id="node27" class="node">
<title>published in</title>
<ellipse fill="none" stroke="black" cx="2172.39" cy="-18" rx="67.69" ry="18"/>
<text text-anchor="middle" x="2172.39" y="-14.3" font-family="Times,serif" font-size="14.00">published in</text>
</g>
<!-- book chapter&#45;&gt;published in -->
<g id="edge21" class="edge">
<title>book chapter&#45;&gt;published in</title>
<path fill="none" stroke="blue" d="M1322.09,-91.98C1332.07,-89.98 1342.52,-88.17 1352.39,-87 1498.75,-69.61 1870.08,-93.61 2015.39,-69 2054.08,-62.45 2096.38,-48.57 2127.31,-37.09"/>
<polygon fill="blue" stroke="blue" points="2128.82,-40.26 2136.94,-33.46 2126.35,-33.71 2128.82,-40.26"/>
<text text-anchor="middle" x="2121.39" y="-57.8" font-family="Times,serif" font-size="14.00">published in</text>
</g>
<!-- volume -->
<g id="node29" class="node">
<title>volume</title>
<ellipse fill="none" stroke="blue" cx="2296.39" cy="-18" rx="38.19" ry="18"/>
<text text-anchor="middle" x="2296.39" y="-14.3" font-family="Times,serif" font-size="14.00">string</text>
</g>
<!-- book chapter&#45;&gt;volume -->
<g id="edge22" class="edge">
<title>book chapter&#45;&gt;volume</title>
<path fill="none" stroke="blue" d="M1322.09,-91.94C1332.07,-89.94 1342.52,-88.15 1352.39,-87 1532.78,-66.03 1991.36,-104.82 2169.39,-69 2202.15,-62.41 2237.34,-47.91 2262.36,-36.22"/>
<polygon fill="blue" stroke="blue" points="2263.9,-39.36 2271.42,-31.89 2260.89,-33.04 2263.9,-39.36"/>
<text text-anchor="middle" x="2246.39" y="-57.8" font-family="Times,serif" font-size="14.00">volume</text>
</g>
<!-- chapter -->
<g id="node30" class="node">
<title>chapter</title>
<ellipse fill="none" stroke="blue" cx="2391.39" cy="-18" rx="38.19" ry="18"/>
<text text-anchor="middle" x="2391.39" y="-14.3" font-family="Times,serif" font-size="14.00">string</text>
</g>
<!-- book chapter&#45;&gt;chapter -->
<g id="edge23" class="edge">
<title>book chapter&#45;&gt;chapter</title>
<path fill="none" stroke="blue" d="M1322.08,-91.92C1332.06,-89.92 1342.52,-88.13 1352.39,-87 1454.41,-75.28 2176.07,-90.89 2276.39,-69 2305.61,-62.63 2336.59,-48.69 2359.02,-37.15"/>
<polygon fill="blue" stroke="blue" points="2360.87,-40.14 2368.08,-32.38 2357.6,-33.94 2360.87,-40.14"/>
<text text-anchor="middle" x="2348.89" y="-57.8" font-family="Times,serif" font-size="14.00">chapter</text>
</g>
<!-- named thing_category -->
<g id="node9" class="node">
<title>named thing_category</title>
<ellipse fill="none" stroke="blue" cx="1431.39" cy="-105" rx="69.59" ry="18"/>
<text text-anchor="middle" x="1431.39" y="-101.3" font-family="Times,serif" font-size="14.00">named thing</text>
</g>
<!-- publication_pages -->
<g id="node16" class="node">
<title>publication_pages</title>
<ellipse fill="none" stroke="blue" cx="1557.39" cy="-105" rx="38.19" ry="18"/>
<text text-anchor="middle" x="1557.39" y="-101.3" font-family="Times,serif" font-size="14.00">string</text>
</g>
<!-- publication_id -->
<g id="node22" class="node">
<title>publication_id</title>
<ellipse fill="none" stroke="blue" cx="1652.39" cy="-105" rx="38.19" ry="18"/>
<text text-anchor="middle" x="1652.39" y="-101.3" font-family="Times,serif" font-size="14.00">string</text>
</g>
<!-- publication_name -->
<g id="node24" class="node">
<title>publication_name</title>
<ellipse fill="none" stroke="blue" cx="1765.39" cy="-105" rx="56.59" ry="18"/>
<text text-anchor="middle" x="1765.39" y="-101.3" font-family="Times,serif" font-size="14.00">label type</text>
</g>
<!-- publication_type -->
<g id="node26" class="node">
<title>publication_type</title>
<ellipse fill="none" stroke="blue" cx="1878.39" cy="-105" rx="38.19" ry="18"/>
<text text-anchor="middle" x="1878.39" y="-101.3" font-family="Times,serif" font-size="14.00">string</text>
</g>
<!-- book chapter_published in -->
<g id="node28" class="node">
<title>book chapter_published in</title>
<ellipse fill="none" stroke="blue" cx="1992.39" cy="-105" rx="57.39" ry="18"/>
<text text-anchor="middle" x="1992.39" y="-101.3" font-family="Times,serif" font-size="14.00">uriorcurie</text>
</g>
</g>
</svg>
