<?xml version="1.0" encoding="UTF-8" standalone="no"?>
<!DOCTYPE svg PUBLIC "-//W3C//DTD SVG 1.1//EN"
 "http://www.w3.org/Graphics/SVG/1.1/DTD/svg11.dtd">
<!-- Generated by graphviz version 2.43.0 (0)
 -->
<!-- Title: %3 Pages: 1 -->
<svg width="4401pt" height="291pt"
 viewBox="0.00 0.00 4400.84 291.00" xmlns="http://www.w3.org/2000/svg" xmlns:xlink="http://www.w3.org/1999/xlink">
<g id="graph0" class="graph" transform="scale(1 1) rotate(0) translate(4 287)">
<title>%3</title>
<polygon fill="white" stroke="transparent" points="-4,4 -4,-287 4396.84,-287 4396.84,4 -4,4"/>
<!-- case to phenotypic feature association -->
<g id="node1" class="node">
<title>case to phenotypic feature association</title>
<ellipse fill="none" stroke="black" cx="2261.39" cy="-265" rx="188.47" ry="18"/>
<text text-anchor="middle" x="2261.39" y="-261.3" font-family="Times,serif" font-size="14.00">case to phenotypic feature association</text>
</g>
<!-- association -->
<g id="node2" class="node">
<title>association</title>
<ellipse fill="none" stroke="black" cx="62.39" cy="-178" rx="62.29" ry="18"/>
<text text-anchor="middle" x="62.39" y="-174.3" font-family="Times,serif" font-size="14.00">association</text>
</g>
<!-- case to phenotypic feature association&#45;&gt;association -->
<g id="edge1" class="edge">
<title>case to phenotypic feature association&#45;&gt;association</title>
<path fill="none" stroke="black" d="M2075.23,-262.07C1781.19,-258.52 1191.27,-249.37 691.39,-229 443.61,-218.9 379.76,-231.96 134.39,-196 128.61,-195.15 122.62,-194.07 116.66,-192.86"/>
<polygon fill="black" stroke="black" points="117.23,-189.4 106.72,-190.73 115.76,-196.25 117.23,-189.4"/>
<text text-anchor="middle" x="705.39" y="-217.8" font-family="Times,serif" font-size="14.00">is_a</text>
</g>
<!-- entity to phenotypic feature association mixin -->
<g id="node3" class="node">
<title>entity to phenotypic feature association mixin</title>
<ellipse fill="none" stroke="black" cx="367.39" cy="-178" rx="224.46" ry="18"/>
<text text-anchor="middle" x="367.39" y="-174.3" font-family="Times,serif" font-size="14.00">entity to phenotypic feature association mixin</text>
</g>
<!-- case to phenotypic feature association&#45;&gt;entity to phenotypic feature association mixin -->
<g id="edge2" class="edge">
<title>case to phenotypic feature association&#45;&gt;entity to phenotypic feature association mixin</title>
<path fill="none" stroke="black" d="M2074.12,-262.9C1814.75,-260.5 1331.63,-252.93 920.39,-229 778.4,-220.74 616.39,-205.39 504.6,-193.87"/>
<polygon fill="black" stroke="black" points="504.92,-190.38 494.62,-192.84 504.2,-197.35 504.92,-190.38"/>
<text text-anchor="middle" x="936.89" y="-217.8" font-family="Times,serif" font-size="14.00">uses</text>
</g>
<!-- case to entity association mixin -->
<g id="node4" class="node">
<title>case to entity association mixin</title>
<ellipse fill="none" stroke="black" cx="767.39" cy="-178" rx="157.07" ry="18"/>
<text text-anchor="middle" x="767.39" y="-174.3" font-family="Times,serif" font-size="14.00">case to entity association mixin</text>
</g>
<!-- case to phenotypic feature association&#45;&gt;case to entity association mixin -->
<g id="edge3" class="edge">
<title>case to phenotypic feature association&#45;&gt;case to entity association mixin</title>
<path fill="none" stroke="black" d="M2075.75,-261.73C1789.41,-257.69 1253.12,-247.85 1062.39,-229 989.83,-221.83 908.14,-207.49 849.16,-195.99"/>
<polygon fill="black" stroke="black" points="849.64,-192.52 839.15,-194.03 848.29,-199.39 849.64,-192.52"/>
<text text-anchor="middle" x="1078.89" y="-217.8" font-family="Times,serif" font-size="14.00">uses</text>
</g>
<!-- id -->
<g id="node5" class="node">
<title>id</title>
<ellipse fill="none" stroke="blue" cx="981.39" cy="-178" rx="38.19" ry="18"/>
<text text-anchor="middle" x="981.39" y="-174.3" font-family="Times,serif" font-size="14.00">string</text>
</g>
<!-- case to phenotypic feature association&#45;&gt;id -->
<g id="edge4" class="edge">
<title>case to phenotypic feature association&#45;&gt;id</title>
<path fill="none" stroke="blue" d="M2076.14,-261.67C1816.57,-257.75 1357.87,-248.32 1192.39,-229 1118.98,-220.43 1100.63,-215.72 1029.39,-196 1026.28,-195.14 1023.09,-194.18 1019.89,-193.16"/>
<polygon fill="blue" stroke="blue" points="1020.97,-189.83 1010.38,-190 1018.76,-196.48 1020.97,-189.83"/>
<text text-anchor="middle" x="1199.39" y="-217.8" font-family="Times,serif" font-size="14.00">id</text>
</g>
<!-- iri -->
<g id="node6" class="node">
<title>iri</title>
<ellipse fill="none" stroke="blue" cx="1082.39" cy="-178" rx="44.39" ry="18"/>
<text text-anchor="middle" x="1082.39" y="-174.3" font-family="Times,serif" font-size="14.00">iri type</text>
</g>
<!-- case to phenotypic feature association&#45;&gt;iri -->
<g id="edge5" class="edge">
<title>case to phenotypic feature association&#45;&gt;iri</title>
<path fill="none" stroke="blue" d="M2078.06,-260.74C1842.89,-255.96 1448.11,-245.75 1303.39,-229 1227.81,-220.25 1209.08,-214.99 1135.39,-196 1132.02,-195.13 1128.54,-194.17 1125.05,-193.16"/>
<polygon fill="blue" stroke="blue" points="1125.88,-189.75 1115.3,-190.21 1123.86,-196.45 1125.88,-189.75"/>
<text text-anchor="middle" x="1311.39" y="-217.8" font-family="Times,serif" font-size="14.00">iri</text>
</g>
<!-- name -->
<g id="node7" class="node">
<title>name</title>
<ellipse fill="none" stroke="blue" cx="1201.39" cy="-178" rx="56.59" ry="18"/>
<text text-anchor="middle" x="1201.39" y="-174.3" font-family="Times,serif" font-size="14.00">label type</text>
</g>
<!-- case to phenotypic feature association&#45;&gt;name -->
<g id="edge6" class="edge">
<title>case to phenotypic feature association&#45;&gt;name</title>
<path fill="none" stroke="blue" d="M2077,-261.24C1861.9,-257.19 1519.52,-247.97 1392.39,-229 1342.76,-221.59 1287.42,-206.3 1249.14,-194.57"/>
<polygon fill="blue" stroke="blue" points="1249.89,-191.14 1239.3,-191.52 1247.82,-197.82 1249.89,-191.14"/>
<text text-anchor="middle" x="1412.39" y="-217.8" font-family="Times,serif" font-size="14.00">name</text>
</g>
<!-- description -->
<g id="node8" class="node">
<title>description</title>
<ellipse fill="none" stroke="blue" cx="1351.39" cy="-178" rx="75.29" ry="18"/>
<text text-anchor="middle" x="1351.39" y="-174.3" font-family="Times,serif" font-size="14.00">narrative text</text>
</g>
<!-- case to phenotypic feature association&#45;&gt;description -->
<g id="edge7" class="edge">
<title>case to phenotypic feature association&#45;&gt;description</title>
<path fill="none" stroke="blue" d="M2074.94,-262.31C1881.68,-259.37 1592.95,-251.26 1484.39,-229 1452.79,-222.52 1418.76,-209.61 1393.04,-198.53"/>
<polygon fill="blue" stroke="blue" points="1394.17,-195.21 1383.61,-194.39 1391.36,-201.62 1394.17,-195.21"/>
<text text-anchor="middle" x="1524.89" y="-217.8" font-family="Times,serif" font-size="14.00">description</text>
</g>
<!-- source -->
<g id="node9" class="node">
<title>source</title>
<ellipse fill="none" stroke="blue" cx="1483.39" cy="-178" rx="38.19" ry="18"/>
<text text-anchor="middle" x="1483.39" y="-174.3" font-family="Times,serif" font-size="14.00">string</text>
</g>
<!-- case to phenotypic feature association&#45;&gt;source -->
<g id="edge8" class="edge">
<title>case to phenotypic feature association&#45;&gt;source</title>
<path fill="none" stroke="blue" d="M2079.73,-260.17C1921.05,-255.72 1703.23,-246.6 1618.39,-229 1583.52,-221.77 1545.64,-207.09 1518.91,-195.5"/>
<polygon fill="blue" stroke="blue" points="1520.15,-192.23 1509.59,-191.39 1517.33,-198.63 1520.15,-192.23"/>
<text text-anchor="middle" x="1642.39" y="-217.8" font-family="Times,serif" font-size="14.00">source</text>
</g>
<!-- has attribute -->
<g id="node10" class="node">
<title>has attribute</title>
<ellipse fill="none" stroke="blue" cx="1591.39" cy="-178" rx="51.99" ry="18"/>
<text text-anchor="middle" x="1591.39" y="-174.3" font-family="Times,serif" font-size="14.00">attribute</text>
</g>
<!-- case to phenotypic feature association&#45;&gt;has attribute -->
<g id="edge9" class="edge">
<title>case to phenotypic feature association&#45;&gt;has attribute</title>
<path fill="none" stroke="blue" d="M2084.41,-258.74C1952.24,-253.66 1783.24,-244.43 1715.39,-229 1685.22,-222.14 1652.85,-208.86 1628.75,-197.72"/>
<polygon fill="blue" stroke="blue" points="1630.15,-194.51 1619.61,-193.41 1627.17,-200.84 1630.15,-194.51"/>
<text text-anchor="middle" x="1762.39" y="-217.8" font-family="Times,serif" font-size="14.00">has attribute</text>
</g>
<!-- subject -->
<g id="node11" class="node">
<title>subject</title>
<ellipse fill="none" stroke="blue" cx="1731.39" cy="-178" rx="69.59" ry="18"/>
<text text-anchor="middle" x="1731.39" y="-174.3" font-family="Times,serif" font-size="14.00">named thing</text>
</g>
<!-- case to phenotypic feature association&#45;&gt;subject -->
<g id="edge10" class="edge">
<title>case to phenotypic feature association&#45;&gt;subject</title>
<path fill="none" stroke="blue" d="M2082.06,-259.34C2011.9,-254.68 1931.19,-245.78 1859.39,-229 1829.25,-221.95 1796.77,-209.2 1772.08,-198.34"/>
<polygon fill="blue" stroke="blue" points="1773.23,-195.02 1762.68,-194.13 1770.37,-201.41 1773.23,-195.02"/>
<text text-anchor="middle" x="1885.39" y="-217.8" font-family="Times,serif" font-size="14.00">subject</text>
</g>
<!-- predicate -->
<g id="node12" class="node">
<title>predicate</title>
<ellipse fill="none" stroke="blue" cx="1897.39" cy="-178" rx="77.99" ry="18"/>
<text text-anchor="middle" x="1897.39" y="-174.3" font-family="Times,serif" font-size="14.00">predicate type</text>
</g>
<!-- case to phenotypic feature association&#45;&gt;predicate -->
<g id="edge11" class="edge">
<title>case to phenotypic feature association&#45;&gt;predicate</title>
<path fill="none" stroke="blue" d="M2083.5,-258.92C2019.27,-254.24 1956.02,-245.45 1929.39,-229 1920.41,-223.45 1913.5,-214.34 1908.43,-205.41"/>
<polygon fill="blue" stroke="blue" points="1911.46,-203.64 1903.81,-196.31 1905.22,-206.81 1911.46,-203.64"/>
<text text-anchor="middle" x="1963.39" y="-217.8" font-family="Times,serif" font-size="14.00">predicate</text>
</g>
<!-- object -->
<g id="node13" class="node">
<title>object</title>
<ellipse fill="none" stroke="blue" cx="1829.39" cy="-91" rx="69.59" ry="18"/>
<text text-anchor="middle" x="1829.39" y="-87.3" font-family="Times,serif" font-size="14.00">named thing</text>
</g>
<!-- case to phenotypic feature association&#45;&gt;object -->
<g id="edge12" class="edge">
<title>case to phenotypic feature association&#45;&gt;object</title>
<path fill="none" stroke="blue" d="M2168.3,-249.28C2121.63,-239.11 2065.59,-222.49 2020.39,-196 2000.87,-184.56 2003.08,-172.77 1984.39,-160 1952.29,-138.07 1911.97,-120.64 1880.5,-108.92"/>
<polygon fill="blue" stroke="blue" points="1881.63,-105.61 1871.03,-105.47 1879.23,-112.18 1881.63,-105.61"/>
<text text-anchor="middle" x="2042.39" y="-174.3" font-family="Times,serif" font-size="14.00">object</text>
</g>
<!-- negated -->
<g id="node14" class="node">
<title>negated</title>
<ellipse fill="none" stroke="blue" cx="2120.39" cy="-178" rx="46.59" ry="18"/>
<text text-anchor="middle" x="2120.39" y="-174.3" font-family="Times,serif" font-size="14.00">boolean</text>
</g>
<!-- case to phenotypic feature association&#45;&gt;negated -->
<g id="edge13" class="edge">
<title>case to phenotypic feature association&#45;&gt;negated</title>
<path fill="none" stroke="blue" d="M2230.95,-247.21C2220.84,-241.54 2209.58,-235.09 2199.39,-229 2183.59,-219.55 2166.28,-208.65 2151.9,-199.45"/>
<polygon fill="blue" stroke="blue" points="2153.67,-196.43 2143.36,-193.97 2149.89,-202.32 2153.67,-196.43"/>
<text text-anchor="middle" x="2228.39" y="-217.8" font-family="Times,serif" font-size="14.00">negated</text>
</g>
<!-- qualifiers -->
<g id="node15" class="node">
<title>qualifiers</title>
<ellipse fill="none" stroke="blue" cx="2261.39" cy="-178" rx="76.89" ry="18"/>
<text text-anchor="middle" x="2261.39" y="-174.3" font-family="Times,serif" font-size="14.00">ontology class</text>
</g>
<!-- case to phenotypic feature association&#45;&gt;qualifiers -->
<g id="edge14" class="edge">
<title>case to phenotypic feature association&#45;&gt;qualifiers</title>
<path fill="none" stroke="blue" d="M2261.39,-246.8C2261.39,-235.16 2261.39,-219.55 2261.39,-206.24"/>
<polygon fill="blue" stroke="blue" points="2264.89,-206.18 2261.39,-196.18 2257.89,-206.18 2264.89,-206.18"/>
<text text-anchor="middle" x="2294.89" y="-217.8" font-family="Times,serif" font-size="14.00">qualifiers</text>
</g>
<!-- publications -->
<g id="node16" class="node">
<title>publications</title>
<ellipse fill="none" stroke="blue" cx="2418.39" cy="-178" rx="62.29" ry="18"/>
<text text-anchor="middle" x="2418.39" y="-174.3" font-family="Times,serif" font-size="14.00">publication</text>
</g>
<!-- case to phenotypic feature association&#45;&gt;publications -->
<g id="edge15" class="edge">
<title>case to phenotypic feature association&#45;&gt;publications</title>
<path fill="none" stroke="blue" d="M2296.67,-247.2C2308.15,-241.58 2320.89,-235.17 2332.39,-229 2349.57,-219.79 2368.31,-208.98 2383.91,-199.78"/>
<polygon fill="blue" stroke="blue" points="2385.87,-202.68 2392.69,-194.57 2382.3,-196.66 2385.87,-202.68"/>
<text text-anchor="middle" x="2403.39" y="-217.8" font-family="Times,serif" font-size="14.00">publications</text>
</g>
<!-- has evidence -->
<g id="node17" class="node">
<title>has evidence</title>
<ellipse fill="none" stroke="blue" cx="2574.39" cy="-178" rx="75.29" ry="18"/>
<text text-anchor="middle" x="2574.39" y="-174.3" font-family="Times,serif" font-size="14.00">evidence type</text>
</g>
<!-- case to phenotypic feature association&#45;&gt;has evidence -->
<g id="edge16" class="edge">
<title>case to phenotypic feature association&#45;&gt;has evidence</title>
<path fill="none" stroke="blue" d="M2360.9,-249.61C2390.33,-244.3 2422.42,-237.46 2451.39,-229 2479.11,-220.91 2509.14,-208.77 2532.6,-198.47"/>
<polygon fill="blue" stroke="blue" points="2534.18,-201.6 2541.89,-194.34 2531.33,-195.2 2534.18,-201.6"/>
<text text-anchor="middle" x="2539.89" y="-217.8" font-family="Times,serif" font-size="14.00">has evidence</text>
</g>
<!-- knowledge source -->
<g id="node18" class="node">
<title>knowledge source</title>
<ellipse fill="none" stroke="blue" cx="2776.39" cy="-178" rx="108.58" ry="18"/>
<text text-anchor="middle" x="2776.39" y="-174.3" font-family="Times,serif" font-size="14.00">information resource</text>
</g>
<!-- case to phenotypic feature association&#45;&gt;knowledge source -->
<g id="edge17" class="edge">
<title>case to phenotypic feature association&#45;&gt;knowledge source</title>
<path fill="none" stroke="blue" d="M2393.23,-252.09C2467.8,-244.93 2553.34,-235.91 2590.39,-229 2633.81,-220.91 2681.94,-207.85 2718.36,-197.12"/>
<polygon fill="blue" stroke="blue" points="2719.72,-200.36 2728.31,-194.15 2717.73,-193.65 2719.72,-200.36"/>
<text text-anchor="middle" x="2716.89" y="-217.8" font-family="Times,serif" font-size="14.00">knowledge source</text>
</g>
<!-- original knowledge source -->
<g id="node19" class="node">
<title>original knowledge source</title>
<ellipse fill="none" stroke="blue" cx="2941.39" cy="-178" rx="38.19" ry="18"/>
<text text-anchor="middle" x="2941.39" y="-174.3" font-family="Times,serif" font-size="14.00">string</text>
</g>
<!-- case to phenotypic feature association&#45;&gt;original knowledge source -->
<g id="edge18" class="edge">
<title>case to phenotypic feature association&#45;&gt;original knowledge source</title>
<path fill="none" stroke="blue" d="M2393.15,-252.12C2415.26,-250.29 2437.97,-248.51 2459.39,-247 2604.14,-236.79 2642.49,-254.2 2785.39,-229 2826.97,-221.67 2872.78,-206.03 2903.93,-194.18"/>
<polygon fill="blue" stroke="blue" points="2905.44,-197.35 2913.51,-190.48 2902.92,-190.82 2905.44,-197.35"/>
<text text-anchor="middle" x="2936.39" y="-217.8" font-family="Times,serif" font-size="14.00">original knowledge source</text>
</g>
<!-- primary knowledge source -->
<g id="node20" class="node">
<title>primary knowledge source</title>
<ellipse fill="none" stroke="blue" cx="3106.39" cy="-178" rx="108.58" ry="18"/>
<text text-anchor="middle" x="3106.39" y="-174.3" font-family="Times,serif" font-size="14.00">information resource</text>
</g>
<!-- case to phenotypic feature association&#45;&gt;primary knowledge source -->
<g id="edge19" class="edge">
<title>case to phenotypic feature association&#45;&gt;primary knowledge source</title>
<path fill="none" stroke="blue" d="M2390.73,-251.88C2413.59,-250.02 2437.18,-248.3 2459.39,-247 2523.21,-243.26 2973.7,-249.06 3034.39,-229 3051.23,-223.44 3067.65,-212.59 3080.55,-202.41"/>
<polygon fill="blue" stroke="blue" points="3082.98,-204.94 3088.48,-195.88 3078.54,-199.53 3082.98,-204.94"/>
<text text-anchor="middle" x="3159.39" y="-217.8" font-family="Times,serif" font-size="14.00">primary knowledge source</text>
</g>
<!-- aggregator knowledge source -->
<g id="node21" class="node">
<title>aggregator knowledge source</title>
<ellipse fill="none" stroke="blue" cx="3341.39" cy="-178" rx="108.58" ry="18"/>
<text text-anchor="middle" x="3341.39" y="-174.3" font-family="Times,serif" font-size="14.00">information resource</text>
</g>
<!-- case to phenotypic feature association&#45;&gt;aggregator knowledge source -->
<g id="edge20" class="edge">
<title>case to phenotypic feature association&#45;&gt;aggregator knowledge source</title>
<path fill="none" stroke="blue" d="M2389.66,-251.8C2412.85,-249.93 2436.83,-248.22 2459.39,-247 2548.06,-242.2 3173.11,-253.74 3258.39,-229 3277.71,-223.4 3297.08,-212.12 3312.25,-201.7"/>
<polygon fill="blue" stroke="blue" points="3314.55,-204.36 3320.66,-195.71 3310.48,-198.66 3314.55,-204.36"/>
<text text-anchor="middle" x="3398.89" y="-217.8" font-family="Times,serif" font-size="14.00">aggregator knowledge source</text>
</g>
<!-- timepoint -->
<g id="node22" class="node">
<title>timepoint</title>
<ellipse fill="none" stroke="blue" cx="3523.39" cy="-178" rx="55.49" ry="18"/>
<text text-anchor="middle" x="3523.39" y="-174.3" font-family="Times,serif" font-size="14.00">time type</text>
</g>
<!-- case to phenotypic feature association&#45;&gt;timepoint -->
<g id="edge21" class="edge">
<title>case to phenotypic feature association&#45;&gt;timepoint</title>
<path fill="none" stroke="blue" d="M2389.12,-251.74C2412.48,-249.87 2436.65,-248.17 2459.39,-247 2488.53,-245.5 3486.3,-246.83 3509.39,-229 3516.47,-223.54 3520.17,-214.8 3522.04,-206.15"/>
<polygon fill="blue" stroke="blue" points="3525.5,-206.63 3523.49,-196.23 3518.58,-205.62 3525.5,-206.63"/>
<text text-anchor="middle" x="3555.39" y="-217.8" font-family="Times,serif" font-size="14.00">timepoint</text>
</g>
<!-- type -->
<g id="node23" class="node">
<title>type</title>
<ellipse fill="none" stroke="black" cx="3627.39" cy="-178" rx="31.4" ry="18"/>
<text text-anchor="middle" x="3627.39" y="-174.3" font-family="Times,serif" font-size="14.00">type</text>
</g>
<!-- case to phenotypic feature association&#45;&gt;type -->
<g id="edge22" class="edge">
<title>case to phenotypic feature association&#45;&gt;type</title>
<path fill="none" stroke="blue" d="M2388.85,-251.74C2412.29,-249.86 2436.57,-248.16 2459.39,-247 2490.89,-245.4 3566.75,-244.16 3594.39,-229 3604.11,-223.67 3611.45,-214.13 3616.71,-204.79"/>
<polygon fill="blue" stroke="blue" points="3619.92,-206.2 3621.29,-195.69 3613.67,-203.05 3619.92,-206.2"/>
<text text-anchor="middle" x="3626.39" y="-217.8" font-family="Times,serif" font-size="14.00">type</text>
</g>
<!-- category -->
<g id="node25" class="node">
<title>category</title>
<ellipse fill="none" stroke="black" cx="3728.39" cy="-178" rx="51.19" ry="18"/>
<text text-anchor="middle" x="3728.39" y="-174.3" font-family="Times,serif" font-size="14.00">category</text>
</g>
<!-- case to phenotypic feature association&#45;&gt;category -->
<g id="edge23" class="edge">
<title>case to phenotypic feature association&#45;&gt;category</title>
<path fill="none" stroke="blue" d="M2388.85,-251.72C2412.29,-249.85 2436.57,-248.15 2459.39,-247 2525.26,-243.68 3583.04,-247.31 3646.39,-229 3666.08,-223.31 3685.76,-211.56 3700.9,-200.88"/>
<polygon fill="blue" stroke="blue" points="3703.26,-203.5 3709.26,-194.77 3699.12,-197.85 3703.26,-203.5"/>
<text text-anchor="middle" x="3711.89" y="-217.8" font-family="Times,serif" font-size="14.00">category</text>
</g>
<!-- frequency qualifier -->
<g id="node27" class="node">
<title>frequency qualifier</title>
<ellipse fill="none" stroke="blue" cx="3882.39" cy="-178" rx="85.29" ry="18"/>
<text text-anchor="middle" x="3882.39" y="-174.3" font-family="Times,serif" font-size="14.00">frequency value</text>
</g>
<!-- case to phenotypic feature association&#45;&gt;frequency qualifier -->
<g id="edge24" class="edge">
<title>case to phenotypic feature association&#45;&gt;frequency qualifier</title>
<path fill="none" stroke="blue" d="M2388.85,-251.7C2412.29,-249.83 2436.57,-248.14 2459.39,-247 2602.34,-239.87 3606.69,-255.23 3747.39,-229 3779.67,-222.98 3814.37,-209.97 3840.51,-198.73"/>
<polygon fill="blue" stroke="blue" points="3841.98,-201.91 3849.73,-194.69 3839.17,-195.5 3841.98,-201.91"/>
<text text-anchor="middle" x="3869.39" y="-217.8" font-family="Times,serif" font-size="14.00">frequency qualifier</text>
</g>
<!-- severity qualifier -->
<g id="node28" class="node">
<title>severity qualifier</title>
<ellipse fill="none" stroke="blue" cx="4061.39" cy="-178" rx="76.09" ry="18"/>
<text text-anchor="middle" x="4061.39" y="-174.3" font-family="Times,serif" font-size="14.00">severity value</text>
</g>
<!-- case to phenotypic feature association&#45;&gt;severity qualifier -->
<g id="edge25" class="edge">
<title>case to phenotypic feature association&#45;&gt;severity qualifier</title>
<path fill="none" stroke="blue" d="M2388.58,-251.69C2412.11,-249.81 2436.48,-248.12 2459.39,-247 2541.64,-242.98 3860.75,-245.64 3941.39,-229 3969.95,-223.11 4000.25,-210.43 4023.26,-199.31"/>
<polygon fill="blue" stroke="blue" points="4024.91,-202.4 4032.33,-194.83 4021.81,-196.12 4024.91,-202.4"/>
<text text-anchor="middle" x="4050.39" y="-217.8" font-family="Times,serif" font-size="14.00">severity qualifier</text>
</g>
<!-- onset qualifier -->
<g id="node29" class="node">
<title>onset qualifier</title>
<ellipse fill="none" stroke="blue" cx="4191.39" cy="-178" rx="36.29" ry="18"/>
<text text-anchor="middle" x="4191.39" y="-174.3" font-family="Times,serif" font-size="14.00">onset</text>
</g>
<!-- case to phenotypic feature association&#45;&gt;onset qualifier -->
<g id="edge26" class="edge">
<title>case to phenotypic feature association&#45;&gt;onset qualifier</title>
<path fill="none" stroke="blue" d="M2388.32,-251.69C2411.92,-249.8 2436.39,-248.11 2459.39,-247 2551.29,-242.56 4027.4,-255.87 4115.39,-229 4134.16,-223.27 4152.61,-211.33 4166.63,-200.55"/>
<polygon fill="blue" stroke="blue" points="4169.12,-203.04 4174.75,-194.06 4164.75,-197.57 4169.12,-203.04"/>
<text text-anchor="middle" x="4198.89" y="-217.8" font-family="Times,serif" font-size="14.00">onset qualifier</text>
</g>
<!-- sex qualifier -->
<g id="node30" class="node">
<title>sex qualifier</title>
<ellipse fill="none" stroke="blue" cx="4319.39" cy="-178" rx="73.39" ry="18"/>
<text text-anchor="middle" x="4319.39" y="-174.3" font-family="Times,serif" font-size="14.00">biological sex</text>
</g>
<!-- case to phenotypic feature association&#45;&gt;sex qualifier -->
<g id="edge27" class="edge">
<title>case to phenotypic feature association&#45;&gt;sex qualifier</title>
<path fill="none" stroke="blue" d="M2388.32,-251.67C2411.92,-249.78 2436.39,-248.1 2459.39,-247 2509.2,-244.62 4207.27,-245.29 4254.39,-229 4270.03,-223.59 4284.86,-212.8 4296.4,-202.61"/>
<polygon fill="blue" stroke="blue" points="4298.87,-205.1 4303.83,-195.74 4294.11,-199.96 4298.87,-205.1"/>
<text text-anchor="middle" x="4325.39" y="-217.8" font-family="Times,serif" font-size="14.00">sex qualifier</text>
</g>
<!-- subject&#45;&gt;object -->
<g id="edge28" class="edge">
<title>subject&#45;&gt;object</title>
<path fill="none" stroke="black" d="M1750.29,-160.61C1765.2,-147.68 1786.19,-129.47 1802.8,-115.07"/>
<polygon fill="black" stroke="black" points="1805.3,-117.53 1810.56,-108.34 1800.71,-112.25 1805.3,-117.53"/>
<text text-anchor="middle" x="1814.39" y="-130.8" font-family="Times,serif" font-size="14.00">relation</text>
</g>
<!-- relation -->
<g id="node31" class="node">
<title>relation</title>
<ellipse fill="none" stroke="black" cx="1743.39" cy="-18" rx="46.59" ry="18"/>
<text text-anchor="middle" x="1743.39" y="-14.3" font-family="Times,serif" font-size="14.00">relation</text>
</g>
<!-- subject&#45;&gt;relation -->
<g id="edge29" class="edge">
<title>subject&#45;&gt;relation</title>
<path fill="none" stroke="black" stroke-dasharray="1,5" d="M1732.7,-159.79C1734.78,-132.48 1738.84,-78.99 1741.31,-46.38"/>
<polygon fill="black" stroke="black" points="1744.82,-46.42 1742.09,-36.19 1737.84,-45.89 1744.82,-46.42"/>
</g>
<!-- object&#45;&gt;relation -->
<g id="edge30" class="edge">
<title>object&#45;&gt;relation</title>
<path fill="none" stroke="black" stroke-dasharray="1,5" d="M1809.45,-73.53C1797.81,-63.92 1782.97,-51.67 1770.3,-41.21"/>
<polygon fill="black" stroke="black" points="1772.29,-38.31 1762.35,-34.65 1767.83,-43.71 1772.29,-38.31"/>
</g>
<!-- association_type -->
<g id="node24" class="node">
<title>association_type</title>
<ellipse fill="none" stroke="blue" cx="2506.39" cy="-265" rx="38.19" ry="18"/>
<text text-anchor="middle" x="2506.39" y="-261.3" font-family="Times,serif" font-size="14.00">string</text>
</g>
<!-- association_category -->
<g id="node26" class="node">
<title>association_category</title>
<ellipse fill="none" stroke="blue" cx="2637.39" cy="-265" rx="74.99" ry="18"/>
<text text-anchor="middle" x="2637.39" y="-261.3" font-family="Times,serif" font-size="14.00">category type</text>
</g>
</g>
</svg>
