<?xml version="1.0" encoding="UTF-8" standalone="no"?>
<!DOCTYPE svg PUBLIC "-//W3C//DTD SVG 1.1//EN"
 "http://www.w3.org/Graphics/SVG/1.1/DTD/svg11.dtd">
<!-- Generated by graphviz version 2.43.0 (0)
 -->
<!-- Title: %3 Pages: 1 -->
<svg width="1500pt" height="131pt"
 viewBox="0.00 0.00 1499.88 131.00" xmlns="http://www.w3.org/2000/svg" xmlns:xlink="http://www.w3.org/1999/xlink">
<g id="graph0" class="graph" transform="scale(1 1) rotate(0) translate(4 127)">
<title>%3</title>
<polygon fill="white" stroke="transparent" points="-4,4 -4,-127 1495.88,-127 1495.88,4 -4,4"/>
<!-- case -->
<g id="node1" class="node">
<title>case</title>
<ellipse fill="none" stroke="black" cx="726.69" cy="-105" rx="31.4" ry="18"/>
<text text-anchor="middle" x="726.69" y="-101.3" font-family="Times,serif" font-size="14.00">case</text>
</g>
<!-- individual organism -->
<g id="node2" class="node">
<title>individual organism</title>
<ellipse fill="none" stroke="black" cx="102.69" cy="-18" rx="102.88" ry="18"/>
<text text-anchor="middle" x="102.69" y="-14.3" font-family="Times,serif" font-size="14.00">individual organism</text>
</g>
<!-- case&#45;&gt;individual organism -->
<g id="edge1" class="edge">
<title>case&#45;&gt;individual organism</title>
<path fill="none" stroke="black" d="M695.87,-102.13C632.24,-98.04 481.84,-87.19 356.69,-69 294.15,-59.91 223.67,-45.72 172.85,-34.77"/>
<polygon fill="black" stroke="black" points="173.47,-31.33 162.96,-32.63 171.99,-38.17 173.47,-31.33"/>
<text text-anchor="middle" x="370.69" y="-57.8" font-family="Times,serif" font-size="14.00">is_a</text>
</g>
<!-- id -->
<g id="node3" class="node">
<title>id</title>
<ellipse fill="none" stroke="blue" cx="261.69" cy="-18" rx="38.19" ry="18"/>
<text text-anchor="middle" x="261.69" y="-14.3" font-family="Times,serif" font-size="14.00">string</text>
</g>
<!-- case&#45;&gt;id -->
<g id="edge2" class="edge">
<title>case&#45;&gt;id</title>
<path fill="none" stroke="blue" d="M696.08,-101.42C626.4,-95.03 451.03,-75.99 309.69,-36 306.59,-35.12 303.39,-34.15 300.19,-33.12"/>
<polygon fill="blue" stroke="blue" points="301.28,-29.8 290.69,-29.95 299.06,-36.44 301.28,-29.8"/>
<text text-anchor="middle" x="452.69" y="-57.8" font-family="Times,serif" font-size="14.00">id</text>
</g>
<!-- iri -->
<g id="node4" class="node">
<title>iri</title>
<ellipse fill="none" stroke="blue" cx="362.69" cy="-18" rx="44.39" ry="18"/>
<text text-anchor="middle" x="362.69" y="-14.3" font-family="Times,serif" font-size="14.00">iri type</text>
</g>
<!-- case&#45;&gt;iri -->
<g id="edge3" class="edge">
<title>case&#45;&gt;iri</title>
<path fill="none" stroke="blue" d="M697.25,-99.04C660.81,-92.75 596.93,-81.25 542.69,-69 486.22,-56.25 472.32,-52.03 416.69,-36 413.18,-34.99 409.55,-33.91 405.91,-32.81"/>
<polygon fill="blue" stroke="blue" points="406.9,-29.45 396.32,-29.86 404.85,-36.15 406.9,-29.45"/>
<text text-anchor="middle" x="550.69" y="-57.8" font-family="Times,serif" font-size="14.00">iri</text>
</g>
<!-- type -->
<g id="node5" class="node">
<title>type</title>
<ellipse fill="none" stroke="blue" cx="463.69" cy="-18" rx="38.19" ry="18"/>
<text text-anchor="middle" x="463.69" y="-14.3" font-family="Times,serif" font-size="14.00">string</text>
</g>
<!-- case&#45;&gt;type -->
<g id="edge4" class="edge">
<title>case&#45;&gt;type</title>
<path fill="none" stroke="blue" d="M699.18,-96.26C675,-89.38 638.89,-78.89 607.69,-69 564.28,-55.24 553.66,-51.08 510.69,-36 508,-35.06 505.23,-34.08 502.45,-33.08"/>
<polygon fill="blue" stroke="blue" points="503.59,-29.78 492.99,-29.7 501.23,-36.37 503.59,-29.78"/>
<text text-anchor="middle" x="623.69" y="-57.8" font-family="Times,serif" font-size="14.00">type</text>
</g>
<!-- name -->
<g id="node6" class="node">
<title>name</title>
<ellipse fill="none" stroke="blue" cx="576.69" cy="-18" rx="56.59" ry="18"/>
<text text-anchor="middle" x="576.69" y="-14.3" font-family="Times,serif" font-size="14.00">label type</text>
</g>
<!-- case&#45;&gt;name -->
<g id="edge5" class="edge">
<title>case&#45;&gt;name</title>
<path fill="none" stroke="blue" d="M705.2,-91.82C680.93,-78.07 641.07,-55.48 612.16,-39.1"/>
<polygon fill="blue" stroke="blue" points="613.63,-35.91 603.2,-34.02 610.17,-42 613.63,-35.91"/>
<text text-anchor="middle" x="680.69" y="-57.8" font-family="Times,serif" font-size="14.00">name</text>
</g>
<!-- description -->
<g id="node7" class="node">
<title>description</title>
<ellipse fill="none" stroke="blue" cx="726.69" cy="-18" rx="75.29" ry="18"/>
<text text-anchor="middle" x="726.69" y="-14.3" font-family="Times,serif" font-size="14.00">narrative text</text>
</g>
<!-- case&#45;&gt;description -->
<g id="edge6" class="edge">
<title>case&#45;&gt;description</title>
<path fill="none" stroke="blue" d="M726.69,-86.8C726.69,-75.16 726.69,-59.55 726.69,-46.24"/>
<polygon fill="blue" stroke="blue" points="730.19,-46.18 726.69,-36.18 723.19,-46.18 730.19,-46.18"/>
<text text-anchor="middle" x="767.19" y="-57.8" font-family="Times,serif" font-size="14.00">description</text>
</g>
<!-- source -->
<g id="node8" class="node">
<title>source</title>
<ellipse fill="none" stroke="blue" cx="876.69" cy="-18" rx="56.59" ry="18"/>
<text text-anchor="middle" x="876.69" y="-14.3" font-family="Times,serif" font-size="14.00">label type</text>
</g>
<!-- case&#45;&gt;source -->
<g id="edge7" class="edge">
<title>case&#45;&gt;source</title>
<path fill="none" stroke="blue" d="M751.19,-93.49C756.31,-91.32 761.67,-89.07 766.69,-87 786.6,-78.79 792.98,-79.67 811.69,-69 825.33,-61.23 839.27,-50.88 850.73,-41.61"/>
<polygon fill="blue" stroke="blue" points="853.12,-44.18 858.6,-35.11 848.66,-38.78 853.12,-44.18"/>
<text text-anchor="middle" x="858.69" y="-57.8" font-family="Times,serif" font-size="14.00">source</text>
</g>
<!-- provided by -->
<g id="node9" class="node">
<title>provided by</title>
<ellipse fill="none" stroke="blue" cx="988.69" cy="-18" rx="37.09" ry="18"/>
<text text-anchor="middle" x="988.69" y="-14.3" font-family="Times,serif" font-size="14.00">agent</text>
</g>
<!-- case&#45;&gt;provided by -->
<g id="edge8" class="edge">
<title>case&#45;&gt;provided by</title>
<path fill="none" stroke="blue" d="M750.02,-92.92C755.4,-90.69 761.17,-88.56 766.69,-87 818.59,-72.34 835.21,-85.06 886.69,-69 911.56,-61.24 937.92,-48.18 957.61,-37.35"/>
<polygon fill="blue" stroke="blue" points="959.42,-40.35 966.43,-32.41 956,-34.24 959.42,-40.35"/>
<text text-anchor="middle" x="967.19" y="-57.8" font-family="Times,serif" font-size="14.00">provided by</text>
</g>
<!-- category -->
<g id="node10" class="node">
<title>category</title>
<ellipse fill="none" stroke="black" cx="1094.69" cy="-18" rx="51.19" ry="18"/>
<text text-anchor="middle" x="1094.69" y="-14.3" font-family="Times,serif" font-size="14.00">category</text>
</g>
<!-- case&#45;&gt;category -->
<g id="edge9" class="edge">
<title>case&#45;&gt;category</title>
<path fill="none" stroke="blue" d="M749.94,-92.6C755.33,-90.39 761.12,-88.35 766.69,-87 873.68,-61.12 908.97,-102.88 1013.69,-69 1032.75,-62.83 1051.92,-51.3 1066.82,-40.86"/>
<polygon fill="blue" stroke="blue" points="1069.02,-43.59 1075.07,-34.89 1064.92,-37.92 1069.02,-43.59"/>
<text text-anchor="middle" x="1076.19" y="-57.8" font-family="Times,serif" font-size="14.00">category</text>
</g>
<!-- has attribute -->
<g id="node12" class="node">
<title>has attribute</title>
<ellipse fill="none" stroke="black" cx="1235.69" cy="-18" rx="71.49" ry="18"/>
<text text-anchor="middle" x="1235.69" y="-14.3" font-family="Times,serif" font-size="14.00">has attribute</text>
</g>
<!-- case&#45;&gt;has attribute -->
<g id="edge10" class="edge">
<title>case&#45;&gt;has attribute</title>
<path fill="none" stroke="blue" d="M749.5,-92.69C755,-90.42 760.96,-88.32 766.69,-87 916.29,-52.44 961.77,-102.16 1111.69,-69 1141.1,-62.49 1172.56,-49.74 1196.43,-38.74"/>
<polygon fill="blue" stroke="blue" points="1197.95,-41.89 1205.51,-34.47 1194.97,-35.55 1197.95,-41.89"/>
<text text-anchor="middle" x="1204.69" y="-57.8" font-family="Times,serif" font-size="14.00">has attribute</text>
</g>
<!-- in taxon -->
<g id="node14" class="node">
<title>in taxon</title>
<ellipse fill="none" stroke="blue" cx="1408.69" cy="-18" rx="83.39" ry="18"/>
<text text-anchor="middle" x="1408.69" y="-14.3" font-family="Times,serif" font-size="14.00">organism taxon</text>
</g>
<!-- case&#45;&gt;in taxon -->
<g id="edge11" class="edge">
<title>case&#45;&gt;in taxon</title>
<path fill="none" stroke="blue" d="M749.48,-92.63C754.99,-90.36 760.95,-88.28 766.69,-87 978.96,-39.68 1041.58,-107.15 1255.69,-69 1292.56,-62.43 1332.75,-49.04 1362.68,-37.77"/>
<polygon fill="blue" stroke="blue" points="1363.93,-41.04 1372.02,-34.19 1361.43,-34.5 1363.93,-41.04"/>
<text text-anchor="middle" x="1339.69" y="-57.8" font-family="Times,serif" font-size="14.00">in taxon</text>
</g>
<!-- named thing_category -->
<g id="node11" class="node">
<title>named thing_category</title>
<ellipse fill="none" stroke="blue" cx="845.69" cy="-105" rx="69.59" ry="18"/>
<text text-anchor="middle" x="845.69" y="-101.3" font-family="Times,serif" font-size="14.00">named thing</text>
</g>
<!-- organismal entity_has attribute -->
<g id="node13" class="node">
<title>organismal entity_has attribute</title>
<ellipse fill="none" stroke="blue" cx="985.69" cy="-105" rx="51.99" ry="18"/>
<text text-anchor="middle" x="985.69" y="-101.3" font-family="Times,serif" font-size="14.00">attribute</text>
</g>
</g>
</svg>
