<?xml version="1.0" encoding="UTF-8" standalone="no"?>
<!DOCTYPE svg PUBLIC "-//W3C//DTD SVG 1.1//EN"
 "http://www.w3.org/Graphics/SVG/1.1/DTD/svg11.dtd">
<!-- Generated by graphviz version 2.43.0 (0)
 -->
<!-- Title: %3 Pages: 1 -->
<svg width="4451pt" height="291pt"
 viewBox="0.00 0.00 4450.84 291.00" xmlns="http://www.w3.org/2000/svg" xmlns:xlink="http://www.w3.org/1999/xlink">
<g id="graph0" class="graph" transform="scale(1 1) rotate(0) translate(4 287)">
<title>%3</title>
<polygon fill="white" stroke="transparent" points="-4,4 -4,-287 4446.84,-287 4446.84,4 -4,4"/>
<!-- case to phenotypic feature association -->
<g id="node1" class="node">
<title>case to phenotypic feature association</title>
<ellipse fill="none" stroke="black" cx="2158.39" cy="-265" rx="188.47" ry="18"/>
<text text-anchor="middle" x="2158.39" y="-261.3" font-family="Times,serif" font-size="14.00">case to phenotypic feature association</text>
</g>
<!-- association -->
<g id="node2" class="node">
<title>association</title>
<ellipse fill="none" stroke="black" cx="62.39" cy="-178" rx="62.29" ry="18"/>
<text text-anchor="middle" x="62.39" y="-174.3" font-family="Times,serif" font-size="14.00">association</text>
</g>
<!-- case to phenotypic feature association&#45;&gt;association -->
<g id="edge1" class="edge">
<title>case to phenotypic feature association&#45;&gt;association</title>
<path fill="none" stroke="black" d="M1973.06,-261.68C1694.69,-257.71 1152.11,-248.14 691.39,-229 443.62,-218.71 379.76,-231.96 134.39,-196 128.61,-195.15 122.62,-194.07 116.66,-192.86"/>
<polygon fill="black" stroke="black" points="117.23,-189.4 106.72,-190.73 115.76,-196.25 117.23,-189.4"/>
<text text-anchor="middle" x="705.39" y="-217.8" font-family="Times,serif" font-size="14.00">is_a</text>
</g>
<!-- entity to phenotypic feature association mixin -->
<g id="node3" class="node">
<title>entity to phenotypic feature association mixin</title>
<ellipse fill="none" stroke="black" cx="367.39" cy="-178" rx="224.46" ry="18"/>
<text text-anchor="middle" x="367.39" y="-174.3" font-family="Times,serif" font-size="14.00">entity to phenotypic feature association mixin</text>
</g>
<!-- case to phenotypic feature association&#45;&gt;entity to phenotypic feature association mixin -->
<g id="edge2" class="edge">
<title>case to phenotypic feature association&#45;&gt;entity to phenotypic feature association mixin</title>
<path fill="none" stroke="black" d="M1971.83,-262.32C1729.37,-259.31 1292.93,-251.09 920.39,-229 778.64,-220.6 616.93,-205.31 505.15,-193.84"/>
<polygon fill="black" stroke="black" points="505.48,-190.36 495.17,-192.81 504.76,-197.32 505.48,-190.36"/>
<text text-anchor="middle" x="936.89" y="-217.8" font-family="Times,serif" font-size="14.00">uses</text>
</g>
<!-- case to entity association mixin -->
<g id="node4" class="node">
<title>case to entity association mixin</title>
<ellipse fill="none" stroke="black" cx="767.39" cy="-178" rx="157.07" ry="18"/>
<text text-anchor="middle" x="767.39" y="-174.3" font-family="Times,serif" font-size="14.00">case to entity association mixin</text>
</g>
<!-- case to phenotypic feature association&#45;&gt;case to entity association mixin -->
<g id="edge3" class="edge">
<title>case to phenotypic feature association&#45;&gt;case to entity association mixin</title>
<path fill="none" stroke="black" d="M1974.07,-261.15C1709.08,-256.53 1233.53,-246.16 1062.39,-229 989.96,-221.74 908.42,-207.44 849.46,-195.99"/>
<polygon fill="black" stroke="black" points="849.95,-192.52 839.46,-194.03 848.6,-199.39 849.95,-192.52"/>
<text text-anchor="middle" x="1078.89" y="-217.8" font-family="Times,serif" font-size="14.00">uses</text>
</g>
<!-- id -->
<g id="node5" class="node">
<title>id</title>
<ellipse fill="none" stroke="blue" cx="981.39" cy="-178" rx="38.19" ry="18"/>
<text text-anchor="middle" x="981.39" y="-174.3" font-family="Times,serif" font-size="14.00">string</text>
</g>
<!-- case to phenotypic feature association&#45;&gt;id -->
<g id="edge4" class="edge">
<title>case to phenotypic feature association&#45;&gt;id</title>
<path fill="none" stroke="blue" d="M1974.78,-260.93C1737.79,-256.34 1338.53,-246.32 1192.39,-229 1118.99,-220.3 1100.63,-215.72 1029.39,-196 1026.28,-195.14 1023.09,-194.18 1019.89,-193.16"/>
<polygon fill="blue" stroke="blue" points="1020.97,-189.83 1010.38,-190 1018.76,-196.48 1020.97,-189.83"/>
<text text-anchor="middle" x="1199.39" y="-217.8" font-family="Times,serif" font-size="14.00">id</text>
</g>
<!-- iri -->
<g id="node6" class="node">
<title>iri</title>
<ellipse fill="none" stroke="blue" cx="1082.39" cy="-178" rx="44.39" ry="18"/>
<text text-anchor="middle" x="1082.39" y="-174.3" font-family="Times,serif" font-size="14.00">iri type</text>
</g>
<!-- case to phenotypic feature association&#45;&gt;iri -->
<g id="edge5" class="edge">
<title>case to phenotypic feature association&#45;&gt;iri</title>
<path fill="none" stroke="blue" d="M1969.68,-264.54C1795.99,-263.08 1531.53,-255.91 1303.39,-229 1227.83,-220.08 1209.08,-214.99 1135.39,-196 1132.02,-195.13 1128.54,-194.17 1125.05,-193.16"/>
<polygon fill="blue" stroke="blue" points="1125.88,-189.75 1115.3,-190.21 1123.86,-196.45 1125.88,-189.75"/>
<text text-anchor="middle" x="1311.39" y="-217.8" font-family="Times,serif" font-size="14.00">iri</text>
</g>
<!-- name -->
<g id="node7" class="node">
<title>name</title>
<ellipse fill="none" stroke="blue" cx="1201.39" cy="-178" rx="56.59" ry="18"/>
<text text-anchor="middle" x="1201.39" y="-174.3" font-family="Times,serif" font-size="14.00">label type</text>
</g>
<!-- case to phenotypic feature association&#45;&gt;name -->
<g id="edge6" class="edge">
<title>case to phenotypic feature association&#45;&gt;name</title>
<path fill="none" stroke="blue" d="M1976.7,-260.1C1786.5,-255.23 1500.73,-245.47 1392.39,-229 1342.78,-221.46 1287.44,-206.19 1249.15,-194.5"/>
<polygon fill="blue" stroke="blue" points="1249.9,-191.06 1239.31,-191.46 1247.83,-197.75 1249.9,-191.06"/>
<text text-anchor="middle" x="1412.39" y="-217.8" font-family="Times,serif" font-size="14.00">name</text>
</g>
<!-- description -->
<g id="node8" class="node">
<title>description</title>
<ellipse fill="none" stroke="blue" cx="1351.39" cy="-178" rx="75.29" ry="18"/>
<text text-anchor="middle" x="1351.39" y="-174.3" font-family="Times,serif" font-size="14.00">narrative text</text>
</g>
<!-- case to phenotypic feature association&#45;&gt;description -->
<g id="edge7" class="edge">
<title>case to phenotypic feature association&#45;&gt;description</title>
<path fill="none" stroke="blue" d="M1974.76,-260.79C1807.91,-256.71 1574.51,-247.81 1484.39,-229 1452.81,-222.41 1418.78,-209.5 1393.05,-198.45"/>
<polygon fill="blue" stroke="blue" points="1394.19,-195.13 1383.62,-194.33 1391.38,-201.54 1394.19,-195.13"/>
<text text-anchor="middle" x="1524.89" y="-217.8" font-family="Times,serif" font-size="14.00">description</text>
</g>
<!-- source -->
<g id="node9" class="node">
<title>source</title>
<ellipse fill="none" stroke="blue" cx="1483.39" cy="-178" rx="38.19" ry="18"/>
<text text-anchor="middle" x="1483.39" y="-174.3" font-family="Times,serif" font-size="14.00">string</text>
</g>
<!-- case to phenotypic feature association&#45;&gt;source -->
<g id="edge8" class="edge">
<title>case to phenotypic feature association&#45;&gt;source</title>
<path fill="none" stroke="blue" d="M1983.8,-258.14C1853.1,-252.73 1685.76,-243.34 1618.39,-229 1583.56,-221.59 1545.68,-206.93 1518.93,-195.4"/>
<polygon fill="blue" stroke="blue" points="1520.17,-192.12 1509.61,-191.31 1517.36,-198.53 1520.17,-192.12"/>
<text text-anchor="middle" x="1642.39" y="-217.8" font-family="Times,serif" font-size="14.00">source</text>
</g>
<!-- has attribute -->
<g id="node10" class="node">
<title>has attribute</title>
<ellipse fill="none" stroke="blue" cx="1591.39" cy="-178" rx="51.99" ry="18"/>
<text text-anchor="middle" x="1591.39" y="-174.3" font-family="Times,serif" font-size="14.00">attribute</text>
</g>
<!-- case to phenotypic feature association&#45;&gt;has attribute -->
<g id="edge9" class="edge">
<title>case to phenotypic feature association&#45;&gt;has attribute</title>
<path fill="none" stroke="blue" d="M1972.71,-261.88C1892.69,-257.76 1798.57,-248.57 1715.39,-229 1685.27,-221.91 1652.9,-208.65 1628.79,-197.56"/>
<polygon fill="blue" stroke="blue" points="1630.18,-194.35 1619.64,-193.28 1627.22,-200.69 1630.18,-194.35"/>
<text text-anchor="middle" x="1762.39" y="-217.8" font-family="Times,serif" font-size="14.00">has attribute</text>
</g>
<!-- subject -->
<g id="node11" class="node">
<title>subject</title>
<ellipse fill="none" stroke="blue" cx="1731.39" cy="-178" rx="69.59" ry="18"/>
<text text-anchor="middle" x="1731.39" y="-174.3" font-family="Times,serif" font-size="14.00">named thing</text>
</g>
<!-- case to phenotypic feature association&#45;&gt;subject -->
<g id="edge10" class="edge">
<title>case to phenotypic feature association&#45;&gt;subject</title>
<path fill="none" stroke="blue" d="M2008.38,-254.02C1960.32,-248.81 1907.19,-240.92 1859.39,-229 1829.56,-221.56 1797.32,-208.93 1772.66,-198.23"/>
<polygon fill="blue" stroke="blue" points="1773.83,-194.92 1763.26,-194.09 1771,-201.33 1773.83,-194.92"/>
<text text-anchor="middle" x="1885.39" y="-217.8" font-family="Times,serif" font-size="14.00">subject</text>
</g>
<!-- predicate -->
<g id="node12" class="node">
<title>predicate</title>
<ellipse fill="none" stroke="blue" cx="1897.39" cy="-178" rx="77.99" ry="18"/>
<text text-anchor="middle" x="1897.39" y="-174.3" font-family="Times,serif" font-size="14.00">predicate type</text>
</g>
<!-- case to phenotypic feature association&#45;&gt;predicate -->
<g id="edge11" class="edge">
<title>case to phenotypic feature association&#45;&gt;predicate</title>
<path fill="none" stroke="blue" d="M2022.04,-252.57C1982.58,-247.23 1945.75,-239.63 1929.39,-229 1920.55,-223.25 1913.65,-214.09 1908.57,-205.18"/>
<polygon fill="blue" stroke="blue" points="1911.61,-203.43 1903.92,-196.13 1905.38,-206.63 1911.61,-203.43"/>
<text text-anchor="middle" x="1963.39" y="-217.8" font-family="Times,serif" font-size="14.00">predicate</text>
</g>
<!-- object -->
<g id="node13" class="node">
<title>object</title>
<ellipse fill="none" stroke="blue" cx="1946.39" cy="-91" rx="69.59" ry="18"/>
<text text-anchor="middle" x="1946.39" y="-87.3" font-family="Times,serif" font-size="14.00">named thing</text>
</g>
<!-- case to phenotypic feature association&#45;&gt;object -->
<g id="edge12" class="edge">
<title>case to phenotypic feature association&#45;&gt;object</title>
<path fill="none" stroke="blue" d="M2109.74,-247.58C2096.33,-242.34 2082.01,-236.04 2069.39,-229 2048.05,-217.09 2042.73,-213.23 2025.39,-196 2000.94,-171.7 1977.67,-139.57 1962.8,-117.5"/>
<polygon fill="blue" stroke="blue" points="1965.6,-115.38 1957.15,-108.99 1959.76,-119.25 1965.6,-115.38"/>
<text text-anchor="middle" x="2047.39" y="-174.3" font-family="Times,serif" font-size="14.00">object</text>
</g>
<!-- relation -->
<g id="node14" class="node">
<title>relation</title>
<ellipse fill="none" stroke="blue" cx="1946.39" cy="-18" rx="38.19" ry="18"/>
<text text-anchor="middle" x="1946.39" y="-14.3" font-family="Times,serif" font-size="14.00">string</text>
</g>
<!-- case to phenotypic feature association&#45;&gt;relation -->
<g id="edge13" class="edge">
<title>case to phenotypic feature association&#45;&gt;relation</title>
<path fill="none" stroke="blue" d="M2143.25,-246.88C2131.6,-233.42 2115.35,-213.99 2102.39,-196 2064.7,-143.66 2070.07,-119.51 2025.39,-73 2012.02,-59.08 1994.51,-46.67 1979.38,-37.27"/>
<polygon fill="blue" stroke="blue" points="1981.16,-34.26 1970.79,-32.09 1977.55,-40.25 1981.16,-34.26"/>
<text text-anchor="middle" x="2099.39" y="-130.8" font-family="Times,serif" font-size="14.00">relation</text>
</g>
<!-- negated -->
<g id="node15" class="node">
<title>negated</title>
<ellipse fill="none" stroke="blue" cx="2158.39" cy="-178" rx="46.59" ry="18"/>
<text text-anchor="middle" x="2158.39" y="-174.3" font-family="Times,serif" font-size="14.00">boolean</text>
</g>
<!-- case to phenotypic feature association&#45;&gt;negated -->
<g id="edge14" class="edge">
<title>case to phenotypic feature association&#45;&gt;negated</title>
<path fill="none" stroke="blue" d="M2158.39,-246.8C2158.39,-235.16 2158.39,-219.55 2158.39,-206.24"/>
<polygon fill="blue" stroke="blue" points="2161.89,-206.18 2158.39,-196.18 2154.89,-206.18 2161.89,-206.18"/>
<text text-anchor="middle" x="2187.39" y="-217.8" font-family="Times,serif" font-size="14.00">negated</text>
</g>
<!-- qualifiers -->
<g id="node16" class="node">
<title>qualifiers</title>
<ellipse fill="none" stroke="blue" cx="2299.39" cy="-178" rx="76.89" ry="18"/>
<text text-anchor="middle" x="2299.39" y="-174.3" font-family="Times,serif" font-size="14.00">ontology class</text>
</g>
<!-- case to phenotypic feature association&#45;&gt;qualifiers -->
<g id="edge15" class="edge">
<title>case to phenotypic feature association&#45;&gt;qualifiers</title>
<path fill="none" stroke="blue" d="M2188.84,-247.21C2198.95,-241.54 2210.21,-235.09 2220.39,-229 2235.48,-219.98 2251.93,-209.64 2265.91,-200.72"/>
<polygon fill="blue" stroke="blue" points="2268.16,-203.43 2274.69,-195.09 2264.38,-197.54 2268.16,-203.43"/>
<text text-anchor="middle" x="2278.89" y="-217.8" font-family="Times,serif" font-size="14.00">qualifiers</text>
</g>
<!-- publications -->
<g id="node17" class="node">
<title>publications</title>
<ellipse fill="none" stroke="blue" cx="2456.39" cy="-178" rx="62.29" ry="18"/>
<text text-anchor="middle" x="2456.39" y="-174.3" font-family="Times,serif" font-size="14.00">publication</text>
</g>
<!-- case to phenotypic feature association&#45;&gt;publications -->
<g id="edge16" class="edge">
<title>case to phenotypic feature association&#45;&gt;publications</title>
<path fill="none" stroke="blue" d="M2237.24,-248.56C2262.68,-243.04 2290.88,-236.35 2316.39,-229 2348.64,-219.71 2384.25,-206.96 2411.49,-196.66"/>
<polygon fill="blue" stroke="blue" points="2413.02,-199.82 2421.12,-192.98 2410.53,-193.28 2413.02,-199.82"/>
<text text-anchor="middle" x="2407.39" y="-217.8" font-family="Times,serif" font-size="14.00">publications</text>
</g>
<!-- has evidence -->
<g id="node18" class="node">
<title>has evidence</title>
<ellipse fill="none" stroke="blue" cx="2612.39" cy="-178" rx="75.29" ry="18"/>
<text text-anchor="middle" x="2612.39" y="-174.3" font-family="Times,serif" font-size="14.00">evidence type</text>
</g>
<!-- case to phenotypic feature association&#45;&gt;has evidence -->
<g id="edge17" class="edge">
<title>case to phenotypic feature association&#45;&gt;has evidence</title>
<path fill="none" stroke="blue" d="M2299.06,-252.98C2348.79,-247.63 2404.9,-239.91 2455.39,-229 2492.61,-220.96 2533.56,-207.76 2564.31,-196.95"/>
<polygon fill="blue" stroke="blue" points="2565.67,-200.18 2573.92,-193.53 2563.32,-193.58 2565.67,-200.18"/>
<text text-anchor="middle" x="2558.89" y="-217.8" font-family="Times,serif" font-size="14.00">has evidence</text>
</g>
<!-- knowledge source -->
<g id="node19" class="node">
<title>knowledge source</title>
<ellipse fill="none" stroke="blue" cx="2814.39" cy="-178" rx="108.58" ry="18"/>
<text text-anchor="middle" x="2814.39" y="-174.3" font-family="Times,serif" font-size="14.00">information resource</text>
</g>
<!-- case to phenotypic feature association&#45;&gt;knowledge source -->
<g id="edge18" class="edge">
<title>case to phenotypic feature association&#45;&gt;knowledge source</title>
<path fill="none" stroke="blue" d="M2291.77,-252.28C2313.37,-250.46 2335.5,-248.64 2356.39,-247 2468.78,-238.18 2498.02,-246.42 2609.39,-229 2658.55,-221.31 2713.24,-207.71 2753.76,-196.63"/>
<polygon fill="blue" stroke="blue" points="2754.78,-199.98 2763.49,-193.95 2752.91,-193.24 2754.78,-199.98"/>
<text text-anchor="middle" x="2747.89" y="-217.8" font-family="Times,serif" font-size="14.00">knowledge source</text>
</g>
<!-- original knowledge source -->
<g id="node20" class="node">
<title>original knowledge source</title>
<ellipse fill="none" stroke="blue" cx="3049.39" cy="-178" rx="108.58" ry="18"/>
<text text-anchor="middle" x="3049.39" y="-174.3" font-family="Times,serif" font-size="14.00">information resource</text>
</g>
<!-- case to phenotypic feature association&#45;&gt;original knowledge source -->
<g id="edge19" class="edge">
<title>case to phenotypic feature association&#45;&gt;original knowledge source</title>
<path fill="none" stroke="blue" d="M2288.53,-251.96C2311.15,-250.11 2334.44,-248.37 2356.39,-247 2560.6,-234.25 2613.4,-254.56 2816.39,-229 2873.76,-221.78 2937.93,-207.54 2984.37,-196.1"/>
<polygon fill="blue" stroke="blue" points="2985.44,-199.44 2994.3,-193.63 2983.75,-192.65 2985.44,-199.44"/>
<text text-anchor="middle" x="2994.39" y="-217.8" font-family="Times,serif" font-size="14.00">original knowledge source</text>
</g>
<!-- primary knowledge source -->
<g id="node21" class="node">
<title>primary knowledge source</title>
<ellipse fill="none" stroke="blue" cx="3284.39" cy="-178" rx="108.58" ry="18"/>
<text text-anchor="middle" x="3284.39" y="-174.3" font-family="Times,serif" font-size="14.00">information resource</text>
</g>
<!-- case to phenotypic feature association&#45;&gt;primary knowledge source -->
<g id="edge20" class="edge">
<title>case to phenotypic feature association&#45;&gt;primary knowledge source</title>
<path fill="none" stroke="blue" d="M2286.92,-251.81C2310.03,-249.95 2333.92,-248.24 2356.39,-247 2519.75,-238 2930.38,-251.77 3092.39,-229 3138.89,-222.47 3190.31,-208.71 3228.23,-197.28"/>
<polygon fill="blue" stroke="blue" points="3229.51,-200.55 3238.06,-194.28 3227.47,-193.85 3229.51,-200.55"/>
<text text-anchor="middle" x="3262.39" y="-217.8" font-family="Times,serif" font-size="14.00">primary knowledge source</text>
</g>
<!-- aggregator knowledge source -->
<g id="node22" class="node">
<title>aggregator knowledge source</title>
<ellipse fill="none" stroke="blue" cx="3519.39" cy="-178" rx="108.58" ry="18"/>
<text text-anchor="middle" x="3519.39" y="-174.3" font-family="Times,serif" font-size="14.00">information resource</text>
</g>
<!-- case to phenotypic feature association&#45;&gt;aggregator knowledge source -->
<g id="edge21" class="edge">
<title>case to phenotypic feature association&#45;&gt;aggregator knowledge source</title>
<path fill="none" stroke="blue" d="M2286.12,-251.75C2309.48,-249.88 2333.65,-248.18 2356.39,-247 2467.93,-241.22 3251.18,-247.04 3361.39,-229 3398.93,-222.86 3439.83,-209.73 3470.61,-198.46"/>
<polygon fill="blue" stroke="blue" points="3472.08,-201.65 3480.23,-194.88 3469.64,-195.09 3472.08,-201.65"/>
<text text-anchor="middle" x="3529.89" y="-217.8" font-family="Times,serif" font-size="14.00">aggregator knowledge source</text>
</g>
<!-- type -->
<g id="node23" class="node">
<title>type</title>
<ellipse fill="none" stroke="black" cx="3677.39" cy="-178" rx="31.4" ry="18"/>
<text text-anchor="middle" x="3677.39" y="-174.3" font-family="Times,serif" font-size="14.00">type</text>
</g>
<!-- case to phenotypic feature association&#45;&gt;type -->
<g id="edge22" class="edge">
<title>case to phenotypic feature association&#45;&gt;type</title>
<path fill="none" stroke="blue" d="M2285.85,-251.7C2309.29,-249.83 2333.57,-248.14 2356.39,-247 2392.02,-245.22 3608.65,-245.28 3640.39,-229 3650.73,-223.7 3658.92,-214.02 3664.93,-204.58"/>
<polygon fill="blue" stroke="blue" points="3668.06,-206.16 3670.03,-195.75 3662,-202.66 3668.06,-206.16"/>
<text text-anchor="middle" x="3673.39" y="-217.8" font-family="Times,serif" font-size="14.00">type</text>
</g>
<!-- category -->
<g id="node25" class="node">
<title>category</title>
<ellipse fill="none" stroke="black" cx="3778.39" cy="-178" rx="51.19" ry="18"/>
<text text-anchor="middle" x="3778.39" y="-174.3" font-family="Times,serif" font-size="14.00">category</text>
</g>
<!-- case to phenotypic feature association&#45;&gt;category -->
<g id="edge23" class="edge">
<title>case to phenotypic feature association&#45;&gt;category</title>
<path fill="none" stroke="blue" d="M2285.58,-251.71C2309.11,-249.83 2333.48,-248.14 2356.39,-247 2430.59,-243.32 3621.85,-249 3693.39,-229 3713.85,-223.28 3734.43,-211.37 3750.22,-200.6"/>
<polygon fill="blue" stroke="blue" points="3752.31,-203.41 3758.47,-194.79 3748.28,-197.69 3752.31,-203.41"/>
<text text-anchor="middle" x="3759.89" y="-217.8" font-family="Times,serif" font-size="14.00">category</text>
</g>
<!-- frequency qualifier -->
<g id="node27" class="node">
<title>frequency qualifier</title>
<ellipse fill="none" stroke="blue" cx="3932.39" cy="-178" rx="85.29" ry="18"/>
<text text-anchor="middle" x="3932.39" y="-174.3" font-family="Times,serif" font-size="14.00">frequency value</text>
</g>
<!-- case to phenotypic feature association&#45;&gt;frequency qualifier -->
<g id="edge24" class="edge">
<title>case to phenotypic feature association&#45;&gt;frequency qualifier</title>
<path fill="none" stroke="blue" d="M2285.58,-251.7C2309.11,-249.81 2333.48,-248.13 2356.39,-247 2516.1,-239.16 3638.11,-257.82 3795.39,-229 3828.11,-223.01 3863.33,-210 3889.86,-198.75"/>
<polygon fill="blue" stroke="blue" points="3891.43,-201.88 3899.22,-194.7 3888.65,-195.46 3891.43,-201.88"/>
<text text-anchor="middle" x="3917.39" y="-217.8" font-family="Times,serif" font-size="14.00">frequency qualifier</text>
</g>
<!-- severity qualifier -->
<g id="node28" class="node">
<title>severity qualifier</title>
<ellipse fill="none" stroke="blue" cx="4111.39" cy="-178" rx="76.09" ry="18"/>
<text text-anchor="middle" x="4111.39" y="-174.3" font-family="Times,serif" font-size="14.00">severity value</text>
</g>
<!-- case to phenotypic feature association&#45;&gt;severity qualifier -->
<g id="edge25" class="edge">
<title>case to phenotypic feature association&#45;&gt;severity qualifier</title>
<path fill="none" stroke="blue" d="M2285.32,-251.69C2308.92,-249.8 2333.39,-248.11 2356.39,-247 2447.02,-242.62 3900.48,-247.02 3989.39,-229 4018.38,-223.12 4049.18,-210.44 4072.58,-199.32"/>
<polygon fill="blue" stroke="blue" points="4074.35,-202.36 4081.81,-194.84 4071.29,-196.06 4074.35,-202.36"/>
<text text-anchor="middle" x="4099.39" y="-217.8" font-family="Times,serif" font-size="14.00">severity qualifier</text>
</g>
<!-- onset qualifier -->
<g id="node29" class="node">
<title>onset qualifier</title>
<ellipse fill="none" stroke="blue" cx="4241.39" cy="-178" rx="36.29" ry="18"/>
<text text-anchor="middle" x="4241.39" y="-174.3" font-family="Times,serif" font-size="14.00">onset</text>
</g>
<!-- case to phenotypic feature association&#45;&gt;onset qualifier -->
<g id="edge26" class="edge">
<title>case to phenotypic feature association&#45;&gt;onset qualifier</title>
<path fill="none" stroke="blue" d="M2285.32,-251.67C2308.92,-249.78 2333.39,-248.1 2356.39,-247 2406.56,-244.6 4116.31,-243.5 4164.39,-229 4183.35,-223.28 4202.04,-211.34 4216.26,-200.56"/>
<polygon fill="blue" stroke="blue" points="4218.81,-203.01 4224.5,-194.07 4214.48,-197.51 4218.81,-203.01"/>
<text text-anchor="middle" x="4247.89" y="-217.8" font-family="Times,serif" font-size="14.00">onset qualifier</text>
</g>
<!-- sex qualifier -->
<g id="node30" class="node">
<title>sex qualifier</title>
<ellipse fill="none" stroke="blue" cx="4369.39" cy="-178" rx="73.39" ry="18"/>
<text text-anchor="middle" x="4369.39" y="-174.3" font-family="Times,serif" font-size="14.00">biological sex</text>
</g>
<!-- case to phenotypic feature association&#45;&gt;sex qualifier -->
<g id="edge27" class="edge">
<title>case to phenotypic feature association&#45;&gt;sex qualifier</title>
<path fill="none" stroke="blue" d="M2285.32,-251.66C2308.92,-249.77 2333.39,-248.09 2356.39,-247 2410.42,-244.43 4252.21,-246.46 4303.39,-229 4319.2,-223.61 4334.26,-212.81 4345.98,-202.63"/>
<polygon fill="blue" stroke="blue" points="4348.5,-205.07 4353.54,-195.75 4343.79,-199.89 4348.5,-205.07"/>
<text text-anchor="middle" x="4374.39" y="-217.8" font-family="Times,serif" font-size="14.00">sex qualifier</text>
</g>
<!-- subject&#45;&gt;object -->
<g id="edge28" class="edge">
<title>subject&#45;&gt;object</title>
<path fill="none" stroke="black" d="M1767.87,-162.58C1804.39,-148.14 1860.72,-125.87 1900.31,-110.22"/>
<polygon fill="black" stroke="black" points="1901.73,-113.42 1909.74,-106.49 1899.16,-106.91 1901.73,-113.42"/>
<text text-anchor="middle" x="1880.39" y="-130.8" font-family="Times,serif" font-size="14.00">relation</text>
</g>
<!-- subject&#45;&gt;relation -->
<g id="edge29" class="edge">
<title>subject&#45;&gt;relation</title>
<path fill="none" stroke="black" stroke-dasharray="1,5" d="M1751.87,-160.8C1778.27,-140.04 1825.73,-103.14 1867.39,-73 1883.49,-61.36 1901.77,-48.82 1916.7,-38.75"/>
<polygon fill="black" stroke="black" points="1918.71,-41.62 1925.06,-33.14 1914.8,-35.81 1918.71,-41.62"/>
</g>
<!-- object&#45;&gt;relation -->
<g id="edge30" class="edge">
<title>object&#45;&gt;relation</title>
<path fill="none" stroke="black" stroke-dasharray="1,5" d="M1946.39,-72.81C1946.39,-64.79 1946.39,-55.05 1946.39,-46.07"/>
<polygon fill="black" stroke="black" points="1949.89,-46.03 1946.39,-36.03 1942.89,-46.03 1949.89,-46.03"/>
</g>
<!-- association_type -->
<g id="node24" class="node">
<title>association_type</title>
<ellipse fill="none" stroke="blue" cx="2403.39" cy="-265" rx="38.19" ry="18"/>
<text text-anchor="middle" x="2403.39" y="-261.3" font-family="Times,serif" font-size="14.00">string</text>
</g>
<!-- association_category -->
<g id="node26" class="node">
<title>association_category</title>
<ellipse fill="none" stroke="blue" cx="2534.39" cy="-265" rx="74.99" ry="18"/>
<text text-anchor="middle" x="2534.39" y="-261.3" font-family="Times,serif" font-size="14.00">category type</text>
</g>
</g>
</svg>
