<?xml version="1.0" encoding="UTF-8" standalone="no"?>
<!DOCTYPE svg PUBLIC "-//W3C//DTD SVG 1.1//EN"
 "http://www.w3.org/Graphics/SVG/1.1/DTD/svg11.dtd">
<!-- Generated by graphviz version 2.40.1 (20161225.0304)
 -->
<!-- Title: %3 Pages: 1 -->
<svg width="1499pt" height="289pt"
 viewBox="0.00 0.00 1499.06 289.00" xmlns="http://www.w3.org/2000/svg" xmlns:xlink="http://www.w3.org/1999/xlink">
<g id="graph0" class="graph" transform="scale(1 1) rotate(0) translate(4 285)">
<title>%3</title>
<polygon fill="#ffffff" stroke="transparent" points="-4,4 -4,-285 1495.0568,-285 1495.0568,4 -4,4"/>
<!-- case to thing association -->
<g id="node1" class="node">
<title>case to thing association</title>
<ellipse fill="none" stroke="#000000" cx="730.4015" cy="-263" rx="96.1184" ry="18"/>
<text text-anchor="middle" x="730.4015" y="-258.8" font-family="Times,serif" font-size="14.00" fill="#000000">case to thing association</text>
</g>
<!-- association -->
<g id="node2" class="node">
<title>association</title>
<ellipse fill="none" stroke="#000000" cx="49.4015" cy="-177" rx="49.3032" ry="18"/>
<text text-anchor="middle" x="49.4015" y="-172.8" font-family="Times,serif" font-size="14.00" fill="#000000">association</text>
</g>
<!-- case to thing association&#45;&gt;association -->
<g id="edge1" class="edge">
<title>case to thing association&#45;&gt;association</title>
<path fill="none" stroke="#000000" d="M634.9929,-260.2976C500.5132,-255.8868 262.2014,-245.6978 177.8498,-227 146.6717,-220.0889 113.0941,-206.7959 88.0912,-195.6527"/>
<polygon fill="#000000" stroke="#000000" points="89.5039,-192.4503 78.9513,-191.505 86.6111,-198.8247 89.5039,-192.4503"/>
<text text-anchor="middle" x="189.6774" y="-215.8" font-family="Times,serif" font-size="14.00" fill="#000000">is_a</text>
</g>
<!-- id -->
<g id="node3" class="node">
<title>id</title>
<ellipse fill="none" stroke="#000000" cx="143.4015" cy="-177" rx="27" ry="18"/>
</g>
<!-- case to thing association&#45;&gt;id -->
<g id="edge2" class="edge">
<title>case to thing association&#45;&gt;id</title>
<path fill="none" stroke="#000000" d="M634.8909,-260.5731C513.555,-256.6976 311.2898,-247.3648 239.5119,-227 215.0984,-220.0734 189.722,-206.5595 171.1791,-195.3258"/>
<polygon fill="#000000" stroke="#000000" points="173.0006,-192.337 162.6593,-190.0331 169.3068,-198.2831 173.0006,-192.337"/>
<text text-anchor="middle" x="245.8463" y="-215.8" font-family="Times,serif" font-size="14.00" fill="#000000">id</text>
</g>
<!-- name -->
<g id="node4" class="node">
<title>name</title>
<ellipse fill="none" stroke="#000000" cx="215.4015" cy="-177" rx="27" ry="18"/>
</g>
<!-- case to thing association&#45;&gt;name -->
<g id="edge3" class="edge">
<title>case to thing association&#45;&gt;name</title>
<path fill="none" stroke="#000000" d="M636.9861,-258.4349C514.5397,-252.007 311.4562,-239.6531 279.0841,-227 263.5537,-220.9297 248.7423,-209.7491 237.3182,-199.4976"/>
<polygon fill="#000000" stroke="#000000" points="239.6731,-196.9077 229.9832,-192.6231 234.8862,-202.0152 239.6731,-196.9077"/>
<text text-anchor="middle" x="294.5602" y="-215.8" font-family="Times,serif" font-size="14.00" fill="#000000">name</text>
</g>
<!-- category -->
<g id="node5" class="node">
<title>category</title>
<ellipse fill="none" stroke="#000000" cx="287.4015" cy="-177" rx="27" ry="18"/>
</g>
<!-- case to thing association&#45;&gt;category -->
<g id="edge4" class="edge">
<title>case to thing association&#45;&gt;category</title>
<path fill="none" stroke="#000000" d="M637.29,-258.3913C527.2997,-252.3644 355.8147,-240.9177 329.2082,-227 318.4613,-221.3784 309.3847,-211.6988 302.4638,-202.3449"/>
<polygon fill="#000000" stroke="#000000" points="305.2669,-200.2437 296.7278,-193.9719 299.492,-204.1998 305.2669,-200.2437"/>
<text text-anchor="middle" x="353.4982" y="-215.8" font-family="Times,serif" font-size="14.00" fill="#000000">category</text>
</g>
<!-- related to -->
<g id="node6" class="node">
<title>related to</title>
<ellipse fill="none" stroke="#000000" cx="359.4015" cy="-177" rx="27" ry="18"/>
</g>
<!-- case to thing association&#45;&gt;related to -->
<g id="edge5" class="edge">
<title>case to thing association&#45;&gt;related to</title>
<path fill="none" stroke="#000000" d="M639.4727,-257.0014C547.7016,-250.3442 416.6353,-238.9533 395.9289,-227 386.2927,-221.4373 378.4777,-212.1998 372.5863,-203.1681"/>
<polygon fill="#000000" stroke="#000000" points="375.4605,-201.1537 367.34,-194.3488 369.4445,-204.7325 375.4605,-201.1537"/>
<text text-anchor="middle" x="422.6378" y="-215.8" font-family="Times,serif" font-size="14.00" fill="#000000">related to</text>
</g>
<!-- node property -->
<g id="node7" class="node">
<title>node property</title>
<ellipse fill="none" stroke="#000000" cx="432.4015" cy="-177" rx="27" ry="18"/>
</g>
<!-- case to thing association&#45;&gt;node property -->
<g id="edge6" class="edge">
<title>case to thing association&#45;&gt;node property</title>
<path fill="none" stroke="#000000" d="M637.1983,-258.3008C572.9474,-253.5751 494.2773,-244.3906 466.2599,-227 457.2692,-221.4194 450.1047,-212.4664 444.7239,-203.668"/>
<polygon fill="#000000" stroke="#000000" points="447.6662,-201.7563 439.7605,-194.7028 441.5421,-205.1468 447.6662,-201.7563"/>
<text text-anchor="middle" x="505.4723" y="-215.8" font-family="Times,serif" font-size="14.00" fill="#000000">node property</text>
</g>
<!-- iri -->
<g id="node8" class="node">
<title>iri</title>
<ellipse fill="none" stroke="#000000" cx="504.4015" cy="-177" rx="27" ry="18"/>
</g>
<!-- case to thing association&#45;&gt;iri -->
<g id="edge7" class="edge">
<title>case to thing association&#45;&gt;iri</title>
<path fill="none" stroke="#000000" d="M653.357,-252.1311C626.7863,-246.6717 597.3409,-238.6487 571.9601,-227 556.2284,-219.7798 540.57,-208.515 528.2949,-198.5043"/>
<polygon fill="#000000" stroke="#000000" points="530.282,-195.602 520.3779,-191.8392 525.7738,-200.9571 530.282,-195.602"/>
<text text-anchor="middle" x="578.6222" y="-215.8" font-family="Times,serif" font-size="14.00" fill="#000000">iri</text>
</g>
<!-- full name -->
<g id="node9" class="node">
<title>full name</title>
<ellipse fill="none" stroke="#000000" cx="576.4015" cy="-177" rx="27" ry="18"/>
</g>
<!-- case to thing association&#45;&gt;full name -->
<g id="edge8" class="edge">
<title>case to thing association&#45;&gt;full name</title>
<path fill="none" stroke="#000000" d="M663.1549,-250.0399C636.3061,-243.76 609.3487,-235.6983 599.1427,-227 592.2568,-221.1313 587.3513,-212.7452 583.9042,-204.5135"/>
<polygon fill="#000000" stroke="#000000" points="587.1861,-203.2969 580.4961,-195.0814 580.6027,-205.6757 587.1861,-203.2969"/>
<text text-anchor="middle" x="626.0309" y="-215.8" font-family="Times,serif" font-size="14.00" fill="#000000">full name</text>
</g>
<!-- description -->
<g id="node10" class="node">
<title>description</title>
<ellipse fill="none" stroke="#000000" cx="648.4015" cy="-177" rx="27" ry="18"/>
</g>
<!-- case to thing association&#45;&gt;description -->
<g id="edge9" class="edge">
<title>case to thing association&#45;&gt;description</title>
<path fill="none" stroke="#000000" d="M688.646,-246.6074C679.5902,-241.4574 670.7686,-234.9759 664.1945,-227 659.0414,-220.7481 655.5624,-212.8 653.2165,-205.0907"/>
<polygon fill="#000000" stroke="#000000" points="656.576,-204.0987 650.7396,-195.2564 649.788,-205.8084 656.576,-204.0987"/>
<text text-anchor="middle" x="695.505" y="-215.8" font-family="Times,serif" font-size="14.00" fill="#000000">description</text>
</g>
<!-- systematic synonym -->
<g id="node11" class="node">
<title>systematic synonym</title>
<ellipse fill="none" stroke="#000000" cx="730.4015" cy="-177" rx="27" ry="18"/>
</g>
<!-- case to thing association&#45;&gt;systematic synonym -->
<g id="edge10" class="edge">
<title>case to thing association&#45;&gt;systematic synonym</title>
<path fill="none" stroke="#000000" d="M730.4015,-244.7616C730.4015,-233.3597 730.4015,-218.4342 730.4015,-205.494"/>
<polygon fill="#000000" stroke="#000000" points="733.9016,-205.2121 730.4015,-195.2121 726.9016,-205.2121 733.9016,-205.2121"/>
<text text-anchor="middle" x="787.3688" y="-215.8" font-family="Times,serif" font-size="14.00" fill="#000000">systematic synonym</text>
</g>
<!-- association type -->
<g id="node12" class="node">
<title>association type</title>
<ellipse fill="none" stroke="#000000" cx="867.4015" cy="-177" rx="27" ry="18"/>
</g>
<!-- case to thing association&#45;&gt;association type -->
<g id="edge11" class="edge">
<title>case to thing association&#45;&gt;association type</title>
<path fill="none" stroke="#000000" d="M801.9408,-250.8714C817.6153,-245.5693 833.1619,-237.9498 845.4015,-227 852.0344,-221.0661 856.7607,-212.7637 860.0869,-204.6267"/>
<polygon fill="#000000" stroke="#000000" points="863.4727,-205.5485 863.4838,-194.9537 856.8681,-203.2291 863.4727,-205.5485"/>
<text text-anchor="middle" x="901.3068" y="-215.8" font-family="Times,serif" font-size="14.00" fill="#000000">association type</text>
</g>
<!-- negated -->
<g id="node13" class="node">
<title>negated</title>
<ellipse fill="none" stroke="#000000" cx="971.4015" cy="-177" rx="27" ry="18"/>
</g>
<!-- case to thing association&#45;&gt;negated -->
<g id="edge12" class="edge">
<title>case to thing association&#45;&gt;negated</title>
<path fill="none" stroke="#000000" d="M801.2612,-250.7085C812.6721,-248.7706 824.3594,-246.8105 835.4015,-245 886.4532,-236.6292 909.6666,-258.8906 950.4015,-227 957.5416,-221.4102 962.2816,-212.9492 965.4168,-204.5688"/>
<polygon fill="#000000" stroke="#000000" points="968.7822,-205.5328 968.4077,-194.9446 962.0976,-203.4554 968.7822,-205.5328"/>
<text text-anchor="middle" x="983.1671" y="-215.8" font-family="Times,serif" font-size="14.00" fill="#000000">negated</text>
</g>
<!-- relation -->
<g id="node14" class="node">
<title>relation</title>
<ellipse fill="none" stroke="#000000" cx="1168.4015" cy="-18" rx="27" ry="18"/>
</g>
<!-- case to thing association&#45;&gt;relation -->
<g id="edge13" class="edge">
<title>case to thing association&#45;&gt;relation</title>
<path fill="none" stroke="#000000" d="M799.771,-250.436C811.6369,-248.4796 823.8579,-246.5847 835.4015,-245 873.9133,-239.713 978.1545,-250.1243 1009.4015,-227 1048.1836,-198.2995 1024.0149,-166.5534 1051.6427,-127 1076.8951,-90.8475 1115.8285,-57.5498 1141.7019,-37.5105"/>
<polygon fill="#000000" stroke="#000000" points="1144.1027,-40.0815 1149.937,-31.2378 1139.8611,-34.5129 1144.1027,-40.0815"/>
<text text-anchor="middle" x="1073.7809" y="-129.8" font-family="Times,serif" font-size="14.00" fill="#000000">relation</text>
</g>
<!-- object -->
<g id="node15" class="node">
<title>object</title>
<ellipse fill="none" stroke="#000000" cx="1168.4015" cy="-91" rx="27" ry="18"/>
</g>
<!-- case to thing association&#45;&gt;object -->
<g id="edge14" class="edge">
<title>case to thing association&#45;&gt;object</title>
<path fill="none" stroke="#000000" d="M799.1791,-250.3242C811.2247,-248.3577 823.6586,-246.4884 835.4015,-245 883.625,-238.8876 1014.1981,-255.7395 1053.4015,-227 1079.733,-207.6967 1061.4809,-185.0257 1081.1945,-159 1096.9061,-138.2577 1120.4254,-120.4183 1139.081,-108.2221"/>
<polygon fill="#000000" stroke="#000000" points="1140.9592,-111.1756 1147.5283,-102.8631 1137.2092,-105.2647 1140.9592,-111.1756"/>
<text text-anchor="middle" x="1098.505" y="-172.8" font-family="Times,serif" font-size="14.00" fill="#000000">object</text>
</g>
<!-- qualifiers -->
<g id="node16" class="node">
<title>qualifiers</title>
<ellipse fill="none" stroke="#000000" cx="1151.4015" cy="-177" rx="27" ry="18"/>
</g>
<!-- case to thing association&#45;&gt;qualifiers -->
<g id="edge15" class="edge">
<title>case to thing association&#45;&gt;qualifiers</title>
<path fill="none" stroke="#000000" d="M798.8836,-250.2631C811.0185,-248.2913 823.559,-246.4362 835.4015,-245 890.9158,-238.2676 1034.1373,-246.8901 1086.4015,-227 1102.186,-220.993 1117.2988,-209.817 1128.9733,-199.5523"/>
<polygon fill="#000000" stroke="#000000" points="1131.4739,-202.0079 1136.4723,-192.6662 1126.7393,-196.8519 1131.4739,-202.0079"/>
<text text-anchor="middle" x="1138.4533" y="-215.8" font-family="Times,serif" font-size="14.00" fill="#000000">qualifiers</text>
</g>
<!-- publications -->
<g id="node17" class="node">
<title>publications</title>
<ellipse fill="none" stroke="#000000" cx="1223.4015" cy="-177" rx="27" ry="18"/>
</g>
<!-- case to thing association&#45;&gt;publications -->
<g id="edge16" class="edge">
<title>case to thing association&#45;&gt;publications</title>
<path fill="none" stroke="#000000" d="M798.2997,-250.1857C810.6117,-248.1973 823.3634,-246.3566 835.4015,-245 908.1614,-236.8006 1096.3727,-254.0798 1164.4015,-227 1172.5109,-223.7719 1187.6014,-210.926 1200.4903,-199.0641"/>
<polygon fill="#000000" stroke="#000000" points="1203.2367,-201.2877 1208.1488,-191.9004 1198.4548,-196.1756 1203.2367,-201.2877"/>
<text text-anchor="middle" x="1218.6188" y="-215.8" font-family="Times,serif" font-size="14.00" fill="#000000">publications</text>
</g>
<!-- provided by -->
<g id="node18" class="node">
<title>provided by</title>
<ellipse fill="none" stroke="#000000" cx="1295.4015" cy="-177" rx="27" ry="18"/>
</g>
<!-- case to thing association&#45;&gt;provided by -->
<g id="edge17" class="edge">
<title>case to thing association&#45;&gt;provided by</title>
<path fill="none" stroke="#000000" d="M798.0048,-250.1127C810.4053,-248.119 823.2637,-246.2952 835.4015,-245 881.8473,-240.0439 1213.745,-248.1309 1255.4015,-227 1266.028,-221.6095 1274.7683,-211.9675 1281.3389,-202.5792"/>
<polygon fill="#000000" stroke="#000000" points="1284.2895,-204.4619 1286.7551,-194.1579 1278.402,-200.6753 1284.2895,-204.4619"/>
<text text-anchor="middle" x="1307.0343" y="-215.8" font-family="Times,serif" font-size="14.00" fill="#000000">provided by</text>
</g>
<!-- association slot -->
<g id="node19" class="node">
<title>association slot</title>
<ellipse fill="none" stroke="#000000" cx="1367.4015" cy="-177" rx="27" ry="18"/>
</g>
<!-- case to thing association&#45;&gt;association slot -->
<g id="edge18" class="edge">
<title>case to thing association&#45;&gt;association slot</title>
<path fill="none" stroke="#000000" d="M797.7151,-250.0828C810.2034,-248.0789 823.1669,-246.2592 835.4015,-245 863.5483,-242.103 1320.8504,-242.6837 1344.4015,-227 1352.2599,-221.7667 1357.4785,-213.1241 1360.9244,-204.4838"/>
<polygon fill="#000000" stroke="#000000" points="1364.2732,-205.5049 1364.1078,-194.9114 1357.6309,-203.2959 1364.2732,-205.5049"/>
<text text-anchor="middle" x="1398.3688" y="-215.8" font-family="Times,serif" font-size="14.00" fill="#000000">association slot</text>
</g>
<!-- subject -->
<g id="node20" class="node">
<title>subject</title>
<ellipse fill="none" stroke="#000000" cx="1447.4015" cy="-177" rx="35.3129" ry="18"/>
<text text-anchor="middle" x="1447.4015" y="-172.8" font-family="Times,serif" font-size="14.00" fill="#000000">subject</text>
</g>
<!-- case to thing association&#45;&gt;subject -->
<g id="edge19" class="edge">
<title>case to thing association&#45;&gt;subject</title>
<path fill="none" stroke="#0000ff" d="M797.4276,-250.0691C810.003,-248.053 823.0713,-246.2327 835.4015,-245 869.137,-241.6275 1421.3027,-250.8476 1445.4015,-227 1451.1328,-221.3285 1452.9712,-213.1973 1452.9861,-205.1354"/>
<polygon fill="#0000ff" stroke="#0000ff" points="1456.4737,-204.8393 1452.1856,-195.1511 1449.4961,-205.3989 1456.4737,-204.8393"/>
<text text-anchor="middle" x="1471.2292" y="-215.8" font-family="Times,serif" font-size="14.00" fill="#000000">subject</text>
</g>
<!-- object&#45;&gt;relation -->
<g id="edge22" class="edge">
<title>object&#45;&gt;relation</title>
<path fill="none" stroke="#000000" stroke-dasharray="1,5" d="M1168.4015,-72.9551C1168.4015,-64.8828 1168.4015,-55.1764 1168.4015,-46.1817"/>
<polygon fill="#000000" stroke="#000000" points="1171.9016,-46.0903 1168.4015,-36.0904 1164.9016,-46.0904 1171.9016,-46.0903"/>
</g>
<!-- subject&#45;&gt;relation -->
<g id="edge21" class="edge">
<title>subject&#45;&gt;relation</title>
<path fill="none" stroke="#000000" stroke-dasharray="1,5" d="M1424.9317,-162.9473C1408.5392,-152.7817 1385.7281,-138.8135 1365.4015,-127 1306.987,-93.0505 1237.6439,-55.2538 1198.7612,-34.2825"/>
<polygon fill="#000000" stroke="#000000" points="1200.0213,-30.9859 1189.5573,-29.326 1196.7022,-37.149 1200.0213,-30.9859"/>
</g>
<!-- subject&#45;&gt;object -->
<g id="edge20" class="edge">
<title>subject&#45;&gt;object</title>
<path fill="none" stroke="#000000" d="M1420.673,-165.2257C1415.033,-162.9793 1409.0718,-160.7777 1403.4015,-159 1368.3121,-147.9989 1358.1192,-150.6807 1322.6427,-141 1280.4944,-129.4987 1232.76,-113.5653 1201.7045,-102.8012"/>
<polygon fill="#000000" stroke="#000000" points="1202.8307,-99.4873 1192.2359,-99.5002 1200.5263,-106.0971 1202.8307,-99.4873"/>
<text text-anchor="middle" x="1343.7809" y="-129.8" font-family="Times,serif" font-size="14.00" fill="#000000">relation</text>
</g>
<!-- case to thing association subject -->
<g id="node21" class="node">
<title>case to thing association subject</title>
<ellipse fill="none" stroke="#0000ff" cx="871.4015" cy="-263" rx="27" ry="18"/>
</g>
</g>
</svg>
