<?xml version="1.0" encoding="UTF-8" standalone="no"?>
<!DOCTYPE svg PUBLIC "-//W3C//DTD SVG 1.1//EN"
 "http://www.w3.org/Graphics/SVG/1.1/DTD/svg11.dtd">
<!-- Generated by graphviz version 2.44.0 (20200408.0750)
 -->
<!-- Pages: 1 -->
<svg width="2165pt" height="291pt"
 viewBox="0.00 0.00 2165.29 291.00" xmlns="http://www.w3.org/2000/svg" xmlns:xlink="http://www.w3.org/1999/xlink">
<g id="graph0" class="graph" transform="scale(1 1) rotate(0) translate(4 287)">
<polygon fill="white" stroke="transparent" points="-4,4 -4,-287 2161.29,-287 2161.29,4 -4,4"/>
<!-- case to phenotypic feature association -->
<g id="node1" class="node">
<title>case to phenotypic feature association</title>
<ellipse fill="none" stroke="black" cx="1111.05" cy="-265" rx="144.87" ry="18"/>
<text text-anchor="middle" x="1111.05" y="-261.3" font-family="Times,serif" font-size="14.00">case to phenotypic feature association</text>
</g>
<!-- association -->
<g id="node2" class="node">
<title>association</title>
<ellipse fill="none" stroke="black" cx="50.05" cy="-178" rx="50.09" ry="18"/>
<text text-anchor="middle" x="50.05" y="-174.3" font-family="Times,serif" font-size="14.00">association</text>
</g>
<!-- case to phenotypic feature association&#45;&gt;association -->
<g id="edge1" class="edge">
<title>case to phenotypic feature association&#45;&gt;association</title>
<path fill="none" stroke="black" d="M974.08,-259.06C836.27,-253.59 617.73,-243.59 429.05,-229 286.94,-218.01 250.03,-222.86 110.05,-196 105.62,-195.15 101.05,-194.13 96.49,-193.01"/>
<polygon fill="black" stroke="black" points="97.17,-189.57 86.61,-190.45 95.41,-196.35 97.17,-189.57"/>
<text text-anchor="middle" x="440.05" y="-217.8" font-family="Times,serif" font-size="14.00">is_a</text>
</g>
<!-- entity to phenotypic feature association -->
<g id="node3" class="node">
<title>entity to phenotypic feature association</title>
<ellipse fill="none" stroke="black" cx="268.05" cy="-178" rx="149.47" ry="18"/>
<text text-anchor="middle" x="268.05" y="-174.3" font-family="Times,serif" font-size="14.00">entity to phenotypic feature association</text>
</g>
<!-- case to phenotypic feature association&#45;&gt;entity to phenotypic feature association -->
<g id="edge2" class="edge">
<title>case to phenotypic feature association&#45;&gt;entity to phenotypic feature association</title>
<path fill="none" stroke="black" d="M973.15,-259.35C861.26,-254.59 699.6,-245.48 559.05,-229 488.42,-220.72 408.88,-206.73 350.84,-195.65"/>
<polygon fill="black" stroke="black" points="351.46,-192.21 340.98,-193.76 350.14,-199.08 351.46,-192.21"/>
<text text-anchor="middle" x="571.05" y="-217.8" font-family="Times,serif" font-size="14.00">uses</text>
</g>
<!-- case to thing association -->
<g id="node4" class="node">
<title>case to thing association</title>
<ellipse fill="none" stroke="black" cx="532.05" cy="-178" rx="96.68" ry="18"/>
<text text-anchor="middle" x="532.05" y="-174.3" font-family="Times,serif" font-size="14.00">case to thing association</text>
</g>
<!-- case to phenotypic feature association&#45;&gt;case to thing association -->
<g id="edge3" class="edge">
<title>case to phenotypic feature association&#45;&gt;case to thing association</title>
<path fill="none" stroke="black" d="M969.59,-260.95C847.88,-257.04 682.21,-248.28 619.05,-229 599.08,-222.91 578.75,-211.56 562.76,-201.22"/>
<polygon fill="black" stroke="black" points="564.62,-198.25 554.36,-195.62 560.74,-204.08 564.62,-198.25"/>
<text text-anchor="middle" x="631.05" y="-217.8" font-family="Times,serif" font-size="14.00">uses</text>
</g>
<!-- subject -->
<g id="node5" class="node">
<title>subject</title>
<ellipse fill="none" stroke="blue" cx="740.05" cy="-178" rx="55.49" ry="18"/>
<text text-anchor="middle" x="740.05" y="-174.3" font-family="Times,serif" font-size="14.00">named thing</text>
</g>
<!-- case to phenotypic feature association&#45;&gt;subject -->
<g id="edge4" class="edge">
<title>case to phenotypic feature association&#45;&gt;subject</title>
<path fill="none" stroke="blue" d="M971.06,-260.31C895.34,-256.17 810.78,-247.43 778.05,-229 767.97,-223.32 759.71,-213.77 753.51,-204.52"/>
<polygon fill="blue" stroke="blue" points="756.41,-202.56 748.19,-195.88 750.45,-206.23 756.41,-202.56"/>
<text text-anchor="middle" x="797.55" y="-217.8" font-family="Times,serif" font-size="14.00">subject</text>
</g>
<!-- relation -->
<g id="node6" class="node">
<title>relation</title>
<ellipse fill="none" stroke="blue" cx="727.05" cy="-18" rx="45.49" ry="18"/>
<text text-anchor="middle" x="727.05" y="-14.3" font-family="Times,serif" font-size="14.00">uriorcurie</text>
</g>
<!-- case to phenotypic feature association&#45;&gt;relation -->
<g id="edge5" class="edge">
<title>case to phenotypic feature association&#45;&gt;relation</title>
<path fill="none" stroke="blue" d="M966.71,-263.16C852.93,-258.79 708.24,-243.66 676.05,-196 643.78,-148.24 682.22,-80 707.81,-43.79"/>
<polygon fill="blue" stroke="blue" points="710.93,-45.45 713.98,-35.3 705.27,-41.33 710.93,-45.45"/>
<text text-anchor="middle" x="688.05" y="-130.8" font-family="Times,serif" font-size="14.00">relation</text>
</g>
<!-- object -->
<g id="node7" class="node">
<title>object</title>
<ellipse fill="none" stroke="blue" cx="810.05" cy="-91" rx="55.49" ry="18"/>
<text text-anchor="middle" x="810.05" y="-87.3" font-family="Times,serif" font-size="14.00">named thing</text>
</g>
<!-- case to phenotypic feature association&#45;&gt;object -->
<g id="edge6" class="edge">
<title>case to phenotypic feature association&#45;&gt;object</title>
<path fill="none" stroke="blue" d="M1019.44,-250.98C951.24,-239.51 865.69,-220.77 840.05,-196 834.42,-190.57 823.41,-148.18 816.41,-119.23"/>
<polygon fill="blue" stroke="blue" points="819.76,-118.18 814.03,-109.26 812.95,-119.8 819.76,-118.18"/>
<text text-anchor="middle" x="857.05" y="-174.3" font-family="Times,serif" font-size="14.00">object</text>
</g>
<!-- id -->
<g id="node8" class="node">
<title>id</title>
<ellipse fill="none" stroke="black" cx="910.05" cy="-178" rx="27" ry="18"/>
<text text-anchor="middle" x="910.05" y="-174.3" font-family="Times,serif" font-size="14.00">id</text>
</g>
<!-- case to phenotypic feature association&#45;&gt;id -->
<g id="edge7" class="edge">
<title>case to phenotypic feature association&#45;&gt;id</title>
<path fill="none" stroke="blue" d="M1069.78,-247.66C1036.25,-234.23 987.85,-214.47 946.05,-196 944.24,-195.2 942.4,-194.37 940.54,-193.53"/>
<polygon fill="blue" stroke="blue" points="941.83,-190.27 931.28,-189.25 938.89,-196.62 941.83,-190.27"/>
<text text-anchor="middle" x="1028.55" y="-217.8" font-family="Times,serif" font-size="14.00">id</text>
</g>
<!-- negated -->
<g id="node10" class="node">
<title>negated</title>
<ellipse fill="none" stroke="blue" cx="993.05" cy="-178" rx="38.19" ry="18"/>
<text text-anchor="middle" x="993.05" y="-174.3" font-family="Times,serif" font-size="14.00">boolean</text>
</g>
<!-- case to phenotypic feature association&#45;&gt;negated -->
<g id="edge8" class="edge">
<title>case to phenotypic feature association&#45;&gt;negated</title>
<path fill="none" stroke="blue" d="M1087.73,-247.21C1068.69,-233.49 1041.71,-214.05 1021.41,-199.43"/>
<polygon fill="blue" stroke="blue" points="1023.33,-196.5 1013.17,-193.49 1019.24,-202.18 1023.33,-196.5"/>
<text text-anchor="middle" x="1081.55" y="-217.8" font-family="Times,serif" font-size="14.00">negated</text>
</g>
<!-- association type -->
<g id="node11" class="node">
<title>association type</title>
<ellipse fill="none" stroke="blue" cx="1111.05" cy="-178" rx="61.99" ry="18"/>
<text text-anchor="middle" x="1111.05" y="-174.3" font-family="Times,serif" font-size="14.00">ontology class</text>
</g>
<!-- case to phenotypic feature association&#45;&gt;association type -->
<g id="edge9" class="edge">
<title>case to phenotypic feature association&#45;&gt;association type</title>
<path fill="none" stroke="blue" d="M1111.05,-246.8C1111.05,-235.16 1111.05,-219.55 1111.05,-206.24"/>
<polygon fill="blue" stroke="blue" points="1114.55,-206.18 1111.05,-196.18 1107.55,-206.18 1114.55,-206.18"/>
<text text-anchor="middle" x="1155.05" y="-217.8" font-family="Times,serif" font-size="14.00">association type</text>
</g>
<!-- qualifiers -->
<g id="node12" class="node">
<title>qualifiers</title>
<ellipse fill="none" stroke="blue" cx="1252.05" cy="-178" rx="61.99" ry="18"/>
<text text-anchor="middle" x="1252.05" y="-174.3" font-family="Times,serif" font-size="14.00">ontology class</text>
</g>
<!-- case to phenotypic feature association&#45;&gt;qualifiers -->
<g id="edge10" class="edge">
<title>case to phenotypic feature association&#45;&gt;qualifiers</title>
<path fill="none" stroke="blue" d="M1164.52,-248.11C1177.67,-243.02 1191.32,-236.67 1203.05,-229 1213.74,-222 1223.92,-212.31 1232.2,-203.32"/>
<polygon fill="blue" stroke="blue" points="1234.95,-205.5 1238.96,-195.69 1229.71,-200.86 1234.95,-205.5"/>
<text text-anchor="middle" x="1246.55" y="-217.8" font-family="Times,serif" font-size="14.00">qualifiers</text>
</g>
<!-- publications -->
<g id="node13" class="node">
<title>publications</title>
<ellipse fill="none" stroke="blue" cx="1382.05" cy="-178" rx="50.09" ry="18"/>
<text text-anchor="middle" x="1382.05" y="-174.3" font-family="Times,serif" font-size="14.00">publication</text>
</g>
<!-- case to phenotypic feature association&#45;&gt;publications -->
<g id="edge11" class="edge">
<title>case to phenotypic feature association&#45;&gt;publications</title>
<path fill="none" stroke="blue" d="M1194.3,-250.25C1220.78,-244.84 1249.96,-237.79 1276.05,-229 1300.35,-220.81 1326.42,-208.57 1346.62,-198.25"/>
<polygon fill="blue" stroke="blue" points="1348.48,-201.22 1355.75,-193.51 1345.26,-195.01 1348.48,-201.22"/>
<text text-anchor="middle" x="1345.55" y="-217.8" font-family="Times,serif" font-size="14.00">publications</text>
</g>
<!-- provided by -->
<g id="node14" class="node">
<title>provided by</title>
<ellipse fill="none" stroke="blue" cx="1490.05" cy="-178" rx="40.09" ry="18"/>
<text text-anchor="middle" x="1490.05" y="-174.3" font-family="Times,serif" font-size="14.00">provider</text>
</g>
<!-- case to phenotypic feature association&#45;&gt;provided by -->
<g id="edge12" class="edge">
<title>case to phenotypic feature association&#45;&gt;provided by</title>
<path fill="none" stroke="blue" d="M1214.06,-252.29C1284.03,-244.07 1366.73,-233.74 1383.05,-229 1409,-221.46 1436.6,-208.43 1457.26,-197.56"/>
<polygon fill="blue" stroke="blue" points="1459.08,-200.56 1466.24,-192.75 1455.77,-194.39 1459.08,-200.56"/>
<text text-anchor="middle" x="1456.05" y="-217.8" font-family="Times,serif" font-size="14.00">provided by</text>
</g>
<!-- sex qualifier -->
<g id="node15" class="node">
<title>sex qualifier</title>
<ellipse fill="none" stroke="blue" cx="1608.05" cy="-178" rx="59.59" ry="18"/>
<text text-anchor="middle" x="1608.05" y="-174.3" font-family="Times,serif" font-size="14.00">biological sex</text>
</g>
<!-- case to phenotypic feature association&#45;&gt;sex qualifier -->
<g id="edge13" class="edge">
<title>case to phenotypic feature association&#45;&gt;sex qualifier</title>
<path fill="none" stroke="blue" d="M1213.05,-252.2C1230.07,-250.37 1247.55,-248.56 1264.05,-247 1365.68,-237.36 1393.98,-253.69 1493.05,-229 1520.4,-222.18 1549.51,-209.47 1571.6,-198.57"/>
<polygon fill="blue" stroke="blue" points="1573.25,-201.65 1580.61,-194.03 1570.1,-195.4 1573.25,-201.65"/>
<text text-anchor="middle" x="1569.55" y="-217.8" font-family="Times,serif" font-size="14.00">sex qualifier</text>
</g>
<!-- description -->
<g id="node16" class="node">
<title>description</title>
<ellipse fill="none" stroke="black" cx="1736.05" cy="-178" rx="50.09" ry="18"/>
<text text-anchor="middle" x="1736.05" y="-174.3" font-family="Times,serif" font-size="14.00">description</text>
</g>
<!-- case to phenotypic feature association&#45;&gt;description -->
<g id="edge14" class="edge">
<title>case to phenotypic feature association&#45;&gt;description</title>
<path fill="none" stroke="blue" d="M1211.37,-252.01C1228.91,-250.15 1247,-248.39 1264.05,-247 1416.19,-234.57 1457.78,-260.99 1607.05,-229 1639.01,-222.15 1673.45,-208.45 1698.7,-197.12"/>
<polygon fill="blue" stroke="blue" points="1700.26,-200.25 1707.9,-192.91 1697.35,-193.89 1700.26,-200.25"/>
<text text-anchor="middle" x="1685.55" y="-217.8" font-family="Times,serif" font-size="14.00">description</text>
</g>
<!-- frequency qualifier -->
<g id="node18" class="node">
<title>frequency qualifier</title>
<ellipse fill="none" stroke="blue" cx="1872.05" cy="-178" rx="67.69" ry="18"/>
<text text-anchor="middle" x="1872.05" y="-174.3" font-family="Times,serif" font-size="14.00">frequency value</text>
</g>
<!-- case to phenotypic feature association&#45;&gt;frequency qualifier -->
<g id="edge15" class="edge">
<title>case to phenotypic feature association&#45;&gt;frequency qualifier</title>
<path fill="none" stroke="blue" d="M1210.53,-251.91C1228.33,-250.04 1246.72,-248.3 1264.05,-247 1466.3,-231.79 1520.45,-265.04 1720.05,-229 1757.13,-222.3 1797.6,-208.66 1827.45,-197.32"/>
<polygon fill="blue" stroke="blue" points="1829.08,-200.44 1837.14,-193.57 1826.55,-193.91 1829.08,-200.44"/>
<text text-anchor="middle" x="1827.55" y="-217.8" font-family="Times,serif" font-size="14.00">frequency qualifier</text>
</g>
<!-- severity qualifier -->
<g id="node19" class="node">
<title>severity qualifier</title>
<ellipse fill="none" stroke="blue" cx="2017.05" cy="-178" rx="59.59" ry="18"/>
<text text-anchor="middle" x="2017.05" y="-174.3" font-family="Times,serif" font-size="14.00">severity value</text>
</g>
<!-- case to phenotypic feature association&#45;&gt;severity qualifier -->
<g id="edge16" class="edge">
<title>case to phenotypic feature association&#45;&gt;severity qualifier</title>
<path fill="none" stroke="blue" d="M1210.11,-251.8C1228.04,-249.93 1246.58,-248.22 1264.05,-247 1401.32,-237.39 1747.99,-255.41 1883.05,-229 1915.93,-222.57 1951.37,-209.03 1977.54,-197.66"/>
<polygon fill="blue" stroke="blue" points="1979.02,-200.83 1986.74,-193.58 1976.18,-194.43 1979.02,-200.83"/>
<text text-anchor="middle" x="1982.05" y="-217.8" font-family="Times,serif" font-size="14.00">severity qualifier</text>
</g>
<!-- onset qualifier -->
<g id="node20" class="node">
<title>onset qualifier</title>
<ellipse fill="none" stroke="blue" cx="2128.05" cy="-178" rx="29.5" ry="18"/>
<text text-anchor="middle" x="2128.05" y="-174.3" font-family="Times,serif" font-size="14.00">onset</text>
</g>
<!-- case to phenotypic feature association&#45;&gt;onset qualifier -->
<g id="edge17" class="edge">
<title>case to phenotypic feature association&#45;&gt;onset qualifier</title>
<path fill="none" stroke="blue" d="M1209.7,-251.76C1227.75,-249.88 1246.45,-248.18 1264.05,-247 1349.21,-241.28 1949.38,-250.27 2032.05,-229 2056.76,-222.64 2082.26,-208.96 2100.77,-197.52"/>
<polygon fill="blue" stroke="blue" points="2102.69,-200.44 2109.25,-192.12 2098.94,-194.53 2102.69,-200.44"/>
<text text-anchor="middle" x="2109.05" y="-217.8" font-family="Times,serif" font-size="14.00">onset qualifier</text>
</g>
<!-- subject&#45;&gt;relation -->
<g id="edge19" class="edge">
<title>subject&#45;&gt;relation</title>
<path fill="none" stroke="black" stroke-dasharray="1,5" d="M738.63,-159.79C736.38,-132.48 731.98,-78.99 729.3,-46.38"/>
<polygon fill="black" stroke="black" points="732.77,-45.87 728.46,-36.19 725.79,-46.44 732.77,-45.87"/>
</g>
<!-- subject&#45;&gt;object -->
<g id="edge18" class="edge">
<title>subject&#45;&gt;object</title>
<path fill="none" stroke="black" d="M750.7,-160.26C757.3,-150.28 766.19,-137.55 775.05,-127 778.26,-123.17 781.82,-119.27 785.4,-115.54"/>
<polygon fill="black" stroke="black" points="788.15,-117.74 792.69,-108.17 783.17,-112.82 788.15,-117.74"/>
<text text-anchor="middle" x="796.05" y="-130.8" font-family="Times,serif" font-size="14.00">relation</text>
</g>
<!-- object&#45;&gt;relation -->
<g id="edge20" class="edge">
<title>object&#45;&gt;relation</title>
<path fill="none" stroke="black" stroke-dasharray="1,5" d="M791.21,-73.89C779.91,-64.22 765.38,-51.79 753,-41.2"/>
<polygon fill="black" stroke="black" points="755.11,-38.4 745.23,-34.56 750.56,-43.72 755.11,-38.4"/>
</g>
<!-- association_id -->
<g id="node9" class="node">
<title>association_id</title>
<ellipse fill="none" stroke="blue" cx="1304.05" cy="-265" rx="30.59" ry="18"/>
<text text-anchor="middle" x="1304.05" y="-261.3" font-family="Times,serif" font-size="14.00">string</text>
</g>
<!-- entity to phenotypic feature association_description -->
<g id="node17" class="node">
<title>entity to phenotypic feature association_description</title>
<ellipse fill="none" stroke="blue" cx="1410.05" cy="-265" rx="57.69" ry="18"/>
<text text-anchor="middle" x="1410.05" y="-261.3" font-family="Times,serif" font-size="14.00">narrative text</text>
</g>
</g>
</svg>
