<?xml version="1.0" encoding="UTF-8" standalone="no"?>
<!DOCTYPE svg PUBLIC "-//W3C//DTD SVG 1.1//EN"
 "http://www.w3.org/Graphics/SVG/1.1/DTD/svg11.dtd">
<!-- Generated by graphviz version 2.40.1 (20161225.0304)
 -->
<!-- Title: %3 Pages: 1 -->
<svg width="2838pt" height="291pt"
 viewBox="0.00 0.00 2837.84 291.00" xmlns="http://www.w3.org/2000/svg" xmlns:xlink="http://www.w3.org/1999/xlink">
<g id="graph0" class="graph" transform="scale(1 1) rotate(0) translate(4 287)">
<title>%3</title>
<polygon fill="#ffffff" stroke="transparent" points="-4,4 -4,-287 2833.8403,-287 2833.8403,4 -4,4"/>
<!-- case to phenotypic feature association -->
<g id="node1" class="node">
<title>case to phenotypic feature association</title>
<ellipse fill="none" stroke="#000000" cx="1631.0456" cy="-265" rx="144.8743" ry="18"/>
<text text-anchor="middle" x="1631.0456" y="-261.3" font-family="Times,serif" font-size="14.00" fill="#000000">case to phenotypic feature association</text>
</g>
<!-- association -->
<g id="node2" class="node">
<title>association</title>
<ellipse fill="none" stroke="#000000" cx="50.0456" cy="-178" rx="50.0912" ry="18"/>
<text text-anchor="middle" x="50.0456" y="-174.3" font-family="Times,serif" font-size="14.00" fill="#000000">association</text>
</g>
<!-- case to phenotypic feature association&#45;&gt;association -->
<g id="edge1" class="edge">
<title>case to phenotypic feature association&#45;&gt;association</title>
<path fill="none" stroke="#000000" d="M1487.7515,-261.9653C1282.3983,-257.2102 892.5834,-246.673 561.0456,-229 359.9076,-218.2781 307.0507,-232.9516 109.0456,-196 104.9004,-195.2264 100.6346,-194.265 96.3833,-193.1918"/>
<polygon fill="#000000" stroke="#000000" points="97.1215,-189.7655 86.5536,-190.5206 95.2858,-196.5206 97.1215,-189.7655"/>
<text text-anchor="middle" x="572.0456" y="-217.8" font-family="Times,serif" font-size="14.00" fill="#000000">is_a</text>
</g>
<!-- entity to phenotypic feature association mixin -->
<g id="node3" class="node">
<title>entity to phenotypic feature association mixin</title>
<ellipse fill="none" stroke="#000000" cx="291.0456" cy="-178" rx="172.7694" ry="18"/>
<text text-anchor="middle" x="291.0456" y="-174.3" font-family="Times,serif" font-size="14.00" fill="#000000">entity to phenotypic feature association mixin</text>
</g>
<!-- case to phenotypic feature association&#45;&gt;entity to phenotypic feature association mixin -->
<g id="edge2" class="edge">
<title>case to phenotypic feature association&#45;&gt;entity to phenotypic feature association mixin</title>
<path fill="none" stroke="#000000" d="M1487.2159,-262.5673C1309.5484,-258.7959 998.152,-249.6858 732.0456,-229 621.0614,-220.3726 494.9337,-205.2463 406.078,-193.7005"/>
<polygon fill="#000000" stroke="#000000" points="406.3425,-190.2054 395.9737,-192.3821 405.4368,-197.1466 406.3425,-190.2054"/>
<text text-anchor="middle" x="744.0456" y="-217.8" font-family="Times,serif" font-size="14.00" fill="#000000">uses</text>
</g>
<!-- case to entity association mixin -->
<g id="node4" class="node">
<title>case to entity association mixin</title>
<ellipse fill="none" stroke="#000000" cx="604.0456" cy="-178" rx="122.3786" ry="18"/>
<text text-anchor="middle" x="604.0456" y="-174.3" font-family="Times,serif" font-size="14.00" fill="#000000">case to entity association mixin</text>
</g>
<!-- case to phenotypic feature association&#45;&gt;case to entity association mixin -->
<g id="edge3" class="edge">
<title>case to phenotypic feature association&#45;&gt;case to entity association mixin</title>
<path fill="none" stroke="#000000" d="M1488.94,-261.2204C1297.5215,-255.6545 967.007,-244.242 847.0456,-229 788.5582,-221.5688 723.2048,-207.5207 675.0165,-196.0472"/>
<polygon fill="#000000" stroke="#000000" points="675.5438,-192.5743 665.0028,-193.6413 673.9084,-199.3807 675.5438,-192.5743"/>
<text text-anchor="middle" x="859.0456" y="-217.8" font-family="Times,serif" font-size="14.00" fill="#000000">uses</text>
</g>
<!-- id -->
<g id="node5" class="node">
<title>id</title>
<ellipse fill="none" stroke="#0000ff" cx="775.0456" cy="-178" rx="30.5947" ry="18"/>
<text text-anchor="middle" x="775.0456" y="-174.3" font-family="Times,serif" font-size="14.00" fill="#000000">string</text>
</g>
<!-- case to phenotypic feature association&#45;&gt;id -->
<g id="edge4" class="edge">
<title>case to phenotypic feature association&#45;&gt;id</title>
<path fill="none" stroke="#0000ff" d="M1490.5892,-260.4698C1323.5034,-254.5621 1054.6606,-243.2764 955.0456,-229 891.7647,-219.9309 875.582,-216.5441 815.0456,-196 812.7943,-195.236 810.4973,-194.3906 808.1991,-193.4952"/>
<polygon fill="#0000ff" stroke="#0000ff" points="809.4369,-190.2194 798.8595,-189.6115 806.7492,-196.6828 809.4369,-190.2194"/>
<text text-anchor="middle" x="960.5456" y="-217.8" font-family="Times,serif" font-size="14.00" fill="#000000">id</text>
</g>
<!-- iri -->
<g id="node6" class="node">
<title>iri</title>
<ellipse fill="none" stroke="#0000ff" cx="860.0456" cy="-178" rx="36.2938" ry="18"/>
<text text-anchor="middle" x="860.0456" y="-174.3" font-family="Times,serif" font-size="14.00" fill="#000000">iri type</text>
</g>
<!-- case to phenotypic feature association&#45;&gt;iri -->
<g id="edge5" class="edge">
<title>case to phenotypic feature association&#45;&gt;iri</title>
<path fill="none" stroke="#0000ff" d="M1493.7094,-259.1245C1349.2498,-252.4754 1131.6338,-240.9999 1049.0456,-229 984.4974,-219.6213 968.3603,-215.2689 906.0456,-196 903.2804,-195.145 900.4449,-194.2025 897.6055,-193.2106"/>
<polygon fill="#0000ff" stroke="#0000ff" points="898.6278,-189.8576 888.0341,-189.7025 896.2188,-196.4301 898.6278,-189.8576"/>
<text text-anchor="middle" x="1055.5456" y="-217.8" font-family="Times,serif" font-size="14.00" fill="#000000">iri</text>
</g>
<!-- name -->
<g id="node7" class="node">
<title>name</title>
<ellipse fill="none" stroke="#0000ff" cx="960.0456" cy="-178" rx="45.4919" ry="18"/>
<text text-anchor="middle" x="960.0456" y="-174.3" font-family="Times,serif" font-size="14.00" fill="#000000">label type</text>
</g>
<!-- case to phenotypic feature association&#45;&gt;name -->
<g id="edge6" class="edge">
<title>case to phenotypic feature association&#45;&gt;name</title>
<path fill="none" stroke="#0000ff" d="M1495.1582,-258.6731C1369.9193,-252.2327 1193.442,-241.4461 1125.0456,-229 1082.4063,-221.2409 1035.3141,-205.9844 1002.3915,-194.1709"/>
<polygon fill="#0000ff" stroke="#0000ff" points="1003.2437,-190.7565 992.6496,-190.6272 1000.8507,-197.3349 1003.2437,-190.7565"/>
<text text-anchor="middle" x="1140.5456" y="-217.8" font-family="Times,serif" font-size="14.00" fill="#000000">name</text>
</g>
<!-- description -->
<g id="node8" class="node">
<title>description</title>
<ellipse fill="none" stroke="#0000ff" cx="1081.0456" cy="-178" rx="57.6901" ry="18"/>
<text text-anchor="middle" x="1081.0456" y="-174.3" font-family="Times,serif" font-size="14.00" fill="#000000">narrative text</text>
</g>
<!-- case to phenotypic feature association&#45;&gt;description -->
<g id="edge7" class="edge">
<title>case to phenotypic feature association&#45;&gt;description</title>
<path fill="none" stroke="#0000ff" d="M1496.8525,-258.1237C1393.1508,-251.975 1258.5665,-241.9418 1205.0456,-229 1175.6838,-221.9001 1144.2256,-208.8927 1120.3418,-197.7917"/>
<polygon fill="#0000ff" stroke="#0000ff" points="1121.7896,-194.6047 1111.2535,-193.49 1118.7948,-200.9318 1121.7896,-194.6047"/>
<text text-anchor="middle" x="1235.5456" y="-217.8" font-family="Times,serif" font-size="14.00" fill="#000000">description</text>
</g>
<!-- source -->
<g id="node9" class="node">
<title>source</title>
<ellipse fill="none" stroke="#0000ff" cx="1202.0456" cy="-178" rx="45.4919" ry="18"/>
<text text-anchor="middle" x="1202.0456" y="-174.3" font-family="Times,serif" font-size="14.00" fill="#000000">label type</text>
</g>
<!-- case to phenotypic feature association&#45;&gt;source -->
<g id="edge8" class="edge">
<title>case to phenotypic feature association&#45;&gt;source</title>
<path fill="none" stroke="#0000ff" d="M1507.7096,-255.4602C1433.1054,-248.8636 1345.5566,-239.4223 1309.0456,-229 1283.6487,-221.7503 1256.823,-208.9512 1236.3846,-197.9892"/>
<polygon fill="#0000ff" stroke="#0000ff" points="1237.9236,-194.8416 1227.4714,-193.1084 1234.5614,-200.9813 1237.9236,-194.8416"/>
<text text-anchor="middle" x="1327.0456" y="-217.8" font-family="Times,serif" font-size="14.00" fill="#000000">source</text>
</g>
<!-- provided by -->
<g id="node10" class="node">
<title>provided by</title>
<ellipse fill="none" stroke="#0000ff" cx="1295.0456" cy="-178" rx="29.795" ry="18"/>
<text text-anchor="middle" x="1295.0456" y="-174.3" font-family="Times,serif" font-size="14.00" fill="#000000">agent</text>
</g>
<!-- case to phenotypic feature association&#45;&gt;provided by -->
<g id="edge9" class="edge">
<title>case to phenotypic feature association&#45;&gt;provided by</title>
<path fill="none" stroke="#0000ff" d="M1520.308,-253.3307C1465.9006,-246.7384 1406.6326,-238.0265 1381.0456,-229 1360.0513,-221.5938 1338.5083,-208.8084 1322.2354,-197.8923"/>
<polygon fill="#0000ff" stroke="#0000ff" points="1323.9953,-194.8547 1313.774,-192.0661 1320.0254,-200.6201 1323.9953,-194.8547"/>
<text text-anchor="middle" x="1414.0456" y="-217.8" font-family="Times,serif" font-size="14.00" fill="#000000">provided by</text>
</g>
<!-- has attribute -->
<g id="node11" class="node">
<title>has attribute</title>
<ellipse fill="none" stroke="#0000ff" cx="1383.0456" cy="-178" rx="40.0939" ry="18"/>
<text text-anchor="middle" x="1383.0456" y="-174.3" font-family="Times,serif" font-size="14.00" fill="#000000">attribute</text>
</g>
<!-- case to phenotypic feature association&#45;&gt;has attribute -->
<g id="edge10" class="edge">
<title>case to phenotypic feature association&#45;&gt;has attribute</title>
<path fill="none" stroke="#0000ff" d="M1555.0595,-249.64C1532.2328,-244.1274 1507.34,-237.2064 1485.0456,-229 1461.4674,-220.3211 1436.2007,-207.7144 1416.7133,-197.2067"/>
<polygon fill="#0000ff" stroke="#0000ff" points="1418.3721,-194.1247 1407.9192,-192.3962 1415.0127,-200.2659 1418.3721,-194.1247"/>
<text text-anchor="middle" x="1518.5456" y="-217.8" font-family="Times,serif" font-size="14.00" fill="#000000">has attribute</text>
</g>
<!-- subject -->
<g id="node12" class="node">
<title>subject</title>
<ellipse fill="none" stroke="#0000ff" cx="1497.0456" cy="-178" rx="55.4913" ry="18"/>
<text text-anchor="middle" x="1497.0456" y="-174.3" font-family="Times,serif" font-size="14.00" fill="#000000">named thing</text>
</g>
<!-- case to phenotypic feature association&#45;&gt;subject -->
<g id="edge11" class="edge">
<title>case to phenotypic feature association&#45;&gt;subject</title>
<path fill="none" stroke="#0000ff" d="M1603.6053,-247.1843C1582.5153,-233.4915 1553.2776,-214.5089 1530.7622,-199.8907"/>
<polygon fill="#0000ff" stroke="#0000ff" points="1532.4793,-196.8325 1522.186,-194.3225 1528.6674,-202.7036 1532.4793,-196.8325"/>
<text text-anchor="middle" x="1592.5456" y="-217.8" font-family="Times,serif" font-size="14.00" fill="#000000">subject</text>
</g>
<!-- predicate -->
<g id="node13" class="node">
<title>predicate</title>
<ellipse fill="none" stroke="#0000ff" cx="1631.0456" cy="-178" rx="60.3893" ry="18"/>
<text text-anchor="middle" x="1631.0456" y="-174.3" font-family="Times,serif" font-size="14.00" fill="#000000">predicate type</text>
</g>
<!-- case to phenotypic feature association&#45;&gt;predicate -->
<g id="edge12" class="edge">
<title>case to phenotypic feature association&#45;&gt;predicate</title>
<path fill="none" stroke="#0000ff" d="M1631.0456,-246.9735C1631.0456,-235.1918 1631.0456,-219.5607 1631.0456,-206.1581"/>
<polygon fill="#0000ff" stroke="#0000ff" points="1634.5457,-206.0033 1631.0456,-196.0034 1627.5457,-206.0034 1634.5457,-206.0033"/>
<text text-anchor="middle" x="1656.0456" y="-217.8" font-family="Times,serif" font-size="14.00" fill="#000000">predicate</text>
</g>
<!-- object -->
<g id="node14" class="node">
<title>object</title>
<ellipse fill="none" stroke="#0000ff" cx="1675.0456" cy="-91" rx="55.4913" ry="18"/>
<text text-anchor="middle" x="1675.0456" y="-87.3" font-family="Times,serif" font-size="14.00" fill="#000000">named thing</text>
</g>
<!-- case to phenotypic feature association&#45;&gt;object -->
<g id="edge13" class="edge">
<title>case to phenotypic feature association&#45;&gt;object</title>
<path fill="none" stroke="#0000ff" d="M1663.9598,-247.2784C1671.5562,-242.1096 1679.1333,-235.9526 1685.0456,-229 1695.4823,-216.7269 1696.6349,-211.7456 1700.0456,-196 1705.7989,-169.4389 1697.0095,-139.2729 1688.3086,-118.1113"/>
<polygon fill="#0000ff" stroke="#0000ff" points="1691.4464,-116.5508 1684.2394,-108.7849 1685.0305,-119.3501 1691.4464,-116.5508"/>
<text text-anchor="middle" x="1719.0456" y="-174.3" font-family="Times,serif" font-size="14.00" fill="#000000">object</text>
</g>
<!-- relation -->
<g id="node15" class="node">
<title>relation</title>
<ellipse fill="none" stroke="#0000ff" cx="1675.0456" cy="-18" rx="45.4919" ry="18"/>
<text text-anchor="middle" x="1675.0456" y="-14.3" font-family="Times,serif" font-size="14.00" fill="#000000">uriorcurie</text>
</g>
<!-- case to phenotypic feature association&#45;&gt;relation -->
<g id="edge14" class="edge">
<title>case to phenotypic feature association&#45;&gt;relation</title>
<path fill="none" stroke="#0000ff" d="M1681.4856,-248.0988C1704.5971,-237.2994 1729.2237,-220.6007 1740.0456,-196 1747.6045,-178.8168 1755.7969,-108.9368 1739.0456,-73 1732.7201,-59.4299 1721.2458,-47.9293 1709.7415,-39.0085"/>
<polygon fill="#0000ff" stroke="#0000ff" points="1711.581,-36.0188 1701.4325,-32.976 1707.4684,-41.6834 1711.581,-36.0188"/>
<text text-anchor="middle" x="1770.0456" y="-130.8" font-family="Times,serif" font-size="14.00" fill="#000000">relation</text>
</g>
<!-- negated -->
<g id="node16" class="node">
<title>negated</title>
<ellipse fill="none" stroke="#0000ff" cx="1855.0456" cy="-178" rx="38.1938" ry="18"/>
<text text-anchor="middle" x="1855.0456" y="-174.3" font-family="Times,serif" font-size="14.00" fill="#000000">boolean</text>
</g>
<!-- case to phenotypic feature association&#45;&gt;negated -->
<g id="edge15" class="edge">
<title>case to phenotypic feature association&#45;&gt;negated</title>
<path fill="none" stroke="#0000ff" d="M1721.0887,-250.8625C1754.7182,-244.6005 1788.3157,-236.8758 1803.0456,-229 1815.0679,-222.5719 1826.1868,-212.5127 1835.0308,-203.0209"/>
<polygon fill="#0000ff" stroke="#0000ff" points="1837.8831,-205.0794 1841.8948,-195.2734 1832.6436,-200.4374 1837.8831,-205.0794"/>
<text text-anchor="middle" x="1844.5456" y="-217.8" font-family="Times,serif" font-size="14.00" fill="#000000">negated</text>
</g>
<!-- qualifiers -->
<g id="node17" class="node">
<title>qualifiers</title>
<ellipse fill="none" stroke="#0000ff" cx="1973.0456" cy="-178" rx="61.99" ry="18"/>
<text text-anchor="middle" x="1973.0456" y="-174.3" font-family="Times,serif" font-size="14.00" fill="#000000">ontology class</text>
</g>
<!-- case to phenotypic feature association&#45;&gt;qualifiers -->
<g id="edge16" class="edge">
<title>case to phenotypic feature association&#45;&gt;qualifiers</title>
<path fill="none" stroke="#0000ff" d="M1735.4067,-252.5052C1787.6891,-245.5985 1845.0774,-236.8504 1870.0456,-229 1893.3801,-221.6632 1917.9848,-209.6587 1937.2927,-199.139"/>
<polygon fill="#0000ff" stroke="#0000ff" points="1939.0007,-202.194 1946.0415,-194.2771 1935.6004,-196.0754 1939.0007,-202.194"/>
<text text-anchor="middle" x="1932.0456" y="-217.8" font-family="Times,serif" font-size="14.00" fill="#000000">qualifiers</text>
</g>
<!-- publications -->
<g id="node18" class="node">
<title>publications</title>
<ellipse fill="none" stroke="#0000ff" cx="2103.0456" cy="-178" rx="50.0912" ry="18"/>
<text text-anchor="middle" x="2103.0456" y="-174.3" font-family="Times,serif" font-size="14.00" fill="#000000">publication</text>
</g>
<!-- case to phenotypic feature association&#45;&gt;publications -->
<g id="edge17" class="edge">
<title>case to phenotypic feature association&#45;&gt;publications</title>
<path fill="none" stroke="#0000ff" d="M1735.5439,-252.4756C1751.7765,-250.5967 1768.3592,-248.7157 1784.0456,-247 1863.0887,-238.3544 1884.5161,-246.6566 1962.0456,-229 1996.5563,-221.1405 2034.1834,-207.2429 2061.8812,-195.9383"/>
<polygon fill="#0000ff" stroke="#0000ff" points="2063.3425,-199.1215 2071.2428,-192.062 2060.6645,-192.654 2063.3425,-199.1215"/>
<text text-anchor="middle" x="2047.5456" y="-217.8" font-family="Times,serif" font-size="14.00" fill="#000000">publications</text>
</g>
<!-- type -->
<g id="node19" class="node">
<title>type</title>
<ellipse fill="none" stroke="#000000" cx="2198.0456" cy="-178" rx="27" ry="18"/>
<text text-anchor="middle" x="2198.0456" y="-174.3" font-family="Times,serif" font-size="14.00" fill="#000000">type</text>
</g>
<!-- case to phenotypic feature association&#45;&gt;type -->
<g id="edge18" class="edge">
<title>case to phenotypic feature association&#45;&gt;type</title>
<path fill="none" stroke="#0000ff" d="M1733.0128,-252.1787C1750.037,-250.2751 1767.528,-248.4643 1784.0456,-247 1917.5388,-235.1658 1954.6289,-259.8542 2085.0456,-229 2114.9189,-221.9325 2146.58,-206.91 2168.7644,-194.9901"/>
<polygon fill="#0000ff" stroke="#0000ff" points="2170.5796,-197.9863 2177.6589,-190.1038 2167.2092,-191.8511 2170.5796,-197.9863"/>
<text text-anchor="middle" x="2139.0456" y="-217.8" font-family="Times,serif" font-size="14.00" fill="#000000">type</text>
</g>
<!-- category -->
<g id="node21" class="node">
<title>category</title>
<ellipse fill="none" stroke="#000000" cx="2284.0456" cy="-178" rx="40.8928" ry="18"/>
<text text-anchor="middle" x="2284.0456" y="-174.3" font-family="Times,serif" font-size="14.00" fill="#000000">category</text>
</g>
<!-- case to phenotypic feature association&#45;&gt;category -->
<g id="edge19" class="edge">
<title>case to phenotypic feature association&#45;&gt;category</title>
<path fill="none" stroke="#0000ff" d="M1732.5872,-252.0642C1749.7426,-250.1627 1767.3868,-248.3824 1784.0456,-247 1948.5629,-233.3477 1993.6754,-263.8143 2155.0456,-229 2187.6093,-221.9746 2222.6462,-207.6509 2247.9758,-195.9673"/>
<polygon fill="#0000ff" stroke="#0000ff" points="2249.6218,-199.0611 2257.1829,-191.6395 2246.6439,-192.726 2249.6218,-199.0611"/>
<text text-anchor="middle" x="2226.5456" y="-217.8" font-family="Times,serif" font-size="14.00" fill="#000000">category</text>
</g>
<!-- frequency qualifier -->
<g id="node23" class="node">
<title>frequency qualifier</title>
<ellipse fill="none" stroke="#0000ff" cx="2411.0456" cy="-178" rx="67.6881" ry="18"/>
<text text-anchor="middle" x="2411.0456" y="-174.3" font-family="Times,serif" font-size="14.00" fill="#000000">frequency value</text>
</g>
<!-- case to phenotypic feature association&#45;&gt;frequency qualifier -->
<g id="edge20" class="edge">
<title>case to phenotypic feature association&#45;&gt;frequency qualifier</title>
<path fill="none" stroke="#0000ff" d="M1731.7524,-252.0091C1749.1673,-250.0899 1767.1133,-248.3182 1784.0456,-247 1992.457,-230.775 2048.2395,-265.6395 2254.0456,-229 2292.1082,-222.2237 2333.6522,-208.4273 2364.4393,-196.891"/>
<polygon fill="#0000ff" stroke="#0000ff" points="2365.9385,-200.0653 2374.039,-193.2366 2363.4481,-193.5233 2365.9385,-200.0653"/>
<text text-anchor="middle" x="2364.0456" y="-217.8" font-family="Times,serif" font-size="14.00" fill="#000000">frequency qualifier</text>
</g>
<!-- severity qualifier -->
<g id="node24" class="node">
<title>severity qualifier</title>
<ellipse fill="none" stroke="#0000ff" cx="2556.0456" cy="-178" rx="59.5901" ry="18"/>
<text text-anchor="middle" x="2556.0456" y="-174.3" font-family="Times,serif" font-size="14.00" fill="#000000">severity value</text>
</g>
<!-- case to phenotypic feature association&#45;&gt;severity qualifier -->
<g id="edge21" class="edge">
<title>case to phenotypic feature association&#45;&gt;severity qualifier</title>
<path fill="none" stroke="#0000ff" d="M1731.3303,-251.9107C1748.875,-249.99 1766.9735,-248.2434 1784.0456,-247 1925.062,-236.7298 2281.2952,-256.193 2420.0456,-229 2452.9943,-222.5425 2488.4592,-209.006 2514.9097,-197.501"/>
<polygon fill="#0000ff" stroke="#0000ff" points="2516.502,-200.6237 2524.2254,-193.3711 2513.6649,-194.2243 2516.502,-200.6237"/>
<text text-anchor="middle" x="2516.5456" y="-217.8" font-family="Times,serif" font-size="14.00" fill="#000000">severity qualifier</text>
</g>
<!-- onset qualifier -->
<g id="node25" class="node">
<title>onset qualifier</title>
<ellipse fill="none" stroke="#0000ff" cx="2663.0456" cy="-178" rx="29.4969" ry="18"/>
<text text-anchor="middle" x="2663.0456" y="-174.3" font-family="Times,serif" font-size="14.00" fill="#000000">onset</text>
</g>
<!-- case to phenotypic feature association&#45;&gt;onset qualifier -->
<g id="edge22" class="edge">
<title>case to phenotypic feature association&#45;&gt;onset qualifier</title>
<path fill="none" stroke="#0000ff" d="M1730.9137,-251.879C1748.5873,-249.949 1766.8369,-248.2074 1784.0456,-247 1870.8551,-240.9093 2482.8511,-251.0067 2567.0456,-229 2591.5242,-222.6018 2616.6921,-208.9185 2635.1143,-197.3348"/>
<polygon fill="#0000ff" stroke="#0000ff" points="2637.0868,-200.2274 2643.5834,-191.8581 2633.2856,-194.3493 2637.0868,-200.2274"/>
<text text-anchor="middle" x="2643.5456" y="-217.8" font-family="Times,serif" font-size="14.00" fill="#000000">onset qualifier</text>
</g>
<!-- sex qualifier -->
<g id="node26" class="node">
<title>sex qualifier</title>
<ellipse fill="none" stroke="#0000ff" cx="2770.0456" cy="-178" rx="59.5901" ry="18"/>
<text text-anchor="middle" x="2770.0456" y="-174.3" font-family="Times,serif" font-size="14.00" fill="#000000">biological sex</text>
</g>
<!-- case to phenotypic feature association&#45;&gt;sex qualifier -->
<g id="edge23" class="edge">
<title>case to phenotypic feature association&#45;&gt;sex qualifier</title>
<path fill="none" stroke="#0000ff" d="M1730.4997,-251.8797C1748.3015,-249.9365 1766.7017,-248.1903 1784.0456,-247 1884.1633,-240.1292 2590.7533,-257.259 2687.0456,-229 2706.4446,-223.3069 2725.8244,-211.8105 2740.9731,-201.1717"/>
<polygon fill="#0000ff" stroke="#0000ff" points="2743.3472,-203.7726 2749.3716,-195.0573 2739.2272,-198.1135 2743.3472,-203.7726"/>
<text text-anchor="middle" x="2752.0456" y="-217.8" font-family="Times,serif" font-size="14.00" fill="#000000">sex qualifier</text>
</g>
<!-- subject&#45;&gt;object -->
<g id="edge24" class="edge">
<title>subject&#45;&gt;object</title>
<path fill="none" stroke="#000000" d="M1528.0508,-162.8458C1557.7862,-148.3121 1602.8198,-126.3014 1635.2026,-110.4738"/>
<polygon fill="#000000" stroke="#000000" points="1636.9483,-113.5163 1644.3956,-105.9806 1633.8744,-107.2273 1636.9483,-113.5163"/>
<text text-anchor="middle" x="1618.0456" y="-130.8" font-family="Times,serif" font-size="14.00" fill="#000000">relation</text>
</g>
<!-- subject&#45;&gt;relation -->
<g id="edge25" class="edge">
<title>subject&#45;&gt;relation</title>
<path fill="none" stroke="#000000" stroke-dasharray="1,5" d="M1515.4277,-160.7068C1537.8133,-139.7319 1576.8715,-103.4061 1611.0456,-73 1622.9356,-62.4209 1636.2591,-50.9164 1647.6585,-41.1768"/>
<polygon fill="#000000" stroke="#000000" points="1650.229,-43.5848 1655.571,-34.4352 1645.6892,-38.2565 1650.229,-43.5848"/>
</g>
<!-- object&#45;&gt;relation -->
<g id="edge26" class="edge">
<title>object&#45;&gt;relation</title>
<path fill="none" stroke="#000000" stroke-dasharray="1,5" d="M1675.0456,-72.9551C1675.0456,-64.8828 1675.0456,-55.1764 1675.0456,-46.1817"/>
<polygon fill="#000000" stroke="#000000" points="1678.5457,-46.0903 1675.0456,-36.0904 1671.5457,-46.0904 1678.5457,-46.0903"/>
</g>
<!-- association_type -->
<g id="node20" class="node">
<title>association_type</title>
<ellipse fill="none" stroke="#0000ff" cx="1824.0456" cy="-265" rx="30.5947" ry="18"/>
<text text-anchor="middle" x="1824.0456" y="-261.3" font-family="Times,serif" font-size="14.00" fill="#000000">string</text>
</g>
<!-- association_category -->
<g id="node22" class="node">
<title>association_category</title>
<ellipse fill="none" stroke="#0000ff" cx="1923.0456" cy="-265" rx="50.0912" ry="18"/>
<text text-anchor="middle" x="1923.0456" y="-261.3" font-family="Times,serif" font-size="14.00" fill="#000000">association</text>
</g>
</g>
</svg>
