<?xml version="1.0" encoding="UTF-8" standalone="no"?>
<!DOCTYPE svg PUBLIC "-//W3C//DTD SVG 1.1//EN"
 "http://www.w3.org/Graphics/SVG/1.1/DTD/svg11.dtd">
<!-- Generated by graphviz version 2.43.0 (0)
 -->
<!-- Title: %3 Pages: 1 -->
<svg width="4989pt" height="291pt"
 viewBox="0.00 0.00 4989.39 291.00" xmlns="http://www.w3.org/2000/svg" xmlns:xlink="http://www.w3.org/1999/xlink">
<g id="graph0" class="graph" transform="scale(1 1) rotate(0) translate(4 287)">
<title>%3</title>
<polygon fill="white" stroke="transparent" points="-4,4 -4,-287 4985.39,-287 4985.39,4 -4,4"/>
<!-- case to phenotypic feature association -->
<g id="node1" class="node">
<title>case to phenotypic feature association</title>
<ellipse fill="none" stroke="black" cx="2763.39" cy="-265" rx="188.47" ry="18"/>
<text text-anchor="middle" x="2763.39" y="-261.3" font-family="Times,serif" font-size="14.00">case to phenotypic feature association</text>
</g>
<!-- association -->
<g id="node2" class="node">
<title>association</title>
<ellipse fill="none" stroke="black" cx="62.39" cy="-178" rx="62.29" ry="18"/>
<text text-anchor="middle" x="62.39" y="-174.3" font-family="Times,serif" font-size="14.00">association</text>
</g>
<!-- case to phenotypic feature association&#45;&gt;association -->
<g id="edge1" class="edge">
<title>case to phenotypic feature association&#45;&gt;association</title>
<path fill="none" stroke="black" d="M2575.38,-263.49C2211.38,-261.92 1385.04,-255.47 690.39,-229 443.03,-219.58 379.32,-231.91 134.39,-196 128.61,-195.15 122.62,-194.07 116.66,-192.86"/>
<polygon fill="black" stroke="black" points="117.23,-189.4 106.72,-190.73 115.76,-196.25 117.23,-189.4"/>
<text text-anchor="middle" x="704.39" y="-217.8" font-family="Times,serif" font-size="14.00">is_a</text>
</g>
<!-- entity to phenotypic feature association mixin -->
<g id="node3" class="node">
<title>entity to phenotypic feature association mixin</title>
<ellipse fill="none" stroke="black" cx="367.39" cy="-178" rx="224.46" ry="18"/>
<text text-anchor="middle" x="367.39" y="-174.3" font-family="Times,serif" font-size="14.00">entity to phenotypic feature association mixin</text>
</g>
<!-- case to phenotypic feature association&#45;&gt;entity to phenotypic feature association mixin -->
<g id="edge2" class="edge">
<title>case to phenotypic feature association&#45;&gt;entity to phenotypic feature association mixin</title>
<path fill="none" stroke="black" d="M2574.76,-264.86C2240.78,-265.38 1523.66,-262.06 919.39,-229 777.05,-221.21 614.58,-205.69 502.96,-194"/>
<polygon fill="black" stroke="black" points="503.31,-190.52 492.99,-192.95 502.57,-197.48 503.31,-190.52"/>
<text text-anchor="middle" x="935.89" y="-217.8" font-family="Times,serif" font-size="14.00">uses</text>
</g>
<!-- case to entity association mixin -->
<g id="node4" class="node">
<title>case to entity association mixin</title>
<ellipse fill="none" stroke="black" cx="767.39" cy="-178" rx="157.07" ry="18"/>
<text text-anchor="middle" x="767.39" y="-174.3" font-family="Times,serif" font-size="14.00">case to entity association mixin</text>
</g>
<!-- case to phenotypic feature association&#45;&gt;case to entity association mixin -->
<g id="edge3" class="edge">
<title>case to phenotypic feature association&#45;&gt;case to entity association mixin</title>
<path fill="none" stroke="black" d="M2575.35,-263.64C2195.85,-262.34 1350.02,-256.36 1061.39,-229 988.79,-222.12 907.08,-207.67 848.27,-196.07"/>
<polygon fill="black" stroke="black" points="848.78,-192.61 838.29,-194.09 847.42,-199.47 848.78,-192.61"/>
<text text-anchor="middle" x="1077.89" y="-217.8" font-family="Times,serif" font-size="14.00">uses</text>
</g>
<!-- id -->
<g id="node5" class="node">
<title>id</title>
<ellipse fill="none" stroke="blue" cx="981.39" cy="-178" rx="38.19" ry="18"/>
<text text-anchor="middle" x="981.39" y="-174.3" font-family="Times,serif" font-size="14.00">string</text>
</g>
<!-- case to phenotypic feature association&#45;&gt;id -->
<g id="edge4" class="edge">
<title>case to phenotypic feature association&#45;&gt;id</title>
<path fill="none" stroke="blue" d="M2575.08,-264.08C2217.46,-263.54 1452.25,-258.78 1189.39,-229 1117.25,-220.83 1099.34,-215.5 1029.39,-196 1026.29,-195.13 1023.09,-194.17 1019.89,-193.15"/>
<polygon fill="blue" stroke="blue" points="1020.97,-189.82 1010.38,-189.98 1018.76,-196.46 1020.97,-189.82"/>
<text text-anchor="middle" x="1196.39" y="-217.8" font-family="Times,serif" font-size="14.00">id</text>
</g>
<!-- iri -->
<g id="node6" class="node">
<title>iri</title>
<ellipse fill="none" stroke="blue" cx="1082.39" cy="-178" rx="44.39" ry="18"/>
<text text-anchor="middle" x="1082.39" y="-174.3" font-family="Times,serif" font-size="14.00">iri type</text>
</g>
<!-- case to phenotypic feature association&#45;&gt;iri -->
<g id="edge5" class="edge">
<title>case to phenotypic feature association&#45;&gt;iri</title>
<path fill="none" stroke="blue" d="M2575.32,-263.72C2236.77,-262.51 1537.52,-256.63 1295.39,-229 1223.25,-220.77 1205.62,-214.45 1135.39,-196 1132.02,-195.11 1128.55,-194.14 1125.06,-193.12"/>
<polygon fill="blue" stroke="blue" points="1125.9,-189.72 1115.31,-190.16 1123.87,-196.41 1125.9,-189.72"/>
<text text-anchor="middle" x="1303.39" y="-217.8" font-family="Times,serif" font-size="14.00">iri</text>
</g>
<!-- name -->
<g id="node7" class="node">
<title>name</title>
<ellipse fill="none" stroke="blue" cx="1201.39" cy="-178" rx="56.59" ry="18"/>
<text text-anchor="middle" x="1201.39" y="-174.3" font-family="Times,serif" font-size="14.00">label type</text>
</g>
<!-- case to phenotypic feature association&#45;&gt;name -->
<g id="edge6" class="edge">
<title>case to phenotypic feature association&#45;&gt;name</title>
<path fill="none" stroke="blue" d="M2574.62,-264.72C2252.67,-265.03 1610.58,-261.37 1387.39,-229 1338.94,-221.97 1285.07,-206.63 1247.83,-194.78"/>
<polygon fill="blue" stroke="blue" points="1248.85,-191.43 1238.26,-191.69 1246.7,-198.09 1248.85,-191.43"/>
<text text-anchor="middle" x="1407.39" y="-217.8" font-family="Times,serif" font-size="14.00">name</text>
</g>
<!-- description -->
<g id="node8" class="node">
<title>description</title>
<ellipse fill="none" stroke="blue" cx="1351.39" cy="-178" rx="75.29" ry="18"/>
<text text-anchor="middle" x="1351.39" y="-174.3" font-family="Times,serif" font-size="14.00">narrative text</text>
</g>
<!-- case to phenotypic feature association&#45;&gt;description -->
<g id="edge7" class="edge">
<title>case to phenotypic feature association&#45;&gt;description</title>
<path fill="none" stroke="blue" d="M2576.91,-262.34C2247.5,-258.89 1587.44,-249.52 1483.39,-229 1451.84,-222.78 1417.95,-209.8 1392.41,-198.62"/>
<polygon fill="blue" stroke="blue" points="1393.61,-195.32 1383.05,-194.44 1390.76,-201.71 1393.61,-195.32"/>
<text text-anchor="middle" x="1523.89" y="-217.8" font-family="Times,serif" font-size="14.00">description</text>
</g>
<!-- has attribute -->
<g id="node9" class="node">
<title>has attribute</title>
<ellipse fill="none" stroke="blue" cx="1496.39" cy="-178" rx="51.99" ry="18"/>
<text text-anchor="middle" x="1496.39" y="-174.3" font-family="Times,serif" font-size="14.00">attribute</text>
</g>
<!-- case to phenotypic feature association&#45;&gt;has attribute -->
<g id="edge8" class="edge">
<title>case to phenotypic feature association&#45;&gt;has attribute</title>
<path fill="none" stroke="blue" d="M2577.4,-262.05C2276.29,-258.34 1706.42,-248.79 1615.39,-229 1586.33,-222.68 1555.42,-209.48 1532.39,-198.22"/>
<polygon fill="blue" stroke="blue" points="1533.85,-195.04 1523.34,-193.71 1530.73,-201.3 1533.85,-195.04"/>
<text text-anchor="middle" x="1662.39" y="-217.8" font-family="Times,serif" font-size="14.00">has attribute</text>
</g>
<!-- subject -->
<g id="node10" class="node">
<title>subject</title>
<ellipse fill="none" stroke="blue" cx="1636.39" cy="-178" rx="69.59" ry="18"/>
<text text-anchor="middle" x="1636.39" y="-174.3" font-family="Times,serif" font-size="14.00">named thing</text>
</g>
<!-- case to phenotypic feature association&#45;&gt;subject -->
<g id="edge9" class="edge">
<title>case to phenotypic feature association&#45;&gt;subject</title>
<path fill="none" stroke="blue" d="M2579.6,-260.94C2312.59,-255.97 1840.7,-245.08 1763.39,-229 1732.98,-222.68 1700.41,-209.72 1675.87,-198.58"/>
<polygon fill="blue" stroke="blue" points="1677.09,-195.28 1666.55,-194.26 1674.15,-201.64 1677.09,-195.28"/>
<text text-anchor="middle" x="1789.39" y="-217.8" font-family="Times,serif" font-size="14.00">subject</text>
</g>
<!-- predicate -->
<g id="node11" class="node">
<title>predicate</title>
<ellipse fill="none" stroke="blue" cx="1802.39" cy="-178" rx="77.99" ry="18"/>
<text text-anchor="middle" x="1802.39" y="-174.3" font-family="Times,serif" font-size="14.00">predicate type</text>
</g>
<!-- case to phenotypic feature association&#45;&gt;predicate -->
<g id="edge10" class="edge">
<title>case to phenotypic feature association&#45;&gt;predicate</title>
<path fill="none" stroke="blue" d="M2578.52,-261.41C2316.74,-257.11 1866.07,-247.12 1834.39,-229 1825,-223.63 1817.93,-214.25 1812.86,-205.06"/>
<polygon fill="blue" stroke="blue" points="1815.99,-203.51 1808.44,-196.08 1809.71,-206.6 1815.99,-203.51"/>
<text text-anchor="middle" x="1868.39" y="-217.8" font-family="Times,serif" font-size="14.00">predicate</text>
</g>
<!-- object -->
<g id="node12" class="node">
<title>object</title>
<ellipse fill="none" stroke="blue" cx="1734.39" cy="-91" rx="69.59" ry="18"/>
<text text-anchor="middle" x="1734.39" y="-87.3" font-family="Times,serif" font-size="14.00">named thing</text>
</g>
<!-- case to phenotypic feature association&#45;&gt;object -->
<g id="edge11" class="edge">
<title>case to phenotypic feature association&#45;&gt;object</title>
<path fill="none" stroke="blue" d="M2594.04,-257.09C2366.4,-246.75 1983.41,-225.31 1925.39,-196 1905.2,-185.8 1908.08,-172.77 1889.39,-160 1857.29,-138.07 1816.97,-120.64 1785.5,-108.92"/>
<polygon fill="blue" stroke="blue" points="1786.63,-105.61 1776.03,-105.47 1784.23,-112.18 1786.63,-105.61"/>
<text text-anchor="middle" x="1947.39" y="-174.3" font-family="Times,serif" font-size="14.00">object</text>
</g>
<!-- negated -->
<g id="node13" class="node">
<title>negated</title>
<ellipse fill="none" stroke="blue" cx="2025.39" cy="-178" rx="46.59" ry="18"/>
<text text-anchor="middle" x="2025.39" y="-174.3" font-family="Times,serif" font-size="14.00">boolean</text>
</g>
<!-- case to phenotypic feature association&#45;&gt;negated -->
<g id="edge12" class="edge">
<title>case to phenotypic feature association&#45;&gt;negated</title>
<path fill="none" stroke="blue" d="M2581.46,-260.29C2474.63,-256.14 2337.28,-247.39 2216.39,-229 2165.22,-221.22 2107.96,-205.22 2069.6,-193.4"/>
<polygon fill="blue" stroke="blue" points="2070.38,-189.98 2059.79,-190.35 2068.29,-196.66 2070.38,-189.98"/>
<text text-anchor="middle" x="2245.39" y="-217.8" font-family="Times,serif" font-size="14.00">negated</text>
</g>
<!-- qualifiers -->
<g id="node14" class="node">
<title>qualifiers</title>
<ellipse fill="none" stroke="blue" cx="2166.39" cy="-178" rx="76.89" ry="18"/>
<text text-anchor="middle" x="2166.39" y="-174.3" font-family="Times,serif" font-size="14.00">ontology class</text>
</g>
<!-- case to phenotypic feature association&#45;&gt;qualifiers -->
<g id="edge13" class="edge">
<title>case to phenotypic feature association&#45;&gt;qualifiers</title>
<path fill="none" stroke="blue" d="M2591.81,-257.5C2514.52,-252.6 2422.39,-244.02 2340.39,-229 2298.19,-221.27 2251.51,-207.56 2217.14,-196.45"/>
<polygon fill="blue" stroke="blue" points="2217.93,-193.03 2207.33,-193.25 2215.75,-199.68 2217.93,-193.03"/>
<text text-anchor="middle" x="2373.89" y="-217.8" font-family="Times,serif" font-size="14.00">qualifiers</text>
</g>
<!-- publications -->
<g id="node15" class="node">
<title>publications</title>
<ellipse fill="none" stroke="blue" cx="2323.39" cy="-178" rx="62.29" ry="18"/>
<text text-anchor="middle" x="2323.39" y="-174.3" font-family="Times,serif" font-size="14.00">publication</text>
</g>
<!-- case to phenotypic feature association&#45;&gt;publications -->
<g id="edge14" class="edge">
<title>case to phenotypic feature association&#45;&gt;publications</title>
<path fill="none" stroke="blue" d="M2615.51,-253.78C2566.08,-248.53 2510.97,-240.69 2461.39,-229 2428.48,-221.24 2392.61,-208.09 2365.69,-197.22"/>
<polygon fill="blue" stroke="blue" points="2366.78,-193.89 2356.2,-193.34 2364.13,-200.37 2366.78,-193.89"/>
<text text-anchor="middle" x="2505.39" y="-217.8" font-family="Times,serif" font-size="14.00">publications</text>
</g>
<!-- has evidence -->
<g id="node16" class="node">
<title>has evidence</title>
<ellipse fill="none" stroke="blue" cx="2479.39" cy="-178" rx="75.29" ry="18"/>
<text text-anchor="middle" x="2479.39" y="-174.3" font-family="Times,serif" font-size="14.00">evidence type</text>
</g>
<!-- case to phenotypic feature association&#45;&gt;has evidence -->
<g id="edge15" class="edge">
<title>case to phenotypic feature association&#45;&gt;has evidence</title>
<path fill="none" stroke="blue" d="M2670.83,-249.24C2644.53,-243.98 2616.06,-237.26 2590.39,-229 2565.79,-221.08 2539.37,-209.32 2518.48,-199.19"/>
<polygon fill="blue" stroke="blue" points="2519.81,-195.95 2509.29,-194.68 2516.72,-202.23 2519.81,-195.95"/>
<text text-anchor="middle" x="2636.89" y="-217.8" font-family="Times,serif" font-size="14.00">has evidence</text>
</g>
<!-- knowledge source -->
<g id="node17" class="node">
<title>knowledge source</title>
<ellipse fill="none" stroke="blue" cx="2681.39" cy="-178" rx="108.58" ry="18"/>
<text text-anchor="middle" x="2681.39" y="-174.3" font-family="Times,serif" font-size="14.00">information resource</text>
</g>
<!-- case to phenotypic feature association&#45;&gt;knowledge source -->
<g id="edge16" class="edge">
<title>case to phenotypic feature association&#45;&gt;knowledge source</title>
<path fill="none" stroke="blue" d="M2718.22,-247.43C2709.68,-242.58 2701.52,-236.51 2695.39,-229 2690.11,-222.52 2686.81,-214.16 2684.76,-206.15"/>
<polygon fill="blue" stroke="blue" points="2688.19,-205.44 2682.77,-196.34 2681.33,-206.83 2688.19,-205.44"/>
<text text-anchor="middle" x="2759.89" y="-217.8" font-family="Times,serif" font-size="14.00">knowledge source</text>
</g>
<!-- primary knowledge source -->
<g id="node18" class="node">
<title>primary knowledge source</title>
<ellipse fill="none" stroke="blue" cx="2916.39" cy="-178" rx="108.58" ry="18"/>
<text text-anchor="middle" x="2916.39" y="-174.3" font-family="Times,serif" font-size="14.00">information resource</text>
</g>
<!-- case to phenotypic feature association&#45;&gt;primary knowledge source -->
<g id="edge17" class="edge">
<title>case to phenotypic feature association&#45;&gt;primary knowledge source</title>
<path fill="none" stroke="blue" d="M2793.69,-247.07C2803.55,-241.44 2814.5,-235.06 2824.39,-229 2834.8,-222.63 2836.83,-220.1 2847.39,-214 2855.77,-209.16 2864.89,-204.28 2873.68,-199.76"/>
<polygon fill="blue" stroke="blue" points="2875.33,-202.84 2882.66,-195.19 2872.16,-196.6 2875.33,-202.84"/>
<text text-anchor="middle" x="2942.39" y="-217.8" font-family="Times,serif" font-size="14.00">primary knowledge source</text>
</g>
<!-- aggregator knowledge source -->
<g id="node19" class="node">
<title>aggregator knowledge source</title>
<ellipse fill="none" stroke="blue" cx="3151.39" cy="-178" rx="108.58" ry="18"/>
<text text-anchor="middle" x="3151.39" y="-174.3" font-family="Times,serif" font-size="14.00">information resource</text>
</g>
<!-- case to phenotypic feature association&#45;&gt;aggregator knowledge source -->
<g id="edge18" class="edge">
<title>case to phenotypic feature association&#45;&gt;aggregator knowledge source</title>
<path fill="none" stroke="blue" d="M2898.37,-252.43C2954.1,-246.48 3011.63,-238.48 3037.39,-229 3048.85,-224.79 3049.53,-219.55 3060.39,-214 3071.69,-208.22 3084.18,-202.83 3096.18,-198.09"/>
<polygon fill="blue" stroke="blue" points="3097.6,-201.29 3105.68,-194.43 3095.09,-194.76 3097.6,-201.29"/>
<text text-anchor="middle" x="3166.89" y="-217.8" font-family="Times,serif" font-size="14.00">aggregator knowledge source</text>
</g>
<!-- timepoint -->
<g id="node20" class="node">
<title>timepoint</title>
<ellipse fill="none" stroke="blue" cx="3333.39" cy="-178" rx="55.49" ry="18"/>
<text text-anchor="middle" x="3333.39" y="-174.3" font-family="Times,serif" font-size="14.00">time type</text>
</g>
<!-- case to phenotypic feature association&#45;&gt;timepoint -->
<g id="edge19" class="edge">
<title>case to phenotypic feature association&#45;&gt;timepoint</title>
<path fill="none" stroke="blue" d="M2895.42,-252.15C2917.44,-250.32 2940.06,-248.53 2961.39,-247 3030.66,-242.03 3208.8,-254.51 3273.39,-229 3281.33,-225.86 3295.97,-213.72 3308.8,-202.19"/>
<polygon fill="blue" stroke="blue" points="3311.46,-204.51 3316.48,-195.18 3306.74,-199.34 3311.46,-204.51"/>
<text text-anchor="middle" x="3330.39" y="-217.8" font-family="Times,serif" font-size="14.00">timepoint</text>
</g>
<!-- original subject -->
<g id="node21" class="node">
<title>original subject</title>
<ellipse fill="none" stroke="blue" cx="3445.39" cy="-178" rx="38.19" ry="18"/>
<text text-anchor="middle" x="3445.39" y="-174.3" font-family="Times,serif" font-size="14.00">string</text>
</g>
<!-- case to phenotypic feature association&#45;&gt;original subject -->
<g id="edge20" class="edge">
<title>case to phenotypic feature association&#45;&gt;original subject</title>
<path fill="none" stroke="blue" d="M2894.07,-252.01C2916.52,-250.17 2939.62,-248.42 2961.39,-247 3051.29,-241.15 3280.63,-256.58 3366.39,-229 3378.01,-225.26 3379.11,-220.57 3389.39,-214 3397.56,-208.79 3406.43,-203.21 3414.65,-198.07"/>
<polygon fill="blue" stroke="blue" points="3416.62,-200.96 3423.26,-192.7 3412.92,-195.02 3416.62,-200.96"/>
<text text-anchor="middle" x="3445.39" y="-217.8" font-family="Times,serif" font-size="14.00">original subject</text>
</g>
<!-- original predicate -->
<g id="node22" class="node">
<title>original predicate</title>
<ellipse fill="none" stroke="blue" cx="3559.39" cy="-178" rx="57.39" ry="18"/>
<text text-anchor="middle" x="3559.39" y="-174.3" font-family="Times,serif" font-size="14.00">uriorcurie</text>
</g>
<!-- case to phenotypic feature association&#45;&gt;original predicate -->
<g id="edge21" class="edge">
<title>case to phenotypic feature association&#45;&gt;original predicate</title>
<path fill="none" stroke="blue" d="M2893,-251.89C2915.77,-250.04 2939.27,-248.32 2961.39,-247 3021.32,-243.43 3445.48,-250.84 3501.39,-229 3509.14,-225.98 3523.15,-213.98 3535.47,-202.49"/>
<polygon fill="blue" stroke="blue" points="3538,-204.91 3542.85,-195.49 3533.18,-199.84 3538,-204.91"/>
<text text-anchor="middle" x="3586.89" y="-217.8" font-family="Times,serif" font-size="14.00">original predicate</text>
</g>
<!-- original object -->
<g id="node23" class="node">
<title>original object</title>
<ellipse fill="none" stroke="blue" cx="3673.39" cy="-178" rx="38.19" ry="18"/>
<text text-anchor="middle" x="3673.39" y="-174.3" font-family="Times,serif" font-size="14.00">string</text>
</g>
<!-- case to phenotypic feature association&#45;&gt;original object -->
<g id="edge22" class="edge">
<title>case to phenotypic feature association&#45;&gt;original object</title>
<path fill="none" stroke="blue" d="M2892.19,-251.82C2915.22,-249.96 2939,-248.25 2961.39,-247 2999.68,-244.86 3619.56,-250.37 3651.39,-229 3659.29,-223.7 3664.37,-214.88 3667.64,-206.11"/>
<polygon fill="blue" stroke="blue" points="3671.03,-207.01 3670.61,-196.43 3664.33,-204.96 3671.03,-207.01"/>
<text text-anchor="middle" x="3715.89" y="-217.8" font-family="Times,serif" font-size="14.00">original object</text>
</g>
<!-- type -->
<g id="node24" class="node">
<title>type</title>
<ellipse fill="none" stroke="black" cx="3761.39" cy="-178" rx="31.4" ry="18"/>
<text text-anchor="middle" x="3761.39" y="-174.3" font-family="Times,serif" font-size="14.00">type</text>
</g>
<!-- case to phenotypic feature association&#45;&gt;type -->
<g id="edge23" class="edge">
<title>case to phenotypic feature association&#45;&gt;type</title>
<path fill="none" stroke="blue" d="M2891.65,-251.79C2914.85,-249.93 2938.83,-248.22 2961.39,-247 2983.87,-245.79 3755.66,-245.09 3771.39,-229 3777.6,-222.65 3777.41,-213.61 3774.88,-204.95"/>
<polygon fill="blue" stroke="blue" points="3778.11,-203.59 3771.25,-195.51 3771.58,-206.1 3778.11,-203.59"/>
<text text-anchor="middle" x="3793.39" y="-217.8" font-family="Times,serif" font-size="14.00">type</text>
</g>
<!-- category -->
<g id="node26" class="node">
<title>category</title>
<ellipse fill="none" stroke="black" cx="3862.39" cy="-178" rx="51.19" ry="18"/>
<text text-anchor="middle" x="3862.39" y="-174.3" font-family="Times,serif" font-size="14.00">category</text>
</g>
<!-- case to phenotypic feature association&#45;&gt;category -->
<g id="edge24" class="edge">
<title>case to phenotypic feature association&#45;&gt;category</title>
<path fill="none" stroke="blue" d="M2891.65,-251.77C2914.85,-249.91 2938.83,-248.21 2961.39,-247 3008.67,-244.47 3769.94,-247.8 3813.39,-229 3825.77,-223.65 3836.62,-213.54 3844.95,-203.81"/>
<polygon fill="blue" stroke="blue" points="3847.81,-205.83 3851.32,-195.84 3842.34,-201.46 3847.81,-205.83"/>
<text text-anchor="middle" x="3866.89" y="-217.8" font-family="Times,serif" font-size="14.00">category</text>
</g>
<!-- frequency qualifier -->
<g id="node28" class="node">
<title>frequency qualifier</title>
<ellipse fill="none" stroke="blue" cx="4016.39" cy="-178" rx="85.29" ry="18"/>
<text text-anchor="middle" x="4016.39" y="-174.3" font-family="Times,serif" font-size="14.00">frequency value</text>
</g>
<!-- case to phenotypic feature association&#45;&gt;frequency qualifier -->
<g id="edge25" class="edge">
<title>case to phenotypic feature association&#45;&gt;frequency qualifier</title>
<path fill="none" stroke="blue" d="M2891.39,-251.76C2914.66,-249.89 2938.74,-248.19 2961.39,-247 3065.83,-241.52 3800.25,-251.44 3902.39,-229 3929.24,-223.1 3957.55,-210.72 3979.24,-199.76"/>
<polygon fill="blue" stroke="blue" points="3981.14,-202.72 3988.41,-195.01 3977.92,-196.5 3981.14,-202.72"/>
<text text-anchor="middle" x="4016.39" y="-217.8" font-family="Times,serif" font-size="14.00">frequency qualifier</text>
</g>
<!-- severity qualifier -->
<g id="node29" class="node">
<title>severity qualifier</title>
<ellipse fill="none" stroke="blue" cx="4195.39" cy="-178" rx="76.09" ry="18"/>
<text text-anchor="middle" x="4195.39" y="-174.3" font-family="Times,serif" font-size="14.00">severity value</text>
</g>
<!-- case to phenotypic feature association&#45;&gt;severity qualifier -->
<g id="edge26" class="edge">
<title>case to phenotypic feature association&#45;&gt;severity qualifier</title>
<path fill="none" stroke="blue" d="M2891.12,-251.72C2914.48,-249.85 2938.65,-248.16 2961.39,-247 3086.47,-240.64 3966.36,-257.13 4088.39,-229 4113.69,-223.17 4140.14,-210.88 4160.41,-199.94"/>
<polygon fill="blue" stroke="blue" points="4162.21,-202.94 4169.26,-195.04 4158.82,-196.82 4162.21,-202.94"/>
<text text-anchor="middle" x="4192.39" y="-217.8" font-family="Times,serif" font-size="14.00">severity qualifier</text>
</g>
<!-- onset qualifier -->
<g id="node30" class="node">
<title>onset qualifier</title>
<ellipse fill="none" stroke="blue" cx="4325.39" cy="-178" rx="36.29" ry="18"/>
<text text-anchor="middle" x="4325.39" y="-174.3" font-family="Times,serif" font-size="14.00">onset</text>
</g>
<!-- case to phenotypic feature association&#45;&gt;onset qualifier -->
<g id="edge27" class="edge">
<title>case to phenotypic feature association&#45;&gt;onset qualifier</title>
<path fill="none" stroke="blue" d="M2890.85,-251.7C2914.29,-249.82 2938.57,-248.14 2961.39,-247 3033.31,-243.42 4189.13,-251.92 4257.39,-229 4274.26,-223.34 4290.42,-211.8 4302.75,-201.23"/>
<polygon fill="blue" stroke="blue" points="4305.16,-203.78 4310.28,-194.5 4300.49,-198.56 4305.16,-203.78"/>
<text text-anchor="middle" x="4337.89" y="-217.8" font-family="Times,serif" font-size="14.00">onset qualifier</text>
</g>
<!-- sex qualifier -->
<g id="node31" class="node">
<title>sex qualifier</title>
<ellipse fill="none" stroke="blue" cx="4453.39" cy="-178" rx="73.39" ry="18"/>
<text text-anchor="middle" x="4453.39" y="-174.3" font-family="Times,serif" font-size="14.00">biological sex</text>
</g>
<!-- case to phenotypic feature association&#45;&gt;sex qualifier -->
<g id="edge28" class="edge">
<title>case to phenotypic feature association&#45;&gt;sex qualifier</title>
<path fill="none" stroke="blue" d="M2890.58,-251.7C2914.11,-249.81 2938.48,-248.13 2961.39,-247 3040.86,-243.09 4318.76,-256.55 4393.39,-229 4407.93,-223.63 4421.44,-213.1 4431.95,-203.07"/>
<polygon fill="blue" stroke="blue" points="4434.47,-205.5 4439.04,-195.95 4429.51,-200.57 4434.47,-205.5"/>
<text text-anchor="middle" x="4463.39" y="-217.8" font-family="Times,serif" font-size="14.00">sex qualifier</text>
</g>
<!-- has count -->
<g id="node32" class="node">
<title>has count</title>
<ellipse fill="none" stroke="blue" cx="4589.39" cy="-178" rx="44.39" ry="18"/>
<text text-anchor="middle" x="4589.39" y="-174.3" font-family="Times,serif" font-size="14.00">integer</text>
</g>
<!-- case to phenotypic feature association&#45;&gt;has count -->
<g id="edge29" class="edge">
<title>case to phenotypic feature association&#45;&gt;has count</title>
<path fill="none" stroke="blue" d="M2890.58,-251.68C2914.11,-249.8 2938.48,-248.12 2961.39,-247 3047.41,-242.81 4428.89,-253.69 4511.39,-229 4530.46,-223.29 4549.31,-211.43 4563.71,-200.68"/>
<polygon fill="blue" stroke="blue" points="4565.87,-203.43 4571.64,-194.54 4561.59,-197.9 4565.87,-203.43"/>
<text text-anchor="middle" x="4579.39" y="-217.8" font-family="Times,serif" font-size="14.00">has count</text>
</g>
<!-- has total -->
<g id="node33" class="node">
<title>has total</title>
<ellipse fill="none" stroke="blue" cx="4695.39" cy="-178" rx="44.39" ry="18"/>
<text text-anchor="middle" x="4695.39" y="-174.3" font-family="Times,serif" font-size="14.00">integer</text>
</g>
<!-- case to phenotypic feature association&#45;&gt;has total -->
<g id="edge30" class="edge">
<title>case to phenotypic feature association&#45;&gt;has total</title>
<path fill="none" stroke="blue" d="M2890.32,-251.69C2913.92,-249.8 2938.39,-248.11 2961.39,-247 3053.35,-242.56 4530.27,-255.62 4618.39,-229 4637.1,-223.35 4655.54,-211.65 4669.69,-200.99"/>
<polygon fill="blue" stroke="blue" points="4672.19,-203.47 4677.9,-194.55 4667.87,-197.96 4672.19,-203.47"/>
<text text-anchor="middle" x="4681.89" y="-217.8" font-family="Times,serif" font-size="14.00">has total</text>
</g>
<!-- has quotient -->
<g id="node34" class="node">
<title>has quotient</title>
<ellipse fill="none" stroke="blue" cx="4799.39" cy="-178" rx="42.49" ry="18"/>
<text text-anchor="middle" x="4799.39" y="-174.3" font-family="Times,serif" font-size="14.00">double</text>
</g>
<!-- case to phenotypic feature association&#45;&gt;has quotient -->
<g id="edge31" class="edge">
<title>case to phenotypic feature association&#45;&gt;has quotient</title>
<path fill="none" stroke="blue" d="M2890.32,-251.67C2913.92,-249.79 2938.39,-248.1 2961.39,-247 3058.84,-242.32 4623.6,-255.86 4717.39,-229 4737.36,-223.28 4757.31,-211.29 4772.53,-200.49"/>
<polygon fill="blue" stroke="blue" points="4774.93,-203.06 4780.91,-194.32 4770.78,-197.43 4774.93,-203.06"/>
<text text-anchor="middle" x="4796.39" y="-217.8" font-family="Times,serif" font-size="14.00">has quotient</text>
</g>
<!-- has percentage -->
<g id="node35" class="node">
<title>has percentage</title>
<ellipse fill="none" stroke="blue" cx="4906.39" cy="-178" rx="42.49" ry="18"/>
<text text-anchor="middle" x="4906.39" y="-174.3" font-family="Times,serif" font-size="14.00">double</text>
</g>
<!-- case to phenotypic feature association&#45;&gt;has percentage -->
<g id="edge32" class="edge">
<title>case to phenotypic feature association&#45;&gt;has percentage</title>
<path fill="none" stroke="blue" d="M2890.32,-251.66C2913.92,-249.78 2938.39,-248.1 2961.39,-247 3013.67,-244.51 4796.2,-246.85 4845.39,-229 4860.31,-223.59 4874.22,-212.83 4884.98,-202.68"/>
<polygon fill="blue" stroke="blue" points="4887.6,-205.01 4892.23,-195.47 4882.67,-200.04 4887.6,-205.01"/>
<text text-anchor="middle" x="4926.39" y="-217.8" font-family="Times,serif" font-size="14.00">has percentage</text>
</g>
<!-- subject&#45;&gt;object -->
<g id="edge33" class="edge">
<title>subject&#45;&gt;object</title>
<path fill="none" stroke="black" d="M1655.29,-160.61C1670.2,-147.68 1691.19,-129.47 1707.8,-115.07"/>
<polygon fill="black" stroke="black" points="1710.3,-117.53 1715.56,-108.34 1705.71,-112.25 1710.3,-117.53"/>
<text text-anchor="middle" x="1719.39" y="-130.8" font-family="Times,serif" font-size="14.00">relation</text>
</g>
<!-- relation -->
<g id="node36" class="node">
<title>relation</title>
<ellipse fill="none" stroke="black" cx="1648.39" cy="-18" rx="46.59" ry="18"/>
<text text-anchor="middle" x="1648.39" y="-14.3" font-family="Times,serif" font-size="14.00">relation</text>
</g>
<!-- subject&#45;&gt;relation -->
<g id="edge34" class="edge">
<title>subject&#45;&gt;relation</title>
<path fill="none" stroke="black" stroke-dasharray="1,5" d="M1637.7,-159.79C1639.78,-132.48 1643.84,-78.99 1646.31,-46.38"/>
<polygon fill="black" stroke="black" points="1649.82,-46.42 1647.09,-36.19 1642.84,-45.89 1649.82,-46.42"/>
</g>
<!-- object&#45;&gt;relation -->
<g id="edge35" class="edge">
<title>object&#45;&gt;relation</title>
<path fill="none" stroke="black" stroke-dasharray="1,5" d="M1714.45,-73.53C1702.81,-63.92 1687.97,-51.67 1675.3,-41.21"/>
<polygon fill="black" stroke="black" points="1677.29,-38.31 1667.35,-34.65 1672.83,-43.71 1677.29,-38.31"/>
</g>
<!-- association_type -->
<g id="node25" class="node">
<title>association_type</title>
<ellipse fill="none" stroke="blue" cx="3008.39" cy="-265" rx="38.19" ry="18"/>
<text text-anchor="middle" x="3008.39" y="-261.3" font-family="Times,serif" font-size="14.00">string</text>
</g>
<!-- association_category -->
<g id="node27" class="node">
<title>association_category</title>
<ellipse fill="none" stroke="blue" cx="3139.39" cy="-265" rx="74.99" ry="18"/>
<text text-anchor="middle" x="3139.39" y="-261.3" font-family="Times,serif" font-size="14.00">category type</text>
</g>
</g>
</svg>
