<?xml version="1.0" encoding="UTF-8" standalone="no"?>
<!DOCTYPE svg PUBLIC "-//W3C//DTD SVG 1.1//EN"
 "http://www.w3.org/Graphics/SVG/1.1/DTD/svg11.dtd">
<!-- Generated by graphviz version 2.43.0 (0)
 -->
<!-- Title: %3 Pages: 1 -->
<svg width="4019pt" height="291pt"
 viewBox="0.00 0.00 4018.59 291.00" xmlns="http://www.w3.org/2000/svg" xmlns:xlink="http://www.w3.org/1999/xlink">
<g id="graph0" class="graph" transform="scale(1 1) rotate(0) translate(4 287)">
<title>%3</title>
<polygon fill="white" stroke="transparent" points="-4,4 -4,-287 4014.59,-287 4014.59,4 -4,4"/>
<!-- cell line to disease or phenotypic feature association -->
<g id="node1" class="node">
<title>cell line to disease or phenotypic feature association</title>
<ellipse fill="none" stroke="black" cx="2216.39" cy="-265" rx="254.55" ry="18"/>
<text text-anchor="middle" x="2216.39" y="-261.3" font-family="Times,serif" font-size="14.00">cell line to disease or phenotypic feature association</text>
</g>
<!-- association -->
<g id="node2" class="node">
<title>association</title>
<ellipse fill="none" stroke="black" cx="62.39" cy="-178" rx="62.29" ry="18"/>
<text text-anchor="middle" x="62.39" y="-174.3" font-family="Times,serif" font-size="14.00">association</text>
</g>
<!-- cell line to disease or phenotypic feature association&#45;&gt;association -->
<g id="edge1" class="edge">
<title>cell line to disease or phenotypic feature association&#45;&gt;association</title>
<path fill="none" stroke="black" d="M1967.99,-260.9C1668.16,-256.54 1148.71,-247.04 703.39,-229 449.84,-218.73 384.44,-233.02 133.39,-196 127.91,-195.19 122.22,-194.16 116.57,-193.01"/>
<polygon fill="black" stroke="black" points="116.98,-189.52 106.47,-190.83 115.51,-196.36 116.98,-189.52"/>
<text text-anchor="middle" x="717.39" y="-217.8" font-family="Times,serif" font-size="14.00">is_a</text>
</g>
<!-- cell line to entity association mixin -->
<g id="node3" class="node">
<title>cell line to entity association mixin</title>
<ellipse fill="none" stroke="black" cx="315.39" cy="-178" rx="172.77" ry="18"/>
<text text-anchor="middle" x="315.39" y="-174.3" font-family="Times,serif" font-size="14.00">cell line to entity association mixin</text>
</g>
<!-- cell line to disease or phenotypic feature association&#45;&gt;cell line to entity association mixin -->
<g id="edge2" class="edge">
<title>cell line to disease or phenotypic feature association&#45;&gt;cell line to entity association mixin</title>
<path fill="none" stroke="black" d="M1973.44,-259.51C1729.24,-254.4 1342.08,-244.67 1007.39,-229 780.5,-218.38 723.83,-213.9 497.39,-196 481,-194.7 463.78,-193.24 446.75,-191.72"/>
<polygon fill="black" stroke="black" points="447.02,-188.23 436.75,-190.82 446.39,-195.2 447.02,-188.23"/>
<text text-anchor="middle" x="1023.89" y="-217.8" font-family="Times,serif" font-size="14.00">uses</text>
</g>
<!-- entity to disease or phenotypic feature association mixin -->
<g id="node4" class="node">
<title>entity to disease or phenotypic feature association mixin</title>
<ellipse fill="none" stroke="black" cx="780.39" cy="-178" rx="274.05" ry="18"/>
<text text-anchor="middle" x="780.39" y="-174.3" font-family="Times,serif" font-size="14.00">entity to disease or phenotypic feature association mixin</text>
</g>
<!-- cell line to disease or phenotypic feature association&#45;&gt;entity to disease or phenotypic feature association mixin -->
<g id="edge3" class="edge">
<title>cell line to disease or phenotypic feature association&#45;&gt;entity to disease or phenotypic feature association mixin</title>
<path fill="none" stroke="black" d="M1966.22,-261.56C1758.26,-258.07 1454.71,-249.59 1190.39,-229 1091.23,-221.28 979.15,-207.24 897.27,-196"/>
<polygon fill="black" stroke="black" points="897.57,-192.51 887.18,-194.61 896.61,-199.45 897.57,-192.51"/>
<text text-anchor="middle" x="1206.89" y="-217.8" font-family="Times,serif" font-size="14.00">uses</text>
</g>
<!-- id -->
<g id="node5" class="node">
<title>id</title>
<ellipse fill="none" stroke="blue" cx="1111.39" cy="-178" rx="38.19" ry="18"/>
<text text-anchor="middle" x="1111.39" y="-174.3" font-family="Times,serif" font-size="14.00">string</text>
</g>
<!-- cell line to disease or phenotypic feature association&#45;&gt;id -->
<g id="edge4" class="edge">
<title>cell line to disease or phenotypic feature association&#45;&gt;id</title>
<path fill="none" stroke="blue" d="M1975.34,-259.15C1753.11,-253.85 1439.77,-244.05 1317.39,-229 1246.19,-220.24 1228.47,-215.35 1159.39,-196 1156.29,-195.13 1153.09,-194.16 1149.89,-193.14"/>
<polygon fill="blue" stroke="blue" points="1150.98,-189.81 1140.38,-189.97 1148.76,-196.46 1150.98,-189.81"/>
<text text-anchor="middle" x="1324.39" y="-217.8" font-family="Times,serif" font-size="14.00">id</text>
</g>
<!-- iri -->
<g id="node6" class="node">
<title>iri</title>
<ellipse fill="none" stroke="blue" cx="1212.39" cy="-178" rx="44.39" ry="18"/>
<text text-anchor="middle" x="1212.39" y="-174.3" font-family="Times,serif" font-size="14.00">iri type</text>
</g>
<!-- cell line to disease or phenotypic feature association&#45;&gt;iri -->
<g id="edge5" class="edge">
<title>cell line to disease or phenotypic feature association&#45;&gt;iri</title>
<path fill="none" stroke="blue" d="M1962.3,-263.54C1805.54,-260.6 1600.66,-251.99 1420.39,-229 1350.53,-220.09 1333.46,-214.11 1265.39,-196 1262.02,-195.1 1258.55,-194.12 1255.07,-193.1"/>
<polygon fill="blue" stroke="blue" points="1255.91,-189.69 1245.32,-190.13 1253.87,-196.39 1255.91,-189.69"/>
<text text-anchor="middle" x="1428.39" y="-217.8" font-family="Times,serif" font-size="14.00">iri</text>
</g>
<!-- name -->
<g id="node7" class="node">
<title>name</title>
<ellipse fill="none" stroke="blue" cx="1331.39" cy="-178" rx="56.59" ry="18"/>
<text text-anchor="middle" x="1331.39" y="-174.3" font-family="Times,serif" font-size="14.00">label type</text>
</g>
<!-- cell line to disease or phenotypic feature association&#45;&gt;name -->
<g id="edge6" class="edge">
<title>cell line to disease or phenotypic feature association&#45;&gt;name</title>
<path fill="none" stroke="blue" d="M1978.91,-258.41C1807.07,-253.22 1590.08,-243.99 1501.39,-229 1458.19,-221.7 1410.43,-207.04 1376.57,-195.48"/>
<polygon fill="blue" stroke="blue" points="1377.56,-192.11 1366.96,-192.15 1375.27,-198.73 1377.56,-192.11"/>
<text text-anchor="middle" x="1521.39" y="-217.8" font-family="Times,serif" font-size="14.00">name</text>
</g>
<!-- description -->
<g id="node8" class="node">
<title>description</title>
<ellipse fill="none" stroke="blue" cx="1481.39" cy="-178" rx="75.29" ry="18"/>
<text text-anchor="middle" x="1481.39" y="-174.3" font-family="Times,serif" font-size="14.00">narrative text</text>
</g>
<!-- cell line to disease or phenotypic feature association&#45;&gt;description -->
<g id="edge7" class="edge">
<title>cell line to disease or phenotypic feature association&#45;&gt;description</title>
<path fill="none" stroke="blue" d="M1969.51,-260.52C1823.54,-256.48 1653.69,-247.77 1582.39,-229 1558.98,-222.84 1534.6,-210.95 1515.66,-200.31"/>
<polygon fill="blue" stroke="blue" points="1517.24,-197.18 1506.83,-195.22 1513.75,-203.24 1517.24,-197.18"/>
<text text-anchor="middle" x="1622.89" y="-217.8" font-family="Times,serif" font-size="14.00">description</text>
</g>
<!-- has attribute -->
<g id="node9" class="node">
<title>has attribute</title>
<ellipse fill="none" stroke="blue" cx="1626.39" cy="-178" rx="51.99" ry="18"/>
<text text-anchor="middle" x="1626.39" y="-174.3" font-family="Times,serif" font-size="14.00">attribute</text>
</g>
<!-- cell line to disease or phenotypic feature association&#45;&gt;has attribute -->
<g id="edge8" class="edge">
<title>cell line to disease or phenotypic feature association&#45;&gt;has attribute</title>
<path fill="none" stroke="blue" d="M1968.91,-260.7C1859.3,-256.54 1743.86,-247.65 1693.39,-229 1677.47,-223.11 1662.1,-212.16 1650.11,-202.01"/>
<polygon fill="blue" stroke="blue" points="1652.2,-199.18 1642.39,-195.18 1647.56,-204.42 1652.2,-199.18"/>
<text text-anchor="middle" x="1740.39" y="-217.8" font-family="Times,serif" font-size="14.00">has attribute</text>
</g>
<!-- predicate -->
<g id="node10" class="node">
<title>predicate</title>
<ellipse fill="none" stroke="blue" cx="1774.39" cy="-178" rx="77.99" ry="18"/>
<text text-anchor="middle" x="1774.39" y="-174.3" font-family="Times,serif" font-size="14.00">predicate type</text>
</g>
<!-- cell line to disease or phenotypic feature association&#45;&gt;predicate -->
<g id="edge9" class="edge">
<title>cell line to disease or phenotypic feature association&#45;&gt;predicate</title>
<path fill="none" stroke="blue" d="M2010.31,-254.4C1917.69,-248.62 1824.91,-240.18 1806.39,-229 1797.36,-223.54 1790.43,-214.45 1785.37,-205.5"/>
<polygon fill="blue" stroke="blue" points="1788.4,-203.73 1780.76,-196.39 1782.15,-206.89 1788.4,-203.73"/>
<text text-anchor="middle" x="1840.39" y="-217.8" font-family="Times,serif" font-size="14.00">predicate</text>
</g>
<!-- object -->
<g id="node11" class="node">
<title>object</title>
<ellipse fill="none" stroke="blue" cx="3868.39" cy="-91" rx="69.59" ry="18"/>
<text text-anchor="middle" x="3868.39" y="-87.3" font-family="Times,serif" font-size="14.00">named thing</text>
</g>
<!-- cell line to disease or phenotypic feature association&#45;&gt;object -->
<g id="edge10" class="edge">
<title>cell line to disease or phenotypic feature association&#45;&gt;object</title>
<path fill="none" stroke="blue" d="M2024.85,-253.12C1929.31,-240.88 1844.32,-214.93 1897.39,-160 1964.13,-90.93 3428.38,-90.7 3788.79,-91.7"/>
<polygon fill="blue" stroke="blue" points="3788.86,-95.2 3798.87,-91.72 3788.88,-88.2 3788.86,-95.2"/>
<text text-anchor="middle" x="1919.39" y="-174.3" font-family="Times,serif" font-size="14.00">object</text>
</g>
<!-- negated -->
<g id="node12" class="node">
<title>negated</title>
<ellipse fill="none" stroke="blue" cx="1997.39" cy="-178" rx="46.59" ry="18"/>
<text text-anchor="middle" x="1997.39" y="-174.3" font-family="Times,serif" font-size="14.00">boolean</text>
</g>
<!-- cell line to disease or phenotypic feature association&#45;&gt;negated -->
<g id="edge11" class="edge">
<title>cell line to disease or phenotypic feature association&#45;&gt;negated</title>
<path fill="none" stroke="blue" d="M2163.18,-247.31C2146.49,-241.8 2128.07,-235.42 2111.39,-229 2085.74,-219.12 2057.44,-206.72 2035.46,-196.74"/>
<polygon fill="blue" stroke="blue" points="2036.69,-193.45 2026.14,-192.48 2033.78,-199.82 2036.69,-193.45"/>
<text text-anchor="middle" x="2140.39" y="-217.8" font-family="Times,serif" font-size="14.00">negated</text>
</g>
<!-- qualifiers -->
<g id="node13" class="node">
<title>qualifiers</title>
<ellipse fill="none" stroke="blue" cx="2138.39" cy="-178" rx="76.89" ry="18"/>
<text text-anchor="middle" x="2138.39" y="-174.3" font-family="Times,serif" font-size="14.00">ontology class</text>
</g>
<!-- cell line to disease or phenotypic feature association&#45;&gt;qualifiers -->
<g id="edge12" class="edge">
<title>cell line to disease or phenotypic feature association&#45;&gt;qualifiers</title>
<path fill="none" stroke="blue" d="M2200.61,-246.8C2189.22,-234.39 2173.68,-217.46 2160.99,-203.62"/>
<polygon fill="blue" stroke="blue" points="2163.23,-200.89 2153.89,-195.89 2158.07,-205.62 2163.23,-200.89"/>
<text text-anchor="middle" x="2215.89" y="-217.8" font-family="Times,serif" font-size="14.00">qualifiers</text>
</g>
<!-- publications -->
<g id="node14" class="node">
<title>publications</title>
<ellipse fill="none" stroke="blue" cx="2295.39" cy="-178" rx="62.29" ry="18"/>
<text text-anchor="middle" x="2295.39" y="-174.3" font-family="Times,serif" font-size="14.00">publication</text>
</g>
<!-- cell line to disease or phenotypic feature association&#45;&gt;publications -->
<g id="edge13" class="edge">
<title>cell line to disease or phenotypic feature association&#45;&gt;publications</title>
<path fill="none" stroke="blue" d="M2235.24,-246.96C2241.19,-241.37 2247.69,-235.05 2253.39,-229 2260.98,-220.96 2268.88,-211.79 2275.75,-203.52"/>
<polygon fill="blue" stroke="blue" points="2278.59,-205.57 2282.23,-195.62 2273.18,-201.13 2278.59,-205.57"/>
<text text-anchor="middle" x="2311.39" y="-217.8" font-family="Times,serif" font-size="14.00">publications</text>
</g>
<!-- has evidence -->
<g id="node15" class="node">
<title>has evidence</title>
<ellipse fill="none" stroke="blue" cx="2451.39" cy="-178" rx="75.29" ry="18"/>
<text text-anchor="middle" x="2451.39" y="-174.3" font-family="Times,serif" font-size="14.00">evidence type</text>
</g>
<!-- cell line to disease or phenotypic feature association&#45;&gt;has evidence -->
<g id="edge14" class="edge">
<title>cell line to disease or phenotypic feature association&#45;&gt;has evidence</title>
<path fill="none" stroke="blue" d="M2298.06,-247.85C2318.41,-242.79 2339.97,-236.51 2359.39,-229 2379.28,-221.31 2400.25,-210.17 2417.15,-200.36"/>
<polygon fill="blue" stroke="blue" points="2419.25,-203.18 2426.08,-195.08 2415.69,-197.16 2419.25,-203.18"/>
<text text-anchor="middle" x="2437.89" y="-217.8" font-family="Times,serif" font-size="14.00">has evidence</text>
</g>
<!-- knowledge source -->
<g id="node16" class="node">
<title>knowledge source</title>
<ellipse fill="none" stroke="blue" cx="2653.39" cy="-178" rx="108.58" ry="18"/>
<text text-anchor="middle" x="2653.39" y="-174.3" font-family="Times,serif" font-size="14.00">information resource</text>
</g>
<!-- cell line to disease or phenotypic feature association&#45;&gt;knowledge source -->
<g id="edge15" class="edge">
<title>cell line to disease or phenotypic feature association&#45;&gt;knowledge source</title>
<path fill="none" stroke="blue" d="M2359.73,-250.08C2401.46,-244.81 2446.96,-237.88 2488.39,-229 2526.19,-220.9 2567.84,-208.25 2599.84,-197.7"/>
<polygon fill="blue" stroke="blue" points="2601.07,-200.98 2609.45,-194.5 2598.85,-194.34 2601.07,-200.98"/>
<text text-anchor="middle" x="2608.89" y="-217.8" font-family="Times,serif" font-size="14.00">knowledge source</text>
</g>
<!-- primary knowledge source -->
<g id="node17" class="node">
<title>primary knowledge source</title>
<ellipse fill="none" stroke="blue" cx="2888.39" cy="-178" rx="108.58" ry="18"/>
<text text-anchor="middle" x="2888.39" y="-174.3" font-family="Times,serif" font-size="14.00">information resource</text>
</g>
<!-- cell line to disease or phenotypic feature association&#45;&gt;primary knowledge source -->
<g id="edge16" class="edge">
<title>cell line to disease or phenotypic feature association&#45;&gt;primary knowledge source</title>
<path fill="none" stroke="blue" d="M2392.48,-251.96C2510.48,-243.67 2649.24,-233.38 2677.39,-229 2728.02,-221.13 2784.45,-207.5 2826.2,-196.45"/>
<polygon fill="blue" stroke="blue" points="2827.19,-199.81 2835.95,-193.85 2825.39,-193.05 2827.19,-199.81"/>
<text text-anchor="middle" x="2849.39" y="-217.8" font-family="Times,serif" font-size="14.00">primary knowledge source</text>
</g>
<!-- aggregator knowledge source -->
<g id="node18" class="node">
<title>aggregator knowledge source</title>
<ellipse fill="none" stroke="blue" cx="3123.39" cy="-178" rx="108.58" ry="18"/>
<text text-anchor="middle" x="3123.39" y="-174.3" font-family="Times,serif" font-size="14.00">information resource</text>
</g>
<!-- cell line to disease or phenotypic feature association&#45;&gt;aggregator knowledge source -->
<g id="edge17" class="edge">
<title>cell line to disease or phenotypic feature association&#45;&gt;aggregator knowledge source</title>
<path fill="none" stroke="blue" d="M2392.8,-252.01C2422.05,-250.2 2452.07,-248.46 2480.39,-247 2688.27,-236.31 2742.85,-261.83 2948.39,-229 2990,-222.36 3035.74,-209.07 3070.02,-197.86"/>
<polygon fill="blue" stroke="blue" points="3071.43,-201.08 3079.82,-194.61 3069.23,-194.44 3071.43,-201.08"/>
<text text-anchor="middle" x="3118.89" y="-217.8" font-family="Times,serif" font-size="14.00">aggregator knowledge source</text>
</g>
<!-- timepoint -->
<g id="node19" class="node">
<title>timepoint</title>
<ellipse fill="none" stroke="blue" cx="3305.39" cy="-178" rx="55.49" ry="18"/>
<text text-anchor="middle" x="3305.39" y="-174.3" font-family="Times,serif" font-size="14.00">time type</text>
</g>
<!-- cell line to disease or phenotypic feature association&#45;&gt;timepoint -->
<g id="edge18" class="edge">
<title>cell line to disease or phenotypic feature association&#45;&gt;timepoint</title>
<path fill="none" stroke="blue" d="M2390.3,-251.8C2420.33,-249.98 2451.26,-248.29 2480.39,-247 2563.56,-243.32 3149.94,-253.84 3229.39,-229 3247.5,-223.34 3265.34,-211.99 3279.18,-201.53"/>
<polygon fill="blue" stroke="blue" points="3281.55,-204.12 3287.25,-195.2 3277.22,-198.62 3281.55,-204.12"/>
<text text-anchor="middle" x="3296.39" y="-217.8" font-family="Times,serif" font-size="14.00">timepoint</text>
</g>
<!-- original subject -->
<g id="node20" class="node">
<title>original subject</title>
<ellipse fill="none" stroke="blue" cx="3417.39" cy="-178" rx="38.19" ry="18"/>
<text text-anchor="middle" x="3417.39" y="-174.3" font-family="Times,serif" font-size="14.00">string</text>
</g>
<!-- cell line to disease or phenotypic feature association&#45;&gt;original subject -->
<g id="edge19" class="edge">
<title>cell line to disease or phenotypic feature association&#45;&gt;original subject</title>
<path fill="none" stroke="blue" d="M2389.59,-251.77C2419.84,-249.94 2451.03,-248.25 2480.39,-247 2575.33,-242.95 3244.19,-255.65 3335.39,-229 3355.46,-223.14 3375.54,-211.02 3390.81,-200.18"/>
<polygon fill="blue" stroke="blue" points="3393.23,-202.75 3399.21,-194.01 3389.08,-197.11 3393.23,-202.75"/>
<text text-anchor="middle" x="3425.39" y="-217.8" font-family="Times,serif" font-size="14.00">original subject</text>
</g>
<!-- original predicate -->
<g id="node21" class="node">
<title>original predicate</title>
<ellipse fill="none" stroke="blue" cx="3531.39" cy="-178" rx="57.39" ry="18"/>
<text text-anchor="middle" x="3531.39" y="-174.3" font-family="Times,serif" font-size="14.00">uriorcurie</text>
</g>
<!-- cell line to disease or phenotypic feature association&#45;&gt;original predicate -->
<g id="edge20" class="edge">
<title>cell line to disease or phenotypic feature association&#45;&gt;original predicate</title>
<path fill="none" stroke="blue" d="M2388.87,-251.74C2419.35,-249.9 2450.8,-248.22 2480.39,-247 2536.19,-244.71 3434.46,-251.9 3485.39,-229 3497.21,-223.69 3507.35,-213.73 3515.09,-204.09"/>
<polygon fill="blue" stroke="blue" points="3518.07,-205.94 3521.24,-195.83 3512.46,-201.76 3518.07,-205.94"/>
<text text-anchor="middle" x="3569.89" y="-217.8" font-family="Times,serif" font-size="14.00">original predicate</text>
</g>
<!-- original object -->
<g id="node22" class="node">
<title>original object</title>
<ellipse fill="none" stroke="blue" cx="3663.39" cy="-178" rx="38.19" ry="18"/>
<text text-anchor="middle" x="3663.39" y="-174.3" font-family="Times,serif" font-size="14.00">string</text>
</g>
<!-- cell line to disease or phenotypic feature association&#45;&gt;original object -->
<g id="edge21" class="edge">
<title>cell line to disease or phenotypic feature association&#45;&gt;original object</title>
<path fill="none" stroke="blue" d="M2388.52,-251.7C2419.11,-249.86 2450.68,-248.19 2480.39,-247 2512.51,-245.72 3610.05,-245.89 3637.39,-229 3645.95,-223.71 3651.83,-214.61 3655.8,-205.6"/>
<polygon fill="blue" stroke="blue" points="3659.15,-206.65 3659.4,-196.06 3652.59,-204.18 3659.15,-206.65"/>
<text text-anchor="middle" x="3702.89" y="-217.8" font-family="Times,serif" font-size="14.00">original object</text>
</g>
<!-- type -->
<g id="node23" class="node">
<title>type</title>
<ellipse fill="none" stroke="black" cx="3751.39" cy="-178" rx="31.4" ry="18"/>
<text text-anchor="middle" x="3751.39" y="-174.3" font-family="Times,serif" font-size="14.00">type</text>
</g>
<!-- cell line to disease or phenotypic feature association&#45;&gt;type -->
<g id="edge22" class="edge">
<title>cell line to disease or phenotypic feature association&#45;&gt;type</title>
<path fill="none" stroke="blue" d="M2388.16,-251.68C2418.86,-249.84 2450.56,-248.17 2480.39,-247 2498.13,-246.3 3745.93,-241.64 3758.39,-229 3764.5,-222.81 3764.82,-213.91 3762.93,-205.33"/>
<polygon fill="blue" stroke="blue" points="3766.21,-204.1 3759.9,-195.59 3759.52,-206.17 3766.21,-204.1"/>
<text text-anchor="middle" x="3780.39" y="-217.8" font-family="Times,serif" font-size="14.00">type</text>
</g>
<!-- category -->
<g id="node25" class="node">
<title>category</title>
<ellipse fill="none" stroke="black" cx="3852.39" cy="-178" rx="51.19" ry="18"/>
<text text-anchor="middle" x="3852.39" y="-174.3" font-family="Times,serif" font-size="14.00">category</text>
</g>
<!-- cell line to disease or phenotypic feature association&#45;&gt;category -->
<g id="edge23" class="edge">
<title>cell line to disease or phenotypic feature association&#45;&gt;category</title>
<path fill="none" stroke="blue" d="M2388.16,-251.67C2418.86,-249.83 2450.56,-248.16 2480.39,-247 2517.04,-245.57 3766.47,-242.93 3800.39,-229 3813.38,-223.67 3824.95,-213.43 3833.87,-203.59"/>
<polygon fill="blue" stroke="blue" points="3836.61,-205.78 3840.43,-195.9 3831.28,-201.24 3836.61,-205.78"/>
<text text-anchor="middle" x="3853.89" y="-217.8" font-family="Times,serif" font-size="14.00">category</text>
</g>
<!-- subject -->
<g id="node27" class="node">
<title>subject</title>
<ellipse fill="none" stroke="black" cx="3966.39" cy="-178" rx="44.39" ry="18"/>
<text text-anchor="middle" x="3966.39" y="-174.3" font-family="Times,serif" font-size="14.00">subject</text>
</g>
<!-- cell line to disease or phenotypic feature association&#45;&gt;subject -->
<g id="edge24" class="edge">
<title>cell line to disease or phenotypic feature association&#45;&gt;subject</title>
<path fill="none" stroke="blue" d="M2387.81,-251.67C2418.62,-249.83 2450.45,-248.15 2480.39,-247 2558.62,-243.98 3814.48,-251.71 3889.39,-229 3908.09,-223.33 3926.53,-211.63 3940.68,-200.97"/>
<polygon fill="blue" stroke="blue" points="3943.19,-203.46 3948.9,-194.53 3938.87,-197.95 3943.19,-203.46"/>
<text text-anchor="middle" x="3946.39" y="-217.8" font-family="Times,serif" font-size="14.00">subject</text>
</g>
<!-- relation -->
<g id="node29" class="node">
<title>relation</title>
<ellipse fill="none" stroke="black" cx="3917.39" cy="-18" rx="46.59" ry="18"/>
<text text-anchor="middle" x="3917.39" y="-14.3" font-family="Times,serif" font-size="14.00">relation</text>
</g>
<!-- object&#45;&gt;relation -->
<g id="edge27" class="edge">
<title>object&#45;&gt;relation</title>
<path fill="none" stroke="black" stroke-dasharray="1,5" d="M3880.01,-73.17C3885.99,-64.51 3893.4,-53.77 3900.04,-44.14"/>
<polygon fill="black" stroke="black" points="3903.07,-45.92 3905.87,-35.71 3897.3,-41.95 3903.07,-45.92"/>
</g>
<!-- association_type -->
<g id="node24" class="node">
<title>association_type</title>
<ellipse fill="none" stroke="blue" cx="2527.39" cy="-265" rx="38.19" ry="18"/>
<text text-anchor="middle" x="2527.39" y="-261.3" font-family="Times,serif" font-size="14.00">string</text>
</g>
<!-- association_category -->
<g id="node26" class="node">
<title>association_category</title>
<ellipse fill="none" stroke="blue" cx="2658.39" cy="-265" rx="74.99" ry="18"/>
<text text-anchor="middle" x="2658.39" y="-261.3" font-family="Times,serif" font-size="14.00">category type</text>
</g>
<!-- subject&#45;&gt;object -->
<g id="edge25" class="edge">
<title>subject&#45;&gt;object</title>
<path fill="none" stroke="black" d="M3933.9,-165.59C3921.13,-159.94 3907.01,-152.13 3896.39,-142 3889.39,-135.31 3883.66,-126.48 3879.25,-118.1"/>
<polygon fill="black" stroke="black" points="3882.34,-116.45 3874.84,-108.97 3876.04,-119.5 3882.34,-116.45"/>
<text text-anchor="middle" x="3924.39" y="-130.8" font-family="Times,serif" font-size="14.00">relation</text>
</g>
<!-- subject&#45;&gt;relation -->
<g id="edge26" class="edge">
<title>subject&#45;&gt;relation</title>
<path fill="none" stroke="black" stroke-dasharray="1,5" d="M3965,-159.99C3962.9,-139.02 3957.98,-102.55 3947.39,-73 3943.91,-63.26 3938.79,-53.19 3933.76,-44.42"/>
<polygon fill="black" stroke="black" points="3936.76,-42.62 3928.63,-35.83 3930.75,-46.21 3936.76,-42.62"/>
</g>
<!-- cell line to disease or phenotypic feature association_subject -->
<g id="node28" class="node">
<title>cell line to disease or phenotypic feature association_subject</title>
<ellipse fill="none" stroke="blue" cx="2900.39" cy="-265" rx="148.67" ry="18"/>
<text text-anchor="middle" x="2900.39" y="-261.3" font-family="Times,serif" font-size="14.00">disease or phenotypic feature</text>
</g>
</g>
</svg>
