<?xml version="1.0" encoding="UTF-8" standalone="no"?>
<!DOCTYPE svg PUBLIC "-//W3C//DTD SVG 1.1//EN"
 "http://www.w3.org/Graphics/SVG/1.1/DTD/svg11.dtd">
<!-- Generated by graphviz version 2.43.0 (0)
 -->
<!-- Title: %3 Pages: 1 -->
<svg width="4649pt" height="291pt"
 viewBox="0.00 0.00 4648.78 291.00" xmlns="http://www.w3.org/2000/svg" xmlns:xlink="http://www.w3.org/1999/xlink">
<g id="graph0" class="graph" transform="scale(1 1) rotate(0) translate(4 287)">
<title>%3</title>
<polygon fill="white" stroke="transparent" points="-4,4 -4,-287 4644.78,-287 4644.78,4 -4,4"/>
<!-- cell line as a model of disease association -->
<g id="node1" class="node">
<title>cell line as a model of disease association</title>
<ellipse fill="none" stroke="black" cx="2627.78" cy="-265" rx="203.36" ry="18"/>
<text text-anchor="middle" x="2627.78" y="-261.3" font-family="Times,serif" font-size="14.00">cell line as a model of disease association</text>
</g>
<!-- cell line to disease or phenotypic feature association -->
<g id="node2" class="node">
<title>cell line to disease or phenotypic feature association</title>
<ellipse fill="none" stroke="black" cx="254.78" cy="-178" rx="254.55" ry="18"/>
<text text-anchor="middle" x="254.78" y="-174.3" font-family="Times,serif" font-size="14.00">cell line to disease or phenotypic feature association</text>
</g>
<!-- cell line as a model of disease association&#45;&gt;cell line to disease or phenotypic feature association -->
<g id="edge1" class="edge">
<title>cell line as a model of disease association&#45;&gt;cell line to disease or phenotypic feature association</title>
<path fill="none" stroke="black" d="M2425.96,-262.58C2118.65,-259.76 1514.97,-251.62 1002.78,-229 805.13,-220.27 578.48,-204.28 426.95,-192.73"/>
<polygon fill="black" stroke="black" points="426.86,-189.21 416.62,-191.94 426.33,-196.19 426.86,-189.21"/>
<text text-anchor="middle" x="1016.78" y="-217.8" font-family="Times,serif" font-size="14.00">is_a</text>
</g>
<!-- model to disease association mixin -->
<g id="node3" class="node">
<title>model to disease association mixin</title>
<ellipse fill="none" stroke="black" cx="699.78" cy="-178" rx="172.47" ry="18"/>
<text text-anchor="middle" x="699.78" y="-174.3" font-family="Times,serif" font-size="14.00">model to disease association mixin</text>
</g>
<!-- cell line as a model of disease association&#45;&gt;model to disease association mixin -->
<g id="edge2" class="edge">
<title>cell line as a model of disease association&#45;&gt;model to disease association mixin</title>
<path fill="none" stroke="black" d="M2424.88,-263.46C2151.23,-261.69 1648.83,-254.83 1220.78,-229 1083.05,-220.69 925.4,-204.64 819.92,-192.97"/>
<polygon fill="black" stroke="black" points="820.2,-189.48 809.88,-191.85 819.43,-196.43 820.2,-189.48"/>
<text text-anchor="middle" x="1237.28" y="-217.8" font-family="Times,serif" font-size="14.00">uses</text>
</g>
<!-- entity to disease association mixin -->
<g id="node4" class="node">
<title>entity to disease association mixin</title>
<ellipse fill="none" stroke="black" cx="1060.78" cy="-178" rx="170.87" ry="18"/>
<text text-anchor="middle" x="1060.78" y="-174.3" font-family="Times,serif" font-size="14.00">entity to disease association mixin</text>
</g>
<!-- cell line as a model of disease association&#45;&gt;entity to disease association mixin -->
<g id="edge3" class="edge">
<title>cell line as a model of disease association&#45;&gt;entity to disease association mixin</title>
<path fill="none" stroke="black" d="M2427.62,-261.72C2125.3,-257.72 1566.34,-247.99 1366.78,-229 1291.78,-221.86 1207.32,-207.59 1146.17,-196.11"/>
<polygon fill="black" stroke="black" points="1146.65,-192.64 1136.18,-194.22 1145.35,-199.52 1146.65,-192.64"/>
<text text-anchor="middle" x="1383.28" y="-217.8" font-family="Times,serif" font-size="14.00">uses</text>
</g>
<!-- id -->
<g id="node5" class="node">
<title>id</title>
<ellipse fill="none" stroke="blue" cx="1287.78" cy="-178" rx="38.19" ry="18"/>
<text text-anchor="middle" x="1287.78" y="-174.3" font-family="Times,serif" font-size="14.00">string</text>
</g>
<!-- cell line as a model of disease association&#45;&gt;id -->
<g id="edge4" class="edge">
<title>cell line as a model of disease association&#45;&gt;id</title>
<path fill="none" stroke="blue" d="M2427.02,-262.07C2150.71,-258.67 1667.54,-249.9 1492.78,-229 1421.98,-220.53 1404.42,-215.28 1335.78,-196 1332.67,-195.13 1329.47,-194.16 1326.28,-193.14"/>
<polygon fill="blue" stroke="blue" points="1327.36,-189.81 1316.77,-189.97 1325.15,-196.45 1327.36,-189.81"/>
<text text-anchor="middle" x="1499.78" y="-217.8" font-family="Times,serif" font-size="14.00">id</text>
</g>
<!-- iri -->
<g id="node6" class="node">
<title>iri</title>
<ellipse fill="none" stroke="blue" cx="1388.78" cy="-178" rx="44.39" ry="18"/>
<text text-anchor="middle" x="1388.78" y="-174.3" font-family="Times,serif" font-size="14.00">iri type</text>
</g>
<!-- cell line as a model of disease association&#45;&gt;iri -->
<g id="edge5" class="edge">
<title>cell line as a model of disease association&#45;&gt;iri</title>
<path fill="none" stroke="blue" d="M2428.14,-261.47C2174.28,-257.52 1750.27,-248.25 1594.78,-229 1525.74,-220.45 1508.98,-213.98 1441.78,-196 1438.41,-195.1 1434.94,-194.11 1431.46,-193.09"/>
<polygon fill="blue" stroke="blue" points="1432.29,-189.68 1421.71,-190.11 1430.25,-196.38 1432.29,-189.68"/>
<text text-anchor="middle" x="1602.78" y="-217.8" font-family="Times,serif" font-size="14.00">iri</text>
</g>
<!-- name -->
<g id="node7" class="node">
<title>name</title>
<ellipse fill="none" stroke="blue" cx="1507.78" cy="-178" rx="56.59" ry="18"/>
<text text-anchor="middle" x="1507.78" y="-174.3" font-family="Times,serif" font-size="14.00">label type</text>
</g>
<!-- cell line as a model of disease association&#45;&gt;name -->
<g id="edge6" class="edge">
<title>cell line as a model of disease association&#45;&gt;name</title>
<path fill="none" stroke="blue" d="M2425.96,-262.59C2189.97,-259.89 1813.93,-252 1674.78,-229 1632.25,-221.97 1585.34,-207.28 1552.1,-195.64"/>
<polygon fill="blue" stroke="blue" points="1553.27,-192.34 1542.67,-192.29 1550.92,-198.93 1553.27,-192.34"/>
<text text-anchor="middle" x="1694.78" y="-217.8" font-family="Times,serif" font-size="14.00">name</text>
</g>
<!-- description -->
<g id="node8" class="node">
<title>description</title>
<ellipse fill="none" stroke="blue" cx="1657.78" cy="-178" rx="75.29" ry="18"/>
<text text-anchor="middle" x="1657.78" y="-174.3" font-family="Times,serif" font-size="14.00">narrative text</text>
</g>
<!-- cell line as a model of disease association&#45;&gt;description -->
<g id="edge7" class="edge">
<title>cell line as a model of disease association&#45;&gt;description</title>
<path fill="none" stroke="blue" d="M2430.87,-260.4C2194.5,-255.4 1821.87,-245.11 1758.78,-229 1735.15,-222.97 1710.6,-210.96 1691.62,-200.23"/>
<polygon fill="blue" stroke="blue" points="1693.18,-197.09 1682.77,-195.09 1689.66,-203.14 1693.18,-197.09"/>
<text text-anchor="middle" x="1799.28" y="-217.8" font-family="Times,serif" font-size="14.00">description</text>
</g>
<!-- has attribute -->
<g id="node9" class="node">
<title>has attribute</title>
<ellipse fill="none" stroke="blue" cx="1802.78" cy="-178" rx="51.99" ry="18"/>
<text text-anchor="middle" x="1802.78" y="-174.3" font-family="Times,serif" font-size="14.00">attribute</text>
</g>
<!-- cell line as a model of disease association&#45;&gt;has attribute -->
<g id="edge8" class="edge">
<title>cell line as a model of disease association&#45;&gt;has attribute</title>
<path fill="none" stroke="blue" d="M2429.81,-260.86C2222.86,-256.61 1921.1,-247.36 1869.78,-229 1853.79,-223.28 1838.42,-212.34 1826.44,-202.15"/>
<polygon fill="blue" stroke="blue" points="1828.53,-199.32 1818.73,-195.29 1823.88,-204.55 1828.53,-199.32"/>
<text text-anchor="middle" x="1916.78" y="-217.8" font-family="Times,serif" font-size="14.00">has attribute</text>
</g>
<!-- predicate -->
<g id="node10" class="node">
<title>predicate</title>
<ellipse fill="none" stroke="blue" cx="1950.78" cy="-178" rx="77.99" ry="18"/>
<text text-anchor="middle" x="1950.78" y="-174.3" font-family="Times,serif" font-size="14.00">predicate type</text>
</g>
<!-- cell line as a model of disease association&#45;&gt;predicate -->
<g id="edge9" class="edge">
<title>cell line as a model of disease association&#45;&gt;predicate</title>
<path fill="none" stroke="blue" d="M2426.71,-262.23C2251.81,-259.21 2020.56,-251.03 1982.78,-229 1973.53,-223.61 1966.51,-214.35 1961.45,-205.26"/>
<polygon fill="blue" stroke="blue" points="1964.44,-203.42 1956.86,-196.02 1958.17,-206.53 1964.44,-203.42"/>
<text text-anchor="middle" x="2016.78" y="-217.8" font-family="Times,serif" font-size="14.00">predicate</text>
</g>
<!-- object -->
<g id="node11" class="node">
<title>object</title>
<ellipse fill="none" stroke="blue" cx="4026.78" cy="-91" rx="69.59" ry="18"/>
<text text-anchor="middle" x="4026.78" y="-87.3" font-family="Times,serif" font-size="14.00">named thing</text>
</g>
<!-- cell line as a model of disease association&#45;&gt;object -->
<g id="edge10" class="edge">
<title>cell line as a model of disease association&#45;&gt;object</title>
<path fill="none" stroke="blue" d="M2460.2,-254.73C2306.42,-244.44 2098.77,-225.31 2073.78,-196 2063.4,-183.82 2062.66,-171.51 2073.78,-160 2139.83,-91.6 3588.38,-90.85 3947.01,-91.72"/>
<polygon fill="blue" stroke="blue" points="3947.04,-95.22 3957.05,-91.75 3947.06,-88.22 3947.04,-95.22"/>
<text text-anchor="middle" x="2095.78" y="-174.3" font-family="Times,serif" font-size="14.00">object</text>
</g>
<!-- negated -->
<g id="node12" class="node">
<title>negated</title>
<ellipse fill="none" stroke="blue" cx="2173.78" cy="-178" rx="46.59" ry="18"/>
<text text-anchor="middle" x="2173.78" y="-174.3" font-family="Times,serif" font-size="14.00">boolean</text>
</g>
<!-- cell line as a model of disease association&#45;&gt;negated -->
<g id="edge11" class="edge">
<title>cell line as a model of disease association&#45;&gt;negated</title>
<path fill="none" stroke="blue" d="M2487.71,-251.91C2440.15,-246.52 2386.89,-239.05 2338.78,-229 2288.81,-218.56 2277.6,-210.87 2228.78,-196 2225.47,-194.99 2222.06,-193.95 2218.63,-192.9"/>
<polygon fill="blue" stroke="blue" points="2219.56,-189.52 2208.97,-189.93 2217.5,-196.21 2219.56,-189.52"/>
<text text-anchor="middle" x="2367.78" y="-217.8" font-family="Times,serif" font-size="14.00">negated</text>
</g>
<!-- qualifiers -->
<g id="node13" class="node">
<title>qualifiers</title>
<ellipse fill="none" stroke="blue" cx="2314.78" cy="-178" rx="76.89" ry="18"/>
<text text-anchor="middle" x="2314.78" y="-174.3" font-family="Times,serif" font-size="14.00">ontology class</text>
</g>
<!-- cell line as a model of disease association&#45;&gt;qualifiers -->
<g id="edge12" class="edge">
<title>cell line as a model of disease association&#45;&gt;qualifiers</title>
<path fill="none" stroke="blue" d="M2530.49,-249.09C2501.97,-243.78 2470.9,-237.08 2442.78,-229 2413.93,-220.71 2382.53,-208.5 2358.04,-198.21"/>
<polygon fill="blue" stroke="blue" points="2359.25,-194.93 2348.68,-194.24 2356.51,-201.37 2359.25,-194.93"/>
<text text-anchor="middle" x="2476.28" y="-217.8" font-family="Times,serif" font-size="14.00">qualifiers</text>
</g>
<!-- publications -->
<g id="node14" class="node">
<title>publications</title>
<ellipse fill="none" stroke="blue" cx="2471.78" cy="-178" rx="62.29" ry="18"/>
<text text-anchor="middle" x="2471.78" y="-174.3" font-family="Times,serif" font-size="14.00">publication</text>
</g>
<!-- cell line as a model of disease association&#45;&gt;publications -->
<g id="edge13" class="edge">
<title>cell line as a model of disease association&#45;&gt;publications</title>
<path fill="none" stroke="blue" d="M2576.41,-247.56C2562.82,-242.39 2548.43,-236.13 2535.78,-229 2522.34,-221.42 2508.69,-211.19 2497.47,-201.95"/>
<polygon fill="blue" stroke="blue" points="2499.67,-199.22 2489.77,-195.45 2495.16,-204.57 2499.67,-199.22"/>
<text text-anchor="middle" x="2579.78" y="-217.8" font-family="Times,serif" font-size="14.00">publications</text>
</g>
<!-- has evidence -->
<g id="node15" class="node">
<title>has evidence</title>
<ellipse fill="none" stroke="blue" cx="2627.78" cy="-178" rx="75.29" ry="18"/>
<text text-anchor="middle" x="2627.78" y="-174.3" font-family="Times,serif" font-size="14.00">evidence type</text>
</g>
<!-- cell line as a model of disease association&#45;&gt;has evidence -->
<g id="edge14" class="edge">
<title>cell line as a model of disease association&#45;&gt;has evidence</title>
<path fill="none" stroke="blue" d="M2627.78,-246.8C2627.78,-235.16 2627.78,-219.55 2627.78,-206.24"/>
<polygon fill="blue" stroke="blue" points="2631.28,-206.18 2627.78,-196.18 2624.28,-206.18 2631.28,-206.18"/>
<text text-anchor="middle" x="2674.28" y="-217.8" font-family="Times,serif" font-size="14.00">has evidence</text>
</g>
<!-- knowledge source -->
<g id="node16" class="node">
<title>knowledge source</title>
<ellipse fill="none" stroke="blue" cx="2829.78" cy="-178" rx="108.58" ry="18"/>
<text text-anchor="middle" x="2829.78" y="-174.3" font-family="Times,serif" font-size="14.00">information resource</text>
</g>
<!-- cell line as a model of disease association&#45;&gt;knowledge source -->
<g id="edge15" class="edge">
<title>cell line as a model of disease association&#45;&gt;knowledge source</title>
<path fill="none" stroke="blue" d="M2676.49,-247.48C2692.04,-241.92 2709.25,-235.48 2724.78,-229 2746.07,-220.11 2769.28,-209.19 2788.45,-199.83"/>
<polygon fill="blue" stroke="blue" points="2790.09,-202.93 2797.51,-195.37 2787,-196.65 2790.09,-202.93"/>
<text text-anchor="middle" x="2822.28" y="-217.8" font-family="Times,serif" font-size="14.00">knowledge source</text>
</g>
<!-- primary knowledge source -->
<g id="node17" class="node">
<title>primary knowledge source</title>
<ellipse fill="none" stroke="blue" cx="3064.78" cy="-178" rx="108.58" ry="18"/>
<text text-anchor="middle" x="3064.78" y="-174.3" font-family="Times,serif" font-size="14.00">information resource</text>
</g>
<!-- cell line as a model of disease association&#45;&gt;primary knowledge source -->
<g id="edge16" class="edge">
<title>cell line as a model of disease association&#45;&gt;primary knowledge source</title>
<path fill="none" stroke="blue" d="M2754.83,-250.93C2798.19,-245.46 2846.82,-238.19 2890.78,-229 2930.68,-220.66 2974.81,-207.94 3008.65,-197.41"/>
<polygon fill="blue" stroke="blue" points="3009.86,-200.7 3018.35,-194.37 3007.76,-194.02 3009.86,-200.7"/>
<text text-anchor="middle" x="3044.78" y="-217.8" font-family="Times,serif" font-size="14.00">primary knowledge source</text>
</g>
<!-- aggregator knowledge source -->
<g id="node18" class="node">
<title>aggregator knowledge source</title>
<ellipse fill="none" stroke="blue" cx="3299.78" cy="-178" rx="108.58" ry="18"/>
<text text-anchor="middle" x="3299.78" y="-174.3" font-family="Times,serif" font-size="14.00">information resource</text>
</g>
<!-- cell line as a model of disease association&#45;&gt;aggregator knowledge source -->
<g id="edge17" class="edge">
<title>cell line as a model of disease association&#45;&gt;aggregator knowledge source</title>
<path fill="none" stroke="blue" d="M2770.97,-252.17C2794.29,-250.36 2818.2,-248.57 2840.78,-247 2975.36,-237.63 3011.17,-253.78 3143.78,-229 3180.36,-222.16 3220.29,-209.26 3250.6,-198.27"/>
<polygon fill="blue" stroke="blue" points="3251.91,-201.51 3260.09,-194.78 3249.49,-194.94 3251.91,-201.51"/>
<text text-anchor="middle" x="3307.28" y="-217.8" font-family="Times,serif" font-size="14.00">aggregator knowledge source</text>
</g>
<!-- timepoint -->
<g id="node19" class="node">
<title>timepoint</title>
<ellipse fill="none" stroke="blue" cx="3481.78" cy="-178" rx="55.49" ry="18"/>
<text text-anchor="middle" x="3481.78" y="-174.3" font-family="Times,serif" font-size="14.00">time type</text>
</g>
<!-- cell line as a model of disease association&#45;&gt;timepoint -->
<g id="edge18" class="edge">
<title>cell line as a model of disease association&#45;&gt;timepoint</title>
<path fill="none" stroke="blue" d="M2767.49,-251.88C2791.91,-250.03 2817.07,-248.31 2840.78,-247 2904.82,-243.45 3357.46,-250.83 3417.78,-229 3426.2,-225.95 3442.03,-213.61 3455.84,-201.96"/>
<polygon fill="blue" stroke="blue" points="3458.35,-204.41 3463.66,-195.25 3453.79,-199.1 3458.35,-204.41"/>
<text text-anchor="middle" x="3476.78" y="-217.8" font-family="Times,serif" font-size="14.00">timepoint</text>
</g>
<!-- original subject -->
<g id="node20" class="node">
<title>original subject</title>
<ellipse fill="none" stroke="blue" cx="3593.78" cy="-178" rx="38.19" ry="18"/>
<text text-anchor="middle" x="3593.78" y="-174.3" font-family="Times,serif" font-size="14.00">string</text>
</g>
<!-- cell line as a model of disease association&#45;&gt;original subject -->
<g id="edge19" class="edge">
<title>cell line as a model of disease association&#45;&gt;original subject</title>
<path fill="none" stroke="blue" d="M2766.92,-251.83C2791.51,-249.98 2816.88,-248.27 2840.78,-247 2915.59,-243.02 3443.26,-251.3 3514.78,-229 3526.43,-225.37 3527.49,-220.57 3537.78,-214 3545.94,-208.79 3554.81,-203.21 3563.03,-198.07"/>
<polygon fill="blue" stroke="blue" points="3565.01,-200.96 3571.64,-192.7 3561.3,-195.02 3565.01,-200.96"/>
<text text-anchor="middle" x="3593.78" y="-217.8" font-family="Times,serif" font-size="14.00">original subject</text>
</g>
<!-- original predicate -->
<g id="node21" class="node">
<title>original predicate</title>
<ellipse fill="none" stroke="blue" cx="3707.78" cy="-178" rx="57.39" ry="18"/>
<text text-anchor="middle" x="3707.78" y="-174.3" font-family="Times,serif" font-size="14.00">uriorcurie</text>
</g>
<!-- cell line as a model of disease association&#45;&gt;original predicate -->
<g id="edge20" class="edge">
<title>cell line as a model of disease association&#45;&gt;original predicate</title>
<path fill="none" stroke="blue" d="M2766.34,-251.78C2791.11,-249.93 2816.7,-248.23 2840.78,-247 2885.67,-244.71 3607.81,-245.12 3649.78,-229 3657.59,-226 3671.74,-213.86 3684.11,-202.3"/>
<polygon fill="blue" stroke="blue" points="3686.68,-204.69 3691.51,-195.26 3681.85,-199.61 3686.68,-204.69"/>
<text text-anchor="middle" x="3735.28" y="-217.8" font-family="Times,serif" font-size="14.00">original predicate</text>
</g>
<!-- original object -->
<g id="node22" class="node">
<title>original object</title>
<ellipse fill="none" stroke="blue" cx="3821.78" cy="-178" rx="38.19" ry="18"/>
<text text-anchor="middle" x="3821.78" y="-174.3" font-family="Times,serif" font-size="14.00">string</text>
</g>
<!-- cell line as a model of disease association&#45;&gt;original object -->
<g id="edge21" class="edge">
<title>cell line as a model of disease association&#45;&gt;original object</title>
<path fill="none" stroke="blue" d="M2765.76,-251.75C2790.71,-249.89 2816.51,-248.2 2840.78,-247 2867.39,-245.69 3777.6,-243.77 3799.78,-229 3807.81,-223.65 3812.93,-214.66 3816.19,-205.77"/>
<polygon fill="blue" stroke="blue" points="3819.61,-206.55 3819.13,-195.96 3812.9,-204.53 3819.61,-206.55"/>
<text text-anchor="middle" x="3864.28" y="-217.8" font-family="Times,serif" font-size="14.00">original object</text>
</g>
<!-- type -->
<g id="node23" class="node">
<title>type</title>
<ellipse fill="none" stroke="black" cx="3909.78" cy="-178" rx="31.4" ry="18"/>
<text text-anchor="middle" x="3909.78" y="-174.3" font-family="Times,serif" font-size="14.00">type</text>
</g>
<!-- cell line as a model of disease association&#45;&gt;type -->
<g id="edge22" class="edge">
<title>cell line as a model of disease association&#45;&gt;type</title>
<path fill="none" stroke="blue" d="M2765.48,-251.73C2790.52,-249.87 2816.41,-248.17 2840.78,-247 2870.72,-245.56 3898.76,-250.37 3919.78,-229 3926,-222.67 3925.82,-213.63 3923.29,-204.97"/>
<polygon fill="blue" stroke="blue" points="3926.51,-203.6 3919.65,-195.52 3919.98,-206.11 3926.51,-203.6"/>
<text text-anchor="middle" x="3941.78" y="-217.8" font-family="Times,serif" font-size="14.00">type</text>
</g>
<!-- category -->
<g id="node25" class="node">
<title>category</title>
<ellipse fill="none" stroke="black" cx="4010.78" cy="-178" rx="51.19" ry="18"/>
<text text-anchor="middle" x="4010.78" y="-174.3" font-family="Times,serif" font-size="14.00">category</text>
</g>
<!-- cell line as a model of disease association&#45;&gt;category -->
<g id="edge23" class="edge">
<title>cell line as a model of disease association&#45;&gt;category</title>
<path fill="none" stroke="blue" d="M2765.48,-251.72C2790.52,-249.86 2816.41,-248.17 2840.78,-247 2902.99,-244.02 3904.55,-253.59 3961.78,-229 3974.17,-223.68 3985.02,-213.58 3993.34,-203.84"/>
<polygon fill="blue" stroke="blue" points="3996.21,-205.86 3999.71,-195.86 3990.74,-201.49 3996.21,-205.86"/>
<text text-anchor="middle" x="4015.28" y="-217.8" font-family="Times,serif" font-size="14.00">category</text>
</g>
<!-- subject -->
<g id="node27" class="node">
<title>subject</title>
<ellipse fill="none" stroke="black" cx="4124.78" cy="-178" rx="44.39" ry="18"/>
<text text-anchor="middle" x="4124.78" y="-174.3" font-family="Times,serif" font-size="14.00">subject</text>
</g>
<!-- cell line as a model of disease association&#45;&gt;subject -->
<g id="edge24" class="edge">
<title>cell line as a model of disease association&#45;&gt;subject</title>
<path fill="none" stroke="blue" d="M2765.19,-251.72C2790.32,-249.85 2816.32,-248.16 2840.78,-247 2907.93,-243.82 3986.64,-249.16 4050.78,-229 4068.78,-223.34 4086.4,-211.76 4099.92,-201.16"/>
<polygon fill="blue" stroke="blue" points="4102.24,-203.79 4107.78,-194.76 4097.82,-198.36 4102.24,-203.79"/>
<text text-anchor="middle" x="4107.78" y="-217.8" font-family="Times,serif" font-size="14.00">subject</text>
</g>
<!-- frequency qualifier -->
<g id="node29" class="node">
<title>frequency qualifier</title>
<ellipse fill="none" stroke="blue" cx="4271.78" cy="-178" rx="85.29" ry="18"/>
<text text-anchor="middle" x="4271.78" y="-174.3" font-family="Times,serif" font-size="14.00">frequency value</text>
</g>
<!-- cell line as a model of disease association&#45;&gt;frequency qualifier -->
<g id="edge25" class="edge">
<title>cell line as a model of disease association&#45;&gt;frequency qualifier</title>
<path fill="none" stroke="blue" d="M2765.19,-251.7C2790.32,-249.83 2816.32,-248.14 2840.78,-247 2984.74,-240.26 3996.13,-255.58 4137.78,-229 4169.84,-222.98 4204.28,-209.98 4230.22,-198.74"/>
<polygon fill="blue" stroke="blue" points="4231.64,-201.93 4239.37,-194.69 4228.81,-195.53 4231.64,-201.93"/>
<text text-anchor="middle" x="4258.78" y="-217.8" font-family="Times,serif" font-size="14.00">frequency qualifier</text>
</g>
<!-- severity qualifier -->
<g id="node30" class="node">
<title>severity qualifier</title>
<ellipse fill="none" stroke="blue" cx="4450.78" cy="-178" rx="76.09" ry="18"/>
<text text-anchor="middle" x="4450.78" y="-174.3" font-family="Times,serif" font-size="14.00">severity value</text>
</g>
<!-- cell line as a model of disease association&#45;&gt;severity qualifier -->
<g id="edge26" class="edge">
<title>cell line as a model of disease association&#45;&gt;severity qualifier</title>
<path fill="none" stroke="blue" d="M2764.9,-251.68C2790.12,-249.81 2816.23,-248.13 2840.78,-247 2923.47,-243.2 4249.7,-245.73 4330.78,-229 4359.34,-223.11 4389.63,-210.43 4412.64,-199.31"/>
<polygon fill="blue" stroke="blue" points="4414.3,-202.4 4421.71,-194.83 4411.19,-196.12 4414.3,-202.4"/>
<text text-anchor="middle" x="4439.78" y="-217.8" font-family="Times,serif" font-size="14.00">severity qualifier</text>
</g>
<!-- onset qualifier -->
<g id="node31" class="node">
<title>onset qualifier</title>
<ellipse fill="none" stroke="blue" cx="4587.78" cy="-178" rx="36.29" ry="18"/>
<text text-anchor="middle" x="4587.78" y="-174.3" font-family="Times,serif" font-size="14.00">onset</text>
</g>
<!-- cell line as a model of disease association&#45;&gt;onset qualifier -->
<g id="edge27" class="edge">
<title>cell line as a model of disease association&#45;&gt;onset qualifier</title>
<path fill="none" stroke="blue" d="M2764.61,-251.68C2789.92,-249.8 2816.13,-248.12 2840.78,-247 2933.13,-242.82 4415.84,-254.24 4504.78,-229 4525.4,-223.15 4546.05,-210.74 4561.6,-199.74"/>
<polygon fill="blue" stroke="blue" points="4563.67,-202.56 4569.68,-193.83 4559.54,-196.91 4563.67,-202.56"/>
<text text-anchor="middle" x="4589.28" y="-217.8" font-family="Times,serif" font-size="14.00">onset qualifier</text>
</g>
<!-- relation -->
<g id="node32" class="node">
<title>relation</title>
<ellipse fill="none" stroke="black" cx="4075.78" cy="-18" rx="46.59" ry="18"/>
<text text-anchor="middle" x="4075.78" y="-14.3" font-family="Times,serif" font-size="14.00">relation</text>
</g>
<!-- object&#45;&gt;relation -->
<g id="edge30" class="edge">
<title>object&#45;&gt;relation</title>
<path fill="none" stroke="black" stroke-dasharray="1,5" d="M4038.39,-73.17C4044.37,-64.51 4051.78,-53.77 4058.43,-44.14"/>
<polygon fill="black" stroke="black" points="4061.45,-45.92 4064.25,-35.71 4055.69,-41.95 4061.45,-45.92"/>
</g>
<!-- association_type -->
<g id="node24" class="node">
<title>association_type</title>
<ellipse fill="none" stroke="blue" cx="2887.78" cy="-265" rx="38.19" ry="18"/>
<text text-anchor="middle" x="2887.78" y="-261.3" font-family="Times,serif" font-size="14.00">string</text>
</g>
<!-- association_category -->
<g id="node26" class="node">
<title>association_category</title>
<ellipse fill="none" stroke="blue" cx="3018.78" cy="-265" rx="74.99" ry="18"/>
<text text-anchor="middle" x="3018.78" y="-261.3" font-family="Times,serif" font-size="14.00">category type</text>
</g>
<!-- subject&#45;&gt;object -->
<g id="edge28" class="edge">
<title>subject&#45;&gt;object</title>
<path fill="none" stroke="black" d="M4092.29,-165.59C4079.51,-159.94 4065.39,-152.13 4054.78,-142 4047.77,-135.31 4042.04,-126.48 4037.64,-118.1"/>
<polygon fill="black" stroke="black" points="4040.73,-116.45 4033.22,-108.97 4034.42,-119.5 4040.73,-116.45"/>
<text text-anchor="middle" x="4082.78" y="-130.8" font-family="Times,serif" font-size="14.00">relation</text>
</g>
<!-- subject&#45;&gt;relation -->
<g id="edge29" class="edge">
<title>subject&#45;&gt;relation</title>
<path fill="none" stroke="black" stroke-dasharray="1,5" d="M4123.38,-159.99C4121.28,-139.02 4116.36,-102.55 4105.78,-73 4102.29,-63.26 4097.17,-53.19 4092.14,-44.42"/>
<polygon fill="black" stroke="black" points="4095.14,-42.62 4087.01,-35.83 4089.13,-46.21 4095.14,-42.62"/>
</g>
<!-- cell line as a model of disease association_subject -->
<g id="node28" class="node">
<title>cell line as a model of disease association_subject</title>
<ellipse fill="none" stroke="blue" cx="3158.78" cy="-265" rx="46.59" ry="18"/>
<text text-anchor="middle" x="3158.78" y="-261.3" font-family="Times,serif" font-size="14.00">cell line</text>
</g>
</g>
</svg>
