<?xml version="1.0" encoding="UTF-8" standalone="no"?>
<!DOCTYPE svg PUBLIC "-//W3C//DTD SVG 1.1//EN"
 "http://www.w3.org/Graphics/SVG/1.1/DTD/svg11.dtd">
<!-- Generated by graphviz version 2.40.1 (20161225.0304)
 -->
<!-- Title: %3 Pages: 1 -->
<svg width="1121pt" height="130pt"
 viewBox="0.00 0.00 1121.25 130.00" xmlns="http://www.w3.org/2000/svg" xmlns:xlink="http://www.w3.org/1999/xlink">
<g id="graph0" class="graph" transform="scale(1 1) rotate(0) translate(4 126)">
<title>%3</title>
<polygon fill="#ffffff" stroke="transparent" points="-4,4 -4,-126 1117.2511,-126 1117.2511,4 -4,4"/>
<!-- cell -->
<g id="node1" class="node">
<title>cell</title>
<ellipse fill="none" stroke="#000000" cx="578.2511" cy="-104" rx="27" ry="18"/>
<text text-anchor="middle" x="578.2511" y="-99.8" font-family="Times,serif" font-size="14.00" fill="#000000">cell</text>
</g>
<!-- anatomical entity -->
<g id="node2" class="node">
<title>anatomical entity</title>
<ellipse fill="none" stroke="#000000" cx="71.2511" cy="-18" rx="71.0031" ry="18"/>
<text text-anchor="middle" x="71.2511" y="-13.8" font-family="Times,serif" font-size="14.00" fill="#000000">anatomical entity</text>
</g>
<!-- cell&#45;&gt;anatomical entity -->
<g id="edge1" class="edge">
<title>cell&#45;&gt;anatomical entity</title>
<path fill="none" stroke="#000000" d="M550.9401,-103.3453C490.5525,-101.4448 341.3971,-94.2541 219.6993,-68 185.0683,-60.529 147.2413,-47.7137 118.4391,-36.928"/>
<polygon fill="#000000" stroke="#000000" points="119.6263,-33.635 109.0351,-33.3587 117.1423,-40.1795 119.6263,-33.635"/>
<text text-anchor="middle" x="231.527" y="-56.8" font-family="Times,serif" font-size="14.00" fill="#000000">is_a</text>
</g>
<!-- id -->
<g id="node3" class="node">
<title>id</title>
<ellipse fill="none" stroke="#000000" cx="187.2511" cy="-18" rx="27" ry="18"/>
</g>
<!-- cell&#45;&gt;id -->
<g id="edge2" class="edge">
<title>cell&#45;&gt;id</title>
<path fill="none" stroke="#000000" d="M550.9607,-102.0882C486.8136,-97.3773 328.0442,-84.3933 277.3614,-68 254.8927,-60.7325 231.6387,-47.6673 214.3823,-36.7149"/>
<polygon fill="#000000" stroke="#000000" points="216.2316,-33.7425 205.9409,-31.2219 212.4137,-39.6097 216.2316,-33.7425"/>
<text text-anchor="middle" x="283.6959" y="-56.8" font-family="Times,serif" font-size="14.00" fill="#000000">id</text>
</g>
<!-- name -->
<g id="node4" class="node">
<title>name</title>
<ellipse fill="none" stroke="#000000" cx="259.2511" cy="-18" rx="27" ry="18"/>
</g>
<!-- cell&#45;&gt;name -->
<g id="edge3" class="edge">
<title>cell&#45;&gt;name</title>
<path fill="none" stroke="#000000" d="M551.078,-102.4907C491.8303,-98.8565 352.967,-88.3749 310.9337,-68 298.3462,-61.8984 286.8767,-51.5596 277.9579,-41.8616"/>
<polygon fill="#000000" stroke="#000000" points="280.5886,-39.553 271.3794,-34.3145 275.3118,-44.1526 280.5886,-39.553"/>
<text text-anchor="middle" x="326.4098" y="-56.8" font-family="Times,serif" font-size="14.00" fill="#000000">name</text>
</g>
<!-- category -->
<g id="node5" class="node">
<title>category</title>
<ellipse fill="none" stroke="#000000" cx="331.2511" cy="-18" rx="27" ry="18"/>
</g>
<!-- cell&#45;&gt;category -->
<g id="edge4" class="edge">
<title>cell&#45;&gt;category</title>
<path fill="none" stroke="#000000" d="M550.9877,-102.5889C498.8788,-99.4117 387.6006,-90.168 357.0577,-68 349.3608,-62.4135 343.7857,-53.8445 339.8318,-45.3694"/>
<polygon fill="#000000" stroke="#000000" points="343.0346,-43.9537 336.03,-36.0048 336.5487,-46.5869 343.0346,-43.9537"/>
<text text-anchor="middle" x="381.3478" y="-56.8" font-family="Times,serif" font-size="14.00" fill="#000000">category</text>
</g>
<!-- related to -->
<g id="node6" class="node">
<title>related to</title>
<ellipse fill="none" stroke="#000000" cx="403.2511" cy="-18" rx="27" ry="18"/>
</g>
<!-- cell&#45;&gt;related to -->
<g id="edge5" class="edge">
<title>cell&#45;&gt;related to</title>
<path fill="none" stroke="#000000" d="M551.5226,-101.29C511.0415,-96.6581 436.8683,-85.9401 417.7784,-68 411.6647,-62.2545 408.0745,-54.1029 405.9817,-46.0452"/>
<polygon fill="#000000" stroke="#000000" points="409.3891,-45.2307 404.0543,-36.077 402.5164,-46.5596 409.3891,-45.2307"/>
<text text-anchor="middle" x="444.4874" y="-56.8" font-family="Times,serif" font-size="14.00" fill="#000000">related to</text>
</g>
<!-- node property -->
<g id="node7" class="node">
<title>node property</title>
<ellipse fill="none" stroke="#000000" cx="476.2511" cy="-18" rx="27" ry="18"/>
</g>
<!-- cell&#45;&gt;node property -->
<g id="edge6" class="edge">
<title>cell&#45;&gt;node property</title>
<path fill="none" stroke="#000000" d="M552.3406,-97.8674C526.3848,-91.1623 489.0387,-79.7918 480.1095,-68 475.4843,-61.892 473.583,-54.0751 473.0794,-46.4458"/>
<polygon fill="#000000" stroke="#000000" points="476.5799,-46.3557 473.1346,-36.3367 469.58,-46.3174 476.5799,-46.3557"/>
<text text-anchor="middle" x="519.3219" y="-56.8" font-family="Times,serif" font-size="14.00" fill="#000000">node property</text>
</g>
<!-- iri -->
<g id="node8" class="node">
<title>iri</title>
<ellipse fill="none" stroke="#000000" cx="548.2511" cy="-18" rx="27" ry="18"/>
</g>
<!-- cell&#45;&gt;iri -->
<g id="edge7" class="edge">
<title>cell&#45;&gt;iri</title>
<path fill="none" stroke="#000000" d="M572.0351,-86.1807C567.9322,-74.4191 562.4755,-58.7766 557.8237,-45.4416"/>
<polygon fill="#000000" stroke="#000000" points="561.0576,-44.0856 554.4592,-35.7964 554.4482,-46.3913 561.0576,-44.0856"/>
<text text-anchor="middle" x="571.4718" y="-56.8" font-family="Times,serif" font-size="14.00" fill="#000000">iri</text>
</g>
<!-- full name -->
<g id="node9" class="node">
<title>full name</title>
<ellipse fill="none" stroke="#000000" cx="620.2511" cy="-18" rx="27" ry="18"/>
</g>
<!-- cell&#45;&gt;full name -->
<g id="edge8" class="edge">
<title>cell&#45;&gt;full name</title>
<path fill="none" stroke="#000000" d="M586.7504,-86.5966C592.671,-74.4736 600.6757,-58.0829 607.3759,-44.3635"/>
<polygon fill="#000000" stroke="#000000" points="610.521,-45.8991 611.7644,-35.3775 604.231,-42.8272 610.521,-45.8991"/>
<text text-anchor="middle" x="628.8805" y="-56.8" font-family="Times,serif" font-size="14.00" fill="#000000">full name</text>
</g>
<!-- description -->
<g id="node10" class="node">
<title>description</title>
<ellipse fill="none" stroke="#000000" cx="692.2511" cy="-18" rx="27" ry="18"/>
</g>
<!-- cell&#45;&gt;description -->
<g id="edge9" class="edge">
<title>cell&#45;&gt;description</title>
<path fill="none" stroke="#000000" d="M603.3157,-96.9786C620.4523,-91.2514 642.9297,-81.8263 659.2511,-68 666.944,-61.4831 673.5426,-52.7324 678.7726,-44.3739"/>
<polygon fill="#000000" stroke="#000000" points="681.8851,-45.9844 683.8975,-35.5824 675.8376,-42.459 681.8851,-45.9844"/>
<text text-anchor="middle" x="703.3546" y="-56.8" font-family="Times,serif" font-size="14.00" fill="#000000">description</text>
</g>
<!-- systematic synonym -->
<g id="node11" class="node">
<title>systematic synonym</title>
<ellipse fill="none" stroke="#000000" cx="774.2511" cy="-18" rx="27" ry="18"/>
</g>
<!-- cell&#45;&gt;systematic synonym -->
<g id="edge10" class="edge">
<title>cell&#45;&gt;systematic synonym</title>
<path fill="none" stroke="#000000" d="M604.885,-100.3441C644.4912,-94.5219 716.5768,-82.3259 738.2511,-68 747.353,-61.984 754.9169,-52.8244 760.7235,-43.9812"/>
<polygon fill="#000000" stroke="#000000" points="763.7508,-45.7388 765.9361,-35.3718 757.7628,-42.1133 763.7508,-45.7388"/>
<text text-anchor="middle" x="810.2184" y="-56.8" font-family="Times,serif" font-size="14.00" fill="#000000">systematic synonym</text>
</g>
<!-- has phenotype -->
<g id="node12" class="node">
<title>has phenotype</title>
<ellipse fill="none" stroke="#000000" cx="911.2511" cy="-18" rx="27" ry="18"/>
</g>
<!-- cell&#45;&gt;has phenotype -->
<g id="edge11" class="edge">
<title>cell&#45;&gt;has phenotype</title>
<path fill="none" stroke="#000000" d="M605.3558,-103.2544C668.9815,-101.0974 825.9419,-93.2938 871.2511,-68 881.402,-62.3333 889.9345,-52.9524 896.4771,-43.8376"/>
<polygon fill="#000000" stroke="#000000" points="899.5216,-45.5793 902.1279,-35.31 893.6864,-41.7126 899.5216,-45.5793"/>
<text text-anchor="middle" x="928.4908" y="-56.8" font-family="Times,serif" font-size="14.00" fill="#000000">has phenotype</text>
</g>
<!-- in taxon -->
<g id="node13" class="node">
<title>in taxon</title>
<ellipse fill="none" stroke="#000000" cx="1014.2511" cy="-18" rx="27" ry="18"/>
</g>
<!-- cell&#45;&gt;in taxon -->
<g id="edge12" class="edge">
<title>cell&#45;&gt;in taxon</title>
<path fill="none" stroke="#000000" d="M605.4161,-102.7137C689.1943,-98.5816 939.8738,-84.923 972.2511,-68 983.0203,-62.3712 992.1344,-52.6904 999.0914,-43.3376"/>
<polygon fill="#000000" stroke="#000000" points="1002.0678,-45.1865 1004.8597,-34.9661 996.3037,-41.2147 1002.0678,-45.1865"/>
<text text-anchor="middle" x="1011.9977" y="-56.8" font-family="Times,serif" font-size="14.00" fill="#000000">in taxon</text>
</g>
<!-- expresses -->
<g id="node14" class="node">
<title>expresses</title>
<ellipse fill="none" stroke="#000000" cx="1086.2511" cy="-18" rx="27" ry="18"/>
</g>
<!-- cell&#45;&gt;expresses -->
<g id="edge13" class="edge">
<title>cell&#45;&gt;expresses</title>
<path fill="none" stroke="#000000" d="M605.2471,-103.0054C697.8555,-99.4404 999.1052,-86.5226 1038.2511,-68 1050.3177,-62.2904 1060.9402,-52.1398 1069.1042,-42.4693"/>
<polygon fill="#000000" stroke="#000000" points="1071.8975,-44.5797 1075.3615,-34.5671 1066.4096,-40.2342 1071.8975,-44.5797"/>
<text text-anchor="middle" x="1083.0753" y="-56.8" font-family="Times,serif" font-size="14.00" fill="#000000">expresses</text>
</g>
</g>
</svg>
