<?xml version="1.0" encoding="UTF-8" standalone="no"?>
<!DOCTYPE svg PUBLIC "-//W3C//DTD SVG 1.1//EN"
 "http://www.w3.org/Graphics/SVG/1.1/DTD/svg11.dtd">
<!-- Generated by graphviz version 2.43.0 (0)
 -->
<!-- Title: %3 Pages: 1 -->
<svg width="1745pt" height="131pt"
 viewBox="0.00 0.00 1745.14 131.00" xmlns="http://www.w3.org/2000/svg" xmlns:xlink="http://www.w3.org/1999/xlink">
<g id="graph0" class="graph" transform="scale(1 1) rotate(0) translate(4 127)">
<title>%3</title>
<polygon fill="white" stroke="transparent" points="-4,4 -4,-127 1741.14,-127 1741.14,4 -4,4"/>
<!-- cell -->
<g id="node1" class="node">
<title>cell</title>
<ellipse fill="none" stroke="black" cx="836.64" cy="-105" rx="27" ry="18"/>
<text text-anchor="middle" x="836.64" y="-101.3" font-family="Times,serif" font-size="14.00">cell</text>
</g>
<!-- anatomical entity -->
<g id="node2" class="node">
<title>anatomical entity</title>
<ellipse fill="none" stroke="black" cx="91.64" cy="-18" rx="91.78" ry="18"/>
<text text-anchor="middle" x="91.64" y="-14.3" font-family="Times,serif" font-size="14.00">anatomical entity</text>
</g>
<!-- cell&#45;&gt;anatomical entity -->
<g id="edge1" class="edge">
<title>cell&#45;&gt;anatomical entity</title>
<path fill="none" stroke="black" d="M809.63,-103.5C733.28,-101.8 509.47,-94.8 325.64,-69 267.39,-60.82 201.98,-46.39 155.16,-35.13"/>
<polygon fill="black" stroke="black" points="155.7,-31.66 145.16,-32.71 154.05,-38.46 155.7,-31.66"/>
<text text-anchor="middle" x="339.64" y="-57.8" font-family="Times,serif" font-size="14.00">is_a</text>
</g>
<!-- id -->
<g id="node3" class="node">
<title>id</title>
<ellipse fill="none" stroke="blue" cx="239.64" cy="-18" rx="38.19" ry="18"/>
<text text-anchor="middle" x="239.64" y="-14.3" font-family="Times,serif" font-size="14.00">string</text>
</g>
<!-- cell&#45;&gt;id -->
<g id="edge2" class="edge">
<title>cell&#45;&gt;id</title>
<path fill="none" stroke="blue" d="M809.76,-102.74C745.83,-99.49 579.82,-89.62 442.64,-69 372.99,-58.53 355.43,-55.13 287.64,-36 284.54,-35.12 281.34,-34.15 278.14,-33.13"/>
<polygon fill="blue" stroke="blue" points="279.23,-29.8 268.64,-29.95 277.01,-36.44 279.23,-29.8"/>
<text text-anchor="middle" x="449.64" y="-57.8" font-family="Times,serif" font-size="14.00">id</text>
</g>
<!-- iri -->
<g id="node4" class="node">
<title>iri</title>
<ellipse fill="none" stroke="blue" cx="340.64" cy="-18" rx="44.39" ry="18"/>
<text text-anchor="middle" x="340.64" y="-14.3" font-family="Times,serif" font-size="14.00">iri type</text>
</g>
<!-- cell&#45;&gt;iri -->
<g id="edge3" class="edge">
<title>cell&#45;&gt;iri</title>
<path fill="none" stroke="blue" d="M809.88,-102.06C756.48,-97.95 633.04,-87.21 530.64,-69 469.4,-58.11 454.56,-52.68 394.64,-36 391.07,-35.01 387.38,-33.94 383.68,-32.83"/>
<polygon fill="blue" stroke="blue" points="384.54,-29.44 373.95,-29.87 382.5,-36.13 384.54,-29.44"/>
<text text-anchor="middle" x="538.64" y="-57.8" font-family="Times,serif" font-size="14.00">iri</text>
</g>
<!-- type -->
<g id="node5" class="node">
<title>type</title>
<ellipse fill="none" stroke="blue" cx="441.64" cy="-18" rx="38.19" ry="18"/>
<text text-anchor="middle" x="441.64" y="-14.3" font-family="Times,serif" font-size="14.00">string</text>
</g>
<!-- cell&#45;&gt;type -->
<g id="edge4" class="edge">
<title>cell&#45;&gt;type</title>
<path fill="none" stroke="blue" d="M810.39,-100.77C768.54,-95.41 684.21,-83.81 613.64,-69 557.41,-57.2 543.49,-53.12 488.64,-36 485.89,-35.14 483.05,-34.22 480.21,-33.26"/>
<polygon fill="blue" stroke="blue" points="481.18,-29.89 470.59,-29.93 478.89,-36.51 481.18,-29.89"/>
<text text-anchor="middle" x="629.64" y="-57.8" font-family="Times,serif" font-size="14.00">type</text>
</g>
<!-- name -->
<g id="node6" class="node">
<title>name</title>
<ellipse fill="none" stroke="blue" cx="554.64" cy="-18" rx="56.59" ry="18"/>
<text text-anchor="middle" x="554.64" y="-14.3" font-family="Times,serif" font-size="14.00">label type</text>
</g>
<!-- cell&#45;&gt;name -->
<g id="edge5" class="edge">
<title>cell&#45;&gt;name</title>
<path fill="none" stroke="blue" d="M811.08,-98.82C781.74,-92.66 732.31,-81.61 690.64,-69 659.01,-59.43 624.03,-46.52 597.47,-36.21"/>
<polygon fill="blue" stroke="blue" points="598.67,-32.92 588.08,-32.54 596.12,-39.44 598.67,-32.92"/>
<text text-anchor="middle" x="710.64" y="-57.8" font-family="Times,serif" font-size="14.00">name</text>
</g>
<!-- description -->
<g id="node7" class="node">
<title>description</title>
<ellipse fill="none" stroke="blue" cx="704.64" cy="-18" rx="75.29" ry="18"/>
<text text-anchor="middle" x="704.64" y="-14.3" font-family="Times,serif" font-size="14.00">narrative text</text>
</g>
<!-- cell&#45;&gt;description -->
<g id="edge6" class="edge">
<title>cell&#45;&gt;description</title>
<path fill="none" stroke="blue" d="M812.19,-97.01C794.41,-91.22 770.3,-81.86 751.64,-69 741.58,-62.06 732.03,-52.66 724.21,-43.87"/>
<polygon fill="blue" stroke="blue" points="726.69,-41.4 717.53,-36.07 721.37,-45.95 726.69,-41.4"/>
<text text-anchor="middle" x="792.14" y="-57.8" font-family="Times,serif" font-size="14.00">description</text>
</g>
<!-- provided by -->
<g id="node8" class="node">
<title>provided by</title>
<ellipse fill="none" stroke="blue" cx="836.64" cy="-18" rx="38.19" ry="18"/>
<text text-anchor="middle" x="836.64" y="-14.3" font-family="Times,serif" font-size="14.00">string</text>
</g>
<!-- cell&#45;&gt;provided by -->
<g id="edge7" class="edge">
<title>cell&#45;&gt;provided by</title>
<path fill="none" stroke="blue" d="M836.64,-86.8C836.64,-75.16 836.64,-59.55 836.64,-46.24"/>
<polygon fill="blue" stroke="blue" points="840.14,-46.18 836.64,-36.18 833.14,-46.18 840.14,-46.18"/>
<text text-anchor="middle" x="879.14" y="-57.8" font-family="Times,serif" font-size="14.00">provided by</text>
</g>
<!-- xref -->
<g id="node9" class="node">
<title>xref</title>
<ellipse fill="none" stroke="blue" cx="950.64" cy="-18" rx="57.39" ry="18"/>
<text text-anchor="middle" x="950.64" y="-14.3" font-family="Times,serif" font-size="14.00">uriorcurie</text>
</g>
<!-- cell&#45;&gt;xref -->
<g id="edge8" class="edge">
<title>cell&#45;&gt;xref</title>
<path fill="none" stroke="blue" d="M857.78,-93.53C862.62,-91.27 867.77,-88.97 872.64,-87 895.7,-77.67 906.89,-85.35 925.64,-69 932.87,-62.7 938.24,-53.81 942.11,-45.27"/>
<polygon fill="blue" stroke="blue" points="945.38,-46.52 945.87,-35.94 938.89,-43.91 945.38,-46.52"/>
<text text-anchor="middle" x="952.14" y="-57.8" font-family="Times,serif" font-size="14.00">xref</text>
</g>
<!-- full name -->
<g id="node10" class="node">
<title>full name</title>
<ellipse fill="none" stroke="blue" cx="1082.64" cy="-18" rx="56.59" ry="18"/>
<text text-anchor="middle" x="1082.64" y="-14.3" font-family="Times,serif" font-size="14.00">label type</text>
</g>
<!-- cell&#45;&gt;full name -->
<g id="edge9" class="edge">
<title>cell&#45;&gt;full name</title>
<path fill="none" stroke="blue" d="M857.21,-93.17C862.16,-90.88 867.51,-88.65 872.64,-87 914.8,-73.43 928.35,-82.12 970.64,-69 996.33,-61.03 1023.94,-48.75 1045.31,-38.36"/>
<polygon fill="blue" stroke="blue" points="1046.95,-41.46 1054.37,-33.89 1043.85,-35.18 1046.95,-41.46"/>
<text text-anchor="middle" x="1042.14" y="-57.8" font-family="Times,serif" font-size="14.00">full name</text>
</g>
<!-- category -->
<g id="node11" class="node">
<title>category</title>
<ellipse fill="none" stroke="black" cx="1208.64" cy="-18" rx="51.19" ry="18"/>
<text text-anchor="middle" x="1208.64" y="-14.3" font-family="Times,serif" font-size="14.00">category</text>
</g>
<!-- cell&#45;&gt;category -->
<g id="edge10" class="edge">
<title>cell&#45;&gt;category</title>
<path fill="none" stroke="blue" d="M857.1,-92.81C862.06,-90.53 867.44,-88.41 872.64,-87 961.79,-62.91 989.69,-89.9 1079.64,-69 1111.18,-61.67 1145.26,-48.2 1170.47,-37.09"/>
<polygon fill="blue" stroke="blue" points="1171.98,-40.25 1179.68,-32.96 1169.12,-33.86 1171.98,-40.25"/>
<text text-anchor="middle" x="1159.14" y="-57.8" font-family="Times,serif" font-size="14.00">category</text>
</g>
<!-- in taxon -->
<g id="node13" class="node">
<title>in taxon</title>
<ellipse fill="none" stroke="blue" cx="1361.64" cy="-18" rx="83.39" ry="18"/>
<text text-anchor="middle" x="1361.64" y="-14.3" font-family="Times,serif" font-size="14.00">organism taxon</text>
</g>
<!-- cell&#45;&gt;in taxon -->
<g id="edge11" class="edge">
<title>cell&#45;&gt;in taxon</title>
<path fill="none" stroke="blue" d="M856.69,-92.87C861.76,-90.53 867.28,-88.36 872.64,-87 1011.57,-51.75 1053.46,-93.73 1194.64,-69 1234.9,-61.95 1279.15,-48.43 1311.98,-37.22"/>
<polygon fill="blue" stroke="blue" points="1313.48,-40.4 1321.79,-33.83 1311.19,-33.79 1313.48,-40.4"/>
<text text-anchor="middle" x="1284.64" y="-57.8" font-family="Times,serif" font-size="14.00">in taxon</text>
</g>
<!-- in taxon label -->
<g id="node14" class="node">
<title>in taxon label</title>
<ellipse fill="none" stroke="blue" cx="1519.64" cy="-18" rx="56.59" ry="18"/>
<text text-anchor="middle" x="1519.64" y="-14.3" font-family="Times,serif" font-size="14.00">label type</text>
</g>
<!-- cell&#45;&gt;in taxon label -->
<g id="edge12" class="edge">
<title>cell&#45;&gt;in taxon label</title>
<path fill="none" stroke="blue" d="M856.68,-92.81C861.74,-90.47 867.27,-88.32 872.64,-87 968.76,-63.4 1219.63,-82.74 1317.64,-69 1370.86,-61.54 1430.42,-45.87 1471,-34.05"/>
<polygon fill="blue" stroke="blue" points="1472.03,-37.4 1480.63,-31.21 1470.05,-30.68 1472.03,-37.4"/>
<text text-anchor="middle" x="1439.14" y="-57.8" font-family="Times,serif" font-size="14.00">in taxon label</text>
</g>
<!-- has attribute -->
<g id="node15" class="node">
<title>has attribute</title>
<ellipse fill="none" stroke="black" cx="1665.64" cy="-18" rx="71.49" ry="18"/>
<text text-anchor="middle" x="1665.64" y="-14.3" font-family="Times,serif" font-size="14.00">has attribute</text>
</g>
<!-- cell&#45;&gt;has attribute -->
<g id="edge13" class="edge">
<title>cell&#45;&gt;has attribute</title>
<path fill="none" stroke="blue" d="M856.67,-92.77C861.73,-90.43 867.26,-88.29 872.64,-87 1006.47,-54.94 1355.67,-90.17 1491.64,-69 1534.89,-62.27 1582.57,-48.06 1617.07,-36.51"/>
<polygon fill="blue" stroke="blue" points="1618.54,-39.71 1626.88,-33.18 1616.29,-33.08 1618.54,-39.71"/>
<text text-anchor="middle" x="1605.64" y="-57.8" font-family="Times,serif" font-size="14.00">has attribute</text>
</g>
<!-- named thing_category -->
<g id="node12" class="node">
<title>named thing_category</title>
<ellipse fill="none" stroke="blue" cx="956.64" cy="-105" rx="74.99" ry="18"/>
<text text-anchor="middle" x="956.64" y="-101.3" font-family="Times,serif" font-size="14.00">category type</text>
</g>
<!-- organismal entity_has attribute -->
<g id="node16" class="node">
<title>organismal entity_has attribute</title>
<ellipse fill="none" stroke="blue" cx="1101.64" cy="-105" rx="51.99" ry="18"/>
<text text-anchor="middle" x="1101.64" y="-101.3" font-family="Times,serif" font-size="14.00">attribute</text>
</g>
</g>
</svg>
