<?xml version="1.0" encoding="UTF-8" standalone="no"?>
<!DOCTYPE svg PUBLIC "-//W3C//DTD SVG 1.1//EN"
 "http://www.w3.org/Graphics/SVG/1.1/DTD/svg11.dtd">
<!-- Generated by graphviz version 3.0.0 (20220226.1711)
 -->
<!-- Pages: 1 -->
<svg width="1177pt" height="131pt"
 viewBox="0.00 0.00 1176.79 131.00" xmlns="http://www.w3.org/2000/svg" xmlns:xlink="http://www.w3.org/1999/xlink">
<g id="graph0" class="graph" transform="scale(1 1) rotate(0) translate(4 127)">
<polygon fill="white" stroke="transparent" points="-4,4 -4,-127 1172.79,-127 1172.79,4 -4,4"/>
<!-- cell -->
<g id="node1" class="node">
<title>cell</title>
<ellipse fill="none" stroke="black" cx="578.14" cy="-105" rx="27" ry="18"/>
<text text-anchor="middle" x="578.14" y="-101.3" font-family="Times,serif" font-size="14.00">cell</text>
</g>
<!-- anatomical entity -->
<g id="node2" class="node">
<title>anatomical entity</title>
<ellipse fill="none" stroke="black" cx="72.14" cy="-18" rx="72.29" ry="18"/>
<text text-anchor="middle" x="72.14" y="-14.3" font-family="Times,serif" font-size="14.00">anatomical entity</text>
</g>
<!-- cell&#45;&gt;anatomical entity -->
<g id="edge1" class="edge">
<title>cell&#45;&gt;anatomical entity</title>
<path fill="none" stroke="black" d="M551.37,-102.12C497.95,-98.12 374.48,-87.56 272.14,-69 222.63,-60.02 167.19,-45.82 127.25,-34.85"/>
<polygon fill="black" stroke="black" points="128.02,-31.43 117.45,-32.13 126.15,-38.18 128.02,-31.43"/>
<text text-anchor="middle" x="283.14" y="-57.8" font-family="Times,serif" font-size="14.00">is_a</text>
</g>
<!-- id -->
<g id="node3" class="node">
<title>id</title>
<ellipse fill="none" stroke="blue" cx="193.14" cy="-18" rx="30.59" ry="18"/>
<text text-anchor="middle" x="193.14" y="-14.3" font-family="Times,serif" font-size="14.00">string</text>
</g>
<!-- cell&#45;&gt;id -->
<g id="edge2" class="edge">
<title>cell&#45;&gt;id</title>
<path fill="none" stroke="blue" d="M551.57,-101.16C492.88,-94.38 348.26,-74.82 233.14,-36 230.77,-35.2 228.33,-34.32 225.89,-33.39"/>
<polygon fill="blue" stroke="blue" points="227.19,-30.14 216.6,-29.68 224.59,-36.64 227.19,-30.14"/>
<text text-anchor="middle" x="360.64" y="-57.8" font-family="Times,serif" font-size="14.00">id</text>
</g>
<!-- iri -->
<g id="node4" class="node">
<title>iri</title>
<ellipse fill="none" stroke="blue" cx="278.14" cy="-18" rx="36.29" ry="18"/>
<text text-anchor="middle" x="278.14" y="-14.3" font-family="Times,serif" font-size="14.00">iri type</text>
</g>
<!-- cell&#45;&gt;iri -->
<g id="edge3" class="edge">
<title>cell&#45;&gt;iri</title>
<path fill="none" stroke="blue" d="M552.87,-98.56C523.31,-92.08 472.94,-80.65 430.14,-69 382.12,-55.93 370.22,-52.13 323.14,-36 320.72,-35.17 318.24,-34.3 315.74,-33.4"/>
<polygon fill="blue" stroke="blue" points="316.73,-30.03 306.13,-29.88 314.32,-36.61 316.73,-30.03"/>
<text text-anchor="middle" x="436.64" y="-57.8" font-family="Times,serif" font-size="14.00">iri</text>
</g>
<!-- type -->
<g id="node5" class="node">
<title>type</title>
<ellipse fill="none" stroke="blue" cx="363.14" cy="-18" rx="30.59" ry="18"/>
<text text-anchor="middle" x="363.14" y="-14.3" font-family="Times,serif" font-size="14.00">string</text>
</g>
<!-- cell&#45;&gt;type -->
<g id="edge4" class="edge">
<title>cell&#45;&gt;type</title>
<path fill="none" stroke="blue" d="M554.62,-95.62C535.34,-88.68 507.38,-78.46 483.14,-69 447.31,-55.02 438.62,-50.86 403.14,-36 400.97,-35.09 398.73,-34.15 396.48,-33.2"/>
<polygon fill="blue" stroke="blue" points="397.81,-29.96 387.24,-29.29 395.09,-36.41 397.81,-29.96"/>
<text text-anchor="middle" x="495.14" y="-57.8" font-family="Times,serif" font-size="14.00">type</text>
</g>
<!-- name -->
<g id="node6" class="node">
<title>name</title>
<ellipse fill="none" stroke="blue" cx="457.14" cy="-18" rx="45.49" ry="18"/>
<text text-anchor="middle" x="457.14" y="-14.3" font-family="Times,serif" font-size="14.00">label type</text>
</g>
<!-- cell&#45;&gt;name -->
<g id="edge5" class="edge">
<title>cell&#45;&gt;name</title>
<path fill="none" stroke="blue" d="M560.29,-91.46C541.05,-77.94 510.11,-56.21 487.13,-40.07"/>
<polygon fill="blue" stroke="blue" points="488.95,-37.07 478.75,-34.18 484.93,-42.79 488.95,-37.07"/>
<text text-anchor="middle" x="540.64" y="-57.8" font-family="Times,serif" font-size="14.00">name</text>
</g>
<!-- description -->
<g id="node7" class="node">
<title>description</title>
<ellipse fill="none" stroke="blue" cx="578.14" cy="-18" rx="57.69" ry="18"/>
<text text-anchor="middle" x="578.14" y="-14.3" font-family="Times,serif" font-size="14.00">narrative text</text>
</g>
<!-- cell&#45;&gt;description -->
<g id="edge6" class="edge">
<title>cell&#45;&gt;description</title>
<path fill="none" stroke="blue" d="M578.14,-86.8C578.14,-75.16 578.14,-59.55 578.14,-46.24"/>
<polygon fill="blue" stroke="blue" points="581.64,-46.18 578.14,-36.18 574.64,-46.18 581.64,-46.18"/>
<text text-anchor="middle" x="608.64" y="-57.8" font-family="Times,serif" font-size="14.00">description</text>
</g>
<!-- source -->
<g id="node8" class="node">
<title>source</title>
<ellipse fill="none" stroke="blue" cx="684.14" cy="-18" rx="30.59" ry="18"/>
<text text-anchor="middle" x="684.14" y="-14.3" font-family="Times,serif" font-size="14.00">string</text>
</g>
<!-- cell&#45;&gt;source -->
<g id="edge7" class="edge">
<title>cell&#45;&gt;source</title>
<path fill="none" stroke="blue" d="M599.51,-93.62C615.52,-85.64 635.87,-74.99 643.14,-69 652.07,-61.64 660.46,-52.11 667.29,-43.34"/>
<polygon fill="blue" stroke="blue" points="670.14,-45.37 673.33,-35.26 664.54,-41.17 670.14,-45.37"/>
<text text-anchor="middle" x="677.14" y="-57.8" font-family="Times,serif" font-size="14.00">source</text>
</g>
<!-- provided by -->
<g id="node9" class="node">
<title>provided by</title>
<ellipse fill="none" stroke="blue" cx="763.14" cy="-18" rx="30.59" ry="18"/>
<text text-anchor="middle" x="763.14" y="-14.3" font-family="Times,serif" font-size="14.00">string</text>
</g>
<!-- cell&#45;&gt;provided by -->
<g id="edge8" class="edge">
<title>cell&#45;&gt;provided by</title>
<path fill="none" stroke="blue" d="M598.74,-93.27C603.7,-90.97 609.03,-88.72 614.14,-87 650.74,-74.67 664.14,-85.31 699.14,-69 714.31,-61.94 729.16,-50.68 740.73,-40.64"/>
<polygon fill="blue" stroke="blue" points="743.08,-43.23 748.19,-33.95 738.41,-38.02 743.08,-43.23"/>
<text text-anchor="middle" x="757.14" y="-57.8" font-family="Times,serif" font-size="14.00">provided by</text>
</g>
<!-- category -->
<g id="node10" class="node">
<title>category</title>
<ellipse fill="none" stroke="black" cx="852.14" cy="-18" rx="40.89" ry="18"/>
<text text-anchor="middle" x="852.14" y="-14.3" font-family="Times,serif" font-size="14.00">category</text>
</g>
<!-- cell&#45;&gt;category -->
<g id="edge9" class="edge">
<title>cell&#45;&gt;category</title>
<path fill="none" stroke="blue" d="M598.62,-92.86C603.58,-90.58 608.95,-88.44 614.14,-87 691.62,-65.52 720.27,-100.72 794.14,-69 808.16,-62.98 821.27,-52.31 831.46,-42.37"/>
<polygon fill="blue" stroke="blue" points="834.17,-44.6 838.65,-35 829.16,-39.71 834.17,-44.6"/>
<text text-anchor="middle" x="841.64" y="-57.8" font-family="Times,serif" font-size="14.00">category</text>
</g>
<!-- has attribute -->
<g id="node12" class="node">
<title>has attribute</title>
<ellipse fill="none" stroke="black" cx="965.14" cy="-18" rx="53.89" ry="18"/>
<text text-anchor="middle" x="965.14" y="-14.3" font-family="Times,serif" font-size="14.00">has attribute</text>
</g>
<!-- cell&#45;&gt;has attribute -->
<g id="edge10" class="edge">
<title>cell&#45;&gt;has attribute</title>
<path fill="none" stroke="blue" d="M598.21,-92.93C603.27,-90.58 608.79,-88.4 614.14,-87 724.06,-58.25 759.81,-99.89 869.14,-69 891.78,-62.6 915.23,-50.51 933.29,-39.82"/>
<polygon fill="blue" stroke="blue" points="935.49,-42.58 942.21,-34.39 931.85,-36.6 935.49,-42.58"/>
<text text-anchor="middle" x="938.64" y="-57.8" font-family="Times,serif" font-size="14.00">has attribute</text>
</g>
<!-- in taxon -->
<g id="node14" class="node">
<title>in taxon</title>
<ellipse fill="none" stroke="blue" cx="1103.14" cy="-18" rx="65.79" ry="18"/>
<text text-anchor="middle" x="1103.14" y="-14.3" font-family="Times,serif" font-size="14.00">organism taxon</text>
</g>
<!-- cell&#45;&gt;in taxon -->
<g id="edge11" class="edge">
<title>cell&#45;&gt;in taxon</title>
<path fill="none" stroke="blue" d="M598.19,-92.85C603.25,-90.51 608.78,-88.34 614.14,-87 770.4,-47.86 818.68,-102.95 976.14,-69 1006.51,-62.45 1039.08,-49.5 1063.63,-38.42"/>
<polygon fill="blue" stroke="blue" points="1065.34,-41.48 1072.96,-34.12 1062.42,-35.12 1065.34,-41.48"/>
<text text-anchor="middle" x="1044.64" y="-57.8" font-family="Times,serif" font-size="14.00">in taxon</text>
</g>
<!-- named thing_category -->
<g id="node11" class="node">
<title>named thing_category</title>
<ellipse fill="none" stroke="blue" cx="678.14" cy="-105" rx="55.49" ry="18"/>
<text text-anchor="middle" x="678.14" y="-101.3" font-family="Times,serif" font-size="14.00">named thing</text>
</g>
<!-- organismal entity_has attribute -->
<g id="node13" class="node">
<title>organismal entity_has attribute</title>
<ellipse fill="none" stroke="blue" cx="792.14" cy="-105" rx="40.09" ry="18"/>
<text text-anchor="middle" x="792.14" y="-101.3" font-family="Times,serif" font-size="14.00">attribute</text>
</g>
</g>
</svg>
