<?xml version="1.0" encoding="UTF-8" standalone="no"?>
<!DOCTYPE svg PUBLIC "-//W3C//DTD SVG 1.1//EN"
 "http://www.w3.org/Graphics/SVG/1.1/DTD/svg11.dtd">
<!-- Generated by graphviz version 2.43.0 (0)
 -->
<!-- Title: %3 Pages: 1 -->
<svg width="1478pt" height="131pt"
 viewBox="0.00 0.00 1477.83 131.00" xmlns="http://www.w3.org/2000/svg" xmlns:xlink="http://www.w3.org/1999/xlink">
<g id="graph0" class="graph" transform="scale(1 1) rotate(0) translate(4 127)">
<title>%3</title>
<polygon fill="white" stroke="transparent" points="-4,4 -4,-127 1473.83,-127 1473.83,4 -4,4"/>
<!-- cellular component -->
<g id="node1" class="node">
<title>cellular component</title>
<ellipse fill="none" stroke="black" cx="704.64" cy="-105" rx="99.38" ry="18"/>
<text text-anchor="middle" x="704.64" y="-101.3" font-family="Times,serif" font-size="14.00">cellular component</text>
</g>
<!-- anatomical entity -->
<g id="node2" class="node">
<title>anatomical entity</title>
<ellipse fill="none" stroke="black" cx="91.64" cy="-18" rx="91.78" ry="18"/>
<text text-anchor="middle" x="91.64" y="-14.3" font-family="Times,serif" font-size="14.00">anatomical entity</text>
</g>
<!-- cellular component&#45;&gt;anatomical entity -->
<g id="edge1" class="edge">
<title>cellular component&#45;&gt;anatomical entity</title>
<path fill="none" stroke="black" d="M612.69,-98.09C537.62,-92.6 428.92,-83.12 334.64,-69 274.27,-59.96 206.26,-45.6 157.58,-34.59"/>
<polygon fill="black" stroke="black" points="158.33,-31.17 147.8,-32.36 156.77,-38 158.33,-31.17"/>
<text text-anchor="middle" x="348.64" y="-57.8" font-family="Times,serif" font-size="14.00">is_a</text>
</g>
<!-- id -->
<g id="node3" class="node">
<title>id</title>
<ellipse fill="none" stroke="blue" cx="239.64" cy="-18" rx="38.19" ry="18"/>
<text text-anchor="middle" x="239.64" y="-14.3" font-family="Times,serif" font-size="14.00">string</text>
</g>
<!-- cellular component&#45;&gt;id -->
<g id="edge2" class="edge">
<title>cellular component&#45;&gt;id</title>
<path fill="none" stroke="blue" d="M618.74,-95.79C533.55,-86.29 399.87,-67.75 287.64,-36 284.54,-35.12 281.34,-34.15 278.14,-33.12"/>
<polygon fill="blue" stroke="blue" points="279.23,-29.8 268.64,-29.95 277.01,-36.44 279.23,-29.8"/>
<text text-anchor="middle" x="430.64" y="-57.8" font-family="Times,serif" font-size="14.00">id</text>
</g>
<!-- iri -->
<g id="node4" class="node">
<title>iri</title>
<ellipse fill="none" stroke="blue" cx="340.64" cy="-18" rx="44.39" ry="18"/>
<text text-anchor="middle" x="340.64" y="-14.3" font-family="Times,serif" font-size="14.00">iri type</text>
</g>
<!-- cellular component&#45;&gt;iri -->
<g id="edge3" class="edge">
<title>cellular component&#45;&gt;iri</title>
<path fill="none" stroke="blue" d="M635.38,-91.98C600.8,-85.68 558.39,-77.52 520.64,-69 464.17,-56.25 450.27,-52.03 394.64,-36 391.13,-34.99 387.5,-33.91 383.86,-32.81"/>
<polygon fill="blue" stroke="blue" points="384.85,-29.45 374.27,-29.86 382.8,-36.15 384.85,-29.45"/>
<text text-anchor="middle" x="528.64" y="-57.8" font-family="Times,serif" font-size="14.00">iri</text>
</g>
<!-- type -->
<g id="node5" class="node">
<title>type</title>
<ellipse fill="none" stroke="blue" cx="441.64" cy="-18" rx="38.19" ry="18"/>
<text text-anchor="middle" x="441.64" y="-14.3" font-family="Times,serif" font-size="14.00">string</text>
</g>
<!-- cellular component&#45;&gt;type -->
<g id="edge4" class="edge">
<title>cellular component&#45;&gt;type</title>
<path fill="none" stroke="blue" d="M653.54,-89.48C632.46,-83.36 607.81,-76.03 585.64,-69 542.23,-55.24 531.61,-51.08 488.64,-36 485.96,-35.06 483.19,-34.08 480.4,-33.08"/>
<polygon fill="blue" stroke="blue" points="481.54,-29.78 470.94,-29.7 479.18,-36.37 481.54,-29.78"/>
<text text-anchor="middle" x="601.64" y="-57.8" font-family="Times,serif" font-size="14.00">type</text>
</g>
<!-- name -->
<g id="node6" class="node">
<title>name</title>
<ellipse fill="none" stroke="blue" cx="554.64" cy="-18" rx="56.59" ry="18"/>
<text text-anchor="middle" x="554.64" y="-14.3" font-family="Times,serif" font-size="14.00">label type</text>
</g>
<!-- cellular component&#45;&gt;name -->
<g id="edge5" class="edge">
<title>cellular component&#45;&gt;name</title>
<path fill="none" stroke="blue" d="M675.72,-87.61C651.35,-73.8 616.38,-53.99 590.29,-39.2"/>
<polygon fill="blue" stroke="blue" points="591.88,-36.08 581.46,-34.2 588.43,-42.17 591.88,-36.08"/>
<text text-anchor="middle" x="658.64" y="-57.8" font-family="Times,serif" font-size="14.00">name</text>
</g>
<!-- description -->
<g id="node7" class="node">
<title>description</title>
<ellipse fill="none" stroke="blue" cx="704.64" cy="-18" rx="75.29" ry="18"/>
<text text-anchor="middle" x="704.64" y="-14.3" font-family="Times,serif" font-size="14.00">narrative text</text>
</g>
<!-- cellular component&#45;&gt;description -->
<g id="edge6" class="edge">
<title>cellular component&#45;&gt;description</title>
<path fill="none" stroke="blue" d="M704.64,-86.8C704.64,-75.16 704.64,-59.55 704.64,-46.24"/>
<polygon fill="blue" stroke="blue" points="708.14,-46.18 704.64,-36.18 701.14,-46.18 708.14,-46.18"/>
<text text-anchor="middle" x="745.14" y="-57.8" font-family="Times,serif" font-size="14.00">description</text>
</g>
<!-- source -->
<g id="node8" class="node">
<title>source</title>
<ellipse fill="none" stroke="blue" cx="854.64" cy="-18" rx="56.59" ry="18"/>
<text text-anchor="middle" x="854.64" y="-14.3" font-family="Times,serif" font-size="14.00">label type</text>
</g>
<!-- cellular component&#45;&gt;source -->
<g id="edge7" class="edge">
<title>cellular component&#45;&gt;source</title>
<path fill="none" stroke="blue" d="M748.07,-88.7C761.73,-83.2 776.65,-76.49 789.64,-69 803.24,-61.16 817.18,-50.8 828.64,-41.54"/>
<polygon fill="blue" stroke="blue" points="831.03,-44.11 836.52,-35.05 826.57,-38.71 831.03,-44.11"/>
<text text-anchor="middle" x="836.64" y="-57.8" font-family="Times,serif" font-size="14.00">source</text>
</g>
<!-- provided by -->
<g id="node9" class="node">
<title>provided by</title>
<ellipse fill="none" stroke="blue" cx="966.64" cy="-18" rx="37.09" ry="18"/>
<text text-anchor="middle" x="966.64" y="-14.3" font-family="Times,serif" font-size="14.00">agent</text>
</g>
<!-- cellular component&#45;&gt;provided by -->
<g id="edge8" class="edge">
<title>cellular component&#45;&gt;provided by</title>
<path fill="none" stroke="blue" d="M775.35,-92.34C803.55,-86.7 836.05,-78.97 864.64,-69 888.92,-60.53 914.92,-47.73 934.59,-37.19"/>
<polygon fill="blue" stroke="blue" points="936.32,-40.24 943.43,-32.39 932.97,-34.09 936.32,-40.24"/>
<text text-anchor="middle" x="942.14" y="-57.8" font-family="Times,serif" font-size="14.00">provided by</text>
</g>
<!-- category -->
<g id="node10" class="node">
<title>category</title>
<ellipse fill="none" stroke="black" cx="1072.64" cy="-18" rx="51.19" ry="18"/>
<text text-anchor="middle" x="1072.64" y="-14.3" font-family="Times,serif" font-size="14.00">category</text>
</g>
<!-- cellular component&#45;&gt;category -->
<g id="edge9" class="edge">
<title>cellular component&#45;&gt;category</title>
<path fill="none" stroke="blue" d="M775.44,-92.29C787.82,-90.41 800.6,-88.56 812.64,-87 890.62,-76.88 913.99,-93.69 988.64,-69 1008.17,-62.54 1028.04,-50.99 1043.55,-40.61"/>
<polygon fill="blue" stroke="blue" points="1045.89,-43.25 1052.14,-34.69 1041.92,-37.49 1045.89,-43.25"/>
<text text-anchor="middle" x="1052.14" y="-57.8" font-family="Times,serif" font-size="14.00">category</text>
</g>
<!-- has attribute -->
<g id="node12" class="node">
<title>has attribute</title>
<ellipse fill="none" stroke="black" cx="1213.64" cy="-18" rx="71.49" ry="18"/>
<text text-anchor="middle" x="1213.64" y="-14.3" font-family="Times,serif" font-size="14.00">has attribute</text>
</g>
<!-- cellular component&#45;&gt;has attribute -->
<g id="edge10" class="edge">
<title>cellular component&#45;&gt;has attribute</title>
<path fill="none" stroke="blue" d="M774.23,-92.1C786.98,-90.19 800.19,-88.38 812.64,-87 934.38,-73.46 968.15,-95.92 1087.64,-69 1117.44,-62.29 1149.4,-49.53 1173.68,-38.59"/>
<polygon fill="blue" stroke="blue" points="1175.3,-41.7 1182.92,-34.34 1172.37,-35.33 1175.3,-41.7"/>
<text text-anchor="middle" x="1181.64" y="-57.8" font-family="Times,serif" font-size="14.00">has attribute</text>
</g>
<!-- in taxon -->
<g id="node14" class="node">
<title>in taxon</title>
<ellipse fill="none" stroke="blue" cx="1386.64" cy="-18" rx="83.39" ry="18"/>
<text text-anchor="middle" x="1386.64" y="-14.3" font-family="Times,serif" font-size="14.00">organism taxon</text>
</g>
<!-- cellular component&#45;&gt;in taxon -->
<g id="edge11" class="edge">
<title>cellular component&#45;&gt;in taxon</title>
<path fill="none" stroke="blue" d="M773.63,-91.95C786.56,-90.03 799.99,-88.26 812.64,-87 998.56,-68.44 1048.77,-102.15 1232.64,-69 1269.59,-62.34 1309.89,-49.02 1340,-37.8"/>
<polygon fill="blue" stroke="blue" points="1341.29,-41.06 1349.4,-34.25 1338.81,-34.51 1341.29,-41.06"/>
<text text-anchor="middle" x="1317.64" y="-57.8" font-family="Times,serif" font-size="14.00">in taxon</text>
</g>
<!-- named thing_category -->
<g id="node11" class="node">
<title>named thing_category</title>
<ellipse fill="none" stroke="blue" cx="891.64" cy="-105" rx="69.59" ry="18"/>
<text text-anchor="middle" x="891.64" y="-101.3" font-family="Times,serif" font-size="14.00">named thing</text>
</g>
<!-- organismal entity_has attribute -->
<g id="node13" class="node">
<title>organismal entity_has attribute</title>
<ellipse fill="none" stroke="blue" cx="1031.64" cy="-105" rx="51.99" ry="18"/>
<text text-anchor="middle" x="1031.64" y="-101.3" font-family="Times,serif" font-size="14.00">attribute</text>
</g>
</g>
</svg>
