<?xml version="1.0" encoding="UTF-8" standalone="no"?>
<!DOCTYPE svg PUBLIC "-//W3C//DTD SVG 1.1//EN"
 "http://www.w3.org/Graphics/SVG/1.1/DTD/svg11.dtd">
<!-- Generated by graphviz version 2.43.0 (0)
 -->
<!-- Title: %3 Pages: 1 -->
<svg width="2136pt" height="131pt"
 viewBox="0.00 0.00 2136.44 131.00" xmlns="http://www.w3.org/2000/svg" xmlns:xlink="http://www.w3.org/1999/xlink">
<g id="graph0" class="graph" transform="scale(1 1) rotate(0) translate(4 127)">
<title>%3</title>
<polygon fill="white" stroke="transparent" points="-4,4 -4,-127 2132.44,-127 2132.44,4 -4,4"/>
<!-- cell line -->
<g id="node1" class="node">
<title>cell line</title>
<ellipse fill="none" stroke="black" cx="1096.94" cy="-105" rx="46.59" ry="18"/>
<text text-anchor="middle" x="1096.94" y="-101.3" font-family="Times,serif" font-size="14.00">cell line</text>
</g>
<!-- organismal entity -->
<g id="node2" class="node">
<title>organismal entity</title>
<ellipse fill="none" stroke="black" cx="92.94" cy="-18" rx="92.88" ry="18"/>
<text text-anchor="middle" x="92.94" y="-14.3" font-family="Times,serif" font-size="14.00">organismal entity</text>
</g>
<!-- cell line&#45;&gt;organismal entity -->
<g id="edge1" class="edge">
<title>cell line&#45;&gt;organismal entity</title>
<path fill="none" stroke="black" d="M1050.28,-102.58C944.54,-99.11 678.6,-88.99 456.94,-69 340.05,-58.46 311.07,-52.98 194.94,-36 186.77,-34.8 178.24,-33.49 169.75,-32.14"/>
<polygon fill="black" stroke="black" points="170.25,-28.67 159.82,-30.54 169.14,-35.58 170.25,-28.67"/>
<text text-anchor="middle" x="470.94" y="-57.8" font-family="Times,serif" font-size="14.00">is_a</text>
</g>
<!-- subject of investigation -->
<g id="node3" class="node">
<title>subject of investigation</title>
<ellipse fill="none" stroke="black" cx="323.94" cy="-18" rx="119.68" ry="18"/>
<text text-anchor="middle" x="323.94" y="-14.3" font-family="Times,serif" font-size="14.00">subject of investigation</text>
</g>
<!-- cell line&#45;&gt;subject of investigation -->
<g id="edge2" class="edge">
<title>cell line&#45;&gt;subject of investigation</title>
<path fill="none" stroke="black" d="M1050.5,-102.79C959.86,-99.99 753.22,-91.51 580.94,-69 518.19,-60.8 447.69,-46.73 396.42,-35.6"/>
<polygon fill="black" stroke="black" points="396.95,-32.14 386.43,-33.42 395.45,-38.97 396.95,-32.14"/>
<text text-anchor="middle" x="597.44" y="-57.8" font-family="Times,serif" font-size="14.00">uses</text>
</g>
<!-- id -->
<g id="node4" class="node">
<title>id</title>
<ellipse fill="none" stroke="blue" cx="499.94" cy="-18" rx="38.19" ry="18"/>
<text text-anchor="middle" x="499.94" y="-14.3" font-family="Times,serif" font-size="14.00">string</text>
</g>
<!-- cell line&#45;&gt;id -->
<g id="edge3" class="edge">
<title>cell line&#45;&gt;id</title>
<path fill="none" stroke="blue" d="M1050.63,-101.71C976.77,-97.65 827.89,-87.78 702.94,-69 633.29,-58.53 615.73,-55.13 547.94,-36 544.84,-35.12 541.64,-34.15 538.44,-33.13"/>
<polygon fill="blue" stroke="blue" points="539.53,-29.8 528.94,-29.95 537.31,-36.44 539.53,-29.8"/>
<text text-anchor="middle" x="709.94" y="-57.8" font-family="Times,serif" font-size="14.00">id</text>
</g>
<!-- iri -->
<g id="node5" class="node">
<title>iri</title>
<ellipse fill="none" stroke="blue" cx="600.94" cy="-18" rx="44.39" ry="18"/>
<text text-anchor="middle" x="600.94" y="-14.3" font-family="Times,serif" font-size="14.00">iri type</text>
</g>
<!-- cell line&#45;&gt;iri -->
<g id="edge4" class="edge">
<title>cell line&#45;&gt;iri</title>
<path fill="none" stroke="blue" d="M1051.32,-100.56C991.3,-95.63 882.68,-85.31 790.94,-69 729.7,-58.11 714.86,-52.68 654.94,-36 651.37,-35.01 647.68,-33.94 643.98,-32.83"/>
<polygon fill="blue" stroke="blue" points="644.84,-29.44 634.25,-29.87 642.8,-36.13 644.84,-29.44"/>
<text text-anchor="middle" x="798.94" y="-57.8" font-family="Times,serif" font-size="14.00">iri</text>
</g>
<!-- type -->
<g id="node6" class="node">
<title>type</title>
<ellipse fill="none" stroke="blue" cx="701.94" cy="-18" rx="38.19" ry="18"/>
<text text-anchor="middle" x="701.94" y="-14.3" font-family="Times,serif" font-size="14.00">string</text>
</g>
<!-- cell line&#45;&gt;type -->
<g id="edge5" class="edge">
<title>cell line&#45;&gt;type</title>
<path fill="none" stroke="blue" d="M1053.12,-98.47C1007.97,-92.46 935.69,-81.96 873.94,-69 817.71,-57.2 803.79,-53.12 748.94,-36 746.19,-35.14 743.35,-34.22 740.51,-33.26"/>
<polygon fill="blue" stroke="blue" points="741.48,-29.89 730.89,-29.93 739.19,-36.51 741.48,-29.89"/>
<text text-anchor="middle" x="889.94" y="-57.8" font-family="Times,serif" font-size="14.00">type</text>
</g>
<!-- name -->
<g id="node7" class="node">
<title>name</title>
<ellipse fill="none" stroke="blue" cx="814.94" cy="-18" rx="56.59" ry="18"/>
<text text-anchor="middle" x="814.94" y="-14.3" font-family="Times,serif" font-size="14.00">label type</text>
</g>
<!-- cell line&#45;&gt;name -->
<g id="edge6" class="edge">
<title>cell line&#45;&gt;name</title>
<path fill="none" stroke="blue" d="M1056.63,-95.67C1027.13,-89.25 986.24,-79.68 950.94,-69 919.31,-59.43 884.33,-46.52 857.77,-36.21"/>
<polygon fill="blue" stroke="blue" points="858.97,-32.92 848.38,-32.54 856.42,-39.44 858.97,-32.92"/>
<text text-anchor="middle" x="970.94" y="-57.8" font-family="Times,serif" font-size="14.00">name</text>
</g>
<!-- description -->
<g id="node8" class="node">
<title>description</title>
<ellipse fill="none" stroke="blue" cx="964.94" cy="-18" rx="75.29" ry="18"/>
<text text-anchor="middle" x="964.94" y="-14.3" font-family="Times,serif" font-size="14.00">narrative text</text>
</g>
<!-- cell line&#45;&gt;description -->
<g id="edge7" class="edge">
<title>cell line&#45;&gt;description</title>
<path fill="none" stroke="blue" d="M1061.32,-93.17C1045.42,-87.39 1026.92,-79.32 1011.94,-69 1001.88,-62.06 992.33,-52.66 984.51,-43.87"/>
<polygon fill="blue" stroke="blue" points="986.99,-41.4 977.83,-36.07 981.67,-45.95 986.99,-41.4"/>
<text text-anchor="middle" x="1052.44" y="-57.8" font-family="Times,serif" font-size="14.00">description</text>
</g>
<!-- provided by -->
<g id="node9" class="node">
<title>provided by</title>
<ellipse fill="none" stroke="blue" cx="1096.94" cy="-18" rx="38.19" ry="18"/>
<text text-anchor="middle" x="1096.94" y="-14.3" font-family="Times,serif" font-size="14.00">string</text>
</g>
<!-- cell line&#45;&gt;provided by -->
<g id="edge8" class="edge">
<title>cell line&#45;&gt;provided by</title>
<path fill="none" stroke="blue" d="M1096.94,-86.8C1096.94,-75.16 1096.94,-59.55 1096.94,-46.24"/>
<polygon fill="blue" stroke="blue" points="1100.44,-46.18 1096.94,-36.18 1093.44,-46.18 1100.44,-46.18"/>
<text text-anchor="middle" x="1139.44" y="-57.8" font-family="Times,serif" font-size="14.00">provided by</text>
</g>
<!-- xref -->
<g id="node10" class="node">
<title>xref</title>
<ellipse fill="none" stroke="blue" cx="1210.94" cy="-18" rx="57.39" ry="18"/>
<text text-anchor="middle" x="1210.94" y="-14.3" font-family="Times,serif" font-size="14.00">uriorcurie</text>
</g>
<!-- cell line&#45;&gt;xref -->
<g id="edge9" class="edge">
<title>cell line&#45;&gt;xref</title>
<path fill="none" stroke="blue" d="M1132.25,-93C1153.37,-85.88 1177.67,-76.56 1185.94,-69 1192.84,-62.69 1198.08,-54.05 1201.95,-45.73"/>
<polygon fill="blue" stroke="blue" points="1205.27,-46.84 1205.86,-36.26 1198.8,-44.17 1205.27,-46.84"/>
<text text-anchor="middle" x="1212.44" y="-57.8" font-family="Times,serif" font-size="14.00">xref</text>
</g>
<!-- full name -->
<g id="node11" class="node">
<title>full name</title>
<ellipse fill="none" stroke="blue" cx="1342.94" cy="-18" rx="56.59" ry="18"/>
<text text-anchor="middle" x="1342.94" y="-14.3" font-family="Times,serif" font-size="14.00">label type</text>
</g>
<!-- cell line&#45;&gt;full name -->
<g id="edge10" class="edge">
<title>cell line&#45;&gt;full name</title>
<path fill="none" stroke="blue" d="M1132.09,-92.93C1138.98,-90.88 1146.17,-88.81 1152.94,-87 1187.32,-77.83 1197.21,-80.3 1230.94,-69 1256.27,-60.51 1283.67,-48.34 1305.02,-38.13"/>
<polygon fill="blue" stroke="blue" points="1306.61,-41.25 1314.08,-33.74 1303.56,-34.95 1306.61,-41.25"/>
<text text-anchor="middle" x="1302.44" y="-57.8" font-family="Times,serif" font-size="14.00">full name</text>
</g>
<!-- synonym -->
<g id="node12" class="node">
<title>synonym</title>
<ellipse fill="none" stroke="blue" cx="1473.94" cy="-18" rx="56.59" ry="18"/>
<text text-anchor="middle" x="1473.94" y="-14.3" font-family="Times,serif" font-size="14.00">label type</text>
</g>
<!-- cell line&#45;&gt;synonym -->
<g id="edge11" class="edge">
<title>cell line&#45;&gt;synonym</title>
<path fill="none" stroke="blue" d="M1131.02,-92.48C1138.2,-90.39 1145.77,-88.42 1152.94,-87 1234.85,-70.79 1258.58,-87.75 1339.94,-69 1372.37,-61.52 1407.58,-48.17 1433.76,-37.14"/>
<polygon fill="blue" stroke="blue" points="1435.16,-40.35 1442.98,-33.2 1432.41,-33.91 1435.16,-40.35"/>
<text text-anchor="middle" x="1420.94" y="-57.8" font-family="Times,serif" font-size="14.00">synonym</text>
</g>
<!-- category -->
<g id="node13" class="node">
<title>category</title>
<ellipse fill="none" stroke="black" cx="1599.94" cy="-18" rx="51.19" ry="18"/>
<text text-anchor="middle" x="1599.94" y="-14.3" font-family="Times,serif" font-size="14.00">category</text>
</g>
<!-- cell line&#45;&gt;category -->
<g id="edge12" class="edge">
<title>cell line&#45;&gt;category</title>
<path fill="none" stroke="blue" d="M1130.69,-92.36C1137.95,-90.25 1145.64,-88.31 1152.94,-87 1286.18,-63.18 1324.23,-95.59 1456.94,-69 1492.58,-61.86 1531.42,-47.86 1559.61,-36.48"/>
<polygon fill="blue" stroke="blue" points="1561.19,-39.61 1569.12,-32.58 1558.54,-33.14 1561.19,-39.61"/>
<text text-anchor="middle" x="1541.44" y="-57.8" font-family="Times,serif" font-size="14.00">category</text>
</g>
<!-- in taxon -->
<g id="node15" class="node">
<title>in taxon</title>
<ellipse fill="none" stroke="blue" cx="1752.94" cy="-18" rx="83.39" ry="18"/>
<text text-anchor="middle" x="1752.94" y="-14.3" font-family="Times,serif" font-size="14.00">organism taxon</text>
</g>
<!-- cell line&#45;&gt;in taxon -->
<g id="edge13" class="edge">
<title>cell line&#45;&gt;in taxon</title>
<path fill="none" stroke="blue" d="M1130.37,-92.35C1137.72,-90.21 1145.53,-88.26 1152.94,-87 1338.88,-55.35 1390.73,-98.98 1576.94,-69 1619.76,-62.11 1666.96,-48.35 1701.7,-37"/>
<polygon fill="blue" stroke="blue" points="1703.21,-40.19 1711.6,-33.72 1701.01,-33.54 1703.21,-40.19"/>
<text text-anchor="middle" x="1669.94" y="-57.8" font-family="Times,serif" font-size="14.00">in taxon</text>
</g>
<!-- in taxon label -->
<g id="node16" class="node">
<title>in taxon label</title>
<ellipse fill="none" stroke="blue" cx="1910.94" cy="-18" rx="56.59" ry="18"/>
<text text-anchor="middle" x="1910.94" y="-14.3" font-family="Times,serif" font-size="14.00">label type</text>
</g>
<!-- cell line&#45;&gt;in taxon label -->
<g id="edge14" class="edge">
<title>cell line&#45;&gt;in taxon label</title>
<path fill="none" stroke="blue" d="M1130.36,-92.3C1137.71,-90.16 1145.52,-88.23 1152.94,-87 1394.25,-47.14 1460.45,-100.83 1702.94,-69 1758.17,-61.75 1820.08,-45.83 1861.88,-33.89"/>
<polygon fill="blue" stroke="blue" points="1862.9,-37.24 1871.53,-31.11 1860.96,-30.52 1862.9,-37.24"/>
<text text-anchor="middle" x="1832.44" y="-57.8" font-family="Times,serif" font-size="14.00">in taxon label</text>
</g>
<!-- has attribute -->
<g id="node17" class="node">
<title>has attribute</title>
<ellipse fill="none" stroke="black" cx="2056.94" cy="-18" rx="71.49" ry="18"/>
<text text-anchor="middle" x="2056.94" y="-14.3" font-family="Times,serif" font-size="14.00">has attribute</text>
</g>
<!-- cell line&#45;&gt;has attribute -->
<g id="edge15" class="edge">
<title>cell line&#45;&gt;has attribute</title>
<path fill="none" stroke="blue" d="M1130.35,-92.25C1137.71,-90.12 1145.52,-88.2 1152.94,-87 1474.23,-35.26 1563.35,-118.84 1884.94,-69 1927.74,-62.37 1974.87,-48.16 2008.95,-36.57"/>
<polygon fill="blue" stroke="blue" points="2010.34,-39.8 2018.65,-33.23 2008.06,-33.18 2010.34,-39.8"/>
<text text-anchor="middle" x="1998.94" y="-57.8" font-family="Times,serif" font-size="14.00">has attribute</text>
</g>
<!-- named thing_category -->
<g id="node14" class="node">
<title>named thing_category</title>
<ellipse fill="none" stroke="blue" cx="1236.94" cy="-105" rx="74.99" ry="18"/>
<text text-anchor="middle" x="1236.94" y="-101.3" font-family="Times,serif" font-size="14.00">category type</text>
</g>
<!-- organismal entity_has attribute -->
<g id="node18" class="node">
<title>organismal entity_has attribute</title>
<ellipse fill="none" stroke="blue" cx="1381.94" cy="-105" rx="51.99" ry="18"/>
<text text-anchor="middle" x="1381.94" y="-101.3" font-family="Times,serif" font-size="14.00">attribute</text>
</g>
</g>
</svg>
