<?xml version="1.0" encoding="UTF-8" standalone="no"?>
<!DOCTYPE svg PUBLIC "-//W3C//DTD SVG 1.1//EN"
 "http://www.w3.org/Graphics/SVG/1.1/DTD/svg11.dtd">
<!-- Generated by graphviz version 2.40.1 (20161225.0304)
 -->
<!-- Title: %3 Pages: 1 -->
<svg width="1625pt" height="130pt"
 viewBox="0.00 0.00 1625.18 130.00" xmlns="http://www.w3.org/2000/svg" xmlns:xlink="http://www.w3.org/1999/xlink">
<g id="graph0" class="graph" transform="scale(1 1) rotate(0) translate(4 126)">
<title>%3</title>
<polygon fill="#ffffff" stroke="transparent" points="-4,4 -4,-126 1621.1787,-126 1621.1787,4 -4,4"/>
<!-- cell line -->
<g id="node1" class="node">
<title>cell line</title>
<ellipse fill="none" stroke="#000000" cx="773.4566" cy="-104" rx="38.1864" ry="18"/>
<text text-anchor="middle" x="773.4566" y="-99.8" font-family="Times,serif" font-size="14.00" fill="#000000">cell line</text>
</g>
<!-- biosample -->
<g id="node2" class="node">
<title>biosample</title>
<ellipse fill="none" stroke="#000000" cx="46.4566" cy="-18" rx="46.4132" ry="18"/>
<text text-anchor="middle" x="46.4566" y="-13.8" font-family="Times,serif" font-size="14.00" fill="#000000">biosample</text>
</g>
<!-- cell line&#45;&gt;biosample -->
<g id="edge1" class="edge">
<title>cell line&#45;&gt;biosample</title>
<path fill="none" stroke="#000000" d="M735.1586,-102.6896C651.3997,-99.5052 445.7577,-89.9512 274.9048,-68 197.5883,-58.0664 178.0383,-55.0769 102.4566,-36 98.827,-35.0839 95.0887,-34.0611 91.3472,-32.9809"/>
<polygon fill="#000000" stroke="#000000" points="92.0927,-29.5503 81.5084,-30.0216 90.0765,-36.2537 92.0927,-29.5503"/>
<text text-anchor="middle" x="286.7325" y="-56.8" font-family="Times,serif" font-size="14.00" fill="#000000">is_a</text>
</g>
<!-- id -->
<g id="node3" class="node">
<title>id</title>
<ellipse fill="none" stroke="#0000ff" cx="170.4566" cy="-18" rx="59.4427" ry="18"/>
<text text-anchor="middle" x="170.4566" y="-13.8" font-family="Times,serif" font-size="14.00" fill="#000000">identifier type</text>
</g>
<!-- cell line&#45;&gt;id -->
<g id="edge2" class="edge">
<title>cell line&#45;&gt;id</title>
<path fill="none" stroke="#0000ff" d="M735.0569,-102.6064C662.5806,-99.5337 500.8434,-90.5675 366.5669,-68 316.8954,-59.6518 261.3598,-44.9749 222.1026,-33.6747"/>
<polygon fill="#0000ff" stroke="#0000ff" points="223.0656,-30.3098 212.4861,-30.8804 221.1123,-37.0318 223.0656,-30.3098"/>
<text text-anchor="middle" x="372.9014" y="-56.8" font-family="Times,serif" font-size="14.00" fill="#000000">id</text>
</g>
<!-- name -->
<g id="node4" class="node">
<title>name</title>
<ellipse fill="none" stroke="#0000ff" cx="292.4566" cy="-18" rx="44.9599" ry="18"/>
<text text-anchor="middle" x="292.4566" y="-13.8" font-family="Times,serif" font-size="14.00" fill="#000000">label type</text>
</g>
<!-- cell line&#45;&gt;name -->
<g id="edge3" class="edge">
<title>cell line&#45;&gt;name</title>
<path fill="none" stroke="#0000ff" d="M734.8968,-103.1943C670.235,-101.1371 536.2051,-93.8405 426.1392,-68 393.2677,-60.2826 357.514,-46.6145 331.26,-35.5172"/>
<polygon fill="#0000ff" stroke="#0000ff" points="332.6101,-32.2879 322.0402,-31.5608 329.8496,-38.7207 332.6101,-32.2879"/>
<text text-anchor="middle" x="441.6153" y="-56.8" font-family="Times,serif" font-size="14.00" fill="#000000">name</text>
</g>
<!-- category -->
<g id="node5" class="node">
<title>category</title>
<ellipse fill="none" stroke="#0000ff" cx="390.4566" cy="-18" rx="35.3048" ry="18"/>
<text text-anchor="middle" x="390.4566" y="-13.8" font-family="Times,serif" font-size="14.00" fill="#000000">iri type</text>
</g>
<!-- cell line&#45;&gt;category -->
<g id="edge4" class="edge">
<title>cell line&#45;&gt;category</title>
<path fill="none" stroke="#0000ff" d="M734.872,-102.8426C680.4235,-100.3535 578.406,-92.5316 495.2632,-68 469.7759,-60.4799 442.7493,-47.4481 422.5256,-36.5743"/>
<polygon fill="#0000ff" stroke="#0000ff" points="424.1934,-33.4971 413.7423,-31.7576 420.8275,-39.6348 424.1934,-33.4971"/>
<text text-anchor="middle" x="519.5533" y="-56.8" font-family="Times,serif" font-size="14.00" fill="#000000">category</text>
</g>
<!-- related to -->
<g id="node6" class="node">
<title>related to</title>
<ellipse fill="none" stroke="#0000ff" cx="497.4566" cy="-18" rx="54.1389" ry="18"/>
<text text-anchor="middle" x="497.4566" y="-13.8" font-family="Times,serif" font-size="14.00" fill="#000000">named thing</text>
</g>
<!-- cell line&#45;&gt;related to -->
<g id="edge5" class="edge">
<title>cell line&#45;&gt;related to</title>
<path fill="none" stroke="#0000ff" d="M735.2485,-101.7534C693.9474,-98.2825 626.8126,-89.5765 572.9839,-68 556.4603,-61.3767 539.7815,-50.8341 526.3158,-41.1334"/>
<polygon fill="#0000ff" stroke="#0000ff" points="528.0795,-38.0835 517.9648,-34.9299 523.9052,-43.7028 528.0795,-38.0835"/>
<text text-anchor="middle" x="599.6929" y="-56.8" font-family="Times,serif" font-size="14.00" fill="#000000">related to</text>
</g>
<!-- interacts with -->
<g id="node7" class="node">
<title>interacts with</title>
<ellipse fill="none" stroke="#0000ff" cx="623.4566" cy="-18" rx="54.1389" ry="18"/>
<text text-anchor="middle" x="623.4566" y="-13.8" font-family="Times,serif" font-size="14.00" fill="#000000">named thing</text>
</g>
<!-- cell line&#45;&gt;interacts with -->
<g id="edge6" class="edge">
<title>cell line&#45;&gt;interacts with</title>
<path fill="none" stroke="#0000ff" d="M736.6867,-98.4364C701.4457,-92.3874 651.6076,-81.7206 637.646,-68 631.7634,-62.2188 628.2726,-54.1916 626.2156,-46.2593"/>
<polygon fill="#0000ff" stroke="#0000ff" points="629.6503,-45.5861 624.3047,-36.4387 622.7792,-46.9231 629.6503,-45.5861"/>
<text text-anchor="middle" x="676.3618" y="-56.8" font-family="Times,serif" font-size="14.00" fill="#000000">interacts with</text>
</g>
<!-- node property -->
<g id="node8" class="node">
<title>node property</title>
<ellipse fill="none" stroke="#0000ff" cx="725.4566" cy="-18" rx="30.0035" ry="18"/>
<text text-anchor="middle" x="725.4566" y="-13.8" font-family="Times,serif" font-size="14.00" fill="#000000">string</text>
</g>
<!-- cell line&#45;&gt;node property -->
<g id="edge7" class="edge">
<title>cell line&#45;&gt;node property</title>
<path fill="none" stroke="#0000ff" d="M744.9637,-91.6593C735.3464,-85.948 725.6934,-78.1398 720.315,-68 716.7166,-61.2161 716.1997,-53.1879 717.0709,-45.5725"/>
<polygon fill="#0000ff" stroke="#0000ff" points="720.5377,-46.0761 718.9603,-35.5994 713.66,-44.7731 720.5377,-46.0761"/>
<text text-anchor="middle" x="759.5274" y="-56.8" font-family="Times,serif" font-size="14.00" fill="#000000">node property</text>
</g>
<!-- iri -->
<g id="node9" class="node">
<title>iri</title>
<ellipse fill="none" stroke="#0000ff" cx="809.4566" cy="-18" rx="35.3048" ry="18"/>
<text text-anchor="middle" x="809.4566" y="-13.8" font-family="Times,serif" font-size="14.00" fill="#000000">iri type</text>
</g>
<!-- cell line&#45;&gt;iri -->
<g id="edge8" class="edge">
<title>cell line&#45;&gt;iri</title>
<path fill="none" stroke="#0000ff" d="M789.6933,-87.6762C794.5518,-81.9004 799.3953,-75.0703 802.4566,-68 805.3581,-61.2987 807.1125,-53.6635 808.159,-46.4122"/>
<polygon fill="#0000ff" stroke="#0000ff" points="811.6661,-46.5287 809.2371,-36.2161 804.7049,-45.7926 811.6661,-46.5287"/>
<text text-anchor="middle" x="813.6773" y="-56.8" font-family="Times,serif" font-size="14.00" fill="#000000">iri</text>
</g>
<!-- synonym -->
<g id="node10" class="node">
<title>synonym</title>
<ellipse fill="none" stroke="#0000ff" cx="907.4566" cy="-18" rx="44.9599" ry="18"/>
<text text-anchor="middle" x="907.4566" y="-13.8" font-family="Times,serif" font-size="14.00" fill="#000000">label type</text>
</g>
<!-- cell line&#45;&gt;synonym -->
<g id="edge9" class="edge">
<title>cell line&#45;&gt;synonym</title>
<path fill="none" stroke="#0000ff" d="M796.1878,-89.4113C817.7347,-75.5827 850.3378,-54.6583 874.6903,-39.0291"/>
<polygon fill="#0000ff" stroke="#0000ff" points="876.7278,-41.8803 883.2532,-33.5335 872.9469,-35.9892 876.7278,-41.8803"/>
<text text-anchor="middle" x="875.1255" y="-56.8" font-family="Times,serif" font-size="14.00" fill="#000000">synonym</text>
</g>
<!-- full name -->
<g id="node11" class="node">
<title>full name</title>
<ellipse fill="none" stroke="#0000ff" cx="1014.4566" cy="-18" rx="44.9599" ry="18"/>
<text text-anchor="middle" x="1014.4566" y="-13.8" font-family="Times,serif" font-size="14.00" fill="#000000">label type</text>
</g>
<!-- cell line&#45;&gt;full name -->
<g id="edge10" class="edge">
<title>cell line&#45;&gt;full name</title>
<path fill="none" stroke="#0000ff" d="M808.1242,-96.0649C834.804,-89.5777 872.4106,-79.6036 904.4566,-68 929.2583,-59.0194 956.2342,-46.7981 977.2648,-36.6863"/>
<polygon fill="#0000ff" stroke="#0000ff" points="979.0157,-39.7269 986.48,-32.2079 975.956,-33.431 979.0157,-39.7269"/>
<text text-anchor="middle" x="965.086" y="-56.8" font-family="Times,serif" font-size="14.00" fill="#000000">full name</text>
</g>
<!-- description -->
<g id="node12" class="node">
<title>description</title>
<ellipse fill="none" stroke="#0000ff" cx="1134.4566" cy="-18" rx="57.0027" ry="18"/>
<text text-anchor="middle" x="1134.4566" y="-13.8" font-family="Times,serif" font-size="14.00" fill="#000000">narrative text</text>
</g>
<!-- cell line&#45;&gt;description -->
<g id="edge11" class="edge">
<title>cell line&#45;&gt;description</title>
<path fill="none" stroke="#0000ff" d="M811.2091,-100.0303C855.7369,-94.8552 931.7604,-84.4702 995.4566,-68 1027.8527,-59.6232 1063.3336,-46.7969 1090.3394,-36.2327"/>
<polygon fill="#0000ff" stroke="#0000ff" points="1091.8736,-39.3897 1099.884,-32.4554 1089.2977,-32.8809 1091.8736,-39.3897"/>
<text text-anchor="middle" x="1069.5601" y="-56.8" font-family="Times,serif" font-size="14.00" fill="#000000">description</text>
</g>
<!-- systematic synonym -->
<g id="node13" class="node">
<title>systematic synonym</title>
<ellipse fill="none" stroke="#0000ff" cx="1254.4566" cy="-18" rx="44.9599" ry="18"/>
<text text-anchor="middle" x="1254.4566" y="-13.8" font-family="Times,serif" font-size="14.00" fill="#000000">label type</text>
</g>
<!-- cell line&#45;&gt;systematic synonym -->
<g id="edge12" class="edge">
<title>cell line&#45;&gt;systematic synonym</title>
<path fill="none" stroke="#0000ff" d="M811.8586,-102.4821C873.9884,-99.4346 1000.1231,-90.7885 1104.4566,-68 1142.0438,-59.7902 1183.4351,-45.5829 1213.1988,-34.406"/>
<polygon fill="#0000ff" stroke="#0000ff" points="1214.7221,-37.5713 1222.8245,-30.7447 1212.2335,-31.0285 1214.7221,-37.5713"/>
<text text-anchor="middle" x="1212.4239" y="-56.8" font-family="Times,serif" font-size="14.00" fill="#000000">systematic synonym</text>
</g>
<!-- has phenotype -->
<g id="node14" class="node">
<title>has phenotype</title>
<ellipse fill="none" stroke="#0000ff" cx="1393.4566" cy="-18" rx="76.3132" ry="18"/>
<text text-anchor="middle" x="1393.4566" y="-13.8" font-family="Times,serif" font-size="14.00" fill="#000000">phenotypic feature</text>
</g>
<!-- cell line&#45;&gt;has phenotype -->
<g id="edge13" class="edge">
<title>cell line&#45;&gt;has phenotype</title>
<path fill="none" stroke="#0000ff" d="M811.7668,-102.8373C912.9967,-99.5107 1185.8212,-88.8276 1273.4566,-68 1300.7392,-61.5159 1329.8064,-49.5477 1352.4991,-38.9462"/>
<polygon fill="#0000ff" stroke="#0000ff" points="1354.2904,-41.9696 1361.8104,-34.5063 1351.2776,-35.6511 1354.2904,-41.9696"/>
<text text-anchor="middle" x="1354.6963" y="-56.8" font-family="Times,serif" font-size="14.00" fill="#000000">has phenotype</text>
</g>
<!-- in taxon -->
<g id="node15" class="node">
<title>in taxon</title>
<ellipse fill="none" stroke="#0000ff" cx="1552.4566" cy="-18" rx="64.945" ry="18"/>
<text text-anchor="middle" x="1552.4566" y="-13.8" font-family="Times,serif" font-size="14.00" fill="#000000">organism taxon</text>
</g>
<!-- cell line&#45;&gt;in taxon -->
<g id="edge14" class="edge">
<title>cell line&#45;&gt;in taxon</title>
<path fill="none" stroke="#0000ff" d="M812.0467,-103.0714C930.0796,-100.0272 1285.0966,-89.3007 1398.4566,-68 1435.6002,-61.0206 1476.2061,-47.5809 1506.3923,-36.3918"/>
<polygon fill="#0000ff" stroke="#0000ff" points="1507.6821,-39.6461 1515.8093,-32.8491 1505.2173,-33.0944 1507.6821,-39.6461"/>
<text text-anchor="middle" x="1472.2032" y="-56.8" font-family="Times,serif" font-size="14.00" fill="#000000">in taxon</text>
</g>
</g>
</svg>
