<?xml version="1.0" encoding="UTF-8" standalone="no"?>
<!DOCTYPE svg PUBLIC "-//W3C//DTD SVG 1.1//EN"
 "http://www.w3.org/Graphics/SVG/1.1/DTD/svg11.dtd">
<!-- Generated by graphviz version 2.40.1 (20161225.0304)
 -->
<!-- Title: %3 Pages: 1 -->
<svg width="625pt" height="131pt"
 viewBox="0.00 0.00 624.79 131.00" xmlns="http://www.w3.org/2000/svg" xmlns:xlink="http://www.w3.org/1999/xlink">
<g id="graph0" class="graph" transform="scale(1 1) rotate(0) translate(4 127)">
<title>%3</title>
<polygon fill="#ffffff" stroke="transparent" points="-4,4 -4,-127 620.7878,-127 620.7878,4 -4,4"/>
<!-- cellular component -->
<g id="node1" class="node">
<title>cellular component</title>
<ellipse fill="none" stroke="#000000" cx="287.1436" cy="-105" rx="79.0865" ry="18"/>
<text text-anchor="middle" x="287.1436" y="-101.3" font-family="Times,serif" font-size="14.00" fill="#000000">cellular component</text>
</g>
<!-- anatomical entity -->
<g id="node2" class="node">
<title>anatomical entity</title>
<ellipse fill="none" stroke="#000000" cx="72.1436" cy="-18" rx="72.2875" ry="18"/>
<text text-anchor="middle" x="72.1436" y="-14.3" font-family="Times,serif" font-size="14.00" fill="#000000">anatomical entity</text>
</g>
<!-- cellular component&#45;&gt;anatomical entity -->
<g id="edge1" class="edge">
<title>cellular component&#45;&gt;anatomical entity</title>
<path fill="none" stroke="#000000" d="M248.2087,-89.245C212.0646,-74.6192 158.1721,-52.8115 119.5399,-37.179"/>
<polygon fill="#000000" stroke="#000000" points="120.6498,-33.8524 110.0671,-33.3458 118.024,-40.3413 120.6498,-33.8524"/>
<text text-anchor="middle" x="204.1436" y="-57.8" font-family="Times,serif" font-size="14.00" fill="#000000">is_a</text>
</g>
<!-- id -->
<g id="node3" class="node">
<title>id</title>
<ellipse fill="none" stroke="#0000ff" cx="193.1436" cy="-18" rx="30.5947" ry="18"/>
<text text-anchor="middle" x="193.1436" y="-14.3" font-family="Times,serif" font-size="14.00" fill="#000000">string</text>
</g>
<!-- cellular component&#45;&gt;id -->
<g id="edge2" class="edge">
<title>cellular component&#45;&gt;id</title>
<path fill="none" stroke="#0000ff" d="M268.1213,-87.3943C253.3685,-73.74 232.8334,-54.7341 216.9834,-40.0645"/>
<polygon fill="#0000ff" stroke="#0000ff" points="219.3412,-37.4777 209.6247,-33.2538 214.5864,-42.615 219.3412,-37.4777"/>
<text text-anchor="middle" x="251.6436" y="-57.8" font-family="Times,serif" font-size="14.00" fill="#000000">id</text>
</g>
<!-- name -->
<g id="node4" class="node">
<title>name</title>
<ellipse fill="none" stroke="#0000ff" cx="287.1436" cy="-18" rx="45.4919" ry="18"/>
<text text-anchor="middle" x="287.1436" y="-14.3" font-family="Times,serif" font-size="14.00" fill="#000000">label type</text>
</g>
<!-- cellular component&#45;&gt;name -->
<g id="edge3" class="edge">
<title>cellular component&#45;&gt;name</title>
<path fill="none" stroke="#0000ff" d="M287.1436,-86.9735C287.1436,-75.1918 287.1436,-59.5607 287.1436,-46.1581"/>
<polygon fill="#0000ff" stroke="#0000ff" points="290.6437,-46.0033 287.1436,-36.0034 283.6437,-46.0034 290.6437,-46.0033"/>
<text text-anchor="middle" x="302.6436" y="-57.8" font-family="Times,serif" font-size="14.00" fill="#000000">name</text>
</g>
<!-- category -->
<g id="node5" class="node">
<title>category</title>
<ellipse fill="none" stroke="#0000ff" cx="409.1436" cy="-18" rx="58.4896" ry="18"/>
<text text-anchor="middle" x="409.1436" y="-14.3" font-family="Times,serif" font-size="14.00" fill="#000000">category type</text>
</g>
<!-- cellular component&#45;&gt;category -->
<g id="edge4" class="edge">
<title>cellular component&#45;&gt;category</title>
<path fill="none" stroke="#0000ff" d="M311.2469,-87.8116C330.2893,-74.2322 357.0157,-55.1731 377.733,-40.3993"/>
<polygon fill="#0000ff" stroke="#0000ff" points="379.8084,-43.2182 385.9182,-34.5624 375.7442,-37.5189 379.8084,-43.2182"/>
<text text-anchor="middle" x="379.6436" y="-57.8" font-family="Times,serif" font-size="14.00" fill="#000000">category</text>
</g>
<!-- in taxon -->
<g id="node6" class="node">
<title>in taxon</title>
<ellipse fill="none" stroke="#0000ff" cx="551.1436" cy="-18" rx="65.7887" ry="18"/>
<text text-anchor="middle" x="551.1436" y="-14.3" font-family="Times,serif" font-size="14.00" fill="#000000">organism taxon</text>
</g>
<!-- cellular component&#45;&gt;in taxon -->
<g id="edge5" class="edge">
<title>cellular component&#45;&gt;in taxon</title>
<path fill="none" stroke="#0000ff" d="M336.3557,-90.8269C358.1253,-84.4053 383.9885,-76.5686 407.1436,-69 439.0523,-58.5701 474.6108,-45.9862 502.4092,-35.928"/>
<polygon fill="#0000ff" stroke="#0000ff" points="503.6937,-39.1853 511.8995,-32.4834 501.3054,-32.6053 503.6937,-39.1853"/>
<text text-anchor="middle" x="473.6436" y="-57.8" font-family="Times,serif" font-size="14.00" fill="#000000">in taxon</text>
</g>
</g>
</svg>
