<?xml version="1.0" encoding="UTF-8" standalone="no"?>
<!DOCTYPE svg PUBLIC "-//W3C//DTD SVG 1.1//EN"
 "http://www.w3.org/Graphics/SVG/1.1/DTD/svg11.dtd">
<!-- Generated by graphviz version 2.40.1 (20161225.0304)
 -->
<!-- Title: %3 Pages: 1 -->
<svg width="2897pt" height="291pt"
 viewBox="0.00 0.00 2896.88 291.00" xmlns="http://www.w3.org/2000/svg" xmlns:xlink="http://www.w3.org/1999/xlink">
<g id="graph0" class="graph" transform="scale(1 1) rotate(0) translate(4 287)">
<title>%3</title>
<polygon fill="#ffffff" stroke="transparent" points="-4,4 -4,-287 2892.88,-287 2892.88,4 -4,4"/>
<!-- cell line as a model of disease association -->
<g id="node1" class="node">
<title>cell line as a model of disease association</title>
<ellipse fill="none" stroke="#000000" cx="1778.6326" cy="-265" rx="159.4721" ry="18"/>
<text text-anchor="middle" x="1778.6326" y="-261.3" font-family="Times,serif" font-size="14.00" fill="#000000">cell line as a model of disease association</text>
</g>
<!-- cell line to disease or phenotypic feature association -->
<g id="node2" class="node">
<title>cell line to disease or phenotypic feature association</title>
<ellipse fill="none" stroke="#000000" cx="195.6326" cy="-178" rx="195.7654" ry="18"/>
<text text-anchor="middle" x="195.6326" y="-174.3" font-family="Times,serif" font-size="14.00" fill="#000000">cell line to disease or phenotypic feature association</text>
</g>
<!-- cell line as a model of disease association&#45;&gt;cell line to disease or phenotypic feature association -->
<g id="edge1" class="edge">
<title>cell line as a model of disease association&#45;&gt;cell line to disease or phenotypic feature association</title>
<path fill="none" stroke="#000000" d="M1622.1105,-261.4515C1428.7397,-256.5588 1089.7404,-246.3218 799.6326,-229 622.0102,-218.3945 577.9283,-211.1154 400.6326,-196 383.2118,-194.5148 364.9601,-192.9396 346.8318,-191.3632"/>
<polygon fill="#000000" stroke="#000000" points="347.0452,-187.8686 336.7792,-190.4878 346.4379,-194.8422 347.0452,-187.8686"/>
<text text-anchor="middle" x="810.6326" y="-217.8" font-family="Times,serif" font-size="14.00" fill="#000000">is_a</text>
</g>
<!-- model to disease association mixin -->
<g id="node3" class="node">
<title>model to disease association mixin</title>
<ellipse fill="none" stroke="#000000" cx="544.6326" cy="-178" rx="135.3763" ry="18"/>
<text text-anchor="middle" x="544.6326" y="-174.3" font-family="Times,serif" font-size="14.00" fill="#000000">model to disease association mixin</text>
</g>
<!-- cell line as a model of disease association&#45;&gt;model to disease association mixin -->
<g id="edge2" class="edge">
<title>cell line as a model of disease association&#45;&gt;model to disease association mixin</title>
<path fill="none" stroke="#000000" d="M1622.1656,-261.6487C1457.5521,-257.2936 1191.0378,-247.8917 961.6326,-229 839.8284,-218.9693 809.936,-210.9129 688.6326,-196 677.1063,-194.583 665.0623,-193.0927 653.0607,-191.6014"/>
<polygon fill="#000000" stroke="#000000" points="653.3573,-188.1114 643.0017,-190.3501 652.4931,-195.0579 653.3573,-188.1114"/>
<text text-anchor="middle" x="973.6326" y="-217.8" font-family="Times,serif" font-size="14.00" fill="#000000">uses</text>
</g>
<!-- thing to disease association mixin -->
<g id="node4" class="node">
<title>thing to disease association mixin</title>
<ellipse fill="none" stroke="#000000" cx="828.6326" cy="-178" rx="130.777" ry="18"/>
<text text-anchor="middle" x="828.6326" y="-174.3" font-family="Times,serif" font-size="14.00" fill="#000000">thing to disease association mixin</text>
</g>
<!-- cell line as a model of disease association&#45;&gt;thing to disease association mixin -->
<g id="edge3" class="edge">
<title>cell line as a model of disease association&#45;&gt;thing to disease association mixin</title>
<path fill="none" stroke="#000000" d="M1626.0043,-259.8268C1452.6274,-253.4764 1180.5647,-241.9441 1078.6326,-229 1018.8154,-221.404 951.9277,-207.4666 902.4009,-196.0792"/>
<polygon fill="#000000" stroke="#000000" points="902.9521,-192.6142 892.4199,-193.7649 901.3709,-199.4333 902.9521,-192.6142"/>
<text text-anchor="middle" x="1090.6326" y="-217.8" font-family="Times,serif" font-size="14.00" fill="#000000">uses</text>
</g>
<!-- id -->
<g id="node5" class="node">
<title>id</title>
<ellipse fill="none" stroke="#0000ff" cx="1007.6326" cy="-178" rx="30.5947" ry="18"/>
<text text-anchor="middle" x="1007.6326" y="-174.3" font-family="Times,serif" font-size="14.00" fill="#000000">string</text>
</g>
<!-- cell line as a model of disease association&#45;&gt;id -->
<g id="edge4" class="edge">
<title>cell line as a model of disease association&#45;&gt;id</title>
<path fill="none" stroke="#0000ff" d="M1628.8672,-258.8844C1481.7927,-252.3406 1267.8849,-241.2359 1185.6326,-229 1123.2565,-219.7208 1107.3172,-216.3627 1047.6326,-196 1045.3826,-195.2324 1043.0865,-194.3843 1040.789,-193.4867"/>
<polygon fill="#0000ff" stroke="#0000ff" points="1042.0282,-190.2114 1031.4511,-189.5984 1039.3373,-196.6736 1042.0282,-190.2114"/>
<text text-anchor="middle" x="1191.1326" y="-217.8" font-family="Times,serif" font-size="14.00" fill="#000000">id</text>
</g>
<!-- iri -->
<g id="node6" class="node">
<title>iri</title>
<ellipse fill="none" stroke="#0000ff" cx="1092.6326" cy="-178" rx="36.2938" ry="18"/>
<text text-anchor="middle" x="1092.6326" y="-174.3" font-family="Times,serif" font-size="14.00" fill="#000000">iri type</text>
</g>
<!-- cell line as a model of disease association&#45;&gt;iri -->
<g id="edge5" class="edge">
<title>cell line as a model of disease association&#45;&gt;iri</title>
<path fill="none" stroke="#0000ff" d="M1624.387,-260.4476C1524.7105,-255.9053 1392.4547,-246.8789 1276.6326,-229 1214.3082,-219.3793 1198.8063,-214.8684 1138.6326,-196 1135.8709,-195.134 1133.0379,-194.1835 1130.2003,-193.1858"/>
<polygon fill="#0000ff" stroke="#0000ff" points="1131.2259,-189.8339 1120.6324,-189.6663 1128.8092,-196.4035 1131.2259,-189.8339"/>
<text text-anchor="middle" x="1283.1326" y="-217.8" font-family="Times,serif" font-size="14.00" fill="#000000">iri</text>
</g>
<!-- name -->
<g id="node7" class="node">
<title>name</title>
<ellipse fill="none" stroke="#0000ff" cx="1192.6326" cy="-178" rx="45.4919" ry="18"/>
<text text-anchor="middle" x="1192.6326" y="-174.3" font-family="Times,serif" font-size="14.00" fill="#000000">label type</text>
</g>
<!-- cell line as a model of disease association&#45;&gt;name -->
<g id="edge6" class="edge">
<title>cell line as a model of disease association&#45;&gt;name</title>
<path fill="none" stroke="#0000ff" d="M1637.7234,-256.5435C1534.604,-249.713 1403.8008,-239.5336 1350.6326,-229 1310.3215,-221.0136 1265.9057,-206.1048 1234.4598,-194.461"/>
<polygon fill="#0000ff" stroke="#0000ff" points="1235.3197,-191.0454 1224.7275,-190.8082 1232.8599,-197.599 1235.3197,-191.0454"/>
<text text-anchor="middle" x="1366.1326" y="-217.8" font-family="Times,serif" font-size="14.00" fill="#000000">name</text>
</g>
<!-- description -->
<g id="node8" class="node">
<title>description</title>
<ellipse fill="none" stroke="#0000ff" cx="1313.6326" cy="-178" rx="57.6901" ry="18"/>
<text text-anchor="middle" x="1313.6326" y="-174.3" font-family="Times,serif" font-size="14.00" fill="#000000">narrative text</text>
</g>
<!-- cell line as a model of disease association&#45;&gt;description -->
<g id="edge7" class="edge">
<title>cell line as a model of disease association&#45;&gt;description</title>
<path fill="none" stroke="#0000ff" d="M1642.9294,-255.5288C1561.9433,-249.0093 1467.3543,-239.6279 1427.6326,-229 1401.1771,-221.9216 1373.0757,-209.4128 1351.3929,-198.5554"/>
<polygon fill="#0000ff" stroke="#0000ff" points="1352.7122,-195.2991 1342.2146,-193.8667 1349.5277,-201.5329 1352.7122,-195.2991"/>
<text text-anchor="middle" x="1458.1326" y="-217.8" font-family="Times,serif" font-size="14.00" fill="#000000">description</text>
</g>
<!-- source -->
<g id="node9" class="node">
<title>source</title>
<ellipse fill="none" stroke="#0000ff" cx="1434.6326" cy="-178" rx="45.4919" ry="18"/>
<text text-anchor="middle" x="1434.6326" y="-174.3" font-family="Times,serif" font-size="14.00" fill="#000000">label type</text>
</g>
<!-- cell line as a model of disease association&#45;&gt;source -->
<g id="edge8" class="edge">
<title>cell line as a model of disease association&#45;&gt;source</title>
<path fill="none" stroke="#0000ff" d="M1663.1191,-252.5862C1609.4243,-245.986 1551.9263,-237.4955 1526.6326,-229 1505.2566,-221.8203 1483.0981,-209.7018 1465.8849,-199.0791"/>
<polygon fill="#0000ff" stroke="#0000ff" points="1467.6878,-196.0782 1457.3646,-193.6945 1463.9482,-201.9956 1467.6878,-196.0782"/>
<text text-anchor="middle" x="1544.6326" y="-217.8" font-family="Times,serif" font-size="14.00" fill="#000000">source</text>
</g>
<!-- provided by -->
<g id="node10" class="node">
<title>provided by</title>
<ellipse fill="none" stroke="#0000ff" cx="1527.6326" cy="-178" rx="29.795" ry="18"/>
<text text-anchor="middle" x="1527.6326" y="-174.3" font-family="Times,serif" font-size="14.00" fill="#000000">agent</text>
</g>
<!-- cell line as a model of disease association&#45;&gt;provided by -->
<g id="edge9" class="edge">
<title>cell line as a model of disease association&#45;&gt;provided by</title>
<path fill="none" stroke="#0000ff" d="M1679.7593,-250.8891C1642.5821,-244.6168 1605.2869,-236.8772 1588.6326,-229 1574.1731,-222.1609 1560.3057,-211.0642 1549.4569,-200.9653"/>
<polygon fill="#0000ff" stroke="#0000ff" points="1551.7433,-198.3072 1542.1255,-193.8633 1546.8728,-203.335 1551.7433,-198.3072"/>
<text text-anchor="middle" x="1621.6326" y="-217.8" font-family="Times,serif" font-size="14.00" fill="#000000">provided by</text>
</g>
<!-- has attribute -->
<g id="node11" class="node">
<title>has attribute</title>
<ellipse fill="none" stroke="#0000ff" cx="1615.6326" cy="-178" rx="40.0939" ry="18"/>
<text text-anchor="middle" x="1615.6326" y="-174.3" font-family="Times,serif" font-size="14.00" fill="#000000">attribute</text>
</g>
<!-- cell line as a model of disease association&#45;&gt;has attribute -->
<g id="edge10" class="edge">
<title>cell line as a model of disease association&#45;&gt;has attribute</title>
<path fill="none" stroke="#0000ff" d="M1723.9768,-247.9995C1709.8047,-242.7143 1694.8259,-236.3215 1681.6326,-229 1667.5723,-221.1973 1653.2913,-210.5675 1641.6268,-201.0316"/>
<polygon fill="#0000ff" stroke="#0000ff" points="1643.5493,-198.0763 1633.6362,-194.3373 1639.054,-203.4421 1643.5493,-198.0763"/>
<text text-anchor="middle" x="1715.1326" y="-217.8" font-family="Times,serif" font-size="14.00" fill="#000000">has attribute</text>
</g>
<!-- predicate -->
<g id="node12" class="node">
<title>predicate</title>
<ellipse fill="none" stroke="#0000ff" cx="1734.6326" cy="-178" rx="60.3893" ry="18"/>
<text text-anchor="middle" x="1734.6326" y="-174.3" font-family="Times,serif" font-size="14.00" fill="#000000">predicate type</text>
</g>
<!-- cell line as a model of disease association&#45;&gt;predicate -->
<g id="edge11" class="edge">
<title>cell line as a model of disease association&#45;&gt;predicate</title>
<path fill="none" stroke="#0000ff" d="M1768.2179,-246.8141C1765.0585,-241.15 1761.632,-234.8542 1758.6326,-229 1754.7423,-221.4068 1750.7181,-213.0701 1747.1024,-205.3771"/>
<polygon fill="#0000ff" stroke="#0000ff" points="1750.1707,-203.6745 1742.7819,-196.0814 1743.8229,-206.6249 1750.1707,-203.6745"/>
<text text-anchor="middle" x="1783.6326" y="-217.8" font-family="Times,serif" font-size="14.00" fill="#000000">predicate</text>
</g>
<!-- object -->
<g id="node13" class="node">
<title>object</title>
<ellipse fill="none" stroke="#0000ff" cx="2152.6326" cy="-91" rx="55.4913" ry="18"/>
<text text-anchor="middle" x="2152.6326" y="-87.3" font-family="Times,serif" font-size="14.00" fill="#000000">named thing</text>
</g>
<!-- cell line as a model of disease association&#45;&gt;object -->
<g id="edge12" class="edge">
<title>cell line as a model of disease association&#45;&gt;object</title>
<path fill="none" stroke="#0000ff" d="M1813.1613,-247.3301C1821.4313,-242.1249 1829.8277,-235.9379 1836.6326,-229 1861.6114,-203.5332 1849.0254,-181.3101 1877.6326,-160 1911.3062,-134.9159 2022.2369,-112.62 2092.4939,-100.5369"/>
<polygon fill="#0000ff" stroke="#0000ff" points="2093.2776,-103.954 2102.5505,-98.8291 2092.1056,-97.0528 2093.2776,-103.954"/>
<text text-anchor="middle" x="1894.6326" y="-174.3" font-family="Times,serif" font-size="14.00" fill="#000000">object</text>
</g>
<!-- relation -->
<g id="node14" class="node">
<title>relation</title>
<ellipse fill="none" stroke="#0000ff" cx="2152.6326" cy="-18" rx="45.4919" ry="18"/>
<text text-anchor="middle" x="2152.6326" y="-14.3" font-family="Times,serif" font-size="14.00" fill="#000000">uriorcurie</text>
</g>
<!-- cell line as a model of disease association&#45;&gt;relation -->
<g id="edge13" class="edge">
<title>cell line as a model of disease association&#45;&gt;relation</title>
<path fill="none" stroke="#0000ff" d="M1794.7732,-246.7538C1799.4316,-241.1952 1804.397,-234.9726 1808.6326,-229 1839.1886,-185.9134 1829.2234,-161.0179 1869.6326,-127 1937.9285,-69.5062 2039.9061,-40.3555 2100.986,-27.2246"/>
<polygon fill="#0000ff" stroke="#0000ff" points="2101.7194,-30.647 2110.7938,-25.1784 2100.2898,-23.7946 2101.7194,-30.647"/>
<text text-anchor="middle" x="1890.6326" y="-130.8" font-family="Times,serif" font-size="14.00" fill="#000000">relation</text>
</g>
<!-- negated -->
<g id="node15" class="node">
<title>negated</title>
<ellipse fill="none" stroke="#0000ff" cx="1958.6326" cy="-178" rx="38.1938" ry="18"/>
<text text-anchor="middle" x="1958.6326" y="-174.3" font-family="Times,serif" font-size="14.00" fill="#000000">boolean</text>
</g>
<!-- cell line as a model of disease association&#45;&gt;negated -->
<g id="edge14" class="edge">
<title>cell line as a model of disease association&#45;&gt;negated</title>
<path fill="none" stroke="#0000ff" d="M1835.85,-248.1508C1851.3617,-242.793 1867.9246,-236.3263 1882.6326,-229 1899.2403,-220.7275 1916.5091,-209.3913 1930.3808,-199.5072"/>
<polygon fill="#0000ff" stroke="#0000ff" points="1932.5071,-202.2887 1938.5427,-193.581 1928.3943,-196.6243 1932.5071,-202.2887"/>
<text text-anchor="middle" x="1931.1326" y="-217.8" font-family="Times,serif" font-size="14.00" fill="#000000">negated</text>
</g>
<!-- qualifiers -->
<g id="node16" class="node">
<title>qualifiers</title>
<ellipse fill="none" stroke="#0000ff" cx="2076.6326" cy="-178" rx="61.99" ry="18"/>
<text text-anchor="middle" x="2076.6326" y="-174.3" font-family="Times,serif" font-size="14.00" fill="#000000">ontology class</text>
</g>
<!-- cell line as a model of disease association&#45;&gt;qualifiers -->
<g id="edge15" class="edge">
<title>cell line as a model of disease association&#45;&gt;qualifiers</title>
<path fill="none" stroke="#0000ff" d="M1870.0796,-250.1846C1898.1474,-244.6575 1928.9281,-237.5917 1956.6326,-229 1983.5913,-220.6396 2012.7563,-208.3247 2035.5831,-197.8906"/>
<polygon fill="#0000ff" stroke="#0000ff" points="2037.3498,-200.9296 2044.953,-193.5511 2034.408,-194.5778 2037.3498,-200.9296"/>
<text text-anchor="middle" x="2023.6326" y="-217.8" font-family="Times,serif" font-size="14.00" fill="#000000">qualifiers</text>
</g>
<!-- publications -->
<g id="node17" class="node">
<title>publications</title>
<ellipse fill="none" stroke="#0000ff" cx="2206.6326" cy="-178" rx="50.0912" ry="18"/>
<text text-anchor="middle" x="2206.6326" y="-174.3" font-family="Times,serif" font-size="14.00" fill="#000000">publication</text>
</g>
<!-- cell line as a model of disease association&#45;&gt;publications -->
<g id="edge16" class="edge">
<title>cell line as a model of disease association&#45;&gt;publications</title>
<path fill="none" stroke="#0000ff" d="M1892.174,-252.3483C1953.7732,-245.0449 2023.3651,-235.9581 2053.6326,-229 2091.4286,-220.3113 2133.1144,-206.095 2163.4164,-194.8761"/>
<polygon fill="#0000ff" stroke="#0000ff" points="2164.6974,-198.1338 2172.8353,-191.3497 2162.243,-191.5782 2164.6974,-198.1338"/>
<text text-anchor="middle" x="2139.1326" y="-217.8" font-family="Times,serif" font-size="14.00" fill="#000000">publications</text>
</g>
<!-- type -->
<g id="node18" class="node">
<title>type</title>
<ellipse fill="none" stroke="#000000" cx="2301.6326" cy="-178" rx="27" ry="18"/>
<text text-anchor="middle" x="2301.6326" y="-174.3" font-family="Times,serif" font-size="14.00" fill="#000000">type</text>
</g>
<!-- cell line as a model of disease association&#45;&gt;type -->
<g id="edge17" class="edge">
<title>cell line as a model of disease association&#45;&gt;type</title>
<path fill="none" stroke="#0000ff" d="M1892.4544,-252.3592C1910.5689,-250.4759 1929.1076,-248.6243 1946.6326,-247 2048.7299,-237.5374 2076.4934,-251.0344 2176.6326,-229 2210.178,-221.6187 2246.2796,-205.9757 2271.018,-193.9486"/>
<polygon fill="#0000ff" stroke="#0000ff" points="2272.8319,-196.9559 2280.2364,-189.3779 2269.7224,-190.6844 2272.8319,-196.9559"/>
<text text-anchor="middle" x="2234.6326" y="-217.8" font-family="Times,serif" font-size="14.00" fill="#000000">type</text>
</g>
<!-- category -->
<g id="node20" class="node">
<title>category</title>
<ellipse fill="none" stroke="#000000" cx="2387.6326" cy="-178" rx="40.8928" ry="18"/>
<text text-anchor="middle" x="2387.6326" y="-174.3" font-family="Times,serif" font-size="14.00" fill="#000000">category</text>
</g>
<!-- cell line as a model of disease association&#45;&gt;category -->
<g id="edge18" class="edge">
<title>cell line as a model of disease association&#45;&gt;category</title>
<path fill="none" stroke="#0000ff" d="M1891.0707,-252.2054C1909.6186,-250.3098 1928.6545,-248.4945 1946.6326,-247 2081.5151,-235.7873 2118.1954,-256.9173 2250.6326,-229 2285.3569,-221.6802 2323.0205,-207.1414 2350.0529,-195.4534"/>
<polygon fill="#0000ff" stroke="#0000ff" points="2351.7619,-198.5253 2359.5061,-191.2949 2348.9432,-192.1179 2351.7619,-198.5253"/>
<text text-anchor="middle" x="2325.1326" y="-217.8" font-family="Times,serif" font-size="14.00" fill="#000000">category</text>
</g>
<!-- subject -->
<g id="node22" class="node">
<title>subject</title>
<ellipse fill="none" stroke="#000000" cx="2482.6326" cy="-178" rx="35.9954" ry="18"/>
<text text-anchor="middle" x="2482.6326" y="-174.3" font-family="Times,serif" font-size="14.00" fill="#000000">subject</text>
</g>
<!-- cell line as a model of disease association&#45;&gt;subject -->
<g id="edge19" class="edge">
<title>cell line as a model of disease association&#45;&gt;subject</title>
<path fill="none" stroke="#0000ff" d="M1890.1478,-252.0656C1908.983,-250.164 1928.3514,-248.3832 1946.6326,-247 2036.6861,-240.1861 2264.2556,-247.5889 2352.6326,-229 2386.0821,-221.9644 2422.1182,-207.2095 2447.7463,-195.3719"/>
<polygon fill="#0000ff" stroke="#0000ff" points="2449.4753,-198.4264 2457.0318,-191 2446.4935,-192.0932 2449.4753,-198.4264"/>
<text text-anchor="middle" x="2420.1326" y="-217.8" font-family="Times,serif" font-size="14.00" fill="#000000">subject</text>
</g>
<!-- frequency qualifier -->
<g id="node24" class="node">
<title>frequency qualifier</title>
<ellipse fill="none" stroke="#0000ff" cx="2603.6326" cy="-178" rx="67.6881" ry="18"/>
<text text-anchor="middle" x="2603.6326" y="-174.3" font-family="Times,serif" font-size="14.00" fill="#000000">frequency value</text>
</g>
<!-- cell line as a model of disease association&#45;&gt;frequency qualifier -->
<g id="edge20" class="edge">
<title>cell line as a model of disease association&#45;&gt;frequency qualifier</title>
<path fill="none" stroke="#0000ff" d="M1889.2348,-252.0293C1908.3546,-250.1078 1928.0534,-248.3301 1946.6326,-247 2056.8674,-239.1082 2334.7538,-247.9572 2443.6326,-229 2482.6775,-222.2018 2525.371,-208.243 2556.8289,-196.6452"/>
<polygon fill="#0000ff" stroke="#0000ff" points="2558.076,-199.9156 2566.2145,-193.1322 2555.6221,-193.3598 2558.076,-199.9156"/>
<text text-anchor="middle" x="2554.6326" y="-217.8" font-family="Times,serif" font-size="14.00" fill="#000000">frequency qualifier</text>
</g>
<!-- severity qualifier -->
<g id="node25" class="node">
<title>severity qualifier</title>
<ellipse fill="none" stroke="#0000ff" cx="2748.6326" cy="-178" rx="59.5901" ry="18"/>
<text text-anchor="middle" x="2748.6326" y="-174.3" font-family="Times,serif" font-size="14.00" fill="#000000">severity value</text>
</g>
<!-- cell line as a model of disease association&#45;&gt;severity qualifier -->
<g id="edge21" class="edge">
<title>cell line as a model of disease association&#45;&gt;severity qualifier</title>
<path fill="none" stroke="#0000ff" d="M1888.7733,-251.9309C1908.0354,-250.008 1927.9012,-248.2554 1946.6326,-247 2093.912,-237.1295 2465.6946,-256.9571 2610.6326,-229 2644.1377,-222.5372 2680.2547,-208.9309 2707.1333,-197.3968"/>
<polygon fill="#0000ff" stroke="#0000ff" points="2708.8364,-200.4721 2716.596,-193.2582 2706.0314,-194.0587 2708.8364,-200.4721"/>
<text text-anchor="middle" x="2708.1326" y="-217.8" font-family="Times,serif" font-size="14.00" fill="#000000">severity qualifier</text>
</g>
<!-- onset qualifier -->
<g id="node26" class="node">
<title>onset qualifier</title>
<ellipse fill="none" stroke="#0000ff" cx="2859.6326" cy="-178" rx="29.4969" ry="18"/>
<text text-anchor="middle" x="2859.6326" y="-174.3" font-family="Times,serif" font-size="14.00" fill="#000000">onset</text>
</g>
<!-- cell line as a model of disease association&#45;&gt;onset qualifier -->
<g id="edge22" class="edge">
<title>cell line as a model of disease association&#45;&gt;onset qualifier</title>
<path fill="none" stroke="#0000ff" d="M1888.3168,-251.8978C1907.7204,-249.9657 1927.7518,-248.2186 1946.6326,-247 2036.6897,-241.1878 2671.0806,-250.879 2758.6326,-229 2784.6266,-222.5042 2811.5932,-208.4524 2831.1167,-196.7404"/>
<polygon fill="#0000ff" stroke="#0000ff" points="2833.1211,-199.6165 2839.7992,-191.3912 2829.4494,-193.6567 2833.1211,-199.6165"/>
<text text-anchor="middle" x="2835.1326" y="-217.8" font-family="Times,serif" font-size="14.00" fill="#000000">onset qualifier</text>
</g>
<!-- object&#45;&gt;relation -->
<g id="edge25" class="edge">
<title>object&#45;&gt;relation</title>
<path fill="none" stroke="#000000" stroke-dasharray="1,5" d="M2152.6326,-72.9551C2152.6326,-64.8828 2152.6326,-55.1764 2152.6326,-46.1817"/>
<polygon fill="#000000" stroke="#000000" points="2156.1327,-46.0903 2152.6326,-36.0904 2149.1327,-46.0904 2156.1327,-46.0903"/>
</g>
<!-- association_type -->
<g id="node19" class="node">
<title>association_type</title>
<ellipse fill="none" stroke="#0000ff" cx="1986.6326" cy="-265" rx="30.5947" ry="18"/>
<text text-anchor="middle" x="1986.6326" y="-261.3" font-family="Times,serif" font-size="14.00" fill="#000000">string</text>
</g>
<!-- association_category -->
<g id="node21" class="node">
<title>association_category</title>
<ellipse fill="none" stroke="#0000ff" cx="2085.6326" cy="-265" rx="50.0912" ry="18"/>
<text text-anchor="middle" x="2085.6326" y="-261.3" font-family="Times,serif" font-size="14.00" fill="#000000">association</text>
</g>
<!-- subject&#45;&gt;object -->
<g id="edge23" class="edge">
<title>subject&#45;&gt;object</title>
<path fill="none" stroke="#000000" d="M2455.8715,-166.0381C2449.9564,-163.7504 2443.6555,-161.5798 2437.6326,-160 2379.0824,-144.6418 2361.5676,-155.8083 2302.6326,-142 2266.4214,-133.5159 2226.6159,-119.7662 2197.1151,-108.6803"/>
<polygon fill="#000000" stroke="#000000" points="2198.1167,-105.3167 2187.5256,-105.0343 2195.6289,-111.8597 2198.1167,-105.3167"/>
<text text-anchor="middle" x="2323.6326" y="-130.8" font-family="Times,serif" font-size="14.00" fill="#000000">relation</text>
</g>
<!-- subject&#45;&gt;relation -->
<g id="edge24" class="edge">
<title>subject&#45;&gt;relation</title>
<path fill="none" stroke="#000000" stroke-dasharray="1,5" d="M2456.7381,-165.4451C2398.8365,-137.3716 2258.6617,-69.408 2190.7594,-36.4857"/>
<polygon fill="#000000" stroke="#000000" points="2192.199,-33.294 2181.6738,-32.0806 2189.145,-39.5927 2192.199,-33.294"/>
</g>
<!-- cell line as a model of disease association_subject -->
<g id="node23" class="node">
<title>cell line as a model of disease association_subject</title>
<ellipse fill="none" stroke="#0000ff" cx="2192.6326" cy="-265" rx="38.9931" ry="18"/>
<text text-anchor="middle" x="2192.6326" y="-261.3" font-family="Times,serif" font-size="14.00" fill="#000000">cell line</text>
</g>
</g>
</svg>
