<?xml version="1.0" encoding="UTF-8" standalone="no"?>
<!DOCTYPE svg PUBLIC "-//W3C//DTD SVG 1.1//EN"
 "http://www.w3.org/Graphics/SVG/1.1/DTD/svg11.dtd">
<!-- Generated by graphviz version 2.43.0 (0)
 -->
<!-- Title: %3 Pages: 1 -->
<svg width="3106pt" height="291pt"
 viewBox="0.00 0.00 3105.59 291.00" xmlns="http://www.w3.org/2000/svg" xmlns:xlink="http://www.w3.org/1999/xlink">
<g id="graph0" class="graph" transform="scale(1 1) rotate(0) translate(4 287)">
<title>%3</title>
<polygon fill="white" stroke="transparent" points="-4,4 -4,-287 3101.59,-287 3101.59,4 -4,4"/>
<!-- cell line to disease or phenotypic feature association -->
<g id="node1" class="node">
<title>cell line to disease or phenotypic feature association</title>
<ellipse fill="none" stroke="black" cx="1924.39" cy="-265" rx="254.55" ry="18"/>
<text text-anchor="middle" x="1924.39" y="-261.3" font-family="Times,serif" font-size="14.00">cell line to disease or phenotypic feature association</text>
</g>
<!-- association -->
<g id="node2" class="node">
<title>association</title>
<ellipse fill="none" stroke="black" cx="62.39" cy="-178" rx="62.29" ry="18"/>
<text text-anchor="middle" x="62.39" y="-174.3" font-family="Times,serif" font-size="14.00">association</text>
</g>
<!-- cell line to disease or phenotypic feature association&#45;&gt;association -->
<g id="edge1" class="edge">
<title>cell line to disease or phenotypic feature association&#45;&gt;association</title>
<path fill="none" stroke="black" d="M1685.53,-258.7C1445.97,-252.98 1066.53,-242.79 738.39,-229 469.34,-217.69 399.87,-234.84 133.39,-196 127.91,-195.2 122.22,-194.18 116.57,-193.03"/>
<polygon fill="black" stroke="black" points="116.98,-189.54 106.47,-190.86 115.51,-196.38 116.98,-189.54"/>
<text text-anchor="middle" x="752.39" y="-217.8" font-family="Times,serif" font-size="14.00">is_a</text>
</g>
<!-- cell line to entity association mixin -->
<g id="node3" class="node">
<title>cell line to entity association mixin</title>
<ellipse fill="none" stroke="black" cx="315.39" cy="-178" rx="172.77" ry="18"/>
<text text-anchor="middle" x="315.39" y="-174.3" font-family="Times,serif" font-size="14.00">cell line to entity association mixin</text>
</g>
<!-- cell line to disease or phenotypic feature association&#45;&gt;cell line to entity association mixin -->
<g id="edge2" class="edge">
<title>cell line to disease or phenotypic feature association&#45;&gt;cell line to entity association mixin</title>
<path fill="none" stroke="black" d="M1693.65,-257.32C1411.27,-248.15 918.68,-228.93 497.39,-196 481,-194.72 463.78,-193.26 446.75,-191.75"/>
<polygon fill="black" stroke="black" points="447.02,-188.26 436.75,-190.85 446.39,-195.23 447.02,-188.26"/>
<text text-anchor="middle" x="1023.89" y="-217.8" font-family="Times,serif" font-size="14.00">uses</text>
</g>
<!-- entity to disease or phenotypic feature association mixin -->
<g id="node4" class="node">
<title>entity to disease or phenotypic feature association mixin</title>
<ellipse fill="none" stroke="black" cx="780.39" cy="-178" rx="274.05" ry="18"/>
<text text-anchor="middle" x="780.39" y="-174.3" font-family="Times,serif" font-size="14.00">entity to disease or phenotypic feature association mixin</text>
</g>
<!-- cell line to disease or phenotypic feature association&#45;&gt;entity to disease or phenotypic feature association mixin -->
<g id="edge3" class="edge">
<title>cell line to disease or phenotypic feature association&#45;&gt;entity to disease or phenotypic feature association mixin</title>
<path fill="none" stroke="black" d="M1694.38,-257.23C1550.51,-251.94 1361.45,-243.07 1194.39,-229 1095.36,-220.66 983.5,-206.88 901.04,-195.9"/>
<polygon fill="black" stroke="black" points="901.25,-192.4 890.87,-194.55 900.32,-199.34 901.25,-192.4"/>
<text text-anchor="middle" x="1210.89" y="-217.8" font-family="Times,serif" font-size="14.00">uses</text>
</g>
<!-- id -->
<g id="node5" class="node">
<title>id</title>
<ellipse fill="none" stroke="blue" cx="1111.39" cy="-178" rx="38.19" ry="18"/>
<text text-anchor="middle" x="1111.39" y="-174.3" font-family="Times,serif" font-size="14.00">string</text>
</g>
<!-- cell line to disease or phenotypic feature association&#45;&gt;id -->
<g id="edge4" class="edge">
<title>cell line to disease or phenotypic feature association&#45;&gt;id</title>
<path fill="none" stroke="blue" d="M1688.09,-258.21C1576.26,-253.45 1441.08,-244.78 1320.39,-229 1247.97,-219.53 1229.77,-215.57 1159.39,-196 1156.29,-195.14 1153.09,-194.17 1149.89,-193.15"/>
<polygon fill="blue" stroke="blue" points="1150.97,-189.83 1140.38,-189.99 1148.76,-196.47 1150.97,-189.83"/>
<text text-anchor="middle" x="1327.39" y="-217.8" font-family="Times,serif" font-size="14.00">id</text>
</g>
<!-- iri -->
<g id="node6" class="node">
<title>iri</title>
<ellipse fill="none" stroke="blue" cx="1212.39" cy="-178" rx="44.39" ry="18"/>
<text text-anchor="middle" x="1212.39" y="-174.3" font-family="Times,serif" font-size="14.00">iri type</text>
</g>
<!-- cell line to disease or phenotypic feature association&#45;&gt;iri -->
<g id="edge5" class="edge">
<title>cell line to disease or phenotypic feature association&#45;&gt;iri</title>
<path fill="none" stroke="blue" d="M1711.24,-255.12C1623.11,-249.85 1520.06,-241.65 1427.39,-229 1354.59,-219.06 1336.48,-214.58 1265.39,-196 1262.02,-195.12 1258.54,-194.15 1255.06,-193.13"/>
<polygon fill="blue" stroke="blue" points="1255.89,-189.72 1245.31,-190.17 1253.86,-196.42 1255.89,-189.72"/>
<text text-anchor="middle" x="1435.39" y="-217.8" font-family="Times,serif" font-size="14.00">iri</text>
</g>
<!-- name -->
<g id="node7" class="node">
<title>name</title>
<ellipse fill="none" stroke="blue" cx="1331.39" cy="-178" rx="56.59" ry="18"/>
<text text-anchor="middle" x="1331.39" y="-174.3" font-family="Times,serif" font-size="14.00">label type</text>
</g>
<!-- cell line to disease or phenotypic feature association&#45;&gt;name -->
<g id="edge6" class="edge">
<title>cell line to disease or phenotypic feature association&#45;&gt;name</title>
<path fill="none" stroke="blue" d="M1720.67,-254.18C1653.96,-248.98 1579.7,-241.05 1512.39,-229 1466.34,-220.76 1415.04,-206.04 1378.85,-194.7"/>
<polygon fill="blue" stroke="blue" points="1379.65,-191.29 1369.06,-191.6 1377.54,-197.96 1379.65,-191.29"/>
<text text-anchor="middle" x="1532.39" y="-217.8" font-family="Times,serif" font-size="14.00">name</text>
</g>
<!-- description -->
<g id="node8" class="node">
<title>description</title>
<ellipse fill="none" stroke="blue" cx="1481.39" cy="-178" rx="75.29" ry="18"/>
<text text-anchor="middle" x="1481.39" y="-174.3" font-family="Times,serif" font-size="14.00">narrative text</text>
</g>
<!-- cell line to disease or phenotypic feature association&#45;&gt;description -->
<g id="edge7" class="edge">
<title>cell line to disease or phenotypic feature association&#45;&gt;description</title>
<path fill="none" stroke="blue" d="M1734.09,-252.95C1689.45,-247.77 1642.38,-240.16 1599.39,-229 1572.26,-221.95 1543.25,-209.73 1520.79,-199.14"/>
<polygon fill="blue" stroke="blue" points="1522.11,-195.89 1511.58,-194.71 1519.08,-202.2 1522.11,-195.89"/>
<text text-anchor="middle" x="1639.89" y="-217.8" font-family="Times,serif" font-size="14.00">description</text>
</g>
<!-- source -->
<g id="node9" class="node">
<title>source</title>
<ellipse fill="none" stroke="blue" cx="1631.39" cy="-178" rx="56.59" ry="18"/>
<text text-anchor="middle" x="1631.39" y="-174.3" font-family="Times,serif" font-size="14.00">label type</text>
</g>
<!-- cell line to disease or phenotypic feature association&#45;&gt;source -->
<g id="edge8" class="edge">
<title>cell line to disease or phenotypic feature association&#45;&gt;source</title>
<path fill="none" stroke="blue" d="M1792.57,-249.56C1766.54,-244.59 1739.75,-237.93 1715.39,-229 1696.35,-222.02 1676.77,-210.65 1661.32,-200.52"/>
<polygon fill="blue" stroke="blue" points="1662.98,-197.42 1652.73,-194.74 1659.07,-203.23 1662.98,-197.42"/>
<text text-anchor="middle" x="1739.39" y="-217.8" font-family="Times,serif" font-size="14.00">source</text>
</g>
<!-- provided by -->
<g id="node10" class="node">
<title>provided by</title>
<ellipse fill="none" stroke="blue" cx="1743.39" cy="-178" rx="37.09" ry="18"/>
<text text-anchor="middle" x="1743.39" y="-174.3" font-family="Times,serif" font-size="14.00">agent</text>
</g>
<!-- cell line to disease or phenotypic feature association&#45;&gt;provided by -->
<g id="edge9" class="edge">
<title>cell line to disease or phenotypic feature association&#45;&gt;provided by</title>
<path fill="none" stroke="blue" d="M1825.78,-248.34C1810.9,-243.53 1796.24,-237.23 1783.39,-229 1773.6,-222.73 1765.14,-213.24 1758.55,-204.2"/>
<polygon fill="blue" stroke="blue" points="1761.35,-202.09 1752.82,-195.8 1755.56,-206.04 1761.35,-202.09"/>
<text text-anchor="middle" x="1825.89" y="-217.8" font-family="Times,serif" font-size="14.00">provided by</text>
</g>
<!-- has attribute -->
<g id="node11" class="node">
<title>has attribute</title>
<ellipse fill="none" stroke="blue" cx="1850.39" cy="-178" rx="51.99" ry="18"/>
<text text-anchor="middle" x="1850.39" y="-174.3" font-family="Times,serif" font-size="14.00">attribute</text>
</g>
<!-- cell line to disease or phenotypic feature association&#45;&gt;has attribute -->
<g id="edge10" class="edge">
<title>cell line to disease or phenotypic feature association&#45;&gt;has attribute</title>
<path fill="none" stroke="blue" d="M1901.44,-247.02C1894.91,-241.64 1888.04,-235.41 1882.39,-229 1875.96,-221.7 1869.91,-212.98 1864.85,-204.88"/>
<polygon fill="blue" stroke="blue" points="1867.73,-202.88 1859.58,-196.11 1861.73,-206.49 1867.73,-202.88"/>
<text text-anchor="middle" x="1929.39" y="-217.8" font-family="Times,serif" font-size="14.00">has attribute</text>
</g>
<!-- predicate -->
<g id="node12" class="node">
<title>predicate</title>
<ellipse fill="none" stroke="blue" cx="1998.39" cy="-178" rx="77.99" ry="18"/>
<text text-anchor="middle" x="1998.39" y="-174.3" font-family="Times,serif" font-size="14.00">predicate type</text>
</g>
<!-- cell line to disease or phenotypic feature association&#45;&gt;predicate -->
<g id="edge11" class="edge">
<title>cell line to disease or phenotypic feature association&#45;&gt;predicate</title>
<path fill="none" stroke="blue" d="M1955.87,-246.96C1963.28,-241.9 1970.67,-235.85 1976.39,-229 1982.1,-222.17 1986.58,-213.63 1989.97,-205.55"/>
<polygon fill="blue" stroke="blue" points="1993.29,-206.66 1993.56,-196.07 1986.74,-204.18 1993.29,-206.66"/>
<text text-anchor="middle" x="2019.39" y="-217.8" font-family="Times,serif" font-size="14.00">predicate</text>
</g>
<!-- object -->
<g id="node13" class="node">
<title>object</title>
<ellipse fill="none" stroke="blue" cx="2578.39" cy="-91" rx="69.59" ry="18"/>
<text text-anchor="middle" x="2578.39" y="-87.3" font-family="Times,serif" font-size="14.00">named thing</text>
</g>
<!-- cell line to disease or phenotypic feature association&#45;&gt;object -->
<g id="edge12" class="edge">
<title>cell line to disease or phenotypic feature association&#45;&gt;object</title>
<path fill="none" stroke="blue" d="M2051.17,-249.34C2080.29,-244.13 2106.27,-237.41 2118.39,-229 2147.7,-208.67 2129.91,-180.08 2159.39,-160 2213.7,-123.02 2395.64,-104.57 2501.06,-96.77"/>
<polygon fill="blue" stroke="blue" points="2501.61,-100.24 2511.33,-96.03 2501.1,-93.26 2501.61,-100.24"/>
<text text-anchor="middle" x="2181.39" y="-174.3" font-family="Times,serif" font-size="14.00">object</text>
</g>
<!-- relation -->
<g id="node14" class="node">
<title>relation</title>
<ellipse fill="none" stroke="blue" cx="2578.39" cy="-18" rx="38.19" ry="18"/>
<text text-anchor="middle" x="2578.39" y="-14.3" font-family="Times,serif" font-size="14.00">string</text>
</g>
<!-- cell line to disease or phenotypic feature association&#45;&gt;relation -->
<g id="edge13" class="edge">
<title>cell line to disease or phenotypic feature association&#45;&gt;relation</title>
<path fill="none" stroke="blue" d="M2015.15,-248.1C2029.92,-243.31 2044.57,-237.08 2057.39,-229 2107.56,-197.39 2093.08,-158.38 2143.39,-127 2268.26,-49.14 2446.03,-27.37 2530.4,-21.32"/>
<polygon fill="blue" stroke="blue" points="2530.71,-24.81 2540.46,-20.64 2530.24,-17.82 2530.71,-24.81"/>
<text text-anchor="middle" x="2171.39" y="-130.8" font-family="Times,serif" font-size="14.00">relation</text>
</g>
<!-- negated -->
<g id="node15" class="node">
<title>negated</title>
<ellipse fill="none" stroke="blue" cx="2259.39" cy="-178" rx="46.59" ry="18"/>
<text text-anchor="middle" x="2259.39" y="-174.3" font-family="Times,serif" font-size="14.00">boolean</text>
</g>
<!-- cell line to disease or phenotypic feature association&#45;&gt;negated -->
<g id="edge14" class="edge">
<title>cell line to disease or phenotypic feature association&#45;&gt;negated</title>
<path fill="none" stroke="blue" d="M2073.12,-250.34C2103.75,-245.3 2135.47,-238.42 2164.39,-229 2186.58,-221.78 2209.78,-209.67 2227.71,-199.17"/>
<polygon fill="blue" stroke="blue" points="2229.78,-202 2236.56,-193.86 2226.19,-196 2229.78,-202"/>
<text text-anchor="middle" x="2229.39" y="-217.8" font-family="Times,serif" font-size="14.00">negated</text>
</g>
<!-- qualifiers -->
<g id="node16" class="node">
<title>qualifiers</title>
<ellipse fill="none" stroke="blue" cx="2400.39" cy="-178" rx="76.89" ry="18"/>
<text text-anchor="middle" x="2400.39" y="-174.3" font-family="Times,serif" font-size="14.00">ontology class</text>
</g>
<!-- cell line to disease or phenotypic feature association&#45;&gt;qualifiers -->
<g id="edge15" class="edge">
<title>cell line to disease or phenotypic feature association&#45;&gt;qualifiers</title>
<path fill="none" stroke="blue" d="M2112.13,-252.78C2161.41,-247.61 2214.24,-240.04 2262.39,-229 2294.69,-221.59 2329.78,-208.81 2356.5,-198.03"/>
<polygon fill="blue" stroke="blue" points="2358.01,-201.19 2365.94,-194.16 2355.36,-194.71 2358.01,-201.19"/>
<text text-anchor="middle" x="2346.89" y="-217.8" font-family="Times,serif" font-size="14.00">qualifiers</text>
</g>
<!-- publications -->
<g id="node17" class="node">
<title>publications</title>
<ellipse fill="none" stroke="blue" cx="2557.39" cy="-178" rx="62.29" ry="18"/>
<text text-anchor="middle" x="2557.39" y="-174.3" font-family="Times,serif" font-size="14.00">publication</text>
</g>
<!-- cell line to disease or phenotypic feature association&#45;&gt;publications -->
<g id="edge16" class="edge">
<title>cell line to disease or phenotypic feature association&#45;&gt;publications</title>
<path fill="none" stroke="blue" d="M2103.28,-252.15C2220.37,-244.09 2356.66,-234.01 2384.39,-229 2427.52,-221.21 2475.28,-206.96 2509.68,-195.66"/>
<polygon fill="blue" stroke="blue" points="2511.07,-198.89 2519.45,-192.41 2508.86,-192.25 2511.07,-198.89"/>
<text text-anchor="middle" x="2491.39" y="-217.8" font-family="Times,serif" font-size="14.00">publications</text>
</g>
<!-- has evidence -->
<g id="node18" class="node">
<title>has evidence</title>
<ellipse fill="none" stroke="blue" cx="2713.39" cy="-178" rx="75.29" ry="18"/>
<text text-anchor="middle" x="2713.39" y="-174.3" font-family="Times,serif" font-size="14.00">evidence type</text>
</g>
<!-- cell line to disease or phenotypic feature association&#45;&gt;has evidence -->
<g id="edge17" class="edge">
<title>cell line to disease or phenotypic feature association&#45;&gt;has evidence</title>
<path fill="none" stroke="blue" d="M2103.31,-252.16C2131.77,-250.37 2160.88,-248.59 2188.39,-247 2344.34,-237.98 2385.32,-254.74 2539.39,-229 2582,-221.88 2629.01,-208 2663.41,-196.66"/>
<polygon fill="blue" stroke="blue" points="2664.84,-199.87 2673.22,-193.39 2662.62,-193.23 2664.84,-199.87"/>
<text text-anchor="middle" x="2649.89" y="-217.8" font-family="Times,serif" font-size="14.00">has evidence</text>
</g>
<!-- type -->
<g id="node19" class="node">
<title>type</title>
<ellipse fill="none" stroke="black" cx="2838.39" cy="-178" rx="31.4" ry="18"/>
<text text-anchor="middle" x="2838.39" y="-174.3" font-family="Times,serif" font-size="14.00">type</text>
</g>
<!-- cell line to disease or phenotypic feature association&#45;&gt;type -->
<g id="edge18" class="edge">
<title>cell line to disease or phenotypic feature association&#45;&gt;type</title>
<path fill="none" stroke="blue" d="M2100.44,-251.95C2129.8,-250.14 2159.95,-248.42 2188.39,-247 2302.1,-241.34 2588.42,-249.55 2700.39,-229 2737.67,-222.16 2778.22,-206.39 2805.65,-194.37"/>
<polygon fill="blue" stroke="blue" points="2807.43,-197.41 2815.13,-190.14 2804.57,-191.02 2807.43,-197.41"/>
<text text-anchor="middle" x="2771.39" y="-217.8" font-family="Times,serif" font-size="14.00">type</text>
</g>
<!-- category -->
<g id="node21" class="node">
<title>category</title>
<ellipse fill="none" stroke="black" cx="2939.39" cy="-178" rx="51.19" ry="18"/>
<text text-anchor="middle" x="2939.39" y="-174.3" font-family="Times,serif" font-size="14.00">category</text>
</g>
<!-- cell line to disease or phenotypic feature association&#45;&gt;category -->
<g id="edge19" class="edge">
<title>cell line to disease or phenotypic feature association&#45;&gt;category</title>
<path fill="none" stroke="blue" d="M2099.37,-251.88C2129.07,-250.07 2159.61,-248.36 2188.39,-247 2322.31,-240.69 2659.45,-252.71 2791.39,-229 2828.81,-222.28 2869.62,-207.93 2898.89,-196.32"/>
<polygon fill="blue" stroke="blue" points="2900.39,-199.49 2908.35,-192.5 2897.77,-193 2900.39,-199.49"/>
<text text-anchor="middle" x="2881.89" y="-217.8" font-family="Times,serif" font-size="14.00">category</text>
</g>
<!-- subject -->
<g id="node23" class="node">
<title>subject</title>
<ellipse fill="none" stroke="black" cx="3053.39" cy="-178" rx="44.39" ry="18"/>
<text text-anchor="middle" x="3053.39" y="-174.3" font-family="Times,serif" font-size="14.00">subject</text>
</g>
<!-- cell line to disease or phenotypic feature association&#45;&gt;subject -->
<g id="edge20" class="edge">
<title>cell line to disease or phenotypic feature association&#45;&gt;subject</title>
<path fill="none" stroke="blue" d="M2098.3,-251.82C2128.33,-250 2159.26,-248.3 2188.39,-247 2350.28,-239.79 2758.22,-259.37 2917.39,-229 2952.06,-222.39 2989.57,-208.01 3016.4,-196.36"/>
<polygon fill="blue" stroke="blue" points="3018.04,-199.46 3025.77,-192.21 3015.21,-193.06 3018.04,-199.46"/>
<text text-anchor="middle" x="2996.39" y="-217.8" font-family="Times,serif" font-size="14.00">subject</text>
</g>
<!-- object&#45;&gt;relation -->
<g id="edge23" class="edge">
<title>object&#45;&gt;relation</title>
<path fill="none" stroke="black" stroke-dasharray="1,5" d="M2578.39,-72.81C2578.39,-64.79 2578.39,-55.05 2578.39,-46.07"/>
<polygon fill="black" stroke="black" points="2581.89,-46.03 2578.39,-36.03 2574.89,-46.03 2581.89,-46.03"/>
</g>
<!-- association_type -->
<g id="node20" class="node">
<title>association_type</title>
<ellipse fill="none" stroke="blue" cx="2235.39" cy="-265" rx="38.19" ry="18"/>
<text text-anchor="middle" x="2235.39" y="-261.3" font-family="Times,serif" font-size="14.00">string</text>
</g>
<!-- association_category -->
<g id="node22" class="node">
<title>association_category</title>
<ellipse fill="none" stroke="blue" cx="2366.39" cy="-265" rx="74.99" ry="18"/>
<text text-anchor="middle" x="2366.39" y="-261.3" font-family="Times,serif" font-size="14.00">category type</text>
</g>
<!-- subject&#45;&gt;object -->
<g id="edge21" class="edge">
<title>subject&#45;&gt;object</title>
<path fill="none" stroke="black" d="M3021.14,-165.59C3014.05,-163.44 3006.53,-161.42 2999.39,-160 2909.69,-142.16 2884.72,-156.35 2794.39,-142 2739.38,-133.26 2677.53,-118.42 2634.16,-107.17"/>
<polygon fill="black" stroke="black" points="2634.94,-103.76 2624.38,-104.62 2633.16,-110.53 2634.94,-103.76"/>
<text text-anchor="middle" x="2822.39" y="-130.8" font-family="Times,serif" font-size="14.00">relation</text>
</g>
<!-- subject&#45;&gt;relation -->
<g id="edge22" class="edge">
<title>subject&#45;&gt;relation</title>
<path fill="none" stroke="black" stroke-dasharray="1,5" d="M3020.37,-166.02C2935.52,-137.79 2710.11,-62.81 2618.22,-32.25"/>
<polygon fill="black" stroke="black" points="2619.32,-28.92 2608.72,-29.09 2617.11,-35.57 2619.32,-28.92"/>
</g>
<!-- cell line to disease or phenotypic feature association_subject -->
<g id="node24" class="node">
<title>cell line to disease or phenotypic feature association_subject</title>
<ellipse fill="none" stroke="blue" cx="2608.39" cy="-265" rx="148.67" ry="18"/>
<text text-anchor="middle" x="2608.39" y="-261.3" font-family="Times,serif" font-size="14.00">disease or phenotypic feature</text>
</g>
</g>
</svg>
