<?xml version="1.0" encoding="UTF-8" standalone="no"?>
<!DOCTYPE svg PUBLIC "-//W3C//DTD SVG 1.1//EN"
 "http://www.w3.org/Graphics/SVG/1.1/DTD/svg11.dtd">
<!-- Generated by graphviz version 2.40.1 (20161225.0304)
 -->
<!-- Title: %3 Pages: 1 -->
<svg width="1195pt" height="130pt"
 viewBox="0.00 0.00 1195.25 130.00" xmlns="http://www.w3.org/2000/svg" xmlns:xlink="http://www.w3.org/1999/xlink">
<g id="graph0" class="graph" transform="scale(1 1) rotate(0) translate(4 126)">
<title>%3</title>
<polygon fill="#ffffff" stroke="transparent" points="-4,4 -4,-126 1191.2511,-126 1191.2511,4 -4,4"/>
<!-- cellular component -->
<g id="node1" class="node">
<title>cellular component</title>
<ellipse fill="none" stroke="#000000" cx="595.2511" cy="-104" rx="78.2512" ry="18"/>
<text text-anchor="middle" x="595.2511" y="-99.8" font-family="Times,serif" font-size="14.00" fill="#000000">cellular component</text>
</g>
<!-- anatomical entity -->
<g id="node2" class="node">
<title>anatomical entity</title>
<ellipse fill="none" stroke="#000000" cx="71.2511" cy="-18" rx="71.0031" ry="18"/>
<text text-anchor="middle" x="71.2511" y="-13.8" font-family="Times,serif" font-size="14.00" fill="#000000">anatomical entity</text>
</g>
<!-- cellular component&#45;&gt;anatomical entity -->
<g id="edge1" class="edge">
<title>cellular component&#45;&gt;anatomical entity</title>
<path fill="none" stroke="#000000" d="M517.5745,-101.5955C441.4771,-98.0522 322.572,-89.3385 221.6993,-68 186.498,-60.5535 148.0176,-47.6745 118.7857,-36.8527"/>
<polygon fill="#000000" stroke="#000000" points="119.8371,-33.509 109.2449,-33.2724 117.3776,-40.0627 119.8371,-33.509"/>
<text text-anchor="middle" x="233.527" y="-56.8" font-family="Times,serif" font-size="14.00" fill="#000000">is_a</text>
</g>
<!-- id -->
<g id="node3" class="node">
<title>id</title>
<ellipse fill="none" stroke="#000000" cx="187.2511" cy="-18" rx="27" ry="18"/>
</g>
<!-- cellular component&#45;&gt;id -->
<g id="edge2" class="edge">
<title>cellular component&#45;&gt;id</title>
<path fill="none" stroke="#000000" d="M520.346,-98.7775C441.4648,-92.6892 322.7918,-81.6918 279.3614,-68 256.3083,-60.7323 232.3773,-47.5434 214.6873,-36.5356"/>
<polygon fill="#000000" stroke="#000000" points="216.356,-33.4486 206.0431,-31.0209 212.5912,-39.35 216.356,-33.4486"/>
<text text-anchor="middle" x="285.6959" y="-56.8" font-family="Times,serif" font-size="14.00" fill="#000000">id</text>
</g>
<!-- name -->
<g id="node4" class="node">
<title>name</title>
<ellipse fill="none" stroke="#000000" cx="259.2511" cy="-18" rx="27" ry="18"/>
</g>
<!-- cellular component&#45;&gt;name -->
<g id="edge3" class="edge">
<title>cellular component&#45;&gt;name</title>
<path fill="none" stroke="#000000" d="M519.3218,-99.452C448.7403,-94.2984 349.3375,-84.4081 313.9337,-68 300.8564,-61.9392 288.7511,-51.6055 279.2722,-41.9003"/>
<polygon fill="#000000" stroke="#000000" points="281.6315,-39.2971 272.265,-34.3453 276.4991,-44.0573 281.6315,-39.2971"/>
<text text-anchor="middle" x="329.4098" y="-56.8" font-family="Times,serif" font-size="14.00" fill="#000000">name</text>
</g>
<!-- category -->
<g id="node5" class="node">
<title>category</title>
<ellipse fill="none" stroke="#000000" cx="331.2511" cy="-18" rx="27" ry="18"/>
</g>
<!-- cellular component&#45;&gt;category -->
<g id="edge4" class="edge">
<title>cellular component&#45;&gt;category</title>
<path fill="none" stroke="#000000" d="M519.739,-99.3399C461.3875,-94.4781 386.4313,-85.0949 361.0577,-68 352.687,-62.3604 346.3109,-53.5109 341.6473,-44.8145"/>
<polygon fill="#000000" stroke="#000000" points="344.7132,-43.1126 337.2454,-35.5971 338.3966,-46.1293 344.7132,-43.1126"/>
<text text-anchor="middle" x="385.3478" y="-56.8" font-family="Times,serif" font-size="14.00" fill="#000000">category</text>
</g>
<!-- related to -->
<g id="node6" class="node">
<title>related to</title>
<ellipse fill="none" stroke="#000000" cx="403.2511" cy="-18" rx="27" ry="18"/>
</g>
<!-- cellular component&#45;&gt;related to -->
<g id="edge5" class="edge">
<title>cellular component&#45;&gt;related to</title>
<path fill="none" stroke="#000000" d="M524.8491,-95.9493C484.659,-90.0818 439.2683,-80.8911 423.7784,-68 417.0098,-62.367 412.4452,-54.1449 409.3783,-45.9889"/>
<polygon fill="#000000" stroke="#000000" points="412.6583,-44.7508 406.3326,-36.2516 405.9775,-46.8405 412.6583,-44.7508"/>
<text text-anchor="middle" x="450.4874" y="-56.8" font-family="Times,serif" font-size="14.00" fill="#000000">related to</text>
</g>
<!-- node property -->
<g id="node7" class="node">
<title>node property</title>
<ellipse fill="none" stroke="#000000" cx="475.2511" cy="-18" rx="27" ry="18"/>
</g>
<!-- cellular component&#45;&gt;node property -->
<g id="edge6" class="edge">
<title>cellular component&#45;&gt;node property</title>
<path fill="none" stroke="#000000" d="M540.5509,-91.0723C517.7882,-84.6516 494.8579,-76.4663 487.1095,-68 481.6651,-62.0512 478.5871,-54.0697 476.883,-46.2327"/>
<polygon fill="#000000" stroke="#000000" points="480.32,-45.5536 475.3509,-36.1964 473.4001,-46.6101 480.32,-45.5536"/>
<text text-anchor="middle" x="526.3219" y="-56.8" font-family="Times,serif" font-size="14.00" fill="#000000">node property</text>
</g>
<!-- iri -->
<g id="node8" class="node">
<title>iri</title>
<ellipse fill="none" stroke="#000000" cx="547.2511" cy="-18" rx="27" ry="18"/>
</g>
<!-- cellular component&#45;&gt;iri -->
<g id="edge7" class="edge">
<title>cellular component&#45;&gt;iri</title>
<path fill="none" stroke="#000000" d="M585.0715,-85.7616C578.2742,-73.5831 569.2333,-57.3847 561.6954,-43.8794"/>
<polygon fill="#000000" stroke="#000000" points="564.6929,-42.0684 556.763,-35.0422 558.5805,-45.48 564.6929,-42.0684"/>
<text text-anchor="middle" x="580.4718" y="-56.8" font-family="Times,serif" font-size="14.00" fill="#000000">iri</text>
</g>
<!-- synonym -->
<g id="node9" class="node">
<title>synonym</title>
<ellipse fill="none" stroke="#000000" cx="619.2511" cy="-18" rx="27" ry="18"/>
</g>
<!-- cellular component&#45;&gt;synonym -->
<g id="edge8" class="edge">
<title>cellular component&#45;&gt;synonym</title>
<path fill="none" stroke="#000000" d="M600.3409,-85.7616C603.5764,-74.1678 607.8285,-58.931 611.4811,-45.8426"/>
<polygon fill="#000000" stroke="#000000" points="614.9341,-46.49 614.2509,-35.9172 608.1917,-44.6083 614.9341,-46.49"/>
<text text-anchor="middle" x="634.92" y="-56.8" font-family="Times,serif" font-size="14.00" fill="#000000">synonym</text>
</g>
<!-- full name -->
<g id="node10" class="node">
<title>full name</title>
<ellipse fill="none" stroke="#000000" cx="691.2511" cy="-18" rx="27" ry="18"/>
</g>
<!-- cellular component&#45;&gt;full name -->
<g id="edge9" class="edge">
<title>cellular component&#45;&gt;full name</title>
<path fill="none" stroke="#000000" d="M634.8158,-88.437C645.2296,-83.0539 655.88,-76.2527 664.2511,-68 670.8154,-61.5285 676.1848,-53.1202 680.357,-45.051"/>
<polygon fill="#000000" stroke="#000000" points="683.5877,-46.4065 684.7048,-35.8707 677.2614,-43.4103 683.5877,-46.4065"/>
<text text-anchor="middle" x="701.8805" y="-56.8" font-family="Times,serif" font-size="14.00" fill="#000000">full name</text>
</g>
<!-- description -->
<g id="node11" class="node">
<title>description</title>
<ellipse fill="none" stroke="#000000" cx="763.2511" cy="-18" rx="27" ry="18"/>
</g>
<!-- cellular component&#45;&gt;description -->
<g id="edge10" class="edge">
<title>cellular component&#45;&gt;description</title>
<path fill="none" stroke="#000000" d="M656.0824,-92.6222C686.6726,-86.0018 719.8402,-77.1708 732.2511,-68 740.3345,-62.0269 746.784,-53.2578 751.6614,-44.7248"/>
<polygon fill="#000000" stroke="#000000" points="754.8439,-46.1905 756.3397,-35.7018 748.6295,-42.9684 754.8439,-46.1905"/>
<text text-anchor="middle" x="777.3546" y="-56.8" font-family="Times,serif" font-size="14.00" fill="#000000">description</text>
</g>
<!-- systematic synonym -->
<g id="node12" class="node">
<title>systematic synonym</title>
<ellipse fill="none" stroke="#000000" cx="848.2511" cy="-18" rx="27" ry="18"/>
</g>
<!-- cellular component&#45;&gt;systematic synonym -->
<g id="edge11" class="edge">
<title>cellular component&#45;&gt;systematic synonym</title>
<path fill="none" stroke="#000000" d="M668.7208,-97.83C722.0063,-92.2462 788.6882,-82.6283 812.2511,-68 821.5205,-62.2454 829.1184,-53.1389 834.9053,-44.265"/>
<polygon fill="#000000" stroke="#000000" points="837.9572,-45.9809 840.0833,-35.6015 831.9486,-42.3896 837.9572,-45.9809"/>
<text text-anchor="middle" x="884.2184" y="-56.8" font-family="Times,serif" font-size="14.00" fill="#000000">systematic synonym</text>
</g>
<!-- has phenotype -->
<g id="node13" class="node">
<title>has phenotype</title>
<ellipse fill="none" stroke="#000000" cx="985.2511" cy="-18" rx="27" ry="18"/>
</g>
<!-- cellular component&#45;&gt;has phenotype -->
<g id="edge12" class="edge">
<title>cellular component&#45;&gt;has phenotype</title>
<path fill="none" stroke="#000000" d="M670.7398,-99.3388C766.4058,-92.9545 921.7554,-80.8137 945.2511,-68 955.4574,-62.4338 964.0002,-53.0714 970.5353,-43.9431"/>
<polygon fill="#000000" stroke="#000000" points="973.5895,-45.6693 976.1745,-35.3946 967.7464,-41.8147 973.5895,-45.6693"/>
<text text-anchor="middle" x="1002.4908" y="-56.8" font-family="Times,serif" font-size="14.00" fill="#000000">has phenotype</text>
</g>
<!-- in taxon -->
<g id="node14" class="node">
<title>in taxon</title>
<ellipse fill="none" stroke="#000000" cx="1088.2511" cy="-18" rx="27" ry="18"/>
</g>
<!-- cellular component&#45;&gt;in taxon -->
<g id="edge13" class="edge">
<title>cellular component&#45;&gt;in taxon</title>
<path fill="none" stroke="#000000" d="M672.6292,-101.0692C792.8127,-96.0321 1013.9595,-84.6432 1046.2511,-68 1057.0524,-62.433 1066.1717,-52.7623 1073.1239,-43.4002"/>
<polygon fill="#000000" stroke="#000000" points="1076.1066,-45.2398 1078.8855,-35.0158 1070.3374,-41.2753 1076.1066,-45.2398"/>
<text text-anchor="middle" x="1085.9977" y="-56.8" font-family="Times,serif" font-size="14.00" fill="#000000">in taxon</text>
</g>
<!-- expresses -->
<g id="node15" class="node">
<title>expresses</title>
<ellipse fill="none" stroke="#000000" cx="1160.2511" cy="-18" rx="27" ry="18"/>
</g>
<!-- cellular component&#45;&gt;expresses -->
<g id="edge14" class="edge">
<title>cellular component&#45;&gt;expresses</title>
<path fill="none" stroke="#000000" d="M672.9044,-101.6671C807.506,-97.17 1073.5416,-86.1133 1112.2511,-68 1124.3421,-62.3423 1134.9679,-52.1985 1143.1277,-42.5192"/>
<polygon fill="#000000" stroke="#000000" points="1145.9264,-44.6227 1149.38,-34.6065 1140.434,-40.2828 1145.9264,-44.6227"/>
<text text-anchor="middle" x="1158.0753" y="-56.8" font-family="Times,serif" font-size="14.00" fill="#000000">expresses</text>
</g>
</g>
</svg>
