<?xml version="1.0" encoding="UTF-8" standalone="no"?>
<!DOCTYPE svg PUBLIC "-//W3C//DTD SVG 1.1//EN"
 "http://www.w3.org/Graphics/SVG/1.1/DTD/svg11.dtd">
<!-- Generated by graphviz version 2.43.0 (0)
 -->
<!-- Title: %3 Pages: 1 -->
<svg width="1528pt" height="130pt"
 viewBox="0.00 0.00 1527.75 130.00" xmlns="http://www.w3.org/2000/svg" xmlns:xlink="http://www.w3.org/1999/xlink">
<g id="graph0" class="graph" transform="scale(1 1) rotate(0) translate(4 126)">
<title>%3</title>
<polygon fill="white" stroke="transparent" points="-4,4 -4,-126 1523.75,-126 1523.75,4 -4,4"/>
<!-- cell line -->
<g id="node1" class="node">
<title>cell line</title>
<ellipse fill="none" stroke="black" cx="772.6" cy="-104" rx="38.19" ry="18"/>
<text text-anchor="middle" x="772.6" y="-99.8" font-family="Times,serif" font-size="14.00">cell line</text>
</g>
<!-- organismal entity -->
<g id="node2" class="node">
<title>organismal entity</title>
<ellipse fill="none" stroke="black" cx="71.6" cy="-18" rx="71.69" ry="18"/>
<text text-anchor="middle" x="71.6" y="-13.8" font-family="Times,serif" font-size="14.00">organismal entity</text>
</g>
<!-- cell line&#45;&gt;organismal entity -->
<g id="edge1" class="edge">
<title>cell line&#45;&gt;organismal entity</title>
<path fill="none" stroke="black" d="M734.49,-101.29C657.59,-97.55 478.42,-87.39 329.04,-68 250.01,-57.74 230.82,-51.3 152.6,-36 146.72,-34.85 140.62,-33.63 134.51,-32.38"/>
<polygon fill="black" stroke="black" points="134.78,-28.86 124.28,-30.27 133.36,-35.72 134.78,-28.86"/>
<text text-anchor="middle" x="340.87" y="-56.8" font-family="Times,serif" font-size="14.00">is_a</text>
</g>
<!-- id -->
<g id="node3" class="node">
<title>id</title>
<ellipse fill="none" stroke="blue" cx="220.6" cy="-18" rx="59.44" ry="18"/>
<text text-anchor="middle" x="220.6" y="-13.8" font-family="Times,serif" font-size="14.00">identifier type</text>
</g>
<!-- cell line&#45;&gt;id -->
<g id="edge2" class="edge">
<title>cell line&#45;&gt;id</title>
<path fill="none" stroke="blue" d="M734.65,-101.03C669.61,-97.25 532.8,-87.57 418.71,-68 360.01,-57.93 346.4,-50.33 288.6,-36 284.04,-34.87 279.31,-33.69 274.56,-32.51"/>
<polygon fill="blue" stroke="blue" points="275.4,-29.11 264.85,-30.09 273.71,-35.91 275.4,-29.11"/>
<text text-anchor="middle" x="425.04" y="-56.8" font-family="Times,serif" font-size="14.00">id</text>
</g>
<!-- name -->
<g id="node4" class="node">
<title>name</title>
<ellipse fill="none" stroke="blue" cx="342.6" cy="-18" rx="44.96" ry="18"/>
<text text-anchor="middle" x="342.6" y="-13.8" font-family="Times,serif" font-size="14.00">label type</text>
</g>
<!-- cell line&#45;&gt;name -->
<g id="edge3" class="edge">
<title>cell line&#45;&gt;name</title>
<path fill="none" stroke="blue" d="M734.48,-101.25C677.91,-98.02 568.66,-89.4 478.28,-68 444.64,-60.04 407.82,-46.41 381.04,-35.55"/>
<polygon fill="blue" stroke="blue" points="382.23,-32.25 371.65,-31.69 379.57,-38.73 382.23,-32.25"/>
<text text-anchor="middle" x="493.76" y="-56.8" font-family="Times,serif" font-size="14.00">name</text>
</g>
<!-- category -->
<g id="node5" class="node">
<title>category</title>
<ellipse fill="none" stroke="blue" cx="440.6" cy="-18" rx="35.3" ry="18"/>
<text text-anchor="middle" x="440.6" y="-13.8" font-family="Times,serif" font-size="14.00">iri type</text>
</g>
<!-- cell line&#45;&gt;category -->
<g id="edge4" class="edge">
<title>cell line&#45;&gt;category</title>
<path fill="none" stroke="blue" d="M734.8,-100.17C689.85,-96.11 612.93,-86.91 549.4,-68 522.89,-60.11 494.42,-47.11 473.26,-36.49"/>
<polygon fill="blue" stroke="blue" points="474.59,-33.24 464.09,-31.8 471.4,-39.47 474.59,-33.24"/>
<text text-anchor="middle" x="573.69" y="-56.8" font-family="Times,serif" font-size="14.00">category</text>
</g>
<!-- related to -->
<g id="node6" class="node">
<title>related to</title>
<ellipse fill="none" stroke="blue" cx="547.6" cy="-18" rx="54.14" ry="18"/>
<text text-anchor="middle" x="547.6" y="-13.8" font-family="Times,serif" font-size="14.00">named thing</text>
</g>
<!-- cell line&#45;&gt;related to -->
<g id="edge5" class="edge">
<title>cell line&#45;&gt;related to</title>
<path fill="none" stroke="blue" d="M736.87,-97.38C707.26,-92 664.45,-82.53 629.12,-68 611.42,-60.72 593.03,-49.98 578.2,-40.41"/>
<polygon fill="blue" stroke="blue" points="579.75,-37.24 569.47,-34.65 575.89,-43.08 579.75,-37.24"/>
<text text-anchor="middle" x="655.83" y="-56.8" font-family="Times,serif" font-size="14.00">related to</text>
</g>
<!-- interacts with -->
<g id="node7" class="node">
<title>interacts with</title>
<ellipse fill="none" stroke="blue" cx="673.6" cy="-18" rx="54.14" ry="18"/>
<text text-anchor="middle" x="673.6" y="-13.8" font-family="Times,serif" font-size="14.00">named thing</text>
</g>
<!-- cell line&#45;&gt;interacts with -->
<g id="edge6" class="edge">
<title>cell line&#45;&gt;interacts with</title>
<path fill="none" stroke="blue" d="M739.72,-94.63C724.11,-89.23 706.21,-80.77 693.79,-68 687.83,-61.88 683.54,-53.76 680.49,-45.89"/>
<polygon fill="blue" stroke="blue" points="683.75,-44.6 677.26,-36.23 677.11,-46.82 683.75,-44.6"/>
<text text-anchor="middle" x="732.5" y="-56.8" font-family="Times,serif" font-size="14.00">interacts with</text>
</g>
<!-- node property -->
<g id="node8" class="node">
<title>node property</title>
<ellipse fill="none" stroke="blue" cx="775.6" cy="-18" rx="30" ry="18"/>
<text text-anchor="middle" x="775.6" y="-13.8" font-family="Times,serif" font-size="14.00">string</text>
</g>
<!-- cell line&#45;&gt;node property -->
<g id="edge7" class="edge">
<title>cell line&#45;&gt;node property</title>
<path fill="none" stroke="blue" d="M772.72,-85.76C772.83,-76.37 773.04,-64.54 773.45,-54 773.56,-51.45 773.68,-48.79 773.82,-46.13"/>
<polygon fill="blue" stroke="blue" points="777.32,-46.27 774.4,-36.08 770.33,-45.86 777.32,-46.27"/>
<text text-anchor="middle" x="812.67" y="-56.8" font-family="Times,serif" font-size="14.00">node property</text>
</g>
<!-- iri -->
<g id="node9" class="node">
<title>iri</title>
<ellipse fill="none" stroke="blue" cx="859.6" cy="-18" rx="35.3" ry="18"/>
<text text-anchor="middle" x="859.6" y="-13.8" font-family="Times,serif" font-size="14.00">iri type</text>
</g>
<!-- cell line&#45;&gt;iri -->
<g id="edge8" class="edge">
<title>cell line&#45;&gt;iri</title>
<path fill="none" stroke="blue" d="M806.88,-95.79C822.85,-90.68 840.68,-82.13 851.6,-68 856.38,-61.81 858.78,-53.85 859.88,-46.16"/>
<polygon fill="blue" stroke="blue" points="863.38,-46.26 860.68,-36.01 856.4,-45.71 863.38,-46.26"/>
<text text-anchor="middle" x="864.82" y="-56.8" font-family="Times,serif" font-size="14.00">iri</text>
</g>
<!-- synonym -->
<g id="node10" class="node">
<title>synonym</title>
<ellipse fill="none" stroke="blue" cx="957.6" cy="-18" rx="44.96" ry="18"/>
<text text-anchor="middle" x="957.6" y="-13.8" font-family="Times,serif" font-size="14.00">label type</text>
</g>
<!-- cell line&#45;&gt;synonym -->
<g id="edge9" class="edge">
<title>cell line&#45;&gt;synonym</title>
<path fill="none" stroke="blue" d="M804.49,-93.88C824.93,-87.6 851.81,-78.5 874.6,-68 892.51,-59.74 911.52,-48.7 926.82,-39.19"/>
<polygon fill="blue" stroke="blue" points="928.78,-42.1 935.37,-33.8 925.04,-36.18 928.78,-42.1"/>
<text text-anchor="middle" x="926.27" y="-56.8" font-family="Times,serif" font-size="14.00">synonym</text>
</g>
<!-- full name -->
<g id="node11" class="node">
<title>full name</title>
<ellipse fill="none" stroke="blue" cx="1064.6" cy="-18" rx="44.96" ry="18"/>
<text text-anchor="middle" x="1064.6" y="-13.8" font-family="Times,serif" font-size="14.00">label type</text>
</g>
<!-- cell line&#45;&gt;full name -->
<g id="edge10" class="edge">
<title>cell line&#45;&gt;full name</title>
<path fill="none" stroke="blue" d="M809.33,-98.55C846.73,-93.42 906.09,-83.63 955.6,-68 980.99,-59.99 1008.32,-47.69 1029.26,-37.42"/>
<polygon fill="blue" stroke="blue" points="1031.01,-40.46 1038.4,-32.87 1027.89,-34.19 1031.01,-40.46"/>
<text text-anchor="middle" x="1019.23" y="-56.8" font-family="Times,serif" font-size="14.00">full name</text>
</g>
<!-- description -->
<g id="node12" class="node">
<title>description</title>
<ellipse fill="none" stroke="blue" cx="1184.6" cy="-18" rx="57" ry="18"/>
<text text-anchor="middle" x="1184.6" y="-13.8" font-family="Times,serif" font-size="14.00">narrative text</text>
</g>
<!-- cell line&#45;&gt;description -->
<g id="edge11" class="edge">
<title>cell line&#45;&gt;description</title>
<path fill="none" stroke="blue" d="M810.71,-100.87C864.57,-97.26 965.73,-88.25 1049.6,-68 1081.76,-60.23 1116.85,-47.35 1143.2,-36.75"/>
<polygon fill="blue" stroke="blue" points="1144.55,-39.97 1152.49,-32.95 1141.9,-33.49 1144.55,-39.97"/>
<text text-anchor="middle" x="1126.7" y="-56.8" font-family="Times,serif" font-size="14.00">description</text>
</g>
<!-- systematic synonym -->
<g id="node13" class="node">
<title>systematic synonym</title>
<ellipse fill="none" stroke="blue" cx="1304.6" cy="-18" rx="44.96" ry="18"/>
<text text-anchor="middle" x="1304.6" y="-13.8" font-family="Times,serif" font-size="14.00">label type</text>
</g>
<!-- cell line&#45;&gt;systematic synonym -->
<g id="edge12" class="edge">
<title>cell line&#45;&gt;systematic synonym</title>
<path fill="none" stroke="blue" d="M810.87,-102.59C881.14,-101.17 1035.09,-94.95 1161.6,-68 1197.53,-60.34 1236.93,-46.41 1265.25,-35.35"/>
<polygon fill="blue" stroke="blue" points="1266.78,-38.51 1274.79,-31.57 1264.2,-32 1266.78,-38.51"/>
<text text-anchor="middle" x="1267.56" y="-56.8" font-family="Times,serif" font-size="14.00">systematic synonym</text>
</g>
<!-- has phenotype -->
<g id="node14" class="node">
<title>has phenotype</title>
<ellipse fill="none" stroke="blue" cx="1443.6" cy="-18" rx="76.31" ry="18"/>
<text text-anchor="middle" x="1443.6" y="-13.8" font-family="Times,serif" font-size="14.00">phenotypic feature</text>
</g>
<!-- cell line&#45;&gt;has phenotype -->
<g id="edge13" class="edge">
<title>cell line&#45;&gt;has phenotype</title>
<path fill="none" stroke="blue" d="M810.82,-102.28C919.69,-99.95 1229.9,-91.4 1328.6,-68 1355.08,-61.72 1383.23,-49.83 1405.04,-39.33"/>
<polygon fill="blue" stroke="blue" points="1406.85,-42.34 1414.28,-34.79 1403.76,-36.06 1406.85,-42.34"/>
<text text-anchor="middle" x="1410.84" y="-56.8" font-family="Times,serif" font-size="14.00">has phenotype</text>
</g>
</g>
</svg>
