<?xml version="1.0" encoding="UTF-8" standalone="no"?>
<!DOCTYPE svg PUBLIC "-//W3C//DTD SVG 1.1//EN"
 "http://www.w3.org/Graphics/SVG/1.1/DTD/svg11.dtd">
<!-- Generated by graphviz version 2.43.0 (0)
 -->
<!-- Title: %3 Pages: 1 -->
<svg width="1580pt" height="131pt"
 viewBox="0.00 0.00 1580.44 131.00" xmlns="http://www.w3.org/2000/svg" xmlns:xlink="http://www.w3.org/1999/xlink">
<g id="graph0" class="graph" transform="scale(1 1) rotate(0) translate(4 127)">
<title>%3</title>
<polygon fill="white" stroke="transparent" points="-4,4 -4,-127 1576.44,-127 1576.44,4 -4,4"/>
<!-- cell line -->
<g id="node1" class="node">
<title>cell line</title>
<ellipse fill="none" stroke="black" cx="772.94" cy="-105" rx="46.59" ry="18"/>
<text text-anchor="middle" x="772.94" y="-101.3" font-family="Times,serif" font-size="14.00">cell line</text>
</g>
<!-- organismal entity -->
<g id="node2" class="node">
<title>organismal entity</title>
<ellipse fill="none" stroke="black" cx="92.94" cy="-18" rx="92.88" ry="18"/>
<text text-anchor="middle" x="92.94" y="-14.3" font-family="Times,serif" font-size="14.00">organismal entity</text>
</g>
<!-- cell line&#45;&gt;organismal entity -->
<g id="edge1" class="edge">
<title>cell line&#45;&gt;organismal entity</title>
<path fill="none" stroke="black" d="M726.49,-102.16C646.43,-98.57 477.41,-89.14 335.94,-69 275.3,-60.37 207.05,-45.9 158.36,-34.74"/>
<polygon fill="black" stroke="black" points="159.11,-31.32 148.58,-32.48 157.54,-38.14 159.11,-31.32"/>
<text text-anchor="middle" x="349.94" y="-57.8" font-family="Times,serif" font-size="14.00">is_a</text>
</g>
<!-- id -->
<g id="node3" class="node">
<title>id</title>
<ellipse fill="none" stroke="blue" cx="241.94" cy="-18" rx="38.19" ry="18"/>
<text text-anchor="middle" x="241.94" y="-14.3" font-family="Times,serif" font-size="14.00">string</text>
</g>
<!-- cell line&#45;&gt;id -->
<g id="edge2" class="edge">
<title>cell line&#45;&gt;id</title>
<path fill="none" stroke="blue" d="M726.84,-101.54C639.95,-96.03 446.58,-79.57 289.94,-36 286.83,-35.14 283.63,-34.17 280.44,-33.15"/>
<polygon fill="blue" stroke="blue" points="281.52,-29.83 270.93,-29.99 279.31,-36.47 281.52,-29.83"/>
<text text-anchor="middle" x="440.94" y="-57.8" font-family="Times,serif" font-size="14.00">id</text>
</g>
<!-- iri -->
<g id="node4" class="node">
<title>iri</title>
<ellipse fill="none" stroke="blue" cx="342.94" cy="-18" rx="44.39" ry="18"/>
<text text-anchor="middle" x="342.94" y="-14.3" font-family="Times,serif" font-size="14.00">iri type</text>
</g>
<!-- cell line&#45;&gt;iri -->
<g id="edge3" class="edge">
<title>cell line&#45;&gt;iri</title>
<path fill="none" stroke="blue" d="M728.97,-98.43C681.99,-92.24 605.44,-81.46 539.94,-69 475.86,-56.81 459.88,-53.14 396.94,-36 393.36,-35.03 389.67,-33.97 385.97,-32.88"/>
<polygon fill="blue" stroke="blue" points="386.82,-29.48 376.24,-29.93 384.79,-36.18 386.82,-29.48"/>
<text text-anchor="middle" x="547.94" y="-57.8" font-family="Times,serif" font-size="14.00">iri</text>
</g>
<!-- type -->
<g id="node5" class="node">
<title>type</title>
<ellipse fill="none" stroke="blue" cx="443.94" cy="-18" rx="38.19" ry="18"/>
<text text-anchor="middle" x="443.94" y="-14.3" font-family="Times,serif" font-size="14.00">string</text>
</g>
<!-- cell line&#45;&gt;type -->
<g id="edge4" class="edge">
<title>cell line&#45;&gt;type</title>
<path fill="none" stroke="blue" d="M732.3,-96.04C677.06,-84.81 575.47,-62.67 490.94,-36 488.19,-35.13 485.36,-34.2 482.51,-33.24"/>
<polygon fill="blue" stroke="blue" points="483.49,-29.87 472.9,-29.9 481.19,-36.49 483.49,-29.87"/>
<text text-anchor="middle" x="622.94" y="-57.8" font-family="Times,serif" font-size="14.00">type</text>
</g>
<!-- name -->
<g id="node6" class="node">
<title>name</title>
<ellipse fill="none" stroke="blue" cx="556.94" cy="-18" rx="56.59" ry="18"/>
<text text-anchor="middle" x="556.94" y="-14.3" font-family="Times,serif" font-size="14.00">label type</text>
</g>
<!-- cell line&#45;&gt;name -->
<g id="edge5" class="edge">
<title>cell line&#45;&gt;name</title>
<path fill="none" stroke="blue" d="M741.27,-91.74C724.01,-85.05 702.29,-76.6 682.94,-69 655.39,-58.17 624.49,-45.91 600.18,-36.24"/>
<polygon fill="blue" stroke="blue" points="601.46,-32.99 590.88,-32.54 598.87,-39.49 601.46,-32.99"/>
<text text-anchor="middle" x="702.94" y="-57.8" font-family="Times,serif" font-size="14.00">name</text>
</g>
<!-- description -->
<g id="node7" class="node">
<title>description</title>
<ellipse fill="none" stroke="blue" cx="706.94" cy="-18" rx="75.29" ry="18"/>
<text text-anchor="middle" x="706.94" y="-14.3" font-family="Times,serif" font-size="14.00">narrative text</text>
</g>
<!-- cell line&#45;&gt;description -->
<g id="edge6" class="edge">
<title>cell line&#45;&gt;description</title>
<path fill="none" stroke="blue" d="M754.2,-88.23C748,-82.52 741.32,-75.8 735.94,-69 730.12,-61.65 724.69,-53 720.13,-44.98"/>
<polygon fill="blue" stroke="blue" points="723.08,-43.08 715.22,-35.98 716.94,-46.43 723.08,-43.08"/>
<text text-anchor="middle" x="776.44" y="-57.8" font-family="Times,serif" font-size="14.00">description</text>
</g>
<!-- source -->
<g id="node8" class="node">
<title>source</title>
<ellipse fill="none" stroke="blue" cx="838.94" cy="-18" rx="38.19" ry="18"/>
<text text-anchor="middle" x="838.94" y="-14.3" font-family="Times,serif" font-size="14.00">string</text>
</g>
<!-- cell line&#45;&gt;source -->
<g id="edge7" class="edge">
<title>cell line&#45;&gt;source</title>
<path fill="none" stroke="blue" d="M795.86,-89.12C803.29,-83.48 811.1,-76.58 816.94,-69 822.37,-61.95 826.78,-53.35 830.18,-45.28"/>
<polygon fill="blue" stroke="blue" points="833.49,-46.44 833.84,-35.85 826.96,-43.91 833.49,-46.44"/>
<text text-anchor="middle" x="849.94" y="-57.8" font-family="Times,serif" font-size="14.00">source</text>
</g>
<!-- provided by -->
<g id="node9" class="node">
<title>provided by</title>
<ellipse fill="none" stroke="blue" cx="933.94" cy="-18" rx="38.19" ry="18"/>
<text text-anchor="middle" x="933.94" y="-14.3" font-family="Times,serif" font-size="14.00">string</text>
</g>
<!-- cell line&#45;&gt;provided by -->
<g id="edge8" class="edge">
<title>cell line&#45;&gt;provided by</title>
<path fill="none" stroke="blue" d="M808.28,-93C836.26,-84.16 871.67,-72.64 877.94,-69 890.4,-61.78 902.53,-51.48 912.3,-42.1"/>
<polygon fill="blue" stroke="blue" points="914.97,-44.39 919.59,-34.86 910.03,-39.43 914.97,-44.39"/>
<text text-anchor="middle" x="941.44" y="-57.8" font-family="Times,serif" font-size="14.00">provided by</text>
</g>
<!-- xref -->
<g id="node10" class="node">
<title>xref</title>
<ellipse fill="none" stroke="blue" cx="1047.94" cy="-18" rx="57.39" ry="18"/>
<text text-anchor="middle" x="1047.94" y="-14.3" font-family="Times,serif" font-size="14.00">uriorcurie</text>
</g>
<!-- cell line&#45;&gt;xref -->
<g id="edge9" class="edge">
<title>cell line&#45;&gt;xref</title>
<path fill="none" stroke="blue" d="M807.04,-92.57C814.21,-90.47 821.78,-88.48 828.94,-87 898.59,-72.61 922.54,-96.94 987.94,-69 1002.05,-62.97 1015.41,-52.5 1025.93,-42.7"/>
<polygon fill="blue" stroke="blue" points="1028.67,-44.91 1033.38,-35.41 1023.78,-39.9 1028.67,-44.91"/>
<text text-anchor="middle" x="1026.44" y="-57.8" font-family="Times,serif" font-size="14.00">xref</text>
</g>
<!-- category -->
<g id="node11" class="node">
<title>category</title>
<ellipse fill="none" stroke="black" cx="1174.94" cy="-18" rx="51.19" ry="18"/>
<text text-anchor="middle" x="1174.94" y="-14.3" font-family="Times,serif" font-size="14.00">category</text>
</g>
<!-- cell line&#45;&gt;category -->
<g id="edge10" class="edge">
<title>cell line&#45;&gt;category</title>
<path fill="none" stroke="blue" d="M806.71,-92.49C813.97,-90.37 821.66,-88.39 828.94,-87 923.56,-68.91 951.04,-90.51 1044.94,-69 1076.82,-61.7 1111.29,-48.16 1136.72,-37.01"/>
<polygon fill="blue" stroke="blue" points="1138.29,-40.14 1146,-32.87 1135.44,-33.75 1138.29,-40.14"/>
<text text-anchor="middle" x="1124.44" y="-57.8" font-family="Times,serif" font-size="14.00">category</text>
</g>
<!-- in taxon -->
<g id="node13" class="node">
<title>in taxon</title>
<ellipse fill="none" stroke="blue" cx="1327.94" cy="-18" rx="83.39" ry="18"/>
<text text-anchor="middle" x="1327.94" y="-14.3" font-family="Times,serif" font-size="14.00">organism taxon</text>
</g>
<!-- cell line&#45;&gt;in taxon -->
<g id="edge11" class="edge">
<title>cell line&#45;&gt;in taxon</title>
<path fill="none" stroke="blue" d="M806.68,-92.33C813.95,-90.22 821.64,-88.29 828.94,-87 974.03,-61.42 1014.78,-94.19 1159.94,-69 1200.43,-61.98 1244.95,-48.45 1277.98,-37.24"/>
<polygon fill="blue" stroke="blue" points="1279.53,-40.4 1287.84,-33.84 1277.25,-33.79 1279.53,-40.4"/>
<text text-anchor="middle" x="1249.94" y="-57.8" font-family="Times,serif" font-size="14.00">in taxon</text>
</g>
<!-- has attribute -->
<g id="node14" class="node">
<title>has attribute</title>
<ellipse fill="none" stroke="black" cx="1500.94" cy="-18" rx="71.49" ry="18"/>
<text text-anchor="middle" x="1500.94" y="-14.3" font-family="Times,serif" font-size="14.00">has attribute</text>
</g>
<!-- cell line&#45;&gt;has attribute -->
<g id="edge12" class="edge">
<title>cell line&#45;&gt;has attribute</title>
<path fill="none" stroke="blue" d="M806.37,-92.34C813.72,-90.2 821.53,-88.25 828.94,-87 1028.06,-53.4 1082.78,-95.69 1282.94,-69 1339,-61.53 1401.84,-46.37 1445.6,-34.69"/>
<polygon fill="blue" stroke="blue" points="1446.72,-38.02 1455.46,-32.03 1444.9,-31.26 1446.72,-38.02"/>
<text text-anchor="middle" x="1408.94" y="-57.8" font-family="Times,serif" font-size="14.00">has attribute</text>
</g>
<!-- named thing_category -->
<g id="node12" class="node">
<title>named thing_category</title>
<ellipse fill="none" stroke="blue" cx="912.94" cy="-105" rx="74.99" ry="18"/>
<text text-anchor="middle" x="912.94" y="-101.3" font-family="Times,serif" font-size="14.00">category type</text>
</g>
<!-- organismal entity_has attribute -->
<g id="node15" class="node">
<title>organismal entity_has attribute</title>
<ellipse fill="none" stroke="blue" cx="1057.94" cy="-105" rx="51.99" ry="18"/>
<text text-anchor="middle" x="1057.94" y="-101.3" font-family="Times,serif" font-size="14.00">attribute</text>
</g>
</g>
</svg>
