<?xml version="1.0" encoding="UTF-8" standalone="no"?>
<!DOCTYPE svg PUBLIC "-//W3C//DTD SVG 1.1//EN"
 "http://www.w3.org/Graphics/SVG/1.1/DTD/svg11.dtd">
<!-- Generated by graphviz version 2.43.0 (0)
 -->
<!-- Title: %3 Pages: 1 -->
<svg width="1874pt" height="131pt"
 viewBox="0.00 0.00 1874.44 131.00" xmlns="http://www.w3.org/2000/svg" xmlns:xlink="http://www.w3.org/1999/xlink">
<g id="graph0" class="graph" transform="scale(1 1) rotate(0) translate(4 127)">
<title>%3</title>
<polygon fill="white" stroke="transparent" points="-4,4 -4,-127 1870.44,-127 1870.44,4 -4,4"/>
<!-- cell line -->
<g id="node1" class="node">
<title>cell line</title>
<ellipse fill="none" stroke="black" cx="964.94" cy="-105" rx="46.59" ry="18"/>
<text text-anchor="middle" x="964.94" y="-101.3" font-family="Times,serif" font-size="14.00">cell line</text>
</g>
<!-- organismal entity -->
<g id="node2" class="node">
<title>organismal entity</title>
<ellipse fill="none" stroke="black" cx="92.94" cy="-18" rx="92.88" ry="18"/>
<text text-anchor="middle" x="92.94" y="-14.3" font-family="Times,serif" font-size="14.00">organismal entity</text>
</g>
<!-- cell line&#45;&gt;organismal entity -->
<g id="edge1" class="edge">
<title>cell line&#45;&gt;organismal entity</title>
<path fill="none" stroke="black" d="M918.82,-101.49C831.22,-96.56 634.82,-84.71 469.94,-69 347.4,-57.32 316.8,-53.46 194.94,-36 186.77,-34.83 178.24,-33.53 169.74,-32.19"/>
<polygon fill="black" stroke="black" points="170.24,-28.72 159.81,-30.59 169.13,-35.63 170.24,-28.72"/>
<text text-anchor="middle" x="483.94" y="-57.8" font-family="Times,serif" font-size="14.00">is_a</text>
</g>
<!-- subject of investigation -->
<g id="node3" class="node">
<title>subject of investigation</title>
<ellipse fill="none" stroke="black" cx="323.94" cy="-18" rx="119.68" ry="18"/>
<text text-anchor="middle" x="323.94" y="-14.3" font-family="Times,serif" font-size="14.00">subject of investigation</text>
</g>
<!-- cell line&#45;&gt;subject of investigation -->
<g id="edge2" class="edge">
<title>cell line&#45;&gt;subject of investigation</title>
<path fill="none" stroke="black" d="M919.18,-101.1C848.38,-96.31 708.12,-85.58 589.94,-69 525.35,-59.94 452.6,-46 399.53,-35.14"/>
<polygon fill="black" stroke="black" points="400.02,-31.67 389.52,-33.08 398.61,-38.53 400.02,-31.67"/>
<text text-anchor="middle" x="606.44" y="-57.8" font-family="Times,serif" font-size="14.00">uses</text>
</g>
<!-- id -->
<g id="node4" class="node">
<title>id</title>
<ellipse fill="none" stroke="blue" cx="499.94" cy="-18" rx="38.19" ry="18"/>
<text text-anchor="middle" x="499.94" y="-14.3" font-family="Times,serif" font-size="14.00">string</text>
</g>
<!-- cell line&#45;&gt;id -->
<g id="edge3" class="edge">
<title>cell line&#45;&gt;id</title>
<path fill="none" stroke="blue" d="M919.78,-100.04C842.46,-92.52 680.28,-73.44 547.94,-36 544.84,-35.12 541.64,-34.15 538.44,-33.12"/>
<polygon fill="blue" stroke="blue" points="539.53,-29.8 528.94,-29.95 537.31,-36.44 539.53,-29.8"/>
<text text-anchor="middle" x="690.94" y="-57.8" font-family="Times,serif" font-size="14.00">id</text>
</g>
<!-- iri -->
<g id="node5" class="node">
<title>iri</title>
<ellipse fill="none" stroke="blue" cx="600.94" cy="-18" rx="44.39" ry="18"/>
<text text-anchor="middle" x="600.94" y="-14.3" font-family="Times,serif" font-size="14.00">iri type</text>
</g>
<!-- cell line&#45;&gt;iri -->
<g id="edge4" class="edge">
<title>cell line&#45;&gt;iri</title>
<path fill="none" stroke="blue" d="M923.12,-96.88C885.72,-90.32 829.47,-79.96 780.94,-69 724.47,-56.25 710.57,-52.03 654.94,-36 651.43,-34.99 647.8,-33.91 644.16,-32.81"/>
<polygon fill="blue" stroke="blue" points="645.15,-29.45 634.57,-29.86 643.1,-36.15 645.15,-29.45"/>
<text text-anchor="middle" x="788.94" y="-57.8" font-family="Times,serif" font-size="14.00">iri</text>
</g>
<!-- type -->
<g id="node6" class="node">
<title>type</title>
<ellipse fill="none" stroke="blue" cx="701.94" cy="-18" rx="38.19" ry="18"/>
<text text-anchor="middle" x="701.94" y="-14.3" font-family="Times,serif" font-size="14.00">string</text>
</g>
<!-- cell line&#45;&gt;type -->
<g id="edge5" class="edge">
<title>cell line&#45;&gt;type</title>
<path fill="none" stroke="blue" d="M928.36,-93.67C904.76,-86.9 873.45,-77.72 845.94,-69 802.53,-55.24 791.91,-51.08 748.94,-36 746.26,-35.06 743.49,-34.08 740.7,-33.08"/>
<polygon fill="blue" stroke="blue" points="741.84,-29.78 731.24,-29.7 739.48,-36.37 741.84,-29.78"/>
<text text-anchor="middle" x="861.94" y="-57.8" font-family="Times,serif" font-size="14.00">type</text>
</g>
<!-- name -->
<g id="node7" class="node">
<title>name</title>
<ellipse fill="none" stroke="blue" cx="814.94" cy="-18" rx="56.59" ry="18"/>
<text text-anchor="middle" x="814.94" y="-14.3" font-family="Times,serif" font-size="14.00">label type</text>
</g>
<!-- cell line&#45;&gt;name -->
<g id="edge6" class="edge">
<title>cell line&#45;&gt;name</title>
<path fill="none" stroke="blue" d="M939.84,-89.77C915.33,-75.89 877.83,-54.64 850.31,-39.04"/>
<polygon fill="blue" stroke="blue" points="851.82,-35.87 841.39,-33.99 848.37,-41.96 851.82,-35.87"/>
<text text-anchor="middle" x="918.94" y="-57.8" font-family="Times,serif" font-size="14.00">name</text>
</g>
<!-- description -->
<g id="node8" class="node">
<title>description</title>
<ellipse fill="none" stroke="blue" cx="964.94" cy="-18" rx="75.29" ry="18"/>
<text text-anchor="middle" x="964.94" y="-14.3" font-family="Times,serif" font-size="14.00">narrative text</text>
</g>
<!-- cell line&#45;&gt;description -->
<g id="edge7" class="edge">
<title>cell line&#45;&gt;description</title>
<path fill="none" stroke="blue" d="M964.94,-86.8C964.94,-75.16 964.94,-59.55 964.94,-46.24"/>
<polygon fill="blue" stroke="blue" points="968.44,-46.18 964.94,-36.18 961.44,-46.18 968.44,-46.18"/>
<text text-anchor="middle" x="1005.44" y="-57.8" font-family="Times,serif" font-size="14.00">description</text>
</g>
<!-- provided by -->
<g id="node9" class="node">
<title>provided by</title>
<ellipse fill="none" stroke="blue" cx="1096.94" cy="-18" rx="38.19" ry="18"/>
<text text-anchor="middle" x="1096.94" y="-14.3" font-family="Times,serif" font-size="14.00">string</text>
</g>
<!-- cell line&#45;&gt;provided by -->
<g id="edge8" class="edge">
<title>cell line&#45;&gt;provided by</title>
<path fill="none" stroke="blue" d="M1000.56,-93.17C1016.47,-87.39 1034.96,-79.32 1049.94,-69 1060.41,-61.78 1070.32,-51.89 1078.32,-42.81"/>
<polygon fill="blue" stroke="blue" points="1081.03,-45.02 1084.82,-35.13 1075.69,-40.5 1081.03,-45.02"/>
<text text-anchor="middle" x="1110.44" y="-57.8" font-family="Times,serif" font-size="14.00">provided by</text>
</g>
<!-- xref -->
<g id="node10" class="node">
<title>xref</title>
<ellipse fill="none" stroke="blue" cx="1210.94" cy="-18" rx="57.39" ry="18"/>
<text text-anchor="middle" x="1210.94" y="-14.3" font-family="Times,serif" font-size="14.00">uriorcurie</text>
</g>
<!-- cell line&#45;&gt;xref -->
<g id="edge9" class="edge">
<title>cell line&#45;&gt;xref</title>
<path fill="none" stroke="blue" d="M999.06,-92.68C1006.23,-90.57 1013.79,-88.55 1020.94,-87 1080.53,-74.1 1101.76,-94.93 1156.94,-69 1169.72,-63 1181.52,-52.86 1190.81,-43.28"/>
<polygon fill="blue" stroke="blue" points="1193.5,-45.54 1197.7,-35.81 1188.35,-40.79 1193.5,-45.54"/>
<text text-anchor="middle" x="1193.44" y="-57.8" font-family="Times,serif" font-size="14.00">xref</text>
</g>
<!-- category -->
<g id="node11" class="node">
<title>category</title>
<ellipse fill="none" stroke="black" cx="1337.94" cy="-18" rx="51.19" ry="18"/>
<text text-anchor="middle" x="1337.94" y="-14.3" font-family="Times,serif" font-size="14.00">category</text>
</g>
<!-- cell line&#45;&gt;category -->
<g id="edge10" class="edge">
<title>cell line&#45;&gt;category</title>
<path fill="none" stroke="blue" d="M999.02,-92.47C1006.19,-90.38 1013.76,-88.41 1020.94,-87 1104.6,-70.53 1129.04,-88.93 1211.94,-69 1242.45,-61.67 1275.35,-48.42 1299.88,-37.39"/>
<polygon fill="blue" stroke="blue" points="1301.54,-40.48 1309.18,-33.14 1298.63,-34.12 1301.54,-40.48"/>
<text text-anchor="middle" x="1290.44" y="-57.8" font-family="Times,serif" font-size="14.00">category</text>
</g>
<!-- in taxon -->
<g id="node13" class="node">
<title>in taxon</title>
<ellipse fill="none" stroke="blue" cx="1490.94" cy="-18" rx="83.39" ry="18"/>
<text text-anchor="middle" x="1490.94" y="-14.3" font-family="Times,serif" font-size="14.00">organism taxon</text>
</g>
<!-- cell line&#45;&gt;in taxon -->
<g id="edge11" class="edge">
<title>cell line&#45;&gt;in taxon</title>
<path fill="none" stroke="blue" d="M998.68,-92.36C1005.95,-90.25 1013.64,-88.3 1020.94,-87 1154.62,-63.11 1192.26,-92.86 1325.94,-69 1365.6,-61.92 1409.16,-48.47 1441.56,-37.3"/>
<polygon fill="blue" stroke="blue" points="1442.95,-40.52 1451.24,-33.91 1440.64,-33.91 1442.95,-40.52"/>
<text text-anchor="middle" x="1414.94" y="-57.8" font-family="Times,serif" font-size="14.00">in taxon</text>
</g>
<!-- in taxon label -->
<g id="node14" class="node">
<title>in taxon label</title>
<ellipse fill="none" stroke="blue" cx="1648.94" cy="-18" rx="56.59" ry="18"/>
<text text-anchor="middle" x="1648.94" y="-14.3" font-family="Times,serif" font-size="14.00">label type</text>
</g>
<!-- cell line&#45;&gt;in taxon label -->
<g id="edge12" class="edge">
<title>cell line&#45;&gt;in taxon label</title>
<path fill="none" stroke="blue" d="M998.37,-92.35C1005.72,-90.21 1013.53,-88.26 1020.94,-87 1208.2,-55.16 1259.88,-95.68 1447.94,-69 1500.78,-61.5 1559.92,-45.89 1600.28,-34.1"/>
<polygon fill="blue" stroke="blue" points="1601.53,-37.38 1610.13,-31.19 1599.54,-30.66 1601.53,-37.38"/>
<text text-anchor="middle" x="1569.44" y="-57.8" font-family="Times,serif" font-size="14.00">in taxon label</text>
</g>
<!-- has attribute -->
<g id="node15" class="node">
<title>has attribute</title>
<ellipse fill="none" stroke="black" cx="1794.94" cy="-18" rx="71.49" ry="18"/>
<text text-anchor="middle" x="1794.94" y="-14.3" font-family="Times,serif" font-size="14.00">has attribute</text>
</g>
<!-- cell line&#45;&gt;has attribute -->
<g id="edge13" class="edge">
<title>cell line&#45;&gt;has attribute</title>
<path fill="none" stroke="blue" d="M998.36,-92.28C1005.71,-90.15 1013.52,-88.22 1020.94,-87 1284.66,-43.81 1357.94,-110.43 1621.94,-69 1664.95,-62.25 1712.36,-48.05 1746.65,-36.5"/>
<polygon fill="blue" stroke="blue" points="1748.08,-39.71 1756.41,-33.17 1745.82,-33.09 1748.08,-39.71"/>
<text text-anchor="middle" x="1735.94" y="-57.8" font-family="Times,serif" font-size="14.00">has attribute</text>
</g>
<!-- named thing_category -->
<g id="node12" class="node">
<title>named thing_category</title>
<ellipse fill="none" stroke="blue" cx="1104.94" cy="-105" rx="74.99" ry="18"/>
<text text-anchor="middle" x="1104.94" y="-101.3" font-family="Times,serif" font-size="14.00">category type</text>
</g>
<!-- organismal entity_has attribute -->
<g id="node16" class="node">
<title>organismal entity_has attribute</title>
<ellipse fill="none" stroke="blue" cx="1249.94" cy="-105" rx="51.99" ry="18"/>
<text text-anchor="middle" x="1249.94" y="-101.3" font-family="Times,serif" font-size="14.00">attribute</text>
</g>
</g>
</svg>
