<?xml version="1.0" encoding="UTF-8" standalone="no"?>
<!DOCTYPE svg PUBLIC "-//W3C//DTD SVG 1.1//EN"
 "http://www.w3.org/Graphics/SVG/1.1/DTD/svg11.dtd">
<!-- Generated by graphviz version 2.44.1 (20200629.0846)
 -->
<!-- Pages: 1 -->
<svg width="1057pt" height="131pt"
 viewBox="0.00 0.00 1056.74 131.00" xmlns="http://www.w3.org/2000/svg" xmlns:xlink="http://www.w3.org/1999/xlink">
<g id="graph0" class="graph" transform="scale(1 1) rotate(0) translate(4 127)">
<polygon fill="white" stroke="transparent" points="-4,4 -4,-127 1052.74,-127 1052.74,4 -4,4"/>
<!-- cell line -->
<g id="node1" class="node">
<title>cell line</title>
<ellipse fill="none" stroke="black" cx="517.79" cy="-105" rx="38.99" ry="18"/>
<text text-anchor="middle" x="517.79" y="-101.3" font-family="Times,serif" font-size="14.00">cell line</text>
</g>
<!-- organismal entity -->
<g id="node2" class="node">
<title>organismal entity</title>
<ellipse fill="none" stroke="black" cx="72.79" cy="-18" rx="72.59" ry="18"/>
<text text-anchor="middle" x="72.79" y="-14.3" font-family="Times,serif" font-size="14.00">organismal entity</text>
</g>
<!-- cell line&#45;&gt;organismal entity -->
<g id="edge1" class="edge">
<title>cell line&#45;&gt;organismal entity</title>
<path fill="none" stroke="black" d="M480.19,-99.98C431.41,-94.47 343.81,-83.57 269.79,-69 221.6,-59.51 167.57,-45.56 128.3,-34.8"/>
<polygon fill="black" stroke="black" points="129.22,-31.42 118.65,-32.14 127.36,-38.17 129.22,-31.42"/>
<text text-anchor="middle" x="280.79" y="-57.8" font-family="Times,serif" font-size="14.00">is_a</text>
</g>
<!-- id -->
<g id="node3" class="node">
<title>id</title>
<ellipse fill="none" stroke="blue" cx="193.79" cy="-18" rx="30.59" ry="18"/>
<text text-anchor="middle" x="193.79" y="-14.3" font-family="Times,serif" font-size="14.00">string</text>
</g>
<!-- cell line&#45;&gt;id -->
<g id="edge2" class="edge">
<title>cell line&#45;&gt;id</title>
<path fill="none" stroke="blue" d="M481.75,-97.65C427.22,-87.54 320.85,-65.82 233.79,-36 231.42,-35.19 228.99,-34.3 226.55,-33.37"/>
<polygon fill="blue" stroke="blue" points="227.85,-30.12 217.26,-29.64 225.24,-36.61 227.85,-30.12"/>
<text text-anchor="middle" x="347.29" y="-57.8" font-family="Times,serif" font-size="14.00">id</text>
</g>
<!-- iri -->
<g id="node4" class="node">
<title>iri</title>
<ellipse fill="none" stroke="blue" cx="278.79" cy="-18" rx="36.29" ry="18"/>
<text text-anchor="middle" x="278.79" y="-14.3" font-family="Times,serif" font-size="14.00">iri type</text>
</g>
<!-- cell line&#45;&gt;iri -->
<g id="edge3" class="edge">
<title>cell line&#45;&gt;iri</title>
<path fill="none" stroke="blue" d="M487.09,-93.75C466.58,-86.86 439.03,-77.51 414.79,-69 374.2,-54.75 364.14,-50.94 323.79,-36 321.39,-35.11 318.93,-34.19 316.44,-33.26"/>
<polygon fill="blue" stroke="blue" points="317.45,-29.9 306.86,-29.67 314.99,-36.46 317.45,-29.9"/>
<text text-anchor="middle" x="421.29" y="-57.8" font-family="Times,serif" font-size="14.00">iri</text>
</g>
<!-- type -->
<g id="node5" class="node">
<title>type</title>
<ellipse fill="none" stroke="blue" cx="363.79" cy="-18" rx="30.59" ry="18"/>
<text text-anchor="middle" x="363.79" y="-14.3" font-family="Times,serif" font-size="14.00">string</text>
</g>
<!-- cell line&#45;&gt;type -->
<g id="edge4" class="edge">
<title>cell line&#45;&gt;type</title>
<path fill="none" stroke="blue" d="M493.73,-90.72C467.01,-75.97 423.82,-52.13 394.64,-36.02"/>
<polygon fill="blue" stroke="blue" points="396.14,-32.86 385.69,-31.09 392.76,-38.98 396.14,-32.86"/>
<text text-anchor="middle" x="462.79" y="-57.8" font-family="Times,serif" font-size="14.00">type</text>
</g>
<!-- name -->
<g id="node6" class="node">
<title>name</title>
<ellipse fill="none" stroke="blue" cx="457.79" cy="-18" rx="45.49" ry="18"/>
<text text-anchor="middle" x="457.79" y="-14.3" font-family="Times,serif" font-size="14.00">label type</text>
</g>
<!-- cell line&#45;&gt;name -->
<g id="edge5" class="edge">
<title>cell line&#45;&gt;name</title>
<path fill="none" stroke="blue" d="M506.22,-87.61C497.48,-75.23 485.33,-58.01 475.39,-43.92"/>
<polygon fill="blue" stroke="blue" points="478.16,-41.78 469.53,-35.63 472.44,-45.82 478.16,-41.78"/>
<text text-anchor="middle" x="507.29" y="-57.8" font-family="Times,serif" font-size="14.00">name</text>
</g>
<!-- description -->
<g id="node7" class="node">
<title>description</title>
<ellipse fill="none" stroke="blue" cx="578.79" cy="-18" rx="57.69" ry="18"/>
<text text-anchor="middle" x="578.79" y="-14.3" font-family="Times,serif" font-size="14.00">narrative text</text>
</g>
<!-- cell line&#45;&gt;description -->
<g id="edge6" class="edge">
<title>cell line&#45;&gt;description</title>
<path fill="none" stroke="blue" d="M529.55,-87.61C538.44,-75.23 550.8,-58.01 560.91,-43.92"/>
<polygon fill="blue" stroke="blue" points="563.87,-45.79 566.86,-35.63 558.19,-41.71 563.87,-45.79"/>
<text text-anchor="middle" x="583.29" y="-57.8" font-family="Times,serif" font-size="14.00">description</text>
</g>
<!-- source -->
<g id="node8" class="node">
<title>source</title>
<ellipse fill="none" stroke="blue" cx="699.79" cy="-18" rx="45.49" ry="18"/>
<text text-anchor="middle" x="699.79" y="-14.3" font-family="Times,serif" font-size="14.00">label type</text>
</g>
<!-- cell line&#45;&gt;source -->
<g id="edge7" class="edge">
<title>cell line&#45;&gt;source</title>
<path fill="none" stroke="blue" d="M547.74,-93.36C553.72,-91.24 559.95,-89.05 565.79,-87 588.88,-78.92 595.67,-79.43 617.79,-69 635.7,-60.56 654.63,-49.2 669.78,-39.44"/>
<polygon fill="blue" stroke="blue" points="671.78,-42.31 678.23,-33.91 667.95,-36.46 671.78,-42.31"/>
<text text-anchor="middle" x="663.79" y="-57.8" font-family="Times,serif" font-size="14.00">source</text>
</g>
<!-- provided by -->
<g id="node9" class="node">
<title>provided by</title>
<ellipse fill="none" stroke="blue" cx="792.79" cy="-18" rx="29.8" ry="18"/>
<text text-anchor="middle" x="792.79" y="-14.3" font-family="Times,serif" font-size="14.00">agent</text>
</g>
<!-- cell line&#45;&gt;provided by -->
<g id="edge8" class="edge">
<title>cell line&#45;&gt;provided by</title>
<path fill="none" stroke="blue" d="M546.71,-92.75C552.94,-90.62 559.53,-88.56 565.79,-87 618.12,-73.94 634.16,-84.58 685.79,-69 712.86,-60.83 741.81,-46.96 762.76,-35.9"/>
<polygon fill="blue" stroke="blue" points="764.64,-38.86 771.79,-31.04 761.33,-32.69 764.64,-38.86"/>
<text text-anchor="middle" x="758.79" y="-57.8" font-family="Times,serif" font-size="14.00">provided by</text>
</g>
<!-- category -->
<g id="node10" class="node">
<title>category</title>
<ellipse fill="none" stroke="black" cx="881.79" cy="-18" rx="40.89" ry="18"/>
<text text-anchor="middle" x="881.79" y="-14.3" font-family="Times,serif" font-size="14.00">category</text>
</g>
<!-- cell line&#45;&gt;category -->
<g id="edge9" class="edge">
<title>cell line&#45;&gt;category</title>
<path fill="none" stroke="blue" d="M546.12,-92.59C552.5,-90.41 559.31,-88.38 565.79,-87 666.09,-65.7 697.91,-99.53 795.79,-69 816.52,-62.53 837.63,-50.36 853.75,-39.64"/>
<polygon fill="blue" stroke="blue" points="855.88,-42.43 862.16,-33.89 851.93,-36.65 855.88,-42.43"/>
<text text-anchor="middle" x="852.29" y="-57.8" font-family="Times,serif" font-size="14.00">category</text>
</g>
<!-- has attribute -->
<g id="node12" class="node">
<title>has attribute</title>
<ellipse fill="none" stroke="black" cx="994.79" cy="-18" rx="53.89" ry="18"/>
<text text-anchor="middle" x="994.79" y="-14.3" font-family="Times,serif" font-size="14.00">has attribute</text>
</g>
<!-- cell line&#45;&gt;has attribute -->
<g id="edge10" class="edge">
<title>cell line&#45;&gt;has attribute</title>
<path fill="none" stroke="blue" d="M546.1,-92.49C552.48,-90.31 559.29,-88.31 565.79,-87 702.82,-59.39 743.81,-101.37 879.79,-69 907.59,-62.38 937.11,-49.41 959.29,-38.33"/>
<polygon fill="blue" stroke="blue" points="961,-41.39 968.31,-33.73 957.81,-35.16 961,-41.39"/>
<text text-anchor="middle" x="956.29" y="-57.8" font-family="Times,serif" font-size="14.00">has attribute</text>
</g>
<!-- named thing_category -->
<g id="node11" class="node">
<title>named thing_category</title>
<ellipse fill="none" stroke="blue" cx="629.79" cy="-105" rx="55.49" ry="18"/>
<text text-anchor="middle" x="629.79" y="-101.3" font-family="Times,serif" font-size="14.00">named thing</text>
</g>
<!-- organismal entity_has attribute -->
<g id="node13" class="node">
<title>organismal entity_has attribute</title>
<ellipse fill="none" stroke="blue" cx="743.79" cy="-105" rx="40.09" ry="18"/>
<text text-anchor="middle" x="743.79" y="-101.3" font-family="Times,serif" font-size="14.00">attribute</text>
</g>
</g>
</svg>
