<?xml version="1.0" encoding="UTF-8" standalone="no"?>
<!DOCTYPE svg PUBLIC "-//W3C//DTD SVG 1.1//EN"
 "http://www.w3.org/Graphics/SVG/1.1/DTD/svg11.dtd">
<!-- Generated by graphviz version 2.43.0 (0)
 -->
<!-- Title: %3 Pages: 1 -->
<svg width="1596pt" height="131pt"
 viewBox="0.00 0.00 1595.79 131.00" xmlns="http://www.w3.org/2000/svg" xmlns:xlink="http://www.w3.org/1999/xlink">
<g id="graph0" class="graph" transform="scale(1 1) rotate(0) translate(4 127)">
<title>%3</title>
<polygon fill="white" stroke="transparent" points="-4,4 -4,-127 1591.79,-127 1591.79,4 -4,4"/>
<!-- clinical intervention -->
<g id="node1" class="node">
<title>clinical intervention</title>
<ellipse fill="none" stroke="black" cx="812.44" cy="-105" rx="103.18" ry="18"/>
<text text-anchor="middle" x="812.44" y="-101.3" font-family="Times,serif" font-size="14.00">clinical intervention</text>
</g>
<!-- clinical entity -->
<g id="node2" class="node">
<title>clinical entity</title>
<ellipse fill="none" stroke="black" cx="73.44" cy="-18" rx="73.39" ry="18"/>
<text text-anchor="middle" x="73.44" y="-14.3" font-family="Times,serif" font-size="14.00">clinical entity</text>
</g>
<!-- clinical intervention&#45;&gt;clinical entity -->
<g id="edge1" class="edge">
<title>clinical intervention&#45;&gt;clinical entity</title>
<path fill="none" stroke="black" d="M710.2,-102.01C604.39,-98.81 434.6,-90.51 289.44,-69 234.51,-60.86 172.9,-46.01 129.58,-34.61"/>
<polygon fill="black" stroke="black" points="130.36,-31.2 119.8,-32.01 128.57,-37.96 130.36,-31.2"/>
<text text-anchor="middle" x="303.44" y="-57.8" font-family="Times,serif" font-size="14.00">is_a</text>
</g>
<!-- id -->
<g id="node3" class="node">
<title>id</title>
<ellipse fill="none" stroke="blue" cx="203.44" cy="-18" rx="38.19" ry="18"/>
<text text-anchor="middle" x="203.44" y="-14.3" font-family="Times,serif" font-size="14.00">string</text>
</g>
<!-- clinical intervention&#45;&gt;id -->
<g id="edge2" class="edge">
<title>clinical intervention&#45;&gt;id</title>
<path fill="none" stroke="blue" d="M714.84,-98.98C632.35,-93.93 511.23,-84.61 406.44,-69 336.78,-58.62 319.23,-55.13 251.44,-36 248.34,-35.12 245.14,-34.15 241.95,-33.13"/>
<polygon fill="blue" stroke="blue" points="243.03,-29.8 232.44,-29.95 240.82,-36.44 243.03,-29.8"/>
<text text-anchor="middle" x="413.44" y="-57.8" font-family="Times,serif" font-size="14.00">id</text>
</g>
<!-- iri -->
<g id="node4" class="node">
<title>iri</title>
<ellipse fill="none" stroke="blue" cx="304.44" cy="-18" rx="44.39" ry="18"/>
<text text-anchor="middle" x="304.44" y="-14.3" font-family="Times,serif" font-size="14.00">iri type</text>
</g>
<!-- clinical intervention&#45;&gt;iri -->
<g id="edge3" class="edge">
<title>clinical intervention&#45;&gt;iri</title>
<path fill="none" stroke="blue" d="M720.11,-96.91C656.63,-91.27 570.57,-82.14 495.44,-69 433.75,-58.21 418.79,-52.75 358.44,-36 354.87,-35.01 351.18,-33.94 347.48,-32.84"/>
<polygon fill="blue" stroke="blue" points="348.34,-29.44 337.75,-29.88 346.3,-36.14 348.34,-29.44"/>
<text text-anchor="middle" x="503.44" y="-57.8" font-family="Times,serif" font-size="14.00">iri</text>
</g>
<!-- type -->
<g id="node5" class="node">
<title>type</title>
<ellipse fill="none" stroke="blue" cx="405.44" cy="-18" rx="38.19" ry="18"/>
<text text-anchor="middle" x="405.44" y="-14.3" font-family="Times,serif" font-size="14.00">string</text>
</g>
<!-- clinical intervention&#45;&gt;type -->
<g id="edge4" class="edge">
<title>clinical intervention&#45;&gt;type</title>
<path fill="none" stroke="blue" d="M732.1,-93.63C688.03,-87.46 632.53,-78.91 583.44,-69 524.59,-57.12 509.86,-53.57 452.44,-36 449.68,-35.16 446.84,-34.24 444,-33.29"/>
<polygon fill="blue" stroke="blue" points="444.97,-29.93 434.37,-29.98 442.69,-36.55 444.97,-29.93"/>
<text text-anchor="middle" x="599.44" y="-57.8" font-family="Times,serif" font-size="14.00">type</text>
</g>
<!-- name -->
<g id="node6" class="node">
<title>name</title>
<ellipse fill="none" stroke="blue" cx="518.44" cy="-18" rx="56.59" ry="18"/>
<text text-anchor="middle" x="518.44" y="-14.3" font-family="Times,serif" font-size="14.00">label type</text>
</g>
<!-- clinical intervention&#45;&gt;name -->
<g id="edge5" class="edge">
<title>clinical intervention&#45;&gt;name</title>
<path fill="none" stroke="blue" d="M749.37,-90.67C722.7,-84.65 691.4,-77.08 663.44,-69 629.46,-59.18 591.7,-46.09 563.24,-35.76"/>
<polygon fill="blue" stroke="blue" points="564.17,-32.38 553.58,-32.24 561.77,-38.95 564.17,-32.38"/>
<text text-anchor="middle" x="683.44" y="-57.8" font-family="Times,serif" font-size="14.00">name</text>
</g>
<!-- description -->
<g id="node7" class="node">
<title>description</title>
<ellipse fill="none" stroke="blue" cx="668.44" cy="-18" rx="75.29" ry="18"/>
<text text-anchor="middle" x="668.44" y="-14.3" font-family="Times,serif" font-size="14.00">narrative text</text>
</g>
<!-- clinical intervention&#45;&gt;description -->
<g id="edge6" class="edge">
<title>clinical intervention&#45;&gt;description</title>
<path fill="none" stroke="blue" d="M768.5,-88.59C755.22,-83.17 740.87,-76.53 728.44,-69 715.97,-61.44 703.38,-51.41 692.98,-42.31"/>
<polygon fill="blue" stroke="blue" points="695.27,-39.66 685.49,-35.59 690.6,-44.88 695.27,-39.66"/>
<text text-anchor="middle" x="768.94" y="-57.8" font-family="Times,serif" font-size="14.00">description</text>
</g>
<!-- has attribute -->
<g id="node8" class="node">
<title>has attribute</title>
<ellipse fill="none" stroke="blue" cx="813.44" cy="-18" rx="51.99" ry="18"/>
<text text-anchor="middle" x="813.44" y="-14.3" font-family="Times,serif" font-size="14.00">attribute</text>
</g>
<!-- clinical intervention&#45;&gt;has attribute -->
<g id="edge7" class="edge">
<title>clinical intervention&#45;&gt;has attribute</title>
<path fill="none" stroke="blue" d="M812.65,-86.8C812.78,-75.16 812.97,-59.55 813.12,-46.24"/>
<polygon fill="blue" stroke="blue" points="816.62,-46.22 813.24,-36.18 809.62,-46.13 816.62,-46.22"/>
<text text-anchor="middle" x="860.44" y="-57.8" font-family="Times,serif" font-size="14.00">has attribute</text>
</g>
<!-- deprecated -->
<g id="node9" class="node">
<title>deprecated</title>
<ellipse fill="none" stroke="blue" cx="930.44" cy="-18" rx="46.59" ry="18"/>
<text text-anchor="middle" x="930.44" y="-14.3" font-family="Times,serif" font-size="14.00">boolean</text>
</g>
<!-- clinical intervention&#45;&gt;deprecated -->
<g id="edge8" class="edge">
<title>clinical intervention&#45;&gt;deprecated</title>
<path fill="none" stroke="blue" d="M872.26,-90.07C884.95,-85.02 897.51,-78.19 907.44,-69 914.2,-62.75 919.13,-54.13 922.65,-45.8"/>
<polygon fill="blue" stroke="blue" points="925.97,-46.91 926.16,-36.32 919.4,-44.48 925.97,-46.91"/>
<text text-anchor="middle" x="958.94" y="-57.8" font-family="Times,serif" font-size="14.00">deprecated</text>
</g>
<!-- provided by -->
<g id="node10" class="node">
<title>provided by</title>
<ellipse fill="none" stroke="blue" cx="1033.44" cy="-18" rx="38.19" ry="18"/>
<text text-anchor="middle" x="1033.44" y="-14.3" font-family="Times,serif" font-size="14.00">string</text>
</g>
<!-- clinical intervention&#45;&gt;provided by -->
<g id="edge9" class="edge">
<title>clinical intervention&#45;&gt;provided by</title>
<path fill="none" stroke="blue" d="M884.86,-92.15C936.76,-83.43 998.38,-72.51 1003.44,-69 1011.88,-63.16 1018.33,-54.11 1023.06,-45.3"/>
<polygon fill="blue" stroke="blue" points="1026.35,-46.54 1027.52,-36.01 1020.04,-43.51 1026.35,-46.54"/>
<text text-anchor="middle" x="1060.94" y="-57.8" font-family="Times,serif" font-size="14.00">provided by</text>
</g>
<!-- xref -->
<g id="node11" class="node">
<title>xref</title>
<ellipse fill="none" stroke="blue" cx="1147.44" cy="-18" rx="57.39" ry="18"/>
<text text-anchor="middle" x="1147.44" y="-14.3" font-family="Times,serif" font-size="14.00">uriorcurie</text>
</g>
<!-- clinical intervention&#45;&gt;xref -->
<g id="edge10" class="edge">
<title>clinical intervention&#45;&gt;xref</title>
<path fill="none" stroke="blue" d="M885.87,-92.29C898.71,-90.4 911.95,-88.56 924.44,-87 964.99,-81.93 1071.53,-88.48 1107.44,-69 1117.81,-63.38 1126.45,-53.83 1133.02,-44.57"/>
<polygon fill="blue" stroke="blue" points="1136.13,-46.21 1138.67,-35.92 1130.27,-42.38 1136.13,-46.21"/>
<text text-anchor="middle" x="1139.94" y="-57.8" font-family="Times,serif" font-size="14.00">xref</text>
</g>
<!-- full name -->
<g id="node12" class="node">
<title>full name</title>
<ellipse fill="none" stroke="blue" cx="1279.44" cy="-18" rx="56.59" ry="18"/>
<text text-anchor="middle" x="1279.44" y="-14.3" font-family="Times,serif" font-size="14.00">label type</text>
</g>
<!-- clinical intervention&#45;&gt;full name -->
<g id="edge11" class="edge">
<title>clinical intervention&#45;&gt;full name</title>
<path fill="none" stroke="blue" d="M885.24,-92.15C898.27,-90.26 911.74,-88.45 924.44,-87 1028.08,-75.17 1056.99,-93.22 1158.44,-69 1187.4,-62.09 1218.39,-49.16 1241.76,-38.19"/>
<polygon fill="blue" stroke="blue" points="1243.46,-41.26 1250.96,-33.78 1240.43,-34.94 1243.46,-41.26"/>
<text text-anchor="middle" x="1236.94" y="-57.8" font-family="Times,serif" font-size="14.00">full name</text>
</g>
<!-- synonym -->
<g id="node13" class="node">
<title>synonym</title>
<ellipse fill="none" stroke="blue" cx="1410.44" cy="-18" rx="56.59" ry="18"/>
<text text-anchor="middle" x="1410.44" y="-14.3" font-family="Times,serif" font-size="14.00">label type</text>
</g>
<!-- clinical intervention&#45;&gt;synonym -->
<g id="edge12" class="edge">
<title>clinical intervention&#45;&gt;synonym</title>
<path fill="none" stroke="blue" d="M884.31,-92.01C897.62,-90.1 911.43,-88.32 924.44,-87 1079.41,-71.29 1121.84,-100.23 1274.44,-69 1307.81,-62.17 1343.92,-48.58 1370.54,-37.29"/>
<polygon fill="blue" stroke="blue" points="1372.1,-40.43 1379.89,-33.26 1369.32,-34.01 1372.1,-40.43"/>
<text text-anchor="middle" x="1356.44" y="-57.8" font-family="Times,serif" font-size="14.00">synonym</text>
</g>
<!-- category -->
<g id="node14" class="node">
<title>category</title>
<ellipse fill="none" stroke="black" cx="1536.44" cy="-18" rx="51.19" ry="18"/>
<text text-anchor="middle" x="1536.44" y="-14.3" font-family="Times,serif" font-size="14.00">category</text>
</g>
<!-- clinical intervention&#45;&gt;category -->
<g id="edge13" class="edge">
<title>clinical intervention&#45;&gt;category</title>
<path fill="none" stroke="blue" d="M883.69,-91.96C897.19,-90.03 911.23,-88.25 924.44,-87 1131.67,-67.35 1187.89,-107.56 1392.44,-69 1428.62,-62.18 1468,-48.01 1496.41,-36.49"/>
<polygon fill="blue" stroke="blue" points="1498.08,-39.59 1505.99,-32.54 1495.41,-33.12 1498.08,-39.59"/>
<text text-anchor="middle" x="1476.94" y="-57.8" font-family="Times,serif" font-size="14.00">category</text>
</g>
<!-- named thing_category -->
<g id="node15" class="node">
<title>named thing_category</title>
<ellipse fill="none" stroke="blue" cx="1008.44" cy="-105" rx="74.99" ry="18"/>
<text text-anchor="middle" x="1008.44" y="-101.3" font-family="Times,serif" font-size="14.00">category type</text>
</g>
</g>
</svg>
