<?xml version="1.0" encoding="UTF-8" standalone="no"?>
<!DOCTYPE svg PUBLIC "-//W3C//DTD SVG 1.1//EN"
 "http://www.w3.org/Graphics/SVG/1.1/DTD/svg11.dtd">
<!-- Generated by graphviz version 2.43.0 (0)
 -->
<!-- Title: %3 Pages: 1 -->
<svg width="1882pt" height="131pt"
 viewBox="0.00 0.00 1881.94 131.00" xmlns="http://www.w3.org/2000/svg" xmlns:xlink="http://www.w3.org/1999/xlink">
<g id="graph0" class="graph" transform="scale(1 1) rotate(0) translate(4 127)">
<title>%3</title>
<polygon fill="white" stroke="transparent" points="-4,4 -4,-127 1877.94,-127 1877.94,4 -4,4"/>
<!-- clinical modifier -->
<g id="node1" class="node">
<title>clinical modifier</title>
<ellipse fill="none" stroke="black" cx="892.74" cy="-105" rx="85.29" ry="18"/>
<text text-anchor="middle" x="892.74" y="-101.3" font-family="Times,serif" font-size="14.00">clinical modifier</text>
</g>
<!-- clinical attribute -->
<g id="node2" class="node">
<title>clinical attribute</title>
<ellipse fill="none" stroke="black" cx="87.74" cy="-18" rx="87.99" ry="18"/>
<text text-anchor="middle" x="87.74" y="-14.3" font-family="Times,serif" font-size="14.00">clinical attribute</text>
</g>
<!-- clinical modifier&#45;&gt;clinical attribute -->
<g id="edge1" class="edge">
<title>clinical modifier&#45;&gt;clinical attribute</title>
<path fill="none" stroke="black" d="M807.98,-103.16C694.3,-101.05 486.39,-93.81 310.74,-69 255.04,-61.13 192.64,-46.64 148.04,-35.28"/>
<polygon fill="black" stroke="black" points="148.8,-31.86 138.24,-32.76 147.05,-38.64 148.8,-31.86"/>
<text text-anchor="middle" x="324.74" y="-57.8" font-family="Times,serif" font-size="14.00">is_a</text>
</g>
<!-- id -->
<g id="node3" class="node">
<title>id</title>
<ellipse fill="none" stroke="blue" cx="231.74" cy="-18" rx="38.19" ry="18"/>
<text text-anchor="middle" x="231.74" y="-14.3" font-family="Times,serif" font-size="14.00">string</text>
</g>
<!-- clinical modifier&#45;&gt;id -->
<g id="edge2" class="edge">
<title>clinical modifier&#45;&gt;id</title>
<path fill="none" stroke="blue" d="M808.16,-102.64C710.59,-99.98 545.61,-92.14 405.74,-69 358.47,-61.18 305.79,-44.94 270.91,-33.09"/>
<polygon fill="blue" stroke="blue" points="271.72,-29.66 261.13,-29.71 269.44,-36.28 271.72,-29.66"/>
<text text-anchor="middle" x="412.74" y="-57.8" font-family="Times,serif" font-size="14.00">id</text>
</g>
<!-- type -->
<g id="node4" class="node">
<title>type</title>
<ellipse fill="none" stroke="blue" cx="326.74" cy="-18" rx="38.19" ry="18"/>
<text text-anchor="middle" x="326.74" y="-14.3" font-family="Times,serif" font-size="14.00">string</text>
</g>
<!-- clinical modifier&#45;&gt;type -->
<g id="edge3" class="edge">
<title>clinical modifier&#45;&gt;type</title>
<path fill="none" stroke="blue" d="M808.1,-102.44C723.68,-99.59 590.66,-91.55 477.74,-69 438.08,-61.08 394.39,-45.86 364.25,-34.28"/>
<polygon fill="blue" stroke="blue" points="365.16,-30.88 354.57,-30.51 362.62,-37.4 365.16,-30.88"/>
<text text-anchor="middle" x="493.74" y="-57.8" font-family="Times,serif" font-size="14.00">type</text>
</g>
<!-- description -->
<g id="node5" class="node">
<title>description</title>
<ellipse fill="none" stroke="blue" cx="458.74" cy="-18" rx="75.29" ry="18"/>
<text text-anchor="middle" x="458.74" y="-14.3" font-family="Times,serif" font-size="14.00">narrative text</text>
</g>
<!-- clinical modifier&#45;&gt;description -->
<g id="edge4" class="edge">
<title>clinical modifier&#45;&gt;description</title>
<path fill="none" stroke="blue" d="M811.19,-99.72C724.49,-94.47 593.44,-84.34 545.74,-69 525.87,-62.61 505.54,-51.25 489.54,-40.97"/>
<polygon fill="blue" stroke="blue" points="491.4,-38 481.12,-35.41 487.54,-43.84 491.4,-38"/>
<text text-anchor="middle" x="586.24" y="-57.8" font-family="Times,serif" font-size="14.00">description</text>
</g>
<!-- has attribute -->
<g id="node6" class="node">
<title>has attribute</title>
<ellipse fill="none" stroke="blue" cx="603.74" cy="-18" rx="51.99" ry="18"/>
<text text-anchor="middle" x="603.74" y="-14.3" font-family="Times,serif" font-size="14.00">attribute</text>
</g>
<!-- clinical modifier&#45;&gt;has attribute -->
<g id="edge5" class="edge">
<title>clinical modifier&#45;&gt;has attribute</title>
<path fill="none" stroke="blue" d="M813.1,-98.45C753.09,-93.18 676.54,-83.83 648.74,-69 637.59,-63.05 627.82,-53.18 620.26,-43.78"/>
<polygon fill="blue" stroke="blue" points="623.02,-41.63 614.2,-35.75 617.43,-45.85 623.02,-41.63"/>
<text text-anchor="middle" x="695.74" y="-57.8" font-family="Times,serif" font-size="14.00">has attribute</text>
</g>
<!-- provided by -->
<g id="node7" class="node">
<title>provided by</title>
<ellipse fill="none" stroke="blue" cx="711.74" cy="-18" rx="38.19" ry="18"/>
<text text-anchor="middle" x="711.74" y="-14.3" font-family="Times,serif" font-size="14.00">string</text>
</g>
<!-- clinical modifier&#45;&gt;provided by -->
<g id="edge6" class="edge">
<title>clinical modifier&#45;&gt;provided by</title>
<path fill="none" stroke="blue" d="M830.26,-92.75C809.25,-87.4 786.22,-79.75 766.74,-69 754.26,-62.11 742.31,-51.86 732.76,-42.42"/>
<polygon fill="blue" stroke="blue" points="735.13,-39.84 725.64,-35.12 730.11,-44.72 735.13,-39.84"/>
<text text-anchor="middle" x="809.24" y="-57.8" font-family="Times,serif" font-size="14.00">provided by</text>
</g>
<!-- xref -->
<g id="node8" class="node">
<title>xref</title>
<ellipse fill="none" stroke="blue" cx="825.74" cy="-18" rx="57.39" ry="18"/>
<text text-anchor="middle" x="825.74" y="-14.3" font-family="Times,serif" font-size="14.00">uriorcurie</text>
</g>
<!-- clinical modifier&#45;&gt;xref -->
<g id="edge7" class="edge">
<title>clinical modifier&#45;&gt;xref</title>
<path fill="none" stroke="blue" d="M879.51,-87.21C869.78,-74.87 856.4,-57.89 845.42,-43.97"/>
<polygon fill="blue" stroke="blue" points="847.89,-41.45 838.95,-35.76 842.39,-45.78 847.89,-41.45"/>
<text text-anchor="middle" x="878.24" y="-57.8" font-family="Times,serif" font-size="14.00">xref</text>
</g>
<!-- full name -->
<g id="node9" class="node">
<title>full name</title>
<ellipse fill="none" stroke="blue" cx="957.74" cy="-18" rx="56.59" ry="18"/>
<text text-anchor="middle" x="957.74" y="-14.3" font-family="Times,serif" font-size="14.00">label type</text>
</g>
<!-- clinical modifier&#45;&gt;full name -->
<g id="edge8" class="edge">
<title>clinical modifier&#45;&gt;full name</title>
<path fill="none" stroke="blue" d="M905.9,-86.8C915.36,-74.43 928.26,-57.55 938.83,-43.74"/>
<polygon fill="blue" stroke="blue" points="941.76,-45.67 945.05,-35.6 936.2,-41.41 941.76,-45.67"/>
<text text-anchor="middle" x="963.24" y="-57.8" font-family="Times,serif" font-size="14.00">full name</text>
</g>
<!-- category -->
<g id="node10" class="node">
<title>category</title>
<ellipse fill="none" stroke="black" cx="1083.74" cy="-18" rx="51.19" ry="18"/>
<text text-anchor="middle" x="1083.74" y="-14.3" font-family="Times,serif" font-size="14.00">category</text>
</g>
<!-- clinical modifier&#45;&gt;category -->
<g id="edge9" class="edge">
<title>clinical modifier&#45;&gt;category</title>
<path fill="none" stroke="blue" d="M942.84,-90.38C961.38,-84.66 982.36,-77.38 1000.74,-69 1018.78,-60.77 1037.81,-49.52 1053.08,-39.78"/>
<polygon fill="blue" stroke="blue" points="1055.12,-42.63 1061.61,-34.25 1051.31,-36.75 1055.12,-42.63"/>
<text text-anchor="middle" x="1061.24" y="-57.8" font-family="Times,serif" font-size="14.00">category</text>
</g>
<!-- name -->
<g id="node12" class="node">
<title>name</title>
<ellipse fill="none" stroke="black" cx="1189.74" cy="-18" rx="36.29" ry="18"/>
<text text-anchor="middle" x="1189.74" y="-14.3" font-family="Times,serif" font-size="14.00">name</text>
</g>
<!-- clinical modifier&#45;&gt;name -->
<g id="edge10" class="edge">
<title>clinical modifier&#45;&gt;name</title>
<path fill="none" stroke="blue" d="M954.91,-92.61C965.52,-90.7 976.45,-88.77 986.74,-87 1035.56,-78.59 1049.84,-84.95 1096.74,-69 1119.06,-61.41 1142.42,-48.83 1160.15,-38.19"/>
<polygon fill="blue" stroke="blue" points="1162.17,-41.05 1168.87,-32.84 1158.51,-35.09 1162.17,-41.05"/>
<text text-anchor="middle" x="1151.74" y="-57.8" font-family="Times,serif" font-size="14.00">name</text>
</g>
<!-- has attribute type -->
<g id="node14" class="node">
<title>has attribute type</title>
<ellipse fill="none" stroke="blue" cx="1320.74" cy="-18" rx="76.89" ry="18"/>
<text text-anchor="middle" x="1320.74" y="-14.3" font-family="Times,serif" font-size="14.00">ontology class</text>
</g>
<!-- clinical modifier&#45;&gt;has attribute type -->
<g id="edge11" class="edge">
<title>clinical modifier&#45;&gt;has attribute type</title>
<path fill="none" stroke="blue" d="M953.3,-92.28C964.4,-90.35 975.9,-88.49 986.74,-87 1070.33,-75.48 1093.28,-86.88 1175.74,-69 1209.96,-61.58 1247.28,-48.59 1275.49,-37.71"/>
<polygon fill="blue" stroke="blue" points="1277.03,-40.87 1285.07,-33.96 1274.48,-34.35 1277.03,-40.87"/>
<text text-anchor="middle" x="1293.74" y="-57.8" font-family="Times,serif" font-size="14.00">has attribute type</text>
</g>
<!-- has quantitative value -->
<g id="node15" class="node">
<title>has quantitative value</title>
<ellipse fill="none" stroke="blue" cx="1492.74" cy="-18" rx="77.19" ry="18"/>
<text text-anchor="middle" x="1492.74" y="-14.3" font-family="Times,serif" font-size="14.00">quantity value</text>
</g>
<!-- clinical modifier&#45;&gt;has quantitative value -->
<g id="edge12" class="edge">
<title>clinical modifier&#45;&gt;has quantitative value</title>
<path fill="none" stroke="blue" d="M951.99,-92.07C963.48,-90.1 975.45,-88.29 986.74,-87 1152.97,-68.07 1199.03,-103.47 1362.74,-69 1393.59,-62.51 1426.72,-49.66 1451.82,-38.62"/>
<polygon fill="blue" stroke="blue" points="1453.33,-41.78 1461.03,-34.49 1450.47,-35.39 1453.33,-41.78"/>
<text text-anchor="middle" x="1490.74" y="-57.8" font-family="Times,serif" font-size="14.00">has quantitative value</text>
</g>
<!-- has qualitative value -->
<g id="node16" class="node">
<title>has qualitative value</title>
<ellipse fill="none" stroke="blue" cx="1657.74" cy="-18" rx="69.59" ry="18"/>
<text text-anchor="middle" x="1657.74" y="-14.3" font-family="Times,serif" font-size="14.00">named thing</text>
</g>
<!-- clinical modifier&#45;&gt;has qualitative value -->
<g id="edge13" class="edge">
<title>clinical modifier&#45;&gt;has qualitative value</title>
<path fill="none" stroke="blue" d="M951.72,-91.95C963.29,-89.98 975.36,-88.2 986.74,-87 1051.75,-80.16 1512.04,-87.47 1574.74,-69 1594.17,-63.28 1613.68,-51.88 1628.89,-41.41"/>
<polygon fill="blue" stroke="blue" points="1631.21,-44.06 1637.33,-35.41 1627.15,-38.36 1631.21,-44.06"/>
<text text-anchor="middle" x="1683.24" y="-57.8" font-family="Times,serif" font-size="14.00">has qualitative value</text>
</g>
<!-- iri -->
<g id="node17" class="node">
<title>iri</title>
<ellipse fill="none" stroke="blue" cx="1829.74" cy="-18" rx="44.39" ry="18"/>
<text text-anchor="middle" x="1829.74" y="-14.3" font-family="Times,serif" font-size="14.00">iri type</text>
</g>
<!-- clinical modifier&#45;&gt;iri -->
<g id="edge14" class="edge">
<title>clinical modifier&#45;&gt;iri</title>
<path fill="none" stroke="blue" d="M951.46,-91.93C963.11,-89.95 975.28,-88.16 986.74,-87 1072.44,-78.31 1680.22,-96.8 1761.74,-69 1778.35,-63.34 1794.3,-52.03 1806.58,-41.6"/>
<polygon fill="blue" stroke="blue" points="1808.93,-44.19 1814.08,-34.94 1804.28,-38.96 1808.93,-44.19"/>
<text text-anchor="middle" x="1797.74" y="-57.8" font-family="Times,serif" font-size="14.00">iri</text>
</g>
<!-- named thing_category -->
<g id="node11" class="node">
<title>named thing_category</title>
<ellipse fill="none" stroke="blue" cx="1070.74" cy="-105" rx="74.99" ry="18"/>
<text text-anchor="middle" x="1070.74" y="-101.3" font-family="Times,serif" font-size="14.00">category type</text>
</g>
<!-- attribute_name -->
<g id="node13" class="node">
<title>attribute_name</title>
<ellipse fill="none" stroke="blue" cx="1219.74" cy="-105" rx="56.59" ry="18"/>
<text text-anchor="middle" x="1219.74" y="-101.3" font-family="Times,serif" font-size="14.00">label type</text>
</g>
</g>
</svg>
