<?xml version="1.0" encoding="UTF-8" standalone="no"?>
<!DOCTYPE svg PUBLIC "-//W3C//DTD SVG 1.1//EN"
 "http://www.w3.org/Graphics/SVG/1.1/DTD/svg11.dtd">
<!-- Generated by graphviz version 2.40.1 (20161225.0304)
 -->
<!-- Title: %3 Pages: 1 -->
<svg width="1002pt" height="131pt"
 viewBox="0.00 0.00 1002.09 131.00" xmlns="http://www.w3.org/2000/svg" xmlns:xlink="http://www.w3.org/1999/xlink">
<g id="graph0" class="graph" transform="scale(1 1) rotate(0) translate(4 127)">
<title>%3</title>
<polygon fill="#ffffff" stroke="transparent" points="-4,4 -4,-127 998.0911,-127 998.0911,4 -4,4"/>
<!-- clinical intervention -->
<g id="node1" class="node">
<title>clinical intervention</title>
<ellipse fill="none" stroke="#000000" cx="491.1448" cy="-105" rx="81.4863" ry="18"/>
<text text-anchor="middle" x="491.1448" y="-101.3" font-family="Times,serif" font-size="14.00" fill="#000000">clinical intervention</text>
</g>
<!-- clinical entity -->
<g id="node2" class="node">
<title>clinical entity</title>
<ellipse fill="none" stroke="#000000" cx="59.1448" cy="-18" rx="59.2899" ry="18"/>
<text text-anchor="middle" x="59.1448" y="-14.3" font-family="Times,serif" font-size="14.00" fill="#000000">clinical entity</text>
</g>
<!-- clinical intervention&#45;&gt;clinical entity -->
<g id="edge1" class="edge">
<title>clinical intervention&#45;&gt;clinical entity</title>
<path fill="none" stroke="#000000" d="M418.5547,-96.9136C368.886,-90.7825 301.6862,-81.3107 243.1448,-69 197.7779,-59.4598 147.0657,-45.1228 110.3877,-34.077"/>
<polygon fill="#000000" stroke="#000000" points="111.0164,-30.6103 100.4309,-31.0556 108.9837,-37.3086 111.0164,-30.6103"/>
<text text-anchor="middle" x="254.1448" y="-57.8" font-family="Times,serif" font-size="14.00" fill="#000000">is_a</text>
</g>
<!-- id -->
<g id="node3" class="node">
<title>id</title>
<ellipse fill="none" stroke="#0000ff" cx="167.1448" cy="-18" rx="30.5947" ry="18"/>
<text text-anchor="middle" x="167.1448" y="-14.3" font-family="Times,serif" font-size="14.00" fill="#000000">string</text>
</g>
<!-- clinical intervention&#45;&gt;id -->
<g id="edge2" class="edge">
<title>clinical intervention&#45;&gt;id</title>
<path fill="none" stroke="#0000ff" d="M428.6345,-93.4973C370.4016,-81.9218 281.6164,-62.0629 207.1448,-36 204.9008,-35.2147 202.6094,-34.3532 200.3153,-33.4459"/>
<polygon fill="#0000ff" stroke="#0000ff" points="201.5607,-30.1729 190.9851,-29.5349 198.8546,-36.6287 201.5607,-30.1729"/>
<text text-anchor="middle" x="320.6448" y="-57.8" font-family="Times,serif" font-size="14.00" fill="#000000">id</text>
</g>
<!-- iri -->
<g id="node4" class="node">
<title>iri</title>
<ellipse fill="none" stroke="#0000ff" cx="252.1448" cy="-18" rx="36.2938" ry="18"/>
<text text-anchor="middle" x="252.1448" y="-14.3" font-family="Times,serif" font-size="14.00" fill="#000000">iri type</text>
</g>
<!-- clinical intervention&#45;&gt;iri -->
<g id="edge3" class="edge">
<title>clinical intervention&#45;&gt;iri</title>
<path fill="none" stroke="#0000ff" d="M446.6332,-89.8064C407.1772,-76.1869 348.084,-55.4182 297.1448,-36 294.8057,-35.1083 292.4025,-34.1808 289.9818,-33.2378"/>
<polygon fill="#0000ff" stroke="#0000ff" points="291.2433,-29.9731 280.6562,-29.5672 288.6794,-36.4867 291.2433,-29.9731"/>
<text text-anchor="middle" x="394.6448" y="-57.8" font-family="Times,serif" font-size="14.00" fill="#000000">iri</text>
</g>
<!-- type -->
<g id="node5" class="node">
<title>type</title>
<ellipse fill="none" stroke="#0000ff" cx="337.1448" cy="-18" rx="30.5947" ry="18"/>
<text text-anchor="middle" x="337.1448" y="-14.3" font-family="Times,serif" font-size="14.00" fill="#000000">string</text>
</g>
<!-- clinical intervention&#45;&gt;type -->
<g id="edge4" class="edge">
<title>clinical intervention&#45;&gt;type</title>
<path fill="none" stroke="#0000ff" d="M461.452,-88.2255C434.5959,-73.0536 395.2043,-50.7999 367.9953,-35.4286"/>
<polygon fill="#0000ff" stroke="#0000ff" points="369.6989,-32.3711 359.2706,-30.4997 366.2558,-38.4658 369.6989,-32.3711"/>
<text text-anchor="middle" x="436.1448" y="-57.8" font-family="Times,serif" font-size="14.00" fill="#000000">type</text>
</g>
<!-- name -->
<g id="node6" class="node">
<title>name</title>
<ellipse fill="none" stroke="#0000ff" cx="431.1448" cy="-18" rx="45.4919" ry="18"/>
<text text-anchor="middle" x="431.1448" y="-14.3" font-family="Times,serif" font-size="14.00" fill="#000000">label type</text>
</g>
<!-- clinical intervention&#45;&gt;name -->
<g id="edge5" class="edge">
<title>clinical intervention&#45;&gt;name</title>
<path fill="none" stroke="#0000ff" d="M478.7127,-86.9735C470.1529,-74.5619 458.647,-57.8782 449.0954,-44.0284"/>
<polygon fill="#0000ff" stroke="#0000ff" points="451.7101,-41.6548 443.1514,-35.4097 445.9476,-45.6289 451.7101,-41.6548"/>
<text text-anchor="middle" x="480.6448" y="-57.8" font-family="Times,serif" font-size="14.00" fill="#000000">name</text>
</g>
<!-- description -->
<g id="node7" class="node">
<title>description</title>
<ellipse fill="none" stroke="#0000ff" cx="552.1448" cy="-18" rx="57.6901" ry="18"/>
<text text-anchor="middle" x="552.1448" y="-14.3" font-family="Times,serif" font-size="14.00" fill="#000000">narrative text</text>
</g>
<!-- clinical intervention&#45;&gt;description -->
<g id="edge6" class="edge">
<title>clinical intervention&#45;&gt;description</title>
<path fill="none" stroke="#0000ff" d="M503.784,-86.9735C512.5115,-74.5261 524.2516,-57.782 533.9789,-43.9087"/>
<polygon fill="#0000ff" stroke="#0000ff" points="536.8552,-45.9029 539.7304,-35.7057 531.1237,-41.8843 536.8552,-45.9029"/>
<text text-anchor="middle" x="556.6448" y="-57.8" font-family="Times,serif" font-size="14.00" fill="#000000">description</text>
</g>
<!-- source -->
<g id="node8" class="node">
<title>source</title>
<ellipse fill="none" stroke="#0000ff" cx="673.1448" cy="-18" rx="45.4919" ry="18"/>
<text text-anchor="middle" x="673.1448" y="-14.3" font-family="Times,serif" font-size="14.00" fill="#000000">label type</text>
</g>
<!-- clinical intervention&#45;&gt;source -->
<g id="edge7" class="edge">
<title>clinical intervention&#45;&gt;source</title>
<path fill="none" stroke="#0000ff" d="M538.2837,-90.3222C555.2681,-84.4396 574.3716,-77.1226 591.1448,-69 608.6772,-60.5097 627.1873,-49.2199 642.1756,-39.4211"/>
<polygon fill="#0000ff" stroke="#0000ff" points="644.1633,-42.3027 650.5595,-33.8565 640.2922,-36.4704 644.1633,-42.3027"/>
<text text-anchor="middle" x="635.1448" y="-57.8" font-family="Times,serif" font-size="14.00" fill="#000000">source</text>
</g>
<!-- provided by -->
<g id="node9" class="node">
<title>provided by</title>
<ellipse fill="none" stroke="#0000ff" cx="766.1448" cy="-18" rx="29.795" ry="18"/>
<text text-anchor="middle" x="766.1448" y="-14.3" font-family="Times,serif" font-size="14.00" fill="#000000">agent</text>
</g>
<!-- clinical intervention&#45;&gt;provided by -->
<g id="edge8" class="edge">
<title>clinical intervention&#45;&gt;provided by</title>
<path fill="none" stroke="#0000ff" d="M551.1037,-92.6789C594.3882,-83.6681 646.9466,-72.443 657.1448,-69 684.2166,-59.8602 713.4717,-45.9306 734.8512,-34.9373"/>
<polygon fill="#0000ff" stroke="#0000ff" points="736.544,-38.002 743.7926,-30.2749 733.3074,-31.7952 736.544,-38.002"/>
<text text-anchor="middle" x="727.1448" y="-57.8" font-family="Times,serif" font-size="14.00" fill="#000000">provided by</text>
</g>
<!-- has attribute -->
<g id="node10" class="node">
<title>has attribute</title>
<ellipse fill="none" stroke="#0000ff" cx="854.1448" cy="-18" rx="40.0939" ry="18"/>
<text text-anchor="middle" x="854.1448" y="-14.3" font-family="Times,serif" font-size="14.00" fill="#000000">attribute</text>
</g>
<!-- clinical intervention&#45;&gt;has attribute -->
<g id="edge9" class="edge">
<title>clinical intervention&#45;&gt;has attribute</title>
<path fill="none" stroke="#0000ff" d="M549.5766,-92.4378C560.0558,-90.4352 570.9002,-88.5244 581.1448,-87 661.9805,-74.9713 686.2351,-93.6818 764.1448,-69 785.3798,-62.2727 807.1646,-50.0926 823.9817,-39.3224"/>
<polygon fill="#0000ff" stroke="#0000ff" points="826.3529,-41.9516 832.7785,-33.5277 822.5021,-36.106 826.3529,-41.9516"/>
<text text-anchor="middle" x="831.6448" y="-57.8" font-family="Times,serif" font-size="14.00" fill="#000000">has attribute</text>
</g>
<!-- category -->
<g id="node11" class="node">
<title>category</title>
<ellipse fill="none" stroke="#000000" cx="953.1448" cy="-18" rx="40.8928" ry="18"/>
<text text-anchor="middle" x="953.1448" y="-14.3" font-family="Times,serif" font-size="14.00" fill="#000000">category</text>
</g>
<!-- clinical intervention&#45;&gt;category -->
<g id="edge10" class="edge">
<title>clinical intervention&#45;&gt;category</title>
<path fill="none" stroke="#0000ff" d="M549.0503,-92.2237C559.6835,-90.2187 570.7166,-88.3624 581.1448,-87 644.7293,-78.6931 807.9609,-88.1973 869.1448,-69 889.3349,-62.665 909.6789,-50.497 925.2882,-39.6352"/>
<polygon fill="#0000ff" stroke="#0000ff" points="927.3604,-42.4561 933.4419,-33.7805 923.2776,-36.7701 927.3604,-42.4561"/>
<text text-anchor="middle" x="923.6448" y="-57.8" font-family="Times,serif" font-size="14.00" fill="#000000">category</text>
</g>
<!-- named thing_category -->
<g id="node12" class="node">
<title>named thing_category</title>
<ellipse fill="none" stroke="#0000ff" cx="645.1448" cy="-105" rx="55.4913" ry="18"/>
<text text-anchor="middle" x="645.1448" y="-101.3" font-family="Times,serif" font-size="14.00" fill="#000000">named thing</text>
</g>
</g>
</svg>
