<?xml version="1.0" encoding="UTF-8" standalone="no"?>
<!DOCTYPE svg PUBLIC "-//W3C//DTD SVG 1.1//EN"
 "http://www.w3.org/Graphics/SVG/1.1/DTD/svg11.dtd">
<!-- Generated by graphviz version 2.43.0 (0)
 -->
<!-- Title: %3 Pages: 1 -->
<svg width="1588pt" height="131pt"
 viewBox="0.00 0.00 1587.89 131.00" xmlns="http://www.w3.org/2000/svg" xmlns:xlink="http://www.w3.org/1999/xlink">
<g id="graph0" class="graph" transform="scale(1 1) rotate(0) translate(4 127)">
<title>%3</title>
<polygon fill="white" stroke="transparent" points="-4,4 -4,-127 1583.89,-127 1583.89,4 -4,4"/>
<!-- clinical entity -->
<g id="node1" class="node">
<title>clinical entity</title>
<ellipse fill="none" stroke="black" cx="804.54" cy="-105" rx="73.39" ry="18"/>
<text text-anchor="middle" x="804.54" y="-101.3" font-family="Times,serif" font-size="14.00">clinical entity</text>
</g>
<!-- named thing -->
<g id="node2" class="node">
<title>named thing</title>
<ellipse fill="none" stroke="black" cx="69.54" cy="-18" rx="69.59" ry="18"/>
<text text-anchor="middle" x="69.54" y="-14.3" font-family="Times,serif" font-size="14.00">named thing</text>
</g>
<!-- clinical entity&#45;&gt;named thing -->
<g id="edge1" class="edge">
<title>clinical entity&#45;&gt;named thing</title>
<path fill="none" stroke="black" d="M731.37,-102.9C629.87,-100.51 440.83,-92.95 281.54,-69 227.36,-60.85 166.61,-45.91 124.07,-34.48"/>
<polygon fill="black" stroke="black" points="124.77,-31.04 114.2,-31.8 122.94,-37.8 124.77,-31.04"/>
<text text-anchor="middle" x="295.54" y="-57.8" font-family="Times,serif" font-size="14.00">is_a</text>
</g>
<!-- id -->
<g id="node3" class="node">
<title>id</title>
<ellipse fill="none" stroke="blue" cx="195.54" cy="-18" rx="38.19" ry="18"/>
<text text-anchor="middle" x="195.54" y="-14.3" font-family="Times,serif" font-size="14.00">string</text>
</g>
<!-- clinical entity&#45;&gt;id -->
<g id="edge2" class="edge">
<title>clinical entity&#45;&gt;id</title>
<path fill="none" stroke="blue" d="M733.09,-100.52C651.75,-95.94 515.05,-86.36 398.54,-69 328.88,-58.62 311.33,-55.13 243.54,-36 240.44,-35.12 237.24,-34.15 234.05,-33.13"/>
<polygon fill="blue" stroke="blue" points="235.13,-29.8 224.54,-29.95 232.92,-36.44 235.13,-29.8"/>
<text text-anchor="middle" x="405.54" y="-57.8" font-family="Times,serif" font-size="14.00">id</text>
</g>
<!-- iri -->
<g id="node4" class="node">
<title>iri</title>
<ellipse fill="none" stroke="blue" cx="296.54" cy="-18" rx="44.39" ry="18"/>
<text text-anchor="middle" x="296.54" y="-14.3" font-family="Times,serif" font-size="14.00">iri type</text>
</g>
<!-- clinical entity&#45;&gt;iri -->
<g id="edge3" class="edge">
<title>clinical entity&#45;&gt;iri</title>
<path fill="none" stroke="blue" d="M735.24,-98.89C670.78,-93.53 572.22,-83.81 487.54,-69 425.85,-58.21 410.89,-52.75 350.54,-36 346.97,-35.01 343.28,-33.94 339.58,-32.84"/>
<polygon fill="blue" stroke="blue" points="340.44,-29.44 329.85,-29.88 338.4,-36.14 340.44,-29.44"/>
<text text-anchor="middle" x="495.54" y="-57.8" font-family="Times,serif" font-size="14.00">iri</text>
</g>
<!-- type -->
<g id="node5" class="node">
<title>type</title>
<ellipse fill="none" stroke="blue" cx="397.54" cy="-18" rx="38.19" ry="18"/>
<text text-anchor="middle" x="397.54" y="-14.3" font-family="Times,serif" font-size="14.00">string</text>
</g>
<!-- clinical entity&#45;&gt;type -->
<g id="edge4" class="edge">
<title>clinical entity&#45;&gt;type</title>
<path fill="none" stroke="blue" d="M740.59,-95.88C694.5,-89.63 630.93,-80.18 575.54,-69 516.69,-57.12 501.96,-53.57 444.54,-36 441.78,-35.16 438.94,-34.24 436.1,-33.29"/>
<polygon fill="blue" stroke="blue" points="437.07,-29.93 426.47,-29.98 434.79,-36.55 437.07,-29.93"/>
<text text-anchor="middle" x="591.54" y="-57.8" font-family="Times,serif" font-size="14.00">type</text>
</g>
<!-- name -->
<g id="node6" class="node">
<title>name</title>
<ellipse fill="none" stroke="blue" cx="510.54" cy="-18" rx="56.59" ry="18"/>
<text text-anchor="middle" x="510.54" y="-14.3" font-family="Times,serif" font-size="14.00">label type</text>
</g>
<!-- clinical entity&#45;&gt;name -->
<g id="edge5" class="edge">
<title>clinical entity&#45;&gt;name</title>
<path fill="none" stroke="blue" d="M750.41,-92.67C721.99,-86.37 686.69,-78 655.54,-69 621.56,-59.18 583.8,-46.09 555.34,-35.76"/>
<polygon fill="blue" stroke="blue" points="556.27,-32.38 545.68,-32.24 553.87,-38.95 556.27,-32.38"/>
<text text-anchor="middle" x="675.54" y="-57.8" font-family="Times,serif" font-size="14.00">name</text>
</g>
<!-- description -->
<g id="node7" class="node">
<title>description</title>
<ellipse fill="none" stroke="blue" cx="660.54" cy="-18" rx="75.29" ry="18"/>
<text text-anchor="middle" x="660.54" y="-14.3" font-family="Times,serif" font-size="14.00">narrative text</text>
</g>
<!-- clinical entity&#45;&gt;description -->
<g id="edge6" class="edge">
<title>clinical entity&#45;&gt;description</title>
<path fill="none" stroke="blue" d="M764.03,-89.97C749.83,-84.32 734.06,-77.19 720.54,-69 708.07,-61.44 695.48,-51.41 685.08,-42.31"/>
<polygon fill="blue" stroke="blue" points="687.37,-39.66 677.59,-35.59 682.7,-44.88 687.37,-39.66"/>
<text text-anchor="middle" x="761.04" y="-57.8" font-family="Times,serif" font-size="14.00">description</text>
</g>
<!-- has attribute -->
<g id="node8" class="node">
<title>has attribute</title>
<ellipse fill="none" stroke="blue" cx="805.54" cy="-18" rx="51.99" ry="18"/>
<text text-anchor="middle" x="805.54" y="-14.3" font-family="Times,serif" font-size="14.00">attribute</text>
</g>
<!-- clinical entity&#45;&gt;has attribute -->
<g id="edge7" class="edge">
<title>clinical entity&#45;&gt;has attribute</title>
<path fill="none" stroke="blue" d="M804.75,-86.8C804.88,-75.16 805.07,-59.55 805.22,-46.24"/>
<polygon fill="blue" stroke="blue" points="808.72,-46.22 805.34,-36.18 801.72,-46.13 808.72,-46.22"/>
<text text-anchor="middle" x="852.54" y="-57.8" font-family="Times,serif" font-size="14.00">has attribute</text>
</g>
<!-- deprecated -->
<g id="node9" class="node">
<title>deprecated</title>
<ellipse fill="none" stroke="blue" cx="922.54" cy="-18" rx="46.59" ry="18"/>
<text text-anchor="middle" x="922.54" y="-14.3" font-family="Times,serif" font-size="14.00">boolean</text>
</g>
<!-- clinical entity&#45;&gt;deprecated -->
<g id="edge8" class="edge">
<title>clinical entity&#45;&gt;deprecated</title>
<path fill="none" stroke="blue" d="M857.92,-92.48C872.74,-87.25 887.93,-79.74 899.54,-69 906.3,-62.75 911.23,-54.13 914.75,-45.8"/>
<polygon fill="blue" stroke="blue" points="918.07,-46.91 918.26,-36.32 911.5,-44.48 918.07,-46.91"/>
<text text-anchor="middle" x="951.04" y="-57.8" font-family="Times,serif" font-size="14.00">deprecated</text>
</g>
<!-- provided by -->
<g id="node10" class="node">
<title>provided by</title>
<ellipse fill="none" stroke="blue" cx="1025.54" cy="-18" rx="38.19" ry="18"/>
<text text-anchor="middle" x="1025.54" y="-14.3" font-family="Times,serif" font-size="14.00">string</text>
</g>
<!-- clinical entity&#45;&gt;provided by -->
<g id="edge9" class="edge">
<title>clinical entity&#45;&gt;provided by</title>
<path fill="none" stroke="blue" d="M858.29,-92.53C867.7,-90.62 877.4,-88.7 886.54,-87 934.82,-78.01 954.94,-96.6 995.54,-69 1004.12,-63.17 1010.63,-54 1015.37,-45.1"/>
<polygon fill="blue" stroke="blue" points="1018.53,-46.6 1019.66,-36.07 1012.21,-43.6 1018.53,-46.6"/>
<text text-anchor="middle" x="1053.04" y="-57.8" font-family="Times,serif" font-size="14.00">provided by</text>
</g>
<!-- xref -->
<g id="node11" class="node">
<title>xref</title>
<ellipse fill="none" stroke="blue" cx="1139.54" cy="-18" rx="57.39" ry="18"/>
<text text-anchor="middle" x="1139.54" y="-14.3" font-family="Times,serif" font-size="14.00">uriorcurie</text>
</g>
<!-- clinical entity&#45;&gt;xref -->
<g id="edge10" class="edge">
<title>clinical entity&#45;&gt;xref</title>
<path fill="none" stroke="blue" d="M856.87,-92.18C866.69,-90.23 876.9,-88.4 886.54,-87 933.55,-80.17 1057.64,-91.36 1099.54,-69 1109.95,-63.45 1118.6,-53.91 1125.16,-44.64"/>
<polygon fill="blue" stroke="blue" points="1128.28,-46.27 1130.81,-35.98 1122.41,-42.45 1128.28,-46.27"/>
<text text-anchor="middle" x="1132.04" y="-57.8" font-family="Times,serif" font-size="14.00">xref</text>
</g>
<!-- full name -->
<g id="node12" class="node">
<title>full name</title>
<ellipse fill="none" stroke="blue" cx="1271.54" cy="-18" rx="56.59" ry="18"/>
<text text-anchor="middle" x="1271.54" y="-14.3" font-family="Times,serif" font-size="14.00">label type</text>
</g>
<!-- clinical entity&#45;&gt;full name -->
<g id="edge11" class="edge">
<title>clinical entity&#45;&gt;full name</title>
<path fill="none" stroke="blue" d="M856.41,-92.13C866.37,-90.17 876.75,-88.34 886.54,-87 1003.06,-71.03 1036.03,-95.81 1150.54,-69 1179.53,-62.21 1210.52,-49.29 1233.88,-38.28"/>
<polygon fill="blue" stroke="blue" points="1235.58,-41.34 1243.08,-33.86 1232.55,-35.03 1235.58,-41.34"/>
<text text-anchor="middle" x="1229.04" y="-57.8" font-family="Times,serif" font-size="14.00">full name</text>
</g>
<!-- synonym -->
<g id="node13" class="node">
<title>synonym</title>
<ellipse fill="none" stroke="blue" cx="1402.54" cy="-18" rx="56.59" ry="18"/>
<text text-anchor="middle" x="1402.54" y="-14.3" font-family="Times,serif" font-size="14.00">label type</text>
</g>
<!-- clinical entity&#45;&gt;synonym -->
<g id="edge12" class="edge">
<title>clinical entity&#45;&gt;synonym</title>
<path fill="none" stroke="blue" d="M855.95,-92.06C866.05,-90.07 876.59,-88.26 886.54,-87 1054.28,-65.77 1100.83,-102.56 1266.54,-69 1299.92,-62.24 1336.03,-48.65 1362.65,-37.34"/>
<polygon fill="blue" stroke="blue" points="1364.21,-40.48 1372,-33.29 1361.43,-34.05 1364.21,-40.48"/>
<text text-anchor="middle" x="1348.54" y="-57.8" font-family="Times,serif" font-size="14.00">synonym</text>
</g>
<!-- category -->
<g id="node14" class="node">
<title>category</title>
<ellipse fill="none" stroke="black" cx="1528.54" cy="-18" rx="51.19" ry="18"/>
<text text-anchor="middle" x="1528.54" y="-14.3" font-family="Times,serif" font-size="14.00">category</text>
</g>
<!-- clinical entity&#45;&gt;category -->
<g id="edge13" class="edge">
<title>clinical entity&#45;&gt;category</title>
<path fill="none" stroke="blue" d="M855.94,-91.97C866.04,-89.99 876.58,-88.2 886.54,-87 1106.42,-60.43 1166.85,-109.78 1384.54,-69 1420.73,-62.22 1460.1,-48.05 1488.52,-36.52"/>
<polygon fill="blue" stroke="blue" points="1490.18,-39.62 1498.09,-32.56 1487.51,-33.15 1490.18,-39.62"/>
<text text-anchor="middle" x="1472.04" y="-57.8" font-family="Times,serif" font-size="14.00">category</text>
</g>
<!-- named thing_category -->
<g id="node15" class="node">
<title>named thing_category</title>
<ellipse fill="none" stroke="blue" cx="970.54" cy="-105" rx="74.99" ry="18"/>
<text text-anchor="middle" x="970.54" y="-101.3" font-family="Times,serif" font-size="14.00">category type</text>
</g>
</g>
</svg>
