<?xml version="1.0" encoding="UTF-8" standalone="no"?>
<!DOCTYPE svg PUBLIC "-//W3C//DTD SVG 1.1//EN"
 "http://www.w3.org/Graphics/SVG/1.1/DTD/svg11.dtd">
<!-- Generated by graphviz version 2.40.1 (20161225.0304)
 -->
<!-- Title: %3 Pages: 1 -->
<svg width="859pt" height="131pt"
 viewBox="0.00 0.00 858.74 131.00" xmlns="http://www.w3.org/2000/svg" xmlns:xlink="http://www.w3.org/1999/xlink">
<g id="graph0" class="graph" transform="scale(1 1) rotate(0) translate(4 127)">
<title>%3</title>
<polygon fill="#ffffff" stroke="transparent" points="-4,4 -4,-127 854.7399,-127 854.7399,4 -4,4"/>
<!-- clinical course -->
<g id="node1" class="node">
<title>clinical course</title>
<ellipse fill="none" stroke="#000000" cx="428.2439" cy="-105" rx="61.99" ry="18"/>
<text text-anchor="middle" x="428.2439" y="-101.3" font-family="Times,serif" font-size="14.00" fill="#000000">clinical course</text>
</g>
<!-- clinical attribute -->
<g id="node2" class="node">
<title>clinical attribute</title>
<ellipse fill="none" stroke="#000000" cx="68.2439" cy="-18" rx="68.4888" ry="18"/>
<text text-anchor="middle" x="68.2439" y="-14.3" font-family="Times,serif" font-size="14.00" fill="#000000">clinical attribute</text>
</g>
<!-- clinical course&#45;&gt;clinical attribute -->
<g id="edge1" class="edge">
<title>clinical course&#45;&gt;clinical attribute</title>
<path fill="none" stroke="#000000" d="M372.1011,-97.3709C330.6431,-91.199 273.0125,-81.4885 223.2439,-69 187.293,-59.9787 147.6021,-46.8569 117.3851,-36.1825"/>
<polygon fill="#000000" stroke="#000000" points="118.5188,-32.8709 107.9241,-32.811 116.169,-39.4648 118.5188,-32.8709"/>
<text text-anchor="middle" x="234.2439" y="-57.8" font-family="Times,serif" font-size="14.00" fill="#000000">is_a</text>
</g>
<!-- name -->
<g id="node3" class="node">
<title>name</title>
<ellipse fill="none" stroke="#000000" cx="185.2439" cy="-18" rx="30.5947" ry="18"/>
<text text-anchor="middle" x="185.2439" y="-14.3" font-family="Times,serif" font-size="14.00" fill="#000000">name</text>
</g>
<!-- clinical course&#45;&gt;name -->
<g id="edge2" class="edge">
<title>clinical course&#45;&gt;name</title>
<path fill="none" stroke="#0000ff" d="M375.5816,-95.4144C347.1277,-89.416 311.6873,-80.607 281.2439,-69 258.1629,-60.2 233.5887,-47.0669 215.0817,-36.3318"/>
<polygon fill="#0000ff" stroke="#0000ff" points="216.6492,-33.193 206.2574,-31.1286 213.0937,-39.2228 216.6492,-33.193"/>
<text text-anchor="middle" x="296.7439" y="-57.8" font-family="Times,serif" font-size="14.00" fill="#000000">name</text>
</g>
<!-- has attribute type -->
<g id="node5" class="node">
<title>has attribute type</title>
<ellipse fill="none" stroke="#0000ff" cx="295.2439" cy="-18" rx="61.99" ry="18"/>
<text text-anchor="middle" x="295.2439" y="-14.3" font-family="Times,serif" font-size="14.00" fill="#000000">ontology class</text>
</g>
<!-- clinical course&#45;&gt;has attribute type -->
<g id="edge3" class="edge">
<title>clinical course&#45;&gt;has attribute type</title>
<path fill="none" stroke="#0000ff" d="M379.8666,-93.7443C363.0015,-88.2075 344.6984,-80.2342 330.2439,-69 321.9373,-62.5439 314.8626,-53.5602 309.2934,-44.9289"/>
<polygon fill="#0000ff" stroke="#0000ff" points="312.1921,-42.9571 304.0462,-36.1824 306.1894,-46.5582 312.1921,-42.9571"/>
<text text-anchor="middle" x="377.2439" y="-57.8" font-family="Times,serif" font-size="14.00" fill="#000000">has attribute type</text>
</g>
<!-- has quantitative value -->
<g id="node6" class="node">
<title>has quantitative value</title>
<ellipse fill="none" stroke="#0000ff" cx="436.2439" cy="-18" rx="61.1893" ry="18"/>
<text text-anchor="middle" x="436.2439" y="-14.3" font-family="Times,serif" font-size="14.00" fill="#000000">quantity value</text>
</g>
<!-- clinical course&#45;&gt;has quantitative value -->
<g id="edge4" class="edge">
<title>clinical course&#45;&gt;has quantitative value</title>
<path fill="none" stroke="#0000ff" d="M427.841,-86.5393C427.8221,-76.83 428.1027,-64.7437 429.2439,-54 429.5146,-51.4516 429.8733,-48.8146 430.2855,-46.1799"/>
<polygon fill="#0000ff" stroke="#0000ff" points="433.7511,-46.6822 432.0681,-36.2219 426.8607,-45.4486 433.7511,-46.6822"/>
<text text-anchor="middle" x="488.7439" y="-57.8" font-family="Times,serif" font-size="14.00" fill="#000000">has quantitative value</text>
</g>
<!-- has qualitative value -->
<g id="node7" class="node">
<title>has qualitative value</title>
<ellipse fill="none" stroke="#0000ff" cx="570.2439" cy="-18" rx="55.4913" ry="18"/>
<text text-anchor="middle" x="570.2439" y="-14.3" font-family="Times,serif" font-size="14.00" fill="#000000">named thing</text>
</g>
<!-- clinical course&#45;&gt;has qualitative value -->
<g id="edge5" class="edge">
<title>clinical course&#45;&gt;has qualitative value</title>
<path fill="none" stroke="#0000ff" d="M474.6796,-93.0842C505.9306,-84.7237 542.4569,-74.1529 548.2439,-69 555.0765,-62.9161 559.8664,-54.3369 563.1892,-45.9475"/>
<polygon fill="#0000ff" stroke="#0000ff" points="566.5478,-46.9416 566.4504,-36.3473 559.9198,-44.69 566.5478,-46.9416"/>
<text text-anchor="middle" x="615.2439" y="-57.8" font-family="Times,serif" font-size="14.00" fill="#000000">has qualitative value</text>
</g>
<!-- iri -->
<g id="node8" class="node">
<title>iri</title>
<ellipse fill="none" stroke="#0000ff" cx="705.2439" cy="-18" rx="36.2938" ry="18"/>
<text text-anchor="middle" x="705.2439" y="-14.3" font-family="Times,serif" font-size="14.00" fill="#000000">iri type</text>
</g>
<!-- clinical course&#45;&gt;iri -->
<g id="edge6" class="edge">
<title>clinical course&#45;&gt;iri</title>
<path fill="none" stroke="#0000ff" d="M473.1003,-92.5726C481.7282,-90.4826 490.7291,-88.5064 499.2439,-87 537.9579,-80.1509 642.155,-90.2321 675.2439,-69 683.9706,-63.4004 690.4795,-54.2879 695.1629,-45.3032"/>
<polygon fill="#0000ff" stroke="#0000ff" points="698.38,-46.6849 699.399,-36.1391 692.026,-43.7477 698.38,-46.6849"/>
<text text-anchor="middle" x="696.7439" y="-57.8" font-family="Times,serif" font-size="14.00" fill="#000000">iri</text>
</g>
<!-- source -->
<g id="node9" class="node">
<title>source</title>
<ellipse fill="none" stroke="#0000ff" cx="805.2439" cy="-18" rx="45.4919" ry="18"/>
<text text-anchor="middle" x="805.2439" y="-14.3" font-family="Times,serif" font-size="14.00" fill="#000000">label type</text>
</g>
<!-- clinical course&#45;&gt;source -->
<g id="edge7" class="edge">
<title>clinical course&#45;&gt;source</title>
<path fill="none" stroke="#0000ff" d="M473.0817,-92.4651C481.7113,-90.385 490.7176,-88.44 499.2439,-87 590.7383,-71.5479 618.1471,-94.9177 707.2439,-69 730.5092,-62.2323 754.6772,-49.7248 773.1917,-38.7903"/>
<polygon fill="#0000ff" stroke="#0000ff" points="775.0554,-41.7535 781.7978,-33.5809 771.4305,-35.7652 775.0554,-41.7535"/>
<text text-anchor="middle" x="762.2439" y="-57.8" font-family="Times,serif" font-size="14.00" fill="#000000">source</text>
</g>
<!-- attribute_name -->
<g id="node4" class="node">
<title>attribute_name</title>
<ellipse fill="none" stroke="#0000ff" cx="553.2439" cy="-105" rx="45.4919" ry="18"/>
<text text-anchor="middle" x="553.2439" y="-101.3" font-family="Times,serif" font-size="14.00" fill="#000000">label type</text>
</g>
</g>
</svg>
