<?xml version="1.0" encoding="UTF-8" standalone="no"?>
<!DOCTYPE svg PUBLIC "-//W3C//DTD SVG 1.1//EN"
 "http://www.w3.org/Graphics/SVG/1.1/DTD/svg11.dtd">
<!-- Generated by graphviz version 2.44.1 (20200629.0846)
 -->
<!-- Pages: 1 -->
<svg width="1215pt" height="131pt"
 viewBox="0.00 0.00 1214.64 131.00" xmlns="http://www.w3.org/2000/svg" xmlns:xlink="http://www.w3.org/1999/xlink">
<g id="graph0" class="graph" transform="scale(1 1) rotate(0) translate(4 127)">
<polygon fill="white" stroke="transparent" points="-4,4 -4,-127 1210.64,-127 1210.64,4 -4,4"/>
<!-- clinical finding -->
<g id="node1" class="node">
<title>clinical finding</title>
<ellipse fill="none" stroke="black" cx="586.69" cy="-105" rx="63.89" ry="18"/>
<text text-anchor="middle" x="586.69" y="-101.3" font-family="Times,serif" font-size="14.00">clinical finding</text>
</g>
<!-- phenotypic feature -->
<g id="node2" class="node">
<title>phenotypic feature</title>
<ellipse fill="none" stroke="black" cx="76.69" cy="-18" rx="76.89" ry="18"/>
<text text-anchor="middle" x="76.69" y="-14.3" font-family="Times,serif" font-size="14.00">phenotypic feature</text>
</g>
<!-- clinical finding&#45;&gt;phenotypic feature -->
<g id="edge1" class="edge">
<title>clinical finding&#45;&gt;phenotypic feature</title>
<path fill="none" stroke="black" d="M525.98,-99.33C464,-94.04 365.17,-84.12 280.69,-69 230.46,-60.01 174.17,-45.9 133.47,-34.96"/>
<polygon fill="black" stroke="black" points="134.3,-31.56 123.73,-32.33 132.47,-38.32 134.3,-31.56"/>
<text text-anchor="middle" x="291.69" y="-57.8" font-family="Times,serif" font-size="14.00">is_a</text>
</g>
<!-- id -->
<g id="node3" class="node">
<title>id</title>
<ellipse fill="none" stroke="blue" cx="201.69" cy="-18" rx="30.59" ry="18"/>
<text text-anchor="middle" x="201.69" y="-14.3" font-family="Times,serif" font-size="14.00">string</text>
</g>
<!-- clinical finding&#45;&gt;id -->
<g id="edge2" class="edge">
<title>clinical finding&#45;&gt;id</title>
<path fill="none" stroke="blue" d="M529.04,-97.32C459.55,-88.21 339.89,-69.11 241.69,-36 239.32,-35.2 236.88,-34.32 234.44,-33.39"/>
<polygon fill="blue" stroke="blue" points="235.74,-30.14 225.15,-29.68 233.14,-36.64 235.74,-30.14"/>
<text text-anchor="middle" x="369.19" y="-57.8" font-family="Times,serif" font-size="14.00">id</text>
</g>
<!-- iri -->
<g id="node4" class="node">
<title>iri</title>
<ellipse fill="none" stroke="blue" cx="286.69" cy="-18" rx="36.29" ry="18"/>
<text text-anchor="middle" x="286.69" y="-14.3" font-family="Times,serif" font-size="14.00">iri type</text>
</g>
<!-- clinical finding&#45;&gt;iri -->
<g id="edge3" class="edge">
<title>clinical finding&#45;&gt;iri</title>
<path fill="none" stroke="blue" d="M537.83,-93.31C508.88,-86.76 471.56,-77.94 438.69,-69 390.67,-55.93 378.77,-52.13 331.69,-36 329.27,-35.17 326.79,-34.3 324.29,-33.4"/>
<polygon fill="blue" stroke="blue" points="325.28,-30.03 314.68,-29.88 322.87,-36.61 325.28,-30.03"/>
<text text-anchor="middle" x="445.19" y="-57.8" font-family="Times,serif" font-size="14.00">iri</text>
</g>
<!-- type -->
<g id="node5" class="node">
<title>type</title>
<ellipse fill="none" stroke="blue" cx="371.69" cy="-18" rx="30.59" ry="18"/>
<text text-anchor="middle" x="371.69" y="-14.3" font-family="Times,serif" font-size="14.00">string</text>
</g>
<!-- clinical finding&#45;&gt;type -->
<g id="edge4" class="edge">
<title>clinical finding&#45;&gt;type</title>
<path fill="none" stroke="blue" d="M548.66,-90.36C531.24,-84.02 510.36,-76.29 491.69,-69 455.86,-55.02 447.17,-50.86 411.69,-36 409.52,-35.09 407.28,-34.15 405.03,-33.2"/>
<polygon fill="blue" stroke="blue" points="406.36,-29.96 395.79,-29.29 403.63,-36.41 406.36,-29.96"/>
<text text-anchor="middle" x="503.69" y="-57.8" font-family="Times,serif" font-size="14.00">type</text>
</g>
<!-- name -->
<g id="node6" class="node">
<title>name</title>
<ellipse fill="none" stroke="blue" cx="465.69" cy="-18" rx="45.49" ry="18"/>
<text text-anchor="middle" x="465.69" y="-14.3" font-family="Times,serif" font-size="14.00">label type</text>
</g>
<!-- clinical finding&#45;&gt;name -->
<g id="edge5" class="edge">
<title>clinical finding&#45;&gt;name</title>
<path fill="none" stroke="blue" d="M563.93,-88.01C544.56,-74.4 516.59,-54.75 495.44,-39.9"/>
<polygon fill="blue" stroke="blue" points="497.33,-36.94 487.13,-34.06 493.3,-42.67 497.33,-36.94"/>
<text text-anchor="middle" x="549.19" y="-57.8" font-family="Times,serif" font-size="14.00">name</text>
</g>
<!-- description -->
<g id="node7" class="node">
<title>description</title>
<ellipse fill="none" stroke="blue" cx="586.69" cy="-18" rx="57.69" ry="18"/>
<text text-anchor="middle" x="586.69" y="-14.3" font-family="Times,serif" font-size="14.00">narrative text</text>
</g>
<!-- clinical finding&#45;&gt;description -->
<g id="edge6" class="edge">
<title>clinical finding&#45;&gt;description</title>
<path fill="none" stroke="blue" d="M586.69,-86.8C586.69,-75.16 586.69,-59.55 586.69,-46.24"/>
<polygon fill="blue" stroke="blue" points="590.19,-46.18 586.69,-36.18 583.19,-46.18 590.19,-46.18"/>
<text text-anchor="middle" x="617.19" y="-57.8" font-family="Times,serif" font-size="14.00">description</text>
</g>
<!-- source -->
<g id="node8" class="node">
<title>source</title>
<ellipse fill="none" stroke="blue" cx="707.69" cy="-18" rx="45.49" ry="18"/>
<text text-anchor="middle" x="707.69" y="-14.3" font-family="Times,serif" font-size="14.00">label type</text>
</g>
<!-- clinical finding&#45;&gt;source -->
<g id="edge7" class="edge">
<title>clinical finding&#45;&gt;source</title>
<path fill="none" stroke="blue" d="M617.67,-89.22C628.74,-83.45 641.09,-76.43 651.69,-69 663.15,-60.97 674.84,-50.89 684.55,-41.88"/>
<polygon fill="blue" stroke="blue" points="687.02,-44.37 691.88,-34.95 682.21,-39.28 687.02,-44.37"/>
<text text-anchor="middle" x="687.69" y="-57.8" font-family="Times,serif" font-size="14.00">source</text>
</g>
<!-- provided by -->
<g id="node9" class="node">
<title>provided by</title>
<ellipse fill="none" stroke="blue" cx="800.69" cy="-18" rx="29.8" ry="18"/>
<text text-anchor="middle" x="800.69" y="-14.3" font-family="Times,serif" font-size="14.00">agent</text>
</g>
<!-- clinical finding&#45;&gt;provided by -->
<g id="edge8" class="edge">
<title>clinical finding&#45;&gt;provided by</title>
<path fill="none" stroke="blue" d="M634.56,-93.06C657.67,-87.1 685.56,-78.91 709.69,-69 731.42,-60.07 754.6,-47.28 772.13,-36.87"/>
<polygon fill="blue" stroke="blue" points="773.99,-39.84 780.74,-31.68 770.37,-33.85 773.99,-39.84"/>
<text text-anchor="middle" x="773.69" y="-57.8" font-family="Times,serif" font-size="14.00">provided by</text>
</g>
<!-- category -->
<g id="node10" class="node">
<title>category</title>
<ellipse fill="none" stroke="black" cx="889.69" cy="-18" rx="40.89" ry="18"/>
<text text-anchor="middle" x="889.69" y="-14.3" font-family="Times,serif" font-size="14.00">category</text>
</g>
<!-- clinical finding&#45;&gt;category -->
<g id="edge9" class="edge">
<title>clinical finding&#45;&gt;category</title>
<path fill="none" stroke="blue" d="M632.88,-92.44C641.74,-90.45 650.98,-88.53 659.69,-87 726.26,-75.32 747.01,-91.63 810.69,-69 829.49,-62.32 848.44,-50.53 863.07,-40.08"/>
<polygon fill="blue" stroke="blue" points="865.18,-42.88 871.15,-34.13 861.02,-37.24 865.18,-42.88"/>
<text text-anchor="middle" x="864.19" y="-57.8" font-family="Times,serif" font-size="14.00">category</text>
</g>
<!-- in taxon -->
<g id="node12" class="node">
<title>in taxon</title>
<ellipse fill="none" stroke="blue" cx="1014.69" cy="-18" rx="65.79" ry="18"/>
<text text-anchor="middle" x="1014.69" y="-14.3" font-family="Times,serif" font-size="14.00">organism taxon</text>
</g>
<!-- clinical finding&#45;&gt;in taxon -->
<g id="edge10" class="edge">
<title>clinical finding&#45;&gt;in taxon</title>
<path fill="none" stroke="blue" d="M632.05,-92.32C641.15,-90.29 650.69,-88.39 659.69,-87 761.9,-71.23 791.04,-92.76 891.69,-69 920.68,-62.16 951.74,-49.49 975.39,-38.61"/>
<polygon fill="blue" stroke="blue" points="977.15,-41.65 984.72,-34.24 974.18,-35.32 977.15,-41.65"/>
<text text-anchor="middle" x="960.19" y="-57.8" font-family="Times,serif" font-size="14.00">in taxon</text>
</g>
<!-- has attribute -->
<g id="node13" class="node">
<title>has attribute</title>
<ellipse fill="none" stroke="black" cx="1152.69" cy="-18" rx="53.89" ry="18"/>
<text text-anchor="middle" x="1152.69" y="-14.3" font-family="Times,serif" font-size="14.00">has attribute</text>
</g>
<!-- clinical finding&#45;&gt;has attribute -->
<g id="edge11" class="edge">
<title>clinical finding&#45;&gt;has attribute</title>
<path fill="none" stroke="blue" d="M632.02,-92.16C641.13,-90.14 650.68,-88.29 659.69,-87 803.78,-66.42 843.33,-94.17 986.69,-69 1028.87,-61.6 1075.44,-46.98 1108.5,-35.45"/>
<polygon fill="blue" stroke="blue" points="1110.04,-38.62 1118.3,-31.98 1107.7,-32.02 1110.04,-38.62"/>
<text text-anchor="middle" x="1081.19" y="-57.8" font-family="Times,serif" font-size="14.00">has attribute</text>
</g>
<!-- named thing_category -->
<g id="node11" class="node">
<title>named thing_category</title>
<ellipse fill="none" stroke="blue" cx="723.69" cy="-105" rx="55.49" ry="18"/>
<text text-anchor="middle" x="723.69" y="-101.3" font-family="Times,serif" font-size="14.00">named thing</text>
</g>
<!-- clinical finding_has attribute -->
<g id="node14" class="node">
<title>clinical finding_has attribute</title>
<ellipse fill="none" stroke="blue" cx="864.69" cy="-105" rx="68.49" ry="18"/>
<text text-anchor="middle" x="864.69" y="-101.3" font-family="Times,serif" font-size="14.00">clinical attribute</text>
</g>
</g>
</svg>
