<?xml version="1.0" encoding="UTF-8" standalone="no"?>
<!DOCTYPE svg PUBLIC "-//W3C//DTD SVG 1.1//EN"
 "http://www.w3.org/Graphics/SVG/1.1/DTD/svg11.dtd">
<!-- Generated by graphviz version 2.43.0 (0)
 -->
<!-- Title: %3 Pages: 1 -->
<svg width="1768pt" height="131pt"
 viewBox="0.00 0.00 1767.63 131.00" xmlns="http://www.w3.org/2000/svg" xmlns:xlink="http://www.w3.org/1999/xlink">
<g id="graph0" class="graph" transform="scale(1 1) rotate(0) translate(4 127)">
<title>%3</title>
<polygon fill="white" stroke="transparent" points="-4,4 -4,-127 1763.63,-127 1763.63,4 -4,4"/>
<!-- clinical measurement -->
<g id="node1" class="node">
<title>clinical measurement</title>
<ellipse fill="none" stroke="black" cx="826.74" cy="-105" rx="110.48" ry="18"/>
<text text-anchor="middle" x="826.74" y="-101.3" font-family="Times,serif" font-size="14.00">clinical measurement</text>
</g>
<!-- clinical attribute -->
<g id="node2" class="node">
<title>clinical attribute</title>
<ellipse fill="none" stroke="black" cx="87.74" cy="-18" rx="87.99" ry="18"/>
<text text-anchor="middle" x="87.74" y="-14.3" font-family="Times,serif" font-size="14.00">clinical attribute</text>
</g>
<!-- clinical measurement&#45;&gt;clinical attribute -->
<g id="edge1" class="edge">
<title>clinical measurement&#45;&gt;clinical attribute</title>
<path fill="none" stroke="black" d="M718.12,-101.6C612.75,-98.12 448.59,-89.63 307.74,-69 253.09,-61 191.89,-46.64 147.95,-35.36"/>
<polygon fill="black" stroke="black" points="148.56,-31.9 138,-32.78 146.8,-38.68 148.56,-31.9"/>
<text text-anchor="middle" x="321.74" y="-57.8" font-family="Times,serif" font-size="14.00">is_a</text>
</g>
<!-- id -->
<g id="node3" class="node">
<title>id</title>
<ellipse fill="none" stroke="blue" cx="231.74" cy="-18" rx="38.19" ry="18"/>
<text text-anchor="middle" x="231.74" y="-14.3" font-family="Times,serif" font-size="14.00">string</text>
</g>
<!-- clinical measurement&#45;&gt;id -->
<g id="edge2" class="edge">
<title>clinical measurement&#45;&gt;id</title>
<path fill="none" stroke="blue" d="M718.99,-100.73C632.22,-96.76 507.41,-88.04 399.74,-69 354.33,-60.97 303.81,-44.92 270.15,-33.17"/>
<polygon fill="blue" stroke="blue" points="271.29,-29.86 260.69,-29.82 268.95,-36.46 271.29,-29.86"/>
<text text-anchor="middle" x="406.74" y="-57.8" font-family="Times,serif" font-size="14.00">id</text>
</g>
<!-- type -->
<g id="node4" class="node">
<title>type</title>
<ellipse fill="none" stroke="blue" cx="326.74" cy="-18" rx="38.19" ry="18"/>
<text text-anchor="middle" x="326.74" y="-14.3" font-family="Times,serif" font-size="14.00">string</text>
</g>
<!-- clinical measurement&#45;&gt;type -->
<g id="edge3" class="edge">
<title>clinical measurement&#45;&gt;type</title>
<path fill="none" stroke="blue" d="M719.96,-100.27C648.23,-96.13 551.98,-87.4 468.74,-69 431.99,-60.88 391.65,-46.07 363.39,-34.67"/>
<polygon fill="blue" stroke="blue" points="364.5,-31.34 353.92,-30.79 361.85,-37.82 364.5,-31.34"/>
<text text-anchor="middle" x="484.74" y="-57.8" font-family="Times,serif" font-size="14.00">type</text>
</g>
<!-- description -->
<g id="node5" class="node">
<title>description</title>
<ellipse fill="none" stroke="blue" cx="458.74" cy="-18" rx="75.29" ry="18"/>
<text text-anchor="middle" x="458.74" y="-14.3" font-family="Times,serif" font-size="14.00">narrative text</text>
</g>
<!-- clinical measurement&#45;&gt;description -->
<g id="edge4" class="edge">
<title>clinical measurement&#45;&gt;description</title>
<path fill="none" stroke="blue" d="M726.72,-97.26C655.5,-91.5 566.5,-82.06 531.74,-69 515.11,-62.75 498.6,-51.94 485.51,-41.97"/>
<polygon fill="blue" stroke="blue" points="487.44,-39.04 477.43,-35.59 483.11,-44.54 487.44,-39.04"/>
<text text-anchor="middle" x="572.24" y="-57.8" font-family="Times,serif" font-size="14.00">description</text>
</g>
<!-- has attribute -->
<g id="node6" class="node">
<title>has attribute</title>
<ellipse fill="none" stroke="blue" cx="603.74" cy="-18" rx="51.99" ry="18"/>
<text text-anchor="middle" x="603.74" y="-14.3" font-family="Times,serif" font-size="14.00">attribute</text>
</g>
<!-- clinical measurement&#45;&gt;has attribute -->
<g id="edge5" class="edge">
<title>clinical measurement&#45;&gt;has attribute</title>
<path fill="none" stroke="blue" d="M732.69,-95.47C690.08,-90 645.53,-81.53 628.74,-69 620.94,-63.18 615.42,-54.25 611.58,-45.54"/>
<polygon fill="blue" stroke="blue" points="614.77,-44.07 607.94,-35.97 608.23,-46.56 614.77,-44.07"/>
<text text-anchor="middle" x="675.74" y="-57.8" font-family="Times,serif" font-size="14.00">has attribute</text>
</g>
<!-- provided by -->
<g id="node7" class="node">
<title>provided by</title>
<ellipse fill="none" stroke="blue" cx="711.74" cy="-18" rx="38.19" ry="18"/>
<text text-anchor="middle" x="711.74" y="-14.3" font-family="Times,serif" font-size="14.00">string</text>
</g>
<!-- clinical measurement&#45;&gt;provided by -->
<g id="edge6" class="edge">
<title>clinical measurement&#45;&gt;provided by</title>
<path fill="none" stroke="blue" d="M771.45,-89.34C759.39,-84.3 747.37,-77.67 737.74,-69 730.66,-62.63 725.21,-53.87 721.17,-45.46"/>
<polygon fill="blue" stroke="blue" points="724.37,-44.06 717.19,-36.27 717.95,-46.83 724.37,-44.06"/>
<text text-anchor="middle" x="780.24" y="-57.8" font-family="Times,serif" font-size="14.00">provided by</text>
</g>
<!-- xref -->
<g id="node8" class="node">
<title>xref</title>
<ellipse fill="none" stroke="blue" cx="825.74" cy="-18" rx="57.39" ry="18"/>
<text text-anchor="middle" x="825.74" y="-14.3" font-family="Times,serif" font-size="14.00">uriorcurie</text>
</g>
<!-- clinical measurement&#45;&gt;xref -->
<g id="edge7" class="edge">
<title>clinical measurement&#45;&gt;xref</title>
<path fill="none" stroke="blue" d="M826.54,-86.8C826.4,-75.16 826.22,-59.55 826.06,-46.24"/>
<polygon fill="blue" stroke="blue" points="829.56,-46.13 825.94,-36.18 822.56,-46.22 829.56,-46.13"/>
<text text-anchor="middle" x="841.24" y="-57.8" font-family="Times,serif" font-size="14.00">xref</text>
</g>
<!-- category -->
<g id="node9" class="node">
<title>category</title>
<ellipse fill="none" stroke="black" cx="952.74" cy="-18" rx="51.19" ry="18"/>
<text text-anchor="middle" x="952.74" y="-14.3" font-family="Times,serif" font-size="14.00">category</text>
</g>
<!-- clinical measurement&#45;&gt;category -->
<g id="edge8" class="edge">
<title>clinical measurement&#45;&gt;category</title>
<path fill="none" stroke="blue" d="M851.34,-87.41C871.35,-73.91 899.73,-54.76 921.38,-40.16"/>
<polygon fill="blue" stroke="blue" points="923.57,-42.9 929.91,-34.4 919.66,-37.1 923.57,-42.9"/>
<text text-anchor="middle" x="929.24" y="-57.8" font-family="Times,serif" font-size="14.00">category</text>
</g>
<!-- name -->
<g id="node11" class="node">
<title>name</title>
<ellipse fill="none" stroke="black" cx="1058.74" cy="-18" rx="36.29" ry="18"/>
<text text-anchor="middle" x="1058.74" y="-14.3" font-family="Times,serif" font-size="14.00">name</text>
</g>
<!-- clinical measurement&#45;&gt;name -->
<g id="edge9" class="edge">
<title>clinical measurement&#45;&gt;name</title>
<path fill="none" stroke="blue" d="M893.38,-90.52C916.37,-84.98 942.03,-77.77 964.74,-69 986.77,-60.49 1010.22,-48.03 1028.18,-37.67"/>
<polygon fill="blue" stroke="blue" points="1030.18,-40.55 1037.04,-32.48 1026.65,-34.51 1030.18,-40.55"/>
<text text-anchor="middle" x="1017.74" y="-57.8" font-family="Times,serif" font-size="14.00">name</text>
</g>
<!-- has quantitative value -->
<g id="node13" class="node">
<title>has quantitative value</title>
<ellipse fill="none" stroke="blue" cx="1190.74" cy="-18" rx="77.19" ry="18"/>
<text text-anchor="middle" x="1190.74" y="-14.3" font-family="Times,serif" font-size="14.00">quantity value</text>
</g>
<!-- clinical measurement&#45;&gt;has quantitative value -->
<g id="edge10" class="edge">
<title>clinical measurement&#45;&gt;has quantitative value</title>
<path fill="none" stroke="blue" d="M906.07,-92.46C956.35,-84.88 1016.5,-75.25 1041.74,-69 1076.25,-60.46 1114.22,-47.67 1143.19,-37.16"/>
<polygon fill="blue" stroke="blue" points="1144.47,-40.42 1152.66,-33.69 1142.06,-33.84 1144.47,-40.42"/>
<text text-anchor="middle" x="1171.74" y="-57.8" font-family="Times,serif" font-size="14.00">has quantitative value</text>
</g>
<!-- has qualitative value -->
<g id="node14" class="node">
<title>has qualitative value</title>
<ellipse fill="none" stroke="blue" cx="1355.74" cy="-18" rx="69.59" ry="18"/>
<text text-anchor="middle" x="1355.74" y="-14.3" font-family="Times,serif" font-size="14.00">named thing</text>
</g>
<!-- clinical measurement&#45;&gt;has qualitative value -->
<g id="edge11" class="edge">
<title>clinical measurement&#45;&gt;has qualitative value</title>
<path fill="none" stroke="blue" d="M903.76,-92.04C917.71,-90.14 932.14,-88.36 945.74,-87 1083.06,-73.23 1122.4,-104.59 1255.74,-69 1279.11,-62.76 1303.42,-50.75 1322.22,-40.06"/>
<polygon fill="blue" stroke="blue" points="1324.11,-43.02 1330.98,-34.96 1320.58,-36.97 1324.11,-43.02"/>
<text text-anchor="middle" x="1368.24" y="-57.8" font-family="Times,serif" font-size="14.00">has qualitative value</text>
</g>
<!-- iri -->
<g id="node15" class="node">
<title>iri</title>
<ellipse fill="none" stroke="blue" cx="1507.74" cy="-18" rx="44.39" ry="18"/>
<text text-anchor="middle" x="1507.74" y="-14.3" font-family="Times,serif" font-size="14.00">iri type</text>
</g>
<!-- clinical measurement&#45;&gt;iri -->
<g id="edge12" class="edge">
<title>clinical measurement&#45;&gt;iri</title>
<path fill="none" stroke="blue" d="M902.78,-91.91C917.03,-90 931.81,-88.24 945.74,-87 1001.22,-82.05 1394.64,-88.69 1446.74,-69 1461.59,-63.39 1475.49,-52.62 1486.26,-42.5"/>
<polygon fill="blue" stroke="blue" points="1488.86,-44.85 1493.52,-35.33 1483.95,-39.87 1488.86,-44.85"/>
<text text-anchor="middle" x="1480.74" y="-57.8" font-family="Times,serif" font-size="14.00">iri</text>
</g>
<!-- has attribute type -->
<g id="node16" class="node">
<title>has attribute type</title>
<ellipse fill="none" stroke="black" cx="1664.74" cy="-18" rx="94.78" ry="18"/>
<text text-anchor="middle" x="1664.74" y="-14.3" font-family="Times,serif" font-size="14.00">has attribute type</text>
</g>
<!-- clinical measurement&#45;&gt;has attribute type -->
<g id="edge13" class="edge">
<title>clinical measurement&#45;&gt;has attribute type</title>
<path fill="none" stroke="blue" d="M902.78,-91.88C917.02,-89.97 931.81,-88.22 945.74,-87 1188.06,-65.77 1252.53,-107.25 1492.74,-69 1534.25,-62.39 1579.87,-48.82 1613.7,-37.49"/>
<polygon fill="blue" stroke="blue" points="1615.01,-40.74 1623.35,-34.2 1612.76,-34.11 1615.01,-40.74"/>
<text text-anchor="middle" x="1620.74" y="-57.8" font-family="Times,serif" font-size="14.00">has attribute type</text>
</g>
<!-- named thing_category -->
<g id="node10" class="node">
<title>named thing_category</title>
<ellipse fill="none" stroke="blue" cx="1029.74" cy="-105" rx="74.99" ry="18"/>
<text text-anchor="middle" x="1029.74" y="-101.3" font-family="Times,serif" font-size="14.00">category type</text>
</g>
<!-- attribute_name -->
<g id="node12" class="node">
<title>attribute_name</title>
<ellipse fill="none" stroke="blue" cx="1178.74" cy="-105" rx="56.59" ry="18"/>
<text text-anchor="middle" x="1178.74" y="-101.3" font-family="Times,serif" font-size="14.00">label type</text>
</g>
<!-- clinical measurement_has attribute type -->
<g id="node17" class="node">
<title>clinical measurement_has attribute type</title>
<ellipse fill="none" stroke="blue" cx="1329.74" cy="-105" rx="76.89" ry="18"/>
<text text-anchor="middle" x="1329.74" y="-101.3" font-family="Times,serif" font-size="14.00">ontology class</text>
</g>
</g>
</svg>
