<?xml version="1.0" encoding="UTF-8" standalone="no"?>
<!DOCTYPE svg PUBLIC "-//W3C//DTD SVG 1.1//EN"
 "http://www.w3.org/Graphics/SVG/1.1/DTD/svg11.dtd">
<!-- Generated by graphviz version 2.43.0 (0)
 -->
<!-- Title: %3 Pages: 1 -->
<svg width="1497pt" height="131pt"
 viewBox="0.00 0.00 1497.28 131.00" xmlns="http://www.w3.org/2000/svg" xmlns:xlink="http://www.w3.org/1999/xlink">
<g id="graph0" class="graph" transform="scale(1 1) rotate(0) translate(4 127)">
<title>%3</title>
<polygon fill="white" stroke="transparent" points="-4,4 -4,-127 1493.28,-127 1493.28,4 -4,4"/>
<!-- clinical finding -->
<g id="node1" class="node">
<title>clinical finding</title>
<ellipse fill="none" stroke="black" cx="718.79" cy="-105" rx="78.79" ry="18"/>
<text text-anchor="middle" x="718.79" y="-101.3" font-family="Times,serif" font-size="14.00">clinical finding</text>
</g>
<!-- phenotypic feature -->
<g id="node2" class="node">
<title>phenotypic feature</title>
<ellipse fill="none" stroke="black" cx="98.79" cy="-18" rx="98.58" ry="18"/>
<text text-anchor="middle" x="98.79" y="-14.3" font-family="Times,serif" font-size="14.00">phenotypic feature</text>
</g>
<!-- clinical finding&#45;&gt;phenotypic feature -->
<g id="edge1" class="edge">
<title>clinical finding&#45;&gt;phenotypic feature</title>
<path fill="none" stroke="black" d="M644.11,-99.21C569.18,-93.86 450.61,-83.96 348.79,-69 287.13,-59.94 217.67,-45.72 167.65,-34.76"/>
<polygon fill="black" stroke="black" points="168.11,-31.28 157.59,-32.54 166.6,-38.11 168.11,-31.28"/>
<text text-anchor="middle" x="362.79" y="-57.8" font-family="Times,serif" font-size="14.00">is_a</text>
</g>
<!-- id -->
<g id="node3" class="node">
<title>id</title>
<ellipse fill="none" stroke="blue" cx="253.79" cy="-18" rx="38.19" ry="18"/>
<text text-anchor="middle" x="253.79" y="-14.3" font-family="Times,serif" font-size="14.00">string</text>
</g>
<!-- clinical finding&#45;&gt;id -->
<g id="edge2" class="edge">
<title>clinical finding&#45;&gt;id</title>
<path fill="none" stroke="blue" d="M647.25,-97.35C563.32,-88.41 420.54,-69.6 301.79,-36 298.69,-35.12 295.49,-34.15 292.29,-33.12"/>
<polygon fill="blue" stroke="blue" points="293.38,-29.8 282.79,-29.95 291.16,-36.44 293.38,-29.8"/>
<text text-anchor="middle" x="444.79" y="-57.8" font-family="Times,serif" font-size="14.00">id</text>
</g>
<!-- iri -->
<g id="node4" class="node">
<title>iri</title>
<ellipse fill="none" stroke="blue" cx="354.79" cy="-18" rx="44.39" ry="18"/>
<text text-anchor="middle" x="354.79" y="-14.3" font-family="Times,serif" font-size="14.00">iri type</text>
</g>
<!-- clinical finding&#45;&gt;iri -->
<g id="edge3" class="edge">
<title>clinical finding&#45;&gt;iri</title>
<path fill="none" stroke="blue" d="M658.08,-93.53C622.11,-87.05 575.71,-78.24 534.79,-69 478.32,-56.25 464.42,-52.03 408.79,-36 405.28,-34.99 401.65,-33.91 398.01,-32.81"/>
<polygon fill="blue" stroke="blue" points="399,-29.45 388.42,-29.86 396.95,-36.15 399,-29.45"/>
<text text-anchor="middle" x="542.79" y="-57.8" font-family="Times,serif" font-size="14.00">iri</text>
</g>
<!-- type -->
<g id="node5" class="node">
<title>type</title>
<ellipse fill="none" stroke="blue" cx="455.79" cy="-18" rx="38.19" ry="18"/>
<text text-anchor="middle" x="455.79" y="-14.3" font-family="Times,serif" font-size="14.00">string</text>
</g>
<!-- clinical finding&#45;&gt;type -->
<g id="edge4" class="edge">
<title>clinical finding&#45;&gt;type</title>
<path fill="none" stroke="blue" d="M671.46,-90.57C649.58,-84.24 623.3,-76.45 599.79,-69 556.38,-55.24 545.76,-51.08 502.79,-36 500.1,-35.06 497.33,-34.08 494.55,-33.08"/>
<polygon fill="blue" stroke="blue" points="495.69,-29.78 485.09,-29.7 493.33,-36.37 495.69,-29.78"/>
<text text-anchor="middle" x="615.79" y="-57.8" font-family="Times,serif" font-size="14.00">type</text>
</g>
<!-- name -->
<g id="node6" class="node">
<title>name</title>
<ellipse fill="none" stroke="blue" cx="568.79" cy="-18" rx="56.59" ry="18"/>
<text text-anchor="middle" x="568.79" y="-14.3" font-family="Times,serif" font-size="14.00">label type</text>
</g>
<!-- clinical finding&#45;&gt;name -->
<g id="edge5" class="edge">
<title>clinical finding&#45;&gt;name</title>
<path fill="none" stroke="blue" d="M690.58,-88.01C666.13,-74.16 630.65,-54.05 604.28,-39.11"/>
<polygon fill="blue" stroke="blue" points="605.79,-35.95 595.37,-34.06 602.34,-42.04 605.79,-35.95"/>
<text text-anchor="middle" x="672.79" y="-57.8" font-family="Times,serif" font-size="14.00">name</text>
</g>
<!-- description -->
<g id="node7" class="node">
<title>description</title>
<ellipse fill="none" stroke="blue" cx="718.79" cy="-18" rx="75.29" ry="18"/>
<text text-anchor="middle" x="718.79" y="-14.3" font-family="Times,serif" font-size="14.00">narrative text</text>
</g>
<!-- clinical finding&#45;&gt;description -->
<g id="edge6" class="edge">
<title>clinical finding&#45;&gt;description</title>
<path fill="none" stroke="blue" d="M718.79,-86.8C718.79,-75.16 718.79,-59.55 718.79,-46.24"/>
<polygon fill="blue" stroke="blue" points="722.29,-46.18 718.79,-36.18 715.29,-46.18 722.29,-46.18"/>
<text text-anchor="middle" x="759.29" y="-57.8" font-family="Times,serif" font-size="14.00">description</text>
</g>
<!-- provided by -->
<g id="node8" class="node">
<title>provided by</title>
<ellipse fill="none" stroke="blue" cx="850.79" cy="-18" rx="38.19" ry="18"/>
<text text-anchor="middle" x="850.79" y="-14.3" font-family="Times,serif" font-size="14.00">string</text>
</g>
<!-- clinical finding&#45;&gt;provided by -->
<g id="edge7" class="edge">
<title>clinical finding&#45;&gt;provided by</title>
<path fill="none" stroke="blue" d="M762.99,-89.92C776.7,-84.49 791.44,-77.51 803.79,-69 814.26,-61.78 824.17,-51.89 832.17,-42.81"/>
<polygon fill="blue" stroke="blue" points="834.88,-45.02 838.67,-35.13 829.54,-40.5 834.88,-45.02"/>
<text text-anchor="middle" x="864.29" y="-57.8" font-family="Times,serif" font-size="14.00">provided by</text>
</g>
<!-- xref -->
<g id="node9" class="node">
<title>xref</title>
<ellipse fill="none" stroke="blue" cx="964.79" cy="-18" rx="57.39" ry="18"/>
<text text-anchor="middle" x="964.79" y="-14.3" font-family="Times,serif" font-size="14.00">uriorcurie</text>
</g>
<!-- clinical finding&#45;&gt;xref -->
<g id="edge8" class="edge">
<title>clinical finding&#45;&gt;xref</title>
<path fill="none" stroke="blue" d="M776.32,-92.56C786.14,-90.67 796.25,-88.75 805.79,-87 852.36,-78.46 868.33,-89.95 910.79,-69 923.45,-62.75 935.24,-52.59 944.55,-43.05"/>
<polygon fill="blue" stroke="blue" points="947.21,-45.33 951.46,-35.62 942.09,-40.56 947.21,-45.33"/>
<text text-anchor="middle" x="947.29" y="-57.8" font-family="Times,serif" font-size="14.00">xref</text>
</g>
<!-- category -->
<g id="node10" class="node">
<title>category</title>
<ellipse fill="none" stroke="black" cx="1091.79" cy="-18" rx="51.19" ry="18"/>
<text text-anchor="middle" x="1091.79" y="-14.3" font-family="Times,serif" font-size="14.00">category</text>
</g>
<!-- clinical finding&#45;&gt;category -->
<g id="edge9" class="edge">
<title>clinical finding&#45;&gt;category</title>
<path fill="none" stroke="blue" d="M774.83,-92.36C785.11,-90.42 795.75,-88.54 805.79,-87 876.52,-76.13 896.37,-86.35 965.79,-69 996.23,-61.39 1029.13,-48.15 1053.68,-37.2"/>
<polygon fill="blue" stroke="blue" points="1055.33,-40.3 1062.99,-32.99 1052.44,-33.93 1055.33,-40.3"/>
<text text-anchor="middle" x="1044.29" y="-57.8" font-family="Times,serif" font-size="14.00">category</text>
</g>
<!-- in taxon -->
<g id="node12" class="node">
<title>in taxon</title>
<ellipse fill="none" stroke="blue" cx="1244.79" cy="-18" rx="83.39" ry="18"/>
<text text-anchor="middle" x="1244.79" y="-14.3" font-family="Times,serif" font-size="14.00">organism taxon</text>
</g>
<!-- clinical finding&#45;&gt;in taxon -->
<g id="edge10" class="edge">
<title>clinical finding&#45;&gt;in taxon</title>
<path fill="none" stroke="blue" d="M773.85,-92.14C784.41,-90.18 795.41,-88.35 805.79,-87 926.81,-71.27 959.72,-90.84 1079.79,-69 1119.42,-61.79 1162.99,-48.34 1195.39,-37.21"/>
<polygon fill="blue" stroke="blue" points="1196.78,-40.43 1205.08,-33.84 1194.48,-33.82 1196.78,-40.43"/>
<text text-anchor="middle" x="1168.79" y="-57.8" font-family="Times,serif" font-size="14.00">in taxon</text>
</g>
<!-- has attribute -->
<g id="node13" class="node">
<title>has attribute</title>
<ellipse fill="none" stroke="black" cx="1417.79" cy="-18" rx="71.49" ry="18"/>
<text text-anchor="middle" x="1417.79" y="-14.3" font-family="Times,serif" font-size="14.00">has attribute</text>
</g>
<!-- clinical finding&#45;&gt;has attribute -->
<g id="edge11" class="edge">
<title>clinical finding&#45;&gt;has attribute</title>
<path fill="none" stroke="blue" d="M773.83,-91.97C784.39,-90.03 795.4,-88.24 805.79,-87 980.72,-66.05 1027.25,-92.97 1201.79,-69 1257.16,-61.4 1319.2,-46.34 1362.54,-34.72"/>
<polygon fill="blue" stroke="blue" points="1363.57,-38.07 1372.31,-32.07 1361.74,-31.31 1363.57,-38.07"/>
<text text-anchor="middle" x="1326.79" y="-57.8" font-family="Times,serif" font-size="14.00">has attribute</text>
</g>
<!-- named thing_category -->
<g id="node11" class="node">
<title>named thing_category</title>
<ellipse fill="none" stroke="blue" cx="889.79" cy="-105" rx="74.99" ry="18"/>
<text text-anchor="middle" x="889.79" y="-101.3" font-family="Times,serif" font-size="14.00">category type</text>
</g>
<!-- clinical finding_has attribute -->
<g id="node14" class="node">
<title>clinical finding_has attribute</title>
<ellipse fill="none" stroke="blue" cx="1069.79" cy="-105" rx="87.99" ry="18"/>
<text text-anchor="middle" x="1069.79" y="-101.3" font-family="Times,serif" font-size="14.00">clinical attribute</text>
</g>
</g>
</svg>
