<?xml version="1.0" encoding="UTF-8" standalone="no"?>
<!DOCTYPE svg PUBLIC "-//W3C//DTD SVG 1.1//EN"
 "http://www.w3.org/Graphics/SVG/1.1/DTD/svg11.dtd">
<!-- Generated by graphviz version 2.43.0 (0)
 -->
<!-- Title: %3 Pages: 1 -->
<svg width="1345pt" height="131pt"
 viewBox="0.00 0.00 1344.89 131.00" xmlns="http://www.w3.org/2000/svg" xmlns:xlink="http://www.w3.org/1999/xlink">
<g id="graph0" class="graph" transform="scale(1 1) rotate(0) translate(4 127)">
<title>%3</title>
<polygon fill="white" stroke="transparent" points="-4,4 -4,-127 1340.89,-127 1340.89,4 -4,4"/>
<!-- clinical entity -->
<g id="node1" class="node">
<title>clinical entity</title>
<ellipse fill="none" stroke="black" cx="660.54" cy="-105" rx="73.39" ry="18"/>
<text text-anchor="middle" x="660.54" y="-101.3" font-family="Times,serif" font-size="14.00">clinical entity</text>
</g>
<!-- named thing -->
<g id="node2" class="node">
<title>named thing</title>
<ellipse fill="none" stroke="black" cx="69.54" cy="-18" rx="69.59" ry="18"/>
<text text-anchor="middle" x="69.54" y="-14.3" font-family="Times,serif" font-size="14.00">named thing</text>
</g>
<!-- clinical entity&#45;&gt;named thing -->
<g id="edge1" class="edge">
<title>clinical entity&#45;&gt;named thing</title>
<path fill="none" stroke="black" d="M589.96,-100.02C515.26,-95.18 394.08,-85.54 290.54,-69 234.03,-59.97 170.36,-45.05 125.94,-33.86"/>
<polygon fill="black" stroke="black" points="126.75,-30.46 116.2,-31.39 125.03,-37.24 126.75,-30.46"/>
<text text-anchor="middle" x="304.54" y="-57.8" font-family="Times,serif" font-size="14.00">is_a</text>
</g>
<!-- id -->
<g id="node3" class="node">
<title>id</title>
<ellipse fill="none" stroke="blue" cx="195.54" cy="-18" rx="38.19" ry="18"/>
<text text-anchor="middle" x="195.54" y="-14.3" font-family="Times,serif" font-size="14.00">string</text>
</g>
<!-- clinical entity&#45;&gt;id -->
<g id="edge2" class="edge">
<title>clinical entity&#45;&gt;id</title>
<path fill="none" stroke="blue" d="M593.07,-97.78C509.75,-89.02 364.24,-70.15 243.54,-36 240.44,-35.12 237.24,-34.15 234.05,-33.12"/>
<polygon fill="blue" stroke="blue" points="235.13,-29.8 224.54,-29.95 232.92,-36.44 235.13,-29.8"/>
<text text-anchor="middle" x="386.54" y="-57.8" font-family="Times,serif" font-size="14.00">id</text>
</g>
<!-- iri -->
<g id="node4" class="node">
<title>iri</title>
<ellipse fill="none" stroke="blue" cx="296.54" cy="-18" rx="44.39" ry="18"/>
<text text-anchor="middle" x="296.54" y="-14.3" font-family="Times,serif" font-size="14.00">iri type</text>
</g>
<!-- clinical entity&#45;&gt;iri -->
<g id="edge3" class="edge">
<title>clinical entity&#45;&gt;iri</title>
<path fill="none" stroke="blue" d="M602.32,-93.97C566.02,-87.46 518.41,-78.45 476.54,-69 420.08,-56.25 406.17,-52.03 350.54,-36 347.03,-34.99 343.4,-33.91 339.76,-32.81"/>
<polygon fill="blue" stroke="blue" points="340.76,-29.45 330.17,-29.86 338.7,-36.15 340.76,-29.45"/>
<text text-anchor="middle" x="484.54" y="-57.8" font-family="Times,serif" font-size="14.00">iri</text>
</g>
<!-- type -->
<g id="node5" class="node">
<title>type</title>
<ellipse fill="none" stroke="blue" cx="397.54" cy="-18" rx="38.19" ry="18"/>
<text text-anchor="middle" x="397.54" y="-14.3" font-family="Times,serif" font-size="14.00">string</text>
</g>
<!-- clinical entity&#45;&gt;type -->
<g id="edge4" class="edge">
<title>clinical entity&#45;&gt;type</title>
<path fill="none" stroke="blue" d="M614.35,-90.9C592.25,-84.51 565.46,-76.58 541.54,-69 498.14,-55.24 487.51,-51.08 444.54,-36 441.86,-35.06 439.09,-34.08 436.3,-33.08"/>
<polygon fill="blue" stroke="blue" points="437.44,-29.78 426.85,-29.7 435.08,-36.37 437.44,-29.78"/>
<text text-anchor="middle" x="557.54" y="-57.8" font-family="Times,serif" font-size="14.00">type</text>
</g>
<!-- name -->
<g id="node6" class="node">
<title>name</title>
<ellipse fill="none" stroke="blue" cx="510.54" cy="-18" rx="56.59" ry="18"/>
<text text-anchor="middle" x="510.54" y="-14.3" font-family="Times,serif" font-size="14.00">label type</text>
</g>
<!-- clinical entity&#45;&gt;name -->
<g id="edge5" class="edge">
<title>clinical entity&#45;&gt;name</title>
<path fill="none" stroke="blue" d="M632.68,-88.21C608.28,-74.38 572.68,-54.21 546.2,-39.21"/>
<polygon fill="blue" stroke="blue" points="547.67,-36.02 537.25,-34.13 544.22,-42.11 547.67,-36.02"/>
<text text-anchor="middle" x="614.54" y="-57.8" font-family="Times,serif" font-size="14.00">name</text>
</g>
<!-- description -->
<g id="node7" class="node">
<title>description</title>
<ellipse fill="none" stroke="blue" cx="660.54" cy="-18" rx="75.29" ry="18"/>
<text text-anchor="middle" x="660.54" y="-14.3" font-family="Times,serif" font-size="14.00">narrative text</text>
</g>
<!-- clinical entity&#45;&gt;description -->
<g id="edge6" class="edge">
<title>clinical entity&#45;&gt;description</title>
<path fill="none" stroke="blue" d="M660.54,-86.8C660.54,-75.16 660.54,-59.55 660.54,-46.24"/>
<polygon fill="blue" stroke="blue" points="664.04,-46.18 660.54,-36.18 657.04,-46.18 664.04,-46.18"/>
<text text-anchor="middle" x="701.04" y="-57.8" font-family="Times,serif" font-size="14.00">description</text>
</g>
<!-- has attribute -->
<g id="node8" class="node">
<title>has attribute</title>
<ellipse fill="none" stroke="blue" cx="805.54" cy="-18" rx="51.99" ry="18"/>
<text text-anchor="middle" x="805.54" y="-14.3" font-family="Times,serif" font-size="14.00">attribute</text>
</g>
<!-- clinical entity&#45;&gt;has attribute -->
<g id="edge7" class="edge">
<title>clinical entity&#45;&gt;has attribute</title>
<path fill="none" stroke="blue" d="M701.54,-90.03C715.92,-84.39 731.88,-77.24 745.54,-69 758.13,-61.41 770.81,-51.29 781.25,-42.13"/>
<polygon fill="blue" stroke="blue" points="783.67,-44.67 788.76,-35.38 778.99,-39.46 783.67,-44.67"/>
<text text-anchor="middle" x="814.54" y="-57.8" font-family="Times,serif" font-size="14.00">has attribute</text>
</g>
<!-- provided by -->
<g id="node9" class="node">
<title>provided by</title>
<ellipse fill="none" stroke="blue" cx="913.54" cy="-18" rx="38.19" ry="18"/>
<text text-anchor="middle" x="913.54" y="-14.3" font-family="Times,serif" font-size="14.00">string</text>
</g>
<!-- clinical entity&#45;&gt;provided by -->
<g id="edge8" class="edge">
<title>clinical entity&#45;&gt;provided by</title>
<path fill="none" stroke="blue" d="M713.83,-92.48C723.37,-90.55 733.24,-88.64 742.54,-87 796.95,-77.39 816.43,-94.29 865.54,-69 877.41,-62.89 888.01,-52.68 896.21,-43.08"/>
<polygon fill="blue" stroke="blue" points="898.96,-45.24 902.5,-35.26 893.51,-40.85 898.96,-45.24"/>
<text text-anchor="middle" x="928.04" y="-57.8" font-family="Times,serif" font-size="14.00">provided by</text>
</g>
<!-- xref -->
<g id="node10" class="node">
<title>xref</title>
<ellipse fill="none" stroke="blue" cx="1027.54" cy="-18" rx="57.39" ry="18"/>
<text text-anchor="middle" x="1027.54" y="-14.3" font-family="Times,serif" font-size="14.00">uriorcurie</text>
</g>
<!-- clinical entity&#45;&gt;xref -->
<g id="edge9" class="edge">
<title>clinical entity&#45;&gt;xref</title>
<path fill="none" stroke="blue" d="M712.42,-92.21C722.38,-90.24 732.76,-88.39 742.54,-87 793.74,-79.74 927.26,-89.94 974.54,-69 987.5,-63.26 999.27,-52.97 1008.41,-43.21"/>
<polygon fill="blue" stroke="blue" points="1011.14,-45.4 1015.15,-35.59 1005.9,-40.76 1011.14,-45.4"/>
<text text-anchor="middle" x="1011.04" y="-57.8" font-family="Times,serif" font-size="14.00">xref</text>
</g>
<!-- full name -->
<g id="node11" class="node">
<title>full name</title>
<ellipse fill="none" stroke="blue" cx="1159.54" cy="-18" rx="56.59" ry="18"/>
<text text-anchor="middle" x="1159.54" y="-14.3" font-family="Times,serif" font-size="14.00">label type</text>
</g>
<!-- clinical entity&#45;&gt;full name -->
<g id="edge10" class="edge">
<title>clinical entity&#45;&gt;full name</title>
<path fill="none" stroke="blue" d="M712.41,-92.09C722.37,-90.13 732.75,-88.32 742.54,-87 869.21,-69.98 904.68,-96.26 1029.54,-69 1061.18,-62.1 1095.28,-48.74 1120.62,-37.56"/>
<polygon fill="blue" stroke="blue" points="1122.19,-40.69 1129.88,-33.4 1119.32,-34.31 1122.19,-40.69"/>
<text text-anchor="middle" x="1111.04" y="-57.8" font-family="Times,serif" font-size="14.00">full name</text>
</g>
<!-- category -->
<g id="node12" class="node">
<title>category</title>
<ellipse fill="none" stroke="black" cx="1285.54" cy="-18" rx="51.19" ry="18"/>
<text text-anchor="middle" x="1285.54" y="-14.3" font-family="Times,serif" font-size="14.00">category</text>
</g>
<!-- clinical entity&#45;&gt;category -->
<g id="edge11" class="edge">
<title>clinical entity&#45;&gt;category</title>
<path fill="none" stroke="blue" d="M711.95,-92.03C722.04,-90.05 732.59,-88.24 742.54,-87 921.77,-64.6 971.42,-104.37 1148.54,-69 1182.6,-62.2 1219.49,-48.33 1246.4,-36.92"/>
<polygon fill="blue" stroke="blue" points="1248.04,-40.03 1255.84,-32.85 1245.27,-33.6 1248.04,-40.03"/>
<text text-anchor="middle" x="1230.04" y="-57.8" font-family="Times,serif" font-size="14.00">category</text>
</g>
<!-- named thing_category -->
<g id="node13" class="node">
<title>named thing_category</title>
<ellipse fill="none" stroke="blue" cx="826.54" cy="-105" rx="74.99" ry="18"/>
<text text-anchor="middle" x="826.54" y="-101.3" font-family="Times,serif" font-size="14.00">category type</text>
</g>
</g>
</svg>
