<?xml version="1.0" encoding="UTF-8" standalone="no"?>
<!DOCTYPE svg PUBLIC "-//W3C//DTD SVG 1.1//EN"
 "http://www.w3.org/Graphics/SVG/1.1/DTD/svg11.dtd">
<!-- Generated by graphviz version 2.43.0 (0)
 -->
<!-- Title: %3 Pages: 1 -->
<svg width="1592pt" height="131pt"
 viewBox="0.00 0.00 1592.28 131.00" xmlns="http://www.w3.org/2000/svg" xmlns:xlink="http://www.w3.org/1999/xlink">
<g id="graph0" class="graph" transform="scale(1 1) rotate(0) translate(4 127)">
<title>%3</title>
<polygon fill="white" stroke="transparent" points="-4,4 -4,-127 1588.28,-127 1588.28,4 -4,4"/>
<!-- clinical finding -->
<g id="node1" class="node">
<title>clinical finding</title>
<ellipse fill="none" stroke="black" cx="784.79" cy="-105" rx="78.79" ry="18"/>
<text text-anchor="middle" x="784.79" y="-101.3" font-family="Times,serif" font-size="14.00">clinical finding</text>
</g>
<!-- phenotypic feature -->
<g id="node2" class="node">
<title>phenotypic feature</title>
<ellipse fill="none" stroke="black" cx="98.79" cy="-18" rx="98.58" ry="18"/>
<text text-anchor="middle" x="98.79" y="-14.3" font-family="Times,serif" font-size="14.00">phenotypic feature</text>
</g>
<!-- clinical finding&#45;&gt;phenotypic feature -->
<g id="edge1" class="edge">
<title>clinical finding&#45;&gt;phenotypic feature</title>
<path fill="none" stroke="black" d="M708.31,-100.62C620.84,-96.11 473.48,-86.59 347.79,-69 286.1,-60.37 216.67,-46.04 166.83,-34.92"/>
<polygon fill="black" stroke="black" points="167.34,-31.45 156.82,-32.68 165.81,-38.28 167.34,-31.45"/>
<text text-anchor="middle" x="361.79" y="-57.8" font-family="Times,serif" font-size="14.00">is_a</text>
</g>
<!-- id -->
<g id="node3" class="node">
<title>id</title>
<ellipse fill="none" stroke="blue" cx="253.79" cy="-18" rx="38.19" ry="18"/>
<text text-anchor="middle" x="253.79" y="-14.3" font-family="Times,serif" font-size="14.00">string</text>
</g>
<!-- clinical finding&#45;&gt;id -->
<g id="edge2" class="edge">
<title>clinical finding&#45;&gt;id</title>
<path fill="none" stroke="blue" d="M709.49,-99.54C613.39,-92.46 442.73,-75.2 301.79,-36 298.68,-35.14 295.48,-34.17 292.29,-33.15"/>
<polygon fill="blue" stroke="blue" points="293.37,-29.83 282.78,-29.99 291.16,-36.47 293.37,-29.83"/>
<text text-anchor="middle" x="452.79" y="-57.8" font-family="Times,serif" font-size="14.00">id</text>
</g>
<!-- iri -->
<g id="node4" class="node">
<title>iri</title>
<ellipse fill="none" stroke="blue" cx="354.79" cy="-18" rx="44.39" ry="18"/>
<text text-anchor="middle" x="354.79" y="-14.3" font-family="Times,serif" font-size="14.00">iri type</text>
</g>
<!-- clinical finding&#45;&gt;iri -->
<g id="edge3" class="edge">
<title>clinical finding&#45;&gt;iri</title>
<path fill="none" stroke="blue" d="M718.02,-95.37C671.31,-89 607.55,-79.6 551.79,-69 487.71,-56.81 471.72,-53.14 408.79,-36 405.21,-35.03 401.52,-33.97 397.82,-32.88"/>
<polygon fill="blue" stroke="blue" points="398.67,-29.48 388.09,-29.93 396.64,-36.18 398.67,-29.48"/>
<text text-anchor="middle" x="559.79" y="-57.8" font-family="Times,serif" font-size="14.00">iri</text>
</g>
<!-- type -->
<g id="node5" class="node">
<title>type</title>
<ellipse fill="none" stroke="blue" cx="455.79" cy="-18" rx="38.19" ry="18"/>
<text text-anchor="middle" x="455.79" y="-14.3" font-family="Times,serif" font-size="14.00">string</text>
</g>
<!-- clinical finding&#45;&gt;type -->
<g id="edge4" class="edge">
<title>clinical finding&#45;&gt;type</title>
<path fill="none" stroke="blue" d="M727.44,-92.6C670.01,-80.62 579.4,-60.17 502.79,-36 500.04,-35.13 497.2,-34.2 494.36,-33.24"/>
<polygon fill="blue" stroke="blue" points="495.34,-29.87 484.75,-29.9 493.04,-36.49 495.34,-29.87"/>
<text text-anchor="middle" x="634.79" y="-57.8" font-family="Times,serif" font-size="14.00">type</text>
</g>
<!-- name -->
<g id="node6" class="node">
<title>name</title>
<ellipse fill="none" stroke="blue" cx="568.79" cy="-18" rx="56.59" ry="18"/>
<text text-anchor="middle" x="568.79" y="-14.3" font-family="Times,serif" font-size="14.00">label type</text>
</g>
<!-- clinical finding&#45;&gt;name -->
<g id="edge5" class="edge">
<title>clinical finding&#45;&gt;name</title>
<path fill="none" stroke="blue" d="M746.67,-89.24C730.64,-83.02 711.8,-75.68 694.79,-69 667.23,-58.17 636.33,-45.91 612.03,-36.24"/>
<polygon fill="blue" stroke="blue" points="613.31,-32.99 602.72,-32.54 610.72,-39.49 613.31,-32.99"/>
<text text-anchor="middle" x="714.79" y="-57.8" font-family="Times,serif" font-size="14.00">name</text>
</g>
<!-- description -->
<g id="node7" class="node">
<title>description</title>
<ellipse fill="none" stroke="blue" cx="718.79" cy="-18" rx="75.29" ry="18"/>
<text text-anchor="middle" x="718.79" y="-14.3" font-family="Times,serif" font-size="14.00">narrative text</text>
</g>
<!-- clinical finding&#45;&gt;description -->
<g id="edge6" class="edge">
<title>clinical finding&#45;&gt;description</title>
<path fill="none" stroke="blue" d="M765.29,-87.52C759.31,-81.97 752.95,-75.52 747.79,-69 741.97,-61.65 736.54,-53 731.98,-44.98"/>
<polygon fill="blue" stroke="blue" points="734.93,-43.08 727.07,-35.98 728.79,-46.43 734.93,-43.08"/>
<text text-anchor="middle" x="788.29" y="-57.8" font-family="Times,serif" font-size="14.00">description</text>
</g>
<!-- source -->
<g id="node8" class="node">
<title>source</title>
<ellipse fill="none" stroke="blue" cx="850.79" cy="-18" rx="38.19" ry="18"/>
<text text-anchor="middle" x="850.79" y="-14.3" font-family="Times,serif" font-size="14.00">string</text>
</g>
<!-- clinical finding&#45;&gt;source -->
<g id="edge7" class="edge">
<title>clinical finding&#45;&gt;source</title>
<path fill="none" stroke="blue" d="M809.54,-87.71C816.4,-82.35 823.43,-75.96 828.79,-69 834.22,-61.95 838.63,-53.35 842.03,-45.28"/>
<polygon fill="blue" stroke="blue" points="845.34,-46.44 845.69,-35.85 838.81,-43.91 845.34,-46.44"/>
<text text-anchor="middle" x="861.79" y="-57.8" font-family="Times,serif" font-size="14.00">source</text>
</g>
<!-- provided by -->
<g id="node9" class="node">
<title>provided by</title>
<ellipse fill="none" stroke="blue" cx="945.79" cy="-18" rx="38.19" ry="18"/>
<text text-anchor="middle" x="945.79" y="-14.3" font-family="Times,serif" font-size="14.00">string</text>
</g>
<!-- clinical finding&#45;&gt;provided by -->
<g id="edge8" class="edge">
<title>clinical finding&#45;&gt;provided by</title>
<path fill="none" stroke="blue" d="M836.52,-91.34C854.1,-85.86 873.42,-78.49 889.79,-69 902.25,-61.78 914.38,-51.48 924.15,-42.1"/>
<polygon fill="blue" stroke="blue" points="926.82,-44.39 931.44,-34.86 921.88,-39.43 926.82,-44.39"/>
<text text-anchor="middle" x="953.29" y="-57.8" font-family="Times,serif" font-size="14.00">provided by</text>
</g>
<!-- xref -->
<g id="node10" class="node">
<title>xref</title>
<ellipse fill="none" stroke="blue" cx="1059.79" cy="-18" rx="57.39" ry="18"/>
<text text-anchor="middle" x="1059.79" y="-14.3" font-family="Times,serif" font-size="14.00">uriorcurie</text>
</g>
<!-- clinical finding&#45;&gt;xref -->
<g id="edge9" class="edge">
<title>clinical finding&#45;&gt;xref</title>
<path fill="none" stroke="blue" d="M841.81,-92.41C851.78,-90.51 862.08,-88.63 871.79,-87 928.45,-77.49 947.27,-92.28 999.79,-69 1013.62,-62.87 1026.79,-52.59 1037.25,-42.94"/>
<polygon fill="blue" stroke="blue" points="1039.92,-45.22 1044.69,-35.76 1035.06,-40.18 1039.92,-45.22"/>
<text text-anchor="middle" x="1038.29" y="-57.8" font-family="Times,serif" font-size="14.00">xref</text>
</g>
<!-- category -->
<g id="node11" class="node">
<title>category</title>
<ellipse fill="none" stroke="black" cx="1186.79" cy="-18" rx="51.19" ry="18"/>
<text text-anchor="middle" x="1186.79" y="-14.3" font-family="Times,serif" font-size="14.00">category</text>
</g>
<!-- clinical finding&#45;&gt;category -->
<g id="edge10" class="edge">
<title>clinical finding&#45;&gt;category</title>
<path fill="none" stroke="blue" d="M840.82,-92.23C851.09,-90.31 861.74,-88.47 871.79,-87 953.54,-75.06 976.4,-88 1056.79,-69 1088.51,-61.5 1122.86,-48.04 1148.29,-36.97"/>
<polygon fill="blue" stroke="blue" points="1149.84,-40.11 1157.57,-32.87 1147.01,-33.71 1149.84,-40.11"/>
<text text-anchor="middle" x="1136.29" y="-57.8" font-family="Times,serif" font-size="14.00">category</text>
</g>
<!-- in taxon -->
<g id="node13" class="node">
<title>in taxon</title>
<ellipse fill="none" stroke="blue" cx="1339.79" cy="-18" rx="83.39" ry="18"/>
<text text-anchor="middle" x="1339.79" y="-14.3" font-family="Times,serif" font-size="14.00">organism taxon</text>
</g>
<!-- clinical finding&#45;&gt;in taxon -->
<g id="edge11" class="edge">
<title>clinical finding&#45;&gt;in taxon</title>
<path fill="none" stroke="blue" d="M839.84,-92.1C850.4,-90.14 861.41,-88.32 871.79,-87 1004.3,-70.15 1040.25,-92.2 1171.79,-69 1212.26,-61.86 1256.78,-48.34 1289.81,-37.16"/>
<polygon fill="blue" stroke="blue" points="1291.36,-40.33 1299.68,-33.77 1289.09,-33.71 1291.36,-40.33"/>
<text text-anchor="middle" x="1261.79" y="-57.8" font-family="Times,serif" font-size="14.00">in taxon</text>
</g>
<!-- has attribute -->
<g id="node14" class="node">
<title>has attribute</title>
<ellipse fill="none" stroke="black" cx="1512.79" cy="-18" rx="71.49" ry="18"/>
<text text-anchor="middle" x="1512.79" y="-14.3" font-family="Times,serif" font-size="14.00">has attribute</text>
</g>
<!-- clinical finding&#45;&gt;has attribute -->
<g id="edge12" class="edge">
<title>clinical finding&#45;&gt;has attribute</title>
<path fill="none" stroke="blue" d="M839.36,-92.04C850.06,-90.06 861.25,-88.25 871.79,-87 1058.66,-64.89 1108.31,-94.14 1294.79,-69 1350.84,-61.44 1413.68,-46.3 1457.44,-34.65"/>
<polygon fill="blue" stroke="blue" points="1458.56,-37.97 1467.31,-32 1456.74,-31.21 1458.56,-37.97"/>
<text text-anchor="middle" x="1420.79" y="-57.8" font-family="Times,serif" font-size="14.00">has attribute</text>
</g>
<!-- named thing_category -->
<g id="node12" class="node">
<title>named thing_category</title>
<ellipse fill="none" stroke="blue" cx="955.79" cy="-105" rx="74.99" ry="18"/>
<text text-anchor="middle" x="955.79" y="-101.3" font-family="Times,serif" font-size="14.00">category type</text>
</g>
<!-- clinical finding_has attribute -->
<g id="node15" class="node">
<title>clinical finding_has attribute</title>
<ellipse fill="none" stroke="blue" cx="1135.79" cy="-105" rx="87.99" ry="18"/>
<text text-anchor="middle" x="1135.79" y="-101.3" font-family="Times,serif" font-size="14.00">clinical attribute</text>
</g>
</g>
</svg>
