<?xml version="1.0" encoding="UTF-8" standalone="no"?>
<!DOCTYPE svg PUBLIC "-//W3C//DTD SVG 1.1//EN"
 "http://www.w3.org/Graphics/SVG/1.1/DTD/svg11.dtd">
<!-- Generated by graphviz version 2.40.1 (20161225.0304)
 -->
<!-- Title: %3 Pages: 1 -->
<svg width="1215pt" height="131pt"
 viewBox="0.00 0.00 1214.64 131.00" xmlns="http://www.w3.org/2000/svg" xmlns:xlink="http://www.w3.org/1999/xlink">
<g id="graph0" class="graph" transform="scale(1 1) rotate(0) translate(4 127)">
<title>%3</title>
<polygon fill="#ffffff" stroke="transparent" points="-4,4 -4,-127 1210.6384,-127 1210.6384,4 -4,4"/>
<!-- clinical finding -->
<g id="node1" class="node">
<title>clinical finding</title>
<ellipse fill="none" stroke="#000000" cx="586.6932" cy="-105" rx="64.189" ry="18"/>
<text text-anchor="middle" x="586.6932" y="-101.3" font-family="Times,serif" font-size="14.00" fill="#000000">clinical finding</text>
</g>
<!-- phenotypic feature -->
<g id="node2" class="node">
<title>phenotypic feature</title>
<ellipse fill="none" stroke="#000000" cx="76.6932" cy="-18" rx="76.8869" ry="18"/>
<text text-anchor="middle" x="76.6932" y="-14.3" font-family="Times,serif" font-size="14.00" fill="#000000">phenotypic feature</text>
</g>
<!-- clinical finding&#45;&gt;phenotypic feature -->
<g id="edge1" class="edge">
<title>clinical finding&#45;&gt;phenotypic feature</title>
<path fill="none" stroke="#000000" d="M524.8069,-100.059C462.7496,-94.5564 364.6175,-84.3622 280.6932,-69 231.0971,-59.9215 175.6387,-45.7946 135.079,-34.7089"/>
<polygon fill="#000000" stroke="#000000" points="135.9322,-31.3136 125.3618,-32.0334 134.0739,-38.0625 135.9322,-31.3136"/>
<text text-anchor="middle" x="291.6932" y="-57.8" font-family="Times,serif" font-size="14.00" fill="#000000">is_a</text>
</g>
<!-- id -->
<g id="node3" class="node">
<title>id</title>
<ellipse fill="none" stroke="#0000ff" cx="201.6932" cy="-18" rx="30.5947" ry="18"/>
<text text-anchor="middle" x="201.6932" y="-14.3" font-family="Times,serif" font-size="14.00" fill="#000000">string</text>
</g>
<!-- clinical finding&#45;&gt;id -->
<g id="edge2" class="edge">
<title>clinical finding&#45;&gt;id</title>
<path fill="none" stroke="#0000ff" d="M527.0784,-98.1709C457.2355,-89.0156 338.7262,-69.8581 241.6932,-36 239.4486,-35.2168 237.1565,-34.3569 234.862,-33.4507"/>
<polygon fill="#0000ff" stroke="#0000ff" points="236.1067,-30.1775 225.531,-29.5424 233.4024,-36.634 236.1067,-30.1775"/>
<text text-anchor="middle" x="359.1932" y="-57.8" font-family="Times,serif" font-size="14.00" fill="#000000">id</text>
</g>
<!-- iri -->
<g id="node4" class="node">
<title>iri</title>
<ellipse fill="none" stroke="#0000ff" cx="286.6932" cy="-18" rx="36.2938" ry="18"/>
<text text-anchor="middle" x="286.6932" y="-14.3" font-family="Times,serif" font-size="14.00" fill="#000000">iri type</text>
</g>
<!-- clinical finding&#45;&gt;iri -->
<g id="edge3" class="edge">
<title>clinical finding&#45;&gt;iri</title>
<path fill="none" stroke="#0000ff" d="M536.4786,-93.7216C507.4871,-86.9972 470.3998,-78.0321 437.6932,-69 390.1321,-55.8658 378.1909,-52.5086 331.6932,-36 329.1781,-35.107 326.5954,-34.159 324.0005,-33.1833"/>
<polygon fill="#0000ff" stroke="#0000ff" points="325.2388,-29.9097 314.6492,-29.5776 322.7204,-36.441 325.2388,-29.9097"/>
<text text-anchor="middle" x="444.1932" y="-57.8" font-family="Times,serif" font-size="14.00" fill="#000000">iri</text>
</g>
<!-- type -->
<g id="node5" class="node">
<title>type</title>
<ellipse fill="none" stroke="#0000ff" cx="371.6932" cy="-18" rx="30.5947" ry="18"/>
<text text-anchor="middle" x="371.6932" y="-14.3" font-family="Times,serif" font-size="14.00" fill="#000000">string</text>
</g>
<!-- clinical finding&#45;&gt;type -->
<g id="edge4" class="edge">
<title>clinical finding&#45;&gt;type</title>
<path fill="none" stroke="#0000ff" d="M547.7693,-90.5407C530.5416,-84.0662 510.0619,-76.2672 491.6932,-69 455.9287,-54.8506 447.0124,-51.2269 411.6932,-36 409.6477,-35.1182 407.5475,-34.2029 405.4317,-33.2732"/>
<polygon fill="#0000ff" stroke="#0000ff" points="406.7376,-30.0236 396.1776,-29.1653 403.8975,-36.4216 406.7376,-30.0236"/>
<text text-anchor="middle" x="503.6932" y="-57.8" font-family="Times,serif" font-size="14.00" fill="#000000">type</text>
</g>
<!-- name -->
<g id="node6" class="node">
<title>name</title>
<ellipse fill="none" stroke="#0000ff" cx="465.6932" cy="-18" rx="45.4919" ry="18"/>
<text text-anchor="middle" x="465.6932" y="-14.3" font-family="Times,serif" font-size="14.00" fill="#000000">label type</text>
</g>
<!-- clinical finding&#45;&gt;name -->
<g id="edge5" class="edge">
<title>clinical finding&#45;&gt;name</title>
<path fill="none" stroke="#0000ff" d="M563.0759,-88.019C543.9745,-74.2849 516.9412,-54.8477 496.2019,-39.936"/>
<polygon fill="#0000ff" stroke="#0000ff" points="498.1877,-37.053 488.0253,-34.0569 494.1012,-42.7364 498.1877,-37.053"/>
<text text-anchor="middle" x="549.1932" y="-57.8" font-family="Times,serif" font-size="14.00" fill="#000000">name</text>
</g>
<!-- description -->
<g id="node7" class="node">
<title>description</title>
<ellipse fill="none" stroke="#0000ff" cx="586.6932" cy="-18" rx="57.6901" ry="18"/>
<text text-anchor="middle" x="586.6932" y="-14.3" font-family="Times,serif" font-size="14.00" fill="#000000">narrative text</text>
</g>
<!-- clinical finding&#45;&gt;description -->
<g id="edge6" class="edge">
<title>clinical finding&#45;&gt;description</title>
<path fill="none" stroke="#0000ff" d="M586.6932,-86.9735C586.6932,-75.1918 586.6932,-59.5607 586.6932,-46.1581"/>
<polygon fill="#0000ff" stroke="#0000ff" points="590.1933,-46.0033 586.6932,-36.0034 583.1933,-46.0034 590.1933,-46.0033"/>
<text text-anchor="middle" x="617.1932" y="-57.8" font-family="Times,serif" font-size="14.00" fill="#000000">description</text>
</g>
<!-- source -->
<g id="node8" class="node">
<title>source</title>
<ellipse fill="none" stroke="#0000ff" cx="707.6932" cy="-18" rx="45.4919" ry="18"/>
<text text-anchor="middle" x="707.6932" y="-14.3" font-family="Times,serif" font-size="14.00" fill="#000000">label type</text>
</g>
<!-- clinical finding&#45;&gt;source -->
<g id="edge7" class="edge">
<title>clinical finding&#45;&gt;source</title>
<path fill="none" stroke="#0000ff" d="M618.6708,-89.2082C629.4877,-83.3711 641.4208,-76.3685 651.6932,-69 662.8225,-61.0169 674.1656,-51.0875 683.7063,-42.1171"/>
<polygon fill="#0000ff" stroke="#0000ff" points="686.1397,-44.6327 690.9328,-35.184 681.2936,-39.5814 686.1397,-44.6327"/>
<text text-anchor="middle" x="687.6932" y="-57.8" font-family="Times,serif" font-size="14.00" fill="#000000">source</text>
</g>
<!-- provided by -->
<g id="node9" class="node">
<title>provided by</title>
<ellipse fill="none" stroke="#0000ff" cx="800.6932" cy="-18" rx="29.795" ry="18"/>
<text text-anchor="middle" x="800.6932" y="-14.3" font-family="Times,serif" font-size="14.00" fill="#000000">agent</text>
</g>
<!-- clinical finding&#45;&gt;provided by -->
<g id="edge8" class="edge">
<title>clinical finding&#45;&gt;provided by</title>
<path fill="none" stroke="#0000ff" d="M636.0616,-93.2878C658.8865,-87.1832 686.1034,-78.9118 709.6932,-69 731.1626,-59.9791 754.0231,-47.1534 771.4606,-36.621"/>
<polygon fill="#0000ff" stroke="#0000ff" points="773.3537,-39.5659 780.0489,-31.3546 769.6944,-33.5985 773.3537,-39.5659"/>
<text text-anchor="middle" x="773.6932" y="-57.8" font-family="Times,serif" font-size="14.00" fill="#000000">provided by</text>
</g>
<!-- category -->
<g id="node10" class="node">
<title>category</title>
<ellipse fill="none" stroke="#000000" cx="889.6932" cy="-18" rx="40.8928" ry="18"/>
<text text-anchor="middle" x="889.6932" y="-14.3" font-family="Times,serif" font-size="14.00" fill="#000000">category</text>
</g>
<!-- clinical finding&#45;&gt;category -->
<g id="edge9" class="edge">
<title>clinical finding&#45;&gt;category</title>
<path fill="none" stroke="#0000ff" d="M633.8862,-92.6328C642.7532,-90.5621 651.9761,-88.5774 660.6932,-87 726.7651,-75.0439 747.5353,-91.793 810.6932,-69 829.3059,-62.2829 848.0036,-50.4933 862.5332,-39.9405"/>
<polygon fill="#0000ff" stroke="#0000ff" points="864.6685,-42.714 870.5741,-33.9177 860.4721,-37.1113 864.6685,-42.714"/>
<text text-anchor="middle" x="865.1932" y="-57.8" font-family="Times,serif" font-size="14.00" fill="#000000">category</text>
</g>
<!-- in taxon -->
<g id="node12" class="node">
<title>in taxon</title>
<ellipse fill="none" stroke="#0000ff" cx="1014.6932" cy="-18" rx="65.7887" ry="18"/>
<text text-anchor="middle" x="1014.6932" y="-14.3" font-family="Times,serif" font-size="14.00" fill="#000000">organism taxon</text>
</g>
<!-- clinical finding&#45;&gt;in taxon -->
<g id="edge10" class="edge">
<title>clinical finding&#45;&gt;in taxon</title>
<path fill="none" stroke="#0000ff" d="M633.4382,-92.4244C642.4312,-90.3481 651.8144,-88.4148 660.6932,-87 762.8256,-70.7253 792.1557,-93.2511 892.6932,-69 921.1339,-62.1397 951.4924,-49.4708 974.811,-38.4767"/>
<polygon fill="#0000ff" stroke="#0000ff" points="976.5287,-41.5344 984.025,-34.0474 973.4959,-35.2255 976.5287,-41.5344"/>
<text text-anchor="middle" x="960.1932" y="-57.8" font-family="Times,serif" font-size="14.00" fill="#000000">in taxon</text>
</g>
<!-- has attribute -->
<g id="node13" class="node">
<title>has attribute</title>
<ellipse fill="none" stroke="#000000" cx="1152.6932" cy="-18" rx="53.8905" ry="18"/>
<text text-anchor="middle" x="1152.6932" y="-14.3" font-family="Times,serif" font-size="14.00" fill="#000000">has attribute</text>
</g>
<!-- clinical finding&#45;&gt;has attribute -->
<g id="edge11" class="edge">
<title>clinical finding&#45;&gt;has attribute</title>
<path fill="none" stroke="#0000ff" d="M633.017,-92.3554C642.1326,-90.2583 651.6684,-88.3352 660.6932,-87 804.2402,-65.7623 843.841,-94.4958 986.6932,-69 1028.3842,-61.5591 1074.302,-46.929 1107.2558,-35.2394"/>
<polygon fill="#0000ff" stroke="#0000ff" points="1108.8225,-38.3955 1117.0476,-31.7172 1106.4531,-31.8086 1108.8225,-38.3955"/>
<text text-anchor="middle" x="1081.1932" y="-57.8" font-family="Times,serif" font-size="14.00" fill="#000000">has attribute</text>
</g>
<!-- named thing_category -->
<g id="node11" class="node">
<title>named thing_category</title>
<ellipse fill="none" stroke="#0000ff" cx="724.6932" cy="-105" rx="55.4913" ry="18"/>
<text text-anchor="middle" x="724.6932" y="-101.3" font-family="Times,serif" font-size="14.00" fill="#000000">named thing</text>
</g>
<!-- clinical finding_has attribute -->
<g id="node14" class="node">
<title>clinical finding_has attribute</title>
<ellipse fill="none" stroke="#0000ff" cx="865.6932" cy="-105" rx="68.4888" ry="18"/>
<text text-anchor="middle" x="865.6932" y="-101.3" font-family="Times,serif" font-size="14.00" fill="#000000">clinical attribute</text>
</g>
</g>
</svg>
