<?xml version="1.0" encoding="UTF-8" standalone="no"?>
<!DOCTYPE svg PUBLIC "-//W3C//DTD SVG 1.1//EN"
 "http://www.w3.org/Graphics/SVG/1.1/DTD/svg11.dtd">
<!-- Generated by graphviz version 2.40.1 (20161225.0304)
 -->
<!-- Title: %3 Pages: 1 -->
<svg width="786pt" height="131pt"
 viewBox="0.00 0.00 786.29 131.00" xmlns="http://www.w3.org/2000/svg" xmlns:xlink="http://www.w3.org/1999/xlink">
<g id="graph0" class="graph" transform="scale(1 1) rotate(0) translate(4 127)">
<title>%3</title>
<polygon fill="#ffffff" stroke="transparent" points="-4,4 -4,-127 782.2872,-127 782.2872,4 -4,4"/>
<!-- coding sequence -->
<g id="node1" class="node">
<title>coding sequence</title>
<ellipse fill="none" stroke="#000000" cx="330.6943" cy="-105" rx="69.5877" ry="18"/>
<text text-anchor="middle" x="330.6943" y="-101.3" font-family="Times,serif" font-size="14.00" fill="#000000">coding sequence</text>
</g>
<!-- genomic entity -->
<g id="node2" class="node">
<title>genomic entity</title>
<ellipse fill="none" stroke="#000000" cx="63.6943" cy="-18" rx="63.8893" ry="18"/>
<text text-anchor="middle" x="63.6943" y="-14.3" font-family="Times,serif" font-size="14.00" fill="#000000">genomic entity</text>
</g>
<!-- coding sequence&#45;&gt;genomic entity -->
<g id="edge1" class="edge">
<title>coding sequence&#45;&gt;genomic entity</title>
<path fill="none" stroke="#000000" d="M286.7889,-90.9645C266.1168,-84.3364 241.1277,-76.2959 218.6943,-69 184.0828,-57.7434 145.1725,-44.9402 114.9958,-34.9779"/>
<polygon fill="#000000" stroke="#000000" points="115.7087,-31.5275 105.1156,-31.7146 113.5134,-38.1743 115.7087,-31.5275"/>
<text text-anchor="middle" x="229.6943" y="-57.8" font-family="Times,serif" font-size="14.00" fill="#000000">is_a</text>
</g>
<!-- id -->
<g id="node3" class="node">
<title>id</title>
<ellipse fill="none" stroke="#0000ff" cx="175.6943" cy="-18" rx="30.5947" ry="18"/>
<text text-anchor="middle" x="175.6943" y="-14.3" font-family="Times,serif" font-size="14.00" fill="#000000">string</text>
</g>
<!-- coding sequence&#45;&gt;id -->
<g id="edge2" class="edge">
<title>coding sequence&#45;&gt;id</title>
<path fill="none" stroke="#0000ff" d="M301.54,-88.636C274.5944,-73.5117 234.6667,-51.1006 207.0432,-35.5958"/>
<polygon fill="#0000ff" stroke="#0000ff" points="208.6169,-32.4655 198.1835,-30.6229 205.1906,-38.5697 208.6169,-32.4655"/>
<text text-anchor="middle" x="268.1943" y="-57.8" font-family="Times,serif" font-size="14.00" fill="#000000">id</text>
</g>
<!-- name -->
<g id="node4" class="node">
<title>name</title>
<ellipse fill="none" stroke="#0000ff" cx="269.6943" cy="-18" rx="45.4919" ry="18"/>
<text text-anchor="middle" x="269.6943" y="-14.3" font-family="Times,serif" font-size="14.00" fill="#000000">label type</text>
</g>
<!-- coding sequence&#45;&gt;name -->
<g id="edge3" class="edge">
<title>coding sequence&#45;&gt;name</title>
<path fill="none" stroke="#0000ff" d="M318.0551,-86.9735C309.2698,-74.4437 297.4318,-57.56 287.6672,-43.6335"/>
<polygon fill="#0000ff" stroke="#0000ff" points="290.5079,-41.5883 281.9011,-35.4097 284.7764,-45.607 290.5079,-41.5883"/>
<text text-anchor="middle" x="320.1943" y="-57.8" font-family="Times,serif" font-size="14.00" fill="#000000">name</text>
</g>
<!-- category -->
<g id="node5" class="node">
<title>category</title>
<ellipse fill="none" stroke="#0000ff" cx="391.6943" cy="-18" rx="58.4896" ry="18"/>
<text text-anchor="middle" x="391.6943" y="-14.3" font-family="Times,serif" font-size="14.00" fill="#000000">category type</text>
</g>
<!-- coding sequence&#45;&gt;category -->
<g id="edge4" class="edge">
<title>coding sequence&#45;&gt;category</title>
<path fill="none" stroke="#0000ff" d="M343.3336,-86.9735C352.0611,-74.5261 363.8012,-57.782 373.5285,-43.9087"/>
<polygon fill="#0000ff" stroke="#0000ff" points="376.4048,-45.9029 379.28,-35.7057 370.6733,-41.8843 376.4048,-45.9029"/>
<text text-anchor="middle" x="389.1943" y="-57.8" font-family="Times,serif" font-size="14.00" fill="#000000">category</text>
</g>
<!-- in taxon -->
<g id="node6" class="node">
<title>in taxon</title>
<ellipse fill="none" stroke="#0000ff" cx="533.6943" cy="-18" rx="65.7887" ry="18"/>
<text text-anchor="middle" x="533.6943" y="-14.3" font-family="Times,serif" font-size="14.00" fill="#000000">organism taxon</text>
</g>
<!-- coding sequence&#45;&gt;in taxon -->
<g id="edge5" class="edge">
<title>coding sequence&#45;&gt;in taxon</title>
<path fill="none" stroke="#0000ff" d="M367.5721,-89.7017C382.8012,-83.348 400.6191,-75.8677 416.6943,-69 440.8344,-58.6868 467.688,-46.997 489.574,-37.4132"/>
<polygon fill="#0000ff" stroke="#0000ff" points="491.1853,-40.5285 498.939,-33.3082 488.3751,-34.1173 491.1853,-40.5285"/>
<text text-anchor="middle" x="472.1943" y="-57.8" font-family="Times,serif" font-size="14.00" fill="#000000">in taxon</text>
</g>
<!-- has biological sequence -->
<g id="node7" class="node">
<title>has biological sequence</title>
<ellipse fill="none" stroke="#0000ff" cx="697.6943" cy="-18" rx="80.6858" ry="18"/>
<text text-anchor="middle" x="697.6943" y="-14.3" font-family="Times,serif" font-size="14.00" fill="#000000">biological sequence</text>
</g>
<!-- coding sequence&#45;&gt;has biological sequence -->
<g id="edge6" class="edge">
<title>coding sequence&#45;&gt;has biological sequence</title>
<path fill="none" stroke="#0000ff" d="M385.6732,-93.7945C418.5425,-86.9521 461.092,-77.8435 498.6943,-69 544.9424,-58.1231 596.9428,-44.7567 636.1864,-34.4367"/>
<polygon fill="#0000ff" stroke="#0000ff" points="637.1,-37.8155 645.8775,-31.882 635.3156,-31.0468 637.1,-37.8155"/>
<text text-anchor="middle" x="624.6943" y="-57.8" font-family="Times,serif" font-size="14.00" fill="#000000">has biological sequence</text>
</g>
</g>
</svg>
