<?xml version="1.0" encoding="UTF-8" standalone="no"?>
<!DOCTYPE svg PUBLIC "-//W3C//DTD SVG 1.1//EN"
 "http://www.w3.org/Graphics/SVG/1.1/DTD/svg11.dtd">
<!-- Generated by graphviz version 2.43.0 (0)
 -->
<!-- Title: %3 Pages: 1 -->
<svg width="1998pt" height="131pt"
 viewBox="0.00 0.00 1997.54 131.00" xmlns="http://www.w3.org/2000/svg" xmlns:xlink="http://www.w3.org/1999/xlink">
<g id="graph0" class="graph" transform="scale(1 1) rotate(0) translate(4 127)">
<title>%3</title>
<polygon fill="white" stroke="transparent" points="-4,4 -4,-127 1993.54,-127 1993.54,4 -4,4"/>
<!-- cohort -->
<g id="node1" class="node">
<title>cohort</title>
<ellipse fill="none" stroke="black" cx="1023.04" cy="-105" rx="40.09" ry="18"/>
<text text-anchor="middle" x="1023.04" y="-101.3" font-family="Times,serif" font-size="14.00">cohort</text>
</g>
<!-- study population -->
<g id="node2" class="node">
<title>study population</title>
<ellipse fill="none" stroke="black" cx="89.04" cy="-18" rx="89.08" ry="18"/>
<text text-anchor="middle" x="89.04" y="-14.3" font-family="Times,serif" font-size="14.00">study population</text>
</g>
<!-- cohort&#45;&gt;study population -->
<g id="edge1" class="edge">
<title>cohort&#45;&gt;study population</title>
<path fill="none" stroke="black" d="M983.19,-102.3C891.23,-98.2 657.14,-86.78 462.04,-69 339.45,-57.83 308.84,-53.86 187.04,-36 179.21,-34.85 171.04,-33.57 162.9,-32.24"/>
<polygon fill="black" stroke="black" points="163.45,-28.78 153.01,-30.59 162.3,-35.69 163.45,-28.78"/>
<text text-anchor="middle" x="476.04" y="-57.8" font-family="Times,serif" font-size="14.00">is_a</text>
</g>
<!-- subject of investigation -->
<g id="node3" class="node">
<title>subject of investigation</title>
<ellipse fill="none" stroke="black" cx="316.04" cy="-18" rx="119.68" ry="18"/>
<text text-anchor="middle" x="316.04" y="-14.3" font-family="Times,serif" font-size="14.00">subject of investigation</text>
</g>
<!-- cohort&#45;&gt;subject of investigation -->
<g id="edge2" class="edge">
<title>cohort&#45;&gt;subject of investigation</title>
<path fill="none" stroke="black" d="M982.97,-102.27C905.2,-98.6 728.49,-88.69 581.04,-69 516.3,-60.35 443.42,-46.28 390.5,-35.27"/>
<polygon fill="black" stroke="black" points="391.03,-31.8 380.53,-33.18 389.6,-38.65 391.03,-31.8"/>
<text text-anchor="middle" x="597.54" y="-57.8" font-family="Times,serif" font-size="14.00">uses</text>
</g>
<!-- id -->
<g id="node4" class="node">
<title>id</title>
<ellipse fill="none" stroke="blue" cx="492.04" cy="-18" rx="38.19" ry="18"/>
<text text-anchor="middle" x="492.04" y="-14.3" font-family="Times,serif" font-size="14.00">string</text>
</g>
<!-- cohort&#45;&gt;id -->
<g id="edge3" class="edge">
<title>cohort&#45;&gt;id</title>
<path fill="none" stroke="blue" d="M983.2,-101.93C899.64,-96.83 700.56,-80.64 540.04,-36 536.93,-35.14 533.74,-34.17 530.54,-33.15"/>
<polygon fill="blue" stroke="blue" points="531.62,-29.83 521.03,-29.99 529.41,-36.47 531.62,-29.83"/>
<text text-anchor="middle" x="691.04" y="-57.8" font-family="Times,serif" font-size="14.00">id</text>
</g>
<!-- iri -->
<g id="node5" class="node">
<title>iri</title>
<ellipse fill="none" stroke="blue" cx="593.04" cy="-18" rx="44.39" ry="18"/>
<text text-anchor="middle" x="593.04" y="-14.3" font-family="Times,serif" font-size="14.00">iri type</text>
</g>
<!-- cohort&#45;&gt;iri -->
<g id="edge4" class="edge">
<title>cohort&#45;&gt;iri</title>
<path fill="none" stroke="blue" d="M984.54,-99.15C938.22,-93.1 858.16,-81.95 790.04,-69 725.96,-56.81 709.98,-53.14 647.04,-36 643.47,-35.03 639.77,-33.97 636.07,-32.88"/>
<polygon fill="blue" stroke="blue" points="636.92,-29.48 626.34,-29.93 634.89,-36.18 636.92,-29.48"/>
<text text-anchor="middle" x="798.04" y="-57.8" font-family="Times,serif" font-size="14.00">iri</text>
</g>
<!-- type -->
<g id="node6" class="node">
<title>type</title>
<ellipse fill="none" stroke="blue" cx="694.04" cy="-18" rx="38.19" ry="18"/>
<text text-anchor="middle" x="694.04" y="-14.3" font-family="Times,serif" font-size="14.00">string</text>
</g>
<!-- cohort&#45;&gt;type -->
<g id="edge5" class="edge">
<title>cohort&#45;&gt;type</title>
<path fill="none" stroke="blue" d="M986.55,-96.88C932.37,-85.94 827.73,-63.35 741.04,-36 738.29,-35.13 735.46,-34.2 732.61,-33.24"/>
<polygon fill="blue" stroke="blue" points="733.59,-29.87 723,-29.9 731.29,-36.49 733.59,-29.87"/>
<text text-anchor="middle" x="873.04" y="-57.8" font-family="Times,serif" font-size="14.00">type</text>
</g>
<!-- name -->
<g id="node7" class="node">
<title>name</title>
<ellipse fill="none" stroke="blue" cx="807.04" cy="-18" rx="56.59" ry="18"/>
<text text-anchor="middle" x="807.04" y="-14.3" font-family="Times,serif" font-size="14.00">label type</text>
</g>
<!-- cohort&#45;&gt;name -->
<g id="edge6" class="edge">
<title>cohort&#45;&gt;name</title>
<path fill="none" stroke="blue" d="M993.43,-92.54C975.87,-85.73 953.17,-76.91 933.04,-69 905.49,-58.17 874.59,-45.91 850.28,-36.24"/>
<polygon fill="blue" stroke="blue" points="851.56,-32.99 840.98,-32.54 848.97,-39.49 851.56,-32.99"/>
<text text-anchor="middle" x="953.04" y="-57.8" font-family="Times,serif" font-size="14.00">name</text>
</g>
<!-- description -->
<g id="node8" class="node">
<title>description</title>
<ellipse fill="none" stroke="blue" cx="957.04" cy="-18" rx="75.29" ry="18"/>
<text text-anchor="middle" x="957.04" y="-14.3" font-family="Times,serif" font-size="14.00">narrative text</text>
</g>
<!-- cohort&#45;&gt;description -->
<g id="edge7" class="edge">
<title>cohort&#45;&gt;description</title>
<path fill="none" stroke="blue" d="M1004.68,-88.57C998.37,-82.79 991.53,-75.93 986.04,-69 980.22,-61.65 974.79,-53 970.23,-44.98"/>
<polygon fill="blue" stroke="blue" points="973.18,-43.08 965.32,-35.98 967.04,-46.43 973.18,-43.08"/>
<text text-anchor="middle" x="1026.54" y="-57.8" font-family="Times,serif" font-size="14.00">description</text>
</g>
<!-- provided by -->
<g id="node9" class="node">
<title>provided by</title>
<ellipse fill="none" stroke="blue" cx="1089.04" cy="-18" rx="38.19" ry="18"/>
<text text-anchor="middle" x="1089.04" y="-14.3" font-family="Times,serif" font-size="14.00">string</text>
</g>
<!-- cohort&#45;&gt;provided by -->
<g id="edge8" class="edge">
<title>cohort&#45;&gt;provided by</title>
<path fill="none" stroke="blue" d="M1045.05,-89.8C1052.74,-84.04 1060.96,-76.89 1067.04,-69 1072.48,-61.95 1076.88,-53.35 1080.28,-45.28"/>
<polygon fill="blue" stroke="blue" points="1083.59,-46.44 1083.94,-35.85 1077.06,-43.91 1083.59,-46.44"/>
<text text-anchor="middle" x="1118.54" y="-57.8" font-family="Times,serif" font-size="14.00">provided by</text>
</g>
<!-- xref -->
<g id="node10" class="node">
<title>xref</title>
<ellipse fill="none" stroke="blue" cx="1203.04" cy="-18" rx="57.39" ry="18"/>
<text text-anchor="middle" x="1203.04" y="-14.3" font-family="Times,serif" font-size="14.00">uriorcurie</text>
</g>
<!-- cohort&#45;&gt;xref -->
<g id="edge9" class="edge">
<title>cohort&#45;&gt;xref</title>
<path fill="none" stroke="blue" d="M1052.89,-92.89C1059.17,-90.76 1065.78,-88.68 1072.04,-87 1112.7,-76.07 1129.28,-91.22 1165.04,-69 1174.73,-62.98 1182.84,-53.54 1189.05,-44.47"/>
<polygon fill="blue" stroke="blue" points="1192.01,-46.33 1194.41,-36.01 1186.1,-42.59 1192.01,-46.33"/>
<text text-anchor="middle" x="1196.54" y="-57.8" font-family="Times,serif" font-size="14.00">xref</text>
</g>
<!-- full name -->
<g id="node11" class="node">
<title>full name</title>
<ellipse fill="none" stroke="blue" cx="1335.04" cy="-18" rx="56.59" ry="18"/>
<text text-anchor="middle" x="1335.04" y="-14.3" font-family="Times,serif" font-size="14.00">label type</text>
</g>
<!-- cohort&#45;&gt;full name -->
<g id="edge10" class="edge">
<title>cohort&#45;&gt;full name</title>
<path fill="none" stroke="blue" d="M1052.55,-92.65C1058.91,-90.52 1065.64,-88.5 1072.04,-87 1134.42,-72.42 1153.14,-85.47 1215.04,-69 1243.41,-61.45 1273.93,-48.67 1297.1,-37.91"/>
<polygon fill="blue" stroke="blue" points="1298.68,-41.04 1306.23,-33.6 1295.69,-34.71 1298.68,-41.04"/>
<text text-anchor="middle" x="1292.54" y="-57.8" font-family="Times,serif" font-size="14.00">full name</text>
</g>
<!-- category -->
<g id="node12" class="node">
<title>category</title>
<ellipse fill="none" stroke="black" cx="1461.04" cy="-18" rx="51.19" ry="18"/>
<text text-anchor="middle" x="1461.04" y="-14.3" font-family="Times,serif" font-size="14.00">category</text>
</g>
<!-- cohort&#45;&gt;category -->
<g id="edge11" class="edge">
<title>cohort&#45;&gt;category</title>
<path fill="none" stroke="blue" d="M1052.23,-92.47C1058.67,-90.32 1065.51,-88.34 1072.04,-87 1184.65,-63.96 1217.8,-93.76 1330.04,-69 1362.19,-61.91 1396.92,-48.36 1422.55,-37.15"/>
<polygon fill="blue" stroke="blue" points="1424.18,-40.25 1431.89,-32.99 1421.34,-33.86 1424.18,-40.25"/>
<text text-anchor="middle" x="1409.54" y="-57.8" font-family="Times,serif" font-size="14.00">category</text>
</g>
<!-- in taxon -->
<g id="node14" class="node">
<title>in taxon</title>
<ellipse fill="none" stroke="blue" cx="1614.04" cy="-18" rx="83.39" ry="18"/>
<text text-anchor="middle" x="1614.04" y="-14.3" font-family="Times,serif" font-size="14.00">organism taxon</text>
</g>
<!-- cohort&#45;&gt;in taxon -->
<g id="edge12" class="edge">
<title>cohort&#45;&gt;in taxon</title>
<path fill="none" stroke="blue" d="M1051.95,-92.45C1058.46,-90.27 1065.41,-88.28 1072.04,-87 1234.99,-55.48 1281.41,-96.74 1445.04,-69 1486.09,-62.04 1531.25,-48.35 1564.55,-37.06"/>
<polygon fill="blue" stroke="blue" points="1565.73,-40.35 1574.05,-33.79 1563.45,-33.73 1565.73,-40.35"/>
<text text-anchor="middle" x="1536.04" y="-57.8" font-family="Times,serif" font-size="14.00">in taxon</text>
</g>
<!-- in taxon label -->
<g id="node15" class="node">
<title>in taxon label</title>
<ellipse fill="none" stroke="blue" cx="1772.04" cy="-18" rx="56.59" ry="18"/>
<text text-anchor="middle" x="1772.04" y="-14.3" font-family="Times,serif" font-size="14.00">label type</text>
</g>
<!-- cohort&#45;&gt;in taxon label -->
<g id="edge13" class="edge">
<title>cohort&#45;&gt;in taxon label</title>
<path fill="none" stroke="blue" d="M1051.93,-92.39C1058.45,-90.22 1065.4,-88.24 1072.04,-87 1289.3,-46.33 1350.06,-99.03 1569.04,-69 1622.69,-61.64 1682.76,-45.88 1723.54,-34"/>
<polygon fill="blue" stroke="blue" points="1724.62,-37.34 1733.22,-31.15 1722.64,-30.62 1724.62,-37.34"/>
<text text-anchor="middle" x="1691.54" y="-57.8" font-family="Times,serif" font-size="14.00">in taxon label</text>
</g>
<!-- has attribute -->
<g id="node16" class="node">
<title>has attribute</title>
<ellipse fill="none" stroke="black" cx="1918.04" cy="-18" rx="71.49" ry="18"/>
<text text-anchor="middle" x="1918.04" y="-14.3" font-family="Times,serif" font-size="14.00">has attribute</text>
</g>
<!-- cohort&#45;&gt;has attribute -->
<g id="edge14" class="edge">
<title>cohort&#45;&gt;has attribute</title>
<path fill="none" stroke="blue" d="M1051.93,-92.34C1058.44,-90.17 1065.4,-88.21 1072.04,-87 1219.01,-60.2 1596.41,-91.81 1744.04,-69 1787.3,-62.32 1834.98,-48.11 1869.47,-36.54"/>
<polygon fill="blue" stroke="blue" points="1870.95,-39.74 1879.29,-33.2 1868.69,-33.11 1870.95,-39.74"/>
<text text-anchor="middle" x="1858.04" y="-57.8" font-family="Times,serif" font-size="14.00">has attribute</text>
</g>
<!-- named thing_category -->
<g id="node13" class="node">
<title>named thing_category</title>
<ellipse fill="none" stroke="blue" cx="1156.04" cy="-105" rx="74.99" ry="18"/>
<text text-anchor="middle" x="1156.04" y="-101.3" font-family="Times,serif" font-size="14.00">category type</text>
</g>
<!-- organismal entity_has attribute -->
<g id="node17" class="node">
<title>organismal entity_has attribute</title>
<ellipse fill="none" stroke="blue" cx="1301.04" cy="-105" rx="51.99" ry="18"/>
<text text-anchor="middle" x="1301.04" y="-101.3" font-family="Times,serif" font-size="14.00">attribute</text>
</g>
</g>
</svg>
