<?xml version="1.0" encoding="UTF-8" standalone="no"?>
<!DOCTYPE svg PUBLIC "-//W3C//DTD SVG 1.1//EN"
 "http://www.w3.org/Graphics/SVG/1.1/DTD/svg11.dtd">
<!-- Generated by graphviz version 2.40.1 (20161225.0304)
 -->
<!-- Title: %3 Pages: 1 -->
<svg width="1200pt" height="131pt"
 viewBox="0.00 0.00 1200.19 131.00" xmlns="http://www.w3.org/2000/svg" xmlns:xlink="http://www.w3.org/1999/xlink">
<g id="graph0" class="graph" transform="scale(1 1) rotate(0) translate(4 127)">
<title>%3</title>
<polygon fill="#ffffff" stroke="transparent" points="-4,4 -4,-127 1196.188,-127 1196.188,4 -4,4"/>
<!-- cohort -->
<g id="node1" class="node">
<title>cohort</title>
<ellipse fill="none" stroke="#000000" cx="572.5438" cy="-105" rx="33.2948" ry="18"/>
<text text-anchor="middle" x="572.5438" y="-101.3" font-family="Times,serif" font-size="14.00" fill="#000000">cohort</text>
</g>
<!-- study population -->
<g id="node2" class="node">
<title>study population</title>
<ellipse fill="none" stroke="#000000" cx="69.5438" cy="-18" rx="69.5877" ry="18"/>
<text text-anchor="middle" x="69.5438" y="-14.3" font-family="Times,serif" font-size="14.00" fill="#000000">study population</text>
</g>
<!-- cohort&#45;&gt;study population -->
<g id="edge1" class="edge">
<title>cohort&#45;&gt;study population</title>
<path fill="none" stroke="#000000" d="M539.2647,-102.5786C482.8203,-98.1392 364.8619,-87.4211 266.5438,-69 218.206,-59.9433 164.1883,-45.6564 124.9601,-34.5052"/>
<polygon fill="#000000" stroke="#000000" points="125.8952,-31.1324 115.318,-31.7428 123.9673,-37.8616 125.8952,-31.1324"/>
<text text-anchor="middle" x="277.5438" y="-57.8" font-family="Times,serif" font-size="14.00" fill="#000000">is_a</text>
</g>
<!-- id -->
<g id="node3" class="node">
<title>id</title>
<ellipse fill="none" stroke="#0000ff" cx="187.5438" cy="-18" rx="30.5947" ry="18"/>
<text text-anchor="middle" x="187.5438" y="-14.3" font-family="Times,serif" font-size="14.00" fill="#000000">string</text>
</g>
<!-- cohort&#45;&gt;id -->
<g id="edge2" class="edge">
<title>cohort&#45;&gt;id</title>
<path fill="none" stroke="#0000ff" d="M539.8856,-101.5203C477.6939,-94.2326 338.5623,-74.7381 227.5438,-36 225.2992,-35.2168 223.0072,-34.3569 220.7127,-33.4507"/>
<polygon fill="#0000ff" stroke="#0000ff" points="221.9574,-30.1775 211.3816,-29.5424 219.253,-36.634 221.9574,-30.1775"/>
<text text-anchor="middle" x="345.0438" y="-57.8" font-family="Times,serif" font-size="14.00" fill="#000000">id</text>
</g>
<!-- iri -->
<g id="node4" class="node">
<title>iri</title>
<ellipse fill="none" stroke="#0000ff" cx="272.5438" cy="-18" rx="36.2938" ry="18"/>
<text text-anchor="middle" x="272.5438" y="-14.3" font-family="Times,serif" font-size="14.00" fill="#000000">iri type</text>
</g>
<!-- cohort&#45;&gt;iri -->
<g id="edge3" class="edge">
<title>cohort&#45;&gt;iri</title>
<path fill="none" stroke="#0000ff" d="M541.5743,-98.133C511.3321,-91.2825 464.0743,-80.1927 423.5438,-69 375.9827,-55.8658 364.0415,-52.5086 317.5438,-36 315.0287,-35.107 312.4461,-34.159 309.8512,-33.1833"/>
<polygon fill="#0000ff" stroke="#0000ff" points="311.0895,-29.9097 300.4998,-29.5776 308.5711,-36.441 311.0895,-29.9097"/>
<text text-anchor="middle" x="430.0438" y="-57.8" font-family="Times,serif" font-size="14.00" fill="#000000">iri</text>
</g>
<!-- type -->
<g id="node5" class="node">
<title>type</title>
<ellipse fill="none" stroke="#0000ff" cx="357.5438" cy="-18" rx="30.5947" ry="18"/>
<text text-anchor="middle" x="357.5438" y="-14.3" font-family="Times,serif" font-size="14.00" fill="#000000">string</text>
</g>
<!-- cohort&#45;&gt;type -->
<g id="edge4" class="edge">
<title>cohort&#45;&gt;type</title>
<path fill="none" stroke="#0000ff" d="M545.0249,-94.8124C526.0145,-87.7158 500.1768,-77.9542 477.5438,-69 441.7793,-54.8506 432.8631,-51.2269 397.5438,-36 395.4984,-35.1182 393.3982,-34.2029 391.2824,-33.2732"/>
<polygon fill="#0000ff" stroke="#0000ff" points="392.5883,-30.0236 382.0282,-29.1653 389.7481,-36.4216 392.5883,-30.0236"/>
<text text-anchor="middle" x="489.5438" y="-57.8" font-family="Times,serif" font-size="14.00" fill="#000000">type</text>
</g>
<!-- name -->
<g id="node6" class="node">
<title>name</title>
<ellipse fill="none" stroke="#0000ff" cx="451.5438" cy="-18" rx="45.4919" ry="18"/>
<text text-anchor="middle" x="451.5438" y="-14.3" font-family="Times,serif" font-size="14.00" fill="#000000">label type</text>
</g>
<!-- cohort&#45;&gt;name -->
<g id="edge5" class="edge">
<title>cohort&#45;&gt;name</title>
<path fill="none" stroke="#0000ff" d="M552.5631,-90.6337C533.3636,-76.8291 504.0883,-55.7799 481.987,-39.8889"/>
<polygon fill="#0000ff" stroke="#0000ff" points="483.7676,-36.8584 473.6052,-33.8623 479.6811,-42.5418 483.7676,-36.8584"/>
<text text-anchor="middle" x="535.0438" y="-57.8" font-family="Times,serif" font-size="14.00" fill="#000000">name</text>
</g>
<!-- description -->
<g id="node7" class="node">
<title>description</title>
<ellipse fill="none" stroke="#0000ff" cx="572.5438" cy="-18" rx="57.6901" ry="18"/>
<text text-anchor="middle" x="572.5438" y="-14.3" font-family="Times,serif" font-size="14.00" fill="#000000">narrative text</text>
</g>
<!-- cohort&#45;&gt;description -->
<g id="edge6" class="edge">
<title>cohort&#45;&gt;description</title>
<path fill="none" stroke="#0000ff" d="M572.5438,-86.9735C572.5438,-75.1918 572.5438,-59.5607 572.5438,-46.1581"/>
<polygon fill="#0000ff" stroke="#0000ff" points="576.0439,-46.0033 572.5438,-36.0034 569.0439,-46.0034 576.0439,-46.0033"/>
<text text-anchor="middle" x="603.0438" y="-57.8" font-family="Times,serif" font-size="14.00" fill="#000000">description</text>
</g>
<!-- source -->
<g id="node8" class="node">
<title>source</title>
<ellipse fill="none" stroke="#0000ff" cx="693.5438" cy="-18" rx="45.4919" ry="18"/>
<text text-anchor="middle" x="693.5438" y="-14.3" font-family="Times,serif" font-size="14.00" fill="#000000">label type</text>
</g>
<!-- cohort&#45;&gt;source -->
<g id="edge7" class="edge">
<title>cohort&#45;&gt;source</title>
<path fill="none" stroke="#0000ff" d="M597.4368,-92.954C609.8969,-86.4967 624.9653,-78.0226 637.5438,-69 648.6731,-61.0169 660.0162,-51.0875 669.5569,-42.1171"/>
<polygon fill="#0000ff" stroke="#0000ff" points="671.9904,-44.6327 676.7834,-35.184 667.1442,-39.5814 671.9904,-44.6327"/>
<text text-anchor="middle" x="673.5438" y="-57.8" font-family="Times,serif" font-size="14.00" fill="#000000">source</text>
</g>
<!-- provided by -->
<g id="node9" class="node">
<title>provided by</title>
<ellipse fill="none" stroke="#0000ff" cx="786.5438" cy="-18" rx="29.795" ry="18"/>
<text text-anchor="middle" x="786.5438" y="-14.3" font-family="Times,serif" font-size="14.00" fill="#000000">agent</text>
</g>
<!-- cohort&#45;&gt;provided by -->
<g id="edge8" class="edge">
<title>cohort&#45;&gt;provided by</title>
<path fill="none" stroke="#0000ff" d="M598.0204,-93.186C603.4067,-90.9425 609.1074,-88.7521 614.5438,-87 649.6441,-75.6875 661.0917,-82.1549 695.5438,-69 717.4435,-60.638 740.4615,-47.6939 757.8682,-36.939"/>
<polygon fill="#0000ff" stroke="#0000ff" points="759.8276,-39.8414 766.4237,-31.5503 756.0969,-33.9183 759.8276,-39.8414"/>
<text text-anchor="middle" x="760.5438" y="-57.8" font-family="Times,serif" font-size="14.00" fill="#000000">provided by</text>
</g>
<!-- category -->
<g id="node10" class="node">
<title>category</title>
<ellipse fill="none" stroke="#000000" cx="875.5438" cy="-18" rx="40.8928" ry="18"/>
<text text-anchor="middle" x="875.5438" y="-14.3" font-family="Times,serif" font-size="14.00" fill="#000000">category</text>
</g>
<!-- cohort&#45;&gt;category -->
<g id="edge9" class="edge">
<title>cohort&#45;&gt;category</title>
<path fill="none" stroke="#0000ff" d="M597.4231,-92.8575C602.9499,-90.581 608.858,-88.4607 614.5438,-87 693.6992,-66.6644 720.4573,-96.1435 797.5438,-69 815.8689,-62.5474 834.164,-50.9274 848.4256,-40.4073"/>
<polygon fill="#0000ff" stroke="#0000ff" points="850.9225,-42.9045 856.7483,-34.0551 846.6756,-37.34 850.9225,-42.9045"/>
<text text-anchor="middle" x="851.0438" y="-57.8" font-family="Times,serif" font-size="14.00" fill="#000000">category</text>
</g>
<!-- has attribute -->
<g id="node12" class="node">
<title>has attribute</title>
<ellipse fill="none" stroke="#000000" cx="988.5438" cy="-18" rx="53.8905" ry="18"/>
<text text-anchor="middle" x="988.5438" y="-14.3" font-family="Times,serif" font-size="14.00" fill="#000000">has attribute</text>
</g>
<!-- cohort&#45;&gt;has attribute -->
<g id="edge10" class="edge">
<title>cohort&#45;&gt;has attribute</title>
<path fill="none" stroke="#0000ff" d="M597.3908,-92.728C602.9196,-90.4596 608.8367,-88.3754 614.5438,-87 728.8763,-59.4466 764.6264,-98.2222 878.5438,-69 904.6531,-62.3024 932.1646,-49.545 953.143,-38.4656"/>
<polygon fill="#0000ff" stroke="#0000ff" points="954.8652,-41.5134 962.0014,-33.6823 951.5392,-35.354 954.8652,-41.5134"/>
<text text-anchor="middle" x="953.0438" y="-57.8" font-family="Times,serif" font-size="14.00" fill="#000000">has attribute</text>
</g>
<!-- in taxon -->
<g id="node14" class="node">
<title>in taxon</title>
<ellipse fill="none" stroke="#0000ff" cx="1126.5438" cy="-18" rx="65.7887" ry="18"/>
<text text-anchor="middle" x="1126.5438" y="-14.3" font-family="Times,serif" font-size="14.00" fill="#000000">organism taxon</text>
</g>
<!-- cohort&#45;&gt;in taxon -->
<g id="edge11" class="edge">
<title>cohort&#45;&gt;in taxon</title>
<path fill="none" stroke="#0000ff" d="M597.3702,-92.6404C602.9003,-90.3774 608.8231,-88.3175 614.5438,-87 777.5783,-49.4514 826.6869,-102.7793 990.5438,-69 1022.988,-62.3116 1057.9469,-49.0579 1084.2962,-37.7382"/>
<polygon fill="#0000ff" stroke="#0000ff" points="1085.8347,-40.8854 1093.5937,-33.671 1083.0292,-34.4722 1085.8347,-40.8854"/>
<text text-anchor="middle" x="1062.0438" y="-57.8" font-family="Times,serif" font-size="14.00" fill="#000000">in taxon</text>
</g>
<!-- named thing_category -->
<g id="node11" class="node">
<title>named thing_category</title>
<ellipse fill="none" stroke="#0000ff" cx="678.5438" cy="-105" rx="55.4913" ry="18"/>
<text text-anchor="middle" x="678.5438" y="-101.3" font-family="Times,serif" font-size="14.00" fill="#000000">named thing</text>
</g>
<!-- organismal entity_has attribute -->
<g id="node13" class="node">
<title>organismal entity_has attribute</title>
<ellipse fill="none" stroke="#0000ff" cx="792.5438" cy="-105" rx="40.0939" ry="18"/>
<text text-anchor="middle" x="792.5438" y="-101.3" font-family="Times,serif" font-size="14.00" fill="#000000">attribute</text>
</g>
</g>
</svg>
