<?xml version="1.0" encoding="UTF-8" standalone="no"?>
<!DOCTYPE svg PUBLIC "-//W3C//DTD SVG 1.1//EN"
 "http://www.w3.org/Graphics/SVG/1.1/DTD/svg11.dtd">
<!-- Generated by graphviz version 2.43.0 (0)
 -->
<!-- Title: %3 Pages: 1 -->
<svg width="2240pt" height="131pt"
 viewBox="0.00 0.00 2239.54 131.00" xmlns="http://www.w3.org/2000/svg" xmlns:xlink="http://www.w3.org/1999/xlink">
<g id="graph0" class="graph" transform="scale(1 1) rotate(0) translate(4 127)">
<title>%3</title>
<polygon fill="white" stroke="transparent" points="-4,4 -4,-127 2235.54,-127 2235.54,4 -4,4"/>
<!-- cohort -->
<g id="node1" class="node">
<title>cohort</title>
<ellipse fill="none" stroke="black" cx="1148.04" cy="-105" rx="40.09" ry="18"/>
<text text-anchor="middle" x="1148.04" y="-101.3" font-family="Times,serif" font-size="14.00">cohort</text>
</g>
<!-- study population -->
<g id="node2" class="node">
<title>study population</title>
<ellipse fill="none" stroke="black" cx="89.04" cy="-18" rx="89.08" ry="18"/>
<text text-anchor="middle" x="89.04" y="-14.3" font-family="Times,serif" font-size="14.00">study population</text>
</g>
<!-- cohort&#45;&gt;study population -->
<g id="edge1" class="edge">
<title>cohort&#45;&gt;study population</title>
<path fill="none" stroke="black" d="M1107.78,-103.04C1000.52,-100.27 698.99,-90.97 449.04,-69 332.13,-58.72 303.11,-53.37 187.04,-36 179.21,-34.83 171.04,-33.53 162.9,-32.19"/>
<polygon fill="black" stroke="black" points="163.46,-28.74 153.02,-30.54 162.31,-35.64 163.46,-28.74"/>
<text text-anchor="middle" x="463.04" y="-57.8" font-family="Times,serif" font-size="14.00">is_a</text>
</g>
<!-- subject of investigation -->
<g id="node3" class="node">
<title>subject of investigation</title>
<ellipse fill="none" stroke="black" cx="316.04" cy="-18" rx="119.68" ry="18"/>
<text text-anchor="middle" x="316.04" y="-14.3" font-family="Times,serif" font-size="14.00">subject of investigation</text>
</g>
<!-- cohort&#45;&gt;subject of investigation -->
<g id="edge2" class="edge">
<title>cohort&#45;&gt;subject of investigation</title>
<path fill="none" stroke="black" d="M1107.79,-103.37C1013.8,-101.49 772.71,-94.39 573.04,-69 510.05,-60.99 439.29,-46.84 387.98,-35.63"/>
<polygon fill="black" stroke="black" points="388.51,-32.16 377.99,-33.43 387,-38.99 388.51,-32.16"/>
<text text-anchor="middle" x="589.54" y="-57.8" font-family="Times,serif" font-size="14.00">uses</text>
</g>
<!-- id -->
<g id="node4" class="node">
<title>id</title>
<ellipse fill="none" stroke="blue" cx="492.04" cy="-18" rx="38.19" ry="18"/>
<text text-anchor="middle" x="492.04" y="-14.3" font-family="Times,serif" font-size="14.00">string</text>
</g>
<!-- cohort&#45;&gt;id -->
<g id="edge3" class="edge">
<title>cohort&#45;&gt;id</title>
<path fill="none" stroke="blue" d="M1107.85,-102.68C1028.55,-99.7 846.5,-90.88 695.04,-69 625.33,-58.93 607.83,-55.13 540.04,-36 536.94,-35.12 533.74,-34.15 530.54,-33.13"/>
<polygon fill="blue" stroke="blue" points="531.63,-29.8 521.04,-29.95 529.41,-36.44 531.63,-29.8"/>
<text text-anchor="middle" x="702.04" y="-57.8" font-family="Times,serif" font-size="14.00">id</text>
</g>
<!-- iri -->
<g id="node5" class="node">
<title>iri</title>
<ellipse fill="none" stroke="blue" cx="593.04" cy="-18" rx="44.39" ry="18"/>
<text text-anchor="middle" x="593.04" y="-14.3" font-family="Times,serif" font-size="14.00">iri type</text>
</g>
<!-- cohort&#45;&gt;iri -->
<g id="edge4" class="edge">
<title>cohort&#45;&gt;iri</title>
<path fill="none" stroke="blue" d="M1108.03,-102.14C1040.17,-98.56 898.34,-89.19 780.04,-69 729.87,-60.44 673.6,-44.5 636.02,-32.92"/>
<polygon fill="blue" stroke="blue" points="637,-29.56 626.41,-29.93 634.92,-36.24 637,-29.56"/>
<text text-anchor="middle" x="788.04" y="-57.8" font-family="Times,serif" font-size="14.00">iri</text>
</g>
<!-- type -->
<g id="node6" class="node">
<title>type</title>
<ellipse fill="none" stroke="blue" cx="694.04" cy="-18" rx="38.19" ry="18"/>
<text text-anchor="middle" x="694.04" y="-14.3" font-family="Times,serif" font-size="14.00">string</text>
</g>
<!-- cohort&#45;&gt;type -->
<g id="edge5" class="edge">
<title>cohort&#45;&gt;type</title>
<path fill="none" stroke="blue" d="M1108.72,-100.9C1053.66,-96.17 950.59,-85.86 864.04,-69 808.49,-58.18 795.04,-52.97 741.04,-36 738.29,-35.13 735.45,-34.21 732.61,-33.25"/>
<polygon fill="blue" stroke="blue" points="733.59,-29.88 722.99,-29.91 731.29,-36.49 733.59,-29.88"/>
<text text-anchor="middle" x="880.04" y="-57.8" font-family="Times,serif" font-size="14.00">type</text>
</g>
<!-- name -->
<g id="node7" class="node">
<title>name</title>
<ellipse fill="none" stroke="blue" cx="807.04" cy="-18" rx="56.59" ry="18"/>
<text text-anchor="middle" x="807.04" y="-14.3" font-family="Times,serif" font-size="14.00">label type</text>
</g>
<!-- cohort&#45;&gt;name -->
<g id="edge6" class="edge">
<title>cohort&#45;&gt;name</title>
<path fill="none" stroke="blue" d="M1109.64,-99.37C1068.69,-93.96 1002.13,-83.83 946.04,-69 913.03,-60.27 876.76,-47.1 849.54,-36.46"/>
<polygon fill="blue" stroke="blue" points="850.54,-33.09 839.95,-32.67 847.96,-39.6 850.54,-33.09"/>
<text text-anchor="middle" x="966.04" y="-57.8" font-family="Times,serif" font-size="14.00">name</text>
</g>
<!-- description -->
<g id="node8" class="node">
<title>description</title>
<ellipse fill="none" stroke="blue" cx="957.04" cy="-18" rx="75.29" ry="18"/>
<text text-anchor="middle" x="957.04" y="-14.3" font-family="Times,serif" font-size="14.00">narrative text</text>
</g>
<!-- cohort&#45;&gt;description -->
<g id="edge7" class="edge">
<title>cohort&#45;&gt;description</title>
<path fill="none" stroke="blue" d="M1109.18,-99.88C1079.89,-95.49 1039.52,-86.62 1008.04,-69 996.38,-62.47 985.49,-52.57 976.8,-43.3"/>
<polygon fill="blue" stroke="blue" points="979.32,-40.87 970.04,-35.75 974.1,-45.54 979.32,-40.87"/>
<text text-anchor="middle" x="1048.54" y="-57.8" font-family="Times,serif" font-size="14.00">description</text>
</g>
<!-- deprecated -->
<g id="node9" class="node">
<title>deprecated</title>
<ellipse fill="none" stroke="blue" cx="1097.04" cy="-18" rx="46.59" ry="18"/>
<text text-anchor="middle" x="1097.04" y="-14.3" font-family="Times,serif" font-size="14.00">boolean</text>
</g>
<!-- cohort&#45;&gt;deprecated -->
<g id="edge8" class="edge">
<title>cohort&#45;&gt;deprecated</title>
<path fill="none" stroke="blue" d="M1120.42,-91.76C1111.28,-86.22 1102.15,-78.69 1097.04,-69 1093.43,-62.14 1092.34,-53.97 1092.45,-46.25"/>
<polygon fill="blue" stroke="blue" points="1095.95,-46.4 1093.22,-36.16 1088.97,-45.86 1095.95,-46.4"/>
<text text-anchor="middle" x="1137.54" y="-57.8" font-family="Times,serif" font-size="14.00">deprecated</text>
</g>
<!-- provided by -->
<g id="node10" class="node">
<title>provided by</title>
<ellipse fill="none" stroke="blue" cx="1200.04" cy="-18" rx="38.19" ry="18"/>
<text text-anchor="middle" x="1200.04" y="-14.3" font-family="Times,serif" font-size="14.00">string</text>
</g>
<!-- cohort&#45;&gt;provided by -->
<g id="edge9" class="edge">
<title>cohort&#45;&gt;provided by</title>
<path fill="none" stroke="blue" d="M1163.45,-88.05C1168.49,-82.32 1173.87,-75.64 1178.04,-69 1182.66,-61.66 1186.78,-53.19 1190.18,-45.33"/>
<polygon fill="blue" stroke="blue" points="1193.52,-46.41 1194.07,-35.83 1187.04,-43.76 1193.52,-46.41"/>
<text text-anchor="middle" x="1228.54" y="-57.8" font-family="Times,serif" font-size="14.00">provided by</text>
</g>
<!-- xref -->
<g id="node11" class="node">
<title>xref</title>
<ellipse fill="none" stroke="blue" cx="1314.04" cy="-18" rx="57.39" ry="18"/>
<text text-anchor="middle" x="1314.04" y="-14.3" font-family="Times,serif" font-size="14.00">uriorcurie</text>
</g>
<!-- cohort&#45;&gt;xref -->
<g id="edge10" class="edge">
<title>cohort&#45;&gt;xref</title>
<path fill="none" stroke="blue" d="M1178.2,-92.97C1184.39,-90.86 1190.9,-88.77 1197.04,-87 1231.23,-77.16 1245.04,-88.13 1275.04,-69 1284.75,-62.81 1293.03,-53.33 1299.44,-44.29"/>
<polygon fill="blue" stroke="blue" points="1302.41,-46.15 1304.99,-35.87 1296.56,-42.29 1302.41,-46.15"/>
<text text-anchor="middle" x="1306.54" y="-57.8" font-family="Times,serif" font-size="14.00">xref</text>
</g>
<!-- full name -->
<g id="node12" class="node">
<title>full name</title>
<ellipse fill="none" stroke="blue" cx="1446.04" cy="-18" rx="56.59" ry="18"/>
<text text-anchor="middle" x="1446.04" y="-14.3" font-family="Times,serif" font-size="14.00">label type</text>
</g>
<!-- cohort&#45;&gt;full name -->
<g id="edge11" class="edge">
<title>cohort&#45;&gt;full name</title>
<path fill="none" stroke="blue" d="M1177.57,-92.72C1183.92,-90.59 1190.65,-88.54 1197.04,-87 1252.89,-73.52 1269.61,-84.09 1325.04,-69 1353.57,-61.23 1384.35,-48.45 1407.72,-37.75"/>
<polygon fill="blue" stroke="blue" points="1409.34,-40.86 1416.94,-33.47 1406.39,-34.51 1409.34,-40.86"/>
<text text-anchor="middle" x="1403.54" y="-57.8" font-family="Times,serif" font-size="14.00">full name</text>
</g>
<!-- synonym -->
<g id="node13" class="node">
<title>synonym</title>
<ellipse fill="none" stroke="blue" cx="1577.04" cy="-18" rx="56.59" ry="18"/>
<text text-anchor="middle" x="1577.04" y="-14.3" font-family="Times,serif" font-size="14.00">label type</text>
</g>
<!-- cohort&#45;&gt;synonym -->
<g id="edge12" class="edge">
<title>cohort&#45;&gt;synonym</title>
<path fill="none" stroke="blue" d="M1177.23,-92.48C1183.67,-90.34 1190.52,-88.35 1197.04,-87 1303.53,-64.99 1334.76,-91.98 1441.04,-69 1474.22,-61.83 1510.2,-48.32 1536.82,-37.16"/>
<polygon fill="blue" stroke="blue" points="1538.35,-40.31 1546.18,-33.17 1535.61,-33.87 1538.35,-40.31"/>
<text text-anchor="middle" x="1523.04" y="-57.8" font-family="Times,serif" font-size="14.00">synonym</text>
</g>
<!-- category -->
<g id="node14" class="node">
<title>category</title>
<ellipse fill="none" stroke="black" cx="1703.04" cy="-18" rx="51.19" ry="18"/>
<text text-anchor="middle" x="1703.04" y="-14.3" font-family="Times,serif" font-size="14.00">category</text>
</g>
<!-- cohort&#45;&gt;category -->
<g id="edge13" class="edge">
<title>cohort&#45;&gt;category</title>
<path fill="none" stroke="blue" d="M1176.95,-92.45C1183.46,-90.28 1190.41,-88.29 1197.04,-87 1355.18,-56.29 1400.91,-99.73 1559.04,-69 1595.06,-62 1634.31,-47.92 1662.71,-36.47"/>
<polygon fill="blue" stroke="blue" points="1664.36,-39.58 1672.29,-32.55 1661.71,-33.1 1664.36,-39.58"/>
<text text-anchor="middle" x="1643.54" y="-57.8" font-family="Times,serif" font-size="14.00">category</text>
</g>
<!-- in taxon -->
<g id="node16" class="node">
<title>in taxon</title>
<ellipse fill="none" stroke="blue" cx="1856.04" cy="-18" rx="83.39" ry="18"/>
<text text-anchor="middle" x="1856.04" y="-14.3" font-family="Times,serif" font-size="14.00">organism taxon</text>
</g>
<!-- cohort&#45;&gt;in taxon -->
<g id="edge14" class="edge">
<title>cohort&#45;&gt;in taxon</title>
<path fill="none" stroke="blue" d="M1176.94,-92.39C1183.45,-90.22 1190.4,-88.25 1197.04,-87 1407.73,-47.43 1467.28,-102.37 1679.04,-69 1722.43,-62.16 1770.3,-48.23 1805.31,-36.81"/>
<polygon fill="blue" stroke="blue" points="1806.43,-40.13 1814.82,-33.66 1804.23,-33.48 1806.43,-40.13"/>
<text text-anchor="middle" x="1773.04" y="-57.8" font-family="Times,serif" font-size="14.00">in taxon</text>
</g>
<!-- in taxon label -->
<g id="node17" class="node">
<title>in taxon label</title>
<ellipse fill="none" stroke="blue" cx="2014.04" cy="-18" rx="56.59" ry="18"/>
<text text-anchor="middle" x="2014.04" y="-14.3" font-family="Times,serif" font-size="14.00">label type</text>
</g>
<!-- cohort&#45;&gt;in taxon label -->
<g id="edge15" class="edge">
<title>cohort&#45;&gt;in taxon label</title>
<path fill="none" stroke="blue" d="M1176.93,-92.35C1183.44,-90.19 1190.4,-88.22 1197.04,-87 1330.2,-62.53 1671.77,-86.41 1806.04,-69 1861.45,-61.82 1923.57,-45.81 1965.37,-33.83"/>
<polygon fill="blue" stroke="blue" points="1966.39,-37.18 1975.02,-31.03 1964.44,-30.45 1966.39,-37.18"/>
<text text-anchor="middle" x="1935.54" y="-57.8" font-family="Times,serif" font-size="14.00">in taxon label</text>
</g>
<!-- has attribute -->
<g id="node18" class="node">
<title>has attribute</title>
<ellipse fill="none" stroke="black" cx="2160.04" cy="-18" rx="71.49" ry="18"/>
<text text-anchor="middle" x="2160.04" y="-14.3" font-family="Times,serif" font-size="14.00">has attribute</text>
</g>
<!-- cohort&#45;&gt;has attribute -->
<g id="edge16" class="edge">
<title>cohort&#45;&gt;has attribute</title>
<path fill="none" stroke="blue" d="M1176.92,-92.32C1183.44,-90.15 1190.4,-88.2 1197.04,-87 1370.08,-55.81 1814.27,-95.77 1988.04,-69 2030.84,-62.41 2077.97,-48.19 2112.06,-36.6"/>
<polygon fill="blue" stroke="blue" points="2113.44,-39.82 2121.75,-33.25 2111.16,-33.21 2113.44,-39.82"/>
<text text-anchor="middle" x="2102.04" y="-57.8" font-family="Times,serif" font-size="14.00">has attribute</text>
</g>
<!-- named thing_category -->
<g id="node15" class="node">
<title>named thing_category</title>
<ellipse fill="none" stroke="blue" cx="1281.04" cy="-105" rx="74.99" ry="18"/>
<text text-anchor="middle" x="1281.04" y="-101.3" font-family="Times,serif" font-size="14.00">category type</text>
</g>
<!-- organismal entity_has attribute -->
<g id="node19" class="node">
<title>organismal entity_has attribute</title>
<ellipse fill="none" stroke="blue" cx="1426.04" cy="-105" rx="51.99" ry="18"/>
<text text-anchor="middle" x="1426.04" y="-101.3" font-family="Times,serif" font-size="14.00">attribute</text>
</g>
</g>
</svg>
