<?xml version="1.0" encoding="UTF-8" standalone="no"?>
<!DOCTYPE svg PUBLIC "-//W3C//DTD SVG 1.1//EN"
 "http://www.w3.org/Graphics/SVG/1.1/DTD/svg11.dtd">
<!-- Generated by graphviz version 2.43.0 (0)
 -->
<!-- Title: %3 Pages: 1 -->
<svg width="1736pt" height="131pt"
 viewBox="0.00 0.00 1735.54 131.00" xmlns="http://www.w3.org/2000/svg" xmlns:xlink="http://www.w3.org/1999/xlink">
<g id="graph0" class="graph" transform="scale(1 1) rotate(0) translate(4 127)">
<title>%3</title>
<polygon fill="white" stroke="transparent" points="-4,4 -4,-127 1731.54,-127 1731.54,4 -4,4"/>
<!-- cohort -->
<g id="node1" class="node">
<title>cohort</title>
<ellipse fill="none" stroke="black" cx="882.04" cy="-105" rx="40.09" ry="18"/>
<text text-anchor="middle" x="882.04" y="-101.3" font-family="Times,serif" font-size="14.00">cohort</text>
</g>
<!-- study population -->
<g id="node2" class="node">
<title>study population</title>
<ellipse fill="none" stroke="black" cx="89.04" cy="-18" rx="89.08" ry="18"/>
<text text-anchor="middle" x="89.04" y="-14.3" font-family="Times,serif" font-size="14.00">study population</text>
</g>
<!-- cohort&#45;&gt;study population -->
<g id="edge1" class="edge">
<title>cohort&#45;&gt;study population</title>
<path fill="none" stroke="black" d="M842.31,-101.47C735.77,-94.41 435.02,-72.53 187.04,-36 179.21,-34.85 171.04,-33.56 162.9,-32.23"/>
<polygon fill="black" stroke="black" points="163.45,-28.77 153.02,-30.58 162.31,-35.68 163.45,-28.77"/>
<text text-anchor="middle" x="468.04" y="-57.8" font-family="Times,serif" font-size="14.00">is_a</text>
</g>
<!-- subject of investigation -->
<g id="node3" class="node">
<title>subject of investigation</title>
<ellipse fill="none" stroke="black" cx="316.04" cy="-18" rx="119.68" ry="18"/>
<text text-anchor="middle" x="316.04" y="-14.3" font-family="Times,serif" font-size="14.00">subject of investigation</text>
</g>
<!-- cohort&#45;&gt;subject of investigation -->
<g id="edge2" class="edge">
<title>cohort&#45;&gt;subject of investigation</title>
<path fill="none" stroke="black" d="M842.92,-100.46C784.76,-94.98 672.14,-83.54 577.04,-69 514.38,-59.42 443.8,-45.72 391.85,-35.08"/>
<polygon fill="black" stroke="black" points="392.55,-31.65 382.05,-33.06 391.14,-38.51 392.55,-31.65"/>
<text text-anchor="middle" x="593.54" y="-57.8" font-family="Times,serif" font-size="14.00">uses</text>
</g>
<!-- id -->
<g id="node4" class="node">
<title>id</title>
<ellipse fill="none" stroke="blue" cx="492.04" cy="-18" rx="38.19" ry="18"/>
<text text-anchor="middle" x="492.04" y="-14.3" font-family="Times,serif" font-size="14.00">string</text>
</g>
<!-- cohort&#45;&gt;id -->
<g id="edge3" class="edge">
<title>cohort&#45;&gt;id</title>
<path fill="none" stroke="blue" d="M844.37,-98.59C780.85,-89 648.74,-67.08 540.04,-36 536.94,-35.11 533.75,-34.13 530.55,-33.11"/>
<polygon fill="blue" stroke="blue" points="531.64,-29.78 521.05,-29.92 529.42,-36.42 531.64,-29.78"/>
<text text-anchor="middle" x="678.04" y="-57.8" font-family="Times,serif" font-size="14.00">id</text>
</g>
<!-- iri -->
<g id="node5" class="node">
<title>iri</title>
<ellipse fill="none" stroke="blue" cx="593.04" cy="-18" rx="44.39" ry="18"/>
<text text-anchor="middle" x="593.04" y="-14.3" font-family="Times,serif" font-size="14.00">iri type</text>
</g>
<!-- cohort&#45;&gt;iri -->
<g id="edge4" class="edge">
<title>cohort&#45;&gt;iri</title>
<path fill="none" stroke="blue" d="M848.57,-94.81C823.37,-87.84 787.99,-77.98 757.04,-69 708.02,-54.78 695.83,-51 647.04,-36 643.55,-34.93 639.93,-33.81 636.3,-32.67"/>
<polygon fill="blue" stroke="blue" points="637.31,-29.32 626.72,-29.68 635.22,-36.01 637.31,-29.32"/>
<text text-anchor="middle" x="765.04" y="-57.8" font-family="Times,serif" font-size="14.00">iri</text>
</g>
<!-- type -->
<g id="node6" class="node">
<title>type</title>
<ellipse fill="none" stroke="blue" cx="694.04" cy="-18" rx="38.19" ry="18"/>
<text text-anchor="middle" x="694.04" y="-14.3" font-family="Times,serif" font-size="14.00">string</text>
</g>
<!-- cohort&#45;&gt;type -->
<g id="edge5" class="edge">
<title>cohort&#45;&gt;type</title>
<path fill="none" stroke="blue" d="M854.71,-91.64C821.8,-76.76 766.44,-51.73 730.07,-35.29"/>
<polygon fill="blue" stroke="blue" points="731.36,-32.03 720.8,-31.1 728.47,-38.41 731.36,-32.03"/>
<text text-anchor="middle" x="816.04" y="-57.8" font-family="Times,serif" font-size="14.00">type</text>
</g>
<!-- name -->
<g id="node7" class="node">
<title>name</title>
<ellipse fill="none" stroke="blue" cx="807.04" cy="-18" rx="56.59" ry="18"/>
<text text-anchor="middle" x="807.04" y="-14.3" font-family="Times,serif" font-size="14.00">label type</text>
</g>
<!-- cohort&#45;&gt;name -->
<g id="edge6" class="edge">
<title>cohort&#45;&gt;name</title>
<path fill="none" stroke="blue" d="M867.94,-88.01C856.76,-75.35 840.98,-57.47 828.29,-43.08"/>
<polygon fill="blue" stroke="blue" points="830.84,-40.68 821.6,-35.5 825.59,-45.31 830.84,-40.68"/>
<text text-anchor="middle" x="869.04" y="-57.8" font-family="Times,serif" font-size="14.00">name</text>
</g>
<!-- description -->
<g id="node8" class="node">
<title>description</title>
<ellipse fill="none" stroke="blue" cx="957.04" cy="-18" rx="75.29" ry="18"/>
<text text-anchor="middle" x="957.04" y="-14.3" font-family="Times,serif" font-size="14.00">narrative text</text>
</g>
<!-- cohort&#45;&gt;description -->
<g id="edge7" class="edge">
<title>cohort&#45;&gt;description</title>
<path fill="none" stroke="blue" d="M896.15,-88.01C907.25,-75.43 922.9,-57.7 935.55,-43.35"/>
<polygon fill="blue" stroke="blue" points="938.24,-45.6 942.23,-35.79 932.99,-40.97 938.24,-45.6"/>
<text text-anchor="middle" x="964.54" y="-57.8" font-family="Times,serif" font-size="14.00">description</text>
</g>
<!-- provided by -->
<g id="node9" class="node">
<title>provided by</title>
<ellipse fill="none" stroke="blue" cx="1089.04" cy="-18" rx="38.19" ry="18"/>
<text text-anchor="middle" x="1089.04" y="-14.3" font-family="Times,serif" font-size="14.00">string</text>
</g>
<!-- cohort&#45;&gt;provided by -->
<g id="edge8" class="edge">
<title>cohort&#45;&gt;provided by</title>
<path fill="none" stroke="blue" d="M912.2,-92.97C918.39,-90.86 924.9,-88.77 931.04,-87 965.23,-77.16 976.17,-82.62 1009.04,-69 1027.51,-61.35 1046.55,-49.63 1061.42,-39.46"/>
<polygon fill="blue" stroke="blue" points="1063.48,-42.29 1069.66,-33.69 1059.46,-36.56 1063.48,-42.29"/>
<text text-anchor="middle" x="1079.54" y="-57.8" font-family="Times,serif" font-size="14.00">provided by</text>
</g>
<!-- xref -->
<g id="node10" class="node">
<title>xref</title>
<ellipse fill="none" stroke="blue" cx="1203.04" cy="-18" rx="57.39" ry="18"/>
<text text-anchor="middle" x="1203.04" y="-14.3" font-family="Times,serif" font-size="14.00">uriorcurie</text>
</g>
<!-- cohort&#45;&gt;xref -->
<g id="edge9" class="edge">
<title>cohort&#45;&gt;xref</title>
<path fill="none" stroke="blue" d="M911.25,-92.58C917.69,-90.42 924.53,-88.41 931.04,-87 1016.11,-68.6 1043.82,-97.53 1126.04,-69 1144,-62.77 1161.93,-51.49 1175.97,-41.23"/>
<polygon fill="blue" stroke="blue" points="1178.31,-43.84 1184.17,-35.02 1174.09,-38.26 1178.31,-43.84"/>
<text text-anchor="middle" x="1170.54" y="-57.8" font-family="Times,serif" font-size="14.00">xref</text>
</g>
<!-- category -->
<g id="node11" class="node">
<title>category</title>
<ellipse fill="none" stroke="black" cx="1330.04" cy="-18" rx="51.19" ry="18"/>
<text text-anchor="middle" x="1330.04" y="-14.3" font-family="Times,serif" font-size="14.00">category</text>
</g>
<!-- cohort&#45;&gt;category -->
<g id="edge10" class="edge">
<title>cohort&#45;&gt;category</title>
<path fill="none" stroke="blue" d="M911.23,-92.47C917.67,-90.32 924.51,-88.34 931.04,-87 1043.65,-63.96 1076.51,-92.42 1189.04,-69 1224.07,-61.71 1262.23,-47.79 1290.01,-36.48"/>
<polygon fill="blue" stroke="blue" points="1291.47,-39.66 1299.38,-32.61 1288.8,-33.19 1291.47,-39.66"/>
<text text-anchor="middle" x="1272.54" y="-57.8" font-family="Times,serif" font-size="14.00">category</text>
</g>
<!-- in taxon -->
<g id="node13" class="node">
<title>in taxon</title>
<ellipse fill="none" stroke="blue" cx="1483.04" cy="-18" rx="83.39" ry="18"/>
<text text-anchor="middle" x="1483.04" y="-14.3" font-family="Times,serif" font-size="14.00">organism taxon</text>
</g>
<!-- cohort&#45;&gt;in taxon -->
<g id="edge11" class="edge">
<title>cohort&#45;&gt;in taxon</title>
<path fill="none" stroke="blue" d="M910.95,-92.44C917.46,-90.27 924.41,-88.28 931.04,-87 1095.74,-55.18 1142.52,-96.22 1308.04,-69 1350.61,-62 1397.54,-48.25 1432.08,-36.93"/>
<polygon fill="blue" stroke="blue" points="1433.55,-40.13 1441.93,-33.66 1431.34,-33.49 1433.55,-40.13"/>
<text text-anchor="middle" x="1401.04" y="-57.8" font-family="Times,serif" font-size="14.00">in taxon</text>
</g>
<!-- has attribute -->
<g id="node14" class="node">
<title>has attribute</title>
<ellipse fill="none" stroke="black" cx="1656.04" cy="-18" rx="71.49" ry="18"/>
<text text-anchor="middle" x="1656.04" y="-14.3" font-family="Times,serif" font-size="14.00">has attribute</text>
</g>
<!-- cohort&#45;&gt;has attribute -->
<g id="edge12" class="edge">
<title>cohort&#45;&gt;has attribute</title>
<path fill="none" stroke="blue" d="M910.93,-92.38C917.45,-90.21 924.4,-88.24 931.04,-87 1150.93,-45.88 1212.19,-97.7 1434.04,-69 1491.41,-61.58 1555.78,-46.29 1600.38,-34.56"/>
<polygon fill="blue" stroke="blue" points="1601.38,-37.92 1610.14,-31.96 1599.58,-31.15 1601.38,-37.92"/>
<text text-anchor="middle" x="1562.04" y="-57.8" font-family="Times,serif" font-size="14.00">has attribute</text>
</g>
<!-- named thing_category -->
<g id="node12" class="node">
<title>named thing_category</title>
<ellipse fill="none" stroke="blue" cx="1015.04" cy="-105" rx="74.99" ry="18"/>
<text text-anchor="middle" x="1015.04" y="-101.3" font-family="Times,serif" font-size="14.00">category type</text>
</g>
<!-- organismal entity_has attribute -->
<g id="node15" class="node">
<title>organismal entity_has attribute</title>
<ellipse fill="none" stroke="blue" cx="1160.04" cy="-105" rx="51.99" ry="18"/>
<text text-anchor="middle" x="1160.04" y="-101.3" font-family="Times,serif" font-size="14.00">attribute</text>
</g>
</g>
</svg>
