<?xml version="1.0" encoding="UTF-8" standalone="no"?>
<!DOCTYPE svg PUBLIC "-//W3C//DTD SVG 1.1//EN"
 "http://www.w3.org/Graphics/SVG/1.1/DTD/svg11.dtd">
<!-- Generated by graphviz version 2.43.0 (0)
 -->
<!-- Title: %3 Pages: 1 -->
<svg width="2081pt" height="131pt"
 viewBox="0.00 0.00 2081.44 131.00" xmlns="http://www.w3.org/2000/svg" xmlns:xlink="http://www.w3.org/1999/xlink">
<g id="graph0" class="graph" transform="scale(1 1) rotate(0) translate(4 127)">
<title>%3</title>
<polygon fill="white" stroke="transparent" points="-4,4 -4,-127 2077.44,-127 2077.44,4 -4,4"/>
<!-- common data element -->
<g id="node1" class="node">
<title>common data element</title>
<ellipse fill="none" stroke="black" cx="1154.24" cy="-105" rx="113.98" ry="18"/>
<text text-anchor="middle" x="1154.24" y="-101.3" font-family="Times,serif" font-size="14.00">common data element</text>
</g>
<!-- information content entity -->
<g id="node2" class="node">
<title>information content entity</title>
<ellipse fill="none" stroke="black" cx="133.24" cy="-18" rx="133.48" ry="18"/>
<text text-anchor="middle" x="133.24" y="-14.3" font-family="Times,serif" font-size="14.00">information content entity</text>
</g>
<!-- common data element&#45;&gt;information content entity -->
<g id="edge1" class="edge">
<title>common data element&#45;&gt;information content entity</title>
<path fill="none" stroke="black" d="M1040.75,-103.36C894.19,-101.46 631.43,-94.41 408.24,-69 340.61,-61.3 264.53,-47.03 209.56,-35.7"/>
<polygon fill="black" stroke="black" points="210.06,-32.22 199.55,-33.62 208.63,-39.08 210.06,-32.22"/>
<text text-anchor="middle" x="422.24" y="-57.8" font-family="Times,serif" font-size="14.00">is_a</text>
</g>
<!-- id -->
<g id="node3" class="node">
<title>id</title>
<ellipse fill="none" stroke="blue" cx="323.24" cy="-18" rx="38.19" ry="18"/>
<text text-anchor="middle" x="323.24" y="-14.3" font-family="Times,serif" font-size="14.00">string</text>
</g>
<!-- common data element&#45;&gt;id -->
<g id="edge2" class="edge">
<title>common data element&#45;&gt;id</title>
<path fill="none" stroke="blue" d="M1041.15,-102.93C915.04,-100.53 705.23,-92.9 526.24,-69 456.42,-59.68 439.02,-55.13 371.24,-36 368.13,-35.12 364.94,-34.15 361.74,-33.13"/>
<polygon fill="blue" stroke="blue" points="362.83,-29.8 352.23,-29.95 360.61,-36.44 362.83,-29.8"/>
<text text-anchor="middle" x="533.24" y="-57.8" font-family="Times,serif" font-size="14.00">id</text>
</g>
<!-- iri -->
<g id="node4" class="node">
<title>iri</title>
<ellipse fill="none" stroke="blue" cx="424.24" cy="-18" rx="44.39" ry="18"/>
<text text-anchor="middle" x="424.24" y="-14.3" font-family="Times,serif" font-size="14.00">iri type</text>
</g>
<!-- common data element&#45;&gt;iri -->
<g id="edge3" class="edge">
<title>common data element&#45;&gt;iri</title>
<path fill="none" stroke="blue" d="M1041.5,-102.52C931.43,-99.71 759.48,-91.7 612.24,-69 561.53,-61.18 504.79,-45.03 467.05,-33.2"/>
<polygon fill="blue" stroke="blue" points="467.99,-29.82 457.4,-30.13 465.87,-36.5 467.99,-29.82"/>
<text text-anchor="middle" x="620.24" y="-57.8" font-family="Times,serif" font-size="14.00">iri</text>
</g>
<!-- type -->
<g id="node5" class="node">
<title>type</title>
<ellipse fill="none" stroke="blue" cx="525.24" cy="-18" rx="38.19" ry="18"/>
<text text-anchor="middle" x="525.24" y="-14.3" font-family="Times,serif" font-size="14.00">string</text>
</g>
<!-- common data element&#45;&gt;type -->
<g id="edge4" class="edge">
<title>common data element&#45;&gt;type</title>
<path fill="none" stroke="blue" d="M1043.29,-100.79C951.18,-96.85 817,-88.13 701.24,-69 642.85,-59.35 628.8,-53.42 572.24,-36 569.48,-35.15 566.64,-34.23 563.79,-33.28"/>
<polygon fill="blue" stroke="blue" points="564.77,-29.92 554.17,-29.96 562.48,-36.53 564.77,-29.92"/>
<text text-anchor="middle" x="717.24" y="-57.8" font-family="Times,serif" font-size="14.00">type</text>
</g>
<!-- name -->
<g id="node6" class="node">
<title>name</title>
<ellipse fill="none" stroke="blue" cx="638.24" cy="-18" rx="56.59" ry="18"/>
<text text-anchor="middle" x="638.24" y="-14.3" font-family="Times,serif" font-size="14.00">label type</text>
</g>
<!-- common data element&#45;&gt;name -->
<g id="edge5" class="edge">
<title>common data element&#45;&gt;name</title>
<path fill="none" stroke="blue" d="M1045.2,-99.65C972.86,-95.25 876.15,-86.46 792.24,-69 754.12,-61.07 712.17,-47.08 681.69,-35.92"/>
<polygon fill="blue" stroke="blue" points="682.81,-32.6 672.22,-32.4 680.37,-39.16 682.81,-32.6"/>
<text text-anchor="middle" x="812.24" y="-57.8" font-family="Times,serif" font-size="14.00">name</text>
</g>
<!-- description -->
<g id="node7" class="node">
<title>description</title>
<ellipse fill="none" stroke="blue" cx="788.24" cy="-18" rx="75.29" ry="18"/>
<text text-anchor="middle" x="788.24" y="-14.3" font-family="Times,serif" font-size="14.00">narrative text</text>
</g>
<!-- common data element&#45;&gt;description -->
<g id="edge6" class="edge">
<title>common data element&#45;&gt;description</title>
<path fill="none" stroke="blue" d="M1041.62,-102.41C986.71,-98.66 920.55,-89.62 864.24,-69 846.92,-62.66 829.59,-51.7 815.86,-41.66"/>
<polygon fill="blue" stroke="blue" points="817.9,-38.81 807.81,-35.57 813.68,-44.39 817.9,-38.81"/>
<text text-anchor="middle" x="904.74" y="-57.8" font-family="Times,serif" font-size="14.00">description</text>
</g>
<!-- has attribute -->
<g id="node8" class="node">
<title>has attribute</title>
<ellipse fill="none" stroke="blue" cx="933.24" cy="-18" rx="51.99" ry="18"/>
<text text-anchor="middle" x="933.24" y="-14.3" font-family="Times,serif" font-size="14.00">attribute</text>
</g>
<!-- common data element&#45;&gt;has attribute -->
<g id="edge7" class="edge">
<title>common data element&#45;&gt;has attribute</title>
<path fill="none" stroke="blue" d="M1061.53,-94.51C1020.84,-88.87 978.63,-80.52 962.24,-69 953.92,-63.15 947.64,-54.1 943.09,-45.29"/>
<polygon fill="blue" stroke="blue" points="946.18,-43.62 938.82,-36 939.82,-46.55 946.18,-43.62"/>
<text text-anchor="middle" x="1009.24" y="-57.8" font-family="Times,serif" font-size="14.00">has attribute</text>
</g>
<!-- deprecated -->
<g id="node9" class="node">
<title>deprecated</title>
<ellipse fill="none" stroke="blue" cx="1050.24" cy="-18" rx="46.59" ry="18"/>
<text text-anchor="middle" x="1050.24" y="-14.3" font-family="Times,serif" font-size="14.00">boolean</text>
</g>
<!-- common data element&#45;&gt;deprecated -->
<g id="edge8" class="edge">
<title>common data element&#45;&gt;deprecated</title>
<path fill="none" stroke="blue" d="M1099.37,-89.12C1088.34,-84.14 1077.58,-77.58 1069.24,-69 1063.07,-62.66 1058.86,-54.11 1056.01,-45.88"/>
<polygon fill="blue" stroke="blue" points="1059.33,-44.78 1053.16,-36.17 1052.61,-46.75 1059.33,-44.78"/>
<text text-anchor="middle" x="1109.74" y="-57.8" font-family="Times,serif" font-size="14.00">deprecated</text>
</g>
<!-- provided by -->
<g id="node10" class="node">
<title>provided by</title>
<ellipse fill="none" stroke="blue" cx="1153.24" cy="-18" rx="38.19" ry="18"/>
<text text-anchor="middle" x="1153.24" y="-14.3" font-family="Times,serif" font-size="14.00">string</text>
</g>
<!-- common data element&#45;&gt;provided by -->
<g id="edge9" class="edge">
<title>common data element&#45;&gt;provided by</title>
<path fill="none" stroke="blue" d="M1154.04,-86.8C1153.9,-75.16 1153.72,-59.55 1153.56,-46.24"/>
<polygon fill="blue" stroke="blue" points="1157.06,-46.13 1153.44,-36.18 1150.06,-46.22 1157.06,-46.13"/>
<text text-anchor="middle" x="1196.74" y="-57.8" font-family="Times,serif" font-size="14.00">provided by</text>
</g>
<!-- xref -->
<g id="node11" class="node">
<title>xref</title>
<ellipse fill="none" stroke="blue" cx="1267.24" cy="-18" rx="57.39" ry="18"/>
<text text-anchor="middle" x="1267.24" y="-14.3" font-family="Times,serif" font-size="14.00">uriorcurie</text>
</g>
<!-- common data element&#45;&gt;xref -->
<g id="edge10" class="edge">
<title>common data element&#45;&gt;xref</title>
<path fill="none" stroke="blue" d="M1210.66,-89.17C1222.4,-84.17 1234,-77.59 1243.24,-69 1250.03,-62.69 1255.11,-54.05 1258.8,-45.72"/>
<polygon fill="blue" stroke="blue" points="1262.12,-46.85 1262.52,-36.26 1255.61,-44.29 1262.12,-46.85"/>
<text text-anchor="middle" x="1268.74" y="-57.8" font-family="Times,serif" font-size="14.00">xref</text>
</g>
<!-- full name -->
<g id="node12" class="node">
<title>full name</title>
<ellipse fill="none" stroke="blue" cx="1399.24" cy="-18" rx="56.59" ry="18"/>
<text text-anchor="middle" x="1399.24" y="-14.3" font-family="Times,serif" font-size="14.00">label type</text>
</g>
<!-- common data element&#45;&gt;full name -->
<g id="edge11" class="edge">
<title>common data element&#45;&gt;full name</title>
<path fill="none" stroke="blue" d="M1216.45,-89.85C1238.99,-84.15 1264.49,-77.01 1287.24,-69 1312.43,-60.13 1339.83,-47.95 1361.22,-37.83"/>
<polygon fill="blue" stroke="blue" points="1362.78,-40.96 1370.29,-33.49 1359.76,-34.64 1362.78,-40.96"/>
<text text-anchor="middle" x="1358.74" y="-57.8" font-family="Times,serif" font-size="14.00">full name</text>
</g>
<!-- synonym -->
<g id="node13" class="node">
<title>synonym</title>
<ellipse fill="none" stroke="blue" cx="1530.24" cy="-18" rx="56.59" ry="18"/>
<text text-anchor="middle" x="1530.24" y="-14.3" font-family="Times,serif" font-size="14.00">label type</text>
</g>
<!-- common data element&#45;&gt;synonym -->
<g id="edge12" class="edge">
<title>common data element&#45;&gt;synonym</title>
<path fill="none" stroke="blue" d="M1236.42,-92.54C1303.47,-83.12 1388.37,-71.01 1396.24,-69 1428.13,-60.84 1462.92,-47.73 1489.06,-36.97"/>
<polygon fill="blue" stroke="blue" points="1490.75,-40.06 1498.63,-32.98 1488.06,-33.6 1490.75,-40.06"/>
<text text-anchor="middle" x="1474.24" y="-57.8" font-family="Times,serif" font-size="14.00">synonym</text>
</g>
<!-- category -->
<g id="node14" class="node">
<title>category</title>
<ellipse fill="none" stroke="black" cx="1656.24" cy="-18" rx="51.19" ry="18"/>
<text text-anchor="middle" x="1656.24" y="-14.3" font-family="Times,serif" font-size="14.00">category</text>
</g>
<!-- common data element&#45;&gt;category -->
<g id="edge13" class="edge">
<title>common data element&#45;&gt;category</title>
<path fill="none" stroke="blue" d="M1234.21,-92.14C1248.2,-90.27 1262.63,-88.47 1276.24,-87 1379.94,-75.8 1408.08,-90.07 1510.24,-69 1546.78,-61.46 1586.77,-47.33 1615.64,-36.01"/>
<polygon fill="blue" stroke="blue" points="1616.99,-39.24 1624.99,-32.29 1614.4,-32.74 1616.99,-39.24"/>
<text text-anchor="middle" x="1595.74" y="-57.8" font-family="Times,serif" font-size="14.00">category</text>
</g>
<!-- license -->
<g id="node16" class="node">
<title>license</title>
<ellipse fill="none" stroke="blue" cx="1764.24" cy="-18" rx="38.19" ry="18"/>
<text text-anchor="middle" x="1764.24" y="-14.3" font-family="Times,serif" font-size="14.00">string</text>
</g>
<!-- common data element&#45;&gt;license -->
<g id="edge14" class="edge">
<title>common data element&#45;&gt;license</title>
<path fill="none" stroke="blue" d="M1233.2,-91.97C1247.5,-90.08 1262.29,-88.32 1276.24,-87 1433.51,-72.08 1476.57,-101.18 1631.24,-69 1665.65,-61.84 1702.96,-47.16 1729.28,-35.55"/>
<polygon fill="blue" stroke="blue" points="1730.77,-38.72 1738.46,-31.43 1727.9,-32.33 1730.77,-38.72"/>
<text text-anchor="middle" x="1705.24" y="-57.8" font-family="Times,serif" font-size="14.00">license</text>
</g>
<!-- rights -->
<g id="node17" class="node">
<title>rights</title>
<ellipse fill="none" stroke="blue" cx="1859.24" cy="-18" rx="38.19" ry="18"/>
<text text-anchor="middle" x="1859.24" y="-14.3" font-family="Times,serif" font-size="14.00">string</text>
</g>
<!-- common data element&#45;&gt;rights -->
<g id="edge15" class="edge">
<title>common data element&#45;&gt;rights</title>
<path fill="none" stroke="blue" d="M1232.53,-91.92C1247.03,-90.02 1262.07,-88.26 1276.24,-87 1377.69,-77.96 1634.62,-90.22 1734.24,-69 1766.12,-62.21 1800.37,-47.97 1824.94,-36.42"/>
<polygon fill="blue" stroke="blue" points="1826.68,-39.47 1834.19,-31.99 1823.66,-33.16 1826.68,-39.47"/>
<text text-anchor="middle" x="1805.74" y="-57.8" font-family="Times,serif" font-size="14.00">rights</text>
</g>
<!-- format -->
<g id="node18" class="node">
<title>format</title>
<ellipse fill="none" stroke="blue" cx="1954.24" cy="-18" rx="38.19" ry="18"/>
<text text-anchor="middle" x="1954.24" y="-14.3" font-family="Times,serif" font-size="14.00">string</text>
</g>
<!-- common data element&#45;&gt;format -->
<g id="edge16" class="edge">
<title>common data element&#45;&gt;format</title>
<path fill="none" stroke="blue" d="M1232.2,-91.88C1246.8,-89.97 1261.96,-88.22 1276.24,-87 1399.19,-76.47 1710.53,-94.63 1831.24,-69 1862.69,-62.32 1896.38,-48.08 1920.54,-36.49"/>
<polygon fill="blue" stroke="blue" points="1922.18,-39.59 1929.63,-32.05 1919.11,-33.3 1922.18,-39.59"/>
<text text-anchor="middle" x="1904.74" y="-57.8" font-family="Times,serif" font-size="14.00">format</text>
</g>
<!-- creation date -->
<g id="node19" class="node">
<title>creation date</title>
<ellipse fill="none" stroke="blue" cx="2042.24" cy="-18" rx="31.4" ry="18"/>
<text text-anchor="middle" x="2042.24" y="-14.3" font-family="Times,serif" font-size="14.00">date</text>
</g>
<!-- common data element&#45;&gt;creation date -->
<g id="edge17" class="edge">
<title>common data element&#45;&gt;creation date</title>
<path fill="none" stroke="blue" d="M1232.19,-91.82C1246.8,-89.92 1261.96,-88.19 1276.24,-87 1421.79,-74.9 1790.99,-102.12 1933.24,-69 1961.5,-62.42 1991.3,-48.18 2012.58,-36.58"/>
<polygon fill="blue" stroke="blue" points="2014.41,-39.57 2021.44,-31.63 2011,-33.45 2014.41,-39.57"/>
<text text-anchor="middle" x="2023.74" y="-57.8" font-family="Times,serif" font-size="14.00">creation date</text>
</g>
<!-- named thing_category -->
<g id="node15" class="node">
<title>named thing_category</title>
<ellipse fill="none" stroke="blue" cx="1360.24" cy="-105" rx="74.99" ry="18"/>
<text text-anchor="middle" x="1360.24" y="-101.3" font-family="Times,serif" font-size="14.00">category type</text>
</g>
</g>
</svg>
