<?xml version="1.0" encoding="UTF-8" standalone="no"?>
<!DOCTYPE svg PUBLIC "-//W3C//DTD SVG 1.1//EN"
 "http://www.w3.org/Graphics/SVG/1.1/DTD/svg11.dtd">
<!-- Generated by graphviz version 2.43.0 (0)
 -->
<!-- Title: %3 Pages: 1 -->
<svg width="1838pt" height="131pt"
 viewBox="0.00 0.00 1838.44 131.00" xmlns="http://www.w3.org/2000/svg" xmlns:xlink="http://www.w3.org/1999/xlink">
<g id="graph0" class="graph" transform="scale(1 1) rotate(0) translate(4 127)">
<title>%3</title>
<polygon fill="white" stroke="transparent" points="-4,4 -4,-127 1834.44,-127 1834.44,4 -4,4"/>
<!-- common data element -->
<g id="node1" class="node">
<title>common data element</title>
<ellipse fill="none" stroke="black" cx="1047.24" cy="-105" rx="113.98" ry="18"/>
<text text-anchor="middle" x="1047.24" y="-101.3" font-family="Times,serif" font-size="14.00">common data element</text>
</g>
<!-- information content entity -->
<g id="node2" class="node">
<title>information content entity</title>
<ellipse fill="none" stroke="black" cx="133.24" cy="-18" rx="133.48" ry="18"/>
<text text-anchor="middle" x="133.24" y="-14.3" font-family="Times,serif" font-size="14.00">information content entity</text>
</g>
<!-- common data element&#45;&gt;information content entity -->
<g id="edge1" class="edge">
<title>common data element&#45;&gt;information content entity</title>
<path fill="none" stroke="black" d="M934.8,-102.06C807.06,-98.87 592.54,-90.55 409.24,-69 341.63,-61.05 265.55,-46.87 210.42,-35.64"/>
<polygon fill="black" stroke="black" points="210.88,-32.16 200.38,-33.58 209.47,-39.02 210.88,-32.16"/>
<text text-anchor="middle" x="423.24" y="-57.8" font-family="Times,serif" font-size="14.00">is_a</text>
</g>
<!-- id -->
<g id="node3" class="node">
<title>id</title>
<ellipse fill="none" stroke="blue" cx="323.24" cy="-18" rx="38.19" ry="18"/>
<text text-anchor="middle" x="323.24" y="-14.3" font-family="Times,serif" font-size="14.00">string</text>
</g>
<!-- common data element&#45;&gt;id -->
<g id="edge2" class="edge">
<title>common data element&#45;&gt;id</title>
<path fill="none" stroke="blue" d="M936.17,-101C830.77,-97.1 668.13,-88.32 528.24,-69 457.61,-59.24 439.89,-55.28 371.24,-36 368.13,-35.13 364.94,-34.16 361.74,-33.14"/>
<polygon fill="blue" stroke="blue" points="362.82,-29.81 352.23,-29.97 360.61,-36.45 362.82,-29.81"/>
<text text-anchor="middle" x="535.24" y="-57.8" font-family="Times,serif" font-size="14.00">id</text>
</g>
<!-- iri -->
<g id="node4" class="node">
<title>iri</title>
<ellipse fill="none" stroke="blue" cx="424.24" cy="-18" rx="44.39" ry="18"/>
<text text-anchor="middle" x="424.24" y="-14.3" font-family="Times,serif" font-size="14.00">iri type</text>
</g>
<!-- common data element&#45;&gt;iri -->
<g id="edge3" class="edge">
<title>common data element&#45;&gt;iri</title>
<path fill="none" stroke="blue" d="M937.67,-99.91C849.79,-95.49 723.51,-86.56 614.24,-69 563.07,-60.78 505.72,-44.7 467.55,-33"/>
<polygon fill="blue" stroke="blue" points="468.38,-29.59 457.79,-29.97 466.3,-36.27 468.38,-29.59"/>
<text text-anchor="middle" x="622.24" y="-57.8" font-family="Times,serif" font-size="14.00">iri</text>
</g>
<!-- type -->
<g id="node5" class="node">
<title>type</title>
<ellipse fill="none" stroke="blue" cx="525.24" cy="-18" rx="38.19" ry="18"/>
<text text-anchor="middle" x="525.24" y="-14.3" font-family="Times,serif" font-size="14.00">string</text>
</g>
<!-- common data element&#45;&gt;type -->
<g id="edge4" class="edge">
<title>common data element&#45;&gt;type</title>
<path fill="none" stroke="blue" d="M943.04,-97.64C873.83,-92.39 781.16,-83.43 700.24,-69 642.4,-58.69 628.37,-53.34 572.24,-36 569.48,-35.15 566.64,-34.23 563.8,-33.28"/>
<polygon fill="blue" stroke="blue" points="564.77,-29.91 554.18,-29.95 562.48,-36.53 564.77,-29.91"/>
<text text-anchor="middle" x="716.24" y="-57.8" font-family="Times,serif" font-size="14.00">type</text>
</g>
<!-- name -->
<g id="node6" class="node">
<title>name</title>
<ellipse fill="none" stroke="blue" cx="638.24" cy="-18" rx="56.59" ry="18"/>
<text text-anchor="middle" x="638.24" y="-14.3" font-family="Times,serif" font-size="14.00">label type</text>
</g>
<!-- common data element&#45;&gt;name -->
<g id="edge5" class="edge">
<title>common data element&#45;&gt;name</title>
<path fill="none" stroke="blue" d="M949.91,-95.68C899.96,-90.25 838.38,-81.74 784.24,-69 748.74,-60.65 709.72,-47.04 680.95,-36.13"/>
<polygon fill="blue" stroke="blue" points="682.2,-32.86 671.61,-32.54 679.69,-39.4 682.2,-32.86"/>
<text text-anchor="middle" x="804.24" y="-57.8" font-family="Times,serif" font-size="14.00">name</text>
</g>
<!-- description -->
<g id="node7" class="node">
<title>description</title>
<ellipse fill="none" stroke="blue" cx="788.24" cy="-18" rx="75.29" ry="18"/>
<text text-anchor="middle" x="788.24" y="-14.3" font-family="Times,serif" font-size="14.00">narrative text</text>
</g>
<!-- common data element&#45;&gt;description -->
<g id="edge6" class="edge">
<title>common data element&#45;&gt;description</title>
<path fill="none" stroke="blue" d="M949.82,-95.67C918.07,-90.56 883.28,-82.31 853.24,-69 838.68,-62.55 824.43,-52.19 813.01,-42.57"/>
<polygon fill="blue" stroke="blue" points="815.05,-39.71 805.22,-35.76 810.45,-44.98 815.05,-39.71"/>
<text text-anchor="middle" x="893.74" y="-57.8" font-family="Times,serif" font-size="14.00">description</text>
</g>
<!-- has attribute -->
<g id="node8" class="node">
<title>has attribute</title>
<ellipse fill="none" stroke="blue" cx="933.24" cy="-18" rx="51.99" ry="18"/>
<text text-anchor="middle" x="933.24" y="-14.3" font-family="Times,serif" font-size="14.00">attribute</text>
</g>
<!-- common data element&#45;&gt;has attribute -->
<g id="edge7" class="edge">
<title>common data element&#45;&gt;has attribute</title>
<path fill="none" stroke="blue" d="M978.72,-90.53C966.6,-85.48 955.05,-78.54 946.24,-69 940.5,-62.79 937.23,-54.38 935.38,-46.23"/>
<polygon fill="blue" stroke="blue" points="938.81,-45.52 933.72,-36.23 931.91,-46.67 938.81,-45.52"/>
<text text-anchor="middle" x="993.24" y="-57.8" font-family="Times,serif" font-size="14.00">has attribute</text>
</g>
<!-- provided by -->
<g id="node9" class="node">
<title>provided by</title>
<ellipse fill="none" stroke="blue" cx="1041.24" cy="-18" rx="38.19" ry="18"/>
<text text-anchor="middle" x="1041.24" y="-14.3" font-family="Times,serif" font-size="14.00">string</text>
</g>
<!-- common data element&#45;&gt;provided by -->
<g id="edge8" class="edge">
<title>common data element&#45;&gt;provided by</title>
<path fill="none" stroke="blue" d="M1046.02,-86.8C1045.2,-75.16 1044.1,-59.55 1043.16,-46.24"/>
<polygon fill="blue" stroke="blue" points="1046.65,-45.9 1042.45,-36.18 1039.66,-46.4 1046.65,-45.9"/>
<text text-anchor="middle" x="1087.74" y="-57.8" font-family="Times,serif" font-size="14.00">provided by</text>
</g>
<!-- xref -->
<g id="node10" class="node">
<title>xref</title>
<ellipse fill="none" stroke="blue" cx="1155.24" cy="-18" rx="57.39" ry="18"/>
<text text-anchor="middle" x="1155.24" y="-14.3" font-family="Times,serif" font-size="14.00">uriorcurie</text>
</g>
<!-- common data element&#45;&gt;xref -->
<g id="edge9" class="edge">
<title>common data element&#45;&gt;xref</title>
<path fill="none" stroke="blue" d="M1101.97,-89.09C1113.31,-84.09 1124.46,-77.54 1133.24,-69 1139.79,-62.63 1144.52,-53.98 1147.88,-45.66"/>
<polygon fill="blue" stroke="blue" points="1151.19,-46.8 1151.22,-36.21 1144.59,-44.47 1151.19,-46.8"/>
<text text-anchor="middle" x="1158.74" y="-57.8" font-family="Times,serif" font-size="14.00">xref</text>
</g>
<!-- full name -->
<g id="node11" class="node">
<title>full name</title>
<ellipse fill="none" stroke="blue" cx="1287.24" cy="-18" rx="56.59" ry="18"/>
<text text-anchor="middle" x="1287.24" y="-14.3" font-family="Times,serif" font-size="14.00">label type</text>
</g>
<!-- common data element&#45;&gt;full name -->
<g id="edge10" class="edge">
<title>common data element&#45;&gt;full name</title>
<path fill="none" stroke="blue" d="M1108.39,-89.74C1130.35,-84.04 1155.13,-76.94 1177.24,-69 1201.72,-60.21 1228.3,-48.2 1249.19,-38.16"/>
<polygon fill="blue" stroke="blue" points="1250.9,-41.22 1258.36,-33.7 1247.84,-34.92 1250.9,-41.22"/>
<text text-anchor="middle" x="1247.74" y="-57.8" font-family="Times,serif" font-size="14.00">full name</text>
</g>
<!-- category -->
<g id="node12" class="node">
<title>category</title>
<ellipse fill="none" stroke="black" cx="1413.24" cy="-18" rx="51.19" ry="18"/>
<text text-anchor="middle" x="1413.24" y="-14.3" font-family="Times,serif" font-size="14.00">category</text>
</g>
<!-- common data element&#45;&gt;category -->
<g id="edge11" class="edge">
<title>common data element&#45;&gt;category</title>
<path fill="none" stroke="blue" d="M1129.04,-92.42C1194.83,-83.03 1277.56,-71.04 1285.24,-69 1315.88,-60.88 1349.19,-47.72 1374.15,-36.94"/>
<polygon fill="blue" stroke="blue" points="1375.87,-40.01 1383.62,-32.79 1373.06,-33.59 1375.87,-40.01"/>
<text text-anchor="middle" x="1360.74" y="-57.8" font-family="Times,serif" font-size="14.00">category</text>
</g>
<!-- license -->
<g id="node14" class="node">
<title>license</title>
<ellipse fill="none" stroke="blue" cx="1521.24" cy="-18" rx="38.19" ry="18"/>
<text text-anchor="middle" x="1521.24" y="-14.3" font-family="Times,serif" font-size="14.00">string</text>
</g>
<!-- common data element&#45;&gt;license -->
<g id="edge12" class="edge">
<title>common data element&#45;&gt;license</title>
<path fill="none" stroke="blue" d="M1127.22,-92.16C1141.2,-90.29 1155.63,-88.49 1169.24,-87 1269.85,-76.01 1297.69,-92.05 1396.24,-69 1427.98,-61.57 1462.24,-47.4 1486.85,-36.03"/>
<polygon fill="blue" stroke="blue" points="1488.56,-39.1 1496.12,-31.67 1485.58,-32.76 1488.56,-39.1"/>
<text text-anchor="middle" x="1467.24" y="-57.8" font-family="Times,serif" font-size="14.00">license</text>
</g>
<!-- rights -->
<g id="node15" class="node">
<title>rights</title>
<ellipse fill="none" stroke="blue" cx="1616.24" cy="-18" rx="38.19" ry="18"/>
<text text-anchor="middle" x="1616.24" y="-14.3" font-family="Times,serif" font-size="14.00">string</text>
</g>
<!-- common data element&#45;&gt;rights -->
<g id="edge13" class="edge">
<title>common data element&#45;&gt;rights</title>
<path fill="none" stroke="blue" d="M1126.2,-92.02C1140.5,-90.13 1155.3,-88.35 1169.24,-87 1314.11,-72.94 1354.35,-101.46 1496.24,-69 1526.6,-62.06 1559.09,-48.07 1582.6,-36.65"/>
<polygon fill="blue" stroke="blue" points="1584.37,-39.68 1591.78,-32.1 1581.26,-33.41 1584.37,-39.68"/>
<text text-anchor="middle" x="1562.74" y="-57.8" font-family="Times,serif" font-size="14.00">rights</text>
</g>
<!-- format -->
<g id="node16" class="node">
<title>format</title>
<ellipse fill="none" stroke="blue" cx="1711.24" cy="-18" rx="38.19" ry="18"/>
<text text-anchor="middle" x="1711.24" y="-14.3" font-family="Times,serif" font-size="14.00">string</text>
</g>
<!-- common data element&#45;&gt;format -->
<g id="edge14" class="edge">
<title>common data element&#45;&gt;format</title>
<path fill="none" stroke="blue" d="M1125.86,-91.92C1140.26,-90.03 1155.18,-88.28 1169.24,-87 1262.05,-78.56 1497.18,-88.84 1588.24,-69 1619.65,-62.16 1653.35,-47.93 1677.52,-36.39"/>
<polygon fill="blue" stroke="blue" points="1679.15,-39.49 1686.61,-31.96 1676.09,-33.19 1679.15,-39.49"/>
<text text-anchor="middle" x="1658.74" y="-57.8" font-family="Times,serif" font-size="14.00">format</text>
</g>
<!-- creation date -->
<g id="node17" class="node">
<title>creation date</title>
<ellipse fill="none" stroke="blue" cx="1799.24" cy="-18" rx="31.4" ry="18"/>
<text text-anchor="middle" x="1799.24" y="-14.3" font-family="Times,serif" font-size="14.00">date</text>
</g>
<!-- common data element&#45;&gt;creation date -->
<g id="edge15" class="edge">
<title>common data element&#45;&gt;creation date</title>
<path fill="none" stroke="blue" d="M1125.53,-91.87C1140.03,-89.97 1155.07,-88.23 1169.24,-87 1283.99,-77.04 1575.02,-94.96 1687.24,-69 1716.46,-62.24 1747.44,-47.78 1769.39,-36.14"/>
<polygon fill="blue" stroke="blue" points="1771.09,-39.2 1778.21,-31.35 1767.75,-33.04 1771.09,-39.2"/>
<text text-anchor="middle" x="1778.74" y="-57.8" font-family="Times,serif" font-size="14.00">creation date</text>
</g>
<!-- named thing_category -->
<g id="node13" class="node">
<title>named thing_category</title>
<ellipse fill="none" stroke="blue" cx="1253.24" cy="-105" rx="74.99" ry="18"/>
<text text-anchor="middle" x="1253.24" y="-101.3" font-family="Times,serif" font-size="14.00">category type</text>
</g>
</g>
</svg>
