<?xml version="1.0" encoding="UTF-8" standalone="no"?>
<!DOCTYPE svg PUBLIC "-//W3C//DTD SVG 1.1//EN"
 "http://www.w3.org/Graphics/SVG/1.1/DTD/svg11.dtd">
<!-- Generated by graphviz version 2.40.1 (20161225.0304)
 -->
<!-- Title: %3 Pages: 1 -->
<svg width="1007pt" height="130pt"
 viewBox="0.00 0.00 1007.38 130.00" xmlns="http://www.w3.org/2000/svg" xmlns:xlink="http://www.w3.org/1999/xlink">
<g id="graph0" class="graph" transform="scale(1 1) rotate(0) translate(4 126)">
<title>%3</title>
<polygon fill="#ffffff" stroke="transparent" points="-4,4 -4,-126 1003.3839,-126 1003.3839,4 -4,4"/>
<!-- confidence level -->
<g id="node1" class="node">
<title>confidence level</title>
<ellipse fill="none" stroke="#000000" cx="539.4494" cy="-104" rx="67.6197" ry="18"/>
<text text-anchor="middle" x="539.4494" y="-99.8" font-family="Times,serif" font-size="14.00" fill="#000000">confidence level</text>
</g>
<!-- information content entity -->
<g id="node2" class="node">
<title>information content entity</title>
<ellipse fill="none" stroke="#000000" cx="102.4494" cy="-18" rx="102.3987" ry="18"/>
<text text-anchor="middle" x="102.4494" y="-13.8" font-family="Times,serif" font-size="14.00" fill="#000000">information content entity</text>
</g>
<!-- confidence level&#45;&gt;information content entity -->
<g id="edge1" class="edge">
<title>confidence level&#45;&gt;information content entity</title>
<path fill="none" stroke="#000000" d="M476.2997,-97.3293C424.5557,-91.3229 349.5845,-81.3815 284.8976,-68 243.7403,-59.486 198.1404,-46.99 162.8238,-36.6205"/>
<polygon fill="#000000" stroke="#000000" points="163.7298,-33.2386 153.1476,-33.7573 161.7435,-39.9509 163.7298,-33.2386"/>
<text text-anchor="middle" x="296.7252" y="-56.8" font-family="Times,serif" font-size="14.00" fill="#000000">is_a</text>
</g>
<!-- id -->
<g id="node3" class="node">
<title>id</title>
<ellipse fill="none" stroke="#000000" cx="249.4494" cy="-18" rx="27" ry="18"/>
</g>
<!-- confidence level&#45;&gt;id -->
<g id="edge2" class="edge">
<title>confidence level&#45;&gt;id</title>
<path fill="none" stroke="#000000" d="M476.0884,-97.5134C436.8449,-92.2568 385.8509,-83.1592 342.5597,-68 319.7023,-59.996 295.663,-46.9538 277.7368,-36.1964"/>
<polygon fill="#000000" stroke="#000000" points="279.3139,-33.058 268.9585,-30.8181 275.6569,-39.0268 279.3139,-33.058"/>
<text text-anchor="middle" x="348.8942" y="-56.8" font-family="Times,serif" font-size="14.00" fill="#000000">id</text>
</g>
<!-- name -->
<g id="node4" class="node">
<title>name</title>
<ellipse fill="none" stroke="#000000" cx="321.4494" cy="-18" rx="27" ry="18"/>
</g>
<!-- confidence level&#45;&gt;name -->
<g id="edge3" class="edge">
<title>confidence level&#45;&gt;name</title>
<path fill="none" stroke="#000000" d="M475.9903,-97.6008C444.9003,-92.5916 407.679,-83.7082 377.132,-68 364.1857,-61.3426 351.9052,-50.9346 342.1878,-41.3344"/>
<polygon fill="#000000" stroke="#000000" points="344.4526,-38.642 334.9804,-33.8955 339.4252,-43.5129 344.4526,-38.642"/>
<text text-anchor="middle" x="392.6081" y="-56.8" font-family="Times,serif" font-size="14.00" fill="#000000">name</text>
</g>
<!-- category -->
<g id="node5" class="node">
<title>category</title>
<ellipse fill="none" stroke="#000000" cx="393.4494" cy="-18" rx="27" ry="18"/>
</g>
<!-- confidence level&#45;&gt;category -->
<g id="edge4" class="edge">
<title>confidence level&#45;&gt;category</title>
<path fill="none" stroke="#000000" d="M481.0803,-94.7391C461.2103,-89.4123 439.8505,-81.0619 423.256,-68 415.4415,-61.8491 409.2305,-53.0388 404.5448,-44.5226"/>
<polygon fill="#000000" stroke="#000000" points="407.6558,-42.9182 400.0554,-35.5368 401.3938,-46.0467 407.6558,-42.9182"/>
<text text-anchor="middle" x="447.546" y="-56.8" font-family="Times,serif" font-size="14.00" fill="#000000">category</text>
</g>
<!-- related to -->
<g id="node6" class="node">
<title>related to</title>
<ellipse fill="none" stroke="#000000" cx="465.4494" cy="-18" rx="27" ry="18"/>
</g>
<!-- confidence level&#45;&gt;related to -->
<g id="edge5" class="edge">
<title>confidence level&#45;&gt;related to</title>
<path fill="none" stroke="#000000" d="M506.6194,-88.197C497.9914,-82.7781 489.3322,-76.0185 482.9767,-68 477.8915,-61.5843 474.2237,-53.5862 471.6023,-45.8815"/>
<polygon fill="#000000" stroke="#000000" points="474.9006,-44.6906 468.7279,-36.0797 468.1834,-46.6605 474.9006,-44.6906"/>
<text text-anchor="middle" x="509.6857" y="-56.8" font-family="Times,serif" font-size="14.00" fill="#000000">related to</text>
</g>
<!-- node property -->
<g id="node7" class="node">
<title>node property</title>
<ellipse fill="none" stroke="#000000" cx="538.4494" cy="-18" rx="27" ry="18"/>
</g>
<!-- confidence level&#45;&gt;node property -->
<g id="edge6" class="edge">
<title>confidence level&#45;&gt;node property</title>
<path fill="none" stroke="#000000" d="M539.2373,-85.7616C539.1047,-74.3597 538.9312,-59.4342 538.7807,-46.494"/>
<polygon fill="#000000" stroke="#000000" points="542.2773,-46.1707 538.6611,-36.2121 535.2777,-46.2522 542.2773,-46.1707"/>
<text text-anchor="middle" x="578.5202" y="-56.8" font-family="Times,serif" font-size="14.00" fill="#000000">node property</text>
</g>
<!-- iri -->
<g id="node8" class="node">
<title>iri</title>
<ellipse fill="none" stroke="#000000" cx="610.4494" cy="-18" rx="27" ry="18"/>
</g>
<!-- confidence level&#45;&gt;iri -->
<g id="edge7" class="edge">
<title>confidence level&#45;&gt;iri</title>
<path fill="none" stroke="#000000" d="M589.2388,-91.5044C600.7401,-86.1842 611.6001,-78.648 618.4494,-68 622.7481,-61.317 623.0138,-53.1198 621.5586,-45.3109"/>
<polygon fill="#000000" stroke="#000000" points="624.8688,-44.1473 618.8487,-35.429 618.1181,-45.9986 624.8688,-44.1473"/>
<text text-anchor="middle" x="628.6701" y="-56.8" font-family="Times,serif" font-size="14.00" fill="#000000">iri</text>
</g>
<!-- synonym -->
<g id="node9" class="node">
<title>synonym</title>
<ellipse fill="none" stroke="#000000" cx="682.4494" cy="-18" rx="27" ry="18"/>
</g>
<!-- confidence level&#45;&gt;synonym -->
<g id="edge8" class="edge">
<title>confidence level&#45;&gt;synonym</title>
<path fill="none" stroke="#000000" d="M588.6106,-91.5052C605.3018,-85.9042 623.4954,-78.2076 638.4494,-68 648.3935,-61.2121 657.5275,-51.6741 664.8653,-42.7463"/>
<polygon fill="#000000" stroke="#000000" points="667.6651,-44.8477 671.0708,-34.8151 662.1521,-40.5341 667.6651,-44.8477"/>
<text text-anchor="middle" x="680.1183" y="-56.8" font-family="Times,serif" font-size="14.00" fill="#000000">synonym</text>
</g>
<!-- full name -->
<g id="node10" class="node">
<title>full name</title>
<ellipse fill="none" stroke="#000000" cx="754.4494" cy="-18" rx="27" ry="18"/>
</g>
<!-- confidence level&#45;&gt;full name -->
<g id="edge9" class="edge">
<title>confidence level&#45;&gt;full name</title>
<path fill="none" stroke="#000000" d="M599.0887,-95.3804C640.2661,-88.6801 690.8313,-78.7425 709.4494,-68 720.1369,-61.8333 729.6678,-52.24 737.1762,-43.0989"/>
<polygon fill="#000000" stroke="#000000" points="740.1337,-44.9956 743.4782,-34.9425 734.5945,-40.7157 740.1337,-44.9956"/>
<text text-anchor="middle" x="754.0788" y="-56.8" font-family="Times,serif" font-size="14.00" fill="#000000">full name</text>
</g>
<!-- description -->
<g id="node11" class="node">
<title>description</title>
<ellipse fill="none" stroke="#000000" cx="828.4494" cy="-18" rx="27" ry="18"/>
</g>
<!-- confidence level&#45;&gt;description -->
<g id="edge10" class="edge">
<title>confidence level&#45;&gt;description</title>
<path fill="none" stroke="#000000" d="M605.0899,-99.4611C666.9036,-94.2795 754.3674,-84.3371 784.4494,-68 795.341,-62.0849 804.8256,-52.3576 812.172,-43.0474"/>
<polygon fill="#000000" stroke="#000000" points="815.1821,-44.8626 818.2967,-34.7358 809.5468,-40.71 815.1821,-44.8626"/>
<text text-anchor="middle" x="833.5529" y="-56.8" font-family="Times,serif" font-size="14.00" fill="#000000">description</text>
</g>
<!-- systematic synonym -->
<g id="node12" class="node">
<title>systematic synonym</title>
<ellipse fill="none" stroke="#000000" cx="913.4494" cy="-18" rx="27" ry="18"/>
</g>
<!-- confidence level&#45;&gt;systematic synonym -->
<g id="edge11" class="edge">
<title>confidence level&#45;&gt;systematic synonym</title>
<path fill="none" stroke="#000000" d="M607.1847,-102.2347C689.9076,-99.1119 824.2793,-90.6309 868.4494,-68 879.7038,-62.2337 889.4883,-52.4001 897.033,-42.9715"/>
<polygon fill="#000000" stroke="#000000" points="899.8813,-45.0069 903.0672,-34.9024 894.2754,-40.8147 899.8813,-45.0069"/>
<text text-anchor="middle" x="942.4166" y="-56.8" font-family="Times,serif" font-size="14.00" fill="#000000">systematic synonym</text>
</g>
</g>
</svg>
