<?xml version="1.0" encoding="UTF-8" standalone="no"?>
<!DOCTYPE svg PUBLIC "-//W3C//DTD SVG 1.1//EN"
 "http://www.w3.org/Graphics/SVG/1.1/DTD/svg11.dtd">
<!-- Generated by graphviz version 2.43.0 (0)
 -->
<!-- Title: %3 Pages: 1 -->
<svg width="2163pt" height="291pt"
 viewBox="0.00 0.00 2163.09 291.00" xmlns="http://www.w3.org/2000/svg" xmlns:xlink="http://www.w3.org/1999/xlink">
<g id="graph0" class="graph" transform="scale(1 1) rotate(0) translate(4 287)">
<title>%3</title>
<polygon fill="white" stroke="transparent" points="-4,4 -4,-287 2159.09,-287 2159.09,4 -4,4"/>
<!-- contributor association -->
<g id="node1" class="node">
<title>contributor association</title>
<ellipse fill="none" stroke="black" cx="1052.39" cy="-265" rx="118.08" ry="18"/>
<text text-anchor="middle" x="1052.39" y="-261.3" font-family="Times,serif" font-size="14.00">contributor association</text>
</g>
<!-- association -->
<g id="node2" class="node">
<title>association</title>
<ellipse fill="none" stroke="black" cx="62.39" cy="-178" rx="62.29" ry="18"/>
<text text-anchor="middle" x="62.39" y="-174.3" font-family="Times,serif" font-size="14.00">association</text>
</g>
<!-- contributor association&#45;&gt;association -->
<g id="edge1" class="edge">
<title>contributor association&#45;&gt;association</title>
<path fill="none" stroke="black" d="M936.06,-261.62C749.6,-257.32 392.06,-247.02 266.39,-229 213.54,-221.42 154.41,-206.15 113.47,-194.47"/>
<polygon fill="black" stroke="black" points="114.31,-191.07 103.73,-191.66 112.37,-197.8 114.31,-191.07"/>
<text text-anchor="middle" x="280.39" y="-217.8" font-family="Times,serif" font-size="14.00">is_a</text>
</g>
<!-- id -->
<g id="node3" class="node">
<title>id</title>
<ellipse fill="none" stroke="blue" cx="181.39" cy="-178" rx="38.19" ry="18"/>
<text text-anchor="middle" x="181.39" y="-174.3" font-family="Times,serif" font-size="14.00">string</text>
</g>
<!-- contributor association&#45;&gt;id -->
<g id="edge2" class="edge">
<title>contributor association&#45;&gt;id</title>
<path fill="none" stroke="blue" d="M934.73,-263.07C801.99,-260.8 579.89,-253.29 390.39,-229 317.94,-219.71 299.77,-215.57 229.39,-196 226.29,-195.14 223.09,-194.17 219.89,-193.15"/>
<polygon fill="blue" stroke="blue" points="220.97,-189.83 210.38,-189.99 218.76,-196.47 220.97,-189.83"/>
<text text-anchor="middle" x="397.39" y="-217.8" font-family="Times,serif" font-size="14.00">id</text>
</g>
<!-- iri -->
<g id="node4" class="node">
<title>iri</title>
<ellipse fill="none" stroke="blue" cx="282.39" cy="-178" rx="44.39" ry="18"/>
<text text-anchor="middle" x="282.39" y="-174.3" font-family="Times,serif" font-size="14.00">iri type</text>
</g>
<!-- contributor association&#45;&gt;iri -->
<g id="edge3" class="edge">
<title>contributor association&#45;&gt;iri</title>
<path fill="none" stroke="blue" d="M936.08,-261.63C822.48,-258.17 644.91,-249.68 492.39,-229 421.74,-219.42 404.32,-214.25 335.39,-196 332.02,-195.11 328.55,-194.13 325.07,-193.11"/>
<polygon fill="blue" stroke="blue" points="325.9,-189.7 315.32,-190.14 323.87,-196.4 325.9,-189.7"/>
<text text-anchor="middle" x="500.39" y="-217.8" font-family="Times,serif" font-size="14.00">iri</text>
</g>
<!-- name -->
<g id="node5" class="node">
<title>name</title>
<ellipse fill="none" stroke="blue" cx="401.39" cy="-178" rx="56.59" ry="18"/>
<text text-anchor="middle" x="401.39" y="-174.3" font-family="Times,serif" font-size="14.00">label type</text>
</g>
<!-- contributor association&#45;&gt;name -->
<g id="edge4" class="edge">
<title>contributor association&#45;&gt;name</title>
<path fill="none" stroke="blue" d="M935.15,-262.21C837.86,-259.1 696.23,-250.82 574.39,-229 530.56,-221.15 481.95,-206.56 447.44,-195.15"/>
<polygon fill="blue" stroke="blue" points="448.25,-191.73 437.66,-191.88 446.03,-198.37 448.25,-191.73"/>
<text text-anchor="middle" x="594.39" y="-217.8" font-family="Times,serif" font-size="14.00">name</text>
</g>
<!-- description -->
<g id="node6" class="node">
<title>description</title>
<ellipse fill="none" stroke="blue" cx="551.39" cy="-178" rx="75.29" ry="18"/>
<text text-anchor="middle" x="551.39" y="-174.3" font-family="Times,serif" font-size="14.00">narrative text</text>
</g>
<!-- contributor association&#45;&gt;description -->
<g id="edge5" class="edge">
<title>contributor association&#45;&gt;description</title>
<path fill="none" stroke="blue" d="M941.63,-258.61C843.59,-253.03 708.25,-243.14 656.39,-229 632.18,-222.4 606.72,-210.41 586.94,-199.84"/>
<polygon fill="blue" stroke="blue" points="588.45,-196.67 578,-194.94 585.09,-202.81 588.45,-196.67"/>
<text text-anchor="middle" x="696.89" y="-217.8" font-family="Times,serif" font-size="14.00">description</text>
</g>
<!-- source -->
<g id="node7" class="node">
<title>source</title>
<ellipse fill="none" stroke="blue" cx="701.39" cy="-178" rx="56.59" ry="18"/>
<text text-anchor="middle" x="701.39" y="-174.3" font-family="Times,serif" font-size="14.00">label type</text>
</g>
<!-- contributor association&#45;&gt;source -->
<g id="edge6" class="edge">
<title>contributor association&#45;&gt;source</title>
<path fill="none" stroke="blue" d="M946.48,-256.89C878.95,-251.23 798.34,-242.08 766.39,-229 751.19,-222.77 736.49,-212 724.93,-202.05"/>
<polygon fill="blue" stroke="blue" points="727.24,-199.42 717.45,-195.36 722.57,-204.64 727.24,-199.42"/>
<text text-anchor="middle" x="790.39" y="-217.8" font-family="Times,serif" font-size="14.00">source</text>
</g>
<!-- provided by -->
<g id="node8" class="node">
<title>provided by</title>
<ellipse fill="none" stroke="blue" cx="813.39" cy="-178" rx="37.09" ry="18"/>
<text text-anchor="middle" x="813.39" y="-174.3" font-family="Times,serif" font-size="14.00">agent</text>
</g>
<!-- contributor association&#45;&gt;provided by -->
<g id="edge7" class="edge">
<title>contributor association&#45;&gt;provided by</title>
<path fill="none" stroke="blue" d="M943.16,-258.07C894.84,-253.28 844.98,-244.62 827.39,-229 820.88,-223.21 817.29,-214.67 815.34,-206.27"/>
<polygon fill="blue" stroke="blue" points="818.78,-205.59 813.7,-196.29 811.87,-206.73 818.78,-205.59"/>
<text text-anchor="middle" x="869.89" y="-217.8" font-family="Times,serif" font-size="14.00">provided by</text>
</g>
<!-- has attribute -->
<g id="node9" class="node">
<title>has attribute</title>
<ellipse fill="none" stroke="blue" cx="920.39" cy="-178" rx="51.99" ry="18"/>
<text text-anchor="middle" x="920.39" y="-174.3" font-family="Times,serif" font-size="14.00">attribute</text>
</g>
<!-- contributor association&#45;&gt;has attribute -->
<g id="edge8" class="edge">
<title>contributor association&#45;&gt;has attribute</title>
<path fill="none" stroke="blue" d="M974.54,-251.33C950.67,-245.78 928.73,-238.36 921.39,-229 916.4,-222.63 914.91,-214.28 915.04,-206.23"/>
<polygon fill="blue" stroke="blue" points="918.55,-206.28 915.97,-196.01 911.57,-205.65 918.55,-206.28"/>
<text text-anchor="middle" x="968.39" y="-217.8" font-family="Times,serif" font-size="14.00">has attribute</text>
</g>
<!-- relation -->
<g id="node10" class="node">
<title>relation</title>
<ellipse fill="none" stroke="blue" cx="1673.39" cy="-18" rx="38.19" ry="18"/>
<text text-anchor="middle" x="1673.39" y="-14.3" font-family="Times,serif" font-size="14.00">string</text>
</g>
<!-- contributor association&#45;&gt;relation -->
<g id="edge9" class="edge">
<title>contributor association&#45;&gt;relation</title>
<path fill="none" stroke="blue" d="M1038.32,-247.1C1021.64,-224.92 998.57,-185.79 1019.39,-160 1096.02,-65.1 1487.12,-31.01 1625.11,-21.83"/>
<polygon fill="blue" stroke="blue" points="1625.62,-25.3 1635.37,-21.16 1625.17,-18.32 1625.62,-25.3"/>
<text text-anchor="middle" x="1089.39" y="-130.8" font-family="Times,serif" font-size="14.00">relation</text>
</g>
<!-- negated -->
<g id="node11" class="node">
<title>negated</title>
<ellipse fill="none" stroke="blue" cx="1075.39" cy="-178" rx="46.59" ry="18"/>
<text text-anchor="middle" x="1075.39" y="-174.3" font-family="Times,serif" font-size="14.00">boolean</text>
</g>
<!-- contributor association&#45;&gt;negated -->
<g id="edge10" class="edge">
<title>contributor association&#45;&gt;negated</title>
<path fill="none" stroke="blue" d="M1057.05,-246.8C1060.23,-235.05 1064.51,-219.24 1068.13,-205.84"/>
<polygon fill="blue" stroke="blue" points="1071.51,-206.74 1070.75,-196.18 1064.76,-204.91 1071.51,-206.74"/>
<text text-anchor="middle" x="1094.39" y="-217.8" font-family="Times,serif" font-size="14.00">negated</text>
</g>
<!-- publications -->
<g id="node12" class="node">
<title>publications</title>
<ellipse fill="none" stroke="blue" cx="1202.39" cy="-178" rx="62.29" ry="18"/>
<text text-anchor="middle" x="1202.39" y="-174.3" font-family="Times,serif" font-size="14.00">publication</text>
</g>
<!-- contributor association&#45;&gt;publications -->
<g id="edge11" class="edge">
<title>contributor association&#45;&gt;publications</title>
<path fill="none" stroke="blue" d="M1089.96,-247.82C1102.1,-242.24 1115.5,-235.69 1127.39,-229 1142.5,-220.5 1158.57,-210 1171.95,-200.82"/>
<polygon fill="blue" stroke="blue" points="1174.09,-203.59 1180.31,-195.01 1170.1,-197.84 1174.09,-203.59"/>
<text text-anchor="middle" x="1195.39" y="-217.8" font-family="Times,serif" font-size="14.00">publications</text>
</g>
<!-- has evidence -->
<g id="node13" class="node">
<title>has evidence</title>
<ellipse fill="none" stroke="blue" cx="1358.39" cy="-178" rx="75.29" ry="18"/>
<text text-anchor="middle" x="1358.39" y="-174.3" font-family="Times,serif" font-size="14.00">evidence type</text>
</g>
<!-- contributor association&#45;&gt;has evidence -->
<g id="edge12" class="edge">
<title>contributor association&#45;&gt;has evidence</title>
<path fill="none" stroke="blue" d="M1138.49,-252.52C1171.68,-246.98 1209.69,-239.27 1243.39,-229 1269.16,-221.15 1296.87,-209.22 1318.64,-198.97"/>
<polygon fill="blue" stroke="blue" points="1320.37,-202.02 1327.88,-194.56 1317.35,-195.71 1320.37,-202.02"/>
<text text-anchor="middle" x="1328.89" y="-217.8" font-family="Times,serif" font-size="14.00">has evidence</text>
</g>
<!-- type -->
<g id="node14" class="node">
<title>type</title>
<ellipse fill="none" stroke="black" cx="1483.39" cy="-178" rx="31.4" ry="18"/>
<text text-anchor="middle" x="1483.39" y="-174.3" font-family="Times,serif" font-size="14.00">type</text>
</g>
<!-- contributor association&#45;&gt;type -->
<g id="edge13" class="edge">
<title>contributor association&#45;&gt;type</title>
<path fill="none" stroke="blue" d="M1136.68,-252.3C1151.24,-250.42 1166.25,-248.58 1180.39,-247 1268.65,-237.15 1293.79,-252.62 1379.39,-229 1405.86,-221.7 1433.78,-207.89 1454.03,-196.63"/>
<polygon fill="blue" stroke="blue" points="1455.79,-199.66 1462.76,-191.67 1452.33,-193.57 1455.79,-199.66"/>
<text text-anchor="middle" x="1434.39" y="-217.8" font-family="Times,serif" font-size="14.00">type</text>
</g>
<!-- category -->
<g id="node16" class="node">
<title>category</title>
<ellipse fill="none" stroke="black" cx="1584.39" cy="-178" rx="51.19" ry="18"/>
<text text-anchor="middle" x="1584.39" y="-174.3" font-family="Times,serif" font-size="14.00">category</text>
</g>
<!-- contributor association&#45;&gt;category -->
<g id="edge14" class="edge">
<title>contributor association&#45;&gt;category</title>
<path fill="none" stroke="blue" d="M1135.61,-252.13C1150.51,-250.24 1165.89,-248.44 1180.39,-247 1301.84,-234.96 1335.2,-255.2 1454.39,-229 1486.33,-221.98 1520.8,-208.42 1546.22,-197.2"/>
<polygon fill="blue" stroke="blue" points="1547.81,-200.32 1555.49,-193.03 1544.93,-193.94 1547.81,-200.32"/>
<text text-anchor="middle" x="1533.89" y="-217.8" font-family="Times,serif" font-size="14.00">category</text>
</g>
<!-- subject -->
<g id="node18" class="node">
<title>subject</title>
<ellipse fill="none" stroke="black" cx="1698.39" cy="-178" rx="44.39" ry="18"/>
<text text-anchor="middle" x="1698.39" y="-174.3" font-family="Times,serif" font-size="14.00">subject</text>
</g>
<!-- contributor association&#45;&gt;subject -->
<g id="edge15" class="edge">
<title>contributor association&#45;&gt;subject</title>
<path fill="none" stroke="blue" d="M1134.56,-252.03C1149.77,-250.11 1165.55,-248.33 1180.39,-247 1352.78,-231.59 1400.05,-264.74 1569.39,-229 1601.9,-222.14 1636.94,-208.09 1662.29,-196.63"/>
<polygon fill="blue" stroke="blue" points="1663.89,-199.75 1671.5,-192.39 1660.96,-193.39 1663.89,-199.75"/>
<text text-anchor="middle" x="1643.39" y="-217.8" font-family="Times,serif" font-size="14.00">subject</text>
</g>
<!-- predicate -->
<g id="node20" class="node">
<title>predicate</title>
<ellipse fill="none" stroke="black" cx="1815.39" cy="-178" rx="54.69" ry="18"/>
<text text-anchor="middle" x="1815.39" y="-174.3" font-family="Times,serif" font-size="14.00">predicate</text>
</g>
<!-- contributor association&#45;&gt;predicate -->
<g id="edge16" class="edge">
<title>contributor association&#45;&gt;predicate</title>
<path fill="none" stroke="blue" d="M1134.21,-251.95C1149.53,-250.03 1165.43,-248.26 1180.39,-247 1289.63,-237.77 1565.69,-249.44 1673.39,-229 1708.77,-222.29 1747.19,-208.32 1775.14,-196.85"/>
<polygon fill="blue" stroke="blue" points="1776.68,-200 1784.56,-192.91 1773.99,-193.54 1776.68,-200"/>
<text text-anchor="middle" x="1763.39" y="-217.8" font-family="Times,serif" font-size="14.00">predicate</text>
</g>
<!-- object -->
<g id="node22" class="node">
<title>object</title>
<ellipse fill="none" stroke="black" cx="1740.39" cy="-91" rx="38.99" ry="18"/>
<text text-anchor="middle" x="1740.39" y="-87.3" font-family="Times,serif" font-size="14.00">object</text>
</g>
<!-- contributor association&#45;&gt;object -->
<g id="edge17" class="edge">
<title>contributor association&#45;&gt;object</title>
<path fill="none" stroke="blue" d="M1133.86,-251.9C1149.28,-249.97 1165.31,-248.22 1180.39,-247 1318.01,-235.9 1666.5,-258.4 1801.39,-229 1838.17,-220.98 1858.6,-227.38 1879.39,-196 1908.35,-152.31 1833.82,-119.99 1783.04,-103.75"/>
<polygon fill="blue" stroke="blue" points="1783.83,-100.33 1773.24,-100.71 1781.76,-107.01 1783.83,-100.33"/>
<text text-anchor="middle" x="1908.39" y="-174.3" font-family="Times,serif" font-size="14.00">object</text>
</g>
<!-- qualifiers -->
<g id="node24" class="node">
<title>qualifiers</title>
<ellipse fill="none" stroke="black" cx="2022.39" cy="-178" rx="53.89" ry="18"/>
<text text-anchor="middle" x="2022.39" y="-174.3" font-family="Times,serif" font-size="14.00">qualifiers</text>
</g>
<!-- contributor association&#45;&gt;qualifiers -->
<g id="edge18" class="edge">
<title>contributor association&#45;&gt;qualifiers</title>
<path fill="none" stroke="blue" d="M1133.51,-251.89C1149.04,-249.95 1165.2,-248.19 1180.39,-247 1262.39,-240.58 1840.51,-248.55 1920.39,-229 1945.03,-222.97 1970.66,-210.38 1990.07,-199.34"/>
<polygon fill="blue" stroke="blue" points="1991.92,-202.31 1998.79,-194.24 1988.39,-196.26 1991.92,-202.31"/>
<text text-anchor="middle" x="1993.89" y="-217.8" font-family="Times,serif" font-size="14.00">qualifiers</text>
</g>
<!-- association_type -->
<g id="node15" class="node">
<title>association_type</title>
<ellipse fill="none" stroke="blue" cx="1227.39" cy="-265" rx="38.19" ry="18"/>
<text text-anchor="middle" x="1227.39" y="-261.3" font-family="Times,serif" font-size="14.00">string</text>
</g>
<!-- association_category -->
<g id="node17" class="node">
<title>association_category</title>
<ellipse fill="none" stroke="blue" cx="1358.39" cy="-265" rx="74.99" ry="18"/>
<text text-anchor="middle" x="1358.39" y="-261.3" font-family="Times,serif" font-size="14.00">category type</text>
</g>
<!-- subject&#45;&gt;relation -->
<g id="edge20" class="edge">
<title>subject&#45;&gt;relation</title>
<path fill="none" stroke="black" stroke-dasharray="1,5" d="M1695.67,-159.79C1691.35,-132.48 1682.89,-78.99 1677.73,-46.38"/>
<polygon fill="black" stroke="black" points="1681.13,-45.52 1676.11,-36.19 1674.22,-46.61 1681.13,-45.52"/>
</g>
<!-- subject&#45;&gt;object -->
<g id="edge19" class="edge">
<title>subject&#45;&gt;object</title>
<path fill="none" stroke="black" d="M1706.69,-160.21C1712.67,-148.1 1720.86,-131.53 1727.67,-117.76"/>
<polygon fill="black" stroke="black" points="1730.82,-119.27 1732.11,-108.76 1724.55,-116.17 1730.82,-119.27"/>
<text text-anchor="middle" x="1750.39" y="-130.8" font-family="Times,serif" font-size="14.00">relation</text>
</g>
<!-- contributor association_subject -->
<g id="node19" class="node">
<title>contributor association_subject</title>
<ellipse fill="none" stroke="blue" cx="1584.39" cy="-265" rx="133.48" ry="18"/>
<text text-anchor="middle" x="1584.39" y="-261.3" font-family="Times,serif" font-size="14.00">information content entity</text>
</g>
<!-- contributor association_predicate -->
<g id="node21" class="node">
<title>contributor association_predicate</title>
<ellipse fill="none" stroke="blue" cx="1813.39" cy="-265" rx="77.99" ry="18"/>
<text text-anchor="middle" x="1813.39" y="-261.3" font-family="Times,serif" font-size="14.00">predicate type</text>
</g>
<!-- object&#45;&gt;relation -->
<g id="edge21" class="edge">
<title>object&#45;&gt;relation</title>
<path fill="none" stroke="black" stroke-dasharray="1,5" d="M1725.52,-74.24C1716.59,-64.77 1705.06,-52.56 1695.12,-42.02"/>
<polygon fill="black" stroke="black" points="1697.63,-39.58 1688.22,-34.71 1692.54,-44.39 1697.63,-39.58"/>
</g>
<!-- contributor association_object -->
<g id="node23" class="node">
<title>contributor association_object</title>
<ellipse fill="none" stroke="blue" cx="1946.39" cy="-265" rx="37.09" ry="18"/>
<text text-anchor="middle" x="1946.39" y="-261.3" font-family="Times,serif" font-size="14.00">agent</text>
</g>
<!-- contributor association_qualifiers -->
<g id="node25" class="node">
<title>contributor association_qualifiers</title>
<ellipse fill="none" stroke="blue" cx="2078.39" cy="-265" rx="76.89" ry="18"/>
<text text-anchor="middle" x="2078.39" y="-261.3" font-family="Times,serif" font-size="14.00">ontology class</text>
</g>
</g>
</svg>
