<?xml version="1.0" encoding="UTF-8" standalone="no"?>
<!DOCTYPE svg PUBLIC "-//W3C//DTD SVG 1.1//EN"
 "http://www.w3.org/Graphics/SVG/1.1/DTD/svg11.dtd">
<!-- Generated by graphviz version 2.43.0 (0)
 -->
<!-- Title: %3 Pages: 1 -->
<svg width="2845pt" height="291pt"
 viewBox="0.00 0.00 2845.34 291.00" xmlns="http://www.w3.org/2000/svg" xmlns:xlink="http://www.w3.org/1999/xlink">
<g id="graph0" class="graph" transform="scale(1 1) rotate(0) translate(4 287)">
<title>%3</title>
<polygon fill="white" stroke="transparent" points="-4,4 -4,-287 2841.34,-287 2841.34,4 -4,4"/>
<!-- contributor association -->
<g id="node1" class="node">
<title>contributor association</title>
<ellipse fill="none" stroke="black" cx="1339.39" cy="-265" rx="118.08" ry="18"/>
<text text-anchor="middle" x="1339.39" y="-261.3" font-family="Times,serif" font-size="14.00">contributor association</text>
</g>
<!-- association -->
<g id="node2" class="node">
<title>association</title>
<ellipse fill="none" stroke="black" cx="62.39" cy="-178" rx="62.29" ry="18"/>
<text text-anchor="middle" x="62.39" y="-174.3" font-family="Times,serif" font-size="14.00">association</text>
</g>
<!-- contributor association&#45;&gt;association -->
<g id="edge1" class="edge">
<title>contributor association&#45;&gt;association</title>
<path fill="none" stroke="black" d="M1221.5,-263.22C982.57,-261.14 448.54,-253.78 267.39,-229 214.08,-221.71 154.46,-206.32 113.32,-194.53"/>
<polygon fill="black" stroke="black" points="114.11,-191.12 103.53,-191.7 112.16,-197.84 114.11,-191.12"/>
<text text-anchor="middle" x="281.39" y="-217.8" font-family="Times,serif" font-size="14.00">is_a</text>
</g>
<!-- id -->
<g id="node3" class="node">
<title>id</title>
<ellipse fill="none" stroke="blue" cx="181.39" cy="-178" rx="38.19" ry="18"/>
<text text-anchor="middle" x="181.39" y="-174.3" font-family="Times,serif" font-size="14.00">string</text>
</g>
<!-- contributor association&#45;&gt;id -->
<g id="edge2" class="edge">
<title>contributor association&#45;&gt;id</title>
<path fill="none" stroke="blue" d="M1222.4,-262.08C1005.51,-258.12 548.79,-247.81 391.39,-229 318.43,-220.28 300.2,-215.65 229.39,-196 226.29,-195.14 223.09,-194.17 219.89,-193.16"/>
<polygon fill="blue" stroke="blue" points="220.97,-189.83 210.38,-190 218.76,-196.47 220.97,-189.83"/>
<text text-anchor="middle" x="398.39" y="-217.8" font-family="Times,serif" font-size="14.00">id</text>
</g>
<!-- iri -->
<g id="node4" class="node">
<title>iri</title>
<ellipse fill="none" stroke="blue" cx="282.39" cy="-178" rx="44.39" ry="18"/>
<text text-anchor="middle" x="282.39" y="-174.3" font-family="Times,serif" font-size="14.00">iri type</text>
</g>
<!-- contributor association&#45;&gt;iri -->
<g id="edge3" class="edge">
<title>contributor association&#45;&gt;iri</title>
<path fill="none" stroke="blue" d="M1221.02,-264.9C1057.97,-264.82 755.34,-259.89 499.39,-229 425.58,-220.09 407.35,-214.72 335.39,-196 332.02,-195.12 328.54,-194.15 325.06,-193.14"/>
<polygon fill="blue" stroke="blue" points="325.89,-189.73 315.31,-190.19 323.86,-196.43 325.89,-189.73"/>
<text text-anchor="middle" x="507.39" y="-217.8" font-family="Times,serif" font-size="14.00">iri</text>
</g>
<!-- name -->
<g id="node5" class="node">
<title>name</title>
<ellipse fill="none" stroke="blue" cx="401.39" cy="-178" rx="56.59" ry="18"/>
<text text-anchor="middle" x="401.39" y="-174.3" font-family="Times,serif" font-size="14.00">label type</text>
</g>
<!-- contributor association&#45;&gt;name -->
<g id="edge4" class="edge">
<title>contributor association&#45;&gt;name</title>
<path fill="none" stroke="blue" d="M1223.01,-261.71C1042.82,-257.63 704.66,-247.74 585.39,-229 538.02,-221.56 485.33,-206.52 448.52,-194.88"/>
<polygon fill="blue" stroke="blue" points="449.17,-191.41 438.58,-191.69 447.03,-198.07 449.17,-191.41"/>
<text text-anchor="middle" x="605.39" y="-217.8" font-family="Times,serif" font-size="14.00">name</text>
</g>
<!-- description -->
<g id="node6" class="node">
<title>description</title>
<ellipse fill="none" stroke="blue" cx="551.39" cy="-178" rx="75.29" ry="18"/>
<text text-anchor="middle" x="551.39" y="-174.3" font-family="Times,serif" font-size="14.00">narrative text</text>
</g>
<!-- contributor association&#45;&gt;description -->
<g id="edge5" class="edge">
<title>contributor association&#45;&gt;description</title>
<path fill="none" stroke="blue" d="M1222.17,-262.51C1059.87,-259.64 775.32,-251.5 674.39,-229 645.52,-222.56 614.69,-210.02 591.12,-199.1"/>
<polygon fill="blue" stroke="blue" points="592.35,-195.81 581.81,-194.71 589.36,-202.14 592.35,-195.81"/>
<text text-anchor="middle" x="714.89" y="-217.8" font-family="Times,serif" font-size="14.00">description</text>
</g>
<!-- source -->
<g id="node7" class="node">
<title>source</title>
<ellipse fill="none" stroke="blue" cx="683.39" cy="-178" rx="38.19" ry="18"/>
<text text-anchor="middle" x="683.39" y="-174.3" font-family="Times,serif" font-size="14.00">string</text>
</g>
<!-- contributor association&#45;&gt;source -->
<g id="edge6" class="edge">
<title>contributor association&#45;&gt;source</title>
<path fill="none" stroke="blue" d="M1223.88,-260.95C1090.51,-256.64 879.58,-247.19 802.39,-229 772.3,-221.91 740.07,-207.93 716.76,-196.56"/>
<polygon fill="blue" stroke="blue" points="718.17,-193.35 707.66,-192.03 715.05,-199.62 718.17,-193.35"/>
<text text-anchor="middle" x="826.39" y="-217.8" font-family="Times,serif" font-size="14.00">source</text>
</g>
<!-- has attribute -->
<g id="node8" class="node">
<title>has attribute</title>
<ellipse fill="none" stroke="blue" cx="791.39" cy="-178" rx="51.99" ry="18"/>
<text text-anchor="middle" x="791.39" y="-174.3" font-family="Times,serif" font-size="14.00">attribute</text>
</g>
<!-- contributor association&#45;&gt;has attribute -->
<g id="edge7" class="edge">
<title>contributor association&#45;&gt;has attribute</title>
<path fill="none" stroke="blue" d="M1225.35,-260.14C1113.48,-255.46 951.1,-245.98 890.39,-229 866.81,-222.4 842.22,-210.02 823.45,-199.23"/>
<polygon fill="blue" stroke="blue" points="825.13,-196.15 814.73,-194.09 821.57,-202.18 825.13,-196.15"/>
<text text-anchor="middle" x="937.39" y="-217.8" font-family="Times,serif" font-size="14.00">has attribute</text>
</g>
<!-- negated -->
<g id="node9" class="node">
<title>negated</title>
<ellipse fill="none" stroke="blue" cx="908.39" cy="-178" rx="46.59" ry="18"/>
<text text-anchor="middle" x="908.39" y="-174.3" font-family="Times,serif" font-size="14.00">boolean</text>
</g>
<!-- contributor association&#45;&gt;negated -->
<g id="edge8" class="edge">
<title>contributor association&#45;&gt;negated</title>
<path fill="none" stroke="blue" d="M1228.71,-258.48C1170,-253.77 1097.04,-245.06 1033.39,-229 1002.98,-221.33 970.11,-207.96 945.71,-196.98"/>
<polygon fill="blue" stroke="blue" points="947.02,-193.72 936.47,-192.75 944.1,-200.09 947.02,-193.72"/>
<text text-anchor="middle" x="1062.39" y="-217.8" font-family="Times,serif" font-size="14.00">negated</text>
</g>
<!-- publications -->
<g id="node10" class="node">
<title>publications</title>
<ellipse fill="none" stroke="blue" cx="1035.39" cy="-178" rx="62.29" ry="18"/>
<text text-anchor="middle" x="1035.39" y="-174.3" font-family="Times,serif" font-size="14.00">publication</text>
</g>
<!-- contributor association&#45;&gt;publications -->
<g id="edge9" class="edge">
<title>contributor association&#45;&gt;publications</title>
<path fill="none" stroke="blue" d="M1243.41,-254.45C1207.35,-249.18 1166.39,-241.14 1130.39,-229 1108.89,-221.75 1086.35,-210.08 1068.62,-199.84"/>
<polygon fill="blue" stroke="blue" points="1070.21,-196.72 1059.82,-194.65 1066.65,-202.75 1070.21,-196.72"/>
<text text-anchor="middle" x="1174.39" y="-217.8" font-family="Times,serif" font-size="14.00">publications</text>
</g>
<!-- has evidence -->
<g id="node11" class="node">
<title>has evidence</title>
<ellipse fill="none" stroke="blue" cx="1191.39" cy="-178" rx="75.29" ry="18"/>
<text text-anchor="middle" x="1191.39" y="-174.3" font-family="Times,serif" font-size="14.00">evidence type</text>
</g>
<!-- contributor association&#45;&gt;has evidence -->
<g id="edge10" class="edge">
<title>contributor association&#45;&gt;has evidence</title>
<path fill="none" stroke="blue" d="M1282.23,-249.15C1267.63,-243.99 1252.39,-237.35 1239.39,-229 1228.75,-222.16 1218.75,-212.5 1210.66,-203.49"/>
<polygon fill="blue" stroke="blue" points="1213.24,-201.13 1204.07,-195.83 1207.94,-205.69 1213.24,-201.13"/>
<text text-anchor="middle" x="1285.89" y="-217.8" font-family="Times,serif" font-size="14.00">has evidence</text>
</g>
<!-- knowledge source -->
<g id="node12" class="node">
<title>knowledge source</title>
<ellipse fill="none" stroke="blue" cx="1393.39" cy="-178" rx="108.58" ry="18"/>
<text text-anchor="middle" x="1393.39" y="-174.3" font-family="Times,serif" font-size="14.00">information resource</text>
</g>
<!-- contributor association&#45;&gt;knowledge source -->
<g id="edge11" class="edge">
<title>contributor association&#45;&gt;knowledge source</title>
<path fill="none" stroke="blue" d="M1335.92,-246.77C1334.78,-236.63 1334.95,-223.89 1340.39,-214 1342.96,-209.35 1346.43,-205.21 1350.38,-201.56"/>
<polygon fill="blue" stroke="blue" points="1352.82,-204.09 1358.45,-195.12 1348.45,-198.62 1352.82,-204.09"/>
<text text-anchor="middle" x="1404.89" y="-217.8" font-family="Times,serif" font-size="14.00">knowledge source</text>
</g>
<!-- original knowledge source -->
<g id="node13" class="node">
<title>original knowledge source</title>
<ellipse fill="none" stroke="blue" cx="1558.39" cy="-178" rx="38.19" ry="18"/>
<text text-anchor="middle" x="1558.39" y="-174.3" font-family="Times,serif" font-size="14.00">string</text>
</g>
<!-- contributor association&#45;&gt;original knowledge source -->
<g id="edge12" class="edge">
<title>contributor association&#45;&gt;original knowledge source</title>
<path fill="none" stroke="blue" d="M1406.92,-250.12C1427.45,-244.77 1449.76,-237.78 1469.39,-229 1480.54,-224.02 1481.88,-220.2 1492.39,-214 1502.49,-208.05 1513.68,-201.94 1523.93,-196.52"/>
<polygon fill="blue" stroke="blue" points="1525.79,-199.5 1533.03,-191.77 1522.54,-193.3 1525.79,-199.5"/>
<text text-anchor="middle" x="1586.39" y="-217.8" font-family="Times,serif" font-size="14.00">original knowledge source</text>
</g>
<!-- primary knowledge source -->
<g id="node14" class="node">
<title>primary knowledge source</title>
<ellipse fill="none" stroke="blue" cx="1723.39" cy="-178" rx="108.58" ry="18"/>
<text text-anchor="middle" x="1723.39" y="-174.3" font-family="Times,serif" font-size="14.00">information resource</text>
</g>
<!-- contributor association&#45;&gt;primary knowledge source -->
<g id="edge13" class="edge">
<title>contributor association&#45;&gt;primary knowledge source</title>
<path fill="none" stroke="blue" d="M1423.33,-252.27C1438,-250.39 1453.13,-248.55 1467.39,-247 1514.62,-241.87 1638.1,-250.62 1680.39,-229 1691.32,-223.42 1700.64,-213.74 1707.77,-204.38"/>
<polygon fill="blue" stroke="blue" points="1710.79,-206.19 1713.7,-196 1705.07,-202.15 1710.79,-206.19"/>
<text text-anchor="middle" x="1794.39" y="-217.8" font-family="Times,serif" font-size="14.00">primary knowledge source</text>
</g>
<!-- aggregator knowledge source -->
<g id="node15" class="node">
<title>aggregator knowledge source</title>
<ellipse fill="none" stroke="blue" cx="1958.39" cy="-178" rx="108.58" ry="18"/>
<text text-anchor="middle" x="1958.39" y="-174.3" font-family="Times,serif" font-size="14.00">information resource</text>
</g>
<!-- contributor association&#45;&gt;aggregator knowledge source -->
<g id="edge14" class="edge">
<title>contributor association&#45;&gt;aggregator knowledge source</title>
<path fill="none" stroke="blue" d="M1421.56,-251.98C1436.77,-250.07 1452.54,-248.3 1467.39,-247 1514.59,-242.88 1848.87,-245.2 1893.39,-229 1897.75,-227.41 1914.51,-214.49 1929.92,-202.18"/>
<polygon fill="blue" stroke="blue" points="1932.18,-204.86 1937.78,-195.86 1927.79,-199.4 1932.18,-204.86"/>
<text text-anchor="middle" x="2021.89" y="-217.8" font-family="Times,serif" font-size="14.00">aggregator knowledge source</text>
</g>
<!-- timepoint -->
<g id="node16" class="node">
<title>timepoint</title>
<ellipse fill="none" stroke="blue" cx="2140.39" cy="-178" rx="55.49" ry="18"/>
<text text-anchor="middle" x="2140.39" y="-174.3" font-family="Times,serif" font-size="14.00">time type</text>
</g>
<!-- contributor association&#45;&gt;timepoint -->
<g id="edge15" class="edge">
<title>contributor association&#45;&gt;timepoint</title>
<path fill="none" stroke="blue" d="M1420.86,-251.88C1436.28,-249.95 1452.31,-248.2 1467.39,-247 1504.07,-244.07 2101.04,-252.44 2129.39,-229 2136.12,-223.44 2139.3,-214.8 2140.67,-206.26"/>
<polygon fill="blue" stroke="blue" points="2144.18,-206.36 2141.56,-196.1 2137.2,-205.75 2144.18,-206.36"/>
<text text-anchor="middle" x="2174.39" y="-217.8" font-family="Times,serif" font-size="14.00">timepoint</text>
</g>
<!-- type -->
<g id="node17" class="node">
<title>type</title>
<ellipse fill="none" stroke="black" cx="2244.39" cy="-178" rx="31.4" ry="18"/>
<text text-anchor="middle" x="2244.39" y="-174.3" font-family="Times,serif" font-size="14.00">type</text>
</g>
<!-- contributor association&#45;&gt;type -->
<g id="edge16" class="edge">
<title>contributor association&#45;&gt;type</title>
<path fill="none" stroke="blue" d="M1420.51,-251.88C1436.04,-249.95 1452.2,-248.19 1467.39,-247 1508.72,-243.77 2177.42,-249.6 2213.39,-229 2222.6,-223.73 2229.45,-214.5 2234.32,-205.39"/>
<polygon fill="blue" stroke="blue" points="2237.6,-206.65 2238.71,-196.12 2231.27,-203.66 2237.6,-206.65"/>
<text text-anchor="middle" x="2244.39" y="-217.8" font-family="Times,serif" font-size="14.00">type</text>
</g>
<!-- category -->
<g id="node19" class="node">
<title>category</title>
<ellipse fill="none" stroke="black" cx="2345.39" cy="-178" rx="51.19" ry="18"/>
<text text-anchor="middle" x="2345.39" y="-174.3" font-family="Times,serif" font-size="14.00">category</text>
</g>
<!-- contributor association&#45;&gt;category -->
<g id="edge17" class="edge">
<title>contributor association&#45;&gt;category</title>
<path fill="none" stroke="blue" d="M1420.51,-251.87C1436.04,-249.93 1452.2,-248.18 1467.39,-247 1555.71,-240.16 2179.46,-254.14 2264.39,-229 2283.73,-223.27 2303.04,-211.64 2317.96,-201.04"/>
<polygon fill="blue" stroke="blue" points="2320.22,-203.72 2326.2,-194.97 2316.07,-198.08 2320.22,-203.72"/>
<text text-anchor="middle" x="2329.89" y="-217.8" font-family="Times,serif" font-size="14.00">category</text>
</g>
<!-- subject -->
<g id="node21" class="node">
<title>subject</title>
<ellipse fill="none" stroke="black" cx="2459.39" cy="-178" rx="44.39" ry="18"/>
<text text-anchor="middle" x="2459.39" y="-174.3" font-family="Times,serif" font-size="14.00">subject</text>
</g>
<!-- contributor association&#45;&gt;subject -->
<g id="edge18" class="edge">
<title>contributor association&#45;&gt;subject</title>
<path fill="none" stroke="blue" d="M1420.51,-251.83C1436.04,-249.9 1452.19,-248.16 1467.39,-247 1566.9,-239.42 2268.81,-254.12 2365.39,-229 2388.25,-223.06 2411.7,-210.6 2429.46,-199.6"/>
<polygon fill="blue" stroke="blue" points="2431.65,-202.36 2438.19,-194.03 2427.88,-196.46 2431.65,-202.36"/>
<text text-anchor="middle" x="2429.39" y="-217.8" font-family="Times,serif" font-size="14.00">subject</text>
</g>
<!-- predicate -->
<g id="node23" class="node">
<title>predicate</title>
<ellipse fill="none" stroke="black" cx="2576.39" cy="-178" rx="54.69" ry="18"/>
<text text-anchor="middle" x="2576.39" y="-174.3" font-family="Times,serif" font-size="14.00">predicate</text>
</g>
<!-- contributor association&#45;&gt;predicate -->
<g id="edge19" class="edge">
<title>contributor association&#45;&gt;predicate</title>
<path fill="none" stroke="blue" d="M1420.5,-251.81C1436.04,-249.88 1452.19,-248.14 1467.39,-247 1577.32,-238.73 2351.6,-252.09 2459.39,-229 2487.93,-222.89 2518.18,-209.77 2540.77,-198.5"/>
<polygon fill="blue" stroke="blue" points="2542.64,-201.47 2549.95,-193.81 2539.46,-195.24 2542.64,-201.47"/>
<text text-anchor="middle" x="2540.39" y="-217.8" font-family="Times,serif" font-size="14.00">predicate</text>
</g>
<!-- object -->
<g id="node25" class="node">
<title>object</title>
<ellipse fill="none" stroke="black" cx="2526.39" cy="-91" rx="38.99" ry="18"/>
<text text-anchor="middle" x="2526.39" y="-87.3" font-family="Times,serif" font-size="14.00">object</text>
</g>
<!-- contributor association&#45;&gt;object -->
<g id="edge20" class="edge">
<title>contributor association&#45;&gt;object</title>
<path fill="none" stroke="blue" d="M1420.16,-251.83C1435.8,-249.88 1452.08,-248.14 1467.39,-247 1590.52,-237.86 2458.85,-259.86 2578.39,-229 2608.62,-221.2 2624.32,-222.76 2640.39,-196 2663.62,-157.33 2606.97,-124.53 2565.48,-106.62"/>
<polygon fill="blue" stroke="blue" points="2566.68,-103.33 2556.1,-102.71 2563.98,-109.79 2566.68,-103.33"/>
<text text-anchor="middle" x="2668.39" y="-174.3" font-family="Times,serif" font-size="14.00">object</text>
</g>
<!-- qualifiers -->
<g id="node27" class="node">
<title>qualifiers</title>
<ellipse fill="none" stroke="black" cx="2783.39" cy="-178" rx="53.89" ry="18"/>
<text text-anchor="middle" x="2783.39" y="-174.3" font-family="Times,serif" font-size="14.00">qualifiers</text>
</g>
<!-- contributor association&#45;&gt;qualifiers -->
<g id="edge21" class="edge">
<title>contributor association&#45;&gt;qualifiers</title>
<path fill="none" stroke="blue" d="M1420.16,-251.81C1435.8,-249.87 1452.08,-248.13 1467.39,-247 1601.93,-237.1 2550.21,-260.45 2681.39,-229 2706.06,-223.09 2731.69,-210.49 2751.09,-199.42"/>
<polygon fill="blue" stroke="blue" points="2752.95,-202.39 2759.81,-194.31 2749.41,-196.35 2752.95,-202.39"/>
<text text-anchor="middle" x="2754.89" y="-217.8" font-family="Times,serif" font-size="14.00">qualifiers</text>
</g>
<!-- association_type -->
<g id="node18" class="node">
<title>association_type</title>
<ellipse fill="none" stroke="blue" cx="1514.39" cy="-265" rx="38.19" ry="18"/>
<text text-anchor="middle" x="1514.39" y="-261.3" font-family="Times,serif" font-size="14.00">string</text>
</g>
<!-- association_category -->
<g id="node20" class="node">
<title>association_category</title>
<ellipse fill="none" stroke="blue" cx="1645.39" cy="-265" rx="74.99" ry="18"/>
<text text-anchor="middle" x="1645.39" y="-261.3" font-family="Times,serif" font-size="14.00">category type</text>
</g>
<!-- subject&#45;&gt;object -->
<g id="edge22" class="edge">
<title>subject&#45;&gt;object</title>
<path fill="none" stroke="black" d="M2472.31,-160.61C2482.29,-147.95 2496.26,-130.24 2507.49,-115.98"/>
<polygon fill="black" stroke="black" points="2510.3,-118.07 2513.74,-108.05 2504.8,-113.74 2510.3,-118.07"/>
<text text-anchor="middle" x="2525.39" y="-130.8" font-family="Times,serif" font-size="14.00">relation</text>
</g>
<!-- relation -->
<g id="node29" class="node">
<title>relation</title>
<ellipse fill="none" stroke="black" cx="2471.39" cy="-18" rx="46.59" ry="18"/>
<text text-anchor="middle" x="2471.39" y="-14.3" font-family="Times,serif" font-size="14.00">relation</text>
</g>
<!-- subject&#45;&gt;relation -->
<g id="edge23" class="edge">
<title>subject&#45;&gt;relation</title>
<path fill="none" stroke="black" stroke-dasharray="1,5" d="M2460.7,-159.79C2462.78,-132.48 2466.84,-78.99 2469.31,-46.38"/>
<polygon fill="black" stroke="black" points="2472.82,-46.42 2470.09,-36.19 2465.84,-45.89 2472.82,-46.42"/>
</g>
<!-- contributor association_subject -->
<g id="node22" class="node">
<title>contributor association_subject</title>
<ellipse fill="none" stroke="blue" cx="1871.39" cy="-265" rx="133.48" ry="18"/>
<text text-anchor="middle" x="1871.39" y="-261.3" font-family="Times,serif" font-size="14.00">information content entity</text>
</g>
<!-- contributor association_predicate -->
<g id="node24" class="node">
<title>contributor association_predicate</title>
<ellipse fill="none" stroke="blue" cx="2100.39" cy="-265" rx="77.99" ry="18"/>
<text text-anchor="middle" x="2100.39" y="-261.3" font-family="Times,serif" font-size="14.00">predicate type</text>
</g>
<!-- object&#45;&gt;relation -->
<g id="edge24" class="edge">
<title>object&#45;&gt;relation</title>
<path fill="none" stroke="black" stroke-dasharray="1,5" d="M2513.91,-73.89C2506.98,-64.94 2498.21,-53.62 2490.44,-43.58"/>
<polygon fill="black" stroke="black" points="2493.1,-41.3 2484.21,-35.54 2487.56,-45.59 2493.1,-41.3"/>
</g>
<!-- contributor association_object -->
<g id="node26" class="node">
<title>contributor association_object</title>
<ellipse fill="none" stroke="blue" cx="2233.39" cy="-265" rx="37.09" ry="18"/>
<text text-anchor="middle" x="2233.39" y="-261.3" font-family="Times,serif" font-size="14.00">agent</text>
</g>
<!-- contributor association_qualifiers -->
<g id="node28" class="node">
<title>contributor association_qualifiers</title>
<ellipse fill="none" stroke="blue" cx="2365.39" cy="-265" rx="76.89" ry="18"/>
<text text-anchor="middle" x="2365.39" y="-261.3" font-family="Times,serif" font-size="14.00">ontology class</text>
</g>
</g>
</svg>
