<?xml version="1.0" encoding="UTF-8" standalone="no"?>
<!DOCTYPE svg PUBLIC "-//W3C//DTD SVG 1.1//EN"
 "http://www.w3.org/Graphics/SVG/1.1/DTD/svg11.dtd">
<!-- Generated by graphviz version 2.43.0 (0)
 -->
<!-- Title: %3 Pages: 1 -->
<svg width="2857pt" height="291pt"
 viewBox="0.00 0.00 2857.34 291.00" xmlns="http://www.w3.org/2000/svg" xmlns:xlink="http://www.w3.org/1999/xlink">
<g id="graph0" class="graph" transform="scale(1 1) rotate(0) translate(4 287)">
<title>%3</title>
<polygon fill="white" stroke="transparent" points="-4,4 -4,-287 2853.34,-287 2853.34,4 -4,4"/>
<!-- contributor association -->
<g id="node1" class="node">
<title>contributor association</title>
<ellipse fill="none" stroke="black" cx="1292.39" cy="-265" rx="118.08" ry="18"/>
<text text-anchor="middle" x="1292.39" y="-261.3" font-family="Times,serif" font-size="14.00">contributor association</text>
</g>
<!-- association -->
<g id="node2" class="node">
<title>association</title>
<ellipse fill="none" stroke="black" cx="62.39" cy="-178" rx="62.29" ry="18"/>
<text text-anchor="middle" x="62.39" y="-174.3" font-family="Times,serif" font-size="14.00">association</text>
</g>
<!-- contributor association&#45;&gt;association -->
<g id="edge1" class="edge">
<title>contributor association&#45;&gt;association</title>
<path fill="none" stroke="black" d="M1174.39,-263.01C943.43,-260.57 439.27,-252.64 267.39,-229 214.09,-221.67 154.46,-206.29 113.32,-194.51"/>
<polygon fill="black" stroke="black" points="114.11,-191.1 103.53,-191.68 112.16,-197.82 114.11,-191.1"/>
<text text-anchor="middle" x="281.39" y="-217.8" font-family="Times,serif" font-size="14.00">is_a</text>
</g>
<!-- id -->
<g id="node3" class="node">
<title>id</title>
<ellipse fill="none" stroke="blue" cx="181.39" cy="-178" rx="38.19" ry="18"/>
<text text-anchor="middle" x="181.39" y="-174.3" font-family="Times,serif" font-size="14.00">string</text>
</g>
<!-- contributor association&#45;&gt;id -->
<g id="edge2" class="edge">
<title>contributor association&#45;&gt;id</title>
<path fill="none" stroke="blue" d="M1175.93,-261.83C967.75,-257.55 539.72,-246.87 391.39,-229 318.44,-220.21 300.2,-215.65 229.39,-196 226.29,-195.14 223.09,-194.17 219.89,-193.16"/>
<polygon fill="blue" stroke="blue" points="220.97,-189.83 210.38,-190 218.76,-196.47 220.97,-189.83"/>
<text text-anchor="middle" x="398.39" y="-217.8" font-family="Times,serif" font-size="14.00">id</text>
</g>
<!-- iri -->
<g id="node4" class="node">
<title>iri</title>
<ellipse fill="none" stroke="blue" cx="282.39" cy="-178" rx="44.39" ry="18"/>
<text text-anchor="middle" x="282.39" y="-174.3" font-family="Times,serif" font-size="14.00">iri type</text>
</g>
<!-- contributor association&#45;&gt;iri -->
<g id="edge3" class="edge">
<title>contributor association&#45;&gt;iri</title>
<path fill="none" stroke="blue" d="M1174,-264.36C1018.94,-263.55 738.85,-257.69 501.39,-229 426.72,-219.98 408.22,-214.85 335.39,-196 332.02,-195.13 328.54,-194.16 325.06,-193.15"/>
<polygon fill="blue" stroke="blue" points="325.89,-189.74 315.3,-190.2 323.86,-196.44 325.89,-189.74"/>
<text text-anchor="middle" x="509.39" y="-217.8" font-family="Times,serif" font-size="14.00">iri</text>
</g>
<!-- name -->
<g id="node5" class="node">
<title>name</title>
<ellipse fill="none" stroke="blue" cx="401.39" cy="-178" rx="56.59" ry="18"/>
<text text-anchor="middle" x="401.39" y="-174.3" font-family="Times,serif" font-size="14.00">label type</text>
</g>
<!-- contributor association&#45;&gt;name -->
<g id="edge4" class="edge">
<title>contributor association&#45;&gt;name</title>
<path fill="none" stroke="blue" d="M1176.62,-261.19C1006.96,-256.56 699.04,-246.11 589.39,-229 540.69,-221.4 486.41,-206.21 448.74,-194.56"/>
<polygon fill="blue" stroke="blue" points="449.65,-191.18 439.06,-191.53 447.56,-197.86 449.65,-191.18"/>
<text text-anchor="middle" x="609.39" y="-217.8" font-family="Times,serif" font-size="14.00">name</text>
</g>
<!-- description -->
<g id="node6" class="node">
<title>description</title>
<ellipse fill="none" stroke="blue" cx="551.39" cy="-178" rx="75.29" ry="18"/>
<text text-anchor="middle" x="551.39" y="-174.3" font-family="Times,serif" font-size="14.00">narrative text</text>
</g>
<!-- contributor association&#45;&gt;description -->
<g id="edge5" class="edge">
<title>contributor association&#45;&gt;description</title>
<path fill="none" stroke="blue" d="M1175.78,-261.71C1024.97,-257.98 770.79,-248.93 679.39,-229 649.14,-222.4 616.67,-209.65 592,-198.67"/>
<polygon fill="blue" stroke="blue" points="593.17,-195.35 582.61,-194.41 590.27,-201.73 593.17,-195.35"/>
<text text-anchor="middle" x="719.89" y="-217.8" font-family="Times,serif" font-size="14.00">description</text>
</g>
<!-- source -->
<g id="node7" class="node">
<title>source</title>
<ellipse fill="none" stroke="blue" cx="683.39" cy="-178" rx="38.19" ry="18"/>
<text text-anchor="middle" x="683.39" y="-174.3" font-family="Times,serif" font-size="14.00">string</text>
</g>
<!-- contributor association&#45;&gt;source -->
<g id="edge6" class="edge">
<title>contributor association&#45;&gt;source</title>
<path fill="none" stroke="blue" d="M1179.11,-259.72C1059.16,-254.49 877.99,-244.38 810.39,-229 778.02,-221.63 743.05,-207.35 718.01,-195.94"/>
<polygon fill="blue" stroke="blue" points="719.47,-192.76 708.93,-191.72 716.53,-199.1 719.47,-192.76"/>
<text text-anchor="middle" x="834.39" y="-217.8" font-family="Times,serif" font-size="14.00">source</text>
</g>
<!-- has attribute -->
<g id="node8" class="node">
<title>has attribute</title>
<ellipse fill="none" stroke="blue" cx="791.39" cy="-178" rx="51.99" ry="18"/>
<text text-anchor="middle" x="791.39" y="-174.3" font-family="Times,serif" font-size="14.00">attribute</text>
</g>
<!-- contributor association&#45;&gt;has attribute -->
<g id="edge7" class="edge">
<title>contributor association&#45;&gt;has attribute</title>
<path fill="none" stroke="blue" d="M1174.17,-263.58C1095.92,-260.82 991.66,-252.4 902.39,-229 875.86,-222.04 847.7,-209.29 826.38,-198.4"/>
<polygon fill="blue" stroke="blue" points="827.88,-195.24 817.39,-193.72 824.64,-201.44 827.88,-195.24"/>
<text text-anchor="middle" x="949.39" y="-217.8" font-family="Times,serif" font-size="14.00">has attribute</text>
</g>
<!-- negated -->
<g id="node9" class="node">
<title>negated</title>
<ellipse fill="none" stroke="blue" cx="908.39" cy="-178" rx="46.59" ry="18"/>
<text text-anchor="middle" x="908.39" y="-174.3" font-family="Times,serif" font-size="14.00">boolean</text>
</g>
<!-- contributor association&#45;&gt;negated -->
<g id="edge8" class="edge">
<title>contributor association&#45;&gt;negated</title>
<path fill="none" stroke="blue" d="M1194.82,-254.81C1149.3,-249.33 1094.63,-241.03 1046.39,-229 1012.48,-220.54 975.3,-206.79 948.08,-195.85"/>
<polygon fill="blue" stroke="blue" points="949.11,-192.49 938.53,-191.96 946.47,-198.98 949.11,-192.49"/>
<text text-anchor="middle" x="1075.39" y="-217.8" font-family="Times,serif" font-size="14.00">negated</text>
</g>
<!-- publications -->
<g id="node10" class="node">
<title>publications</title>
<ellipse fill="none" stroke="blue" cx="1035.39" cy="-178" rx="62.29" ry="18"/>
<text text-anchor="middle" x="1035.39" y="-174.3" font-family="Times,serif" font-size="14.00">publication</text>
</g>
<!-- contributor association&#45;&gt;publications -->
<g id="edge9" class="edge">
<title>contributor association&#45;&gt;publications</title>
<path fill="none" stroke="blue" d="M1222.32,-250.41C1197.41,-244.8 1169.36,-237.58 1144.39,-229 1120.15,-220.66 1094.01,-208.78 1073.41,-198.69"/>
<polygon fill="blue" stroke="blue" points="1074.87,-195.51 1064.36,-194.2 1071.76,-201.78 1074.87,-195.51"/>
<text text-anchor="middle" x="1188.39" y="-217.8" font-family="Times,serif" font-size="14.00">publications</text>
</g>
<!-- has evidence -->
<g id="node11" class="node">
<title>has evidence</title>
<ellipse fill="none" stroke="blue" cx="1191.39" cy="-178" rx="75.29" ry="18"/>
<text text-anchor="middle" x="1191.39" y="-174.3" font-family="Times,serif" font-size="14.00">evidence type</text>
</g>
<!-- contributor association&#45;&gt;has evidence -->
<g id="edge10" class="edge">
<title>contributor association&#45;&gt;has evidence</title>
<path fill="none" stroke="blue" d="M1272.44,-247.21C1257.12,-234.32 1235.81,-216.38 1218.88,-202.13"/>
<polygon fill="blue" stroke="blue" points="1220.87,-199.23 1210.96,-195.47 1216.36,-204.59 1220.87,-199.23"/>
<text text-anchor="middle" x="1294.89" y="-217.8" font-family="Times,serif" font-size="14.00">has evidence</text>
</g>
<!-- knowledge source -->
<g id="node12" class="node">
<title>knowledge source</title>
<ellipse fill="none" stroke="blue" cx="1393.39" cy="-178" rx="108.58" ry="18"/>
<text text-anchor="middle" x="1393.39" y="-174.3" font-family="Times,serif" font-size="14.00">information resource</text>
</g>
<!-- contributor association&#45;&gt;knowledge source -->
<g id="edge11" class="edge">
<title>contributor association&#45;&gt;knowledge source</title>
<path fill="none" stroke="blue" d="M1319.91,-247.49C1328.37,-241.98 1337.52,-235.56 1345.39,-229 1354.6,-221.33 1363.9,-212.07 1371.83,-203.61"/>
<polygon fill="blue" stroke="blue" points="1374.51,-205.87 1378.69,-196.14 1369.35,-201.14 1374.51,-205.87"/>
<text text-anchor="middle" x="1425.89" y="-217.8" font-family="Times,serif" font-size="14.00">knowledge source</text>
</g>
<!-- original knowledge source -->
<g id="node13" class="node">
<title>original knowledge source</title>
<ellipse fill="none" stroke="blue" cx="1628.39" cy="-178" rx="108.58" ry="18"/>
<text text-anchor="middle" x="1628.39" y="-174.3" font-family="Times,serif" font-size="14.00">information resource</text>
</g>
<!-- contributor association&#45;&gt;original knowledge source -->
<g id="edge12" class="edge">
<title>contributor association&#45;&gt;original knowledge source</title>
<path fill="none" stroke="blue" d="M1378.68,-252.66C1414.77,-246.99 1456.95,-239.14 1494.39,-229 1524.04,-220.97 1556.32,-209.03 1581.77,-198.83"/>
<polygon fill="blue" stroke="blue" points="1583.22,-202.02 1591.17,-195.02 1580.59,-195.53 1583.22,-202.02"/>
<text text-anchor="middle" x="1633.39" y="-217.8" font-family="Times,serif" font-size="14.00">original knowledge source</text>
</g>
<!-- primary knowledge source -->
<g id="node14" class="node">
<title>primary knowledge source</title>
<ellipse fill="none" stroke="blue" cx="1863.39" cy="-178" rx="108.58" ry="18"/>
<text text-anchor="middle" x="1863.39" y="-174.3" font-family="Times,serif" font-size="14.00">information resource</text>
</g>
<!-- contributor association&#45;&gt;primary knowledge source -->
<g id="edge13" class="edge">
<title>contributor association&#45;&gt;primary knowledge source</title>
<path fill="none" stroke="blue" d="M1375.26,-252.08C1390.26,-250.18 1405.78,-248.39 1420.39,-247 1558.22,-233.88 1595.98,-257.86 1731.39,-229 1762,-222.48 1794.91,-210.02 1820.22,-199.18"/>
<polygon fill="blue" stroke="blue" points="1821.76,-202.32 1829.52,-195.11 1818.96,-195.91 1821.76,-202.32"/>
<text text-anchor="middle" x="1875.39" y="-217.8" font-family="Times,serif" font-size="14.00">primary knowledge source</text>
</g>
<!-- aggregator knowledge source -->
<g id="node15" class="node">
<title>aggregator knowledge source</title>
<ellipse fill="none" stroke="blue" cx="2098.39" cy="-178" rx="108.58" ry="18"/>
<text text-anchor="middle" x="2098.39" y="-174.3" font-family="Times,serif" font-size="14.00">information resource</text>
</g>
<!-- contributor association&#45;&gt;aggregator knowledge source -->
<g id="edge14" class="edge">
<title>contributor association&#45;&gt;aggregator knowledge source</title>
<path fill="none" stroke="blue" d="M1373.86,-251.94C1389.29,-250.01 1405.31,-248.24 1420.39,-247 1543.15,-236.88 1853.87,-254.42 1974.39,-229 2003.24,-222.92 2033.98,-210.56 2057.64,-199.66"/>
<polygon fill="blue" stroke="blue" points="2059.44,-202.68 2066.99,-195.25 2056.46,-196.35 2059.44,-202.68"/>
<text text-anchor="middle" x="2130.89" y="-217.8" font-family="Times,serif" font-size="14.00">aggregator knowledge source</text>
</g>
<!-- type -->
<g id="node16" class="node">
<title>type</title>
<ellipse fill="none" stroke="black" cx="2256.39" cy="-178" rx="31.4" ry="18"/>
<text text-anchor="middle" x="2256.39" y="-174.3" font-family="Times,serif" font-size="14.00">type</text>
</g>
<!-- contributor association&#45;&gt;type -->
<g id="edge15" class="edge">
<title>contributor association&#45;&gt;type</title>
<path fill="none" stroke="blue" d="M1373.51,-251.86C1389.04,-249.92 1405.2,-248.17 1420.39,-247 1443.14,-245.25 2223.24,-242.82 2241.39,-229 2248.55,-223.56 2252.41,-214.82 2254.46,-206.17"/>
<polygon fill="blue" stroke="blue" points="2257.92,-206.69 2256.11,-196.25 2251.01,-205.53 2257.92,-206.69"/>
<text text-anchor="middle" x="2268.39" y="-217.8" font-family="Times,serif" font-size="14.00">type</text>
</g>
<!-- category -->
<g id="node18" class="node">
<title>category</title>
<ellipse fill="none" stroke="black" cx="2357.39" cy="-178" rx="51.19" ry="18"/>
<text text-anchor="middle" x="2357.39" y="-174.3" font-family="Times,serif" font-size="14.00">category</text>
</g>
<!-- contributor association&#45;&gt;category -->
<g id="edge16" class="edge">
<title>contributor association&#45;&gt;category</title>
<path fill="none" stroke="blue" d="M1373.51,-251.84C1389.04,-249.91 1405.2,-248.16 1420.39,-247 1516.58,-239.64 2196.95,-259.7 2288.39,-229 2305.08,-223.4 2321.15,-212.21 2333.58,-201.83"/>
<polygon fill="blue" stroke="blue" points="2335.96,-204.41 2341.2,-195.2 2331.36,-199.13 2335.96,-204.41"/>
<text text-anchor="middle" x="2348.89" y="-217.8" font-family="Times,serif" font-size="14.00">category</text>
</g>
<!-- subject -->
<g id="node20" class="node">
<title>subject</title>
<ellipse fill="none" stroke="black" cx="2471.39" cy="-178" rx="44.39" ry="18"/>
<text text-anchor="middle" x="2471.39" y="-174.3" font-family="Times,serif" font-size="14.00">subject</text>
</g>
<!-- contributor association&#45;&gt;subject -->
<g id="edge17" class="edge">
<title>contributor association&#45;&gt;subject</title>
<path fill="none" stroke="blue" d="M1373.51,-251.82C1389.04,-249.89 1405.19,-248.15 1420.39,-247 1527.22,-238.93 2281.15,-257.59 2384.39,-229 2405.5,-223.16 2426.86,-210.99 2443.13,-200.13"/>
<polygon fill="blue" stroke="blue" points="2445.37,-202.83 2451.61,-194.27 2441.4,-197.07 2445.37,-202.83"/>
<text text-anchor="middle" x="2446.39" y="-217.8" font-family="Times,serif" font-size="14.00">subject</text>
</g>
<!-- predicate -->
<g id="node22" class="node">
<title>predicate</title>
<ellipse fill="none" stroke="black" cx="2588.39" cy="-178" rx="54.69" ry="18"/>
<text text-anchor="middle" x="2588.39" y="-174.3" font-family="Times,serif" font-size="14.00">predicate</text>
</g>
<!-- contributor association&#45;&gt;predicate -->
<g id="edge18" class="edge">
<title>contributor association&#45;&gt;predicate</title>
<path fill="none" stroke="blue" d="M1373.16,-251.84C1388.8,-249.89 1405.08,-248.14 1420.39,-247 1537.42,-238.26 2361.83,-254.43 2476.39,-229 2503.56,-222.97 2532.17,-210.07 2553.68,-198.88"/>
<polygon fill="blue" stroke="blue" points="2555.55,-201.85 2562.73,-194.06 2552.26,-195.67 2555.55,-201.85"/>
<text text-anchor="middle" x="2555.39" y="-217.8" font-family="Times,serif" font-size="14.00">predicate</text>
</g>
<!-- object -->
<g id="node24" class="node">
<title>object</title>
<ellipse fill="none" stroke="black" cx="2538.39" cy="-91" rx="38.99" ry="18"/>
<text text-anchor="middle" x="2538.39" y="-87.3" font-family="Times,serif" font-size="14.00">object</text>
</g>
<!-- contributor association&#45;&gt;object -->
<g id="edge19" class="edge">
<title>contributor association&#45;&gt;object</title>
<path fill="none" stroke="blue" d="M1373.16,-251.82C1388.8,-249.87 1405.08,-248.13 1420.39,-247 1485.39,-242.2 2530.46,-245.92 2593.39,-229 2622.41,-221.2 2637.19,-221.92 2652.39,-196 2660.49,-182.2 2660.3,-173.91 2652.39,-160 2636.96,-132.81 2605.86,-115.34 2580.04,-104.93"/>
<polygon fill="blue" stroke="blue" points="2581.04,-101.56 2570.45,-101.28 2578.55,-108.1 2581.04,-101.56"/>
<text text-anchor="middle" x="2680.39" y="-174.3" font-family="Times,serif" font-size="14.00">object</text>
</g>
<!-- qualifiers -->
<g id="node26" class="node">
<title>qualifiers</title>
<ellipse fill="none" stroke="black" cx="2795.39" cy="-178" rx="53.89" ry="18"/>
<text text-anchor="middle" x="2795.39" y="-174.3" font-family="Times,serif" font-size="14.00">qualifiers</text>
</g>
<!-- contributor association&#45;&gt;qualifiers -->
<g id="edge20" class="edge">
<title>contributor association&#45;&gt;qualifiers</title>
<path fill="none" stroke="blue" d="M1373.16,-251.8C1388.8,-249.86 1405.08,-248.12 1420.39,-247 1561.48,-236.67 2555.82,-261.93 2693.39,-229 2718.07,-223.09 2743.69,-210.5 2763.09,-199.43"/>
<polygon fill="blue" stroke="blue" points="2764.95,-202.4 2771.81,-194.32 2761.41,-196.36 2764.95,-202.4"/>
<text text-anchor="middle" x="2766.89" y="-217.8" font-family="Times,serif" font-size="14.00">qualifiers</text>
</g>
<!-- association_type -->
<g id="node17" class="node">
<title>association_type</title>
<ellipse fill="none" stroke="blue" cx="1467.39" cy="-265" rx="38.19" ry="18"/>
<text text-anchor="middle" x="1467.39" y="-261.3" font-family="Times,serif" font-size="14.00">string</text>
</g>
<!-- association_category -->
<g id="node19" class="node">
<title>association_category</title>
<ellipse fill="none" stroke="blue" cx="1598.39" cy="-265" rx="74.99" ry="18"/>
<text text-anchor="middle" x="1598.39" y="-261.3" font-family="Times,serif" font-size="14.00">category type</text>
</g>
<!-- subject&#45;&gt;object -->
<g id="edge21" class="edge">
<title>subject&#45;&gt;object</title>
<path fill="none" stroke="black" d="M2484.31,-160.61C2494.29,-147.95 2508.26,-130.24 2519.49,-115.98"/>
<polygon fill="black" stroke="black" points="2522.3,-118.07 2525.74,-108.05 2516.8,-113.74 2522.3,-118.07"/>
<text text-anchor="middle" x="2537.39" y="-130.8" font-family="Times,serif" font-size="14.00">relation</text>
</g>
<!-- relation -->
<g id="node28" class="node">
<title>relation</title>
<ellipse fill="none" stroke="black" cx="2483.39" cy="-18" rx="46.59" ry="18"/>
<text text-anchor="middle" x="2483.39" y="-14.3" font-family="Times,serif" font-size="14.00">relation</text>
</g>
<!-- subject&#45;&gt;relation -->
<g id="edge22" class="edge">
<title>subject&#45;&gt;relation</title>
<path fill="none" stroke="black" stroke-dasharray="1,5" d="M2472.7,-159.79C2474.78,-132.48 2478.84,-78.99 2481.31,-46.38"/>
<polygon fill="black" stroke="black" points="2484.82,-46.42 2482.09,-36.19 2477.84,-45.89 2484.82,-46.42"/>
</g>
<!-- contributor association_subject -->
<g id="node21" class="node">
<title>contributor association_subject</title>
<ellipse fill="none" stroke="blue" cx="1824.39" cy="-265" rx="133.48" ry="18"/>
<text text-anchor="middle" x="1824.39" y="-261.3" font-family="Times,serif" font-size="14.00">information content entity</text>
</g>
<!-- contributor association_predicate -->
<g id="node23" class="node">
<title>contributor association_predicate</title>
<ellipse fill="none" stroke="blue" cx="2053.39" cy="-265" rx="77.99" ry="18"/>
<text text-anchor="middle" x="2053.39" y="-261.3" font-family="Times,serif" font-size="14.00">predicate type</text>
</g>
<!-- object&#45;&gt;relation -->
<g id="edge23" class="edge">
<title>object&#45;&gt;relation</title>
<path fill="none" stroke="black" stroke-dasharray="1,5" d="M2525.91,-73.89C2518.98,-64.94 2510.21,-53.62 2502.44,-43.58"/>
<polygon fill="black" stroke="black" points="2505.1,-41.3 2496.21,-35.54 2499.56,-45.59 2505.1,-41.3"/>
</g>
<!-- contributor association_object -->
<g id="node25" class="node">
<title>contributor association_object</title>
<ellipse fill="none" stroke="blue" cx="2186.39" cy="-265" rx="37.09" ry="18"/>
<text text-anchor="middle" x="2186.39" y="-261.3" font-family="Times,serif" font-size="14.00">agent</text>
</g>
<!-- contributor association_qualifiers -->
<g id="node27" class="node">
<title>contributor association_qualifiers</title>
<ellipse fill="none" stroke="blue" cx="2318.39" cy="-265" rx="76.89" ry="18"/>
<text text-anchor="middle" x="2318.39" y="-261.3" font-family="Times,serif" font-size="14.00">ontology class</text>
</g>
</g>
</svg>
