<?xml version="1.0" encoding="UTF-8" standalone="no"?>
<!DOCTYPE svg PUBLIC "-//W3C//DTD SVG 1.1//EN"
 "http://www.w3.org/Graphics/SVG/1.1/DTD/svg11.dtd">
<!-- Generated by graphviz version 2.43.0 (0)
 -->
<!-- Title: %3 Pages: 1 -->
<svg width="4723pt" height="291pt"
 viewBox="0.00 0.00 4723.34 291.00" xmlns="http://www.w3.org/2000/svg" xmlns:xlink="http://www.w3.org/1999/xlink">
<g id="graph0" class="graph" transform="scale(1 1) rotate(0) translate(4 287)">
<title>%3</title>
<polygon fill="white" stroke="transparent" points="-4,4 -4,-287 4719.34,-287 4719.34,4 -4,4"/>
<!-- contributor association -->
<g id="node1" class="node">
<title>contributor association</title>
<ellipse fill="none" stroke="black" cx="2444.39" cy="-265" rx="118.08" ry="18"/>
<text text-anchor="middle" x="2444.39" y="-261.3" font-family="Times,serif" font-size="14.00">contributor association</text>
</g>
<!-- association -->
<g id="node2" class="node">
<title>association</title>
<ellipse fill="none" stroke="black" cx="62.39" cy="-178" rx="62.29" ry="18"/>
<text text-anchor="middle" x="62.39" y="-174.3" font-family="Times,serif" font-size="14.00">association</text>
</g>
<!-- contributor association&#45;&gt;association -->
<g id="edge1" class="edge">
<title>contributor association&#45;&gt;association</title>
<path fill="none" stroke="black" d="M2326.37,-263.65C1902.36,-262.18 470.51,-255.32 266.39,-229 213.1,-222.13 153.57,-206.6 112.64,-194.66"/>
<polygon fill="black" stroke="black" points="113.49,-191.26 102.91,-191.79 111.51,-197.98 113.49,-191.26"/>
<text text-anchor="middle" x="280.39" y="-217.8" font-family="Times,serif" font-size="14.00">is_a</text>
</g>
<!-- id -->
<g id="node3" class="node">
<title>id</title>
<ellipse fill="none" stroke="blue" cx="181.39" cy="-178" rx="38.19" ry="18"/>
<text text-anchor="middle" x="181.39" y="-174.3" font-family="Times,serif" font-size="14.00">string</text>
</g>
<!-- contributor association&#45;&gt;id -->
<g id="edge2" class="edge">
<title>contributor association&#45;&gt;id</title>
<path fill="none" stroke="blue" d="M2326.43,-263.27C1918.4,-260.59 581.35,-250.24 389.39,-229 317.23,-221.01 299.34,-215.5 229.39,-196 226.29,-195.13 223.09,-194.17 219.89,-193.15"/>
<polygon fill="blue" stroke="blue" points="220.97,-189.82 210.38,-189.98 218.76,-196.46 220.97,-189.82"/>
<text text-anchor="middle" x="396.39" y="-217.8" font-family="Times,serif" font-size="14.00">id</text>
</g>
<!-- iri -->
<g id="node4" class="node">
<title>iri</title>
<ellipse fill="none" stroke="blue" cx="282.39" cy="-178" rx="44.39" ry="18"/>
<text text-anchor="middle" x="282.39" y="-174.3" font-family="Times,serif" font-size="14.00">iri type</text>
</g>
<!-- contributor association&#45;&gt;iri -->
<g id="edge3" class="edge">
<title>contributor association&#45;&gt;iri</title>
<path fill="none" stroke="blue" d="M2326.47,-263.15C1932.64,-260.12 677.42,-249.01 496.39,-229 423.79,-220.98 406.05,-214.52 335.39,-196 332.02,-195.12 328.54,-194.14 325.06,-193.12"/>
<polygon fill="blue" stroke="blue" points="325.9,-189.72 315.31,-190.17 323.86,-196.42 325.9,-189.72"/>
<text text-anchor="middle" x="504.39" y="-217.8" font-family="Times,serif" font-size="14.00">iri</text>
</g>
<!-- name -->
<g id="node5" class="node">
<title>name</title>
<ellipse fill="none" stroke="blue" cx="401.39" cy="-178" rx="56.59" ry="18"/>
<text text-anchor="middle" x="401.39" y="-174.3" font-family="Times,serif" font-size="14.00">label type</text>
</g>
<!-- contributor association&#45;&gt;name -->
<g id="edge4" class="edge">
<title>contributor association&#45;&gt;name</title>
<path fill="none" stroke="blue" d="M2326.44,-263.43C1945.1,-261.34 760.3,-252.98 589.39,-229 540.27,-222.11 485.63,-206.67 447.98,-194.75"/>
<polygon fill="blue" stroke="blue" points="448.89,-191.37 438.3,-191.65 446.76,-198.04 448.89,-191.37"/>
<text text-anchor="middle" x="609.39" y="-217.8" font-family="Times,serif" font-size="14.00">name</text>
</g>
<!-- description -->
<g id="node6" class="node">
<title>description</title>
<ellipse fill="none" stroke="blue" cx="551.39" cy="-178" rx="75.29" ry="18"/>
<text text-anchor="middle" x="551.39" y="-174.3" font-family="Times,serif" font-size="14.00">narrative text</text>
</g>
<!-- contributor association&#45;&gt;description -->
<g id="edge5" class="edge">
<title>contributor association&#45;&gt;description</title>
<path fill="none" stroke="blue" d="M2326.03,-263.95C1957.43,-263.47 845.21,-259.49 685.39,-229 653.14,-222.85 618.44,-209.7 592.44,-198.44"/>
<polygon fill="blue" stroke="blue" points="593.84,-195.23 583.28,-194.39 591.01,-201.63 593.84,-195.23"/>
<text text-anchor="middle" x="725.89" y="-217.8" font-family="Times,serif" font-size="14.00">description</text>
</g>
<!-- has attribute -->
<g id="node7" class="node">
<title>has attribute</title>
<ellipse fill="none" stroke="blue" cx="696.39" cy="-178" rx="51.99" ry="18"/>
<text text-anchor="middle" x="696.39" y="-174.3" font-family="Times,serif" font-size="14.00">attribute</text>
</g>
<!-- contributor association&#45;&gt;has attribute -->
<g id="edge6" class="edge">
<title>contributor association&#45;&gt;has attribute</title>
<path fill="none" stroke="blue" d="M2326.09,-263.95C1976.65,-263.46 964.38,-259.39 818.39,-229 788.46,-222.77 756.54,-209.42 732.86,-198.09"/>
<polygon fill="blue" stroke="blue" points="734.09,-194.79 723.57,-193.54 731.02,-201.08 734.09,-194.79"/>
<text text-anchor="middle" x="865.39" y="-217.8" font-family="Times,serif" font-size="14.00">has attribute</text>
</g>
<!-- negated -->
<g id="node8" class="node">
<title>negated</title>
<ellipse fill="none" stroke="blue" cx="813.39" cy="-178" rx="46.59" ry="18"/>
<text text-anchor="middle" x="813.39" y="-174.3" font-family="Times,serif" font-size="14.00">boolean</text>
</g>
<!-- contributor association&#45;&gt;negated -->
<g id="edge7" class="edge">
<title>contributor association&#45;&gt;negated</title>
<path fill="none" stroke="blue" d="M2326.75,-262.94C2002.85,-259.78 1113.33,-249.33 982.39,-229 937.95,-222.1 888.83,-206.64 855.05,-194.72"/>
<polygon fill="blue" stroke="blue" points="856.11,-191.39 845.52,-191.31 853.75,-197.98 856.11,-191.39"/>
<text text-anchor="middle" x="1011.39" y="-217.8" font-family="Times,serif" font-size="14.00">negated</text>
</g>
<!-- publications -->
<g id="node9" class="node">
<title>publications</title>
<ellipse fill="none" stroke="blue" cx="940.39" cy="-178" rx="62.29" ry="18"/>
<text text-anchor="middle" x="940.39" y="-174.3" font-family="Times,serif" font-size="14.00">publication</text>
</g>
<!-- contributor association&#45;&gt;publications -->
<g id="edge8" class="edge">
<title>contributor association&#45;&gt;publications</title>
<path fill="none" stroke="blue" d="M2327.03,-262.66C2023.6,-258.96 1228.51,-247.59 1110.39,-229 1067.52,-222.25 1020.28,-207.76 986.5,-196.1"/>
<polygon fill="blue" stroke="blue" points="987.5,-192.75 976.9,-192.74 985.18,-199.35 987.5,-192.75"/>
<text text-anchor="middle" x="1154.39" y="-217.8" font-family="Times,serif" font-size="14.00">publications</text>
</g>
<!-- has evidence -->
<g id="node10" class="node">
<title>has evidence</title>
<ellipse fill="none" stroke="blue" cx="1096.39" cy="-178" rx="75.29" ry="18"/>
<text text-anchor="middle" x="1096.39" y="-174.3" font-family="Times,serif" font-size="14.00">evidence type</text>
</g>
<!-- contributor association&#45;&gt;has evidence -->
<g id="edge9" class="edge">
<title>contributor association&#45;&gt;has evidence</title>
<path fill="none" stroke="blue" d="M2325.9,-264.25C2069.49,-264.16 1470.13,-260.48 1269.39,-229 1226.66,-222.3 1179.6,-208.24 1145.36,-196.73"/>
<polygon fill="blue" stroke="blue" points="1146.2,-193.32 1135.61,-193.41 1143.94,-199.95 1146.2,-193.32"/>
<text text-anchor="middle" x="1315.89" y="-217.8" font-family="Times,serif" font-size="14.00">has evidence</text>
</g>
<!-- knowledge source -->
<g id="node11" class="node">
<title>knowledge source</title>
<ellipse fill="none" stroke="blue" cx="1298.39" cy="-178" rx="108.58" ry="18"/>
<text text-anchor="middle" x="1298.39" y="-174.3" font-family="Times,serif" font-size="14.00">information resource</text>
</g>
<!-- contributor association&#45;&gt;knowledge source -->
<g id="edge10" class="edge">
<title>contributor association&#45;&gt;knowledge source</title>
<path fill="none" stroke="blue" d="M2326.86,-262.56C2074.7,-259.11 1497.52,-249.11 1410.39,-229 1384.37,-222.99 1356.96,-210.87 1335.77,-200.06"/>
<polygon fill="blue" stroke="blue" points="1337.28,-196.9 1326.79,-195.38 1334.04,-203.11 1337.28,-196.9"/>
<text text-anchor="middle" x="1474.89" y="-217.8" font-family="Times,serif" font-size="14.00">knowledge source</text>
</g>
<!-- primary knowledge source -->
<g id="node12" class="node">
<title>primary knowledge source</title>
<ellipse fill="none" stroke="blue" cx="1533.39" cy="-178" rx="108.58" ry="18"/>
<text text-anchor="middle" x="1533.39" y="-174.3" font-family="Times,serif" font-size="14.00">information resource</text>
</g>
<!-- contributor association&#45;&gt;primary knowledge source -->
<g id="edge11" class="edge">
<title>contributor association&#45;&gt;primary knowledge source</title>
<path fill="none" stroke="blue" d="M2326.83,-262.66C2092.46,-259.52 1586.71,-250.33 1555.39,-229 1547.53,-223.65 1542.46,-214.82 1539.19,-206.06"/>
<polygon fill="blue" stroke="blue" points="1542.5,-204.91 1536.21,-196.38 1535.81,-206.97 1542.5,-204.91"/>
<text text-anchor="middle" x="1650.39" y="-217.8" font-family="Times,serif" font-size="14.00">primary knowledge source</text>
</g>
<!-- aggregator knowledge source -->
<g id="node13" class="node">
<title>aggregator knowledge source</title>
<ellipse fill="none" stroke="blue" cx="1768.39" cy="-178" rx="108.58" ry="18"/>
<text text-anchor="middle" x="1768.39" y="-174.3" font-family="Times,serif" font-size="14.00">information resource</text>
</g>
<!-- contributor association&#45;&gt;aggregator knowledge source -->
<g id="edge12" class="edge">
<title>contributor association&#45;&gt;aggregator knowledge source</title>
<path fill="none" stroke="blue" d="M2327.38,-262.22C2135.42,-258.72 1772.82,-249.43 1753.39,-229 1747.32,-222.61 1748.03,-213.84 1751.25,-205.44"/>
<polygon fill="blue" stroke="blue" points="1754.49,-206.77 1755.72,-196.25 1748.2,-203.71 1754.49,-206.77"/>
<text text-anchor="middle" x="1859.89" y="-217.8" font-family="Times,serif" font-size="14.00">aggregator knowledge source</text>
</g>
<!-- timepoint -->
<g id="node14" class="node">
<title>timepoint</title>
<ellipse fill="none" stroke="blue" cx="1950.39" cy="-178" rx="55.49" ry="18"/>
<text text-anchor="middle" x="1950.39" y="-174.3" font-family="Times,serif" font-size="14.00">time type</text>
</g>
<!-- contributor association&#45;&gt;timepoint -->
<g id="edge13" class="edge">
<title>contributor association&#45;&gt;timepoint</title>
<path fill="none" stroke="blue" d="M2329.87,-260.35C2203.68,-255.53 2014.6,-245.65 1985.39,-229 1975.73,-223.49 1968.1,-214.09 1962.47,-204.92"/>
<polygon fill="blue" stroke="blue" points="1965.42,-203.01 1957.5,-195.97 1959.3,-206.41 1965.42,-203.01"/>
<text text-anchor="middle" x="2020.39" y="-217.8" font-family="Times,serif" font-size="14.00">timepoint</text>
</g>
<!-- original subject -->
<g id="node15" class="node">
<title>original subject</title>
<ellipse fill="none" stroke="blue" cx="2062.39" cy="-178" rx="38.19" ry="18"/>
<text text-anchor="middle" x="2062.39" y="-174.3" font-family="Times,serif" font-size="14.00">string</text>
</g>
<!-- contributor association&#45;&gt;original subject -->
<g id="edge14" class="edge">
<title>contributor association&#45;&gt;original subject</title>
<path fill="none" stroke="blue" d="M2329.27,-260.82C2224.55,-256.74 2083.61,-247.81 2065.39,-229 2059.61,-223.03 2057.73,-214.54 2057.64,-206.25"/>
<polygon fill="blue" stroke="blue" points="2061.15,-206.27 2058.33,-196.06 2054.16,-205.8 2061.15,-206.27"/>
<text text-anchor="middle" x="2121.39" y="-217.8" font-family="Times,serif" font-size="14.00">original subject</text>
</g>
<!-- original predicate -->
<g id="node16" class="node">
<title>original predicate</title>
<ellipse fill="none" stroke="blue" cx="2176.39" cy="-178" rx="57.39" ry="18"/>
<text text-anchor="middle" x="2176.39" y="-174.3" font-family="Times,serif" font-size="14.00">uriorcurie</text>
</g>
<!-- contributor association&#45;&gt;original predicate -->
<g id="edge15" class="edge">
<title>contributor association&#45;&gt;original predicate</title>
<path fill="none" stroke="blue" d="M2330.32,-260.08C2273.5,-255.83 2212.48,-247.07 2191.39,-229 2184.74,-223.3 2180.97,-214.77 2178.86,-206.37"/>
<polygon fill="blue" stroke="blue" points="2182.27,-205.58 2177.02,-196.37 2175.39,-206.84 2182.27,-205.58"/>
<text text-anchor="middle" x="2254.89" y="-217.8" font-family="Times,serif" font-size="14.00">original predicate</text>
</g>
<!-- original object -->
<g id="node17" class="node">
<title>original object</title>
<ellipse fill="none" stroke="blue" cx="2304.39" cy="-178" rx="38.19" ry="18"/>
<text text-anchor="middle" x="2304.39" y="-174.3" font-family="Times,serif" font-size="14.00">string</text>
</g>
<!-- contributor association&#45;&gt;original object -->
<g id="edge16" class="edge">
<title>contributor association&#45;&gt;original object</title>
<path fill="none" stroke="blue" d="M2375.15,-250.34C2360.7,-245.28 2346.26,-238.39 2334.39,-229 2326.46,-222.73 2320.16,-213.74 2315.41,-205.11"/>
<polygon fill="blue" stroke="blue" points="2318.47,-203.41 2310.87,-196.03 2312.21,-206.54 2318.47,-203.41"/>
<text text-anchor="middle" x="2385.89" y="-217.8" font-family="Times,serif" font-size="14.00">original object</text>
</g>
<!-- subject category -->
<g id="node18" class="node">
<title>subject category</title>
<ellipse fill="none" stroke="blue" cx="2437.39" cy="-178" rx="76.89" ry="18"/>
<text text-anchor="middle" x="2437.39" y="-174.3" font-family="Times,serif" font-size="14.00">ontology class</text>
</g>
<!-- contributor association&#45;&gt;subject category -->
<g id="edge17" class="edge">
<title>contributor association&#45;&gt;subject category</title>
<path fill="none" stroke="blue" d="M2442.98,-246.8C2442.02,-235.16 2440.73,-219.55 2439.64,-206.24"/>
<polygon fill="blue" stroke="blue" points="2443.12,-205.85 2438.81,-196.18 2436.14,-206.43 2443.12,-205.85"/>
<text text-anchor="middle" x="2500.89" y="-217.8" font-family="Times,serif" font-size="14.00">subject category</text>
</g>
<!-- object category -->
<g id="node19" class="node">
<title>object category</title>
<ellipse fill="none" stroke="blue" cx="2608.39" cy="-178" rx="76.89" ry="18"/>
<text text-anchor="middle" x="2608.39" y="-174.3" font-family="Times,serif" font-size="14.00">ontology class</text>
</g>
<!-- contributor association&#45;&gt;object category -->
<g id="edge18" class="edge">
<title>contributor association&#45;&gt;object category</title>
<path fill="none" stroke="blue" d="M2515.16,-250.52C2532.1,-245.4 2549.56,-238.43 2564.39,-229 2574.55,-222.54 2583.73,-213.06 2591.04,-204.09"/>
<polygon fill="blue" stroke="blue" points="2593.87,-206.15 2597.2,-196.1 2588.32,-201.88 2593.87,-206.15"/>
<text text-anchor="middle" x="2636.89" y="-217.8" font-family="Times,serif" font-size="14.00">object category</text>
</g>
<!-- subject closure -->
<g id="node20" class="node">
<title>subject closure</title>
<ellipse fill="none" stroke="blue" cx="2741.39" cy="-178" rx="38.19" ry="18"/>
<text text-anchor="middle" x="2741.39" y="-174.3" font-family="Times,serif" font-size="14.00">string</text>
</g>
<!-- contributor association&#45;&gt;subject closure -->
<g id="edge19" class="edge">
<title>contributor association&#45;&gt;subject closure</title>
<path fill="none" stroke="blue" d="M2529.89,-252.47C2602.23,-242.66 2694.5,-230 2696.39,-229 2707.56,-223.07 2717.34,-213.21 2724.89,-203.81"/>
<polygon fill="blue" stroke="blue" points="2727.73,-205.87 2730.94,-195.77 2722.13,-201.66 2727.73,-205.87"/>
<text text-anchor="middle" x="2769.89" y="-217.8" font-family="Times,serif" font-size="14.00">subject closure</text>
</g>
<!-- object closure -->
<g id="node21" class="node">
<title>object closure</title>
<ellipse fill="none" stroke="blue" cx="2847.39" cy="-178" rx="38.19" ry="18"/>
<text text-anchor="middle" x="2847.39" y="-174.3" font-family="Times,serif" font-size="14.00">string</text>
</g>
<!-- contributor association&#45;&gt;object closure -->
<g id="edge20" class="edge">
<title>contributor association&#45;&gt;object closure</title>
<path fill="none" stroke="blue" d="M2527.62,-252.19C2542.51,-250.29 2557.9,-248.47 2572.39,-247 2600.76,-244.12 2805.5,-246 2828.39,-229 2835.79,-223.51 2840.3,-214.77 2843.06,-206.12"/>
<polygon fill="blue" stroke="blue" points="2846.51,-206.76 2845.56,-196.21 2839.72,-205.05 2846.51,-206.76"/>
<text text-anchor="middle" x="2890.39" y="-217.8" font-family="Times,serif" font-size="14.00">object closure</text>
</g>
<!-- subject category closure -->
<g id="node22" class="node">
<title>subject category closure</title>
<ellipse fill="none" stroke="blue" cx="2980.39" cy="-178" rx="76.89" ry="18"/>
<text text-anchor="middle" x="2980.39" y="-174.3" font-family="Times,serif" font-size="14.00">ontology class</text>
</g>
<!-- contributor association&#45;&gt;subject category closure -->
<g id="edge21" class="edge">
<title>contributor association&#45;&gt;subject category closure</title>
<path fill="none" stroke="blue" d="M2526.91,-252.01C2542.01,-250.11 2557.66,-248.33 2572.39,-247 2613.61,-243.27 2908.03,-248.75 2944.39,-229 2954.37,-223.58 2962.26,-214.07 2968.08,-204.78"/>
<polygon fill="blue" stroke="blue" points="2971.12,-206.51 2973.02,-196.09 2965.04,-203.05 2971.12,-206.51"/>
<text text-anchor="middle" x="3048.89" y="-217.8" font-family="Times,serif" font-size="14.00">subject category closure</text>
</g>
<!-- object category closure -->
<g id="node23" class="node">
<title>object category closure</title>
<ellipse fill="none" stroke="blue" cx="3173.39" cy="-178" rx="76.89" ry="18"/>
<text text-anchor="middle" x="3173.39" y="-174.3" font-family="Times,serif" font-size="14.00">ontology class</text>
</g>
<!-- contributor association&#45;&gt;object category closure -->
<g id="edge22" class="edge">
<title>contributor association&#45;&gt;object category closure</title>
<path fill="none" stroke="blue" d="M2525.86,-251.93C2541.29,-250 2557.31,-248.24 2572.39,-247 2603.86,-244.42 3112.83,-244.4 3140.39,-229 3149.93,-223.67 3157.19,-214.3 3162.45,-205.11"/>
<polygon fill="blue" stroke="blue" points="3165.6,-206.62 3167.04,-196.12 3159.37,-203.43 3165.6,-206.62"/>
<text text-anchor="middle" x="3239.89" y="-217.8" font-family="Times,serif" font-size="14.00">object category closure</text>
</g>
<!-- subject namespace -->
<g id="node24" class="node">
<title>subject namespace</title>
<ellipse fill="none" stroke="blue" cx="3363.39" cy="-178" rx="38.19" ry="18"/>
<text text-anchor="middle" x="3363.39" y="-174.3" font-family="Times,serif" font-size="14.00">string</text>
</g>
<!-- contributor association&#45;&gt;subject namespace -->
<g id="edge23" class="edge">
<title>contributor association&#45;&gt;subject namespace</title>
<path fill="none" stroke="blue" d="M2525.51,-251.88C2541.04,-249.94 2557.2,-248.19 2572.39,-247 2614.22,-243.73 3290.28,-248.57 3327.39,-229 3337.58,-223.63 3345.56,-213.94 3351.39,-204.51"/>
<polygon fill="blue" stroke="blue" points="3354.49,-206.13 3356.33,-195.7 3348.39,-202.71 3354.49,-206.13"/>
<text text-anchor="middle" x="3412.39" y="-217.8" font-family="Times,serif" font-size="14.00">subject namespace</text>
</g>
<!-- object namespace -->
<g id="node25" class="node">
<title>object namespace</title>
<ellipse fill="none" stroke="blue" cx="3522.39" cy="-178" rx="38.19" ry="18"/>
<text text-anchor="middle" x="3522.39" y="-174.3" font-family="Times,serif" font-size="14.00">string</text>
</g>
<!-- contributor association&#45;&gt;object namespace -->
<g id="edge24" class="edge">
<title>contributor association&#45;&gt;object namespace</title>
<path fill="none" stroke="blue" d="M2525.51,-251.83C2541.04,-249.9 2557.19,-248.16 2572.39,-247 2622.93,-243.16 3439.22,-251.97 3484.39,-229 3494.85,-223.68 3503.23,-214 3509.43,-204.56"/>
<polygon fill="blue" stroke="blue" points="3512.58,-206.12 3514.71,-195.74 3506.57,-202.53 3512.58,-206.12"/>
<text text-anchor="middle" x="3565.39" y="-217.8" font-family="Times,serif" font-size="14.00">object namespace</text>
</g>
<!-- subject label closure -->
<g id="node26" class="node">
<title>subject label closure</title>
<ellipse fill="none" stroke="blue" cx="3673.39" cy="-178" rx="38.19" ry="18"/>
<text text-anchor="middle" x="3673.39" y="-174.3" font-family="Times,serif" font-size="14.00">string</text>
</g>
<!-- contributor association&#45;&gt;subject label closure -->
<g id="edge25" class="edge">
<title>contributor association&#45;&gt;subject label closure</title>
<path fill="none" stroke="blue" d="M2525.16,-251.84C2540.8,-249.89 2557.08,-248.14 2572.39,-247 2631.18,-242.61 3580.48,-254.99 3633.39,-229 3644.24,-223.67 3653.09,-213.85 3659.68,-204.32"/>
<polygon fill="blue" stroke="blue" points="3662.7,-206.1 3665.09,-195.78 3656.78,-202.35 3662.7,-206.1"/>
<text text-anchor="middle" x="3725.39" y="-217.8" font-family="Times,serif" font-size="14.00">subject label closure</text>
</g>
<!-- object label closure -->
<g id="node27" class="node">
<title>object label closure</title>
<ellipse fill="none" stroke="blue" cx="3844.39" cy="-178" rx="38.19" ry="18"/>
<text text-anchor="middle" x="3844.39" y="-174.3" font-family="Times,serif" font-size="14.00">string</text>
</g>
<!-- contributor association&#45;&gt;object label closure -->
<g id="edge26" class="edge">
<title>contributor association&#45;&gt;object label closure</title>
<path fill="none" stroke="blue" d="M2525.16,-251.81C2540.8,-249.87 2557.08,-248.13 2572.39,-247 2606.5,-244.49 3772.59,-243.85 3803.39,-229 3814.39,-223.7 3823.44,-213.88 3830.21,-204.34"/>
<polygon fill="blue" stroke="blue" points="3833.26,-206.08 3835.79,-195.8 3827.39,-202.26 3833.26,-206.08"/>
<text text-anchor="middle" x="3890.89" y="-217.8" font-family="Times,serif" font-size="14.00">object label closure</text>
</g>
<!-- retrieval source ids -->
<g id="node28" class="node">
<title>retrieval source ids</title>
<ellipse fill="none" stroke="blue" cx="3988.39" cy="-178" rx="84.49" ry="18"/>
<text text-anchor="middle" x="3988.39" y="-174.3" font-family="Times,serif" font-size="14.00">retrieval source</text>
</g>
<!-- contributor association&#45;&gt;retrieval source ids -->
<g id="edge27" class="edge">
<title>contributor association&#45;&gt;retrieval source ids</title>
<path fill="none" stroke="blue" d="M2525.16,-251.79C2540.8,-249.85 2557.08,-248.11 2572.39,-247 2610.96,-244.2 3931.8,-249.81 3964.39,-229 3972.74,-223.67 3978.25,-214.56 3981.86,-205.56"/>
<polygon fill="blue" stroke="blue" points="3985.2,-206.62 3985.08,-196.03 3978.57,-204.39 3985.2,-206.62"/>
<text text-anchor="middle" x="4046.89" y="-217.8" font-family="Times,serif" font-size="14.00">retrieval source ids</text>
</g>
<!-- type -->
<g id="node29" class="node">
<title>type</title>
<ellipse fill="none" stroke="black" cx="4122.39" cy="-178" rx="31.4" ry="18"/>
<text text-anchor="middle" x="4122.39" y="-174.3" font-family="Times,serif" font-size="14.00">type</text>
</g>
<!-- contributor association&#45;&gt;type -->
<g id="edge28" class="edge">
<title>contributor association&#45;&gt;type</title>
<path fill="none" stroke="blue" d="M2525.16,-251.77C2540.79,-249.83 2557.08,-248.1 2572.39,-247 2593.84,-245.46 4104.98,-243.99 4120.39,-229 4126.42,-223.15 4128.18,-214.58 4128.03,-206.19"/>
<polygon fill="blue" stroke="blue" points="4131.52,-205.85 4127.07,-196.23 4124.55,-206.52 4131.52,-205.85"/>
<text text-anchor="middle" x="4143.39" y="-217.8" font-family="Times,serif" font-size="14.00">type</text>
</g>
<!-- category -->
<g id="node31" class="node">
<title>category</title>
<ellipse fill="none" stroke="black" cx="4223.39" cy="-178" rx="51.19" ry="18"/>
<text text-anchor="middle" x="4223.39" y="-174.3" font-family="Times,serif" font-size="14.00">category</text>
</g>
<!-- contributor association&#45;&gt;category -->
<g id="edge29" class="edge">
<title>contributor association&#45;&gt;category</title>
<path fill="none" stroke="blue" d="M2525.16,-251.77C2540.79,-249.83 2557.08,-248.1 2572.39,-247 2616.48,-243.83 4121.92,-244.28 4163.39,-229 4178.14,-223.57 4191.83,-212.81 4202.4,-202.66"/>
<polygon fill="blue" stroke="blue" points="4204.97,-205.03 4209.51,-195.46 4199.99,-200.11 4204.97,-205.03"/>
<text text-anchor="middle" x="4220.89" y="-217.8" font-family="Times,serif" font-size="14.00">category</text>
</g>
<!-- subject -->
<g id="node33" class="node">
<title>subject</title>
<ellipse fill="none" stroke="black" cx="4337.39" cy="-178" rx="44.39" ry="18"/>
<text text-anchor="middle" x="4337.39" y="-174.3" font-family="Times,serif" font-size="14.00">subject</text>
</g>
<!-- contributor association&#45;&gt;subject -->
<g id="edge30" class="edge">
<title>contributor association&#45;&gt;subject</title>
<path fill="none" stroke="blue" d="M2525.16,-251.76C2540.79,-249.82 2557.08,-248.09 2572.39,-247 2665.72,-240.33 4166.53,-255.02 4256.39,-229 4276.03,-223.31 4295.61,-211.45 4310.59,-200.7"/>
<polygon fill="blue" stroke="blue" points="4312.92,-203.33 4318.85,-194.56 4308.74,-197.72 4312.92,-203.33"/>
<text text-anchor="middle" x="4316.39" y="-217.8" font-family="Times,serif" font-size="14.00">subject</text>
</g>
<!-- predicate -->
<g id="node35" class="node">
<title>predicate</title>
<ellipse fill="none" stroke="black" cx="4454.39" cy="-178" rx="54.69" ry="18"/>
<text text-anchor="middle" x="4454.39" y="-174.3" font-family="Times,serif" font-size="14.00">predicate</text>
</g>
<!-- contributor association&#45;&gt;predicate -->
<g id="edge31" class="edge">
<title>contributor association&#45;&gt;predicate</title>
<path fill="none" stroke="blue" d="M2524.81,-251.8C2540.55,-249.84 2556.97,-248.1 2572.39,-247 2670.71,-240 4250.25,-250.69 4346.39,-229 4372.61,-223.09 4400.07,-210.27 4420.74,-199.1"/>
<polygon fill="blue" stroke="blue" points="4422.68,-202.02 4429.73,-194.11 4419.29,-195.9 4422.68,-202.02"/>
<text text-anchor="middle" x="4424.39" y="-217.8" font-family="Times,serif" font-size="14.00">predicate</text>
</g>
<!-- object -->
<g id="node37" class="node">
<title>object</title>
<ellipse fill="none" stroke="black" cx="4404.39" cy="-91" rx="38.99" ry="18"/>
<text text-anchor="middle" x="4404.39" y="-87.3" font-family="Times,serif" font-size="14.00">object</text>
</g>
<!-- contributor association&#45;&gt;object -->
<g id="edge32" class="edge">
<title>contributor association&#45;&gt;object</title>
<path fill="none" stroke="blue" d="M2524.81,-251.79C2540.55,-249.83 2556.97,-248.09 2572.39,-247 2677.14,-239.57 4361.22,-257.11 4462.39,-229 4490.23,-221.27 4504.06,-221.08 4518.39,-196 4540.71,-156.94 4484.7,-124.38 4443.52,-106.59"/>
<polygon fill="blue" stroke="blue" points="4444.79,-103.33 4434.21,-102.71 4442.09,-109.79 4444.79,-103.33"/>
<text text-anchor="middle" x="4546.39" y="-174.3" font-family="Times,serif" font-size="14.00">object</text>
</g>
<!-- qualifiers -->
<g id="node39" class="node">
<title>qualifiers</title>
<ellipse fill="none" stroke="black" cx="4661.39" cy="-178" rx="53.89" ry="18"/>
<text text-anchor="middle" x="4661.39" y="-174.3" font-family="Times,serif" font-size="14.00">qualifiers</text>
</g>
<!-- contributor association&#45;&gt;qualifiers -->
<g id="edge33" class="edge">
<title>contributor association&#45;&gt;qualifiers</title>
<path fill="none" stroke="blue" d="M2524.81,-251.78C2540.55,-249.83 2556.96,-248.09 2572.39,-247 2682.51,-239.22 4451.97,-254.43 4559.39,-229 4584.08,-223.16 4609.71,-210.56 4629.1,-199.48"/>
<polygon fill="blue" stroke="blue" points="4630.97,-202.44 4637.82,-194.36 4627.42,-196.4 4630.97,-202.44"/>
<text text-anchor="middle" x="4632.89" y="-217.8" font-family="Times,serif" font-size="14.00">qualifiers</text>
</g>
<!-- association_type -->
<g id="node30" class="node">
<title>association_type</title>
<ellipse fill="none" stroke="blue" cx="2619.39" cy="-265" rx="38.19" ry="18"/>
<text text-anchor="middle" x="2619.39" y="-261.3" font-family="Times,serif" font-size="14.00">string</text>
</g>
<!-- association_category -->
<g id="node32" class="node">
<title>association_category</title>
<ellipse fill="none" stroke="blue" cx="2750.39" cy="-265" rx="74.99" ry="18"/>
<text text-anchor="middle" x="2750.39" y="-261.3" font-family="Times,serif" font-size="14.00">category type</text>
</g>
<!-- subject&#45;&gt;object -->
<g id="edge34" class="edge">
<title>subject&#45;&gt;object</title>
<path fill="none" stroke="black" d="M4350.31,-160.61C4360.29,-147.95 4374.26,-130.24 4385.49,-115.98"/>
<polygon fill="black" stroke="black" points="4388.3,-118.07 4391.74,-108.05 4382.8,-113.74 4388.3,-118.07"/>
<text text-anchor="middle" x="4403.39" y="-130.8" font-family="Times,serif" font-size="14.00">relation</text>
</g>
<!-- relation -->
<g id="node41" class="node">
<title>relation</title>
<ellipse fill="none" stroke="black" cx="4349.39" cy="-18" rx="46.59" ry="18"/>
<text text-anchor="middle" x="4349.39" y="-14.3" font-family="Times,serif" font-size="14.00">relation</text>
</g>
<!-- subject&#45;&gt;relation -->
<g id="edge35" class="edge">
<title>subject&#45;&gt;relation</title>
<path fill="none" stroke="black" stroke-dasharray="1,5" d="M4338.7,-159.79C4340.78,-132.48 4344.84,-78.99 4347.31,-46.38"/>
<polygon fill="black" stroke="black" points="4350.82,-46.42 4348.09,-36.19 4343.84,-45.89 4350.82,-46.42"/>
</g>
<!-- contributor association_subject -->
<g id="node34" class="node">
<title>contributor association_subject</title>
<ellipse fill="none" stroke="blue" cx="2976.39" cy="-265" rx="133.48" ry="18"/>
<text text-anchor="middle" x="2976.39" y="-261.3" font-family="Times,serif" font-size="14.00">information content entity</text>
</g>
<!-- contributor association_predicate -->
<g id="node36" class="node">
<title>contributor association_predicate</title>
<ellipse fill="none" stroke="blue" cx="3205.39" cy="-265" rx="77.99" ry="18"/>
<text text-anchor="middle" x="3205.39" y="-261.3" font-family="Times,serif" font-size="14.00">predicate type</text>
</g>
<!-- object&#45;&gt;relation -->
<g id="edge36" class="edge">
<title>object&#45;&gt;relation</title>
<path fill="none" stroke="black" stroke-dasharray="1,5" d="M4391.91,-73.89C4384.98,-64.94 4376.21,-53.62 4368.44,-43.58"/>
<polygon fill="black" stroke="black" points="4371.1,-41.3 4362.21,-35.54 4365.56,-45.59 4371.1,-41.3"/>
</g>
<!-- contributor association_object -->
<g id="node38" class="node">
<title>contributor association_object</title>
<ellipse fill="none" stroke="blue" cx="3338.39" cy="-265" rx="37.09" ry="18"/>
<text text-anchor="middle" x="3338.39" y="-261.3" font-family="Times,serif" font-size="14.00">agent</text>
</g>
<!-- contributor association_qualifiers -->
<g id="node40" class="node">
<title>contributor association_qualifiers</title>
<ellipse fill="none" stroke="blue" cx="3470.39" cy="-265" rx="76.89" ry="18"/>
<text text-anchor="middle" x="3470.39" y="-261.3" font-family="Times,serif" font-size="14.00">ontology class</text>
</g>
</g>
</svg>
