<?xml version="1.0" encoding="UTF-8" standalone="no"?>
<!DOCTYPE svg PUBLIC "-//W3C//DTD SVG 1.1//EN"
 "http://www.w3.org/Graphics/SVG/1.1/DTD/svg11.dtd">
<!-- Generated by graphviz version 2.40.1 (20161225.0304)
 -->
<!-- Title: %3 Pages: 1 -->
<svg width="1741pt" height="131pt"
 viewBox="0.00 0.00 1741.33 131.00" xmlns="http://www.w3.org/2000/svg" xmlns:xlink="http://www.w3.org/1999/xlink">
<g id="graph0" class="graph" transform="scale(1 1) rotate(0) translate(4 127)">
<title>%3</title>
<polygon fill="#ffffff" stroke="transparent" points="-4,4 -4,-127 1737.3339,-127 1737.3339,4 -4,4"/>
<!-- dataset version -->
<g id="node1" class="node">
<title>dataset version</title>
<ellipse fill="none" stroke="#000000" cx="943.3408" cy="-105" rx="63.8893" ry="18"/>
<text text-anchor="middle" x="943.3408" y="-101.3" font-family="Times,serif" font-size="14.00" fill="#000000">dataset version</text>
</g>
<!-- information content entity -->
<g id="node2" class="node">
<title>information content entity</title>
<ellipse fill="none" stroke="#000000" cx="103.3408" cy="-18" rx="103.1819" ry="18"/>
<text text-anchor="middle" x="103.3408" y="-14.3" font-family="Times,serif" font-size="14.00" fill="#000000">information content entity</text>
</g>
<!-- dataset version&#45;&gt;information content entity -->
<g id="edge1" class="edge">
<title>dataset version&#45;&gt;information content entity</title>
<path fill="none" stroke="#000000" d="M880.0504,-102.6619C744.7309,-97.4424 431.0012,-84.1054 325.3408,-69 271.8401,-61.3515 212.1938,-47.3347 168.2107,-35.9288"/>
<polygon fill="#000000" stroke="#000000" points="169.0699,-32.5358 158.5095,-33.3896 167.2973,-39.3077 169.0699,-32.5358"/>
<text text-anchor="middle" x="336.3408" y="-57.8" font-family="Times,serif" font-size="14.00" fill="#000000">is_a</text>
</g>
<!-- id -->
<g id="node3" class="node">
<title>id</title>
<ellipse fill="none" stroke="#0000ff" cx="255.3408" cy="-18" rx="30.5947" ry="18"/>
<text text-anchor="middle" x="255.3408" y="-14.3" font-family="Times,serif" font-size="14.00" fill="#000000">string</text>
</g>
<!-- dataset version&#45;&gt;id -->
<g id="edge2" class="edge">
<title>dataset version&#45;&gt;id</title>
<path fill="none" stroke="#0000ff" d="M880.2738,-102.0347C762.0354,-96.2403 511.236,-82.7728 425.3408,-69 366.4824,-59.5624 351.6232,-55.6388 295.3408,-36 293.0962,-35.2168 290.8042,-34.3569 288.5097,-33.4507"/>
<polygon fill="#0000ff" stroke="#0000ff" points="289.7544,-30.1775 279.1786,-29.5424 287.05,-36.634 289.7544,-30.1775"/>
<text text-anchor="middle" x="430.8408" y="-57.8" font-family="Times,serif" font-size="14.00" fill="#000000">id</text>
</g>
<!-- iri -->
<g id="node4" class="node">
<title>iri</title>
<ellipse fill="none" stroke="#0000ff" cx="340.3408" cy="-18" rx="36.2938" ry="18"/>
<text text-anchor="middle" x="340.3408" y="-14.3" font-family="Times,serif" font-size="14.00" fill="#000000">iri type</text>
</g>
<!-- dataset version&#45;&gt;iri -->
<g id="edge3" class="edge">
<title>dataset version&#45;&gt;iri</title>
<path fill="none" stroke="#0000ff" d="M879.6101,-103.5369C793.7568,-100.7114 636.4705,-92.5208 504.3408,-69 450.3055,-59.381 437.3435,-53.5517 385.3408,-36 382.8121,-35.1465 380.2191,-34.2282 377.6167,-33.2742"/>
<polygon fill="#0000ff" stroke="#0000ff" points="378.8402,-29.995 368.2491,-29.7155 376.3543,-36.5387 378.8402,-29.995"/>
<text text-anchor="middle" x="510.8408" y="-57.8" font-family="Times,serif" font-size="14.00" fill="#000000">iri</text>
</g>
<!-- type -->
<g id="node5" class="node">
<title>type</title>
<ellipse fill="none" stroke="#0000ff" cx="425.3408" cy="-18" rx="30.5947" ry="18"/>
<text text-anchor="middle" x="425.3408" y="-14.3" font-family="Times,serif" font-size="14.00" fill="#000000">string</text>
</g>
<!-- dataset version&#45;&gt;type -->
<g id="edge4" class="edge">
<title>dataset version&#45;&gt;type</title>
<path fill="none" stroke="#0000ff" d="M880.6196,-101.5135C809.9008,-96.9053 691.6845,-87.1595 591.3408,-69 534.3773,-58.6912 519.9253,-55.278 465.3408,-36 463.0992,-35.2083 460.8094,-34.342 458.5165,-33.4311"/>
<polygon fill="#0000ff" stroke="#0000ff" points="459.7643,-30.159 449.1893,-29.5119 457.0527,-36.6125 459.7643,-30.159"/>
<text text-anchor="middle" x="603.3408" y="-57.8" font-family="Times,serif" font-size="14.00" fill="#000000">type</text>
</g>
<!-- name -->
<g id="node6" class="node">
<title>name</title>
<ellipse fill="none" stroke="#0000ff" cx="519.3408" cy="-18" rx="45.4919" ry="18"/>
<text text-anchor="middle" x="519.3408" y="-14.3" font-family="Times,serif" font-size="14.00" fill="#000000">label type</text>
</g>
<!-- dataset version&#45;&gt;name -->
<g id="edge5" class="edge">
<title>dataset version&#45;&gt;name</title>
<path fill="none" stroke="#0000ff" d="M881.5051,-100.3791C825.5595,-95.3728 741.1785,-85.7588 669.3408,-69 631.9182,-60.2698 590.6677,-45.8793 560.9125,-34.6066"/>
<polygon fill="#0000ff" stroke="#0000ff" points="561.8747,-31.2272 551.2844,-30.9159 559.3691,-37.7634 561.8747,-31.2272"/>
<text text-anchor="middle" x="684.8408" y="-57.8" font-family="Times,serif" font-size="14.00" fill="#000000">name</text>
</g>
<!-- description -->
<g id="node7" class="node">
<title>description</title>
<ellipse fill="none" stroke="#0000ff" cx="640.3408" cy="-18" rx="57.6901" ry="18"/>
<text text-anchor="middle" x="640.3408" y="-14.3" font-family="Times,serif" font-size="14.00" fill="#000000">narrative text</text>
</g>
<!-- dataset version&#45;&gt;description -->
<g id="edge6" class="edge">
<title>dataset version&#45;&gt;description</title>
<path fill="none" stroke="#0000ff" d="M882.6132,-99.4089C840.9197,-94.3639 784.7634,-85.1656 737.3408,-69 715.718,-61.6291 693.04,-49.9533 675.0533,-39.6322"/>
<polygon fill="#0000ff" stroke="#0000ff" points="676.5027,-36.425 666.1054,-34.3885 672.9634,-42.4643 676.5027,-36.425"/>
<text text-anchor="middle" x="767.8408" y="-57.8" font-family="Times,serif" font-size="14.00" fill="#000000">description</text>
</g>
<!-- source -->
<g id="node8" class="node">
<title>source</title>
<ellipse fill="none" stroke="#0000ff" cx="761.3408" cy="-18" rx="45.4919" ry="18"/>
<text text-anchor="middle" x="761.3408" y="-14.3" font-family="Times,serif" font-size="14.00" fill="#000000">label type</text>
</g>
<!-- dataset version&#45;&gt;source -->
<g id="edge7" class="edge">
<title>dataset version&#45;&gt;source</title>
<path fill="none" stroke="#0000ff" d="M892.1397,-94.1512C870.47,-88.3984 845.4171,-80.1647 824.3408,-69 810.532,-61.6851 796.8488,-51.12 785.7806,-41.5008"/>
<polygon fill="#0000ff" stroke="#0000ff" points="788.0018,-38.7915 778.219,-34.7237 783.3298,-44.0043 788.0018,-38.7915"/>
<text text-anchor="middle" x="842.3408" y="-57.8" font-family="Times,serif" font-size="14.00" fill="#000000">source</text>
</g>
<!-- provided by -->
<g id="node9" class="node">
<title>provided by</title>
<ellipse fill="none" stroke="#0000ff" cx="854.3408" cy="-18" rx="29.795" ry="18"/>
<text text-anchor="middle" x="854.3408" y="-14.3" font-family="Times,serif" font-size="14.00" fill="#000000">agent</text>
</g>
<!-- dataset version&#45;&gt;provided by -->
<g id="edge8" class="edge">
<title>dataset version&#45;&gt;provided by</title>
<path fill="none" stroke="#0000ff" d="M903.5148,-90.8199C892.5842,-85.3757 881.5079,-78.1961 873.3408,-69 867.5421,-62.4706 863.4539,-54.0085 860.5969,-45.8603"/>
<polygon fill="#0000ff" stroke="#0000ff" points="863.93,-44.7904 857.6905,-36.2278 857.2285,-46.8126 863.93,-44.7904"/>
<text text-anchor="middle" x="906.3408" y="-57.8" font-family="Times,serif" font-size="14.00" fill="#000000">provided by</text>
</g>
<!-- has attribute -->
<g id="node10" class="node">
<title>has attribute</title>
<ellipse fill="none" stroke="#0000ff" cx="942.3408" cy="-18" rx="40.0939" ry="18"/>
<text text-anchor="middle" x="942.3408" y="-14.3" font-family="Times,serif" font-size="14.00" fill="#000000">attribute</text>
</g>
<!-- dataset version&#45;&gt;has attribute -->
<g id="edge9" class="edge">
<title>dataset version&#45;&gt;has attribute</title>
<path fill="none" stroke="#0000ff" d="M943.1336,-86.9735C942.9982,-75.1918 942.8185,-59.5607 942.6645,-46.1581"/>
<polygon fill="#0000ff" stroke="#0000ff" points="946.1626,-45.9624 942.5478,-36.0034 939.163,-46.043 946.1626,-45.9624"/>
<text text-anchor="middle" x="976.8408" y="-57.8" font-family="Times,serif" font-size="14.00" fill="#000000">has attribute</text>
</g>
<!-- category -->
<g id="node11" class="node">
<title>category</title>
<ellipse fill="none" stroke="#000000" cx="1041.3408" cy="-18" rx="40.8928" ry="18"/>
<text text-anchor="middle" x="1041.3408" y="-14.3" font-family="Times,serif" font-size="14.00" fill="#000000">category</text>
</g>
<!-- dataset version&#45;&gt;category -->
<g id="edge10" class="edge">
<title>dataset version&#45;&gt;category</title>
<path fill="none" stroke="#0000ff" d="M982.256,-90.5778C993.5507,-85.0667 1005.2712,-77.9111 1014.3408,-69 1021.0907,-62.3681 1026.5353,-53.6874 1030.7188,-45.3725"/>
<polygon fill="#0000ff" stroke="#0000ff" points="1033.9072,-46.8162 1034.9088,-36.2688 1027.5484,-43.8895 1033.9072,-46.8162"/>
<text text-anchor="middle" x="1049.8408" y="-57.8" font-family="Times,serif" font-size="14.00" fill="#000000">category</text>
</g>
<!-- license -->
<g id="node13" class="node">
<title>license</title>
<ellipse fill="none" stroke="#0000ff" cx="1130.3408" cy="-18" rx="30.5947" ry="18"/>
<text text-anchor="middle" x="1130.3408" y="-14.3" font-family="Times,serif" font-size="14.00" fill="#000000">string</text>
</g>
<!-- dataset version&#45;&gt;license -->
<g id="edge11" class="edge">
<title>dataset version&#45;&gt;license</title>
<path fill="none" stroke="#0000ff" d="M990.8466,-92.8331C1027.7765,-83.2796 1073.3954,-71.2293 1077.3408,-69 1089.6223,-62.0605 1101.1734,-51.6135 1110.3376,-41.9782"/>
<polygon fill="#0000ff" stroke="#0000ff" points="1112.9964,-44.2568 1117.1438,-34.5074 1107.8218,-39.5426 1112.9964,-44.2568"/>
<text text-anchor="middle" x="1116.3408" y="-57.8" font-family="Times,serif" font-size="14.00" fill="#000000">license</text>
</g>
<!-- rights -->
<g id="node14" class="node">
<title>rights</title>
<ellipse fill="none" stroke="#0000ff" cx="1209.3408" cy="-18" rx="30.5947" ry="18"/>
<text text-anchor="middle" x="1209.3408" y="-14.3" font-family="Times,serif" font-size="14.00" fill="#000000">string</text>
</g>
<!-- dataset version&#45;&gt;rights -->
<g id="edge12" class="edge">
<title>dataset version&#45;&gt;rights</title>
<path fill="none" stroke="#0000ff" d="M990.3154,-92.7104C998.9394,-90.6559 1007.8866,-88.6569 1016.3408,-87 1070.5583,-76.3742 1088.1878,-89.876 1139.3408,-69 1156.1282,-62.1489 1172.6319,-50.4364 1185.3946,-39.9623"/>
<polygon fill="#0000ff" stroke="#0000ff" points="1187.8542,-42.4652 1193.2066,-33.3217 1183.3205,-37.1317 1187.8542,-42.4652"/>
<text text-anchor="middle" x="1181.8408" y="-57.8" font-family="Times,serif" font-size="14.00" fill="#000000">rights</text>
</g>
<!-- format -->
<g id="node15" class="node">
<title>format</title>
<ellipse fill="none" stroke="#0000ff" cx="1288.3408" cy="-18" rx="30.5947" ry="18"/>
<text text-anchor="middle" x="1288.3408" y="-14.3" font-family="Times,serif" font-size="14.00" fill="#000000">string</text>
</g>
<!-- dataset version&#45;&gt;format -->
<g id="edge13" class="edge">
<title>dataset version&#45;&gt;format</title>
<path fill="none" stroke="#0000ff" d="M989.4698,-92.5561C998.3399,-90.4676 1007.5917,-88.4962 1016.3408,-87 1097.7692,-73.0749 1122.7594,-94.4844 1201.3408,-69 1222.6998,-62.0732 1244.4931,-49.2868 1260.925,-38.2504"/>
<polygon fill="#0000ff" stroke="#0000ff" points="1263.2292,-40.9125 1269.4654,-32.3475 1259.2491,-35.1541 1263.2292,-40.9125"/>
<text text-anchor="middle" x="1252.8408" y="-57.8" font-family="Times,serif" font-size="14.00" fill="#000000">format</text>
</g>
<!-- creation date -->
<g id="node16" class="node">
<title>creation date</title>
<ellipse fill="none" stroke="#0000ff" cx="1364.3408" cy="-18" rx="27" ry="18"/>
<text text-anchor="middle" x="1364.3408" y="-14.3" font-family="Times,serif" font-size="14.00" fill="#000000">date</text>
</g>
<!-- dataset version&#45;&gt;creation date -->
<g id="edge14" class="edge">
<title>dataset version&#45;&gt;creation date</title>
<path fill="none" stroke="#0000ff" d="M989.0465,-92.4519C998.0383,-90.3464 1007.4429,-88.3955 1016.3408,-87 1130.3361,-69.1213 1164.9323,-102.5339 1275.3408,-69 1297.9772,-62.1248 1321.0864,-48.6517 1338.0823,-37.2797"/>
<polygon fill="#0000ff" stroke="#0000ff" points="1340.1245,-40.123 1346.3778,-31.5704 1336.1559,-34.3567 1340.1245,-40.123"/>
<text text-anchor="middle" x="1344.3408" y="-57.8" font-family="Times,serif" font-size="14.00" fill="#000000">creation date</text>
</g>
<!-- has dataset -->
<g id="node17" class="node">
<title>has dataset</title>
<ellipse fill="none" stroke="#0000ff" cx="1444.3408" cy="-18" rx="35.194" ry="18"/>
<text text-anchor="middle" x="1444.3408" y="-14.3" font-family="Times,serif" font-size="14.00" fill="#000000">dataset</text>
</g>
<!-- dataset version&#45;&gt;has dataset -->
<g id="edge15" class="edge">
<title>dataset version&#45;&gt;has dataset</title>
<path fill="none" stroke="#0000ff" d="M989.0245,-92.3067C998.0182,-90.2139 1007.4291,-88.3048 1016.3408,-87 1097.1331,-75.171 1307.2923,-98.7309 1383.3408,-69 1398.2382,-63.1759 1412.1471,-52.1753 1422.9101,-41.8776"/>
<polygon fill="#0000ff" stroke="#0000ff" points="1425.5903,-44.1461 1430.1605,-34.5876 1420.6271,-39.2099 1425.5903,-44.1461"/>
<text text-anchor="middle" x="1438.3408" y="-57.8" font-family="Times,serif" font-size="14.00" fill="#000000">has dataset</text>
</g>
<!-- ingest date -->
<g id="node18" class="node">
<title>ingest date</title>
<ellipse fill="none" stroke="#0000ff" cx="1528.3408" cy="-18" rx="30.5947" ry="18"/>
<text text-anchor="middle" x="1528.3408" y="-14.3" font-family="Times,serif" font-size="14.00" fill="#000000">string</text>
</g>
<!-- dataset version&#45;&gt;ingest date -->
<g id="edge16" class="edge">
<title>dataset version&#45;&gt;ingest date</title>
<path fill="none" stroke="#0000ff" d="M988.6238,-92.3294C997.7362,-90.2065 1007.2938,-88.2805 1016.3408,-87 1066.5466,-79.894 1425.4245,-88.2346 1472.3408,-69 1486.3025,-63.276 1498.9993,-52.4366 1508.76,-42.2176"/>
<polygon fill="#0000ff" stroke="#0000ff" points="1511.5179,-44.3858 1515.6241,-34.619 1506.3235,-39.6935 1511.5179,-44.3858"/>
<text text-anchor="middle" x="1524.8408" y="-57.8" font-family="Times,serif" font-size="14.00" fill="#000000">ingest date</text>
</g>
<!-- has distribution -->
<g id="node19" class="node">
<title>has distribution</title>
<ellipse fill="none" stroke="#0000ff" cx="1655.3408" cy="-18" rx="77.9862" ry="18"/>
<text text-anchor="middle" x="1655.3408" y="-14.3" font-family="Times,serif" font-size="14.00" fill="#000000">dataset distribution</text>
</g>
<!-- dataset version&#45;&gt;has distribution -->
<g id="edge17" class="edge">
<title>dataset version&#45;&gt;has distribution</title>
<path fill="none" stroke="#0000ff" d="M988.6176,-92.2846C997.7305,-90.1654 1007.2898,-88.2522 1016.3408,-87 1135.7147,-70.4848 1441.8379,-99.8209 1558.3408,-69 1580.5824,-63.116 1603.4545,-51.4117 1621.399,-40.6984"/>
<polygon fill="#0000ff" stroke="#0000ff" points="1623.6192,-43.442 1630.3043,-35.2225 1619.9526,-37.4791 1623.6192,-43.442"/>
<text text-anchor="middle" x="1636.8408" y="-57.8" font-family="Times,serif" font-size="14.00" fill="#000000">has distribution</text>
</g>
<!-- named thing_category -->
<g id="node12" class="node">
<title>named thing_category</title>
<ellipse fill="none" stroke="#0000ff" cx="1080.3408" cy="-105" rx="55.4913" ry="18"/>
<text text-anchor="middle" x="1080.3408" y="-101.3" font-family="Times,serif" font-size="14.00" fill="#000000">named thing</text>
</g>
</g>
</svg>
