<?xml version="1.0" encoding="UTF-8" standalone="no"?>
<!DOCTYPE svg PUBLIC "-//W3C//DTD SVG 1.1//EN"
 "http://www.w3.org/Graphics/SVG/1.1/DTD/svg11.dtd">
<!-- Generated by graphviz version 2.40.1 (20161225.0304)
 -->
<!-- Title: %3 Pages: 1 -->
<svg width="1412pt" height="131pt"
 viewBox="0.00 0.00 1412.19 131.00" xmlns="http://www.w3.org/2000/svg" xmlns:xlink="http://www.w3.org/1999/xlink">
<g id="graph0" class="graph" transform="scale(1 1) rotate(0) translate(4 127)">
<title>%3</title>
<polygon fill="#ffffff" stroke="transparent" points="-4,4 -4,-127 1408.1915,-127 1408.1915,4 -4,4"/>
<!-- data set summary -->
<g id="node1" class="node">
<title>data set summary</title>
<ellipse fill="none" stroke="#000000" cx="751.6442" cy="-105" rx="73.387" ry="18"/>
<text text-anchor="middle" x="751.6442" y="-101.3" font-family="Times,serif" font-size="14.00" fill="#000000">data set summary</text>
</g>
<!-- data set version -->
<g id="node2" class="node">
<title>data set version</title>
<ellipse fill="none" stroke="#000000" cx="65.6442" cy="-18" rx="65.7887" ry="18"/>
<text text-anchor="middle" x="65.6442" y="-14.3" font-family="Times,serif" font-size="14.00" fill="#000000">data set version</text>
</g>
<!-- data set summary&#45;&gt;data set version -->
<g id="edge1" class="edge">
<title>data set summary&#45;&gt;data set version</title>
<path fill="none" stroke="#000000" d="M678.3606,-103.7926C581.9626,-101.2556 407.5684,-93.3892 260.6442,-69 211.8435,-60.8992 157.4761,-46.1931 118.5715,-34.6471"/>
<polygon fill="#000000" stroke="#000000" points="119.1111,-31.155 108.5271,-31.6345 117.1,-37.8599 119.1111,-31.155"/>
<text text-anchor="middle" x="271.6442" y="-57.8" font-family="Times,serif" font-size="14.00" fill="#000000">is_a</text>
</g>
<!-- id -->
<g id="node3" class="node">
<title>id</title>
<ellipse fill="none" stroke="#0000ff" cx="179.6442" cy="-18" rx="30.5947" ry="18"/>
<text text-anchor="middle" x="179.6442" y="-14.3" font-family="Times,serif" font-size="14.00" fill="#000000">string</text>
</g>
<!-- data set summary&#45;&gt;id -->
<g id="edge2" class="edge">
<title>data set summary&#45;&gt;id</title>
<path fill="none" stroke="#0000ff" d="M680.1204,-100.6199C604.067,-95.3913 480.4092,-85.2539 374.6442,-69 305.0286,-58.3015 286.5828,-57.9091 219.6442,-36 217.3848,-35.2605 215.0815,-34.4337 212.7788,-33.5518"/>
<polygon fill="#0000ff" stroke="#0000ff" points="214.0081,-30.2729 203.4288,-29.6995 211.3415,-36.7451 214.0081,-30.2729"/>
<text text-anchor="middle" x="380.1442" y="-57.8" font-family="Times,serif" font-size="14.00" fill="#000000">id</text>
</g>
<!-- name -->
<g id="node4" class="node">
<title>name</title>
<ellipse fill="none" stroke="#0000ff" cx="273.6442" cy="-18" rx="45.4919" ry="18"/>
<text text-anchor="middle" x="273.6442" y="-14.3" font-family="Times,serif" font-size="14.00" fill="#000000">label type</text>
</g>
<!-- data set summary&#45;&gt;name -->
<g id="edge3" class="edge">
<title>data set summary&#45;&gt;name</title>
<path fill="none" stroke="#0000ff" d="M681.3154,-99.5766C619.8157,-94.1314 528.2916,-84.3253 449.6442,-69 394.9313,-58.3386 382.0382,-52.0073 328.6442,-36 325.2698,-34.9884 321.7881,-33.9162 318.2916,-32.8191"/>
<polygon fill="#0000ff" stroke="#0000ff" points="319.0666,-29.3927 308.4759,-29.6904 316.9407,-36.0621 319.0666,-29.3927"/>
<text text-anchor="middle" x="465.1442" y="-57.8" font-family="Times,serif" font-size="14.00" fill="#000000">name</text>
</g>
<!-- category -->
<g id="node5" class="node">
<title>category</title>
<ellipse fill="none" stroke="#0000ff" cx="395.6442" cy="-18" rx="58.4896" ry="18"/>
<text text-anchor="middle" x="395.6442" y="-14.3" font-family="Times,serif" font-size="14.00" fill="#000000">category type</text>
</g>
<!-- data set summary&#45;&gt;category -->
<g id="edge4" class="edge">
<title>data set summary&#45;&gt;category</title>
<path fill="none" stroke="#0000ff" d="M684.3527,-97.696C639.9423,-91.9964 580.7419,-82.7144 529.6442,-69 498.4139,-60.6179 464.3743,-47.6104 438.4181,-36.8301"/>
<polygon fill="#0000ff" stroke="#0000ff" points="439.4635,-33.4728 428.8887,-32.8218 436.7494,-39.9253 439.4635,-33.4728"/>
<text text-anchor="middle" x="553.1442" y="-57.8" font-family="Times,serif" font-size="14.00" fill="#000000">category</text>
</g>
<!-- description -->
<g id="node6" class="node">
<title>description</title>
<ellipse fill="none" stroke="#0000ff" cx="529.6442" cy="-18" rx="57.6901" ry="18"/>
<text text-anchor="middle" x="529.6442" y="-14.3" font-family="Times,serif" font-size="14.00" fill="#000000">narrative text</text>
</g>
<!-- data set summary&#45;&gt;description -->
<g id="edge5" class="edge">
<title>data set summary&#45;&gt;description</title>
<path fill="none" stroke="#0000ff" d="M691.3178,-94.6138C664.9588,-88.8936 634.0905,-80.5582 607.6442,-69 590.7016,-61.5954 573.3416,-50.6383 559.3133,-40.7762"/>
<polygon fill="#0000ff" stroke="#0000ff" points="561.2026,-37.8235 551.0428,-34.8186 557.1112,-43.5034 561.2026,-37.8235"/>
<text text-anchor="middle" x="638.1442" y="-57.8" font-family="Times,serif" font-size="14.00" fill="#000000">description</text>
</g>
<!-- license -->
<g id="node7" class="node">
<title>license</title>
<ellipse fill="none" stroke="#0000ff" cx="635.6442" cy="-18" rx="30.5947" ry="18"/>
<text text-anchor="middle" x="635.6442" y="-14.3" font-family="Times,serif" font-size="14.00" fill="#000000">string</text>
</g>
<!-- data set summary&#45;&gt;license -->
<g id="edge6" class="edge">
<title>data set summary&#45;&gt;license</title>
<path fill="none" stroke="#0000ff" d="M720.1632,-88.5886C710.0989,-82.857 699.1183,-76.0753 689.6442,-69 678.6664,-60.8018 667.4991,-50.6236 658.1907,-41.5212"/>
<polygon fill="#0000ff" stroke="#0000ff" points="660.4032,-38.7843 650.8537,-34.1952 655.4571,-43.7378 660.4032,-38.7843"/>
<text text-anchor="middle" x="708.6442" y="-57.8" font-family="Times,serif" font-size="14.00" fill="#000000">license</text>
</g>
<!-- rights -->
<g id="node8" class="node">
<title>rights</title>
<ellipse fill="none" stroke="#0000ff" cx="714.6442" cy="-18" rx="30.5947" ry="18"/>
<text text-anchor="middle" x="714.6442" y="-14.3" font-family="Times,serif" font-size="14.00" fill="#000000">string</text>
</g>
<!-- data set summary&#45;&gt;rights -->
<g id="edge7" class="edge">
<title>data set summary&#45;&gt;rights</title>
<path fill="none" stroke="#0000ff" d="M743.9778,-86.9735C738.8338,-74.8784 731.9646,-58.7263 726.1666,-45.0934"/>
<polygon fill="#0000ff" stroke="#0000ff" points="729.3087,-43.5383 722.1742,-35.7057 722.8671,-46.2779 729.3087,-43.5383"/>
<text text-anchor="middle" x="751.1442" y="-57.8" font-family="Times,serif" font-size="14.00" fill="#000000">rights</text>
</g>
<!-- format -->
<g id="node9" class="node">
<title>format</title>
<ellipse fill="none" stroke="#0000ff" cx="793.6442" cy="-18" rx="30.5947" ry="18"/>
<text text-anchor="middle" x="793.6442" y="-14.3" font-family="Times,serif" font-size="14.00" fill="#000000">string</text>
</g>
<!-- data set summary&#45;&gt;format -->
<g id="edge8" class="edge">
<title>data set summary&#45;&gt;format</title>
<path fill="none" stroke="#0000ff" d="M760.7011,-87.0963C763.5883,-81.333 766.7768,-74.9095 769.6442,-69 773.4707,-61.1136 777.5579,-52.5019 781.2548,-44.638"/>
<polygon fill="#0000ff" stroke="#0000ff" points="784.4553,-46.0564 785.5269,-35.5159 778.1161,-43.0875 784.4553,-46.0564"/>
<text text-anchor="middle" x="795.1442" y="-57.8" font-family="Times,serif" font-size="14.00" fill="#000000">format</text>
</g>
<!-- creation date -->
<g id="node10" class="node">
<title>creation date</title>
<ellipse fill="none" stroke="#0000ff" cx="869.6442" cy="-18" rx="27" ry="18"/>
<text text-anchor="middle" x="869.6442" y="-14.3" font-family="Times,serif" font-size="14.00" fill="#000000">date</text>
</g>
<!-- data set summary&#45;&gt;creation date -->
<g id="edge9" class="edge">
<title>data set summary&#45;&gt;creation date</title>
<path fill="none" stroke="#0000ff" d="M785.3003,-88.9504C796.0226,-83.2405 807.6803,-76.3802 817.6442,-69 828.5993,-60.8856 839.5498,-50.5605 848.5567,-41.3258"/>
<polygon fill="#0000ff" stroke="#0000ff" points="851.2663,-43.5554 855.6227,-33.8976 846.1945,-38.7308 851.2663,-43.5554"/>
<text text-anchor="middle" x="869.6442" y="-57.8" font-family="Times,serif" font-size="14.00" fill="#000000">creation date</text>
</g>
<!-- source data file -->
<g id="node11" class="node">
<title>source data file</title>
<ellipse fill="none" stroke="#0000ff" cx="954.6442" cy="-18" rx="39.7935" ry="18"/>
<text text-anchor="middle" x="954.6442" y="-14.3" font-family="Times,serif" font-size="14.00" fill="#000000">data file</text>
</g>
<!-- data set summary&#45;&gt;source data file -->
<g id="edge10" class="edge">
<title>data set summary&#45;&gt;source data file</title>
<path fill="none" stroke="#0000ff" d="M812.8033,-94.8831C849.5986,-88.0496 892.3689,-78.5611 908.6442,-69 919.4584,-62.647 929.1519,-52.9045 936.8199,-43.6304"/>
<polygon fill="#0000ff" stroke="#0000ff" points="939.6181,-45.7338 943.0143,-35.698 934.101,-41.4255 939.6181,-45.7338"/>
<text text-anchor="middle" x="968.6442" y="-57.8" font-family="Times,serif" font-size="14.00" fill="#000000">source data file</text>
</g>
<!-- version of -->
<g id="node12" class="node">
<title>version of</title>
<ellipse fill="none" stroke="#0000ff" cx="1049.6442" cy="-18" rx="37.8943" ry="18"/>
<text text-anchor="middle" x="1049.6442" y="-14.3" font-family="Times,serif" font-size="14.00" fill="#000000">data set</text>
</g>
<!-- data set summary&#45;&gt;version of -->
<g id="edge11" class="edge">
<title>data set summary&#45;&gt;version of</title>
<path fill="none" stroke="#0000ff" d="M823.8212,-101.6353C890.4435,-97.3758 983.6081,-88.1434 1014.6442,-69 1023.9668,-63.2497 1031.4168,-53.9853 1037.0064,-44.92"/>
<polygon fill="#0000ff" stroke="#0000ff" points="1040.1373,-46.4925 1041.9764,-36.0585 1034.032,-43.0683 1040.1373,-46.4925"/>
<text text-anchor="middle" x="1058.1442" y="-57.8" font-family="Times,serif" font-size="14.00" fill="#000000">version of</text>
</g>
<!-- type -->
<g id="node13" class="node">
<title>type</title>
<ellipse fill="none" stroke="#0000ff" cx="1135.6442" cy="-18" rx="30.5947" ry="18"/>
<text text-anchor="middle" x="1135.6442" y="-14.3" font-family="Times,serif" font-size="14.00" fill="#000000">string</text>
</g>
<!-- data set summary&#45;&gt;type -->
<g id="edge12" class="edge">
<title>data set summary&#45;&gt;type</title>
<path fill="none" stroke="#0000ff" d="M824.9445,-103.2688C910.1735,-100.2081 1044.8911,-91.8178 1089.6442,-69 1101.1465,-63.1354 1111.1482,-53.1077 1118.8608,-43.4879"/>
<polygon fill="#0000ff" stroke="#0000ff" points="1121.8348,-45.3557 1125.0296,-35.254 1116.2326,-41.1586 1121.8348,-45.3557"/>
<text text-anchor="middle" x="1121.6442" y="-57.8" font-family="Times,serif" font-size="14.00" fill="#000000">type</text>
</g>
<!-- distribution -->
<g id="node14" class="node">
<title>distribution</title>
<ellipse fill="none" stroke="#0000ff" cx="1254.6442" cy="-18" rx="70.6878" ry="18"/>
<text text-anchor="middle" x="1254.6442" y="-14.3" font-family="Times,serif" font-size="14.00" fill="#000000">distribution level</text>
</g>
<!-- data set summary&#45;&gt;distribution -->
<g id="edge13" class="edge">
<title>data set summary&#45;&gt;distribution</title>
<path fill="none" stroke="#0000ff" d="M823.5588,-101.0262C918.4355,-95.3119 1080.1242,-83.8117 1137.6442,-69 1164.4939,-62.086 1193.0478,-49.7471 1215.2257,-38.938"/>
<polygon fill="#0000ff" stroke="#0000ff" points="1216.9195,-42.0046 1224.3165,-34.4194 1213.8038,-35.7362 1216.9195,-42.0046"/>
<text text-anchor="middle" x="1213.1442" y="-57.8" font-family="Times,serif" font-size="14.00" fill="#000000">distribution</text>
</g>
<!-- source web page -->
<g id="node15" class="node">
<title>source web page</title>
<ellipse fill="none" stroke="#0000ff" cx="1373.6442" cy="-18" rx="30.5947" ry="18"/>
<text text-anchor="middle" x="1373.6442" y="-14.3" font-family="Times,serif" font-size="14.00" fill="#000000">string</text>
</g>
<!-- data set summary&#45;&gt;source web page -->
<g id="edge14" class="edge">
<title>data set summary&#45;&gt;source web page</title>
<path fill="none" stroke="#0000ff" d="M824.7118,-102.343C942.7269,-97.6079 1170.0114,-86.5303 1248.6442,-69 1281.3612,-61.7061 1316.5351,-46.6449 1341.2099,-34.7713"/>
<polygon fill="#0000ff" stroke="#0000ff" points="1343.0151,-37.7842 1350.4509,-30.2369 1339.9316,-31.4999 1343.0151,-37.7842"/>
<text text-anchor="middle" x="1339.1442" y="-57.8" font-family="Times,serif" font-size="14.00" fill="#000000">source web page</text>
</g>
</g>
</svg>
