<?xml version="1.0" encoding="UTF-8" standalone="no"?>
<!DOCTYPE svg PUBLIC "-//W3C//DTD SVG 1.1//EN"
 "http://www.w3.org/Graphics/SVG/1.1/DTD/svg11.dtd">
<!-- Generated by graphviz version 2.43.0 (0)
 -->
<!-- Title: %3 Pages: 1 -->
<svg width="2139pt" height="131pt"
 viewBox="0.00 0.00 2138.93 131.00" xmlns="http://www.w3.org/2000/svg" xmlns:xlink="http://www.w3.org/1999/xlink">
<g id="graph0" class="graph" transform="scale(1 1) rotate(0) translate(4 127)">
<title>%3</title>
<polygon fill="white" stroke="transparent" points="-4,4 -4,-127 2134.93,-127 2134.93,4 -4,4"/>
<!-- dataset version -->
<g id="node1" class="node">
<title>dataset version</title>
<ellipse fill="none" stroke="black" cx="1156.24" cy="-105" rx="82.59" ry="18"/>
<text text-anchor="middle" x="1156.24" y="-101.3" font-family="Times,serif" font-size="14.00">dataset version</text>
</g>
<!-- information content entity -->
<g id="node2" class="node">
<title>information content entity</title>
<ellipse fill="none" stroke="black" cx="133.24" cy="-18" rx="133.48" ry="18"/>
<text text-anchor="middle" x="133.24" y="-14.3" font-family="Times,serif" font-size="14.00">information content entity</text>
</g>
<!-- dataset version&#45;&gt;information content entity -->
<g id="edge1" class="edge">
<title>dataset version&#45;&gt;information content entity</title>
<path fill="none" stroke="black" d="M1073.77,-103.72C935.65,-102.45 648.98,-96.39 408.24,-69 340.61,-61.3 264.53,-47.03 209.56,-35.7"/>
<polygon fill="black" stroke="black" points="210.06,-32.23 199.55,-33.62 208.63,-39.08 210.06,-32.23"/>
<text text-anchor="middle" x="422.24" y="-57.8" font-family="Times,serif" font-size="14.00">is_a</text>
</g>
<!-- id -->
<g id="node3" class="node">
<title>id</title>
<ellipse fill="none" stroke="blue" cx="323.24" cy="-18" rx="38.19" ry="18"/>
<text text-anchor="middle" x="323.24" y="-14.3" font-family="Times,serif" font-size="14.00">string</text>
</g>
<!-- dataset version&#45;&gt;id -->
<g id="edge2" class="edge">
<title>dataset version&#45;&gt;id</title>
<path fill="none" stroke="blue" d="M1073.81,-103.46C953.1,-101.77 721.41,-95.04 526.24,-69 456.42,-59.69 439.02,-55.13 371.24,-36 368.13,-35.12 364.94,-34.15 361.74,-33.13"/>
<polygon fill="blue" stroke="blue" points="362.83,-29.8 352.23,-29.95 360.61,-36.44 362.83,-29.8"/>
<text text-anchor="middle" x="533.24" y="-57.8" font-family="Times,serif" font-size="14.00">id</text>
</g>
<!-- iri -->
<g id="node4" class="node">
<title>iri</title>
<ellipse fill="none" stroke="blue" cx="424.24" cy="-18" rx="44.39" ry="18"/>
<text text-anchor="middle" x="424.24" y="-14.3" font-family="Times,serif" font-size="14.00">iri type</text>
</g>
<!-- dataset version&#45;&gt;iri -->
<g id="edge3" class="edge">
<title>dataset version&#45;&gt;iri</title>
<path fill="none" stroke="blue" d="M1074.03,-103.29C966.9,-101.33 774.03,-94.22 611.24,-69 560.78,-61.19 504.36,-45.04 466.81,-33.2"/>
<polygon fill="blue" stroke="blue" points="467.81,-29.84 457.22,-30.14 465.68,-36.51 467.81,-29.84"/>
<text text-anchor="middle" x="619.24" y="-57.8" font-family="Times,serif" font-size="14.00">iri</text>
</g>
<!-- type -->
<g id="node5" class="node">
<title>type</title>
<ellipse fill="none" stroke="blue" cx="525.24" cy="-18" rx="38.19" ry="18"/>
<text text-anchor="middle" x="525.24" y="-14.3" font-family="Times,serif" font-size="14.00">string</text>
</g>
<!-- dataset version&#45;&gt;type -->
<g id="edge4" class="edge">
<title>dataset version&#45;&gt;type</title>
<path fill="none" stroke="blue" d="M1074.4,-102.11C982.54,-98.98 829.33,-90.71 699.24,-69 641.71,-59.4 627.94,-53.27 572.24,-36 569.48,-35.14 566.64,-34.22 563.8,-33.27"/>
<polygon fill="blue" stroke="blue" points="564.77,-29.9 554.18,-29.94 562.49,-36.52 564.77,-29.9"/>
<text text-anchor="middle" x="715.24" y="-57.8" font-family="Times,serif" font-size="14.00">type</text>
</g>
<!-- name -->
<g id="node6" class="node">
<title>name</title>
<ellipse fill="none" stroke="blue" cx="638.24" cy="-18" rx="56.59" ry="18"/>
<text text-anchor="middle" x="638.24" y="-14.3" font-family="Times,serif" font-size="14.00">label type</text>
</g>
<!-- dataset version&#45;&gt;name -->
<g id="edge5" class="edge">
<title>dataset version&#45;&gt;name</title>
<path fill="none" stroke="blue" d="M1075.14,-101.41C1000.45,-97.82 886.92,-89.26 790.24,-69 752.86,-61.17 711.8,-47.33 681.79,-36.2"/>
<polygon fill="blue" stroke="blue" points="682.65,-32.78 672.05,-32.54 680.18,-39.33 682.65,-32.78"/>
<text text-anchor="middle" x="810.24" y="-57.8" font-family="Times,serif" font-size="14.00">name</text>
</g>
<!-- description -->
<g id="node7" class="node">
<title>description</title>
<ellipse fill="none" stroke="blue" cx="788.24" cy="-18" rx="75.29" ry="18"/>
<text text-anchor="middle" x="788.24" y="-14.3" font-family="Times,serif" font-size="14.00">narrative text</text>
</g>
<!-- dataset version&#45;&gt;description -->
<g id="edge6" class="edge">
<title>dataset version&#45;&gt;description</title>
<path fill="none" stroke="blue" d="M1078.15,-98.97C1004.45,-93.46 899.68,-83.44 861.24,-69 844.61,-62.75 828.1,-51.94 815,-41.97"/>
<polygon fill="blue" stroke="blue" points="816.94,-39.04 806.92,-35.59 812.6,-44.54 816.94,-39.04"/>
<text text-anchor="middle" x="901.74" y="-57.8" font-family="Times,serif" font-size="14.00">description</text>
</g>
<!-- has attribute -->
<g id="node8" class="node">
<title>has attribute</title>
<ellipse fill="none" stroke="blue" cx="933.24" cy="-18" rx="51.99" ry="18"/>
<text text-anchor="middle" x="933.24" y="-14.3" font-family="Times,serif" font-size="14.00">attribute</text>
</g>
<!-- dataset version&#45;&gt;has attribute -->
<g id="edge7" class="edge">
<title>dataset version&#45;&gt;has attribute</title>
<path fill="none" stroke="blue" d="M1080.6,-97.67C1033.17,-92.38 977.47,-83.35 958.24,-69 950.44,-63.18 944.91,-54.25 941.08,-45.54"/>
<polygon fill="blue" stroke="blue" points="944.27,-44.07 937.43,-35.97 937.72,-46.56 944.27,-44.07"/>
<text text-anchor="middle" x="1005.24" y="-57.8" font-family="Times,serif" font-size="14.00">has attribute</text>
</g>
<!-- provided by -->
<g id="node9" class="node">
<title>provided by</title>
<ellipse fill="none" stroke="blue" cx="1041.24" cy="-18" rx="38.19" ry="18"/>
<text text-anchor="middle" x="1041.24" y="-14.3" font-family="Times,serif" font-size="14.00">string</text>
</g>
<!-- dataset version&#45;&gt;provided by -->
<g id="edge8" class="edge">
<title>dataset version&#45;&gt;provided by</title>
<path fill="none" stroke="blue" d="M1104.66,-90.83C1091.38,-85.64 1077.85,-78.55 1067.24,-69 1060.16,-62.63 1054.7,-53.87 1050.66,-45.46"/>
<polygon fill="blue" stroke="blue" points="1053.87,-44.06 1046.69,-36.27 1047.44,-46.83 1053.87,-44.06"/>
<text text-anchor="middle" x="1109.74" y="-57.8" font-family="Times,serif" font-size="14.00">provided by</text>
</g>
<!-- xref -->
<g id="node10" class="node">
<title>xref</title>
<ellipse fill="none" stroke="blue" cx="1155.24" cy="-18" rx="57.39" ry="18"/>
<text text-anchor="middle" x="1155.24" y="-14.3" font-family="Times,serif" font-size="14.00">uriorcurie</text>
</g>
<!-- dataset version&#45;&gt;xref -->
<g id="edge9" class="edge">
<title>dataset version&#45;&gt;xref</title>
<path fill="none" stroke="blue" d="M1156.04,-86.8C1155.9,-75.16 1155.72,-59.55 1155.56,-46.24"/>
<polygon fill="blue" stroke="blue" points="1159.06,-46.13 1155.44,-36.18 1152.06,-46.22 1159.06,-46.13"/>
<text text-anchor="middle" x="1170.74" y="-57.8" font-family="Times,serif" font-size="14.00">xref</text>
</g>
<!-- category -->
<g id="node11" class="node">
<title>category</title>
<ellipse fill="none" stroke="black" cx="1282.24" cy="-18" rx="51.19" ry="18"/>
<text text-anchor="middle" x="1282.24" y="-14.3" font-family="Times,serif" font-size="14.00">category</text>
</g>
<!-- dataset version&#45;&gt;category -->
<g id="edge10" class="edge">
<title>dataset version&#45;&gt;category</title>
<path fill="none" stroke="blue" d="M1180.53,-87.61C1200.64,-74.04 1229.35,-54.68 1251.14,-39.98"/>
<polygon fill="blue" stroke="blue" points="1253.38,-42.69 1259.71,-34.2 1249.46,-36.89 1253.38,-42.69"/>
<text text-anchor="middle" x="1258.74" y="-57.8" font-family="Times,serif" font-size="14.00">category</text>
</g>
<!-- license -->
<g id="node13" class="node">
<title>license</title>
<ellipse fill="none" stroke="blue" cx="1390.24" cy="-18" rx="38.19" ry="18"/>
<text text-anchor="middle" x="1390.24" y="-14.3" font-family="Times,serif" font-size="14.00">string</text>
</g>
<!-- dataset version&#45;&gt;license -->
<g id="edge11" class="edge">
<title>dataset version&#45;&gt;license</title>
<path fill="none" stroke="blue" d="M1214.91,-92.28C1239.78,-86.51 1268.83,-78.69 1294.24,-69 1316.62,-60.47 1340.51,-48.03 1358.86,-37.7"/>
<polygon fill="blue" stroke="blue" points="1360.71,-40.68 1367.66,-32.67 1357.24,-34.6 1360.71,-40.68"/>
<text text-anchor="middle" x="1352.24" y="-57.8" font-family="Times,serif" font-size="14.00">license</text>
</g>
<!-- rights -->
<g id="node14" class="node">
<title>rights</title>
<ellipse fill="none" stroke="blue" cx="1485.24" cy="-18" rx="38.19" ry="18"/>
<text text-anchor="middle" x="1485.24" y="-14.3" font-family="Times,serif" font-size="14.00">string</text>
</g>
<!-- dataset version&#45;&gt;rights -->
<g id="edge12" class="edge">
<title>dataset version&#45;&gt;rights</title>
<path fill="none" stroke="blue" d="M1215.88,-92.41C1226.32,-90.51 1237.08,-88.63 1247.24,-87 1306.57,-77.48 1323.67,-86.23 1381.24,-69 1406.42,-61.46 1433.11,-48.51 1453.15,-37.68"/>
<polygon fill="blue" stroke="blue" points="1455.07,-40.62 1462.14,-32.73 1451.69,-34.49 1455.07,-40.62"/>
<text text-anchor="middle" x="1441.74" y="-57.8" font-family="Times,serif" font-size="14.00">rights</text>
</g>
<!-- format -->
<g id="node15" class="node">
<title>format</title>
<ellipse fill="none" stroke="blue" cx="1580.24" cy="-18" rx="38.19" ry="18"/>
<text text-anchor="middle" x="1580.24" y="-14.3" font-family="Times,serif" font-size="14.00">string</text>
</g>
<!-- dataset version&#45;&gt;format -->
<g id="edge13" class="edge">
<title>dataset version&#45;&gt;format</title>
<path fill="none" stroke="blue" d="M1214.84,-92.13C1225.58,-90.22 1236.72,-88.41 1247.24,-87 1344.47,-73.97 1372.16,-93.19 1467.24,-69 1495.44,-61.83 1525.47,-48.22 1547.48,-37.01"/>
<polygon fill="blue" stroke="blue" points="1549.14,-40.1 1556.4,-32.38 1545.91,-33.88 1549.14,-40.1"/>
<text text-anchor="middle" x="1533.74" y="-57.8" font-family="Times,serif" font-size="14.00">format</text>
</g>
<!-- creation date -->
<g id="node16" class="node">
<title>creation date</title>
<ellipse fill="none" stroke="blue" cx="1668.24" cy="-18" rx="31.4" ry="18"/>
<text text-anchor="middle" x="1668.24" y="-14.3" font-family="Times,serif" font-size="14.00">date</text>
</g>
<!-- dataset version&#45;&gt;creation date -->
<g id="edge14" class="edge">
<title>dataset version&#45;&gt;creation date</title>
<path fill="none" stroke="blue" d="M1213.83,-92.09C1224.88,-90.14 1236.39,-88.32 1247.24,-87 1386.44,-70.09 1426.33,-103.55 1562.24,-69 1589.43,-62.09 1618.08,-48.12 1638.73,-36.7"/>
<polygon fill="blue" stroke="blue" points="1640.64,-39.64 1647.62,-31.66 1637.19,-33.54 1640.64,-39.64"/>
<text text-anchor="middle" x="1649.74" y="-57.8" font-family="Times,serif" font-size="14.00">creation date</text>
</g>
<!-- has dataset -->
<g id="node17" class="node">
<title>has dataset</title>
<ellipse fill="none" stroke="blue" cx="1763.24" cy="-18" rx="45.49" ry="18"/>
<text text-anchor="middle" x="1763.24" y="-14.3" font-family="Times,serif" font-size="14.00">dataset</text>
</g>
<!-- dataset version&#45;&gt;has dataset -->
<g id="edge15" class="edge">
<title>dataset version&#45;&gt;has dataset</title>
<path fill="none" stroke="blue" d="M1213.82,-91.94C1224.87,-90 1236.38,-88.22 1247.24,-87 1297.41,-81.35 1653.98,-86.74 1701.24,-69 1716.24,-63.37 1730.36,-52.59 1741.33,-42.48"/>
<polygon fill="blue" stroke="blue" points="1743.98,-44.79 1748.72,-35.32 1739.11,-39.76 1743.98,-44.79"/>
<text text-anchor="middle" x="1769.74" y="-57.8" font-family="Times,serif" font-size="14.00">has dataset</text>
</g>
<!-- ingest date -->
<g id="node18" class="node">
<title>ingest date</title>
<ellipse fill="none" stroke="blue" cx="1869.24" cy="-18" rx="38.19" ry="18"/>
<text text-anchor="middle" x="1869.24" y="-14.3" font-family="Times,serif" font-size="14.00">string</text>
</g>
<!-- dataset version&#45;&gt;ingest date -->
<g id="edge16" class="edge">
<title>dataset version&#45;&gt;ingest date</title>
<path fill="none" stroke="blue" d="M1213.32,-91.96C1224.52,-89.98 1236.21,-88.2 1247.24,-87 1310.01,-80.18 1756.82,-92.97 1815.24,-69 1828.67,-63.49 1840.82,-53.02 1850.17,-43.08"/>
<polygon fill="blue" stroke="blue" points="1853.03,-45.13 1857.05,-35.33 1847.79,-40.49 1853.03,-45.13"/>
<text text-anchor="middle" x="1879.74" y="-57.8" font-family="Times,serif" font-size="14.00">ingest date</text>
</g>
<!-- has distribution -->
<g id="node19" class="node">
<title>has distribution</title>
<ellipse fill="none" stroke="blue" cx="2028.24" cy="-18" rx="102.88" ry="18"/>
<text text-anchor="middle" x="2028.24" y="-14.3" font-family="Times,serif" font-size="14.00">dataset distribution</text>
</g>
<!-- dataset version&#45;&gt;has distribution -->
<g id="edge17" class="edge">
<title>dataset version&#45;&gt;has distribution</title>
<path fill="none" stroke="blue" d="M1213.32,-91.91C1224.52,-89.94 1236.21,-88.17 1247.24,-87 1396.9,-71.13 1777.96,-104.39 1924.24,-69 1948.44,-63.14 1973.67,-51.19 1993.21,-40.43"/>
<polygon fill="blue" stroke="blue" points="1995.05,-43.41 2002.04,-35.44 1991.61,-37.31 1995.05,-43.41"/>
<text text-anchor="middle" x="2022.24" y="-57.8" font-family="Times,serif" font-size="14.00">has distribution</text>
</g>
<!-- named thing_category -->
<g id="node12" class="node">
<title>named thing_category</title>
<ellipse fill="none" stroke="blue" cx="1331.24" cy="-105" rx="74.99" ry="18"/>
<text text-anchor="middle" x="1331.24" y="-101.3" font-family="Times,serif" font-size="14.00">category type</text>
</g>
</g>
</svg>
