<?xml version="1.0" encoding="UTF-8" standalone="no"?>
<!DOCTYPE svg PUBLIC "-//W3C//DTD SVG 1.1//EN"
 "http://www.w3.org/Graphics/SVG/1.1/DTD/svg11.dtd">
<!-- Generated by graphviz version 2.40.1 (20161225.0304)
 -->
<!-- Title: %3 Pages: 1 -->
<svg width="1323pt" height="130pt"
 viewBox="0.00 0.00 1322.80 130.00" xmlns="http://www.w3.org/2000/svg" xmlns:xlink="http://www.w3.org/1999/xlink">
<g id="graph0" class="graph" transform="scale(1 1) rotate(0) translate(4 126)">
<title>%3</title>
<polygon fill="#ffffff" stroke="transparent" points="-4,4 -4,-126 1318.7987,-126 1318.7987,4 -4,4"/>
<!-- data file -->
<g id="node1" class="node">
<title>data file</title>
<ellipse fill="none" stroke="#000000" cx="688.0694" cy="-104" rx="38.195" ry="18"/>
<text text-anchor="middle" x="688.0694" y="-99.8" font-family="Times,serif" font-size="14.00" fill="#000000">data file</text>
</g>
<!-- named thing -->
<g id="node2" class="node">
<title>named thing</title>
<ellipse fill="none" stroke="#000000" cx="54.0694" cy="-18" rx="54.1389" ry="18"/>
<text text-anchor="middle" x="54.0694" y="-13.8" font-family="Times,serif" font-size="14.00" fill="#000000">named thing</text>
</g>
<!-- data file&#45;&gt;named thing -->
<g id="edge1" class="edge">
<title>data file&#45;&gt;named thing</title>
<path fill="none" stroke="#000000" d="M649.5501,-102.3031C556.8935,-97.5968 314.6676,-81.5747 118.0694,-36 113.6491,-34.9753 109.0771,-33.8408 104.5043,-32.6545"/>
<polygon fill="#000000" stroke="#000000" points="105.1154,-29.1951 94.5509,-29.9969 103.3096,-35.9582 105.1154,-29.1951"/>
<text text-anchor="middle" x="300.3453" y="-56.8" font-family="Times,serif" font-size="14.00" fill="#000000">is_a</text>
</g>
<!-- id -->
<g id="node3" class="node">
<title>id</title>
<ellipse fill="none" stroke="#0000ff" cx="186.0694" cy="-18" rx="59.4427" ry="18"/>
<text text-anchor="middle" x="186.0694" y="-13.8" font-family="Times,serif" font-size="14.00" fill="#000000">identifier type</text>
</g>
<!-- data file&#45;&gt;id -->
<g id="edge2" class="edge">
<title>data file&#45;&gt;id</title>
<path fill="none" stroke="#0000ff" d="M649.9084,-101.1696C591.483,-96.4696 476.5014,-85.7714 380.1797,-68 323.3142,-57.5083 310.0447,-50.5098 254.0694,-36 249.7638,-34.8839 245.3069,-33.7211 240.8289,-32.5473"/>
<polygon fill="#0000ff" stroke="#0000ff" points="241.604,-29.1322 231.0427,-29.9744 239.8241,-35.9022 241.604,-29.1322"/>
<text text-anchor="middle" x="386.5142" y="-56.8" font-family="Times,serif" font-size="14.00" fill="#000000">id</text>
</g>
<!-- name -->
<g id="node4" class="node">
<title>name</title>
<ellipse fill="none" stroke="#0000ff" cx="308.0694" cy="-18" rx="44.9599" ry="18"/>
<text text-anchor="middle" x="308.0694" y="-13.8" font-family="Times,serif" font-size="14.00" fill="#000000">label type</text>
</g>
<!-- data file&#45;&gt;name -->
<g id="edge3" class="edge">
<title>data file&#45;&gt;name</title>
<path fill="none" stroke="#0000ff" d="M649.9592,-101.1432C600.6004,-96.844 512.1867,-87.0965 438.752,-68 407.1692,-59.787 372.7469,-46.4251 347.1622,-35.5798"/>
<polygon fill="#0000ff" stroke="#0000ff" points="348.3831,-32.2951 337.8136,-31.5625 345.6193,-38.7264 348.3831,-32.2951"/>
<text text-anchor="middle" x="454.2281" y="-56.8" font-family="Times,serif" font-size="14.00" fill="#000000">name</text>
</g>
<!-- category -->
<g id="node5" class="node">
<title>category</title>
<ellipse fill="none" stroke="#0000ff" cx="406.0694" cy="-18" rx="35.3048" ry="18"/>
<text text-anchor="middle" x="406.0694" y="-13.8" font-family="Times,serif" font-size="14.00" fill="#000000">iri type</text>
</g>
<!-- data file&#45;&gt;category -->
<g id="edge4" class="edge">
<title>data file&#45;&gt;category</title>
<path fill="none" stroke="#0000ff" d="M650.8823,-99.5412C613.7195,-94.4092 555.2991,-84.4934 506.876,-68 483.0382,-59.8806 457.6472,-47.2604 438.3113,-36.7309"/>
<polygon fill="#0000ff" stroke="#0000ff" points="439.7821,-33.5445 429.3389,-31.7586 436.3891,-39.6672 439.7821,-33.5445"/>
<text text-anchor="middle" x="531.1661" y="-56.8" font-family="Times,serif" font-size="14.00" fill="#000000">category</text>
</g>
<!-- related to -->
<g id="node6" class="node">
<title>related to</title>
<ellipse fill="none" stroke="#0000ff" cx="513.0694" cy="-18" rx="54.1389" ry="18"/>
<text text-anchor="middle" x="513.0694" y="-13.8" font-family="Times,serif" font-size="14.00" fill="#000000">named thing</text>
</g>
<!-- data file&#45;&gt;related to -->
<g id="edge5" class="edge">
<title>data file&#45;&gt;related to</title>
<path fill="none" stroke="#0000ff" d="M654.0413,-95.5653C632.3312,-89.4753 603.9812,-80.1828 580.5967,-68 566.5429,-60.6783 552.2568,-50.5669 540.4662,-41.3519"/>
<polygon fill="#0000ff" stroke="#0000ff" points="542.3522,-38.378 532.3609,-34.8531 537.9733,-43.8393 542.3522,-38.378"/>
<text text-anchor="middle" x="607.3057" y="-56.8" font-family="Times,serif" font-size="14.00" fill="#000000">related to</text>
</g>
<!-- interacts with -->
<g id="node7" class="node">
<title>interacts with</title>
<ellipse fill="none" stroke="#0000ff" cx="639.0694" cy="-18" rx="54.1389" ry="18"/>
<text text-anchor="middle" x="639.0694" y="-13.8" font-family="Times,serif" font-size="14.00" fill="#000000">named thing</text>
</g>
<!-- data file&#45;&gt;interacts with -->
<g id="edge6" class="edge">
<title>data file&#45;&gt;interacts with</title>
<path fill="none" stroke="#0000ff" d="M661.9866,-90.655C653.508,-84.907 645.0544,-77.3344 640.2588,-68 636.8607,-61.3857 635.603,-53.6011 635.434,-46.1696"/>
<polygon fill="#0000ff" stroke="#0000ff" points="638.9359,-46.1807 635.8103,-36.0574 631.9408,-45.9203 638.9359,-46.1807"/>
<text text-anchor="middle" x="678.9747" y="-56.8" font-family="Times,serif" font-size="14.00" fill="#000000">interacts with</text>
</g>
<!-- node property -->
<g id="node8" class="node">
<title>node property</title>
<ellipse fill="none" stroke="#0000ff" cx="741.0694" cy="-18" rx="30.0035" ry="18"/>
<text text-anchor="middle" x="741.0694" y="-13.8" font-family="Times,serif" font-size="14.00" fill="#000000">string</text>
</g>
<!-- data file&#45;&gt;node property -->
<g id="edge7" class="edge">
<title>data file&#45;&gt;node property</title>
<path fill="none" stroke="#0000ff" d="M702.4607,-86.9265C707.066,-81.1008 712.0167,-74.4306 716.0694,-68 720.6537,-60.7259 725.0591,-52.4983 728.8604,-44.8483"/>
<polygon fill="#0000ff" stroke="#0000ff" points="732.1369,-46.111 733.3204,-35.5825 725.8296,-43.075 732.1369,-46.111"/>
<text text-anchor="middle" x="763.1402" y="-56.8" font-family="Times,serif" font-size="14.00" fill="#000000">node property</text>
</g>
<!-- iri -->
<g id="node9" class="node">
<title>iri</title>
<ellipse fill="none" stroke="#0000ff" cx="825.0694" cy="-18" rx="35.3048" ry="18"/>
<text text-anchor="middle" x="825.0694" y="-13.8" font-family="Times,serif" font-size="14.00" fill="#000000">iri type</text>
</g>
<!-- data file&#45;&gt;iri -->
<g id="edge8" class="edge">
<title>data file&#45;&gt;iri</title>
<path fill="none" stroke="#0000ff" d="M723.3096,-96.8395C753.5071,-90.0736 793.9844,-79.3009 806.0694,-68 812.2692,-62.2025 816.4639,-54.1706 819.295,-46.2391"/>
<polygon fill="#0000ff" stroke="#0000ff" points="822.7186,-47.004 822.2001,-36.4218 816.0063,-45.0176 822.7186,-47.004"/>
<text text-anchor="middle" x="822.2901" y="-56.8" font-family="Times,serif" font-size="14.00" fill="#000000">iri</text>
</g>
<!-- synonym -->
<g id="node10" class="node">
<title>synonym</title>
<ellipse fill="none" stroke="#0000ff" cx="923.0694" cy="-18" rx="44.9599" ry="18"/>
<text text-anchor="middle" x="923.0694" y="-13.8" font-family="Times,serif" font-size="14.00" fill="#000000">label type</text>
</g>
<!-- data file&#45;&gt;synonym -->
<g id="edge9" class="edge">
<title>data file&#45;&gt;synonym</title>
<path fill="none" stroke="#0000ff" d="M724.0739,-97.6775C753.6941,-91.8463 796.4429,-81.9701 832.0694,-68 852.1766,-60.1155 873.3954,-48.6591 890.281,-38.7013"/>
<polygon fill="#0000ff" stroke="#0000ff" points="892.411,-41.5048 899.1816,-33.3556 888.8068,-35.504 892.411,-41.5048"/>
<text text-anchor="middle" x="886.7383" y="-56.8" font-family="Times,serif" font-size="14.00" fill="#000000">synonym</text>
</g>
<!-- full name -->
<g id="node11" class="node">
<title>full name</title>
<ellipse fill="none" stroke="#0000ff" cx="1030.0694" cy="-18" rx="44.9599" ry="18"/>
<text text-anchor="middle" x="1030.0694" y="-13.8" font-family="Times,serif" font-size="14.00" fill="#000000">label type</text>
</g>
<!-- data file&#45;&gt;full name -->
<g id="edge10" class="edge">
<title>data file&#45;&gt;full name</title>
<path fill="none" stroke="#0000ff" d="M726.2439,-100.9875C772.0655,-96.6863 850.8838,-87.0954 916.0694,-68 942.8078,-60.1673 971.5273,-47.543 993.4512,-36.9397"/>
<polygon fill="#0000ff" stroke="#0000ff" points="995.28,-39.9407 1002.7093,-32.3872 992.1911,-33.6591 995.28,-39.9407"/>
<text text-anchor="middle" x="981.6988" y="-56.8" font-family="Times,serif" font-size="14.00" fill="#000000">full name</text>
</g>
<!-- description -->
<g id="node12" class="node">
<title>description</title>
<ellipse fill="none" stroke="#0000ff" cx="1150.0694" cy="-18" rx="57.0027" ry="18"/>
<text text-anchor="middle" x="1150.0694" y="-13.8" font-family="Times,serif" font-size="14.00" fill="#000000">narrative text</text>
</g>
<!-- data file&#45;&gt;description -->
<g id="edge11" class="edge">
<title>data file&#45;&gt;description</title>
<path fill="none" stroke="#0000ff" d="M726.4735,-102.6718C787.6444,-99.9024 910.6542,-91.6529 1012.0694,-68 1044.7805,-60.3708 1080.392,-47.3424 1107.2449,-36.4973"/>
<polygon fill="#0000ff" stroke="#0000ff" points="1108.7941,-39.645 1116.7202,-32.6146 1106.1398,-33.1677 1108.7941,-39.645"/>
<text text-anchor="middle" x="1090.1729" y="-56.8" font-family="Times,serif" font-size="14.00" fill="#000000">description</text>
</g>
<!-- systematic synonym -->
<g id="node13" class="node">
<title>systematic synonym</title>
<ellipse fill="none" stroke="#0000ff" cx="1270.0694" cy="-18" rx="44.9599" ry="18"/>
<text text-anchor="middle" x="1270.0694" y="-13.8" font-family="Times,serif" font-size="14.00" fill="#000000">label type</text>
</g>
<!-- data file&#45;&gt;systematic synonym -->
<g id="edge12" class="edge">
<title>data file&#45;&gt;systematic synonym</title>
<path fill="none" stroke="#0000ff" d="M726.4427,-102.0709C818.4066,-97.249 1049.3608,-83.9094 1125.0694,-68 1161.3175,-60.3828 1200.9837,-46.2815 1229.6516,-34.9913"/>
<polygon fill="#0000ff" stroke="#0000ff" points="1231.3233,-38.0923 1239.3096,-31.1303 1228.7248,-31.5925 1231.3233,-38.0923"/>
<text text-anchor="middle" x="1231.0367" y="-56.8" font-family="Times,serif" font-size="14.00" fill="#000000">systematic synonym</text>
</g>
</g>
</svg>
