<?xml version="1.0" encoding="UTF-8" standalone="no"?>
<!DOCTYPE svg PUBLIC "-//W3C//DTD SVG 1.1//EN"
 "http://www.w3.org/Graphics/SVG/1.1/DTD/svg11.dtd">
<!-- Generated by graphviz version 2.40.1 (20161225.0304)
 -->
<!-- Title: %3 Pages: 1 -->
<svg width="2019pt" height="131pt"
 viewBox="0.00 0.00 2019.19 131.00" xmlns="http://www.w3.org/2000/svg" xmlns:xlink="http://www.w3.org/1999/xlink">
<g id="graph0" class="graph" transform="scale(1 1) rotate(0) translate(4 127)">
<title>%3</title>
<polygon fill="#ffffff" stroke="transparent" points="-4,4 -4,-127 2015.1915,-127 2015.1915,4 -4,4"/>
<!-- data set summary -->
<g id="node1" class="node">
<title>data set summary</title>
<ellipse fill="none" stroke="#000000" cx="1028.6442" cy="-105" rx="73.387" ry="18"/>
<text text-anchor="middle" x="1028.6442" y="-101.3" font-family="Times,serif" font-size="14.00" fill="#000000">data set summary</text>
</g>
<!-- data set version -->
<g id="node2" class="node">
<title>data set version</title>
<ellipse fill="none" stroke="#000000" cx="65.6442" cy="-18" rx="65.7887" ry="18"/>
<text text-anchor="middle" x="65.6442" y="-14.3" font-family="Times,serif" font-size="14.00" fill="#000000">data set version</text>
</g>
<!-- data set summary&#45;&gt;data set version -->
<g id="edge1" class="edge">
<title>data set summary&#45;&gt;data set version</title>
<path fill="none" stroke="#000000" d="M955.3338,-103.6728C788.7409,-100.321 385.775,-90.2275 251.6442,-69 205.0431,-61.6249 153.3911,-46.9175 116.3669,-35.1838"/>
<polygon fill="#000000" stroke="#000000" points="117.397,-31.8386 106.8058,-32.1168 115.2588,-38.5041 117.397,-31.8386"/>
<text text-anchor="middle" x="262.6442" y="-57.8" font-family="Times,serif" font-size="14.00" fill="#000000">is_a</text>
</g>
<!-- id -->
<g id="node3" class="node">
<title>id</title>
<ellipse fill="none" stroke="#0000ff" cx="179.6442" cy="-18" rx="30.5947" ry="18"/>
<text text-anchor="middle" x="179.6442" y="-14.3" font-family="Times,serif" font-size="14.00" fill="#000000">string</text>
</g>
<!-- data set summary&#45;&gt;id -->
<g id="edge2" class="edge">
<title>data set summary&#45;&gt;id</title>
<path fill="none" stroke="#0000ff" d="M955.4815,-102.7938C805.8859,-98.0023 469.5298,-85.7166 355.6442,-69 294.1052,-59.967 278.4774,-56.1814 219.6442,-36 217.3954,-35.2286 215.1003,-34.3777 212.8035,-33.4781"/>
<polygon fill="#0000ff" stroke="#0000ff" points="214.044,-30.2033 203.4672,-29.5849 211.3499,-36.6641 214.044,-30.2033"/>
<text text-anchor="middle" x="361.1442" y="-57.8" font-family="Times,serif" font-size="14.00" fill="#000000">id</text>
</g>
<!-- name -->
<g id="node4" class="node">
<title>name</title>
<ellipse fill="none" stroke="#0000ff" cx="273.6442" cy="-18" rx="45.4919" ry="18"/>
<text text-anchor="middle" x="273.6442" y="-14.3" font-family="Times,serif" font-size="14.00" fill="#000000">label type</text>
</g>
<!-- data set summary&#45;&gt;name -->
<g id="edge3" class="edge">
<title>data set summary&#45;&gt;name</title>
<path fill="none" stroke="#0000ff" d="M955.3796,-103.0432C817.6515,-98.9646 525.0584,-88.2923 425.6442,-69 386.9335,-61.4878 344.5184,-46.6717 314.3537,-34.936"/>
<polygon fill="#0000ff" stroke="#0000ff" points="315.5973,-31.6641 305.0107,-31.2471 313.0266,-38.175 315.5973,-31.6641"/>
<text text-anchor="middle" x="441.1442" y="-57.8" font-family="Times,serif" font-size="14.00" fill="#000000">name</text>
</g>
<!-- category -->
<g id="node5" class="node">
<title>category</title>
<ellipse fill="none" stroke="#0000ff" cx="373.6442" cy="-18" rx="36.2938" ry="18"/>
<text text-anchor="middle" x="373.6442" y="-14.3" font-family="Times,serif" font-size="14.00" fill="#000000">iri type</text>
</g>
<!-- data set summary&#45;&gt;category -->
<g id="edge4" class="edge">
<title>data set summary&#45;&gt;category</title>
<path fill="none" stroke="#0000ff" d="M955.4761,-102.4256C833.4068,-97.7096 593.4349,-86.5283 510.6442,-69 475.1524,-61.4857 436.5814,-46.4619 409.4359,-34.6577"/>
<polygon fill="#0000ff" stroke="#0000ff" points="410.5398,-31.319 399.9787,-30.4744 407.708,-37.7206 410.5398,-31.319"/>
<text text-anchor="middle" x="534.1442" y="-57.8" font-family="Times,serif" font-size="14.00" fill="#000000">category</text>
</g>
<!-- related to -->
<g id="node6" class="node">
<title>related to</title>
<ellipse fill="none" stroke="#0000ff" cx="483.6442" cy="-18" rx="55.4913" ry="18"/>
<text text-anchor="middle" x="483.6442" y="-14.3" font-family="Times,serif" font-size="14.00" fill="#000000">named thing</text>
</g>
<!-- data set summary&#45;&gt;related to -->
<g id="edge5" class="edge">
<title>data set summary&#45;&gt;related to</title>
<path fill="none" stroke="#0000ff" d="M956.3994,-101.5639C853.5295,-96.2078 670.1583,-84.817 605.6442,-69 576.8374,-61.9374 546.0331,-49.0136 522.5848,-37.9435"/>
<polygon fill="#0000ff" stroke="#0000ff" points="523.8649,-34.6754 513.3362,-33.4936 520.8299,-40.9833 523.8649,-34.6754"/>
<text text-anchor="middle" x="631.6442" y="-57.8" font-family="Times,serif" font-size="14.00" fill="#000000">related to</text>
</g>
<!-- interacts with -->
<g id="node7" class="node">
<title>interacts with</title>
<ellipse fill="none" stroke="#0000ff" cx="611.6442" cy="-18" rx="55.4913" ry="18"/>
<text text-anchor="middle" x="611.6442" y="-14.3" font-family="Times,serif" font-size="14.00" fill="#000000">named thing</text>
</g>
<!-- data set summary&#45;&gt;interacts with -->
<g id="edge6" class="edge">
<title>data set summary&#45;&gt;interacts with</title>
<path fill="none" stroke="#0000ff" d="M956.8228,-101.1854C872.7511,-96.0471 738.984,-85.5851 691.6442,-69 673.322,-62.581 654.9128,-51.2616 640.3806,-40.915"/>
<polygon fill="#0000ff" stroke="#0000ff" points="642.4335,-38.0801 632.3023,-34.9799 638.2889,-43.7213 642.4335,-38.0801"/>
<text text-anchor="middle" x="728.6442" y="-57.8" font-family="Times,serif" font-size="14.00" fill="#000000">interacts with</text>
</g>
<!-- correlated with -->
<g id="node8" class="node">
<title>correlated with</title>
<ellipse fill="none" stroke="#0000ff" cx="739.6442" cy="-18" rx="55.4913" ry="18"/>
<text text-anchor="middle" x="739.6442" y="-14.3" font-family="Times,serif" font-size="14.00" fill="#000000">named thing</text>
</g>
<!-- data set summary&#45;&gt;correlated with -->
<g id="edge7" class="edge">
<title>data set summary&#45;&gt;correlated with</title>
<path fill="none" stroke="#0000ff" d="M958.7562,-99.4108C899.0601,-93.7432 818.4156,-83.7019 789.6442,-69 777.74,-62.9171 766.9945,-52.9123 758.5431,-43.3679"/>
<polygon fill="#0000ff" stroke="#0000ff" points="761.1089,-40.9801 752.0084,-35.555 755.7394,-45.4712 761.1089,-40.9801"/>
<text text-anchor="middle" x="830.6442" y="-57.8" font-family="Times,serif" font-size="14.00" fill="#000000">correlated with</text>
</g>
<!-- node property -->
<g id="node9" class="node">
<title>node property</title>
<ellipse fill="none" stroke="#0000ff" cx="843.6442" cy="-18" rx="30.5947" ry="18"/>
<text text-anchor="middle" x="843.6442" y="-14.3" font-family="Times,serif" font-size="14.00" fill="#000000">string</text>
</g>
<!-- data set summary&#45;&gt;node property -->
<g id="edge8" class="edge">
<title>data set summary&#45;&gt;node property</title>
<path fill="none" stroke="#0000ff" d="M965.7704,-95.5151C942.056,-90.1125 915.5409,-81.7694 893.6442,-69 881.9288,-62.168 871.0971,-51.8643 862.5326,-42.3027"/>
<polygon fill="#0000ff" stroke="#0000ff" points="865.0575,-39.8697 855.902,-34.5379 859.7342,-44.4154 865.0575,-39.8697"/>
<text text-anchor="middle" x="931.6442" y="-57.8" font-family="Times,serif" font-size="14.00" fill="#000000">node property</text>
</g>
<!-- iri -->
<g id="node10" class="node">
<title>iri</title>
<ellipse fill="none" stroke="#0000ff" cx="928.6442" cy="-18" rx="36.2938" ry="18"/>
<text text-anchor="middle" x="928.6442" y="-14.3" font-family="Times,serif" font-size="14.00" fill="#000000">iri type</text>
</g>
<!-- data set summary&#45;&gt;iri -->
<g id="edge9" class="edge">
<title>data set summary&#45;&gt;iri</title>
<path fill="none" stroke="#0000ff" d="M1008.4077,-87.3943C992.9094,-73.9107 971.4125,-55.2084 954.6403,-40.6166"/>
<polygon fill="#0000ff" stroke="#0000ff" points="956.6749,-37.7475 946.8332,-33.8244 952.0803,-43.0287 956.6749,-37.7475"/>
<text text-anchor="middle" x="991.1442" y="-57.8" font-family="Times,serif" font-size="14.00" fill="#000000">iri</text>
</g>
<!-- synonym -->
<g id="node11" class="node">
<title>synonym</title>
<ellipse fill="none" stroke="#0000ff" cx="1028.6442" cy="-18" rx="45.4919" ry="18"/>
<text text-anchor="middle" x="1028.6442" y="-14.3" font-family="Times,serif" font-size="14.00" fill="#000000">label type</text>
</g>
<!-- data set summary&#45;&gt;synonym -->
<g id="edge10" class="edge">
<title>data set summary&#45;&gt;synonym</title>
<path fill="none" stroke="#0000ff" d="M1028.6442,-86.9735C1028.6442,-75.1918 1028.6442,-59.5607 1028.6442,-46.1581"/>
<polygon fill="#0000ff" stroke="#0000ff" points="1032.1443,-46.0033 1028.6442,-36.0034 1025.1443,-46.0034 1032.1443,-46.0033"/>
<text text-anchor="middle" x="1054.1442" y="-57.8" font-family="Times,serif" font-size="14.00" fill="#000000">synonym</text>
</g>
<!-- full name -->
<g id="node12" class="node">
<title>full name</title>
<ellipse fill="none" stroke="#0000ff" cx="1137.6442" cy="-18" rx="45.4919" ry="18"/>
<text text-anchor="middle" x="1137.6442" y="-14.3" font-family="Times,serif" font-size="14.00" fill="#000000">label type</text>
</g>
<!-- data set summary&#45;&gt;full name -->
<g id="edge11" class="edge">
<title>data set summary&#45;&gt;full name</title>
<path fill="none" stroke="#0000ff" d="M1056.4456,-88.1637C1065.3661,-82.4065 1075.1342,-75.7172 1083.6442,-69 1094.0824,-60.7608 1104.8738,-50.8837 1114.0398,-42.0252"/>
<polygon fill="#0000ff" stroke="#0000ff" points="1116.6311,-44.386 1121.3136,-34.8821 1111.7264,-39.3916 1116.6311,-44.386"/>
<text text-anchor="middle" x="1128.1442" y="-57.8" font-family="Times,serif" font-size="14.00" fill="#000000">full name</text>
</g>
<!-- description -->
<g id="node13" class="node">
<title>description</title>
<ellipse fill="none" stroke="#0000ff" cx="1258.6442" cy="-18" rx="57.6901" ry="18"/>
<text text-anchor="middle" x="1258.6442" y="-14.3" font-family="Times,serif" font-size="14.00" fill="#000000">narrative text</text>
</g>
<!-- data set summary&#45;&gt;description -->
<g id="edge12" class="edge">
<title>data set summary&#45;&gt;description</title>
<path fill="none" stroke="#0000ff" d="M1082.5639,-92.6663C1106.2599,-86.5854 1134.1985,-78.5065 1158.6442,-69 1180.2424,-60.6009 1203.3516,-49.001 1221.9081,-38.9859"/>
<polygon fill="#0000ff" stroke="#0000ff" points="1223.802,-41.9394 1230.8944,-34.0686 1220.4417,-35.7986 1223.802,-41.9394"/>
<text text-anchor="middle" x="1223.1442" y="-57.8" font-family="Times,serif" font-size="14.00" fill="#000000">description</text>
</g>
<!-- systematic synonym -->
<g id="node14" class="node">
<title>systematic synonym</title>
<ellipse fill="none" stroke="#0000ff" cx="1379.6442" cy="-18" rx="45.4919" ry="18"/>
<text text-anchor="middle" x="1379.6442" y="-14.3" font-family="Times,serif" font-size="14.00" fill="#000000">label type</text>
</g>
<!-- data set summary&#45;&gt;systematic synonym -->
<g id="edge13" class="edge">
<title>data set summary&#45;&gt;systematic synonym</title>
<path fill="none" stroke="#0000ff" d="M1097.4563,-98.5448C1143.4173,-93.1744 1204.8845,-83.9397 1257.6442,-69 1286.7645,-60.7541 1318.2472,-47.4756 1341.9362,-36.5348"/>
<polygon fill="#0000ff" stroke="#0000ff" points="1343.6886,-39.5788 1351.2573,-32.165 1340.7172,-33.2408 1343.6886,-39.5788"/>
<text text-anchor="middle" x="1355.6442" y="-57.8" font-family="Times,serif" font-size="14.00" fill="#000000">systematic synonym</text>
</g>
<!-- title -->
<g id="node15" class="node">
<title>title</title>
<ellipse fill="none" stroke="#0000ff" cx="1473.6442" cy="-18" rx="30.5947" ry="18"/>
<text text-anchor="middle" x="1473.6442" y="-14.3" font-family="Times,serif" font-size="14.00" fill="#000000">string</text>
</g>
<!-- data set summary&#45;&gt;title -->
<g id="edge14" class="edge">
<title>data set summary&#45;&gt;title</title>
<path fill="none" stroke="#0000ff" d="M1102.0175,-103.5491C1198.1836,-100.7305 1361.0373,-92.54 1415.6442,-69 1429.7736,-62.9091 1442.8896,-52.0316 1453.0619,-41.8824"/>
<polygon fill="#0000ff" stroke="#0000ff" points="1455.8703,-44.0087 1460.2348,-34.3546 1450.8025,-39.1798 1455.8703,-44.0087"/>
<text text-anchor="middle" x="1450.6442" y="-57.8" font-family="Times,serif" font-size="14.00" fill="#000000">title</text>
</g>
<!-- source data file -->
<g id="node16" class="node">
<title>source data file</title>
<ellipse fill="none" stroke="#0000ff" cx="1561.6442" cy="-18" rx="39.7935" ry="18"/>
<text text-anchor="middle" x="1561.6442" y="-14.3" font-family="Times,serif" font-size="14.00" fill="#000000">data file</text>
</g>
<!-- data set summary&#45;&gt;source data file -->
<g id="edge15" class="edge">
<title>data set summary&#45;&gt;source data file</title>
<path fill="none" stroke="#0000ff" d="M1101.7284,-102.5501C1207.927,-98.3834 1399.4438,-88.4141 1465.6442,-69 1488.6225,-62.2613 1512.4059,-49.6741 1530.5517,-38.6912"/>
<polygon fill="#0000ff" stroke="#0000ff" points="1532.8474,-41.3853 1539.4927,-33.1336 1529.152,-35.4402 1532.8474,-41.3853"/>
<text text-anchor="middle" x="1543.6442" y="-57.8" font-family="Times,serif" font-size="14.00" fill="#000000">source data file</text>
</g>
<!-- versionOf -->
<g id="node17" class="node">
<title>versionOf</title>
<ellipse fill="none" stroke="#0000ff" cx="1656.6442" cy="-18" rx="37.8943" ry="18"/>
<text text-anchor="middle" x="1656.6442" y="-14.3" font-family="Times,serif" font-size="14.00" fill="#000000">data set</text>
</g>
<!-- data set summary&#45;&gt;versionOf -->
<g id="edge16" class="edge">
<title>data set summary&#45;&gt;versionOf</title>
<path fill="none" stroke="#0000ff" d="M1101.7019,-102.6675C1243.2891,-97.8034 1545.1004,-85.632 1589.6442,-69 1605.6672,-63.0172 1621.039,-51.8503 1633.008,-41.4876"/>
<polygon fill="#0000ff" stroke="#0000ff" points="1635.6479,-43.8191 1640.7167,-34.5154 1630.9524,-38.6275 1635.6479,-43.8191"/>
<text text-anchor="middle" x="1644.1442" y="-57.8" font-family="Times,serif" font-size="14.00" fill="#000000">versionOf</text>
</g>
<!-- type -->
<g id="node18" class="node">
<title>type</title>
<ellipse fill="none" stroke="#0000ff" cx="1742.6442" cy="-18" rx="30.5947" ry="18"/>
<text text-anchor="middle" x="1742.6442" y="-14.3" font-family="Times,serif" font-size="14.00" fill="#000000">string</text>
</g>
<!-- data set summary&#45;&gt;type -->
<g id="edge17" class="edge">
<title>data set summary&#45;&gt;type</title>
<path fill="none" stroke="#0000ff" d="M1101.8826,-103.3414C1259.9351,-99.4139 1623.0295,-88.3912 1675.6442,-69 1692.1844,-62.9041 1708.0082,-51.2352 1720.1207,-40.5961"/>
<polygon fill="#0000ff" stroke="#0000ff" points="1722.5053,-43.1582 1727.5146,-33.8224 1717.7767,-37.9968 1722.5053,-43.1582"/>
<text text-anchor="middle" x="1714.6442" y="-57.8" font-family="Times,serif" font-size="14.00" fill="#000000">type</text>
</g>
<!-- distribution -->
<g id="node19" class="node">
<title>distribution</title>
<ellipse fill="none" stroke="#0000ff" cx="1861.6442" cy="-18" rx="70.6878" ry="18"/>
<text text-anchor="middle" x="1861.6442" y="-14.3" font-family="Times,serif" font-size="14.00" fill="#000000">distribution level</text>
</g>
<!-- data set summary&#45;&gt;distribution -->
<g id="edge18" class="edge">
<title>data set summary&#45;&gt;distribution</title>
<path fill="none" stroke="#0000ff" d="M1102.2275,-104.1946C1257.1766,-102.0142 1612.5151,-94.3325 1730.6442,-69 1761.5378,-62.3749 1794.687,-49.4078 1819.9098,-38.2074"/>
<polygon fill="#0000ff" stroke="#0000ff" points="1821.4998,-41.3297 1829.1674,-34.0182 1818.6138,-34.9523 1821.4998,-41.3297"/>
<text text-anchor="middle" x="1811.1442" y="-57.8" font-family="Times,serif" font-size="14.00" fill="#000000">distribution</text>
</g>
<!-- source web page -->
<g id="node20" class="node">
<title>source web page</title>
<ellipse fill="none" stroke="#0000ff" cx="1980.6442" cy="-18" rx="30.5947" ry="18"/>
<text text-anchor="middle" x="1980.6442" y="-14.3" font-family="Times,serif" font-size="14.00" fill="#000000">string</text>
</g>
<!-- data set summary&#45;&gt;source web page -->
<g id="edge19" class="edge">
<title>data set summary&#45;&gt;source web page</title>
<path fill="none" stroke="#0000ff" d="M1102.3675,-104.4862C1275.7324,-102.8368 1705.2831,-96.0627 1846.6442,-69 1882.5711,-62.122 1921.4066,-46.3351 1947.9729,-34.1337"/>
<polygon fill="#0000ff" stroke="#0000ff" points="1949.6051,-37.2342 1957.1773,-29.8239 1946.6367,-30.8948 1949.6051,-37.2342"/>
<text text-anchor="middle" x="1944.1442" y="-57.8" font-family="Times,serif" font-size="14.00" fill="#000000">source web page</text>
</g>
</g>
</svg>
