<?xml version="1.0" encoding="UTF-8" standalone="no"?>
<!DOCTYPE svg PUBLIC "-//W3C//DTD SVG 1.1//EN"
 "http://www.w3.org/Graphics/SVG/1.1/DTD/svg11.dtd">
<!-- Generated by graphviz version 2.43.0 (0)
 -->
<!-- Title: %3 Pages: 1 -->
<svg width="1707pt" height="131pt"
 viewBox="0.00 0.00 1707.44 131.00" xmlns="http://www.w3.org/2000/svg" xmlns:xlink="http://www.w3.org/1999/xlink">
<g id="graph0" class="graph" transform="scale(1 1) rotate(0) translate(4 127)">
<title>%3</title>
<polygon fill="white" stroke="transparent" points="-4,4 -4,-127 1703.44,-127 1703.44,4 -4,4"/>
<!-- dataset -->
<g id="node1" class="node">
<title>dataset</title>
<ellipse fill="none" stroke="black" cx="985.24" cy="-105" rx="45.49" ry="18"/>
<text text-anchor="middle" x="985.24" y="-101.3" font-family="Times,serif" font-size="14.00">dataset</text>
</g>
<!-- information content entity -->
<g id="node2" class="node">
<title>information content entity</title>
<ellipse fill="none" stroke="black" cx="133.24" cy="-18" rx="133.48" ry="18"/>
<text text-anchor="middle" x="133.24" y="-14.3" font-family="Times,serif" font-size="14.00">information content entity</text>
</g>
<!-- dataset&#45;&gt;information content entity -->
<g id="edge1" class="edge">
<title>dataset&#45;&gt;information content entity</title>
<path fill="none" stroke="black" d="M939.89,-103.07C842.44,-100.67 605.93,-92.71 409.24,-69 341.76,-60.87 265.83,-46.74 210.71,-35.57"/>
<polygon fill="black" stroke="black" points="211.17,-32.1 200.67,-33.53 209.77,-38.95 211.17,-32.1"/>
<text text-anchor="middle" x="423.24" y="-57.8" font-family="Times,serif" font-size="14.00">is_a</text>
</g>
<!-- id -->
<g id="node3" class="node">
<title>id</title>
<ellipse fill="none" stroke="blue" cx="323.24" cy="-18" rx="38.19" ry="18"/>
<text text-anchor="middle" x="323.24" y="-14.3" font-family="Times,serif" font-size="14.00">string</text>
</g>
<!-- dataset&#45;&gt;id -->
<g id="edge2" class="edge">
<title>dataset&#45;&gt;id</title>
<path fill="none" stroke="blue" d="M940.07,-102.56C857.52,-99.48 676.93,-90.69 526.24,-69 456.52,-58.97 439.02,-55.13 371.24,-36 368.13,-35.12 364.94,-34.15 361.74,-33.13"/>
<polygon fill="blue" stroke="blue" points="362.83,-29.8 352.23,-29.95 360.61,-36.44 362.83,-29.8"/>
<text text-anchor="middle" x="533.24" y="-57.8" font-family="Times,serif" font-size="14.00">id</text>
</g>
<!-- iri -->
<g id="node4" class="node">
<title>iri</title>
<ellipse fill="none" stroke="blue" cx="424.24" cy="-18" rx="44.39" ry="18"/>
<text text-anchor="middle" x="424.24" y="-14.3" font-family="Times,serif" font-size="14.00">iri type</text>
</g>
<!-- dataset&#45;&gt;iri -->
<g id="edge3" class="edge">
<title>dataset&#45;&gt;iri</title>
<path fill="none" stroke="blue" d="M940.34,-101.98C869.84,-98.31 729.06,-89.01 611.24,-69 561.06,-60.48 504.79,-44.54 467.21,-32.94"/>
<polygon fill="blue" stroke="blue" points="468.19,-29.58 457.6,-29.94 466.11,-36.26 468.19,-29.58"/>
<text text-anchor="middle" x="619.24" y="-57.8" font-family="Times,serif" font-size="14.00">iri</text>
</g>
<!-- type -->
<g id="node5" class="node">
<title>type</title>
<ellipse fill="none" stroke="blue" cx="525.24" cy="-18" rx="38.19" ry="18"/>
<text text-anchor="middle" x="525.24" y="-14.3" font-family="Times,serif" font-size="14.00">string</text>
</g>
<!-- dataset&#45;&gt;type -->
<g id="edge4" class="edge">
<title>dataset&#45;&gt;type</title>
<path fill="none" stroke="blue" d="M941.05,-100.69C883.76,-95.93 780.9,-85.84 694.24,-69 639.1,-58.28 625.81,-52.9 572.24,-36 569.48,-35.13 566.65,-34.2 563.81,-33.24"/>
<polygon fill="blue" stroke="blue" points="564.79,-29.87 554.19,-29.9 562.49,-36.49 564.79,-29.87"/>
<text text-anchor="middle" x="710.24" y="-57.8" font-family="Times,serif" font-size="14.00">type</text>
</g>
<!-- name -->
<g id="node6" class="node">
<title>name</title>
<ellipse fill="none" stroke="blue" cx="638.24" cy="-18" rx="56.59" ry="18"/>
<text text-anchor="middle" x="638.24" y="-14.3" font-family="Times,serif" font-size="14.00">label type</text>
</g>
<!-- dataset&#45;&gt;name -->
<g id="edge5" class="edge">
<title>dataset&#45;&gt;name</title>
<path fill="none" stroke="blue" d="M941.93,-99.08C899.32,-93.7 832.64,-83.81 776.24,-69 743.42,-60.38 707.41,-47.2 680.4,-36.54"/>
<polygon fill="blue" stroke="blue" points="681.47,-33.2 670.89,-32.74 678.87,-39.7 681.47,-33.2"/>
<text text-anchor="middle" x="796.24" y="-57.8" font-family="Times,serif" font-size="14.00">name</text>
</g>
<!-- description -->
<g id="node7" class="node">
<title>description</title>
<ellipse fill="none" stroke="blue" cx="788.24" cy="-18" rx="75.29" ry="18"/>
<text text-anchor="middle" x="788.24" y="-14.3" font-family="Times,serif" font-size="14.00">narrative text</text>
</g>
<!-- dataset&#45;&gt;description -->
<g id="edge6" class="edge">
<title>dataset&#45;&gt;description</title>
<path fill="none" stroke="blue" d="M941.84,-99.59C911.84,-95.13 871.81,-86.3 840.24,-69 828.4,-62.51 817.31,-52.62 808.44,-43.34"/>
<polygon fill="blue" stroke="blue" points="810.86,-40.81 801.54,-35.78 805.69,-45.53 810.86,-40.81"/>
<text text-anchor="middle" x="880.74" y="-57.8" font-family="Times,serif" font-size="14.00">description</text>
</g>
<!-- has attribute -->
<g id="node8" class="node">
<title>has attribute</title>
<ellipse fill="none" stroke="blue" cx="933.24" cy="-18" rx="51.99" ry="18"/>
<text text-anchor="middle" x="933.24" y="-14.3" font-family="Times,serif" font-size="14.00">attribute</text>
</g>
<!-- dataset&#45;&gt;has attribute -->
<g id="edge7" class="edge">
<title>dataset&#45;&gt;has attribute</title>
<path fill="none" stroke="blue" d="M953.55,-91.98C943.65,-86.54 933.85,-79.03 928.24,-69 924.39,-62.12 923.88,-53.86 924.83,-46.06"/>
<polygon fill="blue" stroke="blue" points="928.27,-46.71 926.77,-36.22 921.41,-45.36 928.27,-46.71"/>
<text text-anchor="middle" x="975.24" y="-57.8" font-family="Times,serif" font-size="14.00">has attribute</text>
</g>
<!-- provided by -->
<g id="node9" class="node">
<title>provided by</title>
<ellipse fill="none" stroke="blue" cx="1041.24" cy="-18" rx="38.19" ry="18"/>
<text text-anchor="middle" x="1041.24" y="-14.3" font-family="Times,serif" font-size="14.00">string</text>
</g>
<!-- dataset&#45;&gt;provided by -->
<g id="edge8" class="edge">
<title>dataset&#45;&gt;provided by</title>
<path fill="none" stroke="blue" d="M1004.63,-88.7C1010.88,-83.03 1017.43,-76.21 1022.24,-69 1026.95,-61.94 1030.72,-53.54 1033.62,-45.67"/>
<polygon fill="blue" stroke="blue" points="1036.96,-46.71 1036.83,-36.12 1030.32,-44.48 1036.96,-46.71"/>
<text text-anchor="middle" x="1072.74" y="-57.8" font-family="Times,serif" font-size="14.00">provided by</text>
</g>
<!-- xref -->
<g id="node10" class="node">
<title>xref</title>
<ellipse fill="none" stroke="blue" cx="1155.24" cy="-18" rx="57.39" ry="18"/>
<text text-anchor="middle" x="1155.24" y="-14.3" font-family="Times,serif" font-size="14.00">uriorcurie</text>
</g>
<!-- dataset&#45;&gt;xref -->
<g id="edge9" class="edge">
<title>dataset&#45;&gt;xref</title>
<path fill="none" stroke="blue" d="M1019.1,-92.86C1025.75,-90.81 1032.69,-88.76 1039.24,-87 1074.43,-77.52 1088.83,-89.1 1119.24,-69 1128.47,-62.9 1136.13,-53.55 1141.97,-44.59"/>
<polygon fill="blue" stroke="blue" points="1145.04,-46.26 1147.19,-35.89 1139.04,-42.66 1145.04,-46.26"/>
<text text-anchor="middle" x="1149.74" y="-57.8" font-family="Times,serif" font-size="14.00">xref</text>
</g>
<!-- category -->
<g id="node11" class="node">
<title>category</title>
<ellipse fill="none" stroke="black" cx="1282.24" cy="-18" rx="51.19" ry="18"/>
<text text-anchor="middle" x="1282.24" y="-14.3" font-family="Times,serif" font-size="14.00">category</text>
</g>
<!-- dataset&#45;&gt;category -->
<g id="edge10" class="edge">
<title>dataset&#45;&gt;category</title>
<path fill="none" stroke="blue" d="M1018.42,-92.6C1025.25,-90.53 1032.43,-88.54 1039.24,-87 1095.71,-74.26 1112.54,-84.77 1168.24,-69 1195.05,-61.41 1223.76,-48.78 1245.67,-38.12"/>
<polygon fill="blue" stroke="blue" points="1247.51,-41.11 1254.92,-33.53 1244.41,-34.84 1247.51,-41.11"/>
<text text-anchor="middle" x="1241.74" y="-57.8" font-family="Times,serif" font-size="14.00">category</text>
</g>
<!-- license -->
<g id="node13" class="node">
<title>license</title>
<ellipse fill="none" stroke="blue" cx="1390.24" cy="-18" rx="38.19" ry="18"/>
<text text-anchor="middle" x="1390.24" y="-14.3" font-family="Times,serif" font-size="14.00">string</text>
</g>
<!-- dataset&#45;&gt;license -->
<g id="edge11" class="edge">
<title>dataset&#45;&gt;license</title>
<path fill="none" stroke="blue" d="M1018.06,-92.35C1024.98,-90.27 1032.29,-88.34 1039.24,-87 1143.4,-66.94 1174.35,-94.84 1277.24,-69 1305.46,-61.91 1335.49,-48.3 1357.5,-37.07"/>
<polygon fill="blue" stroke="blue" points="1359.16,-40.15 1366.41,-32.43 1355.92,-33.94 1359.16,-40.15"/>
<text text-anchor="middle" x="1344.24" y="-57.8" font-family="Times,serif" font-size="14.00">license</text>
</g>
<!-- rights -->
<g id="node14" class="node">
<title>rights</title>
<ellipse fill="none" stroke="blue" cx="1485.24" cy="-18" rx="38.19" ry="18"/>
<text text-anchor="middle" x="1485.24" y="-14.3" font-family="Times,serif" font-size="14.00">string</text>
</g>
<!-- dataset&#45;&gt;rights -->
<g id="edge12" class="edge">
<title>dataset&#45;&gt;rights</title>
<path fill="none" stroke="blue" d="M1017.75,-92.32C1024.75,-90.21 1032.18,-88.28 1039.24,-87 1185.51,-60.47 1228.73,-103.88 1373.24,-69 1401.37,-62.21 1431.19,-48.54 1452.99,-37.21"/>
<polygon fill="blue" stroke="blue" points="1454.92,-40.14 1462.1,-32.36 1451.63,-33.96 1454.92,-40.14"/>
<text text-anchor="middle" x="1436.74" y="-57.8" font-family="Times,serif" font-size="14.00">rights</text>
</g>
<!-- format -->
<g id="node15" class="node">
<title>format</title>
<ellipse fill="none" stroke="blue" cx="1580.24" cy="-18" rx="38.19" ry="18"/>
<text text-anchor="middle" x="1580.24" y="-14.3" font-family="Times,serif" font-size="14.00">string</text>
</g>
<!-- dataset&#45;&gt;format -->
<g id="edge13" class="edge">
<title>dataset&#45;&gt;format</title>
<path fill="none" stroke="blue" d="M1017.74,-92.26C1024.74,-90.16 1032.17,-88.24 1039.24,-87 1224.57,-54.47 1278.67,-110.37 1462.24,-69 1492.19,-62.25 1524.13,-48.25 1547.22,-36.78"/>
<polygon fill="blue" stroke="blue" points="1548.9,-39.85 1556.23,-32.2 1545.73,-33.61 1548.9,-39.85"/>
<text text-anchor="middle" x="1530.74" y="-57.8" font-family="Times,serif" font-size="14.00">format</text>
</g>
<!-- creation date -->
<g id="node16" class="node">
<title>creation date</title>
<ellipse fill="none" stroke="blue" cx="1668.24" cy="-18" rx="31.4" ry="18"/>
<text text-anchor="middle" x="1668.24" y="-14.3" font-family="Times,serif" font-size="14.00">date</text>
</g>
<!-- dataset&#45;&gt;creation date -->
<g id="edge14" class="edge">
<title>dataset&#45;&gt;creation date</title>
<path fill="none" stroke="blue" d="M1017.73,-92.22C1024.74,-90.12 1032.17,-88.21 1039.24,-87 1153.2,-67.46 1446.72,-95.62 1559.24,-69 1587.48,-62.32 1617.27,-48.09 1638.57,-36.52"/>
<polygon fill="blue" stroke="blue" points="1640.39,-39.51 1647.43,-31.58 1636.99,-33.39 1640.39,-39.51"/>
<text text-anchor="middle" x="1649.74" y="-57.8" font-family="Times,serif" font-size="14.00">creation date</text>
</g>
<!-- named thing_category -->
<g id="node12" class="node">
<title>named thing_category</title>
<ellipse fill="none" stroke="blue" cx="1123.24" cy="-105" rx="74.99" ry="18"/>
<text text-anchor="middle" x="1123.24" y="-101.3" font-family="Times,serif" font-size="14.00">category type</text>
</g>
</g>
</svg>
