<?xml version="1.0" encoding="UTF-8" standalone="no"?>
<!DOCTYPE svg PUBLIC "-//W3C//DTD SVG 1.1//EN"
 "http://www.w3.org/Graphics/SVG/1.1/DTD/svg11.dtd">
<!-- Generated by graphviz version 2.43.0 (0)
 -->
<!-- Title: %3 Pages: 1 -->
<svg width="1922pt" height="131pt"
 viewBox="0.00 0.00 1922.24 131.00" xmlns="http://www.w3.org/2000/svg" xmlns:xlink="http://www.w3.org/1999/xlink">
<g id="graph0" class="graph" transform="scale(1 1) rotate(0) translate(4 127)">
<title>%3</title>
<polygon fill="white" stroke="transparent" points="-4,4 -4,-127 1918.24,-127 1918.24,4 -4,4"/>
<!-- dataset distribution -->
<g id="node1" class="node">
<title>dataset distribution</title>
<ellipse fill="none" stroke="black" cx="1047.24" cy="-105" rx="102.88" ry="18"/>
<text text-anchor="middle" x="1047.24" y="-101.3" font-family="Times,serif" font-size="14.00">dataset distribution</text>
</g>
<!-- information content entity -->
<g id="node2" class="node">
<title>information content entity</title>
<ellipse fill="none" stroke="black" cx="133.24" cy="-18" rx="133.48" ry="18"/>
<text text-anchor="middle" x="133.24" y="-14.3" font-family="Times,serif" font-size="14.00">information content entity</text>
</g>
<!-- dataset distribution&#45;&gt;information content entity -->
<g id="edge1" class="edge">
<title>dataset distribution&#45;&gt;information content entity</title>
<path fill="none" stroke="black" d="M945.52,-102.32C819.33,-99.33 597.77,-91.16 409.24,-69 341.63,-61.05 265.55,-46.87 210.42,-35.64"/>
<polygon fill="black" stroke="black" points="210.88,-32.16 200.38,-33.58 209.47,-39.02 210.88,-32.16"/>
<text text-anchor="middle" x="423.24" y="-57.8" font-family="Times,serif" font-size="14.00">is_a</text>
</g>
<!-- id -->
<g id="node3" class="node">
<title>id</title>
<ellipse fill="none" stroke="blue" cx="323.24" cy="-18" rx="38.19" ry="18"/>
<text text-anchor="middle" x="323.24" y="-14.3" font-family="Times,serif" font-size="14.00">string</text>
</g>
<!-- dataset distribution&#45;&gt;id -->
<g id="edge2" class="edge">
<title>dataset distribution&#45;&gt;id</title>
<path fill="none" stroke="blue" d="M946.35,-101.37C841.46,-97.66 672.72,-88.96 528.24,-69 457.61,-59.24 439.89,-55.28 371.24,-36 368.13,-35.13 364.94,-34.16 361.74,-33.14"/>
<polygon fill="blue" stroke="blue" points="362.82,-29.81 352.23,-29.97 360.61,-36.45 362.82,-29.81"/>
<text text-anchor="middle" x="535.24" y="-57.8" font-family="Times,serif" font-size="14.00">id</text>
</g>
<!-- iri -->
<g id="node4" class="node">
<title>iri</title>
<ellipse fill="none" stroke="blue" cx="424.24" cy="-18" rx="44.39" ry="18"/>
<text text-anchor="middle" x="424.24" y="-14.3" font-family="Times,serif" font-size="14.00">iri type</text>
</g>
<!-- dataset distribution&#45;&gt;iri -->
<g id="edge3" class="edge">
<title>dataset distribution&#45;&gt;iri</title>
<path fill="none" stroke="blue" d="M947.82,-100.41C859.71,-96.18 727.79,-87.25 614.24,-69 563.07,-60.78 505.72,-44.7 467.55,-33"/>
<polygon fill="blue" stroke="blue" points="468.38,-29.59 457.79,-29.97 466.3,-36.27 468.38,-29.59"/>
<text text-anchor="middle" x="622.24" y="-57.8" font-family="Times,serif" font-size="14.00">iri</text>
</g>
<!-- type -->
<g id="node5" class="node">
<title>type</title>
<ellipse fill="none" stroke="blue" cx="525.24" cy="-18" rx="38.19" ry="18"/>
<text text-anchor="middle" x="525.24" y="-14.3" font-family="Times,serif" font-size="14.00">string</text>
</g>
<!-- dataset distribution&#45;&gt;type -->
<g id="edge4" class="edge">
<title>dataset distribution&#45;&gt;type</title>
<path fill="none" stroke="blue" d="M951.7,-98.28C881.7,-93.14 784.58,-84.04 700.24,-69 642.4,-58.69 628.37,-53.34 572.24,-36 569.48,-35.15 566.64,-34.23 563.8,-33.28"/>
<polygon fill="blue" stroke="blue" points="564.77,-29.91 554.18,-29.95 562.48,-36.53 564.77,-29.91"/>
<text text-anchor="middle" x="716.24" y="-57.8" font-family="Times,serif" font-size="14.00">type</text>
</g>
<!-- name -->
<g id="node6" class="node">
<title>name</title>
<ellipse fill="none" stroke="blue" cx="638.24" cy="-18" rx="56.59" ry="18"/>
<text text-anchor="middle" x="638.24" y="-14.3" font-family="Times,serif" font-size="14.00">label type</text>
</g>
<!-- dataset distribution&#45;&gt;name -->
<g id="edge5" class="edge">
<title>dataset distribution&#45;&gt;name</title>
<path fill="none" stroke="blue" d="M956.67,-96.41C905.58,-91.02 840.85,-82.32 784.24,-69 748.74,-60.65 709.72,-47.04 680.95,-36.13"/>
<polygon fill="blue" stroke="blue" points="682.2,-32.86 671.61,-32.54 679.69,-39.4 682.2,-32.86"/>
<text text-anchor="middle" x="804.24" y="-57.8" font-family="Times,serif" font-size="14.00">name</text>
</g>
<!-- description -->
<g id="node7" class="node">
<title>description</title>
<ellipse fill="none" stroke="blue" cx="788.24" cy="-18" rx="75.29" ry="18"/>
<text text-anchor="middle" x="788.24" y="-14.3" font-family="Times,serif" font-size="14.00">narrative text</text>
</g>
<!-- dataset distribution&#45;&gt;description -->
<g id="edge6" class="edge">
<title>dataset distribution&#45;&gt;description</title>
<path fill="none" stroke="blue" d="M955.74,-96.59C922.44,-91.57 885.15,-83.14 853.24,-69 838.68,-62.55 824.43,-52.19 813.01,-42.57"/>
<polygon fill="blue" stroke="blue" points="815.05,-39.71 805.22,-35.76 810.45,-44.98 815.05,-39.71"/>
<text text-anchor="middle" x="893.74" y="-57.8" font-family="Times,serif" font-size="14.00">description</text>
</g>
<!-- has attribute -->
<g id="node8" class="node">
<title>has attribute</title>
<ellipse fill="none" stroke="blue" cx="933.24" cy="-18" rx="51.99" ry="18"/>
<text text-anchor="middle" x="933.24" y="-14.3" font-family="Times,serif" font-size="14.00">attribute</text>
</g>
<!-- dataset distribution&#45;&gt;has attribute -->
<g id="edge7" class="edge">
<title>dataset distribution&#45;&gt;has attribute</title>
<path fill="none" stroke="blue" d="M980.55,-91.27C967.76,-86.17 955.49,-79.02 946.24,-69 940.5,-62.79 937.23,-54.38 935.38,-46.23"/>
<polygon fill="blue" stroke="blue" points="938.81,-45.52 933.72,-36.23 931.91,-46.67 938.81,-45.52"/>
<text text-anchor="middle" x="993.24" y="-57.8" font-family="Times,serif" font-size="14.00">has attribute</text>
</g>
<!-- provided by -->
<g id="node9" class="node">
<title>provided by</title>
<ellipse fill="none" stroke="blue" cx="1041.24" cy="-18" rx="38.19" ry="18"/>
<text text-anchor="middle" x="1041.24" y="-14.3" font-family="Times,serif" font-size="14.00">string</text>
</g>
<!-- dataset distribution&#45;&gt;provided by -->
<g id="edge8" class="edge">
<title>dataset distribution&#45;&gt;provided by</title>
<path fill="none" stroke="blue" d="M1046.02,-86.8C1045.2,-75.16 1044.1,-59.55 1043.16,-46.24"/>
<polygon fill="blue" stroke="blue" points="1046.65,-45.9 1042.45,-36.18 1039.66,-46.4 1046.65,-45.9"/>
<text text-anchor="middle" x="1087.74" y="-57.8" font-family="Times,serif" font-size="14.00">provided by</text>
</g>
<!-- xref -->
<g id="node10" class="node">
<title>xref</title>
<ellipse fill="none" stroke="blue" cx="1155.24" cy="-18" rx="57.39" ry="18"/>
<text text-anchor="middle" x="1155.24" y="-14.3" font-family="Times,serif" font-size="14.00">uriorcurie</text>
</g>
<!-- dataset distribution&#45;&gt;xref -->
<g id="edge9" class="edge">
<title>dataset distribution&#45;&gt;xref</title>
<path fill="none" stroke="blue" d="M1101.08,-89.48C1112.72,-84.44 1124.22,-77.77 1133.24,-69 1139.79,-62.63 1144.52,-53.98 1147.88,-45.66"/>
<polygon fill="blue" stroke="blue" points="1151.19,-46.8 1151.22,-36.21 1144.59,-44.47 1151.19,-46.8"/>
<text text-anchor="middle" x="1158.74" y="-57.8" font-family="Times,serif" font-size="14.00">xref</text>
</g>
<!-- category -->
<g id="node11" class="node">
<title>category</title>
<ellipse fill="none" stroke="black" cx="1282.24" cy="-18" rx="51.19" ry="18"/>
<text text-anchor="middle" x="1282.24" y="-14.3" font-family="Times,serif" font-size="14.00">category</text>
</g>
<!-- dataset distribution&#45;&gt;category -->
<g id="edge10" class="edge">
<title>dataset distribution&#45;&gt;category</title>
<path fill="none" stroke="blue" d="M1107.16,-90.29C1129.45,-84.56 1154.76,-77.3 1177.24,-69 1200.78,-60.31 1226.22,-48.27 1246.16,-38.18"/>
<polygon fill="blue" stroke="blue" points="1247.89,-41.23 1255.19,-33.55 1244.7,-35 1247.89,-41.23"/>
<text text-anchor="middle" x="1244.74" y="-57.8" font-family="Times,serif" font-size="14.00">category</text>
</g>
<!-- license -->
<g id="node13" class="node">
<title>license</title>
<ellipse fill="none" stroke="blue" cx="1390.24" cy="-18" rx="38.19" ry="18"/>
<text text-anchor="middle" x="1390.24" y="-14.3" font-family="Times,serif" font-size="14.00">string</text>
</g>
<!-- dataset distribution&#45;&gt;license -->
<g id="edge11" class="edge">
<title>dataset distribution&#45;&gt;license</title>
<path fill="none" stroke="blue" d="M1121.57,-92.56C1133.82,-90.69 1146.38,-88.78 1158.24,-87 1212.44,-78.85 1227.66,-84.49 1280.24,-69 1307.06,-61.1 1335.77,-47.87 1357.13,-37.01"/>
<polygon fill="blue" stroke="blue" points="1358.83,-40.07 1366.1,-32.36 1355.61,-33.85 1358.83,-40.07"/>
<text text-anchor="middle" x="1346.24" y="-57.8" font-family="Times,serif" font-size="14.00">license</text>
</g>
<!-- rights -->
<g id="node14" class="node">
<title>rights</title>
<ellipse fill="none" stroke="blue" cx="1485.24" cy="-18" rx="38.19" ry="18"/>
<text text-anchor="middle" x="1485.24" y="-14.3" font-family="Times,serif" font-size="14.00">string</text>
</g>
<!-- dataset distribution&#45;&gt;rights -->
<g id="edge12" class="edge">
<title>dataset distribution&#45;&gt;rights</title>
<path fill="none" stroke="blue" d="M1119.69,-92.17C1132.51,-90.28 1145.75,-88.47 1158.24,-87 1254.35,-75.67 1281.58,-93.38 1375.24,-69 1402.65,-61.86 1431.74,-48.35 1453.12,-37.16"/>
<polygon fill="blue" stroke="blue" points="1454.9,-40.18 1462.08,-32.38 1451.61,-34.01 1454.9,-40.18"/>
<text text-anchor="middle" x="1437.74" y="-57.8" font-family="Times,serif" font-size="14.00">rights</text>
</g>
<!-- format -->
<g id="node15" class="node">
<title>format</title>
<ellipse fill="none" stroke="blue" cx="1580.24" cy="-18" rx="38.19" ry="18"/>
<text text-anchor="middle" x="1580.24" y="-14.3" font-family="Times,serif" font-size="14.00">string</text>
</g>
<!-- dataset distribution&#45;&gt;format -->
<g id="edge13" class="edge">
<title>dataset distribution&#45;&gt;format</title>
<path fill="none" stroke="blue" d="M1118.76,-92.05C1131.87,-90.14 1145.44,-88.35 1158.24,-87 1293.28,-72.71 1331.07,-100.14 1463.24,-69 1492.72,-62.05 1524.18,-48.21 1547.05,-36.84"/>
<polygon fill="blue" stroke="blue" points="1548.65,-39.95 1555.98,-32.31 1545.48,-33.71 1548.65,-39.95"/>
<text text-anchor="middle" x="1531.74" y="-57.8" font-family="Times,serif" font-size="14.00">format</text>
</g>
<!-- creation date -->
<g id="node16" class="node">
<title>creation date</title>
<ellipse fill="none" stroke="blue" cx="1668.24" cy="-18" rx="31.4" ry="18"/>
<text text-anchor="middle" x="1668.24" y="-14.3" font-family="Times,serif" font-size="14.00">date</text>
</g>
<!-- dataset distribution&#45;&gt;creation date -->
<g id="edge14" class="edge">
<title>dataset distribution&#45;&gt;creation date</title>
<path fill="none" stroke="blue" d="M1118.45,-91.94C1131.65,-90.03 1145.34,-88.27 1158.24,-87 1247.23,-78.22 1473.36,-90.18 1560.24,-69 1588.22,-62.18 1617.74,-47.96 1638.84,-36.43"/>
<polygon fill="blue" stroke="blue" points="1640.6,-39.45 1647.62,-31.52 1637.18,-33.35 1640.6,-39.45"/>
<text text-anchor="middle" x="1648.74" y="-57.8" font-family="Times,serif" font-size="14.00">creation date</text>
</g>
<!-- distribution download url -->
<g id="node17" class="node">
<title>distribution download url</title>
<ellipse fill="none" stroke="blue" cx="1778.24" cy="-18" rx="38.19" ry="18"/>
<text text-anchor="middle" x="1778.24" y="-14.3" font-family="Times,serif" font-size="14.00">string</text>
</g>
<!-- dataset distribution&#45;&gt;distribution download url -->
<g id="edge15" class="edge">
<title>dataset distribution&#45;&gt;distribution download url</title>
<path fill="none" stroke="blue" d="M1117.84,-91.9C1131.22,-89.97 1145.14,-88.22 1158.24,-87 1218.24,-81.43 1642.7,-86.9 1700.24,-69 1719.37,-63.05 1738.35,-51.05 1752.79,-40.3"/>
<polygon fill="blue" stroke="blue" points="1754.96,-43.05 1760.74,-34.17 1750.69,-37.51 1754.96,-43.05"/>
<text text-anchor="middle" x="1823.24" y="-57.8" font-family="Times,serif" font-size="14.00">distribution download url</text>
</g>
<!-- named thing_category -->
<g id="node12" class="node">
<title>named thing_category</title>
<ellipse fill="none" stroke="blue" cx="1242.24" cy="-105" rx="74.99" ry="18"/>
<text text-anchor="middle" x="1242.24" y="-101.3" font-family="Times,serif" font-size="14.00">category type</text>
</g>
</g>
</svg>
