<?xml version="1.0" encoding="UTF-8" standalone="no"?>
<!DOCTYPE svg PUBLIC "-//W3C//DTD SVG 1.1//EN"
 "http://www.w3.org/Graphics/SVG/1.1/DTD/svg11.dtd">
<!-- Generated by graphviz version 2.43.0 (0)
 -->
<!-- Title: %3 Pages: 1 -->
<svg width="2401pt" height="131pt"
 viewBox="0.00 0.00 2400.93 131.00" xmlns="http://www.w3.org/2000/svg" xmlns:xlink="http://www.w3.org/1999/xlink">
<g id="graph0" class="graph" transform="scale(1 1) rotate(0) translate(4 127)">
<title>%3</title>
<polygon fill="white" stroke="transparent" points="-4,4 -4,-127 2396.93,-127 2396.93,4 -4,4"/>
<!-- dataset version -->
<g id="node1" class="node">
<title>dataset version</title>
<ellipse fill="none" stroke="black" cx="1287.24" cy="-105" rx="82.59" ry="18"/>
<text text-anchor="middle" x="1287.24" y="-101.3" font-family="Times,serif" font-size="14.00">dataset version</text>
</g>
<!-- information content entity -->
<g id="node2" class="node">
<title>information content entity</title>
<ellipse fill="none" stroke="black" cx="133.24" cy="-18" rx="133.48" ry="18"/>
<text text-anchor="middle" x="133.24" y="-14.3" font-family="Times,serif" font-size="14.00">information content entity</text>
</g>
<!-- dataset version&#45;&gt;information content entity -->
<g id="edge1" class="edge">
<title>dataset version&#45;&gt;information content entity</title>
<path fill="none" stroke="black" d="M1204.64,-104.53C1048.69,-104.7 700.38,-101.02 409.24,-69 341.23,-61.52 264.73,-47.19 209.55,-35.78"/>
<polygon fill="black" stroke="black" points="210.01,-32.3 199.5,-33.69 208.58,-39.15 210.01,-32.3"/>
<text text-anchor="middle" x="423.24" y="-57.8" font-family="Times,serif" font-size="14.00">is_a</text>
</g>
<!-- id -->
<g id="node3" class="node">
<title>id</title>
<ellipse fill="none" stroke="blue" cx="323.24" cy="-18" rx="38.19" ry="18"/>
<text text-anchor="middle" x="323.24" y="-14.3" font-family="Times,serif" font-size="14.00">string</text>
</g>
<!-- dataset version&#45;&gt;id -->
<g id="edge2" class="edge">
<title>dataset version&#45;&gt;id</title>
<path fill="none" stroke="blue" d="M1204.59,-104.53C1064.75,-104.46 772.77,-100.13 528.24,-69 457.51,-60 439.89,-55.28 371.24,-36 368.13,-35.13 364.94,-34.16 361.74,-33.14"/>
<polygon fill="blue" stroke="blue" points="362.82,-29.81 352.23,-29.97 360.61,-36.45 362.82,-29.81"/>
<text text-anchor="middle" x="535.24" y="-57.8" font-family="Times,serif" font-size="14.00">id</text>
</g>
<!-- iri -->
<g id="node4" class="node">
<title>iri</title>
<ellipse fill="none" stroke="blue" cx="424.24" cy="-18" rx="44.39" ry="18"/>
<text text-anchor="middle" x="424.24" y="-14.3" font-family="Times,serif" font-size="14.00">iri type</text>
</g>
<!-- dataset version&#45;&gt;iri -->
<g id="edge3" class="edge">
<title>dataset version&#45;&gt;iri</title>
<path fill="none" stroke="blue" d="M1204.65,-104.63C1077.24,-104.5 825.37,-99.83 614.24,-69 562.81,-61.49 505.28,-45.2 467.14,-33.25"/>
<polygon fill="blue" stroke="blue" points="467.99,-29.85 457.4,-30.16 465.88,-36.52 467.99,-29.85"/>
<text text-anchor="middle" x="622.24" y="-57.8" font-family="Times,serif" font-size="14.00">iri</text>
</g>
<!-- type -->
<g id="node5" class="node">
<title>type</title>
<ellipse fill="none" stroke="blue" cx="525.24" cy="-18" rx="38.19" ry="18"/>
<text text-anchor="middle" x="525.24" y="-14.3" font-family="Times,serif" font-size="14.00">string</text>
</g>
<!-- dataset version&#45;&gt;type -->
<g id="edge4" class="edge">
<title>dataset version&#45;&gt;type</title>
<path fill="none" stroke="blue" d="M1204.6,-103.5C1092.15,-101.78 884.95,-94.99 710.24,-69 647.86,-59.72 632.65,-54.09 572.24,-36 569.47,-35.17 566.63,-34.27 563.78,-33.33"/>
<polygon fill="blue" stroke="blue" points="564.75,-29.96 554.15,-30.03 562.48,-36.59 564.75,-29.96"/>
<text text-anchor="middle" x="726.24" y="-57.8" font-family="Times,serif" font-size="14.00">type</text>
</g>
<!-- name -->
<g id="node6" class="node">
<title>name</title>
<ellipse fill="none" stroke="blue" cx="638.24" cy="-18" rx="56.59" ry="18"/>
<text text-anchor="middle" x="638.24" y="-14.3" font-family="Times,serif" font-size="14.00">label type</text>
</g>
<!-- dataset version&#45;&gt;name -->
<g id="edge5" class="edge">
<title>dataset version&#45;&gt;name</title>
<path fill="none" stroke="blue" d="M1205.03,-103.36C1108.9,-101.37 945.34,-94.16 807.24,-69 764.5,-61.21 717.18,-46.68 683.51,-35.29"/>
<polygon fill="blue" stroke="blue" points="684.55,-31.94 673.96,-32.01 682.28,-38.56 684.55,-31.94"/>
<text text-anchor="middle" x="827.24" y="-57.8" font-family="Times,serif" font-size="14.00">name</text>
</g>
<!-- description -->
<g id="node7" class="node">
<title>description</title>
<ellipse fill="none" stroke="blue" cx="788.24" cy="-18" rx="75.29" ry="18"/>
<text text-anchor="middle" x="788.24" y="-14.3" font-family="Times,serif" font-size="14.00">narrative text</text>
</g>
<!-- dataset version&#45;&gt;description -->
<g id="edge6" class="edge">
<title>dataset version&#45;&gt;description</title>
<path fill="none" stroke="blue" d="M1206.86,-100.51C1107.99,-95.6 946.12,-85.37 888.24,-69 865.12,-62.46 840.99,-50.56 822.22,-40.01"/>
<polygon fill="blue" stroke="blue" points="823.88,-36.93 813.47,-34.97 820.39,-42.99 823.88,-36.93"/>
<text text-anchor="middle" x="928.74" y="-57.8" font-family="Times,serif" font-size="14.00">description</text>
</g>
<!-- has attribute -->
<g id="node8" class="node">
<title>has attribute</title>
<ellipse fill="none" stroke="blue" cx="933.24" cy="-18" rx="51.99" ry="18"/>
<text text-anchor="middle" x="933.24" y="-14.3" font-family="Times,serif" font-size="14.00">attribute</text>
</g>
<!-- dataset version&#45;&gt;has attribute -->
<g id="edge7" class="edge">
<title>dataset version&#45;&gt;has attribute</title>
<path fill="none" stroke="blue" d="M1208.86,-99.18C1136.62,-93.9 1035.2,-84.11 998.24,-69 983.03,-62.78 968.33,-52.01 956.77,-42.06"/>
<polygon fill="blue" stroke="blue" points="959.08,-39.43 949.29,-35.36 954.41,-44.64 959.08,-39.43"/>
<text text-anchor="middle" x="1045.24" y="-57.8" font-family="Times,serif" font-size="14.00">has attribute</text>
</g>
<!-- provided by -->
<g id="node9" class="node">
<title>provided by</title>
<ellipse fill="none" stroke="blue" cx="1041.24" cy="-18" rx="38.19" ry="18"/>
<text text-anchor="middle" x="1041.24" y="-14.3" font-family="Times,serif" font-size="14.00">string</text>
</g>
<!-- dataset version&#45;&gt;provided by -->
<g id="edge8" class="edge">
<title>dataset version&#45;&gt;provided by</title>
<path fill="none" stroke="blue" d="M1219.99,-94.51C1190.29,-89.05 1155.36,-80.85 1125.24,-69 1105.83,-61.36 1085.7,-49.54 1070.01,-39.3"/>
<polygon fill="blue" stroke="blue" points="1071.59,-36.15 1061.33,-33.51 1067.7,-41.97 1071.59,-36.15"/>
<text text-anchor="middle" x="1167.74" y="-57.8" font-family="Times,serif" font-size="14.00">provided by</text>
</g>
<!-- xref -->
<g id="node10" class="node">
<title>xref</title>
<ellipse fill="none" stroke="blue" cx="1155.24" cy="-18" rx="57.39" ry="18"/>
<text text-anchor="middle" x="1155.24" y="-14.3" font-family="Times,serif" font-size="14.00">uriorcurie</text>
</g>
<!-- dataset version&#45;&gt;xref -->
<g id="edge9" class="edge">
<title>dataset version&#45;&gt;xref</title>
<path fill="none" stroke="blue" d="M1262.1,-87.81C1241.1,-74.29 1211,-54.91 1188.1,-40.16"/>
<polygon fill="blue" stroke="blue" points="1189.7,-37.03 1179.39,-34.55 1185.91,-42.91 1189.7,-37.03"/>
<text text-anchor="middle" x="1243.74" y="-57.8" font-family="Times,serif" font-size="14.00">xref</text>
</g>
<!-- full name -->
<g id="node11" class="node">
<title>full name</title>
<ellipse fill="none" stroke="blue" cx="1287.24" cy="-18" rx="56.59" ry="18"/>
<text text-anchor="middle" x="1287.24" y="-14.3" font-family="Times,serif" font-size="14.00">label type</text>
</g>
<!-- dataset version&#45;&gt;full name -->
<g id="edge10" class="edge">
<title>dataset version&#45;&gt;full name</title>
<path fill="none" stroke="blue" d="M1287.24,-86.8C1287.24,-75.16 1287.24,-59.55 1287.24,-46.24"/>
<polygon fill="blue" stroke="blue" points="1290.74,-46.18 1287.24,-36.18 1283.74,-46.18 1290.74,-46.18"/>
<text text-anchor="middle" x="1320.74" y="-57.8" font-family="Times,serif" font-size="14.00">full name</text>
</g>
<!-- synonym -->
<g id="node12" class="node">
<title>synonym</title>
<ellipse fill="none" stroke="blue" cx="1418.24" cy="-18" rx="56.59" ry="18"/>
<text text-anchor="middle" x="1418.24" y="-14.3" font-family="Times,serif" font-size="14.00">label type</text>
</g>
<!-- dataset version&#45;&gt;synonym -->
<g id="edge11" class="edge">
<title>dataset version&#45;&gt;synonym</title>
<path fill="none" stroke="blue" d="M1322.45,-88.67C1334.16,-83.05 1347.06,-76.26 1358.24,-69 1370.47,-61.05 1383.02,-50.95 1393.45,-41.92"/>
<polygon fill="blue" stroke="blue" points="1395.8,-44.51 1400.98,-35.27 1391.17,-39.26 1395.8,-44.51"/>
<text text-anchor="middle" x="1410.24" y="-57.8" font-family="Times,serif" font-size="14.00">synonym</text>
</g>
<!-- category -->
<g id="node13" class="node">
<title>category</title>
<ellipse fill="none" stroke="black" cx="1544.24" cy="-18" rx="51.19" ry="18"/>
<text text-anchor="middle" x="1544.24" y="-14.3" font-family="Times,serif" font-size="14.00">category</text>
</g>
<!-- dataset version&#45;&gt;category -->
<g id="edge12" class="edge">
<title>dataset version&#45;&gt;category</title>
<path fill="none" stroke="blue" d="M1346.96,-92.5C1384.08,-85.03 1428.08,-75.51 1446.24,-69 1468.39,-61.06 1491.91,-49.18 1510.36,-39"/>
<polygon fill="blue" stroke="blue" points="1512.24,-41.96 1519.24,-34.01 1508.81,-35.85 1512.24,-41.96"/>
<text text-anchor="middle" x="1511.74" y="-57.8" font-family="Times,serif" font-size="14.00">category</text>
</g>
<!-- license -->
<g id="node15" class="node">
<title>license</title>
<ellipse fill="none" stroke="blue" cx="1652.24" cy="-18" rx="38.19" ry="18"/>
<text text-anchor="middle" x="1652.24" y="-14.3" font-family="Times,serif" font-size="14.00">string</text>
</g>
<!-- dataset version&#45;&gt;license -->
<g id="edge13" class="edge">
<title>dataset version&#45;&gt;license</title>
<path fill="none" stroke="blue" d="M1346.36,-92.26C1356.95,-90.35 1367.9,-88.51 1378.24,-87 1452.98,-76.06 1474.55,-89.53 1547.24,-69 1573.02,-61.72 1600.28,-48.55 1620.56,-37.56"/>
<polygon fill="blue" stroke="blue" points="1622.31,-40.6 1629.36,-32.69 1618.92,-34.47 1622.31,-40.6"/>
<text text-anchor="middle" x="1611.24" y="-57.8" font-family="Times,serif" font-size="14.00">license</text>
</g>
<!-- rights -->
<g id="node16" class="node">
<title>rights</title>
<ellipse fill="none" stroke="blue" cx="1747.24" cy="-18" rx="38.19" ry="18"/>
<text text-anchor="middle" x="1747.24" y="-14.3" font-family="Times,serif" font-size="14.00">string</text>
</g>
<!-- dataset version&#45;&gt;rights -->
<g id="edge14" class="edge">
<title>dataset version&#45;&gt;rights</title>
<path fill="none" stroke="blue" d="M1345.33,-92.11C1356.23,-90.17 1367.56,-88.36 1378.24,-87 1494.02,-72.26 1527.23,-98.2 1640.24,-69 1666.75,-62.15 1694.72,-48.84 1715.41,-37.67"/>
<polygon fill="blue" stroke="blue" points="1717.31,-40.62 1724.38,-32.73 1713.93,-34.49 1717.31,-40.62"/>
<text text-anchor="middle" x="1701.74" y="-57.8" font-family="Times,serif" font-size="14.00">rights</text>
</g>
<!-- format -->
<g id="node17" class="node">
<title>format</title>
<ellipse fill="none" stroke="blue" cx="1842.24" cy="-18" rx="38.19" ry="18"/>
<text text-anchor="middle" x="1842.24" y="-14.3" font-family="Times,serif" font-size="14.00">string</text>
</g>
<!-- dataset version&#45;&gt;format -->
<g id="edge15" class="edge">
<title>dataset version&#45;&gt;format</title>
<path fill="none" stroke="blue" d="M1344.83,-92.04C1355.88,-90.09 1367.39,-88.29 1378.24,-87 1532.47,-68.7 1576.04,-104.53 1727.24,-69 1756.17,-62.2 1786.94,-48.44 1809.37,-37.07"/>
<polygon fill="blue" stroke="blue" points="1811.17,-40.08 1818.44,-32.37 1807.95,-33.86 1811.17,-40.08"/>
<text text-anchor="middle" x="1794.74" y="-57.8" font-family="Times,serif" font-size="14.00">format</text>
</g>
<!-- creation date -->
<g id="node18" class="node">
<title>creation date</title>
<ellipse fill="none" stroke="blue" cx="1930.24" cy="-18" rx="31.4" ry="18"/>
<text text-anchor="middle" x="1930.24" y="-14.3" font-family="Times,serif" font-size="14.00">date</text>
</g>
<!-- dataset version&#45;&gt;creation date -->
<g id="edge16" class="edge">
<title>dataset version&#45;&gt;creation date</title>
<path fill="none" stroke="blue" d="M1344.82,-91.95C1355.87,-90 1367.38,-88.23 1378.24,-87 1476.58,-75.88 1727.08,-92.41 1823.24,-69 1850.71,-62.31 1879.63,-48.32 1900.47,-36.84"/>
<polygon fill="blue" stroke="blue" points="1902.45,-39.74 1909.44,-31.77 1899.01,-33.64 1902.45,-39.74"/>
<text text-anchor="middle" x="1913.74" y="-57.8" font-family="Times,serif" font-size="14.00">creation date</text>
</g>
<!-- has dataset -->
<g id="node19" class="node">
<title>has dataset</title>
<ellipse fill="none" stroke="blue" cx="2025.24" cy="-18" rx="45.49" ry="18"/>
<text text-anchor="middle" x="2025.24" y="-14.3" font-family="Times,serif" font-size="14.00">dataset</text>
</g>
<!-- dataset version&#45;&gt;has dataset -->
<g id="edge17" class="edge">
<title>dataset version&#45;&gt;has dataset</title>
<path fill="none" stroke="blue" d="M1344.32,-91.95C1355.52,-89.98 1367.21,-88.19 1378.24,-87 1443.11,-79.99 1904.23,-92.15 1965.24,-69 1979.93,-63.43 1993.61,-52.65 2004.19,-42.53"/>
<polygon fill="blue" stroke="blue" points="2006.75,-44.92 2011.32,-35.36 2001.79,-39.99 2006.75,-44.92"/>
<text text-anchor="middle" x="2032.74" y="-57.8" font-family="Times,serif" font-size="14.00">has dataset</text>
</g>
<!-- ingest date -->
<g id="node20" class="node">
<title>ingest date</title>
<ellipse fill="none" stroke="blue" cx="2131.24" cy="-18" rx="38.19" ry="18"/>
<text text-anchor="middle" x="2131.24" y="-14.3" font-family="Times,serif" font-size="14.00">string</text>
</g>
<!-- dataset version&#45;&gt;ingest date -->
<g id="edge18" class="edge">
<title>dataset version&#45;&gt;ingest date</title>
<path fill="none" stroke="blue" d="M1344.32,-91.9C1355.52,-89.94 1367.21,-88.16 1378.24,-87 1455.61,-78.83 2006.31,-98.65 2078.24,-69 2091.53,-63.52 2103.46,-53.06 2112.62,-43.11"/>
<polygon fill="blue" stroke="blue" points="2115.45,-45.2 2119.35,-35.35 2110.16,-40.61 2115.45,-45.2"/>
<text text-anchor="middle" x="2142.74" y="-57.8" font-family="Times,serif" font-size="14.00">ingest date</text>
</g>
<!-- has distribution -->
<g id="node21" class="node">
<title>has distribution</title>
<ellipse fill="none" stroke="blue" cx="2290.24" cy="-18" rx="102.88" ry="18"/>
<text text-anchor="middle" x="2290.24" y="-14.3" font-family="Times,serif" font-size="14.00">dataset distribution</text>
</g>
<!-- dataset version&#45;&gt;has distribution -->
<g id="edge19" class="edge">
<title>dataset version&#45;&gt;has distribution</title>
<path fill="none" stroke="blue" d="M1344.31,-91.87C1355.51,-89.91 1367.21,-88.15 1378.24,-87 1467.67,-77.71 2099.84,-90.12 2187.24,-69 2211.26,-63.2 2236.24,-51.24 2255.58,-40.47"/>
<polygon fill="blue" stroke="blue" points="2257.38,-43.48 2264.32,-35.48 2253.9,-37.4 2257.38,-43.48"/>
<text text-anchor="middle" x="2285.24" y="-57.8" font-family="Times,serif" font-size="14.00">has distribution</text>
</g>
<!-- named thing_category -->
<g id="node14" class="node">
<title>named thing_category</title>
<ellipse fill="none" stroke="blue" cx="1462.24" cy="-105" rx="74.99" ry="18"/>
<text text-anchor="middle" x="1462.24" y="-101.3" font-family="Times,serif" font-size="14.00">category type</text>
</g>
</g>
</svg>
