<?xml version="1.0" encoding="UTF-8" standalone="no"?>
<!DOCTYPE svg PUBLIC "-//W3C//DTD SVG 1.1//EN"
 "http://www.w3.org/Graphics/SVG/1.1/DTD/svg11.dtd">
<!-- Generated by graphviz version 2.43.0 (0)
 -->
<!-- Title: %3 Pages: 1 -->
<svg width="2101pt" height="131pt"
 viewBox="0.00 0.00 2100.93 131.00" xmlns="http://www.w3.org/2000/svg" xmlns:xlink="http://www.w3.org/1999/xlink">
<g id="graph0" class="graph" transform="scale(1 1) rotate(0) translate(4 127)">
<title>%3</title>
<polygon fill="white" stroke="transparent" points="-4,4 -4,-127 2096.93,-127 2096.93,4 -4,4"/>
<!-- dataset version -->
<g id="node1" class="node">
<title>dataset version</title>
<ellipse fill="none" stroke="black" cx="1136.24" cy="-105" rx="82.59" ry="18"/>
<text text-anchor="middle" x="1136.24" y="-101.3" font-family="Times,serif" font-size="14.00">dataset version</text>
</g>
<!-- information content entity -->
<g id="node2" class="node">
<title>information content entity</title>
<ellipse fill="none" stroke="black" cx="133.24" cy="-18" rx="133.48" ry="18"/>
<text text-anchor="middle" x="133.24" y="-14.3" font-family="Times,serif" font-size="14.00">information content entity</text>
</g>
<!-- dataset version&#45;&gt;information content entity -->
<g id="edge1" class="edge">
<title>dataset version&#45;&gt;information content entity</title>
<path fill="none" stroke="black" d="M1053.91,-103.54C918.85,-102.01 641.97,-95.57 409.24,-69 341.49,-61.27 265.27,-47.03 210.13,-35.72"/>
<polygon fill="black" stroke="black" points="210.58,-32.24 200.08,-33.65 209.17,-39.1 210.58,-32.24"/>
<text text-anchor="middle" x="423.24" y="-57.8" font-family="Times,serif" font-size="14.00">is_a</text>
</g>
<!-- id -->
<g id="node3" class="node">
<title>id</title>
<ellipse fill="none" stroke="blue" cx="323.24" cy="-18" rx="38.19" ry="18"/>
<text text-anchor="middle" x="323.24" y="-14.3" font-family="Times,serif" font-size="14.00">string</text>
</g>
<!-- dataset version&#45;&gt;id -->
<g id="edge2" class="edge">
<title>dataset version&#45;&gt;id</title>
<path fill="none" stroke="blue" d="M1053.61,-103.2C936.15,-101.17 714.35,-94.02 527.24,-69 457,-59.61 439.45,-55.2 371.24,-36 368.13,-35.13 364.94,-34.15 361.74,-33.13"/>
<polygon fill="blue" stroke="blue" points="362.83,-29.81 352.23,-29.96 360.61,-36.45 362.83,-29.81"/>
<text text-anchor="middle" x="534.24" y="-57.8" font-family="Times,serif" font-size="14.00">id</text>
</g>
<!-- iri -->
<g id="node4" class="node">
<title>iri</title>
<ellipse fill="none" stroke="blue" cx="424.24" cy="-18" rx="44.39" ry="18"/>
<text text-anchor="middle" x="424.24" y="-14.3" font-family="Times,serif" font-size="14.00">iri type</text>
</g>
<!-- dataset version&#45;&gt;iri -->
<g id="edge3" class="edge">
<title>dataset version&#45;&gt;iri</title>
<path fill="none" stroke="blue" d="M1054.23,-102.89C950.84,-100.48 767.93,-92.9 613.24,-69 562.12,-61.1 504.89,-44.89 466.94,-33.06"/>
<polygon fill="blue" stroke="blue" points="467.84,-29.67 457.25,-30 465.73,-36.35 467.84,-29.67"/>
<text text-anchor="middle" x="621.24" y="-57.8" font-family="Times,serif" font-size="14.00">iri</text>
</g>
<!-- type -->
<g id="node5" class="node">
<title>type</title>
<ellipse fill="none" stroke="blue" cx="525.24" cy="-18" rx="38.19" ry="18"/>
<text text-anchor="middle" x="525.24" y="-14.3" font-family="Times,serif" font-size="14.00">string</text>
</g>
<!-- dataset version&#45;&gt;type -->
<g id="edge4" class="edge">
<title>dataset version&#45;&gt;type</title>
<path fill="none" stroke="blue" d="M1055.15,-101.47C967.78,-97.8 824.9,-89.1 703.24,-69 644,-59.21 629.65,-53.57 572.24,-36 569.48,-35.16 566.64,-34.24 563.79,-33.29"/>
<polygon fill="blue" stroke="blue" points="564.76,-29.93 554.17,-29.98 562.48,-36.55 564.76,-29.93"/>
<text text-anchor="middle" x="719.24" y="-57.8" font-family="Times,serif" font-size="14.00">type</text>
</g>
<!-- name -->
<g id="node6" class="node">
<title>name</title>
<ellipse fill="none" stroke="blue" cx="638.24" cy="-18" rx="56.59" ry="18"/>
<text text-anchor="middle" x="638.24" y="-14.3" font-family="Times,serif" font-size="14.00">label type</text>
</g>
<!-- dataset version&#45;&gt;name -->
<g id="edge5" class="edge">
<title>dataset version&#45;&gt;name</title>
<path fill="none" stroke="blue" d="M1056.19,-100.37C986.84,-96.14 884.12,-87.23 796.24,-69 757.22,-60.91 714.17,-46.93 682.87,-35.81"/>
<polygon fill="blue" stroke="blue" points="683.74,-32.41 673.15,-32.31 681.37,-38.99 683.74,-32.41"/>
<text text-anchor="middle" x="816.24" y="-57.8" font-family="Times,serif" font-size="14.00">name</text>
</g>
<!-- description -->
<g id="node7" class="node">
<title>description</title>
<ellipse fill="none" stroke="blue" cx="788.24" cy="-18" rx="75.29" ry="18"/>
<text text-anchor="middle" x="788.24" y="-14.3" font-family="Times,serif" font-size="14.00">narrative text</text>
</g>
<!-- dataset version&#45;&gt;description -->
<g id="edge6" class="edge">
<title>dataset version&#45;&gt;description</title>
<path fill="none" stroke="blue" d="M1054.82,-101.85C1001.35,-98.37 930.59,-89.78 871.24,-69 852.52,-62.45 833.45,-51.33 818.31,-41.24"/>
<polygon fill="blue" stroke="blue" points="820.11,-38.23 809.88,-35.46 816.15,-44 820.11,-38.23"/>
<text text-anchor="middle" x="911.74" y="-57.8" font-family="Times,serif" font-size="14.00">description</text>
</g>
<!-- source -->
<g id="node8" class="node">
<title>source</title>
<ellipse fill="none" stroke="blue" cx="920.24" cy="-18" rx="38.19" ry="18"/>
<text text-anchor="middle" x="920.24" y="-14.3" font-family="Times,serif" font-size="14.00">string</text>
</g>
<!-- dataset version&#45;&gt;source -->
<g id="edge7" class="edge">
<title>dataset version&#45;&gt;source</title>
<path fill="none" stroke="blue" d="M1065.4,-95.67C1037.52,-90.52 1005.87,-82.23 979.24,-69 965.63,-62.24 952.53,-51.69 942.14,-42.01"/>
<polygon fill="blue" stroke="blue" points="944.38,-39.31 934.76,-34.87 939.51,-44.34 944.38,-39.31"/>
<text text-anchor="middle" x="1003.24" y="-57.8" font-family="Times,serif" font-size="14.00">source</text>
</g>
<!-- has attribute -->
<g id="node9" class="node">
<title>has attribute</title>
<ellipse fill="none" stroke="blue" cx="1028.24" cy="-18" rx="51.99" ry="18"/>
<text text-anchor="middle" x="1028.24" y="-14.3" font-family="Times,serif" font-size="14.00">attribute</text>
</g>
<!-- dataset version&#45;&gt;has attribute -->
<g id="edge8" class="edge">
<title>dataset version&#45;&gt;has attribute</title>
<path fill="none" stroke="blue" d="M1074.88,-92.82C1061.13,-87.64 1047.81,-80.07 1038.24,-69 1032.79,-62.69 1029.99,-54.25 1028.64,-46.11"/>
<polygon fill="blue" stroke="blue" points="1032.12,-45.71 1027.6,-36.13 1025.15,-46.44 1032.12,-45.71"/>
<text text-anchor="middle" x="1085.24" y="-57.8" font-family="Times,serif" font-size="14.00">has attribute</text>
</g>
<!-- provided by -->
<g id="node10" class="node">
<title>provided by</title>
<ellipse fill="none" stroke="blue" cx="1136.24" cy="-18" rx="38.19" ry="18"/>
<text text-anchor="middle" x="1136.24" y="-14.3" font-family="Times,serif" font-size="14.00">string</text>
</g>
<!-- dataset version&#45;&gt;provided by -->
<g id="edge9" class="edge">
<title>dataset version&#45;&gt;provided by</title>
<path fill="none" stroke="blue" d="M1136.24,-86.8C1136.24,-75.16 1136.24,-59.55 1136.24,-46.24"/>
<polygon fill="blue" stroke="blue" points="1139.74,-46.18 1136.24,-36.18 1132.74,-46.18 1139.74,-46.18"/>
<text text-anchor="middle" x="1178.74" y="-57.8" font-family="Times,serif" font-size="14.00">provided by</text>
</g>
<!-- category -->
<g id="node11" class="node">
<title>category</title>
<ellipse fill="none" stroke="black" cx="1244.24" cy="-18" rx="51.19" ry="18"/>
<text text-anchor="middle" x="1244.24" y="-14.3" font-family="Times,serif" font-size="14.00">category</text>
</g>
<!-- dataset version&#45;&gt;category -->
<g id="edge10" class="edge">
<title>dataset version&#45;&gt;category</title>
<path fill="none" stroke="blue" d="M1187.39,-90.62C1199.93,-85.45 1212.53,-78.44 1222.24,-69 1228.79,-62.63 1233.52,-53.98 1236.88,-45.66"/>
<polygon fill="blue" stroke="blue" points="1240.19,-46.8 1240.22,-36.21 1233.59,-44.47 1240.19,-46.8"/>
<text text-anchor="middle" x="1264.74" y="-57.8" font-family="Times,serif" font-size="14.00">category</text>
</g>
<!-- license -->
<g id="node13" class="node">
<title>license</title>
<ellipse fill="none" stroke="blue" cx="1352.24" cy="-18" rx="38.19" ry="18"/>
<text text-anchor="middle" x="1352.24" y="-14.3" font-family="Times,serif" font-size="14.00">string</text>
</g>
<!-- dataset version&#45;&gt;license -->
<g id="edge11" class="edge">
<title>dataset version&#45;&gt;license</title>
<path fill="none" stroke="blue" d="M1197.18,-92.67C1239.89,-84.45 1290.95,-73.93 1300.24,-69 1312.34,-62.58 1323.59,-52.52 1332.51,-43.1"/>
<polygon fill="blue" stroke="blue" points="1335.33,-45.2 1339.42,-35.43 1330.13,-40.51 1335.33,-45.2"/>
<text text-anchor="middle" x="1346.24" y="-57.8" font-family="Times,serif" font-size="14.00">license</text>
</g>
<!-- rights -->
<g id="node14" class="node">
<title>rights</title>
<ellipse fill="none" stroke="blue" cx="1447.24" cy="-18" rx="38.19" ry="18"/>
<text text-anchor="middle" x="1447.24" y="-14.3" font-family="Times,serif" font-size="14.00">string</text>
</g>
<!-- dataset version&#45;&gt;rights -->
<g id="edge12" class="edge">
<title>dataset version&#45;&gt;rights</title>
<path fill="none" stroke="blue" d="M1195.38,-92.39C1205.96,-90.47 1216.91,-88.59 1227.24,-87 1292.73,-76.91 1313.32,-92.59 1375.24,-69 1392.27,-62.51 1409.12,-51.15 1422.24,-40.9"/>
<polygon fill="blue" stroke="blue" points="1424.72,-43.39 1430.28,-34.38 1420.31,-37.96 1424.72,-43.39"/>
<text text-anchor="middle" x="1424.74" y="-57.8" font-family="Times,serif" font-size="14.00">rights</text>
</g>
<!-- format -->
<g id="node15" class="node">
<title>format</title>
<ellipse fill="none" stroke="blue" cx="1542.24" cy="-18" rx="38.19" ry="18"/>
<text text-anchor="middle" x="1542.24" y="-14.3" font-family="Times,serif" font-size="14.00">string</text>
</g>
<!-- dataset version&#45;&gt;format -->
<g id="edge13" class="edge">
<title>dataset version&#45;&gt;format</title>
<path fill="none" stroke="blue" d="M1194.35,-92.21C1205.24,-90.27 1216.56,-88.42 1227.24,-87 1325.8,-73.85 1354.93,-97.36 1450.24,-69 1472.64,-62.33 1495.75,-49.75 1513.2,-38.87"/>
<polygon fill="blue" stroke="blue" points="1515.25,-41.72 1521.78,-33.38 1511.47,-35.83 1515.25,-41.72"/>
<text text-anchor="middle" x="1509.74" y="-57.8" font-family="Times,serif" font-size="14.00">format</text>
</g>
<!-- creation date -->
<g id="node16" class="node">
<title>creation date</title>
<ellipse fill="none" stroke="blue" cx="1630.24" cy="-18" rx="31.4" ry="18"/>
<text text-anchor="middle" x="1630.24" y="-14.3" font-family="Times,serif" font-size="14.00">date</text>
</g>
<!-- dataset version&#45;&gt;creation date -->
<g id="edge14" class="edge">
<title>dataset version&#45;&gt;creation date</title>
<path fill="none" stroke="blue" d="M1193.83,-92.1C1204.88,-90.14 1216.39,-88.32 1227.24,-87 1364.68,-70.25 1405.09,-106.97 1538.24,-69 1561.31,-62.42 1585.05,-49.33 1602.63,-38.2"/>
<polygon fill="blue" stroke="blue" points="1604.76,-40.99 1611.23,-32.6 1600.94,-35.12 1604.76,-40.99"/>
<text text-anchor="middle" x="1620.74" y="-57.8" font-family="Times,serif" font-size="14.00">creation date</text>
</g>
<!-- has dataset -->
<g id="node17" class="node">
<title>has dataset</title>
<ellipse fill="none" stroke="blue" cx="1725.24" cy="-18" rx="45.49" ry="18"/>
<text text-anchor="middle" x="1725.24" y="-14.3" font-family="Times,serif" font-size="14.00">dataset</text>
</g>
<!-- dataset version&#45;&gt;has dataset -->
<g id="edge15" class="edge">
<title>dataset version&#45;&gt;has dataset</title>
<path fill="none" stroke="blue" d="M1193.82,-91.95C1204.87,-90 1216.38,-88.23 1227.24,-87 1276.41,-81.44 1626.63,-88.2 1672.24,-69 1685.3,-63.5 1697.08,-53.24 1706.2,-43.43"/>
<polygon fill="blue" stroke="blue" points="1708.96,-45.6 1712.92,-35.77 1703.7,-40.98 1708.96,-45.6"/>
<text text-anchor="middle" x="1735.74" y="-57.8" font-family="Times,serif" font-size="14.00">has dataset</text>
</g>
<!-- ingest date -->
<g id="node18" class="node">
<title>ingest date</title>
<ellipse fill="none" stroke="blue" cx="1831.24" cy="-18" rx="38.19" ry="18"/>
<text text-anchor="middle" x="1831.24" y="-14.3" font-family="Times,serif" font-size="14.00">string</text>
</g>
<!-- dataset version&#45;&gt;ingest date -->
<g id="edge16" class="edge">
<title>dataset version&#45;&gt;ingest date</title>
<path fill="none" stroke="blue" d="M1193.32,-91.96C1204.52,-89.99 1216.21,-88.2 1227.24,-87 1288.46,-80.33 1724.73,-93.49 1781.24,-69 1793.91,-63.51 1805.1,-53.19 1813.66,-43.34"/>
<polygon fill="blue" stroke="blue" points="1816.61,-45.26 1820.22,-35.3 1811.19,-40.84 1816.61,-45.26"/>
<text text-anchor="middle" x="1842.74" y="-57.8" font-family="Times,serif" font-size="14.00">ingest date</text>
</g>
<!-- has distribution -->
<g id="node19" class="node">
<title>has distribution</title>
<ellipse fill="none" stroke="blue" cx="1990.24" cy="-18" rx="102.88" ry="18"/>
<text text-anchor="middle" x="1990.24" y="-14.3" font-family="Times,serif" font-size="14.00">dataset distribution</text>
</g>
<!-- dataset version&#45;&gt;has distribution -->
<g id="edge17" class="edge">
<title>dataset version&#45;&gt;has distribution</title>
<path fill="none" stroke="blue" d="M1193.32,-91.92C1204.52,-89.95 1216.21,-88.17 1227.24,-87 1373.14,-71.48 1744.71,-103.82 1887.24,-69 1911.24,-63.14 1936.22,-51.18 1955.57,-40.42"/>
<polygon fill="blue" stroke="blue" points="1957.36,-43.43 1964.31,-35.44 1953.89,-37.35 1957.36,-43.43"/>
<text text-anchor="middle" x="1985.24" y="-57.8" font-family="Times,serif" font-size="14.00">has distribution</text>
</g>
<!-- named thing_category -->
<g id="node12" class="node">
<title>named thing_category</title>
<ellipse fill="none" stroke="blue" cx="1311.24" cy="-105" rx="74.99" ry="18"/>
<text text-anchor="middle" x="1311.24" y="-101.3" font-family="Times,serif" font-size="14.00">category type</text>
</g>
</g>
</svg>
