<?xml version="1.0" encoding="UTF-8" standalone="no"?>
<!DOCTYPE svg PUBLIC "-//W3C//DTD SVG 1.1//EN"
 "http://www.w3.org/Graphics/SVG/1.1/DTD/svg11.dtd">
<!-- Generated by graphviz version 2.43.0 (0)
 -->
<!-- Title: %3 Pages: 1 -->
<svg width="2185pt" height="131pt"
 viewBox="0.00 0.00 2185.24 131.00" xmlns="http://www.w3.org/2000/svg" xmlns:xlink="http://www.w3.org/1999/xlink">
<g id="graph0" class="graph" transform="scale(1 1) rotate(0) translate(4 127)">
<title>%3</title>
<polygon fill="white" stroke="transparent" points="-4,4 -4,-127 2181.24,-127 2181.24,4 -4,4"/>
<!-- dataset distribution -->
<g id="node1" class="node">
<title>dataset distribution</title>
<ellipse fill="none" stroke="black" cx="1156.24" cy="-105" rx="102.88" ry="18"/>
<text text-anchor="middle" x="1156.24" y="-101.3" font-family="Times,serif" font-size="14.00">dataset distribution</text>
</g>
<!-- information content entity -->
<g id="node2" class="node">
<title>information content entity</title>
<ellipse fill="none" stroke="black" cx="133.24" cy="-18" rx="133.48" ry="18"/>
<text text-anchor="middle" x="133.24" y="-14.3" font-family="Times,serif" font-size="14.00">information content entity</text>
</g>
<!-- dataset distribution&#45;&gt;information content entity -->
<g id="edge1" class="edge">
<title>dataset distribution&#45;&gt;information content entity</title>
<path fill="none" stroke="black" d="M1053.66,-103.51C909.21,-101.85 637.84,-95.13 408.24,-69 340.61,-61.3 264.53,-47.03 209.56,-35.7"/>
<polygon fill="black" stroke="black" points="210.06,-32.23 199.55,-33.62 208.63,-39.08 210.06,-32.23"/>
<text text-anchor="middle" x="422.24" y="-57.8" font-family="Times,serif" font-size="14.00">is_a</text>
</g>
<!-- id -->
<g id="node3" class="node">
<title>id</title>
<ellipse fill="none" stroke="blue" cx="323.24" cy="-18" rx="38.19" ry="18"/>
<text text-anchor="middle" x="323.24" y="-14.3" font-family="Times,serif" font-size="14.00">string</text>
</g>
<!-- dataset distribution&#45;&gt;id -->
<g id="edge2" class="edge">
<title>dataset distribution&#45;&gt;id</title>
<path fill="none" stroke="blue" d="M1054.03,-103.16C929.03,-101.01 711.23,-93.68 526.24,-69 456.42,-59.69 439.02,-55.13 371.24,-36 368.13,-35.12 364.94,-34.15 361.74,-33.13"/>
<polygon fill="blue" stroke="blue" points="362.83,-29.8 352.23,-29.95 360.61,-36.44 362.83,-29.8"/>
<text text-anchor="middle" x="533.24" y="-57.8" font-family="Times,serif" font-size="14.00">id</text>
</g>
<!-- iri -->
<g id="node4" class="node">
<title>iri</title>
<ellipse fill="none" stroke="blue" cx="424.24" cy="-18" rx="44.39" ry="18"/>
<text text-anchor="middle" x="424.24" y="-14.3" font-family="Times,serif" font-size="14.00">iri type</text>
</g>
<!-- dataset distribution&#45;&gt;iri -->
<g id="edge3" class="edge">
<title>dataset distribution&#45;&gt;iri</title>
<path fill="none" stroke="blue" d="M1054.2,-102.89C944.25,-100.42 764.43,-92.73 611.24,-69 560.78,-61.19 504.36,-45.04 466.81,-33.2"/>
<polygon fill="blue" stroke="blue" points="467.81,-29.84 457.22,-30.14 465.68,-36.51 467.81,-29.84"/>
<text text-anchor="middle" x="619.24" y="-57.8" font-family="Times,serif" font-size="14.00">iri</text>
</g>
<!-- type -->
<g id="node5" class="node">
<title>type</title>
<ellipse fill="none" stroke="blue" cx="525.24" cy="-18" rx="38.19" ry="18"/>
<text text-anchor="middle" x="525.24" y="-14.3" font-family="Times,serif" font-size="14.00">string</text>
</g>
<!-- dataset distribution&#45;&gt;type -->
<g id="edge4" class="edge">
<title>dataset distribution&#45;&gt;type</title>
<path fill="none" stroke="blue" d="M1055.32,-101.42C962.31,-97.82 820.7,-89.27 699.24,-69 641.71,-59.4 627.94,-53.27 572.24,-36 569.48,-35.14 566.64,-34.22 563.8,-33.27"/>
<polygon fill="blue" stroke="blue" points="564.77,-29.9 554.18,-29.94 562.49,-36.52 564.77,-29.9"/>
<text text-anchor="middle" x="715.24" y="-57.8" font-family="Times,serif" font-size="14.00">type</text>
</g>
<!-- name -->
<g id="node6" class="node">
<title>name</title>
<ellipse fill="none" stroke="blue" cx="638.24" cy="-18" rx="56.59" ry="18"/>
<text text-anchor="middle" x="638.24" y="-14.3" font-family="Times,serif" font-size="14.00">label type</text>
</g>
<!-- dataset distribution&#45;&gt;name -->
<g id="edge5" class="edge">
<title>dataset distribution&#45;&gt;name</title>
<path fill="none" stroke="blue" d="M1056.7,-100.46C982.58,-96.39 879.26,-87.66 790.24,-69 752.86,-61.17 711.8,-47.33 681.79,-36.2"/>
<polygon fill="blue" stroke="blue" points="682.65,-32.78 672.05,-32.54 680.18,-39.33 682.65,-32.78"/>
<text text-anchor="middle" x="810.24" y="-57.8" font-family="Times,serif" font-size="14.00">name</text>
</g>
<!-- description -->
<g id="node7" class="node">
<title>description</title>
<ellipse fill="none" stroke="blue" cx="788.24" cy="-18" rx="75.29" ry="18"/>
<text text-anchor="middle" x="788.24" y="-14.3" font-family="Times,serif" font-size="14.00">narrative text</text>
</g>
<!-- dataset distribution&#45;&gt;description -->
<g id="edge6" class="edge">
<title>dataset distribution&#45;&gt;description</title>
<path fill="none" stroke="blue" d="M1062.1,-97.73C989.98,-92.02 896.97,-82.42 861.24,-69 844.61,-62.75 828.1,-51.94 815,-41.97"/>
<polygon fill="blue" stroke="blue" points="816.94,-39.04 806.92,-35.59 812.6,-44.54 816.94,-39.04"/>
<text text-anchor="middle" x="901.74" y="-57.8" font-family="Times,serif" font-size="14.00">description</text>
</g>
<!-- has attribute -->
<g id="node8" class="node">
<title>has attribute</title>
<ellipse fill="none" stroke="blue" cx="933.24" cy="-18" rx="51.99" ry="18"/>
<text text-anchor="middle" x="933.24" y="-14.3" font-family="Times,serif" font-size="14.00">attribute</text>
</g>
<!-- dataset distribution&#45;&gt;has attribute -->
<g id="edge7" class="edge">
<title>dataset distribution&#45;&gt;has attribute</title>
<path fill="none" stroke="blue" d="M1066.96,-96.07C1022.96,-90.63 975.65,-82 958.24,-69 950.44,-63.18 944.91,-54.25 941.08,-45.54"/>
<polygon fill="blue" stroke="blue" points="944.27,-44.07 937.43,-35.97 937.72,-46.56 944.27,-44.07"/>
<text text-anchor="middle" x="1005.24" y="-57.8" font-family="Times,serif" font-size="14.00">has attribute</text>
</g>
<!-- provided by -->
<g id="node9" class="node">
<title>provided by</title>
<ellipse fill="none" stroke="blue" cx="1041.24" cy="-18" rx="38.19" ry="18"/>
<text text-anchor="middle" x="1041.24" y="-14.3" font-family="Times,serif" font-size="14.00">string</text>
</g>
<!-- dataset distribution&#45;&gt;provided by -->
<g id="edge8" class="edge">
<title>dataset distribution&#45;&gt;provided by</title>
<path fill="none" stroke="blue" d="M1101.88,-89.72C1089.5,-84.64 1077.11,-77.89 1067.24,-69 1060.16,-62.63 1054.7,-53.87 1050.66,-45.46"/>
<polygon fill="blue" stroke="blue" points="1053.87,-44.06 1046.69,-36.27 1047.44,-46.83 1053.87,-44.06"/>
<text text-anchor="middle" x="1109.74" y="-57.8" font-family="Times,serif" font-size="14.00">provided by</text>
</g>
<!-- xref -->
<g id="node10" class="node">
<title>xref</title>
<ellipse fill="none" stroke="blue" cx="1155.24" cy="-18" rx="57.39" ry="18"/>
<text text-anchor="middle" x="1155.24" y="-14.3" font-family="Times,serif" font-size="14.00">uriorcurie</text>
</g>
<!-- dataset distribution&#45;&gt;xref -->
<g id="edge9" class="edge">
<title>dataset distribution&#45;&gt;xref</title>
<path fill="none" stroke="blue" d="M1156.04,-86.8C1155.9,-75.16 1155.72,-59.55 1155.56,-46.24"/>
<polygon fill="blue" stroke="blue" points="1159.06,-46.13 1155.44,-36.18 1152.06,-46.22 1159.06,-46.13"/>
<text text-anchor="middle" x="1170.74" y="-57.8" font-family="Times,serif" font-size="14.00">xref</text>
</g>
<!-- full name -->
<g id="node11" class="node">
<title>full name</title>
<ellipse fill="none" stroke="blue" cx="1287.24" cy="-18" rx="56.59" ry="18"/>
<text text-anchor="middle" x="1287.24" y="-14.3" font-family="Times,serif" font-size="14.00">label type</text>
</g>
<!-- dataset distribution&#45;&gt;full name -->
<g id="edge10" class="edge">
<title>dataset distribution&#45;&gt;full name</title>
<path fill="none" stroke="blue" d="M1181.81,-87.41C1202.71,-73.85 1232.39,-54.59 1254.93,-39.96"/>
<polygon fill="blue" stroke="blue" points="1257.01,-42.78 1263.5,-34.4 1253.2,-36.91 1257.01,-42.78"/>
<text text-anchor="middle" x="1263.74" y="-57.8" font-family="Times,serif" font-size="14.00">full name</text>
</g>
<!-- synonym -->
<g id="node12" class="node">
<title>synonym</title>
<ellipse fill="none" stroke="blue" cx="1418.24" cy="-18" rx="56.59" ry="18"/>
<text text-anchor="middle" x="1418.24" y="-14.3" font-family="Times,serif" font-size="14.00">label type</text>
</g>
<!-- dataset distribution&#45;&gt;synonym -->
<g id="edge11" class="edge">
<title>dataset distribution&#45;&gt;synonym</title>
<path fill="none" stroke="blue" d="M1220.41,-90.94C1245.85,-85.13 1275.18,-77.64 1301.24,-69 1327.84,-60.17 1356.81,-47.82 1379.27,-37.59"/>
<polygon fill="blue" stroke="blue" points="1380.85,-40.72 1388.47,-33.36 1377.92,-34.36 1380.85,-40.72"/>
<text text-anchor="middle" x="1373.24" y="-57.8" font-family="Times,serif" font-size="14.00">synonym</text>
</g>
<!-- category -->
<g id="node13" class="node">
<title>category</title>
<ellipse fill="none" stroke="black" cx="1544.24" cy="-18" rx="51.19" ry="18"/>
<text text-anchor="middle" x="1544.24" y="-14.3" font-family="Times,serif" font-size="14.00">category</text>
</g>
<!-- dataset distribution&#45;&gt;category -->
<g id="edge12" class="edge">
<title>dataset distribution&#45;&gt;category</title>
<path fill="none" stroke="blue" d="M1229.94,-92.44C1242.38,-90.57 1255.17,-88.69 1267.24,-87 1330.24,-78.18 1347.45,-84.15 1409.24,-69 1442.1,-60.94 1477.96,-47.43 1504.45,-36.48"/>
<polygon fill="blue" stroke="blue" points="1505.9,-39.67 1513.77,-32.57 1503.19,-33.21 1505.9,-39.67"/>
<text text-anchor="middle" x="1490.74" y="-57.8" font-family="Times,serif" font-size="14.00">category</text>
</g>
<!-- license -->
<g id="node15" class="node">
<title>license</title>
<ellipse fill="none" stroke="blue" cx="1652.24" cy="-18" rx="38.19" ry="18"/>
<text text-anchor="middle" x="1652.24" y="-14.3" font-family="Times,serif" font-size="14.00">string</text>
</g>
<!-- dataset distribution&#45;&gt;license -->
<g id="edge13" class="edge">
<title>dataset distribution&#45;&gt;license</title>
<path fill="none" stroke="blue" d="M1228.07,-92.11C1241.08,-90.21 1254.55,-88.41 1267.24,-87 1381.92,-74.25 1413.72,-94.58 1526.24,-69 1558.25,-61.72 1592.78,-47.53 1617.59,-36.12"/>
<polygon fill="blue" stroke="blue" points="1619.35,-39.16 1626.92,-31.75 1616.38,-32.82 1619.35,-39.16"/>
<text text-anchor="middle" x="1598.24" y="-57.8" font-family="Times,serif" font-size="14.00">license</text>
</g>
<!-- rights -->
<g id="node16" class="node">
<title>rights</title>
<ellipse fill="none" stroke="blue" cx="1747.24" cy="-18" rx="38.19" ry="18"/>
<text text-anchor="middle" x="1747.24" y="-14.3" font-family="Times,serif" font-size="14.00">string</text>
</g>
<!-- dataset distribution&#45;&gt;rights -->
<g id="edge14" class="edge">
<title>dataset distribution&#45;&gt;rights</title>
<path fill="none" stroke="blue" d="M1227.46,-91.99C1240.65,-90.08 1254.34,-88.31 1267.24,-87 1426.62,-70.85 1470.98,-104.33 1627.24,-69 1657.61,-62.13 1690.11,-48.14 1713.61,-36.7"/>
<polygon fill="blue" stroke="blue" points="1715.39,-39.73 1722.79,-32.14 1712.27,-33.46 1715.39,-39.73"/>
<text text-anchor="middle" x="1693.74" y="-57.8" font-family="Times,serif" font-size="14.00">rights</text>
</g>
<!-- format -->
<g id="node17" class="node">
<title>format</title>
<ellipse fill="none" stroke="blue" cx="1842.24" cy="-18" rx="38.19" ry="18"/>
<text text-anchor="middle" x="1842.24" y="-14.3" font-family="Times,serif" font-size="14.00">string</text>
</g>
<!-- dataset distribution&#45;&gt;format -->
<g id="edge15" class="edge">
<title>dataset distribution&#45;&gt;format</title>
<path fill="none" stroke="blue" d="M1227.15,-91.93C1240.44,-90.01 1254.24,-88.25 1267.24,-87 1367.3,-77.38 1620.98,-90.25 1719.24,-69 1750.66,-62.2 1784.36,-47.97 1808.52,-36.42"/>
<polygon fill="blue" stroke="blue" points="1810.16,-39.52 1817.61,-31.99 1807.09,-33.23 1810.16,-39.52"/>
<text text-anchor="middle" x="1792.74" y="-57.8" font-family="Times,serif" font-size="14.00">format</text>
</g>
<!-- creation date -->
<g id="node18" class="node">
<title>creation date</title>
<ellipse fill="none" stroke="blue" cx="1930.24" cy="-18" rx="31.4" ry="18"/>
<text text-anchor="middle" x="1930.24" y="-14.3" font-family="Times,serif" font-size="14.00">date</text>
</g>
<!-- dataset distribution&#45;&gt;creation date -->
<g id="edge16" class="edge">
<title>dataset distribution&#45;&gt;creation date</title>
<path fill="none" stroke="blue" d="M1226.84,-91.89C1240.22,-89.97 1254.13,-88.21 1267.24,-87 1389.89,-75.66 1701.34,-97.23 1821.24,-69 1849.48,-62.35 1879.28,-48.12 1900.57,-36.53"/>
<polygon fill="blue" stroke="blue" points="1902.4,-39.52 1909.43,-31.6 1898.99,-33.41 1902.4,-39.52"/>
<text text-anchor="middle" x="1912.74" y="-57.8" font-family="Times,serif" font-size="14.00">creation date</text>
</g>
<!-- distribution download url -->
<g id="node19" class="node">
<title>distribution download url</title>
<ellipse fill="none" stroke="blue" cx="2040.24" cy="-18" rx="38.19" ry="18"/>
<text text-anchor="middle" x="2040.24" y="-14.3" font-family="Times,serif" font-size="14.00">string</text>
</g>
<!-- dataset distribution&#45;&gt;distribution download url -->
<g id="edge17" class="edge">
<title>dataset distribution&#45;&gt;distribution download url</title>
<path fill="none" stroke="blue" d="M1226.54,-91.87C1240.01,-89.93 1254.03,-88.18 1267.24,-87 1344.4,-80.12 1890.32,-92.18 1964.24,-69 1982.83,-63.17 2001.16,-51.34 2015.16,-40.66"/>
<polygon fill="blue" stroke="blue" points="2017.62,-43.17 2023.27,-34.21 2013.27,-37.69 2017.62,-43.17"/>
<text text-anchor="middle" x="2086.24" y="-57.8" font-family="Times,serif" font-size="14.00">distribution download url</text>
</g>
<!-- named thing_category -->
<g id="node14" class="node">
<title>named thing_category</title>
<ellipse fill="none" stroke="blue" cx="1351.24" cy="-105" rx="74.99" ry="18"/>
<text text-anchor="middle" x="1351.24" y="-101.3" font-family="Times,serif" font-size="14.00">category type</text>
</g>
</g>
</svg>
