<?xml version="1.0" encoding="UTF-8" standalone="no"?>
<!DOCTYPE svg PUBLIC "-//W3C//DTD SVG 1.1//EN"
 "http://www.w3.org/Graphics/SVG/1.1/DTD/svg11.dtd">
<!-- Generated by graphviz version 2.40.1 (20161225.0304)
 -->
<!-- Title: %3 Pages: 1 -->
<svg width="442pt" height="131pt"
 viewBox="0.00 0.00 441.74 131.00" xmlns="http://www.w3.org/2000/svg" xmlns:xlink="http://www.w3.org/1999/xlink">
<g id="graph0" class="graph" transform="scale(1 1) rotate(0) translate(4 127)">
<title>%3</title>
<polygon fill="#ffffff" stroke="transparent" points="-4,4 -4,-127 437.7399,-127 437.7399,4 -4,4"/>
<!-- data set -->
<g id="node1" class="node">
<title>data set</title>
<ellipse fill="none" stroke="#000000" cx="206.2451" cy="-105" rx="37.8943" ry="18"/>
<text text-anchor="middle" x="206.2451" y="-101.3" font-family="Times,serif" font-size="14.00" fill="#000000">data set</text>
</g>
<!-- named thing -->
<g id="node2" class="node">
<title>named thing</title>
<ellipse fill="none" stroke="#000000" cx="55.2451" cy="-18" rx="55.4913" ry="18"/>
<text text-anchor="middle" x="55.2451" y="-14.3" font-family="Times,serif" font-size="14.00" fill="#000000">named thing</text>
</g>
<!-- data set&#45;&gt;named thing -->
<g id="edge1" class="edge">
<title>data set&#45;&gt;named thing</title>
<path fill="none" stroke="#000000" d="M181.9843,-91.0219C157.4606,-76.8924 119.2805,-54.8946 91.2315,-38.7339"/>
<polygon fill="#000000" stroke="#000000" points="92.9228,-35.669 82.5108,-33.7094 89.4282,-41.7343 92.9228,-35.669"/>
<text text-anchor="middle" x="151.2451" y="-57.8" font-family="Times,serif" font-size="14.00" fill="#000000">is_a</text>
</g>
<!-- id -->
<g id="node3" class="node">
<title>id</title>
<ellipse fill="none" stroke="#0000ff" cx="159.2451" cy="-18" rx="30.5947" ry="18"/>
<text text-anchor="middle" x="159.2451" y="-14.3" font-family="Times,serif" font-size="14.00" fill="#000000">string</text>
</g>
<!-- data set&#45;&gt;id -->
<g id="edge2" class="edge">
<title>data set&#45;&gt;id</title>
<path fill="none" stroke="#0000ff" d="M196.7339,-87.3943C190.065,-75.0496 181.0329,-58.3306 173.5053,-44.3965"/>
<polygon fill="#0000ff" stroke="#0000ff" points="176.4142,-42.4173 168.5817,-35.2827 170.2554,-45.7445 176.4142,-42.4173"/>
<text text-anchor="middle" x="191.7451" y="-57.8" font-family="Times,serif" font-size="14.00" fill="#000000">id</text>
</g>
<!-- name -->
<g id="node4" class="node">
<title>name</title>
<ellipse fill="none" stroke="#0000ff" cx="253.2451" cy="-18" rx="45.4919" ry="18"/>
<text text-anchor="middle" x="253.2451" y="-14.3" font-family="Times,serif" font-size="14.00" fill="#000000">label type</text>
</g>
<!-- data set&#45;&gt;name -->
<g id="edge3" class="edge">
<title>data set&#45;&gt;name</title>
<path fill="none" stroke="#0000ff" d="M215.7562,-87.3943C222.338,-75.211 231.2216,-58.7669 238.689,-44.9443"/>
<polygon fill="#0000ff" stroke="#0000ff" points="241.913,-46.34 243.5868,-35.8782 235.7543,-43.0128 241.913,-46.34"/>
<text text-anchor="middle" x="248.7451" y="-57.8" font-family="Times,serif" font-size="14.00" fill="#000000">name</text>
</g>
<!-- category -->
<g id="node5" class="node">
<title>category</title>
<ellipse fill="none" stroke="#0000ff" cx="375.2451" cy="-18" rx="58.4896" ry="18"/>
<text text-anchor="middle" x="375.2451" y="-14.3" font-family="Times,serif" font-size="14.00" fill="#000000">category type</text>
</g>
<!-- data set&#45;&gt;category -->
<g id="edge4" class="edge">
<title>data set&#45;&gt;category</title>
<path fill="none" stroke="#0000ff" d="M231.9126,-91.7866C259.5625,-77.5526 303.8967,-54.7296 335.9422,-38.2328"/>
<polygon fill="#0000ff" stroke="#0000ff" points="337.7559,-41.2358 345.045,-33.5468 334.552,-35.012 337.7559,-41.2358"/>
<text text-anchor="middle" x="324.7451" y="-57.8" font-family="Times,serif" font-size="14.00" fill="#000000">category</text>
</g>
</g>
</svg>
