<?xml version="1.0" encoding="UTF-8" standalone="no"?>
<!DOCTYPE svg PUBLIC "-//W3C//DTD SVG 1.1//EN"
 "http://www.w3.org/Graphics/SVG/1.1/DTD/svg11.dtd">
<!-- Generated by graphviz version 2.43.0 (0)
 -->
<!-- Title: %3 Pages: 1 -->
<svg width="1345pt" height="131pt"
 viewBox="0.00 0.00 1344.89 131.00" xmlns="http://www.w3.org/2000/svg" xmlns:xlink="http://www.w3.org/1999/xlink">
<g id="graph0" class="graph" transform="scale(1 1) rotate(0) translate(4 127)">
<title>%3</title>
<polygon fill="white" stroke="transparent" points="-4,4 -4,-127 1340.89,-127 1340.89,4 -4,4"/>
<!-- diagnostic aid -->
<g id="node1" class="node">
<title>diagnostic aid</title>
<ellipse fill="none" stroke="black" cx="660.54" cy="-105" rx="75.29" ry="18"/>
<text text-anchor="middle" x="660.54" y="-101.3" font-family="Times,serif" font-size="14.00">diagnostic aid</text>
</g>
<!-- named thing -->
<g id="node2" class="node">
<title>named thing</title>
<ellipse fill="none" stroke="black" cx="69.54" cy="-18" rx="69.59" ry="18"/>
<text text-anchor="middle" x="69.54" y="-14.3" font-family="Times,serif" font-size="14.00">named thing</text>
</g>
<!-- diagnostic aid&#45;&gt;named thing -->
<g id="edge1" class="edge">
<title>diagnostic aid&#45;&gt;named thing</title>
<path fill="none" stroke="black" d="M587.88,-99.89C513.02,-95.01 393.13,-85.39 290.54,-69 234.03,-59.97 170.36,-45.05 125.94,-33.86"/>
<polygon fill="black" stroke="black" points="126.75,-30.46 116.2,-31.39 125.03,-37.24 126.75,-30.46"/>
<text text-anchor="middle" x="304.54" y="-57.8" font-family="Times,serif" font-size="14.00">is_a</text>
</g>
<!-- id -->
<g id="node3" class="node">
<title>id</title>
<ellipse fill="none" stroke="blue" cx="195.54" cy="-18" rx="38.19" ry="18"/>
<text text-anchor="middle" x="195.54" y="-14.3" font-family="Times,serif" font-size="14.00">string</text>
</g>
<!-- diagnostic aid&#45;&gt;id -->
<g id="edge2" class="edge">
<title>diagnostic aid&#45;&gt;id</title>
<path fill="none" stroke="blue" d="M591.61,-97.63C508.05,-88.8 363.53,-69.95 243.54,-36 240.44,-35.12 237.24,-34.15 234.05,-33.12"/>
<polygon fill="blue" stroke="blue" points="235.13,-29.8 224.54,-29.95 232.92,-36.44 235.13,-29.8"/>
<text text-anchor="middle" x="386.54" y="-57.8" font-family="Times,serif" font-size="14.00">id</text>
</g>
<!-- iri -->
<g id="node4" class="node">
<title>iri</title>
<ellipse fill="none" stroke="blue" cx="296.54" cy="-18" rx="44.39" ry="18"/>
<text text-anchor="middle" x="296.54" y="-14.3" font-family="Times,serif" font-size="14.00">iri type</text>
</g>
<!-- diagnostic aid&#45;&gt;iri -->
<g id="edge3" class="edge">
<title>diagnostic aid&#45;&gt;iri</title>
<path fill="none" stroke="blue" d="M601.08,-93.75C564.94,-87.26 517.94,-78.35 476.54,-69 420.08,-56.25 406.17,-52.03 350.54,-36 347.03,-34.99 343.4,-33.91 339.76,-32.81"/>
<polygon fill="blue" stroke="blue" points="340.76,-29.45 330.17,-29.86 338.7,-36.15 340.76,-29.45"/>
<text text-anchor="middle" x="484.54" y="-57.8" font-family="Times,serif" font-size="14.00">iri</text>
</g>
<!-- type -->
<g id="node5" class="node">
<title>type</title>
<ellipse fill="none" stroke="blue" cx="397.54" cy="-18" rx="38.19" ry="18"/>
<text text-anchor="middle" x="397.54" y="-14.3" font-family="Times,serif" font-size="14.00">string</text>
</g>
<!-- diagnostic aid&#45;&gt;type -->
<g id="edge4" class="edge">
<title>diagnostic aid&#45;&gt;type</title>
<path fill="none" stroke="blue" d="M614.07,-90.82C592.02,-84.44 565.36,-76.55 541.54,-69 498.14,-55.24 487.51,-51.08 444.54,-36 441.86,-35.06 439.09,-34.08 436.3,-33.08"/>
<polygon fill="blue" stroke="blue" points="437.44,-29.78 426.85,-29.7 435.08,-36.37 437.44,-29.78"/>
<text text-anchor="middle" x="557.54" y="-57.8" font-family="Times,serif" font-size="14.00">type</text>
</g>
<!-- name -->
<g id="node6" class="node">
<title>name</title>
<ellipse fill="none" stroke="blue" cx="510.54" cy="-18" rx="56.59" ry="18"/>
<text text-anchor="middle" x="510.54" y="-14.3" font-family="Times,serif" font-size="14.00">label type</text>
</g>
<!-- diagnostic aid&#45;&gt;name -->
<g id="edge5" class="edge">
<title>diagnostic aid&#45;&gt;name</title>
<path fill="none" stroke="blue" d="M632.68,-88.21C608.28,-74.38 572.68,-54.21 546.2,-39.21"/>
<polygon fill="blue" stroke="blue" points="547.67,-36.02 537.25,-34.13 544.22,-42.11 547.67,-36.02"/>
<text text-anchor="middle" x="614.54" y="-57.8" font-family="Times,serif" font-size="14.00">name</text>
</g>
<!-- description -->
<g id="node7" class="node">
<title>description</title>
<ellipse fill="none" stroke="blue" cx="660.54" cy="-18" rx="75.29" ry="18"/>
<text text-anchor="middle" x="660.54" y="-14.3" font-family="Times,serif" font-size="14.00">narrative text</text>
</g>
<!-- diagnostic aid&#45;&gt;description -->
<g id="edge6" class="edge">
<title>diagnostic aid&#45;&gt;description</title>
<path fill="none" stroke="blue" d="M660.54,-86.8C660.54,-75.16 660.54,-59.55 660.54,-46.24"/>
<polygon fill="blue" stroke="blue" points="664.04,-46.18 660.54,-36.18 657.04,-46.18 664.04,-46.18"/>
<text text-anchor="middle" x="701.04" y="-57.8" font-family="Times,serif" font-size="14.00">description</text>
</g>
<!-- has attribute -->
<g id="node8" class="node">
<title>has attribute</title>
<ellipse fill="none" stroke="blue" cx="805.54" cy="-18" rx="51.99" ry="18"/>
<text text-anchor="middle" x="805.54" y="-14.3" font-family="Times,serif" font-size="14.00">attribute</text>
</g>
<!-- diagnostic aid&#45;&gt;has attribute -->
<g id="edge7" class="edge">
<title>diagnostic aid&#45;&gt;has attribute</title>
<path fill="none" stroke="blue" d="M701.97,-89.86C716.24,-84.24 732.01,-77.16 745.54,-69 758.13,-61.41 770.81,-51.29 781.25,-42.13"/>
<polygon fill="blue" stroke="blue" points="783.67,-44.67 788.76,-35.38 778.99,-39.46 783.67,-44.67"/>
<text text-anchor="middle" x="814.54" y="-57.8" font-family="Times,serif" font-size="14.00">has attribute</text>
</g>
<!-- provided by -->
<g id="node9" class="node">
<title>provided by</title>
<ellipse fill="none" stroke="blue" cx="913.54" cy="-18" rx="38.19" ry="18"/>
<text text-anchor="middle" x="913.54" y="-14.3" font-family="Times,serif" font-size="14.00">string</text>
</g>
<!-- diagnostic aid&#45;&gt;provided by -->
<g id="edge8" class="edge">
<title>diagnostic aid&#45;&gt;provided by</title>
<path fill="none" stroke="blue" d="M715.14,-92.52C724.91,-90.59 735.02,-88.67 744.54,-87 798.1,-77.6 817.24,-93.95 865.54,-69 877.4,-62.87 888,-52.67 896.2,-43.07"/>
<polygon fill="blue" stroke="blue" points="898.95,-45.23 902.5,-35.25 893.5,-40.84 898.95,-45.23"/>
<text text-anchor="middle" x="928.04" y="-57.8" font-family="Times,serif" font-size="14.00">provided by</text>
</g>
<!-- xref -->
<g id="node10" class="node">
<title>xref</title>
<ellipse fill="none" stroke="blue" cx="1027.54" cy="-18" rx="57.39" ry="18"/>
<text text-anchor="middle" x="1027.54" y="-14.3" font-family="Times,serif" font-size="14.00">uriorcurie</text>
</g>
<!-- diagnostic aid&#45;&gt;xref -->
<g id="edge9" class="edge">
<title>diagnostic aid&#45;&gt;xref</title>
<path fill="none" stroke="blue" d="M713.7,-92.23C723.9,-90.26 734.52,-88.4 744.54,-87 795.32,-79.9 927.67,-89.77 974.54,-69 987.5,-63.26 999.27,-52.96 1008.41,-43.2"/>
<polygon fill="blue" stroke="blue" points="1011.14,-45.39 1015.14,-35.58 1005.9,-40.76 1011.14,-45.39"/>
<text text-anchor="middle" x="1011.04" y="-57.8" font-family="Times,serif" font-size="14.00">xref</text>
</g>
<!-- full name -->
<g id="node11" class="node">
<title>full name</title>
<ellipse fill="none" stroke="blue" cx="1159.54" cy="-18" rx="56.59" ry="18"/>
<text text-anchor="middle" x="1159.54" y="-14.3" font-family="Times,serif" font-size="14.00">label type</text>
</g>
<!-- diagnostic aid&#45;&gt;full name -->
<g id="edge10" class="edge">
<title>diagnostic aid&#45;&gt;full name</title>
<path fill="none" stroke="blue" d="M713.68,-92.11C723.88,-90.15 734.51,-88.33 744.54,-87 870.37,-70.37 905.55,-96.09 1029.54,-69 1061.17,-62.09 1095.28,-48.73 1120.62,-37.56"/>
<polygon fill="blue" stroke="blue" points="1122.19,-40.69 1129.88,-33.4 1119.32,-34.3 1122.19,-40.69"/>
<text text-anchor="middle" x="1111.04" y="-57.8" font-family="Times,serif" font-size="14.00">full name</text>
</g>
<!-- category -->
<g id="node12" class="node">
<title>category</title>
<ellipse fill="none" stroke="black" cx="1285.54" cy="-18" rx="51.19" ry="18"/>
<text text-anchor="middle" x="1285.54" y="-14.3" font-family="Times,serif" font-size="14.00">category</text>
</g>
<!-- diagnostic aid&#45;&gt;category -->
<g id="edge11" class="edge">
<title>diagnostic aid&#45;&gt;category</title>
<path fill="none" stroke="blue" d="M713.21,-92.04C723.55,-90.06 734.35,-88.25 744.54,-87 922.94,-65.11 972.29,-104.22 1148.54,-69 1182.6,-62.19 1219.49,-48.33 1246.4,-36.92"/>
<polygon fill="blue" stroke="blue" points="1248.04,-40.02 1255.84,-32.85 1245.27,-33.6 1248.04,-40.02"/>
<text text-anchor="middle" x="1230.04" y="-57.8" font-family="Times,serif" font-size="14.00">category</text>
</g>
<!-- named thing_category -->
<g id="node13" class="node">
<title>named thing_category</title>
<ellipse fill="none" stroke="blue" cx="828.54" cy="-105" rx="74.99" ry="18"/>
<text text-anchor="middle" x="828.54" y="-101.3" font-family="Times,serif" font-size="14.00">category type</text>
</g>
</g>
</svg>
