<?xml version="1.0" encoding="UTF-8" standalone="no"?>
<!DOCTYPE svg PUBLIC "-//W3C//DTD SVG 1.1//EN"
 "http://www.w3.org/Graphics/SVG/1.1/DTD/svg11.dtd">
<!-- Generated by graphviz version 2.40.1 (20161225.0304)
 -->
<!-- Title: %3 Pages: 1 -->
<svg width="1578pt" height="289pt"
 viewBox="0.00 0.00 1578.22 289.00" xmlns="http://www.w3.org/2000/svg" xmlns:xlink="http://www.w3.org/1999/xlink">
<g id="graph0" class="graph" transform="scale(1 1) rotate(0) translate(4 285)">
<title>%3</title>
<polygon fill="#ffffff" stroke="transparent" points="-4,4 -4,-285 1574.224,-285 1574.224,4 -4,4"/>
<!-- disease or phenotypic feature association to location association -->
<g id="node1" class="node">
<title>disease or phenotypic feature association to location association</title>
<ellipse fill="none" stroke="#000000" cx="790.9729" cy="-263" rx="236.0606" ry="18"/>
<text text-anchor="middle" x="790.9729" y="-258.8" font-family="Times,serif" font-size="14.00" fill="#000000">disease or phenotypic feature association to location association</text>
</g>
<!-- disease or phenotypic feature association to thing association -->
<g id="node2" class="node">
<title>disease or phenotypic feature association to thing association</title>
<ellipse fill="none" stroke="#000000" cx="225.9729" cy="-177" rx="225.9458" ry="18"/>
<text text-anchor="middle" x="225.9729" y="-172.8" font-family="Times,serif" font-size="14.00" fill="#000000">disease or phenotypic feature association to thing association</text>
</g>
<!-- disease or phenotypic feature association to location association&#45;&gt;disease or phenotypic feature association to thing association -->
<g id="edge1" class="edge">
<title>disease or phenotypic feature association to location association&#45;&gt;disease or phenotypic feature association to thing association</title>
<path fill="none" stroke="#000000" d="M650.9031,-248.4895C599.3921,-242.6003 540.6531,-235.236 487.4211,-227 430.1558,-218.1399 366.2641,-205.9638 315.9759,-195.8456"/>
<polygon fill="#000000" stroke="#000000" points="316.6008,-192.4012 306.1056,-193.851 315.2142,-199.2625 316.6008,-192.4012"/>
<text text-anchor="middle" x="499.2488" y="-215.8" font-family="Times,serif" font-size="14.00" fill="#000000">is_a</text>
</g>
<!-- id -->
<g id="node3" class="node">
<title>id</title>
<ellipse fill="none" stroke="#000000" cx="496.9729" cy="-177" rx="27" ry="18"/>
<text text-anchor="middle" x="496.9729" y="-172.8" font-family="Times,serif" font-size="14.00" fill="#000000">id</text>
</g>
<!-- disease or phenotypic feature association to location association&#45;&gt;id -->
<g id="edge2" class="edge">
<title>disease or phenotypic feature association to location association&#45;&gt;id</title>
<path fill="none" stroke="#0000ff" d="M617.356,-250.7809C578.3078,-245.4484 543.5458,-237.8368 527.0832,-227 518.63,-221.4354 512.1896,-212.6024 507.4781,-203.8982"/>
<polygon fill="#0000ff" stroke="#0000ff" points="510.5235,-202.1552 503.0308,-194.6645 504.2168,-205.1928 510.5235,-202.1552"/>
<text text-anchor="middle" x="533.4177" y="-215.8" font-family="Times,serif" font-size="14.00" fill="#000000">id</text>
</g>
<!-- subject -->
<g id="node5" class="node">
<title>subject</title>
<ellipse fill="none" stroke="#000000" cx="629.9729" cy="-177" rx="35.3129" ry="18"/>
<text text-anchor="middle" x="629.9729" y="-172.8" font-family="Times,serif" font-size="14.00" fill="#000000">subject</text>
</g>
<!-- disease or phenotypic feature association to location association&#45;&gt;subject -->
<g id="edge3" class="edge">
<title>disease or phenotypic feature association to location association&#45;&gt;subject</title>
<path fill="none" stroke="#0000ff" d="M696.2254,-246.4273C674.581,-241.0526 655.5204,-234.5082 647.3176,-227 641.0272,-221.2423 637.0182,-213.0874 634.4631,-205.0303"/>
<polygon fill="#0000ff" stroke="#0000ff" points="637.7877,-203.9009 631.9419,-195.0648 631.0015,-205.6178 637.7877,-203.9009"/>
<text text-anchor="middle" x="667.8005" y="-215.8" font-family="Times,serif" font-size="14.00" fill="#000000">subject</text>
</g>
<!-- relation -->
<g id="node7" class="node">
<title>relation</title>
<ellipse fill="none" stroke="#0000ff" cx="609.9729" cy="-18" rx="35.3048" ry="18"/>
<text text-anchor="middle" x="609.9729" y="-13.8" font-family="Times,serif" font-size="14.00" fill="#000000">iri type</text>
</g>
<!-- disease or phenotypic feature association to location association&#45;&gt;relation -->
<g id="edge4" class="edge">
<title>disease or phenotypic feature association to location association&#45;&gt;relation</title>
<path fill="none" stroke="#0000ff" d="M693.733,-246.4921C673.5441,-241.4726 652.7217,-235.0754 633.9729,-227 610.4248,-216.8575 599.8475,-216.561 585.9729,-195 556.1652,-148.6792 579.2764,-81.4243 596.2209,-44.5861"/>
<polygon fill="#0000ff" stroke="#0000ff" points="599.4206,-46.0077 600.5735,-35.4757 593.1045,-42.99 599.4206,-46.0077"/>
<text text-anchor="middle" x="594.3523" y="-129.8" font-family="Times,serif" font-size="14.00" fill="#000000">relation</text>
</g>
<!-- object -->
<g id="node8" class="node">
<title>object</title>
<ellipse fill="none" stroke="#000000" cx="669.9729" cy="-91" rx="31.9306" ry="18"/>
<text text-anchor="middle" x="669.9729" y="-86.8" font-family="Times,serif" font-size="14.00" fill="#000000">object</text>
</g>
<!-- disease or phenotypic feature association to location association&#45;&gt;object -->
<g id="edge5" class="edge">
<title>disease or phenotypic feature association to location association&#45;&gt;object</title>
<path fill="none" stroke="#0000ff" d="M762.2907,-244.9841C744.9265,-232.7698 723.5459,-215.205 709.7659,-195 691.8061,-168.6665 698.864,-156.5737 686.9729,-127 685.7352,-123.9218 684.364,-120.7324 682.9529,-117.5815"/>
<polygon fill="#0000ff" stroke="#0000ff" points="686.0751,-115.9948 678.6932,-108.3949 679.7246,-118.9394 686.0751,-115.9948"/>
<text text-anchor="middle" x="727.0764" y="-172.8" font-family="Times,serif" font-size="14.00" fill="#000000">object</text>
</g>
<!-- negated -->
<g id="node10" class="node">
<title>negated</title>
<ellipse fill="none" stroke="#0000ff" cx="790.9729" cy="-177" rx="38.2024" ry="18"/>
<text text-anchor="middle" x="790.9729" y="-172.8" font-family="Times,serif" font-size="14.00" fill="#000000">boolean</text>
</g>
<!-- disease or phenotypic feature association to location association&#45;&gt;negated -->
<g id="edge6" class="edge">
<title>disease or phenotypic feature association to location association&#45;&gt;negated</title>
<path fill="none" stroke="#0000ff" d="M790.9729,-244.7616C790.9729,-233.3597 790.9729,-218.4342 790.9729,-205.494"/>
<polygon fill="#0000ff" stroke="#0000ff" points="794.473,-205.2121 790.9729,-195.2121 787.473,-205.2121 794.473,-205.2121"/>
<text text-anchor="middle" x="812.7385" y="-215.8" font-family="Times,serif" font-size="14.00" fill="#000000">negated</text>
</g>
<!-- association type -->
<g id="node11" class="node">
<title>association type</title>
<ellipse fill="none" stroke="#0000ff" cx="907.9729" cy="-177" rx="60.9049" ry="18"/>
<text text-anchor="middle" x="907.9729" y="-172.8" font-family="Times,serif" font-size="14.00" fill="#000000">ontology class</text>
</g>
<!-- disease or phenotypic feature association to location association&#45;&gt;association type -->
<g id="edge7" class="edge">
<title>disease or phenotypic feature association to location association&#45;&gt;association type</title>
<path fill="none" stroke="#0000ff" d="M815.4999,-244.9716C833.3613,-231.8427 857.6887,-213.961 876.9084,-199.8337"/>
<polygon fill="#0000ff" stroke="#0000ff" points="879.0833,-202.5789 885.0678,-193.8362 874.9374,-196.9387 879.0833,-202.5789"/>
<text text-anchor="middle" x="901.8782" y="-215.8" font-family="Times,serif" font-size="14.00" fill="#000000">association type</text>
</g>
<!-- qualifiers -->
<g id="node12" class="node">
<title>qualifiers</title>
<ellipse fill="none" stroke="#0000ff" cx="1047.9729" cy="-177" rx="60.9049" ry="18"/>
<text text-anchor="middle" x="1047.9729" y="-172.8" font-family="Times,serif" font-size="14.00" fill="#000000">ontology class</text>
</g>
<!-- disease or phenotypic feature association to location association&#45;&gt;qualifiers -->
<g id="edge8" class="edge">
<title>disease or phenotypic feature association to location association&#45;&gt;qualifiers</title>
<path fill="none" stroke="#0000ff" d="M883.5083,-246.383C905.9126,-241.2146 929.5654,-234.7811 950.9729,-227 971.8979,-219.3943 994.052,-208.2352 1011.8973,-198.3877"/>
<polygon fill="#0000ff" stroke="#0000ff" points="1013.8022,-201.3321 1020.8072,-193.3834 1010.3743,-195.2289 1013.8022,-201.3321"/>
<text text-anchor="middle" x="1008.0247" y="-215.8" font-family="Times,serif" font-size="14.00" fill="#000000">qualifiers</text>
</g>
<!-- publications -->
<g id="node13" class="node">
<title>publications</title>
<ellipse fill="none" stroke="#0000ff" cx="1176.9729" cy="-177" rx="49.7878" ry="18"/>
<text text-anchor="middle" x="1176.9729" y="-172.8" font-family="Times,serif" font-size="14.00" fill="#000000">publication</text>
</g>
<!-- disease or phenotypic feature association to location association&#45;&gt;publications -->
<g id="edge9" class="edge">
<title>disease or phenotypic feature association to location association&#45;&gt;publications</title>
<path fill="none" stroke="#0000ff" d="M926.5318,-248.2309C963.0032,-242.9055 1002.2383,-235.9351 1037.9729,-227 1071.2107,-218.6892 1107.6118,-205.436 1134.823,-194.6621"/>
<polygon fill="#0000ff" stroke="#0000ff" points="1136.4302,-197.7886 1144.4095,-190.8186 1133.8252,-191.2913 1136.4302,-197.7886"/>
<text text-anchor="middle" x="1119.1902" y="-215.8" font-family="Times,serif" font-size="14.00" fill="#000000">publications</text>
</g>
<!-- provided by -->
<g id="node14" class="node">
<title>provided by</title>
<ellipse fill="none" stroke="#0000ff" cx="1284.9729" cy="-177" rx="40.1317" ry="18"/>
<text text-anchor="middle" x="1284.9729" y="-172.8" font-family="Times,serif" font-size="14.00" fill="#000000">provider</text>
</g>
<!-- disease or phenotypic feature association to location association&#45;&gt;provided by -->
<g id="edge10" class="edge">
<title>disease or phenotypic feature association to location association&#45;&gt;provided by</title>
<path fill="none" stroke="#0000ff" d="M962.9543,-250.5894C1039.3744,-244.1493 1120.2621,-235.798 1156.9729,-227 1188.6543,-219.4073 1222.9572,-205.6881 1248.0705,-194.5387"/>
<polygon fill="#0000ff" stroke="#0000ff" points="1249.5455,-197.713 1257.2208,-190.4095 1246.6662,-191.3325 1249.5455,-197.713"/>
<text text-anchor="middle" x="1234.6057" y="-215.8" font-family="Times,serif" font-size="14.00" fill="#000000">provided by</text>
</g>
<!-- association slot -->
<g id="node15" class="node">
<title>association slot</title>
<ellipse fill="none" stroke="#0000ff" cx="1373.9729" cy="-177" rx="30.0035" ry="18"/>
<text text-anchor="middle" x="1373.9729" y="-172.8" font-family="Times,serif" font-size="14.00" fill="#000000">string</text>
</g>
<!-- disease or phenotypic feature association to location association&#45;&gt;association slot -->
<g id="edge11" class="edge">
<title>disease or phenotypic feature association to location association&#45;&gt;association slot</title>
<path fill="none" stroke="#0000ff" d="M960.9716,-250.4612C1098.6085,-240.2812 1270.041,-227.5248 1271.9729,-227 1297.6034,-220.0377 1324.4951,-206.5636 1344.2279,-195.3556"/>
<polygon fill="#0000ff" stroke="#0000ff" points="1346.1463,-198.2888 1353.0312,-190.2359 1342.6272,-192.2377 1346.1463,-198.2888"/>
<text text-anchor="middle" x="1349.9402" y="-215.8" font-family="Times,serif" font-size="14.00" fill="#000000">association slot</text>
</g>
<!-- association_id -->
<g id="node4" class="node">
<title>association_id</title>
<ellipse fill="none" stroke="#0000ff" cx="1104.9729" cy="-263" rx="59.4427" ry="18"/>
<text text-anchor="middle" x="1104.9729" y="-258.8" font-family="Times,serif" font-size="14.00" fill="#000000">identifier type</text>
</g>
<!-- subject&#45;&gt;relation -->
<g id="edge13" class="edge">
<title>subject&#45;&gt;relation</title>
<path fill="none" stroke="#000000" stroke-dasharray="1,5" d="M627.6786,-158.7607C624.2125,-131.2051 617.6125,-78.735 613.5229,-46.2226"/>
<polygon fill="#000000" stroke="#000000" points="616.9611,-45.5116 612.2404,-36.0266 610.0159,-46.3853 616.9611,-45.5116"/>
</g>
<!-- subject&#45;&gt;object -->
<g id="edge12" class="edge">
<title>subject&#45;&gt;object</title>
<path fill="none" stroke="#000000" d="M633.5502,-158.8695C635.8602,-149.1273 639.3533,-137.0813 644.2141,-127 646.0029,-123.29 648.1717,-119.5555 650.483,-115.9695"/>
<polygon fill="#000000" stroke="#000000" points="653.5622,-117.6712 656.3864,-107.4597 647.8107,-113.6812 653.5622,-117.6712"/>
<text text-anchor="middle" x="666.3523" y="-129.8" font-family="Times,serif" font-size="14.00" fill="#000000">relation</text>
</g>
<!-- disease or phenotypic feature association to thing association_subject -->
<g id="node6" class="node">
<title>disease or phenotypic feature association to thing association_subject</title>
<ellipse fill="none" stroke="#0000ff" cx="1295.9729" cy="-263" rx="113.4642" ry="18"/>
<text text-anchor="middle" x="1295.9729" y="-258.8" font-family="Times,serif" font-size="14.00" fill="#000000">disease or phenotypic feature</text>
</g>
<!-- object&#45;&gt;relation -->
<g id="edge14" class="edge">
<title>object&#45;&gt;relation</title>
<path fill="none" stroke="#000000" stroke-dasharray="1,5" d="M656.358,-74.4352C648.6644,-65.0747 638.897,-53.191 630.3115,-42.7453"/>
<polygon fill="#000000" stroke="#000000" points="632.7952,-40.255 623.7416,-34.752 627.3874,-44.6998 632.7952,-40.255"/>
</g>
<!-- disease or phenotypic feature association to location association_object -->
<g id="node9" class="node">
<title>disease or phenotypic feature association to location association_object</title>
<ellipse fill="none" stroke="#0000ff" cx="1498.9729" cy="-263" rx="71.0031" ry="18"/>
<text text-anchor="middle" x="1498.9729" y="-258.8" font-family="Times,serif" font-size="14.00" fill="#000000">anatomical entity</text>
</g>
</g>
</svg>
