<?xml version="1.0" encoding="UTF-8" standalone="no"?>
<!DOCTYPE svg PUBLIC "-//W3C//DTD SVG 1.1//EN"
 "http://www.w3.org/Graphics/SVG/1.1/DTD/svg11.dtd">
<!-- Generated by graphviz version 2.40.1 (20161225.0304)
 -->
<!-- Title: %3 Pages: 1 -->
<svg width="2081pt" height="291pt"
 viewBox="0.00 0.00 2080.97 291.00" xmlns="http://www.w3.org/2000/svg" xmlns:xlink="http://www.w3.org/1999/xlink">
<g id="graph0" class="graph" transform="scale(1 1) rotate(0) translate(4 287)">
<title>%3</title>
<polygon fill="#ffffff" stroke="transparent" points="-4,4 -4,-287 2076.9735,-287 2076.9735,4 -4,4"/>
<!-- disease or phenotypic feature association to location association -->
<g id="node1" class="node">
<title>disease or phenotypic feature association to location association</title>
<ellipse fill="none" stroke="#000000" cx="1228.8299" cy="-265" rx="237.4581" ry="18"/>
<text text-anchor="middle" x="1228.8299" y="-261.3" font-family="Times,serif" font-size="14.00" fill="#000000">disease or phenotypic feature association to location association</text>
</g>
<!-- disease or phenotypic feature association to thing association -->
<g id="node2" class="node">
<title>disease or phenotypic feature association to thing association</title>
<ellipse fill="none" stroke="#000000" cx="226.8299" cy="-178" rx="226.6599" ry="18"/>
<text text-anchor="middle" x="226.8299" y="-174.3" font-family="Times,serif" font-size="14.00" fill="#000000">disease or phenotypic feature association to thing association</text>
</g>
<!-- disease or phenotypic feature association to location association&#45;&gt;disease or phenotypic feature association to thing association -->
<g id="edge1" class="edge">
<title>disease or phenotypic feature association to location association&#45;&gt;disease or phenotypic feature association to thing association</title>
<path fill="none" stroke="#000000" d="M1010.4468,-257.9258C883.1524,-252.5677 719.6524,-243.5677 574.8299,-229 493.0355,-220.7723 401.027,-207.0936 332.1689,-195.9727"/>
<polygon fill="#000000" stroke="#000000" points="332.6131,-192.499 322.1815,-194.3514 331.4914,-199.4086 332.6131,-192.499"/>
<text text-anchor="middle" x="585.8299" y="-217.8" font-family="Times,serif" font-size="14.00" fill="#000000">is_a</text>
</g>
<!-- id -->
<g id="node3" class="node">
<title>id</title>
<ellipse fill="none" stroke="#0000ff" cx="501.8299" cy="-178" rx="30.5947" ry="18"/>
<text text-anchor="middle" x="501.8299" y="-174.3" font-family="Times,serif" font-size="14.00" fill="#000000">string</text>
</g>
<!-- disease or phenotypic feature association to location association&#45;&gt;id -->
<g id="edge2" class="edge">
<title>disease or phenotypic feature association to location association&#45;&gt;id</title>
<path fill="none" stroke="#0000ff" d="M1027.5974,-255.4302C898.8302,-248.6094 744.1063,-238.9235 678.8299,-229 616.9109,-219.5869 601.0887,-216.272 541.8299,-196 539.5805,-195.2305 537.2849,-194.381 534.9877,-193.4824"/>
<polygon fill="#0000ff" stroke="#0000ff" points="536.2275,-190.2074 525.6506,-189.5917 533.535,-196.6689 536.2275,-190.2074"/>
<text text-anchor="middle" x="684.3299" y="-217.8" font-family="Times,serif" font-size="14.00" fill="#000000">id</text>
</g>
<!-- iri -->
<g id="node4" class="node">
<title>iri</title>
<ellipse fill="none" stroke="#0000ff" cx="586.8299" cy="-178" rx="36.2938" ry="18"/>
<text text-anchor="middle" x="586.8299" y="-174.3" font-family="Times,serif" font-size="14.00" fill="#000000">iri type</text>
</g>
<!-- disease or phenotypic feature association to location association&#45;&gt;iri -->
<g id="edge3" class="edge">
<title>disease or phenotypic feature association to location association&#45;&gt;iri</title>
<path fill="none" stroke="#0000ff" d="M1024.0865,-255.887C944.3951,-250.5283 852.5249,-242.1182 769.8299,-229 707.9729,-219.1874 692.5757,-214.7884 632.8299,-196 630.0689,-195.1317 627.2363,-194.1796 624.3991,-193.1807"/>
<polygon fill="#0000ff" stroke="#0000ff" points="625.4255,-189.8289 614.832,-189.6587 623.0072,-196.398 625.4255,-189.8289"/>
<text text-anchor="middle" x="776.3299" y="-217.8" font-family="Times,serif" font-size="14.00" fill="#000000">iri</text>
</g>
<!-- name -->
<g id="node5" class="node">
<title>name</title>
<ellipse fill="none" stroke="#0000ff" cx="686.8299" cy="-178" rx="45.4919" ry="18"/>
<text text-anchor="middle" x="686.8299" y="-174.3" font-family="Times,serif" font-size="14.00" fill="#000000">label type</text>
</g>
<!-- disease or phenotypic feature association to location association&#45;&gt;name -->
<g id="edge4" class="edge">
<title>disease or phenotypic feature association to location association&#45;&gt;name</title>
<path fill="none" stroke="#0000ff" d="M1032.2547,-254.8795C971.4439,-249.5422 904.5042,-241.4033 843.8299,-229 803.9252,-220.8426 759.9404,-206.0244 728.704,-194.4551"/>
<polygon fill="#0000ff" stroke="#0000ff" points="729.6238,-191.062 719.0316,-190.8256 727.1644,-197.6158 729.6238,-191.062"/>
<text text-anchor="middle" x="859.3299" y="-217.8" font-family="Times,serif" font-size="14.00" fill="#000000">name</text>
</g>
<!-- description -->
<g id="node6" class="node">
<title>description</title>
<ellipse fill="none" stroke="#0000ff" cx="807.8299" cy="-178" rx="57.6901" ry="18"/>
<text text-anchor="middle" x="807.8299" y="-174.3" font-family="Times,serif" font-size="14.00" fill="#000000">narrative text</text>
</g>
<!-- disease or phenotypic feature association to location association&#45;&gt;description -->
<g id="edge5" class="edge">
<title>disease or phenotypic feature association to location association&#45;&gt;description</title>
<path fill="none" stroke="#0000ff" d="M1073.5795,-251.3879C1012.0327,-245.0554 949.0307,-237.1332 919.8299,-229 893.833,-221.7592 866.2246,-209.2483 844.9235,-198.4303"/>
<polygon fill="#0000ff" stroke="#0000ff" points="846.3965,-195.2517 835.9069,-193.7616 843.1777,-201.4678 846.3965,-195.2517"/>
<text text-anchor="middle" x="950.3299" y="-217.8" font-family="Times,serif" font-size="14.00" fill="#000000">description</text>
</g>
<!-- source -->
<g id="node7" class="node">
<title>source</title>
<ellipse fill="none" stroke="#0000ff" cx="928.8299" cy="-178" rx="45.4919" ry="18"/>
<text text-anchor="middle" x="928.8299" y="-174.3" font-family="Times,serif" font-size="14.00" fill="#000000">label type</text>
</g>
<!-- disease or phenotypic feature association to location association&#45;&gt;source -->
<g id="edge6" class="edge">
<title>disease or phenotypic feature association to location association&#45;&gt;source</title>
<path fill="none" stroke="#0000ff" d="M1093.2,-250.223C1066.4163,-245.1039 1038.8647,-238.2282 1013.8299,-229 994.5275,-221.8849 974.7181,-210.2944 959.0838,-199.9595"/>
<polygon fill="#0000ff" stroke="#0000ff" points="960.6362,-196.7831 950.3965,-194.0629 956.7049,-202.575 960.6362,-196.7831"/>
<text text-anchor="middle" x="1031.8299" y="-217.8" font-family="Times,serif" font-size="14.00" fill="#000000">source</text>
</g>
<!-- provided by -->
<g id="node8" class="node">
<title>provided by</title>
<ellipse fill="none" stroke="#0000ff" cx="1021.8299" cy="-178" rx="29.795" ry="18"/>
<text text-anchor="middle" x="1021.8299" y="-174.3" font-family="Times,serif" font-size="14.00" fill="#000000">agent</text>
</g>
<!-- disease or phenotypic feature association to location association&#45;&gt;provided by -->
<g id="edge7" class="edge">
<title>disease or phenotypic feature association to location association&#45;&gt;provided by</title>
<path fill="none" stroke="#0000ff" d="M1122.2271,-248.8236C1105.0976,-243.8765 1088.0241,-237.4214 1072.8299,-229 1060.8511,-222.3608 1049.7986,-212.0853 1041.0675,-202.4925"/>
<polygon fill="#0000ff" stroke="#0000ff" points="1043.5024,-199.9577 1034.3099,-194.69 1038.211,-204.5405 1043.5024,-199.9577"/>
<text text-anchor="middle" x="1105.8299" y="-217.8" font-family="Times,serif" font-size="14.00" fill="#000000">provided by</text>
</g>
<!-- has attribute -->
<g id="node9" class="node">
<title>has attribute</title>
<ellipse fill="none" stroke="#0000ff" cx="1109.8299" cy="-178" rx="40.0939" ry="18"/>
<text text-anchor="middle" x="1109.8299" y="-174.3" font-family="Times,serif" font-size="14.00" fill="#000000">attribute</text>
</g>
<!-- disease or phenotypic feature association to location association&#45;&gt;has attribute -->
<g id="edge8" class="edge">
<title>disease or phenotypic feature association to location association&#45;&gt;has attribute</title>
<path fill="none" stroke="#0000ff" d="M1187.5916,-247.1255C1177.4482,-241.9242 1166.903,-235.7903 1157.8299,-229 1147.7408,-221.4493 1137.9536,-211.6535 1129.8774,-202.6679"/>
<polygon fill="#0000ff" stroke="#0000ff" points="1132.4602,-200.3041 1123.256,-195.0568 1127.179,-204.8986 1132.4602,-200.3041"/>
<text text-anchor="middle" x="1191.3299" y="-217.8" font-family="Times,serif" font-size="14.00" fill="#000000">has attribute</text>
</g>
<!-- predicate -->
<g id="node10" class="node">
<title>predicate</title>
<ellipse fill="none" stroke="#0000ff" cx="1228.8299" cy="-178" rx="60.3893" ry="18"/>
<text text-anchor="middle" x="1228.8299" y="-174.3" font-family="Times,serif" font-size="14.00" fill="#000000">predicate type</text>
</g>
<!-- disease or phenotypic feature association to location association&#45;&gt;predicate -->
<g id="edge9" class="edge">
<title>disease or phenotypic feature association to location association&#45;&gt;predicate</title>
<path fill="none" stroke="#0000ff" d="M1228.8299,-246.9735C1228.8299,-235.1918 1228.8299,-219.5607 1228.8299,-206.1581"/>
<polygon fill="#0000ff" stroke="#0000ff" points="1232.33,-206.0033 1228.8299,-196.0034 1225.33,-206.0034 1232.33,-206.0033"/>
<text text-anchor="middle" x="1253.8299" y="-217.8" font-family="Times,serif" font-size="14.00" fill="#000000">predicate</text>
</g>
<!-- relation -->
<g id="node11" class="node">
<title>relation</title>
<ellipse fill="none" stroke="#0000ff" cx="1866.8299" cy="-18" rx="45.4919" ry="18"/>
<text text-anchor="middle" x="1866.8299" y="-14.3" font-family="Times,serif" font-size="14.00" fill="#000000">uriorcurie</text>
</g>
<!-- disease or phenotypic feature association to location association&#45;&gt;relation -->
<g id="edge10" class="edge">
<title>disease or phenotypic feature association to location association&#45;&gt;relation</title>
<path fill="none" stroke="#0000ff" d="M1259.5602,-247.027C1267.5316,-241.7079 1275.8347,-235.5415 1282.8299,-229 1311.0735,-202.5878 1303.667,-181.4675 1335.8299,-160 1487.7661,-58.5883 1709.3832,-29.4412 1811.5187,-21.1895"/>
<polygon fill="#0000ff" stroke="#0000ff" points="1811.9101,-24.6698 1821.6113,-20.4111 1811.3718,-17.6905 1811.9101,-24.6698"/>
<text text-anchor="middle" x="1410.8299" y="-130.8" font-family="Times,serif" font-size="14.00" fill="#000000">relation</text>
</g>
<!-- negated -->
<g id="node12" class="node">
<title>negated</title>
<ellipse fill="none" stroke="#0000ff" cx="1382.8299" cy="-178" rx="38.1938" ry="18"/>
<text text-anchor="middle" x="1382.8299" y="-174.3" font-family="Times,serif" font-size="14.00" fill="#000000">boolean</text>
</g>
<!-- disease or phenotypic feature association to location association&#45;&gt;negated -->
<g id="edge11" class="edge">
<title>disease or phenotypic feature association to location association&#45;&gt;negated</title>
<path fill="none" stroke="#0000ff" d="M1291.7718,-247.6339C1305.1748,-242.6266 1318.8782,-236.4514 1330.8299,-229 1342.2309,-221.8919 1353.1256,-211.899 1361.9703,-202.6402"/>
<polygon fill="#0000ff" stroke="#0000ff" points="1364.6958,-204.847 1368.8838,-195.115 1359.5409,-200.1112 1364.6958,-204.847"/>
<text text-anchor="middle" x="1371.3299" y="-217.8" font-family="Times,serif" font-size="14.00" fill="#000000">negated</text>
</g>
<!-- qualifiers -->
<g id="node13" class="node">
<title>qualifiers</title>
<ellipse fill="none" stroke="#0000ff" cx="1500.8299" cy="-178" rx="61.99" ry="18"/>
<text text-anchor="middle" x="1500.8299" y="-174.3" font-family="Times,serif" font-size="14.00" fill="#000000">ontology class</text>
</g>
<!-- disease or phenotypic feature association to location association&#45;&gt;qualifiers -->
<g id="edge12" class="edge">
<title>disease or phenotypic feature association to location association&#45;&gt;qualifiers</title>
<path fill="none" stroke="#0000ff" d="M1325.4515,-248.5233C1349.109,-243.3374 1374.1408,-236.8607 1396.8299,-229 1419.7951,-221.0437 1444.2563,-209.2327 1463.6823,-198.98"/>
<polygon fill="#0000ff" stroke="#0000ff" points="1465.3484,-202.0581 1472.5071,-194.2476 1462.0402,-195.8892 1465.3484,-202.0581"/>
<text text-anchor="middle" x="1458.8299" y="-217.8" font-family="Times,serif" font-size="14.00" fill="#000000">qualifiers</text>
</g>
<!-- publications -->
<g id="node14" class="node">
<title>publications</title>
<ellipse fill="none" stroke="#0000ff" cx="1630.8299" cy="-178" rx="50.0912" ry="18"/>
<text text-anchor="middle" x="1630.8299" y="-174.3" font-family="Times,serif" font-size="14.00" fill="#000000">publication</text>
</g>
<!-- disease or phenotypic feature association to location association&#45;&gt;publications -->
<g id="edge13" class="edge">
<title>disease or phenotypic feature association to location association&#45;&gt;publications</title>
<path fill="none" stroke="#0000ff" d="M1371.8657,-250.6084C1410.1607,-245.2876 1451.3276,-238.225 1488.8299,-229 1523.3015,-220.5205 1561.0706,-206.7263 1588.9854,-195.6207"/>
<polygon fill="#0000ff" stroke="#0000ff" points="1590.4586,-198.8007 1598.4267,-191.8178 1587.8432,-192.3076 1590.4586,-198.8007"/>
<text text-anchor="middle" x="1570.3299" y="-217.8" font-family="Times,serif" font-size="14.00" fill="#000000">publications</text>
</g>
<!-- type -->
<g id="node15" class="node">
<title>type</title>
<ellipse fill="none" stroke="#000000" cx="1725.8299" cy="-178" rx="27" ry="18"/>
<text text-anchor="middle" x="1725.8299" y="-174.3" font-family="Times,serif" font-size="14.00" fill="#000000">type</text>
</g>
<!-- disease or phenotypic feature association to location association&#45;&gt;type -->
<g id="edge14" class="edge">
<title>disease or phenotypic feature association to location association&#45;&gt;type</title>
<path fill="none" stroke="#0000ff" d="M1390.6177,-251.8086C1483.6749,-243.8345 1586.3358,-234.2293 1607.8299,-229 1639.0869,-221.3954 1672.5543,-206.1861 1695.8338,-194.3466"/>
<polygon fill="#0000ff" stroke="#0000ff" points="1697.5779,-197.3848 1704.8433,-189.6735 1694.3548,-191.1709 1697.5779,-197.3848"/>
<text text-anchor="middle" x="1663.8299" y="-217.8" font-family="Times,serif" font-size="14.00" fill="#000000">type</text>
</g>
<!-- category -->
<g id="node17" class="node">
<title>category</title>
<ellipse fill="none" stroke="#000000" cx="1811.8299" cy="-178" rx="40.8928" ry="18"/>
<text text-anchor="middle" x="1811.8299" y="-174.3" font-family="Times,serif" font-size="14.00" fill="#000000">category</text>
</g>
<!-- disease or phenotypic feature association to location association&#45;&gt;category -->
<g id="edge15" class="edge">
<title>disease or phenotypic feature association to location association&#45;&gt;category</title>
<path fill="none" stroke="#0000ff" d="M1399.9615,-252.4902C1521.6237,-243.4092 1665.8775,-232.1812 1679.8299,-229 1712.9635,-221.4453 1748.8303,-207.1643 1774.8025,-195.6318"/>
<polygon fill="#0000ff" stroke="#0000ff" points="1776.5732,-198.6725 1784.2457,-191.3662 1773.6915,-192.2932 1776.5732,-198.6725"/>
<text text-anchor="middle" x="1752.3299" y="-217.8" font-family="Times,serif" font-size="14.00" fill="#000000">category</text>
</g>
<!-- subject -->
<g id="node19" class="node">
<title>subject</title>
<ellipse fill="none" stroke="#000000" cx="1906.8299" cy="-178" rx="35.9954" ry="18"/>
<text text-anchor="middle" x="1906.8299" y="-174.3" font-family="Times,serif" font-size="14.00" fill="#000000">subject</text>
</g>
<!-- disease or phenotypic feature association to location association&#45;&gt;subject -->
<g id="edge16" class="edge">
<title>disease or phenotypic feature association to location association&#45;&gt;subject</title>
<path fill="none" stroke="#0000ff" d="M1397.5299,-252.3401C1423.4149,-250.489 1449.8332,-248.652 1474.8299,-247 1610.3257,-238.045 1647.3234,-258.6875 1779.8299,-229 1812.3127,-221.7224 1847.279,-207.1356 1872.2816,-195.4196"/>
<polygon fill="#0000ff" stroke="#0000ff" points="1873.8333,-198.5573 1881.3504,-191.091 1870.818,-192.24 1873.8333,-198.5573"/>
<text text-anchor="middle" x="1845.3299" y="-217.8" font-family="Times,serif" font-size="14.00" fill="#000000">subject</text>
</g>
<!-- object -->
<g id="node21" class="node">
<title>object</title>
<ellipse fill="none" stroke="#000000" cx="1926.8299" cy="-91" rx="32.4942" ry="18"/>
<text text-anchor="middle" x="1926.8299" y="-87.3" font-family="Times,serif" font-size="14.00" fill="#000000">object</text>
</g>
<!-- disease or phenotypic feature association to location association&#45;&gt;object -->
<g id="edge17" class="edge">
<title>disease or phenotypic feature association to location association&#45;&gt;object</title>
<path fill="none" stroke="#0000ff" d="M1395.521,-252.1827C1422.0428,-250.3223 1449.1816,-248.5239 1474.8299,-247 1562.3224,-241.8015 1783.146,-247.4457 1868.8299,-229 1907.6384,-220.6454 1926.0888,-226.2208 1951.8299,-196 1972.0135,-172.3038 1975.9383,-155.6753 1963.8299,-127 1961.6073,-121.7365 1958.1972,-116.862 1954.3288,-112.5091"/>
<polygon fill="#0000ff" stroke="#0000ff" points="1956.5925,-109.8246 1947.0284,-105.2661 1951.6623,-114.7939 1956.5925,-109.8246"/>
<text text-anchor="middle" x="1986.8299" y="-174.3" font-family="Times,serif" font-size="14.00" fill="#000000">object</text>
</g>
<!-- association_type -->
<g id="node16" class="node">
<title>association_type</title>
<ellipse fill="none" stroke="#0000ff" cx="1514.8299" cy="-265" rx="30.5947" ry="18"/>
<text text-anchor="middle" x="1514.8299" y="-261.3" font-family="Times,serif" font-size="14.00" fill="#000000">string</text>
</g>
<!-- association_category -->
<g id="node18" class="node">
<title>association_category</title>
<ellipse fill="none" stroke="#0000ff" cx="1613.8299" cy="-265" rx="50.0912" ry="18"/>
<text text-anchor="middle" x="1613.8299" y="-261.3" font-family="Times,serif" font-size="14.00" fill="#000000">association</text>
</g>
<!-- subject&#45;&gt;relation -->
<g id="edge19" class="edge">
<title>subject&#45;&gt;relation</title>
<path fill="none" stroke="#000000" stroke-dasharray="1,5" d="M1900.8564,-159.9654C1896.3875,-146.1164 1890.302,-126.4678 1885.8299,-109 1880.476,-88.0882 1875.5302,-64.1877 1872.0274,-46.1297"/>
<polygon fill="#000000" stroke="#000000" points="1875.4525,-45.4058 1870.1396,-36.2393 1868.5766,-46.7182 1875.4525,-45.4058"/>
</g>
<!-- subject&#45;&gt;object -->
<g id="edge18" class="edge">
<title>subject&#45;&gt;object</title>
<path fill="none" stroke="#000000" d="M1910.9739,-159.9735C1913.7092,-148.0751 1917.3469,-132.2508 1920.4481,-118.7606"/>
<polygon fill="#000000" stroke="#000000" points="1923.8617,-119.5333 1922.6912,-109.0034 1917.0396,-117.965 1923.8617,-119.5333"/>
<text text-anchor="middle" x="1938.8299" y="-130.8" font-family="Times,serif" font-size="14.00" fill="#000000">relation</text>
</g>
<!-- disease or phenotypic feature association to thing association_subject -->
<g id="node20" class="node">
<title>disease or phenotypic feature association to thing association_subject</title>
<ellipse fill="none" stroke="#0000ff" cx="1795.8299" cy="-265" rx="114.2798" ry="18"/>
<text text-anchor="middle" x="1795.8299" y="-261.3" font-family="Times,serif" font-size="14.00" fill="#000000">disease or phenotypic feature</text>
</g>
<!-- object&#45;&gt;relation -->
<g id="edge20" class="edge">
<title>object&#45;&gt;relation</title>
<path fill="none" stroke="#000000" stroke-dasharray="1,5" d="M1913.2149,-74.4352C1905.6305,-65.2075 1896.0307,-53.5276 1887.5345,-43.1906"/>
<polygon fill="#000000" stroke="#000000" points="1890.0706,-40.764 1881.017,-35.261 1884.6628,-45.2088 1890.0706,-40.764"/>
</g>
<!-- disease or phenotypic feature association to location association_object -->
<g id="node22" class="node">
<title>disease or phenotypic feature association to location association_object</title>
<ellipse fill="none" stroke="#0000ff" cx="2000.8299" cy="-265" rx="72.2875" ry="18"/>
<text text-anchor="middle" x="2000.8299" y="-261.3" font-family="Times,serif" font-size="14.00" fill="#000000">anatomical entity</text>
</g>
</g>
</svg>
