<?xml version="1.0" encoding="UTF-8" standalone="no"?>
<!DOCTYPE svg PUBLIC "-//W3C//DTD SVG 1.1//EN"
 "http://www.w3.org/Graphics/SVG/1.1/DTD/svg11.dtd">
<!-- Generated by graphviz version 2.43.0 (0)
 -->
<!-- Title: %3 Pages: 1 -->
<svg width="5412pt" height="291pt"
 viewBox="0.00 0.00 5411.74 291.00" xmlns="http://www.w3.org/2000/svg" xmlns:xlink="http://www.w3.org/1999/xlink">
<g id="graph0" class="graph" transform="scale(1 1) rotate(0) translate(4 287)">
<title>%3</title>
<polygon fill="white" stroke="transparent" points="-4,4 -4,-287 5407.74,-287 5407.74,4 -4,4"/>
<!-- disease to exposure event association -->
<g id="node1" class="node">
<title>disease to exposure event association</title>
<ellipse fill="none" stroke="black" cx="2787.39" cy="-265" rx="186.57" ry="18"/>
<text text-anchor="middle" x="2787.39" y="-261.3" font-family="Times,serif" font-size="14.00">disease to exposure event association</text>
</g>
<!-- association -->
<g id="node2" class="node">
<title>association</title>
<ellipse fill="none" stroke="black" cx="62.39" cy="-178" rx="62.29" ry="18"/>
<text text-anchor="middle" x="62.39" y="-174.3" font-family="Times,serif" font-size="14.00">association</text>
</g>
<!-- disease to exposure event association&#45;&gt;association -->
<g id="edge1" class="edge">
<title>disease to exposure event association&#45;&gt;association</title>
<path fill="none" stroke="black" d="M2600.87,-263.87C2230.1,-262.95 1374.15,-257.6 655.39,-229 423.12,-219.76 363.28,-230.53 133.39,-196 127.91,-195.18 122.23,-194.14 116.57,-192.98"/>
<polygon fill="black" stroke="black" points="116.99,-189.49 106.48,-190.8 115.51,-196.33 116.99,-189.49"/>
<text text-anchor="middle" x="669.39" y="-217.8" font-family="Times,serif" font-size="14.00">is_a</text>
</g>
<!-- disease to entity association mixin -->
<g id="node3" class="node">
<title>disease to entity association mixin</title>
<ellipse fill="none" stroke="black" cx="313.39" cy="-178" rx="170.87" ry="18"/>
<text text-anchor="middle" x="313.39" y="-174.3" font-family="Times,serif" font-size="14.00">disease to entity association mixin</text>
</g>
<!-- disease to exposure event association&#45;&gt;disease to entity association mixin -->
<g id="edge2" class="edge">
<title>disease to exposure event association&#45;&gt;disease to entity association mixin</title>
<path fill="none" stroke="black" d="M2600.86,-264.48C2261.19,-264.48 1519.16,-260.45 894.39,-229 736.95,-221.07 556.09,-204.29 438.54,-192.36"/>
<polygon fill="black" stroke="black" points="438.73,-188.86 428.43,-191.33 438.02,-195.82 438.73,-188.86"/>
<text text-anchor="middle" x="910.89" y="-217.8" font-family="Times,serif" font-size="14.00">uses</text>
</g>
<!-- entity to exposure event association mixin -->
<g id="node4" class="node">
<title>entity to exposure event association mixin</title>
<ellipse fill="none" stroke="black" cx="710.39" cy="-178" rx="207.96" ry="18"/>
<text text-anchor="middle" x="710.39" y="-174.3" font-family="Times,serif" font-size="14.00">entity to exposure event association mixin</text>
</g>
<!-- disease to exposure event association&#45;&gt;entity to exposure event association mixin -->
<g id="edge3" class="edge">
<title>disease to exposure event association&#45;&gt;entity to exposure event association mixin</title>
<path fill="none" stroke="black" d="M2601.48,-263.17C2217.91,-260.96 1349.99,-253.37 1054.39,-229 969.98,-222.04 874.73,-207.68 805.9,-196.13"/>
<polygon fill="black" stroke="black" points="806.38,-192.66 795.94,-194.45 805.22,-199.57 806.38,-192.66"/>
<text text-anchor="middle" x="1070.89" y="-217.8" font-family="Times,serif" font-size="14.00">uses</text>
</g>
<!-- id -->
<g id="node5" class="node">
<title>id</title>
<ellipse fill="none" stroke="blue" cx="974.39" cy="-178" rx="38.19" ry="18"/>
<text text-anchor="middle" x="974.39" y="-174.3" font-family="Times,serif" font-size="14.00">string</text>
</g>
<!-- disease to exposure event association&#45;&gt;id -->
<g id="edge4" class="edge">
<title>disease to exposure event association&#45;&gt;id</title>
<path fill="none" stroke="blue" d="M2600.99,-264.18C2238.78,-263.84 1451.81,-259.47 1182.39,-229 1110.25,-220.84 1092.34,-215.5 1022.39,-196 1019.29,-195.13 1016.09,-194.17 1012.89,-193.15"/>
<polygon fill="blue" stroke="blue" points="1013.97,-189.82 1003.38,-189.98 1011.76,-196.46 1013.97,-189.82"/>
<text text-anchor="middle" x="1189.39" y="-217.8" font-family="Times,serif" font-size="14.00">id</text>
</g>
<!-- iri -->
<g id="node6" class="node">
<title>iri</title>
<ellipse fill="none" stroke="blue" cx="1075.39" cy="-178" rx="44.39" ry="18"/>
<text text-anchor="middle" x="1075.39" y="-174.3" font-family="Times,serif" font-size="14.00">iri type</text>
</g>
<!-- disease to exposure event association&#45;&gt;iri -->
<g id="edge5" class="edge">
<title>disease to exposure event association&#45;&gt;iri</title>
<path fill="none" stroke="blue" d="M2601.07,-263.84C2257.6,-262.84 1537.01,-257.31 1288.39,-229 1216.25,-220.79 1198.62,-214.45 1128.39,-196 1125.02,-195.11 1121.55,-194.14 1118.06,-193.12"/>
<polygon fill="blue" stroke="blue" points="1118.9,-189.72 1108.31,-190.16 1116.87,-196.41 1118.9,-189.72"/>
<text text-anchor="middle" x="1296.39" y="-217.8" font-family="Times,serif" font-size="14.00">iri</text>
</g>
<!-- name -->
<g id="node7" class="node">
<title>name</title>
<ellipse fill="none" stroke="blue" cx="1194.39" cy="-178" rx="56.59" ry="18"/>
<text text-anchor="middle" x="1194.39" y="-174.3" font-family="Times,serif" font-size="14.00">label type</text>
</g>
<!-- disease to exposure event association&#45;&gt;name -->
<g id="edge6" class="edge">
<title>disease to exposure event association&#45;&gt;name</title>
<path fill="none" stroke="blue" d="M2600.87,-264.85C2273.89,-265.42 1610.13,-262.25 1380.39,-229 1331.94,-221.99 1278.07,-206.64 1240.83,-194.79"/>
<polygon fill="blue" stroke="blue" points="1241.85,-191.44 1231.26,-191.7 1239.7,-198.1 1241.85,-191.44"/>
<text text-anchor="middle" x="1400.39" y="-217.8" font-family="Times,serif" font-size="14.00">name</text>
</g>
<!-- description -->
<g id="node8" class="node">
<title>description</title>
<ellipse fill="none" stroke="blue" cx="1344.39" cy="-178" rx="75.29" ry="18"/>
<text text-anchor="middle" x="1344.39" y="-174.3" font-family="Times,serif" font-size="14.00">narrative text</text>
</g>
<!-- disease to exposure event association&#45;&gt;description -->
<g id="edge7" class="edge">
<title>disease to exposure event association&#45;&gt;description</title>
<path fill="none" stroke="blue" d="M2602.66,-262.49C2267.45,-259.24 1583.63,-250.11 1476.39,-229 1444.84,-222.79 1410.95,-209.81 1385.41,-198.63"/>
<polygon fill="blue" stroke="blue" points="1386.61,-195.33 1376.05,-194.45 1383.76,-201.72 1386.61,-195.33"/>
<text text-anchor="middle" x="1516.89" y="-217.8" font-family="Times,serif" font-size="14.00">description</text>
</g>
<!-- has attribute -->
<g id="node9" class="node">
<title>has attribute</title>
<ellipse fill="none" stroke="blue" cx="1489.39" cy="-178" rx="51.99" ry="18"/>
<text text-anchor="middle" x="1489.39" y="-174.3" font-family="Times,serif" font-size="14.00">attribute</text>
</g>
<!-- disease to exposure event association&#45;&gt;has attribute -->
<g id="edge8" class="edge">
<title>disease to exposure event association&#45;&gt;has attribute</title>
<path fill="none" stroke="blue" d="M2602.86,-262.23C2295.38,-258.74 1702.54,-249.43 1608.39,-229 1579.33,-222.69 1548.42,-209.49 1525.39,-198.23"/>
<polygon fill="blue" stroke="blue" points="1526.85,-195.05 1516.34,-193.71 1523.72,-201.31 1526.85,-195.05"/>
<text text-anchor="middle" x="1655.39" y="-217.8" font-family="Times,serif" font-size="14.00">has attribute</text>
</g>
<!-- subject -->
<g id="node10" class="node">
<title>subject</title>
<ellipse fill="none" stroke="blue" cx="1629.39" cy="-178" rx="69.59" ry="18"/>
<text text-anchor="middle" x="1629.39" y="-174.3" font-family="Times,serif" font-size="14.00">named thing</text>
</g>
<!-- disease to exposure event association&#45;&gt;subject -->
<g id="edge9" class="edge">
<title>disease to exposure event association&#45;&gt;subject</title>
<path fill="none" stroke="blue" d="M2604.96,-261.17C2331.01,-256.42 1836.79,-245.67 1756.39,-229 1725.98,-222.69 1693.41,-209.73 1668.87,-198.59"/>
<polygon fill="blue" stroke="blue" points="1670.09,-195.3 1659.54,-194.27 1667.14,-201.65 1670.09,-195.3"/>
<text text-anchor="middle" x="1782.39" y="-217.8" font-family="Times,serif" font-size="14.00">subject</text>
</g>
<!-- predicate -->
<g id="node11" class="node">
<title>predicate</title>
<ellipse fill="none" stroke="blue" cx="1795.39" cy="-178" rx="77.99" ry="18"/>
<text text-anchor="middle" x="1795.39" y="-174.3" font-family="Times,serif" font-size="14.00">predicate type</text>
</g>
<!-- disease to exposure event association&#45;&gt;predicate -->
<g id="edge10" class="edge">
<title>disease to exposure event association&#45;&gt;predicate</title>
<path fill="none" stroke="blue" d="M2603.88,-261.67C2334.57,-257.63 1860.44,-247.88 1827.39,-229 1818,-223.63 1810.93,-214.26 1805.85,-205.06"/>
<polygon fill="blue" stroke="blue" points="1808.99,-203.51 1801.43,-196.09 1802.71,-206.6 1808.99,-203.51"/>
<text text-anchor="middle" x="1861.39" y="-217.8" font-family="Times,serif" font-size="14.00">predicate</text>
</g>
<!-- object -->
<g id="node12" class="node">
<title>object</title>
<ellipse fill="none" stroke="blue" cx="1727.39" cy="-91" rx="69.59" ry="18"/>
<text text-anchor="middle" x="1727.39" y="-87.3" font-family="Times,serif" font-size="14.00">named thing</text>
</g>
<!-- disease to exposure event association&#45;&gt;object -->
<g id="edge11" class="edge">
<title>disease to exposure event association&#45;&gt;object</title>
<path fill="none" stroke="blue" d="M2601.58,-263.23C2456.61,-260.63 2250.47,-252.53 2071.39,-229 2002.42,-219.94 1979.48,-229.28 1918.39,-196 1898.53,-185.17 1901.08,-172.77 1882.39,-160 1850.29,-138.07 1809.97,-120.64 1778.5,-108.92"/>
<polygon fill="blue" stroke="blue" points="1779.63,-105.61 1769.03,-105.47 1777.23,-112.18 1779.63,-105.61"/>
<text text-anchor="middle" x="1940.39" y="-174.3" font-family="Times,serif" font-size="14.00">object</text>
</g>
<!-- negated -->
<g id="node13" class="node">
<title>negated</title>
<ellipse fill="none" stroke="blue" cx="2018.39" cy="-178" rx="46.59" ry="18"/>
<text text-anchor="middle" x="2018.39" y="-174.3" font-family="Times,serif" font-size="14.00">boolean</text>
</g>
<!-- disease to exposure event association&#45;&gt;negated -->
<g id="edge12" class="edge">
<title>disease to exposure event association&#45;&gt;negated</title>
<path fill="none" stroke="blue" d="M2601.16,-263.69C2432.86,-261.72 2198.32,-254.28 2109.39,-229 2087.54,-222.79 2065.15,-210.57 2048.05,-199.77"/>
<polygon fill="blue" stroke="blue" points="2049.91,-196.81 2039.62,-194.29 2046.09,-202.68 2049.91,-196.81"/>
<text text-anchor="middle" x="2138.39" y="-217.8" font-family="Times,serif" font-size="14.00">negated</text>
</g>
<!-- qualifiers -->
<g id="node14" class="node">
<title>qualifiers</title>
<ellipse fill="none" stroke="blue" cx="2159.39" cy="-178" rx="76.89" ry="18"/>
<text text-anchor="middle" x="2159.39" y="-174.3" font-family="Times,serif" font-size="14.00">ontology class</text>
</g>
<!-- disease to exposure event association&#45;&gt;qualifiers -->
<g id="edge13" class="edge">
<title>disease to exposure event association&#45;&gt;qualifiers</title>
<path fill="none" stroke="blue" d="M2602.42,-262.51C2438.12,-259.69 2218.79,-251.66 2184.39,-229 2176.18,-223.59 2170.55,-214.63 2166.75,-205.77"/>
<polygon fill="blue" stroke="blue" points="2170.03,-204.56 2163.3,-196.38 2163.46,-206.97 2170.03,-204.56"/>
<text text-anchor="middle" x="2217.89" y="-217.8" font-family="Times,serif" font-size="14.00">qualifiers</text>
</g>
<!-- publications -->
<g id="node15" class="node">
<title>publications</title>
<ellipse fill="none" stroke="blue" cx="2316.39" cy="-178" rx="62.29" ry="18"/>
<text text-anchor="middle" x="2316.39" y="-174.3" font-family="Times,serif" font-size="14.00">publication</text>
</g>
<!-- disease to exposure event association&#45;&gt;publications -->
<g id="edge14" class="edge">
<title>disease to exposure event association&#45;&gt;publications</title>
<path fill="none" stroke="blue" d="M2601.11,-263.88C2458.69,-261.78 2282.84,-254.05 2259.39,-229 2249.24,-218.15 2259.12,-207.15 2273.34,-198.24"/>
<polygon fill="blue" stroke="blue" points="2275.14,-201.25 2282.09,-193.26 2271.67,-195.16 2275.14,-201.25"/>
<text text-anchor="middle" x="2303.39" y="-217.8" font-family="Times,serif" font-size="14.00">publications</text>
</g>
<!-- has evidence -->
<g id="node16" class="node">
<title>has evidence</title>
<ellipse fill="none" stroke="blue" cx="2472.39" cy="-178" rx="75.29" ry="18"/>
<text text-anchor="middle" x="2472.39" y="-174.3" font-family="Times,serif" font-size="14.00">evidence type</text>
</g>
<!-- disease to exposure event association&#45;&gt;has evidence -->
<g id="edge15" class="edge">
<title>disease to exposure event association&#45;&gt;has evidence</title>
<path fill="none" stroke="blue" d="M2606.25,-260.69C2495.58,-256.74 2371.97,-248.06 2354.39,-229 2349.87,-224.1 2350.41,-219.34 2354.39,-214 2361.05,-205.09 2381.8,-197.64 2404.09,-191.93"/>
<polygon fill="blue" stroke="blue" points="2405.15,-195.27 2414.04,-189.51 2403.5,-188.47 2405.15,-195.27"/>
<text text-anchor="middle" x="2400.89" y="-217.8" font-family="Times,serif" font-size="14.00">has evidence</text>
</g>
<!-- knowledge source -->
<g id="node17" class="node">
<title>knowledge source</title>
<ellipse fill="none" stroke="blue" cx="2604.39" cy="-178" rx="38.19" ry="18"/>
<text text-anchor="middle" x="2604.39" y="-174.3" font-family="Times,serif" font-size="14.00">string</text>
</g>
<!-- disease to exposure event association&#45;&gt;knowledge source -->
<g id="edge16" class="edge">
<title>disease to exposure event association&#45;&gt;knowledge source</title>
<path fill="none" stroke="blue" d="M2624.22,-256.21C2547.55,-250.83 2470.28,-242.21 2458.39,-229 2434.46,-202.39 2466.04,-220.13 2556.39,-196 2559.55,-195.16 2562.8,-194.2 2566.05,-193.18"/>
<polygon fill="blue" stroke="blue" points="2567.29,-196.46 2575.69,-190 2565.1,-189.81 2567.29,-196.46"/>
<text text-anchor="middle" x="2522.89" y="-217.8" font-family="Times,serif" font-size="14.00">knowledge source</text>
</g>
<!-- primary knowledge source -->
<g id="node18" class="node">
<title>primary knowledge source</title>
<ellipse fill="none" stroke="blue" cx="2699.39" cy="-178" rx="38.19" ry="18"/>
<text text-anchor="middle" x="2699.39" y="-174.3" font-family="Times,serif" font-size="14.00">string</text>
</g>
<!-- disease to exposure event association&#45;&gt;primary knowledge source -->
<g id="edge17" class="edge">
<title>disease to exposure event association&#45;&gt;primary knowledge source</title>
<path fill="none" stroke="blue" d="M2653.52,-252.33C2626.36,-247.16 2603.34,-239.72 2594.39,-229 2590.12,-223.88 2590.45,-219.38 2594.39,-214 2610.1,-192.57 2626.2,-204.44 2651.39,-196 2654.32,-195.02 2657.34,-193.99 2660.37,-192.95"/>
<polygon fill="blue" stroke="blue" points="2661.71,-196.19 2670,-189.59 2659.41,-189.58 2661.71,-196.19"/>
<text text-anchor="middle" x="2689.39" y="-217.8" font-family="Times,serif" font-size="14.00">primary knowledge source</text>
</g>
<!-- aggregator knowledge source -->
<g id="node19" class="node">
<title>aggregator knowledge source</title>
<ellipse fill="none" stroke="blue" cx="2794.39" cy="-178" rx="38.19" ry="18"/>
<text text-anchor="middle" x="2794.39" y="-174.3" font-family="Times,serif" font-size="14.00">string</text>
</g>
<!-- disease to exposure event association&#45;&gt;aggregator knowledge source -->
<g id="edge18" class="edge">
<title>disease to exposure event association&#45;&gt;aggregator knowledge source</title>
<path fill="none" stroke="blue" d="M2787.1,-246.84C2787.1,-237.17 2787.36,-224.89 2788.39,-214 2788.64,-211.42 2788.97,-208.75 2789.34,-206.08"/>
<polygon fill="blue" stroke="blue" points="2792.83,-206.45 2790.95,-196.02 2785.91,-205.34 2792.83,-206.45"/>
<text text-anchor="middle" x="2894.89" y="-217.8" font-family="Times,serif" font-size="14.00">aggregator knowledge source</text>
</g>
<!-- timepoint -->
<g id="node20" class="node">
<title>timepoint</title>
<ellipse fill="none" stroke="blue" cx="3014.39" cy="-178" rx="55.49" ry="18"/>
<text text-anchor="middle" x="3014.39" y="-174.3" font-family="Times,serif" font-size="14.00">time type</text>
</g>
<!-- disease to exposure event association&#45;&gt;timepoint -->
<g id="edge19" class="edge">
<title>disease to exposure event association&#45;&gt;timepoint</title>
<path fill="none" stroke="blue" d="M2926.82,-253.03C2959.88,-247.83 2989.12,-240.19 3001.39,-229 3007.8,-223.16 3011.22,-214.6 3013,-206.2"/>
<polygon fill="blue" stroke="blue" points="3016.48,-206.64 3014.44,-196.24 3009.55,-205.64 3016.48,-206.64"/>
<text text-anchor="middle" x="3046.39" y="-217.8" font-family="Times,serif" font-size="14.00">timepoint</text>
</g>
<!-- original subject -->
<g id="node21" class="node">
<title>original subject</title>
<ellipse fill="none" stroke="blue" cx="3126.39" cy="-178" rx="38.19" ry="18"/>
<text text-anchor="middle" x="3126.39" y="-174.3" font-family="Times,serif" font-size="14.00">string</text>
</g>
<!-- disease to exposure event association&#45;&gt;original subject -->
<g id="edge20" class="edge">
<title>disease to exposure event association&#45;&gt;original subject</title>
<path fill="none" stroke="blue" d="M2923.77,-252.66C2995.1,-245.89 3070.66,-237.06 3085.39,-229 3095.95,-223.23 3104.86,-213.52 3111.64,-204.19"/>
<polygon fill="blue" stroke="blue" points="3114.58,-206.1 3117.26,-195.85 3108.77,-202.19 3114.58,-206.1"/>
<text text-anchor="middle" x="3159.39" y="-217.8" font-family="Times,serif" font-size="14.00">original subject</text>
</g>
<!-- original predicate -->
<g id="node22" class="node">
<title>original predicate</title>
<ellipse fill="none" stroke="blue" cx="3251.39" cy="-178" rx="57.39" ry="18"/>
<text text-anchor="middle" x="3251.39" y="-174.3" font-family="Times,serif" font-size="14.00">uriorcurie</text>
</g>
<!-- disease to exposure event association&#45;&gt;original predicate -->
<g id="edge21" class="edge">
<title>disease to exposure event association&#45;&gt;original predicate</title>
<path fill="none" stroke="blue" d="M2919.96,-252.31C2941.17,-250.5 2962.88,-248.67 2983.39,-247 3035.82,-242.73 3174.25,-255.99 3219.39,-229 3228.59,-223.51 3235.59,-214.23 3240.66,-205.16"/>
<polygon fill="blue" stroke="blue" points="3243.93,-206.44 3245.27,-195.93 3237.67,-203.32 3243.93,-206.44"/>
<text text-anchor="middle" x="3298.89" y="-217.8" font-family="Times,serif" font-size="14.00">original predicate</text>
</g>
<!-- original object -->
<g id="node23" class="node">
<title>original object</title>
<ellipse fill="none" stroke="blue" cx="3380.39" cy="-178" rx="38.19" ry="18"/>
<text text-anchor="middle" x="3380.39" y="-174.3" font-family="Times,serif" font-size="14.00">string</text>
</g>
<!-- disease to exposure event association&#45;&gt;original object -->
<g id="edge22" class="edge">
<title>disease to exposure event association&#45;&gt;original object</title>
<path fill="none" stroke="blue" d="M2917.02,-252.03C2939.15,-250.19 2961.92,-248.44 2983.39,-247 3004.65,-245.58 3349.73,-242.27 3366.39,-229 3373.39,-223.43 3377.07,-214.67 3378.94,-206.03"/>
<polygon fill="blue" stroke="blue" points="3382.41,-206.54 3380.42,-196.14 3375.48,-205.51 3382.41,-206.54"/>
<text text-anchor="middle" x="3428.89" y="-217.8" font-family="Times,serif" font-size="14.00">original object</text>
</g>
<!-- subject category -->
<g id="node24" class="node">
<title>subject category</title>
<ellipse fill="none" stroke="blue" cx="3513.39" cy="-178" rx="76.89" ry="18"/>
<text text-anchor="middle" x="3513.39" y="-174.3" font-family="Times,serif" font-size="14.00">ontology class</text>
</g>
<!-- disease to exposure event association&#45;&gt;subject category -->
<g id="edge23" class="edge">
<title>disease to exposure event association&#45;&gt;subject category</title>
<path fill="none" stroke="blue" d="M2915.95,-251.91C2938.42,-250.07 2961.58,-248.34 2983.39,-247 3011.19,-245.3 3460.51,-243.33 3484.39,-229 3493.33,-223.63 3499.8,-214.39 3504.32,-205.29"/>
<polygon fill="blue" stroke="blue" points="3507.56,-206.61 3508.35,-196.04 3501.14,-203.81 3507.56,-206.61"/>
<text text-anchor="middle" x="3558.89" y="-217.8" font-family="Times,serif" font-size="14.00">subject category</text>
</g>
<!-- object category -->
<g id="node25" class="node">
<title>object category</title>
<ellipse fill="none" stroke="blue" cx="3684.39" cy="-178" rx="76.89" ry="18"/>
<text text-anchor="middle" x="3684.39" y="-174.3" font-family="Times,serif" font-size="14.00">ontology class</text>
</g>
<!-- disease to exposure event association&#45;&gt;object category -->
<g id="edge24" class="edge">
<title>disease to exposure event association&#45;&gt;object category</title>
<path fill="none" stroke="blue" d="M2914.89,-251.86C2937.68,-249.99 2961.23,-248.27 2983.39,-247 3054.31,-242.93 3555.76,-253.58 3622.39,-229 3637.22,-223.53 3651.16,-212.98 3662.06,-202.98"/>
<polygon fill="blue" stroke="blue" points="3664.66,-205.34 3669.42,-195.87 3659.79,-200.3 3664.66,-205.34"/>
<text text-anchor="middle" x="3704.89" y="-217.8" font-family="Times,serif" font-size="14.00">object category</text>
</g>
<!-- subject closure -->
<g id="node26" class="node">
<title>subject closure</title>
<ellipse fill="none" stroke="blue" cx="3817.39" cy="-178" rx="38.19" ry="18"/>
<text text-anchor="middle" x="3817.39" y="-174.3" font-family="Times,serif" font-size="14.00">string</text>
</g>
<!-- disease to exposure event association&#45;&gt;subject closure -->
<g id="edge25" class="edge">
<title>disease to exposure event association&#45;&gt;subject closure</title>
<path fill="none" stroke="blue" d="M2914.36,-251.8C2937.32,-249.94 2961.06,-248.22 2983.39,-247 3026.73,-244.62 3724.25,-245.49 3764.39,-229 3777.69,-223.54 3789.62,-213.08 3798.79,-203.13"/>
<polygon fill="blue" stroke="blue" points="3801.61,-205.21 3805.51,-195.36 3796.32,-200.63 3801.61,-205.21"/>
<text text-anchor="middle" x="3842.89" y="-217.8" font-family="Times,serif" font-size="14.00">subject closure</text>
</g>
<!-- object closure -->
<g id="node27" class="node">
<title>object closure</title>
<ellipse fill="none" stroke="blue" cx="3930.39" cy="-178" rx="38.19" ry="18"/>
<text text-anchor="middle" x="3930.39" y="-174.3" font-family="Times,serif" font-size="14.00">string</text>
</g>
<!-- disease to exposure event association&#45;&gt;object closure -->
<g id="edge26" class="edge">
<title>disease to exposure event association&#45;&gt;object closure</title>
<path fill="none" stroke="blue" d="M2914.09,-251.76C2937.13,-249.89 2960.97,-248.19 2983.39,-247 3034.33,-244.29 3857.45,-254.89 3901.39,-229 3910.38,-223.71 3916.85,-214.47 3921.36,-205.37"/>
<polygon fill="blue" stroke="blue" points="3924.61,-206.67 3925.38,-196.1 3918.19,-203.88 3924.61,-206.67"/>
<text text-anchor="middle" x="3966.39" y="-217.8" font-family="Times,serif" font-size="14.00">object closure</text>
</g>
<!-- subject category closure -->
<g id="node28" class="node">
<title>subject category closure</title>
<ellipse fill="none" stroke="blue" cx="4063.39" cy="-178" rx="76.89" ry="18"/>
<text text-anchor="middle" x="4063.39" y="-174.3" font-family="Times,serif" font-size="14.00">ontology class</text>
</g>
<!-- disease to exposure event association&#45;&gt;subject category closure -->
<g id="edge27" class="edge">
<title>disease to exposure event association&#45;&gt;subject category closure</title>
<path fill="none" stroke="blue" d="M2913.83,-251.74C2936.95,-249.87 2960.88,-248.17 2983.39,-247 3040.94,-244.01 3968.24,-253.49 4020.39,-229 4031.5,-223.78 4040.85,-214.17 4047.96,-204.76"/>
<polygon fill="blue" stroke="blue" points="4051.01,-206.51 4053.85,-196.3 4045.26,-202.51 4051.01,-206.51"/>
<text text-anchor="middle" x="4127.89" y="-217.8" font-family="Times,serif" font-size="14.00">subject category closure</text>
</g>
<!-- object category closure -->
<g id="node29" class="node">
<title>object category closure</title>
<ellipse fill="none" stroke="blue" cx="4256.39" cy="-178" rx="76.89" ry="18"/>
<text text-anchor="middle" x="4256.39" y="-174.3" font-family="Times,serif" font-size="14.00">ontology class</text>
</g>
<!-- disease to exposure event association&#45;&gt;object category closure -->
<g id="edge28" class="edge">
<title>disease to exposure event association&#45;&gt;object category closure</title>
<path fill="none" stroke="blue" d="M2913.56,-251.71C2936.77,-249.83 2960.8,-248.14 2983.39,-247 3017.69,-245.27 4188.85,-244.68 4219.39,-229 4229.59,-223.77 4237.69,-214.29 4243.68,-204.97"/>
<polygon fill="blue" stroke="blue" points="4246.76,-206.64 4248.77,-196.24 4240.71,-203.11 4246.76,-206.64"/>
<text text-anchor="middle" x="4319.89" y="-217.8" font-family="Times,serif" font-size="14.00">object category closure</text>
</g>
<!-- subject namespace -->
<g id="node30" class="node">
<title>subject namespace</title>
<ellipse fill="none" stroke="blue" cx="4446.39" cy="-178" rx="38.19" ry="18"/>
<text text-anchor="middle" x="4446.39" y="-174.3" font-family="Times,serif" font-size="14.00">string</text>
</g>
<!-- disease to exposure event association&#45;&gt;subject namespace -->
<g id="edge29" class="edge">
<title>disease to exposure event association&#45;&gt;subject namespace</title>
<path fill="none" stroke="blue" d="M2913.3,-251.7C2936.58,-249.81 2960.71,-248.13 2983.39,-247 3022.9,-245.04 4371.96,-246.58 4407.39,-229 4418.12,-223.68 4426.77,-213.86 4433.17,-204.32"/>
<polygon fill="blue" stroke="blue" points="4436.16,-206.14 4438.41,-195.78 4430.2,-202.47 4436.16,-206.14"/>
<text text-anchor="middle" x="4493.39" y="-217.8" font-family="Times,serif" font-size="14.00">subject namespace</text>
</g>
<!-- object namespace -->
<g id="node31" class="node">
<title>object namespace</title>
<ellipse fill="none" stroke="blue" cx="4605.39" cy="-178" rx="38.19" ry="18"/>
<text text-anchor="middle" x="4605.39" y="-174.3" font-family="Times,serif" font-size="14.00">string</text>
</g>
<!-- disease to exposure event association&#45;&gt;object namespace -->
<g id="edge30" class="edge">
<title>disease to exposure event association&#45;&gt;object namespace</title>
<path fill="none" stroke="blue" d="M2913.03,-251.69C2936.4,-249.81 2960.62,-248.12 2983.39,-247 3027.29,-244.85 4525.89,-248.26 4565.39,-229 4576.26,-223.7 4585.11,-213.89 4591.7,-204.35"/>
<polygon fill="blue" stroke="blue" points="4594.72,-206.12 4597.1,-195.8 4588.8,-202.38 4594.72,-206.12"/>
<text text-anchor="middle" x="4648.39" y="-217.8" font-family="Times,serif" font-size="14.00">object namespace</text>
</g>
<!-- subject label closure -->
<g id="node32" class="node">
<title>subject label closure</title>
<ellipse fill="none" stroke="blue" cx="4756.39" cy="-178" rx="38.19" ry="18"/>
<text text-anchor="middle" x="4756.39" y="-174.3" font-family="Times,serif" font-size="14.00">string</text>
</g>
<!-- disease to exposure event association&#45;&gt;subject label closure -->
<g id="edge31" class="edge">
<title>disease to exposure event association&#45;&gt;subject label closure</title>
<path fill="none" stroke="blue" d="M2913.03,-251.67C2936.4,-249.79 2960.62,-248.1 2983.39,-247 3031.48,-244.67 4673.11,-250.08 4716.39,-229 4727.26,-223.71 4736.11,-213.89 4742.7,-204.35"/>
<polygon fill="blue" stroke="blue" points="4745.72,-206.13 4748.11,-195.8 4739.8,-202.38 4745.72,-206.13"/>
<text text-anchor="middle" x="4809.39" y="-217.8" font-family="Times,serif" font-size="14.00">subject label closure</text>
</g>
<!-- object label closure -->
<g id="node33" class="node">
<title>object label closure</title>
<ellipse fill="none" stroke="blue" cx="4927.39" cy="-178" rx="38.19" ry="18"/>
<text text-anchor="middle" x="4927.39" y="-174.3" font-family="Times,serif" font-size="14.00">string</text>
</g>
<!-- disease to exposure event association&#45;&gt;object label closure -->
<g id="edge32" class="edge">
<title>disease to exposure event association&#45;&gt;object label closure</title>
<path fill="none" stroke="blue" d="M2913.03,-251.66C2936.4,-249.77 2960.62,-248.09 2983.39,-247 3036.22,-244.46 4839.83,-252.14 4887.39,-229 4898.26,-223.71 4907.11,-213.9 4913.7,-204.36"/>
<polygon fill="blue" stroke="blue" points="4916.72,-206.13 4919.11,-195.81 4910.8,-202.39 4916.72,-206.13"/>
<text text-anchor="middle" x="4975.89" y="-217.8" font-family="Times,serif" font-size="14.00">object label closure</text>
</g>
<!-- retrieval source ids -->
<g id="node34" class="node">
<title>retrieval source ids</title>
<ellipse fill="none" stroke="blue" cx="5089.39" cy="-178" rx="84.49" ry="18"/>
<text text-anchor="middle" x="5089.39" y="-174.3" font-family="Times,serif" font-size="14.00">retrieval source</text>
</g>
<!-- disease to exposure event association&#45;&gt;retrieval source ids -->
<g id="edge33" class="edge">
<title>disease to exposure event association&#45;&gt;retrieval source ids</title>
<path fill="none" stroke="blue" d="M2912.77,-251.66C2936.22,-249.77 2960.54,-248.09 2983.39,-247 3040.72,-244.27 4997.78,-254.09 5049.39,-229 5060.11,-223.79 5068.87,-214.18 5075.42,-204.76"/>
<polygon fill="blue" stroke="blue" points="5078.39,-206.62 5080.82,-196.3 5072.49,-202.85 5078.39,-206.62"/>
<text text-anchor="middle" x="5137.89" y="-217.8" font-family="Times,serif" font-size="14.00">retrieval source ids</text>
</g>
<!-- type -->
<g id="node35" class="node">
<title>type</title>
<ellipse fill="none" stroke="black" cx="5251.39" cy="-178" rx="31.4" ry="18"/>
<text text-anchor="middle" x="5251.39" y="-174.3" font-family="Times,serif" font-size="14.00">type</text>
</g>
<!-- disease to exposure event association&#45;&gt;type -->
<g id="edge34" class="edge">
<title>disease to exposure event association&#45;&gt;type</title>
<path fill="none" stroke="blue" d="M2912.77,-251.65C2936.22,-249.76 2960.54,-248.08 2983.39,-247 3014.31,-245.54 5183.56,-242.52 5211.39,-229 5222.27,-223.72 5231.12,-213.91 5237.7,-204.36"/>
<polygon fill="blue" stroke="blue" points="5240.73,-206.14 5243.11,-195.81 5234.81,-202.4 5240.73,-206.14"/>
<text text-anchor="middle" x="5246.39" y="-217.8" font-family="Times,serif" font-size="14.00">type</text>
</g>
<!-- category -->
<g id="node37" class="node">
<title>category</title>
<ellipse fill="none" stroke="black" cx="5352.39" cy="-178" rx="51.19" ry="18"/>
<text text-anchor="middle" x="5352.39" y="-174.3" font-family="Times,serif" font-size="14.00">category</text>
</g>
<!-- disease to exposure event association&#45;&gt;category -->
<g id="edge35" class="edge">
<title>disease to exposure event association&#45;&gt;category</title>
<path fill="none" stroke="blue" d="M2912.77,-251.65C2936.22,-249.76 2960.54,-248.08 2983.39,-247 3046.74,-244.01 5205.23,-245.75 5266.39,-229 5287.05,-223.34 5307.88,-211.43 5323.87,-200.65"/>
<polygon fill="blue" stroke="blue" points="5326.02,-203.42 5332.22,-194.83 5322.01,-197.68 5326.02,-203.42"/>
<text text-anchor="middle" x="5332.89" y="-217.8" font-family="Times,serif" font-size="14.00">category</text>
</g>
<!-- subject&#45;&gt;object -->
<g id="edge36" class="edge">
<title>subject&#45;&gt;object</title>
<path fill="none" stroke="black" d="M1648.29,-160.61C1663.2,-147.68 1684.19,-129.47 1700.8,-115.07"/>
<polygon fill="black" stroke="black" points="1703.3,-117.53 1708.56,-108.34 1698.71,-112.25 1703.3,-117.53"/>
<text text-anchor="middle" x="1712.39" y="-130.8" font-family="Times,serif" font-size="14.00">relation</text>
</g>
<!-- relation -->
<g id="node39" class="node">
<title>relation</title>
<ellipse fill="none" stroke="black" cx="1641.39" cy="-18" rx="46.59" ry="18"/>
<text text-anchor="middle" x="1641.39" y="-14.3" font-family="Times,serif" font-size="14.00">relation</text>
</g>
<!-- subject&#45;&gt;relation -->
<g id="edge37" class="edge">
<title>subject&#45;&gt;relation</title>
<path fill="none" stroke="black" stroke-dasharray="1,5" d="M1630.7,-159.79C1632.78,-132.48 1636.84,-78.99 1639.31,-46.38"/>
<polygon fill="black" stroke="black" points="1642.82,-46.42 1640.09,-36.19 1635.84,-45.89 1642.82,-46.42"/>
</g>
<!-- object&#45;&gt;relation -->
<g id="edge38" class="edge">
<title>object&#45;&gt;relation</title>
<path fill="none" stroke="black" stroke-dasharray="1,5" d="M1707.45,-73.53C1695.81,-63.92 1680.97,-51.67 1668.3,-41.21"/>
<polygon fill="black" stroke="black" points="1670.29,-38.31 1660.35,-34.65 1665.83,-43.71 1670.29,-38.31"/>
</g>
<!-- association_type -->
<g id="node36" class="node">
<title>association_type</title>
<ellipse fill="none" stroke="blue" cx="3030.39" cy="-265" rx="38.19" ry="18"/>
<text text-anchor="middle" x="3030.39" y="-261.3" font-family="Times,serif" font-size="14.00">string</text>
</g>
<!-- association_category -->
<g id="node38" class="node">
<title>association_category</title>
<ellipse fill="none" stroke="blue" cx="3161.39" cy="-265" rx="74.99" ry="18"/>
<text text-anchor="middle" x="3161.39" y="-261.3" font-family="Times,serif" font-size="14.00">category type</text>
</g>
</g>
</svg>
