<?xml version="1.0" encoding="UTF-8" standalone="no"?>
<!DOCTYPE svg PUBLIC "-//W3C//DTD SVG 1.1//EN"
 "http://www.w3.org/Graphics/SVG/1.1/DTD/svg11.dtd">
<!-- Generated by graphviz version 2.43.0 (0)
 -->
<!-- Title: %3 Pages: 1 -->
<svg width="1561pt" height="131pt"
 viewBox="0.00 0.00 1560.69 131.00" xmlns="http://www.w3.org/2000/svg" xmlns:xlink="http://www.w3.org/1999/xlink">
<g id="graph0" class="graph" transform="scale(1 1) rotate(0) translate(4 127)">
<title>%3</title>
<polygon fill="white" stroke="transparent" points="-4,4 -4,-127 1556.69,-127 1556.69,4 -4,4"/>
<!-- disease or phenotypic feature -->
<g id="node1" class="node">
<title>disease or phenotypic feature</title>
<ellipse fill="none" stroke="black" cx="759.14" cy="-105" rx="148.67" ry="18"/>
<text text-anchor="middle" x="759.14" y="-101.3" font-family="Times,serif" font-size="14.00">disease or phenotypic feature</text>
</g>
<!-- biological entity -->
<g id="node2" class="node">
<title>biological entity</title>
<ellipse fill="none" stroke="black" cx="85.14" cy="-18" rx="85.29" ry="18"/>
<text text-anchor="middle" x="85.14" y="-14.3" font-family="Times,serif" font-size="14.00">biological entity</text>
</g>
<!-- disease or phenotypic feature&#45;&gt;biological entity -->
<g id="edge1" class="edge">
<title>disease or phenotypic feature&#45;&gt;biological entity</title>
<path fill="none" stroke="black" d="M622.68,-97.7C535.76,-92.56 420.96,-83.68 320.14,-69 260.99,-60.39 194.42,-45.75 147.28,-34.53"/>
<polygon fill="black" stroke="black" points="148.06,-31.12 137.52,-32.19 146.43,-37.93 148.06,-31.12"/>
<text text-anchor="middle" x="334.14" y="-57.8" font-family="Times,serif" font-size="14.00">is_a</text>
</g>
<!-- id -->
<g id="node3" class="node">
<title>id</title>
<ellipse fill="none" stroke="blue" cx="226.14" cy="-18" rx="38.19" ry="18"/>
<text text-anchor="middle" x="226.14" y="-14.3" font-family="Times,serif" font-size="14.00">string</text>
</g>
<!-- disease or phenotypic feature&#45;&gt;id -->
<g id="edge2" class="edge">
<title>disease or phenotypic feature&#45;&gt;id</title>
<path fill="none" stroke="blue" d="M632.68,-95.46C533.71,-86.58 393.33,-69.15 274.14,-36 271.03,-35.14 267.84,-34.17 264.64,-33.15"/>
<polygon fill="blue" stroke="blue" points="265.72,-29.83 255.13,-29.99 263.51,-36.47 265.72,-29.83"/>
<text text-anchor="middle" x="426.14" y="-57.8" font-family="Times,serif" font-size="14.00">id</text>
</g>
<!-- iri -->
<g id="node4" class="node">
<title>iri</title>
<ellipse fill="none" stroke="blue" cx="327.14" cy="-18" rx="44.39" ry="18"/>
<text text-anchor="middle" x="327.14" y="-14.3" font-family="Times,serif" font-size="14.00">iri type</text>
</g>
<!-- disease or phenotypic feature&#45;&gt;iri -->
<g id="edge3" class="edge">
<title>disease or phenotypic feature&#45;&gt;iri</title>
<path fill="none" stroke="blue" d="M662.66,-91.27C620.34,-85.25 570.15,-77.51 525.14,-69 460.63,-56.8 444.51,-53.21 381.14,-36 377.56,-35.03 373.87,-33.97 370.17,-32.88"/>
<polygon fill="blue" stroke="blue" points="371.02,-29.48 360.43,-29.94 368.99,-36.18 371.02,-29.48"/>
<text text-anchor="middle" x="533.14" y="-57.8" font-family="Times,serif" font-size="14.00">iri</text>
</g>
<!-- type -->
<g id="node5" class="node">
<title>type</title>
<ellipse fill="none" stroke="blue" cx="428.14" cy="-18" rx="38.19" ry="18"/>
<text text-anchor="middle" x="428.14" y="-14.3" font-family="Times,serif" font-size="14.00">string</text>
</g>
<!-- disease or phenotypic feature&#45;&gt;type -->
<g id="edge4" class="edge">
<title>disease or phenotypic feature&#45;&gt;type</title>
<path fill="none" stroke="blue" d="M686.05,-89.3C628.26,-77.01 545.82,-57.99 475.14,-36 472.38,-35.14 469.55,-34.22 466.7,-33.26"/>
<polygon fill="blue" stroke="blue" points="467.68,-29.9 457.09,-29.94 465.39,-36.51 467.68,-29.9"/>
<text text-anchor="middle" x="607.14" y="-57.8" font-family="Times,serif" font-size="14.00">type</text>
</g>
<!-- name -->
<g id="node6" class="node">
<title>name</title>
<ellipse fill="none" stroke="blue" cx="541.14" cy="-18" rx="56.59" ry="18"/>
<text text-anchor="middle" x="541.14" y="-14.3" font-family="Times,serif" font-size="14.00">label type</text>
</g>
<!-- disease or phenotypic feature&#45;&gt;name -->
<g id="edge5" class="edge">
<title>disease or phenotypic feature&#45;&gt;name</title>
<path fill="none" stroke="blue" d="M717.37,-87.71C679.41,-72.91 623.62,-51.16 585.02,-36.11"/>
<polygon fill="blue" stroke="blue" points="586.19,-32.81 575.6,-32.44 583.65,-39.33 586.19,-32.81"/>
<text text-anchor="middle" x="684.14" y="-57.8" font-family="Times,serif" font-size="14.00">name</text>
</g>
<!-- description -->
<g id="node7" class="node">
<title>description</title>
<ellipse fill="none" stroke="blue" cx="691.14" cy="-18" rx="75.29" ry="18"/>
<text text-anchor="middle" x="691.14" y="-14.3" font-family="Times,serif" font-size="14.00">narrative text</text>
</g>
<!-- disease or phenotypic feature&#45;&gt;description -->
<g id="edge6" class="edge">
<title>disease or phenotypic feature&#45;&gt;description</title>
<path fill="none" stroke="blue" d="M740.61,-86.85C735.07,-81.37 729.14,-75.13 724.14,-69 718.03,-61.51 712,-52.86 706.8,-44.88"/>
<polygon fill="blue" stroke="blue" points="709.65,-42.83 701.33,-36.26 703.74,-46.58 709.65,-42.83"/>
<text text-anchor="middle" x="764.64" y="-57.8" font-family="Times,serif" font-size="14.00">description</text>
</g>
<!-- has attribute -->
<g id="node8" class="node">
<title>has attribute</title>
<ellipse fill="none" stroke="blue" cx="836.14" cy="-18" rx="51.99" ry="18"/>
<text text-anchor="middle" x="836.14" y="-14.3" font-family="Times,serif" font-size="14.00">attribute</text>
</g>
<!-- disease or phenotypic feature&#45;&gt;has attribute -->
<g id="edge7" class="edge">
<title>disease or phenotypic feature&#45;&gt;has attribute</title>
<path fill="none" stroke="blue" d="M784.9,-87.01C791.91,-81.71 799.2,-75.54 805.14,-69 811.73,-61.75 817.73,-52.92 822.66,-44.7"/>
<polygon fill="blue" stroke="blue" points="825.83,-46.22 827.75,-35.81 819.75,-42.75 825.83,-46.22"/>
<text text-anchor="middle" x="863.14" y="-57.8" font-family="Times,serif" font-size="14.00">has attribute</text>
</g>
<!-- provided by -->
<g id="node9" class="node">
<title>provided by</title>
<ellipse fill="none" stroke="blue" cx="944.14" cy="-18" rx="38.19" ry="18"/>
<text text-anchor="middle" x="944.14" y="-14.3" font-family="Times,serif" font-size="14.00">string</text>
</g>
<!-- disease or phenotypic feature&#45;&gt;provided by -->
<g id="edge8" class="edge">
<title>disease or phenotypic feature&#45;&gt;provided by</title>
<path fill="none" stroke="blue" d="M864.57,-92.29C882.21,-87.05 899.5,-79.59 914.14,-69 922.45,-62.99 928.89,-53.9 933.63,-45.11"/>
<polygon fill="blue" stroke="blue" points="936.9,-46.38 938.11,-35.86 930.6,-43.33 936.9,-46.38"/>
<text text-anchor="middle" x="970.64" y="-57.8" font-family="Times,serif" font-size="14.00">provided by</text>
</g>
<!-- xref -->
<g id="node10" class="node">
<title>xref</title>
<ellipse fill="none" stroke="blue" cx="1058.14" cy="-18" rx="57.39" ry="18"/>
<text text-anchor="middle" x="1058.14" y="-14.3" font-family="Times,serif" font-size="14.00">uriorcurie</text>
</g>
<!-- disease or phenotypic feature&#45;&gt;xref -->
<g id="edge9" class="edge">
<title>disease or phenotypic feature&#45;&gt;xref</title>
<path fill="none" stroke="blue" d="M861.45,-91.87C930.41,-83.4 1010.09,-72.94 1017.14,-69 1027.65,-63.13 1036.54,-53.41 1043.34,-44.1"/>
<polygon fill="blue" stroke="blue" points="1046.26,-46.02 1048.97,-35.77 1040.46,-42.09 1046.26,-46.02"/>
<text text-anchor="middle" x="1049.64" y="-57.8" font-family="Times,serif" font-size="14.00">xref</text>
</g>
<!-- category -->
<g id="node11" class="node">
<title>category</title>
<ellipse fill="none" stroke="black" cx="1185.14" cy="-18" rx="51.19" ry="18"/>
<text text-anchor="middle" x="1185.14" y="-14.3" font-family="Times,serif" font-size="14.00">category</text>
</g>
<!-- disease or phenotypic feature&#45;&gt;category -->
<g id="edge10" class="edge">
<title>disease or phenotypic feature&#45;&gt;category</title>
<path fill="none" stroke="blue" d="M865.25,-92.34C952.68,-82.68 1063.13,-70.33 1068.14,-69 1095.99,-61.64 1125.82,-48.81 1148.39,-37.99"/>
<polygon fill="blue" stroke="blue" points="1150.14,-41.03 1157.59,-33.5 1147.07,-34.74 1150.14,-41.03"/>
<text text-anchor="middle" x="1142.64" y="-57.8" font-family="Times,serif" font-size="14.00">category</text>
</g>
<!-- in taxon -->
<g id="node13" class="node">
<title>in taxon</title>
<ellipse fill="none" stroke="blue" cx="1338.14" cy="-18" rx="83.39" ry="18"/>
<text text-anchor="middle" x="1338.14" y="-14.3" font-family="Times,serif" font-size="14.00">organism taxon</text>
</g>
<!-- disease or phenotypic feature&#45;&gt;in taxon -->
<g id="edge11" class="edge">
<title>disease or phenotypic feature&#45;&gt;in taxon</title>
<path fill="none" stroke="blue" d="M864.05,-92.14C881.76,-90.3 899.97,-88.52 917.14,-87 1032.97,-76.78 1063.87,-90.49 1178.14,-69 1216.34,-61.82 1258.23,-48.52 1289.56,-37.45"/>
<polygon fill="blue" stroke="blue" points="1291.11,-40.61 1299.34,-33.94 1288.75,-34.02 1291.11,-40.61"/>
<text text-anchor="middle" x="1266.14" y="-57.8" font-family="Times,serif" font-size="14.00">in taxon</text>
</g>
<!-- in taxon label -->
<g id="node14" class="node">
<title>in taxon label</title>
<ellipse fill="none" stroke="blue" cx="1496.14" cy="-18" rx="56.59" ry="18"/>
<text text-anchor="middle" x="1496.14" y="-14.3" font-family="Times,serif" font-size="14.00">label type</text>
</g>
<!-- disease or phenotypic feature&#45;&gt;in taxon label -->
<g id="edge12" class="edge">
<title>disease or phenotypic feature&#45;&gt;in taxon label</title>
<path fill="none" stroke="blue" d="M862.32,-92C880.57,-90.13 899.4,-88.37 917.14,-87 1086.6,-73.9 1131.01,-93.88 1299.14,-69 1350.79,-61.36 1408.54,-45.85 1448.09,-34.12"/>
<polygon fill="blue" stroke="blue" points="1449.17,-37.45 1457.74,-31.22 1447.16,-30.74 1449.17,-37.45"/>
<text text-anchor="middle" x="1419.64" y="-57.8" font-family="Times,serif" font-size="14.00">in taxon label</text>
</g>
<!-- named thing_category -->
<g id="node12" class="node">
<title>named thing_category</title>
<ellipse fill="none" stroke="blue" cx="1001.14" cy="-105" rx="74.99" ry="18"/>
<text text-anchor="middle" x="1001.14" y="-101.3" font-family="Times,serif" font-size="14.00">category type</text>
</g>
</g>
</svg>
