<?xml version="1.0" encoding="UTF-8" standalone="no"?>
<!DOCTYPE svg PUBLIC "-//W3C//DTD SVG 1.1//EN"
 "http://www.w3.org/Graphics/SVG/1.1/DTD/svg11.dtd">
<!-- Generated by graphviz version 2.40.1 (20161225.0304)
 -->
<!-- Title: %3 Pages: 1 -->
<svg width="845pt" height="289pt"
 viewBox="0.00 0.00 844.56 289.00" xmlns="http://www.w3.org/2000/svg" xmlns:xlink="http://www.w3.org/1999/xlink">
<g id="graph0" class="graph" transform="scale(1 1) rotate(0) translate(4 285)">
<title>%3</title>
<polygon fill="#ffffff" stroke="transparent" points="-4,4 -4,-285 840.5576,-285 840.5576,4 -4,4"/>
<!-- disease or phenotypic feature association to thing association -->
<g id="node1" class="node">
<title>disease or phenotypic feature association to thing association</title>
<ellipse fill="none" stroke="#000000" cx="352.4015" cy="-263" rx="225.9458" ry="18"/>
<text text-anchor="middle" x="352.4015" y="-258.8" font-family="Times,serif" font-size="14.00" fill="#000000">disease or phenotypic feature association to thing association</text>
</g>
<!-- association -->
<g id="node2" class="node">
<title>association</title>
<ellipse fill="none" stroke="#000000" cx="49.4015" cy="-177" rx="49.3032" ry="18"/>
<text text-anchor="middle" x="49.4015" y="-172.8" font-family="Times,serif" font-size="14.00" fill="#000000">association</text>
</g>
<!-- disease or phenotypic feature association to thing association&#45;&gt;association -->
<g id="edge1" class="edge">
<title>disease or phenotypic feature association to thing association&#45;&gt;association</title>
<path fill="none" stroke="#000000" d="M216.3128,-248.611C188.5396,-243.4545 159.8686,-236.4656 133.8498,-227 114.9774,-220.1342 95.5816,-208.9915 80.145,-198.9655"/>
<polygon fill="#000000" stroke="#000000" points="81.8093,-195.8685 71.5476,-193.2323 77.9255,-201.6923 81.8093,-195.8685"/>
<text text-anchor="middle" x="145.6774" y="-215.8" font-family="Times,serif" font-size="14.00" fill="#000000">is_a</text>
</g>
<!-- id -->
<g id="node3" class="node">
<title>id</title>
<ellipse fill="none" stroke="#000000" cx="143.4015" cy="-177" rx="27" ry="18"/>
<text text-anchor="middle" x="143.4015" y="-172.8" font-family="Times,serif" font-size="14.00" fill="#000000">id</text>
</g>
<!-- disease or phenotypic feature association to thing association&#45;&gt;id -->
<g id="edge2" class="edge">
<title>disease or phenotypic feature association to thing association&#45;&gt;id</title>
<path fill="none" stroke="#000000" d="M238.0564,-247.3924C210.1702,-241.9431 185.0372,-235.1184 173.5119,-227 165.3597,-221.2576 159.0258,-212.5419 154.3167,-203.9871"/>
<polygon fill="#000000" stroke="#000000" points="157.4026,-202.3314 149.8355,-194.9159 151.1266,-205.4317 157.4026,-202.3314"/>
<text text-anchor="middle" x="179.8463" y="-215.8" font-family="Times,serif" font-size="14.00" fill="#000000">id</text>
</g>
<!-- relation -->
<g id="node5" class="node">
<title>relation</title>
<ellipse fill="none" stroke="#000000" cx="385.4015" cy="-18" rx="27" ry="18"/>
</g>
<!-- disease or phenotypic feature association to thing association&#45;&gt;relation -->
<g id="edge3" class="edge">
<title>disease or phenotypic feature association to thing association&#45;&gt;relation</title>
<path fill="none" stroke="#000000" d="M292.6151,-245.5203C281.8295,-240.644 271.2245,-234.5491 262.4015,-227 225.934,-195.7978 198.9808,-169.3072 221.6427,-127 248.9966,-75.9337 311.9972,-44.6853 351.3963,-29.4122"/>
<polygon fill="#000000" stroke="#000000" points="352.7273,-32.6513 360.8685,-25.871 350.276,-26.0945 352.7273,-32.6513"/>
<text text-anchor="middle" x="243.7809" y="-129.8" font-family="Times,serif" font-size="14.00" fill="#000000">relation</text>
</g>
<!-- object -->
<g id="node6" class="node">
<title>object</title>
<ellipse fill="none" stroke="#000000" cx="385.4015" cy="-91" rx="27" ry="18"/>
</g>
<!-- disease or phenotypic feature association to thing association&#45;&gt;object -->
<g id="edge4" class="edge">
<title>disease or phenotypic feature association to thing association&#45;&gt;object</title>
<path fill="none" stroke="#000000" d="M310.637,-245.1385C300.6117,-239.9732 290.2534,-233.8528 281.4015,-227 255.5293,-206.9706 236.1521,-186.9303 253.1945,-159 273.9994,-124.9036 317.9623,-107.1811 349.4826,-98.4961"/>
<polygon fill="#000000" stroke="#000000" points="350.4232,-101.8681 359.2342,-95.9845 348.6772,-95.0894 350.4232,-101.8681"/>
<text text-anchor="middle" x="270.505" y="-172.8" font-family="Times,serif" font-size="14.00" fill="#000000">object</text>
</g>
<!-- negated -->
<g id="node7" class="node">
<title>negated</title>
<ellipse fill="none" stroke="#000000" cx="323.4015" cy="-177" rx="27" ry="18"/>
</g>
<!-- disease or phenotypic feature association to thing association&#45;&gt;negated -->
<g id="edge5" class="edge">
<title>disease or phenotypic feature association to thing association&#45;&gt;negated</title>
<path fill="none" stroke="#000000" d="M305.2278,-245.3466C297.8976,-240.5183 291.2986,-234.4852 286.8703,-227 280.6505,-216.4866 287.1487,-205.4559 296.3004,-196.4382"/>
<polygon fill="#000000" stroke="#000000" points="298.7959,-198.9054 304.0166,-189.6861 294.1862,-193.6375 298.7959,-198.9054"/>
<text text-anchor="middle" x="309.1671" y="-215.8" font-family="Times,serif" font-size="14.00" fill="#000000">negated</text>
</g>
<!-- association type -->
<g id="node8" class="node">
<title>association type</title>
<ellipse fill="none" stroke="#000000" cx="395.4015" cy="-177" rx="27" ry="18"/>
</g>
<!-- disease or phenotypic feature association to thing association&#45;&gt;association type -->
<g id="edge6" class="edge">
<title>disease or phenotypic feature association to thing association&#45;&gt;association type</title>
<path fill="none" stroke="#000000" d="M349.3518,-244.5915C348.5638,-234.768 348.9868,-222.7329 353.591,-213 356.6733,-206.4843 361.5561,-200.6885 366.9146,-195.7525"/>
<polygon fill="#000000" stroke="#000000" points="369.445,-198.2035 374.9516,-189.1521 365.0023,-192.794 369.445,-198.2035"/>
<text text-anchor="middle" x="399.3068" y="-215.8" font-family="Times,serif" font-size="14.00" fill="#000000">association type</text>
</g>
<!-- qualifiers -->
<g id="node9" class="node">
<title>qualifiers</title>
<ellipse fill="none" stroke="#000000" cx="467.4015" cy="-177" rx="27" ry="18"/>
</g>
<!-- disease or phenotypic feature association to thing association&#45;&gt;qualifiers -->
<g id="edge7" class="edge">
<title>disease or phenotypic feature association to thing association&#45;&gt;qualifiers</title>
<path fill="none" stroke="#000000" d="M414.8162,-245.5756C425.1741,-240.7385 435.1968,-234.6434 443.4015,-227 450.0857,-220.7731 455.1119,-212.2942 458.7909,-204.0878"/>
<polygon fill="#000000" stroke="#000000" points="462.0689,-205.3163 462.5096,-194.7306 455.5638,-202.731 462.0689,-205.3163"/>
<text text-anchor="middle" x="480.4533" y="-215.8" font-family="Times,serif" font-size="14.00" fill="#000000">qualifiers</text>
</g>
<!-- publications -->
<g id="node10" class="node">
<title>publications</title>
<ellipse fill="none" stroke="#000000" cx="540.4015" cy="-177" rx="27" ry="18"/>
</g>
<!-- disease or phenotypic feature association to thing association&#45;&gt;publications -->
<g id="edge8" class="edge">
<title>disease or phenotypic feature association to thing association&#45;&gt;publications</title>
<path fill="none" stroke="#000000" d="M451.7846,-246.7753C477.0765,-241.233 500.0371,-234.5125 510.4015,-227 518.4674,-221.1536 524.7651,-212.4138 529.4622,-203.8688"/>
<polygon fill="#000000" stroke="#000000" points="532.6419,-205.3345 533.9387,-194.8193 526.3676,-202.2307 532.6419,-205.3345"/>
<text text-anchor="middle" x="558.6188" y="-215.8" font-family="Times,serif" font-size="14.00" fill="#000000">publications</text>
</g>
<!-- provided by -->
<g id="node11" class="node">
<title>provided by</title>
<ellipse fill="none" stroke="#000000" cx="631.4015" cy="-177" rx="27" ry="18"/>
</g>
<!-- disease or phenotypic feature association to thing association&#45;&gt;provided by -->
<g id="edge9" class="edge">
<title>disease or phenotypic feature association to thing association&#45;&gt;provided by</title>
<path fill="none" stroke="#000000" d="M507.4163,-249.8564C545.5654,-244.4564 580.1441,-237.041 596.4015,-227 605.5969,-221.3207 613.0211,-212.2295 618.6257,-203.3468"/>
<polygon fill="#000000" stroke="#000000" points="621.6661,-205.0805 623.6219,-194.6677 615.5995,-201.5881 621.6661,-205.0805"/>
<text text-anchor="middle" x="645.0343" y="-215.8" font-family="Times,serif" font-size="14.00" fill="#000000">provided by</text>
</g>
<!-- association slot -->
<g id="node12" class="node">
<title>association slot</title>
<ellipse fill="none" stroke="#000000" cx="721.4015" cy="-177" rx="27" ry="18"/>
</g>
<!-- disease or phenotypic feature association to thing association&#45;&gt;association slot -->
<g id="edge10" class="edge">
<title>disease or phenotypic feature association to thing association&#45;&gt;association slot</title>
<path fill="none" stroke="#000000" d="M517.2969,-250.6881C592.0006,-244.0651 667.1109,-235.5231 682.4015,-227 692.4577,-221.3946 700.8061,-212.0249 707.1638,-202.9019"/>
<polygon fill="#000000" stroke="#000000" points="710.1885,-204.6689 712.6402,-194.3616 704.2959,-200.8903 710.1885,-204.6689"/>
<text text-anchor="middle" x="740.3688" y="-215.8" font-family="Times,serif" font-size="14.00" fill="#000000">association slot</text>
</g>
<!-- subject -->
<g id="node13" class="node">
<title>subject</title>
<ellipse fill="none" stroke="#000000" cx="801.4015" cy="-177" rx="35.3129" ry="18"/>
<text text-anchor="middle" x="801.4015" y="-172.8" font-family="Times,serif" font-size="14.00" fill="#000000">subject</text>
</g>
<!-- disease or phenotypic feature association to thing association&#45;&gt;subject -->
<g id="edge11" class="edge">
<title>disease or phenotypic feature association to thing association&#45;&gt;subject</title>
<path fill="none" stroke="#0000ff" d="M515.7383,-250.5434C638.0126,-241.0535 784.6829,-229.2446 787.4015,-227 794.0237,-221.5325 797.656,-213.2101 799.6066,-204.9149"/>
<polygon fill="#0000ff" stroke="#0000ff" points="803.0673,-205.4396 801.2398,-195.0036 796.1604,-204.3014 803.0673,-205.4396"/>
<text text-anchor="middle" x="816.2292" y="-215.8" font-family="Times,serif" font-size="14.00" fill="#000000">subject</text>
</g>
<!-- association_id -->
<g id="node4" class="node">
<title>association_id</title>
<ellipse fill="none" stroke="#000000" cx="623.4015" cy="-263" rx="27" ry="18"/>
</g>
<!-- object&#45;&gt;relation -->
<g id="edge14" class="edge">
<title>object&#45;&gt;relation</title>
<path fill="none" stroke="#000000" stroke-dasharray="1,5" d="M385.4015,-72.9551C385.4015,-64.8828 385.4015,-55.1764 385.4015,-46.1817"/>
<polygon fill="#000000" stroke="#000000" points="388.9016,-46.0903 385.4015,-36.0904 381.9016,-46.0904 388.9016,-46.0903"/>
</g>
<!-- subject&#45;&gt;relation -->
<g id="edge13" class="edge">
<title>subject&#45;&gt;relation</title>
<path fill="none" stroke="#000000" stroke-dasharray="1,5" d="M773.9844,-165.6553C768.5022,-163.4232 762.7767,-161.1178 757.4015,-159 633.2741,-110.0957 484.6693,-54.7146 419.1984,-30.4747"/>
<polygon fill="#000000" stroke="#000000" points="420.0142,-27.0447 409.4211,-26.8575 417.5854,-33.6098 420.0142,-27.0447"/>
</g>
<!-- subject&#45;&gt;object -->
<g id="edge12" class="edge">
<title>subject&#45;&gt;object</title>
<path fill="none" stroke="#000000" d="M774.7753,-164.8751C769.128,-162.6541 763.1378,-160.5515 757.4015,-159 702.0479,-144.0289 686.1494,-150.7549 629.6427,-141 554.9393,-128.1038 468.1284,-109.4494 420.7454,-98.9526"/>
<polygon fill="#000000" stroke="#000000" points="421.4937,-95.5336 410.9724,-96.7793 419.9741,-102.3667 421.4937,-95.5336"/>
<text text-anchor="middle" x="651.7809" y="-129.8" font-family="Times,serif" font-size="14.00" fill="#000000">relation</text>
</g>
<!-- disease or phenotypic feature association to thing association subject -->
<g id="node14" class="node">
<title>disease or phenotypic feature association to thing association subject</title>
<ellipse fill="none" stroke="#0000ff" cx="695.4015" cy="-263" rx="27" ry="18"/>
</g>
</g>
</svg>
