<?xml version="1.0" encoding="UTF-8" standalone="no"?>
<!DOCTYPE svg PUBLIC "-//W3C//DTD SVG 1.1//EN"
 "http://www.w3.org/Graphics/SVG/1.1/DTD/svg11.dtd">
<!-- Generated by graphviz version 2.40.1 (20161225.0304)
 -->
<!-- Title: %3 Pages: 1 -->
<svg width="1733pt" height="131pt"
 viewBox="0.00 0.00 1732.59 131.00" xmlns="http://www.w3.org/2000/svg" xmlns:xlink="http://www.w3.org/1999/xlink">
<g id="graph0" class="graph" transform="scale(1 1) rotate(0) translate(4 127)">
<title>%3</title>
<polygon fill="#ffffff" stroke="transparent" points="-4,4 -4,-127 1728.5859,-127 1728.5859,4 -4,4"/>
<!-- disease or phenotypic feature exposure -->
<g id="node1" class="node">
<title>disease or phenotypic feature exposure</title>
<ellipse fill="none" stroke="#000000" cx="965.3899" cy="-105" rx="148.3739" ry="18"/>
<text text-anchor="middle" x="965.3899" y="-101.3" font-family="Times,serif" font-size="14.00" fill="#000000">disease or phenotypic feature exposure</text>
</g>
<!-- disease or phenotypic feature -->
<g id="node2" class="node">
<title>disease or phenotypic feature</title>
<ellipse fill="none" stroke="#000000" cx="114.3899" cy="-18" rx="114.2798" ry="18"/>
<text text-anchor="middle" x="114.3899" y="-14.3" font-family="Times,serif" font-size="14.00" fill="#000000">disease or phenotypic feature</text>
</g>
<!-- disease or phenotypic feature exposure&#45;&gt;disease or phenotypic feature -->
<g id="edge1" class="edge">
<title>disease or phenotypic feature exposure&#45;&gt;disease or phenotypic feature</title>
<path fill="none" stroke="#000000" d="M829.631,-97.722C729.5968,-91.7381 590.3162,-82.1088 468.3899,-69 365.2751,-57.9137 340.0313,-50.8418 237.3899,-36 227.8582,-34.6217 217.9121,-33.177 207.9856,-31.7309"/>
<polygon fill="#000000" stroke="#000000" points="208.4822,-28.2664 198.0818,-30.2867 207.4721,-35.1931 208.4822,-28.2664"/>
<text text-anchor="middle" x="479.3899" y="-57.8" font-family="Times,serif" font-size="14.00" fill="#000000">is_a</text>
</g>
<!-- exposure event -->
<g id="node3" class="node">
<title>exposure event</title>
<ellipse fill="none" stroke="#000000" cx="310.3899" cy="-18" rx="63.8893" ry="18"/>
<text text-anchor="middle" x="310.3899" y="-14.3" font-family="Times,serif" font-size="14.00" fill="#000000">exposure event</text>
</g>
<!-- disease or phenotypic feature exposure&#45;&gt;exposure event -->
<g id="edge2" class="edge">
<title>disease or phenotypic feature exposure&#45;&gt;exposure event</title>
<path fill="none" stroke="#000000" d="M839.9878,-95.3908C721.5744,-85.079 539.3856,-66.0095 383.3899,-36 378.1024,-34.9828 372.6235,-33.8261 367.1522,-32.6012"/>
<polygon fill="#000000" stroke="#000000" points="367.8862,-29.1787 357.355,-30.3382 366.3107,-35.9991 367.8862,-29.1787"/>
<text text-anchor="middle" x="602.3899" y="-57.8" font-family="Times,serif" font-size="14.00" fill="#000000">uses</text>
</g>
<!-- pathological entity mixin -->
<g id="node4" class="node">
<title>pathological entity mixin</title>
<ellipse fill="none" stroke="#000000" cx="492.3899" cy="-18" rx="100.1823" ry="18"/>
<text text-anchor="middle" x="492.3899" y="-14.3" font-family="Times,serif" font-size="14.00" fill="#000000">pathological entity mixin</text>
</g>
<!-- disease or phenotypic feature exposure&#45;&gt;pathological entity mixin -->
<g id="edge3" class="edge">
<title>disease or phenotypic feature exposure&#45;&gt;pathological entity mixin</title>
<path fill="none" stroke="#000000" d="M861.9946,-92.0444C816.8396,-85.8882 763.3507,-77.922 715.3899,-69 663.1184,-59.2761 604.5324,-45.7751 560.5313,-35.1068"/>
<polygon fill="#000000" stroke="#000000" points="561.3515,-31.7043 550.8072,-32.7377 559.6945,-38.5054 561.3515,-31.7043"/>
<text text-anchor="middle" x="727.3899" y="-57.8" font-family="Times,serif" font-size="14.00" fill="#000000">uses</text>
</g>
<!-- id -->
<g id="node5" class="node">
<title>id</title>
<ellipse fill="none" stroke="#0000ff" cx="641.3899" cy="-18" rx="30.5947" ry="18"/>
<text text-anchor="middle" x="641.3899" y="-14.3" font-family="Times,serif" font-size="14.00" fill="#000000">string</text>
</g>
<!-- disease or phenotypic feature exposure&#45;&gt;id -->
<g id="edge4" class="edge">
<title>disease or phenotypic feature exposure&#45;&gt;id</title>
<path fill="none" stroke="#0000ff" d="M884.9076,-89.8546C827.3699,-77.9669 748.558,-59.5069 681.3899,-36 679.1459,-35.2147 676.8544,-34.3532 674.5604,-33.4459"/>
<polygon fill="#0000ff" stroke="#0000ff" points="675.8058,-30.1729 665.2302,-29.5349 673.0997,-36.6287 675.8058,-30.1729"/>
<text text-anchor="middle" x="794.8899" y="-57.8" font-family="Times,serif" font-size="14.00" fill="#000000">id</text>
</g>
<!-- iri -->
<g id="node6" class="node">
<title>iri</title>
<ellipse fill="none" stroke="#0000ff" cx="726.3899" cy="-18" rx="36.2938" ry="18"/>
<text text-anchor="middle" x="726.3899" y="-14.3" font-family="Times,serif" font-size="14.00" fill="#000000">iri type</text>
</g>
<!-- disease or phenotypic feature exposure&#45;&gt;iri -->
<g id="edge5" class="edge">
<title>disease or phenotypic feature exposure&#45;&gt;iri</title>
<path fill="none" stroke="#0000ff" d="M915.7282,-88.0265C876.3996,-74.4189 820.1579,-54.5905 771.3899,-36 769.0508,-35.1083 766.6476,-34.1808 764.2269,-33.2378"/>
<polygon fill="#0000ff" stroke="#0000ff" points="765.4884,-29.9731 754.9013,-29.5672 762.9245,-36.4867 765.4884,-29.9731"/>
<text text-anchor="middle" x="868.8899" y="-57.8" font-family="Times,serif" font-size="14.00" fill="#000000">iri</text>
</g>
<!-- type -->
<g id="node7" class="node">
<title>type</title>
<ellipse fill="none" stroke="#0000ff" cx="811.3899" cy="-18" rx="30.5947" ry="18"/>
<text text-anchor="middle" x="811.3899" y="-14.3" font-family="Times,serif" font-size="14.00" fill="#000000">string</text>
</g>
<!-- disease or phenotypic feature exposure&#45;&gt;type -->
<g id="edge6" class="edge">
<title>disease or phenotypic feature exposure&#45;&gt;type</title>
<path fill="none" stroke="#0000ff" d="M934.2257,-87.3943C907.495,-72.2932 869.1772,-50.6461 842.4706,-35.5586"/>
<polygon fill="#0000ff" stroke="#0000ff" points="843.9748,-32.3885 833.5465,-30.5171 840.5316,-38.4832 843.9748,-32.3885"/>
<text text-anchor="middle" x="910.3899" y="-57.8" font-family="Times,serif" font-size="14.00" fill="#000000">type</text>
</g>
<!-- name -->
<g id="node8" class="node">
<title>name</title>
<ellipse fill="none" stroke="#0000ff" cx="905.3899" cy="-18" rx="45.4919" ry="18"/>
<text text-anchor="middle" x="905.3899" y="-14.3" font-family="Times,serif" font-size="14.00" fill="#000000">label type</text>
</g>
<!-- disease or phenotypic feature exposure&#45;&gt;name -->
<g id="edge7" class="edge">
<title>disease or phenotypic feature exposure&#45;&gt;name</title>
<path fill="none" stroke="#0000ff" d="M952.9578,-86.9735C944.398,-74.5619 932.8921,-57.8782 923.3405,-44.0284"/>
<polygon fill="#0000ff" stroke="#0000ff" points="925.9552,-41.6548 917.3965,-35.4097 920.1927,-45.6289 925.9552,-41.6548"/>
<text text-anchor="middle" x="954.8899" y="-57.8" font-family="Times,serif" font-size="14.00" fill="#000000">name</text>
</g>
<!-- description -->
<g id="node9" class="node">
<title>description</title>
<ellipse fill="none" stroke="#0000ff" cx="1026.3899" cy="-18" rx="57.6901" ry="18"/>
<text text-anchor="middle" x="1026.3899" y="-14.3" font-family="Times,serif" font-size="14.00" fill="#000000">narrative text</text>
</g>
<!-- disease or phenotypic feature exposure&#45;&gt;description -->
<g id="edge8" class="edge">
<title>disease or phenotypic feature exposure&#45;&gt;description</title>
<path fill="none" stroke="#0000ff" d="M978.0291,-86.9735C986.7566,-74.5261 998.4967,-57.782 1008.224,-43.9087"/>
<polygon fill="#0000ff" stroke="#0000ff" points="1011.1003,-45.9029 1013.9755,-35.7057 1005.3688,-41.8843 1011.1003,-45.9029"/>
<text text-anchor="middle" x="1030.8899" y="-57.8" font-family="Times,serif" font-size="14.00" fill="#000000">description</text>
</g>
<!-- source -->
<g id="node10" class="node">
<title>source</title>
<ellipse fill="none" stroke="#0000ff" cx="1147.3899" cy="-18" rx="45.4919" ry="18"/>
<text text-anchor="middle" x="1147.3899" y="-14.3" font-family="Times,serif" font-size="14.00" fill="#000000">label type</text>
</g>
<!-- disease or phenotypic feature exposure&#45;&gt;source -->
<g id="edge9" class="edge">
<title>disease or phenotypic feature exposure&#45;&gt;source</title>
<path fill="none" stroke="#0000ff" d="M1018.6649,-88.1657C1034.0197,-82.6895 1050.6096,-76.1576 1065.3899,-69 1082.9223,-60.5097 1101.4324,-49.2199 1116.4207,-39.4211"/>
<polygon fill="#0000ff" stroke="#0000ff" points="1118.4084,-42.3027 1124.8046,-33.8565 1114.5373,-36.4704 1118.4084,-42.3027"/>
<text text-anchor="middle" x="1109.3899" y="-57.8" font-family="Times,serif" font-size="14.00" fill="#000000">source</text>
</g>
<!-- provided by -->
<g id="node11" class="node">
<title>provided by</title>
<ellipse fill="none" stroke="#0000ff" cx="1240.3899" cy="-18" rx="29.795" ry="18"/>
<text text-anchor="middle" x="1240.3899" y="-14.3" font-family="Times,serif" font-size="14.00" fill="#000000">agent</text>
</g>
<!-- disease or phenotypic feature exposure&#45;&gt;provided by -->
<g id="edge10" class="edge">
<title>disease or phenotypic feature exposure&#45;&gt;provided by</title>
<path fill="none" stroke="#0000ff" d="M1050.8344,-90.2911C1077.0166,-84.7684 1105.685,-77.6782 1131.3899,-69 1158.4617,-59.8602 1187.7168,-45.9306 1209.0963,-34.9373"/>
<polygon fill="#0000ff" stroke="#0000ff" points="1210.7891,-38.002 1218.0377,-30.2749 1207.5525,-31.7952 1210.7891,-38.002"/>
<text text-anchor="middle" x="1201.3899" y="-57.8" font-family="Times,serif" font-size="14.00" fill="#000000">provided by</text>
</g>
<!-- has attribute -->
<g id="node12" class="node">
<title>has attribute</title>
<ellipse fill="none" stroke="#0000ff" cx="1328.3899" cy="-18" rx="40.0939" ry="18"/>
<text text-anchor="middle" x="1328.3899" y="-14.3" font-family="Times,serif" font-size="14.00" fill="#000000">attribute</text>
</g>
<!-- disease or phenotypic feature exposure&#45;&gt;has attribute -->
<g id="edge11" class="edge">
<title>disease or phenotypic feature exposure&#45;&gt;has attribute</title>
<path fill="none" stroke="#0000ff" d="M1073.7222,-92.7104C1142.9371,-84.5112 1222.5814,-74.2973 1238.3899,-69 1259.5108,-61.9226 1281.292,-49.7316 1298.1359,-39.0433"/>
<polygon fill="#0000ff" stroke="#0000ff" points="1300.4811,-41.6927 1306.95,-33.302 1296.6605,-35.8273 1300.4811,-41.6927"/>
<text text-anchor="middle" x="1305.8899" y="-57.8" font-family="Times,serif" font-size="14.00" fill="#000000">has attribute</text>
</g>
<!-- category -->
<g id="node13" class="node">
<title>category</title>
<ellipse fill="none" stroke="#000000" cx="1427.3899" cy="-18" rx="40.8928" ry="18"/>
<text text-anchor="middle" x="1427.3899" y="-14.3" font-family="Times,serif" font-size="14.00" fill="#000000">category</text>
</g>
<!-- disease or phenotypic feature exposure&#45;&gt;category -->
<g id="edge12" class="edge">
<title>disease or phenotypic feature exposure&#45;&gt;category</title>
<path fill="none" stroke="#0000ff" d="M1071.3267,-92.3738C1088.3906,-90.4785 1105.8705,-88.6193 1122.3899,-87 1220.4673,-77.3862 1249.6444,-99.3875 1343.3899,-69 1363.3825,-62.5194 1383.5847,-50.4665 1399.1655,-39.7046"/>
<polygon fill="#0000ff" stroke="#0000ff" points="1401.199,-42.5534 1407.3153,-33.9023 1397.1391,-36.8509 1401.199,-42.5534"/>
<text text-anchor="middle" x="1398.8899" y="-57.8" font-family="Times,serif" font-size="14.00" fill="#000000">category</text>
</g>
<!-- in taxon -->
<g id="node15" class="node">
<title>in taxon</title>
<ellipse fill="none" stroke="#0000ff" cx="1552.3899" cy="-18" rx="65.7887" ry="18"/>
<text text-anchor="middle" x="1552.3899" y="-14.3" font-family="Times,serif" font-size="14.00" fill="#000000">organism taxon</text>
</g>
<!-- disease or phenotypic feature exposure&#45;&gt;in taxon -->
<g id="edge13" class="edge">
<title>disease or phenotypic feature exposure&#45;&gt;in taxon</title>
<path fill="none" stroke="#0000ff" d="M1070.0284,-92.192C1087.497,-90.2868 1105.4437,-88.472 1122.3899,-87 1257.2298,-75.2873 1294.3599,-98.7842 1426.3899,-69 1456.0611,-62.3065 1487.7945,-49.4251 1511.9922,-38.2834"/>
<polygon fill="#0000ff" stroke="#0000ff" points="1513.643,-41.375 1521.2077,-33.9569 1510.6682,-35.0385 1513.643,-41.375"/>
<text text-anchor="middle" x="1495.8899" y="-57.8" font-family="Times,serif" font-size="14.00" fill="#000000">in taxon</text>
</g>
<!-- timepoint -->
<g id="node16" class="node">
<title>timepoint</title>
<ellipse fill="none" stroke="#0000ff" cx="1680.3899" cy="-18" rx="44.393" ry="18"/>
<text text-anchor="middle" x="1680.3899" y="-14.3" font-family="Times,serif" font-size="14.00" fill="#000000">time type</text>
</g>
<!-- disease or phenotypic feature exposure&#45;&gt;timepoint -->
<g id="edge14" class="edge">
<title>disease or phenotypic feature exposure&#45;&gt;timepoint</title>
<path fill="none" stroke="#0000ff" d="M1069.1662,-92.0761C1086.9025,-90.1614 1105.1602,-88.3737 1122.3899,-87 1299.7846,-72.8565 1347.1422,-99.9384 1522.3899,-69 1563.2429,-61.7878 1608.0999,-46.5654 1639.5463,-34.619"/>
<polygon fill="#0000ff" stroke="#0000ff" points="1641.1933,-37.7351 1649.2629,-30.8698 1638.6733,-31.2044 1641.1933,-37.7351"/>
<text text-anchor="middle" x="1606.8899" y="-57.8" font-family="Times,serif" font-size="14.00" fill="#000000">timepoint</text>
</g>
<!-- named thing_category -->
<g id="node14" class="node">
<title>named thing_category</title>
<ellipse fill="none" stroke="#0000ff" cx="1186.3899" cy="-105" rx="55.4913" ry="18"/>
<text text-anchor="middle" x="1186.3899" y="-101.3" font-family="Times,serif" font-size="14.00" fill="#000000">named thing</text>
</g>
</g>
</svg>
