<?xml version="1.0" encoding="UTF-8" standalone="no"?>
<!DOCTYPE svg PUBLIC "-//W3C//DTD SVG 1.1//EN"
 "http://www.w3.org/Graphics/SVG/1.1/DTD/svg11.dtd">
<!-- Generated by graphviz version 2.43.0 (0)
 -->
<!-- Title: %3 Pages: 1 -->
<svg width="5146pt" height="291pt"
 viewBox="0.00 0.00 5146.39 291.00" xmlns="http://www.w3.org/2000/svg" xmlns:xlink="http://www.w3.org/1999/xlink">
<g id="graph0" class="graph" transform="scale(1 1) rotate(0) translate(4 287)">
<title>%3</title>
<polygon fill="white" stroke="transparent" points="-4,4 -4,-287 5142.39,-287 5142.39,4 -4,4"/>
<!-- disease or phenotypic feature to location association -->
<g id="node1" class="node">
<title>disease or phenotypic feature to location association</title>
<ellipse fill="none" stroke="black" cx="2770.39" cy="-265" rx="254.55" ry="18"/>
<text text-anchor="middle" x="2770.39" y="-261.3" font-family="Times,serif" font-size="14.00">disease or phenotypic feature to location association</text>
</g>
<!-- association -->
<g id="node2" class="node">
<title>association</title>
<ellipse fill="none" stroke="black" cx="62.39" cy="-178" rx="62.29" ry="18"/>
<text text-anchor="middle" x="62.39" y="-174.3" font-family="Times,serif" font-size="14.00">association</text>
</g>
<!-- disease or phenotypic feature to location association&#45;&gt;association -->
<g id="edge1" class="edge">
<title>disease or phenotypic feature to location association&#45;&gt;association</title>
<path fill="none" stroke="black" d="M2516.03,-263.7C2117.82,-262.35 1323.03,-256.13 649.39,-229 420.22,-219.77 361.25,-229.8 134.39,-196 128.62,-195.14 122.62,-194.05 116.66,-192.83"/>
<polygon fill="black" stroke="black" points="117.23,-189.38 106.72,-190.7 115.76,-196.22 117.23,-189.38"/>
<text text-anchor="middle" x="663.39" y="-217.8" font-family="Times,serif" font-size="14.00">is_a</text>
</g>
<!-- disease or phenotypic feature to entity association mixin -->
<g id="node3" class="node">
<title>disease or phenotypic feature to entity association mixin</title>
<ellipse fill="none" stroke="black" cx="417.39" cy="-178" rx="274.05" ry="18"/>
<text text-anchor="middle" x="417.39" y="-174.3" font-family="Times,serif" font-size="14.00">disease or phenotypic feature to entity association mixin</text>
</g>
<!-- disease or phenotypic feature to location association&#45;&gt;disease or phenotypic feature to entity association mixin -->
<g id="edge2" class="edge">
<title>disease or phenotypic feature to location association&#45;&gt;disease or phenotypic feature to entity association mixin</title>
<path fill="none" stroke="black" d="M2517.43,-262.68C2068.33,-259.81 1148.91,-251.32 828.39,-229 727.72,-221.99 613.86,-207.63 531.55,-196.09"/>
<polygon fill="black" stroke="black" points="531.81,-192.59 521.42,-194.66 530.83,-199.52 531.81,-192.59"/>
<text text-anchor="middle" x="844.89" y="-217.8" font-family="Times,serif" font-size="14.00">uses</text>
</g>
<!-- id -->
<g id="node4" class="node">
<title>id</title>
<ellipse fill="none" stroke="blue" cx="748.39" cy="-178" rx="38.19" ry="18"/>
<text text-anchor="middle" x="748.39" y="-174.3" font-family="Times,serif" font-size="14.00">string</text>
</g>
<!-- disease or phenotypic feature to location association&#45;&gt;id -->
<g id="edge3" class="edge">
<title>disease or phenotypic feature to location association&#45;&gt;id</title>
<path fill="none" stroke="blue" d="M2515.57,-264.83C2089.73,-265.24 1251.22,-261.67 957.39,-229 884.8,-220.93 866.77,-215.57 796.39,-196 793.29,-195.14 790.09,-194.17 786.89,-193.15"/>
<polygon fill="blue" stroke="blue" points="787.97,-189.83 777.38,-189.99 785.76,-196.47 787.97,-189.83"/>
<text text-anchor="middle" x="964.39" y="-217.8" font-family="Times,serif" font-size="14.00">id</text>
</g>
<!-- iri -->
<g id="node5" class="node">
<title>iri</title>
<ellipse fill="none" stroke="blue" cx="849.39" cy="-178" rx="44.39" ry="18"/>
<text text-anchor="middle" x="849.39" y="-174.3" font-family="Times,serif" font-size="14.00">iri type</text>
</g>
<!-- disease or phenotypic feature to location association&#45;&gt;iri -->
<g id="edge4" class="edge">
<title>disease or phenotypic feature to location association&#45;&gt;iri</title>
<path fill="none" stroke="blue" d="M2515.9,-264.13C2112.29,-263.42 1343.29,-258.13 1071.39,-229 995.3,-220.85 976.51,-215.05 902.39,-196 899.02,-195.13 895.54,-194.17 892.05,-193.16"/>
<polygon fill="blue" stroke="blue" points="892.88,-189.75 882.3,-190.21 890.86,-196.46 892.88,-189.75"/>
<text text-anchor="middle" x="1079.39" y="-217.8" font-family="Times,serif" font-size="14.00">iri</text>
</g>
<!-- name -->
<g id="node6" class="node">
<title>name</title>
<ellipse fill="none" stroke="blue" cx="968.39" cy="-178" rx="56.59" ry="18"/>
<text text-anchor="middle" x="968.39" y="-174.3" font-family="Times,serif" font-size="14.00">label type</text>
</g>
<!-- disease or phenotypic feature to location association&#45;&gt;name -->
<g id="edge5" class="edge">
<title>disease or phenotypic feature to location association&#45;&gt;name</title>
<path fill="none" stroke="blue" d="M2520.19,-261.52C2103.25,-256.95 1299.08,-246.06 1169.39,-229 1116.2,-222 1056.74,-206.18 1016.38,-194.19"/>
<polygon fill="blue" stroke="blue" points="1017.39,-190.84 1006.8,-191.31 1015.37,-197.54 1017.39,-190.84"/>
<text text-anchor="middle" x="1189.39" y="-217.8" font-family="Times,serif" font-size="14.00">name</text>
</g>
<!-- description -->
<g id="node7" class="node">
<title>description</title>
<ellipse fill="none" stroke="blue" cx="1118.39" cy="-178" rx="75.29" ry="18"/>
<text text-anchor="middle" x="1118.39" y="-174.3" font-family="Times,serif" font-size="14.00">narrative text</text>
</g>
<!-- disease or phenotypic feature to location association&#45;&gt;description -->
<g id="edge6" class="edge">
<title>disease or phenotypic feature to location association&#45;&gt;description</title>
<path fill="none" stroke="blue" d="M2518.75,-262.04C2124.33,-258.38 1393.12,-248.99 1274.39,-229 1236.31,-222.59 1194.73,-208.91 1164.08,-197.48"/>
<polygon fill="blue" stroke="blue" points="1165.13,-194.13 1154.53,-193.86 1162.64,-200.67 1165.13,-194.13"/>
<text text-anchor="middle" x="1314.89" y="-217.8" font-family="Times,serif" font-size="14.00">description</text>
</g>
<!-- has attribute -->
<g id="node8" class="node">
<title>has attribute</title>
<ellipse fill="none" stroke="blue" cx="1263.39" cy="-178" rx="51.99" ry="18"/>
<text text-anchor="middle" x="1263.39" y="-174.3" font-family="Times,serif" font-size="14.00">attribute</text>
</g>
<!-- disease or phenotypic feature to location association&#45;&gt;has attribute -->
<g id="edge7" class="edge">
<title>disease or phenotypic feature to location association&#45;&gt;has attribute</title>
<path fill="none" stroke="blue" d="M2520.6,-261.33C2160.04,-256.89 1525.3,-246.7 1420.39,-229 1380.31,-222.24 1336.34,-207.57 1305.16,-195.87"/>
<polygon fill="blue" stroke="blue" points="1306.1,-192.48 1295.51,-192.18 1303.6,-199.02 1306.1,-192.48"/>
<text text-anchor="middle" x="1467.39" y="-217.8" font-family="Times,serif" font-size="14.00">has attribute</text>
</g>
<!-- subject -->
<g id="node9" class="node">
<title>subject</title>
<ellipse fill="none" stroke="blue" cx="1403.39" cy="-178" rx="69.59" ry="18"/>
<text text-anchor="middle" x="1403.39" y="-174.3" font-family="Times,serif" font-size="14.00">named thing</text>
</g>
<!-- disease or phenotypic feature to location association&#45;&gt;subject -->
<g id="edge8" class="edge">
<title>disease or phenotypic feature to location association&#45;&gt;subject</title>
<path fill="none" stroke="blue" d="M2516.46,-263.34C2224.17,-261.36 1762.32,-254.19 1590.39,-229 1543.08,-222.07 1490.6,-207.4 1453.3,-195.73"/>
<polygon fill="blue" stroke="blue" points="1454.27,-192.37 1443.68,-192.68 1452.16,-199.04 1454.27,-192.37"/>
<text text-anchor="middle" x="1616.39" y="-217.8" font-family="Times,serif" font-size="14.00">subject</text>
</g>
<!-- predicate -->
<g id="node10" class="node">
<title>predicate</title>
<ellipse fill="none" stroke="blue" cx="1569.39" cy="-178" rx="77.99" ry="18"/>
<text text-anchor="middle" x="1569.39" y="-174.3" font-family="Times,serif" font-size="14.00">predicate type</text>
</g>
<!-- disease or phenotypic feature to location association&#45;&gt;predicate -->
<g id="edge9" class="edge">
<title>disease or phenotypic feature to location association&#45;&gt;predicate</title>
<path fill="none" stroke="blue" d="M2523.8,-260.4C2231.77,-255.43 1774.87,-245.22 1696.39,-229 1666.28,-222.78 1634.06,-210.01 1609.61,-198.94"/>
<polygon fill="blue" stroke="blue" points="1610.85,-195.66 1600.31,-194.64 1607.92,-202.01 1610.85,-195.66"/>
<text text-anchor="middle" x="1730.39" y="-217.8" font-family="Times,serif" font-size="14.00">predicate</text>
</g>
<!-- negated -->
<g id="node11" class="node">
<title>negated</title>
<ellipse fill="none" stroke="blue" cx="1712.39" cy="-178" rx="46.59" ry="18"/>
<text text-anchor="middle" x="1712.39" y="-174.3" font-family="Times,serif" font-size="14.00">boolean</text>
</g>
<!-- disease or phenotypic feature to location association&#45;&gt;negated -->
<g id="edge10" class="edge">
<title>disease or phenotypic feature to location association&#45;&gt;negated</title>
<path fill="none" stroke="blue" d="M2522.53,-260.83C2259.53,-256.55 1872.64,-247.23 1805.39,-229 1782.95,-222.91 1759.9,-210.58 1742.37,-199.68"/>
<polygon fill="blue" stroke="blue" points="1744.05,-196.6 1733.74,-194.16 1740.27,-202.5 1744.05,-196.6"/>
<text text-anchor="middle" x="1834.39" y="-217.8" font-family="Times,serif" font-size="14.00">negated</text>
</g>
<!-- qualifiers -->
<g id="node12" class="node">
<title>qualifiers</title>
<ellipse fill="none" stroke="blue" cx="1853.39" cy="-178" rx="76.89" ry="18"/>
<text text-anchor="middle" x="1853.39" y="-174.3" font-family="Times,serif" font-size="14.00">ontology class</text>
</g>
<!-- disease or phenotypic feature to location association&#45;&gt;qualifiers -->
<g id="edge11" class="edge">
<title>disease or phenotypic feature to location association&#45;&gt;qualifiers</title>
<path fill="none" stroke="blue" d="M2524.38,-260.29C2270.46,-255.56 1907.5,-245.9 1880.39,-229 1871.79,-223.63 1865.74,-214.51 1861.58,-205.52"/>
<polygon fill="blue" stroke="blue" points="1864.74,-203.99 1857.78,-195.99 1858.24,-206.58 1864.74,-203.99"/>
<text text-anchor="middle" x="1913.89" y="-217.8" font-family="Times,serif" font-size="14.00">qualifiers</text>
</g>
<!-- publications -->
<g id="node13" class="node">
<title>publications</title>
<ellipse fill="none" stroke="blue" cx="2010.39" cy="-178" rx="62.29" ry="18"/>
<text text-anchor="middle" x="2010.39" y="-174.3" font-family="Times,serif" font-size="14.00">publication</text>
</g>
<!-- disease or phenotypic feature to location association&#45;&gt;publications -->
<g id="edge12" class="edge">
<title>disease or phenotypic feature to location association&#45;&gt;publications</title>
<path fill="none" stroke="blue" d="M2520.24,-261.55C2287.96,-258 1974.97,-249.44 1955.39,-229 1945.34,-218.5 1954.78,-207.57 1968.5,-198.61"/>
<polygon fill="blue" stroke="blue" points="1970.64,-201.41 1977.47,-193.31 1967.08,-195.38 1970.64,-201.41"/>
<text text-anchor="middle" x="1999.39" y="-217.8" font-family="Times,serif" font-size="14.00">publications</text>
</g>
<!-- has evidence -->
<g id="node14" class="node">
<title>has evidence</title>
<ellipse fill="none" stroke="blue" cx="2166.39" cy="-178" rx="75.29" ry="18"/>
<text text-anchor="middle" x="2166.39" y="-174.3" font-family="Times,serif" font-size="14.00">evidence type</text>
</g>
<!-- disease or phenotypic feature to location association&#45;&gt;has evidence -->
<g id="edge13" class="edge">
<title>disease or phenotypic feature to location association&#45;&gt;has evidence</title>
<path fill="none" stroke="blue" d="M2525.01,-260.03C2322.94,-255.52 2066.97,-246.4 2050.39,-229 2045.8,-224.17 2046.42,-219.35 2050.39,-214 2056.9,-205.25 2077.15,-197.84 2098.96,-192.13"/>
<polygon fill="blue" stroke="blue" points="2099.84,-195.52 2108.7,-189.71 2098.15,-188.73 2099.84,-195.52"/>
<text text-anchor="middle" x="2096.89" y="-217.8" font-family="Times,serif" font-size="14.00">has evidence</text>
</g>
<!-- knowledge source -->
<g id="node15" class="node">
<title>knowledge source</title>
<ellipse fill="none" stroke="blue" cx="2298.39" cy="-178" rx="38.19" ry="18"/>
<text text-anchor="middle" x="2298.39" y="-174.3" font-family="Times,serif" font-size="14.00">string</text>
</g>
<!-- disease or phenotypic feature to location association&#45;&gt;knowledge source -->
<g id="edge14" class="edge">
<title>disease or phenotypic feature to location association&#45;&gt;knowledge source</title>
<path fill="none" stroke="blue" d="M2536.11,-257.87C2370.85,-252.36 2176.57,-242.96 2163.39,-229 2117.83,-180.74 2103.08,-237.12 2250.39,-196 2253.5,-195.13 2256.7,-194.17 2259.9,-193.15"/>
<polygon fill="blue" stroke="blue" points="2261.03,-196.46 2269.41,-189.98 2258.81,-189.82 2261.03,-196.46"/>
<text text-anchor="middle" x="2227.89" y="-217.8" font-family="Times,serif" font-size="14.00">knowledge source</text>
</g>
<!-- primary knowledge source -->
<g id="node16" class="node">
<title>primary knowledge source</title>
<ellipse fill="none" stroke="blue" cx="2393.39" cy="-178" rx="38.19" ry="18"/>
<text text-anchor="middle" x="2393.39" y="-174.3" font-family="Times,serif" font-size="14.00">string</text>
</g>
<!-- disease or phenotypic feature to location association&#45;&gt;primary knowledge source -->
<g id="edge15" class="edge">
<title>disease or phenotypic feature to location association&#45;&gt;primary knowledge source</title>
<path fill="none" stroke="blue" d="M2525.35,-260.06C2419.58,-255.75 2316.04,-246.93 2299.39,-229 2294.86,-224.11 2295.59,-219.48 2299.39,-214 2300.27,-212.74 2328.87,-202.19 2354.29,-193"/>
<polygon fill="blue" stroke="blue" points="2355.6,-196.25 2363.82,-189.56 2353.22,-189.66 2355.6,-196.25"/>
<text text-anchor="middle" x="2394.39" y="-217.8" font-family="Times,serif" font-size="14.00">primary knowledge source</text>
</g>
<!-- aggregator knowledge source -->
<g id="node17" class="node">
<title>aggregator knowledge source</title>
<ellipse fill="none" stroke="blue" cx="2488.39" cy="-178" rx="38.19" ry="18"/>
<text text-anchor="middle" x="2488.39" y="-174.3" font-family="Times,serif" font-size="14.00">string</text>
</g>
<!-- disease or phenotypic feature to location association&#45;&gt;aggregator knowledge source -->
<g id="edge16" class="edge">
<title>disease or phenotypic feature to location association&#45;&gt;aggregator knowledge source</title>
<path fill="none" stroke="blue" d="M2576.53,-253.32C2543.45,-248.09 2515.52,-240.37 2502.39,-229 2495.81,-223.29 2492.2,-214.77 2490.26,-206.36"/>
<polygon fill="blue" stroke="blue" points="2493.69,-205.68 2488.63,-196.37 2486.78,-206.8 2493.69,-205.68"/>
<text text-anchor="middle" x="2608.89" y="-217.8" font-family="Times,serif" font-size="14.00">aggregator knowledge source</text>
</g>
<!-- timepoint -->
<g id="node18" class="node">
<title>timepoint</title>
<ellipse fill="none" stroke="blue" cx="2714.39" cy="-178" rx="55.49" ry="18"/>
<text text-anchor="middle" x="2714.39" y="-174.3" font-family="Times,serif" font-size="14.00">time type</text>
</g>
<!-- disease or phenotypic feature to location association&#45;&gt;timepoint -->
<g id="edge17" class="edge">
<title>disease or phenotypic feature to location association&#45;&gt;timepoint</title>
<path fill="none" stroke="blue" d="M2742.29,-246.98C2735.9,-241.92 2729.73,-235.86 2725.39,-229 2721.15,-222.28 2718.53,-214.16 2716.92,-206.44"/>
<polygon fill="blue" stroke="blue" points="2720.33,-205.63 2715.28,-196.31 2713.42,-206.74 2720.33,-205.63"/>
<text text-anchor="middle" x="2760.39" y="-217.8" font-family="Times,serif" font-size="14.00">timepoint</text>
</g>
<!-- original subject -->
<g id="node19" class="node">
<title>original subject</title>
<ellipse fill="none" stroke="blue" cx="2826.39" cy="-178" rx="38.19" ry="18"/>
<text text-anchor="middle" x="2826.39" y="-174.3" font-family="Times,serif" font-size="14.00">string</text>
</g>
<!-- disease or phenotypic feature to location association&#45;&gt;original subject -->
<g id="edge18" class="edge">
<title>disease or phenotypic feature to location association&#45;&gt;original subject</title>
<path fill="none" stroke="blue" d="M2783.08,-246.71C2787.1,-241.11 2791.5,-234.84 2795.39,-229 2800.66,-221.09 2806.19,-212.33 2811.1,-204.38"/>
<polygon fill="blue" stroke="blue" points="2814.09,-206.2 2816.33,-195.84 2808.12,-202.54 2814.09,-206.2"/>
<text text-anchor="middle" x="2861.39" y="-217.8" font-family="Times,serif" font-size="14.00">original subject</text>
</g>
<!-- original predicate -->
<g id="node20" class="node">
<title>original predicate</title>
<ellipse fill="none" stroke="blue" cx="2952.39" cy="-178" rx="57.39" ry="18"/>
<text text-anchor="middle" x="2952.39" y="-174.3" font-family="Times,serif" font-size="14.00">uriorcurie</text>
</g>
<!-- disease or phenotypic feature to location association&#45;&gt;original predicate -->
<g id="edge19" class="edge">
<title>disease or phenotypic feature to location association&#45;&gt;original predicate</title>
<path fill="none" stroke="blue" d="M2882.4,-248.69C2896.29,-243.8 2909.69,-237.39 2921.39,-229 2929.69,-223.06 2936.23,-214.14 2941.12,-205.48"/>
<polygon fill="blue" stroke="blue" points="2944.36,-206.82 2945.79,-196.33 2938.13,-203.64 2944.36,-206.82"/>
<text text-anchor="middle" x="2999.89" y="-217.8" font-family="Times,serif" font-size="14.00">original predicate</text>
</g>
<!-- original object -->
<g id="node21" class="node">
<title>original object</title>
<ellipse fill="none" stroke="blue" cx="3086.39" cy="-178" rx="38.19" ry="18"/>
<text text-anchor="middle" x="3086.39" y="-174.3" font-family="Times,serif" font-size="14.00">string</text>
</g>
<!-- disease or phenotypic feature to location association&#45;&gt;original object -->
<g id="edge20" class="edge">
<title>disease or phenotypic feature to location association&#45;&gt;original object</title>
<path fill="none" stroke="blue" d="M2979.46,-254.68C3018.27,-249.41 3051.58,-241.33 3067.39,-229 3074.66,-223.33 3079.14,-214.55 3081.92,-205.92"/>
<polygon fill="blue" stroke="blue" points="3085.35,-206.61 3084.45,-196.05 3078.57,-204.87 3085.35,-206.61"/>
<text text-anchor="middle" x="3130.89" y="-217.8" font-family="Times,serif" font-size="14.00">original object</text>
</g>
<!-- subject category -->
<g id="node22" class="node">
<title>subject category</title>
<ellipse fill="none" stroke="blue" cx="3219.39" cy="-178" rx="76.89" ry="18"/>
<text text-anchor="middle" x="3219.39" y="-174.3" font-family="Times,serif" font-size="14.00">ontology class</text>
</g>
<!-- disease or phenotypic feature to location association&#45;&gt;subject category -->
<g id="edge21" class="edge">
<title>disease or phenotypic feature to location association&#45;&gt;subject category</title>
<path fill="none" stroke="blue" d="M2951.35,-252.33C3058.63,-244.81 3175.78,-235.3 3186.39,-229 3195.55,-223.56 3202.67,-214.47 3207.9,-205.52"/>
<polygon fill="blue" stroke="blue" points="3211.14,-206.89 3212.69,-196.41 3204.94,-203.63 3211.14,-206.89"/>
<text text-anchor="middle" x="3261.89" y="-217.8" font-family="Times,serif" font-size="14.00">subject category</text>
</g>
<!-- object category -->
<g id="node23" class="node">
<title>object category</title>
<ellipse fill="none" stroke="blue" cx="3390.39" cy="-178" rx="76.89" ry="18"/>
<text text-anchor="middle" x="3390.39" y="-174.3" font-family="Times,serif" font-size="14.00">ontology class</text>
</g>
<!-- disease or phenotypic feature to location association&#45;&gt;object category -->
<g id="edge22" class="edge">
<title>disease or phenotypic feature to location association&#45;&gt;object category</title>
<path fill="none" stroke="blue" d="M2951.1,-252.3C2978.99,-250.51 3007.47,-248.7 3034.39,-247 3099.06,-242.92 3264.73,-251.75 3325.39,-229 3340.77,-223.23 3355.49,-212.51 3367.02,-202.47"/>
<polygon fill="blue" stroke="blue" points="3369.43,-205.01 3374.47,-195.69 3364.72,-199.84 3369.43,-205.01"/>
<text text-anchor="middle" x="3406.89" y="-217.8" font-family="Times,serif" font-size="14.00">object category</text>
</g>
<!-- subject closure -->
<g id="node24" class="node">
<title>subject closure</title>
<ellipse fill="none" stroke="blue" cx="3523.39" cy="-178" rx="38.19" ry="18"/>
<text text-anchor="middle" x="3523.39" y="-174.3" font-family="Times,serif" font-size="14.00">string</text>
</g>
<!-- disease or phenotypic feature to location association&#45;&gt;subject closure -->
<g id="edge23" class="edge">
<title>disease or phenotypic feature to location association&#45;&gt;subject closure</title>
<path fill="none" stroke="blue" d="M2947.52,-252.04C2976.54,-250.24 3006.3,-248.49 3034.39,-247 3082.37,-244.46 3421.8,-246.86 3466.39,-229 3480.42,-223.39 3493.32,-212.76 3503.29,-202.74"/>
<polygon fill="blue" stroke="blue" points="3506,-204.97 3510.32,-195.29 3500.91,-200.17 3506,-204.97"/>
<text text-anchor="middle" x="3543.89" y="-217.8" font-family="Times,serif" font-size="14.00">subject closure</text>
</g>
<!-- object closure -->
<g id="node25" class="node">
<title>object closure</title>
<ellipse fill="none" stroke="blue" cx="3631.39" cy="-178" rx="38.19" ry="18"/>
<text text-anchor="middle" x="3631.39" y="-174.3" font-family="Times,serif" font-size="14.00">string</text>
</g>
<!-- disease or phenotypic feature to location association&#45;&gt;object closure -->
<g id="edge24" class="edge">
<title>disease or phenotypic feature to location association&#45;&gt;object closure</title>
<path fill="none" stroke="blue" d="M2945.73,-251.91C2975.31,-250.1 3005.72,-248.38 3034.39,-247 3065.93,-245.49 3575.29,-245.19 3602.39,-229 3611.35,-223.65 3617.81,-214.41 3622.33,-205.31"/>
<polygon fill="blue" stroke="blue" points="3625.57,-206.62 3626.36,-196.06 3619.16,-203.83 3625.57,-206.62"/>
<text text-anchor="middle" x="3667.39" y="-217.8" font-family="Times,serif" font-size="14.00">object closure</text>
</g>
<!-- subject category closure -->
<g id="node26" class="node">
<title>subject category closure</title>
<ellipse fill="none" stroke="blue" cx="3764.39" cy="-178" rx="76.89" ry="18"/>
<text text-anchor="middle" x="3764.39" y="-174.3" font-family="Times,serif" font-size="14.00">ontology class</text>
</g>
<!-- disease or phenotypic feature to location association&#45;&gt;subject category closure -->
<g id="edge25" class="edge">
<title>disease or phenotypic feature to location association&#45;&gt;subject category closure</title>
<path fill="none" stroke="blue" d="M2944.66,-251.84C2974.58,-250.02 3005.37,-248.31 3034.39,-247 3072.54,-245.27 3686.91,-245.38 3721.39,-229 3732.48,-223.74 3741.82,-214.11 3748.93,-204.71"/>
<polygon fill="blue" stroke="blue" points="3751.98,-206.46 3754.83,-196.26 3746.24,-202.46 3751.98,-206.46"/>
<text text-anchor="middle" x="3827.89" y="-217.8" font-family="Times,serif" font-size="14.00">subject category closure</text>
</g>
<!-- object category closure -->
<g id="node27" class="node">
<title>object category closure</title>
<ellipse fill="none" stroke="blue" cx="3957.39" cy="-178" rx="76.89" ry="18"/>
<text text-anchor="middle" x="3957.39" y="-174.3" font-family="Times,serif" font-size="14.00">ontology class</text>
</g>
<!-- disease or phenotypic feature to location association&#45;&gt;object category closure -->
<g id="edge26" class="edge">
<title>disease or phenotypic feature to location association&#45;&gt;object category closure</title>
<path fill="none" stroke="blue" d="M2943.59,-251.75C2973.84,-249.93 3005.03,-248.24 3034.39,-247 3083.53,-244.92 3875.56,-251.3 3919.39,-229 3929.7,-223.75 3938,-214.27 3944.17,-204.96"/>
<polygon fill="blue" stroke="blue" points="3947.27,-206.6 3949.44,-196.23 3941.27,-202.98 3947.27,-206.6"/>
<text text-anchor="middle" x="4019.89" y="-217.8" font-family="Times,serif" font-size="14.00">object category closure</text>
</g>
<!-- subject namespace -->
<g id="node28" class="node">
<title>subject namespace</title>
<ellipse fill="none" stroke="blue" cx="4147.39" cy="-178" rx="38.19" ry="18"/>
<text text-anchor="middle" x="4147.39" y="-174.3" font-family="Times,serif" font-size="14.00">string</text>
</g>
<!-- disease or phenotypic feature to location association&#45;&gt;subject namespace -->
<g id="edge27" class="edge">
<title>disease or phenotypic feature to location association&#45;&gt;subject namespace</title>
<path fill="none" stroke="blue" d="M2942.87,-251.71C2973.35,-249.88 3004.8,-248.2 3034.39,-247 3064.18,-245.79 4080.64,-242.14 4107.39,-229 4118.24,-223.67 4127.09,-213.85 4133.68,-204.32"/>
<polygon fill="blue" stroke="blue" points="4136.7,-206.1 4139.09,-195.78 4130.78,-202.35 4136.7,-206.1"/>
<text text-anchor="middle" x="4193.39" y="-217.8" font-family="Times,serif" font-size="14.00">subject namespace</text>
</g>
<!-- object namespace -->
<g id="node29" class="node">
<title>object namespace</title>
<ellipse fill="none" stroke="blue" cx="4306.39" cy="-178" rx="38.19" ry="18"/>
<text text-anchor="middle" x="4306.39" y="-174.3" font-family="Times,serif" font-size="14.00">string</text>
</g>
<!-- disease or phenotypic feature to location association&#45;&gt;object namespace -->
<g id="edge28" class="edge">
<title>disease or phenotypic feature to location association&#45;&gt;object namespace</title>
<path fill="none" stroke="blue" d="M2942.16,-251.7C2972.86,-249.85 3004.56,-248.18 3034.39,-247 3068.57,-245.65 4234.59,-243.85 4265.39,-229 4276.39,-223.7 4285.44,-213.88 4292.21,-204.34"/>
<polygon fill="blue" stroke="blue" points="4295.26,-206.08 4297.79,-195.8 4289.39,-202.26 4295.26,-206.08"/>
<text text-anchor="middle" x="4347.39" y="-217.8" font-family="Times,serif" font-size="14.00">object namespace</text>
</g>
<!-- subject label closure -->
<g id="node30" class="node">
<title>subject label closure</title>
<ellipse fill="none" stroke="blue" cx="4457.39" cy="-178" rx="38.19" ry="18"/>
<text text-anchor="middle" x="4457.39" y="-174.3" font-family="Times,serif" font-size="14.00">string</text>
</g>
<!-- disease or phenotypic feature to location association&#45;&gt;subject label closure -->
<g id="edge29" class="edge">
<title>disease or phenotypic feature to location association&#45;&gt;subject label closure</title>
<path fill="none" stroke="blue" d="M2941.81,-251.68C2972.62,-249.83 3004.45,-248.16 3034.39,-247 3072.73,-245.52 4380.73,-245.43 4415.39,-229 4426.53,-223.72 4435.78,-213.91 4442.74,-204.36"/>
<polygon fill="blue" stroke="blue" points="4445.82,-206.07 4448.48,-195.81 4440,-202.17 4445.82,-206.07"/>
<text text-anchor="middle" x="4509.39" y="-217.8" font-family="Times,serif" font-size="14.00">subject label closure</text>
</g>
<!-- object label closure -->
<g id="node31" class="node">
<title>object label closure</title>
<ellipse fill="none" stroke="blue" cx="4628.39" cy="-178" rx="38.19" ry="18"/>
<text text-anchor="middle" x="4628.39" y="-174.3" font-family="Times,serif" font-size="14.00">string</text>
</g>
<!-- disease or phenotypic feature to location association&#45;&gt;object label closure -->
<g id="edge30" class="edge">
<title>disease or phenotypic feature to location association&#45;&gt;object label closure</title>
<path fill="none" stroke="blue" d="M2941.81,-251.64C2972.62,-249.8 3004.45,-248.14 3034.39,-247 3077.51,-245.36 4548.51,-247.68 4587.39,-229 4598.4,-223.72 4607.45,-213.9 4614.22,-204.36"/>
<polygon fill="blue" stroke="blue" points="4617.27,-206.1 4619.79,-195.81 4611.4,-202.28 4617.27,-206.1"/>
<text text-anchor="middle" x="4676.89" y="-217.8" font-family="Times,serif" font-size="14.00">object label closure</text>
</g>
<!-- retrieval source ids -->
<g id="node32" class="node">
<title>retrieval source ids</title>
<ellipse fill="none" stroke="blue" cx="4790.39" cy="-178" rx="84.49" ry="18"/>
<text text-anchor="middle" x="4790.39" y="-174.3" font-family="Times,serif" font-size="14.00">retrieval source</text>
</g>
<!-- disease or phenotypic feature to location association&#45;&gt;retrieval source ids -->
<g id="edge31" class="edge">
<title>disease or phenotypic feature to location association&#45;&gt;retrieval source ids</title>
<path fill="none" stroke="blue" d="M2941.45,-251.64C2972.37,-249.79 3004.33,-248.12 3034.39,-247 3082.03,-245.22 4707.54,-249.87 4750.39,-229 4761.11,-223.78 4769.86,-214.17 4776.42,-204.75"/>
<polygon fill="blue" stroke="blue" points="4779.39,-206.61 4781.82,-196.3 4773.49,-202.84 4779.39,-206.61"/>
<text text-anchor="middle" x="4838.89" y="-217.8" font-family="Times,serif" font-size="14.00">retrieval source ids</text>
</g>
<!-- type -->
<g id="node33" class="node">
<title>type</title>
<ellipse fill="none" stroke="black" cx="4924.39" cy="-178" rx="31.4" ry="18"/>
<text text-anchor="middle" x="4924.39" y="-174.3" font-family="Times,serif" font-size="14.00">type</text>
</g>
<!-- disease or phenotypic feature to location association&#45;&gt;type -->
<g id="edge32" class="edge">
<title>disease or phenotypic feature to location association&#45;&gt;type</title>
<path fill="none" stroke="blue" d="M2941.1,-251.64C2972.13,-249.78 3004.22,-248.12 3034.39,-247 3060.46,-246.04 4891.99,-245.25 4912.39,-229 4919.25,-223.54 4922.61,-214.93 4924.15,-206.37"/>
<polygon fill="blue" stroke="blue" points="4927.66,-206.5 4925.24,-196.19 4920.7,-205.76 4927.66,-206.5"/>
<text text-anchor="middle" x="4938.39" y="-217.8" font-family="Times,serif" font-size="14.00">type</text>
</g>
<!-- category -->
<g id="node35" class="node">
<title>category</title>
<ellipse fill="none" stroke="black" cx="5025.39" cy="-178" rx="51.19" ry="18"/>
<text text-anchor="middle" x="5025.39" y="-174.3" font-family="Times,serif" font-size="14.00">category</text>
</g>
<!-- disease or phenotypic feature to location association&#45;&gt;category -->
<g id="edge33" class="edge">
<title>disease or phenotypic feature to location association&#45;&gt;category</title>
<path fill="none" stroke="blue" d="M2941.1,-251.63C2972.13,-249.77 3004.22,-248.11 3034.39,-247 3087.81,-245.03 4907.75,-246.08 4958.39,-229 4974.6,-223.54 4990.08,-212.51 5002.07,-202.2"/>
<polygon fill="blue" stroke="blue" points="5004.69,-204.55 5009.78,-195.26 5000,-199.35 5004.69,-204.55"/>
<text text-anchor="middle" x="5017.89" y="-217.8" font-family="Times,serif" font-size="14.00">category</text>
</g>
<!-- object -->
<g id="node37" class="node">
<title>object</title>
<ellipse fill="none" stroke="black" cx="1470.39" cy="-91" rx="38.99" ry="18"/>
<text text-anchor="middle" x="1470.39" y="-87.3" font-family="Times,serif" font-size="14.00">object</text>
</g>
<!-- disease or phenotypic feature to location association&#45;&gt;object -->
<g id="edge34" class="edge">
<title>disease or phenotypic feature to location association&#45;&gt;object</title>
<path fill="none" stroke="blue" d="M2941.1,-251.62C2972.13,-249.76 3004.22,-248.11 3034.39,-247 3090.44,-244.95 5001.84,-251.09 5053.39,-229 5084.47,-215.69 5109.07,-184.13 5085.39,-160 5019.96,-93.32 1948.29,-91.85 1519.81,-91.97"/>
<polygon fill="blue" stroke="blue" points="1519.61,-88.47 1509.61,-91.98 1519.61,-95.47 1519.61,-88.47"/>
<text text-anchor="middle" x="5116.39" y="-174.3" font-family="Times,serif" font-size="14.00">object</text>
</g>
<!-- subject&#45;&gt;object -->
<g id="edge35" class="edge">
<title>subject&#45;&gt;object</title>
<path fill="none" stroke="black" d="M1416.63,-160.21C1426.49,-147.71 1440.08,-130.45 1451.14,-116.43"/>
<polygon fill="black" stroke="black" points="1454.2,-118.2 1457.64,-108.18 1448.7,-113.87 1454.2,-118.2"/>
<text text-anchor="middle" x="1469.39" y="-130.8" font-family="Times,serif" font-size="14.00">relation</text>
</g>
<!-- relation -->
<g id="node39" class="node">
<title>relation</title>
<ellipse fill="none" stroke="black" cx="1415.39" cy="-18" rx="46.59" ry="18"/>
<text text-anchor="middle" x="1415.39" y="-14.3" font-family="Times,serif" font-size="14.00">relation</text>
</g>
<!-- subject&#45;&gt;relation -->
<g id="edge36" class="edge">
<title>subject&#45;&gt;relation</title>
<path fill="none" stroke="black" stroke-dasharray="1,5" d="M1404.7,-159.79C1406.78,-132.48 1410.84,-78.99 1413.31,-46.38"/>
<polygon fill="black" stroke="black" points="1416.82,-46.42 1414.09,-36.19 1409.84,-45.89 1416.82,-46.42"/>
</g>
<!-- association_type -->
<g id="node34" class="node">
<title>association_type</title>
<ellipse fill="none" stroke="blue" cx="3081.39" cy="-265" rx="38.19" ry="18"/>
<text text-anchor="middle" x="3081.39" y="-261.3" font-family="Times,serif" font-size="14.00">string</text>
</g>
<!-- association_category -->
<g id="node36" class="node">
<title>association_category</title>
<ellipse fill="none" stroke="blue" cx="3212.39" cy="-265" rx="74.99" ry="18"/>
<text text-anchor="middle" x="3212.39" y="-261.3" font-family="Times,serif" font-size="14.00">category type</text>
</g>
<!-- object&#45;&gt;relation -->
<g id="edge37" class="edge">
<title>object&#45;&gt;relation</title>
<path fill="none" stroke="black" stroke-dasharray="1,5" d="M1457.91,-73.89C1450.98,-64.94 1442.21,-53.62 1434.44,-43.58"/>
<polygon fill="black" stroke="black" points="1437.1,-41.3 1428.21,-35.54 1431.56,-45.59 1437.1,-41.3"/>
</g>
<!-- disease or phenotypic feature to location association_object -->
<g id="node38" class="node">
<title>disease or phenotypic feature to location association_object</title>
<ellipse fill="none" stroke="blue" cx="3396.39" cy="-265" rx="91.78" ry="18"/>
<text text-anchor="middle" x="3396.39" y="-261.3" font-family="Times,serif" font-size="14.00">anatomical entity</text>
</g>
</g>
</svg>
