<?xml version="1.0" encoding="UTF-8" standalone="no"?>
<!DOCTYPE svg PUBLIC "-//W3C//DTD SVG 1.1//EN"
 "http://www.w3.org/Graphics/SVG/1.1/DTD/svg11.dtd">
<!-- Generated by graphviz version 2.43.0 (0)
 -->
<!-- Title: %3 Pages: 1 -->
<svg width="3666pt" height="291pt"
 viewBox="0.00 0.00 3665.84 291.00" xmlns="http://www.w3.org/2000/svg" xmlns:xlink="http://www.w3.org/1999/xlink">
<g id="graph0" class="graph" transform="scale(1 1) rotate(0) translate(4 287)">
<title>%3</title>
<polygon fill="white" stroke="transparent" points="-4,4 -4,-287 3661.84,-287 3661.84,4 -4,4"/>
<!-- disease to phenotypic feature association -->
<g id="node1" class="node">
<title>disease to phenotypic feature association</title>
<ellipse fill="none" stroke="black" cx="2109.39" cy="-265" rx="202.56" ry="18"/>
<text text-anchor="middle" x="2109.39" y="-261.3" font-family="Times,serif" font-size="14.00">disease to phenotypic feature association</text>
</g>
<!-- association -->
<g id="node2" class="node">
<title>association</title>
<ellipse fill="none" stroke="black" cx="62.39" cy="-178" rx="62.29" ry="18"/>
<text text-anchor="middle" x="62.39" y="-174.3" font-family="Times,serif" font-size="14.00">association</text>
</g>
<!-- disease to phenotypic feature association&#45;&gt;association -->
<g id="edge1" class="edge">
<title>disease to phenotypic feature association&#45;&gt;association</title>
<path fill="none" stroke="black" d="M1911.4,-261.11C1639.48,-256.67 1135.23,-246.77 705.39,-229 451.41,-218.5 385.94,-232.68 134.39,-196 128.61,-195.16 122.61,-194.08 116.66,-192.87"/>
<polygon fill="black" stroke="black" points="117.23,-189.41 106.71,-190.74 115.76,-196.26 117.23,-189.41"/>
<text text-anchor="middle" x="719.39" y="-217.8" font-family="Times,serif" font-size="14.00">is_a</text>
</g>
<!-- entity to phenotypic feature association mixin -->
<g id="node3" class="node">
<title>entity to phenotypic feature association mixin</title>
<ellipse fill="none" stroke="black" cx="367.39" cy="-178" rx="224.46" ry="18"/>
<text text-anchor="middle" x="367.39" y="-174.3" font-family="Times,serif" font-size="14.00">entity to phenotypic feature association mixin</text>
</g>
<!-- disease to phenotypic feature association&#45;&gt;entity to phenotypic feature association mixin -->
<g id="edge2" class="edge">
<title>disease to phenotypic feature association&#45;&gt;entity to phenotypic feature association mixin</title>
<path fill="none" stroke="black" d="M1910.5,-261.47C1678.1,-257.72 1282.09,-248.85 942.39,-229 794.41,-220.35 625.44,-205 509.16,-193.58"/>
<polygon fill="black" stroke="black" points="509.42,-190.09 499.13,-192.6 508.73,-197.06 509.42,-190.09"/>
<text text-anchor="middle" x="958.89" y="-217.8" font-family="Times,serif" font-size="14.00">uses</text>
</g>
<!-- disease to entity association mixin -->
<g id="node4" class="node">
<title>disease to entity association mixin</title>
<ellipse fill="none" stroke="black" cx="780.39" cy="-178" rx="170.87" ry="18"/>
<text text-anchor="middle" x="780.39" y="-174.3" font-family="Times,serif" font-size="14.00">disease to entity association mixin</text>
</g>
<!-- disease to phenotypic feature association&#45;&gt;disease to entity association mixin -->
<g id="edge3" class="edge">
<title>disease to phenotypic feature association&#45;&gt;disease to entity association mixin</title>
<path fill="none" stroke="black" d="M1906.66,-264.56C1700.47,-263.36 1371.99,-256.6 1089.39,-229 1013.82,-221.62 928.7,-207.4 866.96,-196.01"/>
<polygon fill="black" stroke="black" points="867.34,-192.52 856.87,-194.13 866.06,-199.4 867.34,-192.52"/>
<text text-anchor="middle" x="1105.89" y="-217.8" font-family="Times,serif" font-size="14.00">uses</text>
</g>
<!-- id -->
<g id="node5" class="node">
<title>id</title>
<ellipse fill="none" stroke="blue" cx="1007.39" cy="-178" rx="38.19" ry="18"/>
<text text-anchor="middle" x="1007.39" y="-174.3" font-family="Times,serif" font-size="14.00">string</text>
</g>
<!-- disease to phenotypic feature association&#45;&gt;id -->
<g id="edge4" class="edge">
<title>disease to phenotypic feature association&#45;&gt;id</title>
<path fill="none" stroke="blue" d="M1914.37,-259.96C1693.91,-254.75 1348.85,-244.47 1219.39,-229 1145.57,-220.18 1127.06,-215.79 1055.39,-196 1052.28,-195.14 1049.08,-194.18 1045.89,-193.17"/>
<polygon fill="blue" stroke="blue" points="1046.97,-189.84 1036.37,-190.01 1044.76,-196.48 1046.97,-189.84"/>
<text text-anchor="middle" x="1226.39" y="-217.8" font-family="Times,serif" font-size="14.00">id</text>
</g>
<!-- iri -->
<g id="node6" class="node">
<title>iri</title>
<ellipse fill="none" stroke="blue" cx="1108.39" cy="-178" rx="44.39" ry="18"/>
<text text-anchor="middle" x="1108.39" y="-174.3" font-family="Times,serif" font-size="14.00">iri type</text>
</g>
<!-- disease to phenotypic feature association&#45;&gt;iri -->
<g id="edge5" class="edge">
<title>disease to phenotypic feature association&#45;&gt;iri</title>
<path fill="none" stroke="blue" d="M1908.16,-262.65C1751.79,-259.73 1529.71,-251.49 1336.39,-229 1257.78,-219.85 1238.11,-215.46 1161.39,-196 1157.97,-195.13 1154.43,-194.16 1150.9,-193.14"/>
<polygon fill="blue" stroke="blue" points="1151.59,-189.69 1141.01,-190.16 1149.57,-196.4 1151.59,-189.69"/>
<text text-anchor="middle" x="1344.39" y="-217.8" font-family="Times,serif" font-size="14.00">iri</text>
</g>
<!-- name -->
<g id="node7" class="node">
<title>name</title>
<ellipse fill="none" stroke="blue" cx="1227.39" cy="-178" rx="56.59" ry="18"/>
<text text-anchor="middle" x="1227.39" y="-174.3" font-family="Times,serif" font-size="14.00">label type</text>
</g>
<!-- disease to phenotypic feature association&#45;&gt;name -->
<g id="edge6" class="edge">
<title>disease to phenotypic feature association&#45;&gt;name</title>
<path fill="none" stroke="blue" d="M1906.91,-263.55C1770.94,-260.82 1588.14,-252.42 1428.39,-229 1375.75,-221.28 1316.82,-205.78 1276.45,-194.08"/>
<polygon fill="blue" stroke="blue" points="1277.18,-190.64 1266.6,-191.19 1275.21,-197.36 1277.18,-190.64"/>
<text text-anchor="middle" x="1448.39" y="-217.8" font-family="Times,serif" font-size="14.00">name</text>
</g>
<!-- description -->
<g id="node8" class="node">
<title>description</title>
<ellipse fill="none" stroke="blue" cx="1377.39" cy="-178" rx="75.29" ry="18"/>
<text text-anchor="middle" x="1377.39" y="-174.3" font-family="Times,serif" font-size="14.00">narrative text</text>
</g>
<!-- disease to phenotypic feature association&#45;&gt;description -->
<g id="edge7" class="edge">
<title>disease to phenotypic feature association&#45;&gt;description</title>
<path fill="none" stroke="blue" d="M1922.11,-258.1C1780.93,-252.64 1599.55,-243.21 1526.39,-229 1490.66,-222.06 1451.7,-208.77 1422.59,-197.64"/>
<polygon fill="blue" stroke="blue" points="1423.7,-194.32 1413.11,-193.96 1421.16,-200.84 1423.7,-194.32"/>
<text text-anchor="middle" x="1566.89" y="-217.8" font-family="Times,serif" font-size="14.00">description</text>
</g>
<!-- source -->
<g id="node9" class="node">
<title>source</title>
<ellipse fill="none" stroke="blue" cx="1527.39" cy="-178" rx="56.59" ry="18"/>
<text text-anchor="middle" x="1527.39" y="-174.3" font-family="Times,serif" font-size="14.00">label type</text>
</g>
<!-- disease to phenotypic feature association&#45;&gt;source -->
<g id="edge8" class="edge">
<title>disease to phenotypic feature association&#45;&gt;source</title>
<path fill="none" stroke="blue" d="M1911.66,-260.92C1832.19,-256.52 1740.19,-247.38 1658.39,-229 1626.7,-221.88 1592.45,-208.59 1566.92,-197.51"/>
<polygon fill="blue" stroke="blue" points="1568.15,-194.22 1557.59,-193.38 1565.32,-200.63 1568.15,-194.22"/>
<text text-anchor="middle" x="1682.39" y="-217.8" font-family="Times,serif" font-size="14.00">source</text>
</g>
<!-- provided by -->
<g id="node10" class="node">
<title>provided by</title>
<ellipse fill="none" stroke="blue" cx="1639.39" cy="-178" rx="37.09" ry="18"/>
<text text-anchor="middle" x="1639.39" y="-174.3" font-family="Times,serif" font-size="14.00">agent</text>
</g>
<!-- disease to phenotypic feature association&#45;&gt;provided by -->
<g id="edge9" class="edge">
<title>disease to phenotypic feature association&#45;&gt;provided by</title>
<path fill="none" stroke="blue" d="M1925.25,-257.41C1868.79,-252.35 1806.94,-243.7 1751.39,-229 1723.42,-221.6 1693.59,-207.97 1671.75,-196.8"/>
<polygon fill="blue" stroke="blue" points="1673.1,-193.56 1662.61,-192.04 1669.86,-199.77 1673.1,-193.56"/>
<text text-anchor="middle" x="1793.89" y="-217.8" font-family="Times,serif" font-size="14.00">provided by</text>
</g>
<!-- has attribute -->
<g id="node11" class="node">
<title>has attribute</title>
<ellipse fill="none" stroke="blue" cx="1746.39" cy="-178" rx="51.99" ry="18"/>
<text text-anchor="middle" x="1746.39" y="-174.3" font-family="Times,serif" font-size="14.00">attribute</text>
</g>
<!-- disease to phenotypic feature association&#45;&gt;has attribute -->
<g id="edge10" class="edge">
<title>disease to phenotypic feature association&#45;&gt;has attribute</title>
<path fill="none" stroke="blue" d="M1995.07,-250.1C1960.23,-244.76 1922,-237.78 1887.39,-229 1853.17,-220.31 1815.52,-206.75 1787.74,-195.94"/>
<polygon fill="blue" stroke="blue" points="1788.94,-192.65 1778.35,-192.24 1786.38,-199.16 1788.94,-192.65"/>
<text text-anchor="middle" x="1934.39" y="-217.8" font-family="Times,serif" font-size="14.00">has attribute</text>
</g>
<!-- subject -->
<g id="node12" class="node">
<title>subject</title>
<ellipse fill="none" stroke="blue" cx="1886.39" cy="-178" rx="69.59" ry="18"/>
<text text-anchor="middle" x="1886.39" y="-174.3" font-family="Times,serif" font-size="14.00">named thing</text>
</g>
<!-- disease to phenotypic feature association&#45;&gt;subject -->
<g id="edge11" class="edge">
<title>disease to phenotypic feature association&#45;&gt;subject</title>
<path fill="none" stroke="blue" d="M2065.87,-247.41C2027.78,-232.89 1972.57,-211.85 1933.46,-196.94"/>
<polygon fill="blue" stroke="blue" points="1934.47,-193.58 1923.88,-193.29 1931.98,-200.12 1934.47,-193.58"/>
<text text-anchor="middle" x="2037.39" y="-217.8" font-family="Times,serif" font-size="14.00">subject</text>
</g>
<!-- predicate -->
<g id="node13" class="node">
<title>predicate</title>
<ellipse fill="none" stroke="blue" cx="2052.39" cy="-178" rx="77.99" ry="18"/>
<text text-anchor="middle" x="2052.39" y="-174.3" font-family="Times,serif" font-size="14.00">predicate type</text>
</g>
<!-- disease to phenotypic feature association&#45;&gt;predicate -->
<g id="edge12" class="edge">
<title>disease to phenotypic feature association&#45;&gt;predicate</title>
<path fill="none" stroke="blue" d="M2097.01,-247.03C2092.93,-241.34 2088.41,-234.94 2084.39,-229 2079.11,-221.19 2073.51,-212.57 2068.5,-204.72"/>
<polygon fill="blue" stroke="blue" points="2071.45,-202.84 2063.14,-196.27 2065.54,-206.58 2071.45,-202.84"/>
<text text-anchor="middle" x="2118.39" y="-217.8" font-family="Times,serif" font-size="14.00">predicate</text>
</g>
<!-- object -->
<g id="node14" class="node">
<title>object</title>
<ellipse fill="none" stroke="blue" cx="2101.39" cy="-91" rx="69.59" ry="18"/>
<text text-anchor="middle" x="2101.39" y="-87.3" font-family="Times,serif" font-size="14.00">named thing</text>
</g>
<!-- disease to phenotypic feature association&#45;&gt;object -->
<g id="edge13" class="edge">
<title>disease to phenotypic feature association&#45;&gt;object</title>
<path fill="none" stroke="blue" d="M2137.73,-246.98C2143.65,-241.98 2149.09,-235.95 2152.39,-229 2155.26,-222.98 2153.18,-220.62 2152.39,-214 2149.49,-189.49 2148.39,-182.99 2139.39,-160 2133.7,-145.45 2125.41,-130.18 2118.02,-117.8"/>
<polygon fill="blue" stroke="blue" points="2120.81,-115.66 2112.6,-108.97 2114.84,-119.32 2120.81,-115.66"/>
<text text-anchor="middle" x="2172.39" y="-174.3" font-family="Times,serif" font-size="14.00">object</text>
</g>
<!-- relation -->
<g id="node15" class="node">
<title>relation</title>
<ellipse fill="none" stroke="blue" cx="2101.39" cy="-18" rx="38.19" ry="18"/>
<text text-anchor="middle" x="2101.39" y="-14.3" font-family="Times,serif" font-size="14.00">string</text>
</g>
<!-- disease to phenotypic feature association&#45;&gt;relation -->
<g id="edge14" class="edge">
<title>disease to phenotypic feature association&#45;&gt;relation</title>
<path fill="none" stroke="blue" d="M2140.85,-247.15C2149.76,-241.82 2159.25,-235.58 2167.39,-229 2183.04,-216.35 2190.99,-214.71 2198.39,-196 2204.29,-181.12 2200.02,-175.92 2198.39,-160 2194.37,-120.72 2202.28,-105.86 2180.39,-73 2169.85,-57.17 2152.93,-44.69 2137.45,-35.74"/>
<polygon fill="blue" stroke="blue" points="2139.01,-32.61 2128.56,-30.88 2135.65,-38.75 2139.01,-32.61"/>
<text text-anchor="middle" x="2225.39" y="-130.8" font-family="Times,serif" font-size="14.00">relation</text>
</g>
<!-- negated -->
<g id="node16" class="node">
<title>negated</title>
<ellipse fill="none" stroke="blue" cx="2313.39" cy="-178" rx="46.59" ry="18"/>
<text text-anchor="middle" x="2313.39" y="-174.3" font-family="Times,serif" font-size="14.00">boolean</text>
</g>
<!-- disease to phenotypic feature association&#45;&gt;negated -->
<g id="edge15" class="edge">
<title>disease to phenotypic feature association&#45;&gt;negated</title>
<path fill="none" stroke="blue" d="M2198.18,-248.8C2216.65,-243.86 2235.59,-237.4 2252.39,-229 2266.06,-222.17 2279.4,-211.8 2290.1,-202.27"/>
<polygon fill="blue" stroke="blue" points="2292.76,-204.57 2297.73,-195.22 2288.01,-199.43 2292.76,-204.57"/>
<text text-anchor="middle" x="2303.39" y="-217.8" font-family="Times,serif" font-size="14.00">negated</text>
</g>
<!-- qualifiers -->
<g id="node17" class="node">
<title>qualifiers</title>
<ellipse fill="none" stroke="blue" cx="2454.39" cy="-178" rx="76.89" ry="18"/>
<text text-anchor="middle" x="2454.39" y="-174.3" font-family="Times,serif" font-size="14.00">ontology class</text>
</g>
<!-- disease to phenotypic feature association&#45;&gt;qualifiers -->
<g id="edge16" class="edge">
<title>disease to phenotypic feature association&#45;&gt;qualifiers</title>
<path fill="none" stroke="blue" d="M2232.52,-250.69C2266.54,-245.48 2303.22,-238.43 2336.39,-229 2363.17,-221.39 2391.96,-209.27 2414.4,-198.88"/>
<polygon fill="blue" stroke="blue" points="2416.05,-201.97 2423.61,-194.54 2413.07,-195.64 2416.05,-201.97"/>
<text text-anchor="middle" x="2409.89" y="-217.8" font-family="Times,serif" font-size="14.00">qualifiers</text>
</g>
<!-- publications -->
<g id="node18" class="node">
<title>publications</title>
<ellipse fill="none" stroke="blue" cx="2611.39" cy="-178" rx="62.29" ry="18"/>
<text text-anchor="middle" x="2611.39" y="-174.3" font-family="Times,serif" font-size="14.00">publication</text>
</g>
<!-- disease to phenotypic feature association&#45;&gt;publications -->
<g id="edge17" class="edge">
<title>disease to phenotypic feature association&#45;&gt;publications</title>
<path fill="none" stroke="blue" d="M2251.08,-252.07C2326.22,-245.2 2410.46,-236.47 2447.39,-229 2487.58,-220.87 2532.01,-207.01 2564.47,-195.95"/>
<polygon fill="blue" stroke="blue" points="2565.83,-199.18 2574.14,-192.61 2563.55,-192.56 2565.83,-199.18"/>
<text text-anchor="middle" x="2551.39" y="-217.8" font-family="Times,serif" font-size="14.00">publications</text>
</g>
<!-- has evidence -->
<g id="node19" class="node">
<title>has evidence</title>
<ellipse fill="none" stroke="blue" cx="2767.39" cy="-178" rx="75.29" ry="18"/>
<text text-anchor="middle" x="2767.39" y="-174.3" font-family="Times,serif" font-size="14.00">evidence type</text>
</g>
<!-- disease to phenotypic feature association&#45;&gt;has evidence -->
<g id="edge18" class="edge">
<title>disease to phenotypic feature association&#45;&gt;has evidence</title>
<path fill="none" stroke="blue" d="M2252.49,-252.22C2275.52,-250.42 2299.11,-248.61 2321.39,-247 2444.88,-238.05 2477.51,-250.8 2599.39,-229 2640.12,-221.72 2684.96,-208.07 2718.07,-196.87"/>
<polygon fill="blue" stroke="blue" points="2719.62,-200.04 2727.95,-193.49 2717.35,-193.42 2719.62,-200.04"/>
<text text-anchor="middle" x="2706.89" y="-217.8" font-family="Times,serif" font-size="14.00">has evidence</text>
</g>
<!-- type -->
<g id="node20" class="node">
<title>type</title>
<ellipse fill="none" stroke="black" cx="2892.39" cy="-178" rx="31.4" ry="18"/>
<text text-anchor="middle" x="2892.39" y="-174.3" font-family="Times,serif" font-size="14.00">type</text>
</g>
<!-- disease to phenotypic feature association&#45;&gt;type -->
<g id="edge19" class="edge">
<title>disease to phenotypic feature association&#45;&gt;type</title>
<path fill="none" stroke="blue" d="M2249.6,-251.99C2273.55,-250.16 2298.18,-248.41 2321.39,-247 2418.19,-241.12 2662.16,-247.26 2757.39,-229 2793.68,-222.04 2833.08,-206.44 2859.9,-194.51"/>
<polygon fill="blue" stroke="blue" points="2861.52,-197.62 2869.18,-190.3 2858.63,-191.24 2861.52,-197.62"/>
<text text-anchor="middle" x="2827.39" y="-217.8" font-family="Times,serif" font-size="14.00">type</text>
</g>
<!-- category -->
<g id="node22" class="node">
<title>category</title>
<ellipse fill="none" stroke="black" cx="2993.39" cy="-178" rx="51.19" ry="18"/>
<text text-anchor="middle" x="2993.39" y="-174.3" font-family="Times,serif" font-size="14.00">category</text>
</g>
<!-- disease to phenotypic feature association&#45;&gt;category -->
<g id="edge20" class="edge">
<title>disease to phenotypic feature association&#45;&gt;category</title>
<path fill="none" stroke="blue" d="M2248.74,-251.91C2272.95,-250.07 2297.89,-248.34 2321.39,-247 2438.16,-240.32 2732.37,-250.18 2847.39,-229 2884.32,-222.2 2924.58,-207.86 2953.45,-196.27"/>
<polygon fill="blue" stroke="blue" points="2954.85,-199.48 2962.78,-192.46 2952.2,-193 2954.85,-199.48"/>
<text text-anchor="middle" x="2936.89" y="-217.8" font-family="Times,serif" font-size="14.00">category</text>
</g>
<!-- frequency qualifier -->
<g id="node24" class="node">
<title>frequency qualifier</title>
<ellipse fill="none" stroke="blue" cx="3147.39" cy="-178" rx="85.29" ry="18"/>
<text text-anchor="middle" x="3147.39" y="-174.3" font-family="Times,serif" font-size="14.00">frequency value</text>
</g>
<!-- disease to phenotypic feature association&#45;&gt;frequency qualifier -->
<g id="edge21" class="edge">
<title>disease to phenotypic feature association&#45;&gt;frequency qualifier</title>
<path fill="none" stroke="blue" d="M2247.88,-251.84C2272.36,-250 2297.61,-248.28 2321.39,-247 2465.91,-239.21 2829.36,-251.05 2972.39,-229 3015.03,-222.43 3061.96,-208.64 3096.48,-197.21"/>
<polygon fill="blue" stroke="blue" points="3097.96,-200.41 3106.32,-193.9 3095.73,-193.77 3097.96,-200.41"/>
<text text-anchor="middle" x="3109.39" y="-217.8" font-family="Times,serif" font-size="14.00">frequency qualifier</text>
</g>
<!-- severity qualifier -->
<g id="node25" class="node">
<title>severity qualifier</title>
<ellipse fill="none" stroke="blue" cx="3326.39" cy="-178" rx="76.09" ry="18"/>
<text text-anchor="middle" x="3326.39" y="-174.3" font-family="Times,serif" font-size="14.00">severity value</text>
</g>
<!-- disease to phenotypic feature association&#45;&gt;severity qualifier -->
<g id="edge22" class="edge">
<title>disease to phenotypic feature association&#45;&gt;severity qualifier</title>
<path fill="none" stroke="blue" d="M2247.02,-251.77C2271.76,-249.92 2297.33,-248.22 2321.39,-247 2416.85,-242.18 3087.3,-245.78 3181.39,-229 3216.45,-222.75 3254.45,-209.38 3282.75,-198.04"/>
<polygon fill="blue" stroke="blue" points="3284.4,-201.15 3292.34,-194.13 3281.76,-194.67 3284.4,-201.15"/>
<text text-anchor="middle" x="3299.39" y="-217.8" font-family="Times,serif" font-size="14.00">severity qualifier</text>
</g>
<!-- onset qualifier -->
<g id="node26" class="node">
<title>onset qualifier</title>
<ellipse fill="none" stroke="blue" cx="3456.39" cy="-178" rx="36.29" ry="18"/>
<text text-anchor="middle" x="3456.39" y="-174.3" font-family="Times,serif" font-size="14.00">onset</text>
</g>
<!-- disease to phenotypic feature association&#45;&gt;onset qualifier -->
<g id="edge23" class="edge">
<title>disease to phenotypic feature association&#45;&gt;onset qualifier</title>
<path fill="none" stroke="blue" d="M2246.73,-251.72C2271.56,-249.86 2297.24,-248.18 2321.39,-247 2437.16,-241.36 3252.31,-258.52 3364.39,-229 3387.3,-222.97 3410.72,-210.12 3428.2,-198.97"/>
<polygon fill="blue" stroke="blue" points="3430.33,-201.75 3436.76,-193.33 3426.48,-195.9 3430.33,-201.75"/>
<text text-anchor="middle" x="3453.89" y="-217.8" font-family="Times,serif" font-size="14.00">onset qualifier</text>
</g>
<!-- sex qualifier -->
<g id="node27" class="node">
<title>sex qualifier</title>
<ellipse fill="none" stroke="blue" cx="3584.39" cy="-178" rx="73.39" ry="18"/>
<text text-anchor="middle" x="3584.39" y="-174.3" font-family="Times,serif" font-size="14.00">biological sex</text>
</g>
<!-- disease to phenotypic feature association&#45;&gt;sex qualifier -->
<g id="edge24" class="edge">
<title>disease to phenotypic feature association&#45;&gt;sex qualifier</title>
<path fill="none" stroke="blue" d="M2246.45,-251.7C2271.37,-249.84 2297.14,-248.15 2321.39,-247 2387.33,-243.86 3446.37,-248.61 3509.39,-229 3527.21,-223.46 3544.71,-212.23 3558.31,-201.81"/>
<polygon fill="blue" stroke="blue" points="3560.6,-204.46 3566.24,-195.49 3556.24,-198.99 3560.6,-204.46"/>
<text text-anchor="middle" x="3584.39" y="-217.8" font-family="Times,serif" font-size="14.00">sex qualifier</text>
</g>
<!-- subject&#45;&gt;object -->
<g id="edge25" class="edge">
<title>subject&#45;&gt;object</title>
<path fill="none" stroke="black" d="M1922.87,-162.58C1959.39,-148.14 2015.72,-125.87 2055.31,-110.22"/>
<polygon fill="black" stroke="black" points="2056.73,-113.42 2064.74,-106.49 2054.16,-106.91 2056.73,-113.42"/>
<text text-anchor="middle" x="2035.39" y="-130.8" font-family="Times,serif" font-size="14.00">relation</text>
</g>
<!-- subject&#45;&gt;relation -->
<g id="edge26" class="edge">
<title>subject&#45;&gt;relation</title>
<path fill="none" stroke="black" stroke-dasharray="1,5" d="M1906.87,-160.8C1933.27,-140.04 1980.73,-103.14 2022.39,-73 2038.49,-61.36 2056.77,-48.82 2071.7,-38.75"/>
<polygon fill="black" stroke="black" points="2073.71,-41.62 2080.06,-33.14 2069.8,-35.81 2073.71,-41.62"/>
</g>
<!-- object&#45;&gt;relation -->
<g id="edge27" class="edge">
<title>object&#45;&gt;relation</title>
<path fill="none" stroke="black" stroke-dasharray="1,5" d="M2101.39,-72.81C2101.39,-64.79 2101.39,-55.05 2101.39,-46.07"/>
<polygon fill="black" stroke="black" points="2104.89,-46.03 2101.39,-36.03 2097.89,-46.03 2104.89,-46.03"/>
</g>
<!-- association_type -->
<g id="node21" class="node">
<title>association_type</title>
<ellipse fill="none" stroke="blue" cx="2368.39" cy="-265" rx="38.19" ry="18"/>
<text text-anchor="middle" x="2368.39" y="-261.3" font-family="Times,serif" font-size="14.00">string</text>
</g>
<!-- association_category -->
<g id="node23" class="node">
<title>association_category</title>
<ellipse fill="none" stroke="blue" cx="2499.39" cy="-265" rx="74.99" ry="18"/>
<text text-anchor="middle" x="2499.39" y="-261.3" font-family="Times,serif" font-size="14.00">category type</text>
</g>
</g>
</svg>
