<?xml version="1.0" encoding="UTF-8" standalone="no"?>
<!DOCTYPE svg PUBLIC "-//W3C//DTD SVG 1.1//EN"
 "http://www.w3.org/Graphics/SVG/1.1/DTD/svg11.dtd">
<!-- Generated by graphviz version 2.40.1 (20161225.0304)
 -->
<!-- Title: %3 Pages: 1 -->
<svg width="2490pt" height="291pt"
 viewBox="0.00 0.00 2490.09 291.00" xmlns="http://www.w3.org/2000/svg" xmlns:xlink="http://www.w3.org/1999/xlink">
<g id="graph0" class="graph" transform="scale(1 1) rotate(0) translate(4 287)">
<title>%3</title>
<polygon fill="#ffffff" stroke="transparent" points="-4,4 -4,-287 2486.0911,-287 2486.0911,4 -4,4"/>
<!-- disease to phenotypic feature association -->
<g id="node1" class="node">
<title>disease to phenotypic feature association</title>
<ellipse fill="none" stroke="#000000" cx="1385.0456" cy="-265" rx="155.1726" ry="18"/>
<text text-anchor="middle" x="1385.0456" y="-261.3" font-family="Times,serif" font-size="14.00" fill="#000000">disease to phenotypic feature association</text>
</g>
<!-- association -->
<g id="node2" class="node">
<title>association</title>
<ellipse fill="none" stroke="#000000" cx="50.0456" cy="-178" rx="50.0912" ry="18"/>
<text text-anchor="middle" x="50.0456" y="-174.3" font-family="Times,serif" font-size="14.00" fill="#000000">association</text>
</g>
<!-- disease to phenotypic feature association&#45;&gt;association -->
<g id="edge1" class="edge">
<title>disease to phenotypic feature association&#45;&gt;association</title>
<path fill="none" stroke="#000000" d="M1236.1212,-259.8032C1071.0379,-253.7374 796.9114,-242.7596 561.0456,-229 359.9638,-217.2696 307.0507,-232.9516 109.0456,-196 104.9004,-195.2264 100.6346,-194.265 96.3833,-193.1918"/>
<polygon fill="#000000" stroke="#000000" points="97.1215,-189.7655 86.5536,-190.5206 95.2858,-196.5206 97.1215,-189.7655"/>
<text text-anchor="middle" x="572.0456" y="-217.8" font-family="Times,serif" font-size="14.00" fill="#000000">is_a</text>
</g>
<!-- thing to phenotypic feature association mixin -->
<g id="node3" class="node">
<title>thing to phenotypic feature association mixin</title>
<ellipse fill="none" stroke="#000000" cx="289.0456" cy="-178" rx="170.8697" ry="18"/>
<text text-anchor="middle" x="289.0456" y="-174.3" font-family="Times,serif" font-size="14.00" fill="#000000">thing to phenotypic feature association mixin</text>
</g>
<!-- disease to phenotypic feature association&#45;&gt;thing to phenotypic feature association mixin -->
<g id="edge2" class="edge">
<title>disease to phenotypic feature association&#45;&gt;thing to phenotypic feature association mixin</title>
<path fill="none" stroke="#000000" d="M1237.4993,-259.3197C1105.4396,-253.6454 906.6111,-243.6472 734.0456,-229 622.6921,-219.5484 496.1232,-204.6365 406.5138,-193.3733"/>
<polygon fill="#000000" stroke="#000000" points="406.6804,-189.8666 396.321,-192.0878 405.8044,-196.8116 406.6804,-189.8666"/>
<text text-anchor="middle" x="746.0456" y="-217.8" font-family="Times,serif" font-size="14.00" fill="#000000">uses</text>
</g>
<!-- disease to thing association mixin -->
<g id="node4" class="node">
<title>disease to thing association mixin</title>
<ellipse fill="none" stroke="#000000" cx="609.0456" cy="-178" rx="130.777" ry="18"/>
<text text-anchor="middle" x="609.0456" y="-174.3" font-family="Times,serif" font-size="14.00" fill="#000000">disease to thing association mixin</text>
</g>
<!-- disease to phenotypic feature association&#45;&gt;disease to thing association mixin -->
<g id="edge3" class="edge">
<title>disease to phenotypic feature association&#45;&gt;disease to thing association mixin</title>
<path fill="none" stroke="#000000" d="M1233.9971,-260.6551C1126.0607,-256.1436 977.6051,-247.0712 848.0456,-229 791.5543,-221.1205 728.4843,-207.4521 681.3242,-196.2478"/>
<polygon fill="#000000" stroke="#000000" points="682.0506,-192.8228 671.5104,-193.8973 680.4201,-199.6303 682.0506,-192.8228"/>
<text text-anchor="middle" x="860.0456" y="-217.8" font-family="Times,serif" font-size="14.00" fill="#000000">uses</text>
</g>
<!-- id -->
<g id="node5" class="node">
<title>id</title>
<ellipse fill="none" stroke="#000000" cx="785.0456" cy="-178" rx="27" ry="18"/>
<text text-anchor="middle" x="785.0456" y="-174.3" font-family="Times,serif" font-size="14.00" fill="#000000">id</text>
</g>
<!-- disease to phenotypic feature association&#45;&gt;id -->
<g id="edge4" class="edge">
<title>disease to phenotypic feature association&#45;&gt;id</title>
<path fill="none" stroke="#0000ff" d="M1238.292,-258.9986C1153.6018,-254.0057 1045.3275,-245.0134 950.0456,-229 891.6845,-219.1917 876.4929,-216.6837 821.0456,-196 819.1797,-195.304 817.283,-194.5398 815.3856,-193.7313"/>
<polygon fill="#0000ff" stroke="#0000ff" points="816.5788,-190.4277 806.0311,-189.4298 813.6543,-196.7876 816.5788,-190.4277"/>
<text text-anchor="middle" x="955.5456" y="-217.8" font-family="Times,serif" font-size="14.00" fill="#000000">id</text>
</g>
<!-- association type -->
<g id="node7" class="node">
<title>association type</title>
<ellipse fill="none" stroke="#0000ff" cx="892.0456" cy="-178" rx="61.99" ry="18"/>
<text text-anchor="middle" x="892.0456" y="-174.3" font-family="Times,serif" font-size="14.00" fill="#000000">ontology class</text>
</g>
<!-- disease to phenotypic feature association&#45;&gt;association type -->
<g id="edge5" class="edge">
<title>disease to phenotypic feature association&#45;&gt;association type</title>
<path fill="none" stroke="#0000ff" d="M1247.6405,-256.555C1158.6104,-250.1904 1051.2863,-240.5884 1007.0456,-229 980.2397,-221.9785 951.7573,-209.3899 929.8443,-198.4771"/>
<polygon fill="#0000ff" stroke="#0000ff" points="931.3802,-195.3316 920.8792,-193.9238 928.2103,-201.5728 931.3802,-195.3316"/>
<text text-anchor="middle" x="1051.0456" y="-217.8" font-family="Times,serif" font-size="14.00" fill="#000000">association type</text>
</g>
<!-- subject -->
<g id="node8" class="node">
<title>subject</title>
<ellipse fill="none" stroke="#0000ff" cx="1027.0456" cy="-178" rx="55.4913" ry="18"/>
<text text-anchor="middle" x="1027.0456" y="-174.3" font-family="Times,serif" font-size="14.00" fill="#000000">named thing</text>
</g>
<!-- disease to phenotypic feature association&#45;&gt;subject -->
<g id="edge6" class="edge">
<title>disease to phenotypic feature association&#45;&gt;subject</title>
<path fill="none" stroke="#0000ff" d="M1260.3194,-254.2586C1220.1052,-248.8703 1175.6958,-240.8584 1136.0456,-229 1111.0499,-221.5244 1084.504,-209.2069 1063.8677,-198.5499"/>
<polygon fill="#0000ff" stroke="#0000ff" points="1065.3083,-195.353 1054.8289,-193.7936 1062.0486,-201.5477 1065.3083,-195.353"/>
<text text-anchor="middle" x="1155.5456" y="-217.8" font-family="Times,serif" font-size="14.00" fill="#000000">subject</text>
</g>
<!-- predicate -->
<g id="node9" class="node">
<title>predicate</title>
<ellipse fill="none" stroke="#0000ff" cx="1161.0456" cy="-178" rx="60.3893" ry="18"/>
<text text-anchor="middle" x="1161.0456" y="-174.3" font-family="Times,serif" font-size="14.00" fill="#000000">predicate type</text>
</g>
<!-- disease to phenotypic feature association&#45;&gt;predicate -->
<g id="edge7" class="edge">
<title>disease to phenotypic feature association&#45;&gt;predicate</title>
<path fill="none" stroke="#0000ff" d="M1275.7178,-252.1609C1240.7256,-246.4288 1207.3413,-238.7361 1193.0456,-229 1184.3892,-223.1046 1177.6069,-214.0116 1172.5578,-205.127"/>
<polygon fill="#0000ff" stroke="#0000ff" points="1175.5978,-203.3849 1167.9175,-196.0866 1169.3702,-206.5814 1175.5978,-203.3849"/>
<text text-anchor="middle" x="1218.0456" y="-217.8" font-family="Times,serif" font-size="14.00" fill="#000000">predicate</text>
</g>
<!-- object -->
<g id="node10" class="node">
<title>object</title>
<ellipse fill="none" stroke="#0000ff" cx="1205.0456" cy="-91" rx="55.4913" ry="18"/>
<text text-anchor="middle" x="1205.0456" y="-87.3" font-family="Times,serif" font-size="14.00" fill="#000000">named thing</text>
</g>
<!-- disease to phenotypic feature association&#45;&gt;object -->
<g id="edge8" class="edge">
<title>disease to phenotypic feature association&#45;&gt;object</title>
<path fill="none" stroke="#0000ff" d="M1339.1473,-247.6302C1327.5882,-242.3843 1315.5025,-236.1029 1305.0456,-229 1263.568,-200.8263 1233.1829,-149.4785 1217.3808,-117.985"/>
<polygon fill="#0000ff" stroke="#0000ff" points="1220.4777,-116.3504 1212.9487,-108.8962 1214.1859,-119.4186 1220.4777,-116.3504"/>
<text text-anchor="middle" x="1285.0456" y="-174.3" font-family="Times,serif" font-size="14.00" fill="#000000">object</text>
</g>
<!-- relation -->
<g id="node11" class="node">
<title>relation</title>
<ellipse fill="none" stroke="#0000ff" cx="1205.0456" cy="-18" rx="45.4919" ry="18"/>
<text text-anchor="middle" x="1205.0456" y="-14.3" font-family="Times,serif" font-size="14.00" fill="#000000">uriorcurie</text>
</g>
<!-- disease to phenotypic feature association&#45;&gt;relation -->
<g id="edge9" class="edge">
<title>disease to phenotypic feature association&#45;&gt;relation</title>
<path fill="none" stroke="#0000ff" d="M1372.0374,-246.8359C1362.3465,-233.085 1348.9603,-213.62 1338.0456,-196 1305.0376,-142.7143 1308.7534,-121.4993 1269.0456,-73 1259.2622,-61.0506 1246.6842,-49.6164 1235.272,-40.2993"/>
<polygon fill="#0000ff" stroke="#0000ff" points="1237.2333,-37.3875 1227.2247,-33.912 1232.8814,-42.8704 1237.2333,-37.3875"/>
<text text-anchor="middle" x="1332.0456" y="-130.8" font-family="Times,serif" font-size="14.00" fill="#000000">relation</text>
</g>
<!-- negated -->
<g id="node12" class="node">
<title>negated</title>
<ellipse fill="none" stroke="#0000ff" cx="1385.0456" cy="-178" rx="38.1938" ry="18"/>
<text text-anchor="middle" x="1385.0456" y="-174.3" font-family="Times,serif" font-size="14.00" fill="#000000">boolean</text>
</g>
<!-- disease to phenotypic feature association&#45;&gt;negated -->
<g id="edge10" class="edge">
<title>disease to phenotypic feature association&#45;&gt;negated</title>
<path fill="none" stroke="#0000ff" d="M1385.0456,-246.9735C1385.0456,-235.1918 1385.0456,-219.5607 1385.0456,-206.1581"/>
<polygon fill="#0000ff" stroke="#0000ff" points="1388.5457,-206.0033 1385.0456,-196.0034 1381.5457,-206.0034 1388.5457,-206.0033"/>
<text text-anchor="middle" x="1406.5456" y="-217.8" font-family="Times,serif" font-size="14.00" fill="#000000">negated</text>
</g>
<!-- qualifiers -->
<g id="node13" class="node">
<title>qualifiers</title>
<ellipse fill="none" stroke="#0000ff" cx="1503.0456" cy="-178" rx="61.99" ry="18"/>
<text text-anchor="middle" x="1503.0456" y="-174.3" font-family="Times,serif" font-size="14.00" fill="#000000">ontology class</text>
</g>
<!-- disease to phenotypic feature association&#45;&gt;qualifiers -->
<g id="edge11" class="edge">
<title>disease to phenotypic feature association&#45;&gt;qualifiers</title>
<path fill="none" stroke="#0000ff" d="M1409.2094,-247.1843C1427.3808,-233.7867 1452.4211,-215.3248 1472.0644,-200.842"/>
<polygon fill="#0000ff" stroke="#0000ff" points="1474.145,-203.6565 1480.1168,-194.9051 1469.991,-198.0223 1474.145,-203.6565"/>
<text text-anchor="middle" x="1478.0456" y="-217.8" font-family="Times,serif" font-size="14.00" fill="#000000">qualifiers</text>
</g>
<!-- publications -->
<g id="node14" class="node">
<title>publications</title>
<ellipse fill="none" stroke="#0000ff" cx="1633.0456" cy="-178" rx="50.0912" ry="18"/>
<text text-anchor="middle" x="1633.0456" y="-174.3" font-family="Times,serif" font-size="14.00" fill="#000000">publication</text>
</g>
<!-- disease to phenotypic feature association&#45;&gt;publications -->
<g id="edge12" class="edge">
<title>disease to phenotypic feature association&#45;&gt;publications</title>
<path fill="none" stroke="#0000ff" d="M1446.4378,-248.3735C1466.2397,-242.654 1488.1955,-235.9338 1508.0456,-229 1536.4676,-219.072 1567.8376,-206.2672 1592.0417,-195.9719"/>
<polygon fill="#0000ff" stroke="#0000ff" points="1593.4629,-199.1708 1601.2781,-192.0173 1590.7077,-192.7358 1593.4629,-199.1708"/>
<text text-anchor="middle" x="1580.5456" y="-217.8" font-family="Times,serif" font-size="14.00" fill="#000000">publications</text>
</g>
<!-- provided by -->
<g id="node15" class="node">
<title>provided by</title>
<ellipse fill="none" stroke="#0000ff" cx="1731.0456" cy="-178" rx="29.795" ry="18"/>
<text text-anchor="middle" x="1731.0456" y="-174.3" font-family="Times,serif" font-size="14.00" fill="#000000">agent</text>
</g>
<!-- disease to phenotypic feature association&#45;&gt;provided by -->
<g id="edge13" class="edge">
<title>disease to phenotypic feature association&#45;&gt;provided by</title>
<path fill="none" stroke="#0000ff" d="M1501.9354,-253.1408C1539.4801,-247.6919 1580.9408,-239.9266 1618.0456,-229 1646.7706,-220.541 1677.6481,-206.2136 1699.8546,-194.8946"/>
<polygon fill="#0000ff" stroke="#0000ff" points="1701.5413,-197.9626 1708.8093,-190.2536 1698.3203,-191.7476 1701.5413,-197.9626"/>
<text text-anchor="middle" x="1690.0456" y="-217.8" font-family="Times,serif" font-size="14.00" fill="#000000">provided by</text>
</g>
<!-- has attribute -->
<g id="node16" class="node">
<title>has attribute</title>
<ellipse fill="none" stroke="#0000ff" cx="1819.0456" cy="-178" rx="40.0939" ry="18"/>
<text text-anchor="middle" x="1819.0456" y="-174.3" font-family="Times,serif" font-size="14.00" fill="#000000">attribute</text>
</g>
<!-- disease to phenotypic feature association&#45;&gt;has attribute -->
<g id="edge14" class="edge">
<title>disease to phenotypic feature association&#45;&gt;has attribute</title>
<path fill="none" stroke="#0000ff" d="M1497.5132,-252.5275C1514.7697,-250.651 1532.3817,-248.757 1549.0456,-247 1628.1218,-238.6624 1651.1646,-252.7622 1727.0456,-229 1749.0099,-222.1218 1771.6456,-209.6553 1788.9682,-198.7697"/>
<polygon fill="#0000ff" stroke="#0000ff" points="1791.0046,-201.6212 1797.5108,-193.2594 1787.2102,-195.7388 1791.0046,-201.6212"/>
<text text-anchor="middle" x="1795.5456" y="-217.8" font-family="Times,serif" font-size="14.00" fill="#000000">has attribute</text>
</g>
<!-- frequency qualifier -->
<g id="node17" class="node">
<title>frequency qualifier</title>
<ellipse fill="none" stroke="#0000ff" cx="1945.0456" cy="-178" rx="67.6881" ry="18"/>
<text text-anchor="middle" x="1945.0456" y="-174.3" font-family="Times,serif" font-size="14.00" fill="#000000">frequency value</text>
</g>
<!-- disease to phenotypic feature association&#45;&gt;frequency qualifier -->
<g id="edge15" class="edge">
<title>disease to phenotypic feature association&#45;&gt;frequency qualifier</title>
<path fill="none" stroke="#0000ff" d="M1494.8067,-252.2469C1512.9129,-250.3462 1531.4956,-248.5185 1549.0456,-247 1675.0503,-236.0978 1710.3561,-259.714 1833.0456,-229 1859.0436,-222.4917 1886.4542,-210.1168 1907.6512,-199.187"/>
<polygon fill="#0000ff" stroke="#0000ff" points="1909.4154,-202.2136 1916.6286,-194.4534 1906.1504,-196.0216 1909.4154,-202.2136"/>
<text text-anchor="middle" x="1927.0456" y="-217.8" font-family="Times,serif" font-size="14.00" fill="#000000">frequency qualifier</text>
</g>
<!-- severity qualifier -->
<g id="node18" class="node">
<title>severity qualifier</title>
<ellipse fill="none" stroke="#0000ff" cx="2090.0456" cy="-178" rx="59.5901" ry="18"/>
<text text-anchor="middle" x="2090.0456" y="-174.3" font-family="Times,serif" font-size="14.00" fill="#000000">severity value</text>
</g>
<!-- disease to phenotypic feature association&#45;&gt;severity qualifier -->
<g id="edge16" class="edge">
<title>disease to phenotypic feature association&#45;&gt;severity qualifier</title>
<path fill="none" stroke="#0000ff" d="M1493.4555,-252.0512C1511.9818,-250.1393 1531.0516,-248.359 1549.0456,-247 1645.2988,-239.7302 1889.3568,-252.2369 1983.0456,-229 2008.1606,-222.7709 2034.4182,-210.3569 2054.6368,-199.3365"/>
<polygon fill="#0000ff" stroke="#0000ff" points="2056.4527,-202.3313 2063.4757,-194.3985 2053.0386,-196.2203 2056.4527,-202.3313"/>
<text text-anchor="middle" x="2069.5456" y="-217.8" font-family="Times,serif" font-size="14.00" fill="#000000">severity qualifier</text>
</g>
<!-- onset qualifier -->
<g id="node19" class="node">
<title>onset qualifier</title>
<ellipse fill="none" stroke="#0000ff" cx="2197.0456" cy="-178" rx="29.4969" ry="18"/>
<text text-anchor="middle" x="2197.0456" y="-174.3" font-family="Times,serif" font-size="14.00" fill="#000000">onset</text>
</g>
<!-- disease to phenotypic feature association&#45;&gt;onset qualifier -->
<g id="edge17" class="edge">
<title>disease to phenotypic feature association&#45;&gt;onset qualifier</title>
<path fill="none" stroke="#0000ff" d="M1492.5626,-251.989C1511.3662,-250.0597 1530.7593,-248.2898 1549.0456,-247 1612.3642,-242.534 2059.5616,-248.2585 2120.0456,-229 2139.3312,-222.8593 2158.3187,-210.3751 2172.6133,-199.2959"/>
<polygon fill="#0000ff" stroke="#0000ff" points="2174.8526,-201.9865 2180.4542,-192.9936 2170.4672,-196.5305 2174.8526,-201.9865"/>
<text text-anchor="middle" x="2189.5456" y="-217.8" font-family="Times,serif" font-size="14.00" fill="#000000">onset qualifier</text>
</g>
<!-- sex qualifier -->
<g id="node20" class="node">
<title>sex qualifier</title>
<ellipse fill="none" stroke="#0000ff" cx="2304.0456" cy="-178" rx="59.5901" ry="18"/>
<text text-anchor="middle" x="2304.0456" y="-174.3" font-family="Times,serif" font-size="14.00" fill="#000000">biological sex</text>
</g>
<!-- disease to phenotypic feature association&#45;&gt;sex qualifier -->
<g id="edge18" class="edge">
<title>disease to phenotypic feature association&#45;&gt;sex qualifier</title>
<path fill="none" stroke="#0000ff" d="M1492.1164,-251.9537C1511.0582,-250.0156 1530.6132,-248.2519 1549.0456,-247 1624.8971,-241.8483 2160.9897,-253.2477 2233.0456,-229 2249.8009,-223.3616 2266.0082,-212.2953 2278.6972,-201.908"/>
<polygon fill="#0000ff" stroke="#0000ff" points="2281.168,-204.4005 2286.4979,-195.244 2276.6212,-199.0782 2281.168,-204.4005"/>
<text text-anchor="middle" x="2295.0456" y="-217.8" font-family="Times,serif" font-size="14.00" fill="#000000">sex qualifier</text>
</g>
<!-- description -->
<g id="node21" class="node">
<title>description</title>
<ellipse fill="none" stroke="#000000" cx="2432.0456" cy="-178" rx="50.0912" ry="18"/>
<text text-anchor="middle" x="2432.0456" y="-174.3" font-family="Times,serif" font-size="14.00" fill="#000000">description</text>
</g>
<!-- disease to phenotypic feature association&#45;&gt;description -->
<g id="edge19" class="edge">
<title>disease to phenotypic feature association&#45;&gt;description</title>
<path fill="none" stroke="#0000ff" d="M1492.1129,-251.9018C1511.0551,-249.9693 1530.6111,-248.221 1549.0456,-247 1635.9891,-241.2414 2248.6058,-250.5003 2333.0456,-229 2356.7147,-222.9733 2381.1315,-210.4755 2399.7944,-199.3607"/>
<polygon fill="#0000ff" stroke="#0000ff" points="2401.7659,-202.2576 2408.4655,-194.0499 2398.1098,-196.2882 2401.7659,-202.2576"/>
<text text-anchor="middle" x="2400.5456" y="-217.8" font-family="Times,serif" font-size="14.00" fill="#000000">description</text>
</g>
<!-- association_id -->
<g id="node6" class="node">
<title>association_id</title>
<ellipse fill="none" stroke="#0000ff" cx="1589.0456" cy="-265" rx="30.5947" ry="18"/>
<text text-anchor="middle" x="1589.0456" y="-261.3" font-family="Times,serif" font-size="14.00" fill="#000000">string</text>
</g>
<!-- subject&#45;&gt;object -->
<g id="edge20" class="edge">
<title>subject&#45;&gt;object</title>
<path fill="none" stroke="#000000" d="M1058.0508,-162.8458C1087.7862,-148.3121 1132.8198,-126.3014 1165.2026,-110.4738"/>
<polygon fill="#000000" stroke="#000000" points="1166.9483,-113.5163 1174.3956,-105.9806 1163.8744,-107.2273 1166.9483,-113.5163"/>
<text text-anchor="middle" x="1148.0456" y="-130.8" font-family="Times,serif" font-size="14.00" fill="#000000">relation</text>
</g>
<!-- subject&#45;&gt;relation -->
<g id="edge21" class="edge">
<title>subject&#45;&gt;relation</title>
<path fill="none" stroke="#000000" stroke-dasharray="1,5" d="M1045.4277,-160.7068C1067.8133,-139.7319 1106.8715,-103.4061 1141.0456,-73 1152.9356,-62.4209 1166.2591,-50.9164 1177.6585,-41.1768"/>
<polygon fill="#000000" stroke="#000000" points="1180.229,-43.5848 1185.571,-34.4352 1175.6892,-38.2565 1180.229,-43.5848"/>
</g>
<!-- object&#45;&gt;relation -->
<g id="edge22" class="edge">
<title>object&#45;&gt;relation</title>
<path fill="none" stroke="#000000" stroke-dasharray="1,5" d="M1205.0456,-72.9551C1205.0456,-64.8828 1205.0456,-55.1764 1205.0456,-46.1817"/>
<polygon fill="#000000" stroke="#000000" points="1208.5457,-46.0903 1205.0456,-36.0904 1201.5457,-46.0904 1208.5457,-46.0903"/>
</g>
<!-- thing to phenotypic feature association mixin_description -->
<g id="node22" class="node">
<title>thing to phenotypic feature association mixin_description</title>
<ellipse fill="none" stroke="#0000ff" cx="1695.0456" cy="-265" rx="57.6901" ry="18"/>
<text text-anchor="middle" x="1695.0456" y="-261.3" font-family="Times,serif" font-size="14.00" fill="#000000">narrative text</text>
</g>
</g>
</svg>
