<?xml version="1.0" encoding="UTF-8" standalone="no"?>
<!DOCTYPE svg PUBLIC "-//W3C//DTD SVG 1.1//EN"
 "http://www.w3.org/Graphics/SVG/1.1/DTD/svg11.dtd">
<!-- Generated by graphviz version 2.44.1 (20200629.0846)
 -->
<!-- Pages: 1 -->
<svg width="2329pt" height="291pt"
 viewBox="0.00 0.00 2328.99 291.00" xmlns="http://www.w3.org/2000/svg" xmlns:xlink="http://www.w3.org/1999/xlink">
<g id="graph0" class="graph" transform="scale(1 1) rotate(0) translate(4 287)">
<polygon fill="white" stroke="transparent" points="-4,4 -4,-287 2324.99,-287 2324.99,4 -4,4"/>
<!-- disease to exposure event association -->
<g id="node1" class="node">
<title>disease to exposure event association</title>
<ellipse fill="none" stroke="black" cx="1380.05" cy="-265" rx="142.17" ry="18"/>
<text text-anchor="middle" x="1380.05" y="-261.3" font-family="Times,serif" font-size="14.00">disease to exposure event association</text>
</g>
<!-- association -->
<g id="node2" class="node">
<title>association</title>
<ellipse fill="none" stroke="black" cx="50.05" cy="-178" rx="50.09" ry="18"/>
<text text-anchor="middle" x="50.05" y="-174.3" font-family="Times,serif" font-size="14.00">association</text>
</g>
<!-- disease to exposure event association&#45;&gt;association -->
<g id="edge1" class="edge">
<title>disease to exposure event association&#45;&gt;association</title>
<path fill="none" stroke="black" d="M1243.1,-259.96C1074.71,-254.62 780.19,-244.1 528.05,-229 341.58,-217.83 292.84,-229.36 109.05,-196 104.68,-195.21 100.17,-194.22 95.69,-193.13"/>
<polygon fill="black" stroke="black" points="96.53,-189.73 85.97,-190.6 94.76,-196.51 96.53,-189.73"/>
<text text-anchor="middle" x="539.05" y="-217.8" font-family="Times,serif" font-size="14.00">is_a</text>
</g>
<!-- disease to entity association mixin -->
<g id="node3" class="node">
<title>disease to entity association mixin</title>
<ellipse fill="none" stroke="black" cx="251.05" cy="-178" rx="132.68" ry="18"/>
<text text-anchor="middle" x="251.05" y="-174.3" font-family="Times,serif" font-size="14.00">disease to entity association mixin</text>
</g>
<!-- disease to exposure event association&#45;&gt;disease to entity association mixin -->
<g id="edge2" class="edge">
<title>disease to exposure event association&#45;&gt;disease to entity association mixin</title>
<path fill="none" stroke="black" d="M1246.07,-258.86C1111.87,-253.26 899.48,-243.17 716.05,-229 571.73,-217.85 535.9,-212 392.05,-196 380.37,-194.7 368.15,-193.3 356,-191.87"/>
<polygon fill="black" stroke="black" points="356.17,-188.37 345.82,-190.67 355.35,-195.32 356.17,-188.37"/>
<text text-anchor="middle" x="728.05" y="-217.8" font-family="Times,serif" font-size="14.00">uses</text>
</g>
<!-- entity to exposure event association mixin -->
<g id="node4" class="node">
<title>entity to exposure event association mixin</title>
<ellipse fill="none" stroke="black" cx="562.05" cy="-178" rx="160.57" ry="18"/>
<text text-anchor="middle" x="562.05" y="-174.3" font-family="Times,serif" font-size="14.00">entity to exposure event association mixin</text>
</g>
<!-- disease to exposure event association&#45;&gt;entity to exposure event association mixin -->
<g id="edge3" class="edge">
<title>disease to exposure event association&#45;&gt;entity to exposure event association mixin</title>
<path fill="none" stroke="black" d="M1245,-259.26C1136.6,-254.47 980.66,-245.37 845.05,-229 777.17,-220.81 700.88,-207.06 644.63,-196.05"/>
<polygon fill="black" stroke="black" points="645.21,-192.6 634.72,-194.1 643.85,-199.47 645.21,-192.6"/>
<text text-anchor="middle" x="857.05" y="-217.8" font-family="Times,serif" font-size="14.00">uses</text>
</g>
<!-- id -->
<g id="node5" class="node">
<title>id</title>
<ellipse fill="none" stroke="blue" cx="771.05" cy="-178" rx="30.59" ry="18"/>
<text text-anchor="middle" x="771.05" y="-174.3" font-family="Times,serif" font-size="14.00">string</text>
</g>
<!-- disease to exposure event association&#45;&gt;id -->
<g id="edge4" class="edge">
<title>disease to exposure event association&#45;&gt;id</title>
<path fill="none" stroke="blue" d="M1247.21,-258.4C1161.92,-253.53 1048.99,-244.68 950.05,-229 887.33,-219.06 871.37,-215.82 811.05,-196 808.66,-195.22 806.22,-194.35 803.78,-193.44"/>
<polygon fill="blue" stroke="blue" points="805.07,-190.18 794.48,-189.74 802.48,-196.68 805.07,-190.18"/>
<text text-anchor="middle" x="955.55" y="-217.8" font-family="Times,serif" font-size="14.00">id</text>
</g>
<!-- iri -->
<g id="node6" class="node">
<title>iri</title>
<ellipse fill="none" stroke="blue" cx="856.05" cy="-178" rx="36.29" ry="18"/>
<text text-anchor="middle" x="856.05" y="-174.3" font-family="Times,serif" font-size="14.00">iri type</text>
</g>
<!-- disease to exposure event association&#45;&gt;iri -->
<g id="edge5" class="edge">
<title>disease to exposure event association&#45;&gt;iri</title>
<path fill="none" stroke="blue" d="M1258.42,-255.6C1192.84,-250.06 1110.69,-241.47 1038.05,-229 976.74,-218.48 961.54,-214.14 902.05,-196 899.13,-195.11 896.12,-194.14 893.12,-193.12"/>
<polygon fill="blue" stroke="blue" points="894.19,-189.79 883.6,-189.77 891.87,-196.39 894.19,-189.79"/>
<text text-anchor="middle" x="1044.55" y="-217.8" font-family="Times,serif" font-size="14.00">iri</text>
</g>
<!-- name -->
<g id="node7" class="node">
<title>name</title>
<ellipse fill="none" stroke="blue" cx="956.05" cy="-178" rx="45.49" ry="18"/>
<text text-anchor="middle" x="956.05" y="-174.3" font-family="Times,serif" font-size="14.00">label type</text>
</g>
<!-- disease to exposure event association&#45;&gt;name -->
<g id="edge6" class="edge">
<title>disease to exposure event association&#45;&gt;name</title>
<path fill="none" stroke="blue" d="M1263.99,-254.49C1214.33,-249.08 1155.94,-240.93 1104.05,-229 1066.76,-220.43 1025.63,-206.12 996.21,-195"/>
<polygon fill="blue" stroke="blue" points="997.3,-191.67 986.71,-191.37 994.8,-198.21 997.3,-191.67"/>
<text text-anchor="middle" x="1119.55" y="-217.8" font-family="Times,serif" font-size="14.00">name</text>
</g>
<!-- description -->
<g id="node8" class="node">
<title>description</title>
<ellipse fill="none" stroke="blue" cx="1077.05" cy="-178" rx="57.69" ry="18"/>
<text text-anchor="middle" x="1077.05" y="-174.3" font-family="Times,serif" font-size="14.00">narrative text</text>
</g>
<!-- disease to exposure event association&#45;&gt;description -->
<g id="edge7" class="edge">
<title>disease to exposure event association&#45;&gt;description</title>
<path fill="none" stroke="blue" d="M1276.09,-252.7C1242.95,-247.42 1206.48,-239.82 1174.05,-229 1152.01,-221.65 1128.83,-209.86 1110.65,-199.58"/>
<polygon fill="blue" stroke="blue" points="1112.05,-196.35 1101.64,-194.38 1108.55,-202.41 1112.05,-196.35"/>
<text text-anchor="middle" x="1204.55" y="-217.8" font-family="Times,serif" font-size="14.00">description</text>
</g>
<!-- source -->
<g id="node9" class="node">
<title>source</title>
<ellipse fill="none" stroke="blue" cx="1198.05" cy="-178" rx="45.49" ry="18"/>
<text text-anchor="middle" x="1198.05" y="-174.3" font-family="Times,serif" font-size="14.00">label type</text>
</g>
<!-- disease to exposure event association&#45;&gt;source -->
<g id="edge8" class="edge">
<title>disease to exposure event association&#45;&gt;source</title>
<path fill="none" stroke="blue" d="M1312.82,-249.11C1295.44,-243.96 1277.1,-237.33 1261.05,-229 1247.08,-221.76 1233.21,-211.21 1222.05,-201.66"/>
<polygon fill="blue" stroke="blue" points="1224.25,-198.94 1214.44,-194.95 1219.62,-204.19 1224.25,-198.94"/>
<text text-anchor="middle" x="1279.05" y="-217.8" font-family="Times,serif" font-size="14.00">source</text>
</g>
<!-- provided by -->
<g id="node10" class="node">
<title>provided by</title>
<ellipse fill="none" stroke="blue" cx="1291.05" cy="-178" rx="29.8" ry="18"/>
<text text-anchor="middle" x="1291.05" y="-174.3" font-family="Times,serif" font-size="14.00">agent</text>
</g>
<!-- disease to exposure event association&#45;&gt;provided by -->
<g id="edge9" class="edge">
<title>disease to exposure event association&#45;&gt;provided by</title>
<path fill="none" stroke="blue" d="M1335.16,-247.78C1325.95,-242.86 1316.97,-236.66 1310.05,-229 1304.11,-222.44 1299.96,-213.84 1297.09,-205.62"/>
<polygon fill="blue" stroke="blue" points="1300.42,-204.53 1294.19,-195.95 1293.71,-206.54 1300.42,-204.53"/>
<text text-anchor="middle" x="1343.05" y="-217.8" font-family="Times,serif" font-size="14.00">provided by</text>
</g>
<!-- has attribute -->
<g id="node11" class="node">
<title>has attribute</title>
<ellipse fill="none" stroke="blue" cx="1379.05" cy="-178" rx="40.09" ry="18"/>
<text text-anchor="middle" x="1379.05" y="-174.3" font-family="Times,serif" font-size="14.00">attribute</text>
</g>
<!-- disease to exposure event association&#45;&gt;has attribute -->
<g id="edge10" class="edge">
<title>disease to exposure event association&#45;&gt;has attribute</title>
<path fill="none" stroke="blue" d="M1379.84,-246.8C1379.71,-235.16 1379.52,-219.55 1379.37,-206.24"/>
<polygon fill="blue" stroke="blue" points="1382.87,-206.13 1379.25,-196.18 1375.87,-206.22 1382.87,-206.13"/>
<text text-anchor="middle" x="1413.55" y="-217.8" font-family="Times,serif" font-size="14.00">has attribute</text>
</g>
<!-- subject -->
<g id="node12" class="node">
<title>subject</title>
<ellipse fill="none" stroke="blue" cx="1493.05" cy="-178" rx="55.49" ry="18"/>
<text text-anchor="middle" x="1493.05" y="-174.3" font-family="Times,serif" font-size="14.00">named thing</text>
</g>
<!-- disease to exposure event association&#45;&gt;subject -->
<g id="edge11" class="edge">
<title>disease to exposure event association&#45;&gt;subject</title>
<path fill="none" stroke="blue" d="M1420.46,-247.66C1430.94,-242.49 1441.85,-236.21 1451.05,-229 1460.1,-221.9 1468.58,-212.56 1475.52,-203.88"/>
<polygon fill="blue" stroke="blue" points="1478.36,-205.92 1481.67,-195.86 1472.81,-201.67 1478.36,-205.92"/>
<text text-anchor="middle" x="1486.55" y="-217.8" font-family="Times,serif" font-size="14.00">subject</text>
</g>
<!-- predicate -->
<g id="node13" class="node">
<title>predicate</title>
<ellipse fill="none" stroke="blue" cx="1627.05" cy="-178" rx="60.39" ry="18"/>
<text text-anchor="middle" x="1627.05" y="-174.3" font-family="Times,serif" font-size="14.00">predicate type</text>
</g>
<!-- disease to exposure event association&#45;&gt;predicate -->
<g id="edge12" class="edge">
<title>disease to exposure event association&#45;&gt;predicate</title>
<path fill="none" stroke="blue" d="M1443.4,-248.85C1464.77,-243.24 1488.62,-236.42 1510.05,-229 1536.16,-219.95 1564.7,-207.81 1587.05,-197.75"/>
<polygon fill="blue" stroke="blue" points="1588.57,-200.9 1596.23,-193.58 1585.68,-194.53 1588.57,-200.9"/>
<text text-anchor="middle" x="1575.05" y="-217.8" font-family="Times,serif" font-size="14.00">predicate</text>
</g>
<!-- object -->
<g id="node14" class="node">
<title>object</title>
<ellipse fill="none" stroke="blue" cx="1671.05" cy="-91" rx="55.49" ry="18"/>
<text text-anchor="middle" x="1671.05" y="-87.3" font-family="Times,serif" font-size="14.00">named thing</text>
</g>
<!-- disease to exposure event association&#45;&gt;object -->
<g id="edge13" class="edge">
<title>disease to exposure event association&#45;&gt;object</title>
<path fill="none" stroke="blue" d="M1481.23,-252.33C1519.97,-246.79 1564.38,-239.12 1604.05,-229 1646.14,-218.27 1671.05,-231.53 1696.05,-196 1712.48,-172.64 1700.14,-139.81 1687.67,-117.32"/>
<polygon fill="blue" stroke="blue" points="1690.67,-115.51 1682.59,-108.66 1684.64,-119.06 1690.67,-115.51"/>
<text text-anchor="middle" x="1721.05" y="-174.3" font-family="Times,serif" font-size="14.00">object</text>
</g>
<!-- relation -->
<g id="node15" class="node">
<title>relation</title>
<ellipse fill="none" stroke="blue" cx="1671.05" cy="-18" rx="45.49" ry="18"/>
<text text-anchor="middle" x="1671.05" y="-14.3" font-family="Times,serif" font-size="14.00">uriorcurie</text>
</g>
<!-- disease to exposure event association&#45;&gt;relation -->
<g id="edge14" class="edge">
<title>disease to exposure event association&#45;&gt;relation</title>
<path fill="none" stroke="blue" d="M1481.14,-252.3C1552.44,-243.86 1638.15,-233.22 1655.05,-229 1695.17,-218.99 1718.55,-230.03 1742.05,-196 1754.09,-178.54 1753.64,-109.15 1735.05,-73 1728.09,-59.48 1716.13,-47.99 1704.42,-39.13"/>
<polygon fill="blue" stroke="blue" points="1706.19,-36.09 1696.01,-33.15 1702.14,-41.8 1706.19,-36.09"/>
<text text-anchor="middle" x="1771.05" y="-130.8" font-family="Times,serif" font-size="14.00">relation</text>
</g>
<!-- negated -->
<g id="node16" class="node">
<title>negated</title>
<ellipse fill="none" stroke="blue" cx="1851.05" cy="-178" rx="38.19" ry="18"/>
<text text-anchor="middle" x="1851.05" y="-174.3" font-family="Times,serif" font-size="14.00">boolean</text>
</g>
<!-- disease to exposure event association&#45;&gt;negated -->
<g id="edge15" class="edge">
<title>disease to exposure event association&#45;&gt;negated</title>
<path fill="none" stroke="blue" d="M1479.89,-252.12C1496.94,-250.27 1514.49,-248.49 1531.05,-247 1590.5,-241.66 1744.46,-253.14 1799.05,-229 1812.06,-223.24 1823.77,-212.75 1832.76,-202.85"/>
<polygon fill="blue" stroke="blue" points="1835.51,-205.02 1839.37,-195.15 1830.2,-200.46 1835.51,-205.02"/>
<text text-anchor="middle" x="1842.55" y="-217.8" font-family="Times,serif" font-size="14.00">negated</text>
</g>
<!-- qualifiers -->
<g id="node17" class="node">
<title>qualifiers</title>
<ellipse fill="none" stroke="blue" cx="1969.05" cy="-178" rx="61.99" ry="18"/>
<text text-anchor="middle" x="1969.05" y="-174.3" font-family="Times,serif" font-size="14.00">ontology class</text>
</g>
<!-- disease to exposure event association&#45;&gt;qualifiers -->
<g id="edge16" class="edge">
<title>disease to exposure event association&#45;&gt;qualifiers</title>
<path fill="none" stroke="blue" d="M1479.06,-252.01C1496.37,-250.16 1514.22,-248.4 1531.05,-247 1605.78,-240.8 1795.5,-248.03 1868.05,-229 1891.79,-222.77 1916.52,-210.64 1935.57,-199.88"/>
<polygon fill="blue" stroke="blue" points="1937.54,-202.79 1944.43,-194.75 1934.03,-196.73 1937.54,-202.79"/>
<text text-anchor="middle" x="1931.55" y="-217.8" font-family="Times,serif" font-size="14.00">qualifiers</text>
</g>
<!-- publications -->
<g id="node18" class="node">
<title>publications</title>
<ellipse fill="none" stroke="blue" cx="2099.05" cy="-178" rx="50.09" ry="18"/>
<text text-anchor="middle" x="2099.05" y="-174.3" font-family="Times,serif" font-size="14.00">publication</text>
</g>
<!-- disease to exposure event association&#45;&gt;publications -->
<g id="edge17" class="edge">
<title>disease to exposure event association&#45;&gt;publications</title>
<path fill="none" stroke="blue" d="M1478.23,-251.93C1495.8,-250.06 1513.95,-248.32 1531.05,-247 1626.4,-239.65 1867.21,-247.51 1961.05,-229 1995.56,-222.19 2032.98,-208.19 2060.13,-196.73"/>
<polygon fill="blue" stroke="blue" points="2061.84,-199.8 2069.65,-192.64 2059.08,-193.37 2061.84,-199.8"/>
<text text-anchor="middle" x="2045.55" y="-217.8" font-family="Times,serif" font-size="14.00">publications</text>
</g>
<!-- type -->
<g id="node19" class="node">
<title>type</title>
<ellipse fill="none" stroke="black" cx="2194.05" cy="-178" rx="27" ry="18"/>
<text text-anchor="middle" x="2194.05" y="-174.3" font-family="Times,serif" font-size="14.00">type</text>
</g>
<!-- disease to exposure event association&#45;&gt;type -->
<g id="edge18" class="edge">
<title>disease to exposure event association&#45;&gt;type</title>
<path fill="none" stroke="blue" d="M1477.82,-251.84C1495.51,-249.97 1513.81,-248.25 1531.05,-247 1653.46,-238.13 1963.37,-256.21 2083.05,-229 2112.49,-222.31 2143.64,-207.51 2165.42,-195.74"/>
<polygon fill="blue" stroke="blue" points="2167.38,-198.66 2174.44,-190.75 2163.99,-192.53 2167.38,-198.66"/>
<text text-anchor="middle" x="2140.05" y="-217.8" font-family="Times,serif" font-size="14.00">type</text>
</g>
<!-- category -->
<g id="node21" class="node">
<title>category</title>
<ellipse fill="none" stroke="black" cx="2280.05" cy="-178" rx="40.89" ry="18"/>
<text text-anchor="middle" x="2280.05" y="-174.3" font-family="Times,serif" font-size="14.00">category</text>
</g>
<!-- disease to exposure event association&#45;&gt;category -->
<g id="edge19" class="edge">
<title>disease to exposure event association&#45;&gt;category</title>
<path fill="none" stroke="blue" d="M1477.41,-251.83C1495.23,-249.95 1513.68,-248.23 1531.05,-247 1669.65,-237.22 2020.04,-257.43 2156.05,-229 2187.54,-222.42 2221.28,-208.31 2245.6,-196.75"/>
<polygon fill="blue" stroke="blue" points="2247.29,-199.82 2254.76,-192.3 2244.23,-193.52 2247.29,-199.82"/>
<text text-anchor="middle" x="2229.55" y="-217.8" font-family="Times,serif" font-size="14.00">category</text>
</g>
<!-- subject&#45;&gt;object -->
<g id="edge20" class="edge">
<title>subject&#45;&gt;object</title>
<path fill="none" stroke="black" d="M1522.84,-162.77C1552.74,-148.49 1598.97,-126.42 1631.84,-110.72"/>
<polygon fill="black" stroke="black" points="1633.64,-113.74 1641.16,-106.27 1630.62,-107.42 1633.64,-113.74"/>
<text text-anchor="middle" x="1614.05" y="-130.8" font-family="Times,serif" font-size="14.00">relation</text>
</g>
<!-- subject&#45;&gt;relation -->
<g id="edge21" class="edge">
<title>subject&#45;&gt;relation</title>
<path fill="none" stroke="black" stroke-dasharray="1,5" d="M1510.63,-160.57C1532.85,-139.89 1572.41,-103.39 1607.05,-73 1619.09,-62.43 1632.63,-50.95 1644.15,-41.3"/>
<polygon fill="black" stroke="black" points="1646.69,-43.74 1652.12,-34.64 1642.2,-38.37 1646.69,-43.74"/>
</g>
<!-- object&#45;&gt;relation -->
<g id="edge22" class="edge">
<title>object&#45;&gt;relation</title>
<path fill="none" stroke="black" stroke-dasharray="1,5" d="M1671.05,-72.81C1671.05,-64.79 1671.05,-55.05 1671.05,-46.07"/>
<polygon fill="black" stroke="black" points="1674.55,-46.03 1671.05,-36.03 1667.55,-46.03 1674.55,-46.03"/>
</g>
<!-- association_type -->
<g id="node20" class="node">
<title>association_type</title>
<ellipse fill="none" stroke="blue" cx="1571.05" cy="-265" rx="30.59" ry="18"/>
<text text-anchor="middle" x="1571.05" y="-261.3" font-family="Times,serif" font-size="14.00">string</text>
</g>
<!-- association_category -->
<g id="node22" class="node">
<title>association_category</title>
<ellipse fill="none" stroke="blue" cx="1678.05" cy="-265" rx="58.49" ry="18"/>
<text text-anchor="middle" x="1678.05" y="-261.3" font-family="Times,serif" font-size="14.00">category type</text>
</g>
</g>
</svg>
