<?xml version="1.0" encoding="UTF-8" standalone="no"?>
<!DOCTYPE svg PUBLIC "-//W3C//DTD SVG 1.1//EN"
 "http://www.w3.org/Graphics/SVG/1.1/DTD/svg11.dtd">
<!-- Generated by graphviz version 2.43.0 (0)
 -->
<!-- Title: %3 Pages: 1 -->
<svg width="5404pt" height="291pt"
 viewBox="0.00 0.00 5404.39 291.00" xmlns="http://www.w3.org/2000/svg" xmlns:xlink="http://www.w3.org/1999/xlink">
<g id="graph0" class="graph" transform="scale(1 1) rotate(0) translate(4 287)">
<title>%3</title>
<polygon fill="white" stroke="transparent" points="-4,4 -4,-287 5400.39,-287 5400.39,4 -4,4"/>
<!-- disease or phenotypic feature to location association -->
<g id="node1" class="node">
<title>disease or phenotypic feature to location association</title>
<ellipse fill="none" stroke="black" cx="3028.39" cy="-265" rx="254.55" ry="18"/>
<text text-anchor="middle" x="3028.39" y="-261.3" font-family="Times,serif" font-size="14.00">disease or phenotypic feature to location association</text>
</g>
<!-- association -->
<g id="node2" class="node">
<title>association</title>
<ellipse fill="none" stroke="black" cx="62.39" cy="-178" rx="62.29" ry="18"/>
<text text-anchor="middle" x="62.39" y="-174.3" font-family="Times,serif" font-size="14.00">association</text>
</g>
<!-- disease or phenotypic feature to location association&#45;&gt;association -->
<g id="edge1" class="edge">
<title>disease or phenotypic feature to location association&#45;&gt;association</title>
<path fill="none" stroke="black" d="M2773.58,-264.35C2338.2,-264.04 1423.2,-259.38 650.39,-229 420.77,-219.97 361.69,-229.86 134.39,-196 128.62,-195.14 122.62,-194.05 116.66,-192.83"/>
<polygon fill="black" stroke="black" points="117.23,-189.38 106.72,-190.7 115.76,-196.22 117.23,-189.38"/>
<text text-anchor="middle" x="664.39" y="-217.8" font-family="Times,serif" font-size="14.00">is_a</text>
</g>
<!-- disease or phenotypic feature to entity association mixin -->
<g id="node3" class="node">
<title>disease or phenotypic feature to entity association mixin</title>
<ellipse fill="none" stroke="black" cx="417.39" cy="-178" rx="274.05" ry="18"/>
<text text-anchor="middle" x="417.39" y="-174.3" font-family="Times,serif" font-size="14.00">disease or phenotypic feature to entity association mixin</text>
</g>
<!-- disease or phenotypic feature to location association&#45;&gt;disease or phenotypic feature to entity association mixin -->
<g id="edge2" class="edge">
<title>disease or phenotypic feature to location association&#45;&gt;disease or phenotypic feature to entity association mixin</title>
<path fill="none" stroke="black" d="M2774.33,-263.3C2279.16,-261.37 1201.04,-254.32 830.39,-229 728.95,-222.07 614.19,-207.64 531.43,-196.06"/>
<polygon fill="black" stroke="black" points="531.89,-192.59 521.5,-194.66 530.91,-199.52 531.89,-192.59"/>
<text text-anchor="middle" x="846.89" y="-217.8" font-family="Times,serif" font-size="14.00">uses</text>
</g>
<!-- id -->
<g id="node4" class="node">
<title>id</title>
<ellipse fill="none" stroke="blue" cx="748.39" cy="-178" rx="38.19" ry="18"/>
<text text-anchor="middle" x="748.39" y="-174.3" font-family="Times,serif" font-size="14.00">string</text>
</g>
<!-- disease or phenotypic feature to location association&#45;&gt;id -->
<g id="edge3" class="edge">
<title>disease or phenotypic feature to location association&#45;&gt;id</title>
<path fill="none" stroke="blue" d="M2776.05,-262.3C2263.91,-258.47 1136.05,-248 960.39,-229 886.48,-221 868.06,-215.79 796.39,-196 793.28,-195.14 790.08,-194.18 786.89,-193.17"/>
<polygon fill="blue" stroke="blue" points="787.97,-189.84 777.37,-190.01 785.76,-196.48 787.97,-189.84"/>
<text text-anchor="middle" x="967.39" y="-217.8" font-family="Times,serif" font-size="14.00">id</text>
</g>
<!-- iri -->
<g id="node5" class="node">
<title>iri</title>
<ellipse fill="none" stroke="blue" cx="849.39" cy="-178" rx="44.39" ry="18"/>
<text text-anchor="middle" x="849.39" y="-174.3" font-family="Times,serif" font-size="14.00">iri type</text>
</g>
<!-- disease or phenotypic feature to location association&#45;&gt;iri -->
<g id="edge4" class="edge">
<title>disease or phenotypic feature to location association&#45;&gt;iri</title>
<path fill="none" stroke="blue" d="M2773.63,-264.76C2322.01,-265.22 1398.39,-261.91 1077.39,-229 998.66,-220.93 979.11,-215.46 902.39,-196 898.97,-195.13 895.43,-194.16 891.9,-193.14"/>
<polygon fill="blue" stroke="blue" points="892.59,-189.69 882.01,-190.16 890.57,-196.4 892.59,-189.69"/>
<text text-anchor="middle" x="1085.39" y="-217.8" font-family="Times,serif" font-size="14.00">iri</text>
</g>
<!-- name -->
<g id="node6" class="node">
<title>name</title>
<ellipse fill="none" stroke="blue" cx="968.39" cy="-178" rx="56.59" ry="18"/>
<text text-anchor="middle" x="968.39" y="-174.3" font-family="Times,serif" font-size="14.00">label type</text>
</g>
<!-- disease or phenotypic feature to location association&#45;&gt;name -->
<g id="edge5" class="edge">
<title>disease or phenotypic feature to location association&#45;&gt;name</title>
<path fill="none" stroke="blue" d="M2776.88,-262.1C2307.9,-258.14 1333.32,-247.77 1179.39,-229 1123,-222.12 1059.78,-205.98 1017.37,-193.88"/>
<polygon fill="blue" stroke="blue" points="1018.16,-190.47 1007.59,-191.06 1016.22,-197.2 1018.16,-190.47"/>
<text text-anchor="middle" x="1199.39" y="-217.8" font-family="Times,serif" font-size="14.00">name</text>
</g>
<!-- description -->
<g id="node7" class="node">
<title>description</title>
<ellipse fill="none" stroke="blue" cx="1118.39" cy="-178" rx="75.29" ry="18"/>
<text text-anchor="middle" x="1118.39" y="-174.3" font-family="Times,serif" font-size="14.00">narrative text</text>
</g>
<!-- disease or phenotypic feature to location association&#45;&gt;description -->
<g id="edge6" class="edge">
<title>disease or phenotypic feature to location association&#45;&gt;description</title>
<path fill="none" stroke="blue" d="M2775.83,-262.58C2329.03,-259.52 1432.76,-250.74 1290.39,-229 1247.87,-222.51 1201.07,-208.43 1167.04,-196.86"/>
<polygon fill="blue" stroke="blue" points="1167.95,-193.47 1157.36,-193.52 1165.67,-200.09 1167.95,-193.47"/>
<text text-anchor="middle" x="1330.89" y="-217.8" font-family="Times,serif" font-size="14.00">description</text>
</g>
<!-- has attribute -->
<g id="node8" class="node">
<title>has attribute</title>
<ellipse fill="none" stroke="blue" cx="1263.39" cy="-178" rx="51.99" ry="18"/>
<text text-anchor="middle" x="1263.39" y="-174.3" font-family="Times,serif" font-size="14.00">attribute</text>
</g>
<!-- disease or phenotypic feature to location association&#45;&gt;has attribute -->
<g id="edge7" class="edge">
<title>disease or phenotypic feature to location association&#45;&gt;has attribute</title>
<path fill="none" stroke="blue" d="M2777.25,-261.81C2363.88,-257.7 1573,-247.53 1445.39,-229 1397.67,-222.07 1344.67,-206.59 1308.23,-194.67"/>
<polygon fill="blue" stroke="blue" points="1309.01,-191.24 1298.41,-191.41 1306.8,-197.88 1309.01,-191.24"/>
<text text-anchor="middle" x="1492.39" y="-217.8" font-family="Times,serif" font-size="14.00">has attribute</text>
</g>
<!-- subject -->
<g id="node9" class="node">
<title>subject</title>
<ellipse fill="none" stroke="blue" cx="1403.39" cy="-178" rx="69.59" ry="18"/>
<text text-anchor="middle" x="1403.39" y="-174.3" font-family="Times,serif" font-size="14.00">named thing</text>
</g>
<!-- disease or phenotypic feature to location association&#45;&gt;subject -->
<g id="edge8" class="edge">
<title>disease or phenotypic feature to location association&#45;&gt;subject</title>
<path fill="none" stroke="blue" d="M2774.46,-263.44C2433.26,-261.69 1845,-254.86 1631.39,-229 1571.61,-221.76 1504.41,-206.08 1458.55,-194.2"/>
<polygon fill="blue" stroke="blue" points="1459.37,-190.79 1448.81,-191.65 1457.6,-197.57 1459.37,-190.79"/>
<text text-anchor="middle" x="1657.39" y="-217.8" font-family="Times,serif" font-size="14.00">subject</text>
</g>
<!-- predicate -->
<g id="node10" class="node">
<title>predicate</title>
<ellipse fill="none" stroke="blue" cx="1569.39" cy="-178" rx="77.99" ry="18"/>
<text text-anchor="middle" x="1569.39" y="-174.3" font-family="Times,serif" font-size="14.00">predicate type</text>
</g>
<!-- disease or phenotypic feature to location association&#45;&gt;predicate -->
<g id="edge9" class="edge">
<title>disease or phenotypic feature to location association&#45;&gt;predicate</title>
<path fill="none" stroke="blue" d="M2773.95,-263.79C2461.47,-262.34 1949.71,-255.77 1761.39,-229 1713.5,-222.19 1660.37,-207.8 1622.16,-196.2"/>
<polygon fill="blue" stroke="blue" points="1622.88,-192.76 1612.29,-193.17 1620.82,-199.45 1622.88,-192.76"/>
<text text-anchor="middle" x="1795.39" y="-217.8" font-family="Times,serif" font-size="14.00">predicate</text>
</g>
<!-- negated -->
<g id="node11" class="node">
<title>negated</title>
<ellipse fill="none" stroke="blue" cx="1712.39" cy="-178" rx="46.59" ry="18"/>
<text text-anchor="middle" x="1712.39" y="-174.3" font-family="Times,serif" font-size="14.00">boolean</text>
</g>
<!-- disease or phenotypic feature to location association&#45;&gt;negated -->
<g id="edge10" class="edge">
<title>disease or phenotypic feature to location association&#45;&gt;negated</title>
<path fill="none" stroke="blue" d="M2777.45,-261.84C2500.21,-258.45 2071.62,-249.92 1910.39,-229 1856.59,-222.02 1796.36,-205.52 1756.61,-193.37"/>
<polygon fill="blue" stroke="blue" points="1757.55,-190 1746.96,-190.39 1755.48,-196.69 1757.55,-190"/>
<text text-anchor="middle" x="1939.39" y="-217.8" font-family="Times,serif" font-size="14.00">negated</text>
</g>
<!-- qualifiers -->
<g id="node12" class="node">
<title>qualifiers</title>
<ellipse fill="none" stroke="blue" cx="1853.39" cy="-178" rx="76.89" ry="18"/>
<text text-anchor="middle" x="1853.39" y="-174.3" font-family="Times,serif" font-size="14.00">ontology class</text>
</g>
<!-- disease or phenotypic feature to location association&#45;&gt;qualifiers -->
<g id="edge11" class="edge">
<title>disease or phenotypic feature to location association&#45;&gt;qualifiers</title>
<path fill="none" stroke="blue" d="M2777.97,-261.61C2532.63,-258.09 2176.27,-249.55 2039.39,-229 1993.1,-222.05 1941.82,-207.75 1904.85,-196.22"/>
<polygon fill="blue" stroke="blue" points="1905.88,-192.87 1895.29,-193.2 1903.77,-199.55 1905.88,-192.87"/>
<text text-anchor="middle" x="2072.89" y="-217.8" font-family="Times,serif" font-size="14.00">qualifiers</text>
</g>
<!-- publications -->
<g id="node13" class="node">
<title>publications</title>
<ellipse fill="none" stroke="blue" cx="2010.39" cy="-178" rx="62.29" ry="18"/>
<text text-anchor="middle" x="2010.39" y="-174.3" font-family="Times,serif" font-size="14.00">publication</text>
</g>
<!-- disease or phenotypic feature to location association&#45;&gt;publications -->
<g id="edge12" class="edge">
<title>disease or phenotypic feature to location association&#45;&gt;publications</title>
<path fill="none" stroke="blue" d="M2778.92,-261.31C2566.95,-257.64 2279.58,-249.06 2166.39,-229 2127.73,-222.15 2085.4,-208.15 2054.6,-196.7"/>
<polygon fill="blue" stroke="blue" points="2055.62,-193.34 2045.03,-193.08 2053.14,-199.89 2055.62,-193.34"/>
<text text-anchor="middle" x="2210.39" y="-217.8" font-family="Times,serif" font-size="14.00">publications</text>
</g>
<!-- has evidence -->
<g id="node14" class="node">
<title>has evidence</title>
<ellipse fill="none" stroke="blue" cx="2166.39" cy="-178" rx="75.29" ry="18"/>
<text text-anchor="middle" x="2166.39" y="-174.3" font-family="Times,serif" font-size="14.00">evidence type</text>
</g>
<!-- disease or phenotypic feature to location association&#45;&gt;has evidence -->
<g id="edge13" class="edge">
<title>disease or phenotypic feature to location association&#45;&gt;has evidence</title>
<path fill="none" stroke="blue" d="M2785.22,-259.53C2613.26,-254.97 2398.3,-246.04 2310.39,-229 2275.88,-222.31 2238.41,-209.1 2210.35,-197.94"/>
<polygon fill="blue" stroke="blue" points="2211.42,-194.6 2200.84,-194.09 2208.79,-201.08 2211.42,-194.6"/>
<text text-anchor="middle" x="2356.89" y="-217.8" font-family="Times,serif" font-size="14.00">has evidence</text>
</g>
<!-- knowledge source -->
<g id="node15" class="node">
<title>knowledge source</title>
<ellipse fill="none" stroke="blue" cx="2368.39" cy="-178" rx="108.58" ry="18"/>
<text text-anchor="middle" x="2368.39" y="-174.3" font-family="Times,serif" font-size="14.00">information resource</text>
</g>
<!-- disease or phenotypic feature to location association&#45;&gt;knowledge source -->
<g id="edge14" class="edge">
<title>disease or phenotypic feature to location association&#45;&gt;knowledge source</title>
<path fill="none" stroke="blue" d="M2798.75,-257.17C2645.43,-251.46 2465.8,-242.13 2431.39,-229 2416.59,-223.35 2402.54,-212.89 2391.47,-202.99"/>
<polygon fill="blue" stroke="blue" points="2393.66,-200.24 2383.98,-195.95 2388.87,-205.35 2393.66,-200.24"/>
<text text-anchor="middle" x="2495.89" y="-217.8" font-family="Times,serif" font-size="14.00">knowledge source</text>
</g>
<!-- primary knowledge source -->
<g id="node16" class="node">
<title>primary knowledge source</title>
<ellipse fill="none" stroke="blue" cx="2603.39" cy="-178" rx="108.58" ry="18"/>
<text text-anchor="middle" x="2603.39" y="-174.3" font-family="Times,serif" font-size="14.00">information resource</text>
</g>
<!-- disease or phenotypic feature to location association&#45;&gt;primary knowledge source -->
<g id="edge15" class="edge">
<title>disease or phenotypic feature to location association&#45;&gt;primary knowledge source</title>
<path fill="none" stroke="blue" d="M2785.3,-259.61C2682.9,-255.18 2583.51,-246.38 2567.39,-229 2559.95,-220.97 2564.21,-211.37 2572.01,-202.74"/>
<polygon fill="blue" stroke="blue" points="2574.46,-205.24 2579.21,-195.77 2569.59,-200.21 2574.46,-205.24"/>
<text text-anchor="middle" x="2662.39" y="-217.8" font-family="Times,serif" font-size="14.00">primary knowledge source</text>
</g>
<!-- aggregator knowledge source -->
<g id="node17" class="node">
<title>aggregator knowledge source</title>
<ellipse fill="none" stroke="blue" cx="2838.39" cy="-178" rx="108.58" ry="18"/>
<text text-anchor="middle" x="2838.39" y="-174.3" font-family="Times,serif" font-size="14.00">information resource</text>
</g>
<!-- disease or phenotypic feature to location association&#45;&gt;aggregator knowledge source -->
<g id="edge16" class="edge">
<title>disease or phenotypic feature to location association&#45;&gt;aggregator knowledge source</title>
<path fill="none" stroke="blue" d="M2826.95,-253.98C2798.59,-248.6 2775.6,-240.65 2765.39,-229 2754.98,-217.1 2764.74,-206.69 2780.14,-198.49"/>
<polygon fill="blue" stroke="blue" points="2781.67,-201.64 2789.18,-194.17 2778.65,-195.32 2781.67,-201.64"/>
<text text-anchor="middle" x="2871.89" y="-217.8" font-family="Times,serif" font-size="14.00">aggregator knowledge source</text>
</g>
<!-- timepoint -->
<g id="node18" class="node">
<title>timepoint</title>
<ellipse fill="none" stroke="blue" cx="3020.39" cy="-178" rx="55.49" ry="18"/>
<text text-anchor="middle" x="3020.39" y="-174.3" font-family="Times,serif" font-size="14.00">time type</text>
</g>
<!-- disease or phenotypic feature to location association&#45;&gt;timepoint -->
<g id="edge17" class="edge">
<title>disease or phenotypic feature to location association&#45;&gt;timepoint</title>
<path fill="none" stroke="blue" d="M2998.3,-246.83C2992.29,-241.89 2986.79,-235.93 2983.39,-229 2978.71,-219.42 2983.15,-209.79 2990.36,-201.57"/>
<polygon fill="blue" stroke="blue" points="2992.91,-203.97 2997.59,-194.47 2988.01,-198.98 2992.91,-203.97"/>
<text text-anchor="middle" x="3018.39" y="-217.8" font-family="Times,serif" font-size="14.00">timepoint</text>
</g>
<!-- original subject -->
<g id="node19" class="node">
<title>original subject</title>
<ellipse fill="none" stroke="blue" cx="3132.39" cy="-178" rx="38.19" ry="18"/>
<text text-anchor="middle" x="3132.39" y="-174.3" font-family="Times,serif" font-size="14.00">string</text>
</g>
<!-- disease or phenotypic feature to location association&#45;&gt;original subject -->
<g id="edge18" class="edge">
<title>disease or phenotypic feature to location association&#45;&gt;original subject</title>
<path fill="none" stroke="blue" d="M3043.01,-246.75C3052.06,-236.6 3064.25,-223.86 3076.39,-214 3083.57,-208.17 3091.78,-202.54 3099.67,-197.56"/>
<polygon fill="blue" stroke="blue" points="3101.65,-200.45 3108.36,-192.24 3098,-194.48 3101.65,-200.45"/>
<text text-anchor="middle" x="3132.39" y="-217.8" font-family="Times,serif" font-size="14.00">original subject</text>
</g>
<!-- original predicate -->
<g id="node20" class="node">
<title>original predicate</title>
<ellipse fill="none" stroke="blue" cx="3246.39" cy="-178" rx="57.39" ry="18"/>
<text text-anchor="middle" x="3246.39" y="-174.3" font-family="Times,serif" font-size="14.00">uriorcurie</text>
</g>
<!-- disease or phenotypic feature to location association&#45;&gt;original predicate -->
<g id="edge19" class="edge">
<title>disease or phenotypic feature to location association&#45;&gt;original predicate</title>
<path fill="none" stroke="blue" d="M3134.65,-248.53C3153.12,-243.68 3171.73,-237.33 3188.39,-229 3201.47,-222.46 3214.02,-212.32 3224.07,-202.87"/>
<polygon fill="blue" stroke="blue" points="3226.55,-205.34 3231.25,-195.85 3221.65,-200.34 3226.55,-205.34"/>
<text text-anchor="middle" x="3274.89" y="-217.8" font-family="Times,serif" font-size="14.00">original predicate</text>
</g>
<!-- original object -->
<g id="node21" class="node">
<title>original object</title>
<ellipse fill="none" stroke="blue" cx="3360.39" cy="-178" rx="38.19" ry="18"/>
<text text-anchor="middle" x="3360.39" y="-174.3" font-family="Times,serif" font-size="14.00">string</text>
</g>
<!-- disease or phenotypic feature to location association&#45;&gt;original object -->
<g id="edge20" class="edge">
<title>disease or phenotypic feature to location association&#45;&gt;original object</title>
<path fill="none" stroke="blue" d="M3242.55,-255.23C3284.59,-249.97 3321.05,-241.76 3338.39,-229 3346.05,-223.36 3351.09,-214.47 3354.38,-205.74"/>
<polygon fill="blue" stroke="blue" points="3357.74,-206.72 3357.4,-196.13 3351.06,-204.62 3357.74,-206.72"/>
<text text-anchor="middle" x="3402.89" y="-217.8" font-family="Times,serif" font-size="14.00">original object</text>
</g>
<!-- subject category -->
<g id="node22" class="node">
<title>subject category</title>
<ellipse fill="none" stroke="blue" cx="3493.39" cy="-178" rx="76.89" ry="18"/>
<text text-anchor="middle" x="3493.39" y="-174.3" font-family="Times,serif" font-size="14.00">ontology class</text>
</g>
<!-- disease or phenotypic feature to location association&#45;&gt;subject category -->
<g id="edge21" class="edge">
<title>disease or phenotypic feature to location association&#45;&gt;subject category</title>
<path fill="none" stroke="blue" d="M3212.63,-252.54C3324.23,-245.01 3447.24,-235.4 3458.39,-229 3468.05,-223.47 3475.67,-214.06 3481.3,-204.89"/>
<polygon fill="blue" stroke="blue" points="3484.47,-206.39 3486.27,-195.95 3478.36,-202.99 3484.47,-206.39"/>
<text text-anchor="middle" x="3533.89" y="-217.8" font-family="Times,serif" font-size="14.00">subject category</text>
</g>
<!-- object category -->
<g id="node23" class="node">
<title>object category</title>
<ellipse fill="none" stroke="blue" cx="3664.39" cy="-178" rx="76.89" ry="18"/>
<text text-anchor="middle" x="3664.39" y="-174.3" font-family="Times,serif" font-size="14.00">ontology class</text>
</g>
<!-- disease or phenotypic feature to location association&#45;&gt;object category -->
<g id="edge22" class="edge">
<title>disease or phenotypic feature to location association&#45;&gt;object category</title>
<path fill="none" stroke="blue" d="M3208.74,-252.26C3236.75,-250.47 3265.35,-248.67 3292.39,-247 3360.16,-242.82 3533.62,-252.28 3597.39,-229 3613.12,-223.26 3628.28,-212.54 3640.19,-202.49"/>
<polygon fill="blue" stroke="blue" points="3642.7,-204.95 3647.89,-195.71 3638.07,-199.7 3642.7,-204.95"/>
<text text-anchor="middle" x="3679.89" y="-217.8" font-family="Times,serif" font-size="14.00">object category</text>
</g>
<!-- subject closure -->
<g id="node24" class="node">
<title>subject closure</title>
<ellipse fill="none" stroke="blue" cx="3797.39" cy="-178" rx="38.19" ry="18"/>
<text text-anchor="middle" x="3797.39" y="-174.3" font-family="Times,serif" font-size="14.00">string</text>
</g>
<!-- disease or phenotypic feature to location association&#45;&gt;subject closure -->
<g id="edge23" class="edge">
<title>disease or phenotypic feature to location association&#45;&gt;subject closure</title>
<path fill="none" stroke="blue" d="M3205.16,-252.03C3234.3,-250.22 3264.19,-248.48 3292.39,-247 3342.03,-244.4 3693.16,-247.25 3739.39,-229 3747.28,-225.89 3761.7,-213.47 3774.19,-201.79"/>
<polygon fill="blue" stroke="blue" points="3776.81,-204.13 3781.64,-194.7 3771.99,-199.05 3776.81,-204.13"/>
<text text-anchor="middle" x="3815.89" y="-217.8" font-family="Times,serif" font-size="14.00">subject closure</text>
</g>
<!-- object closure -->
<g id="node25" class="node">
<title>object closure</title>
<ellipse fill="none" stroke="blue" cx="3893.39" cy="-178" rx="38.19" ry="18"/>
<text text-anchor="middle" x="3893.39" y="-174.3" font-family="Times,serif" font-size="14.00">string</text>
</g>
<!-- disease or phenotypic feature to location association&#45;&gt;object closure -->
<g id="edge24" class="edge">
<title>disease or phenotypic feature to location association&#45;&gt;object closure</title>
<path fill="none" stroke="blue" d="M3203.37,-251.91C3233.07,-250.09 3263.61,-248.37 3292.39,-247 3324.6,-245.46 3845.83,-247.26 3872.39,-229 3880.17,-223.65 3885.08,-214.82 3888.17,-206.06"/>
<polygon fill="blue" stroke="blue" points="3891.56,-206.96 3890.95,-196.39 3884.83,-205.03 3891.56,-206.96"/>
<text text-anchor="middle" x="3935.39" y="-217.8" font-family="Times,serif" font-size="14.00">object closure</text>
</g>
<!-- subject category closure -->
<g id="node26" class="node">
<title>subject category closure</title>
<ellipse fill="none" stroke="blue" cx="4026.39" cy="-178" rx="76.89" ry="18"/>
<text text-anchor="middle" x="4026.39" y="-174.3" font-family="Times,serif" font-size="14.00">ontology class</text>
</g>
<!-- disease or phenotypic feature to location association&#45;&gt;subject category closure -->
<g id="edge25" class="edge">
<title>disease or phenotypic feature to location association&#45;&gt;subject category closure</title>
<path fill="none" stroke="blue" d="M3202.66,-251.83C3232.58,-250.01 3263.37,-248.31 3292.39,-247 3331.09,-245.26 3955.03,-246.88 3989.39,-229 3999.56,-223.71 4007.65,-214.22 4013.65,-204.92"/>
<polygon fill="blue" stroke="blue" points="4016.72,-206.59 4018.75,-196.2 4010.68,-203.06 4016.72,-206.59"/>
<text text-anchor="middle" x="4093.89" y="-217.8" font-family="Times,serif" font-size="14.00">subject category closure</text>
</g>
<!-- object category closure -->
<g id="node27" class="node">
<title>object category closure</title>
<ellipse fill="none" stroke="blue" cx="4215.39" cy="-178" rx="76.89" ry="18"/>
<text text-anchor="middle" x="4215.39" y="-174.3" font-family="Times,serif" font-size="14.00">ontology class</text>
</g>
<!-- disease or phenotypic feature to location association&#45;&gt;object category closure -->
<g id="edge26" class="edge">
<title>disease or phenotypic feature to location association&#45;&gt;object category closure</title>
<path fill="none" stroke="blue" d="M3201.23,-251.77C3231.6,-249.94 3262.91,-248.25 3292.39,-247 3341.97,-244.91 4142.46,-253.88 4185.39,-229 4194.5,-223.73 4201.15,-214.5 4205.85,-205.39"/>
<polygon fill="blue" stroke="blue" points="4209.11,-206.67 4210.05,-196.12 4202.73,-203.78 4209.11,-206.67"/>
<text text-anchor="middle" x="4283.89" y="-217.8" font-family="Times,serif" font-size="14.00">object category closure</text>
</g>
<!-- subject namespace -->
<g id="node28" class="node">
<title>subject namespace</title>
<ellipse fill="none" stroke="blue" cx="4405.39" cy="-178" rx="38.19" ry="18"/>
<text text-anchor="middle" x="4405.39" y="-174.3" font-family="Times,serif" font-size="14.00">string</text>
</g>
<!-- disease or phenotypic feature to location association&#45;&gt;subject namespace -->
<g id="edge27" class="edge">
<title>disease or phenotypic feature to location association&#45;&gt;subject namespace</title>
<path fill="none" stroke="blue" d="M3200.52,-251.73C3231.11,-249.89 3262.68,-248.2 3292.39,-247 3322.35,-245.79 4345.02,-243.24 4371.39,-229 4381.09,-223.76 4388.56,-214.41 4393.98,-205.2"/>
<polygon fill="blue" stroke="blue" points="4397.17,-206.67 4398.74,-196.19 4390.98,-203.4 4397.17,-206.67"/>
<text text-anchor="middle" x="4455.39" y="-217.8" font-family="Times,serif" font-size="14.00">subject namespace</text>
</g>
<!-- object namespace -->
<g id="node29" class="node">
<title>object namespace</title>
<ellipse fill="none" stroke="blue" cx="4564.39" cy="-178" rx="38.19" ry="18"/>
<text text-anchor="middle" x="4564.39" y="-174.3" font-family="Times,serif" font-size="14.00">string</text>
</g>
<!-- disease or phenotypic feature to location association&#45;&gt;object namespace -->
<g id="edge28" class="edge">
<title>disease or phenotypic feature to location association&#45;&gt;object namespace</title>
<path fill="none" stroke="blue" d="M3200.16,-251.7C3230.86,-249.85 3262.56,-248.18 3292.39,-247 3326.68,-245.65 4496.87,-244.66 4527.39,-229 4537.73,-223.69 4545.92,-214.01 4551.93,-204.58"/>
<polygon fill="blue" stroke="blue" points="4555.06,-206.16 4557.03,-195.75 4549,-202.66 4555.06,-206.16"/>
<text text-anchor="middle" x="4608.39" y="-217.8" font-family="Times,serif" font-size="14.00">object namespace</text>
</g>
<!-- subject label closure -->
<g id="node30" class="node">
<title>subject label closure</title>
<ellipse fill="none" stroke="blue" cx="4715.39" cy="-178" rx="38.19" ry="18"/>
<text text-anchor="middle" x="4715.39" y="-174.3" font-family="Times,serif" font-size="14.00">string</text>
</g>
<!-- disease or phenotypic feature to location association&#45;&gt;subject label closure -->
<g id="edge29" class="edge">
<title>disease or phenotypic feature to location association&#45;&gt;subject label closure</title>
<path fill="none" stroke="blue" d="M3199.81,-251.68C3230.62,-249.83 3262.45,-248.16 3292.39,-247 3330.81,-245.51 4641.96,-246.09 4676.39,-229 4687.12,-223.68 4695.76,-213.86 4702.17,-204.32"/>
<polygon fill="blue" stroke="blue" points="4705.16,-206.13 4707.41,-195.78 4699.2,-202.47 4705.16,-206.13"/>
<text text-anchor="middle" x="4768.39" y="-217.8" font-family="Times,serif" font-size="14.00">subject label closure</text>
</g>
<!-- object label closure -->
<g id="node31" class="node">
<title>object label closure</title>
<ellipse fill="none" stroke="blue" cx="4886.39" cy="-178" rx="38.19" ry="18"/>
<text text-anchor="middle" x="4886.39" y="-174.3" font-family="Times,serif" font-size="14.00">string</text>
</g>
<!-- disease or phenotypic feature to location association&#45;&gt;object label closure -->
<g id="edge30" class="edge">
<title>disease or phenotypic feature to location association&#45;&gt;object label closure</title>
<path fill="none" stroke="blue" d="M3199.81,-251.64C3230.62,-249.8 3262.45,-248.14 3292.39,-247 3335.53,-245.36 4807.59,-247.93 4846.39,-229 4857.26,-223.7 4866.11,-213.89 4872.7,-204.34"/>
<polygon fill="blue" stroke="blue" points="4875.71,-206.12 4878.1,-195.8 4869.8,-202.38 4875.71,-206.12"/>
<text text-anchor="middle" x="4934.89" y="-217.8" font-family="Times,serif" font-size="14.00">object label closure</text>
</g>
<!-- retrieval source ids -->
<g id="node32" class="node">
<title>retrieval source ids</title>
<ellipse fill="none" stroke="blue" cx="5048.39" cy="-178" rx="84.49" ry="18"/>
<text text-anchor="middle" x="5048.39" y="-174.3" font-family="Times,serif" font-size="14.00">retrieval source</text>
</g>
<!-- disease or phenotypic feature to location association&#45;&gt;retrieval source ids -->
<g id="edge31" class="edge">
<title>disease or phenotypic feature to location association&#45;&gt;retrieval source ids</title>
<path fill="none" stroke="blue" d="M3199.45,-251.64C3230.37,-249.79 3262.33,-248.12 3292.39,-247 3340.03,-245.22 4965.54,-249.87 5008.39,-229 5019.11,-223.78 5027.86,-214.17 5034.42,-204.75"/>
<polygon fill="blue" stroke="blue" points="5037.39,-206.61 5039.82,-196.3 5031.49,-202.84 5037.39,-206.61"/>
<text text-anchor="middle" x="5096.89" y="-217.8" font-family="Times,serif" font-size="14.00">retrieval source ids</text>
</g>
<!-- type -->
<g id="node33" class="node">
<title>type</title>
<ellipse fill="none" stroke="black" cx="5182.39" cy="-178" rx="31.4" ry="18"/>
<text text-anchor="middle" x="5182.39" y="-174.3" font-family="Times,serif" font-size="14.00">type</text>
</g>
<!-- disease or phenotypic feature to location association&#45;&gt;type -->
<g id="edge32" class="edge">
<title>disease or phenotypic feature to location association&#45;&gt;type</title>
<path fill="none" stroke="blue" d="M3199.1,-251.64C3230.13,-249.78 3262.22,-248.12 3292.39,-247 3318.46,-246.04 5149.99,-245.25 5170.39,-229 5177.25,-223.54 5180.61,-214.93 5182.15,-206.37"/>
<polygon fill="blue" stroke="blue" points="5185.66,-206.5 5183.24,-196.19 5178.7,-205.76 5185.66,-206.5"/>
<text text-anchor="middle" x="5196.39" y="-217.8" font-family="Times,serif" font-size="14.00">type</text>
</g>
<!-- category -->
<g id="node35" class="node">
<title>category</title>
<ellipse fill="none" stroke="black" cx="5283.39" cy="-178" rx="51.19" ry="18"/>
<text text-anchor="middle" x="5283.39" y="-174.3" font-family="Times,serif" font-size="14.00">category</text>
</g>
<!-- disease or phenotypic feature to location association&#45;&gt;category -->
<g id="edge33" class="edge">
<title>disease or phenotypic feature to location association&#45;&gt;category</title>
<path fill="none" stroke="blue" d="M3199.1,-251.63C3230.13,-249.77 3262.22,-248.11 3292.39,-247 3345.81,-245.03 5165.75,-246.08 5216.39,-229 5232.6,-223.54 5248.08,-212.51 5260.07,-202.2"/>
<polygon fill="blue" stroke="blue" points="5262.69,-204.55 5267.78,-195.26 5258,-199.35 5262.69,-204.55"/>
<text text-anchor="middle" x="5275.89" y="-217.8" font-family="Times,serif" font-size="14.00">category</text>
</g>
<!-- object -->
<g id="node37" class="node">
<title>object</title>
<ellipse fill="none" stroke="black" cx="1470.39" cy="-91" rx="38.99" ry="18"/>
<text text-anchor="middle" x="1470.39" y="-87.3" font-family="Times,serif" font-size="14.00">object</text>
</g>
<!-- disease or phenotypic feature to location association&#45;&gt;object -->
<g id="edge34" class="edge">
<title>disease or phenotypic feature to location association&#45;&gt;object</title>
<path fill="none" stroke="blue" d="M3199.1,-251.62C3230.13,-249.76 3262.22,-248.11 3292.39,-247 3348.44,-244.95 5259.84,-251.09 5311.39,-229 5342.47,-215.69 5367.09,-184.11 5343.39,-160 5273.06,-88.42 1965.32,-91.21 1519.83,-91.91"/>
<polygon fill="blue" stroke="blue" points="1519.54,-88.41 1509.55,-91.93 1519.55,-95.41 1519.54,-88.41"/>
<text text-anchor="middle" x="5374.39" y="-174.3" font-family="Times,serif" font-size="14.00">object</text>
</g>
<!-- subject&#45;&gt;object -->
<g id="edge35" class="edge">
<title>subject&#45;&gt;object</title>
<path fill="none" stroke="black" d="M1416.63,-160.21C1426.49,-147.71 1440.08,-130.45 1451.14,-116.43"/>
<polygon fill="black" stroke="black" points="1454.2,-118.2 1457.64,-108.18 1448.7,-113.87 1454.2,-118.2"/>
<text text-anchor="middle" x="1469.39" y="-130.8" font-family="Times,serif" font-size="14.00">relation</text>
</g>
<!-- relation -->
<g id="node39" class="node">
<title>relation</title>
<ellipse fill="none" stroke="black" cx="1415.39" cy="-18" rx="46.59" ry="18"/>
<text text-anchor="middle" x="1415.39" y="-14.3" font-family="Times,serif" font-size="14.00">relation</text>
</g>
<!-- subject&#45;&gt;relation -->
<g id="edge36" class="edge">
<title>subject&#45;&gt;relation</title>
<path fill="none" stroke="black" stroke-dasharray="1,5" d="M1404.7,-159.79C1406.78,-132.48 1410.84,-78.99 1413.31,-46.38"/>
<polygon fill="black" stroke="black" points="1416.82,-46.42 1414.09,-36.19 1409.84,-45.89 1416.82,-46.42"/>
</g>
<!-- association_type -->
<g id="node34" class="node">
<title>association_type</title>
<ellipse fill="none" stroke="blue" cx="3339.39" cy="-265" rx="38.19" ry="18"/>
<text text-anchor="middle" x="3339.39" y="-261.3" font-family="Times,serif" font-size="14.00">string</text>
</g>
<!-- association_category -->
<g id="node36" class="node">
<title>association_category</title>
<ellipse fill="none" stroke="blue" cx="3470.39" cy="-265" rx="74.99" ry="18"/>
<text text-anchor="middle" x="3470.39" y="-261.3" font-family="Times,serif" font-size="14.00">category type</text>
</g>
<!-- object&#45;&gt;relation -->
<g id="edge37" class="edge">
<title>object&#45;&gt;relation</title>
<path fill="none" stroke="black" stroke-dasharray="1,5" d="M1457.91,-73.89C1450.98,-64.94 1442.21,-53.62 1434.44,-43.58"/>
<polygon fill="black" stroke="black" points="1437.1,-41.3 1428.21,-35.54 1431.56,-45.59 1437.1,-41.3"/>
</g>
<!-- disease or phenotypic feature to location association_object -->
<g id="node38" class="node">
<title>disease or phenotypic feature to location association_object</title>
<ellipse fill="none" stroke="blue" cx="3654.39" cy="-265" rx="91.78" ry="18"/>
<text text-anchor="middle" x="3654.39" y="-261.3" font-family="Times,serif" font-size="14.00">anatomical entity</text>
</g>
</g>
</svg>
