<?xml version="1.0" encoding="UTF-8" standalone="no"?>
<!DOCTYPE svg PUBLIC "-//W3C//DTD SVG 1.1//EN"
 "http://www.w3.org/Graphics/SVG/1.1/DTD/svg11.dtd">
<!-- Generated by graphviz version 2.40.1 (20161225.0304)
 -->
<!-- Title: %3 Pages: 1 -->
<svg width="709pt" height="131pt"
 viewBox="0.00 0.00 709.03 131.00" xmlns="http://www.w3.org/2000/svg" xmlns:xlink="http://www.w3.org/1999/xlink">
<g id="graph0" class="graph" transform="scale(1 1) rotate(0) translate(4 127)">
<title>%3</title>
<polygon fill="#ffffff" stroke="transparent" points="-4,4 -4,-127 705.034,-127 705.034,4 -4,4"/>
<!-- disease -->
<g id="node1" class="node">
<title>disease</title>
<ellipse fill="none" stroke="#000000" cx="371.3899" cy="-105" rx="36.2938" ry="18"/>
<text text-anchor="middle" x="371.3899" y="-101.3" font-family="Times,serif" font-size="14.00" fill="#000000">disease</text>
</g>
<!-- disease or phenotypic feature -->
<g id="node2" class="node">
<title>disease or phenotypic feature</title>
<ellipse fill="none" stroke="#000000" cx="114.3899" cy="-18" rx="114.2798" ry="18"/>
<text text-anchor="middle" x="114.3899" y="-14.3" font-family="Times,serif" font-size="14.00" fill="#000000">disease or phenotypic feature</text>
</g>
<!-- disease&#45;&gt;disease or phenotypic feature -->
<g id="edge1" class="edge">
<title>disease&#45;&gt;disease or phenotypic feature</title>
<path fill="none" stroke="#000000" d="M341.153,-94.7642C299.8069,-80.7676 224.7947,-55.3744 172.4097,-37.641"/>
<polygon fill="#000000" stroke="#000000" points="173.499,-34.3147 162.9048,-34.4233 171.2545,-40.9451 173.499,-34.3147"/>
<text text-anchor="middle" x="269.3899" y="-57.8" font-family="Times,serif" font-size="14.00" fill="#000000">is_a</text>
</g>
<!-- id -->
<g id="node3" class="node">
<title>id</title>
<ellipse fill="none" stroke="#0000ff" cx="277.3899" cy="-18" rx="30.5947" ry="18"/>
<text text-anchor="middle" x="277.3899" y="-14.3" font-family="Times,serif" font-size="14.00" fill="#000000">string</text>
</g>
<!-- disease&#45;&gt;id -->
<g id="edge2" class="edge">
<title>disease&#45;&gt;id</title>
<path fill="none" stroke="#0000ff" d="M354.1488,-89.0429C339.3911,-75.3841 317.9836,-55.5708 301.5234,-40.3363"/>
<polygon fill="#0000ff" stroke="#0000ff" points="303.6076,-37.4964 293.8912,-33.2725 298.8528,-42.6337 303.6076,-37.4964"/>
<text text-anchor="middle" x="335.8899" y="-57.8" font-family="Times,serif" font-size="14.00" fill="#000000">id</text>
</g>
<!-- name -->
<g id="node4" class="node">
<title>name</title>
<ellipse fill="none" stroke="#0000ff" cx="371.3899" cy="-18" rx="45.4919" ry="18"/>
<text text-anchor="middle" x="371.3899" y="-14.3" font-family="Times,serif" font-size="14.00" fill="#000000">label type</text>
</g>
<!-- disease&#45;&gt;name -->
<g id="edge3" class="edge">
<title>disease&#45;&gt;name</title>
<path fill="none" stroke="#0000ff" d="M371.3899,-86.9735C371.3899,-75.1918 371.3899,-59.5607 371.3899,-46.1581"/>
<polygon fill="#0000ff" stroke="#0000ff" points="374.8899,-46.0033 371.3899,-36.0034 367.8899,-46.0034 374.8899,-46.0033"/>
<text text-anchor="middle" x="386.8899" y="-57.8" font-family="Times,serif" font-size="14.00" fill="#000000">name</text>
</g>
<!-- category -->
<g id="node5" class="node">
<title>category</title>
<ellipse fill="none" stroke="#0000ff" cx="493.3899" cy="-18" rx="58.4896" ry="18"/>
<text text-anchor="middle" x="493.3899" y="-14.3" font-family="Times,serif" font-size="14.00" fill="#000000">category type</text>
</g>
<!-- disease&#45;&gt;category -->
<g id="edge4" class="edge">
<title>disease&#45;&gt;category</title>
<path fill="none" stroke="#0000ff" d="M392.3624,-90.0442C411.4883,-76.4052 440.0136,-56.0634 461.8807,-40.4697"/>
<polygon fill="#0000ff" stroke="#0000ff" points="464.0895,-43.1933 470.1992,-34.5376 460.0252,-37.494 464.0895,-43.1933"/>
<text text-anchor="middle" x="463.8899" y="-57.8" font-family="Times,serif" font-size="14.00" fill="#000000">category</text>
</g>
<!-- in taxon -->
<g id="node6" class="node">
<title>in taxon</title>
<ellipse fill="none" stroke="#0000ff" cx="635.3899" cy="-18" rx="65.7887" ry="18"/>
<text text-anchor="middle" x="635.3899" y="-14.3" font-family="Times,serif" font-size="14.00" fill="#000000">organism taxon</text>
</g>
<!-- disease&#45;&gt;in taxon -->
<g id="edge5" class="edge">
<title>disease&#45;&gt;in taxon</title>
<path fill="none" stroke="#0000ff" d="M403.1034,-95.9452C427.3716,-88.9053 461.619,-78.7311 491.3899,-69 523.2986,-58.5701 558.857,-45.9862 586.6554,-35.928"/>
<polygon fill="#0000ff" stroke="#0000ff" points="587.94,-39.1853 596.1457,-32.4834 585.5516,-32.6053 587.94,-39.1853"/>
<text text-anchor="middle" x="557.8899" y="-57.8" font-family="Times,serif" font-size="14.00" fill="#000000">in taxon</text>
</g>
</g>
</svg>
