<?xml version="1.0" encoding="UTF-8" standalone="no"?>
<!DOCTYPE svg PUBLIC "-//W3C//DTD SVG 1.1//EN"
 "http://www.w3.org/Graphics/SVG/1.1/DTD/svg11.dtd">
<!-- Generated by graphviz version 2.43.0 (0)
 -->
<!-- Title: %3 Pages: 1 -->
<svg width="2062pt" height="131pt"
 viewBox="0.00 0.00 2062.38 131.00" xmlns="http://www.w3.org/2000/svg" xmlns:xlink="http://www.w3.org/1999/xlink">
<g id="graph0" class="graph" transform="scale(1 1) rotate(0) translate(4 127)">
<title>%3</title>
<polygon fill="white" stroke="transparent" points="-4,4 -4,-127 2058.38,-127 2058.38,4 -4,4"/>
<!-- disease -->
<g id="node1" class="node">
<title>disease</title>
<ellipse fill="none" stroke="black" cx="1080.84" cy="-105" rx="45.49" ry="18"/>
<text text-anchor="middle" x="1080.84" y="-101.3" font-family="Times,serif" font-size="14.00">disease</text>
</g>
<!-- disease or phenotypic feature -->
<g id="node2" class="node">
<title>disease or phenotypic feature</title>
<ellipse fill="none" stroke="black" cx="148.84" cy="-18" rx="148.67" ry="18"/>
<text text-anchor="middle" x="148.84" y="-14.3" font-family="Times,serif" font-size="14.00">disease or phenotypic feature</text>
</g>
<!-- disease&#45;&gt;disease or phenotypic feature -->
<g id="edge1" class="edge">
<title>disease&#45;&gt;disease or phenotypic feature</title>
<path fill="none" stroke="black" d="M1035.22,-103.32C929.98,-101.35 662.16,-94.08 439.84,-69 368.81,-60.99 288.83,-46.87 230.72,-35.67"/>
<polygon fill="black" stroke="black" points="231.34,-32.23 220.86,-33.76 230.01,-39.1 231.34,-32.23"/>
<text text-anchor="middle" x="453.84" y="-57.8" font-family="Times,serif" font-size="14.00">is_a</text>
</g>
<!-- id -->
<g id="node3" class="node">
<title>id</title>
<ellipse fill="none" stroke="blue" cx="353.84" cy="-18" rx="38.19" ry="18"/>
<text text-anchor="middle" x="353.84" y="-14.3" font-family="Times,serif" font-size="14.00">string</text>
</g>
<!-- disease&#45;&gt;id -->
<g id="edge2" class="edge">
<title>disease&#45;&gt;id</title>
<path fill="none" stroke="blue" d="M1035.49,-103.12C944.52,-100.89 733.39,-93.32 557.84,-69 487.64,-59.28 470.05,-55.2 401.84,-36 398.73,-35.13 395.53,-34.15 392.34,-33.13"/>
<polygon fill="blue" stroke="blue" points="393.42,-29.81 382.83,-29.96 391.21,-36.45 393.42,-29.81"/>
<text text-anchor="middle" x="564.84" y="-57.8" font-family="Times,serif" font-size="14.00">id</text>
</g>
<!-- iri -->
<g id="node4" class="node">
<title>iri</title>
<ellipse fill="none" stroke="blue" cx="454.84" cy="-18" rx="44.39" ry="18"/>
<text text-anchor="middle" x="454.84" y="-14.3" font-family="Times,serif" font-size="14.00">iri type</text>
</g>
<!-- disease&#45;&gt;iri -->
<g id="edge3" class="edge">
<title>disease&#45;&gt;iri</title>
<path fill="none" stroke="blue" d="M1035.57,-102.76C955.91,-100.04 785.67,-91.86 643.84,-69 592.93,-60.79 535.88,-44.72 497.91,-33"/>
<polygon fill="blue" stroke="blue" points="498.79,-29.61 488.2,-29.98 496.71,-36.3 498.79,-29.61"/>
<text text-anchor="middle" x="651.84" y="-57.8" font-family="Times,serif" font-size="14.00">iri</text>
</g>
<!-- type -->
<g id="node5" class="node">
<title>type</title>
<ellipse fill="none" stroke="blue" cx="555.84" cy="-18" rx="38.19" ry="18"/>
<text text-anchor="middle" x="555.84" y="-14.3" font-family="Times,serif" font-size="14.00">string</text>
</g>
<!-- disease&#45;&gt;type -->
<g id="edge4" class="edge">
<title>disease&#45;&gt;type</title>
<path fill="none" stroke="blue" d="M1036.05,-101.63C969.51,-97.62 840.78,-88.02 732.84,-69 674.13,-58.66 659.82,-53.49 602.84,-36 600.08,-35.15 597.24,-34.24 594.39,-33.29"/>
<polygon fill="blue" stroke="blue" points="595.36,-29.92 584.77,-29.97 593.08,-36.54 595.36,-29.92"/>
<text text-anchor="middle" x="748.84" y="-57.8" font-family="Times,serif" font-size="14.00">type</text>
</g>
<!-- name -->
<g id="node6" class="node">
<title>name</title>
<ellipse fill="none" stroke="blue" cx="668.84" cy="-18" rx="56.59" ry="18"/>
<text text-anchor="middle" x="668.84" y="-14.3" font-family="Times,serif" font-size="14.00">label type</text>
</g>
<!-- disease&#45;&gt;name -->
<g id="edge5" class="edge">
<title>disease&#45;&gt;name</title>
<path fill="none" stroke="blue" d="M1036.34,-100.63C983.84,-96.07 894.17,-86.42 818.84,-69 782.31,-60.55 742.07,-46.89 712.47,-35.98"/>
<polygon fill="blue" stroke="blue" points="713.46,-32.61 702.86,-32.4 711.01,-39.17 713.46,-32.61"/>
<text text-anchor="middle" x="838.84" y="-57.8" font-family="Times,serif" font-size="14.00">name</text>
</g>
<!-- description -->
<g id="node7" class="node">
<title>description</title>
<ellipse fill="none" stroke="blue" cx="818.84" cy="-18" rx="75.29" ry="18"/>
<text text-anchor="middle" x="818.84" y="-14.3" font-family="Times,serif" font-size="14.00">narrative text</text>
</g>
<!-- disease&#45;&gt;description -->
<g id="edge6" class="edge">
<title>disease&#45;&gt;description</title>
<path fill="none" stroke="blue" d="M1036.18,-101.41C996.22,-97.81 936.74,-89.27 888.84,-69 873.19,-62.38 857.63,-51.77 845.17,-42.03"/>
<polygon fill="blue" stroke="blue" points="847.04,-39.04 837.07,-35.48 842.64,-44.49 847.04,-39.04"/>
<text text-anchor="middle" x="929.34" y="-57.8" font-family="Times,serif" font-size="14.00">description</text>
</g>
<!-- has attribute -->
<g id="node8" class="node">
<title>has attribute</title>
<ellipse fill="none" stroke="blue" cx="963.84" cy="-18" rx="51.99" ry="18"/>
<text text-anchor="middle" x="963.84" y="-14.3" font-family="Times,serif" font-size="14.00">attribute</text>
</g>
<!-- disease&#45;&gt;has attribute -->
<g id="edge7" class="edge">
<title>disease&#45;&gt;has attribute</title>
<path fill="none" stroke="blue" d="M1039.38,-97.46C1020.07,-92.52 998.06,-83.92 982.84,-69 976.52,-62.81 972.27,-54.3 969.43,-46.06"/>
<polygon fill="blue" stroke="blue" points="972.75,-44.95 966.61,-36.31 966.03,-46.89 972.75,-44.95"/>
<text text-anchor="middle" x="1029.84" y="-57.8" font-family="Times,serif" font-size="14.00">has attribute</text>
</g>
<!-- deprecated -->
<g id="node9" class="node">
<title>deprecated</title>
<ellipse fill="none" stroke="blue" cx="1080.84" cy="-18" rx="46.59" ry="18"/>
<text text-anchor="middle" x="1080.84" y="-14.3" font-family="Times,serif" font-size="14.00">boolean</text>
</g>
<!-- disease&#45;&gt;deprecated -->
<g id="edge8" class="edge">
<title>disease&#45;&gt;deprecated</title>
<path fill="none" stroke="blue" d="M1080.84,-86.8C1080.84,-75.16 1080.84,-59.55 1080.84,-46.24"/>
<polygon fill="blue" stroke="blue" points="1084.34,-46.18 1080.84,-36.18 1077.34,-46.18 1084.34,-46.18"/>
<text text-anchor="middle" x="1121.34" y="-57.8" font-family="Times,serif" font-size="14.00">deprecated</text>
</g>
<!-- provided by -->
<g id="node10" class="node">
<title>provided by</title>
<ellipse fill="none" stroke="blue" cx="1183.84" cy="-18" rx="38.19" ry="18"/>
<text text-anchor="middle" x="1183.84" y="-14.3" font-family="Times,serif" font-size="14.00">string</text>
</g>
<!-- disease&#45;&gt;provided by -->
<g id="edge9" class="edge">
<title>disease&#45;&gt;provided by</title>
<path fill="none" stroke="blue" d="M1114.41,-92.58C1133.73,-85.46 1155.58,-76.3 1162.84,-69 1169.16,-62.64 1173.69,-54.09 1176.88,-45.86"/>
<polygon fill="blue" stroke="blue" points="1180.27,-46.74 1180.14,-36.15 1173.64,-44.51 1180.27,-46.74"/>
<text text-anchor="middle" x="1216.34" y="-57.8" font-family="Times,serif" font-size="14.00">provided by</text>
</g>
<!-- xref -->
<g id="node11" class="node">
<title>xref</title>
<ellipse fill="none" stroke="blue" cx="1297.84" cy="-18" rx="57.39" ry="18"/>
<text text-anchor="middle" x="1297.84" y="-14.3" font-family="Times,serif" font-size="14.00">uriorcurie</text>
</g>
<!-- disease&#45;&gt;xref -->
<g id="edge10" class="edge">
<title>disease&#45;&gt;xref</title>
<path fill="none" stroke="blue" d="M1114.02,-92.61C1120.85,-90.53 1128.03,-88.54 1134.84,-87 1190.87,-74.33 1213.86,-99.02 1262.84,-69 1272.19,-63.27 1279.7,-54 1285.33,-44.99"/>
<polygon fill="blue" stroke="blue" points="1288.42,-46.63 1290.33,-36.21 1282.34,-43.16 1288.42,-46.63"/>
<text text-anchor="middle" x="1293.34" y="-57.8" font-family="Times,serif" font-size="14.00">xref</text>
</g>
<!-- full name -->
<g id="node12" class="node">
<title>full name</title>
<ellipse fill="none" stroke="blue" cx="1429.84" cy="-18" rx="56.59" ry="18"/>
<text text-anchor="middle" x="1429.84" y="-14.3" font-family="Times,serif" font-size="14.00">label type</text>
</g>
<!-- disease&#45;&gt;full name -->
<g id="edge11" class="edge">
<title>disease&#45;&gt;full name</title>
<path fill="none" stroke="blue" d="M1113.68,-92.49C1120.6,-90.4 1127.91,-88.43 1134.84,-87 1212.28,-71.05 1235.24,-88.64 1311.84,-69 1339.75,-61.84 1369.61,-49.13 1392.32,-38.32"/>
<polygon fill="blue" stroke="blue" points="1394.11,-41.34 1401.58,-33.82 1391.06,-35.04 1394.11,-41.34"/>
<text text-anchor="middle" x="1389.34" y="-57.8" font-family="Times,serif" font-size="14.00">full name</text>
</g>
<!-- synonym -->
<g id="node13" class="node">
<title>synonym</title>
<ellipse fill="none" stroke="blue" cx="1560.84" cy="-18" rx="56.59" ry="18"/>
<text text-anchor="middle" x="1560.84" y="-14.3" font-family="Times,serif" font-size="14.00">label type</text>
</g>
<!-- disease&#45;&gt;synonym -->
<g id="edge12" class="edge">
<title>disease&#45;&gt;synonym</title>
<path fill="none" stroke="blue" d="M1113.35,-92.36C1120.36,-90.25 1127.78,-88.31 1134.84,-87 1262.68,-63.3 1299.65,-96.02 1426.84,-69 1459.61,-62.04 1495.06,-48.52 1521.26,-37.3"/>
<polygon fill="blue" stroke="blue" points="1522.71,-40.49 1530.48,-33.28 1519.91,-34.07 1522.71,-40.49"/>
<text text-anchor="middle" x="1508.84" y="-57.8" font-family="Times,serif" font-size="14.00">synonym</text>
</g>
<!-- category -->
<g id="node14" class="node">
<title>category</title>
<ellipse fill="none" stroke="black" cx="1686.84" cy="-18" rx="51.19" ry="18"/>
<text text-anchor="middle" x="1686.84" y="-14.3" font-family="Times,serif" font-size="14.00">category</text>
</g>
<!-- disease&#45;&gt;category -->
<g id="edge13" class="edge">
<title>disease&#45;&gt;category</title>
<path fill="none" stroke="blue" d="M1113.34,-92.27C1120.34,-90.16 1127.77,-88.25 1134.84,-87 1314.47,-55.34 1365.76,-103.67 1544.84,-69 1580.42,-62.11 1619.11,-48.02 1647.11,-36.54"/>
<polygon fill="blue" stroke="blue" points="1648.66,-39.69 1656.54,-32.61 1645.96,-33.23 1648.66,-39.69"/>
<text text-anchor="middle" x="1628.34" y="-57.8" font-family="Times,serif" font-size="14.00">category</text>
</g>
<!-- in taxon -->
<g id="node16" class="node">
<title>in taxon</title>
<ellipse fill="none" stroke="blue" cx="1839.84" cy="-18" rx="83.39" ry="18"/>
<text text-anchor="middle" x="1839.84" y="-14.3" font-family="Times,serif" font-size="14.00">organism taxon</text>
</g>
<!-- disease&#45;&gt;in taxon -->
<g id="edge14" class="edge">
<title>disease&#45;&gt;in taxon</title>
<path fill="none" stroke="blue" d="M1113.33,-92.21C1120.34,-90.11 1127.76,-88.21 1134.84,-87 1366.71,-47.32 1431.42,-105.41 1663.84,-69 1706.82,-62.27 1754.2,-48.42 1788.96,-37.01"/>
<polygon fill="blue" stroke="blue" points="1790.48,-40.19 1798.86,-33.71 1788.27,-33.55 1790.48,-40.19"/>
<text text-anchor="middle" x="1756.84" y="-57.8" font-family="Times,serif" font-size="14.00">in taxon</text>
</g>
<!-- in taxon label -->
<g id="node17" class="node">
<title>in taxon label</title>
<ellipse fill="none" stroke="blue" cx="1997.84" cy="-18" rx="56.59" ry="18"/>
<text text-anchor="middle" x="1997.84" y="-14.3" font-family="Times,serif" font-size="14.00">label type</text>
</g>
<!-- disease&#45;&gt;in taxon label -->
<g id="edge15" class="edge">
<title>disease&#45;&gt;in taxon label</title>
<path fill="none" stroke="blue" d="M1113.03,-92.27C1120.13,-90.13 1127.66,-88.2 1134.84,-87 1278.44,-62.91 1645.42,-87.57 1789.84,-69 1845.25,-61.87 1907.37,-45.86 1949.17,-33.86"/>
<polygon fill="blue" stroke="blue" points="1950.19,-37.21 1958.82,-31.06 1948.24,-30.48 1950.19,-37.21"/>
<text text-anchor="middle" x="1919.34" y="-57.8" font-family="Times,serif" font-size="14.00">in taxon label</text>
</g>
<!-- named thing_category -->
<g id="node15" class="node">
<title>named thing_category</title>
<ellipse fill="none" stroke="blue" cx="1218.84" cy="-105" rx="74.99" ry="18"/>
<text text-anchor="middle" x="1218.84" y="-101.3" font-family="Times,serif" font-size="14.00">category type</text>
</g>
</g>
</svg>
