<?xml version="1.0" encoding="UTF-8" standalone="no"?>
<!DOCTYPE svg PUBLIC "-//W3C//DTD SVG 1.1//EN"
 "http://www.w3.org/Graphics/SVG/1.1/DTD/svg11.dtd">
<!-- Generated by graphviz version 2.43.0 (0)
 -->
<!-- Title: %3 Pages: 1 -->
<svg width="3689pt" height="291pt"
 viewBox="0.00 0.00 3689.39 291.00" xmlns="http://www.w3.org/2000/svg" xmlns:xlink="http://www.w3.org/1999/xlink">
<g id="graph0" class="graph" transform="scale(1 1) rotate(0) translate(4 287)">
<title>%3</title>
<polygon fill="white" stroke="transparent" points="-4,4 -4,-287 3685.39,-287 3685.39,4 -4,4"/>
<!-- disease or phenotypic feature to location association -->
<g id="node1" class="node">
<title>disease or phenotypic feature to location association</title>
<ellipse fill="none" stroke="black" cx="2010.39" cy="-265" rx="254.55" ry="18"/>
<text text-anchor="middle" x="2010.39" y="-261.3" font-family="Times,serif" font-size="14.00">disease or phenotypic feature to location association</text>
</g>
<!-- association -->
<g id="node2" class="node">
<title>association</title>
<ellipse fill="none" stroke="black" cx="62.39" cy="-178" rx="62.29" ry="18"/>
<text text-anchor="middle" x="62.39" y="-174.3" font-family="Times,serif" font-size="14.00">association</text>
</g>
<!-- disease or phenotypic feature to location association&#45;&gt;association -->
<g id="edge1" class="edge">
<title>disease or phenotypic feature to location association&#45;&gt;association</title>
<path fill="none" stroke="black" d="M1763.73,-260.45C1491.54,-255.87 1040.56,-246.36 652.39,-229 421.94,-218.69 362.57,-229.96 134.39,-196 128.62,-195.14 122.62,-194.05 116.66,-192.84"/>
<polygon fill="black" stroke="black" points="117.23,-189.38 106.72,-190.7 115.76,-196.22 117.23,-189.38"/>
<text text-anchor="middle" x="666.39" y="-217.8" font-family="Times,serif" font-size="14.00">is_a</text>
</g>
<!-- disease or phenotypic feature to entity association mixin -->
<g id="node3" class="node">
<title>disease or phenotypic feature to entity association mixin</title>
<ellipse fill="none" stroke="black" cx="417.39" cy="-178" rx="274.05" ry="18"/>
<text text-anchor="middle" x="417.39" y="-174.3" font-family="Times,serif" font-size="14.00">disease or phenotypic feature to entity association mixin</text>
</g>
<!-- disease or phenotypic feature to location association&#45;&gt;disease or phenotypic feature to entity association mixin -->
<g id="edge2" class="edge">
<title>disease or phenotypic feature to location association&#45;&gt;disease or phenotypic feature to entity association mixin</title>
<path fill="none" stroke="black" d="M1756.99,-263.07C1518.2,-260.63 1150.56,-252.84 832.39,-229 731.56,-221.44 617.55,-207.3 534.58,-195.98"/>
<polygon fill="black" stroke="black" points="535,-192.5 524.62,-194.61 534.05,-199.44 535,-192.5"/>
<text text-anchor="middle" x="848.89" y="-217.8" font-family="Times,serif" font-size="14.00">uses</text>
</g>
<!-- id -->
<g id="node4" class="node">
<title>id</title>
<ellipse fill="none" stroke="blue" cx="748.39" cy="-178" rx="38.19" ry="18"/>
<text text-anchor="middle" x="748.39" y="-174.3" font-family="Times,serif" font-size="14.00">string</text>
</g>
<!-- disease or phenotypic feature to location association&#45;&gt;id -->
<g id="edge3" class="edge">
<title>disease or phenotypic feature to location association&#45;&gt;id</title>
<path fill="none" stroke="blue" d="M1764.25,-260.28C1505,-255.55 1114.14,-245.9 965.39,-229 889.35,-220.36 870.22,-216.16 796.39,-196 793.24,-195.14 789.99,-194.17 786.75,-193.15"/>
<polygon fill="blue" stroke="blue" points="787.71,-189.78 777.11,-189.95 785.5,-196.42 787.71,-189.78"/>
<text text-anchor="middle" x="972.39" y="-217.8" font-family="Times,serif" font-size="14.00">id</text>
</g>
<!-- iri -->
<g id="node5" class="node">
<title>iri</title>
<ellipse fill="none" stroke="blue" cx="849.39" cy="-178" rx="44.39" ry="18"/>
<text text-anchor="middle" x="849.39" y="-174.3" font-family="Times,serif" font-size="14.00">iri type</text>
</g>
<!-- disease or phenotypic feature to location association&#45;&gt;iri -->
<g id="edge4" class="edge">
<title>disease or phenotypic feature to location association&#45;&gt;iri</title>
<path fill="none" stroke="blue" d="M1756.4,-263.58C1571.29,-261.03 1314.7,-252.84 1090.39,-229 1006.04,-220.03 984.75,-216.34 902.39,-196 898.96,-195.15 895.42,-194.2 891.89,-193.19"/>
<polygon fill="blue" stroke="blue" points="892.57,-189.74 881.99,-190.23 890.57,-196.45 892.57,-189.74"/>
<text text-anchor="middle" x="1098.39" y="-217.8" font-family="Times,serif" font-size="14.00">iri</text>
</g>
<!-- name -->
<g id="node6" class="node">
<title>name</title>
<ellipse fill="none" stroke="blue" cx="968.39" cy="-178" rx="56.59" ry="18"/>
<text text-anchor="middle" x="968.39" y="-174.3" font-family="Times,serif" font-size="14.00">label type</text>
</g>
<!-- disease or phenotypic feature to location association&#45;&gt;name -->
<g id="edge5" class="edge">
<title>disease or phenotypic feature to location association&#45;&gt;name</title>
<path fill="none" stroke="blue" d="M1773.97,-258.26C1572.54,-252.57 1298.98,-242.71 1190.39,-229 1130.63,-221.46 1063.31,-205.16 1018.63,-193.22"/>
<polygon fill="blue" stroke="blue" points="1019.46,-189.82 1008.9,-190.59 1017.64,-196.57 1019.46,-189.82"/>
<text text-anchor="middle" x="1210.39" y="-217.8" font-family="Times,serif" font-size="14.00">name</text>
</g>
<!-- description -->
<g id="node7" class="node">
<title>description</title>
<ellipse fill="none" stroke="blue" cx="1118.39" cy="-178" rx="75.29" ry="18"/>
<text text-anchor="middle" x="1118.39" y="-174.3" font-family="Times,serif" font-size="14.00">narrative text</text>
</g>
<!-- disease or phenotypic feature to location association&#45;&gt;description -->
<g id="edge6" class="edge">
<title>disease or phenotypic feature to location association&#45;&gt;description</title>
<path fill="none" stroke="blue" d="M1775.64,-258C1604.58,-252.57 1387.94,-243.23 1299.39,-229 1254.67,-221.81 1205.18,-207.7 1169.27,-196.29"/>
<polygon fill="blue" stroke="blue" points="1170.11,-192.89 1159.52,-193.16 1167.96,-199.55 1170.11,-192.89"/>
<text text-anchor="middle" x="1339.89" y="-217.8" font-family="Times,serif" font-size="14.00">description</text>
</g>
<!-- has attribute -->
<g id="node8" class="node">
<title>has attribute</title>
<ellipse fill="none" stroke="blue" cx="1263.39" cy="-178" rx="51.99" ry="18"/>
<text text-anchor="middle" x="1263.39" y="-174.3" font-family="Times,serif" font-size="14.00">attribute</text>
</g>
<!-- disease or phenotypic feature to location association&#45;&gt;has attribute -->
<g id="edge7" class="edge">
<title>disease or phenotypic feature to location association&#45;&gt;has attribute</title>
<path fill="none" stroke="blue" d="M1770.35,-258.92C1671.42,-254.24 1555.93,-245.44 1452.39,-229 1402.85,-221.13 1347.52,-205.68 1309.6,-194.03"/>
<polygon fill="blue" stroke="blue" points="1310.45,-190.63 1299.86,-191.01 1308.37,-197.32 1310.45,-190.63"/>
<text text-anchor="middle" x="1499.39" y="-217.8" font-family="Times,serif" font-size="14.00">has attribute</text>
</g>
<!-- subject -->
<g id="node9" class="node">
<title>subject</title>
<ellipse fill="none" stroke="blue" cx="1403.39" cy="-178" rx="69.59" ry="18"/>
<text text-anchor="middle" x="1403.39" y="-174.3" font-family="Times,serif" font-size="14.00">named thing</text>
</g>
<!-- disease or phenotypic feature to location association&#45;&gt;subject -->
<g id="edge8" class="edge">
<title>disease or phenotypic feature to location association&#45;&gt;subject</title>
<path fill="none" stroke="blue" d="M1827.18,-252.47C1762.55,-247.07 1689.53,-239.46 1623.39,-229 1567.11,-220.1 1503.74,-205.16 1459.52,-193.93"/>
<polygon fill="blue" stroke="blue" points="1460.38,-190.54 1449.82,-191.45 1458.64,-197.32 1460.38,-190.54"/>
<text text-anchor="middle" x="1649.39" y="-217.8" font-family="Times,serif" font-size="14.00">subject</text>
</g>
<!-- predicate -->
<g id="node10" class="node">
<title>predicate</title>
<ellipse fill="none" stroke="blue" cx="1569.39" cy="-178" rx="77.99" ry="18"/>
<text text-anchor="middle" x="1569.39" y="-174.3" font-family="Times,serif" font-size="14.00">predicate type</text>
</g>
<!-- disease or phenotypic feature to location association&#45;&gt;predicate -->
<g id="edge9" class="edge">
<title>disease or phenotypic feature to location association&#45;&gt;predicate</title>
<path fill="none" stroke="blue" d="M1864.05,-250.23C1821.65,-244.97 1775.46,-238 1733.39,-229 1694.62,-220.7 1651.79,-207.5 1619.62,-196.75"/>
<polygon fill="blue" stroke="blue" points="1620.59,-193.38 1610,-193.49 1618.35,-200.01 1620.59,-193.38"/>
<text text-anchor="middle" x="1767.39" y="-217.8" font-family="Times,serif" font-size="14.00">predicate</text>
</g>
<!-- negated -->
<g id="node11" class="node">
<title>negated</title>
<ellipse fill="none" stroke="blue" cx="1712.39" cy="-178" rx="46.59" ry="18"/>
<text text-anchor="middle" x="1712.39" y="-174.3" font-family="Times,serif" font-size="14.00">boolean</text>
</g>
<!-- disease or phenotypic feature to location association&#45;&gt;negated -->
<g id="edge10" class="edge">
<title>disease or phenotypic feature to location association&#45;&gt;negated</title>
<path fill="none" stroke="blue" d="M1927.77,-247.92C1903.04,-242.55 1875.97,-236.09 1851.39,-229 1817.82,-219.31 1780.6,-205.77 1753.14,-195.22"/>
<polygon fill="blue" stroke="blue" points="1754.07,-191.83 1743.48,-191.48 1751.55,-198.36 1754.07,-191.83"/>
<text text-anchor="middle" x="1880.39" y="-217.8" font-family="Times,serif" font-size="14.00">negated</text>
</g>
<!-- qualifiers -->
<g id="node12" class="node">
<title>qualifiers</title>
<ellipse fill="none" stroke="blue" cx="1853.39" cy="-178" rx="76.89" ry="18"/>
<text text-anchor="middle" x="1853.39" y="-174.3" font-family="Times,serif" font-size="14.00">ontology class</text>
</g>
<!-- disease or phenotypic feature to location association&#45;&gt;qualifiers -->
<g id="edge11" class="edge">
<title>disease or phenotypic feature to location association&#45;&gt;qualifiers</title>
<path fill="none" stroke="blue" d="M1974.76,-247.03C1963.38,-241.45 1950.78,-235.11 1939.39,-229 1922.47,-219.92 1904.03,-209.3 1888.58,-200.19"/>
<polygon fill="blue" stroke="blue" points="1890.24,-197.11 1879.86,-195.02 1886.67,-203.13 1890.24,-197.11"/>
<text text-anchor="middle" x="1972.89" y="-217.8" font-family="Times,serif" font-size="14.00">qualifiers</text>
</g>
<!-- publications -->
<g id="node13" class="node">
<title>publications</title>
<ellipse fill="none" stroke="blue" cx="2010.39" cy="-178" rx="62.29" ry="18"/>
<text text-anchor="middle" x="2010.39" y="-174.3" font-family="Times,serif" font-size="14.00">publication</text>
</g>
<!-- disease or phenotypic feature to location association&#45;&gt;publications -->
<g id="edge12" class="edge">
<title>disease or phenotypic feature to location association&#45;&gt;publications</title>
<path fill="none" stroke="blue" d="M2010.39,-246.8C2010.39,-235.16 2010.39,-219.55 2010.39,-206.24"/>
<polygon fill="blue" stroke="blue" points="2013.89,-206.18 2010.39,-196.18 2006.89,-206.18 2013.89,-206.18"/>
<text text-anchor="middle" x="2054.39" y="-217.8" font-family="Times,serif" font-size="14.00">publications</text>
</g>
<!-- has evidence -->
<g id="node14" class="node">
<title>has evidence</title>
<ellipse fill="none" stroke="blue" cx="2166.39" cy="-178" rx="75.29" ry="18"/>
<text text-anchor="middle" x="2166.39" y="-174.3" font-family="Times,serif" font-size="14.00">evidence type</text>
</g>
<!-- disease or phenotypic feature to location association&#45;&gt;has evidence -->
<g id="edge13" class="edge">
<title>disease or phenotypic feature to location association&#45;&gt;has evidence</title>
<path fill="none" stroke="blue" d="M2062.73,-247.2C2076.02,-242.09 2090.04,-235.97 2102.39,-229 2115.74,-221.48 2129.28,-211.34 2140.45,-202.15"/>
<polygon fill="blue" stroke="blue" points="2142.74,-204.8 2148.13,-195.69 2138.23,-199.45 2142.74,-204.8"/>
<text text-anchor="middle" x="2171.89" y="-217.8" font-family="Times,serif" font-size="14.00">has evidence</text>
</g>
<!-- knowledge source -->
<g id="node15" class="node">
<title>knowledge source</title>
<ellipse fill="none" stroke="blue" cx="2368.39" cy="-178" rx="108.58" ry="18"/>
<text text-anchor="middle" x="2368.39" y="-174.3" font-family="Times,serif" font-size="14.00">information resource</text>
</g>
<!-- disease or phenotypic feature to location association&#45;&gt;knowledge source -->
<g id="edge14" class="edge">
<title>disease or phenotypic feature to location association&#45;&gt;knowledge source</title>
<path fill="none" stroke="blue" d="M2123.89,-248.83C2155.96,-243.59 2190.74,-236.97 2222.39,-229 2255.05,-220.77 2290.83,-208.57 2318.8,-198.28"/>
<polygon fill="blue" stroke="blue" points="2320.19,-201.5 2328.34,-194.73 2317.75,-194.94 2320.19,-201.5"/>
<text text-anchor="middle" x="2335.89" y="-217.8" font-family="Times,serif" font-size="14.00">knowledge source</text>
</g>
<!-- primary knowledge source -->
<g id="node16" class="node">
<title>primary knowledge source</title>
<ellipse fill="none" stroke="blue" cx="2603.39" cy="-178" rx="108.58" ry="18"/>
<text text-anchor="middle" x="2603.39" y="-174.3" font-family="Times,serif" font-size="14.00">information resource</text>
</g>
<!-- disease or phenotypic feature to location association&#45;&gt;primary knowledge source -->
<g id="edge15" class="edge">
<title>disease or phenotypic feature to location association&#45;&gt;primary knowledge source</title>
<path fill="none" stroke="blue" d="M2201.8,-253.09C2266.43,-247.79 2338.8,-240.08 2404.39,-229 2451.67,-221.01 2504.24,-207.6 2543.47,-196.68"/>
<polygon fill="blue" stroke="blue" points="2544.47,-200.04 2553.15,-193.96 2542.58,-193.3 2544.47,-200.04"/>
<text text-anchor="middle" x="2571.39" y="-217.8" font-family="Times,serif" font-size="14.00">primary knowledge source</text>
</g>
<!-- aggregator knowledge source -->
<g id="node17" class="node">
<title>aggregator knowledge source</title>
<ellipse fill="none" stroke="blue" cx="2838.39" cy="-178" rx="108.58" ry="18"/>
<text text-anchor="middle" x="2838.39" y="-174.3" font-family="Times,serif" font-size="14.00">information resource</text>
</g>
<!-- disease or phenotypic feature to location association&#45;&gt;aggregator knowledge source -->
<g id="edge16" class="edge">
<title>disease or phenotypic feature to location association&#45;&gt;aggregator knowledge source</title>
<path fill="none" stroke="blue" d="M2188.23,-252.09C2217.03,-250.29 2246.54,-248.53 2274.39,-247 2450.31,-237.34 2496.67,-258.35 2670.39,-229 2710.1,-222.29 2753.64,-209.16 2786.44,-198.04"/>
<polygon fill="blue" stroke="blue" points="2787.94,-201.22 2796.26,-194.66 2785.67,-194.61 2787.94,-201.22"/>
<text text-anchor="middle" x="2837.89" y="-217.8" font-family="Times,serif" font-size="14.00">aggregator knowledge source</text>
</g>
<!-- timepoint -->
<g id="node18" class="node">
<title>timepoint</title>
<ellipse fill="none" stroke="blue" cx="3020.39" cy="-178" rx="55.49" ry="18"/>
<text text-anchor="middle" x="3020.39" y="-174.3" font-family="Times,serif" font-size="14.00">time type</text>
</g>
<!-- disease or phenotypic feature to location association&#45;&gt;timepoint -->
<g id="edge17" class="edge">
<title>disease or phenotypic feature to location association&#45;&gt;timepoint</title>
<path fill="none" stroke="blue" d="M2184.66,-251.85C2214.58,-250.03 2245.37,-248.32 2274.39,-247 2349.23,-243.59 2877.21,-252.34 2948.39,-229 2965.6,-223.36 2982.36,-212.17 2995.37,-201.8"/>
<polygon fill="blue" stroke="blue" points="2997.89,-204.25 3003.35,-195.17 2993.42,-198.87 2997.89,-204.25"/>
<text text-anchor="middle" x="3013.39" y="-217.8" font-family="Times,serif" font-size="14.00">timepoint</text>
</g>
<!-- original subject -->
<g id="node19" class="node">
<title>original subject</title>
<ellipse fill="none" stroke="blue" cx="3132.39" cy="-178" rx="38.19" ry="18"/>
<text text-anchor="middle" x="3132.39" y="-174.3" font-family="Times,serif" font-size="14.00">string</text>
</g>
<!-- disease or phenotypic feature to location association&#45;&gt;original subject -->
<g id="edge18" class="edge">
<title>disease or phenotypic feature to location association&#45;&gt;original subject</title>
<path fill="none" stroke="blue" d="M2183.94,-251.8C2214.09,-249.98 2245.14,-248.28 2274.39,-247 2360.78,-243.22 2969.56,-253.8 3052.39,-229 3072.07,-223.11 3091.66,-210.99 3106.54,-200.17"/>
<polygon fill="blue" stroke="blue" points="3108.84,-202.81 3114.71,-193.99 3104.62,-197.23 3108.84,-202.81"/>
<text text-anchor="middle" x="3141.39" y="-217.8" font-family="Times,serif" font-size="14.00">original subject</text>
</g>
<!-- original predicate -->
<g id="node20" class="node">
<title>original predicate</title>
<ellipse fill="none" stroke="blue" cx="3246.39" cy="-178" rx="57.39" ry="18"/>
<text text-anchor="middle" x="3246.39" y="-174.3" font-family="Times,serif" font-size="14.00">uriorcurie</text>
</g>
<!-- disease or phenotypic feature to location association&#45;&gt;original predicate -->
<g id="edge19" class="edge">
<title>disease or phenotypic feature to location association&#45;&gt;original predicate</title>
<path fill="none" stroke="blue" d="M2183.23,-251.75C2213.6,-249.92 2244.91,-248.23 2274.39,-247 2325.86,-244.84 3154.55,-250.41 3201.39,-229 3213.06,-223.67 3223,-213.71 3230.54,-204.07"/>
<polygon fill="blue" stroke="blue" points="3233.5,-205.96 3236.54,-195.81 3227.84,-201.85 3233.5,-205.96"/>
<text text-anchor="middle" x="3285.89" y="-217.8" font-family="Times,serif" font-size="14.00">original predicate</text>
</g>
<!-- original object -->
<g id="node21" class="node">
<title>original object</title>
<ellipse fill="none" stroke="blue" cx="3378.39" cy="-178" rx="38.19" ry="18"/>
<text text-anchor="middle" x="3378.39" y="-174.3" font-family="Times,serif" font-size="14.00">string</text>
</g>
<!-- disease or phenotypic feature to location association&#45;&gt;original object -->
<g id="edge20" class="edge">
<title>disease or phenotypic feature to location association&#45;&gt;original object</title>
<path fill="none" stroke="blue" d="M2182.52,-251.73C2213.11,-249.89 2244.68,-248.2 2274.39,-247 2304.35,-245.79 3328.03,-244.97 3353.39,-229 3361.84,-223.68 3367.53,-214.57 3371.32,-205.57"/>
<polygon fill="blue" stroke="blue" points="3374.66,-206.63 3374.73,-196.04 3368.07,-204.28 3374.66,-206.63"/>
<text text-anchor="middle" x="3418.89" y="-217.8" font-family="Times,serif" font-size="14.00">original object</text>
</g>
<!-- type -->
<g id="node22" class="node">
<title>type</title>
<ellipse fill="none" stroke="black" cx="3466.39" cy="-178" rx="31.4" ry="18"/>
<text text-anchor="middle" x="3466.39" y="-174.3" font-family="Times,serif" font-size="14.00">type</text>
</g>
<!-- disease or phenotypic feature to location association&#45;&gt;type -->
<g id="edge21" class="edge">
<title>disease or phenotypic feature to location association&#45;&gt;type</title>
<path fill="none" stroke="blue" d="M2182.52,-251.69C2213.11,-249.85 2244.68,-248.18 2274.39,-247 2291.05,-246.34 3462.7,-240.87 3474.39,-229 3480.51,-222.79 3480.69,-213.88 3478.61,-205.31"/>
<polygon fill="blue" stroke="blue" points="3481.84,-203.94 3475.35,-195.57 3475.21,-206.16 3481.84,-203.94"/>
<text text-anchor="middle" x="3496.39" y="-217.8" font-family="Times,serif" font-size="14.00">type</text>
</g>
<!-- category -->
<g id="node24" class="node">
<title>category</title>
<ellipse fill="none" stroke="black" cx="3567.39" cy="-178" rx="51.19" ry="18"/>
<text text-anchor="middle" x="3567.39" y="-174.3" font-family="Times,serif" font-size="14.00">category</text>
</g>
<!-- disease or phenotypic feature to location association&#45;&gt;category -->
<g id="edge22" class="edge">
<title>disease or phenotypic feature to location association&#45;&gt;category</title>
<path fill="none" stroke="blue" d="M2182.16,-251.7C2212.86,-249.85 2244.56,-248.18 2274.39,-247 2308.87,-245.64 3484.55,-242.28 3516.39,-229 3529.22,-223.65 3540.59,-213.41 3549.32,-203.58"/>
<polygon fill="blue" stroke="blue" points="3552.02,-205.81 3555.73,-195.88 3546.64,-201.32 3552.02,-205.81"/>
<text text-anchor="middle" x="3569.89" y="-217.8" font-family="Times,serif" font-size="14.00">category</text>
</g>
<!-- object -->
<g id="node26" class="node">
<title>object</title>
<ellipse fill="none" stroke="black" cx="1470.39" cy="-91" rx="38.99" ry="18"/>
<text text-anchor="middle" x="1470.39" y="-87.3" font-family="Times,serif" font-size="14.00">object</text>
</g>
<!-- disease or phenotypic feature to location association&#45;&gt;object -->
<g id="edge23" class="edge">
<title>disease or phenotypic feature to location association&#45;&gt;object</title>
<path fill="none" stroke="blue" d="M2182.16,-251.67C2212.86,-249.83 2244.56,-248.16 2274.39,-247 2311.34,-245.56 3572.91,-246.67 3605.39,-229 3633.67,-213.62 3649.79,-183.12 3627.39,-160 3589.47,-120.86 1837.79,-96.68 1519.67,-92.61"/>
<polygon fill="blue" stroke="blue" points="1519.44,-89.11 1509.39,-92.48 1519.35,-96.11 1519.44,-89.11"/>
<text text-anchor="middle" x="3659.39" y="-174.3" font-family="Times,serif" font-size="14.00">object</text>
</g>
<!-- subject&#45;&gt;object -->
<g id="edge24" class="edge">
<title>subject&#45;&gt;object</title>
<path fill="none" stroke="black" d="M1416.63,-160.21C1426.49,-147.71 1440.08,-130.45 1451.14,-116.43"/>
<polygon fill="black" stroke="black" points="1454.2,-118.2 1457.64,-108.18 1448.7,-113.87 1454.2,-118.2"/>
<text text-anchor="middle" x="1469.39" y="-130.8" font-family="Times,serif" font-size="14.00">relation</text>
</g>
<!-- relation -->
<g id="node28" class="node">
<title>relation</title>
<ellipse fill="none" stroke="black" cx="1415.39" cy="-18" rx="46.59" ry="18"/>
<text text-anchor="middle" x="1415.39" y="-14.3" font-family="Times,serif" font-size="14.00">relation</text>
</g>
<!-- subject&#45;&gt;relation -->
<g id="edge25" class="edge">
<title>subject&#45;&gt;relation</title>
<path fill="none" stroke="black" stroke-dasharray="1,5" d="M1404.7,-159.79C1406.78,-132.48 1410.84,-78.99 1413.31,-46.38"/>
<polygon fill="black" stroke="black" points="1416.82,-46.42 1414.09,-36.19 1409.84,-45.89 1416.82,-46.42"/>
</g>
<!-- association_type -->
<g id="node23" class="node">
<title>association_type</title>
<ellipse fill="none" stroke="blue" cx="2321.39" cy="-265" rx="38.19" ry="18"/>
<text text-anchor="middle" x="2321.39" y="-261.3" font-family="Times,serif" font-size="14.00">string</text>
</g>
<!-- association_category -->
<g id="node25" class="node">
<title>association_category</title>
<ellipse fill="none" stroke="blue" cx="2452.39" cy="-265" rx="74.99" ry="18"/>
<text text-anchor="middle" x="2452.39" y="-261.3" font-family="Times,serif" font-size="14.00">category type</text>
</g>
<!-- object&#45;&gt;relation -->
<g id="edge26" class="edge">
<title>object&#45;&gt;relation</title>
<path fill="none" stroke="black" stroke-dasharray="1,5" d="M1457.91,-73.89C1450.98,-64.94 1442.21,-53.62 1434.44,-43.58"/>
<polygon fill="black" stroke="black" points="1437.1,-41.3 1428.21,-35.54 1431.56,-45.59 1437.1,-41.3"/>
</g>
<!-- disease or phenotypic feature to location association_object -->
<g id="node27" class="node">
<title>disease or phenotypic feature to location association_object</title>
<ellipse fill="none" stroke="blue" cx="2636.39" cy="-265" rx="91.78" ry="18"/>
<text text-anchor="middle" x="2636.39" y="-261.3" font-family="Times,serif" font-size="14.00">anatomical entity</text>
</g>
</g>
</svg>
