<?xml version="1.0" encoding="UTF-8" standalone="no"?>
<!DOCTYPE svg PUBLIC "-//W3C//DTD SVG 1.1//EN"
 "http://www.w3.org/Graphics/SVG/1.1/DTD/svg11.dtd">
<!-- Generated by graphviz version 2.40.1 (20161225.0304)
 -->
<!-- Title: %3 Pages: 1 -->
<svg width="1938pt" height="291pt"
 viewBox="0.00 0.00 1938.05 291.00" xmlns="http://www.w3.org/2000/svg" xmlns:xlink="http://www.w3.org/1999/xlink">
<g id="graph0" class="graph" transform="scale(1 1) rotate(0) translate(4 287)">
<title>%3</title>
<polygon fill="#ffffff" stroke="transparent" points="-4,4 -4,-287 1934.0456,-287 1934.0456,4 -4,4"/>
<!-- disease to exposure association -->
<g id="node1" class="node">
<title>disease to exposure association</title>
<ellipse fill="none" stroke="#000000" cx="1096.0456" cy="-265" rx="120.7786" ry="18"/>
<text text-anchor="middle" x="1096.0456" y="-261.3" font-family="Times,serif" font-size="14.00" fill="#000000">disease to exposure association</text>
</g>
<!-- association -->
<g id="node2" class="node">
<title>association</title>
<ellipse fill="none" stroke="#000000" cx="50.0456" cy="-178" rx="50.0912" ry="18"/>
<text text-anchor="middle" x="50.0456" y="-174.3" font-family="Times,serif" font-size="14.00" fill="#000000">association</text>
</g>
<!-- disease to exposure association&#45;&gt;association -->
<g id="edge1" class="edge">
<title>disease to exposure association&#45;&gt;association</title>
<path fill="none" stroke="#000000" d="M977.4545,-261.5036C835.9966,-256.7552 592.4605,-246.7526 384.0456,-229 261.3906,-218.5524 229.4971,-221.3929 109.0456,-196 104.9785,-195.1426 100.7884,-194.1314 96.6062,-193.0328"/>
<polygon fill="#000000" stroke="#000000" points="97.4955,-189.6474 86.9235,-190.342 95.6212,-196.3918 97.4955,-189.6474"/>
<text text-anchor="middle" x="395.0456" y="-217.8" font-family="Times,serif" font-size="14.00" fill="#000000">is_a</text>
</g>
<!-- disease to thing association mixin -->
<g id="node3" class="node">
<title>disease to thing association mixin</title>
<ellipse fill="none" stroke="#000000" cx="249.0456" cy="-178" rx="130.777" ry="18"/>
<text text-anchor="middle" x="249.0456" y="-174.3" font-family="Times,serif" font-size="14.00" fill="#000000">disease to thing association mixin</text>
</g>
<!-- disease to exposure association&#45;&gt;disease to thing association mixin -->
<g id="edge2" class="edge">
<title>disease to exposure association&#45;&gt;disease to thing association mixin</title>
<path fill="none" stroke="#000000" d="M975.995,-262.6828C855.2966,-259.1959 664.1094,-250.515 500.0456,-229 440.2365,-221.1568 373.3338,-207.3053 323.6494,-196.0155"/>
<polygon fill="#000000" stroke="#000000" points="324.1627,-192.5425 313.6337,-193.7214 322.5998,-199.3658 324.1627,-192.5425"/>
<text text-anchor="middle" x="512.0456" y="-217.8" font-family="Times,serif" font-size="14.00" fill="#000000">uses</text>
</g>
<!-- id -->
<g id="node4" class="node">
<title>id</title>
<ellipse fill="none" stroke="#0000ff" cx="428.0456" cy="-178" rx="30.5947" ry="18"/>
<text text-anchor="middle" x="428.0456" y="-174.3" font-family="Times,serif" font-size="14.00" fill="#000000">string</text>
</g>
<!-- disease to exposure association&#45;&gt;id -->
<g id="edge3" class="edge">
<title>disease to exposure association&#45;&gt;id</title>
<path fill="none" stroke="#0000ff" d="M977.3706,-261.5609C877.9709,-257.4151 732.6057,-248.3994 607.0456,-229 544.2952,-219.3049 528.156,-216.4534 468.0456,-196 465.7949,-195.2342 463.4983,-194.3875 461.2005,-193.491"/>
<polygon fill="#0000ff" stroke="#0000ff" points="462.439,-190.2154 451.8617,-189.605 459.7497,-196.6782 462.439,-190.2154"/>
<text text-anchor="middle" x="612.5456" y="-217.8" font-family="Times,serif" font-size="14.00" fill="#000000">id</text>
</g>
<!-- iri -->
<g id="node5" class="node">
<title>iri</title>
<ellipse fill="none" stroke="#0000ff" cx="513.0456" cy="-178" rx="36.2938" ry="18"/>
<text text-anchor="middle" x="513.0456" y="-174.3" font-family="Times,serif" font-size="14.00" fill="#000000">iri type</text>
</g>
<!-- disease to exposure association&#45;&gt;iri -->
<g id="edge4" class="edge">
<title>disease to exposure association&#45;&gt;iri</title>
<path fill="none" stroke="#0000ff" d="M981.3954,-259.2421C900.8865,-254.0945 790.9035,-244.8426 695.0456,-229 633.6796,-218.858 618.3637,-214.7084 559.0456,-196 556.2853,-195.1294 553.4533,-194.1755 550.6165,-193.1755"/>
<polygon fill="#0000ff" stroke="#0000ff" points="551.6435,-189.8239 541.0501,-189.6511 549.2236,-196.3923 551.6435,-189.8239"/>
<text text-anchor="middle" x="701.5456" y="-217.8" font-family="Times,serif" font-size="14.00" fill="#000000">iri</text>
</g>
<!-- name -->
<g id="node6" class="node">
<title>name</title>
<ellipse fill="none" stroke="#0000ff" cx="613.0456" cy="-178" rx="45.4919" ry="18"/>
<text text-anchor="middle" x="613.0456" y="-174.3" font-family="Times,serif" font-size="14.00" fill="#000000">label type</text>
</g>
<!-- disease to exposure association&#45;&gt;name -->
<g id="edge5" class="edge">
<title>disease to exposure association&#45;&gt;name</title>
<path fill="none" stroke="#0000ff" d="M981.7848,-258.9944C916.7916,-254.0111 834.2098,-245.0295 762.0456,-229 724.6366,-220.6905 683.5281,-206.1929 653.9839,-194.7737"/>
<polygon fill="#0000ff" stroke="#0000ff" points="655.0177,-191.4198 644.4299,-191.0325 652.4652,-197.9379 655.0177,-191.4198"/>
<text text-anchor="middle" x="777.5456" y="-217.8" font-family="Times,serif" font-size="14.00" fill="#000000">name</text>
</g>
<!-- description -->
<g id="node7" class="node">
<title>description</title>
<ellipse fill="none" stroke="#0000ff" cx="734.0456" cy="-178" rx="57.6901" ry="18"/>
<text text-anchor="middle" x="734.0456" y="-174.3" font-family="Times,serif" font-size="14.00" fill="#000000">narrative text</text>
</g>
<!-- disease to exposure association&#45;&gt;description -->
<g id="edge6" class="edge">
<title>disease to exposure association&#45;&gt;description</title>
<path fill="none" stroke="#0000ff" d="M984.615,-257.9838C937.3832,-252.8953 882.2333,-244.1221 834.0456,-229 811.1947,-221.8291 787.2386,-209.7904 768.5041,-199.2099"/>
<polygon fill="#0000ff" stroke="#0000ff" points="770.165,-196.1274 759.7543,-194.1607 766.6663,-202.1903 770.165,-196.1274"/>
<text text-anchor="middle" x="864.5456" y="-217.8" font-family="Times,serif" font-size="14.00" fill="#000000">description</text>
</g>
<!-- source -->
<g id="node8" class="node">
<title>source</title>
<ellipse fill="none" stroke="#0000ff" cx="855.0456" cy="-178" rx="45.4919" ry="18"/>
<text text-anchor="middle" x="855.0456" y="-174.3" font-family="Times,serif" font-size="14.00" fill="#000000">label type</text>
</g>
<!-- disease to exposure association&#45;&gt;source -->
<g id="edge7" class="edge">
<title>disease to exposure association&#45;&gt;source</title>
<path fill="none" stroke="#0000ff" d="M1003.0016,-253.3792C976.4185,-248.0174 947.9276,-240.2412 923.0456,-229 907.7482,-222.089 892.6197,-211.2504 880.5301,-201.3391"/>
<polygon fill="#0000ff" stroke="#0000ff" points="882.5724,-198.482 872.6812,-194.6852 878.0458,-203.8215 882.5724,-198.482"/>
<text text-anchor="middle" x="941.0456" y="-217.8" font-family="Times,serif" font-size="14.00" fill="#000000">source</text>
</g>
<!-- provided by -->
<g id="node9" class="node">
<title>provided by</title>
<ellipse fill="none" stroke="#0000ff" cx="948.0456" cy="-178" rx="29.795" ry="18"/>
<text text-anchor="middle" x="948.0456" y="-174.3" font-family="Times,serif" font-size="14.00" fill="#000000">agent</text>
</g>
<!-- disease to exposure association&#45;&gt;provided by -->
<g id="edge8" class="edge">
<title>disease to exposure association&#45;&gt;provided by</title>
<path fill="none" stroke="#0000ff" d="M1028.4184,-250.0202C1005.3014,-243.8656 983.0065,-236.4432 974.0456,-229 966.6024,-222.8175 961.0601,-213.9611 957.0494,-205.3589"/>
<polygon fill="#0000ff" stroke="#0000ff" points="960.201,-203.8206 953.1523,-195.9107 953.7299,-206.4898 960.201,-203.8206"/>
<text text-anchor="middle" x="1007.0456" y="-217.8" font-family="Times,serif" font-size="14.00" fill="#000000">provided by</text>
</g>
<!-- has attribute -->
<g id="node10" class="node">
<title>has attribute</title>
<ellipse fill="none" stroke="#0000ff" cx="1036.0456" cy="-178" rx="40.0939" ry="18"/>
<text text-anchor="middle" x="1036.0456" y="-174.3" font-family="Times,serif" font-size="14.00" fill="#000000">attribute</text>
</g>
<!-- disease to exposure association&#45;&gt;has attribute -->
<g id="edge9" class="edge">
<title>disease to exposure association&#45;&gt;has attribute</title>
<path fill="none" stroke="#0000ff" d="M1068.2747,-247.1558C1061.877,-241.954 1055.6171,-235.8122 1051.0456,-229 1046.4684,-222.1795 1043.2609,-213.9373 1041.0238,-206.0862"/>
<polygon fill="#0000ff" stroke="#0000ff" points="1044.3701,-205.0342 1038.6084,-196.143 1037.5679,-206.6867 1044.3701,-205.0342"/>
<text text-anchor="middle" x="1084.5456" y="-217.8" font-family="Times,serif" font-size="14.00" fill="#000000">has attribute</text>
</g>
<!-- predicate -->
<g id="node11" class="node">
<title>predicate</title>
<ellipse fill="none" stroke="#0000ff" cx="1155.0456" cy="-178" rx="60.3893" ry="18"/>
<text text-anchor="middle" x="1155.0456" y="-174.3" font-family="Times,serif" font-size="14.00" fill="#000000">predicate type</text>
</g>
<!-- disease to exposure association&#45;&gt;predicate -->
<g id="edge10" class="edge">
<title>disease to exposure association&#45;&gt;predicate</title>
<path fill="none" stroke="#0000ff" d="M1108.2704,-246.9735C1116.6321,-234.6435 1127.853,-218.0975 1137.2085,-204.3021"/>
<polygon fill="#0000ff" stroke="#0000ff" points="1140.3222,-205.9465 1143.0383,-195.7057 1134.5288,-202.0176 1140.3222,-205.9465"/>
<text text-anchor="middle" x="1155.0456" y="-217.8" font-family="Times,serif" font-size="14.00" fill="#000000">predicate</text>
</g>
<!-- relation -->
<g id="node12" class="node">
<title>relation</title>
<ellipse fill="none" stroke="#0000ff" cx="1793.0456" cy="-18" rx="45.4919" ry="18"/>
<text text-anchor="middle" x="1793.0456" y="-14.3" font-family="Times,serif" font-size="14.00" fill="#000000">uriorcurie</text>
</g>
<!-- disease to exposure association&#45;&gt;relation -->
<g id="edge11" class="edge">
<title>disease to exposure association&#45;&gt;relation</title>
<path fill="none" stroke="#0000ff" d="M1144.35,-248.2854C1157.6101,-242.8909 1171.7212,-236.3719 1184.0456,-229 1203.8242,-217.1693 1206.781,-211.2675 1224.0456,-196 1241.473,-180.5884 1241.7398,-171.354 1262.0456,-160 1421.1232,-71.0516 1638.3947,-35.7869 1738.4849,-23.6126"/>
<polygon fill="#0000ff" stroke="#0000ff" points="1739.1451,-27.0589 1748.6632,-22.4055 1738.3206,-20.1076 1739.1451,-27.0589"/>
<text text-anchor="middle" x="1350.0456" y="-130.8" font-family="Times,serif" font-size="14.00" fill="#000000">relation</text>
</g>
<!-- negated -->
<g id="node13" class="node">
<title>negated</title>
<ellipse fill="none" stroke="#0000ff" cx="1309.0456" cy="-178" rx="38.1938" ry="18"/>
<text text-anchor="middle" x="1309.0456" y="-174.3" font-family="Times,serif" font-size="14.00" fill="#000000">boolean</text>
</g>
<!-- disease to exposure association&#45;&gt;negated -->
<g id="edge12" class="edge">
<title>disease to exposure association&#45;&gt;negated</title>
<path fill="none" stroke="#0000ff" d="M1189.0522,-253.3551C1212.1838,-248.0334 1236.2844,-240.2836 1257.0456,-229 1269.0237,-222.4899 1280.1356,-212.4178 1288.9864,-202.9385"/>
<polygon fill="#0000ff" stroke="#0000ff" points="1291.8314,-205.0061 1295.8587,-195.2065 1286.5993,-200.3557 1291.8314,-205.0061"/>
<text text-anchor="middle" x="1298.5456" y="-217.8" font-family="Times,serif" font-size="14.00" fill="#000000">negated</text>
</g>
<!-- qualifiers -->
<g id="node14" class="node">
<title>qualifiers</title>
<ellipse fill="none" stroke="#0000ff" cx="1427.0456" cy="-178" rx="61.99" ry="18"/>
<text text-anchor="middle" x="1427.0456" y="-174.3" font-family="Times,serif" font-size="14.00" fill="#000000">ontology class</text>
</g>
<!-- disease to exposure association&#45;&gt;qualifiers -->
<g id="edge13" class="edge">
<title>disease to exposure association&#45;&gt;qualifiers</title>
<path fill="none" stroke="#0000ff" d="M1183.3525,-252.5085C1241.8217,-243.9196 1310.4896,-233.3151 1324.0456,-229 1347.3539,-221.5805 1371.9575,-209.5724 1391.2714,-199.0716"/>
<polygon fill="#0000ff" stroke="#0000ff" points="1392.9742,-202.1295 1400.0235,-194.2201 1389.5804,-196.0072 1392.9742,-202.1295"/>
<text text-anchor="middle" x="1386.0456" y="-217.8" font-family="Times,serif" font-size="14.00" fill="#000000">qualifiers</text>
</g>
<!-- publications -->
<g id="node15" class="node">
<title>publications</title>
<ellipse fill="none" stroke="#0000ff" cx="1557.0456" cy="-178" rx="50.0912" ry="18"/>
<text text-anchor="middle" x="1557.0456" y="-174.3" font-family="Times,serif" font-size="14.00" fill="#000000">publication</text>
</g>
<!-- disease to exposure association&#45;&gt;publications -->
<g id="edge14" class="edge">
<title>disease to exposure association&#45;&gt;publications</title>
<path fill="none" stroke="#0000ff" d="M1182.7151,-252.3651C1196.8492,-250.4605 1211.3449,-248.6006 1225.0456,-247 1309.7346,-237.1059 1332.8452,-247.65 1416.0456,-229 1450.6965,-221.2327 1488.4559,-207.2617 1516.1717,-195.9041"/>
<polygon fill="#0000ff" stroke="#0000ff" points="1517.6453,-199.0819 1525.5347,-192.0102 1514.9573,-192.6186 1517.6453,-199.0819"/>
<text text-anchor="middle" x="1501.5456" y="-217.8" font-family="Times,serif" font-size="14.00" fill="#000000">publications</text>
</g>
<!-- type -->
<g id="node16" class="node">
<title>type</title>
<ellipse fill="none" stroke="#000000" cx="1652.0456" cy="-178" rx="27" ry="18"/>
<text text-anchor="middle" x="1652.0456" y="-174.3" font-family="Times,serif" font-size="14.00" fill="#000000">type</text>
</g>
<!-- disease to exposure association&#45;&gt;type -->
<g id="edge15" class="edge">
<title>disease to exposure association&#45;&gt;type</title>
<path fill="none" stroke="#0000ff" d="M1180.9314,-252.1551C1195.6173,-250.2193 1210.7553,-248.4042 1225.0456,-247 1364.1602,-233.3298 1402.9763,-261.0143 1539.0456,-229 1568.9276,-221.9694 1600.5877,-206.9426 1622.7695,-195.0118"/>
<polygon fill="#0000ff" stroke="#0000ff" points="1624.5874,-198.0065 1631.6629,-190.1205 1621.214,-191.8729 1624.5874,-198.0065"/>
<text text-anchor="middle" x="1593.0456" y="-217.8" font-family="Times,serif" font-size="14.00" fill="#000000">type</text>
</g>
<!-- category -->
<g id="node18" class="node">
<title>category</title>
<ellipse fill="none" stroke="#000000" cx="1738.0456" cy="-178" rx="40.8928" ry="18"/>
<text text-anchor="middle" x="1738.0456" y="-174.3" font-family="Times,serif" font-size="14.00" fill="#000000">category</text>
</g>
<!-- disease to exposure association&#45;&gt;category -->
<g id="edge16" class="edge">
<title>disease to exposure association&#45;&gt;category</title>
<path fill="none" stroke="#0000ff" d="M1180.5724,-252.0741C1195.3681,-250.1353 1210.6356,-248.3402 1225.0456,-247 1395.1654,-231.1777 1442.0046,-264.8945 1609.0456,-229 1641.615,-222.0013 1676.6514,-207.6755 1701.9794,-195.9843"/>
<polygon fill="#0000ff" stroke="#0000ff" points="1703.627,-199.0772 1711.1859,-191.6532 1700.6472,-192.7431 1703.627,-199.0772"/>
<text text-anchor="middle" x="1680.5456" y="-217.8" font-family="Times,serif" font-size="14.00" fill="#000000">category</text>
</g>
<!-- subject -->
<g id="node20" class="node">
<title>subject</title>
<ellipse fill="none" stroke="#000000" cx="1833.0456" cy="-178" rx="35.9954" ry="18"/>
<text text-anchor="middle" x="1833.0456" y="-174.3" font-family="Times,serif" font-size="14.00" fill="#000000">subject</text>
</g>
<!-- disease to exposure association&#45;&gt;subject -->
<g id="edge17" class="edge">
<title>disease to exposure association&#45;&gt;subject</title>
<path fill="none" stroke="#0000ff" d="M1180.2151,-252.0027C1195.12,-250.0592 1210.5167,-248.281 1225.0456,-247 1332.0383,-237.5662 1603.0495,-251.6335 1708.0456,-229 1740.004,-222.1109 1774.2458,-207.5884 1798.7951,-195.7961"/>
<polygon fill="#0000ff" stroke="#0000ff" points="1800.5925,-198.813 1808.031,-191.2685 1797.5113,-192.5275 1800.5925,-198.813"/>
<text text-anchor="middle" x="1773.5456" y="-217.8" font-family="Times,serif" font-size="14.00" fill="#000000">subject</text>
</g>
<!-- object -->
<g id="node22" class="node">
<title>object</title>
<ellipse fill="none" stroke="#000000" cx="1853.0456" cy="-91" rx="32.4942" ry="18"/>
<text text-anchor="middle" x="1853.0456" y="-87.3" font-family="Times,serif" font-size="14.00" fill="#000000">object</text>
</g>
<!-- disease to exposure association&#45;&gt;object -->
<g id="edge18" class="edge">
<title>disease to exposure association&#45;&gt;object</title>
<path fill="none" stroke="#0000ff" d="M1179.8625,-251.9771C1194.8758,-250.0235 1210.4004,-248.2486 1225.0456,-247 1351.7599,-236.197 1672.6434,-255.4071 1797.0456,-229 1835.0713,-220.9282 1852.9644,-225.6993 1878.0456,-196 1898.1289,-172.2188 1902.154,-155.6753 1890.0456,-127 1887.823,-121.7365 1884.4129,-116.862 1880.5445,-112.5091"/>
<polygon fill="#0000ff" stroke="#0000ff" points="1882.8081,-109.8246 1873.2441,-105.2661 1877.878,-114.7939 1882.8081,-109.8246"/>
<text text-anchor="middle" x="1913.0456" y="-174.3" font-family="Times,serif" font-size="14.00" fill="#000000">object</text>
</g>
<!-- association_type -->
<g id="node17" class="node">
<title>association_type</title>
<ellipse fill="none" stroke="#0000ff" cx="1265.0456" cy="-265" rx="30.5947" ry="18"/>
<text text-anchor="middle" x="1265.0456" y="-261.3" font-family="Times,serif" font-size="14.00" fill="#000000">string</text>
</g>
<!-- association_category -->
<g id="node19" class="node">
<title>association_category</title>
<ellipse fill="none" stroke="#0000ff" cx="1364.0456" cy="-265" rx="50.0912" ry="18"/>
<text text-anchor="middle" x="1364.0456" y="-261.3" font-family="Times,serif" font-size="14.00" fill="#000000">association</text>
</g>
<!-- subject&#45;&gt;relation -->
<g id="edge20" class="edge">
<title>subject&#45;&gt;relation</title>
<path fill="none" stroke="#000000" stroke-dasharray="1,5" d="M1827.072,-159.9654C1822.6032,-146.1164 1816.5177,-126.4678 1812.0456,-109 1806.6917,-88.0882 1801.7459,-64.1877 1798.2431,-46.1297"/>
<polygon fill="#000000" stroke="#000000" points="1801.6682,-45.4058 1796.3553,-36.2393 1794.7923,-46.7182 1801.6682,-45.4058"/>
</g>
<!-- subject&#45;&gt;object -->
<g id="edge19" class="edge">
<title>subject&#45;&gt;object</title>
<path fill="none" stroke="#000000" d="M1837.1896,-159.9735C1839.9248,-148.0751 1843.5626,-132.2508 1846.6638,-118.7606"/>
<polygon fill="#000000" stroke="#000000" points="1850.0774,-119.5333 1848.9069,-109.0034 1843.2553,-117.965 1850.0774,-119.5333"/>
<text text-anchor="middle" x="1865.0456" y="-130.8" font-family="Times,serif" font-size="14.00" fill="#000000">relation</text>
</g>
<!-- disease to exposure association_subject -->
<g id="node21" class="node">
<title>disease to exposure association_subject</title>
<ellipse fill="none" stroke="#0000ff" cx="1468.0456" cy="-265" rx="36.2938" ry="18"/>
<text text-anchor="middle" x="1468.0456" y="-261.3" font-family="Times,serif" font-size="14.00" fill="#000000">disease</text>
</g>
<!-- object&#45;&gt;relation -->
<g id="edge21" class="edge">
<title>object&#45;&gt;relation</title>
<path fill="none" stroke="#000000" stroke-dasharray="1,5" d="M1839.4306,-74.4352C1831.8462,-65.2075 1822.2464,-53.5276 1813.7502,-43.1906"/>
<polygon fill="#000000" stroke="#000000" points="1816.2862,-40.764 1807.2327,-35.261 1810.8784,-45.2088 1816.2862,-40.764"/>
</g>
<!-- disease to exposure association_object -->
<g id="node23" class="node">
<title>disease to exposure association_object</title>
<ellipse fill="none" stroke="#0000ff" cx="1586.0456" cy="-265" rx="63.8893" ry="18"/>
<text text-anchor="middle" x="1586.0456" y="-261.3" font-family="Times,serif" font-size="14.00" fill="#000000">exposure event</text>
</g>
</g>
</svg>
