<?xml version="1.0" encoding="UTF-8" standalone="no"?>
<!DOCTYPE svg PUBLIC "-//W3C//DTD SVG 1.1//EN"
 "http://www.w3.org/Graphics/SVG/1.1/DTD/svg11.dtd">
<!-- Generated by graphviz version 2.40.1 (20161225.0304)
 -->
<!-- Title: %3 Pages: 1 -->
<svg width="1298pt" height="291pt"
 viewBox="0.00 0.00 1297.74 291.00" xmlns="http://www.w3.org/2000/svg" xmlns:xlink="http://www.w3.org/1999/xlink">
<g id="graph0" class="graph" transform="scale(1 1) rotate(0) translate(4 287)">
<title>%3</title>
<polygon fill="#ffffff" stroke="transparent" points="-4,4 -4,-287 1293.7364,-287 1293.7364,4 -4,4"/>
<!-- disease to exposure association -->
<g id="node1" class="node">
<title>disease to exposure association</title>
<ellipse fill="none" stroke="#000000" cx="610.2405" cy="-265" rx="120.7786" ry="18"/>
<text text-anchor="middle" x="610.2405" y="-261.3" font-family="Times,serif" font-size="14.00" fill="#000000">disease to exposure association</text>
</g>
<!-- disease to thing association -->
<g id="node2" class="node">
<title>disease to thing association</title>
<ellipse fill="none" stroke="#000000" cx="107.2405" cy="-178" rx="107.4815" ry="18"/>
<text text-anchor="middle" x="107.2405" y="-174.3" font-family="Times,serif" font-size="14.00" fill="#000000">disease to thing association</text>
</g>
<!-- disease to exposure association&#45;&gt;disease to thing association -->
<g id="edge1" class="edge">
<title>disease to exposure association&#45;&gt;disease to thing association</title>
<path fill="none" stroke="#000000" d="M494.713,-259.6558C394.8177,-254.1276 258.4845,-244.1523 206.2405,-229 184.261,-222.6253 161.442,-211.2424 143.2586,-200.8454"/>
<polygon fill="#000000" stroke="#000000" points="144.5975,-197.573 134.2015,-195.5301 141.0545,-203.6101 144.5975,-197.573"/>
<text text-anchor="middle" x="217.2405" y="-217.8" font-family="Times,serif" font-size="14.00" fill="#000000">is_a</text>
</g>
<!-- subject -->
<g id="node3" class="node">
<title>subject</title>
<ellipse fill="none" stroke="#000000" cx="317.2405" cy="-178" rx="35.9954" ry="18"/>
<text text-anchor="middle" x="317.2405" y="-174.3" font-family="Times,serif" font-size="14.00" fill="#000000">subject</text>
</g>
<!-- disease to exposure association&#45;&gt;subject -->
<g id="edge2" class="edge">
<title>disease to exposure association&#45;&gt;subject</title>
<path fill="none" stroke="#0000ff" d="M504.3055,-256.3236C432.996,-249.5948 349.6122,-239.6463 336.2405,-229 329.068,-223.2894 324.6031,-214.581 321.8237,-205.9677"/>
<polygon fill="#0000ff" stroke="#0000ff" points="325.1613,-204.8938 319.2739,-196.0854 318.3833,-206.6427 325.1613,-204.8938"/>
<text text-anchor="middle" x="355.7405" y="-217.8" font-family="Times,serif" font-size="14.00" fill="#000000">subject</text>
</g>
<!-- relation -->
<g id="node5" class="node">
<title>relation</title>
<ellipse fill="none" stroke="#0000ff" cx="299.2405" cy="-18" rx="45.4919" ry="18"/>
<text text-anchor="middle" x="299.2405" y="-14.3" font-family="Times,serif" font-size="14.00" fill="#000000">uriorcurie</text>
</g>
<!-- disease to exposure association&#45;&gt;relation -->
<g id="edge3" class="edge">
<title>disease to exposure association&#45;&gt;relation</title>
<path fill="none" stroke="#0000ff" d="M502.3523,-256.8027C434.4561,-250.6368 353.7346,-241.1683 321.2405,-229 296.6519,-219.7921 285.8382,-218.4608 272.2405,-196 243.562,-148.6285 267.5098,-81.5719 284.9781,-44.7655"/>
<polygon fill="#0000ff" stroke="#0000ff" points="288.1848,-46.1759 289.4637,-35.6585 281.9052,-43.0829 288.1848,-46.1759"/>
<text text-anchor="middle" x="281.2405" y="-130.8" font-family="Times,serif" font-size="14.00" fill="#000000">relation</text>
</g>
<!-- object -->
<g id="node6" class="node">
<title>object</title>
<ellipse fill="none" stroke="#000000" cx="359.2405" cy="-91" rx="32.4942" ry="18"/>
<text text-anchor="middle" x="359.2405" y="-87.3" font-family="Times,serif" font-size="14.00" fill="#000000">object</text>
</g>
<!-- disease to exposure association&#45;&gt;object -->
<g id="edge4" class="edge">
<title>disease to exposure association&#45;&gt;object</title>
<path fill="none" stroke="#0000ff" d="M542.7008,-250.0248C488.7776,-236.8295 418.9431,-216.5563 398.2405,-196 375.302,-173.2236 386.9295,-157.1381 375.2405,-127 374.0534,-123.9392 372.7489,-120.7606 371.4129,-117.6159"/>
<polygon fill="#0000ff" stroke="#0000ff" points="374.611,-116.1938 367.3957,-108.4356 368.1981,-119 374.611,-116.1938"/>
<text text-anchor="middle" x="415.2405" y="-174.3" font-family="Times,serif" font-size="14.00" fill="#000000">object</text>
</g>
<!-- id -->
<g id="node8" class="node">
<title>id</title>
<ellipse fill="none" stroke="#000000" cx="468.2405" cy="-178" rx="27" ry="18"/>
<text text-anchor="middle" x="468.2405" y="-174.3" font-family="Times,serif" font-size="14.00" fill="#000000">id</text>
</g>
<!-- disease to exposure association&#45;&gt;id -->
<g id="edge5" class="edge">
<title>disease to exposure association&#45;&gt;id</title>
<path fill="none" stroke="#0000ff" d="M581.5047,-247.3943C556.8202,-232.2707 521.4196,-210.5816 496.7894,-195.4912"/>
<polygon fill="#0000ff" stroke="#0000ff" points="498.5976,-192.4944 488.2422,-190.2546 494.9406,-198.4633 498.5976,-192.4944"/>
<text text-anchor="middle" x="553.7405" y="-217.8" font-family="Times,serif" font-size="14.00" fill="#000000">id</text>
</g>
<!-- negated -->
<g id="node10" class="node">
<title>negated</title>
<ellipse fill="none" stroke="#0000ff" cx="551.2405" cy="-178" rx="38.1938" ry="18"/>
<text text-anchor="middle" x="551.2405" y="-174.3" font-family="Times,serif" font-size="14.00" fill="#000000">boolean</text>
</g>
<!-- disease to exposure association&#45;&gt;negated -->
<g id="edge6" class="edge">
<title>disease to exposure association&#45;&gt;negated</title>
<path fill="none" stroke="#0000ff" d="M598.0156,-246.9735C589.5985,-234.5619 578.2843,-217.8782 568.8919,-204.0284"/>
<polygon fill="#0000ff" stroke="#0000ff" points="571.5565,-201.7216 563.0471,-195.4097 565.7631,-205.6505 571.5565,-201.7216"/>
<text text-anchor="middle" x="606.7405" y="-217.8" font-family="Times,serif" font-size="14.00" fill="#000000">negated</text>
</g>
<!-- association type -->
<g id="node11" class="node">
<title>association type</title>
<ellipse fill="none" stroke="#0000ff" cx="669.2405" cy="-178" rx="61.99" ry="18"/>
<text text-anchor="middle" x="669.2405" y="-174.3" font-family="Times,serif" font-size="14.00" fill="#000000">ontology class</text>
</g>
<!-- disease to exposure association&#45;&gt;association type -->
<g id="edge7" class="edge">
<title>disease to exposure association&#45;&gt;association type</title>
<path fill="none" stroke="#0000ff" d="M622.4653,-246.9735C630.8271,-234.6435 642.0479,-218.0975 651.4034,-204.3021"/>
<polygon fill="#0000ff" stroke="#0000ff" points="654.5172,-205.9465 657.2332,-195.7057 648.7237,-202.0176 654.5172,-205.9465"/>
<text text-anchor="middle" x="688.2405" y="-217.8" font-family="Times,serif" font-size="14.00" fill="#000000">association type</text>
</g>
<!-- qualifiers -->
<g id="node12" class="node">
<title>qualifiers</title>
<ellipse fill="none" stroke="#0000ff" cx="810.2405" cy="-178" rx="61.99" ry="18"/>
<text text-anchor="middle" x="810.2405" y="-174.3" font-family="Times,serif" font-size="14.00" fill="#000000">ontology class</text>
</g>
<!-- disease to exposure association&#45;&gt;qualifiers -->
<g id="edge8" class="edge">
<title>disease to exposure association&#45;&gt;qualifiers</title>
<path fill="none" stroke="#0000ff" d="M677.7646,-250.0586C697.1204,-244.6239 717.9287,-237.6402 736.2405,-229 751.983,-221.5721 768.0582,-210.9326 781.1864,-201.2914"/>
<polygon fill="#0000ff" stroke="#0000ff" points="783.4696,-203.9535 789.3549,-195.1436 779.2603,-198.3606 783.4696,-203.9535"/>
<text text-anchor="middle" x="788.2405" y="-217.8" font-family="Times,serif" font-size="14.00" fill="#000000">qualifiers</text>
</g>
<!-- publications -->
<g id="node13" class="node">
<title>publications</title>
<ellipse fill="none" stroke="#0000ff" cx="940.2405" cy="-178" rx="50.0912" ry="18"/>
<text text-anchor="middle" x="940.2405" y="-174.3" font-family="Times,serif" font-size="14.00" fill="#000000">publication</text>
</g>
<!-- disease to exposure association&#45;&gt;publications -->
<g id="edge9" class="edge">
<title>disease to exposure association&#45;&gt;publications</title>
<path fill="none" stroke="#0000ff" d="M695.4538,-252.2242C742.2957,-244.811 795.4153,-235.6542 818.2405,-229 846.7151,-220.6988 877.5225,-207.7866 901.0554,-197.0319"/>
<polygon fill="#0000ff" stroke="#0000ff" points="902.7419,-200.1079 910.3429,-192.7272 899.7982,-193.7569 902.7419,-200.1079"/>
<text text-anchor="middle" x="893.7405" y="-217.8" font-family="Times,serif" font-size="14.00" fill="#000000">publications</text>
</g>
<!-- provided by -->
<g id="node14" class="node">
<title>provided by</title>
<ellipse fill="none" stroke="#0000ff" cx="1048.2405" cy="-178" rx="40.0939" ry="18"/>
<text text-anchor="middle" x="1048.2405" y="-174.3" font-family="Times,serif" font-size="14.00" fill="#000000">provider</text>
</g>
<!-- disease to exposure association&#45;&gt;provided by -->
<g id="edge10" class="edge">
<title>disease to exposure association&#45;&gt;provided by</title>
<path fill="none" stroke="#0000ff" d="M697.2337,-252.4205C711.5878,-250.4985 726.3217,-248.6187 740.2405,-247 824.9347,-237.1505 848.6794,-250.3025 931.2405,-229 960.0925,-221.5556 990.9165,-207.8599 1013.6799,-196.5345"/>
<polygon fill="#0000ff" stroke="#0000ff" points="1015.2666,-199.6542 1022.6035,-192.0108 1012.1015,-193.4106 1015.2666,-199.6542"/>
<text text-anchor="middle" x="1008.2405" y="-217.8" font-family="Times,serif" font-size="14.00" fill="#000000">provided by</text>
</g>
<!-- association slot -->
<g id="node15" class="node">
<title>association slot</title>
<ellipse fill="none" stroke="#0000ff" cx="1137.2405" cy="-178" rx="30.5947" ry="18"/>
<text text-anchor="middle" x="1137.2405" y="-174.3" font-family="Times,serif" font-size="14.00" fill="#000000">string</text>
</g>
<!-- disease to exposure association&#45;&gt;association slot -->
<g id="edge11" class="edge">
<title>disease to exposure association&#45;&gt;association slot</title>
<path fill="none" stroke="#0000ff" d="M695.4392,-252.2267C710.3476,-250.271 725.7286,-248.4307 740.2405,-247 807.8086,-240.3388 980.0372,-247.9304 1045.2405,-229 1068.2399,-222.3226 1091.8181,-209.1031 1109.3466,-197.7964"/>
<polygon fill="#0000ff" stroke="#0000ff" points="1111.5294,-200.5485 1117.9264,-192.1028 1107.6588,-194.7159 1111.5294,-200.5485"/>
<text text-anchor="middle" x="1122.2405" y="-217.8" font-family="Times,serif" font-size="14.00" fill="#000000">association slot</text>
</g>
<!-- edge label -->
<g id="node16" class="node">
<title>edge label</title>
<ellipse fill="none" stroke="#0000ff" cx="1244.2405" cy="-178" rx="45.4919" ry="18"/>
<text text-anchor="middle" x="1244.2405" y="-174.3" font-family="Times,serif" font-size="14.00" fill="#000000">label type</text>
</g>
<!-- disease to exposure association&#45;&gt;edge label -->
<g id="edge12" class="edge">
<title>disease to exposure association&#45;&gt;edge label</title>
<path fill="none" stroke="#0000ff" d="M694.721,-252.1102C709.8492,-250.1425 725.4901,-248.3283 740.2405,-247 835.052,-238.4621 1077.7745,-258.6317 1168.2405,-229 1186.2479,-223.1018 1203.97,-211.6322 1217.7652,-201.0615"/>
<polygon fill="#0000ff" stroke="#0000ff" points="1220.1706,-203.6203 1225.8146,-194.6538 1215.811,-198.1436 1220.1706,-203.6203"/>
<text text-anchor="middle" x="1225.2405" y="-217.8" font-family="Times,serif" font-size="14.00" fill="#000000">edge label</text>
</g>
<!-- subject&#45;&gt;relation -->
<g id="edge14" class="edge">
<title>subject&#45;&gt;relation</title>
<path fill="none" stroke="#000000" stroke-dasharray="1,5" d="M315.2106,-159.957C312.1047,-132.3487 306.1451,-79.3746 302.4496,-46.5255"/>
<polygon fill="#000000" stroke="#000000" points="305.8866,-45.7686 301.2905,-36.2226 298.9305,-46.5512 305.8866,-45.7686"/>
</g>
<!-- subject&#45;&gt;object -->
<g id="edge13" class="edge">
<title>subject&#45;&gt;object</title>
<path fill="none" stroke="#000000" d="M321.3739,-159.9885C324.0422,-149.9702 328,-137.4523 333.2405,-127 335.1453,-123.2009 337.4353,-119.3686 339.8563,-115.6937"/>
<polygon fill="#000000" stroke="#000000" points="342.7333,-117.687 345.6236,-107.494 337.0077,-113.6599 342.7333,-117.687"/>
<text text-anchor="middle" x="354.2405" y="-130.8" font-family="Times,serif" font-size="14.00" fill="#000000">relation</text>
</g>
<!-- disease to exposure association_subject -->
<g id="node4" class="node">
<title>disease to exposure association_subject</title>
<ellipse fill="none" stroke="#0000ff" cx="785.2405" cy="-265" rx="36.2938" ry="18"/>
<text text-anchor="middle" x="785.2405" y="-261.3" font-family="Times,serif" font-size="14.00" fill="#000000">disease</text>
</g>
<!-- object&#45;&gt;relation -->
<g id="edge15" class="edge">
<title>object&#45;&gt;relation</title>
<path fill="none" stroke="#000000" stroke-dasharray="1,5" d="M345.6256,-74.4352C338.0412,-65.2075 328.4413,-53.5276 319.9451,-43.1906"/>
<polygon fill="#000000" stroke="#000000" points="322.4812,-40.764 313.4276,-35.261 317.0734,-45.2088 322.4812,-40.764"/>
</g>
<!-- disease to exposure association_object -->
<g id="node7" class="node">
<title>disease to exposure association_object</title>
<ellipse fill="none" stroke="#0000ff" cx="903.2405" cy="-265" rx="63.8893" ry="18"/>
<text text-anchor="middle" x="903.2405" y="-261.3" font-family="Times,serif" font-size="14.00" fill="#000000">exposure event</text>
</g>
<!-- association_id -->
<g id="node9" class="node">
<title>association_id</title>
<ellipse fill="none" stroke="#0000ff" cx="1015.2405" cy="-265" rx="30.5947" ry="18"/>
<text text-anchor="middle" x="1015.2405" y="-261.3" font-family="Times,serif" font-size="14.00" fill="#000000">string</text>
</g>
</g>
</svg>
