<?xml version="1.0" encoding="UTF-8" standalone="no"?>
<!DOCTYPE svg PUBLIC "-//W3C//DTD SVG 1.1//EN"
 "http://www.w3.org/Graphics/SVG/1.1/DTD/svg11.dtd">
<!-- Generated by graphviz version 2.40.1 (20161225.0304)
 -->
<!-- Title: %3 Pages: 1 -->
<svg width="2391pt" height="291pt"
 viewBox="0.00 0.00 2391.09 291.00" xmlns="http://www.w3.org/2000/svg" xmlns:xlink="http://www.w3.org/1999/xlink">
<g id="graph0" class="graph" transform="scale(1 1) rotate(0) translate(4 287)">
<title>%3</title>
<polygon fill="#ffffff" stroke="transparent" points="-4,4 -4,-287 2387.0911,-287 2387.0911,4 -4,4"/>
<!-- disease to phenotypic feature association -->
<g id="node1" class="node">
<title>disease to phenotypic feature association</title>
<ellipse fill="none" stroke="#000000" cx="1352.0456" cy="-265" rx="155.1726" ry="18"/>
<text text-anchor="middle" x="1352.0456" y="-261.3" font-family="Times,serif" font-size="14.00" fill="#000000">disease to phenotypic feature association</text>
</g>
<!-- association -->
<g id="node2" class="node">
<title>association</title>
<ellipse fill="none" stroke="#000000" cx="50.0456" cy="-178" rx="50.0912" ry="18"/>
<text text-anchor="middle" x="50.0456" y="-174.3" font-family="Times,serif" font-size="14.00" fill="#000000">association</text>
</g>
<!-- disease to phenotypic feature association&#45;&gt;association -->
<g id="edge1" class="edge">
<title>disease to phenotypic feature association&#45;&gt;association</title>
<path fill="none" stroke="#000000" d="M1204.4108,-259.3796C1046.5842,-253.1023 789.0378,-242.0856 567.0456,-229 363.3159,-216.9909 309.683,-233.3441 109.0456,-196 104.8408,-195.2174 100.5121,-194.2409 96.2003,-193.15"/>
<polygon fill="#000000" stroke="#000000" points="96.8053,-189.6873 86.2369,-190.4346 94.9646,-196.441 96.8053,-189.6873"/>
<text text-anchor="middle" x="578.0456" y="-217.8" font-family="Times,serif" font-size="14.00" fill="#000000">is_a</text>
</g>
<!-- thing to phenotypic feature association mixin -->
<g id="node3" class="node">
<title>thing to phenotypic feature association mixin</title>
<ellipse fill="none" stroke="#000000" cx="289.0456" cy="-178" rx="170.8697" ry="18"/>
<text text-anchor="middle" x="289.0456" y="-174.3" font-family="Times,serif" font-size="14.00" fill="#000000">thing to phenotypic feature association mixin</text>
</g>
<!-- disease to phenotypic feature association&#45;&gt;thing to phenotypic feature association mixin -->
<g id="edge2" class="edge">
<title>disease to phenotypic feature association&#45;&gt;thing to phenotypic feature association mixin</title>
<path fill="none" stroke="#000000" d="M1206.7617,-258.6017C1083.0744,-252.6336 900.7266,-242.6051 742.0456,-229 628.4193,-219.2579 499.1822,-204.3244 407.9096,-193.1305"/>
<polygon fill="#000000" stroke="#000000" points="408.1603,-189.635 397.8077,-191.8878 407.3056,-196.5826 408.1603,-189.635"/>
<text text-anchor="middle" x="754.0456" y="-217.8" font-family="Times,serif" font-size="14.00" fill="#000000">uses</text>
</g>
<!-- disease to thing association mixin -->
<g id="node4" class="node">
<title>disease to thing association mixin</title>
<ellipse fill="none" stroke="#000000" cx="609.0456" cy="-178" rx="130.777" ry="18"/>
<text text-anchor="middle" x="609.0456" y="-174.3" font-family="Times,serif" font-size="14.00" fill="#000000">disease to thing association mixin</text>
</g>
<!-- disease to phenotypic feature association&#45;&gt;disease to thing association mixin -->
<g id="edge3" class="edge">
<title>disease to phenotypic feature association&#45;&gt;disease to thing association mixin</title>
<path fill="none" stroke="#000000" d="M1203.1878,-259.7371C1102.7702,-254.8665 967.4831,-245.7408 849.0456,-229 792.3428,-220.9852 729.0076,-207.3236 681.6434,-196.1563"/>
<polygon fill="#000000" stroke="#000000" points="682.3253,-192.7209 671.787,-193.8141 680.7069,-199.5312 682.3253,-192.7209"/>
<text text-anchor="middle" x="861.0456" y="-217.8" font-family="Times,serif" font-size="14.00" fill="#000000">uses</text>
</g>
<!-- id -->
<g id="node5" class="node">
<title>id</title>
<ellipse fill="none" stroke="#000000" cx="785.0456" cy="-178" rx="27" ry="18"/>
<text text-anchor="middle" x="785.0456" y="-174.3" font-family="Times,serif" font-size="14.00" fill="#000000">id</text>
</g>
<!-- disease to phenotypic feature association&#45;&gt;id -->
<g id="edge4" class="edge">
<title>disease to phenotypic feature association&#45;&gt;id</title>
<path fill="none" stroke="#0000ff" d="M1209.8297,-257.7566C1132.8455,-252.4499 1036.3111,-243.5544 951.0456,-229 892.2852,-218.9699 876.9156,-216.7826 821.0456,-196 819.179,-195.3057 817.2819,-194.5429 815.3841,-193.7354"/>
<polygon fill="#0000ff" stroke="#0000ff" points="816.5766,-190.4316 806.0286,-189.4366 813.6539,-196.7922 816.5766,-190.4316"/>
<text text-anchor="middle" x="956.5456" y="-217.8" font-family="Times,serif" font-size="14.00" fill="#000000">id</text>
</g>
<!-- association type -->
<g id="node7" class="node">
<title>association type</title>
<ellipse fill="none" stroke="#0000ff" cx="892.0456" cy="-178" rx="61.99" ry="18"/>
<text text-anchor="middle" x="892.0456" y="-174.3" font-family="Times,serif" font-size="14.00" fill="#000000">ontology class</text>
</g>
<!-- disease to phenotypic feature association&#45;&gt;association type -->
<g id="edge5" class="edge">
<title>disease to phenotypic feature association&#45;&gt;association type</title>
<path fill="none" stroke="#0000ff" d="M1220.3986,-255.439C1140.7447,-248.8336 1047.2238,-239.3906 1008.0456,-229 981.2527,-221.8942 952.7332,-209.4285 930.6773,-198.6004"/>
<polygon fill="#0000ff" stroke="#0000ff" points="932.1535,-195.4254 921.6444,-194.0805 929.021,-201.6854 932.1535,-195.4254"/>
<text text-anchor="middle" x="1052.0456" y="-217.8" font-family="Times,serif" font-size="14.00" fill="#000000">association type</text>
</g>
<!-- subject -->
<g id="node8" class="node">
<title>subject</title>
<ellipse fill="none" stroke="#0000ff" cx="1027.0456" cy="-178" rx="55.4913" ry="18"/>
<text text-anchor="middle" x="1027.0456" y="-174.3" font-family="Times,serif" font-size="14.00" fill="#000000">named thing</text>
</g>
<!-- disease to phenotypic feature association&#45;&gt;subject -->
<g id="edge6" class="edge">
<title>disease to phenotypic feature association&#45;&gt;subject</title>
<path fill="none" stroke="#0000ff" d="M1241.6197,-252.3201C1207.6329,-246.8747 1170.399,-239.3181 1137.0456,-229 1111.9336,-221.2314 1085.1469,-208.9067 1064.2945,-198.3193"/>
<polygon fill="#0000ff" stroke="#0000ff" points="1065.6495,-195.0798 1055.1586,-193.5996 1062.4367,-201.299 1065.6495,-195.0798"/>
<text text-anchor="middle" x="1156.5456" y="-217.8" font-family="Times,serif" font-size="14.00" fill="#000000">subject</text>
</g>
<!-- predicate -->
<g id="node9" class="node">
<title>predicate</title>
<ellipse fill="none" stroke="#0000ff" cx="1161.0456" cy="-178" rx="60.3893" ry="18"/>
<text text-anchor="middle" x="1161.0456" y="-174.3" font-family="Times,serif" font-size="14.00" fill="#000000">predicate type</text>
</g>
<!-- disease to phenotypic feature association&#45;&gt;predicate -->
<g id="edge7" class="edge">
<title>disease to phenotypic feature association&#45;&gt;predicate</title>
<path fill="none" stroke="#0000ff" d="M1260.1635,-250.391C1231.6468,-244.5386 1204.6491,-237.2236 1193.0456,-229 1184.564,-222.989 1177.8429,-213.9513 1172.7944,-205.1458"/>
<polygon fill="#0000ff" stroke="#0000ff" points="1175.8555,-203.4461 1168.1352,-196.1902 1169.6456,-206.6768 1175.8555,-203.4461"/>
<text text-anchor="middle" x="1218.0456" y="-217.8" font-family="Times,serif" font-size="14.00" fill="#000000">predicate</text>
</g>
<!-- object -->
<g id="node10" class="node">
<title>object</title>
<ellipse fill="none" stroke="#0000ff" cx="1205.0456" cy="-91" rx="55.4913" ry="18"/>
<text text-anchor="middle" x="1205.0456" y="-87.3" font-family="Times,serif" font-size="14.00" fill="#000000">named thing</text>
</g>
<!-- disease to phenotypic feature association&#45;&gt;object -->
<g id="edge8" class="edge">
<title>disease to phenotypic feature association&#45;&gt;object</title>
<path fill="none" stroke="#0000ff" d="M1327.7064,-247.2134C1320.2874,-241.5656 1312.204,-235.1785 1305.0456,-229 1289.1039,-215.2406 1284.2991,-212.3646 1271.0456,-196 1250.8882,-171.111 1231.8727,-139.6952 1219.4777,-117.7405"/>
<polygon fill="#0000ff" stroke="#0000ff" points="1222.5098,-115.9914 1214.5868,-108.9573 1216.394,-119.3969 1222.5098,-115.9914"/>
<text text-anchor="middle" x="1288.0456" y="-174.3" font-family="Times,serif" font-size="14.00" fill="#000000">object</text>
</g>
<!-- relation -->
<g id="node11" class="node">
<title>relation</title>
<ellipse fill="none" stroke="#0000ff" cx="1205.0456" cy="-18" rx="45.4919" ry="18"/>
<text text-anchor="middle" x="1205.0456" y="-14.3" font-family="Times,serif" font-size="14.00" fill="#000000">uriorcurie</text>
</g>
<!-- disease to phenotypic feature association&#45;&gt;relation -->
<g id="edge9" class="edge">
<title>disease to phenotypic feature association&#45;&gt;relation</title>
<path fill="none" stroke="#0000ff" d="M1347.2253,-246.9307C1337.0723,-211.163 1310.912,-129.8865 1269.0456,-73 1259.9614,-60.6568 1247.6148,-49.2174 1236.1888,-40.0042"/>
<polygon fill="#0000ff" stroke="#0000ff" points="1238.1342,-37.0833 1228.0914,-33.7079 1233.8373,-42.6094 1238.1342,-37.0833"/>
<text text-anchor="middle" x="1330.0456" y="-130.8" font-family="Times,serif" font-size="14.00" fill="#000000">relation</text>
</g>
<!-- negated -->
<g id="node12" class="node">
<title>negated</title>
<ellipse fill="none" stroke="#0000ff" cx="1385.0456" cy="-178" rx="38.1938" ry="18"/>
<text text-anchor="middle" x="1385.0456" y="-174.3" font-family="Times,serif" font-size="14.00" fill="#000000">boolean</text>
</g>
<!-- disease to phenotypic feature association&#45;&gt;negated -->
<g id="edge10" class="edge">
<title>disease to phenotypic feature association&#45;&gt;negated</title>
<path fill="none" stroke="#0000ff" d="M1358.8832,-246.9735C1363.4406,-234.9585 1369.5166,-218.9401 1374.6659,-205.3646"/>
<polygon fill="#0000ff" stroke="#0000ff" points="1377.9426,-206.5947 1378.2167,-196.0034 1371.3976,-204.112 1377.9426,-206.5947"/>
<text text-anchor="middle" x="1392.5456" y="-217.8" font-family="Times,serif" font-size="14.00" fill="#000000">negated</text>
</g>
<!-- qualifiers -->
<g id="node13" class="node">
<title>qualifiers</title>
<ellipse fill="none" stroke="#0000ff" cx="1503.0456" cy="-178" rx="61.99" ry="18"/>
<text text-anchor="middle" x="1503.0456" y="-174.3" font-family="Times,serif" font-size="14.00" fill="#000000">ontology class</text>
</g>
<!-- disease to phenotypic feature association&#45;&gt;qualifiers -->
<g id="edge11" class="edge">
<title>disease to phenotypic feature association&#45;&gt;qualifiers</title>
<path fill="none" stroke="#0000ff" d="M1385.0928,-247.319C1395.6707,-241.5677 1407.3976,-235.0949 1418.0456,-229 1434.5261,-219.5664 1452.5913,-208.79 1467.8133,-199.581"/>
<polygon fill="#0000ff" stroke="#0000ff" points="1469.6804,-202.5421 1476.4137,-194.362 1466.0489,-196.5577 1469.6804,-202.5421"/>
<text text-anchor="middle" x="1468.0456" y="-217.8" font-family="Times,serif" font-size="14.00" fill="#000000">qualifiers</text>
</g>
<!-- publications -->
<g id="node14" class="node">
<title>publications</title>
<ellipse fill="none" stroke="#0000ff" cx="1633.0456" cy="-178" rx="50.0912" ry="18"/>
<text text-anchor="middle" x="1633.0456" y="-174.3" font-family="Times,serif" font-size="14.00" fill="#000000">publication</text>
</g>
<!-- disease to phenotypic feature association&#45;&gt;publications -->
<g id="edge12" class="edge">
<title>disease to phenotypic feature association&#45;&gt;publications</title>
<path fill="none" stroke="#0000ff" d="M1424.1772,-249.0215C1447.8757,-243.2926 1474.2384,-236.403 1498.0456,-229 1529.5807,-219.1939 1564.4318,-205.9652 1590.8238,-195.4381"/>
<polygon fill="#0000ff" stroke="#0000ff" points="1592.1689,-198.6697 1600.1426,-191.6933 1589.5587,-192.1745 1592.1689,-198.6697"/>
<text text-anchor="middle" x="1573.5456" y="-217.8" font-family="Times,serif" font-size="14.00" fill="#000000">publications</text>
</g>
<!-- provided by -->
<g id="node15" class="node">
<title>provided by</title>
<ellipse fill="none" stroke="#0000ff" cx="1731.0456" cy="-178" rx="29.795" ry="18"/>
<text text-anchor="middle" x="1731.0456" y="-174.3" font-family="Times,serif" font-size="14.00" fill="#000000">agent</text>
</g>
<!-- disease to phenotypic feature association&#45;&gt;provided by -->
<g id="edge13" class="edge">
<title>disease to phenotypic feature association&#45;&gt;provided by</title>
<path fill="none" stroke="#0000ff" d="M1462.873,-252.3616C1520,-245.2935 1583.37,-236.4362 1611.0456,-229 1641.9803,-220.6881 1675.3805,-205.9828 1699.0691,-194.4916"/>
<polygon fill="#0000ff" stroke="#0000ff" points="1700.8558,-197.513 1708.2755,-189.9501 1697.7589,-191.2353 1700.8558,-197.513"/>
<text text-anchor="middle" x="1689.0456" y="-217.8" font-family="Times,serif" font-size="14.00" fill="#000000">provided by</text>
</g>
<!-- frequency qualifier -->
<g id="node16" class="node">
<title>frequency qualifier</title>
<ellipse fill="none" stroke="#0000ff" cx="1846.0456" cy="-178" rx="67.6881" ry="18"/>
<text text-anchor="middle" x="1846.0456" y="-174.3" font-family="Times,serif" font-size="14.00" fill="#000000">frequency value</text>
</g>
<!-- disease to phenotypic feature association&#45;&gt;frequency qualifier -->
<g id="edge14" class="edge">
<title>disease to phenotypic feature association&#45;&gt;frequency qualifier</title>
<path fill="none" stroke="#0000ff" d="M1463.6053,-252.3948C1481.1471,-250.5169 1499.0836,-248.6575 1516.0456,-247 1609.277,-237.8893 1635.1377,-251.6023 1726.0456,-229 1753.8488,-222.0873 1783.491,-209.5444 1806.3583,-198.6279"/>
<polygon fill="#0000ff" stroke="#0000ff" points="1807.9412,-201.7501 1815.4017,-194.2274 1804.8783,-195.4557 1807.9412,-201.7501"/>
<text text-anchor="middle" x="1823.0456" y="-217.8" font-family="Times,serif" font-size="14.00" fill="#000000">frequency qualifier</text>
</g>
<!-- severity qualifier -->
<g id="node17" class="node">
<title>severity qualifier</title>
<ellipse fill="none" stroke="#0000ff" cx="1991.0456" cy="-178" rx="59.5901" ry="18"/>
<text text-anchor="middle" x="1991.0456" y="-174.3" font-family="Times,serif" font-size="14.00" fill="#000000">severity value</text>
</g>
<!-- disease to phenotypic feature association&#45;&gt;severity qualifier -->
<g id="edge15" class="edge">
<title>disease to phenotypic feature association&#45;&gt;severity qualifier</title>
<path fill="none" stroke="#0000ff" d="M1460.9064,-252.1295C1479.2929,-250.2203 1498.2,-248.4205 1516.0456,-247 1596.5567,-240.5913 1800.5645,-248.0745 1879.0456,-229 1905.4494,-222.5826 1933.2609,-209.9544 1954.5648,-198.8702"/>
<polygon fill="#0000ff" stroke="#0000ff" points="1956.3873,-201.8651 1963.5694,-194.076 1953.0976,-195.6862 1956.3873,-201.8651"/>
<text text-anchor="middle" x="1967.5456" y="-217.8" font-family="Times,serif" font-size="14.00" fill="#000000">severity qualifier</text>
</g>
<!-- onset qualifier -->
<g id="node18" class="node">
<title>onset qualifier</title>
<ellipse fill="none" stroke="#0000ff" cx="2098.0456" cy="-178" rx="29.4969" ry="18"/>
<text text-anchor="middle" x="2098.0456" y="-174.3" font-family="Times,serif" font-size="14.00" fill="#000000">onset</text>
</g>
<!-- disease to phenotypic feature association&#45;&gt;onset qualifier -->
<g id="edge16" class="edge">
<title>disease to phenotypic feature association&#45;&gt;onset qualifier</title>
<path fill="none" stroke="#0000ff" d="M1460.0081,-252.0104C1478.6734,-250.0911 1497.905,-248.319 1516.0456,-247 1571.7122,-242.9526 1964.7527,-245.5841 2018.0456,-229 2038.0289,-222.7814 2057.8834,-210.1719 2072.814,-199.0476"/>
<polygon fill="#0000ff" stroke="#0000ff" points="2075.2224,-201.61 2080.9997,-192.729 2070.945,-196.0689 2075.2224,-201.61"/>
<text text-anchor="middle" x="2088.5456" y="-217.8" font-family="Times,serif" font-size="14.00" fill="#000000">onset qualifier</text>
</g>
<!-- sex qualifier -->
<g id="node19" class="node">
<title>sex qualifier</title>
<ellipse fill="none" stroke="#0000ff" cx="2205.0456" cy="-178" rx="59.5901" ry="18"/>
<text text-anchor="middle" x="2205.0456" y="-174.3" font-family="Times,serif" font-size="14.00" fill="#000000">biological sex</text>
</g>
<!-- disease to phenotypic feature association&#45;&gt;sex qualifier -->
<g id="edge17" class="edge">
<title>disease to phenotypic feature association&#45;&gt;sex qualifier</title>
<path fill="none" stroke="#0000ff" d="M1459.5601,-251.9535C1478.364,-250.0281 1497.7579,-248.2687 1516.0456,-247 1584.355,-242.2609 2067.0374,-250.5076 2132.0456,-229 2149.1428,-223.3435 2165.7949,-212.2755 2178.8672,-201.8918"/>
<polygon fill="#0000ff" stroke="#0000ff" points="2181.4405,-204.3051 2186.9093,-195.2308 2176.9753,-198.9142 2181.4405,-204.3051"/>
<text text-anchor="middle" x="2195.0456" y="-217.8" font-family="Times,serif" font-size="14.00" fill="#000000">sex qualifier</text>
</g>
<!-- description -->
<g id="node20" class="node">
<title>description</title>
<ellipse fill="none" stroke="#000000" cx="2333.0456" cy="-178" rx="50.0912" ry="18"/>
<text text-anchor="middle" x="2333.0456" y="-174.3" font-family="Times,serif" font-size="14.00" fill="#000000">description</text>
</g>
<!-- disease to phenotypic feature association&#45;&gt;description -->
<g id="edge18" class="edge">
<title>disease to phenotypic feature association&#45;&gt;description</title>
<path fill="none" stroke="#0000ff" d="M1459.1151,-251.935C1478.057,-249.9989 1497.6124,-248.2407 1516.0456,-247 1595.5574,-241.648 2155.7989,-248.5892 2233.0456,-229 2256.9097,-222.9482 2281.5726,-210.4501 2300.4347,-199.3414"/>
<polygon fill="#0000ff" stroke="#0000ff" points="2302.4584,-202.2077 2309.1994,-194.034 2298.8325,-196.2199 2302.4584,-202.2077"/>
<text text-anchor="middle" x="2300.5456" y="-217.8" font-family="Times,serif" font-size="14.00" fill="#000000">description</text>
</g>
<!-- association_id -->
<g id="node6" class="node">
<title>association_id</title>
<ellipse fill="none" stroke="#0000ff" cx="1556.0456" cy="-265" rx="30.5947" ry="18"/>
<text text-anchor="middle" x="1556.0456" y="-261.3" font-family="Times,serif" font-size="14.00" fill="#000000">string</text>
</g>
<!-- subject&#45;&gt;object -->
<g id="edge19" class="edge">
<title>subject&#45;&gt;object</title>
<path fill="none" stroke="#000000" d="M1058.0508,-162.8458C1087.7862,-148.3121 1132.8198,-126.3014 1165.2026,-110.4738"/>
<polygon fill="#000000" stroke="#000000" points="1166.9483,-113.5163 1174.3956,-105.9806 1163.8744,-107.2273 1166.9483,-113.5163"/>
<text text-anchor="middle" x="1148.0456" y="-130.8" font-family="Times,serif" font-size="14.00" fill="#000000">relation</text>
</g>
<!-- subject&#45;&gt;relation -->
<g id="edge20" class="edge">
<title>subject&#45;&gt;relation</title>
<path fill="none" stroke="#000000" stroke-dasharray="1,5" d="M1045.4277,-160.7068C1067.8133,-139.7319 1106.8715,-103.4061 1141.0456,-73 1152.9356,-62.4209 1166.2591,-50.9164 1177.6585,-41.1768"/>
<polygon fill="#000000" stroke="#000000" points="1180.229,-43.5848 1185.571,-34.4352 1175.6892,-38.2565 1180.229,-43.5848"/>
</g>
<!-- object&#45;&gt;relation -->
<g id="edge21" class="edge">
<title>object&#45;&gt;relation</title>
<path fill="none" stroke="#000000" stroke-dasharray="1,5" d="M1205.0456,-72.9551C1205.0456,-64.8828 1205.0456,-55.1764 1205.0456,-46.1817"/>
<polygon fill="#000000" stroke="#000000" points="1208.5457,-46.0903 1205.0456,-36.0904 1201.5457,-46.0904 1208.5457,-46.0903"/>
</g>
<!-- thing to phenotypic feature association mixin_description -->
<g id="node21" class="node">
<title>thing to phenotypic feature association mixin_description</title>
<ellipse fill="none" stroke="#0000ff" cx="1662.0456" cy="-265" rx="57.6901" ry="18"/>
<text text-anchor="middle" x="1662.0456" y="-261.3" font-family="Times,serif" font-size="14.00" fill="#000000">narrative text</text>
</g>
</g>
</svg>
