<?xml version="1.0" encoding="UTF-8" standalone="no"?>
<!DOCTYPE svg PUBLIC "-//W3C//DTD SVG 1.1//EN"
 "http://www.w3.org/Graphics/SVG/1.1/DTD/svg11.dtd">
<!-- Generated by graphviz version 2.40.1 (20161225.0304)
 -->
<!-- Title: %3 Pages: 1 -->
<svg width="2063pt" height="131pt"
 viewBox="0.00 0.00 2063.19 131.00" xmlns="http://www.w3.org/2000/svg" xmlns:xlink="http://www.w3.org/1999/xlink">
<g id="graph0" class="graph" transform="scale(1 1) rotate(0) translate(4 127)">
<title>%3</title>
<polygon fill="#ffffff" stroke="transparent" points="-4,4 -4,-127 2059.1915,-127 2059.1915,4 -4,4"/>
<!-- distribution level -->
<g id="node1" class="node">
<title>distribution level</title>
<ellipse fill="none" stroke="#000000" cx="1072.6442" cy="-105" rx="70.6878" ry="18"/>
<text text-anchor="middle" x="1072.6442" y="-101.3" font-family="Times,serif" font-size="14.00" fill="#000000">distribution level</text>
</g>
<!-- data set version -->
<g id="node2" class="node">
<title>data set version</title>
<ellipse fill="none" stroke="#000000" cx="65.6442" cy="-18" rx="65.7887" ry="18"/>
<text text-anchor="middle" x="65.6442" y="-14.3" font-family="Times,serif" font-size="14.00" fill="#000000">data set version</text>
</g>
<!-- distribution level&#45;&gt;data set version -->
<g id="edge1" class="edge">
<title>distribution level&#45;&gt;data set version</title>
<path fill="none" stroke="#000000" d="M1001.7095,-103.7953C831.1462,-100.5859 401.685,-90.5634 259.6442,-69 210.8128,-61.5869 156.5439,-46.7344 117.8499,-34.9608"/>
<polygon fill="#000000" stroke="#000000" points="118.452,-31.4841 107.8648,-31.8857 116.3917,-38.174 118.452,-31.4841"/>
<text text-anchor="middle" x="270.6442" y="-57.8" font-family="Times,serif" font-size="14.00" fill="#000000">is_a</text>
</g>
<!-- id -->
<g id="node3" class="node">
<title>id</title>
<ellipse fill="none" stroke="#0000ff" cx="179.6442" cy="-18" rx="30.5947" ry="18"/>
<text text-anchor="middle" x="179.6442" y="-14.3" font-family="Times,serif" font-size="14.00" fill="#000000">string</text>
</g>
<!-- distribution level&#45;&gt;id -->
<g id="edge2" class="edge">
<title>distribution level&#45;&gt;id</title>
<path fill="none" stroke="#0000ff" d="M1002.2733,-102.7004C850.9019,-97.5323 498.4665,-84.2506 379.6442,-69 307.6271,-59.7568 288.7215,-58.3657 219.6442,-36 217.3824,-35.2677 215.0774,-34.4463 212.7734,-33.5685"/>
<polygon fill="#0000ff" stroke="#0000ff" points="214.0002,-30.2887 203.4204,-29.7254 211.3398,-36.7634 214.0002,-30.2887"/>
<text text-anchor="middle" x="385.1442" y="-57.8" font-family="Times,serif" font-size="14.00" fill="#000000">id</text>
</g>
<!-- name -->
<g id="node4" class="node">
<title>name</title>
<ellipse fill="none" stroke="#0000ff" cx="273.6442" cy="-18" rx="45.4919" ry="18"/>
<text text-anchor="middle" x="273.6442" y="-14.3" font-family="Times,serif" font-size="14.00" fill="#000000">label type</text>
</g>
<!-- distribution level&#45;&gt;name -->
<g id="edge3" class="edge">
<title>distribution level&#45;&gt;name</title>
<path fill="none" stroke="#0000ff" d="M1002.4018,-102.4685C864.9287,-97.2477 564.8488,-84.4682 462.6442,-69 412.2095,-61.3669 355.9485,-45.1541 318.0286,-33.0455"/>
<polygon fill="#0000ff" stroke="#0000ff" points="318.9113,-29.6526 308.3195,-29.9068 316.758,-36.3132 318.9113,-29.6526"/>
<text text-anchor="middle" x="478.1442" y="-57.8" font-family="Times,serif" font-size="14.00" fill="#000000">name</text>
</g>
<!-- category -->
<g id="node5" class="node">
<title>category</title>
<ellipse fill="none" stroke="#0000ff" cx="395.6442" cy="-18" rx="58.4896" ry="18"/>
<text text-anchor="middle" x="395.6442" y="-14.3" font-family="Times,serif" font-size="14.00" fill="#000000">category type</text>
</g>
<!-- distribution level&#45;&gt;category -->
<g id="edge4" class="edge">
<title>distribution level&#45;&gt;category</title>
<path fill="none" stroke="#0000ff" d="M1002.4437,-102.2177C881.4164,-97.0703 638.413,-85.1006 554.6442,-69 515.5981,-61.4952 472.7509,-47.3927 441.3836,-35.9164"/>
<polygon fill="#0000ff" stroke="#0000ff" points="442.2152,-32.4918 431.6222,-32.2943 439.7799,-39.0546 442.2152,-32.4918"/>
<text text-anchor="middle" x="578.1442" y="-57.8" font-family="Times,serif" font-size="14.00" fill="#000000">category</text>
</g>
<!-- related to -->
<g id="node6" class="node">
<title>related to</title>
<ellipse fill="none" stroke="#0000ff" cx="527.6442" cy="-18" rx="55.4913" ry="18"/>
<text text-anchor="middle" x="527.6442" y="-14.3" font-family="Times,serif" font-size="14.00" fill="#000000">named thing</text>
</g>
<!-- distribution level&#45;&gt;related to -->
<g id="edge5" class="edge">
<title>distribution level&#45;&gt;related to</title>
<path fill="none" stroke="#0000ff" d="M1002.9508,-101.6964C900.5897,-96.397 714.6952,-84.9486 649.6442,-69 620.8374,-61.9374 590.0331,-49.0136 566.5848,-37.9435"/>
<polygon fill="#0000ff" stroke="#0000ff" points="567.8649,-34.6754 557.3362,-33.4936 564.8299,-40.9833 567.8649,-34.6754"/>
<text text-anchor="middle" x="675.6442" y="-57.8" font-family="Times,serif" font-size="14.00" fill="#000000">related to</text>
</g>
<!-- interacts with -->
<g id="node7" class="node">
<title>interacts with</title>
<ellipse fill="none" stroke="#0000ff" cx="655.6442" cy="-18" rx="55.4913" ry="18"/>
<text text-anchor="middle" x="655.6442" y="-14.3" font-family="Times,serif" font-size="14.00" fill="#000000">named thing</text>
</g>
<!-- distribution level&#45;&gt;interacts with -->
<g id="edge6" class="edge">
<title>distribution level&#45;&gt;interacts with</title>
<path fill="none" stroke="#0000ff" d="M1003.03,-101.3198C919.1114,-96.2307 783.4004,-85.731 735.6442,-69 717.322,-62.581 698.9128,-51.2616 684.3806,-40.915"/>
<polygon fill="#0000ff" stroke="#0000ff" points="686.4335,-38.0801 676.3023,-34.9799 682.2889,-43.7213 686.4335,-38.0801"/>
<text text-anchor="middle" x="772.6442" y="-57.8" font-family="Times,serif" font-size="14.00" fill="#000000">interacts with</text>
</g>
<!-- correlated with -->
<g id="node8" class="node">
<title>correlated with</title>
<ellipse fill="none" stroke="#0000ff" cx="783.6442" cy="-18" rx="55.4913" ry="18"/>
<text text-anchor="middle" x="783.6442" y="-14.3" font-family="Times,serif" font-size="14.00" fill="#000000">named thing</text>
</g>
<!-- distribution level&#45;&gt;correlated with -->
<g id="edge7" class="edge">
<title>distribution level&#45;&gt;correlated with</title>
<path fill="none" stroke="#0000ff" d="M1004.783,-99.6024C944.8996,-93.9708 862.7425,-83.869 833.6442,-69 821.74,-62.9171 810.9945,-52.9123 802.5431,-43.3679"/>
<polygon fill="#0000ff" stroke="#0000ff" points="805.1089,-40.9801 796.0084,-35.555 799.7394,-45.4712 805.1089,-40.9801"/>
<text text-anchor="middle" x="874.6442" y="-57.8" font-family="Times,serif" font-size="14.00" fill="#000000">correlated with</text>
</g>
<!-- node property -->
<g id="node9" class="node">
<title>node property</title>
<ellipse fill="none" stroke="#0000ff" cx="887.6442" cy="-18" rx="30.5947" ry="18"/>
<text text-anchor="middle" x="887.6442" y="-14.3" font-family="Times,serif" font-size="14.00" fill="#000000">string</text>
</g>
<!-- distribution level&#45;&gt;node property -->
<g id="edge8" class="edge">
<title>distribution level&#45;&gt;node property</title>
<path fill="none" stroke="#0000ff" d="M1011.4675,-95.8979C987.3273,-90.5092 960.0647,-82.0749 937.6442,-69 925.9288,-62.168 915.0971,-51.8643 906.5326,-42.3027"/>
<polygon fill="#0000ff" stroke="#0000ff" points="909.0575,-39.8697 899.902,-34.5379 903.7342,-44.4154 909.0575,-39.8697"/>
<text text-anchor="middle" x="975.6442" y="-57.8" font-family="Times,serif" font-size="14.00" fill="#000000">node property</text>
</g>
<!-- iri -->
<g id="node10" class="node">
<title>iri</title>
<ellipse fill="none" stroke="#0000ff" cx="972.6442" cy="-18" rx="36.2938" ry="18"/>
<text text-anchor="middle" x="972.6442" y="-14.3" font-family="Times,serif" font-size="14.00" fill="#000000">iri type</text>
</g>
<!-- distribution level&#45;&gt;iri -->
<g id="edge9" class="edge">
<title>distribution level&#45;&gt;iri</title>
<path fill="none" stroke="#0000ff" d="M1052.4077,-87.3943C1036.9094,-73.9107 1015.4125,-55.2084 998.6403,-40.6166"/>
<polygon fill="#0000ff" stroke="#0000ff" points="1000.6749,-37.7475 990.8332,-33.8244 996.0803,-43.0287 1000.6749,-37.7475"/>
<text text-anchor="middle" x="1035.1442" y="-57.8" font-family="Times,serif" font-size="14.00" fill="#000000">iri</text>
</g>
<!-- synonym -->
<g id="node11" class="node">
<title>synonym</title>
<ellipse fill="none" stroke="#0000ff" cx="1072.6442" cy="-18" rx="45.4919" ry="18"/>
<text text-anchor="middle" x="1072.6442" y="-14.3" font-family="Times,serif" font-size="14.00" fill="#000000">label type</text>
</g>
<!-- distribution level&#45;&gt;synonym -->
<g id="edge10" class="edge">
<title>distribution level&#45;&gt;synonym</title>
<path fill="none" stroke="#0000ff" d="M1072.6442,-86.9735C1072.6442,-75.1918 1072.6442,-59.5607 1072.6442,-46.1581"/>
<polygon fill="#0000ff" stroke="#0000ff" points="1076.1443,-46.0033 1072.6442,-36.0034 1069.1443,-46.0034 1076.1443,-46.0033"/>
<text text-anchor="middle" x="1098.1442" y="-57.8" font-family="Times,serif" font-size="14.00" fill="#000000">synonym</text>
</g>
<!-- full name -->
<g id="node12" class="node">
<title>full name</title>
<ellipse fill="none" stroke="#0000ff" cx="1181.6442" cy="-18" rx="45.4919" ry="18"/>
<text text-anchor="middle" x="1181.6442" y="-14.3" font-family="Times,serif" font-size="14.00" fill="#000000">label type</text>
</g>
<!-- distribution level&#45;&gt;full name -->
<g id="edge11" class="edge">
<title>distribution level&#45;&gt;full name</title>
<path fill="none" stroke="#0000ff" d="M1100.1642,-88.3452C1109.1603,-82.5473 1119.0446,-75.7879 1127.6442,-69 1138.0824,-60.7608 1148.8738,-50.8837 1158.0398,-42.0252"/>
<polygon fill="#0000ff" stroke="#0000ff" points="1160.6311,-44.386 1165.3136,-34.8821 1155.7264,-39.3916 1160.6311,-44.386"/>
<text text-anchor="middle" x="1172.1442" y="-57.8" font-family="Times,serif" font-size="14.00" fill="#000000">full name</text>
</g>
<!-- description -->
<g id="node13" class="node">
<title>description</title>
<ellipse fill="none" stroke="#0000ff" cx="1302.6442" cy="-18" rx="57.6901" ry="18"/>
<text text-anchor="middle" x="1302.6442" y="-14.3" font-family="Times,serif" font-size="14.00" fill="#000000">narrative text</text>
</g>
<!-- distribution level&#45;&gt;description -->
<g id="edge12" class="edge">
<title>distribution level&#45;&gt;description</title>
<path fill="none" stroke="#0000ff" d="M1125.6141,-92.9095C1149.511,-86.8016 1177.8711,-78.6338 1202.6442,-69 1224.2424,-60.6009 1247.3516,-49.001 1265.9081,-38.9859"/>
<polygon fill="#0000ff" stroke="#0000ff" points="1267.802,-41.9394 1274.8944,-34.0686 1264.4417,-35.7986 1267.802,-41.9394"/>
<text text-anchor="middle" x="1267.1442" y="-57.8" font-family="Times,serif" font-size="14.00" fill="#000000">description</text>
</g>
<!-- systematic synonym -->
<g id="node14" class="node">
<title>systematic synonym</title>
<ellipse fill="none" stroke="#0000ff" cx="1423.6442" cy="-18" rx="45.4919" ry="18"/>
<text text-anchor="middle" x="1423.6442" y="-14.3" font-family="Times,serif" font-size="14.00" fill="#000000">label type</text>
</g>
<!-- distribution level&#45;&gt;systematic synonym -->
<g id="edge13" class="edge">
<title>distribution level&#45;&gt;systematic synonym</title>
<path fill="none" stroke="#0000ff" d="M1139.1922,-98.8077C1185.3848,-93.4778 1248.0132,-84.1864 1301.6442,-69 1330.7645,-60.7541 1362.2472,-47.4756 1385.9362,-36.5348"/>
<polygon fill="#0000ff" stroke="#0000ff" points="1387.6886,-39.5788 1395.2573,-32.165 1384.7172,-33.2408 1387.6886,-39.5788"/>
<text text-anchor="middle" x="1399.6442" y="-57.8" font-family="Times,serif" font-size="14.00" fill="#000000">systematic synonym</text>
</g>
<!-- title -->
<g id="node15" class="node">
<title>title</title>
<ellipse fill="none" stroke="#0000ff" cx="1517.6442" cy="-18" rx="30.5947" ry="18"/>
<text text-anchor="middle" x="1517.6442" y="-14.3" font-family="Times,serif" font-size="14.00" fill="#000000">string</text>
</g>
<!-- distribution level&#45;&gt;title -->
<g id="edge14" class="edge">
<title>distribution level&#45;&gt;title</title>
<path fill="none" stroke="#0000ff" d="M1143.5767,-103.6199C1239.4037,-100.8689 1404.5726,-92.7404 1459.6442,-69 1473.7736,-62.9091 1486.8896,-52.0316 1497.0619,-41.8824"/>
<polygon fill="#0000ff" stroke="#0000ff" points="1499.8703,-44.0087 1504.2348,-34.3546 1494.8025,-39.1798 1499.8703,-44.0087"/>
<text text-anchor="middle" x="1494.6442" y="-57.8" font-family="Times,serif" font-size="14.00" fill="#000000">title</text>
</g>
<!-- source data file -->
<g id="node16" class="node">
<title>source data file</title>
<ellipse fill="none" stroke="#0000ff" cx="1605.6442" cy="-18" rx="39.7935" ry="18"/>
<text text-anchor="middle" x="1605.6442" y="-14.3" font-family="Times,serif" font-size="14.00" fill="#000000">data file</text>
</g>
<!-- distribution level&#45;&gt;source data file -->
<g id="edge15" class="edge">
<title>distribution level&#45;&gt;source data file</title>
<path fill="none" stroke="#0000ff" d="M1143.1094,-102.6524C1248.7485,-98.5478 1442.896,-88.5747 1509.6442,-69 1532.6225,-62.2613 1556.4059,-49.6741 1574.5517,-38.6912"/>
<polygon fill="#0000ff" stroke="#0000ff" points="1576.8474,-41.3853 1583.4927,-33.1336 1573.152,-35.4402 1576.8474,-41.3853"/>
<text text-anchor="middle" x="1587.6442" y="-57.8" font-family="Times,serif" font-size="14.00" fill="#000000">source data file</text>
</g>
<!-- versionOf -->
<g id="node17" class="node">
<title>versionOf</title>
<ellipse fill="none" stroke="#0000ff" cx="1700.6442" cy="-18" rx="37.8943" ry="18"/>
<text text-anchor="middle" x="1700.6442" y="-14.3" font-family="Times,serif" font-size="14.00" fill="#000000">data set</text>
</g>
<!-- distribution level&#45;&gt;versionOf -->
<g id="edge16" class="edge">
<title>distribution level&#45;&gt;versionOf</title>
<path fill="none" stroke="#0000ff" d="M1142.9972,-102.7602C1283.4066,-97.9594 1588.8146,-85.7387 1633.6442,-69 1649.6672,-63.0172 1665.039,-51.8503 1677.008,-41.4876"/>
<polygon fill="#0000ff" stroke="#0000ff" points="1679.6479,-43.8191 1684.7167,-34.5154 1674.9524,-38.6275 1679.6479,-43.8191"/>
<text text-anchor="middle" x="1688.1442" y="-57.8" font-family="Times,serif" font-size="14.00" fill="#000000">versionOf</text>
</g>
<!-- type -->
<g id="node18" class="node">
<title>type</title>
<ellipse fill="none" stroke="#0000ff" cx="1786.6442" cy="-18" rx="30.5947" ry="18"/>
<text text-anchor="middle" x="1786.6442" y="-14.3" font-family="Times,serif" font-size="14.00" fill="#000000">string</text>
</g>
<!-- distribution level&#45;&gt;type -->
<g id="edge17" class="edge">
<title>distribution level&#45;&gt;type</title>
<path fill="none" stroke="#0000ff" d="M1143.2268,-103.4072C1299.8276,-99.538 1666.7326,-88.5007 1719.6442,-69 1736.1844,-62.9041 1752.0082,-51.2352 1764.1207,-40.5961"/>
<polygon fill="#0000ff" stroke="#0000ff" points="1766.5053,-43.1582 1771.5146,-33.8224 1761.7767,-37.9968 1766.5053,-43.1582"/>
<text text-anchor="middle" x="1758.6442" y="-57.8" font-family="Times,serif" font-size="14.00" fill="#000000">type</text>
</g>
<!-- distribution -->
<g id="node19" class="node">
<title>distribution</title>
<ellipse fill="none" stroke="#0000ff" cx="1905.6442" cy="-18" rx="70.6878" ry="18"/>
<text text-anchor="middle" x="1905.6442" y="-14.3" font-family="Times,serif" font-size="14.00" fill="#000000">distribution level</text>
</g>
<!-- distribution level&#45;&gt;distribution -->
<g id="edge18" class="edge">
<title>distribution level&#45;&gt;distribution</title>
<path fill="none" stroke="#0000ff" d="M1143.6058,-104.2313C1297.131,-102.1009 1655.8439,-94.4765 1774.6442,-69 1805.5378,-62.3749 1838.687,-49.4078 1863.9098,-38.2074"/>
<polygon fill="#0000ff" stroke="#0000ff" points="1865.4998,-41.3297 1873.1674,-34.0182 1862.6138,-34.9523 1865.4998,-41.3297"/>
<text text-anchor="middle" x="1855.1442" y="-57.8" font-family="Times,serif" font-size="14.00" fill="#000000">distribution</text>
</g>
<!-- downloadURL -->
<g id="node20" class="node">
<title>downloadURL</title>
<ellipse fill="none" stroke="#0000ff" cx="2024.6442" cy="-18" rx="30.5947" ry="18"/>
<text text-anchor="middle" x="2024.6442" y="-14.3" font-family="Times,serif" font-size="14.00" fill="#000000">string</text>
</g>
<!-- distribution level&#45;&gt;downloadURL -->
<g id="edge19" class="edge">
<title>distribution level&#45;&gt;downloadURL</title>
<path fill="none" stroke="#0000ff" d="M1143.5019,-104.5132C1314.9507,-102.9114 1748.4978,-96.213 1890.6442,-69 1926.5711,-62.122 1965.4066,-46.3351 1991.9729,-34.1337"/>
<polygon fill="#0000ff" stroke="#0000ff" points="1993.6051,-37.2342 2001.1773,-29.8239 1990.6367,-30.8948 1993.6051,-37.2342"/>
<text text-anchor="middle" x="1983.1442" y="-57.8" font-family="Times,serif" font-size="14.00" fill="#000000">downloadURL</text>
</g>
</g>
</svg>
