<?xml version="1.0" encoding="UTF-8" standalone="no"?>
<!DOCTYPE svg PUBLIC "-//W3C//DTD SVG 1.1//EN"
 "http://www.w3.org/Graphics/SVG/1.1/DTD/svg11.dtd">
<!-- Generated by graphviz version 2.43.0 (0)
 -->
<!-- Title: %3 Pages: 1 -->
<svg width="2108pt" height="289pt"
 viewBox="0.00 0.00 2107.80 289.00" xmlns="http://www.w3.org/2000/svg" xmlns:xlink="http://www.w3.org/1999/xlink">
<g id="graph0" class="graph" transform="scale(1 1) rotate(0) translate(4 285)">
<title>%3</title>
<polygon fill="white" stroke="transparent" points="-4,4 -4,-285 2103.8,-285 2103.8,4 -4,4"/>
<!-- entity to phenotypic feature association -->
<g id="node1" class="node">
<title>entity to phenotypic feature association</title>
<ellipse fill="none" stroke="black" cx="1077.4" cy="-263" rx="149.2" ry="18"/>
<text text-anchor="middle" x="1077.4" y="-258.8" font-family="Times,serif" font-size="14.00">entity to phenotypic feature association</text>
</g>
<!-- association -->
<g id="node2" class="node">
<title>association</title>
<ellipse fill="none" stroke="black" cx="49.4" cy="-177" rx="49.3" ry="18"/>
<text text-anchor="middle" x="49.4" y="-172.8" font-family="Times,serif" font-size="14.00">association</text>
</g>
<!-- entity to phenotypic feature association&#45;&gt;association -->
<g id="edge1" class="edge">
<title>entity to phenotypic feature association&#45;&gt;association</title>
<path fill="none" stroke="black" d="M930.1,-260.09C775.5,-256.97 525.57,-248.72 310.85,-227 219.78,-217.79 196.72,-215.03 107.4,-195 103.48,-194.12 99.44,-193.13 95.39,-192.07"/>
<polygon fill="black" stroke="black" points="95.98,-188.6 85.41,-189.34 94.14,-195.35 95.98,-188.6"/>
<text text-anchor="middle" x="322.68" y="-215.8" font-family="Times,serif" font-size="14.00">is_a</text>
</g>
<!-- entity to feature or disease qualifiers -->
<g id="node3" class="node">
<title>entity to feature or disease qualifiers</title>
<ellipse fill="none" stroke="black" cx="255.4" cy="-177" rx="138.58" ry="18"/>
<text text-anchor="middle" x="255.4" y="-172.8" font-family="Times,serif" font-size="14.00">entity to feature or disease qualifiers</text>
</g>
<!-- entity to phenotypic feature association&#45;&gt;entity to feature or disease qualifiers -->
<g id="edge2" class="edge">
<title>entity to phenotypic feature association&#45;&gt;entity to feature or disease qualifiers</title>
<path fill="none" stroke="black" d="M930.36,-259.95C758.48,-256.61 484.74,-248.08 384.29,-227 355.02,-220.86 323.63,-209.04 299.15,-198.55"/>
<polygon fill="black" stroke="black" points="300.36,-195.26 289.79,-194.46 297.55,-201.67 300.36,-195.26"/>
<text text-anchor="middle" x="396.46" y="-215.8" font-family="Times,serif" font-size="14.00">uses</text>
</g>
<!-- subject -->
<g id="node4" class="node">
<title>subject</title>
<ellipse fill="none" stroke="blue" cx="504.4" cy="-177" rx="54.14" ry="18"/>
<text text-anchor="middle" x="504.4" y="-172.8" font-family="Times,serif" font-size="14.00">named thing</text>
</g>
<!-- entity to phenotypic feature association&#45;&gt;subject -->
<g id="edge3" class="edge">
<title>entity to phenotypic feature association&#45;&gt;subject</title>
<path fill="none" stroke="blue" d="M932.31,-258.78C785.15,-254.53 574.36,-245.31 540.75,-227 531.12,-221.76 523.34,-212.74 517.48,-203.86"/>
<polygon fill="blue" stroke="blue" points="520.41,-201.95 512.27,-195.18 514.41,-205.55 520.41,-201.95"/>
<text text-anchor="middle" x="561.23" y="-215.8" font-family="Times,serif" font-size="14.00">subject</text>
</g>
<!-- relation -->
<g id="node5" class="node">
<title>relation</title>
<ellipse fill="none" stroke="blue" cx="491.4" cy="-18" rx="44.94" ry="18"/>
<text text-anchor="middle" x="491.4" y="-13.8" font-family="Times,serif" font-size="14.00">uriorcurie</text>
</g>
<!-- entity to phenotypic feature association&#45;&gt;relation -->
<g id="edge4" class="edge">
<title>entity to phenotypic feature association&#45;&gt;relation</title>
<path fill="none" stroke="blue" d="M933.65,-258.11C795.51,-253.45 596.94,-244.03 521.4,-227 484.04,-218.58 462.87,-226.71 441.4,-195 409.39,-147.72 446.99,-80.05 472.22,-43.95"/>
<polygon fill="blue" stroke="blue" points="475.32,-45.64 478.32,-35.48 469.64,-41.55 475.32,-45.64"/>
<text text-anchor="middle" x="453.78" y="-129.8" font-family="Times,serif" font-size="14.00">relation</text>
</g>
<!-- object -->
<g id="node6" class="node">
<title>object</title>
<ellipse fill="none" stroke="black" cx="551.4" cy="-91" rx="31.93" ry="18"/>
<text text-anchor="middle" x="551.4" y="-86.8" font-family="Times,serif" font-size="14.00">object</text>
</g>
<!-- entity to phenotypic feature association&#45;&gt;object -->
<g id="edge5" class="edge">
<title>entity to phenotypic feature association&#45;&gt;object</title>
<path fill="none" stroke="blue" d="M933.22,-258.34C812.23,-252.32 651.61,-236.49 603.19,-195 578.77,-174.07 593.92,-155.18 578.4,-127 576.28,-123.14 573.75,-119.26 571.11,-115.55"/>
<polygon fill="blue" stroke="blue" points="573.69,-113.17 564.86,-107.31 568.11,-117.4 573.69,-113.17"/>
<text text-anchor="middle" x="620.51" y="-172.8" font-family="Times,serif" font-size="14.00">object</text>
</g>
<!-- id -->
<g id="node8" class="node">
<title>id</title>
<ellipse fill="none" stroke="black" cx="673.4" cy="-177" rx="27" ry="18"/>
<text text-anchor="middle" x="673.4" y="-172.8" font-family="Times,serif" font-size="14.00">id</text>
</g>
<!-- entity to phenotypic feature association&#45;&gt;id -->
<g id="edge6" class="edge">
<title>entity to phenotypic feature association&#45;&gt;id</title>
<path fill="none" stroke="blue" d="M961.41,-251.67C887.5,-242.48 790.7,-225.57 709.4,-195 707.56,-194.31 705.68,-193.56 703.79,-192.77"/>
<polygon fill="blue" stroke="blue" points="705.04,-189.49 694.47,-188.65 702.21,-195.9 705.04,-189.49"/>
<text text-anchor="middle" x="823.85" y="-215.8" font-family="Times,serif" font-size="14.00">id</text>
</g>
<!-- negated -->
<g id="node10" class="node">
<title>negated</title>
<ellipse fill="none" stroke="blue" cx="756.4" cy="-177" rx="38.2" ry="18"/>
<text text-anchor="middle" x="756.4" y="-172.8" font-family="Times,serif" font-size="14.00">boolean</text>
</g>
<!-- entity to phenotypic feature association&#45;&gt;negated -->
<g id="edge7" class="edge">
<title>entity to phenotypic feature association&#45;&gt;negated</title>
<path fill="none" stroke="blue" d="M979.56,-249.39C946.3,-243.95 909.14,-236.59 875.87,-227 846.52,-218.54 814.58,-205.21 791.11,-194.59"/>
<polygon fill="blue" stroke="blue" points="792.47,-191.36 781.92,-190.37 789.55,-197.72 792.47,-191.36"/>
<text text-anchor="middle" x="898.17" y="-215.8" font-family="Times,serif" font-size="14.00">negated</text>
</g>
<!-- association type -->
<g id="node11" class="node">
<title>association type</title>
<ellipse fill="none" stroke="blue" cx="873.4" cy="-177" rx="60.9" ry="18"/>
<text text-anchor="middle" x="873.4" y="-172.8" font-family="Times,serif" font-size="14.00">ontology class</text>
</g>
<!-- entity to phenotypic feature association&#45;&gt;association type -->
<g id="edge8" class="edge">
<title>entity to phenotypic feature association&#45;&gt;association type</title>
<path fill="none" stroke="blue" d="M1006.83,-247.07C987.52,-241.85 966.88,-235.2 948.59,-227 932.5,-219.78 915.93,-209.37 902.46,-199.99"/>
<polygon fill="blue" stroke="blue" points="904.27,-196.98 894.09,-194.03 900.2,-202.68 904.27,-196.98"/>
<text text-anchor="middle" x="994.31" y="-215.8" font-family="Times,serif" font-size="14.00">association type</text>
</g>
<!-- qualifiers -->
<g id="node12" class="node">
<title>qualifiers</title>
<ellipse fill="none" stroke="blue" cx="1013.4" cy="-177" rx="60.9" ry="18"/>
<text text-anchor="middle" x="1013.4" y="-172.8" font-family="Times,serif" font-size="14.00">ontology class</text>
</g>
<!-- entity to phenotypic feature association&#45;&gt;qualifiers -->
<g id="edge9" class="edge">
<title>entity to phenotypic feature association&#45;&gt;qualifiers</title>
<path fill="none" stroke="blue" d="M1064.45,-245C1055.19,-232.85 1042.6,-216.32 1032.23,-202.71"/>
<polygon fill="blue" stroke="blue" points="1034.96,-200.52 1026.12,-194.69 1029.39,-204.76 1034.96,-200.52"/>
<text text-anchor="middle" x="1075.45" y="-215.8" font-family="Times,serif" font-size="14.00">qualifiers</text>
</g>
<!-- publications -->
<g id="node13" class="node">
<title>publications</title>
<ellipse fill="none" stroke="blue" cx="1142.4" cy="-177" rx="49.79" ry="18"/>
<text text-anchor="middle" x="1142.4" y="-172.8" font-family="Times,serif" font-size="14.00">publication</text>
</g>
<!-- entity to phenotypic feature association&#45;&gt;publications -->
<g id="edge10" class="edge">
<title>entity to phenotypic feature association&#45;&gt;publications</title>
<path fill="none" stroke="blue" d="M1091.17,-244.99C1095.73,-239.29 1100.82,-232.9 1105.4,-227 1111.45,-219.21 1117.97,-210.65 1123.81,-202.9"/>
<polygon fill="blue" stroke="blue" points="1126.64,-204.97 1129.84,-194.87 1121.04,-200.76 1126.64,-204.97"/>
<text text-anchor="middle" x="1150.62" y="-215.8" font-family="Times,serif" font-size="14.00">publications</text>
</g>
<!-- provided by -->
<g id="node14" class="node">
<title>provided by</title>
<ellipse fill="none" stroke="blue" cx="1250.4" cy="-177" rx="40.13" ry="18"/>
<text text-anchor="middle" x="1250.4" y="-172.8" font-family="Times,serif" font-size="14.00">provider</text>
</g>
<!-- entity to phenotypic feature association&#45;&gt;provided by -->
<g id="edge11" class="edge">
<title>entity to phenotypic feature association&#45;&gt;provided by</title>
<path fill="none" stroke="blue" d="M1140.08,-246.59C1156.3,-241.44 1173.4,-234.94 1188.4,-227 1201.93,-219.84 1215.44,-209.61 1226.38,-200.35"/>
<polygon fill="blue" stroke="blue" points="1228.97,-202.74 1234.2,-193.53 1224.37,-197.46 1228.97,-202.74"/>
<text text-anchor="middle" x="1244.03" y="-215.8" font-family="Times,serif" font-size="14.00">provided by</text>
</g>
<!-- association slot -->
<g id="node15" class="node">
<title>association slot</title>
<ellipse fill="none" stroke="blue" cx="1338.4" cy="-177" rx="30" ry="18"/>
<text text-anchor="middle" x="1338.4" y="-172.8" font-family="Times,serif" font-size="14.00">string</text>
</g>
<!-- entity to phenotypic feature association&#45;&gt;association slot -->
<g id="edge12" class="edge">
<title>entity to phenotypic feature association&#45;&gt;association slot</title>
<path fill="none" stroke="blue" d="M1198.01,-252.33C1226.27,-247.1 1255.64,-239.13 1281.4,-227 1294.95,-220.62 1307.8,-210.12 1317.87,-200.47"/>
<polygon fill="blue" stroke="blue" points="1320.4,-202.89 1324.98,-193.33 1315.44,-197.94 1320.4,-202.89"/>
<text text-anchor="middle" x="1345.37" y="-215.8" font-family="Times,serif" font-size="14.00">association slot</text>
</g>
<!-- edge label -->
<g id="node16" class="node">
<title>edge label</title>
<ellipse fill="none" stroke="blue" cx="1431.4" cy="-177" rx="44.96" ry="18"/>
<text text-anchor="middle" x="1431.4" y="-172.8" font-family="Times,serif" font-size="14.00">label type</text>
</g>
<!-- entity to phenotypic feature association&#45;&gt;edge label -->
<g id="edge13" class="edge">
<title>entity to phenotypic feature association&#45;&gt;edge label</title>
<path fill="none" stroke="blue" d="M1183.95,-250.4C1274.89,-240.46 1391.23,-227.65 1392.4,-227 1402.35,-221.5 1410.68,-212.32 1417.06,-203.38"/>
<polygon fill="blue" stroke="blue" points="1419.99,-205.29 1422.55,-195.01 1414.14,-201.45 1419.99,-205.29"/>
<text text-anchor="middle" x="1437.97" y="-215.8" font-family="Times,serif" font-size="14.00">edge label</text>
</g>
<!-- sex qualifier -->
<g id="node17" class="node">
<title>sex qualifier</title>
<ellipse fill="none" stroke="blue" cx="1553.4" cy="-177" rx="59.44" ry="18"/>
<text text-anchor="middle" x="1553.4" y="-172.8" font-family="Times,serif" font-size="14.00">biological sex</text>
</g>
<!-- entity to phenotypic feature association&#45;&gt;sex qualifier -->
<g id="edge14" class="edge">
<title>entity to phenotypic feature association&#45;&gt;sex qualifier</title>
<path fill="none" stroke="blue" d="M1182.74,-250.21C1200.32,-248.37 1218.37,-246.57 1235.4,-245 1339.71,-235.4 1370.48,-258.44 1470.4,-227 1489.48,-221 1508.84,-209.91 1524.06,-199.81"/>
<polygon fill="blue" stroke="blue" points="1526.24,-202.56 1532.5,-194.01 1522.28,-196.78 1526.24,-202.56"/>
<text text-anchor="middle" x="1536.81" y="-215.8" font-family="Times,serif" font-size="14.00">sex qualifier</text>
</g>
<!-- frequency qualifier -->
<g id="node18" class="node">
<title>frequency qualifier</title>
<ellipse fill="none" stroke="blue" cx="1697.4" cy="-177" rx="66.64" ry="18"/>
<text text-anchor="middle" x="1697.4" y="-172.8" font-family="Times,serif" font-size="14.00">frequency value</text>
</g>
<!-- entity to phenotypic feature association&#45;&gt;frequency qualifier -->
<g id="edge15" class="edge">
<title>entity to phenotypic feature association&#45;&gt;frequency qualifier</title>
<path fill="none" stroke="blue" d="M1181.01,-250.04C1199.13,-248.18 1217.8,-246.41 1235.4,-245 1386.24,-232.9 1427.64,-259.64 1575.4,-227 1604.2,-220.64 1635,-208.22 1658.45,-197.47"/>
<polygon fill="blue" stroke="blue" points="1660.13,-200.56 1667.7,-193.15 1657.16,-194.21 1660.13,-200.56"/>
<text text-anchor="middle" x="1673.46" y="-215.8" font-family="Times,serif" font-size="14.00">frequency qualifier</text>
</g>
<!-- severity qualifier -->
<g id="node19" class="node">
<title>severity qualifier</title>
<ellipse fill="none" stroke="blue" cx="1841.4" cy="-177" rx="59.43" ry="18"/>
<text text-anchor="middle" x="1841.4" y="-172.8" font-family="Times,serif" font-size="14.00">severity value</text>
</g>
<!-- entity to phenotypic feature association&#45;&gt;severity qualifier -->
<g id="edge16" class="edge">
<title>entity to phenotypic feature association&#45;&gt;severity qualifier</title>
<path fill="none" stroke="blue" d="M1180.15,-249.88C1198.53,-248.01 1217.51,-246.29 1235.4,-245 1345.19,-237.11 1623.13,-251.67 1730.4,-227 1756.69,-220.95 1784.45,-208.7 1805.63,-197.96"/>
<polygon fill="blue" stroke="blue" points="1807.32,-201.02 1814.58,-193.31 1804.09,-194.81 1807.32,-201.02"/>
<text text-anchor="middle" x="1819.64" y="-215.8" font-family="Times,serif" font-size="14.00">severity qualifier</text>
</g>
<!-- onset qualifier -->
<g id="node20" class="node">
<title>onset qualifier</title>
<ellipse fill="none" stroke="blue" cx="1947.4" cy="-177" rx="28.55" ry="18"/>
<text text-anchor="middle" x="1947.4" y="-172.8" font-family="Times,serif" font-size="14.00">onset</text>
</g>
<!-- entity to phenotypic feature association&#45;&gt;onset qualifier -->
<g id="edge17" class="edge">
<title>entity to phenotypic feature association&#45;&gt;onset qualifier</title>
<path fill="none" stroke="blue" d="M1179.29,-249.84C1197.93,-247.96 1217.23,-246.23 1235.4,-245 1305.82,-240.22 1802.92,-247.69 1870.4,-227 1889.6,-221.11 1908.65,-209.05 1923.01,-198.37"/>
<polygon fill="blue" stroke="blue" points="1925.52,-200.85 1931.29,-191.96 1921.24,-195.31 1925.52,-200.85"/>
<text text-anchor="middle" x="1940.26" y="-215.8" font-family="Times,serif" font-size="14.00">onset qualifier</text>
</g>
<!-- description -->
<g id="node21" class="node">
<title>description</title>
<ellipse fill="none" stroke="black" cx="2050.4" cy="-177" rx="49.3" ry="18"/>
<text text-anchor="middle" x="2050.4" y="-172.8" font-family="Times,serif" font-size="14.00">description</text>
</g>
<!-- entity to phenotypic feature association&#45;&gt;description -->
<g id="edge18" class="edge">
<title>entity to phenotypic feature association&#45;&gt;description</title>
<path fill="none" stroke="blue" d="M1179.29,-249.78C1197.93,-247.9 1217.23,-246.19 1235.4,-245 1318.47,-239.54 1905.68,-254.08 1984.4,-227 2000.19,-221.57 2015.33,-210.87 2027.12,-200.85"/>
<polygon fill="blue" stroke="blue" points="2029.57,-203.35 2034.72,-194.09 2024.92,-198.12 2029.57,-203.35"/>
<text text-anchor="middle" x="2040.51" y="-215.8" font-family="Times,serif" font-size="14.00">description</text>
</g>
<!-- subject&#45;&gt;relation -->
<g id="edge20" class="edge">
<title>subject&#45;&gt;relation</title>
<path fill="none" stroke="black" stroke-dasharray="1,5" d="M502.99,-158.9C500.74,-131.77 496.34,-78.61 493.65,-46.21"/>
<polygon fill="black" stroke="black" points="497.13,-45.76 492.82,-36.08 490.15,-46.33 497.13,-45.76"/>
</g>
<!-- subject&#45;&gt;object -->
<g id="edge19" class="edge">
<title>subject&#45;&gt;object</title>
<path fill="none" stroke="black" d="M513.91,-159C520.63,-147 529.73,-130.73 537.29,-117.22"/>
<polygon fill="black" stroke="black" points="540.4,-118.84 542.22,-108.4 534.29,-115.42 540.4,-118.84"/>
<text text-anchor="middle" x="552.78" y="-129.8" font-family="Times,serif" font-size="14.00">relation</text>
</g>
<!-- object&#45;&gt;relation -->
<g id="edge21" class="edge">
<title>object&#45;&gt;relation</title>
<path fill="none" stroke="black" stroke-dasharray="1,5" d="M538.09,-74.24C530.35,-65.09 520.44,-53.36 511.75,-43.07"/>
<polygon fill="black" stroke="black" points="514.22,-40.58 505.1,-35.21 508.88,-45.1 514.22,-40.58"/>
</g>
<!-- entity to phenotypic feature association_object -->
<g id="node7" class="node">
<title>entity to phenotypic feature association_object</title>
<ellipse fill="none" stroke="blue" cx="1320.4" cy="-263" rx="76.31" ry="18"/>
<text text-anchor="middle" x="1320.4" y="-258.8" font-family="Times,serif" font-size="14.00">phenotypic feature</text>
</g>
<!-- association_id -->
<g id="node9" class="node">
<title>association_id</title>
<ellipse fill="none" stroke="blue" cx="1473.4" cy="-263" rx="59.45" ry="18"/>
<text text-anchor="middle" x="1473.4" y="-258.8" font-family="Times,serif" font-size="14.00">nodeidentifier</text>
</g>
<!-- entity to phenotypic feature association_description -->
<g id="node22" class="node">
<title>entity to phenotypic feature association_description</title>
<ellipse fill="none" stroke="blue" cx="1607.4" cy="-263" rx="57" ry="18"/>
<text text-anchor="middle" x="1607.4" y="-258.8" font-family="Times,serif" font-size="14.00">narrative text</text>
</g>
</g>
</svg>
