<?xml version="1.0" encoding="UTF-8" standalone="no"?>
<!DOCTYPE svg PUBLIC "-//W3C//DTD SVG 1.1//EN"
 "http://www.w3.org/Graphics/SVG/1.1/DTD/svg11.dtd">
<!-- Generated by graphviz version 2.43.0 (0)
 -->
<!-- Title: %3 Pages: 1 -->
<svg width="875pt" height="131pt"
 viewBox="0.00 0.00 875.34 131.00" xmlns="http://www.w3.org/2000/svg" xmlns:xlink="http://www.w3.org/1999/xlink">
<g id="graph0" class="graph" transform="scale(1 1) rotate(0) translate(4 127)">
<title>%3</title>
<polygon fill="white" stroke="transparent" points="-4,4 -4,-127 871.34,-127 871.34,4 -4,4"/>
<!-- entity -->
<g id="node1" class="node">
<title>entity</title>
<ellipse fill="none" stroke="black" cx="407.35" cy="-105" rx="38.19" ry="18"/>
<text text-anchor="middle" x="407.35" y="-101.3" font-family="Times,serif" font-size="14.00">entity</text>
</g>
<!-- id -->
<g id="node2" class="node">
<title>id</title>
<ellipse fill="none" stroke="blue" cx="38.35" cy="-18" rx="38.19" ry="18"/>
<text text-anchor="middle" x="38.35" y="-14.3" font-family="Times,serif" font-size="14.00">string</text>
</g>
<!-- entity&#45;&gt;id -->
<g id="edge1" class="edge">
<title>entity&#45;&gt;id</title>
<path fill="none" stroke="blue" d="M371.79,-98.17C312.15,-88.03 188.45,-65.35 86.35,-36 83.25,-35.11 80.05,-34.13 76.86,-33.1"/>
<polygon fill="blue" stroke="blue" points="77.95,-29.77 67.35,-29.91 75.72,-36.41 77.95,-29.77"/>
<text text-anchor="middle" x="225.35" y="-57.8" font-family="Times,serif" font-size="14.00">id</text>
</g>
<!-- iri -->
<g id="node3" class="node">
<title>iri</title>
<ellipse fill="none" stroke="blue" cx="139.35" cy="-18" rx="44.39" ry="18"/>
<text text-anchor="middle" x="139.35" y="-14.3" font-family="Times,serif" font-size="14.00">iri type</text>
</g>
<!-- entity&#45;&gt;iri -->
<g id="edge2" class="edge">
<title>entity&#45;&gt;iri</title>
<path fill="none" stroke="blue" d="M376.36,-94.24C334.56,-81.07 257.81,-56.85 192.35,-36 189.22,-35 185.98,-33.97 182.73,-32.93"/>
<polygon fill="blue" stroke="blue" points="183.58,-29.53 172.98,-29.81 181.44,-36.19 183.58,-29.53"/>
<text text-anchor="middle" x="301.35" y="-57.8" font-family="Times,serif" font-size="14.00">iri</text>
</g>
<!-- category -->
<g id="node4" class="node">
<title>category</title>
<ellipse fill="none" stroke="blue" cx="276.35" cy="-18" rx="74.99" ry="18"/>
<text text-anchor="middle" x="276.35" y="-14.3" font-family="Times,serif" font-size="14.00">category type</text>
</g>
<!-- entity&#45;&gt;category -->
<g id="edge3" class="edge">
<title>entity&#45;&gt;category</title>
<path fill="none" stroke="blue" d="M381.28,-91.76C368.62,-85.48 353.36,-77.39 340.35,-69 327.78,-60.91 314.65,-50.95 303.58,-42.05"/>
<polygon fill="blue" stroke="blue" points="305.52,-39.11 295.55,-35.5 301.09,-44.54 305.52,-39.11"/>
<text text-anchor="middle" x="371.85" y="-57.8" font-family="Times,serif" font-size="14.00">category</text>
</g>
<!-- type -->
<g id="node5" class="node">
<title>type</title>
<ellipse fill="none" stroke="blue" cx="407.35" cy="-18" rx="38.19" ry="18"/>
<text text-anchor="middle" x="407.35" y="-14.3" font-family="Times,serif" font-size="14.00">string</text>
</g>
<!-- entity&#45;&gt;type -->
<g id="edge4" class="edge">
<title>entity&#45;&gt;type</title>
<path fill="none" stroke="blue" d="M407.35,-86.8C407.35,-75.16 407.35,-59.55 407.35,-46.24"/>
<polygon fill="blue" stroke="blue" points="410.85,-46.18 407.35,-36.18 403.85,-46.18 410.85,-46.18"/>
<text text-anchor="middle" x="423.35" y="-57.8" font-family="Times,serif" font-size="14.00">type</text>
</g>
<!-- name -->
<g id="node6" class="node">
<title>name</title>
<ellipse fill="none" stroke="blue" cx="520.35" cy="-18" rx="56.59" ry="18"/>
<text text-anchor="middle" x="520.35" y="-14.3" font-family="Times,serif" font-size="14.00">label type</text>
</g>
<!-- entity&#45;&gt;name -->
<g id="edge5" class="edge">
<title>entity&#45;&gt;name</title>
<path fill="none" stroke="blue" d="M426.77,-89.39C444.44,-76.1 470.77,-56.29 491,-41.07"/>
<polygon fill="blue" stroke="blue" points="493.37,-43.67 499.26,-34.86 489.16,-38.08 493.37,-43.67"/>
<text text-anchor="middle" x="491.35" y="-57.8" font-family="Times,serif" font-size="14.00">name</text>
</g>
<!-- description -->
<g id="node7" class="node">
<title>description</title>
<ellipse fill="none" stroke="blue" cx="670.35" cy="-18" rx="75.29" ry="18"/>
<text text-anchor="middle" x="670.35" y="-14.3" font-family="Times,serif" font-size="14.00">narrative text</text>
</g>
<!-- entity&#45;&gt;description -->
<g id="edge6" class="edge">
<title>entity&#45;&gt;description</title>
<path fill="none" stroke="blue" d="M438.03,-94.08C482.04,-79.86 563.7,-53.47 617.53,-36.07"/>
<polygon fill="blue" stroke="blue" points="618.8,-39.34 627.24,-32.93 616.65,-32.68 618.8,-39.34"/>
<text text-anchor="middle" x="595.85" y="-57.8" font-family="Times,serif" font-size="14.00">description</text>
</g>
<!-- has attribute -->
<g id="node8" class="node">
<title>has attribute</title>
<ellipse fill="none" stroke="blue" cx="815.35" cy="-18" rx="51.99" ry="18"/>
<text text-anchor="middle" x="815.35" y="-14.3" font-family="Times,serif" font-size="14.00">attribute</text>
</g>
<!-- entity&#45;&gt;has attribute -->
<g id="edge7" class="edge">
<title>entity&#45;&gt;has attribute</title>
<path fill="none" stroke="blue" d="M444.34,-99.94C490.52,-94.53 571.79,-83.88 640.35,-69 684.47,-59.42 733.86,-44.96 768.89,-34.05"/>
<polygon fill="blue" stroke="blue" points="770.33,-37.26 778.82,-30.93 768.24,-30.59 770.33,-37.26"/>
<text text-anchor="middle" x="746.35" y="-57.8" font-family="Times,serif" font-size="14.00">has attribute</text>
</g>
</g>
</svg>
