<?xml version="1.0" encoding="UTF-8" standalone="no"?>
<!DOCTYPE svg PUBLIC "-//W3C//DTD SVG 1.1//EN"
 "http://www.w3.org/Graphics/SVG/1.1/DTD/svg11.dtd">
<!-- Generated by graphviz version 2.43.0 (0)
 -->
<!-- Title: %3 Pages: 1 -->
<svg width="2522pt" height="291pt"
 viewBox="0.00 0.00 2522.48 291.00" xmlns="http://www.w3.org/2000/svg" xmlns:xlink="http://www.w3.org/1999/xlink">
<g id="graph0" class="graph" transform="scale(1 1) rotate(0) translate(4 287)">
<title>%3</title>
<polygon fill="white" stroke="transparent" points="-4,4 -4,-287 2518.48,-287 2518.48,4 -4,4"/>
<!-- entity to phenotypic feature association -->
<g id="node1" class="node">
<title>entity to phenotypic feature association</title>
<ellipse fill="none" stroke="black" cx="1226.39" cy="-265" rx="195.77" ry="18"/>
<text text-anchor="middle" x="1226.39" y="-261.3" font-family="Times,serif" font-size="14.00">entity to phenotypic feature association</text>
</g>
<!-- association -->
<g id="node2" class="node">
<title>association</title>
<ellipse fill="none" stroke="black" cx="62.39" cy="-178" rx="62.29" ry="18"/>
<text text-anchor="middle" x="62.39" y="-174.3" font-family="Times,serif" font-size="14.00">association</text>
</g>
<!-- entity to phenotypic feature association&#45;&gt;association -->
<g id="edge1" class="edge">
<title>entity to phenotypic feature association&#45;&gt;association</title>
<path fill="none" stroke="black" d="M1034.3,-261.56C798.09,-257.76 410.95,-248.7 268.39,-229 214.84,-221.6 154.93,-206.23 113.58,-194.47"/>
<polygon fill="black" stroke="black" points="114.32,-191.05 103.74,-191.65 112.39,-197.77 114.32,-191.05"/>
<text text-anchor="middle" x="282.39" y="-217.8" font-family="Times,serif" font-size="14.00">is_a</text>
</g>
<!-- id -->
<g id="node3" class="node">
<title>id</title>
<ellipse fill="none" stroke="blue" cx="181.39" cy="-178" rx="38.19" ry="18"/>
<text text-anchor="middle" x="181.39" y="-174.3" font-family="Times,serif" font-size="14.00">string</text>
</g>
<!-- entity to phenotypic feature association&#45;&gt;id -->
<g id="edge2" class="edge">
<title>entity to phenotypic feature association&#45;&gt;id</title>
<path fill="none" stroke="blue" d="M1030.7,-264.32C861.66,-262.56 611.14,-255.07 394.39,-229 320.14,-220.07 301.49,-215.87 229.39,-196 226.28,-195.14 223.08,-194.18 219.88,-193.17"/>
<polygon fill="blue" stroke="blue" points="220.97,-189.84 210.37,-190.01 218.76,-196.49 220.97,-189.84"/>
<text text-anchor="middle" x="401.39" y="-217.8" font-family="Times,serif" font-size="14.00">id</text>
</g>
<!-- iri -->
<g id="node4" class="node">
<title>iri</title>
<ellipse fill="none" stroke="blue" cx="282.39" cy="-178" rx="44.39" ry="18"/>
<text text-anchor="middle" x="282.39" y="-174.3" font-family="Times,serif" font-size="14.00">iri type</text>
</g>
<!-- entity to phenotypic feature association&#45;&gt;iri -->
<g id="edge3" class="edge">
<title>entity to phenotypic feature association&#45;&gt;iri</title>
<path fill="none" stroke="blue" d="M1033.52,-261.97C888.39,-258.67 684.84,-250.23 507.39,-229 430.11,-219.75 410.81,-215.26 335.39,-196 332.02,-195.14 328.54,-194.18 325.05,-193.17"/>
<polygon fill="blue" stroke="blue" points="325.88,-189.77 315.29,-190.23 323.86,-196.47 325.88,-189.77"/>
<text text-anchor="middle" x="515.39" y="-217.8" font-family="Times,serif" font-size="14.00">iri</text>
</g>
<!-- name -->
<g id="node5" class="node">
<title>name</title>
<ellipse fill="none" stroke="blue" cx="401.39" cy="-178" rx="56.59" ry="18"/>
<text text-anchor="middle" x="401.39" y="-174.3" font-family="Times,serif" font-size="14.00">label type</text>
</g>
<!-- entity to phenotypic feature association&#45;&gt;name -->
<g id="edge4" class="edge">
<title>entity to phenotypic feature association&#45;&gt;name</title>
<path fill="none" stroke="blue" d="M1031.99,-262.84C907.19,-259.72 741.99,-251.16 597.39,-229 546.19,-221.15 488.93,-205.75 449.58,-194.1"/>
<polygon fill="blue" stroke="blue" points="450.56,-190.74 439.98,-191.23 448.56,-197.45 450.56,-190.74"/>
<text text-anchor="middle" x="617.39" y="-217.8" font-family="Times,serif" font-size="14.00">name</text>
</g>
<!-- description -->
<g id="node6" class="node">
<title>description</title>
<ellipse fill="none" stroke="blue" cx="551.39" cy="-178" rx="75.29" ry="18"/>
<text text-anchor="middle" x="551.39" y="-174.3" font-family="Times,serif" font-size="14.00">narrative text</text>
</g>
<!-- entity to phenotypic feature association&#45;&gt;description -->
<g id="edge5" class="edge">
<title>entity to phenotypic feature association&#45;&gt;description</title>
<path fill="none" stroke="blue" d="M1048.15,-257.57C919.8,-251.95 758.14,-242.54 692.39,-229 658.83,-222.09 622.41,-209.02 594.99,-197.98"/>
<polygon fill="blue" stroke="blue" points="596.27,-194.72 585.69,-194.17 593.62,-201.19 596.27,-194.72"/>
<text text-anchor="middle" x="732.89" y="-217.8" font-family="Times,serif" font-size="14.00">description</text>
</g>
<!-- source -->
<g id="node7" class="node">
<title>source</title>
<ellipse fill="none" stroke="blue" cx="701.39" cy="-178" rx="56.59" ry="18"/>
<text text-anchor="middle" x="701.39" y="-174.3" font-family="Times,serif" font-size="14.00">label type</text>
</g>
<!-- entity to phenotypic feature association&#45;&gt;source -->
<g id="edge6" class="edge">
<title>entity to phenotypic feature association&#45;&gt;source</title>
<path fill="none" stroke="blue" d="M1038.69,-259.84C969.61,-255.16 891.22,-246.13 821.39,-229 792.69,-221.96 761.95,-209.04 738.77,-198.1"/>
<polygon fill="blue" stroke="blue" points="740.17,-194.89 729.64,-193.7 737.14,-201.19 740.17,-194.89"/>
<text text-anchor="middle" x="845.39" y="-217.8" font-family="Times,serif" font-size="14.00">source</text>
</g>
<!-- provided by -->
<g id="node8" class="node">
<title>provided by</title>
<ellipse fill="none" stroke="blue" cx="813.39" cy="-178" rx="37.09" ry="18"/>
<text text-anchor="middle" x="813.39" y="-174.3" font-family="Times,serif" font-size="14.00">agent</text>
</g>
<!-- entity to phenotypic feature association&#45;&gt;provided by -->
<g id="edge7" class="edge">
<title>entity to phenotypic feature association&#45;&gt;provided by</title>
<path fill="none" stroke="blue" d="M1052.37,-256.69C1004.94,-251.52 954.07,-242.98 908.39,-229 885.33,-221.94 861.3,-209.24 843.18,-198.4"/>
<polygon fill="blue" stroke="blue" points="844.63,-195.19 834.28,-192.95 840.98,-201.16 844.63,-195.19"/>
<text text-anchor="middle" x="950.89" y="-217.8" font-family="Times,serif" font-size="14.00">provided by</text>
</g>
<!-- has attribute -->
<g id="node9" class="node">
<title>has attribute</title>
<ellipse fill="none" stroke="blue" cx="920.39" cy="-178" rx="51.99" ry="18"/>
<text text-anchor="middle" x="920.39" y="-174.3" font-family="Times,serif" font-size="14.00">attribute</text>
</g>
<!-- entity to phenotypic feature association&#45;&gt;has attribute -->
<g id="edge8" class="edge">
<title>entity to phenotypic feature association&#45;&gt;has attribute</title>
<path fill="none" stroke="blue" d="M1124.31,-249.55C1095.56,-244.31 1064.48,-237.52 1036.39,-229 1009.4,-220.81 980.25,-208.23 957.92,-197.73"/>
<polygon fill="blue" stroke="blue" points="959.33,-194.53 948.8,-193.38 956.32,-200.85 959.33,-194.53"/>
<text text-anchor="middle" x="1083.39" y="-217.8" font-family="Times,serif" font-size="14.00">has attribute</text>
</g>
<!-- subject -->
<g id="node10" class="node">
<title>subject</title>
<ellipse fill="none" stroke="blue" cx="1060.39" cy="-178" rx="69.59" ry="18"/>
<text text-anchor="middle" x="1060.39" y="-174.3" font-family="Times,serif" font-size="14.00">named thing</text>
</g>
<!-- entity to phenotypic feature association&#45;&gt;subject -->
<g id="edge9" class="edge">
<title>entity to phenotypic feature association&#45;&gt;subject</title>
<path fill="none" stroke="blue" d="M1193.6,-247.21C1166.49,-233.32 1127.92,-213.58 1099.26,-198.9"/>
<polygon fill="blue" stroke="blue" points="1100.83,-195.77 1090.33,-194.33 1097.64,-202 1100.83,-195.77"/>
<text text-anchor="middle" x="1179.39" y="-217.8" font-family="Times,serif" font-size="14.00">subject</text>
</g>
<!-- predicate -->
<g id="node11" class="node">
<title>predicate</title>
<ellipse fill="none" stroke="blue" cx="1226.39" cy="-178" rx="77.99" ry="18"/>
<text text-anchor="middle" x="1226.39" y="-174.3" font-family="Times,serif" font-size="14.00">predicate type</text>
</g>
<!-- entity to phenotypic feature association&#45;&gt;predicate -->
<g id="edge10" class="edge">
<title>entity to phenotypic feature association&#45;&gt;predicate</title>
<path fill="none" stroke="blue" d="M1226.39,-246.8C1226.39,-235.16 1226.39,-219.55 1226.39,-206.24"/>
<polygon fill="blue" stroke="blue" points="1229.89,-206.18 1226.39,-196.18 1222.89,-206.18 1229.89,-206.18"/>
<text text-anchor="middle" x="1260.39" y="-217.8" font-family="Times,serif" font-size="14.00">predicate</text>
</g>
<!-- object -->
<g id="node12" class="node">
<title>object</title>
<ellipse fill="none" stroke="blue" cx="1275.39" cy="-91" rx="69.59" ry="18"/>
<text text-anchor="middle" x="1275.39" y="-87.3" font-family="Times,serif" font-size="14.00">named thing</text>
</g>
<!-- entity to phenotypic feature association&#45;&gt;object -->
<g id="edge11" class="edge">
<title>entity to phenotypic feature association&#45;&gt;object</title>
<path fill="none" stroke="blue" d="M1272.57,-247.45C1281.93,-242.56 1291.12,-236.47 1298.39,-229 1309.64,-217.46 1309.98,-211.75 1313.39,-196 1316.78,-180.36 1317.43,-175.48 1313.39,-160 1309.44,-144.84 1301.29,-129.47 1293.54,-117.19"/>
<polygon fill="blue" stroke="blue" points="1296.46,-115.26 1288.03,-108.84 1290.61,-119.11 1296.46,-115.26"/>
<text text-anchor="middle" x="1338.39" y="-174.3" font-family="Times,serif" font-size="14.00">object</text>
</g>
<!-- relation -->
<g id="node13" class="node">
<title>relation</title>
<ellipse fill="none" stroke="blue" cx="1275.39" cy="-18" rx="38.19" ry="18"/>
<text text-anchor="middle" x="1275.39" y="-14.3" font-family="Times,serif" font-size="14.00">string</text>
</g>
<!-- entity to phenotypic feature association&#45;&gt;relation -->
<g id="edge12" class="edge">
<title>entity to phenotypic feature association&#45;&gt;relation</title>
<path fill="none" stroke="blue" d="M1297.49,-248.1C1324.11,-238.07 1351.1,-221.9 1364.39,-196 1376.33,-172.75 1368.26,-95.99 1354.39,-73 1344.57,-56.71 1327.72,-44.19 1312.1,-35.32"/>
<polygon fill="blue" stroke="blue" points="1313.58,-32.14 1303.11,-30.52 1310.29,-38.32 1313.58,-32.14"/>
<text text-anchor="middle" x="1398.39" y="-130.8" font-family="Times,serif" font-size="14.00">relation</text>
</g>
<!-- negated -->
<g id="node14" class="node">
<title>negated</title>
<ellipse fill="none" stroke="blue" cx="1487.39" cy="-178" rx="46.59" ry="18"/>
<text text-anchor="middle" x="1487.39" y="-174.3" font-family="Times,serif" font-size="14.00">boolean</text>
</g>
<!-- entity to phenotypic feature association&#45;&gt;negated -->
<g id="edge13" class="edge">
<title>entity to phenotypic feature association&#45;&gt;negated</title>
<path fill="none" stroke="blue" d="M1355.51,-251.43C1379.74,-246.3 1404.37,-239.1 1426.39,-229 1440.62,-222.48 1454.3,-211.82 1465.08,-202.01"/>
<polygon fill="blue" stroke="blue" points="1467.54,-204.51 1472.39,-195.09 1462.72,-199.42 1467.54,-204.51"/>
<text text-anchor="middle" x="1479.39" y="-217.8" font-family="Times,serif" font-size="14.00">negated</text>
</g>
<!-- qualifiers -->
<g id="node15" class="node">
<title>qualifiers</title>
<ellipse fill="none" stroke="blue" cx="1628.39" cy="-178" rx="76.89" ry="18"/>
<text text-anchor="middle" x="1628.39" y="-174.3" font-family="Times,serif" font-size="14.00">ontology class</text>
</g>
<!-- entity to phenotypic feature association&#45;&gt;qualifiers -->
<g id="edge14" class="edge">
<title>entity to phenotypic feature association&#45;&gt;qualifiers</title>
<path fill="none" stroke="blue" d="M1377.86,-253.6C1421.76,-248.41 1469.42,-240.63 1512.39,-229 1539.07,-221.78 1567.58,-209.55 1589.67,-199"/>
<polygon fill="blue" stroke="blue" points="1591.26,-202.12 1598.72,-194.6 1588.19,-195.83 1591.26,-202.12"/>
<text text-anchor="middle" x="1588.89" y="-217.8" font-family="Times,serif" font-size="14.00">qualifiers</text>
</g>
<!-- publications -->
<g id="node16" class="node">
<title>publications</title>
<ellipse fill="none" stroke="blue" cx="1785.39" cy="-178" rx="62.29" ry="18"/>
<text text-anchor="middle" x="1785.39" y="-174.3" font-family="Times,serif" font-size="14.00">publication</text>
</g>
<!-- entity to phenotypic feature association&#45;&gt;publications -->
<g id="edge15" class="edge">
<title>entity to phenotypic feature association&#45;&gt;publications</title>
<path fill="none" stroke="blue" d="M1364.82,-252.24C1477.79,-242.59 1619.85,-230.3 1626.39,-229 1665.32,-221.27 1708.18,-207.47 1739.58,-196.33"/>
<polygon fill="blue" stroke="blue" points="1741.13,-199.49 1749.35,-192.81 1738.76,-192.9 1741.13,-199.49"/>
<text text-anchor="middle" x="1728.39" y="-217.8" font-family="Times,serif" font-size="14.00">publications</text>
</g>
<!-- has evidence -->
<g id="node17" class="node">
<title>has evidence</title>
<ellipse fill="none" stroke="blue" cx="1941.39" cy="-178" rx="75.29" ry="18"/>
<text text-anchor="middle" x="1941.39" y="-174.3" font-family="Times,serif" font-size="14.00">evidence type</text>
</g>
<!-- entity to phenotypic feature association&#45;&gt;has evidence -->
<g id="edge16" class="edge">
<title>entity to phenotypic feature association&#45;&gt;has evidence</title>
<path fill="none" stroke="blue" d="M1363.09,-252.08C1385.89,-250.26 1409.3,-248.49 1431.39,-247 1584.59,-236.65 1625.15,-255.46 1776.39,-229 1816.61,-221.97 1860.81,-208.23 1893.33,-196.94"/>
<polygon fill="blue" stroke="blue" points="1894.76,-200.14 1903.03,-193.52 1892.44,-193.54 1894.76,-200.14"/>
<text text-anchor="middle" x="1882.89" y="-217.8" font-family="Times,serif" font-size="14.00">has evidence</text>
</g>
<!-- type -->
<g id="node18" class="node">
<title>type</title>
<ellipse fill="none" stroke="black" cx="2066.39" cy="-178" rx="31.4" ry="18"/>
<text text-anchor="middle" x="2066.39" y="-174.3" font-family="Times,serif" font-size="14.00">type</text>
</g>
<!-- entity to phenotypic feature association&#45;&gt;type -->
<g id="edge17" class="edge">
<title>entity to phenotypic feature association&#45;&gt;type</title>
<path fill="none" stroke="blue" d="M1361.14,-251.92C1384.55,-250.08 1408.67,-248.35 1431.39,-247 1542.83,-240.39 1823.78,-250.1 1933.39,-229 1969.21,-222.11 2008.01,-206.5 2034.41,-194.54"/>
<polygon fill="blue" stroke="blue" points="2035.94,-197.69 2043.55,-190.32 2033,-191.34 2035.94,-197.69"/>
<text text-anchor="middle" x="2002.39" y="-217.8" font-family="Times,serif" font-size="14.00">type</text>
</g>
<!-- category -->
<g id="node20" class="node">
<title>category</title>
<ellipse fill="none" stroke="black" cx="2167.39" cy="-178" rx="51.19" ry="18"/>
<text text-anchor="middle" x="2167.39" y="-174.3" font-family="Times,serif" font-size="14.00">category</text>
</g>
<!-- entity to phenotypic feature association&#45;&gt;category -->
<g id="edge18" class="edge">
<title>entity to phenotypic feature association&#45;&gt;category</title>
<path fill="none" stroke="blue" d="M1360.58,-251.86C1384.16,-250.02 1408.49,-248.3 1431.39,-247 1562.58,-239.57 1893.15,-252.69 2022.39,-229 2058.99,-222.29 2098.82,-208.02 2127.47,-196.43"/>
<polygon fill="blue" stroke="blue" points="2128.81,-199.66 2136.73,-192.62 2126.15,-193.19 2128.81,-199.66"/>
<text text-anchor="middle" x="2110.89" y="-217.8" font-family="Times,serif" font-size="14.00">category</text>
</g>
<!-- FDA approval status -->
<g id="node22" class="node">
<title>FDA approval status</title>
<ellipse fill="none" stroke="blue" cx="2375.39" cy="-178" rx="139.18" ry="18"/>
<text text-anchor="middle" x="2375.39" y="-174.3" font-family="Times,serif" font-size="14.00">FDA_approval_status_enum</text>
</g>
<!-- entity to phenotypic feature association&#45;&gt;FDA approval status -->
<g id="edge19" class="edge">
<title>entity to phenotypic feature association&#45;&gt;FDA approval status</title>
<path fill="none" stroke="blue" d="M1359.75,-251.82C1383.59,-249.96 1408.22,-248.25 1431.39,-247 1748.81,-229.86 1830.8,-267.08 2146.39,-229 2201.91,-222.3 2263.81,-208.39 2309.24,-196.93"/>
<polygon fill="blue" stroke="blue" points="2310.14,-200.32 2318.97,-194.46 2308.42,-193.53 2310.14,-200.32"/>
<text text-anchor="middle" x="2308.89" y="-217.8" font-family="Times,serif" font-size="14.00">FDA approval status</text>
</g>
<!-- subject&#45;&gt;object -->
<g id="edge20" class="edge">
<title>subject&#45;&gt;object</title>
<path fill="none" stroke="black" d="M1096.87,-162.58C1133.39,-148.14 1189.72,-125.87 1229.31,-110.22"/>
<polygon fill="black" stroke="black" points="1230.73,-113.42 1238.74,-106.49 1228.16,-106.91 1230.73,-113.42"/>
<text text-anchor="middle" x="1209.39" y="-130.8" font-family="Times,serif" font-size="14.00">relation</text>
</g>
<!-- subject&#45;&gt;relation -->
<g id="edge21" class="edge">
<title>subject&#45;&gt;relation</title>
<path fill="none" stroke="black" stroke-dasharray="1,5" d="M1080.87,-160.8C1107.27,-140.04 1154.73,-103.14 1196.39,-73 1212.49,-61.36 1230.77,-48.82 1245.7,-38.75"/>
<polygon fill="black" stroke="black" points="1247.71,-41.62 1254.06,-33.14 1243.8,-35.81 1247.71,-41.62"/>
</g>
<!-- object&#45;&gt;relation -->
<g id="edge22" class="edge">
<title>object&#45;&gt;relation</title>
<path fill="none" stroke="black" stroke-dasharray="1,5" d="M1275.39,-72.81C1275.39,-64.79 1275.39,-55.05 1275.39,-46.07"/>
<polygon fill="black" stroke="black" points="1278.89,-46.03 1275.39,-36.03 1271.89,-46.03 1278.89,-46.03"/>
</g>
<!-- association_type -->
<g id="node19" class="node">
<title>association_type</title>
<ellipse fill="none" stroke="blue" cx="1478.39" cy="-265" rx="38.19" ry="18"/>
<text text-anchor="middle" x="1478.39" y="-261.3" font-family="Times,serif" font-size="14.00">string</text>
</g>
<!-- association_category -->
<g id="node21" class="node">
<title>association_category</title>
<ellipse fill="none" stroke="blue" cx="1609.39" cy="-265" rx="74.99" ry="18"/>
<text text-anchor="middle" x="1609.39" y="-261.3" font-family="Times,serif" font-size="14.00">category type</text>
</g>
</g>
</svg>
