<?xml version="1.0" encoding="UTF-8" standalone="no"?>
<!DOCTYPE svg PUBLIC "-//W3C//DTD SVG 1.1//EN"
 "http://www.w3.org/Graphics/SVG/1.1/DTD/svg11.dtd">
<!-- Generated by graphviz version 3.0.0 (20220226.1711)
 -->
<!-- Pages: 1 -->
<svg width="794pt" height="131pt"
 viewBox="0.00 0.00 793.84 131.00" xmlns="http://www.w3.org/2000/svg" xmlns:xlink="http://www.w3.org/1999/xlink">
<g id="graph0" class="graph" transform="scale(1 1) rotate(0) translate(4 127)">
<polygon fill="white" stroke="transparent" points="-4,4 -4,-127 789.84,-127 789.84,4 -4,4"/>
<!-- entity -->
<g id="node1" class="node">
<title>entity</title>
<ellipse fill="none" stroke="black" cx="382.55" cy="-105" rx="30.59" ry="18"/>
<text text-anchor="middle" x="382.55" y="-101.3" font-family="Times,serif" font-size="14.00">entity</text>
</g>
<!-- id -->
<g id="node2" class="node">
<title>id</title>
<ellipse fill="none" stroke="blue" cx="30.55" cy="-18" rx="30.59" ry="18"/>
<text text-anchor="middle" x="30.55" y="-14.3" font-family="Times,serif" font-size="14.00">string</text>
</g>
<!-- entity&#45;&gt;id -->
<g id="edge1" class="edge">
<title>entity&#45;&gt;id</title>
<path fill="none" stroke="blue" d="M353.18,-99.7C297.23,-91.06 171.88,-69.48 70.55,-36 68.17,-35.21 65.73,-34.34 63.29,-33.43"/>
<polygon fill="blue" stroke="blue" points="64.57,-30.17 53.99,-29.73 61.99,-36.68 64.57,-30.17"/>
<text text-anchor="middle" x="195.05" y="-57.8" font-family="Times,serif" font-size="14.00">id</text>
</g>
<!-- iri -->
<g id="node3" class="node">
<title>iri</title>
<ellipse fill="none" stroke="blue" cx="115.55" cy="-18" rx="36.29" ry="18"/>
<text text-anchor="middle" x="115.55" y="-14.3" font-family="Times,serif" font-size="14.00">iri type</text>
</g>
<!-- entity&#45;&gt;iri -->
<g id="edge2" class="edge">
<title>entity&#45;&gt;iri</title>
<path fill="none" stroke="blue" d="M355.49,-96.28C313.65,-84.22 230.84,-59.78 161.55,-36 158.83,-35.07 156.03,-34.08 153.21,-33.08"/>
<polygon fill="blue" stroke="blue" points="154.29,-29.75 143.69,-29.64 151.91,-36.33 154.29,-29.75"/>
<text text-anchor="middle" x="265.05" y="-57.8" font-family="Times,serif" font-size="14.00">iri</text>
</g>
<!-- category -->
<g id="node4" class="node">
<title>category</title>
<ellipse fill="none" stroke="blue" cx="228.55" cy="-18" rx="58.49" ry="18"/>
<text text-anchor="middle" x="228.55" y="-14.3" font-family="Times,serif" font-size="14.00">category type</text>
</g>
<!-- entity&#45;&gt;category -->
<g id="edge3" class="edge">
<title>entity&#45;&gt;category</title>
<path fill="none" stroke="blue" d="M358.16,-94.02C342.79,-87.47 322.67,-78.39 305.55,-69 289.95,-60.45 273.33,-49.86 259.53,-40.63"/>
<polygon fill="blue" stroke="blue" points="261.15,-37.5 250.91,-34.79 257.23,-43.3 261.15,-37.5"/>
<text text-anchor="middle" x="329.05" y="-57.8" font-family="Times,serif" font-size="14.00">category</text>
</g>
<!-- type -->
<g id="node5" class="node">
<title>type</title>
<ellipse fill="none" stroke="blue" cx="335.55" cy="-18" rx="30.59" ry="18"/>
<text text-anchor="middle" x="335.55" y="-14.3" font-family="Times,serif" font-size="14.00">string</text>
</g>
<!-- entity&#45;&gt;type -->
<g id="edge4" class="edge">
<title>entity&#45;&gt;type</title>
<path fill="none" stroke="blue" d="M373.49,-87.61C366.72,-75.38 357.36,-58.44 349.62,-44.46"/>
<polygon fill="blue" stroke="blue" points="352.48,-42.4 344.58,-35.34 346.36,-45.78 352.48,-42.4"/>
<text text-anchor="middle" x="374.55" y="-57.8" font-family="Times,serif" font-size="14.00">type</text>
</g>
<!-- name -->
<g id="node6" class="node">
<title>name</title>
<ellipse fill="none" stroke="blue" cx="429.55" cy="-18" rx="45.49" ry="18"/>
<text text-anchor="middle" x="429.55" y="-14.3" font-family="Times,serif" font-size="14.00">label type</text>
</g>
<!-- entity&#45;&gt;name -->
<g id="edge5" class="edge">
<title>entity&#45;&gt;name</title>
<path fill="none" stroke="blue" d="M391.61,-87.61C398.28,-75.54 407.5,-58.88 415.17,-45"/>
<polygon fill="blue" stroke="blue" points="418.42,-46.37 420.19,-35.92 412.29,-42.98 418.42,-46.37"/>
<text text-anchor="middle" x="425.05" y="-57.8" font-family="Times,serif" font-size="14.00">name</text>
</g>
<!-- description -->
<g id="node7" class="node">
<title>description</title>
<ellipse fill="none" stroke="blue" cx="550.55" cy="-18" rx="57.69" ry="18"/>
<text text-anchor="middle" x="550.55" y="-14.3" font-family="Times,serif" font-size="14.00">narrative text</text>
</g>
<!-- entity&#45;&gt;description -->
<g id="edge6" class="edge">
<title>entity&#45;&gt;description</title>
<path fill="none" stroke="blue" d="M405.2,-92.54C432.71,-78.62 479.52,-54.94 512.57,-38.22"/>
<polygon fill="blue" stroke="blue" points="514.16,-41.33 521.5,-33.7 511,-35.09 514.16,-41.33"/>
<text text-anchor="middle" x="508.05" y="-57.8" font-family="Times,serif" font-size="14.00">description</text>
</g>
<!-- source -->
<g id="node8" class="node">
<title>source</title>
<ellipse fill="none" stroke="blue" cx="656.55" cy="-18" rx="30.59" ry="18"/>
<text text-anchor="middle" x="656.55" y="-14.3" font-family="Times,serif" font-size="14.00">string</text>
</g>
<!-- entity&#45;&gt;source -->
<g id="edge7" class="edge">
<title>entity&#45;&gt;source</title>
<path fill="none" stroke="blue" d="M411.62,-99.43C444.03,-93.92 497.79,-83.55 542.55,-69 571.14,-59.7 602.33,-45.74 624.84,-34.94"/>
<polygon fill="blue" stroke="blue" points="626.46,-38.04 633.92,-30.52 623.4,-31.74 626.46,-38.04"/>
<text text-anchor="middle" x="599.55" y="-57.8" font-family="Times,serif" font-size="14.00">source</text>
</g>
<!-- has attribute -->
<g id="node9" class="node">
<title>has attribute</title>
<ellipse fill="none" stroke="blue" cx="745.55" cy="-18" rx="40.09" ry="18"/>
<text text-anchor="middle" x="745.55" y="-14.3" font-family="Times,serif" font-size="14.00">attribute</text>
</g>
<!-- entity&#45;&gt;has attribute -->
<g id="edge8" class="edge">
<title>entity&#45;&gt;has attribute</title>
<path fill="none" stroke="blue" d="M412.82,-101.89C458.65,-98.17 548.08,-88.89 621.55,-69 652.21,-60.7 685.52,-46.99 709.89,-36.02"/>
<polygon fill="blue" stroke="blue" points="711.45,-39.16 719.09,-31.82 708.54,-32.79 711.45,-39.16"/>
<text text-anchor="middle" x="697.05" y="-57.8" font-family="Times,serif" font-size="14.00">has attribute</text>
</g>
</g>
</svg>
