<?xml version="1.0" encoding="UTF-8" standalone="no"?>
<!DOCTYPE svg PUBLIC "-//W3C//DTD SVG 1.1//EN"
 "http://www.w3.org/Graphics/SVG/1.1/DTD/svg11.dtd">
<!-- Generated by graphviz version 2.40.1 (20161225.0304)
 -->
<!-- Title: %3 Pages: 1 -->
<svg width="772pt" height="131pt"
 viewBox="0.00 0.00 772.04 131.00" xmlns="http://www.w3.org/2000/svg" xmlns:xlink="http://www.w3.org/1999/xlink">
<g id="graph0" class="graph" transform="scale(1 1) rotate(0) translate(4 127)">
<title>%3</title>
<polygon fill="#ffffff" stroke="transparent" points="-4,4 -4,-127 768.0386,-127 768.0386,4 -4,4"/>
<!-- entity to feature or disease qualifiers mixin -->
<g id="node1" class="node">
<title>entity to feature or disease qualifiers mixin</title>
<ellipse fill="none" stroke="#000000" cx="440.0386" cy="-105" rx="212.5623" ry="18"/>
<text text-anchor="middle" x="440.0386" y="-101.3" font-family="Times,serif" font-size="14.00" fill="#000000">entity to feature or disease qualifiers mixin</text>
</g>
<!-- frequency qualifier mixin -->
<g id="node2" class="node">
<title>frequency qualifier mixin</title>
<ellipse fill="none" stroke="#000000" cx="128.0386" cy="-18" rx="128.0773" ry="18"/>
<text text-anchor="middle" x="128.0386" y="-14.3" font-family="Times,serif" font-size="14.00" fill="#000000">frequency qualifier mixin</text>
</g>
<!-- entity to feature or disease qualifiers mixin&#45;&gt;frequency qualifier mixin -->
<g id="edge1" class="edge">
<title>entity to feature or disease qualifiers mixin&#45;&gt;frequency qualifier mixin</title>
<path fill="none" stroke="#000000" d="M378.0244,-87.7076C325.3252,-73.0126 249.812,-51.956 195.5902,-36.8365"/>
<polygon fill="#000000" stroke="#000000" points="196.2965,-33.4 185.7238,-34.0853 194.4163,-40.1427 196.2965,-33.4"/>
<text text-anchor="middle" x="317.0386" y="-57.8" font-family="Times,serif" font-size="14.00" fill="#000000">is_a</text>
</g>
<!-- frequency qualifier -->
<g id="node3" class="node">
<title>frequency qualifier</title>
<ellipse fill="none" stroke="#0000ff" cx="359.0386" cy="-18" rx="85.2851" ry="18"/>
<text text-anchor="middle" x="359.0386" y="-14.3" font-family="Times,serif" font-size="14.00" fill="#000000">frequency value</text>
</g>
<!-- entity to feature or disease qualifiers mixin&#45;&gt;frequency qualifier -->
<g id="edge2" class="edge">
<title>entity to feature or disease qualifiers mixin&#45;&gt;frequency qualifier</title>
<path fill="none" stroke="#0000ff" d="M392.8839,-87.4313C384.6296,-82.5449 376.8413,-76.4689 371.0386,-69 365.9377,-62.4343 362.9496,-54.0554 361.2157,-45.995"/>
<polygon fill="#0000ff" stroke="#0000ff" points="364.6704,-45.4329 359.6258,-36.1162 357.7593,-46.5453 364.6704,-45.4329"/>
<text text-anchor="middle" x="439.5386" y="-57.8" font-family="Times,serif" font-size="14.00" fill="#000000">frequency qualifier</text>
</g>
<!-- severity qualifier -->
<g id="node4" class="node">
<title>severity qualifier</title>
<ellipse fill="none" stroke="#0000ff" cx="538.0386" cy="-18" rx="76.0865" ry="18"/>
<text text-anchor="middle" x="538.0386" y="-14.3" font-family="Times,serif" font-size="14.00" fill="#000000">severity value</text>
</g>
<!-- entity to feature or disease qualifiers mixin&#45;&gt;severity qualifier -->
<g id="edge3" class="edge">
<title>entity to feature or disease qualifiers mixin&#45;&gt;severity qualifier</title>
<path fill="none" stroke="#0000ff" d="M482.3798,-87.2372C491.4905,-82.1973 500.6045,-76.1082 508.0386,-69 515.0515,-62.2947 520.9733,-53.5947 525.6546,-45.2847"/>
<polygon fill="#0000ff" stroke="#0000ff" points="528.8749,-46.6792 530.4048,-36.1954 522.6711,-43.4369 528.8749,-46.6792"/>
<text text-anchor="middle" x="581.5386" y="-57.8" font-family="Times,serif" font-size="14.00" fill="#000000">severity qualifier</text>
</g>
<!-- onset qualifier -->
<g id="node5" class="node">
<title>onset qualifier</title>
<ellipse fill="none" stroke="#0000ff" cx="676.0386" cy="-18" rx="36.2938" ry="18"/>
<text text-anchor="middle" x="676.0386" y="-14.3" font-family="Times,serif" font-size="14.00" fill="#000000">onset</text>
</g>
<!-- entity to feature or disease qualifiers mixin&#45;&gt;onset qualifier -->
<g id="edge4" class="edge">
<title>entity to feature or disease qualifiers mixin&#45;&gt;onset qualifier</title>
<path fill="none" stroke="#0000ff" d="M572.6993,-90.9044C604.8605,-85.4945 633.799,-78.3123 647.0386,-69 655.3594,-63.1475 661.6016,-54.0991 666.1207,-45.2391"/>
<polygon fill="#0000ff" stroke="#0000ff" points="669.4312,-46.4129 670.365,-35.8593 663.0537,-43.5271 669.4312,-46.4129"/>
<text text-anchor="middle" x="712.0386" y="-57.8" font-family="Times,serif" font-size="14.00" fill="#000000">onset qualifier</text>
</g>
</g>
</svg>
