<?xml version="1.0" encoding="UTF-8" standalone="no"?>
<!DOCTYPE svg PUBLIC "-//W3C//DTD SVG 1.1//EN"
 "http://www.w3.org/Graphics/SVG/1.1/DTD/svg11.dtd">
<!-- Generated by graphviz version 2.43.0 (0)
 -->
<!-- Title: %3 Pages: 1 -->
<svg width="2353pt" height="291pt"
 viewBox="0.00 0.00 2353.48 291.00" xmlns="http://www.w3.org/2000/svg" xmlns:xlink="http://www.w3.org/1999/xlink">
<g id="graph0" class="graph" transform="scale(1 1) rotate(0) translate(4 287)">
<title>%3</title>
<polygon fill="white" stroke="transparent" points="-4,4 -4,-287 2349.48,-287 2349.48,4 -4,4"/>
<!-- entity to disease association -->
<g id="node1" class="node">
<title>entity to disease association</title>
<ellipse fill="none" stroke="black" cx="1184.39" cy="-265" rx="142.17" ry="18"/>
<text text-anchor="middle" x="1184.39" y="-261.3" font-family="Times,serif" font-size="14.00">entity to disease association</text>
</g>
<!-- association -->
<g id="node2" class="node">
<title>association</title>
<ellipse fill="none" stroke="black" cx="62.39" cy="-178" rx="62.29" ry="18"/>
<text text-anchor="middle" x="62.39" y="-174.3" font-family="Times,serif" font-size="14.00">association</text>
</g>
<!-- entity to disease association&#45;&gt;association -->
<g id="edge1" class="edge">
<title>entity to disease association&#45;&gt;association</title>
<path fill="none" stroke="black" d="M1043.53,-262.06C824.85,-258.46 413.71,-249.2 268.39,-229 214.85,-221.56 154.93,-206.19 113.58,-194.45"/>
<polygon fill="black" stroke="black" points="114.32,-191.02 103.74,-191.62 112.39,-197.75 114.32,-191.02"/>
<text text-anchor="middle" x="282.39" y="-217.8" font-family="Times,serif" font-size="14.00">is_a</text>
</g>
<!-- id -->
<g id="node3" class="node">
<title>id</title>
<ellipse fill="none" stroke="blue" cx="181.39" cy="-178" rx="38.19" ry="18"/>
<text text-anchor="middle" x="181.39" y="-174.3" font-family="Times,serif" font-size="14.00">string</text>
</g>
<!-- entity to disease association&#45;&gt;id -->
<g id="edge2" class="edge">
<title>entity to disease association&#45;&gt;id</title>
<path fill="none" stroke="blue" d="M1042.03,-264.3C883.25,-263.1 619.05,-256.53 393.39,-229 319.59,-220 301.06,-215.79 229.39,-196 226.28,-195.14 223.08,-194.18 219.89,-193.17"/>
<polygon fill="blue" stroke="blue" points="220.97,-189.84 210.37,-190.01 218.76,-196.48 220.97,-189.84"/>
<text text-anchor="middle" x="400.39" y="-217.8" font-family="Times,serif" font-size="14.00">id</text>
</g>
<!-- iri -->
<g id="node4" class="node">
<title>iri</title>
<ellipse fill="none" stroke="blue" cx="282.39" cy="-178" rx="44.39" ry="18"/>
<text text-anchor="middle" x="282.39" y="-174.3" font-family="Times,serif" font-size="14.00">iri type</text>
</g>
<!-- entity to disease association&#45;&gt;iri -->
<g id="edge3" class="edge">
<title>entity to disease association&#45;&gt;iri</title>
<path fill="none" stroke="blue" d="M1043.12,-262.48C905.43,-259.64 690.37,-251.61 505.39,-229 429,-219.66 409.95,-215.12 335.39,-196 332.02,-195.13 328.54,-194.17 325.05,-193.16"/>
<polygon fill="blue" stroke="blue" points="325.88,-189.76 315.3,-190.22 323.86,-196.46 325.88,-189.76"/>
<text text-anchor="middle" x="513.39" y="-217.8" font-family="Times,serif" font-size="14.00">iri</text>
</g>
<!-- name -->
<g id="node5" class="node">
<title>name</title>
<ellipse fill="none" stroke="blue" cx="401.39" cy="-178" rx="56.59" ry="18"/>
<text text-anchor="middle" x="401.39" y="-174.3" font-family="Times,serif" font-size="14.00">label type</text>
</g>
<!-- entity to disease association&#45;&gt;name -->
<g id="edge4" class="edge">
<title>entity to disease association&#45;&gt;name</title>
<path fill="none" stroke="blue" d="M1042.6,-263.29C922.57,-260.85 746.31,-252.95 594.39,-229 544.33,-221.11 488.4,-205.89 449.69,-194.3"/>
<polygon fill="blue" stroke="blue" points="450.33,-190.84 439.74,-191.29 448.3,-197.54 450.33,-190.84"/>
<text text-anchor="middle" x="614.39" y="-217.8" font-family="Times,serif" font-size="14.00">name</text>
</g>
<!-- description -->
<g id="node6" class="node">
<title>description</title>
<ellipse fill="none" stroke="blue" cx="551.39" cy="-178" rx="75.29" ry="18"/>
<text text-anchor="middle" x="551.39" y="-174.3" font-family="Times,serif" font-size="14.00">narrative text</text>
</g>
<!-- entity to disease association&#45;&gt;description -->
<g id="edge5" class="edge">
<title>entity to disease association&#45;&gt;description</title>
<path fill="none" stroke="blue" d="M1050.45,-258.81C927.32,-253.27 754.1,-243.31 687.39,-229 655.19,-222.09 620.36,-209.17 594,-198.2"/>
<polygon fill="blue" stroke="blue" points="595.27,-194.93 584.7,-194.26 592.54,-201.38 595.27,-194.93"/>
<text text-anchor="middle" x="727.89" y="-217.8" font-family="Times,serif" font-size="14.00">description</text>
</g>
<!-- source -->
<g id="node7" class="node">
<title>source</title>
<ellipse fill="none" stroke="blue" cx="701.39" cy="-178" rx="56.59" ry="18"/>
<text text-anchor="middle" x="701.39" y="-174.3" font-family="Times,serif" font-size="14.00">label type</text>
</g>
<!-- entity to disease association&#45;&gt;source -->
<g id="edge6" class="edge">
<title>entity to disease association&#45;&gt;source</title>
<path fill="none" stroke="blue" d="M1044.66,-261.54C974.33,-257.62 888.32,-248.69 813.39,-229 786.84,-222.02 758.63,-209.39 737.16,-198.57"/>
<polygon fill="blue" stroke="blue" points="738.6,-195.37 728.1,-193.91 735.39,-201.6 738.6,-195.37"/>
<text text-anchor="middle" x="837.39" y="-217.8" font-family="Times,serif" font-size="14.00">source</text>
</g>
<!-- provided by -->
<g id="node8" class="node">
<title>provided by</title>
<ellipse fill="none" stroke="blue" cx="813.39" cy="-178" rx="37.09" ry="18"/>
<text text-anchor="middle" x="813.39" y="-174.3" font-family="Times,serif" font-size="14.00">agent</text>
</g>
<!-- entity to disease association&#45;&gt;provided by -->
<g id="edge7" class="edge">
<title>entity to disease association&#45;&gt;provided by</title>
<path fill="none" stroke="blue" d="M1048.62,-259.52C999.32,-254.8 943.86,-245.82 895.39,-229 875.77,-222.19 855.83,-210.17 840.53,-199.62"/>
<polygon fill="blue" stroke="blue" points="842.27,-196.57 832.09,-193.63 838.22,-202.28 842.27,-196.57"/>
<text text-anchor="middle" x="937.89" y="-217.8" font-family="Times,serif" font-size="14.00">provided by</text>
</g>
<!-- has attribute -->
<g id="node9" class="node">
<title>has attribute</title>
<ellipse fill="none" stroke="blue" cx="920.39" cy="-178" rx="51.99" ry="18"/>
<text text-anchor="middle" x="920.39" y="-174.3" font-family="Times,serif" font-size="14.00">attribute</text>
</g>
<!-- entity to disease association&#45;&gt;has attribute -->
<g id="edge8" class="edge">
<title>entity to disease association&#45;&gt;has attribute</title>
<path fill="none" stroke="blue" d="M1098.65,-250.63C1072.18,-245.28 1043.22,-238.17 1017.39,-229 995.5,-221.22 972.33,-209.43 954.12,-199.24"/>
<polygon fill="blue" stroke="blue" points="955.51,-196 945.09,-194.09 952.04,-202.09 955.51,-196"/>
<text text-anchor="middle" x="1064.39" y="-217.8" font-family="Times,serif" font-size="14.00">has attribute</text>
</g>
<!-- subject -->
<g id="node10" class="node">
<title>subject</title>
<ellipse fill="none" stroke="blue" cx="1060.39" cy="-178" rx="69.59" ry="18"/>
<text text-anchor="middle" x="1060.39" y="-174.3" font-family="Times,serif" font-size="14.00">named thing</text>
</g>
<!-- entity to disease association&#45;&gt;subject -->
<g id="edge9" class="edge">
<title>entity to disease association&#45;&gt;subject</title>
<path fill="none" stroke="blue" d="M1159.9,-247.21C1140.54,-233.94 1113.38,-215.32 1092.32,-200.88"/>
<polygon fill="blue" stroke="blue" points="1094.23,-197.95 1084,-195.18 1090.27,-203.72 1094.23,-197.95"/>
<text text-anchor="middle" x="1156.39" y="-217.8" font-family="Times,serif" font-size="14.00">subject</text>
</g>
<!-- predicate -->
<g id="node11" class="node">
<title>predicate</title>
<ellipse fill="none" stroke="blue" cx="1226.39" cy="-178" rx="77.99" ry="18"/>
<text text-anchor="middle" x="1226.39" y="-174.3" font-family="Times,serif" font-size="14.00">predicate type</text>
</g>
<!-- entity to disease association&#45;&gt;predicate -->
<g id="edge10" class="edge">
<title>entity to disease association&#45;&gt;predicate</title>
<path fill="none" stroke="blue" d="M1192.89,-246.8C1198.76,-234.93 1206.67,-218.93 1213.33,-205.45"/>
<polygon fill="blue" stroke="blue" points="1216.62,-206.69 1217.91,-196.18 1210.34,-203.59 1216.62,-206.69"/>
<text text-anchor="middle" x="1242.39" y="-217.8" font-family="Times,serif" font-size="14.00">predicate</text>
</g>
<!-- object -->
<g id="node12" class="node">
<title>object</title>
<ellipse fill="none" stroke="blue" cx="1275.39" cy="-91" rx="69.59" ry="18"/>
<text text-anchor="middle" x="1275.39" y="-87.3" font-family="Times,serif" font-size="14.00">named thing</text>
</g>
<!-- entity to disease association&#45;&gt;object -->
<g id="edge11" class="edge">
<title>entity to disease association&#45;&gt;object</title>
<path fill="none" stroke="blue" d="M1249.59,-248.92C1275.8,-238.92 1302.4,-222.55 1313.39,-196 1324.45,-169.31 1309.43,-138.11 1295.14,-116.9"/>
<polygon fill="blue" stroke="blue" points="1297.98,-114.87 1289.34,-108.74 1292.28,-118.92 1297.98,-114.87"/>
<text text-anchor="middle" x="1339.39" y="-174.3" font-family="Times,serif" font-size="14.00">object</text>
</g>
<!-- relation -->
<g id="node13" class="node">
<title>relation</title>
<ellipse fill="none" stroke="blue" cx="1275.39" cy="-18" rx="38.19" ry="18"/>
<text text-anchor="middle" x="1275.39" y="-14.3" font-family="Times,serif" font-size="14.00">string</text>
</g>
<!-- entity to disease association&#45;&gt;relation -->
<g id="edge12" class="edge">
<title>entity to disease association&#45;&gt;relation</title>
<path fill="none" stroke="blue" d="M1283.65,-252.06C1316.22,-242.56 1348.41,-225.73 1365.39,-196 1378.4,-173.24 1369.4,-97.55 1354.39,-73 1344.47,-56.76 1327.62,-44.25 1312.02,-35.37"/>
<polygon fill="blue" stroke="blue" points="1313.51,-32.2 1303.04,-30.57 1310.21,-38.37 1313.51,-32.2"/>
<text text-anchor="middle" x="1399.39" y="-130.8" font-family="Times,serif" font-size="14.00">relation</text>
</g>
<!-- negated -->
<g id="node14" class="node">
<title>negated</title>
<ellipse fill="none" stroke="blue" cx="1487.39" cy="-178" rx="46.59" ry="18"/>
<text text-anchor="middle" x="1487.39" y="-174.3" font-family="Times,serif" font-size="14.00">boolean</text>
</g>
<!-- entity to disease association&#45;&gt;negated -->
<g id="edge13" class="edge">
<title>entity to disease association&#45;&gt;negated</title>
<path fill="none" stroke="blue" d="M1284.03,-252.14C1344.72,-244.48 1413.09,-234.86 1426.39,-229 1440.71,-222.69 1454.4,-212.05 1465.17,-202.21"/>
<polygon fill="blue" stroke="blue" points="1467.64,-204.68 1472.46,-195.25 1462.81,-199.62 1467.64,-204.68"/>
<text text-anchor="middle" x="1479.39" y="-217.8" font-family="Times,serif" font-size="14.00">negated</text>
</g>
<!-- qualifiers -->
<g id="node15" class="node">
<title>qualifiers</title>
<ellipse fill="none" stroke="blue" cx="1628.39" cy="-178" rx="76.89" ry="18"/>
<text text-anchor="middle" x="1628.39" y="-174.3" font-family="Times,serif" font-size="14.00">ontology class</text>
</g>
<!-- entity to disease association&#45;&gt;qualifiers -->
<g id="edge14" class="edge">
<title>entity to disease association&#45;&gt;qualifiers</title>
<path fill="none" stroke="blue" d="M1286.58,-252.44C1303.23,-250.59 1320.29,-248.72 1336.39,-247 1414.58,-238.63 1436.3,-248.79 1512.39,-229 1539.14,-222.04 1567.66,-209.82 1589.72,-199.21"/>
<polygon fill="blue" stroke="blue" points="1591.32,-202.32 1598.76,-194.77 1588.24,-196.03 1591.32,-202.32"/>
<text text-anchor="middle" x="1588.89" y="-217.8" font-family="Times,serif" font-size="14.00">qualifiers</text>
</g>
<!-- publications -->
<g id="node16" class="node">
<title>publications</title>
<ellipse fill="none" stroke="blue" cx="1785.39" cy="-178" rx="62.29" ry="18"/>
<text text-anchor="middle" x="1785.39" y="-174.3" font-family="Times,serif" font-size="14.00">publication</text>
</g>
<!-- entity to disease association&#45;&gt;publications -->
<g id="edge15" class="edge">
<title>entity to disease association&#45;&gt;publications</title>
<path fill="none" stroke="blue" d="M1284.07,-252.14C1301.5,-250.27 1319.46,-248.47 1336.39,-247 1465.05,-235.82 1499.42,-252.54 1626.39,-229 1665.67,-221.72 1708.83,-207.75 1740.26,-196.42"/>
<polygon fill="blue" stroke="blue" points="1741.84,-199.57 1750.03,-192.85 1739.44,-193 1741.84,-199.57"/>
<text text-anchor="middle" x="1728.39" y="-217.8" font-family="Times,serif" font-size="14.00">publications</text>
</g>
<!-- type -->
<g id="node17" class="node">
<title>type</title>
<ellipse fill="none" stroke="black" cx="1897.39" cy="-178" rx="31.4" ry="18"/>
<text text-anchor="middle" x="1897.39" y="-174.3" font-family="Times,serif" font-size="14.00">type</text>
</g>
<!-- entity to disease association&#45;&gt;type -->
<g id="edge16" class="edge">
<title>entity to disease association&#45;&gt;type</title>
<path fill="none" stroke="blue" d="M1282.83,-251.97C1300.63,-250.08 1319.05,-248.32 1336.39,-247 1433.97,-239.56 1680.81,-249.98 1776.39,-229 1808.2,-222.02 1842.3,-207.19 1866.17,-195.49"/>
<polygon fill="blue" stroke="blue" points="1868.04,-198.46 1875.42,-190.86 1864.91,-192.2 1868.04,-198.46"/>
<text text-anchor="middle" x="1840.39" y="-217.8" font-family="Times,serif" font-size="14.00">type</text>
</g>
<!-- category -->
<g id="node19" class="node">
<title>category</title>
<ellipse fill="none" stroke="black" cx="1998.39" cy="-178" rx="51.19" ry="18"/>
<text text-anchor="middle" x="1998.39" y="-174.3" font-family="Times,serif" font-size="14.00">category</text>
</g>
<!-- entity to disease association&#45;&gt;category -->
<g id="edge17" class="edge">
<title>entity to disease association&#45;&gt;category</title>
<path fill="none" stroke="blue" d="M1282.41,-251.92C1300.35,-250.02 1318.92,-248.28 1336.39,-247 1452.6,-238.52 1746,-251.12 1860.39,-229 1894.82,-222.34 1932.11,-208.4 1959.24,-196.92"/>
<polygon fill="blue" stroke="blue" points="1960.95,-199.99 1968.75,-192.82 1958.18,-193.57 1960.95,-199.99"/>
<text text-anchor="middle" x="1946.89" y="-217.8" font-family="Times,serif" font-size="14.00">category</text>
</g>
<!-- FDA approval status -->
<g id="node21" class="node">
<title>FDA approval status</title>
<ellipse fill="none" stroke="blue" cx="2206.39" cy="-178" rx="139.18" ry="18"/>
<text text-anchor="middle" x="2206.39" y="-174.3" font-family="Times,serif" font-size="14.00">FDA_approval_status_enum</text>
</g>
<!-- entity to disease association&#45;&gt;FDA approval status -->
<g id="edge18" class="edge">
<title>entity to disease association&#45;&gt;FDA approval status</title>
<path fill="none" stroke="blue" d="M1282,-251.86C1300.06,-249.97 1318.78,-248.23 1336.39,-247 1622.92,-227.02 1697.37,-264.45 1982.39,-229 2036.43,-222.28 2096.61,-208.48 2140.98,-197.08"/>
<polygon fill="blue" stroke="blue" points="2141.96,-200.44 2150.76,-194.54 2140.2,-193.67 2141.96,-200.44"/>
<text text-anchor="middle" x="2136.89" y="-217.8" font-family="Times,serif" font-size="14.00">FDA approval status</text>
</g>
<!-- subject&#45;&gt;object -->
<g id="edge19" class="edge">
<title>subject&#45;&gt;object</title>
<path fill="none" stroke="black" d="M1096.87,-162.58C1133.39,-148.14 1189.72,-125.87 1229.31,-110.22"/>
<polygon fill="black" stroke="black" points="1230.73,-113.42 1238.74,-106.49 1228.16,-106.91 1230.73,-113.42"/>
<text text-anchor="middle" x="1209.39" y="-130.8" font-family="Times,serif" font-size="14.00">relation</text>
</g>
<!-- subject&#45;&gt;relation -->
<g id="edge20" class="edge">
<title>subject&#45;&gt;relation</title>
<path fill="none" stroke="black" stroke-dasharray="1,5" d="M1080.87,-160.8C1107.27,-140.04 1154.73,-103.14 1196.39,-73 1212.49,-61.36 1230.77,-48.82 1245.7,-38.75"/>
<polygon fill="black" stroke="black" points="1247.71,-41.62 1254.06,-33.14 1243.8,-35.81 1247.71,-41.62"/>
</g>
<!-- object&#45;&gt;relation -->
<g id="edge21" class="edge">
<title>object&#45;&gt;relation</title>
<path fill="none" stroke="black" stroke-dasharray="1,5" d="M1275.39,-72.81C1275.39,-64.79 1275.39,-55.05 1275.39,-46.07"/>
<polygon fill="black" stroke="black" points="1278.89,-46.03 1275.39,-36.03 1271.89,-46.03 1278.89,-46.03"/>
</g>
<!-- association_type -->
<g id="node18" class="node">
<title>association_type</title>
<ellipse fill="none" stroke="blue" cx="1383.39" cy="-265" rx="38.19" ry="18"/>
<text text-anchor="middle" x="1383.39" y="-261.3" font-family="Times,serif" font-size="14.00">string</text>
</g>
<!-- association_category -->
<g id="node20" class="node">
<title>association_category</title>
<ellipse fill="none" stroke="blue" cx="1514.39" cy="-265" rx="74.99" ry="18"/>
<text text-anchor="middle" x="1514.39" y="-261.3" font-family="Times,serif" font-size="14.00">category type</text>
</g>
</g>
</svg>
