<?xml version="1.0" encoding="UTF-8" standalone="no"?>
<!DOCTYPE svg PUBLIC "-//W3C//DTD SVG 1.1//EN"
 "http://www.w3.org/Graphics/SVG/1.1/DTD/svg11.dtd">
<!-- Generated by graphviz version 3.0.0 (20220226.1711)
 -->
<!-- Pages: 1 -->
<svg width="2739pt" height="291pt"
 viewBox="0.00 0.00 2739.49 291.00" xmlns="http://www.w3.org/2000/svg" xmlns:xlink="http://www.w3.org/1999/xlink">
<g id="graph0" class="graph" transform="scale(1 1) rotate(0) translate(4 287)">
<polygon fill="white" stroke="transparent" points="-4,4 -4,-287 2735.49,-287 2735.49,4 -4,4"/>
<!-- entity to disease association -->
<g id="node1" class="node">
<title>entity to disease association</title>
<ellipse fill="none" stroke="black" cx="1089.05" cy="-265" rx="109.38" ry="18"/>
<text text-anchor="middle" x="1089.05" y="-261.3" font-family="Times,serif" font-size="14.00">entity to disease association</text>
</g>
<!-- association -->
<g id="node2" class="node">
<title>association</title>
<ellipse fill="none" stroke="black" cx="50.05" cy="-178" rx="50.09" ry="18"/>
<text text-anchor="middle" x="50.05" y="-174.3" font-family="Times,serif" font-size="14.00">association</text>
</g>
<!-- entity to disease association&#45;&gt;association -->
<g id="edge1" class="edge">
<title>entity to disease association&#45;&gt;association</title>
<path fill="none" stroke="black" d="M980.47,-262.87C781.46,-260.26 365.63,-252.14 223.05,-229 178.11,-221.71 128.31,-206.53 93.73,-194.8"/>
<polygon fill="black" stroke="black" points="94.55,-191.38 83.95,-191.44 92.27,-198 94.55,-191.38"/>
<text text-anchor="middle" x="234.05" y="-217.8" font-family="Times,serif" font-size="14.00">is_a</text>
</g>
<!-- id -->
<g id="node3" class="node">
<title>id</title>
<ellipse fill="none" stroke="blue" cx="149.05" cy="-178" rx="30.59" ry="18"/>
<text text-anchor="middle" x="149.05" y="-174.3" font-family="Times,serif" font-size="14.00">string</text>
</g>
<!-- entity to disease association&#45;&gt;id -->
<g id="edge2" class="edge">
<title>entity to disease association&#45;&gt;id</title>
<path fill="none" stroke="blue" d="M981.84,-261.55C802.92,-257.03 451,-246.27 328.05,-229 265.17,-220.17 249.37,-215.82 189.05,-196 186.66,-195.22 184.22,-194.35 181.78,-193.44"/>
<polygon fill="blue" stroke="blue" points="183.07,-190.18 172.48,-189.74 180.48,-196.68 183.07,-190.18"/>
<text text-anchor="middle" x="333.55" y="-217.8" font-family="Times,serif" font-size="14.00">id</text>
</g>
<!-- iri -->
<g id="node4" class="node">
<title>iri</title>
<ellipse fill="none" stroke="blue" cx="234.05" cy="-178" rx="36.29" ry="18"/>
<text text-anchor="middle" x="234.05" y="-174.3" font-family="Times,serif" font-size="14.00">iri type</text>
</g>
<!-- entity to disease association&#45;&gt;iri -->
<g id="edge3" class="edge">
<title>entity to disease association&#45;&gt;iri</title>
<path fill="none" stroke="blue" d="M979.71,-264.21C846.94,-263.09 616.51,-256.77 421.05,-229 357.33,-219.95 341.68,-214.52 280.05,-196 277.12,-195.12 274.12,-194.16 271.11,-193.14"/>
<polygon fill="blue" stroke="blue" points="272.18,-189.81 261.59,-189.81 269.87,-196.42 272.18,-189.81"/>
<text text-anchor="middle" x="427.55" y="-217.8" font-family="Times,serif" font-size="14.00">iri</text>
</g>
<!-- name -->
<g id="node5" class="node">
<title>name</title>
<ellipse fill="none" stroke="blue" cx="334.05" cy="-178" rx="45.49" ry="18"/>
<text text-anchor="middle" x="334.05" y="-174.3" font-family="Times,serif" font-size="14.00">label type</text>
</g>
<!-- entity to disease association&#45;&gt;name -->
<g id="edge4" class="edge">
<title>entity to disease association&#45;&gt;name</title>
<path fill="none" stroke="blue" d="M982.9,-260.76C838.14,-255.83 586.45,-245.24 496.05,-229 453.91,-221.43 407.36,-206.32 375.01,-194.68"/>
<polygon fill="blue" stroke="blue" points="376.04,-191.33 365.45,-191.2 373.64,-197.91 376.04,-191.33"/>
<text text-anchor="middle" x="511.55" y="-217.8" font-family="Times,serif" font-size="14.00">name</text>
</g>
<!-- description -->
<g id="node6" class="node">
<title>description</title>
<ellipse fill="none" stroke="blue" cx="455.05" cy="-178" rx="57.69" ry="18"/>
<text text-anchor="middle" x="455.05" y="-174.3" font-family="Times,serif" font-size="14.00">narrative text</text>
</g>
<!-- entity to disease association&#45;&gt;description -->
<g id="edge5" class="edge">
<title>entity to disease association&#45;&gt;description</title>
<path fill="none" stroke="blue" d="M982.48,-260.88C854.84,-256.43 648.87,-246.74 574.05,-229 545.49,-222.23 515.01,-209.3 492.05,-198.29"/>
<polygon fill="blue" stroke="blue" points="493.53,-195.12 483.01,-193.87 490.45,-201.4 493.53,-195.12"/>
<text text-anchor="middle" x="604.55" y="-217.8" font-family="Times,serif" font-size="14.00">description</text>
</g>
<!-- source -->
<g id="node7" class="node">
<title>source</title>
<ellipse fill="none" stroke="blue" cx="561.05" cy="-178" rx="30.59" ry="18"/>
<text text-anchor="middle" x="561.05" y="-174.3" font-family="Times,serif" font-size="14.00">string</text>
</g>
<!-- entity to disease association&#45;&gt;source -->
<g id="edge6" class="edge">
<title>entity to disease association&#45;&gt;source</title>
<path fill="none" stroke="blue" d="M979.95,-263.32C897.41,-260.71 781.79,-252.57 683.05,-229 651.01,-221.35 616.44,-206.5 592.31,-194.97"/>
<polygon fill="blue" stroke="blue" points="593.8,-191.8 583.28,-190.57 590.74,-198.1 593.8,-191.8"/>
<text text-anchor="middle" x="701.05" y="-217.8" font-family="Times,serif" font-size="14.00">source</text>
</g>
<!-- has attribute -->
<g id="node8" class="node">
<title>has attribute</title>
<ellipse fill="none" stroke="blue" cx="650.05" cy="-178" rx="40.09" ry="18"/>
<text text-anchor="middle" x="650.05" y="-174.3" font-family="Times,serif" font-size="14.00">attribute</text>
</g>
<!-- entity to disease association&#45;&gt;has attribute -->
<g id="edge7" class="edge">
<title>entity to disease association&#45;&gt;has attribute</title>
<path fill="none" stroke="blue" d="M982.88,-260.62C918.9,-256.59 836.28,-247.86 765.05,-229 736.69,-221.49 706.32,-208.03 683.92,-196.97"/>
<polygon fill="blue" stroke="blue" points="685.34,-193.77 674.83,-192.4 682.19,-200.02 685.34,-193.77"/>
<text text-anchor="middle" x="798.55" y="-217.8" font-family="Times,serif" font-size="14.00">has attribute</text>
</g>
<!-- subject -->
<g id="node9" class="node">
<title>subject</title>
<ellipse fill="none" stroke="blue" cx="764.05" cy="-178" rx="55.49" ry="18"/>
<text text-anchor="middle" x="764.05" y="-174.3" font-family="Times,serif" font-size="14.00">named thing</text>
</g>
<!-- entity to disease association&#45;&gt;subject -->
<g id="edge8" class="edge">
<title>entity to disease association&#45;&gt;subject</title>
<path fill="none" stroke="blue" d="M998.48,-254.85C959.35,-249.48 913.39,-241.27 873.05,-229 847.83,-221.33 820.89,-209.01 800.11,-198.53"/>
<polygon fill="blue" stroke="blue" points="801.51,-195.31 791.02,-193.86 798.32,-201.54 801.51,-195.31"/>
<text text-anchor="middle" x="892.55" y="-217.8" font-family="Times,serif" font-size="14.00">subject</text>
</g>
<!-- predicate -->
<g id="node10" class="node">
<title>predicate</title>
<ellipse fill="none" stroke="blue" cx="898.05" cy="-178" rx="60.39" ry="18"/>
<text text-anchor="middle" x="898.05" y="-174.3" font-family="Times,serif" font-size="14.00">predicate type</text>
</g>
<!-- entity to disease association&#45;&gt;predicate -->
<g id="edge9" class="edge">
<title>entity to disease association&#45;&gt;predicate</title>
<path fill="none" stroke="blue" d="M994.88,-255.85C972.2,-250.62 949.06,-242.26 930.05,-229 921.39,-222.96 914.54,-213.75 909.43,-204.87"/>
<polygon fill="blue" stroke="blue" points="912.47,-203.13 904.74,-195.89 906.27,-206.37 912.47,-203.13"/>
<text text-anchor="middle" x="955.05" y="-217.8" font-family="Times,serif" font-size="14.00">predicate</text>
</g>
<!-- object -->
<g id="node11" class="node">
<title>object</title>
<ellipse fill="none" stroke="blue" cx="942.05" cy="-91" rx="55.49" ry="18"/>
<text text-anchor="middle" x="942.05" y="-87.3" font-family="Times,serif" font-size="14.00">named thing</text>
</g>
<!-- entity to disease association&#45;&gt;object -->
<g id="edge10" class="edge">
<title>entity to disease association&#45;&gt;object</title>
<path fill="none" stroke="blue" d="M1065.15,-247.14C1057.6,-241.56 1049.33,-235.2 1042.05,-229 1026.01,-215.35 1021.33,-212.34 1008.05,-196 987.83,-171.15 968.67,-139.76 956.25,-118"/>
<polygon fill="blue" stroke="blue" points="959.16,-116.03 951.2,-109.03 953.06,-119.46 959.16,-116.03"/>
<text text-anchor="middle" x="1025.05" y="-174.3" font-family="Times,serif" font-size="14.00">object</text>
</g>
<!-- relation -->
<g id="node12" class="node">
<title>relation</title>
<ellipse fill="none" stroke="blue" cx="942.05" cy="-18" rx="30.59" ry="18"/>
<text text-anchor="middle" x="942.05" y="-14.3" font-family="Times,serif" font-size="14.00">string</text>
</g>
<!-- entity to disease association&#45;&gt;relation -->
<g id="edge11" class="edge">
<title>entity to disease association&#45;&gt;relation</title>
<path fill="none" stroke="blue" d="M1084.48,-246.81C1074.53,-211.61 1048.36,-129.84 1006.05,-73 996.1,-59.64 982.24,-47.42 969.96,-38"/>
<polygon fill="blue" stroke="blue" points="971.9,-35.08 961.78,-31.95 967.73,-40.71 971.9,-35.08"/>
<text text-anchor="middle" x="1067.05" y="-130.8" font-family="Times,serif" font-size="14.00">relation</text>
</g>
<!-- negated -->
<g id="node13" class="node">
<title>negated</title>
<ellipse fill="none" stroke="blue" cx="1122.05" cy="-178" rx="38.19" ry="18"/>
<text text-anchor="middle" x="1122.05" y="-174.3" font-family="Times,serif" font-size="14.00">boolean</text>
</g>
<!-- entity to disease association&#45;&gt;negated -->
<g id="edge12" class="edge">
<title>entity to disease association&#45;&gt;negated</title>
<path fill="none" stroke="blue" d="M1095.72,-246.8C1100.32,-234.97 1106.5,-219.03 1111.73,-205.58"/>
<polygon fill="blue" stroke="blue" points="1115.13,-206.47 1115.49,-195.89 1108.61,-203.94 1115.13,-206.47"/>
<text text-anchor="middle" x="1129.55" y="-217.8" font-family="Times,serif" font-size="14.00">negated</text>
</g>
<!-- qualifiers -->
<g id="node14" class="node">
<title>qualifiers</title>
<ellipse fill="none" stroke="blue" cx="1240.05" cy="-178" rx="61.99" ry="18"/>
<text text-anchor="middle" x="1240.05" y="-174.3" font-family="Times,serif" font-size="14.00">ontology class</text>
</g>
<!-- entity to disease association&#45;&gt;qualifiers -->
<g id="edge13" class="edge">
<title>entity to disease association&#45;&gt;qualifiers</title>
<path fill="none" stroke="blue" d="M1120.42,-247.72C1131.43,-241.92 1143.84,-235.26 1155.05,-229 1171.79,-219.64 1190.15,-208.9 1205.51,-199.78"/>
<polygon fill="blue" stroke="blue" points="1207.38,-202.74 1214.18,-194.62 1203.79,-196.73 1207.38,-202.74"/>
<text text-anchor="middle" x="1206.55" y="-217.8" font-family="Times,serif" font-size="14.00">qualifiers</text>
</g>
<!-- publications -->
<g id="node15" class="node">
<title>publications</title>
<ellipse fill="none" stroke="blue" cx="1370.05" cy="-178" rx="50.09" ry="18"/>
<text text-anchor="middle" x="1370.05" y="-174.3" font-family="Times,serif" font-size="14.00">publication</text>
</g>
<!-- entity to disease association&#45;&gt;publications -->
<g id="edge14" class="edge">
<title>entity to disease association&#45;&gt;publications</title>
<path fill="none" stroke="blue" d="M1153.54,-250.46C1179.39,-244.56 1209.32,-237.13 1236.05,-229 1267.64,-219.38 1302.58,-206.26 1328.85,-195.87"/>
<polygon fill="blue" stroke="blue" points="1330.48,-198.99 1338.48,-192.04 1327.89,-192.49 1330.48,-198.99"/>
<text text-anchor="middle" x="1314.55" y="-217.8" font-family="Times,serif" font-size="14.00">publications</text>
</g>
<!-- has evidence -->
<g id="node16" class="node">
<title>has evidence</title>
<ellipse fill="none" stroke="blue" cx="1498.05" cy="-178" rx="59.59" ry="18"/>
<text text-anchor="middle" x="1498.05" y="-174.3" font-family="Times,serif" font-size="14.00">evidence type</text>
</g>
<!-- entity to disease association&#45;&gt;has evidence -->
<g id="edge15" class="edge">
<title>entity to disease association&#45;&gt;has evidence</title>
<path fill="none" stroke="blue" d="M1167.72,-252.45C1180.85,-250.58 1194.33,-248.71 1207.05,-247 1271.41,-238.37 1288.77,-243.6 1352.05,-229 1387.19,-220.89 1425.75,-207.48 1454.41,-196.59"/>
<polygon fill="blue" stroke="blue" points="1456.04,-199.72 1464.11,-192.86 1453.52,-193.18 1456.04,-199.72"/>
<text text-anchor="middle" x="1441.05" y="-217.8" font-family="Times,serif" font-size="14.00">has evidence</text>
</g>
<!-- knowledge source -->
<g id="node17" class="node">
<title>knowledge source</title>
<ellipse fill="none" stroke="blue" cx="1661.05" cy="-178" rx="85.29" ry="18"/>
<text text-anchor="middle" x="1661.05" y="-174.3" font-family="Times,serif" font-size="14.00">information resource</text>
</g>
<!-- entity to disease association&#45;&gt;knowledge source -->
<g id="edge16" class="edge">
<title>entity to disease association&#45;&gt;knowledge source</title>
<path fill="none" stroke="blue" d="M1165.43,-252.12C1179.25,-250.22 1193.56,-248.41 1207.05,-247 1327.98,-234.32 1360.15,-249.29 1480.05,-229 1523.82,-221.59 1572.25,-207.91 1607.99,-196.73"/>
<polygon fill="blue" stroke="blue" points="1609.24,-200.01 1617.72,-193.65 1607.13,-193.33 1609.24,-200.01"/>
<text text-anchor="middle" x="1595.55" y="-217.8" font-family="Times,serif" font-size="14.00">knowledge source</text>
</g>
<!-- original knowledge source -->
<g id="node18" class="node">
<title>original knowledge source</title>
<ellipse fill="none" stroke="blue" cx="1849.05" cy="-178" rx="85.29" ry="18"/>
<text text-anchor="middle" x="1849.05" y="-174.3" font-family="Times,serif" font-size="14.00">information resource</text>
</g>
<!-- entity to disease association&#45;&gt;original knowledge source -->
<g id="edge17" class="edge">
<title>entity to disease association&#45;&gt;original knowledge source</title>
<path fill="none" stroke="blue" d="M1164.45,-251.96C1178.57,-250.04 1193.24,-248.27 1207.05,-247 1402.82,-228.96 1454.44,-256.99 1649.05,-229 1698.69,-221.86 1753.91,-207.56 1793.72,-196.07"/>
<polygon fill="blue" stroke="blue" points="1794.88,-199.38 1803.5,-193.22 1792.92,-192.66 1794.88,-199.38"/>
<text text-anchor="middle" x="1794.55" y="-217.8" font-family="Times,serif" font-size="14.00">original knowledge source</text>
</g>
<!-- primary knowledge source -->
<g id="node19" class="node">
<title>primary knowledge source</title>
<ellipse fill="none" stroke="blue" cx="2037.05" cy="-178" rx="85.29" ry="18"/>
<text text-anchor="middle" x="2037.05" y="-174.3" font-family="Times,serif" font-size="14.00">information resource</text>
</g>
<!-- entity to disease association&#45;&gt;primary knowledge source -->
<g id="edge18" class="edge">
<title>entity to disease association&#45;&gt;primary knowledge source</title>
<path fill="none" stroke="blue" d="M1164.12,-251.85C1178.34,-249.93 1193.13,-248.19 1207.05,-247 1354.12,-234.45 1725.32,-252.49 1871.05,-229 1911.3,-222.51 1955.45,-208.88 1988.08,-197.49"/>
<polygon fill="blue" stroke="blue" points="1989.57,-200.68 1997.83,-194.04 1987.23,-194.08 1989.57,-200.68"/>
<text text-anchor="middle" x="2009.05" y="-217.8" font-family="Times,serif" font-size="14.00">primary knowledge source</text>
</g>
<!-- aggregator knowledge source -->
<g id="node20" class="node">
<title>aggregator knowledge source</title>
<ellipse fill="none" stroke="blue" cx="2225.05" cy="-178" rx="85.29" ry="18"/>
<text text-anchor="middle" x="2225.05" y="-174.3" font-family="Times,serif" font-size="14.00">information resource</text>
</g>
<!-- entity to disease association&#45;&gt;aggregator knowledge source -->
<g id="edge19" class="edge">
<title>entity to disease association&#45;&gt;aggregator knowledge source</title>
<path fill="none" stroke="blue" d="M1163.8,-251.82C1178.12,-249.89 1193.02,-248.15 1207.05,-247 1401.77,-231.04 1893.93,-264.53 2086.05,-229 2119.17,-222.87 2154.9,-209.87 2181.84,-198.66"/>
<polygon fill="blue" stroke="blue" points="2183.51,-201.75 2191.35,-194.62 2180.78,-195.31 2183.51,-201.75"/>
<text text-anchor="middle" x="2221.05" y="-217.8" font-family="Times,serif" font-size="14.00">aggregator knowledge source</text>
</g>
<!-- type -->
<g id="node21" class="node">
<title>type</title>
<ellipse fill="none" stroke="black" cx="2362.05" cy="-178" rx="27" ry="18"/>
<text text-anchor="middle" x="2362.05" y="-174.3" font-family="Times,serif" font-size="14.00">type</text>
</g>
<!-- entity to disease association&#45;&gt;type -->
<g id="edge20" class="edge">
<title>entity to disease association&#45;&gt;type</title>
<path fill="none" stroke="blue" d="M1163.48,-251.82C1177.89,-249.87 1192.91,-248.13 1207.05,-247 1267.86,-242.14 2248.13,-250.96 2305.05,-229 2319.53,-223.41 2332.77,-212.36 2342.83,-202.07"/>
<polygon fill="blue" stroke="blue" points="2345.66,-204.16 2349.88,-194.44 2340.52,-199.41 2345.66,-204.16"/>
<text text-anchor="middle" x="2342.05" y="-217.8" font-family="Times,serif" font-size="14.00">type</text>
</g>
<!-- category -->
<g id="node23" class="node">
<title>category</title>
<ellipse fill="none" stroke="black" cx="2448.05" cy="-178" rx="40.89" ry="18"/>
<text text-anchor="middle" x="2448.05" y="-174.3" font-family="Times,serif" font-size="14.00">category</text>
</g>
<!-- entity to disease association&#45;&gt;category -->
<g id="edge21" class="edge">
<title>entity to disease association&#45;&gt;category</title>
<path fill="none" stroke="blue" d="M1163.48,-251.81C1177.89,-249.86 1192.91,-248.12 1207.05,-247 1334.55,-236.86 2234.49,-262.05 2358.05,-229 2380.25,-223.06 2402.85,-210.47 2419.85,-199.41"/>
<polygon fill="blue" stroke="blue" points="2421.85,-202.29 2428.2,-193.81 2417.95,-196.48 2421.85,-202.29"/>
<text text-anchor="middle" x="2418.55" y="-217.8" font-family="Times,serif" font-size="14.00">category</text>
</g>
<!-- FDA approval status -->
<g id="node25" class="node">
<title>FDA approval status</title>
<ellipse fill="none" stroke="blue" cx="2619.05" cy="-178" rx="112.38" ry="18"/>
<text text-anchor="middle" x="2619.05" y="-174.3" font-family="Times,serif" font-size="14.00">FDA_approval_status_enum</text>
</g>
<!-- entity to disease association&#45;&gt;FDA approval status -->
<g id="edge22" class="edge">
<title>entity to disease association&#45;&gt;FDA approval status</title>
<path fill="none" stroke="blue" d="M1163.48,-251.8C1177.89,-249.85 1192.91,-248.12 1207.05,-247 1481.55,-225.32 2173.69,-269.59 2446.05,-229 2487.42,-222.83 2532.8,-209.46 2566.7,-198.09"/>
<polygon fill="blue" stroke="blue" points="2568.05,-201.33 2576.39,-194.79 2565.79,-194.7 2568.05,-201.33"/>
<text text-anchor="middle" x="2570.05" y="-217.8" font-family="Times,serif" font-size="14.00">FDA approval status</text>
</g>
<!-- subject&#45;&gt;object -->
<g id="edge23" class="edge">
<title>subject&#45;&gt;object</title>
<path fill="none" stroke="black" d="M793.84,-162.77C823.74,-148.49 869.97,-126.42 902.84,-110.72"/>
<polygon fill="black" stroke="black" points="904.64,-113.74 912.16,-106.27 901.62,-107.42 904.64,-113.74"/>
<text text-anchor="middle" x="885.05" y="-130.8" font-family="Times,serif" font-size="14.00">relation</text>
</g>
<!-- subject&#45;&gt;relation -->
<g id="edge24" class="edge">
<title>subject&#45;&gt;relation</title>
<path fill="none" stroke="black" stroke-dasharray="1,5" d="M781.63,-160.57C803.85,-139.89 843.41,-103.39 878.05,-73 890.83,-61.78 905.3,-49.54 917.24,-39.55"/>
<polygon fill="black" stroke="black" points="919.61,-42.13 925.05,-33.04 915.13,-36.75 919.61,-42.13"/>
</g>
<!-- object&#45;&gt;relation -->
<g id="edge25" class="edge">
<title>object&#45;&gt;relation</title>
<path fill="none" stroke="black" stroke-dasharray="1,5" d="M942.05,-72.81C942.05,-64.79 942.05,-55.05 942.05,-46.07"/>
<polygon fill="black" stroke="black" points="945.55,-46.03 942.05,-36.03 938.55,-46.03 945.55,-46.03"/>
</g>
<!-- association_type -->
<g id="node22" class="node">
<title>association_type</title>
<ellipse fill="none" stroke="blue" cx="1247.05" cy="-265" rx="30.59" ry="18"/>
<text text-anchor="middle" x="1247.05" y="-261.3" font-family="Times,serif" font-size="14.00">string</text>
</g>
<!-- association_category -->
<g id="node24" class="node">
<title>association_category</title>
<ellipse fill="none" stroke="blue" cx="1354.05" cy="-265" rx="58.49" ry="18"/>
<text text-anchor="middle" x="1354.05" y="-261.3" font-family="Times,serif" font-size="14.00">category type</text>
</g>
</g>
</svg>
