<?xml version="1.0" encoding="UTF-8" standalone="no"?>
<!DOCTYPE svg PUBLIC "-//W3C//DTD SVG 1.1//EN"
 "http://www.w3.org/Graphics/SVG/1.1/DTD/svg11.dtd">
<!-- Generated by graphviz version 2.43.0 (0)
 -->
<!-- Title: %3 Pages: 1 -->
<svg width="2039pt" height="130pt"
 viewBox="0.00 0.00 2038.85 130.00" xmlns="http://www.w3.org/2000/svg" xmlns:xlink="http://www.w3.org/1999/xlink">
<g id="graph0" class="graph" transform="scale(1 1) rotate(0) translate(4 126)">
<title>%3</title>
<polygon fill="white" stroke="transparent" points="-4,4 -4,-126 2034.85,-126 2034.85,4 -4,4"/>
<!-- environmental process -->
<g id="node1" class="node">
<title>environmental process</title>
<ellipse fill="none" stroke="black" cx="1009.36" cy="-104" rx="89.84" ry="18"/>
<text text-anchor="middle" x="1009.36" y="-99.8" font-family="Times,serif" font-size="14.00">environmental process</text>
</g>
<!-- planetary entity -->
<g id="node2" class="node">
<title>planetary entity</title>
<ellipse fill="none" stroke="black" cx="65.36" cy="-18" rx="65.21" ry="18"/>
<text text-anchor="middle" x="65.36" y="-13.8" font-family="Times,serif" font-size="14.00">planetary entity</text>
</g>
<!-- environmental process&#45;&gt;planetary entity -->
<g id="edge1" class="edge">
<title>environmental process&#45;&gt;planetary entity</title>
<path fill="none" stroke="black" d="M919.55,-102.97C784.06,-101.94 519.53,-96.08 296.81,-68 236.06,-60.34 167.59,-44.99 120.98,-33.5"/>
<polygon fill="black" stroke="black" points="121.63,-30.05 111.08,-31.04 119.94,-36.85 121.63,-30.05"/>
<text text-anchor="middle" x="308.63" y="-56.8" font-family="Times,serif" font-size="14.00">is_a</text>
</g>
<!-- occurrent -->
<g id="node3" class="node">
<title>occurrent</title>
<ellipse fill="none" stroke="black" cx="192.36" cy="-18" rx="43.49" ry="18"/>
<text text-anchor="middle" x="192.36" y="-13.8" font-family="Times,serif" font-size="14.00">occurrent</text>
</g>
<!-- environmental process&#45;&gt;occurrent -->
<g id="edge2" class="edge">
<title>environmental process&#45;&gt;occurrent</title>
<path fill="none" stroke="black" d="M920.23,-101.08C804.59,-97.81 596.73,-89.31 420.25,-68 341.8,-58.53 322,-55.22 245.36,-36 241.77,-35.1 238.07,-34.09 234.38,-33.02"/>
<polygon fill="black" stroke="black" points="235.26,-29.63 224.68,-30.1 233.24,-36.34 235.26,-29.63"/>
<text text-anchor="middle" x="432.41" y="-56.8" font-family="Times,serif" font-size="14.00">uses</text>
</g>
<!-- id -->
<g id="node4" class="node">
<title>id</title>
<ellipse fill="none" stroke="blue" cx="313.36" cy="-18" rx="59.44" ry="18"/>
<text text-anchor="middle" x="313.36" y="-13.8" font-family="Times,serif" font-size="14.00">identifier type</text>
</g>
<!-- environmental process&#45;&gt;id -->
<g id="edge3" class="edge">
<title>environmental process&#45;&gt;id</title>
<path fill="none" stroke="blue" d="M920.36,-101.13C820.91,-98.01 655.35,-89.76 514.47,-68 462.57,-59.98 404.4,-45.16 364.02,-33.9"/>
<polygon fill="blue" stroke="blue" points="364.73,-30.47 354.16,-31.12 362.83,-37.2 364.73,-30.47"/>
<text text-anchor="middle" x="520.8" y="-56.8" font-family="Times,serif" font-size="14.00">id</text>
</g>
<!-- name -->
<g id="node5" class="node">
<title>name</title>
<ellipse fill="none" stroke="blue" cx="435.36" cy="-18" rx="44.96" ry="18"/>
<text text-anchor="middle" x="435.36" y="-13.8" font-family="Times,serif" font-size="14.00">label type</text>
</g>
<!-- environmental process&#45;&gt;name -->
<g id="edge4" class="edge">
<title>environmental process&#45;&gt;name</title>
<path fill="none" stroke="blue" d="M919.61,-102.38C831.3,-100.22 693.09,-92.69 576.04,-68 540.61,-60.53 501.86,-46.57 474.02,-35.46"/>
<polygon fill="blue" stroke="blue" points="475.23,-32.18 464.64,-31.67 472.6,-38.67 475.23,-32.18"/>
<text text-anchor="middle" x="591.52" y="-56.8" font-family="Times,serif" font-size="14.00">name</text>
</g>
<!-- category -->
<g id="node6" class="node">
<title>category</title>
<ellipse fill="none" stroke="blue" cx="533.36" cy="-18" rx="35.3" ry="18"/>
<text text-anchor="middle" x="533.36" y="-13.8" font-family="Times,serif" font-size="14.00">iri type</text>
</g>
<!-- environmental process&#45;&gt;category -->
<g id="edge5" class="edge">
<title>environmental process&#45;&gt;category</title>
<path fill="none" stroke="blue" d="M919.99,-101.81C846.31,-99.05 739.6,-90.95 649.16,-68 620.09,-60.62 588.88,-47.05 566.19,-36.06"/>
<polygon fill="blue" stroke="blue" points="567.53,-32.82 557.01,-31.53 564.43,-39.1 567.53,-32.82"/>
<text text-anchor="middle" x="673.45" y="-56.8" font-family="Times,serif" font-size="14.00">category</text>
</g>
<!-- related to -->
<g id="node7" class="node">
<title>related to</title>
<ellipse fill="none" stroke="blue" cx="640.36" cy="-18" rx="54.14" ry="18"/>
<text text-anchor="middle" x="640.36" y="-13.8" font-family="Times,serif" font-size="14.00">named thing</text>
</g>
<!-- environmental process&#45;&gt;related to -->
<g id="edge6" class="edge">
<title>environmental process&#45;&gt;related to</title>
<path fill="none" stroke="blue" d="M921.7,-99.97C866.46,-96.1 794.23,-87.41 732.88,-68 711.63,-61.28 689.51,-49.75 672.23,-39.57"/>
<polygon fill="blue" stroke="blue" points="674.03,-36.57 663.66,-34.4 670.41,-42.56 674.03,-36.57"/>
<text text-anchor="middle" x="759.59" y="-56.8" font-family="Times,serif" font-size="14.00">related to</text>
</g>
<!-- interacts with -->
<g id="node8" class="node">
<title>interacts with</title>
<ellipse fill="none" stroke="blue" cx="766.36" cy="-18" rx="54.14" ry="18"/>
<text text-anchor="middle" x="766.36" y="-13.8" font-family="Times,serif" font-size="14.00">named thing</text>
</g>
<!-- environmental process&#45;&gt;interacts with -->
<g id="edge7" class="edge">
<title>environmental process&#45;&gt;interacts with</title>
<path fill="none" stroke="blue" d="M930.15,-95.41C881.88,-89.65 825.56,-80.57 804.55,-68 794.97,-62.27 786.89,-53.16 780.67,-44.35"/>
<polygon fill="blue" stroke="blue" points="783.47,-42.23 775.08,-35.77 777.6,-46.05 783.47,-42.23"/>
<text text-anchor="middle" x="843.26" y="-56.8" font-family="Times,serif" font-size="14.00">interacts with</text>
</g>
<!-- node property -->
<g id="node9" class="node">
<title>node property</title>
<ellipse fill="none" stroke="blue" cx="868.36" cy="-18" rx="30" ry="18"/>
<text text-anchor="middle" x="868.36" y="-13.8" font-family="Times,serif" font-size="14.00">string</text>
</g>
<!-- environmental process&#45;&gt;node property -->
<g id="edge8" class="edge">
<title>environmental process&#45;&gt;node property</title>
<path fill="none" stroke="blue" d="M943.59,-91.67C926.89,-86.48 909.84,-78.95 896.22,-68 888.68,-61.94 882.81,-53.26 878.44,-44.88"/>
<polygon fill="blue" stroke="blue" points="881.56,-43.28 874.14,-35.71 875.22,-46.25 881.56,-43.28"/>
<text text-anchor="middle" x="935.43" y="-56.8" font-family="Times,serif" font-size="14.00">node property</text>
</g>
<!-- iri -->
<g id="node10" class="node">
<title>iri</title>
<ellipse fill="none" stroke="blue" cx="952.36" cy="-18" rx="35.3" ry="18"/>
<text text-anchor="middle" x="952.36" y="-13.8" font-family="Times,serif" font-size="14.00">iri type</text>
</g>
<!-- environmental process&#45;&gt;iri -->
<g id="edge9" class="edge">
<title>environmental process&#45;&gt;iri</title>
<path fill="none" stroke="blue" d="M997.82,-86C989.6,-73.89 978.42,-57.42 969.21,-43.83"/>
<polygon fill="blue" stroke="blue" points="972,-41.71 963.49,-35.4 966.21,-45.64 972,-41.71"/>
<text text-anchor="middle" x="990.58" y="-56.8" font-family="Times,serif" font-size="14.00">iri</text>
</g>
<!-- synonym -->
<g id="node11" class="node">
<title>synonym</title>
<ellipse fill="none" stroke="blue" cx="1050.36" cy="-18" rx="44.96" ry="18"/>
<text text-anchor="middle" x="1050.36" y="-13.8" font-family="Times,serif" font-size="14.00">label type</text>
</g>
<!-- environmental process&#45;&gt;synonym -->
<g id="edge10" class="edge">
<title>environmental process&#45;&gt;synonym</title>
<path fill="none" stroke="blue" d="M1017.65,-86C1023.38,-74.27 1031.1,-58.46 1037.6,-45.14"/>
<polygon fill="blue" stroke="blue" points="1040.83,-46.5 1042.07,-35.97 1034.54,-43.42 1040.83,-46.5"/>
<text text-anchor="middle" x="1058.03" y="-56.8" font-family="Times,serif" font-size="14.00">synonym</text>
</g>
<!-- full name -->
<g id="node12" class="node">
<title>full name</title>
<ellipse fill="none" stroke="blue" cx="1157.36" cy="-18" rx="44.96" ry="18"/>
<text text-anchor="middle" x="1157.36" y="-13.8" font-family="Times,serif" font-size="14.00">label type</text>
</g>
<!-- environmental process&#45;&gt;full name -->
<g id="edge11" class="edge">
<title>environmental process&#45;&gt;full name</title>
<path fill="none" stroke="blue" d="M1047.36,-87.67C1060.31,-81.99 1074.71,-75.18 1087.36,-68 1101.82,-59.79 1117.04,-49.37 1129.59,-40.25"/>
<polygon fill="blue" stroke="blue" points="1131.83,-42.95 1137.8,-34.19 1127.67,-37.32 1131.83,-42.95"/>
<text text-anchor="middle" x="1135.99" y="-56.8" font-family="Times,serif" font-size="14.00">full name</text>
</g>
<!-- description -->
<g id="node13" class="node">
<title>description</title>
<ellipse fill="none" stroke="blue" cx="1277.36" cy="-18" rx="57" ry="18"/>
<text text-anchor="middle" x="1277.36" y="-13.8" font-family="Times,serif" font-size="14.00">narrative text</text>
</g>
<!-- environmental process&#45;&gt;description -->
<g id="edge12" class="edge">
<title>environmental process&#45;&gt;description</title>
<path fill="none" stroke="blue" d="M1074.29,-91.51C1102.88,-85.69 1136.64,-77.77 1166.36,-68 1191.17,-59.84 1217.99,-48.09 1239.05,-38.14"/>
<polygon fill="blue" stroke="blue" points="1240.79,-41.19 1248.3,-33.72 1237.76,-34.88 1240.79,-41.19"/>
<text text-anchor="middle" x="1232.46" y="-56.8" font-family="Times,serif" font-size="14.00">description</text>
</g>
<!-- systematic synonym -->
<g id="node14" class="node">
<title>systematic synonym</title>
<ellipse fill="none" stroke="blue" cx="1397.36" cy="-18" rx="44.96" ry="18"/>
<text text-anchor="middle" x="1397.36" y="-13.8" font-family="Times,serif" font-size="14.00">label type</text>
</g>
<!-- environmental process&#45;&gt;systematic synonym -->
<g id="edge13" class="edge">
<title>environmental process&#45;&gt;systematic synonym</title>
<path fill="none" stroke="blue" d="M1091.6,-96.61C1142.72,-91.47 1209.51,-82.63 1267.36,-68 1299.18,-59.95 1333.92,-46.61 1359.47,-35.88"/>
<polygon fill="blue" stroke="blue" points="1360.96,-39.05 1368.79,-31.91 1358.21,-32.61 1360.96,-39.05"/>
<text text-anchor="middle" x="1368.32" y="-56.8" font-family="Times,serif" font-size="14.00">systematic synonym</text>
</g>
<!-- regulates, process to process -->
<g id="node15" class="node">
<title>regulates, process to process</title>
<ellipse fill="none" stroke="blue" cx="1503.36" cy="-18" rx="43.49" ry="18"/>
<text text-anchor="middle" x="1503.36" y="-13.8" font-family="Times,serif" font-size="14.00">occurrent</text>
</g>
<!-- environmental process&#45;&gt;regulates, process to process -->
<g id="edge14" class="edge">
<title>environmental process&#45;&gt;regulates, process to process</title>
<path fill="none" stroke="blue" d="M1097.97,-100.77C1202.71,-97.24 1370.25,-88.51 1429.36,-68 1438.96,-64.67 1458.34,-51.74 1474.85,-40.01"/>
<polygon fill="blue" stroke="blue" points="1477.08,-42.71 1483.16,-34.03 1473,-37.03 1477.08,-42.71"/>
<text text-anchor="middle" x="1534.05" y="-56.8" font-family="Times,serif" font-size="14.00">regulates, process to process</text>
</g>
<!-- has participant -->
<g id="node16" class="node">
<title>has participant</title>
<ellipse fill="none" stroke="blue" cx="1619.36" cy="-18" rx="54.14" ry="18"/>
<text text-anchor="middle" x="1619.36" y="-13.8" font-family="Times,serif" font-size="14.00">named thing</text>
</g>
<!-- environmental process&#45;&gt;has participant -->
<g id="edge15" class="edge">
<title>environmental process&#45;&gt;has participant</title>
<path fill="none" stroke="blue" d="M1098.13,-101C1262.55,-96.86 1599.46,-86.2 1617.36,-68 1622.92,-62.34 1624.7,-54.31 1624.71,-46.39"/>
<polygon fill="blue" stroke="blue" points="1628.18,-45.92 1623.88,-36.24 1621.21,-46.49 1628.18,-45.92"/>
<text text-anchor="middle" x="1665.37" y="-56.8" font-family="Times,serif" font-size="14.00">has participant</text>
</g>
<!-- has input -->
<g id="node17" class="node">
<title>has input</title>
<ellipse fill="none" stroke="blue" cx="1745.36" cy="-18" rx="54.14" ry="18"/>
<text text-anchor="middle" x="1745.36" y="-13.8" font-family="Times,serif" font-size="14.00">named thing</text>
</g>
<!-- environmental process&#45;&gt;has input -->
<g id="edge16" class="edge">
<title>environmental process&#45;&gt;has input</title>
<path fill="none" stroke="blue" d="M1099.21,-102.85C1276.35,-101.92 1658.06,-96.58 1710.36,-68 1719.85,-62.81 1727.39,-53.81 1733,-44.92"/>
<polygon fill="blue" stroke="blue" points="1736.05,-46.64 1737.97,-36.22 1729.97,-43.17 1736.05,-46.64"/>
<text text-anchor="middle" x="1751.83" y="-56.8" font-family="Times,serif" font-size="14.00">has input</text>
</g>
<!-- has output -->
<g id="node18" class="node">
<title>has output</title>
<ellipse fill="none" stroke="blue" cx="1871.36" cy="-18" rx="54.14" ry="18"/>
<text text-anchor="middle" x="1871.36" y="-13.8" font-family="Times,serif" font-size="14.00">named thing</text>
</g>
<!-- environmental process&#45;&gt;has output -->
<g id="edge17" class="edge">
<title>environmental process&#45;&gt;has output</title>
<path fill="none" stroke="blue" d="M1098.28,-101.22C1287.32,-97.1 1717.14,-85.91 1781.36,-68 1802.47,-62.11 1824.1,-50.55 1840.87,-40.13"/>
<polygon fill="blue" stroke="blue" points="1843.11,-42.84 1849.64,-34.5 1839.34,-36.95 1843.11,-42.84"/>
<text text-anchor="middle" x="1844.33" y="-56.8" font-family="Times,serif" font-size="14.00">has output</text>
</g>
<!-- precedes -->
<g id="node19" class="node">
<title>precedes</title>
<ellipse fill="none" stroke="blue" cx="1987.36" cy="-18" rx="43.49" ry="18"/>
<text text-anchor="middle" x="1987.36" y="-13.8" font-family="Times,serif" font-size="14.00">occurrent</text>
</g>
<!-- environmental process&#45;&gt;precedes -->
<g id="edge18" class="edge">
<title>environmental process&#45;&gt;precedes</title>
<path fill="none" stroke="blue" d="M1099.36,-103.66C1290.57,-104.35 1731.69,-102.06 1877.36,-68 1904.31,-61.7 1932.81,-48.81 1954.04,-37.83"/>
<polygon fill="blue" stroke="blue" points="1955.76,-40.88 1962.96,-33.11 1952.49,-34.69 1955.76,-40.88"/>
<text text-anchor="middle" x="1941.84" y="-56.8" font-family="Times,serif" font-size="14.00">precedes</text>
</g>
</g>
</svg>
