<?xml version="1.0" encoding="UTF-8" standalone="no"?>
<!DOCTYPE svg PUBLIC "-//W3C//DTD SVG 1.1//EN"
 "http://www.w3.org/Graphics/SVG/1.1/DTD/svg11.dtd">
<!-- Generated by graphviz version 2.40.1 (20161225.0304)
 -->
<!-- Title: %3 Pages: 1 -->
<svg width="1317pt" height="131pt"
 viewBox="0.00 0.00 1317.19 131.00" xmlns="http://www.w3.org/2000/svg" xmlns:xlink="http://www.w3.org/1999/xlink">
<g id="graph0" class="graph" transform="scale(1 1) rotate(0) translate(4 127)">
<title>%3</title>
<polygon fill="#ffffff" stroke="transparent" points="-4,4 -4,-127 1313.188,-127 1313.188,4 -4,4"/>
<!-- environmental exposure -->
<g id="node1" class="node">
<title>environmental exposure</title>
<ellipse fill="none" stroke="#000000" cx="699.9919" cy="-105" rx="96.3833" ry="18"/>
<text text-anchor="middle" x="699.9919" y="-101.3" font-family="Times,serif" font-size="14.00" fill="#000000">environmental exposure</text>
</g>
<!-- environmental process -->
<g id="node2" class="node">
<title>environmental process</title>
<ellipse fill="none" stroke="#000000" cx="90.9919" cy="-18" rx="90.9839" ry="18"/>
<text text-anchor="middle" x="90.9919" y="-14.3" font-family="Times,serif" font-size="14.00" fill="#000000">environmental process</text>
</g>
<!-- environmental exposure&#45;&gt;environmental process -->
<g id="edge1" class="edge">
<title>environmental exposure&#45;&gt;environmental process</title>
<path fill="none" stroke="#000000" d="M612.1191,-97.5276C543.9734,-91.2705 447.2579,-81.3811 362.9919,-69 294.9726,-59.006 218.0108,-44.2503 163.3552,-33.1785"/>
<polygon fill="#000000" stroke="#000000" points="163.9137,-29.7205 153.4165,-31.156 162.5177,-36.5799 163.9137,-29.7205"/>
<text text-anchor="middle" x="373.9919" y="-57.8" font-family="Times,serif" font-size="14.00" fill="#000000">is_a</text>
</g>
<!-- exposure event -->
<g id="node3" class="node">
<title>exposure event</title>
<ellipse fill="none" stroke="#000000" cx="263.9919" cy="-18" rx="63.8893" ry="18"/>
<text text-anchor="middle" x="263.9919" y="-14.3" font-family="Times,serif" font-size="14.00" fill="#000000">exposure event</text>
</g>
<!-- environmental exposure&#45;&gt;exposure event -->
<g id="edge2" class="edge">
<title>environmental exposure&#45;&gt;exposure event</title>
<path fill="none" stroke="#000000" d="M617.3446,-95.7259C568.4187,-89.5838 505.3709,-80.5327 449.9919,-69 404.4037,-59.5062 353.4545,-45.2762 316.4232,-34.2578"/>
<polygon fill="#000000" stroke="#000000" points="317.4267,-30.9048 306.8428,-31.3865 315.417,-37.6101 317.4267,-30.9048"/>
<text text-anchor="middle" x="461.9919" y="-57.8" font-family="Times,serif" font-size="14.00" fill="#000000">uses</text>
</g>
<!-- id -->
<g id="node4" class="node">
<title>id</title>
<ellipse fill="none" stroke="#0000ff" cx="375.9919" cy="-18" rx="30.5947" ry="18"/>
<text text-anchor="middle" x="375.9919" y="-14.3" font-family="Times,serif" font-size="14.00" fill="#000000">string</text>
</g>
<!-- environmental exposure&#45;&gt;id -->
<g id="edge3" class="edge">
<title>environmental exposure&#45;&gt;id</title>
<path fill="none" stroke="#0000ff" d="M631.4808,-92.2966C573.27,-80.5737 487.9492,-61.1829 415.9919,-36 413.748,-35.2147 411.4565,-34.3532 409.1624,-33.4459"/>
<polygon fill="#0000ff" stroke="#0000ff" points="410.4079,-30.1729 399.8323,-29.5349 407.7017,-36.6287 410.4079,-30.1729"/>
<text text-anchor="middle" x="529.4919" y="-57.8" font-family="Times,serif" font-size="14.00" fill="#000000">id</text>
</g>
<!-- iri -->
<g id="node5" class="node">
<title>iri</title>
<ellipse fill="none" stroke="#0000ff" cx="460.9919" cy="-18" rx="36.2938" ry="18"/>
<text text-anchor="middle" x="460.9919" y="-14.3" font-family="Times,serif" font-size="14.00" fill="#000000">iri type</text>
</g>
<!-- environmental exposure&#45;&gt;iri -->
<g id="edge4" class="edge">
<title>environmental exposure&#45;&gt;iri</title>
<path fill="none" stroke="#0000ff" d="M653.5242,-89.1308C614.089,-75.5063 556.0961,-55.0998 505.9919,-36 503.6529,-35.1083 501.2497,-34.1808 498.829,-33.2378"/>
<polygon fill="#0000ff" stroke="#0000ff" points="500.0905,-29.9731 489.5034,-29.5672 497.5266,-36.4867 500.0905,-29.9731"/>
<text text-anchor="middle" x="603.4919" y="-57.8" font-family="Times,serif" font-size="14.00" fill="#000000">iri</text>
</g>
<!-- type -->
<g id="node6" class="node">
<title>type</title>
<ellipse fill="none" stroke="#0000ff" cx="545.9919" cy="-18" rx="30.5947" ry="18"/>
<text text-anchor="middle" x="545.9919" y="-14.3" font-family="Times,serif" font-size="14.00" fill="#000000">string</text>
</g>
<!-- environmental exposure&#45;&gt;type -->
<g id="edge5" class="edge">
<title>environmental exposure&#45;&gt;type</title>
<path fill="none" stroke="#0000ff" d="M669.5665,-87.8116C642.9065,-72.7504 604.3147,-50.9486 577.3741,-35.7289"/>
<polygon fill="#0000ff" stroke="#0000ff" points="578.7977,-32.5132 568.3694,-30.6418 575.3545,-38.6079 578.7977,-32.5132"/>
<text text-anchor="middle" x="644.9919" y="-57.8" font-family="Times,serif" font-size="14.00" fill="#000000">type</text>
</g>
<!-- name -->
<g id="node7" class="node">
<title>name</title>
<ellipse fill="none" stroke="#0000ff" cx="639.9919" cy="-18" rx="45.4919" ry="18"/>
<text text-anchor="middle" x="639.9919" y="-14.3" font-family="Times,serif" font-size="14.00" fill="#000000">label type</text>
</g>
<!-- environmental exposure&#45;&gt;name -->
<g id="edge6" class="edge">
<title>environmental exposure&#45;&gt;name</title>
<path fill="none" stroke="#0000ff" d="M687.5599,-86.9735C679.0001,-74.5619 667.4941,-57.8782 657.9425,-44.0284"/>
<polygon fill="#0000ff" stroke="#0000ff" points="660.5572,-41.6548 651.9986,-35.4097 654.7947,-45.6289 660.5572,-41.6548"/>
<text text-anchor="middle" x="689.4919" y="-57.8" font-family="Times,serif" font-size="14.00" fill="#000000">name</text>
</g>
<!-- description -->
<g id="node8" class="node">
<title>description</title>
<ellipse fill="none" stroke="#0000ff" cx="760.9919" cy="-18" rx="57.6901" ry="18"/>
<text text-anchor="middle" x="760.9919" y="-14.3" font-family="Times,serif" font-size="14.00" fill="#000000">narrative text</text>
</g>
<!-- environmental exposure&#45;&gt;description -->
<g id="edge7" class="edge">
<title>environmental exposure&#45;&gt;description</title>
<path fill="none" stroke="#0000ff" d="M712.6312,-86.9735C721.3587,-74.5261 733.0988,-57.782 742.826,-43.9087"/>
<polygon fill="#0000ff" stroke="#0000ff" points="745.7024,-45.9029 748.5776,-35.7057 739.9708,-41.8843 745.7024,-45.9029"/>
<text text-anchor="middle" x="765.4919" y="-57.8" font-family="Times,serif" font-size="14.00" fill="#000000">description</text>
</g>
<!-- source -->
<g id="node9" class="node">
<title>source</title>
<ellipse fill="none" stroke="#0000ff" cx="881.9919" cy="-18" rx="45.4919" ry="18"/>
<text text-anchor="middle" x="881.9919" y="-14.3" font-family="Times,serif" font-size="14.00" fill="#000000">label type</text>
</g>
<!-- environmental exposure&#45;&gt;source -->
<g id="edge8" class="edge">
<title>environmental exposure&#45;&gt;source</title>
<path fill="none" stroke="#0000ff" d="M749.4133,-89.5274C765.8129,-83.786 783.9661,-76.7607 799.9919,-69 817.5244,-60.5097 836.0345,-49.2199 851.0228,-39.4211"/>
<polygon fill="#0000ff" stroke="#0000ff" points="853.0104,-42.3027 859.4067,-33.8565 849.1394,-36.4704 853.0104,-42.3027"/>
<text text-anchor="middle" x="843.9919" y="-57.8" font-family="Times,serif" font-size="14.00" fill="#000000">source</text>
</g>
<!-- provided by -->
<g id="node10" class="node">
<title>provided by</title>
<ellipse fill="none" stroke="#0000ff" cx="974.9919" cy="-18" rx="29.795" ry="18"/>
<text text-anchor="middle" x="974.9919" y="-14.3" font-family="Times,serif" font-size="14.00" fill="#000000">agent</text>
</g>
<!-- environmental exposure&#45;&gt;provided by -->
<g id="edge9" class="edge">
<title>environmental exposure&#45;&gt;provided by</title>
<path fill="none" stroke="#0000ff" d="M772.0305,-93.0304C801.5574,-87.1865 835.8167,-79.1875 865.9919,-69 893.0637,-59.8602 922.3189,-45.9306 943.6984,-34.9373"/>
<polygon fill="#0000ff" stroke="#0000ff" points="945.3912,-38.002 952.6398,-30.2749 942.1546,-31.7952 945.3912,-38.002"/>
<text text-anchor="middle" x="935.9919" y="-57.8" font-family="Times,serif" font-size="14.00" fill="#000000">provided by</text>
</g>
<!-- has attribute -->
<g id="node11" class="node">
<title>has attribute</title>
<ellipse fill="none" stroke="#0000ff" cx="1062.9919" cy="-18" rx="40.0939" ry="18"/>
<text text-anchor="middle" x="1062.9919" y="-14.3" font-family="Times,serif" font-size="14.00" fill="#000000">attribute</text>
</g>
<!-- environmental exposure&#45;&gt;has attribute -->
<g id="edge10" class="edge">
<title>environmental exposure&#45;&gt;has attribute</title>
<path fill="none" stroke="#0000ff" d="M769.3663,-92.472C781.2317,-90.5114 793.4512,-88.6058 804.9919,-87 879.3694,-76.6508 901.5036,-91.9898 972.9919,-69 994.1975,-62.1805 1015.9814,-49.9975 1032.8054,-39.2489"/>
<polygon fill="#0000ff" stroke="#0000ff" points="1035.1698,-41.8835 1041.6067,-33.4682 1031.3269,-36.0326 1035.1698,-41.8835"/>
<text text-anchor="middle" x="1040.4919" y="-57.8" font-family="Times,serif" font-size="14.00" fill="#000000">has attribute</text>
</g>
<!-- category -->
<g id="node12" class="node">
<title>category</title>
<ellipse fill="none" stroke="#000000" cx="1161.9919" cy="-18" rx="40.8928" ry="18"/>
<text text-anchor="middle" x="1161.9919" y="-14.3" font-family="Times,serif" font-size="14.00" fill="#000000">category</text>
</g>
<!-- environmental exposure&#45;&gt;category -->
<g id="edge11" class="edge">
<title>environmental exposure&#45;&gt;category</title>
<path fill="none" stroke="#0000ff" d="M768.185,-92.2517C780.4083,-90.2689 793.0534,-88.413 804.9919,-87 865.3689,-79.854 1020.0132,-87.3007 1077.9919,-69 1098.034,-62.6738 1118.2381,-50.6267 1133.8075,-39.8293"/>
<polygon fill="#0000ff" stroke="#0000ff" points="1135.8537,-42.669 1141.9498,-34.0036 1131.7805,-36.976 1135.8537,-42.669"/>
<text text-anchor="middle" x="1133.4919" y="-57.8" font-family="Times,serif" font-size="14.00" fill="#000000">category</text>
</g>
<!-- timepoint -->
<g id="node14" class="node">
<title>timepoint</title>
<ellipse fill="none" stroke="#0000ff" cx="1264.9919" cy="-18" rx="44.393" ry="18"/>
<text text-anchor="middle" x="1264.9919" y="-14.3" font-family="Times,serif" font-size="14.00" fill="#000000">time type</text>
</g>
<!-- environmental exposure&#45;&gt;timepoint -->
<g id="edge12" class="edge">
<title>environmental exposure&#45;&gt;timepoint</title>
<path fill="none" stroke="#0000ff" d="M767.6036,-92.1898C780.0033,-90.1882 792.8591,-88.3418 804.9919,-87 883.7241,-78.2925 1084.3058,-88.8446 1160.9919,-69 1186.0339,-62.5197 1212.167,-49.676 1231.9725,-38.4995"/>
<polygon fill="#0000ff" stroke="#0000ff" points="1233.9746,-41.3848 1240.8768,-33.3468 1230.4685,-35.3261 1233.9746,-41.3848"/>
<text text-anchor="middle" x="1225.4919" y="-57.8" font-family="Times,serif" font-size="14.00" fill="#000000">timepoint</text>
</g>
<!-- named thing_category -->
<g id="node13" class="node">
<title>named thing_category</title>
<ellipse fill="none" stroke="#0000ff" cx="868.9919" cy="-105" rx="55.4913" ry="18"/>
<text text-anchor="middle" x="868.9919" y="-101.3" font-family="Times,serif" font-size="14.00" fill="#000000">named thing</text>
</g>
</g>
</svg>
