<?xml version="1.0" encoding="UTF-8" standalone="no"?>
<!DOCTYPE svg PUBLIC "-//W3C//DTD SVG 1.1//EN"
 "http://www.w3.org/Graphics/SVG/1.1/DTD/svg11.dtd">
<!-- Generated by graphviz version 3.0.0 (20220226.1711)
 -->
<!-- Pages: 1 -->
<svg width="1654pt" height="131pt"
 viewBox="0.00 0.00 1653.79 131.00" xmlns="http://www.w3.org/2000/svg" xmlns:xlink="http://www.w3.org/1999/xlink">
<g id="graph0" class="graph" transform="scale(1 1) rotate(0) translate(4 127)">
<polygon fill="white" stroke="transparent" points="-4,4 -4,-127 1649.79,-127 1649.79,4 -4,4"/>
<!-- environmental food contaminant -->
<g id="node1" class="node">
<title>environmental food contaminant</title>
<ellipse fill="none" stroke="black" cx="758.64" cy="-105" rx="126.98" ry="18"/>
<text text-anchor="middle" x="758.64" y="-101.3" font-family="Times,serif" font-size="14.00">environmental food contaminant</text>
</g>
<!-- chemical entity -->
<g id="node2" class="node">
<title>chemical entity</title>
<ellipse fill="none" stroke="black" cx="65.64" cy="-18" rx="65.79" ry="18"/>
<text text-anchor="middle" x="65.64" y="-14.3" font-family="Times,serif" font-size="14.00">chemical entity</text>
</g>
<!-- environmental food contaminant&#45;&gt;chemical entity -->
<g id="edge1" class="edge">
<title>environmental food contaminant&#45;&gt;chemical entity</title>
<path fill="none" stroke="black" d="M633.62,-102.03C530.73,-98.81 381.41,-90.46 252.64,-69 205.48,-61.14 152.98,-46.57 115.64,-35.18"/>
<polygon fill="black" stroke="black" points="116.59,-31.81 106.01,-32.21 114.53,-38.5 116.59,-31.81"/>
<text text-anchor="middle" x="263.64" y="-57.8" font-family="Times,serif" font-size="14.00">is_a</text>
</g>
<!-- id -->
<g id="node3" class="node">
<title>id</title>
<ellipse fill="none" stroke="blue" cx="179.64" cy="-18" rx="30.59" ry="18"/>
<text text-anchor="middle" x="179.64" y="-14.3" font-family="Times,serif" font-size="14.00">string</text>
</g>
<!-- environmental food contaminant&#45;&gt;id -->
<g id="edge2" class="edge">
<title>environmental food contaminant&#45;&gt;id</title>
<path fill="none" stroke="blue" d="M639.59,-98.76C558.1,-93.96 447.83,-85.05 351.64,-69 292,-59.04 276.98,-55.22 219.64,-36 217.27,-35.2 214.83,-34.33 212.39,-33.4"/>
<polygon fill="blue" stroke="blue" points="213.68,-30.15 203.1,-29.69 211.09,-36.65 213.68,-30.15"/>
<text text-anchor="middle" x="357.14" y="-57.8" font-family="Times,serif" font-size="14.00">id</text>
</g>
<!-- iri -->
<g id="node4" class="node">
<title>iri</title>
<ellipse fill="none" stroke="blue" cx="264.64" cy="-18" rx="36.29" ry="18"/>
<text text-anchor="middle" x="264.64" y="-14.3" font-family="Times,serif" font-size="14.00">iri type</text>
</g>
<!-- environmental food contaminant&#45;&gt;iri -->
<g id="edge3" class="edge">
<title>environmental food contaminant&#45;&gt;iri</title>
<path fill="none" stroke="blue" d="M646.09,-96.69C581.98,-91.37 500.38,-82.65 428.64,-69 374.73,-58.74 361.81,-53.05 309.64,-36 307.05,-35.15 304.39,-34.25 301.72,-33.31"/>
<polygon fill="blue" stroke="blue" points="302.7,-29.94 292.11,-29.83 300.32,-36.52 302.7,-29.94"/>
<text text-anchor="middle" x="435.14" y="-57.8" font-family="Times,serif" font-size="14.00">iri</text>
</g>
<!-- type -->
<g id="node5" class="node">
<title>type</title>
<ellipse fill="none" stroke="blue" cx="349.64" cy="-18" rx="30.59" ry="18"/>
<text text-anchor="middle" x="349.64" y="-14.3" font-family="Times,serif" font-size="14.00">string</text>
</g>
<!-- environmental food contaminant&#45;&gt;type -->
<g id="edge4" class="edge">
<title>environmental food contaminant&#45;&gt;type</title>
<path fill="none" stroke="blue" d="M660.58,-93.54C613.72,-87.74 557.01,-79.55 506.64,-69 453.76,-57.92 440.61,-53.94 389.64,-36 387.28,-35.17 384.85,-34.26 382.42,-33.32"/>
<polygon fill="blue" stroke="blue" points="383.72,-30.07 373.14,-29.57 381.1,-36.56 383.72,-30.07"/>
<text text-anchor="middle" x="518.64" y="-57.8" font-family="Times,serif" font-size="14.00">type</text>
</g>
<!-- name -->
<g id="node6" class="node">
<title>name</title>
<ellipse fill="none" stroke="blue" cx="443.64" cy="-18" rx="45.49" ry="18"/>
<text text-anchor="middle" x="443.64" y="-14.3" font-family="Times,serif" font-size="14.00">label type</text>
</g>
<!-- environmental food contaminant&#45;&gt;name -->
<g id="edge5" class="edge">
<title>environmental food contaminant&#45;&gt;name</title>
<path fill="none" stroke="blue" d="M677.81,-91.02C646.85,-85.31 611.36,-77.87 579.64,-69 546.52,-59.74 509.99,-46.11 483.14,-35.42"/>
<polygon fill="blue" stroke="blue" points="484.29,-32.11 473.71,-31.63 481.68,-38.6 484.29,-32.11"/>
<text text-anchor="middle" x="595.14" y="-57.8" font-family="Times,serif" font-size="14.00">name</text>
</g>
<!-- description -->
<g id="node7" class="node">
<title>description</title>
<ellipse fill="none" stroke="blue" cx="564.64" cy="-18" rx="57.69" ry="18"/>
<text text-anchor="middle" x="564.64" y="-14.3" font-family="Times,serif" font-size="14.00">narrative text</text>
</g>
<!-- environmental food contaminant&#45;&gt;description -->
<g id="edge6" class="edge">
<title>environmental food contaminant&#45;&gt;description</title>
<path fill="none" stroke="blue" d="M695.58,-89.28C677.12,-83.96 657.2,-77.2 639.64,-69 623.48,-61.45 606.83,-50.7 593.34,-41.11"/>
<polygon fill="blue" stroke="blue" points="595.12,-38.07 584.97,-35.02 591,-43.73 595.12,-38.07"/>
<text text-anchor="middle" x="670.14" y="-57.8" font-family="Times,serif" font-size="14.00">description</text>
</g>
<!-- source -->
<g id="node8" class="node">
<title>source</title>
<ellipse fill="none" stroke="blue" cx="670.64" cy="-18" rx="30.59" ry="18"/>
<text text-anchor="middle" x="670.64" y="-14.3" font-family="Times,serif" font-size="14.00">string</text>
</g>
<!-- environmental food contaminant&#45;&gt;source -->
<g id="edge7" class="edge">
<title>environmental food contaminant&#45;&gt;source</title>
<path fill="none" stroke="blue" d="M739.38,-87.15C733.02,-81.47 725.95,-75.04 719.64,-69 710.41,-60.16 700.49,-50.14 692.01,-41.41"/>
<polygon fill="blue" stroke="blue" points="694.44,-38.89 684.98,-34.13 689.4,-43.75 694.44,-38.89"/>
<text text-anchor="middle" x="737.64" y="-57.8" font-family="Times,serif" font-size="14.00">source</text>
</g>
<!-- has attribute -->
<g id="node9" class="node">
<title>has attribute</title>
<ellipse fill="none" stroke="blue" cx="759.64" cy="-18" rx="40.09" ry="18"/>
<text text-anchor="middle" x="759.64" y="-14.3" font-family="Times,serif" font-size="14.00">attribute</text>
</g>
<!-- environmental food contaminant&#45;&gt;has attribute -->
<g id="edge8" class="edge">
<title>environmental food contaminant&#45;&gt;has attribute</title>
<path fill="none" stroke="blue" d="M758.85,-86.8C758.98,-75.16 759.17,-59.55 759.32,-46.24"/>
<polygon fill="blue" stroke="blue" points="762.82,-46.22 759.44,-36.18 755.82,-46.13 762.82,-46.22"/>
<text text-anchor="middle" x="793.14" y="-57.8" font-family="Times,serif" font-size="14.00">has attribute</text>
</g>
<!-- provided by -->
<g id="node10" class="node">
<title>provided by</title>
<ellipse fill="none" stroke="blue" cx="848.64" cy="-18" rx="30.59" ry="18"/>
<text text-anchor="middle" x="848.64" y="-14.3" font-family="Times,serif" font-size="14.00">string</text>
</g>
<!-- environmental food contaminant&#45;&gt;provided by -->
<g id="edge9" class="edge">
<title>environmental food contaminant&#45;&gt;provided by</title>
<path fill="none" stroke="blue" d="M800.91,-87.9C810.23,-82.9 819.46,-76.64 826.64,-69 832.84,-62.42 837.47,-53.81 840.84,-45.6"/>
<polygon fill="blue" stroke="blue" points="844.22,-46.53 844.35,-35.94 837.64,-44.14 844.22,-46.53"/>
<text text-anchor="middle" x="870.64" y="-57.8" font-family="Times,serif" font-size="14.00">provided by</text>
</g>
<!-- category -->
<g id="node11" class="node">
<title>category</title>
<ellipse fill="none" stroke="black" cx="937.64" cy="-18" rx="40.89" ry="18"/>
<text text-anchor="middle" x="937.64" y="-14.3" font-family="Times,serif" font-size="14.00">category</text>
</g>
<!-- environmental food contaminant&#45;&gt;category -->
<g id="edge10" class="edge">
<title>environmental food contaminant&#45;&gt;category</title>
<path fill="none" stroke="blue" d="M854.97,-93.23C873.64,-87.98 892.19,-80.28 907.64,-69 915.93,-62.95 922.36,-53.86 927.1,-45.07"/>
<polygon fill="blue" stroke="blue" points="930.37,-46.35 931.59,-35.83 924.07,-43.29 930.37,-46.35"/>
<text text-anchor="middle" x="945.14" y="-57.8" font-family="Times,serif" font-size="14.00">category</text>
</g>
<!-- trade name -->
<g id="node13" class="node">
<title>trade name</title>
<ellipse fill="none" stroke="blue" cx="1062.64" cy="-18" rx="65.79" ry="18"/>
<text text-anchor="middle" x="1062.64" y="-14.3" font-family="Times,serif" font-size="14.00">chemical entity</text>
</g>
<!-- environmental food contaminant&#45;&gt;trade name -->
<g id="edge11" class="edge">
<title>environmental food contaminant&#45;&gt;trade name</title>
<path fill="none" stroke="blue" d="M849.14,-92.35C896.8,-85.59 949.98,-76.88 972.64,-69 992.87,-61.97 1013.88,-50.57 1030.51,-40.42"/>
<polygon fill="blue" stroke="blue" points="1032.63,-43.22 1039.26,-34.96 1028.92,-37.29 1032.63,-43.22"/>
<text text-anchor="middle" x="1037.14" y="-57.8" font-family="Times,serif" font-size="14.00">trade name</text>
</g>
<!-- available from -->
<g id="node14" class="node">
<title>available from</title>
<ellipse fill="none" stroke="blue" cx="1241.64" cy="-18" rx="94.78" ry="18"/>
<text text-anchor="middle" x="1241.64" y="-14.3" font-family="Times,serif" font-size="14.00">drug_availability_enum</text>
</g>
<!-- environmental food contaminant&#45;&gt;available from -->
<g id="edge12" class="edge">
<title>environmental food contaminant&#45;&gt;available from</title>
<path fill="none" stroke="blue" d="M849.32,-92.37C864.45,-90.52 879.99,-88.66 894.64,-87 973.21,-78.1 994.05,-84.22 1071.64,-69 1111.62,-61.16 1155.73,-48.05 1189,-37.22"/>
<polygon fill="blue" stroke="blue" points="1190.11,-40.54 1198.52,-34.09 1187.93,-33.89 1190.11,-40.54"/>
<text text-anchor="middle" x="1173.64" y="-57.8" font-family="Times,serif" font-size="14.00">available from</text>
</g>
<!-- max tolerated dose -->
<g id="node15" class="node">
<title>max tolerated dose</title>
<ellipse fill="none" stroke="blue" cx="1384.64" cy="-18" rx="30.59" ry="18"/>
<text text-anchor="middle" x="1384.64" y="-14.3" font-family="Times,serif" font-size="14.00">string</text>
</g>
<!-- environmental food contaminant&#45;&gt;max tolerated dose -->
<g id="edge13" class="edge">
<title>environmental food contaminant&#45;&gt;max tolerated dose</title>
<path fill="none" stroke="blue" d="M847.07,-92.05C862.89,-90.17 879.24,-88.39 894.64,-87 1037.84,-74.08 1075.57,-91.05 1217.64,-69 1275.7,-59.99 1290.1,-55.13 1345.64,-36 1347.74,-35.28 1349.89,-34.49 1352.04,-33.66"/>
<polygon fill="blue" stroke="blue" points="1353.43,-36.87 1361.37,-29.86 1350.79,-30.39 1353.43,-36.87"/>
<text text-anchor="middle" x="1341.64" y="-57.8" font-family="Times,serif" font-size="14.00">max tolerated dose</text>
</g>
<!-- is toxic -->
<g id="node16" class="node">
<title>is toxic</title>
<ellipse fill="none" stroke="blue" cx="1471.64" cy="-18" rx="38.19" ry="18"/>
<text text-anchor="middle" x="1471.64" y="-14.3" font-family="Times,serif" font-size="14.00">boolean</text>
</g>
<!-- environmental food contaminant&#45;&gt;is toxic -->
<g id="edge14" class="edge">
<title>environmental food contaminant&#45;&gt;is toxic</title>
<path fill="none" stroke="blue" d="M845.95,-91.93C862.12,-90.02 878.87,-88.27 894.64,-87 950.39,-82.53 1344.47,-86.33 1397.64,-69 1415.71,-63.11 1433.44,-51.4 1447.01,-40.79"/>
<polygon fill="blue" stroke="blue" points="1449.34,-43.41 1454.9,-34.39 1444.93,-37.98 1449.34,-43.41"/>
<text text-anchor="middle" x="1448.64" y="-57.8" font-family="Times,serif" font-size="14.00">is toxic</text>
</g>
<!-- has chemical role -->
<g id="node17" class="node">
<title>has chemical role</title>
<ellipse fill="none" stroke="blue" cx="1586.64" cy="-18" rx="59.29" ry="18"/>
<text text-anchor="middle" x="1586.64" y="-14.3" font-family="Times,serif" font-size="14.00">chemical role</text>
</g>
<!-- environmental food contaminant&#45;&gt;has chemical role -->
<g id="edge15" class="edge">
<title>environmental food contaminant&#45;&gt;has chemical role</title>
<path fill="none" stroke="blue" d="M845.95,-91.87C862.11,-89.97 878.87,-88.23 894.64,-87 1022.76,-77.02 1347.3,-97.32 1472.64,-69 1500.13,-62.79 1529.18,-49.94 1551.09,-38.82"/>
<polygon fill="blue" stroke="blue" points="1552.75,-41.9 1560.01,-34.18 1549.52,-35.69 1552.75,-41.9"/>
<text text-anchor="middle" x="1567.14" y="-57.8" font-family="Times,serif" font-size="14.00">has chemical role</text>
</g>
<!-- named thing_category -->
<g id="node12" class="node">
<title>named thing_category</title>
<ellipse fill="none" stroke="blue" cx="958.64" cy="-105" rx="55.49" ry="18"/>
<text text-anchor="middle" x="958.64" y="-101.3" font-family="Times,serif" font-size="14.00">named thing</text>
</g>
</g>
</svg>
