<?xml version="1.0" encoding="UTF-8" standalone="no"?>
<!DOCTYPE svg PUBLIC "-//W3C//DTD SVG 1.1//EN"
 "http://www.w3.org/Graphics/SVG/1.1/DTD/svg11.dtd">
<!-- Generated by graphviz version 2.40.1 (20161225.0304)
 -->
<!-- Title: %3 Pages: 1 -->
<svg width="868pt" height="131pt"
 viewBox="0.00 0.00 867.94 131.00" xmlns="http://www.w3.org/2000/svg" xmlns:xlink="http://www.w3.org/1999/xlink">
<g id="graph0" class="graph" transform="scale(1 1) rotate(0) translate(4 127)">
<title>%3</title>
<polygon fill="#ffffff" stroke="transparent" points="-4,4 -4,-127 863.9406,-127 863.9406,4 -4,4"/>
<!-- environmental process -->
<g id="node1" class="node">
<title>environmental process</title>
<ellipse fill="none" stroke="#000000" cx="449.6442" cy="-105" rx="90.9839" ry="18"/>
<text text-anchor="middle" x="449.6442" y="-101.3" font-family="Times,serif" font-size="14.00" fill="#000000">environmental process</text>
</g>
<!-- planetary entity -->
<g id="node2" class="node">
<title>planetary entity</title>
<ellipse fill="none" stroke="#000000" cx="65.6442" cy="-18" rx="65.7887" ry="18"/>
<text text-anchor="middle" x="65.6442" y="-14.3" font-family="Times,serif" font-size="14.00" fill="#000000">planetary entity</text>
</g>
<!-- environmental process&#45;&gt;planetary entity -->
<g id="edge1" class="edge">
<title>environmental process&#45;&gt;planetary entity</title>
<path fill="none" stroke="#000000" d="M381.8499,-92.905C346.5061,-86.3402 302.6291,-77.785 263.6442,-69 215.5996,-58.1735 161.4746,-44.1023 121.9717,-33.4833"/>
<polygon fill="#000000" stroke="#000000" points="122.8227,-30.0878 112.2562,-30.862 120.9992,-36.8462 122.8227,-30.0878"/>
<text text-anchor="middle" x="274.6442" y="-57.8" font-family="Times,serif" font-size="14.00" fill="#000000">is_a</text>
</g>
<!-- occurrent -->
<g id="node3" class="node">
<title>occurrent</title>
<ellipse fill="none" stroke="#000000" cx="193.6442" cy="-18" rx="44.393" ry="18"/>
<text text-anchor="middle" x="193.6442" y="-14.3" font-family="Times,serif" font-size="14.00" fill="#000000">occurrent</text>
</g>
<!-- environmental process&#45;&gt;occurrent -->
<g id="edge2" class="edge">
<title>environmental process&#45;&gt;occurrent</title>
<path fill="none" stroke="#000000" d="M397.8751,-90.1062C376.9096,-83.8753 352.53,-76.376 330.6442,-69 298.3005,-58.0994 262.1309,-44.5771 235.0811,-34.1958"/>
<polygon fill="#000000" stroke="#000000" points="236.1417,-30.8537 225.552,-30.524 233.6247,-37.3856 236.1417,-30.8537"/>
<text text-anchor="middle" x="342.6442" y="-57.8" font-family="Times,serif" font-size="14.00" fill="#000000">uses</text>
</g>
<!-- id -->
<g id="node4" class="node">
<title>id</title>
<ellipse fill="none" stroke="#0000ff" cx="286.6442" cy="-18" rx="30.5947" ry="18"/>
<text text-anchor="middle" x="286.6442" y="-14.3" font-family="Times,serif" font-size="14.00" fill="#000000">string</text>
</g>
<!-- environmental process&#45;&gt;id -->
<g id="edge3" class="edge">
<title>environmental process&#45;&gt;id</title>
<path fill="none" stroke="#0000ff" d="M417.8292,-88.019C389.195,-72.7357 347.3292,-50.3902 318.6396,-35.0773"/>
<polygon fill="#0000ff" stroke="#0000ff" points="319.9235,-31.7953 309.4534,-30.1743 316.6274,-37.9707 319.9235,-31.7953"/>
<text text-anchor="middle" x="384.1442" y="-57.8" font-family="Times,serif" font-size="14.00" fill="#000000">id</text>
</g>
<!-- category -->
<g id="node5" class="node">
<title>category</title>
<ellipse fill="none" stroke="#0000ff" cx="393.6442" cy="-18" rx="58.4896" ry="18"/>
<text text-anchor="middle" x="393.6442" y="-14.3" font-family="Times,serif" font-size="14.00" fill="#000000">category type</text>
</g>
<!-- environmental process&#45;&gt;category -->
<g id="edge4" class="edge">
<title>environmental process&#45;&gt;category</title>
<path fill="none" stroke="#0000ff" d="M438.0409,-86.9735C430.1044,-74.6435 419.4541,-58.0975 410.5743,-44.3021"/>
<polygon fill="#0000ff" stroke="#0000ff" points="413.3965,-42.22 405.0409,-35.7057 407.5104,-46.0087 413.3965,-42.22"/>
<text text-anchor="middle" x="449.1442" y="-57.8" font-family="Times,serif" font-size="14.00" fill="#000000">category</text>
</g>
<!-- iri -->
<g id="node6" class="node">
<title>iri</title>
<ellipse fill="none" stroke="#0000ff" cx="506.6442" cy="-18" rx="36.2938" ry="18"/>
<text text-anchor="middle" x="506.6442" y="-14.3" font-family="Times,serif" font-size="14.00" fill="#000000">iri type</text>
</g>
<!-- environmental process&#45;&gt;iri -->
<g id="edge5" class="edge">
<title>environmental process&#45;&gt;iri</title>
<path fill="none" stroke="#0000ff" d="M463.7835,-86.9714C468.0519,-81.3137 472.6596,-74.9819 476.6442,-69 481.8015,-61.2574 487.0643,-52.6105 491.7125,-44.6679"/>
<polygon fill="#0000ff" stroke="#0000ff" points="494.8831,-46.1758 496.8437,-35.764 488.8181,-42.6807 494.8831,-46.1758"/>
<text text-anchor="middle" x="492.1442" y="-57.8" font-family="Times,serif" font-size="14.00" fill="#000000">iri</text>
</g>
<!-- name -->
<g id="node7" class="node">
<title>name</title>
<ellipse fill="none" stroke="#0000ff" cx="606.6442" cy="-18" rx="45.4919" ry="18"/>
<text text-anchor="middle" x="606.6442" y="-14.3" font-family="Times,serif" font-size="14.00" fill="#000000">label type</text>
</g>
<!-- environmental process&#45;&gt;name -->
<g id="edge6" class="edge">
<title>environmental process&#45;&gt;name</title>
<path fill="none" stroke="#0000ff" d="M480.2881,-88.019C506.3449,-73.5799 543.7774,-52.837 571.1358,-37.6766"/>
<polygon fill="#0000ff" stroke="#0000ff" points="572.9463,-40.6749 579.9967,-32.7664 569.5534,-34.5521 572.9463,-40.6749"/>
<text text-anchor="middle" x="553.1442" y="-57.8" font-family="Times,serif" font-size="14.00" fill="#000000">name</text>
</g>
<!-- source -->
<g id="node8" class="node">
<title>source</title>
<ellipse fill="none" stroke="#0000ff" cx="715.6442" cy="-18" rx="45.4919" ry="18"/>
<text text-anchor="middle" x="715.6442" y="-14.3" font-family="Times,serif" font-size="14.00" fill="#000000">label type</text>
</g>
<!-- environmental process&#45;&gt;source -->
<g id="edge7" class="edge">
<title>environmental process&#45;&gt;source</title>
<path fill="none" stroke="#0000ff" d="M502.5219,-90.2497C524.3237,-83.9799 549.7865,-76.4142 572.6442,-69 606.6222,-57.9788 644.7005,-44.334 673.0157,-33.9319"/>
<polygon fill="#0000ff" stroke="#0000ff" points="674.4296,-37.141 682.6013,-30.3975 672.0079,-30.5733 674.4296,-37.141"/>
<text text-anchor="middle" x="634.6442" y="-57.8" font-family="Times,serif" font-size="14.00" fill="#000000">source</text>
</g>
<!-- has attribute -->
<g id="node9" class="node">
<title>has attribute</title>
<ellipse fill="none" stroke="#0000ff" cx="819.6442" cy="-18" rx="40.0939" ry="18"/>
<text text-anchor="middle" x="819.6442" y="-14.3" font-family="Times,serif" font-size="14.00" fill="#000000">attribute</text>
</g>
<!-- environmental process&#45;&gt;has attribute -->
<g id="edge8" class="edge">
<title>environmental process&#45;&gt;has attribute</title>
<path fill="none" stroke="#0000ff" d="M523.3341,-94.2401C563.0447,-87.9261 612.7627,-79.1895 656.6442,-69 707.6082,-57.1658 719.896,-52.2019 769.6442,-36 772.7145,-35.0001 775.8799,-33.9371 779.057,-32.847"/>
<polygon fill="#0000ff" stroke="#0000ff" points="780.2554,-36.1358 788.5398,-29.5313 777.945,-29.5281 780.2554,-36.1358"/>
<text text-anchor="middle" x="747.1442" y="-57.8" font-family="Times,serif" font-size="14.00" fill="#000000">has attribute</text>
</g>
</g>
</svg>
