<?xml version="1.0" encoding="UTF-8" standalone="no"?>
<!DOCTYPE svg PUBLIC "-//W3C//DTD SVG 1.1//EN"
 "http://www.w3.org/Graphics/SVG/1.1/DTD/svg11.dtd">
<!-- Generated by graphviz version 2.40.1 (20161225.0304)
 -->
<!-- Title: %3 Pages: 1 -->
<svg width="1265pt" height="131pt"
 viewBox="0.00 0.00 1265.24 131.00" xmlns="http://www.w3.org/2000/svg" xmlns:xlink="http://www.w3.org/1999/xlink">
<g id="graph0" class="graph" transform="scale(1 1) rotate(0) translate(4 127)">
<title>%3</title>
<polygon fill="#ffffff" stroke="transparent" points="-4,4 -4,-127 1261.2405,-127 1261.2405,4 -4,4"/>
<!-- environmental food contaminant -->
<g id="node1" class="node">
<title>environmental food contaminant</title>
<ellipse fill="none" stroke="#000000" cx="630.8939" cy="-105" rx="126.978" ry="18"/>
<text text-anchor="middle" x="630.8939" y="-101.3" font-family="Times,serif" font-size="14.00" fill="#000000">environmental food contaminant</text>
</g>
<!-- food component -->
<g id="node2" class="node">
<title>food component</title>
<ellipse fill="none" stroke="#000000" cx="68.8939" cy="-18" rx="68.7879" ry="18"/>
<text text-anchor="middle" x="68.8939" y="-14.3" font-family="Times,serif" font-size="14.00" fill="#000000">food component</text>
</g>
<!-- environmental food contaminant&#45;&gt;food component -->
<g id="edge1" class="edge">
<title>environmental food contaminant&#45;&gt;food component</title>
<path fill="none" stroke="#000000" d="M513.6363,-98.1561C441.5065,-92.7875 347.3958,-83.6979 264.8939,-69 216.594,-60.3953 162.7189,-46.0197 123.6947,-34.7203"/>
<polygon fill="#000000" stroke="#000000" points="124.1836,-31.2168 113.6033,-31.7711 122.22,-37.9358 124.1836,-31.2168"/>
<text text-anchor="middle" x="275.8939" y="-57.8" font-family="Times,serif" font-size="14.00" fill="#000000">is_a</text>
</g>
<!-- id -->
<g id="node3" class="node">
<title>id</title>
<ellipse fill="none" stroke="#0000ff" cx="185.8939" cy="-18" rx="30.5947" ry="18"/>
<text text-anchor="middle" x="185.8939" y="-14.3" font-family="Times,serif" font-size="14.00" fill="#000000">string</text>
</g>
<!-- environmental food contaminant&#45;&gt;id -->
<g id="edge2" class="edge">
<title>environmental food contaminant&#45;&gt;id</title>
<path fill="none" stroke="#0000ff" d="M522.0581,-95.7574C439.2091,-86.5136 323.2318,-68.779 225.8939,-36 223.6408,-35.2413 221.3425,-34.3999 219.0433,-33.5074"/>
<polygon fill="#0000ff" stroke="#0000ff" points="220.2793,-30.2309 209.7014,-29.6304 217.5961,-36.6963 220.2793,-30.2309"/>
<text text-anchor="middle" x="351.3939" y="-57.8" font-family="Times,serif" font-size="14.00" fill="#000000">id</text>
</g>
<!-- iri -->
<g id="node4" class="node">
<title>iri</title>
<ellipse fill="none" stroke="#0000ff" cx="270.8939" cy="-18" rx="36.2938" ry="18"/>
<text text-anchor="middle" x="270.8939" y="-14.3" font-family="Times,serif" font-size="14.00" fill="#000000">iri type</text>
</g>
<!-- environmental food contaminant&#45;&gt;iri -->
<g id="edge3" class="edge">
<title>environmental food contaminant&#45;&gt;iri</title>
<path fill="none" stroke="#0000ff" d="M546.3291,-91.5859C482.1327,-80.183 392.1997,-61.5734 315.8939,-36 313.3633,-35.1519 310.769,-34.2376 308.1656,-33.2866"/>
<polygon fill="#0000ff" stroke="#0000ff" points="309.3871,-30.0067 298.7958,-29.7344 306.9056,-36.5521 309.3871,-30.0067"/>
<text text-anchor="middle" x="433.3939" y="-57.8" font-family="Times,serif" font-size="14.00" fill="#000000">iri</text>
</g>
<!-- type -->
<g id="node5" class="node">
<title>type</title>
<ellipse fill="none" stroke="#0000ff" cx="355.8939" cy="-18" rx="30.5947" ry="18"/>
<text text-anchor="middle" x="355.8939" y="-14.3" font-family="Times,serif" font-size="14.00" fill="#000000">string</text>
</g>
<!-- environmental food contaminant&#45;&gt;type -->
<g id="edge4" class="edge">
<title>environmental food contaminant&#45;&gt;type</title>
<path fill="none" stroke="#0000ff" d="M567.9377,-89.332C520.1138,-76.7561 453.0491,-57.6657 395.8939,-36 393.6709,-35.1573 391.3952,-34.2525 389.1128,-33.3132"/>
<polygon fill="#0000ff" stroke="#0000ff" points="390.3798,-30.0484 379.8094,-29.3287 387.6238,-36.4831 390.3798,-30.0484"/>
<text text-anchor="middle" x="503.8939" y="-57.8" font-family="Times,serif" font-size="14.00" fill="#000000">type</text>
</g>
<!-- name -->
<g id="node6" class="node">
<title>name</title>
<ellipse fill="none" stroke="#0000ff" cx="449.8939" cy="-18" rx="45.4919" ry="18"/>
<text text-anchor="middle" x="449.8939" y="-14.3" font-family="Times,serif" font-size="14.00" fill="#000000">label type</text>
</g>
<!-- environmental food contaminant&#45;&gt;name -->
<g id="edge5" class="edge">
<title>environmental food contaminant&#45;&gt;name</title>
<path fill="none" stroke="#0000ff" d="M594.7009,-87.6033C563.8481,-72.7736 519.6327,-51.5208 488.1913,-36.4082"/>
<polygon fill="#0000ff" stroke="#0000ff" points="489.4019,-33.1068 478.8727,-31.929 486.3693,-39.4158 489.4019,-33.1068"/>
<text text-anchor="middle" x="567.3939" y="-57.8" font-family="Times,serif" font-size="14.00" fill="#000000">name</text>
</g>
<!-- description -->
<g id="node7" class="node">
<title>description</title>
<ellipse fill="none" stroke="#0000ff" cx="570.8939" cy="-18" rx="57.6901" ry="18"/>
<text text-anchor="middle" x="570.8939" y="-14.3" font-family="Times,serif" font-size="14.00" fill="#000000">narrative text</text>
</g>
<!-- environmental food contaminant&#45;&gt;description -->
<g id="edge6" class="edge">
<title>environmental food contaminant&#45;&gt;description</title>
<path fill="none" stroke="#0000ff" d="M618.4618,-86.9735C609.9584,-74.6435 598.5474,-58.0975 589.0333,-44.3021"/>
<polygon fill="#0000ff" stroke="#0000ff" points="591.6633,-41.9508 583.1047,-35.7057 585.9008,-45.9249 591.6633,-41.9508"/>
<text text-anchor="middle" x="635.3939" y="-57.8" font-family="Times,serif" font-size="14.00" fill="#000000">description</text>
</g>
<!-- source -->
<g id="node8" class="node">
<title>source</title>
<ellipse fill="none" stroke="#0000ff" cx="691.8939" cy="-18" rx="45.4919" ry="18"/>
<text text-anchor="middle" x="691.8939" y="-14.3" font-family="Times,serif" font-size="14.00" fill="#000000">label type</text>
</g>
<!-- environmental food contaminant&#45;&gt;source -->
<g id="edge7" class="edge">
<title>environmental food contaminant&#45;&gt;source</title>
<path fill="none" stroke="#0000ff" d="M653.5873,-87.0133C659.409,-81.651 665.3133,-75.4665 669.8939,-69 674.9661,-61.8395 679.2122,-53.3254 682.5785,-45.3248"/>
<polygon fill="#0000ff" stroke="#0000ff" points="685.8637,-46.534 686.2448,-35.9461 679.3441,-43.9854 685.8637,-46.534"/>
<text text-anchor="middle" x="696.8939" y="-57.8" font-family="Times,serif" font-size="14.00" fill="#000000">source</text>
</g>
<!-- provided by -->
<g id="node9" class="node">
<title>provided by</title>
<ellipse fill="none" stroke="#0000ff" cx="784.8939" cy="-18" rx="29.795" ry="18"/>
<text text-anchor="middle" x="784.8939" y="-14.3" font-family="Times,serif" font-size="14.00" fill="#000000">agent</text>
</g>
<!-- environmental food contaminant&#45;&gt;provided by -->
<g id="edge8" class="edge">
<title>environmental food contaminant&#45;&gt;provided by</title>
<path fill="none" stroke="#0000ff" d="M678.5898,-88.2128C691.9797,-82.7784 706.3105,-76.2567 718.8939,-69 733.4687,-60.5949 748.4088,-49.3139 760.3805,-39.4988"/>
<polygon fill="#0000ff" stroke="#0000ff" points="762.7325,-42.0944 768.1533,-32.9914 758.2389,-36.7271 762.7325,-42.0944"/>
<text text-anchor="middle" x="773.8939" y="-57.8" font-family="Times,serif" font-size="14.00" fill="#000000">provided by</text>
</g>
<!-- has attribute -->
<g id="node10" class="node">
<title>has attribute</title>
<ellipse fill="none" stroke="#0000ff" cx="872.8939" cy="-18" rx="40.0939" ry="18"/>
<text text-anchor="middle" x="872.8939" y="-14.3" font-family="Times,serif" font-size="14.00" fill="#000000">attribute</text>
</g>
<!-- environmental food contaminant&#45;&gt;has attribute -->
<g id="edge9" class="edge">
<title>environmental food contaminant&#45;&gt;has attribute</title>
<path fill="none" stroke="#0000ff" d="M731.3095,-93.9033C758.0223,-88.5695 786.2748,-80.6768 810.8939,-69 825.0806,-62.2712 838.7879,-51.5882 849.6904,-41.7342"/>
<polygon fill="#0000ff" stroke="#0000ff" points="852.2077,-44.1715 857.1001,-34.7739 847.4151,-39.0694 852.2077,-44.1715"/>
<text text-anchor="middle" x="867.3939" y="-57.8" font-family="Times,serif" font-size="14.00" fill="#000000">has attribute</text>
</g>
<!-- category -->
<g id="node11" class="node">
<title>category</title>
<ellipse fill="none" stroke="#000000" cx="971.8939" cy="-18" rx="40.8928" ry="18"/>
<text text-anchor="middle" x="971.8939" y="-14.3" font-family="Times,serif" font-size="14.00" fill="#000000">category</text>
</g>
<!-- environmental food contaminant&#45;&gt;category -->
<g id="edge10" class="edge">
<title>environmental food contaminant&#45;&gt;category</title>
<path fill="none" stroke="#0000ff" d="M723.8011,-92.6797C738.2275,-90.7735 752.9616,-88.8306 766.8939,-87 828.2197,-78.9422 847.6895,-92.5252 904.8939,-69 920.4924,-62.5852 935.6396,-51.5936 947.5741,-41.4535"/>
<polygon fill="#0000ff" stroke="#0000ff" points="950.1131,-43.8806 955.2892,-34.6362 945.478,-38.635 950.1131,-43.8806"/>
<text text-anchor="middle" x="955.3939" y="-57.8" font-family="Times,serif" font-size="14.00" fill="#000000">category</text>
</g>
<!-- in taxon -->
<g id="node13" class="node">
<title>in taxon</title>
<ellipse fill="none" stroke="#0000ff" cx="1096.8939" cy="-18" rx="65.7887" ry="18"/>
<text text-anchor="middle" x="1096.8939" y="-14.3" font-family="Times,serif" font-size="14.00" fill="#000000">organism taxon</text>
</g>
<!-- environmental food contaminant&#45;&gt;in taxon -->
<g id="edge11" class="edge">
<title>environmental food contaminant&#45;&gt;in taxon</title>
<path fill="none" stroke="#0000ff" d="M721.5327,-92.3821C736.6652,-90.4541 752.2124,-88.5824 766.8939,-87 862.672,-76.6771 889.6014,-93.0106 982.8939,-69 1009.2328,-62.2212 1037.1304,-49.8408 1058.7355,-38.9759"/>
<polygon fill="#0000ff" stroke="#0000ff" points="1060.5919,-41.9572 1067.8882,-34.2751 1057.3937,-35.7304 1060.5919,-41.9572"/>
<text text-anchor="middle" x="1048.3939" y="-57.8" font-family="Times,serif" font-size="14.00" fill="#000000">in taxon</text>
</g>
<!-- is metabolite -->
<g id="node14" class="node">
<title>is metabolite</title>
<ellipse fill="none" stroke="#0000ff" cx="1218.8939" cy="-18" rx="38.1938" ry="18"/>
<text text-anchor="middle" x="1218.8939" y="-14.3" font-family="Times,serif" font-size="14.00" fill="#000000">boolean</text>
</g>
<!-- environmental food contaminant&#45;&gt;is metabolite -->
<g id="edge12" class="edge">
<title>environmental food contaminant&#45;&gt;is metabolite</title>
<path fill="none" stroke="#0000ff" d="M720.4031,-92.2061C735.8839,-90.2646 751.8383,-88.4343 766.8939,-87 903.3983,-73.9955 940.3213,-95.3207 1074.8939,-69 1112.2635,-61.691 1153.0094,-46.5392 1181.5907,-34.6404"/>
<polygon fill="#0000ff" stroke="#0000ff" points="1183.3236,-37.7076 1191.1675,-30.5855 1180.5942,-31.2616 1183.3236,-37.7076"/>
<text text-anchor="middle" x="1163.3939" y="-57.8" font-family="Times,serif" font-size="14.00" fill="#000000">is metabolite</text>
</g>
<!-- named thing_category -->
<g id="node12" class="node">
<title>named thing_category</title>
<ellipse fill="none" stroke="#0000ff" cx="830.8939" cy="-105" rx="55.4913" ry="18"/>
<text text-anchor="middle" x="830.8939" y="-101.3" font-family="Times,serif" font-size="14.00" fill="#000000">named thing</text>
</g>
</g>
</svg>
