<?xml version="1.0" encoding="UTF-8" standalone="no"?>
<!DOCTYPE svg PUBLIC "-//W3C//DTD SVG 1.1//EN"
 "http://www.w3.org/Graphics/SVG/1.1/DTD/svg11.dtd">
<!-- Generated by graphviz version 2.44.1 (20200629.0846)
 -->
<!-- Pages: 1 -->
<svg width="1015pt" height="131pt"
 viewBox="0.00 0.00 1014.59 131.00" xmlns="http://www.w3.org/2000/svg" xmlns:xlink="http://www.w3.org/1999/xlink">
<g id="graph0" class="graph" transform="scale(1 1) rotate(0) translate(4 127)">
<polygon fill="white" stroke="transparent" points="-4,4 -4,-127 1010.59,-127 1010.59,4 -4,4"/>
<!-- environmental feature -->
<g id="node1" class="node">
<title>environmental feature</title>
<ellipse fill="none" stroke="black" cx="503.64" cy="-105" rx="89.08" ry="18"/>
<text text-anchor="middle" x="503.64" y="-101.3" font-family="Times,serif" font-size="14.00">environmental feature</text>
</g>
<!-- planetary entity -->
<g id="node2" class="node">
<title>planetary entity</title>
<ellipse fill="none" stroke="black" cx="65.64" cy="-18" rx="65.79" ry="18"/>
<text text-anchor="middle" x="65.64" y="-14.3" font-family="Times,serif" font-size="14.00">planetary entity</text>
</g>
<!-- environmental feature&#45;&gt;planetary entity -->
<g id="edge1" class="edge">
<title>environmental feature&#45;&gt;planetary entity</title>
<path fill="none" stroke="black" d="M427.55,-95.6C378.28,-89.59 312.87,-80.53 255.64,-69 208.68,-59.54 156.06,-45.41 118.12,-34.58"/>
<polygon fill="black" stroke="black" points="118.9,-31.16 108.32,-31.76 116.96,-37.89 118.9,-31.16"/>
<text text-anchor="middle" x="266.64" y="-57.8" font-family="Times,serif" font-size="14.00">is_a</text>
</g>
<!-- id -->
<g id="node3" class="node">
<title>id</title>
<ellipse fill="none" stroke="blue" cx="179.64" cy="-18" rx="30.59" ry="18"/>
<text text-anchor="middle" x="179.64" y="-14.3" font-family="Times,serif" font-size="14.00">string</text>
</g>
<!-- environmental feature&#45;&gt;id -->
<g id="edge2" class="edge">
<title>environmental feature&#45;&gt;id</title>
<path fill="none" stroke="blue" d="M440.06,-92.38C381.85,-80.89 293.75,-61.38 219.64,-36 217.27,-35.19 214.84,-34.3 212.4,-33.37"/>
<polygon fill="blue" stroke="blue" points="213.7,-30.12 203.11,-29.64 211.09,-36.61 213.7,-30.12"/>
<text text-anchor="middle" x="333.14" y="-57.8" font-family="Times,serif" font-size="14.00">id</text>
</g>
<!-- iri -->
<g id="node4" class="node">
<title>iri</title>
<ellipse fill="none" stroke="blue" cx="264.64" cy="-18" rx="36.29" ry="18"/>
<text text-anchor="middle" x="264.64" y="-14.3" font-family="Times,serif" font-size="14.00">iri type</text>
</g>
<!-- environmental feature&#45;&gt;iri -->
<g id="edge3" class="edge">
<title>environmental feature&#45;&gt;iri</title>
<path fill="none" stroke="blue" d="M459.72,-89.29C441.43,-83.11 419.98,-75.79 400.64,-69 360.05,-54.75 349.99,-50.94 309.64,-36 307.25,-35.11 304.78,-34.19 302.29,-33.26"/>
<polygon fill="blue" stroke="blue" points="303.3,-29.9 292.71,-29.67 300.84,-36.46 303.3,-29.9"/>
<text text-anchor="middle" x="407.14" y="-57.8" font-family="Times,serif" font-size="14.00">iri</text>
</g>
<!-- type -->
<g id="node5" class="node">
<title>type</title>
<ellipse fill="none" stroke="blue" cx="349.64" cy="-18" rx="30.59" ry="18"/>
<text text-anchor="middle" x="349.64" y="-14.3" font-family="Times,serif" font-size="14.00">string</text>
</g>
<!-- environmental feature&#45;&gt;type -->
<g id="edge4" class="edge">
<title>environmental feature&#45;&gt;type</title>
<path fill="none" stroke="blue" d="M474.32,-87.81C447.34,-72.93 407.51,-50.94 380.16,-35.85"/>
<polygon fill="blue" stroke="blue" points="381.85,-32.78 371.41,-31.01 378.47,-38.91 381.85,-32.78"/>
<text text-anchor="middle" x="448.64" y="-57.8" font-family="Times,serif" font-size="14.00">type</text>
</g>
<!-- name -->
<g id="node6" class="node">
<title>name</title>
<ellipse fill="none" stroke="blue" cx="443.64" cy="-18" rx="45.49" ry="18"/>
<text text-anchor="middle" x="443.64" y="-14.3" font-family="Times,serif" font-size="14.00">label type</text>
</g>
<!-- environmental feature&#45;&gt;name -->
<g id="edge5" class="edge">
<title>environmental feature&#45;&gt;name</title>
<path fill="none" stroke="blue" d="M491.5,-86.8C482.85,-74.54 471.08,-57.87 461.38,-44.13"/>
<polygon fill="blue" stroke="blue" points="463.99,-41.75 455.36,-35.6 458.27,-45.79 463.99,-41.75"/>
<text text-anchor="middle" x="493.14" y="-57.8" font-family="Times,serif" font-size="14.00">name</text>
</g>
<!-- description -->
<g id="node7" class="node">
<title>description</title>
<ellipse fill="none" stroke="blue" cx="564.64" cy="-18" rx="57.69" ry="18"/>
<text text-anchor="middle" x="564.64" y="-14.3" font-family="Times,serif" font-size="14.00">narrative text</text>
</g>
<!-- environmental feature&#45;&gt;description -->
<g id="edge6" class="edge">
<title>environmental feature&#45;&gt;description</title>
<path fill="none" stroke="blue" d="M515.99,-86.8C524.73,-74.62 536.59,-58.09 546.42,-44.4"/>
<polygon fill="blue" stroke="blue" points="549.54,-46.05 552.53,-35.89 543.85,-41.97 549.54,-46.05"/>
<text text-anchor="middle" x="569.14" y="-57.8" font-family="Times,serif" font-size="14.00">description</text>
</g>
<!-- source -->
<g id="node8" class="node">
<title>source</title>
<ellipse fill="none" stroke="blue" cx="685.64" cy="-18" rx="45.49" ry="18"/>
<text text-anchor="middle" x="685.64" y="-14.3" font-family="Times,serif" font-size="14.00">label type</text>
</g>
<!-- environmental feature&#45;&gt;source -->
<g id="edge7" class="edge">
<title>environmental feature&#45;&gt;source</title>
<path fill="none" stroke="blue" d="M551.02,-89.7C567.93,-84 586.94,-76.91 603.64,-69 621.53,-60.53 640.46,-49.17 655.62,-39.41"/>
<polygon fill="blue" stroke="blue" points="657.62,-42.29 664.08,-33.89 653.79,-36.43 657.62,-42.29"/>
<text text-anchor="middle" x="649.64" y="-57.8" font-family="Times,serif" font-size="14.00">source</text>
</g>
<!-- provided by -->
<g id="node9" class="node">
<title>provided by</title>
<ellipse fill="none" stroke="blue" cx="778.64" cy="-18" rx="29.8" ry="18"/>
<text text-anchor="middle" x="778.64" y="-14.3" font-family="Times,serif" font-size="14.00">agent</text>
</g>
<!-- environmental feature&#45;&gt;provided by -->
<g id="edge8" class="edge">
<title>environmental feature&#45;&gt;provided by</title>
<path fill="none" stroke="blue" d="M567.11,-92.36C606.21,-84.88 652.42,-75.4 671.64,-69 698.3,-60.13 727.07,-46.43 748.06,-35.61"/>
<polygon fill="blue" stroke="blue" points="749.88,-38.61 757.12,-30.87 746.64,-32.41 749.88,-38.61"/>
<text text-anchor="middle" x="741.64" y="-57.8" font-family="Times,serif" font-size="14.00">provided by</text>
</g>
<!-- has attribute -->
<g id="node10" class="node">
<title>has attribute</title>
<ellipse fill="none" stroke="blue" cx="866.64" cy="-18" rx="40.09" ry="18"/>
<text text-anchor="middle" x="866.64" y="-14.3" font-family="Times,serif" font-size="14.00">attribute</text>
</g>
<!-- environmental feature&#45;&gt;has attribute -->
<g id="edge9" class="edge">
<title>environmental feature&#45;&gt;has attribute</title>
<path fill="none" stroke="blue" d="M567.07,-92.33C578.55,-90.4 590.44,-88.54 601.64,-87 679.98,-76.24 703.32,-93.05 778.64,-69 799.69,-62.28 821.29,-50.1 837.82,-39.45"/>
<polygon fill="blue" stroke="blue" points="840.05,-42.17 846.45,-33.73 836.18,-36.34 840.05,-42.17"/>
<text text-anchor="middle" x="846.14" y="-57.8" font-family="Times,serif" font-size="14.00">has attribute</text>
</g>
<!-- category -->
<g id="node11" class="node">
<title>category</title>
<ellipse fill="none" stroke="black" cx="965.64" cy="-18" rx="40.89" ry="18"/>
<text text-anchor="middle" x="965.64" y="-14.3" font-family="Times,serif" font-size="14.00">category</text>
</g>
<!-- environmental feature&#45;&gt;category -->
<g id="edge10" class="edge">
<title>environmental feature&#45;&gt;category</title>
<path fill="none" stroke="blue" d="M566.23,-92.11C577.97,-90.17 590.15,-88.36 601.64,-87 664,-79.62 823.76,-87.9 883.64,-69 903.32,-62.79 923.13,-50.91 938.35,-40.28"/>
<polygon fill="blue" stroke="blue" points="940.68,-42.91 946.74,-34.22 936.58,-37.24 940.68,-42.91"/>
<text text-anchor="middle" x="938.14" y="-57.8" font-family="Times,serif" font-size="14.00">category</text>
</g>
<!-- named thing_category -->
<g id="node12" class="node">
<title>named thing_category</title>
<ellipse fill="none" stroke="blue" cx="665.64" cy="-105" rx="55.49" ry="18"/>
<text text-anchor="middle" x="665.64" y="-101.3" font-family="Times,serif" font-size="14.00">named thing</text>
</g>
</g>
</svg>
