<?xml version="1.0" encoding="UTF-8" standalone="no"?>
<!DOCTYPE svg PUBLIC "-//W3C//DTD SVG 1.1//EN"
 "http://www.w3.org/Graphics/SVG/1.1/DTD/svg11.dtd">
<!-- Generated by graphviz version 2.44.1 (20200629.0846)
 -->
<!-- Pages: 1 -->
<svg width="1122pt" height="131pt"
 viewBox="0.00 0.00 1121.59 131.00" xmlns="http://www.w3.org/2000/svg" xmlns:xlink="http://www.w3.org/1999/xlink">
<g id="graph0" class="graph" transform="scale(1 1) rotate(0) translate(4 127)">
<polygon fill="white" stroke="transparent" points="-4,4 -4,-127 1117.59,-127 1117.59,4 -4,4"/>
<!-- environmental process -->
<g id="node1" class="node">
<title>environmental process</title>
<ellipse fill="none" stroke="black" cx="550.64" cy="-105" rx="90.98" ry="18"/>
<text text-anchor="middle" x="550.64" y="-101.3" font-family="Times,serif" font-size="14.00">environmental process</text>
</g>
<!-- planetary entity -->
<g id="node2" class="node">
<title>planetary entity</title>
<ellipse fill="none" stroke="black" cx="65.64" cy="-18" rx="65.79" ry="18"/>
<text text-anchor="middle" x="65.64" y="-14.3" font-family="Times,serif" font-size="14.00">planetary entity</text>
</g>
<!-- environmental process&#45;&gt;planetary entity -->
<g id="edge1" class="edge">
<title>environmental process&#45;&gt;planetary entity</title>
<path fill="none" stroke="black" d="M471.17,-96.17C416.06,-90.18 341.1,-80.92 275.64,-69 222.57,-59.33 162.78,-44.73 120.61,-33.79"/>
<polygon fill="black" stroke="black" points="121.38,-30.38 110.82,-31.24 119.61,-37.15 121.38,-30.38"/>
<text text-anchor="middle" x="286.64" y="-57.8" font-family="Times,serif" font-size="14.00">is_a</text>
</g>
<!-- occurrent -->
<g id="node3" class="node">
<title>occurrent</title>
<ellipse fill="none" stroke="black" cx="193.64" cy="-18" rx="44.39" ry="18"/>
<text text-anchor="middle" x="193.64" y="-14.3" font-family="Times,serif" font-size="14.00">occurrent</text>
</g>
<!-- environmental process&#45;&gt;occurrent -->
<g id="edge2" class="edge">
<title>environmental process&#45;&gt;occurrent</title>
<path fill="none" stroke="black" d="M480,-93.61C442.27,-87.52 395.17,-79.05 353.64,-69 305.28,-57.29 294.12,-50.93 246.64,-36 243.51,-35.01 240.27,-33.99 237.02,-32.96"/>
<polygon fill="black" stroke="black" points="237.86,-29.55 227.27,-29.85 235.74,-36.22 237.86,-29.55"/>
<text text-anchor="middle" x="365.64" y="-57.8" font-family="Times,serif" font-size="14.00">uses</text>
</g>
<!-- id -->
<g id="node4" class="node">
<title>id</title>
<ellipse fill="none" stroke="blue" cx="286.64" cy="-18" rx="30.59" ry="18"/>
<text text-anchor="middle" x="286.64" y="-14.3" font-family="Times,serif" font-size="14.00">string</text>
</g>
<!-- environmental process&#45;&gt;id -->
<g id="edge3" class="edge">
<title>environmental process&#45;&gt;id</title>
<path fill="none" stroke="blue" d="M498.97,-90.02C453.24,-77.23 384.9,-57.15 326.64,-36 324.29,-35.14 321.87,-34.22 319.44,-33.27"/>
<polygon fill="blue" stroke="blue" points="320.75,-30.02 310.17,-29.49 318.11,-36.51 320.75,-30.02"/>
<text text-anchor="middle" x="430.14" y="-57.8" font-family="Times,serif" font-size="14.00">id</text>
</g>
<!-- iri -->
<g id="node5" class="node">
<title>iri</title>
<ellipse fill="none" stroke="blue" cx="371.64" cy="-18" rx="36.29" ry="18"/>
<text text-anchor="middle" x="371.64" y="-14.3" font-family="Times,serif" font-size="14.00">iri type</text>
</g>
<!-- environmental process&#45;&gt;iri -->
<g id="edge4" class="edge">
<title>environmental process&#45;&gt;iri</title>
<path fill="none" stroke="blue" d="M517.4,-88.21C485.78,-73.2 438.43,-50.71 406.35,-35.48"/>
<polygon fill="blue" stroke="blue" points="407.45,-32.13 396.91,-31 404.45,-38.45 407.45,-32.13"/>
<text text-anchor="middle" x="479.14" y="-57.8" font-family="Times,serif" font-size="14.00">iri</text>
</g>
<!-- type -->
<g id="node6" class="node">
<title>type</title>
<ellipse fill="none" stroke="blue" cx="456.64" cy="-18" rx="30.59" ry="18"/>
<text text-anchor="middle" x="456.64" y="-14.3" font-family="Times,serif" font-size="14.00">string</text>
</g>
<!-- environmental process&#45;&gt;type -->
<g id="edge5" class="edge">
<title>environmental process&#45;&gt;type</title>
<path fill="none" stroke="blue" d="M532.07,-87.21C517.18,-73.74 496.17,-54.74 480.11,-40.22"/>
<polygon fill="blue" stroke="blue" points="482.44,-37.61 472.67,-33.49 477.74,-42.8 482.44,-37.61"/>
<text text-anchor="middle" x="521.64" y="-57.8" font-family="Times,serif" font-size="14.00">type</text>
</g>
<!-- name -->
<g id="node7" class="node">
<title>name</title>
<ellipse fill="none" stroke="blue" cx="550.64" cy="-18" rx="45.49" ry="18"/>
<text text-anchor="middle" x="550.64" y="-14.3" font-family="Times,serif" font-size="14.00">label type</text>
</g>
<!-- environmental process&#45;&gt;name -->
<g id="edge6" class="edge">
<title>environmental process&#45;&gt;name</title>
<path fill="none" stroke="blue" d="M550.64,-86.8C550.64,-75.16 550.64,-59.55 550.64,-46.24"/>
<polygon fill="blue" stroke="blue" points="554.14,-46.18 550.64,-36.18 547.14,-46.18 554.14,-46.18"/>
<text text-anchor="middle" x="566.14" y="-57.8" font-family="Times,serif" font-size="14.00">name</text>
</g>
<!-- description -->
<g id="node8" class="node">
<title>description</title>
<ellipse fill="none" stroke="blue" cx="671.64" cy="-18" rx="57.69" ry="18"/>
<text text-anchor="middle" x="671.64" y="-14.3" font-family="Times,serif" font-size="14.00">narrative text</text>
</g>
<!-- environmental process&#45;&gt;description -->
<g id="edge7" class="edge">
<title>environmental process&#45;&gt;description</title>
<path fill="none" stroke="blue" d="M574.26,-87.41C593.28,-74.05 620.16,-55.17 640.86,-40.63"/>
<polygon fill="blue" stroke="blue" points="643.14,-43.3 649.31,-34.69 639.12,-37.57 643.14,-43.3"/>
<text text-anchor="middle" x="649.14" y="-57.8" font-family="Times,serif" font-size="14.00">description</text>
</g>
<!-- source -->
<g id="node9" class="node">
<title>source</title>
<ellipse fill="none" stroke="blue" cx="792.64" cy="-18" rx="45.49" ry="18"/>
<text text-anchor="middle" x="792.64" y="-14.3" font-family="Times,serif" font-size="14.00">label type</text>
</g>
<!-- environmental process&#45;&gt;source -->
<g id="edge8" class="edge">
<title>environmental process&#45;&gt;source</title>
<path fill="none" stroke="blue" d="M608.59,-91.06C632.16,-85.21 659.48,-77.65 683.64,-69 708.63,-60.06 735.76,-47.62 756.7,-37.39"/>
<polygon fill="blue" stroke="blue" points="758.45,-40.43 765.86,-32.87 755.35,-34.16 758.45,-40.43"/>
<text text-anchor="middle" x="738.64" y="-57.8" font-family="Times,serif" font-size="14.00">source</text>
</g>
<!-- provided by -->
<g id="node10" class="node">
<title>provided by</title>
<ellipse fill="none" stroke="blue" cx="885.64" cy="-18" rx="29.8" ry="18"/>
<text text-anchor="middle" x="885.64" y="-14.3" font-family="Times,serif" font-size="14.00">agent</text>
</g>
<!-- environmental process&#45;&gt;provided by -->
<g id="edge9" class="edge">
<title>environmental process&#45;&gt;provided by</title>
<path fill="none" stroke="blue" d="M617.07,-92.65C628.27,-90.75 639.79,-88.81 650.64,-87 699.51,-78.85 712.83,-81.94 760.64,-69 800.16,-58.31 808.76,-51.52 846.64,-36 848.7,-35.16 850.81,-34.28 852.93,-33.39"/>
<polygon fill="blue" stroke="blue" points="854.39,-36.57 862.21,-29.42 851.64,-30.13 854.39,-36.57"/>
<text text-anchor="middle" x="837.64" y="-57.8" font-family="Times,serif" font-size="14.00">provided by</text>
</g>
<!-- has attribute -->
<g id="node11" class="node">
<title>has attribute</title>
<ellipse fill="none" stroke="blue" cx="973.64" cy="-18" rx="40.09" ry="18"/>
<text text-anchor="middle" x="973.64" y="-14.3" font-family="Times,serif" font-size="14.00">attribute</text>
</g>
<!-- environmental process&#45;&gt;has attribute -->
<g id="edge10" class="edge">
<title>environmental process&#45;&gt;has attribute</title>
<path fill="none" stroke="blue" d="M614.8,-92.23C626.69,-90.3 639.02,-88.45 650.64,-87 749.75,-74.62 778.49,-96.02 874.64,-69 898.7,-62.24 923.8,-49.49 942.72,-38.55"/>
<polygon fill="blue" stroke="blue" points="944.65,-41.47 951.47,-33.36 941.08,-35.45 944.65,-41.47"/>
<text text-anchor="middle" x="945.14" y="-57.8" font-family="Times,serif" font-size="14.00">has attribute</text>
</g>
<!-- category -->
<g id="node12" class="node">
<title>category</title>
<ellipse fill="none" stroke="black" cx="1072.64" cy="-18" rx="40.89" ry="18"/>
<text text-anchor="middle" x="1072.64" y="-14.3" font-family="Times,serif" font-size="14.00">category</text>
</g>
<!-- environmental process&#45;&gt;category -->
<g id="edge11" class="edge">
<title>environmental process&#45;&gt;category</title>
<path fill="none" stroke="blue" d="M614.24,-92.07C626.29,-90.13 638.83,-88.32 650.64,-87 724.07,-78.8 911.65,-89.46 982.64,-69 1004.58,-62.68 1027.03,-50.22 1044.03,-39.32"/>
<polygon fill="blue" stroke="blue" points="1045.97,-42.23 1052.38,-33.8 1042.11,-36.39 1045.97,-42.23"/>
<text text-anchor="middle" x="1039.14" y="-57.8" font-family="Times,serif" font-size="14.00">category</text>
</g>
<!-- named thing_category -->
<g id="node13" class="node">
<title>named thing_category</title>
<ellipse fill="none" stroke="blue" cx="714.64" cy="-105" rx="55.49" ry="18"/>
<text text-anchor="middle" x="714.64" y="-101.3" font-family="Times,serif" font-size="14.00">named thing</text>
</g>
</g>
</svg>
