<?xml version="1.0" encoding="UTF-8" standalone="no"?>
<!DOCTYPE svg PUBLIC "-//W3C//DTD SVG 1.1//EN"
 "http://www.w3.org/Graphics/SVG/1.1/DTD/svg11.dtd">
<!-- Generated by graphviz version 2.44.0 (20200408.0750)
 -->
<!-- Pages: 1 -->
<svg width="538pt" height="131pt"
 viewBox="0.00 0.00 537.84 131.00" xmlns="http://www.w3.org/2000/svg" xmlns:xlink="http://www.w3.org/1999/xlink">
<g id="graph0" class="graph" transform="scale(1 1) rotate(0) translate(4 127)">
<polygon fill="white" stroke="transparent" points="-4,4 -4,-127 533.84,-127 533.84,4 -4,4"/>
<!-- evidence type -->
<g id="node1" class="node">
<title>evidence type</title>
<ellipse fill="none" stroke="black" cx="302.34" cy="-105" rx="59.59" ry="18"/>
<text text-anchor="middle" x="302.34" y="-101.3" font-family="Times,serif" font-size="14.00">evidence type</text>
</g>
<!-- information content entity -->
<g id="node2" class="node">
<title>information content entity</title>
<ellipse fill="none" stroke="black" cx="103.34" cy="-18" rx="103.18" ry="18"/>
<text text-anchor="middle" x="103.34" y="-14.3" font-family="Times,serif" font-size="14.00">information content entity</text>
</g>
<!-- evidence type&#45;&gt;information content entity -->
<g id="edge1" class="edge">
<title>evidence type&#45;&gt;information content entity</title>
<path fill="none" stroke="black" d="M269.03,-89.77C236.43,-75.85 186.47,-54.51 149.94,-38.9"/>
<polygon fill="black" stroke="black" points="151.06,-35.57 140.48,-34.87 148.31,-42.01 151.06,-35.57"/>
<text text-anchor="middle" x="226.34" y="-57.8" font-family="Times,serif" font-size="14.00">is_a</text>
</g>
<!-- id -->
<g id="node3" class="node">
<title>id</title>
<ellipse fill="none" stroke="blue" cx="255.34" cy="-18" rx="30.59" ry="18"/>
<text text-anchor="middle" x="255.34" y="-14.3" font-family="Times,serif" font-size="14.00">string</text>
</g>
<!-- evidence type&#45;&gt;id -->
<g id="edge2" class="edge">
<title>evidence type&#45;&gt;id</title>
<path fill="none" stroke="blue" d="M293.06,-87.21C286.32,-75.02 277.08,-58.32 269.44,-44.49"/>
<polygon fill="blue" stroke="blue" points="272.35,-42.53 264.45,-35.47 266.22,-45.91 272.35,-42.53"/>
<text text-anchor="middle" x="287.84" y="-57.8" font-family="Times,serif" font-size="14.00">id</text>
</g>
<!-- name -->
<g id="node4" class="node">
<title>name</title>
<ellipse fill="none" stroke="blue" cx="349.34" cy="-18" rx="45.49" ry="18"/>
<text text-anchor="middle" x="349.34" y="-14.3" font-family="Times,serif" font-size="14.00">label type</text>
</g>
<!-- evidence type&#45;&gt;name -->
<g id="edge3" class="edge">
<title>evidence type&#45;&gt;name</title>
<path fill="none" stroke="blue" d="M311.63,-87.21C318.32,-75.1 327.48,-58.53 335.1,-44.76"/>
<polygon fill="blue" stroke="blue" points="338.3,-46.2 340.07,-35.76 332.17,-42.82 338.3,-46.2"/>
<text text-anchor="middle" x="344.84" y="-57.8" font-family="Times,serif" font-size="14.00">name</text>
</g>
<!-- category -->
<g id="node5" class="node">
<title>category</title>
<ellipse fill="none" stroke="blue" cx="471.34" cy="-18" rx="58.49" ry="18"/>
<text text-anchor="middle" x="471.34" y="-14.3" font-family="Times,serif" font-size="14.00">category type</text>
</g>
<!-- evidence type&#45;&gt;category -->
<g id="edge4" class="edge">
<title>evidence type&#45;&gt;category</title>
<path fill="none" stroke="blue" d="M331.78,-89.19C359.89,-75.06 402.4,-53.67 433.12,-38.23"/>
<polygon fill="blue" stroke="blue" points="434.88,-41.26 442.24,-33.64 431.73,-35 434.88,-41.26"/>
<text text-anchor="middle" x="420.84" y="-57.8" font-family="Times,serif" font-size="14.00">category</text>
</g>
</g>
</svg>
