<?xml version="1.0" encoding="UTF-8" standalone="no"?>
<!DOCTYPE svg PUBLIC "-//W3C//DTD SVG 1.1//EN"
 "http://www.w3.org/Graphics/SVG/1.1/DTD/svg11.dtd">
<!-- Generated by graphviz version 2.43.0 (0)
 -->
<!-- Title: %3 Pages: 1 -->
<svg width="1676pt" height="131pt"
 viewBox="0.00 0.00 1676.24 131.00" xmlns="http://www.w3.org/2000/svg" xmlns:xlink="http://www.w3.org/1999/xlink">
<g id="graph0" class="graph" transform="scale(1 1) rotate(0) translate(4 127)">
<title>%3</title>
<polygon fill="white" stroke="transparent" points="-4,4 -4,-127 1672.24,-127 1672.24,4 -4,4"/>
<!-- evidence type -->
<g id="node1" class="node">
<title>evidence type</title>
<ellipse fill="none" stroke="black" cx="969.24" cy="-105" rx="75.29" ry="18"/>
<text text-anchor="middle" x="969.24" y="-101.3" font-family="Times,serif" font-size="14.00">evidence type</text>
</g>
<!-- information content entity -->
<g id="node2" class="node">
<title>information content entity</title>
<ellipse fill="none" stroke="black" cx="133.24" cy="-18" rx="133.48" ry="18"/>
<text text-anchor="middle" x="133.24" y="-14.3" font-family="Times,serif" font-size="14.00">information content entity</text>
</g>
<!-- evidence type&#45;&gt;information content entity -->
<g id="edge1" class="edge">
<title>evidence type&#45;&gt;information content entity</title>
<path fill="none" stroke="black" d="M894.71,-102.11C787.15,-98.75 582.33,-90.02 409.24,-69 341.88,-60.82 266.09,-46.74 211,-35.59"/>
<polygon fill="black" stroke="black" points="211.45,-32.12 200.96,-33.55 210.06,-38.98 211.45,-32.12"/>
<text text-anchor="middle" x="423.24" y="-57.8" font-family="Times,serif" font-size="14.00">is_a</text>
</g>
<!-- id -->
<g id="node3" class="node">
<title>id</title>
<ellipse fill="none" stroke="blue" cx="323.24" cy="-18" rx="38.19" ry="18"/>
<text text-anchor="middle" x="323.24" y="-14.3" font-family="Times,serif" font-size="14.00">string</text>
</g>
<!-- evidence type&#45;&gt;id -->
<g id="edge2" class="edge">
<title>evidence type&#45;&gt;id</title>
<path fill="none" stroke="blue" d="M895.23,-101.12C807,-97 655.27,-87.75 526.24,-69 456.54,-58.87 439.02,-55.13 371.24,-36 368.13,-35.12 364.94,-34.15 361.74,-33.13"/>
<polygon fill="blue" stroke="blue" points="362.83,-29.8 352.23,-29.95 360.61,-36.44 362.83,-29.8"/>
<text text-anchor="middle" x="533.24" y="-57.8" font-family="Times,serif" font-size="14.00">id</text>
</g>
<!-- iri -->
<g id="node4" class="node">
<title>iri</title>
<ellipse fill="none" stroke="blue" cx="424.24" cy="-18" rx="44.39" ry="18"/>
<text text-anchor="middle" x="424.24" y="-14.3" font-family="Times,serif" font-size="14.00">iri type</text>
</g>
<!-- evidence type&#45;&gt;iri -->
<g id="edge3" class="edge">
<title>evidence type&#45;&gt;iri</title>
<path fill="none" stroke="blue" d="M896.98,-99.78C825.17,-94.9 712.06,-85.37 615.24,-69 553.48,-58.56 538.59,-52.75 478.24,-36 474.67,-35.01 470.97,-33.94 467.28,-32.84"/>
<polygon fill="blue" stroke="blue" points="468.13,-29.44 457.55,-29.88 466.09,-36.14 468.13,-29.44"/>
<text text-anchor="middle" x="623.24" y="-57.8" font-family="Times,serif" font-size="14.00">iri</text>
</g>
<!-- type -->
<g id="node5" class="node">
<title>type</title>
<ellipse fill="none" stroke="blue" cx="525.24" cy="-18" rx="38.19" ry="18"/>
<text text-anchor="middle" x="525.24" y="-14.3" font-family="Times,serif" font-size="14.00">string</text>
</g>
<!-- evidence type&#45;&gt;type -->
<g id="edge4" class="edge">
<title>evidence type&#45;&gt;type</title>
<path fill="none" stroke="blue" d="M901.11,-97.24C847.16,-91.35 770.03,-81.76 703.24,-69 644.26,-57.73 629.65,-53.57 572.24,-36 569.48,-35.16 566.64,-34.24 563.79,-33.29"/>
<polygon fill="blue" stroke="blue" points="564.76,-29.93 554.17,-29.98 562.48,-36.55 564.76,-29.93"/>
<text text-anchor="middle" x="719.24" y="-57.8" font-family="Times,serif" font-size="14.00">type</text>
</g>
<!-- name -->
<g id="node6" class="node">
<title>name</title>
<ellipse fill="none" stroke="blue" cx="638.24" cy="-18" rx="56.59" ry="18"/>
<text text-anchor="middle" x="638.24" y="-14.3" font-family="Times,serif" font-size="14.00">label type</text>
</g>
<!-- evidence type&#45;&gt;name -->
<g id="edge5" class="edge">
<title>evidence type&#45;&gt;name</title>
<path fill="none" stroke="blue" d="M908.8,-94.24C873.66,-88.06 828.66,-79.31 789.24,-69 753.11,-59.55 713.03,-46.13 683.24,-35.58"/>
<polygon fill="blue" stroke="blue" points="684.14,-32.18 673.55,-32.12 681.79,-38.78 684.14,-32.18"/>
<text text-anchor="middle" x="809.24" y="-57.8" font-family="Times,serif" font-size="14.00">name</text>
</g>
<!-- description -->
<g id="node7" class="node">
<title>description</title>
<ellipse fill="none" stroke="blue" cx="788.24" cy="-18" rx="75.29" ry="18"/>
<text text-anchor="middle" x="788.24" y="-14.3" font-family="Times,serif" font-size="14.00">narrative text</text>
</g>
<!-- evidence type&#45;&gt;description -->
<g id="edge6" class="edge">
<title>evidence type&#45;&gt;description</title>
<path fill="none" stroke="blue" d="M917.98,-91.76C898.42,-86.13 876.27,-78.55 857.24,-69 842.52,-61.62 827.55,-51.2 815.34,-41.79"/>
<polygon fill="blue" stroke="blue" points="817.38,-38.93 807.36,-35.48 813.04,-44.42 817.38,-38.93"/>
<text text-anchor="middle" x="897.74" y="-57.8" font-family="Times,serif" font-size="14.00">description</text>
</g>
<!-- source -->
<g id="node8" class="node">
<title>source</title>
<ellipse fill="none" stroke="blue" cx="920.24" cy="-18" rx="38.19" ry="18"/>
<text text-anchor="middle" x="920.24" y="-14.3" font-family="Times,serif" font-size="14.00">string</text>
</g>
<!-- evidence type&#45;&gt;source -->
<g id="edge7" class="edge">
<title>evidence type&#45;&gt;source</title>
<path fill="none" stroke="blue" d="M959.32,-86.8C952.32,-74.66 942.83,-58.19 934.95,-44.52"/>
<polygon fill="blue" stroke="blue" points="937.83,-42.51 929.81,-35.6 931.77,-46.01 937.83,-42.51"/>
<text text-anchor="middle" x="972.24" y="-57.8" font-family="Times,serif" font-size="14.00">source</text>
</g>
<!-- has attribute -->
<g id="node9" class="node">
<title>has attribute</title>
<ellipse fill="none" stroke="blue" cx="1028.24" cy="-18" rx="51.99" ry="18"/>
<text text-anchor="middle" x="1028.24" y="-14.3" font-family="Times,serif" font-size="14.00">attribute</text>
</g>
<!-- evidence type&#45;&gt;has attribute -->
<g id="edge8" class="edge">
<title>evidence type&#45;&gt;has attribute</title>
<path fill="none" stroke="blue" d="M983.33,-87.23C987.91,-81.55 992.93,-75.1 997.24,-69 1002.72,-61.24 1008.31,-52.52 1013.2,-44.56"/>
<polygon fill="blue" stroke="blue" points="1016.21,-46.36 1018.39,-35.99 1010.22,-42.73 1016.21,-46.36"/>
<text text-anchor="middle" x="1054.24" y="-57.8" font-family="Times,serif" font-size="14.00">has attribute</text>
</g>
<!-- provided by -->
<g id="node10" class="node">
<title>provided by</title>
<ellipse fill="none" stroke="blue" cx="1136.24" cy="-18" rx="38.19" ry="18"/>
<text text-anchor="middle" x="1136.24" y="-14.3" font-family="Times,serif" font-size="14.00">string</text>
</g>
<!-- evidence type&#45;&gt;provided by -->
<g id="edge9" class="edge">
<title>evidence type&#45;&gt;provided by</title>
<path fill="none" stroke="blue" d="M1022.72,-92.24C1057.76,-84.19 1098.31,-74.09 1105.24,-69 1113.67,-62.8 1120.31,-53.56 1125.25,-44.7"/>
<polygon fill="blue" stroke="blue" points="1128.39,-46.26 1129.79,-35.76 1122.15,-43.09 1128.39,-46.26"/>
<text text-anchor="middle" x="1162.74" y="-57.8" font-family="Times,serif" font-size="14.00">provided by</text>
</g>
<!-- category -->
<g id="node11" class="node">
<title>category</title>
<ellipse fill="none" stroke="black" cx="1244.24" cy="-18" rx="51.19" ry="18"/>
<text text-anchor="middle" x="1244.24" y="-14.3" font-family="Times,serif" font-size="14.00">category</text>
</g>
<!-- evidence type&#45;&gt;category -->
<g id="edge10" class="edge">
<title>evidence type&#45;&gt;category</title>
<path fill="none" stroke="blue" d="M1023.34,-92.35C1033.26,-90.41 1043.54,-88.54 1053.24,-87 1087.7,-81.53 1179.26,-86.87 1209.24,-69 1218.66,-63.39 1226.18,-54.14 1231.8,-45.11"/>
<polygon fill="blue" stroke="blue" points="1234.91,-46.73 1236.79,-36.3 1228.82,-43.28 1234.91,-46.73"/>
<text text-anchor="middle" x="1256.74" y="-57.8" font-family="Times,serif" font-size="14.00">category</text>
</g>
<!-- license -->
<g id="node13" class="node">
<title>license</title>
<ellipse fill="none" stroke="blue" cx="1352.24" cy="-18" rx="38.19" ry="18"/>
<text text-anchor="middle" x="1352.24" y="-14.3" font-family="Times,serif" font-size="14.00">string</text>
</g>
<!-- evidence type&#45;&gt;license -->
<g id="edge11" class="edge">
<title>evidence type&#45;&gt;license</title>
<path fill="none" stroke="blue" d="M1022.39,-92.2C1032.59,-90.24 1043.22,-88.39 1053.24,-87 1106,-79.7 1242.87,-89 1292.24,-69 1306.8,-63.1 1320.47,-52.3 1331.08,-42.24"/>
<polygon fill="blue" stroke="blue" points="1333.6,-44.66 1338.23,-35.13 1328.67,-39.7 1333.6,-44.66"/>
<text text-anchor="middle" x="1341.24" y="-57.8" font-family="Times,serif" font-size="14.00">license</text>
</g>
<!-- rights -->
<g id="node14" class="node">
<title>rights</title>
<ellipse fill="none" stroke="blue" cx="1447.24" cy="-18" rx="38.19" ry="18"/>
<text text-anchor="middle" x="1447.24" y="-14.3" font-family="Times,serif" font-size="14.00">string</text>
</g>
<!-- evidence type&#45;&gt;rights -->
<g id="edge12" class="edge">
<title>evidence type&#45;&gt;rights</title>
<path fill="none" stroke="blue" d="M1022.37,-92.05C1032.57,-90.1 1043.2,-88.29 1053.24,-87 1123.22,-77.98 1303.18,-90.95 1370.24,-69 1388.8,-62.92 1407.24,-51.2 1421.42,-40.64"/>
<polygon fill="blue" stroke="blue" points="1423.89,-43.16 1429.66,-34.27 1419.61,-37.62 1423.89,-43.16"/>
<text text-anchor="middle" x="1421.74" y="-57.8" font-family="Times,serif" font-size="14.00">rights</text>
</g>
<!-- format -->
<g id="node15" class="node">
<title>format</title>
<ellipse fill="none" stroke="blue" cx="1542.24" cy="-18" rx="38.19" ry="18"/>
<text text-anchor="middle" x="1542.24" y="-14.3" font-family="Times,serif" font-size="14.00">string</text>
</g>
<!-- evidence type&#45;&gt;format -->
<g id="edge13" class="edge">
<title>evidence type&#45;&gt;format</title>
<path fill="none" stroke="blue" d="M1021.91,-92.05C1032.25,-90.07 1043.05,-88.26 1053.24,-87 1140.23,-76.28 1362.65,-91.96 1447.24,-69 1470.52,-62.68 1494.55,-49.97 1512.61,-38.94"/>
<polygon fill="blue" stroke="blue" points="1514.87,-41.66 1521.48,-33.38 1511.15,-35.73 1514.87,-41.66"/>
<text text-anchor="middle" x="1507.74" y="-57.8" font-family="Times,serif" font-size="14.00">format</text>
</g>
<!-- creation date -->
<g id="node16" class="node">
<title>creation date</title>
<ellipse fill="none" stroke="blue" cx="1630.24" cy="-18" rx="31.4" ry="18"/>
<text text-anchor="middle" x="1630.24" y="-14.3" font-family="Times,serif" font-size="14.00">date</text>
</g>
<!-- evidence type&#45;&gt;creation date -->
<g id="edge14" class="edge">
<title>evidence type&#45;&gt;creation date</title>
<path fill="none" stroke="blue" d="M1021.9,-91.98C1032.24,-90.01 1043.04,-88.21 1053.24,-87 1159.89,-74.31 1432.53,-96.93 1536.24,-69 1559.95,-62.61 1584.36,-49.39 1602.37,-38.15"/>
<polygon fill="blue" stroke="blue" points="1604.64,-40.85 1611.16,-32.5 1600.86,-34.96 1604.64,-40.85"/>
<text text-anchor="middle" x="1620.74" y="-57.8" font-family="Times,serif" font-size="14.00">creation date</text>
</g>
<!-- named thing_category -->
<g id="node12" class="node">
<title>named thing_category</title>
<ellipse fill="none" stroke="blue" cx="1132.24" cy="-105" rx="69.59" ry="18"/>
<text text-anchor="middle" x="1132.24" y="-101.3" font-family="Times,serif" font-size="14.00">named thing</text>
</g>
</g>
</svg>
