<?xml version="1.0" encoding="UTF-8" standalone="no"?>
<!DOCTYPE svg PUBLIC "-//W3C//DTD SVG 1.1//EN"
 "http://www.w3.org/Graphics/SVG/1.1/DTD/svg11.dtd">
<!-- Generated by graphviz version 2.43.0 (0)
 -->
<!-- Title: %3 Pages: 1 -->
<svg width="1823pt" height="131pt"
 viewBox="0.00 0.00 1822.69 131.00" xmlns="http://www.w3.org/2000/svg" xmlns:xlink="http://www.w3.org/1999/xlink">
<g id="graph0" class="graph" transform="scale(1 1) rotate(0) translate(4 127)">
<title>%3</title>
<polygon fill="white" stroke="transparent" points="-4,4 -4,-127 1818.69,-127 1818.69,4 -4,4"/>
<!-- exon -->
<g id="node1" class="node">
<title>exon</title>
<ellipse fill="none" stroke="black" cx="888.14" cy="-105" rx="32.49" ry="18"/>
<text text-anchor="middle" x="888.14" y="-101.3" font-family="Times,serif" font-size="14.00">exon</text>
</g>
<!-- biological entity -->
<g id="node2" class="node">
<title>biological entity</title>
<ellipse fill="none" stroke="black" cx="85.14" cy="-18" rx="85.29" ry="18"/>
<text text-anchor="middle" x="85.14" y="-14.3" font-family="Times,serif" font-size="14.00">biological entity</text>
</g>
<!-- exon&#45;&gt;biological entity -->
<g id="edge1" class="edge">
<title>exon&#45;&gt;biological entity</title>
<path fill="none" stroke="black" d="M855.49,-103.8C767.37,-102.86 517.53,-97.68 312.14,-69 254.99,-61.02 190.85,-46.35 145.37,-34.96"/>
<polygon fill="black" stroke="black" points="146.22,-31.56 135.67,-32.51 144.51,-38.35 146.22,-31.56"/>
<text text-anchor="middle" x="326.14" y="-57.8" font-family="Times,serif" font-size="14.00">is_a</text>
</g>
<!-- id -->
<g id="node3" class="node">
<title>id</title>
<ellipse fill="none" stroke="blue" cx="226.14" cy="-18" rx="38.19" ry="18"/>
<text text-anchor="middle" x="226.14" y="-14.3" font-family="Times,serif" font-size="14.00">string</text>
</g>
<!-- exon&#45;&gt;id -->
<g id="edge2" class="edge">
<title>exon&#45;&gt;id</title>
<path fill="none" stroke="blue" d="M855.7,-103.02C780.42,-100.41 588.14,-91.88 429.14,-69 359.43,-58.97 341.93,-55.13 274.14,-36 271.04,-35.12 267.84,-34.15 264.64,-33.13"/>
<polygon fill="blue" stroke="blue" points="265.73,-29.8 255.14,-29.95 263.51,-36.44 265.73,-29.8"/>
<text text-anchor="middle" x="436.14" y="-57.8" font-family="Times,serif" font-size="14.00">id</text>
</g>
<!-- iri -->
<g id="node4" class="node">
<title>iri</title>
<ellipse fill="none" stroke="blue" cx="327.14" cy="-18" rx="44.39" ry="18"/>
<text text-anchor="middle" x="327.14" y="-14.3" font-family="Times,serif" font-size="14.00">iri type</text>
</g>
<!-- exon&#45;&gt;iri -->
<g id="edge3" class="edge">
<title>exon&#45;&gt;iri</title>
<path fill="none" stroke="blue" d="M855.91,-102.61C790.89,-99.46 639.51,-90.3 514.14,-69 463.96,-60.48 407.7,-44.54 370.12,-32.94"/>
<polygon fill="blue" stroke="blue" points="371.1,-29.58 360.51,-29.94 369.01,-36.26 371.1,-29.58"/>
<text text-anchor="middle" x="522.14" y="-57.8" font-family="Times,serif" font-size="14.00">iri</text>
</g>
<!-- type -->
<g id="node5" class="node">
<title>type</title>
<ellipse fill="none" stroke="blue" cx="428.14" cy="-18" rx="38.19" ry="18"/>
<text text-anchor="middle" x="428.14" y="-14.3" font-family="Times,serif" font-size="14.00">string</text>
</g>
<!-- exon&#45;&gt;type -->
<g id="edge4" class="edge">
<title>exon&#45;&gt;type</title>
<path fill="none" stroke="blue" d="M856.04,-101.66C802.17,-97.41 690.3,-87.1 597.14,-69 542,-58.28 528.71,-52.9 475.14,-36 472.39,-35.13 469.56,-34.2 466.71,-33.24"/>
<polygon fill="blue" stroke="blue" points="467.69,-29.87 457.1,-29.9 465.39,-36.49 467.69,-29.87"/>
<text text-anchor="middle" x="613.14" y="-57.8" font-family="Times,serif" font-size="14.00">type</text>
</g>
<!-- name -->
<g id="node6" class="node">
<title>name</title>
<ellipse fill="none" stroke="blue" cx="541.14" cy="-18" rx="56.59" ry="18"/>
<text text-anchor="middle" x="541.14" y="-14.3" font-family="Times,serif" font-size="14.00">label type</text>
</g>
<!-- exon&#45;&gt;name -->
<g id="edge5" class="edge">
<title>exon&#45;&gt;name</title>
<path fill="none" stroke="blue" d="M856.61,-100.53C815.36,-95.58 741.06,-85.26 679.14,-69 646.33,-60.38 610.31,-47.2 583.31,-36.54"/>
<polygon fill="blue" stroke="blue" points="584.37,-33.2 573.79,-32.74 581.78,-39.7 584.37,-33.2"/>
<text text-anchor="middle" x="699.14" y="-57.8" font-family="Times,serif" font-size="14.00">name</text>
</g>
<!-- description -->
<g id="node7" class="node">
<title>description</title>
<ellipse fill="none" stroke="blue" cx="691.14" cy="-18" rx="75.29" ry="18"/>
<text text-anchor="middle" x="691.14" y="-14.3" font-family="Times,serif" font-size="14.00">narrative text</text>
</g>
<!-- exon&#45;&gt;description -->
<g id="edge6" class="edge">
<title>exon&#45;&gt;description</title>
<path fill="none" stroke="blue" d="M856.15,-101.15C825.55,-97.33 778.91,-88.6 743.14,-69 731.3,-62.51 720.21,-52.62 711.34,-43.34"/>
<polygon fill="blue" stroke="blue" points="713.77,-40.81 704.44,-35.78 708.6,-45.53 713.77,-40.81"/>
<text text-anchor="middle" x="783.64" y="-57.8" font-family="Times,serif" font-size="14.00">description</text>
</g>
<!-- has attribute -->
<g id="node8" class="node">
<title>has attribute</title>
<ellipse fill="none" stroke="blue" cx="836.14" cy="-18" rx="51.99" ry="18"/>
<text text-anchor="middle" x="836.14" y="-14.3" font-family="Times,serif" font-size="14.00">attribute</text>
</g>
<!-- exon&#45;&gt;has attribute -->
<g id="edge7" class="edge">
<title>exon&#45;&gt;has attribute</title>
<path fill="none" stroke="blue" d="M861.55,-94.59C850.04,-89.04 837.72,-80.76 831.14,-69 827.29,-62.12 826.78,-53.86 827.74,-46.06"/>
<polygon fill="blue" stroke="blue" points="831.18,-46.71 829.68,-36.22 824.31,-45.36 831.18,-46.71"/>
<text text-anchor="middle" x="878.14" y="-57.8" font-family="Times,serif" font-size="14.00">has attribute</text>
</g>
<!-- provided by -->
<g id="node9" class="node">
<title>provided by</title>
<ellipse fill="none" stroke="blue" cx="944.14" cy="-18" rx="38.19" ry="18"/>
<text text-anchor="middle" x="944.14" y="-14.3" font-family="Times,serif" font-size="14.00">string</text>
</g>
<!-- exon&#45;&gt;provided by -->
<g id="edge8" class="edge">
<title>exon&#45;&gt;provided by</title>
<path fill="none" stroke="blue" d="M906.39,-89.73C912.98,-83.86 920.04,-76.65 925.14,-69 929.85,-61.94 933.62,-53.54 936.52,-45.67"/>
<polygon fill="blue" stroke="blue" points="939.86,-46.71 939.73,-36.12 933.23,-44.48 939.86,-46.71"/>
<text text-anchor="middle" x="975.64" y="-57.8" font-family="Times,serif" font-size="14.00">provided by</text>
</g>
<!-- xref -->
<g id="node10" class="node">
<title>xref</title>
<ellipse fill="none" stroke="blue" cx="1058.14" cy="-18" rx="57.39" ry="18"/>
<text text-anchor="middle" x="1058.14" y="-14.3" font-family="Times,serif" font-size="14.00">uriorcurie</text>
</g>
<!-- exon&#45;&gt;xref -->
<g id="edge9" class="edge">
<title>exon&#45;&gt;xref</title>
<path fill="none" stroke="blue" d="M912.57,-92.93C917.95,-90.76 923.68,-88.64 929.14,-87 969.46,-74.88 986.67,-91.68 1022.14,-69 1031.47,-63.04 1039.14,-53.72 1044.97,-44.74"/>
<polygon fill="blue" stroke="blue" points="1048.06,-46.39 1050.17,-36.01 1042.05,-42.8 1048.06,-46.39"/>
<text text-anchor="middle" x="1052.64" y="-57.8" font-family="Times,serif" font-size="14.00">xref</text>
</g>
<!-- full name -->
<g id="node11" class="node">
<title>full name</title>
<ellipse fill="none" stroke="blue" cx="1190.14" cy="-18" rx="56.59" ry="18"/>
<text text-anchor="middle" x="1190.14" y="-14.3" font-family="Times,serif" font-size="14.00">label type</text>
</g>
<!-- exon&#45;&gt;full name -->
<g id="edge10" class="edge">
<title>exon&#45;&gt;full name</title>
<path fill="none" stroke="blue" d="M912.49,-92.66C917.88,-90.5 923.63,-88.46 929.14,-87 990.63,-70.67 1009.7,-85.47 1071.14,-69 1099.3,-61.45 1129.56,-48.67 1152.53,-37.91"/>
<polygon fill="blue" stroke="blue" points="1154.05,-41.06 1161.58,-33.6 1151.05,-34.74 1154.05,-41.06"/>
<text text-anchor="middle" x="1148.64" y="-57.8" font-family="Times,serif" font-size="14.00">full name</text>
</g>
<!-- synonym -->
<g id="node12" class="node">
<title>synonym</title>
<ellipse fill="none" stroke="blue" cx="1321.14" cy="-18" rx="56.59" ry="18"/>
<text text-anchor="middle" x="1321.14" y="-14.3" font-family="Times,serif" font-size="14.00">label type</text>
</g>
<!-- exon&#45;&gt;synonym -->
<g id="edge11" class="edge">
<title>exon&#45;&gt;synonym</title>
<path fill="none" stroke="blue" d="M911.99,-92.6C917.51,-90.39 923.44,-88.34 929.14,-87 1040.59,-60.73 1074.21,-93.13 1186.14,-69 1219.11,-61.89 1254.83,-48.39 1281.24,-37.2"/>
<polygon fill="blue" stroke="blue" points="1282.73,-40.37 1290.53,-33.2 1279.96,-33.94 1282.73,-40.37"/>
<text text-anchor="middle" x="1268.14" y="-57.8" font-family="Times,serif" font-size="14.00">synonym</text>
</g>
<!-- category -->
<g id="node13" class="node">
<title>category</title>
<ellipse fill="none" stroke="black" cx="1447.14" cy="-18" rx="51.19" ry="18"/>
<text text-anchor="middle" x="1447.14" y="-14.3" font-family="Times,serif" font-size="14.00">category</text>
</g>
<!-- exon&#45;&gt;category -->
<g id="edge12" class="edge">
<title>exon&#45;&gt;category</title>
<path fill="none" stroke="blue" d="M911.97,-92.51C917.49,-90.3 923.43,-88.28 929.14,-87 1091.96,-50.5 1140.36,-100.87 1304.14,-69 1339.94,-62.04 1378.91,-47.95 1407.11,-36.5"/>
<polygon fill="blue" stroke="blue" points="1408.71,-39.62 1416.62,-32.57 1406.04,-33.15 1408.71,-39.62"/>
<text text-anchor="middle" x="1388.64" y="-57.8" font-family="Times,serif" font-size="14.00">category</text>
</g>
<!-- in taxon -->
<g id="node15" class="node">
<title>in taxon</title>
<ellipse fill="none" stroke="blue" cx="1600.14" cy="-18" rx="83.39" ry="18"/>
<text text-anchor="middle" x="1600.14" y="-14.3" font-family="Times,serif" font-size="14.00">organism taxon</text>
</g>
<!-- exon&#45;&gt;in taxon -->
<g id="edge13" class="edge">
<title>exon&#45;&gt;in taxon</title>
<path fill="none" stroke="blue" d="M911.96,-92.46C917.48,-90.25 923.42,-88.25 929.14,-87 1036.69,-63.55 1315.42,-86.16 1424.14,-69 1467.12,-62.22 1514.5,-48.38 1549.26,-36.97"/>
<polygon fill="blue" stroke="blue" points="1550.78,-40.16 1559.17,-33.68 1548.57,-33.51 1550.78,-40.16"/>
<text text-anchor="middle" x="1517.14" y="-57.8" font-family="Times,serif" font-size="14.00">in taxon</text>
</g>
<!-- in taxon label -->
<g id="node16" class="node">
<title>in taxon label</title>
<ellipse fill="none" stroke="blue" cx="1758.14" cy="-18" rx="56.59" ry="18"/>
<text text-anchor="middle" x="1758.14" y="-14.3" font-family="Times,serif" font-size="14.00">label type</text>
</g>
<!-- exon&#45;&gt;in taxon label -->
<g id="edge14" class="edge">
<title>exon&#45;&gt;in taxon label</title>
<path fill="none" stroke="blue" d="M911.95,-92.42C917.48,-90.22 923.42,-88.23 929.14,-87 1064.14,-58.08 1413.23,-86.71 1550.14,-69 1605.55,-61.83 1667.67,-45.82 1709.47,-33.84"/>
<polygon fill="blue" stroke="blue" points="1710.49,-37.19 1719.12,-31.04 1708.54,-30.46 1710.49,-37.19"/>
<text text-anchor="middle" x="1679.64" y="-57.8" font-family="Times,serif" font-size="14.00">in taxon label</text>
</g>
<!-- named thing_category -->
<g id="node14" class="node">
<title>named thing_category</title>
<ellipse fill="none" stroke="blue" cx="1013.14" cy="-105" rx="74.99" ry="18"/>
<text text-anchor="middle" x="1013.14" y="-101.3" font-family="Times,serif" font-size="14.00">category type</text>
</g>
</g>
</svg>
