<?xml version="1.0" encoding="UTF-8" standalone="no"?>
<!DOCTYPE svg PUBLIC "-//W3C//DTD SVG 1.1//EN"
 "http://www.w3.org/Graphics/SVG/1.1/DTD/svg11.dtd">
<!-- Generated by graphviz version 3.0.0 (20220226.1711)
 -->
<!-- Pages: 1 -->
<svg width="3516pt" height="291pt"
 viewBox="0.00 0.00 3516.24 291.00" xmlns="http://www.w3.org/2000/svg" xmlns:xlink="http://www.w3.org/1999/xlink">
<g id="graph0" class="graph" transform="scale(1 1) rotate(0) translate(4 287)">
<polygon fill="white" stroke="transparent" points="-4,4 -4,-287 3512.24,-287 3512.24,4 -4,4"/>
<!-- exposure event to outcome association -->
<g id="node1" class="node">
<title>exposure event to outcome association</title>
<ellipse fill="none" stroke="black" cx="1688.05" cy="-265" rx="147.57" ry="18"/>
<text text-anchor="middle" x="1688.05" y="-261.3" font-family="Times,serif" font-size="14.00">exposure event to outcome association</text>
</g>
<!-- association -->
<g id="node2" class="node">
<title>association</title>
<ellipse fill="none" stroke="black" cx="50.05" cy="-178" rx="50.09" ry="18"/>
<text text-anchor="middle" x="50.05" y="-174.3" font-family="Times,serif" font-size="14.00">association</text>
</g>
<!-- exposure event to outcome association&#45;&gt;association -->
<g id="edge1" class="edge">
<title>exposure event to outcome association&#45;&gt;association</title>
<path fill="none" stroke="black" d="M1542.71,-261.64C1325.51,-257.64 903.38,-248.04 545.05,-229 350.99,-218.69 300.31,-230.42 109.05,-196 104.68,-195.21 100.17,-194.23 95.69,-193.14"/>
<polygon fill="black" stroke="black" points="96.52,-189.75 85.96,-190.62 94.76,-196.52 96.52,-189.75"/>
<text text-anchor="middle" x="556.05" y="-217.8" font-family="Times,serif" font-size="14.00">is_a</text>
</g>
<!-- exposure event to entity association mixin -->
<g id="node3" class="node">
<title>exposure event to entity association mixin</title>
<ellipse fill="none" stroke="black" cx="279.05" cy="-178" rx="160.57" ry="18"/>
<text text-anchor="middle" x="279.05" y="-174.3" font-family="Times,serif" font-size="14.00">exposure event to entity association mixin</text>
</g>
<!-- exposure event to outcome association&#45;&gt;exposure event to entity association mixin -->
<g id="edge2" class="edge">
<title>exposure event to outcome association&#45;&gt;exposure event to entity association mixin</title>
<path fill="none" stroke="black" d="M1542.25,-261.96C1354.79,-258.59 1019.3,-249.98 733.05,-229 615.28,-220.37 480.89,-204.86 389.08,-193.4"/>
<polygon fill="black" stroke="black" points="389.29,-189.9 378.94,-192.12 388.42,-196.84 389.29,-189.9"/>
<text text-anchor="middle" x="745.05" y="-217.8" font-family="Times,serif" font-size="14.00">uses</text>
</g>
<!-- entity to outcome association mixin -->
<g id="node4" class="node">
<title>entity to outcome association mixin</title>
<ellipse fill="none" stroke="black" cx="595.05" cy="-178" rx="137.58" ry="18"/>
<text text-anchor="middle" x="595.05" y="-174.3" font-family="Times,serif" font-size="14.00">entity to outcome association mixin</text>
</g>
<!-- exposure event to outcome association&#45;&gt;entity to outcome association mixin -->
<g id="edge3" class="edge">
<title>exposure event to outcome association&#45;&gt;entity to outcome association mixin</title>
<path fill="none" stroke="black" d="M1540.46,-264.46C1373.18,-263.45 1092.62,-257.08 853.05,-229 790.28,-221.64 719.9,-207.61 668.53,-196.28"/>
<polygon fill="black" stroke="black" points="669.03,-192.81 658.51,-194.05 667.51,-199.64 669.03,-192.81"/>
<text text-anchor="middle" x="865.05" y="-217.8" font-family="Times,serif" font-size="14.00">uses</text>
</g>
<!-- id -->
<g id="node5" class="node">
<title>id</title>
<ellipse fill="none" stroke="blue" cx="781.05" cy="-178" rx="30.59" ry="18"/>
<text text-anchor="middle" x="781.05" y="-174.3" font-family="Times,serif" font-size="14.00">string</text>
</g>
<!-- exposure event to outcome association&#45;&gt;id -->
<g id="edge4" class="edge">
<title>exposure event to outcome association&#45;&gt;id</title>
<path fill="none" stroke="blue" d="M1545.37,-260.27C1366.19,-255.05 1069.05,-244.42 960.05,-229 897.18,-220.1 881.37,-215.82 821.05,-196 818.66,-195.22 816.22,-194.35 813.78,-193.44"/>
<polygon fill="blue" stroke="blue" points="815.07,-190.18 804.48,-189.74 812.48,-196.68 815.07,-190.18"/>
<text text-anchor="middle" x="965.55" y="-217.8" font-family="Times,serif" font-size="14.00">id</text>
</g>
<!-- iri -->
<g id="node6" class="node">
<title>iri</title>
<ellipse fill="none" stroke="blue" cx="866.05" cy="-178" rx="36.29" ry="18"/>
<text text-anchor="middle" x="866.05" y="-174.3" font-family="Times,serif" font-size="14.00">iri type</text>
</g>
<!-- exposure event to outcome association&#45;&gt;iri -->
<g id="edge5" class="edge">
<title>exposure event to outcome association&#45;&gt;iri</title>
<path fill="none" stroke="blue" d="M1541.05,-263.16C1411.88,-260.7 1219.17,-252.83 1053.05,-229 989.34,-219.86 973.68,-214.52 912.05,-196 909.12,-195.12 906.12,-194.16 903.11,-193.14"/>
<polygon fill="blue" stroke="blue" points="904.18,-189.81 893.59,-189.81 901.87,-196.42 904.18,-189.81"/>
<text text-anchor="middle" x="1059.55" y="-217.8" font-family="Times,serif" font-size="14.00">iri</text>
</g>
<!-- name -->
<g id="node7" class="node">
<title>name</title>
<ellipse fill="none" stroke="blue" cx="966.05" cy="-178" rx="45.49" ry="18"/>
<text text-anchor="middle" x="966.05" y="-174.3" font-family="Times,serif" font-size="14.00">label type</text>
</g>
<!-- exposure event to outcome association&#45;&gt;name -->
<g id="edge6" class="edge">
<title>exposure event to outcome association&#45;&gt;name</title>
<path fill="none" stroke="blue" d="M1540.41,-264.16C1426.83,-262.03 1266.42,-254.11 1128.05,-229 1085.92,-221.36 1039.37,-206.26 1007.02,-194.64"/>
<polygon fill="blue" stroke="blue" points="1008.05,-191.29 997.45,-191.16 1005.65,-197.87 1008.05,-191.29"/>
<text text-anchor="middle" x="1143.55" y="-217.8" font-family="Times,serif" font-size="14.00">name</text>
</g>
<!-- description -->
<g id="node8" class="node">
<title>description</title>
<ellipse fill="none" stroke="blue" cx="1087.05" cy="-178" rx="57.69" ry="18"/>
<text text-anchor="middle" x="1087.05" y="-174.3" font-family="Times,serif" font-size="14.00">narrative text</text>
</g>
<!-- exposure event to outcome association&#45;&gt;description -->
<g id="edge7" class="edge">
<title>exposure event to outcome association&#45;&gt;description</title>
<path fill="none" stroke="blue" d="M1549.1,-258.91C1430.27,-253.64 1268.82,-244.04 1206.05,-229 1177.51,-222.16 1147.03,-209.24 1124.06,-198.24"/>
<polygon fill="blue" stroke="blue" points="1125.54,-195.07 1115.02,-193.83 1122.47,-201.36 1125.54,-195.07"/>
<text text-anchor="middle" x="1236.55" y="-217.8" font-family="Times,serif" font-size="14.00">description</text>
</g>
<!-- source -->
<g id="node9" class="node">
<title>source</title>
<ellipse fill="none" stroke="blue" cx="1193.05" cy="-178" rx="30.59" ry="18"/>
<text text-anchor="middle" x="1193.05" y="-174.3" font-family="Times,serif" font-size="14.00">string</text>
</g>
<!-- exposure event to outcome association&#45;&gt;source -->
<g id="edge8" class="edge">
<title>exposure event to outcome association&#45;&gt;source</title>
<path fill="none" stroke="blue" d="M1545.61,-260.09C1475.68,-255.78 1390.62,-246.94 1316.05,-229 1283.8,-221.24 1248.94,-206.41 1224.59,-194.9"/>
<polygon fill="blue" stroke="blue" points="1226.02,-191.7 1215.49,-190.52 1222.98,-198.01 1226.02,-191.7"/>
<text text-anchor="middle" x="1334.05" y="-217.8" font-family="Times,serif" font-size="14.00">source</text>
</g>
<!-- has attribute -->
<g id="node10" class="node">
<title>has attribute</title>
<ellipse fill="none" stroke="blue" cx="1282.05" cy="-178" rx="40.09" ry="18"/>
<text text-anchor="middle" x="1282.05" y="-174.3" font-family="Times,serif" font-size="14.00">attribute</text>
</g>
<!-- exposure event to outcome association&#45;&gt;has attribute -->
<g id="edge9" class="edge">
<title>exposure event to outcome association&#45;&gt;has attribute</title>
<path fill="none" stroke="blue" d="M1558.4,-256.35C1507.76,-251.29 1449.58,-242.9 1398.05,-229 1369.52,-221.3 1338.88,-207.85 1316.26,-196.84"/>
<polygon fill="blue" stroke="blue" points="1317.6,-193.6 1307.09,-192.3 1314.49,-199.87 1317.6,-193.6"/>
<text text-anchor="middle" x="1431.55" y="-217.8" font-family="Times,serif" font-size="14.00">has attribute</text>
</g>
<!-- subject -->
<g id="node11" class="node">
<title>subject</title>
<ellipse fill="none" stroke="blue" cx="1396.05" cy="-178" rx="55.49" ry="18"/>
<text text-anchor="middle" x="1396.05" y="-174.3" font-family="Times,serif" font-size="14.00">named thing</text>
</g>
<!-- exposure event to outcome association&#45;&gt;subject -->
<g id="edge10" class="edge">
<title>exposure event to outcome association&#45;&gt;subject</title>
<path fill="none" stroke="blue" d="M1596.73,-250.8C1567.4,-245.41 1535.02,-238.23 1506.05,-229 1480.91,-221 1453.93,-208.79 1432.98,-198.44"/>
<polygon fill="blue" stroke="blue" points="1434.31,-195.2 1423.81,-193.84 1431.18,-201.46 1434.31,-195.2"/>
<text text-anchor="middle" x="1525.55" y="-217.8" font-family="Times,serif" font-size="14.00">subject</text>
</g>
<!-- predicate -->
<g id="node12" class="node">
<title>predicate</title>
<ellipse fill="none" stroke="blue" cx="1530.05" cy="-178" rx="60.39" ry="18"/>
<text text-anchor="middle" x="1530.05" y="-174.3" font-family="Times,serif" font-size="14.00">predicate type</text>
</g>
<!-- exposure event to outcome association&#45;&gt;predicate -->
<g id="edge11" class="edge">
<title>exposure event to outcome association&#45;&gt;predicate</title>
<path fill="none" stroke="blue" d="M1604.41,-250.05C1589.39,-245.04 1574.55,-238.24 1562.05,-229 1553.68,-222.82 1546.93,-213.74 1541.83,-205.01"/>
<polygon fill="blue" stroke="blue" points="1544.91,-203.34 1537.12,-196.17 1538.74,-206.64 1544.91,-203.34"/>
<text text-anchor="middle" x="1587.05" y="-217.8" font-family="Times,serif" font-size="14.00">predicate</text>
</g>
<!-- object -->
<g id="node13" class="node">
<title>object</title>
<ellipse fill="none" stroke="blue" cx="1574.05" cy="-91" rx="55.49" ry="18"/>
<text text-anchor="middle" x="1574.05" y="-87.3" font-family="Times,serif" font-size="14.00">named thing</text>
</g>
<!-- exposure event to outcome association&#45;&gt;object -->
<g id="edge12" class="edge">
<title>exposure event to outcome association&#45;&gt;object</title>
<path fill="none" stroke="blue" d="M1675.58,-246.83C1665.75,-233.18 1651.78,-213.53 1640.05,-196 1622.32,-169.53 1602.88,-138.66 1589.72,-117.46"/>
<polygon fill="blue" stroke="blue" points="1592.55,-115.39 1584.31,-108.73 1586.6,-119.08 1592.55,-115.39"/>
<text text-anchor="middle" x="1657.05" y="-174.3" font-family="Times,serif" font-size="14.00">object</text>
</g>
<!-- relation -->
<g id="node14" class="node">
<title>relation</title>
<ellipse fill="none" stroke="blue" cx="1574.05" cy="-18" rx="30.59" ry="18"/>
<text text-anchor="middle" x="1574.05" y="-14.3" font-family="Times,serif" font-size="14.00">string</text>
</g>
<!-- exposure event to outcome association&#45;&gt;relation -->
<g id="edge13" class="edge">
<title>exposure event to outcome association&#45;&gt;relation</title>
<path fill="none" stroke="blue" d="M1687.65,-246.93C1686.02,-211.24 1677.89,-127.52 1638.05,-73 1628.22,-59.55 1614.37,-47.33 1602.07,-37.92"/>
<polygon fill="blue" stroke="blue" points="1603.99,-34.99 1593.86,-31.88 1599.84,-40.63 1603.99,-34.99"/>
<text text-anchor="middle" x="1692.05" y="-130.8" font-family="Times,serif" font-size="14.00">relation</text>
</g>
<!-- negated -->
<g id="node15" class="node">
<title>negated</title>
<ellipse fill="none" stroke="blue" cx="1754.05" cy="-178" rx="38.19" ry="18"/>
<text text-anchor="middle" x="1754.05" y="-174.3" font-family="Times,serif" font-size="14.00">boolean</text>
</g>
<!-- exposure event to outcome association&#45;&gt;negated -->
<g id="edge14" class="edge">
<title>exposure event to outcome association&#45;&gt;negated</title>
<path fill="none" stroke="blue" d="M1701.4,-246.8C1711.07,-234.35 1724.28,-217.34 1735.05,-203.47"/>
<polygon fill="blue" stroke="blue" points="1738.01,-205.36 1741.38,-195.31 1732.48,-201.06 1738.01,-205.36"/>
<text text-anchor="middle" x="1746.55" y="-217.8" font-family="Times,serif" font-size="14.00">negated</text>
</g>
<!-- qualifiers -->
<g id="node16" class="node">
<title>qualifiers</title>
<ellipse fill="none" stroke="blue" cx="1872.05" cy="-178" rx="61.99" ry="18"/>
<text text-anchor="middle" x="1872.05" y="-174.3" font-family="Times,serif" font-size="14.00">ontology class</text>
</g>
<!-- exposure event to outcome association&#45;&gt;qualifiers -->
<g id="edge15" class="edge">
<title>exposure event to outcome association&#45;&gt;qualifiers</title>
<path fill="none" stroke="blue" d="M1728.88,-247.65C1742.68,-241.95 1758.11,-235.38 1772.05,-229 1792.88,-219.46 1815.77,-208.09 1834.38,-198.6"/>
<polygon fill="blue" stroke="blue" points="1836.11,-201.65 1843.42,-193.97 1832.92,-195.42 1836.11,-201.65"/>
<text text-anchor="middle" x="1828.55" y="-217.8" font-family="Times,serif" font-size="14.00">qualifiers</text>
</g>
<!-- publications -->
<g id="node17" class="node">
<title>publications</title>
<ellipse fill="none" stroke="blue" cx="2002.05" cy="-178" rx="50.09" ry="18"/>
<text text-anchor="middle" x="2002.05" y="-174.3" font-family="Times,serif" font-size="14.00">publication</text>
</g>
<!-- exposure event to outcome association&#45;&gt;publications -->
<g id="edge16" class="edge">
<title>exposure event to outcome association&#45;&gt;publications</title>
<path fill="none" stroke="blue" d="M1767.7,-249.84C1796.38,-244.16 1828.85,-237.04 1858.05,-229 1892.74,-219.45 1931.2,-205.94 1959.64,-195.37"/>
<polygon fill="blue" stroke="blue" points="1961.12,-198.55 1969.26,-191.77 1958.67,-192 1961.12,-198.55"/>
<text text-anchor="middle" x="1940.55" y="-217.8" font-family="Times,serif" font-size="14.00">publications</text>
</g>
<!-- has evidence -->
<g id="node18" class="node">
<title>has evidence</title>
<ellipse fill="none" stroke="blue" cx="2130.05" cy="-178" rx="59.59" ry="18"/>
<text text-anchor="middle" x="2130.05" y="-174.3" font-family="Times,serif" font-size="14.00">evidence type</text>
</g>
<!-- exposure event to outcome association&#45;&gt;has evidence -->
<g id="edge17" class="edge">
<title>exposure event to outcome association&#45;&gt;has evidence</title>
<path fill="none" stroke="blue" d="M1793.04,-252.35C1868.51,-243.8 1960.01,-233.01 1978.05,-229 2014.83,-220.81 2055.32,-207.26 2085.25,-196.33"/>
<polygon fill="blue" stroke="blue" points="2086.81,-199.49 2094.97,-192.74 2084.38,-192.92 2086.81,-199.49"/>
<text text-anchor="middle" x="2069.05" y="-217.8" font-family="Times,serif" font-size="14.00">has evidence</text>
</g>
<!-- knowledge source -->
<g id="node19" class="node">
<title>knowledge source</title>
<ellipse fill="none" stroke="blue" cx="2293.05" cy="-178" rx="85.29" ry="18"/>
<text text-anchor="middle" x="2293.05" y="-174.3" font-family="Times,serif" font-size="14.00">information resource</text>
</g>
<!-- exposure event to outcome association&#45;&gt;knowledge source -->
<g id="edge18" class="edge">
<title>exposure event to outcome association&#45;&gt;knowledge source</title>
<path fill="none" stroke="blue" d="M1791.62,-252.12C1809.11,-250.28 1827.08,-248.5 1844.05,-247 1961.19,-236.63 1992.06,-248.44 2108.05,-229 2152.89,-221.49 2202.57,-207.75 2239.15,-196.57"/>
<polygon fill="blue" stroke="blue" points="2240.58,-199.79 2249.1,-193.49 2238.51,-193.1 2240.58,-199.79"/>
<text text-anchor="middle" x="2224.55" y="-217.8" font-family="Times,serif" font-size="14.00">knowledge source</text>
</g>
<!-- original knowledge source -->
<g id="node20" class="node">
<title>original knowledge source</title>
<ellipse fill="none" stroke="blue" cx="2481.05" cy="-178" rx="85.29" ry="18"/>
<text text-anchor="middle" x="2481.05" y="-174.3" font-family="Times,serif" font-size="14.00">information resource</text>
</g>
<!-- exposure event to outcome association&#45;&gt;original knowledge source -->
<g id="edge19" class="edge">
<title>exposure event to outcome association&#45;&gt;original knowledge source</title>
<path fill="none" stroke="blue" d="M1789.91,-251.9C1807.93,-250.05 1826.52,-248.32 1844.05,-247 2036.56,-232.53 2086.92,-256.22 2278.05,-229 2328.5,-221.81 2384.69,-207.47 2425.13,-195.98"/>
<polygon fill="blue" stroke="blue" points="2426.16,-199.32 2434.8,-193.2 2424.22,-192.6 2426.16,-199.32"/>
<text text-anchor="middle" x="2424.55" y="-217.8" font-family="Times,serif" font-size="14.00">original knowledge source</text>
</g>
<!-- primary knowledge source -->
<g id="node21" class="node">
<title>primary knowledge source</title>
<ellipse fill="none" stroke="blue" cx="2669.05" cy="-178" rx="85.29" ry="18"/>
<text text-anchor="middle" x="2669.05" y="-174.3" font-family="Times,serif" font-size="14.00">information resource</text>
</g>
<!-- exposure event to outcome association&#45;&gt;primary knowledge source -->
<g id="edge20" class="edge">
<title>exposure event to outcome association&#45;&gt;primary knowledge source</title>
<path fill="none" stroke="blue" d="M1788.64,-251.83C1807.05,-249.94 1826.11,-248.22 1844.05,-247 1989.76,-237.08 2356.82,-252.03 2501.05,-229 2541.76,-222.5 2586.43,-208.87 2619.47,-197.49"/>
<polygon fill="blue" stroke="blue" points="2621.05,-200.64 2629.34,-194.04 2618.74,-194.04 2621.05,-200.64"/>
<text text-anchor="middle" x="2640.05" y="-217.8" font-family="Times,serif" font-size="14.00">primary knowledge source</text>
</g>
<!-- aggregator knowledge source -->
<g id="node22" class="node">
<title>aggregator knowledge source</title>
<ellipse fill="none" stroke="blue" cx="2857.05" cy="-178" rx="85.29" ry="18"/>
<text text-anchor="middle" x="2857.05" y="-174.3" font-family="Times,serif" font-size="14.00">information resource</text>
</g>
<!-- exposure event to outcome association&#45;&gt;aggregator knowledge source -->
<g id="edge21" class="edge">
<title>exposure event to outcome association&#45;&gt;aggregator knowledge source</title>
<path fill="none" stroke="blue" d="M1788.22,-251.77C1806.75,-249.88 1825.97,-248.17 1844.05,-247 2037.68,-234.48 2526.2,-264.09 2717.05,-229 2750.54,-222.84 2786.7,-209.75 2813.87,-198.51"/>
<polygon fill="blue" stroke="blue" points="2815.24,-201.73 2823.09,-194.62 2812.52,-195.28 2815.24,-201.73"/>
<text text-anchor="middle" x="2853.05" y="-217.8" font-family="Times,serif" font-size="14.00">aggregator knowledge source</text>
</g>
<!-- type -->
<g id="node23" class="node">
<title>type</title>
<ellipse fill="none" stroke="black" cx="2987.05" cy="-178" rx="27" ry="18"/>
<text text-anchor="middle" x="2987.05" y="-174.3" font-family="Times,serif" font-size="14.00">type</text>
</g>
<!-- exposure event to outcome association&#45;&gt;type -->
<g id="edge22" class="edge">
<title>exposure event to outcome association&#45;&gt;type</title>
<path fill="none" stroke="blue" d="M1788.21,-251.71C1806.75,-249.82 1825.96,-248.13 1844.05,-247 1904.66,-243.21 2881.13,-252.7 2937.05,-229 2950.07,-223.48 2961.49,-212.8 2970.12,-202.73"/>
<polygon fill="blue" stroke="blue" points="2972.89,-204.87 2976.42,-194.89 2967.43,-200.49 2972.89,-204.87"/>
<text text-anchor="middle" x="2972.05" y="-217.8" font-family="Times,serif" font-size="14.00">type</text>
</g>
<!-- category -->
<g id="node25" class="node">
<title>category</title>
<ellipse fill="none" stroke="black" cx="3073.05" cy="-178" rx="40.89" ry="18"/>
<text text-anchor="middle" x="3073.05" y="-174.3" font-family="Times,serif" font-size="14.00">category</text>
</g>
<!-- exposure event to outcome association&#45;&gt;category -->
<g id="edge23" class="edge">
<title>exposure event to outcome association&#45;&gt;category</title>
<path fill="none" stroke="blue" d="M1788.21,-251.69C1806.75,-249.81 1825.96,-248.13 1844.05,-247 1907.49,-243.05 2926.85,-246.18 2988.05,-229 3008.91,-223.14 3029.92,-210.86 3045.83,-199.93"/>
<polygon fill="blue" stroke="blue" points="3047.98,-202.69 3054.11,-194.05 3043.93,-196.98 3047.98,-202.69"/>
<text text-anchor="middle" x="3046.55" y="-217.8" font-family="Times,serif" font-size="14.00">category</text>
</g>
<!-- has population context -->
<g id="node27" class="node">
<title>has population context</title>
<ellipse fill="none" stroke="blue" cx="3267.05" cy="-178" rx="135.38" ry="18"/>
<text text-anchor="middle" x="3267.05" y="-174.3" font-family="Times,serif" font-size="14.00">population of individual organisms</text>
</g>
<!-- exposure event to outcome association&#45;&gt;has population context -->
<g id="edge24" class="edge">
<title>exposure event to outcome association&#45;&gt;has population context</title>
<path fill="none" stroke="blue" d="M1787.79,-251.72C1806.46,-249.82 1825.83,-248.12 1844.05,-247 2116.89,-230.17 2803.14,-265.54 3074.05,-229 3120.18,-222.78 3171.1,-209.3 3209.05,-197.9"/>
<polygon fill="blue" stroke="blue" points="3210.36,-201.16 3218.9,-194.9 3208.32,-194.46 3210.36,-201.16"/>
<text text-anchor="middle" x="3212.05" y="-217.8" font-family="Times,serif" font-size="14.00">has population context</text>
</g>
<!-- has temporal context -->
<g id="node28" class="node">
<title>has temporal context</title>
<ellipse fill="none" stroke="blue" cx="3464.05" cy="-178" rx="44.39" ry="18"/>
<text text-anchor="middle" x="3464.05" y="-174.3" font-family="Times,serif" font-size="14.00">time type</text>
</g>
<!-- exposure event to outcome association&#45;&gt;has temporal context -->
<g id="edge25" class="edge">
<title>exposure event to outcome association&#45;&gt;has temporal context</title>
<path fill="none" stroke="blue" d="M1787.79,-251.69C1806.46,-249.8 1825.83,-248.1 1844.05,-247 2003.1,-237.36 3120,-249.32 3278.05,-229 3328.74,-222.48 3385.2,-205.92 3422.47,-193.64"/>
<polygon fill="blue" stroke="blue" points="3423.61,-196.95 3431.99,-190.46 3421.39,-190.31 3423.61,-196.95"/>
<text text-anchor="middle" x="3407.55" y="-217.8" font-family="Times,serif" font-size="14.00">has temporal context</text>
</g>
<!-- subject&#45;&gt;object -->
<g id="edge26" class="edge">
<title>subject&#45;&gt;object</title>
<path fill="none" stroke="black" d="M1425.84,-162.77C1455.74,-148.49 1501.97,-126.42 1534.84,-110.72"/>
<polygon fill="black" stroke="black" points="1536.64,-113.74 1544.16,-106.27 1533.62,-107.42 1536.64,-113.74"/>
<text text-anchor="middle" x="1517.05" y="-130.8" font-family="Times,serif" font-size="14.00">relation</text>
</g>
<!-- subject&#45;&gt;relation -->
<g id="edge27" class="edge">
<title>subject&#45;&gt;relation</title>
<path fill="none" stroke="black" stroke-dasharray="1,5" d="M1413.63,-160.57C1435.85,-139.89 1475.41,-103.39 1510.05,-73 1522.83,-61.78 1537.3,-49.54 1549.24,-39.55"/>
<polygon fill="black" stroke="black" points="1551.61,-42.13 1557.05,-33.04 1547.13,-36.75 1551.61,-42.13"/>
</g>
<!-- object&#45;&gt;relation -->
<g id="edge28" class="edge">
<title>object&#45;&gt;relation</title>
<path fill="none" stroke="black" stroke-dasharray="1,5" d="M1574.05,-72.81C1574.05,-64.79 1574.05,-55.05 1574.05,-46.07"/>
<polygon fill="black" stroke="black" points="1577.55,-46.03 1574.05,-36.03 1570.55,-46.03 1577.55,-46.03"/>
</g>
<!-- association_type -->
<g id="node24" class="node">
<title>association_type</title>
<ellipse fill="none" stroke="blue" cx="1884.05" cy="-265" rx="30.59" ry="18"/>
<text text-anchor="middle" x="1884.05" y="-261.3" font-family="Times,serif" font-size="14.00">string</text>
</g>
<!-- association_category -->
<g id="node26" class="node">
<title>association_category</title>
<ellipse fill="none" stroke="blue" cx="1991.05" cy="-265" rx="58.49" ry="18"/>
<text text-anchor="middle" x="1991.05" y="-261.3" font-family="Times,serif" font-size="14.00">category type</text>
</g>
</g>
</svg>
