<?xml version="1.0" encoding="UTF-8" standalone="no"?>
<!DOCTYPE svg PUBLIC "-//W3C//DTD SVG 1.1//EN"
 "http://www.w3.org/Graphics/SVG/1.1/DTD/svg11.dtd">
<!-- Generated by graphviz version 2.43.0 (0)
 -->
<!-- Title: %3 Pages: 1 -->
<svg width="4067pt" height="291pt"
 viewBox="0.00 0.00 4066.84 291.00" xmlns="http://www.w3.org/2000/svg" xmlns:xlink="http://www.w3.org/1999/xlink">
<g id="graph0" class="graph" transform="scale(1 1) rotate(0) translate(4 287)">
<title>%3</title>
<polygon fill="white" stroke="transparent" points="-4,4 -4,-287 4062.84,-287 4062.84,4 -4,4"/>
<!-- exposure event to phenotypic feature association -->
<g id="node1" class="node">
<title>exposure event to phenotypic feature association</title>
<ellipse fill="none" stroke="black" cx="1886.39" cy="-265" rx="239.36" ry="18"/>
<text text-anchor="middle" x="1886.39" y="-261.3" font-family="Times,serif" font-size="14.00">exposure event to phenotypic feature association</text>
</g>
<!-- association -->
<g id="node2" class="node">
<title>association</title>
<ellipse fill="none" stroke="black" cx="62.39" cy="-178" rx="62.29" ry="18"/>
<text text-anchor="middle" x="62.39" y="-174.3" font-family="Times,serif" font-size="14.00">association</text>
</g>
<!-- exposure event to phenotypic feature association&#45;&gt;association -->
<g id="edge1" class="edge">
<title>exposure event to phenotypic feature association&#45;&gt;association</title>
<path fill="none" stroke="black" d="M1652.29,-261.31C1388.3,-257.45 946.3,-248.53 566.39,-229 374.09,-219.11 324.67,-225.55 134.39,-196 128.7,-195.12 122.8,-194.02 116.92,-192.81"/>
<polygon fill="black" stroke="black" points="117.63,-189.39 107.12,-190.7 116.16,-196.23 117.63,-189.39"/>
<text text-anchor="middle" x="580.39" y="-217.8" font-family="Times,serif" font-size="14.00">is_a</text>
</g>
<!-- entity to phenotypic feature association mixin -->
<g id="node3" class="node">
<title>entity to phenotypic feature association mixin</title>
<ellipse fill="none" stroke="black" cx="367.39" cy="-178" rx="224.46" ry="18"/>
<text text-anchor="middle" x="367.39" y="-174.3" font-family="Times,serif" font-size="14.00">entity to phenotypic feature association mixin</text>
</g>
<!-- exposure event to phenotypic feature association&#45;&gt;entity to phenotypic feature association mixin -->
<g id="edge2" class="edge">
<title>exposure event to phenotypic feature association&#45;&gt;entity to phenotypic feature association mixin</title>
<path fill="none" stroke="black" d="M1647.35,-264.29C1412.7,-262.81 1044.84,-255.76 727.39,-229 639.72,-221.61 540.75,-207.44 468.8,-196.06"/>
<polygon fill="black" stroke="black" points="469.25,-192.59 458.83,-194.48 468.15,-199.5 469.25,-192.59"/>
<text text-anchor="middle" x="743.89" y="-217.8" font-family="Times,serif" font-size="14.00">uses</text>
</g>
<!-- id -->
<g id="node4" class="node">
<title>id</title>
<ellipse fill="none" stroke="blue" cx="648.39" cy="-178" rx="38.19" ry="18"/>
<text text-anchor="middle" x="648.39" y="-174.3" font-family="Times,serif" font-size="14.00">string</text>
</g>
<!-- exposure event to phenotypic feature association&#45;&gt;id -->
<g id="edge3" class="edge">
<title>exposure event to phenotypic feature association&#45;&gt;id</title>
<path fill="none" stroke="blue" d="M1653.67,-260.76C1397.78,-256.37 1003.18,-246.93 854.39,-229 783.17,-220.42 765.47,-215.35 696.39,-196 693.29,-195.13 690.09,-194.16 686.89,-193.14"/>
<polygon fill="blue" stroke="blue" points="687.98,-189.81 677.38,-189.97 685.76,-196.46 687.98,-189.81"/>
<text text-anchor="middle" x="861.39" y="-217.8" font-family="Times,serif" font-size="14.00">id</text>
</g>
<!-- iri -->
<g id="node5" class="node">
<title>iri</title>
<ellipse fill="none" stroke="blue" cx="749.39" cy="-178" rx="44.39" ry="18"/>
<text text-anchor="middle" x="749.39" y="-174.3" font-family="Times,serif" font-size="14.00">iri type</text>
</g>
<!-- exposure event to phenotypic feature association&#45;&gt;iri -->
<g id="edge4" class="edge">
<title>exposure event to phenotypic feature association&#45;&gt;iri</title>
<path fill="none" stroke="blue" d="M1657.19,-259.79C1427.26,-254.76 1089.17,-244.97 959.39,-229 888.63,-220.29 871.32,-214.25 802.39,-196 799.02,-195.11 795.55,-194.13 792.07,-193.11"/>
<polygon fill="blue" stroke="blue" points="792.9,-189.7 782.32,-190.14 790.87,-196.4 792.9,-189.7"/>
<text text-anchor="middle" x="967.39" y="-217.8" font-family="Times,serif" font-size="14.00">iri</text>
</g>
<!-- name -->
<g id="node6" class="node">
<title>name</title>
<ellipse fill="none" stroke="blue" cx="868.39" cy="-178" rx="56.59" ry="18"/>
<text text-anchor="middle" x="868.39" y="-174.3" font-family="Times,serif" font-size="14.00">label type</text>
</g>
<!-- exposure event to phenotypic feature association&#45;&gt;name -->
<g id="edge5" class="edge">
<title>exposure event to phenotypic feature association&#45;&gt;name</title>
<path fill="none" stroke="blue" d="M1654.06,-260.61C1445.34,-256.43 1154.79,-247.46 1041.39,-229 997.3,-221.82 948.53,-207.08 914.04,-195.45"/>
<polygon fill="blue" stroke="blue" points="914.86,-192.03 904.27,-192.11 912.6,-198.66 914.86,-192.03"/>
<text text-anchor="middle" x="1061.39" y="-217.8" font-family="Times,serif" font-size="14.00">name</text>
</g>
<!-- description -->
<g id="node7" class="node">
<title>description</title>
<ellipse fill="none" stroke="blue" cx="1018.39" cy="-178" rx="75.29" ry="18"/>
<text text-anchor="middle" x="1018.39" y="-174.3" font-family="Times,serif" font-size="14.00">narrative text</text>
</g>
<!-- exposure event to phenotypic feature association&#45;&gt;description -->
<g id="edge6" class="edge">
<title>exposure event to phenotypic feature association&#45;&gt;description</title>
<path fill="none" stroke="blue" d="M1648.03,-263.22C1462.17,-260.71 1220.07,-252.75 1124.39,-229 1099.56,-222.84 1073.55,-210.66 1053.51,-199.87"/>
<polygon fill="blue" stroke="blue" points="1055.19,-196.81 1044.75,-195.04 1051.81,-202.93 1055.19,-196.81"/>
<text text-anchor="middle" x="1164.89" y="-217.8" font-family="Times,serif" font-size="14.00">description</text>
</g>
<!-- source -->
<g id="node8" class="node">
<title>source</title>
<ellipse fill="none" stroke="blue" cx="1150.39" cy="-178" rx="38.19" ry="18"/>
<text text-anchor="middle" x="1150.39" y="-174.3" font-family="Times,serif" font-size="14.00">string</text>
</g>
<!-- exposure event to phenotypic feature association&#45;&gt;source -->
<g id="edge7" class="edge">
<title>exposure event to phenotypic feature association&#45;&gt;source</title>
<path fill="none" stroke="blue" d="M1651.05,-261.74C1500.01,-258.25 1318.72,-249.7 1244.39,-229 1221.35,-222.58 1197.57,-209.87 1179.7,-198.87"/>
<polygon fill="blue" stroke="blue" points="1181.25,-195.71 1170.93,-193.32 1177.51,-201.62 1181.25,-195.71"/>
<text text-anchor="middle" x="1268.39" y="-217.8" font-family="Times,serif" font-size="14.00">source</text>
</g>
<!-- has attribute -->
<g id="node9" class="node">
<title>has attribute</title>
<ellipse fill="none" stroke="blue" cx="1258.39" cy="-178" rx="51.99" ry="18"/>
<text text-anchor="middle" x="1258.39" y="-174.3" font-family="Times,serif" font-size="14.00">attribute</text>
</g>
<!-- exposure event to phenotypic feature association&#45;&gt;has attribute -->
<g id="edge8" class="edge">
<title>exposure event to phenotypic feature association&#45;&gt;has attribute</title>
<path fill="none" stroke="blue" d="M1672.09,-257.01C1525.97,-251.16 1353.21,-241.73 1320.39,-229 1305.66,-223.28 1291.73,-212.71 1280.82,-202.75"/>
<polygon fill="blue" stroke="blue" points="1283.08,-200.07 1273.44,-195.69 1278.24,-205.13 1283.08,-200.07"/>
<text text-anchor="middle" x="1367.39" y="-217.8" font-family="Times,serif" font-size="14.00">has attribute</text>
</g>
<!-- predicate -->
<g id="node10" class="node">
<title>predicate</title>
<ellipse fill="none" stroke="blue" cx="1406.39" cy="-178" rx="77.99" ry="18"/>
<text text-anchor="middle" x="1406.39" y="-174.3" font-family="Times,serif" font-size="14.00">predicate type</text>
</g>
<!-- exposure event to phenotypic feature association&#45;&gt;predicate -->
<g id="edge9" class="edge">
<title>exposure event to phenotypic feature association&#45;&gt;predicate</title>
<path fill="none" stroke="blue" d="M1671.25,-257.12C1563.37,-251.94 1451.18,-243.22 1430.39,-229 1422.43,-223.55 1417.02,-214.7 1413.39,-205.95"/>
<polygon fill="blue" stroke="blue" points="1416.61,-204.57 1410,-196.29 1410.01,-206.89 1416.61,-204.57"/>
<text text-anchor="middle" x="1464.39" y="-217.8" font-family="Times,serif" font-size="14.00">predicate</text>
</g>
<!-- object -->
<g id="node11" class="node">
<title>object</title>
<ellipse fill="none" stroke="blue" cx="2456.39" cy="-91" rx="69.59" ry="18"/>
<text text-anchor="middle" x="2456.39" y="-87.3" font-family="Times,serif" font-size="14.00">named thing</text>
</g>
<!-- exposure event to phenotypic feature association&#45;&gt;object -->
<g id="edge10" class="edge">
<title>exposure event to phenotypic feature association&#45;&gt;object</title>
<path fill="none" stroke="blue" d="M1696.5,-254C1600.93,-242.1 1515.34,-216.19 1567.39,-160 1621.77,-101.31 2168.21,-93.06 2376.41,-92.07"/>
<polygon fill="blue" stroke="blue" points="2376.68,-95.56 2386.66,-92.02 2376.65,-88.56 2376.68,-95.56"/>
<text text-anchor="middle" x="1589.39" y="-174.3" font-family="Times,serif" font-size="14.00">object</text>
</g>
<!-- relation -->
<g id="node12" class="node">
<title>relation</title>
<ellipse fill="none" stroke="blue" cx="2456.39" cy="-18" rx="38.19" ry="18"/>
<text text-anchor="middle" x="2456.39" y="-14.3" font-family="Times,serif" font-size="14.00">string</text>
</g>
<!-- exposure event to phenotypic feature association&#45;&gt;relation -->
<g id="edge11" class="edge">
<title>exposure event to phenotypic feature association&#45;&gt;relation</title>
<path fill="none" stroke="blue" d="M1667.3,-257.7C1620.29,-252.47 1579.1,-243.65 1560.39,-229 1524.5,-200.88 1518.61,-160.63 1549.39,-127 1607.96,-63.03 2228.79,-29.52 2408.13,-21.13"/>
<polygon fill="blue" stroke="blue" points="2408.49,-24.62 2418.32,-20.66 2408.17,-17.62 2408.49,-24.62"/>
<text text-anchor="middle" x="1577.39" y="-130.8" font-family="Times,serif" font-size="14.00">relation</text>
</g>
<!-- negated -->
<g id="node13" class="node">
<title>negated</title>
<ellipse fill="none" stroke="blue" cx="1667.39" cy="-178" rx="46.59" ry="18"/>
<text text-anchor="middle" x="1667.39" y="-174.3" font-family="Times,serif" font-size="14.00">boolean</text>
</g>
<!-- exposure event to phenotypic feature association&#45;&gt;negated -->
<g id="edge12" class="edge">
<title>exposure event to phenotypic feature association&#45;&gt;negated</title>
<path fill="none" stroke="blue" d="M1833.45,-247.4C1816.69,-241.86 1798.16,-235.46 1781.39,-229 1755.74,-219.12 1727.44,-206.72 1705.46,-196.74"/>
<polygon fill="blue" stroke="blue" points="1706.69,-193.45 1696.14,-192.48 1703.78,-199.82 1706.69,-193.45"/>
<text text-anchor="middle" x="1810.39" y="-217.8" font-family="Times,serif" font-size="14.00">negated</text>
</g>
<!-- qualifiers -->
<g id="node14" class="node">
<title>qualifiers</title>
<ellipse fill="none" stroke="blue" cx="1808.39" cy="-178" rx="76.89" ry="18"/>
<text text-anchor="middle" x="1808.39" y="-174.3" font-family="Times,serif" font-size="14.00">ontology class</text>
</g>
<!-- exposure event to phenotypic feature association&#45;&gt;qualifiers -->
<g id="edge13" class="edge">
<title>exposure event to phenotypic feature association&#45;&gt;qualifiers</title>
<path fill="none" stroke="blue" d="M1870.61,-246.8C1859.22,-234.39 1843.68,-217.46 1830.99,-203.62"/>
<polygon fill="blue" stroke="blue" points="1833.23,-200.89 1823.89,-195.89 1828.07,-205.62 1833.23,-200.89"/>
<text text-anchor="middle" x="1885.89" y="-217.8" font-family="Times,serif" font-size="14.00">qualifiers</text>
</g>
<!-- publications -->
<g id="node15" class="node">
<title>publications</title>
<ellipse fill="none" stroke="blue" cx="1965.39" cy="-178" rx="62.29" ry="18"/>
<text text-anchor="middle" x="1965.39" y="-174.3" font-family="Times,serif" font-size="14.00">publication</text>
</g>
<!-- exposure event to phenotypic feature association&#45;&gt;publications -->
<g id="edge14" class="edge">
<title>exposure event to phenotypic feature association&#45;&gt;publications</title>
<path fill="none" stroke="blue" d="M1905.24,-246.96C1911.19,-241.37 1917.69,-235.05 1923.39,-229 1930.98,-220.96 1938.88,-211.79 1945.75,-203.52"/>
<polygon fill="blue" stroke="blue" points="1948.59,-205.57 1952.23,-195.62 1943.18,-201.13 1948.59,-205.57"/>
<text text-anchor="middle" x="1981.39" y="-217.8" font-family="Times,serif" font-size="14.00">publications</text>
</g>
<!-- has evidence -->
<g id="node16" class="node">
<title>has evidence</title>
<ellipse fill="none" stroke="blue" cx="2121.39" cy="-178" rx="75.29" ry="18"/>
<text text-anchor="middle" x="2121.39" y="-174.3" font-family="Times,serif" font-size="14.00">evidence type</text>
</g>
<!-- exposure event to phenotypic feature association&#45;&gt;has evidence -->
<g id="edge15" class="edge">
<title>exposure event to phenotypic feature association&#45;&gt;has evidence</title>
<path fill="none" stroke="blue" d="M1967.31,-248.04C1987.88,-242.94 2009.73,-236.6 2029.39,-229 2049.28,-221.31 2070.25,-210.17 2087.15,-200.36"/>
<polygon fill="blue" stroke="blue" points="2089.25,-203.18 2096.08,-195.08 2085.69,-197.16 2089.25,-203.18"/>
<text text-anchor="middle" x="2107.89" y="-217.8" font-family="Times,serif" font-size="14.00">has evidence</text>
</g>
<!-- knowledge source -->
<g id="node17" class="node">
<title>knowledge source</title>
<ellipse fill="none" stroke="blue" cx="2323.39" cy="-178" rx="108.58" ry="18"/>
<text text-anchor="middle" x="2323.39" y="-174.3" font-family="Times,serif" font-size="14.00">information resource</text>
</g>
<!-- exposure event to phenotypic feature association&#45;&gt;knowledge source -->
<g id="edge16" class="edge">
<title>exposure event to phenotypic feature association&#45;&gt;knowledge source</title>
<path fill="none" stroke="blue" d="M2027.27,-250.39C2069.67,-245.09 2116.15,-238.05 2158.39,-229 2196.19,-220.9 2237.84,-208.25 2269.84,-197.7"/>
<polygon fill="blue" stroke="blue" points="2271.07,-200.98 2279.45,-194.5 2268.85,-194.34 2271.07,-200.98"/>
<text text-anchor="middle" x="2278.89" y="-217.8" font-family="Times,serif" font-size="14.00">knowledge source</text>
</g>
<!-- original knowledge source -->
<g id="node18" class="node">
<title>original knowledge source</title>
<ellipse fill="none" stroke="blue" cx="2558.39" cy="-178" rx="108.58" ry="18"/>
<text text-anchor="middle" x="2558.39" y="-174.3" font-family="Times,serif" font-size="14.00">information resource</text>
</g>
<!-- exposure event to phenotypic feature association&#45;&gt;original knowledge source -->
<g id="edge17" class="edge">
<title>exposure event to phenotypic feature association&#45;&gt;original knowledge source</title>
<path fill="none" stroke="blue" d="M2056.89,-252.36C2176.05,-243.99 2318.79,-233.45 2347.39,-229 2398.02,-221.13 2454.45,-207.5 2496.2,-196.45"/>
<polygon fill="blue" stroke="blue" points="2497.19,-199.81 2505.95,-193.85 2495.39,-193.05 2497.19,-199.81"/>
<text text-anchor="middle" x="2518.39" y="-217.8" font-family="Times,serif" font-size="14.00">original knowledge source</text>
</g>
<!-- primary knowledge source -->
<g id="node19" class="node">
<title>primary knowledge source</title>
<ellipse fill="none" stroke="blue" cx="2793.39" cy="-178" rx="108.58" ry="18"/>
<text text-anchor="middle" x="2793.39" y="-174.3" font-family="Times,serif" font-size="14.00">information resource</text>
</g>
<!-- exposure event to phenotypic feature association&#45;&gt;primary knowledge source -->
<g id="edge18" class="edge">
<title>exposure event to phenotypic feature association&#45;&gt;primary knowledge source</title>
<path fill="none" stroke="blue" d="M2051.77,-251.99C2079.67,-250.17 2108.35,-248.43 2135.39,-247 2349.02,-235.71 2405.08,-262.31 2616.39,-229 2658.6,-222.35 2705.03,-208.99 2739.75,-197.76"/>
<polygon fill="blue" stroke="blue" points="2741.26,-200.94 2749.67,-194.5 2739.08,-194.29 2741.26,-200.94"/>
<text text-anchor="middle" x="2776.39" y="-217.8" font-family="Times,serif" font-size="14.00">primary knowledge source</text>
</g>
<!-- aggregator knowledge source -->
<g id="node20" class="node">
<title>aggregator knowledge source</title>
<ellipse fill="none" stroke="blue" cx="3028.39" cy="-178" rx="108.58" ry="18"/>
<text text-anchor="middle" x="3028.39" y="-174.3" font-family="Times,serif" font-size="14.00">information resource</text>
</g>
<!-- exposure event to phenotypic feature association&#45;&gt;aggregator knowledge source -->
<g id="edge19" class="edge">
<title>exposure event to phenotypic feature association&#45;&gt;aggregator knowledge source</title>
<path fill="none" stroke="blue" d="M2049.74,-251.82C2078.28,-249.99 2107.69,-248.28 2135.39,-247 2299.71,-239.4 2713.28,-256.84 2875.39,-229 2911.52,-222.8 2950.8,-209.82 2980.51,-198.65"/>
<polygon fill="blue" stroke="blue" points="2982.11,-201.78 2990.2,-194.94 2979.61,-195.24 2982.11,-201.78"/>
<text text-anchor="middle" x="3041.89" y="-217.8" font-family="Times,serif" font-size="14.00">aggregator knowledge source</text>
</g>
<!-- type -->
<g id="node21" class="node">
<title>type</title>
<ellipse fill="none" stroke="black" cx="3186.39" cy="-178" rx="31.4" ry="18"/>
<text text-anchor="middle" x="3186.39" y="-174.3" font-family="Times,serif" font-size="14.00">type</text>
</g>
<!-- exposure event to phenotypic feature association&#45;&gt;type -->
<g id="edge20" class="edge">
<title>exposure event to phenotypic feature association&#45;&gt;type</title>
<path fill="none" stroke="blue" d="M2048.4,-251.75C2077.35,-249.9 2107.26,-248.21 2135.39,-247 2163.62,-245.79 3127.54,-242.44 3152.39,-229 3162.23,-223.68 3169.76,-214.14 3175.21,-204.8"/>
<polygon fill="blue" stroke="blue" points="3178.44,-206.18 3179.97,-195.7 3172.24,-202.94 3178.44,-206.18"/>
<text text-anchor="middle" x="3184.39" y="-217.8" font-family="Times,serif" font-size="14.00">type</text>
</g>
<!-- category -->
<g id="node23" class="node">
<title>category</title>
<ellipse fill="none" stroke="black" cx="3287.39" cy="-178" rx="51.19" ry="18"/>
<text text-anchor="middle" x="3287.39" y="-174.3" font-family="Times,serif" font-size="14.00">category</text>
</g>
<!-- exposure event to phenotypic feature association&#45;&gt;category -->
<g id="edge21" class="edge">
<title>exposure event to phenotypic feature association&#45;&gt;category</title>
<path fill="none" stroke="blue" d="M2048.4,-251.73C2077.35,-249.88 2107.26,-248.2 2135.39,-247 2194.74,-244.48 3147.3,-245.39 3204.39,-229 3224.26,-223.3 3244.18,-211.55 3259.52,-200.87"/>
<polygon fill="blue" stroke="blue" points="3261.93,-203.45 3267.99,-194.76 3257.84,-197.77 3261.93,-203.45"/>
<text text-anchor="middle" x="3269.89" y="-217.8" font-family="Times,serif" font-size="14.00">category</text>
</g>
<!-- subject -->
<g id="node25" class="node">
<title>subject</title>
<ellipse fill="none" stroke="black" cx="3401.39" cy="-178" rx="44.39" ry="18"/>
<text text-anchor="middle" x="3401.39" y="-174.3" font-family="Times,serif" font-size="14.00">subject</text>
</g>
<!-- exposure event to phenotypic feature association&#45;&gt;subject -->
<g id="edge22" class="edge">
<title>exposure event to phenotypic feature association&#45;&gt;subject</title>
<path fill="none" stroke="blue" d="M2048.06,-251.72C2077.12,-249.86 2107.15,-248.18 2135.39,-247 2200.35,-244.29 3242.37,-244.94 3305.39,-229 3328.82,-223.07 3352.93,-210.49 3371.13,-199.42"/>
<polygon fill="blue" stroke="blue" points="3373.46,-202.1 3380.08,-193.82 3369.74,-196.16 3373.46,-202.1"/>
<text text-anchor="middle" x="3370.39" y="-217.8" font-family="Times,serif" font-size="14.00">subject</text>
</g>
<!-- frequency qualifier -->
<g id="node27" class="node">
<title>frequency qualifier</title>
<ellipse fill="none" stroke="blue" cx="3548.39" cy="-178" rx="85.29" ry="18"/>
<text text-anchor="middle" x="3548.39" y="-174.3" font-family="Times,serif" font-size="14.00">frequency value</text>
</g>
<!-- exposure event to phenotypic feature association&#45;&gt;frequency qualifier -->
<g id="edge23" class="edge">
<title>exposure event to phenotypic feature association&#45;&gt;frequency qualifier</title>
<path fill="none" stroke="blue" d="M2047.73,-251.71C2076.89,-249.85 2107.04,-248.17 2135.39,-247 2275.84,-241.21 3261.85,-252.78 3400.39,-229 3436.06,-222.88 3474.75,-209.56 3503.62,-198.2"/>
<polygon fill="blue" stroke="blue" points="3505.04,-201.41 3513.02,-194.44 3502.43,-194.91 3505.04,-201.41"/>
<text text-anchor="middle" x="3527.39" y="-217.8" font-family="Times,serif" font-size="14.00">frequency qualifier</text>
</g>
<!-- severity qualifier -->
<g id="node28" class="node">
<title>severity qualifier</title>
<ellipse fill="none" stroke="blue" cx="3727.39" cy="-178" rx="76.09" ry="18"/>
<text text-anchor="middle" x="3727.39" y="-174.3" font-family="Times,serif" font-size="14.00">severity value</text>
</g>
<!-- exposure event to phenotypic feature association&#45;&gt;severity qualifier -->
<g id="edge24" class="edge">
<title>exposure event to phenotypic feature association&#45;&gt;severity qualifier</title>
<path fill="none" stroke="blue" d="M2047.39,-251.69C2076.66,-249.82 2106.93,-248.15 2135.39,-247 2216.67,-243.73 3519.56,-244.55 3599.39,-229 3629.99,-223.04 3662.7,-210.14 3687.39,-198.94"/>
<polygon fill="blue" stroke="blue" points="3689.18,-201.97 3696.78,-194.58 3686.23,-195.62 3689.18,-201.97"/>
<text text-anchor="middle" x="3711.39" y="-217.8" font-family="Times,serif" font-size="14.00">severity qualifier</text>
</g>
<!-- onset qualifier -->
<g id="node29" class="node">
<title>onset qualifier</title>
<ellipse fill="none" stroke="blue" cx="3857.39" cy="-178" rx="36.29" ry="18"/>
<text text-anchor="middle" x="3857.39" y="-174.3" font-family="Times,serif" font-size="14.00">onset</text>
</g>
<!-- exposure event to phenotypic feature association&#45;&gt;onset qualifier -->
<g id="edge25" class="edge">
<title>exposure event to phenotypic feature association&#45;&gt;onset qualifier</title>
<path fill="none" stroke="blue" d="M2047.39,-251.66C2076.66,-249.8 2106.93,-248.13 2135.39,-247 2226.5,-243.39 3688.82,-254.37 3776.39,-229 3796.43,-223.2 3816.4,-210.96 3831.5,-200.04"/>
<polygon fill="blue" stroke="blue" points="3833.89,-202.63 3839.79,-193.83 3829.69,-197.03 3833.89,-202.63"/>
<text text-anchor="middle" x="3861.89" y="-217.8" font-family="Times,serif" font-size="14.00">onset qualifier</text>
</g>
<!-- sex qualifier -->
<g id="node30" class="node">
<title>sex qualifier</title>
<ellipse fill="none" stroke="blue" cx="3985.39" cy="-178" rx="73.39" ry="18"/>
<text text-anchor="middle" x="3985.39" y="-174.3" font-family="Times,serif" font-size="14.00">biological sex</text>
</g>
<!-- exposure event to phenotypic feature association&#45;&gt;sex qualifier -->
<g id="edge26" class="edge">
<title>exposure event to phenotypic feature association&#45;&gt;sex qualifier</title>
<path fill="none" stroke="blue" d="M2047.05,-251.66C2076.43,-249.79 2106.82,-248.12 2135.39,-247 2184.86,-245.06 3870.44,-244.67 3917.39,-229 3933.54,-223.61 3949.04,-212.81 3961.15,-202.63"/>
<polygon fill="blue" stroke="blue" points="3963.77,-204.99 3968.96,-195.75 3959.14,-199.73 3963.77,-204.99"/>
<text text-anchor="middle" x="3989.39" y="-217.8" font-family="Times,serif" font-size="14.00">sex qualifier</text>
</g>
<!-- object&#45;&gt;relation -->
<g id="edge29" class="edge">
<title>object&#45;&gt;relation</title>
<path fill="none" stroke="black" stroke-dasharray="1,5" d="M2456.39,-72.81C2456.39,-64.79 2456.39,-55.05 2456.39,-46.07"/>
<polygon fill="black" stroke="black" points="2459.89,-46.03 2456.39,-36.03 2452.89,-46.03 2459.89,-46.03"/>
</g>
<!-- association_type -->
<g id="node22" class="node">
<title>association_type</title>
<ellipse fill="none" stroke="blue" cx="2182.39" cy="-265" rx="38.19" ry="18"/>
<text text-anchor="middle" x="2182.39" y="-261.3" font-family="Times,serif" font-size="14.00">string</text>
</g>
<!-- association_category -->
<g id="node24" class="node">
<title>association_category</title>
<ellipse fill="none" stroke="blue" cx="2313.39" cy="-265" rx="74.99" ry="18"/>
<text text-anchor="middle" x="2313.39" y="-261.3" font-family="Times,serif" font-size="14.00">category type</text>
</g>
<!-- subject&#45;&gt;object -->
<g id="edge27" class="edge">
<title>subject&#45;&gt;object</title>
<path fill="none" stroke="black" d="M3369.47,-165.42C3362.3,-163.25 3354.66,-161.27 3347.39,-160 3154.59,-126.32 3102.55,-156.79 2907.39,-142 2772.38,-131.77 2615.37,-112.74 2526.75,-101.33"/>
<polygon fill="black" stroke="black" points="2527.18,-97.86 2516.82,-100.05 2526.29,-104.8 2527.18,-97.86"/>
<text text-anchor="middle" x="2935.39" y="-130.8" font-family="Times,serif" font-size="14.00">relation</text>
</g>
<!-- subject&#45;&gt;relation -->
<g id="edge28" class="edge">
<title>subject&#45;&gt;relation</title>
<path fill="none" stroke="black" stroke-dasharray="1,5" d="M3368.48,-165.79C3361.57,-163.67 3354.28,-161.62 3347.39,-160 3029.38,-85.21 2638.03,-38.69 2504.01,-24.02"/>
<polygon fill="black" stroke="black" points="2504.02,-20.5 2493.7,-22.9 2503.26,-27.46 2504.02,-20.5"/>
</g>
<!-- exposure event to phenotypic feature association_subject -->
<g id="node26" class="node">
<title>exposure event to phenotypic feature association_subject</title>
<ellipse fill="none" stroke="blue" cx="2488.39" cy="-265" rx="81.79" ry="18"/>
<text text-anchor="middle" x="2488.39" y="-261.3" font-family="Times,serif" font-size="14.00">exposure event</text>
</g>
</g>
</svg>
