<?xml version="1.0" encoding="UTF-8" standalone="no"?>
<!DOCTYPE svg PUBLIC "-//W3C//DTD SVG 1.1//EN"
 "http://www.w3.org/Graphics/SVG/1.1/DTD/svg11.dtd">
<!-- Generated by graphviz version 2.43.0 (0)
 -->
<!-- Title: %3 Pages: 1 -->
<svg width="4280pt" height="291pt"
 viewBox="0.00 0.00 4280.39 291.00" xmlns="http://www.w3.org/2000/svg" xmlns:xlink="http://www.w3.org/1999/xlink">
<g id="graph0" class="graph" transform="scale(1 1) rotate(0) translate(4 287)">
<title>%3</title>
<polygon fill="white" stroke="transparent" points="-4,4 -4,-287 4276.39,-287 4276.39,4 -4,4"/>
<!-- exposure event to phenotypic feature association -->
<g id="node1" class="node">
<title>exposure event to phenotypic feature association</title>
<ellipse fill="none" stroke="black" cx="2291.39" cy="-265" rx="239.36" ry="18"/>
<text text-anchor="middle" x="2291.39" y="-261.3" font-family="Times,serif" font-size="14.00">exposure event to phenotypic feature association</text>
</g>
<!-- association -->
<g id="node2" class="node">
<title>association</title>
<ellipse fill="none" stroke="black" cx="62.39" cy="-178" rx="62.29" ry="18"/>
<text text-anchor="middle" x="62.39" y="-174.3" font-family="Times,serif" font-size="14.00">association</text>
</g>
<!-- exposure event to phenotypic feature association&#45;&gt;association -->
<g id="edge1" class="edge">
<title>exposure event to phenotypic feature association&#45;&gt;association</title>
<path fill="none" stroke="black" d="M2052.88,-263.39C1719.73,-261.58 1096.2,-254.68 565.39,-229 373.5,-219.72 324.23,-225.5 134.39,-196 128.7,-195.12 122.8,-194.02 116.92,-192.81"/>
<polygon fill="black" stroke="black" points="117.63,-189.39 107.12,-190.7 116.16,-196.23 117.63,-189.39"/>
<text text-anchor="middle" x="579.39" y="-217.8" font-family="Times,serif" font-size="14.00">is_a</text>
</g>
<!-- entity to phenotypic feature association mixin -->
<g id="node3" class="node">
<title>entity to phenotypic feature association mixin</title>
<ellipse fill="none" stroke="black" cx="367.39" cy="-178" rx="224.46" ry="18"/>
<text text-anchor="middle" x="367.39" y="-174.3" font-family="Times,serif" font-size="14.00">entity to phenotypic feature association mixin</text>
</g>
<!-- exposure event to phenotypic feature association&#45;&gt;entity to phenotypic feature association mixin -->
<g id="edge2" class="edge">
<title>exposure event to phenotypic feature association&#45;&gt;entity to phenotypic feature association mixin</title>
<path fill="none" stroke="black" d="M2055.08,-262.09C1682.76,-258.51 976.21,-249.25 725.39,-229 637.72,-221.92 538.74,-207.61 467.11,-196.1"/>
<polygon fill="black" stroke="black" points="467.62,-192.64 457.19,-194.5 466.5,-199.55 467.62,-192.64"/>
<text text-anchor="middle" x="741.89" y="-217.8" font-family="Times,serif" font-size="14.00">uses</text>
</g>
<!-- id -->
<g id="node4" class="node">
<title>id</title>
<ellipse fill="none" stroke="blue" cx="648.39" cy="-178" rx="38.19" ry="18"/>
<text text-anchor="middle" x="648.39" y="-174.3" font-family="Times,serif" font-size="14.00">string</text>
</g>
<!-- exposure event to phenotypic feature association&#45;&gt;id -->
<g id="edge3" class="edge">
<title>exposure event to phenotypic feature association&#45;&gt;id</title>
<path fill="none" stroke="blue" d="M2052.89,-263.6C1705.12,-262.1 1075.77,-255.65 850.39,-229 780.88,-220.78 763.75,-215.06 696.39,-196 693.29,-195.12 690.09,-194.15 686.9,-193.12"/>
<polygon fill="blue" stroke="blue" points="687.99,-189.8 677.39,-189.95 685.77,-196.44 687.99,-189.8"/>
<text text-anchor="middle" x="857.39" y="-217.8" font-family="Times,serif" font-size="14.00">id</text>
</g>
<!-- iri -->
<g id="node5" class="node">
<title>iri</title>
<ellipse fill="none" stroke="blue" cx="749.39" cy="-178" rx="44.39" ry="18"/>
<text text-anchor="middle" x="749.39" y="-174.3" font-family="Times,serif" font-size="14.00">iri type</text>
</g>
<!-- exposure event to phenotypic feature association&#45;&gt;iri -->
<g id="edge4" class="edge">
<title>exposure event to phenotypic feature association&#45;&gt;iri</title>
<path fill="none" stroke="blue" d="M2053.14,-263.31C1726.47,-261.41 1156.54,-254.43 950.39,-229 883.51,-220.75 867.44,-213.64 802.39,-196 799.03,-195.09 795.56,-194.09 792.08,-193.06"/>
<polygon fill="blue" stroke="blue" points="792.92,-189.66 782.33,-190.08 790.87,-196.35 792.92,-189.66"/>
<text text-anchor="middle" x="958.39" y="-217.8" font-family="Times,serif" font-size="14.00">iri</text>
</g>
<!-- name -->
<g id="node6" class="node">
<title>name</title>
<ellipse fill="none" stroke="blue" cx="868.39" cy="-178" rx="56.59" ry="18"/>
<text text-anchor="middle" x="868.39" y="-174.3" font-family="Times,serif" font-size="14.00">label type</text>
</g>
<!-- exposure event to phenotypic feature association&#45;&gt;name -->
<g id="edge5" class="edge">
<title>exposure event to phenotypic feature association&#45;&gt;name</title>
<path fill="none" stroke="blue" d="M2052.12,-264.86C1743.35,-264.66 1223.38,-259.54 1034.39,-229 992.25,-222.19 945.85,-207.58 912.85,-195.9"/>
<polygon fill="blue" stroke="blue" points="913.65,-192.47 903.06,-192.38 911.29,-199.06 913.65,-192.47"/>
<text text-anchor="middle" x="1054.39" y="-217.8" font-family="Times,serif" font-size="14.00">name</text>
</g>
<!-- description -->
<g id="node7" class="node">
<title>description</title>
<ellipse fill="none" stroke="blue" cx="1018.39" cy="-178" rx="75.29" ry="18"/>
<text text-anchor="middle" x="1018.39" y="-174.3" font-family="Times,serif" font-size="14.00">narrative text</text>
</g>
<!-- exposure event to phenotypic feature association&#45;&gt;description -->
<g id="edge6" class="edge">
<title>exposure event to phenotypic feature association&#45;&gt;description</title>
<path fill="none" stroke="blue" d="M2054.34,-262.44C1737.45,-259.52 1205.25,-251.32 1117.39,-229 1094.14,-223.09 1070.07,-211.09 1051.48,-200.33"/>
<polygon fill="blue" stroke="blue" points="1053.21,-197.28 1042.83,-195.17 1049.63,-203.3 1053.21,-197.28"/>
<text text-anchor="middle" x="1157.89" y="-217.8" font-family="Times,serif" font-size="14.00">description</text>
</g>
<!-- has attribute -->
<g id="node8" class="node">
<title>has attribute</title>
<ellipse fill="none" stroke="blue" cx="1163.39" cy="-178" rx="51.99" ry="18"/>
<text text-anchor="middle" x="1163.39" y="-174.3" font-family="Times,serif" font-size="14.00">attribute</text>
</g>
<!-- exposure event to phenotypic feature association&#45;&gt;has attribute -->
<g id="edge7" class="edge">
<title>exposure event to phenotypic feature association&#45;&gt;has attribute</title>
<path fill="none" stroke="blue" d="M2052.85,-263.66C1763.71,-262.08 1305.62,-255.36 1230.39,-229 1214.37,-223.38 1199,-212.46 1187.03,-202.25"/>
<polygon fill="blue" stroke="blue" points="1189.11,-199.42 1179.32,-195.37 1184.45,-204.64 1189.11,-199.42"/>
<text text-anchor="middle" x="1277.39" y="-217.8" font-family="Times,serif" font-size="14.00">has attribute</text>
</g>
<!-- predicate -->
<g id="node9" class="node">
<title>predicate</title>
<ellipse fill="none" stroke="blue" cx="1311.39" cy="-178" rx="77.99" ry="18"/>
<text text-anchor="middle" x="1311.39" y="-174.3" font-family="Times,serif" font-size="14.00">predicate type</text>
</g>
<!-- exposure event to phenotypic feature association&#45;&gt;predicate -->
<g id="edge8" class="edge">
<title>exposure event to phenotypic feature association&#45;&gt;predicate</title>
<path fill="none" stroke="blue" d="M2058.85,-260.79C1788.18,-256.25 1374.01,-246.5 1343.39,-229 1334,-223.63 1326.93,-214.25 1321.85,-205.06"/>
<polygon fill="blue" stroke="blue" points="1324.99,-203.51 1317.43,-196.08 1318.71,-206.6 1324.99,-203.51"/>
<text text-anchor="middle" x="1377.39" y="-217.8" font-family="Times,serif" font-size="14.00">predicate</text>
</g>
<!-- object -->
<g id="node10" class="node">
<title>object</title>
<ellipse fill="none" stroke="blue" cx="3063.39" cy="-91" rx="69.59" ry="18"/>
<text text-anchor="middle" x="3063.39" y="-87.3" font-family="Times,serif" font-size="14.00">named thing</text>
</g>
<!-- exposure event to phenotypic feature association&#45;&gt;object -->
<g id="edge9" class="edge">
<title>exposure event to phenotypic feature association&#45;&gt;object</title>
<path fill="none" stroke="blue" d="M2076.76,-256.99C1954.03,-251.77 1797.33,-243.05 1658.39,-229 1554.75,-218.52 1362.29,-235.18 1434.39,-160 1488.55,-103.54 2664.27,-93.88 2983.84,-92.3"/>
<polygon fill="blue" stroke="blue" points="2983.96,-95.8 2993.94,-92.25 2983.93,-88.8 2983.96,-95.8"/>
<text text-anchor="middle" x="1456.39" y="-174.3" font-family="Times,serif" font-size="14.00">object</text>
</g>
<!-- negated -->
<g id="node11" class="node">
<title>negated</title>
<ellipse fill="none" stroke="blue" cx="1534.39" cy="-178" rx="46.59" ry="18"/>
<text text-anchor="middle" x="1534.39" y="-174.3" font-family="Times,serif" font-size="14.00">boolean</text>
</g>
<!-- exposure event to phenotypic feature association&#45;&gt;negated -->
<g id="edge10" class="edge">
<title>exposure event to phenotypic feature association&#45;&gt;negated</title>
<path fill="none" stroke="blue" d="M2068.89,-258.34C1966.34,-253.61 1843.26,-244.93 1733.39,-229 1679.44,-221.18 1618.88,-204.84 1578.9,-192.96"/>
<polygon fill="blue" stroke="blue" points="1579.77,-189.57 1569.19,-190.05 1577.76,-196.28 1579.77,-189.57"/>
<text text-anchor="middle" x="1762.39" y="-217.8" font-family="Times,serif" font-size="14.00">negated</text>
</g>
<!-- qualifiers -->
<g id="node12" class="node">
<title>qualifiers</title>
<ellipse fill="none" stroke="blue" cx="1675.39" cy="-178" rx="76.89" ry="18"/>
<text text-anchor="middle" x="1675.39" y="-174.3" font-family="Times,serif" font-size="14.00">ontology class</text>
</g>
<!-- exposure event to phenotypic feature association&#45;&gt;qualifiers -->
<g id="edge11" class="edge">
<title>exposure event to phenotypic feature association&#45;&gt;qualifiers</title>
<path fill="none" stroke="blue" d="M2091.01,-255.14C2018.61,-249.97 1936.49,-241.82 1862.39,-229 1816.49,-221.06 1765.48,-207.06 1728.34,-195.89"/>
<polygon fill="blue" stroke="blue" points="1729.32,-192.53 1718.73,-192.97 1727.28,-199.22 1729.32,-192.53"/>
<text text-anchor="middle" x="1895.89" y="-217.8" font-family="Times,serif" font-size="14.00">qualifiers</text>
</g>
<!-- publications -->
<g id="node13" class="node">
<title>publications</title>
<ellipse fill="none" stroke="blue" cx="1832.39" cy="-178" rx="62.29" ry="18"/>
<text text-anchor="middle" x="1832.39" y="-174.3" font-family="Times,serif" font-size="14.00">publication</text>
</g>
<!-- exposure event to phenotypic feature association&#45;&gt;publications -->
<g id="edge12" class="edge">
<title>exposure event to phenotypic feature association&#45;&gt;publications</title>
<path fill="none" stroke="blue" d="M2133.85,-251.41C2087.36,-246.15 2036.56,-238.89 1990.39,-229 1952.06,-220.78 1909.78,-207.15 1878.6,-196.19"/>
<polygon fill="blue" stroke="blue" points="1879.49,-192.79 1868.89,-192.74 1877.14,-199.39 1879.49,-192.79"/>
<text text-anchor="middle" x="2034.39" y="-217.8" font-family="Times,serif" font-size="14.00">publications</text>
</g>
<!-- has evidence -->
<g id="node14" class="node">
<title>has evidence</title>
<ellipse fill="none" stroke="blue" cx="1988.39" cy="-178" rx="75.29" ry="18"/>
<text text-anchor="middle" x="1988.39" y="-174.3" font-family="Times,serif" font-size="14.00">evidence type</text>
</g>
<!-- exposure event to phenotypic feature association&#45;&gt;has evidence -->
<g id="edge13" class="edge">
<title>exposure event to phenotypic feature association&#45;&gt;has evidence</title>
<path fill="none" stroke="blue" d="M2207.64,-248.04C2182.33,-242.65 2154.58,-236.16 2129.39,-229 2097.57,-219.96 2062.52,-207.54 2035.32,-197.34"/>
<polygon fill="blue" stroke="blue" points="2036.27,-193.96 2025.68,-193.69 2033.79,-200.5 2036.27,-193.96"/>
<text text-anchor="middle" x="2175.89" y="-217.8" font-family="Times,serif" font-size="14.00">has evidence</text>
</g>
<!-- knowledge source -->
<g id="node15" class="node">
<title>knowledge source</title>
<ellipse fill="none" stroke="blue" cx="2190.39" cy="-178" rx="108.58" ry="18"/>
<text text-anchor="middle" x="2190.39" y="-174.3" font-family="Times,serif" font-size="14.00">information resource</text>
</g>
<!-- exposure event to phenotypic feature association&#45;&gt;knowledge source -->
<g id="edge14" class="edge">
<title>exposure event to phenotypic feature association&#45;&gt;knowledge source</title>
<path fill="none" stroke="blue" d="M2266.19,-247.06C2258.39,-241.53 2249.87,-235.21 2242.39,-229 2232.71,-220.96 2222.61,-211.52 2213.91,-203.02"/>
<polygon fill="blue" stroke="blue" points="2216.25,-200.41 2206.68,-195.85 2211.32,-205.38 2216.25,-200.41"/>
<text text-anchor="middle" x="2306.89" y="-217.8" font-family="Times,serif" font-size="14.00">knowledge source</text>
</g>
<!-- primary knowledge source -->
<g id="node16" class="node">
<title>primary knowledge source</title>
<ellipse fill="none" stroke="blue" cx="2425.39" cy="-178" rx="108.58" ry="18"/>
<text text-anchor="middle" x="2425.39" y="-174.3" font-family="Times,serif" font-size="14.00">information resource</text>
</g>
<!-- exposure event to phenotypic feature association&#45;&gt;primary knowledge source -->
<g id="edge15" class="edge">
<title>exposure event to phenotypic feature association&#45;&gt;primary knowledge source</title>
<path fill="none" stroke="blue" d="M2336.78,-247.28C2348.46,-242.14 2360.74,-235.98 2371.39,-229 2382.58,-221.67 2393.65,-211.98 2402.83,-203.08"/>
<polygon fill="blue" stroke="blue" points="2405.45,-205.4 2410.05,-195.85 2400.5,-200.45 2405.45,-205.4"/>
<text text-anchor="middle" x="2486.39" y="-217.8" font-family="Times,serif" font-size="14.00">primary knowledge source</text>
</g>
<!-- aggregator knowledge source -->
<g id="node17" class="node">
<title>aggregator knowledge source</title>
<ellipse fill="none" stroke="blue" cx="2660.39" cy="-178" rx="108.58" ry="18"/>
<text text-anchor="middle" x="2660.39" y="-174.3" font-family="Times,serif" font-size="14.00">information resource</text>
</g>
<!-- exposure event to phenotypic feature association&#45;&gt;aggregator knowledge source -->
<g id="edge16" class="edge">
<title>exposure event to phenotypic feature association&#45;&gt;aggregator knowledge source</title>
<path fill="none" stroke="blue" d="M2482.36,-254.14C2516.99,-248.74 2552.28,-240.74 2584.39,-229 2584.71,-228.88 2606.57,-214.49 2626.77,-201.18"/>
<polygon fill="blue" stroke="blue" points="2628.83,-204.02 2635.25,-195.59 2624.98,-198.17 2628.83,-204.02"/>
<text text-anchor="middle" x="2713.89" y="-217.8" font-family="Times,serif" font-size="14.00">aggregator knowledge source</text>
</g>
<!-- timepoint -->
<g id="node18" class="node">
<title>timepoint</title>
<ellipse fill="none" stroke="blue" cx="2842.39" cy="-178" rx="55.49" ry="18"/>
<text text-anchor="middle" x="2842.39" y="-174.3" font-family="Times,serif" font-size="14.00">time type</text>
</g>
<!-- exposure event to phenotypic feature association&#45;&gt;timepoint -->
<g id="edge17" class="edge">
<title>exposure event to phenotypic feature association&#45;&gt;timepoint</title>
<path fill="none" stroke="blue" d="M2461.16,-252.32C2487.68,-250.52 2514.78,-248.7 2540.39,-247 2571.5,-244.94 2794.85,-246.87 2820.39,-229 2828.19,-223.55 2833.25,-214.7 2836.53,-205.95"/>
<polygon fill="blue" stroke="blue" points="2839.9,-206.88 2839.52,-196.3 2833.21,-204.81 2839.9,-206.88"/>
<text text-anchor="middle" x="2868.39" y="-217.8" font-family="Times,serif" font-size="14.00">timepoint</text>
</g>
<!-- type -->
<g id="node19" class="node">
<title>type</title>
<ellipse fill="none" stroke="black" cx="2946.39" cy="-178" rx="31.4" ry="18"/>
<text text-anchor="middle" x="2946.39" y="-174.3" font-family="Times,serif" font-size="14.00">type</text>
</g>
<!-- exposure event to phenotypic feature association&#45;&gt;type -->
<g id="edge18" class="edge">
<title>exposure event to phenotypic feature association&#45;&gt;type</title>
<path fill="none" stroke="blue" d="M2458.79,-252.13C2486.06,-250.32 2514.01,-248.55 2540.39,-247 2581.15,-244.61 2871.16,-247.81 2907.39,-229 2917.91,-223.54 2926.48,-213.84 2932.87,-204.42"/>
<polygon fill="blue" stroke="blue" points="2936.03,-205.97 2938.34,-195.63 2930.09,-202.28 2936.03,-205.97"/>
<text text-anchor="middle" x="2941.39" y="-217.8" font-family="Times,serif" font-size="14.00">type</text>
</g>
<!-- category -->
<g id="node21" class="node">
<title>category</title>
<ellipse fill="none" stroke="black" cx="3047.39" cy="-178" rx="51.19" ry="18"/>
<text text-anchor="middle" x="3047.39" y="-174.3" font-family="Times,serif" font-size="14.00">category</text>
</g>
<!-- exposure event to phenotypic feature association&#45;&gt;category -->
<g id="edge19" class="edge">
<title>exposure event to phenotypic feature association&#45;&gt;category</title>
<path fill="none" stroke="blue" d="M2457.78,-252.05C2485.36,-250.24 2513.68,-248.48 2540.39,-247 2633.89,-241.81 2871.52,-255.3 2961.39,-229 2981.95,-222.98 3002.78,-211.06 3018.79,-200.37"/>
<polygon fill="blue" stroke="blue" points="3020.91,-203.16 3027.15,-194.6 3016.93,-197.39 3020.91,-203.16"/>
<text text-anchor="middle" x="3027.89" y="-217.8" font-family="Times,serif" font-size="14.00">category</text>
</g>
<!-- subject -->
<g id="node23" class="node">
<title>subject</title>
<ellipse fill="none" stroke="black" cx="3161.39" cy="-178" rx="44.39" ry="18"/>
<text text-anchor="middle" x="3161.39" y="-174.3" font-family="Times,serif" font-size="14.00">subject</text>
</g>
<!-- exposure event to phenotypic feature association&#45;&gt;subject -->
<g id="edge20" class="edge">
<title>exposure event to phenotypic feature association&#45;&gt;subject</title>
<path fill="none" stroke="blue" d="M2456.43,-251.95C2484.44,-250.13 2513.24,-248.39 2540.39,-247 2656.53,-241.04 2950.81,-258.12 3063.39,-229 3087.39,-222.79 3112.24,-210.03 3130.91,-198.96"/>
<polygon fill="blue" stroke="blue" points="3132.83,-201.88 3139.55,-193.69 3129.19,-195.91 3132.83,-201.88"/>
<text text-anchor="middle" x="3129.39" y="-217.8" font-family="Times,serif" font-size="14.00">subject</text>
</g>
<!-- frequency qualifier -->
<g id="node25" class="node">
<title>frequency qualifier</title>
<ellipse fill="none" stroke="blue" cx="3308.39" cy="-178" rx="85.29" ry="18"/>
<text text-anchor="middle" x="3308.39" y="-174.3" font-family="Times,serif" font-size="14.00">frequency value</text>
</g>
<!-- exposure event to phenotypic feature association&#45;&gt;frequency qualifier -->
<g id="edge21" class="edge">
<title>exposure event to phenotypic feature association&#45;&gt;frequency qualifier</title>
<path fill="none" stroke="blue" d="M2455.42,-251.89C2483.74,-250.06 2512.91,-248.34 2540.39,-247 2677.85,-240.31 3023.92,-253.15 3159.39,-229 3195.11,-222.63 3233.92,-209.39 3262.98,-198.13"/>
<polygon fill="blue" stroke="blue" points="3264.42,-201.33 3272.44,-194.4 3261.85,-194.81 3264.42,-201.33"/>
<text text-anchor="middle" x="3286.39" y="-217.8" font-family="Times,serif" font-size="14.00">frequency qualifier</text>
</g>
<!-- severity qualifier -->
<g id="node26" class="node">
<title>severity qualifier</title>
<ellipse fill="none" stroke="blue" cx="3487.39" cy="-178" rx="76.09" ry="18"/>
<text text-anchor="middle" x="3487.39" y="-174.3" font-family="Times,serif" font-size="14.00">severity value</text>
</g>
<!-- exposure event to phenotypic feature association&#45;&gt;severity qualifier -->
<g id="edge22" class="edge">
<title>exposure event to phenotypic feature association&#45;&gt;severity qualifier</title>
<path fill="none" stroke="blue" d="M2454.41,-251.79C2483.05,-249.95 2512.58,-248.25 2540.39,-247 2631.21,-242.9 3269.22,-246.69 3358.39,-229 3389.31,-222.86 3422.43,-209.88 3447.37,-198.68"/>
<polygon fill="blue" stroke="blue" points="3448.87,-201.84 3456.51,-194.49 3445.96,-195.48 3448.87,-201.84"/>
<text text-anchor="middle" x="3470.39" y="-217.8" font-family="Times,serif" font-size="14.00">severity qualifier</text>
</g>
<!-- onset qualifier -->
<g id="node27" class="node">
<title>onset qualifier</title>
<ellipse fill="none" stroke="blue" cx="3617.39" cy="-178" rx="36.29" ry="18"/>
<text text-anchor="middle" x="3617.39" y="-174.3" font-family="Times,serif" font-size="14.00">onset</text>
</g>
<!-- exposure event to phenotypic feature association&#45;&gt;onset qualifier -->
<g id="edge23" class="edge">
<title>exposure event to phenotypic feature association&#45;&gt;onset qualifier</title>
<path fill="none" stroke="blue" d="M2453.73,-251.74C2482.58,-249.89 2512.36,-248.21 2540.39,-247 2595.63,-244.62 3482.3,-244.43 3535.39,-229 3555.61,-223.13 3575.82,-210.89 3591.12,-199.99"/>
<polygon fill="blue" stroke="blue" points="3593.56,-202.54 3599.53,-193.79 3589.4,-196.91 3593.56,-202.54"/>
<text text-anchor="middle" x="3620.89" y="-217.8" font-family="Times,serif" font-size="14.00">onset qualifier</text>
</g>
<!-- sex qualifier -->
<g id="node28" class="node">
<title>sex qualifier</title>
<ellipse fill="none" stroke="blue" cx="3745.39" cy="-178" rx="73.39" ry="18"/>
<text text-anchor="middle" x="3745.39" y="-174.3" font-family="Times,serif" font-size="14.00">biological sex</text>
</g>
<!-- exposure event to phenotypic feature association&#45;&gt;sex qualifier -->
<g id="edge24" class="edge">
<title>exposure event to phenotypic feature association&#45;&gt;sex qualifier</title>
<path fill="none" stroke="blue" d="M2453.06,-251.73C2482.12,-249.87 2512.15,-248.19 2540.39,-247 2603.46,-244.35 3616.51,-248.94 3676.39,-229 3692.86,-223.52 3708.72,-212.56 3721.08,-202.3"/>
<polygon fill="blue" stroke="blue" points="3723.4,-204.92 3728.66,-195.72 3718.82,-199.63 3723.4,-204.92"/>
<text text-anchor="middle" x="3749.39" y="-217.8" font-family="Times,serif" font-size="14.00">sex qualifier</text>
</g>
<!-- has count -->
<g id="node29" class="node">
<title>has count</title>
<ellipse fill="none" stroke="blue" cx="3881.39" cy="-178" rx="44.39" ry="18"/>
<text text-anchor="middle" x="3881.39" y="-174.3" font-family="Times,serif" font-size="14.00">integer</text>
</g>
<!-- exposure event to phenotypic feature association&#45;&gt;has count -->
<g id="edge25" class="edge">
<title>exposure event to phenotypic feature association&#45;&gt;has count</title>
<path fill="none" stroke="blue" d="M2453.06,-251.69C2482.12,-249.84 2512.15,-248.17 2540.39,-247 2610.18,-244.12 3730.19,-248.01 3797.39,-229 3817.93,-223.19 3838.55,-211.03 3854.22,-200.16"/>
<polygon fill="blue" stroke="blue" points="3856.31,-202.97 3862.39,-194.3 3852.23,-197.28 3856.31,-202.97"/>
<text text-anchor="middle" x="3867.39" y="-217.8" font-family="Times,serif" font-size="14.00">has count</text>
</g>
<!-- has total -->
<g id="node30" class="node">
<title>has total</title>
<ellipse fill="none" stroke="blue" cx="3987.39" cy="-178" rx="44.39" ry="18"/>
<text text-anchor="middle" x="3987.39" y="-174.3" font-family="Times,serif" font-size="14.00">integer</text>
</g>
<!-- exposure event to phenotypic feature association&#45;&gt;has total -->
<g id="edge26" class="edge">
<title>exposure event to phenotypic feature association&#45;&gt;has total</title>
<path fill="none" stroke="blue" d="M2452.73,-251.69C2481.89,-249.83 2512.04,-248.15 2540.39,-247 2616.23,-243.91 3833.52,-250.2 3906.39,-229 3926.03,-223.29 3945.6,-211.42 3960.59,-200.68"/>
<polygon fill="blue" stroke="blue" points="3962.91,-203.31 3968.85,-194.54 3958.73,-197.7 3962.91,-203.31"/>
<text text-anchor="middle" x="3971.89" y="-217.8" font-family="Times,serif" font-size="14.00">has total</text>
</g>
<!-- has quotient -->
<g id="node31" class="node">
<title>has quotient</title>
<ellipse fill="none" stroke="blue" cx="4091.39" cy="-178" rx="42.49" ry="18"/>
<text text-anchor="middle" x="4091.39" y="-174.3" font-family="Times,serif" font-size="14.00">double</text>
</g>
<!-- exposure event to phenotypic feature association&#45;&gt;has quotient -->
<g id="edge27" class="edge">
<title>exposure event to phenotypic feature association&#45;&gt;has quotient</title>
<path fill="none" stroke="blue" d="M2452.39,-251.69C2481.66,-249.82 2511.93,-248.15 2540.39,-247 2621.83,-243.72 3928.94,-251.1 4007.39,-229 4027.93,-223.21 4048.56,-211.05 4064.23,-200.17"/>
<polygon fill="blue" stroke="blue" points="4066.31,-202.99 4072.39,-194.31 4062.23,-197.3 4066.31,-202.99"/>
<text text-anchor="middle" x="4087.39" y="-217.8" font-family="Times,serif" font-size="14.00">has quotient</text>
</g>
<!-- has percentage -->
<g id="node32" class="node">
<title>has percentage</title>
<ellipse fill="none" stroke="blue" cx="4198.39" cy="-178" rx="42.49" ry="18"/>
<text text-anchor="middle" x="4198.39" y="-174.3" font-family="Times,serif" font-size="14.00">double</text>
</g>
<!-- exposure event to phenotypic feature association&#45;&gt;has percentage -->
<g id="edge28" class="edge">
<title>exposure event to phenotypic feature association&#45;&gt;has percentage</title>
<path fill="none" stroke="blue" d="M2452.39,-251.66C2481.66,-249.8 2511.93,-248.13 2540.39,-247 2584.7,-245.24 4094.67,-243.99 4136.39,-229 4151.47,-223.58 4165.6,-212.82 4176.56,-202.67"/>
<polygon fill="blue" stroke="blue" points="4179.22,-204.96 4183.94,-195.47 4174.34,-199.95 4179.22,-204.96"/>
<text text-anchor="middle" x="4217.39" y="-217.8" font-family="Times,serif" font-size="14.00">has percentage</text>
</g>
<!-- relation -->
<g id="node33" class="node">
<title>relation</title>
<ellipse fill="none" stroke="black" cx="3112.39" cy="-18" rx="46.59" ry="18"/>
<text text-anchor="middle" x="3112.39" y="-14.3" font-family="Times,serif" font-size="14.00">relation</text>
</g>
<!-- object&#45;&gt;relation -->
<g id="edge31" class="edge">
<title>object&#45;&gt;relation</title>
<path fill="none" stroke="black" stroke-dasharray="1,5" d="M3075.01,-73.17C3080.99,-64.51 3088.4,-53.77 3095.04,-44.14"/>
<polygon fill="black" stroke="black" points="3098.07,-45.92 3100.87,-35.71 3092.3,-41.95 3098.07,-45.92"/>
</g>
<!-- association_type -->
<g id="node20" class="node">
<title>association_type</title>
<ellipse fill="none" stroke="blue" cx="2587.39" cy="-265" rx="38.19" ry="18"/>
<text text-anchor="middle" x="2587.39" y="-261.3" font-family="Times,serif" font-size="14.00">string</text>
</g>
<!-- association_category -->
<g id="node22" class="node">
<title>association_category</title>
<ellipse fill="none" stroke="blue" cx="2718.39" cy="-265" rx="74.99" ry="18"/>
<text text-anchor="middle" x="2718.39" y="-261.3" font-family="Times,serif" font-size="14.00">category type</text>
</g>
<!-- subject&#45;&gt;object -->
<g id="edge29" class="edge">
<title>subject&#45;&gt;object</title>
<path fill="none" stroke="black" d="M3128.9,-165.59C3116.13,-159.94 3102.01,-152.13 3091.39,-142 3084.39,-135.31 3078.66,-126.48 3074.25,-118.1"/>
<polygon fill="black" stroke="black" points="3077.34,-116.45 3069.84,-108.97 3071.04,-119.5 3077.34,-116.45"/>
<text text-anchor="middle" x="3119.39" y="-130.8" font-family="Times,serif" font-size="14.00">relation</text>
</g>
<!-- subject&#45;&gt;relation -->
<g id="edge30" class="edge">
<title>subject&#45;&gt;relation</title>
<path fill="none" stroke="black" stroke-dasharray="1,5" d="M3160,-159.99C3157.9,-139.02 3152.98,-102.55 3142.39,-73 3138.91,-63.26 3133.79,-53.19 3128.76,-44.42"/>
<polygon fill="black" stroke="black" points="3131.76,-42.62 3123.63,-35.83 3125.75,-46.21 3131.76,-42.62"/>
</g>
<!-- exposure event to phenotypic feature association_subject -->
<g id="node24" class="node">
<title>exposure event to phenotypic feature association_subject</title>
<ellipse fill="none" stroke="blue" cx="2893.39" cy="-265" rx="81.79" ry="18"/>
<text text-anchor="middle" x="2893.39" y="-261.3" font-family="Times,serif" font-size="14.00">exposure event</text>
</g>
</g>
</svg>
