<?xml version="1.0" encoding="UTF-8" standalone="no"?>
<!DOCTYPE svg PUBLIC "-//W3C//DTD SVG 1.1//EN"
 "http://www.w3.org/Graphics/SVG/1.1/DTD/svg11.dtd">
<!-- Generated by graphviz version 2.43.0 (0)
 -->
<!-- Title: %3 Pages: 1 -->
<svg width="4017pt" height="291pt"
 viewBox="0.00 0.00 4016.84 291.00" xmlns="http://www.w3.org/2000/svg" xmlns:xlink="http://www.w3.org/1999/xlink">
<g id="graph0" class="graph" transform="scale(1 1) rotate(0) translate(4 287)">
<title>%3</title>
<polygon fill="white" stroke="transparent" points="-4,4 -4,-287 4012.84,-287 4012.84,4 -4,4"/>
<!-- exposure event to phenotypic feature association -->
<g id="node1" class="node">
<title>exposure event to phenotypic feature association</title>
<ellipse fill="none" stroke="black" cx="2005.39" cy="-265" rx="239.36" ry="18"/>
<text text-anchor="middle" x="2005.39" y="-261.3" font-family="Times,serif" font-size="14.00">exposure event to phenotypic feature association</text>
</g>
<!-- association -->
<g id="node2" class="node">
<title>association</title>
<ellipse fill="none" stroke="black" cx="62.39" cy="-178" rx="62.29" ry="18"/>
<text text-anchor="middle" x="62.39" y="-174.3" font-family="Times,serif" font-size="14.00">association</text>
</g>
<!-- exposure event to phenotypic feature association&#45;&gt;association -->
<g id="edge1" class="edge">
<title>exposure event to phenotypic feature association&#45;&gt;association</title>
<path fill="none" stroke="black" d="M1769.39,-262.01C1484.21,-258.75 989.91,-250.31 566.39,-229 374.08,-219.32 324.67,-225.55 134.39,-196 128.7,-195.12 122.8,-194.02 116.92,-192.81"/>
<polygon fill="black" stroke="black" points="117.63,-189.39 107.12,-190.7 116.16,-196.23 117.63,-189.39"/>
<text text-anchor="middle" x="580.39" y="-217.8" font-family="Times,serif" font-size="14.00">is_a</text>
</g>
<!-- entity to phenotypic feature association mixin -->
<g id="node3" class="node">
<title>entity to phenotypic feature association mixin</title>
<ellipse fill="none" stroke="black" cx="367.39" cy="-178" rx="224.46" ry="18"/>
<text text-anchor="middle" x="367.39" y="-174.3" font-family="Times,serif" font-size="14.00">entity to phenotypic feature association mixin</text>
</g>
<!-- exposure event to phenotypic feature association&#45;&gt;entity to phenotypic feature association mixin -->
<g id="edge2" class="edge">
<title>exposure event to phenotypic feature association&#45;&gt;entity to phenotypic feature association mixin</title>
<path fill="none" stroke="black" d="M1772.98,-260.72C1461.05,-255.78 923.5,-245.25 727.39,-229 639.56,-221.72 540.4,-207.5 468.42,-196.08"/>
<polygon fill="black" stroke="black" points="468.88,-192.61 458.45,-194.49 467.77,-199.52 468.88,-192.61"/>
<text text-anchor="middle" x="743.89" y="-217.8" font-family="Times,serif" font-size="14.00">uses</text>
</g>
<!-- id -->
<g id="node4" class="node">
<title>id</title>
<ellipse fill="none" stroke="blue" cx="648.39" cy="-178" rx="38.19" ry="18"/>
<text text-anchor="middle" x="648.39" y="-174.3" font-family="Times,serif" font-size="14.00">string</text>
</g>
<!-- exposure event to phenotypic feature association&#45;&gt;id -->
<g id="edge3" class="edge">
<title>exposure event to phenotypic feature association&#45;&gt;id</title>
<path fill="none" stroke="blue" d="M1770.09,-261.71C1486.02,-258.1 1025.13,-249.27 854.39,-229 783.16,-220.54 765.47,-215.35 696.39,-196 693.29,-195.13 690.09,-194.16 686.89,-193.14"/>
<polygon fill="blue" stroke="blue" points="687.98,-189.81 677.38,-189.97 685.76,-196.46 687.98,-189.81"/>
<text text-anchor="middle" x="861.39" y="-217.8" font-family="Times,serif" font-size="14.00">id</text>
</g>
<!-- iri -->
<g id="node5" class="node">
<title>iri</title>
<ellipse fill="none" stroke="blue" cx="749.39" cy="-178" rx="44.39" ry="18"/>
<text text-anchor="middle" x="749.39" y="-174.3" font-family="Times,serif" font-size="14.00">iri type</text>
</g>
<!-- exposure event to phenotypic feature association&#45;&gt;iri -->
<g id="edge4" class="edge">
<title>exposure event to phenotypic feature association&#45;&gt;iri</title>
<path fill="none" stroke="blue" d="M1771.96,-261C1512.18,-256.8 1109.01,-247.53 957.39,-229 887.48,-220.46 870.46,-214.11 802.39,-196 799.02,-195.1 795.55,-194.12 792.07,-193.1"/>
<polygon fill="blue" stroke="blue" points="792.91,-189.69 782.32,-190.13 790.87,-196.39 792.91,-189.69"/>
<text text-anchor="middle" x="965.39" y="-217.8" font-family="Times,serif" font-size="14.00">iri</text>
</g>
<!-- name -->
<g id="node6" class="node">
<title>name</title>
<ellipse fill="none" stroke="blue" cx="868.39" cy="-178" rx="56.59" ry="18"/>
<text text-anchor="middle" x="868.39" y="-174.3" font-family="Times,serif" font-size="14.00">label type</text>
</g>
<!-- exposure event to phenotypic feature association&#45;&gt;name -->
<g id="edge5" class="edge">
<title>exposure event to phenotypic feature association&#45;&gt;name</title>
<path fill="none" stroke="blue" d="M1769.02,-262.14C1529.12,-259.05 1174.41,-250.84 1039.39,-229 995.76,-221.94 947.56,-207.19 913.49,-195.52"/>
<polygon fill="blue" stroke="blue" points="914.42,-192.14 903.83,-192.17 912.13,-198.76 914.42,-192.14"/>
<text text-anchor="middle" x="1059.39" y="-217.8" font-family="Times,serif" font-size="14.00">name</text>
</g>
<!-- description -->
<g id="node7" class="node">
<title>description</title>
<ellipse fill="none" stroke="blue" cx="1018.39" cy="-178" rx="75.29" ry="18"/>
<text text-anchor="middle" x="1018.39" y="-174.3" font-family="Times,serif" font-size="14.00">narrative text</text>
</g>
<!-- exposure event to phenotypic feature association&#45;&gt;description -->
<g id="edge6" class="edge">
<title>exposure event to phenotypic feature association&#45;&gt;description</title>
<path fill="none" stroke="blue" d="M1777.35,-259.54C1537.99,-254.13 1187.89,-243.83 1126.39,-229 1101.14,-222.91 1074.64,-210.74 1054.21,-199.93"/>
<polygon fill="blue" stroke="blue" points="1055.73,-196.78 1045.27,-195.09 1052.4,-202.93 1055.73,-196.78"/>
<text text-anchor="middle" x="1166.89" y="-217.8" font-family="Times,serif" font-size="14.00">description</text>
</g>
<!-- source -->
<g id="node8" class="node">
<title>source</title>
<ellipse fill="none" stroke="blue" cx="1150.39" cy="-178" rx="38.19" ry="18"/>
<text text-anchor="middle" x="1150.39" y="-174.3" font-family="Times,serif" font-size="14.00">string</text>
</g>
<!-- exposure event to phenotypic feature association&#45;&gt;source -->
<g id="edge7" class="edge">
<title>exposure event to phenotypic feature association&#45;&gt;source</title>
<path fill="none" stroke="blue" d="M1766.19,-264.02C1581.42,-261.97 1341.82,-254.22 1247.39,-229 1223.33,-222.57 1198.39,-209.56 1179.83,-198.42"/>
<polygon fill="blue" stroke="blue" points="1181.62,-195.4 1171.27,-193.14 1177.94,-201.36 1181.62,-195.4"/>
<text text-anchor="middle" x="1271.39" y="-217.8" font-family="Times,serif" font-size="14.00">source</text>
</g>
<!-- has attribute -->
<g id="node9" class="node">
<title>has attribute</title>
<ellipse fill="none" stroke="blue" cx="1258.39" cy="-178" rx="51.99" ry="18"/>
<text text-anchor="middle" x="1258.39" y="-174.3" font-family="Times,serif" font-size="14.00">attribute</text>
</g>
<!-- exposure event to phenotypic feature association&#45;&gt;has attribute -->
<g id="edge8" class="edge">
<title>exposure event to phenotypic feature association&#45;&gt;has attribute</title>
<path fill="none" stroke="blue" d="M1779.92,-258.89C1598.69,-253.69 1367.58,-244.22 1325.39,-229 1309.42,-223.24 1294.05,-212.3 1282.07,-202.12"/>
<polygon fill="blue" stroke="blue" points="1284.16,-199.29 1274.36,-195.26 1279.51,-204.52 1284.16,-199.29"/>
<text text-anchor="middle" x="1372.39" y="-217.8" font-family="Times,serif" font-size="14.00">has attribute</text>
</g>
<!-- predicate -->
<g id="node10" class="node">
<title>predicate</title>
<ellipse fill="none" stroke="blue" cx="1406.39" cy="-178" rx="77.99" ry="18"/>
<text text-anchor="middle" x="1406.39" y="-174.3" font-family="Times,serif" font-size="14.00">predicate type</text>
</g>
<!-- exposure event to phenotypic feature association&#45;&gt;predicate -->
<g id="edge9" class="edge">
<title>exposure event to phenotypic feature association&#45;&gt;predicate</title>
<path fill="none" stroke="blue" d="M1776.86,-259.64C1632.56,-255.2 1467.94,-246.37 1438.39,-229 1429.16,-223.57 1422.15,-214.31 1417.08,-205.23"/>
<polygon fill="blue" stroke="blue" points="1420.08,-203.39 1412.49,-195.99 1413.81,-206.5 1420.08,-203.39"/>
<text text-anchor="middle" x="1472.39" y="-217.8" font-family="Times,serif" font-size="14.00">predicate</text>
</g>
<!-- object -->
<g id="node11" class="node">
<title>object</title>
<ellipse fill="none" stroke="blue" cx="3253.39" cy="-91" rx="69.59" ry="18"/>
<text text-anchor="middle" x="3253.39" y="-87.3" font-family="Times,serif" font-size="14.00">named thing</text>
</g>
<!-- exposure event to phenotypic feature association&#45;&gt;object -->
<g id="edge10" class="edge">
<title>exposure event to phenotypic feature association&#45;&gt;object</title>
<path fill="none" stroke="blue" d="M1777.84,-259.45C1672.1,-252 1562.45,-234.74 1529.39,-196 1519.01,-183.83 1518.31,-171.53 1529.39,-160 1587.01,-100.07 2841.47,-92.94 3173.41,-92.11"/>
<polygon fill="blue" stroke="blue" points="3173.9,-95.61 3183.89,-92.08 3173.89,-88.61 3173.9,-95.61"/>
<text text-anchor="middle" x="1551.39" y="-174.3" font-family="Times,serif" font-size="14.00">object</text>
</g>
<!-- negated -->
<g id="node12" class="node">
<title>negated</title>
<ellipse fill="none" stroke="blue" cx="1629.39" cy="-178" rx="46.59" ry="18"/>
<text text-anchor="middle" x="1629.39" y="-174.3" font-family="Times,serif" font-size="14.00">boolean</text>
</g>
<!-- exposure event to phenotypic feature association&#45;&gt;negated -->
<g id="edge11" class="edge">
<title>exposure event to phenotypic feature association&#45;&gt;negated</title>
<path fill="none" stroke="blue" d="M1897.28,-248.94C1863.8,-243.53 1826.91,-236.81 1793.39,-229 1744.1,-217.52 1732.8,-210.81 1684.39,-196 1681.09,-194.99 1677.68,-193.94 1674.25,-192.89"/>
<polygon fill="blue" stroke="blue" points="1675.18,-189.51 1664.59,-189.91 1673.12,-196.2 1675.18,-189.51"/>
<text text-anchor="middle" x="1822.39" y="-217.8" font-family="Times,serif" font-size="14.00">negated</text>
</g>
<!-- qualifiers -->
<g id="node13" class="node">
<title>qualifiers</title>
<ellipse fill="none" stroke="blue" cx="1770.39" cy="-178" rx="76.89" ry="18"/>
<text text-anchor="middle" x="1770.39" y="-174.3" font-family="Times,serif" font-size="14.00">ontology class</text>
</g>
<!-- exposure event to phenotypic feature association&#45;&gt;qualifiers -->
<g id="edge12" class="edge">
<title>exposure event to phenotypic feature association&#45;&gt;qualifiers</title>
<path fill="none" stroke="blue" d="M1947.93,-247.51C1929.73,-241.98 1909.61,-235.54 1891.39,-229 1865.47,-219.69 1836.98,-207.99 1814.15,-198.25"/>
<polygon fill="blue" stroke="blue" points="1815.31,-194.94 1804.74,-194.2 1812.55,-201.37 1815.31,-194.94"/>
<text text-anchor="middle" x="1924.89" y="-217.8" font-family="Times,serif" font-size="14.00">qualifiers</text>
</g>
<!-- publications -->
<g id="node14" class="node">
<title>publications</title>
<ellipse fill="none" stroke="blue" cx="1927.39" cy="-178" rx="62.29" ry="18"/>
<text text-anchor="middle" x="1927.39" y="-174.3" font-family="Times,serif" font-size="14.00">publication</text>
</g>
<!-- exposure event to phenotypic feature association&#45;&gt;publications -->
<g id="edge13" class="edge">
<title>exposure event to phenotypic feature association&#45;&gt;publications</title>
<path fill="none" stroke="blue" d="M1989.61,-246.8C1978.15,-234.31 1962.48,-217.24 1949.74,-203.35"/>
<polygon fill="blue" stroke="blue" points="1951.96,-200.6 1942.62,-195.6 1946.81,-205.33 1951.96,-200.6"/>
<text text-anchor="middle" x="2015.39" y="-217.8" font-family="Times,serif" font-size="14.00">publications</text>
</g>
<!-- has evidence -->
<g id="node15" class="node">
<title>has evidence</title>
<ellipse fill="none" stroke="blue" cx="2083.39" cy="-178" rx="75.29" ry="18"/>
<text text-anchor="middle" x="2083.39" y="-174.3" font-family="Times,serif" font-size="14.00">evidence type</text>
</g>
<!-- exposure event to phenotypic feature association&#45;&gt;has evidence -->
<g id="edge14" class="edge">
<title>exposure event to phenotypic feature association&#45;&gt;has evidence</title>
<path fill="none" stroke="blue" d="M2039.6,-247.14C2047.48,-242.1 2055.32,-236.02 2061.39,-229 2067.22,-222.27 2071.73,-213.76 2075.11,-205.67"/>
<polygon fill="blue" stroke="blue" points="2078.44,-206.76 2078.68,-196.17 2071.88,-204.3 2078.44,-206.76"/>
<text text-anchor="middle" x="2117.89" y="-217.8" font-family="Times,serif" font-size="14.00">has evidence</text>
</g>
<!-- knowledge source -->
<g id="node16" class="node">
<title>knowledge source</title>
<ellipse fill="none" stroke="blue" cx="2285.39" cy="-178" rx="108.58" ry="18"/>
<text text-anchor="middle" x="2285.39" y="-174.3" font-family="Times,serif" font-size="14.00">information resource</text>
</g>
<!-- exposure event to phenotypic feature association&#45;&gt;knowledge source -->
<g id="edge15" class="edge">
<title>exposure event to phenotypic feature association&#45;&gt;knowledge source</title>
<path fill="none" stroke="blue" d="M2093.76,-248.26C2118.19,-243.04 2144.53,-236.58 2168.39,-229 2193.7,-220.96 2221.04,-209.44 2242.92,-199.49"/>
<polygon fill="blue" stroke="blue" points="2244.64,-202.56 2252.25,-195.19 2241.71,-196.2 2244.64,-202.56"/>
<text text-anchor="middle" x="2272.89" y="-217.8" font-family="Times,serif" font-size="14.00">knowledge source</text>
</g>
<!-- original knowledge source -->
<g id="node17" class="node">
<title>original knowledge source</title>
<ellipse fill="none" stroke="blue" cx="2450.39" cy="-178" rx="38.19" ry="18"/>
<text text-anchor="middle" x="2450.39" y="-174.3" font-family="Times,serif" font-size="14.00">string</text>
</g>
<!-- exposure event to phenotypic feature association&#45;&gt;original knowledge source -->
<g id="edge16" class="edge">
<title>exposure event to phenotypic feature association&#45;&gt;original knowledge source</title>
<path fill="none" stroke="blue" d="M2169.74,-251.9C2238.07,-245.83 2308.94,-237.88 2341.39,-229 2368.33,-221.63 2396.97,-208.26 2418.13,-197.19"/>
<polygon fill="blue" stroke="blue" points="2419.83,-200.25 2427,-192.46 2416.53,-194.08 2419.83,-200.25"/>
<text text-anchor="middle" x="2476.39" y="-217.8" font-family="Times,serif" font-size="14.00">original knowledge source</text>
</g>
<!-- primary knowledge source -->
<g id="node18" class="node">
<title>primary knowledge source</title>
<ellipse fill="none" stroke="blue" cx="2615.39" cy="-178" rx="108.58" ry="18"/>
<text text-anchor="middle" x="2615.39" y="-174.3" font-family="Times,serif" font-size="14.00">information resource</text>
</g>
<!-- exposure event to phenotypic feature association&#45;&gt;primary knowledge source -->
<g id="edge17" class="edge">
<title>exposure event to phenotypic feature association&#45;&gt;primary knowledge source</title>
<path fill="none" stroke="blue" d="M2174.14,-252.21C2200.98,-250.41 2228.45,-248.62 2254.39,-247 2289.72,-244.79 2540.66,-244.66 2572.39,-229 2583.4,-223.57 2592.73,-213.92 2599.85,-204.54"/>
<polygon fill="blue" stroke="blue" points="2602.88,-206.32 2605.76,-196.12 2597.15,-202.3 2602.88,-206.32"/>
<text text-anchor="middle" x="2686.39" y="-217.8" font-family="Times,serif" font-size="14.00">primary knowledge source</text>
</g>
<!-- aggregator knowledge source -->
<g id="node19" class="node">
<title>aggregator knowledge source</title>
<ellipse fill="none" stroke="blue" cx="2850.39" cy="-178" rx="108.58" ry="18"/>
<text text-anchor="middle" x="2850.39" y="-174.3" font-family="Times,serif" font-size="14.00">information resource</text>
</g>
<!-- exposure event to phenotypic feature association&#45;&gt;aggregator knowledge source -->
<g id="edge18" class="edge">
<title>exposure event to phenotypic feature association&#45;&gt;aggregator knowledge source</title>
<path fill="none" stroke="blue" d="M2170.43,-251.93C2198.44,-250.12 2227.24,-248.39 2254.39,-247 2313.35,-243.99 2729.83,-248.95 2785.39,-229 2789.76,-227.43 2806.52,-214.51 2821.92,-202.2"/>
<polygon fill="blue" stroke="blue" points="2824.18,-204.87 2829.78,-195.88 2819.8,-199.41 2824.18,-204.87"/>
<text text-anchor="middle" x="2913.89" y="-217.8" font-family="Times,serif" font-size="14.00">aggregator knowledge source</text>
</g>
<!-- timepoint -->
<g id="node20" class="node">
<title>timepoint</title>
<ellipse fill="none" stroke="blue" cx="3032.39" cy="-178" rx="55.49" ry="18"/>
<text text-anchor="middle" x="3032.39" y="-174.3" font-family="Times,serif" font-size="14.00">time type</text>
</g>
<!-- exposure event to phenotypic feature association&#45;&gt;timepoint -->
<g id="edge19" class="edge">
<title>exposure event to phenotypic feature association&#45;&gt;timepoint</title>
<path fill="none" stroke="blue" d="M2168.41,-251.82C2197.05,-249.98 2226.58,-248.28 2254.39,-247 2275.68,-246.02 3004.94,-242.55 3021.39,-229 3028.13,-223.46 3031.31,-214.82 3032.69,-206.27"/>
<polygon fill="blue" stroke="blue" points="3036.19,-206.37 3033.57,-196.11 3029.22,-205.76 3036.19,-206.37"/>
<text text-anchor="middle" x="3066.39" y="-217.8" font-family="Times,serif" font-size="14.00">timepoint</text>
</g>
<!-- type -->
<g id="node21" class="node">
<title>type</title>
<ellipse fill="none" stroke="black" cx="3136.39" cy="-178" rx="31.4" ry="18"/>
<text text-anchor="middle" x="3136.39" y="-174.3" font-family="Times,serif" font-size="14.00">type</text>
</g>
<!-- exposure event to phenotypic feature association&#45;&gt;type -->
<g id="edge20" class="edge">
<title>exposure event to phenotypic feature association&#45;&gt;type</title>
<path fill="none" stroke="blue" d="M2168.07,-251.79C2196.82,-249.95 2226.47,-248.25 2254.39,-247 2301.64,-244.89 3064.32,-252.43 3105.39,-229 3114.61,-223.74 3121.45,-214.51 3126.33,-205.41"/>
<polygon fill="blue" stroke="blue" points="3129.61,-206.67 3130.72,-196.13 3123.28,-203.67 3129.61,-206.67"/>
<text text-anchor="middle" x="3136.39" y="-217.8" font-family="Times,serif" font-size="14.00">type</text>
</g>
<!-- category -->
<g id="node23" class="node">
<title>category</title>
<ellipse fill="none" stroke="black" cx="3237.39" cy="-178" rx="51.19" ry="18"/>
<text text-anchor="middle" x="3237.39" y="-174.3" font-family="Times,serif" font-size="14.00">category</text>
</g>
<!-- exposure event to phenotypic feature association&#45;&gt;category -->
<g id="edge21" class="edge">
<title>exposure event to phenotypic feature association&#45;&gt;category</title>
<path fill="none" stroke="blue" d="M2168.07,-251.76C2196.82,-249.92 2226.47,-248.23 2254.39,-247 2304.47,-244.79 3108.32,-243.16 3156.39,-229 3175.87,-223.26 3195.32,-211.51 3210.27,-200.84"/>
<polygon fill="blue" stroke="blue" points="3212.56,-203.5 3218.52,-194.74 3208.4,-197.87 3212.56,-203.5"/>
<text text-anchor="middle" x="3221.89" y="-217.8" font-family="Times,serif" font-size="14.00">category</text>
</g>
<!-- subject -->
<g id="node25" class="node">
<title>subject</title>
<ellipse fill="none" stroke="black" cx="3351.39" cy="-178" rx="44.39" ry="18"/>
<text text-anchor="middle" x="3351.39" y="-174.3" font-family="Times,serif" font-size="14.00">subject</text>
</g>
<!-- exposure event to phenotypic feature association&#45;&gt;subject -->
<g id="edge22" class="edge">
<title>exposure event to phenotypic feature association&#45;&gt;subject</title>
<path fill="none" stroke="blue" d="M2167.4,-251.76C2196.35,-249.9 2226.26,-248.21 2254.39,-247 2365.75,-242.2 3149.49,-256.94 3257.39,-229 3280.25,-223.08 3303.7,-210.62 3321.46,-199.62"/>
<polygon fill="blue" stroke="blue" points="3323.65,-202.37 3330.2,-194.04 3319.89,-196.47 3323.65,-202.37"/>
<text text-anchor="middle" x="3321.39" y="-217.8" font-family="Times,serif" font-size="14.00">subject</text>
</g>
<!-- frequency qualifier -->
<g id="node27" class="node">
<title>frequency qualifier</title>
<ellipse fill="none" stroke="blue" cx="3498.39" cy="-178" rx="85.29" ry="18"/>
<text text-anchor="middle" x="3498.39" y="-174.3" font-family="Times,serif" font-size="14.00">frequency value</text>
</g>
<!-- exposure event to phenotypic feature association&#45;&gt;frequency qualifier -->
<g id="edge23" class="edge">
<title>exposure event to phenotypic feature association&#45;&gt;frequency qualifier</title>
<path fill="none" stroke="blue" d="M2167.4,-251.72C2196.35,-249.87 2226.26,-248.19 2254.39,-247 2376.19,-241.85 3231.29,-249.88 3351.39,-229 3386.83,-222.84 3425.26,-209.52 3453.93,-198.18"/>
<polygon fill="blue" stroke="blue" points="3455.3,-201.4 3463.26,-194.42 3452.68,-194.91 3455.3,-201.4"/>
<text text-anchor="middle" x="3477.39" y="-217.8" font-family="Times,serif" font-size="14.00">frequency qualifier</text>
</g>
<!-- severity qualifier -->
<g id="node28" class="node">
<title>severity qualifier</title>
<ellipse fill="none" stroke="blue" cx="3677.39" cy="-178" rx="76.09" ry="18"/>
<text text-anchor="middle" x="3677.39" y="-174.3" font-family="Times,serif" font-size="14.00">severity value</text>
</g>
<!-- exposure event to phenotypic feature association&#45;&gt;severity qualifier -->
<g id="edge24" class="edge">
<title>exposure event to phenotypic feature association&#45;&gt;severity qualifier</title>
<path fill="none" stroke="blue" d="M2166.73,-251.7C2195.89,-249.85 2226.04,-248.16 2254.39,-247 2398.18,-241.1 3408.17,-256.62 3549.39,-229 3579.99,-223.02 3612.69,-210.12 3637.39,-198.92"/>
<polygon fill="blue" stroke="blue" points="3639.17,-201.95 3646.77,-194.57 3636.23,-195.6 3639.17,-201.95"/>
<text text-anchor="middle" x="3661.39" y="-217.8" font-family="Times,serif" font-size="14.00">severity qualifier</text>
</g>
<!-- onset qualifier -->
<g id="node29" class="node">
<title>onset qualifier</title>
<ellipse fill="none" stroke="blue" cx="3807.39" cy="-178" rx="36.29" ry="18"/>
<text text-anchor="middle" x="3807.39" y="-174.3" font-family="Times,serif" font-size="14.00">onset</text>
</g>
<!-- exposure event to phenotypic feature association&#45;&gt;onset qualifier -->
<g id="edge25" class="edge">
<title>exposure event to phenotypic feature association&#45;&gt;onset qualifier</title>
<path fill="none" stroke="blue" d="M2166.39,-251.69C2195.66,-249.82 2225.93,-248.14 2254.39,-247 2336.11,-243.71 3647.86,-251.81 3726.39,-229 3746.43,-223.18 3766.4,-210.95 3781.5,-200.03"/>
<polygon fill="blue" stroke="blue" points="3783.88,-202.62 3789.79,-193.82 3779.69,-197.02 3783.88,-202.62"/>
<text text-anchor="middle" x="3811.89" y="-217.8" font-family="Times,serif" font-size="14.00">onset qualifier</text>
</g>
<!-- sex qualifier -->
<g id="node30" class="node">
<title>sex qualifier</title>
<ellipse fill="none" stroke="blue" cx="3935.39" cy="-178" rx="73.39" ry="18"/>
<text text-anchor="middle" x="3935.39" y="-174.3" font-family="Times,serif" font-size="14.00">biological sex</text>
</g>
<!-- exposure event to phenotypic feature association&#45;&gt;sex qualifier -->
<g id="edge26" class="edge">
<title>exposure event to phenotypic feature association&#45;&gt;sex qualifier</title>
<path fill="none" stroke="blue" d="M2166.39,-251.66C2195.66,-249.8 2225.93,-248.13 2254.39,-247 2299.17,-245.22 3824.9,-243.21 3867.39,-229 3883.54,-223.6 3899.04,-212.81 3911.15,-202.62"/>
<polygon fill="blue" stroke="blue" points="3913.77,-204.98 3918.96,-195.74 3909.14,-199.73 3913.77,-204.98"/>
<text text-anchor="middle" x="3939.39" y="-217.8" font-family="Times,serif" font-size="14.00">sex qualifier</text>
</g>
<!-- relation -->
<g id="node31" class="node">
<title>relation</title>
<ellipse fill="none" stroke="black" cx="3302.39" cy="-18" rx="46.59" ry="18"/>
<text text-anchor="middle" x="3302.39" y="-14.3" font-family="Times,serif" font-size="14.00">relation</text>
</g>
<!-- object&#45;&gt;relation -->
<g id="edge29" class="edge">
<title>object&#45;&gt;relation</title>
<path fill="none" stroke="black" stroke-dasharray="1,5" d="M3265.01,-73.17C3270.99,-64.51 3278.4,-53.77 3285.04,-44.14"/>
<polygon fill="black" stroke="black" points="3288.07,-45.92 3290.87,-35.71 3282.3,-41.95 3288.07,-45.92"/>
</g>
<!-- association_type -->
<g id="node22" class="node">
<title>association_type</title>
<ellipse fill="none" stroke="blue" cx="2301.39" cy="-265" rx="38.19" ry="18"/>
<text text-anchor="middle" x="2301.39" y="-261.3" font-family="Times,serif" font-size="14.00">string</text>
</g>
<!-- association_category -->
<g id="node24" class="node">
<title>association_category</title>
<ellipse fill="none" stroke="blue" cx="2432.39" cy="-265" rx="74.99" ry="18"/>
<text text-anchor="middle" x="2432.39" y="-261.3" font-family="Times,serif" font-size="14.00">category type</text>
</g>
<!-- subject&#45;&gt;object -->
<g id="edge27" class="edge">
<title>subject&#45;&gt;object</title>
<path fill="none" stroke="black" d="M3318.9,-165.59C3306.13,-159.94 3292.01,-152.13 3281.39,-142 3274.39,-135.31 3268.66,-126.48 3264.25,-118.1"/>
<polygon fill="black" stroke="black" points="3267.34,-116.45 3259.84,-108.97 3261.04,-119.5 3267.34,-116.45"/>
<text text-anchor="middle" x="3309.39" y="-130.8" font-family="Times,serif" font-size="14.00">relation</text>
</g>
<!-- subject&#45;&gt;relation -->
<g id="edge28" class="edge">
<title>subject&#45;&gt;relation</title>
<path fill="none" stroke="black" stroke-dasharray="1,5" d="M3350,-159.99C3347.9,-139.02 3342.98,-102.55 3332.39,-73 3328.91,-63.26 3323.79,-53.19 3318.76,-44.42"/>
<polygon fill="black" stroke="black" points="3321.76,-42.62 3313.63,-35.83 3315.75,-46.21 3321.76,-42.62"/>
</g>
<!-- exposure event to phenotypic feature association_subject -->
<g id="node26" class="node">
<title>exposure event to phenotypic feature association_subject</title>
<ellipse fill="none" stroke="blue" cx="2607.39" cy="-265" rx="81.79" ry="18"/>
<text text-anchor="middle" x="2607.39" y="-261.3" font-family="Times,serif" font-size="14.00">exposure event</text>
</g>
</g>
</svg>
