<?xml version="1.0" encoding="UTF-8" standalone="no"?>
<!DOCTYPE svg PUBLIC "-//W3C//DTD SVG 1.1//EN"
 "http://www.w3.org/Graphics/SVG/1.1/DTD/svg11.dtd">
<!-- Generated by graphviz version 2.43.0 (0)
 -->
<!-- Title: %3 Pages: 1 -->
<svg width="4029pt" height="291pt"
 viewBox="0.00 0.00 4029.39 291.00" xmlns="http://www.w3.org/2000/svg" xmlns:xlink="http://www.w3.org/1999/xlink">
<g id="graph0" class="graph" transform="scale(1 1) rotate(0) translate(4 287)">
<title>%3</title>
<polygon fill="white" stroke="transparent" points="-4,4 -4,-287 4025.39,-287 4025.39,4 -4,4"/>
<!-- exposure event to outcome association -->
<g id="node1" class="node">
<title>exposure event to outcome association</title>
<ellipse fill="none" stroke="black" cx="1893.39" cy="-265" rx="191.17" ry="18"/>
<text text-anchor="middle" x="1893.39" y="-261.3" font-family="Times,serif" font-size="14.00">exposure event to outcome association</text>
</g>
<!-- association -->
<g id="node2" class="node">
<title>association</title>
<ellipse fill="none" stroke="black" cx="62.39" cy="-178" rx="62.29" ry="18"/>
<text text-anchor="middle" x="62.39" y="-174.3" font-family="Times,serif" font-size="14.00">association</text>
</g>
<!-- exposure event to outcome association&#45;&gt;association -->
<g id="edge1" class="edge">
<title>exposure event to outcome association&#45;&gt;association</title>
<path fill="none" stroke="black" d="M1703.05,-263.38C1432.6,-261.57 921.72,-254.68 487.39,-229 330.1,-219.7 289.89,-221.5 134.39,-196 128.71,-195.07 122.81,-193.94 116.94,-192.72"/>
<polygon fill="black" stroke="black" points="117.65,-189.29 107.14,-190.58 116.16,-196.13 117.65,-189.29"/>
<text text-anchor="middle" x="501.39" y="-217.8" font-family="Times,serif" font-size="14.00">is_a</text>
</g>
<!-- entity to outcome association mixin -->
<g id="node3" class="node">
<title>entity to outcome association mixin</title>
<ellipse fill="none" stroke="black" cx="319.39" cy="-178" rx="176.27" ry="18"/>
<text text-anchor="middle" x="319.39" y="-174.3" font-family="Times,serif" font-size="14.00">entity to outcome association mixin</text>
</g>
<!-- exposure event to outcome association&#45;&gt;entity to outcome association mixin -->
<g id="edge2" class="edge">
<title>exposure event to outcome association&#45;&gt;entity to outcome association mixin</title>
<path fill="none" stroke="black" d="M1705.03,-261.81C1405.5,-257.81 833.8,-247.94 631.39,-229 554.95,-221.85 468.84,-207.57 406.48,-196.1"/>
<polygon fill="black" stroke="black" points="406.76,-192.59 396.29,-194.21 405.48,-199.47 406.76,-192.59"/>
<text text-anchor="middle" x="647.89" y="-217.8" font-family="Times,serif" font-size="14.00">uses</text>
</g>
<!-- id -->
<g id="node4" class="node">
<title>id</title>
<ellipse fill="none" stroke="blue" cx="551.39" cy="-178" rx="38.19" ry="18"/>
<text text-anchor="middle" x="551.39" y="-174.3" font-family="Times,serif" font-size="14.00">string</text>
</g>
<!-- exposure event to outcome association&#45;&gt;id -->
<g id="edge3" class="edge">
<title>exposure event to outcome association&#45;&gt;id</title>
<path fill="none" stroke="blue" d="M1704.75,-262.09C1431.1,-258.64 937.41,-249.72 760.39,-229 687.85,-220.51 669.77,-215.57 599.39,-196 596.29,-195.14 593.09,-194.17 589.89,-193.15"/>
<polygon fill="blue" stroke="blue" points="590.97,-189.83 580.38,-189.99 588.76,-196.47 590.97,-189.83"/>
<text text-anchor="middle" x="767.39" y="-217.8" font-family="Times,serif" font-size="14.00">id</text>
</g>
<!-- iri -->
<g id="node5" class="node">
<title>iri</title>
<ellipse fill="none" stroke="blue" cx="652.39" cy="-178" rx="44.39" ry="18"/>
<text text-anchor="middle" x="652.39" y="-174.3" font-family="Times,serif" font-size="14.00">iri type</text>
</g>
<!-- exposure event to outcome association&#45;&gt;iri -->
<g id="edge4" class="edge">
<title>exposure event to outcome association&#45;&gt;iri</title>
<path fill="none" stroke="blue" d="M1706.82,-261.1C1458.02,-256.63 1030.9,-246.66 875.39,-229 798.92,-220.32 779.95,-215.12 705.39,-196 702.02,-195.13 698.54,-194.17 695.05,-193.16"/>
<polygon fill="blue" stroke="blue" points="695.88,-189.76 685.3,-190.22 693.86,-196.46 695.88,-189.76"/>
<text text-anchor="middle" x="883.39" y="-217.8" font-family="Times,serif" font-size="14.00">iri</text>
</g>
<!-- name -->
<g id="node6" class="node">
<title>name</title>
<ellipse fill="none" stroke="blue" cx="771.39" cy="-178" rx="56.59" ry="18"/>
<text text-anchor="middle" x="771.39" y="-174.3" font-family="Times,serif" font-size="14.00">label type</text>
</g>
<!-- exposure event to outcome association&#45;&gt;name -->
<g id="edge5" class="edge">
<title>exposure event to outcome association&#45;&gt;name</title>
<path fill="none" stroke="blue" d="M1705.53,-261.67C1476.51,-258 1102.99,-249.09 965.39,-229 914.85,-221.62 858.44,-206.25 819.54,-194.49"/>
<polygon fill="blue" stroke="blue" points="820.13,-191.01 809.55,-191.43 818.08,-197.7 820.13,-191.01"/>
<text text-anchor="middle" x="985.39" y="-217.8" font-family="Times,serif" font-size="14.00">name</text>
</g>
<!-- description -->
<g id="node7" class="node">
<title>description</title>
<ellipse fill="none" stroke="blue" cx="921.39" cy="-178" rx="75.29" ry="18"/>
<text text-anchor="middle" x="921.39" y="-174.3" font-family="Times,serif" font-size="14.00">narrative text</text>
</g>
<!-- exposure event to outcome association&#45;&gt;description -->
<g id="edge6" class="edge">
<title>exposure event to outcome association&#45;&gt;description</title>
<path fill="none" stroke="blue" d="M1703.66,-262.74C1496.38,-260.17 1178.02,-252.4 1059.39,-229 1026.44,-222.5 990.84,-209.44 964.05,-198.29"/>
<polygon fill="blue" stroke="blue" points="965.17,-194.97 954.6,-194.29 962.44,-201.41 965.17,-194.97"/>
<text text-anchor="middle" x="1099.89" y="-217.8" font-family="Times,serif" font-size="14.00">description</text>
</g>
<!-- has attribute -->
<g id="node8" class="node">
<title>has attribute</title>
<ellipse fill="none" stroke="blue" cx="1066.39" cy="-178" rx="51.99" ry="18"/>
<text text-anchor="middle" x="1066.39" y="-174.3" font-family="Times,serif" font-size="14.00">attribute</text>
</g>
<!-- exposure event to outcome association&#45;&gt;has attribute -->
<g id="edge7" class="edge">
<title>exposure event to outcome association&#45;&gt;has attribute</title>
<path fill="none" stroke="blue" d="M1705.2,-261.74C1530.61,-258.36 1283.93,-249.93 1189.39,-229 1159.19,-222.31 1126.86,-208.9 1102.93,-197.65"/>
<polygon fill="blue" stroke="blue" points="1104.39,-194.47 1093.86,-193.3 1101.37,-200.78 1104.39,-194.47"/>
<text text-anchor="middle" x="1236.39" y="-217.8" font-family="Times,serif" font-size="14.00">has attribute</text>
</g>
<!-- subject -->
<g id="node9" class="node">
<title>subject</title>
<ellipse fill="none" stroke="blue" cx="1206.39" cy="-178" rx="69.59" ry="18"/>
<text text-anchor="middle" x="1206.39" y="-174.3" font-family="Times,serif" font-size="14.00">named thing</text>
</g>
<!-- exposure event to outcome association&#45;&gt;subject -->
<g id="edge8" class="edge">
<title>exposure event to outcome association&#45;&gt;subject</title>
<path fill="none" stroke="blue" d="M1713.64,-258.83C1577.86,-253.79 1403.35,-244.55 1333.39,-229 1303.27,-222.3 1270.94,-209.48 1246.43,-198.5"/>
<polygon fill="blue" stroke="blue" points="1247.66,-195.22 1237.11,-194.24 1244.75,-201.58 1247.66,-195.22"/>
<text text-anchor="middle" x="1359.39" y="-217.8" font-family="Times,serif" font-size="14.00">subject</text>
</g>
<!-- predicate -->
<g id="node10" class="node">
<title>predicate</title>
<ellipse fill="none" stroke="blue" cx="1372.39" cy="-178" rx="77.99" ry="18"/>
<text text-anchor="middle" x="1372.39" y="-174.3" font-family="Times,serif" font-size="14.00">predicate type</text>
</g>
<!-- exposure event to outcome association&#45;&gt;predicate -->
<g id="edge9" class="edge">
<title>exposure event to outcome association&#45;&gt;predicate</title>
<path fill="none" stroke="blue" d="M1713.27,-258.9C1585.06,-253.95 1430.98,-244.81 1404.39,-229 1395.19,-223.53 1388.19,-214.26 1383.11,-205.18"/>
<polygon fill="blue" stroke="blue" points="1386.11,-203.34 1378.51,-195.95 1379.84,-206.46 1386.11,-203.34"/>
<text text-anchor="middle" x="1438.39" y="-217.8" font-family="Times,serif" font-size="14.00">predicate</text>
</g>
<!-- object -->
<g id="node11" class="node">
<title>object</title>
<ellipse fill="none" stroke="blue" cx="1304.39" cy="-91" rx="69.59" ry="18"/>
<text text-anchor="middle" x="1304.39" y="-87.3" font-family="Times,serif" font-size="14.00">named thing</text>
</g>
<!-- exposure event to outcome association&#45;&gt;object -->
<g id="edge10" class="edge">
<title>exposure event to outcome association&#45;&gt;object</title>
<path fill="none" stroke="blue" d="M1803.61,-249.11C1766.68,-242.94 1723.47,-235.68 1684.39,-229 1600.34,-214.62 1571.06,-235.31 1495.39,-196 1475.31,-185.57 1478.08,-172.77 1459.39,-160 1427.29,-138.07 1386.97,-120.64 1355.5,-108.92"/>
<polygon fill="blue" stroke="blue" points="1356.63,-105.61 1346.03,-105.47 1354.23,-112.18 1356.63,-105.61"/>
<text text-anchor="middle" x="1517.39" y="-174.3" font-family="Times,serif" font-size="14.00">object</text>
</g>
<!-- negated -->
<g id="node12" class="node">
<title>negated</title>
<ellipse fill="none" stroke="blue" cx="1595.39" cy="-178" rx="46.59" ry="18"/>
<text text-anchor="middle" x="1595.39" y="-174.3" font-family="Times,serif" font-size="14.00">boolean</text>
</g>
<!-- exposure event to outcome association&#45;&gt;negated -->
<g id="edge11" class="edge">
<title>exposure event to outcome association&#45;&gt;negated</title>
<path fill="none" stroke="blue" d="M1813.63,-248.54C1788.14,-243.04 1759.92,-236.37 1734.39,-229 1700.82,-219.31 1663.6,-205.77 1636.14,-195.22"/>
<polygon fill="blue" stroke="blue" points="1637.07,-191.83 1626.48,-191.48 1634.55,-198.36 1637.07,-191.83"/>
<text text-anchor="middle" x="1763.39" y="-217.8" font-family="Times,serif" font-size="14.00">negated</text>
</g>
<!-- qualifiers -->
<g id="node13" class="node">
<title>qualifiers</title>
<ellipse fill="none" stroke="blue" cx="1736.39" cy="-178" rx="76.89" ry="18"/>
<text text-anchor="middle" x="1736.39" y="-174.3" font-family="Times,serif" font-size="14.00">ontology class</text>
</g>
<!-- exposure event to outcome association&#45;&gt;qualifiers -->
<g id="edge12" class="edge">
<title>exposure event to outcome association&#45;&gt;qualifiers</title>
<path fill="none" stroke="blue" d="M1858.12,-247.2C1846.64,-241.58 1833.9,-235.17 1822.39,-229 1805.47,-219.92 1787.03,-209.3 1771.58,-200.19"/>
<polygon fill="blue" stroke="blue" points="1773.24,-197.11 1762.86,-195.02 1769.67,-203.13 1773.24,-197.11"/>
<text text-anchor="middle" x="1855.89" y="-217.8" font-family="Times,serif" font-size="14.00">qualifiers</text>
</g>
<!-- publications -->
<g id="node14" class="node">
<title>publications</title>
<ellipse fill="none" stroke="blue" cx="1893.39" cy="-178" rx="62.29" ry="18"/>
<text text-anchor="middle" x="1893.39" y="-174.3" font-family="Times,serif" font-size="14.00">publication</text>
</g>
<!-- exposure event to outcome association&#45;&gt;publications -->
<g id="edge13" class="edge">
<title>exposure event to outcome association&#45;&gt;publications</title>
<path fill="none" stroke="blue" d="M1893.39,-246.8C1893.39,-235.16 1893.39,-219.55 1893.39,-206.24"/>
<polygon fill="blue" stroke="blue" points="1896.89,-206.18 1893.39,-196.18 1889.89,-206.18 1896.89,-206.18"/>
<text text-anchor="middle" x="1937.39" y="-217.8" font-family="Times,serif" font-size="14.00">publications</text>
</g>
<!-- has evidence -->
<g id="node15" class="node">
<title>has evidence</title>
<ellipse fill="none" stroke="blue" cx="2049.39" cy="-178" rx="75.29" ry="18"/>
<text text-anchor="middle" x="2049.39" y="-174.3" font-family="Times,serif" font-size="14.00">evidence type</text>
</g>
<!-- exposure event to outcome association&#45;&gt;has evidence -->
<g id="edge14" class="edge">
<title>exposure event to outcome association&#45;&gt;has evidence</title>
<path fill="none" stroke="blue" d="M1944.77,-247.56C1958.35,-242.39 1972.74,-236.13 1985.39,-229 1998.74,-221.48 2012.28,-211.34 2023.45,-202.15"/>
<polygon fill="blue" stroke="blue" points="2025.74,-204.8 2031.13,-195.69 2021.23,-199.45 2025.74,-204.8"/>
<text text-anchor="middle" x="2054.89" y="-217.8" font-family="Times,serif" font-size="14.00">has evidence</text>
</g>
<!-- knowledge source -->
<g id="node16" class="node">
<title>knowledge source</title>
<ellipse fill="none" stroke="blue" cx="2251.39" cy="-178" rx="108.58" ry="18"/>
<text text-anchor="middle" x="2251.39" y="-174.3" font-family="Times,serif" font-size="14.00">information resource</text>
</g>
<!-- exposure event to outcome association&#45;&gt;knowledge source -->
<g id="edge15" class="edge">
<title>exposure event to outcome association&#45;&gt;knowledge source</title>
<path fill="none" stroke="blue" d="M1999.51,-250.03C2033.58,-244.6 2071.3,-237.59 2105.39,-229 2138.05,-220.77 2173.83,-208.57 2201.8,-198.28"/>
<polygon fill="blue" stroke="blue" points="2203.19,-201.5 2211.34,-194.73 2200.75,-194.94 2203.19,-201.5"/>
<text text-anchor="middle" x="2218.89" y="-217.8" font-family="Times,serif" font-size="14.00">knowledge source</text>
</g>
<!-- primary knowledge source -->
<g id="node17" class="node">
<title>primary knowledge source</title>
<ellipse fill="none" stroke="blue" cx="2486.39" cy="-178" rx="108.58" ry="18"/>
<text text-anchor="middle" x="2486.39" y="-174.3" font-family="Times,serif" font-size="14.00">information resource</text>
</g>
<!-- exposure event to outcome association&#45;&gt;primary knowledge source -->
<g id="edge16" class="edge">
<title>exposure event to outcome association&#45;&gt;primary knowledge source</title>
<path fill="none" stroke="blue" d="M2029.8,-252.39C2138.49,-243.07 2274.55,-231.17 2287.39,-229 2334.67,-221.01 2387.24,-207.6 2426.47,-196.68"/>
<polygon fill="blue" stroke="blue" points="2427.47,-200.04 2436.15,-193.96 2425.58,-193.3 2427.47,-200.04"/>
<text text-anchor="middle" x="2454.39" y="-217.8" font-family="Times,serif" font-size="14.00">primary knowledge source</text>
</g>
<!-- aggregator knowledge source -->
<g id="node18" class="node">
<title>aggregator knowledge source</title>
<ellipse fill="none" stroke="blue" cx="2721.39" cy="-178" rx="108.58" ry="18"/>
<text text-anchor="middle" x="2721.39" y="-174.3" font-family="Times,serif" font-size="14.00">information resource</text>
</g>
<!-- exposure event to outcome association&#45;&gt;aggregator knowledge source -->
<g id="edge17" class="edge">
<title>exposure event to outcome association&#45;&gt;aggregator knowledge source</title>
<path fill="none" stroke="blue" d="M2025.12,-251.94C2047.87,-250.11 2071.31,-248.37 2093.39,-247 2297.6,-234.33 2351.55,-262.44 2553.39,-229 2593.25,-222.4 2636.95,-209.19 2669.79,-198.01"/>
<polygon fill="blue" stroke="blue" points="2671.31,-201.19 2679.62,-194.62 2669.02,-194.58 2671.31,-201.19"/>
<text text-anchor="middle" x="2720.89" y="-217.8" font-family="Times,serif" font-size="14.00">aggregator knowledge source</text>
</g>
<!-- timepoint -->
<g id="node19" class="node">
<title>timepoint</title>
<ellipse fill="none" stroke="blue" cx="2903.39" cy="-178" rx="55.49" ry="18"/>
<text text-anchor="middle" x="2903.39" y="-174.3" font-family="Times,serif" font-size="14.00">time type</text>
</g>
<!-- exposure event to outcome association&#45;&gt;timepoint -->
<g id="edge18" class="edge">
<title>exposure event to outcome association&#45;&gt;timepoint</title>
<path fill="none" stroke="blue" d="M2023.49,-251.8C2046.75,-249.94 2070.78,-248.24 2093.39,-247 2175.3,-242.52 2753.42,-254.47 2831.39,-229 2848.6,-223.38 2865.36,-212.19 2878.38,-201.82"/>
<polygon fill="blue" stroke="blue" points="2880.9,-204.27 2886.36,-195.18 2876.43,-198.88 2880.9,-204.27"/>
<text text-anchor="middle" x="2896.39" y="-217.8" font-family="Times,serif" font-size="14.00">timepoint</text>
</g>
<!-- original subject -->
<g id="node20" class="node">
<title>original subject</title>
<ellipse fill="none" stroke="blue" cx="3015.39" cy="-178" rx="38.19" ry="18"/>
<text text-anchor="middle" x="3015.39" y="-174.3" font-family="Times,serif" font-size="14.00">string</text>
</g>
<!-- exposure event to outcome association&#45;&gt;original subject -->
<g id="edge19" class="edge">
<title>exposure event to outcome association&#45;&gt;original subject</title>
<path fill="none" stroke="blue" d="M2023.22,-251.76C2046.56,-249.9 2070.69,-248.21 2093.39,-247 2186.84,-242.03 2845.72,-255.76 2935.39,-229 2955.07,-223.13 2974.67,-211.01 2989.54,-200.18"/>
<polygon fill="blue" stroke="blue" points="2991.84,-202.82 2997.71,-194 2987.62,-197.24 2991.84,-202.82"/>
<text text-anchor="middle" x="3024.39" y="-217.8" font-family="Times,serif" font-size="14.00">original subject</text>
</g>
<!-- original predicate -->
<g id="node21" class="node">
<title>original predicate</title>
<ellipse fill="none" stroke="blue" cx="3129.39" cy="-178" rx="57.39" ry="18"/>
<text text-anchor="middle" x="3129.39" y="-174.3" font-family="Times,serif" font-size="14.00">uriorcurie</text>
</g>
<!-- exposure event to outcome association&#45;&gt;original predicate -->
<g id="edge20" class="edge">
<title>exposure event to outcome association&#45;&gt;original predicate</title>
<path fill="none" stroke="blue" d="M2022.68,-251.74C2046.19,-249.87 2070.51,-248.18 2093.39,-247 2148.39,-244.17 3034.3,-251.86 3084.39,-229 3096.06,-223.68 3106,-213.72 3113.55,-204.08"/>
<polygon fill="blue" stroke="blue" points="3116.5,-205.97 3119.55,-195.82 3110.84,-201.85 3116.5,-205.97"/>
<text text-anchor="middle" x="3168.89" y="-217.8" font-family="Times,serif" font-size="14.00">original predicate</text>
</g>
<!-- original object -->
<g id="node22" class="node">
<title>original object</title>
<ellipse fill="none" stroke="blue" cx="3261.39" cy="-178" rx="38.19" ry="18"/>
<text text-anchor="middle" x="3261.39" y="-174.3" font-family="Times,serif" font-size="14.00">string</text>
</g>
<!-- exposure event to outcome association&#45;&gt;original object -->
<g id="edge21" class="edge">
<title>exposure event to outcome association&#45;&gt;original object</title>
<path fill="none" stroke="blue" d="M2022.41,-251.72C2046,-249.85 2070.42,-248.16 2093.39,-247 2125.11,-245.4 3209.52,-245.91 3236.39,-229 3244.84,-223.69 3250.54,-214.58 3254.33,-205.58"/>
<polygon fill="blue" stroke="blue" points="3257.66,-206.63 3257.73,-196.04 3251.07,-204.28 3257.66,-206.63"/>
<text text-anchor="middle" x="3301.89" y="-217.8" font-family="Times,serif" font-size="14.00">original object</text>
</g>
<!-- type -->
<g id="node23" class="node">
<title>type</title>
<ellipse fill="none" stroke="black" cx="3349.39" cy="-178" rx="31.4" ry="18"/>
<text text-anchor="middle" x="3349.39" y="-174.3" font-family="Times,serif" font-size="14.00">type</text>
</g>
<!-- exposure event to outcome association&#45;&gt;type -->
<g id="edge22" class="edge">
<title>exposure event to outcome association&#45;&gt;type</title>
<path fill="none" stroke="blue" d="M2022.41,-251.69C2046,-249.82 2070.42,-248.14 2093.39,-247 2110.93,-246.13 3345.07,-241.5 3357.39,-229 3363.52,-222.79 3363.69,-213.89 3361.61,-205.31"/>
<polygon fill="blue" stroke="blue" points="3364.85,-203.94 3358.36,-195.57 3358.21,-206.16 3364.85,-203.94"/>
<text text-anchor="middle" x="3379.39" y="-217.8" font-family="Times,serif" font-size="14.00">type</text>
</g>
<!-- category -->
<g id="node25" class="node">
<title>category</title>
<ellipse fill="none" stroke="black" cx="3450.39" cy="-178" rx="51.19" ry="18"/>
<text text-anchor="middle" x="3450.39" y="-174.3" font-family="Times,serif" font-size="14.00">category</text>
</g>
<!-- exposure event to outcome association&#45;&gt;category -->
<g id="edge23" class="edge">
<title>exposure event to outcome association&#45;&gt;category</title>
<path fill="none" stroke="blue" d="M2022.41,-251.68C2046,-249.81 2070.42,-248.13 2093.39,-247 2129.63,-245.21 3365.9,-242.95 3399.39,-229 3412.22,-223.66 3423.59,-213.41 3432.32,-203.58"/>
<polygon fill="blue" stroke="blue" points="3435.02,-205.81 3438.73,-195.89 3429.64,-201.33 3435.02,-205.81"/>
<text text-anchor="middle" x="3453.89" y="-217.8" font-family="Times,serif" font-size="14.00">category</text>
</g>
<!-- population context qualifier -->
<g id="node27" class="node">
<title>population context qualifier</title>
<ellipse fill="none" stroke="blue" cx="3691.39" cy="-178" rx="171.67" ry="18"/>
<text text-anchor="middle" x="3691.39" y="-174.3" font-family="Times,serif" font-size="14.00">population of individual organisms</text>
</g>
<!-- exposure event to outcome association&#45;&gt;population context qualifier -->
<g id="edge24" class="edge">
<title>exposure event to outcome association&#45;&gt;population context qualifier</title>
<path fill="none" stroke="blue" d="M2022.14,-251.68C2045.82,-249.81 2070.34,-248.13 2093.39,-247 2248.33,-239.43 3335.53,-248.77 3489.39,-229 3537.29,-222.85 3590.25,-209.49 3629.91,-198.12"/>
<polygon fill="blue" stroke="blue" points="3631.07,-201.43 3639.7,-195.28 3629.12,-194.71 3631.07,-201.43"/>
<text text-anchor="middle" x="3667.39" y="-217.8" font-family="Times,serif" font-size="14.00">population context qualifier</text>
</g>
<!-- temporal context qualifier -->
<g id="node28" class="node">
<title>temporal context qualifier</title>
<ellipse fill="none" stroke="blue" cx="3936.39" cy="-178" rx="55.49" ry="18"/>
<text text-anchor="middle" x="3936.39" y="-174.3" font-family="Times,serif" font-size="14.00">time type</text>
</g>
<!-- exposure event to outcome association&#45;&gt;temporal context qualifier -->
<g id="edge25" class="edge">
<title>exposure event to outcome association&#45;&gt;temporal context qualifier</title>
<path fill="none" stroke="blue" d="M2021.87,-251.66C2045.63,-249.79 2070.25,-248.11 2093.39,-247 2279.53,-238.1 3586.19,-257.15 3770.39,-229 3812.86,-222.51 3859.58,-207.71 3892.6,-195.89"/>
<polygon fill="blue" stroke="blue" points="3894.19,-199.04 3902.39,-192.33 3891.8,-192.46 3894.19,-199.04"/>
<text text-anchor="middle" x="3927.89" y="-217.8" font-family="Times,serif" font-size="14.00">temporal context qualifier</text>
</g>
<!-- subject&#45;&gt;object -->
<g id="edge26" class="edge">
<title>subject&#45;&gt;object</title>
<path fill="none" stroke="black" d="M1225.29,-160.61C1240.2,-147.68 1261.19,-129.47 1277.8,-115.07"/>
<polygon fill="black" stroke="black" points="1280.3,-117.53 1285.56,-108.34 1275.71,-112.25 1280.3,-117.53"/>
<text text-anchor="middle" x="1289.39" y="-130.8" font-family="Times,serif" font-size="14.00">relation</text>
</g>
<!-- relation -->
<g id="node29" class="node">
<title>relation</title>
<ellipse fill="none" stroke="black" cx="1218.39" cy="-18" rx="46.59" ry="18"/>
<text text-anchor="middle" x="1218.39" y="-14.3" font-family="Times,serif" font-size="14.00">relation</text>
</g>
<!-- subject&#45;&gt;relation -->
<g id="edge27" class="edge">
<title>subject&#45;&gt;relation</title>
<path fill="none" stroke="black" stroke-dasharray="1,5" d="M1207.7,-159.79C1209.78,-132.48 1213.84,-78.99 1216.31,-46.38"/>
<polygon fill="black" stroke="black" points="1219.82,-46.42 1217.09,-36.19 1212.84,-45.89 1219.82,-46.42"/>
</g>
<!-- object&#45;&gt;relation -->
<g id="edge28" class="edge">
<title>object&#45;&gt;relation</title>
<path fill="none" stroke="black" stroke-dasharray="1,5" d="M1284.45,-73.53C1272.81,-63.92 1257.97,-51.67 1245.3,-41.21"/>
<polygon fill="black" stroke="black" points="1247.29,-38.31 1237.35,-34.65 1242.83,-43.71 1247.29,-38.31"/>
</g>
<!-- association_type -->
<g id="node24" class="node">
<title>association_type</title>
<ellipse fill="none" stroke="blue" cx="2140.39" cy="-265" rx="38.19" ry="18"/>
<text text-anchor="middle" x="2140.39" y="-261.3" font-family="Times,serif" font-size="14.00">string</text>
</g>
<!-- association_category -->
<g id="node26" class="node">
<title>association_category</title>
<ellipse fill="none" stroke="blue" cx="2271.39" cy="-265" rx="74.99" ry="18"/>
<text text-anchor="middle" x="2271.39" y="-261.3" font-family="Times,serif" font-size="14.00">category type</text>
</g>
</g>
</svg>
