<?xml version="1.0" encoding="UTF-8" standalone="no"?>
<!DOCTYPE svg PUBLIC "-//W3C//DTD SVG 1.1//EN"
 "http://www.w3.org/Graphics/SVG/1.1/DTD/svg11.dtd">
<!-- Generated by graphviz version 2.43.0 (0)
 -->
<!-- Title: %3 Pages: 1 -->
<svg width="4157pt" height="291pt"
 viewBox="0.00 0.00 4156.84 291.00" xmlns="http://www.w3.org/2000/svg" xmlns:xlink="http://www.w3.org/1999/xlink">
<g id="graph0" class="graph" transform="scale(1 1) rotate(0) translate(4 287)">
<title>%3</title>
<polygon fill="white" stroke="transparent" points="-4,4 -4,-287 4152.84,-287 4152.84,4 -4,4"/>
<!-- exposure event to phenotypic feature association -->
<g id="node1" class="node">
<title>exposure event to phenotypic feature association</title>
<ellipse fill="none" stroke="black" cx="2005.39" cy="-265" rx="239.36" ry="18"/>
<text text-anchor="middle" x="2005.39" y="-261.3" font-family="Times,serif" font-size="14.00">exposure event to phenotypic feature association</text>
</g>
<!-- association -->
<g id="node2" class="node">
<title>association</title>
<ellipse fill="none" stroke="black" cx="62.39" cy="-178" rx="62.29" ry="18"/>
<text text-anchor="middle" x="62.39" y="-174.3" font-family="Times,serif" font-size="14.00">association</text>
</g>
<!-- exposure event to phenotypic feature association&#45;&gt;association -->
<g id="edge1" class="edge">
<title>exposure event to phenotypic feature association&#45;&gt;association</title>
<path fill="none" stroke="black" d="M1769.39,-262.01C1484.21,-258.75 989.91,-250.31 566.39,-229 374.08,-219.32 324.67,-225.55 134.39,-196 128.7,-195.12 122.8,-194.02 116.92,-192.81"/>
<polygon fill="black" stroke="black" points="117.63,-189.39 107.12,-190.7 116.16,-196.23 117.63,-189.39"/>
<text text-anchor="middle" x="580.39" y="-217.8" font-family="Times,serif" font-size="14.00">is_a</text>
</g>
<!-- entity to phenotypic feature association mixin -->
<g id="node3" class="node">
<title>entity to phenotypic feature association mixin</title>
<ellipse fill="none" stroke="black" cx="367.39" cy="-178" rx="224.46" ry="18"/>
<text text-anchor="middle" x="367.39" y="-174.3" font-family="Times,serif" font-size="14.00">entity to phenotypic feature association mixin</text>
</g>
<!-- exposure event to phenotypic feature association&#45;&gt;entity to phenotypic feature association mixin -->
<g id="edge2" class="edge">
<title>exposure event to phenotypic feature association&#45;&gt;entity to phenotypic feature association mixin</title>
<path fill="none" stroke="black" d="M1772.98,-260.72C1461.05,-255.78 923.5,-245.25 727.39,-229 639.56,-221.72 540.4,-207.5 468.42,-196.08"/>
<polygon fill="black" stroke="black" points="468.88,-192.61 458.45,-194.49 467.77,-199.52 468.88,-192.61"/>
<text text-anchor="middle" x="743.89" y="-217.8" font-family="Times,serif" font-size="14.00">uses</text>
</g>
<!-- id -->
<g id="node4" class="node">
<title>id</title>
<ellipse fill="none" stroke="blue" cx="648.39" cy="-178" rx="38.19" ry="18"/>
<text text-anchor="middle" x="648.39" y="-174.3" font-family="Times,serif" font-size="14.00">string</text>
</g>
<!-- exposure event to phenotypic feature association&#45;&gt;id -->
<g id="edge3" class="edge">
<title>exposure event to phenotypic feature association&#45;&gt;id</title>
<path fill="none" stroke="blue" d="M1770.09,-261.71C1486.02,-258.1 1025.13,-249.27 854.39,-229 783.16,-220.54 765.47,-215.35 696.39,-196 693.29,-195.13 690.09,-194.16 686.89,-193.14"/>
<polygon fill="blue" stroke="blue" points="687.98,-189.81 677.38,-189.97 685.76,-196.46 687.98,-189.81"/>
<text text-anchor="middle" x="861.39" y="-217.8" font-family="Times,serif" font-size="14.00">id</text>
</g>
<!-- iri -->
<g id="node5" class="node">
<title>iri</title>
<ellipse fill="none" stroke="blue" cx="749.39" cy="-178" rx="44.39" ry="18"/>
<text text-anchor="middle" x="749.39" y="-174.3" font-family="Times,serif" font-size="14.00">iri type</text>
</g>
<!-- exposure event to phenotypic feature association&#45;&gt;iri -->
<g id="edge4" class="edge">
<title>exposure event to phenotypic feature association&#45;&gt;iri</title>
<path fill="none" stroke="blue" d="M1771.96,-261C1512.18,-256.8 1109.01,-247.53 957.39,-229 887.48,-220.46 870.46,-214.11 802.39,-196 799.02,-195.1 795.55,-194.12 792.07,-193.1"/>
<polygon fill="blue" stroke="blue" points="792.91,-189.69 782.32,-190.13 790.87,-196.39 792.91,-189.69"/>
<text text-anchor="middle" x="965.39" y="-217.8" font-family="Times,serif" font-size="14.00">iri</text>
</g>
<!-- name -->
<g id="node6" class="node">
<title>name</title>
<ellipse fill="none" stroke="blue" cx="868.39" cy="-178" rx="56.59" ry="18"/>
<text text-anchor="middle" x="868.39" y="-174.3" font-family="Times,serif" font-size="14.00">label type</text>
</g>
<!-- exposure event to phenotypic feature association&#45;&gt;name -->
<g id="edge5" class="edge">
<title>exposure event to phenotypic feature association&#45;&gt;name</title>
<path fill="none" stroke="blue" d="M1769.02,-262.14C1529.12,-259.05 1174.41,-250.84 1039.39,-229 995.76,-221.94 947.56,-207.19 913.49,-195.52"/>
<polygon fill="blue" stroke="blue" points="914.42,-192.14 903.83,-192.17 912.13,-198.76 914.42,-192.14"/>
<text text-anchor="middle" x="1059.39" y="-217.8" font-family="Times,serif" font-size="14.00">name</text>
</g>
<!-- description -->
<g id="node7" class="node">
<title>description</title>
<ellipse fill="none" stroke="blue" cx="1018.39" cy="-178" rx="75.29" ry="18"/>
<text text-anchor="middle" x="1018.39" y="-174.3" font-family="Times,serif" font-size="14.00">narrative text</text>
</g>
<!-- exposure event to phenotypic feature association&#45;&gt;description -->
<g id="edge6" class="edge">
<title>exposure event to phenotypic feature association&#45;&gt;description</title>
<path fill="none" stroke="blue" d="M1777.35,-259.54C1537.99,-254.13 1187.89,-243.83 1126.39,-229 1101.14,-222.91 1074.64,-210.74 1054.21,-199.93"/>
<polygon fill="blue" stroke="blue" points="1055.73,-196.78 1045.27,-195.09 1052.4,-202.93 1055.73,-196.78"/>
<text text-anchor="middle" x="1166.89" y="-217.8" font-family="Times,serif" font-size="14.00">description</text>
</g>
<!-- source -->
<g id="node8" class="node">
<title>source</title>
<ellipse fill="none" stroke="blue" cx="1150.39" cy="-178" rx="38.19" ry="18"/>
<text text-anchor="middle" x="1150.39" y="-174.3" font-family="Times,serif" font-size="14.00">string</text>
</g>
<!-- exposure event to phenotypic feature association&#45;&gt;source -->
<g id="edge7" class="edge">
<title>exposure event to phenotypic feature association&#45;&gt;source</title>
<path fill="none" stroke="blue" d="M1766.19,-264.02C1581.42,-261.97 1341.82,-254.22 1247.39,-229 1223.33,-222.57 1198.39,-209.56 1179.83,-198.42"/>
<polygon fill="blue" stroke="blue" points="1181.62,-195.4 1171.27,-193.14 1177.94,-201.36 1181.62,-195.4"/>
<text text-anchor="middle" x="1271.39" y="-217.8" font-family="Times,serif" font-size="14.00">source</text>
</g>
<!-- has attribute -->
<g id="node9" class="node">
<title>has attribute</title>
<ellipse fill="none" stroke="blue" cx="1258.39" cy="-178" rx="51.99" ry="18"/>
<text text-anchor="middle" x="1258.39" y="-174.3" font-family="Times,serif" font-size="14.00">attribute</text>
</g>
<!-- exposure event to phenotypic feature association&#45;&gt;has attribute -->
<g id="edge8" class="edge">
<title>exposure event to phenotypic feature association&#45;&gt;has attribute</title>
<path fill="none" stroke="blue" d="M1779.92,-258.89C1598.69,-253.69 1367.58,-244.22 1325.39,-229 1309.42,-223.24 1294.05,-212.3 1282.07,-202.12"/>
<polygon fill="blue" stroke="blue" points="1284.16,-199.29 1274.36,-195.26 1279.51,-204.52 1284.16,-199.29"/>
<text text-anchor="middle" x="1372.39" y="-217.8" font-family="Times,serif" font-size="14.00">has attribute</text>
</g>
<!-- predicate -->
<g id="node10" class="node">
<title>predicate</title>
<ellipse fill="none" stroke="blue" cx="1406.39" cy="-178" rx="77.99" ry="18"/>
<text text-anchor="middle" x="1406.39" y="-174.3" font-family="Times,serif" font-size="14.00">predicate type</text>
</g>
<!-- exposure event to phenotypic feature association&#45;&gt;predicate -->
<g id="edge9" class="edge">
<title>exposure event to phenotypic feature association&#45;&gt;predicate</title>
<path fill="none" stroke="blue" d="M1776.86,-259.64C1632.56,-255.2 1467.94,-246.37 1438.39,-229 1429.16,-223.57 1422.15,-214.31 1417.08,-205.23"/>
<polygon fill="blue" stroke="blue" points="1420.08,-203.39 1412.49,-195.99 1413.81,-206.5 1420.08,-203.39"/>
<text text-anchor="middle" x="1472.39" y="-217.8" font-family="Times,serif" font-size="14.00">predicate</text>
</g>
<!-- object -->
<g id="node11" class="node">
<title>object</title>
<ellipse fill="none" stroke="blue" cx="3393.39" cy="-91" rx="69.59" ry="18"/>
<text text-anchor="middle" x="3393.39" y="-87.3" font-family="Times,serif" font-size="14.00">named thing</text>
</g>
<!-- exposure event to phenotypic feature association&#45;&gt;object -->
<g id="edge10" class="edge">
<title>exposure event to phenotypic feature association&#45;&gt;object</title>
<path fill="none" stroke="blue" d="M1777.84,-259.45C1672.1,-252 1562.45,-234.74 1529.39,-196 1519.01,-183.83 1518.29,-171.52 1529.39,-160 1592.17,-94.89 2965.22,-91.64 3313.6,-91.86"/>
<polygon fill="blue" stroke="blue" points="3313.85,-95.36 3323.85,-91.87 3313.85,-88.36 3313.85,-95.36"/>
<text text-anchor="middle" x="1551.39" y="-174.3" font-family="Times,serif" font-size="14.00">object</text>
</g>
<!-- negated -->
<g id="node12" class="node">
<title>negated</title>
<ellipse fill="none" stroke="blue" cx="1629.39" cy="-178" rx="46.59" ry="18"/>
<text text-anchor="middle" x="1629.39" y="-174.3" font-family="Times,serif" font-size="14.00">boolean</text>
</g>
<!-- exposure event to phenotypic feature association&#45;&gt;negated -->
<g id="edge11" class="edge">
<title>exposure event to phenotypic feature association&#45;&gt;negated</title>
<path fill="none" stroke="blue" d="M1897.28,-248.94C1863.8,-243.53 1826.91,-236.81 1793.39,-229 1744.1,-217.52 1732.8,-210.81 1684.39,-196 1681.09,-194.99 1677.68,-193.94 1674.25,-192.89"/>
<polygon fill="blue" stroke="blue" points="1675.18,-189.51 1664.59,-189.91 1673.12,-196.2 1675.18,-189.51"/>
<text text-anchor="middle" x="1822.39" y="-217.8" font-family="Times,serif" font-size="14.00">negated</text>
</g>
<!-- qualifiers -->
<g id="node13" class="node">
<title>qualifiers</title>
<ellipse fill="none" stroke="blue" cx="1770.39" cy="-178" rx="76.89" ry="18"/>
<text text-anchor="middle" x="1770.39" y="-174.3" font-family="Times,serif" font-size="14.00">ontology class</text>
</g>
<!-- exposure event to phenotypic feature association&#45;&gt;qualifiers -->
<g id="edge12" class="edge">
<title>exposure event to phenotypic feature association&#45;&gt;qualifiers</title>
<path fill="none" stroke="blue" d="M1947.93,-247.51C1929.73,-241.98 1909.61,-235.54 1891.39,-229 1865.47,-219.69 1836.98,-207.99 1814.15,-198.25"/>
<polygon fill="blue" stroke="blue" points="1815.31,-194.94 1804.74,-194.2 1812.55,-201.37 1815.31,-194.94"/>
<text text-anchor="middle" x="1924.89" y="-217.8" font-family="Times,serif" font-size="14.00">qualifiers</text>
</g>
<!-- publications -->
<g id="node14" class="node">
<title>publications</title>
<ellipse fill="none" stroke="blue" cx="1927.39" cy="-178" rx="62.29" ry="18"/>
<text text-anchor="middle" x="1927.39" y="-174.3" font-family="Times,serif" font-size="14.00">publication</text>
</g>
<!-- exposure event to phenotypic feature association&#45;&gt;publications -->
<g id="edge13" class="edge">
<title>exposure event to phenotypic feature association&#45;&gt;publications</title>
<path fill="none" stroke="blue" d="M1989.61,-246.8C1978.15,-234.31 1962.48,-217.24 1949.74,-203.35"/>
<polygon fill="blue" stroke="blue" points="1951.96,-200.6 1942.62,-195.6 1946.81,-205.33 1951.96,-200.6"/>
<text text-anchor="middle" x="2015.39" y="-217.8" font-family="Times,serif" font-size="14.00">publications</text>
</g>
<!-- has evidence -->
<g id="node15" class="node">
<title>has evidence</title>
<ellipse fill="none" stroke="blue" cx="2083.39" cy="-178" rx="75.29" ry="18"/>
<text text-anchor="middle" x="2083.39" y="-174.3" font-family="Times,serif" font-size="14.00">evidence type</text>
</g>
<!-- exposure event to phenotypic feature association&#45;&gt;has evidence -->
<g id="edge14" class="edge">
<title>exposure event to phenotypic feature association&#45;&gt;has evidence</title>
<path fill="none" stroke="blue" d="M2039.6,-247.14C2047.48,-242.1 2055.32,-236.02 2061.39,-229 2067.22,-222.27 2071.73,-213.76 2075.11,-205.67"/>
<polygon fill="blue" stroke="blue" points="2078.44,-206.76 2078.68,-196.17 2071.88,-204.3 2078.44,-206.76"/>
<text text-anchor="middle" x="2117.89" y="-217.8" font-family="Times,serif" font-size="14.00">has evidence</text>
</g>
<!-- knowledge source -->
<g id="node16" class="node">
<title>knowledge source</title>
<ellipse fill="none" stroke="blue" cx="2285.39" cy="-178" rx="108.58" ry="18"/>
<text text-anchor="middle" x="2285.39" y="-174.3" font-family="Times,serif" font-size="14.00">information resource</text>
</g>
<!-- exposure event to phenotypic feature association&#45;&gt;knowledge source -->
<g id="edge15" class="edge">
<title>exposure event to phenotypic feature association&#45;&gt;knowledge source</title>
<path fill="none" stroke="blue" d="M2093.76,-248.26C2118.19,-243.04 2144.53,-236.58 2168.39,-229 2193.7,-220.96 2221.04,-209.44 2242.92,-199.49"/>
<polygon fill="blue" stroke="blue" points="2244.64,-202.56 2252.25,-195.19 2241.71,-196.2 2244.64,-202.56"/>
<text text-anchor="middle" x="2272.89" y="-217.8" font-family="Times,serif" font-size="14.00">knowledge source</text>
</g>
<!-- original knowledge source -->
<g id="node17" class="node">
<title>original knowledge source</title>
<ellipse fill="none" stroke="blue" cx="2520.39" cy="-178" rx="108.58" ry="18"/>
<text text-anchor="middle" x="2520.39" y="-174.3" font-family="Times,serif" font-size="14.00">information resource</text>
</g>
<!-- exposure event to phenotypic feature association&#45;&gt;original knowledge source -->
<g id="edge16" class="edge">
<title>exposure event to phenotypic feature association&#45;&gt;original knowledge source</title>
<path fill="none" stroke="blue" d="M2173.27,-252.12C2227.23,-246.81 2287.09,-239.34 2341.39,-229 2383.12,-221.06 2429.25,-208.07 2464.24,-197.31"/>
<polygon fill="blue" stroke="blue" points="2465.28,-200.66 2473.8,-194.35 2463.21,-193.97 2465.28,-200.66"/>
<text text-anchor="middle" x="2500.39" y="-217.8" font-family="Times,serif" font-size="14.00">original knowledge source</text>
</g>
<!-- primary knowledge source -->
<g id="node18" class="node">
<title>primary knowledge source</title>
<ellipse fill="none" stroke="blue" cx="2755.39" cy="-178" rx="108.58" ry="18"/>
<text text-anchor="middle" x="2755.39" y="-174.3" font-family="Times,serif" font-size="14.00">information resource</text>
</g>
<!-- exposure event to phenotypic feature association&#45;&gt;primary knowledge source -->
<g id="edge17" class="edge">
<title>exposure event to phenotypic feature association&#45;&gt;primary knowledge source</title>
<path fill="none" stroke="blue" d="M2173.47,-252.16C2200.52,-250.36 2228.23,-248.58 2254.39,-247 2407.21,-237.79 2447.78,-256.45 2598.39,-229 2635.22,-222.29 2675.41,-209.38 2705.91,-198.36"/>
<polygon fill="blue" stroke="blue" points="2707.27,-201.58 2715.46,-194.85 2704.86,-195.01 2707.27,-201.58"/>
<text text-anchor="middle" x="2751.39" y="-217.8" font-family="Times,serif" font-size="14.00">primary knowledge source</text>
</g>
<!-- aggregator knowledge source -->
<g id="node19" class="node">
<title>aggregator knowledge source</title>
<ellipse fill="none" stroke="blue" cx="2990.39" cy="-178" rx="108.58" ry="18"/>
<text text-anchor="middle" x="2990.39" y="-174.3" font-family="Times,serif" font-size="14.00">information resource</text>
</g>
<!-- exposure event to phenotypic feature association&#45;&gt;aggregator knowledge source -->
<g id="edge18" class="edge">
<title>exposure event to phenotypic feature association&#45;&gt;aggregator knowledge source</title>
<path fill="none" stroke="blue" d="M2169.75,-251.89C2197.97,-250.07 2227.02,-248.35 2254.39,-247 2386.74,-240.49 2720.19,-253.58 2850.39,-229 2883.15,-222.82 2918.48,-210.15 2945.46,-199.11"/>
<polygon fill="blue" stroke="blue" points="2947.12,-202.21 2955,-195.13 2944.42,-195.75 2947.12,-202.21"/>
<text text-anchor="middle" x="3012.89" y="-217.8" font-family="Times,serif" font-size="14.00">aggregator knowledge source</text>
</g>
<!-- timepoint -->
<g id="node20" class="node">
<title>timepoint</title>
<ellipse fill="none" stroke="blue" cx="3172.39" cy="-178" rx="55.49" ry="18"/>
<text text-anchor="middle" x="3172.39" y="-174.3" font-family="Times,serif" font-size="14.00">time type</text>
</g>
<!-- exposure event to phenotypic feature association&#45;&gt;timepoint -->
<g id="edge19" class="edge">
<title>exposure event to phenotypic feature association&#45;&gt;timepoint</title>
<path fill="none" stroke="blue" d="M2168.07,-251.78C2196.82,-249.94 2226.47,-248.24 2254.39,-247 2302.63,-244.85 3079.07,-248.16 3123.39,-229 3135.77,-223.65 3146.62,-213.55 3154.95,-203.81"/>
<polygon fill="blue" stroke="blue" points="3157.81,-205.84 3161.32,-195.84 3152.34,-201.46 3157.81,-205.84"/>
<text text-anchor="middle" x="3180.39" y="-217.8" font-family="Times,serif" font-size="14.00">timepoint</text>
</g>
<!-- type -->
<g id="node21" class="node">
<title>type</title>
<ellipse fill="none" stroke="black" cx="3276.39" cy="-178" rx="31.4" ry="18"/>
<text text-anchor="middle" x="3276.39" y="-174.3" font-family="Times,serif" font-size="14.00">type</text>
</g>
<!-- exposure event to phenotypic feature association&#45;&gt;type -->
<g id="edge20" class="edge">
<title>exposure event to phenotypic feature association&#45;&gt;type</title>
<path fill="none" stroke="blue" d="M2167.73,-251.75C2196.58,-249.91 2226.36,-248.22 2254.39,-247 2307.96,-244.67 3169.39,-248.36 3219.39,-229 3233.68,-223.47 3246.75,-212.64 3256.76,-202.47"/>
<polygon fill="blue" stroke="blue" points="3259.54,-204.62 3263.79,-194.92 3254.42,-199.85 3259.54,-204.62"/>
<text text-anchor="middle" x="3260.39" y="-217.8" font-family="Times,serif" font-size="14.00">type</text>
</g>
<!-- category -->
<g id="node23" class="node">
<title>category</title>
<ellipse fill="none" stroke="black" cx="3377.39" cy="-178" rx="51.19" ry="18"/>
<text text-anchor="middle" x="3377.39" y="-174.3" font-family="Times,serif" font-size="14.00">category</text>
</g>
<!-- exposure event to phenotypic feature association&#45;&gt;category -->
<g id="edge21" class="edge">
<title>exposure event to phenotypic feature association&#45;&gt;category</title>
<path fill="none" stroke="blue" d="M2167.4,-251.75C2196.35,-249.9 2226.26,-248.21 2254.39,-247 2368.31,-242.12 3169.83,-256.85 3280.39,-229 3303.92,-223.07 3328.18,-210.57 3346.55,-199.55"/>
<polygon fill="blue" stroke="blue" points="3348.4,-202.52 3355.07,-194.29 3344.72,-196.56 3348.4,-202.52"/>
<text text-anchor="middle" x="3351.89" y="-217.8" font-family="Times,serif" font-size="14.00">category</text>
</g>
<!-- subject -->
<g id="node25" class="node">
<title>subject</title>
<ellipse fill="none" stroke="black" cx="3491.39" cy="-178" rx="44.39" ry="18"/>
<text text-anchor="middle" x="3491.39" y="-174.3" font-family="Times,serif" font-size="14.00">subject</text>
</g>
<!-- exposure event to phenotypic feature association&#45;&gt;subject -->
<g id="edge22" class="edge">
<title>exposure event to phenotypic feature association&#45;&gt;subject</title>
<path fill="none" stroke="blue" d="M2167.06,-251.73C2196.12,-249.87 2226.15,-248.19 2254.39,-247 2380.19,-241.71 3264.86,-257.95 3387.39,-229 3413.09,-222.93 3439.9,-209.85 3459.86,-198.6"/>
<polygon fill="blue" stroke="blue" points="3461.62,-201.62 3468.52,-193.58 3458.11,-195.56 3461.62,-201.62"/>
<text text-anchor="middle" x="3455.39" y="-217.8" font-family="Times,serif" font-size="14.00">subject</text>
</g>
<!-- frequency qualifier -->
<g id="node27" class="node">
<title>frequency qualifier</title>
<ellipse fill="none" stroke="blue" cx="3638.39" cy="-178" rx="85.29" ry="18"/>
<text text-anchor="middle" x="3638.39" y="-174.3" font-family="Times,serif" font-size="14.00">frequency value</text>
</g>
<!-- exposure event to phenotypic feature association&#45;&gt;frequency qualifier -->
<g id="edge23" class="edge">
<title>exposure event to phenotypic feature association&#45;&gt;frequency qualifier</title>
<path fill="none" stroke="blue" d="M2167.06,-251.7C2196.12,-249.85 2226.15,-248.17 2254.39,-247 2391.07,-241.34 3350.47,-251.5 3485.39,-229 3522.45,-222.82 3562.79,-209.34 3592.74,-197.93"/>
<polygon fill="blue" stroke="blue" points="3594.02,-201.19 3602.08,-194.31 3591.49,-194.66 3594.02,-201.19"/>
<text text-anchor="middle" x="3613.39" y="-217.8" font-family="Times,serif" font-size="14.00">frequency qualifier</text>
</g>
<!-- severity qualifier -->
<g id="node28" class="node">
<title>severity qualifier</title>
<ellipse fill="none" stroke="blue" cx="3817.39" cy="-178" rx="76.09" ry="18"/>
<text text-anchor="middle" x="3817.39" y="-174.3" font-family="Times,serif" font-size="14.00">severity value</text>
</g>
<!-- exposure event to phenotypic feature association&#45;&gt;severity qualifier -->
<g id="edge24" class="edge">
<title>exposure event to phenotypic feature association&#45;&gt;severity qualifier</title>
<path fill="none" stroke="blue" d="M2166.72,-251.67C2195.89,-249.82 2226.04,-248.15 2254.39,-247 2413.28,-240.58 3529.16,-258.61 3685.39,-229 3717.1,-222.99 3751.11,-209.93 3776.67,-198.67"/>
<polygon fill="blue" stroke="blue" points="3778.34,-201.76 3786.03,-194.46 3775.47,-195.37 3778.34,-201.76"/>
<text text-anchor="middle" x="3799.39" y="-217.8" font-family="Times,serif" font-size="14.00">severity qualifier</text>
</g>
<!-- onset qualifier -->
<g id="node29" class="node">
<title>onset qualifier</title>
<ellipse fill="none" stroke="blue" cx="3947.39" cy="-178" rx="36.29" ry="18"/>
<text text-anchor="middle" x="3947.39" y="-174.3" font-family="Times,serif" font-size="14.00">onset</text>
</g>
<!-- exposure event to phenotypic feature association&#45;&gt;onset qualifier -->
<g id="edge25" class="edge">
<title>exposure event to phenotypic feature association&#45;&gt;onset qualifier</title>
<path fill="none" stroke="blue" d="M2166.39,-251.66C2195.66,-249.8 2225.93,-248.13 2254.39,-247 2343.77,-243.45 3778.35,-253.43 3864.39,-229 3885.01,-223.15 3905.67,-210.73 3921.21,-199.74"/>
<polygon fill="blue" stroke="blue" points="3923.29,-202.56 3929.29,-193.83 3919.15,-196.91 3923.29,-202.56"/>
<text text-anchor="middle" x="3949.89" y="-217.8" font-family="Times,serif" font-size="14.00">onset qualifier</text>
</g>
<!-- sex qualifier -->
<g id="node30" class="node">
<title>sex qualifier</title>
<ellipse fill="none" stroke="blue" cx="4075.39" cy="-178" rx="73.39" ry="18"/>
<text text-anchor="middle" x="4075.39" y="-174.3" font-family="Times,serif" font-size="14.00">biological sex</text>
</g>
<!-- exposure event to phenotypic feature association&#45;&gt;sex qualifier -->
<g id="edge26" class="edge">
<title>exposure event to phenotypic feature association&#45;&gt;sex qualifier</title>
<path fill="none" stroke="blue" d="M2166.06,-251.66C2195.43,-249.79 2225.82,-248.12 2254.39,-247 2303,-245.09 3959.15,-244.08 4005.39,-229 4022.05,-223.57 4038.14,-212.62 4050.68,-202.34"/>
<polygon fill="blue" stroke="blue" points="4053.06,-204.91 4058.39,-195.75 4048.51,-199.6 4053.06,-204.91"/>
<text text-anchor="middle" x="4078.39" y="-217.8" font-family="Times,serif" font-size="14.00">sex qualifier</text>
</g>
<!-- relation -->
<g id="node31" class="node">
<title>relation</title>
<ellipse fill="none" stroke="black" cx="3442.39" cy="-18" rx="46.59" ry="18"/>
<text text-anchor="middle" x="3442.39" y="-14.3" font-family="Times,serif" font-size="14.00">relation</text>
</g>
<!-- object&#45;&gt;relation -->
<g id="edge29" class="edge">
<title>object&#45;&gt;relation</title>
<path fill="none" stroke="black" stroke-dasharray="1,5" d="M3405.01,-73.17C3410.99,-64.51 3418.4,-53.77 3425.04,-44.14"/>
<polygon fill="black" stroke="black" points="3428.07,-45.92 3430.87,-35.71 3422.3,-41.95 3428.07,-45.92"/>
</g>
<!-- association_type -->
<g id="node22" class="node">
<title>association_type</title>
<ellipse fill="none" stroke="blue" cx="2301.39" cy="-265" rx="38.19" ry="18"/>
<text text-anchor="middle" x="2301.39" y="-261.3" font-family="Times,serif" font-size="14.00">string</text>
</g>
<!-- association_category -->
<g id="node24" class="node">
<title>association_category</title>
<ellipse fill="none" stroke="blue" cx="2432.39" cy="-265" rx="74.99" ry="18"/>
<text text-anchor="middle" x="2432.39" y="-261.3" font-family="Times,serif" font-size="14.00">category type</text>
</g>
<!-- subject&#45;&gt;object -->
<g id="edge27" class="edge">
<title>subject&#45;&gt;object</title>
<path fill="none" stroke="black" d="M3458.9,-165.59C3446.13,-159.94 3432.01,-152.13 3421.39,-142 3414.39,-135.31 3408.66,-126.48 3404.25,-118.1"/>
<polygon fill="black" stroke="black" points="3407.34,-116.45 3399.84,-108.97 3401.04,-119.5 3407.34,-116.45"/>
<text text-anchor="middle" x="3449.39" y="-130.8" font-family="Times,serif" font-size="14.00">relation</text>
</g>
<!-- subject&#45;&gt;relation -->
<g id="edge28" class="edge">
<title>subject&#45;&gt;relation</title>
<path fill="none" stroke="black" stroke-dasharray="1,5" d="M3490,-159.99C3487.9,-139.02 3482.98,-102.55 3472.39,-73 3468.91,-63.26 3463.79,-53.19 3458.76,-44.42"/>
<polygon fill="black" stroke="black" points="3461.76,-42.62 3453.63,-35.83 3455.75,-46.21 3461.76,-42.62"/>
</g>
<!-- exposure event to phenotypic feature association_subject -->
<g id="node26" class="node">
<title>exposure event to phenotypic feature association_subject</title>
<ellipse fill="none" stroke="blue" cx="2607.39" cy="-265" rx="81.79" ry="18"/>
<text text-anchor="middle" x="2607.39" y="-261.3" font-family="Times,serif" font-size="14.00">exposure event</text>
</g>
</g>
</svg>
