<?xml version="1.0" encoding="UTF-8" standalone="no"?>
<!DOCTYPE svg PUBLIC "-//W3C//DTD SVG 1.1//EN"
 "http://www.w3.org/Graphics/SVG/1.1/DTD/svg11.dtd">
<!-- Generated by graphviz version 2.40.1 (20161225.0304)
 -->
<!-- Title: %3 Pages: 1 -->
<svg width="468pt" height="131pt"
 viewBox="0.00 0.00 467.74 131.00" xmlns="http://www.w3.org/2000/svg" xmlns:xlink="http://www.w3.org/1999/xlink">
<g id="graph0" class="graph" transform="scale(1 1) rotate(0) translate(4 127)">
<title>%3</title>
<polygon fill="#ffffff" stroke="transparent" points="-4,4 -4,-127 463.7388,-127 463.7388,4 -4,4"/>
<!-- exposure event -->
<g id="node1" class="node">
<title>exposure event</title>
<ellipse fill="none" stroke="#000000" cx="232.2439" cy="-105" rx="63.8893" ry="18"/>
<text text-anchor="middle" x="232.2439" y="-101.3" font-family="Times,serif" font-size="14.00" fill="#000000">exposure event</text>
</g>
<!-- biological entity -->
<g id="node2" class="node">
<title>biological entity</title>
<ellipse fill="none" stroke="#000000" cx="68.2439" cy="-18" rx="68.4888" ry="18"/>
<text text-anchor="middle" x="68.2439" y="-14.3" font-family="Times,serif" font-size="14.00" fill="#000000">biological entity</text>
</g>
<!-- exposure event&#45;&gt;biological entity -->
<g id="edge1" class="edge">
<title>exposure event&#45;&gt;biological entity</title>
<path fill="none" stroke="#000000" d="M202.1638,-89.0429C175.6296,-74.9668 136.7737,-54.3542 107.7415,-38.953"/>
<polygon fill="#000000" stroke="#000000" points="109.1629,-35.7451 98.6888,-34.1506 105.8825,-41.9288 109.1629,-35.7451"/>
<text text-anchor="middle" x="171.2439" y="-57.8" font-family="Times,serif" font-size="14.00" fill="#000000">is_a</text>
</g>
<!-- id -->
<g id="node3" class="node">
<title>id</title>
<ellipse fill="none" stroke="#0000ff" cx="185.2439" cy="-18" rx="30.5947" ry="18"/>
<text text-anchor="middle" x="185.2439" y="-14.3" font-family="Times,serif" font-size="14.00" fill="#000000">string</text>
</g>
<!-- exposure event&#45;&gt;id -->
<g id="edge2" class="edge">
<title>exposure event&#45;&gt;id</title>
<path fill="none" stroke="#0000ff" d="M222.5055,-86.9735C215.8642,-74.6801 206.9588,-58.1956 199.5194,-44.4249"/>
<polygon fill="#0000ff" stroke="#0000ff" points="202.4817,-42.5443 194.6492,-35.4097 196.3229,-45.8715 202.4817,-42.5443"/>
<text text-anchor="middle" x="217.7439" y="-57.8" font-family="Times,serif" font-size="14.00" fill="#000000">id</text>
</g>
<!-- name -->
<g id="node4" class="node">
<title>name</title>
<ellipse fill="none" stroke="#0000ff" cx="279.2439" cy="-18" rx="45.4919" ry="18"/>
<text text-anchor="middle" x="279.2439" y="-14.3" font-family="Times,serif" font-size="14.00" fill="#000000">label type</text>
</g>
<!-- exposure event&#45;&gt;name -->
<g id="edge3" class="edge">
<title>exposure event&#45;&gt;name</title>
<path fill="none" stroke="#0000ff" d="M241.9824,-86.9735C248.58,-74.7609 257.412,-58.4123 264.8214,-44.697"/>
<polygon fill="#0000ff" stroke="#0000ff" points="268.0051,-46.1675 269.6788,-35.7057 261.8463,-42.8403 268.0051,-46.1675"/>
<text text-anchor="middle" x="274.7439" y="-57.8" font-family="Times,serif" font-size="14.00" fill="#000000">name</text>
</g>
<!-- category -->
<g id="node5" class="node">
<title>category</title>
<ellipse fill="none" stroke="#0000ff" cx="401.2439" cy="-18" rx="58.4896" ry="18"/>
<text text-anchor="middle" x="401.2439" y="-14.3" font-family="Times,serif" font-size="14.00" fill="#000000">category type</text>
</g>
<!-- exposure event&#45;&gt;category -->
<g id="edge4" class="edge">
<title>exposure event&#45;&gt;category</title>
<path fill="none" stroke="#0000ff" d="M263.2411,-89.0429C291.0482,-74.728 331.9868,-53.6531 362.0557,-38.1738"/>
<polygon fill="#0000ff" stroke="#0000ff" points="363.7228,-41.2522 371.0119,-33.5633 360.5188,-35.0285 363.7228,-41.2522"/>
<text text-anchor="middle" x="350.7439" y="-57.8" font-family="Times,serif" font-size="14.00" fill="#000000">category</text>
</g>
</g>
</svg>
