<?xml version="1.0" encoding="UTF-8" standalone="no"?>
<!DOCTYPE svg PUBLIC "-//W3C//DTD SVG 1.1//EN"
 "http://www.w3.org/Graphics/SVG/1.1/DTD/svg11.dtd">
<!-- Generated by graphviz version 2.43.0 (0)
 -->
<!-- Title: %3 Pages: 1 -->
<svg width="3087pt" height="291pt"
 viewBox="0.00 0.00 3086.84 291.00" xmlns="http://www.w3.org/2000/svg" xmlns:xlink="http://www.w3.org/1999/xlink">
<g id="graph0" class="graph" transform="scale(1 1) rotate(0) translate(4 287)">
<title>%3</title>
<polygon fill="white" stroke="transparent" points="-4,4 -4,-287 3082.84,-287 3082.84,4 -4,4"/>
<!-- exposure event to phenotypic feature association -->
<g id="node1" class="node">
<title>exposure event to phenotypic feature association</title>
<ellipse fill="none" stroke="black" cx="1664.39" cy="-265" rx="239.36" ry="18"/>
<text text-anchor="middle" x="1664.39" y="-261.3" font-family="Times,serif" font-size="14.00">exposure event to phenotypic feature association</text>
</g>
<!-- association -->
<g id="node2" class="node">
<title>association</title>
<ellipse fill="none" stroke="black" cx="62.39" cy="-178" rx="62.29" ry="18"/>
<text text-anchor="middle" x="62.39" y="-174.3" font-family="Times,serif" font-size="14.00">association</text>
</g>
<!-- exposure event to phenotypic feature association&#45;&gt;association -->
<g id="edge1" class="edge">
<title>exposure event to phenotypic feature association&#45;&gt;association</title>
<path fill="none" stroke="black" d="M1435.99,-259.63C1214.2,-254.7 868.04,-245.17 568.39,-229 375.23,-218.58 325.55,-225.65 134.39,-196 128.7,-195.12 122.8,-194.02 116.92,-192.82"/>
<polygon fill="black" stroke="black" points="117.63,-189.39 107.12,-190.7 116.16,-196.23 117.63,-189.39"/>
<text text-anchor="middle" x="582.39" y="-217.8" font-family="Times,serif" font-size="14.00">is_a</text>
</g>
<!-- entity to phenotypic feature association mixin -->
<g id="node3" class="node">
<title>entity to phenotypic feature association mixin</title>
<ellipse fill="none" stroke="black" cx="367.39" cy="-178" rx="224.46" ry="18"/>
<text text-anchor="middle" x="367.39" y="-174.3" font-family="Times,serif" font-size="14.00">entity to phenotypic feature association mixin</text>
</g>
<!-- exposure event to phenotypic feature association&#45;&gt;entity to phenotypic feature association mixin -->
<g id="edge2" class="edge">
<title>exposure event to phenotypic feature association&#45;&gt;entity to phenotypic feature association mixin</title>
<path fill="none" stroke="black" d="M1429.11,-261.69C1239.79,-258.26 967.07,-249.81 729.39,-229 641.57,-221.31 542.42,-207.24 470.13,-195.97"/>
<polygon fill="black" stroke="black" points="470.53,-192.49 460.11,-194.4 469.44,-199.41 470.53,-192.49"/>
<text text-anchor="middle" x="745.89" y="-217.8" font-family="Times,serif" font-size="14.00">uses</text>
</g>
<!-- id -->
<g id="node4" class="node">
<title>id</title>
<ellipse fill="none" stroke="blue" cx="648.39" cy="-178" rx="38.19" ry="18"/>
<text text-anchor="middle" x="648.39" y="-174.3" font-family="Times,serif" font-size="14.00">string</text>
</g>
<!-- exposure event to phenotypic feature association&#45;&gt;id -->
<g id="edge3" class="edge">
<title>exposure event to phenotypic feature association&#45;&gt;id</title>
<path fill="none" stroke="blue" d="M1425.97,-263.48C1265.1,-260.72 1048.33,-252.32 858.39,-229 785.46,-220.05 767.2,-215.65 696.39,-196 693.29,-195.14 690.09,-194.17 686.89,-193.16"/>
<polygon fill="blue" stroke="blue" points="687.97,-189.83 677.38,-190 685.76,-196.47 687.97,-189.83"/>
<text text-anchor="middle" x="865.39" y="-217.8" font-family="Times,serif" font-size="14.00">id</text>
</g>
<!-- iri -->
<g id="node5" class="node">
<title>iri</title>
<ellipse fill="none" stroke="blue" cx="749.39" cy="-178" rx="44.39" ry="18"/>
<text text-anchor="middle" x="749.39" y="-174.3" font-family="Times,serif" font-size="14.00">iri type</text>
</g>
<!-- exposure event to phenotypic feature association&#45;&gt;iri -->
<g id="edge4" class="edge">
<title>exposure event to phenotypic feature association&#45;&gt;iri</title>
<path fill="none" stroke="blue" d="M1431.32,-260.86C1295.54,-256.9 1121.29,-248.15 967.39,-229 893.18,-219.77 874.78,-214.78 802.39,-196 799.02,-195.12 795.54,-194.16 792.06,-193.14"/>
<polygon fill="blue" stroke="blue" points="792.89,-189.74 782.3,-190.19 790.86,-196.44 792.89,-189.74"/>
<text text-anchor="middle" x="975.39" y="-217.8" font-family="Times,serif" font-size="14.00">iri</text>
</g>
<!-- name -->
<g id="node6" class="node">
<title>name</title>
<ellipse fill="none" stroke="blue" cx="868.39" cy="-178" rx="56.59" ry="18"/>
<text text-anchor="middle" x="868.39" y="-174.3" font-family="Times,serif" font-size="14.00">label type</text>
</g>
<!-- exposure event to phenotypic feature association&#45;&gt;name -->
<g id="edge5" class="edge">
<title>exposure event to phenotypic feature association&#45;&gt;name</title>
<path fill="none" stroke="blue" d="M1428.91,-261.75C1315.16,-257.8 1177.05,-248.79 1054.39,-229 1006.36,-221.25 952.85,-206.16 915.6,-194.57"/>
<polygon fill="blue" stroke="blue" points="916.6,-191.22 906.01,-191.56 914.5,-197.9 916.6,-191.22"/>
<text text-anchor="middle" x="1074.39" y="-217.8" font-family="Times,serif" font-size="14.00">name</text>
</g>
<!-- description -->
<g id="node7" class="node">
<title>description</title>
<ellipse fill="none" stroke="blue" cx="1018.39" cy="-178" rx="75.29" ry="18"/>
<text text-anchor="middle" x="1018.39" y="-174.3" font-family="Times,serif" font-size="14.00">narrative text</text>
</g>
<!-- exposure event to phenotypic feature association&#45;&gt;description -->
<g id="edge6" class="edge">
<title>exposure event to phenotypic feature association&#45;&gt;description</title>
<path fill="none" stroke="blue" d="M1453.45,-256.49C1335.59,-250.98 1201.13,-242.14 1143.39,-229 1113.92,-222.29 1082.32,-209.6 1058.27,-198.68"/>
<polygon fill="blue" stroke="blue" points="1059.66,-195.47 1049.11,-194.45 1056.72,-201.82 1059.66,-195.47"/>
<text text-anchor="middle" x="1183.89" y="-217.8" font-family="Times,serif" font-size="14.00">description</text>
</g>
<!-- source -->
<g id="node8" class="node">
<title>source</title>
<ellipse fill="none" stroke="blue" cx="1168.39" cy="-178" rx="56.59" ry="18"/>
<text text-anchor="middle" x="1168.39" y="-174.3" font-family="Times,serif" font-size="14.00">label type</text>
</g>
<!-- exposure event to phenotypic feature association&#45;&gt;source -->
<g id="edge7" class="edge">
<title>exposure event to phenotypic feature association&#45;&gt;source</title>
<path fill="none" stroke="blue" d="M1471.47,-254.35C1388.82,-248.74 1302.41,-240.46 1263.39,-229 1241.16,-222.47 1218.12,-210.49 1200.29,-199.89"/>
<polygon fill="blue" stroke="blue" points="1201.84,-196.73 1191.48,-194.51 1198.19,-202.71 1201.84,-196.73"/>
<text text-anchor="middle" x="1287.39" y="-217.8" font-family="Times,serif" font-size="14.00">source</text>
</g>
<!-- provided by -->
<g id="node9" class="node">
<title>provided by</title>
<ellipse fill="none" stroke="blue" cx="1280.39" cy="-178" rx="37.09" ry="18"/>
<text text-anchor="middle" x="1280.39" y="-174.3" font-family="Times,serif" font-size="14.00">agent</text>
</g>
<!-- exposure event to phenotypic feature association&#45;&gt;provided by -->
<g id="edge8" class="edge">
<title>exposure event to phenotypic feature association&#45;&gt;provided by</title>
<path fill="none" stroke="blue" d="M1478.1,-253.7C1419.71,-248.39 1363.67,-240.52 1337.39,-229 1323.56,-222.93 1310.68,-212.26 1300.67,-202.33"/>
<polygon fill="blue" stroke="blue" points="1303.06,-199.76 1293.61,-194.96 1298.01,-204.6 1303.06,-199.76"/>
<text text-anchor="middle" x="1379.89" y="-217.8" font-family="Times,serif" font-size="14.00">provided by</text>
</g>
<!-- has attribute -->
<g id="node10" class="node">
<title>has attribute</title>
<ellipse fill="none" stroke="blue" cx="1387.39" cy="-178" rx="51.99" ry="18"/>
<text text-anchor="middle" x="1387.39" y="-174.3" font-family="Times,serif" font-size="14.00">attribute</text>
</g>
<!-- exposure event to phenotypic feature association&#45;&gt;has attribute -->
<g id="edge9" class="edge">
<title>exposure event to phenotypic feature association&#45;&gt;has attribute</title>
<path fill="none" stroke="blue" d="M1519.6,-250.62C1495.87,-245.53 1472,-238.56 1450.39,-229 1435.91,-222.59 1421.88,-212.04 1410.76,-202.28"/>
<polygon fill="blue" stroke="blue" points="1412.96,-199.54 1403.21,-195.38 1408.23,-204.71 1412.96,-199.54"/>
<text text-anchor="middle" x="1497.39" y="-217.8" font-family="Times,serif" font-size="14.00">has attribute</text>
</g>
<!-- predicate -->
<g id="node11" class="node">
<title>predicate</title>
<ellipse fill="none" stroke="blue" cx="1535.39" cy="-178" rx="77.99" ry="18"/>
<text text-anchor="middle" x="1535.39" y="-174.3" font-family="Times,serif" font-size="14.00">predicate type</text>
</g>
<!-- exposure event to phenotypic feature association&#45;&gt;predicate -->
<g id="edge10" class="edge">
<title>exposure event to phenotypic feature association&#45;&gt;predicate</title>
<path fill="none" stroke="blue" d="M1590.55,-247.85C1579.27,-243.09 1568.4,-236.94 1559.39,-229 1552.44,-222.87 1547.32,-214.27 1543.64,-205.94"/>
<polygon fill="blue" stroke="blue" points="1546.83,-204.49 1539.96,-196.43 1540.31,-207.02 1546.83,-204.49"/>
<text text-anchor="middle" x="1593.39" y="-217.8" font-family="Times,serif" font-size="14.00">predicate</text>
</g>
<!-- object -->
<g id="node12" class="node">
<title>object</title>
<ellipse fill="none" stroke="blue" cx="2031.39" cy="-91" rx="69.59" ry="18"/>
<text text-anchor="middle" x="2031.39" y="-87.3" font-family="Times,serif" font-size="14.00">named thing</text>
</g>
<!-- exposure event to phenotypic feature association&#45;&gt;object -->
<g id="edge11" class="edge">
<title>exposure event to phenotypic feature association&#45;&gt;object</title>
<path fill="none" stroke="blue" d="M1664.58,-246.82C1665.81,-223.57 1671.62,-182.45 1696.39,-160 1733.78,-126.12 1869.26,-107.25 1956.06,-98.39"/>
<polygon fill="blue" stroke="blue" points="1956.53,-101.87 1966.13,-97.39 1955.83,-94.9 1956.53,-101.87"/>
<text text-anchor="middle" x="1718.39" y="-174.3" font-family="Times,serif" font-size="14.00">object</text>
</g>
<!-- relation -->
<g id="node13" class="node">
<title>relation</title>
<ellipse fill="none" stroke="blue" cx="2031.39" cy="-18" rx="38.19" ry="18"/>
<text text-anchor="middle" x="2031.39" y="-14.3" font-family="Times,serif" font-size="14.00">string</text>
</g>
<!-- exposure event to phenotypic feature association&#45;&gt;relation -->
<g id="edge12" class="edge">
<title>exposure event to phenotypic feature association&#45;&gt;relation</title>
<path fill="none" stroke="blue" d="M1659.2,-246.56C1651.89,-218.06 1642.35,-161.27 1670.39,-127 1710.65,-77.82 1897.77,-41.08 1985.62,-26.22"/>
<polygon fill="blue" stroke="blue" points="1986.28,-29.66 1995.57,-24.56 1985.13,-22.76 1986.28,-29.66"/>
<text text-anchor="middle" x="1698.39" y="-130.8" font-family="Times,serif" font-size="14.00">relation</text>
</g>
<!-- negated -->
<g id="node14" class="node">
<title>negated</title>
<ellipse fill="none" stroke="blue" cx="1796.39" cy="-178" rx="46.59" ry="18"/>
<text text-anchor="middle" x="1796.39" y="-174.3" font-family="Times,serif" font-size="14.00">boolean</text>
</g>
<!-- exposure event to phenotypic feature association&#45;&gt;negated -->
<g id="edge13" class="edge">
<title>exposure event to phenotypic feature association&#45;&gt;negated</title>
<path fill="none" stroke="blue" d="M1690.79,-247C1712.04,-233.32 1741.99,-214.03 1764.57,-199.49"/>
<polygon fill="blue" stroke="blue" points="1766.62,-202.33 1773.14,-193.98 1762.83,-196.45 1766.62,-202.33"/>
<text text-anchor="middle" x="1767.39" y="-217.8" font-family="Times,serif" font-size="14.00">negated</text>
</g>
<!-- qualifiers -->
<g id="node15" class="node">
<title>qualifiers</title>
<ellipse fill="none" stroke="blue" cx="1937.39" cy="-178" rx="76.89" ry="18"/>
<text text-anchor="middle" x="1937.39" y="-174.3" font-family="Times,serif" font-size="14.00">ontology class</text>
</g>
<!-- exposure event to phenotypic feature association&#45;&gt;qualifiers -->
<g id="edge14" class="edge">
<title>exposure event to phenotypic feature association&#45;&gt;qualifiers</title>
<path fill="none" stroke="blue" d="M1733.25,-247.67C1754.87,-242.18 1778.74,-235.72 1800.39,-229 1830.63,-219.62 1864.01,-207.47 1890.25,-197.5"/>
<polygon fill="blue" stroke="blue" points="1891.85,-200.64 1899.94,-193.8 1889.35,-194.1 1891.85,-200.64"/>
<text text-anchor="middle" x="1875.89" y="-217.8" font-family="Times,serif" font-size="14.00">qualifiers</text>
</g>
<!-- publications -->
<g id="node16" class="node">
<title>publications</title>
<ellipse fill="none" stroke="blue" cx="2094.39" cy="-178" rx="62.29" ry="18"/>
<text text-anchor="middle" x="2094.39" y="-174.3" font-family="Times,serif" font-size="14.00">publication</text>
</g>
<!-- exposure event to phenotypic feature association&#45;&gt;publications -->
<g id="edge15" class="edge">
<title>exposure event to phenotypic feature association&#45;&gt;publications</title>
<path fill="none" stroke="blue" d="M1789.7,-249.62C1829.44,-244.2 1873.43,-237.29 1913.39,-229 1958.04,-219.74 2007.92,-205.67 2044,-194.82"/>
<polygon fill="blue" stroke="blue" points="2045.24,-198.1 2053.79,-191.85 2043.2,-191.4 2045.24,-198.1"/>
<text text-anchor="middle" x="2018.39" y="-217.8" font-family="Times,serif" font-size="14.00">publications</text>
</g>
<!-- type -->
<g id="node17" class="node">
<title>type</title>
<ellipse fill="none" stroke="black" cx="2206.39" cy="-178" rx="31.4" ry="18"/>
<text text-anchor="middle" x="2206.39" y="-174.3" font-family="Times,serif" font-size="14.00">type</text>
</g>
<!-- exposure event to phenotypic feature association&#45;&gt;type -->
<g id="edge16" class="edge">
<title>exposure event to phenotypic feature association&#45;&gt;type</title>
<path fill="none" stroke="blue" d="M1840.1,-252.77C1927.64,-246.35 2023.73,-237.84 2066.39,-229 2104.15,-221.18 2145.51,-205.46 2173.42,-193.72"/>
<polygon fill="blue" stroke="blue" points="2174.88,-196.9 2182.7,-189.76 2172.13,-190.47 2174.88,-196.9"/>
<text text-anchor="middle" x="2134.39" y="-217.8" font-family="Times,serif" font-size="14.00">type</text>
</g>
<!-- category -->
<g id="node19" class="node">
<title>category</title>
<ellipse fill="none" stroke="black" cx="2307.39" cy="-178" rx="51.19" ry="18"/>
<text text-anchor="middle" x="2307.39" y="-174.3" font-family="Times,serif" font-size="14.00">category</text>
</g>
<!-- exposure event to phenotypic feature association&#45;&gt;category -->
<g id="edge17" class="edge">
<title>exposure event to phenotypic feature association&#45;&gt;category</title>
<path fill="none" stroke="blue" d="M1834.64,-252.32C1972.93,-242.76 2146.39,-230.57 2154.39,-229 2193,-221.43 2235.41,-207.07 2265.77,-195.67"/>
<polygon fill="blue" stroke="blue" points="2267.08,-198.92 2275.18,-192.09 2264.59,-192.38 2267.08,-198.92"/>
<text text-anchor="middle" x="2241.89" y="-217.8" font-family="Times,serif" font-size="14.00">category</text>
</g>
<!-- subject -->
<g id="node21" class="node">
<title>subject</title>
<ellipse fill="none" stroke="black" cx="2421.39" cy="-178" rx="44.39" ry="18"/>
<text text-anchor="middle" x="2421.39" y="-174.3" font-family="Times,serif" font-size="14.00">subject</text>
</g>
<!-- exposure event to phenotypic feature association&#45;&gt;subject -->
<g id="edge18" class="edge">
<title>exposure event to phenotypic feature association&#45;&gt;subject</title>
<path fill="none" stroke="blue" d="M1831.79,-252.14C1859.06,-250.33 1887.01,-248.55 1913.39,-247 2075.09,-237.48 2118.39,-259.88 2277.39,-229 2314.23,-221.85 2354.43,-207.28 2382.98,-195.71"/>
<polygon fill="blue" stroke="blue" points="2384.65,-198.8 2392.56,-191.75 2381.98,-192.33 2384.65,-198.8"/>
<text text-anchor="middle" x="2356.39" y="-217.8" font-family="Times,serif" font-size="14.00">subject</text>
</g>
<!-- frequency qualifier -->
<g id="node23" class="node">
<title>frequency qualifier</title>
<ellipse fill="none" stroke="blue" cx="2568.39" cy="-178" rx="85.29" ry="18"/>
<text text-anchor="middle" x="2568.39" y="-174.3" font-family="Times,serif" font-size="14.00">frequency value</text>
</g>
<!-- exposure event to phenotypic feature association&#45;&gt;frequency qualifier -->
<g id="edge19" class="edge">
<title>exposure event to phenotypic feature association&#45;&gt;frequency qualifier</title>
<path fill="none" stroke="blue" d="M1830.1,-251.99C1857.9,-250.17 1886.46,-248.43 1913.39,-247 2123.47,-235.83 2178.48,-261.08 2386.39,-229 2430.95,-222.13 2480.17,-208.2 2516.18,-196.79"/>
<polygon fill="blue" stroke="blue" points="2517.52,-200.03 2525.97,-193.64 2515.38,-193.37 2517.52,-200.03"/>
<text text-anchor="middle" x="2520.39" y="-217.8" font-family="Times,serif" font-size="14.00">frequency qualifier</text>
</g>
<!-- severity qualifier -->
<g id="node24" class="node">
<title>severity qualifier</title>
<ellipse fill="none" stroke="blue" cx="2747.39" cy="-178" rx="76.09" ry="18"/>
<text text-anchor="middle" x="2747.39" y="-174.3" font-family="Times,serif" font-size="14.00">severity value</text>
</g>
<!-- exposure event to phenotypic feature association&#45;&gt;severity qualifier -->
<g id="edge20" class="edge">
<title>exposure event to phenotypic feature association&#45;&gt;severity qualifier</title>
<path fill="none" stroke="blue" d="M1828.08,-251.85C1856.51,-250.02 1885.8,-248.31 1913.39,-247 2064.17,-239.86 2443.61,-254.43 2592.39,-229 2630.12,-222.55 2671.28,-208.95 2701.7,-197.55"/>
<polygon fill="blue" stroke="blue" points="2703.08,-200.77 2711.18,-193.94 2700.59,-194.23 2703.08,-200.77"/>
<text text-anchor="middle" x="2714.39" y="-217.8" font-family="Times,serif" font-size="14.00">severity qualifier</text>
</g>
<!-- onset qualifier -->
<g id="node25" class="node">
<title>onset qualifier</title>
<ellipse fill="none" stroke="blue" cx="2877.39" cy="-178" rx="36.29" ry="18"/>
<text text-anchor="middle" x="2877.39" y="-174.3" font-family="Times,serif" font-size="14.00">onset</text>
</g>
<!-- exposure event to phenotypic feature association&#45;&gt;onset qualifier -->
<g id="edge21" class="edge">
<title>exposure event to phenotypic feature association&#45;&gt;onset qualifier</title>
<path fill="none" stroke="blue" d="M1827.07,-251.78C1855.82,-249.94 1885.47,-248.24 1913.39,-247 2009.54,-242.72 2686.06,-252.46 2779.39,-229 2803.91,-222.84 2829.27,-209.68 2848.05,-198.41"/>
<polygon fill="blue" stroke="blue" points="2850.03,-201.3 2856.71,-193.07 2846.36,-195.34 2850.03,-201.3"/>
<text text-anchor="middle" x="2870.89" y="-217.8" font-family="Times,serif" font-size="14.00">onset qualifier</text>
</g>
<!-- sex qualifier -->
<g id="node26" class="node">
<title>sex qualifier</title>
<ellipse fill="none" stroke="blue" cx="3005.39" cy="-178" rx="73.39" ry="18"/>
<text text-anchor="middle" x="3005.39" y="-174.3" font-family="Times,serif" font-size="14.00">biological sex</text>
</g>
<!-- exposure event to phenotypic feature association&#45;&gt;sex qualifier -->
<g id="edge22" class="edge">
<title>exposure event to phenotypic feature association&#45;&gt;sex qualifier</title>
<path fill="none" stroke="blue" d="M1826.4,-251.75C1855.35,-249.9 1885.26,-248.21 1913.39,-247 1969.63,-244.58 2872.47,-245.15 2926.39,-229 2945.11,-223.39 2963.69,-212 2978.13,-201.51"/>
<polygon fill="blue" stroke="blue" points="2980.24,-204.3 2986.12,-195.49 2976.03,-198.71 2980.24,-204.3"/>
<text text-anchor="middle" x="3002.39" y="-217.8" font-family="Times,serif" font-size="14.00">sex qualifier</text>
</g>
<!-- object&#45;&gt;relation -->
<g id="edge25" class="edge">
<title>object&#45;&gt;relation</title>
<path fill="none" stroke="black" stroke-dasharray="1,5" d="M2031.39,-72.81C2031.39,-64.79 2031.39,-55.05 2031.39,-46.07"/>
<polygon fill="black" stroke="black" points="2034.89,-46.03 2031.39,-36.03 2027.89,-46.03 2034.89,-46.03"/>
</g>
<!-- association_type -->
<g id="node18" class="node">
<title>association_type</title>
<ellipse fill="none" stroke="blue" cx="1960.39" cy="-265" rx="38.19" ry="18"/>
<text text-anchor="middle" x="1960.39" y="-261.3" font-family="Times,serif" font-size="14.00">string</text>
</g>
<!-- association_category -->
<g id="node20" class="node">
<title>association_category</title>
<ellipse fill="none" stroke="blue" cx="2091.39" cy="-265" rx="74.99" ry="18"/>
<text text-anchor="middle" x="2091.39" y="-261.3" font-family="Times,serif" font-size="14.00">category type</text>
</g>
<!-- subject&#45;&gt;object -->
<g id="edge23" class="edge">
<title>subject&#45;&gt;object</title>
<path fill="none" stroke="black" d="M2388.83,-165.63C2381.82,-163.5 2374.41,-161.48 2367.39,-160 2296.51,-145.05 2276.46,-156.05 2205.39,-142 2163.02,-133.62 2115.99,-119.83 2081.52,-108.85"/>
<polygon fill="black" stroke="black" points="2082.29,-105.42 2071.7,-105.69 2080.15,-112.08 2082.29,-105.42"/>
<text text-anchor="middle" x="2233.39" y="-130.8" font-family="Times,serif" font-size="14.00">relation</text>
</g>
<!-- subject&#45;&gt;relation -->
<g id="edge24" class="edge">
<title>subject&#45;&gt;relation</title>
<path fill="none" stroke="black" stroke-dasharray="1,5" d="M2391.12,-164.73C2320.66,-136.19 2145.89,-65.39 2068.87,-34.18"/>
<polygon fill="black" stroke="black" points="2070.12,-30.91 2059.54,-30.4 2067.49,-37.4 2070.12,-30.91"/>
</g>
<!-- exposure event to phenotypic feature association_subject -->
<g id="node22" class="node">
<title>exposure event to phenotypic feature association_subject</title>
<ellipse fill="none" stroke="blue" cx="2266.39" cy="-265" rx="81.79" ry="18"/>
<text text-anchor="middle" x="2266.39" y="-261.3" font-family="Times,serif" font-size="14.00">exposure event</text>
</g>
</g>
</svg>
