<?xml version="1.0" encoding="UTF-8" standalone="no"?>
<!DOCTYPE svg PUBLIC "-//W3C//DTD SVG 1.1//EN"
 "http://www.w3.org/Graphics/SVG/1.1/DTD/svg11.dtd">
<!-- Generated by graphviz version 2.40.1 (20161225.0304)
 -->
<!-- Title: %3 Pages: 1 -->
<svg width="1843pt" height="130pt"
 viewBox="0.00 0.00 1843.07 130.00" xmlns="http://www.w3.org/2000/svg" xmlns:xlink="http://www.w3.org/1999/xlink">
<g id="graph0" class="graph" transform="scale(1 1) rotate(0) translate(4 126)">
<title>%3</title>
<polygon fill="#ffffff" stroke="transparent" points="-4,4 -4,-126 1839.0733,-126 1839.0733,4 -4,4"/>
<!-- exposure event -->
<g id="node1" class="node">
<title>exposure event</title>
<ellipse fill="none" stroke="#000000" cx="908.8225" cy="-104" rx="63.2845" ry="18"/>
<text text-anchor="middle" x="908.8225" y="-99.8" font-family="Times,serif" font-size="14.00" fill="#000000">exposure event</text>
</g>
<!-- biological entity -->
<g id="node2" class="node">
<title>biological entity</title>
<ellipse fill="none" stroke="#000000" cx="67.8225" cy="-18" rx="67.6455" ry="18"/>
<text text-anchor="middle" x="67.8225" y="-13.8" font-family="Times,serif" font-size="14.00" fill="#000000">biological entity</text>
</g>
<!-- exposure event&#45;&gt;biological entity -->
<g id="edge1" class="edge">
<title>exposure event&#45;&gt;biological entity</title>
<path fill="none" stroke="#000000" d="M845.5622,-102.5744C737.6584,-99.5955 511.2512,-90.9656 321.2708,-68 254.4827,-59.9264 178.9474,-44.1479 127.8453,-32.4655"/>
<polygon fill="#000000" stroke="#000000" points="128.4912,-29.0227 117.9605,-30.1872 126.9189,-35.8439 128.4912,-29.0227"/>
<text text-anchor="middle" x="333.0984" y="-56.8" font-family="Times,serif" font-size="14.00" fill="#000000">is_a</text>
</g>
<!-- id -->
<g id="node3" class="node">
<title>id</title>
<ellipse fill="none" stroke="#0000ff" cx="212.8225" cy="-18" rx="59.4427" ry="18"/>
<text text-anchor="middle" x="212.8225" y="-13.8" font-family="Times,serif" font-size="14.00" fill="#000000">identifier type</text>
</g>
<!-- exposure event&#45;&gt;id -->
<g id="edge2" class="edge">
<title>exposure event&#45;&gt;id</title>
<path fill="none" stroke="#0000ff" d="M845.5618,-102.6989C751.0939,-100.0123 567.7914,-91.9259 413.9329,-68 362.6428,-60.0241 305.2892,-45.1577 264.9966,-33.7005"/>
<polygon fill="#0000ff" stroke="#0000ff" points="265.7121,-30.2645 255.1344,-30.8674 263.7793,-36.9924 265.7121,-30.2645"/>
<text text-anchor="middle" x="420.2674" y="-56.8" font-family="Times,serif" font-size="14.00" fill="#000000">id</text>
</g>
<!-- name -->
<g id="node4" class="node">
<title>name</title>
<ellipse fill="none" stroke="#0000ff" cx="334.8225" cy="-18" rx="44.9599" ry="18"/>
<text text-anchor="middle" x="334.8225" y="-13.8" font-family="Times,serif" font-size="14.00" fill="#000000">label type</text>
</g>
<!-- exposure event&#45;&gt;name -->
<g id="edge3" class="edge">
<title>exposure event&#45;&gt;name</title>
<path fill="none" stroke="#0000ff" d="M846.3916,-100.8035C743.911,-95.2219 544.5034,-82.8643 475.5051,-68 440.4847,-60.4555 402.2745,-46.4844 374.5254,-35.2245"/>
<polygon fill="#0000ff" stroke="#0000ff" points="375.7481,-31.9429 365.1688,-31.3698 373.0816,-38.4152 375.7481,-31.9429"/>
<text text-anchor="middle" x="490.9812" y="-56.8" font-family="Times,serif" font-size="14.00" fill="#000000">name</text>
</g>
<!-- category -->
<g id="node5" class="node">
<title>category</title>
<ellipse fill="none" stroke="#0000ff" cx="432.8225" cy="-18" rx="35.3048" ry="18"/>
<text text-anchor="middle" x="432.8225" y="-13.8" font-family="Times,serif" font-size="14.00" fill="#000000">iri type</text>
</g>
<!-- exposure event&#45;&gt;category -->
<g id="edge4" class="edge">
<title>exposure event&#45;&gt;category</title>
<path fill="none" stroke="#0000ff" d="M846.9113,-100.1173C759.212,-94.2234 603.3808,-82.1903 548.6292,-68 519.8783,-60.5484 489.0873,-46.9587 466.4874,-35.8261"/>
<polygon fill="#0000ff" stroke="#0000ff" points="467.8404,-32.5891 457.333,-31.2305 464.6998,-38.845 467.8404,-32.5891"/>
<text text-anchor="middle" x="572.9192" y="-56.8" font-family="Times,serif" font-size="14.00" fill="#000000">category</text>
</g>
<!-- related to -->
<g id="node6" class="node">
<title>related to</title>
<ellipse fill="none" stroke="#0000ff" cx="539.8225" cy="-18" rx="54.1389" ry="18"/>
<text text-anchor="middle" x="539.8225" y="-13.8" font-family="Times,serif" font-size="14.00" fill="#000000">named thing</text>
</g>
<!-- exposure event&#45;&gt;related to -->
<g id="edge5" class="edge">
<title>exposure event&#45;&gt;related to</title>
<path fill="none" stroke="#0000ff" d="M848.2183,-98.7089C779.2925,-92.2347 671.2708,-80.5729 632.3499,-68 611.5324,-61.2752 589.9335,-49.893 572.8446,-39.6859"/>
<polygon fill="#0000ff" stroke="#0000ff" points="574.2036,-36.4138 563.8484,-34.1733 570.5462,-42.3824 574.2036,-36.4138"/>
<text text-anchor="middle" x="659.0589" y="-56.8" font-family="Times,serif" font-size="14.00" fill="#000000">related to</text>
</g>
<!-- interacts with -->
<g id="node7" class="node">
<title>interacts with</title>
<ellipse fill="none" stroke="#0000ff" cx="665.8225" cy="-18" rx="54.1389" ry="18"/>
<text text-anchor="middle" x="665.8225" y="-13.8" font-family="Times,serif" font-size="14.00" fill="#000000">named thing</text>
</g>
<!-- exposure event&#45;&gt;interacts with -->
<g id="edge6" class="edge">
<title>exposure event&#45;&gt;interacts with</title>
<path fill="none" stroke="#0000ff" d="M848.5025,-98.2868C797.0568,-92.5356 727.7654,-82.4414 704.012,-68 694.632,-62.2972 686.7311,-53.3661 680.5936,-44.6203"/>
<polygon fill="#0000ff" stroke="#0000ff" points="683.4265,-42.5558 675.0544,-36.0628 677.5501,-46.3595 683.4265,-42.5558"/>
<text text-anchor="middle" x="742.7278" y="-56.8" font-family="Times,serif" font-size="14.00" fill="#000000">interacts with</text>
</g>
<!-- node property -->
<g id="node8" class="node">
<title>node property</title>
<ellipse fill="none" stroke="#0000ff" cx="767.8225" cy="-18" rx="30.0035" ry="18"/>
<text text-anchor="middle" x="767.8225" y="-13.8" font-family="Times,serif" font-size="14.00" fill="#000000">string</text>
</g>
<!-- exposure event&#45;&gt;node property -->
<g id="edge7" class="edge">
<title>exposure event&#45;&gt;node property</title>
<path fill="none" stroke="#0000ff" d="M853.5041,-95.1922C833.6455,-89.8889 812.1194,-81.4368 795.6809,-68 788.3021,-61.9686 782.5421,-53.4388 778.2235,-45.1291"/>
<polygon fill="#0000ff" stroke="#0000ff" points="781.3553,-43.5634 773.9508,-35.9856 775.0135,-46.527 781.3553,-43.5634"/>
<text text-anchor="middle" x="834.8933" y="-56.8" font-family="Times,serif" font-size="14.00" fill="#000000">node property</text>
</g>
<!-- iri -->
<g id="node9" class="node">
<title>iri</title>
<ellipse fill="none" stroke="#0000ff" cx="851.8225" cy="-18" rx="35.3048" ry="18"/>
<text text-anchor="middle" x="851.8225" y="-13.8" font-family="Times,serif" font-size="14.00" fill="#000000">iri type</text>
</g>
<!-- exposure event&#45;&gt;iri -->
<g id="edge8" class="edge">
<title>exposure event&#45;&gt;iri</title>
<path fill="none" stroke="#0000ff" d="M897.0121,-86.1807C888.8803,-73.9117 877.9496,-57.4198 868.8756,-43.7292"/>
<polygon fill="#0000ff" stroke="#0000ff" points="871.6709,-41.6114 863.2289,-35.2096 865.8361,-45.4786 871.6709,-41.6114"/>
<text text-anchor="middle" x="890.0432" y="-56.8" font-family="Times,serif" font-size="14.00" fill="#000000">iri</text>
</g>
<!-- synonym -->
<g id="node10" class="node">
<title>synonym</title>
<ellipse fill="none" stroke="#0000ff" cx="949.8225" cy="-18" rx="44.9599" ry="18"/>
<text text-anchor="middle" x="949.8225" y="-13.8" font-family="Times,serif" font-size="14.00" fill="#000000">label type</text>
</g>
<!-- exposure event&#45;&gt;synonym -->
<g id="edge9" class="edge">
<title>exposure event&#45;&gt;synonym</title>
<path fill="none" stroke="#0000ff" d="M917.5176,-85.7616C923.1543,-73.9383 930.5973,-58.3261 936.9182,-45.0676"/>
<polygon fill="#0000ff" stroke="#0000ff" points="940.1365,-46.4501 941.2806,-35.9172 933.8178,-43.4377 940.1365,-46.4501"/>
<text text-anchor="middle" x="957.4915" y="-56.8" font-family="Times,serif" font-size="14.00" fill="#000000">synonym</text>
</g>
<!-- full name -->
<g id="node11" class="node">
<title>full name</title>
<ellipse fill="none" stroke="#0000ff" cx="1056.8225" cy="-18" rx="44.9599" ry="18"/>
<text text-anchor="middle" x="1056.8225" y="-13.8" font-family="Times,serif" font-size="14.00" fill="#000000">label type</text>
</g>
<!-- exposure event&#45;&gt;full name -->
<g id="edge10" class="edge">
<title>exposure event&#45;&gt;full name</title>
<path fill="none" stroke="#0000ff" d="M944.8695,-89.0632C958.3189,-83.0522 973.5398,-75.7172 986.8225,-68 1000.9868,-59.7706 1015.8641,-49.4141 1028.2431,-40.264"/>
<polygon fill="#0000ff" stroke="#0000ff" points="1030.4762,-42.9642 1036.3745,-34.163 1026.2751,-37.365 1030.4762,-42.9642"/>
<text text-anchor="middle" x="1035.4519" y="-56.8" font-family="Times,serif" font-size="14.00" fill="#000000">full name</text>
</g>
<!-- description -->
<g id="node12" class="node">
<title>description</title>
<ellipse fill="none" stroke="#0000ff" cx="1176.8225" cy="-18" rx="57.0027" ry="18"/>
<text text-anchor="middle" x="1176.8225" y="-13.8" font-family="Times,serif" font-size="14.00" fill="#000000">narrative text</text>
</g>
<!-- exposure event&#45;&gt;description -->
<g id="edge11" class="edge">
<title>exposure event&#45;&gt;description</title>
<path fill="none" stroke="#0000ff" d="M962.5989,-94.41C993.2571,-88.2655 1032.1592,-79.3171 1065.8225,-68 1090.3186,-59.7648 1116.7371,-47.9898 1137.6532,-37.9351"/>
<polygon fill="#0000ff" stroke="#0000ff" points="1139.3922,-40.9813 1146.8495,-33.4554 1136.3266,-34.6882 1139.3922,-40.9813"/>
<text text-anchor="middle" x="1131.926" y="-56.8" font-family="Times,serif" font-size="14.00" fill="#000000">description</text>
</g>
<!-- systematic synonym -->
<g id="node13" class="node">
<title>systematic synonym</title>
<ellipse fill="none" stroke="#0000ff" cx="1296.8225" cy="-18" rx="44.9599" ry="18"/>
<text text-anchor="middle" x="1296.8225" y="-13.8" font-family="Times,serif" font-size="14.00" fill="#000000">label type</text>
</g>
<!-- exposure event&#45;&gt;systematic synonym -->
<g id="edge12" class="edge">
<title>exposure event&#45;&gt;systematic synonym</title>
<path fill="none" stroke="#0000ff" d="M970.3206,-99.3989C1023.0805,-94.5108 1100.8137,-85.0594 1166.8225,-68 1198.2737,-59.8717 1232.5146,-46.5057 1257.9566,-35.6373"/>
<polygon fill="#0000ff" stroke="#0000ff" points="1259.4678,-38.797 1267.2525,-31.6103 1256.6852,-32.3738 1259.4678,-38.797"/>
<text text-anchor="middle" x="1267.7898" y="-56.8" font-family="Times,serif" font-size="14.00" fill="#000000">systematic synonym</text>
</g>
<!-- has phenotype -->
<g id="node14" class="node">
<title>has phenotype</title>
<ellipse fill="none" stroke="#0000ff" cx="1435.8225" cy="-18" rx="76.3132" ry="18"/>
<text text-anchor="middle" x="1435.8225" y="-13.8" font-family="Times,serif" font-size="14.00" fill="#000000">phenotypic feature</text>
</g>
<!-- exposure event&#45;&gt;has phenotype -->
<g id="edge13" class="edge">
<title>exposure event&#45;&gt;has phenotype</title>
<path fill="none" stroke="#0000ff" d="M971.5128,-101.3222C1071.6659,-96.5908 1263.1605,-85.5605 1328.8225,-68 1352.7628,-61.5975 1377.947,-50.0961 1397.8647,-39.7372"/>
<polygon fill="#0000ff" stroke="#0000ff" points="1399.7219,-42.7137 1406.9057,-34.9264 1396.4336,-36.5341 1399.7219,-42.7137"/>
<text text-anchor="middle" x="1406.0623" y="-56.8" font-family="Times,serif" font-size="14.00" fill="#000000">has phenotype</text>
</g>
<!-- has receptor -->
<g id="node15" class="node">
<title>has receptor</title>
<ellipse fill="none" stroke="#0000ff" cx="1601.8225" cy="-18" rx="71.6932" ry="18"/>
<text text-anchor="middle" x="1601.8225" y="-13.8" font-family="Times,serif" font-size="14.00" fill="#000000">organismal entity</text>
</g>
<!-- exposure event&#45;&gt;has receptor -->
<g id="edge14" class="edge">
<title>exposure event&#45;&gt;has receptor</title>
<path fill="none" stroke="#0000ff" d="M971.9307,-101.7916C1094.3595,-97.1791 1359.9641,-85.4794 1449.8225,-68 1485.7141,-61.0183 1524.8791,-47.9986 1554.4639,-36.9952"/>
<polygon fill="#0000ff" stroke="#0000ff" points="1555.9921,-40.1595 1564.1111,-33.3526 1553.5194,-33.6107 1555.9921,-40.1595"/>
<text text-anchor="middle" x="1535.8313" y="-56.8" font-family="Times,serif" font-size="14.00" fill="#000000">has receptor</text>
</g>
<!-- has stressor -->
<g id="node16" class="node">
<title>has stressor</title>
<ellipse fill="none" stroke="#0000ff" cx="1721.8225" cy="-18" rx="30.0035" ry="18"/>
<text text-anchor="middle" x="1721.8225" y="-13.8" font-family="Times,serif" font-size="14.00" fill="#000000">string</text>
</g>
<!-- exposure event&#45;&gt;has stressor -->
<g id="edge15" class="edge">
<title>exposure event&#45;&gt;has stressor</title>
<path fill="none" stroke="#0000ff" d="M972.1259,-102.4412C1115.0875,-98.6174 1459.3667,-87.6258 1573.8225,-68 1623.5852,-59.4672 1635.552,-53.7378 1682.8225,-36 1684.7076,-35.2926 1686.6289,-34.5343 1688.5578,-33.7435"/>
<polygon fill="#0000ff" stroke="#0000ff" points="1690.3415,-36.7856 1698.1329,-29.606 1687.5649,-30.3598 1690.3415,-36.7856"/>
<text text-anchor="middle" x="1666.2898" y="-56.8" font-family="Times,serif" font-size="14.00" fill="#000000">has stressor</text>
</g>
<!-- has route -->
<g id="node17" class="node">
<title>has route</title>
<ellipse fill="none" stroke="#0000ff" cx="1804.8225" cy="-18" rx="30.0035" ry="18"/>
<text text-anchor="middle" x="1804.8225" y="-13.8" font-family="Times,serif" font-size="14.00" fill="#000000">string</text>
</g>
<!-- exposure event&#45;&gt;has route -->
<g id="edge16" class="edge">
<title>exposure event&#45;&gt;has route</title>
<path fill="none" stroke="#0000ff" d="M972.2217,-102.6128C1147.959,-98.5583 1632.9744,-85.8754 1702.8225,-68 1728.5526,-61.4152 1755.4391,-47.9214 1775.1447,-36.6099"/>
<polygon fill="#0000ff" stroke="#0000ff" points="1777.0915,-39.5253 1783.9336,-31.4361 1773.5403,-33.493 1777.0915,-39.5253"/>
<text text-anchor="middle" x="1765.2864" y="-56.8" font-family="Times,serif" font-size="14.00" fill="#000000">has route</text>
</g>
</g>
</svg>
