<?xml version="1.0" encoding="UTF-8" standalone="no"?>
<!DOCTYPE svg PUBLIC "-//W3C//DTD SVG 1.1//EN"
 "http://www.w3.org/Graphics/SVG/1.1/DTD/svg11.dtd">
<!-- Generated by graphviz version 2.43.0 (0)
 -->
<!-- Title: %3 Pages: 1 -->
<svg width="4604pt" height="291pt"
 viewBox="0.00 0.00 4604.39 291.00" xmlns="http://www.w3.org/2000/svg" xmlns:xlink="http://www.w3.org/1999/xlink">
<g id="graph0" class="graph" transform="scale(1 1) rotate(0) translate(4 287)">
<title>%3</title>
<polygon fill="white" stroke="transparent" points="-4,4 -4,-287 4600.39,-287 4600.39,4 -4,4"/>
<!-- exposure event to phenotypic feature association -->
<g id="node1" class="node">
<title>exposure event to phenotypic feature association</title>
<ellipse fill="none" stroke="black" cx="2576.39" cy="-265" rx="239.36" ry="18"/>
<text text-anchor="middle" x="2576.39" y="-261.3" font-family="Times,serif" font-size="14.00">exposure event to phenotypic feature association</text>
</g>
<!-- association -->
<g id="node2" class="node">
<title>association</title>
<ellipse fill="none" stroke="black" cx="62.39" cy="-178" rx="62.29" ry="18"/>
<text text-anchor="middle" x="62.39" y="-174.3" font-family="Times,serif" font-size="14.00">association</text>
</g>
<!-- exposure event to phenotypic feature association&#45;&gt;association -->
<g id="edge1" class="edge">
<title>exposure event to phenotypic feature association&#45;&gt;association</title>
<path fill="none" stroke="black" d="M2337.23,-264.38C1960.45,-263.96 1205.69,-258.96 566.39,-229 374.05,-219.99 324.67,-225.55 134.39,-196 128.7,-195.12 122.8,-194.02 116.92,-192.81"/>
<polygon fill="black" stroke="black" points="117.63,-189.39 107.12,-190.7 116.16,-196.23 117.63,-189.39"/>
<text text-anchor="middle" x="580.39" y="-217.8" font-family="Times,serif" font-size="14.00">is_a</text>
</g>
<!-- entity to phenotypic feature association mixin -->
<g id="node3" class="node">
<title>entity to phenotypic feature association mixin</title>
<ellipse fill="none" stroke="black" cx="367.39" cy="-178" rx="224.46" ry="18"/>
<text text-anchor="middle" x="367.39" y="-174.3" font-family="Times,serif" font-size="14.00">entity to phenotypic feature association mixin</text>
</g>
<!-- exposure event to phenotypic feature association&#45;&gt;entity to phenotypic feature association mixin -->
<g id="edge2" class="edge">
<title>exposure event to phenotypic feature association&#45;&gt;entity to phenotypic feature association mixin</title>
<path fill="none" stroke="black" d="M2338.44,-263.03C1911.88,-260.69 1033.07,-253.03 727.39,-229 639.08,-222.06 539.35,-207.69 467.3,-196.13"/>
<polygon fill="black" stroke="black" points="467.75,-192.66 457.32,-194.52 466.63,-199.57 467.75,-192.66"/>
<text text-anchor="middle" x="743.89" y="-217.8" font-family="Times,serif" font-size="14.00">uses</text>
</g>
<!-- id -->
<g id="node4" class="node">
<title>id</title>
<ellipse fill="none" stroke="blue" cx="648.39" cy="-178" rx="38.19" ry="18"/>
<text text-anchor="middle" x="648.39" y="-174.3" font-family="Times,serif" font-size="14.00">string</text>
</g>
<!-- exposure event to phenotypic feature association&#45;&gt;id -->
<g id="edge3" class="edge">
<title>exposure event to phenotypic feature association&#45;&gt;id</title>
<path fill="none" stroke="blue" d="M2337.17,-264.62C1933.57,-264.74 1134.05,-260.77 854.39,-229 783.12,-220.9 765.47,-215.35 696.39,-196 693.29,-195.13 690.09,-194.16 686.89,-193.14"/>
<polygon fill="blue" stroke="blue" points="687.98,-189.81 677.38,-189.97 685.76,-196.46 687.98,-189.81"/>
<text text-anchor="middle" x="861.39" y="-217.8" font-family="Times,serif" font-size="14.00">id</text>
</g>
<!-- iri -->
<g id="node5" class="node">
<title>iri</title>
<ellipse fill="none" stroke="blue" cx="749.39" cy="-178" rx="44.39" ry="18"/>
<text text-anchor="middle" x="749.39" y="-174.3" font-family="Times,serif" font-size="14.00">iri type</text>
</g>
<!-- exposure event to phenotypic feature association&#45;&gt;iri -->
<g id="edge4" class="edge">
<title>exposure event to phenotypic feature association&#45;&gt;iri</title>
<path fill="none" stroke="blue" d="M2337.02,-264.66C1951.81,-264.73 1211.17,-260.56 950.39,-229 894.94,-222.29 832.78,-205.31 792.47,-193"/>
<polygon fill="blue" stroke="blue" points="793.29,-189.59 782.71,-189.98 791.22,-196.28 793.29,-189.59"/>
<text text-anchor="middle" x="958.39" y="-217.8" font-family="Times,serif" font-size="14.00">iri</text>
</g>
<!-- name -->
<g id="node6" class="node">
<title>name</title>
<ellipse fill="none" stroke="blue" cx="868.39" cy="-178" rx="56.59" ry="18"/>
<text text-anchor="middle" x="868.39" y="-174.3" font-family="Times,serif" font-size="14.00">label type</text>
</g>
<!-- exposure event to phenotypic feature association&#45;&gt;name -->
<g id="edge5" class="edge">
<title>exposure event to phenotypic feature association&#45;&gt;name</title>
<path fill="none" stroke="blue" d="M2340.1,-262.14C1939.77,-258.47 1159.31,-248.85 1034.39,-229 992.1,-222.28 945.54,-207.58 912.52,-195.85"/>
<polygon fill="blue" stroke="blue" points="913.33,-192.42 902.73,-192.32 910.95,-199.01 913.33,-192.42"/>
<text text-anchor="middle" x="1054.39" y="-217.8" font-family="Times,serif" font-size="14.00">name</text>
</g>
<!-- description -->
<g id="node7" class="node">
<title>description</title>
<ellipse fill="none" stroke="blue" cx="1018.39" cy="-178" rx="75.29" ry="18"/>
<text text-anchor="middle" x="1018.39" y="-174.3" font-family="Times,serif" font-size="14.00">narrative text</text>
</g>
<!-- exposure event to phenotypic feature association&#45;&gt;description -->
<g id="edge6" class="edge">
<title>exposure event to phenotypic feature association&#45;&gt;description</title>
<path fill="none" stroke="blue" d="M2337.52,-264.02C1953.95,-263.19 1231.98,-257.75 1117.39,-229 1094.12,-223.16 1070.05,-211.16 1051.47,-200.38"/>
<polygon fill="blue" stroke="blue" points="1053.2,-197.33 1042.82,-195.22 1049.61,-203.35 1053.2,-197.33"/>
<text text-anchor="middle" x="1157.89" y="-217.8" font-family="Times,serif" font-size="14.00">description</text>
</g>
<!-- has attribute -->
<g id="node8" class="node">
<title>has attribute</title>
<ellipse fill="none" stroke="blue" cx="1163.39" cy="-178" rx="51.99" ry="18"/>
<text text-anchor="middle" x="1163.39" y="-174.3" font-family="Times,serif" font-size="14.00">attribute</text>
</g>
<!-- exposure event to phenotypic feature association&#45;&gt;has attribute -->
<g id="edge7" class="edge">
<title>exposure event to phenotypic feature association&#45;&gt;has attribute</title>
<path fill="none" stroke="blue" d="M2341.41,-261.58C1969.48,-257.21 1281.77,-246.8 1230.39,-229 1214.35,-223.44 1198.98,-212.52 1187.01,-202.3"/>
<polygon fill="blue" stroke="blue" points="1189.09,-199.46 1179.31,-195.41 1184.43,-204.68 1189.09,-199.46"/>
<text text-anchor="middle" x="1277.39" y="-217.8" font-family="Times,serif" font-size="14.00">has attribute</text>
</g>
<!-- predicate -->
<g id="node9" class="node">
<title>predicate</title>
<ellipse fill="none" stroke="blue" cx="1311.39" cy="-178" rx="77.99" ry="18"/>
<text text-anchor="middle" x="1311.39" y="-174.3" font-family="Times,serif" font-size="14.00">predicate type</text>
</g>
<!-- exposure event to phenotypic feature association&#45;&gt;predicate -->
<g id="edge8" class="edge">
<title>exposure event to phenotypic feature association&#45;&gt;predicate</title>
<path fill="none" stroke="blue" d="M2338.58,-262.94C1992.35,-260.58 1385.84,-253.02 1343.39,-229 1333.98,-223.67 1326.9,-214.3 1321.83,-205.1"/>
<polygon fill="blue" stroke="blue" points="1324.97,-203.55 1317.42,-196.12 1318.68,-206.64 1324.97,-203.55"/>
<text text-anchor="middle" x="1377.39" y="-217.8" font-family="Times,serif" font-size="14.00">predicate</text>
</g>
<!-- object -->
<g id="node10" class="node">
<title>object</title>
<ellipse fill="none" stroke="blue" cx="3387.39" cy="-91" rx="69.59" ry="18"/>
<text text-anchor="middle" x="3387.39" y="-87.3" font-family="Times,serif" font-size="14.00">named thing</text>
</g>
<!-- exposure event to phenotypic feature association&#45;&gt;object -->
<g id="edge9" class="edge">
<title>exposure event to phenotypic feature association&#45;&gt;object</title>
<path fill="none" stroke="blue" d="M2339.45,-262.46C2152.07,-259.46 1884.02,-251.19 1650.39,-229 1550.07,-219.47 1364.38,-232.49 1434.39,-160 1500.45,-91.6 2948.99,-90.85 3307.63,-91.72"/>
<polygon fill="blue" stroke="blue" points="3307.66,-95.22 3317.66,-91.75 3307.67,-88.22 3307.66,-95.22"/>
<text text-anchor="middle" x="1456.39" y="-174.3" font-family="Times,serif" font-size="14.00">object</text>
</g>
<!-- negated -->
<g id="node11" class="node">
<title>negated</title>
<ellipse fill="none" stroke="blue" cx="1534.39" cy="-178" rx="46.59" ry="18"/>
<text text-anchor="middle" x="1534.39" y="-174.3" font-family="Times,serif" font-size="14.00">boolean</text>
</g>
<!-- exposure event to phenotypic feature association&#45;&gt;negated -->
<g id="edge10" class="edge">
<title>exposure event to phenotypic feature association&#45;&gt;negated</title>
<path fill="none" stroke="blue" d="M2348.97,-259.42C2139.82,-254.32 1845.28,-244.68 1730.39,-229 1677.31,-221.76 1617.88,-205.39 1578.53,-193.34"/>
<polygon fill="blue" stroke="blue" points="1579.56,-190 1568.97,-190.38 1577.49,-196.68 1579.56,-190"/>
<text text-anchor="middle" x="1759.39" y="-217.8" font-family="Times,serif" font-size="14.00">negated</text>
</g>
<!-- qualifiers -->
<g id="node12" class="node">
<title>qualifiers</title>
<ellipse fill="none" stroke="blue" cx="1675.39" cy="-178" rx="76.89" ry="18"/>
<text text-anchor="middle" x="1675.39" y="-174.3" font-family="Times,serif" font-size="14.00">ontology class</text>
</g>
<!-- exposure event to phenotypic feature association&#45;&gt;qualifiers -->
<g id="edge11" class="edge">
<title>exposure event to phenotypic feature association&#45;&gt;qualifiers</title>
<path fill="none" stroke="blue" d="M2353.51,-258.43C2178.77,-253.08 1950.29,-243.61 1858.39,-229 1813.2,-221.81 1763.16,-207.7 1726.85,-196.3"/>
<polygon fill="blue" stroke="blue" points="1727.57,-192.85 1716.98,-193.16 1725.45,-199.52 1727.57,-192.85"/>
<text text-anchor="middle" x="1891.89" y="-217.8" font-family="Times,serif" font-size="14.00">qualifiers</text>
</g>
<!-- publications -->
<g id="node13" class="node">
<title>publications</title>
<ellipse fill="none" stroke="blue" cx="1832.39" cy="-178" rx="62.29" ry="18"/>
<text text-anchor="middle" x="1832.39" y="-174.3" font-family="Times,serif" font-size="14.00">publication</text>
</g>
<!-- exposure event to phenotypic feature association&#45;&gt;publications -->
<g id="edge12" class="edge">
<title>exposure event to phenotypic feature association&#45;&gt;publications</title>
<path fill="none" stroke="blue" d="M2361,-257.16C2221.65,-251.6 2053.6,-242.46 1983.39,-229 1946.36,-221.9 1905.86,-208.15 1876.14,-196.86"/>
<polygon fill="blue" stroke="blue" points="1877.09,-193.47 1866.5,-193.14 1874.57,-200 1877.09,-193.47"/>
<text text-anchor="middle" x="2027.39" y="-217.8" font-family="Times,serif" font-size="14.00">publications</text>
</g>
<!-- has evidence -->
<g id="node14" class="node">
<title>has evidence</title>
<ellipse fill="none" stroke="blue" cx="1988.39" cy="-178" rx="75.29" ry="18"/>
<text text-anchor="middle" x="1988.39" y="-174.3" font-family="Times,serif" font-size="14.00">evidence type</text>
</g>
<!-- exposure event to phenotypic feature association&#45;&gt;has evidence -->
<g id="edge13" class="edge">
<title>exposure event to phenotypic feature association&#45;&gt;has evidence</title>
<path fill="none" stroke="blue" d="M2351.62,-258.79C2278.53,-253.87 2197.45,-244.94 2124.39,-229 2092.22,-221.98 2057.38,-209.06 2031.02,-198.12"/>
<polygon fill="blue" stroke="blue" points="2032.29,-194.85 2021.72,-194.19 2029.57,-201.3 2032.29,-194.85"/>
<text text-anchor="middle" x="2170.89" y="-217.8" font-family="Times,serif" font-size="14.00">has evidence</text>
</g>
<!-- knowledge source -->
<g id="node15" class="node">
<title>knowledge source</title>
<ellipse fill="none" stroke="blue" cx="2190.39" cy="-178" rx="108.58" ry="18"/>
<text text-anchor="middle" x="2190.39" y="-174.3" font-family="Times,serif" font-size="14.00">information resource</text>
</g>
<!-- exposure event to phenotypic feature association&#45;&gt;knowledge source -->
<g id="edge14" class="edge">
<title>exposure event to phenotypic feature association&#45;&gt;knowledge source</title>
<path fill="none" stroke="blue" d="M2383.14,-254.38C2324.45,-249.16 2268.57,-241.16 2242.39,-229 2229.97,-223.23 2218.67,-213.26 2209.8,-203.74"/>
<polygon fill="blue" stroke="blue" points="2212.19,-201.14 2202.96,-195.94 2206.93,-205.76 2212.19,-201.14"/>
<text text-anchor="middle" x="2306.89" y="-217.8" font-family="Times,serif" font-size="14.00">knowledge source</text>
</g>
<!-- primary knowledge source -->
<g id="node16" class="node">
<title>primary knowledge source</title>
<ellipse fill="none" stroke="blue" cx="2425.39" cy="-178" rx="108.58" ry="18"/>
<text text-anchor="middle" x="2425.39" y="-174.3" font-family="Times,serif" font-size="14.00">information resource</text>
</g>
<!-- exposure event to phenotypic feature association&#45;&gt;primary knowledge source -->
<g id="edge15" class="edge">
<title>exposure event to phenotypic feature association&#45;&gt;primary knowledge source</title>
<path fill="none" stroke="blue" d="M2429.58,-250.78C2405.93,-245.71 2386.53,-238.7 2378.39,-229 2370.65,-219.76 2376.37,-210.01 2386.12,-201.6"/>
<polygon fill="blue" stroke="blue" points="2388.36,-204.3 2394.21,-195.46 2384.13,-198.72 2388.36,-204.3"/>
<text text-anchor="middle" x="2473.39" y="-217.8" font-family="Times,serif" font-size="14.00">primary knowledge source</text>
</g>
<!-- aggregator knowledge source -->
<g id="node17" class="node">
<title>aggregator knowledge source</title>
<ellipse fill="none" stroke="blue" cx="2660.39" cy="-178" rx="108.58" ry="18"/>
<text text-anchor="middle" x="2660.39" y="-174.3" font-family="Times,serif" font-size="14.00">information resource</text>
</g>
<!-- exposure event to phenotypic feature association&#45;&gt;aggregator knowledge source -->
<g id="edge16" class="edge">
<title>exposure event to phenotypic feature association&#45;&gt;aggregator knowledge source</title>
<path fill="none" stroke="blue" d="M2572.34,-246.85C2570.9,-236.48 2570.96,-223.49 2577.39,-214 2581.62,-207.77 2587.19,-202.65 2593.45,-198.43"/>
<polygon fill="blue" stroke="blue" points="2595.48,-201.3 2602.35,-193.23 2591.95,-195.25 2595.48,-201.3"/>
<text text-anchor="middle" x="2683.89" y="-217.8" font-family="Times,serif" font-size="14.00">aggregator knowledge source</text>
</g>
<!-- timepoint -->
<g id="node18" class="node">
<title>timepoint</title>
<ellipse fill="none" stroke="blue" cx="2842.39" cy="-178" rx="55.49" ry="18"/>
<text text-anchor="middle" x="2842.39" y="-174.3" font-family="Times,serif" font-size="14.00">time type</text>
</g>
<!-- exposure event to phenotypic feature association&#45;&gt;timepoint -->
<g id="edge17" class="edge">
<title>exposure event to phenotypic feature association&#45;&gt;timepoint</title>
<path fill="none" stroke="blue" d="M2727.66,-251.04C2749.39,-245.85 2770.95,-238.73 2790.39,-229 2802.64,-222.87 2813.92,-212.85 2822.82,-203.39"/>
<polygon fill="blue" stroke="blue" points="2825.66,-205.46 2829.7,-195.66 2820.43,-200.8 2825.66,-205.46"/>
<text text-anchor="middle" x="2846.39" y="-217.8" font-family="Times,serif" font-size="14.00">timepoint</text>
</g>
<!-- original subject -->
<g id="node19" class="node">
<title>original subject</title>
<ellipse fill="none" stroke="blue" cx="2954.39" cy="-178" rx="38.19" ry="18"/>
<text text-anchor="middle" x="2954.39" y="-174.3" font-family="Times,serif" font-size="14.00">string</text>
</g>
<!-- exposure event to phenotypic feature association&#45;&gt;original subject -->
<g id="edge18" class="edge">
<title>exposure event to phenotypic feature association&#45;&gt;original subject</title>
<path fill="none" stroke="blue" d="M2744.58,-252.17C2801.5,-246.59 2857.26,-238.94 2883.39,-229 2885.88,-228.05 2907.27,-212.91 2925.93,-199.53"/>
<polygon fill="blue" stroke="blue" points="2928.15,-202.25 2934.23,-193.57 2924.07,-196.56 2928.15,-202.25"/>
<text text-anchor="middle" x="2961.39" y="-217.8" font-family="Times,serif" font-size="14.00">original subject</text>
</g>
<!-- original predicate -->
<g id="node20" class="node">
<title>original predicate</title>
<ellipse fill="none" stroke="blue" cx="3068.39" cy="-178" rx="57.39" ry="18"/>
<text text-anchor="middle" x="3068.39" y="-174.3" font-family="Times,serif" font-size="14.00">uriorcurie</text>
</g>
<!-- exposure event to phenotypic feature association&#45;&gt;original predicate -->
<g id="edge19" class="edge">
<title>exposure event to phenotypic feature association&#45;&gt;original predicate</title>
<path fill="none" stroke="blue" d="M2743.5,-252.09C2865.95,-243.16 3011.95,-231.97 3018.39,-229 3030.59,-223.38 3041.49,-213.43 3049.98,-203.88"/>
<polygon fill="blue" stroke="blue" points="3052.79,-205.98 3056.51,-196.06 3047.41,-201.49 3052.79,-205.98"/>
<text text-anchor="middle" x="3102.89" y="-217.8" font-family="Times,serif" font-size="14.00">original predicate</text>
</g>
<!-- original object -->
<g id="node21" class="node">
<title>original object</title>
<ellipse fill="none" stroke="blue" cx="3182.39" cy="-178" rx="38.19" ry="18"/>
<text text-anchor="middle" x="3182.39" y="-174.3" font-family="Times,serif" font-size="14.00">string</text>
</g>
<!-- exposure event to phenotypic feature association&#45;&gt;original object -->
<g id="edge20" class="edge">
<title>exposure event to phenotypic feature association&#45;&gt;original object</title>
<path fill="none" stroke="blue" d="M2744.47,-252.16C2771.52,-250.36 2799.23,-248.58 2825.39,-247 2863.49,-244.7 3138.6,-252.85 3168.39,-229 3175.3,-223.47 3178.97,-214.84 3180.87,-206.29"/>
<polygon fill="blue" stroke="blue" points="3184.37,-206.53 3182.4,-196.12 3177.45,-205.49 3184.37,-206.53"/>
<text text-anchor="middle" x="3230.89" y="-217.8" font-family="Times,serif" font-size="14.00">original object</text>
</g>
<!-- type -->
<g id="node22" class="node">
<title>type</title>
<ellipse fill="none" stroke="black" cx="3270.39" cy="-178" rx="31.4" ry="18"/>
<text text-anchor="middle" x="3270.39" y="-174.3" font-family="Times,serif" font-size="14.00">type</text>
</g>
<!-- exposure event to phenotypic feature association&#45;&gt;type -->
<g id="edge21" class="edge">
<title>exposure event to phenotypic feature association&#45;&gt;type</title>
<path fill="none" stroke="blue" d="M2742.1,-252.01C2769.9,-250.19 2798.46,-248.44 2825.39,-247 2850.99,-245.63 3268.63,-247.47 3286.39,-229 3292.96,-222.17 3291.56,-212.65 3287.58,-203.75"/>
<polygon fill="blue" stroke="blue" points="3290.58,-201.94 3282.72,-194.83 3284.43,-205.29 3290.58,-201.94"/>
<text text-anchor="middle" x="3307.39" y="-217.8" font-family="Times,serif" font-size="14.00">type</text>
</g>
<!-- category -->
<g id="node24" class="node">
<title>category</title>
<ellipse fill="none" stroke="black" cx="3371.39" cy="-178" rx="51.19" ry="18"/>
<text text-anchor="middle" x="3371.39" y="-174.3" font-family="Times,serif" font-size="14.00">category</text>
</g>
<!-- exposure event to phenotypic feature association&#45;&gt;category -->
<g id="edge22" class="edge">
<title>exposure event to phenotypic feature association&#45;&gt;category</title>
<path fill="none" stroke="blue" d="M2741.76,-251.96C2769.67,-250.14 2798.35,-248.41 2825.39,-247 2881.13,-244.1 3276.96,-252.9 3327.39,-229 3338.87,-223.56 3348.6,-213.59 3355.97,-203.97"/>
<polygon fill="blue" stroke="blue" points="3358.88,-205.91 3361.82,-195.73 3353.17,-201.86 3358.88,-205.91"/>
<text text-anchor="middle" x="3377.89" y="-217.8" font-family="Times,serif" font-size="14.00">category</text>
</g>
<!-- subject -->
<g id="node26" class="node">
<title>subject</title>
<ellipse fill="none" stroke="black" cx="3485.39" cy="-178" rx="44.39" ry="18"/>
<text text-anchor="middle" x="3485.39" y="-174.3" font-family="Times,serif" font-size="14.00">subject</text>
</g>
<!-- exposure event to phenotypic feature association&#45;&gt;subject -->
<g id="edge23" class="edge">
<title>exposure event to phenotypic feature association&#45;&gt;subject</title>
<path fill="none" stroke="blue" d="M2740.75,-251.9C2768.98,-250.08 2798.02,-248.35 2825.39,-247 2890.68,-243.77 3351.32,-249.49 3413.39,-229 3430.7,-223.29 3447.57,-211.98 3460.63,-201.56"/>
<polygon fill="blue" stroke="blue" points="3463.18,-203.99 3468.63,-194.9 3458.7,-198.61 3463.18,-203.99"/>
<text text-anchor="middle" x="3469.39" y="-217.8" font-family="Times,serif" font-size="14.00">subject</text>
</g>
<!-- frequency qualifier -->
<g id="node28" class="node">
<title>frequency qualifier</title>
<ellipse fill="none" stroke="blue" cx="3632.39" cy="-178" rx="85.29" ry="18"/>
<text text-anchor="middle" x="3632.39" y="-174.3" font-family="Times,serif" font-size="14.00">frequency value</text>
</g>
<!-- exposure event to phenotypic feature association&#45;&gt;frequency qualifier -->
<g id="edge24" class="edge">
<title>exposure event to phenotypic feature association&#45;&gt;frequency qualifier</title>
<path fill="none" stroke="blue" d="M2740.08,-251.85C2768.51,-250.02 2797.8,-248.31 2825.39,-247 2975.06,-239.9 3352.35,-257.76 3499.39,-229 3530.95,-222.83 3564.85,-209.98 3590.53,-198.85"/>
<polygon fill="blue" stroke="blue" points="3592.22,-201.93 3599.95,-194.69 3589.39,-195.53 3592.22,-201.93"/>
<text text-anchor="middle" x="3620.39" y="-217.8" font-family="Times,serif" font-size="14.00">frequency qualifier</text>
</g>
<!-- severity qualifier -->
<g id="node29" class="node">
<title>severity qualifier</title>
<ellipse fill="none" stroke="blue" cx="3811.39" cy="-178" rx="76.09" ry="18"/>
<text text-anchor="middle" x="3811.39" y="-174.3" font-family="Times,serif" font-size="14.00">severity value</text>
</g>
<!-- exposure event to phenotypic feature association&#45;&gt;severity qualifier -->
<g id="edge25" class="edge">
<title>exposure event to phenotypic feature association&#45;&gt;severity qualifier</title>
<path fill="none" stroke="blue" d="M2739.07,-251.78C2767.82,-249.94 2797.47,-248.24 2825.39,-247 2921.65,-242.72 3598.14,-249.02 3692.39,-229 3720.72,-222.99 3750.76,-210.31 3773.58,-199.22"/>
<polygon fill="blue" stroke="blue" points="3775.17,-202.34 3782.57,-194.75 3772.06,-196.07 3775.17,-202.34"/>
<text text-anchor="middle" x="3801.39" y="-217.8" font-family="Times,serif" font-size="14.00">severity qualifier</text>
</g>
<!-- onset qualifier -->
<g id="node30" class="node">
<title>onset qualifier</title>
<ellipse fill="none" stroke="blue" cx="3941.39" cy="-178" rx="36.29" ry="18"/>
<text text-anchor="middle" x="3941.39" y="-174.3" font-family="Times,serif" font-size="14.00">onset</text>
</g>
<!-- exposure event to phenotypic feature association&#45;&gt;onset qualifier -->
<g id="edge26" class="edge">
<title>exposure event to phenotypic feature association&#45;&gt;onset qualifier</title>
<path fill="none" stroke="blue" d="M2738.4,-251.74C2767.35,-249.89 2797.26,-248.2 2825.39,-247 2883.18,-244.53 3811.18,-246.24 3866.39,-229 3884.83,-223.24 3902.91,-211.42 3916.71,-200.72"/>
<polygon fill="blue" stroke="blue" points="3919.12,-203.27 3924.71,-194.26 3914.73,-197.82 3919.12,-203.27"/>
<text text-anchor="middle" x="3948.89" y="-217.8" font-family="Times,serif" font-size="14.00">onset qualifier</text>
</g>
<!-- sex qualifier -->
<g id="node31" class="node">
<title>sex qualifier</title>
<ellipse fill="none" stroke="blue" cx="4069.39" cy="-178" rx="73.39" ry="18"/>
<text text-anchor="middle" x="4069.39" y="-174.3" font-family="Times,serif" font-size="14.00">biological sex</text>
</g>
<!-- exposure event to phenotypic feature association&#45;&gt;sex qualifier -->
<g id="edge27" class="edge">
<title>exposure event to phenotypic feature association&#45;&gt;sex qualifier</title>
<path fill="none" stroke="blue" d="M2738.06,-251.71C2767.12,-249.86 2797.15,-248.18 2825.39,-247 2890.85,-244.27 3942.54,-250.57 4004.39,-229 4020.01,-223.55 4034.84,-212.75 4046.39,-202.58"/>
<polygon fill="blue" stroke="blue" points="4048.85,-205.07 4053.82,-195.71 4044.1,-199.92 4048.85,-205.07"/>
<text text-anchor="middle" x="4076.39" y="-217.8" font-family="Times,serif" font-size="14.00">sex qualifier</text>
</g>
<!-- has count -->
<g id="node32" class="node">
<title>has count</title>
<ellipse fill="none" stroke="blue" cx="4205.39" cy="-178" rx="44.39" ry="18"/>
<text text-anchor="middle" x="4205.39" y="-174.3" font-family="Times,serif" font-size="14.00">integer</text>
</g>
<!-- exposure event to phenotypic feature association&#45;&gt;has count -->
<g id="edge28" class="edge">
<title>exposure event to phenotypic feature association&#45;&gt;has count</title>
<path fill="none" stroke="blue" d="M2737.73,-251.7C2766.89,-249.84 2797.04,-248.16 2825.39,-247 2897.51,-244.04 4055.1,-249.18 4124.39,-229 4144.02,-223.28 4163.6,-211.41 4178.59,-200.67"/>
<polygon fill="blue" stroke="blue" points="4180.91,-203.31 4186.85,-194.54 4176.73,-197.69 4180.91,-203.31"/>
<text text-anchor="middle" x="4193.39" y="-217.8" font-family="Times,serif" font-size="14.00">has count</text>
</g>
<!-- has total -->
<g id="node33" class="node">
<title>has total</title>
<ellipse fill="none" stroke="blue" cx="4311.39" cy="-178" rx="44.39" ry="18"/>
<text text-anchor="middle" x="4311.39" y="-174.3" font-family="Times,serif" font-size="14.00">integer</text>
</g>
<!-- exposure event to phenotypic feature association&#45;&gt;has total -->
<g id="edge29" class="edge">
<title>exposure event to phenotypic feature association&#45;&gt;has total</title>
<path fill="none" stroke="blue" d="M2737.73,-251.68C2766.89,-249.82 2797.04,-248.15 2825.39,-247 2903.5,-243.84 4157.45,-251.24 4232.39,-229 4251.65,-223.29 4270.74,-211.42 4285.33,-200.68"/>
<polygon fill="blue" stroke="blue" points="4287.55,-203.39 4293.37,-194.54 4283.3,-197.83 4287.55,-203.39"/>
<text text-anchor="middle" x="4296.89" y="-217.8" font-family="Times,serif" font-size="14.00">has total</text>
</g>
<!-- has quotient -->
<g id="node34" class="node">
<title>has quotient</title>
<ellipse fill="none" stroke="blue" cx="4415.39" cy="-178" rx="42.49" ry="18"/>
<text text-anchor="middle" x="4415.39" y="-174.3" font-family="Times,serif" font-size="14.00">double</text>
</g>
<!-- exposure event to phenotypic feature association&#45;&gt;has quotient -->
<g id="edge30" class="edge">
<title>exposure event to phenotypic feature association&#45;&gt;has quotient</title>
<path fill="none" stroke="blue" d="M2737.39,-251.68C2766.66,-249.82 2796.93,-248.14 2825.39,-247 2909.06,-243.65 4251.86,-251.9 4332.39,-229 4352.55,-223.27 4372.74,-211.28 4388.16,-200.48"/>
<polygon fill="blue" stroke="blue" points="4390.62,-203.02 4396.65,-194.31 4386.5,-197.35 4390.62,-203.02"/>
<text text-anchor="middle" x="4411.39" y="-217.8" font-family="Times,serif" font-size="14.00">has quotient</text>
</g>
<!-- has percentage -->
<g id="node35" class="node">
<title>has percentage</title>
<ellipse fill="none" stroke="blue" cx="4522.39" cy="-178" rx="42.49" ry="18"/>
<text text-anchor="middle" x="4522.39" y="-174.3" font-family="Times,serif" font-size="14.00">double</text>
</g>
<!-- exposure event to phenotypic feature association&#45;&gt;has percentage -->
<g id="edge31" class="edge">
<title>exposure event to phenotypic feature association&#45;&gt;has percentage</title>
<path fill="none" stroke="blue" d="M2737.39,-251.66C2766.66,-249.8 2796.93,-248.13 2825.39,-247 2870.78,-245.2 4417.65,-244.35 4460.39,-229 4475.47,-223.58 4489.61,-212.83 4500.56,-202.67"/>
<polygon fill="blue" stroke="blue" points="4503.22,-204.96 4507.94,-195.47 4498.34,-199.95 4503.22,-204.96"/>
<text text-anchor="middle" x="4541.39" y="-217.8" font-family="Times,serif" font-size="14.00">has percentage</text>
</g>
<!-- relation -->
<g id="node36" class="node">
<title>relation</title>
<ellipse fill="none" stroke="black" cx="3436.39" cy="-18" rx="46.59" ry="18"/>
<text text-anchor="middle" x="3436.39" y="-14.3" font-family="Times,serif" font-size="14.00">relation</text>
</g>
<!-- object&#45;&gt;relation -->
<g id="edge34" class="edge">
<title>object&#45;&gt;relation</title>
<path fill="none" stroke="black" stroke-dasharray="1,5" d="M3399.01,-73.17C3404.99,-64.51 3412.4,-53.77 3419.04,-44.14"/>
<polygon fill="black" stroke="black" points="3422.07,-45.92 3424.87,-35.71 3416.3,-41.95 3422.07,-45.92"/>
</g>
<!-- association_type -->
<g id="node23" class="node">
<title>association_type</title>
<ellipse fill="none" stroke="blue" cx="2872.39" cy="-265" rx="38.19" ry="18"/>
<text text-anchor="middle" x="2872.39" y="-261.3" font-family="Times,serif" font-size="14.00">string</text>
</g>
<!-- association_category -->
<g id="node25" class="node">
<title>association_category</title>
<ellipse fill="none" stroke="blue" cx="3003.39" cy="-265" rx="74.99" ry="18"/>
<text text-anchor="middle" x="3003.39" y="-261.3" font-family="Times,serif" font-size="14.00">category type</text>
</g>
<!-- subject&#45;&gt;object -->
<g id="edge32" class="edge">
<title>subject&#45;&gt;object</title>
<path fill="none" stroke="black" d="M3452.9,-165.59C3440.13,-159.94 3426.01,-152.13 3415.39,-142 3408.39,-135.31 3402.66,-126.48 3398.25,-118.1"/>
<polygon fill="black" stroke="black" points="3401.34,-116.45 3393.84,-108.97 3395.04,-119.5 3401.34,-116.45"/>
<text text-anchor="middle" x="3443.39" y="-130.8" font-family="Times,serif" font-size="14.00">relation</text>
</g>
<!-- subject&#45;&gt;relation -->
<g id="edge33" class="edge">
<title>subject&#45;&gt;relation</title>
<path fill="none" stroke="black" stroke-dasharray="1,5" d="M3484,-159.99C3481.9,-139.02 3476.98,-102.55 3466.39,-73 3462.91,-63.26 3457.79,-53.19 3452.76,-44.42"/>
<polygon fill="black" stroke="black" points="3455.76,-42.62 3447.63,-35.83 3449.75,-46.21 3455.76,-42.62"/>
</g>
<!-- exposure event to phenotypic feature association_subject -->
<g id="node27" class="node">
<title>exposure event to phenotypic feature association_subject</title>
<ellipse fill="none" stroke="blue" cx="3178.39" cy="-265" rx="81.79" ry="18"/>
<text text-anchor="middle" x="3178.39" y="-261.3" font-family="Times,serif" font-size="14.00">exposure event</text>
</g>
</g>
</svg>
