<?xml version="1.0" encoding="UTF-8" standalone="no"?>
<!DOCTYPE svg PUBLIC "-//W3C//DTD SVG 1.1//EN"
 "http://www.w3.org/Graphics/SVG/1.1/DTD/svg11.dtd">
<!-- Generated by graphviz version 2.43.0 (0)
 -->
<!-- Title: %3 Pages: 1 -->
<svg width="1438pt" height="131pt"
 viewBox="0.00 0.00 1437.79 131.00" xmlns="http://www.w3.org/2000/svg" xmlns:xlink="http://www.w3.org/1999/xlink">
<g id="graph0" class="graph" transform="scale(1 1) rotate(0) translate(4 127)">
<title>%3</title>
<polygon fill="white" stroke="transparent" points="-4,4 -4,-127 1433.79,-127 1433.79,4 -4,4"/>
<!-- exposure event -->
<g id="node1" class="node">
<title>exposure event</title>
<ellipse fill="none" stroke="black" cx="726.54" cy="-105" rx="81.79" ry="18"/>
<text text-anchor="middle" x="726.54" y="-101.3" font-family="Times,serif" font-size="14.00">exposure event</text>
</g>
<!-- named thing -->
<g id="node2" class="node">
<title>named thing</title>
<ellipse fill="none" stroke="black" cx="69.54" cy="-18" rx="69.59" ry="18"/>
<text text-anchor="middle" x="69.54" y="-14.3" font-family="Times,serif" font-size="14.00">named thing</text>
</g>
<!-- exposure event&#45;&gt;named thing -->
<g id="edge1" class="edge">
<title>exposure event&#45;&gt;named thing</title>
<path fill="none" stroke="black" d="M646.4,-101.03C558.46,-96.98 413.31,-87.92 289.54,-69 233.21,-60.39 169.85,-45.41 125.64,-34.09"/>
<polygon fill="black" stroke="black" points="126.51,-30.7 115.95,-31.59 124.76,-37.48 126.51,-30.7"/>
<text text-anchor="middle" x="303.54" y="-57.8" font-family="Times,serif" font-size="14.00">is_a</text>
</g>
<!-- id -->
<g id="node3" class="node">
<title>id</title>
<ellipse fill="none" stroke="blue" cx="195.54" cy="-18" rx="38.19" ry="18"/>
<text text-anchor="middle" x="195.54" y="-14.3" font-family="Times,serif" font-size="14.00">string</text>
</g>
<!-- exposure event&#45;&gt;id -->
<g id="edge2" class="edge">
<title>exposure event&#45;&gt;id</title>
<path fill="none" stroke="blue" d="M648.72,-99.35C552.19,-92.16 383.26,-74.86 243.54,-36 240.44,-35.14 237.24,-34.17 234.04,-33.15"/>
<polygon fill="blue" stroke="blue" points="235.12,-29.83 224.53,-29.99 232.91,-36.47 235.12,-29.83"/>
<text text-anchor="middle" x="394.54" y="-57.8" font-family="Times,serif" font-size="14.00">id</text>
</g>
<!-- iri -->
<g id="node4" class="node">
<title>iri</title>
<ellipse fill="none" stroke="blue" cx="296.54" cy="-18" rx="44.39" ry="18"/>
<text text-anchor="middle" x="296.54" y="-14.3" font-family="Times,serif" font-size="14.00">iri type</text>
</g>
<!-- exposure event&#45;&gt;iri -->
<g id="edge3" class="edge">
<title>exposure event&#45;&gt;iri</title>
<path fill="none" stroke="blue" d="M658,-95.13C611.46,-88.76 548.6,-79.47 493.54,-69 429.47,-56.81 413.48,-53.14 350.54,-36 346.97,-35.03 343.27,-33.97 339.57,-32.88"/>
<polygon fill="blue" stroke="blue" points="340.42,-29.48 329.84,-29.93 338.39,-36.18 340.42,-29.48"/>
<text text-anchor="middle" x="501.54" y="-57.8" font-family="Times,serif" font-size="14.00">iri</text>
</g>
<!-- type -->
<g id="node5" class="node">
<title>type</title>
<ellipse fill="none" stroke="blue" cx="397.54" cy="-18" rx="38.19" ry="18"/>
<text text-anchor="middle" x="397.54" y="-14.3" font-family="Times,serif" font-size="14.00">string</text>
</g>
<!-- exposure event&#45;&gt;type -->
<g id="edge4" class="edge">
<title>exposure event&#45;&gt;type</title>
<path fill="none" stroke="blue" d="M668.11,-92.37C610.63,-80.36 520.67,-60.02 444.54,-36 441.79,-35.13 438.96,-34.2 436.11,-33.24"/>
<polygon fill="blue" stroke="blue" points="437.09,-29.87 426.5,-29.9 434.8,-36.49 437.09,-29.87"/>
<text text-anchor="middle" x="576.54" y="-57.8" font-family="Times,serif" font-size="14.00">type</text>
</g>
<!-- name -->
<g id="node6" class="node">
<title>name</title>
<ellipse fill="none" stroke="blue" cx="510.54" cy="-18" rx="56.59" ry="18"/>
<text text-anchor="middle" x="510.54" y="-14.3" font-family="Times,serif" font-size="14.00">label type</text>
</g>
<!-- exposure event&#45;&gt;name -->
<g id="edge5" class="edge">
<title>exposure event&#45;&gt;name</title>
<path fill="none" stroke="blue" d="M687.98,-89.07C672.05,-82.88 653.4,-75.62 636.54,-69 608.99,-58.17 578.09,-45.91 553.78,-36.24"/>
<polygon fill="blue" stroke="blue" points="555.06,-32.99 544.48,-32.54 552.47,-39.49 555.06,-32.99"/>
<text text-anchor="middle" x="656.54" y="-57.8" font-family="Times,serif" font-size="14.00">name</text>
</g>
<!-- description -->
<g id="node7" class="node">
<title>description</title>
<ellipse fill="none" stroke="blue" cx="660.54" cy="-18" rx="75.29" ry="18"/>
<text text-anchor="middle" x="660.54" y="-14.3" font-family="Times,serif" font-size="14.00">narrative text</text>
</g>
<!-- exposure event&#45;&gt;description -->
<g id="edge6" class="edge">
<title>exposure event&#45;&gt;description</title>
<path fill="none" stroke="blue" d="M706.66,-87.17C700.79,-81.69 694.59,-75.38 689.54,-69 683.73,-61.65 678.29,-53 673.74,-44.98"/>
<polygon fill="blue" stroke="blue" points="676.68,-43.08 668.82,-35.98 670.54,-46.43 676.68,-43.08"/>
<text text-anchor="middle" x="730.04" y="-57.8" font-family="Times,serif" font-size="14.00">description</text>
</g>
<!-- source -->
<g id="node8" class="node">
<title>source</title>
<ellipse fill="none" stroke="blue" cx="792.54" cy="-18" rx="38.19" ry="18"/>
<text text-anchor="middle" x="792.54" y="-14.3" font-family="Times,serif" font-size="14.00">string</text>
</g>
<!-- exposure event&#45;&gt;source -->
<g id="edge7" class="edge">
<title>exposure event&#45;&gt;source</title>
<path fill="none" stroke="blue" d="M751.29,-87.71C758.15,-82.35 765.18,-75.96 770.54,-69 775.98,-61.95 780.38,-53.35 783.79,-45.28"/>
<polygon fill="blue" stroke="blue" points="787.09,-46.44 787.44,-35.85 780.56,-43.91 787.09,-46.44"/>
<text text-anchor="middle" x="803.54" y="-57.8" font-family="Times,serif" font-size="14.00">source</text>
</g>
<!-- has attribute -->
<g id="node9" class="node">
<title>has attribute</title>
<ellipse fill="none" stroke="blue" cx="900.54" cy="-18" rx="51.99" ry="18"/>
<text text-anchor="middle" x="900.54" y="-14.3" font-family="Times,serif" font-size="14.00">attribute</text>
</g>
<!-- exposure event&#45;&gt;has attribute -->
<g id="edge8" class="edge">
<title>exposure event&#45;&gt;has attribute</title>
<path fill="none" stroke="blue" d="M776.69,-90.71C794.49,-85.11 814.37,-77.82 831.54,-69 846.41,-61.37 861.58,-50.74 873.91,-41.24"/>
<polygon fill="blue" stroke="blue" points="876.26,-43.84 881.94,-34.9 871.92,-38.35 876.26,-43.84"/>
<text text-anchor="middle" x="903.54" y="-57.8" font-family="Times,serif" font-size="14.00">has attribute</text>
</g>
<!-- provided by -->
<g id="node10" class="node">
<title>provided by</title>
<ellipse fill="none" stroke="blue" cx="1008.54" cy="-18" rx="38.19" ry="18"/>
<text text-anchor="middle" x="1008.54" y="-14.3" font-family="Times,serif" font-size="14.00">string</text>
</g>
<!-- exposure event&#45;&gt;provided by -->
<g id="edge9" class="edge">
<title>exposure event&#45;&gt;provided by</title>
<path fill="none" stroke="blue" d="M785.69,-92.47C796.28,-90.54 807.23,-88.64 817.54,-87 878.19,-77.36 898.95,-95.09 954.54,-69 967.5,-62.92 979.46,-52.58 988.82,-42.88"/>
<polygon fill="blue" stroke="blue" points="991.56,-45.07 995.73,-35.33 986.39,-40.34 991.56,-45.07"/>
<text text-anchor="middle" x="1019.04" y="-57.8" font-family="Times,serif" font-size="14.00">provided by</text>
</g>
<!-- xref -->
<g id="node11" class="node">
<title>xref</title>
<ellipse fill="none" stroke="blue" cx="1122.54" cy="-18" rx="57.39" ry="18"/>
<text text-anchor="middle" x="1122.54" y="-14.3" font-family="Times,serif" font-size="14.00">uriorcurie</text>
</g>
<!-- exposure event&#45;&gt;xref -->
<g id="edge10" class="edge">
<title>exposure event&#45;&gt;xref</title>
<path fill="none" stroke="blue" d="M784.64,-92.14C795.54,-90.2 806.86,-88.38 817.54,-87 872.34,-79.92 1014.57,-90.33 1065.54,-69 1079.28,-63.25 1092.02,-52.82 1101.94,-42.96"/>
<polygon fill="blue" stroke="blue" points="1104.58,-45.27 1108.96,-35.62 1099.52,-40.43 1104.58,-45.27"/>
<text text-anchor="middle" x="1103.04" y="-57.8" font-family="Times,serif" font-size="14.00">xref</text>
</g>
<!-- category -->
<g id="node12" class="node">
<title>category</title>
<ellipse fill="none" stroke="black" cx="1249.54" cy="-18" rx="51.19" ry="18"/>
<text text-anchor="middle" x="1249.54" y="-14.3" font-family="Times,serif" font-size="14.00">category</text>
</g>
<!-- exposure event&#45;&gt;category -->
<g id="edge11" class="edge">
<title>exposure event&#45;&gt;category</title>
<path fill="none" stroke="blue" d="M784.14,-92.11C795.19,-90.15 806.7,-88.33 817.54,-87 951.89,-70.54 989.33,-97.98 1121.54,-69 1152.95,-62.12 1186.77,-48.62 1211.75,-37.38"/>
<polygon fill="blue" stroke="blue" points="1213.24,-40.55 1220.87,-33.21 1210.32,-34.19 1213.24,-40.55"/>
<text text-anchor="middle" x="1200.04" y="-57.8" font-family="Times,serif" font-size="14.00">category</text>
</g>
<!-- timepoint -->
<g id="node14" class="node">
<title>timepoint</title>
<ellipse fill="none" stroke="blue" cx="1374.54" cy="-18" rx="55.49" ry="18"/>
<text text-anchor="middle" x="1374.54" y="-14.3" font-family="Times,serif" font-size="14.00">time type</text>
</g>
<!-- exposure event&#45;&gt;timepoint -->
<g id="edge12" class="edge">
<title>exposure event&#45;&gt;timepoint</title>
<path fill="none" stroke="blue" d="M783.64,-92.06C794.84,-90.08 806.53,-88.26 817.54,-87 1002.29,-65.87 1053.09,-104.88 1235.54,-69 1269.98,-62.23 1307.33,-48.41 1334.63,-37.01"/>
<polygon fill="blue" stroke="blue" points="1336.01,-40.22 1343.84,-33.09 1333.27,-33.78 1336.01,-40.22"/>
<text text-anchor="middle" x="1321.54" y="-57.8" font-family="Times,serif" font-size="14.00">timepoint</text>
</g>
<!-- named thing_category -->
<g id="node13" class="node">
<title>named thing_category</title>
<ellipse fill="none" stroke="blue" cx="901.54" cy="-105" rx="74.99" ry="18"/>
<text text-anchor="middle" x="901.54" y="-101.3" font-family="Times,serif" font-size="14.00">category type</text>
</g>
</g>
</svg>
