<?xml version="1.0" encoding="UTF-8" standalone="no"?>
<!DOCTYPE svg PUBLIC "-//W3C//DTD SVG 1.1//EN"
 "http://www.w3.org/Graphics/SVG/1.1/DTD/svg11.dtd">
<!-- Generated by graphviz version 2.43.0 (0)
 -->
<!-- Title: %3 Pages: 1 -->
<svg width="6101pt" height="291pt"
 viewBox="0.00 0.00 6101.39 291.00" xmlns="http://www.w3.org/2000/svg" xmlns:xlink="http://www.w3.org/1999/xlink">
<g id="graph0" class="graph" transform="scale(1 1) rotate(0) translate(4 287)">
<title>%3</title>
<polygon fill="white" stroke="transparent" points="-4,4 -4,-287 6097.39,-287 6097.39,4 -4,4"/>
<!-- exposure event to phenotypic feature association -->
<g id="node1" class="node">
<title>exposure event to phenotypic feature association</title>
<ellipse fill="none" stroke="black" cx="3143.39" cy="-265" rx="239.36" ry="18"/>
<text text-anchor="middle" x="3143.39" y="-261.3" font-family="Times,serif" font-size="14.00">exposure event to phenotypic feature association</text>
</g>
<!-- association -->
<g id="node2" class="node">
<title>association</title>
<ellipse fill="none" stroke="black" cx="62.39" cy="-178" rx="62.29" ry="18"/>
<text text-anchor="middle" x="62.39" y="-174.3" font-family="Times,serif" font-size="14.00">association</text>
</g>
<!-- exposure event to phenotypic feature association&#45;&gt;association -->
<g id="edge1" class="edge">
<title>exposure event to phenotypic feature association&#45;&gt;association</title>
<path fill="none" stroke="black" d="M2905.85,-262.75C2356.21,-259.54 1009.23,-249.75 556.39,-229 368.46,-220.39 320.27,-225.03 134.39,-196 128.7,-195.11 122.8,-194.01 116.93,-192.8"/>
<polygon fill="black" stroke="black" points="117.63,-189.38 107.12,-190.68 116.16,-196.22 117.63,-189.38"/>
<text text-anchor="middle" x="570.39" y="-217.8" font-family="Times,serif" font-size="14.00">is_a</text>
</g>
<!-- entity to phenotypic feature association mixin -->
<g id="node3" class="node">
<title>entity to phenotypic feature association mixin</title>
<ellipse fill="none" stroke="black" cx="367.39" cy="-178" rx="224.46" ry="18"/>
<text text-anchor="middle" x="367.39" y="-174.3" font-family="Times,serif" font-size="14.00">entity to phenotypic feature association mixin</text>
</g>
<!-- exposure event to phenotypic feature association&#45;&gt;entity to phenotypic feature association mixin -->
<g id="edge2" class="edge">
<title>exposure event to phenotypic feature association&#45;&gt;entity to phenotypic feature association mixin</title>
<path fill="none" stroke="black" d="M2904.25,-264.3C2380.35,-264.33 1144.88,-260.89 727.39,-229 638.91,-222.24 539,-207.82 466.92,-196.19"/>
<polygon fill="black" stroke="black" points="467.37,-192.72 456.94,-194.57 466.25,-199.63 467.37,-192.72"/>
<text text-anchor="middle" x="743.89" y="-217.8" font-family="Times,serif" font-size="14.00">uses</text>
</g>
<!-- id -->
<g id="node4" class="node">
<title>id</title>
<ellipse fill="none" stroke="blue" cx="648.39" cy="-178" rx="38.19" ry="18"/>
<text text-anchor="middle" x="648.39" y="-174.3" font-family="Times,serif" font-size="14.00">string</text>
</g>
<!-- exposure event to phenotypic feature association&#45;&gt;id -->
<g id="edge3" class="edge">
<title>exposure event to phenotypic feature association&#45;&gt;id</title>
<path fill="none" stroke="blue" d="M2905.68,-262.93C2360.89,-260.12 1053.66,-251.13 854.39,-229 783.1,-221.08 765.47,-215.35 696.39,-196 693.29,-195.13 690.09,-194.16 686.89,-193.14"/>
<polygon fill="blue" stroke="blue" points="687.98,-189.81 677.38,-189.97 685.76,-196.46 687.98,-189.81"/>
<text text-anchor="middle" x="861.39" y="-217.8" font-family="Times,serif" font-size="14.00">id</text>
</g>
<!-- iri -->
<g id="node5" class="node">
<title>iri</title>
<ellipse fill="none" stroke="blue" cx="749.39" cy="-178" rx="44.39" ry="18"/>
<text text-anchor="middle" x="749.39" y="-174.3" font-family="Times,serif" font-size="14.00">iri type</text>
</g>
<!-- exposure event to phenotypic feature association&#45;&gt;iri -->
<g id="edge4" class="edge">
<title>exposure event to phenotypic feature association&#45;&gt;iri</title>
<path fill="none" stroke="blue" d="M2905.59,-262.94C2377.78,-260.19 1139.94,-251.41 950.39,-229 894.92,-222.44 832.76,-205.43 792.46,-193.07"/>
<polygon fill="blue" stroke="blue" points="793.29,-189.66 782.7,-190.04 791.21,-196.35 793.29,-189.66"/>
<text text-anchor="middle" x="958.39" y="-217.8" font-family="Times,serif" font-size="14.00">iri</text>
</g>
<!-- name -->
<g id="node6" class="node">
<title>name</title>
<ellipse fill="none" stroke="blue" cx="868.39" cy="-178" rx="56.59" ry="18"/>
<text text-anchor="middle" x="868.39" y="-174.3" font-family="Times,serif" font-size="14.00">label type</text>
</g>
<!-- exposure event to phenotypic feature association&#45;&gt;name -->
<g id="edge5" class="edge">
<title>exposure event to phenotypic feature association&#45;&gt;name</title>
<path fill="none" stroke="blue" d="M2904.51,-263.74C2391.16,-262.65 1214.57,-257.08 1034.39,-229 992.08,-222.41 945.52,-207.7 912.51,-195.93"/>
<polygon fill="blue" stroke="blue" points="913.32,-192.5 902.72,-192.39 910.93,-199.08 913.32,-192.5"/>
<text text-anchor="middle" x="1054.39" y="-217.8" font-family="Times,serif" font-size="14.00">name</text>
</g>
<!-- description -->
<g id="node7" class="node">
<title>description</title>
<ellipse fill="none" stroke="blue" cx="1018.39" cy="-178" rx="75.29" ry="18"/>
<text text-anchor="middle" x="1018.39" y="-174.3" font-family="Times,serif" font-size="14.00">narrative text</text>
</g>
<!-- exposure event to phenotypic feature association&#45;&gt;description -->
<g id="edge6" class="edge">
<title>exposure event to phenotypic feature association&#45;&gt;description</title>
<path fill="none" stroke="blue" d="M2905.77,-262.73C2389.09,-259.58 1202.69,-250.1 1117.39,-229 1094.1,-223.24 1070.03,-211.24 1051.45,-200.44"/>
<polygon fill="blue" stroke="blue" points="1053.18,-197.4 1042.8,-195.27 1049.59,-203.4 1053.18,-197.4"/>
<text text-anchor="middle" x="1157.89" y="-217.8" font-family="Times,serif" font-size="14.00">description</text>
</g>
<!-- has attribute -->
<g id="node8" class="node">
<title>has attribute</title>
<ellipse fill="none" stroke="blue" cx="1163.39" cy="-178" rx="51.99" ry="18"/>
<text text-anchor="middle" x="1163.39" y="-174.3" font-family="Times,serif" font-size="14.00">attribute</text>
</g>
<!-- exposure event to phenotypic feature association&#45;&gt;has attribute -->
<g id="edge7" class="edge">
<title>exposure event to phenotypic feature association&#45;&gt;has attribute</title>
<path fill="none" stroke="blue" d="M2904.81,-263.52C2409.31,-261.99 1308.15,-255.61 1230.39,-229 1214.22,-223.46 1198.74,-212.43 1186.74,-202.14"/>
<polygon fill="blue" stroke="blue" points="1188.81,-199.29 1179.03,-195.21 1184.13,-204.49 1188.81,-199.29"/>
<text text-anchor="middle" x="1277.39" y="-217.8" font-family="Times,serif" font-size="14.00">has attribute</text>
</g>
<!-- predicate -->
<g id="node9" class="node">
<title>predicate</title>
<ellipse fill="none" stroke="blue" cx="1311.39" cy="-178" rx="77.99" ry="18"/>
<text text-anchor="middle" x="1311.39" y="-174.3" font-family="Times,serif" font-size="14.00">predicate type</text>
</g>
<!-- exposure event to phenotypic feature association&#45;&gt;predicate -->
<g id="edge8" class="edge">
<title>exposure event to phenotypic feature association&#45;&gt;predicate</title>
<path fill="none" stroke="blue" d="M2906.9,-262.28C2426.12,-258.41 1376.99,-247.81 1343.39,-229 1333.95,-223.71 1326.87,-214.35 1321.81,-205.15"/>
<polygon fill="blue" stroke="blue" points="1324.94,-203.59 1317.4,-196.15 1318.66,-206.67 1324.94,-203.59"/>
<text text-anchor="middle" x="1377.39" y="-217.8" font-family="Times,serif" font-size="14.00">predicate</text>
</g>
<!-- object -->
<g id="node10" class="node">
<title>object</title>
<ellipse fill="none" stroke="blue" cx="4884.39" cy="-91" rx="69.59" ry="18"/>
<text text-anchor="middle" x="4884.39" y="-87.3" font-family="Times,serif" font-size="14.00">named thing</text>
</g>
<!-- exposure event to phenotypic feature association&#45;&gt;object -->
<g id="edge9" class="edge">
<title>exposure event to phenotypic feature association&#45;&gt;object</title>
<path fill="none" stroke="blue" d="M2904.49,-264C2534.07,-263.09 1838.13,-257.47 1591.39,-229 1515.68,-220.26 1381.03,-214.42 1434.39,-160 1495.36,-97.82 4293.34,-92.5 4804.63,-92.04"/>
<polygon fill="blue" stroke="blue" points="4804.86,-95.54 4814.86,-92.03 4804.86,-88.54 4804.86,-95.54"/>
<text text-anchor="middle" x="1456.39" y="-174.3" font-family="Times,serif" font-size="14.00">object</text>
</g>
<!-- negated -->
<g id="node11" class="node">
<title>negated</title>
<ellipse fill="none" stroke="blue" cx="1534.39" cy="-178" rx="46.59" ry="18"/>
<text text-anchor="middle" x="1534.39" y="-174.3" font-family="Times,serif" font-size="14.00">boolean</text>
</g>
<!-- exposure event to phenotypic feature association&#45;&gt;negated -->
<g id="edge10" class="edge">
<title>exposure event to phenotypic feature association&#45;&gt;negated</title>
<path fill="none" stroke="blue" d="M2904.44,-264.13C2510.15,-263.5 1754.75,-258.39 1635.39,-229 1610.79,-222.94 1585.24,-210.22 1565.99,-199.12"/>
<polygon fill="blue" stroke="blue" points="1567.73,-196.09 1557.35,-194.01 1564.17,-202.11 1567.73,-196.09"/>
<text text-anchor="middle" x="1664.39" y="-217.8" font-family="Times,serif" font-size="14.00">negated</text>
</g>
<!-- qualifier -->
<g id="node12" class="node">
<title>qualifier</title>
<ellipse fill="none" stroke="blue" cx="1637.39" cy="-178" rx="38.19" ry="18"/>
<text text-anchor="middle" x="1637.39" y="-174.3" font-family="Times,serif" font-size="14.00">string</text>
</g>
<!-- exposure event to phenotypic feature association&#45;&gt;qualifier -->
<g id="edge11" class="edge">
<title>exposure event to phenotypic feature association&#45;&gt;qualifier</title>
<path fill="none" stroke="blue" d="M2904.42,-263.78C2532.43,-262.56 1846.03,-256.56 1736.39,-229 1711.84,-222.83 1686.39,-209.81 1667.45,-198.6"/>
<polygon fill="blue" stroke="blue" points="1669.06,-195.49 1658.7,-193.28 1665.43,-201.47 1669.06,-195.49"/>
<text text-anchor="middle" x="1766.39" y="-217.8" font-family="Times,serif" font-size="14.00">qualifier</text>
</g>
<!-- qualifiers -->
<g id="node13" class="node">
<title>qualifiers</title>
<ellipse fill="none" stroke="blue" cx="1770.39" cy="-178" rx="76.89" ry="18"/>
<text text-anchor="middle" x="1770.39" y="-174.3" font-family="Times,serif" font-size="14.00">ontology class</text>
</g>
<!-- exposure event to phenotypic feature association&#45;&gt;qualifiers -->
<g id="edge12" class="edge">
<title>exposure event to phenotypic feature association&#45;&gt;qualifiers</title>
<path fill="none" stroke="blue" d="M2906.96,-262.15C2540.32,-258.65 1871.37,-249.49 1822.39,-229 1809.45,-223.59 1797.87,-213.33 1788.95,-203.51"/>
<polygon fill="blue" stroke="blue" points="1791.54,-201.16 1782.39,-195.83 1786.22,-205.71 1791.54,-201.16"/>
<text text-anchor="middle" x="1855.89" y="-217.8" font-family="Times,serif" font-size="14.00">qualifiers</text>
</g>
<!-- publications -->
<g id="node14" class="node">
<title>publications</title>
<ellipse fill="none" stroke="blue" cx="1927.39" cy="-178" rx="62.29" ry="18"/>
<text text-anchor="middle" x="1927.39" y="-174.3" font-family="Times,serif" font-size="14.00">publication</text>
</g>
<!-- exposure event to phenotypic feature association&#45;&gt;publications -->
<g id="edge13" class="edge">
<title>exposure event to phenotypic feature association&#45;&gt;publications</title>
<path fill="none" stroke="blue" d="M2908.72,-261.5C2552.57,-257.15 1914.77,-246.87 1897.39,-229 1889.97,-221.37 1893.71,-211.56 1900.7,-202.66"/>
<polygon fill="blue" stroke="blue" points="1903.37,-204.92 1907.47,-195.15 1898.18,-200.23 1903.37,-204.92"/>
<text text-anchor="middle" x="1941.39" y="-217.8" font-family="Times,serif" font-size="14.00">publications</text>
</g>
<!-- has evidence -->
<g id="node15" class="node">
<title>has evidence</title>
<ellipse fill="none" stroke="blue" cx="2083.39" cy="-178" rx="75.29" ry="18"/>
<text text-anchor="middle" x="2083.39" y="-174.3" font-family="Times,serif" font-size="14.00">evidence type</text>
</g>
<!-- exposure event to phenotypic feature association&#45;&gt;has evidence -->
<g id="edge14" class="edge">
<title>exposure event to phenotypic feature association&#45;&gt;has evidence</title>
<path fill="none" stroke="blue" d="M2910.05,-260.93C2578.77,-256.01 2010.12,-245.22 1994.39,-229 1979.97,-214.13 1997.28,-202.41 2020.34,-194.07"/>
<polygon fill="blue" stroke="blue" points="2021.75,-197.29 2030.13,-190.82 2019.54,-190.65 2021.75,-197.29"/>
<text text-anchor="middle" x="2040.89" y="-217.8" font-family="Times,serif" font-size="14.00">has evidence</text>
</g>
<!-- knowledge source -->
<g id="node16" class="node">
<title>knowledge source</title>
<ellipse fill="none" stroke="blue" cx="2215.39" cy="-178" rx="38.19" ry="18"/>
<text text-anchor="middle" x="2215.39" y="-174.3" font-family="Times,serif" font-size="14.00">string</text>
</g>
<!-- exposure event to phenotypic feature association&#45;&gt;knowledge source -->
<g id="edge15" class="edge">
<title>exposure event to phenotypic feature association&#45;&gt;knowledge source</title>
<path fill="none" stroke="blue" d="M2904.09,-264.31C2603.16,-263.5 2122.14,-257.68 2094.39,-229 2089.76,-224.21 2090.28,-219.25 2094.39,-214 2115,-187.69 2135.38,-205.59 2167.39,-196 2170.49,-195.07 2173.67,-194.07 2176.86,-193.02"/>
<polygon fill="blue" stroke="blue" points="2178.01,-196.33 2186.35,-189.8 2175.76,-189.7 2178.01,-196.33"/>
<text text-anchor="middle" x="2158.89" y="-217.8" font-family="Times,serif" font-size="14.00">knowledge source</text>
</g>
<!-- primary knowledge source -->
<g id="node17" class="node">
<title>primary knowledge source</title>
<ellipse fill="none" stroke="blue" cx="2310.39" cy="-178" rx="38.19" ry="18"/>
<text text-anchor="middle" x="2310.39" y="-174.3" font-family="Times,serif" font-size="14.00">string</text>
</g>
<!-- exposure event to phenotypic feature association&#45;&gt;primary knowledge source -->
<g id="edge16" class="edge">
<title>exposure event to phenotypic feature association&#45;&gt;primary knowledge source</title>
<path fill="none" stroke="blue" d="M2905.61,-262.98C2642.92,-260.64 2253.6,-253.11 2230.39,-229 2225.77,-224.2 2226.75,-219.58 2230.39,-214 2233.03,-209.97 2252.8,-201.3 2272.02,-193.6"/>
<polygon fill="blue" stroke="blue" points="2273.32,-196.85 2281.33,-189.93 2270.75,-190.34 2273.32,-196.85"/>
<text text-anchor="middle" x="2325.39" y="-217.8" font-family="Times,serif" font-size="14.00">primary knowledge source</text>
</g>
<!-- aggregator knowledge source -->
<g id="node18" class="node">
<title>aggregator knowledge source</title>
<ellipse fill="none" stroke="blue" cx="2405.39" cy="-178" rx="38.19" ry="18"/>
<text text-anchor="middle" x="2405.39" y="-174.3" font-family="Times,serif" font-size="14.00">string</text>
</g>
<!-- exposure event to phenotypic feature association&#45;&gt;aggregator knowledge source -->
<g id="edge17" class="edge">
<title>exposure event to phenotypic feature association&#45;&gt;aggregator knowledge source</title>
<path fill="none" stroke="blue" d="M2906.04,-262.59C2717.76,-259.74 2479.71,-251.64 2439.39,-229 2429.78,-223.6 2422.34,-214.22 2416.9,-205.03"/>
<polygon fill="blue" stroke="blue" points="2419.91,-203.24 2412.12,-196.06 2413.73,-206.53 2419.91,-203.24"/>
<text text-anchor="middle" x="2545.89" y="-217.8" font-family="Times,serif" font-size="14.00">aggregator knowledge source</text>
</g>
<!-- timepoint -->
<g id="node19" class="node">
<title>timepoint</title>
<ellipse fill="none" stroke="blue" cx="2630.39" cy="-178" rx="55.49" ry="18"/>
<text text-anchor="middle" x="2630.39" y="-174.3" font-family="Times,serif" font-size="14.00">time type</text>
</g>
<!-- exposure event to phenotypic feature association&#45;&gt;timepoint -->
<g id="edge18" class="edge">
<title>exposure event to phenotypic feature association&#45;&gt;timepoint</title>
<path fill="none" stroke="blue" d="M2938.32,-255.71C2823.91,-249.83 2699.6,-240.88 2675.39,-229 2664.04,-223.43 2654.24,-213.62 2646.71,-204.17"/>
<polygon fill="blue" stroke="blue" points="2649.47,-202 2640.7,-196.06 2643.85,-206.17 2649.47,-202"/>
<text text-anchor="middle" x="2710.39" y="-217.8" font-family="Times,serif" font-size="14.00">timepoint</text>
</g>
<!-- original subject -->
<g id="node20" class="node">
<title>original subject</title>
<ellipse fill="none" stroke="blue" cx="2742.39" cy="-178" rx="38.19" ry="18"/>
<text text-anchor="middle" x="2742.39" y="-174.3" font-family="Times,serif" font-size="14.00">string</text>
</g>
<!-- exposure event to phenotypic feature association&#45;&gt;original subject -->
<g id="edge19" class="edge">
<title>exposure event to phenotypic feature association&#45;&gt;original subject</title>
<path fill="none" stroke="blue" d="M2943.01,-255.14C2858.06,-249.64 2774.94,-241.24 2759.39,-229 2752.25,-223.37 2748.09,-214.6 2745.67,-205.97"/>
<polygon fill="blue" stroke="blue" points="2749.07,-205.14 2743.56,-196.09 2742.23,-206.6 2749.07,-205.14"/>
<text text-anchor="middle" x="2815.39" y="-217.8" font-family="Times,serif" font-size="14.00">original subject</text>
</g>
<!-- original predicate -->
<g id="node21" class="node">
<title>original predicate</title>
<ellipse fill="none" stroke="blue" cx="2867.39" cy="-178" rx="57.39" ry="18"/>
<text text-anchor="middle" x="2867.39" y="-174.3" font-family="Times,serif" font-size="14.00">uriorcurie</text>
</g>
<!-- exposure event to phenotypic feature association&#45;&gt;original predicate -->
<g id="edge20" class="edge">
<title>exposure event to phenotypic feature association&#45;&gt;original predicate</title>
<path fill="none" stroke="blue" d="M2963.85,-253.04C2929.16,-247.86 2899.28,-240.23 2885.39,-229 2878.38,-223.33 2874.1,-214.7 2871.49,-206.2"/>
<polygon fill="blue" stroke="blue" points="2874.88,-205.35 2869.12,-196.46 2868.08,-207 2874.88,-205.35"/>
<text text-anchor="middle" x="2948.89" y="-217.8" font-family="Times,serif" font-size="14.00">original predicate</text>
</g>
<!-- original object -->
<g id="node22" class="node">
<title>original object</title>
<ellipse fill="none" stroke="blue" cx="2996.39" cy="-178" rx="38.19" ry="18"/>
<text text-anchor="middle" x="2996.39" y="-174.3" font-family="Times,serif" font-size="14.00">string</text>
</g>
<!-- exposure event to phenotypic feature association&#45;&gt;original object -->
<g id="edge21" class="edge">
<title>exposure event to phenotypic feature association&#45;&gt;original object</title>
<path fill="none" stroke="blue" d="M3065.4,-247.98C3052.62,-243.2 3040.08,-237 3029.39,-229 3020.99,-222.71 3014.08,-213.6 3008.8,-204.89"/>
<polygon fill="blue" stroke="blue" points="3011.81,-203.1 3003.89,-196.07 3005.7,-206.51 3011.81,-203.1"/>
<text text-anchor="middle" x="3080.89" y="-217.8" font-family="Times,serif" font-size="14.00">original object</text>
</g>
<!-- subject category -->
<g id="node23" class="node">
<title>subject category</title>
<ellipse fill="none" stroke="blue" cx="3129.39" cy="-178" rx="76.89" ry="18"/>
<text text-anchor="middle" x="3129.39" y="-174.3" font-family="Times,serif" font-size="14.00">ontology class</text>
</g>
<!-- exposure event to phenotypic feature association&#45;&gt;subject category -->
<g id="edge22" class="edge">
<title>exposure event to phenotypic feature association&#45;&gt;subject category</title>
<path fill="none" stroke="blue" d="M3140.56,-246.8C3138.64,-235.16 3136.07,-219.55 3133.88,-206.24"/>
<polygon fill="blue" stroke="blue" points="3137.3,-205.47 3132.22,-196.18 3130.4,-206.61 3137.3,-205.47"/>
<text text-anchor="middle" x="3196.89" y="-217.8" font-family="Times,serif" font-size="14.00">subject category</text>
</g>
<!-- object category -->
<g id="node24" class="node">
<title>object category</title>
<ellipse fill="none" stroke="blue" cx="3300.39" cy="-178" rx="76.89" ry="18"/>
<text text-anchor="middle" x="3300.39" y="-174.3" font-family="Times,serif" font-size="14.00">ontology class</text>
</g>
<!-- exposure event to phenotypic feature association&#45;&gt;object category -->
<g id="edge23" class="edge">
<title>exposure event to phenotypic feature association&#45;&gt;object category</title>
<path fill="none" stroke="blue" d="M3221.29,-247.93C3234.99,-243.13 3248.62,-236.94 3260.39,-229 3269.89,-222.59 3278.23,-213.24 3284.79,-204.35"/>
<polygon fill="blue" stroke="blue" points="3287.7,-206.3 3290.53,-196.09 3281.95,-202.31 3287.7,-206.3"/>
<text text-anchor="middle" x="3331.89" y="-217.8" font-family="Times,serif" font-size="14.00">object category</text>
</g>
<!-- subject closure -->
<g id="node25" class="node">
<title>subject closure</title>
<ellipse fill="none" stroke="blue" cx="3433.39" cy="-178" rx="38.19" ry="18"/>
<text text-anchor="middle" x="3433.39" y="-174.3" font-family="Times,serif" font-size="14.00">string</text>
</g>
<!-- exposure event to phenotypic feature association&#45;&gt;subject closure -->
<g id="edge24" class="edge">
<title>exposure event to phenotypic feature association&#45;&gt;subject closure</title>
<path fill="none" stroke="blue" d="M3297.12,-251.21C3337.15,-245.91 3373.95,-238.67 3391.39,-229 3402.02,-223.11 3411.11,-213.39 3418.09,-204.07"/>
<polygon fill="blue" stroke="blue" points="3421.04,-205.96 3423.89,-195.75 3415.3,-201.96 3421.04,-205.96"/>
<text text-anchor="middle" x="3463.89" y="-217.8" font-family="Times,serif" font-size="14.00">subject closure</text>
</g>
<!-- object closure -->
<g id="node26" class="node">
<title>object closure</title>
<ellipse fill="none" stroke="blue" cx="3546.39" cy="-178" rx="38.19" ry="18"/>
<text text-anchor="middle" x="3546.39" y="-174.3" font-family="Times,serif" font-size="14.00">string</text>
</g>
<!-- exposure event to phenotypic feature association&#45;&gt;object closure -->
<g id="edge25" class="edge">
<title>exposure event to phenotypic feature association&#45;&gt;object closure</title>
<path fill="none" stroke="blue" d="M3311.5,-252.18C3408.54,-244.73 3513.25,-235.36 3522.39,-229 3530.32,-223.49 3535.72,-214.62 3539.35,-205.88"/>
<polygon fill="blue" stroke="blue" points="3542.73,-206.84 3542.75,-196.24 3536.13,-204.51 3542.73,-206.84"/>
<text text-anchor="middle" x="3585.39" y="-217.8" font-family="Times,serif" font-size="14.00">object closure</text>
</g>
<!-- subject category closure -->
<g id="node27" class="node">
<title>subject category closure</title>
<ellipse fill="none" stroke="blue" cx="3679.39" cy="-178" rx="76.89" ry="18"/>
<text text-anchor="middle" x="3679.39" y="-174.3" font-family="Times,serif" font-size="14.00">ontology class</text>
</g>
<!-- exposure event to phenotypic feature association&#45;&gt;subject category closure -->
<g id="edge26" class="edge">
<title>exposure event to phenotypic feature association&#45;&gt;subject category closure</title>
<path fill="none" stroke="blue" d="M3313.92,-252.36C3456.69,-242.56 3637.55,-229.97 3639.39,-229 3649.84,-223.52 3658.5,-213.99 3665.05,-204.72"/>
<polygon fill="blue" stroke="blue" points="3668.18,-206.33 3670.69,-196.04 3662.31,-202.52 3668.18,-206.33"/>
<text text-anchor="middle" x="3744.89" y="-217.8" font-family="Times,serif" font-size="14.00">subject category closure</text>
</g>
<!-- object category closure -->
<g id="node28" class="node">
<title>object category closure</title>
<ellipse fill="none" stroke="blue" cx="3872.39" cy="-178" rx="76.89" ry="18"/>
<text text-anchor="middle" x="3872.39" y="-174.3" font-family="Times,serif" font-size="14.00">ontology class</text>
</g>
<!-- exposure event to phenotypic feature association&#45;&gt;object category closure -->
<g id="edge27" class="edge">
<title>exposure event to phenotypic feature association&#45;&gt;object category closure</title>
<path fill="none" stroke="blue" d="M3309.44,-252.02C3337.13,-250.21 3365.57,-248.46 3392.39,-247 3441.7,-244.32 3792.92,-252.4 3836.39,-229 3846.39,-223.62 3854.28,-214.11 3860.1,-204.82"/>
<polygon fill="blue" stroke="blue" points="3863.14,-206.55 3865.04,-196.12 3857.06,-203.09 3863.14,-206.55"/>
<text text-anchor="middle" x="3936.89" y="-217.8" font-family="Times,serif" font-size="14.00">object category closure</text>
</g>
<!-- subject namespace -->
<g id="node29" class="node">
<title>subject namespace</title>
<ellipse fill="none" stroke="blue" cx="4062.39" cy="-178" rx="38.19" ry="18"/>
<text text-anchor="middle" x="4062.39" y="-174.3" font-family="Times,serif" font-size="14.00">string</text>
</g>
<!-- exposure event to phenotypic feature association&#45;&gt;subject namespace -->
<g id="edge28" class="edge">
<title>exposure event to phenotypic feature association&#45;&gt;subject namespace</title>
<path fill="none" stroke="blue" d="M3307.42,-251.87C3335.74,-250.04 3364.91,-248.33 3392.39,-247 3427.48,-245.3 3993.15,-245.05 4024.39,-229 4034.83,-223.64 4043.21,-213.95 4049.41,-204.52"/>
<polygon fill="blue" stroke="blue" points="4052.55,-206.08 4054.69,-195.7 4046.55,-202.48 4052.55,-206.08"/>
<text text-anchor="middle" x="4109.39" y="-217.8" font-family="Times,serif" font-size="14.00">subject namespace</text>
</g>
<!-- object namespace -->
<g id="node30" class="node">
<title>object namespace</title>
<ellipse fill="none" stroke="blue" cx="4221.39" cy="-178" rx="38.19" ry="18"/>
<text text-anchor="middle" x="4221.39" y="-174.3" font-family="Times,serif" font-size="14.00">string</text>
</g>
<!-- exposure event to phenotypic feature association&#45;&gt;object namespace -->
<g id="edge29" class="edge">
<title>exposure event to phenotypic feature association&#45;&gt;object namespace</title>
<path fill="none" stroke="blue" d="M3306.41,-251.81C3335.05,-249.97 3364.58,-248.27 3392.39,-247 3436.19,-245.01 4142.1,-248.44 4181.39,-229 4192.23,-223.64 4201.07,-213.82 4207.67,-204.28"/>
<polygon fill="blue" stroke="blue" points="4210.68,-206.07 4213.08,-195.75 4204.77,-202.32 4210.68,-206.07"/>
<text text-anchor="middle" x="4263.39" y="-217.8" font-family="Times,serif" font-size="14.00">object namespace</text>
</g>
<!-- subject label closure -->
<g id="node31" class="node">
<title>subject label closure</title>
<ellipse fill="none" stroke="blue" cx="4372.39" cy="-178" rx="38.19" ry="18"/>
<text text-anchor="middle" x="4372.39" y="-174.3" font-family="Times,serif" font-size="14.00">string</text>
</g>
<!-- exposure event to phenotypic feature association&#45;&gt;subject label closure -->
<g id="edge30" class="edge">
<title>exposure event to phenotypic feature association&#45;&gt;subject label closure</title>
<path fill="none" stroke="blue" d="M3305.73,-251.76C3334.59,-249.92 3364.37,-248.22 3392.39,-247 3444.52,-244.72 4284.45,-251.77 4331.39,-229 4342.38,-223.67 4351.42,-213.85 4358.2,-204.32"/>
<polygon fill="blue" stroke="blue" points="4361.24,-206.06 4363.78,-195.78 4355.38,-202.24 4361.24,-206.06"/>
<text text-anchor="middle" x="4423.39" y="-217.8" font-family="Times,serif" font-size="14.00">subject label closure</text>
</g>
<!-- object label closure -->
<g id="node32" class="node">
<title>object label closure</title>
<ellipse fill="none" stroke="blue" cx="4492.39" cy="-178" rx="38.19" ry="18"/>
<text text-anchor="middle" x="4492.39" y="-174.3" font-family="Times,serif" font-size="14.00">string</text>
</g>
<!-- exposure event to phenotypic feature association&#45;&gt;object label closure -->
<g id="edge31" class="edge">
<title>exposure event to phenotypic feature association&#45;&gt;object label closure</title>
<path fill="none" stroke="blue" d="M3305.4,-251.72C3334.35,-249.87 3364.26,-248.19 3392.39,-247 3423.18,-245.7 4479.79,-250.96 4501.39,-229 4507.6,-222.7 4507.56,-213.66 4505.22,-205"/>
<polygon fill="blue" stroke="blue" points="4508.5,-203.76 4501.81,-195.55 4501.91,-206.14 4508.5,-203.76"/>
<text text-anchor="middle" x="4576.89" y="-217.8" font-family="Times,serif" font-size="14.00">object label closure</text>
</g>
<!-- retrieval source ids -->
<g id="node33" class="node">
<title>retrieval source ids</title>
<ellipse fill="none" stroke="blue" cx="4633.39" cy="-178" rx="84.49" ry="18"/>
<text text-anchor="middle" x="4633.39" y="-174.3" font-family="Times,serif" font-size="14.00">retrieval source</text>
</g>
<!-- exposure event to phenotypic feature association&#45;&gt;retrieval source ids -->
<g id="edge32" class="edge">
<title>exposure event to phenotypic feature association&#45;&gt;retrieval source ids</title>
<path fill="none" stroke="blue" d="M3305.06,-251.69C3334.12,-249.84 3364.15,-248.17 3392.39,-247 3409.85,-246.28 4638.13,-241.44 4650.39,-229 4656.82,-222.48 4655.65,-213.44 4651.82,-204.83"/>
<polygon fill="blue" stroke="blue" points="4654.75,-202.89 4646.87,-195.81 4648.61,-206.26 4654.75,-202.89"/>
<text text-anchor="middle" x="4724.89" y="-217.8" font-family="Times,serif" font-size="14.00">retrieval source ids</text>
</g>
<!-- type -->
<g id="node34" class="node">
<title>type</title>
<ellipse fill="none" stroke="black" cx="4767.39" cy="-178" rx="31.4" ry="18"/>
<text text-anchor="middle" x="4767.39" y="-174.3" font-family="Times,serif" font-size="14.00">type</text>
</g>
<!-- exposure event to phenotypic feature association&#45;&gt;type -->
<g id="edge33" class="edge">
<title>exposure event to phenotypic feature association&#45;&gt;type</title>
<path fill="none" stroke="blue" d="M3304.73,-251.68C3333.89,-249.82 3364.04,-248.15 3392.39,-247 3411.91,-246.21 4784.67,-242.9 4798.39,-229 4806.66,-220.63 4801.21,-209.66 4792.71,-200.14"/>
<polygon fill="blue" stroke="blue" points="4795,-197.47 4785.45,-192.88 4790.05,-202.43 4795,-197.47"/>
<text text-anchor="middle" x="4819.39" y="-217.8" font-family="Times,serif" font-size="14.00">type</text>
</g>
<!-- category -->
<g id="node36" class="node">
<title>category</title>
<ellipse fill="none" stroke="black" cx="4868.39" cy="-178" rx="51.19" ry="18"/>
<text text-anchor="middle" x="4868.39" y="-174.3" font-family="Times,serif" font-size="14.00">category</text>
</g>
<!-- exposure event to phenotypic feature association&#45;&gt;category -->
<g id="edge34" class="edge">
<title>exposure event to phenotypic feature association&#45;&gt;category</title>
<path fill="none" stroke="blue" d="M3304.72,-251.67C3333.89,-249.81 3364.04,-248.14 3392.39,-247 3432.56,-245.38 4804.69,-249.28 4839.39,-229 4848.4,-223.74 4854.87,-214.51 4859.38,-205.4"/>
<polygon fill="blue" stroke="blue" points="4862.64,-206.7 4863.4,-196.13 4856.21,-203.91 4862.64,-206.7"/>
<text text-anchor="middle" x="4885.89" y="-217.8" font-family="Times,serif" font-size="14.00">category</text>
</g>
<!-- subject -->
<g id="node38" class="node">
<title>subject</title>
<ellipse fill="none" stroke="black" cx="4982.39" cy="-178" rx="44.39" ry="18"/>
<text text-anchor="middle" x="4982.39" y="-174.3" font-family="Times,serif" font-size="14.00">subject</text>
</g>
<!-- exposure event to phenotypic feature association&#45;&gt;subject -->
<g id="edge35" class="edge">
<title>exposure event to phenotypic feature association&#45;&gt;subject</title>
<path fill="none" stroke="blue" d="M3304.39,-251.67C3333.66,-249.81 3363.93,-248.14 3392.39,-247 3434.84,-245.3 4881.48,-243.53 4921.39,-229 4936.3,-223.57 4950.21,-212.81 4960.97,-202.66"/>
<polygon fill="blue" stroke="blue" points="4963.59,-204.99 4968.22,-195.46 4958.66,-200.03 4963.59,-204.99"/>
<text text-anchor="middle" x="4974.39" y="-217.8" font-family="Times,serif" font-size="14.00">subject</text>
</g>
<!-- frequency qualifier -->
<g id="node40" class="node">
<title>frequency qualifier</title>
<ellipse fill="none" stroke="blue" cx="5129.39" cy="-178" rx="85.29" ry="18"/>
<text text-anchor="middle" x="5129.39" y="-174.3" font-family="Times,serif" font-size="14.00">frequency value</text>
</g>
<!-- exposure event to phenotypic feature association&#45;&gt;frequency qualifier -->
<g id="edge36" class="edge">
<title>exposure event to phenotypic feature association&#45;&gt;frequency qualifier</title>
<path fill="none" stroke="blue" d="M3304.39,-251.66C3333.66,-249.8 3363.93,-248.13 3392.39,-247 3481.89,-243.45 4916.55,-246.43 5004.39,-229 5034.15,-223.1 5065.86,-210.33 5089.89,-199.18"/>
<polygon fill="blue" stroke="blue" points="5091.5,-202.29 5099.04,-194.84 5088.5,-195.96 5091.5,-202.29"/>
<text text-anchor="middle" x="5122.39" y="-217.8" font-family="Times,serif" font-size="14.00">frequency qualifier</text>
</g>
<!-- severity qualifier -->
<g id="node41" class="node">
<title>severity qualifier</title>
<ellipse fill="none" stroke="blue" cx="5308.39" cy="-178" rx="76.09" ry="18"/>
<text text-anchor="middle" x="5308.39" y="-174.3" font-family="Times,serif" font-size="14.00">severity value</text>
</g>
<!-- exposure event to phenotypic feature association&#45;&gt;severity qualifier -->
<g id="edge37" class="edge">
<title>exposure event to phenotypic feature association&#45;&gt;severity qualifier</title>
<path fill="none" stroke="blue" d="M3304.05,-251.65C3333.43,-249.79 3363.82,-248.12 3392.39,-247 3492.43,-243.09 5096.51,-250.03 5194.39,-229 5221.57,-223.16 5250.22,-210.57 5272,-199.48"/>
<polygon fill="blue" stroke="blue" points="5273.64,-202.57 5280.89,-194.84 5270.4,-196.36 5273.64,-202.57"/>
<text text-anchor="middle" x="5301.39" y="-217.8" font-family="Times,serif" font-size="14.00">severity qualifier</text>
</g>
<!-- onset qualifier -->
<g id="node42" class="node">
<title>onset qualifier</title>
<ellipse fill="none" stroke="blue" cx="5438.39" cy="-178" rx="36.29" ry="18"/>
<text text-anchor="middle" x="5438.39" y="-174.3" font-family="Times,serif" font-size="14.00">onset</text>
</g>
<!-- exposure event to phenotypic feature association&#45;&gt;onset qualifier -->
<g id="edge38" class="edge">
<title>exposure event to phenotypic feature association&#45;&gt;onset qualifier</title>
<path fill="none" stroke="blue" d="M3304.05,-251.63C3333.43,-249.77 3363.82,-248.1 3392.39,-247 3447.19,-244.88 5314.14,-245.63 5366.39,-229 5384.29,-223.31 5401.66,-211.49 5414.86,-200.77"/>
<polygon fill="blue" stroke="blue" points="5417.13,-203.43 5422.5,-194.3 5412.6,-198.09 5417.13,-203.43"/>
<text text-anchor="middle" x="5447.89" y="-217.8" font-family="Times,serif" font-size="14.00">onset qualifier</text>
</g>
<!-- sex qualifier -->
<g id="node43" class="node">
<title>sex qualifier</title>
<ellipse fill="none" stroke="blue" cx="5566.39" cy="-178" rx="73.39" ry="18"/>
<text text-anchor="middle" x="5566.39" y="-174.3" font-family="Times,serif" font-size="14.00">biological sex</text>
</g>
<!-- exposure event to phenotypic feature association&#45;&gt;sex qualifier -->
<g id="edge39" class="edge">
<title>exposure event to phenotypic feature association&#45;&gt;sex qualifier</title>
<path fill="none" stroke="blue" d="M3303.72,-251.64C3333.2,-249.77 3363.71,-248.1 3392.39,-247 3450.99,-244.75 5448.1,-248.54 5503.39,-229 5518.44,-223.68 5532.6,-213.15 5543.68,-203.12"/>
<polygon fill="blue" stroke="blue" points="5546.34,-205.42 5551.16,-195.98 5541.51,-200.35 5546.34,-205.42"/>
<text text-anchor="middle" x="5574.39" y="-217.8" font-family="Times,serif" font-size="14.00">sex qualifier</text>
</g>
<!-- has count -->
<g id="node44" class="node">
<title>has count</title>
<ellipse fill="none" stroke="blue" cx="5702.39" cy="-178" rx="44.39" ry="18"/>
<text text-anchor="middle" x="5702.39" y="-174.3" font-family="Times,serif" font-size="14.00">integer</text>
</g>
<!-- exposure event to phenotypic feature association&#45;&gt;has count -->
<g id="edge40" class="edge">
<title>exposure event to phenotypic feature association&#45;&gt;has count</title>
<path fill="none" stroke="blue" d="M3303.72,-251.63C3333.2,-249.76 3363.71,-248.09 3392.39,-247 3454.3,-244.64 5562.92,-246.32 5622.39,-229 5641.85,-223.34 5661.18,-211.47 5675.97,-200.72"/>
<polygon fill="blue" stroke="blue" points="5678.24,-203.39 5684.12,-194.57 5674.03,-197.8 5678.24,-203.39"/>
<text text-anchor="middle" x="5690.39" y="-217.8" font-family="Times,serif" font-size="14.00">has count</text>
</g>
<!-- has total -->
<g id="node45" class="node">
<title>has total</title>
<ellipse fill="none" stroke="blue" cx="5808.39" cy="-178" rx="44.39" ry="18"/>
<text text-anchor="middle" x="5808.39" y="-174.3" font-family="Times,serif" font-size="14.00">integer</text>
</g>
<!-- exposure event to phenotypic feature association&#45;&gt;has total -->
<g id="edge41" class="edge">
<title>exposure event to phenotypic feature association&#45;&gt;has total</title>
<path fill="none" stroke="blue" d="M3303.72,-251.62C3333.19,-249.75 3363.71,-248.09 3392.39,-247 3457.27,-244.54 5667.11,-247.31 5729.39,-229 5748.66,-223.33 5767.76,-211.47 5782.35,-200.72"/>
<polygon fill="blue" stroke="blue" points="5784.57,-203.42 5790.38,-194.57 5780.31,-197.86 5784.57,-203.42"/>
<text text-anchor="middle" x="5793.89" y="-217.8" font-family="Times,serif" font-size="14.00">has total</text>
</g>
<!-- has quotient -->
<g id="node46" class="node">
<title>has quotient</title>
<ellipse fill="none" stroke="blue" cx="5912.39" cy="-178" rx="42.49" ry="18"/>
<text text-anchor="middle" x="5912.39" y="-174.3" font-family="Times,serif" font-size="14.00">double</text>
</g>
<!-- exposure event to phenotypic feature association&#45;&gt;has quotient -->
<g id="edge42" class="edge">
<title>exposure event to phenotypic feature association&#45;&gt;has quotient</title>
<path fill="none" stroke="blue" d="M3303.72,-251.61C3333.19,-249.75 3363.71,-248.08 3392.39,-247 3460.04,-244.44 5764.24,-247.37 5829.39,-229 5849.56,-223.31 5869.75,-211.33 5885.17,-200.51"/>
<polygon fill="blue" stroke="blue" points="5887.63,-203.05 5893.66,-194.34 5883.51,-197.39 5887.63,-203.05"/>
<text text-anchor="middle" x="5908.39" y="-217.8" font-family="Times,serif" font-size="14.00">has quotient</text>
</g>
<!-- has percentage -->
<g id="node47" class="node">
<title>has percentage</title>
<ellipse fill="none" stroke="blue" cx="6019.39" cy="-178" rx="42.49" ry="18"/>
<text text-anchor="middle" x="6019.39" y="-174.3" font-family="Times,serif" font-size="14.00">double</text>
</g>
<!-- exposure event to phenotypic feature association&#45;&gt;has percentage -->
<g id="edge43" class="edge">
<title>exposure event to phenotypic feature association&#45;&gt;has percentage</title>
<path fill="none" stroke="blue" d="M3303.72,-251.6C3333.19,-249.74 3363.71,-248.08 3392.39,-247 3463.6,-244.32 5890.29,-252.95 5957.39,-229 5972.69,-223.54 5987.01,-212.56 5998.02,-202.28"/>
<polygon fill="blue" stroke="blue" points="6000.74,-204.51 6005.42,-195 5995.84,-199.52 6000.74,-204.51"/>
<text text-anchor="middle" x="6038.39" y="-217.8" font-family="Times,serif" font-size="14.00">has percentage</text>
</g>
<!-- relation -->
<g id="node48" class="node">
<title>relation</title>
<ellipse fill="none" stroke="black" cx="4933.39" cy="-18" rx="46.59" ry="18"/>
<text text-anchor="middle" x="4933.39" y="-14.3" font-family="Times,serif" font-size="14.00">relation</text>
</g>
<!-- object&#45;&gt;relation -->
<g id="edge46" class="edge">
<title>object&#45;&gt;relation</title>
<path fill="none" stroke="black" stroke-dasharray="1,5" d="M4896.01,-73.17C4901.99,-64.51 4909.4,-53.77 4916.04,-44.14"/>
<polygon fill="black" stroke="black" points="4919.07,-45.92 4921.87,-35.71 4913.3,-41.95 4919.07,-45.92"/>
</g>
<!-- association_type -->
<g id="node35" class="node">
<title>association_type</title>
<ellipse fill="none" stroke="blue" cx="3439.39" cy="-265" rx="38.19" ry="18"/>
<text text-anchor="middle" x="3439.39" y="-261.3" font-family="Times,serif" font-size="14.00">string</text>
</g>
<!-- association_category -->
<g id="node37" class="node">
<title>association_category</title>
<ellipse fill="none" stroke="blue" cx="3570.39" cy="-265" rx="74.99" ry="18"/>
<text text-anchor="middle" x="3570.39" y="-261.3" font-family="Times,serif" font-size="14.00">category type</text>
</g>
<!-- subject&#45;&gt;object -->
<g id="edge44" class="edge">
<title>subject&#45;&gt;object</title>
<path fill="none" stroke="black" d="M4949.9,-165.59C4937.13,-159.94 4923.01,-152.13 4912.39,-142 4905.39,-135.31 4899.66,-126.48 4895.25,-118.1"/>
<polygon fill="black" stroke="black" points="4898.34,-116.45 4890.84,-108.97 4892.04,-119.5 4898.34,-116.45"/>
<text text-anchor="middle" x="4940.39" y="-130.8" font-family="Times,serif" font-size="14.00">relation</text>
</g>
<!-- subject&#45;&gt;relation -->
<g id="edge45" class="edge">
<title>subject&#45;&gt;relation</title>
<path fill="none" stroke="black" stroke-dasharray="1,5" d="M4981,-159.99C4978.9,-139.02 4973.98,-102.55 4963.39,-73 4959.91,-63.26 4954.79,-53.19 4949.76,-44.42"/>
<polygon fill="black" stroke="black" points="4952.76,-42.62 4944.63,-35.83 4946.75,-46.21 4952.76,-42.62"/>
</g>
<!-- exposure event to phenotypic feature association_subject -->
<g id="node39" class="node">
<title>exposure event to phenotypic feature association_subject</title>
<ellipse fill="none" stroke="blue" cx="3745.39" cy="-265" rx="81.79" ry="18"/>
<text text-anchor="middle" x="3745.39" y="-261.3" font-family="Times,serif" font-size="14.00">exposure event</text>
</g>
</g>
</svg>
