<?xml version="1.0" encoding="UTF-8" standalone="no"?>
<!DOCTYPE svg PUBLIC "-//W3C//DTD SVG 1.1//EN"
 "http://www.w3.org/Graphics/SVG/1.1/DTD/svg11.dtd">
<!-- Generated by graphviz version 2.43.0 (0)
 -->
<!-- Title: %3 Pages: 1 -->
<svg width="2868pt" height="131pt"
 viewBox="0.00 0.00 2867.99 131.00" xmlns="http://www.w3.org/2000/svg" xmlns:xlink="http://www.w3.org/1999/xlink">
<g id="graph0" class="graph" transform="scale(1 1) rotate(0) translate(4 127)">
<title>%3</title>
<polygon fill="white" stroke="transparent" points="-4,4 -4,-127 2863.99,-127 2863.99,4 -4,4"/>
<!-- food -->
<g id="node1" class="node">
<title>food</title>
<ellipse fill="none" stroke="black" cx="1196.99" cy="-105" rx="30.59" ry="18"/>
<text text-anchor="middle" x="1196.99" y="-101.3" font-family="Times,serif" font-size="14.00">food</text>
</g>
<!-- chemical mixture -->
<g id="node2" class="node">
<title>chemical mixture</title>
<ellipse fill="none" stroke="black" cx="90.99" cy="-18" rx="90.98" ry="18"/>
<text text-anchor="middle" x="90.99" y="-14.3" font-family="Times,serif" font-size="14.00">chemical mixture</text>
</g>
<!-- food&#45;&gt;chemical mixture -->
<g id="edge1" class="edge">
<title>food&#45;&gt;chemical mixture</title>
<path fill="none" stroke="black" d="M1166.48,-103.48C1032.1,-101.07 492.16,-90.26 323.99,-69 265.29,-61.58 199.47,-46.85 152.79,-35.29"/>
<polygon fill="black" stroke="black" points="153.39,-31.83 142.84,-32.8 151.69,-38.62 153.39,-31.83"/>
<text text-anchor="middle" x="337.99" y="-57.8" font-family="Times,serif" font-size="14.00">is_a</text>
</g>
<!-- id -->
<g id="node3" class="node">
<title>id</title>
<ellipse fill="none" stroke="blue" cx="237.99" cy="-18" rx="38.19" ry="18"/>
<text text-anchor="middle" x="237.99" y="-14.3" font-family="Times,serif" font-size="14.00">string</text>
</g>
<!-- food&#45;&gt;id -->
<g id="edge2" class="edge">
<title>food&#45;&gt;id</title>
<path fill="none" stroke="blue" d="M1166.31,-104.34C1063.54,-105.1 722.15,-104.58 442.99,-69 372.26,-59.98 354.64,-55.28 285.99,-36 282.89,-35.13 279.69,-34.16 276.49,-33.14"/>
<polygon fill="blue" stroke="blue" points="277.58,-29.81 266.98,-29.97 275.36,-36.45 277.58,-29.81"/>
<text text-anchor="middle" x="449.99" y="-57.8" font-family="Times,serif" font-size="14.00">id</text>
</g>
<!-- iri -->
<g id="node4" class="node">
<title>iri</title>
<ellipse fill="none" stroke="blue" cx="338.99" cy="-18" rx="44.39" ry="18"/>
<text text-anchor="middle" x="338.99" y="-14.3" font-family="Times,serif" font-size="14.00">iri type</text>
</g>
<!-- food&#45;&gt;iri -->
<g id="edge3" class="edge">
<title>food&#45;&gt;iri</title>
<path fill="none" stroke="blue" d="M1166.16,-104.41C1070.84,-105.25 772.6,-104.62 528.99,-69 477.56,-61.48 420.04,-45.2 381.9,-33.25"/>
<polygon fill="blue" stroke="blue" points="382.75,-29.84 372.16,-30.16 380.63,-36.52 382.75,-29.84"/>
<text text-anchor="middle" x="536.99" y="-57.8" font-family="Times,serif" font-size="14.00">iri</text>
</g>
<!-- type -->
<g id="node5" class="node">
<title>type</title>
<ellipse fill="none" stroke="blue" cx="439.99" cy="-18" rx="38.19" ry="18"/>
<text text-anchor="middle" x="439.99" y="-14.3" font-family="Times,serif" font-size="14.00">string</text>
</g>
<!-- food&#45;&gt;type -->
<g id="edge4" class="edge">
<title>food&#45;&gt;type</title>
<path fill="none" stroke="blue" d="M1166.41,-103.99C1080.56,-103.56 830.17,-99.57 624.99,-69 562.62,-59.71 547.41,-54.09 486.99,-36 484.23,-35.17 481.38,-34.27 478.53,-33.33"/>
<polygon fill="blue" stroke="blue" points="479.5,-29.96 468.91,-30.03 477.23,-36.59 479.5,-29.96"/>
<text text-anchor="middle" x="640.99" y="-57.8" font-family="Times,serif" font-size="14.00">type</text>
</g>
<!-- name -->
<g id="node6" class="node">
<title>name</title>
<ellipse fill="none" stroke="blue" cx="552.99" cy="-18" rx="56.59" ry="18"/>
<text text-anchor="middle" x="552.99" y="-14.3" font-family="Times,serif" font-size="14.00">label type</text>
</g>
<!-- food&#45;&gt;name -->
<g id="edge5" class="edge">
<title>food&#45;&gt;name</title>
<path fill="none" stroke="blue" d="M1166.42,-104C1090.54,-103.52 887.73,-99.26 721.99,-69 679.25,-61.2 631.94,-46.67 598.27,-35.28"/>
<polygon fill="blue" stroke="blue" points="599.31,-31.93 588.71,-32 597.04,-38.55 599.31,-31.93"/>
<text text-anchor="middle" x="741.99" y="-57.8" font-family="Times,serif" font-size="14.00">name</text>
</g>
<!-- description -->
<g id="node7" class="node">
<title>description</title>
<ellipse fill="none" stroke="blue" cx="702.99" cy="-18" rx="75.29" ry="18"/>
<text text-anchor="middle" x="702.99" y="-14.3" font-family="Times,serif" font-size="14.00">narrative text</text>
</g>
<!-- food&#45;&gt;description -->
<g id="edge6" class="edge">
<title>food&#45;&gt;description</title>
<path fill="none" stroke="blue" d="M1166.65,-102.79C1086.48,-99.37 870.51,-88.56 801.99,-69 779.34,-62.54 755.73,-50.83 737.25,-40.37"/>
<polygon fill="blue" stroke="blue" points="738.76,-37.2 728.35,-35.21 735.25,-43.25 738.76,-37.2"/>
<text text-anchor="middle" x="842.49" y="-57.8" font-family="Times,serif" font-size="14.00">description</text>
</g>
<!-- has attribute -->
<g id="node8" class="node">
<title>has attribute</title>
<ellipse fill="none" stroke="blue" cx="847.99" cy="-18" rx="51.99" ry="18"/>
<text text-anchor="middle" x="847.99" y="-14.3" font-family="Times,serif" font-size="14.00">attribute</text>
</g>
<!-- food&#45;&gt;has attribute -->
<g id="edge7" class="edge">
<title>food&#45;&gt;has attribute</title>
<path fill="none" stroke="blue" d="M1166.64,-102.37C1102.78,-98.6 956.68,-88.12 910.99,-69 896.27,-62.84 882.14,-52.22 871.01,-42.34"/>
<polygon fill="blue" stroke="blue" points="873.18,-39.59 863.46,-35.36 868.42,-44.72 873.18,-39.59"/>
<text text-anchor="middle" x="957.99" y="-57.8" font-family="Times,serif" font-size="14.00">has attribute</text>
</g>
<!-- provided by -->
<g id="node9" class="node">
<title>provided by</title>
<ellipse fill="none" stroke="blue" cx="955.99" cy="-18" rx="38.19" ry="18"/>
<text text-anchor="middle" x="955.99" y="-14.3" font-family="Times,serif" font-size="14.00">string</text>
</g>
<!-- food&#45;&gt;provided by -->
<g id="edge8" class="edge">
<title>food&#45;&gt;provided by</title>
<path fill="none" stroke="blue" d="M1167.2,-100.54C1134.38,-96.04 1080.49,-86.59 1036.99,-69 1018.29,-61.44 999.01,-49.72 983.96,-39.53"/>
<polygon fill="blue" stroke="blue" points="985.83,-36.57 975.62,-33.75 981.84,-42.33 985.83,-36.57"/>
<text text-anchor="middle" x="1079.49" y="-57.8" font-family="Times,serif" font-size="14.00">provided by</text>
</g>
<!-- xref -->
<g id="node10" class="node">
<title>xref</title>
<ellipse fill="none" stroke="blue" cx="1069.99" cy="-18" rx="57.39" ry="18"/>
<text text-anchor="middle" x="1069.99" y="-14.3" font-family="Times,serif" font-size="14.00">uriorcurie</text>
</g>
<!-- food&#45;&gt;xref -->
<g id="edge9" class="edge">
<title>food&#45;&gt;xref</title>
<path fill="none" stroke="blue" d="M1177.43,-90.91C1157.22,-77.38 1125.39,-56.07 1101.61,-40.16"/>
<polygon fill="blue" stroke="blue" points="1103.5,-37.22 1093.25,-34.56 1099.61,-43.03 1103.5,-37.22"/>
<text text-anchor="middle" x="1156.49" y="-57.8" font-family="Times,serif" font-size="14.00">xref</text>
</g>
<!-- category -->
<g id="node11" class="node">
<title>category</title>
<ellipse fill="none" stroke="black" cx="1196.99" cy="-18" rx="51.19" ry="18"/>
<text text-anchor="middle" x="1196.99" y="-14.3" font-family="Times,serif" font-size="14.00">category</text>
</g>
<!-- food&#45;&gt;category -->
<g id="edge10" class="edge">
<title>food&#45;&gt;category</title>
<path fill="none" stroke="blue" d="M1196.99,-86.8C1196.99,-75.16 1196.99,-59.55 1196.99,-46.24"/>
<polygon fill="blue" stroke="blue" points="1200.49,-46.18 1196.99,-36.18 1193.49,-46.18 1200.49,-46.18"/>
<text text-anchor="middle" x="1228.49" y="-57.8" font-family="Times,serif" font-size="14.00">category</text>
</g>
<!-- trade name -->
<g id="node13" class="node">
<title>trade name</title>
<ellipse fill="none" stroke="blue" cx="1347.99" cy="-18" rx="81.79" ry="18"/>
<text text-anchor="middle" x="1347.99" y="-14.3" font-family="Times,serif" font-size="14.00">chemical entity</text>
</g>
<!-- food&#45;&gt;trade name -->
<g id="edge11" class="edge">
<title>food&#45;&gt;trade name</title>
<path fill="none" stroke="blue" d="M1219.49,-92.64C1232.57,-85.94 1249.32,-77.19 1263.99,-69 1280.19,-59.96 1297.87,-49.52 1312.81,-40.53"/>
<polygon fill="blue" stroke="blue" points="1314.98,-43.31 1321.73,-35.14 1311.36,-37.32 1314.98,-43.31"/>
<text text-anchor="middle" x="1330.99" y="-57.8" font-family="Times,serif" font-size="14.00">trade name</text>
</g>
<!-- available from -->
<g id="node14" class="node">
<title>available from</title>
<ellipse fill="none" stroke="blue" cx="1561.99" cy="-18" rx="113.98" ry="18"/>
<text text-anchor="middle" x="1561.99" y="-14.3" font-family="Times,serif" font-size="14.00">DrugAvailabilityEnum</text>
</g>
<!-- food&#45;&gt;available from -->
<g id="edge12" class="edge">
<title>food&#45;&gt;available from</title>
<path fill="none" stroke="blue" d="M1219.7,-92.82C1224.95,-90.6 1230.58,-88.49 1235.99,-87 1296.46,-70.3 1314.45,-81.17 1375.99,-69 1418.72,-60.55 1466.12,-47.76 1502.37,-37.22"/>
<polygon fill="blue" stroke="blue" points="1503.68,-40.49 1512.29,-34.32 1501.71,-33.77 1503.68,-40.49"/>
<text text-anchor="middle" x="1489.49" y="-57.8" font-family="Times,serif" font-size="14.00">available from</text>
</g>
<!-- max tolerated dose -->
<g id="node15" class="node">
<title>max tolerated dose</title>
<ellipse fill="none" stroke="blue" cx="1731.99" cy="-18" rx="38.19" ry="18"/>
<text text-anchor="middle" x="1731.99" y="-14.3" font-family="Times,serif" font-size="14.00">string</text>
</g>
<!-- food&#45;&gt;max tolerated dose -->
<g id="edge13" class="edge">
<title>food&#45;&gt;max tolerated dose</title>
<path fill="none" stroke="blue" d="M1219.62,-92.54C1224.88,-90.33 1230.53,-88.31 1235.99,-87 1369.79,-55.02 1408.87,-88.86 1544.99,-69 1608.25,-59.77 1623.72,-54.24 1684.99,-36 1687.89,-35.14 1690.87,-34.19 1693.86,-33.21"/>
<polygon fill="blue" stroke="blue" points="1695.01,-36.51 1703.33,-29.96 1692.74,-29.89 1695.01,-36.51"/>
<text text-anchor="middle" x="1691.99" y="-57.8" font-family="Times,serif" font-size="14.00">max tolerated dose</text>
</g>
<!-- is toxic -->
<g id="node16" class="node">
<title>is toxic</title>
<ellipse fill="none" stroke="blue" cx="1834.99" cy="-18" rx="46.59" ry="18"/>
<text text-anchor="middle" x="1834.99" y="-14.3" font-family="Times,serif" font-size="14.00">boolean</text>
</g>
<!-- food&#45;&gt;is toxic -->
<g id="edge14" class="edge">
<title>food&#45;&gt;is toxic</title>
<path fill="none" stroke="blue" d="M1219.19,-92.62C1224.56,-90.35 1230.37,-88.27 1235.99,-87 1350.71,-61.04 1653.61,-106.8 1764.99,-69 1781.81,-63.29 1798.12,-52.09 1810.75,-41.74"/>
<polygon fill="blue" stroke="blue" points="1813.16,-44.28 1818.49,-35.12 1808.61,-38.96 1813.16,-44.28"/>
<text text-anchor="middle" x="1820.99" y="-57.8" font-family="Times,serif" font-size="14.00">is toxic</text>
</g>
<!-- has chemical role -->
<g id="node17" class="node">
<title>has chemical role</title>
<ellipse fill="none" stroke="blue" cx="1972.99" cy="-18" rx="72.59" ry="18"/>
<text text-anchor="middle" x="1972.99" y="-14.3" font-family="Times,serif" font-size="14.00">chemical role</text>
</g>
<!-- food&#45;&gt;has chemical role -->
<g id="edge15" class="edge">
<title>food&#45;&gt;has chemical role</title>
<path fill="none" stroke="blue" d="M1219.18,-92.6C1224.55,-90.33 1230.37,-88.26 1235.99,-87 1369.42,-57.14 1717.25,-97.38 1850.99,-69 1879.92,-62.86 1910.72,-50.18 1934.14,-39.13"/>
<polygon fill="blue" stroke="blue" points="1935.89,-42.17 1943.38,-34.68 1932.85,-35.87 1935.89,-42.17"/>
<text text-anchor="middle" x="1962.49" y="-57.8" font-family="Times,serif" font-size="14.00">has chemical role</text>
</g>
<!-- is supplement -->
<g id="node18" class="node">
<title>is supplement</title>
<ellipse fill="none" stroke="blue" cx="2154.99" cy="-18" rx="90.98" ry="18"/>
<text text-anchor="middle" x="2154.99" y="-14.3" font-family="Times,serif" font-size="14.00">chemical mixture</text>
</g>
<!-- food&#45;&gt;is supplement -->
<g id="edge16" class="edge">
<title>food&#45;&gt;is supplement</title>
<path fill="none" stroke="blue" d="M1219.18,-92.57C1224.55,-90.3 1230.37,-88.24 1235.99,-87 1408.13,-49.07 1856.25,-104.06 2028.99,-69 2058.72,-62.97 2090.45,-50.33 2114.64,-39.28"/>
<polygon fill="blue" stroke="blue" points="2116.27,-42.38 2123.85,-34.98 2113.3,-36.04 2116.27,-42.38"/>
<text text-anchor="middle" x="2129.49" y="-57.8" font-family="Times,serif" font-size="14.00">is supplement</text>
</g>
<!-- highest FDA approval status -->
<g id="node19" class="node">
<title>highest FDA approval status</title>
<ellipse fill="none" stroke="blue" cx="2301.99" cy="-18" rx="38.19" ry="18"/>
<text text-anchor="middle" x="2301.99" y="-14.3" font-family="Times,serif" font-size="14.00">string</text>
</g>
<!-- food&#45;&gt;highest FDA approval status -->
<g id="edge17" class="edge">
<title>food&#45;&gt;highest FDA approval status</title>
<path fill="none" stroke="blue" d="M1219.17,-92.56C1224.54,-90.29 1230.36,-88.23 1235.99,-87 1441.84,-42.04 1977.91,-112.9 2183.99,-69 2214.02,-62.6 2245.96,-48.58 2269.03,-37"/>
<polygon fill="blue" stroke="blue" points="2270.73,-40.06 2278.03,-32.38 2267.53,-33.83 2270.73,-40.06"/>
<text text-anchor="middle" x="2333.49" y="-57.8" font-family="Times,serif" font-size="14.00">highest FDA approval status</text>
</g>
<!-- drug regulatory status world wide -->
<g id="node20" class="node">
<title>drug regulatory status world wide</title>
<ellipse fill="none" stroke="blue" cx="2489.99" cy="-18" rx="38.19" ry="18"/>
<text text-anchor="middle" x="2489.99" y="-14.3" font-family="Times,serif" font-size="14.00">string</text>
</g>
<!-- food&#45;&gt;drug regulatory status world wide -->
<g id="edge18" class="edge">
<title>food&#45;&gt;drug regulatory status world wide</title>
<path fill="none" stroke="blue" d="M1219.17,-92.54C1224.54,-90.27 1230.36,-88.22 1235.99,-87 1301.38,-72.86 2378.38,-95.06 2439.99,-69 2452.71,-63.62 2463.91,-53.31 2472.46,-43.45"/>
<polygon fill="blue" stroke="blue" points="2475.42,-45.35 2479,-35.38 2469.99,-40.94 2475.42,-45.35"/>
<text text-anchor="middle" x="2585.99" y="-57.8" font-family="Times,serif" font-size="14.00">drug regulatory status world wide</text>
</g>
<!-- routes of delivery -->
<g id="node21" class="node">
<title>routes of delivery</title>
<ellipse fill="none" stroke="blue" cx="2758.99" cy="-18" rx="100.98" ry="18"/>
<text text-anchor="middle" x="2758.99" y="-14.3" font-family="Times,serif" font-size="14.00">DrugDeliveryEnum</text>
</g>
<!-- food&#45;&gt;routes of delivery -->
<g id="edge19" class="edge">
<title>food&#45;&gt;routes of delivery</title>
<path fill="none" stroke="blue" d="M1219.17,-92.53C1224.54,-90.26 1230.36,-88.21 1235.99,-87 1316.22,-69.76 2638.05,-102.43 2712.99,-69 2724.66,-63.8 2734.68,-54.05 2742.37,-44.53"/>
<polygon fill="blue" stroke="blue" points="2745.31,-46.45 2748.51,-36.35 2739.71,-42.25 2745.31,-46.45"/>
<text text-anchor="middle" x="2796.49" y="-57.8" font-family="Times,serif" font-size="14.00">routes of delivery</text>
</g>
<!-- named thing_category -->
<g id="node12" class="node">
<title>named thing_category</title>
<ellipse fill="none" stroke="blue" cx="1319.99" cy="-105" rx="74.99" ry="18"/>
<text text-anchor="middle" x="1319.99" y="-101.3" font-family="Times,serif" font-size="14.00">category type</text>
</g>
</g>
</svg>
