<?xml version="1.0" encoding="UTF-8" standalone="no"?>
<!DOCTYPE svg PUBLIC "-//W3C//DTD SVG 1.1//EN"
 "http://www.w3.org/Graphics/SVG/1.1/DTD/svg11.dtd">
<!-- Generated by graphviz version 2.40.1 (20161225.0304)
 -->
<!-- Title: %3 Pages: 1 -->
<svg width="1442pt" height="131pt"
 viewBox="0.00 0.00 1442.19 131.00" xmlns="http://www.w3.org/2000/svg" xmlns:xlink="http://www.w3.org/1999/xlink">
<g id="graph0" class="graph" transform="scale(1 1) rotate(0) translate(4 127)">
<title>%3</title>
<polygon fill="#ffffff" stroke="transparent" points="-4,4 -4,-127 1438.1869,-127 1438.1869,4 -4,4"/>
<!-- food -->
<g id="node1" class="node">
<title>food</title>
<ellipse fill="none" stroke="#000000" cx="665.8939" cy="-105" rx="27" ry="18"/>
<text text-anchor="middle" x="665.8939" y="-101.3" font-family="Times,serif" font-size="14.00" fill="#000000">food</text>
</g>
<!-- molecular entity -->
<g id="node2" class="node">
<title>molecular entity</title>
<ellipse fill="none" stroke="#000000" cx="68.8939" cy="-18" rx="68.7879" ry="18"/>
<text text-anchor="middle" x="68.8939" y="-14.3" font-family="Times,serif" font-size="14.00" fill="#000000">molecular entity</text>
</g>
<!-- food&#45;&gt;molecular entity -->
<g id="edge1" class="edge">
<title>food&#45;&gt;molecular entity</title>
<path fill="none" stroke="#000000" d="M638.8849,-103.9951C574.6738,-101.2901 408.0084,-92.4093 270.8939,-69 220.4985,-60.3961 164.1733,-45.7458 123.8294,-34.3489"/>
<polygon fill="#000000" stroke="#000000" points="124.7646,-30.9761 114.1882,-31.6014 122.8461,-37.7081 124.7646,-30.9761"/>
<text text-anchor="middle" x="281.8939" y="-57.8" font-family="Times,serif" font-size="14.00" fill="#000000">is_a</text>
</g>
<!-- mixture -->
<g id="node3" class="node">
<title>mixture</title>
<ellipse fill="none" stroke="#000000" cx="193.8939" cy="-18" rx="38.1938" ry="18"/>
<text text-anchor="middle" x="193.8939" y="-14.3" font-family="Times,serif" font-size="14.00" fill="#000000">mixture</text>
</g>
<!-- food&#45;&gt;mixture -->
<g id="edge2" class="edge">
<title>food&#45;&gt;mixture</title>
<path fill="none" stroke="#000000" d="M638.8917,-103.2894C585.0359,-99.5605 460.608,-89.3546 357.8939,-69 304.8957,-58.4975 292.1743,-53.0125 240.8939,-36 238.301,-35.1398 235.6403,-34.2212 232.9672,-33.2713"/>
<polygon fill="#000000" stroke="#000000" points="233.925,-29.8948 223.3312,-29.7431 231.5181,-36.4681 233.925,-29.8948"/>
<text text-anchor="middle" x="369.8939" y="-57.8" font-family="Times,serif" font-size="14.00" fill="#000000">uses</text>
</g>
<!-- id -->
<g id="node4" class="node">
<title>id</title>
<ellipse fill="none" stroke="#0000ff" cx="280.8939" cy="-18" rx="30.5947" ry="18"/>
<text text-anchor="middle" x="280.8939" y="-14.3" font-family="Times,serif" font-size="14.00" fill="#000000">string</text>
</g>
<!-- food&#45;&gt;id -->
<g id="edge3" class="edge">
<title>food&#45;&gt;id</title>
<path fill="none" stroke="#0000ff" d="M638.8236,-102.1664C579.7444,-95.4292 435.3726,-75.9455 320.8939,-36 318.6492,-35.2168 316.3572,-34.3569 314.0627,-33.4507"/>
<polygon fill="#0000ff" stroke="#0000ff" points="315.3074,-30.1775 304.7316,-29.5424 312.6031,-36.634 315.3074,-30.1775"/>
<text text-anchor="middle" x="438.3939" y="-57.8" font-family="Times,serif" font-size="14.00" fill="#000000">id</text>
</g>
<!-- iri -->
<g id="node5" class="node">
<title>iri</title>
<ellipse fill="none" stroke="#0000ff" cx="365.8939" cy="-18" rx="36.2938" ry="18"/>
<text text-anchor="middle" x="365.8939" y="-14.3" font-family="Times,serif" font-size="14.00" fill="#000000">iri type</text>
</g>
<!-- food&#45;&gt;iri -->
<g id="edge4" class="edge">
<title>food&#45;&gt;iri</title>
<path fill="none" stroke="#0000ff" d="M640.1898,-99.3218C610.3894,-92.6157 559.8614,-80.8656 516.8939,-69 469.3328,-55.8658 457.3916,-52.5086 410.8939,-36 408.3788,-35.107 405.7961,-34.159 403.2012,-33.1833"/>
<polygon fill="#0000ff" stroke="#0000ff" points="404.4395,-29.9097 393.8499,-29.5776 401.9211,-36.441 404.4395,-29.9097"/>
<text text-anchor="middle" x="523.3939" y="-57.8" font-family="Times,serif" font-size="14.00" fill="#000000">iri</text>
</g>
<!-- type -->
<g id="node6" class="node">
<title>type</title>
<ellipse fill="none" stroke="#0000ff" cx="450.8939" cy="-18" rx="30.5947" ry="18"/>
<text text-anchor="middle" x="450.8939" y="-14.3" font-family="Times,serif" font-size="14.00" fill="#000000">string</text>
</g>
<!-- food&#45;&gt;type -->
<g id="edge5" class="edge">
<title>food&#45;&gt;type</title>
<path fill="none" stroke="#0000ff" d="M642.0045,-96.1659C622.7483,-88.9925 595.0029,-78.5382 570.8939,-69 535.1293,-54.8506 526.2131,-51.2269 490.8939,-36 488.8484,-35.1182 486.7482,-34.2029 484.6324,-33.2732"/>
<polygon fill="#0000ff" stroke="#0000ff" points="485.9383,-30.0236 475.3783,-29.1653 483.0982,-36.4216 485.9383,-30.0236"/>
<text text-anchor="middle" x="582.8939" y="-57.8" font-family="Times,serif" font-size="14.00" fill="#000000">type</text>
</g>
<!-- name -->
<g id="node7" class="node">
<title>name</title>
<ellipse fill="none" stroke="#0000ff" cx="544.8939" cy="-18" rx="45.4919" ry="18"/>
<text text-anchor="middle" x="544.8939" y="-14.3" font-family="Times,serif" font-size="14.00" fill="#000000">label type</text>
</g>
<!-- food&#45;&gt;name -->
<g id="edge6" class="edge">
<title>food&#45;&gt;name</title>
<path fill="none" stroke="#0000ff" d="M647.5166,-91.7866C628.4056,-78.0456 598.1621,-56.3003 575.4486,-39.9691"/>
<polygon fill="#0000ff" stroke="#0000ff" points="577.3134,-36.9991 567.151,-34.0031 573.227,-42.6826 577.3134,-36.9991"/>
<text text-anchor="middle" x="628.3939" y="-57.8" font-family="Times,serif" font-size="14.00" fill="#000000">name</text>
</g>
<!-- description -->
<g id="node8" class="node">
<title>description</title>
<ellipse fill="none" stroke="#0000ff" cx="665.8939" cy="-18" rx="57.6901" ry="18"/>
<text text-anchor="middle" x="665.8939" y="-14.3" font-family="Times,serif" font-size="14.00" fill="#000000">narrative text</text>
</g>
<!-- food&#45;&gt;description -->
<g id="edge7" class="edge">
<title>food&#45;&gt;description</title>
<path fill="none" stroke="#0000ff" d="M665.8939,-86.9735C665.8939,-75.1918 665.8939,-59.5607 665.8939,-46.1581"/>
<polygon fill="#0000ff" stroke="#0000ff" points="669.394,-46.0033 665.8939,-36.0034 662.394,-46.0034 669.394,-46.0033"/>
<text text-anchor="middle" x="696.3939" y="-57.8" font-family="Times,serif" font-size="14.00" fill="#000000">description</text>
</g>
<!-- source -->
<g id="node9" class="node">
<title>source</title>
<ellipse fill="none" stroke="#0000ff" cx="786.8939" cy="-18" rx="45.4919" ry="18"/>
<text text-anchor="middle" x="786.8939" y="-14.3" font-family="Times,serif" font-size="14.00" fill="#000000">label type</text>
</g>
<!-- food&#45;&gt;source -->
<g id="edge8" class="edge">
<title>food&#45;&gt;source</title>
<path fill="none" stroke="#0000ff" d="M688.0295,-94.3722C700.9727,-87.7647 717.372,-78.6993 730.8939,-69 742.0232,-61.0169 753.3663,-51.0875 762.907,-42.1171"/>
<polygon fill="#0000ff" stroke="#0000ff" points="765.3404,-44.6327 770.1335,-35.184 760.4943,-39.5814 765.3404,-44.6327"/>
<text text-anchor="middle" x="766.8939" y="-57.8" font-family="Times,serif" font-size="14.00" fill="#000000">source</text>
</g>
<!-- provided by -->
<g id="node10" class="node">
<title>provided by</title>
<ellipse fill="none" stroke="#0000ff" cx="879.8939" cy="-18" rx="29.795" ry="18"/>
<text text-anchor="middle" x="879.8939" y="-14.3" font-family="Times,serif" font-size="14.00" fill="#000000">agent</text>
</g>
<!-- food&#45;&gt;provided by -->
<g id="edge9" class="edge">
<title>food&#45;&gt;provided by</title>
<path fill="none" stroke="#0000ff" d="M686.8175,-93.3982C691.6652,-91.0335 696.8764,-88.7401 701.8939,-87 739.1996,-74.0619 751.9037,-82.8144 788.8939,-69 810.8543,-60.7987 833.8715,-47.8528 851.2628,-37.0568"/>
<polygon fill="#0000ff" stroke="#0000ff" points="853.2339,-39.9514 859.8091,-31.6437 849.4882,-34.0378 853.2339,-39.9514"/>
<text text-anchor="middle" x="853.8939" y="-57.8" font-family="Times,serif" font-size="14.00" fill="#000000">provided by</text>
</g>
<!-- has attribute -->
<g id="node11" class="node">
<title>has attribute</title>
<ellipse fill="none" stroke="#0000ff" cx="967.8939" cy="-18" rx="40.0939" ry="18"/>
<text text-anchor="middle" x="967.8939" y="-14.3" font-family="Times,serif" font-size="14.00" fill="#000000">attribute</text>
</g>
<!-- food&#45;&gt;has attribute -->
<g id="edge10" class="edge">
<title>food&#45;&gt;has attribute</title>
<path fill="none" stroke="#0000ff" d="M686.3055,-93.1741C691.2661,-90.7606 696.6547,-88.5026 701.8939,-87 783.0041,-63.7379 811.3435,-97.1377 890.8939,-69 909.0456,-62.5796 927.11,-50.9615 941.1754,-40.4344"/>
<polygon fill="#0000ff" stroke="#0000ff" points="943.6197,-42.9683 949.3813,-34.077 939.3326,-37.4347 943.6197,-42.9683"/>
<text text-anchor="middle" x="954.3939" y="-57.8" font-family="Times,serif" font-size="14.00" fill="#000000">has attribute</text>
</g>
<!-- category -->
<g id="node12" class="node">
<title>category</title>
<ellipse fill="none" stroke="#000000" cx="1066.8939" cy="-18" rx="40.8928" ry="18"/>
<text text-anchor="middle" x="1066.8939" y="-14.3" font-family="Times,serif" font-size="14.00" fill="#000000">category</text>
</g>
<!-- food&#45;&gt;category -->
<g id="edge11" class="edge">
<title>food&#45;&gt;category</title>
<path fill="none" stroke="#0000ff" d="M686.2706,-93.0486C691.2326,-90.6402 696.6306,-88.416 701.8939,-87 826.5965,-53.4498 869.7074,-110.795 991.8939,-69 1009.7838,-62.8806 1027.392,-51.2812 1041.0467,-40.689"/>
<polygon fill="#0000ff" stroke="#0000ff" points="1043.4104,-43.2794 1049.0049,-34.282 1039.0207,-37.8268 1043.4104,-43.2794"/>
<text text-anchor="middle" x="1044.3939" y="-57.8" font-family="Times,serif" font-size="14.00" fill="#000000">category</text>
</g>
<!-- in taxon -->
<g id="node14" class="node">
<title>in taxon</title>
<ellipse fill="none" stroke="#0000ff" cx="1191.8939" cy="-18" rx="65.7887" ry="18"/>
<text text-anchor="middle" x="1191.8939" y="-14.3" font-family="Times,serif" font-size="14.00" fill="#000000">organism taxon</text>
</g>
<!-- food&#45;&gt;in taxon -->
<g id="edge12" class="edge">
<title>food&#45;&gt;in taxon</title>
<path fill="none" stroke="#0000ff" d="M686.257,-92.9975C691.2196,-90.5912 696.6213,-88.3808 701.8939,-87 861.1619,-45.2908 911.4137,-105.7706 1071.8939,-69 1100.0138,-62.5569 1129.8753,-49.8898 1152.7756,-38.7923"/>
<polygon fill="#0000ff" stroke="#0000ff" points="1154.4119,-41.8877 1161.8218,-34.3151 1151.3069,-35.6141 1154.4119,-41.8877"/>
<text text-anchor="middle" x="1139.3939" y="-57.8" font-family="Times,serif" font-size="14.00" fill="#000000">in taxon</text>
</g>
<!-- has constituent -->
<g id="node15" class="node">
<title>has constituent</title>
<ellipse fill="none" stroke="#0000ff" cx="1354.8939" cy="-18" rx="79.0865" ry="18"/>
<text text-anchor="middle" x="1354.8939" y="-14.3" font-family="Times,serif" font-size="14.00" fill="#000000">chemical substance</text>
</g>
<!-- food&#45;&gt;has constituent -->
<g id="edge13" class="edge">
<title>food&#45;&gt;has constituent</title>
<path fill="none" stroke="#0000ff" d="M686.2473,-92.9598C691.2103,-90.5551 696.6145,-88.3548 701.8939,-87 801.8437,-61.3497 1063.882,-84.5396 1165.8939,-69 1212.1575,-61.9526 1263.3322,-47.7318 1300.7506,-36.0932"/>
<polygon fill="#0000ff" stroke="#0000ff" points="1301.9523,-39.3842 1310.439,-33.0418 1299.8495,-32.7075 1301.9523,-39.3842"/>
<text text-anchor="middle" x="1275.8939" y="-57.8" font-family="Times,serif" font-size="14.00" fill="#000000">has constituent</text>
</g>
<!-- named thing_category -->
<g id="node13" class="node">
<title>named thing_category</title>
<ellipse fill="none" stroke="#0000ff" cx="765.8939" cy="-105" rx="55.4913" ry="18"/>
<text text-anchor="middle" x="765.8939" y="-101.3" font-family="Times,serif" font-size="14.00" fill="#000000">named thing</text>
</g>
</g>
</svg>
