<?xml version="1.0" encoding="UTF-8" standalone="no"?>
<!DOCTYPE svg PUBLIC "-//W3C//DTD SVG 1.1//EN"
 "http://www.w3.org/Graphics/SVG/1.1/DTD/svg11.dtd">
<!-- Generated by graphviz version 2.43.0 (0)
 -->
<!-- Title: %3 Pages: 1 -->
<svg width="2976pt" height="131pt"
 viewBox="0.00 0.00 2975.63 131.00" xmlns="http://www.w3.org/2000/svg" xmlns:xlink="http://www.w3.org/1999/xlink">
<g id="graph0" class="graph" transform="scale(1 1) rotate(0) translate(4 127)">
<title>%3</title>
<polygon fill="white" stroke="transparent" points="-4,4 -4,-127 2971.63,-127 2971.63,4 -4,4"/>
<!-- food -->
<g id="node1" class="node">
<title>food</title>
<ellipse fill="none" stroke="black" cx="1229.99" cy="-105" rx="30.59" ry="18"/>
<text text-anchor="middle" x="1229.99" y="-101.3" font-family="Times,serif" font-size="14.00">food</text>
</g>
<!-- chemical mixture -->
<g id="node2" class="node">
<title>chemical mixture</title>
<ellipse fill="none" stroke="black" cx="90.99" cy="-18" rx="90.98" ry="18"/>
<text text-anchor="middle" x="90.99" y="-14.3" font-family="Times,serif" font-size="14.00">chemical mixture</text>
</g>
<!-- food&#45;&gt;chemical mixture -->
<g id="edge1" class="edge">
<title>food&#45;&gt;chemical mixture</title>
<path fill="none" stroke="black" d="M1199.26,-103.53C1061.38,-101.29 498.91,-90.98 323.99,-69 265.29,-61.62 199.46,-46.89 152.79,-35.31"/>
<polygon fill="black" stroke="black" points="153.39,-31.85 142.83,-32.82 151.69,-38.64 153.39,-31.85"/>
<text text-anchor="middle" x="337.99" y="-57.8" font-family="Times,serif" font-size="14.00">is_a</text>
</g>
<!-- id -->
<g id="node3" class="node">
<title>id</title>
<ellipse fill="none" stroke="blue" cx="237.99" cy="-18" rx="38.19" ry="18"/>
<text text-anchor="middle" x="237.99" y="-14.3" font-family="Times,serif" font-size="14.00">string</text>
</g>
<!-- food&#45;&gt;id -->
<g id="edge2" class="edge">
<title>food&#45;&gt;id</title>
<path fill="none" stroke="blue" d="M1199.46,-104.42C1094.03,-105.5 735.73,-106.03 442.99,-69 372.25,-60.05 354.64,-55.28 285.99,-36 282.89,-35.13 279.69,-34.16 276.49,-33.14"/>
<polygon fill="blue" stroke="blue" points="277.58,-29.81 266.98,-29.97 275.36,-36.45 277.58,-29.81"/>
<text text-anchor="middle" x="449.99" y="-57.8" font-family="Times,serif" font-size="14.00">id</text>
</g>
<!-- iri -->
<g id="node4" class="node">
<title>iri</title>
<ellipse fill="none" stroke="blue" cx="338.99" cy="-18" rx="44.39" ry="18"/>
<text text-anchor="middle" x="338.99" y="-14.3" font-family="Times,serif" font-size="14.00">iri type</text>
</g>
<!-- food&#45;&gt;iri -->
<g id="edge3" class="edge">
<title>food&#45;&gt;iri</title>
<path fill="none" stroke="blue" d="M1199.39,-104.52C1101.31,-105.74 786.16,-106.28 528.99,-69 477.4,-61.52 419.68,-45.15 381.55,-33.17"/>
<polygon fill="blue" stroke="blue" points="382.4,-29.77 371.81,-30.07 380.28,-36.44 382.4,-29.77"/>
<text text-anchor="middle" x="536.99" y="-57.8" font-family="Times,serif" font-size="14.00">iri</text>
</g>
<!-- type -->
<g id="node5" class="node">
<title>type</title>
<ellipse fill="none" stroke="blue" cx="439.99" cy="-18" rx="38.19" ry="18"/>
<text text-anchor="middle" x="439.99" y="-14.3" font-family="Times,serif" font-size="14.00">string</text>
</g>
<!-- food&#45;&gt;type -->
<g id="edge4" class="edge">
<title>food&#45;&gt;type</title>
<path fill="none" stroke="blue" d="M1199.26,-104.13C1110.02,-104.12 843.31,-101.16 624.99,-69 562.6,-59.81 547.41,-54.09 486.99,-36 484.23,-35.17 481.38,-34.27 478.53,-33.33"/>
<polygon fill="blue" stroke="blue" points="479.5,-29.96 468.91,-30.03 477.23,-36.59 479.5,-29.96"/>
<text text-anchor="middle" x="640.99" y="-57.8" font-family="Times,serif" font-size="14.00">type</text>
</g>
<!-- name -->
<g id="node6" class="node">
<title>name</title>
<ellipse fill="none" stroke="blue" cx="552.99" cy="-18" rx="56.59" ry="18"/>
<text text-anchor="middle" x="552.99" y="-14.3" font-family="Times,serif" font-size="14.00">label type</text>
</g>
<!-- food&#45;&gt;name -->
<g id="edge5" class="edge">
<title>food&#45;&gt;name</title>
<path fill="none" stroke="blue" d="M1199.36,-104.21C1119.88,-104.26 900.78,-101.21 721.99,-69 679.24,-61.3 631.92,-46.76 598.26,-35.34"/>
<polygon fill="blue" stroke="blue" points="599.3,-31.99 588.7,-32.05 597.02,-38.61 599.3,-31.99"/>
<text text-anchor="middle" x="741.99" y="-57.8" font-family="Times,serif" font-size="14.00">name</text>
</g>
<!-- description -->
<g id="node7" class="node">
<title>description</title>
<ellipse fill="none" stroke="blue" cx="702.99" cy="-18" rx="75.29" ry="18"/>
<text text-anchor="middle" x="702.99" y="-14.3" font-family="Times,serif" font-size="14.00">narrative text</text>
</g>
<!-- food&#45;&gt;description -->
<g id="edge6" class="edge">
<title>food&#45;&gt;description</title>
<path fill="none" stroke="blue" d="M1199.59,-103.03C1114.8,-100.09 876.98,-90.13 801.99,-69 779.06,-62.54 755.16,-50.64 736.59,-40.07"/>
<polygon fill="blue" stroke="blue" points="738.34,-37.03 727.93,-35.02 734.81,-43.08 738.34,-37.03"/>
<text text-anchor="middle" x="842.49" y="-57.8" font-family="Times,serif" font-size="14.00">description</text>
</g>
<!-- source -->
<g id="node8" class="node">
<title>source</title>
<ellipse fill="none" stroke="blue" cx="834.99" cy="-18" rx="38.19" ry="18"/>
<text text-anchor="middle" x="834.99" y="-14.3" font-family="Times,serif" font-size="14.00">string</text>
</g>
<!-- food&#45;&gt;source -->
<g id="edge7" class="edge">
<title>food&#45;&gt;source</title>
<path fill="none" stroke="blue" d="M1199.38,-104.84C1142.39,-105.48 1016.84,-102.52 917.99,-69 898.15,-62.27 877.97,-50.25 862.47,-39.69"/>
<polygon fill="blue" stroke="blue" points="864.12,-36.57 853.93,-33.68 860.1,-42.3 864.12,-36.57"/>
<text text-anchor="middle" x="941.99" y="-57.8" font-family="Times,serif" font-size="14.00">source</text>
</g>
<!-- has attribute -->
<g id="node9" class="node">
<title>has attribute</title>
<ellipse fill="none" stroke="blue" cx="942.99" cy="-18" rx="51.99" ry="18"/>
<text text-anchor="middle" x="942.99" y="-14.3" font-family="Times,serif" font-size="14.00">attribute</text>
</g>
<!-- food&#45;&gt;has attribute -->
<g id="edge8" class="edge">
<title>food&#45;&gt;has attribute</title>
<path fill="none" stroke="blue" d="M1199.8,-102.19C1143.32,-98.4 1024.12,-88.31 987.99,-69 976.84,-63.04 967.07,-53.18 959.51,-43.78"/>
<polygon fill="blue" stroke="blue" points="962.27,-41.63 953.45,-35.75 956.68,-45.84 962.27,-41.63"/>
<text text-anchor="middle" x="1034.99" y="-57.8" font-family="Times,serif" font-size="14.00">has attribute</text>
</g>
<!-- provided by -->
<g id="node10" class="node">
<title>provided by</title>
<ellipse fill="none" stroke="blue" cx="1050.99" cy="-18" rx="38.19" ry="18"/>
<text text-anchor="middle" x="1050.99" y="-14.3" font-family="Times,serif" font-size="14.00">string</text>
</g>
<!-- food&#45;&gt;provided by -->
<g id="edge9" class="edge">
<title>food&#45;&gt;provided by</title>
<path fill="none" stroke="blue" d="M1200.7,-99.83C1174.36,-95.17 1135.28,-85.94 1104.99,-69 1092.67,-62.11 1080.93,-51.86 1071.56,-42.42"/>
<polygon fill="blue" stroke="blue" points="1074.03,-39.94 1064.59,-35.12 1068.96,-44.77 1074.03,-39.94"/>
<text text-anchor="middle" x="1147.49" y="-57.8" font-family="Times,serif" font-size="14.00">provided by</text>
</g>
<!-- xref -->
<g id="node11" class="node">
<title>xref</title>
<ellipse fill="none" stroke="blue" cx="1164.99" cy="-18" rx="57.39" ry="18"/>
<text text-anchor="middle" x="1164.99" y="-14.3" font-family="Times,serif" font-size="14.00">uriorcurie</text>
</g>
<!-- food&#45;&gt;xref -->
<g id="edge10" class="edge">
<title>food&#45;&gt;xref</title>
<path fill="none" stroke="blue" d="M1218.07,-88.41C1208.51,-75.91 1194.92,-58.13 1183.88,-43.7"/>
<polygon fill="blue" stroke="blue" points="1186.58,-41.47 1177.73,-35.65 1181.02,-45.72 1186.58,-41.47"/>
<text text-anchor="middle" x="1216.49" y="-57.8" font-family="Times,serif" font-size="14.00">xref</text>
</g>
<!-- category -->
<g id="node12" class="node">
<title>category</title>
<ellipse fill="none" stroke="black" cx="1291.99" cy="-18" rx="51.19" ry="18"/>
<text text-anchor="middle" x="1291.99" y="-14.3" font-family="Times,serif" font-size="14.00">category</text>
</g>
<!-- food&#45;&gt;category -->
<g id="edge11" class="edge">
<title>food&#45;&gt;category</title>
<path fill="none" stroke="blue" d="M1241.65,-88.01C1250.66,-75.67 1263.29,-58.35 1273.64,-44.15"/>
<polygon fill="blue" stroke="blue" points="1276.68,-45.93 1279.75,-35.79 1271.03,-41.81 1276.68,-45.93"/>
<text text-anchor="middle" x="1296.49" y="-57.8" font-family="Times,serif" font-size="14.00">category</text>
</g>
<!-- trade name -->
<g id="node14" class="node">
<title>trade name</title>
<ellipse fill="none" stroke="blue" cx="1442.99" cy="-18" rx="81.79" ry="18"/>
<text text-anchor="middle" x="1442.99" y="-14.3" font-family="Times,serif" font-size="14.00">chemical entity</text>
</g>
<!-- food&#45;&gt;trade name -->
<g id="edge12" class="edge">
<title>food&#45;&gt;trade name</title>
<path fill="none" stroke="blue" d="M1253.3,-93.24C1258.42,-91.05 1263.85,-88.85 1268.99,-87 1296.4,-77.16 1304.64,-79.01 1331.99,-69 1355.75,-60.31 1381.55,-48.82 1402.29,-39.04"/>
<polygon fill="blue" stroke="blue" points="1403.92,-42.15 1411.44,-34.69 1400.91,-35.82 1403.92,-42.15"/>
<text text-anchor="middle" x="1410.99" y="-57.8" font-family="Times,serif" font-size="14.00">trade name</text>
</g>
<!-- available from -->
<g id="node15" class="node">
<title>available from</title>
<ellipse fill="none" stroke="blue" cx="1660.99" cy="-18" rx="118.08" ry="18"/>
<text text-anchor="middle" x="1660.99" y="-14.3" font-family="Times,serif" font-size="14.00">drug_availability_enum</text>
</g>
<!-- food&#45;&gt;available from -->
<g id="edge13" class="edge">
<title>food&#45;&gt;available from</title>
<path fill="none" stroke="blue" d="M1252.66,-92.69C1257.91,-90.48 1263.56,-88.41 1268.99,-87 1349.82,-66.06 1373.67,-82.93 1455.99,-69 1504.21,-60.84 1557.88,-47.6 1598.21,-36.79"/>
<polygon fill="blue" stroke="blue" points="1599.16,-40.16 1607.91,-34.17 1597.34,-33.4 1599.16,-40.16"/>
<text text-anchor="middle" x="1576.49" y="-57.8" font-family="Times,serif" font-size="14.00">available from</text>
</g>
<!-- max tolerated dose -->
<g id="node16" class="node">
<title>max tolerated dose</title>
<ellipse fill="none" stroke="blue" cx="1835.99" cy="-18" rx="38.19" ry="18"/>
<text text-anchor="middle" x="1835.99" y="-14.3" font-family="Times,serif" font-size="14.00">string</text>
</g>
<!-- food&#45;&gt;max tolerated dose -->
<g id="edge14" class="edge">
<title>food&#45;&gt;max tolerated dose</title>
<path fill="none" stroke="blue" d="M1252.62,-92.51C1257.87,-90.3 1263.53,-88.28 1268.99,-87 1426.26,-50.13 1471.8,-89.78 1631.99,-69 1702.27,-59.88 1719.78,-55.2 1787.99,-36 1791.1,-35.13 1794.29,-34.15 1797.49,-33.13"/>
<polygon fill="blue" stroke="blue" points="1798.62,-36.45 1807,-29.96 1796.4,-29.81 1798.62,-36.45"/>
<text text-anchor="middle" x="1787.99" y="-57.8" font-family="Times,serif" font-size="14.00">max tolerated dose</text>
</g>
<!-- is toxic -->
<g id="node17" class="node">
<title>is toxic</title>
<ellipse fill="none" stroke="blue" cx="1938.99" cy="-18" rx="46.59" ry="18"/>
<text text-anchor="middle" x="1938.99" y="-14.3" font-family="Times,serif" font-size="14.00">boolean</text>
</g>
<!-- food&#45;&gt;is toxic -->
<g id="edge15" class="edge">
<title>food&#45;&gt;is toxic</title>
<path fill="none" stroke="blue" d="M1252.18,-92.6C1257.55,-90.33 1263.37,-88.26 1268.99,-87 1397.41,-58.18 1735.26,-107.92 1860.99,-69 1879.7,-63.21 1898.25,-51.62 1912.57,-41.06"/>
<polygon fill="blue" stroke="blue" points="1915.09,-43.53 1920.9,-34.67 1910.83,-37.98 1915.09,-43.53"/>
<text text-anchor="middle" x="1919.99" y="-57.8" font-family="Times,serif" font-size="14.00">is toxic</text>
</g>
<!-- has chemical role -->
<g id="node18" class="node">
<title>has chemical role</title>
<ellipse fill="none" stroke="blue" cx="2076.99" cy="-18" rx="72.59" ry="18"/>
<text text-anchor="middle" x="2076.99" y="-14.3" font-family="Times,serif" font-size="14.00">chemical role</text>
</g>
<!-- food&#45;&gt;has chemical role -->
<g id="edge16" class="edge">
<title>food&#45;&gt;has chemical role</title>
<path fill="none" stroke="blue" d="M1252.18,-92.59C1257.55,-90.32 1263.37,-88.25 1268.99,-87 1416.77,-54.15 1801.65,-99.19 1949.99,-69 1980.33,-62.83 2012.78,-49.93 2037.29,-38.78"/>
<polygon fill="blue" stroke="blue" points="2039.01,-41.84 2046.6,-34.45 2036.06,-35.49 2039.01,-41.84"/>
<text text-anchor="middle" x="2063.49" y="-57.8" font-family="Times,serif" font-size="14.00">has chemical role</text>
</g>
<!-- is supplement -->
<g id="node19" class="node">
<title>is supplement</title>
<ellipse fill="none" stroke="blue" cx="2258.99" cy="-18" rx="90.98" ry="18"/>
<text text-anchor="middle" x="2258.99" y="-14.3" font-family="Times,serif" font-size="14.00">chemical mixture</text>
</g>
<!-- food&#45;&gt;is supplement -->
<g id="edge17" class="edge">
<title>food&#45;&gt;is supplement</title>
<path fill="none" stroke="blue" d="M1252.17,-92.56C1257.55,-90.3 1263.36,-88.23 1268.99,-87 1455.92,-45.99 1942.26,-106.15 2129.99,-69 2160.5,-62.96 2193.14,-50.25 2217.96,-39.15"/>
<polygon fill="blue" stroke="blue" points="2219.42,-42.33 2227.06,-34.99 2216.51,-35.96 2219.42,-42.33"/>
<text text-anchor="middle" x="2231.49" y="-57.8" font-family="Times,serif" font-size="14.00">is supplement</text>
</g>
<!-- highest FDA approval status -->
<g id="node20" class="node">
<title>highest FDA approval status</title>
<ellipse fill="none" stroke="blue" cx="2405.99" cy="-18" rx="38.19" ry="18"/>
<text text-anchor="middle" x="2405.99" y="-14.3" font-family="Times,serif" font-size="14.00">string</text>
</g>
<!-- food&#45;&gt;highest FDA approval status -->
<g id="edge18" class="edge">
<title>food&#45;&gt;highest FDA approval status</title>
<path fill="none" stroke="blue" d="M1252.17,-92.55C1257.54,-90.28 1263.36,-88.23 1268.99,-87 1489.85,-38.91 2064.75,-115.29 2285.99,-69 2316.67,-62.58 2349.37,-48.41 2372.88,-36.79"/>
<polygon fill="blue" stroke="blue" points="2374.7,-39.8 2382.04,-32.16 2371.54,-33.55 2374.7,-39.8"/>
<text text-anchor="middle" x="2436.49" y="-57.8" font-family="Times,serif" font-size="14.00">highest FDA approval status</text>
</g>
<!-- drug regulatory status world wide -->
<g id="node21" class="node">
<title>drug regulatory status world wide</title>
<ellipse fill="none" stroke="blue" cx="2593.99" cy="-18" rx="38.19" ry="18"/>
<text text-anchor="middle" x="2593.99" y="-14.3" font-family="Times,serif" font-size="14.00">string</text>
</g>
<!-- food&#45;&gt;drug regulatory status world wide -->
<g id="edge19" class="edge">
<title>food&#45;&gt;drug regulatory status world wide</title>
<path fill="none" stroke="blue" d="M1252.17,-92.54C1257.54,-90.27 1263.36,-88.22 1268.99,-87 1338.18,-72.06 2477.65,-96.23 2542.99,-69 2556,-63.58 2567.5,-53.12 2576.28,-43.17"/>
<polygon fill="blue" stroke="blue" points="2579.03,-45.33 2582.71,-35.39 2573.64,-40.87 2579.03,-45.33"/>
<text text-anchor="middle" x="2688.99" y="-57.8" font-family="Times,serif" font-size="14.00">drug regulatory status world wide</text>
</g>
<!-- routes of delivery -->
<g id="node22" class="node">
<title>routes of delivery</title>
<ellipse fill="none" stroke="blue" cx="2862.99" cy="-18" rx="104.78" ry="18"/>
<text text-anchor="middle" x="2862.99" y="-14.3" font-family="Times,serif" font-size="14.00">drug_delivery_enum</text>
</g>
<!-- food&#45;&gt;routes of delivery -->
<g id="edge20" class="edge">
<title>food&#45;&gt;routes of delivery</title>
<path fill="none" stroke="blue" d="M1252.17,-92.53C1257.54,-90.26 1263.36,-88.21 1268.99,-87 1353.03,-68.97 2737.3,-103.57 2815.99,-69 2827.8,-63.81 2838.03,-54.07 2845.9,-44.55"/>
<polygon fill="blue" stroke="blue" points="2848.87,-46.42 2852.19,-36.36 2843.32,-42.16 2848.87,-46.42"/>
<text text-anchor="middle" x="2900.49" y="-57.8" font-family="Times,serif" font-size="14.00">routes of delivery</text>
</g>
<!-- named thing_category -->
<g id="node13" class="node">
<title>named thing_category</title>
<ellipse fill="none" stroke="blue" cx="1352.99" cy="-105" rx="74.99" ry="18"/>
<text text-anchor="middle" x="1352.99" y="-101.3" font-family="Times,serif" font-size="14.00">category type</text>
</g>
</g>
</svg>
