<?xml version="1.0" encoding="UTF-8" standalone="no"?>
<!DOCTYPE svg PUBLIC "-//W3C//DTD SVG 1.1//EN"
 "http://www.w3.org/Graphics/SVG/1.1/DTD/svg11.dtd">
<!-- Generated by graphviz version 2.40.1 (20161225.0304)
 -->
<!-- Title: %3 Pages: 1 -->
<svg width="1538pt" height="131pt"
 viewBox="0.00 0.00 1537.94 131.00" xmlns="http://www.w3.org/2000/svg" xmlns:xlink="http://www.w3.org/1999/xlink">
<g id="graph0" class="graph" transform="scale(1 1) rotate(0) translate(4 127)">
<title>%3</title>
<polygon fill="#ffffff" stroke="transparent" points="-4,4 -4,-127 1533.9383,-127 1533.9383,4 -4,4"/>
<!-- food additive -->
<g id="node1" class="node">
<title>food additive</title>
<ellipse fill="none" stroke="#000000" cx="766.1424" cy="-105" rx="71.4873" ry="18"/>
<text text-anchor="middle" x="766.1424" y="-101.3" font-family="Times,serif" font-size="14.00" fill="#000000">food additive</text>
</g>
<!-- food component -->
<g id="node2" class="node">
<title>food component</title>
<ellipse fill="none" stroke="#000000" cx="85.1424" cy="-18" rx="85.2851" ry="18"/>
<text text-anchor="middle" x="85.1424" y="-14.3" font-family="Times,serif" font-size="14.00" fill="#000000">food component</text>
</g>
<!-- food additive&#45;&gt;food component -->
<g id="edge1" class="edge">
<title>food additive&#45;&gt;food component</title>
<path fill="none" stroke="#000000" d="M695.2946,-102.1585C607.2145,-97.9627 452.45,-88.4124 321.1424,-69 262.4913,-60.3291 196.6095,-45.6715 149.3904,-34.2894"/>
<polygon fill="#000000" stroke="#000000" points="150.1505,-30.8723 139.6069,-31.9136 148.4986,-37.6746 150.1505,-30.8723"/>
<text text-anchor="middle" x="335.1424" y="-57.8" font-family="Times,serif" font-size="14.00" fill="#000000">is_a</text>
</g>
<!-- id -->
<g id="node3" class="node">
<title>id</title>
<ellipse fill="none" stroke="#0000ff" cx="226.1424" cy="-18" rx="38.1938" ry="18"/>
<text text-anchor="middle" x="226.1424" y="-14.3" font-family="Times,serif" font-size="14.00" fill="#000000">string</text>
</g>
<!-- food additive&#45;&gt;id -->
<g id="edge2" class="edge">
<title>food additive&#45;&gt;id</title>
<path fill="none" stroke="#0000ff" d="M695.979,-101.4675C599.3272,-95.1885 420.5579,-78.4729 274.1424,-36 271.1615,-35.1353 268.1019,-34.1721 265.0404,-33.1533"/>
<polygon fill="#0000ff" stroke="#0000ff" points="265.9444,-29.7616 255.3496,-29.7626 263.6326,-36.3689 265.9444,-29.7616"/>
<text text-anchor="middle" x="414.1424" y="-57.8" font-family="Times,serif" font-size="14.00" fill="#000000">id</text>
</g>
<!-- iri -->
<g id="node4" class="node">
<title>iri</title>
<ellipse fill="none" stroke="#0000ff" cx="327.1424" cy="-18" rx="44.393" ry="18"/>
<text text-anchor="middle" x="327.1424" y="-14.3" font-family="Times,serif" font-size="14.00" fill="#000000">iri type</text>
</g>
<!-- food additive&#45;&gt;iri -->
<g id="edge3" class="edge">
<title>food additive&#45;&gt;iri</title>
<path fill="none" stroke="#0000ff" d="M701.3789,-97.2606C651.1781,-90.861 579.9821,-80.9099 518.1424,-69 456.6422,-57.1555 441.35,-53.2518 381.1424,-36 377.7626,-35.0315 374.2792,-33.9846 370.7863,-32.8997"/>
<polygon fill="#0000ff" stroke="#0000ff" points="371.5863,-29.4812 360.9956,-29.7754 369.4582,-36.1499 371.5863,-29.4812"/>
<text text-anchor="middle" x="526.1424" y="-57.8" font-family="Times,serif" font-size="14.00" fill="#000000">iri</text>
</g>
<!-- type -->
<g id="node5" class="node">
<title>type</title>
<ellipse fill="none" stroke="#0000ff" cx="428.1424" cy="-18" rx="38.1938" ry="18"/>
<text text-anchor="middle" x="428.1424" y="-14.3" font-family="Times,serif" font-size="14.00" fill="#000000">string</text>
</g>
<!-- food additive&#45;&gt;type -->
<g id="edge4" class="edge">
<title>food additive&#45;&gt;type</title>
<path fill="none" stroke="#0000ff" d="M709.1327,-94.0994C649.9653,-82.1794 555.0709,-61.3542 475.1424,-36 472.4096,-35.1331 469.6052,-34.1927 466.7924,-33.2119"/>
<polygon fill="#0000ff" stroke="#0000ff" points="467.8832,-29.8846 457.289,-29.7697 465.4992,-36.4661 467.8832,-29.8846"/>
<text text-anchor="middle" x="610.1424" y="-57.8" font-family="Times,serif" font-size="14.00" fill="#000000">type</text>
</g>
<!-- name -->
<g id="node6" class="node">
<title>name</title>
<ellipse fill="none" stroke="#0000ff" cx="541.1424" cy="-18" rx="56.59" ry="18"/>
<text text-anchor="middle" x="541.1424" y="-14.3" font-family="Times,serif" font-size="14.00" fill="#000000">label type</text>
</g>
<!-- food additive&#45;&gt;name -->
<g id="edge5" class="edge">
<title>food additive&#45;&gt;name</title>
<path fill="none" stroke="#0000ff" d="M726.9504,-89.8458C687.9023,-74.7471 627.984,-51.5787 586.8065,-35.6568"/>
<polygon fill="#0000ff" stroke="#0000ff" points="587.8741,-32.3171 577.2848,-31.975 585.3495,-38.846 587.8741,-32.3171"/>
<text text-anchor="middle" x="687.1424" y="-57.8" font-family="Times,serif" font-size="14.00" fill="#000000">name</text>
</g>
<!-- description -->
<g id="node7" class="node">
<title>description</title>
<ellipse fill="none" stroke="#0000ff" cx="691.1424" cy="-18" rx="75.2868" ry="18"/>
<text text-anchor="middle" x="691.1424" y="-14.3" font-family="Times,serif" font-size="14.00" fill="#000000">narrative text</text>
</g>
<!-- food additive&#45;&gt;description -->
<g id="edge6" class="edge">
<title>food additive&#45;&gt;description</title>
<path fill="none" stroke="#0000ff" d="M750.9651,-87.3943C740.1593,-74.8595 725.4655,-57.8147 713.3449,-43.7548"/>
<polygon fill="#0000ff" stroke="#0000ff" points="715.735,-41.167 706.5547,-35.8782 710.4331,-45.7376 715.735,-41.167"/>
<text text-anchor="middle" x="774.1424" y="-57.8" font-family="Times,serif" font-size="14.00" fill="#000000">description</text>
</g>
<!-- source -->
<g id="node8" class="node">
<title>source</title>
<ellipse fill="none" stroke="#0000ff" cx="841.1424" cy="-18" rx="56.59" ry="18"/>
<text text-anchor="middle" x="841.1424" y="-14.3" font-family="Times,serif" font-size="14.00" fill="#000000">label type</text>
</g>
<!-- food additive&#45;&gt;source -->
<g id="edge7" class="edge">
<title>food additive&#45;&gt;source</title>
<path fill="none" stroke="#0000ff" d="M796.6031,-88.5853C804.695,-83.1567 812.9064,-76.545 819.1424,-69 824.7328,-62.2362 829.1286,-53.8368 832.4728,-45.8192"/>
<polygon fill="#0000ff" stroke="#0000ff" points="835.7845,-46.9563 836.0399,-36.3646 829.2351,-44.4853 835.7845,-46.9563"/>
<text text-anchor="middle" x="853.6424" y="-57.8" font-family="Times,serif" font-size="14.00" fill="#000000">source</text>
</g>
<!-- provided by -->
<g id="node9" class="node">
<title>provided by</title>
<ellipse fill="none" stroke="#0000ff" cx="953.1424" cy="-18" rx="37.0935" ry="18"/>
<text text-anchor="middle" x="953.1424" y="-14.3" font-family="Times,serif" font-size="14.00" fill="#000000">agent</text>
</g>
<!-- food additive&#45;&gt;provided by -->
<g id="edge8" class="edge">
<title>food additive&#45;&gt;provided by</title>
<path fill="none" stroke="#0000ff" d="M818.3395,-92.6649C838.8062,-86.8455 862.1333,-78.9613 882.1424,-69 897.8569,-61.1768 913.865,-50.0119 926.6934,-40.1221"/>
<polygon fill="#0000ff" stroke="#0000ff" points="928.9505,-42.7994 934.6294,-33.855 924.6122,-37.3058 928.9505,-42.7994"/>
<text text-anchor="middle" x="949.6424" y="-57.8" font-family="Times,serif" font-size="14.00" fill="#000000">provided by</text>
</g>
<!-- has attribute -->
<g id="node10" class="node">
<title>has attribute</title>
<ellipse fill="none" stroke="#0000ff" cx="1060.1424" cy="-18" rx="51.9908" ry="18"/>
<text text-anchor="middle" x="1060.1424" y="-14.3" font-family="Times,serif" font-size="14.00" fill="#000000">attribute</text>
</g>
<!-- food additive&#45;&gt;has attribute -->
<g id="edge9" class="edge">
<title>food additive&#45;&gt;has attribute</title>
<path fill="none" stroke="#0000ff" d="M818.0598,-92.512C827.377,-90.5015 837.0229,-88.5689 846.1424,-87 912.3153,-75.6157 934.1971,-94.908 996.1424,-69 1010.9086,-62.8242 1025.0727,-52.2074 1036.305,-42.2543"/>
<polygon fill="#0000ff" stroke="#0000ff" points="1038.9692,-44.5576 1043.9324,-35.1972 1034.2152,-39.4195 1038.9692,-44.5576"/>
<text text-anchor="middle" x="1069.1424" y="-57.8" font-family="Times,serif" font-size="14.00" fill="#000000">has attribute</text>
</g>
<!-- category -->
<g id="node11" class="node">
<title>category</title>
<ellipse fill="none" stroke="#000000" cx="1182.1424" cy="-18" rx="51.9908" ry="18"/>
<text text-anchor="middle" x="1182.1424" y="-14.3" font-family="Times,serif" font-size="14.00" fill="#000000">category</text>
</g>
<!-- food additive&#45;&gt;category -->
<g id="edge10" class="edge">
<title>food additive&#45;&gt;category</title>
<path fill="none" stroke="#0000ff" d="M817.1351,-92.2832C826.7236,-90.2464 836.7022,-88.3636 846.1424,-87 906.5358,-78.2762 1063.4071,-91.4623 1120.1424,-69 1134.8458,-63.1787 1148.6947,-52.4995 1159.5583,-42.4119"/>
<polygon fill="#0000ff" stroke="#0000ff" points="1162.1902,-44.7342 1166.9107,-35.2491 1157.3055,-39.7203 1162.1902,-44.7342"/>
<text text-anchor="middle" x="1177.1424" y="-57.8" font-family="Times,serif" font-size="14.00" fill="#000000">category</text>
</g>
<!-- in taxon -->
<g id="node13" class="node">
<title>in taxon</title>
<ellipse fill="none" stroke="#0000ff" cx="1335.1424" cy="-18" rx="83.3857" ry="18"/>
<text text-anchor="middle" x="1335.1424" y="-14.3" font-family="Times,serif" font-size="14.00" fill="#000000">organism taxon</text>
</g>
<!-- food additive&#45;&gt;in taxon -->
<g id="edge11" class="edge">
<title>food additive&#45;&gt;in taxon</title>
<path fill="none" stroke="#0000ff" d="M816.688,-92.2459C826.4093,-90.1859 836.5502,-88.3045 846.1424,-87 1007.9602,-64.9944 1053.8603,-105.0337 1213.1424,-69 1241.3826,-62.6114 1271.4087,-50.1389 1294.6066,-39.1278"/>
<polygon fill="#0000ff" stroke="#0000ff" points="1296.3117,-42.1909 1303.7837,-34.6795 1293.2584,-35.8919 1296.3117,-42.1909"/>
<text text-anchor="middle" x="1287.1424" y="-57.8" font-family="Times,serif" font-size="14.00" fill="#000000">in taxon</text>
</g>
<!-- is metabolite -->
<g id="node14" class="node">
<title>is metabolite</title>
<ellipse fill="none" stroke="#0000ff" cx="1483.1424" cy="-18" rx="46.5926" ry="18"/>
<text text-anchor="middle" x="1483.1424" y="-14.3" font-family="Times,serif" font-size="14.00" fill="#000000">boolean</text>
</g>
<!-- food additive&#45;&gt;is metabolite -->
<g id="edge12" class="edge">
<title>food additive&#45;&gt;is metabolite</title>
<path fill="none" stroke="#0000ff" d="M816.6766,-92.1601C826.3989,-90.1081 836.5431,-88.2514 846.1424,-87 1055.192,-59.7469 1112.3116,-104.3667 1320.1424,-69 1362.2628,-61.8324 1408.6083,-46.5758 1441.0781,-34.6072"/>
<polygon fill="#0000ff" stroke="#0000ff" points="1442.5501,-37.7934 1450.6894,-31.0109 1440.0969,-31.2373 1442.5501,-37.7934"/>
<text text-anchor="middle" x="1427.1424" y="-57.8" font-family="Times,serif" font-size="14.00" fill="#000000">is metabolite</text>
</g>
<!-- named thing_category -->
<g id="node12" class="node">
<title>named thing_category</title>
<ellipse fill="none" stroke="#0000ff" cx="925.1424" cy="-105" rx="69.5877" ry="18"/>
<text text-anchor="middle" x="925.1424" y="-101.3" font-family="Times,serif" font-size="14.00" fill="#000000">named thing</text>
</g>
</g>
</svg>
