<?xml version="1.0" encoding="UTF-8" standalone="no"?>
<!DOCTYPE svg PUBLIC "-//W3C//DTD SVG 1.1//EN"
 "http://www.w3.org/Graphics/SVG/1.1/DTD/svg11.dtd">
<!-- Generated by graphviz version 3.0.0 (20220226.1711)
 -->
<!-- Pages: 1 -->
<svg width="2314pt" height="131pt"
 viewBox="0.00 0.00 2313.94 131.00" xmlns="http://www.w3.org/2000/svg" xmlns:xlink="http://www.w3.org/1999/xlink">
<g id="graph0" class="graph" transform="scale(1 1) rotate(0) translate(4 127)">
<polygon fill="white" stroke="transparent" points="-4,4 -4,-127 2309.94,-127 2309.94,4 -4,4"/>
<!-- food -->
<g id="node1" class="node">
<title>food</title>
<ellipse fill="none" stroke="black" cx="953.44" cy="-105" rx="27" ry="18"/>
<text text-anchor="middle" x="953.44" y="-101.3" font-family="Times,serif" font-size="14.00">food</text>
</g>
<!-- chemical mixture -->
<g id="node2" class="node">
<title>chemical mixture</title>
<ellipse fill="none" stroke="black" cx="73.44" cy="-18" rx="73.39" ry="18"/>
<text text-anchor="middle" x="73.44" y="-14.3" font-family="Times,serif" font-size="14.00">chemical mixture</text>
</g>
<!-- food&#45;&gt;chemical mixture -->
<g id="edge1" class="edge">
<title>food&#45;&gt;chemical mixture</title>
<path fill="none" stroke="black" d="M926.2,-103.34C815.45,-100.52 398.67,-88.82 268.44,-69 219.6,-61.57 165.24,-47.1 126.34,-35.63"/>
<polygon fill="black" stroke="black" points="126.89,-32.14 116.3,-32.63 124.89,-38.84 126.89,-32.14"/>
<text text-anchor="middle" x="279.44" y="-57.8" font-family="Times,serif" font-size="14.00">is_a</text>
</g>
<!-- id -->
<g id="node3" class="node">
<title>id</title>
<ellipse fill="none" stroke="blue" cx="195.44" cy="-18" rx="30.59" ry="18"/>
<text text-anchor="middle" x="195.44" y="-14.3" font-family="Times,serif" font-size="14.00">string</text>
</g>
<!-- food&#45;&gt;id -->
<g id="edge2" class="edge">
<title>food&#45;&gt;id</title>
<path fill="none" stroke="blue" d="M926.44,-104.14C842.93,-104.19 581.67,-101.55 368.44,-69 308.24,-59.81 293.21,-55.3 235.44,-36 233.06,-35.2 230.63,-34.33 228.19,-33.41"/>
<polygon fill="blue" stroke="blue" points="229.48,-30.15 218.89,-29.7 226.88,-36.66 229.48,-30.15"/>
<text text-anchor="middle" x="373.94" y="-57.8" font-family="Times,serif" font-size="14.00">id</text>
</g>
<!-- iri -->
<g id="node4" class="node">
<title>iri</title>
<ellipse fill="none" stroke="blue" cx="280.44" cy="-18" rx="36.29" ry="18"/>
<text text-anchor="middle" x="280.44" y="-14.3" font-family="Times,serif" font-size="14.00">iri type</text>
</g>
<!-- food&#45;&gt;iri -->
<g id="edge3" class="edge">
<title>food&#45;&gt;iri</title>
<path fill="none" stroke="blue" d="M926.28,-104.13C849.52,-104.07 624.67,-100.96 441.44,-69 397.81,-61.39 349.5,-45.3 317.29,-33.42"/>
<polygon fill="blue" stroke="blue" points="318.42,-30.11 307.83,-29.88 315.97,-36.66 318.42,-30.11"/>
<text text-anchor="middle" x="447.94" y="-57.8" font-family="Times,serif" font-size="14.00">iri</text>
</g>
<!-- type -->
<g id="node5" class="node">
<title>type</title>
<ellipse fill="none" stroke="blue" cx="365.44" cy="-18" rx="30.59" ry="18"/>
<text text-anchor="middle" x="365.44" y="-14.3" font-family="Times,serif" font-size="14.00">string</text>
</g>
<!-- food&#45;&gt;type -->
<g id="edge4" class="edge">
<title>food&#45;&gt;type</title>
<path fill="none" stroke="blue" d="M926.28,-103.7C857.57,-102.54 671.5,-96.85 519.44,-69 467.56,-59.5 455.14,-53.68 405.44,-36 403.08,-35.16 400.66,-34.25 398.23,-33.3"/>
<polygon fill="blue" stroke="blue" points="399.53,-30.06 388.95,-29.54 396.9,-36.54 399.53,-30.06"/>
<text text-anchor="middle" x="531.44" y="-57.8" font-family="Times,serif" font-size="14.00">type</text>
</g>
<!-- name -->
<g id="node6" class="node">
<title>name</title>
<ellipse fill="none" stroke="blue" cx="459.44" cy="-18" rx="45.49" ry="18"/>
<text text-anchor="middle" x="459.44" y="-14.3" font-family="Times,serif" font-size="14.00">label type</text>
</g>
<!-- food&#45;&gt;name -->
<g id="edge5" class="edge">
<title>food&#45;&gt;name</title>
<path fill="none" stroke="blue" d="M926.2,-103.66C865.98,-102.4 717.28,-96.51 596.44,-69 562.25,-61.22 524.96,-47.22 497.93,-36.01"/>
<polygon fill="blue" stroke="blue" points="499.03,-32.68 488.46,-32.03 496.32,-39.13 499.03,-32.68"/>
<text text-anchor="middle" x="611.94" y="-57.8" font-family="Times,serif" font-size="14.00">name</text>
</g>
<!-- description -->
<g id="node7" class="node">
<title>description</title>
<ellipse fill="none" stroke="blue" cx="580.44" cy="-18" rx="57.69" ry="18"/>
<text text-anchor="middle" x="580.44" y="-14.3" font-family="Times,serif" font-size="14.00">narrative text</text>
</g>
<!-- food&#45;&gt;description -->
<g id="edge6" class="edge">
<title>food&#45;&gt;description</title>
<path fill="none" stroke="blue" d="M926.41,-104.59C873.81,-104.91 754.71,-101.59 661.44,-69 642.79,-62.48 623.9,-51.15 609.06,-40.92"/>
<polygon fill="blue" stroke="blue" points="611,-38.01 600.82,-35.07 606.94,-43.71 611,-38.01"/>
<text text-anchor="middle" x="691.94" y="-57.8" font-family="Times,serif" font-size="14.00">description</text>
</g>
<!-- source -->
<g id="node8" class="node">
<title>source</title>
<ellipse fill="none" stroke="blue" cx="686.44" cy="-18" rx="30.59" ry="18"/>
<text text-anchor="middle" x="686.44" y="-14.3" font-family="Times,serif" font-size="14.00">string</text>
</g>
<!-- food&#45;&gt;source -->
<g id="edge7" class="edge">
<title>food&#45;&gt;source</title>
<path fill="none" stroke="blue" d="M926.29,-103.48C886.18,-101.82 809.46,-95.14 750.44,-69 735.15,-62.23 720.29,-50.99 708.74,-40.89"/>
<polygon fill="blue" stroke="blue" points="711.07,-38.28 701.31,-34.14 706.36,-43.46 711.07,-38.28"/>
<text text-anchor="middle" x="768.44" y="-57.8" font-family="Times,serif" font-size="14.00">source</text>
</g>
<!-- has attribute -->
<g id="node9" class="node">
<title>has attribute</title>
<ellipse fill="none" stroke="blue" cx="775.44" cy="-18" rx="40.09" ry="18"/>
<text text-anchor="middle" x="775.44" y="-14.3" font-family="Times,serif" font-size="14.00">attribute</text>
</g>
<!-- food&#45;&gt;has attribute -->
<g id="edge8" class="edge">
<title>food&#45;&gt;has attribute</title>
<path fill="none" stroke="blue" d="M926.33,-104.05C894,-102.79 839.78,-96.32 803.44,-69 795.5,-63.03 789.5,-54.11 785.12,-45.44"/>
<polygon fill="blue" stroke="blue" points="788.3,-43.98 781,-36.3 781.92,-46.85 788.3,-43.98"/>
<text text-anchor="middle" x="836.94" y="-57.8" font-family="Times,serif" font-size="14.00">has attribute</text>
</g>
<!-- provided by -->
<g id="node10" class="node">
<title>provided by</title>
<ellipse fill="none" stroke="blue" cx="864.44" cy="-18" rx="30.59" ry="18"/>
<text text-anchor="middle" x="864.44" y="-14.3" font-family="Times,serif" font-size="14.00">string</text>
</g>
<!-- food&#45;&gt;provided by -->
<g id="edge9" class="edge">
<title>food&#45;&gt;provided by</title>
<path fill="none" stroke="blue" d="M929.22,-96.93C914.26,-91.46 895.65,-82.5 883.44,-69 877.51,-62.44 873.36,-53.84 870.49,-45.62"/>
<polygon fill="blue" stroke="blue" points="873.82,-44.53 867.59,-35.95 867.11,-46.54 873.82,-44.53"/>
<text text-anchor="middle" x="916.44" y="-57.8" font-family="Times,serif" font-size="14.00">provided by</text>
</g>
<!-- category -->
<g id="node11" class="node">
<title>category</title>
<ellipse fill="none" stroke="black" cx="953.44" cy="-18" rx="40.89" ry="18"/>
<text text-anchor="middle" x="953.44" y="-14.3" font-family="Times,serif" font-size="14.00">category</text>
</g>
<!-- food&#45;&gt;category -->
<g id="edge10" class="edge">
<title>food&#45;&gt;category</title>
<path fill="none" stroke="blue" d="M953.44,-86.8C953.44,-75.16 953.44,-59.55 953.44,-46.24"/>
<polygon fill="blue" stroke="blue" points="956.94,-46.18 953.44,-36.18 949.94,-46.18 956.94,-46.18"/>
<text text-anchor="middle" x="976.94" y="-57.8" font-family="Times,serif" font-size="14.00">category</text>
</g>
<!-- trade name -->
<g id="node13" class="node">
<title>trade name</title>
<ellipse fill="none" stroke="blue" cx="1078.44" cy="-18" rx="65.79" ry="18"/>
<text text-anchor="middle" x="1078.44" y="-14.3" font-family="Times,serif" font-size="14.00">chemical entity</text>
</g>
<!-- food&#45;&gt;trade name -->
<g id="edge11" class="edge">
<title>food&#45;&gt;trade name</title>
<path fill="none" stroke="blue" d="M971.62,-91.64C991.28,-78.27 1022.99,-56.71 1046.77,-40.54"/>
<polygon fill="blue" stroke="blue" points="1048.83,-43.37 1055.13,-34.85 1044.89,-37.58 1048.83,-43.37"/>
<text text-anchor="middle" x="1053.94" y="-57.8" font-family="Times,serif" font-size="14.00">trade name</text>
</g>
<!-- available from -->
<g id="node14" class="node">
<title>available from</title>
<ellipse fill="none" stroke="blue" cx="1257.44" cy="-18" rx="94.78" ry="18"/>
<text text-anchor="middle" x="1257.44" y="-14.3" font-family="Times,serif" font-size="14.00">drug_availability_enum</text>
</g>
<!-- food&#45;&gt;available from -->
<g id="edge12" class="edge">
<title>food&#45;&gt;available from</title>
<path fill="none" stroke="blue" d="M974.01,-93.16C978.96,-90.87 984.31,-88.65 989.44,-87 1032.03,-73.34 1044.94,-79.36 1088.44,-69 1126.75,-59.88 1169.25,-47.29 1202.04,-37.03"/>
<polygon fill="blue" stroke="blue" points="1203.41,-40.27 1211.9,-33.93 1201.31,-33.59 1203.41,-40.27"/>
<text text-anchor="middle" x="1185.44" y="-57.8" font-family="Times,serif" font-size="14.00">available from</text>
</g>
<!-- max tolerated dose -->
<g id="node15" class="node">
<title>max tolerated dose</title>
<ellipse fill="none" stroke="blue" cx="1400.44" cy="-18" rx="30.59" ry="18"/>
<text text-anchor="middle" x="1400.44" y="-14.3" font-family="Times,serif" font-size="14.00">string</text>
</g>
<!-- food&#45;&gt;max tolerated dose -->
<g id="edge13" class="edge">
<title>food&#45;&gt;max tolerated dose</title>
<path fill="none" stroke="blue" d="M973.51,-92.94C978.58,-90.6 984.1,-88.41 989.44,-87 1092.87,-59.71 1123.84,-86.03 1229.44,-69 1289.14,-59.37 1304.2,-55.48 1361.44,-36 1363.55,-35.28 1365.69,-34.5 1367.84,-33.68"/>
<polygon fill="blue" stroke="blue" points="1369.23,-36.89 1377.18,-29.89 1366.6,-30.41 1369.23,-36.89"/>
<text text-anchor="middle" x="1355.44" y="-57.8" font-family="Times,serif" font-size="14.00">max tolerated dose</text>
</g>
<!-- is toxic -->
<g id="node16" class="node">
<title>is toxic</title>
<ellipse fill="none" stroke="blue" cx="1487.44" cy="-18" rx="38.19" ry="18"/>
<text text-anchor="middle" x="1487.44" y="-14.3" font-family="Times,serif" font-size="14.00">boolean</text>
</g>
<!-- food&#45;&gt;is toxic -->
<g id="edge14" class="edge">
<title>food&#45;&gt;is toxic</title>
<path fill="none" stroke="blue" d="M973.48,-92.82C978.55,-90.48 984.08,-88.32 989.44,-87 1080.57,-64.51 1322.12,-97.84 1411.44,-69 1429.86,-63.05 1448.07,-51.34 1462.04,-40.74"/>
<polygon fill="blue" stroke="blue" points="1464.46,-43.29 1470.15,-34.35 1460.13,-37.79 1464.46,-43.29"/>
<text text-anchor="middle" x="1463.44" y="-57.8" font-family="Times,serif" font-size="14.00">is toxic</text>
</g>
<!-- has chemical role -->
<g id="node17" class="node">
<title>has chemical role</title>
<ellipse fill="none" stroke="blue" cx="1602.44" cy="-18" rx="59.29" ry="18"/>
<text text-anchor="middle" x="1602.44" y="-14.3" font-family="Times,serif" font-size="14.00">chemical role</text>
</g>
<!-- food&#45;&gt;has chemical role -->
<g id="edge15" class="edge">
<title>food&#45;&gt;has chemical role</title>
<path fill="none" stroke="blue" d="M973.48,-92.8C978.54,-90.46 984.07,-88.31 989.44,-87 1097.04,-60.82 1379.45,-93.5 1487.44,-69 1515.12,-62.72 1544.44,-49.87 1566.54,-38.77"/>
<polygon fill="blue" stroke="blue" points="1568.25,-41.82 1575.55,-34.14 1565.05,-35.6 1568.25,-41.82"/>
<text text-anchor="middle" x="1581.94" y="-57.8" font-family="Times,serif" font-size="14.00">has chemical role</text>
</g>
<!-- is supplement -->
<g id="node18" class="node">
<title>is supplement</title>
<ellipse fill="none" stroke="blue" cx="1753.44" cy="-18" rx="73.39" ry="18"/>
<text text-anchor="middle" x="1753.44" y="-14.3" font-family="Times,serif" font-size="14.00">chemical mixture</text>
</g>
<!-- food&#45;&gt;is supplement -->
<g id="edge16" class="edge">
<title>food&#45;&gt;is supplement</title>
<path fill="none" stroke="blue" d="M973.47,-92.76C978.53,-90.43 984.07,-88.29 989.44,-87 1128.91,-53.68 1494.29,-99.29 1634.44,-69 1662.74,-62.88 1692.79,-50.21 1715.61,-39.15"/>
<polygon fill="blue" stroke="blue" points="1717.2,-42.27 1724.61,-34.69 1714.09,-35.99 1717.2,-42.27"/>
<text text-anchor="middle" x="1720.44" y="-57.8" font-family="Times,serif" font-size="14.00">is supplement</text>
</g>
<!-- highest FDA approval status -->
<g id="node19" class="node">
<title>highest FDA approval status</title>
<ellipse fill="none" stroke="blue" cx="1875.44" cy="-18" rx="30.59" ry="18"/>
<text text-anchor="middle" x="1875.44" y="-14.3" font-family="Times,serif" font-size="14.00">string</text>
</g>
<!-- food&#45;&gt;highest FDA approval status -->
<g id="edge17" class="edge">
<title>food&#45;&gt;highest FDA approval status</title>
<path fill="none" stroke="blue" d="M973.46,-92.75C978.53,-90.41 984.06,-88.27 989.44,-87 1156.66,-47.45 1594.76,-106.49 1762.44,-69 1792.12,-62.37 1823.58,-47.75 1845.74,-36.02"/>
<polygon fill="blue" stroke="blue" points="1847.52,-39.04 1854.64,-31.21 1844.18,-32.89 1847.52,-39.04"/>
<text text-anchor="middle" x="1884.94" y="-57.8" font-family="Times,serif" font-size="14.00">highest FDA approval status</text>
</g>
<!-- drug regulatory status world wide -->
<g id="node20" class="node">
<title>drug regulatory status world wide</title>
<ellipse fill="none" stroke="blue" cx="2014.44" cy="-18" rx="30.59" ry="18"/>
<text text-anchor="middle" x="2014.44" y="-14.3" font-family="Times,serif" font-size="14.00">string</text>
</g>
<!-- food&#45;&gt;drug regulatory status world wide -->
<g id="edge18" class="edge">
<title>food&#45;&gt;drug regulatory status world wide</title>
<path fill="none" stroke="blue" d="M973.46,-92.73C978.52,-90.39 984.06,-88.26 989.44,-87 1042.3,-74.63 1916.7,-90.74 1966.44,-69 1978.85,-63.58 1989.62,-53.27 1997.8,-43.41"/>
<polygon fill="blue" stroke="blue" points="2000.68,-45.4 2004.04,-35.35 1995.15,-41.11 2000.68,-45.4"/>
<text text-anchor="middle" x="2080.44" y="-57.8" font-family="Times,serif" font-size="14.00">drug regulatory status world wide</text>
</g>
<!-- routes of delivery -->
<g id="node21" class="node">
<title>routes of delivery</title>
<ellipse fill="none" stroke="blue" cx="2221.44" cy="-18" rx="84.49" ry="18"/>
<text text-anchor="middle" x="2221.44" y="-14.3" font-family="Times,serif" font-size="14.00">drug_delivery_enum</text>
</g>
<!-- food&#45;&gt;routes of delivery -->
<g id="edge19" class="edge">
<title>food&#45;&gt;routes of delivery</title>
<path fill="none" stroke="blue" d="M973.46,-92.72C978.52,-90.38 984.06,-88.25 989.44,-87 1053.69,-72.08 2116.4,-96.29 2176.44,-69 2187.96,-63.77 2197.78,-54.02 2205.28,-44.5"/>
<polygon fill="blue" stroke="blue" points="2208.19,-46.47 2211.27,-36.33 2202.54,-42.33 2208.19,-46.47"/>
<text text-anchor="middle" x="2244.94" y="-57.8" font-family="Times,serif" font-size="14.00">routes of delivery</text>
</g>
<!-- named thing_category -->
<g id="node12" class="node">
<title>named thing_category</title>
<ellipse fill="none" stroke="blue" cx="1053.44" cy="-105" rx="55.49" ry="18"/>
<text text-anchor="middle" x="1053.44" y="-101.3" font-family="Times,serif" font-size="14.00">named thing</text>
</g>
</g>
</svg>
