<?xml version="1.0" encoding="UTF-8" standalone="no"?>
<!DOCTYPE svg PUBLIC "-//W3C//DTD SVG 1.1//EN"
 "http://www.w3.org/Graphics/SVG/1.1/DTD/svg11.dtd">
<!-- Generated by graphviz version 2.43.0 (0)
 -->
<!-- Title: %3 Pages: 1 -->
<svg width="4673pt" height="291pt"
 viewBox="0.00 0.00 4673.39 291.00" xmlns="http://www.w3.org/2000/svg" xmlns:xlink="http://www.w3.org/1999/xlink">
<g id="graph0" class="graph" transform="scale(1 1) rotate(0) translate(4 287)">
<title>%3</title>
<polygon fill="white" stroke="transparent" points="-4,4 -4,-287 4669.39,-287 4669.39,4 -4,4"/>
<!-- functional association -->
<g id="node1" class="node">
<title>functional association</title>
<ellipse fill="none" stroke="black" cx="2301.39" cy="-265" rx="111.58" ry="18"/>
<text text-anchor="middle" x="2301.39" y="-261.3" font-family="Times,serif" font-size="14.00">functional association</text>
</g>
<!-- association -->
<g id="node2" class="node">
<title>association</title>
<ellipse fill="none" stroke="black" cx="62.39" cy="-178" rx="62.29" ry="18"/>
<text text-anchor="middle" x="62.39" y="-174.3" font-family="Times,serif" font-size="14.00">association</text>
</g>
<!-- functional association&#45;&gt;association -->
<g id="edge1" class="edge">
<title>functional association&#45;&gt;association</title>
<path fill="none" stroke="black" d="M2189.75,-263.54C1791.88,-261.68 456.88,-253.67 266.39,-229 213.11,-222.1 153.58,-206.58 112.65,-194.65"/>
<polygon fill="black" stroke="black" points="113.5,-191.25 102.91,-191.77 111.51,-197.96 113.5,-191.25"/>
<text text-anchor="middle" x="280.39" y="-217.8" font-family="Times,serif" font-size="14.00">is_a</text>
</g>
<!-- id -->
<g id="node3" class="node">
<title>id</title>
<ellipse fill="none" stroke="blue" cx="181.39" cy="-178" rx="38.19" ry="18"/>
<text text-anchor="middle" x="181.39" y="-174.3" font-family="Times,serif" font-size="14.00">string</text>
</g>
<!-- functional association&#45;&gt;id -->
<g id="edge2" class="edge">
<title>functional association&#45;&gt;id</title>
<path fill="none" stroke="blue" d="M2189.93,-263.17C1808.14,-260.17 566.81,-248.97 388.39,-229 316.67,-220.97 298.9,-215.43 229.39,-196 226.29,-195.13 223.09,-194.17 219.89,-193.15"/>
<polygon fill="blue" stroke="blue" points="220.98,-189.82 210.38,-189.98 218.76,-196.46 220.98,-189.82"/>
<text text-anchor="middle" x="395.39" y="-217.8" font-family="Times,serif" font-size="14.00">id</text>
</g>
<!-- iri -->
<g id="node4" class="node">
<title>iri</title>
<ellipse fill="none" stroke="blue" cx="282.39" cy="-178" rx="44.39" ry="18"/>
<text text-anchor="middle" x="282.39" y="-174.3" font-family="Times,serif" font-size="14.00">iri type</text>
</g>
<!-- functional association&#45;&gt;iri -->
<g id="edge3" class="edge">
<title>functional association&#45;&gt;iri</title>
<path fill="none" stroke="blue" d="M2189.52,-264.45C1849.13,-265.41 829.2,-265.09 499.39,-229 425.49,-220.91 407.35,-214.72 335.39,-196 332.02,-195.12 328.54,-194.15 325.06,-193.14"/>
<polygon fill="blue" stroke="blue" points="325.89,-189.73 315.31,-190.19 323.86,-196.43 325.89,-189.73"/>
<text text-anchor="middle" x="507.39" y="-217.8" font-family="Times,serif" font-size="14.00">iri</text>
</g>
<!-- name -->
<g id="node5" class="node">
<title>name</title>
<ellipse fill="none" stroke="blue" cx="401.39" cy="-178" rx="56.59" ry="18"/>
<text text-anchor="middle" x="401.39" y="-174.3" font-family="Times,serif" font-size="14.00">label type</text>
</g>
<!-- functional association&#45;&gt;name -->
<g id="edge4" class="edge">
<title>functional association&#45;&gt;name</title>
<path fill="none" stroke="blue" d="M2190.08,-263.22C1836.24,-260.54 751.31,-250.63 594.39,-229 543.88,-222.04 487.58,-206.53 448.89,-194.61"/>
<polygon fill="blue" stroke="blue" points="449.54,-191.15 438.96,-191.52 447.46,-197.83 449.54,-191.15"/>
<text text-anchor="middle" x="614.39" y="-217.8" font-family="Times,serif" font-size="14.00">name</text>
</g>
<!-- description -->
<g id="node6" class="node">
<title>description</title>
<ellipse fill="none" stroke="blue" cx="551.39" cy="-178" rx="75.29" ry="18"/>
<text text-anchor="middle" x="551.39" y="-174.3" font-family="Times,serif" font-size="14.00">narrative text</text>
</g>
<!-- functional association&#45;&gt;description -->
<g id="edge5" class="edge">
<title>functional association&#45;&gt;description</title>
<path fill="none" stroke="blue" d="M2189.7,-263.59C1849.46,-262.08 840.15,-255.38 694.39,-229 659.78,-222.74 622.31,-209.37 594.41,-198.03"/>
<polygon fill="blue" stroke="blue" points="595.54,-194.71 584.96,-194.12 592.86,-201.18 595.54,-194.71"/>
<text text-anchor="middle" x="734.89" y="-217.8" font-family="Times,serif" font-size="14.00">description</text>
</g>
<!-- has attribute -->
<g id="node7" class="node">
<title>has attribute</title>
<ellipse fill="none" stroke="blue" cx="696.39" cy="-178" rx="51.99" ry="18"/>
<text text-anchor="middle" x="696.39" y="-174.3" font-family="Times,serif" font-size="14.00">attribute</text>
</g>
<!-- functional association&#45;&gt;has attribute -->
<g id="edge6" class="edge">
<title>functional association&#45;&gt;has attribute</title>
<path fill="none" stroke="blue" d="M2189.75,-263.45C1869.8,-261.56 964.08,-254.06 832.39,-229 798.39,-222.53 761.65,-208.57 734.94,-197.04"/>
<polygon fill="blue" stroke="blue" points="736.14,-193.74 725.57,-192.92 733.32,-200.15 736.14,-193.74"/>
<text text-anchor="middle" x="879.39" y="-217.8" font-family="Times,serif" font-size="14.00">has attribute</text>
</g>
<!-- predicate -->
<g id="node8" class="node">
<title>predicate</title>
<ellipse fill="none" stroke="blue" cx="844.39" cy="-178" rx="77.99" ry="18"/>
<text text-anchor="middle" x="844.39" y="-174.3" font-family="Times,serif" font-size="14.00">predicate type</text>
</g>
<!-- functional association&#45;&gt;predicate -->
<g id="edge7" class="edge">
<title>functional association&#45;&gt;predicate</title>
<path fill="none" stroke="blue" d="M2190.14,-263.04C1894.16,-260.2 1101.96,-250.66 985.39,-229 951.47,-222.7 914.79,-209.47 887.35,-198.21"/>
<polygon fill="blue" stroke="blue" points="888.62,-194.95 878.04,-194.32 885.92,-201.4 888.62,-194.95"/>
<text text-anchor="middle" x="1019.39" y="-217.8" font-family="Times,serif" font-size="14.00">predicate</text>
</g>
<!-- negated -->
<g id="node9" class="node">
<title>negated</title>
<ellipse fill="none" stroke="blue" cx="987.39" cy="-178" rx="46.59" ry="18"/>
<text text-anchor="middle" x="987.39" y="-174.3" font-family="Times,serif" font-size="14.00">boolean</text>
</g>
<!-- functional association&#45;&gt;negated -->
<g id="edge8" class="edge">
<title>functional association&#45;&gt;negated</title>
<path fill="none" stroke="blue" d="M2190,-263.16C1912.76,-260.71 1206.56,-252.26 1102.39,-229 1073.95,-222.65 1043.81,-209.27 1021.52,-197.94"/>
<polygon fill="blue" stroke="blue" points="1022.96,-194.75 1012.48,-193.24 1019.73,-200.96 1022.96,-194.75"/>
<text text-anchor="middle" x="1131.39" y="-217.8" font-family="Times,serif" font-size="14.00">negated</text>
</g>
<!-- qualifier -->
<g id="node10" class="node">
<title>qualifier</title>
<ellipse fill="none" stroke="blue" cx="1090.39" cy="-178" rx="38.19" ry="18"/>
<text text-anchor="middle" x="1090.39" y="-174.3" font-family="Times,serif" font-size="14.00">string</text>
</g>
<!-- functional association&#45;&gt;qualifier -->
<g id="edge9" class="edge">
<title>functional association&#45;&gt;qualifier</title>
<path fill="none" stroke="blue" d="M2190.28,-262.69C1931.8,-259.32 1305.04,-249.15 1211.39,-229 1180.54,-222.36 1147.55,-208.21 1123.83,-196.65"/>
<polygon fill="blue" stroke="blue" points="1125.09,-193.37 1114.58,-192.05 1121.97,-199.64 1125.09,-193.37"/>
<text text-anchor="middle" x="1241.39" y="-217.8" font-family="Times,serif" font-size="14.00">qualifier</text>
</g>
<!-- qualifiers -->
<g id="node11" class="node">
<title>qualifiers</title>
<ellipse fill="none" stroke="blue" cx="1223.39" cy="-178" rx="76.89" ry="18"/>
<text text-anchor="middle" x="1223.39" y="-174.3" font-family="Times,serif" font-size="14.00">ontology class</text>
</g>
<!-- functional association&#45;&gt;qualifiers -->
<g id="edge10" class="edge">
<title>functional association&#45;&gt;qualifiers</title>
<path fill="none" stroke="blue" d="M2189.95,-263.09C1948.67,-260.67 1392.95,-252.6 1310.39,-229 1290.04,-223.18 1269.41,-211.62 1253.35,-201.08"/>
<polygon fill="blue" stroke="blue" points="1255.17,-198.09 1244.93,-195.38 1251.25,-203.88 1255.17,-198.09"/>
<text text-anchor="middle" x="1343.89" y="-217.8" font-family="Times,serif" font-size="14.00">qualifiers</text>
</g>
<!-- publications -->
<g id="node12" class="node">
<title>publications</title>
<ellipse fill="none" stroke="blue" cx="1380.39" cy="-178" rx="62.29" ry="18"/>
<text text-anchor="middle" x="1380.39" y="-174.3" font-family="Times,serif" font-size="14.00">publication</text>
</g>
<!-- functional association&#45;&gt;publications -->
<g id="edge11" class="edge">
<title>functional association&#45;&gt;publications</title>
<path fill="none" stroke="blue" d="M2190.03,-263.36C1953.55,-261.51 1420.34,-254.52 1390.39,-229 1383.78,-223.37 1380.77,-214.71 1379.57,-206.17"/>
<polygon fill="blue" stroke="blue" points="1383.05,-205.77 1378.88,-196.02 1376.07,-206.24 1383.05,-205.77"/>
<text text-anchor="middle" x="1434.39" y="-217.8" font-family="Times,serif" font-size="14.00">publications</text>
</g>
<!-- has evidence -->
<g id="node13" class="node">
<title>has evidence</title>
<ellipse fill="none" stroke="blue" cx="1536.39" cy="-178" rx="75.29" ry="18"/>
<text text-anchor="middle" x="1536.39" y="-174.3" font-family="Times,serif" font-size="14.00">evidence type</text>
</g>
<!-- functional association&#45;&gt;has evidence -->
<g id="edge12" class="edge">
<title>functional association&#45;&gt;has evidence</title>
<path fill="none" stroke="blue" d="M2189.95,-263.24C1972.42,-261.22 1510.32,-253.98 1486.39,-229 1477.22,-219.42 1484.7,-209.02 1496.41,-200.2"/>
<polygon fill="blue" stroke="blue" points="1498.71,-202.87 1505.04,-194.37 1494.79,-197.07 1498.71,-202.87"/>
<text text-anchor="middle" x="1532.89" y="-217.8" font-family="Times,serif" font-size="14.00">has evidence</text>
</g>
<!-- knowledge source -->
<g id="node14" class="node">
<title>knowledge source</title>
<ellipse fill="none" stroke="blue" cx="1668.39" cy="-178" rx="38.19" ry="18"/>
<text text-anchor="middle" x="1668.39" y="-174.3" font-family="Times,serif" font-size="14.00">string</text>
</g>
<!-- functional association&#45;&gt;knowledge source -->
<g id="edge13" class="edge">
<title>functional association&#45;&gt;knowledge source</title>
<path fill="none" stroke="blue" d="M2190.47,-262.53C1994.79,-259.39 1606.86,-250.49 1586.39,-229 1581.8,-224.17 1582.72,-219.56 1586.39,-214 1589.13,-209.87 1609.64,-201.11 1629.46,-193.39"/>
<polygon fill="blue" stroke="blue" points="1630.98,-196.56 1639.06,-189.71 1628.47,-190.02 1630.98,-196.56"/>
<text text-anchor="middle" x="1650.89" y="-217.8" font-family="Times,serif" font-size="14.00">knowledge source</text>
</g>
<!-- primary knowledge source -->
<g id="node15" class="node">
<title>primary knowledge source</title>
<ellipse fill="none" stroke="blue" cx="1763.39" cy="-178" rx="38.19" ry="18"/>
<text text-anchor="middle" x="1763.39" y="-174.3" font-family="Times,serif" font-size="14.00">string</text>
</g>
<!-- functional association&#45;&gt;primary knowledge source -->
<g id="edge14" class="edge">
<title>functional association&#45;&gt;primary knowledge source</title>
<path fill="none" stroke="blue" d="M2191.86,-261.21C2028.46,-256.49 1738.22,-245.81 1722.39,-229 1713.39,-219.44 1721.18,-208.17 1732.3,-198.76"/>
<polygon fill="blue" stroke="blue" points="1734.55,-201.44 1740.36,-192.58 1730.29,-195.88 1734.55,-201.44"/>
<text text-anchor="middle" x="1817.39" y="-217.8" font-family="Times,serif" font-size="14.00">primary knowledge source</text>
</g>
<!-- aggregator knowledge source -->
<g id="node16" class="node">
<title>aggregator knowledge source</title>
<ellipse fill="none" stroke="blue" cx="1905.39" cy="-178" rx="38.19" ry="18"/>
<text text-anchor="middle" x="1905.39" y="-174.3" font-family="Times,serif" font-size="14.00">string</text>
</g>
<!-- functional association&#45;&gt;aggregator knowledge source -->
<g id="edge15" class="edge">
<title>functional association&#45;&gt;aggregator knowledge source</title>
<path fill="none" stroke="blue" d="M2194.72,-259.4C2092.22,-254.11 1949.79,-244.16 1928.39,-229 1920.58,-223.46 1915.36,-214.59 1911.9,-205.85"/>
<polygon fill="blue" stroke="blue" points="1915.17,-204.6 1908.69,-196.22 1908.53,-206.81 1915.17,-204.6"/>
<text text-anchor="middle" x="2034.89" y="-217.8" font-family="Times,serif" font-size="14.00">aggregator knowledge source</text>
</g>
<!-- timepoint -->
<g id="node17" class="node">
<title>timepoint</title>
<ellipse fill="none" stroke="blue" cx="2131.39" cy="-178" rx="55.49" ry="18"/>
<text text-anchor="middle" x="2131.39" y="-174.3" font-family="Times,serif" font-size="14.00">time type</text>
</g>
<!-- functional association&#45;&gt;timepoint -->
<g id="edge16" class="edge">
<title>functional association&#45;&gt;timepoint</title>
<path fill="none" stroke="blue" d="M2211.89,-254.14C2192.86,-248.89 2173.87,-240.95 2158.39,-229 2150.68,-223.04 2144.9,-214.23 2140.71,-205.66"/>
<polygon fill="blue" stroke="blue" points="2143.82,-204.04 2136.63,-196.25 2137.39,-206.82 2143.82,-204.04"/>
<text text-anchor="middle" x="2193.39" y="-217.8" font-family="Times,serif" font-size="14.00">timepoint</text>
</g>
<!-- original subject -->
<g id="node18" class="node">
<title>original subject</title>
<ellipse fill="none" stroke="blue" cx="2243.39" cy="-178" rx="38.19" ry="18"/>
<text text-anchor="middle" x="2243.39" y="-174.3" font-family="Times,serif" font-size="14.00">string</text>
</g>
<!-- functional association&#45;&gt;original subject -->
<g id="edge17" class="edge">
<title>functional association&#45;&gt;original subject</title>
<path fill="none" stroke="blue" d="M2255.92,-248.35C2247.74,-243.44 2240.28,-237.11 2235.39,-229 2231.19,-222.01 2231.08,-213.51 2232.66,-205.53"/>
<polygon fill="blue" stroke="blue" points="2236.05,-206.4 2235.37,-195.83 2229.31,-204.52 2236.05,-206.4"/>
<text text-anchor="middle" x="2291.39" y="-217.8" font-family="Times,serif" font-size="14.00">original subject</text>
</g>
<!-- original predicate -->
<g id="node19" class="node">
<title>original predicate</title>
<ellipse fill="none" stroke="blue" cx="2369.39" cy="-178" rx="57.39" ry="18"/>
<text text-anchor="middle" x="2369.39" y="-174.3" font-family="Times,serif" font-size="14.00">uriorcurie</text>
</g>
<!-- functional association&#45;&gt;original predicate -->
<g id="edge18" class="edge">
<title>functional association&#45;&gt;original predicate</title>
<path fill="none" stroke="blue" d="M2328.24,-247.16C2335.11,-241.95 2342.05,-235.78 2347.39,-229 2352.82,-222.12 2357.2,-213.69 2360.57,-205.72"/>
<polygon fill="blue" stroke="blue" points="2363.84,-206.97 2364.2,-196.38 2357.32,-204.43 2363.84,-206.97"/>
<text text-anchor="middle" x="2419.89" y="-217.8" font-family="Times,serif" font-size="14.00">original predicate</text>
</g>
<!-- original object -->
<g id="node20" class="node">
<title>original object</title>
<ellipse fill="none" stroke="blue" cx="2503.39" cy="-178" rx="38.19" ry="18"/>
<text text-anchor="middle" x="2503.39" y="-174.3" font-family="Times,serif" font-size="14.00">string</text>
</g>
<!-- functional association&#45;&gt;original object -->
<g id="edge19" class="edge">
<title>functional association&#45;&gt;original object</title>
<path fill="none" stroke="blue" d="M2382.76,-252.61C2428.95,-245.47 2479.18,-236.26 2487.39,-229 2494,-223.17 2497.9,-214.61 2500.19,-206.21"/>
<polygon fill="blue" stroke="blue" points="2503.65,-206.75 2502.27,-196.25 2496.8,-205.33 2503.65,-206.75"/>
<text text-anchor="middle" x="2549.89" y="-217.8" font-family="Times,serif" font-size="14.00">original object</text>
</g>
<!-- subject category -->
<g id="node21" class="node">
<title>subject category</title>
<ellipse fill="none" stroke="blue" cx="2636.39" cy="-178" rx="76.89" ry="18"/>
<text text-anchor="middle" x="2636.39" y="-174.3" font-family="Times,serif" font-size="14.00">ontology class</text>
</g>
<!-- functional association&#45;&gt;subject category -->
<g id="edge20" class="edge">
<title>functional association&#45;&gt;subject category</title>
<path fill="none" stroke="blue" d="M2381.06,-252.33C2394.83,-250.45 2409.02,-248.6 2422.39,-247 2462.97,-242.16 2570.71,-250.6 2605.39,-229 2614.27,-223.47 2621.01,-214.36 2625.9,-205.42"/>
<polygon fill="blue" stroke="blue" points="2629.1,-206.85 2630.33,-196.33 2622.8,-203.78 2629.1,-206.85"/>
<text text-anchor="middle" x="2679.89" y="-217.8" font-family="Times,serif" font-size="14.00">subject category</text>
</g>
<!-- object category -->
<g id="node22" class="node">
<title>object category</title>
<ellipse fill="none" stroke="blue" cx="2807.39" cy="-178" rx="76.89" ry="18"/>
<text text-anchor="middle" x="2807.39" y="-174.3" font-family="Times,serif" font-size="14.00">ontology class</text>
</g>
<!-- functional association&#45;&gt;object category -->
<g id="edge21" class="edge">
<title>functional association&#45;&gt;object category</title>
<path fill="none" stroke="blue" d="M2379.39,-252.07C2393.67,-250.16 2408.46,-248.37 2422.39,-247 2493.5,-240.02 2676.52,-254.14 2743.39,-229 2758.48,-223.33 2772.84,-212.76 2784.13,-202.79"/>
<polygon fill="blue" stroke="blue" points="2786.81,-205.08 2791.77,-195.72 2782.06,-199.95 2786.81,-205.08"/>
<text text-anchor="middle" x="2824.89" y="-217.8" font-family="Times,serif" font-size="14.00">object category</text>
</g>
<!-- subject closure -->
<g id="node23" class="node">
<title>subject closure</title>
<ellipse fill="none" stroke="blue" cx="2940.39" cy="-178" rx="38.19" ry="18"/>
<text text-anchor="middle" x="2940.39" y="-174.3" font-family="Times,serif" font-size="14.00">string</text>
</g>
<!-- functional association&#45;&gt;subject closure -->
<g id="edge22" class="edge">
<title>functional association&#45;&gt;subject closure</title>
<path fill="none" stroke="blue" d="M2378.72,-251.96C2393.2,-250.04 2408.24,-248.27 2422.39,-247 2473.56,-242.42 2836.76,-248.24 2884.39,-229 2898.26,-223.4 2910.95,-212.77 2920.73,-202.75"/>
<polygon fill="blue" stroke="blue" points="2923.4,-205.02 2927.61,-195.3 2918.25,-200.27 2923.4,-205.02"/>
<text text-anchor="middle" x="2961.89" y="-217.8" font-family="Times,serif" font-size="14.00">subject closure</text>
</g>
<!-- object closure -->
<g id="node24" class="node">
<title>object closure</title>
<ellipse fill="none" stroke="blue" cx="3048.39" cy="-178" rx="38.19" ry="18"/>
<text text-anchor="middle" x="3048.39" y="-174.3" font-family="Times,serif" font-size="14.00">string</text>
</g>
<!-- functional association&#45;&gt;object closure -->
<g id="edge23" class="edge">
<title>functional association&#45;&gt;object closure</title>
<path fill="none" stroke="blue" d="M2378.39,-251.9C2392.97,-249.97 2408.13,-248.21 2422.39,-247 2455.51,-244.18 2991.98,-246.24 3020.39,-229 3029.23,-223.64 3035.51,-214.39 3039.85,-205.3"/>
<polygon fill="blue" stroke="blue" points="3043.09,-206.62 3043.69,-196.05 3036.62,-203.94 3043.09,-206.62"/>
<text text-anchor="middle" x="3084.39" y="-217.8" font-family="Times,serif" font-size="14.00">object closure</text>
</g>
<!-- subject category closure -->
<g id="node25" class="node">
<title>subject category closure</title>
<ellipse fill="none" stroke="blue" cx="3181.39" cy="-178" rx="76.89" ry="18"/>
<text text-anchor="middle" x="3181.39" y="-174.3" font-family="Times,serif" font-size="14.00">ontology class</text>
</g>
<!-- functional association&#45;&gt;subject category closure -->
<g id="edge24" class="edge">
<title>functional association&#45;&gt;subject category closure</title>
<path fill="none" stroke="blue" d="M2378.06,-251.88C2392.74,-249.94 2408.02,-248.19 2422.39,-247 2462.05,-243.73 3102.44,-246.05 3138.39,-229 3149.48,-223.74 3158.82,-214.12 3165.94,-204.71"/>
<polygon fill="blue" stroke="blue" points="3168.98,-206.47 3171.83,-196.26 3163.24,-202.46 3168.98,-206.47"/>
<text text-anchor="middle" x="3244.89" y="-217.8" font-family="Times,serif" font-size="14.00">subject category closure</text>
</g>
<!-- object category closure -->
<g id="node26" class="node">
<title>object category closure</title>
<ellipse fill="none" stroke="blue" cx="3374.39" cy="-178" rx="76.89" ry="18"/>
<text text-anchor="middle" x="3374.39" y="-174.3" font-family="Times,serif" font-size="14.00">ontology class</text>
</g>
<!-- functional association&#45;&gt;object category closure -->
<g id="edge25" class="edge">
<title>functional association&#45;&gt;object category closure</title>
<path fill="none" stroke="blue" d="M2378.05,-251.82C2392.74,-249.88 2408.02,-248.15 2422.39,-247 2473.02,-242.96 3291.12,-252.01 3336.39,-229 3346.71,-223.76 3355,-214.27 3361.17,-204.96"/>
<polygon fill="blue" stroke="blue" points="3364.27,-206.6 3366.44,-196.23 3358.28,-202.99 3364.27,-206.6"/>
<text text-anchor="middle" x="3436.89" y="-217.8" font-family="Times,serif" font-size="14.00">object category closure</text>
</g>
<!-- subject namespace -->
<g id="node27" class="node">
<title>subject namespace</title>
<ellipse fill="none" stroke="blue" cx="3564.39" cy="-178" rx="38.19" ry="18"/>
<text text-anchor="middle" x="3564.39" y="-174.3" font-family="Times,serif" font-size="14.00">string</text>
</g>
<!-- functional association&#45;&gt;subject namespace -->
<g id="edge26" class="edge">
<title>functional association&#45;&gt;subject namespace</title>
<path fill="none" stroke="blue" d="M2377.73,-251.82C2392.51,-249.87 2407.91,-248.13 2422.39,-247 2483.44,-242.23 3469.43,-255.97 3524.39,-229 3535.24,-223.68 3544.09,-213.86 3550.68,-204.32"/>
<polygon fill="blue" stroke="blue" points="3553.7,-206.1 3556.09,-195.78 3547.79,-202.35 3553.7,-206.1"/>
<text text-anchor="middle" x="3610.39" y="-217.8" font-family="Times,serif" font-size="14.00">subject namespace</text>
</g>
<!-- object namespace -->
<g id="node28" class="node">
<title>object namespace</title>
<ellipse fill="none" stroke="blue" cx="3723.39" cy="-178" rx="38.19" ry="18"/>
<text text-anchor="middle" x="3723.39" y="-174.3" font-family="Times,serif" font-size="14.00">string</text>
</g>
<!-- functional association&#45;&gt;object namespace -->
<g id="edge27" class="edge">
<title>functional association&#45;&gt;object namespace</title>
<path fill="none" stroke="blue" d="M2377.72,-251.8C2392.51,-249.85 2407.91,-248.12 2422.39,-247 2457.29,-244.31 3650.86,-244.2 3682.39,-229 3693.39,-223.7 3702.44,-213.88 3709.21,-204.34"/>
<polygon fill="blue" stroke="blue" points="3712.26,-206.09 3714.79,-195.8 3706.39,-202.26 3712.26,-206.09"/>
<text text-anchor="middle" x="3766.39" y="-217.8" font-family="Times,serif" font-size="14.00">object namespace</text>
</g>
<!-- subject label closure -->
<g id="node29" class="node">
<title>subject label closure</title>
<ellipse fill="none" stroke="blue" cx="3874.39" cy="-178" rx="38.19" ry="18"/>
<text text-anchor="middle" x="3874.39" y="-174.3" font-family="Times,serif" font-size="14.00">string</text>
</g>
<!-- functional association&#45;&gt;subject label closure -->
<g id="edge28" class="edge">
<title>functional association&#45;&gt;subject label closure</title>
<path fill="none" stroke="blue" d="M2377.72,-251.78C2392.51,-249.84 2407.91,-248.11 2422.39,-247 2461.51,-244.02 3799.15,-246.22 3834.39,-229 3845.25,-223.7 3854.1,-213.88 3860.69,-204.34"/>
<polygon fill="blue" stroke="blue" points="3863.71,-206.11 3866.1,-195.79 3857.8,-202.37 3863.71,-206.11"/>
<text text-anchor="middle" x="3926.39" y="-217.8" font-family="Times,serif" font-size="14.00">subject label closure</text>
</g>
<!-- object label closure -->
<g id="node30" class="node">
<title>object label closure</title>
<ellipse fill="none" stroke="blue" cx="4045.39" cy="-178" rx="38.19" ry="18"/>
<text text-anchor="middle" x="4045.39" y="-174.3" font-family="Times,serif" font-size="14.00">string</text>
</g>
<!-- functional association&#45;&gt;object label closure -->
<g id="edge29" class="edge">
<title>functional association&#45;&gt;object label closure</title>
<path fill="none" stroke="blue" d="M2377.72,-251.76C2392.51,-249.82 2407.9,-248.1 2422.39,-247 2466.22,-243.69 3964.78,-248.02 4004.39,-229 4015.4,-223.72 4024.45,-213.9 4031.22,-204.36"/>
<polygon fill="blue" stroke="blue" points="4034.27,-206.1 4036.79,-195.81 4028.4,-202.28 4034.27,-206.1"/>
<text text-anchor="middle" x="4093.89" y="-217.8" font-family="Times,serif" font-size="14.00">object label closure</text>
</g>
<!-- retrieval source ids -->
<g id="node31" class="node">
<title>retrieval source ids</title>
<ellipse fill="none" stroke="blue" cx="4207.39" cy="-178" rx="84.49" ry="18"/>
<text text-anchor="middle" x="4207.39" y="-174.3" font-family="Times,serif" font-size="14.00">retrieval source</text>
</g>
<!-- functional association&#45;&gt;retrieval source ids -->
<g id="edge30" class="edge">
<title>functional association&#45;&gt;retrieval source ids</title>
<path fill="none" stroke="blue" d="M2377.4,-251.79C2392.28,-249.84 2407.8,-248.1 2422.39,-247 2470.73,-243.37 4123.81,-250.22 4167.39,-229 4178.11,-223.78 4186.86,-214.17 4193.42,-204.76"/>
<polygon fill="blue" stroke="blue" points="4196.39,-206.61 4198.82,-196.3 4190.49,-202.84 4196.39,-206.61"/>
<text text-anchor="middle" x="4255.89" y="-217.8" font-family="Times,serif" font-size="14.00">retrieval source ids</text>
</g>
<!-- type -->
<g id="node32" class="node">
<title>type</title>
<ellipse fill="none" stroke="black" cx="4341.39" cy="-178" rx="31.4" ry="18"/>
<text text-anchor="middle" x="4341.39" y="-174.3" font-family="Times,serif" font-size="14.00">type</text>
</g>
<!-- functional association&#45;&gt;type -->
<g id="edge31" class="edge">
<title>functional association&#45;&gt;type</title>
<path fill="none" stroke="blue" d="M2377.4,-251.78C2392.28,-249.83 2407.8,-248.09 2422.39,-247 2448.81,-245.03 4308.67,-245.5 4329.39,-229 4336.25,-223.55 4339.61,-214.93 4341.15,-206.37"/>
<polygon fill="blue" stroke="blue" points="4344.66,-206.5 4342.24,-196.19 4337.7,-205.76 4344.66,-206.5"/>
<text text-anchor="middle" x="4355.39" y="-217.8" font-family="Times,serif" font-size="14.00">type</text>
</g>
<!-- category -->
<g id="node34" class="node">
<title>category</title>
<ellipse fill="none" stroke="black" cx="4442.39" cy="-178" rx="51.19" ry="18"/>
<text text-anchor="middle" x="4442.39" y="-174.3" font-family="Times,serif" font-size="14.00">category</text>
</g>
<!-- functional association&#45;&gt;category -->
<g id="edge32" class="edge">
<title>functional association&#45;&gt;category</title>
<path fill="none" stroke="blue" d="M2377.4,-251.78C2392.28,-249.82 2407.8,-248.09 2422.39,-247 2476.5,-242.97 4323.99,-246.33 4375.39,-229 4391.6,-223.54 4407.08,-212.51 4419.07,-202.2"/>
<polygon fill="blue" stroke="blue" points="4421.69,-204.55 4426.78,-195.26 4417,-199.35 4421.69,-204.55"/>
<text text-anchor="middle" x="4435.89" y="-217.8" font-family="Times,serif" font-size="14.00">category</text>
</g>
<!-- subject -->
<g id="node36" class="node">
<title>subject</title>
<ellipse fill="none" stroke="black" cx="4556.39" cy="-178" rx="44.39" ry="18"/>
<text text-anchor="middle" x="4556.39" y="-174.3" font-family="Times,serif" font-size="14.00">subject</text>
</g>
<!-- functional association&#45;&gt;subject -->
<g id="edge33" class="edge">
<title>functional association&#45;&gt;subject</title>
<path fill="none" stroke="blue" d="M2377.4,-251.78C2392.28,-249.82 2407.8,-248.08 2422.39,-247 2535.92,-238.56 4361.69,-259.39 4471.39,-229 4492.14,-223.25 4513.01,-211.09 4528.87,-200.2"/>
<polygon fill="blue" stroke="blue" points="4531.02,-202.98 4537.14,-194.33 4526.96,-197.27 4531.02,-202.98"/>
<text text-anchor="middle" x="4532.39" y="-217.8" font-family="Times,serif" font-size="14.00">subject</text>
</g>
<!-- object -->
<g id="node38" class="node">
<title>object</title>
<ellipse fill="none" stroke="black" cx="4599.39" cy="-91" rx="38.99" ry="18"/>
<text text-anchor="middle" x="4599.39" y="-87.3" font-family="Times,serif" font-size="14.00">object</text>
</g>
<!-- functional association&#45;&gt;object -->
<g id="edge34" class="edge">
<title>functional association&#45;&gt;object</title>
<path fill="none" stroke="blue" d="M2377.4,-251.77C2392.28,-249.82 2407.8,-248.08 2422.39,-247 2481.68,-242.61 4505.79,-247.15 4562.39,-229 4586.7,-221.21 4595.04,-217.1 4609.39,-196 4623.28,-175.59 4619.49,-166.51 4622.39,-142 4623.18,-135.38 4624.31,-133.39 4622.39,-127 4621.36,-123.55 4619.87,-120.13 4618.13,-116.85"/>
<polygon fill="blue" stroke="blue" points="4620.98,-114.79 4612.77,-108.09 4615.01,-118.45 4620.98,-114.79"/>
<text text-anchor="middle" x="4643.39" y="-174.3" font-family="Times,serif" font-size="14.00">object</text>
</g>
<!-- association_type -->
<g id="node33" class="node">
<title>association_type</title>
<ellipse fill="none" stroke="blue" cx="2469.39" cy="-265" rx="38.19" ry="18"/>
<text text-anchor="middle" x="2469.39" y="-261.3" font-family="Times,serif" font-size="14.00">string</text>
</g>
<!-- association_category -->
<g id="node35" class="node">
<title>association_category</title>
<ellipse fill="none" stroke="blue" cx="2600.39" cy="-265" rx="74.99" ry="18"/>
<text text-anchor="middle" x="2600.39" y="-261.3" font-family="Times,serif" font-size="14.00">category type</text>
</g>
<!-- subject&#45;&gt;object -->
<g id="edge35" class="edge">
<title>subject&#45;&gt;object</title>
<path fill="none" stroke="black" d="M4557.5,-159.55C4558.7,-149.57 4561.2,-137.07 4566.39,-127 4568.62,-122.68 4571.55,-118.52 4574.73,-114.66"/>
<polygon fill="black" stroke="black" points="4577.35,-116.98 4581.49,-107.23 4572.17,-112.27 4577.35,-116.98"/>
<text text-anchor="middle" x="4594.39" y="-130.8" font-family="Times,serif" font-size="14.00">relation</text>
</g>
<!-- relation -->
<g id="node40" class="node">
<title>relation</title>
<ellipse fill="none" stroke="black" cx="4544.39" cy="-18" rx="46.59" ry="18"/>
<text text-anchor="middle" x="4544.39" y="-14.3" font-family="Times,serif" font-size="14.00">relation</text>
</g>
<!-- subject&#45;&gt;relation -->
<g id="edge36" class="edge">
<title>subject&#45;&gt;relation</title>
<path fill="none" stroke="black" stroke-dasharray="1,5" d="M4555.09,-159.79C4553.01,-132.48 4548.95,-78.99 4546.47,-46.38"/>
<polygon fill="black" stroke="black" points="4549.95,-45.89 4545.7,-36.19 4542.97,-46.42 4549.95,-45.89"/>
</g>
<!-- functional association_subject -->
<g id="node37" class="node">
<title>functional association_subject</title>
<ellipse fill="none" stroke="blue" cx="2849.39" cy="-265" rx="155.97" ry="18"/>
<text text-anchor="middle" x="2849.39" y="-261.3" font-family="Times,serif" font-size="14.00">macromolecular machine mixin</text>
</g>
<!-- object&#45;&gt;relation -->
<g id="edge37" class="edge">
<title>object&#45;&gt;relation</title>
<path fill="none" stroke="black" stroke-dasharray="1,5" d="M4586.91,-73.89C4579.98,-64.94 4571.21,-53.62 4563.44,-43.58"/>
<polygon fill="black" stroke="black" points="4566.1,-41.3 4557.21,-35.54 4560.56,-45.59 4566.1,-41.3"/>
</g>
<!-- functional association_object -->
<g id="node39" class="node">
<title>functional association_object</title>
<ellipse fill="none" stroke="blue" cx="3100.39" cy="-265" rx="76.89" ry="18"/>
<text text-anchor="middle" x="3100.39" y="-261.3" font-family="Times,serif" font-size="14.00">ontology class</text>
</g>
</g>
</svg>
