<?xml version="1.0" encoding="UTF-8" standalone="no"?>
<!DOCTYPE svg PUBLIC "-//W3C//DTD SVG 1.1//EN"
 "http://www.w3.org/Graphics/SVG/1.1/DTD/svg11.dtd">
<!-- Generated by graphviz version 2.40.1 (20161225.0304)
 -->
<!-- Title: %3 Pages: 1 -->
<svg width="2011pt" height="291pt"
 viewBox="0.00 0.00 2010.74 291.00" xmlns="http://www.w3.org/2000/svg" xmlns:xlink="http://www.w3.org/1999/xlink">
<g id="graph0" class="graph" transform="scale(1 1) rotate(0) translate(4 287)">
<title>%3</title>
<polygon fill="#ffffff" stroke="transparent" points="-4,4 -4,-287 2006.7353,-287 2006.7353,4 -4,4"/>
<!-- functional association -->
<g id="node1" class="node">
<title>functional association</title>
<ellipse fill="none" stroke="#000000" cx="1070.0444" cy="-265" rx="112.3801" ry="18"/>
<text text-anchor="middle" x="1070.0444" y="-261.3" font-family="Times,serif" font-size="14.00" fill="#000000">functional association</text>
</g>
<!-- association -->
<g id="node2" class="node">
<title>association</title>
<ellipse fill="none" stroke="#000000" cx="63.0444" cy="-178" rx="63.0888" ry="18"/>
<text text-anchor="middle" x="63.0444" y="-174.3" font-family="Times,serif" font-size="14.00" fill="#000000">association</text>
</g>
<!-- functional association&#45;&gt;association -->
<g id="edge1" class="edge">
<title>functional association&#45;&gt;association</title>
<path fill="none" stroke="#000000" d="M958.3991,-262.7552C770.0555,-258.5048 397.0193,-247.965 267.0444,-229 214.8165,-221.3793 156.5142,-206.0996 115.6571,-194.2426"/>
<polygon fill="#000000" stroke="#000000" points="116.5007,-190.8426 105.9198,-191.3857 114.5299,-197.5595 116.5007,-190.8426"/>
<text text-anchor="middle" x="281.0444" y="-217.8" font-family="Times,serif" font-size="14.00" fill="#000000">is_a</text>
</g>
<!-- id -->
<g id="node3" class="node">
<title>id</title>
<ellipse fill="none" stroke="#0000ff" cx="182.0444" cy="-178" rx="38.1938" ry="18"/>
<text text-anchor="middle" x="182.0444" y="-174.3" font-family="Times,serif" font-size="14.00" fill="#000000">string</text>
</g>
<!-- functional association&#45;&gt;id -->
<g id="edge2" class="edge">
<title>functional association&#45;&gt;id</title>
<path fill="none" stroke="#0000ff" d="M960.0208,-261.1656C796.6519,-255.1308 497.7411,-242.6855 391.0444,-229 318.5948,-219.7072 300.2335,-216.2189 230.0444,-196 227.0618,-195.1408 224.001,-194.1817 220.9387,-193.1658"/>
<polygon fill="#0000ff" stroke="#0000ff" points="221.8413,-189.7737 211.2464,-189.7804 219.533,-196.3822 221.8413,-189.7737"/>
<text text-anchor="middle" x="398.0444" y="-217.8" font-family="Times,serif" font-size="14.00" fill="#000000">id</text>
</g>
<!-- iri -->
<g id="node4" class="node">
<title>iri</title>
<ellipse fill="none" stroke="#0000ff" cx="283.0444" cy="-178" rx="44.393" ry="18"/>
<text text-anchor="middle" x="283.0444" y="-174.3" font-family="Times,serif" font-size="14.00" fill="#000000">iri type</text>
</g>
<!-- functional association&#45;&gt;iri -->
<g id="edge3" class="edge">
<title>functional association&#45;&gt;iri</title>
<path fill="none" stroke="#0000ff" d="M958.5423,-262.4775C843.1302,-258.8125 657.8322,-249.979 499.0444,-229 425.767,-219.3186 407.4059,-215.2573 336.0444,-196 332.7065,-195.0992 329.2727,-194.1012 325.8341,-193.0503"/>
<polygon fill="#0000ff" stroke="#0000ff" points="326.797,-189.6838 316.2065,-189.9856 324.6737,-196.354 326.797,-189.6838"/>
<text text-anchor="middle" x="507.0444" y="-217.8" font-family="Times,serif" font-size="14.00" fill="#000000">iri</text>
</g>
<!-- name -->
<g id="node5" class="node">
<title>name</title>
<ellipse fill="none" stroke="#0000ff" cx="402.0444" cy="-178" rx="56.59" ry="18"/>
<text text-anchor="middle" x="402.0444" y="-174.3" font-family="Times,serif" font-size="14.00" fill="#000000">label type</text>
</g>
<!-- functional association&#45;&gt;name -->
<g id="edge4" class="edge">
<title>functional association&#45;&gt;name</title>
<path fill="none" stroke="#0000ff" d="M962.8197,-259.5187C842.5061,-252.9294 655.0141,-241.2228 585.0444,-229 538.7163,-220.9071 487.2214,-206.0067 450.6892,-194.3934"/>
<polygon fill="#0000ff" stroke="#0000ff" points="451.3901,-190.9423 440.7987,-191.2133 449.2474,-197.6063 451.3901,-190.9423"/>
<text text-anchor="middle" x="605.0444" y="-217.8" font-family="Times,serif" font-size="14.00" fill="#000000">name</text>
</g>
<!-- description -->
<g id="node6" class="node">
<title>description</title>
<ellipse fill="none" stroke="#0000ff" cx="552.0444" cy="-178" rx="75.2868" ry="18"/>
<text text-anchor="middle" x="552.0444" y="-174.3" font-family="Times,serif" font-size="14.00" fill="#000000">narrative text</text>
</g>
<!-- functional association&#45;&gt;description -->
<g id="edge5" class="edge">
<title>functional association&#45;&gt;description</title>
<path fill="none" stroke="#0000ff" d="M963.8394,-259.0638C865.3217,-252.8862 726.1732,-242.2643 673.0444,-229 645.246,-222.0597 615.5779,-209.6414 592.5763,-198.7968"/>
<polygon fill="#0000ff" stroke="#0000ff" points="594.0004,-195.5981 583.4709,-194.4225 590.9691,-201.9077 594.0004,-195.5981"/>
<text text-anchor="middle" x="714.0444" y="-217.8" font-family="Times,serif" font-size="14.00" fill="#000000">description</text>
</g>
<!-- source -->
<g id="node7" class="node">
<title>source</title>
<ellipse fill="none" stroke="#0000ff" cx="702.0444" cy="-178" rx="56.59" ry="18"/>
<text text-anchor="middle" x="702.0444" y="-174.3" font-family="Times,serif" font-size="14.00" fill="#000000">label type</text>
</g>
<!-- functional association&#45;&gt;source -->
<g id="edge6" class="edge">
<title>functional association&#45;&gt;source</title>
<path fill="none" stroke="#0000ff" d="M971.4974,-256.274C905.3309,-249.6461 824.5317,-239.844 792.0444,-229 771.6339,-222.1871 750.6147,-210.5803 734.0273,-200.1591"/>
<polygon fill="#0000ff" stroke="#0000ff" points="735.6007,-197.009 725.3001,-194.5295 731.8062,-202.8914 735.6007,-197.009"/>
<text text-anchor="middle" x="816.5444" y="-217.8" font-family="Times,serif" font-size="14.00" fill="#000000">source</text>
</g>
<!-- provided by -->
<g id="node8" class="node">
<title>provided by</title>
<ellipse fill="none" stroke="#0000ff" cx="814.0444" cy="-178" rx="37.0935" ry="18"/>
<text text-anchor="middle" x="814.0444" y="-174.3" font-family="Times,serif" font-size="14.00" fill="#000000">agent</text>
</g>
<!-- functional association&#45;&gt;provided by -->
<g id="edge7" class="edge">
<title>functional association&#45;&gt;provided by</title>
<path fill="none" stroke="#0000ff" d="M978.8663,-254.4402C933.8349,-248.1426 884.9603,-239.3588 865.0444,-229 853.0676,-222.7706 842.1333,-212.7427 833.4876,-203.2206"/>
<polygon fill="#0000ff" stroke="#0000ff" points="835.9655,-200.7341 826.7909,-195.4355 830.6588,-205.2991 835.9655,-200.7341"/>
<text text-anchor="middle" x="907.5444" y="-217.8" font-family="Times,serif" font-size="14.00" fill="#000000">provided by</text>
</g>
<!-- has attribute -->
<g id="node9" class="node">
<title>has attribute</title>
<ellipse fill="none" stroke="#0000ff" cx="921.0444" cy="-178" rx="51.9908" ry="18"/>
<text text-anchor="middle" x="921.0444" y="-174.3" font-family="Times,serif" font-size="14.00" fill="#000000">attribute</text>
</g>
<!-- functional association&#45;&gt;has attribute -->
<g id="edge8" class="edge">
<title>functional association&#45;&gt;has attribute</title>
<path fill="none" stroke="#0000ff" d="M1014.4029,-249.2832C1000.0126,-243.974 984.9496,-237.2485 972.0444,-229 960.9992,-221.9403 950.4589,-212.1259 941.8576,-202.9903"/>
<polygon fill="#0000ff" stroke="#0000ff" points="944.4273,-200.6137 935.1201,-195.5515 939.2391,-205.3129 944.4273,-200.6137"/>
<text text-anchor="middle" x="1019.0444" y="-217.8" font-family="Times,serif" font-size="14.00" fill="#000000">has attribute</text>
</g>
<!-- predicate -->
<g id="node10" class="node">
<title>predicate</title>
<ellipse fill="none" stroke="#0000ff" cx="1070.0444" cy="-178" rx="78.7863" ry="18"/>
<text text-anchor="middle" x="1070.0444" y="-174.3" font-family="Times,serif" font-size="14.00" fill="#000000">predicate type</text>
</g>
<!-- functional association&#45;&gt;predicate -->
<g id="edge9" class="edge">
<title>functional association&#45;&gt;predicate</title>
<path fill="none" stroke="#0000ff" d="M1070.0444,-246.9735C1070.0444,-235.1918 1070.0444,-219.5607 1070.0444,-206.1581"/>
<polygon fill="#0000ff" stroke="#0000ff" points="1073.5445,-206.0033 1070.0444,-196.0034 1066.5445,-206.0034 1073.5445,-206.0033"/>
<text text-anchor="middle" x="1104.5444" y="-217.8" font-family="Times,serif" font-size="14.00" fill="#000000">predicate</text>
</g>
<!-- relation -->
<g id="node11" class="node">
<title>relation</title>
<ellipse fill="none" stroke="#0000ff" cx="1834.0444" cy="-18" rx="57.6901" ry="18"/>
<text text-anchor="middle" x="1834.0444" y="-14.3" font-family="Times,serif" font-size="14.00" fill="#000000">uriorcurie</text>
</g>
<!-- functional association&#45;&gt;relation -->
<g id="edge10" class="edge">
<title>functional association&#45;&gt;relation</title>
<path fill="none" stroke="#0000ff" d="M1112.1949,-248.2791C1122.8526,-242.9917 1133.8669,-236.528 1143.0444,-229 1172.9422,-204.4759 1163.4346,-180.7825 1196.0444,-160 1291.9683,-98.8669 1628.9363,-46.3959 1770.5772,-26.5129"/>
<polygon fill="#0000ff" stroke="#0000ff" points="1771.4165,-29.9298 1780.8371,-25.0818 1770.4494,-22.997 1771.4165,-29.9298"/>
<text text-anchor="middle" x="1298.0444" y="-130.8" font-family="Times,serif" font-size="14.00" fill="#000000">relation</text>
</g>
<!-- negated -->
<g id="node12" class="node">
<title>negated</title>
<ellipse fill="none" stroke="#0000ff" cx="1252.0444" cy="-178" rx="46.5926" ry="18"/>
<text text-anchor="middle" x="1252.0444" y="-174.3" font-family="Times,serif" font-size="14.00" fill="#000000">boolean</text>
</g>
<!-- functional association&#45;&gt;negated -->
<g id="edge11" class="edge">
<title>functional association&#45;&gt;negated</title>
<path fill="none" stroke="#0000ff" d="M1136.655,-250.4406C1154.8894,-245.0673 1174.2452,-238.0203 1191.0444,-229 1204.2247,-221.9229 1217.1777,-211.6978 1227.7337,-202.2584"/>
<polygon fill="#0000ff" stroke="#0000ff" points="1230.3376,-204.6176 1235.3028,-195.2583 1225.5848,-199.4785 1230.3376,-204.6176"/>
<text text-anchor="middle" x="1242.0444" y="-217.8" font-family="Times,serif" font-size="14.00" fill="#000000">negated</text>
</g>
<!-- qualifiers -->
<g id="node13" class="node">
<title>qualifiers</title>
<ellipse fill="none" stroke="#0000ff" cx="1394.0444" cy="-178" rx="77.1866" ry="18"/>
<text text-anchor="middle" x="1394.0444" y="-174.3" font-family="Times,serif" font-size="14.00" fill="#000000">ontology class</text>
</g>
<!-- functional association&#45;&gt;qualifiers -->
<g id="edge12" class="edge">
<title>functional association&#45;&gt;qualifiers</title>
<path fill="none" stroke="#0000ff" d="M1151.9185,-252.5909C1198.6016,-245.1283 1252.2302,-235.7923 1275.0444,-229 1301.4341,-221.1432 1329.8164,-209.1278 1352.2415,-198.7327"/>
<polygon fill="#0000ff" stroke="#0000ff" points="1353.9058,-201.8178 1361.4644,-194.3937 1350.9258,-195.4837 1353.9058,-201.8178"/>
<text text-anchor="middle" x="1350.0444" y="-217.8" font-family="Times,serif" font-size="14.00" fill="#000000">qualifiers</text>
</g>
<!-- publications -->
<g id="node14" class="node">
<title>publications</title>
<ellipse fill="none" stroke="#0000ff" cx="1552.0444" cy="-178" rx="63.0888" ry="18"/>
<text text-anchor="middle" x="1552.0444" y="-174.3" font-family="Times,serif" font-size="14.00" fill="#000000">publication</text>
</g>
<!-- functional association&#45;&gt;publications -->
<g id="edge13" class="edge">
<title>functional association&#45;&gt;publications</title>
<path fill="none" stroke="#0000ff" d="M1151.0072,-252.4183C1164.6872,-250.475 1178.7579,-248.589 1192.0444,-247 1278.9031,-236.6119 1302.2508,-246.0822 1388.0444,-229 1427.9293,-221.0586 1471.8662,-207.1028 1504.2162,-195.7955"/>
<polygon fill="#0000ff" stroke="#0000ff" points="1505.6067,-199.0161 1513.8665,-192.3809 1503.2717,-192.417 1505.6067,-199.0161"/>
<text text-anchor="middle" x="1492.0444" y="-217.8" font-family="Times,serif" font-size="14.00" fill="#000000">publications</text>
</g>
<!-- type -->
<g id="node15" class="node">
<title>type</title>
<ellipse fill="none" stroke="#000000" cx="1664.0444" cy="-178" rx="31.3957" ry="18"/>
<text text-anchor="middle" x="1664.0444" y="-174.3" font-family="Times,serif" font-size="14.00" fill="#000000">type</text>
</g>
<!-- functional association&#45;&gt;type -->
<g id="edge14" class="edge">
<title>functional association&#45;&gt;type</title>
<path fill="none" stroke="#0000ff" d="M1149.317,-252.1909C1163.5152,-250.2146 1178.1963,-248.3766 1192.0444,-247 1346.1583,-231.6801 1388.6711,-261.7401 1540.0444,-229 1572.5825,-221.9624 1607.4653,-206.8712 1631.918,-194.921"/>
<polygon fill="#0000ff" stroke="#0000ff" points="1633.6878,-197.9496 1641.0746,-190.3544 1630.5637,-191.6854 1633.6878,-197.9496"/>
<text text-anchor="middle" x="1602.0444" y="-217.8" font-family="Times,serif" font-size="14.00" fill="#000000">type</text>
</g>
<!-- category -->
<g id="node17" class="node">
<title>category</title>
<ellipse fill="none" stroke="#000000" cx="1765.0444" cy="-178" rx="51.9908" ry="18"/>
<text text-anchor="middle" x="1765.0444" y="-174.3" font-family="Times,serif" font-size="14.00" fill="#000000">category</text>
</g>
<!-- functional association&#45;&gt;category -->
<g id="edge15" class="edge">
<title>functional association&#45;&gt;category</title>
<path fill="none" stroke="#0000ff" d="M1148.9784,-252.1224C1163.2794,-250.1407 1178.0831,-248.3185 1192.0444,-247 1382.4756,-229.0158 1434.2884,-265.5394 1622.0444,-229 1657.4546,-222.1088 1695.875,-208.0091 1723.966,-196.3782"/>
<polygon fill="#0000ff" stroke="#0000ff" points="1725.5927,-199.4909 1733.4495,-192.3831 1722.875,-193.04 1725.5927,-199.4909"/>
<text text-anchor="middle" x="1707.0444" y="-217.8" font-family="Times,serif" font-size="14.00" fill="#000000">category</text>
</g>
<!-- subject -->
<g id="node19" class="node">
<title>subject</title>
<ellipse fill="none" stroke="#000000" cx="1880.0444" cy="-178" rx="44.6926" ry="18"/>
<text text-anchor="middle" x="1880.0444" y="-174.3" font-family="Times,serif" font-size="14.00" fill="#000000">subject</text>
</g>
<!-- functional association&#45;&gt;subject -->
<g id="edge16" class="edge">
<title>functional association&#45;&gt;subject</title>
<path fill="none" stroke="#0000ff" d="M1148.6412,-252.0611C1163.0445,-250.0726 1177.9706,-248.264 1192.0444,-247 1314.0631,-236.0414 1622.8449,-252.6797 1743.0444,-229 1777.5299,-222.2062 1814.7982,-207.8372 1841.7457,-196.0774"/>
<polygon fill="#0000ff" stroke="#0000ff" points="1843.4669,-199.1426 1851.1825,-191.8818 1840.623,-192.7463 1843.4669,-199.1426"/>
<text text-anchor="middle" x="1819.5444" y="-217.8" font-family="Times,serif" font-size="14.00" fill="#000000">subject</text>
</g>
<!-- object -->
<g id="node21" class="node">
<title>object</title>
<ellipse fill="none" stroke="#000000" cx="1902.0444" cy="-91" rx="39.7935" ry="18"/>
<text text-anchor="middle" x="1902.0444" y="-87.3" font-family="Times,serif" font-size="14.00" fill="#000000">object</text>
</g>
<!-- functional association&#45;&gt;object -->
<g id="edge17" class="edge">
<title>functional association&#45;&gt;object</title>
<path fill="none" stroke="#0000ff" d="M1148.3084,-252.0445C1162.8134,-250.0443 1177.8606,-248.2359 1192.0444,-247 1337.7692,-234.3021 1706.7078,-258.1813 1850.0444,-229 1889.3491,-220.9981 1907.706,-226.2519 1934.0444,-196 1954.5356,-172.4641 1960.5626,-155.1263 1947.0444,-127 1944.2571,-121.2007 1940.0302,-116.0431 1935.263,-111.5709"/>
<polygon fill="#0000ff" stroke="#0000ff" points="1937.3925,-108.7902 1927.456,-105.1136 1932.931,-114.1842 1937.3925,-108.7902"/>
<text text-anchor="middle" x="1975.5444" y="-174.3" font-family="Times,serif" font-size="14.00" fill="#000000">object</text>
</g>
<!-- association_type -->
<g id="node16" class="node">
<title>association_type</title>
<ellipse fill="none" stroke="#0000ff" cx="1239.0444" cy="-265" rx="38.1938" ry="18"/>
<text text-anchor="middle" x="1239.0444" y="-261.3" font-family="Times,serif" font-size="14.00" fill="#000000">string</text>
</g>
<!-- association_category -->
<g id="node18" class="node">
<title>association_category</title>
<ellipse fill="none" stroke="#0000ff" cx="1371.0444" cy="-265" rx="75.2868" ry="18"/>
<text text-anchor="middle" x="1371.0444" y="-261.3" font-family="Times,serif" font-size="14.00" fill="#000000">category type</text>
</g>
<!-- subject&#45;&gt;relation -->
<g id="edge19" class="edge">
<title>subject&#45;&gt;relation</title>
<path fill="none" stroke="#000000" stroke-dasharray="1,5" d="M1872.098,-160.1293C1866.213,-146.3661 1858.3308,-126.7533 1853.0444,-109 1846.8454,-88.1821 1841.913,-64.1019 1838.6287,-45.9434"/>
<polygon fill="#000000" stroke="#000000" points="1842.061,-45.252 1836.8884,-36.0057 1835.1659,-46.4595 1842.061,-45.252"/>
</g>
<!-- subject&#45;&gt;object -->
<g id="edge18" class="edge">
<title>subject&#45;&gt;object</title>
<path fill="none" stroke="#000000" d="M1883.5468,-159.975C1885.5477,-150.1752 1888.2168,-137.8699 1891.0444,-127 1891.7452,-124.306 1892.5173,-121.512 1893.3176,-118.7256"/>
<polygon fill="#000000" stroke="#000000" points="1896.7556,-119.4442 1896.2625,-108.8608 1890.0481,-117.4417 1896.7556,-119.4442"/>
<text text-anchor="middle" x="1919.0444" y="-130.8" font-family="Times,serif" font-size="14.00" fill="#000000">relation</text>
</g>
<!-- functional association_subject -->
<g id="node20" class="node">
<title>functional association_subject</title>
<ellipse fill="none" stroke="#0000ff" cx="1622.0444" cy="-265" rx="157.0724" ry="18"/>
<text text-anchor="middle" x="1622.0444" y="-261.3" font-family="Times,serif" font-size="14.00" fill="#000000">macromolecular machine mixin</text>
</g>
<!-- object&#45;&gt;relation -->
<g id="edge20" class="edge">
<title>object&#45;&gt;relation</title>
<path fill="none" stroke="#000000" stroke-dasharray="1,5" d="M1886.2729,-74.0688C1877.6439,-64.8053 1866.7907,-53.1542 1857.2166,-42.8761"/>
<polygon fill="#000000" stroke="#000000" points="1859.5797,-40.2779 1850.2026,-35.3463 1854.4576,-45.0491 1859.5797,-40.2779"/>
</g>
<!-- functional association_object -->
<g id="node22" class="node">
<title>functional association_object</title>
<ellipse fill="none" stroke="#0000ff" cx="1900.0444" cy="-265" rx="102.8821" ry="18"/>
<text text-anchor="middle" x="1900.0444" y="-261.3" font-family="Times,serif" font-size="14.00" fill="#000000">gene ontology class</text>
</g>
</g>
</svg>
