<?xml version="1.0" encoding="UTF-8" standalone="no"?>
<!DOCTYPE svg PUBLIC "-//W3C//DTD SVG 1.1//EN"
 "http://www.w3.org/Graphics/SVG/1.1/DTD/svg11.dtd">
<!-- Generated by graphviz version 2.43.0 (0)
 -->
<!-- Title: %3 Pages: 1 -->
<svg width="3067pt" height="291pt"
 viewBox="0.00 0.00 3067.39 291.00" xmlns="http://www.w3.org/2000/svg" xmlns:xlink="http://www.w3.org/1999/xlink">
<g id="graph0" class="graph" transform="scale(1 1) rotate(0) translate(4 287)">
<title>%3</title>
<polygon fill="white" stroke="transparent" points="-4,4 -4,-287 3063.39,-287 3063.39,4 -4,4"/>
<!-- functional association -->
<g id="node1" class="node">
<title>functional association</title>
<ellipse fill="none" stroke="black" cx="1380.39" cy="-265" rx="111.58" ry="18"/>
<text text-anchor="middle" x="1380.39" y="-261.3" font-family="Times,serif" font-size="14.00">functional association</text>
</g>
<!-- association -->
<g id="node2" class="node">
<title>association</title>
<ellipse fill="none" stroke="black" cx="62.39" cy="-178" rx="62.29" ry="18"/>
<text text-anchor="middle" x="62.39" y="-174.3" font-family="Times,serif" font-size="14.00">association</text>
</g>
<!-- functional association&#45;&gt;association -->
<g id="edge1" class="edge">
<title>functional association&#45;&gt;association</title>
<path fill="none" stroke="black" d="M1268.8,-263.41C1026.57,-261.67 459.08,-254.86 268.39,-229 214.66,-221.71 154.53,-206.25 113.18,-194.44"/>
<polygon fill="black" stroke="black" points="113.92,-191.01 103.34,-191.6 111.98,-197.73 113.92,-191.01"/>
<text text-anchor="middle" x="282.39" y="-217.8" font-family="Times,serif" font-size="14.00">is_a</text>
</g>
<!-- id -->
<g id="node3" class="node">
<title>id</title>
<ellipse fill="none" stroke="blue" cx="181.39" cy="-178" rx="38.19" ry="18"/>
<text text-anchor="middle" x="181.39" y="-174.3" font-family="Times,serif" font-size="14.00">string</text>
</g>
<!-- functional association&#45;&gt;id -->
<g id="edge2" class="edge">
<title>functional association&#45;&gt;id</title>
<path fill="none" stroke="blue" d="M1269.81,-262.35C1048.93,-258.69 560.07,-248.59 393.39,-229 319.55,-220.32 301.06,-215.79 229.39,-196 226.28,-195.14 223.08,-194.18 219.89,-193.17"/>
<polygon fill="blue" stroke="blue" points="220.97,-189.84 210.37,-190.01 218.76,-196.48 220.97,-189.84"/>
<text text-anchor="middle" x="400.39" y="-217.8" font-family="Times,serif" font-size="14.00">id</text>
</g>
<!-- iri -->
<g id="node4" class="node">
<title>iri</title>
<ellipse fill="none" stroke="blue" cx="282.39" cy="-178" rx="44.39" ry="18"/>
<text text-anchor="middle" x="282.39" y="-174.3" font-family="Times,serif" font-size="14.00">iri type</text>
</g>
<!-- functional association&#45;&gt;iri -->
<g id="edge3" class="edge">
<title>functional association&#45;&gt;iri</title>
<path fill="none" stroke="blue" d="M1268.41,-264.71C1102.36,-264.59 781.31,-259.83 510.39,-229 431.75,-220.05 412.11,-215.46 335.39,-196 331.97,-195.13 328.43,-194.16 324.9,-193.14"/>
<polygon fill="blue" stroke="blue" points="325.59,-189.69 315.01,-190.16 323.57,-196.4 325.59,-189.69"/>
<text text-anchor="middle" x="518.39" y="-217.8" font-family="Times,serif" font-size="14.00">iri</text>
</g>
<!-- name -->
<g id="node5" class="node">
<title>name</title>
<ellipse fill="none" stroke="blue" cx="401.39" cy="-178" rx="56.59" ry="18"/>
<text text-anchor="middle" x="401.39" y="-174.3" font-family="Times,serif" font-size="14.00">label type</text>
</g>
<!-- functional association&#45;&gt;name -->
<g id="edge4" class="edge">
<title>functional association&#45;&gt;name</title>
<path fill="none" stroke="blue" d="M1270.41,-261.69C1087.37,-257.41 727.95,-246.99 602.39,-229 549.56,-221.43 490.43,-205.83 450.06,-194.06"/>
<polygon fill="blue" stroke="blue" points="450.8,-190.63 440.21,-191.15 448.82,-197.34 450.8,-190.63"/>
<text text-anchor="middle" x="622.39" y="-217.8" font-family="Times,serif" font-size="14.00">name</text>
</g>
<!-- description -->
<g id="node6" class="node">
<title>description</title>
<ellipse fill="none" stroke="blue" cx="551.39" cy="-178" rx="75.29" ry="18"/>
<text text-anchor="middle" x="551.39" y="-174.3" font-family="Times,serif" font-size="14.00">narrative text</text>
</g>
<!-- functional association&#45;&gt;description -->
<g id="edge5" class="edge">
<title>functional association&#45;&gt;description</title>
<path fill="none" stroke="blue" d="M1270.12,-262C1106.01,-258.4 805.43,-249.24 699.39,-229 663.73,-222.19 624.9,-208.83 595.96,-197.64"/>
<polygon fill="blue" stroke="blue" points="597.13,-194.34 586.54,-193.93 594.57,-200.85 597.13,-194.34"/>
<text text-anchor="middle" x="739.89" y="-217.8" font-family="Times,serif" font-size="14.00">description</text>
</g>
<!-- source -->
<g id="node7" class="node">
<title>source</title>
<ellipse fill="none" stroke="blue" cx="683.39" cy="-178" rx="38.19" ry="18"/>
<text text-anchor="middle" x="683.39" y="-174.3" font-family="Times,serif" font-size="14.00">string</text>
</g>
<!-- functional association&#45;&gt;source -->
<g id="edge6" class="edge">
<title>functional association&#45;&gt;source</title>
<path fill="none" stroke="blue" d="M1268.55,-264.01C1158.92,-262.32 987.47,-255.12 841.39,-229 799.35,-221.48 752.95,-205.87 721.37,-194.08"/>
<polygon fill="blue" stroke="blue" points="722.26,-190.68 711.66,-190.4 719.77,-197.22 722.26,-190.68"/>
<text text-anchor="middle" x="865.39" y="-217.8" font-family="Times,serif" font-size="14.00">source</text>
</g>
<!-- has attribute -->
<g id="node8" class="node">
<title>has attribute</title>
<ellipse fill="none" stroke="blue" cx="791.39" cy="-178" rx="51.99" ry="18"/>
<text text-anchor="middle" x="791.39" y="-174.3" font-family="Times,serif" font-size="14.00">attribute</text>
</g>
<!-- functional association&#45;&gt;has attribute -->
<g id="edge7" class="edge">
<title>functional association&#45;&gt;has attribute</title>
<path fill="none" stroke="blue" d="M1270.16,-261.71C1182.96,-258.29 1058.49,-249.83 951.39,-229 910.88,-221.12 866.15,-206.62 834.3,-195.26"/>
<polygon fill="blue" stroke="blue" points="835.45,-191.95 824.86,-191.85 833.07,-198.54 835.45,-191.95"/>
<text text-anchor="middle" x="998.39" y="-217.8" font-family="Times,serif" font-size="14.00">has attribute</text>
</g>
<!-- predicate -->
<g id="node9" class="node">
<title>predicate</title>
<ellipse fill="none" stroke="blue" cx="939.39" cy="-178" rx="77.99" ry="18"/>
<text text-anchor="middle" x="939.39" y="-174.3" font-family="Times,serif" font-size="14.00">predicate type</text>
</g>
<!-- functional association&#45;&gt;predicate -->
<g id="edge8" class="edge">
<title>functional association&#45;&gt;predicate</title>
<path fill="none" stroke="blue" d="M1283.89,-255.88C1230.34,-250.35 1162.76,-241.7 1103.39,-229 1064.62,-220.7 1021.79,-207.5 989.62,-196.75"/>
<polygon fill="blue" stroke="blue" points="990.59,-193.38 980,-193.49 988.35,-200.01 990.59,-193.38"/>
<text text-anchor="middle" x="1137.39" y="-217.8" font-family="Times,serif" font-size="14.00">predicate</text>
</g>
<!-- negated -->
<g id="node10" class="node">
<title>negated</title>
<ellipse fill="none" stroke="blue" cx="1082.39" cy="-178" rx="46.59" ry="18"/>
<text text-anchor="middle" x="1082.39" y="-174.3" font-family="Times,serif" font-size="14.00">boolean</text>
</g>
<!-- functional association&#45;&gt;negated -->
<g id="edge9" class="edge">
<title>functional association&#45;&gt;negated</title>
<path fill="none" stroke="blue" d="M1311.04,-250.76C1283,-244.88 1250.45,-237.39 1221.39,-229 1187.82,-219.31 1150.6,-205.77 1123.14,-195.22"/>
<polygon fill="blue" stroke="blue" points="1124.07,-191.83 1113.48,-191.48 1121.55,-198.36 1124.07,-191.83"/>
<text text-anchor="middle" x="1250.39" y="-217.8" font-family="Times,serif" font-size="14.00">negated</text>
</g>
<!-- qualifiers -->
<g id="node11" class="node">
<title>qualifiers</title>
<ellipse fill="none" stroke="blue" cx="1223.39" cy="-178" rx="76.89" ry="18"/>
<text text-anchor="middle" x="1223.39" y="-174.3" font-family="Times,serif" font-size="14.00">ontology class</text>
</g>
<!-- functional association&#45;&gt;qualifiers -->
<g id="edge10" class="edge">
<title>functional association&#45;&gt;qualifiers</title>
<path fill="none" stroke="blue" d="M1346.21,-247.73C1334.45,-241.99 1321.26,-235.37 1309.39,-229 1292.47,-219.92 1274.03,-209.3 1258.58,-200.19"/>
<polygon fill="blue" stroke="blue" points="1260.24,-197.11 1249.86,-195.02 1256.67,-203.13 1260.24,-197.11"/>
<text text-anchor="middle" x="1342.89" y="-217.8" font-family="Times,serif" font-size="14.00">qualifiers</text>
</g>
<!-- publications -->
<g id="node12" class="node">
<title>publications</title>
<ellipse fill="none" stroke="blue" cx="1380.39" cy="-178" rx="62.29" ry="18"/>
<text text-anchor="middle" x="1380.39" y="-174.3" font-family="Times,serif" font-size="14.00">publication</text>
</g>
<!-- functional association&#45;&gt;publications -->
<g id="edge11" class="edge">
<title>functional association&#45;&gt;publications</title>
<path fill="none" stroke="blue" d="M1380.39,-246.8C1380.39,-235.16 1380.39,-219.55 1380.39,-206.24"/>
<polygon fill="blue" stroke="blue" points="1383.89,-206.18 1380.39,-196.18 1376.89,-206.18 1383.89,-206.18"/>
<text text-anchor="middle" x="1424.39" y="-217.8" font-family="Times,serif" font-size="14.00">publications</text>
</g>
<!-- has evidence -->
<g id="node13" class="node">
<title>has evidence</title>
<ellipse fill="none" stroke="blue" cx="1536.39" cy="-178" rx="75.29" ry="18"/>
<text text-anchor="middle" x="1536.39" y="-174.3" font-family="Times,serif" font-size="14.00">evidence type</text>
</g>
<!-- functional association&#45;&gt;has evidence -->
<g id="edge12" class="edge">
<title>functional association&#45;&gt;has evidence</title>
<path fill="none" stroke="blue" d="M1428.9,-248.64C1443.31,-243.27 1458.85,-236.64 1472.39,-229 1485.74,-221.48 1499.28,-211.34 1510.45,-202.15"/>
<polygon fill="blue" stroke="blue" points="1512.74,-204.8 1518.13,-195.69 1508.23,-199.45 1512.74,-204.8"/>
<text text-anchor="middle" x="1541.89" y="-217.8" font-family="Times,serif" font-size="14.00">has evidence</text>
</g>
<!-- knowledge source -->
<g id="node14" class="node">
<title>knowledge source</title>
<ellipse fill="none" stroke="blue" cx="1738.39" cy="-178" rx="108.58" ry="18"/>
<text text-anchor="middle" x="1738.39" y="-174.3" font-family="Times,serif" font-size="14.00">information resource</text>
</g>
<!-- functional association&#45;&gt;knowledge source -->
<g id="edge13" class="edge">
<title>functional association&#45;&gt;knowledge source</title>
<path fill="none" stroke="blue" d="M1459.71,-252.31C1509.07,-244.76 1567.71,-235.22 1592.39,-229 1625.05,-220.77 1660.83,-208.57 1688.8,-198.28"/>
<polygon fill="blue" stroke="blue" points="1690.19,-201.5 1698.34,-194.73 1687.75,-194.94 1690.19,-201.5"/>
<text text-anchor="middle" x="1705.89" y="-217.8" font-family="Times,serif" font-size="14.00">knowledge source</text>
</g>
<!-- original knowledge source -->
<g id="node15" class="node">
<title>original knowledge source</title>
<ellipse fill="none" stroke="blue" cx="1973.39" cy="-178" rx="108.58" ry="18"/>
<text text-anchor="middle" x="1973.39" y="-174.3" font-family="Times,serif" font-size="14.00">information resource</text>
</g>
<!-- functional association&#45;&gt;original knowledge source -->
<g id="edge14" class="edge">
<title>functional association&#45;&gt;original knowledge source</title>
<path fill="none" stroke="blue" d="M1458.72,-252.14C1472.9,-250.23 1487.57,-248.42 1501.39,-247 1622.35,-234.53 1654.27,-247.89 1774.39,-229 1822.08,-221.5 1875.05,-207.93 1914.34,-196.82"/>
<polygon fill="blue" stroke="blue" points="1915.37,-200.16 1924.02,-194.05 1913.44,-193.43 1915.37,-200.16"/>
<text text-anchor="middle" x="1940.39" y="-217.8" font-family="Times,serif" font-size="14.00">original knowledge source</text>
</g>
<!-- primary knowledge source -->
<g id="node16" class="node">
<title>primary knowledge source</title>
<ellipse fill="none" stroke="blue" cx="2208.39" cy="-178" rx="108.58" ry="18"/>
<text text-anchor="middle" x="2208.39" y="-174.3" font-family="Times,serif" font-size="14.00">information resource</text>
</g>
<!-- functional association&#45;&gt;primary knowledge source -->
<g id="edge15" class="edge">
<title>functional association&#45;&gt;primary knowledge source</title>
<path fill="none" stroke="blue" d="M1457.39,-251.94C1471.97,-250 1487.13,-248.24 1501.39,-247 1739.3,-226.36 1802.64,-266.99 2038.39,-229 2078.89,-222.47 2123.32,-209.18 2156.6,-197.94"/>
<polygon fill="blue" stroke="blue" points="2157.79,-201.23 2166.12,-194.68 2155.52,-194.61 2157.79,-201.23"/>
<text text-anchor="middle" x="2195.39" y="-217.8" font-family="Times,serif" font-size="14.00">primary knowledge source</text>
</g>
<!-- aggregator knowledge source -->
<g id="node17" class="node">
<title>aggregator knowledge source</title>
<ellipse fill="none" stroke="blue" cx="2443.39" cy="-178" rx="108.58" ry="18"/>
<text text-anchor="middle" x="2443.39" y="-174.3" font-family="Times,serif" font-size="14.00">information resource</text>
</g>
<!-- functional association&#45;&gt;aggregator knowledge source -->
<g id="edge16" class="edge">
<title>functional association&#45;&gt;aggregator knowledge source</title>
<path fill="none" stroke="blue" d="M1457.06,-251.85C1471.74,-249.92 1487.02,-248.17 1501.39,-247 1677.08,-232.71 2120.76,-259.38 2294.39,-229 2329.65,-222.83 2367.9,-209.86 2396.81,-198.67"/>
<polygon fill="blue" stroke="blue" points="2398.22,-201.88 2406.24,-194.96 2395.65,-195.36 2398.22,-201.88"/>
<text text-anchor="middle" x="2459.89" y="-217.8" font-family="Times,serif" font-size="14.00">aggregator knowledge source</text>
</g>
<!-- timepoint -->
<g id="node18" class="node">
<title>timepoint</title>
<ellipse fill="none" stroke="blue" cx="2625.39" cy="-178" rx="55.49" ry="18"/>
<text text-anchor="middle" x="2625.39" y="-174.3" font-family="Times,serif" font-size="14.00">time type</text>
</g>
<!-- functional association&#45;&gt;timepoint -->
<g id="edge17" class="edge">
<title>functional association&#45;&gt;timepoint</title>
<path fill="none" stroke="blue" d="M1456.73,-251.83C1471.51,-249.88 1486.91,-248.14 1501.39,-247 1560.61,-242.36 2515.18,-250.88 2570.39,-229 2583.84,-223.67 2596.05,-213.43 2605.53,-203.6"/>
<polygon fill="blue" stroke="blue" points="2608.39,-205.65 2612.52,-195.9 2603.21,-200.95 2608.39,-205.65"/>
<text text-anchor="middle" x="2629.39" y="-217.8" font-family="Times,serif" font-size="14.00">timepoint</text>
</g>
<!-- type -->
<g id="node19" class="node">
<title>type</title>
<ellipse fill="none" stroke="black" cx="2729.39" cy="-178" rx="31.4" ry="18"/>
<text text-anchor="middle" x="2729.39" y="-174.3" font-family="Times,serif" font-size="14.00">type</text>
</g>
<!-- functional association&#45;&gt;type -->
<g id="edge18" class="edge">
<title>functional association&#45;&gt;type</title>
<path fill="none" stroke="blue" d="M1456.73,-251.81C1471.51,-249.87 1486.91,-248.13 1501.39,-247 1566.04,-241.98 2607.51,-251.3 2668.39,-229 2683.71,-223.39 2697.98,-212.18 2708.86,-201.79"/>
<polygon fill="blue" stroke="blue" points="2711.57,-204.02 2716.15,-194.47 2706.61,-199.09 2711.57,-204.02"/>
<text text-anchor="middle" x="2711.39" y="-217.8" font-family="Times,serif" font-size="14.00">type</text>
</g>
<!-- category -->
<g id="node21" class="node">
<title>category</title>
<ellipse fill="none" stroke="black" cx="2830.39" cy="-178" rx="51.19" ry="18"/>
<text text-anchor="middle" x="2830.39" y="-174.3" font-family="Times,serif" font-size="14.00">category</text>
</g>
<!-- functional association&#45;&gt;category -->
<g id="edge19" class="edge">
<title>functional association&#45;&gt;category</title>
<path fill="none" stroke="blue" d="M1456.72,-251.8C1471.51,-249.86 1486.91,-248.12 1501.39,-247 1637.67,-236.47 2598.67,-261.64 2731.39,-229 2755.34,-223.11 2780.1,-210.6 2798.87,-199.57"/>
<polygon fill="blue" stroke="blue" points="2800.82,-202.48 2807.57,-194.31 2797.2,-196.49 2800.82,-202.48"/>
<text text-anchor="middle" x="2802.89" y="-217.8" font-family="Times,serif" font-size="14.00">category</text>
</g>
<!-- subject -->
<g id="node23" class="node">
<title>subject</title>
<ellipse fill="none" stroke="black" cx="2944.39" cy="-178" rx="44.39" ry="18"/>
<text text-anchor="middle" x="2944.39" y="-174.3" font-family="Times,serif" font-size="14.00">subject</text>
</g>
<!-- functional association&#45;&gt;subject -->
<g id="edge20" class="edge">
<title>functional association&#45;&gt;subject</title>
<path fill="none" stroke="blue" d="M1456.72,-251.79C1471.51,-249.84 1486.91,-248.11 1501.39,-247 1649.53,-235.64 2693.64,-262.45 2838.39,-229 2864.53,-222.96 2891.85,-209.89 2912.21,-198.62"/>
<polygon fill="blue" stroke="blue" points="2914.08,-201.58 2921.05,-193.6 2910.62,-195.5 2914.08,-201.58"/>
<text text-anchor="middle" x="2907.39" y="-217.8" font-family="Times,serif" font-size="14.00">subject</text>
</g>
<!-- object -->
<g id="node25" class="node">
<title>object</title>
<ellipse fill="none" stroke="black" cx="2987.39" cy="-91" rx="38.99" ry="18"/>
<text text-anchor="middle" x="2987.39" y="-87.3" font-family="Times,serif" font-size="14.00">object</text>
</g>
<!-- functional association&#45;&gt;object -->
<g id="edge21" class="edge">
<title>functional association&#45;&gt;object</title>
<path fill="none" stroke="blue" d="M1456.72,-251.78C1471.51,-249.83 1486.91,-248.1 1501.39,-247 1580.95,-240.94 2860.24,-249.33 2937.39,-229 2966.82,-221.24 2978.93,-220.19 2997.39,-196 3016.33,-171.2 3019.34,-156.9 3010.39,-127 3009.36,-123.55 3007.87,-120.13 3006.13,-116.85"/>
<polygon fill="blue" stroke="blue" points="3008.98,-114.79 3000.77,-108.09 3003.01,-118.45 3008.98,-114.79"/>
<text text-anchor="middle" x="3037.39" y="-174.3" font-family="Times,serif" font-size="14.00">object</text>
</g>
<!-- association_type -->
<g id="node20" class="node">
<title>association_type</title>
<ellipse fill="none" stroke="blue" cx="1548.39" cy="-265" rx="38.19" ry="18"/>
<text text-anchor="middle" x="1548.39" y="-261.3" font-family="Times,serif" font-size="14.00">string</text>
</g>
<!-- association_category -->
<g id="node22" class="node">
<title>association_category</title>
<ellipse fill="none" stroke="blue" cx="1679.39" cy="-265" rx="74.99" ry="18"/>
<text text-anchor="middle" x="1679.39" y="-261.3" font-family="Times,serif" font-size="14.00">category type</text>
</g>
<!-- subject&#45;&gt;object -->
<g id="edge22" class="edge">
<title>subject&#45;&gt;object</title>
<path fill="none" stroke="black" d="M2945.5,-159.55C2946.7,-149.57 2949.2,-137.07 2954.39,-127 2956.62,-122.68 2959.55,-118.52 2962.73,-114.66"/>
<polygon fill="black" stroke="black" points="2965.35,-116.98 2969.49,-107.23 2960.17,-112.27 2965.35,-116.98"/>
<text text-anchor="middle" x="2982.39" y="-130.8" font-family="Times,serif" font-size="14.00">relation</text>
</g>
<!-- relation -->
<g id="node27" class="node">
<title>relation</title>
<ellipse fill="none" stroke="black" cx="2932.39" cy="-18" rx="46.59" ry="18"/>
<text text-anchor="middle" x="2932.39" y="-14.3" font-family="Times,serif" font-size="14.00">relation</text>
</g>
<!-- subject&#45;&gt;relation -->
<g id="edge23" class="edge">
<title>subject&#45;&gt;relation</title>
<path fill="none" stroke="black" stroke-dasharray="1,5" d="M2943.09,-159.79C2941.01,-132.48 2936.95,-78.99 2934.47,-46.38"/>
<polygon fill="black" stroke="black" points="2937.95,-45.89 2933.7,-36.19 2930.97,-46.42 2937.95,-45.89"/>
</g>
<!-- functional association_subject -->
<g id="node24" class="node">
<title>functional association_subject</title>
<ellipse fill="none" stroke="blue" cx="1928.39" cy="-265" rx="155.97" ry="18"/>
<text text-anchor="middle" x="1928.39" y="-261.3" font-family="Times,serif" font-size="14.00">macromolecular machine mixin</text>
</g>
<!-- object&#45;&gt;relation -->
<g id="edge24" class="edge">
<title>object&#45;&gt;relation</title>
<path fill="none" stroke="black" stroke-dasharray="1,5" d="M2974.91,-73.89C2967.98,-64.94 2959.21,-53.62 2951.44,-43.58"/>
<polygon fill="black" stroke="black" points="2954.1,-41.3 2945.21,-35.54 2948.56,-45.59 2954.1,-41.3"/>
</g>
<!-- functional association_object -->
<g id="node26" class="node">
<title>functional association_object</title>
<ellipse fill="none" stroke="blue" cx="2204.39" cy="-265" rx="102.08" ry="18"/>
<text text-anchor="middle" x="2204.39" y="-261.3" font-family="Times,serif" font-size="14.00">gene ontology class</text>
</g>
</g>
</svg>
