<?xml version="1.0" encoding="UTF-8" standalone="no"?>
<!DOCTYPE svg PUBLIC "-//W3C//DTD SVG 1.1//EN"
 "http://www.w3.org/Graphics/SVG/1.1/DTD/svg11.dtd">
<!-- Generated by graphviz version 2.43.0 (0)
 -->
<!-- Title: %3 Pages: 1 -->
<svg width="565pt" height="131pt"
 viewBox="0.00 0.00 564.73 131.00" xmlns="http://www.w3.org/2000/svg" xmlns:xlink="http://www.w3.org/1999/xlink">
<g id="graph0" class="graph" transform="scale(1 1) rotate(0) translate(4 127)">
<title>%3</title>
<polygon fill="white" stroke="transparent" points="-4,4 -4,-127 560.73,-127 560.73,4 -4,4"/>
<!-- geographic exposure -->
<g id="node1" class="node">
<title>geographic exposure</title>
<ellipse fill="none" stroke="black" cx="346.49" cy="-105" rx="107.78" ry="18"/>
<text text-anchor="middle" x="346.49" y="-101.3" font-family="Times,serif" font-size="14.00">geographic exposure</text>
</g>
<!-- environmental exposure -->
<g id="node2" class="node">
<title>environmental exposure</title>
<ellipse fill="none" stroke="black" cx="123.49" cy="-18" rx="123.48" ry="18"/>
<text text-anchor="middle" x="123.49" y="-14.3" font-family="Times,serif" font-size="14.00">environmental exposure</text>
</g>
<!-- geographic exposure&#45;&gt;environmental exposure -->
<g id="edge1" class="edge">
<title>geographic exposure&#45;&gt;environmental exposure</title>
<path fill="none" stroke="black" d="M305.33,-88.31C268.59,-74.31 214.63,-53.74 175.03,-38.65"/>
<polygon fill="black" stroke="black" points="176.14,-35.32 165.55,-35.03 173.64,-41.86 176.14,-35.32"/>
<text text-anchor="middle" x="262.49" y="-57.8" font-family="Times,serif" font-size="14.00">is_a</text>
</g>
<!-- exposure event -->
<g id="node3" class="node">
<title>exposure event</title>
<ellipse fill="none" stroke="black" cx="346.49" cy="-18" rx="81.79" ry="18"/>
<text text-anchor="middle" x="346.49" y="-14.3" font-family="Times,serif" font-size="14.00">exposure event</text>
</g>
<!-- geographic exposure&#45;&gt;exposure event -->
<g id="edge2" class="edge">
<title>geographic exposure&#45;&gt;exposure event</title>
<path fill="none" stroke="black" d="M346.49,-86.8C346.49,-75.16 346.49,-59.55 346.49,-46.24"/>
<polygon fill="black" stroke="black" points="349.99,-46.18 346.49,-36.18 342.99,-46.18 349.99,-46.18"/>
<text text-anchor="middle" x="362.99" y="-57.8" font-family="Times,serif" font-size="14.00">uses</text>
</g>
<!-- timepoint -->
<g id="node4" class="node">
<title>timepoint</title>
<ellipse fill="none" stroke="blue" cx="501.49" cy="-18" rx="55.49" ry="18"/>
<text text-anchor="middle" x="501.49" y="-14.3" font-family="Times,serif" font-size="14.00">time type</text>
</g>
<!-- geographic exposure&#45;&gt;timepoint -->
<g id="edge3" class="edge">
<title>geographic exposure&#45;&gt;timepoint</title>
<path fill="none" stroke="blue" d="M376.37,-87.61C401.9,-73.61 438.69,-53.44 465.76,-38.59"/>
<polygon fill="blue" stroke="blue" points="467.46,-41.65 474.55,-33.78 464.09,-35.52 467.46,-41.65"/>
<text text-anchor="middle" x="467.49" y="-57.8" font-family="Times,serif" font-size="14.00">timepoint</text>
</g>
</g>
</svg>
