<?xml version="1.0" encoding="UTF-8" standalone="no"?>
<!DOCTYPE svg PUBLIC "-//W3C//DTD SVG 1.1//EN"
 "http://www.w3.org/Graphics/SVG/1.1/DTD/svg11.dtd">
<!-- Generated by graphviz version 2.40.1 (20161225.0304)
 -->
<!-- Title: %3 Pages: 1 -->
<svg width="1041pt" height="131pt"
 viewBox="0.00 0.00 1040.79 131.00" xmlns="http://www.w3.org/2000/svg" xmlns:xlink="http://www.w3.org/1999/xlink">
<g id="graph0" class="graph" transform="scale(1 1) rotate(0) translate(4 127)">
<title>%3</title>
<polygon fill="#ffffff" stroke="transparent" points="-4,4 -4,-127 1036.7889,-127 1036.7889,4 -4,4"/>
<!-- geographic location at time -->
<g id="node1" class="node">
<title>geographic location at time</title>
<ellipse fill="none" stroke="#000000" cx="583.5928" cy="-105" rx="107.781" ry="18"/>
<text text-anchor="middle" x="583.5928" y="-101.3" font-family="Times,serif" font-size="14.00" fill="#000000">geographic location at time</text>
</g>
<!-- geographic location -->
<g id="node2" class="node">
<title>geographic location</title>
<ellipse fill="none" stroke="#000000" cx="80.5928" cy="-18" rx="80.6858" ry="18"/>
<text text-anchor="middle" x="80.5928" y="-14.3" font-family="Times,serif" font-size="14.00" fill="#000000">geographic location</text>
</g>
<!-- geographic location at time&#45;&gt;geographic location -->
<g id="edge1" class="edge">
<title>geographic location at time&#45;&gt;geographic location</title>
<path fill="none" stroke="#000000" d="M488.5132,-96.4592C430.0082,-90.466 353.6423,-81.3159 286.5928,-69 236.8794,-59.8685 181.2888,-45.8778 140.3969,-34.8583"/>
<polygon fill="#000000" stroke="#000000" points="141.1609,-31.4391 130.5933,-32.1975 139.3274,-38.1947 141.1609,-31.4391"/>
<text text-anchor="middle" x="297.5928" y="-57.8" font-family="Times,serif" font-size="14.00" fill="#000000">is_a</text>
</g>
<!-- id -->
<g id="node3" class="node">
<title>id</title>
<ellipse fill="none" stroke="#0000ff" cx="209.5928" cy="-18" rx="30.5947" ry="18"/>
<text text-anchor="middle" x="209.5928" y="-14.3" font-family="Times,serif" font-size="14.00" fill="#000000">string</text>
</g>
<!-- geographic location at time&#45;&gt;id -->
<g id="edge2" class="edge">
<title>geographic location at time&#45;&gt;id</title>
<path fill="none" stroke="#0000ff" d="M500.1044,-93.5074C431.6311,-82.7222 332.7822,-64.0144 249.5928,-36 247.3398,-35.2413 245.0414,-34.3999 242.7423,-33.5074"/>
<polygon fill="#0000ff" stroke="#0000ff" points="243.9782,-30.2309 233.4004,-29.6304 241.295,-36.6963 243.9782,-30.2309"/>
<text text-anchor="middle" x="373.0928" y="-57.8" font-family="Times,serif" font-size="14.00" fill="#000000">id</text>
</g>
<!-- category -->
<g id="node4" class="node">
<title>category</title>
<ellipse fill="none" stroke="#0000ff" cx="316.5928" cy="-18" rx="58.4896" ry="18"/>
<text text-anchor="middle" x="316.5928" y="-14.3" font-family="Times,serif" font-size="14.00" fill="#000000">category type</text>
</g>
<!-- geographic location at time&#45;&gt;category -->
<g id="edge3" class="edge">
<title>geographic location at time&#45;&gt;category</title>
<path fill="none" stroke="#0000ff" d="M521.0837,-90.2136C497.5541,-84.2199 470.6732,-76.8575 446.5928,-69 417.3947,-59.4725 385.2594,-46.8854 360.2442,-36.6"/>
<polygon fill="#0000ff" stroke="#0000ff" points="361.2604,-33.2326 350.6822,-32.6383 358.581,-39.6995 361.2604,-33.2326"/>
<text text-anchor="middle" x="470.0928" y="-57.8" font-family="Times,serif" font-size="14.00" fill="#000000">category</text>
</g>
<!-- iri -->
<g id="node5" class="node">
<title>iri</title>
<ellipse fill="none" stroke="#0000ff" cx="429.5928" cy="-18" rx="36.2938" ry="18"/>
<text text-anchor="middle" x="429.5928" y="-14.3" font-family="Times,serif" font-size="14.00" fill="#000000">iri type</text>
</g>
<!-- geographic location at time&#45;&gt;iri -->
<g id="edge4" class="edge">
<title>geographic location at time&#45;&gt;iri</title>
<path fill="none" stroke="#0000ff" d="M552.7988,-87.6033C526.7308,-72.8766 489.4509,-51.8159 462.7366,-36.7241"/>
<polygon fill="#0000ff" stroke="#0000ff" points="464.1921,-33.5264 453.7638,-31.655 460.749,-39.6211 464.1921,-33.5264"/>
<text text-anchor="middle" x="523.0928" y="-57.8" font-family="Times,serif" font-size="14.00" fill="#000000">iri</text>
</g>
<!-- name -->
<g id="node6" class="node">
<title>name</title>
<ellipse fill="none" stroke="#0000ff" cx="529.5928" cy="-18" rx="45.4919" ry="18"/>
<text text-anchor="middle" x="529.5928" y="-14.3" font-family="Times,serif" font-size="14.00" fill="#000000">label type</text>
</g>
<!-- geographic location at time&#45;&gt;name -->
<g id="edge5" class="edge">
<title>geographic location at time&#45;&gt;name</title>
<path fill="none" stroke="#0000ff" d="M572.404,-86.9735C564.7509,-74.6435 554.481,-58.0975 545.9183,-44.3021"/>
<polygon fill="#0000ff" stroke="#0000ff" points="548.83,-42.3563 540.5826,-35.7057 542.8825,-46.0479 548.83,-42.3563"/>
<text text-anchor="middle" x="576.0928" y="-57.8" font-family="Times,serif" font-size="14.00" fill="#000000">name</text>
</g>
<!-- source -->
<g id="node7" class="node">
<title>source</title>
<ellipse fill="none" stroke="#0000ff" cx="638.5928" cy="-18" rx="45.4919" ry="18"/>
<text text-anchor="middle" x="638.5928" y="-14.3" font-family="Times,serif" font-size="14.00" fill="#000000">label type</text>
</g>
<!-- geographic location at time&#45;&gt;source -->
<g id="edge6" class="edge">
<title>geographic location at time&#45;&gt;source</title>
<path fill="none" stroke="#0000ff" d="M594.9889,-86.9735C602.7837,-74.6435 613.2438,-58.0975 621.9651,-44.3021"/>
<polygon fill="#0000ff" stroke="#0000ff" points="625.0144,-46.0286 627.3996,-35.7057 619.0976,-42.288 625.0144,-46.0286"/>
<text text-anchor="middle" x="632.5928" y="-57.8" font-family="Times,serif" font-size="14.00" fill="#000000">source</text>
</g>
<!-- has attribute -->
<g id="node8" class="node">
<title>has attribute</title>
<ellipse fill="none" stroke="#0000ff" cx="742.5928" cy="-18" rx="40.0939" ry="18"/>
<text text-anchor="middle" x="742.5928" y="-14.3" font-family="Times,serif" font-size="14.00" fill="#000000">attribute</text>
</g>
<!-- geographic location at time&#45;&gt;has attribute -->
<g id="edge7" class="edge">
<title>geographic location at time&#45;&gt;has attribute</title>
<path fill="none" stroke="#0000ff" d="M618.463,-87.8072C630.0325,-81.9735 642.9321,-75.3288 654.5928,-69 673.0563,-58.9791 693.364,-47.2578 709.8144,-37.5807"/>
<polygon fill="#0000ff" stroke="#0000ff" points="711.6901,-40.5378 718.5205,-32.4386 708.1302,-34.5105 711.6901,-40.5378"/>
<text text-anchor="middle" x="715.0928" y="-57.8" font-family="Times,serif" font-size="14.00" fill="#000000">has attribute</text>
</g>
<!-- latitude -->
<g id="node9" class="node">
<title>latitude</title>
<ellipse fill="none" stroke="#0000ff" cx="827.5928" cy="-18" rx="27" ry="18"/>
<text text-anchor="middle" x="827.5928" y="-14.3" font-family="Times,serif" font-size="14.00" fill="#000000">float</text>
</g>
<!-- geographic location at time&#45;&gt;latitude -->
<g id="edge8" class="edge">
<title>geographic location at time&#45;&gt;latitude</title>
<path fill="none" stroke="#0000ff" d="M668.0824,-93.6425C695.7203,-88.1978 726.1073,-80.3082 752.5928,-69 770.5814,-61.3196 788.7714,-49.0849 802.7319,-38.524"/>
<polygon fill="#0000ff" stroke="#0000ff" points="805.0927,-41.122 810.8382,-32.2203 800.7955,-35.5961 805.0927,-41.122"/>
<text text-anchor="middle" x="800.0928" y="-57.8" font-family="Times,serif" font-size="14.00" fill="#000000">latitude</text>
</g>
<!-- longitude -->
<g id="node10" class="node">
<title>longitude</title>
<ellipse fill="none" stroke="#0000ff" cx="899.5928" cy="-18" rx="27" ry="18"/>
<text text-anchor="middle" x="899.5928" y="-14.3" font-family="Times,serif" font-size="14.00" fill="#000000">float</text>
</g>
<!-- geographic location at time&#45;&gt;longitude -->
<g id="edge9" class="edge">
<title>geographic location at time&#45;&gt;longitude</title>
<path fill="none" stroke="#0000ff" d="M675.4607,-95.5542C731.7027,-88.9462 797.8503,-79.4565 824.5928,-69 842.8094,-61.8772 861.0061,-49.659 874.9132,-38.9673"/>
<polygon fill="#0000ff" stroke="#0000ff" points="877.3217,-41.5241 882.9798,-32.5666 872.9707,-36.0406 877.3217,-41.5241"/>
<text text-anchor="middle" x="879.5928" y="-57.8" font-family="Times,serif" font-size="14.00" fill="#000000">longitude</text>
</g>
<!-- timepoint -->
<g id="node11" class="node">
<title>timepoint</title>
<ellipse fill="none" stroke="#0000ff" cx="988.5928" cy="-18" rx="44.393" ry="18"/>
<text text-anchor="middle" x="988.5928" y="-14.3" font-family="Times,serif" font-size="14.00" fill="#000000">time type</text>
</g>
<!-- geographic location at time&#45;&gt;timepoint -->
<g id="edge10" class="edge">
<title>geographic location at time&#45;&gt;timepoint</title>
<path fill="none" stroke="#0000ff" d="M685.4898,-98.8672C765.3959,-93.1085 869.5559,-83.2355 909.5928,-69 928.1085,-62.4166 946.6785,-50.7482 961.158,-40.2325"/>
<polygon fill="#0000ff" stroke="#0000ff" points="963.2758,-43.0192 969.1792,-34.2214 959.0779,-37.4176 963.2758,-43.0192"/>
<text text-anchor="middle" x="966.0928" y="-57.8" font-family="Times,serif" font-size="14.00" fill="#000000">timepoint</text>
</g>
</g>
</svg>
