<?xml version="1.0" encoding="UTF-8" standalone="no"?>
<!DOCTYPE svg PUBLIC "-//W3C//DTD SVG 1.1//EN"
 "http://www.w3.org/Graphics/SVG/1.1/DTD/svg11.dtd">
<!-- Generated by graphviz version 2.43.0 (0)
 -->
<!-- Title: %3 Pages: 1 -->
<svg width="1862pt" height="130pt"
 viewBox="0.00 0.00 1861.97 130.00" xmlns="http://www.w3.org/2000/svg" xmlns:xlink="http://www.w3.org/1999/xlink">
<g id="graph0" class="graph" transform="scale(1 1) rotate(0) translate(4 126)">
<title>%3</title>
<polygon fill="white" stroke="transparent" points="-4,4 -4,-126 1857.97,-126 1857.97,4 -4,4"/>
<!-- gross anatomical structure -->
<g id="node1" class="node">
<title>gross anatomical structure</title>
<ellipse fill="none" stroke="black" cx="876.25" cy="-104" rx="102.87" ry="18"/>
<text text-anchor="middle" x="876.25" y="-99.8" font-family="Times,serif" font-size="14.00">gross anatomical structure</text>
</g>
<!-- anatomical entity -->
<g id="node2" class="node">
<title>anatomical entity</title>
<ellipse fill="none" stroke="black" cx="71.25" cy="-18" rx="71" ry="18"/>
<text text-anchor="middle" x="71.25" y="-13.8" font-family="Times,serif" font-size="14.00">anatomical entity</text>
</g>
<!-- gross anatomical structure&#45;&gt;anatomical entity -->
<g id="edge1" class="edge">
<title>gross anatomical structure&#45;&gt;anatomical entity</title>
<path fill="none" stroke="black" d="M775.64,-100.15C665.19,-96.19 482.79,-87.22 326.7,-68 259.47,-59.72 183.32,-44.32 131.79,-32.99"/>
<polygon fill="black" stroke="black" points="132.34,-29.53 121.82,-30.78 130.83,-36.36 132.34,-29.53"/>
<text text-anchor="middle" x="338.53" y="-56.8" font-family="Times,serif" font-size="14.00">is_a</text>
</g>
<!-- id -->
<g id="node3" class="node">
<title>id</title>
<ellipse fill="none" stroke="blue" cx="220.25" cy="-18" rx="59.44" ry="18"/>
<text text-anchor="middle" x="220.25" y="-13.8" font-family="Times,serif" font-size="14.00">identifier type</text>
</g>
<!-- gross anatomical structure&#45;&gt;id -->
<g id="edge2" class="edge">
<title>gross anatomical structure&#45;&gt;id</title>
<path fill="none" stroke="blue" d="M775.65,-100.08C682.5,-96.24 540.38,-87.53 418.36,-68 367.56,-59.87 310.66,-45.2 270.92,-34.02"/>
<polygon fill="blue" stroke="blue" points="271.77,-30.63 261.2,-31.26 269.86,-37.36 271.77,-30.63"/>
<text text-anchor="middle" x="424.7" y="-56.8" font-family="Times,serif" font-size="14.00">id</text>
</g>
<!-- name -->
<g id="node4" class="node">
<title>name</title>
<ellipse fill="none" stroke="blue" cx="342.25" cy="-18" rx="44.96" ry="18"/>
<text text-anchor="middle" x="342.25" y="-13.8" font-family="Times,serif" font-size="14.00">label type</text>
</g>
<!-- gross anatomical structure&#45;&gt;name -->
<g id="edge3" class="edge">
<title>gross anatomical structure&#45;&gt;name</title>
<path fill="none" stroke="blue" d="M774.33,-101.19C693.42,-98.04 577.85,-89.71 478.93,-68 444.83,-60.52 407.63,-46.79 380.65,-35.76"/>
<polygon fill="blue" stroke="blue" points="381.78,-32.44 371.2,-31.84 379.1,-38.91 381.78,-32.44"/>
<text text-anchor="middle" x="494.41" y="-56.8" font-family="Times,serif" font-size="14.00">name</text>
</g>
<!-- category -->
<g id="node5" class="node">
<title>category</title>
<ellipse fill="none" stroke="blue" cx="440.25" cy="-18" rx="35.3" ry="18"/>
<text text-anchor="middle" x="440.25" y="-13.8" font-family="Times,serif" font-size="14.00">iri type</text>
</g>
<!-- gross anatomical structure&#45;&gt;category -->
<g id="edge4" class="edge">
<title>gross anatomical structure&#45;&gt;category</title>
<path fill="none" stroke="blue" d="M775.19,-100.28C709.99,-96.55 623.89,-87.9 550.06,-68 522.84,-60.66 493.79,-47.44 472.41,-36.57"/>
<polygon fill="blue" stroke="blue" points="473.94,-33.42 463.45,-31.93 470.72,-39.64 473.94,-33.42"/>
<text text-anchor="middle" x="574.35" y="-56.8" font-family="Times,serif" font-size="14.00">category</text>
</g>
<!-- related to -->
<g id="node6" class="node">
<title>related to</title>
<ellipse fill="none" stroke="blue" cx="547.25" cy="-18" rx="54.14" ry="18"/>
<text text-anchor="middle" x="547.25" y="-13.8" font-family="Times,serif" font-size="14.00">named thing</text>
</g>
<!-- gross anatomical structure&#45;&gt;related to -->
<g id="edge5" class="edge">
<title>gross anatomical structure&#45;&gt;related to</title>
<path fill="none" stroke="blue" d="M779.19,-97.88C733.21,-93.27 678.12,-84.54 630.78,-68 611.81,-61.37 592.34,-50.25 576.98,-40.28"/>
<polygon fill="blue" stroke="blue" points="578.7,-37.22 568.44,-34.58 574.82,-43.04 578.7,-37.22"/>
<text text-anchor="middle" x="657.49" y="-56.8" font-family="Times,serif" font-size="14.00">related to</text>
</g>
<!-- interacts with -->
<g id="node7" class="node">
<title>interacts with</title>
<ellipse fill="none" stroke="blue" cx="673.25" cy="-18" rx="54.14" ry="18"/>
<text text-anchor="middle" x="673.25" y="-13.8" font-family="Times,serif" font-size="14.00">named thing</text>
</g>
<!-- gross anatomical structure&#45;&gt;interacts with -->
<g id="edge6" class="edge">
<title>gross anatomical structure&#45;&gt;interacts with</title>
<path fill="none" stroke="blue" d="M792.27,-93.54C753.87,-87.82 713.59,-79.4 698.44,-68 690.97,-62.38 685.53,-53.9 681.66,-45.58"/>
<polygon fill="blue" stroke="blue" points="684.81,-44.01 677.82,-36.05 678.31,-46.63 684.81,-44.01"/>
<text text-anchor="middle" x="737.16" y="-56.8" font-family="Times,serif" font-size="14.00">interacts with</text>
</g>
<!-- node property -->
<g id="node8" class="node">
<title>node property</title>
<ellipse fill="none" stroke="blue" cx="775.25" cy="-18" rx="30" ry="18"/>
<text text-anchor="middle" x="775.25" y="-13.8" font-family="Times,serif" font-size="14.00">string</text>
</g>
<!-- gross anatomical structure&#45;&gt;node property -->
<g id="edge7" class="edge">
<title>gross anatomical structure&#45;&gt;node property</title>
<path fill="none" stroke="blue" d="M815.36,-89.41C803.93,-84.36 793.09,-77.45 785.11,-68 780.03,-61.98 777.31,-54.08 775.92,-46.37"/>
<polygon fill="blue" stroke="blue" points="779.37,-45.73 774.75,-36.19 772.41,-46.53 779.37,-45.73"/>
<text text-anchor="middle" x="824.32" y="-56.8" font-family="Times,serif" font-size="14.00">node property</text>
</g>
<!-- iri -->
<g id="node9" class="node">
<title>iri</title>
<ellipse fill="none" stroke="blue" cx="859.25" cy="-18" rx="35.3" ry="18"/>
<text text-anchor="middle" x="859.25" y="-13.8" font-family="Times,serif" font-size="14.00">iri type</text>
</g>
<!-- gross anatomical structure&#45;&gt;iri -->
<g id="edge8" class="edge">
<title>gross anatomical structure&#45;&gt;iri</title>
<path fill="none" stroke="blue" d="M872.81,-86C870.48,-74.5 867.36,-59.07 864.7,-45.92"/>
<polygon fill="blue" stroke="blue" points="868.1,-45.08 862.69,-35.97 861.24,-46.47 868.1,-45.08"/>
<text text-anchor="middle" x="875.47" y="-56.8" font-family="Times,serif" font-size="14.00">iri</text>
</g>
<!-- synonym -->
<g id="node10" class="node">
<title>synonym</title>
<ellipse fill="none" stroke="blue" cx="957.25" cy="-18" rx="44.96" ry="18"/>
<text text-anchor="middle" x="957.25" y="-13.8" font-family="Times,serif" font-size="14.00">label type</text>
</g>
<!-- gross anatomical structure&#45;&gt;synonym -->
<g id="edge9" class="edge">
<title>gross anatomical structure&#45;&gt;synonym</title>
<path fill="none" stroke="blue" d="M892.64,-86C904.73,-73.46 921.33,-56.25 934.68,-42.41"/>
<polygon fill="blue" stroke="blue" points="937.29,-44.75 941.71,-35.12 932.25,-39.89 937.29,-44.75"/>
<text text-anchor="middle" x="947.92" y="-56.8" font-family="Times,serif" font-size="14.00">synonym</text>
</g>
<!-- full name -->
<g id="node11" class="node">
<title>full name</title>
<ellipse fill="none" stroke="blue" cx="1064.25" cy="-18" rx="44.96" ry="18"/>
<text text-anchor="middle" x="1064.25" y="-13.8" font-family="Times,serif" font-size="14.00">label type</text>
</g>
<!-- gross anatomical structure&#45;&gt;full name -->
<g id="edge10" class="edge">
<title>gross anatomical structure&#45;&gt;full name</title>
<path fill="none" stroke="blue" d="M924.97,-88.08C941.79,-82.42 960.58,-75.51 977.25,-68 996.01,-59.55 1016.08,-48.4 1032.21,-38.87"/>
<polygon fill="blue" stroke="blue" points="1034.43,-41.62 1041.21,-33.48 1030.83,-35.62 1034.43,-41.62"/>
<text text-anchor="middle" x="1031.88" y="-56.8" font-family="Times,serif" font-size="14.00">full name</text>
</g>
<!-- description -->
<g id="node12" class="node">
<title>description</title>
<ellipse fill="none" stroke="blue" cx="1184.25" cy="-18" rx="57" ry="18"/>
<text text-anchor="middle" x="1184.25" y="-13.8" font-family="Times,serif" font-size="14.00">narrative text</text>
</g>
<!-- gross anatomical structure&#45;&gt;description -->
<g id="edge11" class="edge">
<title>gross anatomical structure&#45;&gt;description</title>
<path fill="none" stroke="blue" d="M953.52,-91.95C987.26,-86.23 1027.08,-78.26 1062.25,-68 1090.27,-59.82 1120.74,-47.59 1144.22,-37.39"/>
<polygon fill="blue" stroke="blue" points="1145.76,-40.54 1153.5,-33.31 1142.94,-34.13 1145.76,-40.54"/>
<text text-anchor="middle" x="1135.35" y="-56.8" font-family="Times,serif" font-size="14.00">description</text>
</g>
<!-- systematic synonym -->
<g id="node13" class="node">
<title>systematic synonym</title>
<ellipse fill="none" stroke="blue" cx="1304.25" cy="-18" rx="44.96" ry="18"/>
<text text-anchor="middle" x="1304.25" y="-13.8" font-family="Times,serif" font-size="14.00">label type</text>
</g>
<!-- gross anatomical structure&#45;&gt;systematic synonym -->
<g id="edge12" class="edge">
<title>gross anatomical structure&#45;&gt;systematic synonym</title>
<path fill="none" stroke="blue" d="M971.91,-97.25C1029.88,-92.38 1105.01,-83.59 1170.25,-68 1203.4,-60.08 1239.63,-46.52 1266.05,-35.67"/>
<polygon fill="blue" stroke="blue" points="1267.43,-38.88 1275.31,-31.81 1264.74,-32.42 1267.43,-38.88"/>
<text text-anchor="middle" x="1273.22" y="-56.8" font-family="Times,serif" font-size="14.00">systematic synonym</text>
</g>
<!-- has phenotype -->
<g id="node14" class="node">
<title>has phenotype</title>
<ellipse fill="none" stroke="blue" cx="1443.25" cy="-18" rx="76.31" ry="18"/>
<text text-anchor="middle" x="1443.25" y="-13.8" font-family="Times,serif" font-size="14.00">phenotypic feature</text>
</g>
<!-- gross anatomical structure&#45;&gt;has phenotype -->
<g id="edge13" class="edge">
<title>gross anatomical structure&#45;&gt;has phenotype</title>
<path fill="none" stroke="blue" d="M975.86,-99.4C1089.74,-94.59 1268.85,-84.65 1334.25,-68 1359.18,-61.65 1385.54,-49.95 1406.09,-39.58"/>
<polygon fill="blue" stroke="blue" points="1407.81,-42.63 1415.09,-34.93 1404.6,-36.41 1407.81,-42.63"/>
<text text-anchor="middle" x="1415.49" y="-56.8" font-family="Times,serif" font-size="14.00">has phenotype</text>
</g>
<!-- expresses -->
<g id="node15" class="node">
<title>expresses</title>
<ellipse fill="none" stroke="blue" cx="1622.25" cy="-18" rx="84.52" ry="18"/>
<text text-anchor="middle" x="1622.25" y="-13.8" font-family="Times,serif" font-size="14.00">gene or gene product</text>
</g>
<!-- gross anatomical structure&#45;&gt;expresses -->
<g id="edge14" class="edge">
<title>gross anatomical structure&#45;&gt;expresses</title>
<path fill="none" stroke="blue" d="M976.43,-99.79C1118.03,-94.78 1369.47,-83.97 1459.25,-68 1498.01,-61.11 1540.57,-48.12 1572.48,-37.25"/>
<polygon fill="blue" stroke="blue" points="1573.71,-40.52 1582.02,-33.95 1571.43,-33.91 1573.71,-40.52"/>
<text text-anchor="middle" x="1546.08" y="-56.8" font-family="Times,serif" font-size="14.00">expresses</text>
</g>
<!-- in taxon -->
<g id="node16" class="node">
<title>in taxon</title>
<ellipse fill="none" stroke="blue" cx="1789.25" cy="-18" rx="64.95" ry="18"/>
<text text-anchor="middle" x="1789.25" y="-13.8" font-family="Times,serif" font-size="14.00">organism taxon</text>
</g>
<!-- gross anatomical structure&#45;&gt;in taxon -->
<g id="edge15" class="edge">
<title>gross anatomical structure&#45;&gt;in taxon</title>
<path fill="none" stroke="blue" d="M979.24,-103.52C1116.37,-102.92 1366.19,-97.33 1577.25,-68 1631.98,-60.39 1693.38,-45.48 1735.96,-34.1"/>
<polygon fill="blue" stroke="blue" points="1737.08,-37.42 1745.82,-31.43 1735.26,-30.66 1737.08,-37.42"/>
<text text-anchor="middle" x="1677" y="-56.8" font-family="Times,serif" font-size="14.00">in taxon</text>
</g>
</g>
</svg>
