<?xml version="1.0" encoding="UTF-8" standalone="no"?>
<!DOCTYPE svg PUBLIC "-//W3C//DTD SVG 1.1//EN"
 "http://www.w3.org/Graphics/SVG/1.1/DTD/svg11.dtd">
<!-- Generated by graphviz version 2.40.1 (20161225.0304)
 -->
<!-- Title: %3 Pages: 1 -->
<svg width="1956pt" height="131pt"
 viewBox="0.00 0.00 1955.79 131.00" xmlns="http://www.w3.org/2000/svg" xmlns:xlink="http://www.w3.org/1999/xlink">
<g id="graph0" class="graph" transform="scale(1 1) rotate(0) translate(4 127)">
<title>%3</title>
<polygon fill="#ffffff" stroke="transparent" points="-4,4 -4,-127 1951.7878,-127 1951.7878,4 -4,4"/>
<!-- gross anatomical structure -->
<g id="node1" class="node">
<title>gross anatomical structure</title>
<ellipse fill="none" stroke="#000000" cx="906.1436" cy="-105" rx="103.9815" ry="18"/>
<text text-anchor="middle" x="906.1436" y="-101.3" font-family="Times,serif" font-size="14.00" fill="#000000">gross anatomical structure</text>
</g>
<!-- anatomical entity -->
<g id="node2" class="node">
<title>anatomical entity</title>
<ellipse fill="none" stroke="#000000" cx="72.1436" cy="-18" rx="72.2875" ry="18"/>
<text text-anchor="middle" x="72.1436" y="-14.3" font-family="Times,serif" font-size="14.00" fill="#000000">anatomical entity</text>
</g>
<!-- gross anatomical structure&#45;&gt;anatomical entity -->
<g id="edge1" class="edge">
<title>gross anatomical structure&#45;&gt;anatomical entity</title>
<path fill="none" stroke="#000000" d="M803.5966,-101.793C649.3481,-96.5361 364.9498,-85.0429 264.1436,-69 216.6184,-61.4365 163.8619,-46.9672 125.695,-35.3669"/>
<polygon fill="#000000" stroke="#000000" points="126.4138,-31.9262 115.8267,-32.3327 124.3565,-38.6171 126.4138,-31.9262"/>
<text text-anchor="middle" x="275.1436" y="-57.8" font-family="Times,serif" font-size="14.00" fill="#000000">is_a</text>
</g>
<!-- id -->
<g id="node3" class="node">
<title>id</title>
<ellipse fill="none" stroke="#0000ff" cx="193.1436" cy="-18" rx="30.5947" ry="18"/>
<text text-anchor="middle" x="193.1436" y="-14.3" font-family="Times,serif" font-size="14.00" fill="#000000">string</text>
</g>
<!-- gross anatomical structure&#45;&gt;id -->
<g id="edge2" class="edge">
<title>gross anatomical structure&#45;&gt;id</title>
<path fill="none" stroke="#0000ff" d="M805.4888,-100.4546C672.956,-94.0966 447.1513,-81.8738 365.1436,-69 305.403,-59.6218 290.2757,-55.8195 233.1436,-36 230.8975,-35.2208 228.6044,-34.364 226.3092,-33.4601"/>
<polygon fill="#0000ff" stroke="#0000ff" points="227.5524,-30.1863 216.9763,-29.557 224.8516,-36.6443 227.5524,-30.1863"/>
<text text-anchor="middle" x="370.6436" y="-57.8" font-family="Times,serif" font-size="14.00" fill="#000000">id</text>
</g>
<!-- name -->
<g id="node4" class="node">
<title>name</title>
<ellipse fill="none" stroke="#0000ff" cx="287.1436" cy="-18" rx="45.4919" ry="18"/>
<text text-anchor="middle" x="287.1436" y="-14.3" font-family="Times,serif" font-size="14.00" fill="#000000">label type</text>
</g>
<!-- gross anatomical structure&#45;&gt;name -->
<g id="edge3" class="edge">
<title>gross anatomical structure&#45;&gt;name</title>
<path fill="none" stroke="#0000ff" d="M805.3667,-100.4486C687.8418,-94.5951 500.8963,-83.4391 432.1436,-69 395.6583,-61.3375 355.8111,-46.8494 327.1375,-35.2677"/>
<polygon fill="#0000ff" stroke="#0000ff" points="328.4431,-32.0202 317.8628,-31.4654 325.7878,-38.4971 328.4431,-32.0202"/>
<text text-anchor="middle" x="447.6436" y="-57.8" font-family="Times,serif" font-size="14.00" fill="#000000">name</text>
</g>
<!-- category -->
<g id="node5" class="node">
<title>category</title>
<ellipse fill="none" stroke="#0000ff" cx="387.1436" cy="-18" rx="36.2938" ry="18"/>
<text text-anchor="middle" x="387.1436" y="-14.3" font-family="Times,serif" font-size="14.00" fill="#000000">iri type</text>
</g>
<!-- gross anatomical structure&#45;&gt;category -->
<g id="edge4" class="edge">
<title>gross anatomical structure&#45;&gt;category</title>
<path fill="none" stroke="#0000ff" d="M807.457,-99.2658C709.6868,-92.9901 566.9933,-82.0625 513.1436,-69 481.3569,-61.2894 447.0556,-46.9785 422.2801,-35.4745"/>
<polygon fill="#0000ff" stroke="#0000ff" points="423.4822,-32.1715 412.9454,-31.0637 420.4915,-38.5005 423.4822,-32.1715"/>
<text text-anchor="middle" x="536.6436" y="-57.8" font-family="Times,serif" font-size="14.00" fill="#000000">category</text>
</g>
<!-- related to -->
<g id="node6" class="node">
<title>related to</title>
<ellipse fill="none" stroke="#0000ff" cx="497.1436" cy="-18" rx="55.4913" ry="18"/>
<text text-anchor="middle" x="497.1436" y="-14.3" font-family="Times,serif" font-size="14.00" fill="#000000">named thing</text>
</g>
<!-- gross anatomical structure&#45;&gt;related to -->
<g id="edge5" class="edge">
<title>gross anatomical structure&#45;&gt;related to</title>
<path fill="none" stroke="#0000ff" d="M811.8748,-97.2921C737.5398,-90.5712 640.268,-80.1701 602.1436,-69 577.9671,-61.9165 552.5113,-49.6865 532.7195,-38.9785"/>
<polygon fill="#0000ff" stroke="#0000ff" points="534.2152,-35.8062 523.7699,-34.032 530.829,-41.9327 534.2152,-35.8062"/>
<text text-anchor="middle" x="628.1436" y="-57.8" font-family="Times,serif" font-size="14.00" fill="#000000">related to</text>
</g>
<!-- interacts with -->
<g id="node7" class="node">
<title>interacts with</title>
<ellipse fill="none" stroke="#0000ff" cx="625.1436" cy="-18" rx="55.4913" ry="18"/>
<text text-anchor="middle" x="625.1436" y="-14.3" font-family="Times,serif" font-size="14.00" fill="#000000">named thing</text>
</g>
<!-- gross anatomical structure&#45;&gt;interacts with -->
<g id="edge6" class="edge">
<title>gross anatomical structure&#45;&gt;interacts with</title>
<path fill="none" stroke="#0000ff" d="M815.4851,-96.1291C763.0682,-89.9348 702.9101,-80.6881 679.1436,-69 666.5432,-62.8033 654.8921,-52.6509 645.6624,-43.0292"/>
<polygon fill="#0000ff" stroke="#0000ff" points="648.1319,-40.5429 638.8076,-35.5122 642.9596,-45.2596 648.1319,-40.5429"/>
<text text-anchor="middle" x="716.1436" y="-57.8" font-family="Times,serif" font-size="14.00" fill="#000000">interacts with</text>
</g>
<!-- correlated with -->
<g id="node8" class="node">
<title>correlated with</title>
<ellipse fill="none" stroke="#0000ff" cx="753.1436" cy="-18" rx="55.4913" ry="18"/>
<text text-anchor="middle" x="753.1436" y="-14.3" font-family="Times,serif" font-size="14.00" fill="#000000">named thing</text>
</g>
<!-- gross anatomical structure&#45;&gt;correlated with -->
<g id="edge7" class="edge">
<title>gross anatomical structure&#45;&gt;correlated with</title>
<path fill="none" stroke="#0000ff" d="M829.6011,-92.7431C801.7808,-86.813 774.7875,-78.8278 765.1436,-69 759.2307,-62.9744 756.0279,-54.6144 754.3474,-46.4047"/>
<polygon fill="#0000ff" stroke="#0000ff" points="757.783,-45.698 752.9434,-36.2732 750.8493,-46.659 757.783,-45.698"/>
<text text-anchor="middle" x="806.1436" y="-57.8" font-family="Times,serif" font-size="14.00" fill="#000000">correlated with</text>
</g>
<!-- node property -->
<g id="node9" class="node">
<title>node property</title>
<ellipse fill="none" stroke="#0000ff" cx="857.1436" cy="-18" rx="30.5947" ry="18"/>
<text text-anchor="middle" x="857.1436" y="-14.3" font-family="Times,serif" font-size="14.00" fill="#000000">string</text>
</g>
<!-- gross anatomical structure&#45;&gt;node property -->
<g id="edge8" class="edge">
<title>gross anatomical structure&#45;&gt;node property</title>
<path fill="none" stroke="#0000ff" d="M871.4491,-87.9925C864.4985,-82.8917 858.1184,-76.5863 854.1436,-69 850.48,-62.0078 849.7264,-53.7133 850.3021,-45.867"/>
<polygon fill="#0000ff" stroke="#0000ff" points="853.769,-46.3471 851.6919,-35.9579 846.8368,-45.3748 853.769,-46.3471"/>
<text text-anchor="middle" x="892.1436" y="-57.8" font-family="Times,serif" font-size="14.00" fill="#000000">node property</text>
</g>
<!-- iri -->
<g id="node10" class="node">
<title>iri</title>
<ellipse fill="none" stroke="#0000ff" cx="942.1436" cy="-18" rx="36.2938" ry="18"/>
<text text-anchor="middle" x="942.1436" y="-14.3" font-family="Times,serif" font-size="14.00" fill="#000000">iri type</text>
</g>
<!-- gross anatomical structure&#45;&gt;iri -->
<g id="edge9" class="edge">
<title>gross anatomical structure&#45;&gt;iri</title>
<path fill="none" stroke="#0000ff" d="M922.918,-87.0993C927.2038,-81.6472 931.3769,-75.3949 934.1436,-69 937.2263,-61.8745 939.1388,-53.7318 940.32,-46.0761"/>
<polygon fill="#0000ff" stroke="#0000ff" points="943.8031,-46.4252 941.5187,-36.0796 936.8529,-45.5917 943.8031,-46.4252"/>
<text text-anchor="middle" x="945.6436" y="-57.8" font-family="Times,serif" font-size="14.00" fill="#000000">iri</text>
</g>
<!-- synonym -->
<g id="node11" class="node">
<title>synonym</title>
<ellipse fill="none" stroke="#0000ff" cx="1042.1436" cy="-18" rx="45.4919" ry="18"/>
<text text-anchor="middle" x="1042.1436" y="-14.3" font-family="Times,serif" font-size="14.00" fill="#000000">label type</text>
</g>
<!-- gross anatomical structure&#45;&gt;synonym -->
<g id="edge10" class="edge">
<title>gross anatomical structure&#45;&gt;synonym</title>
<path fill="none" stroke="#0000ff" d="M933.3384,-87.6033C955.3336,-73.5329 986.3674,-53.6804 1009.6659,-38.7761"/>
<polygon fill="#0000ff" stroke="#0000ff" points="1011.6439,-41.6658 1018.1816,-33.3286 1007.8717,-35.7691 1011.6439,-41.6658"/>
<text text-anchor="middle" x="1008.6436" y="-57.8" font-family="Times,serif" font-size="14.00" fill="#000000">synonym</text>
</g>
<!-- full name -->
<g id="node12" class="node">
<title>full name</title>
<ellipse fill="none" stroke="#0000ff" cx="1151.1436" cy="-18" rx="45.4919" ry="18"/>
<text text-anchor="middle" x="1151.1436" y="-14.3" font-family="Times,serif" font-size="14.00" fill="#000000">label type</text>
</g>
<!-- gross anatomical structure&#45;&gt;full name -->
<g id="edge11" class="edge">
<title>gross anatomical structure&#45;&gt;full name</title>
<path fill="none" stroke="#0000ff" d="M967.5554,-90.4023C990.0076,-84.5041 1015.4552,-77.1563 1038.1436,-69 1063.9033,-59.7396 1091.9574,-47.0932 1113.6686,-36.7106"/>
<polygon fill="#0000ff" stroke="#0000ff" points="1115.3812,-39.7703 1122.8626,-32.2683 1112.3358,-33.4674 1115.3812,-39.7703"/>
<text text-anchor="middle" x="1099.6436" y="-57.8" font-family="Times,serif" font-size="14.00" fill="#000000">full name</text>
</g>
<!-- description -->
<g id="node13" class="node">
<title>description</title>
<ellipse fill="none" stroke="#0000ff" cx="1272.1436" cy="-18" rx="57.6901" ry="18"/>
<text text-anchor="middle" x="1272.1436" y="-14.3" font-family="Times,serif" font-size="14.00" fill="#000000">narrative text</text>
</g>
<!-- gross anatomical structure&#45;&gt;description -->
<g id="edge12" class="edge">
<title>gross anatomical structure&#45;&gt;description</title>
<path fill="none" stroke="#0000ff" d="M992.5394,-94.9262C1034.4596,-89.0742 1085.3255,-80.5433 1130.1436,-69 1163.6133,-60.3796 1200.3032,-47.0975 1228.003,-36.2489"/>
<polygon fill="#0000ff" stroke="#0000ff" points="1229.3973,-39.4613 1237.4058,-32.5248 1226.8196,-32.9531 1229.3973,-39.4613"/>
<text text-anchor="middle" x="1208.6436" y="-57.8" font-family="Times,serif" font-size="14.00" fill="#000000">description</text>
</g>
<!-- systematic synonym -->
<g id="node14" class="node">
<title>systematic synonym</title>
<ellipse fill="none" stroke="#0000ff" cx="1393.1436" cy="-18" rx="45.4919" ry="18"/>
<text text-anchor="middle" x="1393.1436" y="-14.3" font-family="Times,serif" font-size="14.00" fill="#000000">label type</text>
</g>
<!-- gross anatomical structure&#45;&gt;systematic synonym -->
<g id="edge13" class="edge">
<title>gross anatomical structure&#45;&gt;systematic synonym</title>
<path fill="none" stroke="#0000ff" d="M1006.6137,-100.0983C1074.1096,-95.3847 1164.7122,-86.2985 1243.1436,-69 1280.7898,-60.6969 1322.1756,-46.1987 1351.9221,-34.7776"/>
<polygon fill="#0000ff" stroke="#0000ff" points="1353.4907,-37.923 1361.5416,-31.0358 1350.953,-31.3992 1353.4907,-37.923"/>
<text text-anchor="middle" x="1350.1436" y="-57.8" font-family="Times,serif" font-size="14.00" fill="#000000">systematic synonym</text>
</g>
<!-- has phenotype -->
<g id="node15" class="node">
<title>has phenotype</title>
<ellipse fill="none" stroke="#0000ff" cx="1533.1436" cy="-18" rx="76.8869" ry="18"/>
<text text-anchor="middle" x="1533.1436" y="-14.3" font-family="Times,serif" font-size="14.00" fill="#000000">phenotypic feature</text>
</g>
<!-- gross anatomical structure&#45;&gt;has phenotype -->
<g id="edge14" class="edge">
<title>gross anatomical structure&#45;&gt;has phenotype</title>
<path fill="none" stroke="#0000ff" d="M1008.2526,-101.5757C1132.9781,-96.7177 1336.4595,-86.4224 1410.1436,-69 1438.5171,-62.2912 1468.788,-49.814 1492.1998,-38.8806"/>
<polygon fill="#0000ff" stroke="#0000ff" points="1493.94,-41.9285 1501.4632,-34.4685 1490.9298,-35.6088 1493.94,-41.9285"/>
<text text-anchor="middle" x="1495.6436" y="-57.8" font-family="Times,serif" font-size="14.00" fill="#000000">has phenotype</text>
</g>
<!-- expresses -->
<g id="node16" class="node">
<title>expresses</title>
<ellipse fill="none" stroke="#0000ff" cx="1713.1436" cy="-18" rx="85.2851" ry="18"/>
<text text-anchor="middle" x="1713.1436" y="-14.3" font-family="Times,serif" font-size="14.00" fill="#000000">gene or gene product</text>
</g>
<!-- gross anatomical structure&#45;&gt;expresses -->
<g id="edge15" class="edge">
<title>gross anatomical structure&#45;&gt;expresses</title>
<path fill="none" stroke="#0000ff" d="M1008.8694,-102.007C1161.3755,-97.078 1440.3015,-86.0651 1539.1436,-69 1580.6465,-61.8345 1626.2947,-48.2286 1660.4192,-36.8714"/>
<polygon fill="#0000ff" stroke="#0000ff" points="1661.8155,-40.0943 1670.1727,-33.5822 1659.5786,-33.4613 1661.8155,-40.0943"/>
<text text-anchor="middle" x="1629.1436" y="-57.8" font-family="Times,serif" font-size="14.00" fill="#000000">expresses</text>
</g>
<!-- in taxon -->
<g id="node17" class="node">
<title>in taxon</title>
<ellipse fill="none" stroke="#0000ff" cx="1882.1436" cy="-18" rx="65.7887" ry="18"/>
<text text-anchor="middle" x="1882.1436" y="-14.3" font-family="Times,serif" font-size="14.00" fill="#000000">organism taxon</text>
</g>
<!-- gross anatomical structure&#45;&gt;in taxon -->
<g id="edge16" class="edge">
<title>gross anatomical structure&#45;&gt;in taxon</title>
<path fill="none" stroke="#0000ff" d="M1009.0403,-102.2679C1185.0174,-97.2286 1536.6463,-85.461 1659.1436,-69 1716.9613,-61.2305 1781.8482,-45.5861 1826.656,-33.6619"/>
<polygon fill="#0000ff" stroke="#0000ff" points="1827.7174,-37.0009 1836.4662,-31.0252 1825.9005,-30.2408 1827.7174,-37.0009"/>
<text text-anchor="middle" x="1762.6436" y="-57.8" font-family="Times,serif" font-size="14.00" fill="#000000">in taxon</text>
</g>
</g>
</svg>
