<?xml version="1.0" encoding="UTF-8" standalone="no"?>
<!DOCTYPE svg PUBLIC "-//W3C//DTD SVG 1.1//EN"
 "http://www.w3.org/Graphics/SVG/1.1/DTD/svg11.dtd">
<!-- Generated by graphviz version 2.43.0 (0)
 -->
<!-- Title: %3 Pages: 1 -->
<svg width="1656pt" height="131pt"
 viewBox="0.00 0.00 1655.69 131.00" xmlns="http://www.w3.org/2000/svg" xmlns:xlink="http://www.w3.org/1999/xlink">
<g id="graph0" class="graph" transform="scale(1 1) rotate(0) translate(4 127)">
<title>%3</title>
<polygon fill="white" stroke="transparent" points="-4,4 -4,-127 1651.69,-127 1651.69,4 -4,4"/>
<!-- hospitalization -->
<g id="node1" class="node">
<title>hospitalization</title>
<ellipse fill="none" stroke="black" cx="872.34" cy="-105" rx="79.09" ry="18"/>
<text text-anchor="middle" x="872.34" y="-101.3" font-family="Times,serif" font-size="14.00">hospitalization</text>
</g>
<!-- clinical intervention -->
<g id="node2" class="node">
<title>clinical intervention</title>
<ellipse fill="none" stroke="black" cx="103.34" cy="-18" rx="103.18" ry="18"/>
<text text-anchor="middle" x="103.34" y="-14.3" font-family="Times,serif" font-size="14.00">clinical intervention</text>
</g>
<!-- hospitalization&#45;&gt;clinical intervention -->
<g id="edge1" class="edge">
<title>hospitalization&#45;&gt;clinical intervention</title>
<path fill="none" stroke="black" d="M794.04,-102.02C691.49,-98.69 506.27,-90.1 349.34,-69 288.53,-60.82 220.19,-46.51 171.01,-35.29"/>
<polygon fill="black" stroke="black" points="171.65,-31.85 161.12,-33.02 170.08,-38.67 171.65,-31.85"/>
<text text-anchor="middle" x="363.34" y="-57.8" font-family="Times,serif" font-size="14.00">is_a</text>
</g>
<!-- id -->
<g id="node3" class="node">
<title>id</title>
<ellipse fill="none" stroke="blue" cx="263.34" cy="-18" rx="38.19" ry="18"/>
<text text-anchor="middle" x="263.34" y="-14.3" font-family="Times,serif" font-size="14.00">string</text>
</g>
<!-- hospitalization&#45;&gt;id -->
<g id="edge2" class="edge">
<title>hospitalization&#45;&gt;id</title>
<path fill="none" stroke="blue" d="M795.69,-100.23C713.81,-95.53 580.4,-85.99 466.34,-69 396.68,-58.62 379.13,-55.13 311.34,-36 308.24,-35.12 305.04,-34.15 301.84,-33.13"/>
<polygon fill="blue" stroke="blue" points="302.93,-29.8 292.34,-29.95 300.71,-36.44 302.93,-29.8"/>
<text text-anchor="middle" x="473.34" y="-57.8" font-family="Times,serif" font-size="14.00">id</text>
</g>
<!-- iri -->
<g id="node4" class="node">
<title>iri</title>
<ellipse fill="none" stroke="blue" cx="364.34" cy="-18" rx="44.39" ry="18"/>
<text text-anchor="middle" x="364.34" y="-14.3" font-family="Times,serif" font-size="14.00">iri type</text>
</g>
<!-- hospitalization&#45;&gt;iri -->
<g id="edge3" class="edge">
<title>hospitalization&#45;&gt;iri</title>
<path fill="none" stroke="blue" d="M798.31,-98.49C733.82,-93.06 637.97,-83.45 555.34,-69 493.65,-58.21 478.69,-52.75 418.34,-36 414.77,-35.01 411.08,-33.94 407.38,-32.84"/>
<polygon fill="blue" stroke="blue" points="408.23,-29.44 397.65,-29.88 406.2,-36.14 408.23,-29.44"/>
<text text-anchor="middle" x="563.34" y="-57.8" font-family="Times,serif" font-size="14.00">iri</text>
</g>
<!-- type -->
<g id="node5" class="node">
<title>type</title>
<ellipse fill="none" stroke="blue" cx="465.34" cy="-18" rx="38.19" ry="18"/>
<text text-anchor="middle" x="465.34" y="-14.3" font-family="Times,serif" font-size="14.00">string</text>
</g>
<!-- hospitalization&#45;&gt;type -->
<g id="edge4" class="edge">
<title>hospitalization&#45;&gt;type</title>
<path fill="none" stroke="blue" d="M804.91,-95.41C759.14,-89.16 697.35,-79.9 643.34,-69 584.49,-57.12 569.75,-53.57 512.34,-36 509.58,-35.16 506.74,-34.24 503.89,-33.29"/>
<polygon fill="blue" stroke="blue" points="504.87,-29.93 494.27,-29.98 502.59,-36.55 504.87,-29.93"/>
<text text-anchor="middle" x="659.34" y="-57.8" font-family="Times,serif" font-size="14.00">type</text>
</g>
<!-- name -->
<g id="node6" class="node">
<title>name</title>
<ellipse fill="none" stroke="blue" cx="578.34" cy="-18" rx="56.59" ry="18"/>
<text text-anchor="middle" x="578.34" y="-14.3" font-family="Times,serif" font-size="14.00">label type</text>
</g>
<!-- hospitalization&#45;&gt;name -->
<g id="edge5" class="edge">
<title>hospitalization&#45;&gt;name</title>
<path fill="none" stroke="blue" d="M816.1,-92.2C788.05,-85.96 753.72,-77.78 723.34,-69 689.36,-59.18 651.6,-46.09 623.14,-35.76"/>
<polygon fill="blue" stroke="blue" points="624.07,-32.38 613.48,-32.24 621.67,-38.95 624.07,-32.38"/>
<text text-anchor="middle" x="743.34" y="-57.8" font-family="Times,serif" font-size="14.00">name</text>
</g>
<!-- description -->
<g id="node7" class="node">
<title>description</title>
<ellipse fill="none" stroke="blue" cx="728.34" cy="-18" rx="75.29" ry="18"/>
<text text-anchor="middle" x="728.34" y="-14.3" font-family="Times,serif" font-size="14.00">narrative text</text>
</g>
<!-- hospitalization&#45;&gt;description -->
<g id="edge6" class="edge">
<title>hospitalization&#45;&gt;description</title>
<path fill="none" stroke="blue" d="M830.98,-89.63C817,-84.03 801.58,-77.02 788.34,-69 775.87,-61.44 763.28,-51.41 752.88,-42.31"/>
<polygon fill="blue" stroke="blue" points="755.17,-39.66 745.39,-35.59 750.5,-44.88 755.17,-39.66"/>
<text text-anchor="middle" x="828.84" y="-57.8" font-family="Times,serif" font-size="14.00">description</text>
</g>
<!-- has attribute -->
<g id="node8" class="node">
<title>has attribute</title>
<ellipse fill="none" stroke="blue" cx="873.34" cy="-18" rx="51.99" ry="18"/>
<text text-anchor="middle" x="873.34" y="-14.3" font-family="Times,serif" font-size="14.00">attribute</text>
</g>
<!-- hospitalization&#45;&gt;has attribute -->
<g id="edge7" class="edge">
<title>hospitalization&#45;&gt;has attribute</title>
<path fill="none" stroke="blue" d="M872.54,-86.8C872.68,-75.16 872.86,-59.55 873.02,-46.24"/>
<polygon fill="blue" stroke="blue" points="876.52,-46.22 873.14,-36.18 869.52,-46.13 876.52,-46.22"/>
<text text-anchor="middle" x="920.34" y="-57.8" font-family="Times,serif" font-size="14.00">has attribute</text>
</g>
<!-- deprecated -->
<g id="node9" class="node">
<title>deprecated</title>
<ellipse fill="none" stroke="blue" cx="990.34" cy="-18" rx="46.59" ry="18"/>
<text text-anchor="middle" x="990.34" y="-14.3" font-family="Times,serif" font-size="14.00">boolean</text>
</g>
<!-- hospitalization&#45;&gt;deprecated -->
<g id="edge8" class="edge">
<title>hospitalization&#45;&gt;deprecated</title>
<path fill="none" stroke="blue" d="M927.2,-91.95C941.55,-86.75 956.11,-79.38 967.34,-69 974.1,-62.75 979.03,-54.13 982.54,-45.8"/>
<polygon fill="blue" stroke="blue" points="985.86,-46.91 986.05,-36.32 979.3,-44.48 985.86,-46.91"/>
<text text-anchor="middle" x="1018.84" y="-57.8" font-family="Times,serif" font-size="14.00">deprecated</text>
</g>
<!-- provided by -->
<g id="node10" class="node">
<title>provided by</title>
<ellipse fill="none" stroke="blue" cx="1093.34" cy="-18" rx="38.19" ry="18"/>
<text text-anchor="middle" x="1093.34" y="-14.3" font-family="Times,serif" font-size="14.00">string</text>
</g>
<!-- hospitalization&#45;&gt;provided by -->
<g id="edge9" class="edge">
<title>hospitalization&#45;&gt;provided by</title>
<path fill="none" stroke="blue" d="M930.54,-92.61C940.47,-90.7 950.7,-88.77 960.34,-87 1006.05,-78.59 1025.03,-95.3 1063.34,-69 1071.8,-63.19 1078.26,-54.15 1082.98,-45.34"/>
<polygon fill="blue" stroke="blue" points="1086.28,-46.57 1087.44,-36.04 1079.96,-43.54 1086.28,-46.57"/>
<text text-anchor="middle" x="1120.84" y="-57.8" font-family="Times,serif" font-size="14.00">provided by</text>
</g>
<!-- xref -->
<g id="node11" class="node">
<title>xref</title>
<ellipse fill="none" stroke="blue" cx="1207.34" cy="-18" rx="57.39" ry="18"/>
<text text-anchor="middle" x="1207.34" y="-14.3" font-family="Times,serif" font-size="14.00">uriorcurie</text>
</g>
<!-- hospitalization&#45;&gt;xref -->
<g id="edge10" class="edge">
<title>hospitalization&#45;&gt;xref</title>
<path fill="none" stroke="blue" d="M928.53,-92.24C939.07,-90.29 950.02,-88.44 960.34,-87 1006.07,-80.61 1126.63,-90.79 1167.34,-69 1177.74,-63.43 1186.39,-53.89 1192.95,-44.63"/>
<polygon fill="blue" stroke="blue" points="1196.07,-46.26 1198.6,-35.97 1190.2,-42.44 1196.07,-46.26"/>
<text text-anchor="middle" x="1199.84" y="-57.8" font-family="Times,serif" font-size="14.00">xref</text>
</g>
<!-- full name -->
<g id="node12" class="node">
<title>full name</title>
<ellipse fill="none" stroke="blue" cx="1339.34" cy="-18" rx="56.59" ry="18"/>
<text text-anchor="middle" x="1339.34" y="-14.3" font-family="Times,serif" font-size="14.00">label type</text>
</g>
<!-- hospitalization&#45;&gt;full name -->
<g id="edge11" class="edge">
<title>hospitalization&#45;&gt;full name</title>
<path fill="none" stroke="blue" d="M928.04,-92.18C938.72,-90.22 949.85,-88.37 960.34,-87 1074.31,-72.07 1106.44,-95.29 1218.34,-69 1247.32,-62.19 1278.31,-49.27 1301.68,-38.26"/>
<polygon fill="blue" stroke="blue" points="1303.38,-41.33 1310.88,-33.84 1300.35,-35.02 1303.38,-41.33"/>
<text text-anchor="middle" x="1296.84" y="-57.8" font-family="Times,serif" font-size="14.00">full name</text>
</g>
<!-- synonym -->
<g id="node13" class="node">
<title>synonym</title>
<ellipse fill="none" stroke="blue" cx="1470.34" cy="-18" rx="56.59" ry="18"/>
<text text-anchor="middle" x="1470.34" y="-14.3" font-family="Times,serif" font-size="14.00">label type</text>
</g>
<!-- hospitalization&#45;&gt;synonym -->
<g id="edge12" class="edge">
<title>hospitalization&#45;&gt;synonym</title>
<path fill="none" stroke="blue" d="M928.02,-92C938.7,-90.05 949.84,-88.26 960.34,-87 1125.57,-67.17 1171.25,-102.09 1334.34,-69 1367.72,-62.23 1403.82,-48.64 1430.44,-37.33"/>
<polygon fill="blue" stroke="blue" points="1432.01,-40.47 1439.8,-33.29 1429.23,-34.04 1432.01,-40.47"/>
<text text-anchor="middle" x="1416.34" y="-57.8" font-family="Times,serif" font-size="14.00">synonym</text>
</g>
<!-- category -->
<g id="node14" class="node">
<title>category</title>
<ellipse fill="none" stroke="black" cx="1596.34" cy="-18" rx="51.19" ry="18"/>
<text text-anchor="middle" x="1596.34" y="-14.3" font-family="Times,serif" font-size="14.00">category</text>
</g>
<!-- hospitalization&#45;&gt;category -->
<g id="edge13" class="edge">
<title>hospitalization&#45;&gt;category</title>
<path fill="none" stroke="blue" d="M927.53,-91.99C938.36,-90.01 949.67,-88.22 960.34,-87 1177.74,-62.17 1237.28,-109.33 1452.34,-69 1488.52,-62.21 1527.9,-48.04 1556.32,-36.51"/>
<polygon fill="blue" stroke="blue" points="1557.98,-39.61 1565.89,-32.56 1555.31,-33.14 1557.98,-39.61"/>
<text text-anchor="middle" x="1536.84" y="-57.8" font-family="Times,serif" font-size="14.00">category</text>
</g>
<!-- named thing_category -->
<g id="node15" class="node">
<title>named thing_category</title>
<ellipse fill="none" stroke="blue" cx="1044.34" cy="-105" rx="74.99" ry="18"/>
<text text-anchor="middle" x="1044.34" y="-101.3" font-family="Times,serif" font-size="14.00">category type</text>
</g>
</g>
</svg>
