<?xml version="1.0" encoding="UTF-8" standalone="no"?>
<!DOCTYPE svg PUBLIC "-//W3C//DTD SVG 1.1//EN"
 "http://www.w3.org/Graphics/SVG/1.1/DTD/svg11.dtd">
<!-- Generated by graphviz version 2.43.0 (0)
 -->
<!-- Title: %3 Pages: 1 -->
<svg width="1789pt" height="131pt"
 viewBox="0.00 0.00 1789.19 131.00" xmlns="http://www.w3.org/2000/svg" xmlns:xlink="http://www.w3.org/1999/xlink">
<g id="graph0" class="graph" transform="scale(1 1) rotate(0) translate(4 127)">
<title>%3</title>
<polygon fill="white" stroke="transparent" points="-4,4 -4,-127 1785.19,-127 1785.19,4 -4,4"/>
<!-- human -->
<g id="node1" class="node">
<title>human</title>
<ellipse fill="none" stroke="black" cx="879.7" cy="-105" rx="42.49" ry="18"/>
<text text-anchor="middle" x="879.7" y="-101.3" font-family="Times,serif" font-size="14.00">human</text>
</g>
<!-- mammal -->
<g id="node2" class="node">
<title>mammal</title>
<ellipse fill="none" stroke="black" cx="50.7" cy="-18" rx="50.89" ry="18"/>
<text text-anchor="middle" x="50.7" y="-14.3" font-family="Times,serif" font-size="14.00">mammal</text>
</g>
<!-- human&#45;&gt;mammal -->
<g id="edge1" class="edge">
<title>human&#45;&gt;mammal</title>
<path fill="none" stroke="black" d="M837.49,-103.57C720.61,-101.68 383.27,-91.45 109.7,-36 105.58,-35.17 101.34,-34.19 97.1,-33.13"/>
<polygon fill="black" stroke="black" points="97.85,-29.71 87.29,-30.53 96.07,-36.47 97.85,-29.71"/>
<text text-anchor="middle" x="312.7" y="-57.8" font-family="Times,serif" font-size="14.00">is_a</text>
</g>
<!-- subject of investigation -->
<g id="node3" class="node">
<title>subject of investigation</title>
<ellipse fill="none" stroke="black" cx="238.7" cy="-18" rx="119.68" ry="18"/>
<text text-anchor="middle" x="238.7" y="-14.3" font-family="Times,serif" font-size="14.00">subject of investigation</text>
</g>
<!-- human&#45;&gt;subject of investigation -->
<g id="edge2" class="edge">
<title>human&#45;&gt;subject of investigation</title>
<path fill="none" stroke="black" d="M838.21,-101.39C768.91,-96.75 625.3,-85.93 504.7,-69 440.11,-59.94 367.36,-46 314.29,-35.14"/>
<polygon fill="black" stroke="black" points="314.78,-31.67 304.28,-33.08 313.37,-38.53 314.78,-31.67"/>
<text text-anchor="middle" x="521.2" y="-57.8" font-family="Times,serif" font-size="14.00">uses</text>
</g>
<!-- id -->
<g id="node4" class="node">
<title>id</title>
<ellipse fill="none" stroke="blue" cx="414.7" cy="-18" rx="38.19" ry="18"/>
<text text-anchor="middle" x="414.7" y="-14.3" font-family="Times,serif" font-size="14.00">string</text>
</g>
<!-- human&#45;&gt;id -->
<g id="edge3" class="edge">
<title>human&#45;&gt;id</title>
<path fill="none" stroke="blue" d="M838.77,-100.45C763.28,-93.22 597.51,-74.14 462.7,-36 459.59,-35.12 456.4,-34.15 453.2,-33.12"/>
<polygon fill="blue" stroke="blue" points="454.29,-29.8 443.69,-29.95 452.07,-36.44 454.29,-29.8"/>
<text text-anchor="middle" x="605.7" y="-57.8" font-family="Times,serif" font-size="14.00">id</text>
</g>
<!-- iri -->
<g id="node5" class="node">
<title>iri</title>
<ellipse fill="none" stroke="blue" cx="515.7" cy="-18" rx="44.39" ry="18"/>
<text text-anchor="middle" x="515.7" y="-14.3" font-family="Times,serif" font-size="14.00">iri type</text>
</g>
<!-- human&#45;&gt;iri -->
<g id="edge4" class="edge">
<title>human&#45;&gt;iri</title>
<path fill="none" stroke="blue" d="M841.12,-97.45C803.79,-90.93 745.65,-80.28 695.7,-69 639.23,-56.25 625.32,-52.03 569.7,-36 566.18,-34.99 562.55,-33.91 558.91,-32.81"/>
<polygon fill="blue" stroke="blue" points="559.91,-29.45 549.32,-29.86 557.85,-36.15 559.91,-29.45"/>
<text text-anchor="middle" x="703.7" y="-57.8" font-family="Times,serif" font-size="14.00">iri</text>
</g>
<!-- type -->
<g id="node6" class="node">
<title>type</title>
<ellipse fill="none" stroke="blue" cx="616.7" cy="-18" rx="38.19" ry="18"/>
<text text-anchor="middle" x="616.7" y="-14.3" font-family="Times,serif" font-size="14.00">string</text>
</g>
<!-- human&#45;&gt;type -->
<g id="edge5" class="edge">
<title>human&#45;&gt;type</title>
<path fill="none" stroke="blue" d="M845.47,-94.34C821.63,-87.52 789.13,-78.01 760.7,-69 717.29,-55.24 706.66,-51.08 663.7,-36 661.01,-35.06 658.24,-34.08 655.45,-33.08"/>
<polygon fill="blue" stroke="blue" points="656.59,-29.78 646,-29.7 654.23,-36.37 656.59,-29.78"/>
<text text-anchor="middle" x="776.7" y="-57.8" font-family="Times,serif" font-size="14.00">type</text>
</g>
<!-- name -->
<g id="node7" class="node">
<title>name</title>
<ellipse fill="none" stroke="blue" cx="729.7" cy="-18" rx="56.59" ry="18"/>
<text text-anchor="middle" x="729.7" y="-14.3" font-family="Times,serif" font-size="14.00">label type</text>
</g>
<!-- human&#45;&gt;name -->
<g id="edge6" class="edge">
<title>human&#45;&gt;name</title>
<path fill="none" stroke="blue" d="M855.26,-90.15C830.8,-76.29 792.9,-54.81 765.13,-39.08"/>
<polygon fill="blue" stroke="blue" points="766.57,-35.87 756.14,-33.99 763.11,-41.96 766.57,-35.87"/>
<text text-anchor="middle" x="833.7" y="-57.8" font-family="Times,serif" font-size="14.00">name</text>
</g>
<!-- description -->
<g id="node8" class="node">
<title>description</title>
<ellipse fill="none" stroke="blue" cx="879.7" cy="-18" rx="75.29" ry="18"/>
<text text-anchor="middle" x="879.7" y="-14.3" font-family="Times,serif" font-size="14.00">narrative text</text>
</g>
<!-- human&#45;&gt;description -->
<g id="edge7" class="edge">
<title>human&#45;&gt;description</title>
<path fill="none" stroke="blue" d="M879.7,-86.8C879.7,-75.16 879.7,-59.55 879.7,-46.24"/>
<polygon fill="blue" stroke="blue" points="883.2,-46.18 879.7,-36.18 876.2,-46.18 883.2,-46.18"/>
<text text-anchor="middle" x="920.2" y="-57.8" font-family="Times,serif" font-size="14.00">description</text>
</g>
<!-- provided by -->
<g id="node9" class="node">
<title>provided by</title>
<ellipse fill="none" stroke="blue" cx="1011.7" cy="-18" rx="38.19" ry="18"/>
<text text-anchor="middle" x="1011.7" y="-14.3" font-family="Times,serif" font-size="14.00">string</text>
</g>
<!-- human&#45;&gt;provided by -->
<g id="edge8" class="edge">
<title>human&#45;&gt;provided by</title>
<path fill="none" stroke="blue" d="M911.01,-92.69C931.29,-85.07 955.56,-75.29 964.7,-69 975.17,-61.78 985.07,-51.89 993.07,-42.81"/>
<polygon fill="blue" stroke="blue" points="995.79,-45.02 999.57,-35.13 990.44,-40.5 995.79,-45.02"/>
<text text-anchor="middle" x="1025.2" y="-57.8" font-family="Times,serif" font-size="14.00">provided by</text>
</g>
<!-- xref -->
<g id="node10" class="node">
<title>xref</title>
<ellipse fill="none" stroke="blue" cx="1125.7" cy="-18" rx="57.39" ry="18"/>
<text text-anchor="middle" x="1125.7" y="-14.3" font-family="Times,serif" font-size="14.00">uriorcurie</text>
</g>
<!-- human&#45;&gt;xref -->
<g id="edge9" class="edge">
<title>human&#45;&gt;xref</title>
<path fill="none" stroke="blue" d="M910.71,-92.59C917.24,-90.49 924.14,-88.5 930.7,-87 992.29,-72.94 1014.46,-95.74 1071.7,-69 1084.48,-63.03 1096.29,-52.9 1105.58,-43.31"/>
<polygon fill="blue" stroke="blue" points="1108.27,-45.56 1112.46,-35.83 1103.12,-40.82 1108.27,-45.56"/>
<text text-anchor="middle" x="1108.2" y="-57.8" font-family="Times,serif" font-size="14.00">xref</text>
</g>
<!-- category -->
<g id="node11" class="node">
<title>category</title>
<ellipse fill="none" stroke="black" cx="1252.7" cy="-18" rx="51.19" ry="18"/>
<text text-anchor="middle" x="1252.7" y="-14.3" font-family="Times,serif" font-size="14.00">category</text>
</g>
<!-- human&#45;&gt;category -->
<g id="edge10" class="edge">
<title>human&#45;&gt;category</title>
<path fill="none" stroke="blue" d="M910.4,-92.5C917.02,-90.38 924.03,-88.4 930.7,-87 1016.31,-69.05 1041.62,-89.34 1126.7,-69 1157.21,-61.71 1190.11,-48.45 1214.64,-37.42"/>
<polygon fill="blue" stroke="blue" points="1216.3,-40.51 1223.94,-33.16 1213.39,-34.14 1216.3,-40.51"/>
<text text-anchor="middle" x="1205.2" y="-57.8" font-family="Times,serif" font-size="14.00">category</text>
</g>
<!-- in taxon -->
<g id="node13" class="node">
<title>in taxon</title>
<ellipse fill="none" stroke="blue" cx="1405.7" cy="-18" rx="83.39" ry="18"/>
<text text-anchor="middle" x="1405.7" y="-14.3" font-family="Times,serif" font-size="14.00">organism taxon</text>
</g>
<!-- human&#45;&gt;in taxon -->
<g id="edge11" class="edge">
<title>human&#45;&gt;in taxon</title>
<path fill="none" stroke="blue" d="M910.09,-92.42C916.79,-90.27 923.91,-88.3 930.7,-87 1066.23,-60.95 1104.82,-93.18 1240.7,-69 1280.35,-61.94 1323.92,-48.49 1356.32,-37.31"/>
<polygon fill="blue" stroke="blue" points="1357.71,-40.53 1366,-33.93 1355.4,-33.92 1357.71,-40.53"/>
<text text-anchor="middle" x="1329.7" y="-57.8" font-family="Times,serif" font-size="14.00">in taxon</text>
</g>
<!-- in taxon label -->
<g id="node14" class="node">
<title>in taxon label</title>
<ellipse fill="none" stroke="blue" cx="1563.7" cy="-18" rx="56.59" ry="18"/>
<text text-anchor="middle" x="1563.7" y="-14.3" font-family="Times,serif" font-size="14.00">label type</text>
</g>
<!-- human&#45;&gt;in taxon label -->
<g id="edge12" class="edge">
<title>human&#45;&gt;in taxon label</title>
<path fill="none" stroke="blue" d="M910.07,-92.33C916.78,-90.19 923.9,-88.25 930.7,-87 1119.7,-52.28 1172.43,-95.95 1362.7,-69 1415.54,-61.52 1474.67,-45.9 1515.04,-34.1"/>
<polygon fill="blue" stroke="blue" points="1516.28,-37.38 1524.88,-31.19 1514.3,-30.67 1516.28,-37.38"/>
<text text-anchor="middle" x="1484.2" y="-57.8" font-family="Times,serif" font-size="14.00">in taxon label</text>
</g>
<!-- has attribute -->
<g id="node15" class="node">
<title>has attribute</title>
<ellipse fill="none" stroke="black" cx="1709.7" cy="-18" rx="71.49" ry="18"/>
<text text-anchor="middle" x="1709.7" y="-14.3" font-family="Times,serif" font-size="14.00">has attribute</text>
</g>
<!-- human&#45;&gt;has attribute -->
<g id="edge13" class="edge">
<title>human&#45;&gt;has attribute</title>
<path fill="none" stroke="blue" d="M909.79,-92.36C916.57,-90.19 923.8,-88.22 930.7,-87 1196,-39.89 1270.5,-110.74 1536.7,-69 1579.71,-62.26 1627.11,-48.05 1661.41,-36.5"/>
<polygon fill="blue" stroke="blue" points="1662.83,-39.72 1671.16,-33.17 1660.57,-33.09 1662.83,-39.72"/>
<text text-anchor="middle" x="1650.7" y="-57.8" font-family="Times,serif" font-size="14.00">has attribute</text>
</g>
<!-- named thing_category -->
<g id="node12" class="node">
<title>named thing_category</title>
<ellipse fill="none" stroke="blue" cx="1014.7" cy="-105" rx="74.99" ry="18"/>
<text text-anchor="middle" x="1014.7" y="-101.3" font-family="Times,serif" font-size="14.00">category type</text>
</g>
<!-- organismal entity_has attribute -->
<g id="node16" class="node">
<title>organismal entity_has attribute</title>
<ellipse fill="none" stroke="blue" cx="1159.7" cy="-105" rx="51.99" ry="18"/>
<text text-anchor="middle" x="1159.7" y="-101.3" font-family="Times,serif" font-size="14.00">attribute</text>
</g>
</g>
</svg>
