<?xml version="1.0" encoding="UTF-8" standalone="no"?>
<!DOCTYPE svg PUBLIC "-//W3C//DTD SVG 1.1//EN"
 "http://www.w3.org/Graphics/SVG/1.1/DTD/svg11.dtd">
<!-- Generated by graphviz version 2.43.0 (0)
 -->
<!-- Title: %3 Pages: 1 -->
<svg width="2162pt" height="131pt"
 viewBox="0.00 0.00 2162.19 131.00" xmlns="http://www.w3.org/2000/svg" xmlns:xlink="http://www.w3.org/1999/xlink">
<g id="graph0" class="graph" transform="scale(1 1) rotate(0) translate(4 127)">
<title>%3</title>
<polygon fill="white" stroke="transparent" points="-4,4 -4,-127 2158.19,-127 2158.19,4 -4,4"/>
<!-- human -->
<g id="node1" class="node">
<title>human</title>
<ellipse fill="none" stroke="black" cx="1070.7" cy="-105" rx="42.49" ry="18"/>
<text text-anchor="middle" x="1070.7" y="-101.3" font-family="Times,serif" font-size="14.00">human</text>
</g>
<!-- mammal -->
<g id="node2" class="node">
<title>mammal</title>
<ellipse fill="none" stroke="black" cx="50.7" cy="-18" rx="50.89" ry="18"/>
<text text-anchor="middle" x="50.7" y="-14.3" font-family="Times,serif" font-size="14.00">mammal</text>
</g>
<!-- human&#45;&gt;mammal -->
<g id="edge1" class="edge">
<title>human&#45;&gt;mammal</title>
<path fill="none" stroke="black" d="M1028.47,-102.99C919.52,-100.16 620.13,-90.83 371.7,-69 254.78,-58.72 224.65,-59.65 109.7,-36 105.58,-35.15 101.34,-34.17 97.11,-33.1"/>
<polygon fill="black" stroke="black" points="97.86,-29.68 87.3,-30.5 96.07,-36.45 97.86,-29.68"/>
<text text-anchor="middle" x="385.7" y="-57.8" font-family="Times,serif" font-size="14.00">is_a</text>
</g>
<!-- subject of investigation -->
<g id="node3" class="node">
<title>subject of investigation</title>
<ellipse fill="none" stroke="black" cx="238.7" cy="-18" rx="119.68" ry="18"/>
<text text-anchor="middle" x="238.7" y="-14.3" font-family="Times,serif" font-size="14.00">subject of investigation</text>
</g>
<!-- human&#45;&gt;subject of investigation -->
<g id="edge2" class="edge">
<title>human&#45;&gt;subject of investigation</title>
<path fill="none" stroke="black" d="M1028.32,-103.32C932.86,-101.38 693.87,-94.2 495.7,-69 432.71,-60.99 361.94,-46.84 310.64,-35.63"/>
<polygon fill="black" stroke="black" points="311.16,-32.16 300.64,-33.43 309.66,-38.99 311.16,-32.16"/>
<text text-anchor="middle" x="512.2" y="-57.8" font-family="Times,serif" font-size="14.00">uses</text>
</g>
<!-- id -->
<g id="node4" class="node">
<title>id</title>
<ellipse fill="none" stroke="blue" cx="414.7" cy="-18" rx="38.19" ry="18"/>
<text text-anchor="middle" x="414.7" y="-14.3" font-family="Times,serif" font-size="14.00">string</text>
</g>
<!-- human&#45;&gt;id -->
<g id="edge3" class="edge">
<title>human&#45;&gt;id</title>
<path fill="none" stroke="blue" d="M1028.65,-102.61C948.39,-99.56 767.98,-90.71 617.7,-69 547.99,-58.93 530.48,-55.13 462.7,-36 459.59,-35.12 456.39,-34.15 453.2,-33.13"/>
<polygon fill="blue" stroke="blue" points="454.28,-29.8 443.69,-29.95 452.07,-36.44 454.28,-29.8"/>
<text text-anchor="middle" x="624.7" y="-57.8" font-family="Times,serif" font-size="14.00">id</text>
</g>
<!-- iri -->
<g id="node5" class="node">
<title>iri</title>
<ellipse fill="none" stroke="blue" cx="515.7" cy="-18" rx="44.39" ry="18"/>
<text text-anchor="middle" x="515.7" y="-14.3" font-family="Times,serif" font-size="14.00">iri type</text>
</g>
<!-- human&#45;&gt;iri -->
<g id="edge4" class="edge">
<title>human&#45;&gt;iri</title>
<path fill="none" stroke="blue" d="M1028.76,-102.04C960.17,-98.38 819.89,-89 702.7,-69 652.52,-60.44 596.26,-44.5 558.67,-32.92"/>
<polygon fill="blue" stroke="blue" points="559.65,-29.56 549.06,-29.93 557.57,-36.24 559.65,-29.56"/>
<text text-anchor="middle" x="710.7" y="-57.8" font-family="Times,serif" font-size="14.00">iri</text>
</g>
<!-- type -->
<g id="node6" class="node">
<title>type</title>
<ellipse fill="none" stroke="blue" cx="616.7" cy="-18" rx="38.19" ry="18"/>
<text text-anchor="middle" x="616.7" y="-14.3" font-family="Times,serif" font-size="14.00">string</text>
</g>
<!-- human&#45;&gt;type -->
<g id="edge5" class="edge">
<title>human&#45;&gt;type</title>
<path fill="none" stroke="blue" d="M1029.5,-100.74C973.99,-95.93 872.27,-85.67 786.7,-69 731.14,-58.18 717.69,-52.97 663.7,-36 660.94,-35.13 658.11,-34.21 655.26,-33.25"/>
<polygon fill="blue" stroke="blue" points="656.24,-29.88 645.65,-29.91 653.95,-36.49 656.24,-29.88"/>
<text text-anchor="middle" x="802.7" y="-57.8" font-family="Times,serif" font-size="14.00">type</text>
</g>
<!-- name -->
<g id="node7" class="node">
<title>name</title>
<ellipse fill="none" stroke="blue" cx="729.7" cy="-18" rx="56.59" ry="18"/>
<text text-anchor="middle" x="729.7" y="-14.3" font-family="Times,serif" font-size="14.00">label type</text>
</g>
<!-- human&#45;&gt;name -->
<g id="edge6" class="edge">
<title>human&#45;&gt;name</title>
<path fill="none" stroke="blue" d="M1030.39,-99.12C989.3,-93.65 923.92,-83.6 868.7,-69 835.68,-60.27 799.41,-47.1 772.2,-36.46"/>
<polygon fill="blue" stroke="blue" points="773.19,-33.09 762.6,-32.67 770.62,-39.6 773.19,-33.09"/>
<text text-anchor="middle" x="888.7" y="-57.8" font-family="Times,serif" font-size="14.00">name</text>
</g>
<!-- description -->
<g id="node8" class="node">
<title>description</title>
<ellipse fill="none" stroke="blue" cx="879.7" cy="-18" rx="75.29" ry="18"/>
<text text-anchor="middle" x="879.7" y="-14.3" font-family="Times,serif" font-size="14.00">narrative text</text>
</g>
<!-- human&#45;&gt;description -->
<g id="edge7" class="edge">
<title>human&#45;&gt;description</title>
<path fill="none" stroke="blue" d="M1030.29,-99.65C1001.14,-95.18 961.63,-86.31 930.7,-69 919.03,-62.47 908.14,-52.57 899.45,-43.3"/>
<polygon fill="blue" stroke="blue" points="901.97,-40.87 892.7,-35.75 896.75,-45.54 901.97,-40.87"/>
<text text-anchor="middle" x="971.2" y="-57.8" font-family="Times,serif" font-size="14.00">description</text>
</g>
<!-- deprecated -->
<g id="node9" class="node">
<title>deprecated</title>
<ellipse fill="none" stroke="blue" cx="1019.7" cy="-18" rx="46.59" ry="18"/>
<text text-anchor="middle" x="1019.7" y="-14.3" font-family="Times,serif" font-size="14.00">boolean</text>
</g>
<!-- human&#45;&gt;deprecated -->
<g id="edge8" class="edge">
<title>human&#45;&gt;deprecated</title>
<path fill="none" stroke="blue" d="M1042.54,-91.43C1033.58,-85.92 1024.7,-78.5 1019.7,-69 1016.08,-62.14 1014.99,-53.97 1015.1,-46.25"/>
<polygon fill="blue" stroke="blue" points="1018.6,-46.4 1015.87,-36.16 1011.62,-45.86 1018.6,-46.4"/>
<text text-anchor="middle" x="1060.2" y="-57.8" font-family="Times,serif" font-size="14.00">deprecated</text>
</g>
<!-- provided by -->
<g id="node10" class="node">
<title>provided by</title>
<ellipse fill="none" stroke="blue" cx="1122.7" cy="-18" rx="38.19" ry="18"/>
<text text-anchor="middle" x="1122.7" y="-14.3" font-family="Times,serif" font-size="14.00">string</text>
</g>
<!-- human&#45;&gt;provided by -->
<g id="edge9" class="edge">
<title>human&#45;&gt;provided by</title>
<path fill="none" stroke="blue" d="M1086.1,-88.05C1091.14,-82.32 1096.52,-75.64 1100.7,-69 1105.31,-61.66 1109.44,-53.19 1112.83,-45.33"/>
<polygon fill="blue" stroke="blue" points="1116.17,-46.41 1116.72,-35.83 1109.69,-43.76 1116.17,-46.41"/>
<text text-anchor="middle" x="1151.2" y="-57.8" font-family="Times,serif" font-size="14.00">provided by</text>
</g>
<!-- xref -->
<g id="node11" class="node">
<title>xref</title>
<ellipse fill="none" stroke="blue" cx="1236.7" cy="-18" rx="57.39" ry="18"/>
<text text-anchor="middle" x="1236.7" y="-14.3" font-family="Times,serif" font-size="14.00">uriorcurie</text>
</g>
<!-- human&#45;&gt;xref -->
<g id="edge10" class="edge">
<title>human&#45;&gt;xref</title>
<path fill="none" stroke="blue" d="M1102.39,-92.95C1108.75,-90.87 1115.41,-88.79 1121.7,-87 1155.08,-77.5 1168.48,-87.75 1197.7,-69 1207.39,-62.78 1215.67,-53.3 1222.07,-44.26"/>
<polygon fill="blue" stroke="blue" points="1225.04,-46.12 1227.63,-35.85 1219.2,-42.26 1225.04,-46.12"/>
<text text-anchor="middle" x="1229.2" y="-57.8" font-family="Times,serif" font-size="14.00">xref</text>
</g>
<!-- full name -->
<g id="node12" class="node">
<title>full name</title>
<ellipse fill="none" stroke="blue" cx="1368.7" cy="-18" rx="56.59" ry="18"/>
<text text-anchor="middle" x="1368.7" y="-14.3" font-family="Times,serif" font-size="14.00">label type</text>
</g>
<!-- human&#45;&gt;full name -->
<g id="edge11" class="edge">
<title>human&#45;&gt;full name</title>
<path fill="none" stroke="blue" d="M1101.73,-92.67C1108.26,-90.56 1115.16,-88.54 1121.7,-87 1176.75,-74 1193.13,-83.92 1247.7,-69 1276.22,-61.2 1306.99,-48.42 1330.37,-37.73"/>
<polygon fill="blue" stroke="blue" points="1331.99,-40.84 1339.59,-33.45 1329.04,-34.49 1331.99,-40.84"/>
<text text-anchor="middle" x="1326.2" y="-57.8" font-family="Times,serif" font-size="14.00">full name</text>
</g>
<!-- synonym -->
<g id="node13" class="node">
<title>synonym</title>
<ellipse fill="none" stroke="blue" cx="1499.7" cy="-18" rx="56.59" ry="18"/>
<text text-anchor="middle" x="1499.7" y="-14.3" font-family="Times,serif" font-size="14.00">label type</text>
</g>
<!-- human&#45;&gt;synonym -->
<g id="edge12" class="edge">
<title>human&#45;&gt;synonym</title>
<path fill="none" stroke="blue" d="M1101.11,-92.5C1107.81,-90.35 1114.92,-88.36 1121.7,-87 1227.44,-65.78 1258.29,-91.83 1363.7,-69 1396.87,-61.82 1432.85,-48.31 1459.47,-37.15"/>
<polygon fill="blue" stroke="blue" points="1461.01,-40.3 1468.83,-33.16 1458.26,-33.86 1461.01,-40.3"/>
<text text-anchor="middle" x="1445.7" y="-57.8" font-family="Times,serif" font-size="14.00">synonym</text>
</g>
<!-- category -->
<g id="node14" class="node">
<title>category</title>
<ellipse fill="none" stroke="black" cx="1625.7" cy="-18" rx="51.19" ry="18"/>
<text text-anchor="middle" x="1625.7" y="-14.3" font-family="Times,serif" font-size="14.00">category</text>
</g>
<!-- human&#45;&gt;category -->
<g id="edge13" class="edge">
<title>human&#45;&gt;category</title>
<path fill="none" stroke="blue" d="M1101.08,-92.38C1107.78,-90.24 1114.91,-88.28 1121.7,-87 1279.14,-57.4 1324.44,-99.58 1481.7,-69 1517.71,-62 1556.96,-47.91 1585.37,-36.47"/>
<polygon fill="blue" stroke="blue" points="1587.01,-39.58 1594.94,-32.55 1584.36,-33.1 1587.01,-39.58"/>
<text text-anchor="middle" x="1566.2" y="-57.8" font-family="Times,serif" font-size="14.00">category</text>
</g>
<!-- in taxon -->
<g id="node16" class="node">
<title>in taxon</title>
<ellipse fill="none" stroke="blue" cx="1778.7" cy="-18" rx="83.39" ry="18"/>
<text text-anchor="middle" x="1778.7" y="-14.3" font-family="Times,serif" font-size="14.00">organism taxon</text>
</g>
<!-- human&#45;&gt;in taxon -->
<g id="edge14" class="edge">
<title>human&#45;&gt;in taxon</title>
<path fill="none" stroke="blue" d="M1101.07,-92.31C1107.77,-90.17 1114.9,-88.23 1121.7,-87 1331.74,-48.86 1390.82,-102.25 1601.7,-69 1645.09,-62.16 1692.96,-48.23 1727.96,-36.81"/>
<polygon fill="blue" stroke="blue" points="1729.08,-40.12 1737.48,-33.66 1726.88,-33.48 1729.08,-40.12"/>
<text text-anchor="middle" x="1695.7" y="-57.8" font-family="Times,serif" font-size="14.00">in taxon</text>
</g>
<!-- in taxon label -->
<g id="node17" class="node">
<title>in taxon label</title>
<ellipse fill="none" stroke="blue" cx="1936.7" cy="-18" rx="56.59" ry="18"/>
<text text-anchor="middle" x="1936.7" y="-14.3" font-family="Times,serif" font-size="14.00">label type</text>
</g>
<!-- human&#45;&gt;in taxon label -->
<g id="edge15" class="edge">
<title>human&#45;&gt;in taxon label</title>
<path fill="none" stroke="blue" d="M1100.79,-92.36C1107.57,-90.19 1114.8,-88.22 1121.7,-87 1254.57,-63.41 1594.87,-86.36 1728.7,-69 1784.1,-61.81 1846.22,-45.81 1888.03,-33.83"/>
<polygon fill="blue" stroke="blue" points="1889.05,-37.18 1897.68,-31.03 1887.1,-30.45 1889.05,-37.18"/>
<text text-anchor="middle" x="1858.2" y="-57.8" font-family="Times,serif" font-size="14.00">in taxon label</text>
</g>
<!-- has attribute -->
<g id="node18" class="node">
<title>has attribute</title>
<ellipse fill="none" stroke="black" cx="2082.7" cy="-18" rx="71.49" ry="18"/>
<text text-anchor="middle" x="2082.7" y="-14.3" font-family="Times,serif" font-size="14.00">has attribute</text>
</g>
<!-- human&#45;&gt;has attribute -->
<g id="edge16" class="edge">
<title>human&#45;&gt;has attribute</title>
<path fill="none" stroke="blue" d="M1100.79,-92.32C1107.57,-90.16 1114.8,-88.2 1121.7,-87 1294.48,-56.93 1737.36,-95.7 1910.7,-69 1953.49,-62.41 2000.63,-48.19 2034.71,-36.6"/>
<polygon fill="blue" stroke="blue" points="2036.1,-39.82 2044.41,-33.25 2033.81,-33.21 2036.1,-39.82"/>
<text text-anchor="middle" x="2024.7" y="-57.8" font-family="Times,serif" font-size="14.00">has attribute</text>
</g>
<!-- named thing_category -->
<g id="node15" class="node">
<title>named thing_category</title>
<ellipse fill="none" stroke="blue" cx="1205.7" cy="-105" rx="74.99" ry="18"/>
<text text-anchor="middle" x="1205.7" y="-101.3" font-family="Times,serif" font-size="14.00">category type</text>
</g>
<!-- organismal entity_has attribute -->
<g id="node19" class="node">
<title>organismal entity_has attribute</title>
<ellipse fill="none" stroke="blue" cx="1350.7" cy="-105" rx="51.99" ry="18"/>
<text text-anchor="middle" x="1350.7" y="-101.3" font-family="Times,serif" font-size="14.00">attribute</text>
</g>
</g>
</svg>
