<?xml version="1.0" encoding="UTF-8" standalone="no"?>
<!DOCTYPE svg PUBLIC "-//W3C//DTD SVG 1.1//EN"
 "http://www.w3.org/Graphics/SVG/1.1/DTD/svg11.dtd">
<!-- Generated by graphviz version 2.43.0 (0)
 -->
<!-- Title: %3 Pages: 1 -->
<svg width="1639pt" height="131pt"
 viewBox="0.00 0.00 1639.13 131.00" xmlns="http://www.w3.org/2000/svg" xmlns:xlink="http://www.w3.org/1999/xlink">
<g id="graph0" class="graph" transform="scale(1 1) rotate(0) translate(4 127)">
<title>%3</title>
<polygon fill="white" stroke="transparent" points="-4,4 -4,-127 1635.13,-127 1635.13,4 -4,4"/>
<!-- individual organism -->
<g id="node1" class="node">
<title>individual organism</title>
<ellipse fill="none" stroke="black" cx="823.94" cy="-105" rx="102.88" ry="18"/>
<text text-anchor="middle" x="823.94" y="-101.3" font-family="Times,serif" font-size="14.00">individual organism</text>
</g>
<!-- organismal entity -->
<g id="node2" class="node">
<title>organismal entity</title>
<ellipse fill="none" stroke="black" cx="92.94" cy="-18" rx="92.88" ry="18"/>
<text text-anchor="middle" x="92.94" y="-14.3" font-family="Times,serif" font-size="14.00">organismal entity</text>
</g>
<!-- individual organism&#45;&gt;organismal entity -->
<g id="edge1" class="edge">
<title>individual organism&#45;&gt;organismal entity</title>
<path fill="none" stroke="black" d="M729.67,-97.77C646.05,-91.83 520.66,-81.87 411.94,-69 315.06,-57.53 291.28,-51.35 194.94,-36 187,-34.73 178.72,-33.39 170.45,-32.04"/>
<polygon fill="black" stroke="black" points="170.84,-28.55 160.41,-30.38 169.7,-35.46 170.84,-28.55"/>
<text text-anchor="middle" x="425.94" y="-57.8" font-family="Times,serif" font-size="14.00">is_a</text>
</g>
<!-- thing with taxon -->
<g id="node3" class="node">
<title>thing with taxon</title>
<ellipse fill="none" stroke="black" cx="290.94" cy="-18" rx="87.18" ry="18"/>
<text text-anchor="middle" x="290.94" y="-14.3" font-family="Times,serif" font-size="14.00">thing with taxon</text>
</g>
<!-- individual organism&#45;&gt;thing with taxon -->
<g id="edge2" class="edge">
<title>individual organism&#45;&gt;thing with taxon</title>
<path fill="none" stroke="black" d="M734.19,-96.12C673.25,-90.18 590.97,-81 518.94,-69 462.89,-59.66 399.85,-45.56 354.28,-34.7"/>
<polygon fill="black" stroke="black" points="355.08,-31.3 344.54,-32.37 353.45,-38.1 355.08,-31.3"/>
<text text-anchor="middle" x="535.44" y="-57.8" font-family="Times,serif" font-size="14.00">uses</text>
</g>
<!-- id -->
<g id="node4" class="node">
<title>id</title>
<ellipse fill="none" stroke="blue" cx="433.94" cy="-18" rx="38.19" ry="18"/>
<text text-anchor="middle" x="433.94" y="-14.3" font-family="Times,serif" font-size="14.00">string</text>
</g>
<!-- individual organism&#45;&gt;id -->
<g id="edge3" class="edge">
<title>individual organism&#45;&gt;id</title>
<path fill="none" stroke="blue" d="M748.71,-92.7C678.85,-81.34 572.31,-61.83 481.94,-36 478.84,-35.11 475.65,-34.13 472.45,-33.11"/>
<polygon fill="blue" stroke="blue" points="473.54,-29.78 462.95,-29.92 471.32,-36.42 473.54,-29.78"/>
<text text-anchor="middle" x="619.94" y="-57.8" font-family="Times,serif" font-size="14.00">id</text>
</g>
<!-- iri -->
<g id="node5" class="node">
<title>iri</title>
<ellipse fill="none" stroke="blue" cx="534.94" cy="-18" rx="44.39" ry="18"/>
<text text-anchor="middle" x="534.94" y="-14.3" font-family="Times,serif" font-size="14.00">iri type</text>
</g>
<!-- individual organism&#45;&gt;iri -->
<g id="edge4" class="edge">
<title>individual organism&#45;&gt;iri</title>
<path fill="none" stroke="blue" d="M771.27,-89.48C748.94,-83.27 722.64,-75.87 698.94,-69 649.92,-54.78 637.73,-51 588.94,-36 585.45,-34.93 581.83,-33.81 578.2,-32.67"/>
<polygon fill="blue" stroke="blue" points="579.21,-29.32 568.62,-29.68 577.12,-36.01 579.21,-29.32"/>
<text text-anchor="middle" x="706.94" y="-57.8" font-family="Times,serif" font-size="14.00">iri</text>
</g>
<!-- type -->
<g id="node6" class="node">
<title>type</title>
<ellipse fill="none" stroke="blue" cx="635.94" cy="-18" rx="38.19" ry="18"/>
<text text-anchor="middle" x="635.94" y="-14.3" font-family="Times,serif" font-size="14.00">string</text>
</g>
<!-- individual organism&#45;&gt;type -->
<g id="edge5" class="edge">
<title>individual organism&#45;&gt;type</title>
<path fill="none" stroke="blue" d="M788.58,-88.01C755.28,-72.96 705.63,-50.51 672.07,-35.34"/>
<polygon fill="blue" stroke="blue" points="673.19,-32 662.64,-31.07 670.31,-38.38 673.19,-32"/>
<text text-anchor="middle" x="757.94" y="-57.8" font-family="Times,serif" font-size="14.00">type</text>
</g>
<!-- name -->
<g id="node7" class="node">
<title>name</title>
<ellipse fill="none" stroke="blue" cx="748.94" cy="-18" rx="56.59" ry="18"/>
<text text-anchor="middle" x="748.94" y="-14.3" font-family="Times,serif" font-size="14.00">label type</text>
</g>
<!-- individual organism&#45;&gt;name -->
<g id="edge6" class="edge">
<title>individual organism&#45;&gt;name</title>
<path fill="none" stroke="blue" d="M808.76,-86.8C797.74,-74.31 782.68,-57.24 770.42,-43.35"/>
<polygon fill="blue" stroke="blue" points="772.83,-40.78 763.59,-35.6 767.58,-45.41 772.83,-40.78"/>
<text text-anchor="middle" x="810.94" y="-57.8" font-family="Times,serif" font-size="14.00">name</text>
</g>
<!-- description -->
<g id="node8" class="node">
<title>description</title>
<ellipse fill="none" stroke="blue" cx="898.94" cy="-18" rx="75.29" ry="18"/>
<text text-anchor="middle" x="898.94" y="-14.3" font-family="Times,serif" font-size="14.00">narrative text</text>
</g>
<!-- individual organism&#45;&gt;description -->
<g id="edge7" class="edge">
<title>individual organism&#45;&gt;description</title>
<path fill="none" stroke="blue" d="M839.12,-86.8C850.07,-74.39 865.01,-57.46 877.22,-43.62"/>
<polygon fill="blue" stroke="blue" points="880.05,-45.7 884.04,-35.89 874.8,-41.07 880.05,-45.7"/>
<text text-anchor="middle" x="906.44" y="-57.8" font-family="Times,serif" font-size="14.00">description</text>
</g>
<!-- source -->
<g id="node9" class="node">
<title>source</title>
<ellipse fill="none" stroke="blue" cx="1030.94" cy="-18" rx="38.19" ry="18"/>
<text text-anchor="middle" x="1030.94" y="-14.3" font-family="Times,serif" font-size="14.00">string</text>
</g>
<!-- individual organism&#45;&gt;source -->
<g id="edge8" class="edge">
<title>individual organism&#45;&gt;source</title>
<path fill="none" stroke="blue" d="M886.23,-90.67C907.24,-85.18 930.52,-77.97 950.94,-69 969.12,-61.02 988.02,-49.39 1002.88,-39.35"/>
<polygon fill="blue" stroke="blue" points="1004.88,-42.22 1011.13,-33.66 1000.91,-36.46 1004.88,-42.22"/>
<text text-anchor="middle" x="1002.94" y="-57.8" font-family="Times,serif" font-size="14.00">source</text>
</g>
<!-- provided by -->
<g id="node10" class="node">
<title>provided by</title>
<ellipse fill="none" stroke="blue" cx="1125.94" cy="-18" rx="38.19" ry="18"/>
<text text-anchor="middle" x="1125.94" y="-14.3" font-family="Times,serif" font-size="14.00">string</text>
</g>
<!-- individual organism&#45;&gt;provided by -->
<g id="edge9" class="edge">
<title>individual organism&#45;&gt;provided by</title>
<path fill="none" stroke="blue" d="M898.5,-92.57C952.56,-84.08 1018.32,-73.27 1030.94,-69 1053.5,-61.38 1077.19,-48.91 1095.28,-38.34"/>
<polygon fill="blue" stroke="blue" points="1097.4,-41.15 1104.19,-33.01 1093.81,-35.14 1097.4,-41.15"/>
<text text-anchor="middle" x="1109.44" y="-57.8" font-family="Times,serif" font-size="14.00">provided by</text>
</g>
<!-- category -->
<g id="node11" class="node">
<title>category</title>
<ellipse fill="none" stroke="black" cx="1233.94" cy="-18" rx="51.19" ry="18"/>
<text text-anchor="middle" x="1233.94" y="-14.3" font-family="Times,serif" font-size="14.00">category</text>
</g>
<!-- individual organism&#45;&gt;category -->
<g id="edge10" class="edge">
<title>individual organism&#45;&gt;category</title>
<path fill="none" stroke="blue" d="M896.39,-92.15C909.21,-90.27 922.45,-88.46 934.94,-87 1032.82,-75.53 1062.57,-100.53 1155.94,-69 1174.24,-62.82 1192.53,-51.44 1206.8,-41.09"/>
<polygon fill="blue" stroke="blue" points="1209.23,-43.64 1215.13,-34.84 1205.03,-38.05 1209.23,-43.64"/>
<text text-anchor="middle" x="1217.44" y="-57.8" font-family="Times,serif" font-size="14.00">category</text>
</g>
<!-- has attribute -->
<g id="node13" class="node">
<title>has attribute</title>
<ellipse fill="none" stroke="black" cx="1374.94" cy="-18" rx="71.49" ry="18"/>
<text text-anchor="middle" x="1374.94" y="-14.3" font-family="Times,serif" font-size="14.00">has attribute</text>
</g>
<!-- individual organism&#45;&gt;has attribute -->
<g id="edge11" class="edge">
<title>individual organism&#45;&gt;has attribute</title>
<path fill="none" stroke="blue" d="M895.46,-92.02C908.57,-90.12 922.14,-88.34 934.94,-87 1075.73,-72.27 1114.88,-100.27 1252.94,-69 1281.79,-62.47 1312.59,-49.79 1336.03,-38.84"/>
<polygon fill="blue" stroke="blue" points="1337.75,-41.9 1345.27,-34.43 1334.74,-35.58 1337.75,-41.9"/>
<text text-anchor="middle" x="1344.94" y="-57.8" font-family="Times,serif" font-size="14.00">has attribute</text>
</g>
<!-- in taxon -->
<g id="node15" class="node">
<title>in taxon</title>
<ellipse fill="none" stroke="blue" cx="1547.94" cy="-18" rx="83.39" ry="18"/>
<text text-anchor="middle" x="1547.94" y="-14.3" font-family="Times,serif" font-size="14.00">organism taxon</text>
</g>
<!-- individual organism&#45;&gt;in taxon -->
<g id="edge12" class="edge">
<title>individual organism&#45;&gt;in taxon</title>
<path fill="none" stroke="blue" d="M894.85,-91.92C908.14,-90 921.94,-88.25 934.94,-87 1139.05,-67.45 1194.15,-105.39 1395.94,-69 1432.29,-62.44 1471.89,-49.21 1501.55,-38"/>
<polygon fill="blue" stroke="blue" points="1503.13,-41.15 1511.21,-34.29 1500.62,-34.61 1503.13,-41.15"/>
<text text-anchor="middle" x="1479.94" y="-57.8" font-family="Times,serif" font-size="14.00">in taxon</text>
</g>
<!-- named thing_category -->
<g id="node12" class="node">
<title>named thing_category</title>
<ellipse fill="none" stroke="blue" cx="1018.94" cy="-105" rx="74.99" ry="18"/>
<text text-anchor="middle" x="1018.94" y="-101.3" font-family="Times,serif" font-size="14.00">category type</text>
</g>
<!-- organismal entity_has attribute -->
<g id="node14" class="node">
<title>organismal entity_has attribute</title>
<ellipse fill="none" stroke="blue" cx="1163.94" cy="-105" rx="51.99" ry="18"/>
<text text-anchor="middle" x="1163.94" y="-101.3" font-family="Times,serif" font-size="14.00">attribute</text>
</g>
</g>
</svg>
