<?xml version="1.0" encoding="UTF-8" standalone="no"?>
<!DOCTYPE svg PUBLIC "-//W3C//DTD SVG 1.1//EN"
 "http://www.w3.org/Graphics/SVG/1.1/DTD/svg11.dtd">
<!-- Generated by graphviz version 2.43.0 (0)
 -->
<!-- Title: %3 Pages: 1 -->
<svg width="1675pt" height="131pt"
 viewBox="0.00 0.00 1674.74 131.00" xmlns="http://www.w3.org/2000/svg" xmlns:xlink="http://www.w3.org/1999/xlink">
<g id="graph0" class="graph" transform="scale(1 1) rotate(0) translate(4 127)">
<title>%3</title>
<polygon fill="white" stroke="transparent" points="-4,4 -4,-127 1670.74,-127 1670.74,4 -4,4"/>
<!-- information content entity -->
<g id="node1" class="node">
<title>information content entity</title>
<ellipse fill="none" stroke="black" cx="891.54" cy="-105" rx="133.48" ry="18"/>
<text text-anchor="middle" x="891.54" y="-101.3" font-family="Times,serif" font-size="14.00">information content entity</text>
</g>
<!-- named thing -->
<g id="node2" class="node">
<title>named thing</title>
<ellipse fill="none" stroke="black" cx="69.54" cy="-18" rx="69.59" ry="18"/>
<text text-anchor="middle" x="69.54" y="-14.3" font-family="Times,serif" font-size="14.00">named thing</text>
</g>
<!-- information content entity&#45;&gt;named thing -->
<g id="edge1" class="edge">
<title>information content entity&#45;&gt;named thing</title>
<path fill="none" stroke="black" d="M759.09,-103.04C635.08,-100.57 444.91,-92.77 281.54,-69 227.33,-61.11 166.57,-46.14 124.05,-34.62"/>
<polygon fill="black" stroke="black" points="124.75,-31.19 114.19,-31.93 122.91,-37.94 124.75,-31.19"/>
<text text-anchor="middle" x="295.54" y="-57.8" font-family="Times,serif" font-size="14.00">is_a</text>
</g>
<!-- id -->
<g id="node3" class="node">
<title>id</title>
<ellipse fill="none" stroke="blue" cx="195.54" cy="-18" rx="38.19" ry="18"/>
<text text-anchor="middle" x="195.54" y="-14.3" font-family="Times,serif" font-size="14.00">string</text>
</g>
<!-- information content entity&#45;&gt;id -->
<g id="edge2" class="edge">
<title>information content entity&#45;&gt;id</title>
<path fill="none" stroke="blue" d="M764.14,-99.67C664.73,-95.15 523.37,-86.2 400.54,-69 329.93,-59.11 312.19,-55.28 243.54,-36 240.44,-35.13 237.24,-34.16 234.04,-33.14"/>
<polygon fill="blue" stroke="blue" points="235.13,-29.81 224.54,-29.97 232.91,-36.45 235.13,-29.81"/>
<text text-anchor="middle" x="407.54" y="-57.8" font-family="Times,serif" font-size="14.00">id</text>
</g>
<!-- iri -->
<g id="node4" class="node">
<title>iri</title>
<ellipse fill="none" stroke="blue" cx="296.54" cy="-18" rx="44.39" ry="18"/>
<text text-anchor="middle" x="296.54" y="-14.3" font-family="Times,serif" font-size="14.00">iri type</text>
</g>
<!-- information content entity&#45;&gt;iri -->
<g id="edge3" class="edge">
<title>information content entity&#45;&gt;iri</title>
<path fill="none" stroke="blue" d="M768.07,-98.11C687.78,-93.1 581,-84.22 487.54,-69 435.99,-60.61 378.14,-44.49 339.75,-32.82"/>
<polygon fill="blue" stroke="blue" points="340.53,-29.4 329.94,-29.8 338.47,-36.09 340.53,-29.4"/>
<text text-anchor="middle" x="495.54" y="-57.8" font-family="Times,serif" font-size="14.00">iri</text>
</g>
<!-- type -->
<g id="node5" class="node">
<title>type</title>
<ellipse fill="none" stroke="blue" cx="397.54" cy="-18" rx="38.19" ry="18"/>
<text text-anchor="middle" x="397.54" y="-14.3" font-family="Times,serif" font-size="14.00">string</text>
</g>
<!-- information content entity&#45;&gt;type -->
<g id="edge4" class="edge">
<title>information content entity&#45;&gt;type</title>
<path fill="none" stroke="blue" d="M780.59,-94.94C721.02,-89.21 646.49,-80.66 580.54,-69 519.3,-58.17 504.1,-53.94 444.54,-36 441.78,-35.17 438.94,-34.26 436.09,-33.32"/>
<polygon fill="blue" stroke="blue" points="437.06,-29.95 426.46,-30.02 434.78,-36.57 437.06,-29.95"/>
<text text-anchor="middle" x="596.54" y="-57.8" font-family="Times,serif" font-size="14.00">type</text>
</g>
<!-- name -->
<g id="node6" class="node">
<title>name</title>
<ellipse fill="none" stroke="blue" cx="510.54" cy="-18" rx="56.59" ry="18"/>
<text text-anchor="middle" x="510.54" y="-14.3" font-family="Times,serif" font-size="14.00">label type</text>
</g>
<!-- information content entity&#45;&gt;name -->
<g id="edge5" class="edge">
<title>information content entity&#45;&gt;name</title>
<path fill="none" stroke="blue" d="M796.53,-92.31C756.72,-86.58 710.12,-78.78 668.54,-69 630,-59.93 587.25,-46.17 555.94,-35.37"/>
<polygon fill="blue" stroke="blue" points="556.79,-31.96 546.2,-31.98 554.49,-38.57 556.79,-31.96"/>
<text text-anchor="middle" x="688.54" y="-57.8" font-family="Times,serif" font-size="14.00">name</text>
</g>
<!-- description -->
<g id="node7" class="node">
<title>description</title>
<ellipse fill="none" stroke="blue" cx="660.54" cy="-18" rx="75.29" ry="18"/>
<text text-anchor="middle" x="660.54" y="-14.3" font-family="Times,serif" font-size="14.00">narrative text</text>
</g>
<!-- information content entity&#45;&gt;description -->
<g id="edge6" class="edge">
<title>information content entity&#45;&gt;description</title>
<path fill="none" stroke="blue" d="M810.67,-90.69C787.22,-85.42 761.91,-78.33 739.54,-69 722.3,-61.81 704.59,-50.97 690.32,-41.23"/>
<polygon fill="blue" stroke="blue" points="692.12,-38.21 681.92,-35.34 688.1,-43.94 692.12,-38.21"/>
<text text-anchor="middle" x="780.04" y="-57.8" font-family="Times,serif" font-size="14.00">description</text>
</g>
<!-- source -->
<g id="node8" class="node">
<title>source</title>
<ellipse fill="none" stroke="blue" cx="792.54" cy="-18" rx="38.19" ry="18"/>
<text text-anchor="middle" x="792.54" y="-14.3" font-family="Times,serif" font-size="14.00">string</text>
</g>
<!-- information content entity&#45;&gt;source -->
<g id="edge7" class="edge">
<title>information content entity&#45;&gt;source</title>
<path fill="none" stroke="blue" d="M864.26,-87.29C856.03,-81.83 847.17,-75.48 839.54,-69 830.23,-61.09 820.83,-51.48 812.92,-42.82"/>
<polygon fill="blue" stroke="blue" points="815.38,-40.32 806.1,-35.2 810.16,-44.99 815.38,-40.32"/>
<text text-anchor="middle" x="863.54" y="-57.8" font-family="Times,serif" font-size="14.00">source</text>
</g>
<!-- has attribute -->
<g id="node9" class="node">
<title>has attribute</title>
<ellipse fill="none" stroke="blue" cx="900.54" cy="-18" rx="51.99" ry="18"/>
<text text-anchor="middle" x="900.54" y="-14.3" font-family="Times,serif" font-size="14.00">attribute</text>
</g>
<!-- information content entity&#45;&gt;has attribute -->
<g id="edge8" class="edge">
<title>information content entity&#45;&gt;has attribute</title>
<path fill="none" stroke="blue" d="M891.02,-86.81C890.95,-77.14 891.21,-64.86 892.54,-54 892.87,-51.31 893.32,-48.52 893.84,-45.75"/>
<polygon fill="blue" stroke="blue" points="897.27,-46.48 895.93,-35.97 890.42,-45.01 897.27,-46.48"/>
<text text-anchor="middle" x="939.54" y="-57.8" font-family="Times,serif" font-size="14.00">has attribute</text>
</g>
<!-- provided by -->
<g id="node10" class="node">
<title>provided by</title>
<ellipse fill="none" stroke="blue" cx="1008.54" cy="-18" rx="38.19" ry="18"/>
<text text-anchor="middle" x="1008.54" y="-14.3" font-family="Times,serif" font-size="14.00">string</text>
</g>
<!-- information content entity&#45;&gt;provided by -->
<g id="edge9" class="edge">
<title>information content entity&#45;&gt;provided by</title>
<path fill="none" stroke="blue" d="M954.43,-88.98C966.1,-84.05 977.45,-77.55 986.54,-69 993.2,-62.74 997.96,-54.12 1001.31,-45.79"/>
<polygon fill="blue" stroke="blue" points="1004.63,-46.91 1004.62,-36.31 998.02,-44.6 1004.63,-46.91"/>
<text text-anchor="middle" x="1040.04" y="-57.8" font-family="Times,serif" font-size="14.00">provided by</text>
</g>
<!-- xref -->
<g id="node11" class="node">
<title>xref</title>
<ellipse fill="none" stroke="blue" cx="1122.54" cy="-18" rx="57.39" ry="18"/>
<text text-anchor="middle" x="1122.54" y="-14.3" font-family="Times,serif" font-size="14.00">uriorcurie</text>
</g>
<!-- information content entity&#45;&gt;xref -->
<g id="edge10" class="edge">
<title>information content entity&#45;&gt;xref</title>
<path fill="none" stroke="blue" d="M991.24,-93.06C1030.53,-87.32 1070.17,-79.31 1086.54,-69 1095.91,-63.1 1103.59,-53.8 1109.41,-44.81"/>
<polygon fill="blue" stroke="blue" points="1112.51,-46.45 1114.61,-36.06 1106.49,-42.87 1112.51,-46.45"/>
<text text-anchor="middle" x="1117.04" y="-57.8" font-family="Times,serif" font-size="14.00">xref</text>
</g>
<!-- category -->
<g id="node12" class="node">
<title>category</title>
<ellipse fill="none" stroke="black" cx="1249.54" cy="-18" rx="51.19" ry="18"/>
<text text-anchor="middle" x="1249.54" y="-14.3" font-family="Times,serif" font-size="14.00">category</text>
</g>
<!-- information content entity&#45;&gt;category -->
<g id="edge11" class="edge">
<title>information content entity&#45;&gt;category</title>
<path fill="none" stroke="blue" d="M989.34,-92.69C1044.84,-85.74 1108.49,-76.72 1135.54,-69 1162.34,-61.36 1191.06,-48.73 1212.97,-38.08"/>
<polygon fill="blue" stroke="blue" points="1214.81,-41.07 1222.22,-33.5 1211.7,-34.8 1214.81,-41.07"/>
<text text-anchor="middle" x="1209.04" y="-57.8" font-family="Times,serif" font-size="14.00">category</text>
</g>
<!-- license -->
<g id="node14" class="node">
<title>license</title>
<ellipse fill="none" stroke="blue" cx="1357.54" cy="-18" rx="38.19" ry="18"/>
<text text-anchor="middle" x="1357.54" y="-14.3" font-family="Times,serif" font-size="14.00">string</text>
</g>
<!-- information content entity&#45;&gt;license -->
<g id="edge12" class="edge">
<title>information content entity&#45;&gt;license</title>
<path fill="none" stroke="blue" d="M985.83,-92.26C1001.74,-90.4 1018.11,-88.58 1033.54,-87 1127.17,-77.4 1153.37,-92.36 1244.54,-69 1272.73,-61.78 1302.77,-48.17 1324.78,-36.98"/>
<polygon fill="blue" stroke="blue" points="1326.43,-40.06 1333.7,-32.35 1323.21,-33.85 1326.43,-40.06"/>
<text text-anchor="middle" x="1311.54" y="-57.8" font-family="Times,serif" font-size="14.00">license</text>
</g>
<!-- rights -->
<g id="node15" class="node">
<title>rights</title>
<ellipse fill="none" stroke="blue" cx="1452.54" cy="-18" rx="38.19" ry="18"/>
<text text-anchor="middle" x="1452.54" y="-14.3" font-family="Times,serif" font-size="14.00">string</text>
</g>
<!-- information content entity&#45;&gt;rights -->
<g id="edge13" class="edge">
<title>information content entity&#45;&gt;rights</title>
<path fill="none" stroke="blue" d="M984.65,-92.04C1000.93,-90.18 1017.72,-88.41 1033.54,-87 1169.68,-74.87 1207.76,-101.39 1340.54,-69 1368.48,-62.19 1398.1,-48.65 1419.86,-37.38"/>
<polygon fill="blue" stroke="blue" points="1421.77,-40.33 1428.97,-32.56 1418.5,-34.14 1421.77,-40.33"/>
<text text-anchor="middle" x="1404.04" y="-57.8" font-family="Times,serif" font-size="14.00">rights</text>
</g>
<!-- format -->
<g id="node16" class="node">
<title>format</title>
<ellipse fill="none" stroke="blue" cx="1547.54" cy="-18" rx="38.19" ry="18"/>
<text text-anchor="middle" x="1547.54" y="-14.3" font-family="Times,serif" font-size="14.00">string</text>
</g>
<!-- information content entity&#45;&gt;format -->
<g id="edge14" class="edge">
<title>information content entity&#45;&gt;format</title>
<path fill="none" stroke="blue" d="M983.87,-91.95C1000.39,-90.08 1017.46,-88.33 1033.54,-87 1121.34,-79.76 1343.64,-88.49 1429.54,-69 1459.48,-62.21 1491.43,-48.21 1514.52,-36.75"/>
<polygon fill="blue" stroke="blue" points="1516.2,-39.82 1523.54,-32.18 1513.03,-33.58 1516.2,-39.82"/>
<text text-anchor="middle" x="1498.04" y="-57.8" font-family="Times,serif" font-size="14.00">format</text>
</g>
<!-- creation date -->
<g id="node17" class="node">
<title>creation date</title>
<ellipse fill="none" stroke="blue" cx="1635.54" cy="-18" rx="31.4" ry="18"/>
<text text-anchor="middle" x="1635.54" y="-14.3" font-family="Times,serif" font-size="14.00">date</text>
</g>
<!-- information content entity&#45;&gt;creation date -->
<g id="edge15" class="edge">
<title>information content entity&#45;&gt;creation date</title>
<path fill="none" stroke="blue" d="M983.1,-91.91C999.85,-90.02 1017.21,-88.27 1033.54,-87 1142.84,-78.48 1419.88,-94.34 1526.54,-69 1554.78,-62.29 1584.57,-48.07 1605.87,-36.5"/>
<polygon fill="blue" stroke="blue" points="1607.69,-39.49 1614.73,-31.57 1604.29,-33.37 1607.69,-39.49"/>
<text text-anchor="middle" x="1617.04" y="-57.8" font-family="Times,serif" font-size="14.00">creation date</text>
</g>
<!-- named thing_category -->
<g id="node13" class="node">
<title>named thing_category</title>
<ellipse fill="none" stroke="blue" cx="1117.54" cy="-105" rx="74.99" ry="18"/>
<text text-anchor="middle" x="1117.54" y="-101.3" font-family="Times,serif" font-size="14.00">category type</text>
</g>
</g>
</svg>
