<?xml version="1.0" encoding="UTF-8" standalone="no"?>
<!DOCTYPE svg PUBLIC "-//W3C//DTD SVG 1.1//EN"
 "http://www.w3.org/Graphics/SVG/1.1/DTD/svg11.dtd">
<!-- Generated by graphviz version 2.44.0 (20200408.0750)
 -->
<!-- Pages: 1 -->
<svg width="442pt" height="131pt"
 viewBox="0.00 0.00 441.74 131.00" xmlns="http://www.w3.org/2000/svg" xmlns:xlink="http://www.w3.org/1999/xlink">
<g id="graph0" class="graph" transform="scale(1 1) rotate(0) translate(4 127)">
<polygon fill="white" stroke="transparent" points="-4,4 -4,-127 437.74,-127 437.74,4 -4,4"/>
<!-- information content entity -->
<g id="node1" class="node">
<title>information content entity</title>
<ellipse fill="none" stroke="black" cx="206.25" cy="-105" rx="103.18" ry="18"/>
<text text-anchor="middle" x="206.25" y="-101.3" font-family="Times,serif" font-size="14.00">information content entity</text>
</g>
<!-- named thing -->
<g id="node2" class="node">
<title>named thing</title>
<ellipse fill="none" stroke="black" cx="55.25" cy="-18" rx="55.49" ry="18"/>
<text text-anchor="middle" x="55.25" y="-14.3" font-family="Times,serif" font-size="14.00">named thing</text>
</g>
<!-- information content entity&#45;&gt;named thing -->
<g id="edge1" class="edge">
<title>information content entity&#45;&gt;named thing</title>
<path fill="none" stroke="black" d="M177.13,-87.61C152.45,-73.72 116.96,-53.74 90.64,-38.92"/>
<polygon fill="black" stroke="black" points="92.17,-35.77 81.74,-33.92 88.74,-41.87 92.17,-35.77"/>
<text text-anchor="middle" x="151.25" y="-57.8" font-family="Times,serif" font-size="14.00">is_a</text>
</g>
<!-- id -->
<g id="node3" class="node">
<title>id</title>
<ellipse fill="none" stroke="blue" cx="159.25" cy="-18" rx="30.59" ry="18"/>
<text text-anchor="middle" x="159.25" y="-14.3" font-family="Times,serif" font-size="14.00">string</text>
</g>
<!-- information content entity&#45;&gt;id -->
<g id="edge2" class="edge">
<title>information content entity&#45;&gt;id</title>
<path fill="none" stroke="blue" d="M196.73,-86.8C189.98,-74.58 180.8,-57.98 173.21,-44.26"/>
<polygon fill="blue" stroke="blue" points="176.17,-42.37 168.26,-35.31 170.04,-45.76 176.17,-42.37"/>
<text text-anchor="middle" x="191.75" y="-57.8" font-family="Times,serif" font-size="14.00">id</text>
</g>
<!-- name -->
<g id="node4" class="node">
<title>name</title>
<ellipse fill="none" stroke="blue" cx="253.25" cy="-18" rx="45.49" ry="18"/>
<text text-anchor="middle" x="253.25" y="-14.3" font-family="Times,serif" font-size="14.00">label type</text>
</g>
<!-- information content entity&#45;&gt;name -->
<g id="edge3" class="edge">
<title>information content entity&#45;&gt;name</title>
<path fill="none" stroke="blue" d="M215.76,-86.8C222.43,-74.74 231.46,-58.4 238.98,-44.79"/>
<polygon fill="blue" stroke="blue" points="242.13,-46.33 243.91,-35.89 236.01,-42.94 242.13,-46.33"/>
<text text-anchor="middle" x="248.75" y="-57.8" font-family="Times,serif" font-size="14.00">name</text>
</g>
<!-- category -->
<g id="node5" class="node">
<title>category</title>
<ellipse fill="none" stroke="blue" cx="375.25" cy="-18" rx="58.49" ry="18"/>
<text text-anchor="middle" x="375.25" y="-14.3" font-family="Times,serif" font-size="14.00">category type</text>
</g>
<!-- information content entity&#45;&gt;category -->
<g id="edge4" class="edge">
<title>information content entity&#45;&gt;category</title>
<path fill="none" stroke="blue" d="M238.43,-87.81C266.43,-73.73 307.06,-53.29 336.77,-38.35"/>
<polygon fill="blue" stroke="blue" points="338.64,-41.33 346,-33.71 335.5,-35.07 338.64,-41.33"/>
<text text-anchor="middle" x="324.75" y="-57.8" font-family="Times,serif" font-size="14.00">category</text>
</g>
</g>
</svg>
