<?xml version="1.0" encoding="UTF-8" standalone="no"?>
<!DOCTYPE svg PUBLIC "-//W3C//DTD SVG 1.1//EN"
 "http://www.w3.org/Graphics/SVG/1.1/DTD/svg11.dtd">
<!-- Generated by graphviz version 2.43.0 (0)
 -->
<!-- Title: %3 Pages: 1 -->
<svg width="1711pt" height="131pt"
 viewBox="0.00 0.00 1710.74 131.00" xmlns="http://www.w3.org/2000/svg" xmlns:xlink="http://www.w3.org/1999/xlink">
<g id="graph0" class="graph" transform="scale(1 1) rotate(0) translate(4 127)">
<title>%3</title>
<polygon fill="white" stroke="transparent" points="-4,4 -4,-127 1706.74,-127 1706.74,4 -4,4"/>
<!-- information content entity -->
<g id="node1" class="node">
<title>information content entity</title>
<ellipse fill="none" stroke="black" cx="919.54" cy="-105" rx="133.48" ry="18"/>
<text text-anchor="middle" x="919.54" y="-101.3" font-family="Times,serif" font-size="14.00">information content entity</text>
</g>
<!-- named thing -->
<g id="node2" class="node">
<title>named thing</title>
<ellipse fill="none" stroke="black" cx="69.54" cy="-18" rx="69.59" ry="18"/>
<text text-anchor="middle" x="69.54" y="-14.3" font-family="Times,serif" font-size="14.00">named thing</text>
</g>
<!-- information content entity&#45;&gt;named thing -->
<g id="edge1" class="edge">
<title>information content entity&#45;&gt;named thing</title>
<path fill="none" stroke="black" d="M786.6,-103.53C657.07,-101.47 454.88,-93.99 281.54,-69 227.32,-61.18 166.56,-46.2 124.04,-34.66"/>
<polygon fill="black" stroke="black" points="124.75,-31.23 114.18,-31.96 122.9,-37.98 124.75,-31.23"/>
<text text-anchor="middle" x="295.54" y="-57.8" font-family="Times,serif" font-size="14.00">is_a</text>
</g>
<!-- id -->
<g id="node3" class="node">
<title>id</title>
<ellipse fill="none" stroke="blue" cx="195.54" cy="-18" rx="38.19" ry="18"/>
<text text-anchor="middle" x="195.54" y="-14.3" font-family="Times,serif" font-size="14.00">string</text>
</g>
<!-- information content entity&#45;&gt;id -->
<g id="edge2" class="edge">
<title>information content entity&#45;&gt;id</title>
<path fill="none" stroke="blue" d="M790.8,-100.32C685.46,-96.11 532.83,-87.27 400.54,-69 329.91,-59.24 312.19,-55.28 243.54,-36 240.44,-35.13 237.24,-34.16 234.04,-33.14"/>
<polygon fill="blue" stroke="blue" points="235.13,-29.81 224.54,-29.97 232.91,-36.45 235.13,-29.81"/>
<text text-anchor="middle" x="407.54" y="-57.8" font-family="Times,serif" font-size="14.00">id</text>
</g>
<!-- iri -->
<g id="node4" class="node">
<title>iri</title>
<ellipse fill="none" stroke="blue" cx="296.54" cy="-18" rx="44.39" ry="18"/>
<text text-anchor="middle" x="296.54" y="-14.3" font-family="Times,serif" font-size="14.00">iri type</text>
</g>
<!-- information content entity&#45;&gt;iri -->
<g id="edge3" class="edge">
<title>information content entity&#45;&gt;iri</title>
<path fill="none" stroke="blue" d="M793.39,-99.05C706.67,-94.36 589.12,-85.48 486.54,-69 435.38,-60.78 378.03,-44.7 339.85,-33"/>
<polygon fill="blue" stroke="blue" points="340.68,-29.59 330.09,-29.97 338.61,-36.27 340.68,-29.59"/>
<text text-anchor="middle" x="494.54" y="-57.8" font-family="Times,serif" font-size="14.00">iri</text>
</g>
<!-- type -->
<g id="node5" class="node">
<title>type</title>
<ellipse fill="none" stroke="blue" cx="397.54" cy="-18" rx="38.19" ry="18"/>
<text text-anchor="middle" x="397.54" y="-14.3" font-family="Times,serif" font-size="14.00">string</text>
</g>
<!-- information content entity&#45;&gt;type -->
<g id="edge4" class="edge">
<title>information content entity&#45;&gt;type</title>
<path fill="none" stroke="blue" d="M801.68,-96.58C734.24,-91.22 648.25,-82.5 572.54,-69 514.71,-58.69 500.67,-53.34 444.54,-36 441.78,-35.15 438.95,-34.23 436.1,-33.28"/>
<polygon fill="blue" stroke="blue" points="437.08,-29.91 426.48,-29.95 434.79,-36.53 437.08,-29.91"/>
<text text-anchor="middle" x="588.54" y="-57.8" font-family="Times,serif" font-size="14.00">type</text>
</g>
<!-- name -->
<g id="node6" class="node">
<title>name</title>
<ellipse fill="none" stroke="blue" cx="510.54" cy="-18" rx="56.59" ry="18"/>
<text text-anchor="middle" x="510.54" y="-14.3" font-family="Times,serif" font-size="14.00">label type</text>
</g>
<!-- information content entity&#45;&gt;name -->
<g id="edge5" class="edge">
<title>information content entity&#45;&gt;name</title>
<path fill="none" stroke="blue" d="M811.18,-94.45C763.38,-88.99 706.76,-80.82 656.54,-69 621.05,-60.65 582.02,-47.04 553.26,-36.13"/>
<polygon fill="blue" stroke="blue" points="554.51,-32.86 543.91,-32.54 552,-39.4 554.51,-32.86"/>
<text text-anchor="middle" x="676.54" y="-57.8" font-family="Times,serif" font-size="14.00">name</text>
</g>
<!-- description -->
<g id="node7" class="node">
<title>description</title>
<ellipse fill="none" stroke="blue" cx="660.54" cy="-18" rx="75.29" ry="18"/>
<text text-anchor="middle" x="660.54" y="-14.3" font-family="Times,serif" font-size="14.00">narrative text</text>
</g>
<!-- information content entity&#45;&gt;description -->
<g id="edge6" class="edge">
<title>information content entity&#45;&gt;description</title>
<path fill="none" stroke="blue" d="M813.12,-94.15C783.89,-88.97 752.77,-81.06 725.54,-69 710.98,-62.55 696.74,-52.19 685.31,-42.57"/>
<polygon fill="blue" stroke="blue" points="687.36,-39.71 677.53,-35.76 682.75,-44.98 687.36,-39.71"/>
<text text-anchor="middle" x="766.04" y="-57.8" font-family="Times,serif" font-size="14.00">description</text>
</g>
<!-- has attribute -->
<g id="node8" class="node">
<title>has attribute</title>
<ellipse fill="none" stroke="blue" cx="805.54" cy="-18" rx="51.99" ry="18"/>
<text text-anchor="middle" x="805.54" y="-14.3" font-family="Times,serif" font-size="14.00">attribute</text>
</g>
<!-- information content entity&#45;&gt;has attribute -->
<g id="edge7" class="edge">
<title>information content entity&#45;&gt;has attribute</title>
<path fill="none" stroke="blue" d="M848.96,-89.65C837.59,-84.68 826.85,-78 818.54,-69 812.81,-62.79 809.54,-54.38 807.69,-46.23"/>
<polygon fill="blue" stroke="blue" points="811.12,-45.52 806.03,-36.23 804.21,-46.67 811.12,-45.52"/>
<text text-anchor="middle" x="865.54" y="-57.8" font-family="Times,serif" font-size="14.00">has attribute</text>
</g>
<!-- provided by -->
<g id="node9" class="node">
<title>provided by</title>
<ellipse fill="none" stroke="blue" cx="913.54" cy="-18" rx="38.19" ry="18"/>
<text text-anchor="middle" x="913.54" y="-14.3" font-family="Times,serif" font-size="14.00">string</text>
</g>
<!-- information content entity&#45;&gt;provided by -->
<g id="edge8" class="edge">
<title>information content entity&#45;&gt;provided by</title>
<path fill="none" stroke="blue" d="M918.33,-86.8C917.51,-75.16 916.41,-59.55 915.47,-46.24"/>
<polygon fill="blue" stroke="blue" points="918.95,-45.9 914.76,-36.18 911.97,-46.4 918.95,-45.9"/>
<text text-anchor="middle" x="960.04" y="-57.8" font-family="Times,serif" font-size="14.00">provided by</text>
</g>
<!-- xref -->
<g id="node10" class="node">
<title>xref</title>
<ellipse fill="none" stroke="blue" cx="1027.54" cy="-18" rx="57.39" ry="18"/>
<text text-anchor="middle" x="1027.54" y="-14.3" font-family="Times,serif" font-size="14.00">uriorcurie</text>
</g>
<!-- information content entity&#45;&gt;xref -->
<g id="edge9" class="edge">
<title>information content entity&#45;&gt;xref</title>
<path fill="none" stroke="blue" d="M975.62,-88.49C986.49,-83.57 997.11,-77.2 1005.54,-69 1012.09,-62.63 1016.83,-53.98 1020.19,-45.66"/>
<polygon fill="blue" stroke="blue" points="1023.5,-46.8 1023.52,-36.21 1016.89,-44.47 1023.5,-46.8"/>
<text text-anchor="middle" x="1031.04" y="-57.8" font-family="Times,serif" font-size="14.00">xref</text>
</g>
<!-- full name -->
<g id="node11" class="node">
<title>full name</title>
<ellipse fill="none" stroke="blue" cx="1159.54" cy="-18" rx="56.59" ry="18"/>
<text text-anchor="middle" x="1159.54" y="-14.3" font-family="Times,serif" font-size="14.00">label type</text>
</g>
<!-- information content entity&#45;&gt;full name -->
<g id="edge10" class="edge">
<title>information content entity&#45;&gt;full name</title>
<path fill="none" stroke="blue" d="M983,-89.14C1004.37,-83.54 1028.21,-76.66 1049.54,-69 1074.03,-60.21 1100.6,-48.2 1121.5,-38.16"/>
<polygon fill="blue" stroke="blue" points="1123.21,-41.22 1130.67,-33.7 1120.15,-34.92 1123.21,-41.22"/>
<text text-anchor="middle" x="1120.04" y="-57.8" font-family="Times,serif" font-size="14.00">full name</text>
</g>
<!-- category -->
<g id="node12" class="node">
<title>category</title>
<ellipse fill="none" stroke="black" cx="1285.54" cy="-18" rx="51.19" ry="18"/>
<text text-anchor="middle" x="1285.54" y="-14.3" font-family="Times,serif" font-size="14.00">category</text>
</g>
<!-- information content entity&#45;&gt;category -->
<g id="edge11" class="edge">
<title>information content entity&#45;&gt;category</title>
<path fill="none" stroke="blue" d="M1014.21,-92.29C1068.46,-85.15 1130.9,-76.07 1157.54,-69 1188.18,-60.88 1221.5,-47.72 1246.46,-36.94"/>
<polygon fill="blue" stroke="blue" points="1248.17,-40.01 1255.93,-32.79 1245.36,-33.59 1248.17,-40.01"/>
<text text-anchor="middle" x="1233.04" y="-57.8" font-family="Times,serif" font-size="14.00">category</text>
</g>
<!-- license -->
<g id="node14" class="node">
<title>license</title>
<ellipse fill="none" stroke="blue" cx="1393.54" cy="-18" rx="38.19" ry="18"/>
<text text-anchor="middle" x="1393.54" y="-14.3" font-family="Times,serif" font-size="14.00">string</text>
</g>
<!-- information content entity&#45;&gt;license -->
<g id="edge12" class="edge">
<title>information content entity&#45;&gt;license</title>
<path fill="none" stroke="blue" d="M1013.83,-92.28C1029.75,-90.42 1046.11,-88.59 1061.54,-87 1153.4,-77.51 1178.71,-90.38 1268.54,-69 1300.26,-61.45 1334.52,-47.29 1359.14,-35.95"/>
<polygon fill="blue" stroke="blue" points="1360.84,-39.03 1368.41,-31.61 1357.87,-32.69 1360.84,-39.03"/>
<text text-anchor="middle" x="1339.54" y="-57.8" font-family="Times,serif" font-size="14.00">license</text>
</g>
<!-- rights -->
<g id="node15" class="node">
<title>rights</title>
<ellipse fill="none" stroke="blue" cx="1488.54" cy="-18" rx="38.19" ry="18"/>
<text text-anchor="middle" x="1488.54" y="-14.3" font-family="Times,serif" font-size="14.00">string</text>
</g>
<!-- information content entity&#45;&gt;rights -->
<g id="edge13" class="edge">
<title>information content entity&#45;&gt;rights</title>
<path fill="none" stroke="blue" d="M1012.65,-92.04C1028.93,-90.18 1045.72,-88.41 1061.54,-87 1197.68,-74.87 1235.36,-99.72 1368.54,-69 1398.89,-62 1431.39,-48.02 1454.9,-36.62"/>
<polygon fill="blue" stroke="blue" points="1456.67,-39.65 1464.08,-32.08 1453.56,-33.37 1456.67,-39.65"/>
<text text-anchor="middle" x="1435.04" y="-57.8" font-family="Times,serif" font-size="14.00">rights</text>
</g>
<!-- format -->
<g id="node16" class="node">
<title>format</title>
<ellipse fill="none" stroke="blue" cx="1583.54" cy="-18" rx="38.19" ry="18"/>
<text text-anchor="middle" x="1583.54" y="-14.3" font-family="Times,serif" font-size="14.00">string</text>
</g>
<!-- information content entity&#45;&gt;format -->
<g id="edge14" class="edge">
<title>information content entity&#45;&gt;format</title>
<path fill="none" stroke="blue" d="M1011.87,-91.94C1028.39,-90.07 1045.46,-88.32 1061.54,-87 1150,-79.72 1373.84,-87.99 1460.54,-69 1491.95,-62.12 1525.65,-47.9 1549.82,-36.37"/>
<polygon fill="blue" stroke="blue" points="1551.45,-39.47 1558.91,-31.95 1548.39,-33.17 1551.45,-39.47"/>
<text text-anchor="middle" x="1531.04" y="-57.8" font-family="Times,serif" font-size="14.00">format</text>
</g>
<!-- creation date -->
<g id="node17" class="node">
<title>creation date</title>
<ellipse fill="none" stroke="blue" cx="1671.54" cy="-18" rx="31.4" ry="18"/>
<text text-anchor="middle" x="1671.54" y="-14.3" font-family="Times,serif" font-size="14.00">date</text>
</g>
<!-- information content entity&#45;&gt;creation date -->
<g id="edge15" class="edge">
<title>information content entity&#45;&gt;creation date</title>
<path fill="none" stroke="blue" d="M1011.1,-91.91C1027.85,-90.02 1045.21,-88.27 1061.54,-87 1171.95,-78.41 1451.67,-94.03 1559.54,-69 1588.77,-62.22 1619.74,-47.76 1641.69,-36.13"/>
<polygon fill="blue" stroke="blue" points="1643.39,-39.19 1650.52,-31.34 1640.06,-33.03 1643.39,-39.19"/>
<text text-anchor="middle" x="1651.04" y="-57.8" font-family="Times,serif" font-size="14.00">creation date</text>
</g>
<!-- named thing_category -->
<g id="node13" class="node">
<title>named thing_category</title>
<ellipse fill="none" stroke="blue" cx="1145.54" cy="-105" rx="74.99" ry="18"/>
<text text-anchor="middle" x="1145.54" y="-101.3" font-family="Times,serif" font-size="14.00">category type</text>
</g>
</g>
</svg>
