<?xml version="1.0" encoding="UTF-8" standalone="no"?>
<!DOCTYPE svg PUBLIC "-//W3C//DTD SVG 1.1//EN"
 "http://www.w3.org/Graphics/SVG/1.1/DTD/svg11.dtd">
<!-- Generated by graphviz version 2.43.0 (0)
 -->
<!-- Title: %3 Pages: 1 -->
<svg width="1842pt" height="131pt"
 viewBox="0.00 0.00 1841.74 131.00" xmlns="http://www.w3.org/2000/svg" xmlns:xlink="http://www.w3.org/1999/xlink">
<g id="graph0" class="graph" transform="scale(1 1) rotate(0) translate(4 127)">
<title>%3</title>
<polygon fill="white" stroke="transparent" points="-4,4 -4,-127 1837.74,-127 1837.74,4 -4,4"/>
<!-- information content entity -->
<g id="node1" class="node">
<title>information content entity</title>
<ellipse fill="none" stroke="black" cx="973.54" cy="-105" rx="133.48" ry="18"/>
<text text-anchor="middle" x="973.54" y="-101.3" font-family="Times,serif" font-size="14.00">information content entity</text>
</g>
<!-- named thing -->
<g id="node2" class="node">
<title>named thing</title>
<ellipse fill="none" stroke="black" cx="69.54" cy="-18" rx="69.59" ry="18"/>
<text text-anchor="middle" x="69.54" y="-14.3" font-family="Times,serif" font-size="14.00">named thing</text>
</g>
<!-- information content entity&#45;&gt;named thing -->
<g id="edge1" class="edge">
<title>information content entity&#45;&gt;named thing</title>
<path fill="none" stroke="black" d="M840.2,-104.39C700.35,-103.14 474.48,-96.4 281.54,-69 227.13,-61.27 166.16,-46.2 123.63,-34.62"/>
<polygon fill="black" stroke="black" points="124.33,-31.18 113.76,-31.9 122.48,-37.93 124.33,-31.18"/>
<text text-anchor="middle" x="295.54" y="-57.8" font-family="Times,serif" font-size="14.00">is_a</text>
</g>
<!-- id -->
<g id="node3" class="node">
<title>id</title>
<ellipse fill="none" stroke="blue" cx="195.54" cy="-18" rx="38.19" ry="18"/>
<text text-anchor="middle" x="195.54" y="-14.3" font-family="Times,serif" font-size="14.00">string</text>
</g>
<!-- information content entity&#45;&gt;id -->
<g id="edge2" class="edge">
<title>information content entity&#45;&gt;id</title>
<path fill="none" stroke="blue" d="M842.78,-101.51C726.09,-97.99 550.79,-89.49 399.54,-69 329.32,-59.48 311.76,-55.2 243.54,-36 240.44,-35.13 237.24,-34.15 234.04,-33.13"/>
<polygon fill="blue" stroke="blue" points="235.13,-29.81 224.54,-29.96 232.91,-36.45 235.13,-29.81"/>
<text text-anchor="middle" x="406.54" y="-57.8" font-family="Times,serif" font-size="14.00">id</text>
</g>
<!-- iri -->
<g id="node4" class="node">
<title>iri</title>
<ellipse fill="none" stroke="blue" cx="296.54" cy="-18" rx="44.39" ry="18"/>
<text text-anchor="middle" x="296.54" y="-14.3" font-family="Times,serif" font-size="14.00">iri type</text>
</g>
<!-- information content entity&#45;&gt;iri -->
<g id="edge3" class="edge">
<title>information content entity&#45;&gt;iri</title>
<path fill="none" stroke="blue" d="M844.18,-100.64C745.44,-96.65 606.27,-87.95 485.54,-69 434.6,-61.01 377.56,-44.89 339.6,-33.11"/>
<polygon fill="blue" stroke="blue" points="340.49,-29.72 329.9,-30.06 338.39,-36.4 340.49,-29.72"/>
<text text-anchor="middle" x="493.54" y="-57.8" font-family="Times,serif" font-size="14.00">iri</text>
</g>
<!-- type -->
<g id="node5" class="node">
<title>type</title>
<ellipse fill="none" stroke="blue" cx="397.54" cy="-18" rx="38.19" ry="18"/>
<text text-anchor="middle" x="397.54" y="-14.3" font-family="Times,serif" font-size="14.00">string</text>
</g>
<!-- information content entity&#45;&gt;type -->
<g id="edge4" class="edge">
<title>information content entity&#45;&gt;type</title>
<path fill="none" stroke="blue" d="M847.65,-98.98C766.85,-94.33 659.95,-85.51 566.54,-69 520.88,-60.93 470.06,-44.89 436.19,-33.15"/>
<polygon fill="blue" stroke="blue" points="437.27,-29.82 426.67,-29.81 434.95,-36.42 437.27,-29.82"/>
<text text-anchor="middle" x="582.54" y="-57.8" font-family="Times,serif" font-size="14.00">type</text>
</g>
<!-- name -->
<g id="node6" class="node">
<title>name</title>
<ellipse fill="none" stroke="blue" cx="510.54" cy="-18" rx="56.59" ry="18"/>
<text text-anchor="middle" x="510.54" y="-14.3" font-family="Times,serif" font-size="14.00">label type</text>
</g>
<!-- information content entity&#45;&gt;name -->
<g id="edge5" class="edge">
<title>information content entity&#45;&gt;name</title>
<path fill="none" stroke="blue" d="M853.2,-97.22C793.01,-92.21 719.36,-83.61 654.54,-69 619.56,-61.11 581.26,-47.56 552.96,-36.56"/>
<polygon fill="blue" stroke="blue" points="553.97,-33.2 543.39,-32.78 551.41,-39.71 553.97,-33.2"/>
<text text-anchor="middle" x="674.54" y="-57.8" font-family="Times,serif" font-size="14.00">name</text>
</g>
<!-- description -->
<g id="node7" class="node">
<title>description</title>
<ellipse fill="none" stroke="blue" cx="660.54" cy="-18" rx="75.29" ry="18"/>
<text text-anchor="middle" x="660.54" y="-14.3" font-family="Times,serif" font-size="14.00">narrative text</text>
</g>
<!-- information content entity&#45;&gt;description -->
<g id="edge6" class="edge">
<title>information content entity&#45;&gt;description</title>
<path fill="none" stroke="blue" d="M846.1,-99.59C805.36,-94.71 760.9,-85.61 722.54,-69 708.25,-62.81 694.53,-52.39 683.64,-42.65"/>
<polygon fill="blue" stroke="blue" points="685.95,-40.02 676.25,-35.76 681.18,-45.14 685.95,-40.02"/>
<text text-anchor="middle" x="763.04" y="-57.8" font-family="Times,serif" font-size="14.00">description</text>
</g>
<!-- has attribute -->
<g id="node8" class="node">
<title>has attribute</title>
<ellipse fill="none" stroke="blue" cx="805.54" cy="-18" rx="51.99" ry="18"/>
<text text-anchor="middle" x="805.54" y="-14.3" font-family="Times,serif" font-size="14.00">attribute</text>
</g>
<!-- information content entity&#45;&gt;has attribute -->
<g id="edge7" class="edge">
<title>information content entity&#45;&gt;has attribute</title>
<path fill="none" stroke="blue" d="M879.29,-92.19C850.75,-86.75 824.34,-79.18 814.54,-69 808.78,-63.01 806.04,-54.66 804.88,-46.49"/>
<polygon fill="blue" stroke="blue" points="808.37,-46.16 804.14,-36.44 801.38,-46.67 808.37,-46.16"/>
<text text-anchor="middle" x="861.54" y="-57.8" font-family="Times,serif" font-size="14.00">has attribute</text>
</g>
<!-- provided by -->
<g id="node9" class="node">
<title>provided by</title>
<ellipse fill="none" stroke="blue" cx="913.54" cy="-18" rx="38.19" ry="18"/>
<text text-anchor="middle" x="913.54" y="-14.3" font-family="Times,serif" font-size="14.00">string</text>
</g>
<!-- information content entity&#45;&gt;provided by -->
<g id="edge8" class="edge">
<title>information content entity&#45;&gt;provided by</title>
<path fill="none" stroke="blue" d="M935.36,-87.65C927.95,-82.73 921.08,-76.57 916.54,-69 912.55,-62.33 910.98,-54.23 910.62,-46.5"/>
<polygon fill="blue" stroke="blue" points="914.12,-46.42 910.78,-36.37 907.13,-46.31 914.12,-46.42"/>
<text text-anchor="middle" x="959.04" y="-57.8" font-family="Times,serif" font-size="14.00">provided by</text>
</g>
<!-- xref -->
<g id="node10" class="node">
<title>xref</title>
<ellipse fill="none" stroke="blue" cx="1027.54" cy="-18" rx="57.39" ry="18"/>
<text text-anchor="middle" x="1027.54" y="-14.3" font-family="Times,serif" font-size="14.00">uriorcurie</text>
</g>
<!-- information content entity&#45;&gt;xref -->
<g id="edge9" class="edge">
<title>information content entity&#45;&gt;xref</title>
<path fill="none" stroke="blue" d="M991.02,-87.12C996.11,-81.65 1001.41,-75.35 1005.54,-69 1010.28,-61.74 1014.43,-53.29 1017.82,-45.42"/>
<polygon fill="blue" stroke="blue" points="1021.17,-46.49 1021.69,-35.91 1014.68,-43.85 1021.17,-46.49"/>
<text text-anchor="middle" x="1029.04" y="-57.8" font-family="Times,serif" font-size="14.00">xref</text>
</g>
<!-- full name -->
<g id="node11" class="node">
<title>full name</title>
<ellipse fill="none" stroke="blue" cx="1159.54" cy="-18" rx="56.59" ry="18"/>
<text text-anchor="middle" x="1159.54" y="-14.3" font-family="Times,serif" font-size="14.00">label type</text>
</g>
<!-- information content entity&#45;&gt;full name -->
<g id="edge10" class="edge">
<title>information content entity&#45;&gt;full name</title>
<path fill="none" stroke="blue" d="M1009.41,-87.61C1040.82,-73.25 1086.45,-52.4 1119.15,-37.46"/>
<polygon fill="blue" stroke="blue" points="1120.78,-40.56 1128.42,-33.22 1117.87,-34.19 1120.78,-40.56"/>
<text text-anchor="middle" x="1112.04" y="-57.8" font-family="Times,serif" font-size="14.00">full name</text>
</g>
<!-- synonym -->
<g id="node12" class="node">
<title>synonym</title>
<ellipse fill="none" stroke="blue" cx="1290.54" cy="-18" rx="56.59" ry="18"/>
<text text-anchor="middle" x="1290.54" y="-14.3" font-family="Times,serif" font-size="14.00">label type</text>
</g>
<!-- information content entity&#45;&gt;synonym -->
<g id="edge11" class="edge">
<title>information content entity&#45;&gt;synonym</title>
<path fill="none" stroke="blue" d="M1053.84,-90.56C1084.07,-84.84 1118.61,-77.51 1149.54,-69 1182.92,-59.82 1219.76,-46.64 1247.42,-36.12"/>
<polygon fill="blue" stroke="blue" points="1248.71,-39.37 1256.79,-32.52 1246.2,-32.84 1248.71,-39.37"/>
<text text-anchor="middle" x="1229.54" y="-57.8" font-family="Times,serif" font-size="14.00">synonym</text>
</g>
<!-- category -->
<g id="node13" class="node">
<title>category</title>
<ellipse fill="none" stroke="black" cx="1416.54" cy="-18" rx="51.19" ry="18"/>
<text text-anchor="middle" x="1416.54" y="-14.3" font-family="Times,serif" font-size="14.00">category</text>
</g>
<!-- information content entity&#45;&gt;category -->
<g id="edge12" class="edge">
<title>information content entity&#45;&gt;category</title>
<path fill="none" stroke="blue" d="M1069.83,-92.47C1154.78,-82.3 1265.24,-69.07 1265.54,-69 1302.96,-60.65 1344.19,-46.66 1374.1,-35.59"/>
<polygon fill="blue" stroke="blue" points="1375.66,-38.75 1383.79,-31.97 1373.2,-32.19 1375.66,-38.75"/>
<text text-anchor="middle" x="1352.04" y="-57.8" font-family="Times,serif" font-size="14.00">category</text>
</g>
<!-- license -->
<g id="node15" class="node">
<title>license</title>
<ellipse fill="none" stroke="blue" cx="1524.54" cy="-18" rx="38.19" ry="18"/>
<text text-anchor="middle" x="1524.54" y="-14.3" font-family="Times,serif" font-size="14.00">string</text>
</g>
<!-- information content entity&#45;&gt;license -->
<g id="edge13" class="edge">
<title>information content entity&#45;&gt;license</title>
<path fill="none" stroke="blue" d="M1067.04,-92.09C1083.2,-90.24 1099.85,-88.46 1115.54,-87 1236.18,-75.8 1269,-94.02 1387.54,-69 1422.96,-61.53 1461.54,-46.81 1488.71,-35.27"/>
<polygon fill="blue" stroke="blue" points="1490.38,-38.36 1498.17,-31.18 1487.6,-31.93 1490.38,-38.36"/>
<text text-anchor="middle" x="1463.54" y="-57.8" font-family="Times,serif" font-size="14.00">license</text>
</g>
<!-- rights -->
<g id="node16" class="node">
<title>rights</title>
<ellipse fill="none" stroke="blue" cx="1619.54" cy="-18" rx="38.19" ry="18"/>
<text text-anchor="middle" x="1619.54" y="-14.3" font-family="Times,serif" font-size="14.00">string</text>
</g>
<!-- information content entity&#45;&gt;rights -->
<g id="edge14" class="edge">
<title>information content entity&#45;&gt;rights</title>
<path fill="none" stroke="blue" d="M1065.87,-91.98C1082.39,-90.1 1099.46,-88.34 1115.54,-87 1282.71,-73.02 1328.53,-104.2 1492.54,-69 1525.21,-61.99 1560.41,-47.54 1585.45,-35.96"/>
<polygon fill="blue" stroke="blue" points="1586.97,-39.12 1594.53,-31.69 1583.99,-32.78 1586.97,-39.12"/>
<text text-anchor="middle" x="1561.04" y="-57.8" font-family="Times,serif" font-size="14.00">rights</text>
</g>
<!-- format -->
<g id="node17" class="node">
<title>format</title>
<ellipse fill="none" stroke="blue" cx="1714.54" cy="-18" rx="38.19" ry="18"/>
<text text-anchor="middle" x="1714.54" y="-14.3" font-family="Times,serif" font-size="14.00">string</text>
</g>
<!-- information content entity&#45;&gt;format -->
<g id="edge15" class="edge">
<title>information content entity&#45;&gt;format</title>
<path fill="none" stroke="blue" d="M1065.48,-91.89C1082.12,-90.02 1099.33,-88.28 1115.54,-87 1219.96,-78.77 1484,-90.35 1586.54,-69 1619.47,-62.14 1654.96,-47.67 1680.19,-36.06"/>
<polygon fill="blue" stroke="blue" points="1681.77,-39.18 1689.33,-31.76 1678.79,-32.84 1681.77,-39.18"/>
<text text-anchor="middle" x="1662.04" y="-57.8" font-family="Times,serif" font-size="14.00">format</text>
</g>
<!-- creation date -->
<g id="node18" class="node">
<title>creation date</title>
<ellipse fill="none" stroke="blue" cx="1802.54" cy="-18" rx="31.4" ry="18"/>
<text text-anchor="middle" x="1802.54" y="-14.3" font-family="Times,serif" font-size="14.00">date</text>
</g>
<!-- information content entity&#45;&gt;creation date -->
<g id="edge16" class="edge">
<title>information content entity&#45;&gt;creation date</title>
<path fill="none" stroke="blue" d="M1065.09,-91.84C1081.85,-89.96 1099.2,-88.23 1115.54,-87 1243.02,-77.39 1565.94,-97.6 1690.54,-69 1719.78,-62.29 1750.76,-47.82 1772.7,-36.17"/>
<polygon fill="blue" stroke="blue" points="1774.41,-39.23 1781.53,-31.38 1771.07,-33.08 1774.41,-39.23"/>
<text text-anchor="middle" x="1782.04" y="-57.8" font-family="Times,serif" font-size="14.00">creation date</text>
</g>
<!-- named thing_category -->
<g id="node14" class="node">
<title>named thing_category</title>
<ellipse fill="none" stroke="blue" cx="1199.54" cy="-105" rx="74.99" ry="18"/>
<text text-anchor="middle" x="1199.54" y="-101.3" font-family="Times,serif" font-size="14.00">category type</text>
</g>
</g>
</svg>
