<?xml version="1.0" encoding="UTF-8" standalone="no"?>
<!DOCTYPE svg PUBLIC "-//W3C//DTD SVG 1.1//EN"
 "http://www.w3.org/Graphics/SVG/1.1/DTD/svg11.dtd">
<!-- Generated by graphviz version 2.44.1 (20200629.0846)
 -->
<!-- Pages: 1 -->
<svg width="1303pt" height="131pt"
 viewBox="0.00 0.00 1303.25 131.00" xmlns="http://www.w3.org/2000/svg" xmlns:xlink="http://www.w3.org/1999/xlink">
<g id="graph0" class="graph" transform="scale(1 1) rotate(0) translate(4 127)">
<polygon fill="white" stroke="transparent" points="-4,4 -4,-127 1299.25,-127 1299.25,4 -4,4"/>
<!-- information content entity -->
<g id="node1" class="node">
<title>information content entity</title>
<ellipse fill="none" stroke="black" cx="711.25" cy="-105" rx="103.18" ry="18"/>
<text text-anchor="middle" x="711.25" y="-101.3" font-family="Times,serif" font-size="14.00">information content entity</text>
</g>
<!-- named thing -->
<g id="node2" class="node">
<title>named thing</title>
<ellipse fill="none" stroke="black" cx="55.25" cy="-18" rx="55.49" ry="18"/>
<text text-anchor="middle" x="55.25" y="-14.3" font-family="Times,serif" font-size="14.00">named thing</text>
</g>
<!-- information content entity&#45;&gt;named thing -->
<g id="edge1" class="edge">
<title>information content entity&#45;&gt;named thing</title>
<path fill="none" stroke="black" d="M608.66,-102.49C511.16,-99.65 360.76,-91.61 232.25,-69 186.97,-61.04 136.64,-46.22 101.26,-34.77"/>
<polygon fill="black" stroke="black" points="102.29,-31.42 91.69,-31.64 100.11,-38.08 102.29,-31.42"/>
<text text-anchor="middle" x="243.25" y="-57.8" font-family="Times,serif" font-size="14.00">is_a</text>
</g>
<!-- id -->
<g id="node3" class="node">
<title>id</title>
<ellipse fill="none" stroke="blue" cx="159.25" cy="-18" rx="30.59" ry="18"/>
<text text-anchor="middle" x="159.25" y="-14.3" font-family="Times,serif" font-size="14.00">string</text>
</g>
<!-- information content entity&#45;&gt;id -->
<g id="edge2" class="edge">
<title>information content entity&#45;&gt;id</title>
<path fill="none" stroke="blue" d="M613.35,-99.03C536.51,-94.16 427.04,-85.04 332.25,-69 272.2,-58.84 257.01,-55.3 199.25,-36 196.87,-35.2 194.43,-34.33 191.99,-33.41"/>
<polygon fill="blue" stroke="blue" points="193.28,-30.15 182.7,-29.7 190.69,-36.66 193.28,-30.15"/>
<text text-anchor="middle" x="337.75" y="-57.8" font-family="Times,serif" font-size="14.00">id</text>
</g>
<!-- iri -->
<g id="node4" class="node">
<title>iri</title>
<ellipse fill="none" stroke="blue" cx="244.25" cy="-18" rx="36.29" ry="18"/>
<text text-anchor="middle" x="244.25" y="-14.3" font-family="Times,serif" font-size="14.00">iri type</text>
</g>
<!-- information content entity&#45;&gt;iri -->
<g id="edge3" class="edge">
<title>information content entity&#45;&gt;iri</title>
<path fill="none" stroke="blue" d="M618.49,-96.95C558.46,-91.48 478.8,-82.51 409.25,-69 354.95,-58.45 341.84,-53.13 289.25,-36 286.65,-35.16 283.99,-34.25 281.32,-33.32"/>
<polygon fill="blue" stroke="blue" points="282.3,-29.95 271.71,-29.84 279.92,-36.53 282.3,-29.95"/>
<text text-anchor="middle" x="415.75" y="-57.8" font-family="Times,serif" font-size="14.00">iri</text>
</g>
<!-- type -->
<g id="node5" class="node">
<title>type</title>
<ellipse fill="none" stroke="blue" cx="329.25" cy="-18" rx="30.59" ry="18"/>
<text text-anchor="middle" x="329.25" y="-14.3" font-family="Times,serif" font-size="14.00">string</text>
</g>
<!-- information content entity&#45;&gt;type -->
<g id="edge4" class="edge">
<title>information content entity&#45;&gt;type</title>
<path fill="none" stroke="blue" d="M630.47,-93.72C587.68,-87.69 534.36,-79.23 487.25,-69 434.03,-57.44 420.63,-54.02 369.25,-36 366.88,-35.17 364.45,-34.27 362.02,-33.33"/>
<polygon fill="blue" stroke="blue" points="363.32,-30.08 352.74,-29.58 360.7,-36.57 363.32,-30.08"/>
<text text-anchor="middle" x="499.25" y="-57.8" font-family="Times,serif" font-size="14.00">type</text>
</g>
<!-- name -->
<g id="node6" class="node">
<title>name</title>
<ellipse fill="none" stroke="blue" cx="423.25" cy="-18" rx="45.49" ry="18"/>
<text text-anchor="middle" x="423.25" y="-14.3" font-family="Times,serif" font-size="14.00">label type</text>
</g>
<!-- information content entity&#45;&gt;name -->
<g id="edge5" class="edge">
<title>information content entity&#45;&gt;name</title>
<path fill="none" stroke="blue" d="M646.87,-90.9C619.91,-84.94 588.36,-77.36 560.25,-69 527.17,-59.17 490.49,-45.64 463.42,-35.13"/>
<polygon fill="blue" stroke="blue" points="464.49,-31.79 453.9,-31.41 461.94,-38.31 464.49,-31.79"/>
<text text-anchor="middle" x="575.75" y="-57.8" font-family="Times,serif" font-size="14.00">name</text>
</g>
<!-- description -->
<g id="node7" class="node">
<title>description</title>
<ellipse fill="none" stroke="blue" cx="544.25" cy="-18" rx="57.69" ry="18"/>
<text text-anchor="middle" x="544.25" y="-14.3" font-family="Times,serif" font-size="14.00">narrative text</text>
</g>
<!-- information content entity&#45;&gt;description -->
<g id="edge6" class="edge">
<title>information content entity&#45;&gt;description</title>
<path fill="none" stroke="blue" d="M666.51,-88.67C651.81,-83.09 635.57,-76.34 621.25,-69 605.3,-60.83 588.52,-50.2 574.7,-40.84"/>
<polygon fill="blue" stroke="blue" points="576.31,-37.7 566.09,-34.91 572.34,-43.47 576.31,-37.7"/>
<text text-anchor="middle" x="651.75" y="-57.8" font-family="Times,serif" font-size="14.00">description</text>
</g>
<!-- source -->
<g id="node8" class="node">
<title>source</title>
<ellipse fill="none" stroke="blue" cx="665.25" cy="-18" rx="45.49" ry="18"/>
<text text-anchor="middle" x="665.25" y="-14.3" font-family="Times,serif" font-size="14.00">label type</text>
</g>
<!-- information content entity&#45;&gt;source -->
<g id="edge7" class="edge">
<title>information content entity&#45;&gt;source</title>
<path fill="none" stroke="blue" d="M701.94,-86.8C695.41,-74.74 686.57,-58.4 679.2,-44.79"/>
<polygon fill="blue" stroke="blue" points="682.22,-43.01 674.38,-35.89 676.06,-46.35 682.22,-43.01"/>
<text text-anchor="middle" x="709.25" y="-57.8" font-family="Times,serif" font-size="14.00">source</text>
</g>
<!-- provided by -->
<g id="node9" class="node">
<title>provided by</title>
<ellipse fill="none" stroke="blue" cx="758.25" cy="-18" rx="29.8" ry="18"/>
<text text-anchor="middle" x="758.25" y="-14.3" font-family="Times,serif" font-size="14.00">agent</text>
</g>
<!-- information content entity&#45;&gt;provided by -->
<g id="edge8" class="edge">
<title>information content entity&#45;&gt;provided by</title>
<path fill="none" stroke="blue" d="M721.09,-86.96C724.35,-81.26 727.98,-74.87 731.25,-69 735.72,-60.94 740.53,-52.11 744.83,-44.13"/>
<polygon fill="blue" stroke="blue" points="747.94,-45.73 749.59,-35.27 741.77,-42.42 747.94,-45.73"/>
<text text-anchor="middle" x="772.25" y="-57.8" font-family="Times,serif" font-size="14.00">provided by</text>
</g>
<!-- has attribute -->
<g id="node10" class="node">
<title>has attribute</title>
<ellipse fill="none" stroke="blue" cx="846.25" cy="-18" rx="40.09" ry="18"/>
<text text-anchor="middle" x="846.25" y="-14.3" font-family="Times,serif" font-size="14.00">attribute</text>
</g>
<!-- information content entity&#45;&gt;has attribute -->
<g id="edge9" class="edge">
<title>information content entity&#45;&gt;has attribute</title>
<path fill="none" stroke="blue" d="M768.27,-89.99C782.49,-84.84 797.13,-77.99 809.25,-69 818.09,-62.44 825.76,-53.17 831.79,-44.39"/>
<polygon fill="blue" stroke="blue" points="834.79,-46.19 837.25,-35.89 828.9,-42.41 834.79,-46.19"/>
<text text-anchor="middle" x="857.75" y="-57.8" font-family="Times,serif" font-size="14.00">has attribute</text>
</g>
<!-- category -->
<g id="node11" class="node">
<title>category</title>
<ellipse fill="none" stroke="black" cx="945.25" cy="-18" rx="40.89" ry="18"/>
<text text-anchor="middle" x="945.25" y="-14.3" font-family="Times,serif" font-size="14.00">category</text>
</g>
<!-- information content entity&#45;&gt;category -->
<g id="edge10" class="edge">
<title>information content entity&#45;&gt;category</title>
<path fill="none" stroke="blue" d="M784.15,-92.23C831.1,-84.29 885.19,-74.32 895.25,-69 907.11,-62.72 917.97,-52.68 926.51,-43.24"/>
<polygon fill="blue" stroke="blue" points="929.25,-45.41 933.11,-35.54 923.94,-40.85 929.25,-45.41"/>
<text text-anchor="middle" x="939.75" y="-57.8" font-family="Times,serif" font-size="14.00">category</text>
</g>
<!-- license -->
<g id="node13" class="node">
<title>license</title>
<ellipse fill="none" stroke="blue" cx="1034.25" cy="-18" rx="30.59" ry="18"/>
<text text-anchor="middle" x="1034.25" y="-14.3" font-family="Times,serif" font-size="14.00">string</text>
</g>
<!-- information content entity&#45;&gt;license -->
<g id="edge11" class="edge">
<title>information content entity&#45;&gt;license</title>
<path fill="none" stroke="blue" d="M785.97,-92.5C798.73,-90.61 811.86,-88.71 824.25,-87 887.7,-78.23 907.83,-92.95 967.25,-69 983.43,-62.48 999.2,-51.05 1011.36,-40.76"/>
<polygon fill="blue" stroke="blue" points="1013.97,-43.13 1019.17,-33.9 1009.35,-37.87 1013.97,-43.13"/>
<text text-anchor="middle" x="1012.25" y="-57.8" font-family="Times,serif" font-size="14.00">license</text>
</g>
<!-- rights -->
<g id="node14" class="node">
<title>rights</title>
<ellipse fill="none" stroke="blue" cx="1113.25" cy="-18" rx="30.59" ry="18"/>
<text text-anchor="middle" x="1113.25" y="-14.3" font-family="Times,serif" font-size="14.00">string</text>
</g>
<!-- information content entity&#45;&gt;rights -->
<g id="edge12" class="edge">
<title>information content entity&#45;&gt;rights</title>
<path fill="none" stroke="blue" d="M784.7,-92.25C797.85,-90.35 811.44,-88.51 824.25,-87 917.72,-75.99 946.13,-99.28 1035.25,-69 1054.6,-62.42 1073.95,-50.06 1088.54,-39.27"/>
<polygon fill="blue" stroke="blue" points="1090.72,-42.01 1096.55,-33.16 1086.48,-36.45 1090.72,-42.01"/>
<text text-anchor="middle" x="1080.75" y="-57.8" font-family="Times,serif" font-size="14.00">rights</text>
</g>
<!-- format -->
<g id="node15" class="node">
<title>format</title>
<ellipse fill="none" stroke="blue" cx="1192.25" cy="-18" rx="30.59" ry="18"/>
<text text-anchor="middle" x="1192.25" y="-14.3" font-family="Times,serif" font-size="14.00">string</text>
</g>
<!-- information content entity&#45;&gt;format -->
<g id="edge13" class="edge">
<title>information content entity&#45;&gt;format</title>
<path fill="none" stroke="blue" d="M783.77,-92.17C797.2,-90.24 811.13,-88.41 824.25,-87 946.47,-73.84 982.16,-103.15 1100.25,-69 1123.44,-62.29 1147.34,-49.08 1164.96,-37.92"/>
<polygon fill="blue" stroke="blue" points="1167.1,-40.71 1173.57,-32.32 1163.28,-34.84 1167.1,-40.71"/>
<text text-anchor="middle" x="1153.75" y="-57.8" font-family="Times,serif" font-size="14.00">format</text>
</g>
<!-- creation date -->
<g id="node16" class="node">
<title>creation date</title>
<ellipse fill="none" stroke="blue" cx="1268.25" cy="-18" rx="27" ry="18"/>
<text text-anchor="middle" x="1268.25" y="-14.3" font-family="Times,serif" font-size="14.00">date</text>
</g>
<!-- information content entity&#45;&gt;creation date -->
<g id="edge14" class="edge">
<title>information content entity&#45;&gt;creation date</title>
<path fill="none" stroke="blue" d="M783.45,-92.06C796.98,-90.13 811.02,-88.33 824.25,-87 902.18,-79.16 1100.85,-90.23 1176.25,-69 1199.94,-62.33 1224.3,-48.73 1242,-37.39"/>
<polygon fill="blue" stroke="blue" points="1244.19,-40.15 1250.61,-31.72 1240.34,-34.3 1244.19,-40.15"/>
<text text-anchor="middle" x="1245.25" y="-57.8" font-family="Times,serif" font-size="14.00">creation date</text>
</g>
<!-- named thing_category -->
<g id="node12" class="node">
<title>named thing_category</title>
<ellipse fill="none" stroke="blue" cx="888.25" cy="-105" rx="55.49" ry="18"/>
<text text-anchor="middle" x="888.25" y="-101.3" font-family="Times,serif" font-size="14.00">named thing</text>
</g>
</g>
</svg>
