<?xml version="1.0" encoding="UTF-8" standalone="no"?>
<!DOCTYPE svg PUBLIC "-//W3C//DTD SVG 1.1//EN"
 "http://www.w3.org/Graphics/SVG/1.1/DTD/svg11.dtd">
<!-- Generated by graphviz version 2.43.0 (0)
 -->
<!-- Title: %3 Pages: 1 -->
<svg width="2187pt" height="131pt"
 viewBox="0.00 0.00 2186.63 131.00" xmlns="http://www.w3.org/2000/svg" xmlns:xlink="http://www.w3.org/1999/xlink">
<g id="graph0" class="graph" transform="scale(1 1) rotate(0) translate(4 127)">
<title>%3</title>
<polygon fill="white" stroke="transparent" points="-4,4 -4,-127 2182.63,-127 2182.63,4 -4,4"/>
<!-- information resource -->
<g id="node1" class="node">
<title>information resource</title>
<ellipse fill="none" stroke="black" cx="1003.24" cy="-105" rx="108.58" ry="18"/>
<text text-anchor="middle" x="1003.24" y="-101.3" font-family="Times,serif" font-size="14.00">information resource</text>
</g>
<!-- information content entity -->
<g id="node2" class="node">
<title>information content entity</title>
<ellipse fill="none" stroke="black" cx="133.24" cy="-18" rx="133.48" ry="18"/>
<text text-anchor="middle" x="133.24" y="-14.3" font-family="Times,serif" font-size="14.00">information content entity</text>
</g>
<!-- information resource&#45;&gt;information content entity -->
<g id="edge1" class="edge">
<title>information resource&#45;&gt;information content entity</title>
<path fill="none" stroke="black" d="M895.88,-102.22C773.37,-99.18 567.2,-90.98 391.24,-69 328.63,-61.18 258.38,-47.22 207.02,-36.03"/>
<polygon fill="black" stroke="black" points="207.52,-32.56 197,-33.84 206.02,-39.4 207.52,-32.56"/>
<text text-anchor="middle" x="405.24" y="-57.8" font-family="Times,serif" font-size="14.00">is_a</text>
</g>
<!-- iri -->
<g id="node3" class="node">
<title>iri</title>
<ellipse fill="none" stroke="blue" cx="328.24" cy="-18" rx="44.39" ry="18"/>
<text text-anchor="middle" x="328.24" y="-14.3" font-family="Times,serif" font-size="14.00">iri type</text>
</g>
<!-- information resource&#45;&gt;iri -->
<g id="edge2" class="edge">
<title>information resource&#45;&gt;iri</title>
<path fill="none" stroke="blue" d="M898.35,-100.25C768.28,-95.05 554.2,-84.48 476.24,-69 438.24,-61.45 396.56,-46.76 367.15,-35.25"/>
<polygon fill="blue" stroke="blue" points="368.25,-31.92 357.66,-31.48 365.66,-38.42 368.25,-31.92"/>
<text text-anchor="middle" x="484.24" y="-57.8" font-family="Times,serif" font-size="14.00">iri</text>
</g>
<!-- type -->
<g id="node4" class="node">
<title>type</title>
<ellipse fill="none" stroke="blue" cx="429.24" cy="-18" rx="38.19" ry="18"/>
<text text-anchor="middle" x="429.24" y="-14.3" font-family="Times,serif" font-size="14.00">string</text>
</g>
<!-- information resource&#45;&gt;type -->
<g id="edge3" class="edge">
<title>information resource&#45;&gt;type</title>
<path fill="none" stroke="blue" d="M897.77,-100.58C781.21,-96.01 601.22,-86.39 535.24,-69 508.96,-62.07 481.25,-48.77 460.76,-37.62"/>
<polygon fill="blue" stroke="blue" points="462.32,-34.49 451.88,-32.68 458.92,-40.6 462.32,-34.49"/>
<text text-anchor="middle" x="551.24" y="-57.8" font-family="Times,serif" font-size="14.00">type</text>
</g>
<!-- has attribute -->
<g id="node5" class="node">
<title>has attribute</title>
<ellipse fill="none" stroke="blue" cx="537.24" cy="-18" rx="51.99" ry="18"/>
<text text-anchor="middle" x="537.24" y="-14.3" font-family="Times,serif" font-size="14.00">attribute</text>
</g>
<!-- information resource&#45;&gt;has attribute -->
<g id="edge4" class="edge">
<title>information resource&#45;&gt;has attribute</title>
<path fill="none" stroke="blue" d="M895.65,-102.47C792.76,-99.64 645.72,-91.62 593.24,-69 579.69,-63.16 567.18,-52.72 557.44,-42.88"/>
<polygon fill="blue" stroke="blue" points="559.95,-40.44 550.55,-35.56 554.85,-45.24 559.95,-40.44"/>
<text text-anchor="middle" x="640.24" y="-57.8" font-family="Times,serif" font-size="14.00">has attribute</text>
</g>
<!-- provided by -->
<g id="node6" class="node">
<title>provided by</title>
<ellipse fill="none" stroke="blue" cx="645.24" cy="-18" rx="38.19" ry="18"/>
<text text-anchor="middle" x="645.24" y="-14.3" font-family="Times,serif" font-size="14.00">string</text>
</g>
<!-- information resource&#45;&gt;provided by -->
<g id="edge5" class="edge">
<title>information resource&#45;&gt;provided by</title>
<path fill="none" stroke="blue" d="M895.45,-102.81C840.87,-99.24 774.43,-90.24 718.24,-69 701.03,-62.5 683.94,-51.13 670.63,-40.88"/>
<polygon fill="blue" stroke="blue" points="672.47,-37.87 662.47,-34.37 668.1,-43.34 672.47,-37.87"/>
<text text-anchor="middle" x="760.74" y="-57.8" font-family="Times,serif" font-size="14.00">provided by</text>
</g>
<!-- category -->
<g id="node7" class="node">
<title>category</title>
<ellipse fill="none" stroke="black" cx="753.24" cy="-18" rx="51.19" ry="18"/>
<text text-anchor="middle" x="753.24" y="-14.3" font-family="Times,serif" font-size="14.00">category</text>
</g>
<!-- information resource&#45;&gt;category -->
<g id="edge6" class="edge">
<title>information resource&#45;&gt;category</title>
<path fill="none" stroke="blue" d="M922.13,-92.89C894.01,-87.53 862.67,-79.84 835.24,-69 816.7,-61.67 797.6,-50.29 782.5,-40.23"/>
<polygon fill="blue" stroke="blue" points="784.34,-37.25 774.1,-34.5 780.39,-43.03 784.34,-37.25"/>
<text text-anchor="middle" x="866.74" y="-57.8" font-family="Times,serif" font-size="14.00">category</text>
</g>
<!-- license -->
<g id="node9" class="node">
<title>license</title>
<ellipse fill="none" stroke="blue" cx="861.24" cy="-18" rx="38.19" ry="18"/>
<text text-anchor="middle" x="861.24" y="-14.3" font-family="Times,serif" font-size="14.00">string</text>
</g>
<!-- information resource&#45;&gt;license -->
<g id="edge7" class="edge">
<title>information resource&#45;&gt;license</title>
<path fill="none" stroke="blue" d="M961.49,-88.22C948.85,-82.79 935.16,-76.24 923.24,-69 909.92,-60.92 896.32,-50.27 885.26,-40.87"/>
<polygon fill="blue" stroke="blue" points="887.54,-38.22 877.7,-34.31 882.96,-43.51 887.54,-38.22"/>
<text text-anchor="middle" x="948.24" y="-57.8" font-family="Times,serif" font-size="14.00">license</text>
</g>
<!-- rights -->
<g id="node10" class="node">
<title>rights</title>
<ellipse fill="none" stroke="blue" cx="956.24" cy="-18" rx="38.19" ry="18"/>
<text text-anchor="middle" x="956.24" y="-14.3" font-family="Times,serif" font-size="14.00">string</text>
</g>
<!-- information resource&#45;&gt;rights -->
<g id="edge8" class="edge">
<title>information resource&#45;&gt;rights</title>
<path fill="none" stroke="blue" d="M993.73,-86.8C987.01,-74.66 977.91,-58.19 970.35,-44.52"/>
<polygon fill="blue" stroke="blue" points="973.32,-42.65 965.42,-35.6 967.19,-46.04 973.32,-42.65"/>
<text text-anchor="middle" x="1004.74" y="-57.8" font-family="Times,serif" font-size="14.00">rights</text>
</g>
<!-- format -->
<g id="node11" class="node">
<title>format</title>
<ellipse fill="none" stroke="blue" cx="1051.24" cy="-18" rx="38.19" ry="18"/>
<text text-anchor="middle" x="1051.24" y="-14.3" font-family="Times,serif" font-size="14.00">string</text>
</g>
<!-- information resource&#45;&gt;format -->
<g id="edge9" class="edge">
<title>information resource&#45;&gt;format</title>
<path fill="none" stroke="blue" d="M1017,-87.08C1021.21,-81.5 1025.66,-75.15 1029.24,-69 1033.53,-61.62 1037.52,-53.25 1040.9,-45.5"/>
<polygon fill="blue" stroke="blue" points="1044.18,-46.71 1044.81,-36.13 1037.73,-44 1044.18,-46.71"/>
<text text-anchor="middle" x="1061.74" y="-57.8" font-family="Times,serif" font-size="14.00">format</text>
</g>
<!-- creation date -->
<g id="node12" class="node">
<title>creation date</title>
<ellipse fill="none" stroke="blue" cx="1139.24" cy="-18" rx="31.4" ry="18"/>
<text text-anchor="middle" x="1139.24" y="-14.3" font-family="Times,serif" font-size="14.00">date</text>
</g>
<!-- information resource&#45;&gt;creation date -->
<g id="edge10" class="edge">
<title>information resource&#45;&gt;creation date</title>
<path fill="none" stroke="blue" d="M1051.53,-88.67C1064.64,-83.43 1078.46,-76.87 1090.24,-69 1101.18,-61.69 1111.63,-51.62 1120.05,-42.43"/>
<polygon fill="blue" stroke="blue" points="1122.9,-44.49 1126.89,-34.67 1117.65,-39.86 1122.9,-44.49"/>
<text text-anchor="middle" x="1155.74" y="-57.8" font-family="Times,serif" font-size="14.00">creation date</text>
</g>
<!-- information resource status -->
<g id="node13" class="node">
<title>information resource status</title>
<ellipse fill="none" stroke="blue" cx="1354.24" cy="-18" rx="165.97" ry="18"/>
<text text-anchor="middle" x="1354.24" y="-14.3" font-family="Times,serif" font-size="14.00">InformationResourceStatusEnum</text>
</g>
<!-- information resource&#45;&gt;information resource status -->
<g id="edge11" class="edge">
<title>information resource&#45;&gt;information resource status</title>
<path fill="none" stroke="blue" d="M1079.55,-92.19C1127.05,-84.59 1183.47,-75.04 1207.24,-69 1239.26,-60.86 1274.31,-49.06 1302.15,-38.96"/>
<polygon fill="blue" stroke="blue" points="1303.49,-42.2 1311.68,-35.47 1301.09,-35.62 1303.49,-42.2"/>
<text text-anchor="middle" x="1356.74" y="-57.8" font-family="Times,serif" font-size="14.00">information resource status</text>
</g>
<!-- name -->
<g id="node14" class="node">
<title>name</title>
<ellipse fill="none" stroke="blue" cx="1594.24" cy="-18" rx="56.59" ry="18"/>
<text text-anchor="middle" x="1594.24" y="-14.3" font-family="Times,serif" font-size="14.00">label type</text>
</g>
<!-- information resource&#45;&gt;name -->
<g id="edge12" class="edge">
<title>information resource&#45;&gt;name</title>
<path fill="none" stroke="blue" d="M1078.64,-92.01C1092.45,-90.11 1106.76,-88.33 1120.24,-87 1270.83,-72.11 1312.08,-99.81 1460.24,-69 1493.15,-62.16 1528.72,-48.57 1554.94,-37.28"/>
<polygon fill="blue" stroke="blue" points="1556.4,-40.47 1564.16,-33.25 1553.59,-34.05 1556.4,-40.47"/>
<text text-anchor="middle" x="1530.24" y="-57.8" font-family="Times,serif" font-size="14.00">name</text>
</g>
<!-- id -->
<g id="node15" class="node">
<title>id</title>
<ellipse fill="none" stroke="blue" cx="1707.24" cy="-18" rx="38.19" ry="18"/>
<text text-anchor="middle" x="1707.24" y="-14.3" font-family="Times,serif" font-size="14.00">string</text>
</g>
<!-- information resource&#45;&gt;id -->
<g id="edge13" class="edge">
<title>information resource&#45;&gt;id</title>
<path fill="none" stroke="blue" d="M1078.31,-91.93C1092.22,-90.02 1106.65,-88.27 1120.24,-87 1312.46,-69.1 1364.02,-101.97 1554.24,-69 1594.98,-61.94 1639.75,-46.33 1670.27,-34.42"/>
<polygon fill="blue" stroke="blue" points="1671.65,-37.64 1679.66,-30.7 1669.07,-31.13 1671.65,-37.64"/>
<text text-anchor="middle" x="1621.24" y="-57.8" font-family="Times,serif" font-size="14.00">id</text>
</g>
<!-- xref -->
<g id="node16" class="node">
<title>xref</title>
<ellipse fill="none" stroke="blue" cx="1821.24" cy="-18" rx="57.39" ry="18"/>
<text text-anchor="middle" x="1821.24" y="-14.3" font-family="Times,serif" font-size="14.00">uriorcurie</text>
</g>
<!-- information resource&#45;&gt;xref -->
<g id="edge14" class="edge">
<title>information resource&#45;&gt;xref</title>
<path fill="none" stroke="blue" d="M1077.99,-91.9C1092,-89.98 1106.54,-88.23 1120.24,-87 1347.02,-66.6 1406.99,-102.32 1632.24,-69 1681.24,-61.75 1735.81,-46.51 1773.66,-34.75"/>
<polygon fill="blue" stroke="blue" points="1774.9,-38.03 1783.39,-31.69 1772.8,-31.36 1774.9,-38.03"/>
<text text-anchor="middle" x="1715.74" y="-57.8" font-family="Times,serif" font-size="14.00">xref</text>
</g>
<!-- synonym -->
<g id="node17" class="node">
<title>synonym</title>
<ellipse fill="none" stroke="blue" cx="1953.24" cy="-18" rx="56.59" ry="18"/>
<text text-anchor="middle" x="1953.24" y="-14.3" font-family="Times,serif" font-size="14.00">label type</text>
</g>
<!-- information resource&#45;&gt;synonym -->
<g id="edge15" class="edge">
<title>information resource&#45;&gt;synonym</title>
<path fill="none" stroke="blue" d="M1077.67,-91.88C1091.78,-89.95 1106.44,-88.2 1120.24,-87 1392.22,-63.33 1463.22,-101.92 1734.24,-69 1792.96,-61.87 1858.98,-45.63 1903.04,-33.59"/>
<polygon fill="blue" stroke="blue" points="1904.21,-36.89 1912.92,-30.85 1902.35,-30.15 1904.21,-36.89"/>
<text text-anchor="middle" x="1852.24" y="-57.8" font-family="Times,serif" font-size="14.00">synonym</text>
</g>
<!-- description -->
<g id="node18" class="node">
<title>description</title>
<ellipse fill="none" stroke="blue" cx="2103.24" cy="-18" rx="75.29" ry="18"/>
<text text-anchor="middle" x="2103.24" y="-14.3" font-family="Times,serif" font-size="14.00">narrative text</text>
</g>
<!-- information resource&#45;&gt;description -->
<g id="edge16" class="edge">
<title>information resource&#45;&gt;description</title>
<path fill="none" stroke="blue" d="M1077.67,-91.81C1091.77,-89.89 1106.43,-88.16 1120.24,-87 1460.47,-58.4 1549.52,-111.89 1888.24,-69 1943.26,-62.03 2004.79,-46.96 2047.88,-35.18"/>
<polygon fill="blue" stroke="blue" points="2048.89,-38.53 2057.6,-32.49 2047.03,-31.78 2048.89,-38.53"/>
<text text-anchor="middle" x="2012.74" y="-57.8" font-family="Times,serif" font-size="14.00">description</text>
</g>
<!-- named thing_category -->
<g id="node8" class="node">
<title>named thing_category</title>
<ellipse fill="none" stroke="blue" cx="1204.24" cy="-105" rx="74.99" ry="18"/>
<text text-anchor="middle" x="1204.24" y="-101.3" font-family="Times,serif" font-size="14.00">category type</text>
</g>
</g>
</svg>
