<?xml version="1.0" encoding="UTF-8" standalone="no"?>
<!DOCTYPE svg PUBLIC "-//W3C//DTD SVG 1.1//EN"
 "http://www.w3.org/Graphics/SVG/1.1/DTD/svg11.dtd">
<!-- Generated by graphviz version 2.40.1 (20161225.0304)
 -->
<!-- Title: %3 Pages: 1 -->
<svg width="797pt" height="131pt"
 viewBox="0.00 0.00 796.79 131.00" xmlns="http://www.w3.org/2000/svg" xmlns:xlink="http://www.w3.org/1999/xlink">
<g id="graph0" class="graph" transform="scale(1 1) rotate(0) translate(4 127)">
<title>%3</title>
<polygon fill="#ffffff" stroke="transparent" points="-4,4 -4,-127 792.7924,-127 792.7924,4 -4,4"/>
<!-- inheritance -->
<g id="node1" class="node">
<title>inheritance</title>
<ellipse fill="none" stroke="#000000" cx="439.2964" cy="-105" rx="50.0912" ry="18"/>
<text text-anchor="middle" x="439.2964" y="-101.3" font-family="Times,serif" font-size="14.00" fill="#000000">inheritance</text>
</g>
<!-- attribute -->
<g id="node2" class="node">
<title>attribute</title>
<ellipse fill="none" stroke="#000000" cx="40.2964" cy="-18" rx="40.0939" ry="18"/>
<text text-anchor="middle" x="40.2964" y="-14.3" font-family="Times,serif" font-size="14.00" fill="#000000">attribute</text>
</g>
<!-- inheritance&#45;&gt;attribute -->
<g id="edge1" class="edge">
<title>inheritance&#45;&gt;attribute</title>
<path fill="none" stroke="#000000" d="M389.6769,-102.4661C333.8322,-98.7119 240.7873,-89.7288 163.2964,-69 133.1327,-60.9312 100.558,-47.1795 76.5134,-35.9878"/>
<polygon fill="#000000" stroke="#000000" points="77.9512,-32.7961 67.4147,-31.6856 74.9589,-39.1244 77.9512,-32.7961"/>
<text text-anchor="middle" x="174.2964" y="-57.8" font-family="Times,serif" font-size="14.00" fill="#000000">is_a</text>
</g>
<!-- has attribute type -->
<g id="node3" class="node">
<title>has attribute type</title>
<ellipse fill="none" stroke="#0000ff" cx="160.2964" cy="-18" rx="61.99" ry="18"/>
<text text-anchor="middle" x="160.2964" y="-14.3" font-family="Times,serif" font-size="14.00" fill="#000000">ontology class</text>
</g>
<!-- inheritance&#45;&gt;has attribute type -->
<g id="edge2" class="edge">
<title>inheritance&#45;&gt;has attribute type</title>
<path fill="none" stroke="#0000ff" d="M390.4553,-101.0335C332.5393,-95.6972 239.9872,-84.9908 209.2964,-69 197.7266,-62.9718 187.3201,-53.1624 179.1041,-43.7488"/>
<polygon fill="#0000ff" stroke="#0000ff" points="181.801,-41.5179 172.7405,-36.0262 176.3988,-45.9694 181.801,-41.5179"/>
<text text-anchor="middle" x="256.2964" y="-57.8" font-family="Times,serif" font-size="14.00" fill="#000000">has attribute type</text>
</g>
<!-- has quantitative value -->
<g id="node4" class="node">
<title>has quantitative value</title>
<ellipse fill="none" stroke="#0000ff" cx="301.2964" cy="-18" rx="61.1893" ry="18"/>
<text text-anchor="middle" x="301.2964" y="-14.3" font-family="Times,serif" font-size="14.00" fill="#000000">quantity value</text>
</g>
<!-- inheritance&#45;&gt;has quantitative value -->
<g id="edge3" class="edge">
<title>inheritance&#45;&gt;has quantitative value</title>
<path fill="none" stroke="#0000ff" d="M394.8168,-96.6516C364.3544,-90.088 327.5137,-80.2025 316.2964,-69 310.1681,-62.8798 306.5171,-54.3933 304.3507,-46.0978"/>
<polygon fill="#0000ff" stroke="#0000ff" points="307.7733,-45.3638 302.3777,-36.2458 300.9096,-46.7384 307.7733,-45.3638"/>
<text text-anchor="middle" x="375.7964" y="-57.8" font-family="Times,serif" font-size="14.00" fill="#000000">has quantitative value</text>
</g>
<!-- has qualitative value -->
<g id="node5" class="node">
<title>has qualitative value</title>
<ellipse fill="none" stroke="#0000ff" cx="439.2964" cy="-18" rx="55.4913" ry="18"/>
<text text-anchor="middle" x="439.2964" y="-14.3" font-family="Times,serif" font-size="14.00" fill="#000000">named thing</text>
</g>
<!-- inheritance&#45;&gt;has qualitative value -->
<g id="edge4" class="edge">
<title>inheritance&#45;&gt;has qualitative value</title>
<path fill="none" stroke="#0000ff" d="M439.2964,-86.9735C439.2964,-75.1918 439.2964,-59.5607 439.2964,-46.1581"/>
<polygon fill="#0000ff" stroke="#0000ff" points="442.7965,-46.0033 439.2964,-36.0034 435.7965,-46.0034 442.7965,-46.0033"/>
<text text-anchor="middle" x="495.2964" y="-57.8" font-family="Times,serif" font-size="14.00" fill="#000000">has qualitative value</text>
</g>
<!-- name -->
<g id="node6" class="node">
<title>name</title>
<ellipse fill="none" stroke="#000000" cx="558.2964" cy="-18" rx="30.5947" ry="18"/>
<text text-anchor="middle" x="558.2964" y="-14.3" font-family="Times,serif" font-size="14.00" fill="#000000">name</text>
</g>
<!-- inheritance&#45;&gt;name -->
<g id="edge5" class="edge">
<title>inheritance&#45;&gt;name</title>
<path fill="none" stroke="#0000ff" d="M477.5919,-93.3293C509.87,-83.4114 551.0272,-70.5387 552.2964,-69 557.4244,-62.7836 559.6791,-54.5988 560.4503,-46.6107"/>
<polygon fill="#0000ff" stroke="#0000ff" points="563.9546,-46.496 560.7265,-36.4049 556.9572,-46.3066 563.9546,-46.496"/>
<text text-anchor="middle" x="574.7964" y="-57.8" font-family="Times,serif" font-size="14.00" fill="#000000">name</text>
</g>
<!-- iri -->
<g id="node8" class="node">
<title>iri</title>
<ellipse fill="none" stroke="#0000ff" cx="643.2964" cy="-18" rx="36.2938" ry="18"/>
<text text-anchor="middle" x="643.2964" y="-14.3" font-family="Times,serif" font-size="14.00" fill="#000000">iri type</text>
</g>
<!-- inheritance&#45;&gt;iri -->
<g id="edge6" class="edge">
<title>inheritance&#45;&gt;iri</title>
<path fill="none" stroke="#0000ff" d="M476.9001,-93.0658C484.2873,-90.9067 492.0064,-88.779 499.2964,-87 541.0447,-76.812 556.5082,-89.4638 594.2964,-69 605.937,-62.6962 616.4636,-52.6565 624.7499,-43.1458"/>
<polygon fill="#0000ff" stroke="#0000ff" points="627.4964,-45.3165 631.1588,-35.3748 622.096,-40.8627 627.4964,-45.3165"/>
<text text-anchor="middle" x="621.7964" y="-57.8" font-family="Times,serif" font-size="14.00" fill="#000000">iri</text>
</g>
<!-- source -->
<g id="node9" class="node">
<title>source</title>
<ellipse fill="none" stroke="#0000ff" cx="743.2964" cy="-18" rx="45.4919" ry="18"/>
<text text-anchor="middle" x="743.2964" y="-14.3" font-family="Times,serif" font-size="14.00" fill="#000000">label type</text>
</g>
<!-- inheritance&#45;&gt;source -->
<g id="edge7" class="edge">
<title>inheritance&#45;&gt;source</title>
<path fill="none" stroke="#0000ff" d="M476.5078,-92.8499C483.9981,-90.6842 491.8557,-88.6092 499.2964,-87 557.5985,-74.3911 575.0126,-85.634 632.2964,-69 658.5531,-61.3756 686.5151,-48.4962 707.8058,-37.5883"/>
<polygon fill="#0000ff" stroke="#0000ff" points="709.5461,-40.6281 716.7923,-32.8987 706.3076,-34.4223 709.5461,-40.6281"/>
<text text-anchor="middle" x="688.2964" y="-57.8" font-family="Times,serif" font-size="14.00" fill="#000000">source</text>
</g>
<!-- attribute_name -->
<g id="node7" class="node">
<title>attribute_name</title>
<ellipse fill="none" stroke="#0000ff" cx="553.2964" cy="-105" rx="45.4919" ry="18"/>
<text text-anchor="middle" x="553.2964" y="-101.3" font-family="Times,serif" font-size="14.00" fill="#000000">label type</text>
</g>
</g>
</svg>
