<?xml version="1.0" encoding="UTF-8" standalone="no"?>
<!DOCTYPE svg PUBLIC "-//W3C//DTD SVG 1.1//EN"
 "http://www.w3.org/Graphics/SVG/1.1/DTD/svg11.dtd">
<!-- Generated by graphviz version 3.0.0 (20220226.1711)
 -->
<!-- Pages: 1 -->
<svg width="843pt" height="131pt"
 viewBox="0.00 0.00 842.94 131.00" xmlns="http://www.w3.org/2000/svg" xmlns:xlink="http://www.w3.org/1999/xlink">
<g id="graph0" class="graph" transform="scale(1 1) rotate(0) translate(4 127)">
<polygon fill="white" stroke="transparent" points="-4,4 -4,-127 838.94,-127 838.94,4 -4,4"/>
<!-- inheritance -->
<g id="node1" class="node">
<title>inheritance</title>
<ellipse fill="none" stroke="black" cx="442.39" cy="-105" rx="50.09" ry="18"/>
<text text-anchor="middle" x="442.39" y="-101.3" font-family="Times,serif" font-size="14.00">inheritance</text>
</g>
<!-- organism attribute -->
<g id="node2" class="node">
<title>organism attribute</title>
<ellipse fill="none" stroke="black" cx="75.39" cy="-18" rx="75.29" ry="18"/>
<text text-anchor="middle" x="75.39" y="-14.3" font-family="Times,serif" font-size="14.00">organism attribute</text>
</g>
<!-- inheritance&#45;&gt;organism attribute -->
<g id="edge1" class="edge">
<title>inheritance&#45;&gt;organism attribute</title>
<path fill="none" stroke="black" d="M396.04,-97.85C354.27,-91.88 291.3,-81.86 237.39,-69 199.51,-59.96 157.51,-46.91 125.77,-36.41"/>
<polygon fill="black" stroke="black" points="126.86,-33.08 116.27,-33.24 124.65,-39.72 126.86,-33.08"/>
<text text-anchor="middle" x="248.39" y="-57.8" font-family="Times,serif" font-size="14.00">is_a</text>
</g>
<!-- name -->
<g id="node3" class="node">
<title>name</title>
<ellipse fill="none" stroke="black" cx="199.39" cy="-18" rx="30.59" ry="18"/>
<text text-anchor="middle" x="199.39" y="-14.3" font-family="Times,serif" font-size="14.00">name</text>
</g>
<!-- inheritance&#45;&gt;name -->
<g id="edge2" class="edge">
<title>inheritance&#45;&gt;name</title>
<path fill="none" stroke="blue" d="M398.14,-96.42C368.51,-90.63 328.95,-81.51 295.39,-69 272.05,-60.29 247.13,-47.19 228.53,-36.58"/>
<polygon fill="blue" stroke="blue" points="230.09,-33.44 219.69,-31.45 226.58,-39.5 230.09,-33.44"/>
<text text-anchor="middle" x="310.89" y="-57.8" font-family="Times,serif" font-size="14.00">name</text>
</g>
<!-- has attribute type -->
<g id="node5" class="node">
<title>has attribute type</title>
<ellipse fill="none" stroke="blue" cx="309.39" cy="-18" rx="61.99" ry="18"/>
<text text-anchor="middle" x="309.39" y="-14.3" font-family="Times,serif" font-size="14.00">ontology class</text>
</g>
<!-- inheritance&#45;&gt;has attribute type -->
<g id="edge3" class="edge">
<title>inheritance&#45;&gt;has attribute type</title>
<path fill="none" stroke="blue" d="M400.01,-95.03C381.62,-89.65 360.63,-81.38 344.39,-69 335.89,-62.51 328.65,-53.37 323,-44.67"/>
<polygon fill="blue" stroke="blue" points="325.87,-42.65 317.7,-35.9 319.88,-46.27 325.87,-42.65"/>
<text text-anchor="middle" x="391.39" y="-57.8" font-family="Times,serif" font-size="14.00">has attribute type</text>
</g>
<!-- has quantitative value -->
<g id="node6" class="node">
<title>has quantitative value</title>
<ellipse fill="none" stroke="blue" cx="450.39" cy="-18" rx="61.19" ry="18"/>
<text text-anchor="middle" x="450.39" y="-14.3" font-family="Times,serif" font-size="14.00">quantity value</text>
</g>
<!-- inheritance&#45;&gt;has quantitative value -->
<g id="edge4" class="edge">
<title>inheritance&#45;&gt;has quantitative value</title>
<path fill="none" stroke="blue" d="M441.99,-86.83C441.95,-77.16 442.21,-64.88 443.39,-54 443.68,-51.41 444.05,-48.73 444.49,-46.06"/>
<polygon fill="blue" stroke="blue" points="447.97,-46.47 446.36,-36 441.09,-45.18 447.97,-46.47"/>
<text text-anchor="middle" x="502.89" y="-57.8" font-family="Times,serif" font-size="14.00">has quantitative value</text>
</g>
<!-- has qualitative value -->
<g id="node7" class="node">
<title>has qualitative value</title>
<ellipse fill="none" stroke="blue" cx="584.39" cy="-18" rx="55.49" ry="18"/>
<text text-anchor="middle" x="584.39" y="-14.3" font-family="Times,serif" font-size="14.00">named thing</text>
</g>
<!-- inheritance&#45;&gt;has qualitative value -->
<g id="edge5" class="edge">
<title>inheritance&#45;&gt;has qualitative value</title>
<path fill="none" stroke="blue" d="M480.35,-93.13C515.2,-83.12 561.58,-69.71 562.39,-69 569.36,-62.89 574.22,-54.15 577.56,-45.69"/>
<polygon fill="blue" stroke="blue" points="580.93,-46.65 580.81,-36.05 574.3,-44.4 580.93,-46.65"/>
<text text-anchor="middle" x="629.39" y="-57.8" font-family="Times,serif" font-size="14.00">has qualitative value</text>
</g>
<!-- iri -->
<g id="node8" class="node">
<title>iri</title>
<ellipse fill="none" stroke="blue" cx="719.39" cy="-18" rx="36.29" ry="18"/>
<text text-anchor="middle" x="719.39" y="-14.3" font-family="Times,serif" font-size="14.00">iri type</text>
</g>
<!-- inheritance&#45;&gt;iri -->
<g id="edge6" class="edge">
<title>inheritance&#45;&gt;iri</title>
<path fill="none" stroke="blue" d="M478.95,-92.51C486.63,-90.42 494.73,-88.44 502.39,-87 543.42,-79.28 654.09,-91.29 689.39,-69 698.29,-63.38 704.9,-54.09 709.63,-45.03"/>
<polygon fill="blue" stroke="blue" points="712.86,-46.38 713.88,-35.83 706.5,-43.44 712.86,-46.38"/>
<text text-anchor="middle" x="710.89" y="-57.8" font-family="Times,serif" font-size="14.00">iri</text>
</g>
<!-- source -->
<g id="node9" class="node">
<title>source</title>
<ellipse fill="none" stroke="blue" cx="804.39" cy="-18" rx="30.59" ry="18"/>
<text text-anchor="middle" x="804.39" y="-14.3" font-family="Times,serif" font-size="14.00">string</text>
</g>
<!-- inheritance&#45;&gt;source -->
<g id="edge7" class="edge">
<title>inheritance&#45;&gt;source</title>
<path fill="none" stroke="blue" d="M478.62,-92.52C486.4,-90.39 494.62,-88.41 502.39,-87 598.49,-69.61 628.45,-98.99 721.39,-69 742.06,-62.33 762.99,-49.67 778.66,-38.76"/>
<polygon fill="blue" stroke="blue" points="780.71,-41.6 786.79,-32.93 776.63,-35.92 780.71,-41.6"/>
<text text-anchor="middle" x="771.39" y="-57.8" font-family="Times,serif" font-size="14.00">source</text>
</g>
<!-- attribute_name -->
<g id="node4" class="node">
<title>attribute_name</title>
<ellipse fill="none" stroke="blue" cx="556.39" cy="-105" rx="45.49" ry="18"/>
<text text-anchor="middle" x="556.39" y="-101.3" font-family="Times,serif" font-size="14.00">label type</text>
</g>
</g>
</svg>
