<?xml version="1.0" encoding="UTF-8" standalone="no"?>
<!DOCTYPE svg PUBLIC "-//W3C//DTD SVG 1.1//EN"
 "http://www.w3.org/Graphics/SVG/1.1/DTD/svg11.dtd">
<!-- Generated by graphviz version 2.40.1 (20161225.0304)
 -->
<!-- Title: %3 Pages: 1 -->
<svg width="873pt" height="131pt"
 viewBox="0.00 0.00 872.89 131.00" xmlns="http://www.w3.org/2000/svg" xmlns:xlink="http://www.w3.org/1999/xlink">
<g id="graph0" class="graph" transform="scale(1 1) rotate(0) translate(4 127)">
<title>%3</title>
<polygon fill="#ffffff" stroke="transparent" points="-4,4 -4,-127 868.8893,-127 868.8893,4 -4,4"/>
<!-- inheritance -->
<g id="node1" class="node">
<title>inheritance</title>
<ellipse fill="none" stroke="#000000" cx="442.3933" cy="-105" rx="50.0912" ry="18"/>
<text text-anchor="middle" x="442.3933" y="-101.3" font-family="Times,serif" font-size="14.00" fill="#000000">inheritance</text>
</g>
<!-- organism attribute -->
<g id="node2" class="node">
<title>organism attribute</title>
<ellipse fill="none" stroke="#000000" cx="75.3933" cy="-18" rx="75.2868" ry="18"/>
<text text-anchor="middle" x="75.3933" y="-14.3" font-family="Times,serif" font-size="14.00" fill="#000000">organism attribute</text>
</g>
<!-- inheritance&#45;&gt;organism attribute -->
<g id="edge1" class="edge">
<title>inheritance&#45;&gt;organism attribute</title>
<path fill="none" stroke="#000000" d="M395.6243,-98.5733C353.8372,-92.4086 291.1028,-82.1103 237.3933,-69 200.173,-59.9147 159.0011,-46.9133 127.4778,-36.3118"/>
<polygon fill="#000000" stroke="#000000" points="128.1936,-32.8588 117.5993,-32.9621 125.9457,-39.4881 128.1936,-32.8588"/>
<text text-anchor="middle" x="248.3933" y="-57.8" font-family="Times,serif" font-size="14.00" fill="#000000">is_a</text>
</g>
<!-- name -->
<g id="node3" class="node">
<title>name</title>
<ellipse fill="none" stroke="#000000" cx="199.3933" cy="-18" rx="30.5947" ry="18"/>
<text text-anchor="middle" x="199.3933" y="-14.3" font-family="Times,serif" font-size="14.00" fill="#000000">name</text>
</g>
<!-- inheritance&#45;&gt;name -->
<g id="edge2" class="edge">
<title>inheritance&#45;&gt;name</title>
<path fill="none" stroke="#0000ff" d="M397.4578,-97.0107C367.8936,-91.0259 328.6601,-81.6835 295.3933,-69 272.3123,-60.2 247.7381,-47.0669 229.231,-36.3318"/>
<polygon fill="#0000ff" stroke="#0000ff" points="230.7985,-33.193 220.4067,-31.1286 227.243,-39.2228 230.7985,-33.193"/>
<text text-anchor="middle" x="310.8933" y="-57.8" font-family="Times,serif" font-size="14.00" fill="#000000">name</text>
</g>
<!-- has attribute type -->
<g id="node5" class="node">
<title>has attribute type</title>
<ellipse fill="none" stroke="#0000ff" cx="309.3933" cy="-18" rx="61.99" ry="18"/>
<text text-anchor="middle" x="309.3933" y="-14.3" font-family="Times,serif" font-size="14.00" fill="#000000">ontology class</text>
</g>
<!-- inheritance&#45;&gt;has attribute type -->
<g id="edge3" class="edge">
<title>inheritance&#45;&gt;has attribute type</title>
<path fill="none" stroke="#0000ff" d="M399.4684,-95.4677C381.1834,-89.9056 360.422,-81.4577 344.3933,-69 336.0866,-62.5439 329.0119,-53.5602 323.4428,-44.9289"/>
<polygon fill="#0000ff" stroke="#0000ff" points="326.3414,-42.9571 318.1956,-36.1824 320.3388,-46.5582 326.3414,-42.9571"/>
<text text-anchor="middle" x="391.3933" y="-57.8" font-family="Times,serif" font-size="14.00" fill="#000000">has attribute type</text>
</g>
<!-- has quantitative value -->
<g id="node6" class="node">
<title>has quantitative value</title>
<ellipse fill="none" stroke="#0000ff" cx="450.3933" cy="-18" rx="61.1893" ry="18"/>
<text text-anchor="middle" x="450.3933" y="-14.3" font-family="Times,serif" font-size="14.00" fill="#000000">quantity value</text>
</g>
<!-- inheritance&#45;&gt;has quantitative value -->
<g id="edge4" class="edge">
<title>inheritance&#45;&gt;has quantitative value</title>
<path fill="none" stroke="#0000ff" d="M441.9904,-86.5393C441.9715,-76.83 442.2521,-64.7437 443.3933,-54 443.664,-51.4516 444.0226,-48.8146 444.4348,-46.1799"/>
<polygon fill="#0000ff" stroke="#0000ff" points="447.9005,-46.6822 446.2175,-36.2219 441.01,-45.4486 447.9005,-46.6822"/>
<text text-anchor="middle" x="502.8933" y="-57.8" font-family="Times,serif" font-size="14.00" fill="#000000">has quantitative value</text>
</g>
<!-- has qualitative value -->
<g id="node7" class="node">
<title>has qualitative value</title>
<ellipse fill="none" stroke="#0000ff" cx="584.3933" cy="-18" rx="55.4913" ry="18"/>
<text text-anchor="middle" x="584.3933" y="-14.3" font-family="Times,serif" font-size="14.00" fill="#000000">named thing</text>
</g>
<!-- inheritance&#45;&gt;has qualitative value -->
<g id="edge5" class="edge">
<title>inheritance&#45;&gt;has qualitative value</title>
<path fill="none" stroke="#0000ff" d="M481.0226,-93.4112C516.1024,-82.8873 562.3933,-69 562.3933,-69 569.2259,-62.9161 574.0157,-54.3369 577.3385,-45.9475"/>
<polygon fill="#0000ff" stroke="#0000ff" points="580.6972,-46.9416 580.5998,-36.3473 574.0692,-44.69 580.6972,-46.9416"/>
<text text-anchor="middle" x="629.3933" y="-57.8" font-family="Times,serif" font-size="14.00" fill="#000000">has qualitative value</text>
</g>
<!-- iri -->
<g id="node8" class="node">
<title>iri</title>
<ellipse fill="none" stroke="#0000ff" cx="719.3933" cy="-18" rx="36.2938" ry="18"/>
<text text-anchor="middle" x="719.3933" y="-14.3" font-family="Times,serif" font-size="14.00" fill="#000000">iri type</text>
</g>
<!-- inheritance&#45;&gt;iri -->
<g id="edge6" class="edge">
<title>inheritance&#45;&gt;iri</title>
<path fill="none" stroke="#0000ff" d="M479.2368,-92.7144C486.8269,-90.5328 494.8162,-88.4864 502.3933,-87 543.3601,-78.9636 654.1901,-91.441 689.3933,-69 698.1366,-63.4264 704.6491,-54.3194 709.3306,-45.3319"/>
<polygon fill="#0000ff" stroke="#0000ff" points="712.55,-46.7085 713.5632,-36.1622 706.1944,-43.7748 712.55,-46.7085"/>
<text text-anchor="middle" x="710.8933" y="-57.8" font-family="Times,serif" font-size="14.00" fill="#000000">iri</text>
</g>
<!-- source -->
<g id="node9" class="node">
<title>source</title>
<ellipse fill="none" stroke="#0000ff" cx="819.3933" cy="-18" rx="45.4919" ry="18"/>
<text text-anchor="middle" x="819.3933" y="-14.3" font-family="Times,serif" font-size="14.00" fill="#000000">label type</text>
</g>
<!-- inheritance&#45;&gt;source -->
<g id="edge7" class="edge">
<title>inheritance&#45;&gt;source</title>
<path fill="none" stroke="#0000ff" d="M479.2209,-92.6315C486.8122,-90.4564 494.8061,-88.4335 502.3933,-87 598.3571,-68.8692 627.5601,-96.076 721.3933,-69 744.6731,-62.2825 768.8413,-49.7756 787.3523,-38.829"/>
<polygon fill="#0000ff" stroke="#0000ff" points="789.2196,-41.7899 795.9563,-33.6127 785.5906,-35.8041 789.2196,-41.7899"/>
<text text-anchor="middle" x="776.3933" y="-57.8" font-family="Times,serif" font-size="14.00" fill="#000000">source</text>
</g>
<!-- attribute_name -->
<g id="node4" class="node">
<title>attribute_name</title>
<ellipse fill="none" stroke="#0000ff" cx="556.3933" cy="-105" rx="45.4919" ry="18"/>
<text text-anchor="middle" x="556.3933" y="-101.3" font-family="Times,serif" font-size="14.00" fill="#000000">label type</text>
</g>
</g>
</svg>
