<?xml version="1.0" encoding="UTF-8" standalone="no"?>
<!DOCTYPE svg PUBLIC "-//W3C//DTD SVG 1.1//EN"
 "http://www.w3.org/Graphics/SVG/1.1/DTD/svg11.dtd">
<!-- Generated by graphviz version 2.40.1 (20161225.0304)
 -->
<!-- Title: %3 Pages: 1 -->
<svg width="803pt" height="131pt"
 viewBox="0.00 0.00 802.79 131.00" xmlns="http://www.w3.org/2000/svg" xmlns:xlink="http://www.w3.org/1999/xlink">
<g id="graph0" class="graph" transform="scale(1 1) rotate(0) translate(4 127)">
<title>%3</title>
<polygon fill="#ffffff" stroke="transparent" points="-4,4 -4,-127 798.7924,-127 798.7924,4 -4,4"/>
<!-- inheritance -->
<g id="node1" class="node">
<title>inheritance</title>
<ellipse fill="none" stroke="#000000" cx="372.2964" cy="-105" rx="50.0912" ry="18"/>
<text text-anchor="middle" x="372.2964" y="-101.3" font-family="Times,serif" font-size="14.00" fill="#000000">inheritance</text>
</g>
<!-- attribute -->
<g id="node2" class="node">
<title>attribute</title>
<ellipse fill="none" stroke="#000000" cx="40.2964" cy="-18" rx="40.0939" ry="18"/>
<text text-anchor="middle" x="40.2964" y="-14.3" font-family="Times,serif" font-size="14.00" fill="#000000">attribute</text>
</g>
<!-- inheritance&#45;&gt;attribute -->
<g id="edge1" class="edge">
<title>inheritance&#45;&gt;attribute</title>
<path fill="none" stroke="#000000" d="M324.4381,-99.4623C282.482,-93.932 220.1149,-84.0653 167.2964,-69 136.4346,-60.1973 102.7849,-46.4861 77.8805,-35.4965"/>
<polygon fill="#000000" stroke="#000000" points="79.0099,-32.1676 68.4521,-31.2819 76.1531,-38.5582 79.0099,-32.1676"/>
<text text-anchor="middle" x="178.2964" y="-57.8" font-family="Times,serif" font-size="14.00" fill="#000000">is_a</text>
</g>
<!-- name -->
<g id="node3" class="node">
<title>name</title>
<ellipse fill="none" stroke="#000000" cx="129.2964" cy="-18" rx="30.5947" ry="18"/>
<text text-anchor="middle" x="129.2964" y="-14.3" font-family="Times,serif" font-size="14.00" fill="#000000">name</text>
</g>
<!-- inheritance&#45;&gt;name -->
<g id="edge2" class="edge">
<title>inheritance&#45;&gt;name</title>
<path fill="none" stroke="#0000ff" d="M327.3609,-97.0107C297.7968,-91.0259 258.5632,-81.6835 225.2964,-69 202.2154,-60.2 177.6412,-47.0669 159.1342,-36.3318"/>
<polygon fill="#0000ff" stroke="#0000ff" points="160.7016,-33.193 150.3099,-31.1286 157.1461,-39.2228 160.7016,-33.193"/>
<text text-anchor="middle" x="240.7964" y="-57.8" font-family="Times,serif" font-size="14.00" fill="#000000">name</text>
</g>
<!-- has attribute type -->
<g id="node5" class="node">
<title>has attribute type</title>
<ellipse fill="none" stroke="#0000ff" cx="239.2964" cy="-18" rx="61.99" ry="18"/>
<text text-anchor="middle" x="239.2964" y="-14.3" font-family="Times,serif" font-size="14.00" fill="#000000">ontology class</text>
</g>
<!-- inheritance&#45;&gt;has attribute type -->
<g id="edge3" class="edge">
<title>inheritance&#45;&gt;has attribute type</title>
<path fill="none" stroke="#0000ff" d="M329.3715,-95.4677C311.0865,-89.9056 290.3251,-81.4577 274.2964,-69 265.9898,-62.5439 258.915,-53.5602 253.3459,-44.9289"/>
<polygon fill="#0000ff" stroke="#0000ff" points="256.2446,-42.9571 248.0987,-36.1824 250.2419,-46.5582 256.2446,-42.9571"/>
<text text-anchor="middle" x="321.2964" y="-57.8" font-family="Times,serif" font-size="14.00" fill="#000000">has attribute type</text>
</g>
<!-- has quantitative value -->
<g id="node6" class="node">
<title>has quantitative value</title>
<ellipse fill="none" stroke="#0000ff" cx="380.2964" cy="-18" rx="61.1893" ry="18"/>
<text text-anchor="middle" x="380.2964" y="-14.3" font-family="Times,serif" font-size="14.00" fill="#000000">quantity value</text>
</g>
<!-- inheritance&#45;&gt;has quantitative value -->
<g id="edge4" class="edge">
<title>inheritance&#45;&gt;has quantitative value</title>
<path fill="none" stroke="#0000ff" d="M371.8935,-86.5393C371.8746,-76.83 372.1552,-64.7437 373.2964,-54 373.5671,-51.4516 373.9257,-48.8146 374.3379,-46.1799"/>
<polygon fill="#0000ff" stroke="#0000ff" points="377.8036,-46.6822 376.1206,-36.2219 370.9131,-45.4486 377.8036,-46.6822"/>
<text text-anchor="middle" x="432.7964" y="-57.8" font-family="Times,serif" font-size="14.00" fill="#000000">has quantitative value</text>
</g>
<!-- has qualitative value -->
<g id="node7" class="node">
<title>has qualitative value</title>
<ellipse fill="none" stroke="#0000ff" cx="514.2964" cy="-18" rx="55.4913" ry="18"/>
<text text-anchor="middle" x="514.2964" y="-14.3" font-family="Times,serif" font-size="14.00" fill="#000000">named thing</text>
</g>
<!-- inheritance&#45;&gt;has qualitative value -->
<g id="edge5" class="edge">
<title>inheritance&#45;&gt;has qualitative value</title>
<path fill="none" stroke="#0000ff" d="M410.9257,-93.4112C446.0055,-82.8873 492.2964,-69 492.2964,-69 499.129,-62.9161 503.9189,-54.3369 507.2416,-45.9475"/>
<polygon fill="#0000ff" stroke="#0000ff" points="510.6003,-46.9416 510.5029,-36.3473 503.9723,-44.69 510.6003,-46.9416"/>
<text text-anchor="middle" x="559.2964" y="-57.8" font-family="Times,serif" font-size="14.00" fill="#000000">has qualitative value</text>
</g>
<!-- iri -->
<g id="node8" class="node">
<title>iri</title>
<ellipse fill="none" stroke="#0000ff" cx="649.2964" cy="-18" rx="36.2938" ry="18"/>
<text text-anchor="middle" x="649.2964" y="-14.3" font-family="Times,serif" font-size="14.00" fill="#000000">iri type</text>
</g>
<!-- inheritance&#45;&gt;iri -->
<g id="edge6" class="edge">
<title>inheritance&#45;&gt;iri</title>
<path fill="none" stroke="#0000ff" d="M409.1399,-92.7144C416.73,-90.5328 424.7194,-88.4864 432.2964,-87 473.2632,-78.9636 584.0932,-91.441 619.2964,-69 628.0397,-63.4264 634.5522,-54.3194 639.2337,-45.3319"/>
<polygon fill="#0000ff" stroke="#0000ff" points="642.4531,-46.7085 643.4663,-36.1622 636.0975,-43.7748 642.4531,-46.7085"/>
<text text-anchor="middle" x="640.7964" y="-57.8" font-family="Times,serif" font-size="14.00" fill="#000000">iri</text>
</g>
<!-- source -->
<g id="node9" class="node">
<title>source</title>
<ellipse fill="none" stroke="#0000ff" cx="749.2964" cy="-18" rx="45.4919" ry="18"/>
<text text-anchor="middle" x="749.2964" y="-14.3" font-family="Times,serif" font-size="14.00" fill="#000000">label type</text>
</g>
<!-- inheritance&#45;&gt;source -->
<g id="edge7" class="edge">
<title>inheritance&#45;&gt;source</title>
<path fill="none" stroke="#0000ff" d="M409.124,-92.6315C416.7153,-90.4564 424.7092,-88.4335 432.2964,-87 528.2602,-68.8692 557.4632,-96.076 651.2964,-69 674.5762,-62.2825 698.7445,-49.7756 717.2554,-38.829"/>
<polygon fill="#0000ff" stroke="#0000ff" points="719.1227,-41.7899 725.8594,-33.6127 715.4937,-35.8041 719.1227,-41.7899"/>
<text text-anchor="middle" x="706.2964" y="-57.8" font-family="Times,serif" font-size="14.00" fill="#000000">source</text>
</g>
<!-- attribute_name -->
<g id="node4" class="node">
<title>attribute_name</title>
<ellipse fill="none" stroke="#0000ff" cx="486.2964" cy="-105" rx="45.4919" ry="18"/>
<text text-anchor="middle" x="486.2964" y="-101.3" font-family="Times,serif" font-size="14.00" fill="#000000">label type</text>
</g>
</g>
</svg>
