<?xml version="1.0" encoding="UTF-8" standalone="no"?>
<!DOCTYPE svg PUBLIC "-//W3C//DTD SVG 1.1//EN"
 "http://www.w3.org/Graphics/SVG/1.1/DTD/svg11.dtd">
<!-- Generated by graphviz version 2.43.0 (0)
 -->
<!-- Title: %3 Pages: 1 -->
<svg width="1867pt" height="131pt"
 viewBox="0.00 0.00 1867.14 131.00" xmlns="http://www.w3.org/2000/svg" xmlns:xlink="http://www.w3.org/1999/xlink">
<g id="graph0" class="graph" transform="scale(1 1) rotate(0) translate(4 127)">
<title>%3</title>
<polygon fill="white" stroke="transparent" points="-4,4 -4,-127 1863.14,-127 1863.14,4 -4,4"/>
<!-- inheritance -->
<g id="node1" class="node">
<title>inheritance</title>
<ellipse fill="none" stroke="black" cx="912.79" cy="-105" rx="63.89" ry="18"/>
<text text-anchor="middle" x="912.79" y="-101.3" font-family="Times,serif" font-size="14.00">inheritance</text>
</g>
<!-- organism attribute -->
<g id="node2" class="node">
<title>organism attribute</title>
<ellipse fill="none" stroke="black" cx="98.79" cy="-18" rx="98.58" ry="18"/>
<text text-anchor="middle" x="98.79" y="-14.3" font-family="Times,serif" font-size="14.00">organism attribute</text>
</g>
<!-- inheritance&#45;&gt;organism attribute -->
<g id="edge1" class="edge">
<title>inheritance&#45;&gt;organism attribute</title>
<path fill="none" stroke="black" d="M848.98,-103.28C741.84,-101.36 519.21,-94.39 332.79,-69 274.89,-61.11 209.96,-46.79 163.21,-35.5"/>
<polygon fill="black" stroke="black" points="163.77,-32.03 153.23,-33.06 162.11,-38.83 163.77,-32.03"/>
<text text-anchor="middle" x="346.79" y="-57.8" font-family="Times,serif" font-size="14.00">is_a</text>
</g>
<!-- id -->
<g id="node3" class="node">
<title>id</title>
<ellipse fill="none" stroke="blue" cx="253.79" cy="-18" rx="38.19" ry="18"/>
<text text-anchor="middle" x="253.79" y="-14.3" font-family="Times,serif" font-size="14.00">string</text>
</g>
<!-- inheritance&#45;&gt;id -->
<g id="edge2" class="edge">
<title>inheritance&#45;&gt;id</title>
<path fill="none" stroke="blue" d="M849.19,-103.13C756.08,-101.02 577.5,-93.79 427.79,-69 380.52,-61.17 327.84,-44.94 292.96,-33.08"/>
<polygon fill="blue" stroke="blue" points="293.77,-29.66 283.18,-29.71 291.49,-36.28 293.77,-29.66"/>
<text text-anchor="middle" x="434.79" y="-57.8" font-family="Times,serif" font-size="14.00">id</text>
</g>
<!-- type -->
<g id="node4" class="node">
<title>type</title>
<ellipse fill="none" stroke="blue" cx="348.79" cy="-18" rx="38.19" ry="18"/>
<text text-anchor="middle" x="348.79" y="-14.3" font-family="Times,serif" font-size="14.00">string</text>
</g>
<!-- inheritance&#45;&gt;type -->
<g id="edge3" class="edge">
<title>inheritance&#45;&gt;type</title>
<path fill="none" stroke="blue" d="M849.2,-103.04C767.56,-100.81 621.86,-93.4 499.79,-69 460.13,-61.07 416.44,-45.85 386.3,-34.28"/>
<polygon fill="blue" stroke="blue" points="387.21,-30.88 376.62,-30.51 384.67,-37.4 387.21,-30.88"/>
<text text-anchor="middle" x="515.79" y="-57.8" font-family="Times,serif" font-size="14.00">type</text>
</g>
<!-- description -->
<g id="node5" class="node">
<title>description</title>
<ellipse fill="none" stroke="blue" cx="480.79" cy="-18" rx="75.29" ry="18"/>
<text text-anchor="middle" x="480.79" y="-14.3" font-family="Times,serif" font-size="14.00">narrative text</text>
</g>
<!-- inheritance&#45;&gt;description -->
<g id="edge4" class="edge">
<title>inheritance&#45;&gt;description</title>
<path fill="none" stroke="blue" d="M850.79,-100.82C766.08,-95.95 618.87,-85.44 567.79,-69 547.92,-62.61 527.59,-51.24 511.59,-40.97"/>
<polygon fill="blue" stroke="blue" points="513.45,-38 503.17,-35.41 509.59,-43.84 513.45,-38"/>
<text text-anchor="middle" x="608.29" y="-57.8" font-family="Times,serif" font-size="14.00">description</text>
</g>
<!-- has attribute -->
<g id="node6" class="node">
<title>has attribute</title>
<ellipse fill="none" stroke="blue" cx="625.79" cy="-18" rx="51.99" ry="18"/>
<text text-anchor="middle" x="625.79" y="-14.3" font-family="Times,serif" font-size="14.00">attribute</text>
</g>
<!-- inheritance&#45;&gt;has attribute -->
<g id="edge5" class="edge">
<title>inheritance&#45;&gt;has attribute</title>
<path fill="none" stroke="blue" d="M851.42,-99.89C790.25,-94.95 701.16,-85.23 670.79,-69 659.64,-63.04 649.87,-53.18 642.31,-43.78"/>
<polygon fill="blue" stroke="blue" points="645.07,-41.63 636.25,-35.75 639.48,-45.84 645.07,-41.63"/>
<text text-anchor="middle" x="717.79" y="-57.8" font-family="Times,serif" font-size="14.00">has attribute</text>
</g>
<!-- provided by -->
<g id="node7" class="node">
<title>provided by</title>
<ellipse fill="none" stroke="blue" cx="733.79" cy="-18" rx="38.19" ry="18"/>
<text text-anchor="middle" x="733.79" y="-14.3" font-family="Times,serif" font-size="14.00">string</text>
</g>
<!-- inheritance&#45;&gt;provided by -->
<g id="edge6" class="edge">
<title>inheritance&#45;&gt;provided by</title>
<path fill="none" stroke="blue" d="M859.54,-94.93C836.5,-89.56 809.82,-81.32 787.79,-69 775.47,-62.11 763.73,-51.86 754.36,-42.42"/>
<polygon fill="blue" stroke="blue" points="756.82,-39.94 747.39,-35.12 751.76,-44.77 756.82,-39.94"/>
<text text-anchor="middle" x="830.29" y="-57.8" font-family="Times,serif" font-size="14.00">provided by</text>
</g>
<!-- xref -->
<g id="node8" class="node">
<title>xref</title>
<ellipse fill="none" stroke="blue" cx="847.79" cy="-18" rx="57.39" ry="18"/>
<text text-anchor="middle" x="847.79" y="-14.3" font-family="Times,serif" font-size="14.00">uriorcurie</text>
</g>
<!-- inheritance&#45;&gt;xref -->
<g id="edge7" class="edge">
<title>inheritance&#45;&gt;xref</title>
<path fill="none" stroke="blue" d="M899.95,-87.21C890.51,-74.87 877.53,-57.89 866.88,-43.97"/>
<polygon fill="blue" stroke="blue" points="869.46,-41.58 860.61,-35.76 863.9,-45.83 869.46,-41.58"/>
<text text-anchor="middle" x="899.29" y="-57.8" font-family="Times,serif" font-size="14.00">xref</text>
</g>
<!-- category -->
<g id="node9" class="node">
<title>category</title>
<ellipse fill="none" stroke="black" cx="974.79" cy="-18" rx="51.19" ry="18"/>
<text text-anchor="middle" x="974.79" y="-14.3" font-family="Times,serif" font-size="14.00">category</text>
</g>
<!-- inheritance&#45;&gt;category -->
<g id="edge8" class="edge">
<title>inheritance&#45;&gt;category</title>
<path fill="none" stroke="blue" d="M925.04,-87.21C934.04,-74.87 946.42,-57.89 956.58,-43.97"/>
<polygon fill="blue" stroke="blue" points="959.5,-45.9 962.57,-35.76 953.85,-41.77 959.5,-45.9"/>
<text text-anchor="middle" x="979.29" y="-57.8" font-family="Times,serif" font-size="14.00">category</text>
</g>
<!-- name -->
<g id="node11" class="node">
<title>name</title>
<ellipse fill="none" stroke="black" cx="1080.79" cy="-18" rx="36.29" ry="18"/>
<text text-anchor="middle" x="1080.79" y="-14.3" font-family="Times,serif" font-size="14.00">name</text>
</g>
<!-- inheritance&#45;&gt;name -->
<g id="edge9" class="edge">
<title>inheritance&#45;&gt;name</title>
<path fill="none" stroke="blue" d="M957.5,-92.04C975.81,-86.29 996.86,-78.55 1014.79,-69 1029.43,-61.2 1044.28,-50.28 1056.18,-40.63"/>
<polygon fill="blue" stroke="blue" points="1058.45,-43.29 1063.9,-34.21 1053.97,-37.91 1058.45,-43.29"/>
<text text-anchor="middle" x="1058.79" y="-57.8" font-family="Times,serif" font-size="14.00">name</text>
</g>
<!-- has attribute type -->
<g id="node13" class="node">
<title>has attribute type</title>
<ellipse fill="none" stroke="blue" cx="1211.79" cy="-18" rx="76.89" ry="18"/>
<text text-anchor="middle" x="1211.79" y="-14.3" font-family="Times,serif" font-size="14.00">ontology class</text>
</g>
<!-- inheritance&#45;&gt;has attribute type -->
<g id="edge10" class="edge">
<title>inheritance&#45;&gt;has attribute type</title>
<path fill="none" stroke="blue" d="M959.58,-92.59C967.96,-90.65 976.62,-88.71 984.79,-87 1028.13,-77.91 1040.18,-81.06 1082.79,-69 1111.97,-60.75 1143.74,-48.47 1168.45,-38.15"/>
<polygon fill="blue" stroke="blue" points="1170.05,-41.28 1177.9,-34.16 1167.32,-34.83 1170.05,-41.28"/>
<text text-anchor="middle" x="1191.79" y="-57.8" font-family="Times,serif" font-size="14.00">has attribute type</text>
</g>
<!-- has quantitative value -->
<g id="node14" class="node">
<title>has quantitative value</title>
<ellipse fill="none" stroke="blue" cx="1383.79" cy="-18" rx="77.19" ry="18"/>
<text text-anchor="middle" x="1383.79" y="-14.3" font-family="Times,serif" font-size="14.00">quantity value</text>
</g>
<!-- inheritance&#45;&gt;has quantitative value -->
<g id="edge11" class="edge">
<title>inheritance&#45;&gt;has quantitative value</title>
<path fill="none" stroke="blue" d="M957.89,-92.14C966.76,-90.15 976.03,-88.31 984.79,-87 1106.37,-68.81 1140.98,-96.5 1260.79,-69 1289.62,-62.38 1320.45,-49.84 1344.04,-38.97"/>
<polygon fill="blue" stroke="blue" points="1345.79,-42.01 1353.35,-34.59 1342.81,-35.68 1345.79,-42.01"/>
<text text-anchor="middle" x="1386.79" y="-57.8" font-family="Times,serif" font-size="14.00">has quantitative value</text>
</g>
<!-- has qualitative value -->
<g id="node15" class="node">
<title>has qualitative value</title>
<ellipse fill="none" stroke="blue" cx="1548.79" cy="-18" rx="69.59" ry="18"/>
<text text-anchor="middle" x="1548.79" y="-14.3" font-family="Times,serif" font-size="14.00">named thing</text>
</g>
<!-- inheritance&#45;&gt;has qualitative value -->
<g id="edge12" class="edge">
<title>inheritance&#45;&gt;has qualitative value</title>
<path fill="none" stroke="blue" d="M957.48,-92.03C966.46,-90.02 975.88,-88.21 984.79,-87 1091.89,-72.51 1367.66,-101.3 1470.79,-69 1489.1,-63.27 1507.27,-52.03 1521.47,-41.65"/>
<polygon fill="blue" stroke="blue" points="1523.91,-44.19 1529.76,-35.36 1519.68,-38.62 1523.91,-44.19"/>
<text text-anchor="middle" x="1578.29" y="-57.8" font-family="Times,serif" font-size="14.00">has qualitative value</text>
</g>
<!-- iri -->
<g id="node16" class="node">
<title>iri</title>
<ellipse fill="none" stroke="blue" cx="1719.79" cy="-18" rx="44.39" ry="18"/>
<text text-anchor="middle" x="1719.79" y="-14.3" font-family="Times,serif" font-size="14.00">iri type</text>
</g>
<!-- inheritance&#45;&gt;iri -->
<g id="edge13" class="edge">
<title>inheritance&#45;&gt;iri</title>
<path fill="none" stroke="blue" d="M957.08,-92.04C966.18,-90.01 975.75,-88.18 984.79,-87 1058.86,-77.37 1586.6,-94.53 1656.79,-69 1672,-63.47 1686.34,-52.7 1697.5,-42.57"/>
<polygon fill="blue" stroke="blue" points="1700.2,-44.83 1705.02,-35.39 1695.37,-39.76 1700.2,-44.83"/>
<text text-anchor="middle" x="1691.79" y="-57.8" font-family="Times,serif" font-size="14.00">iri</text>
</g>
<!-- source -->
<g id="node17" class="node">
<title>source</title>
<ellipse fill="none" stroke="blue" cx="1820.79" cy="-18" rx="38.19" ry="18"/>
<text text-anchor="middle" x="1820.79" y="-14.3" font-family="Times,serif" font-size="14.00">string</text>
</g>
<!-- inheritance&#45;&gt;source -->
<g id="edge14" class="edge">
<title>inheritance&#45;&gt;source</title>
<path fill="none" stroke="blue" d="M957.08,-92.03C966.18,-90 975.75,-88.17 984.79,-87 1143.3,-66.53 1547.62,-103.01 1703.79,-69 1733.57,-62.51 1765.24,-48.49 1788.11,-36.94"/>
<polygon fill="blue" stroke="blue" points="1789.75,-40.04 1797.04,-32.34 1786.54,-33.82 1789.75,-40.04"/>
<text text-anchor="middle" x="1774.79" y="-57.8" font-family="Times,serif" font-size="14.00">source</text>
</g>
<!-- named thing_category -->
<g id="node10" class="node">
<title>named thing_category</title>
<ellipse fill="none" stroke="blue" cx="1068.79" cy="-105" rx="74.99" ry="18"/>
<text text-anchor="middle" x="1068.79" y="-101.3" font-family="Times,serif" font-size="14.00">category type</text>
</g>
<!-- attribute_name -->
<g id="node12" class="node">
<title>attribute_name</title>
<ellipse fill="none" stroke="blue" cx="1217.79" cy="-105" rx="56.59" ry="18"/>
<text text-anchor="middle" x="1217.79" y="-101.3" font-family="Times,serif" font-size="14.00">label type</text>
</g>
</g>
</svg>
