<?xml version="1.0" encoding="UTF-8" standalone="no"?>
<!DOCTYPE svg PUBLIC "-//W3C//DTD SVG 1.1//EN"
 "http://www.w3.org/Graphics/SVG/1.1/DTD/svg11.dtd">
<!-- Generated by graphviz version 2.40.1 (20161225.0304)
 -->
<!-- Title: %3 Pages: 1 -->
<svg width="1673pt" height="131pt"
 viewBox="0.00 0.00 1673.13 131.00" xmlns="http://www.w3.org/2000/svg" xmlns:xlink="http://www.w3.org/1999/xlink">
<g id="graph0" class="graph" transform="scale(1 1) rotate(0) translate(4 127)">
<title>%3</title>
<polygon fill="#ffffff" stroke="transparent" points="-4,4 -4,-127 1669.1344,-127 1669.1344,4 -4,4"/>
<!-- life stage -->
<g id="node1" class="node">
<title>life stage</title>
<ellipse fill="none" stroke="#000000" cx="823.9418" cy="-105" rx="53.8905" ry="18"/>
<text text-anchor="middle" x="823.9418" y="-101.3" font-family="Times,serif" font-size="14.00" fill="#000000">life stage</text>
</g>
<!-- organismal entity -->
<g id="node2" class="node">
<title>organismal entity</title>
<ellipse fill="none" stroke="#000000" cx="92.9418" cy="-18" rx="92.8835" ry="18"/>
<text text-anchor="middle" x="92.9418" y="-14.3" font-family="Times,serif" font-size="14.00" fill="#000000">organismal entity</text>
</g>
<!-- life stage&#45;&gt;organismal entity -->
<g id="edge1" class="edge">
<title>life stage&#45;&gt;organismal entity</title>
<path fill="none" stroke="#000000" d="M770.8245,-101.4464C692.2429,-95.9429 540.446,-84.3695 411.9418,-69 315.0788,-57.4149 291.2052,-51.8111 194.9418,-36 187.2688,-34.7397 179.2777,-33.3916 171.2948,-32.0213"/>
<polygon fill="#000000" stroke="#000000" points="171.6623,-28.533 161.2122,-30.2787 170.47,-35.4308 171.6623,-28.533"/>
<text text-anchor="middle" x="425.9418" y="-57.8" font-family="Times,serif" font-size="14.00" fill="#000000">is_a</text>
</g>
<!-- thing with taxon -->
<g id="node3" class="node">
<title>thing with taxon</title>
<ellipse fill="none" stroke="#000000" cx="290.9418" cy="-18" rx="87.1846" ry="18"/>
<text text-anchor="middle" x="290.9418" y="-14.3" font-family="Times,serif" font-size="14.00" fill="#000000">thing with taxon</text>
</g>
<!-- life stage&#45;&gt;thing with taxon -->
<g id="edge2" class="edge">
<title>life stage&#45;&gt;thing with taxon</title>
<path fill="none" stroke="#000000" d="M771.6298,-100.4715C710.6939,-94.8162 607.1134,-84.0241 518.9418,-69 463.6228,-59.5738 401.5059,-45.441 356.095,-34.4416"/>
<polygon fill="#000000" stroke="#000000" points="356.9224,-31.0408 346.378,-32.0741 355.2653,-37.8419 356.9224,-31.0408"/>
<text text-anchor="middle" x="535.4418" y="-57.8" font-family="Times,serif" font-size="14.00" fill="#000000">uses</text>
</g>
<!-- id -->
<g id="node4" class="node">
<title>id</title>
<ellipse fill="none" stroke="#0000ff" cx="433.9418" cy="-18" rx="38.1938" ry="18"/>
<text text-anchor="middle" x="433.9418" y="-14.3" font-family="Times,serif" font-size="14.00" fill="#000000">string</text>
</g>
<!-- life stage&#45;&gt;id -->
<g id="edge3" class="edge">
<title>life stage&#45;&gt;id</title>
<path fill="none" stroke="#0000ff" d="M774.3072,-97.7312C707.1821,-87.2813 584.1038,-65.9234 481.9418,-36 478.963,-35.1275 475.9051,-34.1587 472.8447,-33.136"/>
<polygon fill="#0000ff" stroke="#0000ff" points="473.751,-29.7449 463.1561,-29.7378 471.4341,-36.3504 473.751,-29.7449"/>
<text text-anchor="middle" x="619.9418" y="-57.8" font-family="Times,serif" font-size="14.00" fill="#000000">id</text>
</g>
<!-- iri -->
<g id="node5" class="node">
<title>iri</title>
<ellipse fill="none" stroke="#0000ff" cx="534.9418" cy="-18" rx="44.393" ry="18"/>
<text text-anchor="middle" x="534.9418" y="-14.3" font-family="Times,serif" font-size="14.00" fill="#000000">iri type</text>
</g>
<!-- life stage&#45;&gt;iri -->
<g id="edge4" class="edge">
<title>life stage&#45;&gt;iri</title>
<path fill="none" stroke="#0000ff" d="M782.6051,-93.4313C735.5428,-80.1286 656.4374,-57.3682 588.9418,-36 585.6384,-34.9542 582.227,-33.8572 578.799,-32.7427"/>
<polygon fill="#0000ff" stroke="#0000ff" points="579.7633,-29.3756 569.1705,-29.5832 577.5808,-36.0266 579.7633,-29.3756"/>
<text text-anchor="middle" x="699.9418" y="-57.8" font-family="Times,serif" font-size="14.00" fill="#000000">iri</text>
</g>
<!-- type -->
<g id="node6" class="node">
<title>type</title>
<ellipse fill="none" stroke="#0000ff" cx="635.9418" cy="-18" rx="38.1938" ry="18"/>
<text text-anchor="middle" x="635.9418" y="-14.3" font-family="Times,serif" font-size="14.00" fill="#000000">string</text>
</g>
<!-- life stage&#45;&gt;type -->
<g id="edge5" class="edge">
<title>life stage&#45;&gt;type</title>
<path fill="none" stroke="#0000ff" d="M792.0501,-90.2416C759.0138,-74.9536 707.452,-51.0925 672.7177,-35.0187"/>
<polygon fill="#0000ff" stroke="#0000ff" points="673.9418,-31.7286 663.3965,-30.7051 671.0019,-38.0813 673.9418,-31.7286"/>
<text text-anchor="middle" x="757.9418" y="-57.8" font-family="Times,serif" font-size="14.00" fill="#000000">type</text>
</g>
<!-- name -->
<g id="node7" class="node">
<title>name</title>
<ellipse fill="none" stroke="#0000ff" cx="748.9418" cy="-18" rx="56.59" ry="18"/>
<text text-anchor="middle" x="748.9418" y="-14.3" font-family="Times,serif" font-size="14.00" fill="#000000">label type</text>
</g>
<!-- life stage&#45;&gt;name -->
<g id="edge6" class="edge">
<title>life stage&#45;&gt;name</title>
<path fill="none" stroke="#0000ff" d="M808.7644,-87.3943C797.887,-74.7765 783.07,-57.5887 770.9037,-43.4759"/>
<polygon fill="#0000ff" stroke="#0000ff" points="773.2769,-40.8684 764.0966,-35.5796 767.975,-45.439 773.2769,-40.8684"/>
<text text-anchor="middle" x="810.9418" y="-57.8" font-family="Times,serif" font-size="14.00" fill="#000000">name</text>
</g>
<!-- description -->
<g id="node8" class="node">
<title>description</title>
<ellipse fill="none" stroke="#0000ff" cx="898.9418" cy="-18" rx="75.2868" ry="18"/>
<text text-anchor="middle" x="898.9418" y="-14.3" font-family="Times,serif" font-size="14.00" fill="#000000">narrative text</text>
</g>
<!-- life stage&#45;&gt;description -->
<g id="edge7" class="edge">
<title>life stage&#45;&gt;description</title>
<path fill="none" stroke="#0000ff" d="M839.1191,-87.3943C849.9249,-74.8595 864.6187,-57.8147 876.7393,-43.7548"/>
<polygon fill="#0000ff" stroke="#0000ff" points="879.651,-45.7376 883.5295,-35.8782 874.3492,-41.167 879.651,-45.7376"/>
<text text-anchor="middle" x="906.9418" y="-57.8" font-family="Times,serif" font-size="14.00" fill="#000000">description</text>
</g>
<!-- source -->
<g id="node9" class="node">
<title>source</title>
<ellipse fill="none" stroke="#0000ff" cx="1048.9418" cy="-18" rx="56.59" ry="18"/>
<text text-anchor="middle" x="1048.9418" y="-14.3" font-family="Times,serif" font-size="14.00" fill="#000000">label type</text>
</g>
<!-- life stage&#45;&gt;source -->
<g id="edge8" class="edge">
<title>life stage&#45;&gt;source</title>
<path fill="none" stroke="#0000ff" d="M864.6021,-93.0926C871.7093,-91.0407 879.0368,-88.9438 885.9418,-87 915.2089,-78.7612 923.6517,-80.1407 951.9418,-69 973.0469,-60.6888 995.5316,-49.058 1013.5338,-39.0019"/>
<polygon fill="#0000ff" stroke="#0000ff" points="1015.536,-41.8902 1022.5082,-33.9127 1012.083,-35.8011 1015.536,-41.8902"/>
<text text-anchor="middle" x="1009.4418" y="-57.8" font-family="Times,serif" font-size="14.00" fill="#000000">source</text>
</g>
<!-- provided by -->
<g id="node10" class="node">
<title>provided by</title>
<ellipse fill="none" stroke="#0000ff" cx="1160.9418" cy="-18" rx="37.0935" ry="18"/>
<text text-anchor="middle" x="1160.9418" y="-14.3" font-family="Times,serif" font-size="14.00" fill="#000000">agent</text>
</g>
<!-- life stage&#45;&gt;provided by -->
<g id="edge9" class="edge">
<title>life stage&#45;&gt;provided by</title>
<path fill="none" stroke="#0000ff" d="M863.0572,-92.5878C870.5965,-90.4963 878.4723,-88.5158 885.9418,-87 952.6104,-73.4708 972.1219,-86.1903 1037.9418,-69 1068.745,-60.9551 1102.003,-46.8062 1126.16,-35.4491"/>
<polygon fill="#0000ff" stroke="#0000ff" points="1127.7584,-38.5645 1135.2719,-31.0947 1124.7401,-32.2486 1127.7584,-38.5645"/>
<text text-anchor="middle" x="1126.4418" y="-57.8" font-family="Times,serif" font-size="14.00" fill="#000000">provided by</text>
</g>
<!-- category -->
<g id="node11" class="node">
<title>category</title>
<ellipse fill="none" stroke="#000000" cx="1267.9418" cy="-18" rx="51.9908" ry="18"/>
<text text-anchor="middle" x="1267.9418" y="-14.3" font-family="Times,serif" font-size="14.00" fill="#000000">category</text>
</g>
<!-- life stage&#45;&gt;category -->
<g id="edge10" class="edge">
<title>life stage&#45;&gt;category</title>
<path fill="none" stroke="#0000ff" d="M862.6615,-92.3441C870.307,-90.2481 878.3229,-88.3282 885.9418,-87 1011.849,-65.0506 1050.0306,-104.0325 1172.9418,-69 1195.1706,-62.6643 1218.0572,-50.5756 1235.7956,-39.7576"/>
<polygon fill="#0000ff" stroke="#0000ff" points="1237.9596,-42.5318 1244.5717,-34.2535 1234.2403,-36.6016 1237.9596,-42.5318"/>
<text text-anchor="middle" x="1240.9418" y="-57.8" font-family="Times,serif" font-size="14.00" fill="#000000">category</text>
</g>
<!-- has attribute -->
<g id="node13" class="node">
<title>has attribute</title>
<ellipse fill="none" stroke="#000000" cx="1408.9418" cy="-18" rx="71.4873" ry="18"/>
<text text-anchor="middle" x="1408.9418" y="-14.3" font-family="Times,serif" font-size="14.00" fill="#000000">has attribute</text>
</g>
<!-- life stage&#45;&gt;has attribute -->
<g id="edge11" class="edge">
<title>life stage&#45;&gt;has attribute</title>
<path fill="none" stroke="#0000ff" d="M862.312,-92.3335C870.0586,-90.2104 878.2015,-88.2831 885.9418,-87 1057.5614,-58.5501 1106.7062,-104.813 1276.9418,-69 1308.066,-62.4523 1341.4684,-49.4843 1366.885,-38.2641"/>
<polygon fill="#0000ff" stroke="#0000ff" points="1368.5307,-41.3617 1376.2138,-34.0665 1365.6583,-34.9782 1368.5307,-41.3617"/>
<text text-anchor="middle" x="1372.9418" y="-57.8" font-family="Times,serif" font-size="14.00" fill="#000000">has attribute</text>
</g>
<!-- in taxon -->
<g id="node15" class="node">
<title>in taxon</title>
<ellipse fill="none" stroke="#0000ff" cx="1581.9418" cy="-18" rx="83.3857" ry="18"/>
<text text-anchor="middle" x="1581.9418" y="-14.3" font-family="Times,serif" font-size="14.00" fill="#000000">organism taxon</text>
</g>
<!-- life stage&#45;&gt;in taxon -->
<g id="edge12" class="edge">
<title>life stage&#45;&gt;in taxon</title>
<path fill="none" stroke="#0000ff" d="M862.2995,-92.2565C870.0472,-90.1397 878.1936,-88.2345 885.9418,-87 1122.2066,-49.3564 1188.2614,-110.1445 1423.9418,-69 1461.4777,-62.4471 1502.3784,-49.0627 1533.1601,-37.6494"/>
<polygon fill="#0000ff" stroke="#0000ff" points="1534.6578,-40.8254 1542.7815,-34.0242 1532.1896,-34.2749 1534.6578,-40.8254"/>
<text text-anchor="middle" x="1509.9418" y="-57.8" font-family="Times,serif" font-size="14.00" fill="#000000">in taxon</text>
</g>
<!-- named thing_category -->
<g id="node12" class="node">
<title>named thing_category</title>
<ellipse fill="none" stroke="#0000ff" cx="964.9418" cy="-105" rx="69.5877" ry="18"/>
<text text-anchor="middle" x="964.9418" y="-101.3" font-family="Times,serif" font-size="14.00" fill="#000000">named thing</text>
</g>
<!-- organismal entity_has attribute -->
<g id="node14" class="node">
<title>organismal entity_has attribute</title>
<ellipse fill="none" stroke="#0000ff" cx="1104.9418" cy="-105" rx="51.9908" ry="18"/>
<text text-anchor="middle" x="1104.9418" y="-101.3" font-family="Times,serif" font-size="14.00" fill="#000000">attribute</text>
</g>
</g>
</svg>
