<?xml version="1.0" encoding="UTF-8" standalone="no"?>
<!DOCTYPE svg PUBLIC "-//W3C//DTD SVG 1.1//EN"
 "http://www.w3.org/Graphics/SVG/1.1/DTD/svg11.dtd">
<!-- Generated by graphviz version 2.43.0 (0)
 -->
<!-- Title: %3 Pages: 1 -->
<svg width="1772pt" height="131pt"
 viewBox="0.00 0.00 1772.13 131.00" xmlns="http://www.w3.org/2000/svg" xmlns:xlink="http://www.w3.org/1999/xlink">
<g id="graph0" class="graph" transform="scale(1 1) rotate(0) translate(4 127)">
<title>%3</title>
<polygon fill="white" stroke="transparent" points="-4,4 -4,-127 1768.13,-127 1768.13,4 -4,4"/>
<!-- life stage -->
<g id="node1" class="node">
<title>life stage</title>
<ellipse fill="none" stroke="black" cx="898.94" cy="-105" rx="53.89" ry="18"/>
<text text-anchor="middle" x="898.94" y="-101.3" font-family="Times,serif" font-size="14.00">life stage</text>
</g>
<!-- organismal entity -->
<g id="node2" class="node">
<title>organismal entity</title>
<ellipse fill="none" stroke="black" cx="92.94" cy="-18" rx="92.88" ry="18"/>
<text text-anchor="middle" x="92.94" y="-14.3" font-family="Times,serif" font-size="14.00">organismal entity</text>
</g>
<!-- life stage&#45;&gt;organismal entity -->
<g id="edge1" class="edge">
<title>life stage&#45;&gt;organismal entity</title>
<path fill="none" stroke="black" d="M845.82,-101.49C756.61,-96.99 571.1,-86.33 414.94,-69 316.67,-58.09 292.6,-51.46 194.94,-36 187,-34.74 178.71,-33.4 170.45,-32.05"/>
<polygon fill="black" stroke="black" points="170.84,-28.57 160.4,-30.4 169.7,-35.48 170.84,-28.57"/>
<text text-anchor="middle" x="428.94" y="-57.8" font-family="Times,serif" font-size="14.00">is_a</text>
</g>
<!-- thing with taxon -->
<g id="node3" class="node">
<title>thing with taxon</title>
<ellipse fill="none" stroke="black" cx="290.94" cy="-18" rx="87.18" ry="18"/>
<text text-anchor="middle" x="290.94" y="-14.3" font-family="Times,serif" font-size="14.00">thing with taxon</text>
</g>
<!-- life stage&#45;&gt;thing with taxon -->
<g id="edge2" class="edge">
<title>life stage&#45;&gt;thing with taxon</title>
<path fill="none" stroke="black" d="M846.22,-101.05C773.43,-96.53 638.18,-86.53 523.94,-69 466.03,-60.12 400.89,-45.76 354.24,-34.71"/>
<polygon fill="black" stroke="black" points="354.82,-31.25 344.28,-32.33 353.2,-38.06 354.82,-31.25"/>
<text text-anchor="middle" x="540.44" y="-57.8" font-family="Times,serif" font-size="14.00">uses</text>
</g>
<!-- id -->
<g id="node4" class="node">
<title>id</title>
<ellipse fill="none" stroke="blue" cx="433.94" cy="-18" rx="38.19" ry="18"/>
<text text-anchor="middle" x="433.94" y="-14.3" font-family="Times,serif" font-size="14.00">string</text>
</g>
<!-- life stage&#45;&gt;id -->
<g id="edge3" class="edge">
<title>life stage&#45;&gt;id</title>
<path fill="none" stroke="blue" d="M847.41,-99.42C767.83,-91.49 610.75,-72.45 481.94,-36 478.84,-35.12 475.64,-34.15 472.44,-33.12"/>
<polygon fill="blue" stroke="blue" points="473.53,-29.8 462.94,-29.95 471.31,-36.44 473.53,-29.8"/>
<text text-anchor="middle" x="624.94" y="-57.8" font-family="Times,serif" font-size="14.00">id</text>
</g>
<!-- iri -->
<g id="node5" class="node">
<title>iri</title>
<ellipse fill="none" stroke="blue" cx="534.94" cy="-18" rx="44.39" ry="18"/>
<text text-anchor="middle" x="534.94" y="-14.3" font-family="Times,serif" font-size="14.00">iri type</text>
</g>
<!-- life stage&#45;&gt;iri -->
<g id="edge4" class="edge">
<title>life stage&#45;&gt;iri</title>
<path fill="none" stroke="blue" d="M851.87,-95.96C814.59,-89.37 761.25,-79.46 714.94,-69 658.47,-56.25 644.57,-52.03 588.94,-36 585.43,-34.99 581.8,-33.91 578.16,-32.81"/>
<polygon fill="blue" stroke="blue" points="579.15,-29.45 568.57,-29.86 577.1,-36.15 579.15,-29.45"/>
<text text-anchor="middle" x="722.94" y="-57.8" font-family="Times,serif" font-size="14.00">iri</text>
</g>
<!-- type -->
<g id="node6" class="node">
<title>type</title>
<ellipse fill="none" stroke="blue" cx="635.94" cy="-18" rx="38.19" ry="18"/>
<text text-anchor="middle" x="635.94" y="-14.3" font-family="Times,serif" font-size="14.00">string</text>
</g>
<!-- life stage&#45;&gt;type -->
<g id="edge5" class="edge">
<title>life stage&#45;&gt;type</title>
<path fill="none" stroke="blue" d="M859.15,-92.75C835.97,-86.08 806.22,-77.33 779.94,-69 736.53,-55.24 725.91,-51.08 682.94,-36 680.26,-35.06 677.49,-34.08 674.7,-33.08"/>
<polygon fill="blue" stroke="blue" points="675.84,-29.78 665.24,-29.7 673.48,-36.37 675.84,-29.78"/>
<text text-anchor="middle" x="795.94" y="-57.8" font-family="Times,serif" font-size="14.00">type</text>
</g>
<!-- name -->
<g id="node7" class="node">
<title>name</title>
<ellipse fill="none" stroke="blue" cx="748.94" cy="-18" rx="56.59" ry="18"/>
<text text-anchor="middle" x="748.94" y="-14.3" font-family="Times,serif" font-size="14.00">label type</text>
</g>
<!-- life stage&#45;&gt;name -->
<g id="edge6" class="edge">
<title>life stage&#45;&gt;name</title>
<path fill="none" stroke="blue" d="M872.81,-89.19C848.3,-75.31 811.46,-54.43 784.33,-39.05"/>
<polygon fill="blue" stroke="blue" points="785.95,-35.95 775.53,-34.06 782.5,-42.04 785.95,-35.95"/>
<text text-anchor="middle" x="852.94" y="-57.8" font-family="Times,serif" font-size="14.00">name</text>
</g>
<!-- description -->
<g id="node8" class="node">
<title>description</title>
<ellipse fill="none" stroke="blue" cx="898.94" cy="-18" rx="75.29" ry="18"/>
<text text-anchor="middle" x="898.94" y="-14.3" font-family="Times,serif" font-size="14.00">narrative text</text>
</g>
<!-- life stage&#45;&gt;description -->
<g id="edge7" class="edge">
<title>life stage&#45;&gt;description</title>
<path fill="none" stroke="blue" d="M898.94,-86.8C898.94,-75.16 898.94,-59.55 898.94,-46.24"/>
<polygon fill="blue" stroke="blue" points="902.44,-46.18 898.94,-36.18 895.44,-46.18 902.44,-46.18"/>
<text text-anchor="middle" x="939.44" y="-57.8" font-family="Times,serif" font-size="14.00">description</text>
</g>
<!-- source -->
<g id="node9" class="node">
<title>source</title>
<ellipse fill="none" stroke="blue" cx="1030.94" cy="-18" rx="38.19" ry="18"/>
<text text-anchor="middle" x="1030.94" y="-14.3" font-family="Times,serif" font-size="14.00">string</text>
</g>
<!-- life stage&#45;&gt;source -->
<g id="edge8" class="edge">
<title>life stage&#45;&gt;source</title>
<path fill="none" stroke="blue" d="M937.09,-92.24C952.4,-86.54 969.75,-78.78 983.94,-69 994.41,-61.78 1004.32,-51.89 1012.32,-42.81"/>
<polygon fill="blue" stroke="blue" points="1015.03,-45.02 1018.82,-35.13 1009.69,-40.5 1015.03,-45.02"/>
<text text-anchor="middle" x="1025.94" y="-57.8" font-family="Times,serif" font-size="14.00">source</text>
</g>
<!-- provided by -->
<g id="node10" class="node">
<title>provided by</title>
<ellipse fill="none" stroke="blue" cx="1125.94" cy="-18" rx="38.19" ry="18"/>
<text text-anchor="middle" x="1125.94" y="-14.3" font-family="Times,serif" font-size="14.00">string</text>
</g>
<!-- life stage&#45;&gt;provided by -->
<g id="edge9" class="edge">
<title>life stage&#45;&gt;provided by</title>
<path fill="none" stroke="blue" d="M938.83,-92.78C946.48,-90.76 954.44,-88.74 961.94,-87 1002.52,-77.57 1015.57,-85.23 1053.94,-69 1070.61,-61.95 1087.34,-50.66 1100.46,-40.59"/>
<polygon fill="blue" stroke="blue" points="1102.86,-43.15 1108.53,-34.2 1098.52,-37.66 1102.86,-43.15"/>
<text text-anchor="middle" x="1124.44" y="-57.8" font-family="Times,serif" font-size="14.00">provided by</text>
</g>
<!-- xref -->
<g id="node11" class="node">
<title>xref</title>
<ellipse fill="none" stroke="blue" cx="1239.94" cy="-18" rx="57.39" ry="18"/>
<text text-anchor="middle" x="1239.94" y="-14.3" font-family="Times,serif" font-size="14.00">uriorcurie</text>
</g>
<!-- life stage&#45;&gt;xref -->
<g id="edge10" class="edge">
<title>life stage&#45;&gt;xref</title>
<path fill="none" stroke="blue" d="M937.68,-92.39C945.65,-90.33 954.02,-88.4 961.94,-87 1053.75,-70.79 1083.57,-101.54 1170.94,-69 1187.2,-62.94 1203.05,-51.94 1215.45,-41.79"/>
<polygon fill="blue" stroke="blue" points="1217.72,-44.46 1223.07,-35.31 1213.18,-39.13 1217.72,-44.46"/>
<text text-anchor="middle" x="1212.44" y="-57.8" font-family="Times,serif" font-size="14.00">xref</text>
</g>
<!-- category -->
<g id="node12" class="node">
<title>category</title>
<ellipse fill="none" stroke="black" cx="1366.94" cy="-18" rx="51.19" ry="18"/>
<text text-anchor="middle" x="1366.94" y="-14.3" font-family="Times,serif" font-size="14.00">category</text>
</g>
<!-- life stage&#45;&gt;category -->
<g id="edge11" class="edge">
<title>life stage&#45;&gt;category</title>
<path fill="none" stroke="blue" d="M937.66,-92.27C945.63,-90.22 954.01,-88.32 961.94,-87 1080.13,-67.3 1113.74,-93.93 1230.94,-69 1264.58,-61.85 1301.08,-48.07 1327.78,-36.79"/>
<polygon fill="blue" stroke="blue" points="1329.35,-39.93 1337.16,-32.76 1326.59,-33.5 1329.35,-39.93"/>
<text text-anchor="middle" x="1312.44" y="-57.8" font-family="Times,serif" font-size="14.00">category</text>
</g>
<!-- has attribute -->
<g id="node14" class="node">
<title>has attribute</title>
<ellipse fill="none" stroke="black" cx="1507.94" cy="-18" rx="71.49" ry="18"/>
<text text-anchor="middle" x="1507.94" y="-14.3" font-family="Times,serif" font-size="14.00">has attribute</text>
</g>
<!-- life stage&#45;&gt;has attribute -->
<g id="edge12" class="edge">
<title>life stage&#45;&gt;has attribute</title>
<path fill="none" stroke="blue" d="M937.31,-92.23C945.37,-90.16 953.88,-88.26 961.94,-87 1131.62,-60.47 1178.82,-98.86 1347.94,-69 1387.16,-62.08 1430.17,-48.27 1461.71,-36.91"/>
<polygon fill="blue" stroke="blue" points="1462.92,-40.2 1471.11,-33.48 1460.52,-33.62 1462.92,-40.2"/>
<text text-anchor="middle" x="1453.94" y="-57.8" font-family="Times,serif" font-size="14.00">has attribute</text>
</g>
<!-- in taxon -->
<g id="node16" class="node">
<title>in taxon</title>
<ellipse fill="none" stroke="blue" cx="1680.94" cy="-18" rx="83.39" ry="18"/>
<text text-anchor="middle" x="1680.94" y="-14.3" font-family="Times,serif" font-size="14.00">organism taxon</text>
</g>
<!-- life stage&#45;&gt;in taxon -->
<g id="edge13" class="edge">
<title>life stage&#45;&gt;in taxon</title>
<path fill="none" stroke="blue" d="M937.29,-92.15C945.36,-90.08 953.87,-88.21 961.94,-87 1200.76,-51.31 1266.37,-106.27 1504.94,-69 1547.93,-62.28 1595.3,-48.44 1630.06,-37.02"/>
<polygon fill="blue" stroke="blue" points="1631.59,-40.2 1639.97,-33.72 1629.38,-33.56 1631.59,-40.2"/>
<text text-anchor="middle" x="1596.94" y="-57.8" font-family="Times,serif" font-size="14.00">in taxon</text>
</g>
<!-- named thing_category -->
<g id="node13" class="node">
<title>named thing_category</title>
<ellipse fill="none" stroke="blue" cx="1045.94" cy="-105" rx="74.99" ry="18"/>
<text text-anchor="middle" x="1045.94" y="-101.3" font-family="Times,serif" font-size="14.00">category type</text>
</g>
<!-- organismal entity_has attribute -->
<g id="node15" class="node">
<title>organismal entity_has attribute</title>
<ellipse fill="none" stroke="blue" cx="1190.94" cy="-105" rx="51.99" ry="18"/>
<text text-anchor="middle" x="1190.94" y="-101.3" font-family="Times,serif" font-size="14.00">attribute</text>
</g>
</g>
</svg>
