<?xml version="1.0" encoding="UTF-8" standalone="no"?>
<!DOCTYPE svg PUBLIC "-//W3C//DTD SVG 1.1//EN"
 "http://www.w3.org/Graphics/SVG/1.1/DTD/svg11.dtd">
<!-- Generated by graphviz version 2.43.0 (0)
 -->
<!-- Title: %3 Pages: 1 -->
<svg width="1948pt" height="131pt"
 viewBox="0.00 0.00 1948.14 131.00" xmlns="http://www.w3.org/2000/svg" xmlns:xlink="http://www.w3.org/1999/xlink">
<g id="graph0" class="graph" transform="scale(1 1) rotate(0) translate(4 127)">
<title>%3</title>
<polygon fill="white" stroke="transparent" points="-4,4 -4,-127 1944.14,-127 1944.14,4 -4,4"/>
<!-- log odds analysis result -->
<g id="node1" class="node">
<title>log odds analysis result</title>
<ellipse fill="none" stroke="black" cx="1020.94" cy="-105" rx="120.48" ry="18"/>
<text text-anchor="middle" x="1020.94" y="-101.3" font-family="Times,serif" font-size="14.00">log odds analysis result</text>
</g>
<!-- study result -->
<g id="node2" class="node">
<title>study result</title>
<ellipse fill="none" stroke="black" cx="66.94" cy="-18" rx="66.89" ry="18"/>
<text text-anchor="middle" x="66.94" y="-14.3" font-family="Times,serif" font-size="14.00">study result</text>
</g>
<!-- log odds analysis result&#45;&gt;study result -->
<g id="edge1" class="edge">
<title>log odds analysis result&#45;&gt;study result</title>
<path fill="none" stroke="black" d="M903.31,-101.19C724.49,-96.46 392.64,-85.75 274.94,-69 221.33,-61.37 161.31,-46.21 119.58,-34.57"/>
<polygon fill="black" stroke="black" points="120.48,-31.19 109.91,-31.85 118.58,-37.93 120.48,-31.19"/>
<text text-anchor="middle" x="288.94" y="-57.8" font-family="Times,serif" font-size="14.00">is_a</text>
</g>
<!-- id -->
<g id="node3" class="node">
<title>id</title>
<ellipse fill="none" stroke="blue" cx="189.94" cy="-18" rx="38.19" ry="18"/>
<text text-anchor="middle" x="189.94" y="-14.3" font-family="Times,serif" font-size="14.00">string</text>
</g>
<!-- log odds analysis result&#45;&gt;id -->
<g id="edge2" class="edge">
<title>log odds analysis result&#45;&gt;id</title>
<path fill="none" stroke="blue" d="M901.5,-102.81C774.78,-100.27 568.96,-92.5 392.94,-69 323.13,-59.68 305.73,-55.13 237.94,-36 234.84,-35.12 231.64,-34.15 228.45,-33.13"/>
<polygon fill="blue" stroke="blue" points="229.53,-29.8 218.94,-29.95 227.32,-36.44 229.53,-29.8"/>
<text text-anchor="middle" x="399.94" y="-57.8" font-family="Times,serif" font-size="14.00">id</text>
</g>
<!-- iri -->
<g id="node4" class="node">
<title>iri</title>
<ellipse fill="none" stroke="blue" cx="290.94" cy="-18" rx="44.39" ry="18"/>
<text text-anchor="middle" x="290.94" y="-14.3" font-family="Times,serif" font-size="14.00">iri type</text>
</g>
<!-- log odds analysis result&#45;&gt;iri -->
<g id="edge3" class="edge">
<title>log odds analysis result&#45;&gt;iri</title>
<path fill="none" stroke="blue" d="M901.87,-102.35C791.62,-99.4 623.39,-91.27 478.94,-69 428.23,-61.18 371.5,-45.03 333.75,-33.2"/>
<polygon fill="blue" stroke="blue" points="334.7,-29.82 324.11,-30.13 332.58,-36.5 334.7,-29.82"/>
<text text-anchor="middle" x="486.94" y="-57.8" font-family="Times,serif" font-size="14.00">iri</text>
</g>
<!-- type -->
<g id="node5" class="node">
<title>type</title>
<ellipse fill="none" stroke="blue" cx="391.94" cy="-18" rx="38.19" ry="18"/>
<text text-anchor="middle" x="391.94" y="-14.3" font-family="Times,serif" font-size="14.00">string</text>
</g>
<!-- log odds analysis result&#45;&gt;type -->
<g id="edge4" class="edge">
<title>log odds analysis result&#45;&gt;type</title>
<path fill="none" stroke="blue" d="M904.37,-100.55C812.48,-96.49 681.37,-87.74 567.94,-69 509.56,-59.35 495.5,-53.42 438.94,-36 436.18,-35.15 433.35,-34.23 430.5,-33.28"/>
<polygon fill="blue" stroke="blue" points="431.47,-29.92 420.88,-29.96 429.19,-36.53 431.47,-29.92"/>
<text text-anchor="middle" x="583.94" y="-57.8" font-family="Times,serif" font-size="14.00">type</text>
</g>
<!-- name -->
<g id="node6" class="node">
<title>name</title>
<ellipse fill="none" stroke="blue" cx="504.94" cy="-18" rx="56.59" ry="18"/>
<text text-anchor="middle" x="504.94" y="-14.3" font-family="Times,serif" font-size="14.00">label type</text>
</g>
<!-- log odds analysis result&#45;&gt;name -->
<g id="edge5" class="edge">
<title>log odds analysis result&#45;&gt;name</title>
<path fill="none" stroke="blue" d="M906.67,-99.32C834.95,-94.82 740.85,-86.04 658.94,-69 620.83,-61.07 578.87,-47.08 548.4,-35.92"/>
<polygon fill="blue" stroke="blue" points="549.51,-32.6 538.92,-32.4 547.08,-39.16 549.51,-32.6"/>
<text text-anchor="middle" x="678.94" y="-57.8" font-family="Times,serif" font-size="14.00">name</text>
</g>
<!-- description -->
<g id="node7" class="node">
<title>description</title>
<ellipse fill="none" stroke="blue" cx="654.94" cy="-18" rx="75.29" ry="18"/>
<text text-anchor="middle" x="654.94" y="-14.3" font-family="Times,serif" font-size="14.00">narrative text</text>
</g>
<!-- log odds analysis result&#45;&gt;description -->
<g id="edge6" class="edge">
<title>log odds analysis result&#45;&gt;description</title>
<path fill="none" stroke="blue" d="M902.36,-101.99C848.68,-97.99 785.23,-88.88 730.94,-69 713.63,-62.66 696.3,-51.7 682.57,-41.66"/>
<polygon fill="blue" stroke="blue" points="684.6,-38.81 674.52,-35.57 680.38,-44.39 684.6,-38.81"/>
<text text-anchor="middle" x="771.44" y="-57.8" font-family="Times,serif" font-size="14.00">description</text>
</g>
<!-- has attribute -->
<g id="node8" class="node">
<title>has attribute</title>
<ellipse fill="none" stroke="blue" cx="799.94" cy="-18" rx="51.99" ry="18"/>
<text text-anchor="middle" x="799.94" y="-14.3" font-family="Times,serif" font-size="14.00">attribute</text>
</g>
<!-- log odds analysis result&#45;&gt;has attribute -->
<g id="edge7" class="edge">
<title>log odds analysis result&#45;&gt;has attribute</title>
<path fill="none" stroke="blue" d="M925.13,-94.08C885.42,-88.44 844.92,-80.23 828.94,-69 820.62,-63.15 814.35,-54.1 809.8,-45.29"/>
<polygon fill="blue" stroke="blue" points="812.88,-43.62 805.53,-36 806.52,-46.55 812.88,-43.62"/>
<text text-anchor="middle" x="875.94" y="-57.8" font-family="Times,serif" font-size="14.00">has attribute</text>
</g>
<!-- deprecated -->
<g id="node9" class="node">
<title>deprecated</title>
<ellipse fill="none" stroke="blue" cx="916.94" cy="-18" rx="46.59" ry="18"/>
<text text-anchor="middle" x="916.94" y="-14.3" font-family="Times,serif" font-size="14.00">boolean</text>
</g>
<!-- log odds analysis result&#45;&gt;deprecated -->
<g id="edge8" class="edge">
<title>log odds analysis result&#45;&gt;deprecated</title>
<path fill="none" stroke="blue" d="M965.63,-88.92C954.76,-83.96 944.18,-77.46 935.94,-69 929.78,-62.66 925.57,-54.11 922.71,-45.88"/>
<polygon fill="blue" stroke="blue" points="926.04,-44.78 919.86,-36.17 919.32,-46.75 926.04,-44.78"/>
<text text-anchor="middle" x="976.44" y="-57.8" font-family="Times,serif" font-size="14.00">deprecated</text>
</g>
<!-- provided by -->
<g id="node10" class="node">
<title>provided by</title>
<ellipse fill="none" stroke="blue" cx="1019.94" cy="-18" rx="38.19" ry="18"/>
<text text-anchor="middle" x="1019.94" y="-14.3" font-family="Times,serif" font-size="14.00">string</text>
</g>
<!-- log odds analysis result&#45;&gt;provided by -->
<g id="edge9" class="edge">
<title>log odds analysis result&#45;&gt;provided by</title>
<path fill="none" stroke="blue" d="M1020.74,-86.8C1020.6,-75.16 1020.42,-59.55 1020.26,-46.24"/>
<polygon fill="blue" stroke="blue" points="1023.76,-46.13 1020.15,-36.18 1016.76,-46.22 1023.76,-46.13"/>
<text text-anchor="middle" x="1063.44" y="-57.8" font-family="Times,serif" font-size="14.00">provided by</text>
</g>
<!-- xref -->
<g id="node11" class="node">
<title>xref</title>
<ellipse fill="none" stroke="blue" cx="1133.94" cy="-18" rx="57.39" ry="18"/>
<text text-anchor="middle" x="1133.94" y="-14.3" font-family="Times,serif" font-size="14.00">uriorcurie</text>
</g>
<!-- log odds analysis result&#45;&gt;xref -->
<g id="edge10" class="edge">
<title>log odds analysis result&#45;&gt;xref</title>
<path fill="none" stroke="blue" d="M1077.83,-88.97C1089.41,-83.99 1100.82,-77.48 1109.94,-69 1116.74,-62.69 1121.81,-54.05 1125.51,-45.72"/>
<polygon fill="blue" stroke="blue" points="1128.83,-46.85 1129.23,-36.26 1122.31,-44.29 1128.83,-46.85"/>
<text text-anchor="middle" x="1135.44" y="-57.8" font-family="Times,serif" font-size="14.00">xref</text>
</g>
<!-- full name -->
<g id="node12" class="node">
<title>full name</title>
<ellipse fill="none" stroke="blue" cx="1265.94" cy="-18" rx="56.59" ry="18"/>
<text text-anchor="middle" x="1265.94" y="-14.3" font-family="Times,serif" font-size="14.00">label type</text>
</g>
<!-- log odds analysis result&#45;&gt;full name -->
<g id="edge11" class="edge">
<title>log odds analysis result&#45;&gt;full name</title>
<path fill="none" stroke="blue" d="M1084.16,-89.6C1106.45,-83.94 1131.54,-76.89 1153.94,-69 1179.14,-60.13 1206.53,-47.95 1227.92,-37.83"/>
<polygon fill="blue" stroke="blue" points="1229.49,-40.96 1237,-33.49 1226.47,-34.64 1229.49,-40.96"/>
<text text-anchor="middle" x="1225.44" y="-57.8" font-family="Times,serif" font-size="14.00">full name</text>
</g>
<!-- synonym -->
<g id="node13" class="node">
<title>synonym</title>
<ellipse fill="none" stroke="blue" cx="1396.94" cy="-18" rx="56.59" ry="18"/>
<text text-anchor="middle" x="1396.94" y="-14.3" font-family="Times,serif" font-size="14.00">label type</text>
</g>
<!-- log odds analysis result&#45;&gt;synonym -->
<g id="edge12" class="edge">
<title>log odds analysis result&#45;&gt;synonym</title>
<path fill="none" stroke="blue" d="M1107.3,-92.43C1170.54,-83.79 1247.86,-72.86 1262.94,-69 1294.83,-60.84 1329.63,-47.73 1355.77,-36.97"/>
<polygon fill="blue" stroke="blue" points="1357.46,-40.06 1365.34,-32.98 1354.76,-33.6 1357.46,-40.06"/>
<text text-anchor="middle" x="1340.94" y="-57.8" font-family="Times,serif" font-size="14.00">synonym</text>
</g>
<!-- category -->
<g id="node14" class="node">
<title>category</title>
<ellipse fill="none" stroke="black" cx="1522.94" cy="-18" rx="51.19" ry="18"/>
<text text-anchor="middle" x="1522.94" y="-14.3" font-family="Times,serif" font-size="14.00">category</text>
</g>
<!-- log odds analysis result&#45;&gt;category -->
<g id="edge13" class="edge">
<title>log odds analysis result&#45;&gt;category</title>
<path fill="none" stroke="blue" d="M1105.87,-92.17C1120.55,-90.31 1135.68,-88.5 1149.94,-87 1250.59,-76.39 1277.85,-89.56 1376.94,-69 1413.36,-61.45 1453.21,-47.38 1482.06,-36.09"/>
<polygon fill="blue" stroke="blue" points="1483.4,-39.33 1491.4,-32.38 1480.82,-32.82 1483.4,-39.33"/>
<text text-anchor="middle" x="1462.44" y="-57.8" font-family="Times,serif" font-size="14.00">category</text>
</g>
<!-- license -->
<g id="node16" class="node">
<title>license</title>
<ellipse fill="none" stroke="blue" cx="1630.94" cy="-18" rx="38.19" ry="18"/>
<text text-anchor="middle" x="1630.94" y="-14.3" font-family="Times,serif" font-size="14.00">string</text>
</g>
<!-- log odds analysis result&#45;&gt;license -->
<g id="edge14" class="edge">
<title>log odds analysis result&#45;&gt;license</title>
<path fill="none" stroke="blue" d="M1104.45,-92.01C1119.57,-90.12 1135.21,-88.35 1149.94,-87 1304.17,-72.87 1346.33,-100.62 1497.94,-69 1532.36,-61.82 1569.67,-47.14 1595.99,-35.54"/>
<polygon fill="blue" stroke="blue" points="1597.47,-38.71 1605.16,-31.42 1594.61,-32.32 1597.47,-38.71"/>
<text text-anchor="middle" x="1571.94" y="-57.8" font-family="Times,serif" font-size="14.00">license</text>
</g>
<!-- rights -->
<g id="node17" class="node">
<title>rights</title>
<ellipse fill="none" stroke="blue" cx="1725.94" cy="-18" rx="38.19" ry="18"/>
<text text-anchor="middle" x="1725.94" y="-14.3" font-family="Times,serif" font-size="14.00">string</text>
</g>
<!-- log odds analysis result&#45;&gt;rights -->
<g id="edge15" class="edge">
<title>log odds analysis result&#45;&gt;rights</title>
<path fill="none" stroke="blue" d="M1104.09,-91.91C1119.32,-90.02 1135.09,-88.27 1149.94,-87 1249.88,-78.44 1502.85,-89.93 1600.94,-69 1632.83,-62.2 1667.08,-47.96 1691.65,-36.42"/>
<polygon fill="blue" stroke="blue" points="1693.39,-39.46 1700.89,-31.98 1690.36,-33.15 1693.39,-39.46"/>
<text text-anchor="middle" x="1668.44" y="-57.8" font-family="Times,serif" font-size="14.00">rights</text>
</g>
<!-- format -->
<g id="node18" class="node">
<title>format</title>
<ellipse fill="none" stroke="blue" cx="1820.94" cy="-18" rx="38.19" ry="18"/>
<text text-anchor="middle" x="1820.94" y="-14.3" font-family="Times,serif" font-size="14.00">string</text>
</g>
<!-- log odds analysis result&#45;&gt;format -->
<g id="edge16" class="edge">
<title>log odds analysis result&#45;&gt;format</title>
<path fill="none" stroke="blue" d="M1103.74,-91.87C1119.07,-89.97 1134.97,-88.23 1149.94,-87 1270.49,-77.09 1575.5,-93.51 1693.94,-69 1726.66,-62.23 1761.86,-47.75 1786.89,-36.11"/>
<polygon fill="blue" stroke="blue" points="1788.42,-39.26 1795.95,-31.81 1785.42,-32.93 1788.42,-39.26"/>
<text text-anchor="middle" x="1769.44" y="-57.8" font-family="Times,serif" font-size="14.00">format</text>
</g>
<!-- creation date -->
<g id="node19" class="node">
<title>creation date</title>
<ellipse fill="none" stroke="blue" cx="1908.94" cy="-18" rx="31.4" ry="18"/>
<text text-anchor="middle" x="1908.94" y="-14.3" font-family="Times,serif" font-size="14.00">date</text>
</g>
<!-- log odds analysis result&#45;&gt;creation date -->
<g id="edge17" class="edge">
<title>log odds analysis result&#45;&gt;creation date</title>
<path fill="none" stroke="blue" d="M1103.39,-91.85C1118.83,-89.94 1134.86,-88.2 1149.94,-87 1293.55,-75.57 1657.54,-101.21 1797.94,-69 1826.66,-62.41 1857.01,-48.18 1878.7,-36.58"/>
<polygon fill="blue" stroke="blue" points="1880.64,-39.5 1887.73,-31.63 1877.28,-33.36 1880.64,-39.5"/>
<text text-anchor="middle" x="1889.44" y="-57.8" font-family="Times,serif" font-size="14.00">creation date</text>
</g>
<!-- named thing_category -->
<g id="node15" class="node">
<title>named thing_category</title>
<ellipse fill="none" stroke="blue" cx="1233.94" cy="-105" rx="74.99" ry="18"/>
<text text-anchor="middle" x="1233.94" y="-101.3" font-family="Times,serif" font-size="14.00">category type</text>
</g>
</g>
</svg>
