<?xml version="1.0" encoding="UTF-8" standalone="no"?>
<!DOCTYPE svg PUBLIC "-//W3C//DTD SVG 1.1//EN"
 "http://www.w3.org/Graphics/SVG/1.1/DTD/svg11.dtd">
<!-- Generated by graphviz version 2.43.0 (0)
 -->
<!-- Title: %3 Pages: 1 -->
<svg width="2133pt" height="131pt"
 viewBox="0.00 0.00 2133.14 131.00" xmlns="http://www.w3.org/2000/svg" xmlns:xlink="http://www.w3.org/1999/xlink">
<g id="graph0" class="graph" transform="scale(1 1) rotate(0) translate(4 127)">
<title>%3</title>
<polygon fill="white" stroke="transparent" points="-4,4 -4,-127 2129.14,-127 2129.14,4 -4,4"/>
<!-- mammal -->
<g id="node1" class="node">
<title>mammal</title>
<ellipse fill="none" stroke="black" cx="1093.64" cy="-105" rx="50.89" ry="18"/>
<text text-anchor="middle" x="1093.64" y="-101.3" font-family="Times,serif" font-size="14.00">mammal</text>
</g>
<!-- cellular organism -->
<g id="node2" class="node">
<title>cellular organism</title>
<ellipse fill="none" stroke="black" cx="91.64" cy="-18" rx="91.78" ry="18"/>
<text text-anchor="middle" x="91.64" y="-14.3" font-family="Times,serif" font-size="14.00">cellular organism</text>
</g>
<!-- mammal&#45;&gt;cellular organism -->
<g id="edge1" class="edge">
<title>mammal&#45;&gt;cellular organism</title>
<path fill="none" stroke="black" d="M1043.36,-102.46C935.26,-98.88 672.8,-88.77 453.64,-69 336.75,-58.46 307.74,-53.17 191.64,-36 183.78,-34.84 175.58,-33.56 167.4,-32.23"/>
<polygon fill="black" stroke="black" points="167.91,-28.77 157.47,-30.61 166.77,-35.68 167.91,-28.77"/>
<text text-anchor="middle" x="467.64" y="-57.8" font-family="Times,serif" font-size="14.00">is_a</text>
</g>
<!-- subject of investigation -->
<g id="node3" class="node">
<title>subject of investigation</title>
<ellipse fill="none" stroke="black" cx="320.64" cy="-18" rx="119.68" ry="18"/>
<text text-anchor="middle" x="320.64" y="-14.3" font-family="Times,serif" font-size="14.00">subject of investigation</text>
</g>
<!-- mammal&#45;&gt;subject of investigation -->
<g id="edge2" class="edge">
<title>mammal&#45;&gt;subject of investigation</title>
<path fill="none" stroke="black" d="M1043.26,-102.66C950.7,-99.74 747.47,-91.19 577.64,-69 514.89,-60.8 444.39,-46.73 393.12,-35.6"/>
<polygon fill="black" stroke="black" points="393.65,-32.14 383.13,-33.42 392.15,-38.97 393.65,-32.14"/>
<text text-anchor="middle" x="594.14" y="-57.8" font-family="Times,serif" font-size="14.00">uses</text>
</g>
<!-- id -->
<g id="node4" class="node">
<title>id</title>
<ellipse fill="none" stroke="blue" cx="496.64" cy="-18" rx="38.19" ry="18"/>
<text text-anchor="middle" x="496.64" y="-14.3" font-family="Times,serif" font-size="14.00">string</text>
</g>
<!-- mammal&#45;&gt;id -->
<g id="edge3" class="edge">
<title>mammal&#45;&gt;id</title>
<path fill="none" stroke="blue" d="M1043.65,-101.51C968.62,-97.32 822.56,-87.47 699.64,-69 629.99,-58.53 612.43,-55.13 544.64,-36 541.54,-35.12 538.34,-34.15 535.14,-33.13"/>
<polygon fill="blue" stroke="blue" points="536.23,-29.8 525.64,-29.95 534.01,-36.44 536.23,-29.8"/>
<text text-anchor="middle" x="706.64" y="-57.8" font-family="Times,serif" font-size="14.00">id</text>
</g>
<!-- iri -->
<g id="node5" class="node">
<title>iri</title>
<ellipse fill="none" stroke="blue" cx="597.64" cy="-18" rx="44.39" ry="18"/>
<text text-anchor="middle" x="597.64" y="-14.3" font-family="Times,serif" font-size="14.00">iri type</text>
</g>
<!-- mammal&#45;&gt;iri -->
<g id="edge4" class="edge">
<title>mammal&#45;&gt;iri</title>
<path fill="none" stroke="blue" d="M1044.61,-100.28C983.96,-95.25 877.67,-85.01 787.64,-69 726.4,-58.11 711.56,-52.68 651.64,-36 648.07,-35.01 644.38,-33.94 640.68,-32.83"/>
<polygon fill="blue" stroke="blue" points="641.54,-29.44 630.95,-29.87 639.5,-36.13 641.54,-29.44"/>
<text text-anchor="middle" x="795.64" y="-57.8" font-family="Times,serif" font-size="14.00">iri</text>
</g>
<!-- type -->
<g id="node6" class="node">
<title>type</title>
<ellipse fill="none" stroke="blue" cx="698.64" cy="-18" rx="38.19" ry="18"/>
<text text-anchor="middle" x="698.64" y="-14.3" font-family="Times,serif" font-size="14.00">string</text>
</g>
<!-- mammal&#45;&gt;type -->
<g id="edge5" class="edge">
<title>mammal&#45;&gt;type</title>
<path fill="none" stroke="blue" d="M1046.83,-98.07C1001.54,-92.01 931.05,-81.68 870.64,-69 814.41,-57.2 800.49,-53.12 745.64,-36 742.89,-35.14 740.05,-34.22 737.21,-33.26"/>
<polygon fill="blue" stroke="blue" points="738.18,-29.89 727.59,-29.93 735.89,-36.51 738.18,-29.89"/>
<text text-anchor="middle" x="886.64" y="-57.8" font-family="Times,serif" font-size="14.00">type</text>
</g>
<!-- name -->
<g id="node7" class="node">
<title>name</title>
<ellipse fill="none" stroke="blue" cx="811.64" cy="-18" rx="56.59" ry="18"/>
<text text-anchor="middle" x="811.64" y="-14.3" font-family="Times,serif" font-size="14.00">label type</text>
</g>
<!-- mammal&#45;&gt;name -->
<g id="edge6" class="edge">
<title>mammal&#45;&gt;name</title>
<path fill="none" stroke="blue" d="M1051.12,-95.19C1021.81,-88.77 982.07,-79.42 947.64,-69 916.01,-59.43 881.03,-46.52 854.47,-36.21"/>
<polygon fill="blue" stroke="blue" points="855.67,-32.92 845.08,-32.54 853.12,-39.44 855.67,-32.92"/>
<text text-anchor="middle" x="967.64" y="-57.8" font-family="Times,serif" font-size="14.00">name</text>
</g>
<!-- description -->
<g id="node8" class="node">
<title>description</title>
<ellipse fill="none" stroke="blue" cx="961.64" cy="-18" rx="75.29" ry="18"/>
<text text-anchor="middle" x="961.64" y="-14.3" font-family="Times,serif" font-size="14.00">narrative text</text>
</g>
<!-- mammal&#45;&gt;description -->
<g id="edge7" class="edge">
<title>mammal&#45;&gt;description</title>
<path fill="none" stroke="blue" d="M1056.34,-92.55C1040.82,-86.83 1023.1,-78.96 1008.64,-69 998.58,-62.06 989.03,-52.66 981.21,-43.87"/>
<polygon fill="blue" stroke="blue" points="983.69,-41.4 974.53,-36.07 978.37,-45.95 983.69,-41.4"/>
<text text-anchor="middle" x="1049.14" y="-57.8" font-family="Times,serif" font-size="14.00">description</text>
</g>
<!-- provided by -->
<g id="node9" class="node">
<title>provided by</title>
<ellipse fill="none" stroke="blue" cx="1093.64" cy="-18" rx="38.19" ry="18"/>
<text text-anchor="middle" x="1093.64" y="-14.3" font-family="Times,serif" font-size="14.00">string</text>
</g>
<!-- mammal&#45;&gt;provided by -->
<g id="edge8" class="edge">
<title>mammal&#45;&gt;provided by</title>
<path fill="none" stroke="blue" d="M1093.64,-86.8C1093.64,-75.16 1093.64,-59.55 1093.64,-46.24"/>
<polygon fill="blue" stroke="blue" points="1097.14,-46.18 1093.64,-36.18 1090.14,-46.18 1097.14,-46.18"/>
<text text-anchor="middle" x="1136.14" y="-57.8" font-family="Times,serif" font-size="14.00">provided by</text>
</g>
<!-- xref -->
<g id="node10" class="node">
<title>xref</title>
<ellipse fill="none" stroke="blue" cx="1207.64" cy="-18" rx="57.39" ry="18"/>
<text text-anchor="middle" x="1207.64" y="-14.3" font-family="Times,serif" font-size="14.00">uriorcurie</text>
</g>
<!-- mammal&#45;&gt;xref -->
<g id="edge9" class="edge">
<title>mammal&#45;&gt;xref</title>
<path fill="none" stroke="blue" d="M1130.37,-92.53C1151.15,-85.47 1174.56,-76.4 1182.64,-69 1189.54,-62.69 1194.78,-54.05 1198.65,-45.73"/>
<polygon fill="blue" stroke="blue" points="1201.97,-46.84 1202.56,-36.26 1195.5,-44.17 1201.97,-46.84"/>
<text text-anchor="middle" x="1209.14" y="-57.8" font-family="Times,serif" font-size="14.00">xref</text>
</g>
<!-- full name -->
<g id="node11" class="node">
<title>full name</title>
<ellipse fill="none" stroke="blue" cx="1339.64" cy="-18" rx="56.59" ry="18"/>
<text text-anchor="middle" x="1339.64" y="-14.3" font-family="Times,serif" font-size="14.00">label type</text>
</g>
<!-- mammal&#45;&gt;full name -->
<g id="edge10" class="edge">
<title>mammal&#45;&gt;full name</title>
<path fill="none" stroke="blue" d="M1131.34,-92.86C1138.4,-90.86 1145.74,-88.82 1152.64,-87 1185.79,-78.25 1195.19,-80.03 1227.64,-69 1252.93,-60.4 1280.33,-48.23 1301.69,-38.04"/>
<polygon fill="blue" stroke="blue" points="1303.27,-41.17 1310.76,-33.67 1300.23,-34.86 1303.27,-41.17"/>
<text text-anchor="middle" x="1299.14" y="-57.8" font-family="Times,serif" font-size="14.00">full name</text>
</g>
<!-- synonym -->
<g id="node12" class="node">
<title>synonym</title>
<ellipse fill="none" stroke="blue" cx="1470.64" cy="-18" rx="56.59" ry="18"/>
<text text-anchor="middle" x="1470.64" y="-14.3" font-family="Times,serif" font-size="14.00">label type</text>
</g>
<!-- mammal&#45;&gt;synonym -->
<g id="edge11" class="edge">
<title>mammal&#45;&gt;synonym</title>
<path fill="none" stroke="blue" d="M1130.21,-92.34C1137.58,-90.31 1145.31,-88.4 1152.64,-87 1233.35,-71.56 1256.59,-87.52 1336.64,-69 1369.07,-61.5 1404.27,-48.15 1430.46,-37.12"/>
<polygon fill="blue" stroke="blue" points="1431.86,-40.33 1439.68,-33.18 1429.11,-33.9 1431.86,-40.33"/>
<text text-anchor="middle" x="1417.64" y="-57.8" font-family="Times,serif" font-size="14.00">synonym</text>
</g>
<!-- category -->
<g id="node13" class="node">
<title>category</title>
<ellipse fill="none" stroke="black" cx="1596.64" cy="-18" rx="51.19" ry="18"/>
<text text-anchor="middle" x="1596.64" y="-14.3" font-family="Times,serif" font-size="14.00">category</text>
</g>
<!-- mammal&#45;&gt;category -->
<g id="edge12" class="edge">
<title>mammal&#45;&gt;category</title>
<path fill="none" stroke="blue" d="M1129.86,-92.21C1137.32,-90.16 1145.18,-88.28 1152.64,-87 1284.72,-64.31 1322.24,-95.37 1453.64,-69 1489.28,-61.85 1528.12,-47.85 1556.31,-36.47"/>
<polygon fill="blue" stroke="blue" points="1557.89,-39.61 1565.82,-32.58 1555.24,-33.13 1557.89,-39.61"/>
<text text-anchor="middle" x="1538.14" y="-57.8" font-family="Times,serif" font-size="14.00">category</text>
</g>
<!-- in taxon -->
<g id="node15" class="node">
<title>in taxon</title>
<ellipse fill="none" stroke="blue" cx="1749.64" cy="-18" rx="83.39" ry="18"/>
<text text-anchor="middle" x="1749.64" y="-14.3" font-family="Times,serif" font-size="14.00">organism taxon</text>
</g>
<!-- mammal&#45;&gt;in taxon -->
<g id="edge13" class="edge">
<title>mammal&#45;&gt;in taxon</title>
<path fill="none" stroke="blue" d="M1129.53,-92.19C1137.09,-90.12 1145.07,-88.24 1152.64,-87 1337.48,-56.86 1388.74,-98.79 1573.64,-69 1616.46,-62.1 1663.66,-48.34 1698.4,-37"/>
<polygon fill="blue" stroke="blue" points="1699.91,-40.18 1708.3,-33.72 1697.71,-33.54 1699.91,-40.18"/>
<text text-anchor="middle" x="1666.64" y="-57.8" font-family="Times,serif" font-size="14.00">in taxon</text>
</g>
<!-- in taxon label -->
<g id="node16" class="node">
<title>in taxon label</title>
<ellipse fill="none" stroke="blue" cx="1907.64" cy="-18" rx="56.59" ry="18"/>
<text text-anchor="middle" x="1907.64" y="-14.3" font-family="Times,serif" font-size="14.00">label type</text>
</g>
<!-- mammal&#45;&gt;in taxon label -->
<g id="edge14" class="edge">
<title>mammal&#45;&gt;in taxon label</title>
<path fill="none" stroke="blue" d="M1129.52,-92.13C1137.08,-90.07 1145.06,-88.2 1152.64,-87 1392.9,-49.04 1458.47,-100.68 1699.64,-69 1754.87,-61.75 1816.78,-45.83 1858.58,-33.89"/>
<polygon fill="blue" stroke="blue" points="1859.6,-37.24 1868.23,-31.1 1857.66,-30.52 1859.6,-37.24"/>
<text text-anchor="middle" x="1829.14" y="-57.8" font-family="Times,serif" font-size="14.00">in taxon label</text>
</g>
<!-- has attribute -->
<g id="node17" class="node">
<title>has attribute</title>
<ellipse fill="none" stroke="black" cx="2053.64" cy="-18" rx="71.49" ry="18"/>
<text text-anchor="middle" x="2053.64" y="-14.3" font-family="Times,serif" font-size="14.00">has attribute</text>
</g>
<!-- mammal&#45;&gt;has attribute -->
<g id="edge15" class="edge">
<title>mammal&#45;&gt;has attribute</title>
<path fill="none" stroke="blue" d="M1129.51,-92.09C1137.07,-90.02 1145.06,-88.17 1152.64,-87 1472.97,-37.73 1561.37,-118.65 1881.64,-69 1924.43,-62.37 1971.57,-48.15 2005.65,-36.57"/>
<polygon fill="blue" stroke="blue" points="2007.04,-39.8 2015.35,-33.23 2004.76,-33.18 2007.04,-39.8"/>
<text text-anchor="middle" x="1995.64" y="-57.8" font-family="Times,serif" font-size="14.00">has attribute</text>
</g>
<!-- named thing_category -->
<g id="node14" class="node">
<title>named thing_category</title>
<ellipse fill="none" stroke="blue" cx="1236.64" cy="-105" rx="74.99" ry="18"/>
<text text-anchor="middle" x="1236.64" y="-101.3" font-family="Times,serif" font-size="14.00">category type</text>
</g>
<!-- organismal entity_has attribute -->
<g id="node18" class="node">
<title>organismal entity_has attribute</title>
<ellipse fill="none" stroke="blue" cx="1381.64" cy="-105" rx="51.99" ry="18"/>
<text text-anchor="middle" x="1381.64" y="-101.3" font-family="Times,serif" font-size="14.00">attribute</text>
</g>
</g>
</svg>
