<?xml version="1.0" encoding="UTF-8" standalone="no"?>
<!DOCTYPE svg PUBLIC "-//W3C//DTD SVG 1.1//EN"
 "http://www.w3.org/Graphics/SVG/1.1/DTD/svg11.dtd">
<!-- Generated by graphviz version 2.43.0 (0)
 -->
<!-- Title: %3 Pages: 1 -->
<svg width="1181pt" height="289pt"
 viewBox="0.00 0.00 1181.13 289.00" xmlns="http://www.w3.org/2000/svg" xmlns:xlink="http://www.w3.org/1999/xlink">
<g id="graph0" class="graph" transform="scale(1 1) rotate(0) translate(4 285)">
<title>%3</title>
<polygon fill="white" stroke="transparent" points="-4,4 -4,-285 1177.13,-285 1177.13,4 -4,4"/>
<!-- material sample derivation association -->
<g id="node1" class="node">
<title>material sample derivation association</title>
<ellipse fill="none" stroke="black" cx="495.4" cy="-263" rx="145.81" ry="18"/>
<text text-anchor="middle" x="495.4" y="-258.8" font-family="Times,serif" font-size="14.00">material sample derivation association</text>
</g>
<!-- association -->
<g id="node2" class="node">
<title>association</title>
<ellipse fill="none" stroke="black" cx="49.4" cy="-177" rx="49.3" ry="18"/>
<text text-anchor="middle" x="49.4" y="-172.8" font-family="Times,serif" font-size="14.00">association</text>
</g>
<!-- material sample derivation association&#45;&gt;association -->
<g id="edge1" class="edge">
<title>material sample derivation association&#45;&gt;association</title>
<path fill="none" stroke="black" d="M350.12,-261.18C252.51,-258.42 133.96,-250.16 89.85,-227 79.64,-221.64 71.02,-212.48 64.39,-203.52"/>
<polygon fill="black" stroke="black" points="67.19,-201.42 58.67,-195.12 61.41,-205.36 67.19,-201.42"/>
<text text-anchor="middle" x="101.68" y="-215.8" font-family="Times,serif" font-size="14.00">is_a</text>
</g>
<!-- subject -->
<g id="node3" class="node">
<title>subject</title>
<ellipse fill="none" stroke="black" cx="204.4" cy="-177" rx="35.31" ry="18"/>
<text text-anchor="middle" x="204.4" y="-172.8" font-family="Times,serif" font-size="14.00">subject</text>
</g>
<!-- material sample derivation association&#45;&gt;subject -->
<g id="edge2" class="edge">
<title>material sample derivation association&#45;&gt;subject</title>
<path fill="none" stroke="blue" d="M356.2,-257.49C299.83,-253 243.04,-244.18 221.75,-227 214.96,-221.52 210.82,-213.19 208.3,-204.95"/>
<polygon fill="blue" stroke="blue" points="211.69,-204.04 205.97,-195.13 204.88,-205.66 211.69,-204.04"/>
<text text-anchor="middle" x="242.23" y="-215.8" font-family="Times,serif" font-size="14.00">subject</text>
</g>
<!-- relation -->
<g id="node5" class="node">
<title>relation</title>
<ellipse fill="none" stroke="black" cx="184.4" cy="-18" rx="37.23" ry="18"/>
<text text-anchor="middle" x="184.4" y="-13.8" font-family="Times,serif" font-size="14.00">relation</text>
</g>
<!-- material sample derivation association&#45;&gt;relation -->
<g id="edge3" class="edge">
<title>material sample derivation association&#45;&gt;relation</title>
<path fill="none" stroke="blue" d="M355.09,-257.98C307.4,-253.22 254.53,-244.08 208.4,-227 184.36,-218.1 174.28,-216.56 160.4,-195 130.66,-148.78 153.97,-81.6 170.87,-45.06"/>
<polygon fill="blue" stroke="blue" points="174.24,-46.13 175.42,-35.6 167.93,-43.1 174.24,-46.13"/>
<text text-anchor="middle" x="168.78" y="-129.8" font-family="Times,serif" font-size="14.00">relation</text>
</g>
<!-- object -->
<g id="node7" class="node">
<title>object</title>
<ellipse fill="none" stroke="black" cx="244.4" cy="-91" rx="31.93" ry="18"/>
<text text-anchor="middle" x="244.4" y="-86.8" font-family="Times,serif" font-size="14.00">object</text>
</g>
<!-- material sample derivation association&#45;&gt;object -->
<g id="edge4" class="edge">
<title>material sample derivation association&#45;&gt;object</title>
<path fill="none" stroke="blue" d="M394.94,-249.93C356.03,-240.62 313.81,-224.14 284.19,-195 261.47,-172.64 273.45,-156.51 261.4,-127 260.15,-123.94 258.75,-120.76 257.32,-117.63"/>
<polygon fill="blue" stroke="blue" points="260.44,-116.05 252.97,-108.54 254.12,-119.07 260.44,-116.05"/>
<text text-anchor="middle" x="301.51" y="-172.8" font-family="Times,serif" font-size="14.00">object</text>
</g>
<!-- id -->
<g id="node9" class="node">
<title>id</title>
<ellipse fill="none" stroke="black" cx="354.4" cy="-177" rx="27" ry="18"/>
<text text-anchor="middle" x="354.4" y="-172.8" font-family="Times,serif" font-size="14.00">id</text>
</g>
<!-- material sample derivation association&#45;&gt;id -->
<g id="edge5" class="edge">
<title>material sample derivation association&#45;&gt;id</title>
<path fill="none" stroke="blue" d="M467.21,-245.2C442.69,-230.6 407.35,-209.54 382.78,-194.91"/>
<polygon fill="blue" stroke="blue" points="384.32,-191.75 373.94,-189.64 380.74,-197.76 384.32,-191.75"/>
<text text-anchor="middle" x="438.85" y="-215.8" font-family="Times,serif" font-size="14.00">id</text>
</g>
<!-- negated -->
<g id="node11" class="node">
<title>negated</title>
<ellipse fill="none" stroke="blue" cx="437.4" cy="-177" rx="38.2" ry="18"/>
<text text-anchor="middle" x="437.4" y="-172.8" font-family="Times,serif" font-size="14.00">boolean</text>
</g>
<!-- material sample derivation association&#45;&gt;negated -->
<g id="edge6" class="edge">
<title>material sample derivation association&#45;&gt;negated</title>
<path fill="none" stroke="blue" d="M483.66,-245C475.3,-232.89 463.93,-216.42 454.55,-202.83"/>
<polygon fill="blue" stroke="blue" points="457.29,-200.64 448.73,-194.4 451.53,-204.62 457.29,-200.64"/>
<text text-anchor="middle" x="492.17" y="-215.8" font-family="Times,serif" font-size="14.00">negated</text>
</g>
<!-- association type -->
<g id="node12" class="node">
<title>association type</title>
<ellipse fill="none" stroke="blue" cx="554.4" cy="-177" rx="60.9" ry="18"/>
<text text-anchor="middle" x="554.4" y="-172.8" font-family="Times,serif" font-size="14.00">ontology class</text>
</g>
<!-- material sample derivation association&#45;&gt;association type -->
<g id="edge7" class="edge">
<title>material sample derivation association&#45;&gt;association type</title>
<path fill="none" stroke="blue" d="M507.34,-245C515.79,-232.97 527.27,-216.63 536.77,-203.1"/>
<polygon fill="blue" stroke="blue" points="539.8,-204.88 542.68,-194.69 534.07,-200.86 539.8,-204.88"/>
<text text-anchor="middle" x="574.31" y="-215.8" font-family="Times,serif" font-size="14.00">association type</text>
</g>
<!-- qualifiers -->
<g id="node13" class="node">
<title>qualifiers</title>
<ellipse fill="none" stroke="blue" cx="694.4" cy="-177" rx="60.9" ry="18"/>
<text text-anchor="middle" x="694.4" y="-172.8" font-family="Times,serif" font-size="14.00">ontology class</text>
</g>
<!-- material sample derivation association&#45;&gt;qualifiers -->
<g id="edge8" class="edge">
<title>material sample derivation association&#45;&gt;qualifiers</title>
<path fill="none" stroke="blue" d="M566.34,-247.16C585.34,-241.97 605.54,-235.31 623.4,-227 638.63,-219.92 654.14,-209.64 666.76,-200.32"/>
<polygon fill="blue" stroke="blue" points="669.14,-202.91 675,-194.08 664.91,-197.33 669.14,-202.91"/>
<text text-anchor="middle" x="674.45" y="-215.8" font-family="Times,serif" font-size="14.00">qualifiers</text>
</g>
<!-- publications -->
<g id="node14" class="node">
<title>publications</title>
<ellipse fill="none" stroke="blue" cx="823.4" cy="-177" rx="49.79" ry="18"/>
<text text-anchor="middle" x="823.4" y="-172.8" font-family="Times,serif" font-size="14.00">publication</text>
</g>
<!-- material sample derivation association&#45;&gt;publications -->
<g id="edge9" class="edge">
<title>material sample derivation association&#45;&gt;publications</title>
<path fill="none" stroke="blue" d="M595.56,-249.9C630.39,-244.47 669.47,-236.98 704.4,-227 732.22,-219.05 762.35,-206.61 785.33,-196.25"/>
<polygon fill="blue" stroke="blue" points="787.07,-199.3 794.71,-191.95 784.16,-192.93 787.07,-199.3"/>
<text text-anchor="middle" x="779.62" y="-215.8" font-family="Times,serif" font-size="14.00">publications</text>
</g>
<!-- provided by -->
<g id="node15" class="node">
<title>provided by</title>
<ellipse fill="none" stroke="blue" cx="931.4" cy="-177" rx="40.13" ry="18"/>
<text text-anchor="middle" x="931.4" y="-172.8" font-family="Times,serif" font-size="14.00">provider</text>
</g>
<!-- material sample derivation association&#45;&gt;provided by -->
<g id="edge10" class="edge">
<title>material sample derivation association&#45;&gt;provided by</title>
<path fill="none" stroke="blue" d="M600.45,-250.45C617.16,-248.62 634.25,-246.76 650.4,-245 724.62,-236.93 745.19,-245.95 817.4,-227 845.3,-219.68 875.19,-206.61 897.37,-195.82"/>
<polygon fill="blue" stroke="blue" points="898.97,-198.93 906.37,-191.35 895.86,-192.66 898.97,-198.93"/>
<text text-anchor="middle" x="890.03" y="-215.8" font-family="Times,serif" font-size="14.00">provided by</text>
</g>
<!-- association slot -->
<g id="node16" class="node">
<title>association slot</title>
<ellipse fill="none" stroke="blue" cx="1019.4" cy="-177" rx="30" ry="18"/>
<text text-anchor="middle" x="1019.4" y="-172.8" font-family="Times,serif" font-size="14.00">string</text>
</g>
<!-- material sample derivation association&#45;&gt;association slot -->
<g id="edge11" class="edge">
<title>material sample derivation association&#45;&gt;association slot</title>
<path fill="none" stroke="blue" d="M597.89,-250.11C615.4,-248.27 633.41,-246.48 650.4,-245 773.3,-234.27 808.74,-260.76 927.4,-227 950.38,-220.46 974.12,-207.64 991.73,-196.75"/>
<polygon fill="blue" stroke="blue" points="993.78,-199.6 1000.34,-191.28 990.02,-193.69 993.78,-199.6"/>
<text text-anchor="middle" x="1005.37" y="-215.8" font-family="Times,serif" font-size="14.00">association slot</text>
</g>
<!-- edge label -->
<g id="node17" class="node">
<title>edge label</title>
<ellipse fill="none" stroke="blue" cx="1128.4" cy="-177" rx="44.96" ry="18"/>
<text text-anchor="middle" x="1128.4" y="-172.8" font-family="Times,serif" font-size="14.00">label type</text>
</g>
<!-- material sample derivation association&#45;&gt;edge label -->
<g id="edge12" class="edge">
<title>material sample derivation association&#45;&gt;edge label</title>
<path fill="none" stroke="blue" d="M596.62,-249.95C614.52,-248.09 632.99,-246.34 650.4,-245 739.56,-238.12 967.21,-254.17 1052.4,-227 1070.49,-221.23 1088.44,-209.98 1102.35,-199.72"/>
<polygon fill="blue" stroke="blue" points="1104.65,-202.37 1110.46,-193.51 1100.39,-196.81 1104.65,-202.37"/>
<text text-anchor="middle" x="1109.97" y="-215.8" font-family="Times,serif" font-size="14.00">edge label</text>
</g>
<!-- subject&#45;&gt;relation -->
<g id="edge14" class="edge">
<title>subject&#45;&gt;relation</title>
<path fill="none" stroke="black" stroke-dasharray="1,5" d="M202.22,-158.9C198.77,-131.77 192,-78.61 187.87,-46.21"/>
<polygon fill="black" stroke="black" points="191.31,-45.56 186.58,-36.08 184.37,-46.44 191.31,-45.56"/>
</g>
<!-- subject&#45;&gt;object -->
<g id="edge13" class="edge">
<title>subject&#45;&gt;object</title>
<path fill="none" stroke="black" d="M207.87,-158.67C210.17,-149.04 213.7,-137.01 218.64,-127 220.47,-123.3 222.69,-119.58 225.06,-116.03"/>
<polygon fill="black" stroke="black" points="228.1,-117.78 231.08,-107.61 222.41,-113.7 228.1,-117.78"/>
<text text-anchor="middle" x="240.78" y="-129.8" font-family="Times,serif" font-size="14.00">relation</text>
</g>
<!-- material sample derivation association_subject -->
<g id="node4" class="node">
<title>material sample derivation association_subject</title>
<ellipse fill="none" stroke="blue" cx="725.4" cy="-263" rx="66.17" ry="18"/>
<text text-anchor="middle" x="725.4" y="-258.8" font-family="Times,serif" font-size="14.00">material sample</text>
</g>
<!-- material sample derivation association_relation -->
<g id="node6" class="node">
<title>material sample derivation association_relation</title>
<ellipse fill="none" stroke="blue" cx="854.4" cy="-263" rx="44.94" ry="18"/>
<text text-anchor="middle" x="854.4" y="-258.8" font-family="Times,serif" font-size="14.00">uriorcurie</text>
</g>
<!-- object&#45;&gt;relation -->
<g id="edge15" class="edge">
<title>object&#45;&gt;relation</title>
<path fill="none" stroke="black" stroke-dasharray="1,5" d="M231.09,-74.24C223.35,-65.09 213.44,-53.36 204.75,-43.07"/>
<polygon fill="black" stroke="black" points="207.22,-40.58 198.1,-35.21 201.88,-45.1 207.22,-40.58"/>
</g>
<!-- material sample derivation association_object -->
<g id="node8" class="node">
<title>material sample derivation association_object</title>
<ellipse fill="none" stroke="blue" cx="971.4" cy="-263" rx="54.14" ry="18"/>
<text text-anchor="middle" x="971.4" y="-258.8" font-family="Times,serif" font-size="14.00">named thing</text>
</g>
<!-- association_id -->
<g id="node10" class="node">
<title>association_id</title>
<ellipse fill="none" stroke="blue" cx="1102.4" cy="-263" rx="59.45" ry="18"/>
<text text-anchor="middle" x="1102.4" y="-258.8" font-family="Times,serif" font-size="14.00">nodeidentifier</text>
</g>
</g>
</svg>
