<?xml version="1.0" encoding="UTF-8" standalone="no"?>
<!DOCTYPE svg PUBLIC "-//W3C//DTD SVG 1.1//EN"
 "http://www.w3.org/Graphics/SVG/1.1/DTD/svg11.dtd">
<!-- Generated by graphviz version 2.44.0 (20200408.0750)
 -->
<!-- Pages: 1 -->
<svg width="977pt" height="291pt"
 viewBox="0.00 0.00 976.79 291.00" xmlns="http://www.w3.org/2000/svg" xmlns:xlink="http://www.w3.org/1999/xlink">
<g id="graph0" class="graph" transform="scale(1 1) rotate(0) translate(4 287)">
<polygon fill="white" stroke="transparent" points="-4,4 -4,-287 972.79,-287 972.79,4 -4,4"/>
<!-- material sample to thing association -->
<g id="node1" class="node">
<title>material sample to thing association</title>
<ellipse fill="none" stroke="black" cx="401.05" cy="-265" rx="139.18" ry="18"/>
<text text-anchor="middle" x="401.05" y="-261.3" font-family="Times,serif" font-size="14.00">material sample to thing association</text>
</g>
<!-- association -->
<g id="node2" class="node">
<title>association</title>
<ellipse fill="none" stroke="black" cx="50.05" cy="-178" rx="50.09" ry="18"/>
<text text-anchor="middle" x="50.05" y="-174.3" font-family="Times,serif" font-size="14.00">association</text>
</g>
<!-- material sample to thing association&#45;&gt;association -->
<g id="edge1" class="edge">
<title>material sample to thing association&#45;&gt;association</title>
<path fill="none" stroke="black" d="M270.2,-258.81C200.35,-254.15 122.61,-245.4 92.05,-229 81.34,-223.25 72.23,-213.56 65.27,-204.22"/>
<polygon fill="black" stroke="black" points="68.06,-202.1 59.49,-195.87 62.3,-206.09 68.06,-202.1"/>
<text text-anchor="middle" x="103.05" y="-217.8" font-family="Times,serif" font-size="14.00">is_a</text>
</g>
<!-- relation -->
<g id="node3" class="node">
<title>relation</title>
<ellipse fill="none" stroke="blue" cx="533.05" cy="-18" rx="45.49" ry="18"/>
<text text-anchor="middle" x="533.05" y="-14.3" font-family="Times,serif" font-size="14.00">uriorcurie</text>
</g>
<!-- material sample to thing association&#45;&gt;relation -->
<g id="edge2" class="edge">
<title>material sample to thing association&#45;&gt;relation</title>
<path fill="none" stroke="blue" d="M294.39,-253.42C253.98,-247.82 213.69,-239.82 197.05,-229 157.53,-203.32 139.84,-164.76 168.05,-127 205.74,-76.54 389.64,-41.35 481.14,-26.66"/>
<polygon fill="blue" stroke="blue" points="481.7,-30.12 491.03,-25.1 480.6,-23.21 481.7,-30.12"/>
<text text-anchor="middle" x="189.05" y="-130.8" font-family="Times,serif" font-size="14.00">relation</text>
</g>
<!-- object -->
<g id="node4" class="node">
<title>object</title>
<ellipse fill="none" stroke="blue" cx="533.05" cy="-91" rx="55.49" ry="18"/>
<text text-anchor="middle" x="533.05" y="-87.3" font-family="Times,serif" font-size="14.00">named thing</text>
</g>
<!-- material sample to thing association&#45;&gt;object -->
<g id="edge3" class="edge">
<title>material sample to thing association&#45;&gt;object</title>
<path fill="none" stroke="blue" d="M310.33,-251.34C235.77,-237.13 148.51,-209.33 189.05,-160 223.75,-117.77 379.04,-101.32 468.66,-95.27"/>
<polygon fill="blue" stroke="blue" points="468.97,-98.76 478.72,-94.62 468.51,-91.77 468.97,-98.76"/>
<text text-anchor="middle" x="206.05" y="-174.3" font-family="Times,serif" font-size="14.00">object</text>
</g>
<!-- id -->
<g id="node5" class="node">
<title>id</title>
<ellipse fill="none" stroke="black" cx="259.05" cy="-178" rx="27" ry="18"/>
<text text-anchor="middle" x="259.05" y="-174.3" font-family="Times,serif" font-size="14.00">id</text>
</g>
<!-- material sample to thing association&#45;&gt;id -->
<g id="edge4" class="edge">
<title>material sample to thing association&#45;&gt;id</title>
<path fill="none" stroke="blue" d="M372.99,-247.21C348.08,-232.3 311.88,-210.63 287,-195.74"/>
<polygon fill="blue" stroke="blue" points="288.77,-192.71 278.39,-190.58 285.18,-198.72 288.77,-192.71"/>
<text text-anchor="middle" x="344.55" y="-217.8" font-family="Times,serif" font-size="14.00">id</text>
</g>
<!-- negated -->
<g id="node7" class="node">
<title>negated</title>
<ellipse fill="none" stroke="blue" cx="342.05" cy="-178" rx="38.19" ry="18"/>
<text text-anchor="middle" x="342.05" y="-174.3" font-family="Times,serif" font-size="14.00">boolean</text>
</g>
<!-- material sample to thing association&#45;&gt;negated -->
<g id="edge5" class="edge">
<title>material sample to thing association&#45;&gt;negated</title>
<path fill="none" stroke="blue" d="M389.11,-246.8C380.54,-234.46 368.88,-217.66 359.3,-203.86"/>
<polygon fill="blue" stroke="blue" points="361.94,-201.53 353.37,-195.31 356.19,-205.52 361.94,-201.53"/>
<text text-anchor="middle" x="397.55" y="-217.8" font-family="Times,serif" font-size="14.00">negated</text>
</g>
<!-- association type -->
<g id="node8" class="node">
<title>association type</title>
<ellipse fill="none" stroke="blue" cx="460.05" cy="-178" rx="61.99" ry="18"/>
<text text-anchor="middle" x="460.05" y="-174.3" font-family="Times,serif" font-size="14.00">ontology class</text>
</g>
<!-- material sample to thing association&#45;&gt;association type -->
<g id="edge6" class="edge">
<title>material sample to thing association&#45;&gt;association type</title>
<path fill="none" stroke="blue" d="M412.99,-246.8C421.44,-234.62 432.91,-218.09 442.42,-204.4"/>
<polygon fill="blue" stroke="blue" points="445.5,-206.1 448.33,-195.89 439.75,-202.1 445.5,-206.1"/>
<text text-anchor="middle" x="479.05" y="-217.8" font-family="Times,serif" font-size="14.00">association type</text>
</g>
<!-- qualifiers -->
<g id="node9" class="node">
<title>qualifiers</title>
<ellipse fill="none" stroke="blue" cx="601.05" cy="-178" rx="61.99" ry="18"/>
<text text-anchor="middle" x="601.05" y="-174.3" font-family="Times,serif" font-size="14.00">ontology class</text>
</g>
<!-- material sample to thing association&#45;&gt;qualifiers -->
<g id="edge7" class="edge">
<title>material sample to thing association&#45;&gt;qualifiers</title>
<path fill="none" stroke="blue" d="M469.51,-249.3C488.58,-244.05 509.01,-237.33 527.05,-229 543.1,-221.59 559.53,-210.86 572.82,-201.24"/>
<polygon fill="blue" stroke="blue" points="575.12,-203.89 581.06,-195.12 570.95,-198.27 575.12,-203.89"/>
<text text-anchor="middle" x="578.55" y="-217.8" font-family="Times,serif" font-size="14.00">qualifiers</text>
</g>
<!-- publications -->
<g id="node10" class="node">
<title>publications</title>
<ellipse fill="none" stroke="blue" cx="731.05" cy="-178" rx="50.09" ry="18"/>
<text text-anchor="middle" x="731.05" y="-174.3" font-family="Times,serif" font-size="14.00">publication</text>
</g>
<!-- material sample to thing association&#45;&gt;publications -->
<g id="edge8" class="edge">
<title>material sample to thing association&#45;&gt;publications</title>
<path fill="none" stroke="blue" d="M498.12,-252.07C533.14,-246.59 572.72,-239.04 608.05,-229 637.28,-220.7 669.02,-207.68 692.94,-197.02"/>
<polygon fill="blue" stroke="blue" points="694.68,-200.07 702.35,-192.76 691.8,-193.69 694.68,-200.07"/>
<text text-anchor="middle" x="683.55" y="-217.8" font-family="Times,serif" font-size="14.00">publications</text>
</g>
<!-- provided by -->
<g id="node11" class="node">
<title>provided by</title>
<ellipse fill="none" stroke="blue" cx="839.05" cy="-178" rx="40.09" ry="18"/>
<text text-anchor="middle" x="839.05" y="-174.3" font-family="Times,serif" font-size="14.00">provider</text>
</g>
<!-- material sample to thing association&#45;&gt;provided by -->
<g id="edge9" class="edge">
<title>material sample to thing association&#45;&gt;provided by</title>
<path fill="none" stroke="blue" d="M500.94,-252.39C517.02,-250.56 533.49,-248.71 549.05,-247 625.45,-238.61 646.62,-248.2 721.05,-229 750.39,-221.43 781.92,-207.75 805,-196.62"/>
<polygon fill="blue" stroke="blue" points="806.6,-199.73 814.03,-192.18 803.51,-193.45 806.6,-199.73"/>
<text text-anchor="middle" x="797.05" y="-217.8" font-family="Times,serif" font-size="14.00">provided by</text>
</g>
<!-- subject -->
<g id="node12" class="node">
<title>subject</title>
<ellipse fill="none" stroke="black" cx="933.05" cy="-178" rx="36" ry="18"/>
<text text-anchor="middle" x="933.05" y="-174.3" font-family="Times,serif" font-size="14.00">subject</text>
</g>
<!-- material sample to thing association&#45;&gt;subject -->
<g id="edge10" class="edge">
<title>material sample to thing association&#45;&gt;subject</title>
<path fill="none" stroke="blue" d="M498.5,-252.09C515.34,-250.23 532.69,-248.46 549.05,-247 675.47,-235.75 711.57,-262.29 834.05,-229 858.64,-222.32 884.26,-209.18 903.28,-198.05"/>
<polygon fill="blue" stroke="blue" points="905.28,-200.93 912.05,-192.78 901.67,-194.93 905.28,-200.93"/>
<text text-anchor="middle" x="889.55" y="-217.8" font-family="Times,serif" font-size="14.00">subject</text>
</g>
<!-- object&#45;&gt;relation -->
<g id="edge13" class="edge">
<title>object&#45;&gt;relation</title>
<path fill="none" stroke="black" stroke-dasharray="1,5" d="M533.05,-72.81C533.05,-64.79 533.05,-55.05 533.05,-46.07"/>
<polygon fill="black" stroke="black" points="536.55,-46.03 533.05,-36.03 529.55,-46.03 536.55,-46.03"/>
</g>
<!-- association_id -->
<g id="node6" class="node">
<title>association_id</title>
<ellipse fill="none" stroke="blue" cx="589.05" cy="-265" rx="30.59" ry="18"/>
<text text-anchor="middle" x="589.05" y="-261.3" font-family="Times,serif" font-size="14.00">string</text>
</g>
<!-- subject&#45;&gt;relation -->
<g id="edge12" class="edge">
<title>subject&#45;&gt;relation</title>
<path fill="none" stroke="black" stroke-dasharray="1,5" d="M905.87,-166.26C836.93,-139.03 654.96,-67.16 573.49,-34.97"/>
<polygon fill="black" stroke="black" points="574.65,-31.67 564.06,-31.25 572.08,-38.18 574.65,-31.67"/>
</g>
<!-- subject&#45;&gt;object -->
<g id="edge11" class="edge">
<title>subject&#45;&gt;object</title>
<path fill="none" stroke="black" d="M906.75,-165.79C900.69,-163.57 894.22,-161.47 888.05,-160 815.43,-142.67 794.44,-155.63 721.05,-142 672.88,-133.05 618.95,-118.2 581.24,-107"/>
<polygon fill="black" stroke="black" points="582.12,-103.61 571.54,-104.09 580.11,-110.31 582.12,-103.61"/>
<text text-anchor="middle" x="742.05" y="-130.8" font-family="Times,serif" font-size="14.00">relation</text>
</g>
<!-- material sample to thing association_subject -->
<g id="node13" class="node">
<title>material sample to thing association_subject</title>
<ellipse fill="none" stroke="blue" cx="705.05" cy="-265" rx="67.69" ry="18"/>
<text text-anchor="middle" x="705.05" y="-261.3" font-family="Times,serif" font-size="14.00">material sample</text>
</g>
</g>
</svg>
