<?xml version="1.0" encoding="UTF-8" standalone="no"?>
<!DOCTYPE svg PUBLIC "-//W3C//DTD SVG 1.1//EN"
 "http://www.w3.org/Graphics/SVG/1.1/DTD/svg11.dtd">
<!-- Generated by graphviz version 2.40.1 (20161225.0304)
 -->
<!-- Title: %3 Pages: 1 -->
<svg width="2492pt" height="291pt"
 viewBox="0.00 0.00 2491.99 291.00" xmlns="http://www.w3.org/2000/svg" xmlns:xlink="http://www.w3.org/1999/xlink">
<g id="graph0" class="graph" transform="scale(1 1) rotate(0) translate(4 287)">
<title>%3</title>
<polygon fill="#ffffff" stroke="transparent" points="-4,4 -4,-287 2487.9919,-287 2487.9919,4 -4,4"/>
<!-- material sample to disease or phenotypic feature association -->
<g id="node1" class="node">
<title>material sample to disease or phenotypic feature association</title>
<ellipse fill="none" stroke="#000000" cx="1543.0456" cy="-265" rx="224.4604" ry="18"/>
<text text-anchor="middle" x="1543.0456" y="-261.3" font-family="Times,serif" font-size="14.00" fill="#000000">material sample to disease or phenotypic feature association</text>
</g>
<!-- association -->
<g id="node2" class="node">
<title>association</title>
<ellipse fill="none" stroke="#000000" cx="50.0456" cy="-178" rx="50.0912" ry="18"/>
<text text-anchor="middle" x="50.0456" y="-174.3" font-family="Times,serif" font-size="14.00" fill="#000000">association</text>
</g>
<!-- material sample to disease or phenotypic feature association&#45;&gt;association -->
<g id="edge1" class="edge">
<title>material sample to disease or phenotypic feature association&#45;&gt;association</title>
<path fill="none" stroke="#000000" d="M1335.4004,-258.1089C1151.5238,-251.6843 875.8587,-241.266 636.0456,-229 401.671,-217.0122 339.9632,-237.8592 109.0456,-196 104.8372,-195.2371 100.5059,-194.2742 96.1926,-193.1922"/>
<polygon fill="#000000" stroke="#000000" points="96.7943,-189.729 86.2268,-190.4896 94.9621,-196.485 96.7943,-189.729"/>
<text text-anchor="middle" x="647.0456" y="-217.8" font-family="Times,serif" font-size="14.00" fill="#000000">is_a</text>
</g>
<!-- material sample to entity association mixin -->
<g id="node3" class="node">
<title>material sample to entity association mixin</title>
<ellipse fill="none" stroke="#000000" cx="282.0456" cy="-178" rx="164.3708" ry="18"/>
<text text-anchor="middle" x="282.0456" y="-174.3" font-family="Times,serif" font-size="14.00" fill="#000000">material sample to entity association mixin</text>
</g>
<!-- material sample to disease or phenotypic feature association&#45;&gt;material sample to entity association mixin -->
<g id="edge2" class="edge">
<title>material sample to disease or phenotypic feature association&#45;&gt;material sample to entity association mixin</title>
<path fill="none" stroke="#000000" d="M1348.6676,-255.9673C1213.9809,-249.3777 1030.5441,-239.7477 869.0456,-229 684.8693,-216.7431 638.8552,-212.8856 455.0456,-196 440.3687,-194.6517 424.9997,-193.1632 409.736,-191.637"/>
<polygon fill="#000000" stroke="#000000" points="410.0294,-188.149 399.7291,-190.6298 409.3283,-195.1138 410.0294,-188.149"/>
<text text-anchor="middle" x="881.0456" y="-217.8" font-family="Times,serif" font-size="14.00" fill="#000000">uses</text>
</g>
<!-- entity to disease or phenotypic feature association mixin -->
<g id="node4" class="node">
<title>entity to disease or phenotypic feature association mixin</title>
<ellipse fill="none" stroke="#000000" cx="675.0456" cy="-178" rx="210.6627" ry="18"/>
<text text-anchor="middle" x="675.0456" y="-174.3" font-family="Times,serif" font-size="14.00" fill="#000000">entity to disease or phenotypic feature association mixin</text>
</g>
<!-- material sample to disease or phenotypic feature association&#45;&gt;entity to disease or phenotypic feature association mixin -->
<g id="edge3" class="edge">
<title>material sample to disease or phenotypic feature association&#45;&gt;entity to disease or phenotypic feature association mixin</title>
<path fill="none" stroke="#000000" d="M1348.5002,-255.9952C1246.3622,-250.2479 1119.2365,-241.4909 1006.0456,-229 928.6743,-220.4619 841.7032,-206.9062 776.3328,-195.9159"/>
<polygon fill="#000000" stroke="#000000" points="776.8839,-192.4595 766.4405,-194.2446 775.7177,-199.3617 776.8839,-192.4595"/>
<text text-anchor="middle" x="1018.0456" y="-217.8" font-family="Times,serif" font-size="14.00" fill="#000000">uses</text>
</g>
<!-- id -->
<g id="node5" class="node">
<title>id</title>
<ellipse fill="none" stroke="#0000ff" cx="934.0456" cy="-178" rx="30.5947" ry="18"/>
<text text-anchor="middle" x="934.0456" y="-174.3" font-family="Times,serif" font-size="14.00" fill="#000000">string</text>
</g>
<!-- material sample to disease or phenotypic feature association&#45;&gt;id -->
<g id="edge4" class="edge">
<title>material sample to disease or phenotypic feature association&#45;&gt;id</title>
<path fill="none" stroke="#0000ff" d="M1354.6432,-255.2317C1279.4934,-249.7636 1192.3813,-241.4493 1114.0456,-229 1050.9104,-218.9664 1034.582,-216.5441 974.0456,-196 971.7943,-195.236 969.4973,-194.3906 967.1991,-193.4952"/>
<polygon fill="#0000ff" stroke="#0000ff" points="968.4369,-190.2194 957.8595,-189.6115 965.7492,-196.6828 968.4369,-190.2194"/>
<text text-anchor="middle" x="1119.5456" y="-217.8" font-family="Times,serif" font-size="14.00" fill="#000000">id</text>
</g>
<!-- iri -->
<g id="node6" class="node">
<title>iri</title>
<ellipse fill="none" stroke="#0000ff" cx="1019.0456" cy="-178" rx="36.2938" ry="18"/>
<text text-anchor="middle" x="1019.0456" y="-174.3" font-family="Times,serif" font-size="14.00" fill="#000000">iri type</text>
</g>
<!-- material sample to disease or phenotypic feature association&#45;&gt;iri -->
<g id="edge5" class="edge">
<title>material sample to disease or phenotypic feature association&#45;&gt;iri</title>
<path fill="none" stroke="#0000ff" d="M1382.4159,-252.4163C1325.251,-246.7848 1260.5633,-239.0918 1202.0456,-229 1140.3262,-218.356 1124.7914,-214.7884 1065.0456,-196 1062.2845,-195.1317 1059.452,-194.1796 1056.6148,-193.1807"/>
<polygon fill="#0000ff" stroke="#0000ff" points="1057.6412,-189.8289 1047.0477,-189.6587 1055.2229,-196.398 1057.6412,-189.8289"/>
<text text-anchor="middle" x="1208.5456" y="-217.8" font-family="Times,serif" font-size="14.00" fill="#000000">iri</text>
</g>
<!-- name -->
<g id="node7" class="node">
<title>name</title>
<ellipse fill="none" stroke="#0000ff" cx="1119.0456" cy="-178" rx="45.4919" ry="18"/>
<text text-anchor="middle" x="1119.0456" y="-174.3" font-family="Times,serif" font-size="14.00" fill="#000000">label type</text>
</g>
<!-- material sample to disease or phenotypic feature association&#45;&gt;name -->
<g id="edge6" class="edge">
<title>material sample to disease or phenotypic feature association&#45;&gt;name</title>
<path fill="none" stroke="#0000ff" d="M1397.3948,-251.2759C1355.6454,-245.8847 1310.2792,-238.6193 1269.0456,-229 1231.623,-220.2698 1190.3724,-205.8793 1160.6172,-194.6066"/>
<polygon fill="#0000ff" stroke="#0000ff" points="1161.5794,-191.2272 1150.9891,-190.9159 1159.0738,-197.7634 1161.5794,-191.2272"/>
<text text-anchor="middle" x="1284.5456" y="-217.8" font-family="Times,serif" font-size="14.00" fill="#000000">name</text>
</g>
<!-- description -->
<g id="node8" class="node">
<title>description</title>
<ellipse fill="none" stroke="#0000ff" cx="1240.0456" cy="-178" rx="57.6901" ry="18"/>
<text text-anchor="middle" x="1240.0456" y="-174.3" font-family="Times,serif" font-size="14.00" fill="#000000">narrative text</text>
</g>
<!-- material sample to disease or phenotypic feature association&#45;&gt;description -->
<g id="edge7" class="edge">
<title>material sample to disease or phenotypic feature association&#45;&gt;description</title>
<path fill="none" stroke="#0000ff" d="M1420.0114,-249.9403C1392.3066,-244.7817 1363.3341,-237.9614 1337.0456,-229 1315.4227,-221.6291 1292.7447,-209.9533 1274.758,-199.6322"/>
<polygon fill="#0000ff" stroke="#0000ff" points="1276.2075,-196.425 1265.8102,-194.3885 1272.6681,-202.4643 1276.2075,-196.425"/>
<text text-anchor="middle" x="1367.5456" y="-217.8" font-family="Times,serif" font-size="14.00" fill="#000000">description</text>
</g>
<!-- source -->
<g id="node9" class="node">
<title>source</title>
<ellipse fill="none" stroke="#0000ff" cx="1361.0456" cy="-178" rx="45.4919" ry="18"/>
<text text-anchor="middle" x="1361.0456" y="-174.3" font-family="Times,serif" font-size="14.00" fill="#000000">label type</text>
</g>
<!-- material sample to disease or phenotypic feature association&#45;&gt;source -->
<g id="edge8" class="edge">
<title>material sample to disease or phenotypic feature association&#45;&gt;source</title>
<path fill="none" stroke="#0000ff" d="M1470.4689,-247.9237C1454.7031,-242.8884 1438.4461,-236.6283 1424.0456,-229 1410.2367,-221.6851 1396.5535,-211.12 1385.4853,-201.5008"/>
<polygon fill="#0000ff" stroke="#0000ff" points="1387.7065,-198.7915 1377.9237,-194.7237 1383.0346,-204.0043 1387.7065,-198.7915"/>
<text text-anchor="middle" x="1442.0456" y="-217.8" font-family="Times,serif" font-size="14.00" fill="#000000">source</text>
</g>
<!-- provided by -->
<g id="node10" class="node">
<title>provided by</title>
<ellipse fill="none" stroke="#0000ff" cx="1454.0456" cy="-178" rx="29.795" ry="18"/>
<text text-anchor="middle" x="1454.0456" y="-174.3" font-family="Times,serif" font-size="14.00" fill="#000000">agent</text>
</g>
<!-- material sample to disease or phenotypic feature association&#45;&gt;provided by -->
<g id="edge9" class="edge">
<title>material sample to disease or phenotypic feature association&#45;&gt;provided by</title>
<path fill="none" stroke="#0000ff" d="M1496.6682,-247.3429C1487.9748,-242.4232 1479.5792,-236.3569 1473.0456,-229 1467.2468,-222.4706 1463.1586,-214.0085 1460.3016,-205.8603"/>
<polygon fill="#0000ff" stroke="#0000ff" points="1463.6348,-204.7904 1457.3952,-196.2278 1456.9332,-206.8126 1463.6348,-204.7904"/>
<text text-anchor="middle" x="1506.0456" y="-217.8" font-family="Times,serif" font-size="14.00" fill="#000000">provided by</text>
</g>
<!-- has attribute -->
<g id="node11" class="node">
<title>has attribute</title>
<ellipse fill="none" stroke="#0000ff" cx="1542.0456" cy="-178" rx="40.0939" ry="18"/>
<text text-anchor="middle" x="1542.0456" y="-174.3" font-family="Times,serif" font-size="14.00" fill="#000000">attribute</text>
</g>
<!-- material sample to disease or phenotypic feature association&#45;&gt;has attribute -->
<g id="edge10" class="edge">
<title>material sample to disease or phenotypic feature association&#45;&gt;has attribute</title>
<path fill="none" stroke="#0000ff" d="M1542.8384,-246.9735C1542.7029,-235.1918 1542.5233,-219.5607 1542.3692,-206.1581"/>
<polygon fill="#0000ff" stroke="#0000ff" points="1545.8673,-205.9624 1542.2525,-196.0034 1538.8678,-206.043 1545.8673,-205.9624"/>
<text text-anchor="middle" x="1576.5456" y="-217.8" font-family="Times,serif" font-size="14.00" fill="#000000">has attribute</text>
</g>
<!-- subject -->
<g id="node12" class="node">
<title>subject</title>
<ellipse fill="none" stroke="#0000ff" cx="1656.0456" cy="-178" rx="55.4913" ry="18"/>
<text text-anchor="middle" x="1656.0456" y="-174.3" font-family="Times,serif" font-size="14.00" fill="#000000">named thing</text>
</g>
<!-- material sample to disease or phenotypic feature association&#45;&gt;subject -->
<g id="edge11" class="edge">
<title>material sample to disease or phenotypic feature association&#45;&gt;subject</title>
<path fill="none" stroke="#0000ff" d="M1585.3443,-247.1534C1595.2488,-242.0223 1605.4178,-235.914 1614.0456,-229 1622.9991,-221.825 1631.3682,-212.4704 1638.2426,-203.735"/>
<polygon fill="#0000ff" stroke="#0000ff" points="1641.1197,-205.7327 1644.3457,-195.6409 1635.5305,-201.5183 1641.1197,-205.7327"/>
<text text-anchor="middle" x="1648.5456" y="-217.8" font-family="Times,serif" font-size="14.00" fill="#000000">subject</text>
</g>
<!-- predicate -->
<g id="node13" class="node">
<title>predicate</title>
<ellipse fill="none" stroke="#0000ff" cx="1790.0456" cy="-178" rx="60.3893" ry="18"/>
<text text-anchor="middle" x="1790.0456" y="-174.3" font-family="Times,serif" font-size="14.00" fill="#000000">predicate type</text>
</g>
<!-- material sample to disease or phenotypic feature association&#45;&gt;predicate -->
<g id="edge12" class="edge">
<title>material sample to disease or phenotypic feature association&#45;&gt;predicate</title>
<path fill="none" stroke="#0000ff" d="M1611.2057,-247.8397C1631.0009,-242.3563 1652.5366,-235.9021 1672.0456,-229 1698.0033,-219.8163 1726.3479,-207.6392 1748.7498,-197.487"/>
<polygon fill="#0000ff" stroke="#0000ff" points="1750.3235,-200.616 1757.9625,-193.2746 1747.4126,-194.2499 1750.3235,-200.616"/>
<text text-anchor="middle" x="1734.0456" y="-217.8" font-family="Times,serif" font-size="14.00" fill="#000000">predicate</text>
</g>
<!-- object -->
<g id="node14" class="node">
<title>object</title>
<ellipse fill="none" stroke="#0000ff" cx="1834.0456" cy="-91" rx="55.4913" ry="18"/>
<text text-anchor="middle" x="1834.0456" y="-87.3" font-family="Times,serif" font-size="14.00" fill="#000000">named thing</text>
</g>
<!-- material sample to disease or phenotypic feature association&#45;&gt;object -->
<g id="edge13" class="edge">
<title>material sample to disease or phenotypic feature association&#45;&gt;object</title>
<path fill="none" stroke="#0000ff" d="M1692.318,-251.4863C1764.0492,-241.4128 1838.8209,-224.3385 1859.0456,-196 1875.5972,-172.8082 1863.6678,-140.1245 1851.2509,-117.4058"/>
<polygon fill="#0000ff" stroke="#0000ff" points="1854.2084,-115.5287 1846.1641,-108.6338 1848.1529,-119.0403 1854.2084,-115.5287"/>
<text text-anchor="middle" x="1885.0456" y="-174.3" font-family="Times,serif" font-size="14.00" fill="#000000">object</text>
</g>
<!-- relation -->
<g id="node15" class="node">
<title>relation</title>
<ellipse fill="none" stroke="#0000ff" cx="1834.0456" cy="-18" rx="45.4919" ry="18"/>
<text text-anchor="middle" x="1834.0456" y="-14.3" font-family="Times,serif" font-size="14.00" fill="#000000">uriorcurie</text>
</g>
<!-- material sample to disease or phenotypic feature association&#45;&gt;relation -->
<g id="edge14" class="edge">
<title>material sample to disease or phenotypic feature association&#45;&gt;relation</title>
<path fill="none" stroke="#0000ff" d="M1710.0005,-252.9736C1750.7319,-247.6656 1793.8509,-240.0178 1833.0456,-229 1867.3225,-219.3645 1886.7383,-225.9163 1906.0456,-196 1918.1322,-177.272 1915.2463,-106.3409 1898.0456,-73 1891.1271,-59.5896 1879.4155,-48.067 1867.8876,-39.0839"/>
<polygon fill="#0000ff" stroke="#0000ff" points="1869.7303,-36.0949 1859.5973,-33.001 1865.5893,-41.7386 1869.7303,-36.0949"/>
<text text-anchor="middle" x="1935.0456" y="-130.8" font-family="Times,serif" font-size="14.00" fill="#000000">relation</text>
</g>
<!-- negated -->
<g id="node16" class="node">
<title>negated</title>
<ellipse fill="none" stroke="#0000ff" cx="2014.0456" cy="-178" rx="38.1938" ry="18"/>
<text text-anchor="middle" x="2014.0456" y="-174.3" font-family="Times,serif" font-size="14.00" fill="#000000">boolean</text>
</g>
<!-- material sample to disease or phenotypic feature association&#45;&gt;negated -->
<g id="edge15" class="edge">
<title>material sample to disease or phenotypic feature association&#45;&gt;negated</title>
<path fill="none" stroke="#0000ff" d="M1703.8131,-252.4307C1819.3988,-243.1967 1955.9658,-231.7934 1962.0456,-229 1974.7387,-223.1679 1986.16,-212.8725 1995.0435,-203.0518"/>
<polygon fill="#0000ff" stroke="#0000ff" points="1997.7689,-205.2499 2001.5997,-195.3719 1992.445,-200.705 1997.7689,-205.2499"/>
<text text-anchor="middle" x="2005.5456" y="-217.8" font-family="Times,serif" font-size="14.00" fill="#000000">negated</text>
</g>
<!-- qualifiers -->
<g id="node17" class="node">
<title>qualifiers</title>
<ellipse fill="none" stroke="#0000ff" cx="2132.0456" cy="-178" rx="61.99" ry="18"/>
<text text-anchor="middle" x="2132.0456" y="-174.3" font-family="Times,serif" font-size="14.00" fill="#000000">ontology class</text>
</g>
<!-- material sample to disease or phenotypic feature association&#45;&gt;qualifiers -->
<g id="edge16" class="edge">
<title>material sample to disease or phenotypic feature association&#45;&gt;qualifiers</title>
<path fill="none" stroke="#0000ff" d="M1703.7838,-252.4423C1727.9977,-250.5912 1752.679,-248.7273 1776.0456,-247 1889.3518,-238.6244 1921.5172,-259.1992 2031.0456,-229 2054.4798,-222.5387 2078.859,-210.4068 2097.7935,-199.5964"/>
<polygon fill="#0000ff" stroke="#0000ff" points="2099.7623,-202.4996 2106.6233,-194.4263 2096.2253,-196.4589 2099.7623,-202.4996"/>
<text text-anchor="middle" x="2095.0456" y="-217.8" font-family="Times,serif" font-size="14.00" fill="#000000">qualifiers</text>
</g>
<!-- publications -->
<g id="node18" class="node">
<title>publications</title>
<ellipse fill="none" stroke="#0000ff" cx="2262.0456" cy="-178" rx="50.0912" ry="18"/>
<text text-anchor="middle" x="2262.0456" y="-174.3" font-family="Times,serif" font-size="14.00" fill="#000000">publication</text>
</g>
<!-- material sample to disease or phenotypic feature association&#45;&gt;publications -->
<g id="edge17" class="edge">
<title>material sample to disease or phenotypic feature association&#45;&gt;publications</title>
<path fill="none" stroke="#0000ff" d="M1701.2419,-252.2308C1726.2623,-250.3693 1751.854,-248.558 1776.0456,-247 1931.0417,-237.0176 1972.9473,-260.4577 2125.0456,-229 2158.8014,-222.0184 2195.302,-208.0894 2222.1332,-196.5501"/>
<polygon fill="#0000ff" stroke="#0000ff" points="2223.8009,-199.6408 2231.558,-192.4242 2220.9937,-193.2283 2223.8009,-199.6408"/>
<text text-anchor="middle" x="2209.5456" y="-217.8" font-family="Times,serif" font-size="14.00" fill="#000000">publications</text>
</g>
<!-- type -->
<g id="node19" class="node">
<title>type</title>
<ellipse fill="none" stroke="#000000" cx="2357.0456" cy="-178" rx="27" ry="18"/>
<text text-anchor="middle" x="2357.0456" y="-174.3" font-family="Times,serif" font-size="14.00" fill="#000000">type</text>
</g>
<!-- material sample to disease or phenotypic feature association&#45;&gt;type -->
<g id="edge18" class="edge">
<title>material sample to disease or phenotypic feature association&#45;&gt;type</title>
<path fill="none" stroke="#0000ff" d="M1699.3411,-252.084C1724.9611,-250.2089 1751.2365,-248.4318 1776.0456,-247 1880.6146,-240.965 2145.0331,-252.7605 2247.0456,-229 2275.9763,-222.2615 2306.4366,-207.455 2327.9492,-195.5228"/>
<polygon fill="#0000ff" stroke="#0000ff" points="2329.9122,-198.433 2336.8778,-190.4499 2326.4541,-192.3468 2329.9122,-198.433"/>
<text text-anchor="middle" x="2300.0456" y="-217.8" font-family="Times,serif" font-size="14.00" fill="#000000">type</text>
</g>
<!-- category -->
<g id="node21" class="node">
<title>category</title>
<ellipse fill="none" stroke="#000000" cx="2443.0456" cy="-178" rx="40.8928" ry="18"/>
<text text-anchor="middle" x="2443.0456" y="-174.3" font-family="Times,serif" font-size="14.00" fill="#000000">category</text>
</g>
<!-- material sample to disease or phenotypic feature association&#45;&gt;category -->
<g id="edge19" class="edge">
<title>material sample to disease or phenotypic feature association&#45;&gt;category</title>
<path fill="none" stroke="#0000ff" d="M1698.7079,-252.0246C1724.5268,-250.1453 1751.0306,-248.3825 1776.0456,-247 1895.9293,-240.3744 2198.5567,-253.7463 2316.0456,-229 2348.2067,-222.226 2382.6921,-207.882 2407.5998,-196.1267"/>
<polygon fill="#0000ff" stroke="#0000ff" points="2409.1597,-199.2602 2416.6521,-191.7692 2406.1236,-192.9529 2409.1597,-199.2602"/>
<text text-anchor="middle" x="2386.5456" y="-217.8" font-family="Times,serif" font-size="14.00" fill="#000000">category</text>
</g>
<!-- subject&#45;&gt;object -->
<g id="edge20" class="edge">
<title>subject&#45;&gt;object</title>
<path fill="none" stroke="#000000" d="M1687.0508,-162.8458C1716.7862,-148.3121 1761.8198,-126.3014 1794.2026,-110.4738"/>
<polygon fill="#000000" stroke="#000000" points="1795.9483,-113.5163 1803.3956,-105.9806 1792.8744,-107.2273 1795.9483,-113.5163"/>
<text text-anchor="middle" x="1777.0456" y="-130.8" font-family="Times,serif" font-size="14.00" fill="#000000">relation</text>
</g>
<!-- subject&#45;&gt;relation -->
<g id="edge21" class="edge">
<title>subject&#45;&gt;relation</title>
<path fill="none" stroke="#000000" stroke-dasharray="1,5" d="M1674.4277,-160.7068C1696.8133,-139.7319 1735.8715,-103.4061 1770.0456,-73 1781.9356,-62.4209 1795.2591,-50.9164 1806.6585,-41.1768"/>
<polygon fill="#000000" stroke="#000000" points="1809.229,-43.5848 1814.571,-34.4352 1804.6892,-38.2565 1809.229,-43.5848"/>
</g>
<!-- object&#45;&gt;relation -->
<g id="edge22" class="edge">
<title>object&#45;&gt;relation</title>
<path fill="none" stroke="#000000" stroke-dasharray="1,5" d="M1834.0456,-72.9551C1834.0456,-64.8828 1834.0456,-55.1764 1834.0456,-46.1817"/>
<polygon fill="#000000" stroke="#000000" points="1837.5457,-46.0903 1834.0456,-36.0904 1830.5457,-46.0904 1837.5457,-46.0903"/>
</g>
<!-- association_type -->
<g id="node20" class="node">
<title>association_type</title>
<ellipse fill="none" stroke="#0000ff" cx="1816.0456" cy="-265" rx="30.5947" ry="18"/>
<text text-anchor="middle" x="1816.0456" y="-261.3" font-family="Times,serif" font-size="14.00" fill="#000000">string</text>
</g>
<!-- association_category -->
<g id="node22" class="node">
<title>association_category</title>
<ellipse fill="none" stroke="#0000ff" cx="1915.0456" cy="-265" rx="50.0912" ry="18"/>
<text text-anchor="middle" x="1915.0456" y="-261.3" font-family="Times,serif" font-size="14.00" fill="#000000">association</text>
</g>
</g>
</svg>
