<?xml version="1.0" encoding="UTF-8" standalone="no"?>
<!DOCTYPE svg PUBLIC "-//W3C//DTD SVG 1.1//EN"
 "http://www.w3.org/Graphics/SVG/1.1/DTD/svg11.dtd">
<!-- Generated by graphviz version 2.40.1 (20161225.0304)
 -->
<!-- Title: %3 Pages: 1 -->
<svg width="1917pt" height="131pt"
 viewBox="0.00 0.00 1916.54 131.00" xmlns="http://www.w3.org/2000/svg" xmlns:xlink="http://www.w3.org/1999/xlink">
<g id="graph0" class="graph" transform="scale(1 1) rotate(0) translate(4 127)">
<title>%3</title>
<polygon fill="#ffffff" stroke="transparent" points="-4,4 -4,-127 1912.5415,-127 1912.5415,4 -4,4"/>
<!-- material sample -->
<g id="node1" class="node">
<title>material sample</title>
<ellipse fill="none" stroke="#000000" cx="1037.2451" cy="-105" rx="67.6881" ry="18"/>
<text text-anchor="middle" x="1037.2451" y="-101.3" font-family="Times,serif" font-size="14.00" fill="#000000">material sample</text>
</g>
<!-- named thing -->
<g id="node2" class="node">
<title>named thing</title>
<ellipse fill="none" stroke="#000000" cx="55.2451" cy="-18" rx="55.4913" ry="18"/>
<text text-anchor="middle" x="55.2451" y="-14.3" font-family="Times,serif" font-size="14.00" fill="#000000">named thing</text>
</g>
<!-- material sample&#45;&gt;named thing -->
<g id="edge1" class="edge">
<title>material sample&#45;&gt;named thing</title>
<path fill="none" stroke="#000000" d="M969.8348,-102.9981C849.8651,-99.0657 591.4886,-88.9271 374.2451,-69 260.4444,-58.5614 231.2129,-58.864 119.2451,-36 114.7993,-35.0922 110.2097,-34.0387 105.6253,-32.9057"/>
<polygon fill="#000000" stroke="#000000" points="106.2134,-29.4426 95.6553,-30.324 104.4587,-36.2191 106.2134,-29.4426"/>
<text text-anchor="middle" x="385.2451" y="-57.8" font-family="Times,serif" font-size="14.00" fill="#000000">is_a</text>
</g>
<!-- subject of investigation -->
<g id="node3" class="node">
<title>subject of investigation</title>
<ellipse fill="none" stroke="#000000" cx="221.2451" cy="-18" rx="92.8835" ry="18"/>
<text text-anchor="middle" x="221.2451" y="-14.3" font-family="Times,serif" font-size="14.00" fill="#000000">subject of investigation</text>
</g>
<!-- material sample&#45;&gt;subject of investigation -->
<g id="edge2" class="edge">
<title>material sample&#45;&gt;subject of investigation</title>
<path fill="none" stroke="#000000" d="M969.8,-103.2526C865.9811,-99.9603 660.9208,-91.0676 488.2451,-69 421.0699,-60.4152 345.3087,-45.4296 291.6949,-33.9168"/>
<polygon fill="#000000" stroke="#000000" points="292.1269,-30.4294 281.6131,-31.7368 290.6474,-37.2713 292.1269,-30.4294"/>
<text text-anchor="middle" x="500.2451" y="-57.8" font-family="Times,serif" font-size="14.00" fill="#000000">uses</text>
</g>
<!-- physical entity -->
<g id="node4" class="node">
<title>physical entity</title>
<ellipse fill="none" stroke="#000000" cx="394.2451" cy="-18" rx="62.2891" ry="18"/>
<text text-anchor="middle" x="394.2451" y="-14.3" font-family="Times,serif" font-size="14.00" fill="#000000">physical entity</text>
</g>
<!-- material sample&#45;&gt;physical entity -->
<g id="edge3" class="edge">
<title>material sample&#45;&gt;physical entity</title>
<path fill="none" stroke="#000000" d="M969.6085,-103.4785C880.6442,-100.5999 719.7178,-92.3624 584.2451,-69 536.6652,-60.7948 483.695,-46.0996 445.7969,-34.5843"/>
<polygon fill="#000000" stroke="#000000" points="446.5995,-31.1696 436.0126,-31.5803 444.5449,-37.8613 446.5995,-31.1696"/>
<text text-anchor="middle" x="596.2451" y="-57.8" font-family="Times,serif" font-size="14.00" fill="#000000">uses</text>
</g>
<!-- id -->
<g id="node5" class="node">
<title>id</title>
<ellipse fill="none" stroke="#0000ff" cx="505.2451" cy="-18" rx="30.5947" ry="18"/>
<text text-anchor="middle" x="505.2451" y="-14.3" font-family="Times,serif" font-size="14.00" fill="#000000">string</text>
</g>
<!-- material sample&#45;&gt;id -->
<g id="edge4" class="edge">
<title>material sample&#45;&gt;id</title>
<path fill="none" stroke="#0000ff" d="M972.2596,-100.0104C904.3892,-94.3383 794.9632,-83.8935 701.2451,-69 631.2557,-57.8774 612.6113,-58.0004 545.2451,-36 542.9852,-35.262 540.6816,-34.4362 538.3786,-33.5552"/>
<polygon fill="#0000ff" stroke="#0000ff" points="539.6074,-30.2761 529.028,-29.7048 536.942,-36.7488 539.6074,-30.2761"/>
<text text-anchor="middle" x="706.7451" y="-57.8" font-family="Times,serif" font-size="14.00" fill="#000000">id</text>
</g>
<!-- name -->
<g id="node6" class="node">
<title>name</title>
<ellipse fill="none" stroke="#0000ff" cx="599.2451" cy="-18" rx="45.4919" ry="18"/>
<text text-anchor="middle" x="599.2451" y="-14.3" font-family="Times,serif" font-size="14.00" fill="#000000">label type</text>
</g>
<!-- material sample&#45;&gt;name -->
<g id="edge5" class="edge">
<title>material sample&#45;&gt;name</title>
<path fill="none" stroke="#0000ff" d="M974.0789,-98.4019C921.4117,-92.3795 844.5511,-82.3792 778.2451,-69 722.3424,-57.72 708.9225,-52.2089 654.2451,-36 650.8677,-34.9988 647.3837,-33.9341 643.8856,-32.8423"/>
<polygon fill="#0000ff" stroke="#0000ff" points="644.6575,-29.4152 634.0672,-29.723 642.538,-36.0866 644.6575,-29.4152"/>
<text text-anchor="middle" x="793.7451" y="-57.8" font-family="Times,serif" font-size="14.00" fill="#000000">name</text>
</g>
<!-- category -->
<g id="node7" class="node">
<title>category</title>
<ellipse fill="none" stroke="#0000ff" cx="721.2451" cy="-18" rx="58.4896" ry="18"/>
<text text-anchor="middle" x="721.2451" y="-14.3" font-family="Times,serif" font-size="14.00" fill="#000000">category type</text>
</g>
<!-- material sample&#45;&gt;category -->
<g id="edge6" class="edge">
<title>material sample&#45;&gt;category</title>
<path fill="none" stroke="#0000ff" d="M979.388,-95.6334C944.3061,-89.3784 898.8238,-80.243 859.2451,-69 827.2964,-59.9244 792.1998,-46.9106 765.3957,-36.3007"/>
<polygon fill="#0000ff" stroke="#0000ff" points="766.5018,-32.9736 755.917,-32.5123 763.9038,-39.4737 766.5018,-32.9736"/>
<text text-anchor="middle" x="882.7451" y="-57.8" font-family="Times,serif" font-size="14.00" fill="#000000">category</text>
</g>
<!-- related to -->
<g id="node8" class="node">
<title>related to</title>
<ellipse fill="none" stroke="#0000ff" cx="853.2451" cy="-18" rx="55.4913" ry="18"/>
<text text-anchor="middle" x="853.2451" y="-14.3" font-family="Times,serif" font-size="14.00" fill="#000000">named thing</text>
</g>
<!-- material sample&#45;&gt;related to -->
<g id="edge7" class="edge">
<title>material sample&#45;&gt;related to</title>
<path fill="none" stroke="#0000ff" d="M992.2136,-91.4527C974.1476,-85.4176 953.3569,-77.701 935.2451,-69 918.1005,-60.7637 900.0469,-49.811 885.2572,-40.1672"/>
<polygon fill="#0000ff" stroke="#0000ff" points="886.7765,-36.9753 876.5076,-34.3678 882.9091,-42.81 886.7765,-36.9753"/>
<text text-anchor="middle" x="961.2451" y="-57.8" font-family="Times,serif" font-size="14.00" fill="#000000">related to</text>
</g>
<!-- interacts with -->
<g id="node9" class="node">
<title>interacts with</title>
<ellipse fill="none" stroke="#0000ff" cx="981.2451" cy="-18" rx="55.4913" ry="18"/>
<text text-anchor="middle" x="981.2451" y="-14.3" font-family="Times,serif" font-size="14.00" fill="#000000">named thing</text>
</g>
<!-- material sample&#45;&gt;interacts with -->
<g id="edge8" class="edge">
<title>material sample&#45;&gt;interacts with</title>
<path fill="none" stroke="#0000ff" d="M1014.5868,-87.6371C1008.6285,-82.1935 1002.6451,-75.8111 998.2451,-69 993.6871,-61.9444 990.2328,-53.5464 987.6696,-45.6218"/>
<polygon fill="#0000ff" stroke="#0000ff" points="991.0205,-44.6103 984.8833,-35.974 984.2954,-46.5525 991.0205,-44.6103"/>
<text text-anchor="middle" x="1035.2451" y="-57.8" font-family="Times,serif" font-size="14.00" fill="#000000">interacts with</text>
</g>
<!-- correlated with -->
<g id="node10" class="node">
<title>correlated with</title>
<ellipse fill="none" stroke="#0000ff" cx="1109.2451" cy="-18" rx="55.4913" ry="18"/>
<text text-anchor="middle" x="1109.2451" y="-14.3" font-family="Times,serif" font-size="14.00" fill="#000000">named thing</text>
</g>
<!-- material sample&#45;&gt;correlated with -->
<g id="edge9" class="edge">
<title>material sample&#45;&gt;correlated with</title>
<path fill="none" stroke="#0000ff" d="M1055.2162,-87.5291C1060.8495,-81.789 1066.9697,-75.2698 1072.2451,-69 1078.7617,-61.2549 1085.4014,-52.4458 1091.2238,-44.3537"/>
<polygon fill="#0000ff" stroke="#0000ff" points="1094.2588,-46.1238 1097.1764,-35.9386 1088.544,-42.0813 1094.2588,-46.1238"/>
<text text-anchor="middle" x="1125.2451" y="-57.8" font-family="Times,serif" font-size="14.00" fill="#000000">correlated with</text>
</g>
<!-- node property -->
<g id="node11" class="node">
<title>node property</title>
<ellipse fill="none" stroke="#0000ff" cx="1213.2451" cy="-18" rx="30.5947" ry="18"/>
<text text-anchor="middle" x="1213.2451" y="-14.3" font-family="Times,serif" font-size="14.00" fill="#000000">string</text>
</g>
<!-- material sample&#45;&gt;node property -->
<g id="edge10" class="edge">
<title>material sample&#45;&gt;node property</title>
<path fill="none" stroke="#0000ff" d="M1097.358,-96.7359C1121.3819,-91.4595 1148.4574,-82.883 1170.2451,-69 1180.5646,-62.4245 1189.6905,-52.5894 1196.8502,-43.3055"/>
<polygon fill="#0000ff" stroke="#0000ff" points="1199.806,-45.1916 1202.8506,-35.0436 1194.1422,-41.0781 1199.806,-45.1916"/>
<text text-anchor="middle" x="1225.2451" y="-57.8" font-family="Times,serif" font-size="14.00" fill="#000000">node property</text>
</g>
<!-- iri -->
<g id="node12" class="node">
<title>iri</title>
<ellipse fill="none" stroke="#0000ff" cx="1298.2451" cy="-18" rx="36.2938" ry="18"/>
<text text-anchor="middle" x="1298.2451" y="-14.3" font-family="Times,serif" font-size="14.00" fill="#000000">iri type</text>
</g>
<!-- material sample&#45;&gt;iri -->
<g id="edge11" class="edge">
<title>material sample&#45;&gt;iri</title>
<path fill="none" stroke="#0000ff" d="M1103.1208,-100.8403C1161.3715,-96.0696 1241.0487,-86.5379 1267.2451,-69 1275.936,-63.1817 1282.5928,-54.0229 1287.4684,-45.0625"/>
<polygon fill="#0000ff" stroke="#0000ff" points="1290.6774,-46.4672 1291.9152,-35.9449 1284.3858,-43.3986 1290.6774,-46.4672"/>
<text text-anchor="middle" x="1288.7451" y="-57.8" font-family="Times,serif" font-size="14.00" fill="#000000">iri</text>
</g>
<!-- synonym -->
<g id="node13" class="node">
<title>synonym</title>
<ellipse fill="none" stroke="#0000ff" cx="1398.2451" cy="-18" rx="45.4919" ry="18"/>
<text text-anchor="middle" x="1398.2451" y="-14.3" font-family="Times,serif" font-size="14.00" fill="#000000">label type</text>
</g>
<!-- material sample&#45;&gt;synonym -->
<g id="edge12" class="edge">
<title>material sample&#45;&gt;synonym</title>
<path fill="none" stroke="#0000ff" d="M1104.0165,-102.0602C1157.7929,-98.2209 1234.7806,-89.3745 1299.2451,-69 1322.3755,-61.6895 1346.6137,-49.2942 1365.3177,-38.5544"/>
<polygon fill="#0000ff" stroke="#0000ff" points="1367.1724,-41.5242 1374.026,-33.4447 1363.6298,-35.4868 1367.1724,-41.5242"/>
<text text-anchor="middle" x="1361.7451" y="-57.8" font-family="Times,serif" font-size="14.00" fill="#000000">synonym</text>
</g>
<!-- full name -->
<g id="node14" class="node">
<title>full name</title>
<ellipse fill="none" stroke="#0000ff" cx="1507.2451" cy="-18" rx="45.4919" ry="18"/>
<text text-anchor="middle" x="1507.2451" y="-14.3" font-family="Times,serif" font-size="14.00" fill="#000000">label type</text>
</g>
<!-- material sample&#45;&gt;full name -->
<g id="edge13" class="edge">
<title>material sample&#45;&gt;full name</title>
<path fill="none" stroke="#0000ff" d="M1103.2083,-100.7619C1190.2316,-94.7446 1338.5297,-82.8983 1391.2451,-69 1419.1652,-61.6389 1448.9476,-48.4201 1471.3438,-37.285"/>
<polygon fill="#0000ff" stroke="#0000ff" points="1473.1252,-40.3061 1480.463,-32.6635 1469.9609,-34.0621 1473.1252,-40.3061"/>
<text text-anchor="middle" x="1460.7451" y="-57.8" font-family="Times,serif" font-size="14.00" fill="#000000">full name</text>
</g>
<!-- description -->
<g id="node15" class="node">
<title>description</title>
<ellipse fill="none" stroke="#0000ff" cx="1628.2451" cy="-18" rx="57.6901" ry="18"/>
<text text-anchor="middle" x="1628.2451" y="-14.3" font-family="Times,serif" font-size="14.00" fill="#000000">narrative text</text>
</g>
<!-- material sample&#45;&gt;description -->
<g id="edge14" class="edge">
<title>material sample&#45;&gt;description</title>
<path fill="none" stroke="#0000ff" d="M1103.977,-101.9814C1211.7613,-96.7232 1419.3528,-84.9067 1491.2451,-69 1524.1289,-61.7242 1559.7338,-48.2874 1586.4026,-37.032"/>
<polygon fill="#0000ff" stroke="#0000ff" points="1587.992,-40.1587 1595.802,-32.9994 1585.232,-33.7257 1587.992,-40.1587"/>
<text text-anchor="middle" x="1572.7451" y="-57.8" font-family="Times,serif" font-size="14.00" fill="#000000">description</text>
</g>
<!-- systematic synonym -->
<g id="node16" class="node">
<title>systematic synonym</title>
<ellipse fill="none" stroke="#0000ff" cx="1749.2451" cy="-18" rx="45.4919" ry="18"/>
<text text-anchor="middle" x="1749.2451" y="-14.3" font-family="Times,serif" font-size="14.00" fill="#000000">label type</text>
</g>
<!-- material sample&#45;&gt;systematic synonym -->
<g id="edge15" class="edge">
<title>material sample&#45;&gt;systematic synonym</title>
<path fill="none" stroke="#0000ff" d="M1104.7769,-103.1158C1234.2835,-99.1095 1513.0575,-88.4795 1607.2451,-69 1642.9265,-61.6205 1681.7562,-47.2033 1709.7783,-35.5751"/>
<polygon fill="#0000ff" stroke="#0000ff" points="1711.3626,-38.7055 1719.2164,-31.5945 1708.6422,-32.2557 1711.3626,-38.7055"/>
<text text-anchor="middle" x="1715.2451" y="-57.8" font-family="Times,serif" font-size="14.00" fill="#000000">systematic synonym</text>
</g>
<!-- has attribute -->
<g id="node17" class="node">
<title>has attribute</title>
<ellipse fill="none" stroke="#0000ff" cx="1868.2451" cy="-18" rx="40.0939" ry="18"/>
<text text-anchor="middle" x="1868.2451" y="-14.3" font-family="Times,serif" font-size="14.00" fill="#000000">attribute</text>
</g>
<!-- material sample&#45;&gt;has attribute -->
<g id="edge16" class="edge">
<title>material sample&#45;&gt;has attribute</title>
<path fill="none" stroke="#0000ff" d="M1104.6657,-103.4405C1274.6684,-99.2625 1711.822,-86.9066 1775.2451,-69 1797.7306,-62.6516 1820.7728,-50.0677 1838.2961,-38.989"/>
<polygon fill="#0000ff" stroke="#0000ff" points="1840.4522,-41.7619 1846.9245,-33.3738 1836.6339,-35.8949 1840.4522,-41.7619"/>
<text text-anchor="middle" x="1842.7451" y="-57.8" font-family="Times,serif" font-size="14.00" fill="#000000">has attribute</text>
</g>
</g>
</svg>
