<?xml version="1.0" encoding="UTF-8" standalone="no"?>
<!DOCTYPE svg PUBLIC "-//W3C//DTD SVG 1.1//EN"
 "http://www.w3.org/Graphics/SVG/1.1/DTD/svg11.dtd">
<!-- Generated by graphviz version 3.0.0 (20220226.1711)
 -->
<!-- Pages: 1 -->
<svg width="2416pt" height="291pt"
 viewBox="0.00 0.00 2415.94 291.00" xmlns="http://www.w3.org/2000/svg" xmlns:xlink="http://www.w3.org/1999/xlink">
<g id="graph0" class="graph" transform="scale(1 1) rotate(0) translate(4 287)">
<polygon fill="white" stroke="transparent" points="-4,4 -4,-287 2411.94,-287 2411.94,4 -4,4"/>
<!-- material sample derivation association -->
<g id="node1" class="node">
<title>material sample derivation association</title>
<ellipse fill="none" stroke="black" cx="1032.05" cy="-265" rx="147.57" ry="18"/>
<text text-anchor="middle" x="1032.05" y="-261.3" font-family="Times,serif" font-size="14.00">material sample derivation association</text>
</g>
<!-- association -->
<g id="node2" class="node">
<title>association</title>
<ellipse fill="none" stroke="black" cx="50.05" cy="-178" rx="50.09" ry="18"/>
<text text-anchor="middle" x="50.05" y="-174.3" font-family="Times,serif" font-size="14.00">association</text>
</g>
<!-- material sample derivation association&#45;&gt;association -->
<g id="edge1" class="edge">
<title>material sample derivation association&#45;&gt;association</title>
<path fill="none" stroke="black" d="M886.52,-261.93C688.54,-258.38 344.79,-249.45 221.05,-229 176.61,-221.66 127.39,-206.49 93.21,-194.77"/>
<polygon fill="black" stroke="black" points="94.15,-191.39 83.55,-191.42 91.85,-198 94.15,-191.39"/>
<text text-anchor="middle" x="232.05" y="-217.8" font-family="Times,serif" font-size="14.00">is_a</text>
</g>
<!-- id -->
<g id="node3" class="node">
<title>id</title>
<ellipse fill="none" stroke="blue" cx="149.05" cy="-178" rx="30.59" ry="18"/>
<text text-anchor="middle" x="149.05" y="-174.3" font-family="Times,serif" font-size="14.00">string</text>
</g>
<!-- material sample derivation association&#45;&gt;id -->
<g id="edge2" class="edge">
<title>material sample derivation association&#45;&gt;id</title>
<path fill="none" stroke="blue" d="M889.23,-260.36C713.4,-255.29 425.06,-244.9 319.05,-229 260.09,-220.16 245.53,-215.05 189.05,-196 186.67,-195.2 184.23,-194.32 181.8,-193.39"/>
<polygon fill="blue" stroke="blue" points="183.09,-190.14 172.5,-189.68 180.49,-196.64 183.09,-190.14"/>
<text text-anchor="middle" x="324.55" y="-217.8" font-family="Times,serif" font-size="14.00">id</text>
</g>
<!-- iri -->
<g id="node4" class="node">
<title>iri</title>
<ellipse fill="none" stroke="blue" cx="234.05" cy="-178" rx="36.29" ry="18"/>
<text text-anchor="middle" x="234.05" y="-174.3" font-family="Times,serif" font-size="14.00">iri type</text>
</g>
<!-- material sample derivation association&#45;&gt;iri -->
<g id="edge3" class="edge">
<title>material sample derivation association&#45;&gt;iri</title>
<path fill="none" stroke="blue" d="M890.61,-259.82C733.05,-254.53 488.46,-244.22 397.05,-229 352.72,-221.62 303.65,-205.41 271.05,-193.44"/>
<polygon fill="blue" stroke="blue" points="272.08,-190.09 261.48,-189.88 269.63,-196.65 272.08,-190.09"/>
<text text-anchor="middle" x="403.55" y="-217.8" font-family="Times,serif" font-size="14.00">iri</text>
</g>
<!-- name -->
<g id="node5" class="node">
<title>name</title>
<ellipse fill="none" stroke="blue" cx="334.05" cy="-178" rx="45.49" ry="18"/>
<text text-anchor="middle" x="334.05" y="-174.3" font-family="Times,serif" font-size="14.00">label type</text>
</g>
<!-- material sample derivation association&#45;&gt;name -->
<g id="edge4" class="edge">
<title>material sample derivation association&#45;&gt;name</title>
<path fill="none" stroke="blue" d="M889.2,-260.47C746.67,-256.01 537.88,-246.69 459.05,-229 428.04,-222.04 394.71,-208.37 370.27,-197.08"/>
<polygon fill="blue" stroke="blue" points="371.58,-193.83 361.04,-192.73 368.59,-200.16 371.58,-193.83"/>
<text text-anchor="middle" x="474.55" y="-217.8" font-family="Times,serif" font-size="14.00">name</text>
</g>
<!-- description -->
<g id="node6" class="node">
<title>description</title>
<ellipse fill="none" stroke="blue" cx="455.05" cy="-178" rx="57.69" ry="18"/>
<text text-anchor="middle" x="455.05" y="-174.3" font-family="Times,serif" font-size="14.00">narrative text</text>
</g>
<!-- material sample derivation association&#45;&gt;description -->
<g id="edge5" class="edge">
<title>material sample derivation association&#45;&gt;description</title>
<path fill="none" stroke="blue" d="M884.72,-263.63C756.92,-261.56 582.58,-253.99 518.05,-229 503.06,-223.2 488.82,-212.51 477.68,-202.5"/>
<polygon fill="blue" stroke="blue" points="479.83,-199.72 470.15,-195.41 475.03,-204.81 479.83,-199.72"/>
<text text-anchor="middle" x="548.55" y="-217.8" font-family="Times,serif" font-size="14.00">description</text>
</g>
<!-- source -->
<g id="node7" class="node">
<title>source</title>
<ellipse fill="none" stroke="blue" cx="561.05" cy="-178" rx="30.59" ry="18"/>
<text text-anchor="middle" x="561.05" y="-174.3" font-family="Times,serif" font-size="14.00">string</text>
</g>
<!-- material sample derivation association&#45;&gt;source -->
<g id="edge6" class="edge">
<title>material sample derivation association&#45;&gt;source</title>
<path fill="none" stroke="blue" d="M894.44,-258.48C777.51,-252.87 624.64,-243.01 599.05,-229 588.75,-223.37 580.4,-213.63 574.17,-204.25"/>
<polygon fill="blue" stroke="blue" points="577.04,-202.23 568.86,-195.49 571.06,-205.86 577.04,-202.23"/>
<text text-anchor="middle" x="617.05" y="-217.8" font-family="Times,serif" font-size="14.00">source</text>
</g>
<!-- has attribute -->
<g id="node8" class="node">
<title>has attribute</title>
<ellipse fill="none" stroke="blue" cx="650.05" cy="-178" rx="40.09" ry="18"/>
<text text-anchor="middle" x="650.05" y="-174.3" font-family="Times,serif" font-size="14.00">attribute</text>
</g>
<!-- material sample derivation association&#45;&gt;has attribute -->
<g id="edge7" class="edge">
<title>material sample derivation association&#45;&gt;has attribute</title>
<path fill="none" stroke="blue" d="M889.51,-260.33C785.83,-256.14 660.78,-247.32 644.05,-229 638.34,-222.76 637.8,-214.1 639.34,-205.74"/>
<polygon fill="blue" stroke="blue" points="642.78,-206.44 642.04,-195.87 636.03,-204.6 642.78,-206.44"/>
<text text-anchor="middle" x="677.55" y="-217.8" font-family="Times,serif" font-size="14.00">has attribute</text>
</g>
<!-- relation -->
<g id="node9" class="node">
<title>relation</title>
<ellipse fill="none" stroke="blue" cx="2158.05" cy="-18" rx="30.59" ry="18"/>
<text text-anchor="middle" x="2158.05" y="-14.3" font-family="Times,serif" font-size="14.00">string</text>
</g>
<!-- material sample derivation association&#45;&gt;relation -->
<g id="edge8" class="edge">
<title>material sample derivation association&#45;&gt;relation</title>
<path fill="none" stroke="blue" d="M899.87,-256.92C797.35,-246.66 681.32,-221.53 737.05,-160 832.32,-54.8 1894.2,-24.98 2117.14,-19.86"/>
<polygon fill="blue" stroke="blue" points="2117.49,-23.36 2127.41,-19.63 2117.33,-16.36 2117.49,-23.36"/>
<text text-anchor="middle" x="824.05" y="-130.8" font-family="Times,serif" font-size="14.00">relation</text>
</g>
<!-- negated -->
<g id="node10" class="node">
<title>negated</title>
<ellipse fill="none" stroke="blue" cx="784.05" cy="-178" rx="38.19" ry="18"/>
<text text-anchor="middle" x="784.05" y="-174.3" font-family="Times,serif" font-size="14.00">boolean</text>
</g>
<!-- material sample derivation association&#45;&gt;negated -->
<g id="edge9" class="edge">
<title>material sample derivation association&#45;&gt;negated</title>
<path fill="none" stroke="blue" d="M972.04,-248.47C951.59,-242.81 928.68,-236.05 908.05,-229 878.18,-218.8 845.07,-205.33 820.57,-194.94"/>
<polygon fill="blue" stroke="blue" points="821.88,-191.69 811.3,-190.98 819.13,-198.13 821.88,-191.69"/>
<text text-anchor="middle" x="929.55" y="-217.8" font-family="Times,serif" font-size="14.00">negated</text>
</g>
<!-- qualifiers -->
<g id="node11" class="node">
<title>qualifiers</title>
<ellipse fill="none" stroke="blue" cx="902.05" cy="-178" rx="61.99" ry="18"/>
<text text-anchor="middle" x="902.05" y="-174.3" font-family="Times,serif" font-size="14.00">ontology class</text>
</g>
<!-- material sample derivation association&#45;&gt;qualifiers -->
<g id="edge10" class="edge">
<title>material sample derivation association&#45;&gt;qualifiers</title>
<path fill="none" stroke="blue" d="M1005.4,-247.2C996.37,-241.47 986.24,-234.99 977.05,-229 962.85,-219.75 947.24,-209.38 933.96,-200.49"/>
<polygon fill="blue" stroke="blue" points="935.86,-197.55 925.61,-194.89 931.96,-203.37 935.86,-197.55"/>
<text text-anchor="middle" x="1002.55" y="-217.8" font-family="Times,serif" font-size="14.00">qualifiers</text>
</g>
<!-- publications -->
<g id="node12" class="node">
<title>publications</title>
<ellipse fill="none" stroke="blue" cx="1032.05" cy="-178" rx="50.09" ry="18"/>
<text text-anchor="middle" x="1032.05" y="-174.3" font-family="Times,serif" font-size="14.00">publication</text>
</g>
<!-- material sample derivation association&#45;&gt;publications -->
<g id="edge11" class="edge">
<title>material sample derivation association&#45;&gt;publications</title>
<path fill="none" stroke="blue" d="M1032.05,-246.8C1032.05,-235.16 1032.05,-219.55 1032.05,-206.24"/>
<polygon fill="blue" stroke="blue" points="1035.55,-206.18 1032.05,-196.18 1028.55,-206.18 1035.55,-206.18"/>
<text text-anchor="middle" x="1065.55" y="-217.8" font-family="Times,serif" font-size="14.00">publications</text>
</g>
<!-- has evidence -->
<g id="node13" class="node">
<title>has evidence</title>
<ellipse fill="none" stroke="blue" cx="1160.05" cy="-178" rx="59.59" ry="18"/>
<text text-anchor="middle" x="1160.05" y="-174.3" font-family="Times,serif" font-size="14.00">evidence type</text>
</g>
<!-- material sample derivation association&#45;&gt;has evidence -->
<g id="edge12" class="edge">
<title>material sample derivation association&#45;&gt;has evidence</title>
<path fill="none" stroke="blue" d="M1070.28,-247.42C1081.2,-242.1 1092.88,-235.8 1103.05,-229 1114.62,-221.27 1126.36,-211.39 1136.15,-202.46"/>
<polygon fill="blue" stroke="blue" points="1138.62,-204.95 1143.54,-195.57 1133.84,-199.83 1138.62,-204.95"/>
<text text-anchor="middle" x="1157.05" y="-217.8" font-family="Times,serif" font-size="14.00">has evidence</text>
</g>
<!-- knowledge source -->
<g id="node14" class="node">
<title>knowledge source</title>
<ellipse fill="none" stroke="blue" cx="1323.05" cy="-178" rx="85.29" ry="18"/>
<text text-anchor="middle" x="1323.05" y="-174.3" font-family="Times,serif" font-size="14.00">information resource</text>
</g>
<!-- material sample derivation association&#45;&gt;knowledge source -->
<g id="edge13" class="edge">
<title>material sample derivation association&#45;&gt;knowledge source</title>
<path fill="none" stroke="blue" d="M1111.54,-249.78C1138.6,-244.22 1168.87,-237.19 1196.05,-229 1224.19,-220.52 1254.87,-208.52 1279.03,-198.4"/>
<polygon fill="blue" stroke="blue" points="1280.44,-201.61 1288.28,-194.48 1277.71,-195.16 1280.44,-201.61"/>
<text text-anchor="middle" x="1288.55" y="-217.8" font-family="Times,serif" font-size="14.00">knowledge source</text>
</g>
<!-- original knowledge source -->
<g id="node15" class="node">
<title>original knowledge source</title>
<ellipse fill="none" stroke="blue" cx="1511.05" cy="-178" rx="85.29" ry="18"/>
<text text-anchor="middle" x="1511.05" y="-174.3" font-family="Times,serif" font-size="14.00">information resource</text>
</g>
<!-- material sample derivation association&#45;&gt;original knowledge source -->
<g id="edge14" class="edge">
<title>material sample derivation association&#45;&gt;original knowledge source</title>
<path fill="none" stroke="blue" d="M1138.13,-252.47C1223.86,-243.08 1331.93,-231.05 1342.05,-229 1381.86,-220.93 1425.83,-207.78 1458.94,-196.99"/>
<polygon fill="blue" stroke="blue" points="1460.45,-200.18 1468.85,-193.73 1458.26,-193.53 1460.45,-200.18"/>
<text text-anchor="middle" x="1471.55" y="-217.8" font-family="Times,serif" font-size="14.00">original knowledge source</text>
</g>
<!-- primary knowledge source -->
<g id="node16" class="node">
<title>primary knowledge source</title>
<ellipse fill="none" stroke="blue" cx="1699.05" cy="-178" rx="85.29" ry="18"/>
<text text-anchor="middle" x="1699.05" y="-174.3" font-family="Times,serif" font-size="14.00">information resource</text>
</g>
<!-- material sample derivation association&#45;&gt;primary knowledge source -->
<g id="edge15" class="edge">
<title>material sample derivation association&#45;&gt;primary knowledge source</title>
<path fill="none" stroke="blue" d="M1134.34,-251.99C1152.22,-250.13 1170.66,-248.38 1188.05,-247 1347.74,-234.32 1390.58,-258.45 1548.05,-229 1584.02,-222.27 1623.21,-209.11 1652.65,-197.98"/>
<polygon fill="blue" stroke="blue" points="1654.16,-201.15 1662.24,-194.3 1651.65,-194.62 1654.16,-201.15"/>
<text text-anchor="middle" x="1676.05" y="-217.8" font-family="Times,serif" font-size="14.00">primary knowledge source</text>
</g>
<!-- aggregator knowledge source -->
<g id="node17" class="node">
<title>aggregator knowledge source</title>
<ellipse fill="none" stroke="blue" cx="1887.05" cy="-178" rx="85.29" ry="18"/>
<text text-anchor="middle" x="1887.05" y="-174.3" font-family="Times,serif" font-size="14.00">information resource</text>
</g>
<!-- material sample derivation association&#45;&gt;aggregator knowledge source -->
<g id="edge16" class="edge">
<title>material sample derivation association&#45;&gt;aggregator knowledge source</title>
<path fill="none" stroke="blue" d="M1133.06,-251.85C1151.34,-249.98 1170.24,-248.25 1188.05,-247 1313.36,-238.19 1629.79,-253.28 1753.05,-229 1784.8,-222.74 1818.96,-209.9 1844.84,-198.79"/>
<polygon fill="blue" stroke="blue" points="1846.57,-201.85 1854.33,-194.64 1843.77,-195.44 1846.57,-201.85"/>
<text text-anchor="middle" x="1886.05" y="-217.8" font-family="Times,serif" font-size="14.00">aggregator knowledge source</text>
</g>
<!-- type -->
<g id="node18" class="node">
<title>type</title>
<ellipse fill="none" stroke="black" cx="2017.05" cy="-178" rx="27" ry="18"/>
<text text-anchor="middle" x="2017.05" y="-174.3" font-family="Times,serif" font-size="14.00">type</text>
</g>
<!-- material sample derivation association&#45;&gt;type -->
<g id="edge17" class="edge">
<title>material sample derivation association&#45;&gt;type</title>
<path fill="none" stroke="blue" d="M1132.64,-251.76C1151.04,-249.88 1170.1,-248.18 1188.05,-247 1231.41,-244.14 1930.36,-246.71 1970.05,-229 1982.46,-223.46 1993.14,-212.93 2001.17,-202.96"/>
<polygon fill="blue" stroke="blue" points="2004.06,-204.93 2007.27,-194.84 1998.46,-200.73 2004.06,-204.93"/>
<text text-anchor="middle" x="2004.05" y="-217.8" font-family="Times,serif" font-size="14.00">type</text>
</g>
<!-- category -->
<g id="node20" class="node">
<title>category</title>
<ellipse fill="none" stroke="black" cx="2103.05" cy="-178" rx="40.89" ry="18"/>
<text text-anchor="middle" x="2103.05" y="-174.3" font-family="Times,serif" font-size="14.00">category</text>
</g>
<!-- material sample derivation association&#45;&gt;category -->
<g id="edge18" class="edge">
<title>material sample derivation association&#45;&gt;category</title>
<path fill="none" stroke="blue" d="M1132.22,-251.78C1150.75,-249.89 1169.97,-248.18 1188.05,-247 1280.32,-240.99 1931.23,-254.72 2020.05,-229 2040.17,-223.17 2060.36,-211.18 2075.79,-200.4"/>
<polygon fill="blue" stroke="blue" points="2078.24,-202.95 2084.28,-194.25 2074.13,-197.28 2078.24,-202.95"/>
<text text-anchor="middle" x="2077.55" y="-217.8" font-family="Times,serif" font-size="14.00">category</text>
</g>
<!-- subject -->
<g id="node22" class="node">
<title>subject</title>
<ellipse fill="none" stroke="black" cx="2198.05" cy="-178" rx="36" ry="18"/>
<text text-anchor="middle" x="2198.05" y="-174.3" font-family="Times,serif" font-size="14.00">subject</text>
</g>
<!-- material sample derivation association&#45;&gt;subject -->
<g id="edge19" class="edge">
<title>material sample derivation association&#45;&gt;subject</title>
<path fill="none" stroke="blue" d="M1132.21,-251.75C1150.75,-249.86 1169.97,-248.16 1188.05,-247 1289.74,-240.47 2006.47,-254.85 2105.05,-229 2128.15,-222.94 2151.82,-210.1 2169.51,-198.95"/>
<polygon fill="blue" stroke="blue" points="2171.69,-201.7 2178.17,-193.31 2167.88,-195.83 2171.69,-201.7"/>
<text text-anchor="middle" x="2162.55" y="-217.8" font-family="Times,serif" font-size="14.00">subject</text>
</g>
<!-- object -->
<g id="node24" class="node">
<title>object</title>
<ellipse fill="none" stroke="black" cx="2218.05" cy="-91" rx="32.49" ry="18"/>
<text text-anchor="middle" x="2218.05" y="-87.3" font-family="Times,serif" font-size="14.00">object</text>
</g>
<!-- material sample derivation association&#45;&gt;object -->
<g id="edge20" class="edge">
<title>material sample derivation association&#45;&gt;object</title>
<path fill="none" stroke="blue" d="M1132.21,-251.73C1150.75,-249.84 1169.96,-248.15 1188.05,-247 1298.73,-239.99 2079.2,-258.73 2186.05,-229 2214.25,-221.15 2225.74,-219.61 2243.05,-196 2257.58,-176.17 2252.36,-166.44 2255.05,-142 2255.77,-135.37 2257.68,-133.12 2255.05,-127 2252.77,-121.72 2249.27,-116.87 2245.31,-112.56"/>
<polygon fill="blue" stroke="blue" points="2247.49,-109.81 2237.84,-105.43 2242.65,-114.87 2247.49,-109.81"/>
<text text-anchor="middle" x="2270.05" y="-174.3" font-family="Times,serif" font-size="14.00">object</text>
</g>
<!-- predicate -->
<g id="node26" class="node">
<title>predicate</title>
<ellipse fill="none" stroke="black" cx="2365.05" cy="-178" rx="42.79" ry="18"/>
<text text-anchor="middle" x="2365.05" y="-174.3" font-family="Times,serif" font-size="14.00">predicate</text>
</g>
<!-- material sample derivation association&#45;&gt;predicate -->
<g id="edge21" class="edge">
<title>material sample derivation association&#45;&gt;predicate</title>
<path fill="none" stroke="blue" d="M1132.21,-251.71C1150.75,-249.82 1169.96,-248.13 1188.05,-247 1248.82,-243.2 2225.6,-246.11 2284.05,-229 2303.67,-223.26 2323.24,-211.39 2338.23,-200.65"/>
<polygon fill="blue" stroke="blue" points="2340.55,-203.29 2346.49,-194.52 2336.38,-197.67 2340.55,-203.29"/>
<text text-anchor="middle" x="2342.05" y="-217.8" font-family="Times,serif" font-size="14.00">predicate</text>
</g>
<!-- association_type -->
<g id="node19" class="node">
<title>association_type</title>
<ellipse fill="none" stroke="blue" cx="1228.05" cy="-265" rx="30.59" ry="18"/>
<text text-anchor="middle" x="1228.05" y="-261.3" font-family="Times,serif" font-size="14.00">string</text>
</g>
<!-- association_category -->
<g id="node21" class="node">
<title>association_category</title>
<ellipse fill="none" stroke="blue" cx="1335.05" cy="-265" rx="58.49" ry="18"/>
<text text-anchor="middle" x="1335.05" y="-261.3" font-family="Times,serif" font-size="14.00">category type</text>
</g>
<!-- subject&#45;&gt;relation -->
<g id="edge23" class="edge">
<title>subject&#45;&gt;relation</title>
<path fill="none" stroke="black" stroke-dasharray="1,5" d="M2192.35,-160.08C2187.85,-146.39 2181.61,-126.58 2177.05,-109 2171.61,-88.04 2166.6,-64.03 2163.09,-46.08"/>
<polygon fill="black" stroke="black" points="2166.48,-45.19 2161.16,-36.03 2159.61,-46.51 2166.48,-45.19"/>
</g>
<!-- subject&#45;&gt;object -->
<g id="edge22" class="edge">
<title>subject&#45;&gt;object</title>
<path fill="none" stroke="black" d="M2202.09,-159.8C2204.85,-148.09 2208.55,-132.34 2211.7,-118.97"/>
<polygon fill="black" stroke="black" points="2215.19,-119.42 2214.07,-108.89 2208.38,-117.82 2215.19,-119.42"/>
<text text-anchor="middle" x="2230.05" y="-130.8" font-family="Times,serif" font-size="14.00">relation</text>
</g>
<!-- material sample derivation association_subject -->
<g id="node23" class="node">
<title>material sample derivation association_subject</title>
<ellipse fill="none" stroke="blue" cx="1479.05" cy="-265" rx="67.69" ry="18"/>
<text text-anchor="middle" x="1479.05" y="-261.3" font-family="Times,serif" font-size="14.00">material sample</text>
</g>
<!-- object&#45;&gt;relation -->
<g id="edge24" class="edge">
<title>object&#45;&gt;relation</title>
<path fill="none" stroke="black" stroke-dasharray="1,5" d="M2204.73,-74.24C2196.88,-64.96 2186.81,-53.03 2178.02,-42.64"/>
<polygon fill="black" stroke="black" points="2180.45,-40.09 2171.32,-34.71 2175.11,-44.61 2180.45,-40.09"/>
</g>
<!-- material sample derivation association_object -->
<g id="node25" class="node">
<title>material sample derivation association_object</title>
<ellipse fill="none" stroke="blue" cx="1620.05" cy="-265" rx="55.49" ry="18"/>
<text text-anchor="middle" x="1620.05" y="-261.3" font-family="Times,serif" font-size="14.00">named thing</text>
</g>
<!-- material sample derivation association_predicate -->
<g id="node27" class="node">
<title>material sample derivation association_predicate</title>
<ellipse fill="none" stroke="blue" cx="1754.05" cy="-265" rx="60.39" ry="18"/>
<text text-anchor="middle" x="1754.05" y="-261.3" font-family="Times,serif" font-size="14.00">predicate type</text>
</g>
</g>
</svg>
