<?xml version="1.0" encoding="UTF-8" standalone="no"?>
<!DOCTYPE svg PUBLIC "-//W3C//DTD SVG 1.1//EN"
 "http://www.w3.org/Graphics/SVG/1.1/DTD/svg11.dtd">
<!-- Generated by graphviz version 2.43.0 (0)
 -->
<!-- Title: %3 Pages: 1 -->
<svg width="1622pt" height="131pt"
 viewBox="0.00 0.00 1621.64 131.00" xmlns="http://www.w3.org/2000/svg" xmlns:xlink="http://www.w3.org/1999/xlink">
<g id="graph0" class="graph" transform="scale(1 1) rotate(0) translate(4 127)">
<title>%3</title>
<polygon fill="white" stroke="transparent" points="-4,4 -4,-127 1617.64,-127 1617.64,4 -4,4"/>
<!-- material sample -->
<g id="node1" class="node">
<title>material sample</title>
<ellipse fill="none" stroke="black" cx="862.29" cy="-105" rx="85.59" ry="18"/>
<text text-anchor="middle" x="862.29" y="-101.3" font-family="Times,serif" font-size="14.00">material sample</text>
</g>
<!-- physical entity -->
<g id="node2" class="node">
<title>physical entity</title>
<ellipse fill="none" stroke="black" cx="79.29" cy="-18" rx="79.09" ry="18"/>
<text text-anchor="middle" x="79.29" y="-14.3" font-family="Times,serif" font-size="14.00">physical entity</text>
</g>
<!-- material sample&#45;&gt;physical entity -->
<g id="edge1" class="edge">
<title>material sample&#45;&gt;physical entity</title>
<path fill="none" stroke="black" d="M781.12,-99.14C651,-90.65 387.97,-70.66 167.29,-36 160.58,-34.95 153.6,-33.76 146.63,-32.51"/>
<polygon fill="black" stroke="black" points="146.94,-29.01 136.47,-30.65 145.67,-35.89 146.94,-29.01"/>
<text text-anchor="middle" x="429.29" y="-57.8" font-family="Times,serif" font-size="14.00">is_a</text>
</g>
<!-- subject of investigation -->
<g id="node3" class="node">
<title>subject of investigation</title>
<ellipse fill="none" stroke="black" cx="296.29" cy="-18" rx="119.68" ry="18"/>
<text text-anchor="middle" x="296.29" y="-14.3" font-family="Times,serif" font-size="14.00">subject of investigation</text>
</g>
<!-- material sample&#45;&gt;subject of investigation -->
<g id="edge2" class="edge">
<title>material sample&#45;&gt;subject of investigation</title>
<path fill="none" stroke="black" d="M785.62,-96.81C723.81,-90.63 634.74,-80.85 557.29,-69 494.63,-59.42 424.05,-45.72 372.1,-35.08"/>
<polygon fill="black" stroke="black" points="372.8,-31.65 362.3,-33.06 371.39,-38.51 372.8,-31.65"/>
<text text-anchor="middle" x="573.79" y="-57.8" font-family="Times,serif" font-size="14.00">uses</text>
</g>
<!-- id -->
<g id="node4" class="node">
<title>id</title>
<ellipse fill="none" stroke="blue" cx="472.29" cy="-18" rx="38.19" ry="18"/>
<text text-anchor="middle" x="472.29" y="-14.3" font-family="Times,serif" font-size="14.00">string</text>
</g>
<!-- material sample&#45;&gt;id -->
<g id="edge3" class="edge">
<title>material sample&#45;&gt;id</title>
<path fill="none" stroke="blue" d="M794.35,-93.87C724.77,-82.72 613.86,-62.75 520.29,-36 517.19,-35.11 514,-34.13 510.8,-33.11"/>
<polygon fill="blue" stroke="blue" points="511.89,-29.78 501.3,-29.92 509.67,-36.42 511.89,-29.78"/>
<text text-anchor="middle" x="658.29" y="-57.8" font-family="Times,serif" font-size="14.00">id</text>
</g>
<!-- iri -->
<g id="node5" class="node">
<title>iri</title>
<ellipse fill="none" stroke="blue" cx="573.29" cy="-18" rx="44.39" ry="18"/>
<text text-anchor="middle" x="573.29" y="-14.3" font-family="Times,serif" font-size="14.00">iri type</text>
</g>
<!-- material sample&#45;&gt;iri -->
<g id="edge4" class="edge">
<title>material sample&#45;&gt;iri</title>
<path fill="none" stroke="blue" d="M812.36,-90.24C789.45,-83.88 761.97,-76.15 737.29,-69 688.27,-54.78 676.08,-51 627.29,-36 623.8,-34.93 620.18,-33.81 616.55,-32.67"/>
<polygon fill="blue" stroke="blue" points="617.56,-29.32 606.97,-29.68 615.47,-36.01 617.56,-29.32"/>
<text text-anchor="middle" x="745.29" y="-57.8" font-family="Times,serif" font-size="14.00">iri</text>
</g>
<!-- type -->
<g id="node6" class="node">
<title>type</title>
<ellipse fill="none" stroke="blue" cx="674.29" cy="-18" rx="38.19" ry="18"/>
<text text-anchor="middle" x="674.29" y="-14.3" font-family="Times,serif" font-size="14.00">string</text>
</g>
<!-- material sample&#45;&gt;type -->
<g id="edge5" class="edge">
<title>material sample&#45;&gt;type</title>
<path fill="none" stroke="blue" d="M827.81,-88.41C794.53,-73.36 744.33,-50.66 710.48,-35.36"/>
<polygon fill="blue" stroke="blue" points="711.52,-31.99 700.96,-31.06 708.63,-38.37 711.52,-31.99"/>
<text text-anchor="middle" x="796.29" y="-57.8" font-family="Times,serif" font-size="14.00">type</text>
</g>
<!-- name -->
<g id="node7" class="node">
<title>name</title>
<ellipse fill="none" stroke="blue" cx="787.29" cy="-18" rx="56.59" ry="18"/>
<text text-anchor="middle" x="787.29" y="-14.3" font-family="Times,serif" font-size="14.00">label type</text>
</g>
<!-- material sample&#45;&gt;name -->
<g id="edge6" class="edge">
<title>material sample&#45;&gt;name</title>
<path fill="none" stroke="blue" d="M847.48,-87.21C836.41,-74.67 821.13,-57.35 808.74,-43.3"/>
<polygon fill="blue" stroke="blue" points="811.07,-40.65 801.82,-35.47 805.82,-45.28 811.07,-40.65"/>
<text text-anchor="middle" x="849.29" y="-57.8" font-family="Times,serif" font-size="14.00">name</text>
</g>
<!-- description -->
<g id="node8" class="node">
<title>description</title>
<ellipse fill="none" stroke="blue" cx="937.29" cy="-18" rx="75.29" ry="18"/>
<text text-anchor="middle" x="937.29" y="-14.3" font-family="Times,serif" font-size="14.00">narrative text</text>
</g>
<!-- material sample&#45;&gt;description -->
<g id="edge7" class="edge">
<title>material sample&#45;&gt;description</title>
<path fill="none" stroke="blue" d="M877.11,-87.21C888.1,-74.75 903.26,-57.57 915.61,-43.57"/>
<polygon fill="blue" stroke="blue" points="918.51,-45.57 922.51,-35.76 913.27,-40.94 918.51,-45.57"/>
<text text-anchor="middle" x="944.79" y="-57.8" font-family="Times,serif" font-size="14.00">description</text>
</g>
<!-- has attribute -->
<g id="node9" class="node">
<title>has attribute</title>
<ellipse fill="none" stroke="blue" cx="1082.29" cy="-18" rx="51.99" ry="18"/>
<text text-anchor="middle" x="1082.29" y="-14.3" font-family="Times,serif" font-size="14.00">attribute</text>
</g>
<!-- material sample&#45;&gt;has attribute -->
<g id="edge8" class="edge">
<title>material sample&#45;&gt;has attribute</title>
<path fill="none" stroke="blue" d="M918.51,-91.4C940.91,-85.64 966.68,-78.06 989.29,-69 1009.68,-60.83 1031.36,-49.36 1048.65,-39.46"/>
<polygon fill="blue" stroke="blue" points="1050.88,-42.21 1057.77,-34.15 1047.36,-36.16 1050.88,-42.21"/>
<text text-anchor="middle" x="1068.29" y="-57.8" font-family="Times,serif" font-size="14.00">has attribute</text>
</g>
<!-- provided by -->
<g id="node10" class="node">
<title>provided by</title>
<ellipse fill="none" stroke="blue" cx="1190.29" cy="-18" rx="38.19" ry="18"/>
<text text-anchor="middle" x="1190.29" y="-14.3" font-family="Times,serif" font-size="14.00">string</text>
</g>
<!-- material sample&#45;&gt;provided by -->
<g id="edge9" class="edge">
<title>material sample&#45;&gt;provided by</title>
<path fill="none" stroke="blue" d="M923.78,-92.38C934.91,-90.45 946.43,-88.57 957.29,-87 1028.99,-76.61 1051.55,-94.66 1119.29,-69 1136.18,-62.6 1152.8,-51.25 1165.72,-40.97"/>
<polygon fill="blue" stroke="blue" points="1168.15,-43.51 1173.63,-34.44 1163.69,-38.11 1168.15,-43.51"/>
<text text-anchor="middle" x="1189.79" y="-57.8" font-family="Times,serif" font-size="14.00">provided by</text>
</g>
<!-- xref -->
<g id="node11" class="node">
<title>xref</title>
<ellipse fill="none" stroke="blue" cx="1304.29" cy="-18" rx="57.39" ry="18"/>
<text text-anchor="middle" x="1304.29" y="-14.3" font-family="Times,serif" font-size="14.00">uriorcurie</text>
</g>
<!-- material sample&#45;&gt;xref -->
<g id="edge10" class="edge">
<title>material sample&#45;&gt;xref</title>
<path fill="none" stroke="blue" d="M922.7,-92.14C934.15,-90.19 946.07,-88.36 957.29,-87 1018.97,-79.52 1177.91,-90.26 1236.29,-69 1252.29,-63.17 1267.77,-52.34 1279.91,-42.24"/>
<polygon fill="blue" stroke="blue" points="1282.49,-44.63 1287.75,-35.43 1277.91,-39.35 1282.49,-44.63"/>
<text text-anchor="middle" x="1277.79" y="-57.8" font-family="Times,serif" font-size="14.00">xref</text>
</g>
<!-- full name -->
<g id="node12" class="node">
<title>full name</title>
<ellipse fill="none" stroke="blue" cx="1436.29" cy="-18" rx="56.59" ry="18"/>
<text text-anchor="middle" x="1436.29" y="-14.3" font-family="Times,serif" font-size="14.00">label type</text>
</g>
<!-- material sample&#45;&gt;full name -->
<g id="edge11" class="edge">
<title>material sample&#45;&gt;full name</title>
<path fill="none" stroke="blue" d="M922.43,-92.08C933.97,-90.12 945.97,-88.31 957.29,-87 1107.17,-69.68 1148.36,-98.68 1296.29,-69 1330.81,-62.07 1368.3,-48.33 1395.78,-37"/>
<polygon fill="blue" stroke="blue" points="1397.2,-40.21 1405.07,-33.11 1394.49,-33.75 1397.2,-40.21"/>
<text text-anchor="middle" x="1381.79" y="-57.8" font-family="Times,serif" font-size="14.00">full name</text>
</g>
<!-- category -->
<g id="node13" class="node">
<title>category</title>
<ellipse fill="none" stroke="black" cx="1562.29" cy="-18" rx="51.19" ry="18"/>
<text text-anchor="middle" x="1562.29" y="-14.3" font-family="Times,serif" font-size="14.00">category</text>
</g>
<!-- material sample&#45;&gt;category -->
<g id="edge12" class="edge">
<title>material sample&#45;&gt;category</title>
<path fill="none" stroke="blue" d="M921.91,-92.03C933.6,-90.06 945.8,-88.25 957.29,-87 1161.58,-64.85 1217.41,-107.33 1419.29,-69 1455.12,-62.2 1494.09,-48.1 1522.28,-36.6"/>
<polygon fill="blue" stroke="blue" points="1523.89,-39.72 1531.78,-32.66 1521.2,-33.26 1523.89,-39.72"/>
<text text-anchor="middle" x="1502.79" y="-57.8" font-family="Times,serif" font-size="14.00">category</text>
</g>
<!-- named thing_category -->
<g id="node14" class="node">
<title>named thing_category</title>
<ellipse fill="none" stroke="blue" cx="1041.29" cy="-105" rx="74.99" ry="18"/>
<text text-anchor="middle" x="1041.29" y="-101.3" font-family="Times,serif" font-size="14.00">category type</text>
</g>
</g>
</svg>
