<?xml version="1.0" encoding="UTF-8" standalone="no"?>
<!DOCTYPE svg PUBLIC "-//W3C//DTD SVG 1.1//EN"
 "http://www.w3.org/Graphics/SVG/1.1/DTD/svg11.dtd">
<!-- Generated by graphviz version 2.40.1 (20161225.0304)
 -->
<!-- Title: %3 Pages: 1 -->
<svg width="3074pt" height="291pt"
 viewBox="0.00 0.00 3074.04 291.00" xmlns="http://www.w3.org/2000/svg" xmlns:xlink="http://www.w3.org/1999/xlink">
<g id="graph0" class="graph" transform="scale(1 1) rotate(0) translate(4 287)">
<title>%3</title>
<polygon fill="#ffffff" stroke="transparent" points="-4,4 -4,-287 3070.0398,-287 3070.0398,4 -4,4"/>
<!-- material sample to disease or phenotypic feature association -->
<g id="node1" class="node">
<title>material sample to disease or phenotypic feature association</title>
<ellipse fill="none" stroke="#000000" cx="1933.0444" cy="-265" rx="294.3478" ry="18"/>
<text text-anchor="middle" x="1933.0444" y="-261.3" font-family="Times,serif" font-size="14.00" fill="#000000">material sample to disease or phenotypic feature association</text>
</g>
<!-- association -->
<g id="node2" class="node">
<title>association</title>
<ellipse fill="none" stroke="#000000" cx="63.0444" cy="-178" rx="63.0888" ry="18"/>
<text text-anchor="middle" x="63.0444" y="-174.3" font-family="Times,serif" font-size="14.00" fill="#000000">association</text>
</g>
<!-- material sample to disease or phenotypic feature association&#45;&gt;association -->
<g id="edge1" class="edge">
<title>material sample to disease or phenotypic feature association&#45;&gt;association</title>
<path fill="none" stroke="#000000" d="M1663.9666,-257.6905C1435.8206,-251.1828 1099.9384,-240.8729 807.0444,-229 508.2632,-216.8885 430.8449,-239.8056 135.0444,-196 129.5478,-195.186 123.8599,-194.1355 118.2011,-192.9511"/>
<polygon fill="#000000" stroke="#000000" points="118.6165,-189.4579 108.0944,-190.6971 117.0927,-196.29 118.6165,-189.4579"/>
<text text-anchor="middle" x="821.0444" y="-217.8" font-family="Times,serif" font-size="14.00" fill="#000000">is_a</text>
</g>
<!-- material sample to entity association mixin -->
<g id="node3" class="node">
<title>material sample to entity association mixin</title>
<ellipse fill="none" stroke="#000000" cx="356.0444" cy="-178" rx="211.7625" ry="18"/>
<text text-anchor="middle" x="356.0444" y="-174.3" font-family="Times,serif" font-size="14.00" fill="#000000">material sample to entity association mixin</text>
</g>
<!-- material sample to disease or phenotypic feature association&#45;&gt;material sample to entity association mixin -->
<g id="edge2" class="edge">
<title>material sample to disease or phenotypic feature association&#45;&gt;material sample to entity association mixin</title>
<path fill="none" stroke="#000000" d="M1683.1398,-255.4612C1517.8921,-248.8397 1296.4941,-239.3702 1101.0444,-229 867.579,-216.6128 809.229,-212.8665 576.0444,-196 556.8344,-194.6105 536.6877,-193.0728 516.7125,-191.4987"/>
<polygon fill="#000000" stroke="#000000" points="516.8533,-187.999 506.6081,-190.6983 516.3005,-194.9771 516.8533,-187.999"/>
<text text-anchor="middle" x="1117.5444" y="-217.8" font-family="Times,serif" font-size="14.00" fill="#000000">uses</text>
</g>
<!-- entity to disease or phenotypic feature association mixin -->
<g id="node4" class="node">
<title>entity to disease or phenotypic feature association mixin</title>
<ellipse fill="none" stroke="#000000" cx="861.0444" cy="-178" rx="275.6511" ry="18"/>
<text text-anchor="middle" x="861.0444" y="-174.3" font-family="Times,serif" font-size="14.00" fill="#000000">entity to disease or phenotypic feature association mixin</text>
</g>
<!-- material sample to disease or phenotypic feature association&#45;&gt;entity to disease or phenotypic feature association mixin -->
<g id="edge3" class="edge">
<title>material sample to disease or phenotypic feature association&#45;&gt;entity to disease or phenotypic feature association mixin</title>
<path fill="none" stroke="#000000" d="M1683.5863,-255.3932C1560.2091,-249.6187 1409.1454,-241.0176 1274.0444,-229 1177.43,-220.4059 1068.561,-206.7989 986.8641,-195.8007"/>
<polygon fill="#000000" stroke="#000000" points="986.9126,-192.2755 976.5339,-194.4045 985.9749,-199.2124 986.9126,-192.2755"/>
<text text-anchor="middle" x="1290.5444" y="-217.8" font-family="Times,serif" font-size="14.00" fill="#000000">uses</text>
</g>
<!-- id -->
<g id="node5" class="node">
<title>id</title>
<ellipse fill="none" stroke="#0000ff" cx="1193.0444" cy="-178" rx="38.1938" ry="18"/>
<text text-anchor="middle" x="1193.0444" y="-174.3" font-family="Times,serif" font-size="14.00" fill="#000000">string</text>
</g>
<!-- material sample to disease or phenotypic feature association&#45;&gt;id -->
<g id="edge4" class="edge">
<title>material sample to disease or phenotypic feature association&#45;&gt;id</title>
<path fill="none" stroke="#0000ff" d="M1686.9589,-255.1147C1597.3211,-249.7164 1495.3527,-241.4803 1403.0444,-229 1330.2283,-219.1551 1311.6642,-216.2965 1241.0444,-196 1238.0613,-195.1426 1235.0001,-194.1848 1231.9376,-193.1698"/>
<polygon fill="#0000ff" stroke="#0000ff" points="1232.8396,-189.7776 1222.2448,-189.7862 1230.5325,-196.3865 1232.8396,-189.7776"/>
<text text-anchor="middle" x="1410.0444" y="-217.8" font-family="Times,serif" font-size="14.00" fill="#000000">id</text>
</g>
<!-- iri -->
<g id="node6" class="node">
<title>iri</title>
<ellipse fill="none" stroke="#0000ff" cx="1294.0444" cy="-178" rx="44.393" ry="18"/>
<text text-anchor="middle" x="1294.0444" y="-174.3" font-family="Times,serif" font-size="14.00" fill="#000000">iri type</text>
</g>
<!-- material sample to disease or phenotypic feature association&#45;&gt;iri -->
<g id="edge5" class="edge">
<title>material sample to disease or phenotypic feature association&#45;&gt;iri</title>
<path fill="none" stroke="#0000ff" d="M1727.7581,-252.0819C1658.9968,-246.5228 1582.0371,-238.9598 1512.0444,-229 1438.0046,-218.4643 1419.2702,-215.3992 1347.0444,-196 1343.7054,-195.1032 1340.2708,-194.108 1336.8317,-193.059"/>
<polygon fill="#0000ff" stroke="#0000ff" points="1337.7936,-189.6923 1327.2032,-189.9978 1335.6727,-196.3632 1337.7936,-189.6923"/>
<text text-anchor="middle" x="1520.0444" y="-217.8" font-family="Times,serif" font-size="14.00" fill="#000000">iri</text>
</g>
<!-- name -->
<g id="node7" class="node">
<title>name</title>
<ellipse fill="none" stroke="#0000ff" cx="1413.0444" cy="-178" rx="56.59" ry="18"/>
<text text-anchor="middle" x="1413.0444" y="-174.3" font-family="Times,serif" font-size="14.00" fill="#000000">label type</text>
</g>
<!-- material sample to disease or phenotypic feature association&#45;&gt;name -->
<g id="edge6" class="edge">
<title>material sample to disease or phenotypic feature association&#45;&gt;name</title>
<path fill="none" stroke="#0000ff" d="M1744.9067,-251.1362C1694.6582,-245.818 1640.5668,-238.6248 1591.0444,-229 1546.4805,-220.3389 1496.9153,-205.7134 1461.4284,-194.3397"/>
<polygon fill="#0000ff" stroke="#0000ff" points="1462.4003,-190.9755 1451.8084,-191.2256 1460.2444,-197.6353 1462.4003,-190.9755"/>
<text text-anchor="middle" x="1611.0444" y="-217.8" font-family="Times,serif" font-size="14.00" fill="#000000">name</text>
</g>
<!-- description -->
<g id="node8" class="node">
<title>description</title>
<ellipse fill="none" stroke="#0000ff" cx="1563.0444" cy="-178" rx="75.2868" ry="18"/>
<text text-anchor="middle" x="1563.0444" y="-174.3" font-family="Times,serif" font-size="14.00" fill="#000000">narrative text</text>
</g>
<!-- material sample to disease or phenotypic feature association&#45;&gt;description -->
<g id="edge7" class="edge">
<title>material sample to disease or phenotypic feature association&#45;&gt;description</title>
<path fill="none" stroke="#0000ff" d="M1768.8914,-250.0286C1736.4177,-244.9267 1702.8603,-238.1069 1672.0444,-229 1647.7195,-221.8113 1621.9516,-209.9708 1601.5802,-199.5074"/>
<polygon fill="#0000ff" stroke="#0000ff" points="1603.1074,-196.3563 1592.6247,-194.8184 1599.8604,-202.5577 1603.1074,-196.3563"/>
<text text-anchor="middle" x="1713.0444" y="-217.8" font-family="Times,serif" font-size="14.00" fill="#000000">description</text>
</g>
<!-- source -->
<g id="node9" class="node">
<title>source</title>
<ellipse fill="none" stroke="#0000ff" cx="1713.0444" cy="-178" rx="56.59" ry="18"/>
<text text-anchor="middle" x="1713.0444" y="-174.3" font-family="Times,serif" font-size="14.00" fill="#000000">label type</text>
</g>
<!-- material sample to disease or phenotypic feature association&#45;&gt;source -->
<g id="edge8" class="edge">
<title>material sample to disease or phenotypic feature association&#45;&gt;source</title>
<path fill="none" stroke="#0000ff" d="M1836.0314,-247.9876C1817.6478,-243.0705 1798.906,-236.841 1782.0444,-229 1767.0092,-222.0083 1752.0037,-211.4546 1739.8446,-201.7583"/>
<polygon fill="#0000ff" stroke="#0000ff" points="1741.8626,-198.8863 1731.9162,-195.2368 1737.4158,-204.2924 1741.8626,-198.8863"/>
<text text-anchor="middle" x="1806.5444" y="-217.8" font-family="Times,serif" font-size="14.00" fill="#000000">source</text>
</g>
<!-- provided by -->
<g id="node10" class="node">
<title>provided by</title>
<ellipse fill="none" stroke="#0000ff" cx="1825.0444" cy="-178" rx="37.0935" ry="18"/>
<text text-anchor="middle" x="1825.0444" y="-174.3" font-family="Times,serif" font-size="14.00" fill="#000000">agent</text>
</g>
<!-- material sample to disease or phenotypic feature association&#45;&gt;provided by -->
<g id="edge9" class="edge">
<title>material sample to disease or phenotypic feature association&#45;&gt;provided by</title>
<path fill="none" stroke="#0000ff" d="M1870.0453,-247.3027C1860.4735,-242.5301 1851.3657,-236.5273 1844.0444,-229 1837.8621,-222.6437 1833.6592,-214.0942 1830.8152,-205.8137"/>
<polygon fill="#0000ff" stroke="#0000ff" points="1834.1207,-204.6448 1827.9785,-196.0121 1827.3966,-206.5909 1834.1207,-204.6448"/>
<text text-anchor="middle" x="1886.5444" y="-217.8" font-family="Times,serif" font-size="14.00" fill="#000000">provided by</text>
</g>
<!-- has attribute -->
<g id="node11" class="node">
<title>has attribute</title>
<ellipse fill="none" stroke="#0000ff" cx="1932.0444" cy="-178" rx="51.9908" ry="18"/>
<text text-anchor="middle" x="1932.0444" y="-174.3" font-family="Times,serif" font-size="14.00" fill="#000000">attribute</text>
</g>
<!-- material sample to disease or phenotypic feature association&#45;&gt;has attribute -->
<g id="edge10" class="edge">
<title>material sample to disease or phenotypic feature association&#45;&gt;has attribute</title>
<path fill="none" stroke="#0000ff" d="M1932.8372,-246.9735C1932.7018,-235.1918 1932.5221,-219.5607 1932.3681,-206.1581"/>
<polygon fill="#0000ff" stroke="#0000ff" points="1935.8661,-205.9624 1932.2513,-196.0034 1928.8666,-206.043 1935.8661,-205.9624"/>
<text text-anchor="middle" x="1980.0444" y="-217.8" font-family="Times,serif" font-size="14.00" fill="#000000">has attribute</text>
</g>
<!-- subject -->
<g id="node12" class="node">
<title>subject</title>
<ellipse fill="none" stroke="#0000ff" cx="2072.0444" cy="-178" rx="69.5877" ry="18"/>
<text text-anchor="middle" x="2072.0444" y="-174.3" font-family="Times,serif" font-size="14.00" fill="#000000">named thing</text>
</g>
<!-- material sample to disease or phenotypic feature association&#45;&gt;subject -->
<g id="edge11" class="edge">
<title>material sample to disease or phenotypic feature association&#45;&gt;subject</title>
<path fill="none" stroke="#0000ff" d="M1996.7494,-247.3247C2008.7423,-242.4471 2020.7391,-236.4016 2031.0444,-229 2040.2745,-222.3706 2048.5514,-213.1352 2055.2107,-204.3426"/>
<polygon fill="#0000ff" stroke="#0000ff" points="2058.1023,-206.3161 2061.078,-196.1477 2052.4107,-202.241 2058.1023,-206.3161"/>
<text text-anchor="middle" x="2073.5444" y="-217.8" font-family="Times,serif" font-size="14.00" fill="#000000">subject</text>
</g>
<!-- predicate -->
<g id="node13" class="node">
<title>predicate</title>
<ellipse fill="none" stroke="#0000ff" cx="2238.0444" cy="-178" rx="78.7863" ry="18"/>
<text text-anchor="middle" x="2238.0444" y="-174.3" font-family="Times,serif" font-size="14.00" fill="#000000">predicate type</text>
</g>
<!-- material sample to disease or phenotypic feature association&#45;&gt;predicate -->
<g id="edge12" class="edge">
<title>material sample to disease or phenotypic feature association&#45;&gt;predicate</title>
<path fill="none" stroke="#0000ff" d="M2027.3337,-247.9011C2052.4569,-242.5987 2079.4469,-236.222 2104.0444,-229 2133.5879,-220.3258 2165.8666,-208.127 2191.3397,-197.8349"/>
<polygon fill="#0000ff" stroke="#0000ff" points="2192.813,-201.014 2200.7493,-193.9951 2190.1681,-194.5328 2192.813,-201.014"/>
<text text-anchor="middle" x="2183.5444" y="-217.8" font-family="Times,serif" font-size="14.00" fill="#000000">predicate</text>
</g>
<!-- object -->
<g id="node14" class="node">
<title>object</title>
<ellipse fill="none" stroke="#0000ff" cx="2289.0444" cy="-91" rx="69.5877" ry="18"/>
<text text-anchor="middle" x="2289.0444" y="-87.3" font-family="Times,serif" font-size="14.00" fill="#000000">named thing</text>
</g>
<!-- material sample to disease or phenotypic feature association&#45;&gt;object -->
<g id="edge13" class="edge">
<title>material sample to disease or phenotypic feature association&#45;&gt;object</title>
<path fill="none" stroke="#0000ff" d="M2096.3335,-249.959C2137.6071,-244.7086 2181.6674,-237.8425 2222.0444,-229 2269.4151,-218.6259 2297.4055,-235.1334 2326.0444,-196 2343.4533,-172.2117 2326.9864,-139.4997 2310.8287,-116.9401"/>
<polygon fill="#0000ff" stroke="#0000ff" points="2313.5338,-114.714 2304.7225,-108.8308 2307.9418,-118.9247 2313.5338,-114.714"/>
<text text-anchor="middle" x="2356.5444" y="-174.3" font-family="Times,serif" font-size="14.00" fill="#000000">object</text>
</g>
<!-- relation -->
<g id="node15" class="node">
<title>relation</title>
<ellipse fill="none" stroke="#0000ff" cx="2289.0444" cy="-18" rx="57.6901" ry="18"/>
<text text-anchor="middle" x="2289.0444" y="-14.3" font-family="Times,serif" font-size="14.00" fill="#000000">uriorcurie</text>
</g>
<!-- material sample to disease or phenotypic feature association&#45;&gt;relation -->
<g id="edge14" class="edge">
<title>material sample to disease or phenotypic feature association&#45;&gt;relation</title>
<path fill="none" stroke="#0000ff" d="M2129.4565,-251.5721C2178.6084,-246.2943 2231.0066,-239.0114 2279.0444,-229 2326.5177,-219.1062 2354.4055,-235.1334 2383.0444,-196 2399.4039,-173.6457 2385.4447,-100.3463 2368.0444,-73 2358.9061,-58.6383 2344.533,-46.9979 2330.5375,-38.1871"/>
<polygon fill="#0000ff" stroke="#0000ff" points="2332.307,-35.1673 2321.9223,-33.0677 2328.7311,-41.185 2332.307,-35.1673"/>
<text text-anchor="middle" x="2417.0444" y="-130.8" font-family="Times,serif" font-size="14.00" fill="#000000">relation</text>
</g>
<!-- negated -->
<g id="node16" class="node">
<title>negated</title>
<ellipse fill="none" stroke="#0000ff" cx="2501.0444" cy="-178" rx="46.5926" ry="18"/>
<text text-anchor="middle" x="2501.0444" y="-174.3" font-family="Times,serif" font-size="14.00" fill="#000000">boolean</text>
</g>
<!-- material sample to disease or phenotypic feature association&#45;&gt;negated -->
<g id="edge15" class="edge">
<title>material sample to disease or phenotypic feature association&#45;&gt;negated</title>
<path fill="none" stroke="#0000ff" d="M2136.4717,-251.9697C2274.2882,-242.9151 2432.7054,-231.9621 2440.0444,-229 2454.5682,-223.138 2468.2002,-212.4541 2478.8781,-202.374"/>
<polygon fill="#0000ff" stroke="#0000ff" points="2481.4604,-204.7426 2486.1016,-195.2184 2476.534,-199.7695 2481.4604,-204.7426"/>
<text text-anchor="middle" x="2494.0444" y="-217.8" font-family="Times,serif" font-size="14.00" fill="#000000">negated</text>
</g>
<!-- qualifiers -->
<g id="node17" class="node">
<title>qualifiers</title>
<ellipse fill="none" stroke="#0000ff" cx="2643.0444" cy="-178" rx="77.1866" ry="18"/>
<text text-anchor="middle" x="2643.0444" y="-174.3" font-family="Times,serif" font-size="14.00" fill="#000000">ontology class</text>
</g>
<!-- material sample to disease or phenotypic feature association&#45;&gt;qualifiers -->
<g id="edge16" class="edge">
<title>material sample to disease or phenotypic feature association&#45;&gt;qualifiers</title>
<path fill="none" stroke="#0000ff" d="M2144.2238,-252.4137C2313.9765,-242.2639 2524.6497,-229.5794 2527.0444,-229 2553.7992,-222.527 2582.112,-210.198 2604.0683,-199.2837"/>
<polygon fill="#0000ff" stroke="#0000ff" points="2605.7347,-202.363 2613.0658,-194.714 2602.5649,-196.1218 2605.7347,-202.363"/>
<text text-anchor="middle" x="2604.0444" y="-217.8" font-family="Times,serif" font-size="14.00" fill="#000000">qualifiers</text>
</g>
<!-- publications -->
<g id="node18" class="node">
<title>publications</title>
<ellipse fill="none" stroke="#0000ff" cx="2801.0444" cy="-178" rx="63.0888" ry="18"/>
<text text-anchor="middle" x="2801.0444" y="-174.3" font-family="Times,serif" font-size="14.00" fill="#000000">publication</text>
</g>
<!-- material sample to disease or phenotypic feature association&#45;&gt;publications -->
<g id="edge17" class="edge">
<title>material sample to disease or phenotypic feature association&#45;&gt;publications</title>
<path fill="none" stroke="#0000ff" d="M2141.5237,-252.2485C2173.5111,-250.4098 2206.1568,-248.6007 2237.0444,-247 2416.9806,-237.6749 2464.6945,-260.7964 2642.0444,-229 2680.9237,-222.0295 2723.4584,-208.0316 2754.7435,-196.4615"/>
<polygon fill="#0000ff" stroke="#0000ff" points="2756.3559,-199.5947 2764.4869,-192.8023 2753.8947,-193.0417 2756.3559,-199.5947"/>
<text text-anchor="middle" x="2744.0444" y="-217.8" font-family="Times,serif" font-size="14.00" fill="#000000">publications</text>
</g>
<!-- type -->
<g id="node19" class="node">
<title>type</title>
<ellipse fill="none" stroke="#000000" cx="2913.0444" cy="-178" rx="31.3957" ry="18"/>
<text text-anchor="middle" x="2913.0444" y="-174.3" font-family="Times,serif" font-size="14.00" fill="#000000">type</text>
</g>
<!-- material sample to disease or phenotypic feature association&#45;&gt;type -->
<g id="edge18" class="edge">
<title>material sample to disease or phenotypic feature association&#45;&gt;type</title>
<path fill="none" stroke="#0000ff" d="M2138.6385,-252.0789C2171.5421,-250.2265 2205.2235,-248.4578 2237.0444,-247 2360.3133,-241.3526 2671.3481,-254.6811 2792.0444,-229 2823.7365,-222.2567 2857.536,-207.2803 2881.3337,-195.2916"/>
<polygon fill="#0000ff" stroke="#0000ff" points="2882.9632,-198.3893 2890.2535,-190.7015 2879.7603,-192.165 2882.9632,-198.3893"/>
<text text-anchor="middle" x="2853.0444" y="-217.8" font-family="Times,serif" font-size="14.00" fill="#000000">type</text>
</g>
<!-- category -->
<g id="node21" class="node">
<title>category</title>
<ellipse fill="none" stroke="#000000" cx="3014.0444" cy="-178" rx="51.9908" ry="18"/>
<text text-anchor="middle" x="3014.0444" y="-174.3" font-family="Times,serif" font-size="14.00" fill="#000000">category</text>
</g>
<!-- material sample to disease or phenotypic feature association&#45;&gt;category -->
<g id="edge19" class="edge">
<title>material sample to disease or phenotypic feature association&#45;&gt;category</title>
<path fill="none" stroke="#0000ff" d="M2137.405,-252.0324C2170.6987,-250.1693 2204.8244,-248.4095 2237.0444,-247 2378.2992,-240.8207 2734.1373,-255.3803 2873.0444,-229 2908.046,-222.3527 2945.9231,-208.2362 2973.5969,-196.5367"/>
<polygon fill="#0000ff" stroke="#0000ff" points="2975.1372,-199.6842 2982.9385,-192.5155 2972.3694,-193.2546 2975.1372,-199.6842"/>
<text text-anchor="middle" x="2957.0444" y="-217.8" font-family="Times,serif" font-size="14.00" fill="#000000">category</text>
</g>
<!-- subject&#45;&gt;object -->
<g id="edge20" class="edge">
<title>subject&#45;&gt;object</title>
<path fill="none" stroke="#000000" d="M2109.8429,-162.8458C2146.5258,-148.1388 2202.3061,-125.7753 2241.8777,-109.9102"/>
<polygon fill="#000000" stroke="#000000" points="2243.3363,-113.0963 2251.3156,-106.1263 2240.7313,-106.599 2243.3363,-113.0963"/>
<text text-anchor="middle" x="2222.0444" y="-130.8" font-family="Times,serif" font-size="14.00" fill="#000000">relation</text>
</g>
<!-- subject&#45;&gt;relation -->
<g id="edge21" class="edge">
<title>subject&#45;&gt;relation</title>
<path fill="none" stroke="#000000" stroke-dasharray="1,5" d="M2094.2944,-160.6108C2121.3907,-139.5413 2168.6697,-103.1224 2210.0444,-73 2225.0369,-62.0849 2241.8756,-50.2982 2256.143,-40.4465"/>
<polygon fill="#000000" stroke="#000000" points="2258.402,-43.1406 2264.6547,-34.5875 2254.433,-37.3745 2258.402,-43.1406"/>
</g>
<!-- object&#45;&gt;relation -->
<g id="edge22" class="edge">
<title>object&#45;&gt;relation</title>
<path fill="none" stroke="#000000" stroke-dasharray="1,5" d="M2289.0444,-72.9551C2289.0444,-64.8828 2289.0444,-55.1764 2289.0444,-46.1817"/>
<polygon fill="#000000" stroke="#000000" points="2292.5445,-46.0903 2289.0444,-36.0904 2285.5445,-46.0904 2292.5445,-46.0903"/>
</g>
<!-- association_type -->
<g id="node20" class="node">
<title>association_type</title>
<ellipse fill="none" stroke="#0000ff" cx="2284.0444" cy="-265" rx="38.1938" ry="18"/>
<text text-anchor="middle" x="2284.0444" y="-261.3" font-family="Times,serif" font-size="14.00" fill="#000000">string</text>
</g>
<!-- association_category -->
<g id="node22" class="node">
<title>association_category</title>
<ellipse fill="none" stroke="#0000ff" cx="2416.0444" cy="-265" rx="75.2868" ry="18"/>
<text text-anchor="middle" x="2416.0444" y="-261.3" font-family="Times,serif" font-size="14.00" fill="#000000">category type</text>
</g>
</g>
</svg>
