<?xml version="1.0" encoding="UTF-8" standalone="no"?>
<!DOCTYPE svg PUBLIC "-//W3C//DTD SVG 1.1//EN"
 "http://www.w3.org/Graphics/SVG/1.1/DTD/svg11.dtd">
<!-- Generated by graphviz version 2.43.0 (0)
 -->
<!-- Title: %3 Pages: 1 -->
<svg width="2890pt" height="291pt"
 viewBox="0.00 0.00 2889.99 291.00" xmlns="http://www.w3.org/2000/svg" xmlns:xlink="http://www.w3.org/1999/xlink">
<g id="graph0" class="graph" transform="scale(1 1) rotate(0) translate(4 287)">
<title>%3</title>
<polygon fill="white" stroke="transparent" points="-4,4 -4,-287 2885.99,-287 2885.99,4 -4,4"/>
<!-- material sample derivation association -->
<g id="node1" class="node">
<title>material sample derivation association</title>
<ellipse fill="none" stroke="black" cx="1362.39" cy="-265" rx="190.37" ry="18"/>
<text text-anchor="middle" x="1362.39" y="-261.3" font-family="Times,serif" font-size="14.00">material sample derivation association</text>
</g>
<!-- association -->
<g id="node2" class="node">
<title>association</title>
<ellipse fill="none" stroke="black" cx="62.39" cy="-178" rx="62.29" ry="18"/>
<text text-anchor="middle" x="62.39" y="-174.3" font-family="Times,serif" font-size="14.00">association</text>
</g>
<!-- material sample derivation association&#45;&gt;association -->
<g id="edge1" class="edge">
<title>material sample derivation association&#45;&gt;association</title>
<path fill="none" stroke="black" d="M1173.53,-262.65C907.91,-259.94 437.51,-251.98 268.39,-229 214.66,-221.7 154.54,-206.24 113.18,-194.43"/>
<polygon fill="black" stroke="black" points="113.92,-191 103.35,-191.59 111.98,-197.73 113.92,-191"/>
<text text-anchor="middle" x="282.39" y="-217.8" font-family="Times,serif" font-size="14.00">is_a</text>
</g>
<!-- id -->
<g id="node3" class="node">
<title>id</title>
<ellipse fill="none" stroke="blue" cx="181.39" cy="-178" rx="38.19" ry="18"/>
<text text-anchor="middle" x="181.39" y="-174.3" font-family="Times,serif" font-size="14.00">string</text>
</g>
<!-- material sample derivation association&#45;&gt;id -->
<g id="edge2" class="edge">
<title>material sample derivation association&#45;&gt;id</title>
<path fill="none" stroke="blue" d="M1176.94,-260.89C939.06,-256.27 539.73,-246.25 393.39,-229 319.56,-220.3 301.06,-215.79 229.39,-196 226.28,-195.14 223.08,-194.18 219.89,-193.17"/>
<polygon fill="blue" stroke="blue" points="220.97,-189.84 210.37,-190.01 218.76,-196.48 220.97,-189.84"/>
<text text-anchor="middle" x="400.39" y="-217.8" font-family="Times,serif" font-size="14.00">id</text>
</g>
<!-- iri -->
<g id="node4" class="node">
<title>iri</title>
<ellipse fill="none" stroke="blue" cx="282.39" cy="-178" rx="44.39" ry="18"/>
<text text-anchor="middle" x="282.39" y="-174.3" font-family="Times,serif" font-size="14.00">iri type</text>
</g>
<!-- material sample derivation association&#45;&gt;iri -->
<g id="edge3" class="edge">
<title>material sample derivation association&#45;&gt;iri</title>
<path fill="none" stroke="blue" d="M1171.75,-264.51C997.45,-263.01 732.79,-255.8 504.39,-229 428.39,-220.08 409.51,-215.05 335.39,-196 332.02,-195.13 328.54,-194.17 325.05,-193.16"/>
<polygon fill="blue" stroke="blue" points="325.88,-189.75 315.3,-190.21 323.86,-196.46 325.88,-189.75"/>
<text text-anchor="middle" x="512.39" y="-217.8" font-family="Times,serif" font-size="14.00">iri</text>
</g>
<!-- name -->
<g id="node5" class="node">
<title>name</title>
<ellipse fill="none" stroke="blue" cx="401.39" cy="-178" rx="56.59" ry="18"/>
<text text-anchor="middle" x="401.39" y="-174.3" font-family="Times,serif" font-size="14.00">label type</text>
</g>
<!-- material sample derivation association&#45;&gt;name -->
<g id="edge4" class="edge">
<title>material sample derivation association&#45;&gt;name</title>
<path fill="none" stroke="blue" d="M1179.12,-260.07C988.18,-255.19 702,-245.43 593.39,-229 543.53,-221.46 487.9,-206.19 449.41,-194.5"/>
<polygon fill="blue" stroke="blue" points="450.1,-191.05 439.52,-191.46 448.05,-197.74 450.1,-191.05"/>
<text text-anchor="middle" x="613.39" y="-217.8" font-family="Times,serif" font-size="14.00">name</text>
</g>
<!-- description -->
<g id="node6" class="node">
<title>description</title>
<ellipse fill="none" stroke="blue" cx="551.39" cy="-178" rx="75.29" ry="18"/>
<text text-anchor="middle" x="551.39" y="-174.3" font-family="Times,serif" font-size="14.00">narrative text</text>
</g>
<!-- material sample derivation association&#45;&gt;description -->
<g id="edge5" class="edge">
<title>material sample derivation association&#45;&gt;description</title>
<path fill="none" stroke="blue" d="M1177.43,-260.69C1010.16,-256.55 776.68,-247.6 686.39,-229 654.24,-222.37 619.53,-209.38 593.37,-198.3"/>
<polygon fill="blue" stroke="blue" points="594.7,-195.07 584.13,-194.32 591.93,-201.49 594.7,-195.07"/>
<text text-anchor="middle" x="726.89" y="-217.8" font-family="Times,serif" font-size="14.00">description</text>
</g>
<!-- source -->
<g id="node7" class="node">
<title>source</title>
<ellipse fill="none" stroke="blue" cx="683.39" cy="-178" rx="38.19" ry="18"/>
<text text-anchor="middle" x="683.39" y="-174.3" font-family="Times,serif" font-size="14.00">string</text>
</g>
<!-- material sample derivation association&#45;&gt;source -->
<g id="edge6" class="edge">
<title>material sample derivation association&#45;&gt;source</title>
<path fill="none" stroke="blue" d="M1186.83,-258C1056.01,-252.52 888.82,-243.1 821.39,-229 785.74,-221.55 746.88,-206.83 719.5,-195.28"/>
<polygon fill="blue" stroke="blue" points="720.54,-191.91 709.97,-191.19 717.78,-198.35 720.54,-191.91"/>
<text text-anchor="middle" x="845.39" y="-217.8" font-family="Times,serif" font-size="14.00">source</text>
</g>
<!-- has attribute -->
<g id="node8" class="node">
<title>has attribute</title>
<ellipse fill="none" stroke="blue" cx="791.39" cy="-178" rx="51.99" ry="18"/>
<text text-anchor="middle" x="791.39" y="-174.3" font-family="Times,serif" font-size="14.00">attribute</text>
</g>
<!-- material sample derivation association&#45;&gt;has attribute -->
<g id="edge7" class="edge">
<title>material sample derivation association&#45;&gt;has attribute</title>
<path fill="none" stroke="blue" d="M1175.91,-261.23C1096.37,-256.97 1003.04,-247.86 920.39,-229 888.83,-221.8 854.75,-208.32 829.54,-197.17"/>
<polygon fill="blue" stroke="blue" points="830.9,-193.94 820.34,-193.03 828.03,-200.32 830.9,-193.94"/>
<text text-anchor="middle" x="967.39" y="-217.8" font-family="Times,serif" font-size="14.00">has attribute</text>
</g>
<!-- negated -->
<g id="node9" class="node">
<title>negated</title>
<ellipse fill="none" stroke="blue" cx="908.39" cy="-178" rx="46.59" ry="18"/>
<text text-anchor="middle" x="908.39" y="-174.3" font-family="Times,serif" font-size="14.00">boolean</text>
</g>
<!-- material sample derivation association&#45;&gt;negated -->
<g id="edge8" class="edge">
<title>material sample derivation association&#45;&gt;negated</title>
<path fill="none" stroke="blue" d="M1226.35,-252.37C1177.79,-246.94 1122.87,-239.34 1073.39,-229 1023.43,-218.56 1012.22,-210.87 963.39,-196 960.09,-194.99 956.68,-193.95 953.25,-192.9"/>
<polygon fill="blue" stroke="blue" points="954.18,-189.52 943.59,-189.93 952.12,-196.21 954.18,-189.52"/>
<text text-anchor="middle" x="1102.39" y="-217.8" font-family="Times,serif" font-size="14.00">negated</text>
</g>
<!-- qualifiers -->
<g id="node10" class="node">
<title>qualifiers</title>
<ellipse fill="none" stroke="blue" cx="1049.39" cy="-178" rx="76.89" ry="18"/>
<text text-anchor="middle" x="1049.39" y="-174.3" font-family="Times,serif" font-size="14.00">ontology class</text>
</g>
<!-- material sample derivation association&#45;&gt;qualifiers -->
<g id="edge9" class="edge">
<title>material sample derivation association&#45;&gt;qualifiers</title>
<path fill="none" stroke="blue" d="M1266.53,-249.36C1237.63,-244.01 1205.98,-237.21 1177.39,-229 1148.55,-220.71 1117.14,-208.5 1092.66,-198.21"/>
<polygon fill="blue" stroke="blue" points="1093.87,-194.93 1083.3,-194.24 1091.13,-201.37 1093.87,-194.93"/>
<text text-anchor="middle" x="1210.89" y="-217.8" font-family="Times,serif" font-size="14.00">qualifiers</text>
</g>
<!-- publications -->
<g id="node11" class="node">
<title>publications</title>
<ellipse fill="none" stroke="blue" cx="1206.39" cy="-178" rx="62.29" ry="18"/>
<text text-anchor="middle" x="1206.39" y="-174.3" font-family="Times,serif" font-size="14.00">publication</text>
</g>
<!-- material sample derivation association&#45;&gt;publications -->
<g id="edge10" class="edge">
<title>material sample derivation association&#45;&gt;publications</title>
<path fill="none" stroke="blue" d="M1311.02,-247.56C1297.44,-242.39 1283.05,-236.13 1270.39,-229 1256.95,-221.42 1243.31,-211.19 1232.09,-201.95"/>
<polygon fill="blue" stroke="blue" points="1234.29,-199.22 1224.39,-195.45 1229.77,-204.57 1234.29,-199.22"/>
<text text-anchor="middle" x="1314.39" y="-217.8" font-family="Times,serif" font-size="14.00">publications</text>
</g>
<!-- has evidence -->
<g id="node12" class="node">
<title>has evidence</title>
<ellipse fill="none" stroke="blue" cx="1362.39" cy="-178" rx="75.29" ry="18"/>
<text text-anchor="middle" x="1362.39" y="-174.3" font-family="Times,serif" font-size="14.00">evidence type</text>
</g>
<!-- material sample derivation association&#45;&gt;has evidence -->
<g id="edge11" class="edge">
<title>material sample derivation association&#45;&gt;has evidence</title>
<path fill="none" stroke="blue" d="M1362.39,-246.8C1362.39,-235.16 1362.39,-219.55 1362.39,-206.24"/>
<polygon fill="blue" stroke="blue" points="1365.89,-206.18 1362.39,-196.18 1358.89,-206.18 1365.89,-206.18"/>
<text text-anchor="middle" x="1408.89" y="-217.8" font-family="Times,serif" font-size="14.00">has evidence</text>
</g>
<!-- knowledge source -->
<g id="node13" class="node">
<title>knowledge source</title>
<ellipse fill="none" stroke="blue" cx="1564.39" cy="-178" rx="108.58" ry="18"/>
<text text-anchor="middle" x="1564.39" y="-174.3" font-family="Times,serif" font-size="14.00">information resource</text>
</g>
<!-- material sample derivation association&#45;&gt;knowledge source -->
<g id="edge12" class="edge">
<title>material sample derivation association&#45;&gt;knowledge source</title>
<path fill="none" stroke="blue" d="M1411.11,-247.48C1426.66,-241.92 1443.86,-235.48 1459.39,-229 1480.69,-220.11 1503.9,-209.19 1523.07,-199.83"/>
<polygon fill="blue" stroke="blue" points="1524.7,-202.93 1532.13,-195.37 1521.61,-196.65 1524.7,-202.93"/>
<text text-anchor="middle" x="1556.89" y="-217.8" font-family="Times,serif" font-size="14.00">knowledge source</text>
</g>
<!-- original knowledge source -->
<g id="node14" class="node">
<title>original knowledge source</title>
<ellipse fill="none" stroke="blue" cx="1729.39" cy="-178" rx="38.19" ry="18"/>
<text text-anchor="middle" x="1729.39" y="-174.3" font-family="Times,serif" font-size="14.00">string</text>
</g>
<!-- material sample derivation association&#45;&gt;original knowledge source -->
<g id="edge13" class="edge">
<title>material sample derivation association&#45;&gt;original knowledge source</title>
<path fill="none" stroke="blue" d="M1506.42,-253.15C1545.55,-247.96 1587.55,-240.3 1625.39,-229 1639.35,-224.83 1671.01,-209.26 1695.76,-196.59"/>
<polygon fill="blue" stroke="blue" points="1697.57,-199.6 1704.85,-191.91 1694.36,-193.38 1697.57,-199.6"/>
<text text-anchor="middle" x="1753.39" y="-217.8" font-family="Times,serif" font-size="14.00">original knowledge source</text>
</g>
<!-- primary knowledge source -->
<g id="node15" class="node">
<title>primary knowledge source</title>
<ellipse fill="none" stroke="blue" cx="1894.39" cy="-178" rx="108.58" ry="18"/>
<text text-anchor="middle" x="1894.39" y="-174.3" font-family="Times,serif" font-size="14.00">information resource</text>
</g>
<!-- material sample derivation association&#45;&gt;primary knowledge source -->
<g id="edge14" class="edge">
<title>material sample derivation association&#45;&gt;primary knowledge source</title>
<path fill="none" stroke="blue" d="M1496.3,-252.2C1518.37,-250.37 1541.02,-248.57 1562.39,-247 1626.57,-242.27 1793.78,-257.65 1851.39,-229 1862.38,-223.54 1871.71,-213.88 1878.84,-204.51"/>
<polygon fill="blue" stroke="blue" points="1881.86,-206.29 1884.75,-196.1 1876.13,-202.26 1881.86,-206.29"/>
<text text-anchor="middle" x="1965.39" y="-217.8" font-family="Times,serif" font-size="14.00">primary knowledge source</text>
</g>
<!-- aggregator knowledge source -->
<g id="node16" class="node">
<title>aggregator knowledge source</title>
<ellipse fill="none" stroke="blue" cx="2129.39" cy="-178" rx="108.58" ry="18"/>
<text text-anchor="middle" x="2129.39" y="-174.3" font-family="Times,serif" font-size="14.00">information resource</text>
</g>
<!-- material sample derivation association&#45;&gt;aggregator knowledge source -->
<g id="edge15" class="edge">
<title>material sample derivation association&#45;&gt;aggregator knowledge source</title>
<path fill="none" stroke="blue" d="M1493.58,-251.92C1516.5,-250.08 1540.13,-248.34 1562.39,-247 1618.11,-243.64 2011.88,-247.92 2064.39,-229 2068.76,-227.43 2085.52,-214.51 2100.92,-202.19"/>
<polygon fill="blue" stroke="blue" points="2103.18,-204.87 2108.78,-195.87 2098.8,-199.41 2103.18,-204.87"/>
<text text-anchor="middle" x="2192.89" y="-217.8" font-family="Times,serif" font-size="14.00">aggregator knowledge source</text>
</g>
<!-- timepoint -->
<g id="node17" class="node">
<title>timepoint</title>
<ellipse fill="none" stroke="blue" cx="2311.39" cy="-178" rx="55.49" ry="18"/>
<text text-anchor="middle" x="2311.39" y="-174.3" font-family="Times,serif" font-size="14.00">time type</text>
</g>
<!-- material sample derivation association&#45;&gt;timepoint -->
<g id="edge16" class="edge">
<title>material sample derivation association&#45;&gt;timepoint</title>
<path fill="none" stroke="blue" d="M1492.22,-251.82C1515.57,-249.95 1539.69,-248.24 1562.39,-247 1582.87,-245.88 2284.57,-242.04 2300.39,-229 2307.12,-223.45 2310.31,-214.82 2311.68,-206.27"/>
<polygon fill="blue" stroke="blue" points="2315.19,-206.37 2312.57,-196.1 2308.21,-205.76 2315.19,-206.37"/>
<text text-anchor="middle" x="2345.39" y="-217.8" font-family="Times,serif" font-size="14.00">timepoint</text>
</g>
<!-- type -->
<g id="node18" class="node">
<title>type</title>
<ellipse fill="none" stroke="black" cx="2415.39" cy="-178" rx="31.4" ry="18"/>
<text text-anchor="middle" x="2415.39" y="-174.3" font-family="Times,serif" font-size="14.00">type</text>
</g>
<!-- material sample derivation association&#45;&gt;type -->
<g id="edge17" class="edge">
<title>material sample derivation association&#45;&gt;type</title>
<path fill="none" stroke="blue" d="M1491.95,-251.79C1515.38,-249.92 1539.6,-248.22 1562.39,-247 1608.01,-244.56 2344.73,-251.65 2384.39,-229 2393.61,-223.74 2400.45,-214.51 2405.33,-205.4"/>
<polygon fill="blue" stroke="blue" points="2408.6,-206.66 2409.72,-196.13 2402.28,-203.67 2408.6,-206.66"/>
<text text-anchor="middle" x="2415.39" y="-217.8" font-family="Times,serif" font-size="14.00">type</text>
</g>
<!-- category -->
<g id="node20" class="node">
<title>category</title>
<ellipse fill="none" stroke="black" cx="2516.39" cy="-178" rx="51.19" ry="18"/>
<text text-anchor="middle" x="2516.39" y="-174.3" font-family="Times,serif" font-size="14.00">category</text>
</g>
<!-- material sample derivation association&#45;&gt;category -->
<g id="edge18" class="edge">
<title>material sample derivation association&#45;&gt;category</title>
<path fill="none" stroke="blue" d="M1491.95,-251.77C1515.38,-249.9 1539.6,-248.2 1562.39,-247 1659.28,-241.89 2342.34,-256.45 2435.39,-229 2454.74,-223.29 2474.05,-211.66 2488.96,-201.06"/>
<polygon fill="blue" stroke="blue" points="2491.23,-203.73 2497.2,-194.98 2487.07,-198.1 2491.23,-203.73"/>
<text text-anchor="middle" x="2500.89" y="-217.8" font-family="Times,serif" font-size="14.00">category</text>
</g>
<!-- subject -->
<g id="node22" class="node">
<title>subject</title>
<ellipse fill="none" stroke="black" cx="2630.39" cy="-178" rx="44.39" ry="18"/>
<text text-anchor="middle" x="2630.39" y="-174.3" font-family="Times,serif" font-size="14.00">subject</text>
</g>
<!-- material sample derivation association&#45;&gt;subject -->
<g id="edge19" class="edge">
<title>material sample derivation association&#45;&gt;subject</title>
<path fill="none" stroke="blue" d="M1491.68,-251.75C1515.19,-249.88 1539.51,-248.18 1562.39,-247 1670.49,-241.41 2431.62,-256.16 2536.39,-229 2559.25,-223.07 2582.7,-210.61 2600.46,-199.62"/>
<polygon fill="blue" stroke="blue" points="2602.65,-202.37 2609.2,-194.04 2598.88,-196.47 2602.65,-202.37"/>
<text text-anchor="middle" x="2600.39" y="-217.8" font-family="Times,serif" font-size="14.00">subject</text>
</g>
<!-- object -->
<g id="node24" class="node">
<title>object</title>
<ellipse fill="none" stroke="black" cx="2673.39" cy="-91" rx="38.99" ry="18"/>
<text text-anchor="middle" x="2673.39" y="-87.3" font-family="Times,serif" font-size="14.00">object</text>
</g>
<!-- material sample derivation association&#45;&gt;object -->
<g id="edge20" class="edge">
<title>material sample derivation association&#45;&gt;object</title>
<path fill="none" stroke="blue" d="M1491.41,-251.74C1515.01,-249.86 1539.42,-248.17 1562.39,-247 1621.66,-243.99 2573.48,-245.79 2630.39,-229 2657.01,-221.15 2667.16,-218.5 2683.39,-196 2701.65,-170.69 2705.34,-156.9 2696.39,-127 2695.36,-123.55 2693.87,-120.13 2692.13,-116.85"/>
<polygon fill="blue" stroke="blue" points="2694.98,-114.79 2686.77,-108.09 2689.01,-118.45 2694.98,-114.79"/>
<text text-anchor="middle" x="2723.39" y="-174.3" font-family="Times,serif" font-size="14.00">object</text>
</g>
<!-- predicate -->
<g id="node26" class="node">
<title>predicate</title>
<ellipse fill="none" stroke="black" cx="2827.39" cy="-178" rx="54.69" ry="18"/>
<text text-anchor="middle" x="2827.39" y="-174.3" font-family="Times,serif" font-size="14.00">predicate</text>
</g>
<!-- material sample derivation association&#45;&gt;predicate -->
<g id="edge21" class="edge">
<title>material sample derivation association&#45;&gt;predicate</title>
<path fill="none" stroke="blue" d="M1491.14,-251.73C1514.82,-249.85 1539.34,-248.16 1562.39,-247 1691.36,-240.53 2598.78,-258.9 2724.39,-229 2749.27,-223.08 2775.15,-210.48 2794.75,-199.42"/>
<polygon fill="blue" stroke="blue" points="2796.66,-202.35 2803.55,-194.31 2793.15,-196.3 2796.66,-202.35"/>
<text text-anchor="middle" x="2800.39" y="-217.8" font-family="Times,serif" font-size="14.00">predicate</text>
</g>
<!-- association_type -->
<g id="node19" class="node">
<title>association_type</title>
<ellipse fill="none" stroke="blue" cx="1609.39" cy="-265" rx="38.19" ry="18"/>
<text text-anchor="middle" x="1609.39" y="-261.3" font-family="Times,serif" font-size="14.00">string</text>
</g>
<!-- association_category -->
<g id="node21" class="node">
<title>association_category</title>
<ellipse fill="none" stroke="blue" cx="1740.39" cy="-265" rx="74.99" ry="18"/>
<text text-anchor="middle" x="1740.39" y="-261.3" font-family="Times,serif" font-size="14.00">category type</text>
</g>
<!-- subject&#45;&gt;object -->
<g id="edge22" class="edge">
<title>subject&#45;&gt;object</title>
<path fill="none" stroke="black" d="M2631.5,-159.55C2632.7,-149.57 2635.2,-137.07 2640.39,-127 2642.62,-122.68 2645.55,-118.52 2648.73,-114.66"/>
<polygon fill="black" stroke="black" points="2651.35,-116.98 2655.49,-107.23 2646.17,-112.27 2651.35,-116.98"/>
<text text-anchor="middle" x="2668.39" y="-130.8" font-family="Times,serif" font-size="14.00">relation</text>
</g>
<!-- relation -->
<g id="node28" class="node">
<title>relation</title>
<ellipse fill="none" stroke="black" cx="2618.39" cy="-18" rx="46.59" ry="18"/>
<text text-anchor="middle" x="2618.39" y="-14.3" font-family="Times,serif" font-size="14.00">relation</text>
</g>
<!-- subject&#45;&gt;relation -->
<g id="edge23" class="edge">
<title>subject&#45;&gt;relation</title>
<path fill="none" stroke="black" stroke-dasharray="1,5" d="M2629.09,-159.79C2627.01,-132.48 2622.95,-78.99 2620.47,-46.38"/>
<polygon fill="black" stroke="black" points="2623.95,-45.89 2619.7,-36.19 2616.97,-46.42 2623.95,-45.89"/>
</g>
<!-- material sample derivation association_subject -->
<g id="node23" class="node">
<title>material sample derivation association_subject</title>
<ellipse fill="none" stroke="blue" cx="1919.39" cy="-265" rx="85.59" ry="18"/>
<text text-anchor="middle" x="1919.39" y="-261.3" font-family="Times,serif" font-size="14.00">material sample</text>
</g>
<!-- object&#45;&gt;relation -->
<g id="edge24" class="edge">
<title>object&#45;&gt;relation</title>
<path fill="none" stroke="black" stroke-dasharray="1,5" d="M2660.91,-73.89C2653.98,-64.94 2645.21,-53.62 2637.44,-43.58"/>
<polygon fill="black" stroke="black" points="2640.1,-41.3 2631.21,-35.54 2634.56,-45.59 2640.1,-41.3"/>
</g>
<!-- material sample derivation association_object -->
<g id="node25" class="node">
<title>material sample derivation association_object</title>
<ellipse fill="none" stroke="blue" cx="2092.39" cy="-265" rx="69.59" ry="18"/>
<text text-anchor="middle" x="2092.39" y="-261.3" font-family="Times,serif" font-size="14.00">named thing</text>
</g>
<!-- material sample derivation association_predicate -->
<g id="node27" class="node">
<title>material sample derivation association_predicate</title>
<ellipse fill="none" stroke="blue" cx="2258.39" cy="-265" rx="77.99" ry="18"/>
<text text-anchor="middle" x="2258.39" y="-261.3" font-family="Times,serif" font-size="14.00">predicate type</text>
</g>
</g>
</svg>
