<?xml version="1.0" encoding="UTF-8" standalone="no"?>
<!DOCTYPE svg PUBLIC "-//W3C//DTD SVG 1.1//EN"
 "http://www.w3.org/Graphics/SVG/1.1/DTD/svg11.dtd">
<!-- Generated by graphviz version 2.43.0 (0)
 -->
<!-- Title: %3 Pages: 1 -->
<svg width="2868pt" height="131pt"
 viewBox="0.00 0.00 2867.73 131.00" xmlns="http://www.w3.org/2000/svg" xmlns:xlink="http://www.w3.org/1999/xlink">
<g id="graph0" class="graph" transform="scale(1 1) rotate(0) translate(4 127)">
<title>%3</title>
<polygon fill="white" stroke="transparent" points="-4,4 -4,-127 2863.73,-127 2863.73,4 -4,4"/>
<!-- microRNA -->
<g id="node1" class="node">
<title>microRNA</title>
<ellipse fill="none" stroke="black" cx="1300.54" cy="-105" rx="57.69" ry="18"/>
<text text-anchor="middle" x="1300.54" y="-101.3" font-family="Times,serif" font-size="14.00">microRNA</text>
</g>
<!-- noncoding RNA product -->
<g id="node2" class="node">
<title>noncoding RNA product</title>
<ellipse fill="none" stroke="black" cx="121.54" cy="-18" rx="121.58" ry="18"/>
<text text-anchor="middle" x="121.54" y="-14.3" font-family="Times,serif" font-size="14.00">noncoding RNA product</text>
</g>
<!-- microRNA&#45;&gt;noncoding RNA product -->
<g id="edge1" class="edge">
<title>microRNA&#45;&gt;noncoding RNA product</title>
<path fill="none" stroke="black" d="M1242.84,-102.93C1068.87,-99.54 551.13,-88.08 383.54,-69 318.6,-61.61 245.62,-47.17 193.21,-35.7"/>
<polygon fill="black" stroke="black" points="193.86,-32.26 183.34,-33.52 192.35,-39.09 193.86,-32.26"/>
<text text-anchor="middle" x="397.54" y="-57.8" font-family="Times,serif" font-size="14.00">is_a</text>
</g>
<!-- id -->
<g id="node3" class="node">
<title>id</title>
<ellipse fill="none" stroke="blue" cx="299.54" cy="-18" rx="38.19" ry="18"/>
<text text-anchor="middle" x="299.54" y="-14.3" font-family="Times,serif" font-size="14.00">string</text>
</g>
<!-- microRNA&#45;&gt;id -->
<g id="edge2" class="edge">
<title>microRNA&#45;&gt;id</title>
<path fill="none" stroke="blue" d="M1242.34,-104.68C1110.46,-105.52 779.02,-103.65 504.54,-69 433.8,-60.07 416.19,-55.28 347.54,-36 344.43,-35.13 341.24,-34.16 338.04,-33.14"/>
<polygon fill="blue" stroke="blue" points="339.12,-29.81 328.53,-29.97 336.91,-36.45 339.12,-29.81"/>
<text text-anchor="middle" x="511.54" y="-57.8" font-family="Times,serif" font-size="14.00">id</text>
</g>
<!-- iri -->
<g id="node4" class="node">
<title>iri</title>
<ellipse fill="none" stroke="blue" cx="400.54" cy="-18" rx="44.39" ry="18"/>
<text text-anchor="middle" x="400.54" y="-14.3" font-family="Times,serif" font-size="14.00">iri type</text>
</g>
<!-- microRNA&#45;&gt;iri -->
<g id="edge3" class="edge">
<title>microRNA&#45;&gt;iri</title>
<path fill="none" stroke="blue" d="M1242.67,-104.83C1121.16,-105.76 830.85,-103.76 590.54,-69 538.94,-61.54 481.23,-45.16 443.1,-33.18"/>
<polygon fill="blue" stroke="blue" points="443.95,-29.78 433.36,-30.08 441.83,-36.45 443.95,-29.78"/>
<text text-anchor="middle" x="598.54" y="-57.8" font-family="Times,serif" font-size="14.00">iri</text>
</g>
<!-- type -->
<g id="node5" class="node">
<title>type</title>
<ellipse fill="none" stroke="blue" cx="501.54" cy="-18" rx="38.19" ry="18"/>
<text text-anchor="middle" x="501.54" y="-14.3" font-family="Times,serif" font-size="14.00">string</text>
</g>
<!-- microRNA&#45;&gt;type -->
<g id="edge4" class="edge">
<title>microRNA&#45;&gt;type</title>
<path fill="none" stroke="blue" d="M1242.63,-104.12C1133.33,-103.58 889.36,-98.79 686.54,-69 624.15,-59.84 608.95,-54.09 548.54,-36 545.77,-35.17 542.93,-34.27 540.08,-33.33"/>
<polygon fill="blue" stroke="blue" points="541.05,-29.96 530.45,-30.03 538.78,-36.59 541.05,-29.96"/>
<text text-anchor="middle" x="702.54" y="-57.8" font-family="Times,serif" font-size="14.00">type</text>
</g>
<!-- name -->
<g id="node6" class="node">
<title>name</title>
<ellipse fill="none" stroke="blue" cx="614.54" cy="-18" rx="56.59" ry="18"/>
<text text-anchor="middle" x="614.54" y="-14.3" font-family="Times,serif" font-size="14.00">label type</text>
</g>
<!-- microRNA&#45;&gt;name -->
<g id="edge5" class="edge">
<title>microRNA&#45;&gt;name</title>
<path fill="none" stroke="blue" d="M1242.54,-104.25C1146.22,-103.74 947.53,-98.75 782.54,-69 740.02,-61.33 692.98,-46.79 659.52,-35.36"/>
<polygon fill="blue" stroke="blue" points="660.62,-32.03 650.03,-32.07 658.34,-38.65 660.62,-32.03"/>
<text text-anchor="middle" x="802.54" y="-57.8" font-family="Times,serif" font-size="14.00">name</text>
</g>
<!-- description -->
<g id="node7" class="node">
<title>description</title>
<ellipse fill="none" stroke="blue" cx="764.54" cy="-18" rx="75.29" ry="18"/>
<text text-anchor="middle" x="764.54" y="-14.3" font-family="Times,serif" font-size="14.00">narrative text</text>
</g>
<!-- microRNA&#45;&gt;description -->
<g id="edge6" class="edge">
<title>microRNA&#45;&gt;description</title>
<path fill="none" stroke="blue" d="M1243.32,-102.2C1141.4,-98.53 932.55,-88.81 862.54,-69 839.9,-62.59 816.36,-50.77 798.02,-40.24"/>
<polygon fill="blue" stroke="blue" points="799.59,-37.1 789.2,-35.04 796.04,-43.13 799.59,-37.1"/>
<text text-anchor="middle" x="903.04" y="-57.8" font-family="Times,serif" font-size="14.00">description</text>
</g>
<!-- source -->
<g id="node8" class="node">
<title>source</title>
<ellipse fill="none" stroke="blue" cx="896.54" cy="-18" rx="38.19" ry="18"/>
<text text-anchor="middle" x="896.54" y="-14.3" font-family="Times,serif" font-size="14.00">string</text>
</g>
<!-- microRNA&#45;&gt;source -->
<g id="edge7" class="edge">
<title>microRNA&#45;&gt;source</title>
<path fill="none" stroke="blue" d="M1244.08,-100.89C1164.96,-96.03 1025.42,-85.43 977.54,-69 958.2,-62.37 938.64,-50.47 923.58,-39.94"/>
<polygon fill="blue" stroke="blue" points="925.43,-36.96 915.27,-33.95 921.34,-42.64 925.43,-36.96"/>
<text text-anchor="middle" x="1001.54" y="-57.8" font-family="Times,serif" font-size="14.00">source</text>
</g>
<!-- has attribute -->
<g id="node9" class="node">
<title>has attribute</title>
<ellipse fill="none" stroke="blue" cx="1004.54" cy="-18" rx="51.99" ry="18"/>
<text text-anchor="middle" x="1004.54" y="-14.3" font-family="Times,serif" font-size="14.00">attribute</text>
</g>
<!-- microRNA&#45;&gt;has attribute -->
<g id="edge8" class="edge">
<title>microRNA&#45;&gt;has attribute</title>
<path fill="none" stroke="blue" d="M1244.14,-100.83C1180.16,-96.44 1080.44,-86.93 1047.54,-69 1036.76,-63.13 1027.47,-53.41 1020.31,-44.09"/>
<polygon fill="blue" stroke="blue" points="1023.02,-41.86 1014.36,-35.77 1017.33,-45.94 1023.02,-41.86"/>
<text text-anchor="middle" x="1094.54" y="-57.8" font-family="Times,serif" font-size="14.00">has attribute</text>
</g>
<!-- provided by -->
<g id="node10" class="node">
<title>provided by</title>
<ellipse fill="none" stroke="blue" cx="1112.54" cy="-18" rx="38.19" ry="18"/>
<text text-anchor="middle" x="1112.54" y="-14.3" font-family="Times,serif" font-size="14.00">string</text>
</g>
<!-- microRNA&#45;&gt;provided by -->
<g id="edge9" class="edge">
<title>microRNA&#45;&gt;provided by</title>
<path fill="none" stroke="blue" d="M1248.02,-97.22C1221.44,-92.19 1189.42,-83.57 1163.54,-69 1151.72,-62.35 1140.69,-52.25 1131.94,-42.87"/>
<polygon fill="blue" stroke="blue" points="1134.41,-40.39 1125.15,-35.25 1129.18,-45.04 1134.41,-40.39"/>
<text text-anchor="middle" x="1206.04" y="-57.8" font-family="Times,serif" font-size="14.00">provided by</text>
</g>
<!-- category -->
<g id="node11" class="node">
<title>category</title>
<ellipse fill="none" stroke="black" cx="1220.54" cy="-18" rx="51.19" ry="18"/>
<text text-anchor="middle" x="1220.54" y="-14.3" font-family="Times,serif" font-size="14.00">category</text>
</g>
<!-- microRNA&#45;&gt;category -->
<g id="edge10" class="edge">
<title>microRNA&#45;&gt;category</title>
<path fill="none" stroke="blue" d="M1283.62,-87.44C1277.82,-81.67 1271.34,-75.11 1265.54,-69 1257.62,-60.65 1249.13,-51.33 1241.69,-43.01"/>
<polygon fill="blue" stroke="blue" points="1244.18,-40.55 1234.92,-35.41 1238.95,-45.21 1244.18,-40.55"/>
<text text-anchor="middle" x="1297.04" y="-57.8" font-family="Times,serif" font-size="14.00">category</text>
</g>
<!-- trade name -->
<g id="node13" class="node">
<title>trade name</title>
<ellipse fill="none" stroke="blue" cx="1371.54" cy="-18" rx="81.79" ry="18"/>
<text text-anchor="middle" x="1371.54" y="-14.3" font-family="Times,serif" font-size="14.00">chemical entity</text>
</g>
<!-- microRNA&#45;&gt;trade name -->
<g id="edge11" class="edge">
<title>microRNA&#45;&gt;trade name</title>
<path fill="none" stroke="blue" d="M1314.57,-87.21C1324.97,-74.75 1339.32,-57.57 1351.01,-43.57"/>
<polygon fill="blue" stroke="blue" points="1353.82,-45.68 1357.54,-35.76 1348.44,-41.19 1353.82,-45.68"/>
<text text-anchor="middle" x="1381.54" y="-57.8" font-family="Times,serif" font-size="14.00">trade name</text>
</g>
<!-- available from -->
<g id="node14" class="node">
<title>available from</title>
<ellipse fill="none" stroke="blue" cx="1589.54" cy="-18" rx="118.08" ry="18"/>
<text text-anchor="middle" x="1589.54" y="-14.3" font-family="Times,serif" font-size="14.00">drug_availability_enum</text>
</g>
<!-- microRNA&#45;&gt;available from -->
<g id="edge12" class="edge">
<title>microRNA&#45;&gt;available from</title>
<path fill="none" stroke="blue" d="M1342.62,-92.61C1367.15,-85.9 1398.65,-77.15 1426.54,-69 1461.15,-58.89 1499.73,-47.08 1530.66,-37.47"/>
<polygon fill="blue" stroke="blue" points="1531.92,-40.75 1540.42,-34.44 1529.84,-34.07 1531.92,-40.75"/>
<text text-anchor="middle" x="1528.04" y="-57.8" font-family="Times,serif" font-size="14.00">available from</text>
</g>
<!-- max tolerated dose -->
<g id="node15" class="node">
<title>max tolerated dose</title>
<ellipse fill="none" stroke="blue" cx="1764.54" cy="-18" rx="38.19" ry="18"/>
<text text-anchor="middle" x="1764.54" y="-14.3" font-family="Times,serif" font-size="14.00">string</text>
</g>
<!-- microRNA&#45;&gt;max tolerated dose -->
<g id="edge13" class="edge">
<title>microRNA&#45;&gt;max tolerated dose</title>
<path fill="none" stroke="blue" d="M1342.13,-92.31C1350.49,-90.29 1359.25,-88.39 1367.54,-87 1462.55,-71.1 1488.49,-84.65 1583.54,-69 1643.63,-59.11 1658.21,-53.52 1716.54,-36 1719.63,-35.07 1722.81,-34.06 1726,-33.01"/>
<polygon fill="blue" stroke="blue" points="1727.15,-36.32 1735.5,-29.8 1724.9,-29.69 1727.15,-36.32"/>
<text text-anchor="middle" x="1724.54" y="-57.8" font-family="Times,serif" font-size="14.00">max tolerated dose</text>
</g>
<!-- is toxic -->
<g id="node16" class="node">
<title>is toxic</title>
<ellipse fill="none" stroke="blue" cx="1867.54" cy="-18" rx="46.59" ry="18"/>
<text text-anchor="middle" x="1867.54" y="-14.3" font-family="Times,serif" font-size="14.00">boolean</text>
</g>
<!-- microRNA&#45;&gt;is toxic -->
<g id="edge14" class="edge">
<title>microRNA&#45;&gt;is toxic</title>
<path fill="none" stroke="blue" d="M1341.37,-92.21C1349.95,-90.14 1358.99,-88.25 1367.54,-87 1462.17,-73.17 1707.09,-100.09 1797.54,-69 1814.34,-63.23 1830.64,-52.02 1843.28,-41.68"/>
<polygon fill="blue" stroke="blue" points="1845.68,-44.23 1851.02,-35.08 1841.14,-38.9 1845.68,-44.23"/>
<text text-anchor="middle" x="1853.54" y="-57.8" font-family="Times,serif" font-size="14.00">is toxic</text>
</g>
<!-- has chemical role -->
<g id="node17" class="node">
<title>has chemical role</title>
<ellipse fill="none" stroke="blue" cx="2005.54" cy="-18" rx="72.59" ry="18"/>
<text text-anchor="middle" x="2005.54" y="-14.3" font-family="Times,serif" font-size="14.00">chemical role</text>
</g>
<!-- microRNA&#45;&gt;has chemical role -->
<g id="edge15" class="edge">
<title>microRNA&#45;&gt;has chemical role</title>
<path fill="none" stroke="blue" d="M1341.36,-92.17C1349.94,-90.1 1358.99,-88.22 1367.54,-87 1481.13,-70.8 1771.37,-93.13 1883.54,-69 1912.45,-62.78 1943.26,-50.1 1966.68,-39.07"/>
<polygon fill="blue" stroke="blue" points="1968.42,-42.12 1975.91,-34.63 1965.38,-35.81 1968.42,-42.12"/>
<text text-anchor="middle" x="1995.04" y="-57.8" font-family="Times,serif" font-size="14.00">has chemical role</text>
</g>
<!-- is metabolite -->
<g id="node18" class="node">
<title>is metabolite</title>
<ellipse fill="none" stroke="blue" cx="2143.54" cy="-18" rx="46.59" ry="18"/>
<text text-anchor="middle" x="2143.54" y="-14.3" font-family="Times,serif" font-size="14.00">boolean</text>
</g>
<!-- microRNA&#45;&gt;is metabolite -->
<g id="edge16" class="edge">
<title>microRNA&#45;&gt;is metabolite</title>
<path fill="none" stroke="blue" d="M1341.36,-92.11C1349.94,-90.04 1358.98,-88.18 1367.54,-87 1443.95,-76.45 1987.55,-90.82 2061.54,-69 2081.19,-63.2 2100.87,-51.45 2116.02,-40.8"/>
<polygon fill="blue" stroke="blue" points="2118.37,-43.42 2124.39,-34.7 2114.24,-37.76 2118.37,-43.42"/>
<text text-anchor="middle" x="2142.54" y="-57.8" font-family="Times,serif" font-size="14.00">is metabolite</text>
</g>
<!-- in taxon -->
<g id="node19" class="node">
<title>in taxon</title>
<ellipse fill="none" stroke="blue" cx="2291.54" cy="-18" rx="83.39" ry="18"/>
<text text-anchor="middle" x="2291.54" y="-14.3" font-family="Times,serif" font-size="14.00">organism taxon</text>
</g>
<!-- microRNA&#45;&gt;in taxon -->
<g id="edge17" class="edge">
<title>microRNA&#45;&gt;in taxon</title>
<path fill="none" stroke="blue" d="M1341.35,-92.08C1349.93,-90.02 1358.98,-88.16 1367.54,-87 1458.5,-74.63 2104.52,-91.43 2193.54,-69 2216.51,-63.21 2240.23,-51.29 2258.58,-40.55"/>
<polygon fill="blue" stroke="blue" points="2260.63,-43.39 2267.39,-35.23 2257.02,-37.4 2260.63,-43.39"/>
<text text-anchor="middle" x="2262.54" y="-57.8" font-family="Times,serif" font-size="14.00">in taxon</text>
</g>
<!-- has biological sequence -->
<g id="node20" class="node">
<title>has biological sequence</title>
<ellipse fill="none" stroke="blue" cx="2494.54" cy="-18" rx="101.28" ry="18"/>
<text text-anchor="middle" x="2494.54" y="-14.3" font-family="Times,serif" font-size="14.00">biological sequence</text>
</g>
<!-- microRNA&#45;&gt;has biological sequence -->
<g id="edge18" class="edge">
<title>microRNA&#45;&gt;has biological sequence</title>
<path fill="none" stroke="blue" d="M1341.35,-92.07C1349.93,-90 1358.98,-88.15 1367.54,-87 1571.95,-59.46 2091.09,-96.31 2295.54,-69 2344.36,-62.48 2398.51,-48.41 2437.97,-36.86"/>
<polygon fill="blue" stroke="blue" points="2439.09,-40.18 2447.68,-33.98 2437.1,-33.47 2439.09,-40.18"/>
<text text-anchor="middle" x="2458.04" y="-57.8" font-family="Times,serif" font-size="14.00">has biological sequence</text>
</g>
<!-- synonym -->
<g id="node21" class="node">
<title>synonym</title>
<ellipse fill="none" stroke="blue" cx="2670.54" cy="-18" rx="56.59" ry="18"/>
<text text-anchor="middle" x="2670.54" y="-14.3" font-family="Times,serif" font-size="14.00">label type</text>
</g>
<!-- microRNA&#45;&gt;synonym -->
<g id="edge19" class="edge">
<title>microRNA&#45;&gt;synonym</title>
<path fill="none" stroke="blue" d="M1340.99,-92.12C1349.68,-90.03 1358.85,-88.15 1367.54,-87 1497.42,-69.77 2418.12,-94.94 2546.54,-69 2576.87,-62.87 2609.24,-49.57 2633.29,-38.23"/>
<polygon fill="blue" stroke="blue" points="2634.92,-41.33 2642.41,-33.83 2631.88,-35.02 2634.92,-41.33"/>
<text text-anchor="middle" x="2628.54" y="-57.8" font-family="Times,serif" font-size="14.00">synonym</text>
</g>
<!-- xref -->
<g id="node22" class="node">
<title>xref</title>
<ellipse fill="none" stroke="blue" cx="2802.54" cy="-18" rx="57.39" ry="18"/>
<text text-anchor="middle" x="2802.54" y="-14.3" font-family="Times,serif" font-size="14.00">uriorcurie</text>
</g>
<!-- microRNA&#45;&gt;xref -->
<g id="edge20" class="edge">
<title>microRNA&#45;&gt;xref</title>
<path fill="none" stroke="blue" d="M1340.99,-92.12C1349.67,-90.02 1358.85,-88.15 1367.54,-87 1510.43,-68.15 2522.76,-94.91 2664.54,-69 2698.7,-62.76 2735.59,-48.99 2762.63,-37.49"/>
<polygon fill="blue" stroke="blue" points="2764.34,-40.56 2772.12,-33.37 2761.56,-34.14 2764.34,-40.56"/>
<text text-anchor="middle" x="2733.04" y="-57.8" font-family="Times,serif" font-size="14.00">xref</text>
</g>
<!-- named thing_category -->
<g id="node12" class="node">
<title>named thing_category</title>
<ellipse fill="none" stroke="blue" cx="1451.54" cy="-105" rx="74.99" ry="18"/>
<text text-anchor="middle" x="1451.54" y="-101.3" font-family="Times,serif" font-size="14.00">category type</text>
</g>
</g>
</svg>
