<?xml version="1.0" encoding="UTF-8" standalone="no"?>
<!DOCTYPE svg PUBLIC "-//W3C//DTD SVG 1.1//EN"
 "http://www.w3.org/Graphics/SVG/1.1/DTD/svg11.dtd">
<!-- Generated by graphviz version 2.43.0 (0)
 -->
<!-- Title: %3 Pages: 1 -->
<svg width="2069pt" height="131pt"
 viewBox="0.00 0.00 2068.74 131.00" xmlns="http://www.w3.org/2000/svg" xmlns:xlink="http://www.w3.org/1999/xlink">
<g id="graph0" class="graph" transform="scale(1 1) rotate(0) translate(4 127)">
<title>%3</title>
<polygon fill="white" stroke="transparent" points="-4,4 -4,-127 2064.74,-127 2064.74,4 -4,4"/>
<!-- microRNA -->
<g id="node1" class="node">
<title>microRNA</title>
<ellipse fill="none" stroke="black" cx="1025.54" cy="-105" rx="57.69" ry="18"/>
<text text-anchor="middle" x="1025.54" y="-101.3" font-family="Times,serif" font-size="14.00">microRNA</text>
</g>
<!-- noncoding RNA product -->
<g id="node2" class="node">
<title>noncoding RNA product</title>
<ellipse fill="none" stroke="black" cx="121.54" cy="-18" rx="121.58" ry="18"/>
<text text-anchor="middle" x="121.54" y="-14.3" font-family="Times,serif" font-size="14.00">noncoding RNA product</text>
</g>
<!-- microRNA&#45;&gt;noncoding RNA product -->
<g id="edge1" class="edge">
<title>microRNA&#45;&gt;noncoding RNA product</title>
<path fill="none" stroke="black" d="M967.6,-103.38C855.16,-101.61 599.69,-94.83 386.54,-69 321.26,-61.09 247.85,-46.81 194.87,-35.53"/>
<polygon fill="black" stroke="black" points="195.4,-32.06 184.89,-33.39 193.94,-38.91 195.4,-32.06"/>
<text text-anchor="middle" x="400.54" y="-57.8" font-family="Times,serif" font-size="14.00">is_a</text>
</g>
<!-- id -->
<g id="node3" class="node">
<title>id</title>
<ellipse fill="none" stroke="blue" cx="299.54" cy="-18" rx="38.19" ry="18"/>
<text text-anchor="middle" x="299.54" y="-14.3" font-family="Times,serif" font-size="14.00">string</text>
</g>
<!-- microRNA&#45;&gt;id -->
<g id="edge2" class="edge">
<title>microRNA&#45;&gt;id</title>
<path fill="none" stroke="blue" d="M968.06,-102.7C872.06,-99.95 673.19,-91.8 506.54,-69 435.03,-59.22 417.05,-55.43 347.54,-36 344.43,-35.13 341.23,-34.17 338.04,-33.15"/>
<polygon fill="blue" stroke="blue" points="339.12,-29.82 328.53,-29.98 336.91,-36.46 339.12,-29.82"/>
<text text-anchor="middle" x="513.54" y="-57.8" font-family="Times,serif" font-size="14.00">id</text>
</g>
<!-- iri -->
<g id="node4" class="node">
<title>iri</title>
<ellipse fill="none" stroke="blue" cx="400.54" cy="-18" rx="44.39" ry="18"/>
<text text-anchor="middle" x="400.54" y="-14.3" font-family="Times,serif" font-size="14.00">iri type</text>
</g>
<!-- microRNA&#45;&gt;iri -->
<g id="edge3" class="edge">
<title>microRNA&#45;&gt;iri</title>
<path fill="none" stroke="blue" d="M968.54,-101.64C887.51,-97.74 734.52,-88.38 605.54,-69 537.61,-58.79 520.92,-53.67 454.54,-36 450.96,-35.05 447.26,-34.01 443.55,-32.92"/>
<polygon fill="blue" stroke="blue" points="444.4,-29.52 433.82,-29.99 442.38,-36.23 444.4,-29.52"/>
<text text-anchor="middle" x="613.54" y="-57.8" font-family="Times,serif" font-size="14.00">iri</text>
</g>
<!-- type -->
<g id="node5" class="node">
<title>type</title>
<ellipse fill="none" stroke="blue" cx="501.54" cy="-18" rx="38.19" ry="18"/>
<text text-anchor="middle" x="501.54" y="-14.3" font-family="Times,serif" font-size="14.00">string</text>
</g>
<!-- microRNA&#45;&gt;type -->
<g id="edge4" class="edge">
<title>microRNA&#45;&gt;type</title>
<path fill="none" stroke="blue" d="M969.01,-101.09C878.6,-95.31 696.55,-78.96 548.54,-36 545.63,-35.16 542.65,-34.23 539.66,-33.25"/>
<polygon fill="blue" stroke="blue" points="540.77,-29.93 530.18,-30.02 538.52,-36.56 540.77,-29.93"/>
<text text-anchor="middle" x="706.54" y="-57.8" font-family="Times,serif" font-size="14.00">type</text>
</g>
<!-- name -->
<g id="node6" class="node">
<title>name</title>
<ellipse fill="none" stroke="blue" cx="614.54" cy="-18" rx="56.59" ry="18"/>
<text text-anchor="middle" x="614.54" y="-14.3" font-family="Times,serif" font-size="14.00">label type</text>
</g>
<!-- microRNA&#45;&gt;name -->
<g id="edge5" class="edge">
<title>microRNA&#45;&gt;name</title>
<path fill="none" stroke="blue" d="M972.22,-97.98C924.56,-92.14 852.98,-82.22 791.54,-69 747.31,-59.49 697.82,-45.19 662.45,-34.32"/>
<polygon fill="blue" stroke="blue" points="663.45,-30.96 652.86,-31.35 661.37,-37.65 663.45,-30.96"/>
<text text-anchor="middle" x="811.54" y="-57.8" font-family="Times,serif" font-size="14.00">name</text>
</g>
<!-- description -->
<g id="node7" class="node">
<title>description</title>
<ellipse fill="none" stroke="blue" cx="764.54" cy="-18" rx="75.29" ry="18"/>
<text text-anchor="middle" x="764.54" y="-14.3" font-family="Times,serif" font-size="14.00">narrative text</text>
</g>
<!-- microRNA&#45;&gt;description -->
<g id="edge6" class="edge">
<title>microRNA&#45;&gt;description</title>
<path fill="none" stroke="blue" d="M975.9,-95.51C945.35,-89.61 905.64,-80.69 871.54,-69 848.1,-60.96 822.94,-49.37 802.91,-39.37"/>
<polygon fill="blue" stroke="blue" points="804.31,-36.16 793.81,-34.76 801.15,-42.4 804.31,-36.16"/>
<text text-anchor="middle" x="912.04" y="-57.8" font-family="Times,serif" font-size="14.00">description</text>
</g>
<!-- source -->
<g id="node8" class="node">
<title>source</title>
<ellipse fill="none" stroke="blue" cx="914.54" cy="-18" rx="56.59" ry="18"/>
<text text-anchor="middle" x="914.54" y="-14.3" font-family="Times,serif" font-size="14.00">label type</text>
</g>
<!-- microRNA&#45;&gt;source -->
<g id="edge7" class="edge">
<title>microRNA&#45;&gt;source</title>
<path fill="none" stroke="blue" d="M1001.86,-88.42C993.14,-82.51 983.27,-75.61 974.54,-69 963.28,-60.47 951.25,-50.61 940.94,-41.91"/>
<polygon fill="blue" stroke="blue" points="942.97,-39.04 933.09,-35.22 938.44,-44.37 942.97,-39.04"/>
<text text-anchor="middle" x="998.54" y="-57.8" font-family="Times,serif" font-size="14.00">source</text>
</g>
<!-- provided by -->
<g id="node9" class="node">
<title>provided by</title>
<ellipse fill="none" stroke="blue" cx="1026.54" cy="-18" rx="37.09" ry="18"/>
<text text-anchor="middle" x="1026.54" y="-14.3" font-family="Times,serif" font-size="14.00">agent</text>
</g>
<!-- microRNA&#45;&gt;provided by -->
<g id="edge8" class="edge">
<title>microRNA&#45;&gt;provided by</title>
<path fill="none" stroke="blue" d="M1025.74,-86.8C1025.88,-75.16 1026.06,-59.55 1026.22,-46.24"/>
<polygon fill="blue" stroke="blue" points="1029.72,-46.22 1026.34,-36.18 1022.72,-46.13 1029.72,-46.22"/>
<text text-anchor="middle" x="1069.04" y="-57.8" font-family="Times,serif" font-size="14.00">provided by</text>
</g>
<!-- has attribute -->
<g id="node10" class="node">
<title>has attribute</title>
<ellipse fill="none" stroke="blue" cx="1133.54" cy="-18" rx="51.99" ry="18"/>
<text text-anchor="middle" x="1133.54" y="-14.3" font-family="Times,serif" font-size="14.00">attribute</text>
</g>
<!-- microRNA&#45;&gt;has attribute -->
<g id="edge9" class="edge">
<title>microRNA&#45;&gt;has attribute</title>
<path fill="none" stroke="blue" d="M1069.99,-93.21C1084.64,-87.88 1100.1,-80.13 1111.54,-69 1118.09,-62.63 1122.82,-53.98 1126.18,-45.66"/>
<polygon fill="blue" stroke="blue" points="1129.49,-46.8 1129.52,-36.21 1122.89,-44.47 1129.49,-46.8"/>
<text text-anchor="middle" x="1169.54" y="-57.8" font-family="Times,serif" font-size="14.00">has attribute</text>
</g>
<!-- category -->
<g id="node11" class="node">
<title>category</title>
<ellipse fill="none" stroke="black" cx="1254.54" cy="-18" rx="51.19" ry="18"/>
<text text-anchor="middle" x="1254.54" y="-14.3" font-family="Times,serif" font-size="14.00">category</text>
</g>
<!-- microRNA&#45;&gt;category -->
<g id="edge10" class="edge">
<title>microRNA&#45;&gt;category</title>
<path fill="none" stroke="blue" d="M1067.27,-92.49C1075.29,-90.49 1083.65,-88.56 1091.54,-87 1148.33,-75.76 1171.37,-99.56 1220.54,-69 1229.77,-63.26 1237.09,-53.99 1242.54,-44.98"/>
<polygon fill="blue" stroke="blue" points="1245.62,-46.65 1247.37,-36.2 1239.48,-43.28 1245.62,-46.65"/>
<text text-anchor="middle" x="1268.04" y="-57.8" font-family="Times,serif" font-size="14.00">category</text>
</g>
<!-- is metabolite -->
<g id="node13" class="node">
<title>is metabolite</title>
<ellipse fill="none" stroke="blue" cx="1370.54" cy="-18" rx="46.59" ry="18"/>
<text text-anchor="middle" x="1370.54" y="-14.3" font-family="Times,serif" font-size="14.00">boolean</text>
</g>
<!-- microRNA&#45;&gt;is metabolite -->
<g id="edge11" class="edge">
<title>microRNA&#45;&gt;is metabolite</title>
<path fill="none" stroke="blue" d="M1066.86,-92.23C1074.99,-90.23 1083.49,-88.37 1091.54,-87 1184.76,-71.15 1215.14,-102.57 1303.54,-69 1319.41,-62.97 1334.77,-52.01 1346.77,-41.88"/>
<polygon fill="blue" stroke="blue" points="1349.31,-44.31 1354.51,-35.08 1344.69,-39.06 1349.31,-44.31"/>
<text text-anchor="middle" x="1377.54" y="-57.8" font-family="Times,serif" font-size="14.00">is metabolite</text>
</g>
<!-- has biological sequence -->
<g id="node14" class="node">
<title>has biological sequence</title>
<ellipse fill="none" stroke="blue" cx="1536.54" cy="-18" rx="101.28" ry="18"/>
<text text-anchor="middle" x="1536.54" y="-14.3" font-family="Times,serif" font-size="14.00">biological sequence</text>
</g>
<!-- microRNA&#45;&gt;has biological sequence -->
<g id="edge12" class="edge">
<title>microRNA&#45;&gt;has biological sequence</title>
<path fill="none" stroke="blue" d="M1066.47,-92.11C1074.71,-90.1 1083.35,-88.26 1091.54,-87 1239.78,-64.18 1282.97,-105.16 1428.54,-69 1453.41,-62.82 1479.52,-50.9 1499.85,-40.24"/>
<polygon fill="blue" stroke="blue" points="1501.59,-43.28 1508.75,-35.46 1498.28,-37.11 1501.59,-43.28"/>
<text text-anchor="middle" x="1554.04" y="-57.8" font-family="Times,serif" font-size="14.00">has biological sequence</text>
</g>
<!-- in taxon -->
<g id="node15" class="node">
<title>in taxon</title>
<ellipse fill="none" stroke="blue" cx="1739.54" cy="-18" rx="83.39" ry="18"/>
<text text-anchor="middle" x="1739.54" y="-14.3" font-family="Times,serif" font-size="14.00">organism taxon</text>
</g>
<!-- microRNA&#45;&gt;in taxon -->
<g id="edge13" class="edge">
<title>microRNA&#45;&gt;in taxon</title>
<path fill="none" stroke="blue" d="M1066.1,-92.07C1074.44,-90.03 1083.22,-88.19 1091.54,-87 1212.81,-69.62 1523.97,-99.82 1642.54,-69 1665.02,-63.16 1688.22,-51.44 1706.3,-40.81"/>
<polygon fill="blue" stroke="blue" points="1708.51,-43.57 1715.25,-35.4 1704.88,-37.58 1708.51,-43.57"/>
<text text-anchor="middle" x="1710.54" y="-57.8" font-family="Times,serif" font-size="14.00">in taxon</text>
</g>
<!-- synonym -->
<g id="node16" class="node">
<title>synonym</title>
<ellipse fill="none" stroke="blue" cx="1897.54" cy="-18" rx="56.59" ry="18"/>
<text text-anchor="middle" x="1897.54" y="-14.3" font-family="Times,serif" font-size="14.00">label type</text>
</g>
<!-- microRNA&#45;&gt;synonym -->
<g id="edge14" class="edge">
<title>microRNA&#45;&gt;synonym</title>
<path fill="none" stroke="blue" d="M1066.09,-92.03C1074.44,-90 1083.22,-88.17 1091.54,-87 1235.07,-66.8 1600.7,-93.63 1743.54,-69 1782.28,-62.32 1824.66,-48.01 1855.13,-36.41"/>
<polygon fill="blue" stroke="blue" points="1856.53,-39.62 1864.59,-32.75 1854,-33.09 1856.53,-39.62"/>
<text text-anchor="middle" x="1836.54" y="-57.8" font-family="Times,serif" font-size="14.00">synonym</text>
</g>
<!-- xref -->
<g id="node17" class="node">
<title>xref</title>
<ellipse fill="none" stroke="blue" cx="2016.54" cy="-18" rx="44.39" ry="18"/>
<text text-anchor="middle" x="2016.54" y="-14.3" font-family="Times,serif" font-size="14.00">iri type</text>
</g>
<!-- microRNA&#45;&gt;xref -->
<g id="edge15" class="edge">
<title>microRNA&#45;&gt;xref</title>
<path fill="none" stroke="blue" d="M1066.09,-92C1074.44,-89.97 1083.22,-88.15 1091.54,-87 1263.5,-63.19 1701.7,-99.84 1872.54,-69 1909.58,-62.31 1949.91,-47.62 1978.44,-35.89"/>
<polygon fill="blue" stroke="blue" points="1980.15,-38.97 1988.02,-31.88 1977.44,-32.51 1980.15,-38.97"/>
<text text-anchor="middle" x="1943.04" y="-57.8" font-family="Times,serif" font-size="14.00">xref</text>
</g>
<!-- named thing_category -->
<g id="node12" class="node">
<title>named thing_category</title>
<ellipse fill="none" stroke="blue" cx="1170.54" cy="-105" rx="69.59" ry="18"/>
<text text-anchor="middle" x="1170.54" y="-101.3" font-family="Times,serif" font-size="14.00">named thing</text>
</g>
</g>
</svg>
