<?xml version="1.0" encoding="UTF-8" standalone="no"?>
<!DOCTYPE svg PUBLIC "-//W3C//DTD SVG 1.1//EN"
 "http://www.w3.org/Graphics/SVG/1.1/DTD/svg11.dtd">
<!-- Generated by graphviz version 2.43.0 (0)
 -->
<!-- Title: %3 Pages: 1 -->
<svg width="2078pt" height="131pt"
 viewBox="0.00 0.00 2077.54 131.00" xmlns="http://www.w3.org/2000/svg" xmlns:xlink="http://www.w3.org/1999/xlink">
<g id="graph0" class="graph" transform="scale(1 1) rotate(0) translate(4 127)">
<title>%3</title>
<polygon fill="white" stroke="transparent" points="-4,4 -4,-127 2073.54,-127 2073.54,4 -4,4"/>
<!-- micronutrient -->
<g id="node1" class="node">
<title>micronutrient</title>
<ellipse fill="none" stroke="black" cx="910.75" cy="-105" rx="75.29" ry="18"/>
<text text-anchor="middle" x="910.75" y="-101.3" font-family="Times,serif" font-size="14.00">micronutrient</text>
</g>
<!-- nutrient -->
<g id="node2" class="node">
<title>nutrient</title>
<ellipse fill="none" stroke="black" cx="48.75" cy="-18" rx="48.99" ry="18"/>
<text text-anchor="middle" x="48.75" y="-14.3" font-family="Times,serif" font-size="14.00">nutrient</text>
</g>
<!-- micronutrient&#45;&gt;nutrient -->
<g id="edge1" class="edge">
<title>micronutrient&#45;&gt;nutrient</title>
<path fill="none" stroke="black" d="M835.31,-104.74C710.64,-104.92 454.07,-100.88 239.75,-69 188.86,-61.43 131.99,-45.55 93.64,-33.71"/>
<polygon fill="black" stroke="black" points="94.41,-30.28 83.82,-30.64 92.32,-36.96 94.41,-30.28"/>
<text text-anchor="middle" x="253.75" y="-57.8" font-family="Times,serif" font-size="14.00">is_a</text>
</g>
<!-- id -->
<g id="node3" class="node">
<title>id</title>
<ellipse fill="none" stroke="blue" cx="153.75" cy="-18" rx="38.19" ry="18"/>
<text text-anchor="middle" x="153.75" y="-14.3" font-family="Times,serif" font-size="14.00">string</text>
</g>
<!-- micronutrient&#45;&gt;id -->
<g id="edge2" class="edge">
<title>micronutrient&#45;&gt;id</title>
<path fill="none" stroke="blue" d="M835.86,-102.66C729.39,-99.99 528.35,-92.08 358.75,-69 288.09,-59.39 270.39,-55.28 201.75,-36 198.64,-35.13 195.44,-34.16 192.24,-33.14"/>
<polygon fill="blue" stroke="blue" points="193.33,-29.81 182.74,-29.97 191.12,-36.45 193.33,-29.81"/>
<text text-anchor="middle" x="365.75" y="-57.8" font-family="Times,serif" font-size="14.00">id</text>
</g>
<!-- iri -->
<g id="node4" class="node">
<title>iri</title>
<ellipse fill="none" stroke="blue" cx="254.75" cy="-18" rx="44.39" ry="18"/>
<text text-anchor="middle" x="254.75" y="-14.3" font-family="Times,serif" font-size="14.00">iri type</text>
</g>
<!-- micronutrient&#45;&gt;iri -->
<g id="edge3" class="edge">
<title>micronutrient&#45;&gt;iri</title>
<path fill="none" stroke="blue" d="M836.06,-102.14C743.67,-98.98 581.78,-90.62 444.75,-69 393.4,-60.9 335.86,-44.73 297.7,-32.96"/>
<polygon fill="blue" stroke="blue" points="298.53,-29.56 287.95,-29.92 296.45,-36.24 298.53,-29.56"/>
<text text-anchor="middle" x="452.75" y="-57.8" font-family="Times,serif" font-size="14.00">iri</text>
</g>
<!-- type -->
<g id="node5" class="node">
<title>type</title>
<ellipse fill="none" stroke="blue" cx="355.75" cy="-18" rx="38.19" ry="18"/>
<text text-anchor="middle" x="355.75" y="-14.3" font-family="Times,serif" font-size="14.00">string</text>
</g>
<!-- micronutrient&#45;&gt;type -->
<g id="edge4" class="edge">
<title>micronutrient&#45;&gt;type</title>
<path fill="none" stroke="blue" d="M837.58,-100.37C761.88,-95.86 640.43,-86.52 536.75,-69 476.27,-58.78 461.44,-53.79 402.75,-36 399.98,-35.16 397.14,-34.26 394.29,-33.31"/>
<polygon fill="blue" stroke="blue" points="395.26,-29.94 384.67,-30 392.99,-36.56 395.26,-29.94"/>
<text text-anchor="middle" x="552.75" y="-57.8" font-family="Times,serif" font-size="14.00">type</text>
</g>
<!-- name -->
<g id="node6" class="node">
<title>name</title>
<ellipse fill="none" stroke="blue" cx="468.75" cy="-18" rx="56.59" ry="18"/>
<text text-anchor="middle" x="468.75" y="-14.3" font-family="Times,serif" font-size="14.00">label type</text>
</g>
<!-- micronutrient&#45;&gt;name -->
<g id="edge5" class="edge">
<title>micronutrient&#45;&gt;name</title>
<path fill="none" stroke="blue" d="M839.34,-99.1C780.88,-94.17 696.3,-84.97 623.75,-69 585.62,-60.61 543.54,-46.72 512.85,-35.71"/>
<polygon fill="blue" stroke="blue" points="513.91,-32.37 503.31,-32.25 511.52,-38.95 513.91,-32.37"/>
<text text-anchor="middle" x="643.75" y="-57.8" font-family="Times,serif" font-size="14.00">name</text>
</g>
<!-- description -->
<g id="node7" class="node">
<title>description</title>
<ellipse fill="none" stroke="blue" cx="618.75" cy="-18" rx="75.29" ry="18"/>
<text text-anchor="middle" x="618.75" y="-14.3" font-family="Times,serif" font-size="14.00">narrative text</text>
</g>
<!-- micronutrient&#45;&gt;description -->
<g id="edge6" class="edge">
<title>micronutrient&#45;&gt;description</title>
<path fill="none" stroke="blue" d="M838.48,-99.54C796.08,-95.14 742.09,-86.38 696.75,-69 679.33,-62.32 661.69,-51.44 647.61,-41.53"/>
<polygon fill="blue" stroke="blue" points="649.48,-38.56 639.33,-35.53 645.37,-44.23 649.48,-38.56"/>
<text text-anchor="middle" x="737.25" y="-57.8" font-family="Times,serif" font-size="14.00">description</text>
</g>
<!-- source -->
<g id="node8" class="node">
<title>source</title>
<ellipse fill="none" stroke="blue" cx="750.75" cy="-18" rx="38.19" ry="18"/>
<text text-anchor="middle" x="750.75" y="-14.3" font-family="Times,serif" font-size="14.00">string</text>
</g>
<!-- micronutrient&#45;&gt;source -->
<g id="edge7" class="edge">
<title>micronutrient&#45;&gt;source</title>
<path fill="none" stroke="blue" d="M855.39,-92.63C836.53,-87.26 815.89,-79.62 798.75,-69 787.83,-62.24 777.67,-52.42 769.53,-43.28"/>
<polygon fill="blue" stroke="blue" points="772.08,-40.87 762.94,-35.5 766.74,-45.39 772.08,-40.87"/>
<text text-anchor="middle" x="822.75" y="-57.8" font-family="Times,serif" font-size="14.00">source</text>
</g>
<!-- has attribute -->
<g id="node9" class="node">
<title>has attribute</title>
<ellipse fill="none" stroke="blue" cx="858.75" cy="-18" rx="51.99" ry="18"/>
<text text-anchor="middle" x="858.75" y="-14.3" font-family="Times,serif" font-size="14.00">attribute</text>
</g>
<!-- micronutrient&#45;&gt;has attribute -->
<g id="edge8" class="edge">
<title>micronutrient&#45;&gt;has attribute</title>
<path fill="none" stroke="blue" d="M874.28,-89.18C866.1,-84.05 858.45,-77.41 853.75,-69 849.9,-62.12 849.39,-53.86 850.34,-46.06"/>
<polygon fill="blue" stroke="blue" points="853.78,-46.71 852.28,-36.22 846.91,-45.36 853.78,-46.71"/>
<text text-anchor="middle" x="900.75" y="-57.8" font-family="Times,serif" font-size="14.00">has attribute</text>
</g>
<!-- provided by -->
<g id="node10" class="node">
<title>provided by</title>
<ellipse fill="none" stroke="blue" cx="966.75" cy="-18" rx="38.19" ry="18"/>
<text text-anchor="middle" x="966.75" y="-14.3" font-family="Times,serif" font-size="14.00">string</text>
</g>
<!-- micronutrient&#45;&gt;provided by -->
<g id="edge9" class="edge">
<title>micronutrient&#45;&gt;provided by</title>
<path fill="none" stroke="blue" d="M931.29,-87.64C937.18,-82.19 943.23,-75.77 947.75,-69 952.46,-61.94 956.22,-53.54 959.12,-45.67"/>
<polygon fill="blue" stroke="blue" points="962.47,-46.71 962.34,-36.12 955.83,-44.48 962.47,-46.71"/>
<text text-anchor="middle" x="998.25" y="-57.8" font-family="Times,serif" font-size="14.00">provided by</text>
</g>
<!-- xref -->
<g id="node11" class="node">
<title>xref</title>
<ellipse fill="none" stroke="blue" cx="1080.75" cy="-18" rx="57.39" ry="18"/>
<text text-anchor="middle" x="1080.75" y="-14.3" font-family="Times,serif" font-size="14.00">uriorcurie</text>
</g>
<!-- micronutrient&#45;&gt;xref -->
<g id="edge10" class="edge">
<title>micronutrient&#45;&gt;xref</title>
<path fill="none" stroke="blue" d="M967.87,-93.1C998.29,-86.52 1032.01,-77.74 1044.75,-69 1053.74,-62.83 1061.29,-53.64 1067.11,-44.81"/>
<polygon fill="blue" stroke="blue" points="1070.12,-46.6 1072.34,-36.24 1064.14,-42.95 1070.12,-46.6"/>
<text text-anchor="middle" x="1075.25" y="-57.8" font-family="Times,serif" font-size="14.00">xref</text>
</g>
<!-- category -->
<g id="node12" class="node">
<title>category</title>
<ellipse fill="none" stroke="black" cx="1207.75" cy="-18" rx="51.19" ry="18"/>
<text text-anchor="middle" x="1207.75" y="-14.3" font-family="Times,serif" font-size="14.00">category</text>
</g>
<!-- micronutrient&#45;&gt;category -->
<g id="edge11" class="edge">
<title>micronutrient&#45;&gt;category</title>
<path fill="none" stroke="blue" d="M965.84,-92.69C975.47,-90.76 985.39,-88.8 994.75,-87 1038.66,-78.56 1050.98,-82.07 1093.75,-69 1120.21,-60.91 1148.72,-48.41 1170.61,-37.92"/>
<polygon fill="blue" stroke="blue" points="1172.4,-40.94 1179.87,-33.42 1169.34,-34.65 1172.4,-40.94"/>
<text text-anchor="middle" x="1164.25" y="-57.8" font-family="Times,serif" font-size="14.00">category</text>
</g>
<!-- trade name -->
<g id="node14" class="node">
<title>trade name</title>
<ellipse fill="none" stroke="blue" cx="1358.75" cy="-18" rx="81.79" ry="18"/>
<text text-anchor="middle" x="1358.75" y="-14.3" font-family="Times,serif" font-size="14.00">chemical entity</text>
</g>
<!-- micronutrient&#45;&gt;trade name -->
<g id="edge12" class="edge">
<title>micronutrient&#45;&gt;trade name</title>
<path fill="none" stroke="blue" d="M964.36,-92.22C974.42,-90.27 984.88,-88.43 994.75,-87 1085.27,-73.91 1110.04,-86.82 1199.75,-69 1237.52,-61.49 1279,-48.28 1310.11,-37.32"/>
<polygon fill="blue" stroke="blue" points="1311.59,-40.51 1319.83,-33.85 1309.24,-33.91 1311.59,-40.51"/>
<text text-anchor="middle" x="1298.75" y="-57.8" font-family="Times,serif" font-size="14.00">trade name</text>
</g>
<!-- available from -->
<g id="node15" class="node">
<title>available from</title>
<ellipse fill="none" stroke="blue" cx="1576.75" cy="-18" rx="118.08" ry="18"/>
<text text-anchor="middle" x="1576.75" y="-14.3" font-family="Times,serif" font-size="14.00">drug_availability_enum</text>
</g>
<!-- micronutrient&#45;&gt;available from -->
<g id="edge13" class="edge">
<title>micronutrient&#45;&gt;available from</title>
<path fill="none" stroke="blue" d="M963.42,-92.1C973.76,-90.11 984.56,-88.29 994.75,-87 1148.84,-67.54 1189.77,-89.36 1343.75,-69 1400.3,-61.52 1463.52,-47.6 1509.83,-36.33"/>
<polygon fill="blue" stroke="blue" points="1510.86,-39.69 1519.74,-33.9 1509.19,-32.89 1510.86,-39.69"/>
<text text-anchor="middle" x="1479.25" y="-57.8" font-family="Times,serif" font-size="14.00">available from</text>
</g>
<!-- max tolerated dose -->
<g id="node16" class="node">
<title>max tolerated dose</title>
<ellipse fill="none" stroke="blue" cx="1751.75" cy="-18" rx="38.19" ry="18"/>
<text text-anchor="middle" x="1751.75" y="-14.3" font-family="Times,serif" font-size="14.00">string</text>
</g>
<!-- micronutrient&#45;&gt;max tolerated dose -->
<g id="edge14" class="edge">
<title>micronutrient&#45;&gt;max tolerated dose</title>
<path fill="none" stroke="blue" d="M963.41,-91.95C973.75,-89.98 984.55,-88.19 994.75,-87 1233.25,-59.09 1296.15,-96.1 1534.75,-69 1610.79,-60.36 1629.92,-56.16 1703.75,-36 1706.9,-35.14 1710.15,-34.17 1713.39,-33.15"/>
<polygon fill="blue" stroke="blue" points="1714.64,-36.42 1723.03,-29.95 1712.43,-29.78 1714.64,-36.42"/>
<text text-anchor="middle" x="1700.75" y="-57.8" font-family="Times,serif" font-size="14.00">max tolerated dose</text>
</g>
<!-- is toxic -->
<g id="node17" class="node">
<title>is toxic</title>
<ellipse fill="none" stroke="blue" cx="1858.75" cy="-18" rx="46.59" ry="18"/>
<text text-anchor="middle" x="1858.75" y="-14.3" font-family="Times,serif" font-size="14.00">boolean</text>
</g>
<!-- micronutrient&#45;&gt;is toxic -->
<g id="edge15" class="edge">
<title>micronutrient&#45;&gt;is toxic</title>
<path fill="none" stroke="blue" d="M962.95,-91.95C973.42,-89.95 984.39,-88.16 994.75,-87 1080.79,-77.38 1690.48,-92.71 1773.75,-69 1794.31,-63.14 1815.03,-51.1 1830.87,-40.31"/>
<polygon fill="blue" stroke="blue" points="1832.98,-43.1 1839.14,-34.48 1828.95,-37.38 1832.98,-43.1"/>
<text text-anchor="middle" x="1834.75" y="-57.8" font-family="Times,serif" font-size="14.00">is toxic</text>
</g>
<!-- has chemical role -->
<g id="node18" class="node">
<title>has chemical role</title>
<ellipse fill="none" stroke="blue" cx="1996.75" cy="-18" rx="72.59" ry="18"/>
<text text-anchor="middle" x="1996.75" y="-14.3" font-family="Times,serif" font-size="14.00">chemical role</text>
</g>
<!-- micronutrient&#45;&gt;has chemical role -->
<g id="edge16" class="edge">
<title>micronutrient&#45;&gt;has chemical role</title>
<path fill="none" stroke="blue" d="M962.94,-91.93C973.42,-89.94 984.39,-88.15 994.75,-87 1186.95,-65.74 1674.9,-105.78 1864.75,-69 1896.42,-62.86 1930.44,-49.81 1956,-38.58"/>
<polygon fill="blue" stroke="blue" points="1957.67,-41.67 1965.36,-34.38 1954.81,-35.28 1957.67,-41.67"/>
<text text-anchor="middle" x="1980.25" y="-57.8" font-family="Times,serif" font-size="14.00">has chemical role</text>
</g>
<!-- named thing_category -->
<g id="node13" class="node">
<title>named thing_category</title>
<ellipse fill="none" stroke="blue" cx="1078.75" cy="-105" rx="74.99" ry="18"/>
<text text-anchor="middle" x="1078.75" y="-101.3" font-family="Times,serif" font-size="14.00">category type</text>
</g>
</g>
</svg>
