<?xml version="1.0" encoding="UTF-8" standalone="no"?>
<!DOCTYPE svg PUBLIC "-//W3C//DTD SVG 1.1//EN"
 "http://www.w3.org/Graphics/SVG/1.1/DTD/svg11.dtd">
<!-- Generated by graphviz version 2.43.0 (0)
 -->
<!-- Title: %3 Pages: 1 -->
<svg width="1168pt" height="131pt"
 viewBox="0.00 0.00 1168.09 131.00" xmlns="http://www.w3.org/2000/svg" xmlns:xlink="http://www.w3.org/1999/xlink">
<g id="graph0" class="graph" transform="scale(1 1) rotate(0) translate(4 127)">
<title>%3</title>
<polygon fill="white" stroke="transparent" points="-4,4 -4,-127 1164.09,-127 1164.09,4 -4,4"/>
<!-- micronutrient -->
<g id="node1" class="node">
<title>micronutrient</title>
<ellipse fill="none" stroke="black" cx="543.75" cy="-105" rx="75.29" ry="18"/>
<text text-anchor="middle" x="543.75" y="-101.3" font-family="Times,serif" font-size="14.00">micronutrient</text>
</g>
<!-- nutrient -->
<g id="node2" class="node">
<title>nutrient</title>
<ellipse fill="none" stroke="black" cx="48.75" cy="-18" rx="48.99" ry="18"/>
<text text-anchor="middle" x="48.75" y="-14.3" font-family="Times,serif" font-size="14.00">nutrient</text>
</g>
<!-- micronutrient&#45;&gt;nutrient -->
<g id="edge1" class="edge">
<title>micronutrient&#45;&gt;nutrient</title>
<path fill="none" stroke="black" d="M473.69,-98.23C412.66,-92.63 321.96,-82.93 243.75,-69 182.09,-58.02 167.26,-52.15 106.75,-36 102.92,-34.98 98.96,-33.89 94.99,-32.77"/>
<polygon fill="black" stroke="black" points="95.76,-29.35 85.18,-29.97 93.83,-36.08 95.76,-29.35"/>
<text text-anchor="middle" x="257.75" y="-57.8" font-family="Times,serif" font-size="14.00">is_a</text>
</g>
<!-- id -->
<g id="node3" class="node">
<title>id</title>
<ellipse fill="none" stroke="blue" cx="153.75" cy="-18" rx="38.19" ry="18"/>
<text text-anchor="middle" x="153.75" y="-14.3" font-family="Times,serif" font-size="14.00">string</text>
</g>
<!-- micronutrient&#45;&gt;id -->
<g id="edge2" class="edge">
<title>micronutrient&#45;&gt;id</title>
<path fill="none" stroke="blue" d="M481.54,-94.79C412.44,-83.83 297.93,-63.5 201.75,-36 198.64,-35.11 195.45,-34.13 192.25,-33.11"/>
<polygon fill="blue" stroke="blue" points="193.34,-29.78 182.75,-29.92 191.12,-36.42 193.34,-29.78"/>
<text text-anchor="middle" x="339.75" y="-57.8" font-family="Times,serif" font-size="14.00">id</text>
</g>
<!-- iri -->
<g id="node4" class="node">
<title>iri</title>
<ellipse fill="none" stroke="blue" cx="254.75" cy="-18" rx="44.39" ry="18"/>
<text text-anchor="middle" x="254.75" y="-14.3" font-family="Times,serif" font-size="14.00">iri type</text>
</g>
<!-- micronutrient&#45;&gt;iri -->
<g id="edge3" class="edge">
<title>micronutrient&#45;&gt;iri</title>
<path fill="none" stroke="blue" d="M496.2,-90.91C472.84,-84.42 444.29,-76.41 418.75,-69 369.72,-54.78 357.53,-51 308.75,-36 305.25,-34.93 301.63,-33.81 298,-32.67"/>
<polygon fill="blue" stroke="blue" points="299.02,-29.32 288.43,-29.68 296.93,-36.01 299.02,-29.32"/>
<text text-anchor="middle" x="426.75" y="-57.8" font-family="Times,serif" font-size="14.00">iri</text>
</g>
<!-- type -->
<g id="node5" class="node">
<title>type</title>
<ellipse fill="none" stroke="blue" cx="355.75" cy="-18" rx="38.19" ry="18"/>
<text text-anchor="middle" x="355.75" y="-14.3" font-family="Times,serif" font-size="14.00">string</text>
</g>
<!-- micronutrient&#45;&gt;type -->
<g id="edge4" class="edge">
<title>micronutrient&#45;&gt;type</title>
<path fill="none" stroke="blue" d="M510.14,-88.8C476.73,-73.7 425.69,-50.62 391.54,-35.18"/>
<polygon fill="blue" stroke="blue" points="392.94,-31.98 382.39,-31.04 390.06,-38.35 392.94,-31.98"/>
<text text-anchor="middle" x="477.75" y="-57.8" font-family="Times,serif" font-size="14.00">type</text>
</g>
<!-- name -->
<g id="node6" class="node">
<title>name</title>
<ellipse fill="none" stroke="blue" cx="468.75" cy="-18" rx="56.59" ry="18"/>
<text text-anchor="middle" x="468.75" y="-14.3" font-family="Times,serif" font-size="14.00">label type</text>
</g>
<!-- micronutrient&#45;&gt;name -->
<g id="edge5" class="edge">
<title>micronutrient&#45;&gt;name</title>
<path fill="none" stroke="blue" d="M528.93,-87.21C517.87,-74.67 502.58,-57.35 490.19,-43.3"/>
<polygon fill="blue" stroke="blue" points="492.52,-40.65 483.28,-35.47 487.27,-45.28 492.52,-40.65"/>
<text text-anchor="middle" x="530.75" y="-57.8" font-family="Times,serif" font-size="14.00">name</text>
</g>
<!-- description -->
<g id="node7" class="node">
<title>description</title>
<ellipse fill="none" stroke="blue" cx="618.75" cy="-18" rx="75.29" ry="18"/>
<text text-anchor="middle" x="618.75" y="-14.3" font-family="Times,serif" font-size="14.00">narrative text</text>
</g>
<!-- micronutrient&#45;&gt;description -->
<g id="edge6" class="edge">
<title>micronutrient&#45;&gt;description</title>
<path fill="none" stroke="blue" d="M558.56,-87.21C569.55,-74.75 584.71,-57.57 597.06,-43.57"/>
<polygon fill="blue" stroke="blue" points="599.97,-45.57 603.96,-35.76 594.72,-40.94 599.97,-45.57"/>
<text text-anchor="middle" x="626.25" y="-57.8" font-family="Times,serif" font-size="14.00">description</text>
</g>
<!-- source -->
<g id="node8" class="node">
<title>source</title>
<ellipse fill="none" stroke="blue" cx="768.75" cy="-18" rx="56.59" ry="18"/>
<text text-anchor="middle" x="768.75" y="-14.3" font-family="Times,serif" font-size="14.00">label type</text>
</g>
<!-- micronutrient&#45;&gt;source -->
<g id="edge7" class="edge">
<title>micronutrient&#45;&gt;source</title>
<path fill="none" stroke="blue" d="M596.42,-92.04C619.57,-86.13 646.87,-78.27 670.75,-69 692.38,-60.6 715.54,-48.92 733.92,-38.95"/>
<polygon fill="blue" stroke="blue" points="735.72,-41.96 742.79,-34.07 732.34,-35.83 735.72,-41.96"/>
<text text-anchor="middle" x="728.75" y="-57.8" font-family="Times,serif" font-size="14.00">source</text>
</g>
<!-- provided by -->
<g id="node9" class="node">
<title>provided by</title>
<ellipse fill="none" stroke="blue" cx="880.75" cy="-18" rx="37.09" ry="18"/>
<text text-anchor="middle" x="880.75" y="-14.3" font-family="Times,serif" font-size="14.00">agent</text>
</g>
<!-- micronutrient&#45;&gt;provided by -->
<g id="edge8" class="edge">
<title>micronutrient&#45;&gt;provided by</title>
<path fill="none" stroke="blue" d="M598.33,-92.45C608.1,-90.53 618.21,-88.63 627.75,-87 684.81,-77.25 700.82,-83.94 756.75,-69 787.83,-60.7 821.6,-46.73 846.04,-35.66"/>
<polygon fill="blue" stroke="blue" points="847.63,-38.79 855.25,-31.43 844.7,-32.43 847.63,-38.79"/>
<text text-anchor="middle" x="845.25" y="-57.8" font-family="Times,serif" font-size="14.00">provided by</text>
</g>
<!-- has attribute -->
<g id="node10" class="node">
<title>has attribute</title>
<ellipse fill="none" stroke="blue" cx="987.75" cy="-18" rx="51.99" ry="18"/>
<text text-anchor="middle" x="987.75" y="-14.3" font-family="Times,serif" font-size="14.00">attribute</text>
</g>
<!-- micronutrient&#45;&gt;has attribute -->
<g id="edge9" class="edge">
<title>micronutrient&#45;&gt;has attribute</title>
<path fill="none" stroke="blue" d="M596.89,-92.15C607.09,-90.18 617.72,-88.35 627.75,-87 744.3,-71.3 778.53,-100.84 891.75,-69 914.39,-62.63 937.84,-50.54 955.9,-39.84"/>
<polygon fill="blue" stroke="blue" points="958.1,-42.6 964.82,-34.41 954.46,-36.62 958.1,-42.6"/>
<text text-anchor="middle" x="974.75" y="-57.8" font-family="Times,serif" font-size="14.00">has attribute</text>
</g>
<!-- category -->
<g id="node11" class="node">
<title>category</title>
<ellipse fill="none" stroke="black" cx="1108.75" cy="-18" rx="51.19" ry="18"/>
<text text-anchor="middle" x="1108.75" y="-14.3" font-family="Times,serif" font-size="14.00">category</text>
</g>
<!-- micronutrient&#45;&gt;category -->
<g id="edge10" class="edge">
<title>micronutrient&#45;&gt;category</title>
<path fill="none" stroke="blue" d="M596.42,-92.05C606.76,-90.07 617.56,-88.25 627.75,-87 715.62,-76.19 941,-94.63 1025.75,-69 1045.4,-63.06 1065.18,-51.42 1080.49,-40.86"/>
<polygon fill="blue" stroke="blue" points="1082.85,-43.48 1088.96,-34.82 1078.79,-37.78 1082.85,-43.48"/>
<text text-anchor="middle" x="1090.25" y="-57.8" font-family="Times,serif" font-size="14.00">category</text>
</g>
<!-- named thing_category -->
<g id="node12" class="node">
<title>named thing_category</title>
<ellipse fill="none" stroke="blue" cx="706.75" cy="-105" rx="69.59" ry="18"/>
<text text-anchor="middle" x="706.75" y="-101.3" font-family="Times,serif" font-size="14.00">named thing</text>
</g>
</g>
</svg>
