<?xml version="1.0" encoding="UTF-8" standalone="no"?>
<!DOCTYPE svg PUBLIC "-//W3C//DTD SVG 1.1//EN"
 "http://www.w3.org/Graphics/SVG/1.1/DTD/svg11.dtd">
<!-- Generated by graphviz version 2.43.0 (0)
 -->
<!-- Title: %3 Pages: 1 -->
<svg width="1945pt" height="131pt"
 viewBox="0.00 0.00 1944.54 131.00" xmlns="http://www.w3.org/2000/svg" xmlns:xlink="http://www.w3.org/1999/xlink">
<g id="graph0" class="graph" transform="scale(1 1) rotate(0) translate(4 127)">
<title>%3</title>
<polygon fill="white" stroke="transparent" points="-4,4 -4,-127 1940.54,-127 1940.54,4 -4,4"/>
<!-- micronutrient -->
<g id="node1" class="node">
<title>micronutrient</title>
<ellipse fill="none" stroke="black" cx="849.75" cy="-105" rx="75.29" ry="18"/>
<text text-anchor="middle" x="849.75" y="-101.3" font-family="Times,serif" font-size="14.00">micronutrient</text>
</g>
<!-- nutrient -->
<g id="node2" class="node">
<title>nutrient</title>
<ellipse fill="none" stroke="black" cx="48.75" cy="-18" rx="48.99" ry="18"/>
<text text-anchor="middle" x="48.75" y="-14.3" font-family="Times,serif" font-size="14.00">nutrient</text>
</g>
<!-- micronutrient&#45;&gt;nutrient -->
<g id="edge1" class="edge">
<title>micronutrient&#45;&gt;nutrient</title>
<path fill="none" stroke="black" d="M774.15,-104.16C658.41,-103.4 430.63,-97.9 239.75,-69 188.88,-61.3 132.01,-45.44 93.65,-33.64"/>
<polygon fill="black" stroke="black" points="94.42,-30.21 83.83,-30.58 92.34,-36.9 94.42,-30.21"/>
<text text-anchor="middle" x="253.75" y="-57.8" font-family="Times,serif" font-size="14.00">is_a</text>
</g>
<!-- id -->
<g id="node3" class="node">
<title>id</title>
<ellipse fill="none" stroke="blue" cx="153.75" cy="-18" rx="38.19" ry="18"/>
<text text-anchor="middle" x="153.75" y="-14.3" font-family="Times,serif" font-size="14.00">string</text>
</g>
<!-- micronutrient&#45;&gt;id -->
<g id="edge2" class="edge">
<title>micronutrient&#45;&gt;id</title>
<path fill="none" stroke="blue" d="M775.38,-101.85C678.92,-98.33 505.58,-89.57 358.75,-69 288.13,-59.11 270.39,-55.28 201.75,-36 198.64,-35.13 195.44,-34.16 192.24,-33.14"/>
<polygon fill="blue" stroke="blue" points="193.33,-29.81 182.74,-29.97 191.12,-36.45 193.33,-29.81"/>
<text text-anchor="middle" x="365.75" y="-57.8" font-family="Times,serif" font-size="14.00">id</text>
</g>
<!-- iri -->
<g id="node4" class="node">
<title>iri</title>
<ellipse fill="none" stroke="blue" cx="254.75" cy="-18" rx="44.39" ry="18"/>
<text text-anchor="middle" x="254.75" y="-14.3" font-family="Times,serif" font-size="14.00">iri type</text>
</g>
<!-- micronutrient&#45;&gt;iri -->
<g id="edge3" class="edge">
<title>micronutrient&#45;&gt;iri</title>
<path fill="none" stroke="blue" d="M775.98,-100.93C694.68,-96.78 560.22,-87.64 445.75,-69 394.19,-60.61 336.34,-44.49 297.95,-32.82"/>
<polygon fill="blue" stroke="blue" points="298.73,-29.4 288.14,-29.8 296.67,-36.09 298.73,-29.4"/>
<text text-anchor="middle" x="453.75" y="-57.8" font-family="Times,serif" font-size="14.00">iri</text>
</g>
<!-- type -->
<g id="node5" class="node">
<title>type</title>
<ellipse fill="none" stroke="blue" cx="355.75" cy="-18" rx="38.19" ry="18"/>
<text text-anchor="middle" x="355.75" y="-14.3" font-family="Times,serif" font-size="14.00">string</text>
</g>
<!-- micronutrient&#45;&gt;type -->
<g id="edge4" class="edge">
<title>micronutrient&#45;&gt;type</title>
<path fill="none" stroke="blue" d="M778.98,-98.59C715.7,-93.15 620.61,-83.48 538.75,-69 477.5,-58.17 462.3,-53.94 402.75,-36 399.98,-35.17 397.14,-34.26 394.29,-33.32"/>
<polygon fill="blue" stroke="blue" points="395.26,-29.95 384.66,-30.02 392.99,-36.57 395.26,-29.95"/>
<text text-anchor="middle" x="554.75" y="-57.8" font-family="Times,serif" font-size="14.00">type</text>
</g>
<!-- name -->
<g id="node6" class="node">
<title>name</title>
<ellipse fill="none" stroke="blue" cx="468.75" cy="-18" rx="56.59" ry="18"/>
<text text-anchor="middle" x="468.75" y="-14.3" font-family="Times,serif" font-size="14.00">label type</text>
</g>
<!-- micronutrient&#45;&gt;name -->
<g id="edge5" class="edge">
<title>micronutrient&#45;&gt;name</title>
<path fill="none" stroke="blue" d="M783.37,-96.25C738.76,-90.39 678.82,-81.25 626.75,-69 588.21,-59.93 545.45,-46.17 514.14,-35.37"/>
<polygon fill="blue" stroke="blue" points="514.99,-31.96 504.4,-31.98 512.69,-38.57 514.99,-31.96"/>
<text text-anchor="middle" x="646.75" y="-57.8" font-family="Times,serif" font-size="14.00">name</text>
</g>
<!-- description -->
<g id="node7" class="node">
<title>description</title>
<ellipse fill="none" stroke="blue" cx="618.75" cy="-18" rx="75.29" ry="18"/>
<text text-anchor="middle" x="618.75" y="-14.3" font-family="Times,serif" font-size="14.00">narrative text</text>
</g>
<!-- micronutrient&#45;&gt;description -->
<g id="edge6" class="edge">
<title>micronutrient&#45;&gt;description</title>
<path fill="none" stroke="blue" d="M787.62,-94.61C759.49,-89.13 726.24,-80.89 697.75,-69 680.5,-61.81 662.79,-50.97 648.52,-41.23"/>
<polygon fill="blue" stroke="blue" points="650.32,-38.21 640.12,-35.34 646.3,-43.94 650.32,-38.21"/>
<text text-anchor="middle" x="738.25" y="-57.8" font-family="Times,serif" font-size="14.00">description</text>
</g>
<!-- source -->
<g id="node8" class="node">
<title>source</title>
<ellipse fill="none" stroke="blue" cx="750.75" cy="-18" rx="38.19" ry="18"/>
<text text-anchor="middle" x="750.75" y="-14.3" font-family="Times,serif" font-size="14.00">string</text>
</g>
<!-- micronutrient&#45;&gt;source -->
<g id="edge7" class="edge">
<title>micronutrient&#45;&gt;source</title>
<path fill="none" stroke="blue" d="M823.53,-88C815.01,-82.38 805.71,-75.76 797.75,-69 788.43,-61.09 779.03,-51.48 771.12,-42.82"/>
<polygon fill="blue" stroke="blue" points="773.58,-40.32 764.31,-35.2 768.36,-44.99 773.58,-40.32"/>
<text text-anchor="middle" x="821.75" y="-57.8" font-family="Times,serif" font-size="14.00">source</text>
</g>
<!-- has attribute -->
<g id="node9" class="node">
<title>has attribute</title>
<ellipse fill="none" stroke="blue" cx="858.75" cy="-18" rx="51.99" ry="18"/>
<text text-anchor="middle" x="858.75" y="-14.3" font-family="Times,serif" font-size="14.00">attribute</text>
</g>
<!-- micronutrient&#45;&gt;has attribute -->
<g id="edge8" class="edge">
<title>micronutrient&#45;&gt;has attribute</title>
<path fill="none" stroke="blue" d="M849.22,-86.81C849.15,-77.14 849.41,-64.86 850.75,-54 851.08,-51.31 851.53,-48.52 852.04,-45.75"/>
<polygon fill="blue" stroke="blue" points="855.47,-46.48 854.13,-35.97 848.62,-45.01 855.47,-46.48"/>
<text text-anchor="middle" x="897.75" y="-57.8" font-family="Times,serif" font-size="14.00">has attribute</text>
</g>
<!-- provided by -->
<g id="node10" class="node">
<title>provided by</title>
<ellipse fill="none" stroke="blue" cx="966.75" cy="-18" rx="38.19" ry="18"/>
<text text-anchor="middle" x="966.75" y="-14.3" font-family="Times,serif" font-size="14.00">string</text>
</g>
<!-- micronutrient&#45;&gt;provided by -->
<g id="edge9" class="edge">
<title>micronutrient&#45;&gt;provided by</title>
<path fill="none" stroke="blue" d="M903.73,-92.43C918.39,-87.21 933.35,-79.72 944.75,-69 951.4,-62.74 956.16,-54.12 959.51,-45.79"/>
<polygon fill="blue" stroke="blue" points="962.83,-46.91 962.83,-36.31 956.22,-44.6 962.83,-46.91"/>
<text text-anchor="middle" x="998.25" y="-57.8" font-family="Times,serif" font-size="14.00">provided by</text>
</g>
<!-- category -->
<g id="node11" class="node">
<title>category</title>
<ellipse fill="none" stroke="black" cx="1074.75" cy="-18" rx="51.19" ry="18"/>
<text text-anchor="middle" x="1074.75" y="-14.3" font-family="Times,serif" font-size="14.00">category</text>
</g>
<!-- micronutrient&#45;&gt;category -->
<g id="edge10" class="edge">
<title>micronutrient&#45;&gt;category</title>
<path fill="none" stroke="blue" d="M904.81,-92.54C914.44,-90.62 924.38,-88.71 933.75,-87 982.91,-78.04 1003.37,-97.04 1044.75,-69 1053.33,-63.18 1059.85,-54.02 1064.58,-45.11"/>
<polygon fill="blue" stroke="blue" points="1067.74,-46.62 1068.87,-36.08 1061.42,-43.61 1067.74,-46.62"/>
<text text-anchor="middle" x="1091.25" y="-57.8" font-family="Times,serif" font-size="14.00">category</text>
</g>
<!-- trade name -->
<g id="node13" class="node">
<title>trade name</title>
<ellipse fill="none" stroke="blue" cx="1225.75" cy="-18" rx="81.79" ry="18"/>
<text text-anchor="middle" x="1225.75" y="-14.3" font-family="Times,serif" font-size="14.00">chemical entity</text>
</g>
<!-- micronutrient&#45;&gt;trade name -->
<g id="edge11" class="edge">
<title>micronutrient&#45;&gt;trade name</title>
<path fill="none" stroke="blue" d="M903.37,-92.26C913.43,-90.31 923.88,-88.45 933.75,-87 1018.97,-74.44 1043.96,-92.84 1126.75,-69 1149.38,-62.48 1172.99,-50.78 1191.47,-40.33"/>
<polygon fill="blue" stroke="blue" points="1193.48,-43.21 1200.37,-35.17 1189.97,-37.16 1193.48,-43.21"/>
<text text-anchor="middle" x="1204.75" y="-57.8" font-family="Times,serif" font-size="14.00">trade name</text>
</g>
<!-- available from -->
<g id="node14" class="node">
<title>available from</title>
<ellipse fill="none" stroke="blue" cx="1443.75" cy="-18" rx="118.08" ry="18"/>
<text text-anchor="middle" x="1443.75" y="-14.3" font-family="Times,serif" font-size="14.00">drug_availability_enum</text>
</g>
<!-- micronutrient&#45;&gt;available from -->
<g id="edge12" class="edge">
<title>micronutrient&#45;&gt;available from</title>
<path fill="none" stroke="blue" d="M902.88,-92.06C913.08,-90.1 923.71,-88.29 933.75,-87 1073.26,-69 1110.75,-90.66 1249.75,-69 1295.8,-61.82 1346.81,-48.46 1384.96,-37.35"/>
<polygon fill="blue" stroke="blue" points="1386.26,-40.61 1394.86,-34.43 1384.28,-33.9 1386.26,-40.61"/>
<text text-anchor="middle" x="1372.25" y="-57.8" font-family="Times,serif" font-size="14.00">available from</text>
</g>
<!-- max tolerated dose -->
<g id="node15" class="node">
<title>max tolerated dose</title>
<ellipse fill="none" stroke="blue" cx="1618.75" cy="-18" rx="38.19" ry="18"/>
<text text-anchor="middle" x="1618.75" y="-14.3" font-family="Times,serif" font-size="14.00">string</text>
</g>
<!-- micronutrient&#45;&gt;max tolerated dose -->
<g id="edge13" class="edge">
<title>micronutrient&#45;&gt;max tolerated dose</title>
<path fill="none" stroke="blue" d="M902.41,-91.97C912.75,-90 923.55,-88.21 933.75,-87 1151.92,-61.12 1209.94,-97.83 1427.75,-69 1492.41,-60.44 1508.13,-54.25 1570.75,-36 1573.84,-35.1 1577.03,-34.11 1580.23,-33.07"/>
<polygon fill="blue" stroke="blue" points="1581.37,-36.38 1589.73,-29.87 1579.13,-29.75 1581.37,-36.38"/>
<text text-anchor="middle" x="1576.75" y="-57.8" font-family="Times,serif" font-size="14.00">max tolerated dose</text>
</g>
<!-- is toxic -->
<g id="node16" class="node">
<title>is toxic</title>
<ellipse fill="none" stroke="blue" cx="1725.75" cy="-18" rx="46.59" ry="18"/>
<text text-anchor="middle" x="1725.75" y="-14.3" font-family="Times,serif" font-size="14.00">boolean</text>
</g>
<!-- micronutrient&#45;&gt;is toxic -->
<g id="edge14" class="edge">
<title>micronutrient&#45;&gt;is toxic</title>
<path fill="none" stroke="blue" d="M901.95,-91.97C912.43,-89.97 923.4,-88.17 933.75,-87 1012.82,-78.07 1573.8,-92.79 1649.75,-69 1668.09,-63.25 1686.18,-51.67 1700.1,-41.09"/>
<polygon fill="blue" stroke="blue" points="1702.51,-43.64 1708.19,-34.7 1698.18,-38.15 1702.51,-43.64"/>
<text text-anchor="middle" x="1707.75" y="-57.8" font-family="Times,serif" font-size="14.00">is toxic</text>
</g>
<!-- has chemical role -->
<g id="node17" class="node">
<title>has chemical role</title>
<ellipse fill="none" stroke="blue" cx="1863.75" cy="-18" rx="72.59" ry="18"/>
<text text-anchor="middle" x="1863.75" y="-14.3" font-family="Times,serif" font-size="14.00">chemical role</text>
</g>
<!-- micronutrient&#45;&gt;has chemical role -->
<g id="edge15" class="edge">
<title>micronutrient&#45;&gt;has chemical role</title>
<path fill="none" stroke="blue" d="M901.95,-91.95C912.42,-89.95 923.39,-88.15 933.75,-87 1111.36,-67.2 1562.6,-104.52 1737.75,-69 1767.88,-62.89 1800.08,-49.99 1824.38,-38.83"/>
<polygon fill="blue" stroke="blue" points="1826.05,-41.91 1833.62,-34.49 1823.08,-35.57 1826.05,-41.91"/>
<text text-anchor="middle" x="1850.25" y="-57.8" font-family="Times,serif" font-size="14.00">has chemical role</text>
</g>
<!-- named thing_category -->
<g id="node12" class="node">
<title>named thing_category</title>
<ellipse fill="none" stroke="blue" cx="1012.75" cy="-105" rx="69.59" ry="18"/>
<text text-anchor="middle" x="1012.75" y="-101.3" font-family="Times,serif" font-size="14.00">named thing</text>
</g>
</g>
</svg>
