<?xml version="1.0" encoding="UTF-8" standalone="no"?>
<!DOCTYPE svg PUBLIC "-//W3C//DTD SVG 1.1//EN"
 "http://www.w3.org/Graphics/SVG/1.1/DTD/svg11.dtd">
<!-- Generated by graphviz version 2.40.1 (20161225.0304)
 -->
<!-- Title: %3 Pages: 1 -->
<svg width="1443pt" height="131pt"
 viewBox="0.00 0.00 1443.29 131.00" xmlns="http://www.w3.org/2000/svg" xmlns:xlink="http://www.w3.org/1999/xlink">
<g id="graph0" class="graph" transform="scale(1 1) rotate(0) translate(4 127)">
<title>%3</title>
<polygon fill="#ffffff" stroke="transparent" points="-4,4 -4,-127 1439.2918,-127 1439.2918,4 -4,4"/>
<!-- mortality outcome -->
<g id="node1" class="node">
<title>mortality outcome</title>
<ellipse fill="none" stroke="#000000" cx="653.8973" cy="-105" rx="76.8869" ry="18"/>
<text text-anchor="middle" x="653.8973" y="-101.3" font-family="Times,serif" font-size="14.00" fill="#000000">mortality outcome</text>
</g>
<!-- death -->
<g id="node2" class="node">
<title>death</title>
<ellipse fill="none" stroke="#000000" cx="29.8973" cy="-18" rx="29.795" ry="18"/>
<text text-anchor="middle" x="29.8973" y="-14.3" font-family="Times,serif" font-size="14.00" fill="#000000">death</text>
</g>
<!-- mortality outcome&#45;&gt;death -->
<g id="edge1" class="edge">
<title>mortality outcome&#45;&gt;death</title>
<path fill="none" stroke="#000000" d="M577.5227,-102.8071C486.925,-99.3167 331.5745,-90.5276 199.8973,-69 140.2174,-59.2431 124.8333,-56.3762 67.8973,-36 66.0416,-35.3359 64.1546,-34.6116 62.2636,-33.8473"/>
<polygon fill="#000000" stroke="#000000" points="63.468,-30.5546 52.9012,-29.7847 60.6816,-36.9762 63.468,-30.5546"/>
<text text-anchor="middle" x="210.8973" y="-57.8" font-family="Times,serif" font-size="14.00" fill="#000000">is_a</text>
</g>
<!-- outcome -->
<g id="node3" class="node">
<title>outcome</title>
<ellipse fill="none" stroke="#000000" cx="118.8973" cy="-18" rx="41.6928" ry="18"/>
<text text-anchor="middle" x="118.8973" y="-14.3" font-family="Times,serif" font-size="14.00" fill="#000000">outcome</text>
</g>
<!-- mortality outcome&#45;&gt;outcome -->
<g id="edge2" class="edge">
<title>mortality outcome&#45;&gt;outcome</title>
<path fill="none" stroke="#000000" d="M578.283,-101.5297C503.4975,-97.1782 386.0434,-87.8671 285.8973,-69 241.9722,-60.7247 193.2466,-45.0637 159.8214,-33.2699"/>
<polygon fill="#000000" stroke="#000000" points="160.9842,-29.9687 150.3896,-29.9012 158.6297,-36.5609 160.9842,-29.9687"/>
<text text-anchor="middle" x="297.8973" y="-57.8" font-family="Times,serif" font-size="14.00" fill="#000000">uses</text>
</g>
<!-- id -->
<g id="node4" class="node">
<title>id</title>
<ellipse fill="none" stroke="#0000ff" cx="208.8973" cy="-18" rx="30.5947" ry="18"/>
<text text-anchor="middle" x="208.8973" y="-14.3" font-family="Times,serif" font-size="14.00" fill="#000000">string</text>
</g>
<!-- mortality outcome&#45;&gt;id -->
<g id="edge3" class="edge">
<title>mortality outcome&#45;&gt;id</title>
<path fill="none" stroke="#0000ff" d="M580.9018,-99.4582C498.4977,-91.635 361.2753,-73.8438 248.8973,-36 246.6443,-35.2413 244.3459,-34.3999 242.0467,-33.5074"/>
<polygon fill="#0000ff" stroke="#0000ff" points="243.2827,-30.2309 232.7049,-29.6304 240.5995,-36.6963 243.2827,-30.2309"/>
<text text-anchor="middle" x="374.3973" y="-57.8" font-family="Times,serif" font-size="14.00" fill="#000000">id</text>
</g>
<!-- iri -->
<g id="node5" class="node">
<title>iri</title>
<ellipse fill="none" stroke="#0000ff" cx="293.8973" cy="-18" rx="36.2938" ry="18"/>
<text text-anchor="middle" x="293.8973" y="-14.3" font-family="Times,serif" font-size="14.00" fill="#000000">iri type</text>
</g>
<!-- mortality outcome&#45;&gt;iri -->
<g id="edge4" class="edge">
<title>mortality outcome&#45;&gt;iri</title>
<path fill="none" stroke="#0000ff" d="M589.7577,-95.1253C525.3249,-84.2394 423.6963,-64.4199 338.8973,-36 336.3668,-35.1519 333.7725,-34.2376 331.169,-33.2866"/>
<polygon fill="#0000ff" stroke="#0000ff" points="332.3906,-30.0067 321.7992,-29.7344 329.9091,-36.5521 332.3906,-30.0067"/>
<text text-anchor="middle" x="456.3973" y="-57.8" font-family="Times,serif" font-size="14.00" fill="#000000">iri</text>
</g>
<!-- type -->
<g id="node6" class="node">
<title>type</title>
<ellipse fill="none" stroke="#0000ff" cx="378.8973" cy="-18" rx="30.5947" ry="18"/>
<text text-anchor="middle" x="378.8973" y="-14.3" font-family="Times,serif" font-size="14.00" fill="#000000">string</text>
</g>
<!-- mortality outcome&#45;&gt;type -->
<g id="edge5" class="edge">
<title>mortality outcome&#45;&gt;type</title>
<path fill="none" stroke="#0000ff" d="M600.8673,-91.9213C552.7317,-79.4654 480.128,-59.2105 418.8973,-36 416.6743,-35.1573 414.3987,-34.2525 412.1162,-33.3132"/>
<polygon fill="#0000ff" stroke="#0000ff" points="413.3832,-30.0484 402.8129,-29.3287 410.6273,-36.4831 413.3832,-30.0484"/>
<text text-anchor="middle" x="526.8973" y="-57.8" font-family="Times,serif" font-size="14.00" fill="#000000">type</text>
</g>
<!-- name -->
<g id="node7" class="node">
<title>name</title>
<ellipse fill="none" stroke="#0000ff" cx="472.8973" cy="-18" rx="45.4919" ry="18"/>
<text text-anchor="middle" x="472.8973" y="-14.3" font-family="Times,serif" font-size="14.00" fill="#000000">label type</text>
</g>
<!-- mortality outcome&#45;&gt;name -->
<g id="edge6" class="edge">
<title>mortality outcome&#45;&gt;name</title>
<path fill="none" stroke="#0000ff" d="M619.8526,-88.636C588.9088,-73.7624 543.3035,-51.8416 511.1207,-36.3725"/>
<polygon fill="#0000ff" stroke="#0000ff" points="512.5387,-33.1709 502.0095,-31.9931 509.5062,-39.4799 512.5387,-33.1709"/>
<text text-anchor="middle" x="590.3973" y="-57.8" font-family="Times,serif" font-size="14.00" fill="#000000">name</text>
</g>
<!-- description -->
<g id="node8" class="node">
<title>description</title>
<ellipse fill="none" stroke="#0000ff" cx="593.8973" cy="-18" rx="57.6901" ry="18"/>
<text text-anchor="middle" x="593.8973" y="-14.3" font-family="Times,serif" font-size="14.00" fill="#000000">narrative text</text>
</g>
<!-- mortality outcome&#45;&gt;description -->
<g id="edge7" class="edge">
<title>mortality outcome&#45;&gt;description</title>
<path fill="none" stroke="#0000ff" d="M641.4653,-86.9735C632.9618,-74.6435 621.5508,-58.0975 612.0367,-44.3021"/>
<polygon fill="#0000ff" stroke="#0000ff" points="614.6668,-41.9508 606.1082,-35.7057 608.9043,-45.9249 614.6668,-41.9508"/>
<text text-anchor="middle" x="658.3973" y="-57.8" font-family="Times,serif" font-size="14.00" fill="#000000">description</text>
</g>
<!-- source -->
<g id="node9" class="node">
<title>source</title>
<ellipse fill="none" stroke="#0000ff" cx="714.8973" cy="-18" rx="45.4919" ry="18"/>
<text text-anchor="middle" x="714.8973" y="-14.3" font-family="Times,serif" font-size="14.00" fill="#000000">label type</text>
</g>
<!-- mortality outcome&#45;&gt;source -->
<g id="edge8" class="edge">
<title>mortality outcome&#45;&gt;source</title>
<path fill="none" stroke="#0000ff" d="M676.1847,-87.3861C682.1371,-81.9385 688.2102,-75.6168 692.8973,-69 697.9696,-61.8395 702.2157,-53.3254 705.582,-45.3248"/>
<polygon fill="#0000ff" stroke="#0000ff" points="708.8672,-46.534 709.2483,-35.9461 702.3476,-43.9854 708.8672,-46.534"/>
<text text-anchor="middle" x="719.8973" y="-57.8" font-family="Times,serif" font-size="14.00" fill="#000000">source</text>
</g>
<!-- provided by -->
<g id="node10" class="node">
<title>provided by</title>
<ellipse fill="none" stroke="#0000ff" cx="807.8973" cy="-18" rx="29.795" ry="18"/>
<text text-anchor="middle" x="807.8973" y="-14.3" font-family="Times,serif" font-size="14.00" fill="#000000">agent</text>
</g>
<!-- mortality outcome&#45;&gt;provided by -->
<g id="edge9" class="edge">
<title>mortality outcome&#45;&gt;provided by</title>
<path fill="none" stroke="#0000ff" d="M697.0689,-90.0228C711.7036,-84.2511 727.884,-77.0814 741.8973,-69 756.4721,-60.5949 771.4123,-49.3139 783.384,-39.4988"/>
<polygon fill="#0000ff" stroke="#0000ff" points="785.736,-42.0944 791.1568,-32.9914 781.2424,-36.7271 785.736,-42.0944"/>
<text text-anchor="middle" x="796.8973" y="-57.8" font-family="Times,serif" font-size="14.00" fill="#000000">provided by</text>
</g>
<!-- has attribute -->
<g id="node11" class="node">
<title>has attribute</title>
<ellipse fill="none" stroke="#0000ff" cx="895.8973" cy="-18" rx="40.0939" ry="18"/>
<text text-anchor="middle" x="895.8973" y="-14.3" font-family="Times,serif" font-size="14.00" fill="#000000">attribute</text>
</g>
<!-- mortality outcome&#45;&gt;has attribute -->
<g id="edge10" class="edge">
<title>mortality outcome&#45;&gt;has attribute</title>
<path fill="none" stroke="#0000ff" d="M711.2315,-92.8573C720.7984,-90.8721 730.6242,-88.8582 739.8973,-87 781.6051,-78.6426 795.39,-87.0711 833.8973,-69 848.1116,-62.3294 861.8221,-51.6533 872.7197,-41.7889"/>
<polygon fill="#0000ff" stroke="#0000ff" points="875.2421,-44.2212 880.1246,-34.8184 870.4441,-39.1242 875.2421,-44.2212"/>
<text text-anchor="middle" x="890.3973" y="-57.8" font-family="Times,serif" font-size="14.00" fill="#000000">has attribute</text>
</g>
<!-- category -->
<g id="node12" class="node">
<title>category</title>
<ellipse fill="none" stroke="#000000" cx="994.8973" cy="-18" rx="40.8928" ry="18"/>
<text text-anchor="middle" x="994.8973" y="-14.3" font-family="Times,serif" font-size="14.00" fill="#000000">category</text>
</g>
<!-- mortality outcome&#45;&gt;category -->
<g id="edge11" class="edge">
<title>mortality outcome&#45;&gt;category</title>
<path fill="none" stroke="#0000ff" d="M709.2481,-92.4732C719.4067,-90.4428 729.944,-88.5133 739.8973,-87 822.8813,-74.3828 849.7326,-99.5909 927.8973,-69 943.714,-62.8099 958.9747,-51.7334 970.9261,-41.4809"/>
<polygon fill="#0000ff" stroke="#0000ff" points="973.5165,-43.8599 978.6377,-34.5849 968.8503,-38.6419 973.5165,-43.8599"/>
<text text-anchor="middle" x="978.3973" y="-57.8" font-family="Times,serif" font-size="14.00" fill="#000000">category</text>
</g>
<!-- has input -->
<g id="node14" class="node">
<title>has input</title>
<ellipse fill="none" stroke="#0000ff" cx="1108.8973" cy="-18" rx="55.4913" ry="18"/>
<text text-anchor="middle" x="1108.8973" y="-14.3" font-family="Times,serif" font-size="14.00" fill="#000000">named thing</text>
</g>
<!-- mortality outcome&#45;&gt;has input -->
<g id="edge12" class="edge">
<title>mortality outcome&#45;&gt;has input</title>
<path fill="none" stroke="#0000ff" d="M708.7532,-92.3349C719.0571,-90.2931 729.7728,-88.3952 739.8973,-87 857.2806,-70.8237 891.4996,-99.8812 1005.8973,-69 1030.0117,-62.4904 1055.17,-50.1532 1074.5858,-39.2438"/>
<polygon fill="#0000ff" stroke="#0000ff" points="1076.4317,-42.2198 1083.3515,-34.1969 1072.9389,-36.1534 1076.4317,-42.2198"/>
<text text-anchor="middle" x="1069.8973" y="-57.8" font-family="Times,serif" font-size="14.00" fill="#000000">has input</text>
</g>
<!-- has output -->
<g id="node15" class="node">
<title>has output</title>
<ellipse fill="none" stroke="#0000ff" cx="1236.8973" cy="-18" rx="55.4913" ry="18"/>
<text text-anchor="middle" x="1236.8973" y="-14.3" font-family="Times,serif" font-size="14.00" fill="#000000">named thing</text>
</g>
<!-- mortality outcome&#45;&gt;has output -->
<g id="edge13" class="edge">
<title>mortality outcome&#45;&gt;has output</title>
<path fill="none" stroke="#0000ff" d="M708.2727,-92.2811C718.7195,-90.218 729.6097,-88.3263 739.8973,-87 898.3421,-66.5737 942.3912,-101.0591 1098.8973,-69 1132.5487,-62.1068 1168.928,-48.3815 1195.8822,-36.9046"/>
<polygon fill="#0000ff" stroke="#0000ff" points="1197.5806,-39.9831 1205.3638,-32.7948 1194.7967,-33.5605 1197.5806,-39.9831"/>
<text text-anchor="middle" x="1178.3973" y="-57.8" font-family="Times,serif" font-size="14.00" fill="#000000">has output</text>
</g>
<!-- enabled by -->
<g id="node16" class="node">
<title>enabled by</title>
<ellipse fill="none" stroke="#0000ff" cx="1372.8973" cy="-18" rx="62.2891" ry="18"/>
<text text-anchor="middle" x="1372.8973" y="-14.3" font-family="Times,serif" font-size="14.00" fill="#000000">physical entity</text>
</g>
<!-- mortality outcome&#45;&gt;enabled by -->
<g id="edge14" class="edge">
<title>mortality outcome&#45;&gt;enabled by</title>
<path fill="none" stroke="#0000ff" d="M708.2602,-92.1821C718.7082,-90.128 729.602,-88.265 739.8973,-87 947.8198,-61.4518 1004.4878,-104.7707 1210.8973,-69 1250.9175,-62.0645 1294.774,-47.8265 1326.751,-36.1527"/>
<polygon fill="#0000ff" stroke="#0000ff" points="1328.1154,-39.3798 1336.2761,-32.6231 1325.683,-32.8159 1328.1154,-39.3798"/>
<text text-anchor="middle" x="1299.8973" y="-57.8" font-family="Times,serif" font-size="14.00" fill="#000000">enabled by</text>
</g>
<!-- named thing_category -->
<g id="node13" class="node">
<title>named thing_category</title>
<ellipse fill="none" stroke="#0000ff" cx="803.8973" cy="-105" rx="55.4913" ry="18"/>
<text text-anchor="middle" x="803.8973" y="-101.3" font-family="Times,serif" font-size="14.00" fill="#000000">named thing</text>
</g>
</g>
</svg>
