<?xml version="1.0" encoding="UTF-8" standalone="no"?>
<!DOCTYPE svg PUBLIC "-//W3C//DTD SVG 1.1//EN"
 "http://www.w3.org/Graphics/SVG/1.1/DTD/svg11.dtd">
<!-- Generated by graphviz version 2.43.0 (0)
 -->
<!-- Title: %3 Pages: 1 -->
<svg width="1910pt" height="131pt"
 viewBox="0.00 0.00 1909.69 131.00" xmlns="http://www.w3.org/2000/svg" xmlns:xlink="http://www.w3.org/1999/xlink">
<g id="graph0" class="graph" transform="scale(1 1) rotate(0) translate(4 127)">
<title>%3</title>
<polygon fill="white" stroke="transparent" points="-4,4 -4,-127 1905.69,-127 1905.69,4 -4,4"/>
<!-- nutrient -->
<g id="node1" class="node">
<title>nutrient</title>
<ellipse fill="none" stroke="black" cx="889.89" cy="-105" rx="48.99" ry="18"/>
<text text-anchor="middle" x="889.89" y="-101.3" font-family="Times,serif" font-size="14.00">nutrient</text>
</g>
<!-- chemical entity -->
<g id="node2" class="node">
<title>chemical entity</title>
<ellipse fill="none" stroke="black" cx="81.89" cy="-18" rx="81.79" ry="18"/>
<text text-anchor="middle" x="81.89" y="-14.3" font-family="Times,serif" font-size="14.00">chemical entity</text>
</g>
<!-- nutrient&#45;&gt;chemical entity -->
<g id="edge1" class="edge">
<title>nutrient&#45;&gt;chemical entity</title>
<path fill="none" stroke="black" d="M840.96,-103.66C740.55,-102.38 504.13,-96.43 307.89,-69 250.91,-61.03 186.98,-46.34 141.69,-34.93"/>
<polygon fill="black" stroke="black" points="142.3,-31.48 131.75,-32.41 140.58,-38.26 142.3,-31.48"/>
<text text-anchor="middle" x="321.89" y="-57.8" font-family="Times,serif" font-size="14.00">is_a</text>
</g>
<!-- id -->
<g id="node3" class="node">
<title>id</title>
<ellipse fill="none" stroke="blue" cx="219.89" cy="-18" rx="38.19" ry="18"/>
<text text-anchor="middle" x="219.89" y="-14.3" font-family="Times,serif" font-size="14.00">string</text>
</g>
<!-- nutrient&#45;&gt;id -->
<g id="edge2" class="edge">
<title>nutrient&#45;&gt;id</title>
<path fill="none" stroke="blue" d="M841.45,-102.37C757.09,-99.07 577.85,-90.06 427.89,-69 355.99,-58.9 337.83,-55.5 267.89,-36 264.78,-35.13 261.59,-34.17 258.39,-33.15"/>
<polygon fill="blue" stroke="blue" points="259.47,-29.82 248.88,-29.98 257.26,-36.46 259.47,-29.82"/>
<text text-anchor="middle" x="434.89" y="-57.8" font-family="Times,serif" font-size="14.00">id</text>
</g>
<!-- iri -->
<g id="node4" class="node">
<title>iri</title>
<ellipse fill="none" stroke="blue" cx="320.89" cy="-18" rx="44.39" ry="18"/>
<text text-anchor="middle" x="320.89" y="-14.3" font-family="Times,serif" font-size="14.00">iri type</text>
</g>
<!-- nutrient&#45;&gt;iri -->
<g id="edge3" class="edge">
<title>nutrient&#45;&gt;iri</title>
<path fill="none" stroke="blue" d="M842.24,-101.16C772.8,-96.63 639.88,-86.43 527.89,-69 459.16,-58.3 442.14,-53.8 374.89,-36 371.31,-35.05 367.61,-34.01 363.9,-32.93"/>
<polygon fill="blue" stroke="blue" points="364.75,-29.53 354.17,-30.01 362.74,-36.24 364.75,-29.53"/>
<text text-anchor="middle" x="535.89" y="-57.8" font-family="Times,serif" font-size="14.00">iri</text>
</g>
<!-- type -->
<g id="node5" class="node">
<title>type</title>
<ellipse fill="none" stroke="blue" cx="421.89" cy="-18" rx="38.19" ry="18"/>
<text text-anchor="middle" x="421.89" y="-14.3" font-family="Times,serif" font-size="14.00">string</text>
</g>
<!-- nutrient&#45;&gt;type -->
<g id="edge4" class="edge">
<title>nutrient&#45;&gt;type</title>
<path fill="none" stroke="blue" d="M842.61,-100.34C763.77,-93.37 601.09,-75.23 468.89,-36 465.99,-35.14 463.01,-34.2 460.02,-33.21"/>
<polygon fill="blue" stroke="blue" points="461.14,-29.9 450.55,-29.97 458.87,-36.52 461.14,-29.9"/>
<text text-anchor="middle" x="621.89" y="-57.8" font-family="Times,serif" font-size="14.00">type</text>
</g>
<!-- name -->
<g id="node6" class="node">
<title>name</title>
<ellipse fill="none" stroke="blue" cx="534.89" cy="-18" rx="56.59" ry="18"/>
<text text-anchor="middle" x="534.89" y="-14.3" font-family="Times,serif" font-size="14.00">label type</text>
</g>
<!-- nutrient&#45;&gt;name -->
<g id="edge5" class="edge">
<title>nutrient&#45;&gt;name</title>
<path fill="none" stroke="blue" d="M845.69,-97.22C807.2,-90.98 750.03,-80.91 700.89,-69 660.47,-59.2 615.31,-45.41 582.31,-34.79"/>
<polygon fill="blue" stroke="blue" points="583.07,-31.36 572.48,-31.61 580.91,-38.02 583.07,-31.36"/>
<text text-anchor="middle" x="720.89" y="-57.8" font-family="Times,serif" font-size="14.00">name</text>
</g>
<!-- description -->
<g id="node7" class="node">
<title>description</title>
<ellipse fill="none" stroke="blue" cx="684.89" cy="-18" rx="75.29" ry="18"/>
<text text-anchor="middle" x="684.89" y="-14.3" font-family="Times,serif" font-size="14.00">narrative text</text>
</g>
<!-- nutrient&#45;&gt;description -->
<g id="edge6" class="edge">
<title>nutrient&#45;&gt;description</title>
<path fill="none" stroke="blue" d="M850.57,-94.25C828.01,-88.12 799.39,-79.39 774.89,-69 755.87,-60.93 735.68,-49.95 719.25,-40.34"/>
<polygon fill="blue" stroke="blue" points="720.93,-37.27 710.54,-35.17 717.35,-43.28 720.93,-37.27"/>
<text text-anchor="middle" x="815.39" y="-57.8" font-family="Times,serif" font-size="14.00">description</text>
</g>
<!-- source -->
<g id="node8" class="node">
<title>source</title>
<ellipse fill="none" stroke="blue" cx="834.89" cy="-18" rx="56.59" ry="18"/>
<text text-anchor="middle" x="834.89" y="-14.3" font-family="Times,serif" font-size="14.00">label type</text>
</g>
<!-- nutrient&#45;&gt;source -->
<g id="edge7" class="edge">
<title>nutrient&#45;&gt;source</title>
<path fill="none" stroke="blue" d="M879.03,-87.21C871.12,-74.98 860.27,-58.21 851.3,-44.36"/>
<polygon fill="blue" stroke="blue" points="854.11,-42.25 845.74,-35.76 848.23,-46.06 854.11,-42.25"/>
<text text-anchor="middle" x="889.89" y="-57.8" font-family="Times,serif" font-size="14.00">source</text>
</g>
<!-- provided by -->
<g id="node9" class="node">
<title>provided by</title>
<ellipse fill="none" stroke="blue" cx="946.89" cy="-18" rx="37.09" ry="18"/>
<text text-anchor="middle" x="946.89" y="-14.3" font-family="Times,serif" font-size="14.00">agent</text>
</g>
<!-- nutrient&#45;&gt;provided by -->
<g id="edge8" class="edge">
<title>nutrient&#45;&gt;provided by</title>
<path fill="none" stroke="blue" d="M903.8,-87.65C908.47,-81.9 913.59,-75.29 917.89,-69 923.19,-61.26 928.48,-52.51 933.07,-44.52"/>
<polygon fill="blue" stroke="blue" points="936.24,-46.02 938.09,-35.59 930.14,-42.59 936.24,-46.02"/>
<text text-anchor="middle" x="970.39" y="-57.8" font-family="Times,serif" font-size="14.00">provided by</text>
</g>
<!-- has attribute -->
<g id="node10" class="node">
<title>has attribute</title>
<ellipse fill="none" stroke="blue" cx="1053.89" cy="-18" rx="51.99" ry="18"/>
<text text-anchor="middle" x="1053.89" y="-14.3" font-family="Times,serif" font-size="14.00">attribute</text>
</g>
<!-- nutrient&#45;&gt;has attribute -->
<g id="edge9" class="edge">
<title>nutrient&#45;&gt;has attribute</title>
<path fill="none" stroke="blue" d="M926.32,-92.91C933.14,-90.9 940.23,-88.85 946.89,-87 977.85,-78.41 990.25,-86.94 1016.89,-69 1026.16,-62.76 1033.99,-53.39 1040.02,-44.44"/>
<polygon fill="blue" stroke="blue" points="1043.1,-46.11 1045.43,-35.77 1037.17,-42.4 1043.1,-46.11"/>
<text text-anchor="middle" x="1079.89" y="-57.8" font-family="Times,serif" font-size="14.00">has attribute</text>
</g>
<!-- category -->
<g id="node11" class="node">
<title>category</title>
<ellipse fill="none" stroke="black" cx="1174.89" cy="-18" rx="51.19" ry="18"/>
<text text-anchor="middle" x="1174.89" y="-14.3" font-family="Times,serif" font-size="14.00">category</text>
</g>
<!-- nutrient&#45;&gt;category -->
<g id="edge10" class="edge">
<title>nutrient&#45;&gt;category</title>
<path fill="none" stroke="blue" d="M924.9,-92.41C932.11,-90.35 939.7,-88.41 946.89,-87 1027.52,-71.18 1057.76,-106.46 1130.89,-69 1141.92,-63.35 1151.43,-53.67 1158.76,-44.32"/>
<polygon fill="blue" stroke="blue" points="1161.79,-46.09 1164.85,-35.95 1156.14,-41.97 1161.79,-46.09"/>
<text text-anchor="middle" x="1181.39" y="-57.8" font-family="Times,serif" font-size="14.00">category</text>
</g>
<!-- trade name -->
<g id="node13" class="node">
<title>trade name</title>
<ellipse fill="none" stroke="blue" cx="1325.89" cy="-18" rx="81.79" ry="18"/>
<text text-anchor="middle" x="1325.89" y="-14.3" font-family="Times,serif" font-size="14.00">chemical entity</text>
</g>
<!-- nutrient&#45;&gt;trade name -->
<g id="edge11" class="edge">
<title>nutrient&#45;&gt;trade name</title>
<path fill="none" stroke="blue" d="M924.56,-92.32C931.87,-90.24 939.58,-88.32 946.89,-87 1065.25,-65.68 1100.32,-98.56 1216.89,-69 1242.09,-62.61 1268.64,-50.56 1289.23,-39.89"/>
<polygon fill="blue" stroke="blue" points="1291.05,-42.88 1298.25,-35.11 1287.77,-36.7 1291.05,-42.88"/>
<text text-anchor="middle" x="1298.89" y="-57.8" font-family="Times,serif" font-size="14.00">trade name</text>
</g>
<!-- available from -->
<g id="node14" class="node">
<title>available from</title>
<ellipse fill="none" stroke="blue" cx="1543.89" cy="-18" rx="118.08" ry="18"/>
<text text-anchor="middle" x="1543.89" y="-14.3" font-family="Times,serif" font-size="14.00">drug_availability_enum</text>
</g>
<!-- nutrient&#45;&gt;available from -->
<g id="edge12" class="edge">
<title>nutrient&#45;&gt;available from</title>
<path fill="none" stroke="blue" d="M924.54,-92.2C931.85,-90.13 939.56,-88.24 946.89,-87 1121.04,-57.54 1169.12,-94.55 1343.89,-69 1391.72,-62.01 1444.75,-48.48 1484.18,-37.25"/>
<polygon fill="blue" stroke="blue" points="1485.26,-40.59 1493.9,-34.46 1483.32,-33.86 1485.26,-40.59"/>
<text text-anchor="middle" x="1468.39" y="-57.8" font-family="Times,serif" font-size="14.00">available from</text>
</g>
<!-- max tolerated dose -->
<g id="node15" class="node">
<title>max tolerated dose</title>
<ellipse fill="none" stroke="blue" cx="1718.89" cy="-18" rx="38.19" ry="18"/>
<text text-anchor="middle" x="1718.89" y="-14.3" font-family="Times,serif" font-size="14.00">string</text>
</g>
<!-- nutrient&#45;&gt;max tolerated dose -->
<g id="edge13" class="edge">
<title>nutrient&#45;&gt;max tolerated dose</title>
<path fill="none" stroke="blue" d="M924.22,-92.21C931.62,-90.1 939.45,-88.2 946.89,-87 1200.16,-45.99 1269.36,-101.24 1523.89,-69 1590.32,-60.58 1606.55,-54.54 1670.89,-36 1673.99,-35.11 1677.19,-34.12 1680.38,-33.09"/>
<polygon fill="blue" stroke="blue" points="1681.52,-36.4 1689.88,-29.9 1679.29,-29.77 1681.52,-36.4"/>
<text text-anchor="middle" x="1674.89" y="-57.8" font-family="Times,serif" font-size="14.00">max tolerated dose</text>
</g>
<!-- is toxic -->
<g id="node16" class="node">
<title>is toxic</title>
<ellipse fill="none" stroke="blue" cx="1854.89" cy="-18" rx="46.59" ry="18"/>
<text text-anchor="middle" x="1854.89" y="-14.3" font-family="Times,serif" font-size="14.00">boolean</text>
</g>
<!-- nutrient&#45;&gt;is toxic -->
<g id="edge14" class="edge">
<title>nutrient&#45;&gt;is toxic</title>
<path fill="none" stroke="blue" d="M924.22,-92.16C931.61,-90.06 939.45,-88.17 946.89,-87 1122.77,-59.31 1574.53,-109.56 1747.89,-69 1774.04,-62.88 1801.43,-49.94 1821.95,-38.76"/>
<polygon fill="blue" stroke="blue" points="1823.85,-41.71 1830.87,-33.77 1820.44,-35.6 1823.85,-41.71"/>
<text text-anchor="middle" x="1815.89" y="-57.8" font-family="Times,serif" font-size="14.00">is toxic</text>
</g>
<!-- named thing_category -->
<g id="node12" class="node">
<title>named thing_category</title>
<ellipse fill="none" stroke="blue" cx="1025.89" cy="-105" rx="69.59" ry="18"/>
<text text-anchor="middle" x="1025.89" y="-101.3" font-family="Times,serif" font-size="14.00">named thing</text>
</g>
</g>
</svg>
