<?xml version="1.0" encoding="UTF-8" standalone="no"?>
<!DOCTYPE svg PUBLIC "-//W3C//DTD SVG 1.1//EN"
 "http://www.w3.org/Graphics/SVG/1.1/DTD/svg11.dtd">
<!-- Generated by graphviz version 2.44.1 (20200629.0846)
 -->
<!-- Pages: 1 -->
<svg width="1265pt" height="131pt"
 viewBox="0.00 0.00 1265.24 131.00" xmlns="http://www.w3.org/2000/svg" xmlns:xlink="http://www.w3.org/1999/xlink">
<g id="graph0" class="graph" transform="scale(1 1) rotate(0) translate(4 127)">
<polygon fill="white" stroke="transparent" points="-4,4 -4,-127 1261.24,-127 1261.24,4 -4,4"/>
<!-- nutrient -->
<g id="node1" class="node">
<title>nutrient</title>
<ellipse fill="none" stroke="black" cx="630.89" cy="-105" rx="38.19" ry="18"/>
<text text-anchor="middle" x="630.89" y="-101.3" font-family="Times,serif" font-size="14.00">nutrient</text>
</g>
<!-- food component -->
<g id="node2" class="node">
<title>food component</title>
<ellipse fill="none" stroke="black" cx="68.89" cy="-18" rx="68.79" ry="18"/>
<text text-anchor="middle" x="68.89" y="-14.3" font-family="Times,serif" font-size="14.00">food component</text>
</g>
<!-- nutrient&#45;&gt;food component -->
<g id="edge1" class="edge">
<title>nutrient&#45;&gt;food component</title>
<path fill="none" stroke="black" d="M592.96,-102.31C526.22,-98.9 383.59,-89.69 264.89,-69 215.88,-60.46 161.09,-46.06 121.93,-34.9"/>
<polygon fill="black" stroke="black" points="122.65,-31.46 112.07,-32.07 120.71,-38.19 122.65,-31.46"/>
<text text-anchor="middle" x="275.89" y="-57.8" font-family="Times,serif" font-size="14.00">is_a</text>
</g>
<!-- id -->
<g id="node3" class="node">
<title>id</title>
<ellipse fill="none" stroke="blue" cx="185.89" cy="-18" rx="30.59" ry="18"/>
<text text-anchor="middle" x="185.89" y="-14.3" font-family="Times,serif" font-size="14.00">string</text>
</g>
<!-- nutrient&#45;&gt;id -->
<g id="edge2" class="edge">
<title>nutrient&#45;&gt;id</title>
<path fill="none" stroke="blue" d="M593.11,-101.56C520.36,-96.01 356.48,-79.39 225.89,-36 223.51,-35.21 221.08,-34.34 218.64,-33.42"/>
<polygon fill="blue" stroke="blue" points="219.92,-30.16 209.34,-29.71 217.33,-36.67 219.92,-30.16"/>
<text text-anchor="middle" x="351.39" y="-57.8" font-family="Times,serif" font-size="14.00">id</text>
</g>
<!-- iri -->
<g id="node4" class="node">
<title>iri</title>
<ellipse fill="none" stroke="blue" cx="270.89" cy="-18" rx="36.29" ry="18"/>
<text text-anchor="middle" x="270.89" y="-14.3" font-family="Times,serif" font-size="14.00">iri type</text>
</g>
<!-- nutrient&#45;&gt;iri -->
<g id="edge3" class="edge">
<title>nutrient&#45;&gt;iri</title>
<path fill="none" stroke="blue" d="M594.95,-98.48C555.86,-92.26 491.64,-81.38 436.89,-69 382.52,-56.71 368.92,-53.2 315.89,-36 313.3,-35.16 310.64,-34.26 307.97,-33.32"/>
<polygon fill="blue" stroke="blue" points="308.95,-29.95 298.35,-29.85 306.57,-36.54 308.95,-29.95"/>
<text text-anchor="middle" x="443.39" y="-57.8" font-family="Times,serif" font-size="14.00">iri</text>
</g>
<!-- type -->
<g id="node5" class="node">
<title>type</title>
<ellipse fill="none" stroke="blue" cx="355.89" cy="-18" rx="30.59" ry="18"/>
<text text-anchor="middle" x="355.89" y="-14.3" font-family="Times,serif" font-size="14.00">string</text>
</g>
<!-- nutrient&#45;&gt;type -->
<g id="edge4" class="edge">
<title>nutrient&#45;&gt;type</title>
<path fill="none" stroke="blue" d="M597.34,-95.87C551.31,-84.37 466.27,-61.83 395.89,-36 393.68,-35.19 391.42,-34.32 389.14,-33.43"/>
<polygon fill="blue" stroke="blue" points="390.43,-30.17 379.85,-29.64 387.79,-36.66 390.43,-30.17"/>
<text text-anchor="middle" x="503.89" y="-57.8" font-family="Times,serif" font-size="14.00">type</text>
</g>
<!-- name -->
<g id="node6" class="node">
<title>name</title>
<ellipse fill="none" stroke="blue" cx="449.89" cy="-18" rx="45.49" ry="18"/>
<text text-anchor="middle" x="449.89" y="-14.3" font-family="Times,serif" font-size="14.00">label type</text>
</g>
<!-- nutrient&#45;&gt;name -->
<g id="edge5" class="edge">
<title>nutrient&#45;&gt;name</title>
<path fill="none" stroke="blue" d="M604.57,-91.64C573.75,-77.16 522.44,-53.07 487.44,-36.63"/>
<polygon fill="blue" stroke="blue" points="488.57,-33.3 478.03,-32.21 485.6,-39.63 488.57,-33.3"/>
<text text-anchor="middle" x="567.39" y="-57.8" font-family="Times,serif" font-size="14.00">name</text>
</g>
<!-- description -->
<g id="node7" class="node">
<title>description</title>
<ellipse fill="none" stroke="blue" cx="570.89" cy="-18" rx="57.69" ry="18"/>
<text text-anchor="middle" x="570.89" y="-14.3" font-family="Times,serif" font-size="14.00">narrative text</text>
</g>
<!-- nutrient&#45;&gt;description -->
<g id="edge6" class="edge">
<title>nutrient&#45;&gt;description</title>
<path fill="none" stroke="blue" d="M619.33,-87.61C610.58,-75.23 598.43,-58.01 588.49,-43.92"/>
<polygon fill="blue" stroke="blue" points="591.26,-41.78 582.63,-35.63 585.54,-45.82 591.26,-41.78"/>
<text text-anchor="middle" x="635.39" y="-57.8" font-family="Times,serif" font-size="14.00">description</text>
</g>
<!-- source -->
<g id="node8" class="node">
<title>source</title>
<ellipse fill="none" stroke="blue" cx="691.89" cy="-18" rx="45.49" ry="18"/>
<text text-anchor="middle" x="691.89" y="-14.3" font-family="Times,serif" font-size="14.00">label type</text>
</g>
<!-- nutrient&#45;&gt;source -->
<g id="edge7" class="edge">
<title>nutrient&#45;&gt;source</title>
<path fill="none" stroke="blue" d="M650.34,-89.4C657.15,-83.6 664.45,-76.51 669.89,-69 675.04,-61.9 679.33,-53.41 682.72,-45.46"/>
<polygon fill="blue" stroke="blue" points="685.98,-46.74 686.41,-36.16 679.47,-44.17 685.98,-46.74"/>
<text text-anchor="middle" x="696.89" y="-57.8" font-family="Times,serif" font-size="14.00">source</text>
</g>
<!-- provided by -->
<g id="node9" class="node">
<title>provided by</title>
<ellipse fill="none" stroke="blue" cx="784.89" cy="-18" rx="29.8" ry="18"/>
<text text-anchor="middle" x="784.89" y="-14.3" font-family="Times,serif" font-size="14.00">agent</text>
</g>
<!-- nutrient&#45;&gt;provided by -->
<g id="edge8" class="edge">
<title>nutrient&#45;&gt;provided by</title>
<path fill="none" stroke="blue" d="M660.32,-93.27C681.66,-85.31 708.51,-74.85 718.89,-69 733.65,-60.68 748.8,-49.43 760.86,-39.71"/>
<polygon fill="blue" stroke="blue" points="763.17,-42.33 768.67,-33.27 758.73,-36.93 763.17,-42.33"/>
<text text-anchor="middle" x="774.89" y="-57.8" font-family="Times,serif" font-size="14.00">provided by</text>
</g>
<!-- has attribute -->
<g id="node10" class="node">
<title>has attribute</title>
<ellipse fill="none" stroke="blue" cx="872.89" cy="-18" rx="40.09" ry="18"/>
<text text-anchor="middle" x="872.89" y="-14.3" font-family="Times,serif" font-size="14.00">attribute</text>
</g>
<!-- nutrient&#45;&gt;has attribute -->
<g id="edge9" class="edge">
<title>nutrient&#45;&gt;has attribute</title>
<path fill="none" stroke="blue" d="M659.28,-92.86C665.66,-90.66 672.45,-88.56 678.89,-87 736.87,-72.97 757.2,-92.81 811.89,-69 826.44,-62.67 840.32,-51.82 851.15,-41.85"/>
<polygon fill="blue" stroke="blue" points="853.68,-44.27 858.46,-34.82 848.83,-39.22 853.68,-44.27"/>
<text text-anchor="middle" x="869.39" y="-57.8" font-family="Times,serif" font-size="14.00">has attribute</text>
</g>
<!-- category -->
<g id="node11" class="node">
<title>category</title>
<ellipse fill="none" stroke="black" cx="971.89" cy="-18" rx="40.89" ry="18"/>
<text text-anchor="middle" x="971.89" y="-14.3" font-family="Times,serif" font-size="14.00">category</text>
</g>
<!-- nutrient&#45;&gt;category -->
<g id="edge10" class="edge">
<title>nutrient&#45;&gt;category</title>
<path fill="none" stroke="blue" d="M658.97,-92.68C665.42,-90.46 672.32,-88.4 678.89,-87 778.32,-65.85 812.02,-105.5 906.89,-69 922.44,-63.02 937.35,-52.06 948.97,-41.93"/>
<polygon fill="blue" stroke="blue" points="951.41,-44.43 956.44,-35.11 946.69,-39.26 951.41,-44.43"/>
<text text-anchor="middle" x="956.39" y="-57.8" font-family="Times,serif" font-size="14.00">category</text>
</g>
<!-- in taxon -->
<g id="node13" class="node">
<title>in taxon</title>
<ellipse fill="none" stroke="blue" cx="1096.89" cy="-18" rx="65.79" ry="18"/>
<text text-anchor="middle" x="1096.89" y="-14.3" font-family="Times,serif" font-size="14.00">organism taxon</text>
</g>
<!-- nutrient&#45;&gt;in taxon -->
<g id="edge11" class="edge">
<title>nutrient&#45;&gt;in taxon</title>
<path fill="none" stroke="blue" d="M658.95,-92.58C665.4,-90.37 672.31,-88.33 678.89,-87 811.99,-60.07 851.92,-100.98 983.89,-69 1010.59,-62.53 1038.85,-50.02 1060.43,-39.14"/>
<polygon fill="blue" stroke="blue" points="1062.27,-42.13 1069.55,-34.43 1059.06,-35.91 1062.27,-42.13"/>
<text text-anchor="middle" x="1048.39" y="-57.8" font-family="Times,serif" font-size="14.00">in taxon</text>
</g>
<!-- is metabolite -->
<g id="node14" class="node">
<title>is metabolite</title>
<ellipse fill="none" stroke="blue" cx="1218.89" cy="-18" rx="38.19" ry="18"/>
<text text-anchor="middle" x="1218.89" y="-14.3" font-family="Times,serif" font-size="14.00">boolean</text>
</g>
<!-- nutrient&#45;&gt;is metabolite -->
<g id="edge12" class="edge">
<title>nutrient&#45;&gt;is metabolite</title>
<path fill="none" stroke="blue" d="M658.93,-92.52C665.39,-90.31 672.3,-88.29 678.89,-87 851.81,-53.22 901.77,-101.7 1074.89,-69 1112.69,-61.86 1154,-46.71 1182.63,-34.94"/>
<polygon fill="blue" stroke="blue" points="1184.33,-38.03 1192.21,-30.94 1181.63,-31.57 1184.33,-38.03"/>
<text text-anchor="middle" x="1163.39" y="-57.8" font-family="Times,serif" font-size="14.00">is metabolite</text>
</g>
<!-- named thing_category -->
<g id="node12" class="node">
<title>named thing_category</title>
<ellipse fill="none" stroke="blue" cx="742.89" cy="-105" rx="55.49" ry="18"/>
<text text-anchor="middle" x="742.89" y="-101.3" font-family="Times,serif" font-size="14.00">named thing</text>
</g>
</g>
</svg>
