<?xml version="1.0" encoding="UTF-8" standalone="no"?>
<!DOCTYPE svg PUBLIC "-//W3C//DTD SVG 1.1//EN"
 "http://www.w3.org/Graphics/SVG/1.1/DTD/svg11.dtd">
<!-- Generated by graphviz version 2.40.1 (20161225.0304)
 -->
<!-- Title: %3 Pages: 1 -->
<svg width="1265pt" height="131pt"
 viewBox="0.00 0.00 1265.24 131.00" xmlns="http://www.w3.org/2000/svg" xmlns:xlink="http://www.w3.org/1999/xlink">
<g id="graph0" class="graph" transform="scale(1 1) rotate(0) translate(4 127)">
<title>%3</title>
<polygon fill="#ffffff" stroke="transparent" points="-4,4 -4,-127 1261.2405,-127 1261.2405,4 -4,4"/>
<!-- nutrient -->
<g id="node1" class="node">
<title>nutrient</title>
<ellipse fill="none" stroke="#000000" cx="630.8939" cy="-105" rx="38.1938" ry="18"/>
<text text-anchor="middle" x="630.8939" y="-101.3" font-family="Times,serif" font-size="14.00" fill="#000000">nutrient</text>
</g>
<!-- food component -->
<g id="node2" class="node">
<title>food component</title>
<ellipse fill="none" stroke="#000000" cx="68.8939" cy="-18" rx="68.7879" ry="18"/>
<text text-anchor="middle" x="68.8939" y="-14.3" font-family="Times,serif" font-size="14.00" fill="#000000">food component</text>
</g>
<!-- nutrient&#45;&gt;food component -->
<g id="edge1" class="edge">
<title>nutrient&#45;&gt;food component</title>
<path fill="none" stroke="#000000" d="M592.6892,-103.214C525.8156,-99.6501 383.3823,-90.1089 264.8939,-69 216.594,-60.3953 162.7189,-46.0197 123.6947,-34.7203"/>
<polygon fill="#000000" stroke="#000000" points="124.1836,-31.2168 113.6033,-31.7711 122.22,-37.9358 124.1836,-31.2168"/>
<text text-anchor="middle" x="275.8939" y="-57.8" font-family="Times,serif" font-size="14.00" fill="#000000">is_a</text>
</g>
<!-- id -->
<g id="node3" class="node">
<title>id</title>
<ellipse fill="none" stroke="#0000ff" cx="185.8939" cy="-18" rx="30.5947" ry="18"/>
<text text-anchor="middle" x="185.8939" y="-14.3" font-family="Times,serif" font-size="14.00" fill="#000000">string</text>
</g>
<!-- nutrient&#45;&gt;id -->
<g id="edge2" class="edge">
<title>nutrient&#45;&gt;id</title>
<path fill="none" stroke="#0000ff" d="M592.8026,-102.4803C519.8716,-96.7972 356.1847,-79.876 225.8939,-36 223.6408,-35.2413 221.3425,-34.3999 219.0433,-33.5074"/>
<polygon fill="#0000ff" stroke="#0000ff" points="220.2793,-30.2309 209.7014,-29.6304 217.5961,-36.6963 220.2793,-30.2309"/>
<text text-anchor="middle" x="351.3939" y="-57.8" font-family="Times,serif" font-size="14.00" fill="#000000">id</text>
</g>
<!-- iri -->
<g id="node4" class="node">
<title>iri</title>
<ellipse fill="none" stroke="#0000ff" cx="270.8939" cy="-18" rx="36.2938" ry="18"/>
<text text-anchor="middle" x="270.8939" y="-14.3" font-family="Times,serif" font-size="14.00" fill="#000000">iri type</text>
</g>
<!-- nutrient&#45;&gt;iri -->
<g id="edge3" class="edge">
<title>nutrient&#45;&gt;iri</title>
<path fill="none" stroke="#0000ff" d="M593.8226,-99.5404C534.2159,-90.1742 413.8307,-68.8229 315.8939,-36 313.3633,-35.1519 310.769,-34.2376 308.1656,-33.2866"/>
<polygon fill="#0000ff" stroke="#0000ff" points="309.3871,-30.0067 298.7958,-29.7344 306.9056,-36.5521 309.3871,-30.0067"/>
<text text-anchor="middle" x="433.3939" y="-57.8" font-family="Times,serif" font-size="14.00" fill="#000000">iri</text>
</g>
<!-- type -->
<g id="node5" class="node">
<title>type</title>
<ellipse fill="none" stroke="#0000ff" cx="355.8939" cy="-18" rx="30.5947" ry="18"/>
<text text-anchor="middle" x="355.8939" y="-14.3" font-family="Times,serif" font-size="14.00" fill="#000000">string</text>
</g>
<!-- nutrient&#45;&gt;type -->
<g id="edge4" class="edge">
<title>nutrient&#45;&gt;type</title>
<path fill="none" stroke="#0000ff" d="M596.4962,-96.669C550.2224,-85.0634 465.6729,-62.451 395.8939,-36 393.6709,-35.1573 391.3952,-34.2525 389.1128,-33.3132"/>
<polygon fill="#0000ff" stroke="#0000ff" points="390.3798,-30.0484 379.8094,-29.3287 387.6238,-36.4831 390.3798,-30.0484"/>
<text text-anchor="middle" x="503.8939" y="-57.8" font-family="Times,serif" font-size="14.00" fill="#000000">type</text>
</g>
<!-- name -->
<g id="node6" class="node">
<title>name</title>
<ellipse fill="none" stroke="#0000ff" cx="449.8939" cy="-18" rx="45.4919" ry="18"/>
<text text-anchor="middle" x="449.8939" y="-14.3" font-family="Times,serif" font-size="14.00" fill="#000000">label type</text>
</g>
<!-- nutrient&#45;&gt;name -->
<g id="edge5" class="edge">
<title>nutrient&#45;&gt;name</title>
<path fill="none" stroke="#0000ff" d="M603.7964,-91.9752C573.1474,-77.2434 523.0018,-53.1402 488.3206,-36.4703"/>
<polygon fill="#0000ff" stroke="#0000ff" points="489.507,-33.1573 478.9778,-31.9796 486.4744,-39.4663 489.507,-33.1573"/>
<text text-anchor="middle" x="567.3939" y="-57.8" font-family="Times,serif" font-size="14.00" fill="#000000">name</text>
</g>
<!-- description -->
<g id="node7" class="node">
<title>description</title>
<ellipse fill="none" stroke="#0000ff" cx="570.8939" cy="-18" rx="57.6901" ry="18"/>
<text text-anchor="middle" x="570.8939" y="-14.3" font-family="Times,serif" font-size="14.00" fill="#000000">narrative text</text>
</g>
<!-- nutrient&#45;&gt;description -->
<g id="edge6" class="edge">
<title>nutrient&#45;&gt;description</title>
<path fill="none" stroke="#0000ff" d="M619.0398,-87.8116C610.442,-75.3448 598.6592,-58.2596 588.9021,-44.1119"/>
<polygon fill="#0000ff" stroke="#0000ff" points="591.6939,-41.9951 583.1353,-35.75 585.9314,-45.9692 591.6939,-41.9951"/>
<text text-anchor="middle" x="635.3939" y="-57.8" font-family="Times,serif" font-size="14.00" fill="#000000">description</text>
</g>
<!-- source -->
<g id="node8" class="node">
<title>source</title>
<ellipse fill="none" stroke="#0000ff" cx="691.8939" cy="-18" rx="45.4919" ry="18"/>
<text text-anchor="middle" x="691.8939" y="-14.3" font-family="Times,serif" font-size="14.00" fill="#000000">label type</text>
</g>
<!-- nutrient&#45;&gt;source -->
<g id="edge7" class="edge">
<title>nutrient&#45;&gt;source</title>
<path fill="none" stroke="#0000ff" d="M650.7567,-89.5644C657.4516,-83.6571 664.5676,-76.5191 669.8939,-69 674.9661,-61.8395 679.2122,-53.3254 682.5785,-45.3248"/>
<polygon fill="#0000ff" stroke="#0000ff" points="685.8637,-46.534 686.2448,-35.9461 679.3441,-43.9854 685.8637,-46.534"/>
<text text-anchor="middle" x="696.8939" y="-57.8" font-family="Times,serif" font-size="14.00" fill="#000000">source</text>
</g>
<!-- provided by -->
<g id="node9" class="node">
<title>provided by</title>
<ellipse fill="none" stroke="#0000ff" cx="784.8939" cy="-18" rx="29.795" ry="18"/>
<text text-anchor="middle" x="784.8939" y="-14.3" font-family="Times,serif" font-size="14.00" fill="#000000">agent</text>
</g>
<!-- nutrient&#45;&gt;provided by -->
<g id="edge8" class="edge">
<title>nutrient&#45;&gt;provided by</title>
<path fill="none" stroke="#0000ff" d="M661.2188,-93.596C682.4096,-85.4381 708.6698,-74.8961 718.8939,-69 733.4687,-60.5949 748.4088,-49.3139 760.3805,-39.4988"/>
<polygon fill="#0000ff" stroke="#0000ff" points="762.7325,-42.0944 768.1533,-32.9914 758.2389,-36.7271 762.7325,-42.0944"/>
<text text-anchor="middle" x="773.8939" y="-57.8" font-family="Times,serif" font-size="14.00" fill="#000000">provided by</text>
</g>
<!-- has attribute -->
<g id="node10" class="node">
<title>has attribute</title>
<ellipse fill="none" stroke="#0000ff" cx="872.8939" cy="-18" rx="40.0939" ry="18"/>
<text text-anchor="middle" x="872.8939" y="-14.3" font-family="Times,serif" font-size="14.00" fill="#000000">attribute</text>
</g>
<!-- nutrient&#45;&gt;has attribute -->
<g id="edge9" class="edge">
<title>nutrient&#45;&gt;has attribute</title>
<path fill="none" stroke="#0000ff" d="M659.7533,-92.9928C665.9844,-90.736 672.5943,-88.5894 678.8939,-87 736.3043,-72.5149 756.6375,-92.707 810.8939,-69 825.282,-62.7132 839.0134,-52.0832 849.8797,-42.1499"/>
<polygon fill="#0000ff" stroke="#0000ff" points="852.4363,-44.5482 857.2542,-35.1122 847.6035,-39.4842 852.4363,-44.5482"/>
<text text-anchor="middle" x="869.3939" y="-57.8" font-family="Times,serif" font-size="14.00" fill="#000000">has attribute</text>
</g>
<!-- category -->
<g id="node11" class="node">
<title>category</title>
<ellipse fill="none" stroke="#000000" cx="971.8939" cy="-18" rx="40.8928" ry="18"/>
<text text-anchor="middle" x="971.8939" y="-14.3" font-family="Times,serif" font-size="14.00" fill="#000000">category</text>
</g>
<!-- nutrient&#45;&gt;category -->
<g id="edge10" class="edge">
<title>nutrient&#45;&gt;category</title>
<path fill="none" stroke="#0000ff" d="M659.4321,-92.81C665.7419,-90.5365 672.4649,-88.4294 678.8939,-87 778.1196,-64.9386 812.1991,-105.9507 906.8939,-69 922.4193,-62.9418 937.2412,-51.8774 948.8002,-41.599"/>
<polygon fill="#0000ff" stroke="#0000ff" points="951.3045,-44.0497 956.2498,-34.6798 946.5407,-38.9207 951.3045,-44.0497"/>
<text text-anchor="middle" x="956.3939" y="-57.8" font-family="Times,serif" font-size="14.00" fill="#000000">category</text>
</g>
<!-- in taxon -->
<g id="node13" class="node">
<title>in taxon</title>
<ellipse fill="none" stroke="#0000ff" cx="1096.8939" cy="-18" rx="65.7887" ry="18"/>
<text text-anchor="middle" x="1096.8939" y="-14.3" font-family="Times,serif" font-size="14.00" fill="#000000">organism taxon</text>
</g>
<!-- nutrient&#45;&gt;in taxon -->
<g id="edge11" class="edge">
<title>nutrient&#45;&gt;in taxon</title>
<path fill="none" stroke="#0000ff" d="M659.1554,-92.8052C665.5403,-90.502 672.3639,-88.384 678.8939,-87 811.7343,-58.8444 852.0416,-101.4695 983.8939,-69 1010.1093,-62.5443 1037.7644,-50.1704 1059.1542,-39.228"/>
<polygon fill="#0000ff" stroke="#0000ff" points="1060.9756,-42.2252 1068.2135,-34.4881 1057.7304,-36.0229 1060.9756,-42.2252"/>
<text text-anchor="middle" x="1048.3939" y="-57.8" font-family="Times,serif" font-size="14.00" fill="#000000">in taxon</text>
</g>
<!-- is metabolite -->
<g id="node14" class="node">
<title>is metabolite</title>
<ellipse fill="none" stroke="#0000ff" cx="1218.8939" cy="-18" rx="38.1938" ry="18"/>
<text text-anchor="middle" x="1218.8939" y="-14.3" font-family="Times,serif" font-size="14.00" fill="#000000">boolean</text>
</g>
<!-- nutrient&#45;&gt;is metabolite -->
<g id="edge12" class="edge">
<title>nutrient&#45;&gt;is metabolite</title>
<path fill="none" stroke="#0000ff" d="M659.1416,-92.7389C665.5272,-90.4396 672.3547,-88.3398 678.8939,-87 851.4899,-51.6361 901.773,-101.6977 1074.8939,-69 1112.5905,-61.8802 1153.6612,-46.5238 1182.258,-34.5119"/>
<polygon fill="#0000ff" stroke="#0000ff" points="1183.6337,-37.7302 1191.4549,-30.5832 1180.8839,-31.293 1183.6337,-37.7302"/>
<text text-anchor="middle" x="1163.3939" y="-57.8" font-family="Times,serif" font-size="14.00" fill="#000000">is metabolite</text>
</g>
<!-- named thing_category -->
<g id="node12" class="node">
<title>named thing_category</title>
<ellipse fill="none" stroke="#0000ff" cx="742.8939" cy="-105" rx="55.4913" ry="18"/>
<text text-anchor="middle" x="742.8939" y="-101.3" font-family="Times,serif" font-size="14.00" fill="#000000">named thing</text>
</g>
</g>
</svg>
