<?xml version="1.0" encoding="UTF-8" standalone="no"?>
<!DOCTYPE svg PUBLIC "-//W3C//DTD SVG 1.1//EN"
 "http://www.w3.org/Graphics/SVG/1.1/DTD/svg11.dtd">
<!-- Generated by graphviz version 2.40.1 (20161225.0304)
 -->
<!-- Title: %3 Pages: 1 -->
<svg width="1037pt" height="131pt"
 viewBox="0.00 0.00 1037.19 131.00" xmlns="http://www.w3.org/2000/svg" xmlns:xlink="http://www.w3.org/1999/xlink">
<g id="graph0" class="graph" transform="scale(1 1) rotate(0) translate(4 127)">
<title>%3</title>
<polygon fill="#ffffff" stroke="transparent" points="-4,4 -4,-127 1033.188,-127 1033.188,4 -4,4"/>
<!-- onset -->
<g id="node1" class="node">
<title>onset</title>
<ellipse fill="none" stroke="#000000" cx="498.643" cy="-105" rx="36.2938" ry="18"/>
<text text-anchor="middle" x="498.643" y="-101.3" font-family="Times,serif" font-size="14.00" fill="#000000">onset</text>
</g>
<!-- clinical course -->
<g id="node2" class="node">
<title>clinical course</title>
<ellipse fill="none" stroke="#000000" cx="78.643" cy="-18" rx="78.7863" ry="18"/>
<text text-anchor="middle" x="78.643" y="-14.3" font-family="Times,serif" font-size="14.00" fill="#000000">clinical course</text>
</g>
<!-- onset&#45;&gt;clinical course -->
<g id="edge1" class="edge">
<title>onset&#45;&gt;clinical course</title>
<path fill="none" stroke="#000000" d="M462.5681,-101.6916C413.0339,-96.7403 321.3675,-86.1116 244.643,-69 206.1088,-60.4059 163.5608,-47.259 131.1887,-36.4661"/>
<polygon fill="#000000" stroke="#000000" points="132.0786,-33.0727 121.4845,-33.1997 129.8455,-39.707 132.0786,-33.0727"/>
<text text-anchor="middle" x="258.643" y="-57.8" font-family="Times,serif" font-size="14.00" fill="#000000">is_a</text>
</g>
<!-- name -->
<g id="node3" class="node">
<title>name</title>
<ellipse fill="none" stroke="#000000" cx="211.643" cy="-18" rx="36.2938" ry="18"/>
<text text-anchor="middle" x="211.643" y="-14.3" font-family="Times,serif" font-size="14.00" fill="#000000">name</text>
</g>
<!-- onset&#45;&gt;name -->
<g id="edge2" class="edge">
<title>onset&#45;&gt;name</title>
<path fill="none" stroke="#0000ff" d="M462.6567,-101.3092C424.0215,-96.6237 361.2375,-86.9051 309.643,-69 286.4412,-60.9481 261.9317,-48.1918 243.2275,-37.4515"/>
<polygon fill="#0000ff" stroke="#0000ff" points="244.9416,-34.3994 234.5429,-32.3705 241.4067,-40.4413 244.9416,-34.3994"/>
<text text-anchor="middle" x="329.643" y="-57.8" font-family="Times,serif" font-size="14.00" fill="#000000">name</text>
</g>
<!-- has attribute type -->
<g id="node5" class="node">
<title>has attribute type</title>
<ellipse fill="none" stroke="#0000ff" cx="343.643" cy="-18" rx="77.1866" ry="18"/>
<text text-anchor="middle" x="343.643" y="-14.3" font-family="Times,serif" font-size="14.00" fill="#000000">ontology class</text>
</g>
<!-- onset&#45;&gt;has attribute type -->
<g id="edge3" class="edge">
<title>onset&#45;&gt;has attribute type</title>
<path fill="none" stroke="#0000ff" d="M463.9771,-99.4116C429.0879,-93.1609 378.3898,-82.1662 363.643,-69 356.9121,-62.9905 352.4233,-54.4305 349.4391,-46.036"/>
<polygon fill="#0000ff" stroke="#0000ff" points="352.7855,-45.0096 346.583,-36.4201 346.0752,-47.0028 352.7855,-45.0096"/>
<text text-anchor="middle" x="428.643" y="-57.8" font-family="Times,serif" font-size="14.00" fill="#000000">has attribute type</text>
</g>
<!-- has quantitative value -->
<g id="node6" class="node">
<title>has quantitative value</title>
<ellipse fill="none" stroke="#0000ff" cx="516.643" cy="-18" rx="77.1866" ry="18"/>
<text text-anchor="middle" x="516.643" y="-14.3" font-family="Times,serif" font-size="14.00" fill="#000000">quantity value</text>
</g>
<!-- onset&#45;&gt;has quantitative value -->
<g id="edge4" class="edge">
<title>onset&#45;&gt;has quantitative value</title>
<path fill="none" stroke="#0000ff" d="M497.1663,-86.8324C496.8224,-76.9908 497.1353,-64.6911 499.643,-54 500.3089,-51.1611 501.217,-48.2803 502.2694,-45.4483"/>
<polygon fill="#0000ff" stroke="#0000ff" points="505.5362,-46.7107 506.261,-36.1407 499.1028,-43.9517 505.5362,-46.7107"/>
<text text-anchor="middle" x="579.643" y="-57.8" font-family="Times,serif" font-size="14.00" fill="#000000">has quantitative value</text>
</g>
<!-- has qualitative value -->
<g id="node7" class="node">
<title>has qualitative value</title>
<ellipse fill="none" stroke="#0000ff" cx="681.643" cy="-18" rx="69.5877" ry="18"/>
<text text-anchor="middle" x="681.643" y="-14.3" font-family="Times,serif" font-size="14.00" fill="#000000">named thing</text>
</g>
<!-- onset&#45;&gt;has qualitative value -->
<g id="edge5" class="edge">
<title>onset&#45;&gt;has qualitative value</title>
<path fill="none" stroke="#0000ff" d="M525.9106,-92.9499C531.6837,-90.7234 537.7997,-88.5997 543.643,-87 593.9638,-73.2235 618.3869,-100.936 659.643,-69 667.1223,-63.2104 672.0999,-54.3704 675.3948,-45.6675"/>
<polygon fill="#0000ff" stroke="#0000ff" points="678.7518,-46.66 678.4436,-36.0697 672.0803,-44.5407 678.7518,-46.66"/>
<text text-anchor="middle" x="746.143" y="-57.8" font-family="Times,serif" font-size="14.00" fill="#000000">has qualitative value</text>
</g>
<!-- iri -->
<g id="node8" class="node">
<title>iri</title>
<ellipse fill="none" stroke="#0000ff" cx="853.643" cy="-18" rx="44.393" ry="18"/>
<text text-anchor="middle" x="853.643" y="-14.3" font-family="Times,serif" font-size="14.00" fill="#000000">iri type</text>
</g>
<!-- onset&#45;&gt;iri -->
<g id="edge6" class="edge">
<title>onset&#45;&gt;iri</title>
<path fill="none" stroke="#0000ff" d="M525.3274,-92.7236C531.2472,-90.4554 537.5696,-88.3724 543.643,-87 604.6766,-73.2082 771.5906,-102.1775 824.643,-69 833.4239,-63.5087 839.8045,-54.3339 844.3062,-45.268"/>
<polygon fill="#0000ff" stroke="#0000ff" points="847.5505,-46.5842 848.3392,-36.0188 841.1339,-43.7863 847.5505,-46.5842"/>
<text text-anchor="middle" x="847.643" y="-57.8" font-family="Times,serif" font-size="14.00" fill="#000000">iri</text>
</g>
<!-- source -->
<g id="node9" class="node">
<title>source</title>
<ellipse fill="none" stroke="#0000ff" cx="972.643" cy="-18" rx="56.59" ry="18"/>
<text text-anchor="middle" x="972.643" y="-14.3" font-family="Times,serif" font-size="14.00" fill="#000000">label type</text>
</g>
<!-- onset&#45;&gt;source -->
<g id="edge7" class="edge">
<title>onset&#45;&gt;source</title>
<path fill="none" stroke="#0000ff" d="M525.3201,-92.691C531.2404,-90.4249 537.5647,-88.3509 543.643,-87 680.9643,-56.4792 723.0172,-102.4967 859.643,-69 886.4114,-62.4372 914.6732,-49.6797 936.237,-38.5666"/>
<polygon fill="#0000ff" stroke="#0000ff" points="938.1293,-41.5257 945.3436,-33.7665 934.8652,-35.3332 938.1293,-41.5257"/>
<text text-anchor="middle" x="926.143" y="-57.8" font-family="Times,serif" font-size="14.00" fill="#000000">source</text>
</g>
<!-- attribute_name -->
<g id="node4" class="node">
<title>attribute_name</title>
<ellipse fill="none" stroke="#0000ff" cx="609.643" cy="-105" rx="56.59" ry="18"/>
<text text-anchor="middle" x="609.643" y="-101.3" font-family="Times,serif" font-size="14.00" fill="#000000">label type</text>
</g>
</g>
</svg>
