<?xml version="1.0" encoding="UTF-8" standalone="no"?>
<!DOCTYPE svg PUBLIC "-//W3C//DTD SVG 1.1//EN"
 "http://www.w3.org/Graphics/SVG/1.1/DTD/svg11.dtd">
<!-- Generated by graphviz version 2.43.0 (0)
 -->
<!-- Title: %3 Pages: 1 -->
<svg width="1809pt" height="130pt"
 viewBox="0.00 0.00 1808.98 130.00" xmlns="http://www.w3.org/2000/svg" xmlns:xlink="http://www.w3.org/1999/xlink">
<g id="graph0" class="graph" transform="scale(1 1) rotate(0) translate(4 126)">
<title>%3</title>
<polygon fill="white" stroke="transparent" points="-4,4 -4,-126 1804.98,-126 1804.98,4 -4,4"/>
<!-- onset -->
<g id="node1" class="node">
<title>onset</title>
<ellipse fill="none" stroke="black" cx="945.57" cy="-104" rx="28.55" ry="18"/>
<text text-anchor="middle" x="945.57" y="-99.8" font-family="Times,serif" font-size="14.00">onset</text>
</g>
<!-- attribute -->
<g id="node2" class="node">
<title>attribute</title>
<ellipse fill="none" stroke="black" cx="39.57" cy="-18" rx="39.65" ry="18"/>
<text text-anchor="middle" x="39.57" y="-13.8" font-family="Times,serif" font-size="14.00">attribute</text>
</g>
<!-- onset&#45;&gt;attribute -->
<g id="edge1" class="edge">
<title>onset&#45;&gt;attribute</title>
<path fill="none" stroke="black" d="M916.64,-102.56C796.94,-100.62 340.11,-91.75 198.02,-68 156.12,-61 109.89,-45.79 78.24,-34.16"/>
<polygon fill="black" stroke="black" points="79.09,-30.75 68.5,-30.53 76.64,-37.3 79.09,-30.75"/>
<text text-anchor="middle" x="209.85" y="-56.8" font-family="Times,serif" font-size="14.00">is_a</text>
</g>
<!-- has attribute type -->
<g id="node3" class="node">
<title>has attribute type</title>
<ellipse fill="none" stroke="blue" cx="158.57" cy="-18" rx="60.9" ry="18"/>
<text text-anchor="middle" x="158.57" y="-13.8" font-family="Times,serif" font-size="14.00">ontology class</text>
</g>
<!-- onset&#45;&gt;has attribute type -->
<g id="edge2" class="edge">
<title>onset&#45;&gt;has attribute type</title>
<path fill="none" stroke="blue" d="M916.78,-102.99C803.69,-102.75 389.91,-99.65 263.16,-68 238.64,-61.88 212.91,-49.91 193.11,-39.33"/>
<polygon fill="blue" stroke="blue" points="194.63,-36.17 184.18,-34.44 191.27,-42.31 194.63,-36.17"/>
<text text-anchor="middle" x="311.78" y="-56.8" font-family="Times,serif" font-size="14.00">has attribute type</text>
</g>
<!-- has quantitative value -->
<g id="node4" class="node">
<title>has quantitative value</title>
<ellipse fill="none" stroke="blue" cx="297.57" cy="-18" rx="60.4" ry="18"/>
<text text-anchor="middle" x="297.57" y="-13.8" font-family="Times,serif" font-size="14.00">quantity value</text>
</g>
<!-- onset&#45;&gt;has quantitative value -->
<g id="edge3" class="edge">
<title>onset&#45;&gt;has quantitative value</title>
<path fill="none" stroke="blue" d="M916.79,-102.57C819.03,-100.88 500.37,-93.5 401.5,-68 377.16,-61.72 351.59,-49.75 331.91,-39.21"/>
<polygon fill="blue" stroke="blue" points="333.48,-36.08 323.03,-34.34 330.11,-42.22 333.48,-36.08"/>
<text text-anchor="middle" x="462.61" y="-56.8" font-family="Times,serif" font-size="14.00">has quantitative value</text>
</g>
<!-- has qualitative value -->
<g id="node5" class="node">
<title>has qualitative value</title>
<ellipse fill="none" stroke="blue" cx="430.57" cy="-18" rx="54.14" ry="18"/>
<text text-anchor="middle" x="430.57" y="-13.8" font-family="Times,serif" font-size="14.00">named thing</text>
</g>
<!-- onset&#45;&gt;has qualitative value -->
<g id="edge4" class="edge">
<title>onset&#45;&gt;has qualitative value</title>
<path fill="none" stroke="blue" d="M916.52,-102.5C853.77,-100.93 701.16,-94.47 576.5,-68 540.69,-60.39 501.41,-46.89 472.63,-35.99"/>
<polygon fill="blue" stroke="blue" points="473.89,-32.72 463.3,-32.4 471.38,-39.25 473.89,-32.72"/>
<text text-anchor="middle" x="634.11" y="-56.8" font-family="Times,serif" font-size="14.00">has qualitative value</text>
</g>
<!-- id -->
<g id="node6" class="node">
<title>id</title>
<ellipse fill="none" stroke="blue" cx="562.57" cy="-18" rx="59.44" ry="18"/>
<text text-anchor="middle" x="562.57" y="-13.8" font-family="Times,serif" font-size="14.00">identifier type</text>
</g>
<!-- onset&#45;&gt;id -->
<g id="edge5" class="edge">
<title>onset&#45;&gt;id</title>
<path fill="none" stroke="blue" d="M917.98,-98.64C880.42,-92.56 811.19,-80.83 752.68,-68 705.62,-57.68 652.56,-43.81 614.48,-33.47"/>
<polygon fill="blue" stroke="blue" points="615.22,-30.04 604.65,-30.78 613.37,-36.79 615.22,-30.04"/>
<text text-anchor="middle" x="759.02" y="-56.8" font-family="Times,serif" font-size="14.00">id</text>
</g>
<!-- name -->
<g id="node7" class="node">
<title>name</title>
<ellipse fill="none" stroke="blue" cx="684.57" cy="-18" rx="44.96" ry="18"/>
<text text-anchor="middle" x="684.57" y="-13.8" font-family="Times,serif" font-size="14.00">label type</text>
</g>
<!-- onset&#45;&gt;name -->
<g id="edge6" class="edge">
<title>onset&#45;&gt;name</title>
<path fill="none" stroke="blue" d="M918.68,-97.56C890,-91.48 843.42,-80.79 804.26,-68 776.31,-58.87 745.63,-46.26 722.34,-36.12"/>
<polygon fill="blue" stroke="blue" points="723.72,-32.9 713.15,-32.08 720.9,-39.31 723.72,-32.9"/>
<text text-anchor="middle" x="819.73" y="-56.8" font-family="Times,serif" font-size="14.00">name</text>
</g>
<!-- category -->
<g id="node8" class="node">
<title>category</title>
<ellipse fill="none" stroke="blue" cx="782.57" cy="-18" rx="35.3" ry="18"/>
<text text-anchor="middle" x="782.57" y="-13.8" font-family="Times,serif" font-size="14.00">iri type</text>
</g>
<!-- onset&#45;&gt;category -->
<g id="edge7" class="edge">
<title>onset&#45;&gt;category</title>
<path fill="none" stroke="blue" d="M921.47,-93.99C904.62,-87.41 881.76,-77.95 862.38,-68 845.13,-59.14 826.64,-47.9 811.8,-38.43"/>
<polygon fill="blue" stroke="blue" points="813.37,-35.28 803.08,-32.79 809.57,-41.16 813.37,-35.28"/>
<text text-anchor="middle" x="886.67" y="-56.8" font-family="Times,serif" font-size="14.00">category</text>
</g>
<!-- related to -->
<g id="node9" class="node">
<title>related to</title>
<ellipse fill="none" stroke="blue" cx="889.57" cy="-18" rx="54.14" ry="18"/>
<text text-anchor="middle" x="889.57" y="-13.8" font-family="Times,serif" font-size="14.00">named thing</text>
</g>
<!-- onset&#45;&gt;related to -->
<g id="edge8" class="edge">
<title>onset&#45;&gt;related to</title>
<path fill="none" stroke="blue" d="M935.04,-87.2C927.04,-75.19 915.86,-58.43 906.59,-44.53"/>
<polygon fill="blue" stroke="blue" points="909.29,-42.26 900.83,-35.88 903.46,-46.14 909.29,-42.26"/>
<text text-anchor="middle" x="947.81" y="-56.8" font-family="Times,serif" font-size="14.00">related to</text>
</g>
<!-- interacts with -->
<g id="node10" class="node">
<title>interacts with</title>
<ellipse fill="none" stroke="blue" cx="1015.57" cy="-18" rx="54.14" ry="18"/>
<text text-anchor="middle" x="1015.57" y="-13.8" font-family="Times,serif" font-size="14.00">named thing</text>
</g>
<!-- onset&#45;&gt;interacts with -->
<g id="edge9" class="edge">
<title>onset&#45;&gt;interacts with</title>
<path fill="none" stroke="blue" d="M959.55,-88.25C965.25,-82.09 971.84,-74.8 977.57,-68 984.09,-60.26 990.95,-51.6 997.01,-43.74"/>
<polygon fill="blue" stroke="blue" points="999.94,-45.67 1003.23,-35.6 994.38,-41.42 999.94,-45.67"/>
<text text-anchor="middle" x="1026.48" y="-56.8" font-family="Times,serif" font-size="14.00">interacts with</text>
</g>
<!-- node property -->
<g id="node11" class="node">
<title>node property</title>
<ellipse fill="none" stroke="blue" cx="1117.57" cy="-18" rx="30" ry="18"/>
<text text-anchor="middle" x="1117.57" y="-13.8" font-family="Times,serif" font-size="14.00">string</text>
</g>
<!-- onset&#45;&gt;node property -->
<g id="edge10" class="edge">
<title>onset&#45;&gt;node property</title>
<path fill="none" stroke="blue" d="M973.55,-99.18C999.57,-94.71 1038.71,-85.55 1068.57,-68 1079.8,-61.4 1090.3,-51.62 1098.68,-42.52"/>
<polygon fill="blue" stroke="blue" points="1101.48,-44.63 1105.45,-34.81 1096.22,-40.01 1101.48,-44.63"/>
<text text-anchor="middle" x="1126.64" y="-56.8" font-family="Times,serif" font-size="14.00">node property</text>
</g>
<!-- iri -->
<g id="node12" class="node">
<title>iri</title>
<ellipse fill="none" stroke="blue" cx="1201.57" cy="-18" rx="35.3" ry="18"/>
<text text-anchor="middle" x="1201.57" y="-13.8" font-family="Times,serif" font-size="14.00">iri type</text>
</g>
<!-- onset&#45;&gt;iri -->
<g id="edge11" class="edge">
<title>onset&#45;&gt;iri</title>
<path fill="none" stroke="blue" d="M974.21,-101.4C1027.13,-97.99 1137.75,-88.56 1169.57,-68 1178.31,-62.35 1185.18,-53.38 1190.28,-44.65"/>
<polygon fill="blue" stroke="blue" points="1193.38,-46.26 1194.95,-35.78 1187.19,-43 1193.38,-46.26"/>
<text text-anchor="middle" x="1189.79" y="-56.8" font-family="Times,serif" font-size="14.00">iri</text>
</g>
<!-- synonym -->
<g id="node13" class="node">
<title>synonym</title>
<ellipse fill="none" stroke="blue" cx="1299.57" cy="-18" rx="44.96" ry="18"/>
<text text-anchor="middle" x="1299.57" y="-13.8" font-family="Times,serif" font-size="14.00">label type</text>
</g>
<!-- onset&#45;&gt;synonym -->
<g id="edge12" class="edge">
<title>onset&#45;&gt;synonym</title>
<path fill="none" stroke="blue" d="M974.4,-102C1022.18,-99.7 1120.39,-92.17 1199.57,-68 1223.09,-60.82 1247.92,-48.68 1266.96,-38.28"/>
<polygon fill="blue" stroke="blue" points="1268.78,-41.27 1275.81,-33.34 1265.37,-35.16 1268.78,-41.27"/>
<text text-anchor="middle" x="1260.24" y="-56.8" font-family="Times,serif" font-size="14.00">synonym</text>
</g>
<!-- full name -->
<g id="node14" class="node">
<title>full name</title>
<ellipse fill="none" stroke="blue" cx="1406.57" cy="-18" rx="44.96" ry="18"/>
<text text-anchor="middle" x="1406.57" y="-13.8" font-family="Times,serif" font-size="14.00">label type</text>
</g>
<!-- onset&#45;&gt;full name -->
<g id="edge13" class="edge">
<title>onset&#45;&gt;full name</title>
<path fill="none" stroke="blue" d="M974.61,-102.91C1034.47,-102.11 1175.54,-97 1289.57,-68 1317.96,-60.78 1348.43,-47.84 1371.16,-37.07"/>
<polygon fill="blue" stroke="blue" points="1372.91,-40.11 1380.4,-32.61 1369.87,-33.8 1372.91,-40.11"/>
<text text-anchor="middle" x="1356.2" y="-56.8" font-family="Times,serif" font-size="14.00">full name</text>
</g>
<!-- description -->
<g id="node15" class="node">
<title>description</title>
<ellipse fill="none" stroke="blue" cx="1526.57" cy="-18" rx="57" ry="18"/>
<text text-anchor="middle" x="1526.57" y="-13.8" font-family="Times,serif" font-size="14.00">narrative text</text>
</g>
<!-- onset&#45;&gt;description -->
<g id="edge14" class="edge">
<title>onset&#45;&gt;description</title>
<path fill="none" stroke="blue" d="M974.57,-103.26C1045.64,-103.34 1233.83,-100.23 1386.57,-68 1420.61,-60.82 1457.7,-47.57 1485.15,-36.66"/>
<polygon fill="blue" stroke="blue" points="1486.48,-39.9 1494.44,-32.92 1483.86,-33.41 1486.48,-39.9"/>
<text text-anchor="middle" x="1465.68" y="-56.8" font-family="Times,serif" font-size="14.00">description</text>
</g>
<!-- systematic synonym -->
<g id="node16" class="node">
<title>systematic synonym</title>
<ellipse fill="none" stroke="blue" cx="1646.57" cy="-18" rx="44.96" ry="18"/>
<text text-anchor="middle" x="1646.57" y="-13.8" font-family="Times,serif" font-size="14.00">label type</text>
</g>
<!-- onset&#45;&gt;systematic synonym -->
<g id="edge15" class="edge">
<title>onset&#45;&gt;systematic synonym</title>
<path fill="none" stroke="blue" d="M974.49,-102.17C1073.48,-99.18 1398.25,-88.04 1500.57,-68 1537.7,-60.73 1578.39,-46.52 1607.36,-35.27"/>
<polygon fill="blue" stroke="blue" points="1608.7,-38.51 1616.72,-31.59 1606.13,-32 1608.7,-38.51"/>
<text text-anchor="middle" x="1611.54" y="-56.8" font-family="Times,serif" font-size="14.00">systematic synonym</text>
</g>
<!-- subclass of -->
<g id="node17" class="node">
<title>subclass of</title>
<ellipse fill="none" stroke="blue" cx="1765.57" cy="-18" rx="35.3" ry="18"/>
<text text-anchor="middle" x="1765.57" y="-13.8" font-family="Times,serif" font-size="14.00">iri type</text>
</g>
<!-- onset&#45;&gt;subclass of -->
<g id="edge16" class="edge">
<title>onset&#45;&gt;subclass of</title>
<path fill="none" stroke="blue" d="M974.67,-103.28C1092.94,-104.14 1537.72,-104.82 1672.57,-68 1695.36,-61.78 1718.88,-49.32 1736.57,-38.53"/>
<polygon fill="blue" stroke="blue" points="1738.64,-41.36 1745.25,-33.07 1734.92,-35.43 1738.64,-41.36"/>
<text text-anchor="middle" x="1737.49" y="-56.8" font-family="Times,serif" font-size="14.00">subclass of</text>
</g>
</g>
</svg>
