<?xml version="1.0" encoding="UTF-8" standalone="no"?>
<!DOCTYPE svg PUBLIC "-//W3C//DTD SVG 1.1//EN"
 "http://www.w3.org/Graphics/SVG/1.1/DTD/svg11.dtd">
<!-- Generated by graphviz version 2.40.1 (20161225.0304)
 -->
<!-- Title: %3 Pages: 1 -->
<svg width="1212pt" height="131pt"
 viewBox="0.00 0.00 1211.54 131.00" xmlns="http://www.w3.org/2000/svg" xmlns:xlink="http://www.w3.org/1999/xlink">
<g id="graph0" class="graph" transform="scale(1 1) rotate(0) translate(4 127)">
<title>%3</title>
<polygon fill="#ffffff" stroke="transparent" points="-4,4 -4,-127 1207.5392,-127 1207.5392,4 -4,4"/>
<!-- ontology class -->
<g id="node1" class="node">
<title>ontology class</title>
<ellipse fill="none" stroke="#000000" cx="585.5438" cy="-105" rx="77.1866" ry="18"/>
<text text-anchor="middle" x="585.5438" y="-101.3" font-family="Times,serif" font-size="14.00" fill="#000000">ontology class</text>
</g>
<!-- named thing -->
<g id="node2" class="node">
<title>named thing</title>
<ellipse fill="none" stroke="#000000" cx="69.5438" cy="-18" rx="69.5877" ry="18"/>
<text text-anchor="middle" x="69.5438" y="-14.3" font-family="Times,serif" font-size="14.00" fill="#000000">named thing</text>
</g>
<!-- ontology class&#45;&gt;named thing -->
<g id="edge1" class="edge">
<title>ontology class&#45;&gt;named thing</title>
<path fill="none" stroke="#000000" d="M513.0728,-98.6078C452.1017,-92.6796 362.7604,-82.7041 285.5438,-69 231.517,-59.4116 170.7579,-44.7091 127.4748,-33.5493"/>
<polygon fill="#000000" stroke="#000000" points="128.2484,-30.1342 117.6898,-31.01 126.49,-36.9098 128.2484,-30.1342"/>
<text text-anchor="middle" x="299.5438" y="-57.8" font-family="Times,serif" font-size="14.00" fill="#000000">is_a</text>
</g>
<!-- id -->
<g id="node3" class="node">
<title>id</title>
<ellipse fill="none" stroke="#0000ff" cx="195.5438" cy="-18" rx="38.1938" ry="18"/>
<text text-anchor="middle" x="195.5438" y="-14.3" font-family="Times,serif" font-size="14.00" fill="#000000">string</text>
</g>
<!-- ontology class&#45;&gt;id -->
<g id="edge2" class="edge">
<title>ontology class&#45;&gt;id</title>
<path fill="none" stroke="#0000ff" d="M520.1265,-95.2342C450.6907,-84.0748 338.1491,-63.71 243.5438,-36 240.5651,-35.1275 237.5071,-34.1587 234.4468,-33.136"/>
<polygon fill="#0000ff" stroke="#0000ff" points="235.353,-29.7449 224.7582,-29.7378 233.0362,-36.3504 235.353,-29.7449"/>
<text text-anchor="middle" x="381.5438" y="-57.8" font-family="Times,serif" font-size="14.00" fill="#000000">id</text>
</g>
<!-- iri -->
<g id="node4" class="node">
<title>iri</title>
<ellipse fill="none" stroke="#0000ff" cx="296.5438" cy="-18" rx="44.393" ry="18"/>
<text text-anchor="middle" x="296.5438" y="-14.3" font-family="Times,serif" font-size="14.00" fill="#000000">iri type</text>
</g>
<!-- ontology class&#45;&gt;iri -->
<g id="edge3" class="edge">
<title>ontology class&#45;&gt;iri</title>
<path fill="none" stroke="#0000ff" d="M535.8466,-91.0639C488.1556,-77.5359 414.1883,-56.149 350.5438,-36 347.2405,-34.9542 343.8291,-33.8572 340.4011,-32.7427"/>
<polygon fill="#0000ff" stroke="#0000ff" points="341.3654,-29.3756 330.7726,-29.5832 339.1829,-36.0266 341.3654,-29.3756"/>
<text text-anchor="middle" x="461.5438" y="-57.8" font-family="Times,serif" font-size="14.00" fill="#000000">iri</text>
</g>
<!-- type -->
<g id="node5" class="node">
<title>type</title>
<ellipse fill="none" stroke="#0000ff" cx="397.5438" cy="-18" rx="38.1938" ry="18"/>
<text text-anchor="middle" x="397.5438" y="-14.3" font-family="Times,serif" font-size="14.00" fill="#000000">string</text>
</g>
<!-- ontology class&#45;&gt;type -->
<g id="edge4" class="edge">
<title>ontology class&#45;&gt;type</title>
<path fill="none" stroke="#0000ff" d="M550.6231,-88.8399C517.5696,-73.5438 468.1266,-50.6633 434.4391,-35.0739"/>
<polygon fill="#0000ff" stroke="#0000ff" points="435.4998,-31.7082 424.9545,-30.6847 432.5599,-38.0609 435.4998,-31.7082"/>
<text text-anchor="middle" x="519.5438" y="-57.8" font-family="Times,serif" font-size="14.00" fill="#000000">type</text>
</g>
<!-- name -->
<g id="node6" class="node">
<title>name</title>
<ellipse fill="none" stroke="#0000ff" cx="510.5438" cy="-18" rx="56.59" ry="18"/>
<text text-anchor="middle" x="510.5438" y="-14.3" font-family="Times,serif" font-size="14.00" fill="#000000">label type</text>
</g>
<!-- ontology class&#45;&gt;name -->
<g id="edge5" class="edge">
<title>ontology class&#45;&gt;name</title>
<path fill="none" stroke="#0000ff" d="M570.0038,-86.9735C559.1002,-74.3254 544.3724,-57.2411 532.3025,-43.2401"/>
<polygon fill="#0000ff" stroke="#0000ff" points="534.7326,-40.6985 525.5522,-35.4097 529.4307,-45.2691 534.7326,-40.6985"/>
<text text-anchor="middle" x="572.5438" y="-57.8" font-family="Times,serif" font-size="14.00" fill="#000000">name</text>
</g>
<!-- description -->
<g id="node7" class="node">
<title>description</title>
<ellipse fill="none" stroke="#0000ff" cx="660.5438" cy="-18" rx="75.2868" ry="18"/>
<text text-anchor="middle" x="660.5438" y="-14.3" font-family="Times,serif" font-size="14.00" fill="#000000">narrative text</text>
</g>
<!-- ontology class&#45;&gt;description -->
<g id="edge6" class="edge">
<title>ontology class&#45;&gt;description</title>
<path fill="none" stroke="#0000ff" d="M601.0839,-86.9735C611.9157,-74.4087 626.5217,-57.4657 638.5466,-43.5168"/>
<polygon fill="#0000ff" stroke="#0000ff" points="641.4018,-45.5651 645.2803,-35.7057 636.0999,-40.9945 641.4018,-45.5651"/>
<text text-anchor="middle" x="668.5438" y="-57.8" font-family="Times,serif" font-size="14.00" fill="#000000">description</text>
</g>
<!-- source -->
<g id="node8" class="node">
<title>source</title>
<ellipse fill="none" stroke="#0000ff" cx="810.5438" cy="-18" rx="56.59" ry="18"/>
<text text-anchor="middle" x="810.5438" y="-14.3" font-family="Times,serif" font-size="14.00" fill="#000000">label type</text>
</g>
<!-- ontology class&#45;&gt;source -->
<g id="edge7" class="edge">
<title>ontology class&#45;&gt;source</title>
<path fill="none" stroke="#0000ff" d="M640.5667,-92.2332C663.4936,-86.221 690.1685,-78.3123 713.5438,-69 734.4654,-60.6653 756.7772,-49.1348 774.721,-39.1458"/>
<polygon fill="#0000ff" stroke="#0000ff" points="776.6901,-42.0534 783.6758,-34.0878 773.2474,-35.9584 776.6901,-42.0534"/>
<text text-anchor="middle" x="771.0438" y="-57.8" font-family="Times,serif" font-size="14.00" fill="#000000">source</text>
</g>
<!-- provided by -->
<g id="node9" class="node">
<title>provided by</title>
<ellipse fill="none" stroke="#0000ff" cx="922.5438" cy="-18" rx="37.0935" ry="18"/>
<text text-anchor="middle" x="922.5438" y="-14.3" font-family="Times,serif" font-size="14.00" fill="#000000">agent</text>
</g>
<!-- ontology class&#45;&gt;provided by -->
<g id="edge8" class="edge">
<title>ontology class&#45;&gt;provided by</title>
<path fill="none" stroke="#0000ff" d="M641.8779,-92.6486C651.7435,-90.646 661.927,-88.6807 671.5438,-87 728.1348,-77.11 744.1215,-84.123 799.5438,-69 830.0605,-60.673 863.0959,-46.6767 887.2385,-35.451"/>
<polygon fill="#0000ff" stroke="#0000ff" points="888.8073,-38.5808 896.356,-31.1467 885.8189,-32.2508 888.8073,-38.5808"/>
<text text-anchor="middle" x="884.0438" y="-57.8" font-family="Times,serif" font-size="14.00" fill="#000000">provided by</text>
</g>
<!-- has attribute -->
<g id="node10" class="node">
<title>has attribute</title>
<ellipse fill="none" stroke="#0000ff" cx="1029.5438" cy="-18" rx="51.9908" ry="18"/>
<text text-anchor="middle" x="1029.5438" y="-14.3" font-family="Times,serif" font-size="14.00" fill="#000000">attribute</text>
</g>
<!-- ontology class&#45;&gt;has attribute -->
<g id="edge9" class="edge">
<title>ontology class&#45;&gt;has attribute</title>
<path fill="none" stroke="#0000ff" d="M640.8634,-92.2586C651.0252,-90.25 661.5716,-88.3835 671.5438,-87 785.8379,-71.1434 819.4141,-100.0603 930.5438,-69 953.7467,-62.5149 977.8174,-50.2597 996.4137,-39.3881"/>
<polygon fill="#0000ff" stroke="#0000ff" points="998.2994,-42.3384 1005.0753,-34.1936 994.6991,-36.3352 998.2994,-42.3384"/>
<text text-anchor="middle" x="1014.5438" y="-57.8" font-family="Times,serif" font-size="14.00" fill="#000000">has attribute</text>
</g>
<!-- category -->
<g id="node11" class="node">
<title>category</title>
<ellipse fill="none" stroke="#000000" cx="1151.5438" cy="-18" rx="51.9908" ry="18"/>
<text text-anchor="middle" x="1151.5438" y="-14.3" font-family="Times,serif" font-size="14.00" fill="#000000">category</text>
</g>
<!-- ontology class&#45;&gt;category -->
<g id="edge10" class="edge">
<title>ontology class&#45;&gt;category</title>
<path fill="none" stroke="#0000ff" d="M640.3757,-92.1534C650.6819,-90.1292 661.4046,-88.2842 671.5438,-87 758.496,-75.9867 981.5684,-94.1018 1065.5438,-69 1085.751,-62.9597 1106.1489,-51.165 1122.0049,-40.4387"/>
<polygon fill="#0000ff" stroke="#0000ff" points="1124.1227,-43.2288 1130.3164,-34.6329 1120.1141,-37.4902 1124.1227,-43.2288"/>
<text text-anchor="middle" x="1129.5438" y="-57.8" font-family="Times,serif" font-size="14.00" fill="#000000">category</text>
</g>
<!-- named thing_category -->
<g id="node12" class="node">
<title>named thing_category</title>
<ellipse fill="none" stroke="#0000ff" cx="750.5438" cy="-105" rx="69.5877" ry="18"/>
<text text-anchor="middle" x="750.5438" y="-101.3" font-family="Times,serif" font-size="14.00" fill="#000000">named thing</text>
</g>
</g>
</svg>
