<?xml version="1.0" encoding="UTF-8" standalone="no"?>
<!DOCTYPE svg PUBLIC "-//W3C//DTD SVG 1.1//EN"
 "http://www.w3.org/Graphics/SVG/1.1/DTD/svg11.dtd">
<!-- Generated by graphviz version 2.43.0 (0)
 -->
<!-- Title: %3 Pages: 1 -->
<svg width="4915pt" height="291pt"
 viewBox="0.00 0.00 4914.99 291.00" xmlns="http://www.w3.org/2000/svg" xmlns:xlink="http://www.w3.org/1999/xlink">
<g id="graph0" class="graph" transform="scale(1 1) rotate(0) translate(4 287)">
<title>%3</title>
<polygon fill="white" stroke="transparent" points="-4,4 -4,-287 4910.99,-287 4910.99,4 -4,4"/>
<!-- organism taxon to environment association -->
<g id="node1" class="node">
<title>organism taxon to environment association</title>
<ellipse fill="none" stroke="black" cx="2552.39" cy="-265" rx="211.76" ry="18"/>
<text text-anchor="middle" x="2552.39" y="-261.3" font-family="Times,serif" font-size="14.00">organism taxon to environment association</text>
</g>
<!-- association -->
<g id="node2" class="node">
<title>association</title>
<ellipse fill="none" stroke="black" cx="62.39" cy="-178" rx="62.29" ry="18"/>
<text text-anchor="middle" x="62.39" y="-174.3" font-family="Times,serif" font-size="14.00">association</text>
</g>
<!-- organism taxon to environment association&#45;&gt;association -->
<g id="edge1" class="edge">
<title>organism taxon to environment association&#45;&gt;association</title>
<path fill="none" stroke="black" d="M2342.26,-262.5C1890.89,-258.93 840.8,-248.74 484.39,-229 327.95,-220.33 287.97,-221.64 133.39,-196 128,-195.11 122.41,-194.03 116.84,-192.86"/>
<polygon fill="black" stroke="black" points="117.41,-189.4 106.89,-190.67 115.9,-196.24 117.41,-189.4"/>
<text text-anchor="middle" x="498.39" y="-217.8" font-family="Times,serif" font-size="14.00">is_a</text>
</g>
<!-- organism taxon to entity association -->
<g id="node3" class="node">
<title>organism taxon to entity association</title>
<ellipse fill="none" stroke="black" cx="322.39" cy="-178" rx="180.07" ry="18"/>
<text text-anchor="middle" x="322.39" y="-174.3" font-family="Times,serif" font-size="14.00">organism taxon to entity association</text>
</g>
<!-- organism taxon to environment association&#45;&gt;organism taxon to entity association -->
<g id="edge2" class="edge">
<title>organism taxon to environment association&#45;&gt;organism taxon to entity association</title>
<path fill="none" stroke="black" d="M2340.84,-263.85C1913.91,-262.93 962.32,-257.62 637.39,-229 559.77,-222.16 472.31,-207.74 409.27,-196.13"/>
<polygon fill="black" stroke="black" points="409.84,-192.67 399.37,-194.29 408.56,-199.56 409.84,-192.67"/>
<text text-anchor="middle" x="653.89" y="-217.8" font-family="Times,serif" font-size="14.00">uses</text>
</g>
<!-- id -->
<g id="node4" class="node">
<title>id</title>
<ellipse fill="none" stroke="blue" cx="558.39" cy="-178" rx="38.19" ry="18"/>
<text text-anchor="middle" x="558.39" y="-174.3" font-family="Times,serif" font-size="14.00">string</text>
</g>
<!-- organism taxon to environment association&#45;&gt;id -->
<g id="edge3" class="edge">
<title>organism taxon to environment association&#45;&gt;id</title>
<path fill="none" stroke="blue" d="M2340.44,-264.8C1935.03,-265.51 1063.45,-262.86 764.39,-229 693.11,-220.93 675.47,-215.35 606.39,-196 603.29,-195.13 600.09,-194.16 596.89,-193.14"/>
<polygon fill="blue" stroke="blue" points="597.98,-189.81 587.38,-189.97 595.76,-196.46 597.98,-189.81"/>
<text text-anchor="middle" x="771.39" y="-217.8" font-family="Times,serif" font-size="14.00">id</text>
</g>
<!-- iri -->
<g id="node5" class="node">
<title>iri</title>
<ellipse fill="none" stroke="blue" cx="659.39" cy="-178" rx="44.39" ry="18"/>
<text text-anchor="middle" x="659.39" y="-174.3" font-family="Times,serif" font-size="14.00">iri type</text>
</g>
<!-- organism taxon to environment association&#45;&gt;iri -->
<g id="edge4" class="edge">
<title>organism taxon to environment association&#45;&gt;iri</title>
<path fill="none" stroke="blue" d="M2340.43,-264.55C1953.51,-264.73 1147.01,-261.08 868.39,-229 797.99,-220.89 780.89,-214.18 712.39,-196 709.02,-195.11 705.55,-194.12 702.07,-193.1"/>
<polygon fill="blue" stroke="blue" points="702.91,-189.7 692.32,-190.13 700.87,-196.39 702.91,-189.7"/>
<text text-anchor="middle" x="876.39" y="-217.8" font-family="Times,serif" font-size="14.00">iri</text>
</g>
<!-- name -->
<g id="node6" class="node">
<title>name</title>
<ellipse fill="none" stroke="blue" cx="778.39" cy="-178" rx="56.59" ry="18"/>
<text text-anchor="middle" x="778.39" y="-174.3" font-family="Times,serif" font-size="14.00">label type</text>
</g>
<!-- organism taxon to environment association&#45;&gt;name -->
<g id="edge5" class="edge">
<title>organism taxon to environment association&#45;&gt;name</title>
<path fill="none" stroke="blue" d="M2342.76,-262.32C1941.01,-258.68 1090.53,-248.74 957.39,-229 911.15,-222.15 859.92,-207.04 824.16,-195.21"/>
<polygon fill="blue" stroke="blue" points="825.09,-191.83 814.5,-191.97 822.86,-198.47 825.09,-191.83"/>
<text text-anchor="middle" x="977.39" y="-217.8" font-family="Times,serif" font-size="14.00">name</text>
</g>
<!-- description -->
<g id="node7" class="node">
<title>description</title>
<ellipse fill="none" stroke="blue" cx="928.39" cy="-178" rx="75.29" ry="18"/>
<text text-anchor="middle" x="928.39" y="-174.3" font-family="Times,serif" font-size="14.00">narrative text</text>
</g>
<!-- organism taxon to environment association&#45;&gt;description -->
<g id="edge6" class="edge">
<title>organism taxon to environment association&#45;&gt;description</title>
<path fill="none" stroke="blue" d="M2341.14,-263.41C1956.74,-261.7 1171.11,-255.03 1048.39,-229 1019.87,-222.95 989.57,-210.27 966.56,-199.2"/>
<polygon fill="blue" stroke="blue" points="968,-196 957.48,-194.73 964.91,-202.29 968,-196"/>
<text text-anchor="middle" x="1088.89" y="-217.8" font-family="Times,serif" font-size="14.00">description</text>
</g>
<!-- has attribute -->
<g id="node8" class="node">
<title>has attribute</title>
<ellipse fill="none" stroke="blue" cx="1073.39" cy="-178" rx="51.99" ry="18"/>
<text text-anchor="middle" x="1073.39" y="-174.3" font-family="Times,serif" font-size="14.00">attribute</text>
</g>
<!-- organism taxon to environment association&#45;&gt;has attribute -->
<g id="edge7" class="edge">
<title>organism taxon to environment association&#45;&gt;has attribute</title>
<path fill="none" stroke="blue" d="M2341.03,-263.69C1982.5,-262.42 1283.19,-256.39 1173.39,-229 1149.28,-222.98 1124.27,-210.48 1105.29,-199.48"/>
<polygon fill="blue" stroke="blue" points="1106.88,-196.35 1096.49,-194.23 1103.29,-202.36 1106.88,-196.35"/>
<text text-anchor="middle" x="1220.39" y="-217.8" font-family="Times,serif" font-size="14.00">has attribute</text>
</g>
<!-- negated -->
<g id="node9" class="node">
<title>negated</title>
<ellipse fill="none" stroke="blue" cx="1190.39" cy="-178" rx="46.59" ry="18"/>
<text text-anchor="middle" x="1190.39" y="-174.3" font-family="Times,serif" font-size="14.00">boolean</text>
</g>
<!-- organism taxon to environment association&#45;&gt;negated -->
<g id="edge8" class="edge">
<title>organism taxon to environment association&#45;&gt;negated</title>
<path fill="none" stroke="blue" d="M2343.58,-261.81C2018.95,-257.84 1420.26,-248.04 1323.39,-229 1289.76,-222.39 1253.46,-208.23 1227.3,-196.66"/>
<polygon fill="blue" stroke="blue" points="1228.69,-193.45 1218.14,-192.53 1225.82,-199.83 1228.69,-193.45"/>
<text text-anchor="middle" x="1352.39" y="-217.8" font-family="Times,serif" font-size="14.00">negated</text>
</g>
<!-- qualifiers -->
<g id="node10" class="node">
<title>qualifiers</title>
<ellipse fill="none" stroke="blue" cx="1331.39" cy="-178" rx="76.89" ry="18"/>
<text text-anchor="middle" x="1331.39" y="-174.3" font-family="Times,serif" font-size="14.00">ontology class</text>
</g>
<!-- organism taxon to environment association&#45;&gt;qualifiers -->
<g id="edge9" class="edge">
<title>organism taxon to environment association&#45;&gt;qualifiers</title>
<path fill="none" stroke="blue" d="M2342,-262.85C2039.18,-260.37 1507.27,-252.68 1421.39,-229 1400.46,-223.23 1379.12,-211.67 1362.48,-201.12"/>
<polygon fill="blue" stroke="blue" points="1364.04,-197.96 1353.75,-195.41 1360.2,-203.81 1364.04,-197.96"/>
<text text-anchor="middle" x="1454.89" y="-217.8" font-family="Times,serif" font-size="14.00">qualifiers</text>
</g>
<!-- publications -->
<g id="node11" class="node">
<title>publications</title>
<ellipse fill="none" stroke="blue" cx="1488.39" cy="-178" rx="62.29" ry="18"/>
<text text-anchor="middle" x="1488.39" y="-174.3" font-family="Times,serif" font-size="14.00">publication</text>
</g>
<!-- organism taxon to environment association&#45;&gt;publications -->
<g id="edge10" class="edge">
<title>organism taxon to environment association&#45;&gt;publications</title>
<path fill="none" stroke="blue" d="M2341.34,-263.3C2044.18,-261.4 1534.79,-254.43 1502.39,-229 1495.36,-223.48 1491.68,-214.73 1489.8,-206.08"/>
<polygon fill="blue" stroke="blue" points="1493.26,-205.56 1488.34,-196.18 1486.34,-206.58 1493.26,-205.56"/>
<text text-anchor="middle" x="1546.39" y="-217.8" font-family="Times,serif" font-size="14.00">publications</text>
</g>
<!-- has evidence -->
<g id="node12" class="node">
<title>has evidence</title>
<ellipse fill="none" stroke="blue" cx="1644.39" cy="-178" rx="75.29" ry="18"/>
<text text-anchor="middle" x="1644.39" y="-174.3" font-family="Times,serif" font-size="14.00">evidence type</text>
</g>
<!-- organism taxon to environment association&#45;&gt;has evidence -->
<g id="edge11" class="edge">
<title>organism taxon to environment association&#45;&gt;has evidence</title>
<path fill="none" stroke="blue" d="M2341.16,-263.59C2067.95,-261.99 1623.78,-255.33 1598.39,-229 1589.63,-219.91 1596.24,-209.68 1606.89,-200.86"/>
<polygon fill="blue" stroke="blue" points="1609.24,-203.47 1615.2,-194.71 1605.08,-197.84 1609.24,-203.47"/>
<text text-anchor="middle" x="1644.89" y="-217.8" font-family="Times,serif" font-size="14.00">has evidence</text>
</g>
<!-- knowledge source -->
<g id="node13" class="node">
<title>knowledge source</title>
<ellipse fill="none" stroke="blue" cx="1776.39" cy="-178" rx="38.19" ry="18"/>
<text text-anchor="middle" x="1776.39" y="-174.3" font-family="Times,serif" font-size="14.00">string</text>
</g>
<!-- organism taxon to environment association&#45;&gt;knowledge source -->
<g id="edge12" class="edge">
<title>organism taxon to environment association&#45;&gt;knowledge source</title>
<path fill="none" stroke="blue" d="M2342.42,-262.58C2096.76,-259.87 1720.44,-251.97 1698.39,-229 1693.78,-224.19 1694.77,-219.6 1698.39,-214 1700.93,-210.08 1719.8,-201.57 1738.34,-193.92"/>
<polygon fill="blue" stroke="blue" points="1739.68,-197.15 1747.63,-190.14 1737.04,-190.67 1739.68,-197.15"/>
<text text-anchor="middle" x="1762.89" y="-217.8" font-family="Times,serif" font-size="14.00">knowledge source</text>
</g>
<!-- primary knowledge source -->
<g id="node14" class="node">
<title>primary knowledge source</title>
<ellipse fill="none" stroke="blue" cx="1871.39" cy="-178" rx="38.19" ry="18"/>
<text text-anchor="middle" x="1871.39" y="-174.3" font-family="Times,serif" font-size="14.00">string</text>
</g>
<!-- organism taxon to environment association&#45;&gt;primary knowledge source -->
<g id="edge13" class="edge">
<title>organism taxon to environment association&#45;&gt;primary knowledge source</title>
<path fill="none" stroke="blue" d="M2345.8,-260.83C2139.98,-256.62 1851.99,-247.47 1834.39,-229 1825.82,-220 1832.43,-208.99 1842.31,-199.59"/>
<polygon fill="blue" stroke="blue" points="1844.59,-202.25 1849.91,-193.09 1840.03,-196.93 1844.59,-202.25"/>
<text text-anchor="middle" x="1929.39" y="-217.8" font-family="Times,serif" font-size="14.00">primary knowledge source</text>
</g>
<!-- aggregator knowledge source -->
<g id="node15" class="node">
<title>aggregator knowledge source</title>
<ellipse fill="none" stroke="blue" cx="2013.39" cy="-178" rx="38.19" ry="18"/>
<text text-anchor="middle" x="2013.39" y="-174.3" font-family="Times,serif" font-size="14.00">string</text>
</g>
<!-- organism taxon to environment association&#45;&gt;aggregator knowledge source -->
<g id="edge14" class="edge">
<title>organism taxon to environment association&#45;&gt;aggregator knowledge source</title>
<path fill="none" stroke="blue" d="M2351.84,-259.15C2220.7,-254.46 2068.93,-245.52 2042.39,-229 2033.54,-223.49 2027.1,-214.21 2022.57,-205.14"/>
<polygon fill="blue" stroke="blue" points="2025.74,-203.67 2018.52,-195.92 2019.33,-206.48 2025.74,-203.67"/>
<text text-anchor="middle" x="2148.89" y="-217.8" font-family="Times,serif" font-size="14.00">aggregator knowledge source</text>
</g>
<!-- timepoint -->
<g id="node16" class="node">
<title>timepoint</title>
<ellipse fill="none" stroke="blue" cx="2239.39" cy="-178" rx="55.49" ry="18"/>
<text text-anchor="middle" x="2239.39" y="-174.3" font-family="Times,serif" font-size="14.00">time type</text>
</g>
<!-- organism taxon to environment association&#45;&gt;timepoint -->
<g id="edge15" class="edge">
<title>organism taxon to environment association&#45;&gt;timepoint</title>
<path fill="none" stroke="blue" d="M2383.94,-254C2337.34,-248.79 2294.13,-240.9 2274.39,-229 2265,-223.34 2257.48,-214.08 2251.86,-205.06"/>
<polygon fill="blue" stroke="blue" points="2254.85,-203.23 2246.87,-196.26 2248.76,-206.69 2254.85,-203.23"/>
<text text-anchor="middle" x="2309.39" y="-217.8" font-family="Times,serif" font-size="14.00">timepoint</text>
</g>
<!-- original subject -->
<g id="node17" class="node">
<title>original subject</title>
<ellipse fill="none" stroke="blue" cx="2351.39" cy="-178" rx="38.19" ry="18"/>
<text text-anchor="middle" x="2351.39" y="-174.3" font-family="Times,serif" font-size="14.00">string</text>
</g>
<!-- organism taxon to environment association&#45;&gt;original subject -->
<g id="edge16" class="edge">
<title>organism taxon to environment association&#45;&gt;original subject</title>
<path fill="none" stroke="blue" d="M2411.47,-251.51C2385.37,-246.38 2363.45,-239.16 2354.39,-229 2348.94,-222.88 2347.1,-214.5 2346.94,-206.34"/>
<polygon fill="blue" stroke="blue" points="2350.44,-206.5 2347.51,-196.32 2343.45,-206.1 2350.44,-206.5"/>
<text text-anchor="middle" x="2410.39" y="-217.8" font-family="Times,serif" font-size="14.00">original subject</text>
</g>
<!-- original predicate -->
<g id="node18" class="node">
<title>original predicate</title>
<ellipse fill="none" stroke="blue" cx="2477.39" cy="-178" rx="57.39" ry="18"/>
<text text-anchor="middle" x="2477.39" y="-174.3" font-family="Times,serif" font-size="14.00">uriorcurie</text>
</g>
<!-- organism taxon to environment association&#45;&gt;original predicate -->
<g id="edge17" class="edge">
<title>organism taxon to environment association&#45;&gt;original predicate</title>
<path fill="none" stroke="blue" d="M2494.52,-247.47C2486.55,-242.76 2479.4,-236.73 2474.39,-229 2470.06,-222.3 2469.22,-213.98 2469.92,-206.06"/>
<polygon fill="blue" stroke="blue" points="2473.4,-206.48 2471.57,-196.05 2466.49,-205.34 2473.4,-206.48"/>
<text text-anchor="middle" x="2537.89" y="-217.8" font-family="Times,serif" font-size="14.00">original predicate</text>
</g>
<!-- original object -->
<g id="node19" class="node">
<title>original object</title>
<ellipse fill="none" stroke="blue" cx="2611.39" cy="-178" rx="38.19" ry="18"/>
<text text-anchor="middle" x="2611.39" y="-174.3" font-family="Times,serif" font-size="14.00">string</text>
</g>
<!-- organism taxon to environment association&#45;&gt;original object -->
<g id="edge18" class="edge">
<title>organism taxon to environment association&#45;&gt;original object</title>
<path fill="none" stroke="blue" d="M2587.35,-247.19C2594.36,-242.27 2600.93,-236.22 2605.39,-229 2609.5,-222.35 2611.47,-214.25 2612.3,-206.52"/>
<polygon fill="blue" stroke="blue" points="2615.8,-206.55 2612.81,-196.39 2608.81,-206.2 2615.8,-206.55"/>
<text text-anchor="middle" x="2662.89" y="-217.8" font-family="Times,serif" font-size="14.00">original object</text>
</g>
<!-- subject category -->
<g id="node20" class="node">
<title>subject category</title>
<ellipse fill="none" stroke="blue" cx="2744.39" cy="-178" rx="76.89" ry="18"/>
<text text-anchor="middle" x="2744.39" y="-174.3" font-family="Times,serif" font-size="14.00">ontology class</text>
</g>
<!-- organism taxon to environment association&#45;&gt;subject category -->
<g id="edge19" class="edge">
<title>organism taxon to environment association&#45;&gt;subject category</title>
<path fill="none" stroke="blue" d="M2656.64,-249.31C2683.4,-243.95 2707.66,-237.15 2718.39,-229 2726.09,-223.15 2731.72,-214.37 2735.73,-205.79"/>
<polygon fill="blue" stroke="blue" points="2739.05,-206.93 2739.6,-196.35 2732.57,-204.28 2739.05,-206.93"/>
<text text-anchor="middle" x="2790.89" y="-217.8" font-family="Times,serif" font-size="14.00">subject category</text>
</g>
<!-- object category -->
<g id="node21" class="node">
<title>object category</title>
<ellipse fill="none" stroke="blue" cx="2915.39" cy="-178" rx="76.89" ry="18"/>
<text text-anchor="middle" x="2915.39" y="-174.3" font-family="Times,serif" font-size="14.00">ontology class</text>
</g>
<!-- organism taxon to environment association&#45;&gt;object category -->
<g id="edge20" class="edge">
<title>organism taxon to environment association&#45;&gt;object category</title>
<path fill="none" stroke="blue" d="M2714.61,-253.36C2771.9,-247.87 2828.52,-239.97 2854.39,-229 2868.6,-222.98 2882.11,-212.57 2892.8,-202.81"/>
<polygon fill="blue" stroke="blue" points="2895.23,-205.32 2900.04,-195.89 2890.39,-200.26 2895.23,-205.32"/>
<text text-anchor="middle" x="2934.89" y="-217.8" font-family="Times,serif" font-size="14.00">object category</text>
</g>
<!-- subject closure -->
<g id="node22" class="node">
<title>subject closure</title>
<ellipse fill="none" stroke="blue" cx="3048.39" cy="-178" rx="38.19" ry="18"/>
<text text-anchor="middle" x="3048.39" y="-174.3" font-family="Times,serif" font-size="14.00">string</text>
</g>
<!-- organism taxon to environment association&#45;&gt;subject closure -->
<g id="edge21" class="edge">
<title>organism taxon to environment association&#45;&gt;subject closure</title>
<path fill="none" stroke="blue" d="M2703.4,-252.33C2830.75,-242.44 2992.69,-229.75 2994.39,-229 3007.69,-223.17 3019.82,-212.67 3029.2,-202.79"/>
<polygon fill="blue" stroke="blue" points="3032.03,-204.88 3036.11,-195.1 3026.82,-200.2 3032.03,-204.88"/>
<text text-anchor="middle" x="3070.89" y="-217.8" font-family="Times,serif" font-size="14.00">subject closure</text>
</g>
<!-- object closure -->
<g id="node23" class="node">
<title>object closure</title>
<ellipse fill="none" stroke="blue" cx="3156.39" cy="-178" rx="38.19" ry="18"/>
<text text-anchor="middle" x="3156.39" y="-174.3" font-family="Times,serif" font-size="14.00">string</text>
</g>
<!-- organism taxon to environment association&#45;&gt;object closure -->
<g id="edge22" class="edge">
<title>organism taxon to environment association&#45;&gt;object closure</title>
<path fill="none" stroke="blue" d="M2700.36,-252.08C2724.75,-250.27 2749.78,-248.51 2773.39,-247 2812.92,-244.48 3095.9,-250.14 3129.39,-229 3137.97,-223.59 3144.01,-214.46 3148.17,-205.47"/>
<polygon fill="blue" stroke="blue" points="3151.52,-206.54 3151.98,-195.95 3145.02,-203.94 3151.52,-206.54"/>
<text text-anchor="middle" x="3193.39" y="-217.8" font-family="Times,serif" font-size="14.00">object closure</text>
</g>
<!-- subject category closure -->
<g id="node24" class="node">
<title>subject category closure</title>
<ellipse fill="none" stroke="blue" cx="3289.39" cy="-178" rx="76.89" ry="18"/>
<text text-anchor="middle" x="3289.39" y="-174.3" font-family="Times,serif" font-size="14.00">ontology class</text>
</g>
<!-- organism taxon to environment association&#45;&gt;subject category closure -->
<g id="edge23" class="edge">
<title>organism taxon to environment association&#45;&gt;subject category closure</title>
<path fill="none" stroke="blue" d="M2698.56,-251.95C2723.52,-250.13 2749.19,-248.39 2773.39,-247 2826.01,-243.98 3200.05,-252.16 3247.39,-229 3258.31,-223.66 3267.45,-214.03 3274.38,-204.63"/>
<polygon fill="blue" stroke="blue" points="3277.39,-206.43 3280.12,-196.2 3271.6,-202.5 3277.39,-206.43"/>
<text text-anchor="middle" x="3353.89" y="-217.8" font-family="Times,serif" font-size="14.00">subject category closure</text>
</g>
<!-- object category closure -->
<g id="node25" class="node">
<title>object category closure</title>
<ellipse fill="none" stroke="blue" cx="3482.39" cy="-178" rx="76.89" ry="18"/>
<text text-anchor="middle" x="3482.39" y="-174.3" font-family="Times,serif" font-size="14.00">ontology class</text>
</g>
<!-- organism taxon to environment association&#45;&gt;object category closure -->
<g id="edge24" class="edge">
<title>organism taxon to environment association&#45;&gt;object category closure</title>
<path fill="none" stroke="blue" d="M2697.06,-251.83C2722.49,-249.99 2748.7,-248.28 2773.39,-247 2810.69,-245.07 3412.27,-246.25 3445.39,-229 3455.56,-223.71 3463.65,-214.21 3469.64,-204.91"/>
<polygon fill="blue" stroke="blue" points="3472.72,-206.59 3474.75,-196.19 3466.67,-203.05 3472.72,-206.59"/>
<text text-anchor="middle" x="3545.89" y="-217.8" font-family="Times,serif" font-size="14.00">object category closure</text>
</g>
<!-- subject namespace -->
<g id="node26" class="node">
<title>subject namespace</title>
<ellipse fill="none" stroke="blue" cx="3672.39" cy="-178" rx="38.19" ry="18"/>
<text text-anchor="middle" x="3672.39" y="-174.3" font-family="Times,serif" font-size="14.00">string</text>
</g>
<!-- organism taxon to environment association&#45;&gt;subject namespace -->
<g id="edge25" class="edge">
<title>organism taxon to environment association&#45;&gt;subject namespace</title>
<path fill="none" stroke="blue" d="M2696.17,-251.77C2721.87,-249.92 2748.41,-248.22 2773.39,-247 2821.13,-244.67 3590.67,-250.41 3633.39,-229 3644.09,-223.64 3652.74,-213.81 3659.15,-204.28"/>
<polygon fill="blue" stroke="blue" points="3662.14,-206.1 3664.39,-195.75 3656.17,-202.43 3662.14,-206.1"/>
<text text-anchor="middle" x="3719.39" y="-217.8" font-family="Times,serif" font-size="14.00">subject namespace</text>
</g>
<!-- object namespace -->
<g id="node27" class="node">
<title>object namespace</title>
<ellipse fill="none" stroke="blue" cx="3831.39" cy="-178" rx="38.19" ry="18"/>
<text text-anchor="middle" x="3831.39" y="-174.3" font-family="Times,serif" font-size="14.00">string</text>
</g>
<!-- organism taxon to environment association&#45;&gt;object namespace -->
<g id="edge26" class="edge">
<title>organism taxon to environment association&#45;&gt;object namespace</title>
<path fill="none" stroke="blue" d="M2695.87,-251.72C2721.66,-249.87 2748.31,-248.19 2773.39,-247 2829.9,-244.33 3740.63,-253.95 3791.39,-229 3802.24,-223.67 3811.09,-213.85 3817.68,-204.31"/>
<polygon fill="blue" stroke="blue" points="3820.69,-206.09 3823.09,-195.77 3814.78,-202.35 3820.69,-206.09"/>
<text text-anchor="middle" x="3873.39" y="-217.8" font-family="Times,serif" font-size="14.00">object namespace</text>
</g>
<!-- subject label closure -->
<g id="node28" class="node">
<title>subject label closure</title>
<ellipse fill="none" stroke="blue" cx="3982.39" cy="-178" rx="38.19" ry="18"/>
<text text-anchor="middle" x="3982.39" y="-174.3" font-family="Times,serif" font-size="14.00">string</text>
</g>
<!-- organism taxon to environment association&#45;&gt;subject label closure -->
<g id="edge27" class="edge">
<title>organism taxon to environment association&#45;&gt;subject label closure</title>
<path fill="none" stroke="blue" d="M2695.57,-251.7C2721.45,-249.84 2748.22,-248.16 2773.39,-247 2805.81,-245.5 3912.17,-243.1 3941.39,-229 3952.39,-223.69 3961.44,-213.88 3968.21,-204.34"/>
<polygon fill="blue" stroke="blue" points="3971.25,-206.08 3973.78,-195.79 3965.39,-202.26 3971.25,-206.08"/>
<text text-anchor="middle" x="4033.39" y="-217.8" font-family="Times,serif" font-size="14.00">subject label closure</text>
</g>
<!-- object label closure -->
<g id="node29" class="node">
<title>object label closure</title>
<ellipse fill="none" stroke="blue" cx="4153.39" cy="-178" rx="38.19" ry="18"/>
<text text-anchor="middle" x="4153.39" y="-174.3" font-family="Times,serif" font-size="14.00">string</text>
</g>
<!-- organism taxon to environment association&#45;&gt;object label closure -->
<g id="edge28" class="edge">
<title>organism taxon to environment association&#45;&gt;object label closure</title>
<path fill="none" stroke="blue" d="M2695.27,-251.68C2721.25,-249.82 2748.12,-248.14 2773.39,-247 2810.53,-245.32 4077.81,-244.93 4111.39,-229 4122.53,-223.72 4131.78,-213.91 4138.74,-204.36"/>
<polygon fill="blue" stroke="blue" points="4141.82,-206.07 4144.48,-195.81 4136,-202.17 4141.82,-206.07"/>
<text text-anchor="middle" x="4200.89" y="-217.8" font-family="Times,serif" font-size="14.00">object label closure</text>
</g>
<!-- retrieval source ids -->
<g id="node30" class="node">
<title>retrieval source ids</title>
<ellipse fill="none" stroke="blue" cx="4306.39" cy="-178" rx="84.49" ry="18"/>
<text text-anchor="middle" x="4306.39" y="-174.3" font-family="Times,serif" font-size="14.00">retrieval source</text>
</g>
<!-- organism taxon to environment association&#45;&gt;retrieval source ids -->
<g id="edge29" class="edge">
<title>organism taxon to environment association&#45;&gt;retrieval source ids</title>
<path fill="none" stroke="blue" d="M2694.97,-251.67C2721.04,-249.8 2748.02,-248.13 2773.39,-247 2815.05,-245.15 4237.94,-249.24 4274.39,-229 4283.86,-223.75 4290.94,-214.39 4296,-205.18"/>
<polygon fill="blue" stroke="blue" points="4299.16,-206.7 4300.41,-196.18 4292.87,-203.63 4299.16,-206.7"/>
<text text-anchor="middle" x="4359.89" y="-217.8" font-family="Times,serif" font-size="14.00">retrieval source ids</text>
</g>
<!-- type -->
<g id="node31" class="node">
<title>type</title>
<ellipse fill="none" stroke="black" cx="4440.39" cy="-178" rx="31.4" ry="18"/>
<text text-anchor="middle" x="4440.39" y="-174.3" font-family="Times,serif" font-size="14.00">type</text>
</g>
<!-- organism taxon to environment association&#45;&gt;type -->
<g id="edge30" class="edge">
<title>organism taxon to environment association&#45;&gt;type</title>
<path fill="none" stroke="blue" d="M2694.97,-251.65C2721.04,-249.78 2748.02,-248.11 2773.39,-247 2796.43,-245.99 4416.08,-244.23 4433.39,-229 4439.85,-223.32 4442.39,-214.65 4443.06,-206.12"/>
<polygon fill="blue" stroke="blue" points="4446.56,-206 4443.09,-195.99 4439.56,-205.97 4446.56,-206"/>
<text text-anchor="middle" x="4458.39" y="-217.8" font-family="Times,serif" font-size="14.00">type</text>
</g>
<!-- category -->
<g id="node33" class="node">
<title>category</title>
<ellipse fill="none" stroke="black" cx="4541.39" cy="-178" rx="51.19" ry="18"/>
<text text-anchor="middle" x="4541.39" y="-174.3" font-family="Times,serif" font-size="14.00">category</text>
</g>
<!-- organism taxon to environment association&#45;&gt;category -->
<g id="edge31" class="edge">
<title>organism taxon to environment association&#45;&gt;category</title>
<path fill="none" stroke="blue" d="M2694.67,-251.66C2720.84,-249.79 2747.92,-248.11 2773.39,-247 2820.71,-244.93 4433.75,-244.83 4478.39,-229 4493.64,-223.59 4508,-212.84 4519.14,-202.68"/>
<polygon fill="blue" stroke="blue" points="4521.86,-204.93 4526.65,-195.48 4517.01,-199.87 4521.86,-204.93"/>
<text text-anchor="middle" x="4536.89" y="-217.8" font-family="Times,serif" font-size="14.00">category</text>
</g>
<!-- subject -->
<g id="node35" class="node">
<title>subject</title>
<ellipse fill="none" stroke="black" cx="4655.39" cy="-178" rx="44.39" ry="18"/>
<text text-anchor="middle" x="4655.39" y="-174.3" font-family="Times,serif" font-size="14.00">subject</text>
</g>
<!-- organism taxon to environment association&#45;&gt;subject -->
<g id="edge32" class="edge">
<title>organism taxon to environment association&#45;&gt;subject</title>
<path fill="none" stroke="blue" d="M2694.67,-251.65C2720.84,-249.78 2747.92,-248.11 2773.39,-247 2873.25,-242.66 4476.23,-256.25 4572.39,-229 4592.55,-223.29 4612.74,-211.3 4628.16,-200.49"/>
<polygon fill="blue" stroke="blue" points="4630.62,-203.03 4636.65,-194.32 4626.51,-197.37 4630.62,-203.03"/>
<text text-anchor="middle" x="4632.39" y="-217.8" font-family="Times,serif" font-size="14.00">subject</text>
</g>
<!-- object -->
<g id="node37" class="node">
<title>object</title>
<ellipse fill="none" stroke="black" cx="4698.39" cy="-91" rx="38.99" ry="18"/>
<text text-anchor="middle" x="4698.39" y="-87.3" font-family="Times,serif" font-size="14.00">object</text>
</g>
<!-- organism taxon to environment association&#45;&gt;object -->
<g id="edge33" class="edge">
<title>organism taxon to environment association&#45;&gt;object</title>
<path fill="none" stroke="blue" d="M2694.67,-251.64C2720.84,-249.77 2747.92,-248.1 2773.39,-247 2825.82,-244.74 4612.52,-245.3 4662.39,-229 4686.31,-221.18 4694.35,-216.87 4708.39,-196 4722.18,-175.52 4718.49,-166.51 4721.39,-142 4722.18,-135.38 4723.31,-133.39 4721.39,-127 4720.36,-123.55 4718.87,-120.13 4717.13,-116.85"/>
<polygon fill="blue" stroke="blue" points="4719.98,-114.79 4711.77,-108.09 4714.01,-118.45 4719.98,-114.79"/>
<text text-anchor="middle" x="4742.39" y="-174.3" font-family="Times,serif" font-size="14.00">object</text>
</g>
<!-- predicate -->
<g id="node39" class="node">
<title>predicate</title>
<ellipse fill="none" stroke="black" cx="4852.39" cy="-178" rx="54.69" ry="18"/>
<text text-anchor="middle" x="4852.39" y="-174.3" font-family="Times,serif" font-size="14.00">predicate</text>
</g>
<!-- organism taxon to environment association&#45;&gt;predicate -->
<g id="edge34" class="edge">
<title>organism taxon to environment association&#45;&gt;predicate</title>
<path fill="none" stroke="blue" d="M2694.67,-251.63C2720.84,-249.76 2747.92,-248.09 2773.39,-247 2883.08,-242.29 4642.52,-254.08 4749.39,-229 4774.29,-223.16 4800.17,-210.56 4819.76,-199.48"/>
<polygon fill="blue" stroke="blue" points="4821.68,-202.41 4828.57,-194.36 4818.16,-196.36 4821.68,-202.41"/>
<text text-anchor="middle" x="4825.39" y="-217.8" font-family="Times,serif" font-size="14.00">predicate</text>
</g>
<!-- association_type -->
<g id="node32" class="node">
<title>association_type</title>
<ellipse fill="none" stroke="blue" cx="2820.39" cy="-265" rx="38.19" ry="18"/>
<text text-anchor="middle" x="2820.39" y="-261.3" font-family="Times,serif" font-size="14.00">string</text>
</g>
<!-- association_category -->
<g id="node34" class="node">
<title>association_category</title>
<ellipse fill="none" stroke="blue" cx="2951.39" cy="-265" rx="74.99" ry="18"/>
<text text-anchor="middle" x="2951.39" y="-261.3" font-family="Times,serif" font-size="14.00">category type</text>
</g>
<!-- subject&#45;&gt;object -->
<g id="edge35" class="edge">
<title>subject&#45;&gt;object</title>
<path fill="none" stroke="black" d="M4656.5,-159.55C4657.7,-149.57 4660.2,-137.07 4665.39,-127 4667.62,-122.68 4670.55,-118.52 4673.73,-114.66"/>
<polygon fill="black" stroke="black" points="4676.35,-116.98 4680.49,-107.23 4671.17,-112.27 4676.35,-116.98"/>
<text text-anchor="middle" x="4693.39" y="-130.8" font-family="Times,serif" font-size="14.00">relation</text>
</g>
<!-- relation -->
<g id="node41" class="node">
<title>relation</title>
<ellipse fill="none" stroke="black" cx="4643.39" cy="-18" rx="46.59" ry="18"/>
<text text-anchor="middle" x="4643.39" y="-14.3" font-family="Times,serif" font-size="14.00">relation</text>
</g>
<!-- subject&#45;&gt;relation -->
<g id="edge36" class="edge">
<title>subject&#45;&gt;relation</title>
<path fill="none" stroke="black" stroke-dasharray="1,5" d="M4654.09,-159.79C4652.01,-132.48 4647.95,-78.99 4645.47,-46.38"/>
<polygon fill="black" stroke="black" points="4648.95,-45.89 4644.7,-36.19 4641.97,-46.42 4648.95,-45.89"/>
</g>
<!-- organism taxon to environment association_subject -->
<g id="node36" class="node">
<title>organism taxon to environment association_subject</title>
<ellipse fill="none" stroke="blue" cx="3127.39" cy="-265" rx="83.39" ry="18"/>
<text text-anchor="middle" x="3127.39" y="-261.3" font-family="Times,serif" font-size="14.00">organism taxon</text>
</g>
<!-- object&#45;&gt;relation -->
<g id="edge37" class="edge">
<title>object&#45;&gt;relation</title>
<path fill="none" stroke="black" stroke-dasharray="1,5" d="M4685.91,-73.89C4678.98,-64.94 4670.21,-53.62 4662.44,-43.58"/>
<polygon fill="black" stroke="black" points="4665.1,-41.3 4656.21,-35.54 4659.56,-45.59 4665.1,-41.3"/>
</g>
<!-- organism taxon to environment association_object -->
<g id="node38" class="node">
<title>organism taxon to environment association_object</title>
<ellipse fill="none" stroke="blue" cx="3298.39" cy="-265" rx="69.59" ry="18"/>
<text text-anchor="middle" x="3298.39" y="-261.3" font-family="Times,serif" font-size="14.00">named thing</text>
</g>
<!-- organism taxon to environment association_predicate -->
<g id="node40" class="node">
<title>organism taxon to environment association_predicate</title>
<ellipse fill="none" stroke="blue" cx="3464.39" cy="-265" rx="77.99" ry="18"/>
<text text-anchor="middle" x="3464.39" y="-261.3" font-family="Times,serif" font-size="14.00">predicate type</text>
</g>
</g>
</svg>
