<?xml version="1.0" encoding="UTF-8" standalone="no"?>
<!DOCTYPE svg PUBLIC "-//W3C//DTD SVG 1.1//EN"
 "http://www.w3.org/Graphics/SVG/1.1/DTD/svg11.dtd">
<!-- Generated by graphviz version 2.43.0 (0)
 -->
<!-- Title: %3 Pages: 1 -->
<svg width="2232pt" height="131pt"
 viewBox="0.00 0.00 2231.64 131.00" xmlns="http://www.w3.org/2000/svg" xmlns:xlink="http://www.w3.org/1999/xlink">
<g id="graph0" class="graph" transform="scale(1 1) rotate(0) translate(4 127)">
<title>%3</title>
<polygon fill="white" stroke="transparent" points="-4,4 -4,-127 2227.64,-127 2227.64,4 -4,4"/>
<!-- organismal entity -->
<g id="node1" class="node">
<title>organismal entity</title>
<ellipse fill="none" stroke="black" cx="1140.14" cy="-105" rx="92.88" ry="18"/>
<text text-anchor="middle" x="1140.14" y="-101.3" font-family="Times,serif" font-size="14.00">organismal entity</text>
</g>
<!-- biological entity -->
<g id="node2" class="node">
<title>biological entity</title>
<ellipse fill="none" stroke="black" cx="85.14" cy="-18" rx="85.29" ry="18"/>
<text text-anchor="middle" x="85.14" y="-14.3" font-family="Times,serif" font-size="14.00">biological entity</text>
</g>
<!-- organismal entity&#45;&gt;biological entity -->
<g id="edge1" class="edge">
<title>organismal entity&#45;&gt;biological entity</title>
<path fill="none" stroke="black" d="M1048.67,-101.62C915.01,-97.63 658.56,-88.11 441.14,-69 324.23,-58.72 295.15,-53.78 179.14,-36 171.73,-34.86 164.01,-33.6 156.32,-32.29"/>
<polygon fill="black" stroke="black" points="156.7,-28.8 146.25,-30.54 155.5,-35.7 156.7,-28.8"/>
<text text-anchor="middle" x="455.14" y="-57.8" font-family="Times,serif" font-size="14.00">is_a</text>
</g>
<!-- subject of investigation -->
<g id="node3" class="node">
<title>subject of investigation</title>
<ellipse fill="none" stroke="black" cx="308.14" cy="-18" rx="119.68" ry="18"/>
<text text-anchor="middle" x="308.14" y="-14.3" font-family="Times,serif" font-size="14.00">subject of investigation</text>
</g>
<!-- organismal entity&#45;&gt;subject of investigation -->
<g id="edge2" class="edge">
<title>organismal entity&#45;&gt;subject of investigation</title>
<path fill="none" stroke="black" d="M1048.18,-102.12C934.36,-98.94 734.8,-90.57 565.14,-69 502.16,-60.99 431.39,-46.84 380.08,-35.63"/>
<polygon fill="black" stroke="black" points="380.61,-32.16 370.09,-33.43 379.1,-38.99 380.61,-32.16"/>
<text text-anchor="middle" x="581.64" y="-57.8" font-family="Times,serif" font-size="14.00">uses</text>
</g>
<!-- id -->
<g id="node4" class="node">
<title>id</title>
<ellipse fill="none" stroke="blue" cx="484.14" cy="-18" rx="38.19" ry="18"/>
<text text-anchor="middle" x="484.14" y="-14.3" font-family="Times,serif" font-size="14.00">string</text>
</g>
<!-- organismal entity&#45;&gt;id -->
<g id="edge3" class="edge">
<title>organismal entity&#45;&gt;id</title>
<path fill="none" stroke="blue" d="M1049.94,-100.56C958.24,-96.23 812.25,-87.07 687.14,-69 617.43,-58.93 599.93,-55.13 532.14,-36 529.04,-35.12 525.84,-34.15 522.64,-33.13"/>
<polygon fill="blue" stroke="blue" points="523.73,-29.8 513.14,-29.95 521.51,-36.44 523.73,-29.8"/>
<text text-anchor="middle" x="694.14" y="-57.8" font-family="Times,serif" font-size="14.00">id</text>
</g>
<!-- iri -->
<g id="node5" class="node">
<title>iri</title>
<ellipse fill="none" stroke="blue" cx="585.14" cy="-18" rx="44.39" ry="18"/>
<text text-anchor="middle" x="585.14" y="-14.3" font-family="Times,serif" font-size="14.00">iri type</text>
</g>
<!-- organismal entity&#45;&gt;iri -->
<g id="edge4" class="edge">
<title>organismal entity&#45;&gt;iri</title>
<path fill="none" stroke="blue" d="M1051.92,-99.3C977.07,-94.43 867.04,-85.19 772.14,-69 721.97,-60.44 665.7,-44.5 628.12,-32.92"/>
<polygon fill="blue" stroke="blue" points="629.1,-29.56 618.51,-29.93 627.02,-36.24 629.1,-29.56"/>
<text text-anchor="middle" x="780.14" y="-57.8" font-family="Times,serif" font-size="14.00">iri</text>
</g>
<!-- type -->
<g id="node6" class="node">
<title>type</title>
<ellipse fill="none" stroke="blue" cx="686.14" cy="-18" rx="38.19" ry="18"/>
<text text-anchor="middle" x="686.14" y="-14.3" font-family="Times,serif" font-size="14.00">string</text>
</g>
<!-- organismal entity&#45;&gt;type -->
<g id="edge5" class="edge">
<title>organismal entity&#45;&gt;type</title>
<path fill="none" stroke="blue" d="M1057.02,-96.84C1000.14,-91.19 923.19,-82.06 856.14,-69 800.59,-58.18 787.14,-52.97 733.14,-36 730.39,-35.13 727.55,-34.21 724.71,-33.25"/>
<polygon fill="blue" stroke="blue" points="725.69,-29.88 715.09,-29.91 723.39,-36.49 725.69,-29.88"/>
<text text-anchor="middle" x="872.14" y="-57.8" font-family="Times,serif" font-size="14.00">type</text>
</g>
<!-- name -->
<g id="node7" class="node">
<title>name</title>
<ellipse fill="none" stroke="blue" cx="799.14" cy="-18" rx="56.59" ry="18"/>
<text text-anchor="middle" x="799.14" y="-14.3" font-family="Times,serif" font-size="14.00">label type</text>
</g>
<!-- organismal entity&#45;&gt;name -->
<g id="edge6" class="edge">
<title>organismal entity&#45;&gt;name</title>
<path fill="none" stroke="blue" d="M1065.6,-94.25C1027.18,-88.43 979.78,-80.01 938.14,-69 905.13,-60.27 868.86,-47.1 841.64,-36.46"/>
<polygon fill="blue" stroke="blue" points="842.64,-33.09 832.05,-32.67 840.06,-39.6 842.64,-33.09"/>
<text text-anchor="middle" x="958.14" y="-57.8" font-family="Times,serif" font-size="14.00">name</text>
</g>
<!-- description -->
<g id="node8" class="node">
<title>description</title>
<ellipse fill="none" stroke="blue" cx="949.14" cy="-18" rx="75.29" ry="18"/>
<text text-anchor="middle" x="949.14" y="-14.3" font-family="Times,serif" font-size="14.00">narrative text</text>
</g>
<!-- organismal entity&#45;&gt;description -->
<g id="edge7" class="edge">
<title>organismal entity&#45;&gt;description</title>
<path fill="none" stroke="blue" d="M1067.96,-93.59C1045.29,-88.36 1020.8,-80.56 1000.14,-69 988.48,-62.47 977.59,-52.57 968.9,-43.3"/>
<polygon fill="blue" stroke="blue" points="971.42,-40.87 962.14,-35.75 966.2,-45.54 971.42,-40.87"/>
<text text-anchor="middle" x="1040.64" y="-57.8" font-family="Times,serif" font-size="14.00">description</text>
</g>
<!-- deprecated -->
<g id="node9" class="node">
<title>deprecated</title>
<ellipse fill="none" stroke="blue" cx="1089.14" cy="-18" rx="46.59" ry="18"/>
<text text-anchor="middle" x="1089.14" y="-14.3" font-family="Times,serif" font-size="14.00">boolean</text>
</g>
<!-- organismal entity&#45;&gt;deprecated -->
<g id="edge8" class="edge">
<title>organismal entity&#45;&gt;deprecated</title>
<path fill="none" stroke="blue" d="M1106.91,-88.08C1099.79,-83.03 1093.2,-76.7 1089.14,-69 1085.53,-62.14 1084.44,-53.97 1084.55,-46.25"/>
<polygon fill="blue" stroke="blue" points="1088.05,-46.4 1085.32,-36.16 1081.07,-45.86 1088.05,-46.4"/>
<text text-anchor="middle" x="1129.64" y="-57.8" font-family="Times,serif" font-size="14.00">deprecated</text>
</g>
<!-- provided by -->
<g id="node10" class="node">
<title>provided by</title>
<ellipse fill="none" stroke="blue" cx="1192.14" cy="-18" rx="38.19" ry="18"/>
<text text-anchor="middle" x="1192.14" y="-14.3" font-family="Times,serif" font-size="14.00">string</text>
</g>
<!-- organismal entity&#45;&gt;provided by -->
<g id="edge9" class="edge">
<title>organismal entity&#45;&gt;provided by</title>
<path fill="none" stroke="blue" d="M1156.48,-86.98C1161.24,-81.51 1166.22,-75.23 1170.14,-69 1174.76,-61.66 1178.88,-53.19 1182.28,-45.33"/>
<polygon fill="blue" stroke="blue" points="1185.62,-46.41 1186.17,-35.83 1179.14,-43.76 1185.62,-46.41"/>
<text text-anchor="middle" x="1220.64" y="-57.8" font-family="Times,serif" font-size="14.00">provided by</text>
</g>
<!-- xref -->
<g id="node11" class="node">
<title>xref</title>
<ellipse fill="none" stroke="blue" cx="1306.14" cy="-18" rx="57.39" ry="18"/>
<text text-anchor="middle" x="1306.14" y="-14.3" font-family="Times,serif" font-size="14.00">uriorcurie</text>
</g>
<!-- organismal entity&#45;&gt;xref -->
<g id="edge10" class="edge">
<title>organismal entity&#45;&gt;xref</title>
<path fill="none" stroke="blue" d="M1210.48,-93.09C1229.94,-87.89 1250.31,-80.24 1267.14,-69 1276.48,-62.77 1284.57,-53.56 1290.92,-44.74"/>
<polygon fill="blue" stroke="blue" points="1294,-46.43 1296.68,-36.18 1288.19,-42.53 1294,-46.43"/>
<text text-anchor="middle" x="1297.64" y="-57.8" font-family="Times,serif" font-size="14.00">xref</text>
</g>
<!-- full name -->
<g id="node12" class="node">
<title>full name</title>
<ellipse fill="none" stroke="blue" cx="1438.14" cy="-18" rx="56.59" ry="18"/>
<text text-anchor="middle" x="1438.14" y="-14.3" font-family="Times,serif" font-size="14.00">label type</text>
</g>
<!-- organismal entity&#45;&gt;full name -->
<g id="edge11" class="edge">
<title>organismal entity&#45;&gt;full name</title>
<path fill="none" stroke="blue" d="M1206.08,-92.25C1247.1,-84.68 1295.78,-75.13 1316.14,-69 1344.27,-60.53 1374.85,-47.99 1398.36,-37.58"/>
<polygon fill="blue" stroke="blue" points="1399.95,-40.7 1407.65,-33.42 1397.09,-34.32 1399.95,-40.7"/>
<text text-anchor="middle" x="1391.64" y="-57.8" font-family="Times,serif" font-size="14.00">full name</text>
</g>
<!-- synonym -->
<g id="node13" class="node">
<title>synonym</title>
<ellipse fill="none" stroke="blue" cx="1569.14" cy="-18" rx="56.59" ry="18"/>
<text text-anchor="middle" x="1569.14" y="-14.3" font-family="Times,serif" font-size="14.00">label type</text>
</g>
<!-- organismal entity&#45;&gt;synonym -->
<g id="edge12" class="edge">
<title>organismal entity&#45;&gt;synonym</title>
<path fill="none" stroke="blue" d="M1206.16,-92.31C1218.11,-90.39 1230.48,-88.53 1242.14,-87 1324.93,-76.13 1347.65,-87.18 1429.14,-69 1463.28,-61.38 1500.51,-47.82 1527.99,-36.74"/>
<polygon fill="blue" stroke="blue" points="1529.35,-39.96 1537.28,-32.94 1526.7,-33.48 1529.35,-39.96"/>
<text text-anchor="middle" x="1513.14" y="-57.8" font-family="Times,serif" font-size="14.00">synonym</text>
</g>
<!-- category -->
<g id="node14" class="node">
<title>category</title>
<ellipse fill="none" stroke="black" cx="1695.14" cy="-18" rx="51.19" ry="18"/>
<text text-anchor="middle" x="1695.14" y="-14.3" font-family="Times,serif" font-size="14.00">category</text>
</g>
<!-- organismal entity&#45;&gt;category -->
<g id="edge13" class="edge">
<title>organismal entity&#45;&gt;category</title>
<path fill="none" stroke="blue" d="M1205.29,-92.08C1217.51,-90.15 1230.19,-88.34 1242.14,-87 1377.97,-71.74 1415.03,-95.38 1549.14,-69 1585.75,-61.8 1625.73,-47.64 1654.59,-36.22"/>
<polygon fill="blue" stroke="blue" points="1655.95,-39.44 1663.93,-32.46 1653.34,-32.95 1655.95,-39.44"/>
<text text-anchor="middle" x="1634.64" y="-57.8" font-family="Times,serif" font-size="14.00">category</text>
</g>
<!-- in taxon -->
<g id="node16" class="node">
<title>in taxon</title>
<ellipse fill="none" stroke="blue" cx="1848.14" cy="-18" rx="83.39" ry="18"/>
<text text-anchor="middle" x="1848.14" y="-14.3" font-family="Times,serif" font-size="14.00">organism taxon</text>
</g>
<!-- organismal entity&#45;&gt;in taxon -->
<g id="edge14" class="edge">
<title>organismal entity&#45;&gt;in taxon</title>
<path fill="none" stroke="blue" d="M1204.73,-92C1217.11,-90.05 1230,-88.26 1242.14,-87 1431.51,-67.31 1482.12,-98.94 1670.14,-69 1713.75,-62.05 1761.89,-48.14 1797.1,-36.74"/>
<polygon fill="blue" stroke="blue" points="1798.26,-40.05 1806.67,-33.6 1796.08,-33.39 1798.26,-40.05"/>
<text text-anchor="middle" x="1764.14" y="-57.8" font-family="Times,serif" font-size="14.00">in taxon</text>
</g>
<!-- in taxon label -->
<g id="node17" class="node">
<title>in taxon label</title>
<ellipse fill="none" stroke="blue" cx="2006.14" cy="-18" rx="56.59" ry="18"/>
<text text-anchor="middle" x="2006.14" y="-14.3" font-family="Times,serif" font-size="14.00">label type</text>
</g>
<!-- organismal entity&#45;&gt;in taxon label -->
<g id="edge15" class="edge">
<title>organismal entity&#45;&gt;in taxon label</title>
<path fill="none" stroke="blue" d="M1204.45,-91.95C1216.91,-89.99 1229.9,-88.21 1242.14,-87 1487.74,-62.66 1552.42,-100.9 1797.14,-69 1852.8,-61.75 1915.22,-45.75 1957.23,-33.79"/>
<polygon fill="blue" stroke="blue" points="1958.29,-37.13 1966.93,-31 1956.35,-30.4 1958.29,-37.13"/>
<text text-anchor="middle" x="1927.64" y="-57.8" font-family="Times,serif" font-size="14.00">in taxon label</text>
</g>
<!-- has attribute -->
<g id="node18" class="node">
<title>has attribute</title>
<ellipse fill="none" stroke="black" cx="2152.14" cy="-18" rx="71.49" ry="18"/>
<text text-anchor="middle" x="2152.14" y="-14.3" font-family="Times,serif" font-size="14.00">has attribute</text>
</g>
<!-- organismal entity&#45;&gt;has attribute -->
<g id="edge16" class="edge">
<title>organismal entity&#45;&gt;has attribute</title>
<path fill="none" stroke="blue" d="M1204.17,-91.92C1216.72,-89.95 1229.81,-88.17 1242.14,-87 1405.46,-71.48 1818.03,-94.11 1980.14,-69 2022.94,-62.37 2070.07,-48.16 2104.15,-36.58"/>
<polygon fill="blue" stroke="blue" points="2105.54,-39.8 2113.85,-33.23 2103.26,-33.18 2105.54,-39.8"/>
<text text-anchor="middle" x="2094.14" y="-57.8" font-family="Times,serif" font-size="14.00">has attribute</text>
</g>
<!-- named thing_category -->
<g id="node15" class="node">
<title>named thing_category</title>
<ellipse fill="none" stroke="blue" cx="1326.14" cy="-105" rx="74.99" ry="18"/>
<text text-anchor="middle" x="1326.14" y="-101.3" font-family="Times,serif" font-size="14.00">category type</text>
</g>
<!-- organismal entity_has attribute -->
<g id="node19" class="node">
<title>organismal entity_has attribute</title>
<ellipse fill="none" stroke="blue" cx="1471.14" cy="-105" rx="51.99" ry="18"/>
<text text-anchor="middle" x="1471.14" y="-101.3" font-family="Times,serif" font-size="14.00">attribute</text>
</g>
</g>
</svg>
