<?xml version="1.0" encoding="UTF-8" standalone="no"?>
<!DOCTYPE svg PUBLIC "-//W3C//DTD SVG 1.1//EN"
 "http://www.w3.org/Graphics/SVG/1.1/DTD/svg11.dtd">
<!-- Generated by graphviz version 2.40.1 (20161225.0304)
 -->
<!-- Title: %3 Pages: 1 -->
<svg width="2356pt" height="291pt"
 viewBox="0.00 0.00 2355.69 291.00" xmlns="http://www.w3.org/2000/svg" xmlns:xlink="http://www.w3.org/1999/xlink">
<g id="graph0" class="graph" transform="scale(1 1) rotate(0) translate(4 287)">
<title>%3</title>
<polygon fill="#ffffff" stroke="transparent" points="-4,4 -4,-287 2351.6874,-287 2351.6874,4 -4,4"/>
<!-- organism taxon to environment association -->
<g id="node1" class="node">
<title>organism taxon to environment association</title>
<ellipse fill="none" stroke="#000000" cx="1355.0444" cy="-265" rx="211.7625" ry="18"/>
<text text-anchor="middle" x="1355.0444" y="-261.3" font-family="Times,serif" font-size="14.00" fill="#000000">organism taxon to environment association</text>
</g>
<!-- association -->
<g id="node2" class="node">
<title>association</title>
<ellipse fill="none" stroke="#000000" cx="63.0444" cy="-178" rx="63.0888" ry="18"/>
<text text-anchor="middle" x="63.0444" y="-174.3" font-family="Times,serif" font-size="14.00" fill="#000000">association</text>
</g>
<!-- organism taxon to environment association&#45;&gt;association -->
<g id="edge1" class="edge">
<title>organism taxon to environment association&#45;&gt;association</title>
<path fill="none" stroke="#000000" d="M1153.5598,-259.3606C979.3827,-253.815 720.9328,-243.9821 496.0444,-229 335.2873,-218.2903 293.8877,-222.9509 135.0444,-196 129.6456,-195.084 124.0549,-193.976 118.4849,-192.7651"/>
<polygon fill="#000000" stroke="#000000" points="119.0551,-189.3053 108.5271,-190.4934 117.4982,-196.13 119.0551,-189.3053"/>
<text text-anchor="middle" x="510.0444" y="-217.8" font-family="Times,serif" font-size="14.00" fill="#000000">is_a</text>
</g>
<!-- organism taxon to entity association -->
<g id="node3" class="node">
<title>organism taxon to entity association</title>
<ellipse fill="none" stroke="#000000" cx="325.0444" cy="-178" rx="180.8681" ry="18"/>
<text text-anchor="middle" x="325.0444" y="-174.3" font-family="Times,serif" font-size="14.00" fill="#000000">organism taxon to entity association</text>
</g>
<!-- organism taxon to environment association&#45;&gt;organism taxon to entity association -->
<g id="edge2" class="edge">
<title>organism taxon to environment association&#45;&gt;organism taxon to entity association</title>
<path fill="none" stroke="#000000" d="M1149.5269,-260.6051C1006.6057,-256.0899 811.8402,-247.0334 641.0444,-229 565.768,-221.0519 481.1349,-207.1233 418.4138,-195.8285"/>
<polygon fill="#000000" stroke="#000000" points="419.0042,-192.3786 408.5404,-194.0397 417.7562,-199.2664 419.0042,-192.3786"/>
<text text-anchor="middle" x="657.5444" y="-217.8" font-family="Times,serif" font-size="14.00" fill="#000000">uses</text>
</g>
<!-- id -->
<g id="node4" class="node">
<title>id</title>
<ellipse fill="none" stroke="#0000ff" cx="562.0444" cy="-178" rx="38.1938" ry="18"/>
<text text-anchor="middle" x="562.0444" y="-174.3" font-family="Times,serif" font-size="14.00" fill="#000000">string</text>
</g>
<!-- organism taxon to environment association&#45;&gt;id -->
<g id="edge3" class="edge">
<title>organism taxon to environment association&#45;&gt;id</title>
<path fill="none" stroke="#0000ff" d="M1151.9504,-259.7765C1038.5939,-255.0504 895.04,-246.0652 768.0444,-229 696.9459,-219.446 678.9416,-215.986 610.0444,-196 607.0634,-195.1353 604.0038,-194.1721 600.9423,-193.1533"/>
<polygon fill="#0000ff" stroke="#0000ff" points="601.8464,-189.7616 591.2516,-189.7626 599.5346,-196.3689 601.8464,-189.7616"/>
<text text-anchor="middle" x="775.0444" y="-217.8" font-family="Times,serif" font-size="14.00" fill="#000000">id</text>
</g>
<!-- iri -->
<g id="node5" class="node">
<title>iri</title>
<ellipse fill="none" stroke="#0000ff" cx="663.0444" cy="-178" rx="44.393" ry="18"/>
<text text-anchor="middle" x="663.0444" y="-174.3" font-family="Times,serif" font-size="14.00" fill="#000000">iri type</text>
</g>
<!-- organism taxon to environment association&#45;&gt;iri -->
<g id="edge4" class="edge">
<title>organism taxon to environment association&#45;&gt;iri</title>
<path fill="none" stroke="#0000ff" d="M1166.3243,-256.8123C1076.8349,-251.4299 968.6111,-242.7493 872.0444,-229 801.8844,-219.0105 784.3835,-214.7614 716.0444,-196 712.7104,-195.0847 709.2795,-194.0762 705.8429,-193.018"/>
<polygon fill="#0000ff" stroke="#0000ff" points="706.8097,-189.6526 696.2188,-189.9405 704.6776,-196.32 706.8097,-189.6526"/>
<text text-anchor="middle" x="880.0444" y="-217.8" font-family="Times,serif" font-size="14.00" fill="#000000">iri</text>
</g>
<!-- name -->
<g id="node6" class="node">
<title>name</title>
<ellipse fill="none" stroke="#0000ff" cx="782.0444" cy="-178" rx="56.59" ry="18"/>
<text text-anchor="middle" x="782.0444" y="-174.3" font-family="Times,serif" font-size="14.00" fill="#000000">label type</text>
</g>
<!-- organism taxon to environment association&#45;&gt;name -->
<g id="edge5" class="edge">
<title>organism taxon to environment association&#45;&gt;name</title>
<path fill="none" stroke="#0000ff" d="M1170.5705,-256.1444C1102.1473,-250.8426 1024.158,-242.4039 954.0444,-229 911.1652,-220.8026 863.6791,-206.2932 829.4847,-194.8409"/>
<polygon fill="#0000ff" stroke="#0000ff" points="830.3586,-191.4416 819.7643,-191.5479 828.1125,-198.0715 830.3586,-191.4416"/>
<text text-anchor="middle" x="974.0444" y="-217.8" font-family="Times,serif" font-size="14.00" fill="#000000">name</text>
</g>
<!-- description -->
<g id="node7" class="node">
<title>description</title>
<ellipse fill="none" stroke="#0000ff" cx="932.0444" cy="-178" rx="75.2868" ry="18"/>
<text text-anchor="middle" x="932.0444" y="-174.3" font-family="Times,serif" font-size="14.00" fill="#000000">narrative text</text>
</g>
<!-- organism taxon to environment association&#45;&gt;description -->
<g id="edge6" class="edge">
<title>organism taxon to environment association&#45;&gt;description</title>
<path fill="none" stroke="#0000ff" d="M1201.0203,-252.6069C1135.4804,-246.3034 1067.0736,-238.0622 1036.0444,-229 1012.5479,-222.1378 987.8833,-210.2711 968.4734,-199.7105"/>
<polygon fill="#0000ff" stroke="#0000ff" points="970.113,-196.6175 959.6724,-194.8163 966.711,-202.7352 970.113,-196.6175"/>
<text text-anchor="middle" x="1077.0444" y="-217.8" font-family="Times,serif" font-size="14.00" fill="#000000">description</text>
</g>
<!-- source -->
<g id="node8" class="node">
<title>source</title>
<ellipse fill="none" stroke="#0000ff" cx="1082.0444" cy="-178" rx="56.59" ry="18"/>
<text text-anchor="middle" x="1082.0444" y="-174.3" font-family="Times,serif" font-size="14.00" fill="#000000">label type</text>
</g>
<!-- organism taxon to environment association&#45;&gt;source -->
<g id="edge7" class="edge">
<title>organism taxon to environment association&#45;&gt;source</title>
<path fill="none" stroke="#0000ff" d="M1238.8887,-249.9219C1200.971,-243.9213 1164.2069,-236.63 1147.0444,-229 1132.4897,-222.5293 1118.3315,-212.076 1106.9643,-202.3128"/>
<polygon fill="#0000ff" stroke="#0000ff" points="1109.005,-199.4427 1099.2149,-195.3924 1104.3424,-204.6638 1109.005,-199.4427"/>
<text text-anchor="middle" x="1171.5444" y="-217.8" font-family="Times,serif" font-size="14.00" fill="#000000">source</text>
</g>
<!-- provided by -->
<g id="node9" class="node">
<title>provided by</title>
<ellipse fill="none" stroke="#0000ff" cx="1194.0444" cy="-178" rx="37.0935" ry="18"/>
<text text-anchor="middle" x="1194.0444" y="-174.3" font-family="Times,serif" font-size="14.00" fill="#000000">agent</text>
</g>
<!-- organism taxon to environment association&#45;&gt;provided by -->
<g id="edge8" class="edge">
<title>organism taxon to environment association&#45;&gt;provided by</title>
<path fill="none" stroke="#0000ff" d="M1258.8984,-248.911C1236.741,-243.5226 1217.2504,-236.8503 1209.0444,-229 1202.786,-223.0129 1199.1003,-214.5619 1196.9421,-206.258"/>
<polygon fill="#0000ff" stroke="#0000ff" points="1200.3627,-205.5131 1194.9969,-196.3776 1193.4945,-206.8653 1200.3627,-205.5131"/>
<text text-anchor="middle" x="1251.5444" y="-217.8" font-family="Times,serif" font-size="14.00" fill="#000000">provided by</text>
</g>
<!-- has attribute -->
<g id="node10" class="node">
<title>has attribute</title>
<ellipse fill="none" stroke="#0000ff" cx="1301.0444" cy="-178" rx="51.9908" ry="18"/>
<text text-anchor="middle" x="1301.0444" y="-174.3" font-family="Times,serif" font-size="14.00" fill="#000000">attribute</text>
</g>
<!-- organism taxon to environment association&#45;&gt;has attribute -->
<g id="edge9" class="edge">
<title>organism taxon to environment association&#45;&gt;has attribute</title>
<path fill="none" stroke="#0000ff" d="M1318.7192,-247.2569C1312.0519,-242.2966 1305.9681,-236.2359 1302.0444,-229 1298.3296,-222.1492 1297.0505,-213.982 1296.9716,-206.2128"/>
<polygon fill="#0000ff" stroke="#0000ff" points="1300.4772,-206.1919 1297.4919,-196.0264 1293.4863,-205.8348 1300.4772,-206.1919"/>
<text text-anchor="middle" x="1349.0444" y="-217.8" font-family="Times,serif" font-size="14.00" fill="#000000">has attribute</text>
</g>
<!-- relation -->
<g id="node11" class="node">
<title>relation</title>
<ellipse fill="none" stroke="#0000ff" cx="2038.0444" cy="-18" rx="57.6901" ry="18"/>
<text text-anchor="middle" x="2038.0444" y="-14.3" font-family="Times,serif" font-size="14.00" fill="#000000">uriorcurie</text>
</g>
<!-- organism taxon to environment association&#45;&gt;relation -->
<g id="edge10" class="edge">
<title>organism taxon to environment association&#45;&gt;relation</title>
<path fill="none" stroke="#0000ff" d="M1381.8219,-247.0062C1387.4701,-241.8796 1392.7204,-235.8101 1396.0444,-229 1409.5183,-201.3946 1380.1415,-183.3983 1400.0444,-160 1473.7282,-73.3758 1823.1455,-35.3481 1971.3452,-22.9218"/>
<polygon fill="#0000ff" stroke="#0000ff" points="1971.9828,-26.3812 1981.6613,-22.0711 1971.4074,-19.4049 1971.9828,-26.3812"/>
<text text-anchor="middle" x="1471.0444" y="-130.8" font-family="Times,serif" font-size="14.00" fill="#000000">relation</text>
</g>
<!-- negated -->
<g id="node12" class="node">
<title>negated</title>
<ellipse fill="none" stroke="#0000ff" cx="1456.0444" cy="-178" rx="46.5926" ry="18"/>
<text text-anchor="middle" x="1456.0444" y="-174.3" font-family="Times,serif" font-size="14.00" fill="#000000">boolean</text>
</g>
<!-- organism taxon to environment association&#45;&gt;negated -->
<g id="edge11" class="edge">
<title>organism taxon to environment association&#45;&gt;negated</title>
<path fill="none" stroke="#0000ff" d="M1397.5017,-247.3602C1406.8721,-242.2854 1416.302,-236.1503 1424.0444,-229 1431.3755,-222.2296 1437.689,-213.4162 1442.7244,-205.0251"/>
<polygon fill="#0000ff" stroke="#0000ff" points="1445.8337,-206.6361 1447.6743,-196.2023 1439.7289,-203.211 1445.8337,-206.6361"/>
<text text-anchor="middle" x="1466.0444" y="-217.8" font-family="Times,serif" font-size="14.00" fill="#000000">negated</text>
</g>
<!-- qualifiers -->
<g id="node13" class="node">
<title>qualifiers</title>
<ellipse fill="none" stroke="#0000ff" cx="1598.0444" cy="-178" rx="77.1866" ry="18"/>
<text text-anchor="middle" x="1598.0444" y="-174.3" font-family="Times,serif" font-size="14.00" fill="#000000">ontology class</text>
</g>
<!-- organism taxon to environment association&#45;&gt;qualifiers -->
<g id="edge12" class="edge">
<title>organism taxon to environment association&#45;&gt;qualifiers</title>
<path fill="none" stroke="#0000ff" d="M1435.6513,-248.3257C1456.5887,-243.0544 1478.9088,-236.5868 1499.0444,-229 1520.1517,-221.047 1542.5813,-209.751 1560.7445,-199.8106"/>
<polygon fill="#0000ff" stroke="#0000ff" points="1562.786,-202.6802 1569.8241,-194.7609 1559.3836,-196.5626 1562.786,-202.6802"/>
<text text-anchor="middle" x="1567.0444" y="-217.8" font-family="Times,serif" font-size="14.00" fill="#000000">qualifiers</text>
</g>
<!-- publications -->
<g id="node14" class="node">
<title>publications</title>
<ellipse fill="none" stroke="#0000ff" cx="1756.0444" cy="-178" rx="63.0888" ry="18"/>
<text text-anchor="middle" x="1756.0444" y="-174.3" font-family="Times,serif" font-size="14.00" fill="#000000">publication</text>
</g>
<!-- organism taxon to environment association&#45;&gt;publications -->
<g id="edge13" class="edge">
<title>organism taxon to environment association&#45;&gt;publications</title>
<path fill="none" stroke="#0000ff" d="M1485.6519,-250.7807C1524.3629,-245.3353 1566.6579,-238.165 1605.0444,-229 1640.7103,-220.4846 1679.9139,-207.119 1709.4353,-196.2065"/>
<polygon fill="#0000ff" stroke="#0000ff" points="1710.9149,-199.39 1719.0566,-192.6103 1708.4641,-192.833 1710.9149,-199.39"/>
<text text-anchor="middle" x="1700.0444" y="-217.8" font-family="Times,serif" font-size="14.00" fill="#000000">publications</text>
</g>
<!-- type -->
<g id="node15" class="node">
<title>type</title>
<ellipse fill="none" stroke="#000000" cx="1868.0444" cy="-178" rx="31.3957" ry="18"/>
<text text-anchor="middle" x="1868.0444" y="-174.3" font-family="Times,serif" font-size="14.00" fill="#000000">type</text>
</g>
<!-- organism taxon to environment association&#45;&gt;type -->
<g id="edge14" class="edge">
<title>organism taxon to environment association&#45;&gt;type</title>
<path fill="none" stroke="#0000ff" d="M1505.2805,-252.2857C1611.0771,-243.1612 1735.9651,-231.9726 1748.0444,-229 1778.9552,-221.3933 1812.1162,-206.7544 1835.728,-195.1044"/>
<polygon fill="#0000ff" stroke="#0000ff" points="1837.5513,-198.1052 1844.9128,-190.4855 1834.4064,-191.8514 1837.5513,-198.1052"/>
<text text-anchor="middle" x="1809.0444" y="-217.8" font-family="Times,serif" font-size="14.00" fill="#000000">type</text>
</g>
<!-- category -->
<g id="node17" class="node">
<title>category</title>
<ellipse fill="none" stroke="#000000" cx="1969.0444" cy="-178" rx="51.9908" ry="18"/>
<text text-anchor="middle" x="1969.0444" y="-174.3" font-family="Times,serif" font-size="14.00" fill="#000000">category</text>
</g>
<!-- organism taxon to environment association&#45;&gt;category -->
<g id="edge15" class="edge">
<title>organism taxon to environment association&#45;&gt;category</title>
<path fill="none" stroke="#0000ff" d="M1506.9017,-252.4253C1530.0603,-250.5673 1553.686,-248.7058 1576.0444,-247 1688.4464,-238.4243 1718.7966,-252.5199 1829.0444,-229 1863.4428,-221.6616 1900.7949,-207.7315 1928.2594,-196.2819"/>
<polygon fill="#0000ff" stroke="#0000ff" points="1929.6978,-199.4738 1937.5405,-192.3504 1926.9673,-193.0282 1929.6978,-199.4738"/>
<text text-anchor="middle" x="1913.0444" y="-217.8" font-family="Times,serif" font-size="14.00" fill="#000000">category</text>
</g>
<!-- subject -->
<g id="node19" class="node">
<title>subject</title>
<ellipse fill="none" stroke="#000000" cx="2084.0444" cy="-178" rx="44.6926" ry="18"/>
<text text-anchor="middle" x="2084.0444" y="-174.3" font-family="Times,serif" font-size="14.00" fill="#000000">subject</text>
</g>
<!-- organism taxon to environment association&#45;&gt;subject -->
<g id="edge16" class="edge">
<title>organism taxon to environment association&#45;&gt;subject</title>
<path fill="none" stroke="#0000ff" d="M1504.1876,-252.1771C1528.2047,-250.3067 1552.8037,-248.5068 1576.0444,-247 1741.6674,-236.2619 1786.5392,-262.7394 1949.0444,-229 1982.9088,-221.9691 2019.5068,-207.6909 2046.043,-196.026"/>
<polygon fill="#0000ff" stroke="#0000ff" points="2047.6427,-199.1446 2055.3405,-191.8649 2044.7832,-192.7553 2047.6427,-199.1446"/>
<text text-anchor="middle" x="2025.5444" y="-217.8" font-family="Times,serif" font-size="14.00" fill="#000000">subject</text>
</g>
<!-- object -->
<g id="node21" class="node">
<title>object</title>
<ellipse fill="none" stroke="#000000" cx="2106.0444" cy="-91" rx="39.7935" ry="18"/>
<text text-anchor="middle" x="2106.0444" y="-87.3" font-family="Times,serif" font-size="14.00" fill="#000000">object</text>
</g>
<!-- organism taxon to environment association&#45;&gt;object -->
<g id="edge17" class="edge">
<title>organism taxon to environment association&#45;&gt;object</title>
<path fill="none" stroke="#0000ff" d="M1502.686,-252.0731C1527.1757,-250.1879 1552.3156,-248.4106 1576.0444,-247 1682.5979,-240.6659 1951.6488,-251.256 2056.0444,-229 2094.466,-220.8089 2112.3711,-225.7354 2138.0444,-196 2158.4381,-172.3796 2164.5626,-155.1263 2151.0444,-127 2148.2571,-121.2007 2144.0302,-116.0431 2139.263,-111.5709"/>
<polygon fill="#0000ff" stroke="#0000ff" points="2141.3925,-108.7902 2131.456,-105.1136 2136.931,-114.1842 2141.3925,-108.7902"/>
<text text-anchor="middle" x="2179.5444" y="-174.3" font-family="Times,serif" font-size="14.00" fill="#000000">object</text>
</g>
<!-- predicate -->
<g id="node23" class="node">
<title>predicate</title>
<ellipse fill="none" stroke="#000000" cx="2283.0444" cy="-178" rx="55.4913" ry="18"/>
<text text-anchor="middle" x="2283.0444" y="-174.3" font-family="Times,serif" font-size="14.00" fill="#000000">predicate</text>
</g>
<!-- organism taxon to environment association&#45;&gt;predicate -->
<g id="edge18" class="edge">
<title>organism taxon to environment association&#45;&gt;predicate</title>
<path fill="none" stroke="#0000ff" d="M1501.7849,-251.9845C1526.5568,-250.0924 1552.0221,-248.3359 1576.0444,-247 1642.9708,-243.2781 2113.982,-245.1209 2179.0444,-229 2203.6465,-222.9042 2229.2329,-210.4485 2248.8708,-199.3729"/>
<polygon fill="#0000ff" stroke="#0000ff" points="2250.8259,-202.2853 2257.7259,-194.2454 2247.3182,-196.2276 2250.8259,-202.2853"/>
<text text-anchor="middle" x="2251.5444" y="-217.8" font-family="Times,serif" font-size="14.00" fill="#000000">predicate</text>
</g>
<!-- association_type -->
<g id="node16" class="node">
<title>association_type</title>
<ellipse fill="none" stroke="#0000ff" cx="1623.0444" cy="-265" rx="38.1938" ry="18"/>
<text text-anchor="middle" x="1623.0444" y="-261.3" font-family="Times,serif" font-size="14.00" fill="#000000">string</text>
</g>
<!-- association_category -->
<g id="node18" class="node">
<title>association_category</title>
<ellipse fill="none" stroke="#0000ff" cx="1755.0444" cy="-265" rx="75.2868" ry="18"/>
<text text-anchor="middle" x="1755.0444" y="-261.3" font-family="Times,serif" font-size="14.00" fill="#000000">category type</text>
</g>
<!-- subject&#45;&gt;relation -->
<g id="edge20" class="edge">
<title>subject&#45;&gt;relation</title>
<path fill="none" stroke="#000000" stroke-dasharray="1,5" d="M2076.098,-160.1293C2070.213,-146.3661 2062.3308,-126.7533 2057.0444,-109 2050.8454,-88.1821 2045.913,-64.1019 2042.6287,-45.9434"/>
<polygon fill="#000000" stroke="#000000" points="2046.061,-45.252 2040.8884,-36.0057 2039.1659,-46.4595 2046.061,-45.252"/>
</g>
<!-- subject&#45;&gt;object -->
<g id="edge19" class="edge">
<title>subject&#45;&gt;object</title>
<path fill="none" stroke="#000000" d="M2087.5468,-159.975C2089.5477,-150.1752 2092.2168,-137.8699 2095.0444,-127 2095.7452,-124.306 2096.5173,-121.512 2097.3176,-118.7256"/>
<polygon fill="#000000" stroke="#000000" points="2100.7556,-119.4442 2100.2625,-108.8608 2094.0481,-117.4417 2100.7556,-119.4442"/>
<text text-anchor="middle" x="2123.0444" y="-130.8" font-family="Times,serif" font-size="14.00" fill="#000000">relation</text>
</g>
<!-- organism taxon to environment association_subject -->
<g id="node20" class="node">
<title>organism taxon to environment association_subject</title>
<ellipse fill="none" stroke="#0000ff" cx="1932.0444" cy="-265" rx="83.3857" ry="18"/>
<text text-anchor="middle" x="1932.0444" y="-261.3" font-family="Times,serif" font-size="14.00" fill="#000000">organism taxon</text>
</g>
<!-- object&#45;&gt;relation -->
<g id="edge21" class="edge">
<title>object&#45;&gt;relation</title>
<path fill="none" stroke="#000000" stroke-dasharray="1,5" d="M2090.2729,-74.0688C2081.6439,-64.8053 2070.7907,-53.1542 2061.2166,-42.8761"/>
<polygon fill="#000000" stroke="#000000" points="2063.5797,-40.2779 2054.2026,-35.3463 2058.4576,-45.0491 2063.5797,-40.2779"/>
</g>
<!-- organism taxon to environment association_object -->
<g id="node22" class="node">
<title>organism taxon to environment association_object</title>
<ellipse fill="none" stroke="#0000ff" cx="2103.0444" cy="-265" rx="69.5877" ry="18"/>
<text text-anchor="middle" x="2103.0444" y="-261.3" font-family="Times,serif" font-size="14.00" fill="#000000">named thing</text>
</g>
<!-- organism taxon to environment association_predicate -->
<g id="node24" class="node">
<title>organism taxon to environment association_predicate</title>
<ellipse fill="none" stroke="#0000ff" cx="2269.0444" cy="-265" rx="78.7863" ry="18"/>
<text text-anchor="middle" x="2269.0444" y="-261.3" font-family="Times,serif" font-size="14.00" fill="#000000">predicate type</text>
</g>
</g>
</svg>
