<?xml version="1.0" encoding="UTF-8" standalone="no"?>
<!DOCTYPE svg PUBLIC "-//W3C//DTD SVG 1.1//EN"
 "http://www.w3.org/Graphics/SVG/1.1/DTD/svg11.dtd">
<!-- Generated by graphviz version 2.43.0 (0)
 -->
<!-- Title: %3 Pages: 1 -->
<svg width="1397pt" height="131pt"
 viewBox="0.00 0.00 1396.93 131.00" xmlns="http://www.w3.org/2000/svg" xmlns:xlink="http://www.w3.org/1999/xlink">
<g id="graph0" class="graph" transform="scale(1 1) rotate(0) translate(4 127)">
<title>%3</title>
<polygon fill="white" stroke="transparent" points="-4,4 -4,-127 1392.93,-127 1392.93,4 -4,4"/>
<!-- organism taxon -->
<g id="node1" class="node">
<title>organism taxon</title>
<ellipse fill="none" stroke="black" cx="660.54" cy="-105" rx="83.39" ry="18"/>
<text text-anchor="middle" x="660.54" y="-101.3" font-family="Times,serif" font-size="14.00">organism taxon</text>
</g>
<!-- named thing -->
<g id="node2" class="node">
<title>named thing</title>
<ellipse fill="none" stroke="black" cx="69.54" cy="-18" rx="69.59" ry="18"/>
<text text-anchor="middle" x="69.54" y="-14.3" font-family="Times,serif" font-size="14.00">named thing</text>
</g>
<!-- organism taxon&#45;&gt;named thing -->
<g id="edge1" class="edge">
<title>organism taxon&#45;&gt;named thing</title>
<path fill="none" stroke="black" d="M581.14,-99.44C505.96,-94.43 390.1,-84.9 290.54,-69 234.03,-59.97 170.36,-45.05 125.94,-33.86"/>
<polygon fill="black" stroke="black" points="126.75,-30.46 116.2,-31.39 125.03,-37.24 126.75,-30.46"/>
<text text-anchor="middle" x="304.54" y="-57.8" font-family="Times,serif" font-size="14.00">is_a</text>
</g>
<!-- id -->
<g id="node3" class="node">
<title>id</title>
<ellipse fill="none" stroke="blue" cx="195.54" cy="-18" rx="38.19" ry="18"/>
<text text-anchor="middle" x="195.54" y="-14.3" font-family="Times,serif" font-size="14.00">string</text>
</g>
<!-- organism taxon&#45;&gt;id -->
<g id="edge2" class="edge">
<title>organism taxon&#45;&gt;id</title>
<path fill="none" stroke="blue" d="M585.61,-96.99C501.26,-87.9 360.71,-69.15 243.54,-36 240.44,-35.12 237.24,-34.15 234.05,-33.12"/>
<polygon fill="blue" stroke="blue" points="235.13,-29.8 224.54,-29.95 232.92,-36.44 235.13,-29.8"/>
<text text-anchor="middle" x="386.54" y="-57.8" font-family="Times,serif" font-size="14.00">id</text>
</g>
<!-- iri -->
<g id="node4" class="node">
<title>iri</title>
<ellipse fill="none" stroke="blue" cx="296.54" cy="-18" rx="44.39" ry="18"/>
<text text-anchor="middle" x="296.54" y="-14.3" font-family="Times,serif" font-size="14.00">iri type</text>
</g>
<!-- organism taxon&#45;&gt;iri -->
<g id="edge3" class="edge">
<title>organism taxon&#45;&gt;iri</title>
<path fill="none" stroke="blue" d="M597.73,-93.15C562.07,-86.71 516.67,-78.06 476.54,-69 420.08,-56.25 406.17,-52.03 350.54,-36 347.03,-34.99 343.4,-33.91 339.76,-32.81"/>
<polygon fill="blue" stroke="blue" points="340.76,-29.45 330.17,-29.86 338.7,-36.15 340.76,-29.45"/>
<text text-anchor="middle" x="484.54" y="-57.8" font-family="Times,serif" font-size="14.00">iri</text>
</g>
<!-- type -->
<g id="node5" class="node">
<title>type</title>
<ellipse fill="none" stroke="blue" cx="397.54" cy="-18" rx="38.19" ry="18"/>
<text text-anchor="middle" x="397.54" y="-14.3" font-family="Times,serif" font-size="14.00">string</text>
</g>
<!-- organism taxon&#45;&gt;type -->
<g id="edge4" class="edge">
<title>organism taxon&#45;&gt;type</title>
<path fill="none" stroke="blue" d="M612.35,-90.32C590.64,-84.03 564.74,-76.35 541.54,-69 498.14,-55.24 487.51,-51.08 444.54,-36 441.86,-35.06 439.09,-34.08 436.3,-33.08"/>
<polygon fill="blue" stroke="blue" points="437.44,-29.78 426.85,-29.7 435.08,-36.37 437.44,-29.78"/>
<text text-anchor="middle" x="557.54" y="-57.8" font-family="Times,serif" font-size="14.00">type</text>
</g>
<!-- name -->
<g id="node6" class="node">
<title>name</title>
<ellipse fill="none" stroke="blue" cx="510.54" cy="-18" rx="56.59" ry="18"/>
<text text-anchor="middle" x="510.54" y="-14.3" font-family="Times,serif" font-size="14.00">label type</text>
</g>
<!-- organism taxon&#45;&gt;name -->
<g id="edge5" class="edge">
<title>organism taxon&#45;&gt;name</title>
<path fill="none" stroke="blue" d="M632.33,-88.01C607.89,-74.16 572.4,-54.05 546.03,-39.11"/>
<polygon fill="blue" stroke="blue" points="547.55,-35.95 537.12,-34.06 544.1,-42.04 547.55,-35.95"/>
<text text-anchor="middle" x="614.54" y="-57.8" font-family="Times,serif" font-size="14.00">name</text>
</g>
<!-- description -->
<g id="node7" class="node">
<title>description</title>
<ellipse fill="none" stroke="blue" cx="660.54" cy="-18" rx="75.29" ry="18"/>
<text text-anchor="middle" x="660.54" y="-14.3" font-family="Times,serif" font-size="14.00">narrative text</text>
</g>
<!-- organism taxon&#45;&gt;description -->
<g id="edge6" class="edge">
<title>organism taxon&#45;&gt;description</title>
<path fill="none" stroke="blue" d="M660.54,-86.8C660.54,-75.16 660.54,-59.55 660.54,-46.24"/>
<polygon fill="blue" stroke="blue" points="664.04,-46.18 660.54,-36.18 657.04,-46.18 664.04,-46.18"/>
<text text-anchor="middle" x="701.04" y="-57.8" font-family="Times,serif" font-size="14.00">description</text>
</g>
<!-- source -->
<g id="node8" class="node">
<title>source</title>
<ellipse fill="none" stroke="blue" cx="792.54" cy="-18" rx="38.19" ry="18"/>
<text text-anchor="middle" x="792.54" y="-14.3" font-family="Times,serif" font-size="14.00">string</text>
</g>
<!-- organism taxon&#45;&gt;source -->
<g id="edge7" class="edge">
<title>organism taxon&#45;&gt;source</title>
<path fill="none" stroke="blue" d="M705.18,-89.75C718.76,-84.34 733.32,-77.42 745.54,-69 756.01,-61.78 765.92,-51.89 773.92,-42.81"/>
<polygon fill="blue" stroke="blue" points="776.63,-45.02 780.42,-35.13 771.29,-40.5 776.63,-45.02"/>
<text text-anchor="middle" x="787.54" y="-57.8" font-family="Times,serif" font-size="14.00">source</text>
</g>
<!-- has attribute -->
<g id="node9" class="node">
<title>has attribute</title>
<ellipse fill="none" stroke="blue" cx="900.54" cy="-18" rx="51.99" ry="18"/>
<text text-anchor="middle" x="900.54" y="-14.3" font-family="Times,serif" font-size="14.00">attribute</text>
</g>
<!-- organism taxon&#45;&gt;has attribute -->
<g id="edge8" class="edge">
<title>organism taxon&#45;&gt;has attribute</title>
<path fill="none" stroke="blue" d="M720.49,-92.45C756.38,-85.14 798.29,-75.83 815.54,-69 834.57,-61.47 854.36,-50.07 870.06,-40.05"/>
<polygon fill="blue" stroke="blue" points="872.32,-42.75 878.79,-34.36 868.5,-36.89 872.32,-42.75"/>
<text text-anchor="middle" x="892.54" y="-57.8" font-family="Times,serif" font-size="14.00">has attribute</text>
</g>
<!-- provided by -->
<g id="node10" class="node">
<title>provided by</title>
<ellipse fill="none" stroke="blue" cx="1008.54" cy="-18" rx="38.19" ry="18"/>
<text text-anchor="middle" x="1008.54" y="-14.3" font-family="Times,serif" font-size="14.00">string</text>
</g>
<!-- organism taxon&#45;&gt;provided by -->
<g id="edge9" class="edge">
<title>organism taxon&#45;&gt;provided by</title>
<path fill="none" stroke="blue" d="M719.81,-92.25C730.67,-90.32 741.93,-88.48 752.54,-87 836.99,-75.24 864.2,-100.22 943.54,-69 959.15,-62.86 974.16,-51.78 985.82,-41.61"/>
<polygon fill="blue" stroke="blue" points="988.27,-44.11 993.32,-34.79 983.56,-38.93 988.27,-44.11"/>
<text text-anchor="middle" x="1012.04" y="-57.8" font-family="Times,serif" font-size="14.00">provided by</text>
</g>
<!-- category -->
<g id="node11" class="node">
<title>category</title>
<ellipse fill="none" stroke="black" cx="1116.54" cy="-18" rx="51.19" ry="18"/>
<text text-anchor="middle" x="1116.54" y="-14.3" font-family="Times,serif" font-size="14.00">category</text>
</g>
<!-- organism taxon&#45;&gt;category -->
<g id="edge10" class="edge">
<title>organism taxon&#45;&gt;category</title>
<path fill="none" stroke="blue" d="M718.78,-92.11C729.95,-90.15 741.58,-88.33 752.54,-87 820.17,-78.8 995.42,-94.59 1058.54,-69 1072.49,-63.35 1085.43,-52.92 1095.54,-43.05"/>
<polygon fill="blue" stroke="blue" points="1098.23,-45.31 1102.69,-35.7 1093.21,-40.43 1098.23,-45.31"/>
<text text-anchor="middle" x="1114.04" y="-57.8" font-family="Times,serif" font-size="14.00">category</text>
</g>
<!-- has taxonomic rank -->
<g id="node13" class="node">
<title>has taxonomic rank</title>
<ellipse fill="none" stroke="black" cx="1287.54" cy="-18" rx="101.28" ry="18"/>
<text text-anchor="middle" x="1287.54" y="-14.3" font-family="Times,serif" font-size="14.00">has taxonomic rank</text>
</g>
<!-- organism taxon&#45;&gt;has taxonomic rank -->
<g id="edge11" class="edge">
<title>organism taxon&#45;&gt;has taxonomic rank</title>
<path fill="none" stroke="blue" d="M718.76,-91.99C729.94,-90.05 741.57,-88.26 752.54,-87 928.02,-66.91 976.32,-103.48 1149.54,-69 1181.82,-62.58 1216.65,-49.91 1243.24,-38.93"/>
<polygon fill="blue" stroke="blue" points="1244.79,-42.08 1252.65,-34.98 1242.07,-35.63 1244.79,-42.08"/>
<text text-anchor="middle" x="1270.54" y="-57.8" font-family="Times,serif" font-size="14.00">has taxonomic rank</text>
</g>
<!-- named thing_category -->
<g id="node12" class="node">
<title>named thing_category</title>
<ellipse fill="none" stroke="blue" cx="836.54" cy="-105" rx="74.99" ry="18"/>
<text text-anchor="middle" x="836.54" y="-101.3" font-family="Times,serif" font-size="14.00">category type</text>
</g>
<!-- organism taxon_has taxonomic rank -->
<g id="node14" class="node">
<title>organism taxon_has taxonomic rank</title>
<ellipse fill="none" stroke="blue" cx="1011.54" cy="-105" rx="82.59" ry="18"/>
<text text-anchor="middle" x="1011.54" y="-101.3" font-family="Times,serif" font-size="14.00">taxonomic rank</text>
</g>
</g>
</svg>
