<?xml version="1.0" encoding="UTF-8" standalone="no"?>
<!DOCTYPE svg PUBLIC "-//W3C//DTD SVG 1.1//EN"
 "http://www.w3.org/Graphics/SVG/1.1/DTD/svg11.dtd">
<!-- Generated by graphviz version 2.40.1 (20161225.0304)
 -->
<!-- Title: %3 Pages: 1 -->
<svg width="1615pt" height="131pt"
 viewBox="0.00 0.00 1615.49 131.00" xmlns="http://www.w3.org/2000/svg" xmlns:xlink="http://www.w3.org/1999/xlink">
<g id="graph0" class="graph" transform="scale(1 1) rotate(0) translate(4 127)">
<title>%3</title>
<polygon fill="#ffffff" stroke="transparent" points="-4,4 -4,-127 1611.489,-127 1611.489,4 -4,4"/>
<!-- organism taxon -->
<g id="node1" class="node">
<title>organism taxon</title>
<ellipse fill="none" stroke="#000000" cx="826.7445" cy="-105" rx="65.7887" ry="18"/>
<text text-anchor="middle" x="826.7445" y="-101.3" font-family="Times,serif" font-size="14.00" fill="#000000">organism taxon</text>
</g>
<!-- ontology class -->
<g id="node2" class="node">
<title>ontology class</title>
<ellipse fill="none" stroke="#000000" cx="61.7445" cy="-18" rx="61.99" ry="18"/>
<text text-anchor="middle" x="61.7445" y="-14.3" font-family="Times,serif" font-size="14.00" fill="#000000">ontology class</text>
</g>
<!-- organism taxon&#45;&gt;ontology class -->
<g id="edge1" class="edge">
<title>organism taxon&#45;&gt;ontology class</title>
<path fill="none" stroke="#000000" d="M761.6322,-102.5813C632.3434,-97.5069 347.3872,-84.8929 250.7445,-69 203.0282,-61.153 149.9685,-46.2741 112.2455,-34.604"/>
<polygon fill="#000000" stroke="#000000" points="113.1035,-31.2052 102.5146,-31.5596 111.0134,-37.8859 113.1035,-31.2052"/>
<text text-anchor="middle" x="261.7445" y="-57.8" font-family="Times,serif" font-size="14.00" fill="#000000">is_a</text>
</g>
<!-- id -->
<g id="node3" class="node">
<title>id</title>
<ellipse fill="none" stroke="#0000ff" cx="171.7445" cy="-18" rx="30.5947" ry="18"/>
<text text-anchor="middle" x="171.7445" y="-14.3" font-family="Times,serif" font-size="14.00" fill="#000000">string</text>
</g>
<!-- organism taxon&#45;&gt;id -->
<g id="edge2" class="edge">
<title>organism taxon&#45;&gt;id</title>
<path fill="none" stroke="#0000ff" d="M761.3729,-102.4684C672.4088,-98.4275 508.4011,-88.8589 369.7445,-69 298.7317,-58.8293 279.9661,-58.183 211.7445,-36 209.4837,-35.2649 207.1794,-34.4413 204.8759,-33.5619"/>
<polygon fill="#0000ff" stroke="#0000ff" points="206.1037,-30.2825 195.524,-29.7152 203.4408,-36.7562 206.1037,-30.2825"/>
<text text-anchor="middle" x="375.2445" y="-57.8" font-family="Times,serif" font-size="14.00" fill="#000000">id</text>
</g>
<!-- name -->
<g id="node4" class="node">
<title>name</title>
<ellipse fill="none" stroke="#0000ff" cx="265.7445" cy="-18" rx="45.4919" ry="18"/>
<text text-anchor="middle" x="265.7445" y="-14.3" font-family="Times,serif" font-size="14.00" fill="#000000">label type</text>
</g>
<!-- organism taxon&#45;&gt;name -->
<g id="edge3" class="edge">
<title>organism taxon&#45;&gt;name</title>
<path fill="none" stroke="#0000ff" d="M761.9844,-101.7606C686.92,-97.3189 559.6931,-87.668 451.7445,-69 402.5277,-60.4887 347.5144,-44.5802 310.1706,-32.785"/>
<polygon fill="#0000ff" stroke="#0000ff" points="311.1901,-29.4365 300.5993,-29.7296 309.0613,-36.1049 311.1901,-29.4365"/>
<text text-anchor="middle" x="467.2445" y="-57.8" font-family="Times,serif" font-size="14.00" fill="#000000">name</text>
</g>
<!-- category -->
<g id="node5" class="node">
<title>category</title>
<ellipse fill="none" stroke="#0000ff" cx="387.7445" cy="-18" rx="58.4896" ry="18"/>
<text text-anchor="middle" x="387.7445" y="-14.3" font-family="Times,serif" font-size="14.00" fill="#000000">category type</text>
</g>
<!-- organism taxon&#45;&gt;category -->
<g id="edge4" class="edge">
<title>organism taxon&#45;&gt;category</title>
<path fill="none" stroke="#0000ff" d="M762.7825,-100.9426C703.3713,-96.2682 612.7402,-86.8226 535.7445,-69 500.3003,-60.7956 461.4553,-47.226 432.4581,-36.1458"/>
<polygon fill="#0000ff" stroke="#0000ff" points="433.6103,-32.8388 423.021,-32.4949 431.0846,-39.3673 433.6103,-32.8388"/>
<text text-anchor="middle" x="559.2445" y="-57.8" font-family="Times,serif" font-size="14.00" fill="#000000">category</text>
</g>
<!-- related to -->
<g id="node6" class="node">
<title>related to</title>
<ellipse fill="none" stroke="#0000ff" cx="519.7445" cy="-18" rx="55.4913" ry="18"/>
<text text-anchor="middle" x="519.7445" y="-14.3" font-family="Times,serif" font-size="14.00" fill="#000000">named thing</text>
</g>
<!-- organism taxon&#45;&gt;related to -->
<g id="edge5" class="edge">
<title>organism taxon&#45;&gt;related to</title>
<path fill="none" stroke="#0000ff" d="M764.7372,-98.9903C723.2249,-93.8023 667.7815,-84.6035 620.7445,-69 597.8324,-61.3994 573.6434,-49.3436 554.6833,-38.8614"/>
<polygon fill="#0000ff" stroke="#0000ff" points="556.2543,-35.7292 545.8241,-33.8684 552.8174,-41.8274 556.2543,-35.7292"/>
<text text-anchor="middle" x="646.7445" y="-57.8" font-family="Times,serif" font-size="14.00" fill="#000000">related to</text>
</g>
<!-- interacts with -->
<g id="node7" class="node">
<title>interacts with</title>
<ellipse fill="none" stroke="#0000ff" cx="647.7445" cy="-18" rx="55.4913" ry="18"/>
<text text-anchor="middle" x="647.7445" y="-14.3" font-family="Times,serif" font-size="14.00" fill="#000000">named thing</text>
</g>
<!-- organism taxon&#45;&gt;interacts with -->
<g id="edge6" class="edge">
<title>organism taxon&#45;&gt;interacts with</title>
<path fill="none" stroke="#0000ff" d="M768.1905,-96.6621C743.8781,-91.3503 716.1687,-82.7676 693.7445,-69 683.3196,-62.5995 673.8625,-53.1382 666.2718,-44.0973"/>
<polygon fill="#0000ff" stroke="#0000ff" points="668.8112,-41.6669 659.8513,-36.0125 663.3295,-46.0202 668.8112,-41.6669"/>
<text text-anchor="middle" x="730.7445" y="-57.8" font-family="Times,serif" font-size="14.00" fill="#000000">interacts with</text>
</g>
<!-- correlated with -->
<g id="node8" class="node">
<title>correlated with</title>
<ellipse fill="none" stroke="#0000ff" cx="775.7445" cy="-18" rx="55.4913" ry="18"/>
<text text-anchor="middle" x="775.7445" y="-14.3" font-family="Times,serif" font-size="14.00" fill="#000000">named thing</text>
</g>
<!-- organism taxon&#45;&gt;correlated with -->
<g id="edge7" class="edge">
<title>organism taxon&#45;&gt;correlated with</title>
<path fill="none" stroke="#0000ff" d="M794.5513,-89.2193C787.0289,-83.8959 779.9827,-77.1794 775.7445,-69 772.2159,-62.19 771.0753,-54.1492 771.1106,-46.4903"/>
<polygon fill="#0000ff" stroke="#0000ff" points="774.608,-46.6432 771.7738,-36.4345 767.6232,-46.1825 774.608,-46.6432"/>
<text text-anchor="middle" x="816.7445" y="-57.8" font-family="Times,serif" font-size="14.00" fill="#000000">correlated with</text>
</g>
<!-- node property -->
<g id="node9" class="node">
<title>node property</title>
<ellipse fill="none" stroke="#0000ff" cx="879.7445" cy="-18" rx="30.5947" ry="18"/>
<text text-anchor="middle" x="879.7445" y="-14.3" font-family="Times,serif" font-size="14.00" fill="#000000">string</text>
</g>
<!-- organism taxon&#45;&gt;node property -->
<g id="edge8" class="edge">
<title>organism taxon&#45;&gt;node property</title>
<path fill="none" stroke="#0000ff" d="M843.6559,-87.5265C848.5841,-81.8913 853.7197,-75.4327 857.7445,-69 862.3989,-61.5611 866.5241,-52.9665 869.9083,-44.9778"/>
<polygon fill="#0000ff" stroke="#0000ff" points="873.1746,-46.2363 873.6546,-35.6523 866.6791,-43.6269 873.1746,-46.2363"/>
<text text-anchor="middle" x="903.7445" y="-57.8" font-family="Times,serif" font-size="14.00" fill="#000000">node property</text>
</g>
<!-- iri -->
<g id="node10" class="node">
<title>iri</title>
<ellipse fill="none" stroke="#0000ff" cx="964.7445" cy="-18" rx="36.2938" ry="18"/>
<text text-anchor="middle" x="964.7445" y="-14.3" font-family="Times,serif" font-size="14.00" fill="#000000">iri type</text>
</g>
<!-- organism taxon&#45;&gt;iri -->
<g id="edge9" class="edge">
<title>organism taxon&#45;&gt;iri</title>
<path fill="none" stroke="#0000ff" d="M879.0112,-94.0143C906.1566,-87.3859 935.7138,-78.4193 945.7445,-69 952.2083,-62.9302 956.4864,-54.4572 959.3125,-46.1585"/>
<polygon fill="#0000ff" stroke="#0000ff" points="962.7482,-46.87 962.0891,-36.2957 956.0101,-44.9731 962.7482,-46.87"/>
<text text-anchor="middle" x="963.2445" y="-57.8" font-family="Times,serif" font-size="14.00" fill="#000000">iri</text>
</g>
<!-- synonym -->
<g id="node11" class="node">
<title>synonym</title>
<ellipse fill="none" stroke="#0000ff" cx="1064.7445" cy="-18" rx="45.4919" ry="18"/>
<text text-anchor="middle" x="1064.7445" y="-14.3" font-family="Times,serif" font-size="14.00" fill="#000000">label type</text>
</g>
<!-- organism taxon&#45;&gt;synonym -->
<g id="edge10" class="edge">
<title>organism taxon&#45;&gt;synonym</title>
<path fill="none" stroke="#0000ff" d="M881.9409,-95.1787C909.9937,-89.2679 944.2891,-80.6113 973.7445,-69 994.0735,-60.9863 1015.4543,-49.1976 1032.3796,-38.9724"/>
<polygon fill="#0000ff" stroke="#0000ff" points="1034.609,-41.71 1041.2891,-33.4865 1030.9388,-35.7493 1034.609,-41.71"/>
<text text-anchor="middle" x="1031.2445" y="-57.8" font-family="Times,serif" font-size="14.00" fill="#000000">synonym</text>
</g>
<!-- full name -->
<g id="node12" class="node">
<title>full name</title>
<ellipse fill="none" stroke="#0000ff" cx="1173.7445" cy="-18" rx="45.4919" ry="18"/>
<text text-anchor="middle" x="1173.7445" y="-14.3" font-family="Times,serif" font-size="14.00" fill="#000000">label type</text>
</g>
<!-- organism taxon&#45;&gt;full name -->
<g id="edge11" class="edge">
<title>organism taxon&#45;&gt;full name</title>
<path fill="none" stroke="#0000ff" d="M889.8347,-99.9696C937.518,-95.0512 1004.1961,-85.7703 1060.7445,-69 1087.3479,-61.1104 1115.8147,-48.2329 1137.521,-37.3922"/>
<polygon fill="#0000ff" stroke="#0000ff" points="1139.3554,-40.3861 1146.6854,-32.7361 1136.1847,-34.1454 1139.3554,-40.3861"/>
<text text-anchor="middle" x="1126.2445" y="-57.8" font-family="Times,serif" font-size="14.00" fill="#000000">full name</text>
</g>
<!-- description -->
<g id="node13" class="node">
<title>description</title>
<ellipse fill="none" stroke="#0000ff" cx="1294.7445" cy="-18" rx="57.6901" ry="18"/>
<text text-anchor="middle" x="1294.7445" y="-14.3" font-family="Times,serif" font-size="14.00" fill="#000000">narrative text</text>
</g>
<!-- organism taxon&#45;&gt;description -->
<g id="edge12" class="edge">
<title>organism taxon&#45;&gt;description</title>
<path fill="none" stroke="#0000ff" d="M892.0376,-102.5954C959.1911,-99.0277 1066.4293,-90.2734 1156.7445,-69 1189.6261,-61.2549 1225.3657,-47.9002 1252.2339,-36.7993"/>
<polygon fill="#0000ff" stroke="#0000ff" points="1253.8409,-39.9208 1261.7096,-32.826 1251.134,-33.4653 1253.8409,-39.9208"/>
<text text-anchor="middle" x="1238.2445" y="-57.8" font-family="Times,serif" font-size="14.00" fill="#000000">description</text>
</g>
<!-- systematic synonym -->
<g id="node14" class="node">
<title>systematic synonym</title>
<ellipse fill="none" stroke="#0000ff" cx="1415.7445" cy="-18" rx="45.4919" ry="18"/>
<text text-anchor="middle" x="1415.7445" y="-14.3" font-family="Times,serif" font-size="14.00" fill="#000000">label type</text>
</g>
<!-- organism taxon&#45;&gt;systematic synonym -->
<g id="edge13" class="edge">
<title>organism taxon&#45;&gt;systematic synonym</title>
<path fill="none" stroke="#0000ff" d="M891.4272,-101.866C997.0336,-96.3983 1201.8258,-84.2316 1272.7445,-69 1308.4757,-61.3258 1347.4501,-47.004 1375.673,-35.4866"/>
<polygon fill="#0000ff" stroke="#0000ff" points="1377.2861,-38.6068 1385.1845,-31.5452 1374.6064,-32.1401 1377.2861,-38.6068"/>
<text text-anchor="middle" x="1381.7445" y="-57.8" font-family="Times,serif" font-size="14.00" fill="#000000">systematic synonym</text>
</g>
<!-- subclass of -->
<g id="node15" class="node">
<title>subclass of</title>
<ellipse fill="none" stroke="#0000ff" cx="1545.7445" cy="-18" rx="61.99" ry="18"/>
<text text-anchor="middle" x="1545.7445" y="-14.3" font-family="Times,serif" font-size="14.00" fill="#000000">ontology class</text>
</g>
<!-- organism taxon&#45;&gt;subclass of -->
<g id="edge14" class="edge">
<title>organism taxon&#45;&gt;subclass of</title>
<path fill="none" stroke="#0000ff" d="M892.4103,-104.4282C1029.0215,-102.7053 1339.6019,-95.8659 1441.7445,-69 1465.9211,-62.641 1491.1411,-50.4318 1510.6903,-39.5536"/>
<polygon fill="#0000ff" stroke="#0000ff" points="1512.5731,-42.5091 1519.525,-34.5139 1509.1046,-36.4288 1512.5731,-42.5091"/>
<text text-anchor="middle" x="1510.2445" y="-57.8" font-family="Times,serif" font-size="14.00" fill="#000000">subclass of</text>
</g>
</g>
</svg>
