<?xml version="1.0" encoding="UTF-8" standalone="no"?>
<!DOCTYPE svg PUBLIC "-//W3C//DTD SVG 1.1//EN"
 "http://www.w3.org/Graphics/SVG/1.1/DTD/svg11.dtd">
<!-- Generated by graphviz version 2.43.0 (0)
 -->
<!-- Title: %3 Pages: 1 -->
<svg width="2349pt" height="291pt"
 viewBox="0.00 0.00 2349.39 291.00" xmlns="http://www.w3.org/2000/svg" xmlns:xlink="http://www.w3.org/1999/xlink">
<g id="graph0" class="graph" transform="scale(1 1) rotate(0) translate(4 287)">
<title>%3</title>
<polygon fill="white" stroke="transparent" points="-4,4 -4,-287 2345.39,-287 2345.39,4 -4,4"/>
<!-- organism taxon to environment association -->
<g id="node1" class="node">
<title>organism taxon to environment association</title>
<ellipse fill="none" stroke="black" cx="1351.39" cy="-265" rx="211.76" ry="18"/>
<text text-anchor="middle" x="1351.39" y="-261.3" font-family="Times,serif" font-size="14.00">organism taxon to environment association</text>
</g>
<!-- association -->
<g id="node2" class="node">
<title>association</title>
<ellipse fill="none" stroke="black" cx="62.39" cy="-178" rx="62.29" ry="18"/>
<text text-anchor="middle" x="62.39" y="-174.3" font-family="Times,serif" font-size="14.00">association</text>
</g>
<!-- organism taxon to environment association&#45;&gt;association -->
<g id="edge1" class="edge">
<title>organism taxon to environment association&#45;&gt;association</title>
<path fill="none" stroke="black" d="M1152.76,-258.69C979.18,-253.39 720.43,-243.85 495.39,-229 334.19,-218.36 292.81,-222.21 133.39,-196 128,-195.11 122.41,-194.04 116.84,-192.88"/>
<polygon fill="black" stroke="black" points="117.41,-189.42 106.89,-190.69 115.9,-196.25 117.41,-189.42"/>
<text text-anchor="middle" x="509.39" y="-217.8" font-family="Times,serif" font-size="14.00">is_a</text>
</g>
<!-- organism taxon to entity association -->
<g id="node3" class="node">
<title>organism taxon to entity association</title>
<ellipse fill="none" stroke="black" cx="322.39" cy="-178" rx="180.07" ry="18"/>
<text text-anchor="middle" x="322.39" y="-174.3" font-family="Times,serif" font-size="14.00">organism taxon to entity association</text>
</g>
<!-- organism taxon to environment association&#45;&gt;organism taxon to entity association -->
<g id="edge2" class="edge">
<title>organism taxon to environment association&#45;&gt;organism taxon to entity association</title>
<path fill="none" stroke="black" d="M1148.59,-259.72C1006.34,-255.33 811.89,-246.51 641.39,-229 564.11,-221.06 477.02,-207.06 413.38,-195.9"/>
<polygon fill="black" stroke="black" points="413.83,-192.42 403.38,-194.13 412.61,-199.31 413.83,-192.42"/>
<text text-anchor="middle" x="657.89" y="-217.8" font-family="Times,serif" font-size="14.00">uses</text>
</g>
<!-- id -->
<g id="node4" class="node">
<title>id</title>
<ellipse fill="none" stroke="blue" cx="558.39" cy="-178" rx="38.19" ry="18"/>
<text text-anchor="middle" x="558.39" y="-174.3" font-family="Times,serif" font-size="14.00">string</text>
</g>
<!-- organism taxon to environment association&#45;&gt;id -->
<g id="edge3" class="edge">
<title>organism taxon to environment association&#45;&gt;id</title>
<path fill="none" stroke="blue" d="M1151.38,-259.05C1038.3,-254.49 894.53,-245.75 767.39,-229 694.98,-219.46 676.77,-215.57 606.39,-196 603.29,-195.14 600.09,-194.17 596.89,-193.15"/>
<polygon fill="blue" stroke="blue" points="597.97,-189.83 587.38,-189.99 595.76,-196.47 597.97,-189.83"/>
<text text-anchor="middle" x="774.39" y="-217.8" font-family="Times,serif" font-size="14.00">id</text>
</g>
<!-- iri -->
<g id="node5" class="node">
<title>iri</title>
<ellipse fill="none" stroke="blue" cx="659.39" cy="-178" rx="44.39" ry="18"/>
<text text-anchor="middle" x="659.39" y="-174.3" font-family="Times,serif" font-size="14.00">iri type</text>
</g>
<!-- organism taxon to environment association&#45;&gt;iri -->
<g id="edge4" class="edge">
<title>organism taxon to environment association&#45;&gt;iri</title>
<path fill="none" stroke="blue" d="M1165.38,-256.35C1075.63,-251.17 966.6,-242.68 869.39,-229 798.79,-219.06 781.32,-214.25 712.39,-196 709.02,-195.11 705.55,-194.13 702.07,-193.11"/>
<polygon fill="blue" stroke="blue" points="702.9,-189.7 692.32,-190.14 700.87,-196.4 702.9,-189.7"/>
<text text-anchor="middle" x="877.39" y="-217.8" font-family="Times,serif" font-size="14.00">iri</text>
</g>
<!-- name -->
<g id="node6" class="node">
<title>name</title>
<ellipse fill="none" stroke="blue" cx="778.39" cy="-178" rx="56.59" ry="18"/>
<text text-anchor="middle" x="778.39" y="-174.3" font-family="Times,serif" font-size="14.00">label type</text>
</g>
<!-- organism taxon to environment association&#45;&gt;name -->
<g id="edge5" class="edge">
<title>organism taxon to environment association&#45;&gt;name</title>
<path fill="none" stroke="blue" d="M1170.18,-255.61C1101.28,-250.47 1022.32,-242.22 951.39,-229 907.76,-220.86 859.31,-206.37 824.81,-195.08"/>
<polygon fill="blue" stroke="blue" points="825.61,-191.66 815.02,-191.84 823.41,-198.3 825.61,-191.66"/>
<text text-anchor="middle" x="971.39" y="-217.8" font-family="Times,serif" font-size="14.00">name</text>
</g>
<!-- description -->
<g id="node7" class="node">
<title>description</title>
<ellipse fill="none" stroke="blue" cx="928.39" cy="-178" rx="75.29" ry="18"/>
<text text-anchor="middle" x="928.39" y="-174.3" font-family="Times,serif" font-size="14.00">narrative text</text>
</g>
<!-- organism taxon to environment association&#45;&gt;description -->
<g id="edge6" class="edge">
<title>organism taxon to environment association&#45;&gt;description</title>
<path fill="none" stroke="blue" d="M1175,-254.96C1128.67,-249.76 1079.15,-241.65 1034.39,-229 1010.22,-222.17 984.71,-210.3 964.78,-199.84"/>
<polygon fill="blue" stroke="blue" points="966.22,-196.64 955.75,-195 962.91,-202.81 966.22,-196.64"/>
<text text-anchor="middle" x="1074.89" y="-217.8" font-family="Times,serif" font-size="14.00">description</text>
</g>
<!-- source -->
<g id="node8" class="node">
<title>source</title>
<ellipse fill="none" stroke="blue" cx="1078.39" cy="-178" rx="56.59" ry="18"/>
<text text-anchor="middle" x="1078.39" y="-174.3" font-family="Times,serif" font-size="14.00">label type</text>
</g>
<!-- organism taxon to environment association&#45;&gt;source -->
<g id="edge7" class="edge">
<title>organism taxon to environment association&#45;&gt;source</title>
<path fill="none" stroke="blue" d="M1217.26,-251C1192.41,-245.91 1167.15,-238.83 1144.39,-229 1129.28,-222.47 1114.47,-211.77 1102.73,-201.94"/>
<polygon fill="blue" stroke="blue" points="1104.97,-199.25 1095.12,-195.34 1100.38,-204.53 1104.97,-199.25"/>
<text text-anchor="middle" x="1168.39" y="-217.8" font-family="Times,serif" font-size="14.00">source</text>
</g>
<!-- provided by -->
<g id="node9" class="node">
<title>provided by</title>
<ellipse fill="none" stroke="blue" cx="1190.39" cy="-178" rx="37.09" ry="18"/>
<text text-anchor="middle" x="1190.39" y="-174.3" font-family="Times,serif" font-size="14.00">agent</text>
</g>
<!-- organism taxon to environment association&#45;&gt;provided by -->
<g id="edge8" class="edge">
<title>organism taxon to environment association&#45;&gt;provided by</title>
<path fill="none" stroke="blue" d="M1256.44,-248.83C1233.81,-243.55 1213.78,-236.92 1205.39,-229 1199.03,-222.98 1195.33,-214.38 1193.19,-206"/>
<polygon fill="blue" stroke="blue" points="1196.61,-205.24 1191.29,-196.08 1189.74,-206.56 1196.61,-205.24"/>
<text text-anchor="middle" x="1247.89" y="-217.8" font-family="Times,serif" font-size="14.00">provided by</text>
</g>
<!-- has attribute -->
<g id="node10" class="node">
<title>has attribute</title>
<ellipse fill="none" stroke="blue" cx="1297.39" cy="-178" rx="51.99" ry="18"/>
<text text-anchor="middle" x="1297.39" y="-174.3" font-family="Times,serif" font-size="14.00">attribute</text>
</g>
<!-- organism taxon to environment association&#45;&gt;has attribute -->
<g id="edge9" class="edge">
<title>organism taxon to environment association&#45;&gt;has attribute</title>
<path fill="none" stroke="blue" d="M1315.36,-247.11C1308.59,-242.25 1302.39,-236.24 1298.39,-229 1294.65,-222.2 1293.4,-214.06 1293.35,-206.33"/>
<polygon fill="blue" stroke="blue" points="1296.86,-206.41 1293.92,-196.23 1289.87,-206.02 1296.86,-206.41"/>
<text text-anchor="middle" x="1345.39" y="-217.8" font-family="Times,serif" font-size="14.00">has attribute</text>
</g>
<!-- relation -->
<g id="node11" class="node">
<title>relation</title>
<ellipse fill="none" stroke="blue" cx="2031.39" cy="-18" rx="38.19" ry="18"/>
<text text-anchor="middle" x="2031.39" y="-14.3" font-family="Times,serif" font-size="14.00">string</text>
</g>
<!-- organism taxon to environment association&#45;&gt;relation -->
<g id="edge10" class="edge">
<title>organism taxon to environment association&#45;&gt;relation</title>
<path fill="none" stroke="blue" d="M1377.74,-247C1383.55,-241.93 1388.98,-235.87 1392.39,-229 1406.06,-201.49 1376.49,-183.39 1396.39,-160 1473.08,-69.9 1849.66,-32.83 1983.82,-22.34"/>
<polygon fill="blue" stroke="blue" points="1984.1,-25.83 1993.8,-21.58 1983.56,-18.85 1984.1,-25.83"/>
<text text-anchor="middle" x="1469.39" y="-130.8" font-family="Times,serif" font-size="14.00">relation</text>
</g>
<!-- negated -->
<g id="node12" class="node">
<title>negated</title>
<ellipse fill="none" stroke="blue" cx="1452.39" cy="-178" rx="46.59" ry="18"/>
<text text-anchor="middle" x="1452.39" y="-174.3" font-family="Times,serif" font-size="14.00">boolean</text>
</g>
<!-- organism taxon to environment association&#45;&gt;negated -->
<g id="edge11" class="edge">
<title>organism taxon to environment association&#45;&gt;negated</title>
<path fill="none" stroke="blue" d="M1393.09,-247.34C1402.7,-242.33 1412.43,-236.21 1420.39,-229 1427.91,-222.2 1434.38,-213.23 1439.49,-204.78"/>
<polygon fill="blue" stroke="blue" points="1442.62,-206.36 1444.5,-195.93 1436.53,-202.91 1442.62,-206.36"/>
<text text-anchor="middle" x="1462.39" y="-217.8" font-family="Times,serif" font-size="14.00">negated</text>
</g>
<!-- qualifiers -->
<g id="node13" class="node">
<title>qualifiers</title>
<ellipse fill="none" stroke="blue" cx="1593.39" cy="-178" rx="76.89" ry="18"/>
<text text-anchor="middle" x="1593.39" y="-174.3" font-family="Times,serif" font-size="14.00">ontology class</text>
</g>
<!-- organism taxon to environment association&#45;&gt;qualifiers -->
<g id="edge12" class="edge">
<title>organism taxon to environment association&#45;&gt;qualifiers</title>
<path fill="none" stroke="blue" d="M1430.49,-248.28C1451.86,-243.09 1474.77,-236.65 1495.39,-229 1516.59,-221.14 1539.14,-209.86 1557.26,-200"/>
<polygon fill="blue" stroke="blue" points="1559.24,-202.9 1566.29,-195 1555.85,-196.78 1559.24,-202.9"/>
<text text-anchor="middle" x="1562.89" y="-217.8" font-family="Times,serif" font-size="14.00">qualifiers</text>
</g>
<!-- publications -->
<g id="node14" class="node">
<title>publications</title>
<ellipse fill="none" stroke="blue" cx="1750.39" cy="-178" rx="62.29" ry="18"/>
<text text-anchor="middle" x="1750.39" y="-174.3" font-family="Times,serif" font-size="14.00">publication</text>
</g>
<!-- organism taxon to environment association&#45;&gt;publications -->
<g id="edge13" class="edge">
<title>organism taxon to environment association&#45;&gt;publications</title>
<path fill="none" stroke="blue" d="M1478.9,-250.62C1518.14,-245.29 1561.3,-238.18 1600.39,-229 1636.29,-220.57 1675.81,-207.22 1705.27,-196.44"/>
<polygon fill="blue" stroke="blue" points="1706.69,-199.64 1714.86,-192.89 1704.26,-193.08 1706.69,-199.64"/>
<text text-anchor="middle" x="1695.39" y="-217.8" font-family="Times,serif" font-size="14.00">publications</text>
</g>
<!-- type -->
<g id="node15" class="node">
<title>type</title>
<ellipse fill="none" stroke="black" cx="1862.39" cy="-178" rx="31.4" ry="18"/>
<text text-anchor="middle" x="1862.39" y="-174.3" font-family="Times,serif" font-size="14.00">type</text>
</g>
<!-- organism taxon to environment association&#45;&gt;type -->
<g id="edge14" class="edge">
<title>organism taxon to environment association&#45;&gt;type</title>
<path fill="none" stroke="blue" d="M1497.99,-251.97C1604.2,-243.08 1731.23,-232.02 1743.39,-229 1774.36,-221.31 1807.69,-206.71 1831.18,-195.26"/>
<polygon fill="blue" stroke="blue" points="1832.89,-198.32 1840.29,-190.73 1829.78,-192.05 1832.89,-198.32"/>
<text text-anchor="middle" x="1803.39" y="-217.8" font-family="Times,serif" font-size="14.00">type</text>
</g>
<!-- category -->
<g id="node17" class="node">
<title>category</title>
<ellipse fill="none" stroke="black" cx="1963.39" cy="-178" rx="51.19" ry="18"/>
<text text-anchor="middle" x="1963.39" y="-174.3" font-family="Times,serif" font-size="14.00">category</text>
</g>
<!-- organism taxon to environment association&#45;&gt;category -->
<g id="edge15" class="edge">
<title>organism taxon to environment association&#45;&gt;category</title>
<path fill="none" stroke="blue" d="M1502.07,-252.3C1525.61,-250.51 1549.66,-248.69 1572.39,-247 1683.93,-238.71 1713.95,-252.02 1823.39,-229 1858.19,-221.68 1896.07,-207.76 1923.65,-196.46"/>
<polygon fill="blue" stroke="blue" points="1925.07,-199.67 1932.95,-192.59 1922.38,-193.2 1925.07,-199.67"/>
<text text-anchor="middle" x="1906.89" y="-217.8" font-family="Times,serif" font-size="14.00">category</text>
</g>
<!-- subject -->
<g id="node19" class="node">
<title>subject</title>
<ellipse fill="none" stroke="black" cx="2077.39" cy="-178" rx="44.39" ry="18"/>
<text text-anchor="middle" x="2077.39" y="-174.3" font-family="Times,serif" font-size="14.00">subject</text>
</g>
<!-- organism taxon to environment association&#45;&gt;subject -->
<g id="edge16" class="edge">
<title>organism taxon to environment association&#45;&gt;subject</title>
<path fill="none" stroke="blue" d="M1499.06,-252.06C1523.55,-250.25 1548.68,-248.49 1572.39,-247 1736.71,-236.69 1781.09,-261.98 1942.39,-229 1976.63,-222 2013.75,-207.73 2040.38,-196.22"/>
<polygon fill="blue" stroke="blue" points="2041.95,-199.35 2049.69,-192.12 2039.13,-192.95 2041.95,-199.35"/>
<text text-anchor="middle" x="2018.39" y="-217.8" font-family="Times,serif" font-size="14.00">subject</text>
</g>
<!-- object -->
<g id="node21" class="node">
<title>object</title>
<ellipse fill="none" stroke="black" cx="2098.39" cy="-91" rx="38.99" ry="18"/>
<text text-anchor="middle" x="2098.39" y="-87.3" font-family="Times,serif" font-size="14.00">object</text>
</g>
<!-- organism taxon to environment association&#45;&gt;object -->
<g id="edge17" class="edge">
<title>organism taxon to environment association&#45;&gt;object</title>
<path fill="none" stroke="blue" d="M1497.56,-251.95C1522.52,-250.12 1548.19,-248.39 1572.39,-247 1678.07,-240.94 1944.87,-251.09 2048.39,-229 2086.81,-220.8 2104.72,-225.74 2130.39,-196 2150.79,-172.38 2157.1,-155.03 2143.39,-127 2140.54,-121.17 2136.19,-116.02 2131.3,-111.6"/>
<polygon fill="blue" stroke="blue" points="2133.32,-108.73 2123.32,-105.25 2128.96,-114.21 2133.32,-108.73"/>
<text text-anchor="middle" x="2171.39" y="-174.3" font-family="Times,serif" font-size="14.00">object</text>
</g>
<!-- predicate -->
<g id="node23" class="node">
<title>predicate</title>
<ellipse fill="none" stroke="black" cx="2274.39" cy="-178" rx="54.69" ry="18"/>
<text text-anchor="middle" x="2274.39" y="-174.3" font-family="Times,serif" font-size="14.00">predicate</text>
</g>
<!-- organism taxon to environment association&#45;&gt;predicate -->
<g id="edge18" class="edge">
<title>organism taxon to environment association&#45;&gt;predicate</title>
<path fill="none" stroke="blue" d="M1496.66,-251.85C1521.9,-250.02 1547.9,-248.31 1572.39,-247 1638.89,-243.45 2106.73,-244.89 2171.39,-229 2196.22,-222.9 2222.11,-210.3 2241.71,-199.28"/>
<polygon fill="blue" stroke="blue" points="2243.62,-202.23 2250.53,-194.2 2240.12,-196.16 2243.62,-202.23"/>
<text text-anchor="middle" x="2246.39" y="-217.8" font-family="Times,serif" font-size="14.00">predicate</text>
</g>
<!-- association_type -->
<g id="node16" class="node">
<title>association_type</title>
<ellipse fill="none" stroke="blue" cx="1619.39" cy="-265" rx="38.19" ry="18"/>
<text text-anchor="middle" x="1619.39" y="-261.3" font-family="Times,serif" font-size="14.00">string</text>
</g>
<!-- association_category -->
<g id="node18" class="node">
<title>association_category</title>
<ellipse fill="none" stroke="blue" cx="1750.39" cy="-265" rx="74.99" ry="18"/>
<text text-anchor="middle" x="1750.39" y="-261.3" font-family="Times,serif" font-size="14.00">category type</text>
</g>
<!-- subject&#45;&gt;relation -->
<g id="edge20" class="edge">
<title>subject&#45;&gt;relation</title>
<path fill="none" stroke="black" stroke-dasharray="1,5" d="M2069.81,-160.24C2063.89,-146.64 2055.79,-126.88 2050.39,-109 2044.14,-88.27 2039.18,-64.24 2035.9,-46.23"/>
<polygon fill="black" stroke="black" points="2039.3,-45.38 2034.12,-36.14 2032.41,-46.59 2039.3,-45.38"/>
</g>
<!-- subject&#45;&gt;object -->
<g id="edge19" class="edge">
<title>subject&#45;&gt;object</title>
<path fill="none" stroke="black" d="M2080.37,-159.77C2082.16,-150.09 2084.62,-137.8 2087.39,-127 2088.08,-124.32 2088.85,-121.53 2089.66,-118.76"/>
<polygon fill="black" stroke="black" points="2093.07,-119.57 2092.65,-108.98 2086.38,-117.52 2093.07,-119.57"/>
<text text-anchor="middle" x="2115.39" y="-130.8" font-family="Times,serif" font-size="14.00">relation</text>
</g>
<!-- organism taxon to environment association_subject -->
<g id="node20" class="node">
<title>organism taxon to environment association_subject</title>
<ellipse fill="none" stroke="blue" cx="1926.39" cy="-265" rx="83.39" ry="18"/>
<text text-anchor="middle" x="1926.39" y="-261.3" font-family="Times,serif" font-size="14.00">organism taxon</text>
</g>
<!-- object&#45;&gt;relation -->
<g id="edge21" class="edge">
<title>object&#45;&gt;relation</title>
<path fill="none" stroke="black" stroke-dasharray="1,5" d="M2083.52,-74.24C2074.59,-64.77 2063.06,-52.56 2053.12,-42.02"/>
<polygon fill="black" stroke="black" points="2055.63,-39.58 2046.22,-34.71 2050.54,-44.39 2055.63,-39.58"/>
</g>
<!-- organism taxon to environment association_object -->
<g id="node22" class="node">
<title>organism taxon to environment association_object</title>
<ellipse fill="none" stroke="blue" cx="2097.39" cy="-265" rx="69.59" ry="18"/>
<text text-anchor="middle" x="2097.39" y="-261.3" font-family="Times,serif" font-size="14.00">named thing</text>
</g>
<!-- organism taxon to environment association_predicate -->
<g id="node24" class="node">
<title>organism taxon to environment association_predicate</title>
<ellipse fill="none" stroke="blue" cx="2263.39" cy="-265" rx="77.99" ry="18"/>
<text text-anchor="middle" x="2263.39" y="-261.3" font-family="Times,serif" font-size="14.00">predicate type</text>
</g>
</g>
</svg>
