<?xml version="1.0" encoding="UTF-8" standalone="no"?>
<!DOCTYPE svg PUBLIC "-//W3C//DTD SVG 1.1//EN"
 "http://www.w3.org/Graphics/SVG/1.1/DTD/svg11.dtd">
<!-- Generated by graphviz version 3.0.0 (20220226.1711)
 -->
<!-- Pages: 1 -->
<svg width="2731pt" height="291pt"
 viewBox="0.00 0.00 2731.05 291.00" xmlns="http://www.w3.org/2000/svg" xmlns:xlink="http://www.w3.org/1999/xlink">
<g id="graph0" class="graph" transform="scale(1 1) rotate(0) translate(4 287)">
<polygon fill="white" stroke="transparent" points="-4,4 -4,-287 2727.05,-287 2727.05,4 -4,4"/>
<!-- organism taxon to organism taxon association -->
<g id="node1" class="node">
<title>organism taxon to organism taxon association</title>
<ellipse fill="none" stroke="black" cx="1278.05" cy="-265" rx="174.37" ry="18"/>
<text text-anchor="middle" x="1278.05" y="-261.3" font-family="Times,serif" font-size="14.00">organism taxon to organism taxon association</text>
</g>
<!-- association -->
<g id="node2" class="node">
<title>association</title>
<ellipse fill="none" stroke="black" cx="50.05" cy="-178" rx="50.09" ry="18"/>
<text text-anchor="middle" x="50.05" y="-174.3" font-family="Times,serif" font-size="14.00">association</text>
</g>
<!-- organism taxon to organism taxon association&#45;&gt;association -->
<g id="edge1" class="edge">
<title>organism taxon to organism taxon association&#45;&gt;association</title>
<path fill="none" stroke="black" d="M1108.11,-261C930.53,-256.98 643.91,-248.02 397.05,-229 268.59,-219.1 235.38,-221.26 109.05,-196 104.87,-195.17 100.56,-194.18 96.26,-193.1"/>
<polygon fill="black" stroke="black" points="96.88,-189.65 86.32,-190.48 95.1,-196.42 96.88,-189.65"/>
<text text-anchor="middle" x="408.05" y="-217.8" font-family="Times,serif" font-size="14.00">is_a</text>
</g>
<!-- organism taxon to entity association -->
<g id="node3" class="node">
<title>organism taxon to entity association</title>
<ellipse fill="none" stroke="black" cx="257.05" cy="-178" rx="139.18" ry="18"/>
<text text-anchor="middle" x="257.05" y="-174.3" font-family="Times,serif" font-size="14.00">organism taxon to entity association</text>
</g>
<!-- organism taxon to organism taxon association&#45;&gt;organism taxon to entity association -->
<g id="edge2" class="edge">
<title>organism taxon to organism taxon association&#45;&gt;organism taxon to entity association</title>
<path fill="none" stroke="black" d="M1104.35,-263.22C949.31,-260.81 716.34,-252.99 515.05,-229 452.4,-221.53 382.15,-207.54 330.8,-196.26"/>
<polygon fill="black" stroke="black" points="331.3,-192.79 320.78,-194.04 329.79,-199.62 331.3,-192.79"/>
<text text-anchor="middle" x="527.05" y="-217.8" font-family="Times,serif" font-size="14.00">uses</text>
</g>
<!-- id -->
<g id="node4" class="node">
<title>id</title>
<ellipse fill="none" stroke="blue" cx="445.05" cy="-178" rx="30.59" ry="18"/>
<text text-anchor="middle" x="445.05" y="-174.3" font-family="Times,serif" font-size="14.00">string</text>
</g>
<!-- organism taxon to organism taxon association&#45;&gt;id -->
<g id="edge3" class="edge">
<title>organism taxon to organism taxon association&#45;&gt;id</title>
<path fill="none" stroke="blue" d="M1104.27,-263.47C971.32,-260.96 783.79,-252.87 621.05,-229 559.51,-219.97 544.09,-215.56 485.05,-196 482.66,-195.21 480.23,-194.34 477.79,-193.42"/>
<polygon fill="blue" stroke="blue" points="479.07,-190.17 468.49,-189.72 476.48,-196.67 479.07,-190.17"/>
<text text-anchor="middle" x="626.55" y="-217.8" font-family="Times,serif" font-size="14.00">id</text>
</g>
<!-- iri -->
<g id="node5" class="node">
<title>iri</title>
<ellipse fill="none" stroke="blue" cx="530.05" cy="-178" rx="36.29" ry="18"/>
<text text-anchor="middle" x="530.05" y="-174.3" font-family="Times,serif" font-size="14.00">iri type</text>
</g>
<!-- organism taxon to organism taxon association&#45;&gt;iri -->
<g id="edge4" class="edge">
<title>organism taxon to organism taxon association&#45;&gt;iri</title>
<path fill="none" stroke="blue" d="M1106.32,-261.88C992.25,-258.41 839.49,-249.83 706.05,-229 647.15,-219.81 632.97,-213.69 576.05,-196 573.3,-195.15 570.48,-194.22 567.65,-193.26"/>
<polygon fill="blue" stroke="blue" points="568.7,-189.92 558.1,-189.9 566.37,-196.52 568.7,-189.92"/>
<text text-anchor="middle" x="712.55" y="-217.8" font-family="Times,serif" font-size="14.00">iri</text>
</g>
<!-- name -->
<g id="node6" class="node">
<title>name</title>
<ellipse fill="none" stroke="blue" cx="630.05" cy="-178" rx="45.49" ry="18"/>
<text text-anchor="middle" x="630.05" y="-174.3" font-family="Times,serif" font-size="14.00">label type</text>
</g>
<!-- organism taxon to organism taxon association&#45;&gt;name -->
<g id="edge5" class="edge">
<title>organism taxon to organism taxon association&#45;&gt;name</title>
<path fill="none" stroke="blue" d="M1104.92,-263C1007.47,-259.68 884.04,-250.87 776.05,-229 738.89,-221.48 698.2,-206.99 669.24,-195.54"/>
<polygon fill="blue" stroke="blue" points="670.47,-192.27 659.89,-191.79 667.86,-198.76 670.47,-192.27"/>
<text text-anchor="middle" x="791.55" y="-217.8" font-family="Times,serif" font-size="14.00">name</text>
</g>
<!-- description -->
<g id="node7" class="node">
<title>description</title>
<ellipse fill="none" stroke="blue" cx="751.05" cy="-178" rx="57.69" ry="18"/>
<text text-anchor="middle" x="751.05" y="-174.3" font-family="Times,serif" font-size="14.00">narrative text</text>
</g>
<!-- organism taxon to organism taxon association&#45;&gt;description -->
<g id="edge6" class="edge">
<title>organism taxon to organism taxon association&#45;&gt;description</title>
<path fill="none" stroke="blue" d="M1118.53,-257.75C1017.1,-252.49 895.81,-243.45 846.05,-229 823.79,-222.54 800.75,-210.56 782.93,-199.95"/>
<polygon fill="blue" stroke="blue" points="784.48,-196.79 774.12,-194.56 780.82,-202.76 784.48,-196.79"/>
<text text-anchor="middle" x="876.55" y="-217.8" font-family="Times,serif" font-size="14.00">description</text>
</g>
<!-- source -->
<g id="node8" class="node">
<title>source</title>
<ellipse fill="none" stroke="blue" cx="857.05" cy="-178" rx="30.59" ry="18"/>
<text text-anchor="middle" x="857.05" y="-174.3" font-family="Times,serif" font-size="14.00">string</text>
</g>
<!-- organism taxon to organism taxon association&#45;&gt;source -->
<g id="edge7" class="edge">
<title>organism taxon to organism taxon association&#45;&gt;source</title>
<path fill="none" stroke="blue" d="M1133.27,-254.89C1059.45,-249.05 978,-240.4 943.05,-229 921.71,-222.04 899.88,-209.26 883.55,-198.37"/>
<polygon fill="blue" stroke="blue" points="885.31,-195.33 875.08,-192.56 881.35,-201.1 885.31,-195.33"/>
<text text-anchor="middle" x="961.05" y="-217.8" font-family="Times,serif" font-size="14.00">source</text>
</g>
<!-- has attribute -->
<g id="node9" class="node">
<title>has attribute</title>
<ellipse fill="none" stroke="blue" cx="946.05" cy="-178" rx="40.09" ry="18"/>
<text text-anchor="middle" x="946.05" y="-174.3" font-family="Times,serif" font-size="14.00">attribute</text>
</g>
<!-- organism taxon to organism taxon association&#45;&gt;has attribute -->
<g id="edge8" class="edge">
<title>organism taxon to organism taxon association&#45;&gt;has attribute</title>
<path fill="none" stroke="blue" d="M1142.78,-253.66C1087.58,-247.98 1030.92,-239.85 1006.05,-229 991.98,-222.86 978.63,-212.38 968.1,-202.6"/>
<polygon fill="blue" stroke="blue" points="970.25,-199.8 960.64,-195.33 965.37,-204.82 970.25,-199.8"/>
<text text-anchor="middle" x="1039.55" y="-217.8" font-family="Times,serif" font-size="14.00">has attribute</text>
</g>
<!-- predicate -->
<g id="node10" class="node">
<title>predicate</title>
<ellipse fill="none" stroke="blue" cx="1065.05" cy="-178" rx="60.39" ry="18"/>
<text text-anchor="middle" x="1065.05" y="-174.3" font-family="Times,serif" font-size="14.00">predicate type</text>
</g>
<!-- organism taxon to organism taxon association&#45;&gt;predicate -->
<g id="edge9" class="edge">
<title>organism taxon to organism taxon association&#45;&gt;predicate</title>
<path fill="none" stroke="blue" d="M1163.25,-251.4C1131.21,-246.01 1101.7,-238.68 1089.05,-229 1081.49,-223.22 1076.19,-214.45 1072.53,-205.86"/>
<polygon fill="blue" stroke="blue" points="1075.8,-204.6 1069.07,-196.41 1069.22,-207.01 1075.8,-204.6"/>
<text text-anchor="middle" x="1114.05" y="-217.8" font-family="Times,serif" font-size="14.00">predicate</text>
</g>
<!-- relation -->
<g id="node11" class="node">
<title>relation</title>
<ellipse fill="none" stroke="blue" cx="2593.05" cy="-18" rx="30.59" ry="18"/>
<text text-anchor="middle" x="2593.05" y="-14.3" font-family="Times,serif" font-size="14.00">string</text>
</g>
<!-- organism taxon to organism taxon association&#45;&gt;relation -->
<g id="edge10" class="edge">
<title>organism taxon to organism taxon association&#45;&gt;relation</title>
<path fill="none" stroke="blue" d="M1239.51,-247.32C1198.36,-227.27 1142.8,-192.29 1172.05,-160 1267.32,-54.8 2329.2,-24.98 2552.14,-19.86"/>
<polygon fill="blue" stroke="blue" points="2552.49,-23.36 2562.41,-19.63 2552.33,-16.36 2552.49,-23.36"/>
<text text-anchor="middle" x="1259.05" y="-130.8" font-family="Times,serif" font-size="14.00">relation</text>
</g>
<!-- negated -->
<g id="node12" class="node">
<title>negated</title>
<ellipse fill="none" stroke="blue" cx="1219.05" cy="-178" rx="38.19" ry="18"/>
<text text-anchor="middle" x="1219.05" y="-174.3" font-family="Times,serif" font-size="14.00">boolean</text>
</g>
<!-- organism taxon to organism taxon association&#45;&gt;negated -->
<g id="edge11" class="edge">
<title>organism taxon to organism taxon association&#45;&gt;negated</title>
<path fill="none" stroke="blue" d="M1266.11,-246.8C1257.54,-234.46 1245.88,-217.66 1236.3,-203.86"/>
<polygon fill="blue" stroke="blue" points="1238.94,-201.53 1230.37,-195.31 1233.19,-205.52 1238.94,-201.53"/>
<text text-anchor="middle" x="1274.55" y="-217.8" font-family="Times,serif" font-size="14.00">negated</text>
</g>
<!-- qualifiers -->
<g id="node13" class="node">
<title>qualifiers</title>
<ellipse fill="none" stroke="blue" cx="1337.05" cy="-178" rx="61.99" ry="18"/>
<text text-anchor="middle" x="1337.05" y="-174.3" font-family="Times,serif" font-size="14.00">ontology class</text>
</g>
<!-- organism taxon to organism taxon association&#45;&gt;qualifiers -->
<g id="edge12" class="edge">
<title>organism taxon to organism taxon association&#45;&gt;qualifiers</title>
<path fill="none" stroke="blue" d="M1289.99,-246.8C1298.44,-234.62 1309.91,-218.09 1319.42,-204.4"/>
<polygon fill="blue" stroke="blue" points="1322.5,-206.1 1325.33,-195.89 1316.75,-202.1 1322.5,-206.1"/>
<text text-anchor="middle" x="1337.55" y="-217.8" font-family="Times,serif" font-size="14.00">qualifiers</text>
</g>
<!-- publications -->
<g id="node14" class="node">
<title>publications</title>
<ellipse fill="none" stroke="blue" cx="1467.05" cy="-178" rx="50.09" ry="18"/>
<text text-anchor="middle" x="1467.05" y="-174.3" font-family="Times,serif" font-size="14.00">publication</text>
</g>
<!-- organism taxon to organism taxon association&#45;&gt;publications -->
<g id="edge13" class="edge">
<title>organism taxon to organism taxon association&#45;&gt;publications</title>
<path fill="none" stroke="blue" d="M1322.28,-247.5C1336.67,-241.89 1352.64,-235.42 1367.05,-229 1388.58,-219.4 1412.2,-207.66 1431.07,-197.96"/>
<polygon fill="blue" stroke="blue" points="1432.92,-200.94 1440.19,-193.24 1429.7,-194.73 1432.92,-200.94"/>
<text text-anchor="middle" x="1431.55" y="-217.8" font-family="Times,serif" font-size="14.00">publications</text>
</g>
<!-- has evidence -->
<g id="node15" class="node">
<title>has evidence</title>
<ellipse fill="none" stroke="blue" cx="1595.05" cy="-178" rx="59.59" ry="18"/>
<text text-anchor="middle" x="1595.05" y="-174.3" font-family="Times,serif" font-size="14.00">evidence type</text>
</g>
<!-- organism taxon to organism taxon association&#45;&gt;has evidence -->
<g id="edge14" class="edge">
<title>organism taxon to organism taxon association&#45;&gt;has evidence</title>
<path fill="none" stroke="blue" d="M1375.09,-250.02C1405.46,-244.63 1438.91,-237.65 1469.05,-229 1498.3,-220.6 1530.16,-207.93 1554.52,-197.44"/>
<polygon fill="blue" stroke="blue" points="1556.03,-200.6 1563.8,-193.4 1553.23,-194.18 1556.03,-200.6"/>
<text text-anchor="middle" x="1547.05" y="-217.8" font-family="Times,serif" font-size="14.00">has evidence</text>
</g>
<!-- knowledge source -->
<g id="node16" class="node">
<title>knowledge source</title>
<ellipse fill="none" stroke="blue" cx="1758.05" cy="-178" rx="85.29" ry="18"/>
<text text-anchor="middle" x="1758.05" y="-174.3" font-family="Times,serif" font-size="14.00">information resource</text>
</g>
<!-- organism taxon to organism taxon association&#45;&gt;knowledge source -->
<g id="edge15" class="edge">
<title>organism taxon to organism taxon association&#45;&gt;knowledge source</title>
<path fill="none" stroke="blue" d="M1400.72,-252.2C1470.73,-245.04 1551.29,-235.97 1586.05,-229 1626.84,-220.81 1671.97,-207.53 1705.77,-196.71"/>
<polygon fill="blue" stroke="blue" points="1706.99,-199.99 1715.43,-193.58 1704.84,-193.33 1706.99,-199.99"/>
<text text-anchor="middle" x="1693.55" y="-217.8" font-family="Times,serif" font-size="14.00">knowledge source</text>
</g>
<!-- original knowledge source -->
<g id="node17" class="node">
<title>original knowledge source</title>
<ellipse fill="none" stroke="blue" cx="1946.05" cy="-178" rx="85.29" ry="18"/>
<text text-anchor="middle" x="1946.05" y="-174.3" font-family="Times,serif" font-size="14.00">information resource</text>
</g>
<!-- organism taxon to organism taxon association&#45;&gt;original knowledge source -->
<g id="edge16" class="edge">
<title>organism taxon to organism taxon association&#45;&gt;original knowledge source</title>
<path fill="none" stroke="blue" d="M1400.56,-252.11C1420.76,-250.3 1441.48,-248.52 1461.05,-247 1588.02,-237.11 1621.2,-248.6 1747.05,-229 1796.04,-221.37 1850.59,-207.25 1890.17,-195.96"/>
<polygon fill="blue" stroke="blue" points="1891.26,-199.29 1899.9,-193.16 1889.32,-192.56 1891.26,-199.29"/>
<text text-anchor="middle" x="1891.55" y="-217.8" font-family="Times,serif" font-size="14.00">original knowledge source</text>
</g>
<!-- primary knowledge source -->
<g id="node18" class="node">
<title>primary knowledge source</title>
<ellipse fill="none" stroke="blue" cx="2134.05" cy="-178" rx="85.29" ry="18"/>
<text text-anchor="middle" x="2134.05" y="-174.3" font-family="Times,serif" font-size="14.00">information resource</text>
</g>
<!-- organism taxon to organism taxon association&#45;&gt;primary knowledge source -->
<g id="edge17" class="edge">
<title>organism taxon to organism taxon association&#45;&gt;primary knowledge source</title>
<path fill="none" stroke="blue" d="M1397.57,-251.91C1418.7,-250.05 1440.51,-248.32 1461.05,-247 1573.55,-239.78 1856.82,-247.41 1968.05,-229 2008.14,-222.36 2052.12,-208.82 2084.74,-197.5"/>
<polygon fill="blue" stroke="blue" points="2086.21,-200.69 2094.48,-194.06 2083.88,-194.09 2086.21,-200.69"/>
<text text-anchor="middle" x="2102.05" y="-217.8" font-family="Times,serif" font-size="14.00">primary knowledge source</text>
</g>
<!-- aggregator knowledge source -->
<g id="node19" class="node">
<title>aggregator knowledge source</title>
<ellipse fill="none" stroke="blue" cx="2322.05" cy="-178" rx="85.29" ry="18"/>
<text text-anchor="middle" x="2322.05" y="-174.3" font-family="Times,serif" font-size="14.00">information resource</text>
</g>
<!-- organism taxon to organism taxon association&#45;&gt;aggregator knowledge source -->
<g id="edge18" class="edge">
<title>organism taxon to organism taxon association&#45;&gt;aggregator knowledge source</title>
<path fill="none" stroke="blue" d="M1397.07,-251.77C1418.35,-249.92 1440.34,-248.22 1461.05,-247 1620.37,-237.61 2022.04,-257.69 2179.05,-229 2213.18,-222.76 2250.12,-209.67 2277.9,-198.45"/>
<polygon fill="blue" stroke="blue" points="2279.41,-201.62 2287.32,-194.57 2276.74,-195.14 2279.41,-201.62"/>
<text text-anchor="middle" x="2316.05" y="-217.8" font-family="Times,serif" font-size="14.00">aggregator knowledge source</text>
</g>
<!-- type -->
<g id="node20" class="node">
<title>type</title>
<ellipse fill="none" stroke="black" cx="2452.05" cy="-178" rx="27" ry="18"/>
<text text-anchor="middle" x="2452.05" y="-174.3" font-family="Times,serif" font-size="14.00">type</text>
</g>
<!-- organism taxon to organism taxon association&#45;&gt;type -->
<g id="edge19" class="edge">
<title>organism taxon to organism taxon association&#45;&gt;type</title>
<path fill="none" stroke="blue" d="M1396.08,-251.75C1417.67,-249.88 1440.02,-248.18 1461.05,-247 1513.14,-244.08 2351.84,-248.96 2400.05,-229 2413.38,-223.48 2425.24,-212.8 2434.26,-202.73"/>
<polygon fill="blue" stroke="blue" points="2437.09,-204.79 2440.85,-194.89 2431.74,-200.29 2437.09,-204.79"/>
<text text-anchor="middle" x="2435.05" y="-217.8" font-family="Times,serif" font-size="14.00">type</text>
</g>
<!-- category -->
<g id="node22" class="node">
<title>category</title>
<ellipse fill="none" stroke="black" cx="2538.05" cy="-178" rx="40.89" ry="18"/>
<text text-anchor="middle" x="2538.05" y="-174.3" font-family="Times,serif" font-size="14.00">category</text>
</g>
<!-- organism taxon to organism taxon association&#45;&gt;category -->
<g id="edge20" class="edge">
<title>organism taxon to organism taxon association&#45;&gt;category</title>
<path fill="none" stroke="blue" d="M1396.08,-251.73C1417.67,-249.86 1440.02,-248.17 1461.05,-247 1570.89,-240.91 2345.01,-258.33 2451.05,-229 2472.3,-223.12 2493.8,-210.83 2510.11,-199.91"/>
<polygon fill="blue" stroke="blue" points="2512.37,-202.6 2518.6,-194.03 2508.39,-196.85 2512.37,-202.6"/>
<text text-anchor="middle" x="2510.55" y="-217.8" font-family="Times,serif" font-size="14.00">category</text>
</g>
<!-- subject -->
<g id="node24" class="node">
<title>subject</title>
<ellipse fill="none" stroke="black" cx="2633.05" cy="-178" rx="36" ry="18"/>
<text text-anchor="middle" x="2633.05" y="-174.3" font-family="Times,serif" font-size="14.00">subject</text>
</g>
<!-- organism taxon to organism taxon association&#45;&gt;subject -->
<g id="edge21" class="edge">
<title>organism taxon to organism taxon association&#45;&gt;subject</title>
<path fill="none" stroke="blue" d="M1396.08,-251.71C1417.67,-249.84 1440.02,-248.15 1461.05,-247 1580.55,-240.46 2422.1,-258.68 2538.05,-229 2561.72,-222.94 2586.07,-209.97 2604.19,-198.75"/>
<polygon fill="blue" stroke="blue" points="2606.51,-201.43 2613.06,-193.1 2602.75,-195.52 2606.51,-201.43"/>
<text text-anchor="middle" x="2595.55" y="-217.8" font-family="Times,serif" font-size="14.00">subject</text>
</g>
<!-- object -->
<g id="node26" class="node">
<title>object</title>
<ellipse fill="none" stroke="black" cx="2653.05" cy="-91" rx="32.49" ry="18"/>
<text text-anchor="middle" x="2653.05" y="-87.3" font-family="Times,serif" font-size="14.00">object</text>
</g>
<!-- organism taxon to organism taxon association&#45;&gt;object -->
<g id="edge22" class="edge">
<title>organism taxon to organism taxon association&#45;&gt;object</title>
<path fill="none" stroke="blue" d="M1396.08,-251.69C1417.67,-249.82 1440.02,-248.14 1461.05,-247 1525.29,-243.52 2556.91,-245.71 2619.05,-229 2648.06,-221.2 2660.11,-220.1 2678.05,-196 2692.72,-176.28 2687.36,-166.44 2690.05,-142 2690.77,-135.37 2692.68,-133.12 2690.05,-127 2687.77,-121.72 2684.27,-116.87 2680.31,-112.56"/>
<polygon fill="blue" stroke="blue" points="2682.49,-109.81 2672.84,-105.43 2677.65,-114.87 2682.49,-109.81"/>
<text text-anchor="middle" x="2706.05" y="-174.3" font-family="Times,serif" font-size="14.00">object</text>
</g>
<!-- association_type -->
<g id="node21" class="node">
<title>association_type</title>
<ellipse fill="none" stroke="blue" cx="1501.05" cy="-265" rx="30.59" ry="18"/>
<text text-anchor="middle" x="1501.05" y="-261.3" font-family="Times,serif" font-size="14.00">string</text>
</g>
<!-- association_category -->
<g id="node23" class="node">
<title>association_category</title>
<ellipse fill="none" stroke="blue" cx="1608.05" cy="-265" rx="58.49" ry="18"/>
<text text-anchor="middle" x="1608.05" y="-261.3" font-family="Times,serif" font-size="14.00">category type</text>
</g>
<!-- subject&#45;&gt;relation -->
<g id="edge24" class="edge">
<title>subject&#45;&gt;relation</title>
<path fill="none" stroke="black" stroke-dasharray="1,5" d="M2627.35,-160.08C2622.85,-146.39 2616.61,-126.58 2612.05,-109 2606.61,-88.04 2601.6,-64.03 2598.09,-46.08"/>
<polygon fill="black" stroke="black" points="2601.48,-45.19 2596.16,-36.03 2594.61,-46.51 2601.48,-45.19"/>
</g>
<!-- subject&#45;&gt;object -->
<g id="edge23" class="edge">
<title>subject&#45;&gt;object</title>
<path fill="none" stroke="black" d="M2637.09,-159.8C2639.85,-148.09 2643.55,-132.34 2646.7,-118.97"/>
<polygon fill="black" stroke="black" points="2650.19,-119.42 2649.07,-108.89 2643.38,-117.82 2650.19,-119.42"/>
<text text-anchor="middle" x="2665.05" y="-130.8" font-family="Times,serif" font-size="14.00">relation</text>
</g>
<!-- organism taxon to organism taxon association_subject -->
<g id="node25" class="node">
<title>organism taxon to organism taxon association_subject</title>
<ellipse fill="none" stroke="blue" cx="1750.05" cy="-265" rx="65.79" ry="18"/>
<text text-anchor="middle" x="1750.05" y="-261.3" font-family="Times,serif" font-size="14.00">organism taxon</text>
</g>
<!-- object&#45;&gt;relation -->
<g id="edge25" class="edge">
<title>object&#45;&gt;relation</title>
<path fill="none" stroke="black" stroke-dasharray="1,5" d="M2639.73,-74.24C2631.88,-64.96 2621.81,-53.03 2613.02,-42.64"/>
<polygon fill="black" stroke="black" points="2615.45,-40.09 2606.32,-34.71 2610.11,-44.61 2615.45,-40.09"/>
</g>
<!-- organism taxon to organism taxon association_object -->
<g id="node27" class="node">
<title>organism taxon to organism taxon association_object</title>
<ellipse fill="none" stroke="blue" cx="1899.05" cy="-265" rx="65.79" ry="18"/>
<text text-anchor="middle" x="1899.05" y="-261.3" font-family="Times,serif" font-size="14.00">organism taxon</text>
</g>
</g>
</svg>
