<?xml version="1.0" encoding="UTF-8" standalone="no"?>
<!DOCTYPE svg PUBLIC "-//W3C//DTD SVG 1.1//EN"
 "http://www.w3.org/Graphics/SVG/1.1/DTD/svg11.dtd">
<!-- Generated by graphviz version 2.40.1 (20161225.0304)
 -->
<!-- Title: %3 Pages: 1 -->
<svg width="1659pt" height="291pt"
 viewBox="0.00 0.00 1659.05 291.00" xmlns="http://www.w3.org/2000/svg" xmlns:xlink="http://www.w3.org/1999/xlink">
<g id="graph0" class="graph" transform="scale(1 1) rotate(0) translate(4 287)">
<title>%3</title>
<polygon fill="#ffffff" stroke="transparent" points="-4,4 -4,-287 1655.0456,-287 1655.0456,4 -4,4"/>
<!-- organism taxon to organism taxon association -->
<g id="node1" class="node">
<title>organism taxon to organism taxon association</title>
<ellipse fill="none" stroke="#000000" cx="876.0456" cy="-265" rx="174.3693" ry="18"/>
<text text-anchor="middle" x="876.0456" y="-261.3" font-family="Times,serif" font-size="14.00" fill="#000000">organism taxon to organism taxon association</text>
</g>
<!-- association -->
<g id="node2" class="node">
<title>association</title>
<ellipse fill="none" stroke="#000000" cx="50.0456" cy="-178" rx="50.0912" ry="18"/>
<text text-anchor="middle" x="50.0456" y="-174.3" font-family="Times,serif" font-size="14.00" fill="#000000">association</text>
</g>
<!-- organism taxon to organism taxon association&#45;&gt;association -->
<g id="edge1" class="edge">
<title>organism taxon to organism taxon association&#45;&gt;association</title>
<path fill="none" stroke="#000000" d="M708.083,-260.1244C545.8572,-254.624 311.9219,-244.3874 222.0456,-229 177.8983,-221.4417 129.075,-206.282 94.7597,-194.4459"/>
<polygon fill="#000000" stroke="#000000" points="95.635,-191.0442 85.0402,-191.0484 93.3251,-197.6522 95.635,-191.0442"/>
<text text-anchor="middle" x="233.0456" y="-217.8" font-family="Times,serif" font-size="14.00" fill="#000000">is_a</text>
</g>
<!-- id -->
<g id="node3" class="node">
<title>id</title>
<ellipse fill="none" stroke="#0000ff" cx="149.0456" cy="-178" rx="30.5947" ry="18"/>
<text text-anchor="middle" x="149.0456" y="-174.3" font-family="Times,serif" font-size="14.00" fill="#000000">string</text>
</g>
<!-- organism taxon to organism taxon association&#45;&gt;id -->
<g id="edge2" class="edge">
<title>organism taxon to organism taxon association&#45;&gt;id</title>
<path fill="none" stroke="#0000ff" d="M717.0562,-257.6164C581.9311,-250.7822 398.6537,-240.0381 326.0456,-229 264.1266,-219.5869 248.3044,-216.272 189.0456,-196 186.7962,-195.2305 184.5006,-194.381 182.2034,-193.4824"/>
<polygon fill="#0000ff" stroke="#0000ff" points="183.4432,-190.2074 172.8663,-189.5917 180.7507,-196.6689 183.4432,-190.2074"/>
<text text-anchor="middle" x="331.5456" y="-217.8" font-family="Times,serif" font-size="14.00" fill="#000000">id</text>
</g>
<!-- iri -->
<g id="node4" class="node">
<title>iri</title>
<ellipse fill="none" stroke="#0000ff" cx="234.0456" cy="-178" rx="36.2938" ry="18"/>
<text text-anchor="middle" x="234.0456" y="-174.3" font-family="Times,serif" font-size="14.00" fill="#000000">iri type</text>
</g>
<!-- organism taxon to organism taxon association&#45;&gt;iri -->
<g id="edge3" class="edge">
<title>organism taxon to organism taxon association&#45;&gt;iri</title>
<path fill="none" stroke="#0000ff" d="M713.3369,-258.5117C625.2403,-253.4244 514.7401,-244.4976 417.0456,-229 355.1886,-219.1874 339.7914,-214.7884 280.0456,-196 277.2845,-195.1317 274.452,-194.1796 271.6148,-193.1807"/>
<polygon fill="#0000ff" stroke="#0000ff" points="272.6412,-189.8289 262.0477,-189.6587 270.2229,-196.398 272.6412,-189.8289"/>
<text text-anchor="middle" x="423.5456" y="-217.8" font-family="Times,serif" font-size="14.00" fill="#000000">iri</text>
</g>
<!-- name -->
<g id="node5" class="node">
<title>name</title>
<ellipse fill="none" stroke="#0000ff" cx="334.0456" cy="-178" rx="45.4919" ry="18"/>
<text text-anchor="middle" x="334.0456" y="-174.3" font-family="Times,serif" font-size="14.00" fill="#000000">label type</text>
</g>
<!-- organism taxon to organism taxon association&#45;&gt;name -->
<g id="edge4" class="edge">
<title>organism taxon to organism taxon association&#45;&gt;name</title>
<path fill="none" stroke="#0000ff" d="M716.1562,-257.8335C646.4994,-252.7139 564.2165,-243.9579 491.0456,-229 451.1409,-220.8426 407.1561,-206.0244 375.9197,-194.4551"/>
<polygon fill="#0000ff" stroke="#0000ff" points="376.8395,-191.062 366.2473,-190.8256 374.3801,-197.6158 376.8395,-191.062"/>
<text text-anchor="middle" x="506.5456" y="-217.8" font-family="Times,serif" font-size="14.00" fill="#000000">name</text>
</g>
<!-- description -->
<g id="node6" class="node">
<title>description</title>
<ellipse fill="none" stroke="#0000ff" cx="455.0456" cy="-178" rx="57.6901" ry="18"/>
<text text-anchor="middle" x="455.0456" y="-174.3" font-family="Times,serif" font-size="14.00" fill="#000000">narrative text</text>
</g>
<!-- organism taxon to organism taxon association&#45;&gt;description -->
<g id="edge5" class="edge">
<title>organism taxon to organism taxon association&#45;&gt;description</title>
<path fill="none" stroke="#0000ff" d="M741.6598,-253.4822C673.9967,-246.8523 599.5632,-238.057 567.0456,-229 541.0487,-221.7592 513.4403,-209.2483 492.1391,-198.4303"/>
<polygon fill="#0000ff" stroke="#0000ff" points="493.6121,-195.2517 483.1226,-193.7616 490.3934,-201.4678 493.6121,-195.2517"/>
<text text-anchor="middle" x="597.5456" y="-217.8" font-family="Times,serif" font-size="14.00" fill="#000000">description</text>
</g>
<!-- source -->
<g id="node7" class="node">
<title>source</title>
<ellipse fill="none" stroke="#0000ff" cx="576.0456" cy="-178" rx="45.4919" ry="18"/>
<text text-anchor="middle" x="576.0456" y="-174.3" font-family="Times,serif" font-size="14.00" fill="#000000">label type</text>
</g>
<!-- organism taxon to organism taxon association&#45;&gt;source -->
<g id="edge6" class="edge">
<title>organism taxon to organism taxon association&#45;&gt;source</title>
<path fill="none" stroke="#0000ff" d="M752.0392,-252.3462C721.6967,-247.0535 689.7201,-239.5699 661.0456,-229 641.7432,-221.8849 621.9338,-210.2944 606.2995,-199.9595"/>
<polygon fill="#0000ff" stroke="#0000ff" points="607.8518,-196.7831 597.6121,-194.0629 603.9206,-202.575 607.8518,-196.7831"/>
<text text-anchor="middle" x="679.0456" y="-217.8" font-family="Times,serif" font-size="14.00" fill="#000000">source</text>
</g>
<!-- provided by -->
<g id="node8" class="node">
<title>provided by</title>
<ellipse fill="none" stroke="#0000ff" cx="669.0456" cy="-178" rx="29.795" ry="18"/>
<text text-anchor="middle" x="669.0456" y="-174.3" font-family="Times,serif" font-size="14.00" fill="#000000">agent</text>
</g>
<!-- organism taxon to organism taxon association&#45;&gt;provided by -->
<g id="edge7" class="edge">
<title>organism taxon to organism taxon association&#45;&gt;provided by</title>
<path fill="none" stroke="#0000ff" d="M774.787,-250.3186C755.8849,-245.1979 736.82,-238.2972 720.0456,-229 708.0668,-222.3608 697.0143,-212.0853 688.2832,-202.4925"/>
<polygon fill="#0000ff" stroke="#0000ff" points="690.7181,-199.9577 681.5256,-194.69 685.4267,-204.5405 690.7181,-199.9577"/>
<text text-anchor="middle" x="753.0456" y="-217.8" font-family="Times,serif" font-size="14.00" fill="#000000">provided by</text>
</g>
<!-- has attribute -->
<g id="node9" class="node">
<title>has attribute</title>
<ellipse fill="none" stroke="#0000ff" cx="757.0456" cy="-178" rx="40.0939" ry="18"/>
<text text-anchor="middle" x="757.0456" y="-174.3" font-family="Times,serif" font-size="14.00" fill="#000000">attribute</text>
</g>
<!-- organism taxon to organism taxon association&#45;&gt;has attribute -->
<g id="edge8" class="edge">
<title>organism taxon to organism taxon association&#45;&gt;has attribute</title>
<path fill="none" stroke="#0000ff" d="M835.1782,-247.3154C824.9213,-242.0737 814.2293,-235.8732 805.0456,-229 794.9565,-221.4493 785.1693,-211.6535 777.0931,-202.6679"/>
<polygon fill="#0000ff" stroke="#0000ff" points="779.6758,-200.3041 770.4717,-195.0568 774.3946,-204.8986 779.6758,-200.3041"/>
<text text-anchor="middle" x="838.5456" y="-217.8" font-family="Times,serif" font-size="14.00" fill="#000000">has attribute</text>
</g>
<!-- predicate -->
<g id="node10" class="node">
<title>predicate</title>
<ellipse fill="none" stroke="#0000ff" cx="876.0456" cy="-178" rx="60.3893" ry="18"/>
<text text-anchor="middle" x="876.0456" y="-174.3" font-family="Times,serif" font-size="14.00" fill="#000000">predicate type</text>
</g>
<!-- organism taxon to organism taxon association&#45;&gt;predicate -->
<g id="edge9" class="edge">
<title>organism taxon to organism taxon association&#45;&gt;predicate</title>
<path fill="none" stroke="#0000ff" d="M876.0456,-246.9735C876.0456,-235.1918 876.0456,-219.5607 876.0456,-206.1581"/>
<polygon fill="#0000ff" stroke="#0000ff" points="879.5457,-206.0033 876.0456,-196.0034 872.5457,-206.0034 879.5457,-206.0033"/>
<text text-anchor="middle" x="901.0456" y="-217.8" font-family="Times,serif" font-size="14.00" fill="#000000">predicate</text>
</g>
<!-- relation -->
<g id="node11" class="node">
<title>relation</title>
<ellipse fill="none" stroke="#0000ff" cx="1514.0456" cy="-18" rx="45.4919" ry="18"/>
<text text-anchor="middle" x="1514.0456" y="-14.3" font-family="Times,serif" font-size="14.00" fill="#000000">uriorcurie</text>
</g>
<!-- organism taxon to organism taxon association&#45;&gt;relation -->
<g id="edge10" class="edge">
<title>organism taxon to organism taxon association&#45;&gt;relation</title>
<path fill="none" stroke="#0000ff" d="M906.4947,-247.2144C914.5517,-241.8529 922.9681,-235.6185 930.0456,-229 958.2892,-202.5878 950.8826,-181.4675 983.0456,-160 1134.9818,-58.5883 1356.5988,-29.4412 1458.7344,-21.1895"/>
<polygon fill="#0000ff" stroke="#0000ff" points="1459.1258,-24.6698 1468.827,-20.4111 1458.5875,-17.6905 1459.1258,-24.6698"/>
<text text-anchor="middle" x="1058.0456" y="-130.8" font-family="Times,serif" font-size="14.00" fill="#000000">relation</text>
</g>
<!-- negated -->
<g id="node12" class="node">
<title>negated</title>
<ellipse fill="none" stroke="#0000ff" cx="1030.0456" cy="-178" rx="38.1938" ry="18"/>
<text text-anchor="middle" x="1030.0456" y="-174.3" font-family="Times,serif" font-size="14.00" fill="#000000">boolean</text>
</g>
<!-- organism taxon to organism taxon association&#45;&gt;negated -->
<g id="edge11" class="edge">
<title>organism taxon to organism taxon association&#45;&gt;negated</title>
<path fill="none" stroke="#0000ff" d="M937.6483,-248.1307C951.475,-243.0369 965.6955,-236.6997 978.0456,-229 989.4466,-221.8919 1000.3413,-211.899 1009.186,-202.6402"/>
<polygon fill="#0000ff" stroke="#0000ff" points="1011.9115,-204.847 1016.0995,-195.115 1006.7566,-200.1112 1011.9115,-204.847"/>
<text text-anchor="middle" x="1018.5456" y="-217.8" font-family="Times,serif" font-size="14.00" fill="#000000">negated</text>
</g>
<!-- qualifiers -->
<g id="node13" class="node">
<title>qualifiers</title>
<ellipse fill="none" stroke="#0000ff" cx="1148.0456" cy="-178" rx="61.99" ry="18"/>
<text text-anchor="middle" x="1148.0456" y="-174.3" font-family="Times,serif" font-size="14.00" fill="#000000">ontology class</text>
</g>
<!-- organism taxon to organism taxon association&#45;&gt;qualifiers -->
<g id="edge12" class="edge">
<title>organism taxon to organism taxon association&#45;&gt;qualifiers</title>
<path fill="none" stroke="#0000ff" d="M967.4017,-249.6614C992.5803,-244.2952 1019.6654,-237.4465 1044.0456,-229 1067.0108,-221.0437 1091.472,-209.2327 1110.898,-198.98"/>
<polygon fill="#0000ff" stroke="#0000ff" points="1112.5641,-202.0581 1119.7228,-194.2476 1109.2559,-195.8892 1112.5641,-202.0581"/>
<text text-anchor="middle" x="1106.0456" y="-217.8" font-family="Times,serif" font-size="14.00" fill="#000000">qualifiers</text>
</g>
<!-- publications -->
<g id="node14" class="node">
<title>publications</title>
<ellipse fill="none" stroke="#0000ff" cx="1278.0456" cy="-178" rx="50.0912" ry="18"/>
<text text-anchor="middle" x="1278.0456" y="-174.3" font-family="Times,serif" font-size="14.00" fill="#000000">publication</text>
</g>
<!-- organism taxon to organism taxon association&#45;&gt;publications -->
<g id="edge13" class="edge">
<title>organism taxon to organism taxon association&#45;&gt;publications</title>
<path fill="none" stroke="#0000ff" d="M1003.6672,-252.6792C1046.1368,-247.1644 1093.4545,-239.4768 1136.0456,-229 1170.5172,-220.5205 1208.2863,-206.7263 1236.2011,-195.6207"/>
<polygon fill="#0000ff" stroke="#0000ff" points="1237.6743,-198.8007 1245.6424,-191.8178 1235.0588,-192.3076 1237.6743,-198.8007"/>
<text text-anchor="middle" x="1217.5456" y="-217.8" font-family="Times,serif" font-size="14.00" fill="#000000">publications</text>
</g>
<!-- type -->
<g id="node15" class="node">
<title>type</title>
<ellipse fill="none" stroke="#000000" cx="1373.0456" cy="-178" rx="27" ry="18"/>
<text text-anchor="middle" x="1373.0456" y="-174.3" font-family="Times,serif" font-size="14.00" fill="#000000">type</text>
</g>
<!-- organism taxon to organism taxon association&#45;&gt;type -->
<g id="edge14" class="edge">
<title>organism taxon to organism taxon association&#45;&gt;type</title>
<path fill="none" stroke="#0000ff" d="M1002.0416,-252.499C1021.1388,-250.6355 1040.6127,-248.7529 1059.0456,-247 1146.1304,-238.7184 1170.0151,-249.5466 1255.0456,-229 1286.3144,-221.4442 1319.7803,-206.2288 1343.0562,-194.3745"/>
<polygon fill="#0000ff" stroke="#0000ff" points="1344.8037,-197.4109 1352.0642,-189.695 1341.5767,-191.1991 1344.8037,-197.4109"/>
<text text-anchor="middle" x="1311.0456" y="-217.8" font-family="Times,serif" font-size="14.00" fill="#000000">type</text>
</g>
<!-- category -->
<g id="node17" class="node">
<title>category</title>
<ellipse fill="none" stroke="#000000" cx="1459.0456" cy="-178" rx="40.8928" ry="18"/>
<text text-anchor="middle" x="1459.0456" y="-174.3" font-family="Times,serif" font-size="14.00" fill="#000000">category</text>
</g>
<!-- organism taxon to organism taxon association&#45;&gt;category -->
<g id="edge15" class="edge">
<title>organism taxon to organism taxon association&#45;&gt;category</title>
<path fill="none" stroke="#0000ff" d="M1000.0309,-252.2804C1019.7626,-250.4074 1039.9563,-248.5795 1059.0456,-247 1178.0185,-237.1559 1210.4885,-254.8051 1327.0456,-229 1360.2261,-221.654 1396.0891,-207.3562 1422.0479,-195.7641"/>
<polygon fill="#0000ff" stroke="#0000ff" points="1423.8305,-198.7985 1431.4856,-191.474 1420.9337,-192.426 1423.8305,-198.7985"/>
<text text-anchor="middle" x="1399.5456" y="-217.8" font-family="Times,serif" font-size="14.00" fill="#000000">category</text>
</g>
<!-- subject -->
<g id="node19" class="node">
<title>subject</title>
<ellipse fill="none" stroke="#000000" cx="1554.0456" cy="-178" rx="35.9954" ry="18"/>
<text text-anchor="middle" x="1554.0456" y="-174.3" font-family="Times,serif" font-size="14.00" fill="#000000">subject</text>
</g>
<!-- organism taxon to organism taxon association&#45;&gt;subject -->
<g id="edge16" class="edge">
<title>organism taxon to organism taxon association&#45;&gt;subject</title>
<path fill="none" stroke="#0000ff" d="M998.5278,-252.1127C1018.7311,-250.2284 1039.4652,-248.441 1059.0456,-247 1140.7003,-240.9909 1347.0615,-246.4974 1427.0456,-229 1459.7705,-221.841 1494.9702,-207.0987 1519.9929,-195.2972"/>
<polygon fill="#0000ff" stroke="#0000ff" points="1521.5616,-198.4266 1529.0585,-190.9401 1518.5293,-192.1174 1521.5616,-198.4266"/>
<text text-anchor="middle" x="1492.5456" y="-217.8" font-family="Times,serif" font-size="14.00" fill="#000000">subject</text>
</g>
<!-- object -->
<g id="node21" class="node">
<title>object</title>
<ellipse fill="none" stroke="#000000" cx="1574.0456" cy="-91" rx="32.4942" ry="18"/>
<text text-anchor="middle" x="1574.0456" y="-87.3" font-family="Times,serif" font-size="14.00" fill="#000000">object</text>
</g>
<!-- organism taxon to organism taxon association&#45;&gt;object -->
<g id="edge17" class="edge">
<title>organism taxon to organism taxon association&#45;&gt;object</title>
<path fill="none" stroke="#0000ff" d="M997.5311,-252.0426C1018.0464,-250.1436 1039.14,-248.3698 1059.0456,-247 1160.4401,-240.0226 1416.6208,-250.077 1516.0456,-229 1554.8802,-220.7675 1573.3045,-226.2208 1599.0456,-196 1619.2292,-172.3038 1623.154,-155.6753 1611.0456,-127 1608.823,-121.7365 1605.4129,-116.862 1601.5445,-112.5091"/>
<polygon fill="#0000ff" stroke="#0000ff" points="1603.8081,-109.8246 1594.2441,-105.2661 1598.878,-114.7939 1603.8081,-109.8246"/>
<text text-anchor="middle" x="1634.0456" y="-174.3" font-family="Times,serif" font-size="14.00" fill="#000000">object</text>
</g>
<!-- association_type -->
<g id="node16" class="node">
<title>association_type</title>
<ellipse fill="none" stroke="#0000ff" cx="1099.0456" cy="-265" rx="30.5947" ry="18"/>
<text text-anchor="middle" x="1099.0456" y="-261.3" font-family="Times,serif" font-size="14.00" fill="#000000">string</text>
</g>
<!-- association_category -->
<g id="node18" class="node">
<title>association_category</title>
<ellipse fill="none" stroke="#0000ff" cx="1198.0456" cy="-265" rx="50.0912" ry="18"/>
<text text-anchor="middle" x="1198.0456" y="-261.3" font-family="Times,serif" font-size="14.00" fill="#000000">association</text>
</g>
<!-- subject&#45;&gt;relation -->
<g id="edge19" class="edge">
<title>subject&#45;&gt;relation</title>
<path fill="none" stroke="#000000" stroke-dasharray="1,5" d="M1548.072,-159.9654C1543.6032,-146.1164 1537.5177,-126.4678 1533.0456,-109 1527.6917,-88.0882 1522.7459,-64.1877 1519.2431,-46.1297"/>
<polygon fill="#000000" stroke="#000000" points="1522.6682,-45.4058 1517.3553,-36.2393 1515.7923,-46.7182 1522.6682,-45.4058"/>
</g>
<!-- subject&#45;&gt;object -->
<g id="edge18" class="edge">
<title>subject&#45;&gt;object</title>
<path fill="none" stroke="#000000" d="M1558.1896,-159.9735C1560.9248,-148.0751 1564.5626,-132.2508 1567.6638,-118.7606"/>
<polygon fill="#000000" stroke="#000000" points="1571.0774,-119.5333 1569.9069,-109.0034 1564.2553,-117.965 1571.0774,-119.5333"/>
<text text-anchor="middle" x="1586.0456" y="-130.8" font-family="Times,serif" font-size="14.00" fill="#000000">relation</text>
</g>
<!-- organism taxon to organism taxon association_subject -->
<g id="node20" class="node">
<title>organism taxon to organism taxon association_subject</title>
<ellipse fill="none" stroke="#0000ff" cx="1332.0456" cy="-265" rx="65.7887" ry="18"/>
<text text-anchor="middle" x="1332.0456" y="-261.3" font-family="Times,serif" font-size="14.00" fill="#000000">organism taxon</text>
</g>
<!-- object&#45;&gt;relation -->
<g id="edge20" class="edge">
<title>object&#45;&gt;relation</title>
<path fill="none" stroke="#000000" stroke-dasharray="1,5" d="M1560.4306,-74.4352C1552.8462,-65.2075 1543.2464,-53.5276 1534.7502,-43.1906"/>
<polygon fill="#000000" stroke="#000000" points="1537.2862,-40.764 1528.2327,-35.261 1531.8784,-45.2088 1537.2862,-40.764"/>
</g>
<!-- organism taxon to organism taxon association_object -->
<g id="node22" class="node">
<title>organism taxon to organism taxon association_object</title>
<ellipse fill="none" stroke="#0000ff" cx="1481.0456" cy="-265" rx="65.7887" ry="18"/>
<text text-anchor="middle" x="1481.0456" y="-261.3" font-family="Times,serif" font-size="14.00" fill="#000000">organism taxon</text>
</g>
</g>
</svg>
