<?xml version="1.0" encoding="UTF-8" standalone="no"?>
<!DOCTYPE svg PUBLIC "-//W3C//DTD SVG 1.1//EN"
 "http://www.w3.org/Graphics/SVG/1.1/DTD/svg11.dtd">
<!-- Generated by graphviz version 2.43.0 (0)
 -->
<!-- Title: %3 Pages: 1 -->
<svg width="5715pt" height="291pt"
 viewBox="0.00 0.00 5715.39 291.00" xmlns="http://www.w3.org/2000/svg" xmlns:xlink="http://www.w3.org/1999/xlink">
<g id="graph0" class="graph" transform="scale(1 1) rotate(0) translate(4 287)">
<title>%3</title>
<polygon fill="white" stroke="transparent" points="-4,4 -4,-287 5711.39,-287 5711.39,4 -4,4"/>
<!-- organismal entity as a model of disease association -->
<g id="node1" class="node">
<title>organismal entity as a model of disease association</title>
<ellipse fill="none" stroke="black" cx="2954.39" cy="-265" rx="248.86" ry="18"/>
<text text-anchor="middle" x="2954.39" y="-261.3" font-family="Times,serif" font-size="14.00">organismal entity as a model of disease association</text>
</g>
<!-- association -->
<g id="node2" class="node">
<title>association</title>
<ellipse fill="none" stroke="black" cx="62.39" cy="-178" rx="62.29" ry="18"/>
<text text-anchor="middle" x="62.39" y="-174.3" font-family="Times,serif" font-size="14.00">association</text>
</g>
<!-- organismal entity as a model of disease association&#45;&gt;association -->
<g id="edge1" class="edge">
<title>organismal entity as a model of disease association&#45;&gt;association</title>
<path fill="none" stroke="black" d="M2705.14,-264.69C2277.02,-264.88 1374.43,-260.98 612.39,-229 399.63,-220.07 344.94,-227.91 134.39,-196 128.7,-195.14 122.79,-194.05 116.92,-192.86"/>
<polygon fill="black" stroke="black" points="117.62,-189.43 107.11,-190.75 116.15,-196.27 117.62,-189.43"/>
<text text-anchor="middle" x="626.39" y="-217.8" font-family="Times,serif" font-size="14.00">is_a</text>
</g>
<!-- model to disease association mixin -->
<g id="node3" class="node">
<title>model to disease association mixin</title>
<ellipse fill="none" stroke="black" cx="315.39" cy="-178" rx="172.47" ry="18"/>
<text text-anchor="middle" x="315.39" y="-174.3" font-family="Times,serif" font-size="14.00">model to disease association mixin</text>
</g>
<!-- organismal entity as a model of disease association&#45;&gt;model to disease association mixin -->
<g id="edge2" class="edge">
<title>organismal entity as a model of disease association&#45;&gt;model to disease association mixin</title>
<path fill="none" stroke="black" d="M2707.66,-262.45C2228.15,-259.02 1186.09,-249.43 827.39,-229 691.91,-221.28 536.89,-205.11 433.25,-193.24"/>
<polygon fill="black" stroke="black" points="433.41,-189.74 423.07,-192.07 432.61,-196.69 433.41,-189.74"/>
<text text-anchor="middle" x="843.89" y="-217.8" font-family="Times,serif" font-size="14.00">uses</text>
</g>
<!-- entity to disease association mixin -->
<g id="node4" class="node">
<title>entity to disease association mixin</title>
<ellipse fill="none" stroke="black" cx="676.39" cy="-178" rx="170.87" ry="18"/>
<text text-anchor="middle" x="676.39" y="-174.3" font-family="Times,serif" font-size="14.00">entity to disease association mixin</text>
</g>
<!-- organismal entity as a model of disease association&#45;&gt;entity to disease association mixin -->
<g id="edge3" class="edge">
<title>organismal entity as a model of disease association&#45;&gt;entity to disease association mixin</title>
<path fill="none" stroke="black" d="M2705.44,-264.06C2252.26,-263.42 1309.25,-258.45 982.39,-229 906.98,-222.21 822.05,-207.78 760.83,-196.16"/>
<polygon fill="black" stroke="black" points="761.32,-192.69 750.84,-194.25 760,-199.57 761.32,-192.69"/>
<text text-anchor="middle" x="998.89" y="-217.8" font-family="Times,serif" font-size="14.00">uses</text>
</g>
<!-- id -->
<g id="node5" class="node">
<title>id</title>
<ellipse fill="none" stroke="blue" cx="903.39" cy="-178" rx="38.19" ry="18"/>
<text text-anchor="middle" x="903.39" y="-174.3" font-family="Times,serif" font-size="14.00">string</text>
</g>
<!-- organismal entity as a model of disease association&#45;&gt;id -->
<g id="edge4" class="edge">
<title>organismal entity as a model of disease association&#45;&gt;id</title>
<path fill="none" stroke="blue" d="M2708.88,-261.9C2243.1,-257.54 1263.74,-246.43 1109.39,-229 1038.11,-220.95 1020.47,-215.35 951.39,-196 948.29,-195.13 945.09,-194.16 941.89,-193.14"/>
<polygon fill="blue" stroke="blue" points="942.98,-189.81 932.38,-189.97 940.76,-196.46 942.98,-189.81"/>
<text text-anchor="middle" x="1116.39" y="-217.8" font-family="Times,serif" font-size="14.00">id</text>
</g>
<!-- iri -->
<g id="node6" class="node">
<title>iri</title>
<ellipse fill="none" stroke="blue" cx="1004.39" cy="-178" rx="44.39" ry="18"/>
<text text-anchor="middle" x="1004.39" y="-174.3" font-family="Times,serif" font-size="14.00">iri type</text>
</g>
<!-- organismal entity as a model of disease association&#45;&gt;iri -->
<g id="edge5" class="edge">
<title>organismal entity as a model of disease association&#45;&gt;iri</title>
<path fill="none" stroke="blue" d="M2709.12,-261.8C2262.76,-257.41 1350.22,-246.42 1205.39,-229 1149.94,-222.33 1087.78,-205.35 1047.46,-193.02"/>
<polygon fill="blue" stroke="blue" points="1048.29,-189.61 1037.7,-189.99 1046.22,-196.3 1048.29,-189.61"/>
<text text-anchor="middle" x="1213.39" y="-217.8" font-family="Times,serif" font-size="14.00">iri</text>
</g>
<!-- name -->
<g id="node7" class="node">
<title>name</title>
<ellipse fill="none" stroke="blue" cx="1123.39" cy="-178" rx="56.59" ry="18"/>
<text text-anchor="middle" x="1123.39" y="-174.3" font-family="Times,serif" font-size="14.00">label type</text>
</g>
<!-- organismal entity as a model of disease association&#45;&gt;name -->
<g id="edge6" class="edge">
<title>organismal entity as a model of disease association&#45;&gt;name</title>
<path fill="none" stroke="blue" d="M2707.77,-262.51C2278.17,-259.35 1425.18,-250.47 1289.39,-229 1247.1,-222.31 1200.54,-207.61 1167.52,-195.87"/>
<polygon fill="blue" stroke="blue" points="1168.32,-192.44 1157.73,-192.34 1165.95,-199.03 1168.32,-192.44"/>
<text text-anchor="middle" x="1309.39" y="-217.8" font-family="Times,serif" font-size="14.00">name</text>
</g>
<!-- description -->
<g id="node8" class="node">
<title>description</title>
<ellipse fill="none" stroke="blue" cx="1273.39" cy="-178" rx="75.29" ry="18"/>
<text text-anchor="middle" x="1273.39" y="-174.3" font-family="Times,serif" font-size="14.00">narrative text</text>
</g>
<!-- organismal entity as a model of disease association&#45;&gt;description -->
<g id="edge7" class="edge">
<title>organismal entity as a model of disease association&#45;&gt;description</title>
<path fill="none" stroke="blue" d="M2705.35,-264.53C2292.12,-264.51 1497.66,-260.31 1372.39,-229 1349.12,-223.18 1325.04,-211.18 1306.47,-200.4"/>
<polygon fill="blue" stroke="blue" points="1308.19,-197.35 1297.81,-195.23 1304.61,-203.36 1308.19,-197.35"/>
<text text-anchor="middle" x="1412.89" y="-217.8" font-family="Times,serif" font-size="14.00">description</text>
</g>
<!-- has attribute -->
<g id="node9" class="node">
<title>has attribute</title>
<ellipse fill="none" stroke="blue" cx="1418.39" cy="-178" rx="51.99" ry="18"/>
<text text-anchor="middle" x="1418.39" y="-174.3" font-family="Times,serif" font-size="14.00">attribute</text>
</g>
<!-- organismal entity as a model of disease association&#45;&gt;has attribute -->
<g id="edge8" class="edge">
<title>organismal entity as a model of disease association&#45;&gt;has attribute</title>
<path fill="none" stroke="blue" d="M2708.5,-262.03C2305.2,-258.24 1541.97,-248.53 1485.39,-229 1469.23,-223.42 1453.76,-212.39 1441.76,-202.1"/>
<polygon fill="blue" stroke="blue" points="1443.82,-199.25 1434.04,-195.17 1439.14,-204.46 1443.82,-199.25"/>
<text text-anchor="middle" x="1532.39" y="-217.8" font-family="Times,serif" font-size="14.00">has attribute</text>
</g>
<!-- predicate -->
<g id="node10" class="node">
<title>predicate</title>
<ellipse fill="none" stroke="blue" cx="1566.39" cy="-178" rx="77.99" ry="18"/>
<text text-anchor="middle" x="1566.39" y="-174.3" font-family="Times,serif" font-size="14.00">predicate type</text>
</g>
<!-- organismal entity as a model of disease association&#45;&gt;predicate -->
<g id="edge9" class="edge">
<title>organismal entity as a model of disease association&#45;&gt;predicate</title>
<path fill="none" stroke="blue" d="M2706.07,-263.57C2327.75,-262.07 1645.65,-255.66 1598.39,-229 1588.97,-223.68 1581.89,-214.32 1576.82,-205.12"/>
<polygon fill="blue" stroke="blue" points="1579.96,-203.56 1572.41,-196.13 1573.68,-206.65 1579.96,-203.56"/>
<text text-anchor="middle" x="1632.39" y="-217.8" font-family="Times,serif" font-size="14.00">predicate</text>
</g>
<!-- object -->
<g id="node11" class="node">
<title>object</title>
<ellipse fill="none" stroke="blue" cx="5093.39" cy="-91" rx="69.59" ry="18"/>
<text text-anchor="middle" x="5093.39" y="-87.3" font-family="Times,serif" font-size="14.00">named thing</text>
</g>
<!-- organismal entity as a model of disease association&#45;&gt;object -->
<g id="edge10" class="edge">
<title>organismal entity as a model of disease association&#45;&gt;object</title>
<path fill="none" stroke="blue" d="M2710.08,-261.47C2434.56,-257.7 2003.92,-248.8 1842.39,-229 1768.35,-219.93 1637.18,-213.27 1689.39,-160 1749.49,-98.69 4505.8,-92.66 5013.48,-92.06"/>
<polygon fill="blue" stroke="blue" points="5013.64,-95.56 5023.64,-92.05 5013.63,-88.56 5013.64,-95.56"/>
<text text-anchor="middle" x="1711.39" y="-174.3" font-family="Times,serif" font-size="14.00">object</text>
</g>
<!-- negated -->
<g id="node12" class="node">
<title>negated</title>
<ellipse fill="none" stroke="blue" cx="1789.39" cy="-178" rx="46.59" ry="18"/>
<text text-anchor="middle" x="1789.39" y="-174.3" font-family="Times,serif" font-size="14.00">boolean</text>
</g>
<!-- organismal entity as a model of disease association&#45;&gt;negated -->
<g id="edge11" class="edge">
<title>organismal entity as a model of disease association&#45;&gt;negated</title>
<path fill="none" stroke="blue" d="M2709.1,-261.83C2417.58,-258.33 1960.69,-249.62 1883.39,-229 1860.73,-222.95 1837.44,-210.62 1819.72,-199.71"/>
<polygon fill="blue" stroke="blue" points="1821.31,-196.58 1810.99,-194.18 1817.56,-202.49 1821.31,-196.58"/>
<text text-anchor="middle" x="1912.39" y="-217.8" font-family="Times,serif" font-size="14.00">negated</text>
</g>
<!-- qualifiers -->
<g id="node13" class="node">
<title>qualifiers</title>
<ellipse fill="none" stroke="blue" cx="1930.39" cy="-178" rx="76.89" ry="18"/>
<text text-anchor="middle" x="1930.39" y="-174.3" font-family="Times,serif" font-size="14.00">ontology class</text>
</g>
<!-- organismal entity as a model of disease association&#45;&gt;qualifiers -->
<g id="edge12" class="edge">
<title>organismal entity as a model of disease association&#45;&gt;qualifiers</title>
<path fill="none" stroke="blue" d="M2710.5,-261.3C2426.29,-257.28 1991.15,-248.04 1959.39,-229 1950.45,-223.64 1943.99,-214.39 1939.47,-205.3"/>
<polygon fill="blue" stroke="blue" points="1942.64,-203.81 1935.44,-196.04 1936.23,-206.61 1942.64,-203.81"/>
<text text-anchor="middle" x="1992.89" y="-217.8" font-family="Times,serif" font-size="14.00">qualifiers</text>
</g>
<!-- publications -->
<g id="node14" class="node">
<title>publications</title>
<ellipse fill="none" stroke="blue" cx="2087.39" cy="-178" rx="62.29" ry="18"/>
<text text-anchor="middle" x="2087.39" y="-174.3" font-family="Times,serif" font-size="14.00">publication</text>
</g>
<!-- organismal entity as a model of disease association&#45;&gt;publications -->
<g id="edge13" class="edge">
<title>organismal entity as a model of disease association&#45;&gt;publications</title>
<path fill="none" stroke="blue" d="M2706.81,-262.97C2442.28,-260.61 2057.54,-253.05 2034.39,-229 2024.51,-218.74 2033.58,-207.83 2046.85,-198.82"/>
<polygon fill="blue" stroke="blue" points="2048.83,-201.71 2055.51,-193.49 2045.16,-195.75 2048.83,-201.71"/>
<text text-anchor="middle" x="2078.39" y="-217.8" font-family="Times,serif" font-size="14.00">publications</text>
</g>
<!-- has evidence -->
<g id="node15" class="node">
<title>has evidence</title>
<ellipse fill="none" stroke="blue" cx="2243.39" cy="-178" rx="75.29" ry="18"/>
<text text-anchor="middle" x="2243.39" y="-174.3" font-family="Times,serif" font-size="14.00">evidence type</text>
</g>
<!-- organismal entity as a model of disease association&#45;&gt;has evidence -->
<g id="edge14" class="edge">
<title>organismal entity as a model of disease association&#45;&gt;has evidence</title>
<path fill="none" stroke="blue" d="M2709.42,-261.77C2473.52,-258.38 2149.45,-249.93 2129.39,-229 2124.78,-224.19 2125.43,-219.36 2129.39,-214 2135.72,-205.45 2155.33,-198.12 2176.55,-192.41"/>
<polygon fill="blue" stroke="blue" points="2177.55,-195.77 2186.37,-189.91 2175.82,-188.99 2177.55,-195.77"/>
<text text-anchor="middle" x="2175.89" y="-217.8" font-family="Times,serif" font-size="14.00">has evidence</text>
</g>
<!-- knowledge source -->
<g id="node16" class="node">
<title>knowledge source</title>
<ellipse fill="none" stroke="blue" cx="2375.39" cy="-178" rx="38.19" ry="18"/>
<text text-anchor="middle" x="2375.39" y="-174.3" font-family="Times,serif" font-size="14.00">string</text>
</g>
<!-- organismal entity as a model of disease association&#45;&gt;knowledge source -->
<g id="edge15" class="edge">
<title>organismal entity as a model of disease association&#45;&gt;knowledge source</title>
<path fill="none" stroke="blue" d="M2715.14,-260.02C2514.8,-255.47 2258.88,-246.31 2242.39,-229 2197.3,-181.64 2186.07,-235.8 2327.39,-196 2330.5,-195.13 2333.7,-194.15 2336.89,-193.13"/>
<polygon fill="blue" stroke="blue" points="2338.02,-196.45 2346.4,-189.96 2335.81,-189.81 2338.02,-196.45"/>
<text text-anchor="middle" x="2306.89" y="-217.8" font-family="Times,serif" font-size="14.00">knowledge source</text>
</g>
<!-- primary knowledge source -->
<g id="node17" class="node">
<title>primary knowledge source</title>
<ellipse fill="none" stroke="blue" cx="2470.39" cy="-178" rx="38.19" ry="18"/>
<text text-anchor="middle" x="2470.39" y="-174.3" font-family="Times,serif" font-size="14.00">string</text>
</g>
<!-- organismal entity as a model of disease association&#45;&gt;primary knowledge source -->
<g id="edge16" class="edge">
<title>organismal entity as a model of disease association&#45;&gt;primary knowledge source</title>
<path fill="none" stroke="blue" d="M2728.83,-257.36C2572.72,-251.63 2390.8,-242.18 2378.39,-229 2373.83,-224.15 2374.61,-219.49 2378.39,-214 2379.24,-212.77 2406.65,-202.43 2431.33,-193.3"/>
<polygon fill="blue" stroke="blue" points="2432.77,-196.5 2440.94,-189.76 2430.35,-189.93 2432.77,-196.5"/>
<text text-anchor="middle" x="2473.39" y="-217.8" font-family="Times,serif" font-size="14.00">primary knowledge source</text>
</g>
<!-- aggregator knowledge source -->
<g id="node18" class="node">
<title>aggregator knowledge source</title>
<ellipse fill="none" stroke="blue" cx="2565.39" cy="-178" rx="38.19" ry="18"/>
<text text-anchor="middle" x="2565.39" y="-174.3" font-family="Times,serif" font-size="14.00">string</text>
</g>
<!-- organismal entity as a model of disease association&#45;&gt;aggregator knowledge source -->
<g id="edge17" class="edge">
<title>organismal entity as a model of disease association&#45;&gt;aggregator knowledge source</title>
<path fill="none" stroke="blue" d="M2753.48,-254.36C2673.59,-248.8 2597.03,-240.56 2582.39,-229 2575.26,-223.36 2571.1,-214.59 2568.68,-205.95"/>
<polygon fill="blue" stroke="blue" points="2572.08,-205.13 2566.57,-196.08 2565.24,-206.59 2572.08,-205.13"/>
<text text-anchor="middle" x="2688.89" y="-217.8" font-family="Times,serif" font-size="14.00">aggregator knowledge source</text>
</g>
<!-- timepoint -->
<g id="node19" class="node">
<title>timepoint</title>
<ellipse fill="none" stroke="blue" cx="2785.39" cy="-178" rx="55.49" ry="18"/>
<text text-anchor="middle" x="2785.39" y="-174.3" font-family="Times,serif" font-size="14.00">time type</text>
</g>
<!-- organismal entity as a model of disease association&#45;&gt;timepoint -->
<g id="edge18" class="edge">
<title>organismal entity as a model of disease association&#45;&gt;timepoint</title>
<path fill="none" stroke="blue" d="M2847.34,-248.66C2834.42,-243.77 2822.05,-237.37 2811.39,-229 2803.79,-223.03 2798.18,-214.22 2794.16,-205.65"/>
<polygon fill="blue" stroke="blue" points="2797.33,-204.15 2790.28,-196.24 2790.86,-206.82 2797.33,-204.15"/>
<text text-anchor="middle" x="2846.39" y="-217.8" font-family="Times,serif" font-size="14.00">timepoint</text>
</g>
<!-- original subject -->
<g id="node20" class="node">
<title>original subject</title>
<ellipse fill="none" stroke="blue" cx="2897.39" cy="-178" rx="38.19" ry="18"/>
<text text-anchor="middle" x="2897.39" y="-174.3" font-family="Times,serif" font-size="14.00">string</text>
</g>
<!-- organismal entity as a model of disease association&#45;&gt;original subject -->
<g id="edge19" class="edge">
<title>organismal entity as a model of disease association&#45;&gt;original subject</title>
<path fill="none" stroke="blue" d="M2907.25,-247.32C2899.73,-242.57 2892.94,-236.56 2888.39,-229 2884.17,-221.99 2884.2,-213.49 2885.94,-205.5"/>
<polygon fill="blue" stroke="blue" points="2889.33,-206.39 2888.88,-195.81 2882.63,-204.36 2889.33,-206.39"/>
<text text-anchor="middle" x="2944.39" y="-217.8" font-family="Times,serif" font-size="14.00">original subject</text>
</g>
<!-- original predicate -->
<g id="node21" class="node">
<title>original predicate</title>
<ellipse fill="none" stroke="blue" cx="3022.39" cy="-178" rx="57.39" ry="18"/>
<text text-anchor="middle" x="3022.39" y="-174.3" font-family="Times,serif" font-size="14.00">uriorcurie</text>
</g>
<!-- organismal entity as a model of disease association&#45;&gt;original predicate -->
<g id="edge20" class="edge">
<title>organismal entity as a model of disease association&#45;&gt;original predicate</title>
<path fill="none" stroke="blue" d="M2981.72,-246.8C2988.43,-241.66 2995.18,-235.62 3000.39,-229 3005.82,-222.12 3010.2,-213.69 3013.57,-205.72"/>
<polygon fill="blue" stroke="blue" points="3016.84,-206.97 3017.2,-196.38 3010.32,-204.43 3016.84,-206.97"/>
<text text-anchor="middle" x="3072.89" y="-217.8" font-family="Times,serif" font-size="14.00">original predicate</text>
</g>
<!-- original object -->
<g id="node22" class="node">
<title>original object</title>
<ellipse fill="none" stroke="blue" cx="3151.39" cy="-178" rx="38.19" ry="18"/>
<text text-anchor="middle" x="3151.39" y="-174.3" font-family="Times,serif" font-size="14.00">string</text>
</g>
<!-- organismal entity as a model of disease association&#45;&gt;original object -->
<g id="edge21" class="edge">
<title>organismal entity as a model of disease association&#45;&gt;original object</title>
<path fill="none" stroke="blue" d="M3085.77,-249.71C3110.34,-244.66 3131.2,-237.92 3140.39,-229 3146.5,-223.08 3149.57,-214.61 3151.04,-206.32"/>
<polygon fill="blue" stroke="blue" points="3154.54,-206.43 3152.13,-196.11 3147.58,-205.68 3154.54,-206.43"/>
<text text-anchor="middle" x="3200.89" y="-217.8" font-family="Times,serif" font-size="14.00">original object</text>
</g>
<!-- subject category -->
<g id="node23" class="node">
<title>subject category</title>
<ellipse fill="none" stroke="blue" cx="3284.39" cy="-178" rx="76.89" ry="18"/>
<text text-anchor="middle" x="3284.39" y="-174.3" font-family="Times,serif" font-size="14.00">ontology class</text>
</g>
<!-- organismal entity as a model of disease association&#45;&gt;subject category -->
<g id="edge22" class="edge">
<title>organismal entity as a model of disease association&#45;&gt;subject category</title>
<path fill="none" stroke="blue" d="M3155.99,-254.39C3199.55,-249.19 3238.06,-241.22 3256.39,-229 3264.78,-223.41 3270.92,-214.41 3275.27,-205.57"/>
<polygon fill="blue" stroke="blue" points="3278.56,-206.79 3279.31,-196.22 3272.13,-204.01 3278.56,-206.79"/>
<text text-anchor="middle" x="3329.89" y="-217.8" font-family="Times,serif" font-size="14.00">subject category</text>
</g>
<!-- object category -->
<g id="node24" class="node">
<title>object category</title>
<ellipse fill="none" stroke="blue" cx="3455.39" cy="-178" rx="76.89" ry="18"/>
<text text-anchor="middle" x="3455.39" y="-174.3" font-family="Times,serif" font-size="14.00">ontology class</text>
</g>
<!-- organismal entity as a model of disease association&#45;&gt;object category -->
<g id="edge23" class="edge">
<title>organismal entity as a model of disease association&#45;&gt;object category</title>
<path fill="none" stroke="blue" d="M3131.14,-252.3C3247.57,-244.21 3380.81,-234.01 3393.39,-229 3407.87,-223.23 3421.61,-212.86 3432.46,-203.05"/>
<polygon fill="blue" stroke="blue" points="3434.96,-205.5 3439.82,-196.08 3430.15,-200.42 3434.96,-205.5"/>
<text text-anchor="middle" x="3473.89" y="-217.8" font-family="Times,serif" font-size="14.00">object category</text>
</g>
<!-- subject closure -->
<g id="node25" class="node">
<title>subject closure</title>
<ellipse fill="none" stroke="blue" cx="3588.39" cy="-178" rx="38.19" ry="18"/>
<text text-anchor="middle" x="3588.39" y="-174.3" font-family="Times,serif" font-size="14.00">string</text>
</g>
<!-- organismal entity as a model of disease association&#45;&gt;subject closure -->
<g id="edge24" class="edge">
<title>organismal entity as a model of disease association&#45;&gt;subject closure</title>
<path fill="none" stroke="blue" d="M3129.94,-252.2C3157.53,-250.41 3185.74,-248.63 3212.39,-247 3283.71,-242.65 3467.5,-256.62 3533.39,-229 3547.05,-223.28 3559.52,-212.64 3569.11,-202.64"/>
<polygon fill="blue" stroke="blue" points="3571.73,-204.97 3575.86,-195.21 3566.55,-200.26 3571.73,-204.97"/>
<text text-anchor="middle" x="3610.89" y="-217.8" font-family="Times,serif" font-size="14.00">subject closure</text>
</g>
<!-- object closure -->
<g id="node26" class="node">
<title>object closure</title>
<ellipse fill="none" stroke="blue" cx="3701.39" cy="-178" rx="38.19" ry="18"/>
<text text-anchor="middle" x="3701.39" y="-174.3" font-family="Times,serif" font-size="14.00">string</text>
</g>
<!-- organismal entity as a model of disease association&#45;&gt;object closure -->
<g id="edge25" class="edge">
<title>organismal entity as a model of disease association&#45;&gt;object closure</title>
<path fill="none" stroke="blue" d="M3126.79,-252.01C3155.38,-250.2 3184.71,-248.46 3212.39,-247 3263.14,-244.33 3625.31,-254.27 3669.39,-229 3678.78,-223.62 3685.85,-214.24 3690.93,-205.05"/>
<polygon fill="blue" stroke="blue" points="3694.07,-206.59 3695.35,-196.08 3687.79,-203.5 3694.07,-206.59"/>
<text text-anchor="middle" x="3735.39" y="-217.8" font-family="Times,serif" font-size="14.00">object closure</text>
</g>
<!-- subject category closure -->
<g id="node27" class="node">
<title>subject category closure</title>
<ellipse fill="none" stroke="blue" cx="3834.39" cy="-178" rx="76.89" ry="18"/>
<text text-anchor="middle" x="3834.39" y="-174.3" font-family="Times,serif" font-size="14.00">ontology class</text>
</g>
<!-- organismal entity as a model of disease association&#45;&gt;subject category closure -->
<g id="edge26" class="edge">
<title>organismal entity as a model of disease association&#45;&gt;subject category closure</title>
<path fill="none" stroke="blue" d="M3125.39,-251.9C3154.42,-250.08 3184.26,-248.37 3212.39,-247 3244.43,-245.45 3760.3,-242.5 3789.39,-229 3800.86,-223.68 3810.68,-213.91 3818.19,-204.41"/>
<polygon fill="blue" stroke="blue" points="3821.09,-206.39 3824.18,-196.25 3815.44,-202.24 3821.09,-206.39"/>
<text text-anchor="middle" x="3896.89" y="-217.8" font-family="Times,serif" font-size="14.00">subject category closure</text>
</g>
<!-- object category closure -->
<g id="node28" class="node">
<title>object category closure</title>
<ellipse fill="none" stroke="blue" cx="4027.39" cy="-178" rx="76.89" ry="18"/>
<text text-anchor="middle" x="4027.39" y="-174.3" font-family="Times,serif" font-size="14.00">ontology class</text>
</g>
<!-- organismal entity as a model of disease association&#45;&gt;object category closure -->
<g id="edge27" class="edge">
<title>organismal entity as a model of disease association&#45;&gt;object category closure</title>
<path fill="none" stroke="blue" d="M3124,-251.79C3153.46,-249.97 3183.81,-248.27 3212.39,-247 3255.47,-245.08 3949.87,-248.37 3988.39,-229 3998.83,-223.75 4007.31,-214.27 4013.67,-204.96"/>
<polygon fill="blue" stroke="blue" points="4016.79,-206.57 4019.11,-196.23 4010.85,-202.87 4016.79,-206.57"/>
<text text-anchor="middle" x="4089.89" y="-217.8" font-family="Times,serif" font-size="14.00">object category closure</text>
</g>
<!-- subject namespace -->
<g id="node29" class="node">
<title>subject namespace</title>
<ellipse fill="none" stroke="blue" cx="4217.39" cy="-178" rx="38.19" ry="18"/>
<text text-anchor="middle" x="4217.39" y="-174.3" font-family="Times,serif" font-size="14.00">string</text>
</g>
<!-- organismal entity as a model of disease association&#45;&gt;subject namespace -->
<g id="edge28" class="edge">
<title>organismal entity as a model of disease association&#45;&gt;subject namespace</title>
<path fill="none" stroke="blue" d="M3122.95,-251.75C3152.74,-249.91 3183.47,-248.22 3212.39,-247 3265.97,-244.74 4129.28,-252.68 4177.39,-229 4188.24,-223.66 4197.09,-213.84 4203.68,-204.31"/>
<polygon fill="blue" stroke="blue" points="4206.69,-206.09 4209.09,-195.77 4200.78,-202.34 4206.69,-206.09"/>
<text text-anchor="middle" x="4263.39" y="-217.8" font-family="Times,serif" font-size="14.00">subject namespace</text>
</g>
<!-- object namespace -->
<g id="node30" class="node">
<title>object namespace</title>
<ellipse fill="none" stroke="blue" cx="4376.39" cy="-178" rx="38.19" ry="18"/>
<text text-anchor="middle" x="4376.39" y="-174.3" font-family="Times,serif" font-size="14.00">string</text>
</g>
<!-- organismal entity as a model of disease association&#45;&gt;object namespace -->
<g id="edge29" class="edge">
<title>organismal entity as a model of disease association&#45;&gt;object namespace</title>
<path fill="none" stroke="blue" d="M3122.6,-251.7C3152.5,-249.86 3183.35,-248.19 3212.39,-247 3243.57,-245.72 4307.3,-242.57 4335.39,-229 4346.38,-223.69 4355.43,-213.87 4362.21,-204.33"/>
<polygon fill="blue" stroke="blue" points="4365.25,-206.08 4367.78,-195.79 4359.39,-202.25 4365.25,-206.08"/>
<text text-anchor="middle" x="4417.39" y="-217.8" font-family="Times,serif" font-size="14.00">object namespace</text>
</g>
<!-- subject label closure -->
<g id="node31" class="node">
<title>subject label closure</title>
<ellipse fill="none" stroke="blue" cx="4527.39" cy="-178" rx="38.19" ry="18"/>
<text text-anchor="middle" x="4527.39" y="-174.3" font-family="Times,serif" font-size="14.00">string</text>
</g>
<!-- organismal entity as a model of disease association&#45;&gt;subject label closure -->
<g id="edge30" class="edge">
<title>organismal entity as a model of disease association&#45;&gt;subject label closure</title>
<path fill="none" stroke="blue" d="M3122.26,-251.68C3152.26,-249.84 3183.24,-248.17 3212.39,-247 3247.73,-245.59 4453.45,-244.16 4485.39,-229 4496.53,-223.72 4505.78,-213.9 4512.74,-204.36"/>
<polygon fill="blue" stroke="blue" points="4515.81,-206.06 4518.48,-195.81 4510,-202.16 4515.81,-206.06"/>
<text text-anchor="middle" x="4579.39" y="-217.8" font-family="Times,serif" font-size="14.00">subject label closure</text>
</g>
<!-- object label closure -->
<g id="node32" class="node">
<title>object label closure</title>
<ellipse fill="none" stroke="blue" cx="4698.39" cy="-178" rx="38.19" ry="18"/>
<text text-anchor="middle" x="4698.39" y="-174.3" font-family="Times,serif" font-size="14.00">string</text>
</g>
<!-- organismal entity as a model of disease association&#45;&gt;object label closure -->
<g id="edge31" class="edge">
<title>organismal entity as a model of disease association&#45;&gt;object label closure</title>
<path fill="none" stroke="blue" d="M3121.91,-251.66C3152.02,-249.81 3183.13,-248.15 3212.39,-247 3252.51,-245.43 4621.22,-246.4 4657.39,-229 4668.39,-223.71 4677.44,-213.9 4684.22,-204.35"/>
<polygon fill="blue" stroke="blue" points="4687.26,-206.09 4689.79,-195.81 4681.4,-202.27 4687.26,-206.09"/>
<text text-anchor="middle" x="4746.89" y="-217.8" font-family="Times,serif" font-size="14.00">object label closure</text>
</g>
<!-- retrieval source ids -->
<g id="node33" class="node">
<title>retrieval source ids</title>
<ellipse fill="none" stroke="blue" cx="4842.39" cy="-178" rx="84.49" ry="18"/>
<text text-anchor="middle" x="4842.39" y="-174.3" font-family="Times,serif" font-size="14.00">retrieval source</text>
</g>
<!-- organismal entity as a model of disease association&#45;&gt;retrieval source ids -->
<g id="edge32" class="edge">
<title>organismal entity as a model of disease association&#45;&gt;retrieval source ids</title>
<path fill="none" stroke="blue" d="M3121.56,-251.65C3151.78,-249.8 3183.01,-248.13 3212.39,-247 3234.71,-246.14 4801.76,-241.31 4820.39,-229 4828.33,-223.76 4833.42,-214.95 4836.68,-206.18"/>
<polygon fill="blue" stroke="blue" points="4840.07,-207.06 4839.64,-196.48 4833.38,-205.02 4840.07,-207.06"/>
<text text-anchor="middle" x="4902.89" y="-217.8" font-family="Times,serif" font-size="14.00">retrieval source ids</text>
</g>
<!-- type -->
<g id="node34" class="node">
<title>type</title>
<ellipse fill="none" stroke="black" cx="4976.39" cy="-178" rx="31.4" ry="18"/>
<text text-anchor="middle" x="4976.39" y="-174.3" font-family="Times,serif" font-size="14.00">type</text>
</g>
<!-- organismal entity as a model of disease association&#45;&gt;type -->
<g id="edge33" class="edge">
<title>organismal entity as a model of disease association&#45;&gt;type</title>
<path fill="none" stroke="blue" d="M3121.56,-251.62C3151.78,-249.78 3183.01,-248.12 3212.39,-247 3236.88,-246.07 4959.16,-246.41 4976.39,-229 4982.3,-223.04 4983.74,-214.44 4983.25,-206.06"/>
<polygon fill="blue" stroke="blue" points="4986.72,-205.55 4981.87,-196.13 4979.78,-206.52 4986.72,-205.55"/>
<text text-anchor="middle" x="4999.39" y="-217.8" font-family="Times,serif" font-size="14.00">type</text>
</g>
<!-- category -->
<g id="node36" class="node">
<title>category</title>
<ellipse fill="none" stroke="black" cx="5077.39" cy="-178" rx="51.19" ry="18"/>
<text text-anchor="middle" x="5077.39" y="-174.3" font-family="Times,serif" font-size="14.00">category</text>
</g>
<!-- organismal entity as a model of disease association&#45;&gt;category -->
<g id="edge34" class="edge">
<title>organismal entity as a model of disease association&#45;&gt;category</title>
<path fill="none" stroke="blue" d="M3121.56,-251.62C3151.78,-249.77 3183.01,-248.11 3212.39,-247 3262.56,-245.1 4972.43,-246.72 5019.39,-229 5033.67,-223.62 5046.8,-213.01 5056.94,-202.95"/>
<polygon fill="blue" stroke="blue" points="5059.72,-205.11 5064.09,-195.46 5054.66,-200.28 5059.72,-205.11"/>
<text text-anchor="middle" x="5075.89" y="-217.8" font-family="Times,serif" font-size="14.00">category</text>
</g>
<!-- subject -->
<g id="node38" class="node">
<title>subject</title>
<ellipse fill="none" stroke="black" cx="5191.39" cy="-178" rx="44.39" ry="18"/>
<text text-anchor="middle" x="5191.39" y="-174.3" font-family="Times,serif" font-size="14.00">subject</text>
</g>
<!-- organismal entity as a model of disease association&#45;&gt;subject -->
<g id="edge35" class="edge">
<title>organismal entity as a model of disease association&#45;&gt;subject</title>
<path fill="none" stroke="blue" d="M3121.21,-251.63C3151.54,-249.77 3182.9,-248.11 3212.39,-247 3265.11,-245.02 5060.76,-243.78 5111.39,-229 5130.85,-223.32 5150.18,-211.45 5164.97,-200.71"/>
<polygon fill="blue" stroke="blue" points="5167.24,-203.38 5173.12,-194.56 5163.03,-197.79 5167.24,-203.38"/>
<text text-anchor="middle" x="5170.39" y="-217.8" font-family="Times,serif" font-size="14.00">subject</text>
</g>
<!-- frequency qualifier -->
<g id="node40" class="node">
<title>frequency qualifier</title>
<ellipse fill="none" stroke="blue" cx="5338.39" cy="-178" rx="85.29" ry="18"/>
<text text-anchor="middle" x="5338.39" y="-174.3" font-family="Times,serif" font-size="14.00">frequency value</text>
</g>
<!-- organismal entity as a model of disease association&#45;&gt;frequency qualifier -->
<g id="edge36" class="edge">
<title>organismal entity as a model of disease association&#45;&gt;frequency qualifier</title>
<path fill="none" stroke="blue" d="M3121.21,-251.62C3151.54,-249.76 3182.9,-248.1 3212.39,-247 3322.77,-242.87 5091.7,-248.59 5200.39,-229 5233.45,-223.04 5269.05,-209.96 5295.81,-198.68"/>
<polygon fill="blue" stroke="blue" points="5297.45,-201.78 5305.25,-194.62 5294.68,-195.35 5297.45,-201.78"/>
<text text-anchor="middle" x="5323.39" y="-217.8" font-family="Times,serif" font-size="14.00">frequency qualifier</text>
</g>
<!-- severity qualifier -->
<g id="node41" class="node">
<title>severity qualifier</title>
<ellipse fill="none" stroke="blue" cx="5517.39" cy="-178" rx="76.09" ry="18"/>
<text text-anchor="middle" x="5517.39" y="-174.3" font-family="Times,serif" font-size="14.00">severity value</text>
</g>
<!-- organismal entity as a model of disease association&#45;&gt;severity qualifier -->
<g id="edge37" class="edge">
<title>organismal entity as a model of disease association&#45;&gt;severity qualifier</title>
<path fill="none" stroke="blue" d="M3121.21,-251.6C3151.54,-249.75 3182.9,-248.09 3212.39,-247 3333.59,-242.51 5276.5,-252.93 5395.39,-229 5424.39,-223.17 5455.19,-210.48 5478.59,-199.35"/>
<polygon fill="blue" stroke="blue" points="5480.36,-202.39 5487.82,-194.86 5477.29,-196.09 5480.36,-202.39"/>
<text text-anchor="middle" x="5505.39" y="-217.8" font-family="Times,serif" font-size="14.00">severity qualifier</text>
</g>
<!-- onset qualifier -->
<g id="node42" class="node">
<title>onset qualifier</title>
<ellipse fill="none" stroke="blue" cx="5654.39" cy="-178" rx="36.29" ry="18"/>
<text text-anchor="middle" x="5654.39" y="-174.3" font-family="Times,serif" font-size="14.00">onset</text>
</g>
<!-- organismal entity as a model of disease association&#45;&gt;onset qualifier -->
<g id="edge38" class="edge">
<title>organismal entity as a model of disease association&#45;&gt;onset qualifier</title>
<path fill="none" stroke="blue" d="M3120.87,-251.6C3151.3,-249.74 3182.79,-248.09 3212.39,-247 3277.85,-244.6 5507.31,-246.61 5570.39,-229 5591.22,-223.19 5612.12,-210.77 5627.87,-199.77"/>
<polygon fill="blue" stroke="blue" points="5630,-202.55 5636.05,-193.86 5625.9,-196.88 5630,-202.55"/>
<text text-anchor="middle" x="5655.89" y="-217.8" font-family="Times,serif" font-size="14.00">onset qualifier</text>
</g>
<!-- relation -->
<g id="node43" class="node">
<title>relation</title>
<ellipse fill="none" stroke="black" cx="5142.39" cy="-18" rx="46.59" ry="18"/>
<text text-anchor="middle" x="5142.39" y="-14.3" font-family="Times,serif" font-size="14.00">relation</text>
</g>
<!-- object&#45;&gt;relation -->
<g id="edge41" class="edge">
<title>object&#45;&gt;relation</title>
<path fill="none" stroke="black" stroke-dasharray="1,5" d="M5105.01,-73.17C5110.99,-64.51 5118.4,-53.77 5125.04,-44.14"/>
<polygon fill="black" stroke="black" points="5128.07,-45.92 5130.87,-35.71 5122.3,-41.95 5128.07,-45.92"/>
</g>
<!-- association_type -->
<g id="node35" class="node">
<title>association_type</title>
<ellipse fill="none" stroke="blue" cx="3259.39" cy="-265" rx="38.19" ry="18"/>
<text text-anchor="middle" x="3259.39" y="-261.3" font-family="Times,serif" font-size="14.00">string</text>
</g>
<!-- association_category -->
<g id="node37" class="node">
<title>association_category</title>
<ellipse fill="none" stroke="blue" cx="3390.39" cy="-265" rx="74.99" ry="18"/>
<text text-anchor="middle" x="3390.39" y="-261.3" font-family="Times,serif" font-size="14.00">category type</text>
</g>
<!-- subject&#45;&gt;object -->
<g id="edge39" class="edge">
<title>subject&#45;&gt;object</title>
<path fill="none" stroke="black" d="M5158.9,-165.59C5146.13,-159.94 5132.01,-152.13 5121.39,-142 5114.39,-135.31 5108.66,-126.48 5104.25,-118.1"/>
<polygon fill="black" stroke="black" points="5107.34,-116.45 5099.84,-108.97 5101.04,-119.5 5107.34,-116.45"/>
<text text-anchor="middle" x="5149.39" y="-130.8" font-family="Times,serif" font-size="14.00">relation</text>
</g>
<!-- subject&#45;&gt;relation -->
<g id="edge40" class="edge">
<title>subject&#45;&gt;relation</title>
<path fill="none" stroke="black" stroke-dasharray="1,5" d="M5190,-159.99C5187.9,-139.02 5182.98,-102.55 5172.39,-73 5168.91,-63.26 5163.79,-53.19 5158.76,-44.42"/>
<polygon fill="black" stroke="black" points="5161.76,-42.62 5153.63,-35.83 5155.75,-46.21 5161.76,-42.62"/>
</g>
<!-- organismal entity as a model of disease association_subject -->
<g id="node39" class="node">
<title>organismal entity as a model of disease association_subject</title>
<ellipse fill="none" stroke="blue" cx="3576.39" cy="-265" rx="92.88" ry="18"/>
<text text-anchor="middle" x="3576.39" y="-261.3" font-family="Times,serif" font-size="14.00">organismal entity</text>
</g>
</g>
</svg>
