<?xml version="1.0" encoding="UTF-8" standalone="no"?>
<!DOCTYPE svg PUBLIC "-//W3C//DTD SVG 1.1//EN"
 "http://www.w3.org/Graphics/SVG/1.1/DTD/svg11.dtd">
<!-- Generated by graphviz version 2.43.0 (0)
 -->
<!-- Title: %3 Pages: 1 -->
<svg width="4957pt" height="291pt"
 viewBox="0.00 0.00 4957.48 291.00" xmlns="http://www.w3.org/2000/svg" xmlns:xlink="http://www.w3.org/1999/xlink">
<g id="graph0" class="graph" transform="scale(1 1) rotate(0) translate(4 287)">
<title>%3</title>
<polygon fill="white" stroke="transparent" points="-4,4 -4,-287 4953.48,-287 4953.48,4 -4,4"/>
<!-- organism taxon to organism taxon specialization -->
<g id="node1" class="node">
<title>organism taxon to organism taxon specialization</title>
<ellipse fill="none" stroke="black" cx="2594.88" cy="-265" rx="236.66" ry="18"/>
<text text-anchor="middle" x="2594.88" y="-261.3" font-family="Times,serif" font-size="14.00">organism taxon to organism taxon specialization</text>
</g>
<!-- organism taxon to organism taxon association -->
<g id="node2" class="node">
<title>organism taxon to organism taxon association</title>
<ellipse fill="none" stroke="black" cx="224.88" cy="-178" rx="224.76" ry="18"/>
<text text-anchor="middle" x="224.88" y="-174.3" font-family="Times,serif" font-size="14.00">organism taxon to organism taxon association</text>
</g>
<!-- organism taxon to organism taxon specialization&#45;&gt;organism taxon to organism taxon association -->
<g id="edge1" class="edge">
<title>organism taxon to organism taxon specialization&#45;&gt;organism taxon to organism taxon association</title>
<path fill="none" stroke="black" d="M2359.16,-263.4C1905.66,-261.66 926.8,-254.93 589.88,-229 500.2,-222.1 398.89,-207.69 325.81,-196.11"/>
<polygon fill="black" stroke="black" points="326.11,-192.61 315.68,-194.49 325.01,-199.52 326.11,-192.61"/>
<text text-anchor="middle" x="603.88" y="-217.8" font-family="Times,serif" font-size="14.00">is_a</text>
</g>
<!-- id -->
<g id="node3" class="node">
<title>id</title>
<ellipse fill="none" stroke="blue" cx="505.88" cy="-178" rx="38.19" ry="18"/>
<text text-anchor="middle" x="505.88" y="-174.3" font-family="Times,serif" font-size="14.00">string</text>
</g>
<!-- organism taxon to organism taxon specialization&#45;&gt;id -->
<g id="edge2" class="edge">
<title>organism taxon to organism taxon specialization&#45;&gt;id</title>
<path fill="none" stroke="blue" d="M2360.96,-262.12C1892.51,-258.01 870.36,-247.08 710.88,-229 640.03,-220.97 622.53,-215.28 553.88,-196 550.77,-195.13 547.58,-194.16 544.38,-193.14"/>
<polygon fill="blue" stroke="blue" points="545.47,-189.81 534.87,-189.97 543.25,-196.45 545.47,-189.81"/>
<text text-anchor="middle" x="717.88" y="-217.8" font-family="Times,serif" font-size="14.00">id</text>
</g>
<!-- iri -->
<g id="node4" class="node">
<title>iri</title>
<ellipse fill="none" stroke="blue" cx="606.88" cy="-178" rx="44.39" ry="18"/>
<text text-anchor="middle" x="606.88" y="-174.3" font-family="Times,serif" font-size="14.00">iri type</text>
</g>
<!-- organism taxon to organism taxon specialization&#45;&gt;iri -->
<g id="edge3" class="edge">
<title>organism taxon to organism taxon specialization&#45;&gt;iri</title>
<path fill="none" stroke="blue" d="M2361.64,-261.93C1913.33,-257.57 962.33,-246.42 812.88,-229 743.78,-220.95 727.08,-213.98 659.88,-196 656.51,-195.1 653.04,-194.11 649.56,-193.09"/>
<polygon fill="blue" stroke="blue" points="650.4,-189.68 639.81,-190.11 648.35,-196.38 650.4,-189.68"/>
<text text-anchor="middle" x="820.88" y="-217.8" font-family="Times,serif" font-size="14.00">iri</text>
</g>
<!-- name -->
<g id="node5" class="node">
<title>name</title>
<ellipse fill="none" stroke="blue" cx="725.88" cy="-178" rx="56.59" ry="18"/>
<text text-anchor="middle" x="725.88" y="-174.3" font-family="Times,serif" font-size="14.00">label type</text>
</g>
<!-- organism taxon to organism taxon specialization&#45;&gt;name -->
<g id="edge4" class="edge">
<title>organism taxon to organism taxon specialization&#45;&gt;name</title>
<path fill="none" stroke="blue" d="M2360.16,-262.5C1928.75,-259.25 1040.91,-250.09 900.88,-229 855.95,-222.23 806.27,-207.29 771.37,-195.49"/>
<polygon fill="blue" stroke="blue" points="772.07,-192.04 761.48,-192.1 769.8,-198.66 772.07,-192.04"/>
<text text-anchor="middle" x="920.88" y="-217.8" font-family="Times,serif" font-size="14.00">name</text>
</g>
<!-- description -->
<g id="node6" class="node">
<title>description</title>
<ellipse fill="none" stroke="blue" cx="875.88" cy="-178" rx="75.29" ry="18"/>
<text text-anchor="middle" x="875.88" y="-174.3" font-family="Times,serif" font-size="14.00">narrative text</text>
</g>
<!-- organism taxon to organism taxon specialization&#45;&gt;description -->
<g id="edge5" class="edge">
<title>organism taxon to organism taxon specialization&#45;&gt;description</title>
<path fill="none" stroke="blue" d="M2358.33,-263.97C1943.99,-263.16 1118.48,-257.87 988.88,-229 962.25,-223.07 934.19,-210.69 912.69,-199.73"/>
<polygon fill="blue" stroke="blue" points="914.09,-196.52 903.61,-194.99 910.85,-202.72 914.09,-196.52"/>
<text text-anchor="middle" x="1029.38" y="-217.8" font-family="Times,serif" font-size="14.00">description</text>
</g>
<!-- has attribute -->
<g id="node7" class="node">
<title>has attribute</title>
<ellipse fill="none" stroke="blue" cx="1020.88" cy="-178" rx="51.99" ry="18"/>
<text text-anchor="middle" x="1020.88" y="-174.3" font-family="Times,serif" font-size="14.00">attribute</text>
</g>
<!-- organism taxon to organism taxon specialization&#45;&gt;has attribute -->
<g id="edge6" class="edge">
<title>organism taxon to organism taxon specialization&#45;&gt;has attribute</title>
<path fill="none" stroke="blue" d="M2358.24,-264.69C1969.38,-264.89 1226.5,-260.99 1109.88,-229 1088.68,-223.19 1067.13,-211.27 1050.55,-200.53"/>
<polygon fill="blue" stroke="blue" points="1052.14,-197.38 1041.88,-194.73 1048.24,-203.2 1052.14,-197.38"/>
<text text-anchor="middle" x="1156.88" y="-217.8" font-family="Times,serif" font-size="14.00">has attribute</text>
</g>
<!-- negated -->
<g id="node8" class="node">
<title>negated</title>
<ellipse fill="none" stroke="blue" cx="1137.88" cy="-178" rx="46.59" ry="18"/>
<text text-anchor="middle" x="1137.88" y="-174.3" font-family="Times,serif" font-size="14.00">boolean</text>
</g>
<!-- organism taxon to organism taxon specialization&#45;&gt;negated -->
<g id="edge7" class="edge">
<title>organism taxon to organism taxon specialization&#45;&gt;negated</title>
<path fill="none" stroke="blue" d="M2360.06,-262.71C2004.18,-260.01 1358.4,-251.99 1253.88,-229 1225.21,-222.69 1194.8,-209.31 1172.31,-197.97"/>
<polygon fill="blue" stroke="blue" points="1173.68,-194.74 1163.19,-193.27 1170.47,-200.96 1173.68,-194.74"/>
<text text-anchor="middle" x="1282.88" y="-217.8" font-family="Times,serif" font-size="14.00">negated</text>
</g>
<!-- qualifier -->
<g id="node9" class="node">
<title>qualifier</title>
<ellipse fill="none" stroke="blue" cx="1240.88" cy="-178" rx="38.19" ry="18"/>
<text text-anchor="middle" x="1240.88" y="-174.3" font-family="Times,serif" font-size="14.00">string</text>
</g>
<!-- organism taxon to organism taxon specialization&#45;&gt;qualifier -->
<g id="edge8" class="edge">
<title>organism taxon to organism taxon specialization&#45;&gt;qualifier</title>
<path fill="none" stroke="blue" d="M2361.8,-261.85C2031.94,-258.12 1458.33,-248.86 1363.88,-229 1332.42,-222.38 1298.72,-208.13 1274.57,-196.53"/>
<polygon fill="blue" stroke="blue" points="1276.01,-193.34 1265.49,-192.08 1272.92,-199.62 1276.01,-193.34"/>
<text text-anchor="middle" x="1393.88" y="-217.8" font-family="Times,serif" font-size="14.00">qualifier</text>
</g>
<!-- qualifiers -->
<g id="node10" class="node">
<title>qualifiers</title>
<ellipse fill="none" stroke="blue" cx="1373.88" cy="-178" rx="76.89" ry="18"/>
<text text-anchor="middle" x="1373.88" y="-174.3" font-family="Times,serif" font-size="14.00">ontology class</text>
</g>
<!-- organism taxon to organism taxon specialization&#45;&gt;qualifiers -->
<g id="edge9" class="edge">
<title>organism taxon to organism taxon specialization&#45;&gt;qualifiers</title>
<path fill="none" stroke="blue" d="M2360.23,-262.64C2054.11,-259.96 1547.5,-252.06 1463.88,-229 1442.94,-223.23 1421.61,-211.67 1404.97,-201.12"/>
<polygon fill="blue" stroke="blue" points="1406.52,-197.96 1396.24,-195.41 1402.69,-203.81 1406.52,-197.96"/>
<text text-anchor="middle" x="1497.38" y="-217.8" font-family="Times,serif" font-size="14.00">qualifiers</text>
</g>
<!-- publications -->
<g id="node11" class="node">
<title>publications</title>
<ellipse fill="none" stroke="blue" cx="1530.88" cy="-178" rx="62.29" ry="18"/>
<text text-anchor="middle" x="1530.88" y="-174.3" font-family="Times,serif" font-size="14.00">publication</text>
</g>
<!-- organism taxon to organism taxon specialization&#45;&gt;publications -->
<g id="edge10" class="edge">
<title>organism taxon to organism taxon specialization&#45;&gt;publications</title>
<path fill="none" stroke="blue" d="M2359.32,-263.13C2059.52,-261.01 1576.4,-253.74 1544.88,-229 1537.85,-223.48 1534.16,-214.73 1532.29,-206.08"/>
<polygon fill="blue" stroke="blue" points="1535.75,-205.56 1530.82,-196.18 1528.82,-206.58 1535.75,-205.56"/>
<text text-anchor="middle" x="1588.88" y="-217.8" font-family="Times,serif" font-size="14.00">publications</text>
</g>
<!-- has evidence -->
<g id="node12" class="node">
<title>has evidence</title>
<ellipse fill="none" stroke="blue" cx="1686.88" cy="-178" rx="75.29" ry="18"/>
<text text-anchor="middle" x="1686.88" y="-174.3" font-family="Times,serif" font-size="14.00">evidence type</text>
</g>
<!-- organism taxon to organism taxon specialization&#45;&gt;has evidence -->
<g id="edge11" class="edge">
<title>organism taxon to organism taxon specialization&#45;&gt;has evidence</title>
<path fill="none" stroke="blue" d="M2359.14,-263.43C2084.7,-261.58 1665.52,-254.56 1640.88,-229 1632.12,-219.91 1638.72,-209.68 1649.38,-200.86"/>
<polygon fill="blue" stroke="blue" points="1651.73,-203.47 1657.69,-194.71 1647.56,-197.84 1651.73,-203.47"/>
<text text-anchor="middle" x="1687.38" y="-217.8" font-family="Times,serif" font-size="14.00">has evidence</text>
</g>
<!-- knowledge source -->
<g id="node13" class="node">
<title>knowledge source</title>
<ellipse fill="none" stroke="blue" cx="1818.88" cy="-178" rx="38.19" ry="18"/>
<text text-anchor="middle" x="1818.88" y="-174.3" font-family="Times,serif" font-size="14.00">string</text>
</g>
<!-- organism taxon to organism taxon specialization&#45;&gt;knowledge source -->
<g id="edge12" class="edge">
<title>organism taxon to organism taxon specialization&#45;&gt;knowledge source</title>
<path fill="none" stroke="blue" d="M2360.9,-262.31C2115.49,-259.35 1762.22,-251.23 1740.88,-229 1736.26,-224.19 1737.26,-219.6 1740.88,-214 1743.42,-210.08 1762.28,-201.57 1780.82,-193.92"/>
<polygon fill="blue" stroke="blue" points="1782.17,-197.15 1790.11,-190.14 1779.53,-190.67 1782.17,-197.15"/>
<text text-anchor="middle" x="1805.38" y="-217.8" font-family="Times,serif" font-size="14.00">knowledge source</text>
</g>
<!-- primary knowledge source -->
<g id="node14" class="node">
<title>primary knowledge source</title>
<ellipse fill="none" stroke="blue" cx="1913.88" cy="-178" rx="38.19" ry="18"/>
<text text-anchor="middle" x="1913.88" y="-174.3" font-family="Times,serif" font-size="14.00">string</text>
</g>
<!-- organism taxon to organism taxon specialization&#45;&gt;primary knowledge source -->
<g id="edge13" class="edge">
<title>organism taxon to organism taxon specialization&#45;&gt;primary knowledge source</title>
<path fill="none" stroke="blue" d="M2365.8,-260.36C2162.12,-255.95 1893.84,-246.81 1876.88,-229 1868.31,-220 1874.92,-208.99 1884.79,-199.59"/>
<polygon fill="blue" stroke="blue" points="1887.07,-202.25 1892.39,-193.09 1882.52,-196.93 1887.07,-202.25"/>
<text text-anchor="middle" x="1971.88" y="-217.8" font-family="Times,serif" font-size="14.00">primary knowledge source</text>
</g>
<!-- aggregator knowledge source -->
<g id="node15" class="node">
<title>aggregator knowledge source</title>
<ellipse fill="none" stroke="blue" cx="2055.88" cy="-178" rx="38.19" ry="18"/>
<text text-anchor="middle" x="2055.88" y="-174.3" font-family="Times,serif" font-size="14.00">string</text>
</g>
<!-- organism taxon to organism taxon specialization&#45;&gt;aggregator knowledge source -->
<g id="edge14" class="edge">
<title>organism taxon to organism taxon specialization&#45;&gt;aggregator knowledge source</title>
<path fill="none" stroke="blue" d="M2374.64,-258.42C2248.41,-253.55 2110.1,-244.7 2084.88,-229 2076.03,-223.49 2069.58,-214.21 2065.05,-205.14"/>
<polygon fill="blue" stroke="blue" points="2068.23,-203.67 2061,-195.92 2061.82,-206.48 2068.23,-203.67"/>
<text text-anchor="middle" x="2191.38" y="-217.8" font-family="Times,serif" font-size="14.00">aggregator knowledge source</text>
</g>
<!-- timepoint -->
<g id="node16" class="node">
<title>timepoint</title>
<ellipse fill="none" stroke="blue" cx="2282.88" cy="-178" rx="55.49" ry="18"/>
<text text-anchor="middle" x="2282.88" y="-174.3" font-family="Times,serif" font-size="14.00">time type</text>
</g>
<!-- organism taxon to organism taxon specialization&#45;&gt;timepoint -->
<g id="edge15" class="edge">
<title>organism taxon to organism taxon specialization&#45;&gt;timepoint</title>
<path fill="none" stroke="blue" d="M2417.16,-253.09C2374.13,-247.89 2335.24,-240.24 2316.88,-229 2307.61,-223.33 2300.28,-214.07 2294.84,-205.05"/>
<polygon fill="blue" stroke="blue" points="2297.89,-203.34 2290.02,-196.25 2291.75,-206.71 2297.89,-203.34"/>
<text text-anchor="middle" x="2351.88" y="-217.8" font-family="Times,serif" font-size="14.00">timepoint</text>
</g>
<!-- original subject -->
<g id="node17" class="node">
<title>original subject</title>
<ellipse fill="none" stroke="blue" cx="2394.88" cy="-178" rx="38.19" ry="18"/>
<text text-anchor="middle" x="2394.88" y="-174.3" font-family="Times,serif" font-size="14.00">string</text>
</g>
<!-- organism taxon to organism taxon specialization&#45;&gt;original subject -->
<g id="edge16" class="edge">
<title>organism taxon to organism taxon specialization&#45;&gt;original subject</title>
<path fill="none" stroke="blue" d="M2449.34,-250.73C2425.23,-245.66 2405.32,-238.66 2396.88,-229 2391.5,-222.84 2389.8,-214.44 2389.82,-206.28"/>
<polygon fill="blue" stroke="blue" points="2393.31,-206.51 2390.59,-196.27 2386.33,-205.97 2393.31,-206.51"/>
<text text-anchor="middle" x="2452.88" y="-217.8" font-family="Times,serif" font-size="14.00">original subject</text>
</g>
<!-- original predicate -->
<g id="node18" class="node">
<title>original predicate</title>
<ellipse fill="none" stroke="blue" cx="2519.88" cy="-178" rx="57.39" ry="18"/>
<text text-anchor="middle" x="2519.88" y="-174.3" font-family="Times,serif" font-size="14.00">uriorcurie</text>
</g>
<!-- organism taxon to organism taxon specialization&#45;&gt;original predicate -->
<g id="edge17" class="edge">
<title>organism taxon to organism taxon specialization&#45;&gt;original predicate</title>
<path fill="none" stroke="blue" d="M2537,-247.47C2529.03,-242.76 2521.88,-236.73 2516.88,-229 2512.54,-222.3 2511.7,-213.98 2512.41,-206.06"/>
<polygon fill="blue" stroke="blue" points="2515.88,-206.48 2514.06,-196.05 2508.98,-205.34 2515.88,-206.48"/>
<text text-anchor="middle" x="2580.38" y="-217.8" font-family="Times,serif" font-size="14.00">original predicate</text>
</g>
<!-- original object -->
<g id="node19" class="node">
<title>original object</title>
<ellipse fill="none" stroke="blue" cx="2648.88" cy="-178" rx="38.19" ry="18"/>
<text text-anchor="middle" x="2648.88" y="-174.3" font-family="Times,serif" font-size="14.00">string</text>
</g>
<!-- organism taxon to organism taxon specialization&#45;&gt;original object -->
<g id="edge18" class="edge">
<title>organism taxon to organism taxon specialization&#45;&gt;original object</title>
<path fill="none" stroke="blue" d="M2630.91,-247.11C2637.69,-242.25 2643.89,-236.24 2647.88,-229 2651.62,-222.2 2652.88,-214.06 2652.92,-206.33"/>
<polygon fill="blue" stroke="blue" points="2656.41,-206.02 2652.35,-196.23 2649.42,-206.41 2656.41,-206.02"/>
<text text-anchor="middle" x="2704.38" y="-217.8" font-family="Times,serif" font-size="14.00">original object</text>
</g>
<!-- subject category -->
<g id="node20" class="node">
<title>subject category</title>
<ellipse fill="none" stroke="blue" cx="2781.88" cy="-178" rx="76.89" ry="18"/>
<text text-anchor="middle" x="2781.88" y="-174.3" font-family="Times,serif" font-size="14.00">ontology class</text>
</g>
<!-- organism taxon to organism taxon specialization&#45;&gt;subject category -->
<g id="edge19" class="edge">
<title>organism taxon to organism taxon specialization&#45;&gt;subject category</title>
<path fill="none" stroke="blue" d="M2702.74,-248.89C2727.77,-243.65 2750,-237.04 2759.88,-229 2767.07,-223.15 2771.98,-214.48 2775.3,-205.99"/>
<polygon fill="blue" stroke="blue" points="2778.69,-206.89 2778.51,-196.3 2772.04,-204.69 2778.69,-206.89"/>
<text text-anchor="middle" x="2831.38" y="-217.8" font-family="Times,serif" font-size="14.00">subject category</text>
</g>
<!-- object category -->
<g id="node21" class="node">
<title>object category</title>
<ellipse fill="none" stroke="blue" cx="2952.88" cy="-178" rx="76.89" ry="18"/>
<text text-anchor="middle" x="2952.88" y="-174.3" font-family="Times,serif" font-size="14.00">ontology class</text>
</g>
<!-- organism taxon to organism taxon specialization&#45;&gt;object category -->
<g id="edge20" class="edge">
<title>organism taxon to organism taxon specialization&#45;&gt;object category</title>
<path fill="none" stroke="blue" d="M2766.57,-252.59C2819.85,-247.19 2870.87,-239.54 2894.88,-229 2908.46,-223.04 2921.22,-212.77 2931.29,-203.09"/>
<polygon fill="blue" stroke="blue" points="2933.89,-205.45 2938.44,-195.88 2928.92,-200.52 2933.89,-205.45"/>
<text text-anchor="middle" x="2974.38" y="-217.8" font-family="Times,serif" font-size="14.00">object category</text>
</g>
<!-- subject closure -->
<g id="node22" class="node">
<title>subject closure</title>
<ellipse fill="none" stroke="blue" cx="3085.88" cy="-178" rx="38.19" ry="18"/>
<text text-anchor="middle" x="3085.88" y="-174.3" font-family="Times,serif" font-size="14.00">string</text>
</g>
<!-- organism taxon to organism taxon specialization&#45;&gt;subject closure -->
<g id="edge21" class="edge">
<title>organism taxon to organism taxon specialization&#45;&gt;subject closure</title>
<path fill="none" stroke="blue" d="M2760.22,-252.09C2881.96,-243.13 3027.44,-231.9 3033.88,-229 3046.68,-223.24 3058.23,-212.95 3067.18,-203.19"/>
<polygon fill="blue" stroke="blue" points="3069.88,-205.43 3073.78,-195.57 3064.59,-200.84 3069.88,-205.43"/>
<text text-anchor="middle" x="3110.38" y="-217.8" font-family="Times,serif" font-size="14.00">subject closure</text>
</g>
<!-- object closure -->
<g id="node23" class="node">
<title>object closure</title>
<ellipse fill="none" stroke="blue" cx="3198.88" cy="-178" rx="38.19" ry="18"/>
<text text-anchor="middle" x="3198.88" y="-174.3" font-family="Times,serif" font-size="14.00">string</text>
</g>
<!-- organism taxon to organism taxon specialization&#45;&gt;object closure -->
<g id="edge22" class="edge">
<title>organism taxon to organism taxon specialization&#45;&gt;object closure</title>
<path fill="none" stroke="blue" d="M2761.26,-252.18C2787.88,-250.38 2815.14,-248.6 2840.88,-247 2877.31,-244.74 3137.62,-247.85 3168.88,-229 3177.89,-223.57 3184.53,-214.31 3189.23,-205.22"/>
<polygon fill="blue" stroke="blue" points="3192.48,-206.54 3193.46,-195.99 3186.12,-203.62 3192.48,-206.54"/>
<text text-anchor="middle" x="3233.88" y="-217.8" font-family="Times,serif" font-size="14.00">object closure</text>
</g>
<!-- subject category closure -->
<g id="node24" class="node">
<title>subject category closure</title>
<ellipse fill="none" stroke="blue" cx="3331.88" cy="-178" rx="76.89" ry="18"/>
<text text-anchor="middle" x="3331.88" y="-174.3" font-family="Times,serif" font-size="14.00">ontology class</text>
</g>
<!-- organism taxon to organism taxon specialization&#45;&gt;subject category closure -->
<g id="edge23" class="edge">
<title>organism taxon to organism taxon specialization&#45;&gt;subject category closure</title>
<path fill="none" stroke="blue" d="M2758.92,-252C2786.28,-250.19 2814.38,-248.45 2840.88,-247 2890.51,-244.29 3243.01,-250.38 3287.88,-229 3299.18,-223.61 3308.8,-213.84 3316.13,-204.35"/>
<polygon fill="blue" stroke="blue" points="3318.98,-206.37 3321.97,-196.21 3313.3,-202.29 3318.98,-206.37"/>
<text text-anchor="middle" x="3394.38" y="-217.8" font-family="Times,serif" font-size="14.00">subject category closure</text>
</g>
<!-- object category closure -->
<g id="node25" class="node">
<title>object category closure</title>
<ellipse fill="none" stroke="blue" cx="3524.88" cy="-178" rx="76.89" ry="18"/>
<text text-anchor="middle" x="3524.88" y="-174.3" font-family="Times,serif" font-size="14.00">ontology class</text>
</g>
<!-- organism taxon to organism taxon specialization&#45;&gt;object category closure -->
<g id="edge24" class="edge">
<title>organism taxon to organism taxon specialization&#45;&gt;object category closure</title>
<path fill="none" stroke="blue" d="M2756.92,-251.85C2784.91,-250.03 2813.73,-248.32 2840.88,-247 2876.69,-245.26 3453.89,-245.18 3485.88,-229 3496.3,-223.73 3504.79,-214.24 3511.15,-204.93"/>
<polygon fill="blue" stroke="blue" points="3514.26,-206.55 3516.59,-196.21 3508.32,-202.84 3514.26,-206.55"/>
<text text-anchor="middle" x="3587.38" y="-217.8" font-family="Times,serif" font-size="14.00">object category closure</text>
</g>
<!-- subject namespace -->
<g id="node26" class="node">
<title>subject namespace</title>
<ellipse fill="none" stroke="blue" cx="3714.88" cy="-178" rx="38.19" ry="18"/>
<text text-anchor="middle" x="3714.88" y="-174.3" font-family="Times,serif" font-size="14.00">string</text>
</g>
<!-- organism taxon to organism taxon specialization&#45;&gt;subject namespace -->
<g id="edge25" class="edge">
<title>organism taxon to organism taxon specialization&#45;&gt;subject namespace</title>
<path fill="none" stroke="blue" d="M2755.92,-251.77C2784.22,-249.94 2813.4,-248.25 2840.88,-247 2887.18,-244.9 3633.33,-249.53 3674.88,-229 3685.72,-223.65 3694.56,-213.82 3701.15,-204.29"/>
<polygon fill="blue" stroke="blue" points="3704.17,-206.08 3706.57,-195.76 3698.26,-202.33 3704.17,-206.08"/>
<text text-anchor="middle" x="3760.88" y="-217.8" font-family="Times,serif" font-size="14.00">subject namespace</text>
</g>
<!-- object namespace -->
<g id="node27" class="node">
<title>object namespace</title>
<ellipse fill="none" stroke="blue" cx="3873.88" cy="-178" rx="38.19" ry="18"/>
<text text-anchor="middle" x="3873.88" y="-174.3" font-family="Times,serif" font-size="14.00">string</text>
</g>
<!-- organism taxon to organism taxon specialization&#45;&gt;object namespace -->
<g id="edge26" class="edge">
<title>organism taxon to organism taxon specialization&#45;&gt;object namespace</title>
<path fill="none" stroke="blue" d="M2755.26,-251.73C2783.76,-249.89 2813.19,-248.21 2840.88,-247 2895.95,-244.6 3783.27,-253.03 3832.88,-229 3843.86,-223.68 3852.91,-213.86 3859.69,-204.32"/>
<polygon fill="blue" stroke="blue" points="3862.73,-206.07 3865.26,-195.78 3856.87,-202.24 3862.73,-206.07"/>
<text text-anchor="middle" x="3914.88" y="-217.8" font-family="Times,serif" font-size="14.00">object namespace</text>
</g>
<!-- subject label closure -->
<g id="node28" class="node">
<title>subject label closure</title>
<ellipse fill="none" stroke="blue" cx="4024.88" cy="-178" rx="38.19" ry="18"/>
<text text-anchor="middle" x="4024.88" y="-174.3" font-family="Times,serif" font-size="14.00">string</text>
</g>
<!-- organism taxon to organism taxon specialization&#45;&gt;subject label closure -->
<g id="edge27" class="edge">
<title>organism taxon to organism taxon specialization&#45;&gt;subject label closure</title>
<path fill="none" stroke="blue" d="M2754.93,-251.7C2783.54,-249.86 2813.08,-248.18 2840.88,-247 2872.58,-245.66 3954.23,-242.63 3982.88,-229 3994.01,-223.71 4003.26,-213.89 4010.22,-204.35"/>
<polygon fill="blue" stroke="blue" points="4013.29,-206.06 4015.96,-195.8 4007.48,-202.15 4013.29,-206.06"/>
<text text-anchor="middle" x="4076.88" y="-217.8" font-family="Times,serif" font-size="14.00">subject label closure</text>
</g>
<!-- object label closure -->
<g id="node29" class="node">
<title>object label closure</title>
<ellipse fill="none" stroke="blue" cx="4195.88" cy="-178" rx="38.19" ry="18"/>
<text text-anchor="middle" x="4195.88" y="-174.3" font-family="Times,serif" font-size="14.00">string</text>
</g>
<!-- organism taxon to organism taxon specialization&#45;&gt;object label closure -->
<g id="edge28" class="edge">
<title>organism taxon to organism taxon specialization&#45;&gt;object label closure</title>
<path fill="none" stroke="blue" d="M2754.27,-251.69C2783.08,-249.84 2812.86,-248.16 2840.88,-247 2877.35,-245.49 4121.99,-244.84 4154.88,-229 4165.88,-223.7 4174.93,-213.89 4181.7,-204.35"/>
<polygon fill="blue" stroke="blue" points="4184.74,-206.09 4187.27,-195.8 4178.88,-202.27 4184.74,-206.09"/>
<text text-anchor="middle" x="4244.38" y="-217.8" font-family="Times,serif" font-size="14.00">object label closure</text>
</g>
<!-- retrieval source ids -->
<g id="node30" class="node">
<title>retrieval source ids</title>
<ellipse fill="none" stroke="blue" cx="4348.88" cy="-178" rx="84.49" ry="18"/>
<text text-anchor="middle" x="4348.88" y="-174.3" font-family="Times,serif" font-size="14.00">retrieval source</text>
</g>
<!-- organism taxon to organism taxon specialization&#45;&gt;retrieval source ids -->
<g id="edge29" class="edge">
<title>organism taxon to organism taxon specialization&#45;&gt;retrieval source ids</title>
<path fill="none" stroke="blue" d="M2754.26,-251.66C2783.08,-249.81 2812.86,-248.14 2840.88,-247 2881.88,-245.33 4282.15,-249.17 4317.88,-229 4327.12,-223.78 4333.97,-214.56 4338.84,-205.45"/>
<polygon fill="blue" stroke="blue" points="4342.12,-206.7 4343.22,-196.16 4335.79,-203.71 4342.12,-206.7"/>
<text text-anchor="middle" x="4402.38" y="-217.8" font-family="Times,serif" font-size="14.00">retrieval source ids</text>
</g>
<!-- type -->
<g id="node31" class="node">
<title>type</title>
<ellipse fill="none" stroke="black" cx="4482.88" cy="-178" rx="31.4" ry="18"/>
<text text-anchor="middle" x="4482.88" y="-174.3" font-family="Times,serif" font-size="14.00">type</text>
</g>
<!-- organism taxon to organism taxon specialization&#45;&gt;type -->
<g id="edge30" class="edge">
<title>organism taxon to organism taxon specialization&#45;&gt;type</title>
<path fill="none" stroke="blue" d="M2753.93,-251.65C2782.85,-249.79 2812.75,-248.13 2840.88,-247 2863.57,-246.09 4458.83,-244 4475.88,-229 4482.34,-223.32 4484.87,-214.65 4485.55,-206.12"/>
<polygon fill="blue" stroke="blue" points="4489.05,-206 4485.58,-195.98 4482.05,-205.97 4489.05,-206"/>
<text text-anchor="middle" x="4500.88" y="-217.8" font-family="Times,serif" font-size="14.00">type</text>
</g>
<!-- category -->
<g id="node33" class="node">
<title>category</title>
<ellipse fill="none" stroke="black" cx="4583.88" cy="-178" rx="51.19" ry="18"/>
<text text-anchor="middle" x="4583.88" y="-174.3" font-family="Times,serif" font-size="14.00">category</text>
</g>
<!-- organism taxon to organism taxon specialization&#45;&gt;category -->
<g id="edge31" class="edge">
<title>organism taxon to organism taxon specialization&#45;&gt;category</title>
<path fill="none" stroke="blue" d="M2753.93,-251.65C2782.85,-249.79 2812.75,-248.12 2840.88,-247 2887.51,-245.14 4476.89,-244.6 4520.88,-229 4536.13,-223.59 4550.48,-212.84 4561.62,-202.68"/>
<polygon fill="blue" stroke="blue" points="4564.34,-204.92 4569.14,-195.48 4559.5,-199.87 4564.34,-204.92"/>
<text text-anchor="middle" x="4579.38" y="-217.8" font-family="Times,serif" font-size="14.00">category</text>
</g>
<!-- subject -->
<g id="node35" class="node">
<title>subject</title>
<ellipse fill="none" stroke="black" cx="4697.88" cy="-178" rx="44.39" ry="18"/>
<text text-anchor="middle" x="4697.88" y="-174.3" font-family="Times,serif" font-size="14.00">subject</text>
</g>
<!-- organism taxon to organism taxon specialization&#45;&gt;subject -->
<g id="edge32" class="edge">
<title>organism taxon to organism taxon specialization&#45;&gt;subject</title>
<path fill="none" stroke="blue" d="M2753.93,-251.63C2782.85,-249.78 2812.75,-248.11 2840.88,-247 2939.36,-243.1 4520.05,-255.87 4614.88,-229 4635.04,-223.29 4655.23,-211.3 4670.65,-200.49"/>
<polygon fill="blue" stroke="blue" points="4673.11,-203.03 4679.14,-194.32 4668.99,-197.37 4673.11,-203.03"/>
<text text-anchor="middle" x="4674.88" y="-217.8" font-family="Times,serif" font-size="14.00">subject</text>
</g>
<!-- object -->
<g id="node37" class="node">
<title>object</title>
<ellipse fill="none" stroke="black" cx="4740.88" cy="-91" rx="38.99" ry="18"/>
<text text-anchor="middle" x="4740.88" y="-87.3" font-family="Times,serif" font-size="14.00">object</text>
</g>
<!-- organism taxon to organism taxon specialization&#45;&gt;object -->
<g id="edge33" class="edge">
<title>organism taxon to organism taxon specialization&#45;&gt;object</title>
<path fill="none" stroke="blue" d="M2753.6,-251.64C2782.62,-249.78 2812.65,-248.11 2840.88,-247 2892.62,-244.96 4655.66,-245.09 4704.88,-229 4728.8,-221.18 4736.83,-216.87 4750.88,-196 4764.66,-175.52 4760.97,-166.51 4763.88,-142 4764.67,-135.38 4765.79,-133.39 4763.88,-127 4762.85,-123.55 4761.36,-120.13 4759.62,-116.85"/>
<polygon fill="blue" stroke="blue" points="4762.46,-114.79 4754.26,-108.09 4756.49,-118.45 4762.46,-114.79"/>
<text text-anchor="middle" x="4784.88" y="-174.3" font-family="Times,serif" font-size="14.00">object</text>
</g>
<!-- predicate -->
<g id="node39" class="node">
<title>predicate</title>
<ellipse fill="none" stroke="black" cx="4894.88" cy="-178" rx="54.69" ry="18"/>
<text text-anchor="middle" x="4894.88" y="-174.3" font-family="Times,serif" font-size="14.00">predicate</text>
</g>
<!-- organism taxon to organism taxon specialization&#45;&gt;predicate -->
<g id="edge34" class="edge">
<title>organism taxon to organism taxon specialization&#45;&gt;predicate</title>
<path fill="none" stroke="blue" d="M2753.6,-251.63C2782.62,-249.77 2812.65,-248.1 2840.88,-247 2949.19,-242.76 4686.36,-253.77 4791.88,-229 4816.77,-223.16 4842.65,-210.56 4862.25,-199.48"/>
<polygon fill="blue" stroke="blue" points="4864.17,-202.41 4871.05,-194.36 4860.65,-196.36 4864.17,-202.41"/>
<text text-anchor="middle" x="4867.88" y="-217.8" font-family="Times,serif" font-size="14.00">predicate</text>
</g>
<!-- association_type -->
<g id="node32" class="node">
<title>association_type</title>
<ellipse fill="none" stroke="blue" cx="2887.88" cy="-265" rx="38.19" ry="18"/>
<text text-anchor="middle" x="2887.88" y="-261.3" font-family="Times,serif" font-size="14.00">string</text>
</g>
<!-- association_category -->
<g id="node34" class="node">
<title>association_category</title>
<ellipse fill="none" stroke="blue" cx="3018.88" cy="-265" rx="74.99" ry="18"/>
<text text-anchor="middle" x="3018.88" y="-261.3" font-family="Times,serif" font-size="14.00">category type</text>
</g>
<!-- subject&#45;&gt;object -->
<g id="edge35" class="edge">
<title>subject&#45;&gt;object</title>
<path fill="none" stroke="black" d="M4698.98,-159.55C4700.18,-149.57 4702.68,-137.07 4707.88,-127 4710.11,-122.68 4713.03,-118.52 4716.21,-114.66"/>
<polygon fill="black" stroke="black" points="4718.84,-116.98 4722.98,-107.23 4713.66,-112.27 4718.84,-116.98"/>
<text text-anchor="middle" x="4735.88" y="-130.8" font-family="Times,serif" font-size="14.00">relation</text>
</g>
<!-- relation -->
<g id="node41" class="node">
<title>relation</title>
<ellipse fill="none" stroke="black" cx="4685.88" cy="-18" rx="46.59" ry="18"/>
<text text-anchor="middle" x="4685.88" y="-14.3" font-family="Times,serif" font-size="14.00">relation</text>
</g>
<!-- subject&#45;&gt;relation -->
<g id="edge36" class="edge">
<title>subject&#45;&gt;relation</title>
<path fill="none" stroke="black" stroke-dasharray="1,5" d="M4696.57,-159.79C4694.5,-132.48 4690.44,-78.99 4687.96,-46.38"/>
<polygon fill="black" stroke="black" points="4691.43,-45.89 4687.19,-36.19 4684.45,-46.42 4691.43,-45.89"/>
</g>
<!-- organism taxon to organism taxon specialization_subject -->
<g id="node36" class="node">
<title>organism taxon to organism taxon specialization_subject</title>
<ellipse fill="none" stroke="blue" cx="3194.88" cy="-265" rx="83.39" ry="18"/>
<text text-anchor="middle" x="3194.88" y="-261.3" font-family="Times,serif" font-size="14.00">organism taxon</text>
</g>
<!-- object&#45;&gt;relation -->
<g id="edge37" class="edge">
<title>object&#45;&gt;relation</title>
<path fill="none" stroke="black" stroke-dasharray="1,5" d="M4728.4,-73.89C4721.47,-64.94 4712.7,-53.62 4704.92,-43.58"/>
<polygon fill="black" stroke="black" points="4707.58,-41.3 4698.69,-35.54 4702.05,-45.59 4707.58,-41.3"/>
</g>
<!-- organism taxon to organism taxon specialization_object -->
<g id="node38" class="node">
<title>organism taxon to organism taxon specialization_object</title>
<ellipse fill="none" stroke="blue" cx="3378.88" cy="-265" rx="83.39" ry="18"/>
<text text-anchor="middle" x="3378.88" y="-261.3" font-family="Times,serif" font-size="14.00">organism taxon</text>
</g>
<!-- organism taxon to organism taxon specialization_predicate -->
<g id="node40" class="node">
<title>organism taxon to organism taxon specialization_predicate</title>
<ellipse fill="none" stroke="blue" cx="3557.88" cy="-265" rx="77.99" ry="18"/>
<text text-anchor="middle" x="3557.88" y="-261.3" font-family="Times,serif" font-size="14.00">predicate type</text>
</g>
</g>
</svg>
