<?xml version="1.0" encoding="UTF-8" standalone="no"?>
<!DOCTYPE svg PUBLIC "-//W3C//DTD SVG 1.1//EN"
 "http://www.w3.org/Graphics/SVG/1.1/DTD/svg11.dtd">
<!-- Generated by graphviz version 2.43.0 (0)
 -->
<!-- Title: %3 Pages: 1 -->
<svg width="3077pt" height="291pt"
 viewBox="0.00 0.00 3076.99 291.00" xmlns="http://www.w3.org/2000/svg" xmlns:xlink="http://www.w3.org/1999/xlink">
<g id="graph0" class="graph" transform="scale(1 1) rotate(0) translate(4 287)">
<title>%3</title>
<polygon fill="white" stroke="transparent" points="-4,4 -4,-287 3072.99,-287 3072.99,4 -4,4"/>
<!-- organism taxon to environment association -->
<g id="node1" class="node">
<title>organism taxon to environment association</title>
<ellipse fill="none" stroke="black" cx="1566.39" cy="-265" rx="211.76" ry="18"/>
<text text-anchor="middle" x="1566.39" y="-261.3" font-family="Times,serif" font-size="14.00">organism taxon to environment association</text>
</g>
<!-- association -->
<g id="node2" class="node">
<title>association</title>
<ellipse fill="none" stroke="black" cx="62.39" cy="-178" rx="62.29" ry="18"/>
<text text-anchor="middle" x="62.39" y="-174.3" font-family="Times,serif" font-size="14.00">association</text>
</g>
<!-- organism taxon to environment association&#45;&gt;association -->
<g id="edge1" class="edge">
<title>organism taxon to environment association&#45;&gt;association</title>
<path fill="none" stroke="black" d="M1360.22,-260.85C1144.25,-256.71 795.25,-247.65 494.39,-229 333.59,-219.03 292.37,-222.16 133.39,-196 128,-195.11 122.41,-194.04 116.84,-192.87"/>
<polygon fill="black" stroke="black" points="117.41,-189.41 106.89,-190.69 115.9,-196.25 117.41,-189.41"/>
<text text-anchor="middle" x="508.39" y="-217.8" font-family="Times,serif" font-size="14.00">is_a</text>
</g>
<!-- organism taxon to entity association -->
<g id="node3" class="node">
<title>organism taxon to entity association</title>
<ellipse fill="none" stroke="black" cx="322.39" cy="-178" rx="180.07" ry="18"/>
<text text-anchor="middle" x="322.39" y="-174.3" font-family="Times,serif" font-size="14.00">organism taxon to entity association</text>
</g>
<!-- organism taxon to environment association&#45;&gt;organism taxon to entity association -->
<g id="edge2" class="edge">
<title>organism taxon to environment association&#45;&gt;organism taxon to entity association</title>
<path fill="none" stroke="black" d="M1355.37,-263.11C1167.37,-260.63 884.98,-252.77 640.39,-229 562.91,-221.47 475.6,-207.33 412.09,-196"/>
<polygon fill="black" stroke="black" points="412.57,-192.53 402.11,-194.21 411.33,-199.42 412.57,-192.53"/>
<text text-anchor="middle" x="656.89" y="-217.8" font-family="Times,serif" font-size="14.00">uses</text>
</g>
<!-- id -->
<g id="node4" class="node">
<title>id</title>
<ellipse fill="none" stroke="blue" cx="558.39" cy="-178" rx="38.19" ry="18"/>
<text text-anchor="middle" x="558.39" y="-174.3" font-family="Times,serif" font-size="14.00">string</text>
</g>
<!-- organism taxon to environment association&#45;&gt;id -->
<g id="edge3" class="edge">
<title>organism taxon to environment association&#45;&gt;id</title>
<path fill="none" stroke="blue" d="M1355.19,-263.5C1194.56,-260.99 968.38,-252.89 771.39,-229 697.15,-220 678.49,-215.87 606.39,-196 603.28,-195.14 600.08,-194.18 596.88,-193.17"/>
<polygon fill="blue" stroke="blue" points="597.97,-189.84 587.37,-190.01 595.76,-196.49 597.97,-189.84"/>
<text text-anchor="middle" x="778.39" y="-217.8" font-family="Times,serif" font-size="14.00">id</text>
</g>
<!-- iri -->
<g id="node5" class="node">
<title>iri</title>
<ellipse fill="none" stroke="blue" cx="659.39" cy="-178" rx="44.39" ry="18"/>
<text text-anchor="middle" x="659.39" y="-174.3" font-family="Times,serif" font-size="14.00">iri type</text>
</g>
<!-- organism taxon to environment association&#45;&gt;iri -->
<g id="edge4" class="edge">
<title>organism taxon to environment association&#45;&gt;iri</title>
<path fill="none" stroke="blue" d="M1360.21,-260.83C1224.59,-256.92 1043.44,-248.24 884.39,-229 807.12,-219.65 787.81,-215.26 712.39,-196 709.02,-195.14 705.54,-194.18 702.05,-193.17"/>
<polygon fill="blue" stroke="blue" points="702.88,-189.77 692.29,-190.23 700.86,-196.47 702.88,-189.77"/>
<text text-anchor="middle" x="892.39" y="-217.8" font-family="Times,serif" font-size="14.00">iri</text>
</g>
<!-- name -->
<g id="node6" class="node">
<title>name</title>
<ellipse fill="none" stroke="blue" cx="778.39" cy="-178" rx="56.59" ry="18"/>
<text text-anchor="middle" x="778.39" y="-174.3" font-family="Times,serif" font-size="14.00">label type</text>
</g>
<!-- organism taxon to environment association&#45;&gt;name -->
<g id="edge5" class="edge">
<title>organism taxon to environment association&#45;&gt;name</title>
<path fill="none" stroke="blue" d="M1358.89,-261.22C1245.1,-257.31 1101.87,-248.5 975.39,-229 923.96,-221.07 866.39,-205.68 826.84,-194.06"/>
<polygon fill="blue" stroke="blue" points="827.77,-190.68 817.19,-191.19 825.78,-197.39 827.77,-190.68"/>
<text text-anchor="middle" x="995.39" y="-217.8" font-family="Times,serif" font-size="14.00">name</text>
</g>
<!-- description -->
<g id="node7" class="node">
<title>description</title>
<ellipse fill="none" stroke="blue" cx="928.39" cy="-178" rx="75.29" ry="18"/>
<text text-anchor="middle" x="928.39" y="-174.3" font-family="Times,serif" font-size="14.00">narrative text</text>
</g>
<!-- organism taxon to environment association&#45;&gt;description -->
<g id="edge6" class="edge">
<title>organism taxon to environment association&#45;&gt;description</title>
<path fill="none" stroke="blue" d="M1358.2,-261.55C1269.13,-257.35 1164.42,-248.19 1071.39,-229 1037.41,-221.99 1000.47,-208.92 972.65,-197.9"/>
<polygon fill="blue" stroke="blue" points="973.79,-194.59 963.21,-194.11 971.18,-201.09 973.79,-194.59"/>
<text text-anchor="middle" x="1111.89" y="-217.8" font-family="Times,serif" font-size="14.00">description</text>
</g>
<!-- has attribute -->
<g id="node8" class="node">
<title>has attribute</title>
<ellipse fill="none" stroke="blue" cx="1073.39" cy="-178" rx="51.99" ry="18"/>
<text text-anchor="middle" x="1073.39" y="-174.3" font-family="Times,serif" font-size="14.00">attribute</text>
</g>
<!-- organism taxon to environment association&#45;&gt;has attribute -->
<g id="edge7" class="edge">
<title>organism taxon to environment association&#45;&gt;has attribute</title>
<path fill="none" stroke="blue" d="M1382.47,-255.98C1324.62,-250.88 1260.86,-242.55 1203.39,-229 1171.78,-221.54 1137.54,-208.14 1112.15,-197.09"/>
<polygon fill="blue" stroke="blue" points="1113.43,-193.83 1102.87,-192.99 1110.6,-200.23 1113.43,-193.83"/>
<text text-anchor="middle" x="1250.39" y="-217.8" font-family="Times,serif" font-size="14.00">has attribute</text>
</g>
<!-- negated -->
<g id="node9" class="node">
<title>negated</title>
<ellipse fill="none" stroke="blue" cx="1190.39" cy="-178" rx="46.59" ry="18"/>
<text text-anchor="middle" x="1190.39" y="-174.3" font-family="Times,serif" font-size="14.00">boolean</text>
</g>
<!-- organism taxon to environment association&#45;&gt;negated -->
<g id="edge8" class="edge">
<title>organism taxon to environment association&#45;&gt;negated</title>
<path fill="none" stroke="blue" d="M1460.99,-249.38C1426.8,-243.89 1388.82,-237.02 1354.39,-229 1305.1,-217.52 1293.8,-210.81 1245.39,-196 1242.09,-194.99 1238.68,-193.94 1235.25,-192.89"/>
<polygon fill="blue" stroke="blue" points="1236.18,-189.51 1225.59,-189.91 1234.12,-196.2 1236.18,-189.51"/>
<text text-anchor="middle" x="1383.39" y="-217.8" font-family="Times,serif" font-size="14.00">negated</text>
</g>
<!-- qualifiers -->
<g id="node10" class="node">
<title>qualifiers</title>
<ellipse fill="none" stroke="blue" cx="1331.39" cy="-178" rx="76.89" ry="18"/>
<text text-anchor="middle" x="1331.39" y="-174.3" font-family="Times,serif" font-size="14.00">ontology class</text>
</g>
<!-- organism taxon to environment association&#45;&gt;qualifiers -->
<g id="edge9" class="edge">
<title>organism taxon to environment association&#45;&gt;qualifiers</title>
<path fill="none" stroke="blue" d="M1509.22,-247.6C1490.95,-242.05 1470.71,-235.58 1452.39,-229 1426.47,-219.69 1397.98,-207.99 1375.15,-198.25"/>
<polygon fill="blue" stroke="blue" points="1376.31,-194.94 1365.74,-194.2 1373.55,-201.37 1376.31,-194.94"/>
<text text-anchor="middle" x="1485.89" y="-217.8" font-family="Times,serif" font-size="14.00">qualifiers</text>
</g>
<!-- publications -->
<g id="node11" class="node">
<title>publications</title>
<ellipse fill="none" stroke="blue" cx="1488.39" cy="-178" rx="62.29" ry="18"/>
<text text-anchor="middle" x="1488.39" y="-174.3" font-family="Times,serif" font-size="14.00">publication</text>
</g>
<!-- organism taxon to environment association&#45;&gt;publications -->
<g id="edge10" class="edge">
<title>organism taxon to environment association&#45;&gt;publications</title>
<path fill="none" stroke="blue" d="M1550.61,-246.8C1539.15,-234.31 1523.48,-217.24 1510.74,-203.35"/>
<polygon fill="blue" stroke="blue" points="1512.96,-200.6 1503.62,-195.6 1507.81,-205.33 1512.96,-200.6"/>
<text text-anchor="middle" x="1576.39" y="-217.8" font-family="Times,serif" font-size="14.00">publications</text>
</g>
<!-- has evidence -->
<g id="node12" class="node">
<title>has evidence</title>
<ellipse fill="none" stroke="blue" cx="1644.39" cy="-178" rx="75.29" ry="18"/>
<text text-anchor="middle" x="1644.39" y="-174.3" font-family="Times,serif" font-size="14.00">evidence type</text>
</g>
<!-- organism taxon to environment association&#45;&gt;has evidence -->
<g id="edge11" class="edge">
<title>organism taxon to environment association&#45;&gt;has evidence</title>
<path fill="none" stroke="blue" d="M1600.6,-247.14C1608.48,-242.1 1616.32,-236.02 1622.39,-229 1628.22,-222.27 1632.73,-213.76 1636.11,-205.67"/>
<polygon fill="blue" stroke="blue" points="1639.44,-206.76 1639.68,-196.17 1632.88,-204.3 1639.44,-206.76"/>
<text text-anchor="middle" x="1678.89" y="-217.8" font-family="Times,serif" font-size="14.00">has evidence</text>
</g>
<!-- knowledge source -->
<g id="node13" class="node">
<title>knowledge source</title>
<ellipse fill="none" stroke="blue" cx="1846.39" cy="-178" rx="108.58" ry="18"/>
<text text-anchor="middle" x="1846.39" y="-174.3" font-family="Times,serif" font-size="14.00">information resource</text>
</g>
<!-- organism taxon to environment association&#45;&gt;knowledge source -->
<g id="edge12" class="edge">
<title>organism taxon to environment association&#45;&gt;knowledge source</title>
<path fill="none" stroke="blue" d="M1653.49,-248.53C1678.27,-243.26 1705.12,-236.71 1729.39,-229 1754.7,-220.96 1782.04,-209.44 1803.92,-199.49"/>
<polygon fill="blue" stroke="blue" points="1805.64,-202.56 1813.25,-195.19 1802.71,-196.2 1805.64,-202.56"/>
<text text-anchor="middle" x="1833.89" y="-217.8" font-family="Times,serif" font-size="14.00">knowledge source</text>
</g>
<!-- primary knowledge source -->
<g id="node14" class="node">
<title>primary knowledge source</title>
<ellipse fill="none" stroke="blue" cx="2081.39" cy="-178" rx="108.58" ry="18"/>
<text text-anchor="middle" x="2081.39" y="-174.3" font-family="Times,serif" font-size="14.00">information resource</text>
</g>
<!-- organism taxon to environment association&#45;&gt;primary knowledge source -->
<g id="edge13" class="edge">
<title>organism taxon to environment association&#45;&gt;primary knowledge source</title>
<path fill="none" stroke="blue" d="M1724.88,-253.03C1781.23,-247.67 1844.92,-239.94 1902.39,-229 1944.12,-221.06 1990.25,-208.07 2025.24,-197.31"/>
<polygon fill="blue" stroke="blue" points="2026.28,-200.66 2034.8,-194.35 2024.21,-193.97 2026.28,-200.66"/>
<text text-anchor="middle" x="2062.39" y="-217.8" font-family="Times,serif" font-size="14.00">primary knowledge source</text>
</g>
<!-- aggregator knowledge source -->
<g id="node15" class="node">
<title>aggregator knowledge source</title>
<ellipse fill="none" stroke="blue" cx="2316.39" cy="-178" rx="108.58" ry="18"/>
<text text-anchor="middle" x="2316.39" y="-174.3" font-family="Times,serif" font-size="14.00">information resource</text>
</g>
<!-- organism taxon to environment association&#45;&gt;aggregator knowledge source -->
<g id="edge14" class="edge">
<title>organism taxon to environment association&#45;&gt;aggregator knowledge source</title>
<path fill="none" stroke="blue" d="M1714.06,-252.05C1738.55,-250.24 1763.68,-248.48 1787.39,-247 1953.48,-236.62 1997.67,-258.8 2161.39,-229 2197.79,-222.37 2237.47,-209.46 2267.57,-198.42"/>
<polygon fill="blue" stroke="blue" points="2268.84,-201.68 2276.99,-194.91 2266.4,-195.12 2268.84,-201.68"/>
<text text-anchor="middle" x="2324.89" y="-217.8" font-family="Times,serif" font-size="14.00">aggregator knowledge source</text>
</g>
<!-- timepoint -->
<g id="node16" class="node">
<title>timepoint</title>
<ellipse fill="none" stroke="blue" cx="2498.39" cy="-178" rx="55.49" ry="18"/>
<text text-anchor="middle" x="2498.39" y="-174.3" font-family="Times,serif" font-size="14.00">time type</text>
</g>
<!-- organism taxon to environment association&#45;&gt;timepoint -->
<g id="edge15" class="edge">
<title>organism taxon to environment association&#45;&gt;timepoint</title>
<path fill="none" stroke="blue" d="M1711.36,-251.83C1736.69,-249.99 1762.8,-248.29 1787.39,-247 1859.32,-243.24 2367.72,-253.65 2435.39,-229 2450.6,-223.46 2464.95,-212.69 2476.1,-202.56"/>
<polygon fill="blue" stroke="blue" points="2478.8,-204.82 2483.62,-195.39 2473.97,-199.76 2478.8,-204.82"/>
<text text-anchor="middle" x="2497.39" y="-217.8" font-family="Times,serif" font-size="14.00">timepoint</text>
</g>
<!-- type -->
<g id="node17" class="node">
<title>type</title>
<ellipse fill="none" stroke="black" cx="2602.39" cy="-178" rx="31.4" ry="18"/>
<text text-anchor="middle" x="2602.39" y="-174.3" font-family="Times,serif" font-size="14.00">type</text>
</g>
<!-- organism taxon to environment association&#45;&gt;type -->
<g id="edge16" class="edge">
<title>organism taxon to environment association&#45;&gt;type</title>
<path fill="none" stroke="blue" d="M1710.76,-251.79C1736.28,-249.95 1762.61,-248.25 1787.39,-247 1870.54,-242.81 2457.81,-256.46 2536.39,-229 2552.71,-223.3 2568.26,-211.92 2580.17,-201.46"/>
<polygon fill="blue" stroke="blue" points="2582.8,-203.79 2587.79,-194.44 2578.06,-198.64 2582.8,-203.79"/>
<text text-anchor="middle" x="2580.39" y="-217.8" font-family="Times,serif" font-size="14.00">type</text>
</g>
<!-- category -->
<g id="node19" class="node">
<title>category</title>
<ellipse fill="none" stroke="black" cx="2703.39" cy="-178" rx="51.19" ry="18"/>
<text text-anchor="middle" x="2703.39" y="-174.3" font-family="Times,serif" font-size="14.00">category</text>
</g>
<!-- organism taxon to environment association&#45;&gt;category -->
<g id="edge17" class="edge">
<title>organism taxon to environment association&#45;&gt;category</title>
<path fill="none" stroke="blue" d="M1710.46,-251.77C1736.07,-249.93 1762.51,-248.23 1787.39,-247 1877.64,-242.53 2512.57,-250.22 2600.39,-229 2625.41,-222.96 2651.48,-210.23 2671.13,-199.13"/>
<polygon fill="blue" stroke="blue" points="2673.05,-202.06 2679.95,-194.02 2669.54,-196.01 2673.05,-202.06"/>
<text text-anchor="middle" x="2673.89" y="-217.8" font-family="Times,serif" font-size="14.00">category</text>
</g>
<!-- subject -->
<g id="node21" class="node">
<title>subject</title>
<ellipse fill="none" stroke="black" cx="2817.39" cy="-178" rx="44.39" ry="18"/>
<text text-anchor="middle" x="2817.39" y="-174.3" font-family="Times,serif" font-size="14.00">subject</text>
</g>
<!-- organism taxon to environment association&#45;&gt;subject -->
<g id="edge18" class="edge">
<title>organism taxon to environment association&#45;&gt;subject</title>
<path fill="none" stroke="blue" d="M1710.16,-251.74C1735.87,-249.89 1762.41,-248.2 1787.39,-247 1889.74,-242.07 2609.55,-252.02 2709.39,-229 2736.23,-222.81 2764.39,-209.52 2785.23,-198.19"/>
<polygon fill="blue" stroke="blue" points="2786.94,-201.24 2793.97,-193.32 2783.53,-195.13 2786.94,-201.24"/>
<text text-anchor="middle" x="2779.39" y="-217.8" font-family="Times,serif" font-size="14.00">subject</text>
</g>
<!-- object -->
<g id="node23" class="node">
<title>object</title>
<ellipse fill="none" stroke="black" cx="2860.39" cy="-91" rx="38.99" ry="18"/>
<text text-anchor="middle" x="2860.39" y="-87.3" font-family="Times,serif" font-size="14.00">object</text>
</g>
<!-- organism taxon to environment association&#45;&gt;object -->
<g id="edge19" class="edge">
<title>organism taxon to environment association&#45;&gt;object</title>
<path fill="none" stroke="blue" d="M1709.87,-251.72C1735.66,-249.87 1762.31,-248.18 1787.39,-247 1900.84,-241.64 2699.54,-257.84 2809.39,-229 2839.21,-221.17 2851.6,-220.43 2870.39,-196 2889.42,-171.26 2892.34,-156.9 2883.39,-127 2882.36,-123.55 2880.87,-120.13 2879.13,-116.85"/>
<polygon fill="blue" stroke="blue" points="2881.98,-114.79 2873.77,-108.09 2876.01,-118.45 2881.98,-114.79"/>
<text text-anchor="middle" x="2910.39" y="-174.3" font-family="Times,serif" font-size="14.00">object</text>
</g>
<!-- predicate -->
<g id="node25" class="node">
<title>predicate</title>
<ellipse fill="none" stroke="black" cx="3014.39" cy="-178" rx="54.69" ry="18"/>
<text text-anchor="middle" x="3014.39" y="-174.3" font-family="Times,serif" font-size="14.00">predicate</text>
</g>
<!-- organism taxon to environment association&#45;&gt;predicate -->
<g id="edge20" class="edge">
<title>organism taxon to environment association&#45;&gt;predicate</title>
<path fill="none" stroke="blue" d="M1709.57,-251.71C1735.45,-249.85 1762.22,-248.17 1787.39,-247 1912.16,-241.21 2789.89,-257.96 2911.39,-229 2936.27,-223.07 2962.15,-210.48 2981.74,-199.41"/>
<polygon fill="blue" stroke="blue" points="2983.66,-202.35 2990.55,-194.3 2980.15,-196.29 2983.66,-202.35"/>
<text text-anchor="middle" x="2987.39" y="-217.8" font-family="Times,serif" font-size="14.00">predicate</text>
</g>
<!-- association_type -->
<g id="node18" class="node">
<title>association_type</title>
<ellipse fill="none" stroke="blue" cx="1834.39" cy="-265" rx="38.19" ry="18"/>
<text text-anchor="middle" x="1834.39" y="-261.3" font-family="Times,serif" font-size="14.00">string</text>
</g>
<!-- association_category -->
<g id="node20" class="node">
<title>association_category</title>
<ellipse fill="none" stroke="blue" cx="1965.39" cy="-265" rx="74.99" ry="18"/>
<text text-anchor="middle" x="1965.39" y="-261.3" font-family="Times,serif" font-size="14.00">category type</text>
</g>
<!-- subject&#45;&gt;object -->
<g id="edge21" class="edge">
<title>subject&#45;&gt;object</title>
<path fill="none" stroke="black" d="M2818.5,-159.55C2819.7,-149.57 2822.2,-137.07 2827.39,-127 2829.62,-122.68 2832.55,-118.52 2835.73,-114.66"/>
<polygon fill="black" stroke="black" points="2838.35,-116.98 2842.49,-107.23 2833.17,-112.27 2838.35,-116.98"/>
<text text-anchor="middle" x="2855.39" y="-130.8" font-family="Times,serif" font-size="14.00">relation</text>
</g>
<!-- relation -->
<g id="node27" class="node">
<title>relation</title>
<ellipse fill="none" stroke="black" cx="2805.39" cy="-18" rx="46.59" ry="18"/>
<text text-anchor="middle" x="2805.39" y="-14.3" font-family="Times,serif" font-size="14.00">relation</text>
</g>
<!-- subject&#45;&gt;relation -->
<g id="edge22" class="edge">
<title>subject&#45;&gt;relation</title>
<path fill="none" stroke="black" stroke-dasharray="1,5" d="M2816.09,-159.79C2814.01,-132.48 2809.95,-78.99 2807.47,-46.38"/>
<polygon fill="black" stroke="black" points="2810.95,-45.89 2806.7,-36.19 2803.97,-46.42 2810.95,-45.89"/>
</g>
<!-- organism taxon to environment association_subject -->
<g id="node22" class="node">
<title>organism taxon to environment association_subject</title>
<ellipse fill="none" stroke="blue" cx="2141.39" cy="-265" rx="83.39" ry="18"/>
<text text-anchor="middle" x="2141.39" y="-261.3" font-family="Times,serif" font-size="14.00">organism taxon</text>
</g>
<!-- object&#45;&gt;relation -->
<g id="edge23" class="edge">
<title>object&#45;&gt;relation</title>
<path fill="none" stroke="black" stroke-dasharray="1,5" d="M2847.91,-73.89C2840.98,-64.94 2832.21,-53.62 2824.44,-43.58"/>
<polygon fill="black" stroke="black" points="2827.1,-41.3 2818.21,-35.54 2821.56,-45.59 2827.1,-41.3"/>
</g>
<!-- organism taxon to environment association_object -->
<g id="node24" class="node">
<title>organism taxon to environment association_object</title>
<ellipse fill="none" stroke="blue" cx="2312.39" cy="-265" rx="69.59" ry="18"/>
<text text-anchor="middle" x="2312.39" y="-261.3" font-family="Times,serif" font-size="14.00">named thing</text>
</g>
<!-- organism taxon to environment association_predicate -->
<g id="node26" class="node">
<title>organism taxon to environment association_predicate</title>
<ellipse fill="none" stroke="blue" cx="2478.39" cy="-265" rx="77.99" ry="18"/>
<text text-anchor="middle" x="2478.39" y="-261.3" font-family="Times,serif" font-size="14.00">predicate type</text>
</g>
</g>
</svg>
