<?xml version="1.0" encoding="UTF-8" standalone="no"?>
<!DOCTYPE svg PUBLIC "-//W3C//DTD SVG 1.1//EN"
 "http://www.w3.org/Graphics/SVG/1.1/DTD/svg11.dtd">
<!-- Generated by graphviz version 2.40.1 (20161225.0304)
 -->
<!-- Title: %3 Pages: 1 -->
<svg width="2647pt" height="291pt"
 viewBox="0.00 0.00 2646.87 291.00" xmlns="http://www.w3.org/2000/svg" xmlns:xlink="http://www.w3.org/1999/xlink">
<g id="graph0" class="graph" transform="scale(1 1) rotate(0) translate(4 287)">
<title>%3</title>
<polygon fill="#ffffff" stroke="transparent" points="-4,4 -4,-287 2642.8651,-287 2642.8651,4 -4,4"/>
<!-- organism taxon to organism taxon interaction -->
<g id="node1" class="node">
<title>organism taxon to organism taxon interaction</title>
<ellipse fill="none" stroke="#000000" cx="1378.53" cy="-265" rx="224.4604" ry="18"/>
<text text-anchor="middle" x="1378.53" y="-261.3" font-family="Times,serif" font-size="14.00" fill="#000000">organism taxon to organism taxon interaction</text>
</g>
<!-- organism taxon to organism taxon association -->
<g id="node2" class="node">
<title>organism taxon to organism taxon association</title>
<ellipse fill="none" stroke="#000000" cx="225.53" cy="-178" rx="225.56" ry="18"/>
<text text-anchor="middle" x="225.53" y="-174.3" font-family="Times,serif" font-size="14.00" fill="#000000">organism taxon to organism taxon association</text>
</g>
<!-- organism taxon to organism taxon interaction&#45;&gt;organism taxon to organism taxon association -->
<g id="edge1" class="edge">
<title>organism taxon to organism taxon interaction&#45;&gt;organism taxon to organism taxon association</title>
<path fill="none" stroke="#000000" d="M1161.4486,-260.4806C1003.1949,-255.8693 783.7357,-246.7489 591.53,-229 504.585,-220.9712 406.6413,-207.0648 333.9672,-195.7994"/>
<polygon fill="#000000" stroke="#000000" points="334.3037,-192.3097 323.8841,-194.2282 333.2259,-199.2262 334.3037,-192.3097"/>
<text text-anchor="middle" x="605.53" y="-217.8" font-family="Times,serif" font-size="14.00" fill="#000000">is_a</text>
</g>
<!-- id -->
<g id="node3" class="node">
<title>id</title>
<ellipse fill="none" stroke="#0000ff" cx="507.53" cy="-178" rx="38.1938" ry="18"/>
<text text-anchor="middle" x="507.53" y="-174.3" font-family="Times,serif" font-size="14.00" fill="#000000">string</text>
</g>
<!-- organism taxon to organism taxon interaction&#45;&gt;id -->
<g id="edge2" class="edge">
<title>organism taxon to organism taxon interaction&#45;&gt;id</title>
<path fill="none" stroke="#0000ff" d="M1175.1337,-257.3764C1013.0449,-250.6682 799.5137,-240.2406 713.53,-229 642.3977,-219.701 624.4272,-215.986 555.53,-196 552.549,-195.1353 549.4894,-194.1721 546.4279,-193.1533"/>
<polygon fill="#0000ff" stroke="#0000ff" points="547.332,-189.7616 536.7372,-189.7626 545.0201,-196.3689 547.332,-189.7616"/>
<text text-anchor="middle" x="720.53" y="-217.8" font-family="Times,serif" font-size="14.00" fill="#000000">id</text>
</g>
<!-- iri -->
<g id="node4" class="node">
<title>iri</title>
<ellipse fill="none" stroke="#0000ff" cx="608.53" cy="-178" rx="44.393" ry="18"/>
<text text-anchor="middle" x="608.53" y="-174.3" font-family="Times,serif" font-size="14.00" fill="#000000">iri type</text>
</g>
<!-- organism taxon to organism taxon interaction&#45;&gt;iri -->
<g id="edge3" class="edge">
<title>organism taxon to organism taxon interaction&#45;&gt;iri</title>
<path fill="none" stroke="#0000ff" d="M1168.3501,-258.7078C1062.7189,-253.7221 932.9553,-244.8276 817.53,-229 747.3194,-219.3724 729.8691,-214.7614 661.53,-196 658.196,-195.0847 654.7651,-194.0762 651.3285,-193.018"/>
<polygon fill="#0000ff" stroke="#0000ff" points="652.2953,-189.6526 641.7044,-189.9405 650.1632,-196.32 652.2953,-189.6526"/>
<text text-anchor="middle" x="825.53" y="-217.8" font-family="Times,serif" font-size="14.00" fill="#000000">iri</text>
</g>
<!-- name -->
<g id="node5" class="node">
<title>name</title>
<ellipse fill="none" stroke="#0000ff" cx="727.53" cy="-178" rx="56.59" ry="18"/>
<text text-anchor="middle" x="727.53" y="-174.3" font-family="Times,serif" font-size="14.00" fill="#000000">label type</text>
</g>
<!-- organism taxon to organism taxon interaction&#45;&gt;name -->
<g id="edge4" class="edge">
<title>organism taxon to organism taxon interaction&#45;&gt;name</title>
<path fill="none" stroke="#0000ff" d="M1191.053,-255.0709C1081.0835,-248.436 953.2836,-239.0967 898.53,-229 855.6888,-221.1 808.3177,-206.491 774.3194,-194.9269"/>
<polygon fill="#0000ff" stroke="#0000ff" points="775.254,-191.5472 764.6593,-191.6008 772.9751,-198.1658 775.254,-191.5472"/>
<text text-anchor="middle" x="918.53" y="-217.8" font-family="Times,serif" font-size="14.00" fill="#000000">name</text>
</g>
<!-- description -->
<g id="node6" class="node">
<title>description</title>
<ellipse fill="none" stroke="#0000ff" cx="877.53" cy="-178" rx="75.2868" ry="18"/>
<text text-anchor="middle" x="877.53" y="-174.3" font-family="Times,serif" font-size="14.00" fill="#000000">narrative text</text>
</g>
<!-- organism taxon to organism taxon interaction&#45;&gt;description -->
<g id="edge5" class="edge">
<title>organism taxon to organism taxon interaction&#45;&gt;description</title>
<path fill="none" stroke="#0000ff" d="M1193.5019,-254.7914C1109.6131,-248.8299 1020.385,-240.2442 980.53,-229 957.154,-222.405 932.7213,-210.5514 913.5217,-199.931"/>
<polygon fill="#0000ff" stroke="#0000ff" points="915.245,-196.8847 904.8184,-195.0037 911.7962,-202.9762 915.245,-196.8847"/>
<text text-anchor="middle" x="1021.53" y="-217.8" font-family="Times,serif" font-size="14.00" fill="#000000">description</text>
</g>
<!-- source -->
<g id="node7" class="node">
<title>source</title>
<ellipse fill="none" stroke="#0000ff" cx="1027.53" cy="-178" rx="56.59" ry="18"/>
<text text-anchor="middle" x="1027.53" y="-174.3" font-family="Times,serif" font-size="14.00" fill="#000000">label type</text>
</g>
<!-- organism taxon to organism taxon interaction&#45;&gt;source -->
<g id="edge6" class="edge">
<title>organism taxon to organism taxon interaction&#45;&gt;source</title>
<path fill="none" stroke="#0000ff" d="M1217.9131,-252.4297C1165.7336,-246.7182 1115.1886,-238.9695 1091.53,-229 1076.8858,-222.8291 1062.8207,-212.3147 1051.6243,-202.4304"/>
<polygon fill="#0000ff" stroke="#0000ff" points="1053.7371,-199.6179 1044.0113,-195.4155 1048.9937,-204.7657 1053.7371,-199.6179"/>
<text text-anchor="middle" x="1116.03" y="-217.8" font-family="Times,serif" font-size="14.00" fill="#000000">source</text>
</g>
<!-- provided by -->
<g id="node8" class="node">
<title>provided by</title>
<ellipse fill="none" stroke="#0000ff" cx="1139.53" cy="-178" rx="37.0935" ry="18"/>
<text text-anchor="middle" x="1139.53" y="-174.3" font-family="Times,serif" font-size="14.00" fill="#000000">agent</text>
</g>
<!-- organism taxon to organism taxon interaction&#45;&gt;provided by -->
<g id="edge7" class="edge">
<title>organism taxon to organism taxon interaction&#45;&gt;provided by</title>
<path fill="none" stroke="#0000ff" d="M1221.2735,-252.1261C1191.0472,-246.8502 1165.166,-239.4294 1153.53,-229 1147.0164,-223.1619 1143.4119,-214.6063 1141.4534,-206.1642"/>
<polygon fill="#0000ff" stroke="#0000ff" points="1144.8765,-205.4105 1139.7958,-196.1133 1137.9697,-206.5496 1144.8765,-205.4105"/>
<text text-anchor="middle" x="1196.03" y="-217.8" font-family="Times,serif" font-size="14.00" fill="#000000">provided by</text>
</g>
<!-- has attribute -->
<g id="node9" class="node">
<title>has attribute</title>
<ellipse fill="none" stroke="#0000ff" cx="1246.53" cy="-178" rx="51.9908" ry="18"/>
<text text-anchor="middle" x="1246.53" y="-174.3" font-family="Times,serif" font-size="14.00" fill="#000000">attribute</text>
</g>
<!-- organism taxon to organism taxon interaction&#45;&gt;has attribute -->
<g id="edge8" class="edge">
<title>organism taxon to organism taxon interaction&#45;&gt;has attribute</title>
<path fill="none" stroke="#0000ff" d="M1288.1458,-248.4838C1269.4232,-243.2264 1253.5399,-236.726 1247.53,-229 1242.6151,-222.6816 1241.0463,-214.4669 1241.0734,-206.4827"/>
<polygon fill="#0000ff" stroke="#0000ff" points="1244.5795,-206.5439 1241.8812,-196.2984 1237.6014,-205.9903 1244.5795,-206.5439"/>
<text text-anchor="middle" x="1294.53" y="-217.8" font-family="Times,serif" font-size="14.00" fill="#000000">has attribute</text>
</g>
<!-- relation -->
<g id="node10" class="node">
<title>relation</title>
<ellipse fill="none" stroke="#0000ff" cx="1983.53" cy="-18" rx="57.6901" ry="18"/>
<text text-anchor="middle" x="1983.53" y="-14.3" font-family="Times,serif" font-size="14.00" fill="#000000">uriorcurie</text>
</g>
<!-- organism taxon to organism taxon interaction&#45;&gt;relation -->
<g id="edge9" class="edge">
<title>organism taxon to organism taxon interaction&#45;&gt;relation</title>
<path fill="none" stroke="#0000ff" d="M1363.5615,-246.7859C1346.9335,-224.2252 1324.9689,-185.6404 1345.53,-160 1416.6752,-71.2791 1767.5292,-34.438 1916.4721,-22.6255"/>
<polygon fill="#0000ff" stroke="#0000ff" points="1917.1424,-26.084 1926.8404,-21.8179 1916.5988,-19.1052 1917.1424,-26.084"/>
<text text-anchor="middle" x="1415.53" y="-130.8" font-family="Times,serif" font-size="14.00" fill="#000000">relation</text>
</g>
<!-- negated -->
<g id="node11" class="node">
<title>negated</title>
<ellipse fill="none" stroke="#0000ff" cx="1401.53" cy="-178" rx="46.5926" ry="18"/>
<text text-anchor="middle" x="1401.53" y="-174.3" font-family="Times,serif" font-size="14.00" fill="#000000">boolean</text>
</g>
<!-- organism taxon to organism taxon interaction&#45;&gt;negated -->
<g id="edge10" class="edge">
<title>organism taxon to organism taxon interaction&#45;&gt;negated</title>
<path fill="none" stroke="#0000ff" d="M1383.2956,-246.9735C1386.4412,-235.0751 1390.6246,-219.2508 1394.191,-205.7606"/>
<polygon fill="#0000ff" stroke="#0000ff" points="1397.5983,-206.5658 1396.7705,-196.0034 1390.8308,-204.7766 1397.5983,-206.5658"/>
<text text-anchor="middle" x="1420.53" y="-217.8" font-family="Times,serif" font-size="14.00" fill="#000000">negated</text>
</g>
<!-- qualifiers -->
<g id="node12" class="node">
<title>qualifiers</title>
<ellipse fill="none" stroke="#0000ff" cx="1543.53" cy="-178" rx="77.1866" ry="18"/>
<text text-anchor="middle" x="1543.53" y="-174.3" font-family="Times,serif" font-size="14.00" fill="#000000">ontology class</text>
</g>
<!-- organism taxon to organism taxon interaction&#45;&gt;qualifiers -->
<g id="edge11" class="edge">
<title>organism taxon to organism taxon interaction&#45;&gt;qualifiers</title>
<path fill="none" stroke="#0000ff" d="M1416.9337,-247.1834C1428.7548,-241.5343 1441.7533,-235.1541 1453.53,-229 1470.9604,-219.8915 1489.9471,-209.2435 1505.969,-200.0397"/>
<polygon fill="#0000ff" stroke="#0000ff" points="1508.116,-202.8417 1515.0258,-194.8101 1504.6156,-196.7797 1508.116,-202.8417"/>
<text text-anchor="middle" x="1515.53" y="-217.8" font-family="Times,serif" font-size="14.00" fill="#000000">qualifiers</text>
</g>
<!-- publications -->
<g id="node13" class="node">
<title>publications</title>
<ellipse fill="none" stroke="#0000ff" cx="1701.53" cy="-178" rx="63.0888" ry="18"/>
<text text-anchor="middle" x="1701.53" y="-174.3" font-family="Times,serif" font-size="14.00" fill="#000000">publication</text>
</g>
<!-- organism taxon to organism taxon interaction&#45;&gt;publications -->
<g id="edge12" class="edge">
<title>organism taxon to organism taxon interaction&#45;&gt;publications</title>
<path fill="none" stroke="#0000ff" d="M1469.8872,-248.5232C1496.983,-243.0143 1526.6055,-236.3753 1553.53,-229 1587.7945,-219.6141 1625.6564,-206.5155 1654.5074,-195.9433"/>
<polygon fill="#0000ff" stroke="#0000ff" points="1655.7601,-199.2119 1663.928,-192.4639 1653.3347,-192.6454 1655.7601,-199.2119"/>
<text text-anchor="middle" x="1643.53" y="-217.8" font-family="Times,serif" font-size="14.00" fill="#000000">publications</text>
</g>
<!-- type -->
<g id="node14" class="node">
<title>type</title>
<ellipse fill="none" stroke="#000000" cx="1813.53" cy="-178" rx="31.3957" ry="18"/>
<text text-anchor="middle" x="1813.53" y="-174.3" font-family="Times,serif" font-size="14.00" fill="#000000">type</text>
</g>
<!-- organism taxon to organism taxon interaction&#45;&gt;type -->
<g id="edge13" class="edge">
<title>organism taxon to organism taxon interaction&#45;&gt;type</title>
<path fill="none" stroke="#0000ff" d="M1551.4192,-253.4866C1597.4034,-248.157 1646.7302,-240.3706 1691.53,-229 1723.1563,-220.973 1757.2713,-206.1383 1781.3627,-194.5296"/>
<polygon fill="#0000ff" stroke="#0000ff" points="1782.9588,-197.6452 1790.3974,-190.1007 1779.8776,-191.3597 1782.9588,-197.6452"/>
<text text-anchor="middle" x="1752.53" y="-217.8" font-family="Times,serif" font-size="14.00" fill="#000000">type</text>
</g>
<!-- category -->
<g id="node16" class="node">
<title>category</title>
<ellipse fill="none" stroke="#000000" cx="1914.53" cy="-178" rx="51.9908" ry="18"/>
<text text-anchor="middle" x="1914.53" y="-174.3" font-family="Times,serif" font-size="14.00" fill="#000000">category</text>
</g>
<!-- organism taxon to organism taxon interaction&#45;&gt;category -->
<g id="edge14" class="edge">
<title>organism taxon to organism taxon interaction&#45;&gt;category</title>
<path fill="none" stroke="#0000ff" d="M1538.282,-252.3268C1637.1171,-244.1487 1749.4353,-234.115 1772.53,-229 1807.1894,-221.3236 1844.9474,-207.4822 1872.8102,-196.1544"/>
<polygon fill="#0000ff" stroke="#0000ff" points="1874.3228,-199.3166 1882.2317,-192.2667 1871.6527,-192.8458 1874.3228,-199.3166"/>
<text text-anchor="middle" x="1856.53" y="-217.8" font-family="Times,serif" font-size="14.00" fill="#000000">category</text>
</g>
<!-- subject -->
<g id="node18" class="node">
<title>subject</title>
<ellipse fill="none" stroke="#000000" cx="2029.53" cy="-178" rx="44.6926" ry="18"/>
<text text-anchor="middle" x="2029.53" y="-174.3" font-family="Times,serif" font-size="14.00" fill="#000000">subject</text>
</g>
<!-- organism taxon to organism taxon interaction&#45;&gt;subject -->
<g id="edge15" class="edge">
<title>organism taxon to organism taxon interaction&#45;&gt;subject</title>
<path fill="none" stroke="#0000ff" d="M1539.0019,-252.3876C1563.624,-250.5301 1588.7533,-248.6787 1612.53,-247 1736.9217,-238.2177 1770.5756,-255.0297 1892.53,-229 1926.7936,-221.6868 1963.9418,-207.4308 1990.9003,-195.8462"/>
<polygon fill="#0000ff" stroke="#0000ff" points="1992.5861,-198.9292 2000.3471,-191.7169 1989.7824,-192.5152 1992.5861,-198.9292"/>
<text text-anchor="middle" x="1970.03" y="-217.8" font-family="Times,serif" font-size="14.00" fill="#000000">subject</text>
</g>
<!-- object -->
<g id="node20" class="node">
<title>object</title>
<ellipse fill="none" stroke="#000000" cx="2051.53" cy="-91" rx="39.7935" ry="18"/>
<text text-anchor="middle" x="2051.53" y="-87.3" font-family="Times,serif" font-size="14.00" fill="#000000">object</text>
</g>
<!-- organism taxon to organism taxon interaction&#45;&gt;object -->
<g id="edge16" class="edge">
<title>organism taxon to organism taxon interaction&#45;&gt;object</title>
<path fill="none" stroke="#0000ff" d="M1536.453,-252.1943C1561.882,-250.3218 1587.926,-248.5167 1612.53,-247 1698.6814,-241.6894 1916.1546,-247.1952 2000.53,-229 2039.3356,-220.6318 2057.5243,-225.9934 2083.53,-196 2103.973,-172.4222 2110.0482,-155.1263 2096.53,-127 2093.7427,-121.2007 2089.5158,-116.0431 2084.7486,-111.5709"/>
<polygon fill="#0000ff" stroke="#0000ff" points="2086.8781,-108.7902 2076.9416,-105.1136 2082.4165,-114.1842 2086.8781,-108.7902"/>
<text text-anchor="middle" x="2126.03" y="-174.3" font-family="Times,serif" font-size="14.00" fill="#000000">object</text>
</g>
<!-- predicate -->
<g id="node22" class="node">
<title>predicate</title>
<ellipse fill="none" stroke="#000000" cx="2228.53" cy="-178" rx="55.4913" ry="18"/>
<text text-anchor="middle" x="2228.53" y="-174.3" font-family="Times,serif" font-size="14.00" fill="#000000">predicate</text>
</g>
<!-- organism taxon to organism taxon interaction&#45;&gt;predicate -->
<g id="edge17" class="edge">
<title>organism taxon to organism taxon interaction&#45;&gt;predicate</title>
<path fill="none" stroke="#0000ff" d="M1534.8633,-252.0672C1560.7927,-250.1827 1587.4093,-248.4071 1612.53,-247 1726.1999,-240.6327 2014.0965,-256.6735 2124.53,-229 2149.1159,-222.839 2174.702,-210.3823 2194.3438,-199.3225"/>
<polygon fill="#0000ff" stroke="#0000ff" points="2196.2944,-202.2378 2203.2011,-194.2036 2192.7917,-196.1771 2196.2944,-202.2378"/>
<text text-anchor="middle" x="2198.03" y="-217.8" font-family="Times,serif" font-size="14.00" fill="#000000">predicate</text>
</g>
<!-- associated environmental context -->
<g id="node24" class="node">
<title>associated environmental context</title>
<ellipse fill="none" stroke="#000000" cx="2470.53" cy="-178" rx="168.1703" ry="18"/>
<text text-anchor="middle" x="2470.53" y="-174.3" font-family="Times,serif" font-size="14.00" fill="#000000">associated environmental context</text>
</g>
<!-- organism taxon to organism taxon interaction&#45;&gt;associated environmental context -->
<g id="edge18" class="edge">
<title>organism taxon to organism taxon interaction&#45;&gt;associated environmental context</title>
<path fill="none" stroke="#0000ff" d="M1533.9113,-251.9985C1560.1393,-250.1048 1587.0998,-248.3441 1612.53,-247 1889.592,-232.3561 1961.1339,-262.6865 2236.53,-229 2291.5132,-222.2744 2352.642,-208.7369 2398.6292,-197.2988"/>
<polygon fill="#0000ff" stroke="#0000ff" points="2399.6538,-200.6502 2408.4991,-194.8184 2397.9476,-193.8613 2399.6538,-200.6502"/>
<text text-anchor="middle" x="2443.03" y="-217.8" font-family="Times,serif" font-size="14.00" fill="#000000">associated environmental context</text>
</g>
<!-- association_type -->
<g id="node15" class="node">
<title>association_type</title>
<ellipse fill="none" stroke="#0000ff" cx="1659.53" cy="-265" rx="38.1938" ry="18"/>
<text text-anchor="middle" x="1659.53" y="-261.3" font-family="Times,serif" font-size="14.00" fill="#000000">string</text>
</g>
<!-- association_category -->
<g id="node17" class="node">
<title>association_category</title>
<ellipse fill="none" stroke="#0000ff" cx="1791.53" cy="-265" rx="75.2868" ry="18"/>
<text text-anchor="middle" x="1791.53" y="-261.3" font-family="Times,serif" font-size="14.00" fill="#000000">category type</text>
</g>
<!-- subject&#45;&gt;relation -->
<g id="edge20" class="edge">
<title>subject&#45;&gt;relation</title>
<path fill="none" stroke="#000000" stroke-dasharray="1,5" d="M2021.5836,-160.1293C2015.6986,-146.3661 2007.8164,-126.7533 2002.53,-109 1996.331,-88.1821 1991.3986,-64.1019 1988.1143,-45.9434"/>
<polygon fill="#000000" stroke="#000000" points="1991.5466,-45.252 1986.3739,-36.0057 1984.6515,-46.4595 1991.5466,-45.252"/>
</g>
<!-- subject&#45;&gt;object -->
<g id="edge19" class="edge">
<title>subject&#45;&gt;object</title>
<path fill="none" stroke="#000000" d="M2033.0324,-159.975C2035.0332,-150.1752 2037.7024,-137.8699 2040.53,-127 2041.2308,-124.306 2042.0029,-121.512 2042.8031,-118.7256"/>
<polygon fill="#000000" stroke="#000000" points="2046.2412,-119.4442 2045.7481,-108.8608 2039.5337,-117.4417 2046.2412,-119.4442"/>
<text text-anchor="middle" x="2068.53" y="-130.8" font-family="Times,serif" font-size="14.00" fill="#000000">relation</text>
</g>
<!-- organism taxon to organism taxon interaction_subject -->
<g id="node19" class="node">
<title>organism taxon to organism taxon interaction_subject</title>
<ellipse fill="none" stroke="#0000ff" cx="1968.53" cy="-265" rx="83.3857" ry="18"/>
<text text-anchor="middle" x="1968.53" y="-261.3" font-family="Times,serif" font-size="14.00" fill="#000000">organism taxon</text>
</g>
<!-- object&#45;&gt;relation -->
<g id="edge21" class="edge">
<title>object&#45;&gt;relation</title>
<path fill="none" stroke="#000000" stroke-dasharray="1,5" d="M2035.7585,-74.0688C2027.1294,-64.8053 2016.2763,-53.1542 2006.7022,-42.8761"/>
<polygon fill="#000000" stroke="#000000" points="2009.0652,-40.2779 1999.6881,-35.3463 2003.9432,-45.0491 2009.0652,-40.2779"/>
</g>
<!-- organism taxon to organism taxon interaction_object -->
<g id="node21" class="node">
<title>organism taxon to organism taxon interaction_object</title>
<ellipse fill="none" stroke="#0000ff" cx="2152.53" cy="-265" rx="83.3857" ry="18"/>
<text text-anchor="middle" x="2152.53" y="-261.3" font-family="Times,serif" font-size="14.00" fill="#000000">organism taxon</text>
</g>
<!-- organism taxon to organism taxon interaction_predicate -->
<g id="node23" class="node">
<title>organism taxon to organism taxon interaction_predicate</title>
<ellipse fill="none" stroke="#0000ff" cx="2332.53" cy="-265" rx="78.7863" ry="18"/>
<text text-anchor="middle" x="2332.53" y="-261.3" font-family="Times,serif" font-size="14.00" fill="#000000">predicate type</text>
</g>
<!-- organism taxon to organism taxon interaction_associated environmental context -->
<g id="node25" class="node">
<title>organism taxon to organism taxon interaction_associated environmental context</title>
<ellipse fill="none" stroke="#0000ff" cx="2467.53" cy="-265" rx="38.1938" ry="18"/>
<text text-anchor="middle" x="2467.53" y="-261.3" font-family="Times,serif" font-size="14.00" fill="#000000">string</text>
</g>
</g>
</svg>
