<?xml version="1.0" encoding="UTF-8" standalone="no"?>
<!DOCTYPE svg PUBLIC "-//W3C//DTD SVG 1.1//EN"
 "http://www.w3.org/Graphics/SVG/1.1/DTD/svg11.dtd">
<!-- Generated by graphviz version 2.40.1 (20161225.0304)
 -->
<!-- Title: %3 Pages: 1 -->
<svg width="1411pt" height="291pt"
 viewBox="0.00 0.00 1410.79 291.00" xmlns="http://www.w3.org/2000/svg" xmlns:xlink="http://www.w3.org/1999/xlink">
<g id="graph0" class="graph" transform="scale(1 1) rotate(0) translate(4 287)">
<title>%3</title>
<polygon fill="#ffffff" stroke="transparent" points="-4,4 -4,-287 1406.7901,-287 1406.7901,4 -4,4"/>
<!-- pairwise interaction association -->
<g id="node1" class="node">
<title>pairwise interaction association</title>
<ellipse fill="none" stroke="#000000" cx="640.0456" cy="-265" rx="122.3786" ry="18"/>
<text text-anchor="middle" x="640.0456" y="-261.3" font-family="Times,serif" font-size="14.00" fill="#000000">pairwise interaction association</text>
</g>
<!-- association -->
<g id="node2" class="node">
<title>association</title>
<ellipse fill="none" stroke="#000000" cx="50.0456" cy="-178" rx="50.0912" ry="18"/>
<text text-anchor="middle" x="50.0456" y="-174.3" font-family="Times,serif" font-size="14.00" fill="#000000">association</text>
</g>
<!-- pairwise interaction association&#45;&gt;association -->
<g id="edge1" class="edge">
<title>pairwise interaction association&#45;&gt;association</title>
<path fill="none" stroke="#000000" d="M520.4349,-261.1058C436.1485,-256.8115 320.9576,-247.8135 221.0456,-229 177.4032,-220.7821 129.0189,-205.7763 94.8875,-194.1613"/>
<polygon fill="#000000" stroke="#000000" points="95.8096,-190.7771 85.2149,-190.8305 93.5305,-197.3957 95.8096,-190.7771"/>
<text text-anchor="middle" x="232.0456" y="-217.8" font-family="Times,serif" font-size="14.00" fill="#000000">is_a</text>
</g>
<!-- negated -->
<g id="node3" class="node">
<title>negated</title>
<ellipse fill="none" stroke="#0000ff" cx="156.0456" cy="-178" rx="38.1938" ry="18"/>
<text text-anchor="middle" x="156.0456" y="-174.3" font-family="Times,serif" font-size="14.00" fill="#000000">boolean</text>
</g>
<!-- pairwise interaction association&#45;&gt;negated -->
<g id="edge2" class="edge">
<title>pairwise interaction association&#45;&gt;negated</title>
<path fill="none" stroke="#0000ff" d="M523.8069,-259.4001C457.1286,-254.5417 372.1931,-245.5499 298.0456,-229 261.5693,-220.8584 221.6437,-205.9503 193.4439,-194.347"/>
<polygon fill="#0000ff" stroke="#0000ff" points="194.5597,-191.0201 183.9832,-190.3971 191.8628,-197.4797 194.5597,-191.0201"/>
<text text-anchor="middle" x="319.5456" y="-217.8" font-family="Times,serif" font-size="14.00" fill="#000000">negated</text>
</g>
<!-- association type -->
<g id="node4" class="node">
<title>association type</title>
<ellipse fill="none" stroke="#0000ff" cx="274.0456" cy="-178" rx="61.99" ry="18"/>
<text text-anchor="middle" x="274.0456" y="-174.3" font-family="Times,serif" font-size="14.00" fill="#000000">ontology class</text>
</g>
<!-- pairwise interaction association&#45;&gt;association type -->
<g id="edge3" class="edge">
<title>pairwise interaction association&#45;&gt;association type</title>
<path fill="none" stroke="#0000ff" d="M529.7634,-257.1937C483.1749,-251.974 428.7683,-243.3163 381.0456,-229 356.6027,-221.6674 330.7329,-209.4716 310.5541,-198.8447"/>
<polygon fill="#0000ff" stroke="#0000ff" points="312.1749,-195.7424 301.7088,-194.0956 308.8636,-201.9097 312.1749,-195.7424"/>
<text text-anchor="middle" x="425.0456" y="-217.8" font-family="Times,serif" font-size="14.00" fill="#000000">association type</text>
</g>
<!-- qualifiers -->
<g id="node5" class="node">
<title>qualifiers</title>
<ellipse fill="none" stroke="#0000ff" cx="415.0456" cy="-178" rx="61.99" ry="18"/>
<text text-anchor="middle" x="415.0456" y="-174.3" font-family="Times,serif" font-size="14.00" fill="#000000">ontology class</text>
</g>
<!-- pairwise interaction association&#45;&gt;qualifiers -->
<g id="edge4" class="edge">
<title>pairwise interaction association&#45;&gt;qualifiers</title>
<path fill="none" stroke="#0000ff" d="M569.1614,-250.2253C547.5383,-244.6999 523.9619,-237.6248 503.0456,-229 484.0375,-221.1621 464.1156,-209.9035 448.0433,-199.9574"/>
<polygon fill="#0000ff" stroke="#0000ff" points="449.8665,-196.9693 439.5406,-194.5969 446.1332,-202.8907 449.8665,-196.9693"/>
<text text-anchor="middle" x="529.0456" y="-217.8" font-family="Times,serif" font-size="14.00" fill="#000000">qualifiers</text>
</g>
<!-- publications -->
<g id="node6" class="node">
<title>publications</title>
<ellipse fill="none" stroke="#0000ff" cx="545.0456" cy="-178" rx="50.0912" ry="18"/>
<text text-anchor="middle" x="545.0456" y="-174.3" font-family="Times,serif" font-size="14.00" fill="#000000">publication</text>
</g>
<!-- pairwise interaction association&#45;&gt;publications -->
<g id="edge5" class="edge">
<title>pairwise interaction association&#45;&gt;publications</title>
<path fill="none" stroke="#0000ff" d="M595.6945,-248.2066C586.0798,-243.0969 576.5551,-236.7338 569.0456,-229 562.676,-222.4402 557.7589,-213.8749 554.0825,-205.6418"/>
<polygon fill="#0000ff" stroke="#0000ff" points="557.2947,-204.2483 550.3239,-196.2697 550.7977,-206.8539 557.2947,-204.2483"/>
<text text-anchor="middle" x="602.5456" y="-217.8" font-family="Times,serif" font-size="14.00" fill="#000000">publications</text>
</g>
<!-- provided by -->
<g id="node7" class="node">
<title>provided by</title>
<ellipse fill="none" stroke="#0000ff" cx="653.0456" cy="-178" rx="40.0939" ry="18"/>
<text text-anchor="middle" x="653.0456" y="-174.3" font-family="Times,serif" font-size="14.00" fill="#000000">provider</text>
</g>
<!-- pairwise interaction association&#45;&gt;provided by -->
<g id="edge6" class="edge">
<title>pairwise interaction association&#45;&gt;provided by</title>
<path fill="none" stroke="#0000ff" d="M639.0813,-246.9366C638.8875,-237.1255 639.1804,-224.8217 641.0456,-214 641.512,-211.2935 642.1448,-208.5138 642.8773,-205.7566"/>
<polygon fill="#0000ff" stroke="#0000ff" points="646.2714,-206.626 645.8485,-196.0396 639.5773,-204.5791 646.2714,-206.626"/>
<text text-anchor="middle" x="674.0456" y="-217.8" font-family="Times,serif" font-size="14.00" fill="#000000">provided by</text>
</g>
<!-- subject -->
<g id="node8" class="node">
<title>subject</title>
<ellipse fill="none" stroke="#000000" cx="857.0456" cy="-178" rx="35.9954" ry="18"/>
<text text-anchor="middle" x="857.0456" y="-174.3" font-family="Times,serif" font-size="14.00" fill="#000000">subject</text>
</g>
<!-- pairwise interaction association&#45;&gt;subject -->
<g id="edge7" class="edge">
<title>pairwise interaction association&#45;&gt;subject</title>
<path fill="none" stroke="#0000ff" d="M704.4858,-249.693C724.5439,-244.1081 746.5134,-237.1331 766.0456,-229 786.7824,-220.3652 808.7865,-208.1259 825.9621,-197.8017"/>
<polygon fill="#0000ff" stroke="#0000ff" points="828.2606,-200.4989 834.9687,-192.2981 824.6107,-194.5258 828.2606,-200.4989"/>
<text text-anchor="middle" x="817.5456" y="-217.8" font-family="Times,serif" font-size="14.00" fill="#000000">subject</text>
</g>
<!-- id -->
<g id="node10" class="node">
<title>id</title>
<ellipse fill="none" stroke="#000000" cx="776.0456" cy="-178" rx="27" ry="18"/>
<text text-anchor="middle" x="776.0456" y="-174.3" font-family="Times,serif" font-size="14.00" fill="#000000">id</text>
</g>
<!-- pairwise interaction association&#45;&gt;id -->
<g id="edge8" class="edge">
<title>pairwise interaction association&#45;&gt;id</title>
<path fill="none" stroke="#0000ff" d="M697.3179,-248.9085C710.4066,-243.7477 723.7699,-237.1858 735.0456,-229 744.5205,-222.1214 753.0116,-212.5154 759.7754,-203.4928"/>
<polygon fill="#0000ff" stroke="#0000ff" points="762.7768,-205.3109 765.7067,-195.1292 757.0669,-201.2615 762.7768,-205.3109"/>
<text text-anchor="middle" x="756.5456" y="-217.8" font-family="Times,serif" font-size="14.00" fill="#000000">id</text>
</g>
<!-- relation -->
<g id="node12" class="node">
<title>relation</title>
<ellipse fill="none" stroke="#000000" cx="817.0456" cy="-18" rx="37.8943" ry="18"/>
<text text-anchor="middle" x="817.0456" y="-14.3" font-family="Times,serif" font-size="14.00" fill="#000000">relation</text>
</g>
<!-- pairwise interaction association&#45;&gt;relation -->
<g id="edge9" class="edge">
<title>pairwise interaction association&#45;&gt;relation</title>
<path fill="none" stroke="#0000ff" d="M681.5148,-247.993C690.7073,-242.865 699.8444,-236.5474 707.0456,-229 730.5118,-204.4055 724.6052,-190.2845 740.0456,-160 760.7597,-119.3715 786.2278,-73.0611 802.0519,-44.6813"/>
<polygon fill="#0000ff" stroke="#0000ff" points="805.2042,-46.2151 807.0278,-35.7784 799.0938,-42.7999 805.2042,-46.2151"/>
<text text-anchor="middle" x="778.0456" y="-130.8" font-family="Times,serif" font-size="14.00" fill="#000000">relation</text>
</g>
<!-- object -->
<g id="node14" class="node">
<title>object</title>
<ellipse fill="none" stroke="#000000" cx="877.0456" cy="-91" rx="32.4942" ry="18"/>
<text text-anchor="middle" x="877.0456" y="-87.3" font-family="Times,serif" font-size="14.00" fill="#000000">object</text>
</g>
<!-- pairwise interaction association&#45;&gt;object -->
<g id="edge10" class="edge">
<title>pairwise interaction association&#45;&gt;object</title>
<path fill="none" stroke="#0000ff" d="M726.592,-252.2841C770.943,-245.2119 819.9644,-236.3757 841.0456,-229 870.1403,-218.8206 883.2548,-220.4342 902.0456,-196 921.0693,-171.2629 927.3761,-155.6668 915.0456,-127 912.7564,-121.678 909.2509,-116.7742 905.2768,-112.4103"/>
<polygon fill="#0000ff" stroke="#0000ff" points="907.402,-109.5968 897.7787,-105.1646 902.5377,-114.6306 907.402,-109.5968"/>
<text text-anchor="middle" x="938.0456" y="-174.3" font-family="Times,serif" font-size="14.00" fill="#000000">object</text>
</g>
<!-- interacting molecules category -->
<g id="node16" class="node">
<title>interacting molecules category</title>
<ellipse fill="none" stroke="#000000" cx="1101.0456" cy="-178" rx="119.6788" ry="18"/>
<text text-anchor="middle" x="1101.0456" y="-174.3" font-family="Times,serif" font-size="14.00" fill="#000000">interacting molecules category</text>
</g>
<!-- pairwise interaction association&#45;&gt;interacting molecules category -->
<g id="edge11" class="edge">
<title>pairwise interaction association&#45;&gt;interacting molecules category</title>
<path fill="none" stroke="#0000ff" d="M728.0776,-252.5069C742.4285,-250.5846 757.1433,-248.6821 771.0456,-247 847.3509,-237.7674 867.8443,-244.891 943.0456,-229 978.6718,-221.4717 1017.6121,-208.9543 1047.9201,-198.2049"/>
<polygon fill="#0000ff" stroke="#0000ff" points="1049.2133,-201.4594 1057.442,-194.7855 1046.8475,-194.8713 1049.2133,-201.4594"/>
<text text-anchor="middle" x="1079.0456" y="-217.8" font-family="Times,serif" font-size="14.00" fill="#000000">interacting molecules category</text>
</g>
<!-- subject&#45;&gt;relation -->
<g id="edge13" class="edge">
<title>subject&#45;&gt;relation</title>
<path fill="none" stroke="#000000" stroke-dasharray="1,5" d="M851.072,-159.9654C846.6032,-146.1164 840.5177,-126.4678 836.0456,-109 830.6917,-88.0882 825.7459,-64.1877 822.2431,-46.1297"/>
<polygon fill="#000000" stroke="#000000" points="825.6682,-45.4058 820.3553,-36.2393 818.7923,-46.7182 825.6682,-45.4058"/>
</g>
<!-- subject&#45;&gt;object -->
<g id="edge12" class="edge">
<title>subject&#45;&gt;object</title>
<path fill="none" stroke="#000000" d="M861.1896,-159.9735C863.9248,-148.0751 867.5626,-132.2508 870.6638,-118.7606"/>
<polygon fill="#000000" stroke="#000000" points="874.0774,-119.5333 872.9069,-109.0034 867.2553,-117.965 874.0774,-119.5333"/>
<text text-anchor="middle" x="890.0456" y="-130.8" font-family="Times,serif" font-size="14.00" fill="#000000">relation</text>
</g>
<!-- pairwise interaction association_subject -->
<g id="node9" class="node">
<title>pairwise interaction association_subject</title>
<ellipse fill="none" stroke="#0000ff" cx="849.0456" cy="-265" rx="68.7879" ry="18"/>
<text text-anchor="middle" x="849.0456" y="-261.3" font-family="Times,serif" font-size="14.00" fill="#000000">molecular entity</text>
</g>
<!-- pairwise interaction association_id -->
<g id="node11" class="node">
<title>pairwise interaction association_id</title>
<ellipse fill="none" stroke="#0000ff" cx="966.0456" cy="-265" rx="30.5947" ry="18"/>
<text text-anchor="middle" x="966.0456" y="-261.3" font-family="Times,serif" font-size="14.00" fill="#000000">string</text>
</g>
<!-- pairwise interaction association_relation -->
<g id="node13" class="node">
<title>pairwise interaction association_relation</title>
<ellipse fill="none" stroke="#0000ff" cx="1060.0456" cy="-265" rx="45.4919" ry="18"/>
<text text-anchor="middle" x="1060.0456" y="-261.3" font-family="Times,serif" font-size="14.00" fill="#000000">uriorcurie</text>
</g>
<!-- object&#45;&gt;relation -->
<g id="edge14" class="edge">
<title>object&#45;&gt;relation</title>
<path fill="none" stroke="#000000" stroke-dasharray="1,5" d="M863.4306,-74.4352C855.7917,-65.1411 846.1081,-53.3595 837.567,-42.9678"/>
<polygon fill="#000000" stroke="#000000" points="840.0766,-40.5089 831.023,-35.0059 834.6688,-44.9537 840.0766,-40.5089"/>
</g>
<!-- pairwise interaction association_object -->
<g id="node15" class="node">
<title>pairwise interaction association_object</title>
<ellipse fill="none" stroke="#0000ff" cx="1192.0456" cy="-265" rx="68.7879" ry="18"/>
<text text-anchor="middle" x="1192.0456" y="-261.3" font-family="Times,serif" font-size="14.00" fill="#000000">molecular entity</text>
</g>
<!-- pairwise interaction association_interacting molecules category -->
<g id="node17" class="node">
<title>pairwise interaction association_interacting molecules category</title>
<ellipse fill="none" stroke="#0000ff" cx="1341.0456" cy="-265" rx="61.99" ry="18"/>
<text text-anchor="middle" x="1341.0456" y="-261.3" font-family="Times,serif" font-size="14.00" fill="#000000">ontology class</text>
</g>
</g>
</svg>
