<?xml version="1.0" encoding="UTF-8" standalone="no"?>
<!DOCTYPE svg PUBLIC "-//W3C//DTD SVG 1.1//EN"
 "http://www.w3.org/Graphics/SVG/1.1/DTD/svg11.dtd">
<!-- Generated by graphviz version 2.40.1 (20161225.0304)
 -->
<!-- Title: %3 Pages: 1 -->
<svg width="1486pt" height="291pt"
 viewBox="0.00 0.00 1485.79 291.00" xmlns="http://www.w3.org/2000/svg" xmlns:xlink="http://www.w3.org/1999/xlink">
<g id="graph0" class="graph" transform="scale(1 1) rotate(0) translate(4 287)">
<title>%3</title>
<polygon fill="#ffffff" stroke="transparent" points="-4,4 -4,-287 1481.7901,-287 1481.7901,4 -4,4"/>
<!-- pairwise interaction association -->
<g id="node1" class="node">
<title>pairwise interaction association</title>
<ellipse fill="none" stroke="#000000" cx="715.0456" cy="-265" rx="122.3786" ry="18"/>
<text text-anchor="middle" x="715.0456" y="-261.3" font-family="Times,serif" font-size="14.00" fill="#000000">pairwise interaction association</text>
</g>
<!-- association -->
<g id="node2" class="node">
<title>association</title>
<ellipse fill="none" stroke="#000000" cx="50.0456" cy="-178" rx="50.0912" ry="18"/>
<text text-anchor="middle" x="50.0456" y="-174.3" font-family="Times,serif" font-size="14.00" fill="#000000">association</text>
</g>
<!-- pairwise interaction association&#45;&gt;association -->
<g id="edge1" class="edge">
<title>pairwise interaction association&#45;&gt;association</title>
<path fill="none" stroke="#000000" d="M595.1044,-261.3246C499.3202,-257.0761 361.9281,-248.0381 243.0456,-229 192.4693,-220.9006 135.9643,-205.155 97.2328,-193.2913"/>
<polygon fill="#000000" stroke="#000000" points="97.88,-189.8278 87.2922,-190.212 95.8087,-196.5143 97.88,-189.8278"/>
<text text-anchor="middle" x="254.0456" y="-217.8" font-family="Times,serif" font-size="14.00" fill="#000000">is_a</text>
</g>
<!-- association type -->
<g id="node3" class="node">
<title>association type</title>
<ellipse fill="none" stroke="#0000ff" cx="180.0456" cy="-178" rx="61.99" ry="18"/>
<text text-anchor="middle" x="180.0456" y="-174.3" font-family="Times,serif" font-size="14.00" fill="#000000">ontology class</text>
</g>
<!-- pairwise interaction association&#45;&gt;association type -->
<g id="edge2" class="edge">
<title>pairwise interaction association&#45;&gt;association type</title>
<path fill="none" stroke="#0000ff" d="M602.1924,-258.0268C504.5389,-251.3885 371.0751,-240.6981 319.0456,-229 285.9884,-221.5676 250.1221,-208.2681 223.1034,-197.1139"/>
<polygon fill="#0000ff" stroke="#0000ff" points="224.1466,-193.756 213.5711,-193.1163 221.4394,-200.2114 224.1466,-193.756"/>
<text text-anchor="middle" x="363.0456" y="-217.8" font-family="Times,serif" font-size="14.00" fill="#000000">association type</text>
</g>
<!-- predicate -->
<g id="node4" class="node">
<title>predicate</title>
<ellipse fill="none" stroke="#0000ff" cx="320.0456" cy="-178" rx="60.3893" ry="18"/>
<text text-anchor="middle" x="320.0456" y="-174.3" font-family="Times,serif" font-size="14.00" fill="#000000">predicate type</text>
</g>
<!-- pairwise interaction association&#45;&gt;predicate -->
<g id="edge3" class="edge">
<title>pairwise interaction association&#45;&gt;predicate</title>
<path fill="none" stroke="#0000ff" d="M610.0603,-255.7318C562.5585,-250.1816 505.9898,-241.6699 456.0456,-229 424.1539,-220.9097 389.4425,-207.818 363.0702,-196.9248"/>
<polygon fill="#0000ff" stroke="#0000ff" points="364.3279,-193.6571 353.752,-193.0243 361.625,-200.1142 364.3279,-193.6571"/>
<text text-anchor="middle" x="481.0456" y="-217.8" font-family="Times,serif" font-size="14.00" fill="#000000">predicate</text>
</g>
<!-- negated -->
<g id="node5" class="node">
<title>negated</title>
<ellipse fill="none" stroke="#0000ff" cx="437.0456" cy="-178" rx="38.1938" ry="18"/>
<text text-anchor="middle" x="437.0456" y="-174.3" font-family="Times,serif" font-size="14.00" fill="#000000">boolean</text>
</g>
<!-- pairwise interaction association&#45;&gt;negated -->
<g id="edge4" class="edge">
<title>pairwise interaction association&#45;&gt;negated</title>
<path fill="none" stroke="#0000ff" d="M633.6613,-251.5619C605.5348,-245.8964 574.059,-238.4003 546.0456,-229 520.1647,-220.3154 492.3073,-207.2099 471.2333,-196.4588"/>
<polygon fill="#0000ff" stroke="#0000ff" points="472.8415,-193.3502 462.3516,-191.8626 469.6243,-199.5671 472.8415,-193.3502"/>
<text text-anchor="middle" x="567.5456" y="-217.8" font-family="Times,serif" font-size="14.00" fill="#000000">negated</text>
</g>
<!-- qualifiers -->
<g id="node6" class="node">
<title>qualifiers</title>
<ellipse fill="none" stroke="#0000ff" cx="555.0456" cy="-178" rx="61.99" ry="18"/>
<text text-anchor="middle" x="555.0456" y="-174.3" font-family="Times,serif" font-size="14.00" fill="#000000">ontology class</text>
</g>
<!-- pairwise interaction association&#45;&gt;qualifiers -->
<g id="edge5" class="edge">
<title>pairwise interaction association&#45;&gt;qualifiers</title>
<path fill="none" stroke="#0000ff" d="M657.7448,-249.0773C642.6863,-243.7541 626.8155,-237.0732 613.0456,-229 600.8151,-221.8294 588.7935,-211.882 578.8945,-202.6748"/>
<polygon fill="#0000ff" stroke="#0000ff" points="581.0824,-199.9231 571.4473,-195.5167 576.2315,-204.9699 581.0824,-199.9231"/>
<text text-anchor="middle" x="639.0456" y="-217.8" font-family="Times,serif" font-size="14.00" fill="#000000">qualifiers</text>
</g>
<!-- publications -->
<g id="node7" class="node">
<title>publications</title>
<ellipse fill="none" stroke="#0000ff" cx="685.0456" cy="-178" rx="50.0912" ry="18"/>
<text text-anchor="middle" x="685.0456" y="-174.3" font-family="Times,serif" font-size="14.00" fill="#000000">publication</text>
</g>
<!-- pairwise interaction association&#45;&gt;publications -->
<g id="edge6" class="edge">
<title>pairwise interaction association&#45;&gt;publications</title>
<path fill="none" stroke="#0000ff" d="M686.0452,-247.4673C679.9917,-242.3267 674.4268,-236.1353 671.0456,-229 667.5622,-221.6492 668.1664,-213.2782 670.4464,-205.4735"/>
<polygon fill="#0000ff" stroke="#0000ff" points="673.7622,-206.6007 674.0489,-196.0098 667.2202,-204.1104 673.7622,-206.6007"/>
<text text-anchor="middle" x="704.5456" y="-217.8" font-family="Times,serif" font-size="14.00" fill="#000000">publications</text>
</g>
<!-- provided by -->
<g id="node8" class="node">
<title>provided by</title>
<ellipse fill="none" stroke="#0000ff" cx="783.0456" cy="-178" rx="29.795" ry="18"/>
<text text-anchor="middle" x="783.0456" y="-174.3" font-family="Times,serif" font-size="14.00" fill="#000000">agent</text>
</g>
<!-- pairwise interaction association&#45;&gt;provided by -->
<g id="edge7" class="edge">
<title>pairwise interaction association&#45;&gt;provided by</title>
<path fill="none" stroke="#0000ff" d="M729.1352,-246.9735C739.2162,-234.0758 752.9028,-216.565 763.9628,-202.4148"/>
<polygon fill="#0000ff" stroke="#0000ff" points="766.7234,-204.5662 770.124,-194.532 761.2082,-200.2555 766.7234,-204.5662"/>
<text text-anchor="middle" x="787.0456" y="-217.8" font-family="Times,serif" font-size="14.00" fill="#000000">provided by</text>
</g>
<!-- subject -->
<g id="node9" class="node">
<title>subject</title>
<ellipse fill="none" stroke="#000000" cx="905.0456" cy="-178" rx="35.9954" ry="18"/>
<text text-anchor="middle" x="905.0456" y="-174.3" font-family="Times,serif" font-size="14.00" fill="#000000">subject</text>
</g>
<!-- pairwise interaction association&#45;&gt;subject -->
<g id="edge8" class="edge">
<title>pairwise interaction association&#45;&gt;subject</title>
<path fill="none" stroke="#0000ff" d="M797.5525,-251.6798C817.2123,-246.407 837.5486,-239.0994 855.0456,-229 866.6235,-222.3171 877.3176,-212.2177 885.8188,-202.7647"/>
<polygon fill="#0000ff" stroke="#0000ff" points="888.5668,-204.9367 892.4153,-195.0655 883.251,-200.3822 888.5668,-204.9367"/>
<text text-anchor="middle" x="893.5456" y="-217.8" font-family="Times,serif" font-size="14.00" fill="#000000">subject</text>
</g>
<!-- id -->
<g id="node11" class="node">
<title>id</title>
<ellipse fill="none" stroke="#000000" cx="1067.0456" cy="-178" rx="27" ry="18"/>
<text text-anchor="middle" x="1067.0456" y="-174.3" font-family="Times,serif" font-size="14.00" fill="#000000">id</text>
</g>
<!-- pairwise interaction association&#45;&gt;id -->
<g id="edge9" class="edge">
<title>pairwise interaction association&#45;&gt;id</title>
<path fill="none" stroke="#0000ff" d="M803.7994,-252.5399C817.9244,-250.6333 832.3802,-248.727 846.0456,-247 915.2881,-238.2492 937.4953,-255.54 1002.0456,-229 1017.9981,-222.4411 1033.3058,-210.7912 1045.0546,-200.2802"/>
<polygon fill="#0000ff" stroke="#0000ff" points="1047.6555,-202.6406 1052.584,-193.2619 1042.8825,-197.5201 1047.6555,-202.6406"/>
<text text-anchor="middle" x="1033.5456" y="-217.8" font-family="Times,serif" font-size="14.00" fill="#000000">id</text>
</g>
<!-- relation -->
<g id="node13" class="node">
<title>relation</title>
<ellipse fill="none" stroke="#000000" cx="898.0456" cy="-18" rx="37.8943" ry="18"/>
<text text-anchor="middle" x="898.0456" y="-14.3" font-family="Times,serif" font-size="14.00" fill="#000000">relation</text>
</g>
<!-- pairwise interaction association&#45;&gt;relation -->
<g id="edge10" class="edge">
<title>pairwise interaction association&#45;&gt;relation</title>
<path fill="none" stroke="#0000ff" d="M777.8503,-249.5057C797.937,-243.4585 816.8455,-236.2441 824.0456,-229 857.6341,-195.2061 841.3205,-171.9772 857.0456,-127 866.8246,-99.0297 878.8441,-67.3614 887.3339,-45.3959"/>
<polygon fill="#0000ff" stroke="#0000ff" points="890.6117,-46.6235 890.9655,-36.0346 884.0856,-44.0917 890.6117,-46.6235"/>
<text text-anchor="middle" x="878.0456" y="-130.8" font-family="Times,serif" font-size="14.00" fill="#000000">relation</text>
</g>
<!-- object -->
<g id="node15" class="node">
<title>object</title>
<ellipse fill="none" stroke="#000000" cx="958.0456" cy="-91" rx="32.4942" ry="18"/>
<text text-anchor="middle" x="958.0456" y="-87.3" font-family="Times,serif" font-size="14.00" fill="#000000">object</text>
</g>
<!-- pairwise interaction association&#45;&gt;object -->
<g id="edge11" class="edge">
<title>pairwise interaction association&#45;&gt;object</title>
<path fill="none" stroke="#0000ff" d="M800.9037,-252.1581C851.0008,-244.2323 906.4064,-234.5508 917.0456,-229 958.0294,-207.6174 964.4493,-187.2195 974.0456,-142 975.7522,-133.9579 974.3614,-125.3741 971.8126,-117.5866"/>
<polygon fill="#0000ff" stroke="#0000ff" points="975.0499,-116.2554 968.1108,-108.2492 968.5426,-118.8352 975.0499,-116.2554"/>
<text text-anchor="middle" x="987.0456" y="-174.3" font-family="Times,serif" font-size="14.00" fill="#000000">object</text>
</g>
<!-- interacting molecules category -->
<g id="node17" class="node">
<title>interacting molecules category</title>
<ellipse fill="none" stroke="#000000" cx="1232.0456" cy="-178" rx="119.6788" ry="18"/>
<text text-anchor="middle" x="1232.0456" y="-174.3" font-family="Times,serif" font-size="14.00" fill="#000000">interacting molecules category</text>
</g>
<!-- pairwise interaction association&#45;&gt;interacting molecules category -->
<g id="edge12" class="edge">
<title>pairwise interaction association&#45;&gt;interacting molecules category</title>
<path fill="none" stroke="#0000ff" d="M802.706,-252.3945C817.1707,-250.4757 832.0185,-248.6037 846.0456,-247 933.3968,-237.0133 956.5042,-244.5102 1043.0456,-229 1086.3137,-221.2453 1134.1052,-208.3082 1170.8046,-197.4047"/>
<polygon fill="#0000ff" stroke="#0000ff" points="1172.2773,-200.617 1180.8486,-194.3893 1170.2645,-193.9126 1172.2773,-200.617"/>
<text text-anchor="middle" x="1191.0456" y="-217.8" font-family="Times,serif" font-size="14.00" fill="#000000">interacting molecules category</text>
</g>
<!-- subject&#45;&gt;relation -->
<g id="edge14" class="edge">
<title>subject&#45;&gt;relation</title>
<path fill="none" stroke="#000000" stroke-dasharray="1,5" d="M904.2562,-159.957C903.0483,-132.3487 900.7307,-79.3746 899.2935,-46.5255"/>
<polygon fill="#000000" stroke="#000000" points="902.7766,-46.06 898.8428,-36.2226 895.7833,-46.366 902.7766,-46.06"/>
</g>
<!-- subject&#45;&gt;object -->
<g id="edge13" class="edge">
<title>subject&#45;&gt;object</title>
<path fill="none" stroke="#000000" d="M913.7061,-160.196C918.7362,-150.2427 925.3811,-137.7205 932.0456,-127 934.2893,-123.3907 936.7723,-119.6665 939.2875,-116.0443"/>
<polygon fill="#000000" stroke="#000000" points="942.1547,-118.0519 945.1173,-107.8796 936.4579,-113.9842 942.1547,-118.0519"/>
<text text-anchor="middle" x="953.0456" y="-130.8" font-family="Times,serif" font-size="14.00" fill="#000000">relation</text>
</g>
<!-- pairwise interaction association_subject -->
<g id="node10" class="node">
<title>pairwise interaction association_subject</title>
<ellipse fill="none" stroke="#0000ff" cx="924.0456" cy="-265" rx="68.7879" ry="18"/>
<text text-anchor="middle" x="924.0456" y="-261.3" font-family="Times,serif" font-size="14.00" fill="#000000">molecular entity</text>
</g>
<!-- pairwise interaction association_id -->
<g id="node12" class="node">
<title>pairwise interaction association_id</title>
<ellipse fill="none" stroke="#0000ff" cx="1041.0456" cy="-265" rx="30.5947" ry="18"/>
<text text-anchor="middle" x="1041.0456" y="-261.3" font-family="Times,serif" font-size="14.00" fill="#000000">string</text>
</g>
<!-- pairwise interaction association_relation -->
<g id="node14" class="node">
<title>pairwise interaction association_relation</title>
<ellipse fill="none" stroke="#0000ff" cx="1135.0456" cy="-265" rx="45.4919" ry="18"/>
<text text-anchor="middle" x="1135.0456" y="-261.3" font-family="Times,serif" font-size="14.00" fill="#000000">uriorcurie</text>
</g>
<!-- object&#45;&gt;relation -->
<g id="edge15" class="edge">
<title>object&#45;&gt;relation</title>
<path fill="none" stroke="#000000" stroke-dasharray="1,5" d="M944.4306,-74.4352C936.7917,-65.1411 927.1081,-53.3595 918.567,-42.9678"/>
<polygon fill="#000000" stroke="#000000" points="921.0766,-40.5089 912.023,-35.0059 915.6688,-44.9537 921.0766,-40.5089"/>
</g>
<!-- pairwise interaction association_object -->
<g id="node16" class="node">
<title>pairwise interaction association_object</title>
<ellipse fill="none" stroke="#0000ff" cx="1267.0456" cy="-265" rx="68.7879" ry="18"/>
<text text-anchor="middle" x="1267.0456" y="-261.3" font-family="Times,serif" font-size="14.00" fill="#000000">molecular entity</text>
</g>
<!-- pairwise interaction association_interacting molecules category -->
<g id="node18" class="node">
<title>pairwise interaction association_interacting molecules category</title>
<ellipse fill="none" stroke="#0000ff" cx="1416.0456" cy="-265" rx="61.99" ry="18"/>
<text text-anchor="middle" x="1416.0456" y="-261.3" font-family="Times,serif" font-size="14.00" fill="#000000">ontology class</text>
</g>
</g>
</svg>
