<?xml version="1.0" encoding="UTF-8" standalone="no"?>
<!DOCTYPE svg PUBLIC "-//W3C//DTD SVG 1.1//EN"
 "http://www.w3.org/Graphics/SVG/1.1/DTD/svg11.dtd">
<!-- Generated by graphviz version 2.43.0 (0)
 -->
<!-- Title: %3 Pages: 1 -->
<svg width="2504pt" height="131pt"
 viewBox="0.00 0.00 2503.88 131.00" xmlns="http://www.w3.org/2000/svg" xmlns:xlink="http://www.w3.org/1999/xlink">
<g id="graph0" class="graph" transform="scale(1 1) rotate(0) translate(4 127)">
<title>%3</title>
<polygon fill="white" stroke="transparent" points="-4,4 -4,-127 2499.88,-127 2499.88,4 -4,4"/>
<!-- pathological process -->
<g id="node1" class="node">
<title>pathological process</title>
<ellipse fill="none" stroke="black" cx="1114.59" cy="-105" rx="105.88" ry="18"/>
<text text-anchor="middle" x="1114.59" y="-101.3" font-family="Times,serif" font-size="14.00">pathological process</text>
</g>
<!-- biological process -->
<g id="node2" class="node">
<title>biological process</title>
<ellipse fill="none" stroke="black" cx="93.59" cy="-18" rx="93.68" ry="18"/>
<text text-anchor="middle" x="93.59" y="-14.3" font-family="Times,serif" font-size="14.00">biological process</text>
</g>
<!-- pathological process&#45;&gt;biological process -->
<g id="edge1" class="edge">
<title>pathological process&#45;&gt;biological process</title>
<path fill="none" stroke="black" d="M1011.79,-100.54C884.21,-95.77 660.06,-85.78 468.59,-69 347.28,-58.37 317.14,-53.25 196.59,-36 188.27,-34.81 179.59,-33.49 170.95,-32.13"/>
<polygon fill="black" stroke="black" points="171.27,-28.64 160.84,-30.53 170.17,-35.55 171.27,-28.64"/>
<text text-anchor="middle" x="482.59" y="-57.8" font-family="Times,serif" font-size="14.00">is_a</text>
</g>
<!-- pathological entity mixin -->
<g id="node3" class="node">
<title>pathological entity mixin</title>
<ellipse fill="none" stroke="black" cx="331.59" cy="-18" rx="126.18" ry="18"/>
<text text-anchor="middle" x="331.59" y="-14.3" font-family="Times,serif" font-size="14.00">pathological entity mixin</text>
</g>
<!-- pathological process&#45;&gt;pathological entity mixin -->
<g id="edge2" class="edge">
<title>pathological process&#45;&gt;pathological entity mixin</title>
<path fill="none" stroke="black" d="M1011.62,-100.73C906.46,-96.54 738.64,-87.47 594.59,-69 530.49,-60.78 458.44,-46.74 405.98,-35.63"/>
<polygon fill="black" stroke="black" points="406.6,-32.18 396.09,-33.52 405.14,-39.03 406.6,-32.18"/>
<text text-anchor="middle" x="611.09" y="-57.8" font-family="Times,serif" font-size="14.00">uses</text>
</g>
<!-- id -->
<g id="node4" class="node">
<title>id</title>
<ellipse fill="none" stroke="blue" cx="513.59" cy="-18" rx="38.19" ry="18"/>
<text text-anchor="middle" x="513.59" y="-14.3" font-family="Times,serif" font-size="14.00">string</text>
</g>
<!-- pathological process&#45;&gt;id -->
<g id="edge3" class="edge">
<title>pathological process&#45;&gt;id</title>
<path fill="none" stroke="blue" d="M1015.24,-98.64C934.48,-93.47 817.77,-84.16 716.59,-69 646.94,-58.56 629.38,-55.13 561.59,-36 558.49,-35.12 555.29,-34.15 552.09,-33.13"/>
<polygon fill="blue" stroke="blue" points="553.18,-29.8 542.59,-29.95 550.96,-36.44 553.18,-29.8"/>
<text text-anchor="middle" x="723.59" y="-57.8" font-family="Times,serif" font-size="14.00">id</text>
</g>
<!-- iri -->
<g id="node5" class="node">
<title>iri</title>
<ellipse fill="none" stroke="blue" cx="614.59" cy="-18" rx="44.39" ry="18"/>
<text text-anchor="middle" x="614.59" y="-14.3" font-family="Times,serif" font-size="14.00">iri type</text>
</g>
<!-- pathological process&#45;&gt;iri -->
<g id="edge4" class="edge">
<title>pathological process&#45;&gt;iri</title>
<path fill="none" stroke="blue" d="M1021.2,-96.45C959.68,-90.73 877.5,-81.68 805.59,-69 743.91,-58.12 728.94,-52.75 668.59,-36 665.02,-35.01 661.33,-33.94 657.63,-32.84"/>
<polygon fill="blue" stroke="blue" points="658.49,-29.44 647.9,-29.88 656.45,-36.14 658.49,-29.44"/>
<text text-anchor="middle" x="813.59" y="-57.8" font-family="Times,serif" font-size="14.00">iri</text>
</g>
<!-- type -->
<g id="node6" class="node">
<title>type</title>
<ellipse fill="none" stroke="blue" cx="715.59" cy="-18" rx="38.19" ry="18"/>
<text text-anchor="middle" x="715.59" y="-14.3" font-family="Times,serif" font-size="14.00">string</text>
</g>
<!-- pathological process&#45;&gt;type -->
<g id="edge5" class="edge">
<title>pathological process&#45;&gt;type</title>
<path fill="none" stroke="blue" d="M1033.53,-93.39C990.57,-87.26 937.01,-78.82 889.59,-69 832.49,-57.17 818.29,-53.27 762.59,-36 759.83,-35.14 757,-34.22 754.15,-33.27"/>
<polygon fill="blue" stroke="blue" points="755.13,-29.9 744.53,-29.94 752.84,-36.52 755.13,-29.9"/>
<text text-anchor="middle" x="905.59" y="-57.8" font-family="Times,serif" font-size="14.00">type</text>
</g>
<!-- name -->
<g id="node7" class="node">
<title>name</title>
<ellipse fill="none" stroke="blue" cx="828.59" cy="-18" rx="56.59" ry="18"/>
<text text-anchor="middle" x="828.59" y="-14.3" font-family="Times,serif" font-size="14.00">label type</text>
</g>
<!-- pathological process&#45;&gt;name -->
<g id="edge6" class="edge">
<title>pathological process&#45;&gt;name</title>
<path fill="none" stroke="blue" d="M1051.23,-90.54C1025.15,-84.58 994.75,-77.09 967.59,-69 935.19,-59.35 899.31,-46.38 872.12,-36.07"/>
<polygon fill="blue" stroke="blue" points="873.1,-32.7 862.51,-32.4 870.61,-39.24 873.1,-32.7"/>
<text text-anchor="middle" x="987.59" y="-57.8" font-family="Times,serif" font-size="14.00">name</text>
</g>
<!-- description -->
<g id="node8" class="node">
<title>description</title>
<ellipse fill="none" stroke="blue" cx="978.59" cy="-18" rx="75.29" ry="18"/>
<text text-anchor="middle" x="978.59" y="-14.3" font-family="Times,serif" font-size="14.00">narrative text</text>
</g>
<!-- pathological process&#45;&gt;description -->
<g id="edge7" class="edge">
<title>pathological process&#45;&gt;description</title>
<path fill="none" stroke="blue" d="M1068.41,-88.73C1055.33,-83.43 1041.45,-76.82 1029.59,-69 1018.86,-61.92 1008.46,-52.38 999.88,-43.53"/>
<polygon fill="blue" stroke="blue" points="1002.24,-40.92 992.85,-36.01 997.12,-45.71 1002.24,-40.92"/>
<text text-anchor="middle" x="1070.09" y="-57.8" font-family="Times,serif" font-size="14.00">description</text>
</g>
<!-- has attribute -->
<g id="node9" class="node">
<title>has attribute</title>
<ellipse fill="none" stroke="blue" cx="1123.59" cy="-18" rx="51.99" ry="18"/>
<text text-anchor="middle" x="1123.59" y="-14.3" font-family="Times,serif" font-size="14.00">attribute</text>
</g>
<!-- pathological process&#45;&gt;has attribute -->
<g id="edge8" class="edge">
<title>pathological process&#45;&gt;has attribute</title>
<path fill="none" stroke="blue" d="M1114.07,-86.81C1113.99,-77.14 1114.26,-64.86 1115.59,-54 1115.92,-51.31 1116.37,-48.52 1116.89,-45.75"/>
<polygon fill="blue" stroke="blue" points="1120.31,-46.48 1118.98,-35.97 1113.47,-45.01 1120.31,-46.48"/>
<text text-anchor="middle" x="1162.59" y="-57.8" font-family="Times,serif" font-size="14.00">has attribute</text>
</g>
<!-- provided by -->
<g id="node10" class="node">
<title>provided by</title>
<ellipse fill="none" stroke="blue" cx="1231.59" cy="-18" rx="38.19" ry="18"/>
<text text-anchor="middle" x="1231.59" y="-14.3" font-family="Times,serif" font-size="14.00">string</text>
</g>
<!-- pathological process&#45;&gt;provided by -->
<g id="edge9" class="edge">
<title>pathological process&#45;&gt;provided by</title>
<path fill="none" stroke="blue" d="M1175.01,-89.99C1187.53,-84.95 1199.86,-78.15 1209.59,-69 1216.25,-62.74 1221.01,-54.12 1224.36,-45.79"/>
<polygon fill="blue" stroke="blue" points="1227.68,-46.91 1227.67,-36.31 1221.07,-44.6 1227.68,-46.91"/>
<text text-anchor="middle" x="1263.09" y="-57.8" font-family="Times,serif" font-size="14.00">provided by</text>
</g>
<!-- xref -->
<g id="node11" class="node">
<title>xref</title>
<ellipse fill="none" stroke="blue" cx="1345.59" cy="-18" rx="57.39" ry="18"/>
<text text-anchor="middle" x="1345.59" y="-14.3" font-family="Times,serif" font-size="14.00">uriorcurie</text>
</g>
<!-- pathological process&#45;&gt;xref -->
<g id="edge10" class="edge">
<title>pathological process&#45;&gt;xref</title>
<path fill="none" stroke="blue" d="M1192.68,-92.82C1242.45,-85.21 1299.44,-75.39 1309.59,-69 1318.96,-63.1 1326.64,-53.8 1332.46,-44.81"/>
<polygon fill="blue" stroke="blue" points="1335.56,-46.45 1337.66,-36.06 1329.54,-42.87 1335.56,-46.45"/>
<text text-anchor="middle" x="1340.09" y="-57.8" font-family="Times,serif" font-size="14.00">xref</text>
</g>
<!-- category -->
<g id="node12" class="node">
<title>category</title>
<ellipse fill="none" stroke="black" cx="1472.59" cy="-18" rx="51.19" ry="18"/>
<text text-anchor="middle" x="1472.59" y="-14.3" font-family="Times,serif" font-size="14.00">category</text>
</g>
<!-- pathological process&#45;&gt;category -->
<g id="edge11" class="edge">
<title>pathological process&#45;&gt;category</title>
<path fill="none" stroke="blue" d="M1191.28,-92.57C1204.07,-90.69 1217.21,-88.78 1229.59,-87 1286.89,-78.77 1302.89,-84.77 1358.59,-69 1385.4,-61.41 1414.12,-48.78 1436.02,-38.12"/>
<polygon fill="blue" stroke="blue" points="1437.87,-41.11 1445.27,-33.53 1434.76,-34.84 1437.87,-41.11"/>
<text text-anchor="middle" x="1432.09" y="-57.8" font-family="Times,serif" font-size="14.00">category</text>
</g>
<!-- in taxon -->
<g id="node14" class="node">
<title>in taxon</title>
<ellipse fill="none" stroke="blue" cx="1625.59" cy="-18" rx="83.39" ry="18"/>
<text text-anchor="middle" x="1625.59" y="-14.3" font-family="Times,serif" font-size="14.00">organism taxon</text>
</g>
<!-- pathological process&#45;&gt;in taxon -->
<g id="edge12" class="edge">
<title>pathological process&#45;&gt;in taxon</title>
<path fill="none" stroke="blue" d="M1189.34,-92.16C1202.72,-90.27 1216.55,-88.45 1229.59,-87 1335.02,-75.24 1363.44,-89.14 1467.59,-69 1505.19,-61.73 1546.4,-48.51 1577.3,-37.48"/>
<polygon fill="blue" stroke="blue" points="1578.74,-40.68 1586.96,-33.99 1576.36,-34.1 1578.74,-40.68"/>
<text text-anchor="middle" x="1554.59" y="-57.8" font-family="Times,serif" font-size="14.00">in taxon</text>
</g>
<!-- has input -->
<g id="node15" class="node">
<title>has input</title>
<ellipse fill="none" stroke="blue" cx="1870.59" cy="-18" rx="143.77" ry="18"/>
<text text-anchor="middle" x="1870.59" y="-14.3" font-family="Times,serif" font-size="14.00">biological process or activity</text>
</g>
<!-- pathological process&#45;&gt;has input -->
<g id="edge13" class="edge">
<title>pathological process&#45;&gt;has input</title>
<path fill="none" stroke="blue" d="M1188.39,-92.02C1202.06,-90.1 1216.24,-88.32 1229.59,-87 1388.13,-71.33 1429.29,-86.89 1587.59,-69 1656.81,-61.18 1734.7,-47.01 1791.22,-35.75"/>
<polygon fill="blue" stroke="blue" points="1792.05,-39.16 1801.16,-33.76 1790.67,-32.3 1792.05,-39.16"/>
<text text-anchor="middle" x="1723.09" y="-57.8" font-family="Times,serif" font-size="14.00">has input</text>
</g>
<!-- has output -->
<g id="node16" class="node">
<title>has output</title>
<ellipse fill="none" stroke="blue" cx="2175.59" cy="-18" rx="143.77" ry="18"/>
<text text-anchor="middle" x="2175.59" y="-14.3" font-family="Times,serif" font-size="14.00">biological process or activity</text>
</g>
<!-- pathological process&#45;&gt;has output -->
<g id="edge14" class="edge">
<title>pathological process&#45;&gt;has output</title>
<path fill="none" stroke="blue" d="M1187.75,-91.92C1201.62,-89.99 1216.02,-88.23 1229.59,-87 1464.76,-65.7 1525.15,-87.14 1760.59,-69 1868.54,-60.68 1991.61,-45.08 2075.51,-33.51"/>
<polygon fill="blue" stroke="blue" points="2076.12,-36.96 2085.55,-32.12 2075.16,-30.02 2076.12,-36.96"/>
<text text-anchor="middle" x="1948.09" y="-57.8" font-family="Times,serif" font-size="14.00">has output</text>
</g>
<!-- enabled by -->
<g id="node17" class="node">
<title>enabled by</title>
<ellipse fill="none" stroke="blue" cx="2416.59" cy="-18" rx="79.09" ry="18"/>
<text text-anchor="middle" x="2416.59" y="-14.3" font-family="Times,serif" font-size="14.00">physical entity</text>
</g>
<!-- pathological process&#45;&gt;enabled by -->
<g id="edge15" class="edge">
<title>pathological process&#45;&gt;enabled by</title>
<path fill="none" stroke="blue" d="M1187.44,-91.85C1201.39,-89.91 1215.92,-88.17 1229.59,-87 1566.68,-58.21 1652.89,-89.45 1990.59,-69 2141.25,-59.88 2179.22,-57.67 2328.59,-36 2335.42,-35.01 2342.52,-33.85 2349.6,-32.61"/>
<polygon fill="blue" stroke="blue" points="2350.7,-35.97 2359.92,-30.76 2349.46,-29.08 2350.7,-35.97"/>
<text text-anchor="middle" x="2228.09" y="-57.8" font-family="Times,serif" font-size="14.00">enabled by</text>
</g>
<!-- named thing_category -->
<g id="node13" class="node">
<title>named thing_category</title>
<ellipse fill="none" stroke="blue" cx="1313.59" cy="-105" rx="74.99" ry="18"/>
<text text-anchor="middle" x="1313.59" y="-101.3" font-family="Times,serif" font-size="14.00">category type</text>
</g>
</g>
</svg>
