<?xml version="1.0" encoding="UTF-8" standalone="no"?>
<!DOCTYPE svg PUBLIC "-//W3C//DTD SVG 1.1//EN"
 "http://www.w3.org/Graphics/SVG/1.1/DTD/svg11.dtd">
<!-- Generated by graphviz version 2.40.1 (20161225.0304)
 -->
<!-- Title: %3 Pages: 1 -->
<svg width="1926pt" height="131pt"
 viewBox="0.00 0.00 1926.18 131.00" xmlns="http://www.w3.org/2000/svg" xmlns:xlink="http://www.w3.org/1999/xlink">
<g id="graph0" class="graph" transform="scale(1 1) rotate(0) translate(4 127)">
<title>%3</title>
<polygon fill="#ffffff" stroke="transparent" points="-4,4 -4,-127 1922.1845,-127 1922.1845,4 -4,4"/>
<!-- pathway -->
<g id="node1" class="node">
<title>pathway</title>
<ellipse fill="none" stroke="#000000" cx="958.8916" cy="-105" rx="50.0912" ry="18"/>
<text text-anchor="middle" x="958.8916" y="-101.3" font-family="Times,serif" font-size="14.00" fill="#000000">pathway</text>
</g>
<!-- biological process -->
<g id="node2" class="node">
<title>biological process</title>
<ellipse fill="none" stroke="#000000" cx="94.8916" cy="-18" rx="94.7833" ry="18"/>
<text text-anchor="middle" x="94.8916" y="-14.3" font-family="Times,serif" font-size="14.00" fill="#000000">biological process</text>
</g>
<!-- pathway&#45;&gt;biological process -->
<g id="edge1" class="edge">
<title>pathway&#45;&gt;biological process</title>
<path fill="none" stroke="#000000" d="M908.9102,-103.3683C811.3622,-99.8292 588.8804,-90.0156 402.8916,-69 311.6271,-58.6877 289.4762,-51.1653 198.8916,-36 191.0541,-34.6879 182.8874,-33.3038 174.728,-31.9097"/>
<polygon fill="#000000" stroke="#000000" points="175.2492,-28.448 164.8017,-30.2085 174.0667,-35.3475 175.2492,-28.448"/>
<text text-anchor="middle" x="416.8916" y="-57.8" font-family="Times,serif" font-size="14.00" fill="#000000">is_a</text>
</g>
<!-- ontology class -->
<g id="node3" class="node">
<title>ontology class</title>
<ellipse fill="none" stroke="#000000" cx="284.8916" cy="-18" rx="77.1866" ry="18"/>
<text text-anchor="middle" x="284.8916" y="-14.3" font-family="Times,serif" font-size="14.00" fill="#000000">ontology class</text>
</g>
<!-- pathway&#45;&gt;ontology class -->
<g id="edge2" class="edge">
<title>pathway&#45;&gt;ontology class</title>
<path fill="none" stroke="#000000" d="M909.0127,-103.3563C825.7109,-100.0873 653.1846,-91.0803 508.8916,-69 452.9956,-60.4466 390.308,-45.7248 345.4956,-34.2904"/>
<polygon fill="#000000" stroke="#000000" points="346.2021,-30.8583 335.6454,-31.7566 344.4582,-37.6376 346.2021,-30.8583"/>
<text text-anchor="middle" x="525.3916" y="-57.8" font-family="Times,serif" font-size="14.00" fill="#000000">uses</text>
</g>
<!-- id -->
<g id="node4" class="node">
<title>id</title>
<ellipse fill="none" stroke="#0000ff" cx="418.8916" cy="-18" rx="38.1938" ry="18"/>
<text text-anchor="middle" x="418.8916" y="-14.3" font-family="Times,serif" font-size="14.00" fill="#000000">string</text>
</g>
<!-- pathway&#45;&gt;id -->
<g id="edge3" class="edge">
<title>pathway&#45;&gt;id</title>
<path fill="none" stroke="#0000ff" d="M909.0319,-102.7101C819.061,-97.5499 624.283,-81.6569 466.8916,-36 463.9106,-35.1353 460.851,-34.1721 457.7895,-33.1533"/>
<polygon fill="#0000ff" stroke="#0000ff" points="458.6936,-29.7616 448.0987,-29.7626 456.3817,-36.3689 458.6936,-29.7616"/>
<text text-anchor="middle" x="606.8916" y="-57.8" font-family="Times,serif" font-size="14.00" fill="#000000">id</text>
</g>
<!-- iri -->
<g id="node5" class="node">
<title>iri</title>
<ellipse fill="none" stroke="#0000ff" cx="519.8916" cy="-18" rx="44.393" ry="18"/>
<text text-anchor="middle" x="519.8916" y="-14.3" font-family="Times,serif" font-size="14.00" fill="#000000">iri type</text>
</g>
<!-- pathway&#45;&gt;iri -->
<g id="edge4" class="edge">
<title>pathway&#45;&gt;iri</title>
<path fill="none" stroke="#0000ff" d="M911.1296,-99.3946C861.0291,-93.2049 780.1008,-82.3292 710.8916,-69 649.3914,-57.1555 634.0991,-53.2518 573.8916,-36 570.5117,-35.0315 567.0283,-33.9846 563.5354,-32.8997"/>
<polygon fill="#0000ff" stroke="#0000ff" points="564.3355,-29.4812 553.7447,-29.7754 562.2074,-36.1499 564.3355,-29.4812"/>
<text text-anchor="middle" x="718.8916" y="-57.8" font-family="Times,serif" font-size="14.00" fill="#000000">iri</text>
</g>
<!-- type -->
<g id="node6" class="node">
<title>type</title>
<ellipse fill="none" stroke="#0000ff" cx="620.8916" cy="-18" rx="38.1938" ry="18"/>
<text text-anchor="middle" x="620.8916" y="-14.3" font-family="Times,serif" font-size="14.00" fill="#000000">string</text>
</g>
<!-- pathway&#45;&gt;type -->
<g id="edge5" class="edge">
<title>pathway&#45;&gt;type</title>
<path fill="none" stroke="#0000ff" d="M914.4583,-96.6072C856.8991,-85.2492 753.759,-63.2381 667.8916,-36 665.1587,-35.1331 662.3543,-34.1927 659.5415,-33.2119"/>
<polygon fill="#0000ff" stroke="#0000ff" points="660.6323,-29.8846 650.0381,-29.7697 658.2484,-36.4661 660.6323,-29.8846"/>
<text text-anchor="middle" x="802.8916" y="-57.8" font-family="Times,serif" font-size="14.00" fill="#000000">type</text>
</g>
<!-- name -->
<g id="node7" class="node">
<title>name</title>
<ellipse fill="none" stroke="#0000ff" cx="733.8916" cy="-18" rx="56.59" ry="18"/>
<text text-anchor="middle" x="733.8916" y="-14.3" font-family="Times,serif" font-size="14.00" fill="#000000">label type</text>
</g>
<!-- pathway&#45;&gt;name -->
<g id="edge6" class="edge">
<title>pathway&#45;&gt;name</title>
<path fill="none" stroke="#0000ff" d="M924.7189,-91.7866C885.8597,-76.761 822.2484,-52.1646 779.2585,-35.5419"/>
<polygon fill="#0000ff" stroke="#0000ff" points="780.4673,-32.2568 769.878,-31.9147 777.9427,-38.7857 780.4673,-32.2568"/>
<text text-anchor="middle" x="879.8916" y="-57.8" font-family="Times,serif" font-size="14.00" fill="#000000">name</text>
</g>
<!-- description -->
<g id="node8" class="node">
<title>description</title>
<ellipse fill="none" stroke="#0000ff" cx="883.8916" cy="-18" rx="75.2868" ry="18"/>
<text text-anchor="middle" x="883.8916" y="-14.3" font-family="Times,serif" font-size="14.00" fill="#000000">narrative text</text>
</g>
<!-- pathway&#45;&gt;description -->
<g id="edge7" class="edge">
<title>pathway&#45;&gt;description</title>
<path fill="none" stroke="#0000ff" d="M943.7142,-87.3943C932.9084,-74.8595 918.2146,-57.8147 906.094,-43.7548"/>
<polygon fill="#0000ff" stroke="#0000ff" points="908.4842,-41.167 899.3038,-35.8782 903.1823,-45.7376 908.4842,-41.167"/>
<text text-anchor="middle" x="966.8916" y="-57.8" font-family="Times,serif" font-size="14.00" fill="#000000">description</text>
</g>
<!-- source -->
<g id="node9" class="node">
<title>source</title>
<ellipse fill="none" stroke="#0000ff" cx="1033.8916" cy="-18" rx="56.59" ry="18"/>
<text text-anchor="middle" x="1033.8916" y="-14.3" font-family="Times,serif" font-size="14.00" fill="#000000">label type</text>
</g>
<!-- pathway&#45;&gt;source -->
<g id="edge8" class="edge">
<title>pathway&#45;&gt;source</title>
<path fill="none" stroke="#0000ff" d="M987.1499,-90.0362C995.9348,-84.3512 1005.0887,-77.2309 1011.8916,-69 1017.4819,-62.2362 1021.8777,-53.8368 1025.2219,-45.8192"/>
<polygon fill="#0000ff" stroke="#0000ff" points="1028.5336,-46.9563 1028.7891,-36.3646 1021.9843,-44.4853 1028.5336,-46.9563"/>
<text text-anchor="middle" x="1046.3916" y="-57.8" font-family="Times,serif" font-size="14.00" fill="#000000">source</text>
</g>
<!-- provided by -->
<g id="node10" class="node">
<title>provided by</title>
<ellipse fill="none" stroke="#0000ff" cx="1145.8916" cy="-18" rx="37.0935" ry="18"/>
<text text-anchor="middle" x="1145.8916" y="-14.3" font-family="Times,serif" font-size="14.00" fill="#000000">agent</text>
</g>
<!-- pathway&#45;&gt;provided by -->
<g id="edge9" class="edge">
<title>pathway&#45;&gt;provided by</title>
<path fill="none" stroke="#0000ff" d="M997.0038,-93.3289C1030.1046,-83.1685 1073.0452,-69.9192 1074.8916,-69 1090.6061,-61.1768 1106.6141,-50.0119 1119.4426,-40.1221"/>
<polygon fill="#0000ff" stroke="#0000ff" points="1121.6997,-42.7994 1127.3785,-33.855 1117.3614,-37.3058 1121.6997,-42.7994"/>
<text text-anchor="middle" x="1142.3916" y="-57.8" font-family="Times,serif" font-size="14.00" fill="#000000">provided by</text>
</g>
<!-- has attribute -->
<g id="node11" class="node">
<title>has attribute</title>
<ellipse fill="none" stroke="#0000ff" cx="1252.8916" cy="-18" rx="51.9908" ry="18"/>
<text text-anchor="middle" x="1252.8916" y="-14.3" font-family="Times,serif" font-size="14.00" fill="#000000">attribute</text>
</g>
<!-- pathway&#45;&gt;has attribute -->
<g id="edge10" class="edge">
<title>pathway&#45;&gt;has attribute</title>
<path fill="none" stroke="#0000ff" d="M995.436,-92.6658C1002.8053,-90.5153 1010.5453,-88.4929 1017.8916,-87 1092.7806,-71.7806 1118.1769,-97.973 1188.8916,-69 1203.7023,-62.9318 1217.8717,-52.3279 1229.096,-42.3555"/>
<polygon fill="#0000ff" stroke="#0000ff" points="1231.7697,-44.6491 1236.7156,-35.2795 1227.0062,-39.5197 1231.7697,-44.6491"/>
<text text-anchor="middle" x="1261.8916" y="-57.8" font-family="Times,serif" font-size="14.00" fill="#000000">has attribute</text>
</g>
<!-- category -->
<g id="node12" class="node">
<title>category</title>
<ellipse fill="none" stroke="#000000" cx="1374.8916" cy="-18" rx="51.9908" ry="18"/>
<text text-anchor="middle" x="1374.8916" y="-14.3" font-family="Times,serif" font-size="14.00" fill="#000000">category</text>
</g>
<!-- pathway&#45;&gt;category -->
<g id="edge11" class="edge">
<title>pathway&#45;&gt;category</title>
<path fill="none" stroke="#0000ff" d="M995.0711,-92.5011C1002.5386,-90.3361 1010.4089,-88.3502 1017.8916,-87 1082.5252,-75.3369 1251.7698,-93.0345 1312.8916,-69 1327.6084,-63.213 1341.4589,-52.5376 1352.32,-42.4438"/>
<polygon fill="#0000ff" stroke="#0000ff" points="1354.9551,-44.7628 1359.67,-35.2748 1350.0674,-39.7517 1354.9551,-44.7628"/>
<text text-anchor="middle" x="1369.8916" y="-57.8" font-family="Times,serif" font-size="14.00" fill="#000000">category</text>
</g>
<!-- has input -->
<g id="node14" class="node">
<title>has input</title>
<ellipse fill="none" stroke="#0000ff" cx="1514.8916" cy="-18" rx="69.5877" ry="18"/>
<text text-anchor="middle" x="1514.8916" y="-14.3" font-family="Times,serif" font-size="14.00" fill="#000000">named thing</text>
</g>
<!-- pathway&#45;&gt;has input -->
<g id="edge12" class="edge">
<title>pathway&#45;&gt;has input</title>
<path fill="none" stroke="#0000ff" d="M995.056,-92.4155C1002.5246,-90.2572 1010.3993,-88.2956 1017.8916,-87 1187.9967,-57.5837 1238.2918,-110.369 1405.8916,-69 1431.221,-62.7479 1457.775,-50.4602 1478.3321,-39.5128"/>
<polygon fill="#0000ff" stroke="#0000ff" points="1480.2273,-42.4659 1487.3293,-34.6037 1476.8745,-36.321 1480.2273,-42.4659"/>
<text text-anchor="middle" x="1480.3916" y="-57.8" font-family="Times,serif" font-size="14.00" fill="#000000">has input</text>
</g>
<!-- has output -->
<g id="node15" class="node">
<title>has output</title>
<ellipse fill="none" stroke="#0000ff" cx="1671.8916" cy="-18" rx="69.5877" ry="18"/>
<text text-anchor="middle" x="1671.8916" y="-14.3" font-family="Times,serif" font-size="14.00" fill="#000000">named thing</text>
</g>
<!-- pathway&#45;&gt;has output -->
<g id="edge13" class="edge">
<title>pathway&#45;&gt;has output</title>
<path fill="none" stroke="#0000ff" d="M995.0456,-92.3546C1002.5151,-90.201 1010.3927,-88.2568 1017.8916,-87 1237.1992,-50.2456 1299.0346,-108.349 1517.8916,-69 1555.1604,-62.2993 1595.76,-48.5697 1625.912,-37.0426"/>
<polygon fill="#0000ff" stroke="#0000ff" points="1627.263,-40.2726 1635.317,-33.3891 1624.7283,-33.7476 1627.263,-40.2726"/>
<text text-anchor="middle" x="1613.3916" y="-57.8" font-family="Times,serif" font-size="14.00" fill="#000000">has output</text>
</g>
<!-- enabled by -->
<g id="node16" class="node">
<title>enabled by</title>
<ellipse fill="none" stroke="#0000ff" cx="1838.8916" cy="-18" rx="79.0865" ry="18"/>
<text text-anchor="middle" x="1838.8916" y="-14.3" font-family="Times,serif" font-size="14.00" fill="#000000">physical entity</text>
</g>
<!-- pathway&#45;&gt;enabled by -->
<g id="edge14" class="edge">
<title>pathway&#45;&gt;enabled by</title>
<path fill="none" stroke="#0000ff" d="M994.7227,-92.3999C1002.286,-90.2133 1010.2822,-88.2449 1017.8916,-87 1297.8385,-41.2016 1375.4084,-111.3906 1655.8916,-69 1700.6046,-62.2423 1749.916,-48.0939 1786.0742,-36.4099"/>
<polygon fill="#0000ff" stroke="#0000ff" points="1787.4958,-39.6273 1795.9092,-33.188 1785.3165,-32.9752 1787.4958,-39.6273"/>
<text text-anchor="middle" x="1762.3916" y="-57.8" font-family="Times,serif" font-size="14.00" fill="#000000">enabled by</text>
</g>
<!-- named thing_category -->
<g id="node13" class="node">
<title>named thing_category</title>
<ellipse fill="none" stroke="#0000ff" cx="1096.8916" cy="-105" rx="69.5877" ry="18"/>
<text text-anchor="middle" x="1096.8916" y="-101.3" font-family="Times,serif" font-size="14.00" fill="#000000">named thing</text>
</g>
</g>
</svg>
