<?xml version="1.0" encoding="UTF-8" standalone="no"?>
<!DOCTYPE svg PUBLIC "-//W3C//DTD SVG 1.1//EN"
 "http://www.w3.org/Graphics/SVG/1.1/DTD/svg11.dtd">
<!-- Generated by graphviz version 2.43.0 (0)
 -->
<!-- Title: %3 Pages: 1 -->
<svg width="2187pt" height="131pt"
 viewBox="0.00 0.00 2187.23 131.00" xmlns="http://www.w3.org/2000/svg" xmlns:xlink="http://www.w3.org/1999/xlink">
<g id="graph0" class="graph" transform="scale(1 1) rotate(0) translate(4 127)">
<title>%3</title>
<polygon fill="white" stroke="transparent" points="-4,4 -4,-127 2183.23,-127 2183.23,4 -4,4"/>
<!-- pathological process outcome -->
<g id="node1" class="node">
<title>pathological process outcome</title>
<ellipse fill="none" stroke="black" cx="925.94" cy="-105" rx="148.37" ry="18"/>
<text text-anchor="middle" x="925.94" y="-101.3" font-family="Times,serif" font-size="14.00">pathological process outcome</text>
</g>
<!-- pathological process -->
<g id="node2" class="node">
<title>pathological process</title>
<ellipse fill="none" stroke="black" cx="105.94" cy="-18" rx="105.88" ry="18"/>
<text text-anchor="middle" x="105.94" y="-14.3" font-family="Times,serif" font-size="14.00">pathological process</text>
</g>
<!-- pathological process outcome&#45;&gt;pathological process -->
<g id="edge1" class="edge">
<title>pathological process outcome&#45;&gt;pathological process</title>
<path fill="none" stroke="black" d="M783.97,-99.73C672.22,-95.23 512.71,-86.28 373.94,-69 306.98,-60.66 231.49,-46.1 177.73,-34.84"/>
<polygon fill="black" stroke="black" points="178.12,-31.35 167.61,-32.71 176.68,-38.2 178.12,-31.35"/>
<text text-anchor="middle" x="387.94" y="-57.8" font-family="Times,serif" font-size="14.00">is_a</text>
</g>
<!-- outcome -->
<g id="node3" class="node">
<title>outcome</title>
<ellipse fill="none" stroke="black" cx="279.94" cy="-18" rx="50.09" ry="18"/>
<text text-anchor="middle" x="279.94" y="-14.3" font-family="Times,serif" font-size="14.00">outcome</text>
</g>
<!-- pathological process outcome&#45;&gt;outcome -->
<g id="edge2" class="edge">
<title>pathological process outcome&#45;&gt;outcome</title>
<path fill="none" stroke="black" d="M786.41,-98.86C697.2,-94.17 579.27,-85.36 475.94,-69 423.82,-60.75 365.36,-44.96 325.95,-33.32"/>
<polygon fill="black" stroke="black" points="326.95,-29.96 316.36,-30.46 324.94,-36.67 326.95,-29.96"/>
<text text-anchor="middle" x="492.44" y="-57.8" font-family="Times,serif" font-size="14.00">uses</text>
</g>
<!-- id -->
<g id="node4" class="node">
<title>id</title>
<ellipse fill="none" stroke="blue" cx="385.94" cy="-18" rx="38.19" ry="18"/>
<text text-anchor="middle" x="385.94" y="-14.3" font-family="Times,serif" font-size="14.00">string</text>
</g>
<!-- pathological process outcome&#45;&gt;id -->
<g id="edge3" class="edge">
<title>pathological process outcome&#45;&gt;id</title>
<path fill="none" stroke="blue" d="M798.68,-95.77C698.22,-87.04 555.25,-69.66 433.94,-36 430.83,-35.14 427.63,-34.17 424.43,-33.16"/>
<polygon fill="blue" stroke="blue" points="425.52,-29.83 414.92,-30 423.31,-36.47 425.52,-29.83"/>
<text text-anchor="middle" x="587.94" y="-57.8" font-family="Times,serif" font-size="14.00">id</text>
</g>
<!-- iri -->
<g id="node5" class="node">
<title>iri</title>
<ellipse fill="none" stroke="blue" cx="486.94" cy="-18" rx="44.39" ry="18"/>
<text text-anchor="middle" x="486.94" y="-14.3" font-family="Times,serif" font-size="14.00">iri type</text>
</g>
<!-- pathological process outcome&#45;&gt;iri -->
<g id="edge4" class="edge">
<title>pathological process outcome&#45;&gt;iri</title>
<path fill="none" stroke="blue" d="M827.86,-91.48C784.27,-85.46 732.41,-77.66 685.94,-69 620.97,-56.89 604.74,-53.27 540.94,-36 537.36,-35.03 533.67,-33.98 529.96,-32.89"/>
<polygon fill="blue" stroke="blue" points="530.82,-29.49 520.23,-29.95 528.79,-36.19 530.82,-29.49"/>
<text text-anchor="middle" x="693.94" y="-57.8" font-family="Times,serif" font-size="14.00">iri</text>
</g>
<!-- type -->
<g id="node6" class="node">
<title>type</title>
<ellipse fill="none" stroke="blue" cx="587.94" cy="-18" rx="38.19" ry="18"/>
<text text-anchor="middle" x="587.94" y="-14.3" font-family="Times,serif" font-size="14.00">string</text>
</g>
<!-- pathological process outcome&#45;&gt;type -->
<g id="edge5" class="edge">
<title>pathological process outcome&#45;&gt;type</title>
<path fill="none" stroke="blue" d="M851.04,-89.44C791.82,-77.22 707.35,-58.23 634.94,-36 632.18,-35.15 629.34,-34.24 626.5,-33.29"/>
<polygon fill="blue" stroke="blue" points="627.47,-29.92 616.87,-29.97 625.19,-36.54 627.47,-29.92"/>
<text text-anchor="middle" x="769.94" y="-57.8" font-family="Times,serif" font-size="14.00">type</text>
</g>
<!-- name -->
<g id="node7" class="node">
<title>name</title>
<ellipse fill="none" stroke="blue" cx="700.94" cy="-18" rx="56.59" ry="18"/>
<text text-anchor="middle" x="700.94" y="-14.3" font-family="Times,serif" font-size="14.00">label type</text>
</g>
<!-- pathological process outcome&#45;&gt;name -->
<g id="edge6" class="edge">
<title>pathological process outcome&#45;&gt;name</title>
<path fill="none" stroke="blue" d="M882.82,-87.71C843.45,-72.84 785.48,-50.94 745.62,-35.88"/>
<polygon fill="blue" stroke="blue" points="746.74,-32.56 736.15,-32.3 744.27,-39.11 746.74,-32.56"/>
<text text-anchor="middle" x="846.94" y="-57.8" font-family="Times,serif" font-size="14.00">name</text>
</g>
<!-- description -->
<g id="node8" class="node">
<title>description</title>
<ellipse fill="none" stroke="blue" cx="850.94" cy="-18" rx="75.29" ry="18"/>
<text text-anchor="middle" x="850.94" y="-14.3" font-family="Times,serif" font-size="14.00">narrative text</text>
</g>
<!-- pathological process outcome&#45;&gt;description -->
<g id="edge7" class="edge">
<title>pathological process outcome&#45;&gt;description</title>
<path fill="none" stroke="blue" d="M910.76,-86.8C899.81,-74.39 884.87,-57.46 872.66,-43.62"/>
<polygon fill="blue" stroke="blue" points="875.08,-41.07 865.84,-35.89 869.83,-45.7 875.08,-41.07"/>
<text text-anchor="middle" x="933.44" y="-57.8" font-family="Times,serif" font-size="14.00">description</text>
</g>
<!-- source -->
<g id="node9" class="node">
<title>source</title>
<ellipse fill="none" stroke="blue" cx="1000.94" cy="-18" rx="56.59" ry="18"/>
<text text-anchor="middle" x="1000.94" y="-14.3" font-family="Times,serif" font-size="14.00">label type</text>
</g>
<!-- pathological process outcome&#45;&gt;source -->
<g id="edge8" class="edge">
<title>pathological process outcome&#45;&gt;source</title>
<path fill="none" stroke="blue" d="M956.8,-87.26C964.38,-82.13 972.02,-75.96 977.94,-69 983.75,-62.17 988.39,-53.63 991.94,-45.55"/>
<polygon fill="blue" stroke="blue" points="995.27,-46.65 995.73,-36.07 988.77,-44.05 995.27,-46.65"/>
<text text-anchor="middle" x="1011.94" y="-57.8" font-family="Times,serif" font-size="14.00">source</text>
</g>
<!-- provided by -->
<g id="node10" class="node">
<title>provided by</title>
<ellipse fill="none" stroke="blue" cx="1112.94" cy="-18" rx="37.09" ry="18"/>
<text text-anchor="middle" x="1112.94" y="-14.3" font-family="Times,serif" font-size="14.00">agent</text>
</g>
<!-- pathological process outcome&#45;&gt;provided by -->
<g id="edge9" class="edge">
<title>pathological process outcome&#45;&gt;provided by</title>
<path fill="none" stroke="blue" d="M988.18,-88.61C1005.35,-83.37 1023.72,-76.82 1039.94,-69 1056.29,-61.12 1073.09,-49.87 1086.45,-40.03"/>
<polygon fill="blue" stroke="blue" points="1088.81,-42.63 1094.69,-33.82 1084.6,-37.04 1088.81,-42.63"/>
<text text-anchor="middle" x="1108.44" y="-57.8" font-family="Times,serif" font-size="14.00">provided by</text>
</g>
<!-- has attribute -->
<g id="node11" class="node">
<title>has attribute</title>
<ellipse fill="none" stroke="blue" cx="1219.94" cy="-18" rx="51.99" ry="18"/>
<text text-anchor="middle" x="1219.94" y="-14.3" font-family="Times,serif" font-size="14.00">attribute</text>
</g>
<!-- pathological process outcome&#45;&gt;has attribute -->
<g id="edge10" class="edge">
<title>pathological process outcome&#45;&gt;has attribute</title>
<path fill="none" stroke="blue" d="M1034.2,-92.66C1082.33,-86.55 1133.03,-78.36 1154.94,-69 1170.05,-62.55 1184.74,-51.76 1196.32,-41.85"/>
<polygon fill="blue" stroke="blue" points="1198.66,-44.45 1203.81,-35.19 1194.01,-39.22 1198.66,-44.45"/>
<text text-anchor="middle" x="1227.94" y="-57.8" font-family="Times,serif" font-size="14.00">has attribute</text>
</g>
<!-- category -->
<g id="node12" class="node">
<title>category</title>
<ellipse fill="none" stroke="black" cx="1340.94" cy="-18" rx="51.19" ry="18"/>
<text text-anchor="middle" x="1340.94" y="-14.3" font-family="Times,serif" font-size="14.00">category</text>
</g>
<!-- pathological process outcome&#45;&gt;category -->
<g id="edge11" class="edge">
<title>pathological process outcome&#45;&gt;category</title>
<path fill="none" stroke="blue" d="M1031.48,-92.33C1048.68,-90.5 1066.3,-88.66 1082.94,-87 1126.46,-82.65 1238.41,-85.43 1278.94,-69 1293.58,-63.06 1307.51,-52.47 1318.44,-42.55"/>
<polygon fill="blue" stroke="blue" points="1320.99,-44.95 1325.83,-35.53 1316.17,-39.87 1320.99,-44.95"/>
<text text-anchor="middle" x="1335.44" y="-57.8" font-family="Times,serif" font-size="14.00">category</text>
</g>
<!-- has input -->
<g id="node14" class="node">
<title>has input</title>
<ellipse fill="none" stroke="blue" cx="1553.94" cy="-18" rx="143.77" ry="18"/>
<text text-anchor="middle" x="1553.94" y="-14.3" font-family="Times,serif" font-size="14.00">biological process or activity</text>
</g>
<!-- pathological process outcome&#45;&gt;has input -->
<g id="edge12" class="edge">
<title>pathological process outcome&#45;&gt;has input</title>
<path fill="none" stroke="blue" d="M1029.75,-92.09C1047.48,-90.24 1065.73,-88.47 1082.94,-87 1210.73,-76.09 1244.42,-90.01 1370.94,-69 1413.56,-61.92 1460.55,-48.97 1496.24,-38.02"/>
<polygon fill="blue" stroke="blue" points="1497.48,-41.3 1505.99,-35 1495.4,-34.62 1497.48,-41.3"/>
<text text-anchor="middle" x="1471.44" y="-57.8" font-family="Times,serif" font-size="14.00">has input</text>
</g>
<!-- has output -->
<g id="node15" class="node">
<title>has output</title>
<ellipse fill="none" stroke="blue" cx="1858.94" cy="-18" rx="143.77" ry="18"/>
<text text-anchor="middle" x="1858.94" y="-14.3" font-family="Times,serif" font-size="14.00">biological process or activity</text>
</g>
<!-- pathological process outcome&#45;&gt;has output -->
<g id="edge13" class="edge">
<title>pathological process outcome&#45;&gt;has output</title>
<path fill="none" stroke="blue" d="M1028.46,-91.92C1046.59,-90.06 1065.31,-88.33 1082.94,-87 1271.91,-72.79 1320.24,-86.42 1508.94,-69 1597.2,-60.85 1697.25,-45.99 1767.71,-34.58"/>
<polygon fill="blue" stroke="blue" points="1768.57,-37.98 1777.88,-32.92 1767.45,-31.07 1768.57,-37.98"/>
<text text-anchor="middle" x="1673.44" y="-57.8" font-family="Times,serif" font-size="14.00">has output</text>
</g>
<!-- enabled by -->
<g id="node16" class="node">
<title>enabled by</title>
<ellipse fill="none" stroke="blue" cx="2099.94" cy="-18" rx="79.09" ry="18"/>
<text text-anchor="middle" x="2099.94" y="-14.3" font-family="Times,serif" font-size="14.00">physical entity</text>
</g>
<!-- pathological process outcome&#45;&gt;enabled by -->
<g id="edge14" class="edge">
<title>pathological process outcome&#45;&gt;enabled by</title>
<path fill="none" stroke="blue" d="M1027.18,-91.84C1045.71,-89.96 1064.89,-88.23 1082.94,-87 1363.73,-67.84 1435.18,-88.61 1715.94,-69 1847.99,-59.78 1881.07,-55.9 2011.94,-36 2018.76,-34.96 2025.86,-33.77 2032.94,-32.52"/>
<polygon fill="blue" stroke="blue" points="2034.04,-35.88 2043.25,-30.64 2032.78,-28.99 2034.04,-35.88"/>
<text text-anchor="middle" x="1924.44" y="-57.8" font-family="Times,serif" font-size="14.00">enabled by</text>
</g>
<!-- named thing_category -->
<g id="node13" class="node">
<title>named thing_category</title>
<ellipse fill="none" stroke="blue" cx="1161.94" cy="-105" rx="69.59" ry="18"/>
<text text-anchor="middle" x="1161.94" y="-101.3" font-family="Times,serif" font-size="14.00">named thing</text>
</g>
</g>
</svg>
