<?xml version="1.0" encoding="UTF-8" standalone="no"?>
<!DOCTYPE svg PUBLIC "-//W3C//DTD SVG 1.1//EN"
 "http://www.w3.org/Graphics/SVG/1.1/DTD/svg11.dtd">
<!-- Generated by graphviz version 2.43.0 (0)
 -->
<!-- Title: %3 Pages: 1 -->
<svg width="1988pt" height="131pt"
 viewBox="0.00 0.00 1988.24 131.00" xmlns="http://www.w3.org/2000/svg" xmlns:xlink="http://www.w3.org/1999/xlink">
<g id="graph0" class="graph" transform="scale(1 1) rotate(0) translate(4 127)">
<title>%3</title>
<polygon fill="white" stroke="transparent" points="-4,4 -4,-127 1984.24,-127 1984.24,4 -4,4"/>
<!-- pathological process exposure -->
<g id="node1" class="node">
<title>pathological process exposure</title>
<ellipse fill="none" stroke="black" cx="937" cy="-105" rx="151.37" ry="18"/>
<text text-anchor="middle" x="937" y="-101.3" font-family="Times,serif" font-size="14.00">pathological process exposure</text>
</g>
<!-- attribute -->
<g id="node2" class="node">
<title>attribute</title>
<ellipse fill="none" stroke="black" cx="52" cy="-18" rx="51.99" ry="18"/>
<text text-anchor="middle" x="52" y="-14.3" font-family="Times,serif" font-size="14.00">attribute</text>
</g>
<!-- pathological process exposure&#45;&gt;attribute -->
<g id="edge1" class="edge">
<title>pathological process exposure&#45;&gt;attribute</title>
<path fill="none" stroke="black" d="M789.97,-100.58C661.83,-96.48 471.17,-87.64 306,-69 219.52,-59.24 197.91,-55.04 113,-36 108.83,-35.07 104.53,-34.03 100.22,-32.93"/>
<polygon fill="black" stroke="black" points="100.8,-29.46 90.24,-30.3 99.02,-36.23 100.8,-29.46"/>
<text text-anchor="middle" x="320" y="-57.8" font-family="Times,serif" font-size="14.00">is_a</text>
</g>
<!-- exposure event -->
<g id="node3" class="node">
<title>exposure event</title>
<ellipse fill="none" stroke="black" cx="204" cy="-18" rx="81.79" ry="18"/>
<text text-anchor="middle" x="204" y="-14.3" font-family="Times,serif" font-size="14.00">exposure event</text>
</g>
<!-- pathological process exposure&#45;&gt;exposure event -->
<g id="edge2" class="edge">
<title>pathological process exposure&#45;&gt;exposure event</title>
<path fill="none" stroke="black" d="M789.75,-100.77C684.33,-96.86 539.31,-88.19 413,-69 360.92,-61.09 302.72,-46.7 260.98,-35.38"/>
<polygon fill="black" stroke="black" points="261.84,-31.98 251.28,-32.72 260,-38.74 261.84,-31.98"/>
<text text-anchor="middle" x="429.5" y="-57.8" font-family="Times,serif" font-size="14.00">uses</text>
</g>
<!-- id -->
<g id="node4" class="node">
<title>id</title>
<ellipse fill="none" stroke="blue" cx="342" cy="-18" rx="38.19" ry="18"/>
<text text-anchor="middle" x="342" y="-14.3" font-family="Times,serif" font-size="14.00">string</text>
</g>
<!-- pathological process exposure&#45;&gt;id -->
<g id="edge3" class="edge">
<title>pathological process exposure&#45;&gt;id</title>
<path fill="none" stroke="blue" d="M794.3,-98.96C710.91,-94.37 603.93,-85.62 510,-69 464.58,-60.97 414.07,-44.92 380.4,-33.17"/>
<polygon fill="blue" stroke="blue" points="381.54,-29.86 370.95,-29.82 379.21,-36.46 381.54,-29.86"/>
<text text-anchor="middle" x="517" y="-57.8" font-family="Times,serif" font-size="14.00">id</text>
</g>
<!-- type -->
<g id="node5" class="node">
<title>type</title>
<ellipse fill="none" stroke="blue" cx="437" cy="-18" rx="38.19" ry="18"/>
<text text-anchor="middle" x="437" y="-14.3" font-family="Times,serif" font-size="14.00">string</text>
</g>
<!-- pathological process exposure&#45;&gt;type -->
<g id="edge4" class="edge">
<title>pathological process exposure&#45;&gt;type</title>
<path fill="none" stroke="blue" d="M796.79,-98.1C730.21,-93.32 649.88,-84.67 579,-69 542.24,-60.88 501.9,-46.07 473.64,-34.67"/>
<polygon fill="blue" stroke="blue" points="474.75,-31.34 464.17,-30.79 472.1,-37.82 474.75,-31.34"/>
<text text-anchor="middle" x="595" y="-57.8" font-family="Times,serif" font-size="14.00">type</text>
</g>
<!-- description -->
<g id="node6" class="node">
<title>description</title>
<ellipse fill="none" stroke="blue" cx="569" cy="-18" rx="75.29" ry="18"/>
<text text-anchor="middle" x="569" y="-14.3" font-family="Times,serif" font-size="14.00">narrative text</text>
</g>
<!-- pathological process exposure&#45;&gt;description -->
<g id="edge5" class="edge">
<title>pathological process exposure&#45;&gt;description</title>
<path fill="none" stroke="blue" d="M810.73,-95.03C745.21,-89.19 672.59,-80.49 642,-69 625.36,-62.75 608.86,-51.94 595.76,-41.97"/>
<polygon fill="blue" stroke="blue" points="597.7,-39.04 587.68,-35.59 593.36,-44.54 597.7,-39.04"/>
<text text-anchor="middle" x="682.5" y="-57.8" font-family="Times,serif" font-size="14.00">description</text>
</g>
<!-- has attribute -->
<g id="node7" class="node">
<title>has attribute</title>
<ellipse fill="none" stroke="blue" cx="714" cy="-18" rx="51.99" ry="18"/>
<text text-anchor="middle" x="714" y="-14.3" font-family="Times,serif" font-size="14.00">attribute</text>
</g>
<!-- pathological process exposure&#45;&gt;has attribute -->
<g id="edge6" class="edge">
<title>pathological process exposure&#45;&gt;has attribute</title>
<path fill="none" stroke="blue" d="M824.53,-92.92C788.1,-87.48 753.37,-79.73 739,-69 731.2,-63.18 725.67,-54.25 721.84,-45.54"/>
<polygon fill="blue" stroke="blue" points="725.02,-44.07 718.19,-35.97 718.48,-46.56 725.02,-44.07"/>
<text text-anchor="middle" x="786" y="-57.8" font-family="Times,serif" font-size="14.00">has attribute</text>
</g>
<!-- provided by -->
<g id="node8" class="node">
<title>provided by</title>
<ellipse fill="none" stroke="blue" cx="822" cy="-18" rx="38.19" ry="18"/>
<text text-anchor="middle" x="822" y="-14.3" font-family="Times,serif" font-size="14.00">string</text>
</g>
<!-- pathological process exposure&#45;&gt;provided by -->
<g id="edge7" class="edge">
<title>pathological process exposure&#45;&gt;provided by</title>
<path fill="none" stroke="blue" d="M879.39,-88.35C868.11,-83.44 857,-77.11 848,-69 840.92,-62.63 835.46,-53.87 831.42,-45.46"/>
<polygon fill="blue" stroke="blue" points="834.62,-44.06 827.44,-36.27 828.2,-46.83 834.62,-44.06"/>
<text text-anchor="middle" x="890.5" y="-57.8" font-family="Times,serif" font-size="14.00">provided by</text>
</g>
<!-- xref -->
<g id="node9" class="node">
<title>xref</title>
<ellipse fill="none" stroke="blue" cx="936" cy="-18" rx="57.39" ry="18"/>
<text text-anchor="middle" x="936" y="-14.3" font-family="Times,serif" font-size="14.00">uriorcurie</text>
</g>
<!-- pathological process exposure&#45;&gt;xref -->
<g id="edge8" class="edge">
<title>pathological process exposure&#45;&gt;xref</title>
<path fill="none" stroke="blue" d="M936.79,-86.8C936.66,-75.16 936.47,-59.55 936.32,-46.24"/>
<polygon fill="blue" stroke="blue" points="939.81,-46.13 936.2,-36.18 932.82,-46.22 939.81,-46.13"/>
<text text-anchor="middle" x="951.5" y="-57.8" font-family="Times,serif" font-size="14.00">xref</text>
</g>
<!-- category -->
<g id="node10" class="node">
<title>category</title>
<ellipse fill="none" stroke="black" cx="1063" cy="-18" rx="51.19" ry="18"/>
<text text-anchor="middle" x="1063" y="-14.3" font-family="Times,serif" font-size="14.00">category</text>
</g>
<!-- pathological process exposure&#45;&gt;category -->
<g id="edge9" class="edge">
<title>pathological process exposure&#45;&gt;category</title>
<path fill="none" stroke="blue" d="M961.89,-87.21C981.93,-73.68 1010.22,-54.6 1031.78,-40.06"/>
<polygon fill="blue" stroke="blue" points="1033.94,-42.82 1040.27,-34.33 1030.02,-37.02 1033.94,-42.82"/>
<text text-anchor="middle" x="1039.5" y="-57.8" font-family="Times,serif" font-size="14.00">category</text>
</g>
<!-- name -->
<g id="node12" class="node">
<title>name</title>
<ellipse fill="none" stroke="black" cx="1169" cy="-18" rx="36.29" ry="18"/>
<text text-anchor="middle" x="1169" y="-14.3" font-family="Times,serif" font-size="14.00">name</text>
</g>
<!-- pathological process exposure&#45;&gt;name -->
<g id="edge10" class="edge">
<title>pathological process exposure&#45;&gt;name</title>
<path fill="none" stroke="blue" d="M1009.29,-89.14C1030.77,-83.8 1054.13,-77.06 1075,-69 1097.02,-60.49 1120.47,-48.03 1138.44,-37.67"/>
<polygon fill="blue" stroke="blue" points="1140.44,-40.55 1147.3,-32.48 1136.9,-34.51 1140.44,-40.55"/>
<text text-anchor="middle" x="1128" y="-57.8" font-family="Times,serif" font-size="14.00">name</text>
</g>
<!-- has attribute type -->
<g id="node14" class="node">
<title>has attribute type</title>
<ellipse fill="none" stroke="blue" cx="1300" cy="-18" rx="76.89" ry="18"/>
<text text-anchor="middle" x="1300" y="-14.3" font-family="Times,serif" font-size="14.00">ontology class</text>
</g>
<!-- pathological process exposure&#45;&gt;has attribute type -->
<g id="edge11" class="edge">
<title>pathological process exposure&#45;&gt;has attribute type</title>
<path fill="none" stroke="blue" d="M1036.16,-91.34C1072.82,-85.75 1114.56,-78.3 1152,-69 1186.28,-60.48 1224,-47.68 1252.78,-37.17"/>
<polygon fill="blue" stroke="blue" points="1254.01,-40.45 1262.18,-33.7 1251.58,-33.88 1254.01,-40.45"/>
<text text-anchor="middle" x="1267" y="-57.8" font-family="Times,serif" font-size="14.00">has attribute type</text>
</g>
<!-- has quantitative value -->
<g id="node15" class="node">
<title>has quantitative value</title>
<ellipse fill="none" stroke="blue" cx="1472" cy="-18" rx="77.19" ry="18"/>
<text text-anchor="middle" x="1472" y="-14.3" font-family="Times,serif" font-size="14.00">quantity value</text>
</g>
<!-- pathological process exposure&#45;&gt;has quantitative value -->
<g id="edge12" class="edge">
<title>pathological process exposure&#45;&gt;has quantitative value</title>
<path fill="none" stroke="blue" d="M1043.67,-92.21C1061.47,-90.37 1079.75,-88.57 1097,-87 1203.08,-77.37 1231.9,-91.6 1336,-69 1368.07,-62.04 1402.78,-49.18 1429.1,-38.25"/>
<polygon fill="blue" stroke="blue" points="1430.55,-41.44 1438.4,-34.33 1427.83,-34.99 1430.55,-41.44"/>
<text text-anchor="middle" x="1466" y="-57.8" font-family="Times,serif" font-size="14.00">has quantitative value</text>
</g>
<!-- has qualitative value -->
<g id="node16" class="node">
<title>has qualitative value</title>
<ellipse fill="none" stroke="blue" cx="1637" cy="-18" rx="69.59" ry="18"/>
<text text-anchor="middle" x="1637" y="-14.3" font-family="Times,serif" font-size="14.00">named thing</text>
</g>
<!-- pathological process exposure&#45;&gt;has qualitative value -->
<g id="edge13" class="edge">
<title>pathological process exposure&#45;&gt;has qualitative value</title>
<path fill="none" stroke="blue" d="M1041.48,-91.89C1059.95,-90.04 1079.03,-88.31 1097,-87 1197.47,-79.67 1453.19,-96.91 1550,-69 1570.33,-63.14 1590.96,-51.58 1607.03,-41.05"/>
<polygon fill="blue" stroke="blue" points="1609.13,-43.85 1615.45,-35.35 1605.21,-38.05 1609.13,-43.85"/>
<text text-anchor="middle" x="1660.5" y="-57.8" font-family="Times,serif" font-size="14.00">has qualitative value</text>
</g>
<!-- iri -->
<g id="node17" class="node">
<title>iri</title>
<ellipse fill="none" stroke="blue" cx="1808" cy="-18" rx="44.39" ry="18"/>
<text text-anchor="middle" x="1808" y="-14.3" font-family="Times,serif" font-size="14.00">iri type</text>
</g>
<!-- pathological process exposure&#45;&gt;iri -->
<g id="edge14" class="edge">
<title>pathological process exposure&#45;&gt;iri</title>
<path fill="none" stroke="blue" d="M1040.61,-91.8C1059.35,-89.93 1078.74,-88.22 1097,-87 1168.2,-82.23 1671.43,-91.96 1739,-69 1755.77,-63.3 1771.95,-51.99 1784.42,-41.57"/>
<polygon fill="blue" stroke="blue" points="1786.82,-44.12 1792.05,-34.91 1782.22,-38.85 1786.82,-44.12"/>
<text text-anchor="middle" x="1776" y="-57.8" font-family="Times,serif" font-size="14.00">iri</text>
</g>
<!-- timepoint -->
<g id="node18" class="node">
<title>timepoint</title>
<ellipse fill="none" stroke="blue" cx="1925" cy="-18" rx="55.49" ry="18"/>
<text text-anchor="middle" x="1925" y="-14.3" font-family="Times,serif" font-size="14.00">time type</text>
</g>
<!-- pathological process exposure&#45;&gt;timepoint -->
<g id="edge15" class="edge">
<title>pathological process exposure&#45;&gt;timepoint</title>
<path fill="none" stroke="blue" d="M1040.17,-91.81C1059.05,-89.93 1078.6,-88.21 1097,-87 1250.27,-76.88 1637.09,-97.71 1788,-69 1822,-62.53 1858.76,-48.71 1885.63,-37.24"/>
<polygon fill="blue" stroke="blue" points="1887.28,-40.33 1895.06,-33.13 1884.49,-33.92 1887.28,-40.33"/>
<text text-anchor="middle" x="1877" y="-57.8" font-family="Times,serif" font-size="14.00">timepoint</text>
</g>
<!-- named thing_category -->
<g id="node11" class="node">
<title>named thing_category</title>
<ellipse fill="none" stroke="blue" cx="1181" cy="-105" rx="74.99" ry="18"/>
<text text-anchor="middle" x="1181" y="-101.3" font-family="Times,serif" font-size="14.00">category type</text>
</g>
<!-- attribute_name -->
<g id="node13" class="node">
<title>attribute_name</title>
<ellipse fill="none" stroke="blue" cx="1330" cy="-105" rx="56.59" ry="18"/>
<text text-anchor="middle" x="1330" y="-101.3" font-family="Times,serif" font-size="14.00">label type</text>
</g>
</g>
</svg>
