<?xml version="1.0" encoding="UTF-8" standalone="no"?>
<!DOCTYPE svg PUBLIC "-//W3C//DTD SVG 1.1//EN"
 "http://www.w3.org/Graphics/SVG/1.1/DTD/svg11.dtd">
<!-- Generated by graphviz version 2.43.0 (0)
 -->
<!-- Title: %3 Pages: 1 -->
<svg width="2064pt" height="131pt"
 viewBox="0.00 0.00 2064.24 131.00" xmlns="http://www.w3.org/2000/svg" xmlns:xlink="http://www.w3.org/1999/xlink">
<g id="graph0" class="graph" transform="scale(1 1) rotate(0) translate(4 127)">
<title>%3</title>
<polygon fill="white" stroke="transparent" points="-4,4 -4,-127 2060.24,-127 2060.24,4 -4,4"/>
<!-- pathological process exposure -->
<g id="node1" class="node">
<title>pathological process exposure</title>
<ellipse fill="none" stroke="black" cx="1001" cy="-105" rx="151.37" ry="18"/>
<text text-anchor="middle" x="1001" y="-101.3" font-family="Times,serif" font-size="14.00">pathological process exposure</text>
</g>
<!-- attribute -->
<g id="node2" class="node">
<title>attribute</title>
<ellipse fill="none" stroke="black" cx="52" cy="-18" rx="51.99" ry="18"/>
<text text-anchor="middle" x="52" y="-14.3" font-family="Times,serif" font-size="14.00">attribute</text>
</g>
<!-- pathological process exposure&#45;&gt;attribute -->
<g id="edge1" class="edge">
<title>pathological process exposure&#45;&gt;attribute</title>
<path fill="none" stroke="black" d="M852.23,-101.52C711.63,-97.99 494.96,-89.47 308,-69 220.62,-59.43 198.78,-55.16 113,-36 108.83,-35.07 104.53,-34.03 100.22,-32.94"/>
<polygon fill="black" stroke="black" points="100.8,-29.47 90.24,-30.31 99.02,-36.24 100.8,-29.47"/>
<text text-anchor="middle" x="322" y="-57.8" font-family="Times,serif" font-size="14.00">is_a</text>
</g>
<!-- exposure event -->
<g id="node3" class="node">
<title>exposure event</title>
<ellipse fill="none" stroke="black" cx="204" cy="-18" rx="81.79" ry="18"/>
<text text-anchor="middle" x="204" y="-14.3" font-family="Times,serif" font-size="14.00">exposure event</text>
</g>
<!-- pathological process exposure&#45;&gt;exposure event -->
<g id="edge2" class="edge">
<title>pathological process exposure&#45;&gt;exposure event</title>
<path fill="none" stroke="black" d="M851.5,-102.12C732.87,-98.93 563.09,-90.58 416,-69 363,-61.22 303.75,-46.75 261.39,-35.36"/>
<polygon fill="black" stroke="black" points="262.1,-31.93 251.54,-32.69 260.27,-38.69 262.1,-31.93"/>
<text text-anchor="middle" x="432.5" y="-57.8" font-family="Times,serif" font-size="14.00">uses</text>
</g>
<!-- id -->
<g id="node4" class="node">
<title>id</title>
<ellipse fill="none" stroke="blue" cx="342" cy="-18" rx="38.19" ry="18"/>
<text text-anchor="middle" x="342" y="-14.3" font-family="Times,serif" font-size="14.00">string</text>
</g>
<!-- pathological process exposure&#45;&gt;id -->
<g id="edge3" class="edge">
<title>pathological process exposure&#45;&gt;id</title>
<path fill="none" stroke="blue" d="M854.26,-100.43C757.63,-96.37 628.64,-87.65 516,-69 468.72,-61.17 416.05,-44.94 381.17,-33.08"/>
<polygon fill="blue" stroke="blue" points="381.98,-29.66 371.38,-29.71 379.7,-36.28 381.98,-29.66"/>
<text text-anchor="middle" x="523" y="-57.8" font-family="Times,serif" font-size="14.00">id</text>
</g>
<!-- type -->
<g id="node5" class="node">
<title>type</title>
<ellipse fill="none" stroke="blue" cx="437" cy="-18" rx="38.19" ry="18"/>
<text text-anchor="middle" x="437" y="-14.3" font-family="Times,serif" font-size="14.00">string</text>
</g>
<!-- pathological process exposure&#45;&gt;type -->
<g id="edge4" class="edge">
<title>pathological process exposure&#45;&gt;type</title>
<path fill="none" stroke="blue" d="M856.05,-99.71C776.33,-95.35 676.02,-86.6 588,-69 548.34,-61.07 504.64,-45.85 474.5,-34.28"/>
<polygon fill="blue" stroke="blue" points="475.41,-30.88 464.82,-30.51 472.87,-37.4 475.41,-30.88"/>
<text text-anchor="middle" x="604" y="-57.8" font-family="Times,serif" font-size="14.00">type</text>
</g>
<!-- description -->
<g id="node6" class="node">
<title>description</title>
<ellipse fill="none" stroke="blue" cx="569" cy="-18" rx="75.29" ry="18"/>
<text text-anchor="middle" x="569" y="-14.3" font-family="Times,serif" font-size="14.00">narrative text</text>
</g>
<!-- pathological process exposure&#45;&gt;description -->
<g id="edge5" class="edge">
<title>pathological process exposure&#45;&gt;description</title>
<path fill="none" stroke="blue" d="M868.11,-96.25C788.16,-90.47 694.61,-81.43 656,-69 636.13,-62.61 615.8,-51.24 599.79,-40.97"/>
<polygon fill="blue" stroke="blue" points="601.65,-38 591.38,-35.41 597.79,-43.84 601.65,-38"/>
<text text-anchor="middle" x="696.5" y="-57.8" font-family="Times,serif" font-size="14.00">description</text>
</g>
<!-- has attribute -->
<g id="node7" class="node">
<title>has attribute</title>
<ellipse fill="none" stroke="blue" cx="714" cy="-18" rx="51.99" ry="18"/>
<text text-anchor="middle" x="714" y="-14.3" font-family="Times,serif" font-size="14.00">attribute</text>
</g>
<!-- pathological process exposure&#45;&gt;has attribute -->
<g id="edge6" class="edge">
<title>pathological process exposure&#45;&gt;has attribute</title>
<path fill="none" stroke="blue" d="M879.92,-94.17C830.66,-88.59 780.34,-80.4 759,-69 747.84,-63.04 738.07,-53.18 730.51,-43.78"/>
<polygon fill="blue" stroke="blue" points="733.27,-41.63 724.46,-35.75 727.68,-45.84 733.27,-41.63"/>
<text text-anchor="middle" x="806" y="-57.8" font-family="Times,serif" font-size="14.00">has attribute</text>
</g>
<!-- provided by -->
<g id="node8" class="node">
<title>provided by</title>
<ellipse fill="none" stroke="blue" cx="822" cy="-18" rx="38.19" ry="18"/>
<text text-anchor="middle" x="822" y="-14.3" font-family="Times,serif" font-size="14.00">string</text>
</g>
<!-- pathological process exposure&#45;&gt;provided by -->
<g id="edge7" class="edge">
<title>pathological process exposure&#45;&gt;provided by</title>
<path fill="none" stroke="blue" d="M926.32,-89.31C909.16,-84.27 891.44,-77.64 876,-69 863.68,-62.11 851.93,-51.86 842.57,-42.42"/>
<polygon fill="blue" stroke="blue" points="845.03,-39.94 835.59,-35.12 839.96,-44.77 845.03,-39.94"/>
<text text-anchor="middle" x="918.5" y="-57.8" font-family="Times,serif" font-size="14.00">provided by</text>
</g>
<!-- xref -->
<g id="node9" class="node">
<title>xref</title>
<ellipse fill="none" stroke="blue" cx="936" cy="-18" rx="57.39" ry="18"/>
<text text-anchor="middle" x="936" y="-14.3" font-family="Times,serif" font-size="14.00">uriorcurie</text>
</g>
<!-- pathological process exposure&#45;&gt;xref -->
<g id="edge8" class="edge">
<title>pathological process exposure&#45;&gt;xref</title>
<path fill="none" stroke="blue" d="M987.84,-86.8C978.38,-74.43 965.48,-57.55 954.91,-43.74"/>
<polygon fill="blue" stroke="blue" points="957.54,-41.41 948.69,-35.6 951.98,-45.67 957.54,-41.41"/>
<text text-anchor="middle" x="987.5" y="-57.8" font-family="Times,serif" font-size="14.00">xref</text>
</g>
<!-- category -->
<g id="node10" class="node">
<title>category</title>
<ellipse fill="none" stroke="black" cx="1063" cy="-18" rx="51.19" ry="18"/>
<text text-anchor="middle" x="1063" y="-14.3" font-family="Times,serif" font-size="14.00">category</text>
</g>
<!-- pathological process exposure&#45;&gt;category -->
<g id="edge9" class="edge">
<title>pathological process exposure&#45;&gt;category</title>
<path fill="none" stroke="blue" d="M1013.54,-86.8C1022.57,-74.43 1034.87,-57.55 1044.95,-43.74"/>
<polygon fill="blue" stroke="blue" points="1047.82,-45.74 1050.89,-35.6 1042.17,-41.61 1047.82,-45.74"/>
<text text-anchor="middle" x="1067.5" y="-57.8" font-family="Times,serif" font-size="14.00">category</text>
</g>
<!-- name -->
<g id="node12" class="node">
<title>name</title>
<ellipse fill="none" stroke="black" cx="1169" cy="-18" rx="36.29" ry="18"/>
<text text-anchor="middle" x="1169" y="-14.3" font-family="Times,serif" font-size="14.00">name</text>
</g>
<!-- pathological process exposure&#45;&gt;name -->
<g id="edge10" class="edge">
<title>pathological process exposure&#45;&gt;name</title>
<path fill="none" stroke="blue" d="M1057.4,-88.21C1072.61,-83 1088.78,-76.57 1103,-69 1117.63,-61.2 1132.48,-50.28 1144.38,-40.63"/>
<polygon fill="blue" stroke="blue" points="1146.65,-43.29 1152.11,-34.21 1142.18,-37.91 1146.65,-43.29"/>
<text text-anchor="middle" x="1147" y="-57.8" font-family="Times,serif" font-size="14.00">name</text>
</g>
<!-- has attribute type -->
<g id="node14" class="node">
<title>has attribute type</title>
<ellipse fill="none" stroke="blue" cx="1300" cy="-18" rx="76.89" ry="18"/>
<text text-anchor="middle" x="1300" y="-14.3" font-family="Times,serif" font-size="14.00">ontology class</text>
</g>
<!-- pathological process exposure&#45;&gt;has attribute type -->
<g id="edge11" class="edge">
<title>pathological process exposure&#45;&gt;has attribute type</title>
<path fill="none" stroke="blue" d="M1083.82,-89.82C1111.76,-84.28 1142.96,-77.26 1171,-69 1199.88,-60.49 1231.41,-48.33 1256.07,-38.13"/>
<polygon fill="blue" stroke="blue" points="1257.62,-41.27 1265.5,-34.18 1254.92,-34.81 1257.62,-41.27"/>
<text text-anchor="middle" x="1280" y="-57.8" font-family="Times,serif" font-size="14.00">has attribute type</text>
</g>
<!-- has quantitative value -->
<g id="node15" class="node">
<title>has quantitative value</title>
<ellipse fill="none" stroke="blue" cx="1472" cy="-18" rx="77.19" ry="18"/>
<text text-anchor="middle" x="1472" y="-14.3" font-family="Times,serif" font-size="14.00">quantity value</text>
</g>
<!-- pathological process exposure&#45;&gt;has quantitative value -->
<g id="edge12" class="edge">
<title>pathological process exposure&#45;&gt;has quantitative value</title>
<path fill="none" stroke="blue" d="M1108.99,-92.37C1126.38,-90.54 1144.18,-88.7 1161,-87 1244.51,-78.57 1267.48,-89.02 1349,-69 1377.52,-61.99 1408.13,-49.57 1431.68,-38.86"/>
<polygon fill="blue" stroke="blue" points="1433.38,-41.93 1440.98,-34.55 1430.44,-35.58 1433.38,-41.93"/>
<text text-anchor="middle" x="1475" y="-57.8" font-family="Times,serif" font-size="14.00">has quantitative value</text>
</g>
<!-- has qualitative value -->
<g id="node16" class="node">
<title>has qualitative value</title>
<ellipse fill="none" stroke="blue" cx="1637" cy="-18" rx="69.59" ry="18"/>
<text text-anchor="middle" x="1637" y="-14.3" font-family="Times,serif" font-size="14.00">named thing</text>
</g>
<!-- pathological process exposure&#45;&gt;has qualitative value -->
<g id="edge13" class="edge">
<title>pathological process exposure&#45;&gt;has qualitative value</title>
<path fill="none" stroke="blue" d="M1105.91,-91.93C1124.26,-90.09 1143.17,-88.35 1161,-87 1249.28,-80.32 1474.62,-95.81 1559,-69 1577.15,-63.23 1595.2,-52.1 1609.36,-41.8"/>
<polygon fill="blue" stroke="blue" points="1611.76,-44.37 1617.63,-35.55 1607.54,-38.79 1611.76,-44.37"/>
<text text-anchor="middle" x="1666.5" y="-57.8" font-family="Times,serif" font-size="14.00">has qualitative value</text>
</g>
<!-- iri -->
<g id="node17" class="node">
<title>iri</title>
<ellipse fill="none" stroke="blue" cx="1788" cy="-18" rx="44.39" ry="18"/>
<text text-anchor="middle" x="1788" y="-14.3" font-family="Times,serif" font-size="14.00">iri type</text>
</g>
<!-- pathological process exposure&#45;&gt;iri -->
<g id="edge14" class="edge">
<title>pathological process exposure&#45;&gt;iri</title>
<path fill="none" stroke="blue" d="M1104.61,-91.84C1123.35,-89.97 1142.74,-88.25 1161,-87 1225.76,-82.57 1686.42,-96.98 1745,-69 1756.34,-63.58 1765.87,-53.61 1773.04,-43.99"/>
<polygon fill="blue" stroke="blue" points="1775.93,-45.96 1778.74,-35.75 1770.17,-41.99 1775.93,-45.96"/>
<text text-anchor="middle" x="1772" y="-57.8" font-family="Times,serif" font-size="14.00">iri</text>
</g>
<!-- source -->
<g id="node18" class="node">
<title>source</title>
<ellipse fill="none" stroke="blue" cx="1889" cy="-18" rx="38.19" ry="18"/>
<text text-anchor="middle" x="1889" y="-14.3" font-family="Times,serif" font-size="14.00">string</text>
</g>
<!-- pathological process exposure&#45;&gt;source -->
<g id="edge15" class="edge">
<title>pathological process exposure&#45;&gt;source</title>
<path fill="none" stroke="blue" d="M1104.61,-91.82C1123.35,-89.95 1142.74,-88.23 1161,-87 1299.18,-77.68 1649.35,-101.47 1784,-69 1810.38,-62.64 1838,-49.17 1858.29,-37.82"/>
<polygon fill="blue" stroke="blue" points="1860.14,-40.79 1867.07,-32.78 1856.65,-34.72 1860.14,-40.79"/>
<text text-anchor="middle" x="1850" y="-57.8" font-family="Times,serif" font-size="14.00">source</text>
</g>
<!-- timepoint -->
<g id="node19" class="node">
<title>timepoint</title>
<ellipse fill="none" stroke="blue" cx="2001" cy="-18" rx="55.49" ry="18"/>
<text text-anchor="middle" x="2001" y="-14.3" font-family="Times,serif" font-size="14.00">time type</text>
</g>
<!-- pathological process exposure&#45;&gt;timepoint -->
<g id="edge16" class="edge">
<title>pathological process exposure&#45;&gt;timepoint</title>
<path fill="none" stroke="blue" d="M1104.17,-91.8C1123.05,-89.92 1142.6,-88.21 1161,-87 1320.04,-76.57 1721.97,-101.54 1878,-69 1908.08,-62.73 1940.18,-49.43 1964.05,-38.12"/>
<polygon fill="blue" stroke="blue" points="1965.61,-41.25 1973.09,-33.75 1962.56,-34.95 1965.61,-41.25"/>
<text text-anchor="middle" x="1962" y="-57.8" font-family="Times,serif" font-size="14.00">timepoint</text>
</g>
<!-- named thing_category -->
<g id="node11" class="node">
<title>named thing_category</title>
<ellipse fill="none" stroke="blue" cx="1245" cy="-105" rx="74.99" ry="18"/>
<text text-anchor="middle" x="1245" y="-101.3" font-family="Times,serif" font-size="14.00">category type</text>
</g>
<!-- attribute_name -->
<g id="node13" class="node">
<title>attribute_name</title>
<ellipse fill="none" stroke="blue" cx="1394" cy="-105" rx="56.59" ry="18"/>
<text text-anchor="middle" x="1394" y="-101.3" font-family="Times,serif" font-size="14.00">label type</text>
</g>
</g>
</svg>
