<?xml version="1.0" encoding="UTF-8" standalone="no"?>
<!DOCTYPE svg PUBLIC "-//W3C//DTD SVG 1.1//EN"
 "http://www.w3.org/Graphics/SVG/1.1/DTD/svg11.dtd">
<!-- Generated by graphviz version 2.44.1 (20200629.0846)
 -->
<!-- Pages: 1 -->
<svg width="1570pt" height="131pt"
 viewBox="0.00 0.00 1569.88 131.00" xmlns="http://www.w3.org/2000/svg" xmlns:xlink="http://www.w3.org/1999/xlink">
<g id="graph0" class="graph" transform="scale(1 1) rotate(0) translate(4 127)">
<polygon fill="white" stroke="transparent" points="-4,4 -4,-127 1565.88,-127 1565.88,4 -4,4"/>
<!-- pathological anatomical exposure -->
<g id="node1" class="node">
<title>pathological anatomical exposure</title>
<ellipse fill="none" stroke="black" cx="835.69" cy="-105" rx="129.98" ry="18"/>
<text text-anchor="middle" x="835.69" y="-101.3" font-family="Times,serif" font-size="14.00">pathological anatomical exposure</text>
</g>
<!-- pathological anatomical structure -->
<g id="node2" class="node">
<title>pathological anatomical structure</title>
<ellipse fill="none" stroke="black" cx="128.69" cy="-18" rx="128.88" ry="18"/>
<text text-anchor="middle" x="128.69" y="-14.3" font-family="Times,serif" font-size="14.00">pathological anatomical structure</text>
</g>
<!-- pathological anatomical exposure&#45;&gt;pathological anatomical structure -->
<g id="edge1" class="edge">
<title>pathological anatomical exposure&#45;&gt;pathological anatomical structure</title>
<path fill="none" stroke="black" d="M722.38,-96.14C643.06,-90.11 534.72,-80.82 439.69,-69 363.09,-59.47 276.42,-45.25 214.07,-34.41"/>
<polygon fill="black" stroke="black" points="214.34,-30.9 203.89,-32.63 213.14,-37.8 214.34,-30.9"/>
<text text-anchor="middle" x="450.69" y="-57.8" font-family="Times,serif" font-size="14.00">is_a</text>
</g>
<!-- exposure event -->
<g id="node3" class="node">
<title>exposure event</title>
<ellipse fill="none" stroke="black" cx="338.69" cy="-18" rx="63.89" ry="18"/>
<text text-anchor="middle" x="338.69" y="-14.3" font-family="Times,serif" font-size="14.00">exposure event</text>
</g>
<!-- pathological anatomical exposure&#45;&gt;exposure event -->
<g id="edge2" class="edge">
<title>pathological anatomical exposure&#45;&gt;exposure event</title>
<path fill="none" stroke="black" d="M725.35,-95.38C666.39,-89.79 592.74,-81.23 527.69,-69 480.38,-60.1 427.48,-45.72 389.71,-34.66"/>
<polygon fill="black" stroke="black" points="390.54,-31.25 379.96,-31.78 388.56,-37.97 390.54,-31.25"/>
<text text-anchor="middle" x="539.69" y="-57.8" font-family="Times,serif" font-size="14.00">uses</text>
</g>
<!-- id -->
<g id="node4" class="node">
<title>id</title>
<ellipse fill="none" stroke="blue" cx="450.69" cy="-18" rx="30.59" ry="18"/>
<text text-anchor="middle" x="450.69" y="-14.3" font-family="Times,serif" font-size="14.00">string</text>
</g>
<!-- pathological anatomical exposure&#45;&gt;id -->
<g id="edge3" class="edge">
<title>pathological anatomical exposure&#45;&gt;id</title>
<path fill="none" stroke="blue" d="M742.46,-92.36C672.05,-81.97 573.7,-63.99 490.69,-36 488.31,-35.2 485.88,-34.32 483.44,-33.39"/>
<polygon fill="blue" stroke="blue" points="484.73,-30.14 474.15,-29.68 482.13,-36.64 484.73,-30.14"/>
<text text-anchor="middle" x="618.19" y="-57.8" font-family="Times,serif" font-size="14.00">id</text>
</g>
<!-- iri -->
<g id="node5" class="node">
<title>iri</title>
<ellipse fill="none" stroke="blue" cx="535.69" cy="-18" rx="36.29" ry="18"/>
<text text-anchor="middle" x="535.69" y="-14.3" font-family="Times,serif" font-size="14.00">iri type</text>
</g>
<!-- pathological anatomical exposure&#45;&gt;iri -->
<g id="edge4" class="edge">
<title>pathological anatomical exposure&#45;&gt;iri</title>
<path fill="none" stroke="blue" d="M769.88,-89.43C744.14,-83.48 714.44,-76.28 687.69,-69 639.67,-55.93 627.77,-52.13 580.69,-36 578.27,-35.17 575.78,-34.3 573.29,-33.4"/>
<polygon fill="blue" stroke="blue" points="574.27,-30.03 563.68,-29.88 571.86,-36.61 574.27,-30.03"/>
<text text-anchor="middle" x="694.19" y="-57.8" font-family="Times,serif" font-size="14.00">iri</text>
</g>
<!-- type -->
<g id="node6" class="node">
<title>type</title>
<ellipse fill="none" stroke="blue" cx="620.69" cy="-18" rx="30.59" ry="18"/>
<text text-anchor="middle" x="620.69" y="-14.3" font-family="Times,serif" font-size="14.00">string</text>
</g>
<!-- pathological anatomical exposure&#45;&gt;type -->
<g id="edge5" class="edge">
<title>pathological anatomical exposure&#45;&gt;type</title>
<path fill="none" stroke="blue" d="M791.09,-87.97C775.14,-82.13 757.06,-75.39 740.69,-69 704.86,-55.02 696.17,-50.86 660.69,-36 658.52,-35.09 656.28,-34.15 654.02,-33.2"/>
<polygon fill="blue" stroke="blue" points="655.36,-29.96 644.78,-29.29 652.63,-36.41 655.36,-29.96"/>
<text text-anchor="middle" x="752.69" y="-57.8" font-family="Times,serif" font-size="14.00">type</text>
</g>
<!-- name -->
<g id="node7" class="node">
<title>name</title>
<ellipse fill="none" stroke="blue" cx="714.69" cy="-18" rx="45.49" ry="18"/>
<text text-anchor="middle" x="714.69" y="-14.3" font-family="Times,serif" font-size="14.00">label type</text>
</g>
<!-- pathological anatomical exposure&#45;&gt;name -->
<g id="edge6" class="edge">
<title>pathological anatomical exposure&#45;&gt;name</title>
<path fill="none" stroke="blue" d="M811.78,-87.21C792.5,-73.66 765.27,-54.53 744.55,-39.98"/>
<polygon fill="blue" stroke="blue" points="746.31,-36.93 736.11,-34.05 742.28,-42.66 746.31,-36.93"/>
<text text-anchor="middle" x="798.19" y="-57.8" font-family="Times,serif" font-size="14.00">name</text>
</g>
<!-- description -->
<g id="node8" class="node">
<title>description</title>
<ellipse fill="none" stroke="blue" cx="835.69" cy="-18" rx="57.69" ry="18"/>
<text text-anchor="middle" x="835.69" y="-14.3" font-family="Times,serif" font-size="14.00">narrative text</text>
</g>
<!-- pathological anatomical exposure&#45;&gt;description -->
<g id="edge7" class="edge">
<title>pathological anatomical exposure&#45;&gt;description</title>
<path fill="none" stroke="blue" d="M835.69,-86.8C835.69,-75.16 835.69,-59.55 835.69,-46.24"/>
<polygon fill="blue" stroke="blue" points="839.19,-46.18 835.69,-36.18 832.19,-46.18 839.19,-46.18"/>
<text text-anchor="middle" x="866.19" y="-57.8" font-family="Times,serif" font-size="14.00">description</text>
</g>
<!-- source -->
<g id="node9" class="node">
<title>source</title>
<ellipse fill="none" stroke="blue" cx="956.69" cy="-18" rx="45.49" ry="18"/>
<text text-anchor="middle" x="956.69" y="-14.3" font-family="Times,serif" font-size="14.00">label type</text>
</g>
<!-- pathological anatomical exposure&#45;&gt;source -->
<g id="edge8" class="edge">
<title>pathological anatomical exposure&#45;&gt;source</title>
<path fill="none" stroke="blue" d="M869.99,-87.47C880.16,-82.05 891.14,-75.69 900.69,-69 912.14,-60.97 923.83,-50.89 933.55,-41.88"/>
<polygon fill="blue" stroke="blue" points="936.02,-44.37 940.88,-34.95 931.21,-39.28 936.02,-44.37"/>
<text text-anchor="middle" x="936.69" y="-57.8" font-family="Times,serif" font-size="14.00">source</text>
</g>
<!-- provided by -->
<g id="node10" class="node">
<title>provided by</title>
<ellipse fill="none" stroke="blue" cx="1049.69" cy="-18" rx="29.8" ry="18"/>
<text text-anchor="middle" x="1049.69" y="-14.3" font-family="Times,serif" font-size="14.00">agent</text>
</g>
<!-- pathological anatomical exposure&#45;&gt;provided by -->
<g id="edge9" class="edge">
<title>pathological anatomical exposure&#45;&gt;provided by</title>
<path fill="none" stroke="blue" d="M898.24,-89.13C917.9,-83.68 939.49,-76.89 958.69,-69 980.41,-60.07 1003.6,-47.28 1021.12,-36.87"/>
<polygon fill="blue" stroke="blue" points="1022.98,-39.84 1029.74,-31.68 1019.37,-33.85 1022.98,-39.84"/>
<text text-anchor="middle" x="1022.69" y="-57.8" font-family="Times,serif" font-size="14.00">provided by</text>
</g>
<!-- category -->
<g id="node11" class="node">
<title>category</title>
<ellipse fill="none" stroke="black" cx="1138.69" cy="-18" rx="40.89" ry="18"/>
<text text-anchor="middle" x="1138.69" y="-14.3" font-family="Times,serif" font-size="14.00">category</text>
</g>
<!-- pathological anatomical exposure&#45;&gt;category -->
<g id="edge10" class="edge">
<title>pathological anatomical exposure&#45;&gt;category</title>
<path fill="none" stroke="blue" d="M932.06,-92.88C981.63,-86.38 1036.43,-77.74 1059.69,-69 1078.06,-62.09 1096.7,-50.56 1111.25,-40.31"/>
<polygon fill="blue" stroke="blue" points="1113.71,-42.85 1119.75,-34.14 1109.6,-37.18 1113.71,-42.85"/>
<text text-anchor="middle" x="1113.19" y="-57.8" font-family="Times,serif" font-size="14.00">category</text>
</g>
<!-- has attribute -->
<g id="node13" class="node">
<title>has attribute</title>
<ellipse fill="none" stroke="black" cx="1251.69" cy="-18" rx="53.89" ry="18"/>
<text text-anchor="middle" x="1251.69" y="-14.3" font-family="Times,serif" font-size="14.00">has attribute</text>
</g>
<!-- pathological anatomical exposure&#45;&gt;has attribute -->
<g id="edge11" class="edge">
<title>pathological anatomical exposure&#45;&gt;has attribute</title>
<path fill="none" stroke="blue" d="M929.13,-92.39C944.35,-90.55 959.96,-88.7 974.69,-87 1048.41,-78.5 1069.08,-88.48 1140.69,-69 1166.98,-61.85 1194.94,-49.22 1216.22,-38.44"/>
<polygon fill="blue" stroke="blue" points="1217.93,-41.5 1225.21,-33.8 1214.72,-35.28 1217.93,-41.5"/>
<text text-anchor="middle" x="1215.19" y="-57.8" font-family="Times,serif" font-size="14.00">has attribute</text>
</g>
<!-- in taxon -->
<g id="node15" class="node">
<title>in taxon</title>
<ellipse fill="none" stroke="blue" cx="1389.69" cy="-18" rx="65.79" ry="18"/>
<text text-anchor="middle" x="1389.69" y="-14.3" font-family="Times,serif" font-size="14.00">organism taxon</text>
</g>
<!-- pathological anatomical exposure&#45;&gt;in taxon -->
<g id="edge12" class="edge">
<title>pathological anatomical exposure&#45;&gt;in taxon</title>
<path fill="none" stroke="blue" d="M926.83,-92.1C942.76,-90.23 959.2,-88.45 974.69,-87 1097.97,-75.48 1131.53,-94.48 1252.69,-69 1285.68,-62.06 1321.41,-48.81 1348.11,-37.7"/>
<polygon fill="blue" stroke="blue" points="1349.67,-40.84 1357.52,-33.72 1346.94,-34.39 1349.67,-40.84"/>
<text text-anchor="middle" x="1326.19" y="-57.8" font-family="Times,serif" font-size="14.00">in taxon</text>
</g>
<!-- timepoint -->
<g id="node16" class="node">
<title>timepoint</title>
<ellipse fill="none" stroke="blue" cx="1517.69" cy="-18" rx="44.39" ry="18"/>
<text text-anchor="middle" x="1517.69" y="-14.3" font-family="Times,serif" font-size="14.00">time type</text>
</g>
<!-- pathological anatomical exposure&#45;&gt;timepoint -->
<g id="edge13" class="edge">
<title>pathological anatomical exposure&#45;&gt;timepoint</title>
<path fill="none" stroke="blue" d="M925.69,-92.01C941.97,-90.12 958.82,-88.35 974.69,-87 1142.28,-72.78 1186.84,-96.97 1352.69,-69 1396.02,-61.69 1443.92,-46.32 1476.89,-34.54"/>
<polygon fill="blue" stroke="blue" points="1478.42,-37.71 1486.63,-31.01 1476.03,-31.13 1478.42,-37.71"/>
<text text-anchor="middle" x="1439.19" y="-57.8" font-family="Times,serif" font-size="14.00">timepoint</text>
</g>
<!-- named thing_category -->
<g id="node12" class="node">
<title>named thing_category</title>
<ellipse fill="none" stroke="blue" cx="1038.69" cy="-105" rx="55.49" ry="18"/>
<text text-anchor="middle" x="1038.69" y="-101.3" font-family="Times,serif" font-size="14.00">named thing</text>
</g>
<!-- organismal entity_has attribute -->
<g id="node14" class="node">
<title>organismal entity_has attribute</title>
<ellipse fill="none" stroke="blue" cx="1152.69" cy="-105" rx="40.09" ry="18"/>
<text text-anchor="middle" x="1152.69" y="-101.3" font-family="Times,serif" font-size="14.00">attribute</text>
</g>
</g>
</svg>
