<?xml version="1.0" encoding="UTF-8" standalone="no"?>
<!DOCTYPE svg PUBLIC "-//W3C//DTD SVG 1.1//EN"
 "http://www.w3.org/Graphics/SVG/1.1/DTD/svg11.dtd">
<!-- Generated by graphviz version 2.44.0 (20200408.0750)
 -->
<!-- Pages: 1 -->
<svg width="880pt" height="131pt"
 viewBox="0.00 0.00 880.29 131.00" xmlns="http://www.w3.org/2000/svg" xmlns:xlink="http://www.w3.org/1999/xlink">
<g id="graph0" class="graph" transform="scale(1 1) rotate(0) translate(4 127)">
<polygon fill="white" stroke="transparent" points="-4,4 -4,-127 876.29,-127 876.29,4 -4,4"/>
<!-- phenotypic sex -->
<g id="node1" class="node">
<title>phenotypic sex</title>
<ellipse fill="none" stroke="black" cx="478.79" cy="-105" rx="63.89" ry="18"/>
<text text-anchor="middle" x="478.79" y="-101.3" font-family="Times,serif" font-size="14.00">phenotypic sex</text>
</g>
<!-- biological sex -->
<g id="node2" class="node">
<title>biological sex</title>
<ellipse fill="none" stroke="black" cx="59.79" cy="-18" rx="59.59" ry="18"/>
<text text-anchor="middle" x="59.79" y="-14.3" font-family="Times,serif" font-size="14.00">biological sex</text>
</g>
<!-- phenotypic sex&#45;&gt;biological sex -->
<g id="edge1" class="edge">
<title>phenotypic sex&#45;&gt;biological sex</title>
<path fill="none" stroke="black" d="M417.57,-99.95C361.2,-95.34 275.55,-86.13 202.79,-69 168.44,-60.91 130.82,-47.57 102.79,-36.7"/>
<polygon fill="black" stroke="black" points="103.88,-33.37 93.29,-32.97 101.32,-39.88 103.88,-33.37"/>
<text text-anchor="middle" x="213.79" y="-57.8" font-family="Times,serif" font-size="14.00">is_a</text>
</g>
<!-- has attribute type -->
<g id="node3" class="node">
<title>has attribute type</title>
<ellipse fill="none" stroke="blue" cx="199.79" cy="-18" rx="61.99" ry="18"/>
<text text-anchor="middle" x="199.79" y="-14.3" font-family="Times,serif" font-size="14.00">ontology class</text>
</g>
<!-- phenotypic sex&#45;&gt;has attribute type -->
<g id="edge2" class="edge">
<title>phenotypic sex&#45;&gt;has attribute type</title>
<path fill="none" stroke="blue" d="M418.43,-99.16C360.47,-93.75 277.6,-83.75 248.79,-69 236.96,-62.94 226.3,-52.93 217.96,-43.46"/>
<polygon fill="blue" stroke="blue" points="220.61,-41.17 211.53,-35.72 215.23,-45.65 220.61,-41.17"/>
<text text-anchor="middle" x="295.79" y="-57.8" font-family="Times,serif" font-size="14.00">has attribute type</text>
</g>
<!-- has quantitative value -->
<g id="node4" class="node">
<title>has quantitative value</title>
<ellipse fill="none" stroke="blue" cx="340.79" cy="-18" rx="61.19" ry="18"/>
<text text-anchor="middle" x="340.79" y="-14.3" font-family="Times,serif" font-size="14.00">quantity value</text>
</g>
<!-- phenotypic sex&#45;&gt;has quantitative value -->
<g id="edge3" class="edge">
<title>phenotypic sex&#45;&gt;has quantitative value</title>
<path fill="none" stroke="blue" d="M418.54,-98.98C396.3,-94.28 372.47,-85.44 355.79,-69 349.71,-63.01 346.08,-54.65 343.91,-46.48"/>
<polygon fill="blue" stroke="blue" points="347.29,-45.54 341.88,-36.43 340.43,-46.93 347.29,-45.54"/>
<text text-anchor="middle" x="415.29" y="-57.8" font-family="Times,serif" font-size="14.00">has quantitative value</text>
</g>
<!-- has qualitative value -->
<g id="node5" class="node">
<title>has qualitative value</title>
<ellipse fill="none" stroke="blue" cx="478.79" cy="-18" rx="55.49" ry="18"/>
<text text-anchor="middle" x="478.79" y="-14.3" font-family="Times,serif" font-size="14.00">named thing</text>
</g>
<!-- phenotypic sex&#45;&gt;has qualitative value -->
<g id="edge4" class="edge">
<title>phenotypic sex&#45;&gt;has qualitative value</title>
<path fill="none" stroke="blue" d="M478.79,-86.8C478.79,-75.16 478.79,-59.55 478.79,-46.24"/>
<polygon fill="blue" stroke="blue" points="482.29,-46.18 478.79,-36.18 475.29,-46.18 482.29,-46.18"/>
<text text-anchor="middle" x="534.79" y="-57.8" font-family="Times,serif" font-size="14.00">has qualitative value</text>
</g>
<!-- id -->
<g id="node6" class="node">
<title>id</title>
<ellipse fill="none" stroke="blue" cx="597.79" cy="-18" rx="30.59" ry="18"/>
<text text-anchor="middle" x="597.79" y="-14.3" font-family="Times,serif" font-size="14.00">string</text>
</g>
<!-- phenotypic sex&#45;&gt;id -->
<g id="edge5" class="edge">
<title>phenotypic sex&#45;&gt;id</title>
<path fill="none" stroke="blue" d="M538.3,-98.57C558.12,-93.74 578.51,-84.93 591.79,-69 597.01,-62.74 599.22,-54.42 599.93,-46.36"/>
<polygon fill="blue" stroke="blue" points="603.43,-46.17 600.12,-36.11 596.44,-46.05 603.43,-46.17"/>
<text text-anchor="middle" x="604.29" y="-57.8" font-family="Times,serif" font-size="14.00">id</text>
</g>
<!-- name -->
<g id="node7" class="node">
<title>name</title>
<ellipse fill="none" stroke="blue" cx="691.79" cy="-18" rx="45.49" ry="18"/>
<text text-anchor="middle" x="691.79" y="-14.3" font-family="Times,serif" font-size="14.00">label type</text>
</g>
<!-- phenotypic sex&#45;&gt;name -->
<g id="edge6" class="edge">
<title>phenotypic sex&#45;&gt;name</title>
<path fill="none" stroke="blue" d="M530.72,-94.57C556.36,-88.91 587.39,-80.53 613.79,-69 631.25,-61.37 649.25,-50.1 663.55,-40.19"/>
<polygon fill="blue" stroke="blue" points="665.81,-42.88 671.94,-34.24 661.76,-37.17 665.81,-42.88"/>
<text text-anchor="middle" x="657.29" y="-57.8" font-family="Times,serif" font-size="14.00">name</text>
</g>
<!-- category -->
<g id="node8" class="node">
<title>category</title>
<ellipse fill="none" stroke="blue" cx="813.79" cy="-18" rx="58.49" ry="18"/>
<text text-anchor="middle" x="813.79" y="-14.3" font-family="Times,serif" font-size="14.00">category type</text>
</g>
<!-- phenotypic sex&#45;&gt;category -->
<g id="edge7" class="edge">
<title>phenotypic sex&#45;&gt;category</title>
<path fill="none" stroke="blue" d="M535.7,-96.64C575.59,-90.83 629.93,-81.59 676.79,-69 709.13,-60.31 744.63,-47.26 771.38,-36.66"/>
<polygon fill="blue" stroke="blue" points="772.84,-39.85 780.82,-32.89 770.23,-33.35 772.84,-39.85"/>
<text text-anchor="middle" x="746.29" y="-57.8" font-family="Times,serif" font-size="14.00">category</text>
</g>
</g>
</svg>
