<?xml version="1.0" encoding="UTF-8" standalone="no"?>
<!DOCTYPE svg PUBLIC "-//W3C//DTD SVG 1.1//EN"
 "http://www.w3.org/Graphics/SVG/1.1/DTD/svg11.dtd">
<!-- Generated by graphviz version 2.40.1 (20161225.0304)
 -->
<!-- Title: %3 Pages: 1 -->
<svg width="1262pt" height="131pt"
 viewBox="0.00 0.00 1262.03 131.00" xmlns="http://www.w3.org/2000/svg" xmlns:xlink="http://www.w3.org/1999/xlink">
<g id="graph0" class="graph" transform="scale(1 1) rotate(0) translate(4 127)">
<title>%3</title>
<polygon fill="#ffffff" stroke="transparent" points="-4,4 -4,-127 1258.034,-127 1258.034,4 -4,4"/>
<!-- phenotypic feature -->
<g id="node1" class="node">
<title>phenotypic feature</title>
<ellipse fill="none" stroke="#000000" cx="662.3899" cy="-105" rx="76.8869" ry="18"/>
<text text-anchor="middle" x="662.3899" y="-101.3" font-family="Times,serif" font-size="14.00" fill="#000000">phenotypic feature</text>
</g>
<!-- disease or phenotypic feature -->
<g id="node2" class="node">
<title>disease or phenotypic feature</title>
<ellipse fill="none" stroke="#000000" cx="114.3899" cy="-18" rx="114.2798" ry="18"/>
<text text-anchor="middle" x="114.3899" y="-14.3" font-family="Times,serif" font-size="14.00" fill="#000000">disease or phenotypic feature</text>
</g>
<!-- phenotypic feature&#45;&gt;disease or phenotypic feature -->
<g id="edge1" class="edge">
<title>phenotypic feature&#45;&gt;disease or phenotypic feature</title>
<path fill="none" stroke="#000000" d="M590.7208,-98.4212C528.5436,-92.2722 436.2309,-82.0819 356.3899,-69 299.4264,-59.6665 235.5527,-46.0712 187.736,-35.2642"/>
<polygon fill="#000000" stroke="#000000" points="188.3114,-31.8058 177.7844,-33.003 186.7603,-38.6318 188.3114,-31.8058"/>
<text text-anchor="middle" x="367.3899" y="-57.8" font-family="Times,serif" font-size="14.00" fill="#000000">is_a</text>
</g>
<!-- id -->
<g id="node3" class="node">
<title>id</title>
<ellipse fill="none" stroke="#0000ff" cx="277.3899" cy="-18" rx="30.5947" ry="18"/>
<text text-anchor="middle" x="277.3899" y="-14.3" font-family="Times,serif" font-size="14.00" fill="#000000">string</text>
</g>
<!-- phenotypic feature&#45;&gt;id -->
<g id="edge2" class="edge">
<title>phenotypic feature&#45;&gt;id</title>
<path fill="none" stroke="#0000ff" d="M593.4809,-96.9313C522.7587,-87.3373 410.2416,-68.3991 317.3899,-36 315.1452,-35.2168 312.8532,-34.3569 310.5587,-33.4507"/>
<polygon fill="#0000ff" stroke="#0000ff" points="311.8034,-30.1775 301.2276,-29.5424 309.099,-36.634 311.8034,-30.1775"/>
<text text-anchor="middle" x="434.8899" y="-57.8" font-family="Times,serif" font-size="14.00" fill="#000000">id</text>
</g>
<!-- iri -->
<g id="node4" class="node">
<title>iri</title>
<ellipse fill="none" stroke="#0000ff" cx="362.3899" cy="-18" rx="36.2938" ry="18"/>
<text text-anchor="middle" x="362.3899" y="-14.3" font-family="Times,serif" font-size="14.00" fill="#000000">iri type</text>
</g>
<!-- phenotypic feature&#45;&gt;iri -->
<g id="edge3" class="edge">
<title>phenotypic feature&#45;&gt;iri</title>
<path fill="none" stroke="#0000ff" d="M606.9776,-92.5121C578.8357,-85.9422 544.1725,-77.5008 513.3899,-69 465.8287,-55.8658 453.8875,-52.5086 407.3899,-36 404.8747,-35.107 402.2921,-34.159 399.6972,-33.1833"/>
<polygon fill="#0000ff" stroke="#0000ff" points="400.9355,-29.9097 390.3458,-29.5776 398.4171,-36.441 400.9355,-29.9097"/>
<text text-anchor="middle" x="519.8899" y="-57.8" font-family="Times,serif" font-size="14.00" fill="#000000">iri</text>
</g>
<!-- type -->
<g id="node5" class="node">
<title>type</title>
<ellipse fill="none" stroke="#0000ff" cx="447.3899" cy="-18" rx="30.5947" ry="18"/>
<text text-anchor="middle" x="447.3899" y="-14.3" font-family="Times,serif" font-size="14.00" fill="#000000">string</text>
</g>
<!-- phenotypic feature&#45;&gt;type -->
<g id="edge4" class="edge">
<title>phenotypic feature&#45;&gt;type</title>
<path fill="none" stroke="#0000ff" d="M621.1397,-89.6658C604.414,-83.3709 584.9386,-75.9428 567.3899,-69 531.6253,-54.8506 522.7091,-51.2269 487.3899,-36 485.3444,-35.1182 483.2442,-34.2029 481.1284,-33.2732"/>
<polygon fill="#0000ff" stroke="#0000ff" points="482.4343,-30.0236 471.8743,-29.1653 479.5942,-36.4216 482.4343,-30.0236"/>
<text text-anchor="middle" x="579.3899" y="-57.8" font-family="Times,serif" font-size="14.00" fill="#000000">type</text>
</g>
<!-- name -->
<g id="node6" class="node">
<title>name</title>
<ellipse fill="none" stroke="#0000ff" cx="541.3899" cy="-18" rx="45.4919" ry="18"/>
<text text-anchor="middle" x="541.3899" y="-14.3" font-family="Times,serif" font-size="14.00" fill="#000000">label type</text>
</g>
<!-- phenotypic feature&#45;&gt;name -->
<g id="edge5" class="edge">
<title>phenotypic feature&#45;&gt;name</title>
<path fill="none" stroke="#0000ff" d="M638.4841,-87.8116C619.3557,-74.0581 592.4095,-54.6835 571.7556,-39.8332"/>
<polygon fill="#0000ff" stroke="#0000ff" points="573.7763,-36.9754 563.6139,-33.9793 569.6899,-42.6588 573.7763,-36.9754"/>
<text text-anchor="middle" x="624.8899" y="-57.8" font-family="Times,serif" font-size="14.00" fill="#000000">name</text>
</g>
<!-- description -->
<g id="node7" class="node">
<title>description</title>
<ellipse fill="none" stroke="#0000ff" cx="662.3899" cy="-18" rx="57.6901" ry="18"/>
<text text-anchor="middle" x="662.3899" y="-14.3" font-family="Times,serif" font-size="14.00" fill="#000000">narrative text</text>
</g>
<!-- phenotypic feature&#45;&gt;description -->
<g id="edge6" class="edge">
<title>phenotypic feature&#45;&gt;description</title>
<path fill="none" stroke="#0000ff" d="M662.3899,-86.9735C662.3899,-75.1918 662.3899,-59.5607 662.3899,-46.1581"/>
<polygon fill="#0000ff" stroke="#0000ff" points="665.8899,-46.0033 662.3899,-36.0034 658.8899,-46.0034 665.8899,-46.0033"/>
<text text-anchor="middle" x="692.8899" y="-57.8" font-family="Times,serif" font-size="14.00" fill="#000000">description</text>
</g>
<!-- source -->
<g id="node8" class="node">
<title>source</title>
<ellipse fill="none" stroke="#0000ff" cx="783.3899" cy="-18" rx="45.4919" ry="18"/>
<text text-anchor="middle" x="783.3899" y="-14.3" font-family="Times,serif" font-size="14.00" fill="#000000">label type</text>
</g>
<!-- phenotypic feature&#45;&gt;source -->
<g id="edge7" class="edge">
<title>phenotypic feature&#45;&gt;source</title>
<path fill="none" stroke="#0000ff" d="M695.3639,-88.6689C705.9134,-82.942 717.4319,-76.1429 727.3899,-69 738.5191,-61.0169 749.8622,-51.0875 759.4029,-42.1171"/>
<polygon fill="#0000ff" stroke="#0000ff" points="761.8364,-44.6327 766.6294,-35.184 756.9903,-39.5814 761.8364,-44.6327"/>
<text text-anchor="middle" x="763.3899" y="-57.8" font-family="Times,serif" font-size="14.00" fill="#000000">source</text>
</g>
<!-- provided by -->
<g id="node9" class="node">
<title>provided by</title>
<ellipse fill="none" stroke="#0000ff" cx="876.3899" cy="-18" rx="29.795" ry="18"/>
<text text-anchor="middle" x="876.3899" y="-14.3" font-family="Times,serif" font-size="14.00" fill="#000000">agent</text>
</g>
<!-- phenotypic feature&#45;&gt;provided by -->
<g id="edge8" class="edge">
<title>phenotypic feature&#45;&gt;provided by</title>
<path fill="none" stroke="#0000ff" d="M716.2778,-92.0659C738.1178,-86.0973 763.3386,-78.2654 785.3899,-69 806.8593,-59.9791 829.7198,-47.1534 847.1573,-36.621"/>
<polygon fill="#0000ff" stroke="#0000ff" points="849.0503,-39.5659 855.7455,-31.3546 845.391,-33.5985 849.0503,-39.5659"/>
<text text-anchor="middle" x="849.3899" y="-57.8" font-family="Times,serif" font-size="14.00" fill="#000000">provided by</text>
</g>
<!-- has attribute -->
<g id="node10" class="node">
<title>has attribute</title>
<ellipse fill="none" stroke="#0000ff" cx="964.3899" cy="-18" rx="40.0939" ry="18"/>
<text text-anchor="middle" x="964.3899" y="-14.3" font-family="Times,serif" font-size="14.00" fill="#000000">attribute</text>
</g>
<!-- phenotypic feature&#45;&gt;has attribute -->
<g id="edge9" class="edge">
<title>phenotypic feature&#45;&gt;has attribute</title>
<path fill="none" stroke="#0000ff" d="M718.2476,-92.6609C728.2586,-90.6346 738.6143,-88.6581 748.3899,-87 809.3718,-76.6567 828.3806,-90.464 886.3899,-69 904.4848,-62.3047 922.6469,-50.7806 936.8872,-40.3792"/>
<polygon fill="#0000ff" stroke="#0000ff" points="939.3349,-42.917 945.2113,-34.1011 935.1199,-37.3283 939.3349,-42.917"/>
<text text-anchor="middle" x="949.8899" y="-57.8" font-family="Times,serif" font-size="14.00" fill="#000000">has attribute</text>
</g>
<!-- category -->
<g id="node11" class="node">
<title>category</title>
<ellipse fill="none" stroke="#000000" cx="1063.3899" cy="-18" rx="40.8928" ry="18"/>
<text text-anchor="middle" x="1063.3899" y="-14.3" font-family="Times,serif" font-size="14.00" fill="#000000">category</text>
</g>
<!-- phenotypic feature&#45;&gt;category -->
<g id="edge10" class="edge">
<title>phenotypic feature&#45;&gt;category</title>
<path fill="none" stroke="#0000ff" d="M717.2545,-92.3979C727.5575,-90.3499 738.2707,-88.4337 748.3899,-87 853.8595,-72.0566 886.7221,-103.8305 987.3899,-69 1005.4214,-62.7612 1023.2583,-51.1544 1037.116,-40.588"/>
<polygon fill="#0000ff" stroke="#0000ff" points="1039.5218,-43.1478 1045.1964,-34.2007 1035.1809,-37.6563 1039.5218,-43.1478"/>
<text text-anchor="middle" x="1040.8899" y="-57.8" font-family="Times,serif" font-size="14.00" fill="#000000">category</text>
</g>
<!-- in taxon -->
<g id="node13" class="node">
<title>in taxon</title>
<ellipse fill="none" stroke="#0000ff" cx="1188.3899" cy="-18" rx="65.7887" ry="18"/>
<text text-anchor="middle" x="1188.3899" y="-14.3" font-family="Times,serif" font-size="14.00" fill="#000000">organism taxon</text>
</g>
<!-- phenotypic feature&#45;&gt;in taxon -->
<g id="edge11" class="edge">
<title>phenotypic feature&#45;&gt;in taxon</title>
<path fill="none" stroke="#0000ff" d="M717.233,-92.2407C727.5381,-90.208 738.2575,-88.3376 748.3899,-87 889.6116,-68.3564 929.6625,-101.3403 1068.3899,-69 1096.4852,-62.4504 1126.3465,-49.7828 1149.2529,-38.7117"/>
<polygon fill="#0000ff" stroke="#0000ff" points="1150.8829,-41.8104 1158.302,-34.2468 1147.7855,-35.533 1150.8829,-41.8104"/>
<text text-anchor="middle" x="1135.8899" y="-57.8" font-family="Times,serif" font-size="14.00" fill="#000000">in taxon</text>
</g>
<!-- named thing_category -->
<g id="node12" class="node">
<title>named thing_category</title>
<ellipse fill="none" stroke="#0000ff" cx="812.3899" cy="-105" rx="55.4913" ry="18"/>
<text text-anchor="middle" x="812.3899" y="-101.3" font-family="Times,serif" font-size="14.00" fill="#000000">named thing</text>
</g>
</g>
</svg>
