<?xml version="1.0" encoding="UTF-8" standalone="no"?>
<!DOCTYPE svg PUBLIC "-//W3C//DTD SVG 1.1//EN"
 "http://www.w3.org/Graphics/SVG/1.1/DTD/svg11.dtd">
<!-- Generated by graphviz version 2.43.0 (0)
 -->
<!-- Title: %3 Pages: 1 -->
<svg width="1557pt" height="131pt"
 viewBox="0.00 0.00 1557.03 131.00" xmlns="http://www.w3.org/2000/svg" xmlns:xlink="http://www.w3.org/1999/xlink">
<g id="graph0" class="graph" transform="scale(1 1) rotate(0) translate(4 127)">
<title>%3</title>
<polygon fill="white" stroke="transparent" points="-4,4 -4,-127 1553.03,-127 1553.03,4 -4,4"/>
<!-- phenotypic feature -->
<g id="node1" class="node">
<title>phenotypic feature</title>
<ellipse fill="none" stroke="black" cx="818.84" cy="-105" rx="98.58" ry="18"/>
<text text-anchor="middle" x="818.84" y="-101.3" font-family="Times,serif" font-size="14.00">phenotypic feature</text>
</g>
<!-- disease or phenotypic feature -->
<g id="node2" class="node">
<title>disease or phenotypic feature</title>
<ellipse fill="none" stroke="black" cx="148.84" cy="-18" rx="148.67" ry="18"/>
<text text-anchor="middle" x="148.84" y="-14.3" font-family="Times,serif" font-size="14.00">disease or phenotypic feature</text>
</g>
<!-- phenotypic feature&#45;&gt;disease or phenotypic feature -->
<g id="edge1" class="edge">
<title>phenotypic feature&#45;&gt;disease or phenotypic feature</title>
<path fill="none" stroke="black" d="M729.3,-97.32C654.24,-91.29 544.33,-81.46 448.84,-69 376.95,-59.62 295.87,-45.92 236.14,-35.23"/>
<polygon fill="black" stroke="black" points="236.46,-31.73 226,-33.41 235.22,-38.62 236.46,-31.73"/>
<text text-anchor="middle" x="462.84" y="-57.8" font-family="Times,serif" font-size="14.00">is_a</text>
</g>
<!-- id -->
<g id="node3" class="node">
<title>id</title>
<ellipse fill="none" stroke="blue" cx="353.84" cy="-18" rx="38.19" ry="18"/>
<text text-anchor="middle" x="353.84" y="-14.3" font-family="Times,serif" font-size="14.00">string</text>
</g>
<!-- phenotypic feature&#45;&gt;id -->
<g id="edge2" class="edge">
<title>phenotypic feature&#45;&gt;id</title>
<path fill="none" stroke="blue" d="M733.34,-95.83C648.16,-86.35 514.24,-67.8 401.84,-36 398.73,-35.12 395.54,-34.15 392.34,-33.12"/>
<polygon fill="blue" stroke="blue" points="393.43,-29.8 382.83,-29.95 391.21,-36.44 393.43,-29.8"/>
<text text-anchor="middle" x="544.84" y="-57.8" font-family="Times,serif" font-size="14.00">id</text>
</g>
<!-- iri -->
<g id="node4" class="node">
<title>iri</title>
<ellipse fill="none" stroke="blue" cx="454.84" cy="-18" rx="44.39" ry="18"/>
<text text-anchor="middle" x="454.84" y="-14.3" font-family="Times,serif" font-size="14.00">iri type</text>
</g>
<!-- phenotypic feature&#45;&gt;iri -->
<g id="edge3" class="edge">
<title>phenotypic feature&#45;&gt;iri</title>
<path fill="none" stroke="blue" d="M750.02,-92.06C715.35,-85.75 672.74,-77.56 634.84,-69 578.37,-56.25 564.46,-52.03 508.84,-36 505.32,-34.99 501.69,-33.91 498.05,-32.81"/>
<polygon fill="blue" stroke="blue" points="499.05,-29.45 488.46,-29.86 496.99,-36.15 499.05,-29.45"/>
<text text-anchor="middle" x="642.84" y="-57.8" font-family="Times,serif" font-size="14.00">iri</text>
</g>
<!-- type -->
<g id="node5" class="node">
<title>type</title>
<ellipse fill="none" stroke="blue" cx="555.84" cy="-18" rx="38.19" ry="18"/>
<text text-anchor="middle" x="555.84" y="-14.3" font-family="Times,serif" font-size="14.00">string</text>
</g>
<!-- phenotypic feature&#45;&gt;type -->
<g id="edge4" class="edge">
<title>phenotypic feature&#45;&gt;type</title>
<path fill="none" stroke="blue" d="M767.73,-89.48C746.65,-83.36 722.01,-76.03 699.84,-69 656.43,-55.24 645.81,-51.08 602.84,-36 600.15,-35.06 597.38,-34.08 594.59,-33.08"/>
<polygon fill="blue" stroke="blue" points="595.73,-29.78 585.14,-29.7 593.37,-36.37 595.73,-29.78"/>
<text text-anchor="middle" x="715.84" y="-57.8" font-family="Times,serif" font-size="14.00">type</text>
</g>
<!-- name -->
<g id="node6" class="node">
<title>name</title>
<ellipse fill="none" stroke="blue" cx="668.84" cy="-18" rx="56.59" ry="18"/>
<text text-anchor="middle" x="668.84" y="-14.3" font-family="Times,serif" font-size="14.00">label type</text>
</g>
<!-- phenotypic feature&#45;&gt;name -->
<g id="edge5" class="edge">
<title>phenotypic feature&#45;&gt;name</title>
<path fill="none" stroke="blue" d="M789.92,-87.61C765.55,-73.8 730.58,-53.99 704.48,-39.2"/>
<polygon fill="blue" stroke="blue" points="706.08,-36.08 695.65,-34.2 702.63,-42.17 706.08,-36.08"/>
<text text-anchor="middle" x="772.84" y="-57.8" font-family="Times,serif" font-size="14.00">name</text>
</g>
<!-- description -->
<g id="node7" class="node">
<title>description</title>
<ellipse fill="none" stroke="blue" cx="818.84" cy="-18" rx="75.29" ry="18"/>
<text text-anchor="middle" x="818.84" y="-14.3" font-family="Times,serif" font-size="14.00">narrative text</text>
</g>
<!-- phenotypic feature&#45;&gt;description -->
<g id="edge6" class="edge">
<title>phenotypic feature&#45;&gt;description</title>
<path fill="none" stroke="blue" d="M818.84,-86.8C818.84,-75.16 818.84,-59.55 818.84,-46.24"/>
<polygon fill="blue" stroke="blue" points="822.34,-46.18 818.84,-36.18 815.34,-46.18 822.34,-46.18"/>
<text text-anchor="middle" x="859.34" y="-57.8" font-family="Times,serif" font-size="14.00">description</text>
</g>
<!-- has attribute -->
<g id="node8" class="node">
<title>has attribute</title>
<ellipse fill="none" stroke="blue" cx="963.84" cy="-18" rx="51.99" ry="18"/>
<text text-anchor="middle" x="963.84" y="-14.3" font-family="Times,serif" font-size="14.00">attribute</text>
</g>
<!-- phenotypic feature&#45;&gt;has attribute -->
<g id="edge7" class="edge">
<title>phenotypic feature&#45;&gt;has attribute</title>
<path fill="none" stroke="blue" d="M862.88,-88.82C876.43,-83.38 891.13,-76.66 903.84,-69 916.42,-61.41 929.1,-51.29 939.55,-42.13"/>
<polygon fill="blue" stroke="blue" points="941.96,-44.67 947.06,-35.38 937.28,-39.46 941.96,-44.67"/>
<text text-anchor="middle" x="972.84" y="-57.8" font-family="Times,serif" font-size="14.00">has attribute</text>
</g>
<!-- provided by -->
<g id="node9" class="node">
<title>provided by</title>
<ellipse fill="none" stroke="blue" cx="1071.84" cy="-18" rx="38.19" ry="18"/>
<text text-anchor="middle" x="1071.84" y="-14.3" font-family="Times,serif" font-size="14.00">string</text>
</g>
<!-- phenotypic feature&#45;&gt;provided by -->
<g id="edge8" class="edge">
<title>phenotypic feature&#45;&gt;provided by</title>
<path fill="none" stroke="blue" d="M889.64,-92.44C947.68,-82.88 1020.78,-70.62 1023.84,-69 1035.35,-62.9 1045.71,-53.01 1053.83,-43.64"/>
<polygon fill="blue" stroke="blue" points="1056.75,-45.59 1060.37,-35.63 1051.33,-41.16 1056.75,-45.59"/>
<text text-anchor="middle" x="1086.34" y="-57.8" font-family="Times,serif" font-size="14.00">provided by</text>
</g>
<!-- xref -->
<g id="node10" class="node">
<title>xref</title>
<ellipse fill="none" stroke="blue" cx="1185.84" cy="-18" rx="57.39" ry="18"/>
<text text-anchor="middle" x="1185.84" y="-14.3" font-family="Times,serif" font-size="14.00">uriorcurie</text>
</g>
<!-- phenotypic feature&#45;&gt;xref -->
<g id="edge9" class="edge">
<title>phenotypic feature&#45;&gt;xref</title>
<path fill="none" stroke="blue" d="M888.74,-92.28C901.4,-90.36 914.5,-88.51 926.84,-87 972.45,-81.42 1090.91,-87.81 1132.84,-69 1145.59,-63.28 1157.2,-53.19 1166.29,-43.56"/>
<polygon fill="blue" stroke="blue" points="1168.96,-45.82 1173.01,-36.03 1163.74,-41.16 1168.96,-45.82"/>
<text text-anchor="middle" x="1169.34" y="-57.8" font-family="Times,serif" font-size="14.00">xref</text>
</g>
<!-- category -->
<g id="node11" class="node">
<title>category</title>
<ellipse fill="none" stroke="black" cx="1312.84" cy="-18" rx="51.19" ry="18"/>
<text text-anchor="middle" x="1312.84" y="-14.3" font-family="Times,serif" font-size="14.00">category</text>
</g>
<!-- phenotypic feature&#45;&gt;category -->
<g id="edge10" class="edge">
<title>phenotypic feature&#45;&gt;category</title>
<path fill="none" stroke="blue" d="M888.43,-92.13C901.18,-90.22 914.39,-88.41 926.84,-87 1042.38,-73.95 1074.48,-94.91 1187.84,-69 1218.41,-62.01 1251.28,-48.61 1275.63,-37.44"/>
<polygon fill="blue" stroke="blue" points="1277.28,-40.54 1284.86,-33.13 1274.32,-34.19 1277.28,-40.54"/>
<text text-anchor="middle" x="1265.34" y="-57.8" font-family="Times,serif" font-size="14.00">category</text>
</g>
<!-- in taxon -->
<g id="node13" class="node">
<title>in taxon</title>
<ellipse fill="none" stroke="blue" cx="1465.84" cy="-18" rx="83.39" ry="18"/>
<text text-anchor="middle" x="1465.84" y="-14.3" font-family="Times,serif" font-size="14.00">organism taxon</text>
</g>
<!-- phenotypic feature&#45;&gt;in taxon -->
<g id="edge11" class="edge">
<title>phenotypic feature&#45;&gt;in taxon</title>
<path fill="none" stroke="blue" d="M887.54,-92.05C900.56,-90.11 914.09,-88.31 926.84,-87 1092.38,-70.04 1136.85,-97.35 1300.84,-69 1340.66,-62.12 1384.38,-48.58 1416.81,-37.33"/>
<polygon fill="blue" stroke="blue" points="1418.22,-40.54 1426.49,-33.92 1415.9,-33.94 1418.22,-40.54"/>
<text text-anchor="middle" x="1389.84" y="-57.8" font-family="Times,serif" font-size="14.00">in taxon</text>
</g>
<!-- named thing_category -->
<g id="node12" class="node">
<title>named thing_category</title>
<ellipse fill="none" stroke="blue" cx="1010.84" cy="-105" rx="74.99" ry="18"/>
<text text-anchor="middle" x="1010.84" y="-101.3" font-family="Times,serif" font-size="14.00">category type</text>
</g>
</g>
</svg>
