<?xml version="1.0" encoding="UTF-8" standalone="no"?>
<!DOCTYPE svg PUBLIC "-//W3C//DTD SVG 1.1//EN"
 "http://www.w3.org/Graphics/SVG/1.1/DTD/svg11.dtd">
<!-- Generated by graphviz version 2.40.1 (20161225.0304)
 -->
<!-- Title: %3 Pages: 1 -->
<svg width="1987pt" height="131pt"
 viewBox="0.00 0.00 1987.39 131.00" xmlns="http://www.w3.org/2000/svg" xmlns:xlink="http://www.w3.org/1999/xlink">
<g id="graph0" class="graph" transform="scale(1 1) rotate(0) translate(4 127)">
<title>%3</title>
<polygon fill="#ffffff" stroke="transparent" points="-4,4 -4,-127 1983.3922,-127 1983.3922,4 -4,4"/>
<!-- phenomenon -->
<g id="node1" class="node">
<title>phenomenon</title>
<ellipse fill="none" stroke="#000000" cx="943.1961" cy="-105" rx="56.59" ry="18"/>
<text text-anchor="middle" x="943.1961" y="-101.3" font-family="Times,serif" font-size="14.00" fill="#000000">phenomenon</text>
</g>
<!-- occurrent -->
<g id="node2" class="node">
<title>occurrent</title>
<ellipse fill="none" stroke="#000000" cx="44.1961" cy="-18" rx="44.393" ry="18"/>
<text text-anchor="middle" x="44.1961" y="-14.3" font-family="Times,serif" font-size="14.00" fill="#000000">occurrent</text>
</g>
<!-- phenomenon&#45;&gt;occurrent -->
<g id="edge1" class="edge">
<title>phenomenon&#45;&gt;occurrent</title>
<path fill="none" stroke="#000000" d="M886.5887,-103.9608C737.9784,-100.9548 339.234,-91.0236 209.1961,-69 166.1972,-61.7176 118.7942,-46.2465 85.8728,-34.2429"/>
<polygon fill="#000000" stroke="#000000" points="86.7348,-30.83 76.1416,-30.6419 84.3054,-37.395 86.7348,-30.83"/>
<text text-anchor="middle" x="220.1961" y="-57.8" font-family="Times,serif" font-size="14.00" fill="#000000">is_a</text>
</g>
<!-- id -->
<g id="node3" class="node">
<title>id</title>
<ellipse fill="none" stroke="#0000ff" cx="137.1961" cy="-18" rx="30.5947" ry="18"/>
<text text-anchor="middle" x="137.1961" y="-14.3" font-family="Times,serif" font-size="14.00" fill="#000000">string</text>
</g>
<!-- phenomenon&#45;&gt;id -->
<g id="edge2" class="edge">
<title>phenomenon&#45;&gt;id</title>
<path fill="none" stroke="#0000ff" d="M886.838,-103.1245C753.4531,-98.4699 421.3698,-85.559 311.1961,-69 250.5424,-59.8838 235.1785,-56.0004 177.1961,-36 174.9487,-35.2248 172.6545,-34.3709 170.3585,-33.4692"/>
<polygon fill="#0000ff" stroke="#0000ff" points="171.6003,-30.1949 161.0238,-29.5711 168.9029,-36.6543 171.6003,-30.1949"/>
<text text-anchor="middle" x="316.6961" y="-57.8" font-family="Times,serif" font-size="14.00" fill="#000000">id</text>
</g>
<!-- name -->
<g id="node4" class="node">
<title>name</title>
<ellipse fill="none" stroke="#0000ff" cx="231.1961" cy="-18" rx="45.4919" ry="18"/>
<text text-anchor="middle" x="231.1961" y="-14.3" font-family="Times,serif" font-size="14.00" fill="#000000">label type</text>
</g>
<!-- phenomenon&#45;&gt;name -->
<g id="edge3" class="edge">
<title>phenomenon&#45;&gt;name</title>
<path fill="none" stroke="#0000ff" d="M886.5692,-103.2901C763.6774,-99.2679 475.8876,-88.081 380.1961,-69 342.4948,-61.4823 301.2596,-46.8378 271.7455,-35.1629"/>
<polygon fill="#0000ff" stroke="#0000ff" points="272.7918,-31.8114 262.2078,-31.332 270.1828,-38.307 272.7918,-31.8114"/>
<text text-anchor="middle" x="395.6961" y="-57.8" font-family="Times,serif" font-size="14.00" fill="#000000">name</text>
</g>
<!-- category -->
<g id="node5" class="node">
<title>category</title>
<ellipse fill="none" stroke="#0000ff" cx="331.1961" cy="-18" rx="36.2938" ry="18"/>
<text text-anchor="middle" x="331.1961" y="-14.3" font-family="Times,serif" font-size="14.00" fill="#000000">iri type</text>
</g>
<!-- phenomenon&#45;&gt;category -->
<g id="edge4" class="edge">
<title>phenomenon&#45;&gt;category</title>
<path fill="none" stroke="#0000ff" d="M886.7097,-102.8271C777.7678,-98.2963 542.3935,-86.7622 463.1961,-69 429.2493,-61.3865 392.4682,-46.5906 366.3758,-34.888"/>
<polygon fill="#0000ff" stroke="#0000ff" points="367.8223,-31.7009 357.2715,-30.7355 364.9174,-38.0697 367.8223,-31.7009"/>
<text text-anchor="middle" x="486.6961" y="-57.8" font-family="Times,serif" font-size="14.00" fill="#000000">category</text>
</g>
<!-- related to -->
<g id="node6" class="node">
<title>related to</title>
<ellipse fill="none" stroke="#0000ff" cx="441.1961" cy="-18" rx="55.4913" ry="18"/>
<text text-anchor="middle" x="441.1961" y="-14.3" font-family="Times,serif" font-size="14.00" fill="#000000">named thing</text>
</g>
<!-- phenomenon&#45;&gt;related to -->
<g id="edge5" class="edge">
<title>phenomenon&#45;&gt;related to</title>
<path fill="none" stroke="#0000ff" d="M887.3135,-102.0335C795.6031,-96.7908 617.2461,-84.9198 556.1961,-69 529.1977,-61.9597 500.5071,-49.2457 478.5365,-38.2738"/>
<polygon fill="#0000ff" stroke="#0000ff" points="480.0558,-35.1198 469.5565,-33.6999 476.8787,-41.3573 480.0558,-35.1198"/>
<text text-anchor="middle" x="582.1961" y="-57.8" font-family="Times,serif" font-size="14.00" fill="#000000">related to</text>
</g>
<!-- interacts with -->
<g id="node7" class="node">
<title>interacts with</title>
<ellipse fill="none" stroke="#0000ff" cx="569.1961" cy="-18" rx="55.4913" ry="18"/>
<text text-anchor="middle" x="569.1961" y="-14.3" font-family="Times,serif" font-size="14.00" fill="#000000">named thing</text>
</g>
<!-- phenomenon&#45;&gt;interacts with -->
<g id="edge6" class="edge">
<title>phenomenon&#45;&gt;interacts with</title>
<path fill="none" stroke="#0000ff" d="M887.3593,-101.7789C812.2731,-96.8686 683.1073,-86.2217 639.1961,-69 623.1201,-62.6951 607.3803,-51.7834 594.9104,-41.6669"/>
<polygon fill="#0000ff" stroke="#0000ff" points="597.1214,-38.9532 587.2173,-35.1903 592.6131,-44.3082 597.1214,-38.9532"/>
<text text-anchor="middle" x="676.1961" y="-57.8" font-family="Times,serif" font-size="14.00" fill="#000000">interacts with</text>
</g>
<!-- correlated with -->
<g id="node8" class="node">
<title>correlated with</title>
<ellipse fill="none" stroke="#0000ff" cx="697.1961" cy="-18" rx="55.4913" ry="18"/>
<text text-anchor="middle" x="697.1961" y="-14.3" font-family="Times,serif" font-size="14.00" fill="#000000">named thing</text>
</g>
<!-- phenomenon&#45;&gt;correlated with -->
<g id="edge7" class="edge">
<title>phenomenon&#45;&gt;correlated with</title>
<path fill="none" stroke="#0000ff" d="M888.3054,-100.3721C834.9456,-95.0334 758.378,-84.8917 733.1961,-69 723.8474,-63.1003 716.2334,-53.8055 710.4558,-44.7578"/>
<polygon fill="#0000ff" stroke="#0000ff" points="713.3622,-42.7943 705.2942,-35.9272 707.3189,-46.3268 713.3622,-42.7943"/>
<text text-anchor="middle" x="774.1961" y="-57.8" font-family="Times,serif" font-size="14.00" fill="#000000">correlated with</text>
</g>
<!-- node property -->
<g id="node9" class="node">
<title>node property</title>
<ellipse fill="none" stroke="#0000ff" cx="801.1961" cy="-18" rx="30.5947" ry="18"/>
<text text-anchor="middle" x="801.1961" y="-14.3" font-family="Times,serif" font-size="14.00" fill="#000000">string</text>
</g>
<!-- phenomenon&#45;&gt;node property -->
<g id="edge8" class="edge">
<title>phenomenon&#45;&gt;node property</title>
<path fill="none" stroke="#0000ff" d="M892.8425,-96.644C872.4192,-91.3358 849.5961,-82.7605 832.1961,-69 824.1984,-62.6752 817.7686,-53.677 812.8832,-44.9952"/>
<polygon fill="#0000ff" stroke="#0000ff" points="815.8654,-43.1404 808.187,-35.8403 809.6371,-46.3355 815.8654,-43.1404"/>
<text text-anchor="middle" x="870.1961" y="-57.8" font-family="Times,serif" font-size="14.00" fill="#000000">node property</text>
</g>
<!-- iri -->
<g id="node10" class="node">
<title>iri</title>
<ellipse fill="none" stroke="#0000ff" cx="886.1961" cy="-18" rx="36.2938" ry="18"/>
<text text-anchor="middle" x="886.1961" y="-14.3" font-family="Times,serif" font-size="14.00" fill="#000000">iri type</text>
</g>
<!-- phenomenon&#45;&gt;iri -->
<g id="edge9" class="edge">
<title>phenomenon&#45;&gt;iri</title>
<path fill="none" stroke="#0000ff" d="M931.3856,-86.9735C923.2538,-74.5619 912.3232,-57.8782 903.2492,-44.0284"/>
<polygon fill="#0000ff" stroke="#0000ff" points="906.0104,-41.8562 897.6024,-35.4097 900.1551,-45.6924 906.0104,-41.8562"/>
<text text-anchor="middle" x="924.6961" y="-57.8" font-family="Times,serif" font-size="14.00" fill="#000000">iri</text>
</g>
<!-- synonym -->
<g id="node11" class="node">
<title>synonym</title>
<ellipse fill="none" stroke="#0000ff" cx="986.1961" cy="-18" rx="45.4919" ry="18"/>
<text text-anchor="middle" x="986.1961" y="-14.3" font-family="Times,serif" font-size="14.00" fill="#000000">label type</text>
</g>
<!-- phenomenon&#45;&gt;synonym -->
<g id="edge10" class="edge">
<title>phenomenon&#45;&gt;synonym</title>
<path fill="none" stroke="#0000ff" d="M952.1057,-86.9735C958.1418,-74.7609 966.2222,-58.4123 973.001,-44.697"/>
<polygon fill="#0000ff" stroke="#0000ff" points="976.1517,-46.2213 977.445,-35.7057 969.8764,-43.1197 976.1517,-46.2213"/>
<text text-anchor="middle" x="993.6961" y="-57.8" font-family="Times,serif" font-size="14.00" fill="#000000">synonym</text>
</g>
<!-- full name -->
<g id="node12" class="node">
<title>full name</title>
<ellipse fill="none" stroke="#0000ff" cx="1095.1961" cy="-18" rx="45.4919" ry="18"/>
<text text-anchor="middle" x="1095.1961" y="-14.3" font-family="Times,serif" font-size="14.00" fill="#000000">label type</text>
</g>
<!-- phenomenon&#45;&gt;full name -->
<g id="edge11" class="edge">
<title>phenomenon&#45;&gt;full name</title>
<path fill="none" stroke="#0000ff" d="M978.5754,-90.8332C992.7536,-84.708 1009.0502,-77.0914 1023.1961,-69 1038.0301,-60.5149 1053.6089,-49.7397 1066.4661,-40.2818"/>
<polygon fill="#0000ff" stroke="#0000ff" points="1068.5672,-43.081 1074.4869,-34.2941 1064.3797,-37.4716 1068.5672,-43.081"/>
<text text-anchor="middle" x="1072.6961" y="-57.8" font-family="Times,serif" font-size="14.00" fill="#000000">full name</text>
</g>
<!-- description -->
<g id="node13" class="node">
<title>description</title>
<ellipse fill="none" stroke="#0000ff" cx="1216.1961" cy="-18" rx="57.6901" ry="18"/>
<text text-anchor="middle" x="1216.1961" y="-14.3" font-family="Times,serif" font-size="14.00" fill="#000000">narrative text</text>
</g>
<!-- phenomenon&#45;&gt;description -->
<g id="edge12" class="edge">
<title>phenomenon&#45;&gt;description</title>
<path fill="none" stroke="#0000ff" d="M993.2797,-96.4383C1025.1845,-90.3241 1067.1469,-81.0519 1103.1961,-69 1128.446,-60.5585 1155.677,-48.3678 1177.0796,-38.0218"/>
<polygon fill="#0000ff" stroke="#0000ff" points="1178.7318,-41.1099 1186.173,-33.568 1175.6528,-34.8234 1178.7318,-41.1099"/>
<text text-anchor="middle" x="1172.6961" y="-57.8" font-family="Times,serif" font-size="14.00" fill="#000000">description</text>
</g>
<!-- systematic synonym -->
<g id="node14" class="node">
<title>systematic synonym</title>
<ellipse fill="none" stroke="#0000ff" cx="1337.1961" cy="-18" rx="45.4919" ry="18"/>
<text text-anchor="middle" x="1337.1961" y="-14.3" font-family="Times,serif" font-size="14.00" fill="#000000">label type</text>
</g>
<!-- phenomenon&#45;&gt;systematic synonym -->
<g id="edge13" class="edge">
<title>phenomenon&#45;&gt;systematic synonym</title>
<path fill="none" stroke="#0000ff" d="M998.5445,-101.3078C1052.4811,-96.8114 1136.4669,-87.4141 1207.1961,-69 1238.8185,-60.7672 1273.178,-47.0666 1298.627,-35.9378"/>
<polygon fill="#0000ff" stroke="#0000ff" points="1300.1985,-39.0697 1307.9201,-31.8152 1297.3599,-32.671 1300.1985,-39.0697"/>
<text text-anchor="middle" x="1307.1961" y="-57.8" font-family="Times,serif" font-size="14.00" fill="#000000">systematic synonym</text>
</g>
<!-- regulates, process to process -->
<g id="node15" class="node">
<title>regulates, process to process</title>
<ellipse fill="none" stroke="#0000ff" cx="1445.1961" cy="-18" rx="44.393" ry="18"/>
<text text-anchor="middle" x="1445.1961" y="-14.3" font-family="Times,serif" font-size="14.00" fill="#000000">occurrent</text>
</g>
<!-- phenomenon&#45;&gt;regulates, process to process -->
<g id="edge14" class="edge">
<title>phenomenon&#45;&gt;regulates, process to process</title>
<path fill="none" stroke="#0000ff" d="M999.5883,-103.6269C1098.8958,-100.6443 1300.7565,-91.8975 1367.1961,-69 1385.4371,-62.7135 1403.6092,-51.2173 1417.8184,-40.7291"/>
<polygon fill="#0000ff" stroke="#0000ff" points="1420.2994,-43.2382 1426.1188,-34.3846 1416.0484,-37.6767 1420.2994,-43.2382"/>
<text text-anchor="middle" x="1475.1961" y="-57.8" font-family="Times,serif" font-size="14.00" fill="#000000">regulates, process to process</text>
</g>
<!-- has participant -->
<g id="node16" class="node">
<title>has participant</title>
<ellipse fill="none" stroke="#0000ff" cx="1562.1961" cy="-18" rx="55.4913" ry="18"/>
<text text-anchor="middle" x="1562.1961" y="-14.3" font-family="Times,serif" font-size="14.00" fill="#000000">named thing</text>
</g>
<!-- phenomenon&#45;&gt;has participant -->
<g id="edge15" class="edge">
<title>phenomenon&#45;&gt;has participant</title>
<path fill="none" stroke="#0000ff" d="M999.7676,-103.6284C1147.7202,-99.7831 1536.1292,-87.927 1556.1961,-69 1562.3746,-63.1725 1564.7855,-54.6196 1565.3774,-46.1767"/>
<polygon fill="#0000ff" stroke="#0000ff" points="1568.8772,-46.1062 1565.3281,-36.1235 1561.8773,-46.1405 1568.8772,-46.1062"/>
<text text-anchor="middle" x="1604.1961" y="-57.8" font-family="Times,serif" font-size="14.00" fill="#000000">has participant</text>
</g>
<!-- has input -->
<g id="node17" class="node">
<title>has input</title>
<ellipse fill="none" stroke="#0000ff" cx="1690.1961" cy="-18" rx="55.4913" ry="18"/>
<text text-anchor="middle" x="1690.1961" y="-14.3" font-family="Times,serif" font-size="14.00" fill="#000000">named thing</text>
</g>
<!-- phenomenon&#45;&gt;has input -->
<g id="edge16" class="edge">
<title>phenomenon&#45;&gt;has input</title>
<path fill="none" stroke="#0000ff" d="M999.9766,-104.7172C1157.299,-103.5688 1591.0017,-97.7975 1648.1961,-69 1659.0204,-63.5499 1668.0641,-53.9114 1674.9531,-44.47"/>
<polygon fill="#0000ff" stroke="#0000ff" points="1677.9863,-46.2316 1680.6633,-35.9806 1672.1779,-42.3247 1677.9863,-46.2316"/>
<text text-anchor="middle" x="1692.1961" y="-57.8" font-family="Times,serif" font-size="14.00" fill="#000000">has input</text>
</g>
<!-- has output -->
<g id="node18" class="node">
<title>has output</title>
<ellipse fill="none" stroke="#0000ff" cx="1818.1961" cy="-18" rx="55.4913" ry="18"/>
<text text-anchor="middle" x="1818.1961" y="-14.3" font-family="Times,serif" font-size="14.00" fill="#000000">named thing</text>
</g>
<!-- phenomenon&#45;&gt;has output -->
<g id="edge17" class="edge">
<title>phenomenon&#45;&gt;has output</title>
<path fill="none" stroke="#0000ff" d="M999.8867,-103.7999C1167.326,-100.0563 1652.2817,-87.713 1721.1961,-69 1743.8678,-62.8437 1767.2354,-50.7614 1785.3531,-39.9019"/>
<polygon fill="#0000ff" stroke="#0000ff" points="1787.6438,-42.6012 1794.3174,-34.3723 1783.9689,-36.6434 1787.6438,-42.6012"/>
<text text-anchor="middle" x="1786.6961" y="-57.8" font-family="Times,serif" font-size="14.00" fill="#000000">has output</text>
</g>
<!-- precedes -->
<g id="node19" class="node">
<title>precedes</title>
<ellipse fill="none" stroke="#0000ff" cx="1935.1961" cy="-18" rx="44.393" ry="18"/>
<text text-anchor="middle" x="1935.1961" y="-14.3" font-family="Times,serif" font-size="14.00" fill="#000000">occurrent</text>
</g>
<!-- phenomenon&#45;&gt;precedes -->
<g id="edge18" class="edge">
<title>phenomenon&#45;&gt;precedes</title>
<path fill="none" stroke="#0000ff" d="M999.7898,-103.895C1181.0238,-100.1868 1739.8638,-87.3782 1819.1961,-69 1847.7003,-62.3967 1877.8968,-48.8891 1900.3334,-37.4335"/>
<polygon fill="#0000ff" stroke="#0000ff" points="1902.2017,-40.4064 1909.4465,-32.6757 1898.9621,-34.2012 1902.2017,-40.4064"/>
<text text-anchor="middle" x="1885.1961" y="-57.8" font-family="Times,serif" font-size="14.00" fill="#000000">precedes</text>
</g>
</g>
</svg>
