<?xml version="1.0" encoding="UTF-8" standalone="no"?>
<!DOCTYPE svg PUBLIC "-//W3C//DTD SVG 1.1//EN"
 "http://www.w3.org/Graphics/SVG/1.1/DTD/svg11.dtd">
<!-- Generated by graphviz version 2.40.1 (20161225.0304)
 -->
<!-- Title: %3 Pages: 1 -->
<svg width="1251pt" height="130pt"
 viewBox="0.00 0.00 1251.49 130.00" xmlns="http://www.w3.org/2000/svg" xmlns:xlink="http://www.w3.org/1999/xlink">
<g id="graph0" class="graph" transform="scale(1 1) rotate(0) translate(4 126)">
<title>%3</title>
<polygon fill="#ffffff" stroke="transparent" points="-4,4 -4,-126 1247.4944,-126 1247.4944,4 -4,4"/>
<!-- phenomenon -->
<g id="node1" class="node">
<title>phenomenon</title>
<ellipse fill="none" stroke="#000000" cx="539.4944" cy="-104" rx="55.5768" ry="18"/>
<text text-anchor="middle" x="539.4944" y="-99.8" font-family="Times,serif" font-size="14.00" fill="#000000">phenomenon</text>
</g>
<!-- occurrent -->
<g id="node2" class="node">
<title>occurrent</title>
<ellipse fill="none" stroke="#000000" cx="43.4944" cy="-18" rx="43.4887" ry="18"/>
<text text-anchor="middle" x="43.4944" y="-13.8" font-family="Times,serif" font-size="14.00" fill="#000000">occurrent</text>
</g>
<!-- phenomenon&#45;&gt;occurrent -->
<g id="edge1" class="edge">
<title>phenomenon&#45;&gt;occurrent</title>
<path fill="none" stroke="#000000" d="M484.5326,-100.6754C395.7686,-94.9745 224.8504,-82.5327 165.9426,-68 136.3552,-60.7007 104.5363,-47.5317 80.7514,-36.5407"/>
<polygon fill="#000000" stroke="#000000" points="81.9432,-33.2335 71.4046,-32.1428 78.9629,-39.5673 81.9432,-33.2335"/>
<text text-anchor="middle" x="177.7702" y="-56.8" font-family="Times,serif" font-size="14.00" fill="#000000">is_a</text>
</g>
<!-- id -->
<g id="node3" class="node">
<title>id</title>
<ellipse fill="none" stroke="#000000" cx="131.4944" cy="-18" rx="27" ry="18"/>
</g>
<!-- phenomenon&#45;&gt;id -->
<g id="edge2" class="edge">
<title>phenomenon&#45;&gt;id</title>
<path fill="none" stroke="#000000" d="M484.7077,-100.291C407.5266,-94.6338 270.9175,-82.9158 223.6047,-68 200.5516,-60.7323 176.6206,-47.5434 158.9305,-36.5356"/>
<polygon fill="#000000" stroke="#000000" points="160.5993,-33.4486 150.2864,-31.0209 156.8344,-39.35 160.5993,-33.4486"/>
<text text-anchor="middle" x="229.9392" y="-56.8" font-family="Times,serif" font-size="14.00" fill="#000000">id</text>
</g>
<!-- name -->
<g id="node4" class="node">
<title>name</title>
<ellipse fill="none" stroke="#000000" cx="203.4944" cy="-18" rx="27" ry="18"/>
</g>
<!-- phenomenon&#45;&gt;name -->
<g id="edge3" class="edge">
<title>phenomenon&#45;&gt;name</title>
<path fill="none" stroke="#000000" d="M484.265,-100.8896C414.0385,-96.2579 297.2105,-86.0903 258.177,-68 245.0996,-61.9392 232.9944,-51.6055 223.5155,-41.9003"/>
<polygon fill="#000000" stroke="#000000" points="225.8747,-39.2971 216.5083,-34.3453 220.7424,-44.0573 225.8747,-39.2971"/>
<text text-anchor="middle" x="273.653" y="-56.8" font-family="Times,serif" font-size="14.00" fill="#000000">name</text>
</g>
<!-- category -->
<g id="node5" class="node">
<title>category</title>
<ellipse fill="none" stroke="#000000" cx="275.4944" cy="-18" rx="27" ry="18"/>
</g>
<!-- phenomenon&#45;&gt;category -->
<g id="edge4" class="edge">
<title>phenomenon&#45;&gt;category</title>
<path fill="none" stroke="#000000" d="M484.3187,-100.9118C424.4974,-96.6361 333.745,-87.1635 305.301,-68 296.9302,-62.3604 290.5542,-53.5109 285.8905,-44.8145"/>
<polygon fill="#000000" stroke="#000000" points="288.9565,-43.1126 281.4887,-35.5971 282.6398,-46.1293 288.9565,-43.1126"/>
<text text-anchor="middle" x="329.591" y="-56.8" font-family="Times,serif" font-size="14.00" fill="#000000">category</text>
</g>
<!-- related to -->
<g id="node6" class="node">
<title>related to</title>
<ellipse fill="none" stroke="#000000" cx="347.4944" cy="-18" rx="27" ry="18"/>
</g>
<!-- phenomenon&#45;&gt;related to -->
<g id="edge5" class="edge">
<title>phenomenon&#45;&gt;related to</title>
<path fill="none" stroke="#000000" d="M486.3868,-98.3251C442.9102,-92.7069 385.7912,-82.7883 368.0217,-68 361.2531,-62.367 356.6885,-54.1449 353.6216,-45.9889"/>
<polygon fill="#000000" stroke="#000000" points="356.9016,-44.7508 350.5759,-36.2516 350.2208,-46.8405 356.9016,-44.7508"/>
<text text-anchor="middle" x="394.7307" y="-56.8" font-family="Times,serif" font-size="14.00" fill="#000000">related to</text>
</g>
<!-- node property -->
<g id="node7" class="node">
<title>node property</title>
<ellipse fill="none" stroke="#000000" cx="420.4944" cy="-18" rx="27" ry="18"/>
</g>
<!-- phenomenon&#45;&gt;node property -->
<g id="edge6" class="edge">
<title>phenomenon&#45;&gt;node property</title>
<path fill="none" stroke="#000000" d="M493.8082,-93.607C468.3413,-86.9149 440.0449,-77.6807 431.3528,-68 425.9884,-62.0256 423.0585,-54.0366 421.5127,-46.2005"/>
<polygon fill="#000000" stroke="#000000" points="424.9673,-45.6259 420.1895,-36.1696 418.0275,-46.5415 424.9673,-45.6259"/>
<text text-anchor="middle" x="470.5652" y="-56.8" font-family="Times,serif" font-size="14.00" fill="#000000">node property</text>
</g>
<!-- iri -->
<g id="node8" class="node">
<title>iri</title>
<ellipse fill="none" stroke="#000000" cx="492.4944" cy="-18" rx="27" ry="18"/>
</g>
<!-- phenomenon&#45;&gt;iri -->
<g id="edge7" class="edge">
<title>phenomenon&#45;&gt;iri</title>
<path fill="none" stroke="#000000" d="M529.7559,-86.1807C523.0709,-73.9486 514.0919,-57.519 506.6232,-43.8528"/>
<polygon fill="#000000" stroke="#000000" points="509.6076,-42.0152 501.7406,-34.9187 503.4651,-45.3722 509.6076,-42.0152"/>
<text text-anchor="middle" x="525.7151" y="-56.8" font-family="Times,serif" font-size="14.00" fill="#000000">iri</text>
</g>
<!-- full name -->
<g id="node9" class="node">
<title>full name</title>
<ellipse fill="none" stroke="#000000" cx="564.4944" cy="-18" rx="27" ry="18"/>
</g>
<!-- phenomenon&#45;&gt;full name -->
<g id="edge8" class="edge">
<title>phenomenon&#45;&gt;full name</title>
<path fill="none" stroke="#000000" d="M544.7962,-85.7616C548.1665,-74.1678 552.5958,-58.931 556.4006,-45.8426"/>
<polygon fill="#000000" stroke="#000000" points="559.8553,-46.4967 559.2859,-35.9172 553.1335,-44.5427 559.8553,-46.4967"/>
<text text-anchor="middle" x="580.1238" y="-56.8" font-family="Times,serif" font-size="14.00" fill="#000000">full name</text>
</g>
<!-- description -->
<g id="node10" class="node">
<title>description</title>
<ellipse fill="none" stroke="#000000" cx="636.4944" cy="-18" rx="27" ry="18"/>
</g>
<!-- phenomenon&#45;&gt;description -->
<g id="edge9" class="edge">
<title>phenomenon&#45;&gt;description</title>
<path fill="none" stroke="#000000" d="M576.6125,-90.5025C588.4656,-84.8831 600.9666,-77.4306 610.4944,-68 616.9918,-61.5689 622.2098,-53.1715 626.2169,-45.0998"/>
<polygon fill="#000000" stroke="#000000" points="629.4405,-46.4656 630.3687,-35.9115 623.0615,-43.5832 629.4405,-46.4656"/>
<text text-anchor="middle" x="652.5979" y="-56.8" font-family="Times,serif" font-size="14.00" fill="#000000">description</text>
</g>
<!-- systematic synonym -->
<g id="node11" class="node">
<title>systematic synonym</title>
<ellipse fill="none" stroke="#000000" cx="718.4944" cy="-18" rx="27" ry="18"/>
</g>
<!-- phenomenon&#45;&gt;systematic synonym -->
<g id="edge10" class="edge">
<title>phenomenon&#45;&gt;systematic synonym</title>
<path fill="none" stroke="#000000" d="M589.7069,-95.979C626.2389,-89.3759 671.9181,-79.2903 687.4944,-68 695.6322,-62.1013 702.0943,-53.3494 706.9666,-44.8094"/>
<polygon fill="#000000" stroke="#000000" points="710.1555,-46.2621 711.6335,-35.7708 703.9357,-43.0505 710.1555,-46.2621"/>
<text text-anchor="middle" x="758.4616" y="-56.8" font-family="Times,serif" font-size="14.00" fill="#000000">systematic synonym</text>
</g>
<!-- regulates, process to process -->
<g id="node12" class="node">
<title>regulates, process to process</title>
<ellipse fill="none" stroke="#000000" cx="855.4944" cy="-18" rx="27" ry="18"/>
</g>
<!-- phenomenon&#45;&gt;regulates, process to process -->
<g id="edge11" class="edge">
<title>phenomenon&#45;&gt;regulates, process to process</title>
<path fill="none" stroke="#000000" d="M595.0881,-102.0466C665.6714,-98.688 782.7054,-89.9187 819.4944,-68 829.0051,-62.3335 836.71,-53.0761 842.5145,-44.0576"/>
<polygon fill="#000000" stroke="#000000" points="845.6349,-45.6558 847.6822,-35.2606 839.5993,-42.1102 845.6349,-45.6558"/>
<text text-anchor="middle" x="915.1911" y="-56.8" font-family="Times,serif" font-size="14.00" fill="#000000">regulates, process to process</text>
</g>
<!-- has participant -->
<g id="node13" class="node">
<title>has participant</title>
<ellipse fill="none" stroke="#000000" cx="1037.4944" cy="-18" rx="27" ry="18"/>
</g>
<!-- phenomenon&#45;&gt;has participant -->
<g id="edge12" class="edge">
<title>phenomenon&#45;&gt;has participant</title>
<path fill="none" stroke="#000000" d="M595.0005,-102.1473C709.4163,-97.9685 963.7336,-86.6895 998.4944,-68 1008.6345,-62.548 1016.9983,-53.2064 1023.3448,-44.063"/>
<polygon fill="#000000" stroke="#000000" points="1026.3845,-45.8056 1028.8037,-35.4907 1020.48,-42.0456 1026.3845,-45.8056"/>
<text text-anchor="middle" x="1055.5066" y="-56.8" font-family="Times,serif" font-size="14.00" fill="#000000">has participant</text>
</g>
<!-- has input -->
<g id="node14" class="node">
<title>has input</title>
<ellipse fill="none" stroke="#000000" cx="1142.4944" cy="-18" rx="27" ry="18"/>
</g>
<!-- phenomenon&#45;&gt;has input -->
<g id="edge13" class="edge">
<title>phenomenon&#45;&gt;has input</title>
<path fill="none" stroke="#000000" d="M595.4988,-102.8945C728.6301,-99.9137 1056.2382,-90.3755 1100.4944,-68 1111.3386,-62.5172 1120.4649,-52.8602 1127.4108,-43.4857"/>
<polygon fill="#000000" stroke="#000000" points="1130.4019,-45.3123 1133.1634,-35.0836 1124.626,-41.3577 1130.4019,-45.3123"/>
<text text-anchor="middle" x="1144.9651" y="-56.8" font-family="Times,serif" font-size="14.00" fill="#000000">has input</text>
</g>
<!-- precedes -->
<g id="node15" class="node">
<title>precedes</title>
<ellipse fill="none" stroke="#000000" cx="1216.4944" cy="-18" rx="27" ry="18"/>
</g>
<!-- phenomenon&#45;&gt;precedes -->
<g id="edge14" class="edge">
<title>phenomenon&#45;&gt;precedes</title>
<path fill="none" stroke="#000000" d="M595.2919,-103.3537C740.6842,-101.3161 1123.4652,-93.5616 1174.4944,-68 1185.359,-62.5577 1194.4886,-52.9072 1201.4314,-43.5267"/>
<polygon fill="#000000" stroke="#000000" points="1204.4266,-45.3471 1207.1797,-35.1162 1198.6474,-41.3972 1204.4266,-45.3471"/>
<text text-anchor="middle" x="1216.9773" y="-56.8" font-family="Times,serif" font-size="14.00" fill="#000000">precedes</text>
</g>
</g>
</svg>
