<?xml version="1.0" encoding="UTF-8" standalone="no"?>
<!DOCTYPE svg PUBLIC "-//W3C//DTD SVG 1.1//EN"
 "http://www.w3.org/Graphics/SVG/1.1/DTD/svg11.dtd">
<!-- Generated by graphviz version 2.43.0 (0)
 -->
<!-- Title: %3 Pages: 1 -->
<svg width="2500pt" height="131pt"
 viewBox="0.00 0.00 2499.88 131.00" xmlns="http://www.w3.org/2000/svg" xmlns:xlink="http://www.w3.org/1999/xlink">
<g id="graph0" class="graph" transform="scale(1 1) rotate(0) translate(4 127)">
<title>%3</title>
<polygon fill="white" stroke="transparent" points="-4,4 -4,-127 2495.88,-127 2495.88,4 -4,4"/>
<!-- physiological process -->
<g id="node1" class="node">
<title>physiological process</title>
<ellipse fill="none" stroke="black" cx="1060.59" cy="-105" rx="109.68" ry="18"/>
<text text-anchor="middle" x="1060.59" y="-101.3" font-family="Times,serif" font-size="14.00">physiological process</text>
</g>
<!-- biological process -->
<g id="node2" class="node">
<title>biological process</title>
<ellipse fill="none" stroke="black" cx="93.59" cy="-18" rx="93.68" ry="18"/>
<text text-anchor="middle" x="93.59" y="-14.3" font-family="Times,serif" font-size="14.00">biological process</text>
</g>
<!-- physiological process&#45;&gt;biological process -->
<g id="edge1" class="edge">
<title>physiological process&#45;&gt;biological process</title>
<path fill="none" stroke="black" d="M952,-102.27C818.54,-99.25 585.3,-91.04 386.59,-69 310.47,-60.56 224.13,-45.1 165.01,-33.6"/>
<polygon fill="black" stroke="black" points="165.52,-30.13 155.03,-31.64 164.17,-37 165.52,-30.13"/>
<text text-anchor="middle" x="400.59" y="-57.8" font-family="Times,serif" font-size="14.00">is_a</text>
</g>
<!-- ontology class -->
<g id="node3" class="node">
<title>ontology class</title>
<ellipse fill="none" stroke="black" cx="281.59" cy="-18" rx="76.89" ry="18"/>
<text text-anchor="middle" x="281.59" y="-14.3" font-family="Times,serif" font-size="14.00">ontology class</text>
</g>
<!-- physiological process&#45;&gt;ontology class -->
<g id="edge2" class="edge">
<title>physiological process&#45;&gt;ontology class</title>
<path fill="none" stroke="black" d="M951.45,-102.65C837.24,-99.98 652.99,-92.1 495.59,-69 441.48,-61.06 380.88,-46.34 338.02,-34.92"/>
<polygon fill="black" stroke="black" points="338.9,-31.53 328.33,-32.31 337.08,-38.29 338.9,-31.53"/>
<text text-anchor="middle" x="512.09" y="-57.8" font-family="Times,serif" font-size="14.00">uses</text>
</g>
<!-- id -->
<g id="node4" class="node">
<title>id</title>
<ellipse fill="none" stroke="blue" cx="414.59" cy="-18" rx="38.19" ry="18"/>
<text text-anchor="middle" x="414.59" y="-14.3" font-family="Times,serif" font-size="14.00">string</text>
</g>
<!-- physiological process&#45;&gt;id -->
<g id="edge3" class="edge">
<title>physiological process&#45;&gt;id</title>
<path fill="none" stroke="blue" d="M955.44,-99.57C865.4,-94.86 732.49,-85.7 617.59,-69 547.89,-58.87 530.38,-55.13 462.59,-36 459.49,-35.12 456.29,-34.15 453.09,-33.13"/>
<polygon fill="blue" stroke="blue" points="454.18,-29.8 443.59,-29.95 451.96,-36.44 454.18,-29.8"/>
<text text-anchor="middle" x="624.59" y="-57.8" font-family="Times,serif" font-size="14.00">id</text>
</g>
<!-- iri -->
<g id="node5" class="node">
<title>iri</title>
<ellipse fill="none" stroke="blue" cx="515.59" cy="-18" rx="44.39" ry="18"/>
<text text-anchor="middle" x="515.59" y="-14.3" font-family="Times,serif" font-size="14.00">iri type</text>
</g>
<!-- physiological process&#45;&gt;iri -->
<g id="edge4" class="edge">
<title>physiological process&#45;&gt;iri</title>
<path fill="none" stroke="blue" d="M959.78,-97.75C888.67,-92.43 791.39,-83.33 706.59,-69 644.84,-58.56 629.94,-52.75 569.59,-36 566.02,-35.01 562.33,-33.94 558.63,-32.84"/>
<polygon fill="blue" stroke="blue" points="559.49,-29.44 548.9,-29.88 557.45,-36.14 559.49,-29.44"/>
<text text-anchor="middle" x="714.59" y="-57.8" font-family="Times,serif" font-size="14.00">iri</text>
</g>
<!-- type -->
<g id="node6" class="node">
<title>type</title>
<ellipse fill="none" stroke="blue" cx="616.59" cy="-18" rx="38.19" ry="18"/>
<text text-anchor="middle" x="616.59" y="-14.3" font-family="Times,serif" font-size="14.00">string</text>
</g>
<!-- physiological process&#45;&gt;type -->
<g id="edge5" class="edge">
<title>physiological process&#45;&gt;type</title>
<path fill="none" stroke="blue" d="M969.99,-94.72C918.35,-88.77 852.58,-80.08 794.59,-69 735.62,-57.73 721.01,-53.57 663.59,-36 660.83,-35.16 657.99,-34.24 655.14,-33.29"/>
<polygon fill="blue" stroke="blue" points="656.12,-29.93 645.52,-29.98 653.84,-36.55 656.12,-29.93"/>
<text text-anchor="middle" x="810.59" y="-57.8" font-family="Times,serif" font-size="14.00">type</text>
</g>
<!-- name -->
<g id="node7" class="node">
<title>name</title>
<ellipse fill="none" stroke="blue" cx="729.59" cy="-18" rx="56.59" ry="18"/>
<text text-anchor="middle" x="729.59" y="-14.3" font-family="Times,serif" font-size="14.00">label type</text>
</g>
<!-- physiological process&#45;&gt;name -->
<g id="edge6" class="edge">
<title>physiological process&#45;&gt;name</title>
<path fill="none" stroke="blue" d="M986.11,-91.72C953.5,-85.78 914.93,-77.98 880.59,-69 844.47,-59.55 804.38,-46.13 774.59,-35.58"/>
<polygon fill="blue" stroke="blue" points="775.5,-32.18 764.9,-32.12 773.14,-38.78 775.5,-32.18"/>
<text text-anchor="middle" x="900.59" y="-57.8" font-family="Times,serif" font-size="14.00">name</text>
</g>
<!-- description -->
<g id="node8" class="node">
<title>description</title>
<ellipse fill="none" stroke="blue" cx="879.59" cy="-18" rx="75.29" ry="18"/>
<text text-anchor="middle" x="879.59" y="-14.3" font-family="Times,serif" font-size="14.00">narrative text</text>
</g>
<!-- physiological process&#45;&gt;description -->
<g id="edge7" class="edge">
<title>physiological process&#45;&gt;description</title>
<path fill="none" stroke="blue" d="M1002.21,-89.66C984.52,-84.29 965.34,-77.4 948.59,-69 933.87,-61.62 918.91,-51.2 906.69,-41.79"/>
<polygon fill="blue" stroke="blue" points="908.73,-38.93 898.72,-35.48 904.39,-44.42 908.73,-38.93"/>
<text text-anchor="middle" x="989.09" y="-57.8" font-family="Times,serif" font-size="14.00">description</text>
</g>
<!-- source -->
<g id="node9" class="node">
<title>source</title>
<ellipse fill="none" stroke="blue" cx="1011.59" cy="-18" rx="38.19" ry="18"/>
<text text-anchor="middle" x="1011.59" y="-14.3" font-family="Times,serif" font-size="14.00">string</text>
</g>
<!-- physiological process&#45;&gt;source -->
<g id="edge8" class="edge">
<title>physiological process&#45;&gt;source</title>
<path fill="none" stroke="blue" d="M1050.68,-86.8C1043.68,-74.66 1034.18,-58.19 1026.3,-44.52"/>
<polygon fill="blue" stroke="blue" points="1029.19,-42.51 1021.16,-35.6 1023.12,-46.01 1029.19,-42.51"/>
<text text-anchor="middle" x="1063.59" y="-57.8" font-family="Times,serif" font-size="14.00">source</text>
</g>
<!-- has attribute -->
<g id="node10" class="node">
<title>has attribute</title>
<ellipse fill="none" stroke="blue" cx="1119.59" cy="-18" rx="51.99" ry="18"/>
<text text-anchor="middle" x="1119.59" y="-14.3" font-family="Times,serif" font-size="14.00">attribute</text>
</g>
<!-- physiological process&#45;&gt;has attribute -->
<g id="edge9" class="edge">
<title>physiological process&#45;&gt;has attribute</title>
<path fill="none" stroke="blue" d="M1074.97,-86.87C1079.48,-81.28 1084.37,-74.97 1088.59,-69 1094.07,-61.24 1099.66,-52.52 1104.56,-44.56"/>
<polygon fill="blue" stroke="blue" points="1107.56,-46.36 1109.75,-35.99 1101.57,-42.73 1107.56,-46.36"/>
<text text-anchor="middle" x="1145.59" y="-57.8" font-family="Times,serif" font-size="14.00">has attribute</text>
</g>
<!-- provided by -->
<g id="node11" class="node">
<title>provided by</title>
<ellipse fill="none" stroke="blue" cx="1227.59" cy="-18" rx="38.19" ry="18"/>
<text text-anchor="middle" x="1227.59" y="-14.3" font-family="Times,serif" font-size="14.00">string</text>
</g>
<!-- physiological process&#45;&gt;provided by -->
<g id="edge10" class="edge">
<title>physiological process&#45;&gt;provided by</title>
<path fill="none" stroke="blue" d="M1143.83,-93.2C1162.42,-88.01 1181.17,-80.33 1196.59,-69 1205.02,-62.8 1211.67,-53.56 1216.61,-44.7"/>
<polygon fill="blue" stroke="blue" points="1219.74,-46.26 1221.14,-35.76 1213.5,-43.09 1219.74,-46.26"/>
<text text-anchor="middle" x="1254.09" y="-57.8" font-family="Times,serif" font-size="14.00">provided by</text>
</g>
<!-- xref -->
<g id="node12" class="node">
<title>xref</title>
<ellipse fill="none" stroke="blue" cx="1341.59" cy="-18" rx="57.39" ry="18"/>
<text text-anchor="middle" x="1341.59" y="-14.3" font-family="Times,serif" font-size="14.00">uriorcurie</text>
</g>
<!-- physiological process&#45;&gt;xref -->
<g id="edge11" class="edge">
<title>physiological process&#45;&gt;xref</title>
<path fill="none" stroke="blue" d="M1140.1,-92.57C1209.63,-82.56 1299.69,-69.51 1300.59,-69 1310.81,-63.22 1319.52,-53.82 1326.26,-44.72"/>
<polygon fill="blue" stroke="blue" points="1329.32,-46.45 1332.09,-36.22 1323.54,-42.49 1329.32,-46.45"/>
<text text-anchor="middle" x="1333.09" y="-57.8" font-family="Times,serif" font-size="14.00">xref</text>
</g>
<!-- category -->
<g id="node13" class="node">
<title>category</title>
<ellipse fill="none" stroke="black" cx="1468.59" cy="-18" rx="51.19" ry="18"/>
<text text-anchor="middle" x="1468.59" y="-14.3" font-family="Times,serif" font-size="14.00">category</text>
</g>
<!-- physiological process&#45;&gt;category -->
<g id="edge12" class="edge">
<title>physiological process&#45;&gt;category</title>
<path fill="none" stroke="blue" d="M1138.95,-92.38C1152.49,-90.49 1166.44,-88.63 1179.59,-87 1255.87,-77.56 1277.2,-88.32 1351.59,-69 1379.65,-61.71 1409.7,-48.76 1432.31,-37.86"/>
<polygon fill="blue" stroke="blue" points="1434.09,-40.88 1441.52,-33.33 1431,-34.6 1434.09,-40.88"/>
<text text-anchor="middle" x="1426.09" y="-57.8" font-family="Times,serif" font-size="14.00">category</text>
</g>
<!-- in taxon -->
<g id="node15" class="node">
<title>in taxon</title>
<ellipse fill="none" stroke="blue" cx="1621.59" cy="-18" rx="83.39" ry="18"/>
<text text-anchor="middle" x="1621.59" y="-14.3" font-family="Times,serif" font-size="14.00">organism taxon</text>
</g>
<!-- physiological process&#45;&gt;in taxon -->
<g id="edge13" class="edge">
<title>physiological process&#45;&gt;in taxon</title>
<path fill="none" stroke="blue" d="M1137.62,-92.1C1151.56,-90.2 1165.99,-88.4 1179.59,-87 1304.52,-74.11 1338.11,-91.89 1461.59,-69 1499.81,-61.92 1541.69,-48.62 1573.02,-37.51"/>
<polygon fill="blue" stroke="blue" points="1574.58,-40.67 1582.8,-34 1572.21,-34.09 1574.58,-40.67"/>
<text text-anchor="middle" x="1549.59" y="-57.8" font-family="Times,serif" font-size="14.00">in taxon</text>
</g>
<!-- has input -->
<g id="node16" class="node">
<title>has input</title>
<ellipse fill="none" stroke="blue" cx="1866.59" cy="-18" rx="143.77" ry="18"/>
<text text-anchor="middle" x="1866.59" y="-14.3" font-family="Times,serif" font-size="14.00">biological process or activity</text>
</g>
<!-- physiological process&#45;&gt;has input -->
<g id="edge14" class="edge">
<title>physiological process&#45;&gt;has input</title>
<path fill="none" stroke="blue" d="M1136.96,-91.97C1151.1,-90.06 1165.77,-88.29 1179.59,-87 1358.1,-70.3 1404.37,-88.58 1582.59,-69 1652.19,-61.35 1730.5,-47.14 1787.24,-35.81"/>
<polygon fill="blue" stroke="blue" points="1788.1,-39.21 1797.22,-33.81 1786.72,-32.35 1788.1,-39.21"/>
<text text-anchor="middle" x="1719.09" y="-57.8" font-family="Times,serif" font-size="14.00">has input</text>
</g>
<!-- has output -->
<g id="node17" class="node">
<title>has output</title>
<ellipse fill="none" stroke="blue" cx="2171.59" cy="-18" rx="143.77" ry="18"/>
<text text-anchor="middle" x="2171.59" y="-14.3" font-family="Times,serif" font-size="14.00">biological process or activity</text>
</g>
<!-- physiological process&#45;&gt;has output -->
<g id="edge15" class="edge">
<title>physiological process&#45;&gt;has output</title>
<path fill="none" stroke="blue" d="M1136.31,-91.9C1150.65,-89.97 1165.56,-88.22 1179.59,-87 1435.2,-64.82 1500.75,-88.36 1756.59,-69 1864.72,-60.82 1988.01,-45.15 2071.92,-33.53"/>
<polygon fill="blue" stroke="blue" points="2072.54,-36.97 2081.96,-32.13 2071.57,-30.04 2072.54,-36.97"/>
<text text-anchor="middle" x="1944.09" y="-57.8" font-family="Times,serif" font-size="14.00">has output</text>
</g>
<!-- enabled by -->
<g id="node18" class="node">
<title>enabled by</title>
<ellipse fill="none" stroke="blue" cx="2412.59" cy="-18" rx="79.09" ry="18"/>
<text text-anchor="middle" x="2412.59" y="-14.3" font-family="Times,serif" font-size="14.00">physical entity</text>
</g>
<!-- physiological process&#45;&gt;enabled by -->
<g id="edge16" class="edge">
<title>physiological process&#45;&gt;enabled by</title>
<path fill="none" stroke="blue" d="M1135.98,-91.84C1150.42,-89.91 1165.45,-88.16 1179.59,-87 1537.14,-57.58 1628.48,-90.45 1986.59,-69 2137.26,-59.98 2175.22,-57.67 2324.59,-36 2331.42,-35.01 2338.52,-33.85 2345.6,-32.61"/>
<polygon fill="blue" stroke="blue" points="2346.7,-35.97 2355.92,-30.76 2345.46,-29.08 2346.7,-35.97"/>
<text text-anchor="middle" x="2224.09" y="-57.8" font-family="Times,serif" font-size="14.00">enabled by</text>
</g>
<!-- named thing_category -->
<g id="node14" class="node">
<title>named thing_category</title>
<ellipse fill="none" stroke="blue" cx="1263.59" cy="-105" rx="74.99" ry="18"/>
<text text-anchor="middle" x="1263.59" y="-101.3" font-family="Times,serif" font-size="14.00">category type</text>
</g>
</g>
</svg>
