<?xml version="1.0" encoding="UTF-8" standalone="no"?>
<!DOCTYPE svg PUBLIC "-//W3C//DTD SVG 1.1//EN"
 "http://www.w3.org/Graphics/SVG/1.1/DTD/svg11.dtd">
<!-- Generated by graphviz version 2.43.0 (0)
 -->
<!-- Title: %3 Pages: 1 -->
<svg width="2216pt" height="131pt"
 viewBox="0.00 0.00 2215.88 131.00" xmlns="http://www.w3.org/2000/svg" xmlns:xlink="http://www.w3.org/1999/xlink">
<g id="graph0" class="graph" transform="scale(1 1) rotate(0) translate(4 127)">
<title>%3</title>
<polygon fill="white" stroke="transparent" points="-4,4 -4,-127 2211.88,-127 2211.88,4 -4,4"/>
<!-- physiological process -->
<g id="node1" class="node">
<title>physiological process</title>
<ellipse fill="none" stroke="black" cx="954.59" cy="-105" rx="109.68" ry="18"/>
<text text-anchor="middle" x="954.59" y="-101.3" font-family="Times,serif" font-size="14.00">physiological process</text>
</g>
<!-- biological process -->
<g id="node2" class="node">
<title>biological process</title>
<ellipse fill="none" stroke="black" cx="93.59" cy="-18" rx="93.68" ry="18"/>
<text text-anchor="middle" x="93.59" y="-14.3" font-family="Times,serif" font-size="14.00">biological process</text>
</g>
<!-- physiological process&#45;&gt;biological process -->
<g id="edge1" class="edge">
<title>physiological process&#45;&gt;biological process</title>
<path fill="none" stroke="black" d="M847.87,-100.64C734.61,-96.31 550.54,-87.08 392.59,-69 314.99,-60.12 226.87,-44.73 166.51,-33.36"/>
<polygon fill="black" stroke="black" points="166.8,-29.86 156.32,-31.43 165.5,-36.73 166.8,-29.86"/>
<text text-anchor="middle" x="406.59" y="-57.8" font-family="Times,serif" font-size="14.00">is_a</text>
</g>
<!-- ontology class -->
<g id="node3" class="node">
<title>ontology class</title>
<ellipse fill="none" stroke="black" cx="281.59" cy="-18" rx="76.89" ry="18"/>
<text text-anchor="middle" x="281.59" y="-14.3" font-family="Times,serif" font-size="14.00">ontology class</text>
</g>
<!-- physiological process&#45;&gt;ontology class -->
<g id="edge2" class="edge">
<title>physiological process&#45;&gt;ontology class</title>
<path fill="none" stroke="black" d="M848.64,-100.04C757.14,-95.6 621.6,-86.58 504.59,-69 448.23,-60.53 384.92,-45.83 340.19,-34.55"/>
<polygon fill="black" stroke="black" points="340.93,-31.13 330.37,-32.05 339.2,-37.91 340.93,-31.13"/>
<text text-anchor="middle" x="521.09" y="-57.8" font-family="Times,serif" font-size="14.00">uses</text>
</g>
<!-- id -->
<g id="node4" class="node">
<title>id</title>
<ellipse fill="none" stroke="blue" cx="414.59" cy="-18" rx="38.19" ry="18"/>
<text text-anchor="middle" x="414.59" y="-14.3" font-family="Times,serif" font-size="14.00">string</text>
</g>
<!-- physiological process&#45;&gt;id -->
<g id="edge3" class="edge">
<title>physiological process&#45;&gt;id</title>
<path fill="none" stroke="blue" d="M853.11,-97.9C752.5,-90.01 594.7,-72.66 462.59,-36 459.48,-35.14 456.28,-34.17 453.08,-33.16"/>
<polygon fill="blue" stroke="blue" points="454.17,-29.83 443.58,-30 451.96,-36.47 454.17,-29.83"/>
<text text-anchor="middle" x="616.59" y="-57.8" font-family="Times,serif" font-size="14.00">id</text>
</g>
<!-- iri -->
<g id="node5" class="node">
<title>iri</title>
<ellipse fill="none" stroke="blue" cx="515.59" cy="-18" rx="44.39" ry="18"/>
<text text-anchor="middle" x="515.59" y="-14.3" font-family="Times,serif" font-size="14.00">iri type</text>
</g>
<!-- physiological process&#45;&gt;iri -->
<g id="edge4" class="edge">
<title>physiological process&#45;&gt;iri</title>
<path fill="none" stroke="blue" d="M870.47,-93.39C824.3,-87.15 766.13,-78.61 714.59,-69 649.62,-56.89 633.39,-53.27 569.59,-36 566.01,-35.03 562.32,-33.98 558.62,-32.89"/>
<polygon fill="blue" stroke="blue" points="559.47,-29.49 548.88,-29.95 557.44,-36.19 559.47,-29.49"/>
<text text-anchor="middle" x="722.59" y="-57.8" font-family="Times,serif" font-size="14.00">iri</text>
</g>
<!-- type -->
<g id="node6" class="node">
<title>type</title>
<ellipse fill="none" stroke="blue" cx="616.59" cy="-18" rx="38.19" ry="18"/>
<text text-anchor="middle" x="616.59" y="-14.3" font-family="Times,serif" font-size="14.00">string</text>
</g>
<!-- physiological process&#45;&gt;type -->
<g id="edge5" class="edge">
<title>physiological process&#45;&gt;type</title>
<path fill="none" stroke="blue" d="M886.57,-90.85C827.14,-78.71 738.86,-59.1 663.59,-36 660.83,-35.15 657.99,-34.24 655.15,-33.29"/>
<polygon fill="blue" stroke="blue" points="656.12,-29.92 645.52,-29.97 653.84,-36.54 656.12,-29.92"/>
<text text-anchor="middle" x="798.59" y="-57.8" font-family="Times,serif" font-size="14.00">type</text>
</g>
<!-- name -->
<g id="node7" class="node">
<title>name</title>
<ellipse fill="none" stroke="blue" cx="729.59" cy="-18" rx="56.59" ry="18"/>
<text text-anchor="middle" x="729.59" y="-14.3" font-family="Times,serif" font-size="14.00">label type</text>
</g>
<!-- physiological process&#45;&gt;name -->
<g id="edge6" class="edge">
<title>physiological process&#45;&gt;name</title>
<path fill="none" stroke="blue" d="M913.06,-88.31C873.65,-73.42 814.59,-51.11 774.19,-35.85"/>
<polygon fill="blue" stroke="blue" points="775.19,-32.49 764.6,-32.23 772.72,-39.03 775.19,-32.49"/>
<text text-anchor="middle" x="875.59" y="-57.8" font-family="Times,serif" font-size="14.00">name</text>
</g>
<!-- description -->
<g id="node8" class="node">
<title>description</title>
<ellipse fill="none" stroke="blue" cx="879.59" cy="-18" rx="75.29" ry="18"/>
<text text-anchor="middle" x="879.59" y="-14.3" font-family="Times,serif" font-size="14.00">narrative text</text>
</g>
<!-- physiological process&#45;&gt;description -->
<g id="edge7" class="edge">
<title>physiological process&#45;&gt;description</title>
<path fill="none" stroke="blue" d="M939.41,-86.8C928.47,-74.39 913.52,-57.46 901.31,-43.62"/>
<polygon fill="blue" stroke="blue" points="903.73,-41.07 894.49,-35.89 898.48,-45.7 903.73,-41.07"/>
<text text-anchor="middle" x="962.09" y="-57.8" font-family="Times,serif" font-size="14.00">description</text>
</g>
<!-- source -->
<g id="node9" class="node">
<title>source</title>
<ellipse fill="none" stroke="blue" cx="1029.59" cy="-18" rx="56.59" ry="18"/>
<text text-anchor="middle" x="1029.59" y="-14.3" font-family="Times,serif" font-size="14.00">label type</text>
</g>
<!-- physiological process&#45;&gt;source -->
<g id="edge8" class="edge">
<title>physiological process&#45;&gt;source</title>
<path fill="none" stroke="blue" d="M984.91,-87.63C992.67,-82.42 1000.53,-76.13 1006.59,-69 1012.4,-62.17 1017.04,-53.63 1020.59,-45.55"/>
<polygon fill="blue" stroke="blue" points="1023.92,-46.65 1024.38,-36.07 1017.42,-44.05 1023.92,-46.65"/>
<text text-anchor="middle" x="1040.59" y="-57.8" font-family="Times,serif" font-size="14.00">source</text>
</g>
<!-- provided by -->
<g id="node10" class="node">
<title>provided by</title>
<ellipse fill="none" stroke="blue" cx="1141.59" cy="-18" rx="37.09" ry="18"/>
<text text-anchor="middle" x="1141.59" y="-14.3" font-family="Times,serif" font-size="14.00">agent</text>
</g>
<!-- physiological process&#45;&gt;provided by -->
<g id="edge9" class="edge">
<title>physiological process&#45;&gt;provided by</title>
<path fill="none" stroke="blue" d="M1013.29,-89.67C1031.46,-84.27 1051.25,-77.36 1068.59,-69 1084.94,-61.12 1101.74,-49.87 1115.1,-40.03"/>
<polygon fill="blue" stroke="blue" points="1117.46,-42.63 1123.34,-33.82 1113.25,-37.04 1117.46,-42.63"/>
<text text-anchor="middle" x="1137.09" y="-57.8" font-family="Times,serif" font-size="14.00">provided by</text>
</g>
<!-- has attribute -->
<g id="node11" class="node">
<title>has attribute</title>
<ellipse fill="none" stroke="blue" cx="1248.59" cy="-18" rx="51.99" ry="18"/>
<text text-anchor="middle" x="1248.59" y="-14.3" font-family="Times,serif" font-size="14.00">attribute</text>
</g>
<!-- physiological process&#45;&gt;has attribute -->
<g id="edge10" class="edge">
<title>physiological process&#45;&gt;has attribute</title>
<path fill="none" stroke="blue" d="M1033.31,-92.44C1098.15,-82.84 1180.04,-70.52 1183.59,-69 1198.7,-62.55 1213.39,-51.76 1224.97,-41.85"/>
<polygon fill="blue" stroke="blue" points="1227.31,-44.45 1232.46,-35.19 1222.66,-39.22 1227.31,-44.45"/>
<text text-anchor="middle" x="1256.59" y="-57.8" font-family="Times,serif" font-size="14.00">has attribute</text>
</g>
<!-- category -->
<g id="node12" class="node">
<title>category</title>
<ellipse fill="none" stroke="black" cx="1369.59" cy="-18" rx="51.19" ry="18"/>
<text text-anchor="middle" x="1369.59" y="-14.3" font-family="Times,serif" font-size="14.00">category</text>
</g>
<!-- physiological process&#45;&gt;category -->
<g id="edge11" class="edge">
<title>physiological process&#45;&gt;category</title>
<path fill="none" stroke="blue" d="M1031.62,-92.15C1045.25,-90.27 1059.32,-88.46 1072.59,-87 1124.65,-81.26 1258.91,-88.31 1307.59,-69 1322.28,-63.18 1336.21,-52.59 1347.13,-42.65"/>
<polygon fill="blue" stroke="blue" points="1349.69,-45.04 1354.52,-35.61 1344.86,-39.98 1349.69,-45.04"/>
<text text-anchor="middle" x="1364.09" y="-57.8" font-family="Times,serif" font-size="14.00">category</text>
</g>
<!-- has input -->
<g id="node14" class="node">
<title>has input</title>
<ellipse fill="none" stroke="blue" cx="1582.59" cy="-18" rx="143.77" ry="18"/>
<text text-anchor="middle" x="1582.59" y="-14.3" font-family="Times,serif" font-size="14.00">biological process or activity</text>
</g>
<!-- physiological process&#45;&gt;has input -->
<g id="edge12" class="edge">
<title>physiological process&#45;&gt;has input</title>
<path fill="none" stroke="blue" d="M1030.96,-92C1044.79,-90.11 1059.1,-88.34 1072.59,-87 1217.43,-72.61 1255.92,-92.31 1399.59,-69 1442.23,-62.08 1489.22,-49.13 1524.91,-38.14"/>
<polygon fill="blue" stroke="blue" points="1526.15,-41.41 1534.66,-35.1 1524.07,-34.73 1526.15,-41.41"/>
<text text-anchor="middle" x="1500.09" y="-57.8" font-family="Times,serif" font-size="14.00">has input</text>
</g>
<!-- has output -->
<g id="node15" class="node">
<title>has output</title>
<ellipse fill="none" stroke="blue" cx="1887.59" cy="-18" rx="143.77" ry="18"/>
<text text-anchor="middle" x="1887.59" y="-14.3" font-family="Times,serif" font-size="14.00">biological process or activity</text>
</g>
<!-- physiological process&#45;&gt;has output -->
<g id="edge13" class="edge">
<title>physiological process&#45;&gt;has output</title>
<path fill="none" stroke="blue" d="M1030.31,-91.9C1044.34,-90 1058.88,-88.25 1072.59,-87 1278.56,-68.23 1331.61,-87.65 1537.59,-69 1626.01,-60.99 1726.24,-46.07 1796.71,-34.61"/>
<polygon fill="blue" stroke="blue" points="1797.59,-38.01 1806.89,-32.94 1796.46,-31.1 1797.59,-38.01"/>
<text text-anchor="middle" x="1702.09" y="-57.8" font-family="Times,serif" font-size="14.00">has output</text>
</g>
<!-- enabled by -->
<g id="node16" class="node">
<title>enabled by</title>
<ellipse fill="none" stroke="blue" cx="2128.59" cy="-18" rx="79.09" ry="18"/>
<text text-anchor="middle" x="2128.59" y="-14.3" font-family="Times,serif" font-size="14.00">physical entity</text>
</g>
<!-- physiological process&#45;&gt;enabled by -->
<g id="edge14" class="edge">
<title>physiological process&#45;&gt;enabled by</title>
<path fill="none" stroke="blue" d="M1029.66,-91.85C1043.89,-89.93 1058.67,-88.19 1072.59,-87 1370.29,-61.66 1446.53,-89.57 1744.59,-69 1876.65,-59.89 1909.73,-55.9 2040.59,-36 2047.41,-34.96 2054.51,-33.77 2061.59,-32.52"/>
<polygon fill="blue" stroke="blue" points="2062.69,-35.88 2071.9,-30.64 2061.44,-28.99 2062.69,-35.88"/>
<text text-anchor="middle" x="1953.09" y="-57.8" font-family="Times,serif" font-size="14.00">enabled by</text>
</g>
<!-- named thing_category -->
<g id="node13" class="node">
<title>named thing_category</title>
<ellipse fill="none" stroke="blue" cx="1151.59" cy="-105" rx="69.59" ry="18"/>
<text text-anchor="middle" x="1151.59" y="-101.3" font-family="Times,serif" font-size="14.00">named thing</text>
</g>
</g>
</svg>
