<?xml version="1.0" encoding="UTF-8" standalone="no"?>
<!DOCTYPE svg PUBLIC "-//W3C//DTD SVG 1.1//EN"
 "http://www.w3.org/Graphics/SVG/1.1/DTD/svg11.dtd">
<!-- Generated by graphviz version 2.40.1 (20161225.0304)
 -->
<!-- Title: %3 Pages: 1 -->
<svg width="2366pt" height="130pt"
 viewBox="0.00 0.00 2365.70 130.00" xmlns="http://www.w3.org/2000/svg" xmlns:xlink="http://www.w3.org/1999/xlink">
<g id="graph0" class="graph" transform="scale(1 1) rotate(0) translate(4 126)">
<title>%3</title>
<polygon fill="#ffffff" stroke="transparent" points="-4,4 -4,-126 2361.699,-126 2361.699,4 -4,4"/>
<!-- physiological process -->
<g id="node1" class="node">
<title>physiological process</title>
<ellipse fill="none" stroke="#000000" cx="1070.2047" cy="-104" rx="86.4793" ry="18"/>
<text text-anchor="middle" x="1070.2047" y="-99.8" font-family="Times,serif" font-size="14.00" fill="#000000">physiological process</text>
</g>
<!-- biological process -->
<g id="node2" class="node">
<title>biological process</title>
<ellipse fill="none" stroke="#000000" cx="74.2047" cy="-18" rx="74.4099" ry="18"/>
<text text-anchor="middle" x="74.2047" y="-13.8" font-family="Times,serif" font-size="14.00" fill="#000000">biological process</text>
</g>
<!-- physiological process&#45;&gt;biological process -->
<g id="edge1" class="edge">
<title>physiological process&#45;&gt;biological process</title>
<path fill="none" stroke="#000000" d="M984.7878,-101.1545C819.5174,-95.4241 461.4567,-81.8543 338.6529,-68 269.408,-60.1881 191.0924,-44.5087 137.7758,-32.7798"/>
<polygon fill="#000000" stroke="#000000" points="138.3084,-29.313 127.7878,-30.5645 136.7926,-36.1469 138.3084,-29.313"/>
<text text-anchor="middle" x="350.4806" y="-56.8" font-family="Times,serif" font-size="14.00" fill="#000000">is_a</text>
</g>
<!-- id -->
<g id="node3" class="node">
<title>id</title>
<ellipse fill="none" stroke="#0000ff" cx="226.2047" cy="-18" rx="59.4427" ry="18"/>
<text text-anchor="middle" x="226.2047" y="-13.8" font-family="Times,serif" font-size="14.00" fill="#000000">identifier type</text>
</g>
<!-- physiological process&#45;&gt;id -->
<g id="edge2" class="edge">
<title>physiological process&#45;&gt;id</title>
<path fill="none" stroke="#0000ff" d="M984.7708,-100.9454C836.6429,-95.351 538.0511,-82.6765 434.315,-68 380.4981,-60.386 320.238,-45.1492 278.4678,-33.4864"/>
<polygon fill="#0000ff" stroke="#0000ff" points="279.3658,-30.1032 268.7911,-30.7561 277.4649,-36.8402 279.3658,-30.1032"/>
<text text-anchor="middle" x="440.6495" y="-56.8" font-family="Times,serif" font-size="14.00" fill="#000000">id</text>
</g>
<!-- name -->
<g id="node4" class="node">
<title>name</title>
<ellipse fill="none" stroke="#0000ff" cx="348.2047" cy="-18" rx="44.9599" ry="18"/>
<text text-anchor="middle" x="348.2047" y="-13.8" font-family="Times,serif" font-size="14.00" fill="#000000">label type</text>
</g>
<!-- physiological process&#45;&gt;name -->
<g id="edge3" class="edge">
<title>physiological process&#45;&gt;name</title>
<path fill="none" stroke="#0000ff" d="M984.6731,-101.3002C848.7067,-96.5543 589.3846,-85.5246 498.8873,-68 460.7178,-60.6086 418.8641,-46.1827 388.9743,-34.7182"/>
<polygon fill="#0000ff" stroke="#0000ff" points="389.9075,-31.3256 379.319,-30.9582 387.3673,-37.8485 389.9075,-31.3256"/>
<text text-anchor="middle" x="514.3634" y="-56.8" font-family="Times,serif" font-size="14.00" fill="#000000">name</text>
</g>
<!-- category -->
<g id="node5" class="node">
<title>category</title>
<ellipse fill="none" stroke="#0000ff" cx="446.2047" cy="-18" rx="35.3048" ry="18"/>
<text text-anchor="middle" x="446.2047" y="-13.8" font-family="Times,serif" font-size="14.00" fill="#000000">iri type</text>
</g>
<!-- physiological process&#45;&gt;category -->
<g id="edge4" class="edge">
<title>physiological process&#45;&gt;category</title>
<path fill="none" stroke="#0000ff" d="M984.9858,-100.4038C866.0793,-94.9246 656.5928,-83.4681 582.0113,-68 546.9546,-60.7293 508.8463,-46.0605 481.9461,-34.4826"/>
<polygon fill="#0000ff" stroke="#0000ff" points="483.1331,-31.1816 472.5689,-30.3763 480.3252,-37.5937 483.1331,-31.1816"/>
<text text-anchor="middle" x="606.3014" y="-56.8" font-family="Times,serif" font-size="14.00" fill="#000000">category</text>
</g>
<!-- related to -->
<g id="node6" class="node">
<title>related to</title>
<ellipse fill="none" stroke="#0000ff" cx="553.2047" cy="-18" rx="54.1389" ry="18"/>
<text text-anchor="middle" x="553.2047" y="-13.8" font-family="Times,serif" font-size="14.00" fill="#000000">named thing</text>
</g>
<!-- physiological process&#45;&gt;related to -->
<g id="edge5" class="edge">
<title>physiological process&#45;&gt;related to</title>
<path fill="none" stroke="#0000ff" d="M986.6511,-99.284C888.756,-93.2479 732.6884,-81.8915 675.732,-68 646.8937,-60.9664 615.9554,-48.297 592.3821,-37.4719"/>
<polygon fill="#0000ff" stroke="#0000ff" points="593.6236,-34.1887 583.0826,-33.1221 590.6578,-40.5293 593.6236,-34.1887"/>
<text text-anchor="middle" x="702.441" y="-56.8" font-family="Times,serif" font-size="14.00" fill="#000000">related to</text>
</g>
<!-- interacts with -->
<g id="node7" class="node">
<title>interacts with</title>
<ellipse fill="none" stroke="#0000ff" cx="679.2047" cy="-18" rx="54.1389" ry="18"/>
<text text-anchor="middle" x="679.2047" y="-13.8" font-family="Times,serif" font-size="14.00" fill="#000000">named thing</text>
</g>
<!-- physiological process&#45;&gt;interacts with -->
<g id="edge6" class="edge">
<title>physiological process&#45;&gt;interacts with</title>
<path fill="none" stroke="#0000ff" d="M987.709,-98.5514C910.1832,-92.6907 800.1583,-82.256 759.3941,-68 741.4393,-61.7209 723.3004,-50.8741 708.8266,-40.8847"/>
<polygon fill="#0000ff" stroke="#0000ff" points="710.4975,-37.7777 700.3227,-34.8242 706.4349,-43.4782 710.4975,-37.7777"/>
<text text-anchor="middle" x="798.11" y="-56.8" font-family="Times,serif" font-size="14.00" fill="#000000">interacts with</text>
</g>
<!-- node property -->
<g id="node8" class="node">
<title>node property</title>
<ellipse fill="none" stroke="#0000ff" cx="781.2047" cy="-18" rx="30.0035" ry="18"/>
<text text-anchor="middle" x="781.2047" y="-13.8" font-family="Times,serif" font-size="14.00" fill="#000000">string</text>
</g>
<!-- physiological process&#45;&gt;node property -->
<g id="edge7" class="edge">
<title>physiological process&#45;&gt;node property</title>
<path fill="none" stroke="#0000ff" d="M991.7041,-96.2461C953.8477,-90.9329 908.2586,-82.1853 869.0631,-68 848.0375,-60.3906 826.1787,-47.9711 809.5237,-37.4139"/>
<polygon fill="#0000ff" stroke="#0000ff" points="811.1387,-34.2896 800.8447,-31.7827 807.3286,-40.1618 811.1387,-34.2896"/>
<text text-anchor="middle" x="908.2755" y="-56.8" font-family="Times,serif" font-size="14.00" fill="#000000">node property</text>
</g>
<!-- iri -->
<g id="node9" class="node">
<title>iri</title>
<ellipse fill="none" stroke="#0000ff" cx="865.2047" cy="-18" rx="35.3048" ry="18"/>
<text text-anchor="middle" x="865.2047" y="-13.8" font-family="Times,serif" font-size="14.00" fill="#000000">iri type</text>
</g>
<!-- physiological process&#45;&gt;iri -->
<g id="edge8" class="edge">
<title>physiological process&#45;&gt;iri</title>
<path fill="none" stroke="#0000ff" d="M1031.031,-87.729C1016.2156,-81.5639 999.2062,-74.4721 983.7633,-68 956.2397,-56.4649 925.1556,-43.3526 901.7227,-33.4506"/>
<polygon fill="#0000ff" stroke="#0000ff" points="903.0757,-30.2227 892.5021,-29.5531 900.3503,-36.6704 903.0757,-30.2227"/>
<text text-anchor="middle" x="990.4254" y="-56.8" font-family="Times,serif" font-size="14.00" fill="#000000">iri</text>
</g>
<!-- synonym -->
<g id="node10" class="node">
<title>synonym</title>
<ellipse fill="none" stroke="#0000ff" cx="963.2047" cy="-18" rx="44.9599" ry="18"/>
<text text-anchor="middle" x="963.2047" y="-13.8" font-family="Times,serif" font-size="14.00" fill="#000000">label type</text>
</g>
<!-- physiological process&#45;&gt;synonym -->
<g id="edge9" class="edge">
<title>physiological process&#45;&gt;synonym</title>
<path fill="none" stroke="#0000ff" d="M1041.6079,-86.8811C1032.7847,-81.2109 1023.2023,-74.6434 1014.8668,-68 1005.0524,-60.178 994.978,-50.7873 986.3617,-42.2667"/>
<polygon fill="#0000ff" stroke="#0000ff" points="988.7387,-39.6932 979.2085,-35.0643 983.772,-44.626 988.7387,-39.6932"/>
<text text-anchor="middle" x="1040.8736" y="-56.8" font-family="Times,serif" font-size="14.00" fill="#000000">synonym</text>
</g>
<!-- full name -->
<g id="node11" class="node">
<title>full name</title>
<ellipse fill="none" stroke="#0000ff" cx="1070.2047" cy="-18" rx="44.9599" ry="18"/>
<text text-anchor="middle" x="1070.2047" y="-13.8" font-family="Times,serif" font-size="14.00" fill="#000000">label type</text>
</g>
<!-- physiological process&#45;&gt;full name -->
<g id="edge10" class="edge">
<title>physiological process&#45;&gt;full name</title>
<path fill="none" stroke="#0000ff" d="M1070.2047,-85.7616C1070.2047,-74.3597 1070.2047,-59.4342 1070.2047,-46.494"/>
<polygon fill="#0000ff" stroke="#0000ff" points="1073.7048,-46.2121 1070.2047,-36.2121 1066.7048,-46.2121 1073.7048,-46.2121"/>
<text text-anchor="middle" x="1096.8341" y="-56.8" font-family="Times,serif" font-size="14.00" fill="#000000">full name</text>
</g>
<!-- description -->
<g id="node12" class="node">
<title>description</title>
<ellipse fill="none" stroke="#0000ff" cx="1190.2047" cy="-18" rx="57.0027" ry="18"/>
<text text-anchor="middle" x="1190.2047" y="-13.8" font-family="Times,serif" font-size="14.00" fill="#000000">narrative text</text>
</g>
<!-- physiological process&#45;&gt;description -->
<g id="edge11" class="edge">
<title>physiological process&#45;&gt;description</title>
<path fill="none" stroke="#0000ff" d="M1098.7218,-86.8279C1107.9489,-81.0506 1118.1363,-74.4342 1127.2047,-68 1138.9114,-59.6938 1151.3748,-49.9962 1162.0994,-41.3639"/>
<polygon fill="#0000ff" stroke="#0000ff" points="1164.3651,-44.0328 1169.9204,-35.0111 1159.9517,-38.5993 1164.3651,-44.0328"/>
<text text-anchor="middle" x="1176.3082" y="-56.8" font-family="Times,serif" font-size="14.00" fill="#000000">description</text>
</g>
<!-- systematic synonym -->
<g id="node13" class="node">
<title>systematic synonym</title>
<ellipse fill="none" stroke="#0000ff" cx="1310.2047" cy="-18" rx="44.9599" ry="18"/>
<text text-anchor="middle" x="1310.2047" y="-13.8" font-family="Times,serif" font-size="14.00" fill="#000000">label type</text>
</g>
<!-- physiological process&#45;&gt;systematic synonym -->
<g id="edge12" class="edge">
<title>physiological process&#45;&gt;systematic synonym</title>
<path fill="none" stroke="#0000ff" d="M1131.8261,-91.3408C1156.8394,-85.4133 1185.7752,-77.5377 1211.2047,-68 1233.2597,-59.7279 1256.8429,-47.9441 1275.4576,-37.8938"/>
<polygon fill="#0000ff" stroke="#0000ff" points="1277.3483,-40.8488 1284.4356,-32.9735 1273.9841,-34.7102 1277.3483,-40.8488"/>
<text text-anchor="middle" x="1299.172" y="-56.8" font-family="Times,serif" font-size="14.00" fill="#000000">systematic synonym</text>
</g>
<!-- has phenotype -->
<g id="node14" class="node">
<title>has phenotype</title>
<ellipse fill="none" stroke="#0000ff" cx="1449.2047" cy="-18" rx="76.3132" ry="18"/>
<text text-anchor="middle" x="1449.2047" y="-13.8" font-family="Times,serif" font-size="14.00" fill="#000000">phenotypic feature</text>
</g>
<!-- physiological process&#45;&gt;has phenotype -->
<g id="edge13" class="edge">
<title>physiological process&#45;&gt;has phenotype</title>
<path fill="none" stroke="#0000ff" d="M1151.1771,-97.4704C1223.1478,-91.0252 1322.6125,-80.361 1360.2047,-68 1379.8081,-61.5541 1399.9907,-50.6281 1416.1702,-40.6309"/>
<polygon fill="#0000ff" stroke="#0000ff" points="1418.1496,-43.5201 1424.7178,-35.2068 1414.399,-37.6096 1418.1496,-43.5201"/>
<text text-anchor="middle" x="1431.4444" y="-56.8" font-family="Times,serif" font-size="14.00" fill="#000000">has phenotype</text>
</g>
<!-- has input -->
<g id="node15" class="node">
<title>has input</title>
<ellipse fill="none" stroke="#0000ff" cx="1597.2047" cy="-18" rx="54.1389" ry="18"/>
<text text-anchor="middle" x="1597.2047" y="-13.8" font-family="Times,serif" font-size="14.00" fill="#000000">named thing</text>
</g>
<!-- physiological process&#45;&gt;has input -->
<g id="edge14" class="edge">
<title>physiological process&#45;&gt;has input</title>
<path fill="none" stroke="#0000ff" d="M1154.2279,-99.5025C1254.6169,-93.6088 1416.3918,-82.3181 1475.2047,-68 1503.9395,-61.0044 1534.7445,-48.3347 1558.2111,-37.4999"/>
<polygon fill="#0000ff" stroke="#0000ff" points="1559.9089,-40.5692 1567.4681,-33.1456 1556.9295,-34.2349 1559.9089,-40.5692"/>
<text text-anchor="middle" x="1542.6754" y="-56.8" font-family="Times,serif" font-size="14.00" fill="#000000">has input</text>
</g>
<!-- has output -->
<g id="node16" class="node">
<title>has output</title>
<ellipse fill="none" stroke="#0000ff" cx="1723.2047" cy="-18" rx="54.1389" ry="18"/>
<text text-anchor="middle" x="1723.2047" y="-13.8" font-family="Times,serif" font-size="14.00" fill="#000000">named thing</text>
</g>
<!-- physiological process&#45;&gt;has output -->
<g id="edge15" class="edge">
<title>physiological process&#45;&gt;has output</title>
<path fill="none" stroke="#0000ff" d="M1155.2562,-100.454C1277.0169,-94.9405 1494.8522,-83.3323 1572.2047,-68 1609.1968,-60.6677 1649.6917,-46.9299 1679.4256,-35.7071"/>
<polygon fill="#0000ff" stroke="#0000ff" points="1680.9898,-38.856 1689.0761,-32.0104 1678.4858,-32.3191 1680.9898,-38.856"/>
<text text-anchor="middle" x="1652.1754" y="-56.8" font-family="Times,serif" font-size="14.00" fill="#000000">has output</text>
</g>
<!-- enabled by -->
<g id="node17" class="node">
<title>enabled by</title>
<ellipse fill="none" stroke="#0000ff" cx="1908.2047" cy="-18" rx="112.5297" ry="18"/>
<text text-anchor="middle" x="1908.2047" y="-13.8" font-family="Times,serif" font-size="14.00" fill="#000000">biological process or activity</text>
</g>
<!-- physiological process&#45;&gt;enabled by -->
<g id="edge16" class="edge">
<title>physiological process&#45;&gt;enabled by</title>
<path fill="none" stroke="#0000ff" d="M1155.3934,-100.7236C1299.5024,-94.8939 1585.4466,-82.0091 1685.2047,-68 1738.1707,-60.5619 1797.1901,-47.093 1841.2008,-36.0071"/>
<polygon fill="#0000ff" stroke="#0000ff" points="1842.0904,-39.3924 1850.9197,-33.5364 1840.3656,-32.6082 1842.0904,-39.3924"/>
<text text-anchor="middle" x="1790.7203" y="-56.8" font-family="Times,serif" font-size="14.00" fill="#000000">enabled by</text>
</g>
<!-- regulates, process to process -->
<g id="node18" class="node">
<title>regulates, process to process</title>
<ellipse fill="none" stroke="#0000ff" cx="2082.2047" cy="-18" rx="43.4887" ry="18"/>
<text text-anchor="middle" x="2082.2047" y="-13.8" font-family="Times,serif" font-size="14.00" fill="#000000">occurrent</text>
</g>
<!-- physiological process&#45;&gt;regulates, process to process -->
<g id="edge17" class="edge">
<title>physiological process&#45;&gt;regulates, process to process</title>
<path fill="none" stroke="#0000ff" d="M1156.7657,-102.8859C1297.3368,-100.4003 1583.8443,-92.5209 1825.2047,-68 1916.9469,-58.6795 1940.7227,-58.2819 2030.2047,-36 2033.5507,-35.1668 2036.9868,-34.2108 2040.4212,-33.1831"/>
<polygon fill="#0000ff" stroke="#0000ff" points="2041.5448,-36.4986 2050.0191,-30.1395 2039.4289,-29.826 2041.5448,-36.4986"/>
<text text-anchor="middle" x="2025.9015" y="-56.8" font-family="Times,serif" font-size="14.00" fill="#000000">regulates, process to process</text>
</g>
<!-- has participant -->
<g id="node19" class="node">
<title>has participant</title>
<ellipse fill="none" stroke="#0000ff" cx="2198.2047" cy="-18" rx="54.1389" ry="18"/>
<text text-anchor="middle" x="2198.2047" y="-13.8" font-family="Times,serif" font-size="14.00" fill="#000000">named thing</text>
</g>
<!-- physiological process&#45;&gt;has participant -->
<g id="edge18" class="edge">
<title>physiological process&#45;&gt;has participant</title>
<path fill="none" stroke="#0000ff" d="M1156.9777,-103.3452C1390.1688,-101.2539 2018.8861,-93.3123 2109.2047,-68 2129.795,-62.2295 2150.7465,-50.7916 2167.1448,-40.3104"/>
<polygon fill="#0000ff" stroke="#0000ff" points="2169.3368,-43.0573 2175.7553,-34.628 2165.4812,-37.2148 2169.3368,-43.0573"/>
<text text-anchor="middle" x="2184.2169" y="-56.8" font-family="Times,serif" font-size="14.00" fill="#000000">has participant</text>
</g>
<!-- precedes -->
<g id="node20" class="node">
<title>precedes</title>
<ellipse fill="none" stroke="#0000ff" cx="2314.2047" cy="-18" rx="43.4887" ry="18"/>
<text text-anchor="middle" x="2314.2047" y="-13.8" font-family="Times,serif" font-size="14.00" fill="#000000">occurrent</text>
</g>
<!-- physiological process&#45;&gt;precedes -->
<g id="edge19" class="edge">
<title>physiological process&#45;&gt;precedes</title>
<path fill="none" stroke="#0000ff" d="M1156.9334,-103.7823C1408.5502,-102.8041 2127.3702,-97.436 2229.2047,-68 2249.327,-62.1835 2269.6297,-50.5068 2285.3445,-39.8996"/>
<polygon fill="#0000ff" stroke="#0000ff" points="2287.3728,-42.7522 2293.5726,-34.1607 2283.3683,-37.0107 2287.3728,-42.7522"/>
<text text-anchor="middle" x="2285.6876" y="-56.8" font-family="Times,serif" font-size="14.00" fill="#000000">precedes</text>
</g>
</g>
</svg>
