<?xml version="1.0" encoding="UTF-8" standalone="no"?>
<!DOCTYPE svg PUBLIC "-//W3C//DTD SVG 1.1//EN"
 "http://www.w3.org/Graphics/SVG/1.1/DTD/svg11.dtd">
<!-- Generated by graphviz version 2.40.1 (20161225.0304)
 -->
<!-- Title: %3 Pages: 1 -->
<svg width="1432pt" height="131pt"
 viewBox="0.00 0.00 1432.14 131.00" xmlns="http://www.w3.org/2000/svg" xmlns:xlink="http://www.w3.org/1999/xlink">
<g id="graph0" class="graph" transform="scale(1 1) rotate(0) translate(4 127)">
<title>%3</title>
<polygon fill="#ffffff" stroke="transparent" points="-4,4 -4,-127 1428.1378,-127 1428.1378,4 -4,4"/>
<!-- physiological process -->
<g id="node1" class="node">
<title>physiological process</title>
<ellipse fill="none" stroke="#000000" cx="703.7434" cy="-105" rx="87.1846" ry="18"/>
<text text-anchor="middle" x="703.7434" y="-101.3" font-family="Times,serif" font-size="14.00" fill="#000000">physiological process</text>
</g>
<!-- biological process -->
<g id="node2" class="node">
<title>biological process</title>
<ellipse fill="none" stroke="#000000" cx="74.7434" cy="-18" rx="74.9875" ry="18"/>
<text text-anchor="middle" x="74.7434" y="-14.3" font-family="Times,serif" font-size="14.00" fill="#000000">biological process</text>
</g>
<!-- physiological process&#45;&gt;biological process -->
<g id="edge1" class="edge">
<title>physiological process&#45;&gt;biological process</title>
<path fill="none" stroke="#000000" d="M617.3447,-102.1794C529.5534,-98.2938 389.9076,-89.3026 270.7434,-69 222.8572,-60.8414 169.5732,-46.6354 130.6638,-35.2853"/>
<polygon fill="#000000" stroke="#000000" points="131.1728,-31.7866 120.5913,-32.3173 129.1942,-38.5012 131.1728,-31.7866"/>
<text text-anchor="middle" x="281.7434" y="-57.8" font-family="Times,serif" font-size="14.00" fill="#000000">is_a</text>
</g>
<!-- id -->
<g id="node3" class="node">
<title>id</title>
<ellipse fill="none" stroke="#0000ff" cx="197.7434" cy="-18" rx="30.5947" ry="18"/>
<text text-anchor="middle" x="197.7434" y="-14.3" font-family="Times,serif" font-size="14.00" fill="#000000">string</text>
</g>
<!-- physiological process&#45;&gt;id -->
<g id="edge2" class="edge">
<title>physiological process&#45;&gt;id</title>
<path fill="none" stroke="#0000ff" d="M620.9395,-99.2619C553.0779,-93.7967 454.7238,-84.1282 369.7434,-69 310.2072,-58.4014 294.8755,-55.8195 237.7434,-36 235.4973,-35.2208 233.2042,-34.364 230.9089,-33.4601"/>
<polygon fill="#0000ff" stroke="#0000ff" points="232.1522,-30.1863 221.576,-29.557 229.4513,-36.6443 232.1522,-30.1863"/>
<text text-anchor="middle" x="375.2434" y="-57.8" font-family="Times,serif" font-size="14.00" fill="#000000">id</text>
</g>
<!-- iri -->
<g id="node4" class="node">
<title>iri</title>
<ellipse fill="none" stroke="#0000ff" cx="282.7434" cy="-18" rx="36.2938" ry="18"/>
<text text-anchor="middle" x="282.7434" y="-14.3" font-family="Times,serif" font-size="14.00" fill="#000000">iri type</text>
</g>
<!-- physiological process&#45;&gt;iri -->
<g id="edge3" class="edge">
<title>physiological process&#45;&gt;iri</title>
<path fill="none" stroke="#0000ff" d="M625.9697,-96.8006C574.7597,-90.7414 506.4045,-81.395 446.7434,-69 393.006,-57.8357 379.7461,-53.5517 327.7434,-36 325.2146,-35.1465 322.6217,-34.2282 320.0192,-33.2742"/>
<polygon fill="#0000ff" stroke="#0000ff" points="321.2427,-29.995 310.6516,-29.7155 318.7568,-36.5387 321.2427,-29.995"/>
<text text-anchor="middle" x="453.2434" y="-57.8" font-family="Times,serif" font-size="14.00" fill="#000000">iri</text>
</g>
<!-- type -->
<g id="node5" class="node">
<title>type</title>
<ellipse fill="none" stroke="#0000ff" cx="367.7434" cy="-18" rx="30.5947" ry="18"/>
<text text-anchor="middle" x="367.7434" y="-14.3" font-family="Times,serif" font-size="14.00" fill="#000000">string</text>
</g>
<!-- physiological process&#45;&gt;type -->
<g id="edge4" class="edge">
<title>physiological process&#45;&gt;type</title>
<path fill="none" stroke="#0000ff" d="M634.7363,-93.9443C573.8263,-83.0102 483.237,-63.8566 407.7434,-36 405.513,-35.177 403.2318,-34.2871 400.9452,-33.3587"/>
<polygon fill="#0000ff" stroke="#0000ff" points="402.2047,-30.091 391.6324,-29.3995 399.4659,-36.533 402.2047,-30.091"/>
<text text-anchor="middle" x="523.7434" y="-57.8" font-family="Times,serif" font-size="14.00" fill="#000000">type</text>
</g>
<!-- name -->
<g id="node6" class="node">
<title>name</title>
<ellipse fill="none" stroke="#0000ff" cx="461.7434" cy="-18" rx="45.4919" ry="18"/>
<text text-anchor="middle" x="461.7434" y="-14.3" font-family="Times,serif" font-size="14.00" fill="#000000">label type</text>
</g>
<!-- physiological process&#45;&gt;name -->
<g id="edge5" class="edge">
<title>physiological process&#45;&gt;name</title>
<path fill="none" stroke="#0000ff" d="M652.7405,-90.3811C632.1124,-84.1901 608.1592,-76.6465 586.7434,-69 558.0006,-58.7374 526.1571,-45.7199 501.8038,-35.4053"/>
<polygon fill="#0000ff" stroke="#0000ff" points="503.0981,-32.1524 492.5263,-31.4534 500.3548,-38.5924 503.0981,-32.1524"/>
<text text-anchor="middle" x="602.2434" y="-57.8" font-family="Times,serif" font-size="14.00" fill="#000000">name</text>
</g>
<!-- description -->
<g id="node7" class="node">
<title>description</title>
<ellipse fill="none" stroke="#0000ff" cx="582.7434" cy="-18" rx="57.6901" ry="18"/>
<text text-anchor="middle" x="582.7434" y="-14.3" font-family="Times,serif" font-size="14.00" fill="#000000">narrative text</text>
</g>
<!-- physiological process&#45;&gt;description -->
<g id="edge6" class="edge">
<title>physiological process&#45;&gt;description</title>
<path fill="none" stroke="#0000ff" d="M670.1018,-88.3058C659.7355,-82.6556 648.4917,-75.9925 638.7434,-69 627.8913,-61.2157 616.8358,-51.5808 607.4464,-42.789"/>
<polygon fill="#0000ff" stroke="#0000ff" points="609.6386,-40.0426 599.9922,-35.6612 604.8009,-45.1019 609.6386,-40.0426"/>
<text text-anchor="middle" x="669.2434" y="-57.8" font-family="Times,serif" font-size="14.00" fill="#000000">description</text>
</g>
<!-- source -->
<g id="node8" class="node">
<title>source</title>
<ellipse fill="none" stroke="#0000ff" cx="703.7434" cy="-18" rx="45.4919" ry="18"/>
<text text-anchor="middle" x="703.7434" y="-14.3" font-family="Times,serif" font-size="14.00" fill="#000000">label type</text>
</g>
<!-- physiological process&#45;&gt;source -->
<g id="edge7" class="edge">
<title>physiological process&#45;&gt;source</title>
<path fill="none" stroke="#0000ff" d="M703.7434,-86.9735C703.7434,-75.1918 703.7434,-59.5607 703.7434,-46.1581"/>
<polygon fill="#0000ff" stroke="#0000ff" points="707.2435,-46.0033 703.7434,-36.0034 700.2435,-46.0034 707.2435,-46.0033"/>
<text text-anchor="middle" x="721.7434" y="-57.8" font-family="Times,serif" font-size="14.00" fill="#000000">source</text>
</g>
<!-- provided by -->
<g id="node9" class="node">
<title>provided by</title>
<ellipse fill="none" stroke="#0000ff" cx="796.7434" cy="-18" rx="29.795" ry="18"/>
<text text-anchor="middle" x="796.7434" y="-14.3" font-family="Times,serif" font-size="14.00" fill="#000000">agent</text>
</g>
<!-- physiological process&#45;&gt;provided by -->
<g id="edge8" class="edge">
<title>physiological process&#45;&gt;provided by</title>
<path fill="none" stroke="#0000ff" d="M723.8013,-87.1846C730.2137,-81.426 737.3145,-74.983 743.7434,-69 753.5293,-59.8927 764.1747,-49.7054 773.3402,-40.8443"/>
<polygon fill="#0000ff" stroke="#0000ff" points="775.8973,-43.24 780.6397,-33.7658 771.0242,-38.2148 775.8973,-43.24"/>
<text text-anchor="middle" x="791.7434" y="-57.8" font-family="Times,serif" font-size="14.00" fill="#000000">provided by</text>
</g>
<!-- has attribute -->
<g id="node10" class="node">
<title>has attribute</title>
<ellipse fill="none" stroke="#0000ff" cx="884.7434" cy="-18" rx="40.0939" ry="18"/>
<text text-anchor="middle" x="884.7434" y="-14.3" font-family="Times,serif" font-size="14.00" fill="#000000">attribute</text>
</g>
<!-- physiological process&#45;&gt;has attribute -->
<g id="edge9" class="edge">
<title>physiological process&#45;&gt;has attribute</title>
<path fill="none" stroke="#0000ff" d="M767.3342,-92.6975C787.7402,-87.2014 809.916,-79.5203 828.7434,-69 841.2432,-62.0154 853.2412,-51.7454 862.9027,-42.2486"/>
<polygon fill="#0000ff" stroke="#0000ff" points="865.6242,-44.4717 870.1151,-34.8757 860.6203,-39.5767 865.6242,-44.4717"/>
<text text-anchor="middle" x="883.2434" y="-57.8" font-family="Times,serif" font-size="14.00" fill="#000000">has attribute</text>
</g>
<!-- category -->
<g id="node11" class="node">
<title>category</title>
<ellipse fill="none" stroke="#000000" cx="983.7434" cy="-18" rx="40.8928" ry="18"/>
<text text-anchor="middle" x="983.7434" y="-14.3" font-family="Times,serif" font-size="14.00" fill="#000000">category</text>
</g>
<!-- physiological process&#45;&gt;category -->
<g id="edge10" class="edge">
<title>physiological process&#45;&gt;category</title>
<path fill="none" stroke="#0000ff" d="M767.4575,-92.7055C778.2214,-90.7284 789.2918,-88.7566 799.7434,-87 853.3609,-77.9886 870.9692,-90.8764 920.7434,-69 935.3603,-62.5757 949.3958,-51.8279 960.494,-41.851"/>
<polygon fill="#0000ff" stroke="#0000ff" points="963.1194,-44.1874 968.0225,-34.7954 958.3326,-39.0799 963.1194,-44.1874"/>
<text text-anchor="middle" x="969.2434" y="-57.8" font-family="Times,serif" font-size="14.00" fill="#000000">category</text>
</g>
<!-- has input -->
<g id="node13" class="node">
<title>has input</title>
<ellipse fill="none" stroke="#0000ff" cx="1097.7434" cy="-18" rx="55.4913" ry="18"/>
<text text-anchor="middle" x="1097.7434" y="-14.3" font-family="Times,serif" font-size="14.00" fill="#000000">named thing</text>
</g>
<!-- physiological process&#45;&gt;has input -->
<g id="edge11" class="edge">
<title>physiological process&#45;&gt;has input</title>
<path fill="none" stroke="#0000ff" d="M766.0883,-92.4283C777.2642,-90.4267 788.8264,-88.5188 799.7434,-87 886.825,-74.8852 912.2315,-93.2431 996.7434,-69 1020.1097,-62.2971 1044.4866,-50.1572 1063.437,-39.403"/>
<polygon fill="#0000ff" stroke="#0000ff" points="1065.3894,-42.3165 1072.2757,-34.2649 1061.8713,-36.2648 1065.3894,-42.3165"/>
<text text-anchor="middle" x="1059.7434" y="-57.8" font-family="Times,serif" font-size="14.00" fill="#000000">has input</text>
</g>
<!-- has output -->
<g id="node14" class="node">
<title>has output</title>
<ellipse fill="none" stroke="#0000ff" cx="1225.7434" cy="-18" rx="55.4913" ry="18"/>
<text text-anchor="middle" x="1225.7434" y="-14.3" font-family="Times,serif" font-size="14.00" fill="#000000">named thing</text>
</g>
<!-- physiological process&#45;&gt;has output -->
<g id="edge12" class="edge">
<title>physiological process&#45;&gt;has output</title>
<path fill="none" stroke="#0000ff" d="M765.5378,-92.2557C776.8769,-90.2474 788.6373,-88.3817 799.7434,-87 927.4521,-71.1115 962.8582,-95.7375 1088.7434,-69 1122.0193,-61.9323 1158.0074,-48.2843 1184.7451,-36.8843"/>
<polygon fill="#0000ff" stroke="#0000ff" points="1186.3739,-39.9929 1194.1551,-32.8024 1183.5882,-33.5711 1186.3739,-39.9929"/>
<text text-anchor="middle" x="1168.2434" y="-57.8" font-family="Times,serif" font-size="14.00" fill="#000000">has output</text>
</g>
<!-- enabled by -->
<g id="node15" class="node">
<title>enabled by</title>
<ellipse fill="none" stroke="#0000ff" cx="1361.7434" cy="-18" rx="62.2891" ry="18"/>
<text text-anchor="middle" x="1361.7434" y="-14.3" font-family="Times,serif" font-size="14.00" fill="#000000">physical entity</text>
</g>
<!-- physiological process&#45;&gt;enabled by -->
<g id="edge13" class="edge">
<title>physiological process&#45;&gt;enabled by</title>
<path fill="none" stroke="#0000ff" d="M765.0035,-92.1871C776.5031,-90.1596 788.4573,-88.3048 799.7434,-87 976.9646,-66.5108 1025.0918,-100.2042 1200.7434,-69 1240.3786,-61.9589 1283.809,-47.8009 1315.5633,-36.1851"/>
<polygon fill="#0000ff" stroke="#0000ff" points="1316.8692,-39.4338 1325.0261,-32.6725 1314.4331,-32.8714 1316.8692,-39.4338"/>
<text text-anchor="middle" x="1289.7434" y="-57.8" font-family="Times,serif" font-size="14.00" fill="#000000">enabled by</text>
</g>
<!-- named thing_category -->
<g id="node12" class="node">
<title>named thing_category</title>
<ellipse fill="none" stroke="#0000ff" cx="863.7434" cy="-105" rx="55.4913" ry="18"/>
<text text-anchor="middle" x="863.7434" y="-101.3" font-family="Times,serif" font-size="14.00" fill="#000000">named thing</text>
</g>
</g>
</svg>
