<?xml version="1.0" encoding="UTF-8" standalone="no"?>
<!DOCTYPE svg PUBLIC "-//W3C//DTD SVG 1.1//EN"
 "http://www.w3.org/Graphics/SVG/1.1/DTD/svg11.dtd">
<!-- Generated by graphviz version 2.40.1 (20161225.0304)
 -->
<!-- Title: %3 Pages: 1 -->
<svg width="898pt" height="131pt"
 viewBox="0.00 0.00 897.54 131.00" xmlns="http://www.w3.org/2000/svg" xmlns:xlink="http://www.w3.org/1999/xlink">
<g id="graph0" class="graph" transform="scale(1 1) rotate(0) translate(4 127)">
<title>%3</title>
<polygon fill="#ffffff" stroke="transparent" points="-4,4 -4,-127 893.5415,-127 893.5415,4 -4,4"/>
<!-- physical entity -->
<g id="node1" class="node">
<title>physical entity</title>
<ellipse fill="none" stroke="#000000" cx="479.2451" cy="-105" rx="62.2891" ry="18"/>
<text text-anchor="middle" x="479.2451" y="-101.3" font-family="Times,serif" font-size="14.00" fill="#000000">physical entity</text>
</g>
<!-- named thing -->
<g id="node2" class="node">
<title>named thing</title>
<ellipse fill="none" stroke="#000000" cx="55.2451" cy="-18" rx="55.4913" ry="18"/>
<text text-anchor="middle" x="55.2451" y="-14.3" font-family="Times,serif" font-size="14.00" fill="#000000">named thing</text>
</g>
<!-- physical entity&#45;&gt;named thing -->
<g id="edge1" class="edge">
<title>physical entity&#45;&gt;named thing</title>
<path fill="none" stroke="#000000" d="M424.9604,-96.0953C354.2186,-84.1488 226.8429,-61.4662 119.2451,-36 114.9594,-34.9857 110.5295,-33.8738 106.0936,-32.7161"/>
<polygon fill="#000000" stroke="#000000" points="106.9915,-29.3333 96.4265,-30.1283 105.1813,-36.0952 106.9915,-29.3333"/>
<text text-anchor="middle" x="278.2451" y="-57.8" font-family="Times,serif" font-size="14.00" fill="#000000">is_a</text>
</g>
<!-- physical essence -->
<g id="node3" class="node">
<title>physical essence</title>
<ellipse fill="none" stroke="#000000" cx="198.2451" cy="-18" rx="69.5877" ry="18"/>
<text text-anchor="middle" x="198.2451" y="-14.3" font-family="Times,serif" font-size="14.00" fill="#000000">physical essence</text>
</g>
<!-- physical entity&#45;&gt;physical essence -->
<g id="edge2" class="edge">
<title>physical entity&#45;&gt;physical essence</title>
<path fill="none" stroke="#000000" d="M435.6888,-91.9511C413.1503,-85.1665 385.2005,-76.7027 360.2451,-69 324.1446,-57.8573 283.598,-45.0924 252.0998,-35.1206"/>
<polygon fill="#000000" stroke="#000000" points="252.7983,-31.6705 242.2082,-31.9868 250.6841,-38.3436 252.7983,-31.6705"/>
<text text-anchor="middle" x="372.2451" y="-57.8" font-family="Times,serif" font-size="14.00" fill="#000000">uses</text>
</g>
<!-- id -->
<g id="node4" class="node">
<title>id</title>
<ellipse fill="none" stroke="#0000ff" cx="316.2451" cy="-18" rx="30.5947" ry="18"/>
<text text-anchor="middle" x="316.2451" y="-14.3" font-family="Times,serif" font-size="14.00" fill="#000000">string</text>
</g>
<!-- physical entity&#45;&gt;id -->
<g id="edge3" class="edge">
<title>physical entity&#45;&gt;id</title>
<path fill="none" stroke="#0000ff" d="M449.3484,-89.0429C420.6538,-73.7274 377.4612,-50.6736 348.1219,-35.014"/>
<polygon fill="#0000ff" stroke="#0000ff" points="349.5889,-31.8297 339.1188,-30.2087 346.2928,-38.0051 349.5889,-31.8297"/>
<text text-anchor="middle" x="413.7451" y="-57.8" font-family="Times,serif" font-size="14.00" fill="#000000">id</text>
</g>
<!-- category -->
<g id="node5" class="node">
<title>category</title>
<ellipse fill="none" stroke="#0000ff" cx="423.2451" cy="-18" rx="58.4896" ry="18"/>
<text text-anchor="middle" x="423.2451" y="-14.3" font-family="Times,serif" font-size="14.00" fill="#000000">category type</text>
</g>
<!-- physical entity&#45;&gt;category -->
<g id="edge4" class="edge">
<title>physical entity&#45;&gt;category</title>
<path fill="none" stroke="#0000ff" d="M467.6419,-86.9735C459.7053,-74.6435 449.055,-58.0975 440.1752,-44.3021"/>
<polygon fill="#0000ff" stroke="#0000ff" points="442.9974,-42.22 434.6419,-35.7057 437.1113,-46.0087 442.9974,-42.22"/>
<text text-anchor="middle" x="478.7451" y="-57.8" font-family="Times,serif" font-size="14.00" fill="#000000">category</text>
</g>
<!-- iri -->
<g id="node6" class="node">
<title>iri</title>
<ellipse fill="none" stroke="#0000ff" cx="536.2451" cy="-18" rx="36.2938" ry="18"/>
<text text-anchor="middle" x="536.2451" y="-14.3" font-family="Times,serif" font-size="14.00" fill="#000000">iri type</text>
</g>
<!-- physical entity&#45;&gt;iri -->
<g id="edge5" class="edge">
<title>physical entity&#45;&gt;iri</title>
<path fill="none" stroke="#0000ff" d="M493.1065,-87.3394C497.4522,-81.5892 502.1739,-75.112 506.2451,-69 511.4024,-61.2574 516.6652,-52.6105 521.3135,-44.6679"/>
<polygon fill="#0000ff" stroke="#0000ff" points="524.484,-46.1758 526.4446,-35.764 518.419,-42.6807 524.484,-46.1758"/>
<text text-anchor="middle" x="521.7451" y="-57.8" font-family="Times,serif" font-size="14.00" fill="#000000">iri</text>
</g>
<!-- name -->
<g id="node7" class="node">
<title>name</title>
<ellipse fill="none" stroke="#0000ff" cx="636.2451" cy="-18" rx="45.4919" ry="18"/>
<text text-anchor="middle" x="636.2451" y="-14.3" font-family="Times,serif" font-size="14.00" fill="#000000">label type</text>
</g>
<!-- physical entity&#45;&gt;name -->
<g id="edge6" class="edge">
<title>physical entity&#45;&gt;name</title>
<path fill="none" stroke="#0000ff" d="M508.4077,-88.8399C534.4603,-74.403 572.7056,-53.2098 600.5732,-37.7673"/>
<polygon fill="#0000ff" stroke="#0000ff" points="602.5431,-40.6772 609.5934,-32.7688 599.1501,-34.5544 602.5431,-40.6772"/>
<text text-anchor="middle" x="582.7451" y="-57.8" font-family="Times,serif" font-size="14.00" fill="#000000">name</text>
</g>
<!-- source -->
<g id="node8" class="node">
<title>source</title>
<ellipse fill="none" stroke="#0000ff" cx="745.2451" cy="-18" rx="45.4919" ry="18"/>
<text text-anchor="middle" x="745.2451" y="-14.3" font-family="Times,serif" font-size="14.00" fill="#000000">label type</text>
</g>
<!-- physical entity&#45;&gt;source -->
<g id="edge7" class="edge">
<title>physical entity&#45;&gt;source</title>
<path fill="none" stroke="#0000ff" d="M524.42,-92.4549C547.7569,-85.8034 576.6361,-77.3066 602.2451,-69 636.2231,-57.9788 674.3014,-44.334 702.6166,-33.9319"/>
<polygon fill="#0000ff" stroke="#0000ff" points="704.0306,-37.141 712.2022,-30.3975 701.6088,-30.5733 704.0306,-37.141"/>
<text text-anchor="middle" x="664.2451" y="-57.8" font-family="Times,serif" font-size="14.00" fill="#000000">source</text>
</g>
<!-- has attribute -->
<g id="node9" class="node">
<title>has attribute</title>
<ellipse fill="none" stroke="#0000ff" cx="849.2451" cy="-18" rx="40.0939" ry="18"/>
<text text-anchor="middle" x="849.2451" y="-14.3" font-family="Times,serif" font-size="14.00" fill="#000000">attribute</text>
</g>
<!-- physical entity&#45;&gt;has attribute -->
<g id="edge8" class="edge">
<title>physical entity&#45;&gt;has attribute</title>
<path fill="none" stroke="#0000ff" d="M535.3753,-96.9787C577.2096,-90.5799 635.6126,-80.7572 686.2451,-69 737.2092,-57.1658 749.4969,-52.2019 799.2451,-36 802.3154,-35.0001 805.4808,-33.9371 808.6579,-32.847"/>
<polygon fill="#0000ff" stroke="#0000ff" points="809.8563,-36.1358 818.1408,-29.5313 807.5459,-29.5281 809.8563,-36.1358"/>
<text text-anchor="middle" x="776.7451" y="-57.8" font-family="Times,serif" font-size="14.00" fill="#000000">has attribute</text>
</g>
</g>
</svg>
