<?xml version="1.0" encoding="UTF-8" standalone="no"?>
<!DOCTYPE svg PUBLIC "-//W3C//DTD SVG 1.1//EN"
 "http://www.w3.org/Graphics/SVG/1.1/DTD/svg11.dtd">
<!-- Generated by graphviz version 2.43.0 (0)
 -->
<!-- Title: %3 Pages: 1 -->
<svg width="1214pt" height="131pt"
 viewBox="0.00 0.00 1213.89 131.00" xmlns="http://www.w3.org/2000/svg" xmlns:xlink="http://www.w3.org/1999/xlink">
<g id="graph0" class="graph" transform="scale(1 1) rotate(0) translate(4 127)">
<title>%3</title>
<polygon fill="white" stroke="transparent" points="-4,4 -4,-127 1209.89,-127 1209.89,4 -4,4"/>
<!-- planetary entity -->
<g id="node1" class="node">
<title>planetary entity</title>
<ellipse fill="none" stroke="black" cx="585.54" cy="-105" rx="85.29" ry="18"/>
<text text-anchor="middle" x="585.54" y="-101.3" font-family="Times,serif" font-size="14.00">planetary entity</text>
</g>
<!-- named thing -->
<g id="node2" class="node">
<title>named thing</title>
<ellipse fill="none" stroke="black" cx="69.54" cy="-18" rx="69.59" ry="18"/>
<text text-anchor="middle" x="69.54" y="-14.3" font-family="Times,serif" font-size="14.00">named thing</text>
</g>
<!-- planetary entity&#45;&gt;named thing -->
<g id="edge1" class="edge">
<title>planetary entity&#45;&gt;named thing</title>
<path fill="none" stroke="black" d="M508.13,-97.36C447.35,-91.57 360.72,-82.04 285.54,-69 231.01,-59.54 169.59,-44.93 126.22,-33.94"/>
<polygon fill="black" stroke="black" points="126.98,-30.52 116.43,-31.44 125.25,-37.31 126.98,-30.52"/>
<text text-anchor="middle" x="299.54" y="-57.8" font-family="Times,serif" font-size="14.00">is_a</text>
</g>
<!-- id -->
<g id="node3" class="node">
<title>id</title>
<ellipse fill="none" stroke="blue" cx="195.54" cy="-18" rx="38.19" ry="18"/>
<text text-anchor="middle" x="195.54" y="-14.3" font-family="Times,serif" font-size="14.00">string</text>
</g>
<!-- planetary entity&#45;&gt;id -->
<g id="edge2" class="edge">
<title>planetary entity&#45;&gt;id</title>
<path fill="none" stroke="blue" d="M517.92,-93.93C448.36,-82.78 337.25,-62.79 243.54,-36 240.44,-35.11 237.25,-34.13 234.05,-33.11"/>
<polygon fill="blue" stroke="blue" points="235.14,-29.78 224.55,-29.92 232.92,-36.42 235.14,-29.78"/>
<text text-anchor="middle" x="381.54" y="-57.8" font-family="Times,serif" font-size="14.00">id</text>
</g>
<!-- iri -->
<g id="node4" class="node">
<title>iri</title>
<ellipse fill="none" stroke="blue" cx="296.54" cy="-18" rx="44.39" ry="18"/>
<text text-anchor="middle" x="296.54" y="-14.3" font-family="Times,serif" font-size="14.00">iri type</text>
</g>
<!-- planetary entity&#45;&gt;iri -->
<g id="edge3" class="edge">
<title>planetary entity&#45;&gt;iri</title>
<path fill="none" stroke="blue" d="M535.91,-90.33C512.95,-83.95 485.33,-76.19 460.54,-69 411.52,-54.78 399.33,-51 350.54,-36 347.05,-34.93 343.43,-33.81 339.8,-32.67"/>
<polygon fill="blue" stroke="blue" points="340.81,-29.32 330.22,-29.68 338.72,-36.01 340.81,-29.32"/>
<text text-anchor="middle" x="468.54" y="-57.8" font-family="Times,serif" font-size="14.00">iri</text>
</g>
<!-- type -->
<g id="node5" class="node">
<title>type</title>
<ellipse fill="none" stroke="blue" cx="397.54" cy="-18" rx="38.19" ry="18"/>
<text text-anchor="middle" x="397.54" y="-14.3" font-family="Times,serif" font-size="14.00">string</text>
</g>
<!-- planetary entity&#45;&gt;type -->
<g id="edge4" class="edge">
<title>planetary entity&#45;&gt;type</title>
<path fill="none" stroke="blue" d="M551.06,-88.41C517.78,-73.36 467.58,-50.66 433.73,-35.36"/>
<polygon fill="blue" stroke="blue" points="434.77,-31.99 424.21,-31.06 431.88,-38.37 434.77,-31.99"/>
<text text-anchor="middle" x="519.54" y="-57.8" font-family="Times,serif" font-size="14.00">type</text>
</g>
<!-- name -->
<g id="node6" class="node">
<title>name</title>
<ellipse fill="none" stroke="blue" cx="510.54" cy="-18" rx="56.59" ry="18"/>
<text text-anchor="middle" x="510.54" y="-14.3" font-family="Times,serif" font-size="14.00">label type</text>
</g>
<!-- planetary entity&#45;&gt;name -->
<g id="edge5" class="edge">
<title>planetary entity&#45;&gt;name</title>
<path fill="none" stroke="blue" d="M570.73,-87.21C559.66,-74.67 544.38,-57.35 531.99,-43.3"/>
<polygon fill="blue" stroke="blue" points="534.32,-40.65 525.08,-35.47 529.07,-45.28 534.32,-40.65"/>
<text text-anchor="middle" x="572.54" y="-57.8" font-family="Times,serif" font-size="14.00">name</text>
</g>
<!-- description -->
<g id="node7" class="node">
<title>description</title>
<ellipse fill="none" stroke="blue" cx="660.54" cy="-18" rx="75.29" ry="18"/>
<text text-anchor="middle" x="660.54" y="-14.3" font-family="Times,serif" font-size="14.00">narrative text</text>
</g>
<!-- planetary entity&#45;&gt;description -->
<g id="edge6" class="edge">
<title>planetary entity&#45;&gt;description</title>
<path fill="none" stroke="blue" d="M600.36,-87.21C611.35,-74.75 626.51,-57.57 638.86,-43.57"/>
<polygon fill="blue" stroke="blue" points="641.77,-45.57 645.76,-35.76 636.52,-40.94 641.77,-45.57"/>
<text text-anchor="middle" x="668.04" y="-57.8" font-family="Times,serif" font-size="14.00">description</text>
</g>
<!-- has attribute -->
<g id="node8" class="node">
<title>has attribute</title>
<ellipse fill="none" stroke="blue" cx="805.54" cy="-18" rx="51.99" ry="18"/>
<text text-anchor="middle" x="805.54" y="-14.3" font-family="Times,serif" font-size="14.00">attribute</text>
</g>
<!-- planetary entity&#45;&gt;has attribute -->
<g id="edge7" class="edge">
<title>planetary entity&#45;&gt;has attribute</title>
<path fill="none" stroke="blue" d="M641.76,-91.4C664.16,-85.64 689.93,-78.06 712.54,-69 732.93,-60.83 754.61,-49.36 771.9,-39.46"/>
<polygon fill="blue" stroke="blue" points="774.13,-42.21 781.02,-34.15 770.61,-36.16 774.13,-42.21"/>
<text text-anchor="middle" x="791.54" y="-57.8" font-family="Times,serif" font-size="14.00">has attribute</text>
</g>
<!-- provided by -->
<g id="node9" class="node">
<title>provided by</title>
<ellipse fill="none" stroke="blue" cx="913.54" cy="-18" rx="38.19" ry="18"/>
<text text-anchor="middle" x="913.54" y="-14.3" font-family="Times,serif" font-size="14.00">string</text>
</g>
<!-- planetary entity&#45;&gt;provided by -->
<g id="edge8" class="edge">
<title>planetary entity&#45;&gt;provided by</title>
<path fill="none" stroke="blue" d="M646.37,-92.37C657.39,-90.44 668.79,-88.56 679.54,-87 751.67,-76.51 774.38,-94.8 842.54,-69 859.43,-62.61 876.06,-51.25 888.97,-40.98"/>
<polygon fill="blue" stroke="blue" points="891.4,-43.51 896.89,-34.45 886.95,-38.11 891.4,-43.51"/>
<text text-anchor="middle" x="913.04" y="-57.8" font-family="Times,serif" font-size="14.00">provided by</text>
</g>
<!-- xref -->
<g id="node10" class="node">
<title>xref</title>
<ellipse fill="none" stroke="blue" cx="1027.54" cy="-18" rx="57.39" ry="18"/>
<text text-anchor="middle" x="1027.54" y="-14.3" font-family="Times,serif" font-size="14.00">uriorcurie</text>
</g>
<!-- planetary entity&#45;&gt;xref -->
<g id="edge9" class="edge">
<title>planetary entity&#45;&gt;xref</title>
<path fill="none" stroke="blue" d="M645.31,-92.13C656.64,-90.18 668.43,-88.36 679.54,-87 741.43,-79.44 900.95,-90.33 959.54,-69 975.54,-63.18 991.03,-52.34 1003.17,-42.24"/>
<polygon fill="blue" stroke="blue" points="1005.75,-44.63 1011,-35.44 1001.16,-39.35 1005.75,-44.63"/>
<text text-anchor="middle" x="1001.04" y="-57.8" font-family="Times,serif" font-size="14.00">xref</text>
</g>
<!-- category -->
<g id="node11" class="node">
<title>category</title>
<ellipse fill="none" stroke="black" cx="1154.54" cy="-18" rx="51.19" ry="18"/>
<text text-anchor="middle" x="1154.54" y="-14.3" font-family="Times,serif" font-size="14.00">category</text>
</g>
<!-- planetary entity&#45;&gt;category -->
<g id="edge10" class="edge">
<title>planetary entity&#45;&gt;category</title>
<path fill="none" stroke="blue" d="M645.05,-92.07C656.46,-90.11 668.34,-88.3 679.54,-87 829.85,-69.5 871.35,-99.63 1019.54,-69 1053.01,-62.08 1089.23,-48.3 1115.72,-36.95"/>
<polygon fill="blue" stroke="blue" points="1117.25,-40.1 1125.02,-32.89 1114.45,-33.68 1117.25,-40.1"/>
<text text-anchor="middle" x="1101.04" y="-57.8" font-family="Times,serif" font-size="14.00">category</text>
</g>
<!-- named thing_category -->
<g id="node12" class="node">
<title>named thing_category</title>
<ellipse fill="none" stroke="blue" cx="763.54" cy="-105" rx="74.99" ry="18"/>
<text text-anchor="middle" x="763.54" y="-101.3" font-family="Times,serif" font-size="14.00">category type</text>
</g>
</g>
</svg>
