<?xml version="1.0" encoding="UTF-8" standalone="no"?>
<!DOCTYPE svg PUBLIC "-//W3C//DTD SVG 1.1//EN"
 "http://www.w3.org/Graphics/SVG/1.1/DTD/svg11.dtd">
<!-- Generated by graphviz version 2.43.0 (0)
 -->
<!-- Title: %3 Pages: 1 -->
<svg width="1876pt" height="131pt"
 viewBox="0.00 0.00 1876.14 131.00" xmlns="http://www.w3.org/2000/svg" xmlns:xlink="http://www.w3.org/1999/xlink">
<g id="graph0" class="graph" transform="scale(1 1) rotate(0) translate(4 127)">
<title>%3</title>
<polygon fill="white" stroke="transparent" points="-4,4 -4,-127 1872.14,-127 1872.14,4 -4,4"/>
<!-- plant -->
<g id="node1" class="node">
<title>plant</title>
<ellipse fill="none" stroke="black" cx="893.64" cy="-105" rx="34.39" ry="18"/>
<text text-anchor="middle" x="893.64" y="-101.3" font-family="Times,serif" font-size="14.00">plant</text>
</g>
<!-- cellular organism -->
<g id="node2" class="node">
<title>cellular organism</title>
<ellipse fill="none" stroke="black" cx="91.64" cy="-18" rx="91.78" ry="18"/>
<text text-anchor="middle" x="91.64" y="-14.3" font-family="Times,serif" font-size="14.00">cellular organism</text>
</g>
<!-- plant&#45;&gt;cellular organism -->
<g id="edge1" class="edge">
<title>plant&#45;&gt;cellular organism</title>
<path fill="none" stroke="black" d="M859.15,-103.68C770.2,-102.45 525.89,-96.62 324.64,-69 266.6,-61.03 201.48,-46.58 154.86,-35.26"/>
<polygon fill="black" stroke="black" points="155.46,-31.8 144.91,-32.82 153.79,-38.6 155.46,-31.8"/>
<text text-anchor="middle" x="338.64" y="-57.8" font-family="Times,serif" font-size="14.00">is_a</text>
</g>
<!-- id -->
<g id="node3" class="node">
<title>id</title>
<ellipse fill="none" stroke="blue" cx="239.64" cy="-18" rx="38.19" ry="18"/>
<text text-anchor="middle" x="239.64" y="-14.3" font-family="Times,serif" font-size="14.00">string</text>
</g>
<!-- plant&#45;&gt;id -->
<g id="edge2" class="edge">
<title>plant&#45;&gt;id</title>
<path fill="none" stroke="blue" d="M859.16,-102.9C783.32,-100.15 596.45,-91.48 441.64,-69 372.37,-58.94 355,-55.06 287.64,-36 284.54,-35.12 281.34,-34.15 278.14,-33.12"/>
<polygon fill="blue" stroke="blue" points="279.23,-29.8 268.64,-29.95 277.01,-36.44 279.23,-29.8"/>
<text text-anchor="middle" x="448.64" y="-57.8" font-family="Times,serif" font-size="14.00">id</text>
</g>
<!-- iri -->
<g id="node4" class="node">
<title>iri</title>
<ellipse fill="none" stroke="blue" cx="340.64" cy="-18" rx="44.39" ry="18"/>
<text text-anchor="middle" x="340.64" y="-14.3" font-family="Times,serif" font-size="14.00">iri type</text>
</g>
<!-- plant&#45;&gt;iri -->
<g id="edge3" class="edge">
<title>plant&#45;&gt;iri</title>
<path fill="none" stroke="blue" d="M859.52,-102.46C794.4,-99.13 648.07,-89.85 526.64,-69 476.73,-60.43 420.76,-44.5 383.39,-32.92"/>
<polygon fill="blue" stroke="blue" points="384.42,-29.57 373.83,-29.92 382.33,-36.25 384.42,-29.57"/>
<text text-anchor="middle" x="534.64" y="-57.8" font-family="Times,serif" font-size="14.00">iri</text>
</g>
<!-- type -->
<g id="node5" class="node">
<title>type</title>
<ellipse fill="none" stroke="blue" cx="441.64" cy="-18" rx="38.19" ry="18"/>
<text text-anchor="middle" x="441.64" y="-14.3" font-family="Times,serif" font-size="14.00">string</text>
</g>
<!-- plant&#45;&gt;type -->
<g id="edge4" class="edge">
<title>plant&#45;&gt;type</title>
<path fill="none" stroke="blue" d="M859.73,-101.41C806.22,-96.96 699.08,-86.61 609.64,-69 554.95,-58.23 541.78,-52.83 488.64,-36 485.89,-35.13 483.06,-34.2 480.21,-33.23"/>
<polygon fill="blue" stroke="blue" points="481.19,-29.87 470.6,-29.89 478.89,-36.48 481.19,-29.87"/>
<text text-anchor="middle" x="625.64" y="-57.8" font-family="Times,serif" font-size="14.00">type</text>
</g>
<!-- name -->
<g id="node6" class="node">
<title>name</title>
<ellipse fill="none" stroke="blue" cx="554.64" cy="-18" rx="56.59" ry="18"/>
<text text-anchor="middle" x="554.64" y="-14.3" font-family="Times,serif" font-size="14.00">label type</text>
</g>
<!-- plant&#45;&gt;name -->
<g id="edge5" class="edge">
<title>plant&#45;&gt;name</title>
<path fill="none" stroke="blue" d="M860.19,-100.13C819.62,-95 749.37,-84.72 690.64,-69 658.39,-60.37 623.03,-47.25 596.45,-36.62"/>
<polygon fill="blue" stroke="blue" points="597.66,-33.33 587.08,-32.82 595.04,-39.82 597.66,-33.33"/>
<text text-anchor="middle" x="710.64" y="-57.8" font-family="Times,serif" font-size="14.00">name</text>
</g>
<!-- description -->
<g id="node7" class="node">
<title>description</title>
<ellipse fill="none" stroke="blue" cx="704.64" cy="-18" rx="75.29" ry="18"/>
<text text-anchor="middle" x="704.64" y="-14.3" font-family="Times,serif" font-size="14.00">narrative text</text>
</g>
<!-- plant&#45;&gt;description -->
<g id="edge6" class="edge">
<title>plant&#45;&gt;description</title>
<path fill="none" stroke="blue" d="M860.04,-100.82C830.41,-96.83 786.9,-88.05 753.64,-69 742.39,-62.55 732,-52.79 723.71,-43.6"/>
<polygon fill="blue" stroke="blue" points="726.16,-41.08 717,-35.76 720.85,-45.63 726.16,-41.08"/>
<text text-anchor="middle" x="794.14" y="-57.8" font-family="Times,serif" font-size="14.00">description</text>
</g>
<!-- provided by -->
<g id="node8" class="node">
<title>provided by</title>
<ellipse fill="none" stroke="blue" cx="836.64" cy="-18" rx="38.19" ry="18"/>
<text text-anchor="middle" x="836.64" y="-14.3" font-family="Times,serif" font-size="14.00">string</text>
</g>
<!-- plant&#45;&gt;provided by -->
<g id="edge7" class="edge">
<title>plant&#45;&gt;provided by</title>
<path fill="none" stroke="blue" d="M869.08,-92.37C859.63,-86.66 849.67,-78.85 843.64,-69 839.55,-62.32 837.46,-54.21 836.48,-46.48"/>
<polygon fill="blue" stroke="blue" points="839.96,-46.07 835.73,-36.35 832.98,-46.58 839.96,-46.07"/>
<text text-anchor="middle" x="886.14" y="-57.8" font-family="Times,serif" font-size="14.00">provided by</text>
</g>
<!-- xref -->
<g id="node9" class="node">
<title>xref</title>
<ellipse fill="none" stroke="blue" cx="950.64" cy="-18" rx="57.39" ry="18"/>
<text text-anchor="middle" x="950.64" y="-14.3" font-family="Times,serif" font-size="14.00">uriorcurie</text>
</g>
<!-- plant&#45;&gt;xref -->
<g id="edge8" class="edge">
<title>plant&#45;&gt;xref</title>
<path fill="none" stroke="blue" d="M911.03,-89.1C917.13,-83.26 923.69,-76.23 928.64,-69 933.54,-61.85 937.74,-53.43 941.12,-45.56"/>
<polygon fill="blue" stroke="blue" points="944.47,-46.6 944.96,-36.02 937.98,-43.99 944.47,-46.6"/>
<text text-anchor="middle" x="952.14" y="-57.8" font-family="Times,serif" font-size="14.00">xref</text>
</g>
<!-- full name -->
<g id="node10" class="node">
<title>full name</title>
<ellipse fill="none" stroke="blue" cx="1082.64" cy="-18" rx="56.59" ry="18"/>
<text text-anchor="middle" x="1082.64" y="-14.3" font-family="Times,serif" font-size="14.00">label type</text>
</g>
<!-- plant&#45;&gt;full name -->
<g id="edge9" class="edge">
<title>plant&#45;&gt;full name</title>
<path fill="none" stroke="blue" d="M919.13,-92.54C950.58,-78.39 1004.45,-54.17 1041.71,-37.41"/>
<polygon fill="blue" stroke="blue" points="1043.6,-40.4 1051.28,-33.1 1040.72,-34.01 1043.6,-40.4"/>
<text text-anchor="middle" x="1033.14" y="-57.8" font-family="Times,serif" font-size="14.00">full name</text>
</g>
<!-- synonym -->
<g id="node11" class="node">
<title>synonym</title>
<ellipse fill="none" stroke="blue" cx="1213.64" cy="-18" rx="56.59" ry="18"/>
<text text-anchor="middle" x="1213.64" y="-14.3" font-family="Times,serif" font-size="14.00">label type</text>
</g>
<!-- plant&#45;&gt;synonym -->
<g id="edge10" class="edge">
<title>plant&#45;&gt;synonym</title>
<path fill="none" stroke="blue" d="M919.22,-92.71C924.88,-90.55 930.89,-88.5 936.64,-87 994.79,-71.84 1012.2,-82.99 1070.64,-69 1105.19,-60.73 1143.09,-47.27 1171.19,-36.39"/>
<polygon fill="blue" stroke="blue" points="1172.66,-39.58 1180.7,-32.67 1170.11,-33.06 1172.66,-39.58"/>
<text text-anchor="middle" x="1150.64" y="-57.8" font-family="Times,serif" font-size="14.00">synonym</text>
</g>
<!-- category -->
<g id="node12" class="node">
<title>category</title>
<ellipse fill="none" stroke="black" cx="1339.64" cy="-18" rx="51.19" ry="18"/>
<text text-anchor="middle" x="1339.64" y="-14.3" font-family="Times,serif" font-size="14.00">category</text>
</g>
<!-- plant&#45;&gt;category -->
<g id="edge11" class="edge">
<title>plant&#45;&gt;category</title>
<path fill="none" stroke="blue" d="M918.7,-92.62C924.49,-90.41 930.69,-88.36 936.64,-87 1045.25,-62.23 1077.33,-90.46 1186.64,-69 1225.24,-61.42 1267.65,-47.06 1298.01,-35.67"/>
<polygon fill="blue" stroke="blue" points="1299.32,-38.91 1307.42,-32.08 1296.83,-32.37 1299.32,-38.91"/>
<text text-anchor="middle" x="1274.14" y="-57.8" font-family="Times,serif" font-size="14.00">category</text>
</g>
<!-- in taxon -->
<g id="node14" class="node">
<title>in taxon</title>
<ellipse fill="none" stroke="blue" cx="1492.64" cy="-18" rx="83.39" ry="18"/>
<text text-anchor="middle" x="1492.64" y="-14.3" font-family="Times,serif" font-size="14.00">organism taxon</text>
</g>
<!-- plant&#45;&gt;in taxon -->
<g id="edge12" class="edge">
<title>plant&#45;&gt;in taxon</title>
<path fill="none" stroke="blue" d="M918.68,-92.51C924.47,-90.31 930.68,-88.29 936.64,-87 1098.88,-52.02 1145.72,-95.03 1309.64,-69 1354.39,-61.89 1403.89,-47.99 1440.11,-36.64"/>
<polygon fill="blue" stroke="blue" points="1441.49,-39.88 1449.96,-33.52 1439.37,-33.2 1441.49,-39.88"/>
<text text-anchor="middle" x="1405.64" y="-57.8" font-family="Times,serif" font-size="14.00">in taxon</text>
</g>
<!-- in taxon label -->
<g id="node15" class="node">
<title>in taxon label</title>
<ellipse fill="none" stroke="blue" cx="1650.64" cy="-18" rx="56.59" ry="18"/>
<text text-anchor="middle" x="1650.64" y="-14.3" font-family="Times,serif" font-size="14.00">label type</text>
</g>
<!-- plant&#45;&gt;in taxon label -->
<g id="edge13" class="edge">
<title>plant&#45;&gt;in taxon label</title>
<path fill="none" stroke="blue" d="M918.67,-92.46C924.45,-90.25 930.67,-88.25 936.64,-87 1045.91,-64.15 1327.94,-83.37 1438.64,-69 1495.06,-61.68 1558.38,-45.69 1601.01,-33.76"/>
<polygon fill="blue" stroke="blue" points="1602.18,-37.06 1610.85,-30.97 1600.27,-30.33 1602.18,-37.06"/>
<text text-anchor="middle" x="1570.14" y="-57.8" font-family="Times,serif" font-size="14.00">in taxon label</text>
</g>
<!-- has attribute -->
<g id="node16" class="node">
<title>has attribute</title>
<ellipse fill="none" stroke="black" cx="1796.64" cy="-18" rx="71.49" ry="18"/>
<text text-anchor="middle" x="1796.64" y="-14.3" font-family="Times,serif" font-size="14.00">has attribute</text>
</g>
<!-- plant&#45;&gt;has attribute -->
<g id="edge14" class="edge">
<title>plant&#45;&gt;has attribute</title>
<path fill="none" stroke="blue" d="M918.66,-92.42C924.45,-90.21 930.66,-88.22 936.64,-87 1086.06,-56.5 1471.93,-92.24 1622.64,-69 1665.9,-62.33 1713.58,-48.12 1748.07,-36.55"/>
<polygon fill="blue" stroke="blue" points="1749.55,-39.74 1757.89,-33.21 1747.29,-33.12 1749.55,-39.74"/>
<text text-anchor="middle" x="1736.64" y="-57.8" font-family="Times,serif" font-size="14.00">has attribute</text>
</g>
<!-- named thing_category -->
<g id="node13" class="node">
<title>named thing_category</title>
<ellipse fill="none" stroke="blue" cx="1020.64" cy="-105" rx="74.99" ry="18"/>
<text text-anchor="middle" x="1020.64" y="-101.3" font-family="Times,serif" font-size="14.00">category type</text>
</g>
<!-- organismal entity_has attribute -->
<g id="node17" class="node">
<title>organismal entity_has attribute</title>
<ellipse fill="none" stroke="blue" cx="1165.64" cy="-105" rx="51.99" ry="18"/>
<text text-anchor="middle" x="1165.64" y="-101.3" font-family="Times,serif" font-size="14.00">attribute</text>
</g>
</g>
</svg>
