<?xml version="1.0" encoding="UTF-8" standalone="no"?>
<!DOCTYPE svg PUBLIC "-//W3C//DTD SVG 1.1//EN"
 "http://www.w3.org/Graphics/SVG/1.1/DTD/svg11.dtd">
<!-- Generated by graphviz version 2.40.1 (20161225.0304)
 -->
<!-- Title: %3 Pages: 1 -->
<svg width="1967pt" height="131pt"
 viewBox="0.00 0.00 1967.44 131.00" xmlns="http://www.w3.org/2000/svg" xmlns:xlink="http://www.w3.org/1999/xlink">
<g id="graph0" class="graph" transform="scale(1 1) rotate(0) translate(4 127)">
<title>%3</title>
<polygon fill="#ffffff" stroke="transparent" points="-4,4 -4,-127 1963.4377,-127 1963.4377,4 -4,4"/>
<!-- population of individual organisms -->
<g id="node1" class="node">
<title>population of individual organisms</title>
<ellipse fill="none" stroke="#000000" cx="1004.7935" cy="-105" rx="135.3763" ry="18"/>
<text text-anchor="middle" x="1004.7935" y="-101.3" font-family="Times,serif" font-size="14.00" fill="#000000">population of individual organisms</text>
</g>
<!-- organismal entity -->
<g id="node2" class="node">
<title>organismal entity</title>
<ellipse fill="none" stroke="#000000" cx="72.7935" cy="-18" rx="72.5877" ry="18"/>
<text text-anchor="middle" x="72.7935" y="-14.3" font-family="Times,serif" font-size="14.00" fill="#000000">organismal entity</text>
</g>
<!-- population of individual organisms&#45;&gt;organismal entity -->
<g id="edge1" class="edge">
<title>population of individual organisms&#45;&gt;organismal entity</title>
<path fill="none" stroke="#000000" d="M870.3895,-103.0351C734.0299,-99.8192 517.0942,-91.3421 330.7935,-69 263.2182,-60.896 186.8642,-44.9383 134.8659,-33.0205"/>
<polygon fill="#000000" stroke="#000000" points="135.3321,-29.536 124.8008,-30.6943 133.7558,-36.3563 135.3321,-29.536"/>
<text text-anchor="middle" x="341.7935" y="-57.8" font-family="Times,serif" font-size="14.00" fill="#000000">is_a</text>
</g>
<!-- thing with taxon -->
<g id="node3" class="node">
<title>thing with taxon</title>
<ellipse fill="none" stroke="#000000" cx="232.7935" cy="-18" rx="68.7879" ry="18"/>
<text text-anchor="middle" x="232.7935" y="-14.3" font-family="Times,serif" font-size="14.00" fill="#000000">thing with taxon</text>
</g>
<!-- population of individual organisms&#45;&gt;thing with taxon -->
<g id="edge2" class="edge">
<title>population of individual organisms&#45;&gt;thing with taxon</title>
<path fill="none" stroke="#000000" d="M875.1283,-99.8665C731.7166,-93.6662 509.9265,-82.385 426.7935,-69 378.5041,-61.2251 324.8077,-46.6305 286.1721,-35.0395"/>
<polygon fill="#000000" stroke="#000000" points="286.7754,-31.565 276.1899,-32.0111 284.7431,-38.2635 286.7754,-31.565"/>
<text text-anchor="middle" x="438.7935" y="-57.8" font-family="Times,serif" font-size="14.00" fill="#000000">uses</text>
</g>
<!-- id -->
<g id="node4" class="node">
<title>id</title>
<ellipse fill="none" stroke="#0000ff" cx="349.7935" cy="-18" rx="30.5947" ry="18"/>
<text text-anchor="middle" x="349.7935" y="-14.3" font-family="Times,serif" font-size="14.00" fill="#000000">string</text>
</g>
<!-- population of individual organisms&#45;&gt;id -->
<g id="edge3" class="edge">
<title>population of individual organisms&#45;&gt;id</title>
<path fill="none" stroke="#0000ff" d="M876.2703,-99.2542C784.4244,-94.0825 658.0885,-84.7969 547.7935,-69 476.7807,-58.8293 458.0151,-58.183 389.7935,-36 387.5327,-35.2649 385.2284,-34.4413 382.9249,-33.5619"/>
<polygon fill="#0000ff" stroke="#0000ff" points="384.1527,-30.2825 373.573,-29.7152 381.4898,-36.7562 384.1527,-30.2825"/>
<text text-anchor="middle" x="553.2935" y="-57.8" font-family="Times,serif" font-size="14.00" fill="#000000">id</text>
</g>
<!-- name -->
<g id="node5" class="node">
<title>name</title>
<ellipse fill="none" stroke="#0000ff" cx="443.7935" cy="-18" rx="45.4919" ry="18"/>
<text text-anchor="middle" x="443.7935" y="-14.3" font-family="Times,serif" font-size="14.00" fill="#000000">label type</text>
</g>
<!-- population of individual organisms&#45;&gt;name -->
<g id="edge4" class="edge">
<title>population of individual organisms&#45;&gt;name</title>
<path fill="none" stroke="#0000ff" d="M880.4459,-97.7944C807.1346,-92.371 712.7689,-83.3493 629.7935,-69 580.5767,-60.4887 525.5634,-44.5802 488.2196,-32.785"/>
<polygon fill="#0000ff" stroke="#0000ff" points="489.2391,-29.4365 478.6483,-29.7296 487.1103,-36.1049 489.2391,-29.4365"/>
<text text-anchor="middle" x="645.2935" y="-57.8" font-family="Times,serif" font-size="14.00" fill="#000000">name</text>
</g>
<!-- category -->
<g id="node6" class="node">
<title>category</title>
<ellipse fill="none" stroke="#0000ff" cx="565.7935" cy="-18" rx="58.4896" ry="18"/>
<text text-anchor="middle" x="565.7935" y="-14.3" font-family="Times,serif" font-size="14.00" fill="#000000">category type</text>
</g>
<!-- population of individual organisms&#45;&gt;category -->
<g id="edge5" class="edge">
<title>population of individual organisms&#45;&gt;category</title>
<path fill="none" stroke="#0000ff" d="M886.9998,-96.0662C833.6612,-90.5821 770.0835,-82.0297 713.7935,-69 678.3493,-60.7956 639.5043,-47.226 610.5072,-36.1458"/>
<polygon fill="#0000ff" stroke="#0000ff" points="611.6593,-32.8388 601.07,-32.4949 609.1336,-39.3673 611.6593,-32.8388"/>
<text text-anchor="middle" x="737.2935" y="-57.8" font-family="Times,serif" font-size="14.00" fill="#000000">category</text>
</g>
<!-- related to -->
<g id="node7" class="node">
<title>related to</title>
<ellipse fill="none" stroke="#0000ff" cx="697.7935" cy="-18" rx="55.4913" ry="18"/>
<text text-anchor="middle" x="697.7935" y="-14.3" font-family="Times,serif" font-size="14.00" fill="#000000">named thing</text>
</g>
<!-- population of individual organisms&#45;&gt;related to -->
<g id="edge6" class="edge">
<title>population of individual organisms&#45;&gt;related to</title>
<path fill="none" stroke="#0000ff" d="M902.4772,-93.2079C868.9196,-87.7392 831.7884,-79.9453 798.7935,-69 775.8814,-61.3994 751.6924,-49.3436 732.7323,-38.8614"/>
<polygon fill="#0000ff" stroke="#0000ff" points="734.3033,-35.7292 723.8732,-33.8684 730.8664,-41.8274 734.3033,-35.7292"/>
<text text-anchor="middle" x="824.7935" y="-57.8" font-family="Times,serif" font-size="14.00" fill="#000000">related to</text>
</g>
<!-- interacts with -->
<g id="node8" class="node">
<title>interacts with</title>
<ellipse fill="none" stroke="#0000ff" cx="825.7935" cy="-18" rx="55.4913" ry="18"/>
<text text-anchor="middle" x="825.7935" y="-14.3" font-family="Times,serif" font-size="14.00" fill="#000000">named thing</text>
</g>
<!-- population of individual organisms&#45;&gt;interacts with -->
<g id="edge7" class="edge">
<title>population of individual organisms&#45;&gt;interacts with</title>
<path fill="none" stroke="#0000ff" d="M922.6292,-90.6399C905.0657,-85.4566 887.1847,-78.4495 871.7935,-69 861.3686,-62.5995 851.9115,-53.1382 844.3209,-44.0973"/>
<polygon fill="#0000ff" stroke="#0000ff" points="846.8602,-41.6669 837.9003,-36.0125 841.3785,-46.0202 846.8602,-41.6669"/>
<text text-anchor="middle" x="908.7935" y="-57.8" font-family="Times,serif" font-size="14.00" fill="#000000">interacts with</text>
</g>
<!-- correlated with -->
<g id="node9" class="node">
<title>correlated with</title>
<ellipse fill="none" stroke="#0000ff" cx="953.7935" cy="-18" rx="55.4913" ry="18"/>
<text text-anchor="middle" x="953.7935" y="-14.3" font-family="Times,serif" font-size="14.00" fill="#000000">named thing</text>
</g>
<!-- population of individual organisms&#45;&gt;correlated with -->
<g id="edge8" class="edge">
<title>population of individual organisms&#45;&gt;correlated with</title>
<path fill="none" stroke="#0000ff" d="M970.2296,-87.4814C963.6173,-82.4572 957.583,-76.3133 953.7935,-69 950.2649,-62.19 949.1243,-54.1492 949.1596,-46.4903"/>
<polygon fill="#0000ff" stroke="#0000ff" points="952.657,-46.6432 949.8229,-36.4345 945.6722,-46.1825 952.657,-46.6432"/>
<text text-anchor="middle" x="994.7935" y="-57.8" font-family="Times,serif" font-size="14.00" fill="#000000">correlated with</text>
</g>
<!-- node property -->
<g id="node10" class="node">
<title>node property</title>
<ellipse fill="none" stroke="#0000ff" cx="1057.7935" cy="-18" rx="30.5947" ry="18"/>
<text text-anchor="middle" x="1057.7935" y="-14.3" font-family="Times,serif" font-size="14.00" fill="#000000">string</text>
</g>
<!-- population of individual organisms&#45;&gt;node property -->
<g id="edge9" class="edge">
<title>population of individual organisms&#45;&gt;node property</title>
<path fill="none" stroke="#0000ff" d="M1022.3488,-86.7868C1027.0776,-81.3298 1031.9438,-75.153 1035.7935,-69 1040.4479,-61.5611 1044.5731,-52.9665 1047.9574,-44.9778"/>
<polygon fill="#0000ff" stroke="#0000ff" points="1051.2236,-46.2363 1051.7036,-35.6523 1044.7281,-43.6269 1051.2236,-46.2363"/>
<text text-anchor="middle" x="1081.7935" y="-57.8" font-family="Times,serif" font-size="14.00" fill="#000000">node property</text>
</g>
<!-- iri -->
<g id="node11" class="node">
<title>iri</title>
<ellipse fill="none" stroke="#0000ff" cx="1142.7935" cy="-18" rx="36.2938" ry="18"/>
<text text-anchor="middle" x="1142.7935" y="-14.3" font-family="Times,serif" font-size="14.00" fill="#000000">iri type</text>
</g>
<!-- population of individual organisms&#45;&gt;iri -->
<g id="edge10" class="edge">
<title>population of individual organisms&#45;&gt;iri</title>
<path fill="none" stroke="#0000ff" d="M1074.4216,-89.5067C1095.8483,-83.568 1115.887,-76.4246 1123.7935,-69 1130.2573,-62.9302 1134.5354,-54.4572 1137.3616,-46.1585"/>
<polygon fill="#0000ff" stroke="#0000ff" points="1140.7972,-46.87 1140.1381,-36.2957 1134.0592,-44.9731 1140.7972,-46.87"/>
<text text-anchor="middle" x="1141.2935" y="-57.8" font-family="Times,serif" font-size="14.00" fill="#000000">iri</text>
</g>
<!-- synonym -->
<g id="node12" class="node">
<title>synonym</title>
<ellipse fill="none" stroke="#0000ff" cx="1242.7935" cy="-18" rx="45.4919" ry="18"/>
<text text-anchor="middle" x="1242.7935" y="-14.3" font-family="Times,serif" font-size="14.00" fill="#000000">label type</text>
</g>
<!-- population of individual organisms&#45;&gt;synonym -->
<g id="edge11" class="edge">
<title>population of individual organisms&#45;&gt;synonym</title>
<path fill="none" stroke="#0000ff" d="M1082.3115,-90.1593C1105.0938,-84.6964 1129.7937,-77.6724 1151.7935,-69 1172.1226,-60.9863 1193.5033,-49.1976 1210.4286,-38.9724"/>
<polygon fill="#0000ff" stroke="#0000ff" points="1212.658,-41.71 1219.3382,-33.4865 1208.9878,-35.7493 1212.658,-41.71"/>
<text text-anchor="middle" x="1209.2935" y="-57.8" font-family="Times,serif" font-size="14.00" fill="#000000">synonym</text>
</g>
<!-- full name -->
<g id="node13" class="node">
<title>full name</title>
<ellipse fill="none" stroke="#0000ff" cx="1351.7935" cy="-18" rx="45.4919" ry="18"/>
<text text-anchor="middle" x="1351.7935" y="-14.3" font-family="Times,serif" font-size="14.00" fill="#000000">label type</text>
</g>
<!-- population of individual organisms&#45;&gt;full name -->
<g id="edge12" class="edge">
<title>population of individual organisms&#45;&gt;full name</title>
<path fill="none" stroke="#0000ff" d="M1114.1976,-94.411C1153.9523,-88.9369 1198.8944,-80.8327 1238.7935,-69 1265.3969,-61.1104 1293.8637,-48.2329 1315.5701,-37.3922"/>
<polygon fill="#0000ff" stroke="#0000ff" points="1317.4045,-40.3861 1324.7344,-32.7361 1314.2337,-34.1454 1317.4045,-40.3861"/>
<text text-anchor="middle" x="1304.2935" y="-57.8" font-family="Times,serif" font-size="14.00" fill="#000000">full name</text>
</g>
<!-- description -->
<g id="node14" class="node">
<title>description</title>
<ellipse fill="none" stroke="#0000ff" cx="1472.7935" cy="-18" rx="57.6901" ry="18"/>
<text text-anchor="middle" x="1472.7935" y="-14.3" font-family="Times,serif" font-size="14.00" fill="#000000">narrative text</text>
</g>
<!-- population of individual organisms&#45;&gt;description -->
<g id="edge13" class="edge">
<title>population of individual organisms&#45;&gt;description</title>
<path fill="none" stroke="#0000ff" d="M1130.9913,-98.5191C1192.9964,-93.496 1268.4595,-84.6247 1334.7935,-69 1367.6751,-61.2549 1403.4147,-47.9002 1430.2829,-36.7993"/>
<polygon fill="#0000ff" stroke="#0000ff" points="1431.8899,-39.9208 1439.7586,-32.826 1429.183,-33.4653 1431.8899,-39.9208"/>
<text text-anchor="middle" x="1416.2935" y="-57.8" font-family="Times,serif" font-size="14.00" fill="#000000">description</text>
</g>
<!-- systematic synonym -->
<g id="node15" class="node">
<title>systematic synonym</title>
<ellipse fill="none" stroke="#0000ff" cx="1593.7935" cy="-18" rx="45.4919" ry="18"/>
<text text-anchor="middle" x="1593.7935" y="-14.3" font-family="Times,serif" font-size="14.00" fill="#000000">label type</text>
</g>
<!-- population of individual organisms&#45;&gt;systematic synonym -->
<g id="edge14" class="edge">
<title>population of individual organisms&#45;&gt;systematic synonym</title>
<path fill="none" stroke="#0000ff" d="M1131.0615,-98.4989C1241.0915,-92.1557 1391.9795,-81.6318 1450.7935,-69 1486.5247,-61.3258 1525.4991,-47.004 1553.722,-35.4866"/>
<polygon fill="#0000ff" stroke="#0000ff" points="1555.3351,-38.6068 1563.2335,-31.5452 1552.6554,-32.1401 1555.3351,-38.6068"/>
<text text-anchor="middle" x="1559.7935" y="-57.8" font-family="Times,serif" font-size="14.00" fill="#000000">systematic synonym</text>
</g>
<!-- has phenotype -->
<g id="node16" class="node">
<title>has phenotype</title>
<ellipse fill="none" stroke="#0000ff" cx="1733.7935" cy="-18" rx="76.8869" ry="18"/>
<text text-anchor="middle" x="1733.7935" y="-14.3" font-family="Times,serif" font-size="14.00" fill="#000000">phenotypic feature</text>
</g>
<!-- population of individual organisms&#45;&gt;has phenotype -->
<g id="edge15" class="edge">
<title>population of individual organisms&#45;&gt;has phenotype</title>
<path fill="none" stroke="#0000ff" d="M1139.183,-102.7828C1292.0997,-99.2646 1531.9988,-90.4445 1619.7935,-69 1646.0306,-62.5914 1673.7259,-50.3444 1695.2482,-39.458"/>
<polygon fill="#0000ff" stroke="#0000ff" points="1697.099,-42.4413 1704.3727,-34.7378 1693.8826,-36.2239 1697.099,-42.4413"/>
<text text-anchor="middle" x="1702.2935" y="-57.8" font-family="Times,serif" font-size="14.00" fill="#000000">has phenotype</text>
</g>
<!-- in taxon -->
<g id="node17" class="node">
<title>in taxon</title>
<ellipse fill="none" stroke="#0000ff" cx="1893.7935" cy="-18" rx="65.7887" ry="18"/>
<text text-anchor="middle" x="1893.7935" y="-14.3" font-family="Times,serif" font-size="14.00" fill="#000000">organism taxon</text>
</g>
<!-- population of individual organisms&#45;&gt;in taxon -->
<g id="edge16" class="edge">
<title>population of individual organisms&#45;&gt;in taxon</title>
<path fill="none" stroke="#0000ff" d="M1139.4253,-103.0168C1320.7212,-99.5601 1633.547,-90.6103 1745.7935,-69 1781.5188,-62.122 1820.351,-48.4916 1849.2719,-37.0515"/>
<polygon fill="#0000ff" stroke="#0000ff" points="1850.7084,-40.2463 1858.681,-33.2687 1848.0972,-33.7515 1850.7084,-40.2463"/>
<text text-anchor="middle" x="1821.2935" y="-57.8" font-family="Times,serif" font-size="14.00" fill="#000000">in taxon</text>
</g>
</g>
</svg>
