<?xml version="1.0" encoding="UTF-8" standalone="no"?>
<!DOCTYPE svg PUBLIC "-//W3C//DTD SVG 1.1//EN"
 "http://www.w3.org/Graphics/SVG/1.1/DTD/svg11.dtd">
<!-- Generated by graphviz version 2.40.1 (20161225.0304)
 -->
<!-- Title: %3 Pages: 1 -->
<svg width="1899pt" height="291pt"
 viewBox="0.00 0.00 1899.49 291.00" xmlns="http://www.w3.org/2000/svg" xmlns:xlink="http://www.w3.org/1999/xlink">
<g id="graph0" class="graph" transform="scale(1 1) rotate(0) translate(4 287)">
<title>%3</title>
<polygon fill="#ffffff" stroke="transparent" points="-4,4 -4,-287 1895.4902,-287 1895.4902,4 -4,4"/>
<!-- population to population association -->
<g id="node1" class="node">
<title>population to population association</title>
<ellipse fill="none" stroke="#000000" cx="839.0456" cy="-265" rx="139.1754" ry="18"/>
<text text-anchor="middle" x="839.0456" y="-261.3" font-family="Times,serif" font-size="14.00" fill="#000000">population to population association</text>
</g>
<!-- association -->
<g id="node2" class="node">
<title>association</title>
<ellipse fill="none" stroke="#000000" cx="50.0456" cy="-178" rx="50.0912" ry="18"/>
<text text-anchor="middle" x="50.0456" y="-174.3" font-family="Times,serif" font-size="14.00" fill="#000000">association</text>
</g>
<!-- population to population association&#45;&gt;association -->
<g id="edge1" class="edge">
<title>population to population association&#45;&gt;association</title>
<path fill="none" stroke="#000000" d="M703.7518,-260.725C550.4734,-255.2439 310.3827,-244.5525 221.0456,-229 177.1554,-221.3592 128.6159,-206.2097 94.4999,-194.3983"/>
<polygon fill="#000000" stroke="#000000" points="95.4317,-191.0162 84.8369,-191.0086 93.1145,-197.6215 95.4317,-191.0162"/>
<text text-anchor="middle" x="232.0456" y="-217.8" font-family="Times,serif" font-size="14.00" fill="#000000">is_a</text>
</g>
<!-- id -->
<g id="node3" class="node">
<title>id</title>
<ellipse fill="none" stroke="#0000ff" cx="149.0456" cy="-178" rx="30.5947" ry="18"/>
<text text-anchor="middle" x="149.0456" y="-174.3" font-family="Times,serif" font-size="14.00" fill="#000000">string</text>
</g>
<!-- population to population association&#45;&gt;id -->
<g id="edge2" class="edge">
<title>population to population association&#45;&gt;id</title>
<path fill="none" stroke="#0000ff" d="M702.2612,-261.6709C598.2936,-257.6317 452.0047,-248.7059 325.0456,-229 263.5831,-219.4601 247.8788,-216.1814 189.0456,-196 186.7968,-195.2286 184.5017,-194.3777 182.2049,-193.4781"/>
<polygon fill="#0000ff" stroke="#0000ff" points="183.4454,-190.2033 172.8686,-189.5849 180.7512,-196.6641 183.4454,-190.2033"/>
<text text-anchor="middle" x="330.5456" y="-217.8" font-family="Times,serif" font-size="14.00" fill="#000000">id</text>
</g>
<!-- iri -->
<g id="node4" class="node">
<title>iri</title>
<ellipse fill="none" stroke="#0000ff" cx="234.0456" cy="-178" rx="36.2938" ry="18"/>
<text text-anchor="middle" x="234.0456" y="-174.3" font-family="Times,serif" font-size="14.00" fill="#000000">iri type</text>
</g>
<!-- population to population association&#45;&gt;iri -->
<g id="edge3" class="edge">
<title>population to population association&#45;&gt;iri</title>
<path fill="none" stroke="#0000ff" d="M706.1178,-259.6054C620.786,-254.7324 507.8493,-245.6538 409.0456,-229 350.6891,-219.1638 336.3732,-214.1499 280.0456,-196 277.2907,-195.1123 274.4627,-194.1459 271.6288,-193.1368"/>
<polygon fill="#0000ff" stroke="#0000ff" points="272.6612,-189.7869 262.0681,-189.5946 270.2292,-196.3508 272.6612,-189.7869"/>
<text text-anchor="middle" x="415.5456" y="-217.8" font-family="Times,serif" font-size="14.00" fill="#000000">iri</text>
</g>
<!-- name -->
<g id="node5" class="node">
<title>name</title>
<ellipse fill="none" stroke="#0000ff" cx="334.0456" cy="-178" rx="45.4919" ry="18"/>
<text text-anchor="middle" x="334.0456" y="-174.3" font-family="Times,serif" font-size="14.00" fill="#000000">label type</text>
</g>
<!-- population to population association&#45;&gt;name -->
<g id="edge4" class="edge">
<title>population to population association&#45;&gt;name</title>
<path fill="none" stroke="#0000ff" d="M706.6542,-259.4528C637.8383,-254.6487 552.7291,-245.6919 478.0456,-229 442.1581,-220.9791 402.9035,-206.6862 374.4563,-195.268"/>
<polygon fill="#0000ff" stroke="#0000ff" points="375.4498,-191.8936 364.8682,-191.3642 372.8101,-198.3768 375.4498,-191.8936"/>
<text text-anchor="middle" x="493.5456" y="-217.8" font-family="Times,serif" font-size="14.00" fill="#000000">name</text>
</g>
<!-- description -->
<g id="node6" class="node">
<title>description</title>
<ellipse fill="none" stroke="#0000ff" cx="455.0456" cy="-178" rx="57.6901" ry="18"/>
<text text-anchor="middle" x="455.0456" y="-174.3" font-family="Times,serif" font-size="14.00" fill="#000000">narrative text</text>
</g>
<!-- population to population association&#45;&gt;description -->
<g id="edge5" class="edge">
<title>population to population association&#45;&gt;description</title>
<path fill="none" stroke="#0000ff" d="M722.452,-255.1818C655.7365,-248.6714 579.1045,-239.4259 547.0456,-229 526.0452,-222.1705 504.3573,-210.4139 487.3169,-199.9087"/>
<polygon fill="#0000ff" stroke="#0000ff" points="489.1808,-196.9463 478.8577,-194.5619 485.4407,-202.8634 489.1808,-196.9463"/>
<text text-anchor="middle" x="577.5456" y="-217.8" font-family="Times,serif" font-size="14.00" fill="#000000">description</text>
</g>
<!-- source -->
<g id="node7" class="node">
<title>source</title>
<ellipse fill="none" stroke="#0000ff" cx="576.0456" cy="-178" rx="45.4919" ry="18"/>
<text text-anchor="middle" x="576.0456" y="-174.3" font-family="Times,serif" font-size="14.00" fill="#000000">label type</text>
</g>
<!-- population to population association&#45;&gt;source -->
<g id="edge6" class="edge">
<title>population to population association&#45;&gt;source</title>
<path fill="none" stroke="#0000ff" d="M738.5784,-252.5322C696.4243,-246.2407 652.8582,-238.0308 634.0456,-229 620.7526,-222.6189 608.1775,-212.3091 598.1564,-202.6234"/>
<polygon fill="#0000ff" stroke="#0000ff" points="600.5434,-200.0596 591.0215,-195.4138 595.5679,-204.9836 600.5434,-200.0596"/>
<text text-anchor="middle" x="652.0456" y="-217.8" font-family="Times,serif" font-size="14.00" fill="#000000">source</text>
</g>
<!-- provided by -->
<g id="node8" class="node">
<title>provided by</title>
<ellipse fill="none" stroke="#0000ff" cx="669.0456" cy="-178" rx="29.795" ry="18"/>
<text text-anchor="middle" x="669.0456" y="-174.3" font-family="Times,serif" font-size="14.00" fill="#000000">agent</text>
</g>
<!-- population to population association&#45;&gt;provided by -->
<g id="edge7" class="edge">
<title>population to population association&#45;&gt;provided by</title>
<path fill="none" stroke="#0000ff" d="M745.3551,-251.5646C718.0362,-245.9165 692.872,-238.4305 683.0456,-229 676.8289,-223.0338 673.2886,-214.5884 671.2981,-206.2832"/>
<polygon fill="#0000ff" stroke="#0000ff" points="674.7392,-205.6424 669.5627,-196.3983 667.8446,-206.8528 674.7392,-205.6424"/>
<text text-anchor="middle" x="716.0456" y="-217.8" font-family="Times,serif" font-size="14.00" fill="#000000">provided by</text>
</g>
<!-- has attribute -->
<g id="node9" class="node">
<title>has attribute</title>
<ellipse fill="none" stroke="#0000ff" cx="757.0456" cy="-178" rx="40.0939" ry="18"/>
<text text-anchor="middle" x="757.0456" y="-174.3" font-family="Times,serif" font-size="14.00" fill="#000000">attribute</text>
</g>
<!-- population to population association&#45;&gt;has attribute -->
<g id="edge8" class="edge">
<title>population to population association&#45;&gt;has attribute</title>
<path fill="none" stroke="#0000ff" d="M779.8944,-248.4713C771.2793,-243.5578 763.493,-237.2052 758.0456,-229 753.618,-222.3311 752.1924,-214.0133 752.2009,-206.0426"/>
<polygon fill="#0000ff" stroke="#0000ff" points="755.7017,-206.1513 752.9061,-195.932 748.7187,-205.6641 755.7017,-206.1513"/>
<text text-anchor="middle" x="791.5456" y="-217.8" font-family="Times,serif" font-size="14.00" fill="#000000">has attribute</text>
</g>
<!-- relation -->
<g id="node10" class="node">
<title>relation</title>
<ellipse fill="none" stroke="#0000ff" cx="1375.0456" cy="-18" rx="45.4919" ry="18"/>
<text text-anchor="middle" x="1375.0456" y="-14.3" font-family="Times,serif" font-size="14.00" fill="#000000">uriorcurie</text>
</g>
<!-- population to population association&#45;&gt;relation -->
<g id="edge9" class="edge">
<title>population to population association&#45;&gt;relation</title>
<path fill="none" stroke="#0000ff" d="M834.0323,-246.7959C828.9124,-223.8892 824.2291,-184.5787 844.0456,-160 904.3542,-85.1981 1198.3667,-40.2104 1321.0807,-24.4185"/>
<polygon fill="#0000ff" stroke="#0000ff" points="1321.8847,-27.8446 1331.3639,-23.1121 1321.0025,-20.9004 1321.8847,-27.8446"/>
<text text-anchor="middle" x="909.0456" y="-130.8" font-family="Times,serif" font-size="14.00" fill="#000000">relation</text>
</g>
<!-- negated -->
<g id="node11" class="node">
<title>negated</title>
<ellipse fill="none" stroke="#0000ff" cx="891.0456" cy="-178" rx="38.1938" ry="18"/>
<text text-anchor="middle" x="891.0456" y="-174.3" font-family="Times,serif" font-size="14.00" fill="#000000">boolean</text>
</g>
<!-- population to population association&#45;&gt;negated -->
<g id="edge10" class="edge">
<title>population to population association&#45;&gt;negated</title>
<path fill="none" stroke="#0000ff" d="M849.82,-246.9735C857.2385,-234.5619 867.2103,-217.8782 875.4884,-204.0284"/>
<polygon fill="#0000ff" stroke="#0000ff" points="878.5135,-205.789 880.6398,-195.4097 872.505,-202.1977 878.5135,-205.789"/>
<text text-anchor="middle" x="890.5456" y="-217.8" font-family="Times,serif" font-size="14.00" fill="#000000">negated</text>
</g>
<!-- qualifiers -->
<g id="node12" class="node">
<title>qualifiers</title>
<ellipse fill="none" stroke="#0000ff" cx="1009.0456" cy="-178" rx="61.99" ry="18"/>
<text text-anchor="middle" x="1009.0456" y="-174.3" font-family="Times,serif" font-size="14.00" fill="#000000">ontology class</text>
</g>
<!-- population to population association&#45;&gt;qualifiers -->
<g id="edge11" class="edge">
<title>population to population association&#45;&gt;qualifiers</title>
<path fill="none" stroke="#0000ff" d="M877.663,-247.5361C890.0072,-241.7964 903.6748,-235.2757 916.0456,-229 934.6126,-219.5809 954.9195,-208.5339 971.8078,-199.1342"/>
<polygon fill="#0000ff" stroke="#0000ff" points="973.7861,-202.038 980.8058,-194.1023 970.3695,-195.9284 973.7861,-202.038"/>
<text text-anchor="middle" x="971.0456" y="-217.8" font-family="Times,serif" font-size="14.00" fill="#000000">qualifiers</text>
</g>
<!-- publications -->
<g id="node13" class="node">
<title>publications</title>
<ellipse fill="none" stroke="#0000ff" cx="1139.0456" cy="-178" rx="50.0912" ry="18"/>
<text text-anchor="middle" x="1139.0456" y="-174.3" font-family="Times,serif" font-size="14.00" fill="#000000">publication</text>
</g>
<!-- population to population association&#45;&gt;publications -->
<g id="edge12" class="edge">
<title>population to population association&#45;&gt;publications</title>
<path fill="none" stroke="#0000ff" d="M916.6384,-249.9891C943.5647,-244.1921 973.8221,-237.0152 1001.0456,-229 1033.5607,-219.4268 1069.4478,-206.0744 1096.474,-195.4332"/>
<polygon fill="#0000ff" stroke="#0000ff" points="1098.0051,-198.5911 1106.0074,-191.6475 1095.4216,-192.0853 1098.0051,-198.5911"/>
<text text-anchor="middle" x="1077.5456" y="-217.8" font-family="Times,serif" font-size="14.00" fill="#000000">publications</text>
</g>
<!-- type -->
<g id="node14" class="node">
<title>type</title>
<ellipse fill="none" stroke="#000000" cx="1234.0456" cy="-178" rx="27" ry="18"/>
<text text-anchor="middle" x="1234.0456" y="-174.3" font-family="Times,serif" font-size="14.00" fill="#000000">type</text>
</g>
<!-- population to population association&#45;&gt;type -->
<g id="edge13" class="edge">
<title>population to population association&#45;&gt;type</title>
<path fill="none" stroke="#0000ff" d="M939.5839,-252.4799C1014.8827,-243.0071 1106.3636,-231.2545 1115.0456,-229 1146.4042,-220.8569 1180.1758,-205.7155 1203.7017,-194.0381"/>
<polygon fill="#0000ff" stroke="#0000ff" points="1205.4624,-197.0699 1212.8092,-189.4361 1202.3054,-190.8223 1205.4624,-197.0699"/>
<text text-anchor="middle" x="1171.0456" y="-217.8" font-family="Times,serif" font-size="14.00" fill="#000000">type</text>
</g>
<!-- category -->
<g id="node16" class="node">
<title>category</title>
<ellipse fill="none" stroke="#000000" cx="1320.0456" cy="-178" rx="40.8928" ry="18"/>
<text text-anchor="middle" x="1320.0456" y="-174.3" font-family="Times,serif" font-size="14.00" fill="#000000">category</text>
</g>
<!-- population to population association&#45;&gt;category -->
<g id="edge14" class="edge">
<title>population to population association&#45;&gt;category</title>
<path fill="none" stroke="#0000ff" d="M938.9088,-252.423C954.9946,-250.5214 971.4728,-248.6474 987.0456,-247 1075.7985,-237.6113 1100.1063,-249.1694 1187.0456,-229 1220.5155,-221.2352 1256.8306,-206.8766 1283.0441,-195.3686"/>
<polygon fill="#0000ff" stroke="#0000ff" points="1284.5139,-198.5455 1292.2207,-191.2753 1281.6622,-192.1527 1284.5139,-198.5455"/>
<text text-anchor="middle" x="1259.5456" y="-217.8" font-family="Times,serif" font-size="14.00" fill="#000000">category</text>
</g>
<!-- subject -->
<g id="node18" class="node">
<title>subject</title>
<ellipse fill="none" stroke="#000000" cx="1415.0456" cy="-178" rx="35.9954" ry="18"/>
<text text-anchor="middle" x="1415.0456" y="-174.3" font-family="Times,serif" font-size="14.00" fill="#000000">subject</text>
</g>
<!-- population to population association&#45;&gt;subject -->
<g id="edge15" class="edge">
<title>population to population association&#45;&gt;subject</title>
<path fill="none" stroke="#0000ff" d="M937.2744,-252.2001C953.8685,-250.2826 970.9344,-248.4617 987.0456,-247 1120.0723,-234.9311 1156.668,-258.0424 1287.0456,-229 1319.9648,-221.667 1355.4481,-206.9423 1380.6865,-195.1918"/>
<polygon fill="#0000ff" stroke="#0000ff" points="1382.295,-198.3027 1389.831,-190.8556 1379.2957,-191.9778 1382.295,-198.3027"/>
<text text-anchor="middle" x="1353.5456" y="-217.8" font-family="Times,serif" font-size="14.00" fill="#000000">subject</text>
</g>
<!-- object -->
<g id="node20" class="node">
<title>object</title>
<ellipse fill="none" stroke="#000000" cx="1435.0456" cy="-91" rx="32.4942" ry="18"/>
<text text-anchor="middle" x="1435.0456" y="-87.3" font-family="Times,serif" font-size="14.00" fill="#000000">object</text>
</g>
<!-- population to population association&#45;&gt;object -->
<g id="edge16" class="edge">
<title>population to population association&#45;&gt;object</title>
<path fill="none" stroke="#0000ff" d="M936.4615,-252.1005C953.3073,-250.1709 970.6667,-248.372 987.0456,-247 1159.9578,-232.5153 1207.4224,-265.5574 1377.0456,-229 1415.8521,-220.6364 1434.3045,-226.2208 1460.0456,-196 1480.2292,-172.3038 1484.154,-155.6753 1472.0456,-127 1469.823,-121.7365 1466.4129,-116.862 1462.5445,-112.5091"/>
<polygon fill="#0000ff" stroke="#0000ff" points="1464.8081,-109.8246 1455.2441,-105.2661 1459.878,-114.7939 1464.8081,-109.8246"/>
<text text-anchor="middle" x="1495.0456" y="-174.3" font-family="Times,serif" font-size="14.00" fill="#000000">object</text>
</g>
<!-- predicate -->
<g id="node22" class="node">
<title>predicate</title>
<ellipse fill="none" stroke="#000000" cx="1582.0456" cy="-178" rx="42.7926" ry="18"/>
<text text-anchor="middle" x="1582.0456" y="-174.3" font-family="Times,serif" font-size="14.00" fill="#000000">predicate</text>
</g>
<!-- population to population association&#45;&gt;predicate -->
<g id="edge17" class="edge">
<title>population to population association&#45;&gt;predicate</title>
<path fill="none" stroke="#0000ff" d="M935.6534,-252.0364C952.7491,-250.0893 970.4013,-248.3012 987.0456,-247 1044.0179,-242.5462 1446.4259,-245.8039 1501.0456,-229 1520.4304,-223.0362 1539.7421,-211.1672 1554.6446,-200.3791"/>
<polygon fill="#0000ff" stroke="#0000ff" points="1556.9767,-203.005 1562.8766,-194.2049 1552.7766,-197.4051 1556.9767,-203.005"/>
<text text-anchor="middle" x="1556.0456" y="-217.8" font-family="Times,serif" font-size="14.00" fill="#000000">predicate</text>
</g>
<!-- association_type -->
<g id="node15" class="node">
<title>association_type</title>
<ellipse fill="none" stroke="#0000ff" cx="1027.0456" cy="-265" rx="30.5947" ry="18"/>
<text text-anchor="middle" x="1027.0456" y="-261.3" font-family="Times,serif" font-size="14.00" fill="#000000">string</text>
</g>
<!-- association_category -->
<g id="node17" class="node">
<title>association_category</title>
<ellipse fill="none" stroke="#0000ff" cx="1126.0456" cy="-265" rx="50.0912" ry="18"/>
<text text-anchor="middle" x="1126.0456" y="-261.3" font-family="Times,serif" font-size="14.00" fill="#000000">association</text>
</g>
<!-- subject&#45;&gt;relation -->
<g id="edge19" class="edge">
<title>subject&#45;&gt;relation</title>
<path fill="none" stroke="#000000" stroke-dasharray="1,5" d="M1409.072,-159.9654C1404.6032,-146.1164 1398.5177,-126.4678 1394.0456,-109 1388.6917,-88.0882 1383.7459,-64.1877 1380.2431,-46.1297"/>
<polygon fill="#000000" stroke="#000000" points="1383.6682,-45.4058 1378.3553,-36.2393 1376.7923,-46.7182 1383.6682,-45.4058"/>
</g>
<!-- subject&#45;&gt;object -->
<g id="edge18" class="edge">
<title>subject&#45;&gt;object</title>
<path fill="none" stroke="#000000" d="M1419.1896,-159.9735C1421.9248,-148.0751 1425.5626,-132.2508 1428.6638,-118.7606"/>
<polygon fill="#000000" stroke="#000000" points="1432.0774,-119.5333 1430.9069,-109.0034 1425.2553,-117.965 1432.0774,-119.5333"/>
<text text-anchor="middle" x="1447.0456" y="-130.8" font-family="Times,serif" font-size="14.00" fill="#000000">relation</text>
</g>
<!-- population to population association_subject -->
<g id="node19" class="node">
<title>population to population association_subject</title>
<ellipse fill="none" stroke="#0000ff" cx="1329.0456" cy="-265" rx="135.3763" ry="18"/>
<text text-anchor="middle" x="1329.0456" y="-261.3" font-family="Times,serif" font-size="14.00" fill="#000000">population of individual organisms</text>
</g>
<!-- object&#45;&gt;relation -->
<g id="edge20" class="edge">
<title>object&#45;&gt;relation</title>
<path fill="none" stroke="#000000" stroke-dasharray="1,5" d="M1421.4306,-74.4352C1413.8462,-65.2075 1404.2464,-53.5276 1395.7502,-43.1906"/>
<polygon fill="#000000" stroke="#000000" points="1398.2862,-40.764 1389.2327,-35.261 1392.8784,-45.2088 1398.2862,-40.764"/>
</g>
<!-- population to population association_object -->
<g id="node21" class="node">
<title>population to population association_object</title>
<ellipse fill="none" stroke="#0000ff" cx="1617.0456" cy="-265" rx="135.3763" ry="18"/>
<text text-anchor="middle" x="1617.0456" y="-261.3" font-family="Times,serif" font-size="14.00" fill="#000000">population of individual organisms</text>
</g>
<!-- population to population association_predicate -->
<g id="node23" class="node">
<title>population to population association_predicate</title>
<ellipse fill="none" stroke="#0000ff" cx="1831.0456" cy="-265" rx="60.3893" ry="18"/>
<text text-anchor="middle" x="1831.0456" y="-261.3" font-family="Times,serif" font-size="14.00" fill="#000000">predicate type</text>
</g>
</g>
</svg>
