<?xml version="1.0" encoding="UTF-8" standalone="no"?>
<!DOCTYPE svg PUBLIC "-//W3C//DTD SVG 1.1//EN"
 "http://www.w3.org/Graphics/SVG/1.1/DTD/svg11.dtd">
<!-- Generated by graphviz version 2.43.0 (0)
 -->
<!-- Title: %3 Pages: 1 -->
<svg width="2528pt" height="131pt"
 viewBox="0.00 0.00 2527.99 131.00" xmlns="http://www.w3.org/2000/svg" xmlns:xlink="http://www.w3.org/1999/xlink">
<g id="graph0" class="graph" transform="scale(1 1) rotate(0) translate(4 127)">
<title>%3</title>
<polygon fill="white" stroke="transparent" points="-4,4 -4,-127 2523.99,-127 2523.99,4 -4,4"/>
<!-- processed material -->
<g id="node1" class="node">
<title>processed material</title>
<ellipse fill="none" stroke="black" cx="1050.99" cy="-105" rx="99.38" ry="18"/>
<text text-anchor="middle" x="1050.99" y="-101.3" font-family="Times,serif" font-size="14.00">processed material</text>
</g>
<!-- chemical mixture -->
<g id="node2" class="node">
<title>chemical mixture</title>
<ellipse fill="none" stroke="black" cx="90.99" cy="-18" rx="90.98" ry="18"/>
<text text-anchor="middle" x="90.99" y="-14.3" font-family="Times,serif" font-size="14.00">chemical mixture</text>
</g>
<!-- processed material&#45;&gt;chemical mixture -->
<g id="edge1" class="edge">
<title>processed material&#45;&gt;chemical mixture</title>
<path fill="none" stroke="black" d="M951.47,-104.34C811.01,-103.65 546.87,-98.08 323.99,-69 265.52,-61.37 199.92,-46.74 153.27,-35.26"/>
<polygon fill="black" stroke="black" points="153.86,-31.8 143.31,-32.79 152.17,-38.6 153.86,-31.8"/>
<text text-anchor="middle" x="337.99" y="-57.8" font-family="Times,serif" font-size="14.00">is_a</text>
</g>
<!-- id -->
<g id="node3" class="node">
<title>id</title>
<ellipse fill="none" stroke="blue" cx="237.99" cy="-18" rx="38.19" ry="18"/>
<text text-anchor="middle" x="237.99" y="-14.3" font-family="Times,serif" font-size="14.00">string</text>
</g>
<!-- processed material&#45;&gt;id -->
<g id="edge2" class="edge">
<title>processed material&#45;&gt;id</title>
<path fill="none" stroke="blue" d="M952.2,-102.9C831.37,-100.5 620.83,-92.92 441.99,-69 371.75,-59.61 354.21,-55.2 285.99,-36 282.89,-35.13 279.69,-34.15 276.49,-33.13"/>
<polygon fill="blue" stroke="blue" points="277.58,-29.81 266.99,-29.96 275.36,-36.45 277.58,-29.81"/>
<text text-anchor="middle" x="448.99" y="-57.8" font-family="Times,serif" font-size="14.00">id</text>
</g>
<!-- iri -->
<g id="node4" class="node">
<title>iri</title>
<ellipse fill="none" stroke="blue" cx="338.99" cy="-18" rx="44.39" ry="18"/>
<text text-anchor="middle" x="338.99" y="-14.3" font-family="Times,serif" font-size="14.00">iri type</text>
</g>
<!-- processed material&#45;&gt;iri -->
<g id="edge3" class="edge">
<title>processed material&#45;&gt;iri</title>
<path fill="none" stroke="blue" d="M952.11,-102.47C846.53,-99.64 674.59,-91.65 527.99,-69 476.88,-61.1 419.65,-44.89 381.69,-33.06"/>
<polygon fill="blue" stroke="blue" points="382.59,-29.67 372,-30 380.48,-36.35 382.59,-29.67"/>
<text text-anchor="middle" x="535.99" y="-57.8" font-family="Times,serif" font-size="14.00">iri</text>
</g>
<!-- type -->
<g id="node5" class="node">
<title>type</title>
<ellipse fill="none" stroke="blue" cx="439.99" cy="-18" rx="38.19" ry="18"/>
<text text-anchor="middle" x="439.99" y="-14.3" font-family="Times,serif" font-size="14.00">string</text>
</g>
<!-- processed material&#45;&gt;type -->
<g id="edge4" class="edge">
<title>processed material&#45;&gt;type</title>
<path fill="none" stroke="blue" d="M954.12,-100.77C866,-96.75 732.58,-87.93 617.99,-69 558.75,-59.21 544.41,-53.57 486.99,-36 484.23,-35.16 481.39,-34.24 478.54,-33.29"/>
<polygon fill="blue" stroke="blue" points="479.52,-29.93 468.92,-29.98 477.24,-36.55 479.52,-29.93"/>
<text text-anchor="middle" x="633.99" y="-57.8" font-family="Times,serif" font-size="14.00">type</text>
</g>
<!-- name -->
<g id="node6" class="node">
<title>name</title>
<ellipse fill="none" stroke="blue" cx="552.99" cy="-18" rx="56.59" ry="18"/>
<text text-anchor="middle" x="552.99" y="-14.3" font-family="Times,serif" font-size="14.00">label type</text>
</g>
<!-- processed material&#45;&gt;name -->
<g id="edge5" class="edge">
<title>processed material&#45;&gt;name</title>
<path fill="none" stroke="blue" d="M956.4,-99.44C887.74,-94.89 792.92,-85.99 710.99,-69 671.97,-60.91 628.92,-46.93 597.63,-35.81"/>
<polygon fill="blue" stroke="blue" points="598.49,-32.41 587.9,-32.31 596.12,-38.99 598.49,-32.41"/>
<text text-anchor="middle" x="730.99" y="-57.8" font-family="Times,serif" font-size="14.00">name</text>
</g>
<!-- description -->
<g id="node7" class="node">
<title>description</title>
<ellipse fill="none" stroke="blue" cx="702.99" cy="-18" rx="75.29" ry="18"/>
<text text-anchor="middle" x="702.99" y="-14.3" font-family="Times,serif" font-size="14.00">narrative text</text>
</g>
<!-- processed material&#45;&gt;description -->
<g id="edge6" class="edge">
<title>processed material&#45;&gt;description</title>
<path fill="none" stroke="blue" d="M954.36,-100.75C903.15,-96.68 839.87,-87.86 785.99,-69 767.28,-62.45 748.2,-51.33 733.06,-41.24"/>
<polygon fill="blue" stroke="blue" points="734.86,-38.23 724.64,-35.46 730.9,-44 734.86,-38.23"/>
<text text-anchor="middle" x="826.49" y="-57.8" font-family="Times,serif" font-size="14.00">description</text>
</g>
<!-- source -->
<g id="node8" class="node">
<title>source</title>
<ellipse fill="none" stroke="blue" cx="834.99" cy="-18" rx="38.19" ry="18"/>
<text text-anchor="middle" x="834.99" y="-14.3" font-family="Times,serif" font-size="14.00">string</text>
</g>
<!-- processed material&#45;&gt;source -->
<g id="edge7" class="edge">
<title>processed material&#45;&gt;source</title>
<path fill="none" stroke="blue" d="M971.8,-94.05C946.08,-88.83 918,-80.93 893.99,-69 880.39,-62.24 867.28,-51.69 856.89,-42.01"/>
<polygon fill="blue" stroke="blue" points="859.13,-39.31 849.51,-34.87 854.26,-44.34 859.13,-39.31"/>
<text text-anchor="middle" x="917.99" y="-57.8" font-family="Times,serif" font-size="14.00">source</text>
</g>
<!-- has attribute -->
<g id="node9" class="node">
<title>has attribute</title>
<ellipse fill="none" stroke="blue" cx="942.99" cy="-18" rx="51.99" ry="18"/>
<text text-anchor="middle" x="942.99" y="-14.3" font-family="Times,serif" font-size="14.00">attribute</text>
</g>
<!-- processed material&#45;&gt;has attribute -->
<g id="edge8" class="edge">
<title>processed material&#45;&gt;has attribute</title>
<path fill="none" stroke="blue" d="M985.82,-91.32C973.45,-86.21 961.67,-79.05 952.99,-69 947.54,-62.69 944.75,-54.25 943.39,-46.11"/>
<polygon fill="blue" stroke="blue" points="946.87,-45.71 942.36,-36.13 939.91,-46.44 946.87,-45.71"/>
<text text-anchor="middle" x="999.99" y="-57.8" font-family="Times,serif" font-size="14.00">has attribute</text>
</g>
<!-- provided by -->
<g id="node10" class="node">
<title>provided by</title>
<ellipse fill="none" stroke="blue" cx="1050.99" cy="-18" rx="38.19" ry="18"/>
<text text-anchor="middle" x="1050.99" y="-14.3" font-family="Times,serif" font-size="14.00">string</text>
</g>
<!-- processed material&#45;&gt;provided by -->
<g id="edge9" class="edge">
<title>processed material&#45;&gt;provided by</title>
<path fill="none" stroke="blue" d="M1050.99,-86.8C1050.99,-75.16 1050.99,-59.55 1050.99,-46.24"/>
<polygon fill="blue" stroke="blue" points="1054.49,-46.18 1050.99,-36.18 1047.49,-46.18 1054.49,-46.18"/>
<text text-anchor="middle" x="1093.49" y="-57.8" font-family="Times,serif" font-size="14.00">provided by</text>
</g>
<!-- category -->
<g id="node11" class="node">
<title>category</title>
<ellipse fill="none" stroke="black" cx="1158.99" cy="-18" rx="51.19" ry="18"/>
<text text-anchor="middle" x="1158.99" y="-14.3" font-family="Times,serif" font-size="14.00">category</text>
</g>
<!-- processed material&#45;&gt;category -->
<g id="edge10" class="edge">
<title>processed material&#45;&gt;category</title>
<path fill="none" stroke="blue" d="M1104.38,-89.67C1116.18,-84.61 1127.86,-77.88 1136.99,-69 1143.54,-62.63 1148.28,-53.98 1151.63,-45.66"/>
<polygon fill="blue" stroke="blue" points="1154.94,-46.8 1154.97,-36.21 1148.34,-44.47 1154.94,-46.8"/>
<text text-anchor="middle" x="1179.49" y="-57.8" font-family="Times,serif" font-size="14.00">category</text>
</g>
<!-- trade name -->
<g id="node13" class="node">
<title>trade name</title>
<ellipse fill="none" stroke="blue" cx="1309.99" cy="-18" rx="81.79" ry="18"/>
<text text-anchor="middle" x="1309.99" y="-14.3" font-family="Times,serif" font-size="14.00">chemical entity</text>
</g>
<!-- processed material&#45;&gt;trade name -->
<g id="edge11" class="edge">
<title>processed material&#45;&gt;trade name</title>
<path fill="none" stroke="blue" d="M1124.45,-92.77C1153.18,-87.24 1186.11,-79.46 1214.99,-69 1235.74,-61.49 1257.61,-50.24 1275.13,-40.3"/>
<polygon fill="blue" stroke="blue" points="1276.96,-43.29 1283.86,-35.26 1273.45,-37.23 1276.96,-43.29"/>
<text text-anchor="middle" x="1288.99" y="-57.8" font-family="Times,serif" font-size="14.00">trade name</text>
</g>
<!-- available from -->
<g id="node14" class="node">
<title>available from</title>
<ellipse fill="none" stroke="blue" cx="1527.99" cy="-18" rx="118.08" ry="18"/>
<text text-anchor="middle" x="1527.99" y="-14.3" font-family="Times,serif" font-size="14.00">drug_availability_enum</text>
</g>
<!-- processed material&#45;&gt;available from -->
<g id="edge12" class="edge">
<title>processed material&#45;&gt;available from</title>
<path fill="none" stroke="blue" d="M1121.79,-92.3C1134.17,-90.41 1146.95,-88.57 1158.99,-87 1236.53,-76.92 1257.03,-82.8 1333.99,-69 1379.09,-60.92 1429.14,-47.91 1467.11,-37.19"/>
<polygon fill="blue" stroke="blue" points="1468.33,-40.49 1476.99,-34.38 1466.41,-33.75 1468.33,-40.49"/>
<text text-anchor="middle" x="1450.49" y="-57.8" font-family="Times,serif" font-size="14.00">available from</text>
</g>
<!-- max tolerated dose -->
<g id="node15" class="node">
<title>max tolerated dose</title>
<ellipse fill="none" stroke="blue" cx="1702.99" cy="-18" rx="38.19" ry="18"/>
<text text-anchor="middle" x="1702.99" y="-14.3" font-family="Times,serif" font-size="14.00">string</text>
</g>
<!-- processed material&#45;&gt;max tolerated dose -->
<g id="edge13" class="edge">
<title>processed material&#45;&gt;max tolerated dose</title>
<path fill="none" stroke="blue" d="M1120.28,-92C1133.12,-90.09 1146.44,-88.31 1158.99,-87 1312.59,-70.97 1352.97,-89.77 1505.99,-69 1573.2,-59.88 1589.79,-54.69 1654.99,-36 1658.09,-35.11 1661.29,-34.13 1664.48,-33.1"/>
<polygon fill="blue" stroke="blue" points="1665.62,-36.41 1673.99,-29.92 1663.39,-29.77 1665.62,-36.41"/>
<text text-anchor="middle" x="1657.99" y="-57.8" font-family="Times,serif" font-size="14.00">max tolerated dose</text>
</g>
<!-- is toxic -->
<g id="node16" class="node">
<title>is toxic</title>
<ellipse fill="none" stroke="blue" cx="1805.99" cy="-18" rx="46.59" ry="18"/>
<text text-anchor="middle" x="1805.99" y="-14.3" font-family="Times,serif" font-size="14.00">boolean</text>
</g>
<!-- processed material&#45;&gt;is toxic -->
<g id="edge14" class="edge">
<title>processed material&#45;&gt;is toxic</title>
<path fill="none" stroke="blue" d="M1119.39,-91.92C1132.5,-89.97 1146.14,-88.21 1158.99,-87 1222.3,-81.04 1670.43,-88.38 1730.99,-69 1749.01,-63.23 1766.74,-51.76 1780.43,-41.26"/>
<polygon fill="blue" stroke="blue" points="1782.77,-43.87 1788.4,-34.9 1778.4,-38.4 1782.77,-43.87"/>
<text text-anchor="middle" x="1787.99" y="-57.8" font-family="Times,serif" font-size="14.00">is toxic</text>
</g>
<!-- is supplement -->
<g id="node17" class="node">
<title>is supplement</title>
<ellipse fill="none" stroke="blue" cx="1961.99" cy="-18" rx="90.98" ry="18"/>
<text text-anchor="middle" x="1961.99" y="-14.3" font-family="Times,serif" font-size="14.00">chemical mixture</text>
</g>
<!-- processed material&#45;&gt;is supplement -->
<g id="edge15" class="edge">
<title>processed material&#45;&gt;is supplement</title>
<path fill="none" stroke="blue" d="M1119.39,-91.87C1132.49,-89.94 1146.14,-88.18 1158.99,-87 1304.88,-73.58 1673.88,-95.34 1817.99,-69 1852.22,-62.74 1889.28,-49.72 1917.23,-38.54"/>
<polygon fill="blue" stroke="blue" points="1918.78,-41.69 1926.72,-34.67 1916.14,-35.2 1918.78,-41.69"/>
<text text-anchor="middle" x="1925.49" y="-57.8" font-family="Times,serif" font-size="14.00">is supplement</text>
</g>
<!-- highest FDA approval status -->
<g id="node18" class="node">
<title>highest FDA approval status</title>
<ellipse fill="none" stroke="blue" cx="2108.99" cy="-18" rx="38.19" ry="18"/>
<text text-anchor="middle" x="2108.99" y="-14.3" font-family="Times,serif" font-size="14.00">string</text>
</g>
<!-- processed material&#45;&gt;highest FDA approval status -->
<g id="edge16" class="edge">
<title>processed material&#45;&gt;highest FDA approval status</title>
<path fill="none" stroke="blue" d="M1119.09,-91.86C1132.29,-89.91 1146.04,-88.16 1158.99,-87 1340.76,-70.78 1800.99,-104.51 1979.99,-69 2013.21,-62.41 2048.97,-47.91 2074.39,-36.22"/>
<polygon fill="blue" stroke="blue" points="2076.03,-39.31 2083.6,-31.89 2073.06,-32.97 2076.03,-39.31"/>
<text text-anchor="middle" x="2133.49" y="-57.8" font-family="Times,serif" font-size="14.00">highest FDA approval status</text>
</g>
<!-- drug regulatory status world wide -->
<g id="node19" class="node">
<title>drug regulatory status world wide</title>
<ellipse fill="none" stroke="blue" cx="2324.99" cy="-18" rx="38.19" ry="18"/>
<text text-anchor="middle" x="2324.99" y="-14.3" font-family="Times,serif" font-size="14.00">string</text>
</g>
<!-- processed material&#45;&gt;drug regulatory status world wide -->
<g id="edge17" class="edge">
<title>processed material&#45;&gt;drug regulatory status world wide</title>
<path fill="none" stroke="blue" d="M1119.09,-91.81C1132.28,-89.86 1146.04,-88.12 1158.99,-87 1278.67,-76.64 2124.35,-101.53 2239.99,-69 2260.99,-63.09 2282.14,-50.68 2298.09,-39.7"/>
<polygon fill="blue" stroke="blue" points="2300.27,-42.45 2306.38,-33.8 2296.21,-36.75 2300.27,-42.45"/>
<text text-anchor="middle" x="2396.99" y="-57.8" font-family="Times,serif" font-size="14.00">drug regulatory status world wide</text>
</g>
<!-- named thing_category -->
<g id="node12" class="node">
<title>named thing_category</title>
<ellipse fill="none" stroke="blue" cx="1237.99" cy="-105" rx="69.59" ry="18"/>
<text text-anchor="middle" x="1237.99" y="-101.3" font-family="Times,serif" font-size="14.00">named thing</text>
</g>
</g>
</svg>
