<?xml version="1.0" encoding="UTF-8" standalone="no"?>
<!DOCTYPE svg PUBLIC "-//W3C//DTD SVG 1.1//EN"
 "http://www.w3.org/Graphics/SVG/1.1/DTD/svg11.dtd">
<!-- Generated by graphviz version 2.43.0 (0)
 -->
<!-- Title: %3 Pages: 1 -->
<svg width="2036pt" height="131pt"
 viewBox="0.00 0.00 2035.99 131.00" xmlns="http://www.w3.org/2000/svg" xmlns:xlink="http://www.w3.org/1999/xlink">
<g id="graph0" class="graph" transform="scale(1 1) rotate(0) translate(4 127)">
<title>%3</title>
<polygon fill="white" stroke="transparent" points="-4,4 -4,-127 2031.99,-127 2031.99,4 -4,4"/>
<!-- processed material -->
<g id="node1" class="node">
<title>processed material</title>
<ellipse fill="none" stroke="black" cx="907.99" cy="-105" rx="99.38" ry="18"/>
<text text-anchor="middle" x="907.99" y="-101.3" font-family="Times,serif" font-size="14.00">processed material</text>
</g>
<!-- chemical mixture -->
<g id="node2" class="node">
<title>chemical mixture</title>
<ellipse fill="none" stroke="black" cx="90.99" cy="-18" rx="90.98" ry="18"/>
<text text-anchor="middle" x="90.99" y="-14.3" font-family="Times,serif" font-size="14.00">chemical mixture</text>
</g>
<!-- processed material&#45;&gt;chemical mixture -->
<g id="edge1" class="edge">
<title>processed material&#45;&gt;chemical mixture</title>
<path fill="none" stroke="black" d="M809.21,-102.55C693.08,-99.82 494.76,-91.9 325.99,-69 267.14,-61.02 201.07,-46.45 154,-35.09"/>
<polygon fill="black" stroke="black" points="154.8,-31.68 144.26,-32.72 153.15,-38.48 154.8,-31.68"/>
<text text-anchor="middle" x="339.99" y="-57.8" font-family="Times,serif" font-size="14.00">is_a</text>
</g>
<!-- id -->
<g id="node3" class="node">
<title>id</title>
<ellipse fill="none" stroke="blue" cx="237.99" cy="-18" rx="38.19" ry="18"/>
<text text-anchor="middle" x="237.99" y="-14.3" font-family="Times,serif" font-size="14.00">string</text>
</g>
<!-- processed material&#45;&gt;id -->
<g id="edge2" class="edge">
<title>processed material&#45;&gt;id</title>
<path fill="none" stroke="blue" d="M811.6,-100.29C717.87,-95.83 571.65,-86.64 445.99,-69 374.09,-58.9 355.93,-55.5 285.99,-36 282.88,-35.13 279.69,-34.17 276.49,-33.15"/>
<polygon fill="blue" stroke="blue" points="277.57,-29.82 266.98,-29.98 275.36,-36.46 277.57,-29.82"/>
<text text-anchor="middle" x="452.99" y="-57.8" font-family="Times,serif" font-size="14.00">id</text>
</g>
<!-- iri -->
<g id="node4" class="node">
<title>iri</title>
<ellipse fill="none" stroke="blue" cx="338.99" cy="-18" rx="44.39" ry="18"/>
<text text-anchor="middle" x="338.99" y="-14.3" font-family="Times,serif" font-size="14.00">iri type</text>
</g>
<!-- processed material&#45;&gt;iri -->
<g id="edge3" class="edge">
<title>processed material&#45;&gt;iri</title>
<path fill="none" stroke="blue" d="M816.13,-98.08C742.73,-92.63 637.39,-83.23 545.99,-69 477.26,-58.3 460.24,-53.8 392.99,-36 389.41,-35.05 385.71,-34.01 382,-32.93"/>
<polygon fill="blue" stroke="blue" points="382.85,-29.53 372.27,-30.01 380.83,-36.24 382.85,-29.53"/>
<text text-anchor="middle" x="553.99" y="-57.8" font-family="Times,serif" font-size="14.00">iri</text>
</g>
<!-- type -->
<g id="node5" class="node">
<title>type</title>
<ellipse fill="none" stroke="blue" cx="439.99" cy="-18" rx="38.19" ry="18"/>
<text text-anchor="middle" x="439.99" y="-14.3" font-family="Times,serif" font-size="14.00">string</text>
</g>
<!-- processed material&#45;&gt;type -->
<g id="edge4" class="edge">
<title>processed material&#45;&gt;type</title>
<path fill="none" stroke="blue" d="M820.26,-96.45C734.07,-87.5 599.49,-69.39 486.99,-36 484.09,-35.14 481.11,-34.2 478.12,-33.21"/>
<polygon fill="blue" stroke="blue" points="479.24,-29.9 468.65,-29.97 476.97,-36.52 479.24,-29.9"/>
<text text-anchor="middle" x="639.99" y="-57.8" font-family="Times,serif" font-size="14.00">type</text>
</g>
<!-- name -->
<g id="node6" class="node">
<title>name</title>
<ellipse fill="none" stroke="blue" cx="552.99" cy="-18" rx="56.59" ry="18"/>
<text text-anchor="middle" x="552.99" y="-14.3" font-family="Times,serif" font-size="14.00">label type</text>
</g>
<!-- processed material&#45;&gt;name -->
<g id="edge5" class="edge">
<title>processed material&#45;&gt;name</title>
<path fill="none" stroke="blue" d="M835.8,-92.54C800.41,-86.44 757.26,-78.28 718.99,-69 678.57,-59.2 633.41,-45.41 600.41,-34.79"/>
<polygon fill="blue" stroke="blue" points="601.17,-31.36 590.58,-31.61 599.01,-38.02 601.17,-31.36"/>
<text text-anchor="middle" x="738.99" y="-57.8" font-family="Times,serif" font-size="14.00">name</text>
</g>
<!-- description -->
<g id="node7" class="node">
<title>description</title>
<ellipse fill="none" stroke="blue" cx="702.99" cy="-18" rx="75.29" ry="18"/>
<text text-anchor="middle" x="702.99" y="-14.3" font-family="Times,serif" font-size="14.00">narrative text</text>
</g>
<!-- processed material&#45;&gt;description -->
<g id="edge6" class="edge">
<title>processed material&#45;&gt;description</title>
<path fill="none" stroke="blue" d="M853.33,-89.93C833.95,-84.28 812.2,-77.15 792.99,-69 773.97,-60.93 753.78,-49.95 737.35,-40.34"/>
<polygon fill="blue" stroke="blue" points="739.03,-37.27 728.64,-35.17 735.45,-43.28 739.03,-37.27"/>
<text text-anchor="middle" x="833.49" y="-57.8" font-family="Times,serif" font-size="14.00">description</text>
</g>
<!-- source -->
<g id="node8" class="node">
<title>source</title>
<ellipse fill="none" stroke="blue" cx="852.99" cy="-18" rx="56.59" ry="18"/>
<text text-anchor="middle" x="852.99" y="-14.3" font-family="Times,serif" font-size="14.00">label type</text>
</g>
<!-- processed material&#45;&gt;source -->
<g id="edge7" class="edge">
<title>processed material&#45;&gt;source</title>
<path fill="none" stroke="blue" d="M896.86,-86.8C888.98,-74.62 878.28,-58.09 869.43,-44.4"/>
<polygon fill="blue" stroke="blue" points="872.29,-42.38 863.92,-35.89 866.41,-46.18 872.29,-42.38"/>
<text text-anchor="middle" x="907.99" y="-57.8" font-family="Times,serif" font-size="14.00">source</text>
</g>
<!-- provided by -->
<g id="node9" class="node">
<title>provided by</title>
<ellipse fill="none" stroke="blue" cx="964.99" cy="-18" rx="37.09" ry="18"/>
<text text-anchor="middle" x="964.99" y="-14.3" font-family="Times,serif" font-size="14.00">agent</text>
</g>
<!-- processed material&#45;&gt;provided by -->
<g id="edge8" class="edge">
<title>processed material&#45;&gt;provided by</title>
<path fill="none" stroke="blue" d="M922.48,-86.94C926.99,-81.36 931.86,-75.04 935.99,-69 941.29,-61.26 946.58,-52.51 951.17,-44.52"/>
<polygon fill="blue" stroke="blue" points="954.34,-46.02 956.19,-35.59 948.24,-42.59 954.34,-46.02"/>
<text text-anchor="middle" x="988.49" y="-57.8" font-family="Times,serif" font-size="14.00">provided by</text>
</g>
<!-- has attribute -->
<g id="node10" class="node">
<title>has attribute</title>
<ellipse fill="none" stroke="blue" cx="1071.99" cy="-18" rx="51.99" ry="18"/>
<text text-anchor="middle" x="1071.99" y="-14.3" font-family="Times,serif" font-size="14.00">attribute</text>
</g>
<!-- processed material&#45;&gt;has attribute -->
<g id="edge9" class="edge">
<title>processed material&#45;&gt;has attribute</title>
<path fill="none" stroke="blue" d="M980.83,-92.73C999.58,-87.55 1018.96,-80 1034.99,-69 1044.07,-62.77 1051.79,-53.57 1057.79,-44.75"/>
<polygon fill="blue" stroke="blue" points="1060.82,-46.51 1063.21,-36.18 1054.91,-42.77 1060.82,-46.51"/>
<text text-anchor="middle" x="1096.99" y="-57.8" font-family="Times,serif" font-size="14.00">has attribute</text>
</g>
<!-- category -->
<g id="node11" class="node">
<title>category</title>
<ellipse fill="none" stroke="black" cx="1192.99" cy="-18" rx="51.19" ry="18"/>
<text text-anchor="middle" x="1192.99" y="-14.3" font-family="Times,serif" font-size="14.00">category</text>
</g>
<!-- processed material&#45;&gt;category -->
<g id="edge10" class="edge">
<title>processed material&#45;&gt;category</title>
<path fill="none" stroke="blue" d="M979.71,-92.5C991.81,-90.62 1004.25,-88.72 1015.99,-87 1074.57,-78.4 1095.66,-96.7 1147.99,-69 1159.17,-63.08 1168.94,-53.23 1176.5,-43.82"/>
<polygon fill="blue" stroke="blue" points="1179.33,-45.88 1182.55,-35.78 1173.74,-41.67 1179.33,-45.88"/>
<text text-anchor="middle" x="1198.49" y="-57.8" font-family="Times,serif" font-size="14.00">category</text>
</g>
<!-- trade name -->
<g id="node13" class="node">
<title>trade name</title>
<ellipse fill="none" stroke="blue" cx="1343.99" cy="-18" rx="81.79" ry="18"/>
<text text-anchor="middle" x="1343.99" y="-14.3" font-family="Times,serif" font-size="14.00">chemical entity</text>
</g>
<!-- processed material&#45;&gt;trade name -->
<g id="edge11" class="edge">
<title>processed material&#45;&gt;trade name</title>
<path fill="none" stroke="blue" d="M978.18,-92.18C990.75,-90.29 1003.74,-88.47 1015.99,-87 1112.52,-75.43 1139.9,-93.48 1233.99,-69 1259.34,-62.4 1286.14,-50.35 1306.93,-39.72"/>
<polygon fill="blue" stroke="blue" points="1308.79,-42.7 1316.04,-34.97 1305.55,-36.5 1308.79,-42.7"/>
<text text-anchor="middle" x="1315.99" y="-57.8" font-family="Times,serif" font-size="14.00">trade name</text>
</g>
<!-- available from -->
<g id="node14" class="node">
<title>available from</title>
<ellipse fill="none" stroke="blue" cx="1561.99" cy="-18" rx="118.08" ry="18"/>
<text text-anchor="middle" x="1561.99" y="-14.3" font-family="Times,serif" font-size="14.00">drug_availability_enum</text>
</g>
<!-- processed material&#45;&gt;available from -->
<g id="edge12" class="edge">
<title>processed material&#45;&gt;available from</title>
<path fill="none" stroke="blue" d="M977.28,-92C990.12,-90.09 1003.44,-88.31 1015.99,-87 1168.7,-71.04 1209.13,-91.64 1360.99,-69 1409.03,-61.84 1462.32,-48.32 1501.96,-37.14"/>
<polygon fill="blue" stroke="blue" points="1503.07,-40.46 1511.73,-34.35 1501.15,-33.73 1503.07,-40.46"/>
<text text-anchor="middle" x="1485.49" y="-57.8" font-family="Times,serif" font-size="14.00">available from</text>
</g>
<!-- is supplement -->
<g id="node15" class="node">
<title>is supplement</title>
<ellipse fill="none" stroke="blue" cx="1788.99" cy="-18" rx="90.98" ry="18"/>
<text text-anchor="middle" x="1788.99" y="-14.3" font-family="Times,serif" font-size="14.00">chemical mixture</text>
</g>
<!-- processed material&#45;&gt;is supplement -->
<g id="edge13" class="edge">
<title>processed material&#45;&gt;is supplement</title>
<path fill="none" stroke="blue" d="M976.68,-91.9C989.7,-89.98 1003.24,-88.22 1015.99,-87 1248.41,-64.81 1309.11,-96.16 1540.99,-69 1604.05,-61.61 1674.96,-46.63 1724.75,-34.98"/>
<polygon fill="blue" stroke="blue" points="1725.81,-38.33 1734.73,-32.62 1724.2,-31.52 1725.81,-38.33"/>
<text text-anchor="middle" x="1681.49" y="-57.8" font-family="Times,serif" font-size="14.00">is supplement</text>
</g>
<!-- highest FDA approval status -->
<g id="node16" class="node">
<title>highest FDA approval status</title>
<ellipse fill="none" stroke="blue" cx="1935.99" cy="-18" rx="38.19" ry="18"/>
<text text-anchor="middle" x="1935.99" y="-14.3" font-family="Times,serif" font-size="14.00">string</text>
</g>
<!-- processed material&#45;&gt;highest FDA approval status -->
<g id="edge14" class="edge">
<title>processed material&#45;&gt;highest FDA approval status</title>
<path fill="none" stroke="blue" d="M976.38,-91.85C989.49,-89.91 1003.14,-88.17 1015.99,-87 1334.78,-58.05 1418.14,-106.91 1735.99,-69 1805.07,-60.76 1822.13,-55.21 1888.99,-36 1891.9,-35.16 1894.89,-34.24 1897.88,-33.27"/>
<polygon fill="blue" stroke="blue" points="1899.02,-36.58 1907.36,-30.05 1896.77,-29.95 1899.02,-36.58"/>
<text text-anchor="middle" x="1925.49" y="-57.8" font-family="Times,serif" font-size="14.00">highest FDA approval status</text>
</g>
<!-- named thing_category -->
<g id="node12" class="node">
<title>named thing_category</title>
<ellipse fill="none" stroke="blue" cx="1094.99" cy="-105" rx="69.59" ry="18"/>
<text text-anchor="middle" x="1094.99" y="-101.3" font-family="Times,serif" font-size="14.00">named thing</text>
</g>
</g>
</svg>
