<?xml version="1.0" encoding="UTF-8" standalone="no"?>
<!DOCTYPE svg PUBLIC "-//W3C//DTD SVG 1.1//EN"
 "http://www.w3.org/Graphics/SVG/1.1/DTD/svg11.dtd">
<!-- Generated by graphviz version 2.40.1 (20161225.0304)
 -->
<!-- Title: %3 Pages: 1 -->
<svg width="1381pt" height="130pt"
 viewBox="0.00 0.00 1380.78 130.00" xmlns="http://www.w3.org/2000/svg" xmlns:xlink="http://www.w3.org/1999/xlink">
<g id="graph0" class="graph" transform="scale(1 1) rotate(0) translate(4 126)">
<title>%3</title>
<polygon fill="#ffffff" stroke="transparent" points="-4,4 -4,-126 1376.7775,-126 1376.7775,4 -4,4"/>
<!-- provider -->
<g id="node1" class="node">
<title>provider</title>
<ellipse fill="none" stroke="#000000" cx="746.0481" cy="-104" rx="40.1317" ry="18"/>
<text text-anchor="middle" x="746.0481" y="-99.8" font-family="Times,serif" font-size="14.00" fill="#000000">provider</text>
</g>
<!-- administrative entity -->
<g id="node2" class="node">
<title>administrative entity</title>
<ellipse fill="none" stroke="#000000" cx="83.0481" cy="-18" rx="83.0963" ry="18"/>
<text text-anchor="middle" x="83.0481" y="-13.8" font-family="Times,serif" font-size="14.00" fill="#000000">administrative entity</text>
</g>
<!-- provider&#45;&gt;administrative entity -->
<g id="edge1" class="edge">
<title>provider&#45;&gt;administrative entity</title>
<path fill="none" stroke="#000000" d="M706.3323,-101.5815C634.9059,-96.9661 480.1306,-85.7517 350.4964,-68 272.399,-57.3056 253.5103,-50.6006 176.0481,-36 169.104,-34.6911 161.8709,-33.3145 154.6415,-31.9298"/>
<polygon fill="#000000" stroke="#000000" points="155.2937,-28.4912 144.813,-30.0421 153.9734,-35.3655 155.2937,-28.4912"/>
<text text-anchor="middle" x="362.324" y="-56.8" font-family="Times,serif" font-size="14.00" fill="#000000">is_a</text>
</g>
<!-- id -->
<g id="node3" class="node">
<title>id</title>
<ellipse fill="none" stroke="#0000ff" cx="244.0481" cy="-18" rx="59.4427" ry="18"/>
<text text-anchor="middle" x="244.0481" y="-13.8" font-family="Times,serif" font-size="14.00" fill="#000000">identifier type</text>
</g>
<!-- provider&#45;&gt;id -->
<g id="edge2" class="edge">
<title>provider&#45;&gt;id</title>
<path fill="none" stroke="#0000ff" d="M706.4311,-101.0522C647.5677,-96.2928 533.6863,-85.6249 438.1585,-68 381.2929,-57.5083 368.0234,-50.5098 312.0481,-36 307.7426,-34.8839 303.2857,-33.7211 298.8077,-32.5473"/>
<polygon fill="#0000ff" stroke="#0000ff" points="299.5828,-29.1322 289.0215,-29.9744 297.8028,-35.9022 299.5828,-29.1322"/>
<text text-anchor="middle" x="444.493" y="-56.8" font-family="Times,serif" font-size="14.00" fill="#000000">id</text>
</g>
<!-- name -->
<g id="node4" class="node">
<title>name</title>
<ellipse fill="none" stroke="#0000ff" cx="366.0481" cy="-18" rx="44.9599" ry="18"/>
<text text-anchor="middle" x="366.0481" y="-13.8" font-family="Times,serif" font-size="14.00" fill="#000000">label type</text>
</g>
<!-- provider&#45;&gt;name -->
<g id="edge3" class="edge">
<title>provider&#45;&gt;name</title>
<path fill="none" stroke="#0000ff" d="M706.2155,-100.9924C656.5428,-96.618 569.3189,-86.8764 496.7308,-68 465.148,-59.787 430.7257,-46.4251 405.1409,-35.5798"/>
<polygon fill="#0000ff" stroke="#0000ff" points="406.3619,-32.2951 395.7924,-31.5625 403.5981,-38.7264 406.3619,-32.2951"/>
<text text-anchor="middle" x="512.2068" y="-56.8" font-family="Times,serif" font-size="14.00" fill="#000000">name</text>
</g>
<!-- category -->
<g id="node5" class="node">
<title>category</title>
<ellipse fill="none" stroke="#0000ff" cx="464.0481" cy="-18" rx="35.3048" ry="18"/>
<text text-anchor="middle" x="464.0481" y="-13.8" font-family="Times,serif" font-size="14.00" fill="#000000">iri type</text>
</g>
<!-- provider&#45;&gt;category -->
<g id="edge4" class="edge">
<title>provider&#45;&gt;category</title>
<path fill="none" stroke="#0000ff" d="M707.0981,-99.2964C669.8693,-94.0968 612.5189,-84.2349 564.8548,-68 541.0169,-59.8806 515.6259,-47.2604 496.2901,-36.7309"/>
<polygon fill="#0000ff" stroke="#0000ff" points="497.7609,-33.5445 487.3177,-31.7586 494.3678,-39.6672 497.7609,-33.5445"/>
<text text-anchor="middle" x="589.1448" y="-56.8" font-family="Times,serif" font-size="14.00" fill="#000000">category</text>
</g>
<!-- related to -->
<g id="node6" class="node">
<title>related to</title>
<ellipse fill="none" stroke="#0000ff" cx="571.0481" cy="-18" rx="54.1389" ry="18"/>
<text text-anchor="middle" x="571.0481" y="-13.8" font-family="Times,serif" font-size="14.00" fill="#000000">named thing</text>
</g>
<!-- provider&#45;&gt;related to -->
<g id="edge5" class="edge">
<title>provider&#45;&gt;related to</title>
<path fill="none" stroke="#0000ff" d="M710.5521,-95.1514C689.043,-89.0577 661.4365,-79.9101 638.5755,-68 624.5216,-60.6783 610.2355,-50.5669 598.445,-41.3519"/>
<polygon fill="#0000ff" stroke="#0000ff" points="600.331,-38.378 590.3397,-34.8531 595.9521,-43.8393 600.331,-38.378"/>
<text text-anchor="middle" x="665.2845" y="-56.8" font-family="Times,serif" font-size="14.00" fill="#000000">related to</text>
</g>
<!-- interacts with -->
<g id="node7" class="node">
<title>interacts with</title>
<ellipse fill="none" stroke="#0000ff" cx="697.0481" cy="-18" rx="54.1389" ry="18"/>
<text text-anchor="middle" x="697.0481" y="-13.8" font-family="Times,serif" font-size="14.00" fill="#000000">named thing</text>
</g>
<!-- provider&#45;&gt;interacts with -->
<g id="edge6" class="edge">
<title>provider&#45;&gt;interacts with</title>
<path fill="none" stroke="#0000ff" d="M719.4618,-90.3114C711.1534,-84.6064 702.9382,-77.1496 698.2376,-68 694.8395,-61.3857 693.5818,-53.6011 693.4128,-46.1696"/>
<polygon fill="#0000ff" stroke="#0000ff" points="696.9147,-46.1807 693.789,-36.0574 689.9195,-45.9203 696.9147,-46.1807"/>
<text text-anchor="middle" x="736.9534" y="-56.8" font-family="Times,serif" font-size="14.00" fill="#000000">interacts with</text>
</g>
<!-- node property -->
<g id="node8" class="node">
<title>node property</title>
<ellipse fill="none" stroke="#0000ff" cx="799.0481" cy="-18" rx="30.0035" ry="18"/>
<text text-anchor="middle" x="799.0481" y="-13.8" font-family="Times,serif" font-size="14.00" fill="#000000">string</text>
</g>
<!-- provider&#45;&gt;node property -->
<g id="edge7" class="edge">
<title>provider&#45;&gt;node property</title>
<path fill="none" stroke="#0000ff" d="M760.4395,-86.9265C765.0447,-81.1008 769.9954,-74.4306 774.0481,-68 778.6324,-60.7259 783.0379,-52.4983 786.8392,-44.8483"/>
<polygon fill="#0000ff" stroke="#0000ff" points="790.1157,-46.111 791.2991,-35.5825 783.8083,-43.075 790.1157,-46.111"/>
<text text-anchor="middle" x="821.1189" y="-56.8" font-family="Times,serif" font-size="14.00" fill="#000000">node property</text>
</g>
<!-- iri -->
<g id="node9" class="node">
<title>iri</title>
<ellipse fill="none" stroke="#0000ff" cx="883.0481" cy="-18" rx="35.3048" ry="18"/>
<text text-anchor="middle" x="883.0481" y="-13.8" font-family="Times,serif" font-size="14.00" fill="#000000">iri type</text>
</g>
<!-- provider&#45;&gt;iri -->
<g id="edge8" class="edge">
<title>provider&#45;&gt;iri</title>
<path fill="none" stroke="#0000ff" d="M782.7622,-96.5079C812.7884,-89.7248 852.1587,-79.118 864.0481,-68 870.2479,-62.2025 874.4426,-54.1706 877.2738,-46.2391"/>
<polygon fill="#0000ff" stroke="#0000ff" points="880.6974,-47.004 880.1788,-36.4218 873.9851,-45.0176 880.6974,-47.004"/>
<text text-anchor="middle" x="880.2688" y="-56.8" font-family="Times,serif" font-size="14.00" fill="#000000">iri</text>
</g>
<!-- synonym -->
<g id="node10" class="node">
<title>synonym</title>
<ellipse fill="none" stroke="#0000ff" cx="981.0481" cy="-18" rx="44.9599" ry="18"/>
<text text-anchor="middle" x="981.0481" y="-13.8" font-family="Times,serif" font-size="14.00" fill="#000000">label type</text>
</g>
<!-- provider&#45;&gt;synonym -->
<g id="edge9" class="edge">
<title>provider&#45;&gt;synonym</title>
<path fill="none" stroke="#0000ff" d="M783.5597,-97.3795C813.1102,-91.5126 855.0215,-81.7349 890.0481,-68 910.1553,-60.1155 931.3741,-48.6591 948.2598,-38.7013"/>
<polygon fill="#0000ff" stroke="#0000ff" points="950.3898,-41.5048 957.1603,-33.3556 946.7856,-35.504 950.3898,-41.5048"/>
<text text-anchor="middle" x="944.7171" y="-56.8" font-family="Times,serif" font-size="14.00" fill="#000000">synonym</text>
</g>
<!-- full name -->
<g id="node11" class="node">
<title>full name</title>
<ellipse fill="none" stroke="#0000ff" cx="1088.0481" cy="-18" rx="44.9599" ry="18"/>
<text text-anchor="middle" x="1088.0481" y="-13.8" font-family="Times,serif" font-size="14.00" fill="#000000">label type</text>
</g>
<!-- provider&#45;&gt;full name -->
<g id="edge10" class="edge">
<title>provider&#45;&gt;full name</title>
<path fill="none" stroke="#0000ff" d="M785.8583,-100.8331C831.9024,-96.4587 909.6317,-86.8701 974.0481,-68 1000.7866,-60.1673 1029.506,-47.543 1051.4299,-36.9397"/>
<polygon fill="#0000ff" stroke="#0000ff" points="1053.2587,-39.9407 1060.6881,-32.3872 1050.1699,-33.6591 1053.2587,-39.9407"/>
<text text-anchor="middle" x="1039.6775" y="-56.8" font-family="Times,serif" font-size="14.00" fill="#000000">full name</text>
</g>
<!-- description -->
<g id="node12" class="node">
<title>description</title>
<ellipse fill="none" stroke="#0000ff" cx="1208.0481" cy="-18" rx="57.0027" ry="18"/>
<text text-anchor="middle" x="1208.0481" y="-13.8" font-family="Times,serif" font-size="14.00" fill="#000000">narrative text</text>
</g>
<!-- provider&#45;&gt;description -->
<g id="edge11" class="edge">
<title>provider&#45;&gt;description</title>
<path fill="none" stroke="#0000ff" d="M786.2144,-102.5913C847.9611,-99.7441 969.5975,-91.4279 1070.0481,-68 1102.7593,-60.3708 1138.3708,-47.3424 1165.2236,-36.4973"/>
<polygon fill="#0000ff" stroke="#0000ff" points="1166.7728,-39.645 1174.6989,-32.6146 1164.1186,-33.1677 1166.7728,-39.645"/>
<text text-anchor="middle" x="1148.1517" y="-56.8" font-family="Times,serif" font-size="14.00" fill="#000000">description</text>
</g>
<!-- systematic synonym -->
<g id="node13" class="node">
<title>systematic synonym</title>
<ellipse fill="none" stroke="#0000ff" cx="1328.0481" cy="-18" rx="44.9599" ry="18"/>
<text text-anchor="middle" x="1328.0481" y="-13.8" font-family="Times,serif" font-size="14.00" fill="#000000">label type</text>
</g>
<!-- provider&#45;&gt;systematic synonym -->
<g id="edge12" class="edge">
<title>provider&#45;&gt;systematic synonym</title>
<path fill="none" stroke="#0000ff" d="M786.1339,-101.9809C879.2203,-97.0848 1107.8052,-83.8116 1183.0481,-68 1219.2962,-60.3828 1258.9624,-46.2815 1287.6304,-34.9913"/>
<polygon fill="#0000ff" stroke="#0000ff" points="1289.3021,-38.0923 1297.2883,-31.1303 1286.7036,-31.5925 1289.3021,-38.0923"/>
<text text-anchor="middle" x="1289.0154" y="-56.8" font-family="Times,serif" font-size="14.00" fill="#000000">systematic synonym</text>
</g>
</g>
</svg>
