<?xml version="1.0" encoding="UTF-8" standalone="no"?>
<!DOCTYPE svg PUBLIC "-//W3C//DTD SVG 1.1//EN"
 "http://www.w3.org/Graphics/SVG/1.1/DTD/svg11.dtd">
<!-- Generated by graphviz version 2.43.0 (0)
 -->
<!-- Title: %3 Pages: 1 -->
<svg width="1381pt" height="130pt"
 viewBox="0.00 0.00 1380.78 130.00" xmlns="http://www.w3.org/2000/svg" xmlns:xlink="http://www.w3.org/1999/xlink">
<g id="graph0" class="graph" transform="scale(1 1) rotate(0) translate(4 126)">
<title>%3</title>
<polygon fill="white" stroke="transparent" points="-4,4 -4,-126 1376.78,-126 1376.78,4 -4,4"/>
<!-- provider -->
<g id="node1" class="node">
<title>provider</title>
<ellipse fill="none" stroke="black" cx="746.05" cy="-104" rx="40.13" ry="18"/>
<text text-anchor="middle" x="746.05" y="-99.8" font-family="Times,serif" font-size="14.00">provider</text>
</g>
<!-- administrative entity -->
<g id="node2" class="node">
<title>administrative entity</title>
<ellipse fill="none" stroke="black" cx="83.05" cy="-18" rx="83.1" ry="18"/>
<text text-anchor="middle" x="83.05" y="-13.8" font-family="Times,serif" font-size="14.00">administrative entity</text>
</g>
<!-- provider&#45;&gt;administrative entity -->
<g id="edge1" class="edge">
<title>provider&#45;&gt;administrative entity</title>
<path fill="none" stroke="black" d="M706.59,-100.79C634.87,-96.49 478.43,-85.84 347.5,-68 279.91,-58.79 203.35,-44.14 150.06,-33.25"/>
<polygon fill="black" stroke="black" points="150.55,-29.78 140.05,-31.19 149.14,-36.64 150.55,-29.78"/>
<text text-anchor="middle" x="359.32" y="-56.8" font-family="Times,serif" font-size="14.00">is_a</text>
</g>
<!-- id -->
<g id="node3" class="node">
<title>id</title>
<ellipse fill="none" stroke="blue" cx="244.05" cy="-18" rx="59.44" ry="18"/>
<text text-anchor="middle" x="244.05" y="-13.8" font-family="Times,serif" font-size="14.00">identifier type</text>
</g>
<!-- provider&#45;&gt;id -->
<g id="edge2" class="edge">
<title>provider&#45;&gt;id</title>
<path fill="none" stroke="blue" d="M706.43,-100.2C647.57,-95.67 533.69,-85.41 438.16,-68 389.19,-59.08 334.27,-44.8 295.37,-33.96"/>
<polygon fill="blue" stroke="blue" points="295.92,-30.48 285.35,-31.14 294.03,-37.22 295.92,-30.48"/>
<text text-anchor="middle" x="444.49" y="-56.8" font-family="Times,serif" font-size="14.00">id</text>
</g>
<!-- name -->
<g id="node4" class="node">
<title>name</title>
<ellipse fill="none" stroke="blue" cx="366.05" cy="-18" rx="44.96" ry="18"/>
<text text-anchor="middle" x="366.05" y="-13.8" font-family="Times,serif" font-size="14.00">label type</text>
</g>
<!-- provider&#45;&gt;name -->
<g id="edge3" class="edge">
<title>provider&#45;&gt;name</title>
<path fill="none" stroke="blue" d="M706.67,-100.15C657.09,-95.96 569.59,-86.53 496.73,-68 464.77,-59.87 429.85,-46.53 404.16,-35.82"/>
<polygon fill="blue" stroke="blue" points="405.36,-32.53 394.79,-31.87 402.64,-38.98 405.36,-32.53"/>
<text text-anchor="middle" x="512.21" y="-56.8" font-family="Times,serif" font-size="14.00">name</text>
</g>
<!-- category -->
<g id="node5" class="node">
<title>category</title>
<ellipse fill="none" stroke="blue" cx="464.05" cy="-18" rx="35.3" ry="18"/>
<text text-anchor="middle" x="464.05" y="-13.8" font-family="Times,serif" font-size="14.00">iri type</text>
</g>
<!-- provider&#45;&gt;category -->
<g id="edge4" class="edge">
<title>provider&#45;&gt;category</title>
<path fill="none" stroke="blue" d="M707.83,-98.57C670.64,-93.58 612.88,-84 564.85,-68 540.74,-59.96 514.99,-47.37 495.55,-36.96"/>
<polygon fill="blue" stroke="blue" points="497,-33.77 486.55,-32.06 493.65,-39.92 497,-33.77"/>
<text text-anchor="middle" x="589.14" y="-56.8" font-family="Times,serif" font-size="14.00">category</text>
</g>
<!-- related to -->
<g id="node6" class="node">
<title>related to</title>
<ellipse fill="none" stroke="blue" cx="571.05" cy="-18" rx="54.14" ry="18"/>
<text text-anchor="middle" x="571.05" y="-13.8" font-family="Times,serif" font-size="14.00">named thing</text>
</g>
<!-- provider&#45;&gt;related to -->
<g id="edge5" class="edge">
<title>provider&#45;&gt;related to</title>
<path fill="none" stroke="blue" d="M711.21,-94.84C689.36,-88.98 661,-80 637.58,-68 623.5,-60.79 609.21,-50.7 597.5,-41.55"/>
<polygon fill="blue" stroke="blue" points="599.46,-38.64 589.47,-35.11 595.08,-44.1 599.46,-38.64"/>
<text text-anchor="middle" x="664.28" y="-56.8" font-family="Times,serif" font-size="14.00">related to</text>
</g>
<!-- interacts with -->
<g id="node7" class="node">
<title>interacts with</title>
<ellipse fill="none" stroke="blue" cx="697.05" cy="-18" rx="54.14" ry="18"/>
<text text-anchor="middle" x="697.05" y="-13.8" font-family="Times,serif" font-size="14.00">named thing</text>
</g>
<!-- provider&#45;&gt;interacts with -->
<g id="edge6" class="edge">
<title>provider&#45;&gt;interacts with</title>
<path fill="none" stroke="blue" d="M719.98,-90.17C711.51,-84.6 703.05,-77.21 698.24,-68 694.81,-61.44 693.57,-53.68 693.44,-46.29"/>
<polygon fill="blue" stroke="blue" points="696.93,-46.4 693.86,-36.26 689.94,-46.1 696.93,-46.4"/>
<text text-anchor="middle" x="736.95" y="-56.8" font-family="Times,serif" font-size="14.00">interacts with</text>
</g>
<!-- node property -->
<g id="node8" class="node">
<title>node property</title>
<ellipse fill="none" stroke="blue" cx="799.05" cy="-18" rx="30" ry="18"/>
<text text-anchor="middle" x="799.05" y="-13.8" font-family="Times,serif" font-size="14.00">string</text>
</g>
<!-- provider&#45;&gt;node property -->
<g id="edge7" class="edge">
<title>provider&#45;&gt;node property</title>
<path fill="none" stroke="blue" d="M760.15,-86.78C764.84,-81.04 769.91,-74.41 774.05,-68 778.71,-60.78 783.18,-52.58 787.03,-44.98"/>
<polygon fill="blue" stroke="blue" points="790.27,-46.32 791.52,-35.8 783.98,-43.24 790.27,-46.32"/>
<text text-anchor="middle" x="821.12" y="-56.8" font-family="Times,serif" font-size="14.00">node property</text>
</g>
<!-- iri -->
<g id="node9" class="node">
<title>iri</title>
<ellipse fill="none" stroke="blue" cx="883.05" cy="-18" rx="35.3" ry="18"/>
<text text-anchor="middle" x="883.05" y="-13.8" font-family="Times,serif" font-size="14.00">iri type</text>
</g>
<!-- provider&#45;&gt;iri -->
<g id="edge8" class="edge">
<title>provider&#45;&gt;iri</title>
<path fill="none" stroke="blue" d="M785.44,-100.12C810.71,-96.34 842.68,-87.69 864.05,-68 870.37,-62.17 874.61,-54 877.45,-45.99"/>
<polygon fill="blue" stroke="blue" points="880.88,-46.71 880.34,-36.13 874.17,-44.74 880.88,-46.71"/>
<text text-anchor="middle" x="880.27" y="-56.8" font-family="Times,serif" font-size="14.00">iri</text>
</g>
<!-- synonym -->
<g id="node10" class="node">
<title>synonym</title>
<ellipse fill="none" stroke="blue" cx="981.05" cy="-18" rx="44.96" ry="18"/>
<text text-anchor="middle" x="981.05" y="-13.8" font-family="Times,serif" font-size="14.00">label type</text>
</g>
<!-- provider&#45;&gt;synonym -->
<g id="edge9" class="edge">
<title>provider&#45;&gt;synonym</title>
<path fill="none" stroke="blue" d="M782.93,-96.73C812.5,-91.07 854.74,-81.54 890.05,-68 910.4,-60.19 931.94,-48.76 948.94,-38.9"/>
<polygon fill="blue" stroke="blue" points="951.06,-41.72 957.89,-33.62 947.5,-35.69 951.06,-41.72"/>
<text text-anchor="middle" x="947.72" y="-56.8" font-family="Times,serif" font-size="14.00">synonym</text>
</g>
<!-- full name -->
<g id="node11" class="node">
<title>full name</title>
<ellipse fill="none" stroke="blue" cx="1088.05" cy="-18" rx="44.96" ry="18"/>
<text text-anchor="middle" x="1088.05" y="-13.8" font-family="Times,serif" font-size="14.00">label type</text>
</g>
<!-- provider&#45;&gt;full name -->
<g id="edge10" class="edge">
<title>provider&#45;&gt;full name</title>
<path fill="none" stroke="blue" d="M785.56,-100.22C832.11,-96.21 911.42,-87.09 977.05,-68 1003.3,-60.36 1031.47,-47.88 1052.86,-37.42"/>
<polygon fill="blue" stroke="blue" points="1054.48,-40.52 1061.88,-32.93 1051.37,-34.25 1054.48,-40.52"/>
<text text-anchor="middle" x="1041.68" y="-56.8" font-family="Times,serif" font-size="14.00">full name</text>
</g>
<!-- description -->
<g id="node12" class="node">
<title>description</title>
<ellipse fill="none" stroke="blue" cx="1208.05" cy="-18" rx="57" ry="18"/>
<text text-anchor="middle" x="1208.05" y="-13.8" font-family="Times,serif" font-size="14.00">narrative text</text>
</g>
<!-- provider&#45;&gt;description -->
<g id="edge11" class="edge">
<title>provider&#45;&gt;description</title>
<path fill="none" stroke="blue" d="M785.95,-101.78C847.91,-99.2 970.68,-91.35 1072.05,-68 1104.61,-60.5 1140.09,-47.55 1166.65,-36.84"/>
<polygon fill="blue" stroke="blue" points="1168.07,-40.04 1176,-33.01 1165.42,-33.56 1168.07,-40.04"/>
<text text-anchor="middle" x="1149.15" y="-56.8" font-family="Times,serif" font-size="14.00">description</text>
</g>
<!-- systematic synonym -->
<g id="node13" class="node">
<title>systematic synonym</title>
<ellipse fill="none" stroke="blue" cx="1328.05" cy="-18" rx="44.96" ry="18"/>
<text text-anchor="middle" x="1328.05" y="-13.8" font-family="Times,serif" font-size="14.00">label type</text>
</g>
<!-- provider&#45;&gt;systematic synonym -->
<g id="edge12" class="edge">
<title>provider&#45;&gt;systematic synonym</title>
<path fill="none" stroke="blue" d="M786.07,-103.1C863.68,-102.58 1039.68,-97.85 1184.05,-68 1220.37,-60.49 1260.18,-46.47 1288.71,-35.35"/>
<polygon fill="blue" stroke="blue" points="1290.3,-38.48 1298.31,-31.55 1287.73,-31.98 1290.3,-38.48"/>
<text text-anchor="middle" x="1290.02" y="-56.8" font-family="Times,serif" font-size="14.00">systematic synonym</text>
</g>
</g>
</svg>
