<?xml version="1.0" encoding="UTF-8" standalone="no"?>
<!DOCTYPE svg PUBLIC "-//W3C//DTD SVG 1.1//EN"
 "http://www.w3.org/Graphics/SVG/1.1/DTD/svg11.dtd">
<!-- Generated by graphviz version 2.40.1 (20161225.0304)
 -->
<!-- Title: %3 Pages: 1 -->
<svg width="538pt" height="131pt"
 viewBox="0.00 0.00 537.84 131.00" xmlns="http://www.w3.org/2000/svg" xmlns:xlink="http://www.w3.org/1999/xlink">
<g id="graph0" class="graph" transform="scale(1 1) rotate(0) translate(4 127)">
<title>%3</title>
<polygon fill="#ffffff" stroke="transparent" points="-4,4 -4,-127 533.8356,-127 533.8356,4 -4,4"/>
<!-- publication -->
<g id="node1" class="node">
<title>publication</title>
<ellipse fill="none" stroke="#000000" cx="302.3408" cy="-105" rx="50.0912" ry="18"/>
<text text-anchor="middle" x="302.3408" y="-101.3" font-family="Times,serif" font-size="14.00" fill="#000000">publication</text>
</g>
<!-- information content entity -->
<g id="node2" class="node">
<title>information content entity</title>
<ellipse fill="none" stroke="#000000" cx="103.3408" cy="-18" rx="103.1819" ry="18"/>
<text text-anchor="middle" x="103.3408" y="-14.3" font-family="Times,serif" font-size="14.00" fill="#000000">information content entity</text>
</g>
<!-- publication&#45;&gt;information content entity -->
<g id="edge1" class="edge">
<title>publication&#45;&gt;information content entity</title>
<path fill="none" stroke="#000000" d="M270.368,-91.0219C238.195,-76.9564 188.1872,-55.0936 151.2696,-38.9538"/>
<polygon fill="#000000" stroke="#000000" points="152.2729,-35.5726 141.7082,-34.7737 149.4688,-41.9864 152.2729,-35.5726"/>
<text text-anchor="middle" x="226.3408" y="-57.8" font-family="Times,serif" font-size="14.00" fill="#000000">is_a</text>
</g>
<!-- id -->
<g id="node3" class="node">
<title>id</title>
<ellipse fill="none" stroke="#0000ff" cx="255.3408" cy="-18" rx="30.5947" ry="18"/>
<text text-anchor="middle" x="255.3408" y="-14.3" font-family="Times,serif" font-size="14.00" fill="#000000">string</text>
</g>
<!-- publication&#45;&gt;id -->
<g id="edge2" class="edge">
<title>publication&#45;&gt;id</title>
<path fill="none" stroke="#0000ff" d="M292.6024,-86.9735C285.9611,-74.6801 277.0557,-58.1956 269.6163,-44.4249"/>
<polygon fill="#0000ff" stroke="#0000ff" points="272.5786,-42.5443 264.7461,-35.4097 266.4198,-45.8715 272.5786,-42.5443"/>
<text text-anchor="middle" x="287.8408" y="-57.8" font-family="Times,serif" font-size="14.00" fill="#000000">id</text>
</g>
<!-- name -->
<g id="node4" class="node">
<title>name</title>
<ellipse fill="none" stroke="#0000ff" cx="349.3408" cy="-18" rx="45.4919" ry="18"/>
<text text-anchor="middle" x="349.3408" y="-14.3" font-family="Times,serif" font-size="14.00" fill="#000000">label type</text>
</g>
<!-- publication&#45;&gt;name -->
<g id="edge3" class="edge">
<title>publication&#45;&gt;name</title>
<path fill="none" stroke="#0000ff" d="M312.0793,-86.9735C318.6769,-74.7609 327.5089,-58.4123 334.9183,-44.697"/>
<polygon fill="#0000ff" stroke="#0000ff" points="338.102,-46.1675 339.7757,-35.7057 331.9432,-42.8403 338.102,-46.1675"/>
<text text-anchor="middle" x="344.8408" y="-57.8" font-family="Times,serif" font-size="14.00" fill="#000000">name</text>
</g>
<!-- category -->
<g id="node5" class="node">
<title>category</title>
<ellipse fill="none" stroke="#0000ff" cx="471.3408" cy="-18" rx="58.4896" ry="18"/>
<text text-anchor="middle" x="471.3408" y="-14.3" font-family="Times,serif" font-size="14.00" fill="#000000">category type</text>
</g>
<!-- publication&#45;&gt;category -->
<g id="edge4" class="edge">
<title>publication&#45;&gt;category</title>
<path fill="none" stroke="#0000ff" d="M331.0094,-90.2416C358.7462,-75.9629 401.0099,-54.2059 431.9085,-38.2995"/>
<polygon fill="#0000ff" stroke="#0000ff" points="433.8151,-41.2546 441.1042,-33.5656 430.6111,-35.0308 433.8151,-41.2546"/>
<text text-anchor="middle" x="420.8408" y="-57.8" font-family="Times,serif" font-size="14.00" fill="#000000">category</text>
</g>
</g>
</svg>
