<?xml version="1.0" encoding="UTF-8" standalone="no"?>
<!DOCTYPE svg PUBLIC "-//W3C//DTD SVG 1.1//EN"
 "http://www.w3.org/Graphics/SVG/1.1/DTD/svg11.dtd">
<!-- Generated by graphviz version 2.40.1 (20161225.0304)
 -->
<!-- Title: %3 Pages: 1 -->
<svg width="1831pt" height="131pt"
 viewBox="0.00 0.00 1830.89 131.00" xmlns="http://www.w3.org/2000/svg" xmlns:xlink="http://www.w3.org/1999/xlink">
<g id="graph0" class="graph" transform="scale(1 1) rotate(0) translate(4 127)">
<title>%3</title>
<polygon fill="#ffffff" stroke="transparent" points="-4,4 -4,-127 1826.8881,-127 1826.8881,4 -4,4"/>
<!-- publication -->
<g id="node1" class="node">
<title>publication</title>
<ellipse fill="none" stroke="#000000" cx="1040.3408" cy="-105" rx="50.0912" ry="18"/>
<text text-anchor="middle" x="1040.3408" y="-101.3" font-family="Times,serif" font-size="14.00" fill="#000000">publication</text>
</g>
<!-- information content entity -->
<g id="node2" class="node">
<title>information content entity</title>
<ellipse fill="none" stroke="#000000" cx="103.3408" cy="-18" rx="103.1819" ry="18"/>
<text text-anchor="middle" x="103.3408" y="-14.3" font-family="Times,serif" font-size="14.00" fill="#000000">information content entity</text>
</g>
<!-- publication&#45;&gt;information content entity -->
<g id="edge1" class="edge">
<title>publication&#45;&gt;information content entity</title>
<path fill="none" stroke="#000000" d="M990.0393,-103.2626C854.3775,-98.4284 483.0202,-84.174 361.3408,-69 297.521,-61.0414 225.8218,-46.4004 174.2359,-34.8403"/>
<polygon fill="#000000" stroke="#000000" points="174.7206,-31.3617 164.1952,-32.5723 173.1782,-38.1897 174.7206,-31.3617"/>
<text text-anchor="middle" x="372.3408" y="-57.8" font-family="Times,serif" font-size="14.00" fill="#000000">is_a</text>
</g>
<!-- category -->
<g id="node3" class="node">
<title>category</title>
<ellipse fill="none" stroke="#0000ff" cx="283.3408" cy="-18" rx="58.4896" ry="18"/>
<text text-anchor="middle" x="283.3408" y="-14.3" font-family="Times,serif" font-size="14.00" fill="#000000">category type</text>
</g>
<!-- publication&#45;&gt;category -->
<g id="edge2" class="edge">
<title>publication&#45;&gt;category</title>
<path fill="none" stroke="#0000ff" d="M990.0561,-103.5211C866.4153,-99.6323 550.1101,-88.0848 446.3408,-69 405.9054,-61.5633 361.4543,-47.2211 329.1995,-35.6355"/>
<polygon fill="#0000ff" stroke="#0000ff" points="330.193,-32.2724 319.599,-32.1391 327.7975,-38.8498 330.193,-32.2724"/>
<text text-anchor="middle" x="469.8408" y="-57.8" font-family="Times,serif" font-size="14.00" fill="#000000">category</text>
</g>
<!-- iri -->
<g id="node4" class="node">
<title>iri</title>
<ellipse fill="none" stroke="#0000ff" cx="396.3408" cy="-18" rx="36.2938" ry="18"/>
<text text-anchor="middle" x="396.3408" y="-14.3" font-family="Times,serif" font-size="14.00" fill="#000000">iri type</text>
</g>
<!-- publication&#45;&gt;iri -->
<g id="edge3" class="edge">
<title>publication&#45;&gt;iri</title>
<path fill="none" stroke="#0000ff" d="M990.6433,-102.5C885.3461,-97.0012 642.7748,-83.2106 561.3408,-69 507.273,-59.5649 494.4092,-53.3561 442.3408,-36 439.595,-35.0847 436.7737,-34.0979 433.9445,-33.0744"/>
<polygon fill="#0000ff" stroke="#0000ff" points="434.9858,-29.7271 424.3933,-29.5033 432.5343,-36.2838 434.9858,-29.7271"/>
<text text-anchor="middle" x="567.8408" y="-57.8" font-family="Times,serif" font-size="14.00" fill="#000000">iri</text>
</g>
<!-- source -->
<g id="node5" class="node">
<title>source</title>
<ellipse fill="none" stroke="#0000ff" cx="496.3408" cy="-18" rx="45.4919" ry="18"/>
<text text-anchor="middle" x="496.3408" y="-14.3" font-family="Times,serif" font-size="14.00" fill="#000000">label type</text>
</g>
<!-- publication&#45;&gt;source -->
<g id="edge4" class="edge">
<title>publication&#45;&gt;source</title>
<path fill="none" stroke="#0000ff" d="M990.7552,-102.5008C896.2159,-97.4385 693.5309,-85.0749 625.3408,-69 593.6441,-61.5279 559.4399,-47.7198 534.2211,-36.3541"/>
<polygon fill="#0000ff" stroke="#0000ff" points="535.5686,-33.1216 525.0197,-32.1359 532.6515,-39.4848 535.5686,-33.1216"/>
<text text-anchor="middle" x="643.3408" y="-57.8" font-family="Times,serif" font-size="14.00" fill="#000000">source</text>
</g>
<!-- has attribute -->
<g id="node6" class="node">
<title>has attribute</title>
<ellipse fill="none" stroke="#0000ff" cx="600.3408" cy="-18" rx="40.0939" ry="18"/>
<text text-anchor="middle" x="600.3408" y="-14.3" font-family="Times,serif" font-size="14.00" fill="#000000">attribute</text>
</g>
<!-- publication&#45;&gt;has attribute -->
<g id="edge5" class="edge">
<title>publication&#45;&gt;has attribute</title>
<path fill="none" stroke="#0000ff" d="M990.8087,-101.9002C910.4041,-96.5037 755.152,-84.4654 702.3408,-69 677.7366,-61.7948 651.9254,-48.8298 632.4236,-37.7755"/>
<polygon fill="#0000ff" stroke="#0000ff" points="634.0696,-34.6841 623.6627,-32.6977 630.5594,-40.7404 634.0696,-34.6841"/>
<text text-anchor="middle" x="735.8408" y="-57.8" font-family="Times,serif" font-size="14.00" fill="#000000">has attribute</text>
</g>
<!-- description -->
<g id="node7" class="node">
<title>description</title>
<ellipse fill="none" stroke="#0000ff" cx="716.3408" cy="-18" rx="57.6901" ry="18"/>
<text text-anchor="middle" x="716.3408" y="-14.3" font-family="Times,serif" font-size="14.00" fill="#000000">narrative text</text>
</g>
<!-- publication&#45;&gt;description -->
<g id="edge6" class="edge">
<title>publication&#45;&gt;description</title>
<path fill="none" stroke="#0000ff" d="M990.6929,-102.5747C942.4486,-99.0178 867.6926,-90.2959 806.3408,-69 786.1563,-61.9937 765.2952,-50.4851 748.7455,-40.1719"/>
<polygon fill="#0000ff" stroke="#0000ff" points="750.3378,-37.036 740.0265,-34.6016 746.5691,-42.9349 750.3378,-37.036"/>
<text text-anchor="middle" x="836.8408" y="-57.8" font-family="Times,serif" font-size="14.00" fill="#000000">description</text>
</g>
<!-- license -->
<g id="node8" class="node">
<title>license</title>
<ellipse fill="none" stroke="#0000ff" cx="822.3408" cy="-18" rx="30.5947" ry="18"/>
<text text-anchor="middle" x="822.3408" y="-14.3" font-family="Times,serif" font-size="14.00" fill="#000000">string</text>
</g>
<!-- publication&#45;&gt;license -->
<g id="edge7" class="edge">
<title>publication&#45;&gt;license</title>
<path fill="none" stroke="#0000ff" d="M994.5413,-97.7104C965.7886,-92.1152 928.4045,-82.943 897.3408,-69 879.8533,-61.1507 862.038,-49.2341 848.161,-38.8934"/>
<polygon fill="#0000ff" stroke="#0000ff" points="850.1385,-35.9996 840.0676,-32.7089 845.8883,-41.5617 850.1385,-35.9996"/>
<text text-anchor="middle" x="916.3408" y="-57.8" font-family="Times,serif" font-size="14.00" fill="#000000">license</text>
</g>
<!-- rights -->
<g id="node9" class="node">
<title>rights</title>
<ellipse fill="none" stroke="#0000ff" cx="901.3408" cy="-18" rx="30.5947" ry="18"/>
<text text-anchor="middle" x="901.3408" y="-14.3" font-family="Times,serif" font-size="14.00" fill="#000000">string</text>
</g>
<!-- publication&#45;&gt;rights -->
<g id="edge8" class="edge">
<title>publication&#45;&gt;rights</title>
<path fill="none" stroke="#0000ff" d="M1004.3018,-92.382C989.2142,-86.3472 971.8496,-78.3812 957.3408,-69 945.3165,-61.2252 933.3895,-50.8373 923.6526,-41.4659"/>
<polygon fill="#0000ff" stroke="#0000ff" points="925.9215,-38.787 916.3532,-34.2375 920.996,-43.7609 925.9215,-38.787"/>
<text text-anchor="middle" x="972.8408" y="-57.8" font-family="Times,serif" font-size="14.00" fill="#000000">rights</text>
</g>
<!-- format -->
<g id="node10" class="node">
<title>format</title>
<ellipse fill="none" stroke="#0000ff" cx="980.3408" cy="-18" rx="30.5947" ry="18"/>
<text text-anchor="middle" x="980.3408" y="-14.3" font-family="Times,serif" font-size="14.00" fill="#000000">string</text>
</g>
<!-- publication&#45;&gt;format -->
<g id="edge9" class="edge">
<title>publication&#45;&gt;format</title>
<path fill="none" stroke="#0000ff" d="M1017.9353,-88.8047C1011.2638,-83.1329 1004.3937,-76.3317 999.3408,-69 994.5152,-61.998 990.7342,-53.6159 987.8599,-45.6895"/>
<polygon fill="#0000ff" stroke="#0000ff" points="991.1347,-44.4432 984.6935,-36.0312 984.483,-46.624 991.1347,-44.4432"/>
<text text-anchor="middle" x="1017.8408" y="-57.8" font-family="Times,serif" font-size="14.00" fill="#000000">format</text>
</g>
<!-- creation date -->
<g id="node11" class="node">
<title>creation date</title>
<ellipse fill="none" stroke="#0000ff" cx="1056.3408" cy="-18" rx="27" ry="18"/>
<text text-anchor="middle" x="1056.3408" y="-14.3" font-family="Times,serif" font-size="14.00" fill="#000000">date</text>
</g>
<!-- publication&#45;&gt;creation date -->
<g id="edge10" class="edge">
<title>publication&#45;&gt;creation date</title>
<path fill="none" stroke="#0000ff" d="M1039.0624,-86.8765C1038.7766,-77.0478 1039.0818,-64.7464 1041.3408,-54 1041.9885,-50.9189 1042.8958,-47.7694 1043.947,-44.6779"/>
<polygon fill="#0000ff" stroke="#0000ff" points="1047.288,-45.7436 1047.6539,-35.1551 1040.7647,-43.2043 1047.288,-45.7436"/>
<text text-anchor="middle" x="1076.3408" y="-57.8" font-family="Times,serif" font-size="14.00" fill="#000000">creation date</text>
</g>
<!-- type -->
<g id="node12" class="node">
<title>type</title>
<ellipse fill="none" stroke="#000000" cx="1128.3408" cy="-18" rx="27" ry="18"/>
<text text-anchor="middle" x="1128.3408" y="-14.3" font-family="Times,serif" font-size="14.00" fill="#000000">type</text>
</g>
<!-- publication&#45;&gt;type -->
<g id="edge11" class="edge">
<title>publication&#45;&gt;type</title>
<path fill="none" stroke="#0000ff" d="M1077.6166,-92.6787C1089.7627,-87.0927 1102.4053,-79.3614 1111.3408,-69 1116.9123,-62.5395 1120.6724,-54.1906 1123.2044,-46.1255"/>
<polygon fill="#0000ff" stroke="#0000ff" points="1126.6495,-46.7855 1125.7986,-36.2249 1119.8781,-45.0111 1126.6495,-46.7855"/>
<text text-anchor="middle" x="1132.3408" y="-57.8" font-family="Times,serif" font-size="14.00" fill="#000000">type</text>
</g>
<!-- authors -->
<g id="node14" class="node">
<title>authors</title>
<ellipse fill="none" stroke="#0000ff" cx="1204.3408" cy="-18" rx="30.5947" ry="18"/>
<text text-anchor="middle" x="1204.3408" y="-14.3" font-family="Times,serif" font-size="14.00" fill="#000000">string</text>
</g>
<!-- publication&#45;&gt;authors -->
<g id="edge12" class="edge">
<title>publication&#45;&gt;authors</title>
<path fill="none" stroke="#0000ff" d="M1078.4192,-93.1591C1106.9212,-84.1526 1142.0322,-72.6983 1148.3408,-69 1160.8727,-61.6536 1173.0167,-51.1507 1182.7742,-41.5836"/>
<polygon fill="#0000ff" stroke="#0000ff" points="1185.5306,-43.7725 1190.0496,-34.1897 1180.541,-38.8629 1185.5306,-43.7725"/>
<text text-anchor="middle" x="1189.3408" y="-57.8" font-family="Times,serif" font-size="14.00" fill="#000000">authors</text>
</g>
<!-- pages -->
<g id="node15" class="node">
<title>pages</title>
<ellipse fill="none" stroke="#000000" cx="1283.3408" cy="-18" rx="30.5947" ry="18"/>
<text text-anchor="middle" x="1283.3408" y="-14.3" font-family="Times,serif" font-size="14.00" fill="#000000">pages</text>
</g>
<!-- publication&#45;&gt;pages -->
<g id="edge13" class="edge">
<title>publication&#45;&gt;pages</title>
<path fill="none" stroke="#0000ff" d="M1077.5823,-92.7796C1084.7551,-90.6705 1092.2444,-88.6344 1099.3408,-87 1149.3267,-75.488 1165.9594,-88.6496 1213.3408,-69 1229.9753,-62.1015 1246.3662,-50.4954 1259.1007,-40.0963"/>
<polygon fill="#0000ff" stroke="#0000ff" points="1261.5288,-42.6269 1266.9069,-33.4985 1257.0101,-37.2806 1261.5288,-42.6269"/>
<text text-anchor="middle" x="1255.8408" y="-57.8" font-family="Times,serif" font-size="14.00" fill="#000000">pages</text>
</g>
<!-- summary -->
<g id="node17" class="node">
<title>summary</title>
<ellipse fill="none" stroke="#0000ff" cx="1362.3408" cy="-18" rx="30.5947" ry="18"/>
<text text-anchor="middle" x="1362.3408" y="-14.3" font-family="Times,serif" font-size="14.00" fill="#000000">string</text>
</g>
<!-- publication&#45;&gt;summary -->
<g id="edge14" class="edge">
<title>publication&#45;&gt;summary</title>
<path fill="none" stroke="#0000ff" d="M1076.8818,-92.6486C1084.2513,-90.4995 1091.9924,-88.4821 1099.3408,-87 1176.419,-71.4544 1200.6055,-93.4407 1275.3408,-69 1296.6827,-62.0206 1318.476,-49.2344 1334.9122,-38.2112"/>
<polygon fill="#0000ff" stroke="#0000ff" points="1337.2121,-40.8766 1343.4553,-32.3166 1333.2367,-35.1149 1337.2121,-40.8766"/>
<text text-anchor="middle" x="1334.3408" y="-57.8" font-family="Times,serif" font-size="14.00" fill="#000000">summary</text>
</g>
<!-- keywords -->
<g id="node18" class="node">
<title>keywords</title>
<ellipse fill="none" stroke="#0000ff" cx="1441.3408" cy="-18" rx="30.5947" ry="18"/>
<text text-anchor="middle" x="1441.3408" y="-14.3" font-family="Times,serif" font-size="14.00" fill="#000000">string</text>
</g>
<!-- publication&#45;&gt;keywords -->
<g id="edge15" class="edge">
<title>publication&#45;&gt;keywords</title>
<path fill="none" stroke="#0000ff" d="M1076.5277,-92.5414C1083.9946,-90.3733 1091.8629,-88.376 1099.3408,-87 1215.4409,-65.6372 1252.5247,-106.8518 1364.3408,-69 1383.3848,-62.5532 1402.2462,-50.1864 1416.535,-39.2454"/>
<polygon fill="#0000ff" stroke="#0000ff" points="1418.7225,-41.9777 1424.3865,-33.0239 1414.3751,-36.4914 1418.7225,-41.9777"/>
<text text-anchor="middle" x="1420.8408" y="-57.8" font-family="Times,serif" font-size="14.00" fill="#000000">keywords</text>
</g>
<!-- mesh terms -->
<g id="node19" class="node">
<title>mesh terms</title>
<ellipse fill="none" stroke="#0000ff" cx="1535.3408" cy="-18" rx="45.4919" ry="18"/>
<text text-anchor="middle" x="1535.3408" y="-14.3" font-family="Times,serif" font-size="14.00" fill="#000000">uriorcurie</text>
</g>
<!-- publication&#45;&gt;mesh terms -->
<g id="edge16" class="edge">
<title>publication&#45;&gt;mesh terms</title>
<path fill="none" stroke="#0000ff" d="M1076.5101,-92.4433C1083.9783,-90.2828 1091.8516,-88.3134 1099.3408,-87 1176.4879,-73.4708 1376.4771,-92.0247 1451.3408,-69 1471.1066,-62.9209 1490.9864,-51.1651 1506.4411,-40.4711"/>
<polygon fill="#0000ff" stroke="#0000ff" points="1508.9006,-43.0148 1514.9949,-34.3482 1504.8262,-37.3228 1508.9006,-43.0148"/>
<text text-anchor="middle" x="1515.3408" y="-57.8" font-family="Times,serif" font-size="14.00" fill="#000000">mesh terms</text>
</g>
<!-- xref -->
<g id="node20" class="node">
<title>xref</title>
<ellipse fill="none" stroke="#0000ff" cx="1635.3408" cy="-18" rx="36.2938" ry="18"/>
<text text-anchor="middle" x="1635.3408" y="-14.3" font-family="Times,serif" font-size="14.00" fill="#000000">iri type</text>
</g>
<!-- publication&#45;&gt;xref -->
<g id="edge17" class="edge">
<title>publication&#45;&gt;xref</title>
<path fill="none" stroke="#0000ff" d="M1076.4986,-92.3771C1083.9678,-90.2217 1091.8443,-88.2711 1099.3408,-87 1198.4503,-70.1954 1455.0931,-98.0078 1551.3408,-69 1571.877,-62.8107 1592.5011,-50.4008 1608.1742,-39.3727"/>
<polygon fill="#0000ff" stroke="#0000ff" points="1610.3095,-42.1475 1616.34,-33.4364 1606.1934,-36.4855 1610.3095,-42.1475"/>
<text text-anchor="middle" x="1594.3408" y="-57.8" font-family="Times,serif" font-size="14.00" fill="#000000">xref</text>
</g>
<!-- id -->
<g id="node21" class="node">
<title>id</title>
<ellipse fill="none" stroke="#000000" cx="1716.3408" cy="-18" rx="27" ry="18"/>
<text text-anchor="middle" x="1716.3408" y="-14.3" font-family="Times,serif" font-size="14.00" fill="#000000">id</text>
</g>
<!-- publication&#45;&gt;id -->
<g id="edge18" class="edge">
<title>publication&#45;&gt;id</title>
<path fill="none" stroke="#0000ff" d="M1076.4942,-92.3505C1083.9637,-90.1971 1091.8415,-88.2541 1099.3408,-87 1211.1915,-68.2951 1499.0587,-95.4253 1609.3408,-69 1637.5814,-62.2331 1667.2008,-47.4295 1688.0977,-35.5057"/>
<polygon fill="#0000ff" stroke="#0000ff" points="1689.9022,-38.505 1696.769,-30.4367 1686.3695,-32.4618 1689.9022,-38.505"/>
<text text-anchor="middle" x="1654.8408" y="-57.8" font-family="Times,serif" font-size="14.00" fill="#000000">id</text>
</g>
<!-- name -->
<g id="node23" class="node">
<title>name</title>
<ellipse fill="none" stroke="#000000" cx="1792.3408" cy="-18" rx="30.5947" ry="18"/>
<text text-anchor="middle" x="1792.3408" y="-14.3" font-family="Times,serif" font-size="14.00" fill="#000000">name</text>
</g>
<!-- publication&#45;&gt;name -->
<g id="edge19" class="edge">
<title>publication&#45;&gt;name</title>
<path fill="none" stroke="#0000ff" d="M1076.1754,-92.4214C1083.7386,-90.2333 1091.7337,-88.2587 1099.3408,-87 1347.209,-45.9859 1417.8789,-117.7578 1664.3408,-69 1698.4661,-62.249 1735.1251,-46.7109 1760.4275,-34.5472"/>
<polygon fill="#0000ff" stroke="#0000ff" points="1762.1042,-37.6232 1769.5399,-30.076 1759.0206,-31.339 1762.1042,-37.6232"/>
<text text-anchor="middle" x="1730.8408" y="-57.8" font-family="Times,serif" font-size="14.00" fill="#000000">name</text>
</g>
<!-- publication_type -->
<g id="node13" class="node">
<title>publication_type</title>
<ellipse fill="none" stroke="#0000ff" cx="1139.3408" cy="-105" rx="30.5947" ry="18"/>
<text text-anchor="middle" x="1139.3408" y="-101.3" font-family="Times,serif" font-size="14.00" fill="#000000">string</text>
</g>
<!-- publication_pages -->
<g id="node16" class="node">
<title>publication_pages</title>
<ellipse fill="none" stroke="#0000ff" cx="1218.3408" cy="-105" rx="30.5947" ry="18"/>
<text text-anchor="middle" x="1218.3408" y="-101.3" font-family="Times,serif" font-size="14.00" fill="#000000">string</text>
</g>
<!-- publication_id -->
<g id="node22" class="node">
<title>publication_id</title>
<ellipse fill="none" stroke="#0000ff" cx="1297.3408" cy="-105" rx="30.5947" ry="18"/>
<text text-anchor="middle" x="1297.3408" y="-101.3" font-family="Times,serif" font-size="14.00" fill="#000000">string</text>
</g>
<!-- publication_name -->
<g id="node24" class="node">
<title>publication_name</title>
<ellipse fill="none" stroke="#0000ff" cx="1391.3408" cy="-105" rx="45.4919" ry="18"/>
<text text-anchor="middle" x="1391.3408" y="-101.3" font-family="Times,serif" font-size="14.00" fill="#000000">label type</text>
</g>
</g>
</svg>
