<?xml version="1.0" encoding="UTF-8" standalone="no"?>
<!DOCTYPE svg PUBLIC "-//W3C//DTD SVG 1.1//EN"
 "http://www.w3.org/Graphics/SVG/1.1/DTD/svg11.dtd">
<!-- Generated by graphviz version 2.43.0 (0)
 -->
<!-- Title: %3 Pages: 1 -->
<svg width="333pt" height="130pt"
 viewBox="0.00 0.00 332.80 130.00" xmlns="http://www.w3.org/2000/svg" xmlns:xlink="http://www.w3.org/1999/xlink">
<g id="graph0" class="graph" transform="scale(1 1) rotate(0) translate(4 126)">
<title>%3</title>
<polygon fill="white" stroke="transparent" points="-4,4 -4,-126 328.8,-126 328.8,4 -4,4"/>
<!-- quantity value -->
<g id="node1" class="node">
<title>quantity value</title>
<ellipse fill="none" stroke="black" cx="164.95" cy="-104" rx="60.4" ry="18"/>
<text text-anchor="middle" x="164.95" y="-99.8" font-family="Times,serif" font-size="14.00">quantity value</text>
</g>
<!-- abstract entity -->
<g id="node2" class="node">
<title>abstract entity</title>
<ellipse fill="none" stroke="black" cx="59.95" cy="-18" rx="59.91" ry="18"/>
<text text-anchor="middle" x="59.95" y="-13.8" font-family="Times,serif" font-size="14.00">abstract entity</text>
</g>
<!-- quantity value&#45;&gt;abstract entity -->
<g id="edge1" class="edge">
<title>quantity value&#45;&gt;abstract entity</title>
<path fill="none" stroke="black" d="M144.71,-86.8C128.59,-73.9 105.84,-55.7 87.96,-41.41"/>
<polygon fill="black" stroke="black" points="90.13,-38.66 80.14,-35.15 85.76,-44.13 90.13,-38.66"/>
<text text-anchor="middle" x="130.23" y="-56.8" font-family="Times,serif" font-size="14.00">is_a</text>
</g>
<!-- has unit -->
<g id="node3" class="node">
<title>has unit</title>
<ellipse fill="none" stroke="blue" cx="164.95" cy="-18" rx="27" ry="18"/>
<text text-anchor="middle" x="164.95" y="-13.8" font-family="Times,serif" font-size="14.00">unit</text>
</g>
<!-- quantity value&#45;&gt;has unit -->
<g id="edge2" class="edge">
<title>quantity value&#45;&gt;has unit</title>
<path fill="none" stroke="blue" d="M164.95,-85.6C164.95,-74.26 164.95,-59.23 164.95,-46.32"/>
<polygon fill="blue" stroke="blue" points="168.46,-46.1 164.95,-36.1 161.46,-46.1 168.46,-46.1"/>
<text text-anchor="middle" x="186.93" y="-56.8" font-family="Times,serif" font-size="14.00">has unit</text>
</g>
<!-- has numeric value -->
<g id="node4" class="node">
<title>has numeric value</title>
<ellipse fill="none" stroke="blue" cx="243.95" cy="-18" rx="34.35" ry="18"/>
<text text-anchor="middle" x="243.95" y="-13.8" font-family="Times,serif" font-size="14.00">double</text>
</g>
<!-- quantity value&#45;&gt;has numeric value -->
<g id="edge3" class="edge">
<title>quantity value&#45;&gt;has numeric value</title>
<path fill="none" stroke="blue" d="M189.84,-87.54C197.75,-81.96 206.19,-75.23 212.95,-68 219.55,-60.95 225.56,-52.31 230.49,-44.25"/>
<polygon fill="blue" stroke="blue" points="233.56,-45.93 235.57,-35.52 227.52,-42.4 233.56,-45.93"/>
<text text-anchor="middle" x="273.88" y="-56.8" font-family="Times,serif" font-size="14.00">has numeric value</text>
</g>
</g>
</svg>
