<?xml version="1.0" encoding="UTF-8" standalone="no"?>
<!DOCTYPE svg PUBLIC "-//W3C//DTD SVG 1.1//EN"
 "http://www.w3.org/Graphics/SVG/1.1/DTD/svg11.dtd">
<!-- Generated by graphviz version 2.43.0 (0)
 -->
<!-- Title: %3 Pages: 1 -->
<svg width="3853pt" height="291pt"
 viewBox="0.00 0.00 3852.68 291.00" xmlns="http://www.w3.org/2000/svg" xmlns:xlink="http://www.w3.org/1999/xlink">
<g id="graph0" class="graph" transform="scale(1 1) rotate(0) translate(4 287)">
<title>%3</title>
<polygon fill="white" stroke="transparent" points="-4,4 -4,-287 3848.68,-287 3848.68,4 -4,4"/>
<!-- reaction to participant association -->
<g id="node1" class="node">
<title>reaction to participant association</title>
<ellipse fill="none" stroke="black" cx="2012.49" cy="-265" rx="169.77" ry="18"/>
<text text-anchor="middle" x="2012.49" y="-261.3" font-family="Times,serif" font-size="14.00">reaction to participant association</text>
</g>
<!-- chemical to chemical association -->
<g id="node2" class="node">
<title>chemical to chemical association</title>
<ellipse fill="none" stroke="black" cx="162.49" cy="-178" rx="162.47" ry="18"/>
<text text-anchor="middle" x="162.49" y="-174.3" font-family="Times,serif" font-size="14.00">chemical to chemical association</text>
</g>
<!-- reaction to participant association&#45;&gt;chemical to chemical association -->
<g id="edge1" class="edge">
<title>reaction to participant association&#45;&gt;chemical to chemical association</title>
<path fill="none" stroke="black" d="M1843.55,-263.14C1500.11,-260.91 730.8,-253.28 468.49,-229 392.96,-222.01 307.87,-207.57 246.63,-195.99"/>
<polygon fill="black" stroke="black" points="247.1,-192.52 236.63,-194.09 245.79,-199.4 247.1,-192.52"/>
<text text-anchor="middle" x="482.49" y="-217.8" font-family="Times,serif" font-size="14.00">is_a</text>
</g>
<!-- id -->
<g id="node3" class="node">
<title>id</title>
<ellipse fill="none" stroke="blue" cx="381.49" cy="-178" rx="38.19" ry="18"/>
<text text-anchor="middle" x="381.49" y="-174.3" font-family="Times,serif" font-size="14.00">string</text>
</g>
<!-- reaction to participant association&#45;&gt;id -->
<g id="edge2" class="edge">
<title>reaction to participant association&#45;&gt;id</title>
<path fill="none" stroke="blue" d="M1843.35,-263.51C1521.22,-261.98 830.65,-255.58 593.49,-229 519.6,-220.72 501.15,-215.79 429.49,-196 426.38,-195.14 423.18,-194.18 419.98,-193.17"/>
<polygon fill="blue" stroke="blue" points="421.06,-189.84 410.47,-190.01 418.85,-196.48 421.06,-189.84"/>
<text text-anchor="middle" x="600.49" y="-217.8" font-family="Times,serif" font-size="14.00">id</text>
</g>
<!-- iri -->
<g id="node4" class="node">
<title>iri</title>
<ellipse fill="none" stroke="blue" cx="482.49" cy="-178" rx="44.39" ry="18"/>
<text text-anchor="middle" x="482.49" y="-174.3" font-family="Times,serif" font-size="14.00">iri type</text>
</g>
<!-- reaction to participant association&#45;&gt;iri -->
<g id="edge3" class="edge">
<title>reaction to participant association&#45;&gt;iri</title>
<path fill="none" stroke="blue" d="M1844.07,-262.79C1543.44,-260.07 925.84,-251.83 711.49,-229 632.35,-220.57 612.64,-215.53 535.49,-196 532.06,-195.13 528.52,-194.16 524.99,-193.14"/>
<polygon fill="blue" stroke="blue" points="525.68,-189.7 515.1,-190.17 523.66,-196.4 525.68,-189.7"/>
<text text-anchor="middle" x="719.49" y="-217.8" font-family="Times,serif" font-size="14.00">iri</text>
</g>
<!-- name -->
<g id="node5" class="node">
<title>name</title>
<ellipse fill="none" stroke="blue" cx="601.49" cy="-178" rx="56.59" ry="18"/>
<text text-anchor="middle" x="601.49" y="-174.3" font-family="Times,serif" font-size="14.00">label type</text>
</g>
<!-- reaction to participant association&#45;&gt;name -->
<g id="edge4" class="edge">
<title>reaction to participant association&#45;&gt;name</title>
<path fill="none" stroke="blue" d="M1843.76,-263.13C1561.79,-260.99 1006.64,-253.69 812.49,-229 756.3,-221.86 693.29,-205.84 650.87,-193.85"/>
<polygon fill="blue" stroke="blue" points="651.66,-190.43 641.08,-191.05 649.73,-197.16 651.66,-190.43"/>
<text text-anchor="middle" x="832.49" y="-217.8" font-family="Times,serif" font-size="14.00">name</text>
</g>
<!-- description -->
<g id="node6" class="node">
<title>description</title>
<ellipse fill="none" stroke="blue" cx="751.49" cy="-178" rx="75.29" ry="18"/>
<text text-anchor="middle" x="751.49" y="-174.3" font-family="Times,serif" font-size="14.00">narrative text</text>
</g>
<!-- reaction to participant association&#45;&gt;description -->
<g id="edge5" class="edge">
<title>reaction to participant association&#45;&gt;description</title>
<path fill="none" stroke="blue" d="M1843.14,-263.77C1582.34,-262.53 1094.5,-256.46 922.49,-229 880.37,-222.28 834.01,-208.29 800.2,-196.82"/>
<polygon fill="blue" stroke="blue" points="801.17,-193.45 790.57,-193.5 798.89,-200.07 801.17,-193.45"/>
<text text-anchor="middle" x="962.99" y="-217.8" font-family="Times,serif" font-size="14.00">description</text>
</g>
<!-- has attribute -->
<g id="node7" class="node">
<title>has attribute</title>
<ellipse fill="none" stroke="blue" cx="896.49" cy="-178" rx="51.99" ry="18"/>
<text text-anchor="middle" x="896.49" y="-174.3" font-family="Times,serif" font-size="14.00">attribute</text>
</g>
<!-- reaction to participant association&#45;&gt;has attribute -->
<g id="edge6" class="edge">
<title>reaction to participant association&#45;&gt;has attribute</title>
<path fill="none" stroke="blue" d="M1843.97,-262.64C1614.11,-259.94 1214.41,-252 1070.49,-229 1025.43,-221.8 975.52,-206.69 940.75,-194.95"/>
<polygon fill="blue" stroke="blue" points="941.51,-191.51 930.92,-191.59 939.24,-198.13 941.51,-191.51"/>
<text text-anchor="middle" x="1117.49" y="-217.8" font-family="Times,serif" font-size="14.00">has attribute</text>
</g>
<!-- predicate -->
<g id="node8" class="node">
<title>predicate</title>
<ellipse fill="none" stroke="blue" cx="1044.49" cy="-178" rx="77.99" ry="18"/>
<text text-anchor="middle" x="1044.49" y="-174.3" font-family="Times,serif" font-size="14.00">predicate type</text>
</g>
<!-- reaction to participant association&#45;&gt;predicate -->
<g id="edge7" class="edge">
<title>reaction to participant association&#45;&gt;predicate</title>
<path fill="none" stroke="blue" d="M1847.83,-260.55C1656.22,-255.83 1351.64,-245.95 1238.49,-229 1190.33,-221.79 1136.83,-207.51 1098.23,-196.05"/>
<polygon fill="blue" stroke="blue" points="1098.84,-192.58 1088.25,-193.06 1096.82,-199.29 1098.84,-192.58"/>
<text text-anchor="middle" x="1272.49" y="-217.8" font-family="Times,serif" font-size="14.00">predicate</text>
</g>
<!-- negated -->
<g id="node9" class="node">
<title>negated</title>
<ellipse fill="none" stroke="blue" cx="1187.49" cy="-178" rx="46.59" ry="18"/>
<text text-anchor="middle" x="1187.49" y="-174.3" font-family="Times,serif" font-size="14.00">boolean</text>
</g>
<!-- reaction to participant association&#45;&gt;negated -->
<g id="edge8" class="edge">
<title>reaction to participant association&#45;&gt;negated</title>
<path fill="none" stroke="blue" d="M1843.73,-262.96C1715.73,-260.17 1535.75,-251.95 1379.49,-229 1327.87,-221.42 1270.12,-205.31 1231.56,-193.41"/>
<polygon fill="blue" stroke="blue" points="1232.29,-189.97 1221.7,-190.33 1230.21,-196.65 1232.29,-189.97"/>
<text text-anchor="middle" x="1408.49" y="-217.8" font-family="Times,serif" font-size="14.00">negated</text>
</g>
<!-- qualifiers -->
<g id="node10" class="node">
<title>qualifiers</title>
<ellipse fill="none" stroke="blue" cx="1328.49" cy="-178" rx="76.89" ry="18"/>
<text text-anchor="middle" x="1328.49" y="-174.3" font-family="Times,serif" font-size="14.00">ontology class</text>
</g>
<!-- reaction to participant association&#45;&gt;qualifiers -->
<g id="edge9" class="edge">
<title>reaction to participant association&#45;&gt;qualifiers</title>
<path fill="none" stroke="blue" d="M1846.48,-261.16C1746.97,-257.33 1618.27,-248.61 1505.49,-229 1462.21,-221.48 1414.33,-207.6 1379.29,-196.37"/>
<polygon fill="blue" stroke="blue" points="1380.36,-193.04 1369.77,-193.28 1378.2,-199.7 1380.36,-193.04"/>
<text text-anchor="middle" x="1538.99" y="-217.8" font-family="Times,serif" font-size="14.00">qualifiers</text>
</g>
<!-- publications -->
<g id="node11" class="node">
<title>publications</title>
<ellipse fill="none" stroke="blue" cx="1485.49" cy="-178" rx="62.29" ry="18"/>
<text text-anchor="middle" x="1485.49" y="-174.3" font-family="Times,serif" font-size="14.00">publication</text>
</g>
<!-- reaction to participant association&#45;&gt;publications -->
<g id="edge10" class="edge">
<title>reaction to participant association&#45;&gt;publications</title>
<path fill="none" stroke="blue" d="M1854.69,-258.36C1784.79,-253.62 1701.92,-244.93 1628.49,-229 1594,-221.52 1556.38,-208.14 1528.38,-197.11"/>
<polygon fill="blue" stroke="blue" points="1529.49,-193.78 1518.9,-193.32 1526.89,-200.28 1529.49,-193.78"/>
<text text-anchor="middle" x="1672.49" y="-217.8" font-family="Times,serif" font-size="14.00">publications</text>
</g>
<!-- has evidence -->
<g id="node12" class="node">
<title>has evidence</title>
<ellipse fill="none" stroke="blue" cx="1641.49" cy="-178" rx="75.29" ry="18"/>
<text text-anchor="middle" x="1641.49" y="-174.3" font-family="Times,serif" font-size="14.00">evidence type</text>
</g>
<!-- reaction to participant association&#45;&gt;has evidence -->
<g id="edge11" class="edge">
<title>reaction to participant association&#45;&gt;has evidence</title>
<path fill="none" stroke="blue" d="M1889.75,-252.57C1849.72,-247.27 1805.33,-239.69 1765.49,-229 1737.11,-221.39 1706.48,-209.08 1682.77,-198.58"/>
<polygon fill="blue" stroke="blue" points="1683.94,-195.27 1673.38,-194.37 1681.07,-201.66 1683.94,-195.27"/>
<text text-anchor="middle" x="1811.99" y="-217.8" font-family="Times,serif" font-size="14.00">has evidence</text>
</g>
<!-- knowledge source -->
<g id="node13" class="node">
<title>knowledge source</title>
<ellipse fill="none" stroke="blue" cx="1843.49" cy="-178" rx="108.58" ry="18"/>
<text text-anchor="middle" x="1843.49" y="-174.3" font-family="Times,serif" font-size="14.00">information resource</text>
</g>
<!-- reaction to participant association&#45;&gt;knowledge source -->
<g id="edge12" class="edge">
<title>reaction to participant association&#45;&gt;knowledge source</title>
<path fill="none" stroke="blue" d="M1919.53,-249.88C1904.27,-244.89 1889.29,-238.13 1876.49,-229 1867.94,-222.9 1861,-213.84 1855.73,-205.1"/>
<polygon fill="blue" stroke="blue" points="1858.74,-203.31 1850.85,-196.24 1852.61,-206.69 1858.74,-203.31"/>
<text text-anchor="middle" x="1940.99" y="-217.8" font-family="Times,serif" font-size="14.00">knowledge source</text>
</g>
<!-- primary knowledge source -->
<g id="node14" class="node">
<title>primary knowledge source</title>
<ellipse fill="none" stroke="blue" cx="2078.49" cy="-178" rx="108.58" ry="18"/>
<text text-anchor="middle" x="2078.49" y="-174.3" font-family="Times,serif" font-size="14.00">information resource</text>
</g>
<!-- reaction to participant association&#45;&gt;primary knowledge source -->
<g id="edge13" class="edge">
<title>reaction to participant association&#45;&gt;primary knowledge source</title>
<path fill="none" stroke="blue" d="M2008.7,-246.59C2007.44,-236.37 2007.6,-223.63 2013.49,-214 2016.65,-208.82 2020.88,-204.35 2025.66,-200.52"/>
<polygon fill="blue" stroke="blue" points="2027.91,-203.22 2034.14,-194.65 2023.92,-197.46 2027.91,-203.22"/>
<text text-anchor="middle" x="2108.49" y="-217.8" font-family="Times,serif" font-size="14.00">primary knowledge source</text>
</g>
<!-- aggregator knowledge source -->
<g id="node15" class="node">
<title>aggregator knowledge source</title>
<ellipse fill="none" stroke="blue" cx="2313.49" cy="-178" rx="108.58" ry="18"/>
<text text-anchor="middle" x="2313.49" y="-174.3" font-family="Times,serif" font-size="14.00">information resource</text>
</g>
<!-- reaction to participant association&#45;&gt;aggregator knowledge source -->
<g id="edge14" class="edge">
<title>reaction to participant association&#45;&gt;aggregator knowledge source</title>
<path fill="none" stroke="blue" d="M2123.42,-251.34C2150.21,-246.2 2178.36,-239.02 2203.49,-229 2214.82,-224.48 2215.66,-219.64 2226.49,-214 2237.2,-208.42 2249.02,-203.13 2260.39,-198.44"/>
<polygon fill="blue" stroke="blue" points="2261.85,-201.62 2269.81,-194.64 2259.23,-195.13 2261.85,-201.62"/>
<text text-anchor="middle" x="2332.99" y="-217.8" font-family="Times,serif" font-size="14.00">aggregator knowledge source</text>
</g>
<!-- timepoint -->
<g id="node16" class="node">
<title>timepoint</title>
<ellipse fill="none" stroke="blue" cx="2495.49" cy="-178" rx="55.49" ry="18"/>
<text text-anchor="middle" x="2495.49" y="-174.3" font-family="Times,serif" font-size="14.00">time type</text>
</g>
<!-- reaction to participant association&#45;&gt;timepoint -->
<g id="edge15" class="edge">
<title>reaction to participant association&#45;&gt;timepoint</title>
<path fill="none" stroke="blue" d="M2132.33,-252.25C2152.08,-250.42 2172.35,-248.6 2191.49,-247 2246.55,-242.39 2388.61,-250.55 2439.49,-229 2446.92,-225.85 2460.27,-214.04 2472.07,-202.69"/>
<polygon fill="blue" stroke="blue" points="2474.83,-204.89 2479.52,-195.4 2469.93,-199.89 2474.83,-204.89"/>
<text text-anchor="middle" x="2495.49" y="-217.8" font-family="Times,serif" font-size="14.00">timepoint</text>
</g>
<!-- original subject -->
<g id="node17" class="node">
<title>original subject</title>
<ellipse fill="none" stroke="blue" cx="2607.49" cy="-178" rx="38.19" ry="18"/>
<text text-anchor="middle" x="2607.49" y="-174.3" font-family="Times,serif" font-size="14.00">string</text>
</g>
<!-- reaction to participant association&#45;&gt;original subject -->
<g id="edge16" class="edge">
<title>reaction to participant association&#45;&gt;original subject</title>
<path fill="none" stroke="blue" d="M2130.86,-252.05C2151.07,-250.21 2171.87,-248.45 2191.49,-247 2267.16,-241.41 2460.46,-252.9 2532.49,-229 2533.83,-228.56 2557.51,-212.71 2577.91,-198.98"/>
<polygon fill="blue" stroke="blue" points="2580.04,-201.76 2586.37,-193.27 2576.12,-195.96 2580.04,-201.76"/>
<text text-anchor="middle" x="2610.49" y="-217.8" font-family="Times,serif" font-size="14.00">original subject</text>
</g>
<!-- original predicate -->
<g id="node18" class="node">
<title>original predicate</title>
<ellipse fill="none" stroke="blue" cx="2721.49" cy="-178" rx="57.39" ry="18"/>
<text text-anchor="middle" x="2721.49" y="-174.3" font-family="Times,serif" font-size="14.00">uriorcurie</text>
</g>
<!-- reaction to participant association&#45;&gt;original predicate -->
<g id="edge17" class="edge">
<title>reaction to participant association&#45;&gt;original predicate</title>
<path fill="none" stroke="blue" d="M2129.4,-251.93C2150.07,-250.07 2171.4,-248.33 2191.49,-247 2244.3,-243.5 2618.58,-249.24 2667.49,-229 2674.8,-225.97 2687.68,-214.17 2699.02,-202.79"/>
<polygon fill="blue" stroke="blue" points="2701.69,-205.07 2706.18,-195.47 2696.69,-200.17 2701.69,-205.07"/>
<text text-anchor="middle" x="2750.99" y="-217.8" font-family="Times,serif" font-size="14.00">original predicate</text>
</g>
<!-- original object -->
<g id="node19" class="node">
<title>original object</title>
<ellipse fill="none" stroke="blue" cx="2835.49" cy="-178" rx="38.19" ry="18"/>
<text text-anchor="middle" x="2835.49" y="-174.3" font-family="Times,serif" font-size="14.00">string</text>
</g>
<!-- reaction to participant association&#45;&gt;original object -->
<g id="edge18" class="edge">
<title>reaction to participant association&#45;&gt;original object</title>
<path fill="none" stroke="blue" d="M2128.91,-251.82C2149.73,-249.96 2171.23,-248.25 2191.49,-247 2226.21,-244.85 2789.31,-249.41 2817.49,-229 2824.9,-223.63 2829.27,-214.92 2831.84,-206.26"/>
<polygon fill="blue" stroke="blue" points="2835.3,-206.84 2834.11,-196.32 2828.47,-205.28 2835.3,-206.84"/>
<text text-anchor="middle" x="2880.99" y="-217.8" font-family="Times,serif" font-size="14.00">original object</text>
</g>
<!-- type -->
<g id="node20" class="node">
<title>type</title>
<ellipse fill="none" stroke="black" cx="2923.49" cy="-178" rx="31.4" ry="18"/>
<text text-anchor="middle" x="2923.49" y="-174.3" font-family="Times,serif" font-size="14.00">type</text>
</g>
<!-- reaction to participant association&#45;&gt;type -->
<g id="edge19" class="edge">
<title>reaction to participant association&#45;&gt;type</title>
<path fill="none" stroke="blue" d="M2128.42,-251.79C2149.39,-249.92 2171.08,-248.21 2191.49,-247 2212.15,-245.77 2922.03,-243.81 2936.49,-229 2942.93,-222.4 2942.1,-213.04 2938.8,-204.2"/>
<polygon fill="blue" stroke="blue" points="2941.89,-202.53 2934.48,-194.96 2935.55,-205.5 2941.89,-202.53"/>
<text text-anchor="middle" x="2957.49" y="-217.8" font-family="Times,serif" font-size="14.00">type</text>
</g>
<!-- category -->
<g id="node22" class="node">
<title>category</title>
<ellipse fill="none" stroke="black" cx="3024.49" cy="-178" rx="51.19" ry="18"/>
<text text-anchor="middle" x="3024.49" y="-174.3" font-family="Times,serif" font-size="14.00">category</text>
</g>
<!-- reaction to participant association&#45;&gt;category -->
<g id="edge20" class="edge">
<title>reaction to participant association&#45;&gt;category</title>
<path fill="none" stroke="blue" d="M2127.94,-251.81C2149.06,-249.93 2170.92,-248.21 2191.49,-247 2235.09,-244.43 2937.6,-246.79 2977.49,-229 2989.56,-223.62 2999.99,-213.51 3007.94,-203.78"/>
<polygon fill="blue" stroke="blue" points="3010.74,-205.89 3014.02,-195.81 3005.17,-201.64 3010.74,-205.89"/>
<text text-anchor="middle" x="3030.99" y="-217.8" font-family="Times,serif" font-size="14.00">category</text>
</g>
<!-- object -->
<g id="node24" class="node">
<title>object</title>
<ellipse fill="none" stroke="black" cx="3729.49" cy="-91" rx="38.99" ry="18"/>
<text text-anchor="middle" x="3729.49" y="-87.3" font-family="Times,serif" font-size="14.00">object</text>
</g>
<!-- reaction to participant association&#45;&gt;object -->
<g id="edge21" class="edge">
<title>reaction to participant association&#45;&gt;object</title>
<path fill="none" stroke="blue" d="M2127.94,-251.77C2149.06,-249.89 2170.92,-248.19 2191.49,-247 2240.03,-244.2 3023,-250.74 3066.49,-229 3101.32,-211.58 3086.48,-178.98 3120.49,-160 3216.27,-106.55 3552.87,-95.09 3680.19,-92.65"/>
<polygon fill="blue" stroke="blue" points="3680.49,-96.15 3690.43,-92.47 3680.36,-89.15 3680.49,-96.15"/>
<text text-anchor="middle" x="3142.49" y="-174.3" font-family="Times,serif" font-size="14.00">object</text>
</g>
<!-- stoichiometry -->
<g id="node26" class="node">
<title>stoichiometry</title>
<ellipse fill="none" stroke="blue" cx="3217.49" cy="-178" rx="44.39" ry="18"/>
<text text-anchor="middle" x="3217.49" y="-174.3" font-family="Times,serif" font-size="14.00">integer</text>
</g>
<!-- reaction to participant association&#45;&gt;stoichiometry -->
<g id="edge22" class="edge">
<title>reaction to participant association&#45;&gt;stoichiometry</title>
<path fill="none" stroke="blue" d="M2127.94,-251.75C2149.06,-249.87 2170.92,-248.17 2191.49,-247 2295.11,-241.09 3025.14,-255.54 3125.49,-229 3147.93,-223.06 3170.89,-210.6 3188.25,-199.61"/>
<polygon fill="blue" stroke="blue" points="3190.33,-202.43 3196.79,-194.03 3186.5,-196.57 3190.33,-202.43"/>
<text text-anchor="middle" x="3212.99" y="-217.8" font-family="Times,serif" font-size="14.00">stoichiometry</text>
</g>
<!-- reaction direction -->
<g id="node27" class="node">
<title>reaction direction</title>
<ellipse fill="none" stroke="blue" cx="3401.49" cy="-178" rx="121.58" ry="18"/>
<text text-anchor="middle" x="3401.49" y="-174.3" font-family="Times,serif" font-size="14.00">ReactionDirectionEnum</text>
</g>
<!-- reaction to participant association&#45;&gt;reaction direction -->
<g id="edge23" class="edge">
<title>reaction to participant association&#45;&gt;reaction direction</title>
<path fill="none" stroke="blue" d="M2127.45,-251.75C2148.72,-249.86 2170.76,-248.16 2191.49,-247 2310.76,-240.35 3149.08,-251.06 3266.49,-229 3298.1,-223.06 3332.04,-210.46 3357.99,-199.39"/>
<polygon fill="blue" stroke="blue" points="3359.39,-202.6 3367.16,-195.4 3356.6,-196.18 3359.39,-202.6"/>
<text text-anchor="middle" x="3383.99" y="-217.8" font-family="Times,serif" font-size="14.00">reaction direction</text>
</g>
<!-- reaction side -->
<g id="node28" class="node">
<title>reaction side</title>
<ellipse fill="none" stroke="blue" cx="3639.49" cy="-178" rx="98.58" ry="18"/>
<text text-anchor="middle" x="3639.49" y="-174.3" font-family="Times,serif" font-size="14.00">ReactionSideEnum</text>
</g>
<!-- reaction to participant association&#45;&gt;reaction side -->
<g id="edge24" class="edge">
<title>reaction to participant association&#45;&gt;reaction side</title>
<path fill="none" stroke="blue" d="M2127.45,-251.7C2148.72,-249.82 2170.76,-248.13 2191.49,-247 2331.29,-239.37 3312.79,-248.14 3451.49,-229 3497.4,-222.66 3548.11,-208.75 3585.29,-197.21"/>
<polygon fill="blue" stroke="blue" points="3586.43,-200.52 3594.92,-194.18 3584.33,-193.84 3586.43,-200.52"/>
<text text-anchor="middle" x="3570.99" y="-217.8" font-family="Times,serif" font-size="14.00">reaction side</text>
</g>
<!-- subject -->
<g id="node29" class="node">
<title>subject</title>
<ellipse fill="none" stroke="black" cx="3800.49" cy="-178" rx="44.39" ry="18"/>
<text text-anchor="middle" x="3800.49" y="-174.3" font-family="Times,serif" font-size="14.00">subject</text>
</g>
<!-- reaction to participant association&#45;&gt;subject -->
<g id="edge25" class="edge">
<title>reaction to participant association&#45;&gt;subject</title>
<path fill="none" stroke="blue" d="M2126.97,-251.72C2148.39,-249.82 2170.6,-248.12 2191.49,-247 2350.16,-238.48 3464.02,-250.29 3621.49,-229 3669.86,-222.46 3723.57,-206.19 3759.41,-193.97"/>
<polygon fill="blue" stroke="blue" points="3760.73,-197.22 3769.03,-190.65 3758.44,-190.61 3760.73,-197.22"/>
<text text-anchor="middle" x="3716.49" y="-217.8" font-family="Times,serif" font-size="14.00">subject</text>
</g>
<!-- association_type -->
<g id="node21" class="node">
<title>association_type</title>
<ellipse fill="none" stroke="blue" cx="2238.49" cy="-265" rx="38.19" ry="18"/>
<text text-anchor="middle" x="2238.49" y="-261.3" font-family="Times,serif" font-size="14.00">string</text>
</g>
<!-- association_category -->
<g id="node23" class="node">
<title>association_category</title>
<ellipse fill="none" stroke="blue" cx="2369.49" cy="-265" rx="74.99" ry="18"/>
<text text-anchor="middle" x="2369.49" y="-261.3" font-family="Times,serif" font-size="14.00">category type</text>
</g>
<!-- relation -->
<g id="node31" class="node">
<title>relation</title>
<ellipse fill="none" stroke="black" cx="3764.49" cy="-18" rx="46.59" ry="18"/>
<text text-anchor="middle" x="3764.49" y="-14.3" font-family="Times,serif" font-size="14.00">relation</text>
</g>
<!-- object&#45;&gt;relation -->
<g id="edge28" class="edge">
<title>object&#45;&gt;relation</title>
<path fill="none" stroke="black" stroke-dasharray="1,5" d="M3737.78,-73.17C3741.86,-64.9 3746.88,-54.72 3751.45,-45.44"/>
<polygon fill="black" stroke="black" points="3754.73,-46.72 3756.01,-36.2 3748.45,-43.62 3754.73,-46.72"/>
</g>
<!-- chemical to chemical association_object -->
<g id="node25" class="node">
<title>chemical to chemical association_object</title>
<ellipse fill="none" stroke="blue" cx="2544.49" cy="-265" rx="81.79" ry="18"/>
<text text-anchor="middle" x="2544.49" y="-261.3" font-family="Times,serif" font-size="14.00">chemical entity</text>
</g>
<!-- subject&#45;&gt;object -->
<g id="edge26" class="edge">
<title>subject&#45;&gt;object</title>
<path fill="none" stroke="black" d="M3764.11,-167.42C3751.25,-162.12 3738.11,-154.06 3730.49,-142 3726.23,-135.26 3724.9,-126.93 3724.94,-119.01"/>
<polygon fill="black" stroke="black" points="3728.43,-119.23 3725.65,-109.01 3721.45,-118.73 3728.43,-119.23"/>
<text text-anchor="middle" x="3758.49" y="-130.8" font-family="Times,serif" font-size="14.00">relation</text>
</g>
<!-- subject&#45;&gt;relation -->
<g id="edge27" class="edge">
<title>subject&#45;&gt;relation</title>
<path fill="none" stroke="black" stroke-dasharray="1,5" d="M3796.84,-160.05C3792.38,-139.44 3784.56,-103.63 3777.49,-73 3775.45,-64.18 3773.16,-54.57 3771.07,-45.94"/>
<polygon fill="black" stroke="black" points="3774.42,-44.9 3768.67,-36.01 3767.62,-46.55 3774.42,-44.9"/>
</g>
<!-- reaction to participant association_subject -->
<g id="node30" class="node">
<title>reaction to participant association_subject</title>
<ellipse fill="none" stroke="blue" cx="2731.49" cy="-265" rx="87.18" ry="18"/>
<text text-anchor="middle" x="2731.49" y="-261.3" font-family="Times,serif" font-size="14.00">molecular entity</text>
</g>
</g>
</svg>
