<?xml version="1.0" encoding="UTF-8" standalone="no"?>
<!DOCTYPE svg PUBLIC "-//W3C//DTD SVG 1.1//EN"
 "http://www.w3.org/Graphics/SVG/1.1/DTD/svg11.dtd">
<!-- Generated by graphviz version 2.43.0 (0)
 -->
<!-- Title: %3 Pages: 1 -->
<svg width="2980pt" height="291pt"
 viewBox="0.00 0.00 2979.63 291.00" xmlns="http://www.w3.org/2000/svg" xmlns:xlink="http://www.w3.org/1999/xlink">
<g id="graph0" class="graph" transform="scale(1 1) rotate(0) translate(4 287)">
<title>%3</title>
<polygon fill="white" stroke="transparent" points="-4,4 -4,-287 2975.63,-287 2975.63,4 -4,4"/>
<!-- reaction to catalyst association -->
<g id="node1" class="node">
<title>reaction to catalyst association</title>
<ellipse fill="none" stroke="black" cx="1463.63" cy="-265" rx="155.17" ry="18"/>
<text text-anchor="middle" x="1463.63" y="-261.3" font-family="Times,serif" font-size="14.00">reaction to catalyst association</text>
</g>
<!-- reaction to participant association -->
<g id="node2" class="node">
<title>reaction to participant association</title>
<ellipse fill="none" stroke="black" cx="169.63" cy="-178" rx="169.77" ry="18"/>
<text text-anchor="middle" x="169.63" y="-174.3" font-family="Times,serif" font-size="14.00">reaction to participant association</text>
</g>
<!-- reaction to catalyst association&#45;&gt;reaction to participant association -->
<g id="edge1" class="edge">
<title>reaction to catalyst association&#45;&gt;reaction to participant association</title>
<path fill="none" stroke="black" d="M1308.05,-264.36C1114.08,-263.46 772.61,-257.39 481.63,-229 405.35,-221.56 319.39,-207.34 257.05,-195.97"/>
<polygon fill="black" stroke="black" points="257.33,-192.46 246.86,-194.1 256.07,-199.35 257.33,-192.46"/>
<text text-anchor="middle" x="495.63" y="-217.8" font-family="Times,serif" font-size="14.00">is_a</text>
</g>
<!-- id -->
<g id="node3" class="node">
<title>id</title>
<ellipse fill="none" stroke="blue" cx="395.63" cy="-178" rx="38.19" ry="18"/>
<text text-anchor="middle" x="395.63" y="-174.3" font-family="Times,serif" font-size="14.00">string</text>
</g>
<!-- reaction to catalyst association&#45;&gt;id -->
<g id="edge2" class="edge">
<title>reaction to catalyst association&#45;&gt;id</title>
<path fill="none" stroke="blue" d="M1312.54,-260.75C1103.77,-255.76 737.91,-245.06 605.63,-229 532.69,-220.14 514.44,-215.65 443.63,-196 440.53,-195.14 437.33,-194.17 434.13,-193.16"/>
<polygon fill="blue" stroke="blue" points="435.21,-189.83 424.62,-190 433,-196.47 435.21,-189.83"/>
<text text-anchor="middle" x="612.63" y="-217.8" font-family="Times,serif" font-size="14.00">id</text>
</g>
<!-- iri -->
<g id="node4" class="node">
<title>iri</title>
<ellipse fill="none" stroke="blue" cx="496.63" cy="-178" rx="44.39" ry="18"/>
<text text-anchor="middle" x="496.63" y="-174.3" font-family="Times,serif" font-size="14.00">iri type</text>
</g>
<!-- reaction to catalyst association&#45;&gt;iri -->
<g id="edge3" class="edge">
<title>reaction to catalyst association&#45;&gt;iri</title>
<path fill="none" stroke="blue" d="M1308.5,-263.55C1156.62,-261.52 918.95,-254.06 714.63,-229 640.41,-219.9 622.02,-214.78 549.63,-196 546.26,-195.12 542.78,-194.16 539.3,-193.14"/>
<polygon fill="blue" stroke="blue" points="540.13,-189.74 529.55,-190.19 538.1,-196.44 540.13,-189.74"/>
<text text-anchor="middle" x="722.63" y="-217.8" font-family="Times,serif" font-size="14.00">iri</text>
</g>
<!-- name -->
<g id="node5" class="node">
<title>name</title>
<ellipse fill="none" stroke="blue" cx="615.63" cy="-178" rx="56.59" ry="18"/>
<text text-anchor="middle" x="615.63" y="-174.3" font-family="Times,serif" font-size="14.00">label type</text>
</g>
<!-- reaction to catalyst association&#45;&gt;name -->
<g id="edge4" class="edge">
<title>reaction to catalyst association&#45;&gt;name</title>
<path fill="none" stroke="blue" d="M1314.89,-259.8C1150.38,-254.51 895.96,-244.22 800.63,-229 753.04,-221.4 700.06,-206.39 663.04,-194.79"/>
<polygon fill="blue" stroke="blue" points="663.63,-191.3 653.04,-191.61 661.51,-197.97 663.63,-191.3"/>
<text text-anchor="middle" x="820.63" y="-217.8" font-family="Times,serif" font-size="14.00">name</text>
</g>
<!-- description -->
<g id="node6" class="node">
<title>description</title>
<ellipse fill="none" stroke="blue" cx="765.63" cy="-178" rx="75.29" ry="18"/>
<text text-anchor="middle" x="765.63" y="-174.3" font-family="Times,serif" font-size="14.00">narrative text</text>
</g>
<!-- reaction to catalyst association&#45;&gt;description -->
<g id="edge5" class="edge">
<title>reaction to catalyst association&#45;&gt;description</title>
<path fill="none" stroke="blue" d="M1313.55,-260.31C1171.01,-255.81 967.3,-246.54 889.63,-229 860.35,-222.39 829.01,-209.69 805.16,-198.75"/>
<polygon fill="blue" stroke="blue" points="806.62,-195.57 796.08,-194.51 803.66,-201.91 806.62,-195.57"/>
<text text-anchor="middle" x="930.13" y="-217.8" font-family="Times,serif" font-size="14.00">description</text>
</g>
<!-- source -->
<g id="node7" class="node">
<title>source</title>
<ellipse fill="none" stroke="blue" cx="915.63" cy="-178" rx="56.59" ry="18"/>
<text text-anchor="middle" x="915.63" y="-174.3" font-family="Times,serif" font-size="14.00">label type</text>
</g>
<!-- reaction to catalyst association&#45;&gt;source -->
<g id="edge6" class="edge">
<title>reaction to catalyst association&#45;&gt;source</title>
<path fill="none" stroke="blue" d="M1316.59,-259.16C1206.36,-254.32 1065.33,-245.19 1009.63,-229 987.57,-222.59 964.76,-210.61 947.14,-199.98"/>
<polygon fill="blue" stroke="blue" points="948.78,-196.88 938.43,-194.59 945.09,-202.83 948.78,-196.88"/>
<text text-anchor="middle" x="1033.63" y="-217.8" font-family="Times,serif" font-size="14.00">source</text>
</g>
<!-- provided by -->
<g id="node8" class="node">
<title>provided by</title>
<ellipse fill="none" stroke="blue" cx="1027.63" cy="-178" rx="37.09" ry="18"/>
<text text-anchor="middle" x="1027.63" y="-174.3" font-family="Times,serif" font-size="14.00">agent</text>
</g>
<!-- reaction to catalyst association&#45;&gt;provided by -->
<g id="edge7" class="edge">
<title>reaction to catalyst association&#45;&gt;provided by</title>
<path fill="none" stroke="blue" d="M1314.72,-259.79C1226.55,-255.47 1124.34,-246.71 1083.63,-229 1069.92,-223.03 1057.25,-212.37 1047.44,-202.42"/>
<polygon fill="blue" stroke="blue" points="1049.92,-199.94 1040.53,-195.04 1044.81,-204.73 1049.92,-199.94"/>
<text text-anchor="middle" x="1126.13" y="-217.8" font-family="Times,serif" font-size="14.00">provided by</text>
</g>
<!-- has attribute -->
<g id="node9" class="node">
<title>has attribute</title>
<ellipse fill="none" stroke="blue" cx="1134.63" cy="-178" rx="51.99" ry="18"/>
<text text-anchor="middle" x="1134.63" y="-174.3" font-family="Times,serif" font-size="14.00">attribute</text>
</g>
<!-- reaction to catalyst association&#45;&gt;has attribute -->
<g id="edge8" class="edge">
<title>reaction to catalyst association&#45;&gt;has attribute</title>
<path fill="none" stroke="blue" d="M1339.11,-254.17C1282.45,-248.39 1222.37,-240.02 1196.63,-229 1182.11,-222.78 1168.2,-212.15 1157.25,-202.29"/>
<polygon fill="blue" stroke="blue" points="1159.51,-199.62 1149.83,-195.32 1154.72,-204.72 1159.51,-199.62"/>
<text text-anchor="middle" x="1243.63" y="-217.8" font-family="Times,serif" font-size="14.00">has attribute</text>
</g>
<!-- predicate -->
<g id="node10" class="node">
<title>predicate</title>
<ellipse fill="none" stroke="blue" cx="1282.63" cy="-178" rx="77.99" ry="18"/>
<text text-anchor="middle" x="1282.63" y="-174.3" font-family="Times,serif" font-size="14.00">predicate type</text>
</g>
<!-- reaction to catalyst association&#45;&gt;predicate -->
<g id="edge9" class="edge">
<title>reaction to catalyst association&#45;&gt;predicate</title>
<path fill="none" stroke="blue" d="M1351.94,-252.33C1335.61,-247.01 1319.86,-239.51 1306.63,-229 1299.19,-223.08 1293.91,-214.28 1290.24,-205.71"/>
<polygon fill="blue" stroke="blue" points="1293.51,-204.45 1286.75,-196.29 1286.94,-206.88 1293.51,-204.45"/>
<text text-anchor="middle" x="1340.63" y="-217.8" font-family="Times,serif" font-size="14.00">predicate</text>
</g>
<!-- relation -->
<g id="node11" class="node">
<title>relation</title>
<ellipse fill="none" stroke="blue" cx="2808.63" cy="-18" rx="38.19" ry="18"/>
<text text-anchor="middle" x="2808.63" y="-14.3" font-family="Times,serif" font-size="14.00">string</text>
</g>
<!-- reaction to catalyst association&#45;&gt;relation -->
<g id="edge10" class="edge">
<title>reaction to catalyst association&#45;&gt;relation</title>
<path fill="none" stroke="blue" d="M1442.71,-246.97C1418.17,-225 1383.7,-186.46 1407.63,-160 1500.39,-57.44 2523.69,-26.03 2760.1,-20.11"/>
<polygon fill="blue" stroke="blue" points="2760.52,-23.6 2770.44,-19.86 2760.35,-16.61 2760.52,-23.6"/>
<text text-anchor="middle" x="1500.63" y="-130.8" font-family="Times,serif" font-size="14.00">relation</text>
</g>
<!-- negated -->
<g id="node12" class="node">
<title>negated</title>
<ellipse fill="none" stroke="blue" cx="1463.63" cy="-178" rx="46.59" ry="18"/>
<text text-anchor="middle" x="1463.63" y="-174.3" font-family="Times,serif" font-size="14.00">boolean</text>
</g>
<!-- reaction to catalyst association&#45;&gt;negated -->
<g id="edge11" class="edge">
<title>reaction to catalyst association&#45;&gt;negated</title>
<path fill="none" stroke="blue" d="M1463.63,-246.8C1463.63,-235.16 1463.63,-219.55 1463.63,-206.24"/>
<polygon fill="blue" stroke="blue" points="1467.14,-206.18 1463.63,-196.18 1460.14,-206.18 1467.14,-206.18"/>
<text text-anchor="middle" x="1492.63" y="-217.8" font-family="Times,serif" font-size="14.00">negated</text>
</g>
<!-- qualifiers -->
<g id="node13" class="node">
<title>qualifiers</title>
<ellipse fill="none" stroke="blue" cx="1604.63" cy="-178" rx="76.89" ry="18"/>
<text text-anchor="middle" x="1604.63" y="-174.3" font-family="Times,serif" font-size="14.00">ontology class</text>
</g>
<!-- reaction to catalyst association&#45;&gt;qualifiers -->
<g id="edge12" class="edge">
<title>reaction to catalyst association&#45;&gt;qualifiers</title>
<path fill="none" stroke="blue" d="M1494.08,-247.21C1504.19,-241.54 1515.45,-235.09 1525.63,-229 1540.72,-219.98 1557.18,-209.64 1571.15,-200.72"/>
<polygon fill="blue" stroke="blue" points="1573.4,-203.43 1579.93,-195.09 1569.62,-197.54 1573.4,-203.43"/>
<text text-anchor="middle" x="1584.13" y="-217.8" font-family="Times,serif" font-size="14.00">qualifiers</text>
</g>
<!-- publications -->
<g id="node14" class="node">
<title>publications</title>
<ellipse fill="none" stroke="blue" cx="1761.63" cy="-178" rx="62.29" ry="18"/>
<text text-anchor="middle" x="1761.63" y="-174.3" font-family="Times,serif" font-size="14.00">publication</text>
</g>
<!-- reaction to catalyst association&#45;&gt;publications -->
<g id="edge13" class="edge">
<title>reaction to catalyst association&#45;&gt;publications</title>
<path fill="none" stroke="blue" d="M1539.27,-249.26C1565.52,-243.61 1595.04,-236.66 1621.63,-229 1653.88,-219.71 1689.49,-206.96 1716.73,-196.66"/>
<polygon fill="blue" stroke="blue" points="1718.26,-199.82 1726.36,-192.98 1715.77,-193.28 1718.26,-199.82"/>
<text text-anchor="middle" x="1712.63" y="-217.8" font-family="Times,serif" font-size="14.00">publications</text>
</g>
<!-- has evidence -->
<g id="node15" class="node">
<title>has evidence</title>
<ellipse fill="none" stroke="blue" cx="1917.63" cy="-178" rx="75.29" ry="18"/>
<text text-anchor="middle" x="1917.63" y="-174.3" font-family="Times,serif" font-size="14.00">evidence type</text>
</g>
<!-- reaction to catalyst association&#45;&gt;has evidence -->
<g id="edge14" class="edge">
<title>reaction to catalyst association&#45;&gt;has evidence</title>
<path fill="none" stroke="blue" d="M1572.75,-252.16C1649.72,-243.64 1742.27,-232.97 1760.63,-229 1797.85,-220.96 1838.8,-207.76 1869.55,-196.95"/>
<polygon fill="blue" stroke="blue" points="1870.91,-200.18 1879.16,-193.53 1868.56,-193.58 1870.91,-200.18"/>
<text text-anchor="middle" x="1864.13" y="-217.8" font-family="Times,serif" font-size="14.00">has evidence</text>
</g>
<!-- type -->
<g id="node16" class="node">
<title>type</title>
<ellipse fill="none" stroke="black" cx="2042.63" cy="-178" rx="31.4" ry="18"/>
<text text-anchor="middle" x="2042.63" y="-174.3" font-family="Times,serif" font-size="14.00">type</text>
</g>
<!-- reaction to catalyst association&#45;&gt;type -->
<g id="edge15" class="edge">
<title>reaction to catalyst association&#45;&gt;type</title>
<path fill="none" stroke="blue" d="M1572.75,-252.14C1591.38,-250.29 1610.55,-248.5 1628.63,-247 1755.56,-236.47 1790.14,-255.89 1914.63,-229 1948.55,-221.68 1985.24,-206.54 2010.6,-194.83"/>
<polygon fill="blue" stroke="blue" points="2012.18,-197.95 2019.74,-190.53 2009.2,-191.62 2012.18,-197.95"/>
<text text-anchor="middle" x="1977.63" y="-217.8" font-family="Times,serif" font-size="14.00">type</text>
</g>
<!-- category -->
<g id="node18" class="node">
<title>category</title>
<ellipse fill="none" stroke="black" cx="2143.63" cy="-178" rx="51.19" ry="18"/>
<text text-anchor="middle" x="2143.63" y="-174.3" font-family="Times,serif" font-size="14.00">category</text>
</g>
<!-- reaction to catalyst association&#45;&gt;category -->
<g id="edge16" class="edge">
<title>reaction to catalyst association&#45;&gt;category</title>
<path fill="none" stroke="blue" d="M1571.84,-252.01C1590.76,-250.15 1610.26,-248.39 1628.63,-247 1792.36,-234.58 1836.37,-259.9 1997.63,-229 2034.4,-221.95 2074.52,-207.71 2103.38,-196.22"/>
<polygon fill="blue" stroke="blue" points="2104.76,-199.44 2112.72,-192.44 2102.13,-192.95 2104.76,-199.44"/>
<text text-anchor="middle" x="2083.13" y="-217.8" font-family="Times,serif" font-size="14.00">category</text>
</g>
<!-- stoichiometry -->
<g id="node20" class="node">
<title>stoichiometry</title>
<ellipse fill="none" stroke="blue" cx="2257.63" cy="-178" rx="44.39" ry="18"/>
<text text-anchor="middle" x="2257.63" y="-174.3" font-family="Times,serif" font-size="14.00">integer</text>
</g>
<!-- reaction to catalyst association&#45;&gt;stoichiometry -->
<g id="edge17" class="edge">
<title>reaction to catalyst association&#45;&gt;stoichiometry</title>
<path fill="none" stroke="blue" d="M1570.94,-251.91C1590.13,-250.04 1609.96,-248.3 1628.63,-247 1737.33,-239.41 2011.65,-249.69 2118.63,-229 2154.22,-222.12 2192.88,-207.6 2220.38,-195.97"/>
<polygon fill="blue" stroke="blue" points="2221.81,-199.16 2229.61,-191.99 2219.04,-192.73 2221.81,-199.16"/>
<text text-anchor="middle" x="2223.13" y="-217.8" font-family="Times,serif" font-size="14.00">stoichiometry</text>
</g>
<!-- reaction direction -->
<g id="node21" class="node">
<title>reaction direction</title>
<ellipse fill="none" stroke="blue" cx="2444.63" cy="-178" rx="124.58" ry="18"/>
<text text-anchor="middle" x="2444.63" y="-174.3" font-family="Times,serif" font-size="14.00">reaction_direction_enum</text>
</g>
<!-- reaction to catalyst association&#45;&gt;reaction direction -->
<g id="edge18" class="edge">
<title>reaction to catalyst association&#45;&gt;reaction direction</title>
<path fill="none" stroke="blue" d="M1570.05,-251.85C1589.52,-249.97 1609.67,-248.24 1628.63,-247 1772.38,-237.61 2134.39,-251.74 2276.63,-229 2316.26,-222.67 2359.63,-209.59 2392.39,-198.4"/>
<polygon fill="blue" stroke="blue" points="2393.89,-201.58 2402.19,-195 2391.6,-194.97 2393.89,-201.58"/>
<text text-anchor="middle" x="2406.13" y="-217.8" font-family="Times,serif" font-size="14.00">reaction direction</text>
</g>
<!-- reaction side -->
<g id="node22" class="node">
<title>reaction side</title>
<ellipse fill="none" stroke="blue" cx="2689.63" cy="-178" rx="102.88" ry="18"/>
<text text-anchor="middle" x="2689.63" y="-174.3" font-family="Times,serif" font-size="14.00">reaction_side_enum</text>
</g>
<!-- reaction to catalyst association&#45;&gt;reaction side -->
<g id="edge19" class="edge">
<title>reaction to catalyst association&#45;&gt;reaction side</title>
<path fill="none" stroke="blue" d="M1569.6,-251.8C1589.2,-249.9 1609.52,-248.19 1628.63,-247 1816.09,-235.37 2287.27,-252.3 2473.63,-229 2526.96,-222.33 2586.37,-208.06 2629.37,-196.47"/>
<polygon fill="blue" stroke="blue" points="2630.38,-199.82 2639.11,-193.81 2628.54,-193.07 2630.38,-199.82"/>
<text text-anchor="middle" x="2603.13" y="-217.8" font-family="Times,serif" font-size="14.00">reaction side</text>
</g>
<!-- subject -->
<g id="node23" class="node">
<title>subject</title>
<ellipse fill="none" stroke="black" cx="2854.63" cy="-178" rx="44.39" ry="18"/>
<text text-anchor="middle" x="2854.63" y="-174.3" font-family="Times,serif" font-size="14.00">subject</text>
</g>
<!-- reaction to catalyst association&#45;&gt;subject -->
<g id="edge20" class="edge">
<title>reaction to catalyst association&#45;&gt;subject</title>
<path fill="none" stroke="blue" d="M1569.15,-251.78C1588.9,-249.88 1609.38,-248.16 1628.63,-247 1856.04,-233.31 2427.42,-255.93 2653.63,-229 2709.1,-222.4 2771.26,-205.4 2811.57,-193.05"/>
<polygon fill="blue" stroke="blue" points="2812.82,-196.33 2821.33,-190.02 2810.74,-189.64 2812.82,-196.33"/>
<text text-anchor="middle" x="2757.63" y="-217.8" font-family="Times,serif" font-size="14.00">subject</text>
</g>
<!-- object -->
<g id="node25" class="node">
<title>object</title>
<ellipse fill="none" stroke="black" cx="2875.63" cy="-91" rx="38.99" ry="18"/>
<text text-anchor="middle" x="2875.63" y="-87.3" font-family="Times,serif" font-size="14.00">object</text>
</g>
<!-- reaction to catalyst association&#45;&gt;object -->
<g id="edge21" class="edge">
<title>reaction to catalyst association&#45;&gt;object</title>
<path fill="none" stroke="blue" d="M1569.15,-251.75C1588.89,-249.85 1609.37,-248.14 1628.63,-247 1885.77,-231.79 2532.64,-265.44 2787.63,-229 2842.39,-221.17 2869.16,-235.74 2907.63,-196 2929.34,-173.58 2934.35,-155.03 2920.63,-127 2917.78,-121.17 2913.43,-116.02 2908.55,-111.6"/>
<polygon fill="blue" stroke="blue" points="2910.56,-108.73 2900.56,-105.25 2906.2,-114.21 2910.56,-108.73"/>
<text text-anchor="middle" x="2949.63" y="-174.3" font-family="Times,serif" font-size="14.00">object</text>
</g>
<!-- association_type -->
<g id="node17" class="node">
<title>association_type</title>
<ellipse fill="none" stroke="blue" cx="1675.63" cy="-265" rx="38.19" ry="18"/>
<text text-anchor="middle" x="1675.63" y="-261.3" font-family="Times,serif" font-size="14.00">string</text>
</g>
<!-- association_category -->
<g id="node19" class="node">
<title>association_category</title>
<ellipse fill="none" stroke="blue" cx="1806.63" cy="-265" rx="74.99" ry="18"/>
<text text-anchor="middle" x="1806.63" y="-261.3" font-family="Times,serif" font-size="14.00">category type</text>
</g>
<!-- subject&#45;&gt;relation -->
<g id="edge23" class="edge">
<title>subject&#45;&gt;relation</title>
<path fill="none" stroke="black" stroke-dasharray="1,5" d="M2847.05,-160.24C2841.13,-146.64 2833.03,-126.88 2827.63,-109 2821.38,-88.27 2816.42,-64.24 2813.14,-46.23"/>
<polygon fill="black" stroke="black" points="2816.54,-45.38 2811.36,-36.14 2809.65,-46.59 2816.54,-45.38"/>
</g>
<!-- subject&#45;&gt;object -->
<g id="edge22" class="edge">
<title>subject&#45;&gt;object</title>
<path fill="none" stroke="black" d="M2857.61,-159.77C2859.4,-150.09 2861.87,-137.8 2864.63,-127 2865.32,-124.32 2866.09,-121.53 2866.9,-118.76"/>
<polygon fill="black" stroke="black" points="2870.32,-119.57 2869.89,-108.98 2863.62,-117.52 2870.32,-119.57"/>
<text text-anchor="middle" x="2892.63" y="-130.8" font-family="Times,serif" font-size="14.00">relation</text>
</g>
<!-- reaction to participant association_subject -->
<g id="node24" class="node">
<title>reaction to participant association_subject</title>
<ellipse fill="none" stroke="blue" cx="1986.63" cy="-265" rx="87.18" ry="18"/>
<text text-anchor="middle" x="1986.63" y="-261.3" font-family="Times,serif" font-size="14.00">molecular entity</text>
</g>
<!-- object&#45;&gt;relation -->
<g id="edge24" class="edge">
<title>object&#45;&gt;relation</title>
<path fill="none" stroke="black" stroke-dasharray="1,5" d="M2860.77,-74.24C2851.83,-64.77 2840.3,-52.56 2830.36,-42.02"/>
<polygon fill="black" stroke="black" points="2832.87,-39.58 2823.46,-34.71 2827.78,-44.39 2832.87,-39.58"/>
</g>
<!-- reaction to catalyst association_object -->
<g id="node26" class="node">
<title>reaction to catalyst association_object</title>
<ellipse fill="none" stroke="blue" cx="2202.63" cy="-265" rx="110.48" ry="18"/>
<text text-anchor="middle" x="2202.63" y="-261.3" font-family="Times,serif" font-size="14.00">gene or gene product</text>
</g>
</g>
</svg>
