<?xml version="1.0" encoding="UTF-8" standalone="no"?>
<!DOCTYPE svg PUBLIC "-//W3C//DTD SVG 1.1//EN"
 "http://www.w3.org/Graphics/SVG/1.1/DTD/svg11.dtd">
<!-- Generated by graphviz version 2.43.0 (0)
 -->
<!-- Title: %3 Pages: 1 -->
<svg width="3733pt" height="291pt"
 viewBox="0.00 0.00 3732.68 291.00" xmlns="http://www.w3.org/2000/svg" xmlns:xlink="http://www.w3.org/1999/xlink">
<g id="graph0" class="graph" transform="scale(1 1) rotate(0) translate(4 287)">
<title>%3</title>
<polygon fill="white" stroke="transparent" points="-4,4 -4,-287 3728.68,-287 3728.68,4 -4,4"/>
<!-- reaction to participant association -->
<g id="node1" class="node">
<title>reaction to participant association</title>
<ellipse fill="none" stroke="black" cx="1810.49" cy="-265" rx="169.77" ry="18"/>
<text text-anchor="middle" x="1810.49" y="-261.3" font-family="Times,serif" font-size="14.00">reaction to participant association</text>
</g>
<!-- chemical to chemical association -->
<g id="node2" class="node">
<title>chemical to chemical association</title>
<ellipse fill="none" stroke="black" cx="162.49" cy="-178" rx="162.47" ry="18"/>
<text text-anchor="middle" x="162.49" y="-174.3" font-family="Times,serif" font-size="14.00">chemical to chemical association</text>
</g>
<!-- reaction to participant association&#45;&gt;chemical to chemical association -->
<g id="edge1" class="edge">
<title>reaction to participant association&#45;&gt;chemical to chemical association</title>
<path fill="none" stroke="black" d="M1642.44,-262.48C1334.38,-259.23 690.4,-250.08 467.49,-229 392.34,-221.89 307.69,-207.5 246.66,-195.97"/>
<polygon fill="black" stroke="black" points="247.18,-192.51 236.7,-194.08 245.87,-199.39 247.18,-192.51"/>
<text text-anchor="middle" x="481.49" y="-217.8" font-family="Times,serif" font-size="14.00">is_a</text>
</g>
<!-- id -->
<g id="node3" class="node">
<title>id</title>
<ellipse fill="none" stroke="blue" cx="381.49" cy="-178" rx="38.19" ry="18"/>
<text text-anchor="middle" x="381.49" y="-174.3" font-family="Times,serif" font-size="14.00">string</text>
</g>
<!-- reaction to participant association&#45;&gt;id -->
<g id="edge2" class="edge">
<title>reaction to participant association&#45;&gt;id</title>
<path fill="none" stroke="blue" d="M1642.13,-262.72C1356.94,-259.96 790.5,-251.72 592.49,-229 519.05,-220.57 500.72,-215.72 429.49,-196 426.38,-195.14 423.18,-194.18 419.98,-193.16"/>
<polygon fill="blue" stroke="blue" points="421.06,-189.83 410.47,-190 418.85,-196.48 421.06,-189.83"/>
<text text-anchor="middle" x="599.49" y="-217.8" font-family="Times,serif" font-size="14.00">id</text>
</g>
<!-- iri -->
<g id="node4" class="node">
<title>iri</title>
<ellipse fill="none" stroke="blue" cx="482.49" cy="-178" rx="44.39" ry="18"/>
<text text-anchor="middle" x="482.49" y="-174.3" font-family="Times,serif" font-size="14.00">iri type</text>
</g>
<!-- reaction to participant association&#45;&gt;iri -->
<g id="edge3" class="edge">
<title>reaction to participant association&#45;&gt;iri</title>
<path fill="none" stroke="blue" d="M1643.17,-261.87C1380.99,-257.99 885.15,-248.33 709.49,-229 631.25,-220.39 611.77,-215.39 535.49,-196 532.06,-195.13 528.53,-194.16 524.99,-193.14"/>
<polygon fill="blue" stroke="blue" points="525.68,-189.69 515.1,-190.15 523.66,-196.39 525.68,-189.69"/>
<text text-anchor="middle" x="717.49" y="-217.8" font-family="Times,serif" font-size="14.00">iri</text>
</g>
<!-- name -->
<g id="node5" class="node">
<title>name</title>
<ellipse fill="none" stroke="blue" cx="601.49" cy="-178" rx="56.59" ry="18"/>
<text text-anchor="middle" x="601.49" y="-174.3" font-family="Times,serif" font-size="14.00">label type</text>
</g>
<!-- reaction to participant association&#45;&gt;name -->
<g id="edge4" class="edge">
<title>reaction to participant association&#45;&gt;name</title>
<path fill="none" stroke="blue" d="M1642.63,-262.38C1398.85,-259.31 958.77,-250.85 801.49,-229 748.87,-221.69 690.04,-206.05 649.88,-194.19"/>
<polygon fill="blue" stroke="blue" points="650.67,-190.78 640.09,-191.27 648.67,-197.49 650.67,-190.78"/>
<text text-anchor="middle" x="821.49" y="-217.8" font-family="Times,serif" font-size="14.00">name</text>
</g>
<!-- description -->
<g id="node6" class="node">
<title>description</title>
<ellipse fill="none" stroke="blue" cx="751.49" cy="-178" rx="75.29" ry="18"/>
<text text-anchor="middle" x="751.49" y="-174.3" font-family="Times,serif" font-size="14.00">narrative text</text>
</g>
<!-- reaction to participant association&#45;&gt;description -->
<g id="edge5" class="edge">
<title>reaction to participant association&#45;&gt;description</title>
<path fill="none" stroke="blue" d="M1641.51,-263.34C1417.94,-261.46 1036.08,-254.48 898.49,-229 863,-222.43 824.43,-209.06 795.71,-197.8"/>
<polygon fill="blue" stroke="blue" points="796.95,-194.52 786.36,-194.07 794.35,-201.02 796.95,-194.52"/>
<text text-anchor="middle" x="938.99" y="-217.8" font-family="Times,serif" font-size="14.00">description</text>
</g>
<!-- source -->
<g id="node7" class="node">
<title>source</title>
<ellipse fill="none" stroke="blue" cx="883.49" cy="-178" rx="38.19" ry="18"/>
<text text-anchor="middle" x="883.49" y="-174.3" font-family="Times,serif" font-size="14.00">string</text>
</g>
<!-- reaction to participant association&#45;&gt;source -->
<g id="edge6" class="edge">
<title>reaction to participant association&#45;&gt;source</title>
<path fill="none" stroke="blue" d="M1644.96,-260.89C1455.59,-256.54 1157.39,-247.06 1046.49,-229 1002.54,-221.84 953.95,-205.83 921.36,-193.84"/>
<polygon fill="blue" stroke="blue" points="922.37,-190.48 911.78,-190.27 919.92,-197.04 922.37,-190.48"/>
<text text-anchor="middle" x="1070.49" y="-217.8" font-family="Times,serif" font-size="14.00">source</text>
</g>
<!-- has attribute -->
<g id="node8" class="node">
<title>has attribute</title>
<ellipse fill="none" stroke="blue" cx="991.49" cy="-178" rx="51.99" ry="18"/>
<text text-anchor="middle" x="991.49" y="-174.3" font-family="Times,serif" font-size="14.00">attribute</text>
</g>
<!-- reaction to participant association&#45;&gt;has attribute -->
<g id="edge7" class="edge">
<title>reaction to participant association&#45;&gt;has attribute</title>
<path fill="none" stroke="blue" d="M1648.29,-259.69C1486.38,-254.59 1249.02,-244.75 1158.49,-229 1115.61,-221.54 1068.21,-206.68 1034.89,-195.09"/>
<polygon fill="blue" stroke="blue" points="1036.05,-191.79 1025.46,-191.77 1033.72,-198.39 1036.05,-191.79"/>
<text text-anchor="middle" x="1205.49" y="-217.8" font-family="Times,serif" font-size="14.00">has attribute</text>
</g>
<!-- predicate -->
<g id="node9" class="node">
<title>predicate</title>
<ellipse fill="none" stroke="blue" cx="1139.49" cy="-178" rx="77.99" ry="18"/>
<text text-anchor="middle" x="1139.49" y="-174.3" font-family="Times,serif" font-size="14.00">predicate type</text>
</g>
<!-- reaction to participant association&#45;&gt;predicate -->
<g id="edge8" class="edge">
<title>reaction to participant association&#45;&gt;predicate</title>
<path fill="none" stroke="blue" d="M1646.86,-260.23C1551.66,-256.05 1429.66,-247.3 1322.49,-229 1277.82,-221.37 1228.32,-207.5 1192.07,-196.3"/>
<polygon fill="blue" stroke="blue" points="1192.8,-192.87 1182.21,-193.22 1190.71,-199.55 1192.8,-192.87"/>
<text text-anchor="middle" x="1356.49" y="-217.8" font-family="Times,serif" font-size="14.00">predicate</text>
</g>
<!-- negated -->
<g id="node10" class="node">
<title>negated</title>
<ellipse fill="none" stroke="blue" cx="1282.49" cy="-178" rx="46.59" ry="18"/>
<text text-anchor="middle" x="1282.49" y="-174.3" font-family="Times,serif" font-size="14.00">boolean</text>
</g>
<!-- reaction to participant association&#45;&gt;negated -->
<g id="edge9" class="edge">
<title>reaction to participant association&#45;&gt;negated</title>
<path fill="none" stroke="blue" d="M1667.15,-255.33C1602.7,-250.01 1525.91,-241.71 1457.49,-229 1411.82,-220.52 1360.9,-205.29 1325.82,-193.86"/>
<polygon fill="blue" stroke="blue" points="1326.5,-190.41 1315.91,-190.6 1324.31,-197.05 1326.5,-190.41"/>
<text text-anchor="middle" x="1486.49" y="-217.8" font-family="Times,serif" font-size="14.00">negated</text>
</g>
<!-- qualifiers -->
<g id="node11" class="node">
<title>qualifiers</title>
<ellipse fill="none" stroke="blue" cx="1423.49" cy="-178" rx="76.89" ry="18"/>
<text text-anchor="middle" x="1423.49" y="-174.3" font-family="Times,serif" font-size="14.00">ontology class</text>
</g>
<!-- reaction to participant association&#45;&gt;qualifiers -->
<g id="edge10" class="edge">
<title>reaction to participant association&#45;&gt;qualifiers</title>
<path fill="none" stroke="blue" d="M1693.56,-251.91C1653,-246.48 1607.44,-239 1566.49,-229 1533.35,-220.91 1497.08,-208.18 1469.36,-197.59"/>
<polygon fill="blue" stroke="blue" points="1470.52,-194.29 1459.93,-193.95 1468,-200.82 1470.52,-194.29"/>
<text text-anchor="middle" x="1599.99" y="-217.8" font-family="Times,serif" font-size="14.00">qualifiers</text>
</g>
<!-- publications -->
<g id="node12" class="node">
<title>publications</title>
<ellipse fill="none" stroke="blue" cx="1580.49" cy="-178" rx="62.29" ry="18"/>
<text text-anchor="middle" x="1580.49" y="-174.3" font-family="Times,serif" font-size="14.00">publication</text>
</g>
<!-- reaction to participant association&#45;&gt;publications -->
<g id="edge11" class="edge">
<title>reaction to participant association&#45;&gt;publications</title>
<path fill="none" stroke="blue" d="M1731.1,-249.03C1709.73,-243.84 1686.89,-237.21 1666.49,-229 1647.73,-221.46 1628.15,-210.36 1612.42,-200.54"/>
<polygon fill="blue" stroke="blue" points="1613.95,-197.36 1603.64,-194.94 1610.19,-203.26 1613.95,-197.36"/>
<text text-anchor="middle" x="1710.49" y="-217.8" font-family="Times,serif" font-size="14.00">publications</text>
</g>
<!-- has evidence -->
<g id="node13" class="node">
<title>has evidence</title>
<ellipse fill="none" stroke="blue" cx="1736.49" cy="-178" rx="75.29" ry="18"/>
<text text-anchor="middle" x="1736.49" y="-174.3" font-family="Times,serif" font-size="14.00">evidence type</text>
</g>
<!-- reaction to participant association&#45;&gt;has evidence -->
<g id="edge12" class="edge">
<title>reaction to participant association&#45;&gt;has evidence</title>
<path fill="none" stroke="blue" d="M1788.16,-246.9C1781.79,-241.51 1775.06,-235.31 1769.49,-229 1762.91,-221.56 1756.65,-212.72 1751.38,-204.55"/>
<polygon fill="blue" stroke="blue" points="1754.35,-202.69 1746.09,-196.05 1748.41,-206.39 1754.35,-202.69"/>
<text text-anchor="middle" x="1815.99" y="-217.8" font-family="Times,serif" font-size="14.00">has evidence</text>
</g>
<!-- knowledge source -->
<g id="node14" class="node">
<title>knowledge source</title>
<ellipse fill="none" stroke="blue" cx="1938.49" cy="-178" rx="108.58" ry="18"/>
<text text-anchor="middle" x="1938.49" y="-174.3" font-family="Times,serif" font-size="14.00">information resource</text>
</g>
<!-- reaction to participant association&#45;&gt;knowledge source -->
<g id="edge13" class="edge">
<title>reaction to participant association&#45;&gt;knowledge source</title>
<path fill="none" stroke="blue" d="M1835.81,-247.08C1850.34,-237.38 1868.93,-224.99 1885.49,-214 1891.74,-209.85 1898.41,-205.43 1904.84,-201.18"/>
<polygon fill="blue" stroke="blue" points="1906.98,-203.97 1913.4,-195.54 1903.12,-198.13 1906.98,-203.97"/>
<text text-anchor="middle" x="1949.99" y="-217.8" font-family="Times,serif" font-size="14.00">knowledge source</text>
</g>
<!-- original knowledge source -->
<g id="node15" class="node">
<title>original knowledge source</title>
<ellipse fill="none" stroke="blue" cx="2103.49" cy="-178" rx="38.19" ry="18"/>
<text text-anchor="middle" x="2103.49" y="-174.3" font-family="Times,serif" font-size="14.00">string</text>
</g>
<!-- reaction to participant association&#45;&gt;original knowledge source -->
<g id="edge14" class="edge">
<title>reaction to participant association&#45;&gt;original knowledge source</title>
<path fill="none" stroke="blue" d="M1928.96,-252.05C1957.58,-246.9 1987.64,-239.53 2014.49,-229 2025.85,-224.54 2026.97,-220.2 2037.49,-214 2047.58,-208.05 2058.77,-201.94 2069.02,-196.52"/>
<polygon fill="blue" stroke="blue" points="2070.88,-199.5 2078.12,-191.77 2067.64,-193.3 2070.88,-199.5"/>
<text text-anchor="middle" x="2131.49" y="-217.8" font-family="Times,serif" font-size="14.00">original knowledge source</text>
</g>
<!-- primary knowledge source -->
<g id="node16" class="node">
<title>primary knowledge source</title>
<ellipse fill="none" stroke="blue" cx="2268.49" cy="-178" rx="108.58" ry="18"/>
<text text-anchor="middle" x="2268.49" y="-174.3" font-family="Times,serif" font-size="14.00">information resource</text>
</g>
<!-- reaction to participant association&#45;&gt;primary knowledge source -->
<g id="edge15" class="edge">
<title>reaction to participant association&#45;&gt;primary knowledge source</title>
<path fill="none" stroke="blue" d="M1930.81,-252.26C1950.42,-250.44 1970.51,-248.62 1989.49,-247 2041.89,-242.51 2178.55,-252.74 2225.49,-229 2236.44,-223.46 2245.76,-213.79 2252.89,-204.43"/>
<polygon fill="blue" stroke="blue" points="2255.9,-206.23 2258.81,-196.04 2250.18,-202.19 2255.9,-206.23"/>
<text text-anchor="middle" x="2339.49" y="-217.8" font-family="Times,serif" font-size="14.00">primary knowledge source</text>
</g>
<!-- aggregator knowledge source -->
<g id="node17" class="node">
<title>aggregator knowledge source</title>
<ellipse fill="none" stroke="blue" cx="2503.49" cy="-178" rx="108.58" ry="18"/>
<text text-anchor="middle" x="2503.49" y="-174.3" font-family="Times,serif" font-size="14.00">information resource</text>
</g>
<!-- reaction to participant association&#45;&gt;aggregator knowledge source -->
<g id="edge16" class="edge">
<title>reaction to participant association&#45;&gt;aggregator knowledge source</title>
<path fill="none" stroke="blue" d="M1927.88,-251.93C1948.4,-250.08 1969.55,-248.35 1989.49,-247 2039.3,-243.64 2391.55,-246.02 2438.49,-229 2442.85,-227.42 2459.6,-214.5 2475.01,-202.19"/>
<polygon fill="blue" stroke="blue" points="2477.27,-204.86 2482.87,-195.87 2472.89,-199.4 2477.27,-204.86"/>
<text text-anchor="middle" x="2566.99" y="-217.8" font-family="Times,serif" font-size="14.00">aggregator knowledge source</text>
</g>
<!-- timepoint -->
<g id="node18" class="node">
<title>timepoint</title>
<ellipse fill="none" stroke="blue" cx="2685.49" cy="-178" rx="55.49" ry="18"/>
<text text-anchor="middle" x="2685.49" y="-174.3" font-family="Times,serif" font-size="14.00">time type</text>
</g>
<!-- reaction to participant association&#45;&gt;timepoint -->
<g id="edge17" class="edge">
<title>reaction to participant association&#45;&gt;timepoint</title>
<path fill="none" stroke="blue" d="M1926.42,-251.82C1947.39,-249.95 1969.08,-248.24 1989.49,-247 2027.48,-244.7 2645.13,-253.24 2674.49,-229 2681.21,-223.45 2684.4,-214.81 2685.77,-206.26"/>
<polygon fill="blue" stroke="blue" points="2689.27,-206.37 2686.66,-196.1 2682.3,-205.75 2689.27,-206.37"/>
<text text-anchor="middle" x="2719.49" y="-217.8" font-family="Times,serif" font-size="14.00">timepoint</text>
</g>
<!-- type -->
<g id="node19" class="node">
<title>type</title>
<ellipse fill="none" stroke="black" cx="2789.49" cy="-178" rx="31.4" ry="18"/>
<text text-anchor="middle" x="2789.49" y="-174.3" font-family="Times,serif" font-size="14.00">type</text>
</g>
<!-- reaction to participant association&#45;&gt;type -->
<g id="edge18" class="edge">
<title>reaction to participant association&#45;&gt;type</title>
<path fill="none" stroke="blue" d="M1926.42,-251.77C1947.39,-249.91 1969.07,-248.21 1989.49,-247 2032.15,-244.48 2721.39,-250.22 2758.49,-229 2767.7,-223.73 2774.54,-214.5 2779.42,-205.4"/>
<polygon fill="blue" stroke="blue" points="2782.69,-206.66 2783.8,-196.12 2776.36,-203.66 2782.69,-206.66"/>
<text text-anchor="middle" x="2789.49" y="-217.8" font-family="Times,serif" font-size="14.00">type</text>
</g>
<!-- category -->
<g id="node21" class="node">
<title>category</title>
<ellipse fill="none" stroke="black" cx="2890.49" cy="-178" rx="51.19" ry="18"/>
<text text-anchor="middle" x="2890.49" y="-174.3" font-family="Times,serif" font-size="14.00">category</text>
</g>
<!-- reaction to participant association&#45;&gt;category -->
<g id="edge19" class="edge">
<title>reaction to participant association&#45;&gt;category</title>
<path fill="none" stroke="blue" d="M1925.94,-251.79C1947.06,-249.91 1968.92,-248.2 1989.49,-247 2080.46,-241.69 2722.09,-254.84 2809.49,-229 2828.83,-223.28 2848.14,-211.65 2863.05,-201.05"/>
<polygon fill="blue" stroke="blue" points="2865.32,-203.72 2871.29,-194.97 2861.16,-198.09 2865.32,-203.72"/>
<text text-anchor="middle" x="2874.99" y="-217.8" font-family="Times,serif" font-size="14.00">category</text>
</g>
<!-- object -->
<g id="node23" class="node">
<title>object</title>
<ellipse fill="none" stroke="black" cx="3609.49" cy="-91" rx="38.99" ry="18"/>
<text text-anchor="middle" x="3609.49" y="-87.3" font-family="Times,serif" font-size="14.00">object</text>
</g>
<!-- reaction to participant association&#45;&gt;object -->
<g id="edge20" class="edge">
<title>reaction to participant association&#45;&gt;object</title>
<path fill="none" stroke="blue" d="M1925.94,-251.75C1947.06,-249.88 1968.92,-248.18 1989.49,-247 2040.58,-244.08 2862.49,-246.77 2910.49,-229 2932.1,-221 2933.43,-211.5 2950.49,-196 2967.23,-180.78 2966.08,-169.78 2986.49,-160 3087.88,-111.39 3431.66,-96.95 3560.33,-93.19"/>
<polygon fill="blue" stroke="blue" points="3560.77,-96.68 3570.66,-92.89 3560.57,-89.68 3560.77,-96.68"/>
<text text-anchor="middle" x="3008.49" y="-174.3" font-family="Times,serif" font-size="14.00">object</text>
</g>
<!-- stoichiometry -->
<g id="node25" class="node">
<title>stoichiometry</title>
<ellipse fill="none" stroke="blue" cx="3083.49" cy="-178" rx="44.39" ry="18"/>
<text text-anchor="middle" x="3083.49" y="-174.3" font-family="Times,serif" font-size="14.00">integer</text>
</g>
<!-- reaction to participant association&#45;&gt;stoichiometry -->
<g id="edge21" class="edge">
<title>reaction to participant association&#45;&gt;stoichiometry</title>
<path fill="none" stroke="blue" d="M1925.93,-251.72C1947.05,-249.85 1968.92,-248.16 1989.49,-247 2100.66,-240.73 2883.82,-257.4 2991.49,-229 3013.94,-223.08 3036.89,-210.62 3054.25,-199.62"/>
<polygon fill="blue" stroke="blue" points="3056.33,-202.44 3062.79,-194.04 3052.5,-196.58 3056.33,-202.44"/>
<text text-anchor="middle" x="3078.99" y="-217.8" font-family="Times,serif" font-size="14.00">stoichiometry</text>
</g>
<!-- reaction direction -->
<g id="node26" class="node">
<title>reaction direction</title>
<ellipse fill="none" stroke="blue" cx="3270.49" cy="-178" rx="124.58" ry="18"/>
<text text-anchor="middle" x="3270.49" y="-174.3" font-family="Times,serif" font-size="14.00">reaction_direction_enum</text>
</g>
<!-- reaction to participant association&#45;&gt;reaction direction -->
<g id="edge22" class="edge">
<title>reaction to participant association&#45;&gt;reaction direction</title>
<path fill="none" stroke="blue" d="M1925.45,-251.73C1946.72,-249.84 1968.76,-248.15 1989.49,-247 2116.31,-239.99 3007.56,-251.95 3132.49,-229 3164.74,-223.07 3199.44,-210.47 3225.98,-199.4"/>
<polygon fill="blue" stroke="blue" points="3227.53,-202.54 3235.36,-195.41 3224.79,-196.1 3227.53,-202.54"/>
<text text-anchor="middle" x="3250.99" y="-217.8" font-family="Times,serif" font-size="14.00">reaction direction</text>
</g>
<!-- reaction side -->
<g id="node27" class="node">
<title>reaction side</title>
<ellipse fill="none" stroke="blue" cx="3515.49" cy="-178" rx="102.88" ry="18"/>
<text text-anchor="middle" x="3515.49" y="-174.3" font-family="Times,serif" font-size="14.00">reaction_side_enum</text>
</g>
<!-- reaction to participant association&#45;&gt;reaction side -->
<g id="edge23" class="edge">
<title>reaction to participant association&#45;&gt;reaction side</title>
<path fill="none" stroke="blue" d="M1925.45,-251.69C1946.72,-249.81 1968.76,-248.12 1989.49,-247 2136.95,-239.01 3172.07,-248.3 3318.49,-229 3366.7,-222.65 3420.1,-208.64 3459.12,-197.07"/>
<polygon fill="blue" stroke="blue" points="3460.15,-200.41 3468.72,-194.18 3458.14,-193.71 3460.15,-200.41"/>
<text text-anchor="middle" x="3440.99" y="-217.8" font-family="Times,serif" font-size="14.00">reaction side</text>
</g>
<!-- subject -->
<g id="node28" class="node">
<title>subject</title>
<ellipse fill="none" stroke="black" cx="3680.49" cy="-178" rx="44.39" ry="18"/>
<text text-anchor="middle" x="3680.49" y="-174.3" font-family="Times,serif" font-size="14.00">subject</text>
</g>
<!-- reaction to participant association&#45;&gt;subject -->
<g id="edge24" class="edge">
<title>reaction to participant association&#45;&gt;subject</title>
<path fill="none" stroke="blue" d="M1924.97,-251.71C1946.39,-249.81 1968.6,-248.11 1989.49,-247 2156.15,-238.1 3325.89,-249.81 3491.49,-229 3543.11,-222.51 3600.68,-205.86 3638.56,-193.55"/>
<polygon fill="blue" stroke="blue" points="3639.83,-196.82 3648.23,-190.37 3637.64,-190.17 3639.83,-196.82"/>
<text text-anchor="middle" x="3590.49" y="-217.8" font-family="Times,serif" font-size="14.00">subject</text>
</g>
<!-- association_type -->
<g id="node20" class="node">
<title>association_type</title>
<ellipse fill="none" stroke="blue" cx="2036.49" cy="-265" rx="38.19" ry="18"/>
<text text-anchor="middle" x="2036.49" y="-261.3" font-family="Times,serif" font-size="14.00">string</text>
</g>
<!-- association_category -->
<g id="node22" class="node">
<title>association_category</title>
<ellipse fill="none" stroke="blue" cx="2167.49" cy="-265" rx="74.99" ry="18"/>
<text text-anchor="middle" x="2167.49" y="-261.3" font-family="Times,serif" font-size="14.00">category type</text>
</g>
<!-- relation -->
<g id="node30" class="node">
<title>relation</title>
<ellipse fill="none" stroke="black" cx="3644.49" cy="-18" rx="46.59" ry="18"/>
<text text-anchor="middle" x="3644.49" y="-14.3" font-family="Times,serif" font-size="14.00">relation</text>
</g>
<!-- object&#45;&gt;relation -->
<g id="edge27" class="edge">
<title>object&#45;&gt;relation</title>
<path fill="none" stroke="black" stroke-dasharray="1,5" d="M3617.78,-73.17C3621.86,-64.9 3626.88,-54.72 3631.45,-45.44"/>
<polygon fill="black" stroke="black" points="3634.73,-46.72 3636.01,-36.2 3628.45,-43.62 3634.73,-46.72"/>
</g>
<!-- chemical to chemical association_object -->
<g id="node24" class="node">
<title>chemical to chemical association_object</title>
<ellipse fill="none" stroke="blue" cx="2342.49" cy="-265" rx="81.79" ry="18"/>
<text text-anchor="middle" x="2342.49" y="-261.3" font-family="Times,serif" font-size="14.00">chemical entity</text>
</g>
<!-- subject&#45;&gt;object -->
<g id="edge25" class="edge">
<title>subject&#45;&gt;object</title>
<path fill="none" stroke="black" d="M3644.11,-167.42C3631.25,-162.12 3618.11,-154.06 3610.49,-142 3606.23,-135.26 3604.9,-126.93 3604.94,-119.01"/>
<polygon fill="black" stroke="black" points="3608.43,-119.23 3605.65,-109.01 3601.45,-118.73 3608.43,-119.23"/>
<text text-anchor="middle" x="3638.49" y="-130.8" font-family="Times,serif" font-size="14.00">relation</text>
</g>
<!-- subject&#45;&gt;relation -->
<g id="edge26" class="edge">
<title>subject&#45;&gt;relation</title>
<path fill="none" stroke="black" stroke-dasharray="1,5" d="M3676.84,-160.05C3672.38,-139.44 3664.56,-103.63 3657.49,-73 3655.45,-64.18 3653.16,-54.57 3651.07,-45.94"/>
<polygon fill="black" stroke="black" points="3654.42,-44.9 3648.67,-36.01 3647.62,-46.55 3654.42,-44.9"/>
</g>
<!-- reaction to participant association_subject -->
<g id="node29" class="node">
<title>reaction to participant association_subject</title>
<ellipse fill="none" stroke="blue" cx="2529.49" cy="-265" rx="87.18" ry="18"/>
<text text-anchor="middle" x="2529.49" y="-261.3" font-family="Times,serif" font-size="14.00">molecular entity</text>
</g>
</g>
</svg>
