<?xml version="1.0" encoding="UTF-8" standalone="no"?>
<!DOCTYPE svg PUBLIC "-//W3C//DTD SVG 1.1//EN"
 "http://www.w3.org/Graphics/SVG/1.1/DTD/svg11.dtd">
<!-- Generated by graphviz version 2.43.0 (0)
 -->
<!-- Title: %3 Pages: 1 -->
<svg width="5583pt" height="291pt"
 viewBox="0.00 0.00 5582.63 291.00" xmlns="http://www.w3.org/2000/svg" xmlns:xlink="http://www.w3.org/1999/xlink">
<g id="graph0" class="graph" transform="scale(1 1) rotate(0) translate(4 287)">
<title>%3</title>
<polygon fill="white" stroke="transparent" points="-4,4 -4,-287 5578.63,-287 5578.63,4 -4,4"/>
<!-- reaction to catalyst association -->
<g id="node1" class="node">
<title>reaction to catalyst association</title>
<ellipse fill="none" stroke="black" cx="2919.63" cy="-265" rx="155.17" ry="18"/>
<text text-anchor="middle" x="2919.63" y="-261.3" font-family="Times,serif" font-size="14.00">reaction to catalyst association</text>
</g>
<!-- reaction to participant association -->
<g id="node2" class="node">
<title>reaction to participant association</title>
<ellipse fill="none" stroke="black" cx="169.63" cy="-178" rx="169.77" ry="18"/>
<text text-anchor="middle" x="169.63" y="-174.3" font-family="Times,serif" font-size="14.00">reaction to participant association</text>
</g>
<!-- reaction to catalyst association&#45;&gt;reaction to participant association -->
<g id="edge1" class="edge">
<title>reaction to catalyst association&#45;&gt;reaction to participant association</title>
<path fill="none" stroke="black" d="M2765.15,-263.08C2264.76,-259.93 707.65,-248.63 481.63,-229 404.5,-222.3 317.58,-207.79 255.11,-196.12"/>
<polygon fill="black" stroke="black" points="255.39,-192.61 244.91,-194.2 254.09,-199.49 255.39,-192.61"/>
<text text-anchor="middle" x="495.63" y="-217.8" font-family="Times,serif" font-size="14.00">is_a</text>
</g>
<!-- id -->
<g id="node3" class="node">
<title>id</title>
<ellipse fill="none" stroke="blue" cx="395.63" cy="-178" rx="38.19" ry="18"/>
<text text-anchor="middle" x="395.63" y="-174.3" font-family="Times,serif" font-size="14.00">string</text>
</g>
<!-- reaction to catalyst association&#45;&gt;id -->
<g id="edge2" class="edge">
<title>reaction to catalyst association&#45;&gt;id</title>
<path fill="none" stroke="blue" d="M2764.56,-263.33C2280.73,-260.99 818.46,-252.08 605.63,-229 532.58,-221.08 514.44,-215.65 443.63,-196 440.53,-195.14 437.33,-194.17 434.13,-193.16"/>
<polygon fill="blue" stroke="blue" points="435.21,-189.83 424.62,-190 433,-196.47 435.21,-189.83"/>
<text text-anchor="middle" x="612.63" y="-217.8" font-family="Times,serif" font-size="14.00">id</text>
</g>
<!-- iri -->
<g id="node4" class="node">
<title>iri</title>
<ellipse fill="none" stroke="blue" cx="496.63" cy="-178" rx="44.39" ry="18"/>
<text text-anchor="middle" x="496.63" y="-174.3" font-family="Times,serif" font-size="14.00">iri type</text>
</g>
<!-- reaction to catalyst association&#45;&gt;iri -->
<g id="edge3" class="edge">
<title>reaction to catalyst association&#45;&gt;iri</title>
<path fill="none" stroke="blue" d="M2764.99,-263.09C2298.17,-260.13 922.84,-249.74 721.63,-229 644.21,-221.02 625.05,-215.26 549.63,-196 546.26,-195.14 542.78,-194.18 539.29,-193.17"/>
<polygon fill="blue" stroke="blue" points="540.12,-189.77 529.53,-190.23 538.1,-196.47 540.12,-189.77"/>
<text text-anchor="middle" x="729.63" y="-217.8" font-family="Times,serif" font-size="14.00">iri</text>
</g>
<!-- name -->
<g id="node5" class="node">
<title>name</title>
<ellipse fill="none" stroke="blue" cx="615.63" cy="-178" rx="56.59" ry="18"/>
<text text-anchor="middle" x="615.63" y="-174.3" font-family="Times,serif" font-size="14.00">label type</text>
</g>
<!-- reaction to catalyst association&#45;&gt;name -->
<g id="edge4" class="edge">
<title>reaction to catalyst association&#45;&gt;name</title>
<path fill="none" stroke="blue" d="M2764.74,-263.35C2312.08,-261.19 1011.28,-252.93 820.63,-229 766.24,-222.17 705.38,-206.24 664.21,-194.18"/>
<polygon fill="blue" stroke="blue" points="665.02,-190.77 654.44,-191.28 663.03,-197.48 665.02,-190.77"/>
<text text-anchor="middle" x="840.63" y="-217.8" font-family="Times,serif" font-size="14.00">name</text>
</g>
<!-- description -->
<g id="node6" class="node">
<title>description</title>
<ellipse fill="none" stroke="blue" cx="765.63" cy="-178" rx="75.29" ry="18"/>
<text text-anchor="middle" x="765.63" y="-174.3" font-family="Times,serif" font-size="14.00">narrative text</text>
</g>
<!-- reaction to catalyst association&#45;&gt;description -->
<g id="edge5" class="edge">
<title>reaction to catalyst association&#45;&gt;description</title>
<path fill="none" stroke="blue" d="M2764.44,-263.79C2327.42,-262.83 1106.58,-257.6 927.63,-229 887.86,-222.64 844.32,-208.8 812.4,-197.28"/>
<polygon fill="blue" stroke="blue" points="813.48,-193.95 802.89,-193.79 811.07,-200.52 813.48,-193.95"/>
<text text-anchor="middle" x="968.13" y="-217.8" font-family="Times,serif" font-size="14.00">description</text>
</g>
<!-- has attribute -->
<g id="node7" class="node">
<title>has attribute</title>
<ellipse fill="none" stroke="blue" cx="910.63" cy="-178" rx="51.99" ry="18"/>
<text text-anchor="middle" x="910.63" y="-174.3" font-family="Times,serif" font-size="14.00">attribute</text>
</g>
<!-- reaction to catalyst association&#45;&gt;has attribute -->
<g id="edge6" class="edge">
<title>reaction to catalyst association&#45;&gt;has attribute</title>
<path fill="none" stroke="blue" d="M2764.66,-263.48C2350.94,-261.76 1240.74,-254.77 1076.63,-229 1033.79,-222.27 986.59,-207.28 953.5,-195.45"/>
<polygon fill="blue" stroke="blue" points="954.3,-192.02 943.71,-191.9 951.92,-198.6 954.3,-192.02"/>
<text text-anchor="middle" x="1123.63" y="-217.8" font-family="Times,serif" font-size="14.00">has attribute</text>
</g>
<!-- predicate -->
<g id="node8" class="node">
<title>predicate</title>
<ellipse fill="none" stroke="blue" cx="1058.63" cy="-178" rx="77.99" ry="18"/>
<text text-anchor="middle" x="1058.63" y="-174.3" font-family="Times,serif" font-size="14.00">predicate type</text>
</g>
<!-- reaction to catalyst association&#45;&gt;predicate -->
<g id="edge7" class="edge">
<title>reaction to catalyst association&#45;&gt;predicate</title>
<path fill="none" stroke="blue" d="M2765.34,-262.85C2380.04,-259.67 1396,-249.64 1248.63,-229 1201.19,-222.36 1148.62,-207.95 1110.82,-196.3"/>
<polygon fill="blue" stroke="blue" points="1111.65,-192.89 1101.06,-193.25 1109.56,-199.58 1111.65,-192.89"/>
<text text-anchor="middle" x="1282.63" y="-217.8" font-family="Times,serif" font-size="14.00">predicate</text>
</g>
<!-- negated -->
<g id="node9" class="node">
<title>negated</title>
<ellipse fill="none" stroke="blue" cx="1201.63" cy="-178" rx="46.59" ry="18"/>
<text text-anchor="middle" x="1201.63" y="-174.3" font-family="Times,serif" font-size="14.00">boolean</text>
</g>
<!-- reaction to catalyst association&#45;&gt;negated -->
<g id="edge8" class="edge">
<title>reaction to catalyst association&#45;&gt;negated</title>
<path fill="none" stroke="blue" d="M2764.21,-264.57C2430.89,-265.12 1656.48,-262.58 1395.63,-229 1343.07,-222.23 1284.34,-205.81 1245.42,-193.62"/>
<polygon fill="blue" stroke="blue" points="1246.07,-190.15 1235.48,-190.46 1243.95,-196.82 1246.07,-190.15"/>
<text text-anchor="middle" x="1424.63" y="-217.8" font-family="Times,serif" font-size="14.00">negated</text>
</g>
<!-- qualifiers -->
<g id="node10" class="node">
<title>qualifiers</title>
<ellipse fill="none" stroke="blue" cx="1342.63" cy="-178" rx="76.89" ry="18"/>
<text text-anchor="middle" x="1342.63" y="-174.3" font-family="Times,serif" font-size="14.00">ontology class</text>
</g>
<!-- reaction to catalyst association&#45;&gt;qualifiers -->
<g id="edge9" class="edge">
<title>reaction to catalyst association&#45;&gt;qualifiers</title>
<path fill="none" stroke="blue" d="M2764.05,-264.7C2452.86,-265.34 1763.56,-262.73 1529.63,-229 1482.92,-222.26 1431.18,-207.87 1393.98,-196.25"/>
<polygon fill="blue" stroke="blue" points="1394.97,-192.89 1384.38,-193.2 1392.85,-199.56 1394.97,-192.89"/>
<text text-anchor="middle" x="1563.13" y="-217.8" font-family="Times,serif" font-size="14.00">qualifiers</text>
</g>
<!-- publications -->
<g id="node11" class="node">
<title>publications</title>
<ellipse fill="none" stroke="blue" cx="1499.63" cy="-178" rx="62.29" ry="18"/>
<text text-anchor="middle" x="1499.63" y="-174.3" font-family="Times,serif" font-size="14.00">publication</text>
</g>
<!-- reaction to catalyst association&#45;&gt;publications -->
<g id="edge10" class="edge">
<title>reaction to catalyst association&#45;&gt;publications</title>
<path fill="none" stroke="blue" d="M2764.23,-264.82C2476.59,-265.48 1871.65,-262.63 1664.63,-229 1623.27,-222.28 1577.79,-207.95 1545.08,-196.35"/>
<polygon fill="blue" stroke="blue" points="1545.95,-192.94 1535.35,-192.85 1543.58,-199.53 1545.95,-192.94"/>
<text text-anchor="middle" x="1708.63" y="-217.8" font-family="Times,serif" font-size="14.00">publications</text>
</g>
<!-- has evidence -->
<g id="node12" class="node">
<title>has evidence</title>
<ellipse fill="none" stroke="blue" cx="1655.63" cy="-178" rx="75.29" ry="18"/>
<text text-anchor="middle" x="1655.63" y="-174.3" font-family="Times,serif" font-size="14.00">evidence type</text>
</g>
<!-- reaction to catalyst association&#45;&gt;has evidence -->
<g id="edge11" class="edge">
<title>reaction to catalyst association&#45;&gt;has evidence</title>
<path fill="none" stroke="blue" d="M2764.39,-264.06C2505.7,-263.33 1997.4,-258.08 1820.63,-229 1780.22,-222.35 1735.86,-208.52 1703.33,-197.09"/>
<polygon fill="blue" stroke="blue" points="1704.22,-193.7 1693.63,-193.63 1701.87,-200.29 1704.22,-193.7"/>
<text text-anchor="middle" x="1867.13" y="-217.8" font-family="Times,serif" font-size="14.00">has evidence</text>
</g>
<!-- knowledge source -->
<g id="node13" class="node">
<title>knowledge source</title>
<ellipse fill="none" stroke="blue" cx="1857.63" cy="-178" rx="108.58" ry="18"/>
<text text-anchor="middle" x="1857.63" y="-174.3" font-family="Times,serif" font-size="14.00">information resource</text>
</g>
<!-- reaction to catalyst association&#45;&gt;knowledge source -->
<g id="edge12" class="edge">
<title>reaction to catalyst association&#45;&gt;knowledge source</title>
<path fill="none" stroke="blue" d="M2766.42,-261.99C2514.63,-258.15 2033.56,-248.39 1957.63,-229 1934.52,-223.1 1910.56,-211.34 1891.88,-200.71"/>
<polygon fill="blue" stroke="blue" points="1893.57,-197.64 1883.17,-195.61 1890.03,-203.68 1893.57,-197.64"/>
<text text-anchor="middle" x="2022.13" y="-217.8" font-family="Times,serif" font-size="14.00">knowledge source</text>
</g>
<!-- primary knowledge source -->
<g id="node14" class="node">
<title>primary knowledge source</title>
<ellipse fill="none" stroke="blue" cx="2092.63" cy="-178" rx="108.58" ry="18"/>
<text text-anchor="middle" x="2092.63" y="-174.3" font-family="Times,serif" font-size="14.00">information resource</text>
</g>
<!-- reaction to catalyst association&#45;&gt;primary knowledge source -->
<g id="edge13" class="edge">
<title>reaction to catalyst association&#45;&gt;primary knowledge source</title>
<path fill="none" stroke="blue" d="M2765.64,-262.52C2534.62,-259.59 2122.66,-251.25 2098.63,-229 2092.5,-223.32 2090.11,-214.91 2089.53,-206.59"/>
<polygon fill="blue" stroke="blue" points="2093.03,-206.36 2089.6,-196.33 2086.03,-206.31 2093.03,-206.36"/>
<text text-anchor="middle" x="2193.63" y="-217.8" font-family="Times,serif" font-size="14.00">primary knowledge source</text>
</g>
<!-- aggregator knowledge source -->
<g id="node15" class="node">
<title>aggregator knowledge source</title>
<ellipse fill="none" stroke="blue" cx="2327.63" cy="-178" rx="108.58" ry="18"/>
<text text-anchor="middle" x="2327.63" y="-174.3" font-family="Times,serif" font-size="14.00">information resource</text>
</g>
<!-- reaction to catalyst association&#45;&gt;aggregator knowledge source -->
<g id="edge14" class="edge">
<title>reaction to catalyst association&#45;&gt;aggregator knowledge source</title>
<path fill="none" stroke="blue" d="M2768.52,-260.67C2589.04,-255.97 2311.7,-245.99 2295.63,-229 2288.48,-221.43 2291.96,-212.05 2298.8,-203.46"/>
<polygon fill="blue" stroke="blue" points="2301.59,-205.59 2305.81,-195.87 2296.45,-200.84 2301.59,-205.59"/>
<text text-anchor="middle" x="2402.13" y="-217.8" font-family="Times,serif" font-size="14.00">aggregator knowledge source</text>
</g>
<!-- timepoint -->
<g id="node16" class="node">
<title>timepoint</title>
<ellipse fill="none" stroke="blue" cx="2509.63" cy="-178" rx="55.49" ry="18"/>
<text text-anchor="middle" x="2509.63" y="-174.3" font-family="Times,serif" font-size="14.00">time type</text>
</g>
<!-- reaction to catalyst association&#45;&gt;timepoint -->
<g id="edge15" class="edge">
<title>reaction to catalyst association&#45;&gt;timepoint</title>
<path fill="none" stroke="blue" d="M2772.14,-259.29C2666.92,-254.54 2540.76,-245.49 2521.63,-229 2515.1,-223.36 2511.79,-214.85 2510.2,-206.44"/>
<polygon fill="blue" stroke="blue" points="2513.66,-205.95 2509.01,-196.43 2506.71,-206.78 2513.66,-205.95"/>
<text text-anchor="middle" x="2556.63" y="-217.8" font-family="Times,serif" font-size="14.00">timepoint</text>
</g>
<!-- original subject -->
<g id="node17" class="node">
<title>original subject</title>
<ellipse fill="none" stroke="blue" cx="2621.63" cy="-178" rx="38.19" ry="18"/>
<text text-anchor="middle" x="2621.63" y="-174.3" font-family="Times,serif" font-size="14.00">string</text>
</g>
<!-- reaction to catalyst association&#45;&gt;original subject -->
<g id="edge16" class="edge">
<title>reaction to catalyst association&#45;&gt;original subject</title>
<path fill="none" stroke="blue" d="M2778.96,-257.26C2698.54,-251.91 2611.17,-242.98 2598.63,-229 2591.96,-221.56 2594.58,-211.86 2600.01,-202.98"/>
<polygon fill="blue" stroke="blue" points="2602.88,-204.98 2605.87,-194.82 2597.19,-200.9 2602.88,-204.98"/>
<text text-anchor="middle" x="2654.63" y="-217.8" font-family="Times,serif" font-size="14.00">original subject</text>
</g>
<!-- original predicate -->
<g id="node18" class="node">
<title>original predicate</title>
<ellipse fill="none" stroke="blue" cx="2735.63" cy="-178" rx="57.39" ry="18"/>
<text text-anchor="middle" x="2735.63" y="-174.3" font-family="Times,serif" font-size="14.00">uriorcurie</text>
</g>
<!-- reaction to catalyst association&#45;&gt;original predicate -->
<g id="edge17" class="edge">
<title>reaction to catalyst association&#45;&gt;original predicate</title>
<path fill="none" stroke="blue" d="M2790.93,-254.86C2757.71,-249.7 2728.26,-241.63 2717.63,-229 2711.79,-222.05 2713.1,-213.06 2716.92,-204.62"/>
<polygon fill="blue" stroke="blue" points="2720.03,-206.24 2721.84,-195.8 2713.91,-202.83 2720.03,-206.24"/>
<text text-anchor="middle" x="2781.13" y="-217.8" font-family="Times,serif" font-size="14.00">original predicate</text>
</g>
<!-- original object -->
<g id="node19" class="node">
<title>original object</title>
<ellipse fill="none" stroke="blue" cx="2849.63" cy="-178" rx="38.19" ry="18"/>
<text text-anchor="middle" x="2849.63" y="-174.3" font-family="Times,serif" font-size="14.00">string</text>
</g>
<!-- reaction to catalyst association&#45;&gt;original object -->
<g id="edge18" class="edge">
<title>reaction to catalyst association&#45;&gt;original object</title>
<path fill="none" stroke="blue" d="M2873.97,-247.64C2866.02,-242.81 2858.69,-236.69 2853.63,-229 2849.24,-222.32 2847.49,-214 2847.04,-206.08"/>
<polygon fill="blue" stroke="blue" points="2850.54,-206.09 2847.1,-196.07 2843.54,-206.05 2850.54,-206.09"/>
<text text-anchor="middle" x="2905.13" y="-217.8" font-family="Times,serif" font-size="14.00">original object</text>
</g>
<!-- subject category -->
<g id="node20" class="node">
<title>subject category</title>
<ellipse fill="none" stroke="blue" cx="2982.63" cy="-178" rx="76.89" ry="18"/>
<text text-anchor="middle" x="2982.63" y="-174.3" font-family="Times,serif" font-size="14.00">ontology class</text>
</g>
<!-- reaction to catalyst association&#45;&gt;subject category -->
<g id="edge19" class="edge">
<title>reaction to catalyst association&#45;&gt;subject category</title>
<path fill="none" stroke="blue" d="M2943.08,-247.1C2949.34,-241.81 2955.72,-235.61 2960.63,-229 2965.86,-221.97 2970.19,-213.49 2973.57,-205.54"/>
<polygon fill="blue" stroke="blue" points="2976.83,-206.81 2977.24,-196.22 2970.32,-204.25 2976.83,-206.81"/>
<text text-anchor="middle" x="3029.13" y="-217.8" font-family="Times,serif" font-size="14.00">subject category</text>
</g>
<!-- object category -->
<g id="node21" class="node">
<title>object category</title>
<ellipse fill="none" stroke="blue" cx="3153.63" cy="-178" rx="76.89" ry="18"/>
<text text-anchor="middle" x="3153.63" y="-174.3" font-family="Times,serif" font-size="14.00">ontology class</text>
</g>
<!-- reaction to catalyst association&#45;&gt;object category -->
<g id="edge20" class="edge">
<title>reaction to catalyst association&#45;&gt;object category</title>
<path fill="none" stroke="blue" d="M3023.38,-251.53C3046.86,-246.41 3071.18,-239.18 3092.63,-229 3106.24,-222.54 3119.41,-212.41 3130.01,-202.94"/>
<polygon fill="blue" stroke="blue" points="3132.64,-205.28 3137.58,-195.91 3127.87,-200.15 3132.64,-205.28"/>
<text text-anchor="middle" x="3172.13" y="-217.8" font-family="Times,serif" font-size="14.00">object category</text>
</g>
<!-- subject closure -->
<g id="node22" class="node">
<title>subject closure</title>
<ellipse fill="none" stroke="blue" cx="3286.63" cy="-178" rx="38.19" ry="18"/>
<text text-anchor="middle" x="3286.63" y="-174.3" font-family="Times,serif" font-size="14.00">string</text>
</g>
<!-- reaction to catalyst association&#45;&gt;subject closure -->
<g id="edge21" class="edge">
<title>reaction to catalyst association&#45;&gt;subject closure</title>
<path fill="none" stroke="blue" d="M3030.37,-252.37C3118.17,-243.03 3226.92,-231.13 3231.63,-229 3244.81,-223.04 3256.99,-212.72 3266.52,-203"/>
<polygon fill="blue" stroke="blue" points="3269.31,-205.13 3273.56,-195.42 3264.19,-200.36 3269.31,-205.13"/>
<text text-anchor="middle" x="3309.13" y="-217.8" font-family="Times,serif" font-size="14.00">subject closure</text>
</g>
<!-- object closure -->
<g id="node23" class="node">
<title>object closure</title>
<ellipse fill="none" stroke="blue" cx="3386.63" cy="-178" rx="38.19" ry="18"/>
<text text-anchor="middle" x="3386.63" y="-174.3" font-family="Times,serif" font-size="14.00">string</text>
</g>
<!-- reaction to catalyst association&#45;&gt;object closure -->
<g id="edge22" class="edge">
<title>reaction to catalyst association&#45;&gt;object closure</title>
<path fill="none" stroke="blue" d="M3028.75,-252.15C3047.38,-250.3 3066.56,-248.51 3084.63,-247 3116.03,-244.38 3342.28,-247.7 3367.63,-229 3375.05,-223.53 3379.57,-214.8 3382.32,-206.14"/>
<polygon fill="blue" stroke="blue" points="3385.77,-206.78 3384.82,-196.23 3378.99,-205.07 3385.77,-206.78"/>
<text text-anchor="middle" x="3429.63" y="-217.8" font-family="Times,serif" font-size="14.00">object closure</text>
</g>
<!-- subject category closure -->
<g id="node24" class="node">
<title>subject category closure</title>
<ellipse fill="none" stroke="blue" cx="3519.63" cy="-178" rx="76.89" ry="18"/>
<text text-anchor="middle" x="3519.63" y="-174.3" font-family="Times,serif" font-size="14.00">ontology class</text>
</g>
<!-- reaction to catalyst association&#45;&gt;subject category closure -->
<g id="edge23" class="edge">
<title>reaction to catalyst association&#45;&gt;subject category closure</title>
<path fill="none" stroke="blue" d="M3027.39,-252C3046.45,-250.13 3066.11,-248.37 3084.63,-247 3128.89,-243.72 3444.6,-250.12 3483.63,-229 3493.62,-223.6 3501.51,-214.09 3507.33,-204.8"/>
<polygon fill="blue" stroke="blue" points="3510.37,-206.53 3512.27,-196.11 3504.29,-203.07 3510.37,-206.53"/>
<text text-anchor="middle" x="3588.13" y="-217.8" font-family="Times,serif" font-size="14.00">subject category closure</text>
</g>
<!-- object category closure -->
<g id="node25" class="node">
<title>object category closure</title>
<ellipse fill="none" stroke="blue" cx="3711.63" cy="-178" rx="76.89" ry="18"/>
<text text-anchor="middle" x="3711.63" y="-174.3" font-family="Times,serif" font-size="14.00">ontology class</text>
</g>
<!-- reaction to catalyst association&#45;&gt;object category closure -->
<g id="edge24" class="edge">
<title>reaction to catalyst association&#45;&gt;object category closure</title>
<path fill="none" stroke="blue" d="M3026.49,-251.85C3045.82,-249.98 3065.81,-248.25 3084.63,-247 3117.63,-244.8 3650.87,-245.31 3679.63,-229 3689.05,-223.66 3696.12,-214.29 3701.19,-205.09"/>
<polygon fill="blue" stroke="blue" points="3704.34,-206.63 3705.61,-196.11 3698.06,-203.54 3704.34,-206.63"/>
<text text-anchor="middle" x="3779.13" y="-217.8" font-family="Times,serif" font-size="14.00">object category closure</text>
</g>
<!-- subject namespace -->
<g id="node26" class="node">
<title>subject namespace</title>
<ellipse fill="none" stroke="blue" cx="3901.63" cy="-178" rx="38.19" ry="18"/>
<text text-anchor="middle" x="3901.63" y="-174.3" font-family="Times,serif" font-size="14.00">string</text>
</g>
<!-- reaction to catalyst association&#45;&gt;subject namespace -->
<g id="edge25" class="edge">
<title>reaction to catalyst association&#45;&gt;subject namespace</title>
<path fill="none" stroke="blue" d="M3025.6,-251.82C3045.21,-249.93 3065.52,-248.2 3084.63,-247 3128.01,-244.27 3828.32,-249.51 3866.63,-229 3876.44,-223.75 3884.09,-214.39 3889.71,-205.18"/>
<polygon fill="blue" stroke="blue" points="3892.9,-206.63 3894.64,-196.18 3886.77,-203.27 3892.9,-206.63"/>
<text text-anchor="middle" x="3951.63" y="-217.8" font-family="Times,serif" font-size="14.00">subject namespace</text>
</g>
<!-- object namespace -->
<g id="node27" class="node">
<title>object namespace</title>
<ellipse fill="none" stroke="blue" cx="4060.63" cy="-178" rx="38.19" ry="18"/>
<text text-anchor="middle" x="4060.63" y="-174.3" font-family="Times,serif" font-size="14.00">string</text>
</g>
<!-- reaction to catalyst association&#45;&gt;object namespace -->
<g id="edge26" class="edge">
<title>reaction to catalyst association&#45;&gt;object namespace</title>
<path fill="none" stroke="blue" d="M3025.6,-251.76C3045.2,-249.87 3065.52,-248.17 3084.63,-247 3136.71,-243.82 3977.27,-252.93 4023.63,-229 4033.96,-223.67 4042.14,-213.99 4048.16,-204.55"/>
<polygon fill="blue" stroke="blue" points="4051.29,-206.14 4053.26,-195.73 4045.23,-202.63 4051.29,-206.14"/>
<text text-anchor="middle" x="4104.63" y="-217.8" font-family="Times,serif" font-size="14.00">object namespace</text>
</g>
<!-- subject label closure -->
<g id="node28" class="node">
<title>subject label closure</title>
<ellipse fill="none" stroke="blue" cx="4211.63" cy="-178" rx="38.19" ry="18"/>
<text text-anchor="middle" x="4211.63" y="-174.3" font-family="Times,serif" font-size="14.00">string</text>
</g>
<!-- reaction to catalyst association&#45;&gt;subject label closure -->
<g id="edge27" class="edge">
<title>reaction to catalyst association&#45;&gt;subject label closure</title>
<path fill="none" stroke="blue" d="M3025.15,-251.76C3044.89,-249.86 3065.37,-248.15 3084.63,-247 3144.98,-243.4 4118.53,-255.97 4172.63,-229 4183.35,-223.66 4191.99,-213.84 4198.4,-204.3"/>
<polygon fill="blue" stroke="blue" points="4201.39,-206.12 4203.64,-195.77 4195.43,-202.45 4201.39,-206.12"/>
<text text-anchor="middle" x="4264.63" y="-217.8" font-family="Times,serif" font-size="14.00">subject label closure</text>
</g>
<!-- object label closure -->
<g id="node29" class="node">
<title>object label closure</title>
<ellipse fill="none" stroke="blue" cx="4382.63" cy="-178" rx="38.19" ry="18"/>
<text text-anchor="middle" x="4382.63" y="-174.3" font-family="Times,serif" font-size="14.00">string</text>
</g>
<!-- reaction to catalyst association&#45;&gt;object label closure -->
<g id="edge28" class="edge">
<title>reaction to catalyst association&#45;&gt;object label closure</title>
<path fill="none" stroke="blue" d="M3025.15,-251.73C3044.89,-249.83 3065.37,-248.13 3084.63,-247 3119.52,-244.96 4311.25,-244.36 4342.63,-229 4353.49,-223.69 4362.34,-213.87 4368.93,-204.33"/>
<polygon fill="blue" stroke="blue" points="4371.95,-206.11 4374.34,-195.79 4366.03,-202.36 4371.95,-206.11"/>
<text text-anchor="middle" x="4430.13" y="-217.8" font-family="Times,serif" font-size="14.00">object label closure</text>
</g>
<!-- retrieval source ids -->
<g id="node30" class="node">
<title>retrieval source ids</title>
<ellipse fill="none" stroke="blue" cx="4526.63" cy="-178" rx="84.49" ry="18"/>
<text text-anchor="middle" x="4526.63" y="-174.3" font-family="Times,serif" font-size="14.00">retrieval source</text>
</g>
<!-- reaction to catalyst association&#45;&gt;retrieval source ids -->
<g id="edge29" class="edge">
<title>reaction to catalyst association&#45;&gt;retrieval source ids</title>
<path fill="none" stroke="blue" d="M3025.15,-251.7C3044.89,-249.81 3065.37,-248.11 3084.63,-247 3123.99,-244.73 4470.58,-250.48 4503.63,-229 4511.78,-223.7 4517.09,-214.72 4520.52,-205.82"/>
<polygon fill="blue" stroke="blue" points="4523.95,-206.6 4523.66,-196.01 4517.28,-204.47 4523.95,-206.6"/>
<text text-anchor="middle" x="4586.13" y="-217.8" font-family="Times,serif" font-size="14.00">retrieval source ids</text>
</g>
<!-- type -->
<g id="node31" class="node">
<title>type</title>
<ellipse fill="none" stroke="black" cx="4660.63" cy="-178" rx="31.4" ry="18"/>
<text text-anchor="middle" x="4660.63" y="-174.3" font-family="Times,serif" font-size="14.00">type</text>
</g>
<!-- reaction to catalyst association&#45;&gt;type -->
<g id="edge30" class="edge">
<title>reaction to catalyst association&#45;&gt;type</title>
<path fill="none" stroke="blue" d="M3024.7,-251.73C3044.58,-249.81 3065.23,-248.11 3084.63,-247 3106.48,-245.75 4644.1,-244.4 4659.63,-229 4665.6,-223.09 4667.2,-214.51 4666.88,-206.12"/>
<polygon fill="blue" stroke="blue" points="4670.36,-205.7 4665.71,-196.18 4663.4,-206.52 4670.36,-205.7"/>
<text text-anchor="middle" x="4682.63" y="-217.8" font-family="Times,serif" font-size="14.00">type</text>
</g>
<!-- category -->
<g id="node33" class="node">
<title>category</title>
<ellipse fill="none" stroke="black" cx="4761.63" cy="-178" rx="51.19" ry="18"/>
<text text-anchor="middle" x="4761.63" y="-174.3" font-family="Times,serif" font-size="14.00">category</text>
</g>
<!-- reaction to catalyst association&#45;&gt;category -->
<g id="edge31" class="edge">
<title>reaction to catalyst association&#45;&gt;category</title>
<path fill="none" stroke="blue" d="M3024.7,-251.72C3044.58,-249.81 3065.23,-248.11 3084.63,-247 3129.51,-244.44 4660.52,-244.71 4702.63,-229 4717.21,-223.56 4730.68,-212.8 4741.06,-202.65"/>
<polygon fill="blue" stroke="blue" points="4743.59,-205.07 4748.04,-195.46 4738.56,-200.2 4743.59,-205.07"/>
<text text-anchor="middle" x="4760.13" y="-217.8" font-family="Times,serif" font-size="14.00">category</text>
</g>
<!-- stoichiometry -->
<g id="node35" class="node">
<title>stoichiometry</title>
<ellipse fill="none" stroke="blue" cx="4875.63" cy="-178" rx="44.39" ry="18"/>
<text text-anchor="middle" x="4875.63" y="-174.3" font-family="Times,serif" font-size="14.00">integer</text>
</g>
<!-- reaction to catalyst association&#45;&gt;stoichiometry -->
<g id="edge32" class="edge">
<title>reaction to catalyst association&#45;&gt;stoichiometry</title>
<path fill="none" stroke="blue" d="M3024.7,-251.71C3044.58,-249.8 3065.23,-248.1 3084.63,-247 3179.54,-241.62 4704.4,-255.69 4795.63,-229 4815.08,-223.31 4834.42,-211.44 4849.21,-200.7"/>
<polygon fill="blue" stroke="blue" points="4851.48,-203.37 4857.36,-194.55 4847.26,-197.78 4851.48,-203.37"/>
<text text-anchor="middle" x="4878.13" y="-217.8" font-family="Times,serif" font-size="14.00">stoichiometry</text>
</g>
<!-- reaction direction -->
<g id="node36" class="node">
<title>reaction direction</title>
<ellipse fill="none" stroke="blue" cx="5059.63" cy="-178" rx="121.58" ry="18"/>
<text text-anchor="middle" x="5059.63" y="-174.3" font-family="Times,serif" font-size="14.00">ReactionDirectionEnum</text>
</g>
<!-- reaction to catalyst association&#45;&gt;reaction direction -->
<g id="edge33" class="edge">
<title>reaction to catalyst association&#45;&gt;reaction direction</title>
<path fill="none" stroke="blue" d="M3024.7,-251.7C3044.58,-249.79 3065.23,-248.09 3084.63,-247 3187.09,-241.24 4830.89,-248.49 4931.63,-229 4961.52,-223.22 4993.4,-210.79 5017.87,-199.76"/>
<polygon fill="blue" stroke="blue" points="5019.58,-202.83 5027.2,-195.47 5016.66,-196.47 5019.58,-202.83"/>
<text text-anchor="middle" x="5046.13" y="-217.8" font-family="Times,serif" font-size="14.00">reaction direction</text>
</g>
<!-- reaction side -->
<g id="node37" class="node">
<title>reaction side</title>
<ellipse fill="none" stroke="blue" cx="5297.63" cy="-178" rx="98.58" ry="18"/>
<text text-anchor="middle" x="5297.63" y="-174.3" font-family="Times,serif" font-size="14.00">ReactionSideEnum</text>
</g>
<!-- reaction to catalyst association&#45;&gt;reaction side -->
<g id="edge34" class="edge">
<title>reaction to catalyst association&#45;&gt;reaction side</title>
<path fill="none" stroke="blue" d="M3024.7,-251.68C3044.58,-249.78 3065.23,-248.08 3084.63,-247 3309.74,-234.43 4890.3,-259.81 5113.63,-229 5158.45,-222.82 5207.85,-208.99 5244.17,-197.44"/>
<polygon fill="blue" stroke="blue" points="5245.61,-200.65 5254.05,-194.25 5243.46,-193.99 5245.61,-200.65"/>
<text text-anchor="middle" x="5232.13" y="-217.8" font-family="Times,serif" font-size="14.00">reaction side</text>
</g>
<!-- subject -->
<g id="node38" class="node">
<title>subject</title>
<ellipse fill="none" stroke="black" cx="5458.63" cy="-178" rx="44.39" ry="18"/>
<text text-anchor="middle" x="5458.63" y="-174.3" font-family="Times,serif" font-size="14.00">subject</text>
</g>
<!-- reaction to catalyst association&#45;&gt;subject -->
<g id="edge35" class="edge">
<title>reaction to catalyst association&#45;&gt;subject</title>
<path fill="none" stroke="blue" d="M3024.7,-251.67C3044.58,-249.77 3065.23,-248.08 3084.63,-247 3328.49,-233.47 5040.63,-261.91 5282.63,-229 5330.11,-222.54 5382.73,-206.34 5417.96,-194.12"/>
<polygon fill="blue" stroke="blue" points="5419.15,-197.41 5427.42,-190.79 5416.82,-190.81 5419.15,-197.41"/>
<text text-anchor="middle" x="5377.63" y="-217.8" font-family="Times,serif" font-size="14.00">subject</text>
</g>
<!-- object -->
<g id="node40" class="node">
<title>object</title>
<ellipse fill="none" stroke="black" cx="5501.63" cy="-91" rx="38.99" ry="18"/>
<text text-anchor="middle" x="5501.63" y="-87.3" font-family="Times,serif" font-size="14.00">object</text>
</g>
<!-- reaction to catalyst association&#45;&gt;object -->
<g id="edge36" class="edge">
<title>reaction to catalyst association&#45;&gt;object</title>
<path fill="none" stroke="blue" d="M3024.7,-251.67C3044.58,-249.76 3065.23,-248.07 3084.63,-247 3213.5,-239.88 5280.17,-249.24 5407.63,-229 5455.53,-221.39 5478.58,-231.49 5511.63,-196 5532.9,-173.16 5533.58,-156.9 5524.63,-127 5523.6,-123.55 5522.11,-120.13 5520.37,-116.85"/>
<polygon fill="blue" stroke="blue" points="5523.22,-114.79 5515.01,-108.09 5517.25,-118.45 5523.22,-114.79"/>
<text text-anchor="middle" x="5552.63" y="-174.3" font-family="Times,serif" font-size="14.00">object</text>
</g>
<!-- association_type -->
<g id="node32" class="node">
<title>association_type</title>
<ellipse fill="none" stroke="blue" cx="3131.63" cy="-265" rx="38.19" ry="18"/>
<text text-anchor="middle" x="3131.63" y="-261.3" font-family="Times,serif" font-size="14.00">string</text>
</g>
<!-- association_category -->
<g id="node34" class="node">
<title>association_category</title>
<ellipse fill="none" stroke="blue" cx="3262.63" cy="-265" rx="74.99" ry="18"/>
<text text-anchor="middle" x="3262.63" y="-261.3" font-family="Times,serif" font-size="14.00">category type</text>
</g>
<!-- subject&#45;&gt;object -->
<g id="edge37" class="edge">
<title>subject&#45;&gt;object</title>
<path fill="none" stroke="black" d="M5459.74,-159.55C5460.94,-149.57 5463.44,-137.07 5468.63,-127 5470.86,-122.68 5473.79,-118.52 5476.97,-114.66"/>
<polygon fill="black" stroke="black" points="5479.59,-116.98 5483.73,-107.23 5474.41,-112.27 5479.59,-116.98"/>
<text text-anchor="middle" x="5496.63" y="-130.8" font-family="Times,serif" font-size="14.00">relation</text>
</g>
<!-- relation -->
<g id="node42" class="node">
<title>relation</title>
<ellipse fill="none" stroke="black" cx="5446.63" cy="-18" rx="46.59" ry="18"/>
<text text-anchor="middle" x="5446.63" y="-14.3" font-family="Times,serif" font-size="14.00">relation</text>
</g>
<!-- subject&#45;&gt;relation -->
<g id="edge38" class="edge">
<title>subject&#45;&gt;relation</title>
<path fill="none" stroke="black" stroke-dasharray="1,5" d="M5457.33,-159.79C5455.25,-132.48 5451.19,-78.99 5448.71,-46.38"/>
<polygon fill="black" stroke="black" points="5452.19,-45.89 5447.94,-36.19 5445.21,-46.42 5452.19,-45.89"/>
</g>
<!-- reaction to participant association_subject -->
<g id="node39" class="node">
<title>reaction to participant association_subject</title>
<ellipse fill="none" stroke="blue" cx="3442.63" cy="-265" rx="87.18" ry="18"/>
<text text-anchor="middle" x="3442.63" y="-261.3" font-family="Times,serif" font-size="14.00">molecular entity</text>
</g>
<!-- object&#45;&gt;relation -->
<g id="edge39" class="edge">
<title>object&#45;&gt;relation</title>
<path fill="none" stroke="black" stroke-dasharray="1,5" d="M5489.15,-73.89C5482.22,-64.94 5473.45,-53.62 5465.68,-43.58"/>
<polygon fill="black" stroke="black" points="5468.34,-41.3 5459.45,-35.54 5462.8,-45.59 5468.34,-41.3"/>
</g>
<!-- reaction to catalyst association_object -->
<g id="node41" class="node">
<title>reaction to catalyst association_object</title>
<ellipse fill="none" stroke="blue" cx="3658.63" cy="-265" rx="110.48" ry="18"/>
<text text-anchor="middle" x="3658.63" y="-261.3" font-family="Times,serif" font-size="14.00">gene or gene product</text>
</g>
</g>
</svg>
