<?xml version="1.0" encoding="UTF-8" standalone="no"?>
<!DOCTYPE svg PUBLIC "-//W3C//DTD SVG 1.1//EN"
 "http://www.w3.org/Graphics/SVG/1.1/DTD/svg11.dtd">
<!-- Generated by graphviz version 2.43.0 (0)
 -->
<!-- Title: %3 Pages: 1 -->
<svg width="3543pt" height="291pt"
 viewBox="0.00 0.00 3542.68 291.00" xmlns="http://www.w3.org/2000/svg" xmlns:xlink="http://www.w3.org/1999/xlink">
<g id="graph0" class="graph" transform="scale(1 1) rotate(0) translate(4 287)">
<title>%3</title>
<polygon fill="white" stroke="transparent" points="-4,4 -4,-287 3538.68,-287 3538.68,4 -4,4"/>
<!-- reaction to participant association -->
<g id="node1" class="node">
<title>reaction to participant association</title>
<ellipse fill="none" stroke="black" cx="1742.49" cy="-265" rx="169.77" ry="18"/>
<text text-anchor="middle" x="1742.49" y="-261.3" font-family="Times,serif" font-size="14.00">reaction to participant association</text>
</g>
<!-- chemical to chemical association -->
<g id="node2" class="node">
<title>chemical to chemical association</title>
<ellipse fill="none" stroke="black" cx="162.49" cy="-178" rx="162.47" ry="18"/>
<text text-anchor="middle" x="162.49" y="-174.3" font-family="Times,serif" font-size="14.00">chemical to chemical association</text>
</g>
<!-- reaction to participant association&#45;&gt;chemical to chemical association -->
<g id="edge1" class="edge">
<title>reaction to participant association&#45;&gt;chemical to chemical association</title>
<path fill="none" stroke="black" d="M1574.84,-262.18C1279.71,-258.51 678.79,-248.83 469.49,-229 393.86,-221.83 308.65,-207.45 247.22,-195.94"/>
<polygon fill="black" stroke="black" points="247.67,-192.46 237.19,-194.04 246.37,-199.34 247.67,-192.46"/>
<text text-anchor="middle" x="483.49" y="-217.8" font-family="Times,serif" font-size="14.00">is_a</text>
</g>
<!-- id -->
<g id="node3" class="node">
<title>id</title>
<ellipse fill="none" stroke="blue" cx="381.49" cy="-178" rx="38.19" ry="18"/>
<text text-anchor="middle" x="381.49" y="-174.3" font-family="Times,serif" font-size="14.00">string</text>
</g>
<!-- reaction to participant association&#45;&gt;id -->
<g id="edge2" class="edge">
<title>reaction to participant association&#45;&gt;id</title>
<path fill="none" stroke="blue" d="M1574.64,-262.27C1303.45,-258.9 780.67,-249.87 596.49,-229 521.31,-220.48 502.45,-216.02 429.49,-196 426.33,-195.13 423.09,-194.16 419.84,-193.14"/>
<polygon fill="blue" stroke="blue" points="420.8,-189.77 410.21,-189.94 418.59,-196.41 420.8,-189.77"/>
<text text-anchor="middle" x="603.49" y="-217.8" font-family="Times,serif" font-size="14.00">id</text>
</g>
<!-- iri -->
<g id="node4" class="node">
<title>iri</title>
<ellipse fill="none" stroke="blue" cx="482.49" cy="-178" rx="44.39" ry="18"/>
<text text-anchor="middle" x="482.49" y="-174.3" font-family="Times,serif" font-size="14.00">iri type</text>
</g>
<!-- reaction to participant association&#45;&gt;iri -->
<g id="edge3" class="edge">
<title>reaction to participant association&#45;&gt;iri</title>
<path fill="none" stroke="blue" d="M1576.54,-261.21C1330.44,-256.59 880.46,-246.1 719.49,-229 636.87,-220.22 616.11,-216.07 535.49,-196 532.05,-195.15 528.52,-194.19 524.98,-193.17"/>
<polygon fill="blue" stroke="blue" points="525.67,-189.73 515.09,-190.21 523.66,-196.43 525.67,-189.73"/>
<text text-anchor="middle" x="727.49" y="-217.8" font-family="Times,serif" font-size="14.00">iri</text>
</g>
<!-- name -->
<g id="node5" class="node">
<title>name</title>
<ellipse fill="none" stroke="blue" cx="601.49" cy="-178" rx="56.59" ry="18"/>
<text text-anchor="middle" x="601.49" y="-174.3" font-family="Times,serif" font-size="14.00">label type</text>
</g>
<!-- reaction to participant association&#45;&gt;name -->
<g id="edge4" class="edge">
<title>reaction to participant association&#45;&gt;name</title>
<path fill="none" stroke="blue" d="M1576.05,-261.31C1350.16,-257.03 958.4,-247.25 816.49,-229 759.01,-221.61 694.41,-205.5 651.17,-193.56"/>
<polygon fill="blue" stroke="blue" points="652.04,-190.17 641.46,-190.85 650.15,-196.91 652.04,-190.17"/>
<text text-anchor="middle" x="836.49" y="-217.8" font-family="Times,serif" font-size="14.00">name</text>
</g>
<!-- description -->
<g id="node6" class="node">
<title>description</title>
<ellipse fill="none" stroke="blue" cx="751.49" cy="-178" rx="75.29" ry="18"/>
<text text-anchor="middle" x="751.49" y="-174.3" font-family="Times,serif" font-size="14.00">narrative text</text>
</g>
<!-- reaction to participant association&#45;&gt;description -->
<g id="edge5" class="edge">
<title>reaction to participant association&#45;&gt;description</title>
<path fill="none" stroke="blue" d="M1575.73,-261.67C1372.97,-258.01 1042.79,-249.11 921.49,-229 879.78,-222.08 833.85,-208.18 800.26,-196.79"/>
<polygon fill="blue" stroke="blue" points="801.29,-193.44 790.69,-193.5 799.01,-200.06 801.29,-193.44"/>
<text text-anchor="middle" x="961.99" y="-217.8" font-family="Times,serif" font-size="14.00">description</text>
</g>
<!-- has attribute -->
<g id="node7" class="node">
<title>has attribute</title>
<ellipse fill="none" stroke="blue" cx="896.49" cy="-178" rx="51.99" ry="18"/>
<text text-anchor="middle" x="896.49" y="-174.3" font-family="Times,serif" font-size="14.00">attribute</text>
</g>
<!-- reaction to participant association&#45;&gt;has attribute -->
<g id="edge6" class="edge">
<title>reaction to participant association&#45;&gt;has attribute</title>
<path fill="none" stroke="blue" d="M1579.85,-259.87C1412.43,-254.84 1163.08,-244.98 1068.49,-229 1024.11,-221.5 974.94,-206.5 940.58,-194.88"/>
<polygon fill="blue" stroke="blue" points="941.45,-191.48 930.86,-191.55 939.18,-198.1 941.45,-191.48"/>
<text text-anchor="middle" x="1115.49" y="-217.8" font-family="Times,serif" font-size="14.00">has attribute</text>
</g>
<!-- predicate -->
<g id="node8" class="node">
<title>predicate</title>
<ellipse fill="none" stroke="blue" cx="1044.49" cy="-178" rx="77.99" ry="18"/>
<text text-anchor="middle" x="1044.49" y="-174.3" font-family="Times,serif" font-size="14.00">predicate type</text>
</g>
<!-- reaction to participant association&#45;&gt;predicate -->
<g id="edge7" class="edge">
<title>reaction to participant association&#45;&gt;predicate</title>
<path fill="none" stroke="blue" d="M1578,-260.52C1478.11,-256.46 1348.32,-247.73 1234.49,-229 1187.68,-221.3 1135.65,-207.21 1097.9,-195.94"/>
<polygon fill="blue" stroke="blue" points="1098.71,-192.54 1088.13,-193 1096.69,-199.24 1098.71,-192.54"/>
<text text-anchor="middle" x="1268.49" y="-217.8" font-family="Times,serif" font-size="14.00">predicate</text>
</g>
<!-- negated -->
<g id="node9" class="node">
<title>negated</title>
<ellipse fill="none" stroke="blue" cx="1187.49" cy="-178" rx="46.59" ry="18"/>
<text text-anchor="middle" x="1187.49" y="-174.3" font-family="Times,serif" font-size="14.00">boolean</text>
</g>
<!-- reaction to participant association&#45;&gt;negated -->
<g id="edge8" class="edge">
<title>reaction to participant association&#45;&gt;negated</title>
<path fill="none" stroke="blue" d="M1598.16,-255.54C1529.48,-250.19 1446.39,-241.8 1372.49,-229 1323.64,-220.54 1268.99,-204.99 1231.83,-193.47"/>
<polygon fill="blue" stroke="blue" points="1232.42,-189.99 1221.84,-190.34 1230.33,-196.67 1232.42,-189.99"/>
<text text-anchor="middle" x="1401.49" y="-217.8" font-family="Times,serif" font-size="14.00">negated</text>
</g>
<!-- qualifiers -->
<g id="node10" class="node">
<title>qualifiers</title>
<ellipse fill="none" stroke="blue" cx="1328.49" cy="-178" rx="76.89" ry="18"/>
<text text-anchor="middle" x="1328.49" y="-174.3" font-family="Times,serif" font-size="14.00">ontology class</text>
</g>
<!-- reaction to participant association&#45;&gt;qualifiers -->
<g id="edge9" class="edge">
<title>reaction to participant association&#45;&gt;qualifiers</title>
<path fill="none" stroke="blue" d="M1624.64,-252.03C1581.23,-246.52 1531.85,-238.95 1487.49,-229 1450.16,-220.63 1408.99,-207.57 1377.89,-196.9"/>
<polygon fill="blue" stroke="blue" points="1378.76,-193.5 1368.17,-193.53 1376.47,-200.11 1378.76,-193.5"/>
<text text-anchor="middle" x="1520.99" y="-217.8" font-family="Times,serif" font-size="14.00">qualifiers</text>
</g>
<!-- publications -->
<g id="node11" class="node">
<title>publications</title>
<ellipse fill="none" stroke="blue" cx="1485.49" cy="-178" rx="62.29" ry="18"/>
<text text-anchor="middle" x="1485.49" y="-174.3" font-family="Times,serif" font-size="14.00">publication</text>
</g>
<!-- reaction to participant association&#45;&gt;publications -->
<g id="edge10" class="edge">
<title>reaction to participant association&#45;&gt;publications</title>
<path fill="none" stroke="blue" d="M1665.61,-248.86C1642.48,-243.49 1617.21,-236.81 1594.49,-229 1570.24,-220.66 1544.1,-208.78 1523.5,-198.69"/>
<polygon fill="blue" stroke="blue" points="1524.96,-195.51 1514.45,-194.2 1521.85,-201.78 1524.96,-195.51"/>
<text text-anchor="middle" x="1638.49" y="-217.8" font-family="Times,serif" font-size="14.00">publications</text>
</g>
<!-- has evidence -->
<g id="node12" class="node">
<title>has evidence</title>
<ellipse fill="none" stroke="blue" cx="1641.49" cy="-178" rx="75.29" ry="18"/>
<text text-anchor="middle" x="1641.49" y="-174.3" font-family="Times,serif" font-size="14.00">evidence type</text>
</g>
<!-- reaction to participant association&#45;&gt;has evidence -->
<g id="edge11" class="edge">
<title>reaction to participant association&#45;&gt;has evidence</title>
<path fill="none" stroke="blue" d="M1722.05,-246.8C1706.79,-233.96 1685.78,-216.27 1669.04,-202.19"/>
<polygon fill="blue" stroke="blue" points="1671.11,-199.36 1661.21,-195.6 1666.6,-204.71 1671.11,-199.36"/>
<text text-anchor="middle" x="1744.99" y="-217.8" font-family="Times,serif" font-size="14.00">has evidence</text>
</g>
<!-- knowledge source -->
<g id="node13" class="node">
<title>knowledge source</title>
<ellipse fill="none" stroke="blue" cx="1843.49" cy="-178" rx="108.58" ry="18"/>
<text text-anchor="middle" x="1843.49" y="-174.3" font-family="Times,serif" font-size="14.00">information resource</text>
</g>
<!-- reaction to participant association&#45;&gt;knowledge source -->
<g id="edge12" class="edge">
<title>reaction to participant association&#45;&gt;knowledge source</title>
<path fill="none" stroke="blue" d="M1770.55,-247.13C1778.85,-241.7 1787.78,-235.42 1795.49,-229 1804.69,-221.33 1813.99,-212.07 1821.92,-203.61"/>
<polygon fill="blue" stroke="blue" points="1824.6,-205.87 1828.78,-196.14 1819.44,-201.14 1824.6,-205.87"/>
<text text-anchor="middle" x="1875.99" y="-217.8" font-family="Times,serif" font-size="14.00">knowledge source</text>
</g>
<!-- primary knowledge source -->
<g id="node14" class="node">
<title>primary knowledge source</title>
<ellipse fill="none" stroke="blue" cx="2078.49" cy="-178" rx="108.58" ry="18"/>
<text text-anchor="middle" x="2078.49" y="-174.3" font-family="Times,serif" font-size="14.00">information resource</text>
</g>
<!-- reaction to participant association&#45;&gt;primary knowledge source -->
<g id="edge13" class="edge">
<title>reaction to participant association&#45;&gt;primary knowledge source</title>
<path fill="none" stroke="blue" d="M1842.44,-250.45C1875.23,-245.01 1911.68,-237.88 1944.49,-229 1974.13,-220.97 2006.42,-209.03 2031.86,-198.83"/>
<polygon fill="blue" stroke="blue" points="2033.31,-202.02 2041.26,-195.02 2030.68,-195.53 2033.31,-202.02"/>
<text text-anchor="middle" x="2084.49" y="-217.8" font-family="Times,serif" font-size="14.00">primary knowledge source</text>
</g>
<!-- aggregator knowledge source -->
<g id="node15" class="node">
<title>aggregator knowledge source</title>
<ellipse fill="none" stroke="blue" cx="2313.49" cy="-178" rx="108.58" ry="18"/>
<text text-anchor="middle" x="2313.49" y="-174.3" font-family="Times,serif" font-size="14.00">information resource</text>
</g>
<!-- reaction to participant association&#45;&gt;aggregator knowledge source -->
<g id="edge14" class="edge">
<title>reaction to participant association&#45;&gt;aggregator knowledge source</title>
<path fill="none" stroke="blue" d="M1862.32,-252.18C1882.08,-250.36 1902.35,-248.57 1921.49,-247 2037.82,-237.48 2069.53,-254.23 2183.49,-229 2213.53,-222.35 2245.82,-209.96 2270.71,-199.17"/>
<polygon fill="blue" stroke="blue" points="2272.13,-202.37 2279.86,-195.14 2269.3,-195.97 2272.13,-202.37"/>
<text text-anchor="middle" x="2337.99" y="-217.8" font-family="Times,serif" font-size="14.00">aggregator knowledge source</text>
</g>
<!-- timepoint -->
<g id="node16" class="node">
<title>timepoint</title>
<ellipse fill="none" stroke="blue" cx="2495.49" cy="-178" rx="55.49" ry="18"/>
<text text-anchor="middle" x="2495.49" y="-174.3" font-family="Times,serif" font-size="14.00">time type</text>
</g>
<!-- reaction to participant association&#45;&gt;timepoint -->
<g id="edge15" class="edge">
<title>reaction to participant association&#45;&gt;timepoint</title>
<path fill="none" stroke="blue" d="M1859.39,-251.87C1880.06,-250.02 1901.39,-248.3 1921.49,-247 1979.95,-243.23 2395.11,-253.17 2448.49,-229 2460.53,-223.55 2470.96,-213.43 2478.91,-203.72"/>
<polygon fill="blue" stroke="blue" points="2481.7,-205.83 2484.99,-195.76 2476.14,-201.58 2481.7,-205.83"/>
<text text-anchor="middle" x="2503.49" y="-217.8" font-family="Times,serif" font-size="14.00">timepoint</text>
</g>
<!-- type -->
<g id="node17" class="node">
<title>type</title>
<ellipse fill="none" stroke="black" cx="2599.49" cy="-178" rx="31.4" ry="18"/>
<text text-anchor="middle" x="2599.49" y="-174.3" font-family="Times,serif" font-size="14.00">type</text>
</g>
<!-- reaction to participant association&#45;&gt;type -->
<g id="edge16" class="edge">
<title>reaction to participant association&#45;&gt;type</title>
<path fill="none" stroke="blue" d="M1858.91,-251.83C1879.73,-249.97 1901.23,-248.25 1921.49,-247 1990.38,-242.73 2478.24,-254.25 2542.49,-229 2556.74,-223.4 2569.81,-212.56 2579.83,-202.4"/>
<polygon fill="blue" stroke="blue" points="2582.6,-204.57 2586.86,-194.87 2577.48,-199.79 2582.6,-204.57"/>
<text text-anchor="middle" x="2583.49" y="-217.8" font-family="Times,serif" font-size="14.00">type</text>
</g>
<!-- category -->
<g id="node19" class="node">
<title>category</title>
<ellipse fill="none" stroke="black" cx="2700.49" cy="-178" rx="51.19" ry="18"/>
<text text-anchor="middle" x="2700.49" y="-174.3" font-family="Times,serif" font-size="14.00">category</text>
</g>
<!-- reaction to participant association&#45;&gt;category -->
<g id="edge17" class="edge">
<title>reaction to participant association&#45;&gt;category</title>
<path fill="none" stroke="blue" d="M1858.42,-251.82C1879.39,-249.95 1901.08,-248.24 1921.49,-247 1997.15,-242.41 2530.06,-247.84 2603.49,-229 2626.98,-222.97 2651.24,-210.46 2669.62,-199.47"/>
<polygon fill="blue" stroke="blue" points="2671.46,-202.45 2678.14,-194.23 2667.79,-196.48 2671.46,-202.45"/>
<text text-anchor="middle" x="2674.99" y="-217.8" font-family="Times,serif" font-size="14.00">category</text>
</g>
<!-- object -->
<g id="node21" class="node">
<title>object</title>
<ellipse fill="none" stroke="black" cx="3419.49" cy="-91" rx="38.99" ry="18"/>
<text text-anchor="middle" x="3419.49" y="-87.3" font-family="Times,serif" font-size="14.00">object</text>
</g>
<!-- reaction to participant association&#45;&gt;object -->
<g id="edge18" class="edge">
<title>reaction to participant association&#45;&gt;object</title>
<path fill="none" stroke="blue" d="M1857.94,-251.81C1879.06,-249.93 1900.92,-248.21 1921.49,-247 2009.02,-241.85 2626.79,-255.17 2710.49,-229 2735.9,-221.05 2739.86,-212.83 2760.49,-196 2778.02,-181.7 2776.08,-169.78 2796.49,-160 2897.88,-111.39 3241.66,-96.95 3370.33,-93.19"/>
<polygon fill="blue" stroke="blue" points="3370.77,-96.68 3380.66,-92.89 3370.57,-89.68 3370.77,-96.68"/>
<text text-anchor="middle" x="2818.49" y="-174.3" font-family="Times,serif" font-size="14.00">object</text>
</g>
<!-- stoichiometry -->
<g id="node23" class="node">
<title>stoichiometry</title>
<ellipse fill="none" stroke="blue" cx="2893.49" cy="-178" rx="44.39" ry="18"/>
<text text-anchor="middle" x="2893.49" y="-174.3" font-family="Times,serif" font-size="14.00">integer</text>
</g>
<!-- reaction to participant association&#45;&gt;stoichiometry -->
<g id="edge19" class="edge">
<title>reaction to participant association&#45;&gt;stoichiometry</title>
<path fill="none" stroke="blue" d="M1857.94,-251.77C1879.06,-249.89 1900.92,-248.19 1921.49,-247 2019.12,-241.37 2706.95,-254.06 2801.49,-229 2823.93,-223.05 2846.88,-210.59 2864.25,-199.6"/>
<polygon fill="blue" stroke="blue" points="2866.32,-202.42 2872.79,-194.02 2862.5,-196.56 2866.32,-202.42"/>
<text text-anchor="middle" x="2888.99" y="-217.8" font-family="Times,serif" font-size="14.00">stoichiometry</text>
</g>
<!-- reaction direction -->
<g id="node24" class="node">
<title>reaction direction</title>
<ellipse fill="none" stroke="blue" cx="3080.49" cy="-178" rx="124.58" ry="18"/>
<text text-anchor="middle" x="3080.49" y="-174.3" font-family="Times,serif" font-size="14.00">reaction_direction_enum</text>
</g>
<!-- reaction to participant association&#45;&gt;reaction direction -->
<g id="edge20" class="edge">
<title>reaction to participant association&#45;&gt;reaction direction</title>
<path fill="none" stroke="blue" d="M1857.45,-251.76C1878.72,-249.87 1900.76,-248.17 1921.49,-247 2034.77,-240.63 2830.91,-249.61 2942.49,-229 2974.73,-223.04 3009.44,-210.44 3035.97,-199.38"/>
<polygon fill="blue" stroke="blue" points="3037.53,-202.52 3045.36,-195.39 3034.79,-196.08 3037.53,-202.52"/>
<text text-anchor="middle" x="3060.99" y="-217.8" font-family="Times,serif" font-size="14.00">reaction direction</text>
</g>
<!-- reaction side -->
<g id="node25" class="node">
<title>reaction side</title>
<ellipse fill="none" stroke="blue" cx="3325.49" cy="-178" rx="102.88" ry="18"/>
<text text-anchor="middle" x="3325.49" y="-174.3" font-family="Times,serif" font-size="14.00">reaction_side_enum</text>
</g>
<!-- reaction to participant association&#45;&gt;reaction side -->
<g id="edge21" class="edge">
<title>reaction to participant association&#45;&gt;reaction side</title>
<path fill="none" stroke="blue" d="M1857.45,-251.71C1878.72,-249.83 1900.76,-248.14 1921.49,-247 2189.33,-232.31 2862.56,-264.24 3128.49,-229 3176.7,-222.61 3230.09,-208.61 3269.12,-197.04"/>
<polygon fill="blue" stroke="blue" points="3270.15,-200.39 3278.72,-194.16 3268.14,-193.69 3270.15,-200.39"/>
<text text-anchor="middle" x="3250.99" y="-217.8" font-family="Times,serif" font-size="14.00">reaction side</text>
</g>
<!-- subject -->
<g id="node26" class="node">
<title>subject</title>
<ellipse fill="none" stroke="black" cx="3490.49" cy="-178" rx="44.39" ry="18"/>
<text text-anchor="middle" x="3490.49" y="-174.3" font-family="Times,serif" font-size="14.00">subject</text>
</g>
<!-- reaction to participant association&#45;&gt;subject -->
<g id="edge22" class="edge">
<title>reaction to participant association&#45;&gt;subject</title>
<path fill="none" stroke="blue" d="M1857.45,-251.68C1878.72,-249.8 1900.76,-248.12 1921.49,-247 2074.61,-238.74 3149.35,-248.2 3301.49,-229 3353.11,-222.48 3410.68,-205.84 3448.56,-193.54"/>
<polygon fill="blue" stroke="blue" points="3449.83,-196.81 3458.23,-190.35 3447.64,-190.16 3449.83,-196.81"/>
<text text-anchor="middle" x="3400.49" y="-217.8" font-family="Times,serif" font-size="14.00">subject</text>
</g>
<!-- association_type -->
<g id="node18" class="node">
<title>association_type</title>
<ellipse fill="none" stroke="blue" cx="1968.49" cy="-265" rx="38.19" ry="18"/>
<text text-anchor="middle" x="1968.49" y="-261.3" font-family="Times,serif" font-size="14.00">string</text>
</g>
<!-- association_category -->
<g id="node20" class="node">
<title>association_category</title>
<ellipse fill="none" stroke="blue" cx="2099.49" cy="-265" rx="74.99" ry="18"/>
<text text-anchor="middle" x="2099.49" y="-261.3" font-family="Times,serif" font-size="14.00">category type</text>
</g>
<!-- relation -->
<g id="node28" class="node">
<title>relation</title>
<ellipse fill="none" stroke="black" cx="3454.49" cy="-18" rx="46.59" ry="18"/>
<text text-anchor="middle" x="3454.49" y="-14.3" font-family="Times,serif" font-size="14.00">relation</text>
</g>
<!-- object&#45;&gt;relation -->
<g id="edge25" class="edge">
<title>object&#45;&gt;relation</title>
<path fill="none" stroke="black" stroke-dasharray="1,5" d="M3427.78,-73.17C3431.86,-64.9 3436.88,-54.72 3441.45,-45.44"/>
<polygon fill="black" stroke="black" points="3444.73,-46.72 3446.01,-36.2 3438.45,-43.62 3444.73,-46.72"/>
</g>
<!-- chemical to chemical association_object -->
<g id="node22" class="node">
<title>chemical to chemical association_object</title>
<ellipse fill="none" stroke="blue" cx="2274.49" cy="-265" rx="81.79" ry="18"/>
<text text-anchor="middle" x="2274.49" y="-261.3" font-family="Times,serif" font-size="14.00">chemical entity</text>
</g>
<!-- subject&#45;&gt;object -->
<g id="edge23" class="edge">
<title>subject&#45;&gt;object</title>
<path fill="none" stroke="black" d="M3454.11,-167.42C3441.25,-162.12 3428.11,-154.06 3420.49,-142 3416.23,-135.26 3414.9,-126.93 3414.94,-119.01"/>
<polygon fill="black" stroke="black" points="3418.43,-119.23 3415.65,-109.01 3411.45,-118.73 3418.43,-119.23"/>
<text text-anchor="middle" x="3448.49" y="-130.8" font-family="Times,serif" font-size="14.00">relation</text>
</g>
<!-- subject&#45;&gt;relation -->
<g id="edge24" class="edge">
<title>subject&#45;&gt;relation</title>
<path fill="none" stroke="black" stroke-dasharray="1,5" d="M3486.84,-160.05C3482.38,-139.44 3474.56,-103.63 3467.49,-73 3465.45,-64.18 3463.16,-54.57 3461.07,-45.94"/>
<polygon fill="black" stroke="black" points="3464.42,-44.9 3458.67,-36.01 3457.62,-46.55 3464.42,-44.9"/>
</g>
<!-- reaction to participant association_subject -->
<g id="node27" class="node">
<title>reaction to participant association_subject</title>
<ellipse fill="none" stroke="blue" cx="2461.49" cy="-265" rx="87.18" ry="18"/>
<text text-anchor="middle" x="2461.49" y="-261.3" font-family="Times,serif" font-size="14.00">molecular entity</text>
</g>
</g>
</svg>
