<?xml version="1.0" encoding="UTF-8" standalone="no"?>
<!DOCTYPE svg PUBLIC "-//W3C//DTD SVG 1.1//EN"
 "http://www.w3.org/Graphics/SVG/1.1/DTD/svg11.dtd">
<!-- Generated by graphviz version 2.43.0 (0)
 -->
<!-- Title: %3 Pages: 1 -->
<svg width="5541pt" height="291pt"
 viewBox="0.00 0.00 5540.68 291.00" xmlns="http://www.w3.org/2000/svg" xmlns:xlink="http://www.w3.org/1999/xlink">
<g id="graph0" class="graph" transform="scale(1 1) rotate(0) translate(4 287)">
<title>%3</title>
<polygon fill="white" stroke="transparent" points="-4,4 -4,-287 5536.68,-287 5536.68,4 -4,4"/>
<!-- reaction to participant association -->
<g id="node1" class="node">
<title>reaction to participant association</title>
<ellipse fill="none" stroke="black" cx="2732.49" cy="-265" rx="169.77" ry="18"/>
<text text-anchor="middle" x="2732.49" y="-261.3" font-family="Times,serif" font-size="14.00">reaction to participant association</text>
</g>
<!-- chemical to chemical association -->
<g id="node2" class="node">
<title>chemical to chemical association</title>
<ellipse fill="none" stroke="black" cx="162.49" cy="-178" rx="162.47" ry="18"/>
<text text-anchor="middle" x="162.49" y="-174.3" font-family="Times,serif" font-size="14.00">chemical to chemical association</text>
</g>
<!-- reaction to participant association&#45;&gt;chemical to chemical association -->
<g id="edge1" class="edge">
<title>reaction to participant association&#45;&gt;chemical to chemical association</title>
<path fill="none" stroke="black" d="M2562.6,-264.64C2108.25,-265.82 872.11,-265.49 465.49,-229 390.41,-222.26 305.84,-207.72 245.17,-196.04"/>
<polygon fill="black" stroke="black" points="245.75,-192.59 235.26,-194.12 244.41,-199.46 245.75,-192.59"/>
<text text-anchor="middle" x="479.49" y="-217.8" font-family="Times,serif" font-size="14.00">is_a</text>
</g>
<!-- id -->
<g id="node3" class="node">
<title>id</title>
<ellipse fill="none" stroke="blue" cx="381.49" cy="-178" rx="38.19" ry="18"/>
<text text-anchor="middle" x="381.49" y="-174.3" font-family="Times,serif" font-size="14.00">string</text>
</g>
<!-- reaction to participant association&#45;&gt;id -->
<g id="edge2" class="edge">
<title>reaction to participant association&#45;&gt;id</title>
<path fill="none" stroke="blue" d="M2563.81,-263.09C2092.1,-260.28 781.18,-250.61 587.49,-229 516.19,-221.05 498.56,-215.35 429.49,-196 426.38,-195.13 423.18,-194.16 419.98,-193.14"/>
<polygon fill="blue" stroke="blue" points="421.07,-189.81 410.48,-189.97 418.86,-196.46 421.07,-189.81"/>
<text text-anchor="middle" x="594.49" y="-217.8" font-family="Times,serif" font-size="14.00">id</text>
</g>
<!-- iri -->
<g id="node4" class="node">
<title>iri</title>
<ellipse fill="none" stroke="blue" cx="482.49" cy="-178" rx="44.39" ry="18"/>
<text text-anchor="middle" x="482.49" y="-174.3" font-family="Times,serif" font-size="14.00">iri type</text>
</g>
<!-- reaction to participant association&#45;&gt;iri -->
<g id="edge3" class="edge">
<title>reaction to participant association&#45;&gt;iri</title>
<path fill="none" stroke="blue" d="M2563.94,-262.95C2108.58,-259.84 875.58,-249.62 692.49,-229 621.63,-221.02 604.41,-214.25 535.49,-196 532.11,-195.11 528.64,-194.13 525.16,-193.11"/>
<polygon fill="blue" stroke="blue" points="525.99,-189.7 515.41,-190.14 523.96,-196.4 525.99,-189.7"/>
<text text-anchor="middle" x="700.49" y="-217.8" font-family="Times,serif" font-size="14.00">iri</text>
</g>
<!-- name -->
<g id="node5" class="node">
<title>name</title>
<ellipse fill="none" stroke="blue" cx="601.49" cy="-178" rx="56.59" ry="18"/>
<text text-anchor="middle" x="601.49" y="-174.3" font-family="Times,serif" font-size="14.00">label type</text>
</g>
<!-- reaction to participant association&#45;&gt;name -->
<g id="edge4" class="edge">
<title>reaction to participant association&#45;&gt;name</title>
<path fill="none" stroke="blue" d="M2563.37,-263.4C2121.71,-261.48 955.75,-254.08 782.49,-229 735.59,-222.21 683.61,-207.02 647.42,-195.15"/>
<polygon fill="blue" stroke="blue" points="648.25,-191.73 637.66,-191.9 646.04,-198.38 648.25,-191.73"/>
<text text-anchor="middle" x="802.49" y="-217.8" font-family="Times,serif" font-size="14.00">name</text>
</g>
<!-- description -->
<g id="node6" class="node">
<title>description</title>
<ellipse fill="none" stroke="blue" cx="751.49" cy="-178" rx="75.29" ry="18"/>
<text text-anchor="middle" x="751.49" y="-174.3" font-family="Times,serif" font-size="14.00">narrative text</text>
</g>
<!-- reaction to participant association&#45;&gt;description -->
<g id="edge5" class="edge">
<title>reaction to participant association&#45;&gt;description</title>
<path fill="none" stroke="blue" d="M2562.77,-264.31C2135.48,-264.6 1037.76,-262.07 875.49,-229 845.87,-222.96 814.3,-210.13 790.43,-198.98"/>
<polygon fill="blue" stroke="blue" points="791.88,-195.8 781.35,-194.65 788.87,-202.11 791.88,-195.8"/>
<text text-anchor="middle" x="915.99" y="-217.8" font-family="Times,serif" font-size="14.00">description</text>
</g>
<!-- has attribute -->
<g id="node7" class="node">
<title>has attribute</title>
<ellipse fill="none" stroke="blue" cx="896.49" cy="-178" rx="51.99" ry="18"/>
<text text-anchor="middle" x="896.49" y="-174.3" font-family="Times,serif" font-size="14.00">attribute</text>
</g>
<!-- reaction to participant association&#45;&gt;has attribute -->
<g id="edge6" class="edge">
<title>reaction to participant association&#45;&gt;has attribute</title>
<path fill="none" stroke="blue" d="M2562.72,-264.63C2156.34,-265.56 1150.3,-264.21 1001.49,-229 975.93,-222.95 949.23,-210.14 929.16,-199"/>
<polygon fill="blue" stroke="blue" points="930.85,-195.94 920.42,-194.03 927.38,-202.02 930.85,-195.94"/>
<text text-anchor="middle" x="1048.49" y="-217.8" font-family="Times,serif" font-size="14.00">has attribute</text>
</g>
<!-- deprecated -->
<g id="node8" class="node">
<title>deprecated</title>
<ellipse fill="none" stroke="blue" cx="1013.49" cy="-178" rx="46.59" ry="18"/>
<text text-anchor="middle" x="1013.49" y="-174.3" font-family="Times,serif" font-size="14.00">boolean</text>
</g>
<!-- reaction to participant association&#45;&gt;deprecated -->
<g id="edge7" class="edge">
<title>reaction to participant association&#45;&gt;deprecated</title>
<path fill="none" stroke="blue" d="M2563.32,-263.29C2184.36,-261.25 1289.84,-253.84 1154.49,-229 1118.49,-222.4 1079.41,-207.92 1051.54,-196.23"/>
<polygon fill="blue" stroke="blue" points="1052.75,-192.94 1042.18,-192.23 1050,-199.38 1052.75,-192.94"/>
<text text-anchor="middle" x="1194.99" y="-217.8" font-family="Times,serif" font-size="14.00">deprecated</text>
</g>
<!-- predicate -->
<g id="node9" class="node">
<title>predicate</title>
<ellipse fill="none" stroke="blue" cx="1156.49" cy="-178" rx="77.99" ry="18"/>
<text text-anchor="middle" x="1156.49" y="-174.3" font-family="Times,serif" font-size="14.00">predicate type</text>
</g>
<!-- reaction to participant association&#45;&gt;predicate -->
<g id="edge8" class="edge">
<title>reaction to participant association&#45;&gt;predicate</title>
<path fill="none" stroke="blue" d="M2563.63,-263C2210,-260.45 1414.16,-252.19 1292.49,-229 1259.91,-222.79 1224.83,-209.72 1198.45,-198.5"/>
<polygon fill="blue" stroke="blue" points="1199.72,-195.23 1189.15,-194.47 1196.93,-201.66 1199.72,-195.23"/>
<text text-anchor="middle" x="1326.49" y="-217.8" font-family="Times,serif" font-size="14.00">predicate</text>
</g>
<!-- negated -->
<g id="node10" class="node">
<title>negated</title>
<ellipse fill="none" stroke="blue" cx="1299.49" cy="-178" rx="46.59" ry="18"/>
<text text-anchor="middle" x="1299.49" y="-174.3" font-family="Times,serif" font-size="14.00">boolean</text>
</g>
<!-- reaction to participant association&#45;&gt;negated -->
<g id="edge9" class="edge">
<title>reaction to participant association&#45;&gt;negated</title>
<path fill="none" stroke="blue" d="M2563.49,-263.35C2231.52,-261.53 1516.96,-254.63 1407.49,-229 1380.97,-222.79 1353.13,-209.72 1332.35,-198.5"/>
<polygon fill="blue" stroke="blue" points="1333.78,-195.29 1323.34,-193.51 1330.39,-201.41 1333.78,-195.29"/>
<text text-anchor="middle" x="1436.49" y="-217.8" font-family="Times,serif" font-size="14.00">negated</text>
</g>
<!-- qualifier -->
<g id="node11" class="node">
<title>qualifier</title>
<ellipse fill="none" stroke="blue" cx="1402.49" cy="-178" rx="38.19" ry="18"/>
<text text-anchor="middle" x="1402.49" y="-174.3" font-family="Times,serif" font-size="14.00">string</text>
</g>
<!-- reaction to participant association&#45;&gt;qualifier -->
<g id="edge10" class="edge">
<title>reaction to participant association&#45;&gt;qualifier</title>
<path fill="none" stroke="blue" d="M2563.93,-262.83C2253.26,-260.13 1612.88,-251.85 1513.49,-229 1485.49,-222.57 1455.94,-208.87 1434.38,-197.44"/>
<polygon fill="blue" stroke="blue" points="1435.81,-194.24 1425.36,-192.55 1432.47,-200.39 1435.81,-194.24"/>
<text text-anchor="middle" x="1543.49" y="-217.8" font-family="Times,serif" font-size="14.00">qualifier</text>
</g>
<!-- qualifiers -->
<g id="node12" class="node">
<title>qualifiers</title>
<ellipse fill="none" stroke="blue" cx="1535.49" cy="-178" rx="76.89" ry="18"/>
<text text-anchor="middle" x="1535.49" y="-174.3" font-family="Times,serif" font-size="14.00">ontology class</text>
</g>
<!-- reaction to participant association&#45;&gt;qualifiers -->
<g id="edge11" class="edge">
<title>reaction to participant association&#45;&gt;qualifiers</title>
<path fill="none" stroke="blue" d="M2562.97,-264.09C2270.65,-263.44 1694.49,-258.39 1606.49,-229 1589.71,-223.4 1573.4,-212.43 1560.65,-202.19"/>
<polygon fill="blue" stroke="blue" points="1562.74,-199.37 1552.82,-195.63 1558.24,-204.74 1562.74,-199.37"/>
<text text-anchor="middle" x="1639.99" y="-217.8" font-family="Times,serif" font-size="14.00">qualifiers</text>
</g>
<!-- publications -->
<g id="node13" class="node">
<title>publications</title>
<ellipse fill="none" stroke="blue" cx="1692.49" cy="-178" rx="62.29" ry="18"/>
<text text-anchor="middle" x="1692.49" y="-174.3" font-family="Times,serif" font-size="14.00">publication</text>
</g>
<!-- reaction to participant association&#45;&gt;publications -->
<g id="edge12" class="edge">
<title>reaction to participant association&#45;&gt;publications</title>
<path fill="none" stroke="blue" d="M2562.66,-264.43C2273,-264.33 1711.55,-260.08 1681.49,-229 1675.38,-222.69 1675.63,-213.8 1678.23,-205.26"/>
<polygon fill="blue" stroke="blue" points="1681.5,-206.52 1681.96,-195.93 1675,-203.92 1681.5,-206.52"/>
<text text-anchor="middle" x="1725.49" y="-217.8" font-family="Times,serif" font-size="14.00">publications</text>
</g>
<!-- has evidence -->
<g id="node14" class="node">
<title>has evidence</title>
<ellipse fill="none" stroke="blue" cx="1848.49" cy="-178" rx="75.29" ry="18"/>
<text text-anchor="middle" x="1848.49" y="-174.3" font-family="Times,serif" font-size="14.00">evidence type</text>
</g>
<!-- reaction to participant association&#45;&gt;has evidence -->
<g id="edge13" class="edge">
<title>reaction to participant association&#45;&gt;has evidence</title>
<path fill="none" stroke="blue" d="M2563.06,-263.81C2295.93,-262.66 1804.25,-256.76 1777.49,-229 1765.72,-216.8 1777.98,-205.67 1795.43,-197.03"/>
<polygon fill="blue" stroke="blue" points="1797.25,-200.05 1804.93,-192.74 1794.37,-193.67 1797.25,-200.05"/>
<text text-anchor="middle" x="1823.99" y="-217.8" font-family="Times,serif" font-size="14.00">has evidence</text>
</g>
<!-- knowledge source -->
<g id="node15" class="node">
<title>knowledge source</title>
<ellipse fill="none" stroke="blue" cx="1980.49" cy="-178" rx="38.19" ry="18"/>
<text text-anchor="middle" x="1980.49" y="-174.3" font-family="Times,serif" font-size="14.00">string</text>
</g>
<!-- reaction to participant association&#45;&gt;knowledge source -->
<g id="edge14" class="edge">
<title>reaction to participant association&#45;&gt;knowledge source</title>
<path fill="none" stroke="blue" d="M2563.83,-263.02C2321.42,-260.76 1900.84,-253.33 1877.49,-229 1872.87,-224.19 1873.57,-219.4 1877.49,-214 1892.58,-193.18 1908.14,-204.29 1932.49,-196 1935.36,-195.02 1938.33,-194 1941.32,-192.96"/>
<polygon fill="blue" stroke="blue" points="1942.54,-196.24 1950.82,-189.63 1940.23,-189.63 1942.54,-196.24"/>
<text text-anchor="middle" x="1941.99" y="-217.8" font-family="Times,serif" font-size="14.00">knowledge source</text>
</g>
<!-- primary knowledge source -->
<g id="node16" class="node">
<title>primary knowledge source</title>
<ellipse fill="none" stroke="blue" cx="2075.49" cy="-178" rx="38.19" ry="18"/>
<text text-anchor="middle" x="2075.49" y="-174.3" font-family="Times,serif" font-size="14.00">string</text>
</g>
<!-- reaction to participant association&#45;&gt;primary knowledge source -->
<g id="edge15" class="edge">
<title>reaction to participant association&#45;&gt;primary knowledge source</title>
<path fill="none" stroke="blue" d="M2565.77,-261.6C2359.58,-257.8 2033.25,-248.7 2014.49,-229 2002.23,-216.13 2018.07,-203.46 2036.68,-194.1"/>
<polygon fill="blue" stroke="blue" points="2038.34,-197.18 2045.92,-189.78 2035.38,-190.84 2038.34,-197.18"/>
<text text-anchor="middle" x="2109.49" y="-217.8" font-family="Times,serif" font-size="14.00">primary knowledge source</text>
</g>
<!-- aggregator knowledge source -->
<g id="node17" class="node">
<title>aggregator knowledge source</title>
<ellipse fill="none" stroke="blue" cx="2193.49" cy="-178" rx="38.19" ry="18"/>
<text text-anchor="middle" x="2193.49" y="-174.3" font-family="Times,serif" font-size="14.00">string</text>
</g>
<!-- reaction to participant association&#45;&gt;aggregator knowledge source -->
<g id="edge16" class="edge">
<title>reaction to participant association&#45;&gt;aggregator knowledge source</title>
<path fill="none" stroke="blue" d="M2568.26,-260.37C2430.45,-256.07 2251.52,-247.07 2222.49,-229 2213.63,-223.49 2207.19,-214.21 2202.66,-205.14"/>
<polygon fill="blue" stroke="blue" points="2205.83,-203.67 2198.61,-195.92 2199.43,-206.48 2205.83,-203.67"/>
<text text-anchor="middle" x="2328.99" y="-217.8" font-family="Times,serif" font-size="14.00">aggregator knowledge source</text>
</g>
<!-- timepoint -->
<g id="node18" class="node">
<title>timepoint</title>
<ellipse fill="none" stroke="blue" cx="2420.49" cy="-178" rx="55.49" ry="18"/>
<text text-anchor="middle" x="2420.49" y="-174.3" font-family="Times,serif" font-size="14.00">time type</text>
</g>
<!-- reaction to participant association&#45;&gt;timepoint -->
<g id="edge17" class="edge">
<title>reaction to participant association&#45;&gt;timepoint</title>
<path fill="none" stroke="blue" d="M2584.01,-256.22C2530.11,-251.13 2476.94,-242.75 2454.49,-229 2445.22,-223.33 2437.89,-214.07 2432.44,-205.05"/>
<polygon fill="blue" stroke="blue" points="2435.5,-203.34 2427.62,-196.25 2429.36,-206.71 2435.5,-203.34"/>
<text text-anchor="middle" x="2489.49" y="-217.8" font-family="Times,serif" font-size="14.00">timepoint</text>
</g>
<!-- original subject -->
<g id="node19" class="node">
<title>original subject</title>
<ellipse fill="none" stroke="blue" cx="2532.49" cy="-178" rx="38.19" ry="18"/>
<text text-anchor="middle" x="2532.49" y="-174.3" font-family="Times,serif" font-size="14.00">string</text>
</g>
<!-- reaction to participant association&#45;&gt;original subject -->
<g id="edge18" class="edge">
<title>reaction to participant association&#45;&gt;original subject</title>
<path fill="none" stroke="blue" d="M2601.64,-253.51C2571.14,-248.32 2544.59,-240.57 2534.49,-229 2529.1,-222.84 2527.41,-214.44 2527.42,-206.28"/>
<polygon fill="blue" stroke="blue" points="2530.91,-206.51 2528.2,-196.27 2523.93,-205.97 2530.91,-206.51"/>
<text text-anchor="middle" x="2590.49" y="-217.8" font-family="Times,serif" font-size="14.00">original subject</text>
</g>
<!-- original predicate -->
<g id="node20" class="node">
<title>original predicate</title>
<ellipse fill="none" stroke="blue" cx="2657.49" cy="-178" rx="57.39" ry="18"/>
<text text-anchor="middle" x="2657.49" y="-174.3" font-family="Times,serif" font-size="14.00">uriorcurie</text>
</g>
<!-- reaction to participant association&#45;&gt;original predicate -->
<g id="edge19" class="edge">
<title>reaction to participant association&#45;&gt;original predicate</title>
<path fill="none" stroke="blue" d="M2675.38,-247.93C2667.1,-243.15 2659.65,-236.97 2654.49,-229 2650.15,-222.3 2649.31,-213.98 2650.01,-206.06"/>
<polygon fill="blue" stroke="blue" points="2653.49,-206.48 2651.67,-196.05 2646.58,-205.34 2653.49,-206.48"/>
<text text-anchor="middle" x="2717.99" y="-217.8" font-family="Times,serif" font-size="14.00">original predicate</text>
</g>
<!-- original object -->
<g id="node21" class="node">
<title>original object</title>
<ellipse fill="none" stroke="blue" cx="2786.49" cy="-178" rx="38.19" ry="18"/>
<text text-anchor="middle" x="2786.49" y="-174.3" font-family="Times,serif" font-size="14.00">string</text>
</g>
<!-- reaction to participant association&#45;&gt;original object -->
<g id="edge20" class="edge">
<title>reaction to participant association&#45;&gt;original object</title>
<path fill="none" stroke="blue" d="M2768.25,-247.31C2775.13,-242.41 2781.44,-236.34 2785.49,-229 2789.23,-222.2 2790.48,-214.06 2790.53,-206.33"/>
<polygon fill="blue" stroke="blue" points="2794.01,-206.02 2789.96,-196.23 2787.02,-206.41 2794.01,-206.02"/>
<text text-anchor="middle" x="2841.99" y="-217.8" font-family="Times,serif" font-size="14.00">original object</text>
</g>
<!-- subject category -->
<g id="node22" class="node">
<title>subject category</title>
<ellipse fill="none" stroke="blue" cx="2919.49" cy="-178" rx="76.89" ry="18"/>
<text text-anchor="middle" x="2919.49" y="-174.3" font-family="Times,serif" font-size="14.00">ontology class</text>
</g>
<!-- reaction to participant association&#45;&gt;subject category -->
<g id="edge21" class="edge">
<title>reaction to participant association&#45;&gt;subject category</title>
<path fill="none" stroke="blue" d="M2832.94,-250.38C2860.92,-244.93 2886.64,-237.82 2897.49,-229 2904.68,-223.15 2909.59,-214.48 2912.9,-205.99"/>
<polygon fill="blue" stroke="blue" points="2916.29,-206.89 2916.11,-196.3 2909.65,-204.69 2916.29,-206.89"/>
<text text-anchor="middle" x="2968.99" y="-217.8" font-family="Times,serif" font-size="14.00">subject category</text>
</g>
<!-- object category -->
<g id="node23" class="node">
<title>object category</title>
<ellipse fill="none" stroke="blue" cx="3090.49" cy="-178" rx="76.89" ry="18"/>
<text text-anchor="middle" x="3090.49" y="-174.3" font-family="Times,serif" font-size="14.00">ontology class</text>
</g>
<!-- reaction to participant association&#45;&gt;object category -->
<g id="edge22" class="edge">
<title>reaction to participant association&#45;&gt;object category</title>
<path fill="none" stroke="blue" d="M2849.54,-251.94C2930,-243.4 3023.84,-232.8 3032.49,-229 3046.07,-223.04 3058.82,-212.77 3068.9,-203.09"/>
<polygon fill="blue" stroke="blue" points="3071.49,-205.45 3076.05,-195.88 3066.52,-200.52 3071.49,-205.45"/>
<text text-anchor="middle" x="3111.99" y="-217.8" font-family="Times,serif" font-size="14.00">object category</text>
</g>
<!-- subject closure -->
<g id="node24" class="node">
<title>subject closure</title>
<ellipse fill="none" stroke="blue" cx="3223.49" cy="-178" rx="38.19" ry="18"/>
<text text-anchor="middle" x="3223.49" y="-174.3" font-family="Times,serif" font-size="14.00">string</text>
</g>
<!-- reaction to participant association&#45;&gt;subject closure -->
<g id="edge23" class="edge">
<title>reaction to participant association&#45;&gt;subject closure</title>
<path fill="none" stroke="blue" d="M2852.32,-252.19C2872.08,-250.37 2892.35,-248.57 2911.49,-247 2969.21,-242.26 3118.54,-252.48 3171.49,-229 3184.31,-223.31 3195.87,-213.02 3204.82,-203.25"/>
<polygon fill="blue" stroke="blue" points="3207.52,-205.48 3211.41,-195.63 3202.22,-200.91 3207.52,-205.48"/>
<text text-anchor="middle" x="3247.99" y="-217.8" font-family="Times,serif" font-size="14.00">subject closure</text>
</g>
<!-- object closure -->
<g id="node25" class="node">
<title>object closure</title>
<ellipse fill="none" stroke="blue" cx="3336.49" cy="-178" rx="38.19" ry="18"/>
<text text-anchor="middle" x="3336.49" y="-174.3" font-family="Times,serif" font-size="14.00">string</text>
</g>
<!-- reaction to participant association&#45;&gt;object closure -->
<g id="edge24" class="edge">
<title>reaction to participant association&#45;&gt;object closure</title>
<path fill="none" stroke="blue" d="M2850.37,-251.97C2870.73,-250.13 2891.71,-248.39 2911.49,-247 2955.31,-243.92 3268.76,-251.51 3306.49,-229 3315.52,-223.61 3322.16,-214.36 3326.87,-205.27"/>
<polygon fill="blue" stroke="blue" points="3330.12,-206.57 3331.09,-196.02 3323.75,-203.67 3330.12,-206.57"/>
<text text-anchor="middle" x="3371.49" y="-217.8" font-family="Times,serif" font-size="14.00">object closure</text>
</g>
<!-- subject category closure -->
<g id="node26" class="node">
<title>subject category closure</title>
<ellipse fill="none" stroke="blue" cx="3469.49" cy="-178" rx="76.89" ry="18"/>
<text text-anchor="middle" x="3469.49" y="-174.3" font-family="Times,serif" font-size="14.00">ontology class</text>
</g>
<!-- reaction to participant association&#45;&gt;subject category closure -->
<g id="edge25" class="edge">
<title>reaction to participant association&#45;&gt;subject category closure</title>
<path fill="none" stroke="blue" d="M2849.39,-251.88C2870.06,-250.03 2891.39,-248.3 2911.49,-247 2968.51,-243.3 3373.83,-253.45 3425.49,-229 3436.8,-223.64 3446.42,-213.87 3453.75,-204.38"/>
<polygon fill="blue" stroke="blue" points="3456.61,-206.4 3459.58,-196.23 3450.92,-202.32 3456.61,-206.4"/>
<text text-anchor="middle" x="3531.99" y="-217.8" font-family="Times,serif" font-size="14.00">subject category closure</text>
</g>
<!-- object category closure -->
<g id="node27" class="node">
<title>object category closure</title>
<ellipse fill="none" stroke="blue" cx="3662.49" cy="-178" rx="76.89" ry="18"/>
<text text-anchor="middle" x="3662.49" y="-174.3" font-family="Times,serif" font-size="14.00">ontology class</text>
</g>
<!-- reaction to participant association&#45;&gt;object category closure -->
<g id="edge26" class="edge">
<title>reaction to participant association&#45;&gt;object category closure</title>
<path fill="none" stroke="blue" d="M2848.42,-251.81C2869.39,-249.94 2891.08,-248.23 2911.49,-247 2950.98,-244.63 3588.15,-246.81 3623.49,-229 3633.92,-223.74 3642.4,-214.26 3648.76,-204.95"/>
<polygon fill="blue" stroke="blue" points="3651.88,-206.56 3654.2,-196.22 3645.94,-202.86 3651.88,-206.56"/>
<text text-anchor="middle" x="3724.99" y="-217.8" font-family="Times,serif" font-size="14.00">object category closure</text>
</g>
<!-- subject namespace -->
<g id="node28" class="node">
<title>subject namespace</title>
<ellipse fill="none" stroke="blue" cx="3852.49" cy="-178" rx="38.19" ry="18"/>
<text text-anchor="middle" x="3852.49" y="-174.3" font-family="Times,serif" font-size="14.00">string</text>
</g>
<!-- reaction to participant association&#45;&gt;subject namespace -->
<g id="edge27" class="edge">
<title>reaction to participant association&#45;&gt;subject namespace</title>
<path fill="none" stroke="blue" d="M2847.94,-251.76C2869.06,-249.88 2890.92,-248.18 2911.49,-247 2961.47,-244.13 3767.58,-251.14 3812.49,-229 3823.33,-223.66 3832.17,-213.83 3838.76,-204.3"/>
<polygon fill="blue" stroke="blue" points="3841.78,-206.08 3844.18,-195.76 3835.87,-202.33 3841.78,-206.08"/>
<text text-anchor="middle" x="3898.49" y="-217.8" font-family="Times,serif" font-size="14.00">subject namespace</text>
</g>
<!-- object namespace -->
<g id="node29" class="node">
<title>object namespace</title>
<ellipse fill="none" stroke="blue" cx="4011.49" cy="-178" rx="38.19" ry="18"/>
<text text-anchor="middle" x="4011.49" y="-174.3" font-family="Times,serif" font-size="14.00">string</text>
</g>
<!-- reaction to participant association&#45;&gt;object namespace -->
<g id="edge28" class="edge">
<title>reaction to participant association&#45;&gt;object namespace</title>
<path fill="none" stroke="blue" d="M2847.45,-251.75C2868.72,-249.86 2890.76,-248.16 2911.49,-247 2970.24,-243.72 3917.51,-254.62 3970.49,-229 3981.47,-223.69 3990.52,-213.87 3997.3,-204.33"/>
<polygon fill="blue" stroke="blue" points="4000.34,-206.07 4002.87,-195.79 3994.48,-202.25 4000.34,-206.07"/>
<text text-anchor="middle" x="4052.49" y="-217.8" font-family="Times,serif" font-size="14.00">object namespace</text>
</g>
<!-- subject label closure -->
<g id="node30" class="node">
<title>subject label closure</title>
<ellipse fill="none" stroke="blue" cx="4162.49" cy="-178" rx="38.19" ry="18"/>
<text text-anchor="middle" x="4162.49" y="-174.3" font-family="Times,serif" font-size="14.00">string</text>
</g>
<!-- reaction to participant association&#45;&gt;subject label closure -->
<g id="edge29" class="edge">
<title>reaction to participant association&#45;&gt;subject label closure</title>
<path fill="none" stroke="blue" d="M2847.45,-251.71C2868.72,-249.83 2890.76,-248.14 2911.49,-247 2945.02,-245.16 4090.15,-243.41 4120.49,-229 4131.62,-223.71 4140.87,-213.9 4147.83,-204.35"/>
<polygon fill="blue" stroke="blue" points="4150.9,-206.06 4153.57,-195.81 4145.09,-202.16 4150.9,-206.06"/>
<text text-anchor="middle" x="4214.49" y="-217.8" font-family="Times,serif" font-size="14.00">subject label closure</text>
</g>
<!-- object label closure -->
<g id="node31" class="node">
<title>object label closure</title>
<ellipse fill="none" stroke="blue" cx="4333.49" cy="-178" rx="38.19" ry="18"/>
<text text-anchor="middle" x="4333.49" y="-174.3" font-family="Times,serif" font-size="14.00">string</text>
</g>
<!-- reaction to participant association&#45;&gt;object label closure -->
<g id="edge30" class="edge">
<title>reaction to participant association&#45;&gt;object label closure</title>
<path fill="none" stroke="blue" d="M2847.45,-251.68C2868.72,-249.8 2890.76,-248.12 2911.49,-247 2949.79,-244.93 4257.92,-245.64 4292.49,-229 4303.48,-223.71 4312.53,-213.89 4319.31,-204.35"/>
<polygon fill="blue" stroke="blue" points="4322.35,-206.09 4324.88,-195.8 4316.49,-202.27 4322.35,-206.09"/>
<text text-anchor="middle" x="4381.99" y="-217.8" font-family="Times,serif" font-size="14.00">object label closure</text>
</g>
<!-- retrieval source ids -->
<g id="node32" class="node">
<title>retrieval source ids</title>
<ellipse fill="none" stroke="blue" cx="4477.49" cy="-178" rx="84.49" ry="18"/>
<text text-anchor="middle" x="4477.49" y="-174.3" font-family="Times,serif" font-size="14.00">retrieval source</text>
</g>
<!-- reaction to participant association&#45;&gt;retrieval source ids -->
<g id="edge31" class="edge">
<title>reaction to participant association&#45;&gt;retrieval source ids</title>
<path fill="none" stroke="blue" d="M2846.97,-251.7C2868.39,-249.81 2890.6,-248.11 2911.49,-247 2954.32,-244.72 4419.7,-252.65 4455.49,-229 4463.42,-223.76 4468.51,-214.95 4471.77,-206.18"/>
<polygon fill="blue" stroke="blue" points="4475.16,-207.06 4474.73,-196.48 4468.47,-205.02 4475.16,-207.06"/>
<text text-anchor="middle" x="4537.99" y="-217.8" font-family="Times,serif" font-size="14.00">retrieval source ids</text>
</g>
<!-- type -->
<g id="node33" class="node">
<title>type</title>
<ellipse fill="none" stroke="black" cx="4611.49" cy="-178" rx="31.4" ry="18"/>
<text text-anchor="middle" x="4611.49" y="-174.3" font-family="Times,serif" font-size="14.00">type</text>
</g>
<!-- reaction to participant association&#45;&gt;type -->
<g id="edge32" class="edge">
<title>reaction to participant association&#45;&gt;type</title>
<path fill="none" stroke="blue" d="M2846.97,-251.68C2868.39,-249.79 2890.6,-248.1 2911.49,-247 2935.07,-245.76 4594.88,-245.78 4611.49,-229 4617.39,-223.03 4618.83,-214.44 4618.34,-206.06"/>
<polygon fill="blue" stroke="blue" points="4621.81,-205.55 4616.96,-196.13 4614.87,-206.52 4621.81,-205.55"/>
<text text-anchor="middle" x="4634.49" y="-217.8" font-family="Times,serif" font-size="14.00">type</text>
</g>
<!-- category -->
<g id="node35" class="node">
<title>category</title>
<ellipse fill="none" stroke="black" cx="4712.49" cy="-178" rx="51.19" ry="18"/>
<text text-anchor="middle" x="4712.49" y="-174.3" font-family="Times,serif" font-size="14.00">category</text>
</g>
<!-- reaction to participant association&#45;&gt;category -->
<g id="edge33" class="edge">
<title>reaction to participant association&#45;&gt;category</title>
<path fill="none" stroke="blue" d="M2846.97,-251.68C2868.39,-249.79 2890.6,-248.1 2911.49,-247 2959.84,-244.46 4609.19,-246.1 4654.49,-229 4668.76,-223.61 4681.89,-213.01 4692.03,-202.95"/>
<polygon fill="blue" stroke="blue" points="4694.81,-205.11 4699.18,-195.46 4689.75,-200.28 4694.81,-205.11"/>
<text text-anchor="middle" x="4710.99" y="-217.8" font-family="Times,serif" font-size="14.00">category</text>
</g>
<!-- object -->
<g id="node37" class="node">
<title>object</title>
<ellipse fill="none" stroke="black" cx="5417.49" cy="-91" rx="38.99" ry="18"/>
<text text-anchor="middle" x="5417.49" y="-87.3" font-family="Times,serif" font-size="14.00">object</text>
</g>
<!-- reaction to participant association&#45;&gt;object -->
<g id="edge34" class="edge">
<title>reaction to participant association&#45;&gt;object</title>
<path fill="none" stroke="blue" d="M2846.97,-251.67C2868.38,-249.78 2890.6,-248.09 2911.49,-247 2962.39,-244.34 4700.03,-249.99 4746.49,-229 4784.06,-212.03 4771.82,-178.85 4808.49,-160 4906.03,-109.84 5241.55,-96.37 5368.39,-93.02"/>
<polygon fill="blue" stroke="blue" points="5368.68,-96.52 5378.59,-92.77 5368.5,-89.52 5368.68,-96.52"/>
<text text-anchor="middle" x="4830.49" y="-174.3" font-family="Times,serif" font-size="14.00">object</text>
</g>
<!-- stoichiometry -->
<g id="node39" class="node">
<title>stoichiometry</title>
<ellipse fill="none" stroke="blue" cx="4905.49" cy="-178" rx="44.39" ry="18"/>
<text text-anchor="middle" x="4905.49" y="-174.3" font-family="Times,serif" font-size="14.00">integer</text>
</g>
<!-- reaction to participant association&#45;&gt;stoichiometry -->
<g id="edge35" class="edge">
<title>reaction to participant association&#45;&gt;stoichiometry</title>
<path fill="none" stroke="blue" d="M2846.97,-251.66C2868.38,-249.77 2890.6,-248.09 2911.49,-247 3017.01,-241.5 4711.2,-255.52 4813.49,-229 4835.96,-223.17 4858.91,-210.71 4876.27,-199.69"/>
<polygon fill="blue" stroke="blue" points="4878.36,-202.51 4884.8,-194.1 4874.52,-196.65 4878.36,-202.51"/>
<text text-anchor="middle" x="4900.99" y="-217.8" font-family="Times,serif" font-size="14.00">stoichiometry</text>
</g>
<!-- reaction direction -->
<g id="node40" class="node">
<title>reaction direction</title>
<ellipse fill="none" stroke="blue" cx="5089.49" cy="-178" rx="121.58" ry="18"/>
<text text-anchor="middle" x="5089.49" y="-174.3" font-family="Times,serif" font-size="14.00">ReactionDirectionEnum</text>
</g>
<!-- reaction to participant association&#45;&gt;reaction direction -->
<g id="edge36" class="edge">
<title>reaction to participant association&#45;&gt;reaction direction</title>
<path fill="none" stroke="blue" d="M2846.97,-251.65C2868.38,-249.76 2890.6,-248.08 2911.49,-247 3024.84,-241.13 4842.85,-249.52 4954.49,-229 4986.23,-223.17 5020.3,-210.49 5046.27,-199.37"/>
<polygon fill="blue" stroke="blue" points="5047.7,-202.57 5055.46,-195.35 5044.89,-196.15 5047.7,-202.57"/>
<text text-anchor="middle" x="5071.99" y="-217.8" font-family="Times,serif" font-size="14.00">reaction direction</text>
</g>
<!-- reaction side -->
<g id="node41" class="node">
<title>reaction side</title>
<ellipse fill="none" stroke="blue" cx="5327.49" cy="-178" rx="98.58" ry="18"/>
<text text-anchor="middle" x="5327.49" y="-174.3" font-family="Times,serif" font-size="14.00">ReactionSideEnum</text>
</g>
<!-- reaction to participant association&#45;&gt;reaction side -->
<g id="edge37" class="edge">
<title>reaction to participant association&#45;&gt;reaction side</title>
<path fill="none" stroke="blue" d="M2846.97,-251.64C2868.38,-249.75 2890.6,-248.07 2911.49,-247 3158.72,-234.28 4894.14,-262.08 5139.49,-229 5185.57,-222.79 5236.47,-208.79 5273.67,-197.18"/>
<polygon fill="blue" stroke="blue" points="5274.83,-200.49 5283.3,-194.14 5272.71,-193.82 5274.83,-200.49"/>
<text text-anchor="middle" x="5258.99" y="-217.8" font-family="Times,serif" font-size="14.00">reaction side</text>
</g>
<!-- subject -->
<g id="node42" class="node">
<title>subject</title>
<ellipse fill="none" stroke="black" cx="5488.49" cy="-178" rx="44.39" ry="18"/>
<text text-anchor="middle" x="5488.49" y="-174.3" font-family="Times,serif" font-size="14.00">subject</text>
</g>
<!-- reaction to participant association&#45;&gt;subject -->
<g id="edge38" class="edge">
<title>reaction to participant association&#45;&gt;subject</title>
<path fill="none" stroke="blue" d="M2846.97,-251.63C2868.38,-249.74 2890.6,-248.07 2911.49,-247 3177.59,-233.39 5045.35,-264.02 5309.49,-229 5357.87,-222.58 5411.58,-206.29 5447.42,-194.03"/>
<polygon fill="blue" stroke="blue" points="5448.74,-197.28 5457.04,-190.7 5446.44,-190.67 5448.74,-197.28"/>
<text text-anchor="middle" x="5404.49" y="-217.8" font-family="Times,serif" font-size="14.00">subject</text>
</g>
<!-- association_type -->
<g id="node34" class="node">
<title>association_type</title>
<ellipse fill="none" stroke="blue" cx="2958.49" cy="-265" rx="38.19" ry="18"/>
<text text-anchor="middle" x="2958.49" y="-261.3" font-family="Times,serif" font-size="14.00">string</text>
</g>
<!-- association_category -->
<g id="node36" class="node">
<title>association_category</title>
<ellipse fill="none" stroke="blue" cx="3089.49" cy="-265" rx="74.99" ry="18"/>
<text text-anchor="middle" x="3089.49" y="-261.3" font-family="Times,serif" font-size="14.00">category type</text>
</g>
<!-- relation -->
<g id="node44" class="node">
<title>relation</title>
<ellipse fill="none" stroke="black" cx="5452.49" cy="-18" rx="46.59" ry="18"/>
<text text-anchor="middle" x="5452.49" y="-14.3" font-family="Times,serif" font-size="14.00">relation</text>
</g>
<!-- object&#45;&gt;relation -->
<g id="edge41" class="edge">
<title>object&#45;&gt;relation</title>
<path fill="none" stroke="black" stroke-dasharray="1,5" d="M5425.78,-73.17C5429.86,-64.9 5434.88,-54.72 5439.45,-45.44"/>
<polygon fill="black" stroke="black" points="5442.73,-46.72 5444.01,-36.2 5436.45,-43.62 5442.73,-46.72"/>
</g>
<!-- chemical to chemical association_object -->
<g id="node38" class="node">
<title>chemical to chemical association_object</title>
<ellipse fill="none" stroke="blue" cx="3264.49" cy="-265" rx="81.79" ry="18"/>
<text text-anchor="middle" x="3264.49" y="-261.3" font-family="Times,serif" font-size="14.00">chemical entity</text>
</g>
<!-- subject&#45;&gt;object -->
<g id="edge39" class="edge">
<title>subject&#45;&gt;object</title>
<path fill="none" stroke="black" d="M5452.11,-167.42C5439.25,-162.12 5426.11,-154.06 5418.49,-142 5414.23,-135.26 5412.9,-126.93 5412.94,-119.01"/>
<polygon fill="black" stroke="black" points="5416.43,-119.23 5413.65,-109.01 5409.45,-118.73 5416.43,-119.23"/>
<text text-anchor="middle" x="5446.49" y="-130.8" font-family="Times,serif" font-size="14.00">relation</text>
</g>
<!-- subject&#45;&gt;relation -->
<g id="edge40" class="edge">
<title>subject&#45;&gt;relation</title>
<path fill="none" stroke="black" stroke-dasharray="1,5" d="M5484.84,-160.05C5480.38,-139.44 5472.56,-103.63 5465.49,-73 5463.45,-64.18 5461.16,-54.57 5459.07,-45.94"/>
<polygon fill="black" stroke="black" points="5462.42,-44.9 5456.67,-36.01 5455.62,-46.55 5462.42,-44.9"/>
</g>
<!-- reaction to participant association_subject -->
<g id="node43" class="node">
<title>reaction to participant association_subject</title>
<ellipse fill="none" stroke="blue" cx="3451.49" cy="-265" rx="87.18" ry="18"/>
<text text-anchor="middle" x="3451.49" y="-261.3" font-family="Times,serif" font-size="14.00">molecular entity</text>
</g>
</g>
</svg>
