<?xml version="1.0" encoding="UTF-8" standalone="no"?>
<!DOCTYPE svg PUBLIC "-//W3C//DTD SVG 1.1//EN"
 "http://www.w3.org/Graphics/SVG/1.1/DTD/svg11.dtd">
<!-- Generated by graphviz version 3.0.0 (20220226.1711)
 -->
<!-- Pages: 1 -->
<svg width="3088pt" height="291pt"
 viewBox="0.00 0.00 3087.99 291.00" xmlns="http://www.w3.org/2000/svg" xmlns:xlink="http://www.w3.org/1999/xlink">
<g id="graph0" class="graph" transform="scale(1 1) rotate(0) translate(4 287)">
<polygon fill="white" stroke="transparent" points="-4,4 -4,-287 3083.99,-287 3083.99,4 -4,4"/>
<!-- reaction to catalyst association -->
<g id="node1" class="node">
<title>reaction to catalyst association</title>
<ellipse fill="none" stroke="black" cx="1394.99" cy="-265" rx="118.88" ry="18"/>
<text text-anchor="middle" x="1394.99" y="-261.3" font-family="Times,serif" font-size="14.00">reaction to catalyst association</text>
</g>
<!-- reaction to participant association -->
<g id="node2" class="node">
<title>reaction to participant association</title>
<ellipse fill="none" stroke="black" cx="129.99" cy="-178" rx="129.98" ry="18"/>
<text text-anchor="middle" x="129.99" y="-174.3" font-family="Times,serif" font-size="14.00">reaction to participant association</text>
</g>
<!-- reaction to catalyst association&#45;&gt;reaction to participant association -->
<g id="edge1" class="edge">
<title>reaction to catalyst association&#45;&gt;reaction to participant association</title>
<path fill="none" stroke="black" d="M1277.01,-262.33C1048.07,-258.69 551.15,-248.75 380.99,-229 319.44,-221.86 250.46,-207.66 200.42,-196.21"/>
<polygon fill="black" stroke="black" points="201.2,-192.8 190.67,-193.96 199.63,-199.62 201.2,-192.8"/>
<text text-anchor="middle" x="391.99" y="-217.8" font-family="Times,serif" font-size="14.00">is_a</text>
</g>
<!-- id -->
<g id="node3" class="node">
<title>id</title>
<ellipse fill="none" stroke="blue" cx="308.99" cy="-178" rx="30.59" ry="18"/>
<text text-anchor="middle" x="308.99" y="-174.3" font-family="Times,serif" font-size="14.00">string</text>
</g>
<!-- reaction to catalyst association&#45;&gt;id -->
<g id="edge2" class="edge">
<title>reaction to catalyst association&#45;&gt;id</title>
<path fill="none" stroke="blue" d="M1277.03,-262.45C1066.18,-259.19 632.73,-250.09 482.99,-229 422.25,-220.45 407.18,-215.39 348.99,-196 346.61,-195.21 344.17,-194.33 341.73,-193.41"/>
<polygon fill="blue" stroke="blue" points="343.02,-190.16 332.44,-189.71 340.43,-196.66 343.02,-190.16"/>
<text text-anchor="middle" x="488.49" y="-217.8" font-family="Times,serif" font-size="14.00">id</text>
</g>
<!-- iri -->
<g id="node4" class="node">
<title>iri</title>
<ellipse fill="none" stroke="blue" cx="393.99" cy="-178" rx="36.29" ry="18"/>
<text text-anchor="middle" x="393.99" y="-174.3" font-family="Times,serif" font-size="14.00">iri type</text>
</g>
<!-- reaction to catalyst association&#45;&gt;iri -->
<g id="edge3" class="edge">
<title>reaction to catalyst association&#45;&gt;iri</title>
<path fill="none" stroke="blue" d="M1277.57,-262C1083.21,-258.19 702.88,-248.47 569.99,-229 511.01,-220.36 496.91,-213.69 439.99,-196 437.24,-195.15 434.42,-194.22 431.6,-193.26"/>
<polygon fill="blue" stroke="blue" points="432.64,-189.92 422.05,-189.9 430.32,-196.52 432.64,-189.92"/>
<text text-anchor="middle" x="576.49" y="-217.8" font-family="Times,serif" font-size="14.00">iri</text>
</g>
<!-- name -->
<g id="node5" class="node">
<title>name</title>
<ellipse fill="none" stroke="blue" cx="493.99" cy="-178" rx="45.49" ry="18"/>
<text text-anchor="middle" x="493.99" y="-174.3" font-family="Times,serif" font-size="14.00">label type</text>
</g>
<!-- reaction to catalyst association&#45;&gt;name -->
<g id="edge4" class="edge">
<title>reaction to catalyst association&#45;&gt;name</title>
<path fill="none" stroke="blue" d="M1276.82,-262.6C1095.81,-259.76 758.42,-251.55 639.99,-229 602.63,-221.89 561.81,-207.29 532.85,-195.69"/>
<polygon fill="blue" stroke="blue" points="534.09,-192.42 523.51,-191.89 531.46,-198.9 534.09,-192.42"/>
<text text-anchor="middle" x="655.49" y="-217.8" font-family="Times,serif" font-size="14.00">name</text>
</g>
<!-- description -->
<g id="node6" class="node">
<title>description</title>
<ellipse fill="none" stroke="blue" cx="614.99" cy="-178" rx="57.69" ry="18"/>
<text text-anchor="middle" x="614.99" y="-174.3" font-family="Times,serif" font-size="14.00">narrative text</text>
</g>
<!-- reaction to catalyst association&#45;&gt;description -->
<g id="edge5" class="edge">
<title>reaction to catalyst association&#45;&gt;description</title>
<path fill="none" stroke="blue" d="M1276,-264.07C1108.77,-263.11 813.12,-257.3 709.99,-229 687.64,-222.87 664.59,-210.9 646.8,-200.21"/>
<polygon fill="blue" stroke="blue" points="648.35,-197.05 638,-194.77 644.67,-203.01 648.35,-197.05"/>
<text text-anchor="middle" x="740.49" y="-217.8" font-family="Times,serif" font-size="14.00">description</text>
</g>
<!-- source -->
<g id="node7" class="node">
<title>source</title>
<ellipse fill="none" stroke="blue" cx="720.99" cy="-178" rx="30.59" ry="18"/>
<text text-anchor="middle" x="720.99" y="-174.3" font-family="Times,serif" font-size="14.00">string</text>
</g>
<!-- reaction to catalyst association&#45;&gt;source -->
<g id="edge6" class="edge">
<title>reaction to catalyst association&#45;&gt;source</title>
<path fill="none" stroke="blue" d="M1276.35,-263.41C1130.43,-261.55 891.68,-254.55 806.99,-229 785.5,-222.52 763.67,-209.73 747.38,-198.72"/>
<polygon fill="blue" stroke="blue" points="749.14,-195.68 738.94,-192.83 745.14,-201.42 749.14,-195.68"/>
<text text-anchor="middle" x="824.99" y="-217.8" font-family="Times,serif" font-size="14.00">source</text>
</g>
<!-- has attribute -->
<g id="node8" class="node">
<title>has attribute</title>
<ellipse fill="none" stroke="blue" cx="809.99" cy="-178" rx="40.09" ry="18"/>
<text text-anchor="middle" x="809.99" y="-174.3" font-family="Times,serif" font-size="14.00">attribute</text>
</g>
<!-- reaction to catalyst association&#45;&gt;has attribute -->
<g id="edge7" class="edge">
<title>reaction to catalyst association&#45;&gt;has attribute</title>
<path fill="none" stroke="blue" d="M1275.9,-264.54C1144.16,-263.64 941.07,-257.44 869.99,-229 855.4,-223.16 841.73,-212.37 831.13,-202.29"/>
<polygon fill="blue" stroke="blue" points="833.54,-199.75 823.98,-195.17 828.59,-204.71 833.54,-199.75"/>
<text text-anchor="middle" x="903.49" y="-217.8" font-family="Times,serif" font-size="14.00">has attribute</text>
</g>
<!-- predicate -->
<g id="node9" class="node">
<title>predicate</title>
<ellipse fill="none" stroke="blue" cx="928.99" cy="-178" rx="60.39" ry="18"/>
<text text-anchor="middle" x="928.99" y="-174.3" font-family="Times,serif" font-size="14.00">predicate type</text>
</g>
<!-- reaction to catalyst association&#45;&gt;predicate -->
<g id="edge8" class="edge">
<title>reaction to catalyst association&#45;&gt;predicate</title>
<path fill="none" stroke="blue" d="M1279.28,-260.76C1157.36,-256.42 979.33,-247.07 952.99,-229 945.03,-223.54 939.62,-214.69 935.99,-205.94"/>
<polygon fill="blue" stroke="blue" points="939.22,-204.56 932.6,-196.29 932.61,-206.88 939.22,-204.56"/>
<text text-anchor="middle" x="977.99" y="-217.8" font-family="Times,serif" font-size="14.00">predicate</text>
</g>
<!-- relation -->
<g id="node10" class="node">
<title>relation</title>
<ellipse fill="none" stroke="blue" cx="2942.99" cy="-18" rx="30.59" ry="18"/>
<text text-anchor="middle" x="2942.99" y="-14.3" font-family="Times,serif" font-size="14.00">string</text>
</g>
<!-- reaction to catalyst association&#45;&gt;relation -->
<g id="edge9" class="edge">
<title>reaction to catalyst association&#45;&gt;relation</title>
<path fill="none" stroke="blue" d="M1276.12,-264.07C1144.67,-260.25 960.75,-241 1035.99,-160 1167.46,-18.45 2636.5,-17.74 2901.99,-18.78"/>
<polygon fill="blue" stroke="blue" points="2902.31,-22.28 2912.33,-18.82 2902.34,-15.28 2902.31,-22.28"/>
<text text-anchor="middle" x="1117.99" y="-130.8" font-family="Times,serif" font-size="14.00">relation</text>
</g>
<!-- negated -->
<g id="node11" class="node">
<title>negated</title>
<ellipse fill="none" stroke="blue" cx="1082.99" cy="-178" rx="38.19" ry="18"/>
<text text-anchor="middle" x="1082.99" y="-174.3" font-family="Times,serif" font-size="14.00">boolean</text>
</g>
<!-- reaction to catalyst association&#45;&gt;negated -->
<g id="edge10" class="edge">
<title>reaction to catalyst association&#45;&gt;negated</title>
<path fill="none" stroke="blue" d="M1321.75,-250.77C1292.13,-244.89 1257.74,-237.4 1226.99,-229 1183.06,-217 1172.96,-211.08 1129.99,-196 1127.3,-195.06 1124.53,-194.08 1121.74,-193.08"/>
<polygon fill="blue" stroke="blue" points="1122.89,-189.78 1112.29,-189.7 1120.52,-196.37 1122.89,-189.78"/>
<text text-anchor="middle" x="1248.49" y="-217.8" font-family="Times,serif" font-size="14.00">negated</text>
</g>
<!-- qualifiers -->
<g id="node12" class="node">
<title>qualifiers</title>
<ellipse fill="none" stroke="blue" cx="1200.99" cy="-178" rx="61.99" ry="18"/>
<text text-anchor="middle" x="1200.99" y="-174.3" font-family="Times,serif" font-size="14.00">ontology class</text>
</g>
<!-- reaction to catalyst association&#45;&gt;qualifiers -->
<g id="edge11" class="edge">
<title>reaction to catalyst association&#45;&gt;qualifiers</title>
<path fill="none" stroke="blue" d="M1352.14,-248.11C1337.12,-242.34 1320.21,-235.61 1304.99,-229 1283.19,-219.54 1259.27,-208.11 1239.87,-198.57"/>
<polygon fill="blue" stroke="blue" points="1241.26,-195.35 1230.74,-194.06 1238.16,-201.63 1241.26,-195.35"/>
<text text-anchor="middle" x="1330.49" y="-217.8" font-family="Times,serif" font-size="14.00">qualifiers</text>
</g>
<!-- publications -->
<g id="node13" class="node">
<title>publications</title>
<ellipse fill="none" stroke="blue" cx="1330.99" cy="-178" rx="50.09" ry="18"/>
<text text-anchor="middle" x="1330.99" y="-174.3" font-family="Times,serif" font-size="14.00">publication</text>
</g>
<!-- reaction to catalyst association&#45;&gt;publications -->
<g id="edge12" class="edge">
<title>reaction to catalyst association&#45;&gt;publications</title>
<path fill="none" stroke="blue" d="M1382.04,-246.8C1372.72,-234.43 1360.02,-217.55 1349.61,-203.74"/>
<polygon fill="blue" stroke="blue" points="1352.3,-201.48 1343.48,-195.6 1346.7,-205.69 1352.3,-201.48"/>
<text text-anchor="middle" x="1400.49" y="-217.8" font-family="Times,serif" font-size="14.00">publications</text>
</g>
<!-- has evidence -->
<g id="node14" class="node">
<title>has evidence</title>
<ellipse fill="none" stroke="blue" cx="1458.99" cy="-178" rx="59.59" ry="18"/>
<text text-anchor="middle" x="1458.99" y="-174.3" font-family="Times,serif" font-size="14.00">evidence type</text>
</g>
<!-- reaction to catalyst association&#45;&gt;has evidence -->
<g id="edge13" class="edge">
<title>reaction to catalyst association&#45;&gt;has evidence</title>
<path fill="none" stroke="blue" d="M1419.02,-247.19C1425.43,-241.89 1431.96,-235.67 1436.99,-229 1442.26,-222 1446.59,-213.53 1449.98,-205.58"/>
<polygon fill="blue" stroke="blue" points="1453.24,-206.84 1453.63,-196.26 1446.72,-204.29 1453.24,-206.84"/>
<text text-anchor="middle" x="1480.99" y="-217.8" font-family="Times,serif" font-size="14.00">has evidence</text>
</g>
<!-- knowledge source -->
<g id="node15" class="node">
<title>knowledge source</title>
<ellipse fill="none" stroke="blue" cx="1621.99" cy="-178" rx="85.29" ry="18"/>
<text text-anchor="middle" x="1621.99" y="-174.3" font-family="Times,serif" font-size="14.00">information resource</text>
</g>
<!-- reaction to catalyst association&#45;&gt;knowledge source -->
<g id="edge14" class="edge">
<title>reaction to catalyst association&#45;&gt;knowledge source</title>
<path fill="none" stroke="blue" d="M1455.48,-249.45C1476.2,-243.84 1499.35,-236.87 1519.99,-229 1541.68,-220.73 1565,-209.49 1583.85,-199.76"/>
<polygon fill="blue" stroke="blue" points="1585.48,-202.86 1592.72,-195.13 1582.24,-196.65 1585.48,-202.86"/>
<text text-anchor="middle" x="1604.49" y="-217.8" font-family="Times,serif" font-size="14.00">knowledge source</text>
</g>
<!-- original knowledge source -->
<g id="node16" class="node">
<title>original knowledge source</title>
<ellipse fill="none" stroke="blue" cx="1809.99" cy="-178" rx="85.29" ry="18"/>
<text text-anchor="middle" x="1809.99" y="-174.3" font-family="Times,serif" font-size="14.00">information resource</text>
</g>
<!-- reaction to catalyst association&#45;&gt;original knowledge source -->
<g id="edge15" class="edge">
<title>reaction to catalyst association&#45;&gt;original knowledge source</title>
<path fill="none" stroke="blue" d="M1480.72,-252.51C1494.52,-250.66 1508.65,-248.78 1521.99,-247 1582.43,-238.96 1598.55,-242.58 1657.99,-229 1693.15,-220.96 1731.74,-208.22 1761.24,-197.61"/>
<polygon fill="blue" stroke="blue" points="1762.67,-200.81 1770.87,-194.1 1760.28,-194.23 1762.67,-200.81"/>
<text text-anchor="middle" x="1781.49" y="-217.8" font-family="Times,serif" font-size="14.00">original knowledge source</text>
</g>
<!-- primary knowledge source -->
<g id="node17" class="node">
<title>primary knowledge source</title>
<ellipse fill="none" stroke="blue" cx="1997.99" cy="-178" rx="85.29" ry="18"/>
<text text-anchor="middle" x="1997.99" y="-174.3" font-family="Times,serif" font-size="14.00">information resource</text>
</g>
<!-- reaction to catalyst association&#45;&gt;primary knowledge source -->
<g id="edge16" class="edge">
<title>reaction to catalyst association&#45;&gt;primary knowledge source</title>
<path fill="none" stroke="blue" d="M1477.54,-251.98C1492.32,-250.11 1507.59,-248.35 1521.99,-247 1670.89,-233.07 1711.37,-258.46 1857.99,-229 1891,-222.37 1926.73,-209.51 1953.83,-198.49"/>
<polygon fill="blue" stroke="blue" points="1955.5,-201.59 1963.4,-194.53 1952.83,-195.12 1955.5,-201.59"/>
<text text-anchor="middle" x="1982.99" y="-217.8" font-family="Times,serif" font-size="14.00">primary knowledge source</text>
</g>
<!-- aggregator knowledge source -->
<g id="node18" class="node">
<title>aggregator knowledge source</title>
<ellipse fill="none" stroke="blue" cx="2185.99" cy="-178" rx="85.29" ry="18"/>
<text text-anchor="middle" x="2185.99" y="-174.3" font-family="Times,serif" font-size="14.00">information resource</text>
</g>
<!-- reaction to catalyst association&#45;&gt;aggregator knowledge source -->
<g id="edge17" class="edge">
<title>reaction to catalyst association&#45;&gt;aggregator knowledge source</title>
<path fill="none" stroke="blue" d="M1476.5,-251.87C1491.59,-249.97 1507.25,-248.23 1521.99,-247 1641.2,-237.05 1942.89,-253.42 2059.99,-229 2089.68,-222.81 2121.42,-210.18 2145.61,-199.16"/>
<polygon fill="blue" stroke="blue" points="2147.23,-202.27 2154.82,-194.88 2144.28,-195.92 2147.23,-202.27"/>
<text text-anchor="middle" x="2189.99" y="-217.8" font-family="Times,serif" font-size="14.00">aggregator knowledge source</text>
</g>
<!-- type -->
<g id="node19" class="node">
<title>type</title>
<ellipse fill="none" stroke="black" cx="2315.99" cy="-178" rx="27" ry="18"/>
<text text-anchor="middle" x="2315.99" y="-174.3" font-family="Times,serif" font-size="14.00">type</text>
</g>
<!-- reaction to catalyst association&#45;&gt;type -->
<g id="edge18" class="edge">
<title>reaction to catalyst association&#45;&gt;type</title>
<path fill="none" stroke="blue" d="M1476.15,-251.79C1491.35,-249.89 1507.13,-248.17 1521.99,-247 1563.65,-243.72 2236.32,-247.1 2273.99,-229 2285.37,-223.53 2294.8,-213.36 2301.82,-203.61"/>
<polygon fill="blue" stroke="blue" points="2304.73,-205.54 2307.35,-195.28 2298.9,-201.67 2304.73,-205.54"/>
<text text-anchor="middle" x="2304.99" y="-217.8" font-family="Times,serif" font-size="14.00">type</text>
</g>
<!-- category -->
<g id="node21" class="node">
<title>category</title>
<ellipse fill="none" stroke="black" cx="2401.99" cy="-178" rx="40.89" ry="18"/>
<text text-anchor="middle" x="2401.99" y="-174.3" font-family="Times,serif" font-size="14.00">category</text>
</g>
<!-- reaction to catalyst association&#45;&gt;category -->
<g id="edge19" class="edge">
<title>reaction to catalyst association&#45;&gt;category</title>
<path fill="none" stroke="blue" d="M1476.15,-251.78C1491.35,-249.87 1507.13,-248.16 1521.99,-247 1610.52,-240.1 2235.84,-254.2 2320.99,-229 2340.73,-223.16 2360.43,-211.16 2375.46,-200.39"/>
<polygon fill="blue" stroke="blue" points="2377.8,-203.01 2383.74,-194.24 2373.63,-197.39 2377.8,-203.01"/>
<text text-anchor="middle" x="2378.49" y="-217.8" font-family="Times,serif" font-size="14.00">category</text>
</g>
<!-- stoichiometry -->
<g id="node23" class="node">
<title>stoichiometry</title>
<ellipse fill="none" stroke="blue" cx="2495.99" cy="-178" rx="35.19" ry="18"/>
<text text-anchor="middle" x="2495.99" y="-174.3" font-family="Times,serif" font-size="14.00">integer</text>
</g>
<!-- reaction to catalyst association&#45;&gt;stoichiometry -->
<g id="edge20" class="edge">
<title>reaction to catalyst association&#45;&gt;stoichiometry</title>
<path fill="none" stroke="blue" d="M1476.15,-251.75C1491.35,-249.85 1507.13,-248.14 1521.99,-247 1619.94,-239.47 2311.14,-254.61 2405.99,-229 2428.47,-222.93 2451.38,-210.09 2468.46,-198.94"/>
<polygon fill="blue" stroke="blue" points="2470.48,-201.79 2476.83,-193.31 2466.58,-195.99 2470.48,-201.79"/>
<text text-anchor="middle" x="2480.99" y="-217.8" font-family="Times,serif" font-size="14.00">stoichiometry</text>
</g>
<!-- reaction direction -->
<g id="node24" class="node">
<title>reaction direction</title>
<ellipse fill="none" stroke="blue" cx="2647.99" cy="-178" rx="98.58" ry="18"/>
<text text-anchor="middle" x="2647.99" y="-174.3" font-family="Times,serif" font-size="14.00">reaction_direction_enum</text>
</g>
<!-- reaction to catalyst association&#45;&gt;reaction direction -->
<g id="edge21" class="edge">
<title>reaction to catalyst association&#45;&gt;reaction direction</title>
<path fill="none" stroke="blue" d="M1475.8,-251.77C1491.11,-249.85 1507.02,-248.13 1521.99,-247 1632.91,-238.61 2413.95,-251.02 2522.99,-229 2552.42,-223.06 2583.78,-210.49 2607.73,-199.44"/>
<polygon fill="blue" stroke="blue" points="2609.3,-202.57 2616.86,-195.14 2606.32,-196.24 2609.3,-202.57"/>
<text text-anchor="middle" x="2620.99" y="-217.8" font-family="Times,serif" font-size="14.00">reaction direction</text>
</g>
<!-- reaction side -->
<g id="node25" class="node">
<title>reaction side</title>
<ellipse fill="none" stroke="blue" cx="2846.99" cy="-178" rx="81.79" ry="18"/>
<text text-anchor="middle" x="2846.99" y="-174.3" font-family="Times,serif" font-size="14.00">reaction_side_enum</text>
</g>
<!-- reaction to catalyst association&#45;&gt;reaction side -->
<g id="edge22" class="edge">
<title>reaction to catalyst association&#45;&gt;reaction side</title>
<path fill="none" stroke="blue" d="M1475.8,-251.74C1491.11,-249.82 1507.01,-248.12 1521.99,-247 1777.09,-228 2419.97,-266.65 2672.99,-229 2715.71,-222.64 2762.71,-208.7 2797.08,-197.15"/>
<polygon fill="blue" stroke="blue" points="2798.54,-200.35 2806.88,-193.81 2796.28,-193.73 2798.54,-200.35"/>
<text text-anchor="middle" x="2774.99" y="-217.8" font-family="Times,serif" font-size="14.00">reaction side</text>
</g>
<!-- subject -->
<g id="node26" class="node">
<title>subject</title>
<ellipse fill="none" stroke="black" cx="2982.99" cy="-178" rx="36" ry="18"/>
<text text-anchor="middle" x="2982.99" y="-174.3" font-family="Times,serif" font-size="14.00">subject</text>
</g>
<!-- reaction to catalyst association&#45;&gt;subject -->
<g id="edge23" class="edge">
<title>reaction to catalyst association&#45;&gt;subject</title>
<path fill="none" stroke="blue" d="M1475.8,-251.72C1491.11,-249.81 1507.01,-248.1 1521.99,-247 1808.35,-225.91 2529.54,-268.22 2813.99,-229 2860.75,-222.55 2912.52,-205.72 2946.29,-193.36"/>
<polygon fill="blue" stroke="blue" points="2947.59,-196.61 2955.74,-189.84 2945.15,-190.05 2947.59,-196.61"/>
<text text-anchor="middle" x="2899.49" y="-217.8" font-family="Times,serif" font-size="14.00">subject</text>
</g>
<!-- object -->
<g id="node28" class="node">
<title>object</title>
<ellipse fill="none" stroke="black" cx="3002.99" cy="-91" rx="32.49" ry="18"/>
<text text-anchor="middle" x="3002.99" y="-87.3" font-family="Times,serif" font-size="14.00">object</text>
</g>
<!-- reaction to catalyst association&#45;&gt;object -->
<g id="edge24" class="edge">
<title>reaction to catalyst association&#45;&gt;object</title>
<path fill="none" stroke="blue" d="M1475.8,-251.7C1491.11,-249.79 1507.01,-248.09 1521.99,-247 1677.25,-235.65 2769.26,-253.6 2922.99,-229 2971.29,-221.27 2994.91,-232.04 3027.99,-196 3049.03,-173.07 3052.3,-155.59 3039.99,-127 3037.72,-121.72 3034.21,-116.87 3030.25,-112.56"/>
<polygon fill="blue" stroke="blue" points="3032.43,-109.81 3022.78,-105.43 3027.6,-114.87 3032.43,-109.81"/>
<text text-anchor="middle" x="3062.99" y="-174.3" font-family="Times,serif" font-size="14.00">object</text>
</g>
<!-- association_type -->
<g id="node20" class="node">
<title>association_type</title>
<ellipse fill="none" stroke="blue" cx="1561.99" cy="-265" rx="30.59" ry="18"/>
<text text-anchor="middle" x="1561.99" y="-261.3" font-family="Times,serif" font-size="14.00">string</text>
</g>
<!-- association_category -->
<g id="node22" class="node">
<title>association_category</title>
<ellipse fill="none" stroke="blue" cx="1668.99" cy="-265" rx="58.49" ry="18"/>
<text text-anchor="middle" x="1668.99" y="-261.3" font-family="Times,serif" font-size="14.00">category type</text>
</g>
<!-- subject&#45;&gt;relation -->
<g id="edge26" class="edge">
<title>subject&#45;&gt;relation</title>
<path fill="none" stroke="black" stroke-dasharray="1,5" d="M2977.29,-160.08C2972.8,-146.39 2966.55,-126.58 2961.99,-109 2956.55,-88.04 2951.54,-64.03 2948.03,-46.08"/>
<polygon fill="black" stroke="black" points="2951.43,-45.19 2946.1,-36.03 2944.55,-46.51 2951.43,-45.19"/>
</g>
<!-- subject&#45;&gt;object -->
<g id="edge25" class="edge">
<title>subject&#45;&gt;object</title>
<path fill="none" stroke="black" d="M2987.04,-159.8C2989.79,-148.09 2993.5,-132.34 2996.64,-118.97"/>
<polygon fill="black" stroke="black" points="3000.13,-119.42 2999.02,-108.89 2993.32,-117.82 3000.13,-119.42"/>
<text text-anchor="middle" x="3014.99" y="-130.8" font-family="Times,serif" font-size="14.00">relation</text>
</g>
<!-- reaction to participant association_subject -->
<g id="node27" class="node">
<title>reaction to participant association_subject</title>
<ellipse fill="none" stroke="blue" cx="1813.99" cy="-265" rx="68.79" ry="18"/>
<text text-anchor="middle" x="1813.99" y="-261.3" font-family="Times,serif" font-size="14.00">molecular entity</text>
</g>
<!-- object&#45;&gt;relation -->
<g id="edge27" class="edge">
<title>object&#45;&gt;relation</title>
<path fill="none" stroke="black" stroke-dasharray="1,5" d="M2989.67,-74.24C2981.83,-64.96 2971.75,-53.03 2962.97,-42.64"/>
<polygon fill="black" stroke="black" points="2965.4,-40.09 2956.27,-34.71 2960.05,-44.61 2965.4,-40.09"/>
</g>
<!-- reaction to catalyst association_object -->
<g id="node29" class="node">
<title>reaction to catalyst association_object</title>
<ellipse fill="none" stroke="blue" cx="1985.99" cy="-265" rx="85.29" ry="18"/>
<text text-anchor="middle" x="1985.99" y="-261.3" font-family="Times,serif" font-size="14.00">gene or gene product</text>
</g>
</g>
</svg>
