<?xml version="1.0" encoding="UTF-8" standalone="no"?>
<!DOCTYPE svg PUBLIC "-//W3C//DTD SVG 1.1//EN"
 "http://www.w3.org/Graphics/SVG/1.1/DTD/svg11.dtd">
<!-- Generated by graphviz version 2.43.0 (0)
 -->
<!-- Title: %3 Pages: 1 -->
<svg width="2869pt" height="131pt"
 viewBox="0.00 0.00 2868.53 131.00" xmlns="http://www.w3.org/2000/svg" xmlns:xlink="http://www.w3.org/1999/xlink">
<g id="graph0" class="graph" transform="scale(1 1) rotate(0) translate(4 127)">
<title>%3</title>
<polygon fill="white" stroke="transparent" points="-4,4 -4,-127 2864.53,-127 2864.53,4 -4,4"/>
<!-- regulatory region -->
<g id="node1" class="node">
<title>regulatory region</title>
<ellipse fill="none" stroke="black" cx="1572.14" cy="-105" rx="92.08" ry="18"/>
<text text-anchor="middle" x="1572.14" y="-101.3" font-family="Times,serif" font-size="14.00">regulatory region</text>
</g>
<!-- biological entity -->
<g id="node2" class="node">
<title>biological entity</title>
<ellipse fill="none" stroke="black" cx="85.14" cy="-18" rx="85.29" ry="18"/>
<text text-anchor="middle" x="85.14" y="-14.3" font-family="Times,serif" font-size="14.00">biological entity</text>
</g>
<!-- regulatory region&#45;&gt;biological entity -->
<g id="edge1" class="edge">
<title>regulatory region&#45;&gt;biological entity</title>
<path fill="none" stroke="black" d="M1480.11,-103.3C1293.3,-101.37 856.23,-94.31 490.14,-69 351.48,-59.41 316.74,-55.71 179.14,-36 171.58,-34.92 163.7,-33.67 155.86,-32.36"/>
<polygon fill="black" stroke="black" points="156.41,-28.91 145.97,-30.67 155.23,-35.81 156.41,-28.91"/>
<text text-anchor="middle" x="504.14" y="-57.8" font-family="Times,serif" font-size="14.00">is_a</text>
</g>
<!-- genomic entity -->
<g id="node3" class="node">
<title>genomic entity</title>
<ellipse fill="none" stroke="black" cx="268.14" cy="-18" rx="79.89" ry="18"/>
<text text-anchor="middle" x="268.14" y="-14.3" font-family="Times,serif" font-size="14.00">genomic entity</text>
</g>
<!-- regulatory region&#45;&gt;genomic entity -->
<g id="edge2" class="edge">
<title>regulatory region&#45;&gt;genomic entity</title>
<path fill="none" stroke="black" d="M1479.89,-103.41C1276.36,-101.1 773.83,-89.92 357.14,-36 349.77,-35.05 342.08,-33.86 334.45,-32.57"/>
<polygon fill="black" stroke="black" points="334.93,-29.1 324.48,-30.82 333.72,-36 334.93,-29.1"/>
<text text-anchor="middle" x="672.64" y="-57.8" font-family="Times,serif" font-size="14.00">uses</text>
</g>
<!-- chemical entity or gene or gene product -->
<g id="node4" class="node">
<title>chemical entity or gene or gene product</title>
<ellipse fill="none" stroke="black" cx="563.14" cy="-18" rx="196.87" ry="18"/>
<text text-anchor="middle" x="563.14" y="-14.3" font-family="Times,serif" font-size="14.00">chemical entity or gene or gene product</text>
</g>
<!-- regulatory region&#45;&gt;chemical entity or gene or gene product -->
<g id="edge3" class="edge">
<title>regulatory region&#45;&gt;chemical entity or gene or gene product</title>
<path fill="none" stroke="black" d="M1483.8,-99.5C1375.92,-93.74 1187.97,-82.82 1027.14,-69 911.87,-59.09 780.83,-44.68 687.47,-33.87"/>
<polygon fill="black" stroke="black" points="687.76,-30.38 677.42,-32.71 686.95,-37.34 687.76,-30.38"/>
<text text-anchor="middle" x="1043.64" y="-57.8" font-family="Times,serif" font-size="14.00">uses</text>
</g>
<!-- physical essence -->
<g id="node5" class="node">
<title>physical essence</title>
<ellipse fill="none" stroke="black" cx="866.14" cy="-18" rx="88.28" ry="18"/>
<text text-anchor="middle" x="866.14" y="-14.3" font-family="Times,serif" font-size="14.00">physical essence</text>
</g>
<!-- regulatory region&#45;&gt;physical essence -->
<g id="edge4" class="edge">
<title>regulatory region&#45;&gt;physical essence</title>
<path fill="none" stroke="black" d="M1485.49,-98.78C1401.58,-93.23 1270.85,-83.28 1158.14,-69 1070.94,-57.95 1049.77,-50.92 963.14,-36 955.82,-34.74 948.19,-33.42 940.56,-32.09"/>
<polygon fill="black" stroke="black" points="941.02,-28.62 930.57,-30.35 939.82,-35.51 941.02,-28.62"/>
<text text-anchor="middle" x="1174.64" y="-57.8" font-family="Times,serif" font-size="14.00">uses</text>
</g>
<!-- ontology class -->
<g id="node6" class="node">
<title>ontology class</title>
<ellipse fill="none" stroke="black" cx="1049.14" cy="-18" rx="76.89" ry="18"/>
<text text-anchor="middle" x="1049.14" y="-14.3" font-family="Times,serif" font-size="14.00">ontology class</text>
</g>
<!-- regulatory region&#45;&gt;ontology class -->
<g id="edge5" class="edge">
<title>regulatory region&#45;&gt;ontology class</title>
<path fill="none" stroke="black" d="M1489.26,-97C1427.72,-91.2 1341.87,-81.82 1267.14,-69 1212.82,-59.68 1151.72,-45.33 1108.05,-34.38"/>
<polygon fill="black" stroke="black" points="1108.73,-30.94 1098.18,-31.89 1107.02,-37.73 1108.73,-30.94"/>
<text text-anchor="middle" x="1283.64" y="-57.8" font-family="Times,serif" font-size="14.00">uses</text>
</g>
<!-- id -->
<g id="node7" class="node">
<title>id</title>
<ellipse fill="none" stroke="blue" cx="1182.14" cy="-18" rx="38.19" ry="18"/>
<text text-anchor="middle" x="1182.14" y="-14.3" font-family="Times,serif" font-size="14.00">string</text>
</g>
<!-- regulatory region&#45;&gt;id -->
<g id="edge6" class="edge">
<title>regulatory region&#45;&gt;id</title>
<path fill="none" stroke="blue" d="M1501.25,-93.4C1431.52,-82.16 1322.4,-62.38 1230.14,-36 1227.04,-35.11 1223.85,-34.13 1220.65,-33.11"/>
<polygon fill="blue" stroke="blue" points="1221.74,-29.78 1211.15,-29.92 1219.52,-36.42 1221.74,-29.78"/>
<text text-anchor="middle" x="1368.14" y="-57.8" font-family="Times,serif" font-size="14.00">id</text>
</g>
<!-- iri -->
<g id="node8" class="node">
<title>iri</title>
<ellipse fill="none" stroke="blue" cx="1283.14" cy="-18" rx="44.39" ry="18"/>
<text text-anchor="middle" x="1283.14" y="-14.3" font-family="Times,serif" font-size="14.00">iri type</text>
</g>
<!-- regulatory region&#45;&gt;iri -->
<g id="edge7" class="edge">
<title>regulatory region&#45;&gt;iri</title>
<path fill="none" stroke="blue" d="M1521,-89.91C1498.34,-83.61 1471.38,-76.03 1447.14,-69 1398.12,-54.78 1385.93,-51 1337.14,-36 1333.65,-34.93 1330.03,-33.81 1326.4,-32.67"/>
<polygon fill="blue" stroke="blue" points="1327.41,-29.32 1316.82,-29.68 1325.32,-36.01 1327.41,-29.32"/>
<text text-anchor="middle" x="1455.14" y="-57.8" font-family="Times,serif" font-size="14.00">iri</text>
</g>
<!-- type -->
<g id="node9" class="node">
<title>type</title>
<ellipse fill="none" stroke="blue" cx="1384.14" cy="-18" rx="38.19" ry="18"/>
<text text-anchor="middle" x="1384.14" y="-14.3" font-family="Times,serif" font-size="14.00">string</text>
</g>
<!-- regulatory region&#45;&gt;type -->
<g id="edge8" class="edge">
<title>regulatory region&#45;&gt;type</title>
<path fill="none" stroke="blue" d="M1537.22,-88.21C1503.88,-73.14 1453.86,-50.52 1420.15,-35.28"/>
<polygon fill="blue" stroke="blue" points="1421.24,-31.93 1410.68,-31 1418.35,-38.31 1421.24,-31.93"/>
<text text-anchor="middle" x="1506.14" y="-57.8" font-family="Times,serif" font-size="14.00">type</text>
</g>
<!-- name -->
<g id="node10" class="node">
<title>name</title>
<ellipse fill="none" stroke="blue" cx="1497.14" cy="-18" rx="56.59" ry="18"/>
<text text-anchor="middle" x="1497.14" y="-14.3" font-family="Times,serif" font-size="14.00">label type</text>
</g>
<!-- regulatory region&#45;&gt;name -->
<g id="edge9" class="edge">
<title>regulatory region&#45;&gt;name</title>
<path fill="none" stroke="blue" d="M1557.32,-87.21C1546.26,-74.67 1530.98,-57.35 1518.59,-43.3"/>
<polygon fill="blue" stroke="blue" points="1520.91,-40.65 1511.67,-35.47 1515.67,-45.28 1520.91,-40.65"/>
<text text-anchor="middle" x="1559.14" y="-57.8" font-family="Times,serif" font-size="14.00">name</text>
</g>
<!-- description -->
<g id="node11" class="node">
<title>description</title>
<ellipse fill="none" stroke="blue" cx="1647.14" cy="-18" rx="75.29" ry="18"/>
<text text-anchor="middle" x="1647.14" y="-14.3" font-family="Times,serif" font-size="14.00">narrative text</text>
</g>
<!-- regulatory region&#45;&gt;description -->
<g id="edge10" class="edge">
<title>regulatory region&#45;&gt;description</title>
<path fill="none" stroke="blue" d="M1586.96,-87.21C1597.95,-74.75 1613.11,-57.57 1625.46,-43.57"/>
<polygon fill="blue" stroke="blue" points="1628.36,-45.57 1632.36,-35.76 1623.11,-40.94 1628.36,-45.57"/>
<text text-anchor="middle" x="1654.64" y="-57.8" font-family="Times,serif" font-size="14.00">description</text>
</g>
<!-- has attribute -->
<g id="node12" class="node">
<title>has attribute</title>
<ellipse fill="none" stroke="blue" cx="1792.14" cy="-18" rx="51.99" ry="18"/>
<text text-anchor="middle" x="1792.14" y="-14.3" font-family="Times,serif" font-size="14.00">attribute</text>
</g>
<!-- regulatory region&#45;&gt;has attribute -->
<g id="edge11" class="edge">
<title>regulatory region&#45;&gt;has attribute</title>
<path fill="none" stroke="blue" d="M1630.26,-90.91C1652.21,-85.21 1677.17,-77.8 1699.14,-69 1719.53,-60.83 1741.2,-49.36 1758.5,-39.46"/>
<polygon fill="blue" stroke="blue" points="1760.73,-42.21 1767.62,-34.15 1757.21,-36.16 1760.73,-42.21"/>
<text text-anchor="middle" x="1778.14" y="-57.8" font-family="Times,serif" font-size="14.00">has attribute</text>
</g>
<!-- provided by -->
<g id="node13" class="node">
<title>provided by</title>
<ellipse fill="none" stroke="blue" cx="1900.14" cy="-18" rx="38.19" ry="18"/>
<text text-anchor="middle" x="1900.14" y="-14.3" font-family="Times,serif" font-size="14.00">string</text>
</g>
<!-- regulatory region&#45;&gt;provided by -->
<g id="edge12" class="edge">
<title>regulatory region&#45;&gt;provided by</title>
<path fill="none" stroke="blue" d="M1638.08,-92.4C1649.74,-90.49 1661.79,-88.61 1673.14,-87 1742.24,-77.2 1763.93,-93.86 1829.14,-69 1846.01,-62.57 1862.64,-51.21 1875.56,-40.94"/>
<polygon fill="blue" stroke="blue" points="1877.98,-43.48 1883.47,-34.42 1873.53,-38.08 1877.98,-43.48"/>
<text text-anchor="middle" x="1899.64" y="-57.8" font-family="Times,serif" font-size="14.00">provided by</text>
</g>
<!-- xref -->
<g id="node14" class="node">
<title>xref</title>
<ellipse fill="none" stroke="blue" cx="2014.14" cy="-18" rx="57.39" ry="18"/>
<text text-anchor="middle" x="2014.14" y="-14.3" font-family="Times,serif" font-size="14.00">uriorcurie</text>
</g>
<!-- regulatory region&#45;&gt;xref -->
<g id="edge13" class="edge">
<title>regulatory region&#45;&gt;xref</title>
<path fill="none" stroke="blue" d="M1636.93,-92.1C1648.94,-90.18 1661.4,-88.37 1673.14,-87 1733.53,-79.95 1889.03,-89.84 1946.14,-69 1962.14,-63.16 1977.62,-52.33 1989.76,-42.23"/>
<polygon fill="blue" stroke="blue" points="1992.34,-44.62 1997.6,-35.43 1987.75,-39.34 1992.34,-44.62"/>
<text text-anchor="middle" x="1987.64" y="-57.8" font-family="Times,serif" font-size="14.00">xref</text>
</g>
<!-- full name -->
<g id="node15" class="node">
<title>full name</title>
<ellipse fill="none" stroke="blue" cx="2146.14" cy="-18" rx="56.59" ry="18"/>
<text text-anchor="middle" x="2146.14" y="-14.3" font-family="Times,serif" font-size="14.00">label type</text>
</g>
<!-- regulatory region&#45;&gt;full name -->
<g id="edge14" class="edge">
<title>regulatory region&#45;&gt;full name</title>
<path fill="none" stroke="blue" d="M1636.38,-92.07C1648.55,-90.13 1661.21,-88.32 1673.14,-87 1820.46,-70.67 1860.84,-98.23 2006.14,-69 2040.66,-62.06 2078.14,-48.32 2105.63,-36.99"/>
<polygon fill="blue" stroke="blue" points="2107.04,-40.2 2114.92,-33.1 2104.34,-33.74 2107.04,-40.2"/>
<text text-anchor="middle" x="2091.64" y="-57.8" font-family="Times,serif" font-size="14.00">full name</text>
</g>
<!-- category -->
<g id="node16" class="node">
<title>category</title>
<ellipse fill="none" stroke="black" cx="2272.14" cy="-18" rx="51.19" ry="18"/>
<text text-anchor="middle" x="2272.14" y="-14.3" font-family="Times,serif" font-size="14.00">category</text>
</g>
<!-- regulatory region&#45;&gt;category -->
<g id="edge15" class="edge">
<title>regulatory region&#45;&gt;category</title>
<path fill="none" stroke="blue" d="M1636.09,-91.97C1648.35,-90.03 1661.12,-88.24 1673.14,-87 1874.89,-66.13 1929.89,-106.89 2129.14,-69 2164.97,-62.19 2203.93,-48.09 2232.13,-36.59"/>
<polygon fill="blue" stroke="blue" points="2233.74,-39.72 2241.63,-32.65 2231.05,-33.25 2233.74,-39.72"/>
<text text-anchor="middle" x="2213.64" y="-57.8" font-family="Times,serif" font-size="14.00">category</text>
</g>
<!-- in taxon -->
<g id="node18" class="node">
<title>in taxon</title>
<ellipse fill="none" stroke="blue" cx="2425.14" cy="-18" rx="83.39" ry="18"/>
<text text-anchor="middle" x="2425.14" y="-14.3" font-family="Times,serif" font-size="14.00">organism taxon</text>
</g>
<!-- regulatory region&#45;&gt;in taxon -->
<g id="edge16" class="edge">
<title>regulatory region&#45;&gt;in taxon</title>
<path fill="none" stroke="blue" d="M1635.81,-91.94C1648.16,-89.98 1661.02,-88.2 1673.14,-87 1928.01,-61.69 1996.05,-108.29 2249.14,-69 2292.14,-62.32 2339.51,-48.48 2374.27,-37.05"/>
<polygon fill="blue" stroke="blue" points="2375.8,-40.22 2384.18,-33.74 2373.58,-33.58 2375.8,-40.22"/>
<text text-anchor="middle" x="2347.14" y="-57.8" font-family="Times,serif" font-size="14.00">in taxon</text>
</g>
<!-- in taxon label -->
<g id="node19" class="node">
<title>in taxon label</title>
<ellipse fill="none" stroke="blue" cx="2583.14" cy="-18" rx="56.59" ry="18"/>
<text text-anchor="middle" x="2583.14" y="-14.3" font-family="Times,serif" font-size="14.00">label type</text>
</g>
<!-- regulatory region&#45;&gt;in taxon label -->
<g id="edge17" class="edge">
<title>regulatory region&#45;&gt;in taxon label</title>
<path fill="none" stroke="blue" d="M1635.81,-91.88C1648.15,-89.93 1661.02,-88.17 1673.14,-87 1986.02,-56.84 2068.51,-110.03 2380.14,-69 2433.83,-61.93 2493.89,-46.12 2534.66,-34.16"/>
<polygon fill="blue" stroke="blue" points="2535.75,-37.48 2544.34,-31.28 2533.75,-30.77 2535.75,-37.48"/>
<text text-anchor="middle" x="2507.64" y="-57.8" font-family="Times,serif" font-size="14.00">in taxon label</text>
</g>
<!-- has biological sequence -->
<g id="node20" class="node">
<title>has biological sequence</title>
<ellipse fill="none" stroke="blue" cx="2759.14" cy="-18" rx="101.28" ry="18"/>
<text text-anchor="middle" x="2759.14" y="-14.3" font-family="Times,serif" font-size="14.00">biological sequence</text>
</g>
<!-- regulatory region&#45;&gt;has biological sequence -->
<g id="edge18" class="edge">
<title>regulatory region&#45;&gt;has biological sequence</title>
<path fill="none" stroke="blue" d="M1635.53,-91.87C1647.96,-89.91 1660.93,-88.15 1673.14,-87 1869.43,-68.59 2364.74,-95.19 2560.14,-69 2608.97,-62.46 2663.11,-48.39 2702.58,-36.84"/>
<polygon fill="blue" stroke="blue" points="2703.69,-40.16 2712.28,-33.97 2701.7,-33.45 2703.69,-40.16"/>
<text text-anchor="middle" x="2722.64" y="-57.8" font-family="Times,serif" font-size="14.00">has biological sequence</text>
</g>
<!-- named thing_category -->
<g id="node17" class="node">
<title>named thing_category</title>
<ellipse fill="none" stroke="blue" cx="1757.14" cy="-105" rx="74.99" ry="18"/>
<text text-anchor="middle" x="1757.14" y="-101.3" font-family="Times,serif" font-size="14.00">category type</text>
</g>
</g>
</svg>
