<?xml version="1.0" encoding="UTF-8" standalone="no"?>
<!DOCTYPE svg PUBLIC "-//W3C//DTD SVG 1.1//EN"
 "http://www.w3.org/Graphics/SVG/1.1/DTD/svg11.dtd">
<!-- Generated by graphviz version 2.44.0 (20200408.0750)
 -->
<!-- Pages: 1 -->
<svg width="454pt" height="131pt"
 viewBox="0.00 0.00 454.24 131.00" xmlns="http://www.w3.org/2000/svg" xmlns:xlink="http://www.w3.org/1999/xlink">
<g id="graph0" class="graph" transform="scale(1 1) rotate(0) translate(4 127)">
<polygon fill="white" stroke="transparent" points="-4,4 -4,-127 450.24,-127 450.24,4 -4,4"/>
<!-- relationship type -->
<g id="node1" class="node">
<title>relationship type</title>
<ellipse fill="none" stroke="black" cx="218.74" cy="-105" rx="69.59" ry="18"/>
<text text-anchor="middle" x="218.74" y="-101.3" font-family="Times,serif" font-size="14.00">relationship type</text>
</g>
<!-- ontology class -->
<g id="node2" class="node">
<title>ontology class</title>
<ellipse fill="none" stroke="black" cx="61.74" cy="-18" rx="61.99" ry="18"/>
<text text-anchor="middle" x="61.74" y="-14.3" font-family="Times,serif" font-size="14.00">ontology class</text>
</g>
<!-- relationship type&#45;&gt;ontology class -->
<g id="edge1" class="edge">
<title>relationship type&#45;&gt;ontology class</title>
<path fill="none" stroke="black" d="M189.95,-88.41C164.34,-74.54 126.74,-54.19 98.87,-39.1"/>
<polygon fill="black" stroke="black" points="100.29,-35.89 89.83,-34.21 96.96,-42.04 100.29,-35.89"/>
<text text-anchor="middle" x="160.74" y="-57.8" font-family="Times,serif" font-size="14.00">is_a</text>
</g>
<!-- id -->
<g id="node3" class="node">
<title>id</title>
<ellipse fill="none" stroke="blue" cx="171.74" cy="-18" rx="30.59" ry="18"/>
<text text-anchor="middle" x="171.74" y="-14.3" font-family="Times,serif" font-size="14.00">string</text>
</g>
<!-- relationship type&#45;&gt;id -->
<g id="edge2" class="edge">
<title>relationship type&#45;&gt;id</title>
<path fill="none" stroke="blue" d="M209.23,-86.8C202.48,-74.58 193.3,-57.98 185.71,-44.26"/>
<polygon fill="blue" stroke="blue" points="188.67,-42.37 180.76,-35.31 182.54,-45.76 188.67,-42.37"/>
<text text-anchor="middle" x="204.24" y="-57.8" font-family="Times,serif" font-size="14.00">id</text>
</g>
<!-- name -->
<g id="node4" class="node">
<title>name</title>
<ellipse fill="none" stroke="blue" cx="265.74" cy="-18" rx="45.49" ry="18"/>
<text text-anchor="middle" x="265.74" y="-14.3" font-family="Times,serif" font-size="14.00">label type</text>
</g>
<!-- relationship type&#45;&gt;name -->
<g id="edge3" class="edge">
<title>relationship type&#45;&gt;name</title>
<path fill="none" stroke="blue" d="M228.26,-86.8C234.92,-74.74 243.96,-58.4 251.48,-44.79"/>
<polygon fill="blue" stroke="blue" points="254.63,-46.33 256.41,-35.89 248.51,-42.94 254.63,-46.33"/>
<text text-anchor="middle" x="261.24" y="-57.8" font-family="Times,serif" font-size="14.00">name</text>
</g>
<!-- category -->
<g id="node5" class="node">
<title>category</title>
<ellipse fill="none" stroke="blue" cx="387.74" cy="-18" rx="58.49" ry="18"/>
<text text-anchor="middle" x="387.74" y="-14.3" font-family="Times,serif" font-size="14.00">category type</text>
</g>
<!-- relationship type&#45;&gt;category -->
<g id="edge4" class="edge">
<title>relationship type&#45;&gt;category</title>
<path fill="none" stroke="blue" d="M249.35,-88.61C277.45,-74.47 319.2,-53.47 349.49,-38.24"/>
<polygon fill="blue" stroke="blue" points="351.14,-41.33 358.5,-33.71 347.99,-35.08 351.14,-41.33"/>
<text text-anchor="middle" x="337.24" y="-57.8" font-family="Times,serif" font-size="14.00">category</text>
</g>
</g>
</svg>
