<?xml version="1.0" encoding="UTF-8" standalone="no"?>
<!DOCTYPE svg PUBLIC "-//W3C//DTD SVG 1.1//EN"
 "http://www.w3.org/Graphics/SVG/1.1/DTD/svg11.dtd">
<!-- Generated by graphviz version 2.43.0 (0)
 -->
<!-- Title: %3 Pages: 1 -->
<svg width="2634pt" height="131pt"
 viewBox="0.00 0.00 2634.43 131.00" xmlns="http://www.w3.org/2000/svg" xmlns:xlink="http://www.w3.org/1999/xlink">
<g id="graph0" class="graph" transform="scale(1 1) rotate(0) translate(4 127)">
<title>%3</title>
<polygon fill="white" stroke="transparent" points="-4,4 -4,-127 2630.43,-127 2630.43,4 -4,4"/>
<!-- retrieval source -->
<g id="node1" class="node">
<title>retrieval source</title>
<ellipse fill="none" stroke="black" cx="1331.24" cy="-105" rx="84.49" ry="18"/>
<text text-anchor="middle" x="1331.24" y="-101.3" font-family="Times,serif" font-size="14.00">retrieval source</text>
</g>
<!-- information content entity -->
<g id="node2" class="node">
<title>information content entity</title>
<ellipse fill="none" stroke="black" cx="133.24" cy="-18" rx="133.48" ry="18"/>
<text text-anchor="middle" x="133.24" y="-14.3" font-family="Times,serif" font-size="14.00">information content entity</text>
</g>
<!-- retrieval source&#45;&gt;information content entity -->
<g id="edge1" class="edge">
<title>retrieval source&#45;&gt;information content entity</title>
<path fill="none" stroke="black" d="M1246.54,-104.82C1083.52,-105.51 715.02,-102.74 407.24,-69 339.7,-61.6 263.76,-47.26 208.99,-35.83"/>
<polygon fill="black" stroke="black" points="209.52,-32.36 199.01,-33.73 208.08,-39.21 209.52,-32.36"/>
<text text-anchor="middle" x="421.24" y="-57.8" font-family="Times,serif" font-size="14.00">is_a</text>
</g>
<!-- id -->
<g id="node3" class="node">
<title>id</title>
<ellipse fill="none" stroke="blue" cx="323.24" cy="-18" rx="38.19" ry="18"/>
<text text-anchor="middle" x="323.24" y="-14.3" font-family="Times,serif" font-size="14.00">string</text>
</g>
<!-- retrieval source&#45;&gt;id -->
<g id="edge2" class="edge">
<title>retrieval source&#45;&gt;id</title>
<path fill="none" stroke="blue" d="M1247.51,-102.18C1070.09,-98.04 661.27,-86.84 523.24,-69 454.68,-60.14 437.73,-54.91 371.24,-36 368.13,-35.12 364.94,-34.14 361.74,-33.11"/>
<polygon fill="blue" stroke="blue" points="362.83,-29.79 352.24,-29.93 360.61,-36.43 362.83,-29.79"/>
<text text-anchor="middle" x="530.24" y="-57.8" font-family="Times,serif" font-size="14.00">id</text>
</g>
<!-- iri -->
<g id="node4" class="node">
<title>iri</title>
<ellipse fill="none" stroke="blue" cx="424.24" cy="-18" rx="44.39" ry="18"/>
<text text-anchor="middle" x="424.24" y="-14.3" font-family="Times,serif" font-size="14.00">iri type</text>
</g>
<!-- retrieval source&#45;&gt;iri -->
<g id="edge3" class="edge">
<title>retrieval source&#45;&gt;iri</title>
<path fill="none" stroke="blue" d="M1247.75,-101.91C1085.76,-97.53 734.19,-86.32 614.24,-69 562.64,-61.55 504.93,-45.17 466.79,-33.18"/>
<polygon fill="blue" stroke="blue" points="467.65,-29.78 457.06,-30.08 465.53,-36.45 467.65,-29.78"/>
<text text-anchor="middle" x="622.24" y="-57.8" font-family="Times,serif" font-size="14.00">iri</text>
</g>
<!-- type -->
<g id="node5" class="node">
<title>type</title>
<ellipse fill="none" stroke="blue" cx="525.24" cy="-18" rx="38.19" ry="18"/>
<text text-anchor="middle" x="525.24" y="-14.3" font-family="Times,serif" font-size="14.00">string</text>
</g>
<!-- retrieval source&#45;&gt;type -->
<g id="edge4" class="edge">
<title>retrieval source&#45;&gt;type</title>
<path fill="none" stroke="blue" d="M1246.57,-104.22C1125.94,-103.41 897.95,-97.72 706.24,-69 645.58,-59.91 630.94,-53.79 572.24,-36 569.47,-35.16 566.63,-34.26 563.79,-33.31"/>
<polygon fill="blue" stroke="blue" points="564.76,-29.94 554.16,-30 562.48,-36.56 564.76,-29.94"/>
<text text-anchor="middle" x="722.24" y="-57.8" font-family="Times,serif" font-size="14.00">type</text>
</g>
<!-- name -->
<g id="node6" class="node">
<title>name</title>
<ellipse fill="none" stroke="blue" cx="638.24" cy="-18" rx="56.59" ry="18"/>
<text text-anchor="middle" x="638.24" y="-14.3" font-family="Times,serif" font-size="14.00">label type</text>
</g>
<!-- retrieval source&#45;&gt;name -->
<g id="edge5" class="edge">
<title>retrieval source&#45;&gt;name</title>
<path fill="none" stroke="blue" d="M1246.5,-104.42C1141.24,-103.57 956.55,-97.55 801.24,-69 760.21,-61.46 714.96,-47.07 682.57,-35.66"/>
<polygon fill="blue" stroke="blue" points="683.54,-32.29 672.95,-32.22 681.19,-38.88 683.54,-32.29"/>
<text text-anchor="middle" x="821.24" y="-57.8" font-family="Times,serif" font-size="14.00">name</text>
</g>
<!-- description -->
<g id="node7" class="node">
<title>description</title>
<ellipse fill="none" stroke="blue" cx="788.24" cy="-18" rx="75.29" ry="18"/>
<text text-anchor="middle" x="788.24" y="-14.3" font-family="Times,serif" font-size="14.00">narrative text</text>
</g>
<!-- retrieval source&#45;&gt;description -->
<g id="edge6" class="edge">
<title>retrieval source&#45;&gt;description</title>
<path fill="none" stroke="blue" d="M1247.74,-101.75C1136.51,-98.02 945.99,-88.91 879.24,-69 858.4,-62.78 836.99,-51.32 820.17,-40.94"/>
<polygon fill="blue" stroke="blue" points="821.65,-37.73 811.34,-35.32 817.9,-43.64 821.65,-37.73"/>
<text text-anchor="middle" x="919.74" y="-57.8" font-family="Times,serif" font-size="14.00">description</text>
</g>
<!-- has attribute -->
<g id="node8" class="node">
<title>has attribute</title>
<ellipse fill="none" stroke="blue" cx="933.24" cy="-18" rx="51.99" ry="18"/>
<text text-anchor="middle" x="933.24" y="-14.3" font-family="Times,serif" font-size="14.00">attribute</text>
</g>
<!-- retrieval source&#45;&gt;has attribute -->
<g id="edge7" class="edge">
<title>retrieval source&#45;&gt;has attribute</title>
<path fill="none" stroke="blue" d="M1247.62,-101.89C1160.15,-98.58 1029.41,-90.15 984.24,-69 971.96,-63.25 960.86,-53.28 952.18,-43.76"/>
<polygon fill="blue" stroke="blue" points="954.65,-41.26 945.48,-35.96 949.34,-45.83 954.65,-41.26"/>
<text text-anchor="middle" x="1031.24" y="-57.8" font-family="Times,serif" font-size="14.00">has attribute</text>
</g>
<!-- deprecated -->
<g id="node9" class="node">
<title>deprecated</title>
<ellipse fill="none" stroke="blue" cx="1050.24" cy="-18" rx="46.59" ry="18"/>
<text text-anchor="middle" x="1050.24" y="-14.3" font-family="Times,serif" font-size="14.00">boolean</text>
</g>
<!-- retrieval source&#45;&gt;deprecated -->
<g id="edge8" class="edge">
<title>retrieval source&#45;&gt;deprecated</title>
<path fill="none" stroke="blue" d="M1254.74,-97.31C1198.86,-91.49 1128.47,-81.96 1102.24,-69 1089.96,-62.93 1078.68,-52.92 1069.79,-43.45"/>
<polygon fill="blue" stroke="blue" points="1072.17,-40.86 1062.91,-35.71 1066.94,-45.51 1072.17,-40.86"/>
<text text-anchor="middle" x="1142.74" y="-57.8" font-family="Times,serif" font-size="14.00">deprecated</text>
</g>
<!-- provided by -->
<g id="node10" class="node">
<title>provided by</title>
<ellipse fill="none" stroke="blue" cx="1153.24" cy="-18" rx="38.19" ry="18"/>
<text text-anchor="middle" x="1153.24" y="-14.3" font-family="Times,serif" font-size="14.00">string</text>
</g>
<!-- retrieval source&#45;&gt;provided by -->
<g id="edge9" class="edge">
<title>retrieval source&#45;&gt;provided by</title>
<path fill="none" stroke="blue" d="M1268.82,-92.8C1248.05,-87.47 1225.36,-79.82 1206.24,-69 1194.07,-62.12 1182.54,-51.87 1173.36,-42.44"/>
<polygon fill="blue" stroke="blue" points="1175.91,-40.04 1166.53,-35.13 1170.8,-44.82 1175.91,-40.04"/>
<text text-anchor="middle" x="1248.74" y="-57.8" font-family="Times,serif" font-size="14.00">provided by</text>
</g>
<!-- full name -->
<g id="node11" class="node">
<title>full name</title>
<ellipse fill="none" stroke="blue" cx="1266.24" cy="-18" rx="56.59" ry="18"/>
<text text-anchor="middle" x="1266.24" y="-14.3" font-family="Times,serif" font-size="14.00">label type</text>
</g>
<!-- retrieval source&#45;&gt;full name -->
<g id="edge10" class="edge">
<title>retrieval source&#45;&gt;full name</title>
<path fill="none" stroke="blue" d="M1318.4,-87.21C1308.96,-74.87 1295.98,-57.89 1285.33,-43.97"/>
<polygon fill="blue" stroke="blue" points="1287.91,-41.58 1279.05,-35.76 1282.35,-45.83 1287.91,-41.58"/>
<text text-anchor="middle" x="1336.74" y="-57.8" font-family="Times,serif" font-size="14.00">full name</text>
</g>
<!-- synonym -->
<g id="node12" class="node">
<title>synonym</title>
<ellipse fill="none" stroke="blue" cx="1397.24" cy="-18" rx="56.59" ry="18"/>
<text text-anchor="middle" x="1397.24" y="-14.3" font-family="Times,serif" font-size="14.00">label type</text>
</g>
<!-- retrieval source&#45;&gt;synonym -->
<g id="edge11" class="edge">
<title>retrieval source&#45;&gt;synonym</title>
<path fill="none" stroke="blue" d="M1355.34,-87.57C1362.04,-82.21 1368.93,-75.85 1374.24,-69 1379.65,-62.02 1384.15,-53.56 1387.69,-45.61"/>
<polygon fill="blue" stroke="blue" points="1390.96,-46.86 1391.54,-36.28 1384.49,-44.19 1390.96,-46.86"/>
<text text-anchor="middle" x="1415.24" y="-57.8" font-family="Times,serif" font-size="14.00">synonym</text>
</g>
<!-- category -->
<g id="node13" class="node">
<title>category</title>
<ellipse fill="none" stroke="black" cx="1523.24" cy="-18" rx="51.19" ry="18"/>
<text text-anchor="middle" x="1523.24" y="-14.3" font-family="Times,serif" font-size="14.00">category</text>
</g>
<!-- retrieval source&#45;&gt;category -->
<g id="edge12" class="edge">
<title>retrieval source&#45;&gt;category</title>
<path fill="none" stroke="blue" d="M1387.88,-91.51C1408.38,-85.96 1431.36,-78.49 1451.24,-69 1467.01,-61.47 1483.12,-50.63 1496.09,-40.97"/>
<polygon fill="blue" stroke="blue" points="1498.3,-43.69 1504.13,-34.84 1494.06,-38.13 1498.3,-43.69"/>
<text text-anchor="middle" x="1508.74" y="-57.8" font-family="Times,serif" font-size="14.00">category</text>
</g>
<!-- license -->
<g id="node15" class="node">
<title>license</title>
<ellipse fill="none" stroke="blue" cx="1631.24" cy="-18" rx="38.19" ry="18"/>
<text text-anchor="middle" x="1631.24" y="-14.3" font-family="Times,serif" font-size="14.00">string</text>
</g>
<!-- retrieval source&#45;&gt;license -->
<g id="edge13" class="edge">
<title>retrieval source&#45;&gt;license</title>
<path fill="none" stroke="blue" d="M1392.47,-92.52C1403.05,-90.62 1413.96,-88.71 1424.24,-87 1477.44,-78.15 1493.31,-86.74 1544.24,-69 1564.92,-61.79 1586.27,-49.61 1602.64,-39.07"/>
<polygon fill="blue" stroke="blue" points="1604.78,-41.86 1611.19,-33.43 1600.92,-36.01 1604.78,-41.86"/>
<text text-anchor="middle" x="1602.24" y="-57.8" font-family="Times,serif" font-size="14.00">license</text>
</g>
<!-- rights -->
<g id="node16" class="node">
<title>rights</title>
<ellipse fill="none" stroke="blue" cx="1726.24" cy="-18" rx="38.19" ry="18"/>
<text text-anchor="middle" x="1726.24" y="-14.3" font-family="Times,serif" font-size="14.00">string</text>
</g>
<!-- retrieval source&#45;&gt;rights -->
<g id="edge14" class="edge">
<title>retrieval source&#45;&gt;rights</title>
<path fill="none" stroke="blue" d="M1391.14,-92.19C1402.12,-90.27 1413.5,-88.44 1424.24,-87 1515.76,-74.68 1542.63,-95.02 1631.24,-69 1654.23,-62.25 1678.1,-49.66 1696.15,-38.81"/>
<polygon fill="blue" stroke="blue" points="1698.36,-41.56 1705.03,-33.33 1694.68,-35.6 1698.36,-41.56"/>
<text text-anchor="middle" x="1688.74" y="-57.8" font-family="Times,serif" font-size="14.00">rights</text>
</g>
<!-- format -->
<g id="node17" class="node">
<title>format</title>
<ellipse fill="none" stroke="blue" cx="1821.24" cy="-18" rx="38.19" ry="18"/>
<text text-anchor="middle" x="1821.24" y="-14.3" font-family="Times,serif" font-size="14.00">string</text>
</g>
<!-- retrieval source&#45;&gt;format -->
<g id="edge15" class="edge">
<title>retrieval source&#45;&gt;format</title>
<path fill="none" stroke="blue" d="M1390.61,-92.06C1401.75,-90.13 1413.32,-88.33 1424.24,-87 1552.42,-71.36 1589.1,-100.89 1714.24,-69 1740.77,-62.24 1768.74,-48.92 1789.43,-37.73"/>
<polygon fill="blue" stroke="blue" points="1791.33,-40.68 1798.39,-32.77 1787.94,-34.55 1791.33,-40.68"/>
<text text-anchor="middle" x="1778.74" y="-57.8" font-family="Times,serif" font-size="14.00">format</text>
</g>
<!-- creation date -->
<g id="node18" class="node">
<title>creation date</title>
<ellipse fill="none" stroke="blue" cx="1909.24" cy="-18" rx="31.4" ry="18"/>
<text text-anchor="middle" x="1909.24" y="-14.3" font-family="Times,serif" font-size="14.00">date</text>
</g>
<!-- retrieval source&#45;&gt;creation date -->
<g id="edge16" class="edge">
<title>retrieval source&#45;&gt;creation date</title>
<path fill="none" stroke="blue" d="M1390.1,-92.01C1401.39,-90.06 1413.15,-88.27 1424.24,-87 1508.89,-77.32 1724.71,-90.19 1807.24,-69 1833.29,-62.31 1860.54,-48.55 1880.31,-37.16"/>
<polygon fill="blue" stroke="blue" points="1882.28,-40.06 1889.11,-31.96 1878.72,-34.04 1882.28,-40.06"/>
<text text-anchor="middle" x="1892.74" y="-57.8" font-family="Times,serif" font-size="14.00">creation date</text>
</g>
<!-- resource id -->
<g id="node19" class="node">
<title>resource id</title>
<ellipse fill="none" stroke="black" cx="2021.24" cy="-18" rx="63.09" ry="18"/>
<text text-anchor="middle" x="2021.24" y="-14.3" font-family="Times,serif" font-size="14.00">resource id</text>
</g>
<!-- retrieval source&#45;&gt;resource id -->
<g id="edge17" class="edge">
<title>retrieval source&#45;&gt;resource id</title>
<path fill="none" stroke="blue" d="M1390.09,-91.9C1401.38,-89.96 1413.14,-88.2 1424.24,-87 1539.19,-74.57 1833.96,-103.75 1944.24,-69 1962.37,-63.29 1980.31,-52.05 1994.32,-41.67"/>
<polygon fill="blue" stroke="blue" points="1996.7,-44.25 2002.49,-35.38 1992.43,-38.7 1996.7,-44.25"/>
<text text-anchor="middle" x="2016.74" y="-57.8" font-family="Times,serif" font-size="14.00">resource id</text>
</g>
<!-- resource role -->
<g id="node21" class="node">
<title>resource role</title>
<ellipse fill="none" stroke="black" cx="2174.24" cy="-18" rx="72.29" ry="18"/>
<text text-anchor="middle" x="2174.24" y="-14.3" font-family="Times,serif" font-size="14.00">resource role</text>
</g>
<!-- retrieval source&#45;&gt;resource role -->
<g id="edge18" class="edge">
<title>retrieval source&#45;&gt;resource role</title>
<path fill="none" stroke="blue" d="M1389.58,-91.93C1401.03,-89.96 1412.97,-88.18 1424.24,-87 1565.08,-72.22 1923.11,-100.24 2061.24,-69 2088.03,-62.94 2116.29,-50.43 2137.85,-39.44"/>
<polygon fill="blue" stroke="blue" points="2139.71,-42.42 2146.95,-34.69 2136.47,-36.22 2139.71,-42.42"/>
<text text-anchor="middle" x="2153.74" y="-57.8" font-family="Times,serif" font-size="14.00">resource role</text>
</g>
<!-- upstream resource ids -->
<g id="node23" class="node">
<title>upstream resource ids</title>
<ellipse fill="none" stroke="black" cx="2379.24" cy="-18" rx="115.08" ry="18"/>
<text text-anchor="middle" x="2379.24" y="-14.3" font-family="Times,serif" font-size="14.00">upstream resource ids</text>
</g>
<!-- retrieval source&#45;&gt;upstream resource ids -->
<g id="edge19" class="edge">
<title>retrieval source&#45;&gt;upstream resource ids</title>
<path fill="none" stroke="blue" d="M1389.58,-91.88C1401.02,-89.92 1412.97,-88.15 1424.24,-87 1596.94,-69.34 2033.62,-95.19 2205.24,-69 2246.67,-62.68 2292.14,-49.38 2326.21,-38.08"/>
<polygon fill="blue" stroke="blue" points="2327.59,-41.31 2335.95,-34.81 2325.36,-34.68 2327.59,-41.31"/>
<text text-anchor="middle" x="2353.74" y="-57.8" font-family="Times,serif" font-size="14.00">upstream resource ids</text>
</g>
<!-- xref -->
<g id="node25" class="node">
<title>xref</title>
<ellipse fill="none" stroke="blue" cx="2569.24" cy="-18" rx="57.39" ry="18"/>
<text text-anchor="middle" x="2569.24" y="-14.3" font-family="Times,serif" font-size="14.00">uriorcurie</text>
</g>
<!-- retrieval source&#45;&gt;xref -->
<g id="edge20" class="edge">
<title>retrieval source&#45;&gt;xref</title>
<path fill="none" stroke="blue" d="M1389.57,-91.84C1401.02,-89.87 1412.97,-88.12 1424.24,-87 1536.37,-75.83 2327.61,-90.41 2438.24,-69 2470.45,-62.77 2505.06,-49.24 2530.61,-37.82"/>
<polygon fill="blue" stroke="blue" points="2532.28,-40.9 2539.93,-33.57 2529.38,-34.53 2532.28,-40.9"/>
<text text-anchor="middle" x="2503.74" y="-57.8" font-family="Times,serif" font-size="14.00">xref</text>
</g>
<!-- named thing_category -->
<g id="node14" class="node">
<title>named thing_category</title>
<ellipse fill="none" stroke="blue" cx="1508.24" cy="-105" rx="74.99" ry="18"/>
<text text-anchor="middle" x="1508.24" y="-101.3" font-family="Times,serif" font-size="14.00">category type</text>
</g>
<!-- retrieval source_resource id -->
<g id="node20" class="node">
<title>retrieval source_resource id</title>
<ellipse fill="none" stroke="blue" cx="1658.24" cy="-105" rx="57.39" ry="18"/>
<text text-anchor="middle" x="1658.24" y="-101.3" font-family="Times,serif" font-size="14.00">uriorcurie</text>
</g>
<!-- retrieval source_resource role -->
<g id="node22" class="node">
<title>retrieval source_resource role</title>
<ellipse fill="none" stroke="blue" cx="1835.24" cy="-105" rx="101.28" ry="18"/>
<text text-anchor="middle" x="1835.24" y="-101.3" font-family="Times,serif" font-size="14.00">ResourceRoleEnum</text>
</g>
<!-- retrieval source_upstream resource ids -->
<g id="node24" class="node">
<title>retrieval source_upstream resource ids</title>
<ellipse fill="none" stroke="blue" cx="2012.24" cy="-105" rx="57.39" ry="18"/>
<text text-anchor="middle" x="2012.24" y="-101.3" font-family="Times,serif" font-size="14.00">uriorcurie</text>
</g>
</g>
</svg>
