<?xml version="1.0" encoding="UTF-8" standalone="no"?>
<!DOCTYPE svg PUBLIC "-//W3C//DTD SVG 1.1//EN"
 "http://www.w3.org/Graphics/SVG/1.1/DTD/svg11.dtd">
<!-- Generated by graphviz version 2.43.0 (0)
 -->
<!-- Title: %3 Pages: 1 -->
<svg width="1181pt" height="289pt"
 viewBox="0.00 0.00 1181.13 289.00" xmlns="http://www.w3.org/2000/svg" xmlns:xlink="http://www.w3.org/1999/xlink">
<g id="graph0" class="graph" transform="scale(1 1) rotate(0) translate(4 285)">
<title>%3</title>
<polygon fill="white" stroke="transparent" points="-4,4 -4,-285 1177.13,-285 1177.13,4 -4,4"/>
<!-- sequence feature relationship -->
<g id="node1" class="node">
<title>sequence feature relationship</title>
<ellipse fill="none" stroke="black" cx="495.4" cy="-263" rx="113.46" ry="18"/>
<text text-anchor="middle" x="495.4" y="-258.8" font-family="Times,serif" font-size="14.00">sequence feature relationship</text>
</g>
<!-- association -->
<g id="node2" class="node">
<title>association</title>
<ellipse fill="none" stroke="black" cx="49.4" cy="-177" rx="49.3" ry="18"/>
<text text-anchor="middle" x="49.4" y="-172.8" font-family="Times,serif" font-size="14.00">association</text>
</g>
<!-- sequence feature relationship&#45;&gt;association -->
<g id="edge1" class="edge">
<title>sequence feature relationship&#45;&gt;association</title>
<path fill="none" stroke="black" d="M381.91,-261.91C279.92,-260.08 138.89,-252.74 89.85,-227 79.64,-221.64 71.02,-212.48 64.39,-203.52"/>
<polygon fill="black" stroke="black" points="67.19,-201.42 58.67,-195.12 61.41,-205.36 67.19,-201.42"/>
<text text-anchor="middle" x="101.68" y="-215.8" font-family="Times,serif" font-size="14.00">is_a</text>
</g>
<!-- subject -->
<g id="node3" class="node">
<title>subject</title>
<ellipse fill="none" stroke="black" cx="204.4" cy="-177" rx="35.31" ry="18"/>
<text text-anchor="middle" x="204.4" y="-172.8" font-family="Times,serif" font-size="14.00">subject</text>
</g>
<!-- sequence feature relationship&#45;&gt;subject -->
<g id="edge2" class="edge">
<title>sequence feature relationship&#45;&gt;subject</title>
<path fill="none" stroke="blue" d="M384.12,-259.4C319.7,-255.7 246.58,-247.04 221.75,-227 214.96,-221.52 210.82,-213.19 208.3,-204.95"/>
<polygon fill="blue" stroke="blue" points="211.69,-204.04 205.97,-195.13 204.88,-205.66 211.69,-204.04"/>
<text text-anchor="middle" x="242.23" y="-215.8" font-family="Times,serif" font-size="14.00">subject</text>
</g>
<!-- relation -->
<g id="node5" class="node">
<title>relation</title>
<ellipse fill="none" stroke="blue" cx="184.4" cy="-18" rx="44.94" ry="18"/>
<text text-anchor="middle" x="184.4" y="-13.8" font-family="Times,serif" font-size="14.00">uriorcurie</text>
</g>
<!-- sequence feature relationship&#45;&gt;relation -->
<g id="edge3" class="edge">
<title>sequence feature relationship&#45;&gt;relation</title>
<path fill="none" stroke="blue" d="M383.2,-260.36C328.99,-256.57 263.83,-247.53 208.4,-227 184.36,-218.1 174.28,-216.56 160.4,-195 130.73,-148.9 153.85,-81.94 170.74,-45.34"/>
<polygon fill="blue" stroke="blue" points="174.12,-46.39 175.29,-35.86 167.81,-43.36 174.12,-46.39"/>
<text text-anchor="middle" x="168.78" y="-129.8" font-family="Times,serif" font-size="14.00">relation</text>
</g>
<!-- object -->
<g id="node6" class="node">
<title>object</title>
<ellipse fill="none" stroke="black" cx="244.4" cy="-91" rx="31.93" ry="18"/>
<text text-anchor="middle" x="244.4" y="-86.8" font-family="Times,serif" font-size="14.00">object</text>
</g>
<!-- sequence feature relationship&#45;&gt;object -->
<g id="edge4" class="edge">
<title>sequence feature relationship&#45;&gt;object</title>
<path fill="none" stroke="blue" d="M404.86,-252.17C363.35,-243.35 316.35,-226.63 284.19,-195 261.47,-172.64 273.45,-156.51 261.4,-127 260.15,-123.94 258.75,-120.76 257.32,-117.63"/>
<polygon fill="blue" stroke="blue" points="260.44,-116.05 252.97,-108.54 254.12,-119.07 260.44,-116.05"/>
<text text-anchor="middle" x="301.51" y="-172.8" font-family="Times,serif" font-size="14.00">object</text>
</g>
<!-- id -->
<g id="node8" class="node">
<title>id</title>
<ellipse fill="none" stroke="black" cx="354.4" cy="-177" rx="27" ry="18"/>
<text text-anchor="middle" x="354.4" y="-172.8" font-family="Times,serif" font-size="14.00">id</text>
</g>
<!-- sequence feature relationship&#45;&gt;id -->
<g id="edge5" class="edge">
<title>sequence feature relationship&#45;&gt;id</title>
<path fill="none" stroke="blue" d="M467.54,-245.4C443.06,-230.82 407.59,-209.69 382.92,-194.99"/>
<polygon fill="blue" stroke="blue" points="384.42,-191.81 374.03,-189.7 380.83,-197.82 384.42,-191.81"/>
<text text-anchor="middle" x="438.85" y="-215.8" font-family="Times,serif" font-size="14.00">id</text>
</g>
<!-- negated -->
<g id="node10" class="node">
<title>negated</title>
<ellipse fill="none" stroke="blue" cx="437.4" cy="-177" rx="38.2" ry="18"/>
<text text-anchor="middle" x="437.4" y="-172.8" font-family="Times,serif" font-size="14.00">boolean</text>
</g>
<!-- sequence feature relationship&#45;&gt;negated -->
<g id="edge6" class="edge">
<title>sequence feature relationship&#45;&gt;negated</title>
<path fill="none" stroke="blue" d="M483.66,-245C475.3,-232.89 463.93,-216.42 454.55,-202.83"/>
<polygon fill="blue" stroke="blue" points="457.29,-200.64 448.73,-194.4 451.53,-204.62 457.29,-200.64"/>
<text text-anchor="middle" x="492.17" y="-215.8" font-family="Times,serif" font-size="14.00">negated</text>
</g>
<!-- association type -->
<g id="node11" class="node">
<title>association type</title>
<ellipse fill="none" stroke="blue" cx="554.4" cy="-177" rx="60.9" ry="18"/>
<text text-anchor="middle" x="554.4" y="-172.8" font-family="Times,serif" font-size="14.00">ontology class</text>
</g>
<!-- sequence feature relationship&#45;&gt;association type -->
<g id="edge7" class="edge">
<title>sequence feature relationship&#45;&gt;association type</title>
<path fill="none" stroke="blue" d="M507.34,-245C515.79,-232.97 527.27,-216.63 536.77,-203.1"/>
<polygon fill="blue" stroke="blue" points="539.8,-204.88 542.68,-194.69 534.07,-200.86 539.8,-204.88"/>
<text text-anchor="middle" x="574.31" y="-215.8" font-family="Times,serif" font-size="14.00">association type</text>
</g>
<!-- qualifiers -->
<g id="node12" class="node">
<title>qualifiers</title>
<ellipse fill="none" stroke="blue" cx="694.4" cy="-177" rx="60.9" ry="18"/>
<text text-anchor="middle" x="694.4" y="-172.8" font-family="Times,serif" font-size="14.00">ontology class</text>
</g>
<!-- sequence feature relationship&#45;&gt;qualifiers -->
<g id="edge8" class="edge">
<title>sequence feature relationship&#45;&gt;qualifiers</title>
<path fill="none" stroke="blue" d="M561.7,-248.41C582.01,-243.05 604.08,-235.99 623.4,-227 638.63,-219.92 654.14,-209.64 666.76,-200.32"/>
<polygon fill="blue" stroke="blue" points="669.14,-202.91 675,-194.08 664.91,-197.33 669.14,-202.91"/>
<text text-anchor="middle" x="674.45" y="-215.8" font-family="Times,serif" font-size="14.00">qualifiers</text>
</g>
<!-- publications -->
<g id="node13" class="node">
<title>publications</title>
<ellipse fill="none" stroke="blue" cx="823.4" cy="-177" rx="49.79" ry="18"/>
<text text-anchor="middle" x="823.4" y="-172.8" font-family="Times,serif" font-size="14.00">publication</text>
</g>
<!-- sequence feature relationship&#45;&gt;publications -->
<g id="edge9" class="edge">
<title>sequence feature relationship&#45;&gt;publications</title>
<path fill="none" stroke="blue" d="M576.41,-250.34C624.55,-243.04 680.7,-233.77 704.4,-227 732.22,-219.05 762.35,-206.61 785.33,-196.25"/>
<polygon fill="blue" stroke="blue" points="787.07,-199.3 794.71,-191.95 784.16,-192.93 787.07,-199.3"/>
<text text-anchor="middle" x="779.62" y="-215.8" font-family="Times,serif" font-size="14.00">publications</text>
</g>
<!-- provided by -->
<g id="node14" class="node">
<title>provided by</title>
<ellipse fill="none" stroke="blue" cx="931.4" cy="-177" rx="40.13" ry="18"/>
<text text-anchor="middle" x="931.4" y="-172.8" font-family="Times,serif" font-size="14.00">provider</text>
</g>
<!-- sequence feature relationship&#45;&gt;provided by -->
<g id="edge10" class="edge">
<title>sequence feature relationship&#45;&gt;provided by</title>
<path fill="none" stroke="blue" d="M575.72,-250.24C589.61,-248.37 603.91,-246.55 617.4,-245 706.07,-234.84 730.88,-248.89 817.4,-227 845.54,-219.88 875.64,-206.68 897.84,-195.77"/>
<polygon fill="blue" stroke="blue" points="899.47,-198.87 906.85,-191.26 896.34,-192.61 899.47,-198.87"/>
<text text-anchor="middle" x="893.03" y="-215.8" font-family="Times,serif" font-size="14.00">provided by</text>
</g>
<!-- association slot -->
<g id="node15" class="node">
<title>association slot</title>
<ellipse fill="none" stroke="blue" cx="1019.4" cy="-177" rx="30" ry="18"/>
<text text-anchor="middle" x="1019.4" y="-172.8" font-family="Times,serif" font-size="14.00">string</text>
</g>
<!-- sequence feature relationship&#45;&gt;association slot -->
<g id="edge11" class="edge">
<title>sequence feature relationship&#45;&gt;association slot</title>
<path fill="none" stroke="blue" d="M574.37,-250.04C588.67,-248.15 603.46,-246.37 617.4,-245 686.74,-238.19 863.45,-246.28 930.4,-227 952.57,-220.62 975.31,-207.97 992.26,-197.12"/>
<polygon fill="blue" stroke="blue" points="994.62,-199.76 1001.04,-191.33 990.77,-193.91 994.62,-199.76"/>
<text text-anchor="middle" x="1007.37" y="-215.8" font-family="Times,serif" font-size="14.00">association slot</text>
</g>
<!-- edge label -->
<g id="node16" class="node">
<title>edge label</title>
<ellipse fill="none" stroke="blue" cx="1128.4" cy="-177" rx="44.96" ry="18"/>
<text text-anchor="middle" x="1128.4" y="-172.8" font-family="Times,serif" font-size="14.00">label type</text>
</g>
<!-- sequence feature relationship&#45;&gt;edge label -->
<g id="edge12" class="edge">
<title>sequence feature relationship&#45;&gt;edge label</title>
<path fill="none" stroke="blue" d="M573.7,-249.94C588.2,-248.04 603.24,-246.28 617.4,-245 714.2,-236.28 961.93,-256.93 1054.4,-227 1072,-221.3 1089.37,-210.17 1102.86,-199.95"/>
<polygon fill="blue" stroke="blue" points="1105.02,-202.7 1110.72,-193.77 1100.7,-197.2 1105.02,-202.7"/>
<text text-anchor="middle" x="1110.97" y="-215.8" font-family="Times,serif" font-size="14.00">edge label</text>
</g>
<!-- subject&#45;&gt;relation -->
<g id="edge14" class="edge">
<title>subject&#45;&gt;relation</title>
<path fill="none" stroke="black" stroke-dasharray="1,5" d="M202.22,-158.9C198.77,-131.77 192,-78.61 187.87,-46.21"/>
<polygon fill="black" stroke="black" points="191.31,-45.56 186.58,-36.08 184.37,-46.44 191.31,-45.56"/>
</g>
<!-- subject&#45;&gt;object -->
<g id="edge13" class="edge">
<title>subject&#45;&gt;object</title>
<path fill="none" stroke="black" d="M207.87,-158.67C210.17,-149.04 213.7,-137.01 218.64,-127 220.47,-123.3 222.69,-119.58 225.06,-116.03"/>
<polygon fill="black" stroke="black" points="228.1,-117.78 231.08,-107.61 222.41,-113.7 228.1,-117.78"/>
<text text-anchor="middle" x="240.78" y="-129.8" font-family="Times,serif" font-size="14.00">relation</text>
</g>
<!-- sequence feature relationship_subject -->
<g id="node4" class="node">
<title>sequence feature relationship_subject</title>
<ellipse fill="none" stroke="blue" cx="689.4" cy="-263" rx="62.82" ry="18"/>
<text text-anchor="middle" x="689.4" y="-258.8" font-family="Times,serif" font-size="14.00">genomic entity</text>
</g>
<!-- object&#45;&gt;relation -->
<g id="edge15" class="edge">
<title>object&#45;&gt;relation</title>
<path fill="none" stroke="black" stroke-dasharray="1,5" d="M231.09,-74.24C223.35,-65.09 213.44,-53.36 204.75,-43.07"/>
<polygon fill="black" stroke="black" points="207.22,-40.58 198.1,-35.21 201.88,-45.1 207.22,-40.58"/>
</g>
<!-- sequence feature relationship_object -->
<g id="node7" class="node">
<title>sequence feature relationship_object</title>
<ellipse fill="none" stroke="blue" cx="833.4" cy="-263" rx="62.82" ry="18"/>
<text text-anchor="middle" x="833.4" y="-258.8" font-family="Times,serif" font-size="14.00">genomic entity</text>
</g>
<!-- association_id -->
<g id="node9" class="node">
<title>association_id</title>
<ellipse fill="none" stroke="blue" cx="973.4" cy="-263" rx="59.45" ry="18"/>
<text text-anchor="middle" x="973.4" y="-258.8" font-family="Times,serif" font-size="14.00">nodeidentifier</text>
</g>
</g>
</svg>
