<?xml version="1.0" encoding="UTF-8" standalone="no"?>
<!DOCTYPE svg PUBLIC "-//W3C//DTD SVG 1.1//EN"
 "http://www.w3.org/Graphics/SVG/1.1/DTD/svg11.dtd">
<!-- Generated by graphviz version 2.40.1 (20161225.0304)
 -->
<!-- Title: %3 Pages: 1 -->
<svg width="1009pt" height="291pt"
 viewBox="0.00 0.00 1009.34 291.00" xmlns="http://www.w3.org/2000/svg" xmlns:xlink="http://www.w3.org/1999/xlink">
<g id="graph0" class="graph" transform="scale(1 1) rotate(0) translate(4 287)">
<title>%3</title>
<polygon fill="#ffffff" stroke="transparent" points="-4,4 -4,-287 1005.342,-287 1005.342,4 -4,4"/>
<!-- sequence association -->
<g id="node1" class="node">
<title>sequence association</title>
<ellipse fill="none" stroke="#000000" cx="422.0456" cy="-265" rx="84.485" ry="18"/>
<text text-anchor="middle" x="422.0456" y="-261.3" font-family="Times,serif" font-size="14.00" fill="#000000">sequence association</text>
</g>
<!-- association -->
<g id="node2" class="node">
<title>association</title>
<ellipse fill="none" stroke="#000000" cx="50.0456" cy="-178" rx="50.0912" ry="18"/>
<text text-anchor="middle" x="50.0456" y="-174.3" font-family="Times,serif" font-size="14.00" fill="#000000">association</text>
</g>
<!-- sequence association&#45;&gt;association -->
<g id="edge1" class="edge">
<title>sequence association&#45;&gt;association</title>
<path fill="none" stroke="#000000" d="M337.8545,-262.9771C254.3572,-259.7092 133.118,-251.1862 92.0456,-229 81.3828,-223.2403 72.3673,-213.5476 65.4557,-204.1496"/>
<polygon fill="#000000" stroke="#000000" points="68.2366,-202.0152 59.7128,-195.7228 62.4522,-205.9573 68.2366,-202.0152"/>
<text text-anchor="middle" x="103.0456" y="-217.8" font-family="Times,serif" font-size="14.00" fill="#000000">is_a</text>
</g>
<!-- subject -->
<g id="node3" class="node">
<title>subject</title>
<ellipse fill="none" stroke="#0000ff" cx="211.0456" cy="-178" rx="55.4913" ry="18"/>
<text text-anchor="middle" x="211.0456" y="-174.3" font-family="Times,serif" font-size="14.00" fill="#000000">named thing</text>
</g>
<!-- sequence association&#45;&gt;subject -->
<g id="edge2" class="edge">
<title>sequence association&#45;&gt;subject</title>
<path fill="none" stroke="#0000ff" d="M350.2471,-255.2887C310.5483,-248.9097 265.922,-239.765 249.0456,-229 239.4514,-222.8801 231.4233,-213.4219 225.2553,-204.3052"/>
<polygon fill="#0000ff" stroke="#0000ff" points="228.1957,-202.406 219.9212,-195.7891 222.2633,-206.1219 228.1957,-202.406"/>
<text text-anchor="middle" x="268.5456" y="-217.8" font-family="Times,serif" font-size="14.00" fill="#000000">subject</text>
</g>
<!-- relation -->
<g id="node4" class="node">
<title>relation</title>
<ellipse fill="none" stroke="#0000ff" cx="198.0456" cy="-18" rx="45.4919" ry="18"/>
<text text-anchor="middle" x="198.0456" y="-14.3" font-family="Times,serif" font-size="14.00" fill="#000000">uriorcurie</text>
</g>
<!-- sequence association&#45;&gt;relation -->
<g id="edge3" class="edge">
<title>sequence association&#45;&gt;relation</title>
<path fill="none" stroke="#0000ff" d="M345.7329,-257.0922C272.3271,-247.6264 169.2943,-228.7886 147.0456,-196 114.6279,-148.2252 152.7988,-79.8736 178.4687,-43.3321"/>
<polygon fill="#0000ff" stroke="#0000ff" points="181.3369,-45.3387 184.3587,-35.1839 175.6638,-41.2379 181.3369,-45.3387"/>
<text text-anchor="middle" x="159.0456" y="-130.8" font-family="Times,serif" font-size="14.00" fill="#000000">relation</text>
</g>
<!-- object -->
<g id="node5" class="node">
<title>object</title>
<ellipse fill="none" stroke="#0000ff" cx="281.0456" cy="-91" rx="55.4913" ry="18"/>
<text text-anchor="middle" x="281.0456" y="-87.3" font-family="Times,serif" font-size="14.00" fill="#000000">named thing</text>
</g>
<!-- sequence association&#45;&gt;object -->
<g id="edge4" class="edge">
<title>sequence association&#45;&gt;object</title>
<path fill="none" stroke="#0000ff" d="M382.1156,-249.0742C358.2546,-237.639 329.1558,-219.9985 311.0456,-196 301.9215,-183.9095 292.4996,-146.0046 286.7064,-119.2212"/>
<polygon fill="#0000ff" stroke="#0000ff" points="290.0877,-118.2927 284.6004,-109.2296 283.2382,-119.7365 290.0877,-118.2927"/>
<text text-anchor="middle" x="328.0456" y="-174.3" font-family="Times,serif" font-size="14.00" fill="#000000">object</text>
</g>
<!-- id -->
<g id="node6" class="node">
<title>id</title>
<ellipse fill="none" stroke="#000000" cx="381.0456" cy="-178" rx="27" ry="18"/>
<text text-anchor="middle" x="381.0456" y="-174.3" font-family="Times,serif" font-size="14.00" fill="#000000">id</text>
</g>
<!-- sequence association&#45;&gt;id -->
<g id="edge5" class="edge">
<title>sequence association&#45;&gt;id</title>
<path fill="none" stroke="#0000ff" d="M413.5503,-246.9735C407.8126,-234.7983 400.1375,-218.5122 393.6862,-204.8228"/>
<polygon fill="#0000ff" stroke="#0000ff" points="396.6792,-202.9635 389.2501,-195.4097 390.3471,-205.9476 396.6792,-202.9635"/>
<text text-anchor="middle" x="409.5456" y="-217.8" font-family="Times,serif" font-size="14.00" fill="#000000">id</text>
</g>
<!-- negated -->
<g id="node8" class="node">
<title>negated</title>
<ellipse fill="none" stroke="#0000ff" cx="464.0456" cy="-178" rx="38.1938" ry="18"/>
<text text-anchor="middle" x="464.0456" y="-174.3" font-family="Times,serif" font-size="14.00" fill="#000000">boolean</text>
</g>
<!-- sequence association&#45;&gt;negated -->
<g id="edge6" class="edge">
<title>sequence association&#45;&gt;negated</title>
<path fill="none" stroke="#0000ff" d="M430.748,-246.9735C436.587,-234.8784 444.3846,-218.7263 450.966,-205.0934"/>
<polygon fill="#0000ff" stroke="#0000ff" points="454.3024,-206.2329 455.498,-195.7057 447.9985,-203.1896 454.3024,-206.2329"/>
<text text-anchor="middle" x="467.5456" y="-217.8" font-family="Times,serif" font-size="14.00" fill="#000000">negated</text>
</g>
<!-- association type -->
<g id="node9" class="node">
<title>association type</title>
<ellipse fill="none" stroke="#0000ff" cx="582.0456" cy="-178" rx="61.99" ry="18"/>
<text text-anchor="middle" x="582.0456" y="-174.3" font-family="Times,serif" font-size="14.00" fill="#000000">ontology class</text>
</g>
<!-- sequence association&#45;&gt;association type -->
<g id="edge7" class="edge">
<title>sequence association&#45;&gt;association type</title>
<path fill="none" stroke="#0000ff" d="M455.8171,-248.3185C467.6582,-242.353 481.0045,-235.4972 493.0456,-229 510.4702,-219.598 529.5465,-208.7432 545.5533,-199.4709"/>
<polygon fill="#0000ff" stroke="#0000ff" points="547.7024,-202.27 554.5875,-194.2173 544.1834,-196.2188 547.7024,-202.27"/>
<text text-anchor="middle" x="562.0456" y="-217.8" font-family="Times,serif" font-size="14.00" fill="#000000">association type</text>
</g>
<!-- qualifiers -->
<g id="node10" class="node">
<title>qualifiers</title>
<ellipse fill="none" stroke="#0000ff" cx="723.0456" cy="-178" rx="61.99" ry="18"/>
<text text-anchor="middle" x="723.0456" y="-174.3" font-family="Times,serif" font-size="14.00" fill="#000000">ontology class</text>
</g>
<!-- sequence association&#45;&gt;qualifiers -->
<g id="edge8" class="edge">
<title>sequence association&#45;&gt;qualifiers</title>
<path fill="none" stroke="#0000ff" d="M484.5709,-252.8634C494.7553,-250.8966 505.1929,-248.8869 515.0456,-247 557.252,-238.917 569.0633,-241.9295 610.0456,-229 635.4356,-220.9897 662.6713,-208.8135 684.0413,-198.3673"/>
<polygon fill="#0000ff" stroke="#0000ff" points="685.7166,-201.4433 693.1181,-193.8625 682.6047,-195.173 685.7166,-201.4433"/>
<text text-anchor="middle" x="675.0456" y="-217.8" font-family="Times,serif" font-size="14.00" fill="#000000">qualifiers</text>
</g>
<!-- publications -->
<g id="node11" class="node">
<title>publications</title>
<ellipse fill="none" stroke="#0000ff" cx="853.0456" cy="-178" rx="50.0912" ry="18"/>
<text text-anchor="middle" x="853.0456" y="-174.3" font-family="Times,serif" font-size="14.00" fill="#000000">publication</text>
</g>
<!-- sequence association&#45;&gt;publications -->
<g id="edge9" class="edge">
<title>sequence association&#45;&gt;publications</title>
<path fill="none" stroke="#0000ff" d="M482.934,-252.3405C493.6061,-250.3721 504.6276,-248.4981 515.0456,-247 599.0045,-234.9268 622.1427,-246.9436 705.0456,-229 741.6775,-221.0714 781.7924,-206.8845 811.0067,-195.4831"/>
<polygon fill="#0000ff" stroke="#0000ff" points="812.4648,-198.6703 820.4755,-191.7364 809.8892,-192.1613 812.4648,-198.6703"/>
<text text-anchor="middle" x="792.5456" y="-217.8" font-family="Times,serif" font-size="14.00" fill="#000000">publications</text>
</g>
<!-- provided by -->
<g id="node12" class="node">
<title>provided by</title>
<ellipse fill="none" stroke="#0000ff" cx="961.0456" cy="-178" rx="40.0939" ry="18"/>
<text text-anchor="middle" x="961.0456" y="-174.3" font-family="Times,serif" font-size="14.00" fill="#000000">provider</text>
</g>
<!-- sequence association&#45;&gt;provided by -->
<g id="edge10" class="edge">
<title>sequence association&#45;&gt;provided by</title>
<path fill="none" stroke="#0000ff" d="M481.89,-252.1931C492.8766,-250.1912 504.2751,-248.3439 515.0456,-247 654.1949,-229.6378 693.021,-258.8037 830.0456,-229 863.0343,-221.8247 898.6208,-207.5131 924.3659,-195.8723"/>
<polygon fill="#0000ff" stroke="#0000ff" points="926.1062,-198.9243 933.7252,-191.5621 923.178,-192.5661 926.1062,-198.9243"/>
<text text-anchor="middle" x="911.0456" y="-217.8" font-family="Times,serif" font-size="14.00" fill="#000000">provided by</text>
</g>
<!-- subject&#45;&gt;relation -->
<g id="edge12" class="edge">
<title>subject&#45;&gt;relation</title>
<path fill="none" stroke="#000000" stroke-dasharray="1,5" d="M209.5796,-159.957C207.3364,-132.3487 203.0322,-79.3746 200.3633,-46.5255"/>
<polygon fill="#000000" stroke="#000000" points="203.8246,-45.9062 199.5261,-36.2226 196.8476,-46.4732 203.8246,-45.9062"/>
</g>
<!-- subject&#45;&gt;object -->
<g id="edge11" class="edge">
<title>subject&#45;&gt;object</title>
<path fill="none" stroke="#000000" d="M222.3219,-159.9996C228.8579,-149.9848 237.4705,-137.4666 246.0456,-127 249.1288,-123.2366 252.5313,-119.403 255.9672,-115.7088"/>
<polygon fill="#000000" stroke="#000000" points="258.5881,-118.0324 262.9754,-108.3886 253.5317,-113.1916 258.5881,-118.0324"/>
<text text-anchor="middle" x="267.0456" y="-130.8" font-family="Times,serif" font-size="14.00" fill="#000000">relation</text>
</g>
<!-- object&#45;&gt;relation -->
<g id="edge13" class="edge">
<title>object&#45;&gt;relation</title>
<path fill="none" stroke="#000000" stroke-dasharray="1,5" d="M261.7951,-74.0688C250.7171,-64.3255 236.6359,-51.9409 224.5268,-41.2907"/>
<polygon fill="#000000" stroke="#000000" points="226.7259,-38.5638 216.9055,-34.5877 222.1029,-43.8201 226.7259,-38.5638"/>
</g>
<!-- association_id -->
<g id="node7" class="node">
<title>association_id</title>
<ellipse fill="none" stroke="#0000ff" cx="555.0456" cy="-265" rx="30.5947" ry="18"/>
<text text-anchor="middle" x="555.0456" y="-261.3" font-family="Times,serif" font-size="14.00" fill="#000000">string</text>
</g>
</g>
</svg>
