<?xml version="1.0" encoding="UTF-8" standalone="no"?>
<!DOCTYPE svg PUBLIC "-//W3C//DTD SVG 1.1//EN"
 "http://www.w3.org/Graphics/SVG/1.1/DTD/svg11.dtd">
<!-- Generated by graphviz version 2.43.0 (0)
 -->
<!-- Title: %3 Pages: 1 -->
<svg width="2939pt" height="291pt"
 viewBox="0.00 0.00 2939.39 291.00" xmlns="http://www.w3.org/2000/svg" xmlns:xlink="http://www.w3.org/1999/xlink">
<g id="graph0" class="graph" transform="scale(1 1) rotate(0) translate(4 287)">
<title>%3</title>
<polygon fill="white" stroke="transparent" points="-4,4 -4,-287 2935.39,-287 2935.39,4 -4,4"/>
<!-- sequence variant modulates treatment association -->
<g id="node1" class="node">
<title>sequence variant modulates treatment association</title>
<ellipse fill="none" stroke="black" cx="1301.39" cy="-265" rx="245.86" ry="18"/>
<text text-anchor="middle" x="1301.39" y="-261.3" font-family="Times,serif" font-size="14.00">sequence variant modulates treatment association</text>
</g>
<!-- association -->
<g id="node2" class="node">
<title>association</title>
<ellipse fill="none" stroke="black" cx="62.39" cy="-178" rx="62.29" ry="18"/>
<text text-anchor="middle" x="62.39" y="-174.3" font-family="Times,serif" font-size="14.00">association</text>
</g>
<!-- sequence variant modulates treatment association&#45;&gt;association -->
<g id="edge1" class="edge">
<title>sequence variant modulates treatment association&#45;&gt;association</title>
<path fill="none" stroke="black" d="M1060.01,-261.55C803.36,-257.92 414.59,-249.22 267.39,-229 214.08,-221.68 154.46,-206.3 113.32,-194.51"/>
<polygon fill="black" stroke="black" points="114.11,-191.1 103.53,-191.68 112.16,-197.82 114.11,-191.1"/>
<text text-anchor="middle" x="281.39" y="-217.8" font-family="Times,serif" font-size="14.00">is_a</text>
</g>
<!-- id -->
<g id="node3" class="node">
<title>id</title>
<ellipse fill="none" stroke="blue" cx="181.39" cy="-178" rx="38.19" ry="18"/>
<text text-anchor="middle" x="181.39" y="-174.3" font-family="Times,serif" font-size="14.00">string</text>
</g>
<!-- sequence variant modulates treatment association&#45;&gt;id -->
<g id="edge2" class="edge">
<title>sequence variant modulates treatment association&#45;&gt;id</title>
<path fill="none" stroke="blue" d="M1068.29,-259.3C843.08,-253.98 518.14,-244.05 392.39,-229 319,-220.22 300.63,-215.72 229.39,-196 226.28,-195.14 223.09,-194.18 219.89,-193.16"/>
<polygon fill="blue" stroke="blue" points="220.97,-189.83 210.38,-190 218.76,-196.48 220.97,-189.83"/>
<text text-anchor="middle" x="399.39" y="-217.8" font-family="Times,serif" font-size="14.00">id</text>
</g>
<!-- iri -->
<g id="node4" class="node">
<title>iri</title>
<ellipse fill="none" stroke="blue" cx="282.39" cy="-178" rx="44.39" ry="18"/>
<text text-anchor="middle" x="282.39" y="-174.3" font-family="Times,serif" font-size="14.00">iri type</text>
</g>
<!-- sequence variant modulates treatment association&#45;&gt;iri -->
<g id="edge3" class="edge">
<title>sequence variant modulates treatment association&#45;&gt;iri</title>
<path fill="none" stroke="blue" d="M1058.47,-262.26C901.39,-258.92 692.76,-250.33 509.39,-229 431.21,-219.91 411.68,-215.39 335.39,-196 331.97,-195.13 328.43,-194.16 324.9,-193.14"/>
<polygon fill="blue" stroke="blue" points="325.59,-189.69 315.01,-190.15 323.57,-196.39 325.59,-189.69"/>
<text text-anchor="middle" x="517.39" y="-217.8" font-family="Times,serif" font-size="14.00">iri</text>
</g>
<!-- name -->
<g id="node5" class="node">
<title>name</title>
<ellipse fill="none" stroke="blue" cx="401.39" cy="-178" rx="56.59" ry="18"/>
<text text-anchor="middle" x="401.39" y="-174.3" font-family="Times,serif" font-size="14.00">label type</text>
</g>
<!-- sequence variant modulates treatment association&#45;&gt;name -->
<g id="edge4" class="edge">
<title>sequence variant modulates treatment association&#45;&gt;name</title>
<path fill="none" stroke="blue" d="M1077.85,-257.53C908.1,-251.73 689.22,-242.11 600.39,-229 548.25,-221.3 489.91,-205.8 449.95,-194.09"/>
<polygon fill="blue" stroke="blue" points="450.78,-190.68 440.2,-191.2 448.79,-197.4 450.78,-190.68"/>
<text text-anchor="middle" x="620.39" y="-217.8" font-family="Times,serif" font-size="14.00">name</text>
</g>
<!-- description -->
<g id="node6" class="node">
<title>description</title>
<ellipse fill="none" stroke="blue" cx="551.39" cy="-178" rx="75.29" ry="18"/>
<text text-anchor="middle" x="551.39" y="-174.3" font-family="Times,serif" font-size="14.00">narrative text</text>
</g>
<!-- sequence variant modulates treatment association&#45;&gt;description -->
<g id="edge5" class="edge">
<title>sequence variant modulates treatment association&#45;&gt;description</title>
<path fill="none" stroke="blue" d="M1078.12,-257.45C936.62,-252.07 767.36,-243.01 696.39,-229 661.69,-222.15 623.96,-208.94 595.69,-197.83"/>
<polygon fill="blue" stroke="blue" points="596.69,-194.46 586.1,-193.99 594.09,-200.96 596.69,-194.46"/>
<text text-anchor="middle" x="736.89" y="-217.8" font-family="Times,serif" font-size="14.00">description</text>
</g>
<!-- source -->
<g id="node7" class="node">
<title>source</title>
<ellipse fill="none" stroke="blue" cx="683.39" cy="-178" rx="38.19" ry="18"/>
<text text-anchor="middle" x="683.39" y="-174.3" font-family="Times,serif" font-size="14.00">string</text>
</g>
<!-- sequence variant modulates treatment association&#45;&gt;source -->
<g id="edge6" class="edge">
<title>sequence variant modulates treatment association&#45;&gt;source</title>
<path fill="none" stroke="blue" d="M1078.01,-257.47C1000.96,-252.5 914.43,-243.88 836.39,-229 795.9,-221.28 751.26,-205.85 720.71,-194.16"/>
<polygon fill="blue" stroke="blue" points="721.9,-190.87 711.31,-190.51 719.36,-197.39 721.9,-190.87"/>
<text text-anchor="middle" x="860.39" y="-217.8" font-family="Times,serif" font-size="14.00">source</text>
</g>
<!-- has attribute -->
<g id="node8" class="node">
<title>has attribute</title>
<ellipse fill="none" stroke="blue" cx="791.39" cy="-178" rx="51.99" ry="18"/>
<text text-anchor="middle" x="791.39" y="-174.3" font-family="Times,serif" font-size="14.00">attribute</text>
</g>
<!-- sequence variant modulates treatment association&#45;&gt;has attribute -->
<g id="edge7" class="edge">
<title>sequence variant modulates treatment association&#45;&gt;has attribute</title>
<path fill="none" stroke="blue" d="M1112.01,-253.48C1056.93,-248.28 996.92,-240.54 942.39,-229 904.89,-221.07 863.66,-207.04 833.78,-195.85"/>
<polygon fill="blue" stroke="blue" points="834.69,-192.46 824.1,-192.18 832.21,-199 834.69,-192.46"/>
<text text-anchor="middle" x="989.39" y="-217.8" font-family="Times,serif" font-size="14.00">has attribute</text>
</g>
<!-- predicate -->
<g id="node9" class="node">
<title>predicate</title>
<ellipse fill="none" stroke="blue" cx="939.39" cy="-178" rx="77.99" ry="18"/>
<text text-anchor="middle" x="939.39" y="-174.3" font-family="Times,serif" font-size="14.00">predicate type</text>
</g>
<!-- sequence variant modulates treatment association&#45;&gt;predicate -->
<g id="edge8" class="edge">
<title>sequence variant modulates treatment association&#45;&gt;predicate</title>
<path fill="none" stroke="blue" d="M1190.4,-248.91C1157.96,-243.6 1122.57,-236.94 1090.39,-229 1055.59,-220.41 1017.25,-207.67 987.91,-197.2"/>
<polygon fill="blue" stroke="blue" points="988.92,-193.85 978.33,-193.75 986.55,-200.43 988.92,-193.85"/>
<text text-anchor="middle" x="1124.39" y="-217.8" font-family="Times,serif" font-size="14.00">predicate</text>
</g>
<!-- negated -->
<g id="node10" class="node">
<title>negated</title>
<ellipse fill="none" stroke="blue" cx="1082.39" cy="-178" rx="46.59" ry="18"/>
<text text-anchor="middle" x="1082.39" y="-174.3" font-family="Times,serif" font-size="14.00">boolean</text>
</g>
<!-- sequence variant modulates treatment association&#45;&gt;negated -->
<g id="edge9" class="edge">
<title>sequence variant modulates treatment association&#45;&gt;negated</title>
<path fill="none" stroke="blue" d="M1248.45,-247.4C1231.69,-241.86 1213.16,-235.46 1196.39,-229 1170.74,-219.12 1142.44,-206.72 1120.46,-196.74"/>
<polygon fill="blue" stroke="blue" points="1121.69,-193.45 1111.14,-192.48 1118.78,-199.82 1121.69,-193.45"/>
<text text-anchor="middle" x="1225.39" y="-217.8" font-family="Times,serif" font-size="14.00">negated</text>
</g>
<!-- qualifiers -->
<g id="node11" class="node">
<title>qualifiers</title>
<ellipse fill="none" stroke="blue" cx="1223.39" cy="-178" rx="76.89" ry="18"/>
<text text-anchor="middle" x="1223.39" y="-174.3" font-family="Times,serif" font-size="14.00">ontology class</text>
</g>
<!-- sequence variant modulates treatment association&#45;&gt;qualifiers -->
<g id="edge10" class="edge">
<title>sequence variant modulates treatment association&#45;&gt;qualifiers</title>
<path fill="none" stroke="blue" d="M1285.61,-246.8C1274.22,-234.39 1258.68,-217.46 1245.99,-203.62"/>
<polygon fill="blue" stroke="blue" points="1248.23,-200.89 1238.89,-195.89 1243.07,-205.62 1248.23,-200.89"/>
<text text-anchor="middle" x="1300.89" y="-217.8" font-family="Times,serif" font-size="14.00">qualifiers</text>
</g>
<!-- publications -->
<g id="node12" class="node">
<title>publications</title>
<ellipse fill="none" stroke="blue" cx="1380.39" cy="-178" rx="62.29" ry="18"/>
<text text-anchor="middle" x="1380.39" y="-174.3" font-family="Times,serif" font-size="14.00">publication</text>
</g>
<!-- sequence variant modulates treatment association&#45;&gt;publications -->
<g id="edge11" class="edge">
<title>sequence variant modulates treatment association&#45;&gt;publications</title>
<path fill="none" stroke="blue" d="M1320.24,-246.96C1326.19,-241.37 1332.69,-235.05 1338.39,-229 1345.98,-220.96 1353.88,-211.79 1360.75,-203.52"/>
<polygon fill="blue" stroke="blue" points="1363.59,-205.57 1367.23,-195.62 1358.18,-201.13 1363.59,-205.57"/>
<text text-anchor="middle" x="1396.39" y="-217.8" font-family="Times,serif" font-size="14.00">publications</text>
</g>
<!-- has evidence -->
<g id="node13" class="node">
<title>has evidence</title>
<ellipse fill="none" stroke="blue" cx="1536.39" cy="-178" rx="75.29" ry="18"/>
<text text-anchor="middle" x="1536.39" y="-174.3" font-family="Times,serif" font-size="14.00">evidence type</text>
</g>
<!-- sequence variant modulates treatment association&#45;&gt;has evidence -->
<g id="edge12" class="edge">
<title>sequence variant modulates treatment association&#45;&gt;has evidence</title>
<path fill="none" stroke="blue" d="M1382.69,-247.95C1403.15,-242.87 1424.85,-236.56 1444.39,-229 1464.28,-221.31 1485.25,-210.17 1502.15,-200.36"/>
<polygon fill="blue" stroke="blue" points="1504.25,-203.18 1511.08,-195.08 1500.69,-197.16 1504.25,-203.18"/>
<text text-anchor="middle" x="1522.89" y="-217.8" font-family="Times,serif" font-size="14.00">has evidence</text>
</g>
<!-- knowledge source -->
<g id="node14" class="node">
<title>knowledge source</title>
<ellipse fill="none" stroke="blue" cx="1738.39" cy="-178" rx="108.58" ry="18"/>
<text text-anchor="middle" x="1738.39" y="-174.3" font-family="Times,serif" font-size="14.00">information resource</text>
</g>
<!-- sequence variant modulates treatment association&#45;&gt;knowledge source -->
<g id="edge13" class="edge">
<title>sequence variant modulates treatment association&#45;&gt;knowledge source</title>
<path fill="none" stroke="blue" d="M1443.33,-250.26C1485.44,-244.97 1531.5,-237.98 1573.39,-229 1611.19,-220.9 1652.84,-208.25 1684.84,-197.7"/>
<polygon fill="blue" stroke="blue" points="1686.07,-200.98 1694.45,-194.5 1683.85,-194.34 1686.07,-200.98"/>
<text text-anchor="middle" x="1693.89" y="-217.8" font-family="Times,serif" font-size="14.00">knowledge source</text>
</g>
<!-- original knowledge source -->
<g id="node15" class="node">
<title>original knowledge source</title>
<ellipse fill="none" stroke="blue" cx="1973.39" cy="-178" rx="108.58" ry="18"/>
<text text-anchor="middle" x="1973.39" y="-174.3" font-family="Times,serif" font-size="14.00">information resource</text>
</g>
<!-- sequence variant modulates treatment association&#45;&gt;original knowledge source -->
<g id="edge14" class="edge">
<title>sequence variant modulates treatment association&#45;&gt;original knowledge source</title>
<path fill="none" stroke="blue" d="M1474.37,-252.18C1593.03,-243.85 1733.99,-233.42 1762.39,-229 1813.02,-221.13 1869.45,-207.5 1911.2,-196.45"/>
<polygon fill="blue" stroke="blue" points="1912.19,-199.81 1920.95,-193.85 1910.39,-193.05 1912.19,-199.81"/>
<text text-anchor="middle" x="1933.39" y="-217.8" font-family="Times,serif" font-size="14.00">original knowledge source</text>
</g>
<!-- primary knowledge source -->
<g id="node16" class="node">
<title>primary knowledge source</title>
<ellipse fill="none" stroke="blue" cx="2208.39" cy="-178" rx="108.58" ry="18"/>
<text text-anchor="middle" x="2208.39" y="-174.3" font-family="Times,serif" font-size="14.00">information resource</text>
</g>
<!-- sequence variant modulates treatment association&#45;&gt;primary knowledge source -->
<g id="edge15" class="edge">
<title>sequence variant modulates treatment association&#45;&gt;primary knowledge source</title>
<path fill="none" stroke="blue" d="M1471.44,-251.98C1499.8,-250.17 1528.92,-248.44 1556.39,-247 1767.37,-235.97 1822.72,-261.95 2031.39,-229 2073.59,-222.34 2120.03,-208.98 2154.75,-197.75"/>
<polygon fill="blue" stroke="blue" points="2156.26,-200.94 2164.67,-194.49 2154.08,-194.29 2156.26,-200.94"/>
<text text-anchor="middle" x="2191.39" y="-217.8" font-family="Times,serif" font-size="14.00">primary knowledge source</text>
</g>
<!-- aggregator knowledge source -->
<g id="node17" class="node">
<title>aggregator knowledge source</title>
<ellipse fill="none" stroke="blue" cx="2443.39" cy="-178" rx="108.58" ry="18"/>
<text text-anchor="middle" x="2443.39" y="-174.3" font-family="Times,serif" font-size="14.00">information resource</text>
</g>
<!-- sequence variant modulates treatment association&#45;&gt;aggregator knowledge source -->
<g id="edge16" class="edge">
<title>sequence variant modulates treatment association&#45;&gt;aggregator knowledge source</title>
<path fill="none" stroke="blue" d="M1469.02,-251.82C1498.14,-249.99 1528.14,-248.29 1556.39,-247 1719.39,-239.57 2129.59,-256.63 2290.39,-229 2326.52,-222.79 2365.79,-209.82 2395.51,-198.64"/>
<polygon fill="blue" stroke="blue" points="2397.11,-201.78 2405.2,-194.93 2394.61,-195.24 2397.11,-201.78"/>
<text text-anchor="middle" x="2456.89" y="-217.8" font-family="Times,serif" font-size="14.00">aggregator knowledge source</text>
</g>
<!-- type -->
<g id="node18" class="node">
<title>type</title>
<ellipse fill="none" stroke="black" cx="2601.39" cy="-178" rx="31.4" ry="18"/>
<text text-anchor="middle" x="2601.39" y="-174.3" font-family="Times,serif" font-size="14.00">type</text>
</g>
<!-- sequence variant modulates treatment association&#45;&gt;type -->
<g id="edge17" class="edge">
<title>sequence variant modulates treatment association&#45;&gt;type</title>
<path fill="none" stroke="blue" d="M1467.65,-251.74C1497.19,-249.9 1527.69,-248.21 1556.39,-247 1584.46,-245.82 2542.69,-242.36 2567.39,-229 2577.23,-223.68 2584.76,-214.14 2590.21,-204.8"/>
<polygon fill="blue" stroke="blue" points="2593.44,-206.18 2594.97,-195.7 2587.24,-202.94 2593.44,-206.18"/>
<text text-anchor="middle" x="2599.39" y="-217.8" font-family="Times,serif" font-size="14.00">type</text>
</g>
<!-- category -->
<g id="node20" class="node">
<title>category</title>
<ellipse fill="none" stroke="black" cx="2702.39" cy="-178" rx="51.19" ry="18"/>
<text text-anchor="middle" x="2702.39" y="-174.3" font-family="Times,serif" font-size="14.00">category</text>
</g>
<!-- sequence variant modulates treatment association&#45;&gt;category -->
<g id="edge18" class="edge">
<title>sequence variant modulates treatment association&#45;&gt;category</title>
<path fill="none" stroke="blue" d="M1467.65,-251.72C1497.19,-249.88 1527.69,-248.2 1556.39,-247 1615.41,-244.53 2562.62,-245.3 2619.39,-229 2639.26,-223.3 2659.18,-211.55 2674.52,-200.87"/>
<polygon fill="blue" stroke="blue" points="2676.93,-203.45 2682.99,-194.76 2672.84,-197.77 2676.93,-203.45"/>
<text text-anchor="middle" x="2684.89" y="-217.8" font-family="Times,serif" font-size="14.00">category</text>
</g>
<!-- subject -->
<g id="node22" class="node">
<title>subject</title>
<ellipse fill="none" stroke="black" cx="2816.39" cy="-178" rx="44.39" ry="18"/>
<text text-anchor="middle" x="2816.39" y="-174.3" font-family="Times,serif" font-size="14.00">subject</text>
</g>
<!-- sequence variant modulates treatment association&#45;&gt;subject -->
<g id="edge19" class="edge">
<title>sequence variant modulates treatment association&#45;&gt;subject</title>
<path fill="none" stroke="blue" d="M1467.3,-251.71C1496.96,-249.86 1527.58,-248.18 1556.39,-247 1621.01,-244.35 2657.7,-244.86 2720.39,-229 2743.82,-223.07 2767.93,-210.49 2786.13,-199.42"/>
<polygon fill="blue" stroke="blue" points="2788.46,-202.1 2795.08,-193.82 2784.74,-196.16 2788.46,-202.1"/>
<text text-anchor="middle" x="2785.39" y="-217.8" font-family="Times,serif" font-size="14.00">subject</text>
</g>
<!-- object -->
<g id="node24" class="node">
<title>object</title>
<ellipse fill="none" stroke="black" cx="2859.39" cy="-91" rx="38.99" ry="18"/>
<text text-anchor="middle" x="2859.39" y="-87.3" font-family="Times,serif" font-size="14.00">object</text>
</g>
<!-- sequence variant modulates treatment association&#45;&gt;object -->
<g id="edge20" class="edge">
<title>sequence variant modulates treatment association&#45;&gt;object</title>
<path fill="none" stroke="blue" d="M1466.96,-251.7C1496.72,-249.85 1527.47,-248.17 1556.39,-247 1626.29,-244.17 2748.19,-248.43 2815.39,-229 2842.41,-221.19 2852.84,-218.74 2869.39,-196 2887.76,-170.77 2891.34,-156.9 2882.39,-127 2881.36,-123.55 2879.87,-120.13 2878.13,-116.85"/>
<polygon fill="blue" stroke="blue" points="2880.98,-114.79 2872.77,-108.09 2875.01,-118.45 2880.98,-114.79"/>
<text text-anchor="middle" x="2909.39" y="-174.3" font-family="Times,serif" font-size="14.00">object</text>
</g>
<!-- association_type -->
<g id="node19" class="node">
<title>association_type</title>
<ellipse fill="none" stroke="blue" cx="1603.39" cy="-265" rx="38.19" ry="18"/>
<text text-anchor="middle" x="1603.39" y="-261.3" font-family="Times,serif" font-size="14.00">string</text>
</g>
<!-- association_category -->
<g id="node21" class="node">
<title>association_category</title>
<ellipse fill="none" stroke="blue" cx="1734.39" cy="-265" rx="74.99" ry="18"/>
<text text-anchor="middle" x="1734.39" y="-261.3" font-family="Times,serif" font-size="14.00">category type</text>
</g>
<!-- subject&#45;&gt;object -->
<g id="edge21" class="edge">
<title>subject&#45;&gt;object</title>
<path fill="none" stroke="black" d="M2817.5,-159.55C2818.7,-149.57 2821.2,-137.07 2826.39,-127 2828.62,-122.68 2831.55,-118.52 2834.73,-114.66"/>
<polygon fill="black" stroke="black" points="2837.35,-116.98 2841.49,-107.23 2832.17,-112.27 2837.35,-116.98"/>
<text text-anchor="middle" x="2854.39" y="-130.8" font-family="Times,serif" font-size="14.00">relation</text>
</g>
<!-- relation -->
<g id="node26" class="node">
<title>relation</title>
<ellipse fill="none" stroke="black" cx="2804.39" cy="-18" rx="46.59" ry="18"/>
<text text-anchor="middle" x="2804.39" y="-14.3" font-family="Times,serif" font-size="14.00">relation</text>
</g>
<!-- subject&#45;&gt;relation -->
<g id="edge22" class="edge">
<title>subject&#45;&gt;relation</title>
<path fill="none" stroke="black" stroke-dasharray="1,5" d="M2815.09,-159.79C2813.01,-132.48 2808.95,-78.99 2806.47,-46.38"/>
<polygon fill="black" stroke="black" points="2809.95,-45.89 2805.7,-36.19 2802.97,-46.42 2809.95,-45.89"/>
</g>
<!-- sequence variant modulates treatment association_subject -->
<g id="node23" class="node">
<title>sequence variant modulates treatment association_subject</title>
<ellipse fill="none" stroke="blue" cx="1917.39" cy="-265" rx="90.18" ry="18"/>
<text text-anchor="middle" x="1917.39" y="-261.3" font-family="Times,serif" font-size="14.00">sequence variant</text>
</g>
<!-- object&#45;&gt;relation -->
<g id="edge23" class="edge">
<title>object&#45;&gt;relation</title>
<path fill="none" stroke="black" stroke-dasharray="1,5" d="M2846.91,-73.89C2839.98,-64.94 2831.21,-53.62 2823.44,-43.58"/>
<polygon fill="black" stroke="black" points="2826.1,-41.3 2817.21,-35.54 2820.56,-45.59 2826.1,-41.3"/>
</g>
<!-- sequence variant modulates treatment association_object -->
<g id="node25" class="node">
<title>sequence variant modulates treatment association_object</title>
<ellipse fill="none" stroke="blue" cx="2083.39" cy="-265" rx="57.69" ry="18"/>
<text text-anchor="middle" x="2083.39" y="-261.3" font-family="Times,serif" font-size="14.00">treatment</text>
</g>
</g>
</svg>
