<?xml version="1.0" encoding="UTF-8" standalone="no"?>
<!DOCTYPE svg PUBLIC "-//W3C//DTD SVG 1.1//EN"
 "http://www.w3.org/Graphics/SVG/1.1/DTD/svg11.dtd">
<!-- Generated by graphviz version 2.40.1 (20161225.0304)
 -->
<!-- Title: %3 Pages: 1 -->
<svg width="1659pt" height="291pt"
 viewBox="0.00 0.00 1659.05 291.00" xmlns="http://www.w3.org/2000/svg" xmlns:xlink="http://www.w3.org/1999/xlink">
<g id="graph0" class="graph" transform="scale(1 1) rotate(0) translate(4 287)">
<title>%3</title>
<polygon fill="#ffffff" stroke="transparent" points="-4,4 -4,-287 1655.0456,-287 1655.0456,4 -4,4"/>
<!-- sequence feature relationship -->
<g id="node1" class="node">
<title>sequence feature relationship</title>
<ellipse fill="none" stroke="#000000" cx="876.0456" cy="-265" rx="113.9803" ry="18"/>
<text text-anchor="middle" x="876.0456" y="-261.3" font-family="Times,serif" font-size="14.00" fill="#000000">sequence feature relationship</text>
</g>
<!-- association -->
<g id="node2" class="node">
<title>association</title>
<ellipse fill="none" stroke="#000000" cx="50.0456" cy="-178" rx="50.0912" ry="18"/>
<text text-anchor="middle" x="50.0456" y="-174.3" font-family="Times,serif" font-size="14.00" fill="#000000">association</text>
</g>
<!-- sequence feature relationship&#45;&gt;association -->
<g id="edge1" class="edge">
<title>sequence feature relationship&#45;&gt;association</title>
<path fill="none" stroke="#000000" d="M763.6897,-261.9215C604.8754,-257.0371 322.85,-246.2583 222.0456,-229 177.8983,-221.4417 129.075,-206.282 94.7597,-194.4459"/>
<polygon fill="#000000" stroke="#000000" points="95.635,-191.0442 85.0402,-191.0484 93.3251,-197.6522 95.635,-191.0442"/>
<text text-anchor="middle" x="233.0456" y="-217.8" font-family="Times,serif" font-size="14.00" fill="#000000">is_a</text>
</g>
<!-- id -->
<g id="node3" class="node">
<title>id</title>
<ellipse fill="none" stroke="#0000ff" cx="149.0456" cy="-178" rx="30.5947" ry="18"/>
<text text-anchor="middle" x="149.0456" y="-174.3" font-family="Times,serif" font-size="14.00" fill="#000000">string</text>
</g>
<!-- sequence feature relationship&#45;&gt;id -->
<g id="edge2" class="edge">
<title>sequence feature relationship&#45;&gt;id</title>
<path fill="none" stroke="#0000ff" d="M766.4839,-260.0524C630.9258,-253.5421 407.9958,-241.4583 326.0456,-229 264.1266,-219.5869 248.3044,-216.272 189.0456,-196 186.7962,-195.2305 184.5006,-194.381 182.2034,-193.4824"/>
<polygon fill="#0000ff" stroke="#0000ff" points="183.4432,-190.2074 172.8663,-189.5917 180.7507,-196.6689 183.4432,-190.2074"/>
<text text-anchor="middle" x="331.5456" y="-217.8" font-family="Times,serif" font-size="14.00" fill="#000000">id</text>
</g>
<!-- iri -->
<g id="node4" class="node">
<title>iri</title>
<ellipse fill="none" stroke="#0000ff" cx="234.0456" cy="-178" rx="36.2938" ry="18"/>
<text text-anchor="middle" x="234.0456" y="-174.3" font-family="Times,serif" font-size="14.00" fill="#000000">iri type</text>
</g>
<!-- sequence feature relationship&#45;&gt;iri -->
<g id="edge3" class="edge">
<title>sequence feature relationship&#45;&gt;iri</title>
<path fill="none" stroke="#0000ff" d="M764.6348,-261.1914C671.3235,-256.8243 534.8711,-247.691 417.0456,-229 355.1886,-219.1874 339.7914,-214.7884 280.0456,-196 277.2845,-195.1317 274.452,-194.1796 271.6148,-193.1807"/>
<polygon fill="#0000ff" stroke="#0000ff" points="272.6412,-189.8289 262.0477,-189.6587 270.2229,-196.398 272.6412,-189.8289"/>
<text text-anchor="middle" x="423.5456" y="-217.8" font-family="Times,serif" font-size="14.00" fill="#000000">iri</text>
</g>
<!-- name -->
<g id="node5" class="node">
<title>name</title>
<ellipse fill="none" stroke="#0000ff" cx="334.0456" cy="-178" rx="45.4919" ry="18"/>
<text text-anchor="middle" x="334.0456" y="-174.3" font-family="Times,serif" font-size="14.00" fill="#000000">label type</text>
</g>
<!-- sequence feature relationship&#45;&gt;name -->
<g id="edge4" class="edge">
<title>sequence feature relationship&#45;&gt;name</title>
<path fill="none" stroke="#0000ff" d="M764.7502,-260.9788C687.3555,-256.6313 582.1393,-247.6217 491.0456,-229 451.1409,-220.8426 407.1561,-206.0244 375.9197,-194.4551"/>
<polygon fill="#0000ff" stroke="#0000ff" points="376.8395,-191.062 366.2473,-190.8256 374.3801,-197.6158 376.8395,-191.062"/>
<text text-anchor="middle" x="506.5456" y="-217.8" font-family="Times,serif" font-size="14.00" fill="#000000">name</text>
</g>
<!-- description -->
<g id="node6" class="node">
<title>description</title>
<ellipse fill="none" stroke="#0000ff" cx="455.0456" cy="-178" rx="57.6901" ry="18"/>
<text text-anchor="middle" x="455.0456" y="-174.3" font-family="Times,serif" font-size="14.00" fill="#000000">narrative text</text>
</g>
<!-- sequence feature relationship&#45;&gt;description -->
<g id="edge5" class="edge">
<title>sequence feature relationship&#45;&gt;description</title>
<path fill="none" stroke="#0000ff" d="M774.9578,-256.6313C700.1894,-249.8002 605.0262,-239.5786 567.0456,-229 541.0487,-221.7592 513.4403,-209.2483 492.1391,-198.4303"/>
<polygon fill="#0000ff" stroke="#0000ff" points="493.6121,-195.2517 483.1226,-193.7616 490.3934,-201.4678 493.6121,-195.2517"/>
<text text-anchor="middle" x="597.5456" y="-217.8" font-family="Times,serif" font-size="14.00" fill="#000000">description</text>
</g>
<!-- source -->
<g id="node7" class="node">
<title>source</title>
<ellipse fill="none" stroke="#0000ff" cx="576.0456" cy="-178" rx="45.4919" ry="18"/>
<text text-anchor="middle" x="576.0456" y="-174.3" font-family="Times,serif" font-size="14.00" fill="#000000">label type</text>
</g>
<!-- sequence feature relationship&#45;&gt;source -->
<g id="edge6" class="edge">
<title>sequence feature relationship&#45;&gt;source</title>
<path fill="none" stroke="#0000ff" d="M776.6456,-256.241C739.5692,-250.9433 697.6212,-242.4823 661.0456,-229 641.7432,-221.8849 621.9338,-210.2944 606.2995,-199.9595"/>
<polygon fill="#0000ff" stroke="#0000ff" points="607.8518,-196.7831 597.6121,-194.0629 603.9206,-202.575 607.8518,-196.7831"/>
<text text-anchor="middle" x="679.0456" y="-217.8" font-family="Times,serif" font-size="14.00" fill="#000000">source</text>
</g>
<!-- provided by -->
<g id="node8" class="node">
<title>provided by</title>
<ellipse fill="none" stroke="#0000ff" cx="669.0456" cy="-178" rx="29.795" ry="18"/>
<text text-anchor="middle" x="669.0456" y="-174.3" font-family="Times,serif" font-size="14.00" fill="#000000">agent</text>
</g>
<!-- sequence feature relationship&#45;&gt;provided by -->
<g id="edge7" class="edge">
<title>sequence feature relationship&#45;&gt;provided by</title>
<path fill="none" stroke="#0000ff" d="M787.8794,-253.6014C764.8498,-248.2694 740.7097,-240.4531 720.0456,-229 708.0668,-222.3608 697.0143,-212.0853 688.2832,-202.4925"/>
<polygon fill="#0000ff" stroke="#0000ff" points="690.7181,-199.9577 681.5256,-194.69 685.4267,-204.5405 690.7181,-199.9577"/>
<text text-anchor="middle" x="753.0456" y="-217.8" font-family="Times,serif" font-size="14.00" fill="#000000">provided by</text>
</g>
<!-- has attribute -->
<g id="node9" class="node">
<title>has attribute</title>
<ellipse fill="none" stroke="#0000ff" cx="757.0456" cy="-178" rx="40.0939" ry="18"/>
<text text-anchor="middle" x="757.0456" y="-174.3" font-family="Times,serif" font-size="14.00" fill="#000000">attribute</text>
</g>
<!-- sequence feature relationship&#45;&gt;has attribute -->
<g id="edge8" class="edge">
<title>sequence feature relationship&#45;&gt;has attribute</title>
<path fill="none" stroke="#0000ff" d="M836.6579,-248.0665C825.9554,-242.6698 814.6719,-236.2044 805.0456,-229 794.9565,-221.4493 785.1693,-211.6535 777.0931,-202.6679"/>
<polygon fill="#0000ff" stroke="#0000ff" points="779.6758,-200.3041 770.4717,-195.0568 774.3946,-204.8986 779.6758,-200.3041"/>
<text text-anchor="middle" x="838.5456" y="-217.8" font-family="Times,serif" font-size="14.00" fill="#000000">has attribute</text>
</g>
<!-- predicate -->
<g id="node10" class="node">
<title>predicate</title>
<ellipse fill="none" stroke="#0000ff" cx="876.0456" cy="-178" rx="60.3893" ry="18"/>
<text text-anchor="middle" x="876.0456" y="-174.3" font-family="Times,serif" font-size="14.00" fill="#000000">predicate type</text>
</g>
<!-- sequence feature relationship&#45;&gt;predicate -->
<g id="edge9" class="edge">
<title>sequence feature relationship&#45;&gt;predicate</title>
<path fill="none" stroke="#0000ff" d="M876.0456,-246.9735C876.0456,-235.1918 876.0456,-219.5607 876.0456,-206.1581"/>
<polygon fill="#0000ff" stroke="#0000ff" points="879.5457,-206.0033 876.0456,-196.0034 872.5457,-206.0034 879.5457,-206.0033"/>
<text text-anchor="middle" x="901.0456" y="-217.8" font-family="Times,serif" font-size="14.00" fill="#000000">predicate</text>
</g>
<!-- relation -->
<g id="node11" class="node">
<title>relation</title>
<ellipse fill="none" stroke="#0000ff" cx="1514.0456" cy="-18" rx="45.4919" ry="18"/>
<text text-anchor="middle" x="1514.0456" y="-14.3" font-family="Times,serif" font-size="14.00" fill="#000000">uriorcurie</text>
</g>
<!-- sequence feature relationship&#45;&gt;relation -->
<g id="edge10" class="edge">
<title>sequence feature relationship&#45;&gt;relation</title>
<path fill="none" stroke="#0000ff" d="M905.9332,-247.5871C914.1595,-242.1427 922.8035,-235.7724 930.0456,-229 958.2892,-202.5878 950.8826,-181.4675 983.0456,-160 1134.9818,-58.5883 1356.5988,-29.4412 1458.7344,-21.1895"/>
<polygon fill="#0000ff" stroke="#0000ff" points="1459.1258,-24.6698 1468.827,-20.4111 1458.5875,-17.6905 1459.1258,-24.6698"/>
<text text-anchor="middle" x="1058.0456" y="-130.8" font-family="Times,serif" font-size="14.00" fill="#000000">relation</text>
</g>
<!-- negated -->
<g id="node12" class="node">
<title>negated</title>
<ellipse fill="none" stroke="#0000ff" cx="1030.0456" cy="-178" rx="38.1938" ry="18"/>
<text text-anchor="middle" x="1030.0456" y="-174.3" font-family="Times,serif" font-size="14.00" fill="#000000">boolean</text>
</g>
<!-- sequence feature relationship&#45;&gt;negated -->
<g id="edge11" class="edge">
<title>sequence feature relationship&#45;&gt;negated</title>
<path fill="none" stroke="#0000ff" d="M933.913,-249.4807C948.8908,-244.1705 964.5801,-237.3952 978.0456,-229 989.4466,-221.8919 1000.3413,-211.899 1009.186,-202.6402"/>
<polygon fill="#0000ff" stroke="#0000ff" points="1011.9115,-204.847 1016.0995,-195.115 1006.7566,-200.1112 1011.9115,-204.847"/>
<text text-anchor="middle" x="1018.5456" y="-217.8" font-family="Times,serif" font-size="14.00" fill="#000000">negated</text>
</g>
<!-- qualifiers -->
<g id="node13" class="node">
<title>qualifiers</title>
<ellipse fill="none" stroke="#0000ff" cx="1148.0456" cy="-178" rx="61.99" ry="18"/>
<text text-anchor="middle" x="1148.0456" y="-174.3" font-family="Times,serif" font-size="14.00" fill="#000000">ontology class</text>
</g>
<!-- sequence feature relationship&#45;&gt;qualifiers -->
<g id="edge12" class="edge">
<title>sequence feature relationship&#45;&gt;qualifiers</title>
<path fill="none" stroke="#0000ff" d="M955.7697,-252.0661C984.0601,-246.394 1015.8604,-238.7648 1044.0456,-229 1067.0108,-221.0437 1091.472,-209.2327 1110.898,-198.98"/>
<polygon fill="#0000ff" stroke="#0000ff" points="1112.5641,-202.0581 1119.7228,-194.2476 1109.2559,-195.8892 1112.5641,-202.0581"/>
<text text-anchor="middle" x="1106.0456" y="-217.8" font-family="Times,serif" font-size="14.00" fill="#000000">qualifiers</text>
</g>
<!-- publications -->
<g id="node14" class="node">
<title>publications</title>
<ellipse fill="none" stroke="#0000ff" cx="1278.0456" cy="-178" rx="50.0912" ry="18"/>
<text text-anchor="middle" x="1278.0456" y="-174.3" font-family="Times,serif" font-size="14.00" fill="#000000">publication</text>
</g>
<!-- sequence feature relationship&#45;&gt;publications -->
<g id="edge13" class="edge">
<title>sequence feature relationship&#45;&gt;publications</title>
<path fill="none" stroke="#0000ff" d="M958.7069,-252.6125C971.8609,-250.6965 985.3219,-248.7683 998.0456,-247 1059.3096,-238.4857 1075.9254,-243.5376 1136.0456,-229 1170.5504,-220.6564 1208.3175,-206.8543 1236.2231,-195.7111"/>
<polygon fill="#0000ff" stroke="#0000ff" points="1237.7028,-198.8881 1245.6609,-191.8938 1235.0781,-192.3988 1237.7028,-198.8881"/>
<text text-anchor="middle" x="1217.5456" y="-217.8" font-family="Times,serif" font-size="14.00" fill="#000000">publications</text>
</g>
<!-- type -->
<g id="node15" class="node">
<title>type</title>
<ellipse fill="none" stroke="#000000" cx="1373.0456" cy="-178" rx="27" ry="18"/>
<text text-anchor="middle" x="1373.0456" y="-174.3" font-family="Times,serif" font-size="14.00" fill="#000000">type</text>
</g>
<!-- sequence feature relationship&#45;&gt;type -->
<g id="edge14" class="edge">
<title>sequence feature relationship&#45;&gt;type</title>
<path fill="none" stroke="#0000ff" d="M956.6518,-252.2176C970.4382,-250.2865 984.6362,-248.4566 998.0456,-247 1111.8779,-234.6345 1143.4621,-254.6874 1255.0456,-229 1286.3944,-221.7832 1319.8502,-206.525 1343.102,-194.5687"/>
<polygon fill="#0000ff" stroke="#0000ff" points="1344.8728,-197.5921 1352.0995,-189.8445 1341.6186,-191.3945 1344.8728,-197.5921"/>
<text text-anchor="middle" x="1311.0456" y="-217.8" font-family="Times,serif" font-size="14.00" fill="#000000">type</text>
</g>
<!-- category -->
<g id="node17" class="node">
<title>category</title>
<ellipse fill="none" stroke="#000000" cx="1459.0456" cy="-178" rx="40.8928" ry="18"/>
<text text-anchor="middle" x="1459.0456" y="-174.3" font-family="Times,serif" font-size="14.00" fill="#000000">category</text>
</g>
<!-- sequence feature relationship&#45;&gt;category -->
<g id="edge15" class="edge">
<title>sequence feature relationship&#45;&gt;category</title>
<path fill="none" stroke="#0000ff" d="M955.9773,-252.134C969.971,-250.1886 984.4125,-248.3757 998.0456,-247 1143.7465,-232.2972 1183.8732,-259.7671 1327.0456,-229 1360.271,-221.86 1396.1304,-207.5455 1422.0764,-195.8947"/>
<polygon fill="#0000ff" stroke="#0000ff" points="1423.8708,-198.9227 1431.5088,-191.5803 1420.9591,-192.557 1423.8708,-198.9227"/>
<text text-anchor="middle" x="1399.5456" y="-217.8" font-family="Times,serif" font-size="14.00" fill="#000000">category</text>
</g>
<!-- subject -->
<g id="node19" class="node">
<title>subject</title>
<ellipse fill="none" stroke="#000000" cx="1554.0456" cy="-178" rx="35.9954" ry="18"/>
<text text-anchor="middle" x="1554.0456" y="-174.3" font-family="Times,serif" font-size="14.00" fill="#000000">subject</text>
</g>
<!-- sequence feature relationship&#45;&gt;subject -->
<g id="edge16" class="edge">
<title>sequence feature relationship&#45;&gt;subject</title>
<path fill="none" stroke="#0000ff" d="M955.3073,-252.0782C969.5066,-250.1139 984.1909,-248.3091 998.0456,-247 1093.0397,-238.0241 1333.7625,-249.0678 1427.0456,-229 1459.7951,-221.9547 1494.9923,-207.2008 1520.0079,-195.366"/>
<polygon fill="#0000ff" stroke="#0000ff" points="1521.5837,-198.4919 1529.0705,-190.9953 1518.5429,-192.1868 1521.5837,-198.4919"/>
<text text-anchor="middle" x="1492.5456" y="-217.8" font-family="Times,serif" font-size="14.00" fill="#000000">subject</text>
</g>
<!-- object -->
<g id="node21" class="node">
<title>object</title>
<ellipse fill="none" stroke="#000000" cx="1574.0456" cy="-91" rx="32.4942" ry="18"/>
<text text-anchor="middle" x="1574.0456" y="-87.3" font-family="Times,serif" font-size="14.00" fill="#000000">object</text>
</g>
<!-- sequence feature relationship&#45;&gt;object -->
<g id="edge17" class="edge">
<title>sequence feature relationship&#45;&gt;object</title>
<path fill="none" stroke="#0000ff" d="M955.2995,-251.9949C969.4997,-250.0394 984.1862,-248.2592 998.0456,-247 1112.7536,-236.5778 1403.314,-252.6253 1516.0456,-229 1554.8991,-220.8574 1573.3045,-226.2208 1599.0456,-196 1619.2292,-172.3038 1623.154,-155.6753 1611.0456,-127 1608.823,-121.7365 1605.4129,-116.862 1601.5445,-112.5091"/>
<polygon fill="#0000ff" stroke="#0000ff" points="1603.8081,-109.8246 1594.2441,-105.2661 1598.878,-114.7939 1603.8081,-109.8246"/>
<text text-anchor="middle" x="1634.0456" y="-174.3" font-family="Times,serif" font-size="14.00" fill="#000000">object</text>
</g>
<!-- association_type -->
<g id="node16" class="node">
<title>association_type</title>
<ellipse fill="none" stroke="#0000ff" cx="1038.0456" cy="-265" rx="30.5947" ry="18"/>
<text text-anchor="middle" x="1038.0456" y="-261.3" font-family="Times,serif" font-size="14.00" fill="#000000">string</text>
</g>
<!-- association_category -->
<g id="node18" class="node">
<title>association_category</title>
<ellipse fill="none" stroke="#0000ff" cx="1137.0456" cy="-265" rx="50.0912" ry="18"/>
<text text-anchor="middle" x="1137.0456" y="-261.3" font-family="Times,serif" font-size="14.00" fill="#000000">association</text>
</g>
<!-- subject&#45;&gt;relation -->
<g id="edge19" class="edge">
<title>subject&#45;&gt;relation</title>
<path fill="none" stroke="#000000" stroke-dasharray="1,5" d="M1548.072,-159.9654C1543.6032,-146.1164 1537.5177,-126.4678 1533.0456,-109 1527.6917,-88.0882 1522.7459,-64.1877 1519.2431,-46.1297"/>
<polygon fill="#000000" stroke="#000000" points="1522.6682,-45.4058 1517.3553,-36.2393 1515.7923,-46.7182 1522.6682,-45.4058"/>
</g>
<!-- subject&#45;&gt;object -->
<g id="edge18" class="edge">
<title>subject&#45;&gt;object</title>
<path fill="none" stroke="#000000" d="M1558.1896,-159.9735C1560.9248,-148.0751 1564.5626,-132.2508 1567.6638,-118.7606"/>
<polygon fill="#000000" stroke="#000000" points="1571.0774,-119.5333 1569.9069,-109.0034 1564.2553,-117.965 1571.0774,-119.5333"/>
<text text-anchor="middle" x="1586.0456" y="-130.8" font-family="Times,serif" font-size="14.00" fill="#000000">relation</text>
</g>
<!-- sequence feature relationship_subject -->
<g id="node20" class="node">
<title>sequence feature relationship_subject</title>
<ellipse fill="none" stroke="#0000ff" cx="1269.0456" cy="-265" rx="63.8893" ry="18"/>
<text text-anchor="middle" x="1269.0456" y="-261.3" font-family="Times,serif" font-size="14.00" fill="#000000">genomic entity</text>
</g>
<!-- object&#45;&gt;relation -->
<g id="edge20" class="edge">
<title>object&#45;&gt;relation</title>
<path fill="none" stroke="#000000" stroke-dasharray="1,5" d="M1560.4306,-74.4352C1552.8462,-65.2075 1543.2464,-53.5276 1534.7502,-43.1906"/>
<polygon fill="#000000" stroke="#000000" points="1537.2862,-40.764 1528.2327,-35.261 1531.8784,-45.2088 1537.2862,-40.764"/>
</g>
<!-- sequence feature relationship_object -->
<g id="node22" class="node">
<title>sequence feature relationship_object</title>
<ellipse fill="none" stroke="#0000ff" cx="1414.0456" cy="-265" rx="63.8893" ry="18"/>
<text text-anchor="middle" x="1414.0456" y="-261.3" font-family="Times,serif" font-size="14.00" fill="#000000">genomic entity</text>
</g>
</g>
</svg>
