<?xml version="1.0" encoding="UTF-8" standalone="no"?>
<!DOCTYPE svg PUBLIC "-//W3C//DTD SVG 1.1//EN"
 "http://www.w3.org/Graphics/SVG/1.1/DTD/svg11.dtd">
<!-- Generated by graphviz version 2.40.1 (20161225.0304)
 -->
<!-- Title: %3 Pages: 1 -->
<svg width="1149pt" height="291pt"
 viewBox="0.00 0.00 1149.34 291.00" xmlns="http://www.w3.org/2000/svg" xmlns:xlink="http://www.w3.org/1999/xlink">
<g id="graph0" class="graph" transform="scale(1 1) rotate(0) translate(4 287)">
<title>%3</title>
<polygon fill="#ffffff" stroke="transparent" points="-4,4 -4,-287 1145.342,-287 1145.342,4 -4,4"/>
<!-- sequence association -->
<g id="node1" class="node">
<title>sequence association</title>
<ellipse fill="none" stroke="#000000" cx="617.0456" cy="-265" rx="84.485" ry="18"/>
<text text-anchor="middle" x="617.0456" y="-261.3" font-family="Times,serif" font-size="14.00" fill="#000000">sequence association</text>
</g>
<!-- association -->
<g id="node2" class="node">
<title>association</title>
<ellipse fill="none" stroke="#000000" cx="50.0456" cy="-178" rx="50.0912" ry="18"/>
<text text-anchor="middle" x="50.0456" y="-174.3" font-family="Times,serif" font-size="14.00" fill="#000000">association</text>
</g>
<!-- sequence association&#45;&gt;association -->
<g id="edge1" class="edge">
<title>sequence association&#45;&gt;association</title>
<path fill="none" stroke="#000000" d="M532.9539,-262.6808C450.9143,-259.2026 322.9211,-250.5373 214.0456,-229 172.6929,-220.8198 126.9979,-206.1208 94.3682,-194.5977"/>
<polygon fill="#000000" stroke="#000000" points="95.2751,-191.205 84.6805,-191.1343 92.9185,-197.7965 95.2751,-191.205"/>
<text text-anchor="middle" x="225.0456" y="-217.8" font-family="Times,serif" font-size="14.00" fill="#000000">is_a</text>
</g>
<!-- id -->
<g id="node3" class="node">
<title>id</title>
<ellipse fill="none" stroke="#000000" cx="145.0456" cy="-178" rx="27" ry="18"/>
<text text-anchor="middle" x="145.0456" y="-174.3" font-family="Times,serif" font-size="14.00" fill="#000000">id</text>
</g>
<!-- sequence association&#45;&gt;id -->
<g id="edge2" class="edge">
<title>sequence association&#45;&gt;id</title>
<path fill="none" stroke="#0000ff" d="M538.923,-258.1092C478.3769,-252.1628 392.5304,-242.4077 318.0456,-229 256.4058,-217.9045 239.8786,-217.4764 181.0456,-196 179.1748,-195.3171 177.2744,-194.5632 175.3741,-193.7625"/>
<polygon fill="#0000ff" stroke="#0000ff" points="176.5618,-190.457 166.0119,-189.4817 173.6509,-196.8231 176.5618,-190.457"/>
<text text-anchor="middle" x="323.5456" y="-217.8" font-family="Times,serif" font-size="14.00" fill="#000000">id</text>
</g>
<!-- association type -->
<g id="node5" class="node">
<title>association type</title>
<ellipse fill="none" stroke="#0000ff" cx="252.0456" cy="-178" rx="61.99" ry="18"/>
<text text-anchor="middle" x="252.0456" y="-174.3" font-family="Times,serif" font-size="14.00" fill="#000000">ontology class</text>
</g>
<!-- sequence association&#45;&gt;association type -->
<g id="edge3" class="edge">
<title>sequence association&#45;&gt;association type</title>
<path fill="none" stroke="#0000ff" d="M538.249,-258.4683C489.9325,-253.2146 427.1698,-244.1361 373.0456,-229 345.2596,-221.2295 315.3732,-208.677 292.2545,-197.9701"/>
<polygon fill="#0000ff" stroke="#0000ff" points="293.646,-194.7568 283.1074,-193.667 290.6662,-201.0909 293.646,-194.7568"/>
<text text-anchor="middle" x="417.0456" y="-217.8" font-family="Times,serif" font-size="14.00" fill="#000000">association type</text>
</g>
<!-- subject -->
<g id="node6" class="node">
<title>subject</title>
<ellipse fill="none" stroke="#0000ff" cx="387.0456" cy="-178" rx="55.4913" ry="18"/>
<text text-anchor="middle" x="387.0456" y="-174.3" font-family="Times,serif" font-size="14.00" fill="#000000">named thing</text>
</g>
<!-- sequence association&#45;&gt;subject -->
<g id="edge4" class="edge">
<title>sequence association&#45;&gt;subject</title>
<path fill="none" stroke="#0000ff" d="M565.1477,-250.7661C544.3857,-244.6583 520.3801,-237.072 499.0456,-229 474.5016,-219.7137 447.7278,-207.5985 426.5136,-197.5065"/>
<polygon fill="#0000ff" stroke="#0000ff" points="428.0161,-194.3454 417.4861,-193.1748 424.9878,-200.6565 428.0161,-194.3454"/>
<text text-anchor="middle" x="518.5456" y="-217.8" font-family="Times,serif" font-size="14.00" fill="#000000">subject</text>
</g>
<!-- predicate -->
<g id="node7" class="node">
<title>predicate</title>
<ellipse fill="none" stroke="#0000ff" cx="521.0456" cy="-178" rx="60.3893" ry="18"/>
<text text-anchor="middle" x="521.0456" y="-174.3" font-family="Times,serif" font-size="14.00" fill="#000000">predicate type</text>
</g>
<!-- sequence association&#45;&gt;predicate -->
<g id="edge5" class="edge">
<title>sequence association&#45;&gt;predicate</title>
<path fill="none" stroke="#0000ff" d="M580.6928,-248.652C571.0371,-243.2611 561.0739,-236.6522 553.0456,-229 545.822,-222.1149 539.5359,-213.2724 534.4925,-204.8899"/>
<polygon fill="#0000ff" stroke="#0000ff" points="537.4872,-203.0751 529.5221,-196.0889 531.3921,-206.5174 537.4872,-203.0751"/>
<text text-anchor="middle" x="578.0456" y="-217.8" font-family="Times,serif" font-size="14.00" fill="#000000">predicate</text>
</g>
<!-- object -->
<g id="node8" class="node">
<title>object</title>
<ellipse fill="none" stroke="#0000ff" cx="565.0456" cy="-91" rx="55.4913" ry="18"/>
<text text-anchor="middle" x="565.0456" y="-87.3" font-family="Times,serif" font-size="14.00" fill="#000000">named thing</text>
</g>
<!-- sequence association&#45;&gt;object -->
<g id="edge6" class="edge">
<title>sequence association&#45;&gt;object</title>
<path fill="none" stroke="#0000ff" d="M612.9766,-247.0183C608.0907,-225.9907 599.3797,-190.2123 590.0456,-160 585.7721,-146.1679 580.3672,-131.0214 575.677,-118.4523"/>
<polygon fill="#0000ff" stroke="#0000ff" points="578.9136,-117.1158 572.1041,-108.999 572.3657,-119.5906 578.9136,-117.1158"/>
<text text-anchor="middle" x="618.0456" y="-174.3" font-family="Times,serif" font-size="14.00" fill="#000000">object</text>
</g>
<!-- relation -->
<g id="node9" class="node">
<title>relation</title>
<ellipse fill="none" stroke="#0000ff" cx="565.0456" cy="-18" rx="45.4919" ry="18"/>
<text text-anchor="middle" x="565.0456" y="-14.3" font-family="Times,serif" font-size="14.00" fill="#000000">uriorcurie</text>
</g>
<!-- sequence association&#45;&gt;relation -->
<g id="edge7" class="edge">
<title>sequence association&#45;&gt;relation</title>
<path fill="none" stroke="#0000ff" d="M624.5054,-246.9214C629.7411,-233.2141 636.2818,-213.7662 639.0456,-196 647.4763,-141.8048 654.7448,-121.4535 629.0456,-73 621.975,-59.6692 610.2337,-48.162 598.7247,-39.1691"/>
<polygon fill="#0000ff" stroke="#0000ff" points="600.5821,-36.1902 590.4555,-33.0751 596.4293,-41.8253 600.5821,-36.1902"/>
<text text-anchor="middle" x="668.0456" y="-130.8" font-family="Times,serif" font-size="14.00" fill="#000000">relation</text>
</g>
<!-- negated -->
<g id="node10" class="node">
<title>negated</title>
<ellipse fill="none" stroke="#0000ff" cx="745.0456" cy="-178" rx="38.1938" ry="18"/>
<text text-anchor="middle" x="745.0456" y="-174.3" font-family="Times,serif" font-size="14.00" fill="#000000">boolean</text>
</g>
<!-- sequence association&#45;&gt;negated -->
<g id="edge8" class="edge">
<title>sequence association&#45;&gt;negated</title>
<path fill="none" stroke="#0000ff" d="M657.0902,-249.0671C669.1148,-243.4946 682.0287,-236.684 693.0456,-229 703.9032,-221.427 714.5766,-211.5191 723.4007,-202.4524"/>
<polygon fill="#0000ff" stroke="#0000ff" points="726.0194,-204.7771 730.3414,-195.1039 720.9304,-199.9705 726.0194,-204.7771"/>
<text text-anchor="middle" x="732.5456" y="-217.8" font-family="Times,serif" font-size="14.00" fill="#000000">negated</text>
</g>
<!-- qualifiers -->
<g id="node11" class="node">
<title>qualifiers</title>
<ellipse fill="none" stroke="#0000ff" cx="863.0456" cy="-178" rx="61.99" ry="18"/>
<text text-anchor="middle" x="863.0456" y="-174.3" font-family="Times,serif" font-size="14.00" fill="#000000">ontology class</text>
</g>
<!-- sequence association&#45;&gt;qualifiers -->
<g id="edge9" class="edge">
<title>sequence association&#45;&gt;qualifiers</title>
<path fill="none" stroke="#0000ff" d="M677.5487,-252.3895C702.7867,-246.4026 732.187,-238.4704 758.0456,-229 780.8804,-220.637 805.378,-208.9088 824.9626,-198.8075"/>
<polygon fill="#0000ff" stroke="#0000ff" points="826.6308,-201.8849 833.8717,-194.1505 823.388,-195.6813 826.6308,-201.8849"/>
<text text-anchor="middle" x="820.0456" y="-217.8" font-family="Times,serif" font-size="14.00" fill="#000000">qualifiers</text>
</g>
<!-- publications -->
<g id="node12" class="node">
<title>publications</title>
<ellipse fill="none" stroke="#0000ff" cx="993.0456" cy="-178" rx="50.0912" ry="18"/>
<text text-anchor="middle" x="993.0456" y="-174.3" font-family="Times,serif" font-size="14.00" fill="#000000">publication</text>
</g>
<!-- sequence association&#45;&gt;publications -->
<g id="edge10" class="edge">
<title>sequence association&#45;&gt;publications</title>
<path fill="none" stroke="#0000ff" d="M678.479,-252.5401C688.9897,-250.5717 699.8165,-248.6458 710.0456,-247 771.9834,-237.0346 789.0387,-243.621 850.0456,-229 884.8973,-220.6474 923.0674,-206.7804 951.1994,-195.613"/>
<polygon fill="#0000ff" stroke="#0000ff" points="952.7372,-198.7671 960.7095,-191.789 950.1257,-192.2725 952.7372,-198.7671"/>
<text text-anchor="middle" x="932.5456" y="-217.8" font-family="Times,serif" font-size="14.00" fill="#000000">publications</text>
</g>
<!-- provided by -->
<g id="node13" class="node">
<title>provided by</title>
<ellipse fill="none" stroke="#0000ff" cx="1101.0456" cy="-178" rx="40.0939" ry="18"/>
<text text-anchor="middle" x="1101.0456" y="-174.3" font-family="Times,serif" font-size="14.00" fill="#000000">provider</text>
</g>
<!-- sequence association&#45;&gt;provided by -->
<g id="edge11" class="edge">
<title>sequence association&#45;&gt;provided by</title>
<path fill="none" stroke="#0000ff" d="M677.4033,-252.2088C688.2341,-250.2306 699.4464,-248.3873 710.0456,-247 824.898,-231.9667 857.0101,-254.2995 970.0456,-229 1002.9905,-221.6263 1038.5806,-207.3307 1064.3382,-195.7465"/>
<polygon fill="#0000ff" stroke="#0000ff" points="1066.0669,-198.8045 1073.7026,-191.4596 1063.1532,-192.4397 1066.0669,-198.8045"/>
<text text-anchor="middle" x="1051.0456" y="-217.8" font-family="Times,serif" font-size="14.00" fill="#000000">provided by</text>
</g>
<!-- association_id -->
<g id="node4" class="node">
<title>association_id</title>
<ellipse fill="none" stroke="#0000ff" cx="750.0456" cy="-265" rx="30.5947" ry="18"/>
<text text-anchor="middle" x="750.0456" y="-261.3" font-family="Times,serif" font-size="14.00" fill="#000000">string</text>
</g>
<!-- subject&#45;&gt;object -->
<g id="edge12" class="edge">
<title>subject&#45;&gt;object</title>
<path fill="none" stroke="#000000" d="M418.0508,-162.8458C447.7862,-148.3121 492.8198,-126.3014 525.2026,-110.4738"/>
<polygon fill="#000000" stroke="#000000" points="526.9483,-113.5163 534.3956,-105.9806 523.8744,-107.2273 526.9483,-113.5163"/>
<text text-anchor="middle" x="508.0456" y="-130.8" font-family="Times,serif" font-size="14.00" fill="#000000">relation</text>
</g>
<!-- subject&#45;&gt;relation -->
<g id="edge13" class="edge">
<title>subject&#45;&gt;relation</title>
<path fill="none" stroke="#000000" stroke-dasharray="1,5" d="M405.4277,-160.7068C427.8133,-139.7319 466.8715,-103.4061 501.0456,-73 512.9356,-62.4209 526.2591,-50.9164 537.6585,-41.1768"/>
<polygon fill="#000000" stroke="#000000" points="540.229,-43.5848 545.571,-34.4352 535.6892,-38.2565 540.229,-43.5848"/>
</g>
<!-- object&#45;&gt;relation -->
<g id="edge14" class="edge">
<title>object&#45;&gt;relation</title>
<path fill="none" stroke="#000000" stroke-dasharray="1,5" d="M565.0456,-72.9551C565.0456,-64.8828 565.0456,-55.1764 565.0456,-46.1817"/>
<polygon fill="#000000" stroke="#000000" points="568.5457,-46.0903 565.0456,-36.0904 561.5457,-46.0904 568.5457,-46.0903"/>
</g>
</g>
</svg>
