<?xml version="1.0" encoding="UTF-8" standalone="no"?>
<!DOCTYPE svg PUBLIC "-//W3C//DTD SVG 1.1//EN"
 "http://www.w3.org/Graphics/SVG/1.1/DTD/svg11.dtd">
<!-- Generated by graphviz version 2.43.0 (0)
 -->
<!-- Title: %3 Pages: 1 -->
<svg width="4830pt" height="291pt"
 viewBox="0.00 0.00 4829.74 291.00" xmlns="http://www.w3.org/2000/svg" xmlns:xlink="http://www.w3.org/1999/xlink">
<g id="graph0" class="graph" transform="scale(1 1) rotate(0) translate(4 287)">
<title>%3</title>
<polygon fill="white" stroke="transparent" points="-4,4 -4,-287 4825.74,-287 4825.74,4 -4,4"/>
<!-- sequence association -->
<g id="node1" class="node">
<title>sequence association</title>
<ellipse fill="none" stroke="black" cx="2205.39" cy="-265" rx="108.58" ry="18"/>
<text text-anchor="middle" x="2205.39" y="-261.3" font-family="Times,serif" font-size="14.00">sequence association</text>
</g>
<!-- association -->
<g id="node2" class="node">
<title>association</title>
<ellipse fill="none" stroke="black" cx="62.39" cy="-178" rx="62.29" ry="18"/>
<text text-anchor="middle" x="62.39" y="-174.3" font-family="Times,serif" font-size="14.00">association</text>
</g>
<!-- sequence association&#45;&gt;association -->
<g id="edge1" class="edge">
<title>sequence association&#45;&gt;association</title>
<path fill="none" stroke="black" d="M2096.99,-263.46C1715.27,-261.36 446.66,-252.66 265.39,-229 212.36,-222.08 153.12,-206.56 112.4,-194.63"/>
<polygon fill="black" stroke="black" points="113.29,-191.25 102.71,-191.76 111.31,-197.96 113.29,-191.25"/>
<text text-anchor="middle" x="279.39" y="-217.8" font-family="Times,serif" font-size="14.00">is_a</text>
</g>
<!-- id -->
<g id="node3" class="node">
<title>id</title>
<ellipse fill="none" stroke="blue" cx="181.39" cy="-178" rx="38.19" ry="18"/>
<text text-anchor="middle" x="181.39" y="-174.3" font-family="Times,serif" font-size="14.00">string</text>
</g>
<!-- sequence association&#45;&gt;id -->
<g id="edge2" class="edge">
<title>sequence association&#45;&gt;id</title>
<path fill="none" stroke="blue" d="M2097.25,-263.09C1731.86,-259.87 556.59,-248.13 387.39,-229 316.11,-220.94 298.47,-215.35 229.39,-196 226.29,-195.13 223.09,-194.16 219.89,-193.14"/>
<polygon fill="blue" stroke="blue" points="220.98,-189.81 210.38,-189.97 218.76,-196.46 220.98,-189.81"/>
<text text-anchor="middle" x="394.39" y="-217.8" font-family="Times,serif" font-size="14.00">id</text>
</g>
<!-- iri -->
<g id="node4" class="node">
<title>iri</title>
<ellipse fill="none" stroke="blue" cx="282.39" cy="-178" rx="44.39" ry="18"/>
<text text-anchor="middle" x="282.39" y="-174.3" font-family="Times,serif" font-size="14.00">iri type</text>
</g>
<!-- sequence association&#45;&gt;iri -->
<g id="edge3" class="edge">
<title>sequence association&#45;&gt;iri</title>
<path fill="none" stroke="blue" d="M2096.89,-264.47C1770.89,-265.46 803.42,-265.19 490.39,-229 420.43,-220.91 403.46,-214.11 335.39,-196 332.02,-195.1 328.55,-194.12 325.07,-193.1"/>
<polygon fill="blue" stroke="blue" points="325.91,-189.69 315.32,-190.13 323.87,-196.39 325.91,-189.69"/>
<text text-anchor="middle" x="498.39" y="-217.8" font-family="Times,serif" font-size="14.00">iri</text>
</g>
<!-- name -->
<g id="node5" class="node">
<title>name</title>
<ellipse fill="none" stroke="blue" cx="401.39" cy="-178" rx="56.59" ry="18"/>
<text text-anchor="middle" x="401.39" y="-174.3" font-family="Times,serif" font-size="14.00">label type</text>
</g>
<!-- sequence association&#45;&gt;name -->
<g id="edge4" class="edge">
<title>sequence association&#45;&gt;name</title>
<path fill="none" stroke="blue" d="M2097.26,-263.25C1758.01,-260.69 728.33,-251.16 579.39,-229 533.4,-222.16 482.45,-207.05 446.89,-195.22"/>
<polygon fill="blue" stroke="blue" points="447.88,-191.86 437.29,-191.98 445.64,-198.49 447.88,-191.86"/>
<text text-anchor="middle" x="599.39" y="-217.8" font-family="Times,serif" font-size="14.00">name</text>
</g>
<!-- description -->
<g id="node6" class="node">
<title>description</title>
<ellipse fill="none" stroke="blue" cx="551.39" cy="-178" rx="75.29" ry="18"/>
<text text-anchor="middle" x="551.39" y="-174.3" font-family="Times,serif" font-size="14.00">narrative text</text>
</g>
<!-- sequence association&#45;&gt;description -->
<g id="edge5" class="edge">
<title>sequence association&#45;&gt;description</title>
<path fill="none" stroke="blue" d="M2096.83,-263.89C1769.71,-263.22 807.57,-258.71 669.39,-229 641.42,-222.98 611.76,-210.39 589.18,-199.35"/>
<polygon fill="blue" stroke="blue" points="590.47,-196.08 579.96,-194.74 587.34,-202.34 590.47,-196.08"/>
<text text-anchor="middle" x="709.89" y="-217.8" font-family="Times,serif" font-size="14.00">description</text>
</g>
<!-- has attribute -->
<g id="node7" class="node">
<title>has attribute</title>
<ellipse fill="none" stroke="blue" cx="696.39" cy="-178" rx="51.99" ry="18"/>
<text text-anchor="middle" x="696.39" y="-174.3" font-family="Times,serif" font-size="14.00">attribute</text>
</g>
<!-- sequence association&#45;&gt;has attribute -->
<g id="edge6" class="edge">
<title>sequence association&#45;&gt;has attribute</title>
<path fill="none" stroke="blue" d="M2096.73,-264.13C1787.53,-264.12 917.1,-261.17 792.39,-229 769.46,-223.08 745.84,-210.87 727.77,-200"/>
<polygon fill="blue" stroke="blue" points="729.2,-196.77 718.86,-194.48 725.51,-202.72 729.2,-196.77"/>
<text text-anchor="middle" x="839.39" y="-217.8" font-family="Times,serif" font-size="14.00">has attribute</text>
</g>
<!-- deprecated -->
<g id="node8" class="node">
<title>deprecated</title>
<ellipse fill="none" stroke="blue" cx="813.39" cy="-178" rx="46.59" ry="18"/>
<text text-anchor="middle" x="813.39" y="-174.3" font-family="Times,serif" font-size="14.00">boolean</text>
</g>
<!-- sequence association&#45;&gt;deprecated -->
<g id="edge7" class="edge">
<title>sequence association&#45;&gt;deprecated</title>
<path fill="none" stroke="blue" d="M2097.29,-263.17C1811.64,-260.67 1050.99,-251.93 939.39,-229 908.05,-222.56 874.47,-208.86 849.86,-197.42"/>
<polygon fill="blue" stroke="blue" points="851.09,-194.14 840.56,-193.01 848.09,-200.46 851.09,-194.14"/>
<text text-anchor="middle" x="979.89" y="-217.8" font-family="Times,serif" font-size="14.00">deprecated</text>
</g>
<!-- subject -->
<g id="node9" class="node">
<title>subject</title>
<ellipse fill="none" stroke="blue" cx="947.39" cy="-178" rx="69.59" ry="18"/>
<text text-anchor="middle" x="947.39" y="-174.3" font-family="Times,serif" font-size="14.00">named thing</text>
</g>
<!-- sequence association&#45;&gt;subject -->
<g id="edge8" class="edge">
<title>sequence association&#45;&gt;subject</title>
<path fill="none" stroke="blue" d="M2097.47,-262.77C1834.07,-259.46 1172.65,-249.22 1074.39,-229 1043.97,-222.74 1011.4,-209.78 986.86,-198.62"/>
<polygon fill="blue" stroke="blue" points="988.08,-195.33 977.54,-194.29 985.13,-201.68 988.08,-195.33"/>
<text text-anchor="middle" x="1100.39" y="-217.8" font-family="Times,serif" font-size="14.00">subject</text>
</g>
<!-- predicate -->
<g id="node10" class="node">
<title>predicate</title>
<ellipse fill="none" stroke="blue" cx="1113.39" cy="-178" rx="77.99" ry="18"/>
<text text-anchor="middle" x="1113.39" y="-174.3" font-family="Times,serif" font-size="14.00">predicate type</text>
</g>
<!-- sequence association&#45;&gt;predicate -->
<g id="edge9" class="edge">
<title>sequence association&#45;&gt;predicate</title>
<path fill="none" stroke="blue" d="M2097.01,-263.13C1835.08,-260.66 1186.2,-252.22 1145.39,-229 1135.99,-223.65 1128.92,-214.28 1123.84,-205.08"/>
<polygon fill="blue" stroke="blue" points="1126.98,-203.53 1119.43,-196.1 1120.7,-206.62 1126.98,-203.53"/>
<text text-anchor="middle" x="1179.39" y="-217.8" font-family="Times,serif" font-size="14.00">predicate</text>
</g>
<!-- object -->
<g id="node11" class="node">
<title>object</title>
<ellipse fill="none" stroke="blue" cx="1045.39" cy="-91" rx="69.59" ry="18"/>
<text text-anchor="middle" x="1045.39" y="-87.3" font-family="Times,serif" font-size="14.00">named thing</text>
</g>
<!-- sequence association&#45;&gt;object -->
<g id="edge10" class="edge">
<title>sequence association&#45;&gt;object</title>
<path fill="none" stroke="blue" d="M2098.38,-261.74C1908.7,-257.35 1520.81,-246.52 1386.39,-229 1318.71,-220.18 1296.27,-228.78 1236.39,-196 1216.55,-185.13 1219.08,-172.77 1200.39,-160 1168.29,-138.07 1127.97,-120.64 1096.5,-108.92"/>
<polygon fill="blue" stroke="blue" points="1097.63,-105.61 1087.03,-105.47 1095.23,-112.18 1097.63,-105.61"/>
<text text-anchor="middle" x="1258.39" y="-174.3" font-family="Times,serif" font-size="14.00">object</text>
</g>
<!-- negated -->
<g id="node12" class="node">
<title>negated</title>
<ellipse fill="none" stroke="blue" cx="1336.39" cy="-178" rx="46.59" ry="18"/>
<text text-anchor="middle" x="1336.39" y="-174.3" font-family="Times,serif" font-size="14.00">boolean</text>
</g>
<!-- sequence association&#45;&gt;negated -->
<g id="edge11" class="edge">
<title>sequence association&#45;&gt;negated</title>
<path fill="none" stroke="blue" d="M2098.11,-261.91C1899.56,-257.64 1489.2,-246.79 1426.39,-229 1404.92,-222.92 1382.98,-210.87 1366.14,-200.13"/>
<polygon fill="blue" stroke="blue" points="1367.62,-196.91 1357.34,-194.34 1363.77,-202.76 1367.62,-196.91"/>
<text text-anchor="middle" x="1455.39" y="-217.8" font-family="Times,serif" font-size="14.00">negated</text>
</g>
<!-- qualifier -->
<g id="node13" class="node">
<title>qualifier</title>
<ellipse fill="none" stroke="blue" cx="1439.39" cy="-178" rx="38.19" ry="18"/>
<text text-anchor="middle" x="1439.39" y="-174.3" font-family="Times,serif" font-size="14.00">string</text>
</g>
<!-- sequence association&#45;&gt;qualifier -->
<g id="edge12" class="edge">
<title>sequence association&#45;&gt;qualifier</title>
<path fill="none" stroke="blue" d="M2098.84,-261.55C1919.62,-256.98 1572.07,-246.05 1518.39,-229 1499.13,-222.88 1479.91,-210.88 1465.25,-200.17"/>
<polygon fill="blue" stroke="blue" points="1467.27,-197.31 1457.18,-194.07 1463.05,-202.89 1467.27,-197.31"/>
<text text-anchor="middle" x="1548.39" y="-217.8" font-family="Times,serif" font-size="14.00">qualifier</text>
</g>
<!-- qualifiers -->
<g id="node14" class="node">
<title>qualifiers</title>
<ellipse fill="none" stroke="blue" cx="1572.39" cy="-178" rx="76.89" ry="18"/>
<text text-anchor="middle" x="1572.39" y="-174.3" font-family="Times,serif" font-size="14.00">ontology class</text>
</g>
<!-- sequence association&#45;&gt;qualifiers -->
<g id="edge13" class="edge">
<title>sequence association&#45;&gt;qualifiers</title>
<path fill="none" stroke="blue" d="M2096.78,-263.86C1932.22,-262.75 1634.52,-256.85 1594.39,-229 1586.58,-223.58 1581.52,-214.73 1578.24,-205.98"/>
<polygon fill="blue" stroke="blue" points="1581.55,-204.84 1575.26,-196.32 1574.86,-206.91 1581.55,-204.84"/>
<text text-anchor="middle" x="1627.89" y="-217.8" font-family="Times,serif" font-size="14.00">qualifiers</text>
</g>
<!-- publications -->
<g id="node15" class="node">
<title>publications</title>
<ellipse fill="none" stroke="blue" cx="1729.39" cy="-178" rx="62.29" ry="18"/>
<text text-anchor="middle" x="1729.39" y="-174.3" font-family="Times,serif" font-size="14.00">publication</text>
</g>
<!-- sequence association&#45;&gt;publications -->
<g id="edge14" class="edge">
<title>sequence association&#45;&gt;publications</title>
<path fill="none" stroke="blue" d="M2096.83,-264.67C1948.61,-264.43 1697.93,-259.45 1669.39,-229 1658.93,-217.83 1669.35,-206.79 1684.28,-197.94"/>
<polygon fill="blue" stroke="blue" points="1686.32,-200.82 1693.47,-193 1683,-194.66 1686.32,-200.82"/>
<text text-anchor="middle" x="1713.39" y="-217.8" font-family="Times,serif" font-size="14.00">publications</text>
</g>
<!-- has evidence -->
<g id="node16" class="node">
<title>has evidence</title>
<ellipse fill="none" stroke="blue" cx="1885.39" cy="-178" rx="75.29" ry="18"/>
<text text-anchor="middle" x="1885.39" y="-174.3" font-family="Times,serif" font-size="14.00">evidence type</text>
</g>
<!-- sequence association&#45;&gt;has evidence -->
<g id="edge15" class="edge">
<title>sequence association&#45;&gt;has evidence</title>
<path fill="none" stroke="blue" d="M2097.57,-262.93C1974.3,-260.57 1786.58,-253.01 1764.39,-229 1759.87,-224.1 1760.39,-219.33 1764.39,-214 1768.38,-208.7 1795.71,-200.58 1823.4,-193.49"/>
<polygon fill="blue" stroke="blue" points="1824.32,-196.86 1833.16,-191.03 1822.61,-190.07 1824.32,-196.86"/>
<text text-anchor="middle" x="1810.89" y="-217.8" font-family="Times,serif" font-size="14.00">has evidence</text>
</g>
<!-- knowledge source -->
<g id="node17" class="node">
<title>knowledge source</title>
<ellipse fill="none" stroke="blue" cx="2017.39" cy="-178" rx="38.19" ry="18"/>
<text text-anchor="middle" x="2017.39" y="-174.3" font-family="Times,serif" font-size="14.00">string</text>
</g>
<!-- sequence association&#45;&gt;knowledge source -->
<g id="edge16" class="edge">
<title>sequence association&#45;&gt;knowledge source</title>
<path fill="none" stroke="blue" d="M2101.3,-259.8C2010.65,-255.04 1891.4,-245.68 1876.39,-229 1830.36,-177.81 1809.21,-239.61 1969.39,-196 1972.55,-195.14 1975.8,-194.17 1979.04,-193.15"/>
<polygon fill="blue" stroke="blue" points="1980.29,-196.42 1988.68,-189.95 1978.09,-189.78 1980.29,-196.42"/>
<text text-anchor="middle" x="1940.89" y="-217.8" font-family="Times,serif" font-size="14.00">knowledge source</text>
</g>
<!-- primary knowledge source -->
<g id="node18" class="node">
<title>primary knowledge source</title>
<ellipse fill="none" stroke="blue" cx="2112.39" cy="-178" rx="38.19" ry="18"/>
<text text-anchor="middle" x="2112.39" y="-174.3" font-family="Times,serif" font-size="14.00">string</text>
</g>
<!-- sequence association&#45;&gt;primary knowledge source -->
<g id="edge17" class="edge">
<title>sequence association&#45;&gt;primary knowledge source</title>
<path fill="none" stroke="blue" d="M2106.19,-257.59C2065.52,-252.69 2025,-244.1 2012.39,-229 2008.12,-223.88 2008.53,-219.43 2012.39,-214 2026.58,-194.08 2041.31,-204.08 2064.39,-196 2067.26,-195 2070.23,-193.95 2073.21,-192.9"/>
<polygon fill="blue" stroke="blue" points="2074.44,-196.18 2082.7,-189.55 2072.11,-189.58 2074.44,-196.18"/>
<text text-anchor="middle" x="2107.39" y="-217.8" font-family="Times,serif" font-size="14.00">primary knowledge source</text>
</g>
<!-- aggregator knowledge source -->
<g id="node19" class="node">
<title>aggregator knowledge source</title>
<ellipse fill="none" stroke="blue" cx="2207.39" cy="-178" rx="38.19" ry="18"/>
<text text-anchor="middle" x="2207.39" y="-174.3" font-family="Times,serif" font-size="14.00">string</text>
</g>
<!-- sequence association&#45;&gt;aggregator knowledge source -->
<g id="edge18" class="edge">
<title>sequence association&#45;&gt;aggregator knowledge source</title>
<path fill="none" stroke="blue" d="M2205.7,-246.87C2205.88,-237.22 2206.13,-224.94 2206.39,-214 2206.46,-211.45 2206.53,-208.79 2206.6,-206.13"/>
<polygon fill="blue" stroke="blue" points="2210.1,-206.18 2206.88,-196.09 2203.1,-205.99 2210.1,-206.18"/>
<text text-anchor="middle" x="2312.89" y="-217.8" font-family="Times,serif" font-size="14.00">aggregator knowledge source</text>
</g>
<!-- timepoint -->
<g id="node20" class="node">
<title>timepoint</title>
<ellipse fill="none" stroke="blue" cx="2432.39" cy="-178" rx="55.49" ry="18"/>
<text text-anchor="middle" x="2432.39" y="-174.3" font-family="Times,serif" font-size="14.00">time type</text>
</g>
<!-- sequence association&#45;&gt;timepoint -->
<g id="edge19" class="edge">
<title>sequence association&#45;&gt;timepoint</title>
<path fill="none" stroke="blue" d="M2282.84,-252.33C2343.03,-243.1 2416.77,-231.39 2419.39,-229 2425.8,-223.16 2429.22,-214.6 2431,-206.2"/>
<polygon fill="blue" stroke="blue" points="2434.48,-206.64 2432.44,-196.24 2427.55,-205.64 2434.48,-206.64"/>
<text text-anchor="middle" x="2464.39" y="-217.8" font-family="Times,serif" font-size="14.00">timepoint</text>
</g>
<!-- original subject -->
<g id="node21" class="node">
<title>original subject</title>
<ellipse fill="none" stroke="blue" cx="2544.39" cy="-178" rx="38.19" ry="18"/>
<text text-anchor="middle" x="2544.39" y="-174.3" font-family="Times,serif" font-size="14.00">string</text>
</g>
<!-- sequence association&#45;&gt;original subject -->
<g id="edge20" class="edge">
<title>sequence association&#45;&gt;original subject</title>
<path fill="none" stroke="blue" d="M2282.77,-252.36C2296.3,-250.47 2310.25,-248.6 2323.39,-247 2363.3,-242.13 2467.96,-247.98 2503.39,-229 2514,-223.32 2522.91,-213.63 2529.69,-204.28"/>
<polygon fill="blue" stroke="blue" points="2532.64,-206.18 2535.3,-195.92 2526.82,-202.28 2532.64,-206.18"/>
<text text-anchor="middle" x="2577.39" y="-217.8" font-family="Times,serif" font-size="14.00">original subject</text>
</g>
<!-- original predicate -->
<g id="node22" class="node">
<title>original predicate</title>
<ellipse fill="none" stroke="blue" cx="2669.39" cy="-178" rx="57.39" ry="18"/>
<text text-anchor="middle" x="2669.39" y="-174.3" font-family="Times,serif" font-size="14.00">uriorcurie</text>
</g>
<!-- sequence association&#45;&gt;original predicate -->
<g id="edge21" class="edge">
<title>sequence association&#45;&gt;original predicate</title>
<path fill="none" stroke="blue" d="M2281.45,-252.06C2295.38,-250.16 2309.8,-248.37 2323.39,-247 2358.17,-243.51 2607.23,-246.65 2637.39,-229 2646.64,-223.59 2653.65,-214.34 2658.72,-205.25"/>
<polygon fill="blue" stroke="blue" points="2661.99,-206.52 2663.31,-196.01 2655.73,-203.41 2661.99,-206.52"/>
<text text-anchor="middle" x="2716.89" y="-217.8" font-family="Times,serif" font-size="14.00">original predicate</text>
</g>
<!-- original object -->
<g id="node23" class="node">
<title>original object</title>
<ellipse fill="none" stroke="blue" cx="2798.39" cy="-178" rx="38.19" ry="18"/>
<text text-anchor="middle" x="2798.39" y="-174.3" font-family="Times,serif" font-size="14.00">string</text>
</g>
<!-- sequence association&#45;&gt;original object -->
<g id="edge22" class="edge">
<title>sequence association&#45;&gt;original object</title>
<path fill="none" stroke="blue" d="M2280.48,-251.99C2294.7,-250.05 2309.48,-248.27 2323.39,-247 2348.92,-244.67 2764.28,-244.88 2784.39,-229 2791.41,-223.46 2795.09,-214.71 2796.97,-206.06"/>
<polygon fill="blue" stroke="blue" points="2800.43,-206.57 2798.44,-196.16 2793.51,-205.54 2800.43,-206.57"/>
<text text-anchor="middle" x="2846.89" y="-217.8" font-family="Times,serif" font-size="14.00">original object</text>
</g>
<!-- subject category -->
<g id="node24" class="node">
<title>subject category</title>
<ellipse fill="none" stroke="blue" cx="2931.39" cy="-178" rx="76.89" ry="18"/>
<text text-anchor="middle" x="2931.39" y="-174.3" font-family="Times,serif" font-size="14.00">ontology class</text>
</g>
<!-- sequence association&#45;&gt;subject category -->
<g id="edge23" class="edge">
<title>sequence association&#45;&gt;subject category</title>
<path fill="none" stroke="blue" d="M2280.16,-251.94C2294.48,-250 2309.37,-248.22 2323.39,-247 2355.45,-244.2 2874.76,-245.49 2902.39,-229 2911.35,-223.66 2917.81,-214.41 2922.33,-205.32"/>
<polygon fill="blue" stroke="blue" points="2925.58,-206.63 2926.36,-196.06 2919.16,-203.83 2925.58,-206.63"/>
<text text-anchor="middle" x="2976.89" y="-217.8" font-family="Times,serif" font-size="14.00">subject category</text>
</g>
<!-- object category -->
<g id="node25" class="node">
<title>object category</title>
<ellipse fill="none" stroke="blue" cx="3102.39" cy="-178" rx="76.89" ry="18"/>
<text text-anchor="middle" x="3102.39" y="-174.3" font-family="Times,serif" font-size="14.00">ontology class</text>
</g>
<!-- sequence association&#45;&gt;object category -->
<g id="edge24" class="edge">
<title>sequence association&#45;&gt;object category</title>
<path fill="none" stroke="blue" d="M2280.15,-251.87C2294.47,-249.94 2309.37,-248.18 2323.39,-247 2402.8,-240.31 2965.59,-256.47 3040.39,-229 3055.23,-223.55 3069.17,-213.01 3080.06,-203"/>
<polygon fill="blue" stroke="blue" points="3082.67,-205.35 3087.43,-195.89 3077.8,-200.32 3082.67,-205.35"/>
<text text-anchor="middle" x="3122.89" y="-217.8" font-family="Times,serif" font-size="14.00">object category</text>
</g>
<!-- subject closure -->
<g id="node26" class="node">
<title>subject closure</title>
<ellipse fill="none" stroke="blue" cx="3235.39" cy="-178" rx="38.19" ry="18"/>
<text text-anchor="middle" x="3235.39" y="-174.3" font-family="Times,serif" font-size="14.00">string</text>
</g>
<!-- sequence association&#45;&gt;subject closure -->
<g id="edge25" class="edge">
<title>sequence association&#45;&gt;subject closure</title>
<path fill="none" stroke="blue" d="M2279.83,-251.87C2294.25,-249.92 2309.26,-248.16 2323.39,-247 2370.97,-243.09 3138.22,-247.09 3182.39,-229 3195.7,-223.55 3207.63,-213.09 3216.79,-203.14"/>
<polygon fill="blue" stroke="blue" points="3219.62,-205.22 3223.52,-195.37 3214.33,-200.64 3219.62,-205.22"/>
<text text-anchor="middle" x="3260.89" y="-217.8" font-family="Times,serif" font-size="14.00">subject closure</text>
</g>
<!-- object closure -->
<g id="node27" class="node">
<title>object closure</title>
<ellipse fill="none" stroke="blue" cx="3348.39" cy="-178" rx="38.19" ry="18"/>
<text text-anchor="middle" x="3348.39" y="-174.3" font-family="Times,serif" font-size="14.00">string</text>
</g>
<!-- sequence association&#45;&gt;object closure -->
<g id="edge26" class="edge">
<title>sequence association&#45;&gt;object closure</title>
<path fill="none" stroke="blue" d="M2279.83,-251.84C2294.24,-249.89 2309.26,-248.14 2323.39,-247 2378.56,-242.55 3271.69,-257.06 3319.39,-229 3328.38,-223.71 3334.85,-214.48 3339.37,-205.38"/>
<polygon fill="blue" stroke="blue" points="3342.62,-206.67 3343.39,-196.11 3336.2,-203.89 3342.62,-206.67"/>
<text text-anchor="middle" x="3384.39" y="-217.8" font-family="Times,serif" font-size="14.00">object closure</text>
</g>
<!-- subject category closure -->
<g id="node28" class="node">
<title>subject category closure</title>
<ellipse fill="none" stroke="blue" cx="3481.39" cy="-178" rx="76.89" ry="18"/>
<text text-anchor="middle" x="3481.39" y="-174.3" font-family="Times,serif" font-size="14.00">ontology class</text>
</g>
<!-- sequence association&#45;&gt;subject category closure -->
<g id="edge27" class="edge">
<title>sequence association&#45;&gt;subject category closure</title>
<path fill="none" stroke="blue" d="M2279.83,-251.81C2294.24,-249.87 2309.26,-248.13 2323.39,-247 2385.15,-242.07 3382.3,-255.29 3438.39,-229 3449.51,-223.79 3458.85,-214.18 3465.96,-204.76"/>
<polygon fill="blue" stroke="blue" points="3469.01,-206.51 3471.85,-196.3 3463.26,-202.51 3469.01,-206.51"/>
<text text-anchor="middle" x="3545.89" y="-217.8" font-family="Times,serif" font-size="14.00">subject category closure</text>
</g>
<!-- object category closure -->
<g id="node29" class="node">
<title>object category closure</title>
<ellipse fill="none" stroke="blue" cx="3674.39" cy="-178" rx="76.89" ry="18"/>
<text text-anchor="middle" x="3674.39" y="-174.3" font-family="Times,serif" font-size="14.00">ontology class</text>
</g>
<!-- sequence association&#45;&gt;object category closure -->
<g id="edge28" class="edge">
<title>sequence association&#45;&gt;object category closure</title>
<path fill="none" stroke="blue" d="M2279.51,-251.83C2294.02,-249.87 2309.16,-248.12 2323.39,-247 2359.79,-244.14 3604.91,-245.65 3637.39,-229 3647.59,-223.77 3655.69,-214.29 3661.68,-204.98"/>
<polygon fill="blue" stroke="blue" points="3664.76,-206.65 3666.78,-196.25 3658.71,-203.12 3664.76,-206.65"/>
<text text-anchor="middle" x="3737.89" y="-217.8" font-family="Times,serif" font-size="14.00">object category closure</text>
</g>
<!-- subject namespace -->
<g id="node30" class="node">
<title>subject namespace</title>
<ellipse fill="none" stroke="blue" cx="3864.39" cy="-178" rx="38.19" ry="18"/>
<text text-anchor="middle" x="3864.39" y="-174.3" font-family="Times,serif" font-size="14.00">string</text>
</g>
<!-- sequence association&#45;&gt;subject namespace -->
<g id="edge29" class="edge">
<title>sequence association&#45;&gt;subject namespace</title>
<path fill="none" stroke="blue" d="M2279.51,-251.81C2294.02,-249.85 2309.16,-248.11 2323.39,-247 2364.99,-243.77 3788.01,-247.53 3825.39,-229 3836.12,-223.68 3844.77,-213.87 3851.17,-204.33"/>
<polygon fill="blue" stroke="blue" points="3854.17,-206.14 3856.41,-195.78 3848.2,-202.48 3854.17,-206.14"/>
<text text-anchor="middle" x="3911.39" y="-217.8" font-family="Times,serif" font-size="14.00">subject namespace</text>
</g>
<!-- object namespace -->
<g id="node31" class="node">
<title>object namespace</title>
<ellipse fill="none" stroke="blue" cx="4023.39" cy="-178" rx="38.19" ry="18"/>
<text text-anchor="middle" x="4023.39" y="-174.3" font-family="Times,serif" font-size="14.00">string</text>
</g>
<!-- sequence association&#45;&gt;object namespace -->
<g id="edge30" class="edge">
<title>sequence association&#45;&gt;object namespace</title>
<path fill="none" stroke="blue" d="M2279.51,-251.8C2294.02,-249.84 2309.16,-248.1 2323.39,-247 2369.37,-243.45 3941.94,-249.2 3983.39,-229 3994.26,-223.71 4003.11,-213.89 4009.7,-204.35"/>
<polygon fill="blue" stroke="blue" points="4012.72,-206.12 4015.1,-195.8 4006.8,-202.38 4012.72,-206.12"/>
<text text-anchor="middle" x="4066.39" y="-217.8" font-family="Times,serif" font-size="14.00">object namespace</text>
</g>
<!-- subject label closure -->
<g id="node32" class="node">
<title>subject label closure</title>
<ellipse fill="none" stroke="blue" cx="4174.39" cy="-178" rx="38.19" ry="18"/>
<text text-anchor="middle" x="4174.39" y="-174.3" font-family="Times,serif" font-size="14.00">string</text>
</g>
<!-- sequence association&#45;&gt;subject label closure -->
<g id="edge31" class="edge">
<title>sequence association&#45;&gt;subject label closure</title>
<path fill="none" stroke="blue" d="M2279.5,-251.79C2294.02,-249.83 2309.15,-248.09 2323.39,-247 2373.56,-243.15 4089.16,-251.02 4134.39,-229 4145.26,-223.71 4154.11,-213.9 4160.7,-204.35"/>
<polygon fill="blue" stroke="blue" points="4163.72,-206.13 4166.11,-195.8 4157.8,-202.39 4163.72,-206.13"/>
<text text-anchor="middle" x="4227.39" y="-217.8" font-family="Times,serif" font-size="14.00">subject label closure</text>
</g>
<!-- object label closure -->
<g id="node33" class="node">
<title>object label closure</title>
<ellipse fill="none" stroke="blue" cx="4345.39" cy="-178" rx="38.19" ry="18"/>
<text text-anchor="middle" x="4345.39" y="-174.3" font-family="Times,serif" font-size="14.00">string</text>
</g>
<!-- sequence association&#45;&gt;object label closure -->
<g id="edge32" class="edge">
<title>sequence association&#45;&gt;object label closure</title>
<path fill="none" stroke="blue" d="M2279.5,-251.78C2294.02,-249.82 2309.15,-248.09 2323.39,-247 2378.29,-242.82 4255.88,-253.08 4305.39,-229 4316.26,-223.72 4325.11,-213.9 4331.7,-204.36"/>
<polygon fill="blue" stroke="blue" points="4334.72,-206.13 4337.11,-195.81 4328.81,-202.39 4334.72,-206.13"/>
<text text-anchor="middle" x="4393.89" y="-217.8" font-family="Times,serif" font-size="14.00">object label closure</text>
</g>
<!-- retrieval source ids -->
<g id="node34" class="node">
<title>retrieval source ids</title>
<ellipse fill="none" stroke="blue" cx="4507.39" cy="-178" rx="84.49" ry="18"/>
<text text-anchor="middle" x="4507.39" y="-174.3" font-family="Times,serif" font-size="14.00">retrieval source</text>
</g>
<!-- sequence association&#45;&gt;retrieval source ids -->
<g id="edge33" class="edge">
<title>sequence association&#45;&gt;retrieval source ids</title>
<path fill="none" stroke="blue" d="M2279.5,-251.77C2294.02,-249.81 2309.15,-248.08 2323.39,-247 2382.78,-242.49 4413.82,-255.02 4467.39,-229 4478.11,-223.79 4486.87,-214.18 4493.42,-204.77"/>
<polygon fill="blue" stroke="blue" points="4496.39,-206.62 4498.82,-196.31 4490.49,-202.85 4496.39,-206.62"/>
<text text-anchor="middle" x="4555.89" y="-217.8" font-family="Times,serif" font-size="14.00">retrieval source ids</text>
</g>
<!-- type -->
<g id="node35" class="node">
<title>type</title>
<ellipse fill="none" stroke="black" cx="4669.39" cy="-178" rx="31.4" ry="18"/>
<text text-anchor="middle" x="4669.39" y="-174.3" font-family="Times,serif" font-size="14.00">type</text>
</g>
<!-- sequence association&#45;&gt;type -->
<g id="edge34" class="edge">
<title>sequence association&#45;&gt;type</title>
<path fill="none" stroke="blue" d="M2279.5,-251.76C2294.02,-249.81 2309.15,-248.08 2323.39,-247 2387.27,-242.17 4571.77,-256.97 4629.39,-229 4640.27,-223.72 4649.12,-213.91 4655.71,-204.37"/>
<polygon fill="blue" stroke="blue" points="4658.73,-206.14 4661.11,-195.81 4652.81,-202.4 4658.73,-206.14"/>
<text text-anchor="middle" x="4664.39" y="-217.8" font-family="Times,serif" font-size="14.00">type</text>
</g>
<!-- category -->
<g id="node37" class="node">
<title>category</title>
<ellipse fill="none" stroke="black" cx="4770.39" cy="-178" rx="51.19" ry="18"/>
<text text-anchor="middle" x="4770.39" y="-174.3" font-family="Times,serif" font-size="14.00">category</text>
</g>
<!-- sequence association&#45;&gt;category -->
<g id="edge35" class="edge">
<title>sequence association&#45;&gt;category</title>
<path fill="none" stroke="blue" d="M2279.5,-251.76C2294.02,-249.81 2309.15,-248.08 2323.39,-247 2388.79,-242.06 4621.14,-246.31 4684.39,-229 4705.06,-223.35 4725.88,-211.43 4741.87,-200.65"/>
<polygon fill="blue" stroke="blue" points="4744.02,-203.42 4750.22,-194.83 4740.01,-197.68 4744.02,-203.42"/>
<text text-anchor="middle" x="4750.89" y="-217.8" font-family="Times,serif" font-size="14.00">category</text>
</g>
<!-- subject&#45;&gt;object -->
<g id="edge36" class="edge">
<title>subject&#45;&gt;object</title>
<path fill="none" stroke="black" d="M966.29,-160.61C981.2,-147.68 1002.19,-129.47 1018.8,-115.07"/>
<polygon fill="black" stroke="black" points="1021.3,-117.53 1026.56,-108.34 1016.71,-112.25 1021.3,-117.53"/>
<text text-anchor="middle" x="1030.39" y="-130.8" font-family="Times,serif" font-size="14.00">relation</text>
</g>
<!-- relation -->
<g id="node39" class="node">
<title>relation</title>
<ellipse fill="none" stroke="black" cx="959.39" cy="-18" rx="46.59" ry="18"/>
<text text-anchor="middle" x="959.39" y="-14.3" font-family="Times,serif" font-size="14.00">relation</text>
</g>
<!-- subject&#45;&gt;relation -->
<g id="edge37" class="edge">
<title>subject&#45;&gt;relation</title>
<path fill="none" stroke="black" stroke-dasharray="1,5" d="M948.7,-159.79C950.78,-132.48 954.84,-78.99 957.31,-46.38"/>
<polygon fill="black" stroke="black" points="960.82,-46.42 958.09,-36.19 953.84,-45.89 960.82,-46.42"/>
</g>
<!-- object&#45;&gt;relation -->
<g id="edge38" class="edge">
<title>object&#45;&gt;relation</title>
<path fill="none" stroke="black" stroke-dasharray="1,5" d="M1025.45,-73.53C1013.81,-63.92 998.97,-51.67 986.3,-41.21"/>
<polygon fill="black" stroke="black" points="988.29,-38.31 978.35,-34.65 983.83,-43.71 988.29,-38.31"/>
</g>
<!-- association_type -->
<g id="node36" class="node">
<title>association_type</title>
<ellipse fill="none" stroke="blue" cx="2370.39" cy="-265" rx="38.19" ry="18"/>
<text text-anchor="middle" x="2370.39" y="-261.3" font-family="Times,serif" font-size="14.00">string</text>
</g>
<!-- association_category -->
<g id="node38" class="node">
<title>association_category</title>
<ellipse fill="none" stroke="blue" cx="2501.39" cy="-265" rx="74.99" ry="18"/>
<text text-anchor="middle" x="2501.39" y="-261.3" font-family="Times,serif" font-size="14.00">category type</text>
</g>
</g>
</svg>
