<?xml version="1.0" encoding="UTF-8" standalone="no"?>
<!DOCTYPE svg PUBLIC "-//W3C//DTD SVG 1.1//EN"
 "http://www.w3.org/Graphics/SVG/1.1/DTD/svg11.dtd">
<!-- Generated by graphviz version 2.43.0 (0)
 -->
<!-- Title: %3 Pages: 1 -->
<svg width="4649pt" height="291pt"
 viewBox="0.00 0.00 4648.74 291.00" xmlns="http://www.w3.org/2000/svg" xmlns:xlink="http://www.w3.org/1999/xlink">
<g id="graph0" class="graph" transform="scale(1 1) rotate(0) translate(4 287)">
<title>%3</title>
<polygon fill="white" stroke="transparent" points="-4,4 -4,-287 4644.74,-287 4644.74,4 -4,4"/>
<!-- sequence association -->
<g id="node1" class="node">
<title>sequence association</title>
<ellipse fill="none" stroke="black" cx="2260.39" cy="-265" rx="108.58" ry="18"/>
<text text-anchor="middle" x="2260.39" y="-261.3" font-family="Times,serif" font-size="14.00">sequence association</text>
</g>
<!-- association -->
<g id="node2" class="node">
<title>association</title>
<ellipse fill="none" stroke="black" cx="62.39" cy="-178" rx="62.29" ry="18"/>
<text text-anchor="middle" x="62.39" y="-174.3" font-family="Times,serif" font-size="14.00">association</text>
</g>
<!-- sequence association&#45;&gt;association -->
<g id="edge1" class="edge">
<title>sequence association&#45;&gt;association</title>
<path fill="none" stroke="black" d="M2152,-263.51C1763.4,-261.56 453.2,-253.22 266.39,-229 213.11,-222.09 153.58,-206.57 112.65,-194.64"/>
<polygon fill="black" stroke="black" points="113.5,-191.24 102.91,-191.77 111.52,-197.96 113.5,-191.24"/>
<text text-anchor="middle" x="280.39" y="-217.8" font-family="Times,serif" font-size="14.00">is_a</text>
</g>
<!-- id -->
<g id="node3" class="node">
<title>id</title>
<ellipse fill="none" stroke="blue" cx="181.39" cy="-178" rx="38.19" ry="18"/>
<text text-anchor="middle" x="181.39" y="-174.3" font-family="Times,serif" font-size="14.00">string</text>
</g>
<!-- sequence association&#45;&gt;id -->
<g id="edge2" class="edge">
<title>sequence association&#45;&gt;id</title>
<path fill="none" stroke="blue" d="M2152.35,-263.14C1780.08,-260.03 564.05,-248.48 389.39,-229 317.23,-220.95 299.34,-215.5 229.39,-196 226.29,-195.13 223.09,-194.17 219.89,-193.15"/>
<polygon fill="blue" stroke="blue" points="220.97,-189.82 210.38,-189.98 218.76,-196.46 220.97,-189.82"/>
<text text-anchor="middle" x="396.39" y="-217.8" font-family="Times,serif" font-size="14.00">id</text>
</g>
<!-- iri -->
<g id="node4" class="node">
<title>iri</title>
<ellipse fill="none" stroke="blue" cx="282.39" cy="-178" rx="44.39" ry="18"/>
<text text-anchor="middle" x="282.39" y="-174.3" font-family="Times,serif" font-size="14.00">iri type</text>
</g>
<!-- sequence association&#45;&gt;iri -->
<g id="edge3" class="edge">
<title>sequence association&#45;&gt;iri</title>
<path fill="none" stroke="blue" d="M2151.69,-264.46C1819.15,-265.44 818.63,-265.23 495.39,-229 423.24,-220.91 405.62,-214.45 335.39,-196 332.02,-195.11 328.55,-194.14 325.06,-193.12"/>
<polygon fill="blue" stroke="blue" points="325.9,-189.72 315.31,-190.16 323.87,-196.41 325.9,-189.72"/>
<text text-anchor="middle" x="503.39" y="-217.8" font-family="Times,serif" font-size="14.00">iri</text>
</g>
<!-- name -->
<g id="node5" class="node">
<title>name</title>
<ellipse fill="none" stroke="blue" cx="401.39" cy="-178" rx="56.59" ry="18"/>
<text text-anchor="middle" x="401.39" y="-174.3" font-family="Times,serif" font-size="14.00">label type</text>
</g>
<!-- sequence association&#45;&gt;name -->
<g id="edge4" class="edge">
<title>sequence association&#45;&gt;name</title>
<path fill="none" stroke="blue" d="M2152.2,-263.25C1806.34,-260.66 741.22,-250.95 587.39,-229 538.93,-222.08 485.06,-206.72 447.82,-194.84"/>
<polygon fill="blue" stroke="blue" points="448.84,-191.49 438.25,-191.75 446.69,-198.15 448.84,-191.49"/>
<text text-anchor="middle" x="607.39" y="-217.8" font-family="Times,serif" font-size="14.00">name</text>
</g>
<!-- description -->
<g id="node6" class="node">
<title>description</title>
<ellipse fill="none" stroke="blue" cx="551.39" cy="-178" rx="75.29" ry="18"/>
<text text-anchor="middle" x="551.39" y="-174.3" font-family="Times,serif" font-size="14.00">narrative text</text>
</g>
<!-- sequence association&#45;&gt;description -->
<g id="edge5" class="edge">
<title>sequence association&#45;&gt;description</title>
<path fill="none" stroke="blue" d="M2151.93,-263.72C1819.11,-262.56 826.24,-256.79 683.39,-229 651.72,-222.84 617.71,-209.79 592.14,-198.56"/>
<polygon fill="blue" stroke="blue" points="593.34,-195.26 582.78,-194.37 590.47,-201.65 593.34,-195.26"/>
<text text-anchor="middle" x="723.89" y="-217.8" font-family="Times,serif" font-size="14.00">description</text>
</g>
<!-- has attribute -->
<g id="node7" class="node">
<title>has attribute</title>
<ellipse fill="none" stroke="blue" cx="696.39" cy="-178" rx="51.99" ry="18"/>
<text text-anchor="middle" x="696.39" y="-174.3" font-family="Times,serif" font-size="14.00">attribute</text>
</g>
<!-- sequence association&#45;&gt;has attribute -->
<g id="edge6" class="edge">
<title>sequence association&#45;&gt;has attribute</title>
<path fill="none" stroke="blue" d="M2151.92,-263.7C1838.29,-262.5 944.52,-256.66 815.39,-229 786.12,-222.73 754.99,-209.39 731.92,-198.06"/>
<polygon fill="blue" stroke="blue" points="733.37,-194.88 722.87,-193.52 730.23,-201.13 733.37,-194.88"/>
<text text-anchor="middle" x="862.39" y="-217.8" font-family="Times,serif" font-size="14.00">has attribute</text>
</g>
<!-- subject -->
<g id="node8" class="node">
<title>subject</title>
<ellipse fill="none" stroke="blue" cx="836.39" cy="-178" rx="69.59" ry="18"/>
<text text-anchor="middle" x="836.39" y="-174.3" font-family="Times,serif" font-size="14.00">named thing</text>
</g>
<!-- sequence association&#45;&gt;subject -->
<g id="edge7" class="edge">
<title>sequence association&#45;&gt;subject</title>
<path fill="none" stroke="blue" d="M2152.28,-263.23C1861.71,-260.87 1078.1,-252.37 963.39,-229 932.96,-222.8 900.39,-209.84 875.85,-198.66"/>
<polygon fill="blue" stroke="blue" points="877.07,-195.37 866.53,-194.33 874.12,-201.72 877.07,-195.37"/>
<text text-anchor="middle" x="989.39" y="-217.8" font-family="Times,serif" font-size="14.00">subject</text>
</g>
<!-- predicate -->
<g id="node9" class="node">
<title>predicate</title>
<ellipse fill="none" stroke="blue" cx="1002.39" cy="-178" rx="77.99" ry="18"/>
<text text-anchor="middle" x="1002.39" y="-174.3" font-family="Times,serif" font-size="14.00">predicate type</text>
</g>
<!-- sequence association&#45;&gt;predicate -->
<g id="edge8" class="edge">
<title>sequence association&#45;&gt;predicate</title>
<path fill="none" stroke="blue" d="M2152.07,-263.64C1861.35,-262.33 1082.56,-256.26 1034.39,-229 1024.98,-223.67 1017.9,-214.3 1012.83,-205.1"/>
<polygon fill="blue" stroke="blue" points="1015.97,-203.55 1008.42,-196.12 1009.68,-206.64 1015.97,-203.55"/>
<text text-anchor="middle" x="1068.39" y="-217.8" font-family="Times,serif" font-size="14.00">predicate</text>
</g>
<!-- object -->
<g id="node10" class="node">
<title>object</title>
<ellipse fill="none" stroke="blue" cx="934.39" cy="-91" rx="69.59" ry="18"/>
<text text-anchor="middle" x="934.39" y="-87.3" font-family="Times,serif" font-size="14.00">named thing</text>
</g>
<!-- sequence association&#45;&gt;object -->
<g id="edge9" class="edge">
<title>sequence association&#45;&gt;object</title>
<path fill="none" stroke="blue" d="M2152.78,-262.27C1936.55,-258.43 1456.1,-248.01 1292.39,-229 1217.24,-220.27 1192.14,-231.62 1125.39,-196 1105.43,-185.35 1108.08,-172.77 1089.39,-160 1057.29,-138.07 1016.97,-120.64 985.5,-108.92"/>
<polygon fill="blue" stroke="blue" points="986.63,-105.61 976.03,-105.47 984.23,-112.18 986.63,-105.61"/>
<text text-anchor="middle" x="1147.39" y="-174.3" font-family="Times,serif" font-size="14.00">object</text>
</g>
<!-- negated -->
<g id="node11" class="node">
<title>negated</title>
<ellipse fill="none" stroke="blue" cx="1225.39" cy="-178" rx="46.59" ry="18"/>
<text text-anchor="middle" x="1225.39" y="-174.3" font-family="Times,serif" font-size="14.00">boolean</text>
</g>
<!-- sequence association&#45;&gt;negated -->
<g id="edge10" class="edge">
<title>sequence association&#45;&gt;negated</title>
<path fill="none" stroke="blue" d="M2151.5,-264.8C1942.7,-265.52 1493.34,-262.91 1342.39,-229 1313.54,-222.52 1282.87,-209.14 1260.17,-197.85"/>
<polygon fill="blue" stroke="blue" points="1261.46,-194.58 1250.96,-193.17 1258.29,-200.82 1261.46,-194.58"/>
<text text-anchor="middle" x="1371.39" y="-217.8" font-family="Times,serif" font-size="14.00">negated</text>
</g>
<!-- qualifiers -->
<g id="node12" class="node">
<title>qualifiers</title>
<ellipse fill="none" stroke="blue" cx="1366.39" cy="-178" rx="76.89" ry="18"/>
<text text-anchor="middle" x="1366.39" y="-174.3" font-family="Times,serif" font-size="14.00">ontology class</text>
</g>
<!-- sequence association&#45;&gt;qualifiers -->
<g id="edge11" class="edge">
<title>sequence association&#45;&gt;qualifiers</title>
<path fill="none" stroke="blue" d="M2152.02,-263.21C1941.99,-261.14 1494.3,-253.84 1428.39,-229 1413.61,-223.43 1399.67,-212.87 1388.77,-202.88"/>
<polygon fill="blue" stroke="blue" points="1391.03,-200.21 1381.4,-195.8 1386.18,-205.25 1391.03,-200.21"/>
<text text-anchor="middle" x="1461.89" y="-217.8" font-family="Times,serif" font-size="14.00">qualifiers</text>
</g>
<!-- publications -->
<g id="node13" class="node">
<title>publications</title>
<ellipse fill="none" stroke="blue" cx="1523.39" cy="-178" rx="62.29" ry="18"/>
<text text-anchor="middle" x="1523.39" y="-174.3" font-family="Times,serif" font-size="14.00">publication</text>
</g>
<!-- sequence association&#45;&gt;publications -->
<g id="edge12" class="edge">
<title>sequence association&#45;&gt;publications</title>
<path fill="none" stroke="blue" d="M2152.57,-262.9C1948.8,-260.28 1525.43,-252.07 1503.39,-229 1496.88,-222.17 1498.61,-212.96 1503.1,-204.3"/>
<polygon fill="blue" stroke="blue" points="1506.2,-205.93 1508.54,-195.6 1500.27,-202.22 1506.2,-205.93"/>
<text text-anchor="middle" x="1547.39" y="-217.8" font-family="Times,serif" font-size="14.00">publications</text>
</g>
<!-- has evidence -->
<g id="node14" class="node">
<title>has evidence</title>
<ellipse fill="none" stroke="blue" cx="1679.39" cy="-178" rx="75.29" ry="18"/>
<text text-anchor="middle" x="1679.39" y="-174.3" font-family="Times,serif" font-size="14.00">evidence type</text>
</g>
<!-- sequence association&#45;&gt;has evidence -->
<g id="edge13" class="edge">
<title>sequence association&#45;&gt;has evidence</title>
<path fill="none" stroke="blue" d="M2153.19,-262.13C1970.85,-258.43 1618.11,-248.74 1599.39,-229 1586.49,-215.4 1601.12,-203.96 1621.25,-195.48"/>
<polygon fill="blue" stroke="blue" points="1622.73,-198.66 1630.8,-191.79 1620.21,-192.13 1622.73,-198.66"/>
<text text-anchor="middle" x="1645.89" y="-217.8" font-family="Times,serif" font-size="14.00">has evidence</text>
</g>
<!-- knowledge source -->
<g id="node15" class="node">
<title>knowledge source</title>
<ellipse fill="none" stroke="blue" cx="1811.39" cy="-178" rx="38.19" ry="18"/>
<text text-anchor="middle" x="1811.39" y="-174.3" font-family="Times,serif" font-size="14.00">string</text>
</g>
<!-- sequence association&#45;&gt;knowledge source -->
<g id="edge14" class="edge">
<title>sequence association&#45;&gt;knowledge source</title>
<path fill="none" stroke="blue" d="M2154.26,-261.08C1995.93,-256.21 1714.71,-245.3 1699.39,-229 1694.83,-224.14 1695.37,-219.31 1699.39,-214 1717.24,-190.45 1735.23,-204.94 1763.39,-196 1766.33,-195.07 1769.36,-194.07 1772.4,-193.05"/>
<polygon fill="blue" stroke="blue" points="1773.73,-196.3 1782.05,-189.74 1771.46,-189.68 1773.73,-196.3"/>
<text text-anchor="middle" x="1763.89" y="-217.8" font-family="Times,serif" font-size="14.00">knowledge source</text>
</g>
<!-- primary knowledge source -->
<g id="node16" class="node">
<title>primary knowledge source</title>
<ellipse fill="none" stroke="blue" cx="1906.39" cy="-178" rx="38.19" ry="18"/>
<text text-anchor="middle" x="1906.39" y="-174.3" font-family="Times,serif" font-size="14.00">string</text>
</g>
<!-- sequence association&#45;&gt;primary knowledge source -->
<g id="edge15" class="edge">
<title>sequence association&#45;&gt;primary knowledge source</title>
<path fill="none" stroke="blue" d="M2152.79,-262.57C2033.96,-259.84 1856.52,-251.94 1835.39,-229 1830.88,-224.1 1831.87,-219.66 1835.39,-214 1839.41,-207.54 1853.24,-200.12 1867.64,-193.78"/>
<polygon fill="blue" stroke="blue" points="1869.24,-196.9 1877.09,-189.79 1866.51,-190.45 1869.24,-196.9"/>
<text text-anchor="middle" x="1930.39" y="-217.8" font-family="Times,serif" font-size="14.00">primary knowledge source</text>
</g>
<!-- aggregator knowledge source -->
<g id="node17" class="node">
<title>aggregator knowledge source</title>
<ellipse fill="none" stroke="blue" cx="2024.39" cy="-178" rx="38.19" ry="18"/>
<text text-anchor="middle" x="2024.39" y="-174.3" font-family="Times,serif" font-size="14.00">string</text>
</g>
<!-- sequence association&#45;&gt;aggregator knowledge source -->
<g id="edge16" class="edge">
<title>sequence association&#45;&gt;aggregator knowledge source</title>
<path fill="none" stroke="blue" d="M2158.91,-258.53C2109.33,-253.83 2056.5,-245.11 2038.39,-229 2031.88,-223.21 2028.29,-214.66 2026.35,-206.26"/>
<polygon fill="blue" stroke="blue" points="2029.78,-205.58 2024.7,-196.29 2022.88,-206.72 2029.78,-205.58"/>
<text text-anchor="middle" x="2144.89" y="-217.8" font-family="Times,serif" font-size="14.00">aggregator knowledge source</text>
</g>
<!-- timepoint -->
<g id="node18" class="node">
<title>timepoint</title>
<ellipse fill="none" stroke="blue" cx="2250.39" cy="-178" rx="55.49" ry="18"/>
<text text-anchor="middle" x="2250.39" y="-174.3" font-family="Times,serif" font-size="14.00">time type</text>
</g>
<!-- sequence association&#45;&gt;timepoint -->
<g id="edge17" class="edge">
<title>sequence association&#45;&gt;timepoint</title>
<path fill="none" stroke="blue" d="M2258.37,-246.8C2257,-235.16 2255.16,-219.55 2253.6,-206.24"/>
<polygon fill="blue" stroke="blue" points="2257.06,-205.7 2252.42,-196.18 2250.11,-206.52 2257.06,-205.7"/>
<text text-anchor="middle" x="2291.39" y="-217.8" font-family="Times,serif" font-size="14.00">timepoint</text>
</g>
<!-- original subject -->
<g id="node19" class="node">
<title>original subject</title>
<ellipse fill="none" stroke="blue" cx="2362.39" cy="-178" rx="38.19" ry="18"/>
<text text-anchor="middle" x="2362.39" y="-174.3" font-family="Times,serif" font-size="14.00">string</text>
</g>
<!-- sequence association&#45;&gt;original subject -->
<g id="edge18" class="edge">
<title>sequence association&#45;&gt;original subject</title>
<path fill="none" stroke="blue" d="M2301.24,-248.17C2311.46,-243.03 2321.91,-236.63 2330.39,-229 2337.93,-222.22 2344.41,-213.26 2349.52,-204.8"/>
<polygon fill="blue" stroke="blue" points="2352.65,-206.38 2354.51,-195.95 2346.55,-202.94 2352.65,-206.38"/>
<text text-anchor="middle" x="2399.39" y="-217.8" font-family="Times,serif" font-size="14.00">original subject</text>
</g>
<!-- original predicate -->
<g id="node20" class="node">
<title>original predicate</title>
<ellipse fill="none" stroke="blue" cx="2488.39" cy="-178" rx="57.39" ry="18"/>
<text text-anchor="middle" x="2488.39" y="-174.3" font-family="Times,serif" font-size="14.00">uriorcurie</text>
</g>
<!-- sequence association&#45;&gt;original predicate -->
<g id="edge19" class="edge">
<title>sequence association&#45;&gt;original predicate</title>
<path fill="none" stroke="blue" d="M2336.69,-252.11C2390.6,-243.46 2454.16,-232.65 2459.39,-229 2467.73,-223.18 2474.01,-214.13 2478.56,-205.32"/>
<polygon fill="blue" stroke="blue" points="2481.84,-206.57 2482.83,-196.02 2475.47,-203.65 2481.84,-206.57"/>
<text text-anchor="middle" x="2536.89" y="-217.8" font-family="Times,serif" font-size="14.00">original predicate</text>
</g>
<!-- original object -->
<g id="node21" class="node">
<title>original object</title>
<ellipse fill="none" stroke="blue" cx="2622.39" cy="-178" rx="38.19" ry="18"/>
<text text-anchor="middle" x="2622.39" y="-174.3" font-family="Times,serif" font-size="14.00">string</text>
</g>
<!-- sequence association&#45;&gt;original object -->
<g id="edge20" class="edge">
<title>sequence association&#45;&gt;original object</title>
<path fill="none" stroke="blue" d="M2337.11,-252.23C2350.84,-250.33 2365.02,-248.49 2378.39,-247 2403.43,-244.2 2584.38,-244.29 2604.39,-229 2611.67,-223.44 2616.01,-214.69 2618.59,-206.05"/>
<polygon fill="blue" stroke="blue" points="2622.04,-206.68 2620.9,-196.15 2615.22,-205.1 2622.04,-206.68"/>
<text text-anchor="middle" x="2667.89" y="-217.8" font-family="Times,serif" font-size="14.00">original object</text>
</g>
<!-- subject category -->
<g id="node22" class="node">
<title>subject category</title>
<ellipse fill="none" stroke="blue" cx="2755.39" cy="-178" rx="76.89" ry="18"/>
<text text-anchor="middle" x="2755.39" y="-174.3" font-family="Times,serif" font-size="14.00">ontology class</text>
</g>
<!-- sequence association&#45;&gt;subject category -->
<g id="edge21" class="edge">
<title>sequence association&#45;&gt;subject category</title>
<path fill="none" stroke="blue" d="M2336.13,-252.05C2350.15,-250.13 2364.7,-248.34 2378.39,-247 2416.6,-243.26 2690.21,-248.3 2723.39,-229 2732.65,-223.62 2739.67,-214.37 2744.73,-205.27"/>
<polygon fill="blue" stroke="blue" points="2748.01,-206.54 2749.32,-196.03 2741.74,-203.43 2748.01,-206.54"/>
<text text-anchor="middle" x="2798.89" y="-217.8" font-family="Times,serif" font-size="14.00">subject category</text>
</g>
<!-- object category -->
<g id="node23" class="node">
<title>object category</title>
<ellipse fill="none" stroke="blue" cx="2926.39" cy="-178" rx="76.89" ry="18"/>
<text text-anchor="middle" x="2926.39" y="-174.3" font-family="Times,serif" font-size="14.00">ontology class</text>
</g>
<!-- sequence association&#45;&gt;object category -->
<g id="edge22" class="edge">
<title>sequence association&#45;&gt;object category</title>
<path fill="none" stroke="blue" d="M2335.48,-251.97C2349.7,-250.03 2364.48,-248.26 2378.39,-247 2431.99,-242.16 2811.85,-247.46 2862.39,-229 2877.53,-223.47 2891.9,-212.92 2903.18,-202.93"/>
<polygon fill="blue" stroke="blue" points="2905.87,-205.2 2910.81,-195.83 2901.11,-200.08 2905.87,-205.2"/>
<text text-anchor="middle" x="2945.89" y="-217.8" font-family="Times,serif" font-size="14.00">object category</text>
</g>
<!-- subject closure -->
<g id="node24" class="node">
<title>subject closure</title>
<ellipse fill="none" stroke="blue" cx="3059.39" cy="-178" rx="38.19" ry="18"/>
<text text-anchor="middle" x="3059.39" y="-174.3" font-family="Times,serif" font-size="14.00">string</text>
</g>
<!-- sequence association&#45;&gt;subject closure -->
<g id="edge23" class="edge">
<title>sequence association&#45;&gt;subject closure</title>
<path fill="none" stroke="blue" d="M2335.15,-251.91C2349.47,-249.97 2364.37,-248.21 2378.39,-247 2447.83,-241.02 2940.88,-255.36 3005.39,-229 3018.83,-223.51 3030.98,-213.04 3040.34,-203.1"/>
<polygon fill="blue" stroke="blue" points="3043.2,-205.15 3047.21,-195.34 3037.96,-200.5 3043.2,-205.15"/>
<text text-anchor="middle" x="3083.89" y="-217.8" font-family="Times,serif" font-size="14.00">subject closure</text>
</g>
<!-- object closure -->
<g id="node25" class="node">
<title>object closure</title>
<ellipse fill="none" stroke="blue" cx="3167.39" cy="-178" rx="38.19" ry="18"/>
<text text-anchor="middle" x="3167.39" y="-174.3" font-family="Times,serif" font-size="14.00">string</text>
</g>
<!-- sequence association&#45;&gt;object closure -->
<g id="edge24" class="edge">
<title>sequence association&#45;&gt;object closure</title>
<path fill="none" stroke="blue" d="M2334.83,-251.9C2349.25,-249.95 2364.27,-248.18 2378.39,-247 2420.7,-243.47 3106.54,-251.74 3142.39,-229 3150.82,-223.65 3156.51,-214.54 3160.3,-205.54"/>
<polygon fill="blue" stroke="blue" points="3163.64,-206.61 3163.71,-196.01 3157.05,-204.25 3163.64,-206.61"/>
<text text-anchor="middle" x="3206.39" y="-217.8" font-family="Times,serif" font-size="14.00">object closure</text>
</g>
<!-- subject category closure -->
<g id="node26" class="node">
<title>subject category closure</title>
<ellipse fill="none" stroke="blue" cx="3300.39" cy="-178" rx="76.89" ry="18"/>
<text text-anchor="middle" x="3300.39" y="-174.3" font-family="Times,serif" font-size="14.00">ontology class</text>
</g>
<!-- sequence association&#45;&gt;subject category closure -->
<g id="edge25" class="edge">
<title>sequence association&#45;&gt;subject category closure</title>
<path fill="none" stroke="blue" d="M2334.83,-251.86C2349.25,-249.91 2364.26,-248.16 2378.39,-247 2427.24,-243 3216.44,-250.68 3260.39,-229 3271.08,-223.73 3279.83,-214.11 3286.39,-204.7"/>
<polygon fill="blue" stroke="blue" points="3289.36,-206.56 3291.8,-196.25 3283.46,-202.79 3289.36,-206.56"/>
<text text-anchor="middle" x="3365.89" y="-217.8" font-family="Times,serif" font-size="14.00">subject category closure</text>
</g>
<!-- object category closure -->
<g id="node27" class="node">
<title>object category closure</title>
<ellipse fill="none" stroke="blue" cx="3493.39" cy="-178" rx="76.89" ry="18"/>
<text text-anchor="middle" x="3493.39" y="-174.3" font-family="Times,serif" font-size="14.00">ontology class</text>
</g>
<!-- sequence association&#45;&gt;object category closure -->
<g id="edge26" class="edge">
<title>sequence association&#45;&gt;object category closure</title>
<path fill="none" stroke="blue" d="M2334.83,-251.82C2349.24,-249.87 2364.26,-248.13 2378.39,-247 2438.16,-242.22 3404.26,-256.78 3457.39,-229 3467.45,-223.74 3475.36,-214.25 3481.16,-204.95"/>
<polygon fill="blue" stroke="blue" points="3484.22,-206.65 3486.09,-196.22 3478.13,-203.21 3484.22,-206.65"/>
<text text-anchor="middle" x="3557.89" y="-217.8" font-family="Times,serif" font-size="14.00">object category closure</text>
</g>
<!-- subject namespace -->
<g id="node28" class="node">
<title>subject namespace</title>
<ellipse fill="none" stroke="blue" cx="3683.39" cy="-178" rx="38.19" ry="18"/>
<text text-anchor="middle" x="3683.39" y="-174.3" font-family="Times,serif" font-size="14.00">string</text>
</g>
<!-- sequence association&#45;&gt;subject namespace -->
<g id="edge27" class="edge">
<title>sequence association&#45;&gt;subject namespace</title>
<path fill="none" stroke="blue" d="M2334.51,-251.84C2349.02,-249.87 2364.16,-248.12 2378.39,-247 2413.48,-244.23 3613.97,-244.86 3645.39,-229 3655.87,-223.71 3664.25,-214.03 3670.45,-204.59"/>
<polygon fill="blue" stroke="blue" points="3673.6,-206.14 3675.72,-195.76 3667.59,-202.56 3673.6,-206.14"/>
<text text-anchor="middle" x="3731.39" y="-217.8" font-family="Times,serif" font-size="14.00">subject namespace</text>
</g>
<!-- object namespace -->
<g id="node29" class="node">
<title>object namespace</title>
<ellipse fill="none" stroke="blue" cx="3842.39" cy="-178" rx="38.19" ry="18"/>
<text text-anchor="middle" x="3842.39" y="-174.3" font-family="Times,serif" font-size="14.00">string</text>
</g>
<!-- sequence association&#45;&gt;object namespace -->
<g id="edge28" class="edge">
<title>sequence association&#45;&gt;object namespace</title>
<path fill="none" stroke="blue" d="M2334.51,-251.82C2349.02,-249.86 2364.16,-248.11 2378.39,-247 2417.86,-243.92 3767.93,-246.59 3803.39,-229 3814.12,-223.68 3822.77,-213.86 3829.17,-204.32"/>
<polygon fill="blue" stroke="blue" points="3832.16,-206.14 3834.41,-195.78 3826.2,-202.47 3832.16,-206.14"/>
<text text-anchor="middle" x="3885.39" y="-217.8" font-family="Times,serif" font-size="14.00">object namespace</text>
</g>
<!-- subject label closure -->
<g id="node30" class="node">
<title>subject label closure</title>
<ellipse fill="none" stroke="blue" cx="3993.39" cy="-178" rx="38.19" ry="18"/>
<text text-anchor="middle" x="3993.39" y="-174.3" font-family="Times,serif" font-size="14.00">string</text>
</g>
<!-- sequence association&#45;&gt;subject label closure -->
<g id="edge29" class="edge">
<title>sequence association&#45;&gt;subject label closure</title>
<path fill="none" stroke="blue" d="M2334.51,-251.8C2349.02,-249.85 2364.16,-248.1 2378.39,-247 2422.02,-243.62 3914.07,-248.18 3953.39,-229 3964.26,-223.7 3973.11,-213.89 3979.7,-204.35"/>
<polygon fill="blue" stroke="blue" points="3982.71,-206.12 3985.1,-195.8 3976.8,-202.38 3982.71,-206.12"/>
<text text-anchor="middle" x="4046.39" y="-217.8" font-family="Times,serif" font-size="14.00">subject label closure</text>
</g>
<!-- object label closure -->
<g id="node31" class="node">
<title>object label closure</title>
<ellipse fill="none" stroke="blue" cx="4164.39" cy="-178" rx="38.19" ry="18"/>
<text text-anchor="middle" x="4164.39" y="-174.3" font-family="Times,serif" font-size="14.00">string</text>
</g>
<!-- sequence association&#45;&gt;object label closure -->
<g id="edge30" class="edge">
<title>sequence association&#45;&gt;object label closure</title>
<path fill="none" stroke="blue" d="M2334.5,-251.79C2349.02,-249.83 2364.16,-248.09 2378.39,-247 2426.75,-243.28 4080.79,-250.24 4124.39,-229 4135.26,-223.71 4144.11,-213.89 4150.7,-204.35"/>
<polygon fill="blue" stroke="blue" points="4153.72,-206.13 4156.11,-195.8 4147.8,-202.38 4153.72,-206.13"/>
<text text-anchor="middle" x="4212.89" y="-217.8" font-family="Times,serif" font-size="14.00">object label closure</text>
</g>
<!-- retrieval source ids -->
<g id="node32" class="node">
<title>retrieval source ids</title>
<ellipse fill="none" stroke="blue" cx="4326.39" cy="-178" rx="84.49" ry="18"/>
<text text-anchor="middle" x="4326.39" y="-174.3" font-family="Times,serif" font-size="14.00">retrieval source</text>
</g>
<!-- sequence association&#45;&gt;retrieval source ids -->
<g id="edge31" class="edge">
<title>sequence association&#45;&gt;retrieval source ids</title>
<path fill="none" stroke="blue" d="M2334.5,-251.78C2349.02,-249.82 2364.15,-248.09 2378.39,-247 2431.24,-242.96 4238.73,-252.19 4286.39,-229 4297.11,-223.79 4305.86,-214.17 4312.42,-204.76"/>
<polygon fill="blue" stroke="blue" points="4315.39,-206.61 4317.82,-196.3 4309.49,-202.85 4315.39,-206.61"/>
<text text-anchor="middle" x="4374.89" y="-217.8" font-family="Times,serif" font-size="14.00">retrieval source ids</text>
</g>
<!-- type -->
<g id="node33" class="node">
<title>type</title>
<ellipse fill="none" stroke="black" cx="4488.39" cy="-178" rx="31.4" ry="18"/>
<text text-anchor="middle" x="4488.39" y="-174.3" font-family="Times,serif" font-size="14.00">type</text>
</g>
<!-- sequence association&#45;&gt;type -->
<g id="edge32" class="edge">
<title>sequence association&#45;&gt;type</title>
<path fill="none" stroke="blue" d="M2334.5,-251.77C2349.02,-249.82 2364.15,-248.08 2378.39,-247 2435.73,-242.64 4396.68,-254.13 4448.39,-229 4459.26,-223.72 4468.12,-213.9 4474.7,-204.36"/>
<polygon fill="blue" stroke="blue" points="4477.72,-206.13 4480.11,-195.81 4471.81,-202.39 4477.72,-206.13"/>
<text text-anchor="middle" x="4483.39" y="-217.8" font-family="Times,serif" font-size="14.00">type</text>
</g>
<!-- category -->
<g id="node35" class="node">
<title>category</title>
<ellipse fill="none" stroke="black" cx="4589.39" cy="-178" rx="51.19" ry="18"/>
<text text-anchor="middle" x="4589.39" y="-174.3" font-family="Times,serif" font-size="14.00">category</text>
</g>
<!-- sequence association&#45;&gt;category -->
<g id="edge33" class="edge">
<title>sequence association&#45;&gt;category</title>
<path fill="none" stroke="blue" d="M2334.5,-251.77C2349.02,-249.81 2364.15,-248.08 2378.39,-247 2496.12,-238.06 4389.54,-260.21 4503.39,-229 4524.05,-223.34 4544.88,-211.42 4560.87,-200.65"/>
<polygon fill="blue" stroke="blue" points="4563.01,-203.42 4569.21,-194.82 4559.01,-197.67 4563.01,-203.42"/>
<text text-anchor="middle" x="4569.89" y="-217.8" font-family="Times,serif" font-size="14.00">category</text>
</g>
<!-- subject&#45;&gt;object -->
<g id="edge34" class="edge">
<title>subject&#45;&gt;object</title>
<path fill="none" stroke="black" d="M855.29,-160.61C870.2,-147.68 891.19,-129.47 907.8,-115.07"/>
<polygon fill="black" stroke="black" points="910.3,-117.53 915.56,-108.34 905.71,-112.25 910.3,-117.53"/>
<text text-anchor="middle" x="919.39" y="-130.8" font-family="Times,serif" font-size="14.00">relation</text>
</g>
<!-- relation -->
<g id="node37" class="node">
<title>relation</title>
<ellipse fill="none" stroke="black" cx="848.39" cy="-18" rx="46.59" ry="18"/>
<text text-anchor="middle" x="848.39" y="-14.3" font-family="Times,serif" font-size="14.00">relation</text>
</g>
<!-- subject&#45;&gt;relation -->
<g id="edge35" class="edge">
<title>subject&#45;&gt;relation</title>
<path fill="none" stroke="black" stroke-dasharray="1,5" d="M837.7,-159.79C839.78,-132.48 843.84,-78.99 846.31,-46.38"/>
<polygon fill="black" stroke="black" points="849.82,-46.42 847.09,-36.19 842.84,-45.89 849.82,-46.42"/>
</g>
<!-- object&#45;&gt;relation -->
<g id="edge36" class="edge">
<title>object&#45;&gt;relation</title>
<path fill="none" stroke="black" stroke-dasharray="1,5" d="M914.45,-73.53C902.81,-63.92 887.97,-51.67 875.3,-41.21"/>
<polygon fill="black" stroke="black" points="877.29,-38.31 867.35,-34.65 872.83,-43.71 877.29,-38.31"/>
</g>
<!-- association_type -->
<g id="node34" class="node">
<title>association_type</title>
<ellipse fill="none" stroke="blue" cx="2425.39" cy="-265" rx="38.19" ry="18"/>
<text text-anchor="middle" x="2425.39" y="-261.3" font-family="Times,serif" font-size="14.00">string</text>
</g>
<!-- association_category -->
<g id="node36" class="node">
<title>association_category</title>
<ellipse fill="none" stroke="blue" cx="2556.39" cy="-265" rx="74.99" ry="18"/>
<text text-anchor="middle" x="2556.39" y="-261.3" font-family="Times,serif" font-size="14.00">category type</text>
</g>
</g>
</svg>
