<?xml version="1.0" encoding="UTF-8" standalone="no"?>
<!DOCTYPE svg PUBLIC "-//W3C//DTD SVG 1.1//EN"
 "http://www.w3.org/Graphics/SVG/1.1/DTD/svg11.dtd">
<!-- Generated by graphviz version 2.44.1 (20200629.0846)
 -->
<!-- Pages: 1 -->
<svg width="1707pt" height="291pt"
 viewBox="0.00 0.00 1706.99 291.00" xmlns="http://www.w3.org/2000/svg" xmlns:xlink="http://www.w3.org/1999/xlink">
<g id="graph0" class="graph" transform="scale(1 1) rotate(0) translate(4 287)">
<polygon fill="white" stroke="transparent" points="-4,4 -4,-287 1702.99,-287 1702.99,4 -4,4"/>
<!-- sequence association -->
<g id="node1" class="node">
<title>sequence association</title>
<ellipse fill="none" stroke="black" cx="871.05" cy="-265" rx="84.49" ry="18"/>
<text text-anchor="middle" x="871.05" y="-261.3" font-family="Times,serif" font-size="14.00">sequence association</text>
</g>
<!-- association -->
<g id="node2" class="node">
<title>association</title>
<ellipse fill="none" stroke="black" cx="50.05" cy="-178" rx="50.09" ry="18"/>
<text text-anchor="middle" x="50.05" y="-174.3" font-family="Times,serif" font-size="14.00">association</text>
</g>
<!-- sequence association&#45;&gt;association -->
<g id="edge1" class="edge">
<title>sequence association&#45;&gt;association</title>
<path fill="none" stroke="black" d="M787.74,-261.86C638.03,-257.61 329.2,-246.97 223.05,-229 178.16,-221.4 128.36,-206.27 93.76,-194.63"/>
<polygon fill="black" stroke="black" points="94.57,-191.21 83.98,-191.3 92.31,-197.84 94.57,-191.21"/>
<text text-anchor="middle" x="234.05" y="-217.8" font-family="Times,serif" font-size="14.00">is_a</text>
</g>
<!-- id -->
<g id="node3" class="node">
<title>id</title>
<ellipse fill="none" stroke="blue" cx="149.05" cy="-178" rx="30.59" ry="18"/>
<text text-anchor="middle" x="149.05" y="-174.3" font-family="Times,serif" font-size="14.00">string</text>
</g>
<!-- sequence association&#45;&gt;id -->
<g id="edge2" class="edge">
<title>sequence association&#45;&gt;id</title>
<path fill="none" stroke="blue" d="M786.86,-262.97C679.72,-260.64 489.2,-253.15 328.05,-229 265.25,-219.59 249.37,-215.82 189.05,-196 186.66,-195.22 184.22,-194.35 181.78,-193.44"/>
<polygon fill="blue" stroke="blue" points="183.07,-190.18 172.48,-189.74 180.48,-196.68 183.07,-190.18"/>
<text text-anchor="middle" x="333.55" y="-217.8" font-family="Times,serif" font-size="14.00">id</text>
</g>
<!-- iri -->
<g id="node4" class="node">
<title>iri</title>
<ellipse fill="none" stroke="blue" cx="234.05" cy="-178" rx="36.29" ry="18"/>
<text text-anchor="middle" x="234.05" y="-174.3" font-family="Times,serif" font-size="14.00">iri type</text>
</g>
<!-- sequence association&#45;&gt;iri -->
<g id="edge3" class="edge">
<title>sequence association&#45;&gt;iri</title>
<path fill="none" stroke="blue" d="M787.97,-261.63C696.39,-258.08 544.96,-249.46 416.05,-229 354.62,-219.25 339.54,-214.14 280.05,-196 277.13,-195.11 274.12,-194.14 271.12,-193.12"/>
<polygon fill="blue" stroke="blue" points="272.19,-189.79 261.6,-189.77 269.87,-196.39 272.19,-189.79"/>
<text text-anchor="middle" x="422.55" y="-217.8" font-family="Times,serif" font-size="14.00">iri</text>
</g>
<!-- name -->
<g id="node5" class="node">
<title>name</title>
<ellipse fill="none" stroke="blue" cx="334.05" cy="-178" rx="45.49" ry="18"/>
<text text-anchor="middle" x="334.05" y="-174.3" font-family="Times,serif" font-size="14.00">label type</text>
</g>
<!-- sequence association&#45;&gt;name -->
<g id="edge4" class="edge">
<title>sequence association&#45;&gt;name</title>
<path fill="none" stroke="blue" d="M787.71,-261.73C709.6,-258.34 589.91,-249.92 488.05,-229 448.66,-220.91 405.22,-206.26 374.54,-194.89"/>
<polygon fill="blue" stroke="blue" points="375.65,-191.57 365.05,-191.33 373.19,-198.12 375.65,-191.57"/>
<text text-anchor="middle" x="503.55" y="-217.8" font-family="Times,serif" font-size="14.00">name</text>
</g>
<!-- description -->
<g id="node6" class="node">
<title>description</title>
<ellipse fill="none" stroke="blue" cx="455.05" cy="-178" rx="57.69" ry="18"/>
<text text-anchor="middle" x="455.05" y="-174.3" font-family="Times,serif" font-size="14.00">narrative text</text>
</g>
<!-- sequence association&#45;&gt;description -->
<g id="edge5" class="edge">
<title>sequence association&#45;&gt;description</title>
<path fill="none" stroke="blue" d="M787.67,-261.85C724.67,-258.49 636.61,-250.04 562.05,-229 537.06,-221.95 510.62,-209.64 490.27,-199.01"/>
<polygon fill="blue" stroke="blue" points="491.85,-195.88 481.38,-194.26 488.55,-202.06 491.85,-195.88"/>
<text text-anchor="middle" x="592.55" y="-217.8" font-family="Times,serif" font-size="14.00">description</text>
</g>
<!-- source -->
<g id="node7" class="node">
<title>source</title>
<ellipse fill="none" stroke="blue" cx="576.05" cy="-178" rx="45.49" ry="18"/>
<text text-anchor="middle" x="576.05" y="-174.3" font-family="Times,serif" font-size="14.00">label type</text>
</g>
<!-- sequence association&#45;&gt;source -->
<g id="edge6" class="edge">
<title>sequence association&#45;&gt;source</title>
<path fill="none" stroke="blue" d="M792.14,-258.51C750.9,-253.81 700.16,-245.11 657.05,-229 638.28,-221.99 619.13,-210.41 604.16,-200.16"/>
<polygon fill="blue" stroke="blue" points="606.06,-197.21 595.86,-194.32 602.03,-202.94 606.06,-197.21"/>
<text text-anchor="middle" x="675.05" y="-217.8" font-family="Times,serif" font-size="14.00">source</text>
</g>
<!-- provided by -->
<g id="node8" class="node">
<title>provided by</title>
<ellipse fill="none" stroke="blue" cx="669.05" cy="-178" rx="29.8" ry="18"/>
<text text-anchor="middle" x="669.05" y="-174.3" font-family="Times,serif" font-size="14.00">agent</text>
</g>
<!-- sequence association&#45;&gt;provided by -->
<g id="edge7" class="edge">
<title>sequence association&#45;&gt;provided by</title>
<path fill="none" stroke="blue" d="M796.22,-256.62C769.31,-251.6 739.56,-243.16 715.05,-229 703.83,-222.52 693.77,-212.4 685.94,-202.95"/>
<polygon fill="blue" stroke="blue" points="688.58,-200.65 679.66,-194.93 683.07,-204.96 688.58,-200.65"/>
<text text-anchor="middle" x="748.05" y="-217.8" font-family="Times,serif" font-size="14.00">provided by</text>
</g>
<!-- has attribute -->
<g id="node9" class="node">
<title>has attribute</title>
<ellipse fill="none" stroke="blue" cx="757.05" cy="-178" rx="40.09" ry="18"/>
<text text-anchor="middle" x="757.05" y="-174.3" font-family="Times,serif" font-size="14.00">attribute</text>
</g>
<!-- sequence association&#45;&gt;has attribute -->
<g id="edge8" class="edge">
<title>sequence association&#45;&gt;has attribute</title>
<path fill="none" stroke="blue" d="M833.27,-248.85C822.02,-243.44 810.04,-236.74 800.05,-229 790.72,-221.77 781.93,-212.26 774.76,-203.47"/>
<polygon fill="blue" stroke="blue" points="777.34,-201.09 768.42,-195.37 771.83,-205.4 777.34,-201.09"/>
<text text-anchor="middle" x="833.55" y="-217.8" font-family="Times,serif" font-size="14.00">has attribute</text>
</g>
<!-- subject -->
<g id="node10" class="node">
<title>subject</title>
<ellipse fill="none" stroke="blue" cx="871.05" cy="-178" rx="55.49" ry="18"/>
<text text-anchor="middle" x="871.05" y="-174.3" font-family="Times,serif" font-size="14.00">named thing</text>
</g>
<!-- sequence association&#45;&gt;subject -->
<g id="edge9" class="edge">
<title>sequence association&#45;&gt;subject</title>
<path fill="none" stroke="blue" d="M871.05,-246.8C871.05,-235.16 871.05,-219.55 871.05,-206.24"/>
<polygon fill="blue" stroke="blue" points="874.55,-206.18 871.05,-196.18 867.55,-206.18 874.55,-206.18"/>
<text text-anchor="middle" x="890.55" y="-217.8" font-family="Times,serif" font-size="14.00">subject</text>
</g>
<!-- predicate -->
<g id="node11" class="node">
<title>predicate</title>
<ellipse fill="none" stroke="blue" cx="1005.05" cy="-178" rx="60.39" ry="18"/>
<text text-anchor="middle" x="1005.05" y="-174.3" font-family="Times,serif" font-size="14.00">predicate type</text>
</g>
<!-- sequence association&#45;&gt;predicate -->
<g id="edge10" class="edge">
<title>sequence association&#45;&gt;predicate</title>
<path fill="none" stroke="blue" d="M896.57,-247.81C917.98,-234.23 948.71,-214.74 972,-199.96"/>
<polygon fill="blue" stroke="blue" points="973.96,-202.87 980.53,-194.55 970.21,-196.96 973.96,-202.87"/>
<text text-anchor="middle" x="972.05" y="-217.8" font-family="Times,serif" font-size="14.00">predicate</text>
</g>
<!-- object -->
<g id="node12" class="node">
<title>object</title>
<ellipse fill="none" stroke="blue" cx="1049.05" cy="-91" rx="55.49" ry="18"/>
<text text-anchor="middle" x="1049.05" y="-87.3" font-family="Times,serif" font-size="14.00">named thing</text>
</g>
<!-- sequence association&#45;&gt;object -->
<g id="edge11" class="edge">
<title>sequence association&#45;&gt;object</title>
<path fill="none" stroke="blue" d="M931.54,-252.36C985.46,-240.54 1058.22,-220.51 1074.05,-196 1089.38,-172.24 1077.63,-139.96 1065.59,-117.69"/>
<polygon fill="blue" stroke="blue" points="1068.51,-115.75 1060.49,-108.82 1062.44,-119.23 1068.51,-115.75"/>
<text text-anchor="middle" x="1099.05" y="-174.3" font-family="Times,serif" font-size="14.00">object</text>
</g>
<!-- relation -->
<g id="node13" class="node">
<title>relation</title>
<ellipse fill="none" stroke="blue" cx="1049.05" cy="-18" rx="45.49" ry="18"/>
<text text-anchor="middle" x="1049.05" y="-14.3" font-family="Times,serif" font-size="14.00">uriorcurie</text>
</g>
<!-- sequence association&#45;&gt;relation -->
<g id="edge12" class="edge">
<title>sequence association&#45;&gt;relation</title>
<path fill="none" stroke="blue" d="M932.97,-252.58C979.81,-243.82 1037.93,-232.62 1049.05,-229 1082.13,-218.23 1101.33,-225.34 1120.05,-196 1131.69,-177.75 1130.65,-107.23 1113.05,-73 1106.09,-59.48 1094.13,-47.99 1082.42,-39.13"/>
<polygon fill="blue" stroke="blue" points="1084.19,-36.09 1074.01,-33.15 1080.14,-41.8 1084.19,-36.09"/>
<text text-anchor="middle" x="1149.05" y="-130.8" font-family="Times,serif" font-size="14.00">relation</text>
</g>
<!-- negated -->
<g id="node14" class="node">
<title>negated</title>
<ellipse fill="none" stroke="blue" cx="1229.05" cy="-178" rx="38.19" ry="18"/>
<text text-anchor="middle" x="1229.05" y="-174.3" font-family="Times,serif" font-size="14.00">boolean</text>
</g>
<!-- sequence association&#45;&gt;negated -->
<g id="edge13" class="edge">
<title>sequence association&#45;&gt;negated</title>
<path fill="none" stroke="blue" d="M930.94,-252.17C941.93,-250.26 953.31,-248.43 964.05,-247 1011.13,-240.72 1133.77,-248.59 1177.05,-229 1189.83,-223.21 1201.38,-212.91 1210.34,-203.16"/>
<polygon fill="blue" stroke="blue" points="1213.03,-205.4 1216.93,-195.55 1207.74,-200.82 1213.03,-205.4"/>
<text text-anchor="middle" x="1220.55" y="-217.8" font-family="Times,serif" font-size="14.00">negated</text>
</g>
<!-- qualifiers -->
<g id="node15" class="node">
<title>qualifiers</title>
<ellipse fill="none" stroke="blue" cx="1347.05" cy="-178" rx="61.99" ry="18"/>
<text text-anchor="middle" x="1347.05" y="-174.3" font-family="Times,serif" font-size="14.00">ontology class</text>
</g>
<!-- sequence association&#45;&gt;qualifiers -->
<g id="edge14" class="edge">
<title>sequence association&#45;&gt;qualifiers</title>
<path fill="none" stroke="blue" d="M930.42,-252.08C941.56,-250.14 953.13,-248.34 964.05,-247 1088.7,-231.68 1124.73,-261.49 1246.05,-229 1269.76,-222.65 1294.49,-210.51 1313.54,-199.79"/>
<polygon fill="blue" stroke="blue" points="1315.5,-202.7 1322.41,-194.67 1312,-196.64 1315.5,-202.7"/>
<text text-anchor="middle" x="1309.55" y="-217.8" font-family="Times,serif" font-size="14.00">qualifiers</text>
</g>
<!-- publications -->
<g id="node16" class="node">
<title>publications</title>
<ellipse fill="none" stroke="blue" cx="1477.05" cy="-178" rx="50.09" ry="18"/>
<text text-anchor="middle" x="1477.05" y="-174.3" font-family="Times,serif" font-size="14.00">publication</text>
</g>
<!-- sequence association&#45;&gt;publications -->
<g id="edge15" class="edge">
<title>sequence association&#45;&gt;publications</title>
<path fill="none" stroke="blue" d="M929.91,-252.02C941.2,-250.07 952.96,-248.27 964.05,-247 1129.81,-227.96 1175.44,-261.79 1339.05,-229 1373.54,-222.09 1410.96,-208.09 1438.12,-196.66"/>
<polygon fill="blue" stroke="blue" points="1439.82,-199.74 1447.64,-192.58 1437.07,-193.3 1439.82,-199.74"/>
<text text-anchor="middle" x="1423.55" y="-217.8" font-family="Times,serif" font-size="14.00">publications</text>
</g>
<!-- type -->
<g id="node17" class="node">
<title>type</title>
<ellipse fill="none" stroke="black" cx="1572.05" cy="-178" rx="27" ry="18"/>
<text text-anchor="middle" x="1572.05" y="-174.3" font-family="Times,serif" font-size="14.00">type</text>
</g>
<!-- sequence association&#45;&gt;type -->
<g id="edge16" class="edge">
<title>sequence association&#45;&gt;type</title>
<path fill="none" stroke="blue" d="M929.89,-251.92C941.19,-249.97 952.95,-248.21 964.05,-247 1073.91,-235.03 1353.32,-253.7 1461.05,-229 1490.48,-222.25 1521.63,-207.47 1543.41,-195.71"/>
<polygon fill="blue" stroke="blue" points="1545.37,-198.63 1552.43,-190.73 1541.99,-192.5 1545.37,-198.63"/>
<text text-anchor="middle" x="1518.05" y="-217.8" font-family="Times,serif" font-size="14.00">type</text>
</g>
<!-- category -->
<g id="node19" class="node">
<title>category</title>
<ellipse fill="none" stroke="black" cx="1658.05" cy="-178" rx="40.89" ry="18"/>
<text text-anchor="middle" x="1658.05" y="-174.3" font-family="Times,serif" font-size="14.00">category</text>
</g>
<!-- sequence association&#45;&gt;category -->
<g id="edge17" class="edge">
<title>sequence association&#45;&gt;category</title>
<path fill="none" stroke="blue" d="M929.39,-251.96C940.84,-249.99 952.78,-248.2 964.05,-247 1090.06,-233.57 1410.03,-255.1 1534.05,-229 1565.53,-222.37 1599.27,-208.27 1623.59,-196.72"/>
<polygon fill="blue" stroke="blue" points="1625.28,-199.79 1632.76,-192.28 1622.23,-193.49 1625.28,-199.79"/>
<text text-anchor="middle" x="1607.55" y="-217.8" font-family="Times,serif" font-size="14.00">category</text>
</g>
<!-- subject&#45;&gt;object -->
<g id="edge18" class="edge">
<title>subject&#45;&gt;object</title>
<path fill="none" stroke="black" d="M900.84,-162.77C930.74,-148.49 976.97,-126.42 1009.84,-110.72"/>
<polygon fill="black" stroke="black" points="1011.64,-113.74 1019.16,-106.27 1008.62,-107.42 1011.64,-113.74"/>
<text text-anchor="middle" x="992.05" y="-130.8" font-family="Times,serif" font-size="14.00">relation</text>
</g>
<!-- subject&#45;&gt;relation -->
<g id="edge19" class="edge">
<title>subject&#45;&gt;relation</title>
<path fill="none" stroke="black" stroke-dasharray="1,5" d="M888.63,-160.57C910.85,-139.89 950.41,-103.39 985.05,-73 997.09,-62.43 1010.63,-50.95 1022.15,-41.3"/>
<polygon fill="black" stroke="black" points="1024.69,-43.74 1030.12,-34.64 1020.2,-38.37 1024.69,-43.74"/>
</g>
<!-- object&#45;&gt;relation -->
<g id="edge20" class="edge">
<title>object&#45;&gt;relation</title>
<path fill="none" stroke="black" stroke-dasharray="1,5" d="M1049.05,-72.81C1049.05,-64.79 1049.05,-55.05 1049.05,-46.07"/>
<polygon fill="black" stroke="black" points="1052.55,-46.03 1049.05,-36.03 1045.55,-46.03 1052.55,-46.03"/>
</g>
<!-- association_type -->
<g id="node18" class="node">
<title>association_type</title>
<ellipse fill="none" stroke="blue" cx="1004.05" cy="-265" rx="30.59" ry="18"/>
<text text-anchor="middle" x="1004.05" y="-261.3" font-family="Times,serif" font-size="14.00">string</text>
</g>
<!-- association_category -->
<g id="node20" class="node">
<title>association_category</title>
<ellipse fill="none" stroke="blue" cx="1111.05" cy="-265" rx="58.49" ry="18"/>
<text text-anchor="middle" x="1111.05" y="-261.3" font-family="Times,serif" font-size="14.00">category type</text>
</g>
</g>
</svg>
