<?xml version="1.0" encoding="UTF-8" standalone="no"?>
<!DOCTYPE svg PUBLIC "-//W3C//DTD SVG 1.1//EN"
 "http://www.w3.org/Graphics/SVG/1.1/DTD/svg11.dtd">
<!-- Generated by graphviz version 2.43.0 (0)
 -->
<!-- Title: %3 Pages: 1 -->
<svg width="3197pt" height="291pt"
 viewBox="0.00 0.00 3196.74 291.00" xmlns="http://www.w3.org/2000/svg" xmlns:xlink="http://www.w3.org/1999/xlink">
<g id="graph0" class="graph" transform="scale(1 1) rotate(0) translate(4 287)">
<title>%3</title>
<polygon fill="white" stroke="transparent" points="-4,4 -4,-287 3192.74,-287 3192.74,4 -4,4"/>
<!-- sequence association -->
<g id="node1" class="node">
<title>sequence association</title>
<ellipse fill="none" stroke="black" cx="1444.39" cy="-265" rx="108.58" ry="18"/>
<text text-anchor="middle" x="1444.39" y="-261.3" font-family="Times,serif" font-size="14.00">sequence association</text>
</g>
<!-- association -->
<g id="node2" class="node">
<title>association</title>
<ellipse fill="none" stroke="black" cx="62.39" cy="-178" rx="62.29" ry="18"/>
<text text-anchor="middle" x="62.39" y="-174.3" font-family="Times,serif" font-size="14.00">association</text>
</g>
<!-- sequence association&#45;&gt;association -->
<g id="edge1" class="edge">
<title>sequence association&#45;&gt;association</title>
<path fill="none" stroke="black" d="M1335.85,-263.66C1085.33,-262.4 472.59,-256.51 268.39,-229 214.65,-221.76 154.53,-206.29 113.17,-194.46"/>
<polygon fill="black" stroke="black" points="113.92,-191.03 103.34,-191.62 111.98,-197.76 113.92,-191.03"/>
<text text-anchor="middle" x="282.39" y="-217.8" font-family="Times,serif" font-size="14.00">is_a</text>
</g>
<!-- id -->
<g id="node3" class="node">
<title>id</title>
<ellipse fill="none" stroke="blue" cx="181.39" cy="-178" rx="38.19" ry="18"/>
<text text-anchor="middle" x="181.39" y="-174.3" font-family="Times,serif" font-size="14.00">string</text>
</g>
<!-- sequence association&#45;&gt;id -->
<g id="edge2" class="edge">
<title>sequence association&#45;&gt;id</title>
<path fill="none" stroke="blue" d="M1336.39,-262.67C1106.14,-259.46 573.38,-249.96 393.39,-229 319.54,-220.4 301.06,-215.79 229.39,-196 226.28,-195.14 223.08,-194.18 219.89,-193.17"/>
<polygon fill="blue" stroke="blue" points="220.97,-189.84 210.37,-190.01 218.76,-196.48 220.97,-189.84"/>
<text text-anchor="middle" x="400.39" y="-217.8" font-family="Times,serif" font-size="14.00">id</text>
</g>
<!-- iri -->
<g id="node4" class="node">
<title>iri</title>
<ellipse fill="none" stroke="blue" cx="282.39" cy="-178" rx="44.39" ry="18"/>
<text text-anchor="middle" x="282.39" y="-174.3" font-family="Times,serif" font-size="14.00">iri type</text>
</g>
<!-- sequence association&#45;&gt;iri -->
<g id="edge3" class="edge">
<title>sequence association&#45;&gt;iri</title>
<path fill="none" stroke="blue" d="M1337.18,-262.09C1126.11,-257.98 663.51,-247.18 505.39,-229 428.93,-220.21 409.95,-215.12 335.39,-196 332.02,-195.13 328.54,-194.17 325.05,-193.16"/>
<polygon fill="blue" stroke="blue" points="325.88,-189.76 315.3,-190.22 323.86,-196.46 325.88,-189.76"/>
<text text-anchor="middle" x="513.39" y="-217.8" font-family="Times,serif" font-size="14.00">iri</text>
</g>
<!-- name -->
<g id="node5" class="node">
<title>name</title>
<ellipse fill="none" stroke="blue" cx="401.39" cy="-178" rx="56.59" ry="18"/>
<text text-anchor="middle" x="401.39" y="-174.3" font-family="Times,serif" font-size="14.00">label type</text>
</g>
<!-- sequence association&#45;&gt;name -->
<g id="edge4" class="edge">
<title>sequence association&#45;&gt;name</title>
<path fill="none" stroke="blue" d="M1336.86,-262.39C1141.42,-259 735.22,-249.66 595.39,-229 544.86,-221.53 488.45,-206.17 449.55,-194.44"/>
<polygon fill="blue" stroke="blue" points="450.14,-190.96 439.55,-191.39 448.09,-197.66 450.14,-190.96"/>
<text text-anchor="middle" x="615.39" y="-217.8" font-family="Times,serif" font-size="14.00">name</text>
</g>
<!-- description -->
<g id="node6" class="node">
<title>description</title>
<ellipse fill="none" stroke="blue" cx="551.39" cy="-178" rx="75.29" ry="18"/>
<text text-anchor="middle" x="551.39" y="-174.3" font-family="Times,serif" font-size="14.00">narrative text</text>
</g>
<!-- sequence association&#45;&gt;description -->
<g id="edge5" class="edge">
<title>sequence association&#45;&gt;description</title>
<path fill="none" stroke="blue" d="M1336.35,-262.98C1158.04,-260.64 809.87,-253.04 689.39,-229 656.45,-222.43 620.85,-209.37 594.06,-198.24"/>
<polygon fill="blue" stroke="blue" points="595.18,-194.92 584.61,-194.25 592.45,-201.37 595.18,-194.92"/>
<text text-anchor="middle" x="729.89" y="-217.8" font-family="Times,serif" font-size="14.00">description</text>
</g>
<!-- has attribute -->
<g id="node7" class="node">
<title>has attribute</title>
<ellipse fill="none" stroke="blue" cx="696.39" cy="-178" rx="51.99" ry="18"/>
<text text-anchor="middle" x="696.39" y="-174.3" font-family="Times,serif" font-size="14.00">attribute</text>
</g>
<!-- sequence association&#45;&gt;has attribute -->
<g id="edge6" class="edge">
<title>sequence association&#45;&gt;has attribute</title>
<path fill="none" stroke="blue" d="M1337.08,-262.25C1185.05,-259.03 914.82,-250.44 819.39,-229 789.41,-222.26 757.3,-208.99 733.41,-197.8"/>
<polygon fill="blue" stroke="blue" points="734.89,-194.63 724.36,-193.48 731.88,-200.95 734.89,-194.63"/>
<text text-anchor="middle" x="866.39" y="-217.8" font-family="Times,serif" font-size="14.00">has attribute</text>
</g>
<!-- subject -->
<g id="node8" class="node">
<title>subject</title>
<ellipse fill="none" stroke="blue" cx="836.39" cy="-178" rx="69.59" ry="18"/>
<text text-anchor="middle" x="836.39" y="-174.3" font-family="Times,serif" font-size="14.00">named thing</text>
</g>
<!-- sequence association&#45;&gt;subject -->
<g id="edge7" class="edge">
<title>sequence association&#45;&gt;subject</title>
<path fill="none" stroke="blue" d="M1339.93,-260.09C1220.46,-254.96 1032.48,-244.73 963.39,-229 933.31,-222.15 900.97,-209.33 876.46,-198.39"/>
<polygon fill="blue" stroke="blue" points="877.68,-195.1 867.13,-194.15 874.79,-201.48 877.68,-195.1"/>
<text text-anchor="middle" x="989.39" y="-217.8" font-family="Times,serif" font-size="14.00">subject</text>
</g>
<!-- predicate -->
<g id="node9" class="node">
<title>predicate</title>
<ellipse fill="none" stroke="blue" cx="1002.39" cy="-178" rx="77.99" ry="18"/>
<text text-anchor="middle" x="1002.39" y="-174.3" font-family="Times,serif" font-size="14.00">predicate type</text>
</g>
<!-- sequence association&#45;&gt;predicate -->
<g id="edge8" class="edge">
<title>sequence association&#45;&gt;predicate</title>
<path fill="none" stroke="blue" d="M1340.2,-259.88C1227.37,-254.66 1059.98,-244.45 1034.39,-229 1025.36,-223.54 1018.43,-214.45 1013.37,-205.5"/>
<polygon fill="blue" stroke="blue" points="1016.4,-203.73 1008.76,-196.39 1010.15,-206.89 1016.4,-203.73"/>
<text text-anchor="middle" x="1068.39" y="-217.8" font-family="Times,serif" font-size="14.00">predicate</text>
</g>
<!-- object -->
<g id="node10" class="node">
<title>object</title>
<ellipse fill="none" stroke="blue" cx="934.39" cy="-91" rx="69.59" ry="18"/>
<text text-anchor="middle" x="934.39" y="-87.3" font-family="Times,serif" font-size="14.00">named thing</text>
</g>
<!-- sequence association&#45;&gt;object -->
<g id="edge9" class="edge">
<title>sequence association&#45;&gt;object</title>
<path fill="none" stroke="blue" d="M1345.52,-257.55C1279.81,-249.85 1193.44,-232.97 1125.39,-196 1105.51,-185.2 1108.08,-172.77 1089.39,-160 1057.29,-138.07 1016.97,-120.64 985.5,-108.92"/>
<polygon fill="blue" stroke="blue" points="986.63,-105.61 976.03,-105.47 984.23,-112.18 986.63,-105.61"/>
<text text-anchor="middle" x="1147.39" y="-174.3" font-family="Times,serif" font-size="14.00">object</text>
</g>
<!-- negated -->
<g id="node11" class="node">
<title>negated</title>
<ellipse fill="none" stroke="blue" cx="1225.39" cy="-178" rx="46.59" ry="18"/>
<text text-anchor="middle" x="1225.39" y="-174.3" font-family="Times,serif" font-size="14.00">boolean</text>
</g>
<!-- sequence association&#45;&gt;negated -->
<g id="edge10" class="edge">
<title>sequence association&#45;&gt;negated</title>
<path fill="none" stroke="blue" d="M1395.98,-248.89C1378.07,-243.03 1357.69,-236.04 1339.39,-229 1313.74,-219.12 1285.44,-206.72 1263.46,-196.74"/>
<polygon fill="blue" stroke="blue" points="1264.69,-193.45 1254.14,-192.48 1261.78,-199.82 1264.69,-193.45"/>
<text text-anchor="middle" x="1368.39" y="-217.8" font-family="Times,serif" font-size="14.00">negated</text>
</g>
<!-- qualifiers -->
<g id="node12" class="node">
<title>qualifiers</title>
<ellipse fill="none" stroke="blue" cx="1366.39" cy="-178" rx="76.89" ry="18"/>
<text text-anchor="middle" x="1366.39" y="-174.3" font-family="Times,serif" font-size="14.00">ontology class</text>
</g>
<!-- sequence association&#45;&gt;qualifiers -->
<g id="edge11" class="edge">
<title>sequence association&#45;&gt;qualifiers</title>
<path fill="none" stroke="blue" d="M1428.61,-246.8C1417.22,-234.39 1401.68,-217.46 1388.99,-203.62"/>
<polygon fill="blue" stroke="blue" points="1391.23,-200.89 1381.89,-195.89 1386.07,-205.62 1391.23,-200.89"/>
<text text-anchor="middle" x="1443.89" y="-217.8" font-family="Times,serif" font-size="14.00">qualifiers</text>
</g>
<!-- publications -->
<g id="node13" class="node">
<title>publications</title>
<ellipse fill="none" stroke="blue" cx="1523.39" cy="-178" rx="62.29" ry="18"/>
<text text-anchor="middle" x="1523.39" y="-174.3" font-family="Times,serif" font-size="14.00">publication</text>
</g>
<!-- sequence association&#45;&gt;publications -->
<g id="edge12" class="edge">
<title>sequence association&#45;&gt;publications</title>
<path fill="none" stroke="blue" d="M1463.24,-246.96C1469.19,-241.37 1475.69,-235.05 1481.39,-229 1488.98,-220.96 1496.88,-211.79 1503.75,-203.52"/>
<polygon fill="blue" stroke="blue" points="1506.59,-205.57 1510.23,-195.62 1501.18,-201.13 1506.59,-205.57"/>
<text text-anchor="middle" x="1539.39" y="-217.8" font-family="Times,serif" font-size="14.00">publications</text>
</g>
<!-- has evidence -->
<g id="node14" class="node">
<title>has evidence</title>
<ellipse fill="none" stroke="blue" cx="1679.39" cy="-178" rx="75.29" ry="18"/>
<text text-anchor="middle" x="1679.39" y="-174.3" font-family="Times,serif" font-size="14.00">evidence type</text>
</g>
<!-- sequence association&#45;&gt;has evidence -->
<g id="edge13" class="edge">
<title>sequence association&#45;&gt;has evidence</title>
<path fill="none" stroke="blue" d="M1513.15,-250.95C1537.06,-245.43 1563.79,-238.12 1587.39,-229 1607.28,-221.31 1628.25,-210.17 1645.15,-200.36"/>
<polygon fill="blue" stroke="blue" points="1647.25,-203.18 1654.08,-195.08 1643.69,-197.16 1647.25,-203.18"/>
<text text-anchor="middle" x="1665.89" y="-217.8" font-family="Times,serif" font-size="14.00">has evidence</text>
</g>
<!-- knowledge source -->
<g id="node15" class="node">
<title>knowledge source</title>
<ellipse fill="none" stroke="blue" cx="1881.39" cy="-178" rx="108.58" ry="18"/>
<text text-anchor="middle" x="1881.39" y="-174.3" font-family="Times,serif" font-size="14.00">information resource</text>
</g>
<!-- sequence association&#45;&gt;knowledge source -->
<g id="edge14" class="edge">
<title>sequence association&#45;&gt;knowledge source</title>
<path fill="none" stroke="blue" d="M1522.43,-252.46C1535.75,-250.57 1549.46,-248.69 1562.39,-247 1630.73,-238.09 1648.93,-243.05 1716.39,-229 1754.37,-221.09 1796.18,-208.38 1828.21,-197.75"/>
<polygon fill="blue" stroke="blue" points="1829.46,-201.02 1837.82,-194.53 1827.23,-194.39 1829.46,-201.02"/>
<text text-anchor="middle" x="1836.89" y="-217.8" font-family="Times,serif" font-size="14.00">knowledge source</text>
</g>
<!-- primary knowledge source -->
<g id="node16" class="node">
<title>primary knowledge source</title>
<ellipse fill="none" stroke="blue" cx="2116.39" cy="-178" rx="108.58" ry="18"/>
<text text-anchor="middle" x="2116.39" y="-174.3" font-family="Times,serif" font-size="14.00">information resource</text>
</g>
<!-- sequence association&#45;&gt;primary knowledge source -->
<g id="edge15" class="edge">
<title>sequence association&#45;&gt;primary knowledge source</title>
<path fill="none" stroke="blue" d="M1520.13,-252.05C1534.15,-250.14 1548.7,-248.34 1562.39,-247 1714.32,-232.1 1754.29,-250.69 1905.39,-229 1956.45,-221.67 2013.3,-207.87 2055.11,-196.61"/>
<polygon fill="blue" stroke="blue" points="2056.14,-199.96 2064.87,-193.96 2054.3,-193.21 2056.14,-199.96"/>
<text text-anchor="middle" x="2077.39" y="-217.8" font-family="Times,serif" font-size="14.00">primary knowledge source</text>
</g>
<!-- aggregator knowledge source -->
<g id="node17" class="node">
<title>aggregator knowledge source</title>
<ellipse fill="none" stroke="blue" cx="2351.39" cy="-178" rx="108.58" ry="18"/>
<text text-anchor="middle" x="2351.39" y="-174.3" font-family="Times,serif" font-size="14.00">information resource</text>
</g>
<!-- sequence association&#45;&gt;aggregator knowledge source -->
<g id="edge16" class="edge">
<title>sequence association&#45;&gt;aggregator knowledge source</title>
<path fill="none" stroke="blue" d="M1519.15,-251.92C1533.47,-249.98 1548.37,-248.21 1562.39,-247 1698.39,-235.25 2041.5,-249.91 2176.39,-229 2218.17,-222.52 2264.08,-209.16 2298.39,-197.88"/>
<polygon fill="blue" stroke="blue" points="2299.82,-201.09 2308.2,-194.6 2297.6,-194.45 2299.82,-201.09"/>
<text text-anchor="middle" x="2351.89" y="-217.8" font-family="Times,serif" font-size="14.00">aggregator knowledge source</text>
</g>
<!-- timepoint -->
<g id="node18" class="node">
<title>timepoint</title>
<ellipse fill="none" stroke="blue" cx="2533.39" cy="-178" rx="55.49" ry="18"/>
<text text-anchor="middle" x="2533.39" y="-174.3" font-family="Times,serif" font-size="14.00">time type</text>
</g>
<!-- sequence association&#45;&gt;timepoint -->
<g id="edge17" class="edge">
<title>sequence association&#45;&gt;timepoint</title>
<path fill="none" stroke="blue" d="M1518.83,-251.86C1533.25,-249.91 1548.26,-248.15 1562.39,-247 1662.08,-238.85 2367.35,-260.16 2462.39,-229 2479.43,-223.41 2495.97,-212.22 2508.79,-201.85"/>
<polygon fill="blue" stroke="blue" points="2511.26,-204.34 2516.64,-195.21 2506.74,-198.99 2511.26,-204.34"/>
<text text-anchor="middle" x="2527.39" y="-217.8" font-family="Times,serif" font-size="14.00">timepoint</text>
</g>
<!-- original subject -->
<g id="node19" class="node">
<title>original subject</title>
<ellipse fill="none" stroke="blue" cx="2645.39" cy="-178" rx="38.19" ry="18"/>
<text text-anchor="middle" x="2645.39" y="-174.3" font-family="Times,serif" font-size="14.00">string</text>
</g>
<!-- sequence association&#45;&gt;original subject -->
<g id="edge18" class="edge">
<title>sequence association&#45;&gt;original subject</title>
<path fill="none" stroke="blue" d="M1518.83,-251.84C1533.24,-249.89 1548.26,-248.14 1562.39,-247 1673.61,-238.03 2459.51,-261.02 2566.39,-229 2585.76,-223.2 2604.98,-211.21 2619.62,-200.42"/>
<polygon fill="blue" stroke="blue" points="2621.85,-203.12 2627.67,-194.27 2617.6,-197.56 2621.85,-203.12"/>
<text text-anchor="middle" x="2655.39" y="-217.8" font-family="Times,serif" font-size="14.00">original subject</text>
</g>
<!-- original predicate -->
<g id="node20" class="node">
<title>original predicate</title>
<ellipse fill="none" stroke="blue" cx="2760.39" cy="-178" rx="57.39" ry="18"/>
<text text-anchor="middle" x="2760.39" y="-174.3" font-family="Times,serif" font-size="14.00">uriorcurie</text>
</g>
<!-- sequence association&#45;&gt;original predicate -->
<g id="edge19" class="edge">
<title>sequence association&#45;&gt;original predicate</title>
<path fill="none" stroke="blue" d="M1518.83,-251.81C1533.24,-249.86 1548.26,-248.12 1562.39,-247 1626.26,-241.92 2657.08,-255.52 2715.39,-229 2727.07,-223.69 2737.01,-213.73 2744.55,-204.09"/>
<polygon fill="blue" stroke="blue" points="2747.51,-205.98 2750.55,-195.83 2741.85,-201.87 2747.51,-205.98"/>
<text text-anchor="middle" x="2799.89" y="-217.8" font-family="Times,serif" font-size="14.00">original predicate</text>
</g>
<!-- original object -->
<g id="node21" class="node">
<title>original object</title>
<ellipse fill="none" stroke="blue" cx="2910.39" cy="-178" rx="38.19" ry="18"/>
<text text-anchor="middle" x="2910.39" y="-174.3" font-family="Times,serif" font-size="14.00">string</text>
</g>
<!-- sequence association&#45;&gt;original object -->
<g id="edge20" class="edge">
<title>sequence association&#45;&gt;original object</title>
<path fill="none" stroke="blue" d="M1518.51,-251.83C1533.02,-249.87 1548.16,-248.12 1562.39,-247 1598.54,-244.16 2834.55,-244.35 2867.39,-229 2878.79,-223.68 2888.32,-213.72 2895.49,-204.08"/>
<polygon fill="blue" stroke="blue" points="2898.39,-206.04 2901.17,-195.82 2892.62,-202.08 2898.39,-206.04"/>
<text text-anchor="middle" x="2938.89" y="-217.8" font-family="Times,serif" font-size="14.00">original object</text>
</g>
<!-- type -->
<g id="node22" class="node">
<title>type</title>
<ellipse fill="none" stroke="black" cx="3036.39" cy="-178" rx="31.4" ry="18"/>
<text text-anchor="middle" x="3036.39" y="-174.3" font-family="Times,serif" font-size="14.00">type</text>
</g>
<!-- sequence association&#45;&gt;type -->
<g id="edge21" class="edge">
<title>sequence association&#45;&gt;type</title>
<path fill="none" stroke="blue" d="M1518.51,-251.82C1533.02,-249.86 1548.16,-248.11 1562.39,-247 1602.05,-243.91 2958.44,-246.03 2994.39,-229 3005.81,-223.6 3015.24,-213.43 3022.25,-203.67"/>
<polygon fill="blue" stroke="blue" points="3025.18,-205.59 3027.78,-195.32 3019.34,-201.73 3025.18,-205.59"/>
<text text-anchor="middle" x="3030.39" y="-217.8" font-family="Times,serif" font-size="14.00">type</text>
</g>
<!-- category -->
<g id="node24" class="node">
<title>category</title>
<ellipse fill="none" stroke="black" cx="3137.39" cy="-178" rx="51.19" ry="18"/>
<text text-anchor="middle" x="3137.39" y="-174.3" font-family="Times,serif" font-size="14.00">category</text>
</g>
<!-- sequence association&#45;&gt;category -->
<g id="edge22" class="edge">
<title>sequence association&#45;&gt;category</title>
<path fill="none" stroke="blue" d="M1518.51,-251.81C1533.02,-249.85 1548.16,-248.11 1562.39,-247 1644.82,-240.59 2970.65,-250.8 3050.39,-229 3071.24,-223.3 3092.31,-211.39 3108.49,-200.62"/>
<polygon fill="blue" stroke="blue" points="3110.69,-203.35 3116.94,-194.8 3106.72,-197.59 3110.69,-203.35"/>
<text text-anchor="middle" x="3116.89" y="-217.8" font-family="Times,serif" font-size="14.00">category</text>
</g>
<!-- subject&#45;&gt;object -->
<g id="edge23" class="edge">
<title>subject&#45;&gt;object</title>
<path fill="none" stroke="black" d="M855.29,-160.61C870.2,-147.68 891.19,-129.47 907.8,-115.07"/>
<polygon fill="black" stroke="black" points="910.3,-117.53 915.56,-108.34 905.71,-112.25 910.3,-117.53"/>
<text text-anchor="middle" x="919.39" y="-130.8" font-family="Times,serif" font-size="14.00">relation</text>
</g>
<!-- relation -->
<g id="node26" class="node">
<title>relation</title>
<ellipse fill="none" stroke="black" cx="848.39" cy="-18" rx="46.59" ry="18"/>
<text text-anchor="middle" x="848.39" y="-14.3" font-family="Times,serif" font-size="14.00">relation</text>
</g>
<!-- subject&#45;&gt;relation -->
<g id="edge24" class="edge">
<title>subject&#45;&gt;relation</title>
<path fill="none" stroke="black" stroke-dasharray="1,5" d="M837.7,-159.79C839.78,-132.48 843.84,-78.99 846.31,-46.38"/>
<polygon fill="black" stroke="black" points="849.82,-46.42 847.09,-36.19 842.84,-45.89 849.82,-46.42"/>
</g>
<!-- object&#45;&gt;relation -->
<g id="edge25" class="edge">
<title>object&#45;&gt;relation</title>
<path fill="none" stroke="black" stroke-dasharray="1,5" d="M914.45,-73.53C902.81,-63.92 887.97,-51.67 875.3,-41.21"/>
<polygon fill="black" stroke="black" points="877.29,-38.31 867.35,-34.65 872.83,-43.71 877.29,-38.31"/>
</g>
<!-- association_type -->
<g id="node23" class="node">
<title>association_type</title>
<ellipse fill="none" stroke="blue" cx="1609.39" cy="-265" rx="38.19" ry="18"/>
<text text-anchor="middle" x="1609.39" y="-261.3" font-family="Times,serif" font-size="14.00">string</text>
</g>
<!-- association_category -->
<g id="node25" class="node">
<title>association_category</title>
<ellipse fill="none" stroke="blue" cx="1740.39" cy="-265" rx="74.99" ry="18"/>
<text text-anchor="middle" x="1740.39" y="-261.3" font-family="Times,serif" font-size="14.00">category type</text>
</g>
</g>
</svg>
