<?xml version="1.0" encoding="UTF-8" standalone="no"?>
<!DOCTYPE svg PUBLIC "-//W3C//DTD SVG 1.1//EN"
 "http://www.w3.org/Graphics/SVG/1.1/DTD/svg11.dtd">
<!-- Generated by graphviz version 3.0.0 (20220226.1711)
 -->
<!-- Pages: 1 -->
<svg width="2435pt" height="291pt"
 viewBox="0.00 0.00 2435.05 291.00" xmlns="http://www.w3.org/2000/svg" xmlns:xlink="http://www.w3.org/1999/xlink">
<g id="graph0" class="graph" transform="scale(1 1) rotate(0) translate(4 287)">
<polygon fill="white" stroke="transparent" points="-4,4 -4,-287 2431.05,-287 2431.05,4 -4,4"/>
<!-- sequence feature relationship -->
<g id="node1" class="node">
<title>sequence feature relationship</title>
<ellipse fill="none" stroke="black" cx="1041.05" cy="-265" rx="113.98" ry="18"/>
<text text-anchor="middle" x="1041.05" y="-261.3" font-family="Times,serif" font-size="14.00">sequence feature relationship</text>
</g>
<!-- association -->
<g id="node2" class="node">
<title>association</title>
<ellipse fill="none" stroke="black" cx="50.05" cy="-178" rx="50.09" ry="18"/>
<text text-anchor="middle" x="50.05" y="-174.3" font-family="Times,serif" font-size="14.00">association</text>
</g>
<!-- sequence feature relationship&#45;&gt;association -->
<g id="edge1" class="edge">
<title>sequence feature relationship&#45;&gt;association</title>
<path fill="none" stroke="black" d="M928.1,-262.55C736.01,-259.52 353.64,-250.88 221.05,-229 176.6,-221.67 127.39,-206.5 93.21,-194.78"/>
<polygon fill="black" stroke="black" points="94.15,-191.4 83.55,-191.42 91.85,-198.01 94.15,-191.4"/>
<text text-anchor="middle" x="232.05" y="-217.8" font-family="Times,serif" font-size="14.00">is_a</text>
</g>
<!-- id -->
<g id="node3" class="node">
<title>id</title>
<ellipse fill="none" stroke="blue" cx="149.05" cy="-178" rx="30.59" ry="18"/>
<text text-anchor="middle" x="149.05" y="-174.3" font-family="Times,serif" font-size="14.00">string</text>
</g>
<!-- sequence feature relationship&#45;&gt;id -->
<g id="edge2" class="edge">
<title>sequence feature relationship&#45;&gt;id</title>
<path fill="none" stroke="blue" d="M929.89,-261.14C758.68,-256.29 438.37,-245.37 325.05,-229 263.49,-220.11 248.09,-215.56 189.05,-196 186.66,-195.21 184.23,-194.34 181.79,-193.42"/>
<polygon fill="blue" stroke="blue" points="183.07,-190.17 172.49,-189.72 180.48,-196.67 183.07,-190.17"/>
<text text-anchor="middle" x="330.55" y="-217.8" font-family="Times,serif" font-size="14.00">id</text>
</g>
<!-- iri -->
<g id="node4" class="node">
<title>iri</title>
<ellipse fill="none" stroke="blue" cx="234.05" cy="-178" rx="36.29" ry="18"/>
<text text-anchor="middle" x="234.05" y="-174.3" font-family="Times,serif" font-size="14.00">iri type</text>
</g>
<!-- sequence feature relationship&#45;&gt;iri -->
<g id="edge3" class="edge">
<title>sequence feature relationship&#45;&gt;iri</title>
<path fill="none" stroke="blue" d="M927.23,-264.28C800.35,-263.06 589.4,-256.47 410.05,-229 351.12,-219.97 336.97,-213.69 280.05,-196 277.3,-195.15 274.48,-194.22 271.65,-193.26"/>
<polygon fill="blue" stroke="blue" points="272.7,-189.92 262.1,-189.9 270.37,-196.52 272.7,-189.92"/>
<text text-anchor="middle" x="416.55" y="-217.8" font-family="Times,serif" font-size="14.00">iri</text>
</g>
<!-- name -->
<g id="node5" class="node">
<title>name</title>
<ellipse fill="none" stroke="blue" cx="334.05" cy="-178" rx="45.49" ry="18"/>
<text text-anchor="middle" x="334.05" y="-174.3" font-family="Times,serif" font-size="14.00">label type</text>
</g>
<!-- sequence feature relationship&#45;&gt;name -->
<g id="edge4" class="edge">
<title>sequence feature relationship&#45;&gt;name</title>
<path fill="none" stroke="blue" d="M930.58,-260.61C792.23,-255.75 563.26,-245.53 480.05,-229 442.74,-221.59 401.92,-207.02 372.95,-195.52"/>
<polygon fill="blue" stroke="blue" points="374.18,-192.24 363.6,-191.75 371.56,-198.73 374.18,-192.24"/>
<text text-anchor="middle" x="495.55" y="-217.8" font-family="Times,serif" font-size="14.00">name</text>
</g>
<!-- description -->
<g id="node6" class="node">
<title>description</title>
<ellipse fill="none" stroke="blue" cx="455.05" cy="-178" rx="57.69" ry="18"/>
<text text-anchor="middle" x="455.05" y="-174.3" font-family="Times,serif" font-size="14.00">narrative text</text>
</g>
<!-- sequence feature relationship&#45;&gt;description -->
<g id="edge5" class="edge">
<title>sequence feature relationship&#45;&gt;description</title>
<path fill="none" stroke="blue" d="M929.43,-261.36C806.99,-257.52 618.72,-248.59 550.05,-229 527.76,-222.64 504.72,-210.67 486.9,-200.03"/>
<polygon fill="blue" stroke="blue" points="488.45,-196.88 478.1,-194.63 484.79,-202.84 488.45,-196.88"/>
<text text-anchor="middle" x="580.55" y="-217.8" font-family="Times,serif" font-size="14.00">description</text>
</g>
<!-- source -->
<g id="node7" class="node">
<title>source</title>
<ellipse fill="none" stroke="blue" cx="561.05" cy="-178" rx="30.59" ry="18"/>
<text text-anchor="middle" x="561.05" y="-174.3" font-family="Times,serif" font-size="14.00">string</text>
</g>
<!-- sequence feature relationship&#45;&gt;source -->
<g id="edge6" class="edge">
<title>sequence feature relationship&#45;&gt;source</title>
<path fill="none" stroke="blue" d="M932.43,-259.65C834.54,-254.76 698.34,-245.3 647.05,-229 625.66,-222.21 603.83,-209.43 587.51,-198.49"/>
<polygon fill="blue" stroke="blue" points="589.27,-195.45 579.05,-192.65 585.29,-201.21 589.27,-195.45"/>
<text text-anchor="middle" x="665.05" y="-217.8" font-family="Times,serif" font-size="14.00">source</text>
</g>
<!-- has attribute -->
<g id="node8" class="node">
<title>has attribute</title>
<ellipse fill="none" stroke="blue" cx="650.05" cy="-178" rx="40.09" ry="18"/>
<text text-anchor="middle" x="650.05" y="-174.3" font-family="Times,serif" font-size="14.00">attribute</text>
</g>
<!-- sequence feature relationship&#45;&gt;has attribute -->
<g id="edge7" class="edge">
<title>sequence feature relationship&#45;&gt;has attribute</title>
<path fill="none" stroke="blue" d="M932.99,-259.34C852.15,-254.6 749.1,-245.51 710.05,-229 695.57,-222.88 681.91,-212.06 671.29,-202.04"/>
<polygon fill="blue" stroke="blue" points="673.7,-199.5 664.12,-194.97 668.78,-204.49 673.7,-199.5"/>
<text text-anchor="middle" x="743.55" y="-217.8" font-family="Times,serif" font-size="14.00">has attribute</text>
</g>
<!-- predicate -->
<g id="node9" class="node">
<title>predicate</title>
<ellipse fill="none" stroke="blue" cx="769.05" cy="-178" rx="60.39" ry="18"/>
<text text-anchor="middle" x="769.05" y="-174.3" font-family="Times,serif" font-size="14.00">predicate type</text>
</g>
<!-- sequence feature relationship&#45;&gt;predicate -->
<g id="edge8" class="edge">
<title>sequence feature relationship&#45;&gt;predicate</title>
<path fill="none" stroke="blue" d="M933.89,-258.83C877.5,-254.18 815.5,-245.43 793.05,-229 785.25,-223.3 779.88,-214.39 776.23,-205.67"/>
<polygon fill="blue" stroke="blue" points="779.47,-204.31 772.81,-196.07 772.88,-206.67 779.47,-204.31"/>
<text text-anchor="middle" x="818.05" y="-217.8" font-family="Times,serif" font-size="14.00">predicate</text>
</g>
<!-- relation -->
<g id="node10" class="node">
<title>relation</title>
<ellipse fill="none" stroke="blue" cx="2297.05" cy="-18" rx="30.59" ry="18"/>
<text text-anchor="middle" x="2297.05" y="-14.3" font-family="Times,serif" font-size="14.00">string</text>
</g>
<!-- sequence feature relationship&#45;&gt;relation -->
<g id="edge9" class="edge">
<title>sequence feature relationship&#45;&gt;relation</title>
<path fill="none" stroke="blue" d="M979.66,-249.77C918.41,-232.83 838.43,-201.54 876.05,-160 971.32,-54.8 2033.2,-24.98 2256.14,-19.86"/>
<polygon fill="blue" stroke="blue" points="2256.49,-23.36 2266.41,-19.63 2256.33,-16.36 2256.49,-23.36"/>
<text text-anchor="middle" x="963.05" y="-130.8" font-family="Times,serif" font-size="14.00">relation</text>
</g>
<!-- negated -->
<g id="node11" class="node">
<title>negated</title>
<ellipse fill="none" stroke="blue" cx="923.05" cy="-178" rx="38.19" ry="18"/>
<text text-anchor="middle" x="923.05" y="-174.3" font-family="Times,serif" font-size="14.00">boolean</text>
</g>
<!-- sequence feature relationship&#45;&gt;negated -->
<g id="edge10" class="edge">
<title>sequence feature relationship&#45;&gt;negated</title>
<path fill="none" stroke="blue" d="M1017.73,-247.21C998.69,-233.49 971.71,-214.05 951.41,-199.43"/>
<polygon fill="blue" stroke="blue" points="953.33,-196.5 943.17,-193.49 949.24,-202.18 953.33,-196.5"/>
<text text-anchor="middle" x="1011.55" y="-217.8" font-family="Times,serif" font-size="14.00">negated</text>
</g>
<!-- qualifiers -->
<g id="node12" class="node">
<title>qualifiers</title>
<ellipse fill="none" stroke="blue" cx="1041.05" cy="-178" rx="61.99" ry="18"/>
<text text-anchor="middle" x="1041.05" y="-174.3" font-family="Times,serif" font-size="14.00">ontology class</text>
</g>
<!-- sequence feature relationship&#45;&gt;qualifiers -->
<g id="edge11" class="edge">
<title>sequence feature relationship&#45;&gt;qualifiers</title>
<path fill="none" stroke="blue" d="M1041.05,-246.8C1041.05,-235.16 1041.05,-219.55 1041.05,-206.24"/>
<polygon fill="blue" stroke="blue" points="1044.55,-206.18 1041.05,-196.18 1037.55,-206.18 1044.55,-206.18"/>
<text text-anchor="middle" x="1066.55" y="-217.8" font-family="Times,serif" font-size="14.00">qualifiers</text>
</g>
<!-- publications -->
<g id="node13" class="node">
<title>publications</title>
<ellipse fill="none" stroke="blue" cx="1171.05" cy="-178" rx="50.09" ry="18"/>
<text text-anchor="middle" x="1171.05" y="-174.3" font-family="Times,serif" font-size="14.00">publication</text>
</g>
<!-- sequence feature relationship&#45;&gt;publications -->
<g id="edge12" class="edge">
<title>sequence feature relationship&#45;&gt;publications</title>
<path fill="none" stroke="blue" d="M1067.42,-247.38C1076.51,-241.6 1086.75,-235.05 1096.05,-229 1110.57,-219.54 1126.56,-208.91 1140.03,-199.89"/>
<polygon fill="blue" stroke="blue" points="1142.13,-202.7 1148.48,-194.22 1138.23,-196.89 1142.13,-202.7"/>
<text text-anchor="middle" x="1152.55" y="-217.8" font-family="Times,serif" font-size="14.00">publications</text>
</g>
<!-- has evidence -->
<g id="node14" class="node">
<title>has evidence</title>
<ellipse fill="none" stroke="blue" cx="1299.05" cy="-178" rx="59.59" ry="18"/>
<text text-anchor="middle" x="1299.05" y="-174.3" font-family="Times,serif" font-size="14.00">evidence type</text>
</g>
<!-- sequence feature relationship&#45;&gt;has evidence -->
<g id="edge13" class="edge">
<title>sequence feature relationship&#45;&gt;has evidence</title>
<path fill="none" stroke="blue" d="M1110.47,-250.7C1135.83,-245.06 1164.53,-237.75 1190.05,-229 1214.47,-220.62 1240.81,-208.63 1261.47,-198.49"/>
<polygon fill="blue" stroke="blue" points="1263.15,-201.57 1270.54,-193.98 1260.03,-195.3 1263.15,-201.57"/>
<text text-anchor="middle" x="1262.05" y="-217.8" font-family="Times,serif" font-size="14.00">has evidence</text>
</g>
<!-- knowledge source -->
<g id="node15" class="node">
<title>knowledge source</title>
<ellipse fill="none" stroke="blue" cx="1462.05" cy="-178" rx="85.29" ry="18"/>
<text text-anchor="middle" x="1462.05" y="-174.3" font-family="Times,serif" font-size="14.00">information resource</text>
</g>
<!-- sequence feature relationship&#45;&gt;knowledge source -->
<g id="edge14" class="edge">
<title>sequence feature relationship&#45;&gt;knowledge source</title>
<path fill="none" stroke="blue" d="M1123.06,-252.47C1136.42,-250.62 1150.12,-248.74 1163.05,-247 1224.34,-238.73 1240.62,-242.22 1301.05,-229 1338.58,-220.79 1379.97,-207.85 1411.37,-197.19"/>
<polygon fill="blue" stroke="blue" points="1412.88,-200.37 1421.2,-193.82 1410.61,-193.75 1412.88,-200.37"/>
<text text-anchor="middle" x="1404.55" y="-217.8" font-family="Times,serif" font-size="14.00">knowledge source</text>
</g>
<!-- original knowledge source -->
<g id="node16" class="node">
<title>original knowledge source</title>
<ellipse fill="none" stroke="blue" cx="1650.05" cy="-178" rx="85.29" ry="18"/>
<text text-anchor="middle" x="1650.05" y="-174.3" font-family="Times,serif" font-size="14.00">information resource</text>
</g>
<!-- sequence feature relationship&#45;&gt;original knowledge source -->
<g id="edge15" class="edge">
<title>sequence feature relationship&#45;&gt;original knowledge source</title>
<path fill="none" stroke="blue" d="M1120.35,-252.04C1134.54,-250.16 1149.21,-248.38 1163.05,-247 1293.75,-233.93 1328.32,-249.65 1458.05,-229 1505.04,-221.52 1557.23,-207.55 1595.32,-196.28"/>
<polygon fill="blue" stroke="blue" points="1596.61,-199.55 1605.18,-193.32 1594.6,-192.84 1596.61,-199.55"/>
<text text-anchor="middle" x="1600.55" y="-217.8" font-family="Times,serif" font-size="14.00">original knowledge source</text>
</g>
<!-- primary knowledge source -->
<g id="node17" class="node">
<title>primary knowledge source</title>
<ellipse fill="none" stroke="blue" cx="1838.05" cy="-178" rx="85.29" ry="18"/>
<text text-anchor="middle" x="1838.05" y="-174.3" font-family="Times,serif" font-size="14.00">information resource</text>
</g>
<!-- sequence feature relationship&#45;&gt;primary knowledge source -->
<g id="edge16" class="edge">
<title>sequence feature relationship&#45;&gt;primary knowledge source</title>
<path fill="none" stroke="blue" d="M1119.34,-251.87C1133.84,-249.97 1148.88,-248.23 1163.05,-247 1390.77,-227.2 1451.68,-267.24 1677.05,-229 1716.01,-222.39 1758.66,-208.84 1790.27,-197.51"/>
<polygon fill="blue" stroke="blue" points="1791.51,-200.79 1799.71,-194.08 1789.12,-194.21 1791.51,-200.79"/>
<text text-anchor="middle" x="1809.05" y="-217.8" font-family="Times,serif" font-size="14.00">primary knowledge source</text>
</g>
<!-- aggregator knowledge source -->
<g id="node18" class="node">
<title>aggregator knowledge source</title>
<ellipse fill="none" stroke="blue" cx="2026.05" cy="-178" rx="85.29" ry="18"/>
<text text-anchor="middle" x="2026.05" y="-174.3" font-family="Times,serif" font-size="14.00">information resource</text>
</g>
<!-- sequence feature relationship&#45;&gt;aggregator knowledge source -->
<g id="edge17" class="edge">
<title>sequence feature relationship&#45;&gt;aggregator knowledge source</title>
<path fill="none" stroke="blue" d="M1118.67,-251.84C1133.38,-249.92 1148.66,-248.18 1163.05,-247 1323.23,-233.89 1728.04,-258.4 1886.05,-229 1919.52,-222.77 1955.68,-209.68 1982.87,-198.46"/>
<polygon fill="blue" stroke="blue" points="1984.23,-201.68 1992.09,-194.58 1981.51,-195.23 1984.23,-201.68"/>
<text text-anchor="middle" x="2022.05" y="-217.8" font-family="Times,serif" font-size="14.00">aggregator knowledge source</text>
</g>
<!-- type -->
<g id="node19" class="node">
<title>type</title>
<ellipse fill="none" stroke="black" cx="2156.05" cy="-178" rx="27" ry="18"/>
<text text-anchor="middle" x="2156.05" y="-174.3" font-family="Times,serif" font-size="14.00">type</text>
</g>
<!-- sequence feature relationship&#45;&gt;type -->
<g id="edge18" class="edge">
<title>sequence feature relationship&#45;&gt;type</title>
<path fill="none" stroke="blue" d="M1118.67,-251.77C1133.37,-249.85 1148.66,-248.14 1163.05,-247 1215.28,-242.88 2057.83,-249.51 2106.05,-229 2119.06,-223.46 2130.49,-212.78 2139.12,-202.71"/>
<polygon fill="blue" stroke="blue" points="2141.88,-204.86 2145.42,-194.87 2136.43,-200.48 2141.88,-204.86"/>
<text text-anchor="middle" x="2141.05" y="-217.8" font-family="Times,serif" font-size="14.00">type</text>
</g>
<!-- category -->
<g id="node21" class="node">
<title>category</title>
<ellipse fill="none" stroke="black" cx="2242.05" cy="-178" rx="40.89" ry="18"/>
<text text-anchor="middle" x="2242.05" y="-174.3" font-family="Times,serif" font-size="14.00">category</text>
</g>
<!-- sequence feature relationship&#45;&gt;category -->
<g id="edge19" class="edge">
<title>sequence feature relationship&#45;&gt;category</title>
<path fill="none" stroke="blue" d="M1118.67,-251.76C1133.37,-249.84 1148.65,-248.13 1163.05,-247 1273.17,-238.36 2050.73,-258.99 2157.05,-229 2177.9,-223.12 2198.91,-210.83 2214.82,-199.91"/>
<polygon fill="blue" stroke="blue" points="2216.98,-202.67 2223.11,-194.03 2212.93,-196.96 2216.98,-202.67"/>
<text text-anchor="middle" x="2215.55" y="-217.8" font-family="Times,serif" font-size="14.00">category</text>
</g>
<!-- subject -->
<g id="node23" class="node">
<title>subject</title>
<ellipse fill="none" stroke="black" cx="2337.05" cy="-178" rx="36" ry="18"/>
<text text-anchor="middle" x="2337.05" y="-174.3" font-family="Times,serif" font-size="14.00">subject</text>
</g>
<!-- sequence feature relationship&#45;&gt;subject -->
<g id="edge20" class="edge">
<title>sequence feature relationship&#45;&gt;subject</title>
<path fill="none" stroke="blue" d="M1118.34,-251.78C1133.14,-249.85 1148.55,-248.13 1163.05,-247 1282.7,-237.7 2126.84,-259.01 2243.05,-229 2266.52,-222.94 2290.61,-209.97 2308.52,-198.75"/>
<polygon fill="blue" stroke="blue" points="2310.79,-201.46 2317.3,-193.1 2306.99,-195.58 2310.79,-201.46"/>
<text text-anchor="middle" x="2299.55" y="-217.8" font-family="Times,serif" font-size="14.00">subject</text>
</g>
<!-- object -->
<g id="node25" class="node">
<title>object</title>
<ellipse fill="none" stroke="black" cx="2357.05" cy="-91" rx="32.49" ry="18"/>
<text text-anchor="middle" x="2357.05" y="-87.3" font-family="Times,serif" font-size="14.00">object</text>
</g>
<!-- sequence feature relationship&#45;&gt;object -->
<g id="edge21" class="edge">
<title>sequence feature relationship&#45;&gt;object</title>
<path fill="none" stroke="blue" d="M1118.34,-251.77C1133.14,-249.84 1148.55,-248.12 1163.05,-247 1227.31,-242.04 2260.81,-245.74 2323.05,-229 2352.06,-221.2 2364.11,-220.1 2382.05,-196 2396.72,-176.28 2391.36,-166.44 2394.05,-142 2394.77,-135.37 2396.68,-133.12 2394.05,-127 2391.77,-121.72 2388.27,-116.87 2384.31,-112.56"/>
<polygon fill="blue" stroke="blue" points="2386.49,-109.81 2376.84,-105.43 2381.65,-114.87 2386.49,-109.81"/>
<text text-anchor="middle" x="2410.05" y="-174.3" font-family="Times,serif" font-size="14.00">object</text>
</g>
<!-- association_type -->
<g id="node20" class="node">
<title>association_type</title>
<ellipse fill="none" stroke="blue" cx="1203.05" cy="-265" rx="30.59" ry="18"/>
<text text-anchor="middle" x="1203.05" y="-261.3" font-family="Times,serif" font-size="14.00">string</text>
</g>
<!-- association_category -->
<g id="node22" class="node">
<title>association_category</title>
<ellipse fill="none" stroke="blue" cx="1310.05" cy="-265" rx="58.49" ry="18"/>
<text text-anchor="middle" x="1310.05" y="-261.3" font-family="Times,serif" font-size="14.00">category type</text>
</g>
<!-- subject&#45;&gt;relation -->
<g id="edge23" class="edge">
<title>subject&#45;&gt;relation</title>
<path fill="none" stroke="black" stroke-dasharray="1,5" d="M2331.35,-160.08C2326.85,-146.39 2320.61,-126.58 2316.05,-109 2310.61,-88.04 2305.6,-64.03 2302.09,-46.08"/>
<polygon fill="black" stroke="black" points="2305.48,-45.19 2300.16,-36.03 2298.61,-46.51 2305.48,-45.19"/>
</g>
<!-- subject&#45;&gt;object -->
<g id="edge22" class="edge">
<title>subject&#45;&gt;object</title>
<path fill="none" stroke="black" d="M2341.09,-159.8C2343.85,-148.09 2347.55,-132.34 2350.7,-118.97"/>
<polygon fill="black" stroke="black" points="2354.19,-119.42 2353.07,-108.89 2347.38,-117.82 2354.19,-119.42"/>
<text text-anchor="middle" x="2369.05" y="-130.8" font-family="Times,serif" font-size="14.00">relation</text>
</g>
<!-- sequence feature relationship_subject -->
<g id="node24" class="node">
<title>sequence feature relationship_subject</title>
<ellipse fill="none" stroke="blue" cx="1462.05" cy="-265" rx="75.29" ry="18"/>
<text text-anchor="middle" x="1462.05" y="-261.3" font-family="Times,serif" font-size="14.00">nucleic acid entity</text>
</g>
<!-- object&#45;&gt;relation -->
<g id="edge24" class="edge">
<title>object&#45;&gt;relation</title>
<path fill="none" stroke="black" stroke-dasharray="1,5" d="M2343.73,-74.24C2335.88,-64.96 2325.81,-53.03 2317.02,-42.64"/>
<polygon fill="black" stroke="black" points="2319.45,-40.09 2310.32,-34.71 2314.11,-44.61 2319.45,-40.09"/>
</g>
<!-- sequence feature relationship_object -->
<g id="node26" class="node">
<title>sequence feature relationship_object</title>
<ellipse fill="none" stroke="blue" cx="1631.05" cy="-265" rx="75.29" ry="18"/>
<text text-anchor="middle" x="1631.05" y="-261.3" font-family="Times,serif" font-size="14.00">nucleic acid entity</text>
</g>
</g>
</svg>
