<?xml version="1.0" encoding="UTF-8" standalone="no"?>
<!DOCTYPE svg PUBLIC "-//W3C//DTD SVG 1.1//EN"
 "http://www.w3.org/Graphics/SVG/1.1/DTD/svg11.dtd">
<!-- Generated by graphviz version 2.43.0 (0)
 -->
<!-- Title: %3 Pages: 1 -->
<svg width="4887pt" height="291pt"
 viewBox="0.00 0.00 4886.74 291.00" xmlns="http://www.w3.org/2000/svg" xmlns:xlink="http://www.w3.org/1999/xlink">
<g id="graph0" class="graph" transform="scale(1 1) rotate(0) translate(4 287)">
<title>%3</title>
<polygon fill="white" stroke="transparent" points="-4,4 -4,-287 4882.74,-287 4882.74,4 -4,4"/>
<!-- sequence association -->
<g id="node1" class="node">
<title>sequence association</title>
<ellipse fill="none" stroke="black" cx="2498.39" cy="-265" rx="108.58" ry="18"/>
<text text-anchor="middle" x="2498.39" y="-261.3" font-family="Times,serif" font-size="14.00">sequence association</text>
</g>
<!-- association -->
<g id="node2" class="node">
<title>association</title>
<ellipse fill="none" stroke="black" cx="62.39" cy="-178" rx="62.29" ry="18"/>
<text text-anchor="middle" x="62.39" y="-174.3" font-family="Times,serif" font-size="14.00">association</text>
</g>
<!-- sequence association&#45;&gt;association -->
<g id="edge1" class="edge">
<title>sequence association&#45;&gt;association</title>
<path fill="none" stroke="black" d="M2389.87,-263.73C1971.69,-262.49 477.62,-256.19 266.39,-229 213.1,-222.14 153.57,-206.61 112.64,-194.67"/>
<polygon fill="black" stroke="black" points="113.49,-191.27 102.91,-191.79 111.51,-197.98 113.49,-191.27"/>
<text text-anchor="middle" x="280.39" y="-217.8" font-family="Times,serif" font-size="14.00">is_a</text>
</g>
<!-- id -->
<g id="node3" class="node">
<title>id</title>
<ellipse fill="none" stroke="blue" cx="181.39" cy="-178" rx="38.19" ry="18"/>
<text text-anchor="middle" x="181.39" y="-174.3" font-family="Times,serif" font-size="14.00">string</text>
</g>
<!-- sequence association&#45;&gt;id -->
<g id="edge2" class="edge">
<title>sequence association&#45;&gt;id</title>
<path fill="none" stroke="blue" d="M2390.07,-263.39C1987.22,-260.95 588.45,-250.98 389.39,-229 317.23,-221.03 299.34,-215.5 229.39,-196 226.29,-195.13 223.09,-194.17 219.89,-193.15"/>
<polygon fill="blue" stroke="blue" points="220.97,-189.82 210.38,-189.98 218.76,-196.46 220.97,-189.82"/>
<text text-anchor="middle" x="396.39" y="-217.8" font-family="Times,serif" font-size="14.00">id</text>
</g>
<!-- iri -->
<g id="node4" class="node">
<title>iri</title>
<ellipse fill="none" stroke="blue" cx="282.39" cy="-178" rx="44.39" ry="18"/>
<text text-anchor="middle" x="282.39" y="-174.3" font-family="Times,serif" font-size="14.00">iri type</text>
</g>
<!-- sequence association&#45;&gt;iri -->
<g id="edge3" class="edge">
<title>sequence association&#45;&gt;iri</title>
<path fill="none" stroke="blue" d="M2390.21,-263.29C2000.79,-260.56 683.57,-249.87 495.39,-229 423.23,-221 405.62,-214.45 335.39,-196 332.02,-195.11 328.55,-194.14 325.06,-193.12"/>
<polygon fill="blue" stroke="blue" points="325.9,-189.72 315.31,-190.16 323.87,-196.41 325.9,-189.72"/>
<text text-anchor="middle" x="503.39" y="-217.8" font-family="Times,serif" font-size="14.00">iri</text>
</g>
<!-- name -->
<g id="node5" class="node">
<title>name</title>
<ellipse fill="none" stroke="blue" cx="401.39" cy="-178" rx="56.59" ry="18"/>
<text text-anchor="middle" x="401.39" y="-174.3" font-family="Times,serif" font-size="14.00">label type</text>
</g>
<!-- sequence association&#45;&gt;name -->
<g id="edge4" class="edge">
<title>sequence association&#45;&gt;name</title>
<path fill="none" stroke="blue" d="M2389.96,-263.56C2011.92,-261.81 765.43,-254.17 587.39,-229 538.92,-222.15 485.05,-206.78 447.81,-194.87"/>
<polygon fill="blue" stroke="blue" points="448.84,-191.53 438.25,-191.77 446.68,-198.19 448.84,-191.53"/>
<text text-anchor="middle" x="607.39" y="-217.8" font-family="Times,serif" font-size="14.00">name</text>
</g>
<!-- description -->
<g id="node6" class="node">
<title>description</title>
<ellipse fill="none" stroke="blue" cx="551.39" cy="-178" rx="75.29" ry="18"/>
<text text-anchor="middle" x="551.39" y="-174.3" font-family="Times,serif" font-size="14.00">narrative text</text>
</g>
<!-- sequence association&#45;&gt;description -->
<g id="edge5" class="edge">
<title>sequence association&#45;&gt;description</title>
<path fill="none" stroke="blue" d="M2389.96,-264.07C2024.33,-263.99 850.26,-261.21 683.39,-229 651.71,-222.88 617.7,-209.83 592.13,-198.6"/>
<polygon fill="blue" stroke="blue" points="593.33,-195.3 582.77,-194.4 590.46,-201.68 593.33,-195.3"/>
<text text-anchor="middle" x="723.89" y="-217.8" font-family="Times,serif" font-size="14.00">description</text>
</g>
<!-- has attribute -->
<g id="node7" class="node">
<title>has attribute</title>
<ellipse fill="none" stroke="blue" cx="696.39" cy="-178" rx="51.99" ry="18"/>
<text text-anchor="middle" x="696.39" y="-174.3" font-family="Times,serif" font-size="14.00">attribute</text>
</g>
<!-- sequence association&#45;&gt;has attribute -->
<g id="edge6" class="edge">
<title>sequence association&#45;&gt;has attribute</title>
<path fill="none" stroke="blue" d="M2389.71,-264.11C2041.64,-264.12 968.34,-261.48 815.39,-229 786.11,-222.78 754.98,-209.44 731.91,-198.1"/>
<polygon fill="blue" stroke="blue" points="733.37,-194.91 722.86,-193.55 730.22,-201.17 733.37,-194.91"/>
<text text-anchor="middle" x="862.39" y="-217.8" font-family="Times,serif" font-size="14.00">has attribute</text>
</g>
<!-- subject -->
<g id="node8" class="node">
<title>subject</title>
<ellipse fill="none" stroke="blue" cx="836.39" cy="-178" rx="69.59" ry="18"/>
<text text-anchor="middle" x="836.39" y="-174.3" font-family="Times,serif" font-size="14.00">named thing</text>
</g>
<!-- sequence association&#45;&gt;subject -->
<g id="edge7" class="edge">
<title>sequence association&#45;&gt;subject</title>
<path fill="none" stroke="blue" d="M2389.93,-263.73C2063.12,-262.6 1101.85,-256.91 963.39,-229 932.94,-222.86 900.37,-209.9 875.84,-198.71"/>
<polygon fill="blue" stroke="blue" points="877.07,-195.42 866.52,-194.37 874.11,-201.76 877.07,-195.42"/>
<text text-anchor="middle" x="989.39" y="-217.8" font-family="Times,serif" font-size="14.00">subject</text>
</g>
<!-- predicate -->
<g id="node9" class="node">
<title>predicate</title>
<ellipse fill="none" stroke="blue" cx="1002.39" cy="-178" rx="77.99" ry="18"/>
<text text-anchor="middle" x="1002.39" y="-174.3" font-family="Times,serif" font-size="14.00">predicate type</text>
</g>
<!-- sequence association&#45;&gt;predicate -->
<g id="edge8" class="edge">
<title>sequence association&#45;&gt;predicate</title>
<path fill="none" stroke="blue" d="M2389.89,-264.18C2060.85,-264.37 1093.17,-262.09 1034.39,-229 1024.96,-223.69 1017.89,-214.33 1012.82,-205.13"/>
<polygon fill="blue" stroke="blue" points="1015.95,-203.57 1008.41,-196.14 1009.67,-206.65 1015.95,-203.57"/>
<text text-anchor="middle" x="1068.39" y="-217.8" font-family="Times,serif" font-size="14.00">predicate</text>
</g>
<!-- object -->
<g id="node10" class="node">
<title>object</title>
<ellipse fill="none" stroke="blue" cx="934.39" cy="-91" rx="69.59" ry="18"/>
<text text-anchor="middle" x="934.39" y="-87.3" font-family="Times,serif" font-size="14.00">named thing</text>
</g>
<!-- sequence association&#45;&gt;object -->
<g id="edge9" class="edge">
<title>sequence association&#45;&gt;object</title>
<path fill="none" stroke="blue" d="M2390.92,-262.4C2144.36,-258.48 1543.86,-247.3 1342.39,-229 1245.24,-220.17 1212.45,-240.02 1125.39,-196 1105.2,-185.79 1108.08,-172.77 1089.39,-160 1057.29,-138.07 1016.97,-120.64 985.5,-108.92"/>
<polygon fill="blue" stroke="blue" points="986.63,-105.61 976.03,-105.47 984.23,-112.18 986.63,-105.61"/>
<text text-anchor="middle" x="1147.39" y="-174.3" font-family="Times,serif" font-size="14.00">object</text>
</g>
<!-- negated -->
<g id="node11" class="node">
<title>negated</title>
<ellipse fill="none" stroke="blue" cx="1225.39" cy="-178" rx="46.59" ry="18"/>
<text text-anchor="middle" x="1225.39" y="-174.3" font-family="Times,serif" font-size="14.00">boolean</text>
</g>
<!-- sequence association&#45;&gt;negated -->
<g id="edge10" class="edge">
<title>sequence association&#45;&gt;negated</title>
<path fill="none" stroke="blue" d="M2390.09,-263.14C2155.71,-260.86 1607.75,-253.04 1423.39,-229 1369.59,-221.98 1309.36,-205.49 1269.61,-193.36"/>
<polygon fill="blue" stroke="blue" points="1270.55,-189.98 1259.96,-190.37 1268.48,-196.67 1270.55,-189.98"/>
<text text-anchor="middle" x="1452.39" y="-217.8" font-family="Times,serif" font-size="14.00">negated</text>
</g>
<!-- qualifiers -->
<g id="node12" class="node">
<title>qualifiers</title>
<ellipse fill="none" stroke="blue" cx="1366.39" cy="-178" rx="76.89" ry="18"/>
<text text-anchor="middle" x="1366.39" y="-174.3" font-family="Times,serif" font-size="14.00">ontology class</text>
</g>
<!-- sequence association&#45;&gt;qualifiers -->
<g id="edge11" class="edge">
<title>sequence association&#45;&gt;qualifiers</title>
<path fill="none" stroke="blue" d="M2390.25,-263.06C2177.38,-260.71 1710.94,-252.93 1552.39,-229 1506.11,-222.01 1454.82,-207.72 1417.85,-196.19"/>
<polygon fill="blue" stroke="blue" points="1418.88,-192.85 1408.29,-193.18 1416.78,-199.53 1418.88,-192.85"/>
<text text-anchor="middle" x="1585.89" y="-217.8" font-family="Times,serif" font-size="14.00">qualifiers</text>
</g>
<!-- publications -->
<g id="node13" class="node">
<title>publications</title>
<ellipse fill="none" stroke="blue" cx="1523.39" cy="-178" rx="62.29" ry="18"/>
<text text-anchor="middle" x="1523.39" y="-174.3" font-family="Times,serif" font-size="14.00">publication</text>
</g>
<!-- sequence association&#45;&gt;publications -->
<g id="edge12" class="edge">
<title>sequence association&#45;&gt;publications</title>
<path fill="none" stroke="blue" d="M2390.45,-262.96C2200.18,-260.54 1812.67,-252.76 1679.39,-229 1640.74,-222.11 1598.41,-208.11 1567.61,-196.67"/>
<polygon fill="blue" stroke="blue" points="1568.62,-193.31 1558.03,-193.06 1566.15,-199.86 1568.62,-193.31"/>
<text text-anchor="middle" x="1723.39" y="-217.8" font-family="Times,serif" font-size="14.00">publications</text>
</g>
<!-- has evidence -->
<g id="node14" class="node">
<title>has evidence</title>
<ellipse fill="none" stroke="blue" cx="1679.39" cy="-178" rx="75.29" ry="18"/>
<text text-anchor="middle" x="1679.39" y="-174.3" font-family="Times,serif" font-size="14.00">evidence type</text>
</g>
<!-- sequence association&#45;&gt;has evidence -->
<g id="edge13" class="edge">
<title>sequence association&#45;&gt;has evidence</title>
<path fill="none" stroke="blue" d="M2391.07,-262.12C2228.83,-258.64 1928.84,-249.61 1823.39,-229 1788.89,-222.26 1751.42,-209.05 1723.36,-197.9"/>
<polygon fill="blue" stroke="blue" points="1724.43,-194.56 1713.84,-194.06 1721.8,-201.05 1724.43,-194.56"/>
<text text-anchor="middle" x="1869.89" y="-217.8" font-family="Times,serif" font-size="14.00">has evidence</text>
</g>
<!-- knowledge source -->
<g id="node15" class="node">
<title>knowledge source</title>
<ellipse fill="none" stroke="blue" cx="1881.39" cy="-178" rx="108.58" ry="18"/>
<text text-anchor="middle" x="1881.39" y="-174.3" font-family="Times,serif" font-size="14.00">information resource</text>
</g>
<!-- sequence association&#45;&gt;knowledge source -->
<g id="edge14" class="edge">
<title>sequence association&#45;&gt;knowledge source</title>
<path fill="none" stroke="blue" d="M2389.79,-264.68C2252.29,-264.25 2023.85,-258.82 1945.39,-229 1930.44,-223.32 1916.17,-212.85 1904.91,-202.96"/>
<polygon fill="blue" stroke="blue" points="1907.01,-200.13 1897.29,-195.93 1902.27,-205.28 1907.01,-200.13"/>
<text text-anchor="middle" x="2009.89" y="-217.8" font-family="Times,serif" font-size="14.00">knowledge source</text>
</g>
<!-- primary knowledge source -->
<g id="node16" class="node">
<title>primary knowledge source</title>
<ellipse fill="none" stroke="blue" cx="2116.39" cy="-178" rx="108.58" ry="18"/>
<text text-anchor="middle" x="2116.39" y="-174.3" font-family="Times,serif" font-size="14.00">information resource</text>
</g>
<!-- sequence association&#45;&gt;primary knowledge source -->
<g id="edge15" class="edge">
<title>sequence association&#45;&gt;primary knowledge source</title>
<path fill="none" stroke="blue" d="M2390.99,-262.38C2274.41,-259.48 2102,-251.41 2081.39,-229 2074.07,-221.04 2078.16,-211.47 2085.71,-202.85"/>
<polygon fill="blue" stroke="blue" points="2088.41,-205.11 2093.05,-195.58 2083.48,-200.13 2088.41,-205.11"/>
<text text-anchor="middle" x="2176.39" y="-217.8" font-family="Times,serif" font-size="14.00">primary knowledge source</text>
</g>
<!-- aggregator knowledge source -->
<g id="node17" class="node">
<title>aggregator knowledge source</title>
<ellipse fill="none" stroke="blue" cx="2351.39" cy="-178" rx="108.58" ry="18"/>
<text text-anchor="middle" x="2351.39" y="-174.3" font-family="Times,serif" font-size="14.00">information resource</text>
</g>
<!-- sequence association&#45;&gt;aggregator knowledge source -->
<g id="edge16" class="edge">
<title>sequence association&#45;&gt;aggregator knowledge source</title>
<path fill="none" stroke="blue" d="M2394.03,-259.99C2345.29,-255.69 2294.67,-246.91 2279.39,-229 2269.32,-217.19 2278.7,-206.86 2293.63,-198.69"/>
<polygon fill="blue" stroke="blue" points="2295.51,-201.67 2302.96,-194.15 2292.44,-195.38 2295.51,-201.67"/>
<text text-anchor="middle" x="2385.89" y="-217.8" font-family="Times,serif" font-size="14.00">aggregator knowledge source</text>
</g>
<!-- timepoint -->
<g id="node18" class="node">
<title>timepoint</title>
<ellipse fill="none" stroke="blue" cx="2533.39" cy="-178" rx="55.49" ry="18"/>
<text text-anchor="middle" x="2533.39" y="-174.3" font-family="Times,serif" font-size="14.00">time type</text>
</g>
<!-- sequence association&#45;&gt;timepoint -->
<g id="edge17" class="edge">
<title>sequence association&#45;&gt;timepoint</title>
<path fill="none" stroke="blue" d="M2495.68,-246.69C2494.86,-236.76 2495.11,-224.26 2499.39,-214 2501.08,-209.95 2503.48,-206.11 2506.23,-202.56"/>
<polygon fill="blue" stroke="blue" points="2509.07,-204.63 2513.11,-194.83 2503.84,-199.97 2509.07,-204.63"/>
<text text-anchor="middle" x="2534.39" y="-217.8" font-family="Times,serif" font-size="14.00">timepoint</text>
</g>
<!-- original subject -->
<g id="node19" class="node">
<title>original subject</title>
<ellipse fill="none" stroke="blue" cx="2645.39" cy="-178" rx="38.19" ry="18"/>
<text text-anchor="middle" x="2645.39" y="-174.3" font-family="Times,serif" font-size="14.00">string</text>
</g>
<!-- sequence association&#45;&gt;original subject -->
<g id="edge18" class="edge">
<title>sequence association&#45;&gt;original subject</title>
<path fill="none" stroke="blue" d="M2533.15,-247.93C2544.83,-242.25 2557.83,-235.62 2569.39,-229 2570.63,-228.29 2594.65,-212.48 2615.35,-198.82"/>
<polygon fill="blue" stroke="blue" points="2617.53,-201.58 2623.95,-193.16 2613.67,-195.74 2617.53,-201.58"/>
<text text-anchor="middle" x="2647.39" y="-217.8" font-family="Times,serif" font-size="14.00">original subject</text>
</g>
<!-- original predicate -->
<g id="node20" class="node">
<title>original predicate</title>
<ellipse fill="none" stroke="blue" cx="2759.39" cy="-178" rx="57.39" ry="18"/>
<text text-anchor="middle" x="2759.39" y="-174.3" font-family="Times,serif" font-size="14.00">uriorcurie</text>
</g>
<!-- sequence association&#45;&gt;original predicate -->
<g id="edge19" class="edge">
<title>sequence association&#45;&gt;original predicate</title>
<path fill="none" stroke="blue" d="M2577.96,-252.67C2630.92,-244.75 2692.84,-234.63 2704.39,-229 2717.21,-222.76 2729.21,-212.6 2738.71,-203.05"/>
<polygon fill="blue" stroke="blue" points="2741.41,-205.29 2745.76,-195.62 2736.33,-200.47 2741.41,-205.29"/>
<text text-anchor="middle" x="2789.89" y="-217.8" font-family="Times,serif" font-size="14.00">original predicate</text>
</g>
<!-- original object -->
<g id="node21" class="node">
<title>original object</title>
<ellipse fill="none" stroke="blue" cx="2873.39" cy="-178" rx="38.19" ry="18"/>
<text text-anchor="middle" x="2873.39" y="-174.3" font-family="Times,serif" font-size="14.00">string</text>
</g>
<!-- sequence association&#45;&gt;original object -->
<g id="edge20" class="edge">
<title>sequence association&#45;&gt;original object</title>
<path fill="none" stroke="blue" d="M2575.1,-252.18C2588.83,-250.29 2603.02,-248.47 2616.39,-247 2642.76,-244.11 2833.15,-244.87 2854.39,-229 2861.77,-223.49 2866.29,-214.74 2869.05,-206.09"/>
<polygon fill="blue" stroke="blue" points="2872.49,-206.74 2871.55,-196.19 2865.71,-205.03 2872.49,-206.74"/>
<text text-anchor="middle" x="2917.89" y="-217.8" font-family="Times,serif" font-size="14.00">original object</text>
</g>
<!-- subject category -->
<g id="node22" class="node">
<title>subject category</title>
<ellipse fill="none" stroke="blue" cx="3006.39" cy="-178" rx="76.89" ry="18"/>
<text text-anchor="middle" x="3006.39" y="-174.3" font-family="Times,serif" font-size="14.00">ontology class</text>
</g>
<!-- sequence association&#45;&gt;subject category -->
<g id="edge21" class="edge">
<title>sequence association&#45;&gt;subject category</title>
<path fill="none" stroke="blue" d="M2574.12,-252.03C2588.15,-250.12 2602.69,-248.33 2616.39,-247 2655.93,-243.16 2938.91,-248.7 2973.39,-229 2982.88,-223.58 2990.13,-214.2 2995.39,-205.01"/>
<polygon fill="blue" stroke="blue" points="2998.54,-206.54 3000,-196.05 2992.32,-203.34 2998.54,-206.54"/>
<text text-anchor="middle" x="3048.89" y="-217.8" font-family="Times,serif" font-size="14.00">subject category</text>
</g>
<!-- object category -->
<g id="node23" class="node">
<title>object category</title>
<ellipse fill="none" stroke="blue" cx="3177.39" cy="-178" rx="76.89" ry="18"/>
<text text-anchor="middle" x="3177.39" y="-174.3" font-family="Times,serif" font-size="14.00">ontology class</text>
</g>
<!-- sequence association&#45;&gt;object category -->
<g id="edge22" class="edge">
<title>sequence association&#45;&gt;object category</title>
<path fill="none" stroke="blue" d="M2573.48,-251.96C2587.7,-250.02 2602.48,-248.25 2616.39,-247 2671.32,-242.06 3060.52,-247.7 3112.39,-229 3127.85,-223.43 3142.57,-212.72 3154.09,-202.64"/>
<polygon fill="blue" stroke="blue" points="3156.51,-205.17 3161.52,-195.84 3151.78,-200.01 3156.51,-205.17"/>
<text text-anchor="middle" x="3195.89" y="-217.8" font-family="Times,serif" font-size="14.00">object category</text>
</g>
<!-- subject closure -->
<g id="node24" class="node">
<title>subject closure</title>
<ellipse fill="none" stroke="blue" cx="3310.39" cy="-178" rx="38.19" ry="18"/>
<text text-anchor="middle" x="3310.39" y="-174.3" font-family="Times,serif" font-size="14.00">string</text>
</g>
<!-- sequence association&#45;&gt;subject closure -->
<g id="edge23" class="edge">
<title>sequence association&#45;&gt;subject closure</title>
<path fill="none" stroke="blue" d="M2573.15,-251.91C2587.47,-249.97 2602.37,-248.2 2616.39,-247 2687.16,-240.93 3189.51,-255.54 3255.39,-229 3269.13,-223.47 3281.6,-212.85 3291.18,-202.81"/>
<polygon fill="blue" stroke="blue" points="3293.82,-205.12 3297.92,-195.35 3288.62,-200.43 3293.82,-205.12"/>
<text text-anchor="middle" x="3333.89" y="-217.8" font-family="Times,serif" font-size="14.00">subject closure</text>
</g>
<!-- object closure -->
<g id="node25" class="node">
<title>object closure</title>
<ellipse fill="none" stroke="blue" cx="3408.39" cy="-178" rx="38.19" ry="18"/>
<text text-anchor="middle" x="3408.39" y="-174.3" font-family="Times,serif" font-size="14.00">string</text>
</g>
<!-- sequence association&#45;&gt;object closure -->
<g id="edge24" class="edge">
<title>sequence association&#45;&gt;object closure</title>
<path fill="none" stroke="blue" d="M2572.83,-251.9C2587.25,-249.94 2602.27,-248.18 2616.39,-247 2659.15,-243.43 3353.15,-253.46 3388.39,-229 3396.1,-223.65 3400.83,-214.83 3403.74,-206.06"/>
<polygon fill="blue" stroke="blue" points="3407.13,-206.95 3406.32,-196.39 3400.37,-205.15 3407.13,-206.95"/>
<text text-anchor="middle" x="3450.39" y="-217.8" font-family="Times,serif" font-size="14.00">object closure</text>
</g>
<!-- subject category closure -->
<g id="node26" class="node">
<title>subject category closure</title>
<ellipse fill="none" stroke="blue" cx="3541.39" cy="-178" rx="76.89" ry="18"/>
<text text-anchor="middle" x="3541.39" y="-174.3" font-family="Times,serif" font-size="14.00">ontology class</text>
</g>
<!-- sequence association&#45;&gt;subject category closure -->
<g id="edge25" class="edge">
<title>sequence association&#45;&gt;subject category closure</title>
<path fill="none" stroke="blue" d="M2572.83,-251.86C2587.25,-249.91 2602.26,-248.16 2616.39,-247 2665.57,-242.97 3460.56,-251.65 3504.39,-229 3514.57,-223.74 3522.67,-214.25 3528.66,-204.94"/>
<polygon fill="blue" stroke="blue" points="3531.74,-206.62 3533.76,-196.22 3525.69,-203.09 3531.74,-206.62"/>
<text text-anchor="middle" x="3608.89" y="-217.8" font-family="Times,serif" font-size="14.00">subject category closure</text>
</g>
<!-- object category closure -->
<g id="node27" class="node">
<title>object category closure</title>
<ellipse fill="none" stroke="blue" cx="3731.39" cy="-178" rx="76.89" ry="18"/>
<text text-anchor="middle" x="3731.39" y="-174.3" font-family="Times,serif" font-size="14.00">ontology class</text>
</g>
<!-- sequence association&#45;&gt;object category closure -->
<g id="edge26" class="edge">
<title>sequence association&#45;&gt;object category closure</title>
<path fill="none" stroke="blue" d="M2572.83,-251.82C2587.24,-249.87 2602.26,-248.13 2616.39,-247 2646.41,-244.6 3674.2,-243.86 3700.39,-229 3709.62,-223.76 3716.47,-214.54 3721.34,-205.43"/>
<polygon fill="blue" stroke="blue" points="3724.62,-206.68 3725.73,-196.15 3718.29,-203.69 3724.62,-206.68"/>
<text text-anchor="middle" x="3798.89" y="-217.8" font-family="Times,serif" font-size="14.00">object category closure</text>
</g>
<!-- subject namespace -->
<g id="node28" class="node">
<title>subject namespace</title>
<ellipse fill="none" stroke="blue" cx="3921.39" cy="-178" rx="38.19" ry="18"/>
<text text-anchor="middle" x="3921.39" y="-174.3" font-family="Times,serif" font-size="14.00">string</text>
</g>
<!-- sequence association&#45;&gt;subject namespace -->
<g id="edge27" class="edge">
<title>sequence association&#45;&gt;subject namespace</title>
<path fill="none" stroke="blue" d="M2572.51,-251.83C2587.02,-249.87 2602.16,-248.12 2616.39,-247 2651.57,-244.23 3855.22,-245.51 3886.39,-229 3896.47,-223.66 3904.26,-213.98 3909.9,-204.54"/>
<polygon fill="blue" stroke="blue" points="3912.99,-206.19 3914.66,-195.72 3906.83,-202.86 3912.99,-206.19"/>
<text text-anchor="middle" x="3971.39" y="-217.8" font-family="Times,serif" font-size="14.00">subject namespace</text>
</g>
<!-- object namespace -->
<g id="node29" class="node">
<title>object namespace</title>
<ellipse fill="none" stroke="blue" cx="4080.39" cy="-178" rx="38.19" ry="18"/>
<text text-anchor="middle" x="4080.39" y="-174.3" font-family="Times,serif" font-size="14.00">string</text>
</g>
<!-- sequence association&#45;&gt;object namespace -->
<g id="edge28" class="edge">
<title>sequence association&#45;&gt;object namespace</title>
<path fill="none" stroke="blue" d="M2572.51,-251.82C2587.02,-249.86 2602.16,-248.11 2616.39,-247 2655.92,-243.92 4008.11,-247.07 4043.39,-229 4053.74,-223.7 4061.92,-214.03 4067.94,-204.59"/>
<polygon fill="blue" stroke="blue" points="4071.07,-206.17 4073.04,-195.76 4065,-202.67 4071.07,-206.17"/>
<text text-anchor="middle" x="4124.39" y="-217.8" font-family="Times,serif" font-size="14.00">object namespace</text>
</g>
<!-- subject label closure -->
<g id="node30" class="node">
<title>subject label closure</title>
<ellipse fill="none" stroke="blue" cx="4231.39" cy="-178" rx="38.19" ry="18"/>
<text text-anchor="middle" x="4231.39" y="-174.3" font-family="Times,serif" font-size="14.00">string</text>
</g>
<!-- sequence association&#45;&gt;subject label closure -->
<g id="edge29" class="edge">
<title>sequence association&#45;&gt;subject label closure</title>
<path fill="none" stroke="blue" d="M2572.51,-251.8C2587.02,-249.85 2602.16,-248.1 2616.39,-247 2660.04,-243.62 4153.16,-248.43 4192.39,-229 4203.12,-223.69 4211.77,-213.87 4218.17,-204.33"/>
<polygon fill="blue" stroke="blue" points="4221.17,-206.14 4223.41,-195.79 4215.2,-202.48 4221.17,-206.14"/>
<text text-anchor="middle" x="4284.39" y="-217.8" font-family="Times,serif" font-size="14.00">subject label closure</text>
</g>
<!-- object label closure -->
<g id="node31" class="node">
<title>object label closure</title>
<ellipse fill="none" stroke="blue" cx="4402.39" cy="-178" rx="38.19" ry="18"/>
<text text-anchor="middle" x="4402.39" y="-174.3" font-family="Times,serif" font-size="14.00">string</text>
</g>
<!-- sequence association&#45;&gt;object label closure -->
<g id="edge30" class="edge">
<title>sequence association&#45;&gt;object label closure</title>
<path fill="none" stroke="blue" d="M2572.5,-251.79C2587.02,-249.83 2602.16,-248.09 2616.39,-247 2664.75,-243.28 4318.79,-250.24 4362.39,-229 4373.26,-223.71 4382.11,-213.89 4388.7,-204.35"/>
<polygon fill="blue" stroke="blue" points="4391.72,-206.13 4394.11,-195.8 4385.8,-202.38 4391.72,-206.13"/>
<text text-anchor="middle" x="4450.89" y="-217.8" font-family="Times,serif" font-size="14.00">object label closure</text>
</g>
<!-- retrieval source ids -->
<g id="node32" class="node">
<title>retrieval source ids</title>
<ellipse fill="none" stroke="blue" cx="4564.39" cy="-178" rx="84.49" ry="18"/>
<text text-anchor="middle" x="4564.39" y="-174.3" font-family="Times,serif" font-size="14.00">retrieval source</text>
</g>
<!-- sequence association&#45;&gt;retrieval source ids -->
<g id="edge31" class="edge">
<title>sequence association&#45;&gt;retrieval source ids</title>
<path fill="none" stroke="blue" d="M2572.5,-251.78C2587.02,-249.82 2602.15,-248.09 2616.39,-247 2669.24,-242.96 4476.73,-252.19 4524.39,-229 4535.11,-223.79 4543.86,-214.17 4550.42,-204.76"/>
<polygon fill="blue" stroke="blue" points="4553.39,-206.61 4555.82,-196.3 4547.49,-202.85 4553.39,-206.61"/>
<text text-anchor="middle" x="4612.89" y="-217.8" font-family="Times,serif" font-size="14.00">retrieval source ids</text>
</g>
<!-- type -->
<g id="node33" class="node">
<title>type</title>
<ellipse fill="none" stroke="black" cx="4726.39" cy="-178" rx="31.4" ry="18"/>
<text text-anchor="middle" x="4726.39" y="-174.3" font-family="Times,serif" font-size="14.00">type</text>
</g>
<!-- sequence association&#45;&gt;type -->
<g id="edge32" class="edge">
<title>sequence association&#45;&gt;type</title>
<path fill="none" stroke="blue" d="M2572.5,-251.77C2587.02,-249.82 2602.15,-248.08 2616.39,-247 2673.73,-242.64 4634.68,-254.13 4686.39,-229 4697.26,-223.72 4706.12,-213.9 4712.7,-204.36"/>
<polygon fill="blue" stroke="blue" points="4715.72,-206.13 4718.11,-195.81 4709.81,-202.39 4715.72,-206.13"/>
<text text-anchor="middle" x="4721.39" y="-217.8" font-family="Times,serif" font-size="14.00">type</text>
</g>
<!-- category -->
<g id="node35" class="node">
<title>category</title>
<ellipse fill="none" stroke="black" cx="4827.39" cy="-178" rx="51.19" ry="18"/>
<text text-anchor="middle" x="4827.39" y="-174.3" font-family="Times,serif" font-size="14.00">category</text>
</g>
<!-- sequence association&#45;&gt;category -->
<g id="edge33" class="edge">
<title>sequence association&#45;&gt;category</title>
<path fill="none" stroke="blue" d="M2572.5,-251.77C2587.02,-249.81 2602.15,-248.08 2616.39,-247 2734.12,-238.06 4627.54,-260.21 4741.39,-229 4762.05,-223.34 4782.88,-211.42 4798.87,-200.65"/>
<polygon fill="blue" stroke="blue" points="4801.01,-203.42 4807.21,-194.82 4797.01,-197.67 4801.01,-203.42"/>
<text text-anchor="middle" x="4807.89" y="-217.8" font-family="Times,serif" font-size="14.00">category</text>
</g>
<!-- subject&#45;&gt;object -->
<g id="edge34" class="edge">
<title>subject&#45;&gt;object</title>
<path fill="none" stroke="black" d="M855.29,-160.61C870.2,-147.68 891.19,-129.47 907.8,-115.07"/>
<polygon fill="black" stroke="black" points="910.3,-117.53 915.56,-108.34 905.71,-112.25 910.3,-117.53"/>
<text text-anchor="middle" x="919.39" y="-130.8" font-family="Times,serif" font-size="14.00">relation</text>
</g>
<!-- relation -->
<g id="node37" class="node">
<title>relation</title>
<ellipse fill="none" stroke="black" cx="848.39" cy="-18" rx="46.59" ry="18"/>
<text text-anchor="middle" x="848.39" y="-14.3" font-family="Times,serif" font-size="14.00">relation</text>
</g>
<!-- subject&#45;&gt;relation -->
<g id="edge35" class="edge">
<title>subject&#45;&gt;relation</title>
<path fill="none" stroke="black" stroke-dasharray="1,5" d="M837.7,-159.79C839.78,-132.48 843.84,-78.99 846.31,-46.38"/>
<polygon fill="black" stroke="black" points="849.82,-46.42 847.09,-36.19 842.84,-45.89 849.82,-46.42"/>
</g>
<!-- object&#45;&gt;relation -->
<g id="edge36" class="edge">
<title>object&#45;&gt;relation</title>
<path fill="none" stroke="black" stroke-dasharray="1,5" d="M914.45,-73.53C902.81,-63.92 887.97,-51.67 875.3,-41.21"/>
<polygon fill="black" stroke="black" points="877.29,-38.31 867.35,-34.65 872.83,-43.71 877.29,-38.31"/>
</g>
<!-- association_type -->
<g id="node34" class="node">
<title>association_type</title>
<ellipse fill="none" stroke="blue" cx="2663.39" cy="-265" rx="38.19" ry="18"/>
<text text-anchor="middle" x="2663.39" y="-261.3" font-family="Times,serif" font-size="14.00">string</text>
</g>
<!-- association_category -->
<g id="node36" class="node">
<title>association_category</title>
<ellipse fill="none" stroke="blue" cx="2794.39" cy="-265" rx="74.99" ry="18"/>
<text text-anchor="middle" x="2794.39" y="-261.3" font-family="Times,serif" font-size="14.00">category type</text>
</g>
</g>
</svg>
