<?xml version="1.0" encoding="UTF-8" standalone="no"?>
<!DOCTYPE svg PUBLIC "-//W3C//DTD SVG 1.1//EN"
 "http://www.w3.org/Graphics/SVG/1.1/DTD/svg11.dtd">
<!-- Generated by graphviz version 2.43.0 (0)
 -->
<!-- Title: %3 Pages: 1 -->
<svg width="2285pt" height="131pt"
 viewBox="0.00 0.00 2284.59 131.00" xmlns="http://www.w3.org/2000/svg" xmlns:xlink="http://www.w3.org/1999/xlink">
<g id="graph0" class="graph" transform="scale(1 1) rotate(0) translate(4 127)">
<title>%3</title>
<polygon fill="white" stroke="transparent" points="-4,4 -4,-127 2280.59,-127 2280.59,4 -4,4"/>
<!-- serial -->
<g id="node1" class="node">
<title>serial</title>
<ellipse fill="none" stroke="black" cx="1216.39" cy="-105" rx="36.29" ry="18"/>
<text text-anchor="middle" x="1216.39" y="-101.3" font-family="Times,serif" font-size="14.00">serial</text>
</g>
<!-- publication -->
<g id="node2" class="node">
<title>publication</title>
<ellipse fill="none" stroke="black" cx="62.39" cy="-18" rx="62.29" ry="18"/>
<text text-anchor="middle" x="62.39" y="-14.3" font-family="Times,serif" font-size="14.00">publication</text>
</g>
<!-- serial&#45;&gt;publication -->
<g id="edge1" class="edge">
<title>serial&#45;&gt;publication</title>
<path fill="none" stroke="black" d="M1180.02,-103.68C1028.2,-102.18 444.54,-94.82 262.39,-69 210.62,-61.66 152.79,-46.41 112.69,-34.67"/>
<polygon fill="black" stroke="black" points="113.47,-31.25 102.89,-31.77 111.48,-37.96 113.47,-31.25"/>
<text text-anchor="middle" x="276.39" y="-57.8" font-family="Times,serif" font-size="14.00">is_a</text>
</g>
<!-- iri -->
<g id="node3" class="node">
<title>iri</title>
<ellipse fill="none" stroke="blue" cx="187.39" cy="-18" rx="44.39" ry="18"/>
<text text-anchor="middle" x="187.39" y="-14.3" font-family="Times,serif" font-size="14.00">iri type</text>
</g>
<!-- serial&#45;&gt;iri -->
<g id="edge2" class="edge">
<title>serial&#45;&gt;iri</title>
<path fill="none" stroke="blue" d="M1180.05,-103.6C1038.46,-101.87 523.7,-93.97 362.39,-69 315.79,-61.78 264.03,-45.98 228.98,-34.06"/>
<polygon fill="blue" stroke="blue" points="229.71,-30.61 219.11,-30.66 227.42,-37.23 229.71,-30.61"/>
<text text-anchor="middle" x="370.39" y="-57.8" font-family="Times,serif" font-size="14.00">iri</text>
</g>
<!-- description -->
<g id="node4" class="node">
<title>description</title>
<ellipse fill="none" stroke="blue" cx="325.39" cy="-18" rx="75.29" ry="18"/>
<text text-anchor="middle" x="325.39" y="-14.3" font-family="Times,serif" font-size="14.00">narrative text</text>
</g>
<!-- serial&#45;&gt;description -->
<g id="edge3" class="edge">
<title>serial&#45;&gt;description</title>
<path fill="none" stroke="blue" d="M1179.96,-103.34C1033.79,-100.54 494.17,-88.96 420.39,-69 398.33,-63.03 375.61,-51.31 357.92,-40.71"/>
<polygon fill="blue" stroke="blue" points="359.51,-37.58 349.16,-35.31 355.83,-43.54 359.51,-37.58"/>
<text text-anchor="middle" x="460.89" y="-57.8" font-family="Times,serif" font-size="14.00">description</text>
</g>
<!-- has attribute -->
<g id="node5" class="node">
<title>has attribute</title>
<ellipse fill="none" stroke="blue" cx="470.39" cy="-18" rx="51.99" ry="18"/>
<text text-anchor="middle" x="470.39" y="-14.3" font-family="Times,serif" font-size="14.00">attribute</text>
</g>
<!-- serial&#45;&gt;has attribute -->
<g id="edge4" class="edge">
<title>serial&#45;&gt;has attribute</title>
<path fill="none" stroke="blue" d="M1179.82,-103.54C1046.03,-101.68 587.95,-93.57 527.39,-69 513.59,-63.4 500.85,-52.98 490.94,-43.1"/>
<polygon fill="blue" stroke="blue" points="493.36,-40.57 483.93,-35.73 488.29,-45.39 493.36,-40.57"/>
<text text-anchor="middle" x="574.39" y="-57.8" font-family="Times,serif" font-size="14.00">has attribute</text>
</g>
<!-- provided by -->
<g id="node6" class="node">
<title>provided by</title>
<ellipse fill="none" stroke="blue" cx="578.39" cy="-18" rx="38.19" ry="18"/>
<text text-anchor="middle" x="578.39" y="-14.3" font-family="Times,serif" font-size="14.00">string</text>
</g>
<!-- serial&#45;&gt;provided by -->
<g id="edge5" class="edge">
<title>serial&#45;&gt;provided by</title>
<path fill="none" stroke="blue" d="M1179.86,-104.16C1071.33,-104.26 752.34,-101.68 654.39,-69 636.03,-62.87 617.83,-51.15 603.85,-40.6"/>
<polygon fill="blue" stroke="blue" points="605.75,-37.65 595.72,-34.24 601.44,-43.16 605.75,-37.65"/>
<text text-anchor="middle" x="696.89" y="-57.8" font-family="Times,serif" font-size="14.00">provided by</text>
</g>
<!-- category -->
<g id="node7" class="node">
<title>category</title>
<ellipse fill="none" stroke="black" cx="686.39" cy="-18" rx="51.19" ry="18"/>
<text text-anchor="middle" x="686.39" y="-14.3" font-family="Times,serif" font-size="14.00">category</text>
</g>
<!-- serial&#45;&gt;category -->
<g id="edge6" class="edge">
<title>serial&#45;&gt;category</title>
<path fill="none" stroke="blue" d="M1179.92,-103.09C1088.5,-100.49 851.59,-91.7 776.39,-69 755.32,-62.64 733.68,-50.82 716.91,-40.27"/>
<polygon fill="blue" stroke="blue" points="718.42,-37.08 708.13,-34.58 714.62,-42.96 718.42,-37.08"/>
<text text-anchor="middle" x="807.89" y="-57.8" font-family="Times,serif" font-size="14.00">category</text>
</g>
<!-- license -->
<g id="node9" class="node">
<title>license</title>
<ellipse fill="none" stroke="blue" cx="794.39" cy="-18" rx="38.19" ry="18"/>
<text text-anchor="middle" x="794.39" y="-14.3" font-family="Times,serif" font-size="14.00">string</text>
</g>
<!-- serial&#45;&gt;license -->
<g id="edge7" class="edge">
<title>serial&#45;&gt;license</title>
<path fill="none" stroke="blue" d="M1180.18,-102.41C1103.96,-98.71 929.4,-88.37 873.39,-69 854.42,-62.44 835.33,-50.54 820.67,-40"/>
<polygon fill="blue" stroke="blue" points="822.71,-37.15 812.59,-34 818.53,-42.77 822.71,-37.15"/>
<text text-anchor="middle" x="898.39" y="-57.8" font-family="Times,serif" font-size="14.00">license</text>
</g>
<!-- rights -->
<g id="node10" class="node">
<title>rights</title>
<ellipse fill="none" stroke="blue" cx="889.39" cy="-18" rx="38.19" ry="18"/>
<text text-anchor="middle" x="889.39" y="-14.3" font-family="Times,serif" font-size="14.00">string</text>
</g>
<!-- serial&#45;&gt;rights -->
<g id="edge8" class="edge">
<title>serial&#45;&gt;rights</title>
<path fill="none" stroke="blue" d="M1180.22,-101.65C1117.6,-97.18 991.81,-86.32 951.39,-69 936.67,-62.69 922.57,-51.84 911.55,-41.87"/>
<polygon fill="blue" stroke="blue" points="913.78,-39.16 904.1,-34.83 908.97,-44.24 913.78,-39.16"/>
<text text-anchor="middle" x="972.89" y="-57.8" font-family="Times,serif" font-size="14.00">rights</text>
</g>
<!-- format -->
<g id="node11" class="node">
<title>format</title>
<ellipse fill="none" stroke="blue" cx="984.39" cy="-18" rx="38.19" ry="18"/>
<text text-anchor="middle" x="984.39" y="-14.3" font-family="Times,serif" font-size="14.00">string</text>
</g>
<!-- serial&#45;&gt;format -->
<g id="edge9" class="edge">
<title>serial&#45;&gt;format</title>
<path fill="none" stroke="blue" d="M1180.33,-101.62C1128.92,-97.6 1037.87,-88 1011.39,-69 1003.27,-63.17 997.35,-54.12 993.16,-45.31"/>
<polygon fill="blue" stroke="blue" points="996.35,-43.89 989.27,-36.02 989.9,-46.59 996.35,-43.89"/>
<text text-anchor="middle" x="1035.89" y="-57.8" font-family="Times,serif" font-size="14.00">format</text>
</g>
<!-- creation date -->
<g id="node12" class="node">
<title>creation date</title>
<ellipse fill="none" stroke="blue" cx="1072.39" cy="-18" rx="31.4" ry="18"/>
<text text-anchor="middle" x="1072.39" y="-14.3" font-family="Times,serif" font-size="14.00">date</text>
</g>
<!-- serial&#45;&gt;creation date -->
<g id="edge10" class="edge">
<title>serial&#45;&gt;creation date</title>
<path fill="none" stroke="blue" d="M1181.07,-100.57C1142.09,-95.96 1083.05,-86.29 1069.39,-69 1064.32,-62.57 1063.38,-54.1 1064.23,-45.96"/>
<polygon fill="blue" stroke="blue" points="1067.69,-46.48 1066.08,-36.01 1060.81,-45.21 1067.69,-46.48"/>
<text text-anchor="middle" x="1116.89" y="-57.8" font-family="Times,serif" font-size="14.00">creation date</text>
</g>
<!-- authors -->
<g id="node13" class="node">
<title>authors</title>
<ellipse fill="none" stroke="blue" cx="1160.39" cy="-18" rx="38.19" ry="18"/>
<text text-anchor="middle" x="1160.39" y="-14.3" font-family="Times,serif" font-size="14.00">string</text>
</g>
<!-- serial&#45;&gt;authors -->
<g id="edge11" class="edge">
<title>serial&#45;&gt;authors</title>
<path fill="none" stroke="blue" d="M1194.8,-90.06C1187.39,-84.33 1179.66,-77.13 1174.39,-69 1169.97,-62.16 1166.92,-53.92 1164.83,-46.11"/>
<polygon fill="blue" stroke="blue" points="1168.22,-45.25 1162.6,-36.26 1161.4,-46.79 1168.22,-45.25"/>
<text text-anchor="middle" x="1201.89" y="-57.8" font-family="Times,serif" font-size="14.00">authors</text>
</g>
<!-- pages -->
<g id="node14" class="node">
<title>pages</title>
<ellipse fill="none" stroke="black" cx="1255.39" cy="-18" rx="38.19" ry="18"/>
<text text-anchor="middle" x="1255.39" y="-14.3" font-family="Times,serif" font-size="14.00">pages</text>
</g>
<!-- serial&#45;&gt;pages -->
<g id="edge12" class="edge">
<title>serial&#45;&gt;pages</title>
<path fill="none" stroke="blue" d="M1224.65,-87.33C1227.47,-81.55 1230.61,-75.01 1233.39,-69 1236.98,-61.25 1240.76,-52.77 1244.16,-45.03"/>
<polygon fill="blue" stroke="blue" points="1247.43,-46.3 1248.22,-35.74 1241.01,-43.5 1247.43,-46.3"/>
<text text-anchor="middle" x="1261.89" y="-57.8" font-family="Times,serif" font-size="14.00">pages</text>
</g>
<!-- summary -->
<g id="node16" class="node">
<title>summary</title>
<ellipse fill="none" stroke="blue" cx="1350.39" cy="-18" rx="38.19" ry="18"/>
<text text-anchor="middle" x="1350.39" y="-14.3" font-family="Times,serif" font-size="14.00">string</text>
</g>
<!-- serial&#45;&gt;summary -->
<g id="edge13" class="edge">
<title>serial&#45;&gt;summary</title>
<path fill="none" stroke="blue" d="M1243.08,-92.49C1256.71,-86.2 1273.34,-77.9 1287.39,-69 1300.59,-60.65 1314.28,-50.05 1325.52,-40.76"/>
<polygon fill="blue" stroke="blue" points="1327.82,-43.39 1333.22,-34.28 1323.32,-38.04 1327.82,-43.39"/>
<text text-anchor="middle" x="1340.89" y="-57.8" font-family="Times,serif" font-size="14.00">summary</text>
</g>
<!-- keywords -->
<g id="node17" class="node">
<title>keywords</title>
<ellipse fill="none" stroke="blue" cx="1445.39" cy="-18" rx="38.19" ry="18"/>
<text text-anchor="middle" x="1445.39" y="-14.3" font-family="Times,serif" font-size="14.00">string</text>
</g>
<!-- serial&#45;&gt;keywords -->
<g id="edge14" class="edge">
<title>serial&#45;&gt;keywords</title>
<path fill="none" stroke="blue" d="M1243.22,-92.82C1249.14,-90.65 1255.42,-88.57 1261.39,-87 1312.28,-73.63 1329.87,-89.34 1378.39,-69 1394.16,-62.39 1409.61,-51.27 1421.69,-41.2"/>
<polygon fill="blue" stroke="blue" points="1424.21,-43.65 1429.48,-34.46 1419.62,-38.36 1424.21,-43.65"/>
<text text-anchor="middle" x="1438.89" y="-57.8" font-family="Times,serif" font-size="14.00">keywords</text>
</g>
<!-- mesh terms -->
<g id="node18" class="node">
<title>mesh terms</title>
<ellipse fill="none" stroke="blue" cx="1559.39" cy="-18" rx="57.39" ry="18"/>
<text text-anchor="middle" x="1559.39" y="-14.3" font-family="Times,serif" font-size="14.00">uriorcurie</text>
</g>
<!-- serial&#45;&gt;mesh terms -->
<g id="edge15" class="edge">
<title>serial&#45;&gt;mesh terms</title>
<path fill="none" stroke="blue" d="M1243.15,-92.51C1249.06,-90.36 1255.37,-88.36 1261.39,-87 1355.36,-65.77 1385.81,-98.88 1477.39,-69 1496.48,-62.77 1515.74,-51.35 1530.8,-40.99"/>
<polygon fill="blue" stroke="blue" points="1533.02,-43.71 1539.15,-35.06 1528.97,-38 1533.02,-43.71"/>
<text text-anchor="middle" x="1551.89" y="-57.8" font-family="Times,serif" font-size="14.00">mesh terms</text>
</g>
<!-- xref -->
<g id="node19" class="node">
<title>xref</title>
<ellipse fill="none" stroke="blue" cx="1691.39" cy="-18" rx="57.39" ry="18"/>
<text text-anchor="middle" x="1691.39" y="-14.3" font-family="Times,serif" font-size="14.00">uriorcurie</text>
</g>
<!-- serial&#45;&gt;xref -->
<g id="edge16" class="edge">
<title>serial&#45;&gt;xref</title>
<path fill="none" stroke="blue" d="M1243.12,-92.37C1249.04,-90.23 1255.35,-88.27 1261.39,-87 1408.17,-56.13 1453.97,-109.49 1598.39,-69 1620.34,-62.85 1642.9,-50.88 1660.31,-40.19"/>
<polygon fill="blue" stroke="blue" points="1662.33,-43.06 1668.91,-34.76 1658.59,-37.14 1662.33,-43.06"/>
<text text-anchor="middle" x="1647.89" y="-57.8" font-family="Times,serif" font-size="14.00">xref</text>
</g>
<!-- name -->
<g id="node20" class="node">
<title>name</title>
<ellipse fill="none" stroke="black" cx="1803.39" cy="-18" rx="36.29" ry="18"/>
<text text-anchor="middle" x="1803.39" y="-14.3" font-family="Times,serif" font-size="14.00">name</text>
</g>
<!-- serial&#45;&gt;name -->
<g id="edge17" class="edge">
<title>serial&#45;&gt;name</title>
<path fill="none" stroke="blue" d="M1242.63,-92.5C1248.69,-90.3 1255.18,-88.28 1261.39,-87 1437.88,-50.71 1489.67,-104.12 1666.39,-69 1702.22,-61.88 1741.18,-46.9 1768.36,-35.19"/>
<polygon fill="blue" stroke="blue" points="1770.07,-38.26 1777.82,-31.04 1767.25,-31.85 1770.07,-38.26"/>
<text text-anchor="middle" x="1737.39" y="-57.8" font-family="Times,serif" font-size="14.00">name</text>
</g>
<!-- iso abbreviation -->
<g id="node22" class="node">
<title>iso abbreviation</title>
<ellipse fill="none" stroke="blue" cx="1896.39" cy="-18" rx="38.19" ry="18"/>
<text text-anchor="middle" x="1896.39" y="-14.3" font-family="Times,serif" font-size="14.00">string</text>
</g>
<!-- serial&#45;&gt;iso abbreviation -->
<g id="edge18" class="edge">
<title>serial&#45;&gt;iso abbreviation</title>
<path fill="none" stroke="blue" d="M1242.62,-92.46C1248.68,-90.26 1255.17,-88.25 1261.39,-87 1479.39,-43.13 1543.26,-112.16 1761.39,-69 1796.33,-62.09 1834.2,-47.38 1860.92,-35.69"/>
<polygon fill="blue" stroke="blue" points="1862.52,-38.81 1870.23,-31.55 1859.67,-32.42 1862.52,-38.81"/>
<text text-anchor="middle" x="1872.89" y="-57.8" font-family="Times,serif" font-size="14.00">iso abbreviation</text>
</g>
<!-- volume -->
<g id="node23" class="node">
<title>volume</title>
<ellipse fill="none" stroke="blue" cx="1991.39" cy="-18" rx="38.19" ry="18"/>
<text text-anchor="middle" x="1991.39" y="-14.3" font-family="Times,serif" font-size="14.00">string</text>
</g>
<!-- serial&#45;&gt;volume -->
<g id="edge19" class="edge">
<title>serial&#45;&gt;volume</title>
<path fill="none" stroke="blue" d="M1242.61,-92.42C1248.67,-90.22 1255.17,-88.22 1261.39,-87 1334.8,-72.58 1864.74,-96.29 1934.39,-69 1948.46,-63.49 1961.37,-52.87 1971.33,-42.84"/>
<polygon fill="blue" stroke="blue" points="1974.05,-45.05 1978.34,-35.37 1968.95,-40.26 1974.05,-45.05"/>
<text text-anchor="middle" x="1985.39" y="-57.8" font-family="Times,serif" font-size="14.00">volume</text>
</g>
<!-- issue -->
<g id="node24" class="node">
<title>issue</title>
<ellipse fill="none" stroke="blue" cx="2086.39" cy="-18" rx="38.19" ry="18"/>
<text text-anchor="middle" x="2086.39" y="-14.3" font-family="Times,serif" font-size="14.00">string</text>
</g>
<!-- serial&#45;&gt;issue -->
<g id="edge20" class="edge">
<title>serial&#45;&gt;issue</title>
<path fill="none" stroke="blue" d="M1242.61,-92.41C1248.67,-90.21 1255.16,-88.21 1261.39,-87 1343.65,-70.96 1935.81,-95.26 2015.39,-69 2032.78,-63.26 2049.64,-51.72 2062.57,-41.17"/>
<polygon fill="blue" stroke="blue" points="2065.11,-43.6 2070.46,-34.46 2060.58,-38.27 2065.11,-43.6"/>
<text text-anchor="middle" x="2063.89" y="-57.8" font-family="Times,serif" font-size="14.00">issue</text>
</g>
<!-- id -->
<g id="node25" class="node">
<title>id</title>
<ellipse fill="none" stroke="black" cx="2169.39" cy="-18" rx="27" ry="18"/>
<text text-anchor="middle" x="2169.39" y="-14.3" font-family="Times,serif" font-size="14.00">id</text>
</g>
<!-- serial&#45;&gt;id -->
<g id="edge21" class="edge">
<title>serial&#45;&gt;id</title>
<path fill="none" stroke="blue" d="M1242.61,-92.4C1248.67,-90.2 1255.16,-88.21 1261.39,-87 1351.41,-69.55 1998.33,-94.51 2086.39,-69 2107.66,-62.84 2129,-49.79 2144.72,-38.57"/>
<polygon fill="blue" stroke="blue" points="2146.87,-41.34 2152.83,-32.58 2142.71,-35.71 2146.87,-41.34"/>
<text text-anchor="middle" x="2127.39" y="-57.8" font-family="Times,serif" font-size="14.00">id</text>
</g>
<!-- type -->
<g id="node27" class="node">
<title>type</title>
<ellipse fill="none" stroke="black" cx="2245.39" cy="-18" rx="31.4" ry="18"/>
<text text-anchor="middle" x="2245.39" y="-14.3" font-family="Times,serif" font-size="14.00">type</text>
</g>
<!-- serial&#45;&gt;type -->
<g id="edge22" class="edge">
<title>serial&#45;&gt;type</title>
<path fill="none" stroke="blue" d="M1242.61,-92.39C1248.66,-90.19 1255.16,-88.2 1261.39,-87 1452.78,-50.02 1948.55,-113.22 2138.39,-69 2166.1,-62.55 2195.21,-48.4 2216.06,-36.8"/>
<polygon fill="blue" stroke="blue" points="2218.07,-39.68 2225.02,-31.68 2214.6,-33.6 2218.07,-39.68"/>
<text text-anchor="middle" x="2197.39" y="-57.8" font-family="Times,serif" font-size="14.00">type</text>
</g>
<!-- named thing_category -->
<g id="node8" class="node">
<title>named thing_category</title>
<ellipse fill="none" stroke="blue" cx="1345.39" cy="-105" rx="74.99" ry="18"/>
<text text-anchor="middle" x="1345.39" y="-101.3" font-family="Times,serif" font-size="14.00">category type</text>
</g>
<!-- publication_pages -->
<g id="node15" class="node">
<title>publication_pages</title>
<ellipse fill="none" stroke="blue" cx="1476.39" cy="-105" rx="38.19" ry="18"/>
<text text-anchor="middle" x="1476.39" y="-101.3" font-family="Times,serif" font-size="14.00">string</text>
</g>
<!-- publication_name -->
<g id="node21" class="node">
<title>publication_name</title>
<ellipse fill="none" stroke="blue" cx="1589.39" cy="-105" rx="56.59" ry="18"/>
<text text-anchor="middle" x="1589.39" y="-101.3" font-family="Times,serif" font-size="14.00">label type</text>
</g>
<!-- serial_id -->
<g id="node26" class="node">
<title>serial_id</title>
<ellipse fill="none" stroke="blue" cx="1702.39" cy="-105" rx="38.19" ry="18"/>
<text text-anchor="middle" x="1702.39" y="-101.3" font-family="Times,serif" font-size="14.00">string</text>
</g>
<!-- serial_type -->
<g id="node28" class="node">
<title>serial_type</title>
<ellipse fill="none" stroke="blue" cx="1797.39" cy="-105" rx="38.19" ry="18"/>
<text text-anchor="middle" x="1797.39" y="-101.3" font-family="Times,serif" font-size="14.00">string</text>
</g>
</g>
</svg>
