<?xml version="1.0" encoding="UTF-8" standalone="no"?>
<!DOCTYPE svg PUBLIC "-//W3C//DTD SVG 1.1//EN"
 "http://www.w3.org/Graphics/SVG/1.1/DTD/svg11.dtd">
<!-- Generated by graphviz version 2.40.1 (20161225.0304)
 -->
<!-- Title: %3 Pages: 1 -->
<svg width="1965pt" height="131pt"
 viewBox="0.00 0.00 1964.69 131.00" xmlns="http://www.w3.org/2000/svg" xmlns:xlink="http://www.w3.org/1999/xlink">
<g id="graph0" class="graph" transform="scale(1 1) rotate(0) translate(4 127)">
<title>%3</title>
<polygon fill="#ffffff" stroke="transparent" points="-4,4 -4,-127 1960.6851,-127 1960.6851,4 -4,4"/>
<!-- siRNA -->
<g id="node1" class="node">
<title>siRNA</title>
<ellipse fill="none" stroke="#000000" cx="973.489" cy="-105" rx="40.0939" ry="18"/>
<text text-anchor="middle" x="973.489" y="-101.3" font-family="Times,serif" font-size="14.00" fill="#000000">siRNA</text>
</g>
<!-- noncoding RNA product -->
<g id="node2" class="node">
<title>noncoding RNA product</title>
<ellipse fill="none" stroke="#000000" cx="123.489" cy="-18" rx="123.4781" ry="18"/>
<text text-anchor="middle" x="123.489" y="-14.3" font-family="Times,serif" font-size="14.00" fill="#000000">noncoding RNA product</text>
</g>
<!-- siRNA&#45;&gt;noncoding RNA product -->
<g id="edge1" class="edge">
<title>siRNA&#45;&gt;noncoding RNA product</title>
<path fill="none" stroke="#000000" d="M932.895,-104.2976C837.5311,-102.2564 591.9045,-94.7244 388.489,-69 324.4081,-60.8962 252.4917,-46.7298 199.7638,-35.3808"/>
<polygon fill="#000000" stroke="#000000" points="200.3299,-31.9223 189.8154,-33.224 198.8467,-38.7634 200.3299,-31.9223"/>
<text text-anchor="middle" x="402.489" y="-57.8" font-family="Times,serif" font-size="14.00" fill="#000000">is_a</text>
</g>
<!-- id -->
<g id="node3" class="node">
<title>id</title>
<ellipse fill="none" stroke="#0000ff" cx="303.489" cy="-18" rx="38.1938" ry="18"/>
<text text-anchor="middle" x="303.489" y="-14.3" font-family="Times,serif" font-size="14.00" fill="#000000">string</text>
</g>
<!-- siRNA&#45;&gt;id -->
<g id="edge2" class="edge">
<title>siRNA&#45;&gt;id</title>
<path fill="none" stroke="#0000ff" d="M932.9994,-103.6891C851.758,-100.6604 663.2293,-91.6244 506.489,-69 436.7786,-58.9378 419.0952,-55.7534 351.489,-36 348.5097,-35.1295 345.4514,-34.1621 342.3907,-33.1404"/>
<polygon fill="#0000ff" stroke="#0000ff" points="343.2964,-29.7491 332.7016,-29.7442 340.9809,-36.3551 343.2964,-29.7491"/>
<text text-anchor="middle" x="513.489" y="-57.8" font-family="Times,serif" font-size="14.00" fill="#000000">id</text>
</g>
<!-- iri -->
<g id="node4" class="node">
<title>iri</title>
<ellipse fill="none" stroke="#0000ff" cx="404.489" cy="-18" rx="44.393" ry="18"/>
<text text-anchor="middle" x="404.489" y="-14.3" font-family="Times,serif" font-size="14.00" fill="#000000">iri type</text>
</g>
<!-- siRNA&#45;&gt;iri -->
<g id="edge3" class="edge">
<title>siRNA&#45;&gt;iri</title>
<path fill="none" stroke="#0000ff" d="M933.2454,-102.864C864.6201,-98.832 720.7093,-88.6823 600.489,-69 536.5474,-58.5316 520.8466,-53.5972 458.489,-36 454.9523,-35.0019 451.3035,-33.914 447.65,-32.7834"/>
<polygon fill="#0000ff" stroke="#0000ff" points="448.6319,-29.4229 438.0413,-29.7232 446.5076,-36.0928 448.6319,-29.4229"/>
<text text-anchor="middle" x="608.489" y="-57.8" font-family="Times,serif" font-size="14.00" fill="#000000">iri</text>
</g>
<!-- type -->
<g id="node5" class="node">
<title>type</title>
<ellipse fill="none" stroke="#0000ff" cx="505.489" cy="-18" rx="38.1938" ry="18"/>
<text text-anchor="middle" x="505.489" y="-14.3" font-family="Times,serif" font-size="14.00" fill="#000000">string</text>
</g>
<!-- siRNA&#45;&gt;type -->
<g id="edge4" class="edge">
<title>siRNA&#45;&gt;type</title>
<path fill="none" stroke="#0000ff" d="M933.5173,-101.9901C857.7774,-95.5159 688.7388,-77.3661 552.489,-36 549.7456,-35.1671 546.9334,-34.252 544.115,-33.2894"/>
<polygon fill="#0000ff" stroke="#0000ff" points="545.1945,-29.9585 534.5999,-29.8845 542.836,-36.5492 545.1945,-29.9585"/>
<text text-anchor="middle" x="705.489" y="-57.8" font-family="Times,serif" font-size="14.00" fill="#000000">type</text>
</g>
<!-- name -->
<g id="node6" class="node">
<title>name</title>
<ellipse fill="none" stroke="#0000ff" cx="618.489" cy="-18" rx="56.59" ry="18"/>
<text text-anchor="middle" x="618.489" y="-14.3" font-family="Times,serif" font-size="14.00" fill="#000000">label type</text>
</g>
<!-- siRNA&#45;&gt;name -->
<g id="edge5" class="edge">
<title>siRNA&#45;&gt;name</title>
<path fill="none" stroke="#0000ff" d="M935.365,-99.0735C896.8068,-92.7765 835.621,-81.9519 783.489,-69 743.8016,-59.1398 699.5679,-45.3098 666.8975,-34.5389"/>
<polygon fill="#0000ff" stroke="#0000ff" points="667.7409,-31.1311 657.1475,-31.3021 665.5354,-37.7746 667.7409,-31.1311"/>
<text text-anchor="middle" x="803.489" y="-57.8" font-family="Times,serif" font-size="14.00" fill="#000000">name</text>
</g>
<!-- description -->
<g id="node7" class="node">
<title>description</title>
<ellipse fill="none" stroke="#0000ff" cx="768.489" cy="-18" rx="75.2868" ry="18"/>
<text text-anchor="middle" x="768.489" y="-14.3" font-family="Times,serif" font-size="14.00" fill="#000000">narrative text</text>
</g>
<!-- siRNA&#45;&gt;description -->
<g id="edge6" class="edge">
<title>siRNA&#45;&gt;description</title>
<path fill="none" stroke="#0000ff" d="M938.2516,-96.2315C914.8775,-89.8926 883.7825,-80.4479 857.489,-69 838.8904,-60.9024 819.2226,-49.9139 803.1192,-40.2103"/>
<polygon fill="#0000ff" stroke="#0000ff" points="804.9255,-37.2124 794.569,-34.9781 801.2718,-43.1832 804.9255,-37.2124"/>
<text text-anchor="middle" x="898.489" y="-57.8" font-family="Times,serif" font-size="14.00" fill="#000000">description</text>
</g>
<!-- source -->
<g id="node8" class="node">
<title>source</title>
<ellipse fill="none" stroke="#0000ff" cx="918.489" cy="-18" rx="56.59" ry="18"/>
<text text-anchor="middle" x="918.489" y="-14.3" font-family="Times,serif" font-size="14.00" fill="#000000">label type</text>
</g>
<!-- siRNA&#45;&gt;source -->
<g id="edge7" class="edge">
<title>siRNA&#45;&gt;source</title>
<path fill="none" stroke="#0000ff" d="M962.359,-87.3943C954.5828,-75.0938 944.0611,-58.4503 935.2712,-44.5463"/>
<polygon fill="#0000ff" stroke="#0000ff" points="938.0934,-42.4605 929.7913,-35.8782 932.1766,-46.201 938.0934,-42.4605"/>
<text text-anchor="middle" x="973.989" y="-57.8" font-family="Times,serif" font-size="14.00" fill="#000000">source</text>
</g>
<!-- provided by -->
<g id="node9" class="node">
<title>provided by</title>
<ellipse fill="none" stroke="#0000ff" cx="1030.489" cy="-18" rx="37.0935" ry="18"/>
<text text-anchor="middle" x="1030.489" y="-14.3" font-family="Times,serif" font-size="14.00" fill="#000000">agent</text>
</g>
<!-- siRNA&#45;&gt;provided by -->
<g id="edge8" class="edge">
<title>siRNA&#45;&gt;provided by</title>
<path fill="none" stroke="#0000ff" d="M988.2892,-87.8925C993.0519,-82.0645 998.2018,-75.4016 1002.489,-69 1007.5792,-61.3995 1012.572,-52.794 1016.8994,-44.8458"/>
<polygon fill="#0000ff" stroke="#0000ff" points="1020.042,-46.3905 1021.6397,-35.9168 1013.8592,-43.1082 1020.042,-46.3905"/>
<text text-anchor="middle" x="1054.989" y="-57.8" font-family="Times,serif" font-size="14.00" fill="#000000">provided by</text>
</g>
<!-- has attribute -->
<g id="node10" class="node">
<title>has attribute</title>
<ellipse fill="none" stroke="#0000ff" cx="1137.489" cy="-18" rx="51.9908" ry="18"/>
<text text-anchor="middle" x="1137.489" y="-14.3" font-family="Times,serif" font-size="14.00" fill="#000000">attribute</text>
</g>
<!-- siRNA&#45;&gt;has attribute -->
<g id="edge9" class="edge">
<title>siRNA&#45;&gt;has attribute</title>
<path fill="none" stroke="#0000ff" d="M1003.8688,-93.1554C1009.9866,-90.9645 1016.4064,-88.8021 1022.489,-87 1057.0165,-76.7704 1071.5676,-89.0375 1101.489,-69 1110.5392,-62.9394 1118.0318,-53.7773 1123.795,-44.8829"/>
<polygon fill="#0000ff" stroke="#0000ff" points="1126.8561,-46.5833 1128.9753,-36.2026 1120.8451,-42.996 1126.8561,-46.5833"/>
<text text-anchor="middle" x="1163.489" y="-57.8" font-family="Times,serif" font-size="14.00" fill="#000000">has attribute</text>
</g>
<!-- category -->
<g id="node11" class="node">
<title>category</title>
<ellipse fill="none" stroke="#000000" cx="1259.489" cy="-18" rx="51.9908" ry="18"/>
<text text-anchor="middle" x="1259.489" y="-14.3" font-family="Times,serif" font-size="14.00" fill="#000000">category</text>
</g>
<!-- siRNA&#45;&gt;category -->
<g id="edge10" class="edge">
<title>siRNA&#45;&gt;category</title>
<path fill="none" stroke="#0000ff" d="M1003.1785,-92.7047C1009.4649,-90.4961 1016.1251,-88.4416 1022.489,-87 1106.0788,-68.0653 1138.1001,-107.8652 1214.489,-69 1225.7221,-63.2849 1235.4107,-53.47 1242.8901,-43.9674"/>
<polygon fill="#0000ff" stroke="#0000ff" points="1245.7832,-45.9409 1248.8775,-35.808 1240.1396,-41.7996 1245.7832,-45.9409"/>
<text text-anchor="middle" x="1266.489" y="-57.8" font-family="Times,serif" font-size="14.00" fill="#000000">category</text>
</g>
<!-- in taxon -->
<g id="node13" class="node">
<title>in taxon</title>
<ellipse fill="none" stroke="#0000ff" cx="1412.489" cy="-18" rx="83.3857" ry="18"/>
<text text-anchor="middle" x="1412.489" y="-14.3" font-family="Times,serif" font-size="14.00" fill="#000000">organism taxon</text>
</g>
<!-- siRNA&#45;&gt;in taxon -->
<g id="edge11" class="edge">
<title>siRNA&#45;&gt;in taxon</title>
<path fill="none" stroke="#0000ff" d="M1002.885,-92.6518C1009.2502,-90.418 1016.016,-88.367 1022.489,-87 1144.4994,-61.234 1181.6387,-99.7509 1302.489,-69 1327.6096,-62.608 1354.0149,-50.565 1374.6566,-39.7865"/>
<polygon fill="#0000ff" stroke="#0000ff" points="1376.5401,-42.7484 1383.7097,-34.948 1373.2405,-36.5748 1376.5401,-42.7484"/>
<text text-anchor="middle" x="1372.489" y="-57.8" font-family="Times,serif" font-size="14.00" fill="#000000">in taxon</text>
</g>
<!-- has biological sequence -->
<g id="node14" class="node">
<title>has biological sequence</title>
<ellipse fill="none" stroke="#0000ff" cx="1616.489" cy="-18" rx="102.8821" ry="18"/>
<text text-anchor="middle" x="1616.489" y="-14.3" font-family="Times,serif" font-size="14.00" fill="#000000">biological sequence</text>
</g>
<!-- siRNA&#45;&gt;has biological sequence -->
<g id="edge12" class="edge">
<title>siRNA&#45;&gt;has biological sequence</title>
<path fill="none" stroke="#0000ff" d="M1002.8673,-92.5662C1009.2337,-90.3382 1016.0044,-88.3111 1022.489,-87 1189.5191,-53.2277 1236.7956,-93.1272 1405.489,-69 1456.2603,-61.7385 1512.68,-47.7849 1554.3947,-36.3063"/>
<polygon fill="#0000ff" stroke="#0000ff" points="1555.4367,-39.6494 1564.1334,-33.5981 1553.5612,-32.9053 1555.4367,-39.6494"/>
<text text-anchor="middle" x="1567.989" y="-57.8" font-family="Times,serif" font-size="14.00" fill="#000000">has biological sequence</text>
</g>
<!-- synonym -->
<g id="node15" class="node">
<title>synonym</title>
<ellipse fill="none" stroke="#0000ff" cx="1793.489" cy="-18" rx="56.59" ry="18"/>
<text text-anchor="middle" x="1793.489" y="-14.3" font-family="Times,serif" font-size="14.00" fill="#000000">label type</text>
</g>
<!-- siRNA&#45;&gt;synonym -->
<g id="edge13" class="edge">
<title>siRNA&#45;&gt;synonym</title>
<path fill="none" stroke="#0000ff" d="M1002.849,-92.4736C1009.2167,-90.2518 1015.9925,-88.2507 1022.489,-87 1161.1113,-60.3126 1518.9573,-96.1534 1657.489,-69 1690.6581,-62.4986 1726.3771,-48.8238 1752.8826,-37.2699"/>
<polygon fill="#0000ff" stroke="#0000ff" points="1754.4915,-40.385 1762.2092,-33.1263 1751.6494,-33.9879 1754.4915,-40.385"/>
<text text-anchor="middle" x="1739.489" y="-57.8" font-family="Times,serif" font-size="14.00" fill="#000000">synonym</text>
</g>
<!-- xref -->
<g id="node16" class="node">
<title>xref</title>
<ellipse fill="none" stroke="#0000ff" cx="1912.489" cy="-18" rx="44.393" ry="18"/>
<text text-anchor="middle" x="1912.489" y="-14.3" font-family="Times,serif" font-size="14.00" fill="#000000">iri type</text>
</g>
<!-- siRNA&#45;&gt;xref -->
<g id="edge14" class="edge">
<title>siRNA&#45;&gt;xref</title>
<path fill="none" stroke="#0000ff" d="M1002.5833,-92.5428C1009.027,-90.2859 1015.9007,-88.2532 1022.489,-87 1186.9218,-55.722 1611.1243,-100.6335 1775.489,-69 1810.115,-62.3359 1847.5096,-47.8833 1874.4685,-36.0591"/>
<polygon fill="#0000ff" stroke="#0000ff" points="1876.2032,-39.1175 1883.9041,-31.8411 1873.3464,-32.727 1876.2032,-39.1175"/>
<text text-anchor="middle" x="1839.989" y="-57.8" font-family="Times,serif" font-size="14.00" fill="#000000">xref</text>
</g>
<!-- named thing_category -->
<g id="node12" class="node">
<title>named thing_category</title>
<ellipse fill="none" stroke="#0000ff" cx="1101.489" cy="-105" rx="69.5877" ry="18"/>
<text text-anchor="middle" x="1101.489" y="-101.3" font-family="Times,serif" font-size="14.00" fill="#000000">named thing</text>
</g>
</g>
</svg>
