<?xml version="1.0" encoding="UTF-8" standalone="no"?>
<!DOCTYPE svg PUBLIC "-//W3C//DTD SVG 1.1//EN"
 "http://www.w3.org/Graphics/SVG/1.1/DTD/svg11.dtd">
<!-- Generated by graphviz version 2.40.1 (20161225.0304)
 -->
<!-- Title: %3 Pages: 1 -->
<svg width="1226pt" height="131pt"
 viewBox="0.00 0.00 1225.54 131.00" xmlns="http://www.w3.org/2000/svg" xmlns:xlink="http://www.w3.org/1999/xlink">
<g id="graph0" class="graph" transform="scale(1 1) rotate(0) translate(4 127)">
<title>%3</title>
<polygon fill="#ffffff" stroke="transparent" points="-4,4 -4,-127 1221.5438,-127 1221.5438,4 -4,4"/>
<!-- snv -->
<g id="node1" class="node">
<title>snv</title>
<ellipse fill="none" stroke="#000000" cx="589.5438" cy="-105" rx="27" ry="18"/>
<text text-anchor="middle" x="589.5438" y="-101.3" font-family="Times,serif" font-size="14.00" fill="#000000">snv</text>
</g>
<!-- sequence variant -->
<g id="node2" class="node">
<title>sequence variant</title>
<ellipse fill="none" stroke="#000000" cx="69.5438" cy="-18" rx="69.5877" ry="18"/>
<text text-anchor="middle" x="69.5438" y="-14.3" font-family="Times,serif" font-size="14.00" fill="#000000">sequence variant</text>
</g>
<!-- snv&#45;&gt;sequence variant -->
<g id="edge1" class="edge">
<title>snv&#45;&gt;sequence variant</title>
<path fill="none" stroke="#000000" d="M562.4453,-102.53C510.7234,-97.6232 394.4469,-85.6653 297.5438,-69 230.6982,-57.5039 214.7213,-50.8674 148.5438,-36 143.1397,-34.7859 137.5291,-33.5195 131.9034,-32.2455"/>
<polygon fill="#000000" stroke="#000000" points="132.3285,-28.7531 121.802,-29.9539 130.7798,-35.5796 132.3285,-28.7531"/>
<text text-anchor="middle" x="308.5438" y="-57.8" font-family="Times,serif" font-size="14.00" fill="#000000">is_a</text>
</g>
<!-- category -->
<g id="node3" class="node">
<title>category</title>
<ellipse fill="none" stroke="#0000ff" cx="215.5438" cy="-18" rx="58.4896" ry="18"/>
<text text-anchor="middle" x="215.5438" y="-14.3" font-family="Times,serif" font-size="14.00" fill="#000000">category type</text>
</g>
<!-- snv&#45;&gt;category -->
<g id="edge2" class="edge">
<title>snv&#45;&gt;category</title>
<path fill="none" stroke="#0000ff" d="M562.7366,-101.6902C522.1201,-96.4015 442.7085,-84.9885 376.5438,-69 337.9309,-59.6693 295.094,-45.9303 263.3193,-35.0624"/>
<polygon fill="#0000ff" stroke="#0000ff" points="264.425,-31.7415 253.8303,-31.7899 262.1427,-38.359 264.425,-31.7415"/>
<text text-anchor="middle" x="400.0438" y="-57.8" font-family="Times,serif" font-size="14.00" fill="#000000">category</text>
</g>
<!-- iri -->
<g id="node4" class="node">
<title>iri</title>
<ellipse fill="none" stroke="#0000ff" cx="328.5438" cy="-18" rx="36.2938" ry="18"/>
<text text-anchor="middle" x="328.5438" y="-14.3" font-family="Times,serif" font-size="14.00" fill="#000000">iri type</text>
</g>
<!-- snv&#45;&gt;iri -->
<g id="edge3" class="edge">
<title>snv&#45;&gt;iri</title>
<path fill="none" stroke="#0000ff" d="M564.8713,-97.6305C524.7246,-85.5164 442.8722,-60.3062 374.5438,-36 371.981,-35.0883 369.3471,-34.1263 366.6991,-33.1403"/>
<polygon fill="#0000ff" stroke="#0000ff" points="367.7408,-29.792 357.1497,-29.5123 365.2547,-36.3357 367.7408,-29.792"/>
<text text-anchor="middle" x="475.0438" y="-57.8" font-family="Times,serif" font-size="14.00" fill="#000000">iri</text>
</g>
<!-- name -->
<g id="node5" class="node">
<title>name</title>
<ellipse fill="none" stroke="#0000ff" cx="428.5438" cy="-18" rx="45.4919" ry="18"/>
<text text-anchor="middle" x="428.5438" y="-14.3" font-family="Times,serif" font-size="14.00" fill="#000000">label type</text>
</g>
<!-- snv&#45;&gt;name -->
<g id="edge4" class="edge">
<title>snv&#45;&gt;name</title>
<path fill="none" stroke="#0000ff" d="M568.4959,-93.6263C542.1193,-79.3731 496.5022,-54.7229 464.538,-37.4503"/>
<polygon fill="#0000ff" stroke="#0000ff" points="465.9646,-34.2429 455.5029,-32.568 462.6367,-40.4012 465.9646,-34.2429"/>
<text text-anchor="middle" x="535.0438" y="-57.8" font-family="Times,serif" font-size="14.00" fill="#000000">name</text>
</g>
<!-- source -->
<g id="node6" class="node">
<title>source</title>
<ellipse fill="none" stroke="#0000ff" cx="537.5438" cy="-18" rx="45.4919" ry="18"/>
<text text-anchor="middle" x="537.5438" y="-14.3" font-family="Times,serif" font-size="14.00" fill="#000000">label type</text>
</g>
<!-- snv&#45;&gt;source -->
<g id="edge5" class="edge">
<title>snv&#45;&gt;source</title>
<path fill="none" stroke="#0000ff" d="M579.5177,-88.2255C572.1095,-75.831 561.8764,-58.7103 553.369,-44.4767"/>
<polygon fill="#0000ff" stroke="#0000ff" points="556.2094,-42.4068 548.0746,-35.6188 550.2008,-45.9982 556.2094,-42.4068"/>
<text text-anchor="middle" x="585.5438" y="-57.8" font-family="Times,serif" font-size="14.00" fill="#000000">source</text>
</g>
<!-- has attribute -->
<g id="node7" class="node">
<title>has attribute</title>
<ellipse fill="none" stroke="#0000ff" cx="641.5438" cy="-18" rx="40.0939" ry="18"/>
<text text-anchor="middle" x="641.5438" y="-14.3" font-family="Times,serif" font-size="14.00" fill="#000000">attribute</text>
</g>
<!-- snv&#45;&gt;has attribute -->
<g id="edge6" class="edge">
<title>snv&#45;&gt;has attribute</title>
<path fill="none" stroke="#0000ff" d="M599.57,-88.2255C606.9781,-75.831 617.2112,-58.7103 625.7186,-44.4767"/>
<polygon fill="#0000ff" stroke="#0000ff" points="628.8868,-45.9982 631.013,-35.6188 622.8783,-42.4068 628.8868,-45.9982"/>
<text text-anchor="middle" x="653.0438" y="-57.8" font-family="Times,serif" font-size="14.00" fill="#000000">has attribute</text>
</g>
<!-- in taxon -->
<g id="node8" class="node">
<title>in taxon</title>
<ellipse fill="none" stroke="#0000ff" cx="765.5438" cy="-18" rx="65.7887" ry="18"/>
<text text-anchor="middle" x="765.5438" y="-14.3" font-family="Times,serif" font-size="14.00" fill="#000000">organism taxon</text>
</g>
<!-- snv&#45;&gt;in taxon -->
<g id="edge7" class="edge">
<title>snv&#45;&gt;in taxon</title>
<path fill="none" stroke="#0000ff" d="M610.5569,-93.6428C615.3999,-91.2654 620.5866,-88.9051 625.5438,-87 653.5249,-76.2468 663.3425,-81.5959 690.5438,-69 706.4844,-61.6185 722.775,-50.985 736.0832,-41.3357"/>
<polygon fill="#0000ff" stroke="#0000ff" points="738.4261,-43.9552 744.3643,-35.1809 734.2504,-38.337 738.4261,-43.9552"/>
<text text-anchor="middle" x="740.0438" y="-57.8" font-family="Times,serif" font-size="14.00" fill="#000000">in taxon</text>
</g>
<!-- has gene -->
<g id="node9" class="node">
<title>has gene</title>
<ellipse fill="none" stroke="#000000" cx="890.5438" cy="-18" rx="41.6928" ry="18"/>
<text text-anchor="middle" x="890.5438" y="-14.3" font-family="Times,serif" font-size="14.00" fill="#000000">has gene</text>
</g>
<!-- snv&#45;&gt;has gene -->
<g id="edge8" class="edge">
<title>snv&#45;&gt;has gene</title>
<path fill="none" stroke="#0000ff" d="M610.3736,-93.1097C615.2261,-90.7599 620.4631,-88.5456 625.5438,-87 685.9843,-68.6137 705.469,-85.1548 766.5438,-69 796.9395,-60.9601 829.7798,-47.2067 854.0235,-36.0071"/>
<polygon fill="#0000ff" stroke="#0000ff" points="855.6322,-39.1185 863.1978,-31.7015 852.6581,-32.7817 855.6322,-39.1185"/>
<text text-anchor="middle" x="832.5438" y="-57.8" font-family="Times,serif" font-size="14.00" fill="#000000">has gene</text>
</g>
<!-- has biological sequence -->
<g id="node11" class="node">
<title>has biological sequence</title>
<ellipse fill="none" stroke="#000000" cx="1044.5438" cy="-18" rx="94.7833" ry="18"/>
<text text-anchor="middle" x="1044.5438" y="-14.3" font-family="Times,serif" font-size="14.00" fill="#000000">has biological sequence</text>
</g>
<!-- snv&#45;&gt;has biological sequence -->
<g id="edge9" class="edge">
<title>snv&#45;&gt;has biological sequence</title>
<path fill="none" stroke="#0000ff" d="M609.9356,-93.1037C614.897,-90.6931 620.2909,-88.454 625.5438,-87 726.4979,-59.055 757.3646,-87.0745 860.5438,-69 903.82,-61.4191 951.6056,-48.0176 987.6314,-36.8546"/>
<polygon fill="#0000ff" stroke="#0000ff" points="988.9715,-40.1025 997.4672,-33.7721 986.8781,-33.4229 988.9715,-40.1025"/>
<text text-anchor="middle" x="992.5438" y="-57.8" font-family="Times,serif" font-size="14.00" fill="#000000">has biological sequence</text>
</g>
<!-- id -->
<g id="node13" class="node">
<title>id</title>
<ellipse fill="none" stroke="#000000" cx="1190.5438" cy="-18" rx="27" ry="18"/>
<text text-anchor="middle" x="1190.5438" y="-14.3" font-family="Times,serif" font-size="14.00" fill="#000000">id</text>
</g>
<!-- snv&#45;&gt;id -->
<g id="edge10" class="edge">
<title>snv&#45;&gt;id</title>
<path fill="none" stroke="#0000ff" d="M609.8997,-92.9693C614.8626,-90.5642 620.2662,-88.3614 625.5438,-87 813.3391,-38.5567 871.5406,-107.8921 1061.5438,-69 1096.4814,-61.8486 1134.1633,-45.906 1159.7245,-33.7356"/>
<polygon fill="#0000ff" stroke="#0000ff" points="1161.4298,-36.7984 1168.8967,-29.282 1158.3723,-30.5014 1161.4298,-36.7984"/>
<text text-anchor="middle" x="1114.0438" y="-57.8" font-family="Times,serif" font-size="14.00" fill="#000000">id</text>
</g>
<!-- sequence variant_has gene -->
<g id="node10" class="node">
<title>sequence variant_has gene</title>
<ellipse fill="none" stroke="#0000ff" cx="661.5438" cy="-105" rx="27.0966" ry="18"/>
<text text-anchor="middle" x="661.5438" y="-101.3" font-family="Times,serif" font-size="14.00" fill="#000000">gene</text>
</g>
<!-- sequence variant_has biological sequence -->
<g id="node12" class="node">
<title>sequence variant_has biological sequence</title>
<ellipse fill="none" stroke="#0000ff" cx="787.5438" cy="-105" rx="80.6858" ry="18"/>
<text text-anchor="middle" x="787.5438" y="-101.3" font-family="Times,serif" font-size="14.00" fill="#000000">biological sequence</text>
</g>
<!-- sequence variant_id -->
<g id="node14" class="node">
<title>sequence variant_id</title>
<ellipse fill="none" stroke="#0000ff" cx="916.5438" cy="-105" rx="30.5947" ry="18"/>
<text text-anchor="middle" x="916.5438" y="-101.3" font-family="Times,serif" font-size="14.00" fill="#000000">string</text>
</g>
</g>
</svg>
