<?xml version="1.0" encoding="UTF-8" standalone="no"?>
<!DOCTYPE svg PUBLIC "-//W3C//DTD SVG 1.1//EN"
 "http://www.w3.org/Graphics/SVG/1.1/DTD/svg11.dtd">
<!-- Generated by graphviz version 2.43.0 (0)
 -->
<!-- Title: %3 Pages: 1 -->
<svg width="2382pt" height="131pt"
 viewBox="0.00 0.00 2382.24 131.00" xmlns="http://www.w3.org/2000/svg" xmlns:xlink="http://www.w3.org/1999/xlink">
<g id="graph0" class="graph" transform="scale(1 1) rotate(0) translate(4 127)">
<title>%3</title>
<polygon fill="white" stroke="transparent" points="-4,4 -4,-127 2378.24,-127 2378.24,4 -4,4"/>
<!-- socioeconomic exposure -->
<g id="node1" class="node">
<title>socioeconomic exposure</title>
<ellipse fill="none" stroke="black" cx="1123" cy="-105" rx="122.68" ry="18"/>
<text text-anchor="middle" x="1123" y="-101.3" font-family="Times,serif" font-size="14.00">socioeconomic exposure</text>
</g>
<!-- attribute -->
<g id="node2" class="node">
<title>attribute</title>
<ellipse fill="none" stroke="black" cx="52" cy="-18" rx="51.99" ry="18"/>
<text text-anchor="middle" x="52" y="-14.3" font-family="Times,serif" font-size="14.00">attribute</text>
</g>
<!-- socioeconomic exposure&#45;&gt;attribute -->
<g id="edge1" class="edge">
<title>socioeconomic exposure&#45;&gt;attribute</title>
<path fill="none" stroke="black" d="M1000.6,-103.45C841.02,-101.66 553.41,-94.73 309,-69 221.14,-59.75 199.22,-55.22 113,-36 108.83,-35.07 104.53,-34.03 100.22,-32.94"/>
<polygon fill="black" stroke="black" points="100.8,-29.47 90.24,-30.32 99.02,-36.25 100.8,-29.47"/>
<text text-anchor="middle" x="323" y="-57.8" font-family="Times,serif" font-size="14.00">is_a</text>
</g>
<!-- exposure event -->
<g id="node3" class="node">
<title>exposure event</title>
<ellipse fill="none" stroke="black" cx="204" cy="-18" rx="81.79" ry="18"/>
<text text-anchor="middle" x="204" y="-14.3" font-family="Times,serif" font-size="14.00">exposure event</text>
</g>
<!-- socioeconomic exposure&#45;&gt;exposure event -->
<g id="edge2" class="edge">
<title>socioeconomic exposure&#45;&gt;exposure event</title>
<path fill="none" stroke="black" d="M999.92,-104.62C858.54,-103.79 619.93,-97.61 417,-69 363.55,-61.46 303.8,-46.89 261.22,-35.41"/>
<polygon fill="black" stroke="black" points="261.89,-31.96 251.32,-32.71 260.05,-38.72 261.89,-31.96"/>
<text text-anchor="middle" x="433.5" y="-57.8" font-family="Times,serif" font-size="14.00">uses</text>
</g>
<!-- id -->
<g id="node4" class="node">
<title>id</title>
<ellipse fill="none" stroke="blue" cx="342" cy="-18" rx="38.19" ry="18"/>
<text text-anchor="middle" x="342" y="-14.3" font-family="Times,serif" font-size="14.00">string</text>
</g>
<!-- socioeconomic exposure&#45;&gt;id -->
<g id="edge3" class="edge">
<title>socioeconomic exposure&#45;&gt;id</title>
<path fill="none" stroke="blue" d="M1000.78,-103.16C879.84,-100.83 689.75,-93.18 527,-69 465.05,-59.79 450.04,-53.81 390,-36 386.9,-35.08 383.71,-34.08 380.52,-33.04"/>
<polygon fill="blue" stroke="blue" points="381.62,-29.71 371.03,-29.83 379.38,-36.35 381.62,-29.71"/>
<text text-anchor="middle" x="534" y="-57.8" font-family="Times,serif" font-size="14.00">id</text>
</g>
<!-- type -->
<g id="node5" class="node">
<title>type</title>
<ellipse fill="none" stroke="blue" cx="437" cy="-18" rx="38.19" ry="18"/>
<text text-anchor="middle" x="437" y="-14.3" font-family="Times,serif" font-size="14.00">string</text>
</g>
<!-- socioeconomic exposure&#45;&gt;type -->
<g id="edge4" class="edge">
<title>socioeconomic exposure&#45;&gt;type</title>
<path fill="none" stroke="blue" d="M1001.04,-102.65C895.55,-99.85 739.3,-91.77 605,-69 559.53,-61.29 509.02,-45.19 475.37,-33.33"/>
<polygon fill="blue" stroke="blue" points="476.52,-30.02 465.92,-29.96 474.16,-36.62 476.52,-30.02"/>
<text text-anchor="middle" x="621" y="-57.8" font-family="Times,serif" font-size="14.00">type</text>
</g>
<!-- description -->
<g id="node6" class="node">
<title>description</title>
<ellipse fill="none" stroke="blue" cx="569" cy="-18" rx="75.29" ry="18"/>
<text text-anchor="middle" x="569" y="-14.3" font-family="Times,serif" font-size="14.00">narrative text</text>
</g>
<!-- socioeconomic exposure&#45;&gt;description -->
<g id="edge5" class="edge">
<title>socioeconomic exposure&#45;&gt;description</title>
<path fill="none" stroke="blue" d="M1006.8,-99.13C897.5,-93.76 742.08,-83.86 683,-69 656.52,-62.34 628.42,-50.08 606.74,-39.37"/>
<polygon fill="blue" stroke="blue" points="608.07,-36.12 597.57,-34.74 604.92,-42.37 608.07,-36.12"/>
<text text-anchor="middle" x="723.5" y="-57.8" font-family="Times,serif" font-size="14.00">description</text>
</g>
<!-- deprecated -->
<g id="node7" class="node">
<title>deprecated</title>
<ellipse fill="none" stroke="blue" cx="709" cy="-18" rx="46.59" ry="18"/>
<text text-anchor="middle" x="709" y="-14.3" font-family="Times,serif" font-size="14.00">boolean</text>
</g>
<!-- socioeconomic exposure&#45;&gt;deprecated -->
<g id="edge6" class="edge">
<title>socioeconomic exposure&#45;&gt;deprecated</title>
<path fill="none" stroke="blue" d="M1001.87,-101.75C940.79,-97.88 866.24,-88.94 802,-69 780.08,-62.2 757.36,-50.09 739.86,-39.5"/>
<polygon fill="blue" stroke="blue" points="741.56,-36.43 731.22,-34.13 737.87,-42.38 741.56,-36.43"/>
<text text-anchor="middle" x="842.5" y="-57.8" font-family="Times,serif" font-size="14.00">deprecated</text>
</g>
<!-- provided by -->
<g id="node8" class="node">
<title>provided by</title>
<ellipse fill="none" stroke="blue" cx="812" cy="-18" rx="38.19" ry="18"/>
<text text-anchor="middle" x="812" y="-14.3" font-family="Times,serif" font-size="14.00">string</text>
</g>
<!-- socioeconomic exposure&#45;&gt;provided by -->
<g id="edge7" class="edge">
<title>socioeconomic exposure&#45;&gt;provided by</title>
<path fill="none" stroke="blue" d="M1032.24,-92.85C997.89,-87.38 958.71,-79.62 924,-69 896.86,-60.69 867.62,-47.49 845.82,-36.73"/>
<polygon fill="blue" stroke="blue" points="847.18,-33.49 836.67,-32.14 844.04,-39.75 847.18,-33.49"/>
<text text-anchor="middle" x="966.5" y="-57.8" font-family="Times,serif" font-size="14.00">provided by</text>
</g>
<!-- xref -->
<g id="node9" class="node">
<title>xref</title>
<ellipse fill="none" stroke="blue" cx="926" cy="-18" rx="57.39" ry="18"/>
<text text-anchor="middle" x="926" y="-14.3" font-family="Times,serif" font-size="14.00">uriorcurie</text>
</g>
<!-- socioeconomic exposure&#45;&gt;xref -->
<g id="edge8" class="edge">
<title>socioeconomic exposure&#45;&gt;xref</title>
<path fill="none" stroke="blue" d="M1085.48,-87.81C1051.91,-73.33 1002.75,-52.12 967.9,-37.08"/>
<polygon fill="blue" stroke="blue" points="969.05,-33.76 958.48,-33.01 966.27,-40.19 969.05,-33.76"/>
<text text-anchor="middle" x="1051.5" y="-57.8" font-family="Times,serif" font-size="14.00">xref</text>
</g>
<!-- full name -->
<g id="node10" class="node">
<title>full name</title>
<ellipse fill="none" stroke="blue" cx="1058" cy="-18" rx="56.59" ry="18"/>
<text text-anchor="middle" x="1058" y="-14.3" font-family="Times,serif" font-size="14.00">label type</text>
</g>
<!-- socioeconomic exposure&#45;&gt;full name -->
<g id="edge9" class="edge">
<title>socioeconomic exposure&#45;&gt;full name</title>
<path fill="none" stroke="blue" d="M1109.84,-86.8C1100.38,-74.43 1087.48,-57.55 1076.91,-43.74"/>
<polygon fill="blue" stroke="blue" points="1079.54,-41.41 1070.69,-35.6 1073.98,-45.67 1079.54,-41.41"/>
<text text-anchor="middle" x="1128.5" y="-57.8" font-family="Times,serif" font-size="14.00">full name</text>
</g>
<!-- synonym -->
<g id="node11" class="node">
<title>synonym</title>
<ellipse fill="none" stroke="blue" cx="1189" cy="-18" rx="56.59" ry="18"/>
<text text-anchor="middle" x="1189" y="-14.3" font-family="Times,serif" font-size="14.00">label type</text>
</g>
<!-- socioeconomic exposure&#45;&gt;synonym -->
<g id="edge10" class="edge">
<title>socioeconomic exposure&#45;&gt;synonym</title>
<path fill="none" stroke="blue" d="M1147.54,-87.21C1154.1,-81.92 1160.81,-75.69 1166,-69 1171.41,-62.02 1175.91,-53.56 1179.45,-45.61"/>
<polygon fill="blue" stroke="blue" points="1182.72,-46.86 1183.3,-36.28 1176.25,-44.19 1182.72,-46.86"/>
<text text-anchor="middle" x="1207" y="-57.8" font-family="Times,serif" font-size="14.00">synonym</text>
</g>
<!-- category -->
<g id="node12" class="node">
<title>category</title>
<ellipse fill="none" stroke="black" cx="1315" cy="-18" rx="51.19" ry="18"/>
<text text-anchor="middle" x="1315" y="-14.3" font-family="Times,serif" font-size="14.00">category</text>
</g>
<!-- socioeconomic exposure&#45;&gt;category -->
<g id="edge11" class="edge">
<title>socioeconomic exposure&#45;&gt;category</title>
<path fill="none" stroke="blue" d="M1186.7,-89.55C1205.31,-84.24 1225.37,-77.41 1243,-69 1258.77,-61.47 1274.88,-50.63 1287.85,-40.97"/>
<polygon fill="blue" stroke="blue" points="1290.06,-43.69 1295.89,-34.84 1285.81,-38.13 1290.06,-43.69"/>
<text text-anchor="middle" x="1300.5" y="-57.8" font-family="Times,serif" font-size="14.00">category</text>
</g>
<!-- name -->
<g id="node14" class="node">
<title>name</title>
<ellipse fill="none" stroke="black" cx="1421" cy="-18" rx="36.29" ry="18"/>
<text text-anchor="middle" x="1421" y="-14.3" font-family="Times,serif" font-size="14.00">name</text>
</g>
<!-- socioeconomic exposure&#45;&gt;name -->
<g id="edge12" class="edge">
<title>socioeconomic exposure&#45;&gt;name</title>
<path fill="none" stroke="blue" d="M1212.58,-92.62C1260.19,-85.91 1313.44,-77.16 1336,-69 1356.23,-61.67 1377.09,-49.49 1393.08,-38.98"/>
<polygon fill="blue" stroke="blue" points="1395.09,-41.84 1401.43,-33.35 1391.18,-36.04 1395.09,-41.84"/>
<text text-anchor="middle" x="1388" y="-57.8" font-family="Times,serif" font-size="14.00">name</text>
</g>
<!-- has attribute type -->
<g id="node16" class="node">
<title>has attribute type</title>
<ellipse fill="none" stroke="blue" cx="1552" cy="-18" rx="76.89" ry="18"/>
<text text-anchor="middle" x="1552" y="-14.3" font-family="Times,serif" font-size="14.00">ontology class</text>
</g>
<!-- socioeconomic exposure&#45;&gt;has attribute type -->
<g id="edge13" class="edge">
<title>socioeconomic exposure&#45;&gt;has attribute type</title>
<path fill="none" stroke="blue" d="M1211.37,-92.45C1225.94,-90.59 1240.89,-88.72 1255,-87 1324.72,-78.51 1343.59,-84.92 1412,-69 1444.68,-61.4 1480.28,-48.62 1507.4,-37.88"/>
<polygon fill="blue" stroke="blue" points="1509.02,-41.01 1516.99,-34.03 1506.41,-34.51 1509.02,-41.01"/>
<text text-anchor="middle" x="1528" y="-57.8" font-family="Times,serif" font-size="14.00">has attribute type</text>
</g>
<!-- has quantitative value -->
<g id="node17" class="node">
<title>has quantitative value</title>
<ellipse fill="none" stroke="blue" cx="1724" cy="-18" rx="77.19" ry="18"/>
<text text-anchor="middle" x="1724" y="-14.3" font-family="Times,serif" font-size="14.00">quantity value</text>
</g>
<!-- socioeconomic exposure&#45;&gt;has quantitative value -->
<g id="edge14" class="edge">
<title>socioeconomic exposure&#45;&gt;has quantitative value</title>
<path fill="none" stroke="blue" d="M1208.45,-92.04C1223.92,-90.14 1239.92,-88.37 1255,-87 1406.59,-73.27 1448.25,-101.3 1597,-69 1626.94,-62.5 1659.05,-49.8 1683.48,-38.83"/>
<polygon fill="blue" stroke="blue" points="1685.15,-41.92 1692.79,-34.57 1682.24,-35.55 1685.15,-41.92"/>
<text text-anchor="middle" x="1724" y="-57.8" font-family="Times,serif" font-size="14.00">has quantitative value</text>
</g>
<!-- has qualitative value -->
<g id="node18" class="node">
<title>has qualitative value</title>
<ellipse fill="none" stroke="blue" cx="1889" cy="-18" rx="69.59" ry="18"/>
<text text-anchor="middle" x="1889" y="-14.3" font-family="Times,serif" font-size="14.00">named thing</text>
</g>
<!-- socioeconomic exposure&#45;&gt;has qualitative value -->
<g id="edge15" class="edge">
<title>socioeconomic exposure&#45;&gt;has qualitative value</title>
<path fill="none" stroke="blue" d="M1207.37,-91.91C1223.17,-90 1239.56,-88.24 1255,-87 1316.27,-82.07 1749.13,-86.74 1808,-69 1827.04,-63.26 1846.09,-51.86 1860.92,-41.4"/>
<polygon fill="blue" stroke="blue" points="1863.12,-44.12 1869.13,-35.39 1858.99,-38.47 1863.12,-44.12"/>
<text text-anchor="middle" x="1916.5" y="-57.8" font-family="Times,serif" font-size="14.00">has qualitative value</text>
</g>
<!-- iri -->
<g id="node19" class="node">
<title>iri</title>
<ellipse fill="none" stroke="blue" cx="2040" cy="-18" rx="44.39" ry="18"/>
<text text-anchor="middle" x="2040" y="-14.3" font-family="Times,serif" font-size="14.00">iri type</text>
</g>
<!-- socioeconomic exposure&#45;&gt;iri -->
<g id="edge16" class="edge">
<title>socioeconomic exposure&#45;&gt;iri</title>
<path fill="none" stroke="blue" d="M1207.01,-91.85C1222.92,-89.93 1239.44,-88.19 1255,-87 1296,-83.87 1957.64,-86.19 1995,-69 2006.65,-63.64 2016.58,-53.68 2024.13,-44.05"/>
<polygon fill="blue" stroke="blue" points="2027.08,-45.94 2030.13,-35.79 2021.42,-41.82 2027.08,-45.94"/>
<text text-anchor="middle" x="2023" y="-57.8" font-family="Times,serif" font-size="14.00">iri</text>
</g>
<!-- has attribute -->
<g id="node20" class="node">
<title>has attribute</title>
<ellipse fill="none" stroke="black" cx="2174" cy="-18" rx="71.49" ry="18"/>
<text text-anchor="middle" x="2174" y="-14.3" font-family="Times,serif" font-size="14.00">has attribute</text>
</g>
<!-- socioeconomic exposure&#45;&gt;has attribute -->
<g id="edge17" class="edge">
<title>socioeconomic exposure&#45;&gt;has attribute</title>
<path fill="none" stroke="blue" d="M1207.01,-91.84C1222.92,-89.92 1239.44,-88.18 1255,-87 1427.88,-73.91 1864.55,-100.75 2035,-69 2068.56,-62.75 2104.82,-49.47 2131.88,-38.17"/>
<polygon fill="blue" stroke="blue" points="2133.58,-41.25 2141.41,-34.11 2130.84,-34.81 2133.58,-41.25"/>
<text text-anchor="middle" x="2137" y="-57.8" font-family="Times,serif" font-size="14.00">has attribute</text>
</g>
<!-- timepoint -->
<g id="node22" class="node">
<title>timepoint</title>
<ellipse fill="none" stroke="blue" cx="2319" cy="-18" rx="55.49" ry="18"/>
<text text-anchor="middle" x="2319" y="-14.3" font-family="Times,serif" font-size="14.00">time type</text>
</g>
<!-- socioeconomic exposure&#45;&gt;timepoint -->
<g id="edge18" class="edge">
<title>socioeconomic exposure&#45;&gt;timepoint</title>
<path fill="none" stroke="blue" d="M1207,-91.79C1222.91,-89.87 1239.44,-88.15 1255,-87 1358.4,-79.37 2086.21,-88.78 2188,-69 2220.31,-62.72 2255.04,-49.12 2280.61,-37.69"/>
<polygon fill="blue" stroke="blue" points="2282.3,-40.77 2289.94,-33.44 2279.39,-34.4 2282.3,-40.77"/>
<text text-anchor="middle" x="2274" y="-57.8" font-family="Times,serif" font-size="14.00">timepoint</text>
</g>
<!-- named thing_category -->
<g id="node13" class="node">
<title>named thing_category</title>
<ellipse fill="none" stroke="blue" cx="1339" cy="-105" rx="74.99" ry="18"/>
<text text-anchor="middle" x="1339" y="-101.3" font-family="Times,serif" font-size="14.00">category type</text>
</g>
<!-- attribute_name -->
<g id="node15" class="node">
<title>attribute_name</title>
<ellipse fill="none" stroke="blue" cx="1488" cy="-105" rx="56.59" ry="18"/>
<text text-anchor="middle" x="1488" y="-101.3" font-family="Times,serif" font-size="14.00">label type</text>
</g>
<!-- socioeconomic exposure_has attribute -->
<g id="node21" class="node">
<title>socioeconomic exposure_has attribute</title>
<ellipse fill="none" stroke="blue" cx="1685" cy="-105" rx="122.38" ry="18"/>
<text text-anchor="middle" x="1685" y="-101.3" font-family="Times,serif" font-size="14.00">socioeconomic attribute</text>
</g>
</g>
</svg>
