<?xml version="1.0" encoding="UTF-8" standalone="no"?>
<!DOCTYPE svg PUBLIC "-//W3C//DTD SVG 1.1//EN"
 "http://www.w3.org/Graphics/SVG/1.1/DTD/svg11.dtd">
<!-- Generated by graphviz version 2.43.0 (0)
 -->
<!-- Title: %3 Pages: 1 -->
<svg width="2310pt" height="131pt"
 viewBox="0.00 0.00 2309.59 131.00" xmlns="http://www.w3.org/2000/svg" xmlns:xlink="http://www.w3.org/1999/xlink">
<g id="graph0" class="graph" transform="scale(1 1) rotate(0) translate(4 127)">
<title>%3</title>
<polygon fill="white" stroke="transparent" points="-4,4 -4,-127 2305.59,-127 2305.59,4 -4,4"/>
<!-- socioeconomic exposure -->
<g id="node1" class="node">
<title>socioeconomic exposure</title>
<ellipse fill="none" stroke="black" cx="955.35" cy="-105" rx="122.68" ry="18"/>
<text text-anchor="middle" x="955.35" y="-101.3" font-family="Times,serif" font-size="14.00">socioeconomic exposure</text>
</g>
<!-- behavior -->
<g id="node2" class="node">
<title>behavior</title>
<ellipse fill="none" stroke="black" cx="51.35" cy="-18" rx="51.19" ry="18"/>
<text text-anchor="middle" x="51.35" y="-14.3" font-family="Times,serif" font-size="14.00">behavior</text>
</g>
<!-- socioeconomic exposure&#45;&gt;behavior -->
<g id="edge1" class="edge">
<title>socioeconomic exposure&#45;&gt;behavior</title>
<path fill="none" stroke="black" d="M834.85,-101.38C705.22,-97.64 493.19,-88.88 311.35,-69 221.79,-59.21 199.27,-55.64 111.35,-36 107.24,-35.08 103.01,-34.05 98.77,-32.97"/>
<polygon fill="black" stroke="black" points="99.51,-29.54 88.95,-30.35 97.71,-36.31 99.51,-29.54"/>
<text text-anchor="middle" x="325.35" y="-57.8" font-family="Times,serif" font-size="14.00">is_a</text>
</g>
<!-- exposure event -->
<g id="node3" class="node">
<title>exposure event</title>
<ellipse fill="none" stroke="black" cx="202.35" cy="-18" rx="81.79" ry="18"/>
<text text-anchor="middle" x="202.35" y="-14.3" font-family="Times,serif" font-size="14.00">exposure event</text>
</g>
<!-- socioeconomic exposure&#45;&gt;exposure event -->
<g id="edge2" class="edge">
<title>socioeconomic exposure&#45;&gt;exposure event</title>
<path fill="none" stroke="black" d="M834.68,-101.56C726.07,-98.07 562.35,-89.58 421.35,-69 366.39,-60.98 304.81,-46.41 260.98,-35.06"/>
<polygon fill="black" stroke="black" points="261.63,-31.61 251.07,-32.47 259.86,-38.38 261.63,-31.61"/>
<text text-anchor="middle" x="437.85" y="-57.8" font-family="Times,serif" font-size="14.00">uses</text>
</g>
<!-- id -->
<g id="node4" class="node">
<title>id</title>
<ellipse fill="none" stroke="blue" cx="340.35" cy="-18" rx="38.19" ry="18"/>
<text text-anchor="middle" x="340.35" y="-14.3" font-family="Times,serif" font-size="14.00">string</text>
</g>
<!-- socioeconomic exposure&#45;&gt;id -->
<g id="edge3" class="edge">
<title>socioeconomic exposure&#45;&gt;id</title>
<path fill="none" stroke="blue" d="M841.52,-98.09C758.77,-92.88 644.23,-83.76 544.35,-69 474.24,-58.64 456.56,-55.2 388.35,-36 385.24,-35.13 382.04,-34.15 378.85,-33.13"/>
<polygon fill="blue" stroke="blue" points="379.93,-29.81 369.34,-29.96 377.72,-36.45 379.93,-29.81"/>
<text text-anchor="middle" x="551.35" y="-57.8" font-family="Times,serif" font-size="14.00">id</text>
</g>
<!-- iri -->
<g id="node5" class="node">
<title>iri</title>
<ellipse fill="none" stroke="blue" cx="441.35" cy="-18" rx="44.39" ry="18"/>
<text text-anchor="middle" x="441.35" y="-14.3" font-family="Times,serif" font-size="14.00">iri type</text>
</g>
<!-- socioeconomic exposure&#45;&gt;iri -->
<g id="edge4" class="edge">
<title>socioeconomic exposure&#45;&gt;iri</title>
<path fill="none" stroke="blue" d="M849.34,-95.78C786.56,-90.09 705.61,-81.3 634.35,-69 571.77,-58.2 556.56,-52.88 495.35,-36 491.77,-35.01 488.08,-33.95 484.38,-32.85"/>
<polygon fill="blue" stroke="blue" points="485.23,-29.45 474.65,-29.9 483.2,-36.15 485.23,-29.45"/>
<text text-anchor="middle" x="642.35" y="-57.8" font-family="Times,serif" font-size="14.00">iri</text>
</g>
<!-- type -->
<g id="node6" class="node">
<title>type</title>
<ellipse fill="none" stroke="blue" cx="542.35" cy="-18" rx="38.19" ry="18"/>
<text text-anchor="middle" x="542.35" y="-14.3" font-family="Times,serif" font-size="14.00">string</text>
</g>
<!-- socioeconomic exposure&#45;&gt;type -->
<g id="edge5" class="edge">
<title>socioeconomic exposure&#45;&gt;type</title>
<path fill="none" stroke="blue" d="M866.33,-92.52C823.02,-86.44 770.29,-78.3 723.35,-69 663.18,-57.08 648.04,-53.79 589.35,-36 586.58,-35.16 583.74,-34.26 580.89,-33.31"/>
<polygon fill="blue" stroke="blue" points="581.86,-29.94 571.27,-30 579.59,-36.56 581.86,-29.94"/>
<text text-anchor="middle" x="739.35" y="-57.8" font-family="Times,serif" font-size="14.00">type</text>
</g>
<!-- name -->
<g id="node7" class="node">
<title>name</title>
<ellipse fill="none" stroke="blue" cx="655.35" cy="-18" rx="56.59" ry="18"/>
<text text-anchor="middle" x="655.35" y="-14.3" font-family="Times,serif" font-size="14.00">label type</text>
</g>
<!-- socioeconomic exposure&#45;&gt;name -->
<g id="edge6" class="edge">
<title>socioeconomic exposure&#45;&gt;name</title>
<path fill="none" stroke="blue" d="M888.09,-89.86C861.82,-83.96 831.53,-76.69 804.35,-69 769.2,-59.05 730.07,-45.84 700.73,-35.49"/>
<polygon fill="blue" stroke="blue" points="701.77,-32.15 691.17,-32.1 699.43,-38.74 701.77,-32.15"/>
<text text-anchor="middle" x="824.35" y="-57.8" font-family="Times,serif" font-size="14.00">name</text>
</g>
<!-- description -->
<g id="node8" class="node">
<title>description</title>
<ellipse fill="none" stroke="blue" cx="805.35" cy="-18" rx="75.29" ry="18"/>
<text text-anchor="middle" x="805.35" y="-14.3" font-family="Times,serif" font-size="14.00">narrative text</text>
</g>
<!-- socioeconomic exposure&#45;&gt;description -->
<g id="edge7" class="edge">
<title>socioeconomic exposure&#45;&gt;description</title>
<path fill="none" stroke="blue" d="M910.61,-88.17C897.3,-82.78 882.93,-76.26 870.35,-69 856.95,-61.27 843.22,-51.1 831.85,-41.95"/>
<polygon fill="blue" stroke="blue" points="833.97,-39.16 824.02,-35.52 829.52,-44.57 833.97,-39.16"/>
<text text-anchor="middle" x="910.85" y="-57.8" font-family="Times,serif" font-size="14.00">description</text>
</g>
<!-- source -->
<g id="node9" class="node">
<title>source</title>
<ellipse fill="none" stroke="blue" cx="955.35" cy="-18" rx="56.59" ry="18"/>
<text text-anchor="middle" x="955.35" y="-14.3" font-family="Times,serif" font-size="14.00">label type</text>
</g>
<!-- socioeconomic exposure&#45;&gt;source -->
<g id="edge8" class="edge">
<title>socioeconomic exposure&#45;&gt;source</title>
<path fill="none" stroke="blue" d="M955.35,-86.8C955.35,-75.16 955.35,-59.55 955.35,-46.24"/>
<polygon fill="blue" stroke="blue" points="958.85,-46.18 955.35,-36.18 951.85,-46.18 958.85,-46.18"/>
<text text-anchor="middle" x="979.35" y="-57.8" font-family="Times,serif" font-size="14.00">source</text>
</g>
<!-- provided by -->
<g id="node10" class="node">
<title>provided by</title>
<ellipse fill="none" stroke="blue" cx="1067.35" cy="-18" rx="37.09" ry="18"/>
<text text-anchor="middle" x="1067.35" y="-14.3" font-family="Times,serif" font-size="14.00">agent</text>
</g>
<!-- socioeconomic exposure&#45;&gt;provided by -->
<g id="edge9" class="edge">
<title>socioeconomic exposure&#45;&gt;provided by</title>
<path fill="none" stroke="blue" d="M981.36,-87.24C989.78,-81.62 999.08,-75.2 1007.35,-69 1019.19,-60.12 1031.84,-49.72 1042.46,-40.71"/>
<polygon fill="blue" stroke="blue" points="1044.81,-43.3 1050.14,-34.14 1040.26,-37.98 1044.81,-43.3"/>
<text text-anchor="middle" x="1068.85" y="-57.8" font-family="Times,serif" font-size="14.00">provided by</text>
</g>
<!-- category -->
<g id="node11" class="node">
<title>category</title>
<ellipse fill="none" stroke="black" cx="1173.35" cy="-18" rx="51.19" ry="18"/>
<text text-anchor="middle" x="1173.35" y="-14.3" font-family="Times,serif" font-size="14.00">category</text>
</g>
<!-- socioeconomic exposure&#45;&gt;category -->
<g id="edge10" class="edge">
<title>socioeconomic exposure&#45;&gt;category</title>
<path fill="none" stroke="blue" d="M1044.78,-92.57C1068.53,-87.38 1093.6,-79.87 1115.35,-69 1128.61,-62.37 1141.33,-52.02 1151.46,-42.46"/>
<polygon fill="blue" stroke="blue" points="1153.99,-44.88 1158.67,-35.37 1149.08,-39.89 1153.99,-44.88"/>
<text text-anchor="middle" x="1169.85" y="-57.8" font-family="Times,serif" font-size="14.00">category</text>
</g>
<!-- has input -->
<g id="node13" class="node">
<title>has input</title>
<ellipse fill="none" stroke="blue" cx="1386.35" cy="-18" rx="143.77" ry="18"/>
<text text-anchor="middle" x="1386.35" y="-14.3" font-family="Times,serif" font-size="14.00">biological process or activity</text>
</g>
<!-- socioeconomic exposure&#45;&gt;has input -->
<g id="edge11" class="edge">
<title>socioeconomic exposure&#45;&gt;has input</title>
<path fill="none" stroke="blue" d="M1042.81,-92.32C1108.39,-83.47 1189.47,-72.29 1205.35,-69 1246.05,-60.57 1291.11,-48.13 1326.09,-37.77"/>
<polygon fill="blue" stroke="blue" points="1327.1,-41.12 1335.68,-34.91 1325.09,-34.41 1327.1,-41.12"/>
<text text-anchor="middle" x="1299.85" y="-57.8" font-family="Times,serif" font-size="14.00">has input</text>
</g>
<!-- has output -->
<g id="node14" class="node">
<title>has output</title>
<ellipse fill="none" stroke="blue" cx="1691.35" cy="-18" rx="143.77" ry="18"/>
<text text-anchor="middle" x="1691.35" y="-14.3" font-family="Times,serif" font-size="14.00">biological process or activity</text>
</g>
<!-- socioeconomic exposure&#45;&gt;has output -->
<g id="edge12" class="edge">
<title>socioeconomic exposure&#45;&gt;has output</title>
<path fill="none" stroke="blue" d="M1041.58,-92.09C1056.49,-90.24 1071.86,-88.46 1086.35,-87 1197.63,-75.8 1226.13,-80.83 1337.35,-69 1425.44,-59.63 1525.34,-45.17 1596.5,-34.2"/>
<polygon fill="blue" stroke="blue" points="1597.44,-37.6 1606.79,-32.61 1596.37,-30.68 1597.44,-37.6"/>
<text text-anchor="middle" x="1493.85" y="-57.8" font-family="Times,serif" font-size="14.00">has output</text>
</g>
<!-- enabled by -->
<g id="node15" class="node">
<title>enabled by</title>
<ellipse fill="none" stroke="blue" cx="1932.35" cy="-18" rx="79.09" ry="18"/>
<text text-anchor="middle" x="1932.35" y="-14.3" font-family="Times,serif" font-size="14.00">physical entity</text>
</g>
<!-- socioeconomic exposure&#45;&gt;enabled by -->
<g id="edge13" class="edge">
<title>socioeconomic exposure&#45;&gt;enabled by</title>
<path fill="none" stroke="blue" d="M1039.79,-91.92C1055.25,-90.03 1071.26,-88.28 1086.35,-87 1285.79,-70.1 1336.72,-83.67 1536.35,-69 1673.65,-58.91 1708.19,-56.41 1844.35,-36 1851.17,-34.98 1858.27,-33.8 1865.35,-32.55"/>
<polygon fill="blue" stroke="blue" points="1866.45,-35.91 1875.66,-30.68 1865.2,-29.02 1866.45,-35.91"/>
<text text-anchor="middle" x="1751.85" y="-57.8" font-family="Times,serif" font-size="14.00">enabled by</text>
</g>
<!-- has attribute -->
<g id="node16" class="node">
<title>has attribute</title>
<ellipse fill="none" stroke="black" cx="2101.35" cy="-18" rx="71.49" ry="18"/>
<text text-anchor="middle" x="2101.35" y="-14.3" font-family="Times,serif" font-size="14.00">has attribute</text>
</g>
<!-- socioeconomic exposure&#45;&gt;has attribute -->
<g id="edge14" class="edge">
<title>socioeconomic exposure&#45;&gt;has attribute</title>
<path fill="none" stroke="blue" d="M1039.07,-91.82C1054.75,-89.91 1071.03,-88.19 1086.35,-87 1400.62,-62.68 1481.28,-95.92 1795.35,-69 1896.05,-60.37 1920.84,-53.72 2020.35,-36 2026.47,-34.91 2032.85,-33.7 2039.2,-32.45"/>
<polygon fill="blue" stroke="blue" points="2040.04,-35.85 2049.15,-30.44 2038.66,-28.99 2040.04,-35.85"/>
<text text-anchor="middle" x="1967.35" y="-57.8" font-family="Times,serif" font-size="14.00">has attribute</text>
</g>
<!-- timepoint -->
<g id="node18" class="node">
<title>timepoint</title>
<ellipse fill="none" stroke="blue" cx="2246.35" cy="-18" rx="55.49" ry="18"/>
<text text-anchor="middle" x="2246.35" y="-14.3" font-family="Times,serif" font-size="14.00">time type</text>
</g>
<!-- socioeconomic exposure&#45;&gt;timepoint -->
<g id="edge15" class="edge">
<title>socioeconomic exposure&#45;&gt;timepoint</title>
<path fill="none" stroke="blue" d="M1039.07,-91.75C1054.75,-89.85 1071.02,-88.14 1086.35,-87 1292.93,-71.65 1812.44,-91.64 2018.35,-69 2080.64,-62.15 2150.88,-45.33 2196.73,-33.08"/>
<polygon fill="blue" stroke="blue" points="2197.67,-36.45 2206.41,-30.47 2195.85,-29.7 2197.67,-36.45"/>
<text text-anchor="middle" x="2142.35" y="-57.8" font-family="Times,serif" font-size="14.00">timepoint</text>
</g>
<!-- named thing_category -->
<g id="node12" class="node">
<title>named thing_category</title>
<ellipse fill="none" stroke="blue" cx="1165.35" cy="-105" rx="69.59" ry="18"/>
<text text-anchor="middle" x="1165.35" y="-101.3" font-family="Times,serif" font-size="14.00">named thing</text>
</g>
<!-- socioeconomic exposure_has attribute -->
<g id="node17" class="node">
<title>socioeconomic exposure_has attribute</title>
<ellipse fill="none" stroke="blue" cx="1375.35" cy="-105" rx="122.38" ry="18"/>
<text text-anchor="middle" x="1375.35" y="-101.3" font-family="Times,serif" font-size="14.00">socioeconomic attribute</text>
</g>
</g>
</svg>
