<?xml version="1.0" encoding="UTF-8" standalone="no"?>
<!DOCTYPE svg PUBLIC "-//W3C//DTD SVG 1.1//EN"
 "http://www.w3.org/Graphics/SVG/1.1/DTD/svg11.dtd">
<!-- Generated by graphviz version 2.43.0 (0)
 -->
<!-- Title: %3 Pages: 1 -->
<svg width="1969pt" height="131pt"
 viewBox="0.00 0.00 1969.44 131.00" xmlns="http://www.w3.org/2000/svg" xmlns:xlink="http://www.w3.org/1999/xlink">
<g id="graph0" class="graph" transform="scale(1 1) rotate(0) translate(4 127)">
<title>%3</title>
<polygon fill="white" stroke="transparent" points="-4,4 -4,-127 1965.44,-127 1965.44,4 -4,4"/>
<!-- study variable -->
<g id="node1" class="node">
<title>study variable</title>
<ellipse fill="none" stroke="black" cx="1101.24" cy="-105" rx="77.19" ry="18"/>
<text text-anchor="middle" x="1101.24" y="-101.3" font-family="Times,serif" font-size="14.00">study variable</text>
</g>
<!-- information content entity -->
<g id="node2" class="node">
<title>information content entity</title>
<ellipse fill="none" stroke="black" cx="133.24" cy="-18" rx="133.48" ry="18"/>
<text text-anchor="middle" x="133.24" y="-14.3" font-family="Times,serif" font-size="14.00">information content entity</text>
</g>
<!-- study variable&#45;&gt;information content entity -->
<g id="edge1" class="edge">
<title>study variable&#45;&gt;information content entity</title>
<path fill="none" stroke="black" d="M1024.17,-103.33C896.09,-101.5 631.51,-94.65 409.24,-69 341.5,-61.18 265.28,-46.96 210.13,-35.67"/>
<polygon fill="black" stroke="black" points="210.59,-32.19 200.09,-33.6 209.17,-39.05 210.59,-32.19"/>
<text text-anchor="middle" x="423.24" y="-57.8" font-family="Times,serif" font-size="14.00">is_a</text>
</g>
<!-- id -->
<g id="node3" class="node">
<title>id</title>
<ellipse fill="none" stroke="blue" cx="323.24" cy="-18" rx="38.19" ry="18"/>
<text text-anchor="middle" x="323.24" y="-14.3" font-family="Times,serif" font-size="14.00">string</text>
</g>
<!-- study variable&#45;&gt;id -->
<g id="edge2" class="edge">
<title>study variable&#45;&gt;id</title>
<path fill="none" stroke="blue" d="M1024.29,-102.91C913.82,-100.53 704.08,-92.96 527.24,-69 457.01,-59.48 439.45,-55.2 371.24,-36 368.13,-35.13 364.94,-34.15 361.74,-33.13"/>
<polygon fill="blue" stroke="blue" points="362.83,-29.81 352.23,-29.96 360.61,-36.45 362.83,-29.81"/>
<text text-anchor="middle" x="534.24" y="-57.8" font-family="Times,serif" font-size="14.00">id</text>
</g>
<!-- iri -->
<g id="node4" class="node">
<title>iri</title>
<ellipse fill="none" stroke="blue" cx="424.24" cy="-18" rx="44.39" ry="18"/>
<text text-anchor="middle" x="424.24" y="-14.3" font-family="Times,serif" font-size="14.00">iri type</text>
</g>
<!-- study variable&#45;&gt;iri -->
<g id="edge3" class="edge">
<title>study variable&#45;&gt;iri</title>
<path fill="none" stroke="blue" d="M1024.29,-102.47C927.75,-99.64 757.36,-91.62 613.24,-69 562.3,-61.01 505.25,-44.89 467.29,-33.11"/>
<polygon fill="blue" stroke="blue" points="468.18,-29.72 457.59,-30.06 466.08,-36.4 468.18,-29.72"/>
<text text-anchor="middle" x="621.24" y="-57.8" font-family="Times,serif" font-size="14.00">iri</text>
</g>
<!-- type -->
<g id="node5" class="node">
<title>type</title>
<ellipse fill="none" stroke="blue" cx="525.24" cy="-18" rx="38.19" ry="18"/>
<text text-anchor="middle" x="525.24" y="-14.3" font-family="Times,serif" font-size="14.00">string</text>
</g>
<!-- study variable&#45;&gt;type -->
<g id="edge4" class="edge">
<title>study variable&#45;&gt;type</title>
<path fill="none" stroke="blue" d="M1025.33,-101.52C943.18,-97.89 808.6,-89.22 694.24,-69 648.58,-60.93 597.76,-44.89 563.88,-33.15"/>
<polygon fill="blue" stroke="blue" points="564.96,-29.82 554.37,-29.81 562.64,-36.42 564.96,-29.82"/>
<text text-anchor="middle" x="710.24" y="-57.8" font-family="Times,serif" font-size="14.00">type</text>
</g>
<!-- name -->
<g id="node6" class="node">
<title>name</title>
<ellipse fill="none" stroke="blue" cx="638.24" cy="-18" rx="56.59" ry="18"/>
<text text-anchor="middle" x="638.24" y="-14.3" font-family="Times,serif" font-size="14.00">label type</text>
</g>
<!-- study variable&#45;&gt;name -->
<g id="edge5" class="edge">
<title>study variable&#45;&gt;name</title>
<path fill="none" stroke="blue" d="M1026.01,-100.52C960.86,-96.38 864.44,-87.53 782.24,-69 747.25,-61.11 708.95,-47.56 680.65,-36.56"/>
<polygon fill="blue" stroke="blue" points="681.67,-33.2 671.08,-32.78 679.1,-39.71 681.67,-33.2"/>
<text text-anchor="middle" x="802.24" y="-57.8" font-family="Times,serif" font-size="14.00">name</text>
</g>
<!-- description -->
<g id="node7" class="node">
<title>description</title>
<ellipse fill="none" stroke="blue" cx="788.24" cy="-18" rx="75.29" ry="18"/>
<text text-anchor="middle" x="788.24" y="-14.3" font-family="Times,serif" font-size="14.00">narrative text</text>
</g>
<!-- study variable&#45;&gt;description -->
<g id="edge6" class="edge">
<title>study variable&#45;&gt;description</title>
<path fill="none" stroke="blue" d="M1023.97,-103.83C972.8,-101.2 905.25,-92.82 850.24,-69 835.94,-62.81 822.22,-52.39 811.34,-42.65"/>
<polygon fill="blue" stroke="blue" points="813.65,-40.02 803.95,-35.76 808.87,-45.14 813.65,-40.02"/>
<text text-anchor="middle" x="890.74" y="-57.8" font-family="Times,serif" font-size="14.00">description</text>
</g>
<!-- has attribute -->
<g id="node8" class="node">
<title>has attribute</title>
<ellipse fill="none" stroke="blue" cx="933.24" cy="-18" rx="51.99" ry="18"/>
<text text-anchor="middle" x="933.24" y="-14.3" font-family="Times,serif" font-size="14.00">attribute</text>
</g>
<!-- study variable&#45;&gt;has attribute -->
<g id="edge7" class="edge">
<title>study variable&#45;&gt;has attribute</title>
<path fill="none" stroke="blue" d="M1032.86,-96.53C995.78,-91.06 954.98,-82.24 942.24,-69 936.48,-63.01 933.74,-54.66 932.58,-46.49"/>
<polygon fill="blue" stroke="blue" points="936.06,-46.16 931.84,-36.44 929.08,-46.67 936.06,-46.16"/>
<text text-anchor="middle" x="989.24" y="-57.8" font-family="Times,serif" font-size="14.00">has attribute</text>
</g>
<!-- provided by -->
<g id="node9" class="node">
<title>provided by</title>
<ellipse fill="none" stroke="blue" cx="1041.24" cy="-18" rx="38.19" ry="18"/>
<text text-anchor="middle" x="1041.24" y="-14.3" font-family="Times,serif" font-size="14.00">string</text>
</g>
<!-- study variable&#45;&gt;provided by -->
<g id="edge8" class="edge">
<title>study variable&#45;&gt;provided by</title>
<path fill="none" stroke="blue" d="M1065.12,-88.98C1056.93,-83.85 1049.19,-77.27 1044.24,-69 1040.24,-62.33 1038.67,-54.23 1038.32,-46.5"/>
<polygon fill="blue" stroke="blue" points="1041.82,-46.42 1038.48,-36.37 1034.82,-46.31 1041.82,-46.42"/>
<text text-anchor="middle" x="1086.74" y="-57.8" font-family="Times,serif" font-size="14.00">provided by</text>
</g>
<!-- xref -->
<g id="node10" class="node">
<title>xref</title>
<ellipse fill="none" stroke="blue" cx="1155.24" cy="-18" rx="57.39" ry="18"/>
<text text-anchor="middle" x="1155.24" y="-14.3" font-family="Times,serif" font-size="14.00">uriorcurie</text>
</g>
<!-- study variable&#45;&gt;xref -->
<g id="edge9" class="edge">
<title>study variable&#45;&gt;xref</title>
<path fill="none" stroke="blue" d="M1118.72,-87.12C1123.81,-81.65 1129.1,-75.35 1133.24,-69 1137.97,-61.74 1142.13,-53.29 1145.52,-45.42"/>
<polygon fill="blue" stroke="blue" points="1148.86,-46.49 1149.39,-35.91 1142.38,-43.85 1148.86,-46.49"/>
<text text-anchor="middle" x="1156.74" y="-57.8" font-family="Times,serif" font-size="14.00">xref</text>
</g>
<!-- full name -->
<g id="node11" class="node">
<title>full name</title>
<ellipse fill="none" stroke="blue" cx="1287.24" cy="-18" rx="56.59" ry="18"/>
<text text-anchor="middle" x="1287.24" y="-14.3" font-family="Times,serif" font-size="14.00">label type</text>
</g>
<!-- study variable&#45;&gt;full name -->
<g id="edge10" class="edge">
<title>study variable&#45;&gt;full name</title>
<path fill="none" stroke="blue" d="M1134.92,-88.61C1166.36,-74.24 1213.33,-52.77 1246.79,-37.48"/>
<polygon fill="blue" stroke="blue" points="1248.64,-40.49 1256.28,-33.15 1245.73,-34.12 1248.64,-40.49"/>
<text text-anchor="middle" x="1239.74" y="-57.8" font-family="Times,serif" font-size="14.00">full name</text>
</g>
<!-- synonym -->
<g id="node12" class="node">
<title>synonym</title>
<ellipse fill="none" stroke="blue" cx="1418.24" cy="-18" rx="56.59" ry="18"/>
<text text-anchor="middle" x="1418.24" y="-14.3" font-family="Times,serif" font-size="14.00">label type</text>
</g>
<!-- study variable&#45;&gt;synonym -->
<g id="edge11" class="edge">
<title>study variable&#45;&gt;synonym</title>
<path fill="none" stroke="blue" d="M1158.22,-92.72C1209.06,-82.64 1275.76,-69.41 1277.24,-69 1310.62,-59.82 1347.46,-46.64 1375.11,-36.12"/>
<polygon fill="blue" stroke="blue" points="1376.41,-39.37 1384.49,-32.52 1373.9,-32.84 1376.41,-39.37"/>
<text text-anchor="middle" x="1357.24" y="-57.8" font-family="Times,serif" font-size="14.00">synonym</text>
</g>
<!-- category -->
<g id="node13" class="node">
<title>category</title>
<ellipse fill="none" stroke="black" cx="1544.24" cy="-18" rx="51.19" ry="18"/>
<text text-anchor="middle" x="1544.24" y="-14.3" font-family="Times,serif" font-size="14.00">category</text>
</g>
<!-- study variable&#45;&gt;category -->
<g id="edge12" class="edge">
<title>study variable&#45;&gt;category</title>
<path fill="none" stroke="blue" d="M1156.14,-92.23C1166.44,-90.28 1177.14,-88.43 1187.24,-87 1278.23,-74.07 1303.23,-87.57 1393.24,-69 1431.02,-61.2 1472.54,-47.03 1502.46,-35.75"/>
<polygon fill="blue" stroke="blue" points="1504.05,-38.89 1512.14,-32.06 1501.55,-32.35 1504.05,-38.89"/>
<text text-anchor="middle" x="1479.74" y="-57.8" font-family="Times,serif" font-size="14.00">category</text>
</g>
<!-- license -->
<g id="node15" class="node">
<title>license</title>
<ellipse fill="none" stroke="blue" cx="1652.24" cy="-18" rx="38.19" ry="18"/>
<text text-anchor="middle" x="1652.24" y="-14.3" font-family="Times,serif" font-size="14.00">string</text>
</g>
<!-- study variable&#45;&gt;license -->
<g id="edge13" class="edge">
<title>study variable&#45;&gt;license</title>
<path fill="none" stroke="blue" d="M1155.64,-92.05C1166.09,-90.09 1176.97,-88.29 1187.24,-87 1332.1,-68.8 1372.22,-98.35 1515.24,-69 1550.69,-61.73 1589.27,-46.99 1616.42,-35.38"/>
<polygon fill="blue" stroke="blue" points="1618.11,-38.47 1625.89,-31.27 1615.32,-32.05 1618.11,-38.47"/>
<text text-anchor="middle" x="1591.24" y="-57.8" font-family="Times,serif" font-size="14.00">license</text>
</g>
<!-- rights -->
<g id="node16" class="node">
<title>rights</title>
<ellipse fill="none" stroke="blue" cx="1747.24" cy="-18" rx="38.19" ry="18"/>
<text text-anchor="middle" x="1747.24" y="-14.3" font-family="Times,serif" font-size="14.00">string</text>
</g>
<!-- study variable&#45;&gt;rights -->
<g id="edge14" class="edge">
<title>study variable&#45;&gt;rights</title>
<path fill="none" stroke="blue" d="M1155.17,-92.02C1165.76,-90.05 1176.81,-88.24 1187.24,-87 1378.5,-64.26 1431.79,-108.83 1620.24,-69 1652.92,-62.09 1688.13,-47.63 1713.16,-36.02"/>
<polygon fill="blue" stroke="blue" points="1714.69,-39.18 1722.23,-31.74 1711.7,-32.85 1714.69,-39.18"/>
<text text-anchor="middle" x="1688.74" y="-57.8" font-family="Times,serif" font-size="14.00">rights</text>
</g>
<!-- format -->
<g id="node17" class="node">
<title>format</title>
<ellipse fill="none" stroke="blue" cx="1842.24" cy="-18" rx="38.19" ry="18"/>
<text text-anchor="middle" x="1842.24" y="-14.3" font-family="Times,serif" font-size="14.00">string</text>
</g>
<!-- study variable&#45;&gt;format -->
<g id="edge15" class="edge">
<title>study variable&#45;&gt;format</title>
<path fill="none" stroke="blue" d="M1155.16,-91.96C1165.75,-89.99 1176.81,-88.2 1187.24,-87 1303.65,-73.59 1599.47,-92.66 1714.24,-69 1747.18,-62.21 1782.66,-47.73 1807.89,-36.1"/>
<polygon fill="blue" stroke="blue" points="1809.48,-39.22 1817.04,-31.8 1806.5,-32.89 1809.48,-39.22"/>
<text text-anchor="middle" x="1789.74" y="-57.8" font-family="Times,serif" font-size="14.00">format</text>
</g>
<!-- creation date -->
<g id="node18" class="node">
<title>creation date</title>
<ellipse fill="none" stroke="blue" cx="1930.24" cy="-18" rx="31.4" ry="18"/>
<text text-anchor="middle" x="1930.24" y="-14.3" font-family="Times,serif" font-size="14.00">date</text>
</g>
<!-- study variable&#45;&gt;creation date -->
<g id="edge16" class="edge">
<title>study variable&#45;&gt;creation date</title>
<path fill="none" stroke="blue" d="M1155.16,-91.92C1165.74,-89.95 1176.8,-88.17 1187.24,-87 1326.64,-71.34 1681.47,-100.19 1818.24,-69 1847.49,-62.33 1878.46,-47.86 1900.4,-36.19"/>
<polygon fill="blue" stroke="blue" points="1902.11,-39.25 1909.22,-31.4 1898.77,-33.1 1902.11,-39.25"/>
<text text-anchor="middle" x="1909.74" y="-57.8" font-family="Times,serif" font-size="14.00">creation date</text>
</g>
<!-- named thing_category -->
<g id="node14" class="node">
<title>named thing_category</title>
<ellipse fill="none" stroke="blue" cx="1271.24" cy="-105" rx="74.99" ry="18"/>
<text text-anchor="middle" x="1271.24" y="-101.3" font-family="Times,serif" font-size="14.00">category type</text>
</g>
</g>
</svg>
