<?xml version="1.0" encoding="UTF-8" standalone="no"?>
<!DOCTYPE svg PUBLIC "-//W3C//DTD SVG 1.1//EN"
 "http://www.w3.org/Graphics/SVG/1.1/DTD/svg11.dtd">
<!-- Generated by graphviz version 2.40.1 (20161225.0304)
 -->
<!-- Title: %3 Pages: 1 -->
<svg width="1332pt" height="131pt"
 viewBox="0.00 0.00 1331.83 131.00" xmlns="http://www.w3.org/2000/svg" xmlns:xlink="http://www.w3.org/1999/xlink">
<g id="graph0" class="graph" transform="scale(1 1) rotate(0) translate(4 127)">
<title>%3</title>
<polygon fill="#ffffff" stroke="transparent" points="-4,4 -4,-127 1327.8322,-127 1327.8322,4 -4,4"/>
<!-- study population -->
<g id="node1" class="node">
<title>study population</title>
<ellipse fill="none" stroke="#000000" cx="704.188" cy="-105" rx="69.5877" ry="18"/>
<text text-anchor="middle" x="704.188" y="-101.3" font-family="Times,serif" font-size="14.00" fill="#000000">study population</text>
</g>
<!-- population of individual organisms -->
<g id="node2" class="node">
<title>population of individual organisms</title>
<ellipse fill="none" stroke="#000000" cx="135.188" cy="-18" rx="135.3763" ry="18"/>
<text text-anchor="middle" x="135.188" y="-14.3" font-family="Times,serif" font-size="14.00" fill="#000000">population of individual organisms</text>
</g>
<!-- study population&#45;&gt;population of individual organisms -->
<g id="edge1" class="edge">
<title>study population&#45;&gt;population of individual organisms</title>
<path fill="none" stroke="#000000" d="M638.9313,-98.7441C576.8482,-92.4567 480.9071,-81.8679 398.188,-69 336.9875,-59.4796 268.2923,-46.0637 216.4601,-35.3812"/>
<polygon fill="#000000" stroke="#000000" points="217.157,-31.9514 206.6551,-33.3516 215.738,-38.8061 217.157,-31.9514"/>
<text text-anchor="middle" x="409.188" y="-57.8" font-family="Times,serif" font-size="14.00" fill="#000000">is_a</text>
</g>
<!-- id -->
<g id="node3" class="node">
<title>id</title>
<ellipse fill="none" stroke="#0000ff" cx="319.188" cy="-18" rx="30.5947" ry="18"/>
<text text-anchor="middle" x="319.188" y="-14.3" font-family="Times,serif" font-size="14.00" fill="#000000">string</text>
</g>
<!-- study population&#45;&gt;id -->
<g id="edge2" class="edge">
<title>study population&#45;&gt;id</title>
<path fill="none" stroke="#0000ff" d="M640.4719,-97.6291C570.1599,-88.27 454.3467,-69.2041 359.188,-36 356.9434,-35.2168 354.6513,-34.3569 352.3568,-33.4507"/>
<polygon fill="#0000ff" stroke="#0000ff" points="353.6016,-30.1775 343.0258,-29.5424 350.8972,-36.634 353.6016,-30.1775"/>
<text text-anchor="middle" x="476.688" y="-57.8" font-family="Times,serif" font-size="14.00" fill="#000000">id</text>
</g>
<!-- iri -->
<g id="node4" class="node">
<title>iri</title>
<ellipse fill="none" stroke="#0000ff" cx="404.188" cy="-18" rx="36.2938" ry="18"/>
<text text-anchor="middle" x="404.188" y="-14.3" font-family="Times,serif" font-size="14.00" fill="#000000">iri type</text>
</g>
<!-- study population&#45;&gt;iri -->
<g id="edge3" class="edge">
<title>study population&#45;&gt;iri</title>
<path fill="none" stroke="#0000ff" d="M651.5678,-93.1628C622.949,-86.5049 586.9968,-77.7841 555.188,-69 507.6269,-55.8658 495.6857,-52.5086 449.188,-36 446.6729,-35.107 444.0902,-34.159 441.4953,-33.1833"/>
<polygon fill="#0000ff" stroke="#0000ff" points="442.7336,-29.9097 432.144,-29.5776 440.2152,-36.441 442.7336,-29.9097"/>
<text text-anchor="middle" x="561.688" y="-57.8" font-family="Times,serif" font-size="14.00" fill="#000000">iri</text>
</g>
<!-- type -->
<g id="node5" class="node">
<title>type</title>
<ellipse fill="none" stroke="#0000ff" cx="489.188" cy="-18" rx="30.5947" ry="18"/>
<text text-anchor="middle" x="489.188" y="-14.3" font-family="Times,serif" font-size="14.00" fill="#000000">string</text>
</g>
<!-- study population&#45;&gt;type -->
<g id="edge4" class="edge">
<title>study population&#45;&gt;type</title>
<path fill="none" stroke="#0000ff" d="M664.3381,-90.1926C647.3057,-83.7878 627.2287,-76.1374 609.188,-69 573.4235,-54.8506 564.5073,-51.2269 529.188,-36 527.1426,-35.1182 525.0423,-34.2029 522.9266,-33.2732"/>
<polygon fill="#0000ff" stroke="#0000ff" points="524.2324,-30.0236 513.6724,-29.1653 521.3923,-36.4216 524.2324,-30.0236"/>
<text text-anchor="middle" x="621.188" y="-57.8" font-family="Times,serif" font-size="14.00" fill="#000000">type</text>
</g>
<!-- name -->
<g id="node6" class="node">
<title>name</title>
<ellipse fill="none" stroke="#0000ff" cx="583.188" cy="-18" rx="45.4919" ry="18"/>
<text text-anchor="middle" x="583.188" y="-14.3" font-family="Times,serif" font-size="14.00" fill="#000000">label type</text>
</g>
<!-- study population&#45;&gt;name -->
<g id="edge5" class="edge">
<title>study population&#45;&gt;name</title>
<path fill="none" stroke="#0000ff" d="M680.5707,-88.019C661.4693,-74.2849 634.436,-54.8477 613.6967,-39.936"/>
<polygon fill="#0000ff" stroke="#0000ff" points="615.6825,-37.053 605.5201,-34.0569 611.596,-42.7364 615.6825,-37.053"/>
<text text-anchor="middle" x="666.688" y="-57.8" font-family="Times,serif" font-size="14.00" fill="#000000">name</text>
</g>
<!-- description -->
<g id="node7" class="node">
<title>description</title>
<ellipse fill="none" stroke="#0000ff" cx="704.188" cy="-18" rx="57.6901" ry="18"/>
<text text-anchor="middle" x="704.188" y="-14.3" font-family="Times,serif" font-size="14.00" fill="#000000">narrative text</text>
</g>
<!-- study population&#45;&gt;description -->
<g id="edge6" class="edge">
<title>study population&#45;&gt;description</title>
<path fill="none" stroke="#0000ff" d="M704.188,-86.9735C704.188,-75.1918 704.188,-59.5607 704.188,-46.1581"/>
<polygon fill="#0000ff" stroke="#0000ff" points="707.6881,-46.0033 704.188,-36.0034 700.6881,-46.0034 707.6881,-46.0033"/>
<text text-anchor="middle" x="734.688" y="-57.8" font-family="Times,serif" font-size="14.00" fill="#000000">description</text>
</g>
<!-- source -->
<g id="node8" class="node">
<title>source</title>
<ellipse fill="none" stroke="#0000ff" cx="825.188" cy="-18" rx="45.4919" ry="18"/>
<text text-anchor="middle" x="825.188" y="-14.3" font-family="Times,serif" font-size="14.00" fill="#000000">label type</text>
</g>
<!-- study population&#45;&gt;source -->
<g id="edge7" class="edge">
<title>study population&#45;&gt;source</title>
<path fill="none" stroke="#0000ff" d="M736.4971,-89.0291C747.2259,-83.2282 759.0204,-76.2933 769.188,-69 780.3173,-61.0169 791.6604,-51.0875 801.2011,-42.1171"/>
<polygon fill="#0000ff" stroke="#0000ff" points="803.6346,-44.6327 808.4276,-35.184 798.7884,-39.5814 803.6346,-44.6327"/>
<text text-anchor="middle" x="805.188" y="-57.8" font-family="Times,serif" font-size="14.00" fill="#000000">source</text>
</g>
<!-- provided by -->
<g id="node9" class="node">
<title>provided by</title>
<ellipse fill="none" stroke="#0000ff" cx="918.188" cy="-18" rx="29.795" ry="18"/>
<text text-anchor="middle" x="918.188" y="-14.3" font-family="Times,serif" font-size="14.00" fill="#000000">agent</text>
</g>
<!-- study population&#45;&gt;provided by -->
<g id="edge8" class="edge">
<title>study population&#45;&gt;provided by</title>
<path fill="none" stroke="#0000ff" d="M755.3515,-92.8056C777.7989,-86.7505 804.2136,-78.6533 827.188,-69 848.6574,-59.9791 871.5179,-47.1534 888.9554,-36.621"/>
<polygon fill="#0000ff" stroke="#0000ff" points="890.8485,-39.5659 897.5437,-31.3546 887.1892,-33.5985 890.8485,-39.5659"/>
<text text-anchor="middle" x="891.188" y="-57.8" font-family="Times,serif" font-size="14.00" fill="#000000">provided by</text>
</g>
<!-- category -->
<g id="node10" class="node">
<title>category</title>
<ellipse fill="none" stroke="#000000" cx="1007.188" cy="-18" rx="40.8928" ry="18"/>
<text text-anchor="middle" x="1007.188" y="-14.3" font-family="Times,serif" font-size="14.00" fill="#000000">category</text>
</g>
<!-- study population&#45;&gt;category -->
<g id="edge9" class="edge">
<title>study population&#45;&gt;category</title>
<path fill="none" stroke="#0000ff" d="M755.0316,-92.6249C764.3636,-90.579 774.0437,-88.6051 783.188,-87 847.1492,-75.7726 867.15,-91.1686 928.188,-69 946.6587,-62.2916 965.2261,-50.6157 979.7153,-40.1272"/>
<polygon fill="#0000ff" stroke="#0000ff" points="981.8228,-42.9217 987.7435,-34.1355 977.636,-37.3118 981.8228,-42.9217"/>
<text text-anchor="middle" x="982.688" y="-57.8" font-family="Times,serif" font-size="14.00" fill="#000000">category</text>
</g>
<!-- has attribute -->
<g id="node12" class="node">
<title>has attribute</title>
<ellipse fill="none" stroke="#000000" cx="1120.188" cy="-18" rx="53.8905" ry="18"/>
<text text-anchor="middle" x="1120.188" y="-14.3" font-family="Times,serif" font-size="14.00" fill="#000000">has attribute</text>
</g>
<!-- study population&#45;&gt;has attribute -->
<g id="edge10" class="edge">
<title>study population&#45;&gt;has attribute</title>
<path fill="none" stroke="#0000ff" d="M754.1286,-92.4722C763.7259,-90.3914 773.7323,-88.4443 783.188,-87 883.2332,-71.7183 912.2969,-94.6885 1010.188,-69 1036.0825,-62.2048 1063.3971,-49.5741 1084.3299,-38.5832"/>
<polygon fill="#0000ff" stroke="#0000ff" points="1086.0213,-41.6477 1093.1784,-33.8357 1082.7118,-35.4794 1086.0213,-41.6477"/>
<text text-anchor="middle" x="1084.688" y="-57.8" font-family="Times,serif" font-size="14.00" fill="#000000">has attribute</text>
</g>
<!-- in taxon -->
<g id="node14" class="node">
<title>in taxon</title>
<ellipse fill="none" stroke="#0000ff" cx="1258.188" cy="-18" rx="65.7887" ry="18"/>
<text text-anchor="middle" x="1258.188" y="-14.3" font-family="Times,serif" font-size="14.00" fill="#000000">organism taxon</text>
</g>
<!-- study population&#45;&gt;in taxon -->
<g id="edge11" class="edge">
<title>study population&#45;&gt;in taxon</title>
<path fill="none" stroke="#0000ff" d="M754.0995,-92.2725C763.6994,-90.2101 773.7142,-88.3209 783.188,-87 932.6214,-66.1647 974.4963,-99.8483 1122.188,-69 1154.6147,-62.2271 1189.574,-48.9756 1215.9279,-37.6781"/>
<polygon fill="#0000ff" stroke="#0000ff" points="1217.4619,-40.8275 1225.2273,-33.6198 1214.6621,-34.4118 1217.4619,-40.8275"/>
<text text-anchor="middle" x="1193.688" y="-57.8" font-family="Times,serif" font-size="14.00" fill="#000000">in taxon</text>
</g>
<!-- named thing_category -->
<g id="node11" class="node">
<title>named thing_category</title>
<ellipse fill="none" stroke="#0000ff" cx="847.188" cy="-105" rx="55.4913" ry="18"/>
<text text-anchor="middle" x="847.188" y="-101.3" font-family="Times,serif" font-size="14.00" fill="#000000">named thing</text>
</g>
<!-- organismal entity_has attribute -->
<g id="node13" class="node">
<title>organismal entity_has attribute</title>
<ellipse fill="none" stroke="#0000ff" cx="961.188" cy="-105" rx="40.0939" ry="18"/>
<text text-anchor="middle" x="961.188" y="-101.3" font-family="Times,serif" font-size="14.00" fill="#000000">attribute</text>
</g>
</g>
</svg>
