<?xml version="1.0" encoding="UTF-8" standalone="no"?>
<!DOCTYPE svg PUBLIC "-//W3C//DTD SVG 1.1//EN"
 "http://www.w3.org/Graphics/SVG/1.1/DTD/svg11.dtd">
<!-- Generated by graphviz version 2.43.0 (0)
 -->
<!-- Title: %3 Pages: 1 -->
<svg width="1428pt" height="131pt"
 viewBox="0.00 0.00 1427.84 131.00" xmlns="http://www.w3.org/2000/svg" xmlns:xlink="http://www.w3.org/1999/xlink">
<g id="graph0" class="graph" transform="scale(1 1) rotate(0) translate(4 127)">
<title>%3</title>
<polygon fill="white" stroke="transparent" points="-4,4 -4,-127 1423.84,-127 1423.84,4 -4,4"/>
<!-- study -->
<g id="node1" class="node">
<title>study</title>
<ellipse fill="none" stroke="black" cx="680.5" cy="-105" rx="36.29" ry="18"/>
<text text-anchor="middle" x="680.5" y="-101.3" font-family="Times,serif" font-size="14.00">study</text>
</g>
<!-- activity -->
<g id="node2" class="node">
<title>activity</title>
<ellipse fill="none" stroke="black" cx="45.5" cy="-18" rx="45.49" ry="18"/>
<text text-anchor="middle" x="45.5" y="-14.3" font-family="Times,serif" font-size="14.00">activity</text>
</g>
<!-- study&#45;&gt;activity -->
<g id="edge1" class="edge">
<title>study&#45;&gt;activity</title>
<path fill="none" stroke="black" d="M644.14,-102.95C568.69,-100.36 389.75,-92.12 241.5,-69 188.51,-60.74 129,-44.54 89.59,-32.81"/>
<polygon fill="black" stroke="black" points="90.36,-29.39 79.78,-29.86 88.35,-36.1 90.36,-29.39"/>
<text text-anchor="middle" x="255.5" y="-57.8" font-family="Times,serif" font-size="14.00">is_a</text>
</g>
<!-- id -->
<g id="node3" class="node">
<title>id</title>
<ellipse fill="none" stroke="blue" cx="147.5" cy="-18" rx="38.19" ry="18"/>
<text text-anchor="middle" x="147.5" y="-14.3" font-family="Times,serif" font-size="14.00">string</text>
</g>
<!-- study&#45;&gt;id -->
<g id="edge2" class="edge">
<title>study&#45;&gt;id</title>
<path fill="none" stroke="blue" d="M644.24,-102.19C562.68,-97.4 359.12,-81.51 195.5,-36 192.39,-35.14 189.19,-34.17 185.99,-33.15"/>
<polygon fill="blue" stroke="blue" points="187.07,-29.83 176.48,-29.99 184.86,-36.47 187.07,-29.83"/>
<text text-anchor="middle" x="347.5" y="-57.8" font-family="Times,serif" font-size="14.00">id</text>
</g>
<!-- iri -->
<g id="node4" class="node">
<title>iri</title>
<ellipse fill="none" stroke="blue" cx="248.5" cy="-18" rx="44.39" ry="18"/>
<text text-anchor="middle" x="248.5" y="-14.3" font-family="Times,serif" font-size="14.00">iri type</text>
</g>
<!-- study&#45;&gt;iri -->
<g id="edge3" class="edge">
<title>study&#45;&gt;iri</title>
<path fill="none" stroke="blue" d="M645.47,-99.61C599.59,-93.68 516.73,-82.28 446.5,-69 381.98,-56.8 365.86,-53.21 302.5,-36 298.92,-35.03 295.22,-33.97 291.52,-32.88"/>
<polygon fill="blue" stroke="blue" points="292.37,-29.48 281.79,-29.94 290.35,-36.18 292.37,-29.48"/>
<text text-anchor="middle" x="454.5" y="-57.8" font-family="Times,serif" font-size="14.00">iri</text>
</g>
<!-- type -->
<g id="node5" class="node">
<title>type</title>
<ellipse fill="none" stroke="blue" cx="349.5" cy="-18" rx="38.19" ry="18"/>
<text text-anchor="middle" x="349.5" y="-14.3" font-family="Times,serif" font-size="14.00">string</text>
</g>
<!-- study&#45;&gt;type -->
<g id="edge4" class="edge">
<title>study&#45;&gt;type</title>
<path fill="none" stroke="blue" d="M647.31,-97.55C593.9,-86.84 485.81,-63.79 396.5,-36 393.74,-35.14 390.9,-34.22 388.06,-33.26"/>
<polygon fill="blue" stroke="blue" points="389.03,-29.9 378.44,-29.94 386.74,-36.51 389.03,-29.9"/>
<text text-anchor="middle" x="528.5" y="-57.8" font-family="Times,serif" font-size="14.00">type</text>
</g>
<!-- name -->
<g id="node6" class="node">
<title>name</title>
<ellipse fill="none" stroke="blue" cx="462.5" cy="-18" rx="56.59" ry="18"/>
<text text-anchor="middle" x="462.5" y="-14.3" font-family="Times,serif" font-size="14.00">label type</text>
</g>
<!-- study&#45;&gt;name -->
<g id="edge5" class="edge">
<title>study&#45;&gt;name</title>
<path fill="none" stroke="blue" d="M652.89,-93.23C616.03,-78.86 550.34,-53.25 506.59,-36.19"/>
<polygon fill="blue" stroke="blue" points="507.65,-32.85 497.06,-32.48 505.1,-39.37 507.65,-32.85"/>
<text text-anchor="middle" x="605.5" y="-57.8" font-family="Times,serif" font-size="14.00">name</text>
</g>
<!-- description -->
<g id="node7" class="node">
<title>description</title>
<ellipse fill="none" stroke="blue" cx="612.5" cy="-18" rx="75.29" ry="18"/>
<text text-anchor="middle" x="612.5" y="-14.3" font-family="Times,serif" font-size="14.00">narrative text</text>
</g>
<!-- study&#45;&gt;description -->
<g id="edge6" class="edge">
<title>study&#45;&gt;description</title>
<path fill="none" stroke="blue" d="M663.75,-88.61C657.72,-82.73 651.04,-75.79 645.5,-69 639.38,-61.51 633.35,-52.86 628.16,-44.88"/>
<polygon fill="blue" stroke="blue" points="631,-42.83 622.68,-36.26 625.09,-46.58 631,-42.83"/>
<text text-anchor="middle" x="686" y="-57.8" font-family="Times,serif" font-size="14.00">description</text>
</g>
<!-- has attribute -->
<g id="node8" class="node">
<title>has attribute</title>
<ellipse fill="none" stroke="blue" cx="757.5" cy="-18" rx="51.99" ry="18"/>
<text text-anchor="middle" x="757.5" y="-14.3" font-family="Times,serif" font-size="14.00">attribute</text>
</g>
<!-- study&#45;&gt;has attribute -->
<g id="edge7" class="edge">
<title>study&#45;&gt;has attribute</title>
<path fill="none" stroke="blue" d="M702,-90.14C710.23,-84.23 719.34,-76.87 726.5,-69 733.08,-61.75 739.09,-52.92 744.02,-44.7"/>
<polygon fill="blue" stroke="blue" points="747.18,-46.22 749.1,-35.81 741.1,-42.75 747.18,-46.22"/>
<text text-anchor="middle" x="784.5" y="-57.8" font-family="Times,serif" font-size="14.00">has attribute</text>
</g>
<!-- provided by -->
<g id="node9" class="node">
<title>provided by</title>
<ellipse fill="none" stroke="blue" cx="865.5" cy="-18" rx="38.19" ry="18"/>
<text text-anchor="middle" x="865.5" y="-14.3" font-family="Times,serif" font-size="14.00">string</text>
</g>
<!-- study&#45;&gt;provided by -->
<g id="edge8" class="edge">
<title>study&#45;&gt;provided by</title>
<path fill="none" stroke="blue" d="M707.82,-92.69C713.59,-90.58 719.69,-88.56 725.5,-87 773.35,-74.18 794.51,-96.82 835.5,-69 844.08,-63.18 850.59,-54.01 855.32,-45.11"/>
<polygon fill="blue" stroke="blue" points="858.48,-46.61 859.62,-36.08 852.16,-43.6 858.48,-46.61"/>
<text text-anchor="middle" x="893" y="-57.8" font-family="Times,serif" font-size="14.00">provided by</text>
</g>
<!-- xref -->
<g id="node10" class="node">
<title>xref</title>
<ellipse fill="none" stroke="blue" cx="979.5" cy="-18" rx="57.39" ry="18"/>
<text text-anchor="middle" x="979.5" y="-14.3" font-family="Times,serif" font-size="14.00">uriorcurie</text>
</g>
<!-- study&#45;&gt;xref -->
<g id="edge9" class="edge">
<title>study&#45;&gt;xref</title>
<path fill="none" stroke="blue" d="M707.25,-92.51C713.17,-90.36 719.47,-88.36 725.5,-87 772.04,-76.47 897.39,-91.46 939.5,-69 949.9,-63.45 958.55,-53.91 965.12,-44.65"/>
<polygon fill="blue" stroke="blue" points="968.23,-46.27 970.76,-35.98 962.37,-42.45 968.23,-46.27"/>
<text text-anchor="middle" x="972" y="-57.8" font-family="Times,serif" font-size="14.00">xref</text>
</g>
<!-- full name -->
<g id="node11" class="node">
<title>full name</title>
<ellipse fill="none" stroke="blue" cx="1111.5" cy="-18" rx="56.59" ry="18"/>
<text text-anchor="middle" x="1111.5" y="-14.3" font-family="Times,serif" font-size="14.00">label type</text>
</g>
<!-- study&#45;&gt;full name -->
<g id="edge10" class="edge">
<title>study&#45;&gt;full name</title>
<path fill="none" stroke="blue" d="M707.23,-92.43C713.15,-90.29 719.46,-88.32 725.5,-87 840.84,-61.87 875.55,-95.89 990.5,-69 1019.48,-62.22 1050.47,-49.29 1073.84,-38.28"/>
<polygon fill="blue" stroke="blue" points="1075.54,-41.35 1083.03,-33.86 1072.5,-35.04 1075.54,-41.35"/>
<text text-anchor="middle" x="1069" y="-57.8" font-family="Times,serif" font-size="14.00">full name</text>
</g>
<!-- synonym -->
<g id="node12" class="node">
<title>synonym</title>
<ellipse fill="none" stroke="blue" cx="1242.5" cy="-18" rx="56.59" ry="18"/>
<text text-anchor="middle" x="1242.5" y="-14.3" font-family="Times,serif" font-size="14.00">label type</text>
</g>
<!-- study&#45;&gt;synonym -->
<g id="edge11" class="edge">
<title>study&#45;&gt;synonym</title>
<path fill="none" stroke="blue" d="M706.73,-92.51C712.79,-90.31 719.28,-88.29 725.5,-87 891.5,-52.62 940.34,-102.64 1106.5,-69 1139.87,-62.24 1175.98,-48.65 1202.6,-37.34"/>
<polygon fill="blue" stroke="blue" points="1204.16,-40.48 1211.95,-33.29 1201.38,-34.05 1204.16,-40.48"/>
<text text-anchor="middle" x="1188.5" y="-57.8" font-family="Times,serif" font-size="14.00">synonym</text>
</g>
<!-- category -->
<g id="node13" class="node">
<title>category</title>
<ellipse fill="none" stroke="black" cx="1368.5" cy="-18" rx="51.19" ry="18"/>
<text text-anchor="middle" x="1368.5" y="-14.3" font-family="Times,serif" font-size="14.00">category</text>
</g>
<!-- study&#45;&gt;category -->
<g id="edge12" class="edge">
<title>study&#45;&gt;category</title>
<path fill="none" stroke="blue" d="M706.72,-92.46C712.78,-90.26 719.27,-88.25 725.5,-87 943.05,-43.21 1006.37,-109.85 1224.5,-69 1260.68,-62.22 1300.06,-48.05 1328.47,-36.52"/>
<polygon fill="blue" stroke="blue" points="1330.14,-39.62 1338.04,-32.57 1327.46,-33.15 1330.14,-39.62"/>
<text text-anchor="middle" x="1312" y="-57.8" font-family="Times,serif" font-size="14.00">category</text>
</g>
<!-- named thing_category -->
<g id="node14" class="node">
<title>named thing_category</title>
<ellipse fill="none" stroke="blue" cx="809.5" cy="-105" rx="74.99" ry="18"/>
<text text-anchor="middle" x="809.5" y="-101.3" font-family="Times,serif" font-size="14.00">category type</text>
</g>
</g>
</svg>
