<?xml version="1.0" encoding="UTF-8" standalone="no"?>
<!DOCTYPE svg PUBLIC "-//W3C//DTD SVG 1.1//EN"
 "http://www.w3.org/Graphics/SVG/1.1/DTD/svg11.dtd">
<!-- Generated by graphviz version 2.43.0 (0)
 -->
<!-- Title: %3 Pages: 1 -->
<svg width="3072pt" height="291pt"
 viewBox="0.00 0.00 3072.39 291.00" xmlns="http://www.w3.org/2000/svg" xmlns:xlink="http://www.w3.org/1999/xlink">
<g id="graph0" class="graph" transform="scale(1 1) rotate(0) translate(4 287)">
<title>%3</title>
<polygon fill="white" stroke="transparent" points="-4,4 -4,-287 3068.39,-287 3068.39,4 -4,4"/>
<!-- taxon to taxon association -->
<g id="node1" class="node">
<title>taxon to taxon association</title>
<ellipse fill="none" stroke="black" cx="1542.39" cy="-265" rx="131.88" ry="18"/>
<text text-anchor="middle" x="1542.39" y="-261.3" font-family="Times,serif" font-size="14.00">taxon to taxon association</text>
</g>
<!-- association -->
<g id="node2" class="node">
<title>association</title>
<ellipse fill="none" stroke="black" cx="62.39" cy="-178" rx="62.29" ry="18"/>
<text text-anchor="middle" x="62.39" y="-174.3" font-family="Times,serif" font-size="14.00">association</text>
</g>
<!-- taxon to taxon association&#45;&gt;association -->
<g id="edge1" class="edge">
<title>taxon to taxon association&#45;&gt;association</title>
<path fill="none" stroke="black" d="M1410.71,-263.87C1131.25,-263.03 486.71,-257.91 269.39,-229 215.28,-221.8 154.72,-206.27 113.16,-194.42"/>
<polygon fill="black" stroke="black" points="114.12,-191.05 103.54,-191.64 112.18,-197.78 114.12,-191.05"/>
<text text-anchor="middle" x="283.39" y="-217.8" font-family="Times,serif" font-size="14.00">is_a</text>
</g>
<!-- id -->
<g id="node3" class="node">
<title>id</title>
<ellipse fill="none" stroke="blue" cx="181.39" cy="-178" rx="38.19" ry="18"/>
<text text-anchor="middle" x="181.39" y="-174.3" font-family="Times,serif" font-size="14.00">string</text>
</g>
<!-- taxon to taxon association&#45;&gt;id -->
<g id="edge2" class="edge">
<title>taxon to taxon association&#45;&gt;id</title>
<path fill="none" stroke="blue" d="M1411.05,-262.71C1153.22,-259.72 589.24,-250.85 396.39,-229 321.22,-220.48 302.36,-216.02 229.39,-196 226.24,-195.13 222.99,-194.16 219.75,-193.14"/>
<polygon fill="blue" stroke="blue" points="220.71,-189.77 210.11,-189.94 218.5,-196.41 220.71,-189.77"/>
<text text-anchor="middle" x="403.39" y="-217.8" font-family="Times,serif" font-size="14.00">id</text>
</g>
<!-- iri -->
<g id="node4" class="node">
<title>iri</title>
<ellipse fill="none" stroke="blue" cx="282.39" cy="-178" rx="44.39" ry="18"/>
<text text-anchor="middle" x="282.39" y="-174.3" font-family="Times,serif" font-size="14.00">iri type</text>
</g>
<!-- taxon to taxon association&#45;&gt;iri -->
<g id="edge3" class="edge">
<title>taxon to taxon association&#45;&gt;iri</title>
<path fill="none" stroke="blue" d="M1412.06,-261.87C1176.46,-257.63 688.49,-246.96 519.39,-229 436.78,-220.22 416.02,-216.07 335.39,-196 331.96,-195.15 328.43,-194.19 324.89,-193.17"/>
<polygon fill="blue" stroke="blue" points="325.58,-189.73 314.99,-190.21 323.57,-196.43 325.58,-189.73"/>
<text text-anchor="middle" x="527.39" y="-217.8" font-family="Times,serif" font-size="14.00">iri</text>
</g>
<!-- name -->
<g id="node5" class="node">
<title>name</title>
<ellipse fill="none" stroke="blue" cx="401.39" cy="-178" rx="56.59" ry="18"/>
<text text-anchor="middle" x="401.39" y="-174.3" font-family="Times,serif" font-size="14.00">label type</text>
</g>
<!-- taxon to taxon association&#45;&gt;name -->
<g id="edge4" class="edge">
<title>taxon to taxon association&#45;&gt;name</title>
<path fill="none" stroke="blue" d="M1411.98,-261.97C1194.33,-258.09 766.19,-248.26 616.39,-229 558.92,-221.61 494.32,-205.5 451.08,-193.56"/>
<polygon fill="blue" stroke="blue" points="451.94,-190.17 441.37,-190.85 450.06,-196.91 451.94,-190.17"/>
<text text-anchor="middle" x="636.39" y="-217.8" font-family="Times,serif" font-size="14.00">name</text>
</g>
<!-- description -->
<g id="node6" class="node">
<title>description</title>
<ellipse fill="none" stroke="blue" cx="551.39" cy="-178" rx="75.29" ry="18"/>
<text text-anchor="middle" x="551.39" y="-174.3" font-family="Times,serif" font-size="14.00">narrative text</text>
</g>
<!-- taxon to taxon association&#45;&gt;description -->
<g id="edge5" class="edge">
<title>taxon to taxon association&#45;&gt;description</title>
<path fill="none" stroke="blue" d="M1411.61,-262.29C1214.37,-259.06 850.17,-250.35 721.39,-229 679.68,-222.08 633.76,-208.18 600.17,-196.79"/>
<polygon fill="blue" stroke="blue" points="601.2,-193.44 590.6,-193.5 598.92,-200.06 601.2,-193.44"/>
<text text-anchor="middle" x="761.89" y="-217.8" font-family="Times,serif" font-size="14.00">description</text>
</g>
<!-- has attribute -->
<g id="node7" class="node">
<title>has attribute</title>
<ellipse fill="none" stroke="blue" cx="696.39" cy="-178" rx="51.99" ry="18"/>
<text text-anchor="middle" x="696.39" y="-174.3" font-family="Times,serif" font-size="14.00">attribute</text>
</g>
<!-- taxon to taxon association&#45;&gt;has attribute -->
<g id="edge6" class="edge">
<title>taxon to taxon association&#45;&gt;has attribute</title>
<path fill="none" stroke="blue" d="M1413.74,-260.86C1248.12,-256.19 969.63,-246.11 868.39,-229 824.02,-221.5 774.85,-206.5 740.49,-194.88"/>
<polygon fill="blue" stroke="blue" points="741.36,-191.48 730.76,-191.55 739.09,-198.1 741.36,-191.48"/>
<text text-anchor="middle" x="915.39" y="-217.8" font-family="Times,serif" font-size="14.00">has attribute</text>
</g>
<!-- predicate -->
<g id="node8" class="node">
<title>predicate</title>
<ellipse fill="none" stroke="blue" cx="844.39" cy="-178" rx="77.99" ry="18"/>
<text text-anchor="middle" x="844.39" y="-174.3" font-family="Times,serif" font-size="14.00">predicate type</text>
</g>
<!-- taxon to taxon association&#45;&gt;predicate -->
<g id="edge7" class="edge">
<title>taxon to taxon association&#45;&gt;predicate</title>
<path fill="none" stroke="blue" d="M1412.43,-261.78C1309.32,-258.4 1161.86,-249.97 1034.39,-229 987.59,-221.3 935.56,-207.21 897.8,-195.94"/>
<polygon fill="blue" stroke="blue" points="898.62,-192.54 888.04,-193 896.6,-199.24 898.62,-192.54"/>
<text text-anchor="middle" x="1068.39" y="-217.8" font-family="Times,serif" font-size="14.00">predicate</text>
</g>
<!-- negated -->
<g id="node9" class="node">
<title>negated</title>
<ellipse fill="none" stroke="blue" cx="987.39" cy="-178" rx="46.59" ry="18"/>
<text text-anchor="middle" x="987.39" y="-174.3" font-family="Times,serif" font-size="14.00">boolean</text>
</g>
<!-- taxon to taxon association&#45;&gt;negated -->
<g id="edge8" class="edge">
<title>taxon to taxon association&#45;&gt;negated</title>
<path fill="none" stroke="blue" d="M1422.63,-257.37C1349.89,-252.18 1255.36,-243.37 1172.39,-229 1123.55,-220.54 1068.9,-204.99 1031.74,-193.47"/>
<polygon fill="blue" stroke="blue" points="1032.33,-189.99 1021.74,-190.34 1030.24,-196.67 1032.33,-189.99"/>
<text text-anchor="middle" x="1201.39" y="-217.8" font-family="Times,serif" font-size="14.00">negated</text>
</g>
<!-- qualifiers -->
<g id="node10" class="node">
<title>qualifiers</title>
<ellipse fill="none" stroke="blue" cx="1128.39" cy="-178" rx="76.89" ry="18"/>
<text text-anchor="middle" x="1128.39" y="-174.3" font-family="Times,serif" font-size="14.00">ontology class</text>
</g>
<!-- taxon to taxon association&#45;&gt;qualifiers -->
<g id="edge9" class="edge">
<title>taxon to taxon association&#45;&gt;qualifiers</title>
<path fill="none" stroke="blue" d="M1439.02,-253.82C1392.37,-248.2 1336.78,-240.07 1287.39,-229 1250.07,-220.63 1208.89,-207.57 1177.8,-196.9"/>
<polygon fill="blue" stroke="blue" points="1178.67,-193.5 1168.07,-193.53 1176.38,-200.11 1178.67,-193.5"/>
<text text-anchor="middle" x="1320.89" y="-217.8" font-family="Times,serif" font-size="14.00">qualifiers</text>
</g>
<!-- publications -->
<g id="node11" class="node">
<title>publications</title>
<ellipse fill="none" stroke="blue" cx="1285.39" cy="-178" rx="62.29" ry="18"/>
<text text-anchor="middle" x="1285.39" y="-174.3" font-family="Times,serif" font-size="14.00">publication</text>
</g>
<!-- taxon to taxon association&#45;&gt;publications -->
<g id="edge10" class="edge">
<title>taxon to taxon association&#45;&gt;publications</title>
<path fill="none" stroke="blue" d="M1470.07,-249.9C1445.73,-244.37 1418.61,-237.33 1394.39,-229 1370.15,-220.66 1344.01,-208.78 1323.41,-198.69"/>
<polygon fill="blue" stroke="blue" points="1324.87,-195.51 1314.36,-194.2 1321.76,-201.78 1324.87,-195.51"/>
<text text-anchor="middle" x="1438.39" y="-217.8" font-family="Times,serif" font-size="14.00">publications</text>
</g>
<!-- has evidence -->
<g id="node12" class="node">
<title>has evidence</title>
<ellipse fill="none" stroke="blue" cx="1441.39" cy="-178" rx="75.29" ry="18"/>
<text text-anchor="middle" x="1441.39" y="-174.3" font-family="Times,serif" font-size="14.00">evidence type</text>
</g>
<!-- taxon to taxon association&#45;&gt;has evidence -->
<g id="edge11" class="edge">
<title>taxon to taxon association&#45;&gt;has evidence</title>
<path fill="none" stroke="blue" d="M1522.44,-247.21C1507.12,-234.32 1485.81,-216.38 1468.88,-202.13"/>
<polygon fill="blue" stroke="blue" points="1470.87,-199.23 1460.96,-195.47 1466.36,-204.59 1470.87,-199.23"/>
<text text-anchor="middle" x="1544.89" y="-217.8" font-family="Times,serif" font-size="14.00">has evidence</text>
</g>
<!-- knowledge source -->
<g id="node13" class="node">
<title>knowledge source</title>
<ellipse fill="none" stroke="blue" cx="1643.39" cy="-178" rx="108.58" ry="18"/>
<text text-anchor="middle" x="1643.39" y="-174.3" font-family="Times,serif" font-size="14.00">information resource</text>
</g>
<!-- taxon to taxon association&#45;&gt;knowledge source -->
<g id="edge12" class="edge">
<title>taxon to taxon association&#45;&gt;knowledge source</title>
<path fill="none" stroke="blue" d="M1570.18,-247.31C1578.56,-241.84 1587.6,-235.49 1595.39,-229 1604.6,-221.33 1613.9,-212.07 1621.83,-203.61"/>
<polygon fill="blue" stroke="blue" points="1624.51,-205.87 1628.69,-196.14 1619.35,-201.14 1624.51,-205.87"/>
<text text-anchor="middle" x="1675.89" y="-217.8" font-family="Times,serif" font-size="14.00">knowledge source</text>
</g>
<!-- primary knowledge source -->
<g id="node14" class="node">
<title>primary knowledge source</title>
<ellipse fill="none" stroke="blue" cx="1878.39" cy="-178" rx="108.58" ry="18"/>
<text text-anchor="middle" x="1878.39" y="-174.3" font-family="Times,serif" font-size="14.00">information resource</text>
</g>
<!-- taxon to taxon association&#45;&gt;primary knowledge source -->
<g id="edge13" class="edge">
<title>taxon to taxon association&#45;&gt;primary knowledge source</title>
<path fill="none" stroke="blue" d="M1633.43,-251.9C1668.43,-246.3 1708.58,-238.69 1744.39,-229 1774.04,-220.97 1806.32,-209.03 1831.77,-198.83"/>
<polygon fill="blue" stroke="blue" points="1833.22,-202.02 1841.17,-195.02 1830.59,-195.53 1833.22,-202.02"/>
<text text-anchor="middle" x="1884.39" y="-217.8" font-family="Times,serif" font-size="14.00">primary knowledge source</text>
</g>
<!-- aggregator knowledge source -->
<g id="node15" class="node">
<title>aggregator knowledge source</title>
<ellipse fill="none" stroke="blue" cx="2113.39" cy="-178" rx="108.58" ry="18"/>
<text text-anchor="middle" x="2113.39" y="-174.3" font-family="Times,serif" font-size="14.00">information resource</text>
</g>
<!-- taxon to taxon association&#45;&gt;aggregator knowledge source -->
<g id="edge14" class="edge">
<title>taxon to taxon association&#45;&gt;aggregator knowledge source</title>
<path fill="none" stroke="blue" d="M1634.46,-252.09C1650.75,-250.22 1667.56,-248.43 1683.39,-247 1816.43,-235 1852.86,-257.31 1983.39,-229 2013.46,-222.48 2045.76,-210.09 2070.64,-199.27"/>
<polygon fill="blue" stroke="blue" points="2072.06,-202.47 2079.79,-195.22 2069.23,-196.07 2072.06,-202.47"/>
<text text-anchor="middle" x="2137.89" y="-217.8" font-family="Times,serif" font-size="14.00">aggregator knowledge source</text>
</g>
<!-- timepoint -->
<g id="node16" class="node">
<title>timepoint</title>
<ellipse fill="none" stroke="blue" cx="2295.39" cy="-178" rx="55.49" ry="18"/>
<text text-anchor="middle" x="2295.39" y="-174.3" font-family="Times,serif" font-size="14.00">time type</text>
</g>
<!-- taxon to taxon association&#45;&gt;timepoint -->
<g id="edge15" class="edge">
<title>taxon to taxon association&#45;&gt;timepoint</title>
<path fill="none" stroke="blue" d="M1632.92,-251.89C1649.68,-249.99 1667.05,-248.24 1683.39,-247 1746.02,-242.24 2191.15,-254.85 2248.39,-229 2260.44,-223.56 2270.87,-213.45 2278.83,-203.73"/>
<polygon fill="blue" stroke="blue" points="2281.62,-205.84 2284.91,-195.77 2276.05,-201.59 2281.62,-205.84"/>
<text text-anchor="middle" x="2303.39" y="-217.8" font-family="Times,serif" font-size="14.00">timepoint</text>
</g>
<!-- original subject -->
<g id="node17" class="node">
<title>original subject</title>
<ellipse fill="none" stroke="blue" cx="2407.39" cy="-178" rx="38.19" ry="18"/>
<text text-anchor="middle" x="2407.39" y="-174.3" font-family="Times,serif" font-size="14.00">string</text>
</g>
<!-- taxon to taxon association&#45;&gt;original subject -->
<g id="edge16" class="edge">
<title>taxon to taxon association&#45;&gt;original subject</title>
<path fill="none" stroke="blue" d="M1632.91,-251.83C1649.67,-249.93 1667.04,-248.21 1683.39,-247 1756.45,-241.61 2273.37,-253.53 2342.39,-229 2351.22,-225.86 2368.16,-212.73 2382.53,-200.72"/>
<polygon fill="blue" stroke="blue" points="2384.82,-203.36 2390.18,-194.23 2380.29,-198.03 2384.82,-203.36"/>
<text text-anchor="middle" x="2422.39" y="-217.8" font-family="Times,serif" font-size="14.00">original subject</text>
</g>
<!-- original predicate -->
<g id="node18" class="node">
<title>original predicate</title>
<ellipse fill="none" stroke="blue" cx="2521.39" cy="-178" rx="57.39" ry="18"/>
<text text-anchor="middle" x="2521.39" y="-174.3" font-family="Times,serif" font-size="14.00">uriorcurie</text>
</g>
<!-- taxon to taxon association&#45;&gt;original predicate -->
<g id="edge17" class="edge">
<title>taxon to taxon association&#45;&gt;original predicate</title>
<path fill="none" stroke="blue" d="M1632.53,-251.81C1649.41,-249.9 1666.92,-248.18 1683.39,-247 1727.63,-243.84 2441.65,-248.66 2481.39,-229 2492.08,-223.72 2500.82,-214.09 2507.39,-204.69"/>
<polygon fill="blue" stroke="blue" points="2510.35,-206.55 2512.79,-196.24 2504.45,-202.78 2510.35,-206.55"/>
<text text-anchor="middle" x="2562.89" y="-217.8" font-family="Times,serif" font-size="14.00">original predicate</text>
</g>
<!-- original object -->
<g id="node19" class="node">
<title>original object</title>
<ellipse fill="none" stroke="blue" cx="2653.39" cy="-178" rx="38.19" ry="18"/>
<text text-anchor="middle" x="2653.39" y="-174.3" font-family="Times,serif" font-size="14.00">string</text>
</g>
<!-- taxon to taxon association&#45;&gt;original object -->
<g id="edge18" class="edge">
<title>taxon to taxon association&#45;&gt;original object</title>
<path fill="none" stroke="blue" d="M1632.15,-251.8C1649.14,-249.88 1666.79,-248.16 1683.39,-247 1709.64,-245.17 2608.38,-243.4 2630.39,-229 2638.53,-223.68 2643.83,-214.69 2647.26,-205.79"/>
<polygon fill="blue" stroke="blue" points="2650.69,-206.57 2650.4,-195.98 2644.02,-204.44 2650.69,-206.57"/>
<text text-anchor="middle" x="2694.89" y="-217.8" font-family="Times,serif" font-size="14.00">original object</text>
</g>
<!-- type -->
<g id="node20" class="node">
<title>type</title>
<ellipse fill="none" stroke="black" cx="2741.39" cy="-178" rx="31.4" ry="18"/>
<text text-anchor="middle" x="2741.39" y="-174.3" font-family="Times,serif" font-size="14.00">type</text>
</g>
<!-- taxon to taxon association&#45;&gt;type -->
<g id="edge19" class="edge">
<title>taxon to taxon association&#45;&gt;type</title>
<path fill="none" stroke="blue" d="M1632.15,-251.77C1649.14,-249.86 1666.79,-248.14 1683.39,-247 1712.97,-244.97 2729.61,-250.14 2750.39,-229 2756.59,-222.69 2756.56,-213.66 2754.22,-205"/>
<polygon fill="blue" stroke="blue" points="2757.49,-203.76 2750.81,-195.54 2750.91,-206.14 2757.49,-203.76"/>
<text text-anchor="middle" x="2772.39" y="-217.8" font-family="Times,serif" font-size="14.00">type</text>
</g>
<!-- category -->
<g id="node22" class="node">
<title>category</title>
<ellipse fill="none" stroke="black" cx="2842.39" cy="-178" rx="51.19" ry="18"/>
<text text-anchor="middle" x="2842.39" y="-174.3" font-family="Times,serif" font-size="14.00">category</text>
</g>
<!-- taxon to taxon association&#45;&gt;category -->
<g id="edge20" class="edge">
<title>taxon to taxon association&#45;&gt;category</title>
<path fill="none" stroke="blue" d="M1632.15,-251.76C1649.14,-249.85 1666.79,-248.13 1683.39,-247 1744.87,-242.81 2735.66,-253.04 2792.39,-229 2804.93,-223.69 2816,-213.59 2824.5,-203.85"/>
<polygon fill="blue" stroke="blue" points="2827.41,-205.83 2831.03,-195.87 2821.99,-201.4 2827.41,-205.83"/>
<text text-anchor="middle" x="2846.89" y="-217.8" font-family="Times,serif" font-size="14.00">category</text>
</g>
<!-- subject -->
<g id="node24" class="node">
<title>subject</title>
<ellipse fill="none" stroke="black" cx="2956.39" cy="-178" rx="44.39" ry="18"/>
<text text-anchor="middle" x="2956.39" y="-174.3" font-family="Times,serif" font-size="14.00">subject</text>
</g>
<!-- taxon to taxon association&#45;&gt;subject -->
<g id="edge21" class="edge">
<title>taxon to taxon association&#45;&gt;subject</title>
<path fill="none" stroke="blue" d="M1632.15,-251.75C1649.14,-249.84 1666.79,-248.12 1683.39,-247 1749.86,-242.51 2818.84,-248.98 2882.39,-229 2900.4,-223.34 2918.01,-211.76 2931.54,-201.16"/>
<polygon fill="blue" stroke="blue" points="2933.86,-203.79 2939.4,-194.76 2929.44,-198.36 2933.86,-203.79"/>
<text text-anchor="middle" x="2939.39" y="-217.8" font-family="Times,serif" font-size="14.00">subject</text>
</g>
<!-- object -->
<g id="node26" class="node">
<title>object</title>
<ellipse fill="none" stroke="black" cx="2999.39" cy="-91" rx="38.99" ry="18"/>
<text text-anchor="middle" x="2999.39" y="-87.3" font-family="Times,serif" font-size="14.00">object</text>
</g>
<!-- taxon to taxon association&#45;&gt;object -->
<g id="edge22" class="edge">
<title>taxon to taxon association&#45;&gt;object</title>
<path fill="none" stroke="blue" d="M1632.15,-251.73C1649.14,-249.82 1666.79,-248.11 1683.39,-247 1754.69,-242.22 2902.32,-253.63 2969.39,-229 3011.9,-213.39 3017.06,-186.96 3022.39,-142 3023.18,-135.38 3024.31,-133.39 3022.39,-127 3021.36,-123.55 3019.87,-120.13 3018.13,-116.85"/>
<polygon fill="blue" stroke="blue" points="3020.98,-114.79 3012.77,-108.09 3015.01,-118.45 3020.98,-114.79"/>
<text text-anchor="middle" x="3042.39" y="-174.3" font-family="Times,serif" font-size="14.00">object</text>
</g>
<!-- association_type -->
<g id="node21" class="node">
<title>association_type</title>
<ellipse fill="none" stroke="blue" cx="1730.39" cy="-265" rx="38.19" ry="18"/>
<text text-anchor="middle" x="1730.39" y="-261.3" font-family="Times,serif" font-size="14.00">string</text>
</g>
<!-- association_category -->
<g id="node23" class="node">
<title>association_category</title>
<ellipse fill="none" stroke="blue" cx="1861.39" cy="-265" rx="74.99" ry="18"/>
<text text-anchor="middle" x="1861.39" y="-261.3" font-family="Times,serif" font-size="14.00">category type</text>
</g>
<!-- subject&#45;&gt;object -->
<g id="edge23" class="edge">
<title>subject&#45;&gt;object</title>
<path fill="none" stroke="black" d="M2957.5,-159.55C2958.7,-149.57 2961.2,-137.07 2966.39,-127 2968.62,-122.68 2971.55,-118.52 2974.73,-114.66"/>
<polygon fill="black" stroke="black" points="2977.35,-116.98 2981.49,-107.23 2972.17,-112.27 2977.35,-116.98"/>
<text text-anchor="middle" x="2994.39" y="-130.8" font-family="Times,serif" font-size="14.00">relation</text>
</g>
<!-- relation -->
<g id="node28" class="node">
<title>relation</title>
<ellipse fill="none" stroke="black" cx="2944.39" cy="-18" rx="46.59" ry="18"/>
<text text-anchor="middle" x="2944.39" y="-14.3" font-family="Times,serif" font-size="14.00">relation</text>
</g>
<!-- subject&#45;&gt;relation -->
<g id="edge24" class="edge">
<title>subject&#45;&gt;relation</title>
<path fill="none" stroke="black" stroke-dasharray="1,5" d="M2955.09,-159.79C2953.01,-132.48 2948.95,-78.99 2946.47,-46.38"/>
<polygon fill="black" stroke="black" points="2949.95,-45.89 2945.7,-36.19 2942.97,-46.42 2949.95,-45.89"/>
</g>
<!-- taxon to taxon association_subject -->
<g id="node25" class="node">
<title>taxon to taxon association_subject</title>
<ellipse fill="none" stroke="blue" cx="2037.39" cy="-265" rx="83.39" ry="18"/>
<text text-anchor="middle" x="2037.39" y="-261.3" font-family="Times,serif" font-size="14.00">organism taxon</text>
</g>
<!-- object&#45;&gt;relation -->
<g id="edge25" class="edge">
<title>object&#45;&gt;relation</title>
<path fill="none" stroke="black" stroke-dasharray="1,5" d="M2986.91,-73.89C2979.98,-64.94 2971.21,-53.62 2963.44,-43.58"/>
<polygon fill="black" stroke="black" points="2966.1,-41.3 2957.21,-35.54 2960.56,-45.59 2966.1,-41.3"/>
</g>
<!-- taxon to taxon association_object -->
<g id="node27" class="node">
<title>taxon to taxon association_object</title>
<ellipse fill="none" stroke="blue" cx="2221.39" cy="-265" rx="83.39" ry="18"/>
<text text-anchor="middle" x="2221.39" y="-261.3" font-family="Times,serif" font-size="14.00">organism taxon</text>
</g>
</g>
</svg>
