<?xml version="1.0" encoding="UTF-8" standalone="no"?>
<!DOCTYPE svg PUBLIC "-//W3C//DTD SVG 1.1//EN"
 "http://www.w3.org/Graphics/SVG/1.1/DTD/svg11.dtd">
<!-- Generated by graphviz version 2.43.0 (0)
 -->
<!-- Title: %3 Pages: 1 -->
<svg width="3067pt" height="291pt"
 viewBox="0.00 0.00 3067.39 291.00" xmlns="http://www.w3.org/2000/svg" xmlns:xlink="http://www.w3.org/1999/xlink">
<g id="graph0" class="graph" transform="scale(1 1) rotate(0) translate(4 287)">
<title>%3</title>
<polygon fill="white" stroke="transparent" points="-4,4 -4,-287 3063.39,-287 3063.39,4 -4,4"/>
<!-- taxon to taxon association -->
<g id="node1" class="node">
<title>taxon to taxon association</title>
<ellipse fill="none" stroke="black" cx="1380.39" cy="-265" rx="131.88" ry="18"/>
<text text-anchor="middle" x="1380.39" y="-261.3" font-family="Times,serif" font-size="14.00">taxon to taxon association</text>
</g>
<!-- association -->
<g id="node2" class="node">
<title>association</title>
<ellipse fill="none" stroke="black" cx="62.39" cy="-178" rx="62.29" ry="18"/>
<text text-anchor="middle" x="62.39" y="-174.3" font-family="Times,serif" font-size="14.00">association</text>
</g>
<!-- taxon to taxon association&#45;&gt;association -->
<g id="edge1" class="edge">
<title>taxon to taxon association&#45;&gt;association</title>
<path fill="none" stroke="black" d="M1248.98,-263.27C996.92,-261.3 454.05,-254.18 268.39,-229 214.66,-221.71 154.53,-206.25 113.18,-194.44"/>
<polygon fill="black" stroke="black" points="113.92,-191.01 103.34,-191.6 111.98,-197.73 113.92,-191.01"/>
<text text-anchor="middle" x="282.39" y="-217.8" font-family="Times,serif" font-size="14.00">is_a</text>
</g>
<!-- id -->
<g id="node3" class="node">
<title>id</title>
<ellipse fill="none" stroke="blue" cx="181.39" cy="-178" rx="38.19" ry="18"/>
<text text-anchor="middle" x="181.39" y="-174.3" font-family="Times,serif" font-size="14.00">string</text>
</g>
<!-- taxon to taxon association&#45;&gt;id -->
<g id="edge2" class="edge">
<title>taxon to taxon association&#45;&gt;id</title>
<path fill="none" stroke="blue" d="M1250.12,-262.02C1021.1,-258.1 555.28,-248.03 393.39,-229 319.55,-220.32 301.06,-215.79 229.39,-196 226.28,-195.14 223.08,-194.18 219.89,-193.17"/>
<polygon fill="blue" stroke="blue" points="220.97,-189.84 210.37,-190.01 218.76,-196.48 220.97,-189.84"/>
<text text-anchor="middle" x="400.39" y="-217.8" font-family="Times,serif" font-size="14.00">id</text>
</g>
<!-- iri -->
<g id="node4" class="node">
<title>iri</title>
<ellipse fill="none" stroke="blue" cx="282.39" cy="-178" rx="44.39" ry="18"/>
<text text-anchor="middle" x="282.39" y="-174.3" font-family="Times,serif" font-size="14.00">iri type</text>
</g>
<!-- taxon to taxon association&#45;&gt;iri -->
<g id="edge3" class="edge">
<title>taxon to taxon association&#45;&gt;iri</title>
<path fill="none" stroke="blue" d="M1248.39,-264.68C1077.52,-264.18 770.79,-258.63 510.39,-229 431.75,-220.05 412.11,-215.46 335.39,-196 331.97,-195.13 328.43,-194.16 324.9,-193.14"/>
<polygon fill="blue" stroke="blue" points="325.59,-189.69 315.01,-190.16 323.57,-196.4 325.59,-189.69"/>
<text text-anchor="middle" x="518.39" y="-217.8" font-family="Times,serif" font-size="14.00">iri</text>
</g>
<!-- name -->
<g id="node5" class="node">
<title>name</title>
<ellipse fill="none" stroke="blue" cx="401.39" cy="-178" rx="56.59" ry="18"/>
<text text-anchor="middle" x="401.39" y="-174.3" font-family="Times,serif" font-size="14.00">label type</text>
</g>
<!-- taxon to taxon association&#45;&gt;name -->
<g id="edge4" class="edge">
<title>taxon to taxon association&#45;&gt;name</title>
<path fill="none" stroke="blue" d="M1251.16,-261.24C1063.22,-256.7 723.69,-246.38 602.39,-229 549.56,-221.43 490.43,-205.83 450.06,-194.06"/>
<polygon fill="blue" stroke="blue" points="450.8,-190.63 440.21,-191.15 448.82,-197.34 450.8,-190.63"/>
<text text-anchor="middle" x="622.39" y="-217.8" font-family="Times,serif" font-size="14.00">name</text>
</g>
<!-- description -->
<g id="node6" class="node">
<title>description</title>
<ellipse fill="none" stroke="blue" cx="551.39" cy="-178" rx="75.29" ry="18"/>
<text text-anchor="middle" x="551.39" y="-174.3" font-family="Times,serif" font-size="14.00">narrative text</text>
</g>
<!-- taxon to taxon association&#45;&gt;description -->
<g id="edge5" class="edge">
<title>taxon to taxon association&#45;&gt;description</title>
<path fill="none" stroke="blue" d="M1250.64,-261.56C1083.22,-257.68 801.36,-248.46 699.39,-229 663.73,-222.19 624.9,-208.83 595.96,-197.64"/>
<polygon fill="blue" stroke="blue" points="597.13,-194.34 586.54,-193.93 594.57,-200.85 597.13,-194.34"/>
<text text-anchor="middle" x="739.89" y="-217.8" font-family="Times,serif" font-size="14.00">description</text>
</g>
<!-- source -->
<g id="node7" class="node">
<title>source</title>
<ellipse fill="none" stroke="blue" cx="683.39" cy="-178" rx="38.19" ry="18"/>
<text text-anchor="middle" x="683.39" y="-174.3" font-family="Times,serif" font-size="14.00">string</text>
</g>
<!-- taxon to taxon association&#45;&gt;source -->
<g id="edge6" class="edge">
<title>taxon to taxon association&#45;&gt;source</title>
<path fill="none" stroke="blue" d="M1248.71,-263.66C1138.96,-261.41 978.94,-253.59 841.39,-229 799.35,-221.48 752.95,-205.87 721.37,-194.08"/>
<polygon fill="blue" stroke="blue" points="722.26,-190.68 711.66,-190.4 719.77,-197.22 722.26,-190.68"/>
<text text-anchor="middle" x="865.39" y="-217.8" font-family="Times,serif" font-size="14.00">source</text>
</g>
<!-- has attribute -->
<g id="node8" class="node">
<title>has attribute</title>
<ellipse fill="none" stroke="blue" cx="791.39" cy="-178" rx="51.99" ry="18"/>
<text text-anchor="middle" x="791.39" y="-174.3" font-family="Times,serif" font-size="14.00">attribute</text>
</g>
<!-- taxon to taxon association&#45;&gt;has attribute -->
<g id="edge7" class="edge">
<title>taxon to taxon association&#45;&gt;has attribute</title>
<path fill="none" stroke="blue" d="M1251.74,-260.93C1165.99,-257.07 1051.15,-248.41 951.39,-229 910.88,-221.12 866.15,-206.62 834.3,-195.26"/>
<polygon fill="blue" stroke="blue" points="835.45,-191.95 824.86,-191.85 833.07,-198.54 835.45,-191.95"/>
<text text-anchor="middle" x="998.39" y="-217.8" font-family="Times,serif" font-size="14.00">has attribute</text>
</g>
<!-- predicate -->
<g id="node9" class="node">
<title>predicate</title>
<ellipse fill="none" stroke="blue" cx="939.39" cy="-178" rx="77.99" ry="18"/>
<text text-anchor="middle" x="939.39" y="-174.3" font-family="Times,serif" font-size="14.00">predicate type</text>
</g>
<!-- taxon to taxon association&#45;&gt;predicate -->
<g id="edge8" class="edge">
<title>taxon to taxon association&#45;&gt;predicate</title>
<path fill="none" stroke="blue" d="M1272.14,-254.64C1220.67,-249.09 1158.5,-240.79 1103.39,-229 1064.62,-220.7 1021.79,-207.5 989.62,-196.75"/>
<polygon fill="blue" stroke="blue" points="990.59,-193.38 980,-193.49 988.35,-200.01 990.59,-193.38"/>
<text text-anchor="middle" x="1137.39" y="-217.8" font-family="Times,serif" font-size="14.00">predicate</text>
</g>
<!-- negated -->
<g id="node10" class="node">
<title>negated</title>
<ellipse fill="none" stroke="blue" cx="1082.39" cy="-178" rx="46.59" ry="18"/>
<text text-anchor="middle" x="1082.39" y="-174.3" font-family="Times,serif" font-size="14.00">boolean</text>
</g>
<!-- taxon to taxon association&#45;&gt;negated -->
<g id="edge9" class="edge">
<title>taxon to taxon association&#45;&gt;negated</title>
<path fill="none" stroke="blue" d="M1307.08,-249.92C1279.96,-244.17 1249.09,-236.99 1221.39,-229 1187.82,-219.31 1150.6,-205.77 1123.14,-195.22"/>
<polygon fill="blue" stroke="blue" points="1124.07,-191.83 1113.48,-191.48 1121.55,-198.36 1124.07,-191.83"/>
<text text-anchor="middle" x="1250.39" y="-217.8" font-family="Times,serif" font-size="14.00">negated</text>
</g>
<!-- qualifiers -->
<g id="node11" class="node">
<title>qualifiers</title>
<ellipse fill="none" stroke="blue" cx="1223.39" cy="-178" rx="76.89" ry="18"/>
<text text-anchor="middle" x="1223.39" y="-174.3" font-family="Times,serif" font-size="14.00">ontology class</text>
</g>
<!-- taxon to taxon association&#45;&gt;qualifiers -->
<g id="edge10" class="edge">
<title>taxon to taxon association&#45;&gt;qualifiers</title>
<path fill="none" stroke="blue" d="M1345.85,-247.56C1334.18,-241.85 1321.14,-235.3 1309.39,-229 1292.47,-219.92 1274.03,-209.3 1258.58,-200.19"/>
<polygon fill="blue" stroke="blue" points="1260.24,-197.11 1249.86,-195.02 1256.67,-203.13 1260.24,-197.11"/>
<text text-anchor="middle" x="1342.89" y="-217.8" font-family="Times,serif" font-size="14.00">qualifiers</text>
</g>
<!-- publications -->
<g id="node12" class="node">
<title>publications</title>
<ellipse fill="none" stroke="blue" cx="1380.39" cy="-178" rx="62.29" ry="18"/>
<text text-anchor="middle" x="1380.39" y="-174.3" font-family="Times,serif" font-size="14.00">publication</text>
</g>
<!-- taxon to taxon association&#45;&gt;publications -->
<g id="edge11" class="edge">
<title>taxon to taxon association&#45;&gt;publications</title>
<path fill="none" stroke="blue" d="M1380.39,-246.8C1380.39,-235.16 1380.39,-219.55 1380.39,-206.24"/>
<polygon fill="blue" stroke="blue" points="1383.89,-206.18 1380.39,-196.18 1376.89,-206.18 1383.89,-206.18"/>
<text text-anchor="middle" x="1424.39" y="-217.8" font-family="Times,serif" font-size="14.00">publications</text>
</g>
<!-- has evidence -->
<g id="node13" class="node">
<title>has evidence</title>
<ellipse fill="none" stroke="blue" cx="1536.39" cy="-178" rx="75.29" ry="18"/>
<text text-anchor="middle" x="1536.39" y="-174.3" font-family="Times,serif" font-size="14.00">evidence type</text>
</g>
<!-- taxon to taxon association&#45;&gt;has evidence -->
<g id="edge12" class="edge">
<title>taxon to taxon association&#45;&gt;has evidence</title>
<path fill="none" stroke="blue" d="M1429.85,-248.29C1443.99,-242.98 1459.15,-236.47 1472.39,-229 1485.74,-221.48 1499.28,-211.34 1510.45,-202.15"/>
<polygon fill="blue" stroke="blue" points="1512.74,-204.8 1518.13,-195.69 1508.23,-199.45 1512.74,-204.8"/>
<text text-anchor="middle" x="1541.89" y="-217.8" font-family="Times,serif" font-size="14.00">has evidence</text>
</g>
<!-- knowledge source -->
<g id="node14" class="node">
<title>knowledge source</title>
<ellipse fill="none" stroke="blue" cx="1738.39" cy="-178" rx="108.58" ry="18"/>
<text text-anchor="middle" x="1738.39" y="-174.3" font-family="Times,serif" font-size="14.00">information resource</text>
</g>
<!-- taxon to taxon association&#45;&gt;knowledge source -->
<g id="edge13" class="edge">
<title>taxon to taxon association&#45;&gt;knowledge source</title>
<path fill="none" stroke="blue" d="M1472.91,-252.14C1510.3,-246.46 1553.69,-238.75 1592.39,-229 1625.05,-220.77 1660.83,-208.57 1688.8,-198.28"/>
<polygon fill="blue" stroke="blue" points="1690.19,-201.5 1698.34,-194.73 1687.75,-194.94 1690.19,-201.5"/>
<text text-anchor="middle" x="1705.89" y="-217.8" font-family="Times,serif" font-size="14.00">knowledge source</text>
</g>
<!-- original knowledge source -->
<g id="node15" class="node">
<title>original knowledge source</title>
<ellipse fill="none" stroke="blue" cx="1973.39" cy="-178" rx="108.58" ry="18"/>
<text text-anchor="middle" x="1973.39" y="-174.3" font-family="Times,serif" font-size="14.00">information resource</text>
</g>
<!-- taxon to taxon association&#45;&gt;original knowledge source -->
<g id="edge14" class="edge">
<title>taxon to taxon association&#45;&gt;original knowledge source</title>
<path fill="none" stroke="blue" d="M1473.23,-252.15C1489.28,-250.29 1505.81,-248.49 1521.39,-247 1633.61,-236.25 1663.08,-246.8 1774.39,-229 1821.9,-221.4 1874.67,-207.9 1913.92,-196.85"/>
<polygon fill="blue" stroke="blue" points="1914.94,-200.2 1923.6,-194.09 1913.02,-193.46 1914.94,-200.2"/>
<text text-anchor="middle" x="1940.39" y="-217.8" font-family="Times,serif" font-size="14.00">original knowledge source</text>
</g>
<!-- primary knowledge source -->
<g id="node16" class="node">
<title>primary knowledge source</title>
<ellipse fill="none" stroke="blue" cx="2208.39" cy="-178" rx="108.58" ry="18"/>
<text text-anchor="middle" x="2208.39" y="-174.3" font-family="Times,serif" font-size="14.00">information resource</text>
</g>
<!-- taxon to taxon association&#45;&gt;primary knowledge source -->
<g id="edge15" class="edge">
<title>taxon to taxon association&#45;&gt;primary knowledge source</title>
<path fill="none" stroke="blue" d="M1471.3,-251.89C1487.94,-250 1505.17,-248.26 1521.39,-247 1750.62,-229.22 1811.43,-265.73 2038.39,-229 2078.89,-222.45 2123.32,-209.16 2156.6,-197.92"/>
<polygon fill="blue" stroke="blue" points="2157.79,-201.22 2166.11,-194.67 2155.52,-194.59 2157.79,-201.22"/>
<text text-anchor="middle" x="2195.39" y="-217.8" font-family="Times,serif" font-size="14.00">primary knowledge source</text>
</g>
<!-- aggregator knowledge source -->
<g id="node17" class="node">
<title>aggregator knowledge source</title>
<ellipse fill="none" stroke="blue" cx="2443.39" cy="-178" rx="108.58" ry="18"/>
<text text-anchor="middle" x="2443.39" y="-174.3" font-family="Times,serif" font-size="14.00">information resource</text>
</g>
<!-- taxon to taxon association&#45;&gt;aggregator knowledge source -->
<g id="edge16" class="edge">
<title>taxon to taxon association&#45;&gt;aggregator knowledge source</title>
<path fill="none" stroke="blue" d="M1470.53,-251.82C1487.41,-249.91 1504.92,-248.18 1521.39,-247 1692.78,-234.7 2125.15,-258.67 2294.39,-229 2329.65,-222.82 2367.89,-209.85 2396.81,-198.66"/>
<polygon fill="blue" stroke="blue" points="2398.22,-201.87 2406.24,-194.95 2395.65,-195.36 2398.22,-201.87"/>
<text text-anchor="middle" x="2459.89" y="-217.8" font-family="Times,serif" font-size="14.00">aggregator knowledge source</text>
</g>
<!-- timepoint -->
<g id="node18" class="node">
<title>timepoint</title>
<ellipse fill="none" stroke="blue" cx="2625.39" cy="-178" rx="55.49" ry="18"/>
<text text-anchor="middle" x="2625.39" y="-174.3" font-family="Times,serif" font-size="14.00">time type</text>
</g>
<!-- taxon to taxon association&#45;&gt;timepoint -->
<g id="edge17" class="edge">
<title>taxon to taxon association&#45;&gt;timepoint</title>
<path fill="none" stroke="blue" d="M1470.15,-251.78C1487.14,-249.86 1504.79,-248.14 1521.39,-247 1579.54,-243.01 2516.21,-250.48 2570.39,-229 2583.84,-223.67 2596.05,-213.43 2605.53,-203.59"/>
<polygon fill="blue" stroke="blue" points="2608.39,-205.65 2612.52,-195.9 2603.21,-200.95 2608.39,-205.65"/>
<text text-anchor="middle" x="2629.39" y="-217.8" font-family="Times,serif" font-size="14.00">timepoint</text>
</g>
<!-- type -->
<g id="node19" class="node">
<title>type</title>
<ellipse fill="none" stroke="black" cx="2729.39" cy="-178" rx="31.4" ry="18"/>
<text text-anchor="middle" x="2729.39" y="-174.3" font-family="Times,serif" font-size="14.00">type</text>
</g>
<!-- taxon to taxon association&#45;&gt;type -->
<g id="edge18" class="edge">
<title>taxon to taxon association&#45;&gt;type</title>
<path fill="none" stroke="blue" d="M1470.15,-251.76C1487.14,-249.84 1504.79,-248.13 1521.39,-247 1584.98,-242.68 2608.55,-250.92 2668.39,-229 2683.71,-223.39 2697.97,-212.18 2708.85,-201.79"/>
<polygon fill="blue" stroke="blue" points="2711.57,-204.02 2716.15,-194.47 2706.61,-199.09 2711.57,-204.02"/>
<text text-anchor="middle" x="2711.39" y="-217.8" font-family="Times,serif" font-size="14.00">type</text>
</g>
<!-- category -->
<g id="node21" class="node">
<title>category</title>
<ellipse fill="none" stroke="black" cx="2830.39" cy="-178" rx="51.19" ry="18"/>
<text text-anchor="middle" x="2830.39" y="-174.3" font-family="Times,serif" font-size="14.00">category</text>
</g>
<!-- taxon to taxon association&#45;&gt;category -->
<g id="edge19" class="edge">
<title>taxon to taxon association&#45;&gt;category</title>
<path fill="none" stroke="blue" d="M1470.15,-251.75C1487.14,-249.83 1504.79,-248.12 1521.39,-247 1655.55,-237.94 2600.83,-261.13 2731.39,-229 2755.34,-223.11 2780.1,-210.6 2798.86,-199.57"/>
<polygon fill="blue" stroke="blue" points="2800.82,-202.48 2807.57,-194.31 2797.2,-196.49 2800.82,-202.48"/>
<text text-anchor="middle" x="2802.89" y="-217.8" font-family="Times,serif" font-size="14.00">category</text>
</g>
<!-- subject -->
<g id="node23" class="node">
<title>subject</title>
<ellipse fill="none" stroke="black" cx="2944.39" cy="-178" rx="44.39" ry="18"/>
<text text-anchor="middle" x="2944.39" y="-174.3" font-family="Times,serif" font-size="14.00">subject</text>
</g>
<!-- taxon to taxon association&#45;&gt;subject -->
<g id="edge20" class="edge">
<title>taxon to taxon association&#45;&gt;subject</title>
<path fill="none" stroke="blue" d="M1470.15,-251.73C1487.14,-249.82 1504.79,-248.11 1521.39,-247 1667.41,-237.23 2695.81,-261.97 2838.39,-229 2864.53,-222.96 2891.85,-209.88 2912.21,-198.62"/>
<polygon fill="blue" stroke="blue" points="2914.08,-201.58 2921.05,-193.6 2910.62,-195.5 2914.08,-201.58"/>
<text text-anchor="middle" x="2907.39" y="-217.8" font-family="Times,serif" font-size="14.00">subject</text>
</g>
<!-- object -->
<g id="node25" class="node">
<title>object</title>
<ellipse fill="none" stroke="black" cx="2987.39" cy="-91" rx="38.99" ry="18"/>
<text text-anchor="middle" x="2987.39" y="-87.3" font-family="Times,serif" font-size="14.00">object</text>
</g>
<!-- taxon to taxon association&#45;&gt;object -->
<g id="edge21" class="edge">
<title>taxon to taxon association&#45;&gt;object</title>
<path fill="none" stroke="blue" d="M1470.14,-251.72C1487.14,-249.81 1504.79,-248.1 1521.39,-247 1599.89,-241.78 2861.32,-249.06 2937.39,-229 2966.82,-221.24 2978.93,-220.19 2997.39,-196 3016.33,-171.2 3019.34,-156.9 3010.39,-127 3009.36,-123.55 3007.87,-120.13 3006.13,-116.85"/>
<polygon fill="blue" stroke="blue" points="3008.98,-114.79 3000.77,-108.09 3003.01,-118.45 3008.98,-114.79"/>
<text text-anchor="middle" x="3037.39" y="-174.3" font-family="Times,serif" font-size="14.00">object</text>
</g>
<!-- association_type -->
<g id="node20" class="node">
<title>association_type</title>
<ellipse fill="none" stroke="blue" cx="1568.39" cy="-265" rx="38.19" ry="18"/>
<text text-anchor="middle" x="1568.39" y="-261.3" font-family="Times,serif" font-size="14.00">string</text>
</g>
<!-- association_category -->
<g id="node22" class="node">
<title>association_category</title>
<ellipse fill="none" stroke="blue" cx="1699.39" cy="-265" rx="74.99" ry="18"/>
<text text-anchor="middle" x="1699.39" y="-261.3" font-family="Times,serif" font-size="14.00">category type</text>
</g>
<!-- subject&#45;&gt;object -->
<g id="edge22" class="edge">
<title>subject&#45;&gt;object</title>
<path fill="none" stroke="black" d="M2945.5,-159.55C2946.7,-149.57 2949.2,-137.07 2954.39,-127 2956.62,-122.68 2959.55,-118.52 2962.73,-114.66"/>
<polygon fill="black" stroke="black" points="2965.35,-116.98 2969.49,-107.23 2960.17,-112.27 2965.35,-116.98"/>
<text text-anchor="middle" x="2982.39" y="-130.8" font-family="Times,serif" font-size="14.00">relation</text>
</g>
<!-- relation -->
<g id="node27" class="node">
<title>relation</title>
<ellipse fill="none" stroke="black" cx="2932.39" cy="-18" rx="46.59" ry="18"/>
<text text-anchor="middle" x="2932.39" y="-14.3" font-family="Times,serif" font-size="14.00">relation</text>
</g>
<!-- subject&#45;&gt;relation -->
<g id="edge23" class="edge">
<title>subject&#45;&gt;relation</title>
<path fill="none" stroke="black" stroke-dasharray="1,5" d="M2943.09,-159.79C2941.01,-132.48 2936.95,-78.99 2934.47,-46.38"/>
<polygon fill="black" stroke="black" points="2937.95,-45.89 2933.7,-36.19 2930.97,-46.42 2937.95,-45.89"/>
</g>
<!-- taxon to taxon association_subject -->
<g id="node24" class="node">
<title>taxon to taxon association_subject</title>
<ellipse fill="none" stroke="blue" cx="1875.39" cy="-265" rx="83.39" ry="18"/>
<text text-anchor="middle" x="1875.39" y="-261.3" font-family="Times,serif" font-size="14.00">organism taxon</text>
</g>
<!-- object&#45;&gt;relation -->
<g id="edge24" class="edge">
<title>object&#45;&gt;relation</title>
<path fill="none" stroke="black" stroke-dasharray="1,5" d="M2974.91,-73.89C2967.98,-64.94 2959.21,-53.62 2951.44,-43.58"/>
<polygon fill="black" stroke="black" points="2954.1,-41.3 2945.21,-35.54 2948.56,-45.59 2954.1,-41.3"/>
</g>
<!-- taxon to taxon association_object -->
<g id="node26" class="node">
<title>taxon to taxon association_object</title>
<ellipse fill="none" stroke="blue" cx="2059.39" cy="-265" rx="83.39" ry="18"/>
<text text-anchor="middle" x="2059.39" y="-261.3" font-family="Times,serif" font-size="14.00">organism taxon</text>
</g>
</g>
</svg>
