<?xml version="1.0" encoding="UTF-8" standalone="no"?>
<!DOCTYPE svg PUBLIC "-//W3C//DTD SVG 1.1//EN"
 "http://www.w3.org/Graphics/SVG/1.1/DTD/svg11.dtd">
<!-- Generated by graphviz version 2.40.1 (20161225.0304)
 -->
<!-- Title: %3 Pages: 1 -->
<svg width="2169pt" height="130pt"
 viewBox="0.00 0.00 2169.25 130.00" xmlns="http://www.w3.org/2000/svg" xmlns:xlink="http://www.w3.org/1999/xlink">
<g id="graph0" class="graph" transform="scale(1 1) rotate(0) translate(4 126)">
<title>%3</title>
<polygon fill="#ffffff" stroke="transparent" points="-4,4 -4,-126 2165.2471,-126 2165.2471,4 -4,4"/>
<!-- treatment -->
<g id="node1" class="node">
<title>treatment</title>
<ellipse fill="none" stroke="#000000" cx="994.3922" cy="-104" rx="43.4974" ry="18"/>
<text text-anchor="middle" x="994.3922" y="-99.8" font-family="Times,serif" font-size="14.00" fill="#000000">treatment</text>
</g>
<!-- exposure event -->
<g id="node2" class="node">
<title>exposure event</title>
<ellipse fill="none" stroke="#000000" cx="63.3922" cy="-18" rx="63.2845" ry="18"/>
<text text-anchor="middle" x="63.3922" y="-13.8" font-family="Times,serif" font-size="14.00" fill="#000000">exposure event</text>
</g>
<!-- treatment&#45;&gt;exposure event -->
<g id="edge1" class="edge">
<title>treatment&#45;&gt;exposure event</title>
<path fill="none" stroke="#000000" d="M950.6403,-103.5283C842.6653,-101.9618 554.992,-95.3392 316.8404,-68 235.9213,-58.7107 216.0764,-52.8702 136.3922,-36 131.1245,-34.8848 125.659,-33.6616 120.1963,-32.3942"/>
<polygon fill="#000000" stroke="#000000" points="120.9469,-28.9752 110.4097,-30.0789 119.3353,-35.7872 120.9469,-28.9752"/>
<text text-anchor="middle" x="328.668" y="-56.8" font-family="Times,serif" font-size="14.00" fill="#000000">is_a</text>
</g>
<!-- id -->
<g id="node3" class="node">
<title>id</title>
<ellipse fill="none" stroke="#0000ff" cx="204.3922" cy="-18" rx="59.4427" ry="18"/>
<text text-anchor="middle" x="204.3922" y="-13.8" font-family="Times,serif" font-size="14.00" fill="#000000">identifier type</text>
</g>
<!-- treatment&#45;&gt;id -->
<g id="edge2" class="edge">
<title>treatment&#45;&gt;id</title>
<path fill="none" stroke="#0000ff" d="M950.765,-102.2374C833.8986,-97.3669 515.6064,-83.0839 411.5025,-68 357.9557,-60.2414 297.9835,-45.0253 256.4105,-33.4067"/>
<polygon fill="#0000ff" stroke="#0000ff" points="257.3542,-30.0364 246.7794,-30.6875 255.4521,-36.7731 257.3542,-30.0364"/>
<text text-anchor="middle" x="417.837" y="-56.8" font-family="Times,serif" font-size="14.00" fill="#000000">id</text>
</g>
<!-- name -->
<g id="node4" class="node">
<title>name</title>
<ellipse fill="none" stroke="#0000ff" cx="326.3922" cy="-18" rx="44.9599" ry="18"/>
<text text-anchor="middle" x="326.3922" y="-13.8" font-family="Times,serif" font-size="14.00" fill="#000000">label type</text>
</g>
<!-- treatment&#45;&gt;name -->
<g id="edge3" class="edge">
<title>treatment&#45;&gt;name</title>
<path fill="none" stroke="#0000ff" d="M950.8866,-102.3947C843.2262,-98.1945 566.5433,-85.9498 476.0748,-68 438.2882,-60.5028 396.8555,-46.1579 367.1807,-34.749"/>
<polygon fill="#0000ff" stroke="#0000ff" points="368.1783,-31.3813 357.5901,-31.0066 365.6336,-37.9024 368.1783,-31.3813"/>
<text text-anchor="middle" x="491.5508" y="-56.8" font-family="Times,serif" font-size="14.00" fill="#000000">name</text>
</g>
<!-- category -->
<g id="node5" class="node">
<title>category</title>
<ellipse fill="none" stroke="#0000ff" cx="424.3922" cy="-18" rx="35.3048" ry="18"/>
<text text-anchor="middle" x="424.3922" y="-13.8" font-family="Times,serif" font-size="14.00" fill="#000000">iri type</text>
</g>
<!-- treatment&#45;&gt;category -->
<g id="edge4" class="edge">
<title>treatment&#45;&gt;category</title>
<path fill="none" stroke="#0000ff" d="M951.1597,-101.9801C855.6147,-97.2699 629.0403,-84.6793 554.1988,-68 520.9656,-60.5936 484.9662,-46.1796 459.3274,-34.7232"/>
<polygon fill="#0000ff" stroke="#0000ff" points="460.5876,-31.4514 450.0358,-30.498 457.69,-37.8235 460.5876,-31.4514"/>
<text text-anchor="middle" x="578.4888" y="-56.8" font-family="Times,serif" font-size="14.00" fill="#000000">category</text>
</g>
<!-- related to -->
<g id="node6" class="node">
<title>related to</title>
<ellipse fill="none" stroke="#0000ff" cx="531.3922" cy="-18" rx="54.1389" ry="18"/>
<text text-anchor="middle" x="531.3922" y="-13.8" font-family="Times,serif" font-size="14.00" fill="#000000">named thing</text>
</g>
<!-- treatment&#45;&gt;related to -->
<g id="edge5" class="edge">
<title>treatment&#45;&gt;related to</title>
<path fill="none" stroke="#0000ff" d="M951.3409,-101.2477C871.1164,-95.8409 701.745,-83.0411 644.9195,-68 618.6226,-61.0395 590.6384,-48.7757 569.0336,-38.1362"/>
<polygon fill="#0000ff" stroke="#0000ff" points="570.3945,-34.9031 559.8874,-33.5421 567.2524,-41.1583 570.3945,-34.9031"/>
<text text-anchor="middle" x="671.6285" y="-56.8" font-family="Times,serif" font-size="14.00" fill="#000000">related to</text>
</g>
<!-- interacts with -->
<g id="node7" class="node">
<title>interacts with</title>
<ellipse fill="none" stroke="#0000ff" cx="657.3922" cy="-18" rx="54.1389" ry="18"/>
<text text-anchor="middle" x="657.3922" y="-13.8" font-family="Times,serif" font-size="14.00" fill="#000000">named thing</text>
</g>
<!-- treatment&#45;&gt;interacts with -->
<g id="edge6" class="edge">
<title>treatment&#45;&gt;interacts with</title>
<path fill="none" stroke="#0000ff" d="M951.3937,-100.903C885.9594,-95.7472 764.7466,-84.3319 724.5816,-68 709.4791,-61.859 694.7168,-51.5057 682.8939,-41.808"/>
<polygon fill="#0000ff" stroke="#0000ff" points="685.0913,-39.0821 675.2104,-35.2588 680.5504,-44.4095 685.0913,-39.0821"/>
<text text-anchor="middle" x="763.2974" y="-56.8" font-family="Times,serif" font-size="14.00" fill="#000000">interacts with</text>
</g>
<!-- node property -->
<g id="node8" class="node">
<title>node property</title>
<ellipse fill="none" stroke="#0000ff" cx="759.3922" cy="-18" rx="30.0035" ry="18"/>
<text text-anchor="middle" x="759.3922" y="-13.8" font-family="Times,serif" font-size="14.00" fill="#000000">string</text>
</g>
<!-- treatment&#45;&gt;node property -->
<g id="edge7" class="edge">
<title>treatment&#45;&gt;node property</title>
<path fill="none" stroke="#0000ff" d="M951.9211,-99.7095C917.4208,-95.0843 868.1214,-85.8394 828.2506,-68 812.363,-60.8914 796.5151,-49.7362 784.0351,-39.7645"/>
<polygon fill="#0000ff" stroke="#0000ff" points="785.9153,-36.7782 775.9741,-33.1143 781.4606,-42.1779 785.9153,-36.7782"/>
<text text-anchor="middle" x="867.463" y="-56.8" font-family="Times,serif" font-size="14.00" fill="#000000">node property</text>
</g>
<!-- iri -->
<g id="node9" class="node">
<title>iri</title>
<ellipse fill="none" stroke="#0000ff" cx="843.3922" cy="-18" rx="35.3048" ry="18"/>
<text text-anchor="middle" x="843.3922" y="-13.8" font-family="Times,serif" font-size="14.00" fill="#000000">iri type</text>
</g>
<!-- treatment&#45;&gt;iri -->
<g id="edge8" class="edge">
<title>treatment&#45;&gt;iri</title>
<path fill="none" stroke="#0000ff" d="M968.7771,-89.4113C943.2254,-74.8586 903.8758,-52.4477 876.0843,-36.6193"/>
<polygon fill="#0000ff" stroke="#0000ff" points="877.5607,-33.4324 867.139,-31.5247 874.0964,-39.5151 877.5607,-33.4324"/>
<text text-anchor="middle" x="934.6129" y="-56.8" font-family="Times,serif" font-size="14.00" fill="#000000">iri</text>
</g>
<!-- synonym -->
<g id="node10" class="node">
<title>synonym</title>
<ellipse fill="none" stroke="#0000ff" cx="941.3922" cy="-18" rx="44.9599" ry="18"/>
<text text-anchor="middle" x="941.3922" y="-13.8" font-family="Times,serif" font-size="14.00" fill="#000000">label type</text>
</g>
<!-- treatment&#45;&gt;synonym -->
<g id="edge9" class="edge">
<title>treatment&#45;&gt;synonym</title>
<path fill="none" stroke="#0000ff" d="M983.4105,-86.1807C975.9707,-74.1085 966.0112,-57.9478 957.6559,-44.3901"/>
<polygon fill="#0000ff" stroke="#0000ff" points="960.4045,-42.1791 952.1784,-35.5022 954.4453,-45.8517 960.4045,-42.1791"/>
<text text-anchor="middle" x="997.0611" y="-56.8" font-family="Times,serif" font-size="14.00" fill="#000000">synonym</text>
</g>
<!-- full name -->
<g id="node11" class="node">
<title>full name</title>
<ellipse fill="none" stroke="#0000ff" cx="1048.3922" cy="-18" rx="44.9599" ry="18"/>
<text text-anchor="middle" x="1048.3922" y="-13.8" font-family="Times,serif" font-size="14.00" fill="#000000">label type</text>
</g>
<!-- treatment&#45;&gt;full name -->
<g id="edge10" class="edge">
<title>treatment&#45;&gt;full name</title>
<path fill="none" stroke="#0000ff" d="M1011.186,-87.3079C1016.4723,-81.5076 1022.0563,-74.7561 1026.3922,-68 1030.8085,-61.1186 1034.7455,-53.2009 1038.0251,-45.7256"/>
<polygon fill="#0000ff" stroke="#0000ff" points="1041.3455,-46.8556 1041.9428,-36.2776 1034.8793,-44.1743 1041.3455,-46.8556"/>
<text text-anchor="middle" x="1061.0216" y="-56.8" font-family="Times,serif" font-size="14.00" fill="#000000">full name</text>
</g>
<!-- description -->
<g id="node12" class="node">
<title>description</title>
<ellipse fill="none" stroke="#0000ff" cx="1168.3922" cy="-18" rx="57.0027" ry="18"/>
<text text-anchor="middle" x="1168.3922" y="-13.8" font-family="Times,serif" font-size="14.00" fill="#000000">narrative text</text>
</g>
<!-- treatment&#45;&gt;description -->
<g id="edge11" class="edge">
<title>treatment&#45;&gt;description</title>
<path fill="none" stroke="#0000ff" d="M1028.1875,-92.348C1051.3981,-84.1764 1079.9965,-73.7263 1091.3922,-68 1107.0474,-60.1332 1123.4549,-49.8037 1137.0823,-40.5767"/>
<polygon fill="#0000ff" stroke="#0000ff" points="1139.3502,-43.2646 1145.6001,-34.7095 1135.3793,-37.4998 1139.3502,-43.2646"/>
<text text-anchor="middle" x="1147.4957" y="-56.8" font-family="Times,serif" font-size="14.00" fill="#000000">description</text>
</g>
<!-- systematic synonym -->
<g id="node13" class="node">
<title>systematic synonym</title>
<ellipse fill="none" stroke="#0000ff" cx="1288.3922" cy="-18" rx="44.9599" ry="18"/>
<text text-anchor="middle" x="1288.3922" y="-13.8" font-family="Times,serif" font-size="14.00" fill="#000000">label type</text>
</g>
<!-- treatment&#45;&gt;systematic synonym -->
<g id="edge12" class="edge">
<title>treatment&#45;&gt;systematic synonym</title>
<path fill="none" stroke="#0000ff" d="M1026.8985,-91.8497C1033.6061,-89.6577 1040.6743,-87.5728 1047.3922,-86 1106.3295,-72.2017 1124.3311,-85.1146 1182.3922,-68 1207.2719,-60.6662 1233.6573,-48.2383 1253.8798,-37.6079"/>
<polygon fill="#0000ff" stroke="#0000ff" points="1255.5496,-40.684 1262.7099,-32.875 1252.2427,-34.5144 1255.5496,-40.684"/>
<text text-anchor="middle" x="1276.3594" y="-56.8" font-family="Times,serif" font-size="14.00" fill="#000000">systematic synonym</text>
</g>
<!-- has phenotype -->
<g id="node14" class="node">
<title>has phenotype</title>
<ellipse fill="none" stroke="#0000ff" cx="1427.3922" cy="-18" rx="76.3132" ry="18"/>
<text text-anchor="middle" x="1427.3922" y="-13.8" font-family="Times,serif" font-size="14.00" fill="#000000">phenotypic feature</text>
</g>
<!-- treatment&#45;&gt;has phenotype -->
<g id="edge13" class="edge">
<title>treatment&#45;&gt;has phenotype</title>
<path fill="none" stroke="#0000ff" d="M1026.2517,-91.6602C1033.1322,-89.4258 1040.4324,-87.3724 1047.3922,-86 1174.0893,-61.0162 1213.4479,-104.2513 1337.3922,-68 1357.6572,-62.0729 1378.3829,-50.9699 1394.8294,-40.7296"/>
<polygon fill="#0000ff" stroke="#0000ff" points="1396.9704,-43.5144 1403.496,-35.1677 1393.1896,-37.6232 1396.9704,-43.5144"/>
<text text-anchor="middle" x="1411.6319" y="-56.8" font-family="Times,serif" font-size="14.00" fill="#000000">has phenotype</text>
</g>
<!-- has receptor -->
<g id="node15" class="node">
<title>has receptor</title>
<ellipse fill="none" stroke="#0000ff" cx="1593.3922" cy="-18" rx="71.6932" ry="18"/>
<text text-anchor="middle" x="1593.3922" y="-13.8" font-family="Times,serif" font-size="14.00" fill="#000000">organismal entity</text>
</g>
<!-- treatment&#45;&gt;has receptor -->
<g id="edge14" class="edge">
<title>treatment&#45;&gt;has receptor</title>
<path fill="none" stroke="#0000ff" d="M1026.2333,-91.5646C1033.115,-89.3367 1040.4204,-87.3101 1047.3922,-86 1225.7797,-52.4791 1277.3524,-103.3215 1455.3922,-68 1487.7825,-61.574 1522.7414,-48.842 1549.369,-37.8346"/>
<polygon fill="#0000ff" stroke="#0000ff" points="1550.9233,-40.9779 1558.782,-33.8722 1548.2074,-34.5262 1550.9233,-40.9779"/>
<text text-anchor="middle" x="1540.4009" y="-56.8" font-family="Times,serif" font-size="14.00" fill="#000000">has receptor</text>
</g>
<!-- has stressor -->
<g id="node16" class="node">
<title>has stressor</title>
<ellipse fill="none" stroke="#0000ff" cx="1713.3922" cy="-18" rx="30.0035" ry="18"/>
<text text-anchor="middle" x="1713.3922" y="-13.8" font-family="Times,serif" font-size="14.00" fill="#000000">string</text>
</g>
<!-- treatment&#45;&gt;has stressor -->
<g id="edge15" class="edge">
<title>treatment&#45;&gt;has stressor</title>
<path fill="none" stroke="#0000ff" d="M1025.9405,-91.6015C1032.9053,-89.341 1040.3182,-87.2919 1047.3922,-86 1279.6854,-43.5754 1345.98,-109.7682 1578.3922,-68 1614.5416,-61.5034 1653.6737,-45.9895 1680.4523,-33.9516"/>
<polygon fill="#0000ff" stroke="#0000ff" points="1682.0997,-37.0466 1689.7307,-29.6969 1679.1819,-30.6837 1682.0997,-37.0466"/>
<text text-anchor="middle" x="1660.8594" y="-56.8" font-family="Times,serif" font-size="14.00" fill="#000000">has stressor</text>
</g>
<!-- has route -->
<g id="node17" class="node">
<title>has route</title>
<ellipse fill="none" stroke="#0000ff" cx="1792.3922" cy="-18" rx="30.0035" ry="18"/>
<text text-anchor="middle" x="1792.3922" y="-13.8" font-family="Times,serif" font-size="14.00" fill="#000000">string</text>
</g>
<!-- treatment&#45;&gt;has route -->
<g id="edge16" class="edge">
<title>treatment&#45;&gt;has route</title>
<path fill="none" stroke="#0000ff" d="M1025.9345,-91.5683C1032.8996,-89.3098 1040.3142,-87.27 1047.3922,-86 1189.6205,-60.4797 1557.6045,-104.6006 1697.3922,-68 1721.1906,-61.7689 1745.7029,-48.6713 1763.8664,-37.4444"/>
<polygon fill="#0000ff" stroke="#0000ff" points="1766.1924,-40.1128 1772.7487,-31.7902 1762.4333,-34.2077 1766.1924,-40.1128"/>
<text text-anchor="middle" x="1758.856" y="-56.8" font-family="Times,serif" font-size="14.00" fill="#000000">has route</text>
</g>
<!-- treats -->
<g id="node18" class="node">
<title>treats</title>
<ellipse fill="none" stroke="#0000ff" cx="1954.3922" cy="-18" rx="113.4642" ry="18"/>
<text text-anchor="middle" x="1954.3922" y="-13.8" font-family="Times,serif" font-size="14.00" fill="#000000">disease or phenotypic feature</text>
</g>
<!-- treatment&#45;&gt;treats -->
<g id="edge17" class="edge">
<title>treatment&#45;&gt;treats</title>
<path fill="none" stroke="#0000ff" d="M1025.9313,-91.55C1032.8966,-89.2927 1040.312,-87.258 1047.3922,-86 1209.5674,-57.1849 1625.7396,-93.9859 1788.3922,-68 1826.9093,-61.8464 1868.9696,-49.1098 1901.1152,-38.0321"/>
<polygon fill="#0000ff" stroke="#0000ff" points="1902.4762,-41.264 1910.7582,-34.6566 1900.1634,-34.6571 1902.4762,-41.264"/>
<text text-anchor="middle" x="1864.5508" y="-56.8" font-family="Times,serif" font-size="14.00" fill="#000000">treats</text>
</g>
<!-- has part -->
<g id="node19" class="node">
<title>has part</title>
<ellipse fill="none" stroke="#000000" cx="2123.3922" cy="-18" rx="37.7104" ry="18"/>
<text text-anchor="middle" x="2123.3922" y="-13.8" font-family="Times,serif" font-size="14.00" fill="#000000">has part</text>
</g>
<!-- treatment&#45;&gt;has part -->
<g id="edge18" class="edge">
<title>treatment&#45;&gt;has part</title>
<path fill="none" stroke="#0000ff" d="M1025.9286,-91.5352C1032.8941,-89.2788 1040.3103,-87.2482 1047.3922,-86 1230.3922,-53.7452 1698.3729,-85.2413 1883.3922,-68 1969.9659,-59.9325 1992.4791,-58.775 2076.3922,-36 2079.333,-35.2018 2082.3449,-34.287 2085.3538,-33.3023"/>
<polygon fill="#0000ff" stroke="#0000ff" points="2086.5804,-36.5812 2094.8638,-29.9755 2084.269,-29.9738 2086.5804,-36.5812"/>
<text text-anchor="middle" x="2023.356" y="-56.8" font-family="Times,serif" font-size="14.00" fill="#000000">has part</text>
</g>
<!-- treatment_has part -->
<g id="node20" class="node">
<title>treatment_has part</title>
<ellipse fill="none" stroke="#0000ff" cx="1116.3922" cy="-104" rx="60.4031" ry="18"/>
<text text-anchor="middle" x="1116.3922" y="-99.8" font-family="Times,serif" font-size="14.00" fill="#000000">drug exposure</text>
</g>
</g>
</svg>
