<?xml version="1.0" encoding="UTF-8" standalone="no"?>
<!DOCTYPE svg PUBLIC "-//W3C//DTD SVG 1.1//EN"
 "http://www.w3.org/Graphics/SVG/1.1/DTD/svg11.dtd">
<!-- Generated by graphviz version 2.43.0 (0)
 -->
<!-- Title: %3 Pages: 1 -->
<svg width="4243pt" height="291pt"
 viewBox="0.00 0.00 4243.38 291.00" xmlns="http://www.w3.org/2000/svg" xmlns:xlink="http://www.w3.org/1999/xlink">
<g id="graph0" class="graph" transform="scale(1 1) rotate(0) translate(4 287)">
<title>%3</title>
<polygon fill="white" stroke="transparent" points="-4,4 -4,-287 4239.38,-287 4239.38,4 -4,4"/>
<!-- variant as a model of disease association -->
<g id="node1" class="node">
<title>variant as a model of disease association</title>
<ellipse fill="none" stroke="black" cx="2329.19" cy="-265" rx="200.36" ry="18"/>
<text text-anchor="middle" x="2329.19" y="-261.3" font-family="Times,serif" font-size="14.00">variant as a model of disease association</text>
</g>
<!-- variant to disease association -->
<g id="node2" class="node">
<title>variant to disease association</title>
<ellipse fill="none" stroke="black" cx="148.19" cy="-178" rx="148.37" ry="18"/>
<text text-anchor="middle" x="148.19" y="-174.3" font-family="Times,serif" font-size="14.00">variant to disease association</text>
</g>
<!-- variant as a model of disease association&#45;&gt;variant to disease association -->
<g id="edge1" class="edge">
<title>variant as a model of disease association&#45;&gt;variant to disease association</title>
<path fill="none" stroke="black" d="M2131.09,-262.35C1837.95,-259.27 1271.42,-250.83 790.19,-229 574.35,-219.21 520.41,-214.97 305.19,-196 291.45,-194.79 277.05,-193.4 262.78,-191.94"/>
<polygon fill="black" stroke="black" points="262.73,-188.42 252.43,-190.88 262.01,-195.38 262.73,-188.42"/>
<text text-anchor="middle" x="804.19" y="-217.8" font-family="Times,serif" font-size="14.00">is_a</text>
</g>
<!-- model to disease association mixin -->
<g id="node3" class="node">
<title>model to disease association mixin</title>
<ellipse fill="none" stroke="black" cx="486.19" cy="-178" rx="172.47" ry="18"/>
<text text-anchor="middle" x="486.19" y="-174.3" font-family="Times,serif" font-size="14.00">model to disease association mixin</text>
</g>
<!-- variant as a model of disease association&#45;&gt;model to disease association mixin -->
<g id="edge2" class="edge">
<title>variant as a model of disease association&#45;&gt;model to disease association mixin</title>
<path fill="none" stroke="black" d="M2130.25,-262.98C1871.71,-260.69 1406.34,-253.22 1009.19,-229 871.05,-220.58 712.93,-204.57 607.05,-192.93"/>
<polygon fill="black" stroke="black" points="607.29,-189.44 596.97,-191.82 606.52,-196.4 607.29,-189.44"/>
<text text-anchor="middle" x="1025.69" y="-217.8" font-family="Times,serif" font-size="14.00">uses</text>
</g>
<!-- entity to disease association mixin -->
<g id="node4" class="node">
<title>entity to disease association mixin</title>
<ellipse fill="none" stroke="black" cx="847.19" cy="-178" rx="170.87" ry="18"/>
<text text-anchor="middle" x="847.19" y="-174.3" font-family="Times,serif" font-size="14.00">entity to disease association mixin</text>
</g>
<!-- variant as a model of disease association&#45;&gt;entity to disease association mixin -->
<g id="edge3" class="edge">
<title>variant as a model of disease association&#45;&gt;entity to disease association mixin</title>
<path fill="none" stroke="black" d="M2133.11,-261.25C1849.76,-256.75 1339.67,-246.51 1156.19,-229 1080.47,-221.78 995.19,-207.51 933.43,-196.05"/>
<polygon fill="black" stroke="black" points="933.81,-192.56 923.34,-194.17 932.52,-199.45 933.81,-192.56"/>
<text text-anchor="middle" x="1172.69" y="-217.8" font-family="Times,serif" font-size="14.00">uses</text>
</g>
<!-- id -->
<g id="node5" class="node">
<title>id</title>
<ellipse fill="none" stroke="blue" cx="1074.19" cy="-178" rx="38.19" ry="18"/>
<text text-anchor="middle" x="1074.19" y="-174.3" font-family="Times,serif" font-size="14.00">string</text>
</g>
<!-- variant as a model of disease association&#45;&gt;id -->
<g id="edge4" class="edge">
<title>variant as a model of disease association&#45;&gt;id</title>
<path fill="none" stroke="blue" d="M2133.13,-261.28C1877.53,-257.07 1444.44,-247.45 1286.19,-229 1212.34,-220.39 1193.85,-215.79 1122.19,-196 1119.08,-195.14 1115.88,-194.18 1112.68,-193.17"/>
<polygon fill="blue" stroke="blue" points="1113.76,-189.84 1103.17,-190.01 1111.55,-196.48 1113.76,-189.84"/>
<text text-anchor="middle" x="1293.19" y="-217.8" font-family="Times,serif" font-size="14.00">id</text>
</g>
<!-- iri -->
<g id="node6" class="node">
<title>iri</title>
<ellipse fill="none" stroke="blue" cx="1175.19" cy="-178" rx="44.39" ry="18"/>
<text text-anchor="middle" x="1175.19" y="-174.3" font-family="Times,serif" font-size="14.00">iri type</text>
</g>
<!-- variant as a model of disease association&#45;&gt;iri -->
<g id="edge5" class="edge">
<title>variant as a model of disease association&#45;&gt;iri</title>
<path fill="none" stroke="blue" d="M2135.88,-260.24C1905.89,-255.15 1535.77,-244.84 1398.19,-229 1321.73,-220.19 1302.74,-215.12 1228.19,-196 1224.81,-195.13 1221.33,-194.17 1217.84,-193.16"/>
<polygon fill="blue" stroke="blue" points="1218.67,-189.76 1208.09,-190.22 1216.65,-196.46 1218.67,-189.76"/>
<text text-anchor="middle" x="1406.19" y="-217.8" font-family="Times,serif" font-size="14.00">iri</text>
</g>
<!-- name -->
<g id="node7" class="node">
<title>name</title>
<ellipse fill="none" stroke="blue" cx="1294.19" cy="-178" rx="56.59" ry="18"/>
<text text-anchor="middle" x="1294.19" y="-174.3" font-family="Times,serif" font-size="14.00">label type</text>
</g>
<!-- variant as a model of disease association&#45;&gt;name -->
<g id="edge6" class="edge">
<title>variant as a model of disease association&#45;&gt;name</title>
<path fill="none" stroke="blue" d="M2134.69,-260.68C1925.68,-256.27 1607.3,-246.85 1487.19,-229 1436.9,-221.53 1380.79,-206.17 1342.08,-194.44"/>
<polygon fill="blue" stroke="blue" points="1342.73,-190.97 1332.14,-191.39 1340.68,-197.67 1342.73,-190.97"/>
<text text-anchor="middle" x="1507.19" y="-217.8" font-family="Times,serif" font-size="14.00">name</text>
</g>
<!-- description -->
<g id="node8" class="node">
<title>description</title>
<ellipse fill="none" stroke="blue" cx="1444.19" cy="-178" rx="75.29" ry="18"/>
<text text-anchor="middle" x="1444.19" y="-174.3" font-family="Times,serif" font-size="14.00">narrative text</text>
</g>
<!-- variant as a model of disease association&#45;&gt;description -->
<g id="edge7" class="edge">
<title>variant as a model of disease association&#45;&gt;description</title>
<path fill="none" stroke="blue" d="M2132.64,-261.58C1946.82,-258.07 1681.78,-249.54 1580.19,-229 1547.69,-222.43 1512.6,-209.37 1486.2,-198.24"/>
<polygon fill="blue" stroke="blue" points="1487.46,-194.98 1476.89,-194.25 1484.7,-201.41 1487.46,-194.98"/>
<text text-anchor="middle" x="1620.69" y="-217.8" font-family="Times,serif" font-size="14.00">description</text>
</g>
<!-- source -->
<g id="node9" class="node">
<title>source</title>
<ellipse fill="none" stroke="blue" cx="1576.19" cy="-178" rx="38.19" ry="18"/>
<text text-anchor="middle" x="1576.19" y="-174.3" font-family="Times,serif" font-size="14.00">string</text>
</g>
<!-- variant as a model of disease association&#45;&gt;source -->
<g id="edge8" class="edge">
<title>variant as a model of disease association&#45;&gt;source</title>
<path fill="none" stroke="blue" d="M2140.11,-259.06C1990.56,-254.06 1794.36,-244.77 1716.19,-229 1679.64,-221.63 1639.75,-206.65 1611.94,-195"/>
<polygon fill="blue" stroke="blue" points="1613.2,-191.74 1602.63,-191.04 1610.46,-198.18 1613.2,-191.74"/>
<text text-anchor="middle" x="1740.19" y="-217.8" font-family="Times,serif" font-size="14.00">source</text>
</g>
<!-- has attribute -->
<g id="node10" class="node">
<title>has attribute</title>
<ellipse fill="none" stroke="blue" cx="1684.19" cy="-178" rx="51.99" ry="18"/>
<text text-anchor="middle" x="1684.19" y="-174.3" font-family="Times,serif" font-size="14.00">attribute</text>
</g>
<!-- variant as a model of disease association&#45;&gt;has attribute -->
<g id="edge9" class="edge">
<title>variant as a model of disease association&#45;&gt;has attribute</title>
<path fill="none" stroke="blue" d="M2147.84,-257.32C2025.92,-251.74 1876.67,-242.51 1815.19,-229 1783.04,-221.94 1748.3,-208.38 1722.68,-197.17"/>
<polygon fill="blue" stroke="blue" points="1723.89,-193.88 1713.33,-193 1721.04,-200.27 1723.89,-193.88"/>
<text text-anchor="middle" x="1862.19" y="-217.8" font-family="Times,serif" font-size="14.00">has attribute</text>
</g>
<!-- negated -->
<g id="node11" class="node">
<title>negated</title>
<ellipse fill="none" stroke="blue" cx="1801.19" cy="-178" rx="46.59" ry="18"/>
<text text-anchor="middle" x="1801.19" y="-174.3" font-family="Times,serif" font-size="14.00">boolean</text>
</g>
<!-- variant as a model of disease association&#45;&gt;negated -->
<g id="edge10" class="edge">
<title>variant as a model of disease association&#45;&gt;negated</title>
<path fill="none" stroke="blue" d="M2170.23,-254C2109.23,-248.66 2039.16,-240.69 1976.19,-229 1930.52,-220.52 1879.6,-205.29 1844.52,-193.86"/>
<polygon fill="blue" stroke="blue" points="1845.2,-190.41 1834.61,-190.6 1843.01,-197.05 1845.2,-190.41"/>
<text text-anchor="middle" x="2005.19" y="-217.8" font-family="Times,serif" font-size="14.00">negated</text>
</g>
<!-- qualifiers -->
<g id="node12" class="node">
<title>qualifiers</title>
<ellipse fill="none" stroke="blue" cx="1942.19" cy="-178" rx="76.89" ry="18"/>
<text text-anchor="middle" x="1942.19" y="-174.3" font-family="Times,serif" font-size="14.00">ontology class</text>
</g>
<!-- variant as a model of disease association&#45;&gt;qualifiers -->
<g id="edge11" class="edge">
<title>variant as a model of disease association&#45;&gt;qualifiers</title>
<path fill="none" stroke="blue" d="M2204.79,-250.89C2166.16,-245.56 2123.64,-238.39 2085.19,-229 2052.05,-220.91 2015.78,-208.18 1988.06,-197.59"/>
<polygon fill="blue" stroke="blue" points="1989.22,-194.29 1978.63,-193.95 1986.7,-200.82 1989.22,-194.29"/>
<text text-anchor="middle" x="2118.69" y="-217.8" font-family="Times,serif" font-size="14.00">qualifiers</text>
</g>
<!-- publications -->
<g id="node13" class="node">
<title>publications</title>
<ellipse fill="none" stroke="blue" cx="2099.19" cy="-178" rx="62.29" ry="18"/>
<text text-anchor="middle" x="2099.19" y="-174.3" font-family="Times,serif" font-size="14.00">publication</text>
</g>
<!-- variant as a model of disease association&#45;&gt;publications -->
<g id="edge12" class="edge">
<title>variant as a model of disease association&#45;&gt;publications</title>
<path fill="none" stroke="blue" d="M2247.55,-248.48C2226.83,-243.37 2204.88,-236.92 2185.19,-229 2166.44,-221.46 2146.86,-210.36 2131.12,-200.54"/>
<polygon fill="blue" stroke="blue" points="2132.65,-197.36 2122.34,-194.94 2128.89,-203.26 2132.65,-197.36"/>
<text text-anchor="middle" x="2229.19" y="-217.8" font-family="Times,serif" font-size="14.00">publications</text>
</g>
<!-- has evidence -->
<g id="node14" class="node">
<title>has evidence</title>
<ellipse fill="none" stroke="blue" cx="2255.19" cy="-178" rx="75.29" ry="18"/>
<text text-anchor="middle" x="2255.19" y="-174.3" font-family="Times,serif" font-size="14.00">evidence type</text>
</g>
<!-- variant as a model of disease association&#45;&gt;has evidence -->
<g id="edge13" class="edge">
<title>variant as a model of disease association&#45;&gt;has evidence</title>
<path fill="none" stroke="blue" d="M2306.86,-246.9C2300.49,-241.51 2293.76,-235.31 2288.19,-229 2281.61,-221.56 2275.35,-212.72 2270.08,-204.55"/>
<polygon fill="blue" stroke="blue" points="2273.05,-202.69 2264.79,-196.05 2267.11,-206.39 2273.05,-202.69"/>
<text text-anchor="middle" x="2334.69" y="-217.8" font-family="Times,serif" font-size="14.00">has evidence</text>
</g>
<!-- knowledge source -->
<g id="node15" class="node">
<title>knowledge source</title>
<ellipse fill="none" stroke="blue" cx="2457.19" cy="-178" rx="108.58" ry="18"/>
<text text-anchor="middle" x="2457.19" y="-174.3" font-family="Times,serif" font-size="14.00">information resource</text>
</g>
<!-- variant as a model of disease association&#45;&gt;knowledge source -->
<g id="edge14" class="edge">
<title>variant as a model of disease association&#45;&gt;knowledge source</title>
<path fill="none" stroke="blue" d="M2354.51,-247.08C2369.04,-237.38 2387.63,-224.99 2404.19,-214 2410.44,-209.85 2417.12,-205.43 2423.55,-201.18"/>
<polygon fill="blue" stroke="blue" points="2425.68,-203.97 2432.1,-195.54 2421.83,-198.13 2425.68,-203.97"/>
<text text-anchor="middle" x="2468.69" y="-217.8" font-family="Times,serif" font-size="14.00">knowledge source</text>
</g>
<!-- original knowledge source -->
<g id="node16" class="node">
<title>original knowledge source</title>
<ellipse fill="none" stroke="blue" cx="2622.19" cy="-178" rx="38.19" ry="18"/>
<text text-anchor="middle" x="2622.19" y="-174.3" font-family="Times,serif" font-size="14.00">string</text>
</g>
<!-- variant as a model of disease association&#45;&gt;original knowledge source -->
<g id="edge15" class="edge">
<title>variant as a model of disease association&#45;&gt;original knowledge source</title>
<path fill="none" stroke="blue" d="M2453.83,-250.91C2480.57,-245.83 2508.27,-238.78 2533.19,-229 2544.55,-224.54 2545.67,-220.2 2556.19,-214 2566.28,-208.05 2577.47,-201.94 2587.72,-196.52"/>
<polygon fill="blue" stroke="blue" points="2589.58,-199.5 2596.82,-191.77 2586.34,-193.3 2589.58,-199.5"/>
<text text-anchor="middle" x="2650.19" y="-217.8" font-family="Times,serif" font-size="14.00">original knowledge source</text>
</g>
<!-- primary knowledge source -->
<g id="node17" class="node">
<title>primary knowledge source</title>
<ellipse fill="none" stroke="blue" cx="2787.19" cy="-178" rx="108.58" ry="18"/>
<text text-anchor="middle" x="2787.19" y="-174.3" font-family="Times,serif" font-size="14.00">information resource</text>
</g>
<!-- variant as a model of disease association&#45;&gt;primary knowledge source -->
<g id="edge16" class="edge">
<title>variant as a model of disease association&#45;&gt;primary knowledge source</title>
<path fill="none" stroke="blue" d="M2471.57,-252.3C2591.07,-242.44 2742.63,-229.8 2744.19,-229 2755.12,-223.42 2764.43,-213.74 2771.57,-204.38"/>
<polygon fill="blue" stroke="blue" points="2774.58,-206.19 2777.49,-196 2768.86,-202.15 2774.58,-206.19"/>
<text text-anchor="middle" x="2858.19" y="-217.8" font-family="Times,serif" font-size="14.00">primary knowledge source</text>
</g>
<!-- aggregator knowledge source -->
<g id="node18" class="node">
<title>aggregator knowledge source</title>
<ellipse fill="none" stroke="blue" cx="3022.19" cy="-178" rx="108.58" ry="18"/>
<text text-anchor="middle" x="3022.19" y="-174.3" font-family="Times,serif" font-size="14.00">information resource</text>
</g>
<!-- variant as a model of disease association&#45;&gt;aggregator knowledge source -->
<g id="edge17" class="edge">
<title>variant as a model of disease association&#45;&gt;aggregator knowledge source</title>
<path fill="none" stroke="blue" d="M2468.07,-252.01C2491.79,-250.18 2516.19,-248.43 2539.19,-247 2585.59,-244.12 2913.51,-244.91 2957.19,-229 2961.54,-227.41 2978.3,-214.49 2993.71,-202.18"/>
<polygon fill="blue" stroke="blue" points="2995.97,-204.86 3001.57,-195.86 2991.58,-199.4 2995.97,-204.86"/>
<text text-anchor="middle" x="3085.69" y="-217.8" font-family="Times,serif" font-size="14.00">aggregator knowledge source</text>
</g>
<!-- timepoint -->
<g id="node19" class="node">
<title>timepoint</title>
<ellipse fill="none" stroke="blue" cx="3204.19" cy="-178" rx="55.49" ry="18"/>
<text text-anchor="middle" x="3204.19" y="-174.3" font-family="Times,serif" font-size="14.00">time type</text>
</g>
<!-- variant as a model of disease association&#45;&gt;timepoint -->
<g id="edge18" class="edge">
<title>variant as a model of disease association&#45;&gt;timepoint</title>
<path fill="none" stroke="blue" d="M2466.08,-251.86C2490.42,-250 2515.54,-248.28 2539.19,-247 2575.48,-245.03 3165.17,-252.16 3193.19,-229 3199.91,-223.44 3203.09,-214.8 3204.46,-206.26"/>
<polygon fill="blue" stroke="blue" points="3207.97,-206.36 3205.36,-196.09 3201,-205.75 3207.97,-206.36"/>
<text text-anchor="middle" x="3238.19" y="-217.8" font-family="Times,serif" font-size="14.00">timepoint</text>
</g>
<!-- type -->
<g id="node20" class="node">
<title>type</title>
<ellipse fill="none" stroke="black" cx="3308.19" cy="-178" rx="31.4" ry="18"/>
<text text-anchor="middle" x="3308.19" y="-174.3" font-family="Times,serif" font-size="14.00">type</text>
</g>
<!-- variant as a model of disease association&#45;&gt;type -->
<g id="edge19" class="edge">
<title>variant as a model of disease association&#45;&gt;type</title>
<path fill="none" stroke="blue" d="M2465.8,-251.82C2490.22,-249.96 2515.44,-248.25 2539.19,-247 2580.14,-244.84 3241.6,-249.38 3277.19,-229 3286.4,-223.73 3293.24,-214.5 3298.11,-205.39"/>
<polygon fill="blue" stroke="blue" points="3301.39,-206.65 3302.5,-196.12 3295.06,-203.66 3301.39,-206.65"/>
<text text-anchor="middle" x="3308.19" y="-217.8" font-family="Times,serif" font-size="14.00">type</text>
</g>
<!-- category -->
<g id="node22" class="node">
<title>category</title>
<ellipse fill="none" stroke="black" cx="3409.19" cy="-178" rx="51.19" ry="18"/>
<text text-anchor="middle" x="3409.19" y="-174.3" font-family="Times,serif" font-size="14.00">category</text>
</g>
<!-- variant as a model of disease association&#45;&gt;category -->
<g id="edge20" class="edge">
<title>variant as a model of disease association&#45;&gt;category</title>
<path fill="none" stroke="blue" d="M2465.51,-251.81C2490.02,-249.95 2515.35,-248.24 2539.19,-247 2626.76,-242.46 3244.11,-253.9 3328.19,-229 3347.53,-223.27 3366.84,-211.64 3381.75,-201.04"/>
<polygon fill="blue" stroke="blue" points="3384.01,-203.72 3389.99,-194.97 3379.86,-198.08 3384.01,-203.72"/>
<text text-anchor="middle" x="3393.69" y="-217.8" font-family="Times,serif" font-size="14.00">category</text>
</g>
<!-- predicate -->
<g id="node24" class="node">
<title>predicate</title>
<ellipse fill="none" stroke="black" cx="3533.19" cy="-178" rx="54.69" ry="18"/>
<text text-anchor="middle" x="3533.19" y="-174.3" font-family="Times,serif" font-size="14.00">predicate</text>
</g>
<!-- variant as a model of disease association&#45;&gt;predicate -->
<g id="edge21" class="edge">
<title>variant as a model of disease association&#45;&gt;predicate</title>
<path fill="none" stroke="blue" d="M2465.23,-251.78C2489.83,-249.91 2515.26,-248.21 2539.19,-247 2637.97,-242.01 3332.98,-251.95 3429.19,-229 3454.25,-223.02 3480.39,-210.43 3500.19,-199.37"/>
<polygon fill="blue" stroke="blue" points="3502.15,-202.28 3509.09,-194.27 3498.67,-196.21 3502.15,-202.28"/>
<text text-anchor="middle" x="3505.19" y="-217.8" font-family="Times,serif" font-size="14.00">predicate</text>
</g>
<!-- object -->
<g id="node26" class="node">
<title>object</title>
<ellipse fill="none" stroke="black" cx="4120.19" cy="-91" rx="38.99" ry="18"/>
<text text-anchor="middle" x="4120.19" y="-87.3" font-family="Times,serif" font-size="14.00">object</text>
</g>
<!-- variant as a model of disease association&#45;&gt;object -->
<g id="edge22" class="edge">
<title>variant as a model of disease association&#45;&gt;object</title>
<path fill="none" stroke="blue" d="M2464.95,-251.75C2489.63,-249.88 2515.17,-248.19 2539.19,-247 2594.91,-244.25 3489.62,-244.59 3543.19,-229 3570.19,-221.14 3575.09,-213.4 3597.19,-196 3614.97,-182 3612.93,-170.09 3633.19,-160 3709.54,-121.97 3963.47,-101.88 4071.19,-94.89"/>
<polygon fill="blue" stroke="blue" points="4071.7,-98.37 4081.45,-94.24 4071.25,-91.38 4071.7,-98.37"/>
<text text-anchor="middle" x="3655.19" y="-174.3" font-family="Times,serif" font-size="14.00">object</text>
</g>
<!-- frequency qualifier -->
<g id="node28" class="node">
<title>frequency qualifier</title>
<ellipse fill="none" stroke="blue" cx="3771.19" cy="-178" rx="85.29" ry="18"/>
<text text-anchor="middle" x="3771.19" y="-174.3" font-family="Times,serif" font-size="14.00">frequency value</text>
</g>
<!-- variant as a model of disease association&#45;&gt;frequency qualifier -->
<g id="edge23" class="edge">
<title>variant as a model of disease association&#45;&gt;frequency qualifier</title>
<path fill="none" stroke="blue" d="M2464.66,-251.74C2489.44,-249.87 2515.07,-248.17 2539.19,-247 2661.17,-241.07 3518.21,-251.82 3638.19,-229 3669.88,-222.97 3703.91,-210.05 3729.61,-198.86"/>
<polygon fill="blue" stroke="blue" points="3731.31,-201.93 3739.03,-194.67 3728.47,-195.53 3731.31,-201.93"/>
<text text-anchor="middle" x="3759.19" y="-217.8" font-family="Times,serif" font-size="14.00">frequency qualifier</text>
</g>
<!-- severity qualifier -->
<g id="node29" class="node">
<title>severity qualifier</title>
<ellipse fill="none" stroke="blue" cx="3950.19" cy="-178" rx="76.09" ry="18"/>
<text text-anchor="middle" x="3950.19" y="-174.3" font-family="Times,serif" font-size="14.00">severity value</text>
</g>
<!-- variant as a model of disease association&#45;&gt;severity qualifier -->
<g id="edge24" class="edge">
<title>variant as a model of disease association&#45;&gt;severity qualifier</title>
<path fill="none" stroke="blue" d="M2464.38,-251.72C2489.24,-249.84 2514.98,-248.15 2539.19,-247 2682.6,-240.2 3690.65,-258.35 3831.19,-229 3859.53,-223.08 3889.57,-210.4 3912.38,-199.29"/>
<polygon fill="blue" stroke="blue" points="3913.99,-202.4 3921.38,-194.81 3910.86,-196.14 3913.99,-202.4"/>
<text text-anchor="middle" x="3940.19" y="-217.8" font-family="Times,serif" font-size="14.00">severity qualifier</text>
</g>
<!-- onset qualifier -->
<g id="node30" class="node">
<title>onset qualifier</title>
<ellipse fill="none" stroke="blue" cx="4080.19" cy="-178" rx="36.29" ry="18"/>
<text text-anchor="middle" x="4080.19" y="-174.3" font-family="Times,serif" font-size="14.00">onset</text>
</g>
<!-- variant as a model of disease association&#45;&gt;onset qualifier -->
<g id="edge25" class="edge">
<title>variant as a model of disease association&#45;&gt;onset qualifier</title>
<path fill="none" stroke="blue" d="M2464.38,-251.68C2489.24,-249.81 2514.98,-248.13 2539.19,-247 2620.55,-243.21 3927.38,-253.08 4005.19,-229 4023.63,-223.29 4041.72,-211.47 4055.51,-200.75"/>
<polygon fill="blue" stroke="blue" points="4057.93,-203.3 4063.51,-194.29 4053.53,-197.86 4057.93,-203.3"/>
<text text-anchor="middle" x="4087.69" y="-217.8" font-family="Times,serif" font-size="14.00">onset qualifier</text>
</g>
<!-- subject -->
<g id="node31" class="node">
<title>subject</title>
<ellipse fill="none" stroke="black" cx="4191.19" cy="-178" rx="44.39" ry="18"/>
<text text-anchor="middle" x="4191.19" y="-174.3" font-family="Times,serif" font-size="14.00">subject</text>
</g>
<!-- variant as a model of disease association&#45;&gt;subject -->
<g id="edge26" class="edge">
<title>variant as a model of disease association&#45;&gt;subject</title>
<path fill="none" stroke="blue" d="M2464.09,-251.68C2489.04,-249.8 2514.89,-248.12 2539.19,-247 2583.7,-244.95 4102.3,-246.7 4143.19,-229 4155.44,-223.7 4166.08,-213.6 4174.22,-203.86"/>
<polygon fill="blue" stroke="blue" points="4177.05,-205.92 4180.44,-195.88 4171.53,-201.61 4177.05,-205.92"/>
<text text-anchor="middle" x="4190.19" y="-217.8" font-family="Times,serif" font-size="14.00">subject</text>
</g>
<!-- association_type -->
<g id="node21" class="node">
<title>association_type</title>
<ellipse fill="none" stroke="blue" cx="2586.19" cy="-265" rx="38.19" ry="18"/>
<text text-anchor="middle" x="2586.19" y="-261.3" font-family="Times,serif" font-size="14.00">string</text>
</g>
<!-- association_category -->
<g id="node23" class="node">
<title>association_category</title>
<ellipse fill="none" stroke="blue" cx="2717.19" cy="-265" rx="74.99" ry="18"/>
<text text-anchor="middle" x="2717.19" y="-261.3" font-family="Times,serif" font-size="14.00">category type</text>
</g>
<!-- variant to disease association_predicate -->
<g id="node25" class="node">
<title>variant to disease association_predicate</title>
<ellipse fill="none" stroke="blue" cx="2888.19" cy="-265" rx="77.99" ry="18"/>
<text text-anchor="middle" x="2888.19" y="-261.3" font-family="Times,serif" font-size="14.00">predicate type</text>
</g>
<!-- relation -->
<g id="node33" class="node">
<title>relation</title>
<ellipse fill="none" stroke="black" cx="4155.19" cy="-18" rx="46.59" ry="18"/>
<text text-anchor="middle" x="4155.19" y="-14.3" font-family="Times,serif" font-size="14.00">relation</text>
</g>
<!-- object&#45;&gt;relation -->
<g id="edge29" class="edge">
<title>object&#45;&gt;relation</title>
<path fill="none" stroke="black" stroke-dasharray="1,5" d="M4128.48,-73.17C4132.56,-64.9 4137.58,-54.72 4142.15,-45.44"/>
<polygon fill="black" stroke="black" points="4145.43,-46.72 4146.71,-36.2 4139.15,-43.62 4145.43,-46.72"/>
</g>
<!-- variant to disease association_object -->
<g id="node27" class="node">
<title>variant to disease association_object</title>
<ellipse fill="none" stroke="blue" cx="3054.19" cy="-265" rx="69.59" ry="18"/>
<text text-anchor="middle" x="3054.19" y="-261.3" font-family="Times,serif" font-size="14.00">named thing</text>
</g>
<!-- subject&#45;&gt;object -->
<g id="edge27" class="edge">
<title>subject&#45;&gt;object</title>
<path fill="none" stroke="black" d="M4154.81,-167.42C4141.95,-162.12 4128.81,-154.06 4121.19,-142 4116.93,-135.26 4115.6,-126.93 4115.64,-119.01"/>
<polygon fill="black" stroke="black" points="4119.13,-119.23 4116.35,-109.01 4112.15,-118.73 4119.13,-119.23"/>
<text text-anchor="middle" x="4149.19" y="-130.8" font-family="Times,serif" font-size="14.00">relation</text>
</g>
<!-- subject&#45;&gt;relation -->
<g id="edge28" class="edge">
<title>subject&#45;&gt;relation</title>
<path fill="none" stroke="black" stroke-dasharray="1,5" d="M4187.54,-160.05C4183.08,-139.44 4175.26,-103.63 4168.19,-73 4166.15,-64.18 4163.86,-54.57 4161.78,-45.94"/>
<polygon fill="black" stroke="black" points="4165.13,-44.9 4159.37,-36.01 4158.32,-46.55 4165.13,-44.9"/>
</g>
<!-- variant as a model of disease association_subject -->
<g id="node32" class="node">
<title>variant as a model of disease association_subject</title>
<ellipse fill="none" stroke="blue" cx="3232.19" cy="-265" rx="90.18" ry="18"/>
<text text-anchor="middle" x="3232.19" y="-261.3" font-family="Times,serif" font-size="14.00">sequence variant</text>
</g>
</g>
</svg>
