<?xml version="1.0" encoding="UTF-8" standalone="no"?>
<!DOCTYPE svg PUBLIC "-//W3C//DTD SVG 1.1//EN"
 "http://www.w3.org/Graphics/SVG/1.1/DTD/svg11.dtd">
<!-- Generated by graphviz version 2.43.0 (0)
 -->
<!-- Title: %3 Pages: 1 -->
<svg width="4627pt" height="291pt"
 viewBox="0.00 0.00 4626.54 291.00" xmlns="http://www.w3.org/2000/svg" xmlns:xlink="http://www.w3.org/1999/xlink">
<g id="graph0" class="graph" transform="scale(1 1) rotate(0) translate(4 287)">
<title>%3</title>
<polygon fill="white" stroke="transparent" points="-4,4 -4,-287 4622.54,-287 4622.54,4 -4,4"/>
<!-- variant to population association -->
<g id="node1" class="node">
<title>variant to population association</title>
<ellipse fill="none" stroke="black" cx="2584.39" cy="-265" rx="163.27" ry="18"/>
<text text-anchor="middle" x="2584.39" y="-261.3" font-family="Times,serif" font-size="14.00">variant to population association</text>
</g>
<!-- association -->
<g id="node2" class="node">
<title>association</title>
<ellipse fill="none" stroke="black" cx="62.39" cy="-178" rx="62.29" ry="18"/>
<text text-anchor="middle" x="62.39" y="-174.3" font-family="Times,serif" font-size="14.00">association</text>
</g>
<!-- variant to population association&#45;&gt;association -->
<g id="edge1" class="edge">
<title>variant to population association&#45;&gt;association</title>
<path fill="none" stroke="black" d="M2421.39,-264.07C2081.9,-263.57 1274.26,-259.01 597.39,-229 390.85,-219.84 337.72,-227.51 133.39,-196 127.91,-195.15 122.23,-194.1 116.58,-192.94"/>
<polygon fill="black" stroke="black" points="117,-189.45 106.49,-190.74 115.51,-196.29 117,-189.45"/>
<text text-anchor="middle" x="611.39" y="-217.8" font-family="Times,serif" font-size="14.00">is_a</text>
</g>
<!-- variant to entity association mixin -->
<g id="node3" class="node">
<title>variant to entity association mixin</title>
<ellipse fill="none" stroke="black" cx="312.39" cy="-178" rx="169.77" ry="18"/>
<text text-anchor="middle" x="312.39" y="-174.3" font-family="Times,serif" font-size="14.00">variant to entity association mixin</text>
</g>
<!-- variant to population association&#45;&gt;variant to entity association mixin -->
<g id="edge2" class="edge">
<title>variant to population association&#45;&gt;variant to entity association mixin</title>
<path fill="none" stroke="black" d="M2422.59,-262.5C2045.57,-258.75 1117.02,-247.84 805.39,-229 675.67,-221.16 527.38,-205.16 427.61,-193.36"/>
<polygon fill="black" stroke="black" points="427.84,-189.87 417.5,-192.16 427.02,-196.82 427.84,-189.87"/>
<text text-anchor="middle" x="821.89" y="-217.8" font-family="Times,serif" font-size="14.00">uses</text>
</g>
<!-- frequency quantifier -->
<g id="node4" class="node">
<title>frequency quantifier</title>
<ellipse fill="none" stroke="black" cx="605.39" cy="-178" rx="105.08" ry="18"/>
<text text-anchor="middle" x="605.39" y="-174.3" font-family="Times,serif" font-size="14.00">frequency quantifier</text>
</g>
<!-- variant to population association&#45;&gt;frequency quantifier -->
<g id="edge3" class="edge">
<title>variant to population association&#45;&gt;frequency quantifier</title>
<path fill="none" stroke="black" d="M2422.71,-262.5C2074.9,-258.93 1264.93,-248.74 990.39,-229 886,-221.49 766.61,-204.7 688.81,-192.64"/>
<polygon fill="black" stroke="black" points="689.01,-189.13 678.59,-191.05 687.93,-196.05 689.01,-189.13"/>
<text text-anchor="middle" x="1006.89" y="-217.8" font-family="Times,serif" font-size="14.00">uses</text>
</g>
<!-- frequency qualifier mixin -->
<g id="node5" class="node">
<title>frequency qualifier mixin</title>
<ellipse fill="none" stroke="black" cx="856.39" cy="-178" rx="127.28" ry="18"/>
<text text-anchor="middle" x="856.39" y="-174.3" font-family="Times,serif" font-size="14.00">frequency qualifier mixin</text>
</g>
<!-- variant to population association&#45;&gt;frequency qualifier mixin -->
<g id="edge4" class="edge">
<title>variant to population association&#45;&gt;frequency qualifier mixin</title>
<path fill="none" stroke="black" d="M2421.58,-263.42C2094.92,-261.72 1369.76,-255.04 1122.39,-229 1056.32,-222.05 982.09,-207.52 928.87,-195.91"/>
<polygon fill="black" stroke="black" points="929.37,-192.44 918.85,-193.7 927.87,-199.27 929.37,-192.44"/>
<text text-anchor="middle" x="1138.89" y="-217.8" font-family="Times,serif" font-size="14.00">uses</text>
</g>
<!-- id -->
<g id="node6" class="node">
<title>id</title>
<ellipse fill="none" stroke="blue" cx="1040.39" cy="-178" rx="38.19" ry="18"/>
<text text-anchor="middle" x="1040.39" y="-174.3" font-family="Times,serif" font-size="14.00">string</text>
</g>
<!-- variant to population association&#45;&gt;id -->
<g id="edge5" class="edge">
<title>variant to population association&#45;&gt;id</title>
<path fill="none" stroke="blue" d="M2421.93,-263.2C2118.17,-261.14 1474.92,-253.88 1253.39,-229 1179.08,-220.65 1160.49,-215.87 1088.39,-196 1085.28,-195.14 1082.08,-194.18 1078.88,-193.17"/>
<polygon fill="blue" stroke="blue" points="1079.97,-189.84 1069.37,-190.01 1077.76,-196.49 1079.97,-189.84"/>
<text text-anchor="middle" x="1260.39" y="-217.8" font-family="Times,serif" font-size="14.00">id</text>
</g>
<!-- iri -->
<g id="node7" class="node">
<title>iri</title>
<ellipse fill="none" stroke="blue" cx="1141.39" cy="-178" rx="44.39" ry="18"/>
<text text-anchor="middle" x="1141.39" y="-174.3" font-family="Times,serif" font-size="14.00">iri type</text>
</g>
<!-- variant to population association&#45;&gt;iri -->
<g id="edge6" class="edge">
<title>variant to population association&#45;&gt;iri</title>
<path fill="none" stroke="blue" d="M2422.8,-262.43C2141.05,-259.17 1570.99,-250.15 1372.39,-229 1292.39,-220.48 1272.41,-215.66 1194.39,-196 1190.96,-195.14 1187.43,-194.17 1183.89,-193.15"/>
<polygon fill="blue" stroke="blue" points="1184.59,-189.71 1174,-190.18 1182.57,-196.41 1184.59,-189.71"/>
<text text-anchor="middle" x="1380.39" y="-217.8" font-family="Times,serif" font-size="14.00">iri</text>
</g>
<!-- name -->
<g id="node8" class="node">
<title>name</title>
<ellipse fill="none" stroke="blue" cx="1260.39" cy="-178" rx="56.59" ry="18"/>
<text text-anchor="middle" x="1260.39" y="-174.3" font-family="Times,serif" font-size="14.00">label type</text>
</g>
<!-- variant to population association&#45;&gt;name -->
<g id="edge7" class="edge">
<title>variant to population association&#45;&gt;name</title>
<path fill="none" stroke="blue" d="M2422.71,-262.6C2160.41,-259.71 1653.57,-251.34 1475.39,-229 1417.89,-221.79 1353.3,-205.65 1310.06,-193.65"/>
<polygon fill="blue" stroke="blue" points="1310.94,-190.26 1300.36,-190.92 1309.04,-197 1310.94,-190.26"/>
<text text-anchor="middle" x="1495.39" y="-217.8" font-family="Times,serif" font-size="14.00">name</text>
</g>
<!-- description -->
<g id="node9" class="node">
<title>description</title>
<ellipse fill="none" stroke="blue" cx="1410.39" cy="-178" rx="75.29" ry="18"/>
<text text-anchor="middle" x="1410.39" y="-174.3" font-family="Times,serif" font-size="14.00">narrative text</text>
</g>
<!-- variant to population association&#45;&gt;description -->
<g id="edge8" class="edge">
<title>variant to population association&#45;&gt;description</title>
<path fill="none" stroke="blue" d="M2421.66,-263.24C2180.05,-261.28 1738.15,-254.24 1581.39,-229 1539.29,-222.22 1492.93,-208.24 1459.12,-196.78"/>
<polygon fill="blue" stroke="blue" points="1460.08,-193.41 1449.49,-193.47 1457.81,-200.03 1460.08,-193.41"/>
<text text-anchor="middle" x="1621.89" y="-217.8" font-family="Times,serif" font-size="14.00">description</text>
</g>
<!-- has attribute -->
<g id="node10" class="node">
<title>has attribute</title>
<ellipse fill="none" stroke="blue" cx="1555.39" cy="-178" rx="51.99" ry="18"/>
<text text-anchor="middle" x="1555.39" y="-174.3" font-family="Times,serif" font-size="14.00">attribute</text>
</g>
<!-- variant to population association&#45;&gt;has attribute -->
<g id="edge9" class="edge">
<title>variant to population association&#45;&gt;has attribute</title>
<path fill="none" stroke="blue" d="M2423.45,-261.99C2213.67,-258.58 1858.36,-249.86 1729.39,-229 1684.35,-221.71 1634.44,-206.61 1599.67,-194.9"/>
<polygon fill="blue" stroke="blue" points="1600.43,-191.46 1589.83,-191.55 1598.16,-198.09 1600.43,-191.46"/>
<text text-anchor="middle" x="1776.39" y="-217.8" font-family="Times,serif" font-size="14.00">has attribute</text>
</g>
<!-- predicate -->
<g id="node11" class="node">
<title>predicate</title>
<ellipse fill="none" stroke="blue" cx="1703.39" cy="-178" rx="77.99" ry="18"/>
<text text-anchor="middle" x="1703.39" y="-174.3" font-family="Times,serif" font-size="14.00">predicate type</text>
</g>
<!-- variant to population association&#45;&gt;predicate -->
<g id="edge10" class="edge">
<title>variant to population association&#45;&gt;predicate</title>
<path fill="none" stroke="blue" d="M2428.16,-259.73C2257.42,-254.4 1995.03,-244.13 1896.39,-229 1848.5,-221.66 1795.27,-207.39 1756.87,-195.97"/>
<polygon fill="blue" stroke="blue" points="1757.53,-192.52 1746.94,-192.99 1755.51,-199.22 1757.53,-192.52"/>
<text text-anchor="middle" x="1930.39" y="-217.8" font-family="Times,serif" font-size="14.00">predicate</text>
</g>
<!-- negated -->
<g id="node12" class="node">
<title>negated</title>
<ellipse fill="none" stroke="blue" cx="1846.39" cy="-178" rx="46.59" ry="18"/>
<text text-anchor="middle" x="1846.39" y="-174.3" font-family="Times,serif" font-size="14.00">boolean</text>
</g>
<!-- variant to population association&#45;&gt;negated -->
<g id="edge11" class="edge">
<title>variant to population association&#45;&gt;negated</title>
<path fill="none" stroke="blue" d="M2425.03,-261.11C2315.49,-257.35 2166.99,-248.71 2037.39,-229 1986.22,-221.22 1928.96,-205.22 1890.6,-193.4"/>
<polygon fill="blue" stroke="blue" points="1891.38,-189.98 1880.79,-190.35 1889.29,-196.66 1891.38,-189.98"/>
<text text-anchor="middle" x="2066.39" y="-217.8" font-family="Times,serif" font-size="14.00">negated</text>
</g>
<!-- qualifiers -->
<g id="node13" class="node">
<title>qualifiers</title>
<ellipse fill="none" stroke="blue" cx="1987.39" cy="-178" rx="76.89" ry="18"/>
<text text-anchor="middle" x="1987.39" y="-174.3" font-family="Times,serif" font-size="14.00">ontology class</text>
</g>
<!-- variant to population association&#45;&gt;qualifiers -->
<g id="edge12" class="edge">
<title>variant to population association&#45;&gt;qualifiers</title>
<path fill="none" stroke="blue" d="M2431.71,-258.64C2350.86,-253.98 2250.19,-245.27 2161.39,-229 2119.19,-221.27 2072.51,-207.56 2038.14,-196.45"/>
<polygon fill="blue" stroke="blue" points="2038.93,-193.03 2028.33,-193.25 2036.75,-199.68 2038.93,-193.03"/>
<text text-anchor="middle" x="2194.89" y="-217.8" font-family="Times,serif" font-size="14.00">qualifiers</text>
</g>
<!-- publications -->
<g id="node14" class="node">
<title>publications</title>
<ellipse fill="none" stroke="blue" cx="2144.39" cy="-178" rx="62.29" ry="18"/>
<text text-anchor="middle" x="2144.39" y="-174.3" font-family="Times,serif" font-size="14.00">publication</text>
</g>
<!-- variant to population association&#45;&gt;publications -->
<g id="edge13" class="edge">
<title>variant to population association&#45;&gt;publications</title>
<path fill="none" stroke="blue" d="M2448.31,-254.99C2395.97,-249.77 2335.95,-241.62 2282.39,-229 2249.48,-221.24 2213.61,-208.09 2186.69,-197.22"/>
<polygon fill="blue" stroke="blue" points="2187.78,-193.89 2177.2,-193.34 2185.13,-200.37 2187.78,-193.89"/>
<text text-anchor="middle" x="2326.39" y="-217.8" font-family="Times,serif" font-size="14.00">publications</text>
</g>
<!-- has evidence -->
<g id="node15" class="node">
<title>has evidence</title>
<ellipse fill="none" stroke="blue" cx="2300.39" cy="-178" rx="75.29" ry="18"/>
<text text-anchor="middle" x="2300.39" y="-174.3" font-family="Times,serif" font-size="14.00">evidence type</text>
</g>
<!-- variant to population association&#45;&gt;has evidence -->
<g id="edge14" class="edge">
<title>variant to population association&#45;&gt;has evidence</title>
<path fill="none" stroke="blue" d="M2494.96,-249.86C2467.8,-244.51 2438.08,-237.59 2411.39,-229 2386.79,-221.08 2360.37,-209.32 2339.48,-199.19"/>
<polygon fill="blue" stroke="blue" points="2340.81,-195.95 2330.29,-194.68 2337.72,-202.23 2340.81,-195.95"/>
<text text-anchor="middle" x="2457.89" y="-217.8" font-family="Times,serif" font-size="14.00">has evidence</text>
</g>
<!-- knowledge source -->
<g id="node16" class="node">
<title>knowledge source</title>
<ellipse fill="none" stroke="blue" cx="2502.39" cy="-178" rx="108.58" ry="18"/>
<text text-anchor="middle" x="2502.39" y="-174.3" font-family="Times,serif" font-size="14.00">information resource</text>
</g>
<!-- variant to population association&#45;&gt;knowledge source -->
<g id="edge15" class="edge">
<title>variant to population association&#45;&gt;knowledge source</title>
<path fill="none" stroke="blue" d="M2539.57,-247.63C2530.91,-242.75 2522.6,-236.61 2516.39,-229 2511.11,-222.52 2507.81,-214.16 2505.76,-206.15"/>
<polygon fill="blue" stroke="blue" points="2509.19,-205.44 2503.77,-196.34 2502.33,-206.83 2509.19,-205.44"/>
<text text-anchor="middle" x="2580.89" y="-217.8" font-family="Times,serif" font-size="14.00">knowledge source</text>
</g>
<!-- primary knowledge source -->
<g id="node17" class="node">
<title>primary knowledge source</title>
<ellipse fill="none" stroke="blue" cx="2737.39" cy="-178" rx="108.58" ry="18"/>
<text text-anchor="middle" x="2737.39" y="-174.3" font-family="Times,serif" font-size="14.00">information resource</text>
</g>
<!-- variant to population association&#45;&gt;primary knowledge source -->
<g id="edge16" class="edge">
<title>variant to population association&#45;&gt;primary knowledge source</title>
<path fill="none" stroke="blue" d="M2614.38,-247.25C2624.32,-241.57 2635.4,-235.12 2645.39,-229 2655.8,-222.63 2657.83,-220.1 2668.39,-214 2676.77,-209.16 2685.89,-204.28 2694.68,-199.76"/>
<polygon fill="blue" stroke="blue" points="2696.33,-202.84 2703.66,-195.19 2693.16,-196.6 2696.33,-202.84"/>
<text text-anchor="middle" x="2763.39" y="-217.8" font-family="Times,serif" font-size="14.00">primary knowledge source</text>
</g>
<!-- aggregator knowledge source -->
<g id="node18" class="node">
<title>aggregator knowledge source</title>
<ellipse fill="none" stroke="blue" cx="2972.39" cy="-178" rx="108.58" ry="18"/>
<text text-anchor="middle" x="2972.39" y="-174.3" font-family="Times,serif" font-size="14.00">information resource</text>
</g>
<!-- variant to population association&#45;&gt;aggregator knowledge source -->
<g id="edge17" class="edge">
<title>variant to population association&#45;&gt;aggregator knowledge source</title>
<path fill="none" stroke="blue" d="M2697.35,-251.98C2765.87,-244.26 2843.01,-234.66 2858.39,-229 2869.85,-224.79 2870.53,-219.55 2881.39,-214 2892.69,-208.22 2905.18,-202.83 2917.18,-198.09"/>
<polygon fill="blue" stroke="blue" points="2918.6,-201.29 2926.68,-194.43 2916.09,-194.76 2918.6,-201.29"/>
<text text-anchor="middle" x="2987.89" y="-217.8" font-family="Times,serif" font-size="14.00">aggregator knowledge source</text>
</g>
<!-- timepoint -->
<g id="node19" class="node">
<title>timepoint</title>
<ellipse fill="none" stroke="blue" cx="3154.39" cy="-178" rx="55.49" ry="18"/>
<text text-anchor="middle" x="3154.39" y="-174.3" font-family="Times,serif" font-size="14.00">time type</text>
</g>
<!-- variant to population association&#45;&gt;timepoint -->
<g id="edge18" class="edge">
<title>variant to population association&#45;&gt;timepoint</title>
<path fill="none" stroke="blue" d="M2698.13,-252.02C2717.56,-250.19 2737.54,-248.43 2756.39,-247 2831.4,-241.3 3024.38,-256.48 3094.39,-229 3102.34,-225.88 3116.98,-213.74 3129.81,-202.21"/>
<polygon fill="blue" stroke="blue" points="3132.46,-204.52 3137.48,-195.19 3127.74,-199.35 3132.46,-204.52"/>
<text text-anchor="middle" x="3151.39" y="-217.8" font-family="Times,serif" font-size="14.00">timepoint</text>
</g>
<!-- original subject -->
<g id="node20" class="node">
<title>original subject</title>
<ellipse fill="none" stroke="blue" cx="3266.39" cy="-178" rx="38.19" ry="18"/>
<text text-anchor="middle" x="3266.39" y="-174.3" font-family="Times,serif" font-size="14.00">string</text>
</g>
<!-- variant to population association&#45;&gt;original subject -->
<g id="edge19" class="edge">
<title>variant to population association&#45;&gt;original subject</title>
<path fill="none" stroke="blue" d="M2697.19,-251.93C2716.91,-250.08 2737.24,-248.35 2756.39,-247 2852.02,-240.28 3096.1,-258.23 3187.39,-229 3199.02,-225.28 3200.11,-220.57 3210.39,-214 3218.56,-208.79 3227.43,-203.21 3235.65,-198.07"/>
<polygon fill="blue" stroke="blue" points="3237.62,-200.96 3244.26,-192.7 3233.92,-195.02 3237.62,-200.96"/>
<text text-anchor="middle" x="3266.39" y="-217.8" font-family="Times,serif" font-size="14.00">original subject</text>
</g>
<!-- original predicate -->
<g id="node21" class="node">
<title>original predicate</title>
<ellipse fill="none" stroke="blue" cx="3380.39" cy="-178" rx="57.39" ry="18"/>
<text text-anchor="middle" x="3380.39" y="-174.3" font-family="Times,serif" font-size="14.00">uriorcurie</text>
</g>
<!-- variant to population association&#45;&gt;original predicate -->
<g id="edge20" class="edge">
<title>variant to population association&#45;&gt;original predicate</title>
<path fill="none" stroke="blue" d="M2696.26,-251.85C2716.26,-249.99 2736.93,-248.27 2756.39,-247 2819.18,-242.9 3263.77,-251.85 3322.39,-229 3330.14,-225.98 3344.16,-213.98 3356.47,-202.5"/>
<polygon fill="blue" stroke="blue" points="3359,-204.92 3363.85,-195.49 3354.18,-199.84 3359,-204.92"/>
<text text-anchor="middle" x="3407.89" y="-217.8" font-family="Times,serif" font-size="14.00">original predicate</text>
</g>
<!-- original object -->
<g id="node22" class="node">
<title>original object</title>
<ellipse fill="none" stroke="blue" cx="3494.39" cy="-178" rx="38.19" ry="18"/>
<text text-anchor="middle" x="3494.39" y="-174.3" font-family="Times,serif" font-size="14.00">string</text>
</g>
<!-- variant to population association&#45;&gt;original object -->
<g id="edge21" class="edge">
<title>variant to population association&#45;&gt;original object</title>
<path fill="none" stroke="blue" d="M2695.79,-251.79C2715.94,-249.92 2736.78,-248.21 2756.39,-247 2796.11,-244.54 3439.35,-251.16 3472.39,-229 3480.29,-223.7 3485.38,-214.89 3488.64,-206.12"/>
<polygon fill="blue" stroke="blue" points="3492.03,-207.02 3491.61,-196.43 3485.34,-204.97 3492.03,-207.02"/>
<text text-anchor="middle" x="3536.89" y="-217.8" font-family="Times,serif" font-size="14.00">original object</text>
</g>
<!-- type -->
<g id="node23" class="node">
<title>type</title>
<ellipse fill="none" stroke="black" cx="3582.39" cy="-178" rx="31.4" ry="18"/>
<text text-anchor="middle" x="3582.39" y="-174.3" font-family="Times,serif" font-size="14.00">type</text>
</g>
<!-- variant to population association&#45;&gt;type -->
<g id="edge22" class="edge">
<title>variant to population association&#45;&gt;type</title>
<path fill="none" stroke="blue" d="M2695.32,-251.77C2715.62,-249.89 2736.63,-248.19 2756.39,-247 2779.58,-245.61 3576.15,-245.6 3592.39,-229 3598.6,-222.66 3598.41,-213.61 3595.89,-204.96"/>
<polygon fill="blue" stroke="blue" points="3599.11,-203.59 3592.26,-195.51 3592.58,-206.1 3599.11,-203.59"/>
<text text-anchor="middle" x="3614.39" y="-217.8" font-family="Times,serif" font-size="14.00">type</text>
</g>
<!-- category -->
<g id="node25" class="node">
<title>category</title>
<ellipse fill="none" stroke="black" cx="3683.39" cy="-178" rx="51.19" ry="18"/>
<text text-anchor="middle" x="3683.39" y="-174.3" font-family="Times,serif" font-size="14.00">category</text>
</g>
<!-- variant to population association&#45;&gt;category -->
<g id="edge23" class="edge">
<title>variant to population association&#45;&gt;category</title>
<path fill="none" stroke="blue" d="M2695.32,-251.75C2715.62,-249.88 2736.63,-248.18 2756.39,-247 2805.1,-244.1 3589.61,-248.36 3634.39,-229 3646.77,-223.65 3657.62,-213.55 3665.95,-203.82"/>
<polygon fill="blue" stroke="blue" points="3668.81,-205.84 3672.32,-195.84 3663.34,-201.47 3668.81,-205.84"/>
<text text-anchor="middle" x="3687.89" y="-217.8" font-family="Times,serif" font-size="14.00">category</text>
</g>
<!-- subject -->
<g id="node27" class="node">
<title>subject</title>
<ellipse fill="none" stroke="black" cx="3797.39" cy="-178" rx="44.39" ry="18"/>
<text text-anchor="middle" x="3797.39" y="-174.3" font-family="Times,serif" font-size="14.00">subject</text>
</g>
<!-- variant to population association&#45;&gt;subject -->
<g id="edge24" class="edge">
<title>variant to population association&#45;&gt;subject</title>
<path fill="none" stroke="blue" d="M2695.32,-251.72C2715.62,-249.85 2736.62,-248.16 2756.39,-247 2810.03,-243.86 3672.17,-245.21 3723.39,-229 3741.39,-223.31 3759,-211.72 3772.53,-201.14"/>
<polygon fill="blue" stroke="blue" points="3774.85,-203.76 3780.39,-194.74 3770.43,-198.34 3774.85,-203.76"/>
<text text-anchor="middle" x="3780.39" y="-217.8" font-family="Times,serif" font-size="14.00">subject</text>
</g>
<!-- object -->
<g id="node29" class="node">
<title>object</title>
<ellipse fill="none" stroke="black" cx="3840.39" cy="-91" rx="38.99" ry="18"/>
<text text-anchor="middle" x="3840.39" y="-87.3" font-family="Times,serif" font-size="14.00">object</text>
</g>
<!-- variant to population association&#45;&gt;object -->
<g id="edge25" class="edge">
<title>variant to population association&#45;&gt;object</title>
<path fill="none" stroke="blue" d="M2694.86,-251.74C2715.3,-249.85 2736.47,-248.15 2756.39,-247 2814.86,-243.62 3755.45,-249.27 3810.39,-229 3852.87,-213.33 3858.06,-186.96 3863.39,-142 3864.18,-135.38 3865.31,-133.39 3863.39,-127 3862.36,-123.55 3860.87,-120.13 3859.13,-116.85"/>
<polygon fill="blue" stroke="blue" points="3861.98,-114.79 3853.77,-108.09 3856.01,-118.45 3861.98,-114.79"/>
<text text-anchor="middle" x="3883.39" y="-174.3" font-family="Times,serif" font-size="14.00">object</text>
</g>
<!-- has quotient -->
<g id="node31" class="node">
<title>has quotient</title>
<ellipse fill="none" stroke="black" cx="4008.39" cy="-178" rx="68.79" ry="18"/>
<text text-anchor="middle" x="4008.39" y="-174.3" font-family="Times,serif" font-size="14.00">has quotient</text>
</g>
<!-- variant to population association&#45;&gt;has quotient -->
<g id="edge26" class="edge">
<title>variant to population association&#45;&gt;has quotient</title>
<path fill="none" stroke="blue" d="M2694.86,-251.72C2715.29,-249.84 2736.47,-248.14 2756.39,-247 2882.32,-239.79 3768.03,-255.27 3891.39,-229 3919.37,-223.04 3948.98,-210.32 3971.42,-199.2"/>
<polygon fill="blue" stroke="blue" points="3973.23,-202.2 3980.57,-194.55 3970.07,-195.96 3973.23,-202.2"/>
<text text-anchor="middle" x="3983.39" y="-217.8" font-family="Times,serif" font-size="14.00">has quotient</text>
</g>
<!-- has count -->
<g id="node33" class="node">
<title>has count</title>
<ellipse fill="none" stroke="black" cx="4151.39" cy="-178" rx="55.79" ry="18"/>
<text text-anchor="middle" x="4151.39" y="-174.3" font-family="Times,serif" font-size="14.00">has count</text>
</g>
<!-- variant to population association&#45;&gt;has count -->
<g id="edge27" class="edge">
<title>variant to population association&#45;&gt;has count</title>
<path fill="none" stroke="blue" d="M2694.86,-251.69C2715.29,-249.81 2736.47,-248.12 2756.39,-247 2897.96,-239.02 3893.6,-257.99 4032.39,-229 4061.51,-222.92 4092.42,-209.7 4115.44,-198.39"/>
<polygon fill="blue" stroke="blue" points="4117.11,-201.46 4124.48,-193.84 4113.97,-195.21 4117.11,-201.46"/>
<text text-anchor="middle" x="4115.39" y="-217.8" font-family="Times,serif" font-size="14.00">has count</text>
</g>
<!-- has total -->
<g id="node35" class="node">
<title>has total</title>
<ellipse fill="none" stroke="black" cx="4276.39" cy="-178" rx="51.19" ry="18"/>
<text text-anchor="middle" x="4276.39" y="-174.3" font-family="Times,serif" font-size="14.00">has total</text>
</g>
<!-- variant to population association&#45;&gt;has total -->
<g id="edge28" class="edge">
<title>variant to population association&#45;&gt;has total</title>
<path fill="none" stroke="blue" d="M2694.85,-251.67C2715.29,-249.79 2736.47,-248.11 2756.39,-247 2911.5,-238.35 4002.17,-260 4154.39,-229 4184.36,-222.9 4216.27,-209.55 4239.94,-198.18"/>
<polygon fill="blue" stroke="blue" points="4241.8,-201.16 4249.23,-193.61 4238.71,-194.88 4241.8,-201.16"/>
<text text-anchor="middle" x="4234.89" y="-217.8" font-family="Times,serif" font-size="14.00">has total</text>
</g>
<!-- has percentage -->
<g id="node37" class="node">
<title>has percentage</title>
<ellipse fill="none" stroke="blue" cx="4388.39" cy="-178" rx="42.49" ry="18"/>
<text text-anchor="middle" x="4388.39" y="-174.3" font-family="Times,serif" font-size="14.00">double</text>
</g>
<!-- variant to population association&#45;&gt;has percentage -->
<g id="edge29" class="edge">
<title>variant to population association&#45;&gt;has percentage</title>
<path fill="none" stroke="blue" d="M2694.39,-251.7C2714.97,-249.8 2736.32,-248.11 2756.39,-247 2840.38,-242.36 4188.06,-246.23 4270.39,-229 4300.06,-222.79 4331.57,-209.03 4354.56,-197.51"/>
<polygon fill="blue" stroke="blue" points="4356.24,-200.58 4363.55,-192.91 4353.05,-194.35 4356.24,-200.58"/>
<text text-anchor="middle" x="4372.39" y="-217.8" font-family="Times,serif" font-size="14.00">has percentage</text>
</g>
<!-- frequency qualifier -->
<g id="node38" class="node">
<title>frequency qualifier</title>
<ellipse fill="none" stroke="blue" cx="4533.39" cy="-178" rx="85.29" ry="18"/>
<text text-anchor="middle" x="4533.39" y="-174.3" font-family="Times,serif" font-size="14.00">frequency value</text>
</g>
<!-- variant to population association&#45;&gt;frequency qualifier -->
<g id="edge30" class="edge">
<title>variant to population association&#45;&gt;frequency qualifier</title>
<path fill="none" stroke="blue" d="M2694.39,-251.68C2714.97,-249.79 2736.32,-248.1 2756.39,-247 2849.32,-241.92 4340.85,-250.51 4431.39,-229 4455.41,-223.29 4480.33,-211.21 4499.52,-200.36"/>
<polygon fill="blue" stroke="blue" points="4501.3,-203.37 4508.19,-195.32 4497.78,-197.32 4501.3,-203.37"/>
<text text-anchor="middle" x="4539.39" y="-217.8" font-family="Times,serif" font-size="14.00">frequency qualifier</text>
</g>
<!-- association_type -->
<g id="node24" class="node">
<title>association_type</title>
<ellipse fill="none" stroke="blue" cx="2803.39" cy="-265" rx="38.19" ry="18"/>
<text text-anchor="middle" x="2803.39" y="-261.3" font-family="Times,serif" font-size="14.00">string</text>
</g>
<!-- association_category -->
<g id="node26" class="node">
<title>association_category</title>
<ellipse fill="none" stroke="blue" cx="2934.39" cy="-265" rx="74.99" ry="18"/>
<text text-anchor="middle" x="2934.39" y="-261.3" font-family="Times,serif" font-size="14.00">category type</text>
</g>
<!-- subject&#45;&gt;object -->
<g id="edge31" class="edge">
<title>subject&#45;&gt;object</title>
<path fill="none" stroke="black" d="M3798.5,-159.55C3799.7,-149.57 3802.2,-137.07 3807.39,-127 3809.62,-122.68 3812.55,-118.52 3815.73,-114.66"/>
<polygon fill="black" stroke="black" points="3818.35,-116.98 3822.49,-107.23 3813.17,-112.27 3818.35,-116.98"/>
<text text-anchor="middle" x="3835.39" y="-130.8" font-family="Times,serif" font-size="14.00">relation</text>
</g>
<!-- relation -->
<g id="node39" class="node">
<title>relation</title>
<ellipse fill="none" stroke="black" cx="3785.39" cy="-18" rx="46.59" ry="18"/>
<text text-anchor="middle" x="3785.39" y="-14.3" font-family="Times,serif" font-size="14.00">relation</text>
</g>
<!-- subject&#45;&gt;relation -->
<g id="edge32" class="edge">
<title>subject&#45;&gt;relation</title>
<path fill="none" stroke="black" stroke-dasharray="1,5" d="M3796.09,-159.79C3794.01,-132.48 3789.95,-78.99 3787.47,-46.38"/>
<polygon fill="black" stroke="black" points="3790.95,-45.89 3786.7,-36.19 3783.97,-46.42 3790.95,-45.89"/>
</g>
<!-- variant to population association_subject -->
<g id="node28" class="node">
<title>variant to population association_subject</title>
<ellipse fill="none" stroke="blue" cx="3117.39" cy="-265" rx="90.18" ry="18"/>
<text text-anchor="middle" x="3117.39" y="-261.3" font-family="Times,serif" font-size="14.00">sequence variant</text>
</g>
<!-- object&#45;&gt;relation -->
<g id="edge33" class="edge">
<title>object&#45;&gt;relation</title>
<path fill="none" stroke="black" stroke-dasharray="1,5" d="M3827.91,-73.89C3820.98,-64.94 3812.21,-53.62 3804.44,-43.58"/>
<polygon fill="black" stroke="black" points="3807.1,-41.3 3798.21,-35.54 3801.56,-45.59 3807.1,-41.3"/>
</g>
<!-- variant to population association_object -->
<g id="node30" class="node">
<title>variant to population association_object</title>
<ellipse fill="none" stroke="blue" cx="3397.39" cy="-265" rx="171.67" ry="18"/>
<text text-anchor="middle" x="3397.39" y="-261.3" font-family="Times,serif" font-size="14.00">population of individual organisms</text>
</g>
<!-- variant to population association_has quotient -->
<g id="node32" class="node">
<title>variant to population association_has quotient</title>
<ellipse fill="none" stroke="blue" cx="3629.39" cy="-265" rx="42.49" ry="18"/>
<text text-anchor="middle" x="3629.39" y="-261.3" font-family="Times,serif" font-size="14.00">double</text>
</g>
<!-- variant to population association_has count -->
<g id="node34" class="node">
<title>variant to population association_has count</title>
<ellipse fill="none" stroke="blue" cx="3733.39" cy="-265" rx="44.39" ry="18"/>
<text text-anchor="middle" x="3733.39" y="-261.3" font-family="Times,serif" font-size="14.00">integer</text>
</g>
<!-- variant to population association_has total -->
<g id="node36" class="node">
<title>variant to population association_has total</title>
<ellipse fill="none" stroke="blue" cx="3839.39" cy="-265" rx="44.39" ry="18"/>
<text text-anchor="middle" x="3839.39" y="-261.3" font-family="Times,serif" font-size="14.00">integer</text>
</g>
</g>
</svg>
