<?xml version="1.0" encoding="UTF-8" standalone="no"?>
<!DOCTYPE svg PUBLIC "-//W3C//DTD SVG 1.1//EN"
 "http://www.w3.org/Graphics/SVG/1.1/DTD/svg11.dtd">
<!-- Generated by graphviz version 2.43.0 (0)
 -->
<!-- Title: %3 Pages: 1 -->
<svg width="4637pt" height="291pt"
 viewBox="0.00 0.00 4637.39 291.00" xmlns="http://www.w3.org/2000/svg" xmlns:xlink="http://www.w3.org/1999/xlink">
<g id="graph0" class="graph" transform="scale(1 1) rotate(0) translate(4 287)">
<title>%3</title>
<polygon fill="white" stroke="transparent" points="-4,4 -4,-287 4633.39,-287 4633.39,4 -4,4"/>
<!-- variant to phenotypic feature association -->
<g id="node1" class="node">
<title>variant to phenotypic feature association</title>
<ellipse fill="none" stroke="black" cx="2547.39" cy="-265" rx="201.46" ry="18"/>
<text text-anchor="middle" x="2547.39" y="-261.3" font-family="Times,serif" font-size="14.00">variant to phenotypic feature association</text>
</g>
<!-- association -->
<g id="node2" class="node">
<title>association</title>
<ellipse fill="none" stroke="black" cx="62.39" cy="-178" rx="62.29" ry="18"/>
<text text-anchor="middle" x="62.39" y="-174.3" font-family="Times,serif" font-size="14.00">association</text>
</g>
<!-- variant to phenotypic feature association&#45;&gt;association -->
<g id="edge1" class="edge">
<title>variant to phenotypic feature association&#45;&gt;association</title>
<path fill="none" stroke="black" d="M2346.85,-263.08C2003.3,-260.88 1280.13,-253.48 669.39,-229 430.91,-219.44 369.45,-231.25 133.39,-196 127.91,-195.18 122.23,-194.15 116.57,-192.99"/>
<polygon fill="black" stroke="black" points="116.99,-189.5 106.48,-190.81 115.51,-196.34 116.99,-189.5"/>
<text text-anchor="middle" x="683.39" y="-217.8" font-family="Times,serif" font-size="14.00">is_a</text>
</g>
<!-- variant to entity association mixin -->
<g id="node3" class="node">
<title>variant to entity association mixin</title>
<ellipse fill="none" stroke="black" cx="312.39" cy="-178" rx="169.77" ry="18"/>
<text text-anchor="middle" x="312.39" y="-174.3" font-family="Times,serif" font-size="14.00">variant to entity association mixin</text>
</g>
<!-- variant to phenotypic feature association&#45;&gt;variant to entity association mixin -->
<g id="edge2" class="edge">
<title>variant to phenotypic feature association&#45;&gt;variant to entity association mixin</title>
<path fill="none" stroke="black" d="M2346.52,-263.29C2038.71,-261.39 1431.92,-254.43 917.39,-229 752.3,-220.84 562.41,-203.91 440.08,-192.02"/>
<polygon fill="black" stroke="black" points="440.21,-188.52 429.92,-191.03 439.53,-195.48 440.21,-188.52"/>
<text text-anchor="middle" x="933.89" y="-217.8" font-family="Times,serif" font-size="14.00">uses</text>
</g>
<!-- entity to phenotypic feature association mixin -->
<g id="node4" class="node">
<title>entity to phenotypic feature association mixin</title>
<ellipse fill="none" stroke="black" cx="724.39" cy="-178" rx="224.46" ry="18"/>
<text text-anchor="middle" x="724.39" y="-174.3" font-family="Times,serif" font-size="14.00">entity to phenotypic feature association mixin</text>
</g>
<!-- variant to phenotypic feature association&#45;&gt;entity to phenotypic feature association mixin -->
<g id="edge3" class="edge">
<title>variant to phenotypic feature association&#45;&gt;entity to phenotypic feature association mixin</title>
<path fill="none" stroke="black" d="M2348.46,-262.08C2006.79,-258.31 1322.1,-248.54 1082.39,-229 994.88,-221.87 896.08,-207.59 824.48,-196.12"/>
<polygon fill="black" stroke="black" points="824.99,-192.66 814.56,-194.52 823.88,-199.57 824.99,-192.66"/>
<text text-anchor="middle" x="1098.89" y="-217.8" font-family="Times,serif" font-size="14.00">uses</text>
</g>
<!-- id -->
<g id="node5" class="node">
<title>id</title>
<ellipse fill="none" stroke="blue" cx="1005.39" cy="-178" rx="38.19" ry="18"/>
<text text-anchor="middle" x="1005.39" y="-174.3" font-family="Times,serif" font-size="14.00">string</text>
</g>
<!-- variant to phenotypic feature association&#45;&gt;id -->
<g id="edge4" class="edge">
<title>variant to phenotypic feature association&#45;&gt;id</title>
<path fill="none" stroke="blue" d="M2346.61,-263.31C2028.2,-261.43 1421.58,-254.52 1207.39,-229 1137.89,-220.72 1120.75,-215.06 1053.39,-196 1050.29,-195.12 1047.09,-194.15 1043.9,-193.12"/>
<polygon fill="blue" stroke="blue" points="1044.99,-189.8 1034.39,-189.95 1042.77,-196.44 1044.99,-189.8"/>
<text text-anchor="middle" x="1214.39" y="-217.8" font-family="Times,serif" font-size="14.00">id</text>
</g>
<!-- iri -->
<g id="node6" class="node">
<title>iri</title>
<ellipse fill="none" stroke="blue" cx="1106.39" cy="-178" rx="44.39" ry="18"/>
<text text-anchor="middle" x="1106.39" y="-174.3" font-family="Times,serif" font-size="14.00">iri type</text>
</g>
<!-- variant to phenotypic feature association&#45;&gt;iri -->
<g id="edge5" class="edge">
<title>variant to phenotypic feature association&#45;&gt;iri</title>
<path fill="none" stroke="blue" d="M2347.06,-263C2048.81,-260.71 1502.28,-253.25 1307.39,-229 1240.52,-220.68 1224.44,-213.64 1159.39,-196 1156.03,-195.09 1152.56,-194.09 1149.08,-193.06"/>
<polygon fill="blue" stroke="blue" points="1149.92,-189.66 1139.33,-190.08 1147.87,-196.35 1149.92,-189.66"/>
<text text-anchor="middle" x="1315.39" y="-217.8" font-family="Times,serif" font-size="14.00">iri</text>
</g>
<!-- name -->
<g id="node7" class="node">
<title>name</title>
<ellipse fill="none" stroke="blue" cx="1225.39" cy="-178" rx="56.59" ry="18"/>
<text text-anchor="middle" x="1225.39" y="-174.3" font-family="Times,serif" font-size="14.00">label type</text>
</g>
<!-- variant to phenotypic feature association&#45;&gt;name -->
<g id="edge6" class="edge">
<title>variant to phenotypic feature association&#45;&gt;name</title>
<path fill="none" stroke="blue" d="M2345.88,-264.25C2064.65,-263.5 1569.01,-257.92 1391.39,-229 1349.26,-222.14 1302.86,-207.53 1269.86,-195.87"/>
<polygon fill="blue" stroke="blue" points="1270.66,-192.44 1260.06,-192.36 1268.29,-199.03 1270.66,-192.44"/>
<text text-anchor="middle" x="1411.39" y="-217.8" font-family="Times,serif" font-size="14.00">name</text>
</g>
<!-- description -->
<g id="node8" class="node">
<title>description</title>
<ellipse fill="none" stroke="blue" cx="1375.39" cy="-178" rx="75.29" ry="18"/>
<text text-anchor="middle" x="1375.39" y="-174.3" font-family="Times,serif" font-size="14.00">narrative text</text>
</g>
<!-- variant to phenotypic feature association&#45;&gt;description -->
<g id="edge7" class="edge">
<title>variant to phenotypic feature association&#45;&gt;description</title>
<path fill="none" stroke="blue" d="M2348.19,-262.15C2061.09,-258.77 1556.31,-249.93 1474.39,-229 1451.15,-223.06 1427.08,-211.06 1408.49,-200.3"/>
<polygon fill="blue" stroke="blue" points="1410.22,-197.25 1399.83,-195.15 1406.64,-203.27 1410.22,-197.25"/>
<text text-anchor="middle" x="1514.89" y="-217.8" font-family="Times,serif" font-size="14.00">description</text>
</g>
<!-- has attribute -->
<g id="node9" class="node">
<title>has attribute</title>
<ellipse fill="none" stroke="blue" cx="1520.39" cy="-178" rx="51.99" ry="18"/>
<text text-anchor="middle" x="1520.39" y="-174.3" font-family="Times,serif" font-size="14.00">attribute</text>
</g>
<!-- variant to phenotypic feature association&#45;&gt;has attribute -->
<g id="edge8" class="edge">
<title>variant to phenotypic feature association&#45;&gt;has attribute</title>
<path fill="none" stroke="blue" d="M2346.96,-263.04C2086.53,-260.82 1656.78,-253.45 1587.39,-229 1571.38,-223.36 1556.01,-212.43 1544.04,-202.22"/>
<polygon fill="blue" stroke="blue" points="1546.12,-199.39 1536.33,-195.35 1541.46,-204.62 1546.12,-199.39"/>
<text text-anchor="middle" x="1634.39" y="-217.8" font-family="Times,serif" font-size="14.00">has attribute</text>
</g>
<!-- predicate -->
<g id="node10" class="node">
<title>predicate</title>
<ellipse fill="none" stroke="blue" cx="1668.39" cy="-178" rx="77.99" ry="18"/>
<text text-anchor="middle" x="1668.39" y="-174.3" font-family="Times,serif" font-size="14.00">predicate type</text>
</g>
<!-- variant to phenotypic feature association&#45;&gt;predicate -->
<g id="edge9" class="edge">
<title>variant to phenotypic feature association&#45;&gt;predicate</title>
<path fill="none" stroke="blue" d="M2352.2,-260.46C2110.84,-255.42 1728.2,-244.97 1700.39,-229 1691.01,-223.61 1683.94,-214.23 1678.87,-205.04"/>
<polygon fill="blue" stroke="blue" points="1682,-203.49 1674.44,-196.07 1675.73,-206.58 1682,-203.49"/>
<text text-anchor="middle" x="1734.39" y="-217.8" font-family="Times,serif" font-size="14.00">predicate</text>
</g>
<!-- object -->
<g id="node11" class="node">
<title>object</title>
<ellipse fill="none" stroke="blue" cx="3420.39" cy="-91" rx="69.59" ry="18"/>
<text text-anchor="middle" x="3420.39" y="-87.3" font-family="Times,serif" font-size="14.00">named thing</text>
</g>
<!-- variant to phenotypic feature association&#45;&gt;object -->
<g id="edge10" class="edge">
<title>variant to phenotypic feature association&#45;&gt;object</title>
<path fill="none" stroke="blue" d="M2345.74,-264.5C2095.54,-261.62 1710.98,-243.84 1791.39,-160 1845.55,-103.54 3021.27,-93.88 3340.84,-92.3"/>
<polygon fill="blue" stroke="blue" points="3340.96,-95.8 3350.94,-92.25 3340.93,-88.8 3340.96,-95.8"/>
<text text-anchor="middle" x="1813.39" y="-174.3" font-family="Times,serif" font-size="14.00">object</text>
</g>
<!-- negated -->
<g id="node12" class="node">
<title>negated</title>
<ellipse fill="none" stroke="blue" cx="1891.39" cy="-178" rx="46.59" ry="18"/>
<text text-anchor="middle" x="1891.39" y="-174.3" font-family="Times,serif" font-size="14.00">boolean</text>
</g>
<!-- variant to phenotypic feature association&#45;&gt;negated -->
<g id="edge11" class="edge">
<title>variant to phenotypic feature association&#45;&gt;negated</title>
<path fill="none" stroke="blue" d="M2366.6,-257.02C2280.73,-252 2176.88,-243.46 2084.39,-229 2032.75,-220.93 1974.88,-204.98 1936.1,-193.26"/>
<polygon fill="blue" stroke="blue" points="1936.76,-189.8 1926.18,-190.23 1934.72,-196.5 1936.76,-189.8"/>
<text text-anchor="middle" x="2113.39" y="-217.8" font-family="Times,serif" font-size="14.00">negated</text>
</g>
<!-- qualifiers -->
<g id="node13" class="node">
<title>qualifiers</title>
<ellipse fill="none" stroke="blue" cx="2032.39" cy="-178" rx="76.89" ry="18"/>
<text text-anchor="middle" x="2032.39" y="-174.3" font-family="Times,serif" font-size="14.00">ontology class</text>
</g>
<!-- variant to phenotypic feature association&#45;&gt;qualifiers -->
<g id="edge12" class="edge">
<title>variant to phenotypic feature association&#45;&gt;qualifiers</title>
<path fill="none" stroke="blue" d="M2392.24,-253.46C2334.8,-248.09 2269.33,-240.25 2210.39,-229 2167.31,-220.77 2119.5,-207.08 2084.29,-196.11"/>
<polygon fill="blue" stroke="blue" points="2085.3,-192.75 2074.71,-193.09 2083.2,-199.43 2085.3,-192.75"/>
<text text-anchor="middle" x="2243.89" y="-217.8" font-family="Times,serif" font-size="14.00">qualifiers</text>
</g>
<!-- publications -->
<g id="node14" class="node">
<title>publications</title>
<ellipse fill="none" stroke="blue" cx="2189.39" cy="-178" rx="62.29" ry="18"/>
<text text-anchor="middle" x="2189.39" y="-174.3" font-family="Times,serif" font-size="14.00">publication</text>
</g>
<!-- variant to phenotypic feature association&#45;&gt;publications -->
<g id="edge13" class="edge">
<title>variant to phenotypic feature association&#45;&gt;publications</title>
<path fill="none" stroke="blue" d="M2432.96,-250.17C2398.43,-244.85 2360.61,-237.87 2326.39,-229 2294.2,-220.66 2258.97,-207.71 2232.3,-197.08"/>
<polygon fill="blue" stroke="blue" points="2233.46,-193.78 2222.88,-193.28 2230.84,-200.27 2233.46,-193.78"/>
<text text-anchor="middle" x="2370.39" y="-217.8" font-family="Times,serif" font-size="14.00">publications</text>
</g>
<!-- has evidence -->
<g id="node15" class="node">
<title>has evidence</title>
<ellipse fill="none" stroke="blue" cx="2345.39" cy="-178" rx="75.29" ry="18"/>
<text text-anchor="middle" x="2345.39" y="-174.3" font-family="Times,serif" font-size="14.00">evidence type</text>
</g>
<!-- variant to phenotypic feature association&#45;&gt;has evidence -->
<g id="edge14" class="edge">
<title>variant to phenotypic feature association&#45;&gt;has evidence</title>
<path fill="none" stroke="blue" d="M2498.68,-247.48C2483.13,-241.92 2465.93,-235.48 2450.39,-229 2428.62,-219.91 2404.84,-208.7 2385.43,-199.2"/>
<polygon fill="blue" stroke="blue" points="2386.79,-195.97 2376.27,-194.69 2383.7,-202.25 2386.79,-195.97"/>
<text text-anchor="middle" x="2496.89" y="-217.8" font-family="Times,serif" font-size="14.00">has evidence</text>
</g>
<!-- knowledge source -->
<g id="node16" class="node">
<title>knowledge source</title>
<ellipse fill="none" stroke="blue" cx="2547.39" cy="-178" rx="108.58" ry="18"/>
<text text-anchor="middle" x="2547.39" y="-174.3" font-family="Times,serif" font-size="14.00">information resource</text>
</g>
<!-- variant to phenotypic feature association&#45;&gt;knowledge source -->
<g id="edge15" class="edge">
<title>variant to phenotypic feature association&#45;&gt;knowledge source</title>
<path fill="none" stroke="blue" d="M2547.39,-246.8C2547.39,-235.16 2547.39,-219.55 2547.39,-206.24"/>
<polygon fill="blue" stroke="blue" points="2550.89,-206.18 2547.39,-196.18 2543.89,-206.18 2550.89,-206.18"/>
<text text-anchor="middle" x="2611.89" y="-217.8" font-family="Times,serif" font-size="14.00">knowledge source</text>
</g>
<!-- primary knowledge source -->
<g id="node17" class="node">
<title>primary knowledge source</title>
<ellipse fill="none" stroke="blue" cx="2782.39" cy="-178" rx="108.58" ry="18"/>
<text text-anchor="middle" x="2782.39" y="-174.3" font-family="Times,serif" font-size="14.00">information resource</text>
</g>
<!-- variant to phenotypic feature association&#45;&gt;primary knowledge source -->
<g id="edge16" class="edge">
<title>variant to phenotypic feature association&#45;&gt;primary knowledge source</title>
<path fill="none" stroke="blue" d="M2618.27,-248.13C2638.59,-242.83 2660.59,-236.38 2680.39,-229 2701.9,-220.99 2724.92,-209.93 2743.64,-200.26"/>
<polygon fill="blue" stroke="blue" points="2745.51,-203.23 2752.74,-195.49 2742.26,-197.03 2745.51,-203.23"/>
<text text-anchor="middle" x="2810.39" y="-217.8" font-family="Times,serif" font-size="14.00">primary knowledge source</text>
</g>
<!-- aggregator knowledge source -->
<g id="node18" class="node">
<title>aggregator knowledge source</title>
<ellipse fill="none" stroke="blue" cx="3017.39" cy="-178" rx="108.58" ry="18"/>
<text text-anchor="middle" x="3017.39" y="-174.3" font-family="Times,serif" font-size="14.00">information resource</text>
</g>
<!-- variant to phenotypic feature association&#45;&gt;aggregator knowledge source -->
<g id="edge17" class="edge">
<title>variant to phenotypic feature association&#45;&gt;aggregator knowledge source</title>
<path fill="none" stroke="blue" d="M2691.36,-252.39C2782.94,-244.61 2888.18,-234.76 2909.39,-229 2933.78,-222.38 2959.51,-210.68 2979.73,-200.26"/>
<polygon fill="blue" stroke="blue" points="2981.4,-203.34 2988.61,-195.59 2978.13,-197.15 2981.4,-203.34"/>
<text text-anchor="middle" x="3055.89" y="-217.8" font-family="Times,serif" font-size="14.00">aggregator knowledge source</text>
</g>
<!-- timepoint -->
<g id="node19" class="node">
<title>timepoint</title>
<ellipse fill="none" stroke="blue" cx="3199.39" cy="-178" rx="55.49" ry="18"/>
<text text-anchor="middle" x="3199.39" y="-174.3" font-family="Times,serif" font-size="14.00">time type</text>
</g>
<!-- variant to phenotypic feature association&#45;&gt;timepoint -->
<g id="edge18" class="edge">
<title>variant to phenotypic feature association&#45;&gt;timepoint</title>
<path fill="none" stroke="blue" d="M2687.23,-252.02C2710.97,-250.19 2735.38,-248.43 2758.39,-247 2803.68,-244.18 3126.92,-251.38 3166.39,-229 3175.89,-223.61 3183.15,-214.23 3188.41,-205.04"/>
<polygon fill="blue" stroke="blue" points="3191.56,-206.57 3193.01,-196.07 3185.33,-203.37 3191.56,-206.57"/>
<text text-anchor="middle" x="3217.39" y="-217.8" font-family="Times,serif" font-size="14.00">timepoint</text>
</g>
<!-- type -->
<g id="node20" class="node">
<title>type</title>
<ellipse fill="none" stroke="black" cx="3303.39" cy="-178" rx="31.4" ry="18"/>
<text text-anchor="middle" x="3303.39" y="-174.3" font-family="Times,serif" font-size="14.00">type</text>
</g>
<!-- variant to phenotypic feature association&#45;&gt;type -->
<g id="edge19" class="edge">
<title>variant to phenotypic feature association&#45;&gt;type</title>
<path fill="none" stroke="blue" d="M2686.37,-251.92C2710.38,-250.09 2735.1,-248.36 2758.39,-247 2813.67,-243.78 3205.98,-251.89 3256.39,-229 3268.6,-223.46 3279.15,-213.13 3287.15,-203.3"/>
<polygon fill="blue" stroke="blue" points="3289.99,-205.35 3293.25,-195.26 3284.41,-201.11 3289.99,-205.35"/>
<text text-anchor="middle" x="3292.39" y="-217.8" font-family="Times,serif" font-size="14.00">type</text>
</g>
<!-- category -->
<g id="node22" class="node">
<title>category</title>
<ellipse fill="none" stroke="black" cx="3404.39" cy="-178" rx="51.19" ry="18"/>
<text text-anchor="middle" x="3404.39" y="-174.3" font-family="Times,serif" font-size="14.00">category</text>
</g>
<!-- variant to phenotypic feature association&#45;&gt;category -->
<g id="edge20" class="edge">
<title>variant to phenotypic feature association&#45;&gt;category</title>
<path fill="none" stroke="blue" d="M2685.8,-251.9C2709.98,-250.05 2734.91,-248.33 2758.39,-247 2819.88,-243.53 3252.96,-245.14 3312.39,-229 3334.5,-223 3357.14,-210.79 3374.43,-199.93"/>
<polygon fill="blue" stroke="blue" points="3376.45,-202.79 3382.95,-194.42 3372.65,-196.92 3376.45,-202.79"/>
<text text-anchor="middle" x="3381.89" y="-217.8" font-family="Times,serif" font-size="14.00">category</text>
</g>
<!-- subject -->
<g id="node24" class="node">
<title>subject</title>
<ellipse fill="none" stroke="black" cx="3518.39" cy="-178" rx="44.39" ry="18"/>
<text text-anchor="middle" x="3518.39" y="-174.3" font-family="Times,serif" font-size="14.00">subject</text>
</g>
<!-- variant to phenotypic feature association&#45;&gt;subject -->
<g id="edge21" class="edge">
<title>variant to phenotypic feature association&#45;&gt;subject</title>
<path fill="none" stroke="blue" d="M2685.23,-251.84C2709.59,-249.99 2734.72,-248.28 2758.39,-247 2831.54,-243.06 3346.31,-246.66 3417.39,-229 3442.15,-222.85 3467.88,-210 3487.18,-198.87"/>
<polygon fill="blue" stroke="blue" points="3489.01,-201.85 3495.83,-193.74 3485.44,-195.83 3489.01,-201.85"/>
<text text-anchor="middle" x="3484.39" y="-217.8" font-family="Times,serif" font-size="14.00">subject</text>
</g>
<!-- frequency qualifier -->
<g id="node26" class="node">
<title>frequency qualifier</title>
<ellipse fill="none" stroke="blue" cx="3665.39" cy="-178" rx="85.29" ry="18"/>
<text text-anchor="middle" x="3665.39" y="-174.3" font-family="Times,serif" font-size="14.00">frequency value</text>
</g>
<!-- variant to phenotypic feature association&#45;&gt;frequency qualifier -->
<g id="edge22" class="edge">
<title>variant to phenotypic feature association&#45;&gt;frequency qualifier</title>
<path fill="none" stroke="blue" d="M2684.66,-251.81C2709.19,-249.95 2734.54,-248.24 2758.39,-247 2926.21,-238.25 3348.82,-257.73 3514.39,-229 3550.7,-222.7 3590.17,-209.39 3619.66,-198.08"/>
<polygon fill="blue" stroke="blue" points="3621.21,-201.23 3629.25,-194.34 3618.66,-194.71 3621.21,-201.23"/>
<text text-anchor="middle" x="3642.39" y="-217.8" font-family="Times,serif" font-size="14.00">frequency qualifier</text>
</g>
<!-- severity qualifier -->
<g id="node27" class="node">
<title>severity qualifier</title>
<ellipse fill="none" stroke="blue" cx="3844.39" cy="-178" rx="76.09" ry="18"/>
<text text-anchor="middle" x="3844.39" y="-174.3" font-family="Times,serif" font-size="14.00">severity value</text>
</g>
<!-- variant to phenotypic feature association&#45;&gt;severity qualifier -->
<g id="edge23" class="edge">
<title>variant to phenotypic feature association&#45;&gt;severity qualifier</title>
<path fill="none" stroke="blue" d="M2684.08,-251.75C2708.8,-249.89 2734.35,-248.19 2758.39,-247 2864.5,-241.73 3610.13,-249.38 3714.39,-229 3745.54,-222.91 3778.92,-209.93 3804.05,-198.72"/>
<polygon fill="blue" stroke="blue" points="3805.61,-201.85 3813.26,-194.52 3802.71,-195.48 3805.61,-201.85"/>
<text text-anchor="middle" x="3827.39" y="-217.8" font-family="Times,serif" font-size="14.00">severity qualifier</text>
</g>
<!-- onset qualifier -->
<g id="node28" class="node">
<title>onset qualifier</title>
<ellipse fill="none" stroke="blue" cx="3974.39" cy="-178" rx="36.29" ry="18"/>
<text text-anchor="middle" x="3974.39" y="-174.3" font-family="Times,serif" font-size="14.00">onset</text>
</g>
<!-- variant to phenotypic feature association&#45;&gt;onset qualifier -->
<g id="edge24" class="edge">
<title>variant to phenotypic feature association&#45;&gt;onset qualifier</title>
<path fill="none" stroke="blue" d="M2683.8,-251.71C2708.6,-249.85 2734.26,-248.16 2758.39,-247 2821.33,-243.97 3831.87,-246.52 3892.39,-229 3912.61,-223.15 3932.83,-210.91 3948.13,-200.01"/>
<polygon fill="blue" stroke="blue" points="3950.57,-202.56 3956.53,-193.8 3946.41,-196.93 3950.57,-202.56"/>
<text text-anchor="middle" x="3977.89" y="-217.8" font-family="Times,serif" font-size="14.00">onset qualifier</text>
</g>
<!-- sex qualifier -->
<g id="node29" class="node">
<title>sex qualifier</title>
<ellipse fill="none" stroke="blue" cx="4102.39" cy="-178" rx="73.39" ry="18"/>
<text text-anchor="middle" x="4102.39" y="-174.3" font-family="Times,serif" font-size="14.00">biological sex</text>
</g>
<!-- variant to phenotypic feature association&#45;&gt;sex qualifier -->
<g id="edge25" class="edge">
<title>variant to phenotypic feature association&#45;&gt;sex qualifier</title>
<path fill="none" stroke="blue" d="M2683.51,-251.7C2708.41,-249.83 2734.17,-248.15 2758.39,-247 2829.16,-243.65 3966.16,-251.32 4033.39,-229 4049.86,-223.53 4065.73,-212.58 4078.08,-202.31"/>
<polygon fill="blue" stroke="blue" points="4080.41,-204.93 4085.67,-195.73 4075.82,-199.64 4080.41,-204.93"/>
<text text-anchor="middle" x="4106.39" y="-217.8" font-family="Times,serif" font-size="14.00">sex qualifier</text>
</g>
<!-- has count -->
<g id="node30" class="node">
<title>has count</title>
<ellipse fill="none" stroke="blue" cx="4238.39" cy="-178" rx="44.39" ry="18"/>
<text text-anchor="middle" x="4238.39" y="-174.3" font-family="Times,serif" font-size="14.00">integer</text>
</g>
<!-- variant to phenotypic feature association&#45;&gt;has count -->
<g id="edge26" class="edge">
<title>variant to phenotypic feature association&#45;&gt;has count</title>
<path fill="none" stroke="blue" d="M2683.23,-251.7C2708.21,-249.82 2734.07,-248.14 2758.39,-247 2835.87,-243.38 4079.74,-250.05 4154.39,-229 4174.93,-223.21 4195.55,-211.05 4211.23,-200.17"/>
<polygon fill="blue" stroke="blue" points="4213.31,-202.98 4219.39,-194.31 4209.23,-197.29 4213.31,-202.98"/>
<text text-anchor="middle" x="4224.39" y="-217.8" font-family="Times,serif" font-size="14.00">has count</text>
</g>
<!-- has total -->
<g id="node31" class="node">
<title>has total</title>
<ellipse fill="none" stroke="blue" cx="4344.39" cy="-178" rx="44.39" ry="18"/>
<text text-anchor="middle" x="4344.39" y="-174.3" font-family="Times,serif" font-size="14.00">integer</text>
</g>
<!-- variant to phenotypic feature association&#45;&gt;has total -->
<g id="edge27" class="edge">
<title>variant to phenotypic feature association&#45;&gt;has total</title>
<path fill="none" stroke="blue" d="M2683.23,-251.68C2708.21,-249.8 2734.07,-248.12 2758.39,-247 2841.92,-243.14 4183.09,-252.31 4263.39,-229 4283.03,-223.3 4302.6,-211.43 4317.59,-200.69"/>
<polygon fill="blue" stroke="blue" points="4319.91,-203.32 4325.85,-194.55 4315.74,-197.71 4319.91,-203.32"/>
<text text-anchor="middle" x="4328.89" y="-217.8" font-family="Times,serif" font-size="14.00">has total</text>
</g>
<!-- has quotient -->
<g id="node32" class="node">
<title>has quotient</title>
<ellipse fill="none" stroke="blue" cx="4448.39" cy="-178" rx="42.49" ry="18"/>
<text text-anchor="middle" x="4448.39" y="-174.3" font-family="Times,serif" font-size="14.00">double</text>
</g>
<!-- variant to phenotypic feature association&#45;&gt;has quotient -->
<g id="edge28" class="edge">
<title>variant to phenotypic feature association&#45;&gt;has quotient</title>
<path fill="none" stroke="blue" d="M2683.23,-251.66C2708.21,-249.79 2734.07,-248.11 2758.39,-247 2847.53,-242.91 4278.5,-253.15 4364.39,-229 4384.93,-223.23 4405.56,-211.06 4421.23,-200.18"/>
<polygon fill="blue" stroke="blue" points="4423.32,-202.99 4429.4,-194.32 4419.23,-197.31 4423.32,-202.99"/>
<text text-anchor="middle" x="4444.39" y="-217.8" font-family="Times,serif" font-size="14.00">has quotient</text>
</g>
<!-- has percentage -->
<g id="node33" class="node">
<title>has percentage</title>
<ellipse fill="none" stroke="blue" cx="4555.39" cy="-178" rx="42.49" ry="18"/>
<text text-anchor="middle" x="4555.39" y="-174.3" font-family="Times,serif" font-size="14.00">double</text>
</g>
<!-- variant to phenotypic feature association&#45;&gt;has percentage -->
<g id="edge29" class="edge">
<title>variant to phenotypic feature association&#45;&gt;has percentage</title>
<path fill="none" stroke="blue" d="M2682.95,-251.67C2708.01,-249.79 2733.98,-248.11 2758.39,-247 2806.54,-244.81 4448.03,-245.28 4493.39,-229 4508.48,-223.59 4522.61,-212.83 4533.56,-202.68"/>
<polygon fill="blue" stroke="blue" points="4536.23,-204.96 4540.94,-195.48 4531.34,-199.95 4536.23,-204.96"/>
<text text-anchor="middle" x="4574.39" y="-217.8" font-family="Times,serif" font-size="14.00">has percentage</text>
</g>
<!-- relation -->
<g id="node34" class="node">
<title>relation</title>
<ellipse fill="none" stroke="black" cx="3469.39" cy="-18" rx="46.59" ry="18"/>
<text text-anchor="middle" x="3469.39" y="-14.3" font-family="Times,serif" font-size="14.00">relation</text>
</g>
<!-- object&#45;&gt;relation -->
<g id="edge32" class="edge">
<title>object&#45;&gt;relation</title>
<path fill="none" stroke="black" stroke-dasharray="1,5" d="M3432.01,-73.17C3437.99,-64.51 3445.4,-53.77 3452.04,-44.14"/>
<polygon fill="black" stroke="black" points="3455.07,-45.92 3457.87,-35.71 3449.3,-41.95 3455.07,-45.92"/>
</g>
<!-- association_type -->
<g id="node21" class="node">
<title>association_type</title>
<ellipse fill="none" stroke="blue" cx="2805.39" cy="-265" rx="38.19" ry="18"/>
<text text-anchor="middle" x="2805.39" y="-261.3" font-family="Times,serif" font-size="14.00">string</text>
</g>
<!-- association_category -->
<g id="node23" class="node">
<title>association_category</title>
<ellipse fill="none" stroke="blue" cx="2936.39" cy="-265" rx="74.99" ry="18"/>
<text text-anchor="middle" x="2936.39" y="-261.3" font-family="Times,serif" font-size="14.00">category type</text>
</g>
<!-- subject&#45;&gt;object -->
<g id="edge30" class="edge">
<title>subject&#45;&gt;object</title>
<path fill="none" stroke="black" d="M3485.9,-165.59C3473.13,-159.94 3459.01,-152.13 3448.39,-142 3441.39,-135.31 3435.66,-126.48 3431.25,-118.1"/>
<polygon fill="black" stroke="black" points="3434.34,-116.45 3426.84,-108.97 3428.04,-119.5 3434.34,-116.45"/>
<text text-anchor="middle" x="3476.39" y="-130.8" font-family="Times,serif" font-size="14.00">relation</text>
</g>
<!-- subject&#45;&gt;relation -->
<g id="edge31" class="edge">
<title>subject&#45;&gt;relation</title>
<path fill="none" stroke="black" stroke-dasharray="1,5" d="M3517,-159.99C3514.9,-139.02 3509.98,-102.55 3499.39,-73 3495.91,-63.26 3490.79,-53.19 3485.76,-44.42"/>
<polygon fill="black" stroke="black" points="3488.76,-42.62 3480.63,-35.83 3482.75,-46.21 3488.76,-42.62"/>
</g>
<!-- variant to phenotypic feature association_subject -->
<g id="node25" class="node">
<title>variant to phenotypic feature association_subject</title>
<ellipse fill="none" stroke="blue" cx="3119.39" cy="-265" rx="90.18" ry="18"/>
<text text-anchor="middle" x="3119.39" y="-261.3" font-family="Times,serif" font-size="14.00">sequence variant</text>
</g>
</g>
</svg>
