<?xml version="1.0" encoding="UTF-8" standalone="no"?>
<!DOCTYPE svg PUBLIC "-//W3C//DTD SVG 1.1//EN"
 "http://www.w3.org/Graphics/SVG/1.1/DTD/svg11.dtd">
<!-- Generated by graphviz version 2.43.0 (0)
 -->
<!-- Title: %3 Pages: 1 -->
<svg width="4543pt" height="291pt"
 viewBox="0.00 0.00 4542.54 291.00" xmlns="http://www.w3.org/2000/svg" xmlns:xlink="http://www.w3.org/1999/xlink">
<g id="graph0" class="graph" transform="scale(1 1) rotate(0) translate(4 287)">
<title>%3</title>
<polygon fill="white" stroke="transparent" points="-4,4 -4,-287 4538.54,-287 4538.54,4 -4,4"/>
<!-- variant to population association -->
<g id="node1" class="node">
<title>variant to population association</title>
<ellipse fill="none" stroke="black" cx="2277.39" cy="-265" rx="163.27" ry="18"/>
<text text-anchor="middle" x="2277.39" y="-261.3" font-family="Times,serif" font-size="14.00">variant to population association</text>
</g>
<!-- association -->
<g id="node2" class="node">
<title>association</title>
<ellipse fill="none" stroke="black" cx="62.39" cy="-178" rx="62.29" ry="18"/>
<text text-anchor="middle" x="62.39" y="-174.3" font-family="Times,serif" font-size="14.00">association</text>
</g>
<!-- variant to population association&#45;&gt;association -->
<g id="edge1" class="edge">
<title>variant to population association&#45;&gt;association</title>
<path fill="none" stroke="black" d="M2114.83,-263.26C1815.6,-261.29 1157.49,-254.23 603.39,-229 394.21,-219.48 340.37,-227.82 133.39,-196 127.91,-195.16 122.23,-194.11 116.58,-192.94"/>
<polygon fill="black" stroke="black" points="117,-189.45 106.48,-190.75 115.51,-196.29 117,-189.45"/>
<text text-anchor="middle" x="617.39" y="-217.8" font-family="Times,serif" font-size="14.00">is_a</text>
</g>
<!-- variant to entity association mixin -->
<g id="node3" class="node">
<title>variant to entity association mixin</title>
<ellipse fill="none" stroke="black" cx="312.39" cy="-178" rx="169.77" ry="18"/>
<text text-anchor="middle" x="312.39" y="-174.3" font-family="Times,serif" font-size="14.00">variant to entity association mixin</text>
</g>
<!-- variant to population association&#45;&gt;variant to entity association mixin -->
<g id="edge2" class="edge">
<title>variant to population association&#45;&gt;variant to entity association mixin</title>
<path fill="none" stroke="black" d="M2114.31,-264.1C1843.89,-263.38 1285.74,-258.07 814.39,-229 682.21,-220.85 531.03,-204.88 429.42,-193.18"/>
<polygon fill="black" stroke="black" points="429.77,-189.69 419.43,-192.02 428.97,-196.65 429.77,-189.69"/>
<text text-anchor="middle" x="830.89" y="-217.8" font-family="Times,serif" font-size="14.00">uses</text>
</g>
<!-- frequency quantifier -->
<g id="node4" class="node">
<title>frequency quantifier</title>
<ellipse fill="none" stroke="black" cx="605.39" cy="-178" rx="105.08" ry="18"/>
<text text-anchor="middle" x="605.39" y="-174.3" font-family="Times,serif" font-size="14.00">frequency quantifier</text>
</g>
<!-- variant to population association&#45;&gt;frequency quantifier -->
<g id="edge3" class="edge">
<title>variant to population association&#45;&gt;frequency quantifier</title>
<path fill="none" stroke="black" d="M2114.1,-264.55C1869.18,-264.24 1392.32,-259.28 988.39,-229 884.72,-221.23 766.15,-204.53 688.74,-192.57"/>
<polygon fill="black" stroke="black" points="688.99,-189.07 678.57,-190.99 687.92,-195.98 688.99,-189.07"/>
<text text-anchor="middle" x="1004.89" y="-217.8" font-family="Times,serif" font-size="14.00">uses</text>
</g>
<!-- frequency qualifier mixin -->
<g id="node5" class="node">
<title>frequency qualifier mixin</title>
<ellipse fill="none" stroke="black" cx="856.39" cy="-178" rx="127.28" ry="18"/>
<text text-anchor="middle" x="856.39" y="-174.3" font-family="Times,serif" font-size="14.00">frequency qualifier mixin</text>
</g>
<!-- variant to population association&#45;&gt;frequency qualifier mixin -->
<g id="edge4" class="edge">
<title>variant to population association&#45;&gt;frequency qualifier mixin</title>
<path fill="none" stroke="black" d="M2116.01,-262.27C1844.47,-258.82 1307.46,-249.59 1119.39,-229 1054.29,-221.87 981.17,-207.44 928.58,-195.91"/>
<polygon fill="black" stroke="black" points="929.2,-192.46 918.68,-193.72 927.69,-199.29 929.2,-192.46"/>
<text text-anchor="middle" x="1135.89" y="-217.8" font-family="Times,serif" font-size="14.00">uses</text>
</g>
<!-- id -->
<g id="node6" class="node">
<title>id</title>
<ellipse fill="none" stroke="blue" cx="1040.39" cy="-178" rx="38.19" ry="18"/>
<text text-anchor="middle" x="1040.39" y="-174.3" font-family="Times,serif" font-size="14.00">string</text>
</g>
<!-- variant to population association&#45;&gt;id -->
<g id="edge5" class="edge">
<title>variant to population association&#45;&gt;id</title>
<path fill="none" stroke="blue" d="M2116.42,-261.91C1869.78,-258.14 1409.76,-248.68 1246.39,-229 1175.17,-220.42 1157.47,-215.35 1088.39,-196 1085.29,-195.13 1082.09,-194.16 1078.89,-193.14"/>
<polygon fill="blue" stroke="blue" points="1079.98,-189.81 1069.38,-189.97 1077.76,-196.46 1079.98,-189.81"/>
<text text-anchor="middle" x="1253.39" y="-217.8" font-family="Times,serif" font-size="14.00">id</text>
</g>
<!-- iri -->
<g id="node7" class="node">
<title>iri</title>
<ellipse fill="none" stroke="blue" cx="1141.39" cy="-178" rx="44.39" ry="18"/>
<text text-anchor="middle" x="1141.39" y="-174.3" font-family="Times,serif" font-size="14.00">iri type</text>
</g>
<!-- variant to population association&#45;&gt;iri -->
<g id="edge6" class="edge">
<title>variant to population association&#45;&gt;iri</title>
<path fill="none" stroke="blue" d="M2117.6,-261.23C1892.86,-256.76 1494.8,-246.65 1351.39,-229 1280.63,-220.29 1263.32,-214.25 1194.39,-196 1191.02,-195.11 1187.55,-194.13 1184.07,-193.11"/>
<polygon fill="blue" stroke="blue" points="1184.9,-189.7 1174.32,-190.14 1182.87,-196.4 1184.9,-189.7"/>
<text text-anchor="middle" x="1359.39" y="-217.8" font-family="Times,serif" font-size="14.00">iri</text>
</g>
<!-- name -->
<g id="node8" class="node">
<title>name</title>
<ellipse fill="none" stroke="blue" cx="1260.39" cy="-178" rx="56.59" ry="18"/>
<text text-anchor="middle" x="1260.39" y="-174.3" font-family="Times,serif" font-size="14.00">label type</text>
</g>
<!-- variant to population association&#45;&gt;name -->
<g id="edge7" class="edge">
<title>variant to population association&#45;&gt;name</title>
<path fill="none" stroke="blue" d="M2116.31,-261.91C1908.94,-258.43 1560.23,-249.65 1433.39,-229 1389.3,-221.82 1340.53,-207.08 1306.04,-195.45"/>
<polygon fill="blue" stroke="blue" points="1306.86,-192.03 1296.27,-192.11 1304.6,-198.66 1306.86,-192.03"/>
<text text-anchor="middle" x="1453.39" y="-217.8" font-family="Times,serif" font-size="14.00">name</text>
</g>
<!-- description -->
<g id="node9" class="node">
<title>description</title>
<ellipse fill="none" stroke="blue" cx="1410.39" cy="-178" rx="75.29" ry="18"/>
<text text-anchor="middle" x="1410.39" y="-174.3" font-family="Times,serif" font-size="14.00">narrative text</text>
</g>
<!-- variant to population association&#45;&gt;description -->
<g id="edge8" class="edge">
<title>variant to population association&#45;&gt;description</title>
<path fill="none" stroke="blue" d="M2114.39,-263.98C1925.29,-262.63 1625.5,-256.09 1516.39,-229 1491.56,-222.83 1465.55,-210.66 1445.51,-199.87"/>
<polygon fill="blue" stroke="blue" points="1447.19,-196.8 1436.75,-195.04 1443.81,-202.93 1447.19,-196.8"/>
<text text-anchor="middle" x="1556.89" y="-217.8" font-family="Times,serif" font-size="14.00">description</text>
</g>
<!-- source -->
<g id="node10" class="node">
<title>source</title>
<ellipse fill="none" stroke="blue" cx="1542.39" cy="-178" rx="38.19" ry="18"/>
<text text-anchor="middle" x="1542.39" y="-174.3" font-family="Times,serif" font-size="14.00">string</text>
</g>
<!-- variant to population association&#45;&gt;source -->
<g id="edge9" class="edge">
<title>variant to population association&#45;&gt;source</title>
<path fill="none" stroke="blue" d="M2114.91,-263.08C1955.15,-260.75 1723.02,-253.13 1636.39,-229 1613.35,-222.58 1589.57,-209.87 1571.7,-198.87"/>
<polygon fill="blue" stroke="blue" points="1573.25,-195.71 1562.93,-193.32 1569.51,-201.62 1573.25,-195.71"/>
<text text-anchor="middle" x="1660.39" y="-217.8" font-family="Times,serif" font-size="14.00">source</text>
</g>
<!-- has attribute -->
<g id="node11" class="node">
<title>has attribute</title>
<ellipse fill="none" stroke="blue" cx="1650.39" cy="-178" rx="51.99" ry="18"/>
<text text-anchor="middle" x="1650.39" y="-174.3" font-family="Times,serif" font-size="14.00">attribute</text>
</g>
<!-- variant to population association&#45;&gt;has attribute -->
<g id="edge10" class="edge">
<title>variant to population association&#45;&gt;has attribute</title>
<path fill="none" stroke="blue" d="M2122.66,-259.24C1968.58,-253.72 1749.73,-243.49 1712.39,-229 1697.66,-223.28 1683.73,-212.71 1672.82,-202.75"/>
<polygon fill="blue" stroke="blue" points="1675.08,-200.07 1665.44,-195.69 1670.24,-205.13 1675.08,-200.07"/>
<text text-anchor="middle" x="1759.39" y="-217.8" font-family="Times,serif" font-size="14.00">has attribute</text>
</g>
<!-- predicate -->
<g id="node12" class="node">
<title>predicate</title>
<ellipse fill="none" stroke="blue" cx="1798.39" cy="-178" rx="77.99" ry="18"/>
<text text-anchor="middle" x="1798.39" y="-174.3" font-family="Times,serif" font-size="14.00">predicate type</text>
</g>
<!-- variant to population association&#45;&gt;predicate -->
<g id="edge11" class="edge">
<title>variant to population association&#45;&gt;predicate</title>
<path fill="none" stroke="blue" d="M2121.49,-259.63C1999.67,-254.95 1846.98,-245.82 1822.39,-229 1814.43,-223.55 1809.02,-214.7 1805.39,-205.95"/>
<polygon fill="blue" stroke="blue" points="1808.61,-204.57 1802,-196.29 1802.01,-206.89 1808.61,-204.57"/>
<text text-anchor="middle" x="1856.39" y="-217.8" font-family="Times,serif" font-size="14.00">predicate</text>
</g>
<!-- relation -->
<g id="node13" class="node">
<title>relation</title>
<ellipse fill="none" stroke="blue" cx="3667.39" cy="-18" rx="38.19" ry="18"/>
<text text-anchor="middle" x="3667.39" y="-14.3" font-family="Times,serif" font-size="14.00">string</text>
</g>
<!-- variant to population association&#45;&gt;relation -->
<g id="edge12" class="edge">
<title>variant to population association&#45;&gt;relation</title>
<path fill="none" stroke="blue" d="M2116.61,-261.87C1994.33,-254.77 1857.43,-231.51 1923.39,-160 2041.53,-31.93 3348.74,-20.16 3618.77,-19.1"/>
<polygon fill="blue" stroke="blue" points="3619.04,-22.6 3629.03,-19.07 3619.02,-15.6 3619.04,-22.6"/>
<text text-anchor="middle" x="2007.39" y="-130.8" font-family="Times,serif" font-size="14.00">relation</text>
</g>
<!-- negated -->
<g id="node14" class="node">
<title>negated</title>
<ellipse fill="none" stroke="blue" cx="1979.39" cy="-178" rx="46.59" ry="18"/>
<text text-anchor="middle" x="1979.39" y="-174.3" font-family="Times,serif" font-size="14.00">boolean</text>
</g>
<!-- variant to population association&#45;&gt;negated -->
<g id="edge13" class="edge">
<title>variant to population association&#45;&gt;negated</title>
<path fill="none" stroke="blue" d="M2200.06,-249.07C2173.94,-243.47 2144.74,-236.6 2118.39,-229 2084.82,-219.31 2047.6,-205.77 2020.14,-195.22"/>
<polygon fill="blue" stroke="blue" points="2021.07,-191.83 2010.48,-191.48 2018.55,-198.36 2021.07,-191.83"/>
<text text-anchor="middle" x="2147.39" y="-217.8" font-family="Times,serif" font-size="14.00">negated</text>
</g>
<!-- qualifiers -->
<g id="node15" class="node">
<title>qualifiers</title>
<ellipse fill="none" stroke="blue" cx="2120.39" cy="-178" rx="76.89" ry="18"/>
<text text-anchor="middle" x="2120.39" y="-174.3" font-family="Times,serif" font-size="14.00">ontology class</text>
</g>
<!-- variant to population association&#45;&gt;qualifiers -->
<g id="edge14" class="edge">
<title>variant to population association&#45;&gt;qualifiers</title>
<path fill="none" stroke="blue" d="M2242.48,-247.38C2230.91,-241.72 2218.02,-235.24 2206.39,-229 2189.47,-219.92 2171.03,-209.3 2155.58,-200.19"/>
<polygon fill="blue" stroke="blue" points="2157.24,-197.11 2146.86,-195.02 2153.67,-203.13 2157.24,-197.11"/>
<text text-anchor="middle" x="2239.89" y="-217.8" font-family="Times,serif" font-size="14.00">qualifiers</text>
</g>
<!-- publications -->
<g id="node16" class="node">
<title>publications</title>
<ellipse fill="none" stroke="blue" cx="2277.39" cy="-178" rx="62.29" ry="18"/>
<text text-anchor="middle" x="2277.39" y="-174.3" font-family="Times,serif" font-size="14.00">publication</text>
</g>
<!-- variant to population association&#45;&gt;publications -->
<g id="edge15" class="edge">
<title>variant to population association&#45;&gt;publications</title>
<path fill="none" stroke="blue" d="M2277.39,-246.8C2277.39,-235.16 2277.39,-219.55 2277.39,-206.24"/>
<polygon fill="blue" stroke="blue" points="2280.89,-206.18 2277.39,-196.18 2273.89,-206.18 2280.89,-206.18"/>
<text text-anchor="middle" x="2321.39" y="-217.8" font-family="Times,serif" font-size="14.00">publications</text>
</g>
<!-- has evidence -->
<g id="node17" class="node">
<title>has evidence</title>
<ellipse fill="none" stroke="blue" cx="2433.39" cy="-178" rx="75.29" ry="18"/>
<text text-anchor="middle" x="2433.39" y="-174.3" font-family="Times,serif" font-size="14.00">evidence type</text>
</g>
<!-- variant to population association&#45;&gt;has evidence -->
<g id="edge16" class="edge">
<title>variant to population association&#45;&gt;has evidence</title>
<path fill="none" stroke="blue" d="M2328.29,-247.74C2342.01,-242.54 2356.59,-236.22 2369.39,-229 2382.74,-221.48 2396.28,-211.34 2407.45,-202.15"/>
<polygon fill="blue" stroke="blue" points="2409.74,-204.8 2415.13,-195.69 2405.23,-199.45 2409.74,-204.8"/>
<text text-anchor="middle" x="2438.89" y="-217.8" font-family="Times,serif" font-size="14.00">has evidence</text>
</g>
<!-- knowledge source -->
<g id="node18" class="node">
<title>knowledge source</title>
<ellipse fill="none" stroke="blue" cx="2635.39" cy="-178" rx="108.58" ry="18"/>
<text text-anchor="middle" x="2635.39" y="-174.3" font-family="Times,serif" font-size="14.00">information resource</text>
</g>
<!-- variant to population association&#45;&gt;knowledge source -->
<g id="edge17" class="edge">
<title>variant to population association&#45;&gt;knowledge source</title>
<path fill="none" stroke="blue" d="M2378.39,-250.83C2413.76,-245.3 2453.58,-238.02 2489.39,-229 2522.05,-220.77 2557.83,-208.57 2585.8,-198.28"/>
<polygon fill="blue" stroke="blue" points="2587.19,-201.5 2595.34,-194.73 2584.75,-194.94 2587.19,-201.5"/>
<text text-anchor="middle" x="2602.89" y="-217.8" font-family="Times,serif" font-size="14.00">knowledge source</text>
</g>
<!-- original knowledge source -->
<g id="node19" class="node">
<title>original knowledge source</title>
<ellipse fill="none" stroke="blue" cx="2870.39" cy="-178" rx="108.58" ry="18"/>
<text text-anchor="middle" x="2870.39" y="-174.3" font-family="Times,serif" font-size="14.00">information resource</text>
</g>
<!-- variant to population association&#45;&gt;original knowledge source -->
<g id="edge18" class="edge">
<title>variant to population association&#45;&gt;original knowledge source</title>
<path fill="none" stroke="blue" d="M2393.02,-252.29C2411.86,-250.46 2431.16,-248.64 2449.39,-247 2547.99,-238.13 2573.72,-245.12 2671.39,-229 2718.7,-221.19 2771.27,-207.78 2810.49,-196.8"/>
<polygon fill="blue" stroke="blue" points="2811.5,-200.16 2820.17,-194.07 2809.59,-193.42 2811.5,-200.16"/>
<text text-anchor="middle" x="2837.39" y="-217.8" font-family="Times,serif" font-size="14.00">original knowledge source</text>
</g>
<!-- primary knowledge source -->
<g id="node20" class="node">
<title>primary knowledge source</title>
<ellipse fill="none" stroke="blue" cx="3105.39" cy="-178" rx="108.58" ry="18"/>
<text text-anchor="middle" x="3105.39" y="-174.3" font-family="Times,serif" font-size="14.00">information resource</text>
</g>
<!-- variant to population association&#45;&gt;primary knowledge source -->
<g id="edge19" class="edge">
<title>variant to population association&#45;&gt;primary knowledge source</title>
<path fill="none" stroke="blue" d="M2389.72,-251.89C2409.59,-250.04 2430.08,-248.31 2449.39,-247 2665.05,-232.36 2722.06,-263.76 2935.39,-229 2975.88,-222.4 3020.31,-209.11 3053.59,-197.89"/>
<polygon fill="blue" stroke="blue" points="3054.78,-201.19 3063.11,-194.64 3052.51,-194.56 3054.78,-201.19"/>
<text text-anchor="middle" x="3092.39" y="-217.8" font-family="Times,serif" font-size="14.00">primary knowledge source</text>
</g>
<!-- aggregator knowledge source -->
<g id="node21" class="node">
<title>aggregator knowledge source</title>
<ellipse fill="none" stroke="blue" cx="3340.39" cy="-178" rx="108.58" ry="18"/>
<text text-anchor="middle" x="3340.39" y="-174.3" font-family="Times,serif" font-size="14.00">information resource</text>
</g>
<!-- variant to population association&#45;&gt;aggregator knowledge source -->
<g id="edge20" class="edge">
<title>variant to population association&#45;&gt;aggregator knowledge source</title>
<path fill="none" stroke="blue" d="M2388.79,-251.77C2408.94,-249.91 2429.78,-248.21 2449.39,-247 2614.02,-236.88 3028.95,-257.56 3191.39,-229 3226.65,-222.8 3264.89,-209.83 3293.81,-198.65"/>
<polygon fill="blue" stroke="blue" points="3295.21,-201.86 3303.24,-194.94 3292.65,-195.34 3295.21,-201.86"/>
<text text-anchor="middle" x="3356.89" y="-217.8" font-family="Times,serif" font-size="14.00">aggregator knowledge source</text>
</g>
<!-- type -->
<g id="node22" class="node">
<title>type</title>
<ellipse fill="none" stroke="black" cx="3498.39" cy="-178" rx="31.4" ry="18"/>
<text text-anchor="middle" x="3498.39" y="-174.3" font-family="Times,serif" font-size="14.00">type</text>
</g>
<!-- variant to population association&#45;&gt;type -->
<g id="edge21" class="edge">
<title>variant to population association&#45;&gt;type</title>
<path fill="none" stroke="blue" d="M2387.86,-251.75C2408.3,-249.86 2429.47,-248.16 2449.39,-247 2477.63,-245.36 3442.8,-242.97 3467.39,-229 3476.62,-223.76 3483.47,-214.53 3488.34,-205.42"/>
<polygon fill="blue" stroke="blue" points="3491.62,-206.68 3492.73,-196.14 3485.29,-203.69 3491.62,-206.68"/>
<text text-anchor="middle" x="3498.39" y="-217.8" font-family="Times,serif" font-size="14.00">type</text>
</g>
<!-- category -->
<g id="node24" class="node">
<title>category</title>
<ellipse fill="none" stroke="black" cx="3599.39" cy="-178" rx="51.19" ry="18"/>
<text text-anchor="middle" x="3599.39" y="-174.3" font-family="Times,serif" font-size="14.00">category</text>
</g>
<!-- variant to population association&#45;&gt;category -->
<g id="edge22" class="edge">
<title>variant to population association&#45;&gt;category</title>
<path fill="none" stroke="blue" d="M2387.86,-251.74C2408.3,-249.85 2429.47,-248.15 2449.39,-247 2508.69,-243.58 3461.39,-245.7 3518.39,-229 3537.88,-223.29 3557.33,-211.54 3572.28,-200.87"/>
<polygon fill="blue" stroke="blue" points="3574.57,-203.52 3580.53,-194.76 3570.41,-197.9 3574.57,-203.52"/>
<text text-anchor="middle" x="3583.89" y="-217.8" font-family="Times,serif" font-size="14.00">category</text>
</g>
<!-- subject -->
<g id="node26" class="node">
<title>subject</title>
<ellipse fill="none" stroke="black" cx="3713.39" cy="-178" rx="44.39" ry="18"/>
<text text-anchor="middle" x="3713.39" y="-174.3" font-family="Times,serif" font-size="14.00">subject</text>
</g>
<!-- variant to population association&#45;&gt;subject -->
<g id="edge23" class="edge">
<title>variant to population association&#45;&gt;subject</title>
<path fill="none" stroke="blue" d="M2387.86,-251.71C2408.29,-249.83 2429.47,-248.14 2449.39,-247 2514.3,-243.3 3556.44,-245.22 3619.39,-229 3642.26,-223.11 3665.71,-210.65 3683.47,-199.64"/>
<polygon fill="blue" stroke="blue" points="3685.66,-202.39 3692.2,-194.06 3681.89,-196.5 3685.66,-202.39"/>
<text text-anchor="middle" x="3683.39" y="-217.8" font-family="Times,serif" font-size="14.00">subject</text>
</g>
<!-- object -->
<g id="node28" class="node">
<title>object</title>
<ellipse fill="none" stroke="black" cx="3734.39" cy="-91" rx="38.99" ry="18"/>
<text text-anchor="middle" x="3734.39" y="-87.3" font-family="Times,serif" font-size="14.00">object</text>
</g>
<!-- variant to population association&#45;&gt;object -->
<g id="edge24" class="edge">
<title>variant to population association&#45;&gt;object</title>
<path fill="none" stroke="blue" d="M2387.86,-251.69C2408.29,-249.81 2429.47,-248.12 2449.39,-247 2519.51,-243.04 3646.01,-248.78 3713.39,-229 3740.02,-221.18 3750.16,-218.5 3766.39,-196 3780.84,-175.98 3776.49,-166.51 3779.39,-142 3780.18,-135.38 3782.32,-132.99 3779.39,-127 3776.54,-121.17 3772.19,-116.02 3767.3,-111.6"/>
<polygon fill="blue" stroke="blue" points="3769.32,-108.73 3759.32,-105.25 3764.96,-114.21 3769.32,-108.73"/>
<text text-anchor="middle" x="3800.39" y="-174.3" font-family="Times,serif" font-size="14.00">object</text>
</g>
<!-- has quotient -->
<g id="node30" class="node">
<title>has quotient</title>
<ellipse fill="none" stroke="black" cx="3924.39" cy="-178" rx="68.79" ry="18"/>
<text text-anchor="middle" x="3924.39" y="-174.3" font-family="Times,serif" font-size="14.00">has quotient</text>
</g>
<!-- variant to population association&#45;&gt;has quotient -->
<g id="edge25" class="edge">
<title>variant to population association&#45;&gt;has quotient</title>
<path fill="none" stroke="blue" d="M2387.85,-251.68C2408.29,-249.8 2429.47,-248.11 2449.39,-247 2600.06,-238.57 3659.76,-260.24 3807.39,-229 3835.38,-223.08 3864.99,-210.35 3887.42,-199.22"/>
<polygon fill="blue" stroke="blue" points="3889.24,-202.22 3896.57,-194.57 3886.07,-195.98 3889.24,-202.22"/>
<text text-anchor="middle" x="3899.39" y="-217.8" font-family="Times,serif" font-size="14.00">has quotient</text>
</g>
<!-- has count -->
<g id="node32" class="node">
<title>has count</title>
<ellipse fill="none" stroke="black" cx="4067.39" cy="-178" rx="55.79" ry="18"/>
<text text-anchor="middle" x="4067.39" y="-174.3" font-family="Times,serif" font-size="14.00">has count</text>
</g>
<!-- variant to population association&#45;&gt;has count -->
<g id="edge26" class="edge">
<title>variant to population association&#45;&gt;has count</title>
<path fill="none" stroke="blue" d="M2387.39,-251.7C2407.97,-249.8 2429.32,-248.11 2449.39,-247 2532.55,-242.4 3866.85,-245.94 3948.39,-229 3977.51,-222.95 4008.42,-209.73 4031.44,-198.41"/>
<polygon fill="blue" stroke="blue" points="4033.12,-201.48 4040.48,-193.86 4029.97,-195.23 4033.12,-201.48"/>
<text text-anchor="middle" x="4031.39" y="-217.8" font-family="Times,serif" font-size="14.00">has count</text>
</g>
<!-- has total -->
<g id="node34" class="node">
<title>has total</title>
<ellipse fill="none" stroke="black" cx="4192.39" cy="-178" rx="51.19" ry="18"/>
<text text-anchor="middle" x="4192.39" y="-174.3" font-family="Times,serif" font-size="14.00">has total</text>
</g>
<!-- variant to population association&#45;&gt;has total -->
<g id="edge27" class="edge">
<title>variant to population association&#45;&gt;has total</title>
<path fill="none" stroke="blue" d="M2387.39,-251.68C2407.97,-249.79 2429.32,-248.1 2449.39,-247 2539.32,-242.07 3982.13,-246.9 4070.39,-229 4100.7,-222.86 4132.98,-209.28 4156.73,-197.82"/>
<polygon fill="blue" stroke="blue" points="4158.29,-200.95 4165.71,-193.39 4155.19,-194.67 4158.29,-200.95"/>
<text text-anchor="middle" x="4150.89" y="-217.8" font-family="Times,serif" font-size="14.00">has total</text>
</g>
<!-- has percentage -->
<g id="node36" class="node">
<title>has percentage</title>
<ellipse fill="none" stroke="blue" cx="4304.39" cy="-178" rx="42.49" ry="18"/>
<text text-anchor="middle" x="4304.39" y="-174.3" font-family="Times,serif" font-size="14.00">double</text>
</g>
<!-- variant to population association&#45;&gt;has percentage -->
<g id="edge28" class="edge">
<title>variant to population association&#45;&gt;has percentage</title>
<path fill="none" stroke="blue" d="M2387.39,-251.67C2407.97,-249.78 2429.32,-248.09 2449.39,-247 2545.76,-241.75 4091.92,-248.7 4186.39,-229 4216.07,-222.81 4247.57,-209.05 4270.56,-197.53"/>
<polygon fill="blue" stroke="blue" points="4272.25,-200.6 4279.55,-192.92 4269.06,-194.37 4272.25,-200.6"/>
<text text-anchor="middle" x="4288.39" y="-217.8" font-family="Times,serif" font-size="14.00">has percentage</text>
</g>
<!-- frequency qualifier -->
<g id="node37" class="node">
<title>frequency qualifier</title>
<ellipse fill="none" stroke="blue" cx="4449.39" cy="-178" rx="85.29" ry="18"/>
<text text-anchor="middle" x="4449.39" y="-174.3" font-family="Times,serif" font-size="14.00">frequency value</text>
</g>
<!-- variant to population association&#45;&gt;frequency qualifier -->
<g id="edge29" class="edge">
<title>variant to population association&#45;&gt;frequency qualifier</title>
<path fill="none" stroke="blue" d="M2387.39,-251.66C2407.97,-249.77 2429.32,-248.09 2449.39,-247 2554.69,-241.31 4244.79,-253.31 4347.39,-229 4371.42,-223.31 4396.33,-211.23 4415.53,-200.37"/>
<polygon fill="blue" stroke="blue" points="4417.3,-203.38 4424.19,-195.33 4413.79,-197.33 4417.3,-203.38"/>
<text text-anchor="middle" x="4455.39" y="-217.8" font-family="Times,serif" font-size="14.00">frequency qualifier</text>
</g>
<!-- association_type -->
<g id="node23" class="node">
<title>association_type</title>
<ellipse fill="none" stroke="blue" cx="2496.39" cy="-265" rx="38.19" ry="18"/>
<text text-anchor="middle" x="2496.39" y="-261.3" font-family="Times,serif" font-size="14.00">string</text>
</g>
<!-- association_category -->
<g id="node25" class="node">
<title>association_category</title>
<ellipse fill="none" stroke="blue" cx="2627.39" cy="-265" rx="74.99" ry="18"/>
<text text-anchor="middle" x="2627.39" y="-261.3" font-family="Times,serif" font-size="14.00">category type</text>
</g>
<!-- subject&#45;&gt;relation -->
<g id="edge31" class="edge">
<title>subject&#45;&gt;relation</title>
<path fill="none" stroke="black" stroke-dasharray="1,5" d="M3705.81,-160.24C3699.89,-146.64 3691.79,-126.88 3686.39,-109 3680.14,-88.27 3675.18,-64.24 3671.9,-46.23"/>
<polygon fill="black" stroke="black" points="3675.3,-45.38 3670.12,-36.14 3668.41,-46.59 3675.3,-45.38"/>
</g>
<!-- subject&#45;&gt;object -->
<g id="edge30" class="edge">
<title>subject&#45;&gt;object</title>
<path fill="none" stroke="black" d="M3716.37,-159.77C3718.16,-150.09 3720.62,-137.8 3723.39,-127 3724.08,-124.32 3724.85,-121.53 3725.66,-118.76"/>
<polygon fill="black" stroke="black" points="3729.07,-119.57 3728.65,-108.98 3722.38,-117.52 3729.07,-119.57"/>
<text text-anchor="middle" x="3751.39" y="-130.8" font-family="Times,serif" font-size="14.00">relation</text>
</g>
<!-- variant to population association_subject -->
<g id="node27" class="node">
<title>variant to population association_subject</title>
<ellipse fill="none" stroke="blue" cx="2810.39" cy="-265" rx="90.18" ry="18"/>
<text text-anchor="middle" x="2810.39" y="-261.3" font-family="Times,serif" font-size="14.00">sequence variant</text>
</g>
<!-- object&#45;&gt;relation -->
<g id="edge32" class="edge">
<title>object&#45;&gt;relation</title>
<path fill="none" stroke="black" stroke-dasharray="1,5" d="M3719.52,-74.24C3710.59,-64.77 3699.06,-52.56 3689.12,-42.02"/>
<polygon fill="black" stroke="black" points="3691.63,-39.58 3682.22,-34.71 3686.54,-44.39 3691.63,-39.58"/>
</g>
<!-- variant to population association_object -->
<g id="node29" class="node">
<title>variant to population association_object</title>
<ellipse fill="none" stroke="blue" cx="3090.39" cy="-265" rx="171.67" ry="18"/>
<text text-anchor="middle" x="3090.39" y="-261.3" font-family="Times,serif" font-size="14.00">population of individual organisms</text>
</g>
<!-- variant to population association_has quotient -->
<g id="node31" class="node">
<title>variant to population association_has quotient</title>
<ellipse fill="none" stroke="blue" cx="3322.39" cy="-265" rx="42.49" ry="18"/>
<text text-anchor="middle" x="3322.39" y="-261.3" font-family="Times,serif" font-size="14.00">double</text>
</g>
<!-- variant to population association_has count -->
<g id="node33" class="node">
<title>variant to population association_has count</title>
<ellipse fill="none" stroke="blue" cx="3426.39" cy="-265" rx="44.39" ry="18"/>
<text text-anchor="middle" x="3426.39" y="-261.3" font-family="Times,serif" font-size="14.00">integer</text>
</g>
<!-- variant to population association_has total -->
<g id="node35" class="node">
<title>variant to population association_has total</title>
<ellipse fill="none" stroke="blue" cx="3532.39" cy="-265" rx="44.39" ry="18"/>
<text text-anchor="middle" x="3532.39" y="-261.3" font-family="Times,serif" font-size="14.00">integer</text>
</g>
</g>
</svg>
