<?xml version="1.0" encoding="UTF-8" standalone="no"?>
<!DOCTYPE svg PUBLIC "-//W3C//DTD SVG 1.1//EN"
 "http://www.w3.org/Graphics/SVG/1.1/DTD/svg11.dtd">
<!-- Generated by graphviz version 2.43.0 (0)
 -->
<!-- Title: %3 Pages: 1 -->
<svg width="3444pt" height="291pt"
 viewBox="0.00 0.00 3443.84 291.00" xmlns="http://www.w3.org/2000/svg" xmlns:xlink="http://www.w3.org/1999/xlink">
<g id="graph0" class="graph" transform="scale(1 1) rotate(0) translate(4 287)">
<title>%3</title>
<polygon fill="white" stroke="transparent" points="-4,4 -4,-287 3439.84,-287 3439.84,4 -4,4"/>
<!-- variant to phenotypic feature association -->
<g id="node1" class="node">
<title>variant to phenotypic feature association</title>
<ellipse fill="none" stroke="black" cx="1998.39" cy="-265" rx="201.46" ry="18"/>
<text text-anchor="middle" x="1998.39" y="-261.3" font-family="Times,serif" font-size="14.00">variant to phenotypic feature association</text>
</g>
<!-- association -->
<g id="node2" class="node">
<title>association</title>
<ellipse fill="none" stroke="black" cx="62.39" cy="-178" rx="62.29" ry="18"/>
<text text-anchor="middle" x="62.39" y="-174.3" font-family="Times,serif" font-size="14.00">association</text>
</g>
<!-- variant to phenotypic feature association&#45;&gt;association -->
<g id="edge1" class="edge">
<title>variant to phenotypic feature association&#45;&gt;association</title>
<path fill="none" stroke="black" d="M1801.84,-261.01C1542.07,-256.55 1070.23,-246.74 667.39,-229 429.84,-218.54 368.57,-231.15 133.39,-196 127.91,-195.18 122.23,-194.14 116.57,-192.99"/>
<polygon fill="black" stroke="black" points="116.99,-189.5 106.48,-190.8 115.51,-196.34 116.99,-189.5"/>
<text text-anchor="middle" x="681.39" y="-217.8" font-family="Times,serif" font-size="14.00">is_a</text>
</g>
<!-- variant to entity association mixin -->
<g id="node3" class="node">
<title>variant to entity association mixin</title>
<ellipse fill="none" stroke="black" cx="312.39" cy="-178" rx="169.77" ry="18"/>
<text text-anchor="middle" x="312.39" y="-174.3" font-family="Times,serif" font-size="14.00">variant to entity association mixin</text>
</g>
<!-- variant to phenotypic feature association&#45;&gt;variant to entity association mixin -->
<g id="edge2" class="edge">
<title>variant to phenotypic feature association&#45;&gt;variant to entity association mixin</title>
<path fill="none" stroke="black" d="M1803.54,-260.27C1587.54,-255.53 1228.9,-245.87 920.39,-229 729.45,-218.56 681.92,-212.37 491.39,-196 475.68,-194.65 459.2,-193.17 442.87,-191.67"/>
<polygon fill="black" stroke="black" points="443,-188.16 432.72,-190.73 442.36,-195.13 443,-188.16"/>
<text text-anchor="middle" x="936.89" y="-217.8" font-family="Times,serif" font-size="14.00">uses</text>
</g>
<!-- entity to phenotypic feature association mixin -->
<g id="node4" class="node">
<title>entity to phenotypic feature association mixin</title>
<ellipse fill="none" stroke="black" cx="724.39" cy="-178" rx="224.46" ry="18"/>
<text text-anchor="middle" x="724.39" y="-174.3" font-family="Times,serif" font-size="14.00">entity to phenotypic feature association mixin</text>
</g>
<!-- variant to phenotypic feature association&#45;&gt;entity to phenotypic feature association mixin -->
<g id="edge3" class="edge">
<title>variant to phenotypic feature association&#45;&gt;entity to phenotypic feature association mixin</title>
<path fill="none" stroke="black" d="M1799.67,-262.03C1614.68,-258.85 1331.44,-250.57 1086.39,-229 998.72,-221.28 899.77,-207.25 827.5,-196.01"/>
<polygon fill="black" stroke="black" points="827.91,-192.53 817.49,-194.44 826.82,-199.44 827.91,-192.53"/>
<text text-anchor="middle" x="1102.89" y="-217.8" font-family="Times,serif" font-size="14.00">uses</text>
</g>
<!-- id -->
<g id="node5" class="node">
<title>id</title>
<ellipse fill="none" stroke="blue" cx="1005.39" cy="-178" rx="38.19" ry="18"/>
<text text-anchor="middle" x="1005.39" y="-174.3" font-family="Times,serif" font-size="14.00">string</text>
</g>
<!-- variant to phenotypic feature association&#45;&gt;id -->
<g id="edge4" class="edge">
<title>variant to phenotypic feature association&#45;&gt;id</title>
<path fill="none" stroke="blue" d="M1797.33,-263.64C1638.74,-261.27 1412.23,-253.3 1215.39,-229 1142.47,-220 1124.2,-215.65 1053.39,-196 1050.29,-195.14 1047.09,-194.17 1043.89,-193.16"/>
<polygon fill="blue" stroke="blue" points="1044.97,-189.83 1034.38,-190 1042.76,-196.47 1044.97,-189.83"/>
<text text-anchor="middle" x="1222.39" y="-217.8" font-family="Times,serif" font-size="14.00">id</text>
</g>
<!-- iri -->
<g id="node6" class="node">
<title>iri</title>
<ellipse fill="none" stroke="blue" cx="1106.39" cy="-178" rx="44.39" ry="18"/>
<text text-anchor="middle" x="1106.39" y="-174.3" font-family="Times,serif" font-size="14.00">iri type</text>
</g>
<!-- variant to phenotypic feature association&#45;&gt;iri -->
<g id="edge5" class="edge">
<title>variant to phenotypic feature association&#45;&gt;iri</title>
<path fill="none" stroke="blue" d="M1800.87,-261.3C1666.17,-257.61 1483.96,-248.99 1324.39,-229 1250.19,-219.7 1231.78,-214.78 1159.39,-196 1156.02,-195.12 1152.54,-194.16 1149.06,-193.14"/>
<polygon fill="blue" stroke="blue" points="1149.89,-189.74 1139.3,-190.19 1147.86,-196.44 1149.89,-189.74"/>
<text text-anchor="middle" x="1332.39" y="-217.8" font-family="Times,serif" font-size="14.00">iri</text>
</g>
<!-- name -->
<g id="node7" class="node">
<title>name</title>
<ellipse fill="none" stroke="blue" cx="1225.39" cy="-178" rx="56.59" ry="18"/>
<text text-anchor="middle" x="1225.39" y="-174.3" font-family="Times,serif" font-size="14.00">label type</text>
</g>
<!-- variant to phenotypic feature association&#45;&gt;name -->
<g id="edge6" class="edge">
<title>variant to phenotypic feature association&#45;&gt;name</title>
<path fill="none" stroke="blue" d="M1799.28,-262.15C1685.12,-258.59 1539.5,-249.82 1411.39,-229 1363.37,-221.2 1309.85,-206.11 1272.6,-194.54"/>
<polygon fill="blue" stroke="blue" points="1273.61,-191.19 1263.02,-191.53 1271.51,-197.87 1273.61,-191.19"/>
<text text-anchor="middle" x="1431.39" y="-217.8" font-family="Times,serif" font-size="14.00">name</text>
</g>
<!-- description -->
<g id="node8" class="node">
<title>description</title>
<ellipse fill="none" stroke="blue" cx="1375.39" cy="-178" rx="75.29" ry="18"/>
<text text-anchor="middle" x="1375.39" y="-174.3" font-family="Times,serif" font-size="14.00">narrative text</text>
</g>
<!-- variant to phenotypic feature association&#45;&gt;description -->
<g id="edge7" class="edge">
<title>variant to phenotypic feature association&#45;&gt;description</title>
<path fill="none" stroke="blue" d="M1816.94,-257.12C1699.86,-251.55 1558.9,-242.41 1500.39,-229 1471.03,-222.27 1439.55,-209.64 1415.52,-198.76"/>
<polygon fill="blue" stroke="blue" points="1416.92,-195.55 1406.37,-194.54 1413.99,-201.91 1416.92,-195.55"/>
<text text-anchor="middle" x="1540.89" y="-217.8" font-family="Times,serif" font-size="14.00">description</text>
</g>
<!-- source -->
<g id="node9" class="node">
<title>source</title>
<ellipse fill="none" stroke="blue" cx="1525.39" cy="-178" rx="56.59" ry="18"/>
<text text-anchor="middle" x="1525.39" y="-174.3" font-family="Times,serif" font-size="14.00">label type</text>
</g>
<!-- variant to phenotypic feature association&#45;&gt;source -->
<g id="edge8" class="edge">
<title>variant to phenotypic feature association&#45;&gt;source</title>
<path fill="none" stroke="blue" d="M1831.29,-254.91C1749.12,-249.16 1659.49,-240.6 1620.39,-229 1598.18,-222.41 1575.14,-210.43 1557.31,-199.84"/>
<polygon fill="blue" stroke="blue" points="1558.85,-196.69 1548.49,-194.47 1555.21,-202.67 1558.85,-196.69"/>
<text text-anchor="middle" x="1644.39" y="-217.8" font-family="Times,serif" font-size="14.00">source</text>
</g>
<!-- provided by -->
<g id="node10" class="node">
<title>provided by</title>
<ellipse fill="none" stroke="blue" cx="1637.39" cy="-178" rx="37.09" ry="18"/>
<text text-anchor="middle" x="1637.39" y="-174.3" font-family="Times,serif" font-size="14.00">agent</text>
</g>
<!-- variant to phenotypic feature association&#45;&gt;provided by -->
<g id="edge9" class="edge">
<title>variant to phenotypic feature association&#45;&gt;provided by</title>
<path fill="none" stroke="blue" d="M1838.34,-253.98C1779.87,-248.54 1721.64,-240.51 1695.39,-229 1681.42,-222.87 1668.32,-212.19 1658.12,-202.27"/>
<polygon fill="blue" stroke="blue" points="1660.42,-199.61 1650.92,-194.92 1655.42,-204.51 1660.42,-199.61"/>
<text text-anchor="middle" x="1737.89" y="-217.8" font-family="Times,serif" font-size="14.00">provided by</text>
</g>
<!-- has attribute -->
<g id="node11" class="node">
<title>has attribute</title>
<ellipse fill="none" stroke="blue" cx="1744.39" cy="-178" rx="51.99" ry="18"/>
<text text-anchor="middle" x="1744.39" y="-174.3" font-family="Times,serif" font-size="14.00">attribute</text>
</g>
<!-- variant to phenotypic feature association&#45;&gt;has attribute -->
<g id="edge10" class="edge">
<title>variant to phenotypic feature association&#45;&gt;has attribute</title>
<path fill="none" stroke="blue" d="M1876.9,-250.62C1853.54,-245.56 1829.73,-238.6 1808.39,-229 1793.8,-222.44 1779.58,-211.87 1768.25,-202.14"/>
<polygon fill="blue" stroke="blue" points="1770.35,-199.32 1760.56,-195.27 1765.69,-204.54 1770.35,-199.32"/>
<text text-anchor="middle" x="1855.39" y="-217.8" font-family="Times,serif" font-size="14.00">has attribute</text>
</g>
<!-- predicate -->
<g id="node12" class="node">
<title>predicate</title>
<ellipse fill="none" stroke="blue" cx="1892.39" cy="-178" rx="77.99" ry="18"/>
<text text-anchor="middle" x="1892.39" y="-174.3" font-family="Times,serif" font-size="14.00">predicate type</text>
</g>
<!-- variant to phenotypic feature association&#45;&gt;predicate -->
<g id="edge11" class="edge">
<title>variant to phenotypic feature association&#45;&gt;predicate</title>
<path fill="none" stroke="blue" d="M1944.26,-247.49C1934.18,-242.67 1924.33,-236.6 1916.39,-229 1909.69,-222.59 1904.64,-213.92 1900.94,-205.61"/>
<polygon fill="blue" stroke="blue" points="1904.13,-204.18 1897.2,-196.17 1897.63,-206.75 1904.13,-204.18"/>
<text text-anchor="middle" x="1950.39" y="-217.8" font-family="Times,serif" font-size="14.00">predicate</text>
</g>
<!-- object -->
<g id="node13" class="node">
<title>object</title>
<ellipse fill="none" stroke="blue" cx="2388.39" cy="-91" rx="69.59" ry="18"/>
<text text-anchor="middle" x="2388.39" y="-87.3" font-family="Times,serif" font-size="14.00">named thing</text>
</g>
<!-- variant to phenotypic feature association&#45;&gt;object -->
<g id="edge12" class="edge">
<title>variant to phenotypic feature association&#45;&gt;object</title>
<path fill="none" stroke="blue" d="M2005.43,-246.62C2016.52,-220.06 2038.35,-171.26 2053.39,-160 2093.9,-129.69 2229.05,-109.59 2314.81,-99.55"/>
<polygon fill="blue" stroke="blue" points="2315.22,-103.02 2324.75,-98.4 2314.42,-96.07 2315.22,-103.02"/>
<text text-anchor="middle" x="2075.39" y="-174.3" font-family="Times,serif" font-size="14.00">object</text>
</g>
<!-- relation -->
<g id="node14" class="node">
<title>relation</title>
<ellipse fill="none" stroke="blue" cx="2388.39" cy="-18" rx="57.39" ry="18"/>
<text text-anchor="middle" x="2388.39" y="-14.3" font-family="Times,serif" font-size="14.00">uriorcurie</text>
</g>
<!-- variant to phenotypic feature association&#45;&gt;relation -->
<g id="edge13" class="edge">
<title>variant to phenotypic feature association&#45;&gt;relation</title>
<path fill="none" stroke="blue" d="M1997.59,-246.75C1997.24,-218.01 2000.83,-160.22 2032.39,-127 2108.33,-47.07 2241.28,-25.71 2321.45,-20.36"/>
<polygon fill="blue" stroke="blue" points="2321.67,-23.85 2331.44,-19.76 2321.25,-16.86 2321.67,-23.85"/>
<text text-anchor="middle" x="2060.39" y="-130.8" font-family="Times,serif" font-size="14.00">relation</text>
</g>
<!-- negated -->
<g id="node15" class="node">
<title>negated</title>
<ellipse fill="none" stroke="blue" cx="2153.39" cy="-178" rx="46.59" ry="18"/>
<text text-anchor="middle" x="2153.39" y="-174.3" font-family="Times,serif" font-size="14.00">boolean</text>
</g>
<!-- variant to phenotypic feature association&#45;&gt;negated -->
<g id="edge14" class="edge">
<title>variant to phenotypic feature association&#45;&gt;negated</title>
<path fill="none" stroke="blue" d="M2029.02,-247.21C2054.82,-233.05 2091.74,-212.81 2118.65,-198.05"/>
<polygon fill="blue" stroke="blue" points="2120.63,-200.96 2127.71,-193.08 2117.26,-194.82 2120.63,-200.96"/>
<text text-anchor="middle" x="2114.39" y="-217.8" font-family="Times,serif" font-size="14.00">negated</text>
</g>
<!-- qualifiers -->
<g id="node16" class="node">
<title>qualifiers</title>
<ellipse fill="none" stroke="blue" cx="2294.39" cy="-178" rx="76.89" ry="18"/>
<text text-anchor="middle" x="2294.39" y="-174.3" font-family="Times,serif" font-size="14.00">ontology class</text>
</g>
<!-- variant to phenotypic feature association&#45;&gt;qualifiers -->
<g id="edge15" class="edge">
<title>variant to phenotypic feature association&#45;&gt;qualifiers</title>
<path fill="none" stroke="blue" d="M2071.89,-248.23C2096.07,-242.64 2123,-236 2147.39,-229 2180.42,-219.53 2217.01,-207.09 2245.42,-196.99"/>
<polygon fill="blue" stroke="blue" points="2246.87,-200.19 2255.1,-193.53 2244.51,-193.6 2246.87,-200.19"/>
<text text-anchor="middle" x="2225.89" y="-217.8" font-family="Times,serif" font-size="14.00">qualifiers</text>
</g>
<!-- publications -->
<g id="node17" class="node">
<title>publications</title>
<ellipse fill="none" stroke="blue" cx="2451.39" cy="-178" rx="62.29" ry="18"/>
<text text-anchor="middle" x="2451.39" y="-174.3" font-family="Times,serif" font-size="14.00">publication</text>
</g>
<!-- variant to phenotypic feature association&#45;&gt;publications -->
<g id="edge16" class="edge">
<title>variant to phenotypic feature association&#45;&gt;publications</title>
<path fill="none" stroke="blue" d="M2123.3,-250.86C2167.73,-245.3 2217.99,-238 2263.39,-229 2310.38,-219.69 2363.01,-205.35 2400.6,-194.41"/>
<polygon fill="blue" stroke="blue" points="2401.7,-197.74 2410.31,-191.56 2399.73,-191.02 2401.7,-197.74"/>
<text text-anchor="middle" x="2370.39" y="-217.8" font-family="Times,serif" font-size="14.00">publications</text>
</g>
<!-- type -->
<g id="node18" class="node">
<title>type</title>
<ellipse fill="none" stroke="black" cx="2563.39" cy="-178" rx="31.4" ry="18"/>
<text text-anchor="middle" x="2563.39" y="-174.3" font-family="Times,serif" font-size="14.00">type</text>
</g>
<!-- variant to phenotypic feature association&#45;&gt;type -->
<g id="edge17" class="edge">
<title>variant to phenotypic feature association&#45;&gt;type</title>
<path fill="none" stroke="blue" d="M2142.29,-252.39C2261.14,-242.73 2411.49,-230.36 2418.39,-229 2457.65,-221.24 2500.79,-205.36 2529.72,-193.57"/>
<polygon fill="blue" stroke="blue" points="2531.43,-196.65 2539.33,-189.59 2528.75,-190.18 2531.43,-196.65"/>
<text text-anchor="middle" x="2487.39" y="-217.8" font-family="Times,serif" font-size="14.00">type</text>
</g>
<!-- category -->
<g id="node20" class="node">
<title>category</title>
<ellipse fill="none" stroke="black" cx="2664.39" cy="-178" rx="51.19" ry="18"/>
<text text-anchor="middle" x="2664.39" y="-174.3" font-family="Times,serif" font-size="14.00">category</text>
</g>
<!-- variant to phenotypic feature association&#45;&gt;category -->
<g id="edge18" class="edge">
<title>variant to phenotypic feature association&#45;&gt;category</title>
<path fill="none" stroke="blue" d="M2140.24,-252.18C2163.35,-250.37 2187.03,-248.58 2209.39,-247 2341.75,-237.67 2376.96,-253.32 2507.39,-229 2547.23,-221.57 2591.06,-207.05 2622.26,-195.57"/>
<polygon fill="blue" stroke="blue" points="2623.78,-198.73 2631.92,-191.96 2621.33,-192.18 2623.78,-198.73"/>
<text text-anchor="middle" x="2596.89" y="-217.8" font-family="Times,serif" font-size="14.00">category</text>
</g>
<!-- subject -->
<g id="node22" class="node">
<title>subject</title>
<ellipse fill="none" stroke="black" cx="2778.39" cy="-178" rx="44.39" ry="18"/>
<text text-anchor="middle" x="2778.39" y="-174.3" font-family="Times,serif" font-size="14.00">subject</text>
</g>
<!-- variant to phenotypic feature association&#45;&gt;subject -->
<g id="edge19" class="edge">
<title>variant to phenotypic feature association&#45;&gt;subject</title>
<path fill="none" stroke="blue" d="M2137.94,-252.01C2161.77,-250.17 2186.29,-248.42 2209.39,-247 2303.3,-241.22 2539.94,-246.42 2632.39,-229 2670.01,-221.91 2711.1,-207.17 2740.08,-195.52"/>
<polygon fill="blue" stroke="blue" points="2741.49,-198.72 2749.43,-191.7 2738.85,-192.24 2741.49,-198.72"/>
<text text-anchor="middle" x="2712.39" y="-217.8" font-family="Times,serif" font-size="14.00">subject</text>
</g>
<!-- frequency qualifier -->
<g id="node24" class="node">
<title>frequency qualifier</title>
<ellipse fill="none" stroke="blue" cx="2925.39" cy="-178" rx="85.29" ry="18"/>
<text text-anchor="middle" x="2925.39" y="-174.3" font-family="Times,serif" font-size="14.00">frequency value</text>
</g>
<!-- variant to phenotypic feature association&#45;&gt;frequency qualifier -->
<g id="edge20" class="edge">
<title>variant to phenotypic feature association&#45;&gt;frequency qualifier</title>
<path fill="none" stroke="blue" d="M2137.08,-251.9C2161.18,-250.06 2186,-248.34 2209.39,-247 2446.03,-233.48 2508.04,-264.48 2742.39,-229 2787.19,-222.22 2836.69,-208.29 2872.9,-196.85"/>
<polygon fill="blue" stroke="blue" points="2874.29,-200.08 2882.74,-193.7 2872.15,-193.41 2874.29,-200.08"/>
<text text-anchor="middle" x="2877.39" y="-217.8" font-family="Times,serif" font-size="14.00">frequency qualifier</text>
</g>
<!-- severity qualifier -->
<g id="node25" class="node">
<title>severity qualifier</title>
<ellipse fill="none" stroke="blue" cx="3104.39" cy="-178" rx="76.09" ry="18"/>
<text text-anchor="middle" x="3104.39" y="-174.3" font-family="Times,serif" font-size="14.00">severity value</text>
</g>
<!-- variant to phenotypic feature association&#45;&gt;severity qualifier -->
<g id="edge21" class="edge">
<title>variant to phenotypic feature association&#45;&gt;severity qualifier</title>
<path fill="none" stroke="blue" d="M2135.66,-251.82C2160.2,-249.96 2185.54,-248.25 2209.39,-247 2373.66,-238.39 2787.22,-256.53 2949.39,-229 2987.13,-222.59 3028.29,-208.98 3058.7,-197.58"/>
<polygon fill="blue" stroke="blue" points="3060.09,-200.8 3068.19,-193.97 3057.59,-194.26 3060.09,-200.8"/>
<text text-anchor="middle" x="3071.39" y="-217.8" font-family="Times,serif" font-size="14.00">severity qualifier</text>
</g>
<!-- onset qualifier -->
<g id="node26" class="node">
<title>onset qualifier</title>
<ellipse fill="none" stroke="blue" cx="3234.39" cy="-178" rx="36.29" ry="18"/>
<text text-anchor="middle" x="3234.39" y="-174.3" font-family="Times,serif" font-size="14.00">onset</text>
</g>
<!-- variant to phenotypic feature association&#45;&gt;onset qualifier -->
<g id="edge22" class="edge">
<title>variant to phenotypic feature association&#45;&gt;onset qualifier</title>
<path fill="none" stroke="blue" d="M2135.09,-251.76C2159.8,-249.9 2185.35,-248.2 2209.39,-247 2312.29,-241.86 3036.47,-254.05 3136.39,-229 3160.91,-222.85 3186.27,-209.7 3205.05,-198.43"/>
<polygon fill="blue" stroke="blue" points="3207.04,-201.31 3213.71,-193.08 3203.36,-195.36 3207.04,-201.31"/>
<text text-anchor="middle" x="3227.89" y="-217.8" font-family="Times,serif" font-size="14.00">onset qualifier</text>
</g>
<!-- sex qualifier -->
<g id="node27" class="node">
<title>sex qualifier</title>
<ellipse fill="none" stroke="blue" cx="3362.39" cy="-178" rx="73.39" ry="18"/>
<text text-anchor="middle" x="3362.39" y="-174.3" font-family="Times,serif" font-size="14.00">biological sex</text>
</g>
<!-- variant to phenotypic feature association&#45;&gt;sex qualifier -->
<g id="edge23" class="edge">
<title>variant to phenotypic feature association&#45;&gt;sex qualifier</title>
<path fill="none" stroke="blue" d="M2134.8,-251.73C2159.6,-249.87 2185.26,-248.17 2209.39,-247 2269,-244.1 3226.22,-246.09 3283.39,-229 3302.11,-223.4 3320.7,-212.01 3335.13,-201.52"/>
<polygon fill="blue" stroke="blue" points="3337.25,-204.31 3343.12,-195.49 3333.03,-198.72 3337.25,-204.31"/>
<text text-anchor="middle" x="3359.39" y="-217.8" font-family="Times,serif" font-size="14.00">sex qualifier</text>
</g>
<!-- object&#45;&gt;relation -->
<g id="edge26" class="edge">
<title>object&#45;&gt;relation</title>
<path fill="none" stroke="black" stroke-dasharray="1,5" d="M2388.39,-72.81C2388.39,-64.79 2388.39,-55.05 2388.39,-46.07"/>
<polygon fill="black" stroke="black" points="2391.89,-46.03 2388.39,-36.03 2384.89,-46.03 2391.89,-46.03"/>
</g>
<!-- association_type -->
<g id="node19" class="node">
<title>association_type</title>
<ellipse fill="none" stroke="blue" cx="2256.39" cy="-265" rx="38.19" ry="18"/>
<text text-anchor="middle" x="2256.39" y="-261.3" font-family="Times,serif" font-size="14.00">string</text>
</g>
<!-- association_category -->
<g id="node21" class="node">
<title>association_category</title>
<ellipse fill="none" stroke="blue" cx="2387.39" cy="-265" rx="74.99" ry="18"/>
<text text-anchor="middle" x="2387.39" y="-261.3" font-family="Times,serif" font-size="14.00">category type</text>
</g>
<!-- subject&#45;&gt;object -->
<g id="edge24" class="edge">
<title>subject&#45;&gt;object</title>
<path fill="none" stroke="black" d="M2745.83,-165.63C2738.82,-163.5 2731.41,-161.48 2724.39,-160 2653.51,-145.05 2633.46,-156.05 2562.39,-142 2520.02,-133.62 2472.99,-119.83 2438.52,-108.85"/>
<polygon fill="black" stroke="black" points="2439.29,-105.42 2428.7,-105.69 2437.15,-112.08 2439.29,-105.42"/>
<text text-anchor="middle" x="2590.39" y="-130.8" font-family="Times,serif" font-size="14.00">relation</text>
</g>
<!-- subject&#45;&gt;relation -->
<g id="edge25" class="edge">
<title>subject&#45;&gt;relation</title>
<path fill="none" stroke="black" stroke-dasharray="1,5" d="M2748.12,-164.73C2679.38,-136.89 2511.35,-68.81 2431.67,-36.53"/>
<polygon fill="black" stroke="black" points="2432.53,-33.1 2421.95,-32.59 2429.9,-39.59 2432.53,-33.1"/>
</g>
<!-- variant to phenotypic feature association_subject -->
<g id="node23" class="node">
<title>variant to phenotypic feature association_subject</title>
<ellipse fill="none" stroke="blue" cx="2570.39" cy="-265" rx="90.18" ry="18"/>
<text text-anchor="middle" x="2570.39" y="-261.3" font-family="Times,serif" font-size="14.00">sequence variant</text>
</g>
</g>
</svg>
