<?xml version="1.0" encoding="UTF-8" standalone="no"?>
<!DOCTYPE svg PUBLIC "-//W3C//DTD SVG 1.1//EN"
 "http://www.w3.org/Graphics/SVG/1.1/DTD/svg11.dtd">
<!-- Generated by graphviz version 2.40.1 (20161225.0304)
 -->
<!-- Title: %3 Pages: 1 -->
<svg width="2350pt" height="289pt"
 viewBox="0.00 0.00 2349.56 289.00" xmlns="http://www.w3.org/2000/svg" xmlns:xlink="http://www.w3.org/1999/xlink">
<g id="graph0" class="graph" transform="scale(1 1) rotate(0) translate(4 285)">
<title>%3</title>
<polygon fill="#ffffff" stroke="transparent" points="-4,4 -4,-285 2345.5576,-285 2345.5576,4 -4,4"/>
<!-- variant to phenotypic feature association -->
<g id="node1" class="node">
<title>variant to phenotypic feature association</title>
<ellipse fill="none" stroke="#000000" cx="1342.4015" cy="-263" rx="153.5304" ry="18"/>
<text text-anchor="middle" x="1342.4015" y="-258.8" font-family="Times,serif" font-size="14.00" fill="#000000">variant to phenotypic feature association</text>
</g>
<!-- association -->
<g id="node2" class="node">
<title>association</title>
<ellipse fill="none" stroke="#000000" cx="49.4015" cy="-177" rx="49.3032" ry="18"/>
<text text-anchor="middle" x="49.4015" y="-172.8" font-family="Times,serif" font-size="14.00" fill="#000000">association</text>
</g>
<!-- variant to phenotypic feature association&#45;&gt;association -->
<g id="edge1" class="edge">
<title>variant to phenotypic feature association&#45;&gt;association</title>
<path fill="none" stroke="#000000" d="M1191.7937,-259.3101C1014.6035,-254.4135 711.6172,-244.3051 451.8498,-227 298.4425,-216.7804 258.1818,-225.0593 107.4015,-195 103.3302,-194.1884 99.1393,-193.2006 94.9617,-192.11"/>
<polygon fill="#000000" stroke="#000000" points="95.8739,-188.7309 85.301,-189.4134 93.9918,-195.4732 95.8739,-188.7309"/>
<text text-anchor="middle" x="463.6774" y="-215.8" font-family="Times,serif" font-size="14.00" fill="#000000">is_a</text>
</g>
<!-- variant to thing association -->
<g id="node3" class="node">
<title>variant to thing association</title>
<ellipse fill="none" stroke="#000000" cx="222.4015" cy="-177" rx="105.7897" ry="18"/>
<text text-anchor="middle" x="222.4015" y="-172.8" font-family="Times,serif" font-size="14.00" fill="#000000">variant to thing association</text>
</g>
<!-- variant to phenotypic feature association&#45;&gt;variant to thing association -->
<g id="edge2" class="edge">
<title>variant to phenotypic feature association&#45;&gt;variant to thing association</title>
<path fill="none" stroke="#000000" d="M1193.8308,-258.3842C1047.3275,-253.1798 817.1302,-243.2524 618.2912,-227 493.0614,-216.7642 461.9166,-211.8298 337.4015,-195 328.1863,-193.7544 318.5683,-192.3751 308.9902,-190.9503"/>
<polygon fill="#000000" stroke="#000000" points="309.4512,-187.4803 299.0416,-189.4527 308.4092,-194.4024 309.4512,-187.4803"/>
<text text-anchor="middle" x="630.4567" y="-215.8" font-family="Times,serif" font-size="14.00" fill="#000000">uses</text>
</g>
<!-- entity to phenotypic feature association -->
<g id="node4" class="node">
<title>entity to phenotypic feature association</title>
<ellipse fill="none" stroke="#000000" cx="495.4015" cy="-177" rx="149.2043" ry="18"/>
<text text-anchor="middle" x="495.4015" y="-172.8" font-family="Times,serif" font-size="14.00" fill="#000000">entity to phenotypic feature association</text>
</g>
<!-- variant to phenotypic feature association&#45;&gt;entity to phenotypic feature association -->
<g id="edge3" class="edge">
<title>variant to phenotypic feature association&#45;&gt;entity to phenotypic feature association</title>
<path fill="none" stroke="#000000" d="M1196.5598,-257.2445C1042.4164,-250.6788 809.6229,-239.2556 721.2912,-227 669.1385,-219.7641 611.1677,-206.8285 567.0115,-195.9277"/>
<polygon fill="#000000" stroke="#000000" points="567.788,-192.5142 557.2384,-193.4926 566.0955,-199.3065 567.788,-192.5142"/>
<text text-anchor="middle" x="733.4567" y="-215.8" font-family="Times,serif" font-size="14.00" fill="#000000">uses</text>
</g>
<!-- id -->
<g id="node5" class="node">
<title>id</title>
<ellipse fill="none" stroke="#000000" cx="689.4015" cy="-177" rx="27" ry="18"/>
</g>
<!-- variant to phenotypic feature association&#45;&gt;id -->
<g id="edge4" class="edge">
<title>variant to phenotypic feature association&#45;&gt;id</title>
<path fill="none" stroke="#000000" d="M1190.5294,-260.2961C1051.992,-256.5399 858.0303,-247.6812 784.5119,-227 760.3929,-220.2152 735.4025,-206.7871 717.0937,-195.5539"/>
<polygon fill="#000000" stroke="#000000" points="718.7491,-192.4601 708.4226,-190.0909 715.0178,-198.3828 718.7491,-192.4601"/>
<text text-anchor="middle" x="790.8463" y="-215.8" font-family="Times,serif" font-size="14.00" fill="#000000">id</text>
</g>
<!-- name -->
<g id="node6" class="node">
<title>name</title>
<ellipse fill="none" stroke="#000000" cx="761.4015" cy="-177" rx="27" ry="18"/>
</g>
<!-- variant to phenotypic feature association&#45;&gt;name -->
<g id="edge5" class="edge">
<title>variant to phenotypic feature association&#45;&gt;name</title>
<path fill="none" stroke="#000000" d="M1196.2306,-257.3712C1054.8292,-251.1993 857.035,-240.3715 823.0841,-227 808.0153,-221.0652 793.7864,-210.0471 782.8,-199.8613"/>
<polygon fill="#000000" stroke="#000000" points="785.0181,-197.1363 775.4078,-192.6762 780.1391,-202.1559 785.0181,-197.1363"/>
<text text-anchor="middle" x="838.5602" y="-215.8" font-family="Times,serif" font-size="14.00" fill="#000000">name</text>
</g>
<!-- category -->
<g id="node7" class="node">
<title>category</title>
<ellipse fill="none" stroke="#000000" cx="833.4015" cy="-177" rx="27" ry="18"/>
</g>
<!-- variant to phenotypic feature association&#45;&gt;category -->
<g id="edge6" class="edge">
<title>variant to phenotypic feature association&#45;&gt;category</title>
<path fill="none" stroke="#000000" d="M1195.8292,-257.6169C1068.8913,-251.9956 901.3131,-241.9006 873.2082,-227 862.9563,-221.5647 854.4375,-212.2262 847.9466,-203.0805"/>
<polygon fill="#000000" stroke="#000000" points="850.7484,-200.9693 842.3544,-194.5047 844.8849,-204.7929 850.7484,-200.9693"/>
<text text-anchor="middle" x="897.4982" y="-215.8" font-family="Times,serif" font-size="14.00" fill="#000000">category</text>
</g>
<!-- related to -->
<g id="node8" class="node">
<title>related to</title>
<ellipse fill="none" stroke="#000000" cx="905.4015" cy="-177" rx="27" ry="18"/>
</g>
<!-- variant to phenotypic feature association&#45;&gt;related to -->
<g id="edge7" class="edge">
<title>variant to phenotypic feature association&#45;&gt;related to</title>
<path fill="none" stroke="#000000" d="M1199.7881,-256.2777C1092.8949,-250.234 961.3383,-240.2675 938.9289,-227 929.8511,-221.6255 922.7196,-212.7161 917.4108,-203.8949"/>
<polygon fill="#000000" stroke="#000000" points="920.3722,-202.0133 912.5332,-194.8859 914.2166,-205.3462 920.3722,-202.0133"/>
<text text-anchor="middle" x="965.6378" y="-215.8" font-family="Times,serif" font-size="14.00" fill="#000000">related to</text>
</g>
<!-- node property -->
<g id="node9" class="node">
<title>node property</title>
<ellipse fill="none" stroke="#000000" cx="977.4015" cy="-177" rx="27" ry="18"/>
</g>
<!-- variant to phenotypic feature association&#45;&gt;node property -->
<g id="edge8" class="edge">
<title>variant to phenotypic feature association&#45;&gt;node property</title>
<path fill="none" stroke="#000000" d="M1208.9273,-254.0674C1123.8711,-247.429 1026.4967,-237.7005 1009.2599,-227 1000.4331,-221.5204 993.6141,-212.5887 988.5918,-203.7791"/>
<polygon fill="#000000" stroke="#000000" points="991.6667,-202.1046 983.9997,-194.7925 985.4334,-205.2899 991.6667,-202.1046"/>
<text text-anchor="middle" x="1048.4723" y="-215.8" font-family="Times,serif" font-size="14.00" fill="#000000">node property</text>
</g>
<!-- iri -->
<g id="node10" class="node">
<title>iri</title>
<ellipse fill="none" stroke="#000000" cx="1049.4015" cy="-177" rx="27" ry="18"/>
</g>
<!-- variant to phenotypic feature association&#45;&gt;iri -->
<g id="edge9" class="edge">
<title>variant to phenotypic feature association&#45;&gt;iri</title>
<path fill="none" stroke="#000000" d="M1230.4329,-250.6374C1183.6156,-244.3823 1135.2003,-236.1723 1113.9601,-227 1098.5213,-220.3329 1083.5285,-209.1086 1071.8834,-198.9821"/>
<polygon fill="#000000" stroke="#000000" points="1074.1592,-196.3213 1064.3919,-192.2163 1069.4674,-201.5163 1074.1592,-196.3213"/>
<text text-anchor="middle" x="1120.6222" y="-215.8" font-family="Times,serif" font-size="14.00" fill="#000000">iri</text>
</g>
<!-- full name -->
<g id="node11" class="node">
<title>full name</title>
<ellipse fill="none" stroke="#000000" cx="1121.4015" cy="-177" rx="27" ry="18"/>
</g>
<!-- variant to phenotypic feature association&#45;&gt;full name -->
<g id="edge10" class="edge">
<title>variant to phenotypic feature association&#45;&gt;full name</title>
<path fill="none" stroke="#000000" d="M1222.5319,-251.6899C1186.8662,-246.1971 1153.6778,-238.266 1140.1427,-227 1133.4563,-221.4345 1129.1536,-213.2304 1126.3856,-205.0702"/>
<polygon fill="#000000" stroke="#000000" points="1129.7318,-204.0378 1123.7132,-195.3184 1122.9807,-205.8879 1129.7318,-204.0378"/>
<text text-anchor="middle" x="1167.0309" y="-215.8" font-family="Times,serif" font-size="14.00" fill="#000000">full name</text>
</g>
<!-- description -->
<g id="node12" class="node">
<title>description</title>
<ellipse fill="none" stroke="#000000" cx="1193.4015" cy="-177" rx="27" ry="18"/>
</g>
<!-- variant to phenotypic feature association&#45;&gt;description -->
<g id="edge11" class="edge">
<title>variant to phenotypic feature association&#45;&gt;description</title>
<path fill="none" stroke="#000000" d="M1256.8157,-247.9513C1233.9221,-242.3408 1213.2762,-235.2861 1205.1945,-227 1199.5656,-221.2288 1196.4415,-213.2995 1194.755,-205.4556"/>
<polygon fill="#000000" stroke="#000000" points="1198.1917,-204.7677 1193.2765,-195.382 1191.2659,-205.7843 1198.1917,-204.7677"/>
<text text-anchor="middle" x="1236.505" y="-215.8" font-family="Times,serif" font-size="14.00" fill="#000000">description</text>
</g>
<!-- systematic synonym -->
<g id="node13" class="node">
<title>systematic synonym</title>
<ellipse fill="none" stroke="#000000" cx="1274.4015" cy="-177" rx="27" ry="18"/>
</g>
<!-- variant to phenotypic feature association&#45;&gt;systematic synonym -->
<g id="edge12" class="edge">
<title>variant to phenotypic feature association&#45;&gt;systematic synonym</title>
<path fill="none" stroke="#000000" d="M1295.0426,-245.8658C1287.2741,-240.9593 1280.2204,-234.7649 1275.4669,-227 1271.4777,-220.4835 1270.1052,-212.5389 1270.0218,-204.918"/>
<polygon fill="#000000" stroke="#000000" points="1273.5186,-205.0709 1270.5823,-194.8911 1266.5295,-204.6801 1273.5186,-205.0709"/>
<text text-anchor="middle" x="1333.3688" y="-215.8" font-family="Times,serif" font-size="14.00" fill="#000000">systematic synonym</text>
</g>
<!-- association type -->
<g id="node14" class="node">
<title>association type</title>
<ellipse fill="none" stroke="#000000" cx="1411.4015" cy="-177" rx="27" ry="18"/>
</g>
<!-- variant to phenotypic feature association&#45;&gt;association type -->
<g id="edge13" class="edge">
<title>variant to phenotypic feature association&#45;&gt;association type</title>
<path fill="none" stroke="#000000" d="M1370.3189,-245.2791C1377.1747,-239.9995 1384.0683,-233.7896 1389.4015,-227 1394.6739,-220.2878 1398.9583,-212.1153 1402.2977,-204.3389"/>
<polygon fill="#000000" stroke="#000000" points="1405.6301,-205.4278 1406.0254,-194.8403 1399.114,-202.8705 1405.6301,-205.4278"/>
<text text-anchor="middle" x="1443.3068" y="-215.8" font-family="Times,serif" font-size="14.00" fill="#000000">association type</text>
</g>
<!-- negated -->
<g id="node15" class="node">
<title>negated</title>
<ellipse fill="none" stroke="#000000" cx="1507.4015" cy="-177" rx="27" ry="18"/>
</g>
<!-- variant to phenotypic feature association&#45;&gt;negated -->
<g id="edge14" class="edge">
<title>variant to phenotypic feature association&#45;&gt;negated</title>
<path fill="none" stroke="#000000" d="M1434.7953,-248.5641C1460.1189,-242.9511 1483.1585,-235.7402 1492.4015,-227 1498.5132,-221.2208 1502.1649,-213.06 1504.3371,-205.0042"/>
<polygon fill="#000000" stroke="#000000" points="1507.7995,-205.5414 1506.371,-195.0433 1500.9411,-204.1409 1507.7995,-205.5414"/>
<text text-anchor="middle" x="1524.1671" y="-215.8" font-family="Times,serif" font-size="14.00" fill="#000000">negated</text>
</g>
<!-- relation -->
<g id="node16" class="node">
<title>relation</title>
<ellipse fill="none" stroke="#000000" cx="1785.4015" cy="-18" rx="27" ry="18"/>
</g>
<!-- variant to phenotypic feature association&#45;&gt;relation -->
<g id="edge15" class="edge">
<title>variant to phenotypic feature association&#45;&gt;relation</title>
<path fill="none" stroke="#000000" d="M1463.3865,-251.899C1500.768,-246.3887 1535.933,-238.3928 1550.4015,-227 1588.4448,-197.044 1561.3148,-163.0494 1593.6427,-127 1637.6667,-77.9081 1709.226,-45.5422 1751.3597,-29.6124"/>
<polygon fill="#000000" stroke="#000000" points="1752.7235,-32.84 1760.8964,-26.098 1750.303,-26.2718 1752.7235,-32.84"/>
<text text-anchor="middle" x="1615.7809" y="-129.8" font-family="Times,serif" font-size="14.00" fill="#000000">relation</text>
</g>
<!-- object -->
<g id="node17" class="node">
<title>object</title>
<ellipse fill="none" stroke="#000000" cx="1785.4015" cy="-91" rx="27" ry="18"/>
</g>
<!-- variant to phenotypic feature association&#45;&gt;object -->
<g id="edge16" class="edge">
<title>variant to phenotypic feature association&#45;&gt;object</title>
<path fill="none" stroke="#000000" d="M1450.2906,-250.1706C1516.0372,-241.9233 1588.5551,-231.871 1594.4015,-227 1618.8905,-206.5967 1595.3506,-182.2131 1617.1945,-159 1652.3158,-121.6773 1710.7385,-104.3286 1748.6571,-96.6405"/>
<polygon fill="#000000" stroke="#000000" points="1749.6005,-100.024 1758.7719,-94.7197 1748.2945,-93.1469 1749.6005,-100.024"/>
<text text-anchor="middle" x="1634.505" y="-172.8" font-family="Times,serif" font-size="14.00" fill="#000000">object</text>
</g>
<!-- qualifiers -->
<g id="node18" class="node">
<title>qualifiers</title>
<ellipse fill="none" stroke="#000000" cx="1687.4015" cy="-177" rx="27" ry="18"/>
</g>
<!-- variant to phenotypic feature association&#45;&gt;qualifiers -->
<g id="edge17" class="edge">
<title>variant to phenotypic feature association&#45;&gt;qualifiers</title>
<path fill="none" stroke="#000000" d="M1450.8031,-250.1774C1524.9691,-241.1971 1611.3145,-230.2454 1619.4015,-227 1628.5236,-223.3392 1646.7595,-209.784 1662.0518,-197.71"/>
<polygon fill="#000000" stroke="#000000" points="1664.5392,-200.2027 1670.1682,-191.2268 1660.1704,-194.7333 1664.5392,-200.2027"/>
<text text-anchor="middle" x="1668.4533" y="-215.8" font-family="Times,serif" font-size="14.00" fill="#000000">qualifiers</text>
</g>
<!-- publications -->
<g id="node19" class="node">
<title>publications</title>
<ellipse fill="none" stroke="#000000" cx="1759.4015" cy="-177" rx="27" ry="18"/>
</g>
<!-- variant to phenotypic feature association&#45;&gt;publications -->
<g id="edge18" class="edge">
<title>variant to phenotypic feature association&#45;&gt;publications</title>
<path fill="none" stroke="#000000" d="M1453.2939,-250.5278C1470.7271,-248.6324 1488.5503,-246.7328 1505.4015,-245 1589.339,-236.3689 1615.8952,-257.9315 1694.4015,-227 1703.2868,-223.4992 1720.7101,-209.9363 1735.2827,-197.8187"/>
<polygon fill="#000000" stroke="#000000" points="1737.6187,-200.4273 1743.013,-191.3085 1733.1095,-195.0731 1737.6187,-200.4273"/>
<text text-anchor="middle" x="1750.6188" y="-215.8" font-family="Times,serif" font-size="14.00" fill="#000000">publications</text>
</g>
<!-- provided by -->
<g id="node20" class="node">
<title>provided by</title>
<ellipse fill="none" stroke="#000000" cx="1831.4015" cy="-177" rx="27" ry="18"/>
</g>
<!-- variant to phenotypic feature association&#45;&gt;provided by -->
<g id="edge19" class="edge">
<title>variant to phenotypic feature association&#45;&gt;provided by</title>
<path fill="none" stroke="#000000" d="M1451.4932,-250.2547C1469.4891,-248.353 1487.9584,-246.523 1505.4015,-245 1567.5159,-239.5767 1729.1398,-253.8742 1785.4015,-227 1796.9264,-221.495 1806.9315,-211.7016 1814.6407,-202.2324"/>
<polygon fill="#000000" stroke="#000000" points="1817.5473,-204.1921 1820.8048,-194.1105 1811.9713,-199.9602 1817.5473,-204.1921"/>
<text text-anchor="middle" x="1839.0343" y="-215.8" font-family="Times,serif" font-size="14.00" fill="#000000">provided by</text>
</g>
<!-- association slot -->
<g id="node21" class="node">
<title>association slot</title>
<ellipse fill="none" stroke="#000000" cx="1903.4015" cy="-177" rx="27" ry="18"/>
</g>
<!-- variant to phenotypic feature association&#45;&gt;association slot -->
<g id="edge20" class="edge">
<title>variant to phenotypic feature association&#45;&gt;association slot</title>
<path fill="none" stroke="#000000" d="M1450.1575,-250.1565C1468.57,-248.2325 1487.5214,-246.4208 1505.4015,-245 1546.4319,-241.7396 1840.4081,-248.6699 1875.4015,-227 1883.8494,-221.7686 1889.9674,-213.0087 1894.2877,-204.2699"/>
<polygon fill="#000000" stroke="#000000" points="1897.5547,-205.5325 1898.2952,-194.9635 1891.1254,-202.7639 1897.5547,-205.5325"/>
<text text-anchor="middle" x="1932.3688" y="-215.8" font-family="Times,serif" font-size="14.00" fill="#000000">association slot</text>
</g>
<!-- severity qualifier -->
<g id="node22" class="node">
<title>severity qualifier</title>
<ellipse fill="none" stroke="#000000" cx="2006.4015" cy="-177" rx="27" ry="18"/>
</g>
<!-- variant to phenotypic feature association&#45;&gt;severity qualifier -->
<g id="edge21" class="edge">
<title>variant to phenotypic feature association&#45;&gt;severity qualifier</title>
<path fill="none" stroke="#000000" d="M1449.7067,-250.0394C1468.258,-248.1168 1487.3721,-246.3361 1505.4015,-245 1531.6818,-243.0525 1957.0298,-240.9267 1979.4015,-227 1987.7662,-221.7929 1993.7137,-213.0384 1997.8569,-204.297"/>
<polygon fill="#000000" stroke="#000000" points="2001.1195,-205.5657 2001.6737,-194.9854 1994.6425,-202.9108 2001.1195,-205.5657"/>
<text text-anchor="middle" x="2039.6378" y="-215.8" font-family="Times,serif" font-size="14.00" fill="#000000">severity qualifier</text>
</g>
<!-- onset qualifier -->
<g id="node23" class="node">
<title>onset qualifier</title>
<ellipse fill="none" stroke="#000000" cx="2123.4015" cy="-177" rx="27" ry="18"/>
</g>
<!-- variant to phenotypic feature association&#45;&gt;onset qualifier -->
<g id="edge22" class="edge">
<title>variant to phenotypic feature association&#45;&gt;onset qualifier</title>
<path fill="none" stroke="#000000" d="M1448.8227,-250.0197C1467.6486,-248.0744 1487.0834,-246.2912 1505.4015,-245 1537.8364,-242.7137 2062.0095,-242.8475 2090.4015,-227 2099.8012,-221.7534 2106.9944,-212.5764 2112.2288,-203.5046"/>
<polygon fill="#000000" stroke="#000000" points="2115.3397,-205.1084 2116.8195,-194.6175 2109.1204,-201.8958 2115.3397,-205.1084"/>
<text text-anchor="middle" x="2146.255" y="-215.8" font-family="Times,serif" font-size="14.00" fill="#000000">onset qualifier</text>
</g>
<!-- sex qualifier -->
<g id="node24" class="node">
<title>sex qualifier</title>
<ellipse fill="none" stroke="#000000" cx="2226.4015" cy="-177" rx="27" ry="18"/>
</g>
<!-- variant to phenotypic feature association&#45;&gt;sex qualifier -->
<g id="edge23" class="edge">
<title>variant to phenotypic feature association&#45;&gt;sex qualifier</title>
<path fill="none" stroke="#000000" d="M1448.8179,-249.9507C1467.6443,-248.0129 1487.0806,-246.2501 1505.4015,-245 1543.3819,-242.4085 2156.7502,-244.7992 2190.4015,-227 2200.1878,-221.8238 2207.9453,-212.6602 2213.715,-203.5795"/>
<polygon fill="#000000" stroke="#000000" points="2216.882,-205.0927 2218.8235,-194.6772 2210.8106,-201.6086 2216.882,-205.0927"/>
<text text-anchor="middle" x="2240.8102" y="-215.8" font-family="Times,serif" font-size="14.00" fill="#000000">sex qualifier</text>
</g>
<!-- subject -->
<g id="node25" class="node">
<title>subject</title>
<ellipse fill="none" stroke="#000000" cx="2306.4015" cy="-177" rx="35.3129" ry="18"/>
<text text-anchor="middle" x="2306.4015" y="-172.8" font-family="Times,serif" font-size="14.00" fill="#000000">subject</text>
</g>
<!-- variant to phenotypic feature association&#45;&gt;subject -->
<g id="edge24" class="edge">
<title>variant to phenotypic feature association&#45;&gt;subject</title>
<path fill="none" stroke="#0000ff" d="M1448.377,-249.9493C1467.3401,-247.9987 1486.9367,-246.2319 1505.4015,-245 1548.3177,-242.1368 2242.7209,-249.4617 2279.4015,-227 2287.8042,-221.8545 2293.7601,-213.1136 2297.8994,-204.3658"/>
<polygon fill="#0000ff" stroke="#0000ff" points="2301.1671,-205.6217 2301.7078,-195.0407 2294.6867,-202.9751 2301.1671,-205.6217"/>
<text text-anchor="middle" x="2311.2292" y="-215.8" font-family="Times,serif" font-size="14.00" fill="#000000">subject</text>
</g>
<!-- object&#45;&gt;relation -->
<g id="edge27" class="edge">
<title>object&#45;&gt;relation</title>
<path fill="none" stroke="#000000" stroke-dasharray="1,5" d="M1785.4015,-72.9551C1785.4015,-64.8828 1785.4015,-55.1764 1785.4015,-46.1817"/>
<polygon fill="#000000" stroke="#000000" points="1788.9016,-46.0903 1785.4015,-36.0904 1781.9016,-46.0904 1788.9016,-46.0903"/>
</g>
<!-- subject&#45;&gt;relation -->
<g id="edge26" class="edge">
<title>subject&#45;&gt;relation</title>
<path fill="none" stroke="#000000" stroke-dasharray="1,5" d="M2279.104,-165.3343C2273.6119,-163.1286 2267.8523,-160.915 2262.4015,-159 2099.6353,-101.8141 1900.4136,-48.0124 1820.7619,-27.1398"/>
<polygon fill="#000000" stroke="#000000" points="1821.3305,-23.6709 1810.7705,-24.5302 1819.5615,-30.4437 1821.3305,-23.6709"/>
</g>
<!-- subject&#45;&gt;object -->
<g id="edge25" class="edge">
<title>subject&#45;&gt;object</title>
<path fill="none" stroke="#000000" d="M2280.2794,-164.9299C2274.4931,-162.6489 2268.3198,-160.5085 2262.4015,-159 2192.3061,-141.1338 2172.3302,-150.6684 2100.6427,-141 1999.3624,-127.3405 1880.3998,-107.412 1821.7967,-97.3364"/>
<polygon fill="#000000" stroke="#000000" points="1822.3599,-93.882 1811.9106,-95.6316 1821.1703,-100.7802 1822.3599,-93.882"/>
<text text-anchor="middle" x="2122.7809" y="-129.8" font-family="Times,serif" font-size="14.00" fill="#000000">relation</text>
</g>
<!-- variant to phenotypic feature association subject -->
<g id="node26" class="node">
<title>variant to phenotypic feature association subject</title>
<ellipse fill="none" stroke="#0000ff" cx="1541.4015" cy="-263" rx="27" ry="18"/>
</g>
</g>
</svg>
