<?xml version="1.0" encoding="UTF-8" standalone="no"?>
<!DOCTYPE svg PUBLIC "-//W3C//DTD SVG 1.1//EN"
 "http://www.w3.org/Graphics/SVG/1.1/DTD/svg11.dtd">
<!-- Generated by graphviz version 2.40.1 (20161225.0304)
 -->
<!-- Title: %3 Pages: 1 -->
<svg width="2562pt" height="291pt"
 viewBox="0.00 0.00 2562.05 291.00" xmlns="http://www.w3.org/2000/svg" xmlns:xlink="http://www.w3.org/1999/xlink">
<g id="graph0" class="graph" transform="scale(1 1) rotate(0) translate(4 287)">
<title>%3</title>
<polygon fill="#ffffff" stroke="transparent" points="-4,4 -4,-287 2558.0456,-287 2558.0456,4 -4,4"/>
<!-- variant to disease association -->
<g id="node1" class="node">
<title>variant to disease association</title>
<ellipse fill="none" stroke="#000000" cx="1422.0456" cy="-265" rx="113.9803" ry="18"/>
<text text-anchor="middle" x="1422.0456" y="-261.3" font-family="Times,serif" font-size="14.00" fill="#000000">variant to disease association</text>
</g>
<!-- association -->
<g id="node2" class="node">
<title>association</title>
<ellipse fill="none" stroke="#000000" cx="50.0456" cy="-178" rx="50.0912" ry="18"/>
<text text-anchor="middle" x="50.0456" y="-174.3" font-family="Times,serif" font-size="14.00" fill="#000000">association</text>
</g>
<!-- variant to disease association&#45;&gt;association -->
<g id="edge1" class="edge">
<title>variant to disease association&#45;&gt;association</title>
<path fill="none" stroke="#000000" d="M1309.4739,-262.2863C1135.2382,-257.7096 789.7835,-247.1358 497.0456,-229 324.3097,-218.2986 278.9824,-228.767 109.0456,-196 104.9051,-195.2016 100.6425,-194.223 96.3934,-193.1385"/>
<polygon fill="#000000" stroke="#000000" points="97.136,-189.7132 86.5669,-190.4508 95.2892,-196.4651 97.136,-189.7132"/>
<text text-anchor="middle" x="508.0456" y="-217.8" font-family="Times,serif" font-size="14.00" fill="#000000">is_a</text>
</g>
<!-- variant to thing association mixin -->
<g id="node3" class="node">
<title>variant to thing association mixin</title>
<ellipse fill="none" stroke="#000000" cx="248.0456" cy="-178" rx="129.9769" ry="18"/>
<text text-anchor="middle" x="248.0456" y="-174.3" font-family="Times,serif" font-size="14.00" fill="#000000">variant to thing association mixin</text>
</g>
<!-- variant to disease association&#45;&gt;variant to thing association mixin -->
<g id="edge2" class="edge">
<title>variant to disease association&#45;&gt;variant to thing association mixin</title>
<path fill="none" stroke="#000000" d="M1309.4021,-262.2764C1160.385,-258.0803 889.6398,-248.4018 659.0456,-229 537.699,-218.7901 507.8745,-211.1529 387.0456,-196 375.9345,-194.6066 364.3263,-193.1325 352.7589,-191.6517"/>
<polygon fill="#000000" stroke="#000000" points="352.9817,-188.1517 342.6176,-190.3506 352.0908,-195.0948 352.9817,-188.1517"/>
<text text-anchor="middle" x="671.0456" y="-217.8" font-family="Times,serif" font-size="14.00" fill="#000000">uses</text>
</g>
<!-- thing to disease association mixin -->
<g id="node4" class="node">
<title>thing to disease association mixin</title>
<ellipse fill="none" stroke="#000000" cx="527.0456" cy="-178" rx="130.777" ry="18"/>
<text text-anchor="middle" x="527.0456" y="-174.3" font-family="Times,serif" font-size="14.00" fill="#000000">thing to disease association mixin</text>
</g>
<!-- variant to disease association&#45;&gt;thing to disease association mixin -->
<g id="edge3" class="edge">
<title>variant to disease association&#45;&gt;thing to disease association mixin</title>
<path fill="none" stroke="#000000" d="M1311.2273,-260.7868C1154.5583,-254.4931 876.232,-241.9807 776.0456,-229 716.5798,-221.2953 650.0855,-207.4002 600.7797,-196.0575"/>
<polygon fill="#000000" stroke="#000000" points="601.374,-192.6025 590.8418,-193.7524 599.7923,-199.4215 601.374,-192.6025"/>
<text text-anchor="middle" x="788.0456" y="-217.8" font-family="Times,serif" font-size="14.00" fill="#000000">uses</text>
</g>
<!-- id -->
<g id="node5" class="node">
<title>id</title>
<ellipse fill="none" stroke="#0000ff" cx="706.0456" cy="-178" rx="30.5947" ry="18"/>
<text text-anchor="middle" x="706.0456" y="-174.3" font-family="Times,serif" font-size="14.00" fill="#000000">string</text>
</g>
<!-- variant to disease association&#45;&gt;id -->
<g id="edge4" class="edge">
<title>variant to disease association&#45;&gt;id</title>
<path fill="none" stroke="#0000ff" d="M1312.8234,-259.9743C1179.3424,-253.4397 961.3424,-241.3899 881.0456,-229 820.0014,-219.5808 804.4533,-216.0909 746.0456,-196 743.7975,-195.2267 741.5028,-194.3743 739.2064,-193.4737"/>
<polygon fill="#0000ff" stroke="#0000ff" points="740.4476,-190.1991 729.8709,-189.5781 737.7518,-196.6592 740.4476,-190.1991"/>
<text text-anchor="middle" x="886.5456" y="-217.8" font-family="Times,serif" font-size="14.00" fill="#000000">id</text>
</g>
<!-- iri -->
<g id="node6" class="node">
<title>iri</title>
<ellipse fill="none" stroke="#0000ff" cx="791.0456" cy="-178" rx="36.2938" ry="18"/>
<text text-anchor="middle" x="791.0456" y="-174.3" font-family="Times,serif" font-size="14.00" fill="#000000">iri type</text>
</g>
<!-- variant to disease association&#45;&gt;iri -->
<g id="edge5" class="edge">
<title>variant to disease association&#45;&gt;iri</title>
<path fill="none" stroke="#0000ff" d="M1310.1052,-261.6058C1217.1783,-257.4927 1081.8129,-248.4992 965.0456,-229 907.0989,-219.3234 892.9466,-214.0703 837.0456,-196 834.2916,-195.1098 831.4642,-194.1414 828.6307,-193.131"/>
<polygon fill="#0000ff" stroke="#0000ff" points="829.6639,-189.7813 819.0709,-189.586 827.2301,-196.3446 829.6639,-189.7813"/>
<text text-anchor="middle" x="971.5456" y="-217.8" font-family="Times,serif" font-size="14.00" fill="#000000">iri</text>
</g>
<!-- name -->
<g id="node7" class="node">
<title>name</title>
<ellipse fill="none" stroke="#0000ff" cx="891.0456" cy="-178" rx="45.4919" ry="18"/>
<text text-anchor="middle" x="891.0456" y="-174.3" font-family="Times,serif" font-size="14.00" fill="#000000">label type</text>
</g>
<!-- variant to disease association&#45;&gt;name -->
<g id="edge6" class="edge">
<title>variant to disease association&#45;&gt;name</title>
<path fill="none" stroke="#0000ff" d="M1316.5701,-258.1873C1220.511,-251.4402 1085.982,-240.4804 1034.0456,-229 998.3609,-221.112 959.3827,-206.808 931.1464,-195.3518"/>
<polygon fill="#0000ff" stroke="#0000ff" points="932.2094,-192.0045 921.6299,-191.4336 929.5443,-198.4773 932.2094,-192.0045"/>
<text text-anchor="middle" x="1049.5456" y="-217.8" font-family="Times,serif" font-size="14.00" fill="#000000">name</text>
</g>
<!-- description -->
<g id="node8" class="node">
<title>description</title>
<ellipse fill="none" stroke="#0000ff" cx="1012.0456" cy="-178" rx="57.6901" ry="18"/>
<text text-anchor="middle" x="1012.0456" y="-174.3" font-family="Times,serif" font-size="14.00" fill="#000000">narrative text</text>
</g>
<!-- variant to disease association&#45;&gt;description -->
<g id="edge7" class="edge">
<title>variant to disease association&#45;&gt;description</title>
<path fill="none" stroke="#0000ff" d="M1317.8156,-257.7129C1240.4195,-251.4627 1141.8381,-241.4948 1103.0456,-229 1082.3918,-222.3476 1061.138,-210.751 1044.3698,-200.2953"/>
<polygon fill="#0000ff" stroke="#0000ff" points="1045.8561,-197.0908 1035.5479,-194.6426 1042.0795,-202.9847 1045.8561,-197.0908"/>
<text text-anchor="middle" x="1133.5456" y="-217.8" font-family="Times,serif" font-size="14.00" fill="#000000">description</text>
</g>
<!-- source -->
<g id="node9" class="node">
<title>source</title>
<ellipse fill="none" stroke="#0000ff" cx="1133.0456" cy="-178" rx="45.4919" ry="18"/>
<text text-anchor="middle" x="1133.0456" y="-174.3" font-family="Times,serif" font-size="14.00" fill="#000000">label type</text>
</g>
<!-- variant to disease association&#45;&gt;source -->
<g id="edge8" class="edge">
<title>variant to disease association&#45;&gt;source</title>
<path fill="none" stroke="#0000ff" d="M1325.404,-255.4077C1273.2251,-249.1563 1214.7544,-240.1019 1191.0456,-229 1177.6918,-222.747 1165.1082,-212.4553 1155.0971,-202.7485"/>
<polygon fill="#0000ff" stroke="#0000ff" points="1157.484,-200.1842 1147.9729,-195.5163 1152.4971,-205.0966 1157.484,-200.1842"/>
<text text-anchor="middle" x="1209.0456" y="-217.8" font-family="Times,serif" font-size="14.00" fill="#000000">source</text>
</g>
<!-- provided by -->
<g id="node10" class="node">
<title>provided by</title>
<ellipse fill="none" stroke="#0000ff" cx="1226.0456" cy="-178" rx="29.795" ry="18"/>
<text text-anchor="middle" x="1226.0456" y="-174.3" font-family="Times,serif" font-size="14.00" fill="#000000">agent</text>
</g>
<!-- variant to disease association&#45;&gt;provided by -->
<g id="edge9" class="edge">
<title>variant to disease association&#45;&gt;provided by</title>
<path fill="none" stroke="#0000ff" d="M1326.1163,-255.2266C1289.4162,-249.6335 1253.1955,-241.228 1240.0456,-229 1233.64,-223.0436 1230.0631,-214.4577 1228.0967,-206.0243"/>
<polygon fill="#0000ff" stroke="#0000ff" points="1231.5213,-205.283 1226.4149,-195.9999 1224.6178,-206.4412 1231.5213,-205.283"/>
<text text-anchor="middle" x="1273.0456" y="-217.8" font-family="Times,serif" font-size="14.00" fill="#000000">provided by</text>
</g>
<!-- has attribute -->
<g id="node11" class="node">
<title>has attribute</title>
<ellipse fill="none" stroke="#0000ff" cx="1314.0456" cy="-178" rx="40.0939" ry="18"/>
<text text-anchor="middle" x="1314.0456" y="-174.3" font-family="Times,serif" font-size="14.00" fill="#000000">attribute</text>
</g>
<!-- variant to disease association&#45;&gt;has attribute -->
<g id="edge10" class="edge">
<title>variant to disease association&#45;&gt;has attribute</title>
<path fill="none" stroke="#0000ff" d="M1358.0179,-250.0783C1338.6134,-244.1954 1320.8712,-236.9411 1315.0456,-229 1310.3106,-222.5457 1308.7947,-214.291 1308.815,-206.312"/>
<polygon fill="#0000ff" stroke="#0000ff" points="1312.3188,-206.3923 1309.5849,-196.1563 1305.3389,-205.8631 1312.3188,-206.3923"/>
<text text-anchor="middle" x="1348.5456" y="-217.8" font-family="Times,serif" font-size="14.00" fill="#000000">has attribute</text>
</g>
<!-- relation -->
<g id="node12" class="node">
<title>relation</title>
<ellipse fill="none" stroke="#0000ff" cx="1948.0456" cy="-18" rx="45.4919" ry="18"/>
<text text-anchor="middle" x="1948.0456" y="-14.3" font-family="Times,serif" font-size="14.00" fill="#000000">uriorcurie</text>
</g>
<!-- variant to disease association&#45;&gt;relation -->
<g id="edge11" class="edge">
<title>variant to disease association&#45;&gt;relation</title>
<path fill="none" stroke="#0000ff" d="M1410.6491,-247.067C1397.876,-224.4467 1381.3677,-185.4384 1401.0456,-160 1461.6975,-81.5925 1767.407,-38.4916 1893.5209,-23.8115"/>
<polygon fill="#0000ff" stroke="#0000ff" points="1894.1861,-27.2583 1903.7217,-22.6407 1893.3878,-20.3039 1894.1861,-27.2583"/>
<text text-anchor="middle" x="1463.0456" y="-130.8" font-family="Times,serif" font-size="14.00" fill="#000000">relation</text>
</g>
<!-- negated -->
<g id="node13" class="node">
<title>negated</title>
<ellipse fill="none" stroke="#0000ff" cx="1448.0456" cy="-178" rx="38.1938" ry="18"/>
<text text-anchor="middle" x="1448.0456" y="-174.3" font-family="Times,serif" font-size="14.00" fill="#000000">boolean</text>
</g>
<!-- variant to disease association&#45;&gt;negated -->
<g id="edge12" class="edge">
<title>variant to disease association&#45;&gt;negated</title>
<path fill="none" stroke="#0000ff" d="M1427.4328,-246.9735C1430.9886,-235.0751 1435.7177,-219.2508 1439.7493,-205.7606"/>
<polygon fill="#0000ff" stroke="#0000ff" points="1443.1553,-206.5869 1442.6652,-196.0034 1436.4483,-204.5825 1443.1553,-206.5869"/>
<text text-anchor="middle" x="1458.5456" y="-217.8" font-family="Times,serif" font-size="14.00" fill="#000000">negated</text>
</g>
<!-- qualifiers -->
<g id="node14" class="node">
<title>qualifiers</title>
<ellipse fill="none" stroke="#0000ff" cx="1566.0456" cy="-178" rx="61.99" ry="18"/>
<text text-anchor="middle" x="1566.0456" y="-174.3" font-family="Times,serif" font-size="14.00" fill="#000000">ontology class</text>
</g>
<!-- variant to disease association&#45;&gt;qualifiers -->
<g id="edge13" class="edge">
<title>variant to disease association&#45;&gt;qualifiers</title>
<path fill="none" stroke="#0000ff" d="M1452.427,-247.6047C1462.5254,-241.7576 1473.8044,-235.156 1484.0456,-229 1499.6334,-219.63 1516.7355,-209.0429 1531.2692,-199.9528"/>
<polygon fill="#0000ff" stroke="#0000ff" points="1533.3364,-202.7878 1539.95,-194.5107 1529.6182,-196.8569 1533.3364,-202.7878"/>
<text text-anchor="middle" x="1533.0456" y="-217.8" font-family="Times,serif" font-size="14.00" fill="#000000">qualifiers</text>
</g>
<!-- publications -->
<g id="node15" class="node">
<title>publications</title>
<ellipse fill="none" stroke="#0000ff" cx="1696.0456" cy="-178" rx="50.0912" ry="18"/>
<text text-anchor="middle" x="1696.0456" y="-174.3" font-family="Times,serif" font-size="14.00" fill="#000000">publication</text>
</g>
<!-- variant to disease association&#45;&gt;publications -->
<g id="edge14" class="edge">
<title>variant to disease association&#45;&gt;publications</title>
<path fill="none" stroke="#0000ff" d="M1486.7179,-250.1617C1510.8485,-244.1878 1538.3687,-236.8523 1563.0456,-229 1593.867,-219.1925 1627.9108,-206.0943 1653.8392,-195.6278"/>
<polygon fill="#0000ff" stroke="#0000ff" points="1655.4109,-198.767 1663.3556,-191.7576 1652.7738,-192.2828 1655.4109,-198.767"/>
<text text-anchor="middle" x="1637.5456" y="-217.8" font-family="Times,serif" font-size="14.00" fill="#000000">publications</text>
</g>
<!-- type -->
<g id="node16" class="node">
<title>type</title>
<ellipse fill="none" stroke="#000000" cx="1791.0456" cy="-178" rx="27" ry="18"/>
<text text-anchor="middle" x="1791.0456" y="-174.3" font-family="Times,serif" font-size="14.00" fill="#000000">type</text>
</g>
<!-- variant to disease association&#45;&gt;type -->
<g id="edge15" class="edge">
<title>variant to disease association&#45;&gt;type</title>
<path fill="none" stroke="#0000ff" d="M1505.0466,-252.6409C1518.0945,-250.7307 1531.434,-248.7968 1544.0456,-247 1602.2273,-238.7109 1618.3108,-244.3294 1675.0456,-229 1705.3359,-220.8157 1737.8806,-205.9208 1760.7657,-194.333"/>
<polygon fill="#0000ff" stroke="#0000ff" points="1762.6636,-197.2923 1769.9475,-189.5985 1759.4555,-191.0707 1762.6636,-197.2923"/>
<text text-anchor="middle" x="1730.0456" y="-217.8" font-family="Times,serif" font-size="14.00" fill="#000000">type</text>
</g>
<!-- category -->
<g id="node18" class="node">
<title>category</title>
<ellipse fill="none" stroke="#000000" cx="1877.0456" cy="-178" rx="40.8928" ry="18"/>
<text text-anchor="middle" x="1877.0456" y="-174.3" font-family="Times,serif" font-size="14.00" fill="#000000">category</text>
</g>
<!-- variant to disease association&#45;&gt;category -->
<g id="edge16" class="edge">
<title>variant to disease association&#45;&gt;category</title>
<path fill="none" stroke="#0000ff" d="M1503.3331,-252.341C1516.9103,-250.4179 1530.8633,-248.5585 1544.0456,-247 1633.5557,-236.4176 1658.287,-249.5543 1746.0456,-229 1778.8107,-221.3259 1814.284,-207.1233 1840.0428,-195.6511"/>
<polygon fill="#0000ff" stroke="#0000ff" points="1841.7482,-198.721 1849.4136,-191.4073 1838.8603,-192.3445 1841.7482,-198.721"/>
<text text-anchor="middle" x="1817.5456" y="-217.8" font-family="Times,serif" font-size="14.00" fill="#000000">category</text>
</g>
<!-- subject -->
<g id="node20" class="node">
<title>subject</title>
<ellipse fill="none" stroke="#000000" cx="1972.0456" cy="-178" rx="35.9954" ry="18"/>
<text text-anchor="middle" x="1972.0456" y="-174.3" font-family="Times,serif" font-size="14.00" fill="#000000">subject</text>
</g>
<!-- variant to disease association&#45;&gt;subject -->
<g id="edge17" class="edge">
<title>variant to disease association&#45;&gt;subject</title>
<path fill="none" stroke="#0000ff" d="M1501.9832,-252.1924C1515.9763,-250.2404 1530.416,-248.4103 1544.0456,-247 1677.3506,-233.2064 1714.2823,-258.3506 1845.0456,-229 1877.5256,-221.7097 1912.4921,-207.1241 1937.4956,-195.4117"/>
<polygon fill="#0000ff" stroke="#0000ff" points="1939.0464,-198.5498 1946.5646,-191.0848 1936.0321,-192.2321 1939.0464,-198.5498"/>
<text text-anchor="middle" x="1911.5456" y="-217.8" font-family="Times,serif" font-size="14.00" fill="#000000">subject</text>
</g>
<!-- predicate -->
<g id="node22" class="node">
<title>predicate</title>
<ellipse fill="none" stroke="#000000" cx="2069.0456" cy="-178" rx="42.7926" ry="18"/>
<text text-anchor="middle" x="2069.0456" y="-174.3" font-family="Times,serif" font-size="14.00" fill="#000000">predicate</text>
</g>
<!-- variant to disease association&#45;&gt;predicate -->
<g id="edge18" class="edge">
<title>variant to disease association&#45;&gt;predicate</title>
<path fill="none" stroke="#0000ff" d="M1501.6395,-252.0798C1515.7365,-250.128 1530.3001,-248.327 1544.0456,-247 1717.2023,-230.2831 1764.7205,-264.385 1935.0456,-229 1968.9067,-221.9654 2005.483,-207.5444 2031.8535,-195.8267"/>
<polygon fill="#0000ff" stroke="#0000ff" points="2033.4152,-198.9617 2041.0832,-191.6506 2030.5296,-192.5841 2033.4152,-198.9617"/>
<text text-anchor="middle" x="2010.0456" y="-217.8" font-family="Times,serif" font-size="14.00" fill="#000000">predicate</text>
</g>
<!-- object -->
<g id="node24" class="node">
<title>object</title>
<ellipse fill="none" stroke="#000000" cx="2008.0456" cy="-91" rx="32.4942" ry="18"/>
<text text-anchor="middle" x="2008.0456" y="-87.3" font-family="Times,serif" font-size="14.00" fill="#000000">object</text>
</g>
<!-- variant to disease association&#45;&gt;object -->
<g id="edge19" class="edge">
<title>variant to disease association&#45;&gt;object</title>
<path fill="none" stroke="#0000ff" d="M1501.3012,-252.0136C1515.5012,-250.0561 1530.1873,-248.2704 1544.0456,-247 1653.6587,-236.9516 1931.3791,-251.8895 2039.0456,-229 2077.4717,-220.8307 2099.0555,-228.5537 2121.0456,-196 2146.8432,-157.8097 2086.8899,-123.515 2044.8187,-105.137"/>
<polygon fill="#0000ff" stroke="#0000ff" points="2045.9354,-101.8091 2035.3618,-101.1377 2043.2089,-108.2563 2045.9354,-101.8091"/>
<text text-anchor="middle" x="2145.0456" y="-174.3" font-family="Times,serif" font-size="14.00" fill="#000000">object</text>
</g>
<!-- frequency qualifier -->
<g id="node26" class="node">
<title>frequency qualifier</title>
<ellipse fill="none" stroke="#0000ff" cx="2268.0456" cy="-178" rx="67.6881" ry="18"/>
<text text-anchor="middle" x="2268.0456" y="-174.3" font-family="Times,serif" font-size="14.00" fill="#000000">frequency value</text>
</g>
<!-- variant to disease association&#45;&gt;frequency qualifier -->
<g id="edge20" class="edge">
<title>variant to disease association&#45;&gt;frequency qualifier</title>
<path fill="none" stroke="#0000ff" d="M1500.9661,-251.9749C1515.2685,-250.0085 1530.0761,-248.2297 1544.0456,-247 1680.9079,-234.9524 2028.5521,-261.4953 2162.0456,-229 2186.824,-222.9684 2212.6508,-210.6861 2232.6073,-199.6863"/>
<polygon fill="#0000ff" stroke="#0000ff" points="2234.3563,-202.7183 2241.3386,-194.7497 2230.911,-196.6248 2234.3563,-202.7183"/>
<text text-anchor="middle" x="2254.0456" y="-217.8" font-family="Times,serif" font-size="14.00" fill="#000000">frequency qualifier</text>
</g>
<!-- severity qualifier -->
<g id="node27" class="node">
<title>severity qualifier</title>
<ellipse fill="none" stroke="#0000ff" cx="2413.0456" cy="-178" rx="59.5901" ry="18"/>
<text text-anchor="middle" x="2413.0456" y="-174.3" font-family="Times,serif" font-size="14.00" fill="#000000">severity value</text>
</g>
<!-- variant to disease association&#45;&gt;severity qualifier -->
<g id="edge21" class="edge">
<title>variant to disease association&#45;&gt;severity qualifier</title>
<path fill="none" stroke="#0000ff" d="M1500.633,-251.9545C1515.0373,-249.9769 1529.9661,-248.1995 1544.0456,-247 1628.8729,-239.7732 2227.3841,-249.3711 2310.0456,-229 2334.2975,-223.0234 2359.4588,-210.6979 2378.8418,-199.6613"/>
<polygon fill="#0000ff" stroke="#0000ff" points="2380.7246,-202.6149 2387.5896,-194.545 2377.1905,-196.5725 2380.7246,-202.6149"/>
<text text-anchor="middle" x="2395.5456" y="-217.8" font-family="Times,serif" font-size="14.00" fill="#000000">severity qualifier</text>
</g>
<!-- onset qualifier -->
<g id="node28" class="node">
<title>onset qualifier</title>
<ellipse fill="none" stroke="#0000ff" cx="2524.0456" cy="-178" rx="29.4969" ry="18"/>
<text text-anchor="middle" x="2524.0456" y="-174.3" font-family="Times,serif" font-size="14.00" fill="#000000">onset</text>
</g>
<!-- variant to disease association&#45;&gt;onset qualifier -->
<g id="edge22" class="edge">
<title>variant to disease association&#45;&gt;onset qualifier</title>
<path fill="none" stroke="#0000ff" d="M1500.6295,-251.9133C1515.0342,-249.9399 1529.964,-248.1746 1544.0456,-247 1643.9408,-238.6676 2350.2662,-258.577 2446.0456,-229 2465.559,-222.9742 2484.7928,-210.4915 2499.2786,-199.3844"/>
<polygon fill="#0000ff" stroke="#0000ff" points="2501.5782,-202.0275 2507.2251,-193.0629 2497.2203,-196.5494 2501.5782,-202.0275"/>
<text text-anchor="middle" x="2514.5456" y="-217.8" font-family="Times,serif" font-size="14.00" fill="#000000">onset qualifier</text>
</g>
<!-- association_type -->
<g id="node17" class="node">
<title>association_type</title>
<ellipse fill="none" stroke="#0000ff" cx="1584.0456" cy="-265" rx="30.5947" ry="18"/>
<text text-anchor="middle" x="1584.0456" y="-261.3" font-family="Times,serif" font-size="14.00" fill="#000000">string</text>
</g>
<!-- association_category -->
<g id="node19" class="node">
<title>association_category</title>
<ellipse fill="none" stroke="#0000ff" cx="1683.0456" cy="-265" rx="50.0912" ry="18"/>
<text text-anchor="middle" x="1683.0456" y="-261.3" font-family="Times,serif" font-size="14.00" fill="#000000">association</text>
</g>
<!-- subject&#45;&gt;relation -->
<g id="edge24" class="edge">
<title>subject&#45;&gt;relation</title>
<path fill="none" stroke="#000000" stroke-dasharray="1,5" d="M1969.3391,-159.957C1965.1979,-132.3487 1957.2518,-79.3746 1952.3244,-46.5255"/>
<polygon fill="#000000" stroke="#000000" points="1955.7237,-45.5927 1950.7789,-36.2226 1948.8012,-46.6311 1955.7237,-45.5927"/>
</g>
<!-- subject&#45;&gt;object -->
<g id="edge23" class="edge">
<title>subject&#45;&gt;object</title>
<path fill="none" stroke="#000000" d="M1979.5048,-159.9735C1984.5097,-147.8784 1991.1933,-131.7263 1996.8345,-118.0934"/>
<polygon fill="#000000" stroke="#000000" points="2000.1295,-119.2841 2000.7191,-108.7057 1993.6614,-116.6076 2000.1295,-119.2841"/>
<text text-anchor="middle" x="2014.0456" y="-130.8" font-family="Times,serif" font-size="14.00" fill="#000000">relation</text>
</g>
<!-- variant to disease association_subject -->
<g id="node21" class="node">
<title>variant to disease association_subject</title>
<ellipse fill="none" stroke="#0000ff" cx="1806.0456" cy="-265" rx="55.4913" ry="18"/>
<text text-anchor="middle" x="1806.0456" y="-261.3" font-family="Times,serif" font-size="14.00" fill="#000000">named thing</text>
</g>
<!-- variant to disease association_predicate -->
<g id="node23" class="node">
<title>variant to disease association_predicate</title>
<ellipse fill="none" stroke="#0000ff" cx="1940.0456" cy="-265" rx="60.3893" ry="18"/>
<text text-anchor="middle" x="1940.0456" y="-261.3" font-family="Times,serif" font-size="14.00" fill="#000000">predicate type</text>
</g>
<!-- object&#45;&gt;relation -->
<g id="edge25" class="edge">
<title>object&#45;&gt;relation</title>
<path fill="none" stroke="#000000" stroke-dasharray="1,5" d="M1994.4306,-74.4352C1986.8462,-65.2075 1977.2464,-53.5276 1968.7502,-43.1906"/>
<polygon fill="#000000" stroke="#000000" points="1971.2862,-40.764 1962.2327,-35.261 1965.8784,-45.2088 1971.2862,-40.764"/>
</g>
<!-- variant to disease association_object -->
<g id="node25" class="node">
<title>variant to disease association_object</title>
<ellipse fill="none" stroke="#0000ff" cx="2074.0456" cy="-265" rx="55.4913" ry="18"/>
<text text-anchor="middle" x="2074.0456" y="-261.3" font-family="Times,serif" font-size="14.00" fill="#000000">named thing</text>
</g>
</g>
</svg>
