<?xml version="1.0" encoding="UTF-8" standalone="no"?>
<!DOCTYPE svg PUBLIC "-//W3C//DTD SVG 1.1//EN"
 "http://www.w3.org/Graphics/SVG/1.1/DTD/svg11.dtd">
<!-- Generated by graphviz version 2.40.1 (20161225.0304)
 -->
<!-- Title: %3 Pages: 1 -->
<svg width="1997pt" height="289pt"
 viewBox="0.00 0.00 1997.11 289.00" xmlns="http://www.w3.org/2000/svg" xmlns:xlink="http://www.w3.org/1999/xlink">
<g id="graph0" class="graph" transform="scale(1 1) rotate(0) translate(4 285)">
<title>%3</title>
<polygon fill="#ffffff" stroke="transparent" points="-4,4 -4,-285 1993.1085,-285 1993.1085,4 -4,4"/>
<!-- variant to disease association -->
<g id="node1" class="node">
<title>variant to disease association</title>
<ellipse fill="none" stroke="#000000" cx="1011.4015" cy="-263" rx="113.0056" ry="18"/>
<text text-anchor="middle" x="1011.4015" y="-258.8" font-family="Times,serif" font-size="14.00" fill="#000000">variant to disease association</text>
</g>
<!-- association -->
<g id="node2" class="node">
<title>association</title>
<ellipse fill="none" stroke="#000000" cx="49.4015" cy="-177" rx="49.3032" ry="18"/>
<text text-anchor="middle" x="49.4015" y="-172.8" font-family="Times,serif" font-size="14.00" fill="#000000">association</text>
</g>
<!-- variant to disease association&#45;&gt;association -->
<g id="edge1" class="edge">
<title>variant to disease association&#45;&gt;association</title>
<path fill="none" stroke="#000000" d="M901.3139,-258.8395C774.4669,-253.5643 559.8407,-243.1615 375.8498,-227 256.1556,-216.4863 224.9223,-220.0219 107.4015,-195 103.5103,-194.1715 99.5061,-193.1962 95.5067,-192.1353"/>
<polygon fill="#000000" stroke="#000000" points="96.2168,-188.6992 85.6424,-189.3569 94.319,-195.437 96.2168,-188.6992"/>
<text text-anchor="middle" x="387.6774" y="-215.8" font-family="Times,serif" font-size="14.00" fill="#000000">is_a</text>
</g>
<!-- variant to thing association -->
<g id="node3" class="node">
<title>variant to thing association</title>
<ellipse fill="none" stroke="#000000" cx="222.4015" cy="-177" rx="105.7897" ry="18"/>
<text text-anchor="middle" x="222.4015" y="-172.8" font-family="Times,serif" font-size="14.00" fill="#000000">variant to thing association</text>
</g>
<!-- variant to disease association&#45;&gt;variant to thing association -->
<g id="edge2" class="edge">
<title>variant to disease association&#45;&gt;variant to thing association</title>
<path fill="none" stroke="#000000" d="M900.9547,-259.0325C795.4224,-254.374 632.037,-244.8968 491.2912,-227 425.2198,-218.5986 350.8257,-204.3927 297.0657,-193.2654"/>
<polygon fill="#000000" stroke="#000000" points="297.778,-189.8388 287.2743,-191.2257 296.3503,-196.6916 297.778,-189.8388"/>
<text text-anchor="middle" x="503.4567" y="-215.8" font-family="Times,serif" font-size="14.00" fill="#000000">uses</text>
</g>
<!-- entity to disease association -->
<g id="node4" class="node">
<title>entity to disease association</title>
<ellipse fill="none" stroke="#000000" cx="454.4015" cy="-177" rx="108.6795" ry="18"/>
<text text-anchor="middle" x="454.4015" y="-172.8" font-family="Times,serif" font-size="14.00" fill="#000000">entity to disease association</text>
</g>
<!-- variant to disease association&#45;&gt;entity to disease association -->
<g id="edge3" class="edge">
<title>variant to disease association&#45;&gt;entity to disease association</title>
<path fill="none" stroke="#000000" d="M900.8369,-259.2342C786.5743,-254.4643 616.2818,-244.6555 553.2912,-227 531.5223,-220.8985 508.901,-209.8626 490.797,-199.7082"/>
<polygon fill="#000000" stroke="#000000" points="492.1823,-196.4671 481.77,-194.5093 488.6888,-202.5331 492.1823,-196.4671"/>
<text text-anchor="middle" x="565.4567" y="-215.8" font-family="Times,serif" font-size="14.00" fill="#000000">uses</text>
</g>
<!-- subject -->
<g id="node5" class="node">
<title>subject</title>
<ellipse fill="none" stroke="#000000" cx="661.4015" cy="-177" rx="35.3129" ry="18"/>
<text text-anchor="middle" x="661.4015" y="-172.8" font-family="Times,serif" font-size="14.00" fill="#000000">subject</text>
</g>
<!-- variant to disease association&#45;&gt;subject -->
<g id="edge4" class="edge">
<title>variant to disease association&#45;&gt;subject</title>
<path fill="none" stroke="#0000ff" d="M904.2669,-257.1003C813.8294,-251.1936 696.3003,-240.9744 678.7462,-227 671.8982,-221.5484 667.745,-213.2302 665.2292,-204.9337"/>
<polygon fill="#0000ff" stroke="#0000ff" points="668.5945,-203.9543 662.9017,-195.0189 661.7798,-205.5542 668.5945,-203.9543"/>
<text text-anchor="middle" x="699.2292" y="-215.8" font-family="Times,serif" font-size="14.00" fill="#000000">subject</text>
</g>
<!-- relation -->
<g id="node7" class="node">
<title>relation</title>
<ellipse fill="none" stroke="#000000" cx="645.4015" cy="-18" rx="37.2334" ry="18"/>
<text text-anchor="middle" x="645.4015" y="-13.8" font-family="Times,serif" font-size="14.00" fill="#000000">relation</text>
</g>
<!-- variant to disease association&#45;&gt;relation -->
<g id="edge5" class="edge">
<title>variant to disease association&#45;&gt;relation</title>
<path fill="none" stroke="#0000ff" d="M903.6309,-257.4381C818.7381,-252.0101 707.8729,-242.3032 665.4015,-227 641.2801,-218.3086 630.8827,-216.8092 617.4015,-195 601.4324,-169.166 605.9736,-157.0101 610.6427,-127 615.0977,-98.3662 625.7641,-66.9675 634.1152,-45.2552"/>
<polygon fill="#0000ff" stroke="#0000ff" points="637.4636,-46.3046 637.8748,-35.7177 630.9513,-43.7374 637.4636,-46.3046"/>
<text text-anchor="middle" x="632.7809" y="-129.8" font-family="Times,serif" font-size="14.00" fill="#000000">relation</text>
</g>
<!-- object -->
<g id="node9" class="node">
<title>object</title>
<ellipse fill="none" stroke="#000000" cx="705.4015" cy="-91" rx="31.9306" ry="18"/>
<text text-anchor="middle" x="705.4015" y="-86.8" font-family="Times,serif" font-size="14.00" fill="#000000">object</text>
</g>
<!-- variant to disease association&#45;&gt;object -->
<g id="edge6" class="edge">
<title>variant to disease association&#45;&gt;object</title>
<path fill="none" stroke="#0000ff" d="M926.1873,-251.06C857.2237,-239.723 767.4025,-220.6096 741.1945,-195 718.7685,-173.0861 733.3123,-156.3956 722.4015,-127 721.2471,-123.8897 719.9279,-120.6801 718.5463,-117.5178"/>
<polygon fill="#0000ff" stroke="#0000ff" points="721.6745,-115.9429 714.3168,-108.3195 715.3146,-118.8673 721.6745,-115.9429"/>
<text text-anchor="middle" x="758.505" y="-172.8" font-family="Times,serif" font-size="14.00" fill="#000000">object</text>
</g>
<!-- id -->
<g id="node11" class="node">
<title>id</title>
<ellipse fill="none" stroke="#000000" cx="811.4015" cy="-177" rx="27" ry="18"/>
<text text-anchor="middle" x="811.4015" y="-172.8" font-family="Times,serif" font-size="14.00" fill="#000000">id</text>
</g>
<!-- variant to disease association&#45;&gt;id -->
<g id="edge7" class="edge">
<title>variant to disease association&#45;&gt;id</title>
<path fill="none" stroke="#0000ff" d="M968.5712,-246.204C935.2708,-232.9142 888.0565,-213.5642 847.4015,-195 845.6376,-194.1946 843.8331,-193.3522 842.0176,-192.4905"/>
<polygon fill="#0000ff" stroke="#0000ff" points="843.5082,-189.3235 832.9841,-188.1006 840.4486,-195.6195 843.5082,-189.3235"/>
<text text-anchor="middle" x="924.8463" y="-215.8" font-family="Times,serif" font-size="14.00" fill="#000000">id</text>
</g>
<!-- negated -->
<g id="node13" class="node">
<title>negated</title>
<ellipse fill="none" stroke="#0000ff" cx="894.4015" cy="-177" rx="38.2024" ry="18"/>
<text text-anchor="middle" x="894.4015" y="-172.8" font-family="Times,serif" font-size="14.00" fill="#000000">boolean</text>
</g>
<!-- variant to disease association&#45;&gt;negated -->
<g id="edge8" class="edge">
<title>variant to disease association&#45;&gt;negated</title>
<path fill="none" stroke="#0000ff" d="M987.4425,-245.3891C968.9231,-231.7765 943.2084,-212.8751 923.505,-198.3923"/>
<polygon fill="#0000ff" stroke="#0000ff" points="925.3259,-195.387 915.1955,-192.2845 921.1801,-201.0272 925.3259,-195.387"/>
<text text-anchor="middle" x="982.1671" y="-215.8" font-family="Times,serif" font-size="14.00" fill="#000000">negated</text>
</g>
<!-- association type -->
<g id="node14" class="node">
<title>association type</title>
<ellipse fill="none" stroke="#0000ff" cx="1011.4015" cy="-177" rx="60.9049" ry="18"/>
<text text-anchor="middle" x="1011.4015" y="-172.8" font-family="Times,serif" font-size="14.00" fill="#000000">ontology class</text>
</g>
<!-- variant to disease association&#45;&gt;association type -->
<g id="edge9" class="edge">
<title>variant to disease association&#45;&gt;association type</title>
<path fill="none" stroke="#0000ff" d="M1011.4015,-244.7616C1011.4015,-233.3597 1011.4015,-218.4342 1011.4015,-205.494"/>
<polygon fill="#0000ff" stroke="#0000ff" points="1014.9016,-205.2121 1011.4015,-195.2121 1007.9016,-205.2121 1014.9016,-205.2121"/>
<text text-anchor="middle" x="1056.3068" y="-215.8" font-family="Times,serif" font-size="14.00" fill="#000000">association type</text>
</g>
<!-- qualifiers -->
<g id="node15" class="node">
<title>qualifiers</title>
<ellipse fill="none" stroke="#0000ff" cx="1151.4015" cy="-177" rx="60.9049" ry="18"/>
<text text-anchor="middle" x="1151.4015" y="-172.8" font-family="Times,serif" font-size="14.00" fill="#000000">ontology class</text>
</g>
<!-- variant to disease association&#45;&gt;qualifiers -->
<g id="edge10" class="edge">
<title>variant to disease association&#45;&gt;qualifiers</title>
<path fill="none" stroke="#0000ff" d="M1065.7243,-247.0601C1079.301,-241.7949 1093.401,-235.1466 1105.4015,-227 1115.2643,-220.3046 1124.5089,-211.1032 1132.0863,-202.4178"/>
<polygon fill="#0000ff" stroke="#0000ff" points="1134.8285,-204.5944 1138.5464,-194.6733 1129.4531,-200.1105 1134.8285,-204.5944"/>
<text text-anchor="middle" x="1147.4533" y="-215.8" font-family="Times,serif" font-size="14.00" fill="#000000">qualifiers</text>
</g>
<!-- publications -->
<g id="node16" class="node">
<title>publications</title>
<ellipse fill="none" stroke="#0000ff" cx="1280.4015" cy="-177" rx="49.7878" ry="18"/>
<text text-anchor="middle" x="1280.4015" y="-172.8" font-family="Times,serif" font-size="14.00" fill="#000000">publication</text>
</g>
<!-- variant to disease association&#45;&gt;publications -->
<g id="edge11" class="edge">
<title>variant to disease association&#45;&gt;publications</title>
<path fill="none" stroke="#0000ff" d="M1089.7329,-250.0037C1117.7887,-244.3086 1149.3903,-236.6805 1177.4015,-227 1200.4893,-219.021 1225.1462,-207.1805 1244.5454,-197.0246"/>
<polygon fill="#0000ff" stroke="#0000ff" points="1246.432,-199.9854 1253.6163,-192.1985 1243.1441,-193.8056 1246.432,-199.9854"/>
<text text-anchor="middle" x="1244.6188" y="-215.8" font-family="Times,serif" font-size="14.00" fill="#000000">publications</text>
</g>
<!-- provided by -->
<g id="node17" class="node">
<title>provided by</title>
<ellipse fill="none" stroke="#0000ff" cx="1388.4015" cy="-177" rx="40.1317" ry="18"/>
<text text-anchor="middle" x="1388.4015" y="-172.8" font-family="Times,serif" font-size="14.00" fill="#000000">provider</text>
</g>
<!-- variant to disease association&#45;&gt;provided by -->
<g id="edge12" class="edge">
<title>variant to disease association&#45;&gt;provided by</title>
<path fill="none" stroke="#0000ff" d="M1093.3909,-250.6015C1106.7551,-248.6674 1120.4575,-246.7364 1133.4015,-245 1199.513,-236.1312 1218.3046,-245.4651 1282.4015,-227 1307.6651,-219.722 1334.4298,-207.0533 1354.7445,-196.2896"/>
<polygon fill="#0000ff" stroke="#0000ff" points="1356.4635,-199.339 1363.5958,-191.5043 1353.1345,-193.1813 1356.4635,-199.339"/>
<text text-anchor="middle" x="1353.0343" y="-215.8" font-family="Times,serif" font-size="14.00" fill="#000000">provided by</text>
</g>
<!-- association slot -->
<g id="node18" class="node">
<title>association slot</title>
<ellipse fill="none" stroke="#0000ff" cx="1476.4015" cy="-177" rx="30.0035" ry="18"/>
<text text-anchor="middle" x="1476.4015" y="-172.8" font-family="Times,serif" font-size="14.00" fill="#000000">string</text>
</g>
<!-- variant to disease association&#45;&gt;association slot -->
<g id="edge13" class="edge">
<title>variant to disease association&#45;&gt;association slot</title>
<path fill="none" stroke="#0000ff" d="M1091.6796,-250.2636C1105.5688,-248.3155 1119.8858,-246.4682 1133.4015,-245 1247.2339,-232.6345 1280.9554,-260.649 1390.4015,-227 1411.573,-220.4909 1433.1158,-207.9547 1449.3442,-197.0639"/>
<polygon fill="#0000ff" stroke="#0000ff" points="1451.5434,-199.7985 1457.7771,-191.2315 1447.5616,-194.0413 1451.5434,-199.7985"/>
<text text-anchor="middle" x="1466.3688" y="-215.8" font-family="Times,serif" font-size="14.00" fill="#000000">association slot</text>
</g>
<!-- edge label -->
<g id="node19" class="node">
<title>edge label</title>
<ellipse fill="none" stroke="#0000ff" cx="1569.4015" cy="-177" rx="44.9599" ry="18"/>
<text text-anchor="middle" x="1569.4015" y="-172.8" font-family="Times,serif" font-size="14.00" fill="#000000">label type</text>
</g>
<!-- variant to disease association&#45;&gt;edge label -->
<g id="edge14" class="edge">
<title>variant to disease association&#45;&gt;edge label</title>
<path fill="none" stroke="#0000ff" d="M1090.6692,-250.1406C1104.8679,-248.1697 1119.5504,-246.3465 1133.4015,-245 1217.544,-236.8202 1435.1494,-258.9917 1513.4015,-227 1526.7288,-221.5514 1538.9818,-211.4948 1548.606,-201.8215"/>
<polygon fill="#0000ff" stroke="#0000ff" points="1551.4324,-203.9249 1555.7312,-194.2414 1546.3319,-199.1306 1551.4324,-203.9249"/>
<text text-anchor="middle" x="1564.9689" y="-215.8" font-family="Times,serif" font-size="14.00" fill="#000000">edge label</text>
</g>
<!-- frequency qualifier -->
<g id="node20" class="node">
<title>frequency qualifier</title>
<ellipse fill="none" stroke="#0000ff" cx="1699.4015" cy="-177" rx="66.6419" ry="18"/>
<text text-anchor="middle" x="1699.4015" y="-172.8" font-family="Times,serif" font-size="14.00" fill="#000000">frequency value</text>
</g>
<!-- variant to disease association&#45;&gt;frequency qualifier -->
<g id="edge15" class="edge">
<title>variant to disease association&#45;&gt;frequency qualifier</title>
<path fill="none" stroke="#0000ff" d="M1090.3322,-250.0869C1104.6335,-248.1088 1119.4382,-246.2971 1133.4015,-245 1236.1478,-235.4554 1497.3515,-252.2566 1597.4015,-227 1620.9002,-221.068 1645.3431,-209.3092 1664.4086,-198.6848"/>
<polygon fill="#0000ff" stroke="#0000ff" points="1666.3681,-201.5961 1673.3084,-193.5908 1662.8908,-195.5208 1666.3681,-201.5961"/>
<text text-anchor="middle" x="1689.4621" y="-215.8" font-family="Times,serif" font-size="14.00" fill="#000000">frequency qualifier</text>
</g>
<!-- severity qualifier -->
<g id="node21" class="node">
<title>severity qualifier</title>
<ellipse fill="none" stroke="#0000ff" cx="1843.4015" cy="-177" rx="59.4254" ry="18"/>
<text text-anchor="middle" x="1843.4015" y="-172.8" font-family="Times,serif" font-size="14.00" fill="#000000">severity value</text>
</g>
<!-- variant to disease association&#45;&gt;severity qualifier -->
<g id="edge16" class="edge">
<title>variant to disease association&#45;&gt;severity qualifier</title>
<path fill="none" stroke="#0000ff" d="M1089.9949,-250.0227C1104.3986,-248.0381 1119.3256,-246.2408 1133.4015,-245 1269.1561,-233.0336 1614.447,-261.0661 1746.4015,-227 1768.7402,-221.2329 1791.7749,-209.6389 1809.789,-199.0664"/>
<polygon fill="#0000ff" stroke="#0000ff" points="1811.9739,-201.8355 1818.7213,-193.667 1808.3527,-195.8449 1811.9739,-201.8355"/>
<text text-anchor="middle" x="1830.6378" y="-215.8" font-family="Times,serif" font-size="14.00" fill="#000000">severity qualifier</text>
</g>
<!-- onset qualifier -->
<g id="node22" class="node">
<title>onset qualifier</title>
<ellipse fill="none" stroke="#0000ff" cx="1954.4015" cy="-177" rx="28.5497" ry="18"/>
<text text-anchor="middle" x="1954.4015" y="-172.8" font-family="Times,serif" font-size="14.00" fill="#000000">onset</text>
</g>
<!-- variant to disease association&#45;&gt;onset qualifier -->
<g id="edge17" class="edge">
<title>variant to disease association&#45;&gt;onset qualifier</title>
<path fill="none" stroke="#0000ff" d="M1089.6622,-250.0061C1104.1675,-248.0098 1119.2157,-246.2126 1133.4015,-245 1216.2346,-237.9195 1802.2877,-252.5432 1881.4015,-227 1899.4392,-221.1763 1917.048,-209.3506 1930.4509,-198.6618"/>
<polygon fill="#0000ff" stroke="#0000ff" points="1932.7574,-201.296 1938.2188,-192.2172 1928.2878,-195.9086 1932.7574,-201.296"/>
<text text-anchor="middle" x="1949.255" y="-215.8" font-family="Times,serif" font-size="14.00" fill="#000000">onset qualifier</text>
</g>
<!-- subject&#45;&gt;relation -->
<g id="edge19" class="edge">
<title>subject&#45;&gt;relation</title>
<path fill="none" stroke="#000000" stroke-dasharray="1,5" d="M659.5661,-158.7607C656.7932,-131.2051 651.5132,-78.735 648.2415,-46.2226"/>
<polygon fill="#000000" stroke="#000000" points="651.6992,-45.6259 647.2155,-36.0266 644.7344,-46.3268 651.6992,-45.6259"/>
</g>
<!-- subject&#45;&gt;object -->
<g id="edge18" class="edge">
<title>subject&#45;&gt;object</title>
<path fill="none" stroke="#000000" d="M666.6853,-158.9115C669.8497,-149.1817 674.2965,-137.1341 679.6427,-127 681.5645,-123.3571 683.8106,-119.6617 686.161,-116.0954"/>
<polygon fill="#000000" stroke="#000000" points="689.2376,-117.8028 692.093,-107.6 683.4983,-113.7953 689.2376,-117.8028"/>
<text text-anchor="middle" x="701.7809" y="-129.8" font-family="Times,serif" font-size="14.00" fill="#000000">relation</text>
</g>
<!-- variant to disease association_subject -->
<g id="node6" class="node">
<title>variant to disease association_subject</title>
<ellipse fill="none" stroke="#0000ff" cx="1196.4015" cy="-263" rx="54.1389" ry="18"/>
<text text-anchor="middle" x="1196.4015" y="-258.8" font-family="Times,serif" font-size="14.00" fill="#000000">named thing</text>
</g>
<!-- variant to disease association_relation -->
<g id="node8" class="node">
<title>variant to disease association_relation</title>
<ellipse fill="none" stroke="#0000ff" cx="1313.4015" cy="-263" rx="44.9423" ry="18"/>
<text text-anchor="middle" x="1313.4015" y="-258.8" font-family="Times,serif" font-size="14.00" fill="#000000">uriorcurie</text>
</g>
<!-- object&#45;&gt;relation -->
<g id="edge20" class="edge">
<title>object&#45;&gt;relation</title>
<path fill="none" stroke="#000000" stroke-dasharray="1,5" d="M691.7866,-74.4352C684.0931,-65.0747 674.3256,-53.191 665.7401,-42.7453"/>
<polygon fill="#000000" stroke="#000000" points="668.2238,-40.255 659.1703,-34.752 662.816,-44.6998 668.2238,-40.255"/>
</g>
<!-- variant to disease association_object -->
<g id="node10" class="node">
<title>variant to disease association_object</title>
<ellipse fill="none" stroke="#0000ff" cx="1430.4015" cy="-263" rx="54.1389" ry="18"/>
<text text-anchor="middle" x="1430.4015" y="-258.8" font-family="Times,serif" font-size="14.00" fill="#000000">named thing</text>
</g>
<!-- association_id -->
<g id="node12" class="node">
<title>association_id</title>
<ellipse fill="none" stroke="#0000ff" cx="1562.4015" cy="-263" rx="59.4427" ry="18"/>
<text text-anchor="middle" x="1562.4015" y="-258.8" font-family="Times,serif" font-size="14.00" fill="#000000">identifier type</text>
</g>
</g>
</svg>
