<?xml version="1.0" encoding="UTF-8" standalone="no"?>
<!DOCTYPE svg PUBLIC "-//W3C//DTD SVG 1.1//EN"
 "http://www.w3.org/Graphics/SVG/1.1/DTD/svg11.dtd">
<!-- Generated by graphviz version 2.43.0 (0)
 -->
<!-- Title: %3 Pages: 1 -->
<svg width="4130pt" height="291pt"
 viewBox="0.00 0.00 4130.39 291.00" xmlns="http://www.w3.org/2000/svg" xmlns:xlink="http://www.w3.org/1999/xlink">
<g id="graph0" class="graph" transform="scale(1 1) rotate(0) translate(4 287)">
<title>%3</title>
<polygon fill="white" stroke="transparent" points="-4,4 -4,-287 4126.39,-287 4126.39,4 -4,4"/>
<!-- variant to disease association -->
<g id="node1" class="node">
<title>variant to disease association</title>
<ellipse fill="none" stroke="black" cx="2039.39" cy="-265" rx="148.37" ry="18"/>
<text text-anchor="middle" x="2039.39" y="-261.3" font-family="Times,serif" font-size="14.00">variant to disease association</text>
</g>
<!-- association -->
<g id="node2" class="node">
<title>association</title>
<ellipse fill="none" stroke="black" cx="62.39" cy="-178" rx="62.29" ry="18"/>
<text text-anchor="middle" x="62.39" y="-174.3" font-family="Times,serif" font-size="14.00">association</text>
</g>
<!-- variant to disease association&#45;&gt;association -->
<g id="edge1" class="edge">
<title>variant to disease association&#45;&gt;association</title>
<path fill="none" stroke="black" d="M1892.39,-262.52C1633.83,-259.44 1080.83,-250.72 614.39,-229 400.35,-219.03 345.21,-228.39 133.39,-196 127.91,-195.16 122.23,-194.11 116.58,-192.95"/>
<polygon fill="black" stroke="black" points="117,-189.46 106.48,-190.76 115.51,-196.3 117,-189.46"/>
<text text-anchor="middle" x="628.39" y="-217.8" font-family="Times,serif" font-size="14.00">is_a</text>
</g>
<!-- variant to entity association mixin -->
<g id="node3" class="node">
<title>variant to entity association mixin</title>
<ellipse fill="none" stroke="black" cx="312.39" cy="-178" rx="169.77" ry="18"/>
<text text-anchor="middle" x="312.39" y="-174.3" font-family="Times,serif" font-size="14.00">variant to entity association mixin</text>
</g>
<!-- variant to disease association&#45;&gt;variant to entity association mixin -->
<g id="edge2" class="edge">
<title>variant to disease association&#45;&gt;variant to entity association mixin</title>
<path fill="none" stroke="black" d="M1891.88,-262.91C1664.14,-260.51 1213.29,-252.9 831.39,-229 694.31,-220.42 537.41,-204.45 432.33,-192.86"/>
<polygon fill="black" stroke="black" points="432.65,-189.37 422.33,-191.75 431.88,-196.33 432.65,-189.37"/>
<text text-anchor="middle" x="847.89" y="-217.8" font-family="Times,serif" font-size="14.00">uses</text>
</g>
<!-- entity to disease association mixin -->
<g id="node4" class="node">
<title>entity to disease association mixin</title>
<ellipse fill="none" stroke="black" cx="671.39" cy="-178" rx="170.87" ry="18"/>
<text text-anchor="middle" x="671.39" y="-174.3" font-family="Times,serif" font-size="14.00">entity to disease association mixin</text>
</g>
<!-- variant to disease association&#45;&gt;entity to disease association mixin -->
<g id="edge3" class="edge">
<title>variant to disease association&#45;&gt;entity to disease association mixin</title>
<path fill="none" stroke="black" d="M1893.55,-261.51C1645.47,-256.88 1151.39,-245.87 978.39,-229 903.3,-221.68 818.73,-207.45 757.39,-196.04"/>
<polygon fill="black" stroke="black" points="757.84,-192.57 747.37,-194.17 756.55,-199.45 757.84,-192.57"/>
<text text-anchor="middle" x="994.89" y="-217.8" font-family="Times,serif" font-size="14.00">uses</text>
</g>
<!-- id -->
<g id="node5" class="node">
<title>id</title>
<ellipse fill="none" stroke="blue" cx="898.39" cy="-178" rx="38.19" ry="18"/>
<text text-anchor="middle" x="898.39" y="-174.3" font-family="Times,serif" font-size="14.00">string</text>
</g>
<!-- variant to disease association&#45;&gt;id -->
<g id="edge4" class="edge">
<title>variant to disease association&#45;&gt;id</title>
<path fill="none" stroke="blue" d="M1893.69,-261.66C1669.26,-257.54 1249.32,-247.59 1100.39,-229 1030.94,-220.33 1013.75,-215.06 946.39,-196 943.29,-195.12 940.09,-194.15 936.9,-193.12"/>
<polygon fill="blue" stroke="blue" points="937.99,-189.8 927.39,-189.95 935.77,-196.44 937.99,-189.8"/>
<text text-anchor="middle" x="1107.39" y="-217.8" font-family="Times,serif" font-size="14.00">id</text>
</g>
<!-- iri -->
<g id="node6" class="node">
<title>iri</title>
<ellipse fill="none" stroke="blue" cx="999.39" cy="-178" rx="44.39" ry="18"/>
<text text-anchor="middle" x="999.39" y="-174.3" font-family="Times,serif" font-size="14.00">iri type</text>
</g>
<!-- variant to disease association&#45;&gt;iri -->
<g id="edge5" class="edge">
<title>variant to disease association&#45;&gt;iri</title>
<path fill="none" stroke="blue" d="M1894.21,-261.3C1688.97,-256.91 1324.39,-246.88 1193.39,-229 1140.56,-221.79 1081.44,-205.29 1042.5,-193.2"/>
<polygon fill="blue" stroke="blue" points="1043.16,-189.74 1032.57,-190.08 1041.06,-196.42 1043.16,-189.74"/>
<text text-anchor="middle" x="1201.39" y="-217.8" font-family="Times,serif" font-size="14.00">iri</text>
</g>
<!-- name -->
<g id="node7" class="node">
<title>name</title>
<ellipse fill="none" stroke="blue" cx="1118.39" cy="-178" rx="56.59" ry="18"/>
<text text-anchor="middle" x="1118.39" y="-174.3" font-family="Times,serif" font-size="14.00">label type</text>
</g>
<!-- variant to disease association&#45;&gt;name -->
<g id="edge6" class="edge">
<title>variant to disease association&#45;&gt;name</title>
<path fill="none" stroke="blue" d="M1892.73,-262.2C1703,-259.03 1383.13,-250.6 1267.39,-229 1230.28,-222.07 1189.76,-208.03 1160.36,-196.58"/>
<polygon fill="blue" stroke="blue" points="1161.42,-193.24 1150.83,-192.82 1158.85,-199.75 1161.42,-193.24"/>
<text text-anchor="middle" x="1287.39" y="-217.8" font-family="Times,serif" font-size="14.00">name</text>
</g>
<!-- description -->
<g id="node8" class="node">
<title>description</title>
<ellipse fill="none" stroke="blue" cx="1268.39" cy="-178" rx="75.29" ry="18"/>
<text text-anchor="middle" x="1268.39" y="-174.3" font-family="Times,serif" font-size="14.00">narrative text</text>
</g>
<!-- variant to disease association&#45;&gt;description -->
<g id="edge7" class="edge">
<title>variant to disease association&#45;&gt;description</title>
<path fill="none" stroke="blue" d="M1894.25,-261.17C1703.97,-256.78 1388.29,-246.92 1337.39,-229 1321.29,-223.33 1305.69,-212.62 1293.41,-202.56"/>
<polygon fill="blue" stroke="blue" points="1295.34,-199.61 1285.47,-195.77 1290.79,-204.93 1295.34,-199.61"/>
<text text-anchor="middle" x="1377.89" y="-217.8" font-family="Times,serif" font-size="14.00">description</text>
</g>
<!-- source -->
<g id="node9" class="node">
<title>source</title>
<ellipse fill="none" stroke="blue" cx="1400.39" cy="-178" rx="38.19" ry="18"/>
<text text-anchor="middle" x="1400.39" y="-174.3" font-family="Times,serif" font-size="14.00">string</text>
</g>
<!-- variant to disease association&#45;&gt;source -->
<g id="edge8" class="edge">
<title>variant to disease association&#45;&gt;source</title>
<path fill="none" stroke="blue" d="M1893.59,-261.75C1728.89,-258.23 1478.55,-249.55 1439.39,-229 1429.05,-223.57 1420.58,-214.06 1414.21,-204.77"/>
<polygon fill="blue" stroke="blue" points="1417.04,-202.69 1408.75,-196.08 1411.11,-206.41 1417.04,-202.69"/>
<text text-anchor="middle" x="1463.39" y="-217.8" font-family="Times,serif" font-size="14.00">source</text>
</g>
<!-- has attribute -->
<g id="node10" class="node">
<title>has attribute</title>
<ellipse fill="none" stroke="blue" cx="1508.39" cy="-178" rx="51.99" ry="18"/>
<text text-anchor="middle" x="1508.39" y="-174.3" font-family="Times,serif" font-size="14.00">attribute</text>
</g>
<!-- variant to disease association&#45;&gt;has attribute -->
<g id="edge9" class="edge">
<title>variant to disease association&#45;&gt;has attribute</title>
<path fill="none" stroke="blue" d="M1891.13,-264.67C1739.38,-263.76 1522.04,-257.41 1495.39,-229 1489.33,-222.54 1489.89,-213.61 1492.85,-205.09"/>
<polygon fill="blue" stroke="blue" points="1496.12,-206.35 1497,-195.79 1489.73,-203.5 1496.12,-206.35"/>
<text text-anchor="middle" x="1542.39" y="-217.8" font-family="Times,serif" font-size="14.00">has attribute</text>
</g>
<!-- relation -->
<g id="node11" class="node">
<title>relation</title>
<ellipse fill="none" stroke="blue" cx="3372.39" cy="-18" rx="38.19" ry="18"/>
<text text-anchor="middle" x="3372.39" y="-14.3" font-family="Times,serif" font-size="14.00">string</text>
</g>
<!-- variant to disease association&#45;&gt;relation -->
<g id="edge10" class="edge">
<title>variant to disease association&#45;&gt;relation</title>
<path fill="none" stroke="blue" d="M1894.28,-261.21C1783.2,-255.58 1643.14,-239.71 1607.39,-196 1597.27,-183.61 1596.54,-171.76 1607.39,-160 1727.07,-30.38 3051.34,-19.85 3323.62,-19.05"/>
<polygon fill="blue" stroke="blue" points="3323.98,-22.55 3333.97,-19.03 3323.96,-15.55 3323.98,-22.55"/>
<text text-anchor="middle" x="1691.39" y="-130.8" font-family="Times,serif" font-size="14.00">relation</text>
</g>
<!-- negated -->
<g id="node12" class="node">
<title>negated</title>
<ellipse fill="none" stroke="blue" cx="1663.39" cy="-178" rx="46.59" ry="18"/>
<text text-anchor="middle" x="1663.39" y="-174.3" font-family="Times,serif" font-size="14.00">boolean</text>
</g>
<!-- variant to disease association&#45;&gt;negated -->
<g id="edge11" class="edge">
<title>variant to disease association&#45;&gt;negated</title>
<path fill="none" stroke="blue" d="M1944.95,-251.11C1908.06,-245.37 1865.54,-237.88 1827.39,-229 1778.1,-217.52 1766.8,-210.81 1718.39,-196 1715.09,-194.99 1711.68,-193.94 1708.25,-192.89"/>
<polygon fill="blue" stroke="blue" points="1709.18,-189.51 1698.59,-189.91 1707.12,-196.2 1709.18,-189.51"/>
<text text-anchor="middle" x="1856.39" y="-217.8" font-family="Times,serif" font-size="14.00">negated</text>
</g>
<!-- qualifiers -->
<g id="node13" class="node">
<title>qualifiers</title>
<ellipse fill="none" stroke="blue" cx="1804.39" cy="-178" rx="76.89" ry="18"/>
<text text-anchor="middle" x="1804.39" y="-174.3" font-family="Times,serif" font-size="14.00">ontology class</text>
</g>
<!-- variant to disease association&#45;&gt;qualifiers -->
<g id="edge12" class="edge">
<title>variant to disease association&#45;&gt;qualifiers</title>
<path fill="none" stroke="blue" d="M1984.25,-248.21C1965.45,-242.53 1944.39,-235.82 1925.39,-229 1899.47,-219.69 1870.98,-207.99 1848.15,-198.25"/>
<polygon fill="blue" stroke="blue" points="1849.31,-194.94 1838.74,-194.2 1846.55,-201.37 1849.31,-194.94"/>
<text text-anchor="middle" x="1958.89" y="-217.8" font-family="Times,serif" font-size="14.00">qualifiers</text>
</g>
<!-- publications -->
<g id="node14" class="node">
<title>publications</title>
<ellipse fill="none" stroke="blue" cx="1961.39" cy="-178" rx="62.29" ry="18"/>
<text text-anchor="middle" x="1961.39" y="-174.3" font-family="Times,serif" font-size="14.00">publication</text>
</g>
<!-- variant to disease association&#45;&gt;publications -->
<g id="edge13" class="edge">
<title>variant to disease association&#45;&gt;publications</title>
<path fill="none" stroke="blue" d="M2023.61,-246.8C2012.15,-234.31 1996.48,-217.24 1983.74,-203.35"/>
<polygon fill="blue" stroke="blue" points="1985.96,-200.6 1976.62,-195.6 1980.81,-205.33 1985.96,-200.6"/>
<text text-anchor="middle" x="2049.39" y="-217.8" font-family="Times,serif" font-size="14.00">publications</text>
</g>
<!-- has evidence -->
<g id="node15" class="node">
<title>has evidence</title>
<ellipse fill="none" stroke="blue" cx="2117.39" cy="-178" rx="75.29" ry="18"/>
<text text-anchor="middle" x="2117.39" y="-174.3" font-family="Times,serif" font-size="14.00">evidence type</text>
</g>
<!-- variant to disease association&#45;&gt;has evidence -->
<g id="edge14" class="edge">
<title>variant to disease association&#45;&gt;has evidence</title>
<path fill="none" stroke="blue" d="M2073.31,-247.32C2081.29,-242.25 2089.24,-236.11 2095.39,-229 2101.22,-222.27 2105.73,-213.76 2109.11,-205.67"/>
<polygon fill="blue" stroke="blue" points="2112.44,-206.76 2112.68,-196.17 2105.88,-204.3 2112.44,-206.76"/>
<text text-anchor="middle" x="2151.89" y="-217.8" font-family="Times,serif" font-size="14.00">has evidence</text>
</g>
<!-- knowledge source -->
<g id="node16" class="node">
<title>knowledge source</title>
<ellipse fill="none" stroke="blue" cx="2319.39" cy="-178" rx="108.58" ry="18"/>
<text text-anchor="middle" x="2319.39" y="-174.3" font-family="Times,serif" font-size="14.00">information resource</text>
</g>
<!-- variant to disease association&#45;&gt;knowledge source -->
<g id="edge15" class="edge">
<title>variant to disease association&#45;&gt;knowledge source</title>
<path fill="none" stroke="blue" d="M2120.2,-249.85C2146.68,-244.37 2176.05,-237.37 2202.39,-229 2227.7,-220.96 2255.04,-209.44 2276.92,-199.49"/>
<polygon fill="blue" stroke="blue" points="2278.64,-202.56 2286.25,-195.19 2275.71,-196.2 2278.64,-202.56"/>
<text text-anchor="middle" x="2306.89" y="-217.8" font-family="Times,serif" font-size="14.00">knowledge source</text>
</g>
<!-- original knowledge source -->
<g id="node17" class="node">
<title>original knowledge source</title>
<ellipse fill="none" stroke="blue" cx="2554.39" cy="-178" rx="108.58" ry="18"/>
<text text-anchor="middle" x="2554.39" y="-174.3" font-family="Times,serif" font-size="14.00">information resource</text>
</g>
<!-- variant to disease association&#45;&gt;original knowledge source -->
<g id="edge16" class="edge">
<title>variant to disease association&#45;&gt;original knowledge source</title>
<path fill="none" stroke="blue" d="M2146.05,-252.43C2163.21,-250.6 2180.79,-248.73 2197.39,-247 2276.48,-238.75 2297.26,-243.75 2375.39,-229 2417.13,-221.12 2463.27,-208.13 2498.25,-197.36"/>
<polygon fill="blue" stroke="blue" points="2499.3,-200.7 2507.81,-194.39 2497.22,-194.01 2499.3,-200.7"/>
<text text-anchor="middle" x="2534.39" y="-217.8" font-family="Times,serif" font-size="14.00">original knowledge source</text>
</g>
<!-- primary knowledge source -->
<g id="node18" class="node">
<title>primary knowledge source</title>
<ellipse fill="none" stroke="blue" cx="2789.39" cy="-178" rx="108.58" ry="18"/>
<text text-anchor="middle" x="2789.39" y="-174.3" font-family="Times,serif" font-size="14.00">information resource</text>
</g>
<!-- variant to disease association&#45;&gt;primary knowledge source -->
<g id="edge17" class="edge">
<title>variant to disease association&#45;&gt;primary knowledge source</title>
<path fill="none" stroke="blue" d="M2142.14,-251.95C2160.52,-250.08 2179.51,-248.33 2197.39,-247 2390.36,-232.64 2441.85,-262.66 2632.39,-229 2669.38,-222.47 2709.72,-209.48 2740.25,-198.39"/>
<polygon fill="blue" stroke="blue" points="2741.63,-201.61 2749.8,-194.86 2739.21,-195.04 2741.63,-201.61"/>
<text text-anchor="middle" x="2785.39" y="-217.8" font-family="Times,serif" font-size="14.00">primary knowledge source</text>
</g>
<!-- aggregator knowledge source -->
<g id="node19" class="node">
<title>aggregator knowledge source</title>
<ellipse fill="none" stroke="blue" cx="3024.39" cy="-178" rx="108.58" ry="18"/>
<text text-anchor="middle" x="3024.39" y="-174.3" font-family="Times,serif" font-size="14.00">information resource</text>
</g>
<!-- variant to disease association&#45;&gt;aggregator knowledge source -->
<g id="edge18" class="edge">
<title>variant to disease association&#45;&gt;aggregator knowledge source</title>
<path fill="none" stroke="blue" d="M2140.86,-251.86C2159.63,-249.96 2179.09,-248.22 2197.39,-247 2349.77,-236.82 2734.27,-257.03 2884.39,-229 2917.27,-222.86 2952.74,-210.13 2979.75,-199.04"/>
<polygon fill="blue" stroke="blue" points="2981.42,-202.14 2989.29,-195.05 2978.72,-195.68 2981.42,-202.14"/>
<text text-anchor="middle" x="3046.89" y="-217.8" font-family="Times,serif" font-size="14.00">aggregator knowledge source</text>
</g>
<!-- type -->
<g id="node20" class="node">
<title>type</title>
<ellipse fill="none" stroke="black" cx="3182.39" cy="-178" rx="31.4" ry="18"/>
<text text-anchor="middle" x="3182.39" y="-174.3" font-family="Times,serif" font-size="14.00">type</text>
</g>
<!-- variant to disease association&#45;&gt;type -->
<g id="edge19" class="edge">
<title>variant to disease association&#45;&gt;type</title>
<path fill="none" stroke="blue" d="M2140.43,-251.79C2159.33,-249.88 2178.95,-248.16 2197.39,-247 2224.01,-245.32 3134.84,-243.23 3157.39,-229 3165.83,-223.67 3171.53,-214.56 3175.32,-205.56"/>
<polygon fill="blue" stroke="blue" points="3178.66,-206.62 3178.72,-196.03 3172.06,-204.27 3178.66,-206.62"/>
<text text-anchor="middle" x="3187.39" y="-217.8" font-family="Times,serif" font-size="14.00">type</text>
</g>
<!-- category -->
<g id="node22" class="node">
<title>category</title>
<ellipse fill="none" stroke="black" cx="3283.39" cy="-178" rx="51.19" ry="18"/>
<text text-anchor="middle" x="3283.39" y="-174.3" font-family="Times,serif" font-size="14.00">category</text>
</g>
<!-- variant to disease association&#45;&gt;category -->
<g id="edge20" class="edge">
<title>variant to disease association&#45;&gt;category</title>
<path fill="none" stroke="blue" d="M2140.43,-251.77C2159.33,-249.87 2178.95,-248.15 2197.39,-247 2253.4,-243.49 3153.78,-245.58 3207.39,-229 3225.64,-223.36 3243.6,-211.89 3257.48,-201.36"/>
<polygon fill="blue" stroke="blue" points="3259.88,-203.93 3265.56,-194.99 3255.54,-198.44 3259.88,-203.93"/>
<text text-anchor="middle" x="3270.89" y="-217.8" font-family="Times,serif" font-size="14.00">category</text>
</g>
<!-- subject -->
<g id="node24" class="node">
<title>subject</title>
<ellipse fill="none" stroke="black" cx="3397.39" cy="-178" rx="44.39" ry="18"/>
<text text-anchor="middle" x="3397.39" y="-174.3" font-family="Times,serif" font-size="14.00">subject</text>
</g>
<!-- variant to disease association&#45;&gt;subject -->
<g id="edge21" class="edge">
<title>variant to disease association&#45;&gt;subject</title>
<path fill="none" stroke="blue" d="M2140.42,-251.75C2159.33,-249.85 2178.95,-248.14 2197.39,-247 2258.9,-243.2 3246.84,-244.8 3306.39,-229 3328.65,-223.1 3351.35,-210.64 3368.51,-199.63"/>
<polygon fill="blue" stroke="blue" points="3370.54,-202.49 3376.95,-194.05 3366.68,-196.65 3370.54,-202.49"/>
<text text-anchor="middle" x="3369.39" y="-217.8" font-family="Times,serif" font-size="14.00">subject</text>
</g>
<!-- predicate -->
<g id="node26" class="node">
<title>predicate</title>
<ellipse fill="none" stroke="black" cx="3514.39" cy="-178" rx="54.69" ry="18"/>
<text text-anchor="middle" x="3514.39" y="-174.3" font-family="Times,serif" font-size="14.00">predicate</text>
</g>
<!-- variant to disease association&#45;&gt;predicate -->
<g id="edge22" class="edge">
<title>variant to disease association&#45;&gt;predicate</title>
<path fill="none" stroke="blue" d="M2140,-251.77C2159.04,-249.86 2178.81,-248.14 2197.39,-247 2330.72,-238.85 3268.83,-257.18 3399.39,-229 3427.33,-222.97 3456.84,-209.98 3478.98,-198.75"/>
<polygon fill="blue" stroke="blue" points="3480.73,-201.79 3487.99,-194.07 3477.5,-195.58 3480.73,-201.79"/>
<text text-anchor="middle" x="3479.39" y="-217.8" font-family="Times,serif" font-size="14.00">predicate</text>
</g>
<!-- object -->
<g id="node28" class="node">
<title>object</title>
<ellipse fill="none" stroke="black" cx="3439.39" cy="-91" rx="38.99" ry="18"/>
<text text-anchor="middle" x="3439.39" y="-87.3" font-family="Times,serif" font-size="14.00">object</text>
</g>
<!-- variant to disease association&#45;&gt;object -->
<g id="edge23" class="edge">
<title>variant to disease association&#45;&gt;object</title>
<path fill="none" stroke="blue" d="M2140,-251.75C2159.04,-249.84 2178.81,-248.12 2197.39,-247 2270.6,-242.57 3446.42,-247.48 3517.39,-229 3547.22,-221.23 3562.61,-222.48 3578.39,-196 3605.08,-151.22 3532.25,-119.47 3482.2,-103.59"/>
<polygon fill="blue" stroke="blue" points="3483.12,-100.21 3472.53,-100.63 3481.06,-106.9 3483.12,-100.21"/>
<text text-anchor="middle" x="3606.39" y="-174.3" font-family="Times,serif" font-size="14.00">object</text>
</g>
<!-- frequency qualifier -->
<g id="node30" class="node">
<title>frequency qualifier</title>
<ellipse fill="none" stroke="blue" cx="3752.39" cy="-178" rx="85.29" ry="18"/>
<text text-anchor="middle" x="3752.39" y="-174.3" font-family="Times,serif" font-size="14.00">frequency value</text>
</g>
<!-- variant to disease association&#45;&gt;frequency qualifier -->
<g id="edge24" class="edge">
<title>variant to disease association&#45;&gt;frequency qualifier</title>
<path fill="none" stroke="blue" d="M2140,-251.74C2159.03,-249.82 2178.81,-248.12 2197.39,-247 2355.12,-237.54 3464.11,-258.24 3619.39,-229 3651.1,-223.03 3685.13,-210.11 3710.82,-198.9"/>
<polygon fill="blue" stroke="blue" points="3712.53,-201.97 3720.24,-194.7 3709.68,-195.57 3712.53,-201.97"/>
<text text-anchor="middle" x="3740.39" y="-217.8" font-family="Times,serif" font-size="14.00">frequency qualifier</text>
</g>
<!-- severity qualifier -->
<g id="node31" class="node">
<title>severity qualifier</title>
<ellipse fill="none" stroke="blue" cx="3931.39" cy="-178" rx="76.09" ry="18"/>
<text text-anchor="middle" x="3931.39" y="-174.3" font-family="Times,serif" font-size="14.00">severity value</text>
</g>
<!-- variant to disease association&#45;&gt;severity qualifier -->
<g id="edge25" class="edge">
<title>variant to disease association&#45;&gt;severity qualifier</title>
<path fill="none" stroke="blue" d="M2140,-251.71C2159.03,-249.8 2178.8,-248.1 2197.39,-247 2286.97,-241.69 3724.54,-247.22 3812.39,-229 3840.74,-223.12 3870.79,-210.44 3893.6,-199.32"/>
<polygon fill="blue" stroke="blue" points="3895.2,-202.43 3902.59,-194.84 3892.08,-196.17 3895.2,-202.43"/>
<text text-anchor="middle" x="3921.39" y="-217.8" font-family="Times,serif" font-size="14.00">severity qualifier</text>
</g>
<!-- onset qualifier -->
<g id="node32" class="node">
<title>onset qualifier</title>
<ellipse fill="none" stroke="blue" cx="4068.39" cy="-178" rx="36.29" ry="18"/>
<text text-anchor="middle" x="4068.39" y="-174.3" font-family="Times,serif" font-size="14.00">onset</text>
</g>
<!-- variant to disease association&#45;&gt;onset qualifier -->
<g id="edge26" class="edge">
<title>variant to disease association&#45;&gt;onset qualifier</title>
<path fill="none" stroke="blue" d="M2140,-251.7C2159.03,-249.79 2178.8,-248.09 2197.39,-247 2296.62,-241.18 3890.84,-256.35 3986.39,-229 4006.63,-223.21 4026.84,-210.97 4042.14,-200.05"/>
<polygon fill="blue" stroke="blue" points="4044.59,-202.6 4050.54,-193.84 4040.42,-196.97 4044.59,-202.6"/>
<text text-anchor="middle" x="4070.89" y="-217.8" font-family="Times,serif" font-size="14.00">onset qualifier</text>
</g>
<!-- association_type -->
<g id="node21" class="node">
<title>association_type</title>
<ellipse fill="none" stroke="blue" cx="2244.39" cy="-265" rx="38.19" ry="18"/>
<text text-anchor="middle" x="2244.39" y="-261.3" font-family="Times,serif" font-size="14.00">string</text>
</g>
<!-- association_category -->
<g id="node23" class="node">
<title>association_category</title>
<ellipse fill="none" stroke="blue" cx="2375.39" cy="-265" rx="74.99" ry="18"/>
<text text-anchor="middle" x="2375.39" y="-261.3" font-family="Times,serif" font-size="14.00">category type</text>
</g>
<!-- subject&#45;&gt;relation -->
<g id="edge28" class="edge">
<title>subject&#45;&gt;relation</title>
<path fill="none" stroke="black" stroke-dasharray="1,5" d="M3394.67,-159.79C3390.35,-132.48 3381.89,-78.99 3376.73,-46.38"/>
<polygon fill="black" stroke="black" points="3380.13,-45.52 3375.11,-36.19 3373.22,-46.61 3380.13,-45.52"/>
</g>
<!-- subject&#45;&gt;object -->
<g id="edge27" class="edge">
<title>subject&#45;&gt;object</title>
<path fill="none" stroke="black" d="M3405.69,-160.21C3411.67,-148.1 3419.86,-131.53 3426.67,-117.76"/>
<polygon fill="black" stroke="black" points="3429.82,-119.27 3431.11,-108.76 3423.55,-116.17 3429.82,-119.27"/>
<text text-anchor="middle" x="3449.39" y="-130.8" font-family="Times,serif" font-size="14.00">relation</text>
</g>
<!-- variant to disease association_subject -->
<g id="node25" class="node">
<title>variant to disease association_subject</title>
<ellipse fill="none" stroke="blue" cx="2537.39" cy="-265" rx="69.59" ry="18"/>
<text text-anchor="middle" x="2537.39" y="-261.3" font-family="Times,serif" font-size="14.00">named thing</text>
</g>
<!-- variant to disease association_predicate -->
<g id="node27" class="node">
<title>variant to disease association_predicate</title>
<ellipse fill="none" stroke="blue" cx="2703.39" cy="-265" rx="77.99" ry="18"/>
<text text-anchor="middle" x="2703.39" y="-261.3" font-family="Times,serif" font-size="14.00">predicate type</text>
</g>
<!-- object&#45;&gt;relation -->
<g id="edge29" class="edge">
<title>object&#45;&gt;relation</title>
<path fill="none" stroke="black" stroke-dasharray="1,5" d="M3424.52,-74.24C3415.59,-64.77 3404.06,-52.56 3394.12,-42.02"/>
<polygon fill="black" stroke="black" points="3396.63,-39.58 3387.22,-34.71 3391.54,-44.39 3396.63,-39.58"/>
</g>
<!-- variant to disease association_object -->
<g id="node29" class="node">
<title>variant to disease association_object</title>
<ellipse fill="none" stroke="blue" cx="2869.39" cy="-265" rx="69.59" ry="18"/>
<text text-anchor="middle" x="2869.39" y="-261.3" font-family="Times,serif" font-size="14.00">named thing</text>
</g>
</g>
</svg>
