<?xml version="1.0" encoding="UTF-8" standalone="no"?>
<!DOCTYPE svg PUBLIC "-//W3C//DTD SVG 1.1//EN"
 "http://www.w3.org/Graphics/SVG/1.1/DTD/svg11.dtd">
<!-- Generated by graphviz version 2.43.0 (0)
 -->
<!-- Title: %3 Pages: 1 -->
<svg width="4220pt" height="291pt"
 viewBox="0.00 0.00 4220.39 291.00" xmlns="http://www.w3.org/2000/svg" xmlns:xlink="http://www.w3.org/1999/xlink">
<g id="graph0" class="graph" transform="scale(1 1) rotate(0) translate(4 287)">
<title>%3</title>
<polygon fill="white" stroke="transparent" points="-4,4 -4,-287 4216.39,-287 4216.39,4 -4,4"/>
<!-- variant to disease association -->
<g id="node1" class="node">
<title>variant to disease association</title>
<ellipse fill="none" stroke="black" cx="2180.39" cy="-265" rx="148.37" ry="18"/>
<text text-anchor="middle" x="2180.39" y="-261.3" font-family="Times,serif" font-size="14.00">variant to disease association</text>
</g>
<!-- association -->
<g id="node2" class="node">
<title>association</title>
<ellipse fill="none" stroke="black" cx="62.39" cy="-178" rx="62.29" ry="18"/>
<text text-anchor="middle" x="62.39" y="-174.3" font-family="Times,serif" font-size="14.00">association</text>
</g>
<!-- variant to disease association&#45;&gt;association -->
<g id="edge1" class="edge">
<title>variant to disease association&#45;&gt;association</title>
<path fill="none" stroke="black" d="M2032.96,-262.97C1755.26,-260.53 1135.65,-252.69 614.39,-229 400.34,-219.27 345.21,-228.39 133.39,-196 127.91,-195.16 122.23,-194.11 116.58,-192.95"/>
<polygon fill="black" stroke="black" points="117,-189.46 106.48,-190.76 115.51,-196.3 117,-189.46"/>
<text text-anchor="middle" x="628.39" y="-217.8" font-family="Times,serif" font-size="14.00">is_a</text>
</g>
<!-- variant to entity association mixin -->
<g id="node3" class="node">
<title>variant to entity association mixin</title>
<ellipse fill="none" stroke="black" cx="312.39" cy="-178" rx="169.77" ry="18"/>
<text text-anchor="middle" x="312.39" y="-174.3" font-family="Times,serif" font-size="14.00">variant to entity association mixin</text>
</g>
<!-- variant to disease association&#45;&gt;variant to entity association mixin -->
<g id="edge2" class="edge">
<title>variant to disease association&#45;&gt;variant to entity association mixin</title>
<path fill="none" stroke="black" d="M2032.64,-263.54C1784.45,-262.01 1268.19,-255.58 832.39,-229 694.71,-220.6 537.08,-204.54 431.8,-192.87"/>
<polygon fill="black" stroke="black" points="432.11,-189.39 421.78,-191.76 431.33,-196.34 432.11,-189.39"/>
<text text-anchor="middle" x="848.89" y="-217.8" font-family="Times,serif" font-size="14.00">uses</text>
</g>
<!-- entity to disease association mixin -->
<g id="node4" class="node">
<title>entity to disease association mixin</title>
<ellipse fill="none" stroke="black" cx="671.39" cy="-178" rx="170.87" ry="18"/>
<text text-anchor="middle" x="671.39" y="-174.3" font-family="Times,serif" font-size="14.00">entity to disease association mixin</text>
</g>
<!-- variant to disease association&#45;&gt;entity to disease association mixin -->
<g id="edge3" class="edge">
<title>variant to disease association&#45;&gt;entity to disease association mixin</title>
<path fill="none" stroke="black" d="M2033.86,-262.15C1759.89,-258.28 1179.65,-248.09 979.39,-229 903.92,-221.81 818.91,-207.53 757.35,-196.07"/>
<polygon fill="black" stroke="black" points="757.77,-192.59 747.29,-194.19 756.48,-199.47 757.77,-192.59"/>
<text text-anchor="middle" x="995.89" y="-217.8" font-family="Times,serif" font-size="14.00">uses</text>
</g>
<!-- id -->
<g id="node5" class="node">
<title>id</title>
<ellipse fill="none" stroke="blue" cx="898.39" cy="-178" rx="38.19" ry="18"/>
<text text-anchor="middle" x="898.39" y="-174.3" font-family="Times,serif" font-size="14.00">string</text>
</g>
<!-- variant to disease association&#45;&gt;id -->
<g id="edge4" class="edge">
<title>variant to disease association&#45;&gt;id</title>
<path fill="none" stroke="blue" d="M2033.46,-262.26C1782.85,-258.79 1282.93,-249.48 1108.39,-229 1035.42,-220.44 1017.2,-215.65 946.39,-196 943.29,-195.14 940.09,-194.17 936.89,-193.16"/>
<polygon fill="blue" stroke="blue" points="937.97,-189.83 927.38,-190 935.76,-196.47 937.97,-189.83"/>
<text text-anchor="middle" x="1115.39" y="-217.8" font-family="Times,serif" font-size="14.00">id</text>
</g>
<!-- iri -->
<g id="node6" class="node">
<title>iri</title>
<ellipse fill="none" stroke="blue" cx="999.39" cy="-178" rx="44.39" ry="18"/>
<text text-anchor="middle" x="999.39" y="-174.3" font-family="Times,serif" font-size="14.00">iri type</text>
</g>
<!-- variant to disease association&#45;&gt;iri -->
<g id="edge5" class="edge">
<title>variant to disease association&#45;&gt;iri</title>
<path fill="none" stroke="blue" d="M2034.72,-261.42C1806.76,-256.92 1375.98,-246.41 1223.39,-229 1146.49,-220.23 1127.38,-215.19 1052.39,-196 1049.02,-195.14 1045.54,-194.18 1042.05,-193.17"/>
<polygon fill="blue" stroke="blue" points="1042.88,-189.76 1032.3,-190.23 1040.86,-196.46 1042.88,-189.76"/>
<text text-anchor="middle" x="1231.39" y="-217.8" font-family="Times,serif" font-size="14.00">iri</text>
</g>
<!-- name -->
<g id="node7" class="node">
<title>name</title>
<ellipse fill="none" stroke="blue" cx="1118.39" cy="-178" rx="56.59" ry="18"/>
<text text-anchor="middle" x="1118.39" y="-174.3" font-family="Times,serif" font-size="14.00">label type</text>
</g>
<!-- variant to disease association&#45;&gt;name -->
<g id="edge6" class="edge">
<title>variant to disease association&#45;&gt;name</title>
<path fill="none" stroke="blue" d="M2034.18,-261.81C1824.28,-258.03 1448.01,-248.71 1313.39,-229 1262.5,-221.55 1205.67,-206.14 1166.55,-194.38"/>
<polygon fill="blue" stroke="blue" points="1167.34,-190.96 1156.75,-191.4 1165.3,-197.66 1167.34,-190.96"/>
<text text-anchor="middle" x="1333.39" y="-217.8" font-family="Times,serif" font-size="14.00">name</text>
</g>
<!-- description -->
<g id="node8" class="node">
<title>description</title>
<ellipse fill="none" stroke="blue" cx="1268.39" cy="-178" rx="75.29" ry="18"/>
<text text-anchor="middle" x="1268.39" y="-174.3" font-family="Times,serif" font-size="14.00">narrative text</text>
</g>
<!-- variant to disease association&#45;&gt;description -->
<g id="edge7" class="edge">
<title>variant to disease association&#45;&gt;description</title>
<path fill="none" stroke="blue" d="M2033.46,-262.58C1843.41,-259.83 1523.04,-251.87 1407.39,-229 1374.23,-222.44 1338.37,-209.38 1311.38,-198.25"/>
<polygon fill="blue" stroke="blue" points="1312.43,-194.9 1301.86,-194.26 1309.72,-201.35 1312.43,-194.9"/>
<text text-anchor="middle" x="1447.89" y="-217.8" font-family="Times,serif" font-size="14.00">description</text>
</g>
<!-- source -->
<g id="node9" class="node">
<title>source</title>
<ellipse fill="none" stroke="blue" cx="1400.39" cy="-178" rx="38.19" ry="18"/>
<text text-anchor="middle" x="1400.39" y="-174.3" font-family="Times,serif" font-size="14.00">string</text>
</g>
<!-- variant to disease association&#45;&gt;source -->
<g id="edge8" class="edge">
<title>variant to disease association&#45;&gt;source</title>
<path fill="none" stroke="blue" d="M2036.46,-260.63C1878.44,-256.13 1635.11,-246.58 1544.39,-229 1506.74,-221.7 1465.58,-206.65 1436.94,-194.95"/>
<polygon fill="blue" stroke="blue" points="1437.94,-191.58 1427.36,-190.97 1435.25,-198.04 1437.94,-191.58"/>
<text text-anchor="middle" x="1568.39" y="-217.8" font-family="Times,serif" font-size="14.00">source</text>
</g>
<!-- has attribute -->
<g id="node10" class="node">
<title>has attribute</title>
<ellipse fill="none" stroke="blue" cx="1508.39" cy="-178" rx="51.99" ry="18"/>
<text text-anchor="middle" x="1508.39" y="-174.3" font-family="Times,serif" font-size="14.00">attribute</text>
</g>
<!-- variant to disease association&#45;&gt;has attribute -->
<g id="edge9" class="edge">
<title>variant to disease association&#45;&gt;has attribute</title>
<path fill="none" stroke="blue" d="M2039.63,-259.26C1907.17,-253.98 1718.69,-244.15 1646.39,-229 1612.3,-221.86 1575.26,-208.08 1548.15,-196.8"/>
<polygon fill="blue" stroke="blue" points="1549.21,-193.45 1538.64,-192.77 1546.48,-199.89 1549.21,-193.45"/>
<text text-anchor="middle" x="1693.39" y="-217.8" font-family="Times,serif" font-size="14.00">has attribute</text>
</g>
<!-- negated -->
<g id="node11" class="node">
<title>negated</title>
<ellipse fill="none" stroke="blue" cx="1625.39" cy="-178" rx="46.59" ry="18"/>
<text text-anchor="middle" x="1625.39" y="-174.3" font-family="Times,serif" font-size="14.00">boolean</text>
</g>
<!-- variant to disease association&#45;&gt;negated -->
<g id="edge10" class="edge">
<title>variant to disease association&#45;&gt;negated</title>
<path fill="none" stroke="blue" d="M2049.17,-256.54C1978.14,-251.25 1889.07,-242.62 1810.39,-229 1761.55,-220.54 1706.9,-204.99 1669.74,-193.47"/>
<polygon fill="blue" stroke="blue" points="1670.33,-189.99 1659.74,-190.34 1668.24,-196.67 1670.33,-189.99"/>
<text text-anchor="middle" x="1839.39" y="-217.8" font-family="Times,serif" font-size="14.00">negated</text>
</g>
<!-- qualifiers -->
<g id="node12" class="node">
<title>qualifiers</title>
<ellipse fill="none" stroke="blue" cx="1766.39" cy="-178" rx="76.89" ry="18"/>
<text text-anchor="middle" x="1766.39" y="-174.3" font-family="Times,serif" font-size="14.00">ontology class</text>
</g>
<!-- variant to disease association&#45;&gt;qualifiers -->
<g id="edge11" class="edge">
<title>variant to disease association&#45;&gt;qualifiers</title>
<path fill="none" stroke="blue" d="M2069.84,-252.94C2024.74,-247.36 1972.27,-239.51 1925.39,-229 1888.07,-220.63 1846.89,-207.57 1815.8,-196.9"/>
<polygon fill="blue" stroke="blue" points="1816.67,-193.5 1806.07,-193.53 1814.38,-200.11 1816.67,-193.5"/>
<text text-anchor="middle" x="1958.89" y="-217.8" font-family="Times,serif" font-size="14.00">qualifiers</text>
</g>
<!-- publications -->
<g id="node13" class="node">
<title>publications</title>
<ellipse fill="none" stroke="blue" cx="1923.39" cy="-178" rx="62.29" ry="18"/>
<text text-anchor="middle" x="1923.39" y="-174.3" font-family="Times,serif" font-size="14.00">publication</text>
</g>
<!-- variant to disease association&#45;&gt;publications -->
<g id="edge12" class="edge">
<title>variant to disease association&#45;&gt;publications</title>
<path fill="none" stroke="blue" d="M2105.8,-249.39C2082.05,-243.93 2055.87,-237.07 2032.39,-229 2008.15,-220.66 1982.01,-208.78 1961.41,-198.69"/>
<polygon fill="blue" stroke="blue" points="1962.87,-195.51 1952.36,-194.2 1959.76,-201.78 1962.87,-195.51"/>
<text text-anchor="middle" x="2076.39" y="-217.8" font-family="Times,serif" font-size="14.00">publications</text>
</g>
<!-- has evidence -->
<g id="node14" class="node">
<title>has evidence</title>
<ellipse fill="none" stroke="blue" cx="2079.39" cy="-178" rx="75.29" ry="18"/>
<text text-anchor="middle" x="2079.39" y="-174.3" font-family="Times,serif" font-size="14.00">evidence type</text>
</g>
<!-- variant to disease association&#45;&gt;has evidence -->
<g id="edge13" class="edge">
<title>variant to disease association&#45;&gt;has evidence</title>
<path fill="none" stroke="blue" d="M2159.96,-246.8C2144.7,-233.96 2123.69,-216.27 2106.95,-202.19"/>
<polygon fill="blue" stroke="blue" points="2109.02,-199.36 2099.12,-195.6 2104.51,-204.71 2109.02,-199.36"/>
<text text-anchor="middle" x="2182.89" y="-217.8" font-family="Times,serif" font-size="14.00">has evidence</text>
</g>
<!-- knowledge source -->
<g id="node15" class="node">
<title>knowledge source</title>
<ellipse fill="none" stroke="blue" cx="2281.39" cy="-178" rx="108.58" ry="18"/>
<text text-anchor="middle" x="2281.39" y="-174.3" font-family="Times,serif" font-size="14.00">information resource</text>
</g>
<!-- variant to disease association&#45;&gt;knowledge source -->
<g id="edge14" class="edge">
<title>variant to disease association&#45;&gt;knowledge source</title>
<path fill="none" stroke="blue" d="M2208.18,-247.31C2216.56,-241.84 2225.6,-235.49 2233.39,-229 2242.6,-221.33 2251.9,-212.07 2259.83,-203.61"/>
<polygon fill="blue" stroke="blue" points="2262.51,-205.87 2266.69,-196.14 2257.35,-201.14 2262.51,-205.87"/>
<text text-anchor="middle" x="2313.89" y="-217.8" font-family="Times,serif" font-size="14.00">knowledge source</text>
</g>
<!-- original knowledge source -->
<g id="node16" class="node">
<title>original knowledge source</title>
<ellipse fill="none" stroke="blue" cx="2516.39" cy="-178" rx="108.58" ry="18"/>
<text text-anchor="middle" x="2516.39" y="-174.3" font-family="Times,serif" font-size="14.00">information resource</text>
</g>
<!-- variant to disease association&#45;&gt;original knowledge source -->
<g id="edge15" class="edge">
<title>variant to disease association&#45;&gt;original knowledge source</title>
<path fill="none" stroke="blue" d="M2275.73,-251.21C2309.7,-245.67 2348.04,-238.3 2382.39,-229 2412.04,-220.97 2444.32,-209.03 2469.77,-198.83"/>
<polygon fill="blue" stroke="blue" points="2471.22,-202.02 2479.17,-195.02 2468.59,-195.53 2471.22,-202.02"/>
<text text-anchor="middle" x="2521.39" y="-217.8" font-family="Times,serif" font-size="14.00">original knowledge source</text>
</g>
<!-- primary knowledge source -->
<g id="node17" class="node">
<title>primary knowledge source</title>
<ellipse fill="none" stroke="blue" cx="2751.39" cy="-178" rx="108.58" ry="18"/>
<text text-anchor="middle" x="2751.39" y="-174.3" font-family="Times,serif" font-size="14.00">information resource</text>
</g>
<!-- variant to disease association&#45;&gt;primary knowledge source -->
<g id="edge16" class="edge">
<title>variant to disease association&#45;&gt;primary knowledge source</title>
<path fill="none" stroke="blue" d="M2284.44,-252.16C2302.42,-250.3 2320.94,-248.5 2338.39,-247 2463.08,-236.3 2497.08,-255.46 2619.39,-229 2649.87,-222.41 2682.66,-210.02 2707.94,-199.22"/>
<polygon fill="blue" stroke="blue" points="2709.46,-202.37 2717.24,-195.17 2706.67,-195.95 2709.46,-202.37"/>
<text text-anchor="middle" x="2763.39" y="-217.8" font-family="Times,serif" font-size="14.00">primary knowledge source</text>
</g>
<!-- aggregator knowledge source -->
<g id="node18" class="node">
<title>aggregator knowledge source</title>
<ellipse fill="none" stroke="blue" cx="2986.39" cy="-178" rx="108.58" ry="18"/>
<text text-anchor="middle" x="2986.39" y="-174.3" font-family="Times,serif" font-size="14.00">information resource</text>
</g>
<!-- variant to disease association&#45;&gt;aggregator knowledge source -->
<g id="edge17" class="edge">
<title>variant to disease association&#45;&gt;aggregator knowledge source</title>
<path fill="none" stroke="blue" d="M2282.71,-251.89C2301.22,-250.01 2320.37,-248.28 2338.39,-247 2454.62,-238.76 2748.41,-253.15 2862.39,-229 2891.23,-222.89 2921.98,-210.54 2945.64,-199.64"/>
<polygon fill="blue" stroke="blue" points="2947.43,-202.66 2954.99,-195.24 2944.45,-196.33 2947.43,-202.66"/>
<text text-anchor="middle" x="3018.89" y="-217.8" font-family="Times,serif" font-size="14.00">aggregator knowledge source</text>
</g>
<!-- timepoint -->
<g id="node19" class="node">
<title>timepoint</title>
<ellipse fill="none" stroke="blue" cx="3168.39" cy="-178" rx="55.49" ry="18"/>
<text text-anchor="middle" x="3168.39" y="-174.3" font-family="Times,serif" font-size="14.00">time type</text>
</g>
<!-- variant to disease association&#45;&gt;timepoint -->
<g id="edge18" class="edge">
<title>variant to disease association&#45;&gt;timepoint</title>
<path fill="none" stroke="blue" d="M2281.85,-251.8C2300.63,-249.91 2320.09,-248.19 2338.39,-247 2382.26,-244.15 3090.12,-248.73 3129.39,-229 3139.83,-223.76 3148.32,-214.27 3154.67,-204.96"/>
<polygon fill="blue" stroke="blue" points="3157.79,-206.57 3160.11,-196.23 3151.85,-202.87 3157.79,-206.57"/>
<text text-anchor="middle" x="3182.39" y="-217.8" font-family="Times,serif" font-size="14.00">timepoint</text>
</g>
<!-- type -->
<g id="node20" class="node">
<title>type</title>
<ellipse fill="none" stroke="black" cx="3272.39" cy="-178" rx="31.4" ry="18"/>
<text text-anchor="middle" x="3272.39" y="-174.3" font-family="Times,serif" font-size="14.00">type</text>
</g>
<!-- variant to disease association&#45;&gt;type -->
<g id="edge19" class="edge">
<title>variant to disease association&#45;&gt;type</title>
<path fill="none" stroke="blue" d="M2281.43,-251.81C2300.33,-249.9 2319.95,-248.18 2338.39,-247 2387.36,-243.87 3176.16,-248.01 3221.39,-229 3234.56,-223.46 3246.21,-212.79 3255.03,-202.71"/>
<polygon fill="blue" stroke="blue" points="3257.83,-204.82 3261.48,-194.88 3252.43,-200.37 3257.83,-204.82"/>
<text text-anchor="middle" x="3260.39" y="-217.8" font-family="Times,serif" font-size="14.00">type</text>
</g>
<!-- category -->
<g id="node22" class="node">
<title>category</title>
<ellipse fill="none" stroke="black" cx="3373.39" cy="-178" rx="51.19" ry="18"/>
<text text-anchor="middle" x="3373.39" y="-174.3" font-family="Times,serif" font-size="14.00">category</text>
</g>
<!-- variant to disease association&#45;&gt;category -->
<g id="edge20" class="edge">
<title>variant to disease association&#45;&gt;category</title>
<path fill="none" stroke="blue" d="M2281.43,-251.79C2300.33,-249.89 2319.95,-248.17 2338.39,-247 2442.87,-240.39 3179.13,-255.53 3280.39,-229 3302.74,-223.15 3325.63,-210.94 3343.1,-200.05"/>
<polygon fill="blue" stroke="blue" points="3345.19,-202.87 3351.72,-194.52 3341.41,-196.98 3345.19,-202.87"/>
<text text-anchor="middle" x="3349.89" y="-217.8" font-family="Times,serif" font-size="14.00">category</text>
</g>
<!-- subject -->
<g id="node24" class="node">
<title>subject</title>
<ellipse fill="none" stroke="black" cx="3487.39" cy="-178" rx="44.39" ry="18"/>
<text text-anchor="middle" x="3487.39" y="-174.3" font-family="Times,serif" font-size="14.00">subject</text>
</g>
<!-- variant to disease association&#45;&gt;subject -->
<g id="edge21" class="edge">
<title>variant to disease association&#45;&gt;subject</title>
<path fill="none" stroke="blue" d="M2281.42,-251.76C2300.33,-249.86 2319.95,-248.15 2338.39,-247 2454.52,-239.77 3272.28,-256.26 3385.39,-229 3410.55,-222.94 3436.72,-209.95 3456.25,-198.74"/>
<polygon fill="blue" stroke="blue" points="3458.16,-201.67 3465,-193.57 3454.61,-195.64 3458.16,-201.67"/>
<text text-anchor="middle" x="3452.39" y="-217.8" font-family="Times,serif" font-size="14.00">subject</text>
</g>
<!-- predicate -->
<g id="node26" class="node">
<title>predicate</title>
<ellipse fill="none" stroke="black" cx="3604.39" cy="-178" rx="54.69" ry="18"/>
<text text-anchor="middle" x="3604.39" y="-174.3" font-family="Times,serif" font-size="14.00">predicate</text>
</g>
<!-- variant to disease association&#45;&gt;predicate -->
<g id="edge22" class="edge">
<title>variant to disease association&#45;&gt;predicate</title>
<path fill="none" stroke="blue" d="M2281,-251.78C2300.04,-249.87 2319.81,-248.14 2338.39,-247 2465.28,-239.19 3357.86,-254.55 3482.39,-229 3512.15,-222.89 3543.85,-209.68 3567.47,-198.37"/>
<polygon fill="blue" stroke="blue" points="3569.31,-201.37 3576.75,-193.83 3566.23,-195.08 3569.31,-201.37"/>
<text text-anchor="middle" x="3565.39" y="-217.8" font-family="Times,serif" font-size="14.00">predicate</text>
</g>
<!-- object -->
<g id="node28" class="node">
<title>object</title>
<ellipse fill="none" stroke="black" cx="3554.39" cy="-91" rx="38.99" ry="18"/>
<text text-anchor="middle" x="3554.39" y="-87.3" font-family="Times,serif" font-size="14.00">object</text>
</g>
<!-- variant to disease association&#45;&gt;object -->
<g id="edge23" class="edge">
<title>variant to disease association&#45;&gt;object</title>
<path fill="none" stroke="blue" d="M2281,-251.76C2300.04,-249.85 2319.81,-248.13 2338.39,-247 2408.55,-242.74 3535.16,-245.84 3603.39,-229 3634.85,-221.24 3651.45,-223.61 3668.39,-196 3691.99,-157.55 3635.23,-124.69 3593.61,-106.7"/>
<polygon fill="blue" stroke="blue" points="3594.78,-103.39 3584.2,-102.77 3592.08,-109.85 3594.78,-103.39"/>
<text text-anchor="middle" x="3696.39" y="-174.3" font-family="Times,serif" font-size="14.00">object</text>
</g>
<!-- frequency qualifier -->
<g id="node30" class="node">
<title>frequency qualifier</title>
<ellipse fill="none" stroke="blue" cx="3842.39" cy="-178" rx="85.29" ry="18"/>
<text text-anchor="middle" x="3842.39" y="-174.3" font-family="Times,serif" font-size="14.00">frequency value</text>
</g>
<!-- variant to disease association&#45;&gt;frequency qualifier -->
<g id="edge24" class="edge">
<title>variant to disease association&#45;&gt;frequency qualifier</title>
<path fill="none" stroke="blue" d="M2281,-251.74C2300.03,-249.83 2319.81,-248.12 2338.39,-247 2490.47,-237.84 3559.69,-257.23 3709.39,-229 3741.1,-223.02 3775.12,-210.1 3800.82,-198.89"/>
<polygon fill="blue" stroke="blue" points="3802.53,-201.96 3810.24,-194.7 3799.68,-195.57 3802.53,-201.96"/>
<text text-anchor="middle" x="3830.39" y="-217.8" font-family="Times,serif" font-size="14.00">frequency qualifier</text>
</g>
<!-- severity qualifier -->
<g id="node31" class="node">
<title>severity qualifier</title>
<ellipse fill="none" stroke="blue" cx="4021.39" cy="-178" rx="76.09" ry="18"/>
<text text-anchor="middle" x="4021.39" y="-174.3" font-family="Times,serif" font-size="14.00">severity value</text>
</g>
<!-- variant to disease association&#45;&gt;severity qualifier -->
<g id="edge25" class="edge">
<title>variant to disease association&#45;&gt;severity qualifier</title>
<path fill="none" stroke="blue" d="M2281,-251.72C2300.03,-249.81 2319.8,-248.1 2338.39,-247 2425.14,-241.85 3817.31,-246.66 3902.39,-229 3930.74,-223.12 3960.79,-210.44 3983.6,-199.32"/>
<polygon fill="blue" stroke="blue" points="3985.2,-202.43 3992.59,-194.83 3982.08,-196.16 3985.2,-202.43"/>
<text text-anchor="middle" x="4011.39" y="-217.8" font-family="Times,serif" font-size="14.00">severity qualifier</text>
</g>
<!-- onset qualifier -->
<g id="node32" class="node">
<title>onset qualifier</title>
<ellipse fill="none" stroke="blue" cx="4158.39" cy="-178" rx="36.29" ry="18"/>
<text text-anchor="middle" x="4158.39" y="-174.3" font-family="Times,serif" font-size="14.00">onset</text>
</g>
<!-- variant to disease association&#45;&gt;onset qualifier -->
<g id="edge26" class="edge">
<title>variant to disease association&#45;&gt;onset qualifier</title>
<path fill="none" stroke="blue" d="M2281,-251.7C2300.03,-249.79 2319.8,-248.09 2338.39,-247 2434.79,-241.33 3983.57,-255.59 4076.39,-229 4096.63,-223.2 4116.84,-210.97 4132.14,-200.05"/>
<polygon fill="blue" stroke="blue" points="4134.59,-202.6 4140.54,-193.84 4130.42,-196.97 4134.59,-202.6"/>
<text text-anchor="middle" x="4160.89" y="-217.8" font-family="Times,serif" font-size="14.00">onset qualifier</text>
</g>
<!-- association_type -->
<g id="node21" class="node">
<title>association_type</title>
<ellipse fill="none" stroke="blue" cx="2385.39" cy="-265" rx="38.19" ry="18"/>
<text text-anchor="middle" x="2385.39" y="-261.3" font-family="Times,serif" font-size="14.00">string</text>
</g>
<!-- association_category -->
<g id="node23" class="node">
<title>association_category</title>
<ellipse fill="none" stroke="blue" cx="2516.39" cy="-265" rx="74.99" ry="18"/>
<text text-anchor="middle" x="2516.39" y="-261.3" font-family="Times,serif" font-size="14.00">category type</text>
</g>
<!-- subject&#45;&gt;object -->
<g id="edge27" class="edge">
<title>subject&#45;&gt;object</title>
<path fill="none" stroke="black" d="M3500.31,-160.61C3510.29,-147.95 3524.26,-130.24 3535.49,-115.98"/>
<polygon fill="black" stroke="black" points="3538.3,-118.07 3541.74,-108.05 3532.8,-113.74 3538.3,-118.07"/>
<text text-anchor="middle" x="3553.39" y="-130.8" font-family="Times,serif" font-size="14.00">relation</text>
</g>
<!-- relation -->
<g id="node33" class="node">
<title>relation</title>
<ellipse fill="none" stroke="black" cx="3499.39" cy="-18" rx="46.59" ry="18"/>
<text text-anchor="middle" x="3499.39" y="-14.3" font-family="Times,serif" font-size="14.00">relation</text>
</g>
<!-- subject&#45;&gt;relation -->
<g id="edge28" class="edge">
<title>subject&#45;&gt;relation</title>
<path fill="none" stroke="black" stroke-dasharray="1,5" d="M3488.7,-159.79C3490.78,-132.48 3494.84,-78.99 3497.31,-46.38"/>
<polygon fill="black" stroke="black" points="3500.82,-46.42 3498.09,-36.19 3493.84,-45.89 3500.82,-46.42"/>
</g>
<!-- variant to disease association_subject -->
<g id="node25" class="node">
<title>variant to disease association_subject</title>
<ellipse fill="none" stroke="blue" cx="2678.39" cy="-265" rx="69.59" ry="18"/>
<text text-anchor="middle" x="2678.39" y="-261.3" font-family="Times,serif" font-size="14.00">named thing</text>
</g>
<!-- variant to disease association_predicate -->
<g id="node27" class="node">
<title>variant to disease association_predicate</title>
<ellipse fill="none" stroke="blue" cx="2844.39" cy="-265" rx="77.99" ry="18"/>
<text text-anchor="middle" x="2844.39" y="-261.3" font-family="Times,serif" font-size="14.00">predicate type</text>
</g>
<!-- object&#45;&gt;relation -->
<g id="edge29" class="edge">
<title>object&#45;&gt;relation</title>
<path fill="none" stroke="black" stroke-dasharray="1,5" d="M3541.91,-73.89C3534.98,-64.94 3526.21,-53.62 3518.44,-43.58"/>
<polygon fill="black" stroke="black" points="3521.1,-41.3 3512.21,-35.54 3515.56,-45.59 3521.1,-41.3"/>
</g>
<!-- variant to disease association_object -->
<g id="node29" class="node">
<title>variant to disease association_object</title>
<ellipse fill="none" stroke="blue" cx="3010.39" cy="-265" rx="69.59" ry="18"/>
<text text-anchor="middle" x="3010.39" y="-261.3" font-family="Times,serif" font-size="14.00">named thing</text>
</g>
</g>
</svg>
