<?xml version="1.0" encoding="UTF-8" standalone="no"?>
<!DOCTYPE svg PUBLIC "-//W3C//DTD SVG 1.1//EN"
 "http://www.w3.org/Graphics/SVG/1.1/DTD/svg11.dtd">
<!-- Generated by graphviz version 2.40.1 (20161225.0304)
 -->
<!-- Title: %3 Pages: 1 -->
<svg width="2296pt" height="291pt"
 viewBox="0.00 0.00 2295.64 291.00" xmlns="http://www.w3.org/2000/svg" xmlns:xlink="http://www.w3.org/1999/xlink">
<g id="graph0" class="graph" transform="scale(1 1) rotate(0) translate(4 287)">
<title>%3</title>
<polygon fill="#ffffff" stroke="transparent" points="-4,4 -4,-287 2291.6396,-287 2291.6396,4 -4,4"/>
<!-- variant to population association -->
<g id="node1" class="node">
<title>variant to population association</title>
<ellipse fill="none" stroke="#000000" cx="1299.0456" cy="-265" rx="126.1777" ry="18"/>
<text text-anchor="middle" x="1299.0456" y="-261.3" font-family="Times,serif" font-size="14.00" fill="#000000">variant to population association</text>
</g>
<!-- association -->
<g id="node2" class="node">
<title>association</title>
<ellipse fill="none" stroke="#000000" cx="50.0456" cy="-178" rx="50.0912" ry="18"/>
<text text-anchor="middle" x="50.0456" y="-174.3" font-family="Times,serif" font-size="14.00" fill="#000000">association</text>
</g>
<!-- variant to population association&#45;&gt;association -->
<g id="edge1" class="edge">
<title>variant to population association&#45;&gt;association</title>
<path fill="none" stroke="#000000" d="M1174.5136,-262.066C1006.9699,-257.5991 699.7649,-247.5814 438.0456,-229 291.4586,-218.5927 253.129,-224.9136 109.0456,-196 104.9113,-195.1704 100.653,-194.1701 96.4066,-193.0713"/>
<polygon fill="#000000" stroke="#000000" points="97.1548,-189.6471 86.5842,-190.3627 95.2939,-196.3952 97.1548,-189.6471"/>
<text text-anchor="middle" x="449.0456" y="-217.8" font-family="Times,serif" font-size="14.00" fill="#000000">is_a</text>
</g>
<!-- variant to thing association -->
<g id="node3" class="node">
<title>variant to thing association</title>
<ellipse fill="none" stroke="#000000" cx="225.0456" cy="-178" rx="106.6812" ry="18"/>
<text text-anchor="middle" x="225.0456" y="-174.3" font-family="Times,serif" font-size="14.00" fill="#000000">variant to thing association</text>
</g>
<!-- variant to population association&#45;&gt;variant to thing association -->
<g id="edge2" class="edge">
<title>variant to population association&#45;&gt;variant to thing association</title>
<path fill="none" stroke="#000000" d="M1175.2057,-261.5126C1034.7932,-256.8935 799.1175,-247.1281 597.0456,-229 482.3462,-218.7102 454.0549,-212.239 340.0456,-196 331.1568,-194.7339 321.8894,-193.3651 312.6427,-191.9674"/>
<polygon fill="#000000" stroke="#000000" points="313.0491,-188.489 302.636,-190.4429 311.9947,-195.4092 313.0491,-188.489"/>
<text text-anchor="middle" x="609.0456" y="-217.8" font-family="Times,serif" font-size="14.00" fill="#000000">uses</text>
</g>
<!-- frequency quantifier -->
<g id="node4" class="node">
<title>frequency quantifier</title>
<ellipse fill="none" stroke="#000000" cx="432.0456" cy="-178" rx="82.5854" ry="18"/>
<text text-anchor="middle" x="432.0456" y="-174.3" font-family="Times,serif" font-size="14.00" fill="#000000">frequency quantifier</text>
</g>
<!-- variant to population association&#45;&gt;frequency quantifier -->
<g id="edge3" class="edge">
<title>variant to population association&#45;&gt;frequency quantifier</title>
<path fill="none" stroke="#000000" d="M1176.8169,-260.5588C1061.7911,-255.5941 884.8584,-245.9355 732.0456,-229 639.0145,-218.6898 616.2121,-212.3222 524.0456,-196 517.2622,-194.7987 510.2068,-193.5026 503.1549,-192.1758"/>
<polygon fill="#000000" stroke="#000000" points="503.3353,-188.6474 492.8575,-190.2175 502.0275,-195.5242 503.3353,-188.6474"/>
<text text-anchor="middle" x="744.0456" y="-217.8" font-family="Times,serif" font-size="14.00" fill="#000000">uses</text>
</g>
<!-- frequency qualifier mixin -->
<g id="node5" class="node">
<title>frequency qualifier mixin</title>
<ellipse fill="none" stroke="#000000" cx="634.0456" cy="-178" rx="101.2821" ry="18"/>
<text text-anchor="middle" x="634.0456" y="-174.3" font-family="Times,serif" font-size="14.00" fill="#000000">frequency qualifier mixin</text>
</g>
<!-- variant to population association&#45;&gt;frequency qualifier mixin -->
<g id="edge4" class="edge">
<title>variant to population association&#45;&gt;frequency qualifier mixin</title>
<path fill="none" stroke="#000000" d="M1175.1584,-261.4282C1080.4058,-257.2604 946.7966,-248.2797 831.0456,-229 784.6599,-221.2739 733.2529,-207.7947 694.5861,-196.6336"/>
<polygon fill="#000000" stroke="#000000" points="695.118,-193.143 684.538,-193.7028 693.1579,-199.863 695.118,-193.143"/>
<text text-anchor="middle" x="843.0456" y="-217.8" font-family="Times,serif" font-size="14.00" fill="#000000">uses</text>
</g>
<!-- id -->
<g id="node6" class="node">
<title>id</title>
<ellipse fill="none" stroke="#000000" cx="780.0456" cy="-178" rx="27" ry="18"/>
<text text-anchor="middle" x="780.0456" y="-174.3" font-family="Times,serif" font-size="14.00" fill="#000000">id</text>
</g>
<!-- variant to population association&#45;&gt;id -->
<g id="edge5" class="edge">
<title>variant to population association&#45;&gt;id</title>
<path fill="none" stroke="#0000ff" d="M1184.1787,-257.5666C1088.3863,-250.7812 959.6821,-240.1381 909.0456,-229 866.2112,-219.5781 856.4022,-213.1727 816.0456,-196 814.2613,-195.2408 812.4408,-194.4346 810.613,-193.6006"/>
<polygon fill="#0000ff" stroke="#0000ff" points="812.0797,-190.4225 801.5458,-189.2874 809.0727,-196.7438 812.0797,-190.4225"/>
<text text-anchor="middle" x="914.5456" y="-217.8" font-family="Times,serif" font-size="14.00" fill="#000000">id</text>
</g>
<!-- association type -->
<g id="node8" class="node">
<title>association type</title>
<ellipse fill="none" stroke="#0000ff" cx="887.0456" cy="-178" rx="61.99" ry="18"/>
<text text-anchor="middle" x="887.0456" y="-174.3" font-family="Times,serif" font-size="14.00" fill="#000000">ontology class</text>
</g>
<!-- variant to population association&#45;&gt;association type -->
<g id="edge6" class="edge">
<title>variant to population association&#45;&gt;association type</title>
<path fill="none" stroke="#0000ff" d="M1177.4561,-260.223C1092.5448,-255.4472 987.4457,-246.2338 947.0456,-229 933.1169,-223.0583 920.0088,-212.7106 909.6189,-202.8819"/>
<polygon fill="#0000ff" stroke="#0000ff" points="911.7967,-200.112 902.2349,-195.5487 906.864,-205.0788 911.7967,-200.112"/>
<text text-anchor="middle" x="991.0456" y="-217.8" font-family="Times,serif" font-size="14.00" fill="#000000">association type</text>
</g>
<!-- predicate -->
<g id="node9" class="node">
<title>predicate</title>
<ellipse fill="none" stroke="#0000ff" cx="1027.0456" cy="-178" rx="60.3893" ry="18"/>
<text text-anchor="middle" x="1027.0456" y="-174.3" font-family="Times,serif" font-size="14.00" fill="#000000">predicate type</text>
</g>
<!-- variant to population association&#45;&gt;predicate -->
<g id="edge7" class="edge">
<title>variant to population association&#45;&gt;predicate</title>
<path fill="none" stroke="#0000ff" d="M1181.1957,-258.4704C1127.8248,-253.4193 1072.0216,-244.538 1051.0456,-229 1043.3328,-223.2868 1038.0071,-214.4647 1034.3714,-205.7547"/>
<polygon fill="#0000ff" stroke="#0000ff" points="1037.5996,-204.3865 1030.9476,-196.1402 1031.0052,-206.7349 1037.5996,-204.3865"/>
<text text-anchor="middle" x="1076.0456" y="-217.8" font-family="Times,serif" font-size="14.00" fill="#000000">predicate</text>
</g>
<!-- relation -->
<g id="node10" class="node">
<title>relation</title>
<ellipse fill="none" stroke="#0000ff" cx="1571.0456" cy="-18" rx="45.4919" ry="18"/>
<text text-anchor="middle" x="1571.0456" y="-14.3" font-family="Times,serif" font-size="14.00" fill="#000000">uriorcurie</text>
</g>
<!-- variant to population association&#45;&gt;relation -->
<g id="edge8" class="edge">
<title>variant to population association&#45;&gt;relation</title>
<path fill="none" stroke="#0000ff" d="M1231.4325,-249.7783C1172.9777,-233.3208 1102.4628,-203.4708 1134.0456,-160 1180.1606,-96.5267 1413.404,-46.7606 1518.987,-27.1107"/>
<polygon fill="#0000ff" stroke="#0000ff" points="1519.8977,-30.502 1529.0984,-25.2485 1518.6298,-23.6177 1519.8977,-30.502"/>
<text text-anchor="middle" x="1197.0456" y="-130.8" font-family="Times,serif" font-size="14.00" fill="#000000">relation</text>
</g>
<!-- negated -->
<g id="node11" class="node">
<title>negated</title>
<ellipse fill="none" stroke="#0000ff" cx="1181.0456" cy="-178" rx="38.1938" ry="18"/>
<text text-anchor="middle" x="1181.0456" y="-174.3" font-family="Times,serif" font-size="14.00" fill="#000000">boolean</text>
</g>
<!-- variant to population association&#45;&gt;negated -->
<g id="edge9" class="edge">
<title>variant to population association&#45;&gt;negated</title>
<path fill="none" stroke="#0000ff" d="M1274.8818,-247.1843C1256.1203,-233.3517 1230.0368,-214.1207 1210.1309,-199.4442"/>
<polygon fill="#0000ff" stroke="#0000ff" points="1212.1432,-196.5795 1202.0173,-193.4622 1207.9891,-202.2137 1212.1432,-196.5795"/>
<text text-anchor="middle" x="1269.5456" y="-217.8" font-family="Times,serif" font-size="14.00" fill="#000000">negated</text>
</g>
<!-- qualifiers -->
<g id="node12" class="node">
<title>qualifiers</title>
<ellipse fill="none" stroke="#0000ff" cx="1299.0456" cy="-178" rx="61.99" ry="18"/>
<text text-anchor="middle" x="1299.0456" y="-174.3" font-family="Times,serif" font-size="14.00" fill="#000000">ontology class</text>
</g>
<!-- variant to population association&#45;&gt;qualifiers -->
<g id="edge10" class="edge">
<title>variant to population association&#45;&gt;qualifiers</title>
<path fill="none" stroke="#0000ff" d="M1299.0456,-246.9735C1299.0456,-235.1918 1299.0456,-219.5607 1299.0456,-206.1581"/>
<polygon fill="#0000ff" stroke="#0000ff" points="1302.5457,-206.0033 1299.0456,-196.0034 1295.5457,-206.0034 1302.5457,-206.0033"/>
<text text-anchor="middle" x="1325.0456" y="-217.8" font-family="Times,serif" font-size="14.00" fill="#000000">qualifiers</text>
</g>
<!-- publications -->
<g id="node13" class="node">
<title>publications</title>
<ellipse fill="none" stroke="#0000ff" cx="1429.0456" cy="-178" rx="50.0912" ry="18"/>
<text text-anchor="middle" x="1429.0456" y="-174.3" font-family="Times,serif" font-size="14.00" fill="#000000">publication</text>
</g>
<!-- variant to population association&#45;&gt;publications -->
<g id="edge11" class="edge">
<title>variant to population association&#45;&gt;publications</title>
<path fill="none" stroke="#0000ff" d="M1326.789,-247.4135C1335.8378,-241.6113 1345.9059,-235.085 1355.0456,-229 1369.2153,-219.5661 1384.7478,-208.9103 1397.9079,-199.7874"/>
<polygon fill="#0000ff" stroke="#0000ff" points="1399.9609,-202.623 1406.1753,-194.0421 1395.9661,-196.8747 1399.9609,-202.623"/>
<text text-anchor="middle" x="1409.5456" y="-217.8" font-family="Times,serif" font-size="14.00" fill="#000000">publications</text>
</g>
<!-- provided by -->
<g id="node14" class="node">
<title>provided by</title>
<ellipse fill="none" stroke="#0000ff" cx="1527.0456" cy="-178" rx="29.795" ry="18"/>
<text text-anchor="middle" x="1527.0456" y="-174.3" font-family="Times,serif" font-size="14.00" fill="#000000">agent</text>
</g>
<!-- variant to population association&#45;&gt;provided by -->
<g id="edge12" class="edge">
<title>variant to population association&#45;&gt;provided by</title>
<path fill="none" stroke="#0000ff" d="M1377.7983,-250.9046C1400.6375,-245.4758 1425.2752,-238.2833 1447.0456,-229 1465.917,-220.9528 1485.3628,-208.6634 1500.3567,-198.1647"/>
<polygon fill="#0000ff" stroke="#0000ff" points="1502.5417,-200.9048 1508.6325,-192.2357 1498.465,-195.2144 1502.5417,-200.9048"/>
<text text-anchor="middle" x="1508.0456" y="-217.8" font-family="Times,serif" font-size="14.00" fill="#000000">provided by</text>
</g>
<!-- subject -->
<g id="node15" class="node">
<title>subject</title>
<ellipse fill="none" stroke="#000000" cx="1611.0456" cy="-178" rx="35.9954" ry="18"/>
<text text-anchor="middle" x="1611.0456" y="-174.3" font-family="Times,serif" font-size="14.00" fill="#000000">subject</text>
</g>
<!-- variant to population association&#45;&gt;subject -->
<g id="edge13" class="edge">
<title>variant to population association&#45;&gt;subject</title>
<path fill="none" stroke="#0000ff" d="M1390.8896,-252.6645C1457.7161,-243.5102 1537.7453,-232.1003 1545.0456,-229 1560.5317,-222.4234 1575.5559,-211.3111 1587.3476,-201.135"/>
<polygon fill="#0000ff" stroke="#0000ff" points="1589.8532,-203.5893 1594.9606,-194.3068 1585.1793,-198.3783 1589.8532,-203.5893"/>
<text text-anchor="middle" x="1590.5456" y="-217.8" font-family="Times,serif" font-size="14.00" fill="#000000">subject</text>
</g>
<!-- object -->
<g id="node17" class="node">
<title>object</title>
<ellipse fill="none" stroke="#000000" cx="1631.0456" cy="-91" rx="32.4942" ry="18"/>
<text text-anchor="middle" x="1631.0456" y="-87.3" font-family="Times,serif" font-size="14.00" fill="#000000">object</text>
</g>
<!-- variant to population association&#45;&gt;object -->
<g id="edge14" class="edge">
<title>variant to population association&#45;&gt;object</title>
<path fill="none" stroke="#0000ff" d="M1389.7664,-252.4875C1404.5553,-250.5676 1419.7193,-248.6709 1434.0456,-247 1513.9032,-237.6858 1539.4662,-259.032 1614.0456,-229 1636.0665,-220.1325 1643.2243,-215.9793 1656.0456,-196 1669.3779,-175.2242 1666.1364,-166.5137 1669.0456,-142 1669.8312,-135.3798 1671.6798,-133.1242 1669.0456,-127 1666.7564,-121.678 1663.2509,-116.7742 1659.2768,-112.4103"/>
<polygon fill="#0000ff" stroke="#0000ff" points="1661.402,-109.5968 1651.7787,-105.1646 1656.5377,-114.6306 1661.402,-109.5968"/>
<text text-anchor="middle" x="1685.0456" y="-174.3" font-family="Times,serif" font-size="14.00" fill="#000000">object</text>
</g>
<!-- has quotient -->
<g id="node19" class="node">
<title>has quotient</title>
<ellipse fill="none" stroke="#000000" cx="1789.0456" cy="-178" rx="53.8905" ry="18"/>
<text text-anchor="middle" x="1789.0456" y="-174.3" font-family="Times,serif" font-size="14.00" fill="#000000">has quotient</text>
</g>
<!-- variant to population association&#45;&gt;has quotient -->
<g id="edge15" class="edge">
<title>variant to population association&#45;&gt;has quotient</title>
<path fill="none" stroke="#0000ff" d="M1388.27,-252.2808C1403.5221,-250.3424 1419.2243,-248.4937 1434.0456,-247 1550.6174,-235.2516 1584.6839,-262.1945 1697.0456,-229 1718.522,-222.6553 1740.5328,-210.6872 1757.6383,-199.9387"/>
<polygon fill="#0000ff" stroke="#0000ff" points="1759.6085,-202.8328 1766.1075,-194.4654 1755.809,-196.9537 1759.6085,-202.8328"/>
<text text-anchor="middle" x="1765.5456" y="-217.8" font-family="Times,serif" font-size="14.00" fill="#000000">has quotient</text>
</g>
<!-- has count -->
<g id="node21" class="node">
<title>has count</title>
<ellipse fill="none" stroke="#000000" cx="1905.0456" cy="-178" rx="44.393" ry="18"/>
<text text-anchor="middle" x="1905.0456" y="-174.3" font-family="Times,serif" font-size="14.00" fill="#000000">has count</text>
</g>
<!-- variant to population association&#45;&gt;has count -->
<g id="edge16" class="edge">
<title>variant to population association&#45;&gt;has count</title>
<path fill="none" stroke="#0000ff" d="M1387.5201,-252.1241C1403.0021,-250.1798 1418.9749,-248.3699 1434.0456,-247 1515.806,-239.5683 1723.6276,-249.8036 1803.0456,-229 1827.681,-222.5467 1853.3111,-209.7028 1872.7169,-198.5196"/>
<polygon fill="#0000ff" stroke="#0000ff" points="1874.6124,-201.4649 1881.4398,-193.3632 1871.0503,-195.439 1874.6124,-201.4649"/>
<text text-anchor="middle" x="1868.0456" y="-217.8" font-family="Times,serif" font-size="14.00" fill="#000000">has count</text>
</g>
<!-- has total -->
<g id="node23" class="node">
<title>has total</title>
<ellipse fill="none" stroke="#000000" cx="2007.0456" cy="-178" rx="40.0939" ry="18"/>
<text text-anchor="middle" x="2007.0456" y="-174.3" font-family="Times,serif" font-size="14.00" fill="#000000">has total</text>
</g>
<!-- variant to population association&#45;&gt;has total -->
<g id="edge17" class="edge">
<title>variant to population association&#45;&gt;has total</title>
<path fill="none" stroke="#0000ff" d="M1387.1461,-252.0426C1402.7425,-250.0948 1418.8505,-248.3048 1434.0456,-247 1536.8559,-238.1714 1797.7706,-253.348 1898.0456,-229 1924.9275,-222.4727 1953.1605,-209.0545 1974.1559,-197.6196"/>
<polygon fill="#0000ff" stroke="#0000ff" points="1975.9445,-200.6297 1982.9734,-192.7022 1972.535,-194.5161 1975.9445,-200.6297"/>
<text text-anchor="middle" x="1962.0456" y="-217.8" font-family="Times,serif" font-size="14.00" fill="#000000">has total</text>
</g>
<!-- has percentage -->
<g id="node25" class="node">
<title>has percentage</title>
<ellipse fill="none" stroke="#0000ff" cx="2100.0456" cy="-178" rx="34.394" ry="18"/>
<text text-anchor="middle" x="2100.0456" y="-174.3" font-family="Times,serif" font-size="14.00" fill="#000000">double</text>
</g>
<!-- variant to population association&#45;&gt;has percentage -->
<g id="edge18" class="edge">
<title>variant to population association&#45;&gt;has percentage</title>
<path fill="none" stroke="#0000ff" d="M1386.7767,-252.0067C1402.4866,-250.05 1418.7286,-248.2663 1434.0456,-247 1557.0242,-236.8329 1868.9408,-257.319 1989.0456,-229 2017.0955,-222.3862 2046.6431,-208.4235 2068.1947,-196.7774"/>
<polygon fill="#0000ff" stroke="#0000ff" points="2070.1513,-199.6949 2077.2064,-191.7907 2066.762,-193.5701 2070.1513,-199.6949"/>
<text text-anchor="middle" x="2071.5456" y="-217.8" font-family="Times,serif" font-size="14.00" fill="#000000">has percentage</text>
</g>
<!-- frequency qualifier -->
<g id="node26" class="node">
<title>frequency qualifier</title>
<ellipse fill="none" stroke="#0000ff" cx="2220.0456" cy="-178" rx="67.6881" ry="18"/>
<text text-anchor="middle" x="2220.0456" y="-174.3" font-family="Times,serif" font-size="14.00" fill="#000000">frequency value</text>
</g>
<!-- variant to population association&#45;&gt;frequency qualifier -->
<g id="edge19" class="edge">
<title>variant to population association&#45;&gt;frequency qualifier</title>
<path fill="none" stroke="#0000ff" d="M1386.408,-251.9745C1402.231,-250.0082 1418.607,-248.2295 1434.0456,-247 1509.6105,-240.9822 2042.435,-247.104 2116.0456,-229 2140.321,-223.0296 2165.5439,-210.8317 2185.0698,-199.8621"/>
<polygon fill="#0000ff" stroke="#0000ff" points="2186.9791,-202.8014 2193.8918,-194.7724 2183.4809,-196.7381 2186.9791,-202.8014"/>
<text text-anchor="middle" x="2206.0456" y="-217.8" font-family="Times,serif" font-size="14.00" fill="#000000">frequency qualifier</text>
</g>
<!-- association_id -->
<g id="node7" class="node">
<title>association_id</title>
<ellipse fill="none" stroke="#0000ff" cx="1474.0456" cy="-265" rx="30.5947" ry="18"/>
<text text-anchor="middle" x="1474.0456" y="-261.3" font-family="Times,serif" font-size="14.00" fill="#000000">string</text>
</g>
<!-- subject&#45;&gt;relation -->
<g id="edge21" class="edge">
<title>subject&#45;&gt;relation</title>
<path fill="none" stroke="#000000" stroke-dasharray="1,5" d="M1605.072,-159.9654C1600.6032,-146.1164 1594.5177,-126.4678 1590.0456,-109 1584.6917,-88.0882 1579.7459,-64.1877 1576.2431,-46.1297"/>
<polygon fill="#000000" stroke="#000000" points="1579.6682,-45.4058 1574.3553,-36.2393 1572.7923,-46.7182 1579.6682,-45.4058"/>
</g>
<!-- subject&#45;&gt;object -->
<g id="edge20" class="edge">
<title>subject&#45;&gt;object</title>
<path fill="none" stroke="#000000" d="M1615.1896,-159.9735C1617.9248,-148.0751 1621.5626,-132.2508 1624.6638,-118.7606"/>
<polygon fill="#000000" stroke="#000000" points="1628.0774,-119.5333 1626.9069,-109.0034 1621.2553,-117.965 1628.0774,-119.5333"/>
<text text-anchor="middle" x="1644.0456" y="-130.8" font-family="Times,serif" font-size="14.00" fill="#000000">relation</text>
</g>
<!-- variant to population association_subject -->
<g id="node16" class="node">
<title>variant to population association_subject</title>
<ellipse fill="none" stroke="#0000ff" cx="1592.0456" cy="-265" rx="69.5877" ry="18"/>
<text text-anchor="middle" x="1592.0456" y="-261.3" font-family="Times,serif" font-size="14.00" fill="#000000">sequence variant</text>
</g>
<!-- object&#45;&gt;relation -->
<g id="edge22" class="edge">
<title>object&#45;&gt;relation</title>
<path fill="none" stroke="#000000" stroke-dasharray="1,5" d="M1617.4306,-74.4352C1609.8462,-65.2075 1600.2464,-53.5276 1591.7502,-43.1906"/>
<polygon fill="#000000" stroke="#000000" points="1594.2862,-40.764 1585.2327,-35.261 1588.8784,-45.2088 1594.2862,-40.764"/>
</g>
<!-- variant to population association_object -->
<g id="node18" class="node">
<title>variant to population association_object</title>
<ellipse fill="none" stroke="#0000ff" cx="1815.0456" cy="-265" rx="135.3763" ry="18"/>
<text text-anchor="middle" x="1815.0456" y="-261.3" font-family="Times,serif" font-size="14.00" fill="#000000">population of individual organisms</text>
</g>
<!-- variant to population association_has quotient -->
<g id="node20" class="node">
<title>variant to population association_has quotient</title>
<ellipse fill="none" stroke="#0000ff" cx="2003.0456" cy="-265" rx="34.394" ry="18"/>
<text text-anchor="middle" x="2003.0456" y="-261.3" font-family="Times,serif" font-size="14.00" fill="#000000">double</text>
</g>
<!-- variant to population association_has count -->
<g id="node22" class="node">
<title>variant to population association_has count</title>
<ellipse fill="none" stroke="#0000ff" cx="2091.0456" cy="-265" rx="35.194" ry="18"/>
<text text-anchor="middle" x="2091.0456" y="-261.3" font-family="Times,serif" font-size="14.00" fill="#000000">integer</text>
</g>
<!-- variant to population association_has total -->
<g id="node24" class="node">
<title>variant to population association_has total</title>
<ellipse fill="none" stroke="#0000ff" cx="2179.0456" cy="-265" rx="35.194" ry="18"/>
<text text-anchor="middle" x="2179.0456" y="-261.3" font-family="Times,serif" font-size="14.00" fill="#000000">integer</text>
</g>
</g>
</svg>
