<?xml version="1.0" encoding="UTF-8" standalone="no"?>
<!DOCTYPE svg PUBLIC "-//W3C//DTD SVG 1.1//EN"
 "http://www.w3.org/Graphics/SVG/1.1/DTD/svg11.dtd">
<!-- Generated by graphviz version 2.40.1 (20161225.0304)
 -->
<!-- Title: %3 Pages: 1 -->
<svg width="1592pt" height="289pt"
 viewBox="0.00 0.00 1591.61 289.00" xmlns="http://www.w3.org/2000/svg" xmlns:xlink="http://www.w3.org/1999/xlink">
<g id="graph0" class="graph" transform="scale(1 1) rotate(0) translate(4 285)">
<title>%3</title>
<polygon fill="#ffffff" stroke="transparent" points="-4,4 -4,-285 1587.6085,-285 1587.6085,4 -4,4"/>
<!-- variant to disease association -->
<g id="node1" class="node">
<title>variant to disease association</title>
<ellipse fill="none" stroke="#000000" cx="917.4015" cy="-263" rx="113.0056" ry="18"/>
<text text-anchor="middle" x="917.4015" y="-258.8" font-family="Times,serif" font-size="14.00" fill="#000000">variant to disease association</text>
</g>
<!-- association -->
<g id="node2" class="node">
<title>association</title>
<ellipse fill="none" stroke="#000000" cx="49.4015" cy="-177" rx="49.3032" ry="18"/>
<text text-anchor="middle" x="49.4015" y="-172.8" font-family="Times,serif" font-size="14.00" fill="#000000">association</text>
</g>
<!-- variant to disease association&#45;&gt;association -->
<g id="edge1" class="edge">
<title>variant to disease association&#45;&gt;association</title>
<path fill="none" stroke="#000000" d="M810.2101,-257.1425C621.8154,-246.3238 238.8394,-221.8478 107.4015,-195 103.5036,-194.2038 99.4946,-193.2512 95.492,-192.2057"/>
<polygon fill="#000000" stroke="#000000" points="96.1955,-188.7683 85.6227,-189.4514 94.3138,-195.5107 96.1955,-188.7683"/>
<text text-anchor="middle" x="372.6774" y="-215.8" font-family="Times,serif" font-size="14.00" fill="#000000">is_a</text>
</g>
<!-- variant to thing association -->
<g id="node3" class="node">
<title>variant to thing association</title>
<ellipse fill="none" stroke="#000000" cx="222.4015" cy="-177" rx="105.7897" ry="18"/>
<text text-anchor="middle" x="222.4015" y="-172.8" font-family="Times,serif" font-size="14.00" fill="#000000">variant to thing association</text>
</g>
<!-- variant to disease association&#45;&gt;variant to thing association -->
<g id="edge2" class="edge">
<title>variant to disease association&#45;&gt;variant to thing association</title>
<path fill="none" stroke="#000000" d="M816.2532,-254.9613C740.4367,-248.5373 634.1959,-238.6907 541.2912,-227 449.8463,-215.493 427.4517,-209.2983 336.4015,-195 327.8444,-193.6562 318.9264,-192.253 310.0134,-190.8487"/>
<polygon fill="#000000" stroke="#000000" points="310.3951,-187.3657 299.9721,-189.2658 309.3051,-194.2803 310.3951,-187.3657"/>
<text text-anchor="middle" x="553.4567" y="-215.8" font-family="Times,serif" font-size="14.00" fill="#000000">uses</text>
</g>
<!-- entity to disease association -->
<g id="node4" class="node">
<title>entity to disease association</title>
<ellipse fill="none" stroke="#000000" cx="454.4015" cy="-177" rx="108.6795" ry="18"/>
<text text-anchor="middle" x="454.4015" y="-172.8" font-family="Times,serif" font-size="14.00" fill="#000000">entity to disease association</text>
</g>
<!-- variant to disease association&#45;&gt;entity to disease association -->
<g id="edge3" class="edge">
<title>variant to disease association&#45;&gt;entity to disease association</title>
<path fill="none" stroke="#000000" d="M817.055,-254.5887C760.6414,-248.863 689.1383,-239.9399 626.2912,-227 587.8079,-219.0765 545.4142,-206.7852 512.3572,-196.3723"/>
<polygon fill="#000000" stroke="#000000" points="513.0031,-192.9049 502.4126,-193.2079 510.8805,-199.5754 513.0031,-192.9049"/>
<text text-anchor="middle" x="638.4567" y="-215.8" font-family="Times,serif" font-size="14.00" fill="#000000">uses</text>
</g>
<!-- id -->
<g id="node5" class="node">
<title>id</title>
<ellipse fill="none" stroke="#000000" cx="608.4015" cy="-177" rx="27" ry="18"/>
<text text-anchor="middle" x="608.4015" y="-172.8" font-family="Times,serif" font-size="14.00" fill="#000000">id</text>
</g>
<!-- variant to disease association&#45;&gt;id -->
<g id="edge4" class="edge">
<title>variant to disease association&#45;&gt;id</title>
<path fill="none" stroke="#000000" d="M822.6585,-253.1425C768.0199,-246.5849 705.1953,-237.3032 679.5119,-227 662.5067,-220.1782 645.6375,-208.5814 632.5999,-198.273"/>
<polygon fill="#000000" stroke="#000000" points="634.5792,-195.3702 624.6227,-191.748 630.1472,-200.7885 634.5792,-195.3702"/>
<text text-anchor="middle" x="685.8463" y="-215.8" font-family="Times,serif" font-size="14.00" fill="#000000">id</text>
</g>
<!-- negated -->
<g id="node7" class="node">
<title>negated</title>
<ellipse fill="none" stroke="#000000" cx="680.4015" cy="-177" rx="27" ry="18"/>
</g>
<!-- variant to disease association&#45;&gt;negated -->
<g id="edge5" class="edge">
<title>variant to disease association&#45;&gt;negated</title>
<path fill="none" stroke="#000000" d="M817.2629,-254.5615C771.6792,-249.0168 723.9138,-240.2701 705.8703,-227 698.2296,-221.3806 692.7169,-212.8037 688.8187,-204.3315"/>
<polygon fill="#000000" stroke="#000000" points="692.0394,-202.9591 685.0761,-194.9739 685.5399,-205.5586 692.0394,-202.9591"/>
<text text-anchor="middle" x="728.1671" y="-215.8" font-family="Times,serif" font-size="14.00" fill="#000000">negated</text>
</g>
<!-- association type -->
<g id="node8" class="node">
<title>association type</title>
<ellipse fill="none" stroke="#000000" cx="752.4015" cy="-177" rx="27" ry="18"/>
</g>
<!-- variant to disease association&#45;&gt;association type -->
<g id="edge6" class="edge">
<title>variant to disease association&#45;&gt;association type</title>
<path fill="none" stroke="#000000" d="M828.7502,-251.6849C798.476,-246.0061 769.6848,-237.9517 759.591,-227 754.2186,-221.1711 751.7437,-213.2248 750.79,-205.3832"/>
<polygon fill="#000000" stroke="#000000" points="754.2823,-205.1382 750.2967,-195.3217 747.2907,-205.4811 754.2823,-205.1382"/>
<text text-anchor="middle" x="805.3068" y="-215.8" font-family="Times,serif" font-size="14.00" fill="#000000">association type</text>
</g>
<!-- qualifiers -->
<g id="node9" class="node">
<title>qualifiers</title>
<ellipse fill="none" stroke="#000000" cx="842.4015" cy="-177" rx="27" ry="18"/>
</g>
<!-- variant to disease association&#45;&gt;qualifiers -->
<g id="edge7" class="edge">
<title>variant to disease association&#45;&gt;qualifiers</title>
<path fill="none" stroke="#000000" d="M882.8654,-245.7433C874.9816,-240.563 867.1983,-234.2842 861.298,-227 856.0411,-220.5102 852.145,-212.4037 849.3025,-204.6194"/>
<polygon fill="#000000" stroke="#000000" points="852.6291,-203.531 846.2424,-195.0775 845.9635,-205.6687 852.6291,-203.531"/>
<text text-anchor="middle" x="887.4533" y="-215.8" font-family="Times,serif" font-size="14.00" fill="#000000">qualifiers</text>
</g>
<!-- publications -->
<g id="node10" class="node">
<title>publications</title>
<ellipse fill="none" stroke="#000000" cx="917.4015" cy="-177" rx="27" ry="18"/>
</g>
<!-- variant to disease association&#45;&gt;publications -->
<g id="edge8" class="edge">
<title>variant to disease association&#45;&gt;publications</title>
<path fill="none" stroke="#000000" d="M917.4015,-244.7616C917.4015,-233.3597 917.4015,-218.4342 917.4015,-205.494"/>
<polygon fill="#000000" stroke="#000000" points="920.9016,-205.2121 917.4015,-195.2121 913.9016,-205.2121 920.9016,-205.2121"/>
<text text-anchor="middle" x="951.6188" y="-215.8" font-family="Times,serif" font-size="14.00" fill="#000000">publications</text>
</g>
<!-- provided by -->
<g id="node11" class="node">
<title>provided by</title>
<ellipse fill="none" stroke="#000000" cx="1008.4015" cy="-177" rx="27" ry="18"/>
</g>
<!-- variant to disease association&#45;&gt;provided by -->
<g id="edge9" class="edge">
<title>variant to disease association&#45;&gt;provided by</title>
<path fill="none" stroke="#000000" d="M960.6443,-246.1508C969.9823,-241.0435 979.2007,-234.6954 986.4015,-227 992.3902,-220.6 996.9222,-212.3042 1000.2688,-204.3156"/>
<polygon fill="#000000" stroke="#000000" points="1003.5756,-205.4646 1003.7812,-194.8718 997.0147,-203.0244 1003.5756,-205.4646"/>
<text text-anchor="middle" x="1030.0343" y="-215.8" font-family="Times,serif" font-size="14.00" fill="#000000">provided by</text>
</g>
<!-- association slot -->
<g id="node12" class="node">
<title>association slot</title>
<ellipse fill="none" stroke="#000000" cx="1098.4015" cy="-177" rx="27" ry="18"/>
</g>
<!-- variant to disease association&#45;&gt;association slot -->
<g id="edge10" class="edge">
<title>variant to disease association&#45;&gt;association slot</title>
<path fill="none" stroke="#000000" d="M995.2556,-249.8965C1025.2841,-243.7003 1055.2993,-235.7439 1067.4015,-227 1075.5484,-221.1138 1082.0126,-212.3648 1086.884,-203.8236"/>
<polygon fill="#000000" stroke="#000000" points="1090.074,-205.2741 1091.549,-194.7824 1083.8533,-202.0643 1090.074,-205.2741"/>
<text text-anchor="middle" x="1124.3688" y="-215.8" font-family="Times,serif" font-size="14.00" fill="#000000">association slot</text>
</g>
<!-- severity qualifier -->
<g id="node13" class="node">
<title>severity qualifier</title>
<ellipse fill="none" stroke="#000000" cx="1207.4015" cy="-177" rx="27" ry="18"/>
</g>
<!-- variant to disease association&#45;&gt;severity qualifier -->
<g id="edge11" class="edge">
<title>variant to disease association&#45;&gt;severity qualifier</title>
<path fill="none" stroke="#000000" d="M1000.072,-250.6776C1013.2248,-248.7532 1026.6831,-246.8054 1039.4015,-245 1098.0235,-236.6787 1120.652,-257.5002 1171.4015,-227 1180.8905,-221.2972 1188.5912,-212.0328 1194.3985,-203.0189"/>
<polygon fill="#000000" stroke="#000000" points="1197.5155,-204.6233 1199.5709,-194.2297 1191.4826,-201.073 1197.5155,-204.6233"/>
<text text-anchor="middle" x="1233.6378" y="-215.8" font-family="Times,serif" font-size="14.00" fill="#000000">severity qualifier</text>
</g>
<!-- onset qualifier -->
<g id="node14" class="node">
<title>onset qualifier</title>
<ellipse fill="none" stroke="#000000" cx="1324.4015" cy="-177" rx="27" ry="18"/>
</g>
<!-- variant to disease association&#45;&gt;onset qualifier -->
<g id="edge12" class="edge">
<title>variant to disease association&#45;&gt;onset qualifier</title>
<path fill="none" stroke="#000000" d="M997.6839,-250.3027C1011.5726,-248.3502 1025.8883,-246.4913 1039.4015,-245 1093.6633,-239.0119 1236.0983,-252.4362 1284.4015,-227 1294.6879,-221.5832 1303.2453,-212.2481 1309.7698,-203.0999"/>
<polygon fill="#000000" stroke="#000000" points="1312.8384,-204.8027 1315.3923,-194.5203 1306.9836,-200.9658 1312.8384,-204.8027"/>
<text text-anchor="middle" x="1340.255" y="-215.8" font-family="Times,serif" font-size="14.00" fill="#000000">onset qualifier</text>
</g>
<!-- subject -->
<g id="node15" class="node">
<title>subject</title>
<ellipse fill="none" stroke="#000000" cx="1482.4015" cy="-177" rx="35.3129" ry="18"/>
<text text-anchor="middle" x="1482.4015" y="-172.8" font-family="Times,serif" font-size="14.00" fill="#000000">subject</text>
</g>
<!-- variant to disease association&#45;&gt;subject -->
<g id="edge13" class="edge">
<title>variant to disease association&#45;&gt;subject</title>
<path fill="none" stroke="#0000ff" d="M996.6673,-250.1212C1010.8662,-248.1523 1025.5493,-246.3349 1039.4015,-245 1083.0229,-240.7964 1393.3971,-244.8925 1433.4015,-227 1445.5365,-221.5725 1456.2467,-211.6558 1464.5344,-202.0766"/>
<polygon fill="#0000ff" stroke="#0000ff" points="1467.328,-204.1884 1470.9044,-194.2154 1461.8894,-199.7814 1467.328,-204.1884"/>
<text text-anchor="middle" x="1473.2292" y="-215.8" font-family="Times,serif" font-size="14.00" fill="#000000">subject</text>
</g>
<!-- relation -->
<g id="node17" class="node">
<title>relation</title>
<ellipse fill="none" stroke="#000000" cx="1477.4015" cy="-18" rx="37.2334" ry="18"/>
<text text-anchor="middle" x="1477.4015" y="-13.8" font-family="Times,serif" font-size="14.00" fill="#000000">relation</text>
</g>
<!-- variant to disease association&#45;&gt;relation -->
<g id="edge14" class="edge">
<title>variant to disease association&#45;&gt;relation</title>
<path fill="none" stroke="#0000ff" d="M997.0024,-250.1505C1011.0986,-248.1909 1025.6602,-246.3691 1039.4015,-245 1077.5979,-241.1944 1352.7668,-248.7414 1384.4015,-227 1392.4513,-221.4677 1443.0625,-100.9831 1466.0573,-45.5118"/>
<polygon fill="#0000ff" stroke="#0000ff" points="1469.4231,-46.5315 1470.013,-35.9531 1462.9551,-43.8548 1469.4231,-46.5315"/>
<text text-anchor="middle" x="1451.7809" y="-129.8" font-family="Times,serif" font-size="14.00" fill="#000000">relation</text>
</g>
<!-- object -->
<g id="node19" class="node">
<title>object</title>
<ellipse fill="none" stroke="#000000" cx="1537.4015" cy="-91" rx="31.9306" ry="18"/>
<text text-anchor="middle" x="1537.4015" y="-86.8" font-family="Times,serif" font-size="14.00" fill="#000000">object</text>
</g>
<!-- variant to disease association&#45;&gt;object -->
<g id="edge15" class="edge">
<title>variant to disease association&#45;&gt;object</title>
<path fill="none" stroke="#0000ff" d="M996.3327,-250.0928C1010.634,-248.1141 1025.4385,-246.3007 1039.4015,-245 1090.1102,-240.2765 1451.2574,-248.5498 1497.4015,-227 1538.9494,-207.5967 1543.5383,-185.55 1554.4015,-141 1556.2742,-133.32 1554.9572,-125.1417 1552.3866,-117.6718"/>
<polygon fill="#0000ff" stroke="#0000ff" points="1555.5676,-116.2078 1548.4481,-108.3616 1549.1208,-118.9351 1555.5676,-116.2078"/>
<text text-anchor="middle" x="1566.505" y="-172.8" font-family="Times,serif" font-size="14.00" fill="#000000">object</text>
</g>
<!-- association_id -->
<g id="node6" class="node">
<title>association_id</title>
<ellipse fill="none" stroke="#000000" cx="1075.4015" cy="-263" rx="27" ry="18"/>
</g>
<!-- subject&#45;&gt;relation -->
<g id="edge17" class="edge">
<title>subject&#45;&gt;relation</title>
<path fill="none" stroke="#000000" stroke-dasharray="1,5" d="M1481.828,-158.7607C1480.9614,-131.2051 1479.3114,-78.735 1478.289,-46.2226"/>
<polygon fill="#000000" stroke="#000000" points="1481.7811,-45.9116 1477.9684,-36.0266 1474.7845,-46.1317 1481.7811,-45.9116"/>
</g>
<!-- subject&#45;&gt;object -->
<g id="edge16" class="edge">
<title>subject&#45;&gt;object</title>
<path fill="none" stroke="#000000" d="M1492.0329,-159.6394C1497.5593,-149.9108 1504.7507,-137.6322 1511.6427,-127 1513.9941,-123.3726 1516.5558,-119.6011 1519.1219,-115.9241"/>
<polygon fill="#000000" stroke="#000000" points="1522.0782,-117.8062 1525.0204,-107.628 1516.3732,-113.7499 1522.0782,-117.8062"/>
<text text-anchor="middle" x="1532.7809" y="-129.8" font-family="Times,serif" font-size="14.00" fill="#000000">relation</text>
</g>
<!-- variant to disease association subject -->
<g id="node16" class="node">
<title>variant to disease association subject</title>
<ellipse fill="none" stroke="#0000ff" cx="1147.4015" cy="-263" rx="27" ry="18"/>
</g>
<!-- variant to disease association relation -->
<g id="node18" class="node">
<title>variant to disease association relation</title>
<ellipse fill="none" stroke="#0000ff" cx="1219.4015" cy="-263" rx="27" ry="18"/>
</g>
<!-- object&#45;&gt;relation -->
<g id="edge18" class="edge">
<title>object&#45;&gt;relation</title>
<path fill="none" stroke="#000000" stroke-dasharray="1,5" d="M1523.7866,-74.4352C1516.0931,-65.0747 1506.3256,-53.191 1497.7401,-42.7453"/>
<polygon fill="#000000" stroke="#000000" points="1500.2238,-40.255 1491.1703,-34.752 1494.816,-44.6998 1500.2238,-40.255"/>
</g>
<!-- variant to disease association object -->
<g id="node20" class="node">
<title>variant to disease association object</title>
<ellipse fill="none" stroke="#0000ff" cx="1291.4015" cy="-263" rx="27" ry="18"/>
</g>
</g>
</svg>
