<?xml version="1.0" encoding="UTF-8" standalone="no"?>
<!DOCTYPE svg PUBLIC "-//W3C//DTD SVG 1.1//EN"
 "http://www.w3.org/Graphics/SVG/1.1/DTD/svg11.dtd">
<!-- Generated by graphviz version 2.43.0 (0)
 -->
<!-- Title: %3 Pages: 1 -->
<svg width="4281pt" height="291pt"
 viewBox="0.00 0.00 4281.38 291.00" xmlns="http://www.w3.org/2000/svg" xmlns:xlink="http://www.w3.org/1999/xlink">
<g id="graph0" class="graph" transform="scale(1 1) rotate(0) translate(4 287)">
<title>%3</title>
<polygon fill="white" stroke="transparent" points="-4,4 -4,-287 4277.38,-287 4277.38,4 -4,4"/>
<!-- variant as a model of disease association -->
<g id="node1" class="node">
<title>variant as a model of disease association</title>
<ellipse fill="none" stroke="black" cx="2215.19" cy="-265" rx="200.36" ry="18"/>
<text text-anchor="middle" x="2215.19" y="-261.3" font-family="Times,serif" font-size="14.00">variant as a model of disease association</text>
</g>
<!-- variant to disease association -->
<g id="node2" class="node">
<title>variant to disease association</title>
<ellipse fill="none" stroke="black" cx="148.19" cy="-178" rx="148.37" ry="18"/>
<text text-anchor="middle" x="148.19" y="-174.3" font-family="Times,serif" font-size="14.00">variant to disease association</text>
</g>
<!-- variant as a model of disease association&#45;&gt;variant to disease association -->
<g id="edge1" class="edge">
<title>variant as a model of disease association&#45;&gt;variant to disease association</title>
<path fill="none" stroke="black" d="M2017.86,-261.87C1742.57,-258.28 1227.67,-249.32 789.19,-229 573.81,-219.02 519.96,-214.94 305.19,-196 291.45,-194.79 277.05,-193.4 262.78,-191.94"/>
<polygon fill="black" stroke="black" points="262.73,-188.42 252.43,-190.87 262.01,-195.38 262.73,-188.42"/>
<text text-anchor="middle" x="803.19" y="-217.8" font-family="Times,serif" font-size="14.00">is_a</text>
</g>
<!-- model to disease association mixin -->
<g id="node3" class="node">
<title>model to disease association mixin</title>
<ellipse fill="none" stroke="black" cx="486.19" cy="-178" rx="172.47" ry="18"/>
<text text-anchor="middle" x="486.19" y="-174.3" font-family="Times,serif" font-size="14.00">model to disease association mixin</text>
</g>
<!-- variant as a model of disease association&#45;&gt;model to disease association mixin -->
<g id="edge2" class="edge">
<title>variant as a model of disease association&#45;&gt;model to disease association mixin</title>
<path fill="none" stroke="black" d="M2017,-262.31C1777.54,-259.33 1362.52,-251.17 1007.19,-229 869.8,-220.43 712.57,-204.49 607.1,-192.91"/>
<polygon fill="black" stroke="black" points="607.37,-189.42 597.05,-191.8 606.61,-196.38 607.37,-189.42"/>
<text text-anchor="middle" x="1023.69" y="-217.8" font-family="Times,serif" font-size="14.00">uses</text>
</g>
<!-- entity to disease association mixin -->
<g id="node4" class="node">
<title>entity to disease association mixin</title>
<ellipse fill="none" stroke="black" cx="847.19" cy="-178" rx="170.87" ry="18"/>
<text text-anchor="middle" x="847.19" y="-174.3" font-family="Times,serif" font-size="14.00">entity to disease association mixin</text>
</g>
<!-- variant as a model of disease association&#45;&gt;entity to disease association mixin -->
<g id="edge3" class="edge">
<title>variant as a model of disease association&#45;&gt;entity to disease association mixin</title>
<path fill="none" stroke="black" d="M2021.08,-260.59C1761.9,-255.51 1316.58,-244.84 1154.19,-229 1079.09,-221.68 994.52,-207.45 933.18,-196.04"/>
<polygon fill="black" stroke="black" points="933.63,-192.57 923.16,-194.17 932.34,-199.45 933.63,-192.57"/>
<text text-anchor="middle" x="1170.69" y="-217.8" font-family="Times,serif" font-size="14.00">uses</text>
</g>
<!-- id -->
<g id="node5" class="node">
<title>id</title>
<ellipse fill="none" stroke="blue" cx="1074.19" cy="-178" rx="38.19" ry="18"/>
<text text-anchor="middle" x="1074.19" y="-174.3" font-family="Times,serif" font-size="14.00">string</text>
</g>
<!-- variant as a model of disease association&#45;&gt;id -->
<g id="edge4" class="edge">
<title>variant as a model of disease association&#45;&gt;id</title>
<path fill="none" stroke="blue" d="M2020.67,-260.73C1788.7,-256.13 1414.9,-246.31 1276.19,-229 1206.73,-220.33 1189.54,-215.06 1122.19,-196 1119.08,-195.12 1115.89,-194.15 1112.69,-193.12"/>
<polygon fill="blue" stroke="blue" points="1113.78,-189.8 1103.18,-189.95 1111.56,-196.44 1113.78,-189.8"/>
<text text-anchor="middle" x="1283.19" y="-217.8" font-family="Times,serif" font-size="14.00">id</text>
</g>
<!-- iri -->
<g id="node6" class="node">
<title>iri</title>
<ellipse fill="none" stroke="blue" cx="1175.19" cy="-178" rx="44.39" ry="18"/>
<text text-anchor="middle" x="1175.19" y="-174.3" font-family="Times,serif" font-size="14.00">iri type</text>
</g>
<!-- variant as a model of disease association&#45;&gt;iri -->
<g id="edge5" class="edge">
<title>variant as a model of disease association&#45;&gt;iri</title>
<path fill="none" stroke="blue" d="M2021.74,-260.22C1811.83,-255.38 1490.44,-245.55 1369.19,-229 1316.36,-221.79 1257.23,-205.29 1218.29,-193.2"/>
<polygon fill="blue" stroke="blue" points="1218.95,-189.74 1208.36,-190.08 1216.85,-196.42 1218.95,-189.74"/>
<text text-anchor="middle" x="1377.19" y="-217.8" font-family="Times,serif" font-size="14.00">iri</text>
</g>
<!-- name -->
<g id="node7" class="node">
<title>name</title>
<ellipse fill="none" stroke="blue" cx="1294.19" cy="-178" rx="56.59" ry="18"/>
<text text-anchor="middle" x="1294.19" y="-174.3" font-family="Times,serif" font-size="14.00">label type</text>
</g>
<!-- variant as a model of disease association&#45;&gt;name -->
<g id="edge6" class="edge">
<title>variant as a model of disease association&#45;&gt;name</title>
<path fill="none" stroke="blue" d="M2019.02,-261.3C1827.33,-257.55 1549.36,-248.82 1443.19,-229 1406.08,-222.07 1365.56,-208.03 1336.15,-196.58"/>
<polygon fill="blue" stroke="blue" points="1337.21,-193.24 1326.63,-192.82 1334.64,-199.75 1337.21,-193.24"/>
<text text-anchor="middle" x="1463.19" y="-217.8" font-family="Times,serif" font-size="14.00">name</text>
</g>
<!-- description -->
<g id="node8" class="node">
<title>description</title>
<ellipse fill="none" stroke="blue" cx="1444.19" cy="-178" rx="75.29" ry="18"/>
<text text-anchor="middle" x="1444.19" y="-174.3" font-family="Times,serif" font-size="14.00">narrative text</text>
</g>
<!-- variant as a model of disease association&#45;&gt;description -->
<g id="edge7" class="edge">
<title>variant as a model of disease association&#45;&gt;description</title>
<path fill="none" stroke="blue" d="M2022.69,-260.02C1831.45,-255.17 1560.06,-245.5 1513.19,-229 1497.09,-223.33 1481.48,-212.62 1469.2,-202.56"/>
<polygon fill="blue" stroke="blue" points="1471.14,-199.61 1461.26,-195.77 1466.58,-204.93 1471.14,-199.61"/>
<text text-anchor="middle" x="1553.69" y="-217.8" font-family="Times,serif" font-size="14.00">description</text>
</g>
<!-- source -->
<g id="node9" class="node">
<title>source</title>
<ellipse fill="none" stroke="blue" cx="1576.19" cy="-178" rx="38.19" ry="18"/>
<text text-anchor="middle" x="1576.19" y="-174.3" font-family="Times,serif" font-size="14.00">string</text>
</g>
<!-- variant as a model of disease association&#45;&gt;source -->
<g id="edge8" class="edge">
<title>variant as a model of disease association&#45;&gt;source</title>
<path fill="none" stroke="blue" d="M2020.7,-260.61C1859.3,-256.48 1650.64,-247.61 1615.19,-229 1604.84,-223.57 1596.38,-214.06 1590.01,-204.77"/>
<polygon fill="blue" stroke="blue" points="1592.83,-202.69 1584.55,-196.08 1586.9,-206.41 1592.83,-202.69"/>
<text text-anchor="middle" x="1639.19" y="-217.8" font-family="Times,serif" font-size="14.00">source</text>
</g>
<!-- has attribute -->
<g id="node10" class="node">
<title>has attribute</title>
<ellipse fill="none" stroke="blue" cx="1684.19" cy="-178" rx="51.99" ry="18"/>
<text text-anchor="middle" x="1684.19" y="-174.3" font-family="Times,serif" font-size="14.00">attribute</text>
</g>
<!-- variant as a model of disease association&#45;&gt;has attribute -->
<g id="edge9" class="edge">
<title>variant as a model of disease association&#45;&gt;has attribute</title>
<path fill="none" stroke="blue" d="M2015.13,-264.15C1869.92,-262.11 1694.92,-254.31 1671.19,-229 1665.12,-222.54 1665.68,-213.61 1668.65,-205.09"/>
<polygon fill="blue" stroke="blue" points="1671.92,-206.35 1672.8,-195.79 1665.52,-203.5 1671.92,-206.35"/>
<text text-anchor="middle" x="1718.19" y="-217.8" font-family="Times,serif" font-size="14.00">has attribute</text>
</g>
<!-- relation -->
<g id="node11" class="node">
<title>relation</title>
<ellipse fill="none" stroke="blue" cx="3803.19" cy="-18" rx="38.19" ry="18"/>
<text text-anchor="middle" x="3803.19" y="-14.3" font-family="Times,serif" font-size="14.00">string</text>
</g>
<!-- variant as a model of disease association&#45;&gt;relation -->
<g id="edge10" class="edge">
<title>variant as a model of disease association&#45;&gt;relation</title>
<path fill="none" stroke="blue" d="M2027.83,-258.62C1925.98,-251.24 1814.52,-234.31 1783.19,-196 1773.06,-183.61 1772.27,-171.7 1783.19,-160 1852.68,-85.48 3453.51,-30.28 3754.6,-20.54"/>
<polygon fill="blue" stroke="blue" points="3754.88,-24.03 3764.76,-20.21 3754.65,-17.03 3754.88,-24.03"/>
<text text-anchor="middle" x="1941.19" y="-130.8" font-family="Times,serif" font-size="14.00">relation</text>
</g>
<!-- negated -->
<g id="node12" class="node">
<title>negated</title>
<ellipse fill="none" stroke="blue" cx="1839.19" cy="-178" rx="46.59" ry="18"/>
<text text-anchor="middle" x="1839.19" y="-174.3" font-family="Times,serif" font-size="14.00">boolean</text>
</g>
<!-- variant as a model of disease association&#45;&gt;negated -->
<g id="edge11" class="edge">
<title>variant as a model of disease association&#45;&gt;negated</title>
<path fill="none" stroke="blue" d="M2111.14,-249.59C2076.6,-244.07 2038.07,-237.12 2003.19,-229 1953.89,-217.52 1942.59,-210.81 1894.19,-196 1890.89,-194.99 1887.47,-193.94 1884.04,-192.89"/>
<polygon fill="blue" stroke="blue" points="1884.97,-189.51 1874.39,-189.91 1882.91,-196.2 1884.97,-189.51"/>
<text text-anchor="middle" x="2032.19" y="-217.8" font-family="Times,serif" font-size="14.00">negated</text>
</g>
<!-- qualifiers -->
<g id="node13" class="node">
<title>qualifiers</title>
<ellipse fill="none" stroke="blue" cx="1980.19" cy="-178" rx="76.89" ry="18"/>
<text text-anchor="middle" x="1980.19" y="-174.3" font-family="Times,serif" font-size="14.00">ontology class</text>
</g>
<!-- variant as a model of disease association&#45;&gt;qualifiers -->
<g id="edge12" class="edge">
<title>variant as a model of disease association&#45;&gt;qualifiers</title>
<path fill="none" stroke="blue" d="M2158.3,-247.68C2139.95,-242.11 2119.6,-235.61 2101.19,-229 2075.26,-219.69 2046.77,-207.99 2023.94,-198.25"/>
<polygon fill="blue" stroke="blue" points="2025.1,-194.94 2014.53,-194.2 2022.34,-201.37 2025.1,-194.94"/>
<text text-anchor="middle" x="2134.69" y="-217.8" font-family="Times,serif" font-size="14.00">qualifiers</text>
</g>
<!-- publications -->
<g id="node14" class="node">
<title>publications</title>
<ellipse fill="none" stroke="blue" cx="2137.19" cy="-178" rx="62.29" ry="18"/>
<text text-anchor="middle" x="2137.19" y="-174.3" font-family="Times,serif" font-size="14.00">publication</text>
</g>
<!-- variant as a model of disease association&#45;&gt;publications -->
<g id="edge13" class="edge">
<title>variant as a model of disease association&#45;&gt;publications</title>
<path fill="none" stroke="blue" d="M2199.4,-246.8C2187.94,-234.31 2172.27,-217.24 2159.53,-203.35"/>
<polygon fill="blue" stroke="blue" points="2161.76,-200.6 2152.42,-195.6 2156.6,-205.33 2161.76,-200.6"/>
<text text-anchor="middle" x="2225.19" y="-217.8" font-family="Times,serif" font-size="14.00">publications</text>
</g>
<!-- has evidence -->
<g id="node15" class="node">
<title>has evidence</title>
<ellipse fill="none" stroke="blue" cx="2293.19" cy="-178" rx="75.29" ry="18"/>
<text text-anchor="middle" x="2293.19" y="-174.3" font-family="Times,serif" font-size="14.00">evidence type</text>
</g>
<!-- variant as a model of disease association&#45;&gt;has evidence -->
<g id="edge14" class="edge">
<title>variant as a model of disease association&#45;&gt;has evidence</title>
<path fill="none" stroke="blue" d="M2249.4,-247.14C2257.27,-242.1 2265.11,-236.02 2271.19,-229 2277.01,-222.27 2281.52,-213.76 2284.9,-205.67"/>
<polygon fill="blue" stroke="blue" points="2288.23,-206.76 2288.47,-196.17 2281.68,-204.3 2288.23,-206.76"/>
<text text-anchor="middle" x="2327.69" y="-217.8" font-family="Times,serif" font-size="14.00">has evidence</text>
</g>
<!-- knowledge source -->
<g id="node16" class="node">
<title>knowledge source</title>
<ellipse fill="none" stroke="blue" cx="2495.19" cy="-178" rx="108.58" ry="18"/>
<text text-anchor="middle" x="2495.19" y="-174.3" font-family="Times,serif" font-size="14.00">information resource</text>
</g>
<!-- variant as a model of disease association&#45;&gt;knowledge source -->
<g id="edge15" class="edge">
<title>variant as a model of disease association&#45;&gt;knowledge source</title>
<path fill="none" stroke="blue" d="M2301.44,-248.71C2326.46,-243.41 2353.64,-236.8 2378.19,-229 2403.49,-220.96 2430.83,-209.44 2452.71,-199.49"/>
<polygon fill="blue" stroke="blue" points="2454.43,-202.56 2462.05,-195.19 2451.5,-196.2 2454.43,-202.56"/>
<text text-anchor="middle" x="2482.69" y="-217.8" font-family="Times,serif" font-size="14.00">knowledge source</text>
</g>
<!-- original knowledge source -->
<g id="node17" class="node">
<title>original knowledge source</title>
<ellipse fill="none" stroke="blue" cx="2730.19" cy="-178" rx="108.58" ry="18"/>
<text text-anchor="middle" x="2730.19" y="-174.3" font-family="Times,serif" font-size="14.00">information resource</text>
</g>
<!-- variant as a model of disease association&#45;&gt;original knowledge source -->
<g id="edge16" class="edge">
<title>variant as a model of disease association&#45;&gt;original knowledge source</title>
<path fill="none" stroke="blue" d="M2353.34,-251.97C2428.67,-244.94 2513.95,-236.09 2551.19,-229 2592.91,-221.06 2639.05,-208.07 2674.03,-197.31"/>
<polygon fill="blue" stroke="blue" points="2675.08,-200.66 2683.59,-194.35 2673,-193.97 2675.08,-200.66"/>
<text text-anchor="middle" x="2710.19" y="-217.8" font-family="Times,serif" font-size="14.00">original knowledge source</text>
</g>
<!-- primary knowledge source -->
<g id="node18" class="node">
<title>primary knowledge source</title>
<ellipse fill="none" stroke="blue" cx="2965.19" cy="-178" rx="108.58" ry="18"/>
<text text-anchor="middle" x="2965.19" y="-174.3" font-family="Times,serif" font-size="14.00">information resource</text>
</g>
<!-- variant as a model of disease association&#45;&gt;primary knowledge source -->
<g id="edge17" class="edge">
<title>variant as a model of disease association&#45;&gt;primary knowledge source</title>
<path fill="none" stroke="blue" d="M2354.64,-252.05C2378.18,-250.22 2402.37,-248.46 2425.19,-247 2595.25,-236.12 2640.46,-259.11 2808.19,-229 2845.15,-222.36 2885.5,-209.38 2916.03,-198.31"/>
<polygon fill="blue" stroke="blue" points="2917.41,-201.53 2925.58,-194.79 2914.99,-194.96 2917.41,-201.53"/>
<text text-anchor="middle" x="2961.19" y="-217.8" font-family="Times,serif" font-size="14.00">primary knowledge source</text>
</g>
<!-- aggregator knowledge source -->
<g id="node19" class="node">
<title>aggregator knowledge source</title>
<ellipse fill="none" stroke="blue" cx="3200.19" cy="-178" rx="108.58" ry="18"/>
<text text-anchor="middle" x="3200.19" y="-174.3" font-family="Times,serif" font-size="14.00">information resource</text>
</g>
<!-- variant as a model of disease association&#45;&gt;aggregator knowledge source -->
<g id="edge18" class="edge">
<title>variant as a model of disease association&#45;&gt;aggregator knowledge source</title>
<path fill="none" stroke="blue" d="M2352.37,-251.85C2376.61,-250 2401.63,-248.29 2425.19,-247 2566.14,-239.3 2921.45,-255.06 3060.19,-229 3092.94,-222.85 3128.28,-210.18 3155.25,-199.13"/>
<polygon fill="blue" stroke="blue" points="3156.91,-202.23 3164.79,-195.15 3154.22,-195.77 3156.91,-202.23"/>
<text text-anchor="middle" x="3222.69" y="-217.8" font-family="Times,serif" font-size="14.00">aggregator knowledge source</text>
</g>
<!-- type -->
<g id="node20" class="node">
<title>type</title>
<ellipse fill="none" stroke="black" cx="3358.19" cy="-178" rx="31.4" ry="18"/>
<text text-anchor="middle" x="3358.19" y="-174.3" font-family="Times,serif" font-size="14.00">type</text>
</g>
<!-- variant as a model of disease association&#45;&gt;type -->
<g id="edge19" class="edge">
<title>variant as a model of disease association&#45;&gt;type</title>
<path fill="none" stroke="blue" d="M2351.23,-251.77C2375.83,-249.91 2401.26,-248.2 2425.19,-247 2450.38,-245.73 3311.86,-242.47 3333.19,-229 3341.62,-223.67 3347.31,-214.56 3351.11,-205.56"/>
<polygon fill="blue" stroke="blue" points="3354.44,-206.62 3354.51,-196.02 3347.85,-204.26 3354.44,-206.62"/>
<text text-anchor="middle" x="3363.19" y="-217.8" font-family="Times,serif" font-size="14.00">type</text>
</g>
<!-- category -->
<g id="node22" class="node">
<title>category</title>
<ellipse fill="none" stroke="black" cx="3459.19" cy="-178" rx="51.19" ry="18"/>
<text text-anchor="middle" x="3459.19" y="-174.3" font-family="Times,serif" font-size="14.00">category</text>
</g>
<!-- variant as a model of disease association&#45;&gt;category -->
<g id="edge20" class="edge">
<title>variant as a model of disease association&#45;&gt;category</title>
<path fill="none" stroke="blue" d="M2350.95,-251.77C2375.63,-249.9 2401.17,-248.2 2425.19,-247 2478.35,-244.35 3332.34,-244.75 3383.19,-229 3401.43,-223.35 3419.39,-211.88 3433.27,-201.36"/>
<polygon fill="blue" stroke="blue" points="3435.67,-203.92 3441.35,-194.98 3431.33,-198.43 3435.67,-203.92"/>
<text text-anchor="middle" x="3446.69" y="-217.8" font-family="Times,serif" font-size="14.00">category</text>
</g>
<!-- predicate -->
<g id="node24" class="node">
<title>predicate</title>
<ellipse fill="none" stroke="black" cx="3583.19" cy="-178" rx="54.69" ry="18"/>
<text text-anchor="middle" x="3583.19" y="-174.3" font-family="Times,serif" font-size="14.00">predicate</text>
</g>
<!-- variant as a model of disease association&#45;&gt;predicate -->
<g id="edge21" class="edge">
<title>variant as a model of disease association&#45;&gt;predicate</title>
<path fill="none" stroke="blue" d="M2350.94,-251.74C2375.63,-249.87 2401.17,-248.18 2425.19,-247 2542.51,-241.26 3368.05,-256.73 3482.19,-229 3506.64,-223.06 3532.02,-210.46 3551.22,-199.4"/>
<polygon fill="blue" stroke="blue" points="3553.03,-202.4 3559.85,-194.3 3549.46,-196.38 3553.03,-202.4"/>
<text text-anchor="middle" x="3557.19" y="-217.8" font-family="Times,serif" font-size="14.00">predicate</text>
</g>
<!-- object -->
<g id="node26" class="node">
<title>object</title>
<ellipse fill="none" stroke="black" cx="3803.19" cy="-91" rx="38.99" ry="18"/>
<text text-anchor="middle" x="3803.19" y="-87.3" font-family="Times,serif" font-size="14.00">object</text>
</g>
<!-- variant as a model of disease association&#45;&gt;object -->
<g id="edge22" class="edge">
<title>variant as a model of disease association&#45;&gt;object</title>
<path fill="none" stroke="blue" d="M2350.66,-251.72C2375.44,-249.85 2401.07,-248.16 2425.19,-247 2490.12,-243.88 3532.9,-247.62 3595.19,-229 3621.41,-221.16 3625.82,-213.11 3647.19,-196 3664.85,-181.85 3665.18,-173.7 3683.19,-160 3709.72,-139.81 3742.88,-121.47 3767.61,-108.94"/>
<polygon fill="blue" stroke="blue" points="3769.27,-112.03 3776.65,-104.43 3766.14,-105.76 3769.27,-112.03"/>
<text text-anchor="middle" x="3705.19" y="-174.3" font-family="Times,serif" font-size="14.00">object</text>
</g>
<!-- frequency qualifier -->
<g id="node28" class="node">
<title>frequency qualifier</title>
<ellipse fill="none" stroke="blue" cx="3821.19" cy="-178" rx="85.29" ry="18"/>
<text text-anchor="middle" x="3821.19" y="-174.3" font-family="Times,serif" font-size="14.00">frequency value</text>
</g>
<!-- variant as a model of disease association&#45;&gt;frequency qualifier -->
<g id="edge23" class="edge">
<title>variant as a model of disease association&#45;&gt;frequency qualifier</title>
<path fill="none" stroke="blue" d="M2350.38,-251.72C2375.24,-249.84 2400.98,-248.15 2425.19,-247 2565.38,-240.33 3550.28,-255.08 3688.19,-229 3719.89,-223 3753.91,-210.08 3779.61,-198.88"/>
<polygon fill="blue" stroke="blue" points="3781.32,-201.95 3789.03,-194.69 3778.47,-195.56 3781.32,-201.95"/>
<text text-anchor="middle" x="3809.19" y="-217.8" font-family="Times,serif" font-size="14.00">frequency qualifier</text>
</g>
<!-- severity qualifier -->
<g id="node29" class="node">
<title>severity qualifier</title>
<ellipse fill="none" stroke="blue" cx="4000.19" cy="-178" rx="76.09" ry="18"/>
<text text-anchor="middle" x="4000.19" y="-174.3" font-family="Times,serif" font-size="14.00">severity value</text>
</g>
<!-- variant as a model of disease association&#45;&gt;severity qualifier -->
<g id="edge24" class="edge">
<title>variant as a model of disease association&#45;&gt;severity qualifier</title>
<path fill="none" stroke="blue" d="M2350.38,-251.69C2375.24,-249.81 2400.98,-248.13 2425.19,-247 2505.99,-243.23 3801.99,-245.47 3881.19,-229 3909.53,-223.1 3939.58,-210.42 3962.39,-199.31"/>
<polygon fill="blue" stroke="blue" points="3963.99,-202.42 3971.38,-194.83 3960.87,-196.16 3963.99,-202.42"/>
<text text-anchor="middle" x="3990.19" y="-217.8" font-family="Times,serif" font-size="14.00">severity qualifier</text>
</g>
<!-- onset qualifier -->
<g id="node30" class="node">
<title>onset qualifier</title>
<ellipse fill="none" stroke="blue" cx="4130.19" cy="-178" rx="36.29" ry="18"/>
<text text-anchor="middle" x="4130.19" y="-174.3" font-family="Times,serif" font-size="14.00">onset</text>
</g>
<!-- variant as a model of disease association&#45;&gt;onset qualifier -->
<g id="edge25" class="edge">
<title>variant as a model of disease association&#45;&gt;onset qualifier</title>
<path fill="none" stroke="blue" d="M2350.09,-251.68C2375.04,-249.8 2400.89,-248.12 2425.19,-247 2515.65,-242.84 3968.66,-255.72 4055.19,-229 4073.64,-223.3 4091.72,-211.48 4105.51,-200.76"/>
<polygon fill="blue" stroke="blue" points="4107.93,-203.31 4113.51,-194.3 4103.53,-197.86 4107.93,-203.31"/>
<text text-anchor="middle" x="4137.69" y="-217.8" font-family="Times,serif" font-size="14.00">onset qualifier</text>
</g>
<!-- subject -->
<g id="node31" class="node">
<title>subject</title>
<ellipse fill="none" stroke="black" cx="4229.19" cy="-178" rx="44.39" ry="18"/>
<text text-anchor="middle" x="4229.19" y="-174.3" font-family="Times,serif" font-size="14.00">subject</text>
</g>
<!-- variant as a model of disease association&#45;&gt;subject -->
<g id="edge26" class="edge">
<title>variant as a model of disease association&#45;&gt;subject</title>
<path fill="none" stroke="blue" d="M2350.09,-251.66C2375.04,-249.78 2400.89,-248.11 2425.19,-247 2474.25,-244.77 4149.59,-251.61 4193.19,-229 4203.26,-223.77 4211.17,-214.29 4216.97,-204.98"/>
<polygon fill="blue" stroke="blue" points="4220.04,-206.68 4221.9,-196.25 4213.94,-203.24 4220.04,-206.68"/>
<text text-anchor="middle" x="4235.19" y="-217.8" font-family="Times,serif" font-size="14.00">subject</text>
</g>
<!-- association_type -->
<g id="node21" class="node">
<title>association_type</title>
<ellipse fill="none" stroke="blue" cx="2472.19" cy="-265" rx="38.19" ry="18"/>
<text text-anchor="middle" x="2472.19" y="-261.3" font-family="Times,serif" font-size="14.00">string</text>
</g>
<!-- association_category -->
<g id="node23" class="node">
<title>association_category</title>
<ellipse fill="none" stroke="blue" cx="2603.19" cy="-265" rx="74.99" ry="18"/>
<text text-anchor="middle" x="2603.19" y="-261.3" font-family="Times,serif" font-size="14.00">category type</text>
</g>
<!-- variant to disease association_predicate -->
<g id="node25" class="node">
<title>variant to disease association_predicate</title>
<ellipse fill="none" stroke="blue" cx="2774.19" cy="-265" rx="77.99" ry="18"/>
<text text-anchor="middle" x="2774.19" y="-261.3" font-family="Times,serif" font-size="14.00">predicate type</text>
</g>
<!-- object&#45;&gt;relation -->
<g id="edge29" class="edge">
<title>object&#45;&gt;relation</title>
<path fill="none" stroke="black" stroke-dasharray="1,5" d="M3803.19,-72.81C3803.19,-64.79 3803.19,-55.05 3803.19,-46.07"/>
<polygon fill="black" stroke="black" points="3806.69,-46.03 3803.19,-36.03 3799.69,-46.03 3806.69,-46.03"/>
</g>
<!-- variant to disease association_object -->
<g id="node27" class="node">
<title>variant to disease association_object</title>
<ellipse fill="none" stroke="blue" cx="2940.19" cy="-265" rx="69.59" ry="18"/>
<text text-anchor="middle" x="2940.19" y="-261.3" font-family="Times,serif" font-size="14.00">named thing</text>
</g>
<!-- subject&#45;&gt;relation -->
<g id="edge28" class="edge">
<title>subject&#45;&gt;relation</title>
<path fill="none" stroke="black" stroke-dasharray="1,5" d="M4199,-164.84C4173.33,-154.56 4135.44,-139.55 4102.19,-127 4009.63,-92.07 3900.11,-53.11 3842.75,-32.89"/>
<polygon fill="black" stroke="black" points="3843.59,-29.47 3833,-29.45 3841.27,-36.08 3843.59,-29.47"/>
</g>
<!-- subject&#45;&gt;object -->
<g id="edge27" class="edge">
<title>subject&#45;&gt;object</title>
<path fill="none" stroke="black" d="M4196.59,-165.78C4189.58,-163.64 4182.19,-161.58 4175.19,-160 4118.72,-147.26 4103.23,-151.84 4046.19,-142 3976.44,-129.97 3896.12,-112.79 3847.53,-102.02"/>
<polygon fill="black" stroke="black" points="3848.18,-98.58 3837.66,-99.82 3846.66,-105.41 3848.18,-98.58"/>
<text text-anchor="middle" x="4074.19" y="-130.8" font-family="Times,serif" font-size="14.00">relation</text>
</g>
<!-- variant as a model of disease association_subject -->
<g id="node32" class="node">
<title>variant as a model of disease association_subject</title>
<ellipse fill="none" stroke="blue" cx="3118.19" cy="-265" rx="90.18" ry="18"/>
<text text-anchor="middle" x="3118.19" y="-261.3" font-family="Times,serif" font-size="14.00">sequence variant</text>
</g>
</g>
</svg>
