<?xml version="1.0" encoding="UTF-8" standalone="no"?>
<!DOCTYPE svg PUBLIC "-//W3C//DTD SVG 1.1//EN"
 "http://www.w3.org/Graphics/SVG/1.1/DTD/svg11.dtd">
<!-- Generated by graphviz version 2.40.1 (20161225.0304)
 -->
<!-- Title: %3 Pages: 1 -->
<svg width="2026pt" height="291pt"
 viewBox="0.00 0.00 2026.49 291.00" xmlns="http://www.w3.org/2000/svg" xmlns:xlink="http://www.w3.org/1999/xlink">
<g id="graph0" class="graph" transform="scale(1 1) rotate(0) translate(4 287)">
<title>%3</title>
<polygon fill="#ffffff" stroke="transparent" points="-4,4 -4,-287 2022.4867,-287 2022.4867,4 -4,4"/>
<!-- variant as a model of disease association -->
<g id="node1" class="node">
<title>variant as a model of disease association</title>
<ellipse fill="none" stroke="#000000" cx="1252.7399" cy="-265" rx="155.1726" ry="18"/>
<text text-anchor="middle" x="1252.7399" y="-261.3" font-family="Times,serif" font-size="14.00" fill="#000000">variant as a model of disease association</text>
</g>
<!-- variant to disease association -->
<g id="node2" class="node">
<title>variant to disease association</title>
<ellipse fill="none" stroke="#000000" cx="113.7399" cy="-178" rx="113.9803" ry="18"/>
<text text-anchor="middle" x="113.7399" y="-174.3" font-family="Times,serif" font-size="14.00" fill="#000000">variant to disease association</text>
</g>
<!-- variant as a model of disease association&#45;&gt;variant to disease association -->
<g id="edge1" class="edge">
<title>variant as a model of disease association&#45;&gt;variant to disease association</title>
<path fill="none" stroke="#000000" d="M1102.7396,-260.1839C956.78,-254.8667 728.8077,-244.8901 531.7399,-229 399.7975,-218.3611 367.0148,-212.9965 235.7399,-196 226.026,-194.7423 215.8876,-193.3593 205.7868,-191.9359"/>
<polygon fill="#000000" stroke="#000000" points="206.1091,-188.4465 195.7156,-190.5021 205.1225,-195.3767 206.1091,-188.4465"/>
<text text-anchor="middle" x="542.7399" y="-217.8" font-family="Times,serif" font-size="14.00" fill="#000000">is_a</text>
</g>
<!-- model to disease mixin -->
<g id="node3" class="node">
<title>model to disease mixin</title>
<ellipse fill="none" stroke="#000000" cx="338.7399" cy="-178" rx="93.6835" ry="18"/>
<text text-anchor="middle" x="338.7399" y="-174.3" font-family="Times,serif" font-size="14.00" fill="#000000">model to disease mixin</text>
</g>
<!-- variant as a model of disease association&#45;&gt;model to disease mixin -->
<g id="edge2" class="edge">
<title>variant as a model of disease association&#45;&gt;model to disease mixin</title>
<path fill="none" stroke="#000000" d="M1106.734,-258.8075C991.0064,-253.1767 825.2867,-243.5076 680.7399,-229 574.0459,-218.2916 547.6826,-212.5657 441.7399,-196 433.7707,-194.7539 425.465,-193.3981 417.1795,-192.0082"/>
<polygon fill="#000000" stroke="#000000" points="417.5515,-188.5214 407.1072,-190.301 416.3817,-195.423 417.5515,-188.5214"/>
<text text-anchor="middle" x="692.7399" y="-217.8" font-family="Times,serif" font-size="14.00" fill="#000000">uses</text>
</g>
<!-- entity to disease association -->
<g id="node4" class="node">
<title>entity to disease association</title>
<ellipse fill="none" stroke="#000000" cx="559.7399" cy="-178" rx="109.381" ry="18"/>
<text text-anchor="middle" x="559.7399" y="-174.3" font-family="Times,serif" font-size="14.00" fill="#000000">entity to disease association</text>
</g>
<!-- variant as a model of disease association&#45;&gt;entity to disease association -->
<g id="edge3" class="edge">
<title>variant as a model of disease association&#45;&gt;entity to disease association</title>
<path fill="none" stroke="#000000" d="M1104.9206,-259.3789C1011.7942,-254.4371 889.2664,-245.3663 781.7399,-229 728.8558,-220.9506 669.8762,-207.1684 626.0082,-195.9592"/>
<polygon fill="#000000" stroke="#000000" points="626.8805,-192.5697 616.3234,-193.4637 625.1337,-199.3483 626.8805,-192.5697"/>
<text text-anchor="middle" x="793.7399" y="-217.8" font-family="Times,serif" font-size="14.00" fill="#000000">uses</text>
</g>
<!-- id -->
<g id="node5" class="node">
<title>id</title>
<ellipse fill="none" stroke="#000000" cx="713.7399" cy="-178" rx="27" ry="18"/>
<text text-anchor="middle" x="713.7399" y="-174.3" font-family="Times,serif" font-size="14.00" fill="#000000">id</text>
</g>
<!-- variant as a model of disease association&#45;&gt;id -->
<g id="edge4" class="edge">
<title>variant as a model of disease association&#45;&gt;id</title>
<path fill="none" stroke="#0000ff" d="M1120.7955,-255.4567C1053.4898,-249.6278 970.4764,-240.9605 896.7399,-229 830.6444,-218.279 812.816,-218.4713 749.7399,-196 747.8639,-195.3317 745.9594,-194.589 744.0561,-193.797"/>
<polygon fill="#0000ff" stroke="#0000ff" points="745.2376,-190.4895 734.6855,-189.5393 742.3419,-196.8625 745.2376,-190.4895"/>
<text text-anchor="middle" x="902.2399" y="-217.8" font-family="Times,serif" font-size="14.00" fill="#000000">id</text>
</g>
<!-- association type -->
<g id="node7" class="node">
<title>association type</title>
<ellipse fill="none" stroke="#0000ff" cx="820.7399" cy="-178" rx="61.99" ry="18"/>
<text text-anchor="middle" x="820.7399" y="-174.3" font-family="Times,serif" font-size="14.00" fill="#000000">ontology class</text>
</g>
<!-- variant as a model of disease association&#45;&gt;association type -->
<g id="edge5" class="edge">
<title>variant as a model of disease association&#45;&gt;association type</title>
<path fill="none" stroke="#0000ff" d="M1120.0193,-255.6423C1068.5398,-250.2522 1009.4135,-241.8845 956.7399,-229 924.7803,-221.1824 890.0703,-208.0855 863.7155,-197.1215"/>
<polygon fill="#0000ff" stroke="#0000ff" points="864.9785,-193.8556 854.4045,-193.1924 862.257,-200.3049 864.9785,-193.8556"/>
<text text-anchor="middle" x="1000.7399" y="-217.8" font-family="Times,serif" font-size="14.00" fill="#000000">association type</text>
</g>
<!-- predicate -->
<g id="node8" class="node">
<title>predicate</title>
<ellipse fill="none" stroke="#0000ff" cx="960.7399" cy="-178" rx="60.3893" ry="18"/>
<text text-anchor="middle" x="960.7399" y="-174.3" font-family="Times,serif" font-size="14.00" fill="#000000">predicate type</text>
</g>
<!-- variant as a model of disease association&#45;&gt;predicate -->
<g id="edge6" class="edge">
<title>variant as a model of disease association&#45;&gt;predicate</title>
<path fill="none" stroke="#0000ff" d="M1172.273,-249.5097C1146.3473,-243.8546 1117.6321,-236.8854 1091.7399,-229 1062.0321,-219.9526 1029.4923,-207.2993 1004.2753,-196.86"/>
<polygon fill="#0000ff" stroke="#0000ff" points="1005.5666,-193.6063 994.9903,-192.9795 1002.8673,-200.065 1005.5666,-193.6063"/>
<text text-anchor="middle" x="1116.7399" y="-217.8" font-family="Times,serif" font-size="14.00" fill="#000000">predicate</text>
</g>
<!-- negated -->
<g id="node9" class="node">
<title>negated</title>
<ellipse fill="none" stroke="#0000ff" cx="1077.7399" cy="-178" rx="38.1938" ry="18"/>
<text text-anchor="middle" x="1077.7399" y="-174.3" font-family="Times,serif" font-size="14.00" fill="#000000">boolean</text>
</g>
<!-- variant as a model of disease association&#45;&gt;negated -->
<g id="edge7" class="edge">
<title>variant as a model of disease association&#45;&gt;negated</title>
<path fill="none" stroke="#0000ff" d="M1213.6712,-247.4472C1201.1694,-241.7028 1187.3131,-235.2017 1174.7399,-229 1153.7201,-218.632 1130.469,-206.4329 1112.0013,-196.5658"/>
<polygon fill="#0000ff" stroke="#0000ff" points="1113.5513,-193.4255 1103.0843,-191.7843 1110.2433,-199.5946 1113.5513,-193.4255"/>
<text text-anchor="middle" x="1196.2399" y="-217.8" font-family="Times,serif" font-size="14.00" fill="#000000">negated</text>
</g>
<!-- qualifiers -->
<g id="node10" class="node">
<title>qualifiers</title>
<ellipse fill="none" stroke="#0000ff" cx="1195.7399" cy="-178" rx="61.99" ry="18"/>
<text text-anchor="middle" x="1195.7399" y="-174.3" font-family="Times,serif" font-size="14.00" fill="#000000">ontology class</text>
</g>
<!-- variant as a model of disease association&#45;&gt;qualifiers -->
<g id="edge8" class="edge">
<title>variant as a model of disease association&#45;&gt;qualifiers</title>
<path fill="none" stroke="#0000ff" d="M1240.9295,-246.9735C1232.8512,-234.6435 1222.0107,-218.0975 1212.9723,-204.3021"/>
<polygon fill="#0000ff" stroke="#0000ff" points="1215.7481,-202.1522 1207.3402,-195.7057 1209.8929,-205.9884 1215.7481,-202.1522"/>
<text text-anchor="middle" x="1253.7399" y="-217.8" font-family="Times,serif" font-size="14.00" fill="#000000">qualifiers</text>
</g>
<!-- publications -->
<g id="node11" class="node">
<title>publications</title>
<ellipse fill="none" stroke="#0000ff" cx="1325.7399" cy="-178" rx="50.0912" ry="18"/>
<text text-anchor="middle" x="1325.7399" y="-174.3" font-family="Times,serif" font-size="14.00" fill="#000000">publication</text>
</g>
<!-- variant as a model of disease association&#45;&gt;publications -->
<g id="edge9" class="edge">
<title>variant as a model of disease association&#45;&gt;publications</title>
<path fill="none" stroke="#0000ff" d="M1268.5886,-246.7525C1273.4736,-241.0859 1278.852,-234.8041 1283.7399,-229 1290.7221,-220.7091 1298.2726,-211.5897 1305.0204,-203.3832"/>
<polygon fill="#0000ff" stroke="#0000ff" points="1307.8135,-205.4968 1311.4498,-195.5456 1302.4015,-201.0572 1307.8135,-205.4968"/>
<text text-anchor="middle" x="1329.2399" y="-217.8" font-family="Times,serif" font-size="14.00" fill="#000000">publications</text>
</g>
<!-- provided by -->
<g id="node12" class="node">
<title>provided by</title>
<ellipse fill="none" stroke="#0000ff" cx="1423.7399" cy="-178" rx="29.795" ry="18"/>
<text text-anchor="middle" x="1423.7399" y="-174.3" font-family="Times,serif" font-size="14.00" fill="#000000">agent</text>
</g>
<!-- variant as a model of disease association&#45;&gt;provided by -->
<g id="edge10" class="edge">
<title>variant as a model of disease association&#45;&gt;provided by</title>
<path fill="none" stroke="#0000ff" d="M1320.7394,-248.7117C1336.39,-243.5698 1352.5837,-237.0657 1366.7399,-229 1379.6113,-221.6663 1392.0893,-211.039 1402.0724,-201.3814"/>
<polygon fill="#0000ff" stroke="#0000ff" points="1404.5976,-203.8059 1409.1853,-194.2558 1399.6434,-198.8605 1404.5976,-203.8059"/>
<text text-anchor="middle" x="1420.7399" y="-217.8" font-family="Times,serif" font-size="14.00" fill="#000000">provided by</text>
</g>
<!-- relation -->
<g id="node13" class="node">
<title>relation</title>
<ellipse fill="none" stroke="#000000" cx="1644.7399" cy="-18" rx="37.8943" ry="18"/>
<text text-anchor="middle" x="1644.7399" y="-14.3" font-family="Times,serif" font-size="14.00" fill="#000000">relation</text>
</g>
<!-- variant as a model of disease association&#45;&gt;relation -->
<g id="edge11" class="edge">
<title>variant as a model of disease association&#45;&gt;relation</title>
<path fill="none" stroke="#0000ff" d="M1370.6862,-253.2357C1407.7872,-247.6408 1442.9462,-239.7606 1457.7399,-229 1499.2214,-198.8272 1479.2646,-166.7047 1511.7399,-127 1541.202,-90.9793 1584.0948,-58.4127 1613.1398,-38.4483"/>
<polygon fill="#0000ff" stroke="#0000ff" points="1615.3604,-41.1716 1621.679,-32.6671 1611.4361,-35.375 1615.3604,-41.1716"/>
<text text-anchor="middle" x="1532.7399" y="-130.8" font-family="Times,serif" font-size="14.00" fill="#000000">relation</text>
</g>
<!-- object -->
<g id="node15" class="node">
<title>object</title>
<ellipse fill="none" stroke="#000000" cx="1644.7399" cy="-91" rx="32.4942" ry="18"/>
<text text-anchor="middle" x="1644.7399" y="-87.3" font-family="Times,serif" font-size="14.00" fill="#000000">object</text>
</g>
<!-- variant as a model of disease association&#45;&gt;object -->
<g id="edge12" class="edge">
<title>variant as a model of disease association&#45;&gt;object</title>
<path fill="none" stroke="#0000ff" d="M1366.0791,-252.6604C1423.8935,-245.5675 1484.4285,-236.5878 1495.7399,-229 1525.3641,-209.1279 1511.9276,-185.629 1536.7399,-160 1558.0955,-137.9415 1587.8073,-119.6156 1610.6623,-107.4073"/>
<polygon fill="#0000ff" stroke="#0000ff" points="1612.4234,-110.4365 1619.6788,-102.7158 1609.1923,-104.2268 1612.4234,-110.4365"/>
<text text-anchor="middle" x="1553.7399" y="-174.3" font-family="Times,serif" font-size="14.00" fill="#000000">object</text>
</g>
<!-- frequency qualifier -->
<g id="node17" class="node">
<title>frequency qualifier</title>
<ellipse fill="none" stroke="#0000ff" cx="1647.7399" cy="-178" rx="67.6881" ry="18"/>
<text text-anchor="middle" x="1647.7399" y="-174.3" font-family="Times,serif" font-size="14.00" fill="#000000">frequency value</text>
</g>
<!-- variant as a model of disease association&#45;&gt;frequency qualifier -->
<g id="edge13" class="edge">
<title>variant as a model of disease association&#45;&gt;frequency qualifier</title>
<path fill="none" stroke="#0000ff" d="M1366.1289,-252.6454C1439.6196,-244.3307 1524.7329,-234.0045 1541.7399,-229 1565.7562,-221.9329 1591.0777,-209.9398 1610.9475,-199.3587"/>
<polygon fill="#0000ff" stroke="#0000ff" points="1612.8376,-202.315 1619.9508,-194.463 1609.4936,-196.1653 1612.8376,-202.315"/>
<text text-anchor="middle" x="1633.7399" y="-217.8" font-family="Times,serif" font-size="14.00" fill="#000000">frequency qualifier</text>
</g>
<!-- severity qualifier -->
<g id="node18" class="node">
<title>severity qualifier</title>
<ellipse fill="none" stroke="#0000ff" cx="1792.7399" cy="-178" rx="59.5901" ry="18"/>
<text text-anchor="middle" x="1792.7399" y="-174.3" font-family="Times,serif" font-size="14.00" fill="#000000">severity value</text>
</g>
<!-- variant as a model of disease association&#45;&gt;severity qualifier -->
<g id="edge14" class="edge">
<title>variant as a model of disease association&#45;&gt;severity qualifier</title>
<path fill="none" stroke="#0000ff" d="M1362.9461,-252.2391C1380.9123,-250.3502 1399.3345,-248.5282 1416.7399,-247 1537.8707,-236.3643 1572.3179,-260.5888 1689.7399,-229 1713.6935,-222.556 1738.6713,-210.3444 1758.0303,-199.4862"/>
<polygon fill="#0000ff" stroke="#0000ff" points="1759.8533,-202.4754 1766.7788,-194.4574 1756.3648,-196.4065 1759.8533,-202.4754"/>
<text text-anchor="middle" x="1775.2399" y="-217.8" font-family="Times,serif" font-size="14.00" fill="#000000">severity qualifier</text>
</g>
<!-- onset qualifier -->
<g id="node19" class="node">
<title>onset qualifier</title>
<ellipse fill="none" stroke="#0000ff" cx="1899.7399" cy="-178" rx="29.4969" ry="18"/>
<text text-anchor="middle" x="1899.7399" y="-174.3" font-family="Times,serif" font-size="14.00" fill="#000000">onset</text>
</g>
<!-- variant as a model of disease association&#45;&gt;onset qualifier -->
<g id="edge15" class="edge">
<title>variant as a model of disease association&#45;&gt;onset qualifier</title>
<path fill="none" stroke="#0000ff" d="M1361.1528,-252.09C1379.6788,-250.1736 1398.7477,-248.3818 1416.7399,-247 1507.4497,-240.0335 1739.4881,-257.9383 1825.7399,-229 1844.1149,-222.835 1862.0808,-210.6451 1875.7083,-199.7287"/>
<polygon fill="#0000ff" stroke="#0000ff" points="1878.1511,-202.2492 1883.5976,-193.1615 1873.6727,-196.8692 1878.1511,-202.2492"/>
<text text-anchor="middle" x="1893.2399" y="-217.8" font-family="Times,serif" font-size="14.00" fill="#000000">onset qualifier</text>
</g>
<!-- subject -->
<g id="node20" class="node">
<title>subject</title>
<ellipse fill="none" stroke="#000000" cx="1982.7399" cy="-178" rx="35.9954" ry="18"/>
<text text-anchor="middle" x="1982.7399" y="-174.3" font-family="Times,serif" font-size="14.00" fill="#000000">subject</text>
</g>
<!-- variant as a model of disease association&#45;&gt;subject -->
<g id="edge16" class="edge">
<title>variant as a model of disease association&#45;&gt;subject</title>
<path fill="none" stroke="#0000ff" d="M1360.7011,-251.9913C1379.3665,-250.0742 1398.5985,-248.3077 1416.7399,-247 1474.4027,-242.8434 1884.3299,-253.4021 1936.7399,-229 1948.5281,-223.5114 1958.6206,-213.444 1966.3229,-203.6949"/>
<polygon fill="#0000ff" stroke="#0000ff" points="1969.3648,-205.4655 1972.4588,-195.3325 1963.721,-201.3244 1969.3648,-205.4655"/>
<text text-anchor="middle" x="1975.2399" y="-217.8" font-family="Times,serif" font-size="14.00" fill="#000000">subject</text>
</g>
<!-- association_id -->
<g id="node6" class="node">
<title>association_id</title>
<ellipse fill="none" stroke="#0000ff" cx="1456.7399" cy="-265" rx="30.5947" ry="18"/>
<text text-anchor="middle" x="1456.7399" y="-261.3" font-family="Times,serif" font-size="14.00" fill="#000000">string</text>
</g>
<!-- variant to disease association_relation -->
<g id="node14" class="node">
<title>variant to disease association_relation</title>
<ellipse fill="none" stroke="#0000ff" cx="1550.7399" cy="-265" rx="45.4919" ry="18"/>
<text text-anchor="middle" x="1550.7399" y="-261.3" font-family="Times,serif" font-size="14.00" fill="#000000">uriorcurie</text>
</g>
<!-- object&#45;&gt;relation -->
<g id="edge19" class="edge">
<title>object&#45;&gt;relation</title>
<path fill="none" stroke="#000000" stroke-dasharray="1,5" d="M1644.7399,-72.9551C1644.7399,-64.8828 1644.7399,-55.1764 1644.7399,-46.1817"/>
<polygon fill="#000000" stroke="#000000" points="1648.24,-46.0903 1644.7399,-36.0904 1641.24,-46.0904 1648.24,-46.0903"/>
</g>
<!-- variant to disease association_object -->
<g id="node16" class="node">
<title>variant to disease association_object</title>
<ellipse fill="none" stroke="#0000ff" cx="1669.7399" cy="-265" rx="55.4913" ry="18"/>
<text text-anchor="middle" x="1669.7399" y="-261.3" font-family="Times,serif" font-size="14.00" fill="#000000">named thing</text>
</g>
<!-- subject&#45;&gt;relation -->
<g id="edge18" class="edge">
<title>subject&#45;&gt;relation</title>
<path fill="none" stroke="#000000" stroke-dasharray="1,5" d="M1957.4307,-165.2442C1936.6345,-154.8171 1906.3699,-139.7662 1879.7399,-127 1810.0751,-93.6032 1728.0902,-55.947 1681.6872,-34.7852"/>
<polygon fill="#000000" stroke="#000000" points="1682.8937,-31.4888 1672.3426,-30.5274 1679.9912,-37.8587 1682.8937,-31.4888"/>
</g>
<!-- subject&#45;&gt;object -->
<g id="edge17" class="edge">
<title>subject&#45;&gt;object</title>
<path fill="none" stroke="#000000" d="M1955.4417,-166.059C1949.6708,-163.8247 1943.5635,-161.6702 1937.7399,-160 1894.3312,-147.5505 1881.8277,-151.7764 1837.7399,-142 1783.8515,-130.0503 1722.3132,-113.2294 1683.5016,-102.2237"/>
<polygon fill="#000000" stroke="#000000" points="1684.2392,-98.7946 1673.6629,-99.4202 1682.3209,-105.5267 1684.2392,-98.7946"/>
<text text-anchor="middle" x="1858.7399" y="-130.8" font-family="Times,serif" font-size="14.00" fill="#000000">relation</text>
</g>
<!-- variant as a model of disease association_subject -->
<g id="node21" class="node">
<title>variant as a model of disease association_subject</title>
<ellipse fill="none" stroke="#0000ff" cx="1812.7399" cy="-265" rx="69.5877" ry="18"/>
<text text-anchor="middle" x="1812.7399" y="-261.3" font-family="Times,serif" font-size="14.00" fill="#000000">sequence variant</text>
</g>
</g>
</svg>
