<?xml version="1.0" encoding="UTF-8" standalone="no"?>
<!DOCTYPE svg PUBLIC "-//W3C//DTD SVG 1.1//EN"
 "http://www.w3.org/Graphics/SVG/1.1/DTD/svg11.dtd">
<!-- Generated by graphviz version 2.40.1 (20161225.0304)
 -->
<!-- Title: %3 Pages: 1 -->
<svg width="1246pt" height="131pt"
 viewBox="0.00 0.00 1246.49 131.00" xmlns="http://www.w3.org/2000/svg" xmlns:xlink="http://www.w3.org/1999/xlink">
<g id="graph0" class="graph" transform="scale(1 1) rotate(0) translate(4 127)">
<title>%3</title>
<polygon fill="#ffffff" stroke="transparent" points="-4,4 -4,-127 1242.4913,-127 1242.4913,4 -4,4"/>
<!-- vitamin -->
<g id="node1" class="node">
<title>vitamin</title>
<ellipse fill="none" stroke="#000000" cx="612.1448" cy="-105" rx="38.1938" ry="18"/>
<text text-anchor="middle" x="612.1448" y="-101.3" font-family="Times,serif" font-size="14.00" fill="#000000">vitamin</text>
</g>
<!-- micronutrient -->
<g id="node2" class="node">
<title>micronutrient</title>
<ellipse fill="none" stroke="#000000" cx="59.1448" cy="-18" rx="59.2899" ry="18"/>
<text text-anchor="middle" x="59.1448" y="-14.3" font-family="Times,serif" font-size="14.00" fill="#000000">micronutrient</text>
</g>
<!-- vitamin&#45;&gt;micronutrient -->
<g id="edge1" class="edge">
<title>vitamin&#45;&gt;micronutrient</title>
<path fill="none" stroke="#000000" d="M573.9139,-103.3584C507.0003,-100.0152 364.5078,-90.8013 246.1448,-69 199.2084,-60.3548 146.8832,-45.6354 109.5462,-34.2256"/>
<polygon fill="#000000" stroke="#000000" points="110.4977,-30.8564 99.9102,-31.2528 108.434,-37.5453 110.4977,-30.8564"/>
<text text-anchor="middle" x="257.1448" y="-57.8" font-family="Times,serif" font-size="14.00" fill="#000000">is_a</text>
</g>
<!-- id -->
<g id="node3" class="node">
<title>id</title>
<ellipse fill="none" stroke="#0000ff" cx="167.1448" cy="-18" rx="30.5947" ry="18"/>
<text text-anchor="middle" x="167.1448" y="-14.3" font-family="Times,serif" font-size="14.00" fill="#000000">string</text>
</g>
<!-- vitamin&#45;&gt;id -->
<g id="edge2" class="edge">
<title>vitamin&#45;&gt;id</title>
<path fill="none" stroke="#0000ff" d="M574.0534,-102.4803C501.1225,-96.7972 337.4356,-79.876 207.1448,-36 204.8917,-35.2413 202.5933,-34.3999 200.2942,-33.5074"/>
<polygon fill="#0000ff" stroke="#0000ff" points="201.5301,-30.2309 190.9523,-29.6304 198.8469,-36.6963 201.5301,-30.2309"/>
<text text-anchor="middle" x="332.6448" y="-57.8" font-family="Times,serif" font-size="14.00" fill="#000000">id</text>
</g>
<!-- iri -->
<g id="node4" class="node">
<title>iri</title>
<ellipse fill="none" stroke="#0000ff" cx="252.1448" cy="-18" rx="36.2938" ry="18"/>
<text text-anchor="middle" x="252.1448" y="-14.3" font-family="Times,serif" font-size="14.00" fill="#000000">iri type</text>
</g>
<!-- vitamin&#45;&gt;iri -->
<g id="edge3" class="edge">
<title>vitamin&#45;&gt;iri</title>
<path fill="none" stroke="#0000ff" d="M575.0734,-99.5404C515.4668,-90.1742 395.0816,-68.8229 297.1448,-36 294.6142,-35.1519 292.0199,-34.2376 289.4165,-33.2866"/>
<polygon fill="#0000ff" stroke="#0000ff" points="290.638,-30.0067 280.0466,-29.7344 288.1565,-36.5521 290.638,-30.0067"/>
<text text-anchor="middle" x="414.6448" y="-57.8" font-family="Times,serif" font-size="14.00" fill="#000000">iri</text>
</g>
<!-- type -->
<g id="node5" class="node">
<title>type</title>
<ellipse fill="none" stroke="#0000ff" cx="337.1448" cy="-18" rx="30.5947" ry="18"/>
<text text-anchor="middle" x="337.1448" y="-14.3" font-family="Times,serif" font-size="14.00" fill="#000000">string</text>
</g>
<!-- vitamin&#45;&gt;type -->
<g id="edge4" class="edge">
<title>vitamin&#45;&gt;type</title>
<path fill="none" stroke="#0000ff" d="M577.7471,-96.669C531.4732,-85.0634 446.9238,-62.451 377.1448,-36 374.9217,-35.1573 372.6461,-34.2525 370.3636,-33.3132"/>
<polygon fill="#0000ff" stroke="#0000ff" points="371.6306,-30.0484 361.0603,-29.3287 368.8747,-36.4831 371.6306,-30.0484"/>
<text text-anchor="middle" x="485.1448" y="-57.8" font-family="Times,serif" font-size="14.00" fill="#000000">type</text>
</g>
<!-- name -->
<g id="node6" class="node">
<title>name</title>
<ellipse fill="none" stroke="#0000ff" cx="431.1448" cy="-18" rx="45.4919" ry="18"/>
<text text-anchor="middle" x="431.1448" y="-14.3" font-family="Times,serif" font-size="14.00" fill="#000000">label type</text>
</g>
<!-- vitamin&#45;&gt;name -->
<g id="edge5" class="edge">
<title>vitamin&#45;&gt;name</title>
<path fill="none" stroke="#0000ff" d="M585.0472,-91.9752C554.3983,-77.2434 504.2526,-53.1402 469.5714,-36.4703"/>
<polygon fill="#0000ff" stroke="#0000ff" points="470.7579,-33.1573 460.2287,-31.9796 467.7253,-39.4663 470.7579,-33.1573"/>
<text text-anchor="middle" x="548.6448" y="-57.8" font-family="Times,serif" font-size="14.00" fill="#000000">name</text>
</g>
<!-- description -->
<g id="node7" class="node">
<title>description</title>
<ellipse fill="none" stroke="#0000ff" cx="552.1448" cy="-18" rx="57.6901" ry="18"/>
<text text-anchor="middle" x="552.1448" y="-14.3" font-family="Times,serif" font-size="14.00" fill="#000000">narrative text</text>
</g>
<!-- vitamin&#45;&gt;description -->
<g id="edge6" class="edge">
<title>vitamin&#45;&gt;description</title>
<path fill="none" stroke="#0000ff" d="M600.2907,-87.8116C591.6929,-75.3448 579.91,-58.2596 570.1529,-44.1119"/>
<polygon fill="#0000ff" stroke="#0000ff" points="572.9447,-41.9951 564.3861,-35.75 567.1822,-45.9692 572.9447,-41.9951"/>
<text text-anchor="middle" x="616.6448" y="-57.8" font-family="Times,serif" font-size="14.00" fill="#000000">description</text>
</g>
<!-- source -->
<g id="node8" class="node">
<title>source</title>
<ellipse fill="none" stroke="#0000ff" cx="673.1448" cy="-18" rx="45.4919" ry="18"/>
<text text-anchor="middle" x="673.1448" y="-14.3" font-family="Times,serif" font-size="14.00" fill="#000000">label type</text>
</g>
<!-- vitamin&#45;&gt;source -->
<g id="edge7" class="edge">
<title>vitamin&#45;&gt;source</title>
<path fill="none" stroke="#0000ff" d="M632.0076,-89.5644C638.7024,-83.6571 645.8185,-76.5191 651.1448,-69 656.217,-61.8395 660.4631,-53.3254 663.8294,-45.3248"/>
<polygon fill="#0000ff" stroke="#0000ff" points="667.1146,-46.534 667.4957,-35.9461 660.595,-43.9854 667.1146,-46.534"/>
<text text-anchor="middle" x="678.1448" y="-57.8" font-family="Times,serif" font-size="14.00" fill="#000000">source</text>
</g>
<!-- provided by -->
<g id="node9" class="node">
<title>provided by</title>
<ellipse fill="none" stroke="#0000ff" cx="766.1448" cy="-18" rx="29.795" ry="18"/>
<text text-anchor="middle" x="766.1448" y="-14.3" font-family="Times,serif" font-size="14.00" fill="#000000">agent</text>
</g>
<!-- vitamin&#45;&gt;provided by -->
<g id="edge8" class="edge">
<title>vitamin&#45;&gt;provided by</title>
<path fill="none" stroke="#0000ff" d="M642.4696,-93.596C663.6605,-85.4381 689.9207,-74.8961 700.1448,-69 714.7196,-60.5949 729.6597,-49.3139 741.6314,-39.4988"/>
<polygon fill="#0000ff" stroke="#0000ff" points="743.9834,-42.0944 749.4042,-32.9914 739.4898,-36.7271 743.9834,-42.0944"/>
<text text-anchor="middle" x="755.1448" y="-57.8" font-family="Times,serif" font-size="14.00" fill="#000000">provided by</text>
</g>
<!-- has attribute -->
<g id="node10" class="node">
<title>has attribute</title>
<ellipse fill="none" stroke="#0000ff" cx="854.1448" cy="-18" rx="40.0939" ry="18"/>
<text text-anchor="middle" x="854.1448" y="-14.3" font-family="Times,serif" font-size="14.00" fill="#000000">attribute</text>
</g>
<!-- vitamin&#45;&gt;has attribute -->
<g id="edge9" class="edge">
<title>vitamin&#45;&gt;has attribute</title>
<path fill="none" stroke="#0000ff" d="M641.0042,-92.9928C647.2352,-90.736 653.8452,-88.5894 660.1448,-87 717.5552,-72.5149 737.8884,-92.707 792.1448,-69 806.5328,-62.7132 820.2642,-52.0832 831.1306,-42.1499"/>
<polygon fill="#0000ff" stroke="#0000ff" points="833.6871,-44.5482 838.5051,-35.1122 828.8543,-39.4842 833.6871,-44.5482"/>
<text text-anchor="middle" x="850.6448" y="-57.8" font-family="Times,serif" font-size="14.00" fill="#000000">has attribute</text>
</g>
<!-- category -->
<g id="node11" class="node">
<title>category</title>
<ellipse fill="none" stroke="#000000" cx="953.1448" cy="-18" rx="40.8928" ry="18"/>
<text text-anchor="middle" x="953.1448" y="-14.3" font-family="Times,serif" font-size="14.00" fill="#000000">category</text>
</g>
<!-- vitamin&#45;&gt;category -->
<g id="edge10" class="edge">
<title>vitamin&#45;&gt;category</title>
<path fill="none" stroke="#0000ff" d="M640.6829,-92.81C646.9928,-90.5365 653.7157,-88.4294 660.1448,-87 759.3704,-64.9386 793.45,-105.9507 888.1448,-69 903.6702,-62.9418 918.4921,-51.8774 930.051,-41.599"/>
<polygon fill="#0000ff" stroke="#0000ff" points="932.5554,-44.0497 937.5006,-34.6798 927.7916,-38.9207 932.5554,-44.0497"/>
<text text-anchor="middle" x="937.6448" y="-57.8" font-family="Times,serif" font-size="14.00" fill="#000000">category</text>
</g>
<!-- in taxon -->
<g id="node13" class="node">
<title>in taxon</title>
<ellipse fill="none" stroke="#0000ff" cx="1078.1448" cy="-18" rx="65.7887" ry="18"/>
<text text-anchor="middle" x="1078.1448" y="-14.3" font-family="Times,serif" font-size="14.00" fill="#000000">organism taxon</text>
</g>
<!-- vitamin&#45;&gt;in taxon -->
<g id="edge11" class="edge">
<title>vitamin&#45;&gt;in taxon</title>
<path fill="none" stroke="#0000ff" d="M640.4063,-92.8052C646.7911,-90.502 653.6148,-88.384 660.1448,-87 792.9852,-58.8444 833.2924,-101.4695 965.1448,-69 991.3602,-62.5443 1019.0152,-50.1704 1040.405,-39.228"/>
<polygon fill="#0000ff" stroke="#0000ff" points="1042.2265,-42.2252 1049.4644,-34.4881 1038.9813,-36.0229 1042.2265,-42.2252"/>
<text text-anchor="middle" x="1029.6448" y="-57.8" font-family="Times,serif" font-size="14.00" fill="#000000">in taxon</text>
</g>
<!-- is metabolite -->
<g id="node14" class="node">
<title>is metabolite</title>
<ellipse fill="none" stroke="#0000ff" cx="1200.1448" cy="-18" rx="38.1938" ry="18"/>
<text text-anchor="middle" x="1200.1448" y="-14.3" font-family="Times,serif" font-size="14.00" fill="#000000">boolean</text>
</g>
<!-- vitamin&#45;&gt;is metabolite -->
<g id="edge12" class="edge">
<title>vitamin&#45;&gt;is metabolite</title>
<path fill="none" stroke="#0000ff" d="M640.3925,-92.7389C646.7781,-90.4396 653.6056,-88.3398 660.1448,-87 832.7408,-51.6361 883.0238,-101.6977 1056.1448,-69 1093.8414,-61.8802 1134.9121,-46.5238 1163.5088,-34.5119"/>
<polygon fill="#0000ff" stroke="#0000ff" points="1164.8846,-37.7302 1172.7058,-30.5832 1162.1347,-31.293 1164.8846,-37.7302"/>
<text text-anchor="middle" x="1144.6448" y="-57.8" font-family="Times,serif" font-size="14.00" fill="#000000">is metabolite</text>
</g>
<!-- named thing_category -->
<g id="node12" class="node">
<title>named thing_category</title>
<ellipse fill="none" stroke="#0000ff" cx="724.1448" cy="-105" rx="55.4913" ry="18"/>
<text text-anchor="middle" x="724.1448" y="-101.3" font-family="Times,serif" font-size="14.00" fill="#000000">named thing</text>
</g>
</g>
</svg>
