<?xml version="1.0" encoding="UTF-8" standalone="no"?>
<!DOCTYPE svg PUBLIC "-//W3C//DTD SVG 1.1//EN"
 "http://www.w3.org/Graphics/SVG/1.1/DTD/svg11.dtd">
<!-- Generated by graphviz version 2.40.1 (20161225.0304)
 -->
<!-- Title: %3 Pages: 1 -->
<svg width="1519pt" height="131pt"
 viewBox="0.00 0.00 1519.19 131.00" xmlns="http://www.w3.org/2000/svg" xmlns:xlink="http://www.w3.org/1999/xlink">
<g id="graph0" class="graph" transform="scale(1 1) rotate(0) translate(4 127)">
<title>%3</title>
<polygon fill="#ffffff" stroke="transparent" points="-4,4 -4,-127 1515.1892,-127 1515.1892,4 -4,4"/>
<!-- vitamin -->
<g id="node1" class="node">
<title>vitamin</title>
<ellipse fill="none" stroke="#000000" cx="747.3933" cy="-105" rx="46.2923" ry="18"/>
<text text-anchor="middle" x="747.3933" y="-101.3" font-family="Times,serif" font-size="14.00" fill="#000000">vitamin</text>
</g>
<!-- micronutrient -->
<g id="node2" class="node">
<title>micronutrient</title>
<ellipse fill="none" stroke="#000000" cx="75.3933" cy="-18" rx="75.2868" ry="18"/>
<text text-anchor="middle" x="75.3933" y="-14.3" font-family="Times,serif" font-size="14.00" fill="#000000">micronutrient</text>
</g>
<!-- vitamin&#45;&gt;micronutrient -->
<g id="edge1" class="edge">
<title>vitamin&#45;&gt;micronutrient</title>
<path fill="none" stroke="#000000" d="M701.3444,-103.4042C620.2944,-100.1221 447.0305,-90.9872 302.3933,-69 245.2859,-60.3187 181.1443,-45.4216 135.6482,-33.9623"/>
<polygon fill="#000000" stroke="#000000" points="136.4984,-30.5672 125.9446,-31.4992 134.7761,-37.352 136.4984,-30.5672"/>
<text text-anchor="middle" x="316.3933" y="-57.8" font-family="Times,serif" font-size="14.00" fill="#000000">is_a</text>
</g>
<!-- id -->
<g id="node3" class="node">
<title>id</title>
<ellipse fill="none" stroke="#0000ff" cx="207.3933" cy="-18" rx="38.1938" ry="18"/>
<text text-anchor="middle" x="207.3933" y="-14.3" font-family="Times,serif" font-size="14.00" fill="#000000">string</text>
</g>
<!-- vitamin&#45;&gt;id -->
<g id="edge2" class="edge">
<title>vitamin&#45;&gt;id</title>
<path fill="none" stroke="#0000ff" d="M701.374,-102.9275C613.2088,-98.0038 415.0628,-82.3177 255.3933,-36 252.4123,-35.1353 249.3527,-34.1721 246.2912,-33.1533"/>
<polygon fill="#0000ff" stroke="#0000ff" points="247.1953,-29.7616 236.6005,-29.7626 244.8835,-36.3689 247.1953,-29.7616"/>
<text text-anchor="middle" x="395.3933" y="-57.8" font-family="Times,serif" font-size="14.00" fill="#000000">id</text>
</g>
<!-- iri -->
<g id="node4" class="node">
<title>iri</title>
<ellipse fill="none" stroke="#0000ff" cx="308.3933" cy="-18" rx="44.393" ry="18"/>
<text text-anchor="middle" x="308.3933" y="-14.3" font-family="Times,serif" font-size="14.00" fill="#000000">iri type</text>
</g>
<!-- vitamin&#45;&gt;iri -->
<g id="edge3" class="edge">
<title>vitamin&#45;&gt;iri</title>
<path fill="none" stroke="#0000ff" d="M702.835,-99.7892C653.0332,-93.6737 570.0977,-82.6172 499.3933,-69 437.8931,-57.1555 422.6008,-53.2518 362.3933,-36 359.0135,-35.0315 355.53,-33.9846 352.0372,-32.8997"/>
<polygon fill="#0000ff" stroke="#0000ff" points="352.8372,-29.4812 342.2464,-29.7754 350.7091,-36.1499 352.8372,-29.4812"/>
<text text-anchor="middle" x="507.3933" y="-57.8" font-family="Times,serif" font-size="14.00" fill="#000000">iri</text>
</g>
<!-- type -->
<g id="node5" class="node">
<title>type</title>
<ellipse fill="none" stroke="#0000ff" cx="409.3933" cy="-18" rx="38.1938" ry="18"/>
<text text-anchor="middle" x="409.3933" y="-14.3" font-family="Times,serif" font-size="14.00" fill="#000000">string</text>
</g>
<!-- vitamin&#45;&gt;type -->
<g id="edge4" class="edge">
<title>vitamin&#45;&gt;type</title>
<path fill="none" stroke="#0000ff" d="M705.4196,-97.0915C648.3767,-85.8824 543.498,-63.6306 456.3933,-36 453.6605,-35.1331 450.856,-34.1927 448.0433,-33.2119"/>
<polygon fill="#0000ff" stroke="#0000ff" points="449.134,-29.8846 438.5398,-29.7697 446.7501,-36.4661 449.134,-29.8846"/>
<text text-anchor="middle" x="591.3933" y="-57.8" font-family="Times,serif" font-size="14.00" fill="#000000">type</text>
</g>
<!-- name -->
<g id="node6" class="node">
<title>name</title>
<ellipse fill="none" stroke="#0000ff" cx="522.3933" cy="-18" rx="56.59" ry="18"/>
<text text-anchor="middle" x="522.3933" y="-14.3" font-family="Times,serif" font-size="14.00" fill="#000000">label type</text>
</g>
<!-- vitamin&#45;&gt;name -->
<g id="edge5" class="edge">
<title>vitamin&#45;&gt;name</title>
<path fill="none" stroke="#0000ff" d="M714.1938,-92.1629C675.4404,-77.1782 611.1435,-52.3167 567.7931,-35.5546"/>
<polygon fill="#0000ff" stroke="#0000ff" points="568.9262,-32.2402 558.3368,-31.8982 566.4016,-38.7691 568.9262,-32.2402"/>
<text text-anchor="middle" x="668.3933" y="-57.8" font-family="Times,serif" font-size="14.00" fill="#000000">name</text>
</g>
<!-- description -->
<g id="node7" class="node">
<title>description</title>
<ellipse fill="none" stroke="#0000ff" cx="672.3933" cy="-18" rx="75.2868" ry="18"/>
<text text-anchor="middle" x="672.3933" y="-14.3" font-family="Times,serif" font-size="14.00" fill="#000000">narrative text</text>
</g>
<!-- vitamin&#45;&gt;description -->
<g id="edge6" class="edge">
<title>vitamin&#45;&gt;description</title>
<path fill="none" stroke="#0000ff" d="M732.5757,-87.8116C721.7271,-75.2272 706.8216,-57.9369 694.559,-43.7122"/>
<polygon fill="#0000ff" stroke="#0000ff" points="696.8754,-41.0388 687.695,-35.75 691.5735,-45.6094 696.8754,-41.0388"/>
<text text-anchor="middle" x="755.3933" y="-57.8" font-family="Times,serif" font-size="14.00" fill="#000000">description</text>
</g>
<!-- source -->
<g id="node8" class="node">
<title>source</title>
<ellipse fill="none" stroke="#0000ff" cx="822.3933" cy="-18" rx="56.59" ry="18"/>
<text text-anchor="middle" x="822.3933" y="-14.3" font-family="Times,serif" font-size="14.00" fill="#000000">label type</text>
</g>
<!-- vitamin&#45;&gt;source -->
<g id="edge7" class="edge">
<title>vitamin&#45;&gt;source</title>
<path fill="none" stroke="#0000ff" d="M775.1031,-90.3897C784.0541,-84.6474 793.4487,-77.4024 800.3933,-69 805.9836,-62.2362 810.3795,-53.8368 813.7236,-45.8192"/>
<polygon fill="#0000ff" stroke="#0000ff" points="817.0354,-46.9563 817.2908,-36.3646 810.486,-44.4853 817.0354,-46.9563"/>
<text text-anchor="middle" x="834.8933" y="-57.8" font-family="Times,serif" font-size="14.00" fill="#000000">source</text>
</g>
<!-- provided by -->
<g id="node9" class="node">
<title>provided by</title>
<ellipse fill="none" stroke="#0000ff" cx="934.3933" cy="-18" rx="37.0935" ry="18"/>
<text text-anchor="middle" x="934.3933" y="-14.3" font-family="Times,serif" font-size="14.00" fill="#000000">agent</text>
</g>
<!-- vitamin&#45;&gt;provided by -->
<g id="edge8" class="edge">
<title>vitamin&#45;&gt;provided by</title>
<path fill="none" stroke="#0000ff" d="M782.553,-93.3232C789.1352,-91.1856 795.9657,-88.9997 802.3933,-87 829.3841,-78.6031 838.0014,-81.4203 863.3933,-69 879.2739,-61.2321 895.4025,-49.9742 908.2655,-40.0106"/>
<polygon fill="#0000ff" stroke="#0000ff" points="910.5575,-42.6598 916.2113,-33.6996 906.2038,-37.1784 910.5575,-42.6598"/>
<text text-anchor="middle" x="930.8933" y="-57.8" font-family="Times,serif" font-size="14.00" fill="#000000">provided by</text>
</g>
<!-- has attribute -->
<g id="node10" class="node">
<title>has attribute</title>
<ellipse fill="none" stroke="#0000ff" cx="1041.3933" cy="-18" rx="51.9908" ry="18"/>
<text text-anchor="middle" x="1041.3933" y="-14.3" font-family="Times,serif" font-size="14.00" fill="#000000">attribute</text>
</g>
<!-- vitamin&#45;&gt;has attribute -->
<g id="edge9" class="edge">
<title>vitamin&#45;&gt;has attribute</title>
<path fill="none" stroke="#0000ff" d="M781.1165,-92.7087C788.078,-90.5276 795.4158,-88.4828 802.3933,-87 878.8736,-70.7475 905.0072,-98.5573 977.3933,-69 992.2112,-62.9494 1006.3815,-52.3477 1017.6045,-42.3721"/>
<polygon fill="#0000ff" stroke="#0000ff" points="1020.2797,-44.6641 1025.2229,-35.293 1015.5148,-39.5361 1020.2797,-44.6641"/>
<text text-anchor="middle" x="1050.3933" y="-57.8" font-family="Times,serif" font-size="14.00" fill="#000000">has attribute</text>
</g>
<!-- category -->
<g id="node11" class="node">
<title>category</title>
<ellipse fill="none" stroke="#000000" cx="1163.3933" cy="-18" rx="51.9908" ry="18"/>
<text text-anchor="middle" x="1163.3933" y="-14.3" font-family="Times,serif" font-size="14.00" fill="#000000">category</text>
</g>
<!-- vitamin&#45;&gt;category -->
<g id="edge10" class="edge">
<title>vitamin&#45;&gt;category</title>
<path fill="none" stroke="#0000ff" d="M780.7757,-92.5681C787.8277,-90.3694 795.2872,-88.3534 802.3933,-87 867.7826,-74.5459 1039.4359,-93.334 1101.3933,-69 1116.1125,-63.219 1129.9632,-52.5443 1140.8239,-42.4493"/>
<polygon fill="#0000ff" stroke="#0000ff" points="1143.4596,-44.7678 1148.1735,-35.2793 1138.5714,-39.7572 1143.4596,-44.7678"/>
<text text-anchor="middle" x="1158.3933" y="-57.8" font-family="Times,serif" font-size="14.00" fill="#000000">category</text>
</g>
<!-- in taxon -->
<g id="node13" class="node">
<title>in taxon</title>
<ellipse fill="none" stroke="#0000ff" cx="1316.3933" cy="-18" rx="83.3857" ry="18"/>
<text text-anchor="middle" x="1316.3933" y="-14.3" font-family="Times,serif" font-size="14.00" fill="#000000">organism taxon</text>
</g>
<!-- vitamin&#45;&gt;in taxon -->
<g id="edge11" class="edge">
<title>vitamin&#45;&gt;in taxon</title>
<path fill="none" stroke="#0000ff" d="M780.7611,-92.4897C787.8141,-90.2966 795.2778,-88.3028 802.3933,-87 973.9473,-55.5899 1024.2262,-107.2171 1194.3933,-69 1222.6434,-62.6554 1252.6697,-50.1836 1275.8652,-39.1618"/>
<polygon fill="#0000ff" stroke="#0000ff" points="1277.5728,-42.2236 1285.0411,-34.7086 1274.5164,-35.926 1277.5728,-42.2236"/>
<text text-anchor="middle" x="1268.3933" y="-57.8" font-family="Times,serif" font-size="14.00" fill="#000000">in taxon</text>
</g>
<!-- is metabolite -->
<g id="node14" class="node">
<title>is metabolite</title>
<ellipse fill="none" stroke="#0000ff" cx="1464.3933" cy="-18" rx="46.5926" ry="18"/>
<text text-anchor="middle" x="1464.3933" y="-14.3" font-family="Times,serif" font-size="14.00" fill="#000000">boolean</text>
</g>
<!-- vitamin&#45;&gt;is metabolite -->
<g id="edge12" class="edge">
<title>vitamin&#45;&gt;is metabolite</title>
<path fill="none" stroke="#0000ff" d="M780.7513,-92.4354C787.8051,-90.2463 795.2715,-88.2678 802.3933,-87 1020.8804,-48.1056 1082.5811,-106.0216 1301.3933,-69 1343.5205,-61.8724 1389.8651,-46.6108 1422.3328,-34.6301"/>
<polygon fill="#0000ff" stroke="#0000ff" points="1423.8068,-37.8156 1431.9435,-31.0299 1421.3511,-31.2604 1423.8068,-37.8156"/>
<text text-anchor="middle" x="1408.3933" y="-57.8" font-family="Times,serif" font-size="14.00" fill="#000000">is metabolite</text>
</g>
<!-- named thing_category -->
<g id="node12" class="node">
<title>named thing_category</title>
<ellipse fill="none" stroke="#0000ff" cx="881.3933" cy="-105" rx="69.5877" ry="18"/>
<text text-anchor="middle" x="881.3933" y="-101.3" font-family="Times,serif" font-size="14.00" fill="#000000">named thing</text>
</g>
</g>
</svg>
