<?xml version="1.0" encoding="UTF-8" standalone="no"?>
<!DOCTYPE svg PUBLIC "-//W3C//DTD SVG 1.1//EN"
 "http://www.w3.org/Graphics/SVG/1.1/DTD/svg11.dtd">
<!-- Generated by graphviz version 2.40.1 (20161225.0304)
 -->
<!-- Title: %3 Pages: 1 -->
<svg width="963pt" height="130pt"
 viewBox="0.00 0.00 963.40 130.00" xmlns="http://www.w3.org/2000/svg" xmlns:xlink="http://www.w3.org/1999/xlink">
<g id="graph0" class="graph" transform="scale(1 1) rotate(0) translate(4 126)">
<title>%3</title>
<polygon fill="#ffffff" stroke="transparent" points="-4,4 -4,-126 959.3977,-126 959.3977,4 -4,4"/>
<!-- zygosity -->
<g id="node1" class="node">
<title>zygosity</title>
<ellipse fill="none" stroke="#000000" cx="464.5735" cy="-104" rx="40.149" ry="18"/>
<text text-anchor="middle" x="464.5735" y="-99.8" font-family="Times,serif" font-size="14.00" fill="#000000">zygosity</text>
</g>
<!-- attribute -->
<g id="node2" class="node">
<title>attribute</title>
<ellipse fill="none" stroke="#000000" cx="39.5735" cy="-18" rx="39.6472" ry="18"/>
<text text-anchor="middle" x="39.5735" y="-13.8" font-family="Times,serif" font-size="14.00" fill="#000000">attribute</text>
</g>
<!-- zygosity&#45;&gt;attribute -->
<g id="edge1" class="edge">
<title>zygosity&#45;&gt;attribute</title>
<path fill="none" stroke="#000000" d="M424.0784,-102.9305C364.6018,-100.5407 250.548,-92.8301 157.0218,-68 128.5343,-60.4369 97.9463,-47.2367 75.1295,-36.2981"/>
<polygon fill="#000000" stroke="#000000" points="76.3774,-33.0125 65.8554,-31.7716 73.307,-39.3032 76.3774,-33.0125"/>
<text text-anchor="middle" x="168.8494" y="-56.8" font-family="Times,serif" font-size="14.00" fill="#000000">is_a</text>
</g>
<!-- id -->
<g id="node3" class="node">
<title>id</title>
<ellipse fill="none" stroke="#000000" cx="124.5735" cy="-18" rx="27" ry="18"/>
</g>
<!-- zygosity&#45;&gt;id -->
<g id="edge2" class="edge">
<title>zygosity&#45;&gt;id</title>
<path fill="none" stroke="#000000" d="M425.2975,-100.1439C364.8595,-93.9103 252.0228,-81.0003 213.6839,-68 191.8545,-60.5979 169.2278,-47.8286 152.237,-37.0476"/>
<polygon fill="#000000" stroke="#000000" points="153.709,-33.8298 143.4183,-31.3094 149.8912,-39.697 153.709,-33.8298"/>
<text text-anchor="middle" x="220.0183" y="-56.8" font-family="Times,serif" font-size="14.00" fill="#000000">id</text>
</g>
<!-- name -->
<g id="node4" class="node">
<title>name</title>
<ellipse fill="none" stroke="#000000" cx="196.5735" cy="-18" rx="27" ry="18"/>
</g>
<!-- zygosity&#45;&gt;name -->
<g id="edge3" class="edge">
<title>zygosity&#45;&gt;name</title>
<path fill="none" stroke="#000000" d="M425.2432,-100.3613C371.3232,-94.8873 277.6654,-83.5002 247.2561,-68 235.0395,-61.7729 223.8932,-51.5533 215.1838,-41.9708"/>
<polygon fill="#000000" stroke="#000000" points="217.6477,-39.4682 208.4711,-34.173 212.3427,-44.0351 217.6477,-39.4682"/>
<text text-anchor="middle" x="262.7322" y="-56.8" font-family="Times,serif" font-size="14.00" fill="#000000">name</text>
</g>
<!-- category -->
<g id="node5" class="node">
<title>category</title>
<ellipse fill="none" stroke="#000000" cx="268.5735" cy="-18" rx="27" ry="18"/>
</g>
<!-- zygosity&#45;&gt;category -->
<g id="edge4" class="edge">
<title>zygosity&#45;&gt;category</title>
<path fill="none" stroke="#000000" d="M425.4583,-99.8791C381.2126,-94.5301 312.6682,-83.9502 292.3802,-68 285.1007,-62.277 279.929,-53.7831 276.3094,-45.4133"/>
<polygon fill="#000000" stroke="#000000" points="279.5071,-43.9705 272.74,-35.8184 272.9463,-46.4112 279.5071,-43.9705"/>
<text text-anchor="middle" x="316.6702" y="-56.8" font-family="Times,serif" font-size="14.00" fill="#000000">category</text>
</g>
<!-- related to -->
<g id="node6" class="node">
<title>related to</title>
<ellipse fill="none" stroke="#000000" cx="340.5735" cy="-18" rx="27" ry="18"/>
</g>
<!-- zygosity&#45;&gt;related to -->
<g id="edge5" class="edge">
<title>zygosity&#45;&gt;related to</title>
<path fill="none" stroke="#000000" d="M427.9599,-96.5726C398.92,-89.9467 361.5365,-79.5316 351.1009,-68 345.7205,-62.0546 342.8272,-54.0742 341.3354,-46.237"/>
<polygon fill="#000000" stroke="#000000" points="344.7948,-45.693 340.0903,-36.2 337.8481,-46.5548 344.7948,-45.693"/>
<text text-anchor="middle" x="377.8099" y="-56.8" font-family="Times,serif" font-size="14.00" fill="#000000">related to</text>
</g>
<!-- node property -->
<g id="node7" class="node">
<title>node property</title>
<ellipse fill="none" stroke="#000000" cx="412.5735" cy="-18" rx="27" ry="18"/>
</g>
<!-- zygosity&#45;&gt;node property -->
<g id="edge6" class="edge">
<title>zygosity&#45;&gt;node property</title>
<path fill="none" stroke="#000000" d="M435.5204,-91.3242C426.0901,-85.6439 416.7059,-77.943 411.4319,-68 407.9475,-61.4309 406.9222,-53.6613 407.1006,-46.2296"/>
<polygon fill="#000000" stroke="#000000" points="410.6008,-46.3855 408.0234,-36.1089 403.6297,-45.7498 410.6008,-46.3855"/>
<text text-anchor="middle" x="450.6443" y="-56.8" font-family="Times,serif" font-size="14.00" fill="#000000">node property</text>
</g>
<!-- iri -->
<g id="node8" class="node">
<title>iri</title>
<ellipse fill="none" stroke="#000000" cx="484.5735" cy="-18" rx="27" ry="18"/>
</g>
<!-- zygosity&#45;&gt;iri -->
<g id="edge7" class="edge">
<title>zygosity&#45;&gt;iri</title>
<path fill="none" stroke="#000000" d="M481.7006,-87.544C486.4879,-81.8582 491.0644,-75.1146 493.5735,-68 496.1147,-60.7946 495.9056,-52.7405 494.5166,-45.2371"/>
<polygon fill="#000000" stroke="#000000" points="497.892,-44.3089 492.0385,-35.4779 491.1074,-46.0317 497.892,-44.3089"/>
<text text-anchor="middle" x="501.7942" y="-56.8" font-family="Times,serif" font-size="14.00" fill="#000000">iri</text>
</g>
<!-- synonym -->
<g id="node9" class="node">
<title>synonym</title>
<ellipse fill="none" stroke="#000000" cx="556.5735" cy="-18" rx="27" ry="18"/>
</g>
<!-- zygosity&#45;&gt;synonym -->
<g id="edge8" class="edge">
<title>zygosity&#45;&gt;synonym</title>
<path fill="none" stroke="#000000" d="M486.3012,-88.6682C494.4927,-82.5549 503.7217,-75.2535 511.5735,-68 520.3743,-59.8698 529.3485,-50.2258 536.9435,-41.587"/>
<polygon fill="#000000" stroke="#000000" points="539.6008,-43.865 543.4863,-34.0084 534.3021,-39.2906 539.6008,-43.865"/>
<text text-anchor="middle" x="551.2425" y="-56.8" font-family="Times,serif" font-size="14.00" fill="#000000">synonym</text>
</g>
<!-- full name -->
<g id="node10" class="node">
<title>full name</title>
<ellipse fill="none" stroke="#000000" cx="628.5735" cy="-18" rx="27" ry="18"/>
</g>
<!-- zygosity&#45;&gt;full name -->
<g id="edge9" class="edge">
<title>zygosity&#45;&gt;full name</title>
<path fill="none" stroke="#000000" d="M502.1198,-97.3824C525.8789,-92.0173 556.5345,-82.8499 580.5735,-68 591.5003,-61.2501 601.6596,-51.4371 609.7919,-42.2886"/>
<polygon fill="#000000" stroke="#000000" points="612.5868,-44.4043 616.3851,-34.5137 607.2479,-39.8769 612.5868,-44.4043"/>
<text text-anchor="middle" x="625.2029" y="-56.8" font-family="Times,serif" font-size="14.00" fill="#000000">full name</text>
</g>
<!-- description -->
<g id="node11" class="node">
<title>description</title>
<ellipse fill="none" stroke="#000000" cx="700.5735" cy="-18" rx="27" ry="18"/>
</g>
<!-- zygosity&#45;&gt;description -->
<g id="edge10" class="edge">
<title>zygosity&#45;&gt;description</title>
<path fill="none" stroke="#000000" d="M503.7634,-99.6118C551.8492,-93.7154 630.1302,-82.3035 655.5735,-68 666.3295,-61.9533 675.8722,-52.3809 683.3711,-43.2231"/>
<polygon fill="#000000" stroke="#000000" points="686.3399,-45.1038 689.6593,-35.0424 680.79,-40.8378 686.3399,-45.1038"/>
<text text-anchor="middle" x="704.677" y="-56.8" font-family="Times,serif" font-size="14.00" fill="#000000">description</text>
</g>
<!-- systematic synonym -->
<g id="node12" class="node">
<title>systematic synonym</title>
<ellipse fill="none" stroke="#000000" cx="785.5735" cy="-18" rx="27" ry="18"/>
</g>
<!-- zygosity&#45;&gt;systematic synonym -->
<g id="edge11" class="edge">
<title>zygosity&#45;&gt;systematic synonym</title>
<path fill="none" stroke="#000000" d="M504.4984,-102.1122C570.6089,-98.4374 699.5046,-88.7893 739.5735,-68 750.9106,-62.1179 760.8868,-52.2664 768.6251,-42.8558"/>
<polygon fill="#000000" stroke="#000000" points="771.4939,-44.867 774.8273,-34.8102 765.9499,-40.5932 771.4939,-44.867"/>
<text text-anchor="middle" x="814.5408" y="-56.8" font-family="Times,serif" font-size="14.00" fill="#000000">systematic synonym</text>
</g>
<!-- subclass of -->
<g id="node13" class="node">
<title>subclass of</title>
<ellipse fill="none" stroke="#000000" cx="922.5735" cy="-18" rx="27" ry="18"/>
</g>
<!-- zygosity&#45;&gt;subclass of -->
<g id="edge12" class="edge">
<title>zygosity&#45;&gt;subclass of</title>
<path fill="none" stroke="#000000" d="M504.4898,-102.1216C601.2335,-97.34 842.7096,-83.9498 875.5735,-68 887.1791,-62.3675 897.3756,-52.5544 905.2787,-43.1051"/>
<polygon fill="#000000" stroke="#000000" points="908.2071,-45.042 911.6112,-35.0089 902.6934,-40.7293 908.2071,-45.042"/>
<text text-anchor="middle" x="924.4856" y="-56.8" font-family="Times,serif" font-size="14.00" fill="#000000">subclass of</text>
</g>
</g>
</svg>
