<?xml version="1.0" encoding="UTF-8" standalone="no"?>
<!DOCTYPE svg PUBLIC "-//W3C//DTD SVG 1.1//EN"
 "http://www.w3.org/Graphics/SVG/1.1/DTD/svg11.dtd">
<!-- Generated by graphviz version 3.0.0 (20220226.1711)
 -->
<!-- Pages: 1 -->
<svg width="773pt" height="131pt"
 viewBox="0.00 0.00 772.84 131.00" xmlns="http://www.w3.org/2000/svg" xmlns:xlink="http://www.w3.org/1999/xlink">
<g id="graph0" class="graph" transform="scale(1 1) rotate(0) translate(4 127)">
<polygon fill="white" stroke="transparent" points="-4,4 -4,-127 768.84,-127 768.84,4 -4,4"/>
<!-- zygosity -->
<g id="node1" class="node">
<title>zygosity</title>
<ellipse fill="none" stroke="black" cx="372.3" cy="-105" rx="40.09" ry="18"/>
<text text-anchor="middle" x="372.3" y="-101.3" font-family="Times,serif" font-size="14.00">zygosity</text>
</g>
<!-- attribute -->
<g id="node2" class="node">
<title>attribute</title>
<ellipse fill="none" stroke="black" cx="40.3" cy="-18" rx="40.09" ry="18"/>
<text text-anchor="middle" x="40.3" y="-14.3" font-family="Times,serif" font-size="14.00">attribute</text>
</g>
<!-- zygosity&#45;&gt;attribute -->
<g id="edge1" class="edge">
<title>zygosity&#45;&gt;attribute</title>
<path fill="none" stroke="black" d="M333.62,-99.81C292.01,-94.74 224.16,-84.86 167.3,-69 136.06,-60.29 101.94,-46.6 76.93,-35.75"/>
<polygon fill="black" stroke="black" points="78.05,-32.42 67.48,-31.6 75.23,-38.83 78.05,-32.42"/>
<text text-anchor="middle" x="178.3" y="-57.8" font-family="Times,serif" font-size="14.00">is_a</text>
</g>
<!-- name -->
<g id="node3" class="node">
<title>name</title>
<ellipse fill="none" stroke="black" cx="129.3" cy="-18" rx="30.59" ry="18"/>
<text text-anchor="middle" x="129.3" y="-14.3" font-family="Times,serif" font-size="14.00">name</text>
</g>
<!-- zygosity&#45;&gt;name -->
<g id="edge2" class="edge">
<title>zygosity&#45;&gt;name</title>
<path fill="none" stroke="blue" d="M335.31,-97.81C305.12,-92.15 261.68,-82.57 225.3,-69 201.95,-60.29 177.03,-47.19 158.44,-36.58"/>
<polygon fill="blue" stroke="blue" points="160,-33.44 149.59,-31.45 156.49,-39.5 160,-33.44"/>
<text text-anchor="middle" x="240.8" y="-57.8" font-family="Times,serif" font-size="14.00">name</text>
</g>
<!-- has attribute type -->
<g id="node5" class="node">
<title>has attribute type</title>
<ellipse fill="none" stroke="blue" cx="239.3" cy="-18" rx="61.99" ry="18"/>
<text text-anchor="middle" x="239.3" y="-14.3" font-family="Times,serif" font-size="14.00">ontology class</text>
</g>
<!-- zygosity&#45;&gt;has attribute type -->
<g id="edge3" class="edge">
<title>zygosity&#45;&gt;has attribute type</title>
<path fill="none" stroke="blue" d="M336.15,-96.77C316.42,-91.5 292.4,-82.8 274.3,-69 265.79,-62.51 258.55,-53.37 252.9,-44.67"/>
<polygon fill="blue" stroke="blue" points="255.77,-42.65 247.6,-35.9 249.78,-46.27 255.77,-42.65"/>
<text text-anchor="middle" x="321.3" y="-57.8" font-family="Times,serif" font-size="14.00">has attribute type</text>
</g>
<!-- has quantitative value -->
<g id="node6" class="node">
<title>has quantitative value</title>
<ellipse fill="none" stroke="blue" cx="380.3" cy="-18" rx="61.19" ry="18"/>
<text text-anchor="middle" x="380.3" y="-14.3" font-family="Times,serif" font-size="14.00">quantity value</text>
</g>
<!-- zygosity&#45;&gt;has quantitative value -->
<g id="edge4" class="edge">
<title>zygosity&#45;&gt;has quantitative value</title>
<path fill="none" stroke="blue" d="M371.89,-86.83C371.85,-77.16 372.11,-64.88 373.3,-54 373.58,-51.41 373.96,-48.73 374.39,-46.06"/>
<polygon fill="blue" stroke="blue" points="377.88,-46.47 376.27,-36 370.99,-45.18 377.88,-46.47"/>
<text text-anchor="middle" x="432.8" y="-57.8" font-family="Times,serif" font-size="14.00">has quantitative value</text>
</g>
<!-- has qualitative value -->
<g id="node7" class="node">
<title>has qualitative value</title>
<ellipse fill="none" stroke="blue" cx="514.3" cy="-18" rx="55.49" ry="18"/>
<text text-anchor="middle" x="514.3" y="-14.3" font-family="Times,serif" font-size="14.00">named thing</text>
</g>
<!-- zygosity&#45;&gt;has qualitative value -->
<g id="edge5" class="edge">
<title>zygosity&#45;&gt;has qualitative value</title>
<path fill="none" stroke="blue" d="M402.85,-93.2C409.25,-91.06 415.97,-88.89 422.3,-87 453.08,-77.82 467.81,-89.79 492.3,-69 499.36,-63 504.24,-54.29 507.57,-45.82"/>
<polygon fill="blue" stroke="blue" points="510.95,-46.75 510.81,-36.16 504.31,-44.53 510.95,-46.75"/>
<text text-anchor="middle" x="559.3" y="-57.8" font-family="Times,serif" font-size="14.00">has qualitative value</text>
</g>
<!-- iri -->
<g id="node8" class="node">
<title>iri</title>
<ellipse fill="none" stroke="blue" cx="649.3" cy="-18" rx="36.29" ry="18"/>
<text text-anchor="middle" x="649.3" y="-14.3" font-family="Times,serif" font-size="14.00">iri type</text>
</g>
<!-- zygosity&#45;&gt;iri -->
<g id="edge6" class="edge">
<title>zygosity&#45;&gt;iri</title>
<path fill="none" stroke="blue" d="M401.85,-92.67C408.49,-90.48 415.57,-88.43 422.3,-87 465.3,-77.86 582.07,-92.38 619.3,-69 628.2,-63.41 634.82,-54.12 639.54,-45.05"/>
<polygon fill="blue" stroke="blue" points="642.78,-46.4 643.79,-35.85 636.42,-43.46 642.78,-46.4"/>
<text text-anchor="middle" x="640.8" y="-57.8" font-family="Times,serif" font-size="14.00">iri</text>
</g>
<!-- source -->
<g id="node9" class="node">
<title>source</title>
<ellipse fill="none" stroke="blue" cx="734.3" cy="-18" rx="30.59" ry="18"/>
<text text-anchor="middle" x="734.3" y="-14.3" font-family="Times,serif" font-size="14.00">string</text>
</g>
<!-- zygosity&#45;&gt;source -->
<g id="edge7" class="edge">
<title>zygosity&#45;&gt;source</title>
<path fill="none" stroke="blue" d="M401.84,-92.6C408.48,-90.42 415.56,-88.39 422.3,-87 522.29,-66.41 554.08,-100.17 651.3,-69 671.98,-62.37 692.91,-49.71 708.57,-38.79"/>
<polygon fill="blue" stroke="blue" points="710.62,-41.63 716.7,-32.95 706.54,-35.94 710.62,-41.63"/>
<text text-anchor="middle" x="701.3" y="-57.8" font-family="Times,serif" font-size="14.00">source</text>
</g>
<!-- attribute_name -->
<g id="node4" class="node">
<title>attribute_name</title>
<ellipse fill="none" stroke="blue" cx="476.3" cy="-105" rx="45.49" ry="18"/>
<text text-anchor="middle" x="476.3" y="-101.3" font-family="Times,serif" font-size="14.00">label type</text>
</g>
</g>
</svg>
