<?xml version="1.0" encoding="UTF-8" standalone="no"?>
<!DOCTYPE svg PUBLIC "-//W3C//DTD SVG 1.1//EN"
 "http://www.w3.org/Graphics/SVG/1.1/DTD/svg11.dtd">
<!-- Generated by graphviz version 2.43.0 (0)
 -->
<!-- Title: %3 Pages: 1 -->
<svg width="1679pt" height="131pt"
 viewBox="0.00 0.00 1679.19 131.00" xmlns="http://www.w3.org/2000/svg" xmlns:xlink="http://www.w3.org/1999/xlink">
<g id="graph0" class="graph" transform="scale(1 1) rotate(0) translate(4 127)">
<title>%3</title>
<polygon fill="white" stroke="transparent" points="-4,4 -4,-127 1675.19,-127 1675.19,4 -4,4"/>
<!-- zygosity -->
<g id="node1" class="node">
<title>zygosity</title>
<ellipse fill="none" stroke="black" cx="755" cy="-105" rx="49.29" ry="18"/>
<text text-anchor="middle" x="755" y="-101.3" font-family="Times,serif" font-size="14.00">zygosity</text>
</g>
<!-- attribute -->
<g id="node2" class="node">
<title>attribute</title>
<ellipse fill="none" stroke="black" cx="52" cy="-18" rx="51.99" ry="18"/>
<text text-anchor="middle" x="52" y="-14.3" font-family="Times,serif" font-size="14.00">attribute</text>
</g>
<!-- zygosity&#45;&gt;attribute -->
<g id="edge1" class="edge">
<title>zygosity&#45;&gt;attribute</title>
<path fill="none" stroke="black" d="M705.61,-103.86C612.92,-102.89 406.82,-97.4 236,-69 188.09,-61.04 134.66,-45.78 97.78,-34.2"/>
<polygon fill="black" stroke="black" points="98.42,-30.74 87.83,-31.05 96.3,-37.41 98.42,-30.74"/>
<text text-anchor="middle" x="250" y="-57.8" font-family="Times,serif" font-size="14.00">is_a</text>
</g>
<!-- id -->
<g id="node3" class="node">
<title>id</title>
<ellipse fill="none" stroke="blue" cx="160" cy="-18" rx="38.19" ry="18"/>
<text text-anchor="middle" x="160" y="-14.3" font-family="Times,serif" font-size="14.00">string</text>
</g>
<!-- zygosity&#45;&gt;id -->
<g id="edge2" class="edge">
<title>zygosity&#45;&gt;id</title>
<path fill="none" stroke="blue" d="M705.62,-102.94C625.71,-100.55 463.31,-92.94 328,-69 282.58,-60.97 232.07,-44.92 198.4,-33.17"/>
<polygon fill="blue" stroke="blue" points="199.54,-29.86 188.95,-29.82 197.21,-36.46 199.54,-29.86"/>
<text text-anchor="middle" x="335" y="-57.8" font-family="Times,serif" font-size="14.00">id</text>
</g>
<!-- type -->
<g id="node4" class="node">
<title>type</title>
<ellipse fill="none" stroke="blue" cx="255" cy="-18" rx="38.19" ry="18"/>
<text text-anchor="middle" x="255" y="-14.3" font-family="Times,serif" font-size="14.00">string</text>
</g>
<!-- zygosity&#45;&gt;type -->
<g id="edge3" class="edge">
<title>zygosity&#45;&gt;type</title>
<path fill="none" stroke="blue" d="M705.77,-102.91C636.22,-100.54 505.53,-92.99 397,-69 360.24,-60.88 319.9,-46.07 291.64,-34.67"/>
<polygon fill="blue" stroke="blue" points="292.75,-31.34 282.17,-30.79 290.1,-37.82 292.75,-31.34"/>
<text text-anchor="middle" x="413" y="-57.8" font-family="Times,serif" font-size="14.00">type</text>
</g>
<!-- description -->
<g id="node5" class="node">
<title>description</title>
<ellipse fill="none" stroke="blue" cx="387" cy="-18" rx="75.29" ry="18"/>
<text text-anchor="middle" x="387" y="-14.3" font-family="Times,serif" font-size="14.00">narrative text</text>
</g>
<!-- zygosity&#45;&gt;description -->
<g id="edge4" class="edge">
<title>zygosity&#45;&gt;description</title>
<path fill="none" stroke="blue" d="M706.61,-101.07C634.86,-96.26 503.99,-85.53 460,-69 443.36,-62.75 426.86,-51.94 413.76,-41.97"/>
<polygon fill="blue" stroke="blue" points="415.7,-39.04 405.68,-35.59 411.36,-44.54 415.7,-39.04"/>
<text text-anchor="middle" x="500.5" y="-57.8" font-family="Times,serif" font-size="14.00">description</text>
</g>
<!-- has attribute -->
<g id="node6" class="node">
<title>has attribute</title>
<ellipse fill="none" stroke="blue" cx="532" cy="-18" rx="51.99" ry="18"/>
<text text-anchor="middle" x="532" y="-14.3" font-family="Times,serif" font-size="14.00">attribute</text>
</g>
<!-- zygosity&#45;&gt;has attribute -->
<g id="edge5" class="edge">
<title>zygosity&#45;&gt;has attribute</title>
<path fill="none" stroke="blue" d="M706.94,-100.45C656.12,-95.84 580.15,-86.28 557,-69 549.2,-63.18 543.67,-54.25 539.84,-45.54"/>
<polygon fill="blue" stroke="blue" points="543.02,-44.07 536.19,-35.97 536.48,-46.56 543.02,-44.07"/>
<text text-anchor="middle" x="604" y="-57.8" font-family="Times,serif" font-size="14.00">has attribute</text>
</g>
<!-- provided by -->
<g id="node7" class="node">
<title>provided by</title>
<ellipse fill="none" stroke="blue" cx="640" cy="-18" rx="38.19" ry="18"/>
<text text-anchor="middle" x="640" y="-14.3" font-family="Times,serif" font-size="14.00">string</text>
</g>
<!-- zygosity&#45;&gt;provided by -->
<g id="edge6" class="edge">
<title>zygosity&#45;&gt;provided by</title>
<path fill="none" stroke="blue" d="M713.96,-94.61C697.58,-89.25 679.45,-81.11 666,-69 658.92,-62.63 653.46,-53.87 649.42,-45.46"/>
<polygon fill="blue" stroke="blue" points="652.62,-44.06 645.44,-36.27 646.2,-46.83 652.62,-44.06"/>
<text text-anchor="middle" x="708.5" y="-57.8" font-family="Times,serif" font-size="14.00">provided by</text>
</g>
<!-- xref -->
<g id="node8" class="node">
<title>xref</title>
<ellipse fill="none" stroke="blue" cx="754" cy="-18" rx="57.39" ry="18"/>
<text text-anchor="middle" x="754" y="-14.3" font-family="Times,serif" font-size="14.00">uriorcurie</text>
</g>
<!-- zygosity&#45;&gt;xref -->
<g id="edge7" class="edge">
<title>zygosity&#45;&gt;xref</title>
<path fill="none" stroke="blue" d="M754.79,-86.8C754.66,-75.16 754.47,-59.55 754.32,-46.24"/>
<polygon fill="blue" stroke="blue" points="757.81,-46.13 754.2,-36.18 750.82,-46.22 757.81,-46.13"/>
<text text-anchor="middle" x="769.5" y="-57.8" font-family="Times,serif" font-size="14.00">xref</text>
</g>
<!-- category -->
<g id="node9" class="node">
<title>category</title>
<ellipse fill="none" stroke="black" cx="881" cy="-18" rx="51.19" ry="18"/>
<text text-anchor="middle" x="881" y="-14.3" font-family="Times,serif" font-size="14.00">category</text>
</g>
<!-- zygosity&#45;&gt;category -->
<g id="edge8" class="edge">
<title>zygosity&#45;&gt;category</title>
<path fill="none" stroke="blue" d="M777.52,-88.8C797.64,-75.23 827.32,-55.21 849.74,-40.09"/>
<polygon fill="blue" stroke="blue" points="851.91,-42.85 858.24,-34.35 847.99,-37.04 851.91,-42.85"/>
<text text-anchor="middle" x="857.5" y="-57.8" font-family="Times,serif" font-size="14.00">category</text>
</g>
<!-- name -->
<g id="node11" class="node">
<title>name</title>
<ellipse fill="none" stroke="black" cx="987" cy="-18" rx="36.29" ry="18"/>
<text text-anchor="middle" x="987" y="-14.3" font-family="Times,serif" font-size="14.00">name</text>
</g>
<!-- zygosity&#45;&gt;name -->
<g id="edge9" class="edge">
<title>zygosity&#45;&gt;name</title>
<path fill="none" stroke="blue" d="M791.72,-92.85C798.76,-90.82 806.09,-88.79 813,-87 848.28,-77.87 858.82,-81.67 893,-69 915.13,-60.79 938.58,-48.33 956.52,-37.9"/>
<polygon fill="blue" stroke="blue" points="958.54,-40.77 965.36,-32.66 954.98,-34.74 958.54,-40.77"/>
<text text-anchor="middle" x="946" y="-57.8" font-family="Times,serif" font-size="14.00">name</text>
</g>
<!-- has attribute type -->
<g id="node13" class="node">
<title>has attribute type</title>
<ellipse fill="none" stroke="blue" cx="1118" cy="-18" rx="76.89" ry="18"/>
<text text-anchor="middle" x="1118" y="-14.3" font-family="Times,serif" font-size="14.00">ontology class</text>
</g>
<!-- zygosity&#45;&gt;has attribute type -->
<g id="edge10" class="edge">
<title>zygosity&#45;&gt;has attribute type</title>
<path fill="none" stroke="blue" d="M790.65,-92.51C797.98,-90.44 805.69,-88.48 813,-87 881.84,-73.07 901.45,-84.33 970,-69 1004.83,-61.21 1042.97,-48.21 1071.81,-37.42"/>
<polygon fill="blue" stroke="blue" points="1073.1,-40.68 1081.21,-33.86 1070.62,-34.13 1073.1,-40.68"/>
<text text-anchor="middle" x="1089" y="-57.8" font-family="Times,serif" font-size="14.00">has attribute type</text>
</g>
<!-- has quantitative value -->
<g id="node14" class="node">
<title>has quantitative value</title>
<ellipse fill="none" stroke="blue" cx="1290" cy="-18" rx="77.19" ry="18"/>
<text text-anchor="middle" x="1290" y="-14.3" font-family="Times,serif" font-size="14.00">quantity value</text>
</g>
<!-- zygosity&#45;&gt;has quantitative value -->
<g id="edge11" class="edge">
<title>zygosity&#45;&gt;has quantitative value</title>
<path fill="none" stroke="blue" d="M790.27,-92.24C797.7,-90.17 805.55,-88.27 813,-87 964.36,-61.23 1007.73,-100.57 1158,-69 1189.26,-62.43 1222.9,-49.59 1248.4,-38.57"/>
<polygon fill="blue" stroke="blue" points="1250.02,-41.68 1257.76,-34.45 1247.19,-35.27 1250.02,-41.68"/>
<text text-anchor="middle" x="1287" y="-57.8" font-family="Times,serif" font-size="14.00">has quantitative value</text>
</g>
<!-- has qualitative value -->
<g id="node15" class="node">
<title>has qualitative value</title>
<ellipse fill="none" stroke="blue" cx="1455" cy="-18" rx="69.59" ry="18"/>
<text text-anchor="middle" x="1455" y="-14.3" font-family="Times,serif" font-size="14.00">named thing</text>
</g>
<!-- zygosity&#45;&gt;has qualitative value -->
<g id="edge12" class="edge">
<title>zygosity&#45;&gt;has qualitative value</title>
<path fill="none" stroke="blue" d="M789.94,-92.21C797.47,-90.11 805.43,-88.21 813,-87 935.5,-67.4 1251.92,-103.83 1371,-69 1390.6,-63.26 1410.34,-51.87 1425.76,-41.4"/>
<polygon fill="blue" stroke="blue" points="1428.13,-44.01 1434.3,-35.4 1424.1,-38.29 1428.13,-44.01"/>
<text text-anchor="middle" x="1480.5" y="-57.8" font-family="Times,serif" font-size="14.00">has qualitative value</text>
</g>
<!-- iri -->
<g id="node16" class="node">
<title>iri</title>
<ellipse fill="none" stroke="blue" cx="1627" cy="-18" rx="44.39" ry="18"/>
<text text-anchor="middle" x="1627" y="-14.3" font-family="Times,serif" font-size="14.00">iri type</text>
</g>
<!-- zygosity&#45;&gt;iri -->
<g id="edge13" class="edge">
<title>zygosity&#45;&gt;iri</title>
<path fill="none" stroke="blue" d="M789.93,-92.17C797.46,-90.07 805.43,-88.18 813,-87 894.92,-74.23 1480.53,-95.79 1559,-69 1575.6,-63.33 1591.55,-52.02 1603.83,-41.59"/>
<polygon fill="blue" stroke="blue" points="1606.18,-44.19 1611.33,-34.93 1601.53,-38.95 1606.18,-44.19"/>
<text text-anchor="middle" x="1595" y="-57.8" font-family="Times,serif" font-size="14.00">iri</text>
</g>
<!-- named thing_category -->
<g id="node10" class="node">
<title>named thing_category</title>
<ellipse fill="none" stroke="blue" cx="897" cy="-105" rx="74.99" ry="18"/>
<text text-anchor="middle" x="897" y="-101.3" font-family="Times,serif" font-size="14.00">category type</text>
</g>
<!-- attribute_name -->
<g id="node12" class="node">
<title>attribute_name</title>
<ellipse fill="none" stroke="blue" cx="1046" cy="-105" rx="56.59" ry="18"/>
<text text-anchor="middle" x="1046" y="-101.3" font-family="Times,serif" font-size="14.00">label type</text>
</g>
</g>
</svg>
