<?xml version="1.0" encoding="UTF-8" standalone="no"?>
<!DOCTYPE svg PUBLIC "-//W3C//DTD SVG 1.1//EN"
 "http://www.w3.org/Graphics/SVG/1.1/DTD/svg11.dtd">
<!-- Generated by graphviz version 2.40.1 (20161225.0304)
 -->
<!-- Title: %3 Pages: 1 -->
<svg width="984pt" height="131pt"
 viewBox="0.00 0.00 983.54 131.00" xmlns="http://www.w3.org/2000/svg" xmlns:xlink="http://www.w3.org/1999/xlink">
<g id="graph0" class="graph" transform="scale(1 1) rotate(0) translate(4 127)">
<title>%3</title>
<polygon fill="#ffffff" stroke="transparent" points="-4,4 -4,-127 979.5404,-127 979.5404,4 -4,4"/>
<!-- zygosity -->
<g id="node1" class="node">
<title>zygosity</title>
<ellipse fill="none" stroke="#000000" cx="444.9954" cy="-105" rx="49.2915" ry="18"/>
<text text-anchor="middle" x="444.9954" y="-101.3" font-family="Times,serif" font-size="14.00" fill="#000000">zygosity</text>
</g>
<!-- attribute -->
<g id="node2" class="node">
<title>attribute</title>
<ellipse fill="none" stroke="#000000" cx="51.9954" cy="-18" rx="51.9908" ry="18"/>
<text text-anchor="middle" x="51.9954" y="-14.3" font-family="Times,serif" font-size="14.00" fill="#000000">attribute</text>
</g>
<!-- zygosity&#45;&gt;attribute -->
<g id="edge1" class="edge">
<title>zygosity&#45;&gt;attribute</title>
<path fill="none" stroke="#000000" d="M396.6626,-101.2047C345.125,-96.4514 261.4027,-86.6951 190.9954,-69 157.6908,-60.6297 121.2927,-47.1068 94.0995,-36.0885"/>
<polygon fill="#000000" stroke="#000000" points="95.1003,-32.716 84.5202,-32.1566 92.4422,-39.1917 95.1003,-32.716"/>
<text text-anchor="middle" x="204.9954" y="-57.8" font-family="Times,serif" font-size="14.00" fill="#000000">is_a</text>
</g>
<!-- name -->
<g id="node3" class="node">
<title>name</title>
<ellipse fill="none" stroke="#000000" cx="157.9954" cy="-18" rx="36.2938" ry="18"/>
<text text-anchor="middle" x="157.9954" y="-14.3" font-family="Times,serif" font-size="14.00" fill="#000000">name</text>
</g>
<!-- zygosity&#45;&gt;name -->
<g id="edge2" class="edge">
<title>zygosity&#45;&gt;name</title>
<path fill="none" stroke="#0000ff" d="M397.4001,-99.8383C358.5704,-94.7074 302.6986,-85.2077 255.9954,-69 232.7935,-60.9481 208.2841,-48.1918 189.5798,-37.4515"/>
<polygon fill="#0000ff" stroke="#0000ff" points="191.294,-34.3994 180.8952,-32.3705 187.7591,-40.4413 191.294,-34.3994"/>
<text text-anchor="middle" x="275.9954" y="-57.8" font-family="Times,serif" font-size="14.00" fill="#000000">name</text>
</g>
<!-- has attribute type -->
<g id="node5" class="node">
<title>has attribute type</title>
<ellipse fill="none" stroke="#0000ff" cx="289.9954" cy="-18" rx="77.1866" ry="18"/>
<text text-anchor="middle" x="289.9954" y="-14.3" font-family="Times,serif" font-size="14.00" fill="#000000">ontology class</text>
</g>
<!-- zygosity&#45;&gt;has attribute type -->
<g id="edge3" class="edge">
<title>zygosity&#45;&gt;has attribute type</title>
<path fill="none" stroke="#0000ff" d="M399.9921,-97.5019C366.1234,-91.0502 323.3398,-80.9142 309.9954,-69 303.2645,-62.9905 298.7757,-54.4305 295.7915,-46.036"/>
<polygon fill="#0000ff" stroke="#0000ff" points="299.1379,-45.0096 292.9354,-36.4201 292.4276,-47.0028 299.1379,-45.0096"/>
<text text-anchor="middle" x="374.9954" y="-57.8" font-family="Times,serif" font-size="14.00" fill="#000000">has attribute type</text>
</g>
<!-- has quantitative value -->
<g id="node6" class="node">
<title>has quantitative value</title>
<ellipse fill="none" stroke="#0000ff" cx="462.9954" cy="-18" rx="77.1866" ry="18"/>
<text text-anchor="middle" x="462.9954" y="-14.3" font-family="Times,serif" font-size="14.00" fill="#000000">quantity value</text>
</g>
<!-- zygosity&#45;&gt;has quantitative value -->
<g id="edge4" class="edge">
<title>zygosity&#45;&gt;has quantitative value</title>
<path fill="none" stroke="#0000ff" d="M443.5187,-86.8324C443.1747,-76.9908 443.4877,-64.6911 445.9954,-54 446.6613,-51.1611 447.5694,-48.2803 448.6217,-45.4483"/>
<polygon fill="#0000ff" stroke="#0000ff" points="451.8886,-46.7107 452.6133,-36.1407 445.4552,-43.9517 451.8886,-46.7107"/>
<text text-anchor="middle" x="525.9954" y="-57.8" font-family="Times,serif" font-size="14.00" fill="#000000">has quantitative value</text>
</g>
<!-- has qualitative value -->
<g id="node7" class="node">
<title>has qualitative value</title>
<ellipse fill="none" stroke="#0000ff" cx="627.9954" cy="-18" rx="69.5877" ry="18"/>
<text text-anchor="middle" x="627.9954" y="-14.3" font-family="Times,serif" font-size="14.00" fill="#000000">named thing</text>
</g>
<!-- zygosity&#45;&gt;has qualitative value -->
<g id="edge5" class="edge">
<title>zygosity&#45;&gt;has qualitative value</title>
<path fill="none" stroke="#0000ff" d="M481.6172,-92.8584C488.6673,-90.742 496.0264,-88.683 502.9954,-87 548.1683,-76.0906 569.5203,-97.7953 605.9954,-69 613.4191,-63.1393 618.3837,-54.2828 621.6838,-45.5864"/>
<polygon fill="#0000ff" stroke="#0000ff" points="625.0358,-46.595 624.7448,-36.0042 618.3677,-44.4649 625.0358,-46.595"/>
<text text-anchor="middle" x="692.4954" y="-57.8" font-family="Times,serif" font-size="14.00" fill="#000000">has qualitative value</text>
</g>
<!-- iri -->
<g id="node8" class="node">
<title>iri</title>
<ellipse fill="none" stroke="#0000ff" cx="799.9954" cy="-18" rx="44.393" ry="18"/>
<text text-anchor="middle" x="799.9954" y="-14.3" font-family="Times,serif" font-size="14.00" fill="#000000">iri type</text>
</g>
<!-- zygosity&#45;&gt;iri -->
<g id="edge6" class="edge">
<title>zygosity&#45;&gt;iri</title>
<path fill="none" stroke="#0000ff" d="M480.8666,-92.4399C488.1154,-90.3079 495.7397,-88.3503 502.9954,-87 561.6776,-76.0794 720.4361,-100.7273 770.9954,-69 779.7038,-63.5353 786.0533,-54.4513 790.5504,-45.4517"/>
<polygon fill="#0000ff" stroke="#0000ff" points="793.7711,-46.8223 794.5874,-36.2589 787.3619,-44.0076 793.7711,-46.8223"/>
<text text-anchor="middle" x="793.9954" y="-57.8" font-family="Times,serif" font-size="14.00" fill="#000000">iri</text>
</g>
<!-- source -->
<g id="node9" class="node">
<title>source</title>
<ellipse fill="none" stroke="#0000ff" cx="918.9954" cy="-18" rx="56.59" ry="18"/>
<text text-anchor="middle" x="918.9954" y="-14.3" font-family="Times,serif" font-size="14.00" fill="#000000">label type</text>
</g>
<!-- zygosity&#45;&gt;source -->
<g id="edge7" class="edge">
<title>zygosity&#45;&gt;source</title>
<path fill="none" stroke="#0000ff" d="M480.548,-92.4868C487.8899,-90.3229 495.6308,-88.3411 502.9954,-87 635.7168,-62.8312 675.0109,-101.2828 805.9954,-69 832.5737,-62.4494 860.6331,-49.8204 882.1423,-38.769"/>
<polygon fill="#0000ff" stroke="#0000ff" points="884.0106,-41.7412 891.2349,-33.9913 880.7545,-35.5445 884.0106,-41.7412"/>
<text text-anchor="middle" x="872.4954" y="-57.8" font-family="Times,serif" font-size="14.00" fill="#000000">source</text>
</g>
<!-- attribute_name -->
<g id="node4" class="node">
<title>attribute_name</title>
<ellipse fill="none" stroke="#0000ff" cx="568.9954" cy="-105" rx="56.59" ry="18"/>
<text text-anchor="middle" x="568.9954" y="-101.3" font-family="Times,serif" font-size="14.00" fill="#000000">label type</text>
</g>
</g>
</svg>
